<?xml version="1.0" encoding="utf-8" standalone="no"?>
<!DOCTYPE svg PUBLIC "-//W3C//DTD SVG 1.1//EN"
  "http://www.w3.org/Graphics/SVG/1.1/DTD/svg11.dtd">
<svg xmlns:xlink="http://www.w3.org/1999/xlink" width="689.6125pt" height="391.6261pt" viewBox="0 0 689.6125 391.6261" xmlns="http://www.w3.org/2000/svg" version="1.1">
 <metadata>
  <rdf:RDF xmlns:dc="http://purl.org/dc/elements/1.1/" xmlns:cc="http://creativecommons.org/ns#" xmlns:rdf="http://www.w3.org/1999/02/22-rdf-syntax-ns#">
   <cc:Work>
    <dc:type rdf:resource="http://purl.org/dc/dcmitype/StillImage"/>
    <dc:date>2026-07-09T23:30:35.843159</dc:date>
    <dc:format>image/svg+xml</dc:format>
    <dc:creator>
     <cc:Agent>
      <dc:title>Matplotlib v3.10.7, https://matplotlib.org/</dc:title>
     </cc:Agent>
    </dc:creator>
   </cc:Work>
  </rdf:RDF>
 </metadata>
 <defs>
  <style type="text/css">*{stroke-linejoin: round; stroke-linecap: butt}</style>
 </defs>
 <g id="figure_1">
  <g id="patch_1">
   <path d="M 0 391.6261 
L 689.6125 391.6261 
L 689.6125 0 
L 0 0 
z
" style="fill: #ffffff"/>
  </g>
  <g id="axes_1">
   <g id="patch_2">
    <path d="M 56.0125 349.8636 
L 682.4125 349.8636 
L 682.4125 34.5036 
L 56.0125 34.5036 
z
" style="fill: #ffffff"/>
   </g>
   <g id="matplotlib.axis_1">
    <g id="xtick_1">
     <g id="line2d_1">
      <path d="M 84.485227 349.8636 
L 84.485227 34.5036 
" clip-path="url(#p943892d733)" style="fill: none; stroke-dasharray: 2.22,0.96; stroke-dashoffset: 0; stroke: #b0b0b0; stroke-opacity: 0.25; stroke-width: 0.6"/>
     </g>
     <g id="line2d_2">
      <defs>
       <path id="m17fcc49328" d="M 0 0 
L 0 3.5 
" style="stroke: #000000; stroke-width: 0.8"/>
      </defs>
      <g>
       <use xlink:href="#m17fcc49328" x="84.485227" y="349.8636" style="stroke: #000000; stroke-width: 0.8"/>
      </g>
     </g>
     <g id="text_1">
      <!-- 0 -->
      <g transform="translate(81.485227 365.1136) scale(0.12 -0.12)">
       <defs>
        <path id="SimHei-30" d="M 225 2537 
Q 250 3200 412 3587 
Q 575 3975 875 4225 
Q 1175 4475 1612 4475 
Q 2050 4475 2375 4112 
Q 2700 3750 2800 3200 
Q 2900 2650 2862 1937 
Q 2825 1225 2612 775 
Q 2400 325 1975 150 
Q 1550 -25 1125 187 
Q 700 400 525 750 
Q 350 1100 275 1487 
Q 200 1875 225 2537 
z
M 750 2687 
Q 675 2000 800 1462 
Q 925 925 1212 700 
Q 1500 475 1800 612 
Q 2100 750 2237 1162 
Q 2375 1575 2375 2062 
Q 2375 2550 2337 2950 
Q 2300 3350 2112 3675 
Q 1925 4000 1612 4012 
Q 1300 4025 1062 3700 
Q 825 3375 750 2687 
z
" transform="scale(0.015625)"/>
       </defs>
       <use xlink:href="#SimHei-30"/>
      </g>
     </g>
    </g>
    <g id="xtick_2">
     <g id="line2d_3">
      <path d="M 155.845446 349.8636 
L 155.845446 34.5036 
" clip-path="url(#p943892d733)" style="fill: none; stroke-dasharray: 2.22,0.96; stroke-dashoffset: 0; stroke: #b0b0b0; stroke-opacity: 0.25; stroke-width: 0.6"/>
     </g>
     <g id="line2d_4">
      <g>
       <use xlink:href="#m17fcc49328" x="155.845446" y="349.8636" style="stroke: #000000; stroke-width: 0.8"/>
      </g>
     </g>
     <g id="text_2">
      <!-- 50 -->
      <g transform="translate(149.845446 365.1136) scale(0.12 -0.12)">
       <defs>
        <path id="SimHei-35" d="M 550 1325 
Q 725 650 1150 575 
Q 1575 500 1837 662 
Q 2100 825 2212 1087 
Q 2325 1350 2312 1675 
Q 2300 2000 2137 2225 
Q 1975 2450 1725 2525 
Q 1475 2600 1162 2525 
Q 850 2450 650 2175 
L 225 2225 
Q 275 2375 700 4375 
L 2675 4375 
L 2675 3925 
L 1075 3925 
Q 950 3250 825 2850 
Q 1200 3025 1525 3012 
Q 1850 3000 2150 2862 
Q 2450 2725 2587 2487 
Q 2725 2250 2787 2012 
Q 2850 1775 2837 1500 
Q 2825 1225 2725 937 
Q 2625 650 2425 462 
Q 2225 275 1937 162 
Q 1650 50 1275 75 
Q 900 100 562 350 
Q 225 600 100 1200 
L 550 1325 
z
" transform="scale(0.015625)"/>
       </defs>
       <use xlink:href="#SimHei-35"/>
       <use xlink:href="#SimHei-30" transform="translate(50 0)"/>
      </g>
     </g>
    </g>
    <g id="xtick_3">
     <g id="line2d_5">
      <path d="M 227.205665 349.8636 
L 227.205665 34.5036 
" clip-path="url(#p943892d733)" style="fill: none; stroke-dasharray: 2.22,0.96; stroke-dashoffset: 0; stroke: #b0b0b0; stroke-opacity: 0.25; stroke-width: 0.6"/>
     </g>
     <g id="line2d_6">
      <g>
       <use xlink:href="#m17fcc49328" x="227.205665" y="349.8636" style="stroke: #000000; stroke-width: 0.8"/>
      </g>
     </g>
     <g id="text_3">
      <!-- 100 -->
      <g transform="translate(218.205665 365.1136) scale(0.12 -0.12)">
       <defs>
        <path id="SimHei-31" d="M 1400 3600 
Q 1075 3275 575 2975 
L 575 3450 
Q 1200 3875 1600 4450 
L 1900 4450 
L 1900 150 
L 1400 150 
L 1400 3600 
z
" transform="scale(0.015625)"/>
       </defs>
       <use xlink:href="#SimHei-31"/>
       <use xlink:href="#SimHei-30" transform="translate(50 0)"/>
       <use xlink:href="#SimHei-30" transform="translate(100 0)"/>
      </g>
     </g>
    </g>
    <g id="xtick_4">
     <g id="line2d_7">
      <path d="M 298.565883 349.8636 
L 298.565883 34.5036 
" clip-path="url(#p943892d733)" style="fill: none; stroke-dasharray: 2.22,0.96; stroke-dashoffset: 0; stroke: #b0b0b0; stroke-opacity: 0.25; stroke-width: 0.6"/>
     </g>
     <g id="line2d_8">
      <g>
       <use xlink:href="#m17fcc49328" x="298.565883" y="349.8636" style="stroke: #000000; stroke-width: 0.8"/>
      </g>
     </g>
     <g id="text_4">
      <!-- 150 -->
      <g transform="translate(289.565883 365.1136) scale(0.12 -0.12)">
       <use xlink:href="#SimHei-31"/>
       <use xlink:href="#SimHei-35" transform="translate(50 0)"/>
       <use xlink:href="#SimHei-30" transform="translate(100 0)"/>
      </g>
     </g>
    </g>
    <g id="xtick_5">
     <g id="line2d_9">
      <path d="M 369.926102 349.8636 
L 369.926102 34.5036 
" clip-path="url(#p943892d733)" style="fill: none; stroke-dasharray: 2.22,0.96; stroke-dashoffset: 0; stroke: #b0b0b0; stroke-opacity: 0.25; stroke-width: 0.6"/>
     </g>
     <g id="line2d_10">
      <g>
       <use xlink:href="#m17fcc49328" x="369.926102" y="349.8636" style="stroke: #000000; stroke-width: 0.8"/>
      </g>
     </g>
     <g id="text_5">
      <!-- 200 -->
      <g transform="translate(360.926102 365.1136) scale(0.12 -0.12)">
       <defs>
        <path id="SimHei-32" d="M 300 250 
Q 325 625 650 925 
Q 975 1225 1475 1862 
Q 1975 2500 2125 2850 
Q 2275 3200 2237 3450 
Q 2200 3700 2000 3862 
Q 1800 4025 1537 4000 
Q 1275 3975 1037 3800 
Q 800 3625 675 3275 
L 200 3350 
Q 400 3925 712 4187 
Q 1025 4450 1450 4475 
Q 1700 4500 1900 4462 
Q 2100 4425 2312 4287 
Q 2525 4150 2662 3875 
Q 2800 3600 2762 3212 
Q 2725 2825 2375 2287 
Q 2025 1750 1025 600 
L 2825 600 
L 2825 150 
L 300 150 
L 300 250 
z
" transform="scale(0.015625)"/>
       </defs>
       <use xlink:href="#SimHei-32"/>
       <use xlink:href="#SimHei-30" transform="translate(50 0)"/>
       <use xlink:href="#SimHei-30" transform="translate(100 0)"/>
      </g>
     </g>
    </g>
    <g id="xtick_6">
     <g id="line2d_11">
      <path d="M 441.286321 349.8636 
L 441.286321 34.5036 
" clip-path="url(#p943892d733)" style="fill: none; stroke-dasharray: 2.22,0.96; stroke-dashoffset: 0; stroke: #b0b0b0; stroke-opacity: 0.25; stroke-width: 0.6"/>
     </g>
     <g id="line2d_12">
      <g>
       <use xlink:href="#m17fcc49328" x="441.286321" y="349.8636" style="stroke: #000000; stroke-width: 0.8"/>
      </g>
     </g>
     <g id="text_6">
      <!-- 250 -->
      <g transform="translate(432.286321 365.1136) scale(0.12 -0.12)">
       <use xlink:href="#SimHei-32"/>
       <use xlink:href="#SimHei-35" transform="translate(50 0)"/>
       <use xlink:href="#SimHei-30" transform="translate(100 0)"/>
      </g>
     </g>
    </g>
    <g id="xtick_7">
     <g id="line2d_13">
      <path d="M 512.64654 349.8636 
L 512.64654 34.5036 
" clip-path="url(#p943892d733)" style="fill: none; stroke-dasharray: 2.22,0.96; stroke-dashoffset: 0; stroke: #b0b0b0; stroke-opacity: 0.25; stroke-width: 0.6"/>
     </g>
     <g id="line2d_14">
      <g>
       <use xlink:href="#m17fcc49328" x="512.64654" y="349.8636" style="stroke: #000000; stroke-width: 0.8"/>
      </g>
     </g>
     <g id="text_7">
      <!-- 300 -->
      <g transform="translate(503.64654 365.1136) scale(0.12 -0.12)">
       <defs>
        <path id="SimHei-33" d="M 250 1225 
L 700 1300 
Q 800 975 1025 762 
Q 1250 550 1587 562 
Q 1925 575 2125 837 
Q 2325 1100 2300 1437 
Q 2275 1775 2037 1962 
Q 1800 2150 1275 2225 
L 1275 2550 
Q 1800 2600 2037 2825 
Q 2275 3050 2250 3412 
Q 2225 3775 1925 3937 
Q 1625 4100 1287 3975 
Q 950 3850 750 3275 
L 300 3350 
Q 450 3800 712 4100 
Q 975 4400 1425 4450 
Q 1875 4500 2212 4337 
Q 2550 4175 2687 3837 
Q 2825 3500 2725 3100 
Q 2625 2700 2150 2400 
Q 2500 2250 2687 1950 
Q 2875 1650 2812 1162 
Q 2750 675 2375 375 
Q 2000 75 1525 87 
Q 1050 100 700 387 
Q 350 675 250 1225 
z
" transform="scale(0.015625)"/>
       </defs>
       <use xlink:href="#SimHei-33"/>
       <use xlink:href="#SimHei-30" transform="translate(50 0)"/>
       <use xlink:href="#SimHei-30" transform="translate(100 0)"/>
      </g>
     </g>
    </g>
    <g id="xtick_8">
     <g id="line2d_15">
      <path d="M 584.006758 349.8636 
L 584.006758 34.5036 
" clip-path="url(#p943892d733)" style="fill: none; stroke-dasharray: 2.22,0.96; stroke-dashoffset: 0; stroke: #b0b0b0; stroke-opacity: 0.25; stroke-width: 0.6"/>
     </g>
     <g id="line2d_16">
      <g>
       <use xlink:href="#m17fcc49328" x="584.006758" y="349.8636" style="stroke: #000000; stroke-width: 0.8"/>
      </g>
     </g>
     <g id="text_8">
      <!-- 350 -->
      <g transform="translate(575.006758 365.1136) scale(0.12 -0.12)">
       <use xlink:href="#SimHei-33"/>
       <use xlink:href="#SimHei-35" transform="translate(50 0)"/>
       <use xlink:href="#SimHei-30" transform="translate(100 0)"/>
      </g>
     </g>
    </g>
    <g id="xtick_9">
     <g id="line2d_17">
      <path d="M 655.366977 349.8636 
L 655.366977 34.5036 
" clip-path="url(#p943892d733)" style="fill: none; stroke-dasharray: 2.22,0.96; stroke-dashoffset: 0; stroke: #b0b0b0; stroke-opacity: 0.25; stroke-width: 0.6"/>
     </g>
     <g id="line2d_18">
      <g>
       <use xlink:href="#m17fcc49328" x="655.366977" y="349.8636" style="stroke: #000000; stroke-width: 0.8"/>
      </g>
     </g>
     <g id="text_9">
      <!-- 400 -->
      <g transform="translate(646.366977 365.1136) scale(0.12 -0.12)">
       <defs>
        <path id="SimHei-34" d="M 2000 1100 
L 75 1100 
L 75 1525 
L 2100 4450 
L 2475 4450 
L 2475 1525 
L 3075 1525 
L 3075 1100 
L 2475 1100 
L 2475 150 
L 2000 150 
L 2000 1100 
z
M 2000 1525 
L 2000 3500 
L 600 1525 
L 2000 1525 
z
" transform="scale(0.015625)"/>
       </defs>
       <use xlink:href="#SimHei-34"/>
       <use xlink:href="#SimHei-30" transform="translate(50 0)"/>
       <use xlink:href="#SimHei-30" transform="translate(100 0)"/>
      </g>
     </g>
    </g>
    <g id="text_10">
     <!-- Episode -->
     <g transform="translate(339.4625 382.3011) scale(0.17 -0.17)">
      <defs>
       <path id="SimHei-45" d="M 2900 125 
L 350 125 
L 350 4400 
L 2775 4400 
L 2775 3925 
L 925 3925 
L 925 2600 
L 2625 2600 
L 2625 2125 
L 925 2125 
L 925 600 
L 2900 600 
L 2900 125 
z
" transform="scale(0.015625)"/>
       <path id="SimHei-70" d="M 2825 1525 
Q 2825 800 2475 425 
Q 2125 50 1625 50 
Q 1350 50 1150 162 
Q 950 275 800 500 
L 800 -800 
L 300 -800 
L 300 2925 
L 800 2925 
L 800 2550 
Q 950 2775 1150 2875 
Q 1350 2975 1625 2975 
Q 2125 2975 2475 2612 
Q 2825 2250 2825 1525 
z
M 2275 1525 
Q 2275 2000 2087 2262 
Q 1900 2525 1525 2525 
Q 1225 2525 1012 2262 
Q 800 2000 800 1525 
Q 800 1050 1012 775 
Q 1225 500 1525 500 
Q 1900 500 2087 775 
Q 2275 1050 2275 1525 
z
" transform="scale(0.015625)"/>
       <path id="SimHei-69" d="M 1800 3725 
L 1300 3725 
L 1300 4375 
L 1800 4375 
L 1800 3725 
z
M 1800 125 
L 1300 125 
L 1300 2925 
L 1800 2925 
L 1800 125 
z
" transform="scale(0.015625)"/>
       <path id="SimHei-73" d="M 2750 900 
Q 2750 500 2437 287 
Q 2125 75 1650 75 
Q 1050 75 725 312 
Q 400 550 400 1000 
L 900 1000 
Q 900 700 1112 600 
Q 1325 500 1625 500 
Q 1925 500 2075 612 
Q 2225 725 2225 900 
Q 2225 1025 2100 1150 
Q 1975 1275 1475 1350 
Q 900 1425 687 1637 
Q 475 1850 475 2200 
Q 475 2500 762 2737 
Q 1050 2975 1600 2975 
Q 2100 2975 2387 2750 
Q 2675 2525 2675 2150 
L 2175 2150 
Q 2175 2375 2012 2462 
Q 1850 2550 1600 2550 
Q 1275 2550 1137 2437 
Q 1000 2325 1000 2175 
Q 1000 2000 1125 1900 
Q 1250 1800 1650 1750 
Q 2300 1650 2525 1437 
Q 2750 1225 2750 900 
z
" transform="scale(0.015625)"/>
       <path id="SimHei-6f" d="M 2925 1525 
Q 2925 875 2525 475 
Q 2125 75 1575 75 
Q 1025 75 625 475 
Q 225 875 225 1525 
Q 225 2175 625 2575 
Q 1025 2975 1575 2975 
Q 2125 2975 2525 2575 
Q 2925 2175 2925 1525 
z
M 2375 1525 
Q 2375 2025 2125 2275 
Q 1875 2525 1575 2525 
Q 1275 2525 1025 2275 
Q 775 2025 775 1525 
Q 775 1025 1025 775 
Q 1275 525 1575 525 
Q 1875 525 2125 775 
Q 2375 1025 2375 1525 
z
" transform="scale(0.015625)"/>
       <path id="SimHei-64" d="M 2750 125 
L 2250 125 
L 2250 500 
Q 2100 275 1900 175 
Q 1700 75 1425 75 
Q 925 75 575 437 
Q 225 800 225 1525 
Q 225 2250 575 2625 
Q 925 3000 1425 3000 
Q 1700 3000 1900 2887 
Q 2100 2775 2250 2550 
L 2250 4400 
L 2750 4400 
L 2750 125 
z
M 2250 1525 
Q 2250 2000 2037 2275 
Q 1825 2550 1525 2550 
Q 1150 2550 962 2275 
Q 775 2000 775 1525 
Q 775 1050 962 787 
Q 1150 525 1525 525 
Q 1825 525 2037 787 
Q 2250 1050 2250 1525 
z
" transform="scale(0.015625)"/>
       <path id="SimHei-65" d="M 2850 1075 
Q 2800 625 2450 350 
Q 2100 75 1625 75 
Q 1025 75 637 462 
Q 250 850 250 1525 
Q 250 2200 637 2587 
Q 1025 2975 1625 2975 
Q 2150 2975 2487 2637 
Q 2825 2300 2825 1525 
L 800 1525 
Q 800 975 1037 750 
Q 1275 525 1625 525 
Q 1900 525 2075 662 
Q 2250 800 2300 1075 
L 2850 1075 
z
M 2250 1925 
Q 2200 2275 2025 2412 
Q 1850 2550 1575 2550 
Q 1325 2550 1125 2412 
Q 925 2275 825 1925 
L 2250 1925 
z
" transform="scale(0.015625)"/>
      </defs>
      <use xlink:href="#SimHei-45"/>
      <use xlink:href="#SimHei-70" transform="translate(50 0)"/>
      <use xlink:href="#SimHei-69" transform="translate(100 0)"/>
      <use xlink:href="#SimHei-73" transform="translate(150 0)"/>
      <use xlink:href="#SimHei-6f" transform="translate(200 0)"/>
      <use xlink:href="#SimHei-64" transform="translate(250 0)"/>
      <use xlink:href="#SimHei-65" transform="translate(300 0)"/>
     </g>
    </g>
   </g>
   <g id="matplotlib.axis_2">
    <g id="ytick_1">
     <g id="line2d_19">
      <path d="M 56.0125 312.77305 
L 682.4125 312.77305 
" clip-path="url(#p943892d733)" style="fill: none; stroke-dasharray: 2.22,0.96; stroke-dashoffset: 0; stroke: #b0b0b0; stroke-opacity: 0.25; stroke-width: 0.6"/>
     </g>
     <g id="line2d_20">
      <defs>
       <path id="m323eeb7e23" d="M 0 0 
L -3.5 0 
" style="stroke: #000000; stroke-width: 0.8"/>
      </defs>
      <g>
       <use xlink:href="#m323eeb7e23" x="56.0125" y="312.77305" style="stroke: #000000; stroke-width: 0.8"/>
      </g>
     </g>
     <g id="text_11">
      <!-- 600 -->
      <g transform="translate(31.0125 316.89805) scale(0.12 -0.12)">
       <defs>
        <path id="SimHei-36" d="M 250 1612 
Q 275 1975 387 2225 
Q 500 2475 725 2850 
L 1750 4450 
L 2325 4450 
L 1275 2800 
Q 1950 2975 2350 2750 
Q 2750 2525 2887 2237 
Q 3025 1950 3037 1612 
Q 3050 1275 2937 950 
Q 2825 625 2537 362 
Q 2250 100 1737 75 
Q 1225 50 862 262 
Q 500 475 362 862 
Q 225 1250 250 1612 
z
M 1025 787 
Q 1250 550 1625 525 
Q 2000 500 2250 775 
Q 2500 1050 2500 1575 
Q 2500 2100 2187 2300 
Q 1875 2500 1487 2450 
Q 1100 2400 925 2075 
Q 750 1750 775 1387 
Q 800 1025 1025 787 
z
" transform="scale(0.015625)"/>
       </defs>
       <use xlink:href="#SimHei-36"/>
       <use xlink:href="#SimHei-30" transform="translate(50 0)"/>
       <use xlink:href="#SimHei-30" transform="translate(100 0)"/>
      </g>
     </g>
    </g>
    <g id="ytick_2">
     <g id="line2d_21">
      <path d="M 56.0125 258.497617 
L 682.4125 258.497617 
" clip-path="url(#p943892d733)" style="fill: none; stroke-dasharray: 2.22,0.96; stroke-dashoffset: 0; stroke: #b0b0b0; stroke-opacity: 0.25; stroke-width: 0.6"/>
     </g>
     <g id="line2d_22">
      <g>
       <use xlink:href="#m323eeb7e23" x="56.0125" y="258.497617" style="stroke: #000000; stroke-width: 0.8"/>
      </g>
     </g>
     <g id="text_12">
      <!-- 800 -->
      <g transform="translate(31.0125 262.622617) scale(0.12 -0.12)">
       <defs>
        <path id="SimHei-38" d="M 175 1375 
Q 175 1675 325 1962 
Q 475 2250 825 2425 
Q 525 2600 425 2812 
Q 325 3025 312 3300 
Q 300 3575 387 3775 
Q 475 3975 650 4150 
Q 825 4325 1037 4387 
Q 1250 4450 1500 4450 
Q 1750 4450 1950 4400 
Q 2150 4350 2375 4187 
Q 2600 4025 2700 3725 
Q 2800 3425 2687 3025 
Q 2575 2625 2100 2400 
Q 2525 2275 2700 2012 
Q 2875 1750 2875 1375 
Q 2875 1000 2762 775 
Q 2650 550 2512 400 
Q 2375 250 2137 162 
Q 1900 75 1537 75 
Q 1175 75 912 162 
Q 650 250 475 425 
Q 300 600 237 837 
Q 175 1075 175 1375 
z
M 687 1400 
Q 675 1100 787 875 
Q 900 650 1200 587 
Q 1500 525 1825 600 
Q 2150 675 2275 950 
Q 2400 1225 2362 1500 
Q 2325 1775 2050 1962 
Q 1775 2150 1450 2125 
Q 1125 2100 912 1900 
Q 700 1700 687 1400 
z
M 775 3350 
Q 775 3100 950 2875 
Q 1125 2650 1500 2650 
Q 1875 2650 2062 2875 
Q 2250 3100 2237 3412 
Q 2225 3725 2012 3875 
Q 1800 4025 1437 4000 
Q 1075 3975 925 3787 
Q 775 3600 775 3350 
z
" transform="scale(0.015625)"/>
       </defs>
       <use xlink:href="#SimHei-38"/>
       <use xlink:href="#SimHei-30" transform="translate(50 0)"/>
       <use xlink:href="#SimHei-30" transform="translate(100 0)"/>
      </g>
     </g>
    </g>
    <g id="ytick_3">
     <g id="line2d_23">
      <path d="M 56.0125 204.222183 
L 682.4125 204.222183 
" clip-path="url(#p943892d733)" style="fill: none; stroke-dasharray: 2.22,0.96; stroke-dashoffset: 0; stroke: #b0b0b0; stroke-opacity: 0.25; stroke-width: 0.6"/>
     </g>
     <g id="line2d_24">
      <g>
       <use xlink:href="#m323eeb7e23" x="56.0125" y="204.222183" style="stroke: #000000; stroke-width: 0.8"/>
      </g>
     </g>
     <g id="text_13">
      <!-- 1000 -->
      <g transform="translate(25.0125 208.347183) scale(0.12 -0.12)">
       <use xlink:href="#SimHei-31"/>
       <use xlink:href="#SimHei-30" transform="translate(50 0)"/>
       <use xlink:href="#SimHei-30" transform="translate(100 0)"/>
       <use xlink:href="#SimHei-30" transform="translate(150 0)"/>
      </g>
     </g>
    </g>
    <g id="ytick_4">
     <g id="line2d_25">
      <path d="M 56.0125 149.94675 
L 682.4125 149.94675 
" clip-path="url(#p943892d733)" style="fill: none; stroke-dasharray: 2.22,0.96; stroke-dashoffset: 0; stroke: #b0b0b0; stroke-opacity: 0.25; stroke-width: 0.6"/>
     </g>
     <g id="line2d_26">
      <g>
       <use xlink:href="#m323eeb7e23" x="56.0125" y="149.94675" style="stroke: #000000; stroke-width: 0.8"/>
      </g>
     </g>
     <g id="text_14">
      <!-- 1200 -->
      <g transform="translate(25.0125 154.07175) scale(0.12 -0.12)">
       <use xlink:href="#SimHei-31"/>
       <use xlink:href="#SimHei-32" transform="translate(50 0)"/>
       <use xlink:href="#SimHei-30" transform="translate(100 0)"/>
       <use xlink:href="#SimHei-30" transform="translate(150 0)"/>
      </g>
     </g>
    </g>
    <g id="ytick_5">
     <g id="line2d_27">
      <path d="M 56.0125 95.671317 
L 682.4125 95.671317 
" clip-path="url(#p943892d733)" style="fill: none; stroke-dasharray: 2.22,0.96; stroke-dashoffset: 0; stroke: #b0b0b0; stroke-opacity: 0.25; stroke-width: 0.6"/>
     </g>
     <g id="line2d_28">
      <g>
       <use xlink:href="#m323eeb7e23" x="56.0125" y="95.671317" style="stroke: #000000; stroke-width: 0.8"/>
      </g>
     </g>
     <g id="text_15">
      <!-- 1400 -->
      <g transform="translate(25.0125 99.796317) scale(0.12 -0.12)">
       <use xlink:href="#SimHei-31"/>
       <use xlink:href="#SimHei-34" transform="translate(50 0)"/>
       <use xlink:href="#SimHei-30" transform="translate(100 0)"/>
       <use xlink:href="#SimHei-30" transform="translate(150 0)"/>
      </g>
     </g>
    </g>
    <g id="ytick_6">
     <g id="line2d_29">
      <path d="M 56.0125 41.395883 
L 682.4125 41.395883 
" clip-path="url(#p943892d733)" style="fill: none; stroke-dasharray: 2.22,0.96; stroke-dashoffset: 0; stroke: #b0b0b0; stroke-opacity: 0.25; stroke-width: 0.6"/>
     </g>
     <g id="line2d_30">
      <g>
       <use xlink:href="#m323eeb7e23" x="56.0125" y="41.395883" style="stroke: #000000; stroke-width: 0.8"/>
      </g>
     </g>
     <g id="text_16">
      <!-- 1600 -->
      <g transform="translate(25.0125 45.520883) scale(0.12 -0.12)">
       <use xlink:href="#SimHei-31"/>
       <use xlink:href="#SimHei-36" transform="translate(50 0)"/>
       <use xlink:href="#SimHei-30" transform="translate(100 0)"/>
       <use xlink:href="#SimHei-30" transform="translate(150 0)"/>
      </g>
     </g>
    </g>
    <g id="text_17">
     <!-- Total Reward -->
     <g transform="translate(18.8875 243.1836) rotate(-90) scale(0.17 -0.17)">
      <defs>
       <path id="SimHei-54" d="M 2850 3925 
L 1850 3925 
L 1850 125 
L 1275 125 
L 1275 3925 
L 275 3925 
L 275 4400 
L 2850 4400 
L 2850 3925 
z
" transform="scale(0.015625)"/>
       <path id="SimHei-74" d="M 2750 200 
Q 2625 150 2462 112 
Q 2300 75 2025 75 
Q 1575 75 1300 325 
Q 1025 575 1025 1025 
L 1025 2525 
L 175 2525 
L 175 2925 
L 1025 2925 
L 1025 3900 
L 1525 3900 
L 1525 2925 
L 2550 2925 
L 2550 2525 
L 1525 2525 
L 1525 1000 
Q 1525 800 1625 662 
Q 1725 525 2000 525 
Q 2275 525 2450 575 
Q 2625 625 2750 700 
L 2750 200 
z
" transform="scale(0.015625)"/>
       <path id="SimHei-61" d="M 2875 125 
L 2275 125 
Q 2225 175 2200 262 
Q 2175 350 2175 475 
Q 2000 275 1750 175 
Q 1500 75 1225 75 
Q 825 75 550 275 
Q 275 475 275 850 
Q 275 1225 525 1450 
Q 775 1675 1300 1750 
Q 1650 1800 1912 1875 
Q 2175 1950 2175 2075 
Q 2175 2225 2062 2375 
Q 1950 2525 1575 2525 
Q 1275 2525 1137 2412 
Q 1000 2300 950 2100 
L 400 2100 
Q 450 2500 762 2737 
Q 1075 2975 1575 2975 
Q 2125 2975 2400 2725 
Q 2675 2475 2675 2025 
L 2675 650 
Q 2675 500 2725 375 
Q 2775 250 2875 125 
z
M 2175 1050 
L 2175 1550 
Q 2025 1500 1887 1462 
Q 1750 1425 1425 1375 
Q 1050 1325 937 1200 
Q 825 1075 825 900 
Q 825 750 937 637 
Q 1050 525 1275 525 
Q 1500 525 1762 650 
Q 2025 775 2175 1050 
z
" transform="scale(0.015625)"/>
       <path id="SimHei-6c" d="M 1825 125 
L 1325 125 
L 1325 4400 
L 1825 4400 
L 1825 125 
z
" transform="scale(0.015625)"/>
       <path id="SimHei-20" transform="scale(0.015625)"/>
       <path id="SimHei-52" d="M 3000 125 
L 2400 125 
L 1500 1975 
L 850 1975 
L 850 125 
L 275 125 
L 275 4400 
L 1525 4400 
Q 2125 4400 2500 4112 
Q 2875 3825 2875 3175 
Q 2875 2675 2625 2400 
Q 2375 2125 2050 2050 
L 3000 125 
z
M 2300 3175 
Q 2300 3525 2087 3725 
Q 1875 3925 1400 3925 
L 850 3925 
L 850 2450 
L 1550 2450 
Q 1850 2450 2075 2612 
Q 2300 2775 2300 3175 
z
" transform="scale(0.015625)"/>
       <path id="SimHei-77" d="M 3075 2925 
L 2450 75 
L 1975 75 
L 1575 2250 
L 1525 2250 
L 1125 75 
L 650 75 
L 25 2925 
L 550 2925 
L 875 1050 
L 925 1050 
L 1275 2925 
L 1825 2925 
L 2175 1050 
L 2225 1050 
L 2550 2925 
L 3075 2925 
z
" transform="scale(0.015625)"/>
       <path id="SimHei-72" d="M 2500 2425 
Q 2025 2500 1700 2287 
Q 1375 2075 1150 1550 
L 1150 125 
L 650 125 
L 650 2925 
L 1150 2925 
L 1150 2200 
Q 1375 2600 1712 2787 
Q 2050 2975 2500 2975 
L 2500 2425 
z
" transform="scale(0.015625)"/>
      </defs>
      <use xlink:href="#SimHei-54"/>
      <use xlink:href="#SimHei-6f" transform="translate(50 0)"/>
      <use xlink:href="#SimHei-74" transform="translate(100 0)"/>
      <use xlink:href="#SimHei-61" transform="translate(150 0)"/>
      <use xlink:href="#SimHei-6c" transform="translate(200 0)"/>
      <use xlink:href="#SimHei-20" transform="translate(250 0)"/>
      <use xlink:href="#SimHei-52" transform="translate(300 0)"/>
      <use xlink:href="#SimHei-65" transform="translate(350 0)"/>
      <use xlink:href="#SimHei-77" transform="translate(400 0)"/>
      <use xlink:href="#SimHei-61" transform="translate(450 0)"/>
      <use xlink:href="#SimHei-72" transform="translate(500 0)"/>
      <use xlink:href="#SimHei-64" transform="translate(550 0)"/>
     </g>
    </g>
   </g>
   <g id="line2d_31">
    <path d="M 84.485227 279.578624 
L 85.912432 281.410437 
L 87.339636 289.383749 
L 88.76684 294.158982 
L 91.621249 283.452344 
L 93.048454 291.336716 
L 94.475658 288.267255 
L 95.902862 290.364594 
L 97.330067 296.633055 
L 98.757271 294.923509 
L 100.184475 309.462264 
L 101.61168 304.630694 
L 103.038884 309.880653 
L 104.466089 308.44068 
L 105.893293 316.329603 
L 107.320497 319.1026 
L 110.174906 316.028081 
L 111.60211 313.113847 
L 113.029315 307.483886 
L 114.456519 304.183362 
L 115.883724 312.93909 
L 117.310928 315.469465 
L 118.738132 309.79083 
L 120.165337 311.33272 
L 121.592541 314.459908 
L 123.019745 321.285608 
L 124.44695 330.03625 
L 125.874154 335.529055 
L 127.301359 323.715533 
L 128.728563 326.027442 
L 130.155767 322.801945 
L 131.582972 318.140902 
L 133.010176 315.557415 
L 135.864585 302.789415 
L 137.291789 294.077153 
L 138.718994 268.969498 
L 140.146198 246.892954 
L 141.573402 228.520323 
L 143.000607 211.611285 
L 145.855015 183.647096 
L 147.28222 171.222672 
L 148.709424 162.106725 
L 150.136629 150.162377 
L 151.563833 141.531066 
L 152.991037 131.614882 
L 154.418242 125.61319 
L 155.845446 118.287067 
L 160.127059 101.207582 
L 162.981468 95.040978 
L 164.408672 90.738719 
L 165.835877 85.397226 
L 168.690285 78.752446 
L 170.11749 75.729168 
L 171.544694 71.953689 
L 172.971898 69.818181 
L 174.399103 68.133953 
L 175.826307 67.052181 
L 177.253512 65.106508 
L 178.680716 62.964579 
L 180.10792 65.020292 
L 181.535125 65.185379 
L 182.962329 65.635149 
L 184.389533 64.873351 
L 187.243942 62.216869 
L 188.671147 62.440112 
L 190.098351 61.218183 
L 192.95276 59.550175 
L 194.379964 61.286211 
L 195.807168 60.597634 
L 197.234373 60.623269 
L 198.661577 60.763537 
L 200.088782 58.67738 
L 201.515986 57.822885 
L 202.94319 58.492982 
L 204.370395 58.398865 
L 205.797599 57.938654 
L 207.224803 56.982781 
L 208.652008 56.996604 
L 210.079212 56.023966 
L 211.506417 55.566914 
L 212.933621 57.527057 
L 214.360825 55.243146 
L 215.78803 56.580575 
L 217.215234 57.062868 
L 218.642438 59.349596 
L 220.069643 58.591078 
L 221.496847 58.191094 
L 222.924052 55.820254 
L 224.351256 55.422649 
L 225.77846 55.622807 
L 227.205665 55.007183 
L 228.632869 55.616598 
L 230.060073 59.348655 
L 231.487278 57.411495 
L 232.914482 56.682068 
L 234.341687 57.343824 
L 235.768891 55.597428 
L 237.196095 57.232754 
L 238.6233 56.427869 
L 240.050504 56.998172 
L 241.477708 59.068497 
L 244.332117 57.739819 
L 247.186526 57.765902 
L 248.61373 58.659105 
L 250.040935 54.936894 
L 251.468139 53.475963 
L 252.895343 52.806565 
L 254.322548 52.717405 
L 255.749752 53.156338 
L 257.176957 53.231845 
L 258.604161 55.125462 
L 260.031365 53.817984 
L 261.45857 54.534192 
L 262.885774 56.597905 
L 264.312978 55.855117 
L 265.740183 54.579388 
L 267.167387 54.44973 
L 268.594592 54.767907 
L 270.021796 55.404808 
L 271.449 56.270468 
L 272.876205 55.633637 
L 274.303409 54.378773 
L 275.730613 55.625437 
L 277.157818 57.34229 
L 278.585022 56.224323 
L 280.012227 55.906711 
L 281.439431 53.920839 
L 282.866635 53.809951 
L 284.29384 52.904255 
L 285.721044 54.495366 
L 287.148248 57.149759 
L 288.575453 60.069861 
L 290.002657 57.301025 
L 291.429862 57.068267 
L 292.857066 57.898547 
L 294.28427 58.375351 
L 295.711475 57.265193 
L 297.138679 58.475295 
L 298.565883 58.617051 
L 299.993088 61.741091 
L 301.420292 60.669493 
L 302.847497 61.136966 
L 304.274701 61.143385 
L 305.701905 61.48783 
L 307.12911 62.058416 
L 308.556314 61.461769 
L 309.983518 61.445899 
L 311.410723 62.573977 
L 312.837927 61.937794 
L 314.265132 61.153079 
L 315.692336 61.355857 
L 317.11954 59.34558 
L 318.546745 58.877238 
L 319.973949 58.981696 
L 321.401153 59.418339 
L 322.828358 61.023606 
L 324.255562 61.971882 
L 325.682767 59.685886 
L 327.109971 62.550907 
L 328.537175 61.149181 
L 329.96438 63.609201 
L 331.391584 64.926231 
L 332.818788 63.221537 
L 334.245993 62.279899 
L 335.673197 60.814757 
L 337.100402 60.48434 
L 338.527606 58.170111 
L 339.95481 59.960296 
L 341.382015 60.767848 
L 342.809219 60.038112 
L 344.236423 60.981538 
L 345.663628 58.718317 
L 347.090832 61.150009 
L 348.518037 61.565811 
L 349.945241 61.251991 
L 351.372445 61.374997 
L 352.79965 61.804688 
L 354.226854 64.038293 
L 355.654058 62.781905 
L 357.081263 59.498831 
L 358.508467 57.552025 
L 359.935672 54.306089 
L 361.362876 53.317637 
L 362.79008 55.071913 
L 365.644489 51.157852 
L 367.071693 51.323277 
L 368.498898 56.975397 
L 369.926102 57.128305 
L 371.353307 55.750821 
L 372.780511 55.257268 
L 374.207715 57.453833 
L 375.63492 60.46712 
L 377.062124 62.248808 
L 379.916533 60.985992 
L 381.343737 62.29825 
L 382.770942 62.997646 
L 384.198146 61.717495 
L 385.62535 60.088246 
L 387.052555 60.373077 
L 388.479759 60.013002 
L 389.906963 57.783387 
L 391.334168 56.866248 
L 392.761372 59.205991 
L 394.188577 59.656015 
L 395.615781 59.135392 
L 397.042985 59.783197 
L 398.47019 59.459241 
L 401.324598 60.9009 
L 402.751803 60.788243 
L 404.179007 59.942754 
L 405.606212 59.909345 
L 407.033416 58.867848 
L 408.46062 61.063789 
L 409.887825 59.300071 
L 411.315029 58.3402 
L 412.742233 55.778251 
L 414.169438 55.83631 
L 415.596642 54.772931 
L 417.023847 57.12018 
L 419.878255 59.740207 
L 421.30546 59.519172 
L 422.732664 59.650328 
L 424.159868 59.645939 
L 425.587073 58.804592 
L 427.014277 58.705149 
L 428.441482 57.569253 
L 429.868686 56.698026 
L 431.29589 57.122202 
L 432.723095 56.181621 
L 434.150299 54.779345 
L 435.577503 55.110835 
L 437.004708 57.499938 
L 438.431912 55.940356 
L 439.859117 55.727283 
L 441.286321 56.624333 
L 442.713525 56.559341 
L 444.14073 55.834893 
L 445.567934 56.072882 
L 446.995138 58.468142 
L 448.422343 57.714182 
L 449.849547 58.590962 
L 451.276752 57.667772 
L 452.703956 58.643052 
L 454.13116 58.701032 
L 455.558365 59.739322 
L 456.985569 59.710562 
L 458.412773 58.913117 
L 459.839978 60.809377 
L 461.267182 60.033286 
L 462.694387 58.928351 
L 464.121591 58.605873 
L 465.548795 57.693964 
L 466.976 55.917717 
L 468.403204 57.873439 
L 469.830408 56.541021 
L 471.257613 56.072125 
L 472.684817 54.643728 
L 474.112022 53.774865 
L 475.539226 54.507216 
L 478.393635 53.39594 
L 479.820839 53.912534 
L 481.248043 54.069974 
L 482.675248 53.686712 
L 484.102452 54.426445 
L 485.529657 56.159197 
L 486.956861 57.341473 
L 488.384065 58.061446 
L 489.81127 56.219143 
L 491.238474 56.302865 
L 492.665678 56.933387 
L 494.092883 57.741552 
L 495.520087 56.056915 
L 496.947292 55.805775 
L 498.374496 55.709521 
L 499.8017 59.224346 
L 501.228905 58.114597 
L 502.656109 58.420603 
L 504.083313 56.596684 
L 505.510518 57.010079 
L 506.937722 56.452478 
L 508.364927 56.508376 
L 509.792131 55.8033 
L 511.219335 55.615453 
L 512.64654 53.078719 
L 514.073744 54.113693 
L 515.500948 54.06425 
L 516.928153 55.015394 
L 518.355357 55.702622 
L 519.782562 53.167015 
L 522.63697 53.846405 
L 524.064175 53.911988 
L 525.491379 52.673378 
L 526.918583 52.504148 
L 528.345788 51.536829 
L 529.772992 50.709558 
L 532.627401 48.838145 
L 534.054605 49.827192 
L 535.48181 49.660473 
L 536.909014 51.442946 
L 538.336218 52.129329 
L 541.190627 55.785635 
L 542.617832 55.965009 
L 545.47224 54.349149 
L 546.899445 54.330281 
L 548.326649 55.928272 
L 549.753853 54.507223 
L 551.181058 56.13324 
L 552.608262 54.363778 
L 554.035467 57.202621 
L 555.462671 57.728311 
L 556.889875 57.332987 
L 558.31708 59.43626 
L 559.744284 58.15555 
L 561.171488 59.221519 
L 562.598693 57.182391 
L 564.025897 60.588089 
L 565.453102 59.839537 
L 566.880306 60.24929 
L 568.30751 60.042349 
L 569.734715 59.367412 
L 571.161919 58.433023 
L 572.589123 58.123168 
L 574.016328 58.040929 
L 575.443532 59.296413 
L 576.870737 57.530006 
L 578.297941 57.112616 
L 579.725145 55.349169 
L 581.15235 57.871666 
L 582.579554 57.998153 
L 584.006758 55.395581 
L 585.433963 55.133972 
L 586.861167 54.478034 
L 588.288371 56.063569 
L 589.715576 57.12058 
L 591.14278 56.581686 
L 592.569985 56.341345 
L 593.997189 54.677414 
L 595.424393 55.558596 
L 596.851598 52.700736 
L 598.278802 54.03074 
L 599.706006 54.870765 
L 601.133211 54.132089 
L 602.560415 52.442853 
L 603.98762 53.428902 
L 605.414824 54.832998 
L 606.842028 57.165005 
L 608.269233 56.3772 
L 609.696437 53.779946 
L 611.123641 53.536667 
L 612.550846 54.231114 
L 615.405255 57.277192 
L 616.832459 55.832098 
L 618.259663 54.669169 
L 619.686868 56.624985 
L 621.114072 56.596869 
L 622.541276 56.148515 
L 625.395685 54.656871 
L 626.82289 55.852156 
L 628.250094 56.194495 
L 629.677298 54.81883 
L 632.531707 57.895977 
L 633.958911 58.471265 
L 635.386116 58.794113 
L 636.81332 58.685322 
L 638.240525 60.088127 
L 639.667729 61.855589 
L 641.094933 60.879202 
L 642.522138 57.596892 
L 643.949342 58.49653 
L 645.376546 56.340541 
L 646.803751 57.007248 
L 648.230955 54.57231 
L 649.65816 56.500127 
L 651.085364 56.161834 
L 652.512568 54.697379 
L 653.939773 54.68297 
L 653.939773 54.68297 
" clip-path="url(#p943892d733)" style="fill: none; stroke: #1f77b4; stroke-width: 1.2; stroke-linecap: square"/>
   </g>
   <g id="line2d_32">
    <path d="M 84.485227 211.807658 
L 85.912432 208.86742 
L 87.339636 229.899041 
L 88.76684 237.320113 
L 91.621249 244.068954 
L 93.048454 250.799028 
L 94.475658 250.97197 
L 95.902862 259.610415 
L 97.330067 266.737774 
L 98.757271 269.692986 
L 100.184475 273.025131 
L 103.038884 283.151864 
L 104.466089 279.548971 
L 105.893293 290.981471 
L 107.320497 299.735809 
L 108.747702 297.187785 
L 110.174906 302.414204 
L 111.60211 303.86403 
L 113.029315 309.229473 
L 114.456519 319.192287 
L 115.883724 318.101221 
L 117.310928 318.781588 
L 118.738132 317.251064 
L 120.165337 328.795552 
L 121.592541 320.516708 
L 123.019745 327.1645 
L 124.44695 326.864615 
L 125.874154 324.790951 
L 127.301359 321.317545 
L 128.728563 322.42515 
L 130.155767 315.045254 
L 131.582972 314.430327 
L 133.010176 311.556782 
L 134.43738 310.367175 
L 135.864585 309.692272 
L 137.291789 315.47732 
L 138.718994 317.862442 
L 140.146198 320.96118 
L 141.573402 303.603457 
L 144.427811 258.545749 
L 145.855015 240.140023 
L 150.136629 190.412164 
L 152.991037 165.601739 
L 154.418242 155.450562 
L 155.845446 146.512466 
L 157.27265 136.696376 
L 158.699855 128.153856 
L 161.554263 118.324189 
L 162.981468 110.639763 
L 164.408672 106.451144 
L 165.835877 102.658072 
L 167.263081 96.544209 
L 168.690285 93.350702 
L 170.11749 90.760461 
L 171.544694 87.362028 
L 172.971898 85.948301 
L 174.399103 82.390349 
L 175.826307 82.599089 
L 177.253512 79.697881 
L 178.680716 78.8629 
L 180.10792 77.870982 
L 181.535125 75.996443 
L 182.962329 74.549926 
L 184.389533 72.60341 
L 185.816738 75.33053 
L 188.671147 68.687149 
L 190.098351 69.714021 
L 192.95276 68.018709 
L 194.379964 66.702615 
L 195.807168 64.830281 
L 197.234373 64.466134 
L 198.661577 64.3746 
L 200.088782 64.123088 
L 201.515986 61.246762 
L 202.94319 62.130105 
L 205.797599 63.268041 
L 207.224803 63.530477 
L 208.652008 61.480137 
L 210.079212 61.96968 
L 211.506417 62.3304 
L 212.933621 62.075627 
L 214.360825 61.952781 
L 215.78803 61.70479 
L 218.642438 62.291843 
L 220.069643 61.392248 
L 221.496847 61.580678 
L 222.924052 59.564609 
L 224.351256 60.274584 
L 225.77846 60.334742 
L 227.205665 60.154206 
L 228.632869 59.361591 
L 230.060073 58.170479 
L 231.487278 59.496674 
L 232.914482 57.778875 
L 234.341687 59.365156 
L 235.768891 60.392911 
L 237.196095 60.732457 
L 238.6233 61.565229 
L 240.050504 64.33281 
L 241.477708 64.39911 
L 242.904913 65.952608 
L 244.332117 64.301586 
L 245.759322 63.405516 
L 247.186526 62.191205 
L 248.61373 62.167681 
L 250.040935 61.025097 
L 251.468139 58.967082 
L 252.895343 58.88443 
L 254.322548 60.591023 
L 255.749752 63.433341 
L 257.176957 62.251143 
L 258.604161 61.274206 
L 260.031365 62.096468 
L 261.45857 61.505997 
L 262.885774 59.484078 
L 264.312978 58.202498 
L 265.740183 60.05004 
L 267.167387 60.400745 
L 268.594592 61.057087 
L 270.021796 60.462854 
L 271.449 60.962078 
L 272.876205 60.225403 
L 274.303409 60.837812 
L 275.730613 60.348266 
L 277.157818 60.073041 
L 278.585022 57.798421 
L 280.012227 56.724714 
L 281.439431 57.326226 
L 282.866635 55.951505 
L 284.29384 57.258842 
L 285.721044 56.712659 
L 287.148248 59.152454 
L 288.575453 59.092339 
L 290.002657 58.607919 
L 291.429862 57.082756 
L 292.857066 56.749434 
L 294.28427 56.738194 
L 295.711475 58.081721 
L 297.138679 56.749007 
L 298.565883 55.779312 
L 301.420292 57.528363 
L 302.847497 57.147902 
L 304.274701 55.534393 
L 305.701905 55.413256 
L 307.12911 54.434405 
L 308.556314 54.084951 
L 309.983518 56.721375 
L 311.410723 56.735797 
L 312.837927 54.734788 
L 314.265132 54.392667 
L 315.692336 54.48618 
L 317.11954 55.291651 
L 318.546745 57.189791 
L 319.973949 57.643607 
L 321.401153 58.437659 
L 322.828358 58.721506 
L 324.255562 60.433628 
L 325.682767 60.956698 
L 327.109971 61.890789 
L 328.537175 62.203292 
L 329.96438 60.485781 
L 331.391584 59.094017 
L 332.818788 59.12464 
L 334.245993 59.967939 
L 335.673197 60.094318 
L 337.100402 61.094448 
L 338.527606 61.55235 
L 339.95481 63.271026 
L 341.382015 63.088584 
L 342.809219 60.001298 
L 344.236423 61.218648 
L 345.663628 60.420653 
L 347.090832 58.682172 
L 348.518037 58.019971 
L 351.372445 58.727075 
L 352.79965 60.515497 
L 354.226854 58.192252 
L 355.654058 56.116474 
L 357.081263 53.83101 
L 358.508467 55.4227 
L 359.935672 56.324115 
L 361.362876 54.814544 
L 362.79008 55.575199 
L 364.217285 54.593049 
L 365.644489 52.72085 
L 367.071693 52.111678 
L 368.498898 52.170188 
L 369.926102 54.417745 
L 371.353307 55.105703 
L 372.780511 55.043237 
L 374.207715 57.021741 
L 375.63492 57.082863 
L 377.062124 59.565413 
L 378.489328 60.323368 
L 379.916533 58.299244 
L 381.343737 56.505373 
L 382.770942 57.105348 
L 384.198146 56.989404 
L 385.62535 55.814427 
L 387.052555 54.341518 
L 388.479759 55.652816 
L 389.906963 55.782738 
L 391.334168 55.017192 
L 392.761372 55.776575 
L 394.188577 55.118899 
L 395.615781 53.583721 
L 397.042985 53.782184 
L 398.47019 54.198968 
L 399.897394 53.928105 
L 402.751803 55.923852 
L 404.179007 55.622477 
L 407.033416 57.973176 
L 408.46062 57.212594 
L 409.887825 57.237121 
L 411.315029 56.668921 
L 412.742233 57.542732 
L 414.169438 61.3571 
L 415.596642 61.244218 
L 418.451051 62.056594 
L 419.878255 60.723575 
L 421.30546 61.469948 
L 422.732664 59.894206 
L 424.159868 59.332555 
L 425.587073 57.947511 
L 427.014277 55.911566 
L 428.441482 55.529604 
L 429.868686 54.555321 
L 431.29589 52.838 
L 432.723095 55.242472 
L 435.577503 55.022315 
L 437.004708 56.454401 
L 438.431912 56.652538 
L 439.859117 53.989643 
L 441.286321 54.071237 
L 442.713525 56.602365 
L 444.14073 57.393327 
L 445.567934 57.250077 
L 446.995138 56.958405 
L 448.422343 56.420639 
L 449.849547 55.587404 
L 451.276752 56.557317 
L 452.703956 56.423766 
L 454.13116 57.731716 
L 455.558365 57.937526 
L 456.985569 58.791661 
L 458.412773 58.695088 
L 459.839978 58.27516 
L 461.267182 58.933841 
L 462.694387 56.718439 
L 464.121591 57.390254 
L 465.548795 55.826218 
L 466.976 57.260814 
L 468.403204 56.984073 
L 469.830408 57.52857 
L 471.257613 56.777507 
L 472.684817 57.966531 
L 474.112022 54.652622 
L 475.539226 54.330791 
L 476.96643 56.573736 
L 478.393635 55.567033 
L 479.820839 54.964149 
L 481.248043 55.102346 
L 482.675248 56.158109 
L 484.102452 56.876299 
L 485.529657 54.858963 
L 486.956861 52.451576 
L 488.384065 55.761537 
L 489.81127 55.182087 
L 491.238474 53.617048 
L 492.665678 55.320159 
L 494.092883 54.862551 
L 495.520087 56.403424 
L 496.947292 58.156914 
L 498.374496 57.072365 
L 499.8017 57.298694 
L 501.228905 59.929707 
L 502.656109 60.929672 
L 504.083313 59.762845 
L 505.510518 59.285995 
L 506.937722 59.373386 
L 509.792131 58.541512 
L 511.219335 58.420135 
L 512.64654 58.81555 
L 514.073744 58.334835 
L 515.500948 59.803757 
L 516.928153 60.417959 
L 519.782562 59.404252 
L 521.209766 59.089467 
L 522.63697 58.575434 
L 524.064175 57.045518 
L 525.491379 58.87591 
L 526.918583 58.111063 
L 528.345788 57.732329 
L 529.772992 57.687244 
L 531.200197 58.226163 
L 532.627401 57.896185 
L 534.054605 56.663706 
L 535.48181 58.554654 
L 536.909014 58.116925 
L 538.336218 59.187185 
L 539.763423 59.430733 
L 541.190627 61.374083 
L 542.617832 61.372045 
L 544.045036 62.073015 
L 545.47224 64.176491 
L 546.899445 62.15823 
L 548.326649 62.488272 
L 549.753853 61.183456 
L 551.181058 60.582307 
L 552.608262 58.887632 
L 554.035467 58.342284 
L 555.462671 57.123767 
L 556.889875 56.963977 
L 558.31708 56.191743 
L 559.744284 56.676659 
L 561.171488 59.62246 
L 562.598693 59.266961 
L 564.025897 59.484883 
L 566.880306 56.274016 
L 568.30751 55.199423 
L 572.589123 53.835006 
L 575.443532 55.7452 
L 576.870737 56.624633 
L 578.297941 56.21313 
L 581.15235 56.88783 
L 582.579554 56.213736 
L 584.006758 53.746373 
L 585.433963 56.047585 
L 586.861167 55.9307 
L 588.288371 52.854369 
L 589.715576 55.128983 
L 591.14278 56.142375 
L 592.569985 55.476828 
L 593.997189 56.617684 
L 595.424393 55.914951 
L 596.851598 55.950441 
L 598.278802 52.432188 
L 602.560415 55.678901 
L 603.98762 59.51851 
L 605.414824 57.704582 
L 606.842028 57.050716 
L 608.269233 58.747659 
L 609.696437 59.849235 
L 611.123641 60.383147 
L 612.550846 59.505408 
L 613.97805 59.367926 
L 615.405255 57.355804 
L 616.832459 58.4589 
L 618.259663 58.849811 
L 619.686868 57.626795 
L 621.114072 58.35011 
L 622.541276 57.288841 
L 623.968481 57.784574 
L 625.395685 56.676346 
L 626.82289 57.415073 
L 628.250094 57.059419 
L 629.677298 57.281893 
L 631.104503 58.002272 
L 632.531707 57.326454 
L 633.958911 58.930545 
L 635.386116 59.179163 
L 636.81332 58.116311 
L 638.240525 58.797169 
L 639.667729 55.751603 
L 641.094933 56.458006 
L 642.522138 55.990614 
L 643.949342 55.033624 
L 645.376546 56.896191 
L 646.803751 56.774536 
L 648.230955 55.034101 
L 649.65816 53.711204 
L 651.085364 53.564051 
L 652.512568 54.163844 
L 653.939773 55.105641 
L 653.939773 55.105641 
" clip-path="url(#p943892d733)" style="fill: none; stroke: #ff7f0e; stroke-width: 1.2; stroke-linecap: square"/>
   </g>
   <g id="line2d_33">
    <path d="M 84.485227 299.795982 
L 85.912432 299.151551 
L 87.339636 288.44806 
L 88.76684 279.944791 
L 90.194045 268.407844 
L 91.621249 255.119807 
L 93.048454 245.370651 
L 94.475658 232.052043 
L 95.902862 222.243114 
L 98.757271 197.509847 
L 100.184475 185.244423 
L 101.61168 181.495405 
L 103.038884 171.509016 
L 104.466089 164.000432 
L 105.893293 152.855844 
L 107.320497 146.2269 
L 108.747702 136.820771 
L 110.174906 131.189775 
L 111.60211 123.156788 
L 113.029315 118.105018 
L 114.456519 110.258174 
L 115.883724 105.774086 
L 117.310928 100.194387 
L 118.738132 96.807028 
L 120.165337 91.918349 
L 121.592541 85.712423 
L 123.019745 82.712902 
L 124.44695 81.649521 
L 127.301359 76.940743 
L 128.728563 74.060869 
L 130.155767 72.48068 
L 131.582972 69.82308 
L 133.010176 66.795187 
L 134.43738 65.382546 
L 135.864585 64.417921 
L 137.291789 63.626502 
L 138.718994 62.144295 
L 140.146198 62.24223 
L 141.573402 60.980315 
L 143.000607 59.996372 
L 144.427811 59.190584 
L 145.855015 59.365095 
L 147.28222 57.647863 
L 148.709424 57.324669 
L 150.136629 55.21594 
L 152.991037 56.169225 
L 154.418242 55.775734 
L 155.845446 55.206223 
L 157.27265 56.468135 
L 158.699855 57.200223 
L 160.127059 55.886308 
L 162.981468 56.04529 
L 164.408672 57.50003 
L 165.835877 57.152944 
L 167.263081 56.990053 
L 168.690285 57.221272 
L 170.11749 59.364526 
L 171.544694 58.437978 
L 172.971898 59.081333 
L 174.399103 60.968865 
L 175.826307 62.278936 
L 177.253512 62.105639 
L 178.680716 60.027276 
L 180.10792 60.388121 
L 181.535125 61.947668 
L 182.962329 61.732729 
L 184.389533 61.638289 
L 185.816738 60.876092 
L 187.243942 61.04646 
L 188.671147 59.756627 
L 190.098351 59.172207 
L 191.525555 59.239024 
L 192.95276 58.660659 
L 194.379964 61.522902 
L 195.807168 59.6475 
L 197.234373 60.835658 
L 198.661577 61.83822 
L 200.088782 62.027448 
L 202.94319 64.246667 
L 204.370395 65.382274 
L 207.224803 64.072992 
L 208.652008 62.665117 
L 210.079212 62.951465 
L 211.506417 61.519156 
L 212.933621 61.174698 
L 215.78803 60.946325 
L 217.215234 64.155685 
L 218.642438 62.825484 
L 220.069643 63.002853 
L 221.496847 62.44395 
L 222.924052 59.67141 
L 224.351256 62.324113 
L 225.77846 61.759869 
L 227.205665 61.503493 
L 228.632869 62.343789 
L 230.060073 64.090766 
L 232.914482 65.252183 
L 234.341687 65.845755 
L 235.768891 64.745633 
L 237.196095 64.366329 
L 238.6233 61.169947 
L 240.050504 61.594973 
L 241.477708 59.875213 
L 242.904913 59.642248 
L 244.332117 59.204721 
L 245.759322 61.079834 
L 247.186526 61.80774 
L 248.61373 61.495184 
L 250.040935 59.03968 
L 251.468139 59.054013 
L 252.895343 57.824746 
L 254.322548 56.931279 
L 255.749752 53.858472 
L 257.176957 54.530601 
L 258.604161 54.510087 
L 260.031365 54.064336 
L 261.45857 54.624272 
L 262.885774 54.759414 
L 264.312978 56.969211 
L 267.167387 57.028863 
L 268.594592 57.535473 
L 270.021796 56.275808 
L 271.449 59.114294 
L 272.876205 58.277363 
L 274.303409 56.678762 
L 275.730613 55.476394 
L 277.157818 56.425434 
L 278.585022 57.699176 
L 280.012227 56.969685 
L 281.439431 56.42523 
L 284.29384 59.147963 
L 285.721044 58.309132 
L 287.148248 57.906597 
L 288.575453 58.460565 
L 290.002657 57.514466 
L 291.429862 56.34191 
L 292.857066 57.079284 
L 294.28427 55.044286 
L 295.711475 53.349004 
L 297.138679 54.611791 
L 298.565883 56.381191 
L 299.993088 54.204194 
L 301.420292 54.680043 
L 304.274701 57.420855 
L 305.701905 55.485151 
L 307.12911 54.452712 
L 308.556314 54.714545 
L 309.983518 56.205529 
L 311.410723 57.429277 
L 312.837927 55.615077 
L 314.265132 55.101453 
L 317.11954 58.318292 
L 318.546745 58.266535 
L 319.973949 59.335598 
L 321.401153 58.647521 
L 322.828358 55.729123 
L 324.255562 57.580129 
L 325.682767 57.641886 
L 327.109971 56.615199 
L 328.537175 56.54686 
L 329.96438 58.104597 
L 331.391584 57.226093 
L 332.818788 56.075895 
L 334.245993 56.825548 
L 335.673197 56.451634 
L 337.100402 56.677455 
L 338.527606 58.818961 
L 341.382015 59.27784 
L 342.809219 59.86542 
L 344.236423 57.441212 
L 345.663628 59.470692 
L 347.090832 59.848621 
L 348.518037 57.717074 
L 351.372445 57.742053 
L 352.79965 58.150617 
L 355.654058 57.604839 
L 357.081263 57.949424 
L 358.508467 56.248076 
L 361.362876 60.201985 
L 362.79008 61.177569 
L 364.217285 59.084449 
L 367.071693 57.842707 
L 368.498898 59.03404 
L 369.926102 59.252228 
L 371.353307 59.118248 
L 372.780511 59.561668 
L 374.207715 60.332023 
L 375.63492 62.10865 
L 377.062124 62.561692 
L 378.489328 61.128645 
L 379.916533 60.177507 
L 381.343737 58.877417 
L 382.770942 58.283082 
L 384.198146 56.93344 
L 385.62535 53.658757 
L 387.052555 54.436682 
L 388.479759 52.564293 
L 389.906963 53.729093 
L 391.334168 56.541814 
L 392.761372 54.82058 
L 394.188577 54.316722 
L 395.615781 55.252541 
L 397.042985 55.363879 
L 398.47019 54.55411 
L 399.897394 53.970533 
L 401.324598 53.835805 
L 402.751803 51.884283 
L 404.179007 54.772266 
L 405.606212 54.132923 
L 407.033416 52.680834 
L 408.46062 55.573067 
L 409.887825 57.432232 
L 411.315029 56.370973 
L 412.742233 55.651287 
L 414.169438 56.218089 
L 415.596642 58.744343 
L 417.023847 60.22119 
L 418.451051 57.530657 
L 419.878255 55.762977 
L 422.732664 57.286645 
L 424.159868 57.117575 
L 425.587073 57.384141 
L 427.014277 55.811539 
L 428.441482 59.358707 
L 431.29589 61.787108 
L 434.150299 61.189067 
L 435.577503 60.235192 
L 437.004708 55.96763 
L 438.431912 58.029973 
L 439.859117 57.938871 
L 441.286321 57.412897 
L 442.713525 59.301144 
L 444.14073 60.436096 
L 445.567934 63.085433 
L 446.995138 63.300951 
L 448.422343 62.001043 
L 449.849547 59.922288 
L 451.276752 59.563544 
L 452.703956 56.958805 
L 454.13116 57.405121 
L 455.558365 58.839318 
L 456.985569 59.471001 
L 458.412773 58.921497 
L 459.839978 59.71399 
L 461.267182 57.983561 
L 462.694387 58.689556 
L 464.121591 58.476923 
L 465.548795 59.450631 
L 466.976 57.191532 
L 468.403204 57.078154 
L 469.830408 56.426806 
L 472.684817 58.148984 
L 474.112022 58.167454 
L 475.539226 60.61066 
L 476.96643 59.805398 
L 478.393635 60.10708 
L 479.820839 62.611178 
L 482.675248 62.059733 
L 484.102452 62.35214 
L 485.529657 63.291357 
L 486.956861 61.841328 
L 488.384065 62.717333 
L 489.81127 64.706079 
L 491.238474 62.17624 
L 492.665678 59.256067 
L 494.092883 61.418128 
L 495.520087 62.299184 
L 496.947292 62.502659 
L 498.374496 61.89082 
L 499.8017 60.441379 
L 501.228905 62.833574 
L 502.656109 61.684951 
L 504.083313 59.915588 
L 505.510518 60.717738 
L 506.937722 60.192752 
L 508.364927 59.807861 
L 509.792131 57.204246 
L 511.219335 57.754161 
L 512.64654 55.466354 
L 514.073744 55.48502 
L 515.500948 56.970598 
L 516.928153 54.308357 
L 518.355357 55.643902 
L 521.209766 57.530687 
L 522.63697 58.661661 
L 524.064175 58.898399 
L 525.491379 57.973996 
L 526.918583 58.650284 
L 528.345788 56.54722 
L 529.772992 58.3688 
L 531.200197 58.155868 
L 532.627401 56.167264 
L 534.054605 56.738971 
L 535.48181 56.448503 
L 536.909014 58.11284 
L 538.336218 59.103726 
L 539.763423 57.992261 
L 541.190627 57.559974 
L 542.617832 59.961374 
L 544.045036 63.091998 
L 546.899445 65.383858 
L 548.326649 64.454511 
L 549.753853 62.344744 
L 551.181058 61.904424 
L 552.608262 62.604046 
L 555.462671 59.696505 
L 556.889875 59.13316 
L 558.31708 59.741959 
L 559.744284 62.134637 
L 561.171488 62.247571 
L 562.598693 60.359634 
L 564.025897 58.659661 
L 565.453102 60.457835 
L 566.880306 60.450417 
L 568.30751 60.144741 
L 569.734715 60.399956 
L 571.161919 59.448815 
L 572.589123 60.070787 
L 574.016328 60.857568 
L 575.443532 61.089116 
L 576.870737 58.493854 
L 578.297941 56.5993 
L 579.725145 56.751648 
L 581.15235 53.774248 
L 582.579554 54.950128 
L 584.006758 56.688056 
L 585.433963 55.617692 
L 586.861167 53.864773 
L 588.288371 54.817109 
L 589.715576 54.383197 
L 591.14278 53.809757 
L 592.569985 53.741441 
L 593.997189 51.981569 
L 595.424393 51.977122 
L 596.851598 54.922178 
L 598.278802 55.466004 
L 599.706006 56.867603 
L 601.133211 56.474543 
L 602.560415 55.239981 
L 603.98762 55.101406 
L 606.842028 57.866773 
L 608.269233 59.743408 
L 609.696437 59.461146 
L 611.123641 59.439769 
L 612.550846 60.949678 
L 613.97805 60.691276 
L 615.405255 61.327504 
L 616.832459 62.337937 
L 618.259663 61.733194 
L 619.686868 61.503151 
L 621.114072 62.577318 
L 622.541276 62.844761 
L 623.968481 64.563708 
L 625.395685 64.492644 
L 626.82289 63.779931 
L 628.250094 62.552377 
L 629.677298 63.502745 
L 631.104503 63.078733 
L 632.531707 60.087426 
L 633.958911 58.346078 
L 635.386116 57.235956 
L 636.81332 55.95099 
L 638.240525 53.569846 
L 639.667729 52.650268 
L 642.522138 52.700055 
L 643.949342 53.590819 
L 645.376546 53.52635 
L 649.65816 52.616994 
L 651.085364 53.459696 
L 652.512568 54.442095 
L 653.939773 54.876684 
L 653.939773 54.876684 
" clip-path="url(#p943892d733)" style="fill: none; stroke: #2ca02c; stroke-width: 1.2; stroke-linecap: square"/>
   </g>
   <g id="line2d_34">
    <path d="M 84.485227 299.795982 
L 85.912432 301.597703 
L 87.339636 301.582703 
L 88.76684 297.22682 
L 90.194045 284.293144 
L 91.621249 265.994878 
L 93.048454 251.386071 
L 94.475658 232.944887 
L 98.757271 192.746853 
L 100.184475 178.03228 
L 101.61168 167.325722 
L 104.466089 148.227528 
L 105.893293 140.948507 
L 107.320497 129.538713 
L 108.747702 123.212679 
L 110.174906 115.606938 
L 111.60211 111.708549 
L 114.456519 98.567734 
L 118.738132 88.691751 
L 121.592541 79.649158 
L 123.019745 77.573353 
L 124.44695 73.780241 
L 125.874154 75.456828 
L 128.728563 73.333269 
L 131.582972 72.970517 
L 133.010176 71.663617 
L 134.43738 70.605143 
L 135.864585 70.450254 
L 137.291789 69.160724 
L 138.718994 70.283803 
L 140.146198 69.327896 
L 141.573402 71.358974 
L 143.000607 71.109976 
L 144.427811 68.520781 
L 145.855015 69.325605 
L 147.28222 67.792683 
L 148.709424 65.576031 
L 150.136629 66.783072 
L 152.991037 64.44337 
L 154.418242 64.562374 
L 155.845446 63.849038 
L 157.27265 65.440036 
L 158.699855 65.465887 
L 160.127059 64.214941 
L 161.554263 62.535132 
L 162.981468 63.155049 
L 164.408672 61.377541 
L 165.835877 61.749635 
L 168.690285 63.87046 
L 170.11749 64.601887 
L 172.971898 60.684458 
L 175.826307 59.138629 
L 178.680716 59.154442 
L 181.535125 61.516002 
L 185.816738 60.45462 
L 187.243942 61.388813 
L 188.671147 61.137512 
L 190.098351 61.994314 
L 191.525555 60.783158 
L 192.95276 58.596284 
L 194.379964 60.57067 
L 195.807168 59.668335 
L 197.234373 60.560956 
L 198.661577 59.172755 
L 200.088782 60.615464 
L 201.515986 58.253697 
L 202.94319 60.548603 
L 204.370395 61.957863 
L 205.797599 63.546175 
L 207.224803 61.186864 
L 208.652008 60.79941 
L 210.079212 59.818995 
L 211.506417 59.194136 
L 212.933621 59.472197 
L 214.360825 59.44025 
L 215.78803 58.142978 
L 217.215234 56.127557 
L 218.642438 57.84231 
L 220.069643 59.015442 
L 221.496847 58.567722 
L 222.924052 58.534325 
L 224.351256 59.11856 
L 225.77846 61.492872 
L 227.205665 61.010541 
L 228.632869 59.600029 
L 230.060073 57.563158 
L 231.487278 58.79068 
L 232.914482 59.674145 
L 234.341687 57.674499 
L 235.768891 56.468881 
L 237.196095 56.789102 
L 238.6233 55.297923 
L 240.050504 53.457423 
L 241.477708 51.93631 
L 242.904913 52.662071 
L 244.332117 52.89284 
L 245.759322 53.491931 
L 247.186526 54.29831 
L 248.61373 56.843144 
L 250.040935 56.855982 
L 251.468139 57.618454 
L 252.895343 57.953363 
L 254.322548 60.717827 
L 255.749752 60.755771 
L 257.176957 58.260153 
L 258.604161 60.109676 
L 260.031365 60.063428 
L 261.45857 59.849569 
L 262.885774 58.59943 
L 264.312978 55.444976 
L 265.740183 57.92543 
L 267.167387 57.259836 
L 268.594592 56.100645 
L 270.021796 55.916739 
L 271.449 53.916816 
L 272.876205 55.640541 
L 274.303409 56.050572 
L 275.730613 56.018749 
L 277.157818 55.175555 
L 278.585022 56.39463 
L 280.012227 56.707811 
L 281.439431 55.446892 
L 282.866635 57.823893 
L 285.721044 57.922707 
L 287.148248 60.945168 
L 288.575453 61.142783 
L 290.002657 60.758339 
L 291.429862 59.979106 
L 294.28427 59.237284 
L 295.711475 59.202524 
L 298.565883 57.292326 
L 299.993088 57.542522 
L 301.420292 57.477254 
L 302.847497 56.991471 
L 304.274701 56.31778 
L 305.701905 56.796849 
L 307.12911 55.84404 
L 308.556314 54.282373 
L 309.983518 55.035854 
L 311.410723 55.529423 
L 314.265132 55.733813 
L 315.692336 57.48478 
L 317.11954 56.501411 
L 318.546745 54.664842 
L 319.973949 55.67829 
L 321.401153 57.021248 
L 322.828358 56.669486 
L 324.255562 54.61508 
L 325.682767 54.600638 
L 327.109971 54.156214 
L 328.537175 55.165011 
L 329.96438 56.427843 
L 331.391584 58.340148 
L 332.818788 58.344409 
L 334.245993 57.221399 
L 335.673197 56.665114 
L 337.100402 56.58898 
L 338.527606 59.457372 
L 339.95481 59.450347 
L 341.382015 60.088941 
L 342.809219 59.582801 
L 344.236423 58.021408 
L 345.663628 55.427235 
L 347.090832 54.602084 
L 348.518037 55.702129 
L 349.945241 55.314854 
L 351.372445 54.367438 
L 352.79965 55.34743 
L 354.226854 54.611345 
L 355.654058 55.843737 
L 358.508467 55.883687 
L 359.935672 56.039337 
L 361.362876 59.68415 
L 362.79008 60.441541 
L 364.217285 61.531374 
L 365.644489 58.894789 
L 367.071693 57.433724 
L 368.498898 57.838141 
L 369.926102 56.830025 
L 371.353307 54.843506 
L 372.780511 55.692664 
L 374.207715 57.47862 
L 375.63492 56.594842 
L 377.062124 57.634283 
L 378.489328 58.117584 
L 381.343737 56.0519 
L 382.770942 57.531604 
L 384.198146 59.43135 
L 385.62535 58.198326 
L 387.052555 61.028568 
L 388.479759 62.585767 
L 389.906963 61.178492 
L 391.334168 61.793231 
L 392.761372 63.234414 
L 394.188577 61.970483 
L 395.615781 59.655476 
L 397.042985 59.937437 
L 398.47019 56.943766 
L 401.324598 52.6291 
L 402.751803 51.545592 
L 404.179007 51.629083 
L 405.606212 52.54271 
L 407.033416 55.252927 
L 408.46062 55.37515 
L 409.887825 57.233873 
L 411.315029 58.043043 
L 412.742233 56.986257 
L 414.169438 57.585127 
L 415.596642 57.443005 
L 417.023847 59.29615 
L 418.451051 60.024775 
L 419.878255 59.395624 
L 421.30546 60.615918 
L 422.732664 58.787167 
L 424.159868 58.101716 
L 425.587073 58.233018 
L 427.014277 57.149066 
L 428.441482 57.228444 
L 429.868686 57.546522 
L 431.29589 56.988107 
L 432.723095 56.182953 
L 434.150299 53.859183 
L 435.577503 54.573337 
L 437.004708 54.436126 
L 438.431912 53.438606 
L 439.859117 58.371438 
L 441.286321 60.425561 
L 442.713525 60.469292 
L 444.14073 60.271025 
L 445.567934 61.855415 
L 448.422343 61.755834 
L 449.849547 60.396474 
L 451.276752 60.071211 
L 452.703956 60.246558 
L 454.13116 58.271985 
L 455.558365 58.173743 
L 456.985569 59.042559 
L 458.412773 59.363905 
L 459.839978 58.796924 
L 461.267182 59.166512 
L 462.694387 57.294397 
L 464.121591 55.954617 
L 465.548795 56.486371 
L 466.976 55.301468 
L 468.403204 54.31798 
L 469.830408 54.451573 
L 471.257613 52.531403 
L 472.684817 55.38475 
L 474.112022 55.780134 
L 475.539226 56.862676 
L 476.96643 58.316124 
L 478.393635 60.760861 
L 479.820839 61.111901 
L 481.248043 61.343917 
L 482.675248 61.024205 
L 484.102452 61.50099 
L 485.529657 61.80036 
L 486.956861 59.846556 
L 488.384065 60.775163 
L 489.81127 62.604502 
L 491.238474 62.194101 
L 492.665678 59.43391 
L 494.092883 58.712326 
L 495.520087 60.720134 
L 496.947292 61.902066 
L 498.374496 62.271475 
L 499.8017 62.012265 
L 501.228905 60.663629 
L 502.656109 58.875591 
L 504.083313 57.833924 
L 505.510518 57.07306 
L 506.937722 60.182522 
L 508.364927 59.699562 
L 509.792131 60.986674 
L 511.219335 58.154836 
L 512.64654 57.020192 
L 514.073744 56.429993 
L 515.500948 57.706683 
L 518.355357 58.861849 
L 519.782562 60.950793 
L 521.209766 59.483518 
L 522.63697 59.320039 
L 524.064175 57.701951 
L 525.491379 59.209201 
L 526.918583 58.488373 
L 528.345788 60.397611 
L 529.772992 59.536038 
L 531.200197 60.365313 
L 532.627401 60.505621 
L 534.054605 60.110985 
L 535.48181 59.153516 
L 536.909014 58.410481 
L 538.336218 60.039271 
L 539.763423 59.031191 
L 541.190627 59.06936 
L 542.617832 58.677073 
L 544.045036 58.725403 
L 546.899445 64.080035 
L 548.326649 60.081661 
L 549.753853 58.292899 
L 551.181058 57.61588 
L 552.608262 57.136171 
L 554.035467 57.464092 
L 555.462671 55.040623 
L 556.889875 53.908204 
L 558.31708 55.063732 
L 559.744284 56.65312 
L 561.171488 57.211145 
L 562.598693 57.92041 
L 564.025897 55.752783 
L 565.453102 55.6008 
L 566.880306 56.883024 
L 569.734715 54.094005 
L 571.161919 55.152992 
L 574.016328 52.986269 
L 575.443532 51.512882 
L 576.870737 53.103534 
L 578.297941 53.413782 
L 579.725145 54.80694 
L 581.15235 53.444253 
L 582.579554 53.488287 
L 584.006758 50.797953 
L 585.433963 51.44525 
L 586.861167 52.496414 
L 588.288371 50.306098 
L 589.715576 51.374478 
L 591.14278 52.270336 
L 592.569985 53.92304 
L 593.997189 55.20423 
L 595.424393 57.028721 
L 596.851598 55.797188 
L 598.278802 56.67469 
L 599.706006 56.871543 
L 601.133211 57.420158 
L 602.560415 56.792676 
L 603.98762 56.80347 
L 605.414824 54.348715 
L 606.842028 54.397121 
L 608.269233 53.742822 
L 609.696437 54.798551 
L 611.123641 57.16149 
L 612.550846 57.696733 
L 613.97805 58.359173 
L 615.405255 58.387229 
L 616.832459 60.152719 
L 618.259663 60.047424 
L 619.686868 60.121188 
L 621.114072 60.549741 
L 622.541276 60.575357 
L 625.395685 60.96358 
L 626.82289 59.530033 
L 628.250094 57.49439 
L 629.677298 55.899194 
L 631.104503 56.687046 
L 632.531707 56.479417 
L 633.958911 54.812852 
L 635.386116 54.535734 
L 636.81332 55.0352 
L 638.240525 55.935095 
L 639.667729 54.653007 
L 641.094933 54.305802 
L 642.522138 54.100324 
L 643.949342 52.377156 
L 645.376546 52.631365 
L 646.803751 52.726957 
L 648.230955 52.084312 
L 649.65816 50.58694 
L 652.512568 52.073997 
L 653.939773 53.873103 
L 653.939773 53.873103 
" clip-path="url(#p943892d733)" style="fill: none; stroke: #9b8ac9; stroke-width: 1.2; stroke-linecap: square"/>
   </g>
   <g id="patch_3">
    <path d="M 56.0125 349.8636 
L 56.0125 34.5036 
" style="fill: none; stroke: #000000; stroke-width: 0.8; stroke-linejoin: miter; stroke-linecap: square"/>
   </g>
   <g id="patch_4">
    <path d="M 682.4125 349.8636 
L 682.4125 34.5036 
" style="fill: none; stroke: #000000; stroke-width: 0.8; stroke-linejoin: miter; stroke-linecap: square"/>
   </g>
   <g id="patch_5">
    <path d="M 56.0125 349.8636 
L 682.4125 349.8636 
" style="fill: none; stroke: #000000; stroke-width: 0.8; stroke-linejoin: miter; stroke-linecap: square"/>
   </g>
   <g id="patch_6">
    <path d="M 56.0125 34.5036 
L 682.4125 34.5036 
" style="fill: none; stroke: #000000; stroke-width: 0.8; stroke-linejoin: miter; stroke-linecap: square"/>
   </g>
   <g id="legend_1">
    <g id="patch_7">
     <path d="M 56.0125 31.35 
L 682.4125 31.35 
L 682.4125 7.2 
L 56.0125 7.2 
z
" style="fill: #ffffff; stroke: #808080; stroke-width: 0.8; stroke-linejoin: miter"/>
    </g>
    <g id="line2d_35">
     <path d="M 62.3125 18.4 
L 76.3125 18.4 
L 90.3125 18.4 
" style="fill: none; stroke: #1f77b4; stroke-width: 1.2; stroke-linecap: square"/>
    </g>
    <g id="text_18">
     <!-- GCN-DDQN -->
     <g transform="translate(98.7125 23.3) scale(0.14 -0.14)">
      <defs>
       <path id="SimHei-47" d="M 2850 75 
L 2425 75 
L 2350 425 
Q 2250 275 2037 175 
Q 1825 75 1575 75 
Q 1050 75 637 562 
Q 225 1050 225 2125 
Q 225 3300 600 3875 
Q 975 4450 1625 4450 
Q 2200 4450 2525 4025 
Q 2850 3600 2850 2925 
L 2300 2925 
Q 2300 3450 2125 3712 
Q 1950 3975 1625 3975 
Q 1225 3975 1025 3562 
Q 825 3150 825 2175 
Q 825 1250 1075 900 
Q 1325 550 1650 550 
Q 1975 550 2162 787 
Q 2350 1025 2350 1525 
L 2350 1800 
L 1575 1800 
L 1575 2275 
L 2850 2275 
L 2850 75 
z
" transform="scale(0.015625)"/>
       <path id="SimHei-43" d="M 2975 1825 
Q 2950 875 2575 475 
Q 2200 75 1675 75 
Q 1075 75 650 562 
Q 225 1050 225 2125 
Q 225 3300 637 3875 
Q 1050 4450 1700 4450 
Q 2250 4450 2612 4037 
Q 2975 3625 2950 2875 
L 2400 2875 
Q 2400 3425 2225 3700 
Q 2050 3975 1700 3975 
Q 1300 3975 1062 3562 
Q 825 3150 825 2175 
Q 825 1275 1062 912 
Q 1300 550 1675 550 
Q 1950 550 2175 812 
Q 2400 1075 2400 1825 
L 2975 1825 
z
" transform="scale(0.015625)"/>
       <path id="SimHei-4e" d="M 2850 125 
L 2225 125 
L 850 3225 
L 825 3225 
L 825 125 
L 250 125 
L 250 4400 
L 875 4400 
L 2250 1300 
L 2275 1300 
L 2275 4400 
L 2850 4400 
L 2850 125 
z
" transform="scale(0.015625)"/>
       <path id="SimHei-2d" d="M 2975 2125 
L 125 2125 
L 125 2525 
L 2975 2525 
L 2975 2125 
z
" transform="scale(0.015625)"/>
       <path id="SimHei-44" d="M 2925 2250 
Q 2925 1100 2437 612 
Q 1950 125 1125 125 
L 275 125 
L 275 4400 
L 1125 4400 
Q 2050 4400 2487 3900 
Q 2925 3400 2925 2250 
z
M 2325 2250 
Q 2325 3175 2025 3550 
Q 1725 3925 1125 3925 
L 850 3925 
L 850 600 
L 1125 600 
Q 1725 600 2025 962 
Q 2325 1325 2325 2250 
z
" transform="scale(0.015625)"/>
       <path id="SimHei-51" d="M 2950 2275 
Q 2950 1675 2862 1262 
Q 2775 850 2575 600 
L 2775 225 
L 2375 -200 
L 2150 225 
Q 2050 150 1900 112 
Q 1750 75 1575 75 
Q 925 75 550 587 
Q 175 1100 175 2275 
Q 175 3450 550 3950 
Q 925 4450 1575 4450 
Q 2225 4450 2587 3950 
Q 2950 3450 2950 2275 
z
M 2350 2275 
Q 2350 3325 2125 3650 
Q 1900 3975 1575 3975 
Q 1250 3975 1012 3650 
Q 775 3325 775 2275 
Q 775 1225 1012 887 
Q 1250 550 1575 550 
Q 1700 550 1800 587 
Q 1900 625 1950 675 
L 1550 1450 
L 1900 1875 
L 2250 1200 
Q 2300 1450 2325 1650 
Q 2350 1850 2350 2275 
z
" transform="scale(0.015625)"/>
      </defs>
      <use xlink:href="#SimHei-47"/>
      <use xlink:href="#SimHei-43" transform="translate(50 0)"/>
      <use xlink:href="#SimHei-4e" transform="translate(100 0)"/>
      <use xlink:href="#SimHei-2d" transform="translate(150 0)"/>
      <use xlink:href="#SimHei-44" transform="translate(200 0)"/>
      <use xlink:href="#SimHei-44" transform="translate(250 0)"/>
      <use xlink:href="#SimHei-51" transform="translate(300 0)"/>
      <use xlink:href="#SimHei-4e" transform="translate(350 0)"/>
     </g>
    </g>
    <g id="line2d_36">
     <path d="M 229.1125 18.4 
L 243.1125 18.4 
L 257.1125 18.4 
" style="fill: none; stroke: #ff7f0e; stroke-width: 1.2; stroke-linecap: square"/>
    </g>
    <g id="text_19">
     <!-- GCN-D3QN -->
     <g transform="translate(265.5125 23.3) scale(0.14 -0.14)">
      <use xlink:href="#SimHei-47"/>
      <use xlink:href="#SimHei-43" transform="translate(50 0)"/>
      <use xlink:href="#SimHei-4e" transform="translate(100 0)"/>
      <use xlink:href="#SimHei-2d" transform="translate(150 0)"/>
      <use xlink:href="#SimHei-44" transform="translate(200 0)"/>
      <use xlink:href="#SimHei-33" transform="translate(250 0)"/>
      <use xlink:href="#SimHei-51" transform="translate(300 0)"/>
      <use xlink:href="#SimHei-4e" transform="translate(350 0)"/>
     </g>
    </g>
    <g id="line2d_37">
     <path d="M 395.9125 18.4 
L 409.9125 18.4 
L 423.9125 18.4 
" style="fill: none; stroke: #2ca02c; stroke-width: 1.2; stroke-linecap: square"/>
    </g>
    <g id="text_20">
     <!-- GAT-LSTM-DDQN -->
     <g transform="translate(432.3125 23.3) scale(0.14 -0.14)">
      <defs>
       <path id="SimHei-41" d="M 3075 125 
L 2475 125 
L 2125 1450 
L 1025 1450 
L 675 125 
L 75 125 
L 1325 4450 
L 1825 4450 
L 3075 125 
z
M 2000 1925 
L 1600 3450 
L 1550 3450 
L 1150 1925 
L 2000 1925 
z
" transform="scale(0.015625)"/>
       <path id="SimHei-4c" d="M 2900 125 
L 300 125 
L 300 4400 
L 875 4400 
L 875 600 
L 2900 600 
L 2900 125 
z
" transform="scale(0.015625)"/>
       <path id="SimHei-53" d="M 2900 1325 
Q 2900 750 2537 412 
Q 2175 75 1550 75 
Q 925 75 575 425 
Q 225 775 225 1300 
L 225 1475 
L 800 1475 
L 800 1325 
Q 800 950 1025 750 
Q 1250 550 1550 550 
Q 1950 550 2137 762 
Q 2325 975 2325 1275 
Q 2325 1525 2100 1737 
Q 1875 1950 1450 2125 
Q 850 2350 587 2625 
Q 325 2900 325 3275 
Q 325 3800 687 4125 
Q 1050 4450 1550 4450 
Q 2200 4450 2487 4062 
Q 2775 3675 2775 3225 
L 2200 3225 
Q 2225 3500 2050 3725 
Q 1875 3950 1550 3950 
Q 1250 3950 1075 3787 
Q 900 3625 900 3350 
Q 900 3125 1037 2962 
Q 1175 2800 1750 2575 
Q 2300 2350 2600 2037 
Q 2900 1725 2900 1325 
z
" transform="scale(0.015625)"/>
       <path id="SimHei-4d" d="M 2925 125 
L 2425 125 
L 2425 3175 
L 2375 3175 
L 1775 125 
L 1375 125 
L 775 3175 
L 725 3175 
L 725 125 
L 225 125 
L 225 4400 
L 1000 4400 
L 1550 1575 
L 1600 1575 
L 2150 4400 
L 2925 4400 
L 2925 125 
z
" transform="scale(0.015625)"/>
      </defs>
      <use xlink:href="#SimHei-47"/>
      <use xlink:href="#SimHei-41" transform="translate(50 0)"/>
      <use xlink:href="#SimHei-54" transform="translate(100 0)"/>
      <use xlink:href="#SimHei-2d" transform="translate(150 0)"/>
      <use xlink:href="#SimHei-4c" transform="translate(200 0)"/>
      <use xlink:href="#SimHei-53" transform="translate(250 0)"/>
      <use xlink:href="#SimHei-54" transform="translate(300 0)"/>
      <use xlink:href="#SimHei-4d" transform="translate(350 0)"/>
      <use xlink:href="#SimHei-2d" transform="translate(400 0)"/>
      <use xlink:href="#SimHei-44" transform="translate(450 0)"/>
      <use xlink:href="#SimHei-44" transform="translate(500 0)"/>
      <use xlink:href="#SimHei-51" transform="translate(550 0)"/>
      <use xlink:href="#SimHei-4e" transform="translate(600 0)"/>
     </g>
    </g>
    <g id="line2d_38">
     <path d="M 597.7125 18.4 
L 611.7125 18.4 
L 625.7125 18.4 
" style="fill: none; stroke: #9b8ac9; stroke-width: 1.2; stroke-linecap: square"/>
    </g>
    <g id="text_21">
     <!-- GLDVTO -->
     <g transform="translate(634.1125 23.3) scale(0.14 -0.14)">
      <defs>
       <path id="SimHei-56" d="M 3050 4400 
L 1800 75 
L 1300 75 
L 50 4400 
L 650 4400 
L 1525 1125 
L 1575 1125 
L 2450 4400 
L 3050 4400 
z
" transform="scale(0.015625)"/>
       <path id="SimHei-4f" d="M 2950 2275 
Q 2950 1100 2587 587 
Q 2225 75 1575 75 
Q 925 75 550 587 
Q 175 1100 175 2275 
Q 175 3450 550 3950 
Q 925 4450 1575 4450 
Q 2225 4450 2587 3950 
Q 2950 3450 2950 2275 
z
M 2350 2275 
Q 2350 3325 2125 3650 
Q 1900 3975 1575 3975 
Q 1250 3975 1012 3650 
Q 775 3325 775 2275 
Q 775 1225 1012 887 
Q 1250 550 1575 550 
Q 1900 550 2125 887 
Q 2350 1225 2350 2275 
z
" transform="scale(0.015625)"/>
      </defs>
      <use xlink:href="#SimHei-47"/>
      <use xlink:href="#SimHei-4c" transform="translate(50 0)"/>
      <use xlink:href="#SimHei-44" transform="translate(100 0)"/>
      <use xlink:href="#SimHei-56" transform="translate(150 0)"/>
      <use xlink:href="#SimHei-54" transform="translate(200 0)"/>
      <use xlink:href="#SimHei-4f" transform="translate(250 0)"/>
     </g>
    </g>
   </g>
  </g>
 </g>
 <defs>
  <clipPath id="p943892d733">
   <rect x="56.0125" y="34.5036" width="626.4" height="315.36"/>
  </clipPath>
 </defs>
</svg>
