<?xml version="1.0" encoding="utf-8" standalone="no"?>
<!DOCTYPE svg PUBLIC "-//W3C//DTD SVG 1.1//EN"
  "http://www.w3.org/Graphics/SVG/1.1/DTD/svg11.dtd">
<svg xmlns:xlink="http://www.w3.org/1999/xlink" width="689.6125pt" height="391.6261pt" viewBox="0 0 689.6125 391.6261" xmlns="http://www.w3.org/2000/svg" version="1.1">
 <metadata>
  <rdf:RDF xmlns:dc="http://purl.org/dc/elements/1.1/" xmlns:cc="http://creativecommons.org/ns#" xmlns:rdf="http://www.w3.org/1999/02/22-rdf-syntax-ns#">
   <cc:Work>
    <dc:type rdf:resource="http://purl.org/dc/dcmitype/StillImage"/>
    <dc:date>2026-07-09T23:30:35.970212</dc:date>
    <dc:format>image/svg+xml</dc:format>
    <dc:creator>
     <cc:Agent>
      <dc:title>Matplotlib v3.10.7, https://matplotlib.org/</dc:title>
     </cc:Agent>
    </dc:creator>
   </cc:Work>
  </rdf:RDF>
 </metadata>
 <defs>
  <style type="text/css">*{stroke-linejoin: round; stroke-linecap: butt}</style>
 </defs>
 <g id="figure_1">
  <g id="patch_1">
   <path d="M 0 391.6261 
L 689.6125 391.6261 
L 689.6125 0 
L 0 0 
z
" style="fill: #ffffff"/>
  </g>
  <g id="axes_1">
   <g id="patch_2">
    <path d="M 56.0125 349.8636 
L 682.4125 349.8636 
L 682.4125 34.5036 
L 56.0125 34.5036 
z
" style="fill: #ffffff"/>
   </g>
   <g id="matplotlib.axis_1">
    <g id="xtick_1">
     <g id="line2d_1">
      <path d="M 84.485227 349.8636 
L 84.485227 34.5036 
" clip-path="url(#p891be4643e)" style="fill: none; stroke-dasharray: 2.22,0.96; stroke-dashoffset: 0; stroke: #b0b0b0; stroke-opacity: 0.25; stroke-width: 0.6"/>
     </g>
     <g id="line2d_2">
      <defs>
       <path id="mba24b08755" d="M 0 0 
L 0 3.5 
" style="stroke: #000000; stroke-width: 0.8"/>
      </defs>
      <g>
       <use xlink:href="#mba24b08755" x="84.485227" y="349.8636" style="stroke: #000000; stroke-width: 0.8"/>
      </g>
     </g>
     <g id="text_1">
      <!-- 0 -->
      <g transform="translate(81.485227 365.1136) scale(0.12 -0.12)">
       <defs>
        <path id="SimHei-30" d="M 225 2537 
Q 250 3200 412 3587 
Q 575 3975 875 4225 
Q 1175 4475 1612 4475 
Q 2050 4475 2375 4112 
Q 2700 3750 2800 3200 
Q 2900 2650 2862 1937 
Q 2825 1225 2612 775 
Q 2400 325 1975 150 
Q 1550 -25 1125 187 
Q 700 400 525 750 
Q 350 1100 275 1487 
Q 200 1875 225 2537 
z
M 750 2687 
Q 675 2000 800 1462 
Q 925 925 1212 700 
Q 1500 475 1800 612 
Q 2100 750 2237 1162 
Q 2375 1575 2375 2062 
Q 2375 2550 2337 2950 
Q 2300 3350 2112 3675 
Q 1925 4000 1612 4012 
Q 1300 4025 1062 3700 
Q 825 3375 750 2687 
z
" transform="scale(0.015625)"/>
       </defs>
       <use xlink:href="#SimHei-30"/>
      </g>
     </g>
    </g>
    <g id="xtick_2">
     <g id="line2d_3">
      <path d="M 155.845446 349.8636 
L 155.845446 34.5036 
" clip-path="url(#p891be4643e)" style="fill: none; stroke-dasharray: 2.22,0.96; stroke-dashoffset: 0; stroke: #b0b0b0; stroke-opacity: 0.25; stroke-width: 0.6"/>
     </g>
     <g id="line2d_4">
      <g>
       <use xlink:href="#mba24b08755" x="155.845446" y="349.8636" style="stroke: #000000; stroke-width: 0.8"/>
      </g>
     </g>
     <g id="text_2">
      <!-- 50 -->
      <g transform="translate(149.845446 365.1136) scale(0.12 -0.12)">
       <defs>
        <path id="SimHei-35" d="M 550 1325 
Q 725 650 1150 575 
Q 1575 500 1837 662 
Q 2100 825 2212 1087 
Q 2325 1350 2312 1675 
Q 2300 2000 2137 2225 
Q 1975 2450 1725 2525 
Q 1475 2600 1162 2525 
Q 850 2450 650 2175 
L 225 2225 
Q 275 2375 700 4375 
L 2675 4375 
L 2675 3925 
L 1075 3925 
Q 950 3250 825 2850 
Q 1200 3025 1525 3012 
Q 1850 3000 2150 2862 
Q 2450 2725 2587 2487 
Q 2725 2250 2787 2012 
Q 2850 1775 2837 1500 
Q 2825 1225 2725 937 
Q 2625 650 2425 462 
Q 2225 275 1937 162 
Q 1650 50 1275 75 
Q 900 100 562 350 
Q 225 600 100 1200 
L 550 1325 
z
" transform="scale(0.015625)"/>
       </defs>
       <use xlink:href="#SimHei-35"/>
       <use xlink:href="#SimHei-30" transform="translate(50 0)"/>
      </g>
     </g>
    </g>
    <g id="xtick_3">
     <g id="line2d_5">
      <path d="M 227.205665 349.8636 
L 227.205665 34.5036 
" clip-path="url(#p891be4643e)" style="fill: none; stroke-dasharray: 2.22,0.96; stroke-dashoffset: 0; stroke: #b0b0b0; stroke-opacity: 0.25; stroke-width: 0.6"/>
     </g>
     <g id="line2d_6">
      <g>
       <use xlink:href="#mba24b08755" x="227.205665" y="349.8636" style="stroke: #000000; stroke-width: 0.8"/>
      </g>
     </g>
     <g id="text_3">
      <!-- 100 -->
      <g transform="translate(218.205665 365.1136) scale(0.12 -0.12)">
       <defs>
        <path id="SimHei-31" d="M 1400 3600 
Q 1075 3275 575 2975 
L 575 3450 
Q 1200 3875 1600 4450 
L 1900 4450 
L 1900 150 
L 1400 150 
L 1400 3600 
z
" transform="scale(0.015625)"/>
       </defs>
       <use xlink:href="#SimHei-31"/>
       <use xlink:href="#SimHei-30" transform="translate(50 0)"/>
       <use xlink:href="#SimHei-30" transform="translate(100 0)"/>
      </g>
     </g>
    </g>
    <g id="xtick_4">
     <g id="line2d_7">
      <path d="M 298.565883 349.8636 
L 298.565883 34.5036 
" clip-path="url(#p891be4643e)" style="fill: none; stroke-dasharray: 2.22,0.96; stroke-dashoffset: 0; stroke: #b0b0b0; stroke-opacity: 0.25; stroke-width: 0.6"/>
     </g>
     <g id="line2d_8">
      <g>
       <use xlink:href="#mba24b08755" x="298.565883" y="349.8636" style="stroke: #000000; stroke-width: 0.8"/>
      </g>
     </g>
     <g id="text_4">
      <!-- 150 -->
      <g transform="translate(289.565883 365.1136) scale(0.12 -0.12)">
       <use xlink:href="#SimHei-31"/>
       <use xlink:href="#SimHei-35" transform="translate(50 0)"/>
       <use xlink:href="#SimHei-30" transform="translate(100 0)"/>
      </g>
     </g>
    </g>
    <g id="xtick_5">
     <g id="line2d_9">
      <path d="M 369.926102 349.8636 
L 369.926102 34.5036 
" clip-path="url(#p891be4643e)" style="fill: none; stroke-dasharray: 2.22,0.96; stroke-dashoffset: 0; stroke: #b0b0b0; stroke-opacity: 0.25; stroke-width: 0.6"/>
     </g>
     <g id="line2d_10">
      <g>
       <use xlink:href="#mba24b08755" x="369.926102" y="349.8636" style="stroke: #000000; stroke-width: 0.8"/>
      </g>
     </g>
     <g id="text_5">
      <!-- 200 -->
      <g transform="translate(360.926102 365.1136) scale(0.12 -0.12)">
       <defs>
        <path id="SimHei-32" d="M 300 250 
Q 325 625 650 925 
Q 975 1225 1475 1862 
Q 1975 2500 2125 2850 
Q 2275 3200 2237 3450 
Q 2200 3700 2000 3862 
Q 1800 4025 1537 4000 
Q 1275 3975 1037 3800 
Q 800 3625 675 3275 
L 200 3350 
Q 400 3925 712 4187 
Q 1025 4450 1450 4475 
Q 1700 4500 1900 4462 
Q 2100 4425 2312 4287 
Q 2525 4150 2662 3875 
Q 2800 3600 2762 3212 
Q 2725 2825 2375 2287 
Q 2025 1750 1025 600 
L 2825 600 
L 2825 150 
L 300 150 
L 300 250 
z
" transform="scale(0.015625)"/>
       </defs>
       <use xlink:href="#SimHei-32"/>
       <use xlink:href="#SimHei-30" transform="translate(50 0)"/>
       <use xlink:href="#SimHei-30" transform="translate(100 0)"/>
      </g>
     </g>
    </g>
    <g id="xtick_6">
     <g id="line2d_11">
      <path d="M 441.286321 349.8636 
L 441.286321 34.5036 
" clip-path="url(#p891be4643e)" style="fill: none; stroke-dasharray: 2.22,0.96; stroke-dashoffset: 0; stroke: #b0b0b0; stroke-opacity: 0.25; stroke-width: 0.6"/>
     </g>
     <g id="line2d_12">
      <g>
       <use xlink:href="#mba24b08755" x="441.286321" y="349.8636" style="stroke: #000000; stroke-width: 0.8"/>
      </g>
     </g>
     <g id="text_6">
      <!-- 250 -->
      <g transform="translate(432.286321 365.1136) scale(0.12 -0.12)">
       <use xlink:href="#SimHei-32"/>
       <use xlink:href="#SimHei-35" transform="translate(50 0)"/>
       <use xlink:href="#SimHei-30" transform="translate(100 0)"/>
      </g>
     </g>
    </g>
    <g id="xtick_7">
     <g id="line2d_13">
      <path d="M 512.64654 349.8636 
L 512.64654 34.5036 
" clip-path="url(#p891be4643e)" style="fill: none; stroke-dasharray: 2.22,0.96; stroke-dashoffset: 0; stroke: #b0b0b0; stroke-opacity: 0.25; stroke-width: 0.6"/>
     </g>
     <g id="line2d_14">
      <g>
       <use xlink:href="#mba24b08755" x="512.64654" y="349.8636" style="stroke: #000000; stroke-width: 0.8"/>
      </g>
     </g>
     <g id="text_7">
      <!-- 300 -->
      <g transform="translate(503.64654 365.1136) scale(0.12 -0.12)">
       <defs>
        <path id="SimHei-33" d="M 250 1225 
L 700 1300 
Q 800 975 1025 762 
Q 1250 550 1587 562 
Q 1925 575 2125 837 
Q 2325 1100 2300 1437 
Q 2275 1775 2037 1962 
Q 1800 2150 1275 2225 
L 1275 2550 
Q 1800 2600 2037 2825 
Q 2275 3050 2250 3412 
Q 2225 3775 1925 3937 
Q 1625 4100 1287 3975 
Q 950 3850 750 3275 
L 300 3350 
Q 450 3800 712 4100 
Q 975 4400 1425 4450 
Q 1875 4500 2212 4337 
Q 2550 4175 2687 3837 
Q 2825 3500 2725 3100 
Q 2625 2700 2150 2400 
Q 2500 2250 2687 1950 
Q 2875 1650 2812 1162 
Q 2750 675 2375 375 
Q 2000 75 1525 87 
Q 1050 100 700 387 
Q 350 675 250 1225 
z
" transform="scale(0.015625)"/>
       </defs>
       <use xlink:href="#SimHei-33"/>
       <use xlink:href="#SimHei-30" transform="translate(50 0)"/>
       <use xlink:href="#SimHei-30" transform="translate(100 0)"/>
      </g>
     </g>
    </g>
    <g id="xtick_8">
     <g id="line2d_15">
      <path d="M 584.006758 349.8636 
L 584.006758 34.5036 
" clip-path="url(#p891be4643e)" style="fill: none; stroke-dasharray: 2.22,0.96; stroke-dashoffset: 0; stroke: #b0b0b0; stroke-opacity: 0.25; stroke-width: 0.6"/>
     </g>
     <g id="line2d_16">
      <g>
       <use xlink:href="#mba24b08755" x="584.006758" y="349.8636" style="stroke: #000000; stroke-width: 0.8"/>
      </g>
     </g>
     <g id="text_8">
      <!-- 350 -->
      <g transform="translate(575.006758 365.1136) scale(0.12 -0.12)">
       <use xlink:href="#SimHei-33"/>
       <use xlink:href="#SimHei-35" transform="translate(50 0)"/>
       <use xlink:href="#SimHei-30" transform="translate(100 0)"/>
      </g>
     </g>
    </g>
    <g id="xtick_9">
     <g id="line2d_17">
      <path d="M 655.366977 349.8636 
L 655.366977 34.5036 
" clip-path="url(#p891be4643e)" style="fill: none; stroke-dasharray: 2.22,0.96; stroke-dashoffset: 0; stroke: #b0b0b0; stroke-opacity: 0.25; stroke-width: 0.6"/>
     </g>
     <g id="line2d_18">
      <g>
       <use xlink:href="#mba24b08755" x="655.366977" y="349.8636" style="stroke: #000000; stroke-width: 0.8"/>
      </g>
     </g>
     <g id="text_9">
      <!-- 400 -->
      <g transform="translate(646.366977 365.1136) scale(0.12 -0.12)">
       <defs>
        <path id="SimHei-34" d="M 2000 1100 
L 75 1100 
L 75 1525 
L 2100 4450 
L 2475 4450 
L 2475 1525 
L 3075 1525 
L 3075 1100 
L 2475 1100 
L 2475 150 
L 2000 150 
L 2000 1100 
z
M 2000 1525 
L 2000 3500 
L 600 1525 
L 2000 1525 
z
" transform="scale(0.015625)"/>
       </defs>
       <use xlink:href="#SimHei-34"/>
       <use xlink:href="#SimHei-30" transform="translate(50 0)"/>
       <use xlink:href="#SimHei-30" transform="translate(100 0)"/>
      </g>
     </g>
    </g>
    <g id="text_10">
     <!-- Episode -->
     <g transform="translate(339.4625 382.3011) scale(0.17 -0.17)">
      <defs>
       <path id="SimHei-45" d="M 2900 125 
L 350 125 
L 350 4400 
L 2775 4400 
L 2775 3925 
L 925 3925 
L 925 2600 
L 2625 2600 
L 2625 2125 
L 925 2125 
L 925 600 
L 2900 600 
L 2900 125 
z
" transform="scale(0.015625)"/>
       <path id="SimHei-70" d="M 2825 1525 
Q 2825 800 2475 425 
Q 2125 50 1625 50 
Q 1350 50 1150 162 
Q 950 275 800 500 
L 800 -800 
L 300 -800 
L 300 2925 
L 800 2925 
L 800 2550 
Q 950 2775 1150 2875 
Q 1350 2975 1625 2975 
Q 2125 2975 2475 2612 
Q 2825 2250 2825 1525 
z
M 2275 1525 
Q 2275 2000 2087 2262 
Q 1900 2525 1525 2525 
Q 1225 2525 1012 2262 
Q 800 2000 800 1525 
Q 800 1050 1012 775 
Q 1225 500 1525 500 
Q 1900 500 2087 775 
Q 2275 1050 2275 1525 
z
" transform="scale(0.015625)"/>
       <path id="SimHei-69" d="M 1800 3725 
L 1300 3725 
L 1300 4375 
L 1800 4375 
L 1800 3725 
z
M 1800 125 
L 1300 125 
L 1300 2925 
L 1800 2925 
L 1800 125 
z
" transform="scale(0.015625)"/>
       <path id="SimHei-73" d="M 2750 900 
Q 2750 500 2437 287 
Q 2125 75 1650 75 
Q 1050 75 725 312 
Q 400 550 400 1000 
L 900 1000 
Q 900 700 1112 600 
Q 1325 500 1625 500 
Q 1925 500 2075 612 
Q 2225 725 2225 900 
Q 2225 1025 2100 1150 
Q 1975 1275 1475 1350 
Q 900 1425 687 1637 
Q 475 1850 475 2200 
Q 475 2500 762 2737 
Q 1050 2975 1600 2975 
Q 2100 2975 2387 2750 
Q 2675 2525 2675 2150 
L 2175 2150 
Q 2175 2375 2012 2462 
Q 1850 2550 1600 2550 
Q 1275 2550 1137 2437 
Q 1000 2325 1000 2175 
Q 1000 2000 1125 1900 
Q 1250 1800 1650 1750 
Q 2300 1650 2525 1437 
Q 2750 1225 2750 900 
z
" transform="scale(0.015625)"/>
       <path id="SimHei-6f" d="M 2925 1525 
Q 2925 875 2525 475 
Q 2125 75 1575 75 
Q 1025 75 625 475 
Q 225 875 225 1525 
Q 225 2175 625 2575 
Q 1025 2975 1575 2975 
Q 2125 2975 2525 2575 
Q 2925 2175 2925 1525 
z
M 2375 1525 
Q 2375 2025 2125 2275 
Q 1875 2525 1575 2525 
Q 1275 2525 1025 2275 
Q 775 2025 775 1525 
Q 775 1025 1025 775 
Q 1275 525 1575 525 
Q 1875 525 2125 775 
Q 2375 1025 2375 1525 
z
" transform="scale(0.015625)"/>
       <path id="SimHei-64" d="M 2750 125 
L 2250 125 
L 2250 500 
Q 2100 275 1900 175 
Q 1700 75 1425 75 
Q 925 75 575 437 
Q 225 800 225 1525 
Q 225 2250 575 2625 
Q 925 3000 1425 3000 
Q 1700 3000 1900 2887 
Q 2100 2775 2250 2550 
L 2250 4400 
L 2750 4400 
L 2750 125 
z
M 2250 1525 
Q 2250 2000 2037 2275 
Q 1825 2550 1525 2550 
Q 1150 2550 962 2275 
Q 775 2000 775 1525 
Q 775 1050 962 787 
Q 1150 525 1525 525 
Q 1825 525 2037 787 
Q 2250 1050 2250 1525 
z
" transform="scale(0.015625)"/>
       <path id="SimHei-65" d="M 2850 1075 
Q 2800 625 2450 350 
Q 2100 75 1625 75 
Q 1025 75 637 462 
Q 250 850 250 1525 
Q 250 2200 637 2587 
Q 1025 2975 1625 2975 
Q 2150 2975 2487 2637 
Q 2825 2300 2825 1525 
L 800 1525 
Q 800 975 1037 750 
Q 1275 525 1625 525 
Q 1900 525 2075 662 
Q 2250 800 2300 1075 
L 2850 1075 
z
M 2250 1925 
Q 2200 2275 2025 2412 
Q 1850 2550 1575 2550 
Q 1325 2550 1125 2412 
Q 925 2275 825 1925 
L 2250 1925 
z
" transform="scale(0.015625)"/>
      </defs>
      <use xlink:href="#SimHei-45"/>
      <use xlink:href="#SimHei-70" transform="translate(50 0)"/>
      <use xlink:href="#SimHei-69" transform="translate(100 0)"/>
      <use xlink:href="#SimHei-73" transform="translate(150 0)"/>
      <use xlink:href="#SimHei-6f" transform="translate(200 0)"/>
      <use xlink:href="#SimHei-64" transform="translate(250 0)"/>
      <use xlink:href="#SimHei-65" transform="translate(300 0)"/>
     </g>
    </g>
   </g>
   <g id="matplotlib.axis_2">
    <g id="ytick_1">
     <g id="line2d_19">
      <path d="M 56.0125 331.932157 
L 682.4125 331.932157 
" clip-path="url(#p891be4643e)" style="fill: none; stroke-dasharray: 2.22,0.96; stroke-dashoffset: 0; stroke: #b0b0b0; stroke-opacity: 0.25; stroke-width: 0.6"/>
     </g>
     <g id="line2d_20">
      <defs>
       <path id="m13f8a4ea4e" d="M 0 0 
L -3.5 0 
" style="stroke: #000000; stroke-width: 0.8"/>
      </defs>
      <g>
       <use xlink:href="#m13f8a4ea4e" x="56.0125" y="331.932157" style="stroke: #000000; stroke-width: 0.8"/>
      </g>
     </g>
     <g id="text_11">
      <!-- 0.05 -->
      <g transform="translate(25.0125 336.057157) scale(0.12 -0.12)">
       <defs>
        <path id="SimHei-2e" d="M 1075 125 
L 500 125 
L 500 675 
L 1075 675 
L 1075 125 
z
" transform="scale(0.015625)"/>
       </defs>
       <use xlink:href="#SimHei-30"/>
       <use xlink:href="#SimHei-2e" transform="translate(50 0)"/>
       <use xlink:href="#SimHei-30" transform="translate(100 0)"/>
       <use xlink:href="#SimHei-35" transform="translate(150 0)"/>
      </g>
     </g>
    </g>
    <g id="ytick_2">
     <g id="line2d_21">
      <path d="M 56.0125 269.73431 
L 682.4125 269.73431 
" clip-path="url(#p891be4643e)" style="fill: none; stroke-dasharray: 2.22,0.96; stroke-dashoffset: 0; stroke: #b0b0b0; stroke-opacity: 0.25; stroke-width: 0.6"/>
     </g>
     <g id="line2d_22">
      <g>
       <use xlink:href="#m13f8a4ea4e" x="56.0125" y="269.73431" style="stroke: #000000; stroke-width: 0.8"/>
      </g>
     </g>
     <g id="text_12">
      <!-- 0.10 -->
      <g transform="translate(25.0125 273.85931) scale(0.12 -0.12)">
       <use xlink:href="#SimHei-30"/>
       <use xlink:href="#SimHei-2e" transform="translate(50 0)"/>
       <use xlink:href="#SimHei-31" transform="translate(100 0)"/>
       <use xlink:href="#SimHei-30" transform="translate(150 0)"/>
      </g>
     </g>
    </g>
    <g id="ytick_3">
     <g id="line2d_23">
      <path d="M 56.0125 207.536464 
L 682.4125 207.536464 
" clip-path="url(#p891be4643e)" style="fill: none; stroke-dasharray: 2.22,0.96; stroke-dashoffset: 0; stroke: #b0b0b0; stroke-opacity: 0.25; stroke-width: 0.6"/>
     </g>
     <g id="line2d_24">
      <g>
       <use xlink:href="#m13f8a4ea4e" x="56.0125" y="207.536464" style="stroke: #000000; stroke-width: 0.8"/>
      </g>
     </g>
     <g id="text_13">
      <!-- 0.15 -->
      <g transform="translate(25.0125 211.661464) scale(0.12 -0.12)">
       <use xlink:href="#SimHei-30"/>
       <use xlink:href="#SimHei-2e" transform="translate(50 0)"/>
       <use xlink:href="#SimHei-31" transform="translate(100 0)"/>
       <use xlink:href="#SimHei-35" transform="translate(150 0)"/>
      </g>
     </g>
    </g>
    <g id="ytick_4">
     <g id="line2d_25">
      <path d="M 56.0125 145.338618 
L 682.4125 145.338618 
" clip-path="url(#p891be4643e)" style="fill: none; stroke-dasharray: 2.22,0.96; stroke-dashoffset: 0; stroke: #b0b0b0; stroke-opacity: 0.25; stroke-width: 0.6"/>
     </g>
     <g id="line2d_26">
      <g>
       <use xlink:href="#m13f8a4ea4e" x="56.0125" y="145.338618" style="stroke: #000000; stroke-width: 0.8"/>
      </g>
     </g>
     <g id="text_14">
      <!-- 0.20 -->
      <g transform="translate(25.0125 149.463618) scale(0.12 -0.12)">
       <use xlink:href="#SimHei-30"/>
       <use xlink:href="#SimHei-2e" transform="translate(50 0)"/>
       <use xlink:href="#SimHei-32" transform="translate(100 0)"/>
       <use xlink:href="#SimHei-30" transform="translate(150 0)"/>
      </g>
     </g>
    </g>
    <g id="ytick_5">
     <g id="line2d_27">
      <path d="M 56.0125 83.140772 
L 682.4125 83.140772 
" clip-path="url(#p891be4643e)" style="fill: none; stroke-dasharray: 2.22,0.96; stroke-dashoffset: 0; stroke: #b0b0b0; stroke-opacity: 0.25; stroke-width: 0.6"/>
     </g>
     <g id="line2d_28">
      <g>
       <use xlink:href="#m13f8a4ea4e" x="56.0125" y="83.140772" style="stroke: #000000; stroke-width: 0.8"/>
      </g>
     </g>
     <g id="text_15">
      <!-- 0.25 -->
      <g transform="translate(25.0125 87.265772) scale(0.12 -0.12)">
       <use xlink:href="#SimHei-30"/>
       <use xlink:href="#SimHei-2e" transform="translate(50 0)"/>
       <use xlink:href="#SimHei-32" transform="translate(100 0)"/>
       <use xlink:href="#SimHei-35" transform="translate(150 0)"/>
      </g>
     </g>
    </g>
    <g id="text_16">
     <!-- Total Task Latency -->
     <g transform="translate(18.8875 268.6836) rotate(-90) scale(0.17 -0.17)">
      <defs>
       <path id="SimHei-54" d="M 2850 3925 
L 1850 3925 
L 1850 125 
L 1275 125 
L 1275 3925 
L 275 3925 
L 275 4400 
L 2850 4400 
L 2850 3925 
z
" transform="scale(0.015625)"/>
       <path id="SimHei-74" d="M 2750 200 
Q 2625 150 2462 112 
Q 2300 75 2025 75 
Q 1575 75 1300 325 
Q 1025 575 1025 1025 
L 1025 2525 
L 175 2525 
L 175 2925 
L 1025 2925 
L 1025 3900 
L 1525 3900 
L 1525 2925 
L 2550 2925 
L 2550 2525 
L 1525 2525 
L 1525 1000 
Q 1525 800 1625 662 
Q 1725 525 2000 525 
Q 2275 525 2450 575 
Q 2625 625 2750 700 
L 2750 200 
z
" transform="scale(0.015625)"/>
       <path id="SimHei-61" d="M 2875 125 
L 2275 125 
Q 2225 175 2200 262 
Q 2175 350 2175 475 
Q 2000 275 1750 175 
Q 1500 75 1225 75 
Q 825 75 550 275 
Q 275 475 275 850 
Q 275 1225 525 1450 
Q 775 1675 1300 1750 
Q 1650 1800 1912 1875 
Q 2175 1950 2175 2075 
Q 2175 2225 2062 2375 
Q 1950 2525 1575 2525 
Q 1275 2525 1137 2412 
Q 1000 2300 950 2100 
L 400 2100 
Q 450 2500 762 2737 
Q 1075 2975 1575 2975 
Q 2125 2975 2400 2725 
Q 2675 2475 2675 2025 
L 2675 650 
Q 2675 500 2725 375 
Q 2775 250 2875 125 
z
M 2175 1050 
L 2175 1550 
Q 2025 1500 1887 1462 
Q 1750 1425 1425 1375 
Q 1050 1325 937 1200 
Q 825 1075 825 900 
Q 825 750 937 637 
Q 1050 525 1275 525 
Q 1500 525 1762 650 
Q 2025 775 2175 1050 
z
" transform="scale(0.015625)"/>
       <path id="SimHei-6c" d="M 1825 125 
L 1325 125 
L 1325 4400 
L 1825 4400 
L 1825 125 
z
" transform="scale(0.015625)"/>
       <path id="SimHei-20" transform="scale(0.015625)"/>
       <path id="SimHei-6b" d="M 2925 125 
L 2350 125 
L 1450 1650 
L 875 1100 
L 875 125 
L 375 125 
L 375 4400 
L 875 4400 
L 875 1675 
L 2125 2925 
L 2750 2925 
L 1775 1975 
L 2925 125 
z
" transform="scale(0.015625)"/>
       <path id="SimHei-4c" d="M 2900 125 
L 300 125 
L 300 4400 
L 875 4400 
L 875 600 
L 2900 600 
L 2900 125 
z
" transform="scale(0.015625)"/>
       <path id="SimHei-6e" d="M 2800 125 
L 2300 125 
L 2300 1925 
Q 2300 2225 2150 2400 
Q 2000 2575 1750 2575 
Q 1425 2575 1137 2237 
Q 850 1900 850 1400 
L 850 125 
L 350 125 
L 350 2925 
L 850 2925 
L 850 2400 
Q 1050 2675 1287 2825 
Q 1525 2975 1900 2975 
Q 2350 2975 2575 2725 
Q 2800 2475 2800 2100 
L 2800 125 
z
" transform="scale(0.015625)"/>
       <path id="SimHei-63" d="M 2850 1250 
Q 2850 725 2487 400 
Q 2125 75 1575 75 
Q 1025 75 625 462 
Q 225 850 225 1525 
Q 225 2200 625 2587 
Q 1025 2975 1575 2975 
Q 2125 2975 2450 2687 
Q 2775 2400 2775 2000 
L 2225 2000 
Q 2200 2300 2012 2412 
Q 1825 2525 1575 2525 
Q 1275 2525 1025 2287 
Q 775 2050 775 1525 
Q 775 1000 1025 762 
Q 1275 525 1575 525 
Q 1900 525 2100 700 
Q 2300 875 2300 1250 
L 2850 1250 
z
" transform="scale(0.015625)"/>
       <path id="SimHei-79" d="M 2900 2925 
L 1750 -100 
Q 1650 -450 1450 -625 
Q 1250 -800 950 -800 
Q 825 -800 712 -787 
Q 600 -775 500 -725 
L 500 -225 
Q 600 -275 700 -300 
Q 800 -325 875 -325 
Q 1075 -325 1150 -262 
Q 1225 -200 1300 25 
L 200 2925 
L 750 2925 
L 1550 725 
L 1575 725 
L 2350 2925 
L 2900 2925 
z
" transform="scale(0.015625)"/>
      </defs>
      <use xlink:href="#SimHei-54"/>
      <use xlink:href="#SimHei-6f" transform="translate(50 0)"/>
      <use xlink:href="#SimHei-74" transform="translate(100 0)"/>
      <use xlink:href="#SimHei-61" transform="translate(150 0)"/>
      <use xlink:href="#SimHei-6c" transform="translate(200 0)"/>
      <use xlink:href="#SimHei-20" transform="translate(250 0)"/>
      <use xlink:href="#SimHei-54" transform="translate(300 0)"/>
      <use xlink:href="#SimHei-61" transform="translate(350 0)"/>
      <use xlink:href="#SimHei-73" transform="translate(400 0)"/>
      <use xlink:href="#SimHei-6b" transform="translate(450 0)"/>
      <use xlink:href="#SimHei-20" transform="translate(500 0)"/>
      <use xlink:href="#SimHei-4c" transform="translate(550 0)"/>
      <use xlink:href="#SimHei-61" transform="translate(600 0)"/>
      <use xlink:href="#SimHei-74" transform="translate(650 0)"/>
      <use xlink:href="#SimHei-65" transform="translate(700 0)"/>
      <use xlink:href="#SimHei-6e" transform="translate(750 0)"/>
      <use xlink:href="#SimHei-63" transform="translate(800 0)"/>
      <use xlink:href="#SimHei-79" transform="translate(850 0)"/>
     </g>
    </g>
   </g>
   <g id="line2d_29">
    <path d="M 84.485227 144.864835 
L 85.912432 134.906176 
L 87.339636 129.881987 
L 88.76684 127.683543 
L 90.194045 120.590567 
L 91.621249 114.766746 
L 93.048454 108.047889 
L 94.475658 103.7879 
L 95.902862 98.406554 
L 97.330067 90.742375 
L 98.757271 86.393734 
L 100.184475 89.326695 
L 101.61168 86.387924 
L 103.038884 82.820822 
L 104.466089 78.259903 
L 105.893293 76.868131 
L 107.320497 72.399584 
L 108.747702 71.277083 
L 110.174906 66.826109 
L 111.60211 68.959064 
L 114.456519 61.325965 
L 115.883724 63.004395 
L 117.310928 65.959408 
L 118.738132 62.46667 
L 120.165337 60.078141 
L 121.592541 54.874052 
L 123.019745 54.93203 
L 124.44695 53.783844 
L 125.874154 55.327045 
L 127.301359 58.42736 
L 128.728563 59.801119 
L 130.155767 62.903891 
L 131.582972 59.23361 
L 133.010176 58.987117 
L 134.43738 56.557733 
L 135.864585 56.186362 
L 137.291789 66.321233 
L 138.718994 92.793032 
L 140.146198 116.533934 
L 143.000607 157.697456 
L 145.855015 191.433374 
L 147.28222 205.155597 
L 150.136629 229.128014 
L 152.991037 248.67123 
L 154.418242 257.476365 
L 155.845446 265.005973 
L 157.27265 271.829866 
L 158.699855 277.974776 
L 162.981468 292.644229 
L 164.408672 297.173622 
L 167.263081 302.742034 
L 171.544694 309.712305 
L 172.971898 310.366328 
L 174.399103 312.482985 
L 175.826307 314.844055 
L 177.253512 316.708546 
L 178.680716 317.890167 
L 180.10792 319.243479 
L 181.535125 320.271056 
L 182.962329 320.953099 
L 184.389533 322.907484 
L 185.816738 322.559945 
L 187.243942 322.883501 
L 188.671147 322.782918 
L 190.098351 324.101274 
L 191.525555 325.09618 
L 192.95276 326.627788 
L 194.379964 326.95434 
L 195.807168 326.971966 
L 197.234373 327.918749 
L 198.661577 327.505888 
L 200.088782 327.53911 
L 201.515986 328.473412 
L 202.94319 327.880944 
L 204.370395 328.740222 
L 205.797599 329.067238 
L 207.224803 329.166945 
L 208.652008 330.149915 
L 210.079212 329.816684 
L 211.506417 329.988927 
L 212.933621 329.375982 
L 215.78803 330.544572 
L 218.642438 330.480194 
L 220.069643 331.116086 
L 221.496847 331.49057 
L 222.924052 331.609118 
L 224.351256 331.285035 
L 225.77846 331.485787 
L 227.205665 331.948577 
L 228.632869 333.61314 
L 230.060073 331.398625 
L 231.487278 331.512924 
L 232.914482 332.075728 
L 234.341687 331.201924 
L 235.768891 331.036801 
L 237.196095 331.274766 
L 240.050504 331.132334 
L 241.477708 332.054463 
L 242.904913 331.760045 
L 244.332117 331.206469 
L 245.759322 329.901369 
L 247.186526 329.202987 
L 248.61373 327.968247 
L 250.040935 327.547662 
L 251.468139 328.344878 
L 252.895343 329.3064 
L 254.322548 328.998333 
L 255.749752 330.006615 
L 257.176957 329.320372 
L 258.604161 328.773607 
L 260.031365 327.903447 
L 261.45857 327.873641 
L 262.885774 328.358101 
L 264.312978 327.460488 
L 267.167387 328.543404 
L 268.594592 328.719407 
L 270.021796 329.369569 
L 271.449 330.218832 
L 272.876205 328.952487 
L 274.303409 328.944141 
L 275.730613 329.54062 
L 280.012227 330.123179 
L 281.439431 330.935067 
L 282.866635 331.46212 
L 284.29384 330.987667 
L 285.721044 329.504837 
L 287.148248 328.802317 
L 288.575453 328.932413 
L 290.002657 328.069128 
L 292.857066 328.804908 
L 294.28427 329.363914 
L 295.711475 330.33508 
L 297.138679 329.669715 
L 299.993088 330.521893 
L 301.420292 331.370982 
L 304.274701 332.846876 
L 305.701905 332.672302 
L 307.12911 331.949801 
L 308.556314 331.564367 
L 309.983518 330.694056 
L 311.410723 330.226762 
L 312.837927 330.613898 
L 314.265132 330.664932 
L 315.692336 330.965157 
L 317.11954 332.909563 
L 318.546745 332.928697 
L 319.973949 332.281115 
L 321.401153 332.075768 
L 322.828358 331.618122 
L 324.255562 329.848171 
L 325.682767 329.647281 
L 327.109971 328.941008 
L 331.391584 329.961521 
L 332.818788 329.246648 
L 334.245993 329.201839 
L 335.673197 328.932578 
L 337.100402 328.523324 
L 338.527606 329.280012 
L 341.382015 328.322609 
L 342.809219 327.705217 
L 344.236423 328.455078 
L 345.663628 328.517914 
L 347.090832 329.794524 
L 348.518037 330.009894 
L 351.372445 331.281497 
L 352.79965 331.627451 
L 354.226854 332.508676 
L 355.654058 332.768305 
L 357.081263 331.513023 
L 358.508467 331.882326 
L 359.935672 332.818552 
L 361.362876 332.000289 
L 364.217285 331.116674 
L 365.644489 332.397502 
L 367.071693 332.744242 
L 369.926102 331.87542 
L 371.353307 332.356707 
L 372.780511 333.069155 
L 374.207715 331.919153 
L 375.63492 331.094059 
L 377.062124 331.533449 
L 381.343737 333.768355 
L 382.770942 333.942097 
L 384.198146 332.255752 
L 385.62535 332.260359 
L 387.052555 331.363075 
L 388.479759 331.46545 
L 389.906963 331.983378 
L 391.334168 332.138678 
L 392.761372 331.874506 
L 394.188577 331.998059 
L 395.615781 331.09446 
L 397.042985 331.362718 
L 398.47019 330.615533 
L 399.897394 330.806627 
L 401.324598 329.69837 
L 402.751803 330.199986 
L 404.179007 331.188644 
L 405.606212 330.770608 
L 407.033416 329.499457 
L 409.887825 328.77231 
L 411.315029 329.453539 
L 412.742233 329.529037 
L 414.169438 329.056092 
L 415.596642 329.497599 
L 417.023847 327.125337 
L 418.451051 327.162313 
L 419.878255 327.959213 
L 421.30546 329.17566 
L 422.732664 327.230749 
L 424.159868 326.40226 
L 428.441482 328.209509 
L 429.868686 328.480233 
L 431.29589 328.227086 
L 434.150299 330.375251 
L 435.577503 330.594373 
L 437.004708 331.119391 
L 438.431912 331.076743 
L 439.859117 331.312651 
L 441.286321 331.011279 
L 442.713525 329.449545 
L 444.14073 328.949165 
L 445.567934 329.262567 
L 446.995138 329.807973 
L 448.422343 330.806026 
L 449.849547 331.147998 
L 451.276752 331.672112 
L 452.703956 331.050095 
L 455.558365 331.12813 
L 456.985569 330.984686 
L 458.412773 330.264884 
L 459.839978 329.228624 
L 461.267182 329.092866 
L 462.694387 329.478959 
L 464.121591 331.042217 
L 465.548795 331.586952 
L 466.976 332.887996 
L 468.403204 331.872736 
L 469.830408 331.595233 
L 471.257613 332.436033 
L 474.112022 331.643274 
L 475.539226 331.903183 
L 476.96643 331.571321 
L 478.393635 331.387907 
L 479.820839 332.178027 
L 481.248043 331.825459 
L 482.675248 331.898523 
L 484.102452 331.54377 
L 485.529657 331.694486 
L 486.956861 331.677076 
L 488.384065 331.285312 
L 489.81127 330.233774 
L 491.238474 330.342541 
L 492.665678 329.917099 
L 494.092883 329.106287 
L 495.520087 329.03663 
L 496.947292 329.782609 
L 498.374496 329.190731 
L 499.8017 326.725072 
L 501.228905 327.627796 
L 505.510518 328.04016 
L 506.937722 329.204892 
L 508.364927 329.302245 
L 509.792131 330.285426 
L 511.219335 330.411272 
L 514.073744 331.653632 
L 515.500948 332.58424 
L 516.928153 333.652182 
L 518.355357 332.868366 
L 519.782562 333.43454 
L 521.209766 333.781851 
L 522.63697 334.320368 
L 524.064175 334.131267 
L 525.491379 335.026025 
L 526.918583 334.826466 
L 528.345788 334.146401 
L 531.200197 333.530578 
L 532.627401 332.906343 
L 534.054605 332.971859 
L 535.48181 331.674508 
L 538.336218 332.621859 
L 539.763423 331.910609 
L 541.190627 332.499986 
L 542.617832 333.486061 
L 545.47224 334.440062 
L 546.899445 334.49427 
L 548.326649 333.238812 
L 549.753853 333.073137 
L 551.181058 331.233119 
L 552.608262 331.728759 
L 554.035467 330.894279 
L 555.462671 330.327659 
L 556.889875 331.018976 
L 559.744284 331.024857 
L 561.171488 331.230112 
L 562.598693 331.216005 
L 564.025897 331.46355 
L 565.453102 331.447595 
L 568.30751 330.017376 
L 569.734715 328.614196 
L 572.589123 330.113014 
L 574.016328 329.399323 
L 575.443532 329.630117 
L 576.870737 330.192199 
L 578.297941 330.995286 
L 581.15235 330.278804 
L 582.579554 330.458196 
L 584.006758 331.005945 
L 585.433963 331.105063 
L 586.861167 331.004715 
L 588.288371 330.118405 
L 589.715576 329.892183 
L 591.14278 330.537343 
L 592.569985 331.480487 
L 593.997189 331.892498 
L 595.424393 331.825928 
L 596.851598 332.07973 
L 598.278802 331.993358 
L 599.706006 332.456712 
L 602.560415 330.998529 
L 603.98762 331.207654 
L 605.414824 330.807027 
L 606.842028 332.091448 
L 608.269233 330.943062 
L 609.696437 331.404773 
L 611.123641 330.760568 
L 612.550846 330.678059 
L 615.405255 330.890915 
L 616.832459 330.580596 
L 618.259663 329.346198 
L 619.686868 329.435007 
L 621.114072 329.825607 
L 622.541276 329.5921 
L 623.968481 330.069221 
L 625.395685 330.128989 
L 626.82289 329.341214 
L 628.250094 329.200239 
L 629.677298 328.897807 
L 631.104503 328.863092 
L 632.531707 328.42426 
L 635.386116 329.089028 
L 636.81332 330.46598 
L 638.240525 330.029014 
L 639.667729 331.414207 
L 641.094933 331.760088 
L 642.522138 330.768552 
L 643.949342 330.430499 
L 646.803751 331.600077 
L 648.230955 331.541165 
L 649.65816 332.146889 
L 651.085364 331.835371 
L 652.512568 330.788917 
L 653.939773 330.943962 
L 653.939773 330.943962 
" clip-path="url(#p891be4643e)" style="fill: none; stroke: #1f77b4; stroke-width: 1.2; stroke-linecap: square"/>
   </g>
   <g id="line2d_30">
    <path d="M 84.485227 129.481175 
L 85.912432 126.965465 
L 87.339636 119.74508 
L 90.194045 107.603916 
L 91.621249 99.729298 
L 93.048454 96.068643 
L 94.475658 91.092474 
L 95.902862 85.545627 
L 97.330067 81.665857 
L 98.757271 74.446215 
L 100.184475 73.539119 
L 101.61168 69.869844 
L 103.038884 68.412595 
L 104.466089 68.88892 
L 105.893293 70.51213 
L 107.320497 67.819199 
L 108.747702 67.887096 
L 110.174906 63.863138 
L 111.60211 60.254787 
L 113.029315 60.132691 
L 114.456519 61.135849 
L 115.883724 65.59415 
L 117.310928 64.002036 
L 118.738132 66.938547 
L 120.165337 67.242222 
L 121.592541 67.031764 
L 123.019745 68.203609 
L 124.44695 64.035599 
L 125.874154 59.203967 
L 127.301359 58.597466 
L 128.728563 56.564027 
L 130.155767 54.000008 
L 131.582972 57.698923 
L 133.010176 54.556395 
L 134.43738 54.275764 
L 135.864585 52.323131 
L 138.718994 48.838145 
L 140.146198 49.186577 
L 141.573402 70.186229 
L 143.000607 96.120088 
L 145.855015 141.828729 
L 147.28222 160.701819 
L 150.136629 193.193841 
L 151.563833 207.142334 
L 154.418242 230.264764 
L 157.27265 249.81885 
L 160.127059 266.295847 
L 161.554263 273.378803 
L 162.981468 279.086062 
L 164.408672 283.755366 
L 165.835877 287.717045 
L 167.263081 292.255968 
L 170.11749 300.338321 
L 172.971898 305.195927 
L 174.399103 308.936323 
L 177.253512 314.379844 
L 180.10792 315.613617 
L 181.535125 317.903483 
L 182.962329 318.344888 
L 184.389533 320.000303 
L 185.816738 320.546505 
L 187.243942 320.788386 
L 188.671147 321.838468 
L 190.098351 322.118235 
L 191.525555 323.094842 
L 192.95276 324.279072 
L 194.379964 324.98069 
L 195.807168 326.976197 
L 197.234373 326.059178 
L 198.661577 327.420995 
L 200.088782 326.898896 
L 202.94319 327.439067 
L 204.370395 328.252465 
L 205.797599 328.084438 
L 207.224803 329.470595 
L 208.652008 329.355262 
L 210.079212 329.074328 
L 211.506417 329.381934 
L 212.933621 330.191071 
L 214.360825 331.86921 
L 217.215234 331.788972 
L 218.642438 331.102131 
L 220.069643 331.71131 
L 221.496847 330.973192 
L 222.924052 331.50952 
L 224.351256 332.496861 
L 225.77846 331.981674 
L 227.205665 331.738166 
L 228.632869 332.427235 
L 230.060073 332.334901 
L 231.487278 332.751897 
L 232.914482 332.198028 
L 234.341687 332.308549 
L 235.768891 331.477405 
L 237.196095 331.65292 
L 238.6233 331.708507 
L 240.050504 330.873189 
L 241.477708 330.866241 
L 242.904913 330.309724 
L 244.332117 330.221007 
L 245.759322 329.134795 
L 247.186526 327.698471 
L 248.61373 328.63197 
L 251.468139 328.50176 
L 252.895343 329.979153 
L 254.322548 329.297171 
L 258.604161 331.150081 
L 260.031365 330.192824 
L 261.45857 329.792973 
L 262.885774 329.786156 
L 264.312978 329.387253 
L 265.740183 328.66125 
L 267.167387 329.229132 
L 268.594592 330.495064 
L 270.021796 329.744522 
L 271.449 328.847221 
L 272.876205 328.376897 
L 274.303409 328.433348 
L 275.730613 329.441791 
L 278.585022 329.561729 
L 280.012227 329.655641 
L 281.439431 330.106337 
L 282.866635 330.705564 
L 284.29384 330.933929 
L 285.721044 331.007044 
L 287.148248 329.745565 
L 288.575453 330.200072 
L 290.002657 329.420908 
L 291.429862 330.020414 
L 292.857066 330.441977 
L 294.28427 330.501168 
L 295.711475 330.874306 
L 297.138679 330.320388 
L 299.993088 330.288389 
L 301.420292 329.117924 
L 302.847497 329.58133 
L 304.274701 329.416189 
L 305.701905 329.659108 
L 307.12911 329.370397 
L 308.556314 329.369242 
L 309.983518 329.223195 
L 311.410723 329.708772 
L 312.837927 329.727898 
L 314.265132 329.430677 
L 315.692336 329.454307 
L 317.11954 328.679539 
L 318.546745 328.406649 
L 319.973949 329.546702 
L 321.401153 327.935278 
L 322.828358 326.546871 
L 324.255562 324.86754 
L 325.682767 326.310265 
L 327.109971 325.532881 
L 328.537175 326.355239 
L 329.96438 326.632208 
L 332.818788 326.695775 
L 334.245993 327.731423 
L 337.100402 328.96192 
L 338.527606 329.804105 
L 339.95481 328.424597 
L 341.382015 328.053586 
L 342.809219 328.803507 
L 344.236423 329.139602 
L 345.663628 328.468255 
L 347.090832 329.365854 
L 349.945241 328.040384 
L 351.372445 328.715012 
L 352.79965 327.231216 
L 354.226854 327.445585 
L 355.654058 327.88741 
L 357.081263 328.199184 
L 358.508467 328.715494 
L 359.935672 328.003989 
L 361.362876 327.880382 
L 362.79008 328.036672 
L 365.644489 329.049557 
L 367.071693 329.270649 
L 368.498898 329.708807 
L 369.926102 329.950025 
L 371.353307 330.699589 
L 372.780511 331.083295 
L 374.207715 330.035562 
L 375.63492 330.045986 
L 378.489328 332.609696 
L 379.916533 332.937972 
L 381.343737 333.736627 
L 382.770942 333.113838 
L 384.198146 330.964816 
L 385.62535 331.488017 
L 387.052555 332.340558 
L 388.479759 331.120818 
L 389.906963 331.550955 
L 391.334168 332.210651 
L 392.761372 332.466471 
L 394.188577 331.825838 
L 395.615781 330.976618 
L 397.042985 330.377052 
L 399.897394 330.724134 
L 401.324598 330.695355 
L 404.179007 330.892988 
L 405.606212 330.15069 
L 407.033416 328.220825 
L 408.46062 329.026015 
L 409.887825 328.112486 
L 411.315029 328.784517 
L 412.742233 327.828205 
L 414.169438 326.085724 
L 415.596642 326.779294 
L 418.451051 328.749704 
L 419.878255 329.357302 
L 421.30546 329.340368 
L 422.732664 328.795467 
L 425.587073 329.220046 
L 427.014277 329.094549 
L 431.29589 329.819412 
L 432.723095 329.36141 
L 434.150299 329.865915 
L 435.577503 329.620408 
L 437.004708 329.889686 
L 439.859117 331.674183 
L 441.286321 331.889428 
L 442.713525 331.890727 
L 444.14073 331.593776 
L 445.567934 331.024284 
L 448.422343 331.901831 
L 451.276752 331.758036 
L 452.703956 330.761447 
L 454.13116 330.491714 
L 455.558365 329.817401 
L 456.985569 330.138499 
L 458.412773 330.811875 
L 459.839978 330.034299 
L 461.267182 330.633375 
L 464.121591 330.556652 
L 466.976 331.368399 
L 468.403204 331.717341 
L 469.830408 331.34431 
L 471.257613 331.825669 
L 472.684817 329.936991 
L 474.112022 330.043575 
L 475.539226 329.931958 
L 476.96643 329.531979 
L 478.393635 329.803472 
L 479.820839 330.588788 
L 482.675248 330.500074 
L 484.102452 329.535445 
L 485.529657 329.804248 
L 486.956861 330.590277 
L 488.384065 327.585586 
L 489.81127 327.122381 
L 491.238474 327.33465 
L 492.665678 325.571296 
L 494.092883 326.432134 
L 495.520087 327.146682 
L 496.947292 326.577846 
L 498.374496 326.966447 
L 499.8017 325.72131 
L 501.228905 326.651513 
L 502.656109 327.870481 
L 504.083313 328.52134 
L 506.937722 330.136737 
L 508.364927 330.286714 
L 509.792131 330.053936 
L 511.219335 330.516504 
L 512.64654 330.630194 
L 514.073744 331.586721 
L 515.500948 331.415254 
L 516.928153 330.672562 
L 518.355357 330.75571 
L 519.782562 330.61809 
L 521.209766 330.637443 
L 522.63697 330.369757 
L 524.064175 329.726926 
L 525.491379 330.960778 
L 526.918583 331.180119 
L 528.345788 331.098982 
L 529.772992 331.430062 
L 531.200197 332.109677 
L 532.627401 331.956859 
L 534.054605 332.563063 
L 535.48181 330.878997 
L 538.336218 331.182082 
L 539.763423 332.027399 
L 541.190627 331.440395 
L 542.617832 331.322823 
L 544.045036 330.987507 
L 545.47224 330.924666 
L 546.899445 330.571783 
L 548.326649 331.118571 
L 549.753853 330.992939 
L 551.181058 330.429689 
L 552.608262 330.40163 
L 554.035467 329.662196 
L 555.462671 330.050976 
L 556.889875 330.120809 
L 558.31708 331.324316 
L 559.744284 331.55786 
L 561.171488 330.566021 
L 562.598693 330.406687 
L 564.025897 330.797197 
L 565.453102 330.525666 
L 566.880306 330.635329 
L 568.30751 331.55269 
L 569.734715 331.501039 
L 571.161919 331.593895 
L 572.589123 331.097375 
L 574.016328 329.430099 
L 575.443532 328.736281 
L 576.870737 329.353913 
L 578.297941 328.226388 
L 579.725145 329.403877 
L 581.15235 330.328152 
L 582.579554 329.800775 
L 584.006758 329.711451 
L 585.433963 329.442189 
L 586.861167 330.231062 
L 588.288371 330.247076 
L 589.715576 330.647407 
L 591.14278 330.856435 
L 592.569985 330.509398 
L 595.424393 331.38581 
L 596.851598 331.80859 
L 598.278802 331.743538 
L 599.706006 331.064522 
L 601.133211 332.003165 
L 602.560415 332.483331 
L 603.98762 333.256079 
L 605.414824 331.936839 
L 606.842028 331.598902 
L 608.269233 332.540979 
L 609.696437 332.844208 
L 611.123641 331.515688 
L 612.550846 331.207488 
L 613.97805 331.127649 
L 615.405255 331.733482 
L 616.832459 333.097055 
L 618.259663 332.493673 
L 619.686868 332.6653 
L 622.541276 331.965447 
L 623.968481 330.754188 
L 625.395685 331.690071 
L 626.82289 332.231221 
L 628.250094 331.735994 
L 631.104503 332.999364 
L 632.531707 330.208992 
L 635.386116 329.695447 
L 636.81332 329.955186 
L 639.667729 329.421321 
L 641.094933 329.720236 
L 642.522138 328.978681 
L 643.949342 328.890303 
L 645.376546 330.02646 
L 646.803751 330.108337 
L 648.230955 330.307778 
L 649.65816 330.173197 
L 651.085364 330.814896 
L 652.512568 329.977495 
L 652.512568 329.977495 
" clip-path="url(#p891be4643e)" style="fill: none; stroke: #ff7f0e; stroke-width: 1.2; stroke-linecap: square"/>
   </g>
   <g id="line2d_31">
    <path d="M 84.485227 117.351526 
L 85.912432 114.153426 
L 87.339636 116.468134 
L 91.621249 147.576568 
L 94.475658 160.627088 
L 95.902862 168.902335 
L 97.330067 179.242223 
L 98.757271 188.320071 
L 100.184475 194.178491 
L 101.61168 197.700384 
L 103.038884 207.357016 
L 104.466089 215.579854 
L 105.893293 227.089285 
L 108.747702 244.007291 
L 113.029315 263.669857 
L 115.883724 277.408873 
L 117.310928 282.195794 
L 118.738132 287.450476 
L 124.44695 303.225598 
L 125.874154 306.235197 
L 130.155767 313.478195 
L 131.582972 315.182448 
L 134.43738 319.64746 
L 135.864585 320.94893 
L 137.291789 320.830809 
L 138.718994 322.062061 
L 141.573402 324.124967 
L 143.000607 325.711014 
L 144.427811 325.025061 
L 145.855015 325.358421 
L 147.28222 325.891008 
L 150.136629 326.510834 
L 151.563833 327.251497 
L 152.991037 327.565265 
L 154.418242 326.593107 
L 155.845446 327.188562 
L 157.27265 328.752822 
L 158.699855 328.705214 
L 161.554263 330.183477 
L 162.981468 330.996587 
L 164.408672 330.671805 
L 165.835877 330.100659 
L 167.263081 330.464806 
L 168.690285 331.211719 
L 170.11749 329.778035 
L 171.544694 329.96024 
L 172.971898 329.801991 
L 174.399103 330.168399 
L 175.826307 330.253899 
L 177.253512 330.988243 
L 178.680716 330.752303 
L 180.10792 331.376116 
L 181.535125 331.692804 
L 182.962329 332.489459 
L 184.389533 332.511641 
L 185.816738 333.683466 
L 187.243942 332.820698 
L 188.671147 332.595413 
L 190.098351 332.96166 
L 191.525555 333.479158 
L 192.95276 333.574704 
L 194.379964 334.235128 
L 195.807168 334.45908 
L 197.234373 335.191647 
L 198.661577 335.529055 
L 200.088782 334.363933 
L 201.515986 333.845517 
L 202.94319 332.594028 
L 204.370395 331.516825 
L 205.797599 331.241483 
L 207.224803 329.084357 
L 210.079212 330.097742 
L 211.506417 330.148904 
L 212.933621 331.288787 
L 214.360825 332.013642 
L 215.78803 331.353862 
L 217.215234 331.716836 
L 218.642438 331.261894 
L 220.069643 330.539771 
L 221.496847 330.327989 
L 222.924052 330.531865 
L 224.351256 332.084474 
L 225.77846 332.286316 
L 227.205665 332.655125 
L 228.632869 332.744597 
L 230.060073 331.91786 
L 231.487278 331.238217 
L 234.341687 331.045208 
L 235.768891 331.320329 
L 238.6233 331.476536 
L 240.050504 330.270811 
L 241.477708 330.591324 
L 242.904913 330.029716 
L 244.332117 330.507588 
L 247.186526 329.206423 
L 248.61373 330.100623 
L 251.468139 330.84216 
L 252.895343 330.11306 
L 254.322548 330.371321 
L 255.749752 330.260418 
L 257.176957 330.920669 
L 258.604161 330.347949 
L 260.031365 330.608001 
L 261.45857 331.573377 
L 262.885774 331.69296 
L 264.312978 331.265989 
L 265.740183 331.455202 
L 267.167387 331.774836 
L 268.594592 331.31614 
L 270.021796 331.132549 
L 271.449 332.126806 
L 272.876205 332.779037 
L 275.730613 332.264439 
L 277.157818 332.304471 
L 280.012227 333.077416 
L 281.439431 333.68394 
L 282.866635 334.072865 
L 284.29384 332.255986 
L 285.721044 332.217126 
L 288.575453 333.540647 
L 291.429862 332.862588 
L 292.857066 332.95793 
L 294.28427 331.928487 
L 295.711475 332.530608 
L 297.138679 332.653611 
L 298.565883 333.639685 
L 299.993088 333.703053 
L 301.420292 334.127456 
L 302.847497 334.905358 
L 304.274701 334.602265 
L 305.701905 332.753717 
L 308.556314 332.84722 
L 309.983518 332.727149 
L 311.410723 331.980769 
L 312.837927 331.999115 
L 314.265132 331.579409 
L 315.692336 330.48858 
L 317.11954 330.352136 
L 318.546745 329.524285 
L 319.973949 329.357815 
L 321.401153 328.932778 
L 322.828358 329.58968 
L 324.255562 328.514568 
L 327.109971 329.014155 
L 328.537175 328.262534 
L 329.96438 329.178998 
L 331.391584 329.065936 
L 332.818788 328.527437 
L 334.245993 328.668419 
L 335.673197 329.543536 
L 337.100402 330.070313 
L 338.527606 331.453883 
L 339.95481 332.370276 
L 341.382015 331.865862 
L 342.809219 332.291159 
L 344.236423 331.442746 
L 345.663628 332.287971 
L 347.090832 331.47014 
L 348.518037 331.703733 
L 349.945241 331.431803 
L 351.372445 331.646776 
L 352.79965 331.007319 
L 354.226854 331.59083 
L 357.081263 330.450734 
L 359.935672 331.684939 
L 361.362876 331.203026 
L 362.79008 331.426562 
L 364.217285 331.170915 
L 365.644489 331.341705 
L 367.071693 331.698844 
L 369.926102 331.942375 
L 371.353307 332.516412 
L 372.780511 332.677919 
L 374.207715 332.349606 
L 375.63492 332.741777 
L 377.062124 332.126296 
L 378.489328 333.132122 
L 379.916533 332.985583 
L 381.343737 333.022617 
L 382.770942 332.636592 
L 384.198146 333.174585 
L 385.62535 333.977419 
L 387.052555 332.818702 
L 388.479759 332.609311 
L 389.906963 332.098097 
L 391.334168 332.859091 
L 394.188577 331.953252 
L 395.615781 333.078294 
L 397.042985 333.216564 
L 398.47019 333.0082 
L 401.324598 332.217399 
L 402.751803 332.675693 
L 404.179007 332.173375 
L 405.606212 333.469693 
L 407.033416 334.340279 
L 408.46062 333.402598 
L 411.315029 333.788895 
L 412.742233 332.394249 
L 415.596642 332.939243 
L 417.023847 332.499733 
L 418.451051 332.579873 
L 419.878255 333.183885 
L 421.30546 333.514395 
L 422.732664 333.388371 
L 424.159868 333.471241 
L 425.587073 333.116469 
L 427.014277 332.529814 
L 428.441482 330.41192 
L 429.868686 330.499818 
L 431.29589 330.184923 
L 432.723095 330.414255 
L 434.150299 329.544221 
L 435.577503 328.914889 
L 437.004708 328.891415 
L 438.431912 329.294279 
L 439.859117 327.62175 
L 441.286321 328.017979 
L 442.713525 328.133856 
L 444.14073 328.780941 
L 445.567934 328.635858 
L 446.995138 328.800013 
L 448.422343 329.422129 
L 449.849547 330.49324 
L 451.276752 329.667775 
L 452.703956 329.989951 
L 454.13116 329.224047 
L 455.558365 330.225554 
L 456.985569 329.495747 
L 458.412773 330.001407 
L 459.839978 330.322531 
L 461.267182 330.796606 
L 462.694387 330.239284 
L 464.121591 330.848934 
L 465.548795 331.013786 
L 466.976 331.383392 
L 468.403204 332.552069 
L 469.830408 331.954351 
L 471.257613 330.968089 
L 472.684817 330.942583 
L 474.112022 331.359367 
L 475.539226 330.663582 
L 476.96643 330.550216 
L 478.393635 331.027387 
L 479.820839 329.43232 
L 481.248043 330.096719 
L 482.675248 330.638451 
L 484.102452 331.00563 
L 485.529657 329.283415 
L 486.956861 329.126363 
L 488.384065 328.066139 
L 489.81127 327.889715 
L 491.238474 328.949312 
L 494.092883 329.076438 
L 495.520087 328.993783 
L 496.947292 327.472797 
L 498.374496 328.590096 
L 499.8017 328.699303 
L 501.228905 329.087456 
L 502.656109 329.119056 
L 504.083313 329.818321 
L 505.510518 329.177121 
L 506.937722 329.034565 
L 511.219335 329.365335 
L 512.64654 330.137201 
L 514.073744 330.424887 
L 515.500948 330.021597 
L 516.928153 330.045792 
L 525.491379 329.286284 
L 526.918583 329.69197 
L 529.772992 330.764743 
L 531.200197 331.099368 
L 532.627401 330.506521 
L 534.054605 330.629734 
L 535.48181 331.093717 
L 536.909014 328.809367 
L 538.336218 328.905311 
L 539.763423 329.397314 
L 541.190627 330.063477 
L 542.617832 330.378691 
L 544.045036 331.006926 
L 546.899445 331.446293 
L 548.326649 331.447584 
L 549.753853 332.594668 
L 551.181058 332.417748 
L 552.608262 333.112136 
L 554.035467 333.435337 
L 555.462671 333.372663 
L 556.889875 333.87473 
L 558.31708 333.373672 
L 559.744284 333.42405 
L 562.598693 334.109031 
L 564.025897 333.268376 
L 565.453102 333.4603 
L 566.880306 332.800338 
L 568.30751 332.511425 
L 569.734715 331.666436 
L 571.161919 331.820256 
L 572.589123 331.778519 
L 574.016328 331.568763 
L 576.870737 332.344819 
L 578.297941 332.823225 
L 579.725145 333.683066 
L 581.15235 334.042104 
L 582.579554 334.104136 
L 584.006758 333.276457 
L 586.861167 332.558108 
L 589.715576 332.642405 
L 591.14278 332.522294 
L 592.569985 332.767409 
L 593.997189 333.135246 
L 595.424393 332.946168 
L 596.851598 332.250871 
L 598.278802 332.050646 
L 599.706006 331.247475 
L 601.133211 330.739201 
L 602.560415 331.64898 
L 603.98762 331.66681 
L 605.414824 331.887372 
L 606.842028 332.445635 
L 608.269233 329.854679 
L 609.696437 329.732394 
L 611.123641 329.446141 
L 613.97805 329.343276 
L 615.405255 330.172441 
L 616.832459 328.710507 
L 618.259663 328.995684 
L 619.686868 330.196687 
L 621.114072 329.573854 
L 622.541276 329.832106 
L 623.968481 329.749255 
L 625.395685 330.64155 
L 626.82289 330.608284 
L 628.250094 330.893464 
L 631.104503 331.858668 
L 632.531707 330.763548 
L 633.958911 331.317938 
L 636.81332 327.22986 
L 638.240525 327.454591 
L 639.667729 329.274875 
L 641.094933 329.86041 
L 642.522138 329.897235 
L 643.949342 329.59554 
L 645.376546 330.682358 
L 646.803751 330.802746 
L 648.230955 332.043645 
L 649.65816 332.453392 
L 651.085364 331.69324 
L 652.512568 332.588227 
L 652.512568 332.588227 
" clip-path="url(#p891be4643e)" style="fill: none; stroke: #2ca02c; stroke-width: 1.2; stroke-linecap: square"/>
   </g>
   <g id="line2d_32">
    <path d="M 84.485227 117.351526 
L 85.912432 114.344276 
L 88.76684 117.389481 
L 93.048454 155.862055 
L 94.475658 169.59352 
L 100.184475 217.77418 
L 103.038884 238.004673 
L 104.466089 247.088872 
L 107.320497 262.445088 
L 108.747702 269.750094 
L 110.174906 276.235346 
L 111.60211 282.128513 
L 113.029315 286.778664 
L 114.456519 290.248792 
L 115.883724 294.345285 
L 118.738132 301.032139 
L 120.165337 303.318344 
L 121.592541 306.848341 
L 124.44695 312.207107 
L 125.874154 314.156649 
L 130.155767 319.235485 
L 131.582972 319.283883 
L 133.010176 320.962195 
L 134.43738 321.361759 
L 135.864585 320.903544 
L 137.291789 321.579415 
L 138.718994 322.488563 
L 140.146198 324.26614 
L 141.573402 322.828833 
L 143.000607 323.827221 
L 145.855015 323.099735 
L 147.28222 323.677538 
L 148.709424 324.898315 
L 150.136629 325.706909 
L 151.563833 325.051623 
L 152.991037 325.850054 
L 154.418242 326.329642 
L 155.845446 327.352932 
L 157.27265 327.11832 
L 158.699855 326.997772 
L 160.127059 327.071212 
L 161.554263 327.763496 
L 162.981468 328.822649 
L 164.408672 328.924506 
L 165.835877 328.052352 
L 167.263081 328.669126 
L 168.690285 327.047787 
L 170.11749 327.926581 
L 171.544694 328.129545 
L 172.971898 328.461513 
L 174.399103 327.519447 
L 175.826307 328.699401 
L 178.680716 330.594643 
L 180.10792 330.020518 
L 182.962329 329.400202 
L 184.389533 329.839697 
L 185.816738 330.528151 
L 187.243942 329.793087 
L 188.671147 329.960696 
L 190.098351 328.626639 
L 192.95276 328.670396 
L 194.379964 329.791135 
L 195.807168 329.390498 
L 197.234373 330.217018 
L 198.661577 330.508268 
L 200.088782 330.941744 
L 201.515986 331.910048 
L 202.94319 330.776195 
L 204.370395 330.021335 
L 205.797599 330.013402 
L 207.224803 330.327244 
L 208.652008 330.891054 
L 210.079212 331.607225 
L 211.506417 332.598779 
L 212.933621 331.899494 
L 214.360825 331.666994 
L 215.78803 331.779464 
L 217.215234 332.396671 
L 218.642438 332.87836 
L 220.069643 332.782015 
L 221.496847 332.364369 
L 222.924052 332.982199 
L 225.77846 332.176057 
L 227.205665 332.017138 
L 228.632869 332.74121 
L 230.060073 332.657582 
L 231.487278 333.464664 
L 232.914482 333.881932 
L 234.341687 333.119559 
L 235.768891 333.144424 
L 237.196095 333.638658 
L 238.6233 332.940806 
L 240.050504 333.568213 
L 241.477708 333.289748 
L 242.904913 332.537151 
L 244.332117 333.03409 
L 247.186526 332.510506 
L 248.61373 331.885217 
L 250.040935 331.60539 
L 251.468139 332.250153 
L 252.895343 332.52695 
L 254.322548 331.814619 
L 255.749752 332.4264 
L 258.604161 331.427167 
L 260.031365 332.890839 
L 261.45857 331.382546 
L 262.885774 331.967494 
L 264.312978 331.881273 
L 267.167387 331.331939 
L 268.594592 330.856047 
L 270.021796 330.199245 
L 271.449 331.019612 
L 272.876205 332.144785 
L 274.303409 331.962819 
L 275.730613 332.535159 
L 277.157818 332.653926 
L 278.585022 332.58559 
L 280.012227 333.237219 
L 281.439431 333.695645 
L 282.866635 332.713472 
L 284.29384 332.296307 
L 285.721044 333.280977 
L 287.148248 330.874171 
L 288.575453 331.481939 
L 290.002657 331.720836 
L 292.857066 331.275264 
L 294.28427 331.703419 
L 295.711475 331.396268 
L 298.565883 332.04579 
L 299.993088 331.400636 
L 301.420292 331.966831 
L 302.847497 330.71256 
L 304.274701 330.628049 
L 305.701905 331.393567 
L 307.12911 330.869944 
L 308.556314 331.890167 
L 311.410723 330.916107 
L 312.837927 330.972392 
L 314.265132 331.427523 
L 315.692336 331.326209 
L 318.546745 333.066428 
L 319.973949 331.897746 
L 321.401153 330.12971 
L 322.828358 330.747519 
L 324.255562 331.019216 
L 325.682767 329.564394 
L 328.537175 330.614788 
L 329.96438 330.89968 
L 331.391584 331.847359 
L 332.818788 331.682029 
L 334.245993 332.084223 
L 335.673197 331.693541 
L 337.100402 332.412994 
L 338.527606 331.961357 
L 341.382015 334.033093 
L 342.809219 333.480016 
L 344.236423 333.396054 
L 347.090832 332.857735 
L 348.518037 333.096358 
L 349.945241 332.253745 
L 351.372445 333.08127 
L 354.226854 332.964733 
L 355.654058 333.102506 
L 358.508467 332.252734 
L 359.935672 332.448165 
L 361.362876 332.162035 
L 362.79008 332.214265 
L 364.217285 331.799139 
L 365.644489 331.790822 
L 367.071693 331.585496 
L 368.498898 329.094735 
L 369.926102 328.526169 
L 371.353307 328.164888 
L 372.780511 328.688254 
L 374.207715 328.833524 
L 375.63492 328.822204 
L 377.062124 328.184758 
L 378.489328 327.169688 
L 379.916533 327.571001 
L 381.343737 329.011472 
L 382.770942 329.077453 
L 384.198146 328.961209 
L 387.052555 330.669935 
L 388.479759 331.181851 
L 389.906963 331.855057 
L 391.334168 331.87307 
L 392.761372 332.588695 
L 394.188577 332.82496 
L 398.47019 332.369986 
L 399.897394 331.789832 
L 404.179007 333.122029 
L 405.606212 333.156695 
L 407.033416 332.384745 
L 408.46062 331.992924 
L 411.315029 330.754335 
L 412.742233 330.414194 
L 414.169438 330.636436 
L 415.596642 330.41589 
L 417.023847 330.728906 
L 418.451051 330.511821 
L 419.878255 330.922863 
L 421.30546 331.841717 
L 422.732664 332.126757 
L 424.159868 331.513548 
L 425.587073 332.242908 
L 427.014277 331.782645 
L 429.868686 330.266098 
L 431.29589 330.918949 
L 432.723095 331.134647 
L 434.150299 331.720512 
L 435.577503 331.097589 
L 437.004708 331.378891 
L 438.431912 332.384885 
L 439.859117 333.088933 
L 441.286321 332.527622 
L 442.713525 331.13234 
L 444.14073 329.510316 
L 445.567934 329.892022 
L 446.995138 329.985048 
L 448.422343 329.657626 
L 449.849547 330.361955 
L 452.703956 331.069902 
L 454.13116 331.161526 
L 455.558365 331.776454 
L 456.985569 332.960013 
L 458.412773 332.954649 
L 459.839978 333.288555 
L 462.694387 335.047421 
L 464.121591 335.322322 
L 465.548795 333.782935 
L 466.976 333.833959 
L 468.403204 333.695732 
L 469.830408 333.796076 
L 471.257613 333.460314 
L 472.684817 333.318751 
L 474.112022 334.195855 
L 476.96643 333.340419 
L 478.393635 333.429768 
L 481.248043 334.124562 
L 482.675248 334.282111 
L 484.102452 332.720291 
L 485.529657 332.907698 
L 486.956861 332.965083 
L 488.384065 332.599537 
L 489.81127 332.642631 
L 491.238474 332.948523 
L 492.665678 332.386425 
L 494.092883 332.163593 
L 495.520087 333.082563 
L 496.947292 333.615733 
L 498.374496 333.948991 
L 499.8017 333.741614 
L 501.228905 332.566338 
L 502.656109 332.141036 
L 504.083313 332.085406 
L 505.510518 331.837313 
L 506.937722 331.315512 
L 508.364927 330.410375 
L 509.792131 330.168171 
L 511.219335 330.649914 
L 512.64654 330.559701 
L 514.073744 328.947071 
L 515.500948 328.141139 
L 516.928153 328.82338 
L 518.355357 328.999033 
L 519.782562 328.850736 
L 521.209766 329.302234 
L 522.63697 330.109963 
L 524.064175 329.380011 
L 525.491379 329.530111 
L 526.918583 330.081039 
L 528.345788 328.99788 
L 529.772992 329.593226 
L 531.200197 330.5768 
L 532.627401 330.080627 
L 534.054605 330.564159 
L 535.48181 330.152319 
L 536.909014 330.850953 
L 539.763423 331.810512 
L 541.190627 330.490954 
L 542.617832 331.629901 
L 544.045036 332.085432 
L 545.47224 330.572323 
L 546.899445 330.87836 
L 548.326649 331.480271 
L 549.753853 331.942309 
L 551.181058 332.23765 
L 552.608262 332.807651 
L 555.462671 331.728727 
L 556.889875 332.349241 
L 558.31708 330.949464 
L 559.744284 330.673373 
L 561.171488 331.550478 
L 562.598693 331.900153 
L 565.453102 331.444872 
L 566.880306 332.332039 
L 568.30751 332.717101 
L 569.734715 332.645131 
L 571.161919 331.321862 
L 572.589123 331.989027 
L 574.016328 332.915292 
L 575.443532 331.861509 
L 576.870737 330.322924 
L 578.297941 329.874327 
L 579.725145 329.549918 
L 581.15235 330.630479 
L 582.579554 331.20847 
L 585.433963 330.929651 
L 586.861167 331.488195 
L 588.288371 331.717459 
L 589.715576 330.334833 
L 592.569985 330.164528 
L 593.997189 331.571978 
L 595.424393 332.189651 
L 596.851598 330.177733 
L 598.278802 331.738901 
L 599.706006 331.633152 
L 601.133211 332.091263 
L 602.560415 332.667223 
L 603.98762 331.991106 
L 605.414824 331.723651 
L 606.842028 332.033621 
L 609.696437 331.576883 
L 611.123641 330.249472 
L 612.550846 330.764428 
L 613.97805 330.843167 
L 615.405255 332.587149 
L 616.832459 333.27236 
L 618.259663 332.025246 
L 621.114072 331.304568 
L 622.541276 331.84448 
L 623.968481 332.719103 
L 625.395685 332.031636 
L 626.82289 332.931063 
L 628.250094 333.511093 
L 629.677298 333.574492 
L 631.104503 333.819075 
L 632.531707 333.614144 
L 633.958911 333.248248 
L 635.386116 332.265104 
L 636.81332 332.627085 
L 638.240525 331.136093 
L 641.094933 333.183531 
L 642.522138 332.678688 
L 645.376546 333.961321 
L 646.803751 334.263184 
L 649.65816 333.643138 
L 651.085364 333.953638 
L 652.512568 333.669353 
L 652.512568 333.669353 
" clip-path="url(#p891be4643e)" style="fill: none; stroke: #9b8ac9; stroke-width: 1.2; stroke-linecap: square"/>
   </g>
   <g id="patch_3">
    <path d="M 56.0125 349.8636 
L 56.0125 34.5036 
" style="fill: none; stroke: #000000; stroke-width: 0.8; stroke-linejoin: miter; stroke-linecap: square"/>
   </g>
   <g id="patch_4">
    <path d="M 682.4125 349.8636 
L 682.4125 34.5036 
" style="fill: none; stroke: #000000; stroke-width: 0.8; stroke-linejoin: miter; stroke-linecap: square"/>
   </g>
   <g id="patch_5">
    <path d="M 56.0125 349.8636 
L 682.4125 349.8636 
" style="fill: none; stroke: #000000; stroke-width: 0.8; stroke-linejoin: miter; stroke-linecap: square"/>
   </g>
   <g id="patch_6">
    <path d="M 56.0125 34.5036 
L 682.4125 34.5036 
" style="fill: none; stroke: #000000; stroke-width: 0.8; stroke-linejoin: miter; stroke-linecap: square"/>
   </g>
   <g id="legend_1">
    <g id="patch_7">
     <path d="M 56.0125 31.35 
L 682.4125 31.35 
L 682.4125 7.2 
L 56.0125 7.2 
z
" style="fill: #ffffff; stroke: #808080; stroke-width: 0.8; stroke-linejoin: miter"/>
    </g>
    <g id="line2d_33">
     <path d="M 62.3125 18.4 
L 76.3125 18.4 
L 90.3125 18.4 
" style="fill: none; stroke: #1f77b4; stroke-width: 1.2; stroke-linecap: square"/>
    </g>
    <g id="text_17">
     <!-- GCN-DDQN -->
     <g transform="translate(98.7125 23.3) scale(0.14 -0.14)">
      <defs>
       <path id="SimHei-47" d="M 2850 75 
L 2425 75 
L 2350 425 
Q 2250 275 2037 175 
Q 1825 75 1575 75 
Q 1050 75 637 562 
Q 225 1050 225 2125 
Q 225 3300 600 3875 
Q 975 4450 1625 4450 
Q 2200 4450 2525 4025 
Q 2850 3600 2850 2925 
L 2300 2925 
Q 2300 3450 2125 3712 
Q 1950 3975 1625 3975 
Q 1225 3975 1025 3562 
Q 825 3150 825 2175 
Q 825 1250 1075 900 
Q 1325 550 1650 550 
Q 1975 550 2162 787 
Q 2350 1025 2350 1525 
L 2350 1800 
L 1575 1800 
L 1575 2275 
L 2850 2275 
L 2850 75 
z
" transform="scale(0.015625)"/>
       <path id="SimHei-43" d="M 2975 1825 
Q 2950 875 2575 475 
Q 2200 75 1675 75 
Q 1075 75 650 562 
Q 225 1050 225 2125 
Q 225 3300 637 3875 
Q 1050 4450 1700 4450 
Q 2250 4450 2612 4037 
Q 2975 3625 2950 2875 
L 2400 2875 
Q 2400 3425 2225 3700 
Q 2050 3975 1700 3975 
Q 1300 3975 1062 3562 
Q 825 3150 825 2175 
Q 825 1275 1062 912 
Q 1300 550 1675 550 
Q 1950 550 2175 812 
Q 2400 1075 2400 1825 
L 2975 1825 
z
" transform="scale(0.015625)"/>
       <path id="SimHei-4e" d="M 2850 125 
L 2225 125 
L 850 3225 
L 825 3225 
L 825 125 
L 250 125 
L 250 4400 
L 875 4400 
L 2250 1300 
L 2275 1300 
L 2275 4400 
L 2850 4400 
L 2850 125 
z
" transform="scale(0.015625)"/>
       <path id="SimHei-2d" d="M 2975 2125 
L 125 2125 
L 125 2525 
L 2975 2525 
L 2975 2125 
z
" transform="scale(0.015625)"/>
       <path id="SimHei-44" d="M 2925 2250 
Q 2925 1100 2437 612 
Q 1950 125 1125 125 
L 275 125 
L 275 4400 
L 1125 4400 
Q 2050 4400 2487 3900 
Q 2925 3400 2925 2250 
z
M 2325 2250 
Q 2325 3175 2025 3550 
Q 1725 3925 1125 3925 
L 850 3925 
L 850 600 
L 1125 600 
Q 1725 600 2025 962 
Q 2325 1325 2325 2250 
z
" transform="scale(0.015625)"/>
       <path id="SimHei-51" d="M 2950 2275 
Q 2950 1675 2862 1262 
Q 2775 850 2575 600 
L 2775 225 
L 2375 -200 
L 2150 225 
Q 2050 150 1900 112 
Q 1750 75 1575 75 
Q 925 75 550 587 
Q 175 1100 175 2275 
Q 175 3450 550 3950 
Q 925 4450 1575 4450 
Q 2225 4450 2587 3950 
Q 2950 3450 2950 2275 
z
M 2350 2275 
Q 2350 3325 2125 3650 
Q 1900 3975 1575 3975 
Q 1250 3975 1012 3650 
Q 775 3325 775 2275 
Q 775 1225 1012 887 
Q 1250 550 1575 550 
Q 1700 550 1800 587 
Q 1900 625 1950 675 
L 1550 1450 
L 1900 1875 
L 2250 1200 
Q 2300 1450 2325 1650 
Q 2350 1850 2350 2275 
z
" transform="scale(0.015625)"/>
      </defs>
      <use xlink:href="#SimHei-47"/>
      <use xlink:href="#SimHei-43" transform="translate(50 0)"/>
      <use xlink:href="#SimHei-4e" transform="translate(100 0)"/>
      <use xlink:href="#SimHei-2d" transform="translate(150 0)"/>
      <use xlink:href="#SimHei-44" transform="translate(200 0)"/>
      <use xlink:href="#SimHei-44" transform="translate(250 0)"/>
      <use xlink:href="#SimHei-51" transform="translate(300 0)"/>
      <use xlink:href="#SimHei-4e" transform="translate(350 0)"/>
     </g>
    </g>
    <g id="line2d_34">
     <path d="M 229.1125 18.4 
L 243.1125 18.4 
L 257.1125 18.4 
" style="fill: none; stroke: #ff7f0e; stroke-width: 1.2; stroke-linecap: square"/>
    </g>
    <g id="text_18">
     <!-- GCN-D3QN -->
     <g transform="translate(265.5125 23.3) scale(0.14 -0.14)">
      <use xlink:href="#SimHei-47"/>
      <use xlink:href="#SimHei-43" transform="translate(50 0)"/>
      <use xlink:href="#SimHei-4e" transform="translate(100 0)"/>
      <use xlink:href="#SimHei-2d" transform="translate(150 0)"/>
      <use xlink:href="#SimHei-44" transform="translate(200 0)"/>
      <use xlink:href="#SimHei-33" transform="translate(250 0)"/>
      <use xlink:href="#SimHei-51" transform="translate(300 0)"/>
      <use xlink:href="#SimHei-4e" transform="translate(350 0)"/>
     </g>
    </g>
    <g id="line2d_35">
     <path d="M 395.9125 18.4 
L 409.9125 18.4 
L 423.9125 18.4 
" style="fill: none; stroke: #2ca02c; stroke-width: 1.2; stroke-linecap: square"/>
    </g>
    <g id="text_19">
     <!-- GAT-LSTM-DDQN -->
     <g transform="translate(432.3125 23.3) scale(0.14 -0.14)">
      <defs>
       <path id="SimHei-41" d="M 3075 125 
L 2475 125 
L 2125 1450 
L 1025 1450 
L 675 125 
L 75 125 
L 1325 4450 
L 1825 4450 
L 3075 125 
z
M 2000 1925 
L 1600 3450 
L 1550 3450 
L 1150 1925 
L 2000 1925 
z
" transform="scale(0.015625)"/>
       <path id="SimHei-53" d="M 2900 1325 
Q 2900 750 2537 412 
Q 2175 75 1550 75 
Q 925 75 575 425 
Q 225 775 225 1300 
L 225 1475 
L 800 1475 
L 800 1325 
Q 800 950 1025 750 
Q 1250 550 1550 550 
Q 1950 550 2137 762 
Q 2325 975 2325 1275 
Q 2325 1525 2100 1737 
Q 1875 1950 1450 2125 
Q 850 2350 587 2625 
Q 325 2900 325 3275 
Q 325 3800 687 4125 
Q 1050 4450 1550 4450 
Q 2200 4450 2487 4062 
Q 2775 3675 2775 3225 
L 2200 3225 
Q 2225 3500 2050 3725 
Q 1875 3950 1550 3950 
Q 1250 3950 1075 3787 
Q 900 3625 900 3350 
Q 900 3125 1037 2962 
Q 1175 2800 1750 2575 
Q 2300 2350 2600 2037 
Q 2900 1725 2900 1325 
z
" transform="scale(0.015625)"/>
       <path id="SimHei-4d" d="M 2925 125 
L 2425 125 
L 2425 3175 
L 2375 3175 
L 1775 125 
L 1375 125 
L 775 3175 
L 725 3175 
L 725 125 
L 225 125 
L 225 4400 
L 1000 4400 
L 1550 1575 
L 1600 1575 
L 2150 4400 
L 2925 4400 
L 2925 125 
z
" transform="scale(0.015625)"/>
      </defs>
      <use xlink:href="#SimHei-47"/>
      <use xlink:href="#SimHei-41" transform="translate(50 0)"/>
      <use xlink:href="#SimHei-54" transform="translate(100 0)"/>
      <use xlink:href="#SimHei-2d" transform="translate(150 0)"/>
      <use xlink:href="#SimHei-4c" transform="translate(200 0)"/>
      <use xlink:href="#SimHei-53" transform="translate(250 0)"/>
      <use xlink:href="#SimHei-54" transform="translate(300 0)"/>
      <use xlink:href="#SimHei-4d" transform="translate(350 0)"/>
      <use xlink:href="#SimHei-2d" transform="translate(400 0)"/>
      <use xlink:href="#SimHei-44" transform="translate(450 0)"/>
      <use xlink:href="#SimHei-44" transform="translate(500 0)"/>
      <use xlink:href="#SimHei-51" transform="translate(550 0)"/>
      <use xlink:href="#SimHei-4e" transform="translate(600 0)"/>
     </g>
    </g>
    <g id="line2d_36">
     <path d="M 597.7125 18.4 
L 611.7125 18.4 
L 625.7125 18.4 
" style="fill: none; stroke: #9b8ac9; stroke-width: 1.2; stroke-linecap: square"/>
    </g>
    <g id="text_20">
     <!-- GLDVTO -->
     <g transform="translate(634.1125 23.3) scale(0.14 -0.14)">
      <defs>
       <path id="SimHei-56" d="M 3050 4400 
L 1800 75 
L 1300 75 
L 50 4400 
L 650 4400 
L 1525 1125 
L 1575 1125 
L 2450 4400 
L 3050 4400 
z
" transform="scale(0.015625)"/>
       <path id="SimHei-4f" d="M 2950 2275 
Q 2950 1100 2587 587 
Q 2225 75 1575 75 
Q 925 75 550 587 
Q 175 1100 175 2275 
Q 175 3450 550 3950 
Q 925 4450 1575 4450 
Q 2225 4450 2587 3950 
Q 2950 3450 2950 2275 
z
M 2350 2275 
Q 2350 3325 2125 3650 
Q 1900 3975 1575 3975 
Q 1250 3975 1012 3650 
Q 775 3325 775 2275 
Q 775 1225 1012 887 
Q 1250 550 1575 550 
Q 1900 550 2125 887 
Q 2350 1225 2350 2275 
z
" transform="scale(0.015625)"/>
      </defs>
      <use xlink:href="#SimHei-47"/>
      <use xlink:href="#SimHei-4c" transform="translate(50 0)"/>
      <use xlink:href="#SimHei-44" transform="translate(100 0)"/>
      <use xlink:href="#SimHei-56" transform="translate(150 0)"/>
      <use xlink:href="#SimHei-54" transform="translate(200 0)"/>
      <use xlink:href="#SimHei-4f" transform="translate(250 0)"/>
     </g>
    </g>
   </g>
  </g>
 </g>
 <defs>
  <clipPath id="p891be4643e">
   <rect x="56.0125" y="34.5036" width="626.4" height="315.36"/>
  </clipPath>
 </defs>
</svg>
