<?xml version="1.0" encoding="utf-8" standalone="no"?>
<!DOCTYPE svg PUBLIC "-//W3C//DTD SVG 1.1//EN"
  "http://www.w3.org/Graphics/SVG/1.1/DTD/svg11.dtd">
<svg xmlns:xlink="http://www.w3.org/1999/xlink" width="683.6125pt" height="391.6261pt" viewBox="0 0 683.6125 391.6261" xmlns="http://www.w3.org/2000/svg" version="1.1">
 <metadata>
  <rdf:RDF xmlns:dc="http://purl.org/dc/elements/1.1/" xmlns:cc="http://creativecommons.org/ns#" xmlns:rdf="http://www.w3.org/1999/02/22-rdf-syntax-ns#">
   <cc:Work>
    <dc:type rdf:resource="http://purl.org/dc/dcmitype/StillImage"/>
    <dc:date>2026-07-09T23:30:36.096898</dc:date>
    <dc:format>image/svg+xml</dc:format>
    <dc:creator>
     <cc:Agent>
      <dc:title>Matplotlib v3.10.7, https://matplotlib.org/</dc:title>
     </cc:Agent>
    </dc:creator>
   </cc:Work>
  </rdf:RDF>
 </metadata>
 <defs>
  <style type="text/css">*{stroke-linejoin: round; stroke-linecap: butt}</style>
 </defs>
 <g id="figure_1">
  <g id="patch_1">
   <path d="M 0 391.6261 
L 683.6125 391.6261 
L 683.6125 0 
L 0 0 
z
" style="fill: #ffffff"/>
  </g>
  <g id="axes_1">
   <g id="patch_2">
    <path d="M 50.0125 349.8636 
L 676.4125 349.8636 
L 676.4125 34.5036 
L 50.0125 34.5036 
z
" style="fill: #ffffff"/>
   </g>
   <g id="matplotlib.axis_1">
    <g id="xtick_1">
     <g id="line2d_1">
      <path d="M 78.485227 349.8636 
L 78.485227 34.5036 
" clip-path="url(#p1d5e4f932a)" style="fill: none; stroke-dasharray: 2.22,0.96; stroke-dashoffset: 0; stroke: #b0b0b0; stroke-opacity: 0.25; stroke-width: 0.6"/>
     </g>
     <g id="line2d_2">
      <defs>
       <path id="m549db94f32" d="M 0 0 
L 0 3.5 
" style="stroke: #000000; stroke-width: 0.8"/>
      </defs>
      <g>
       <use xlink:href="#m549db94f32" x="78.485227" y="349.8636" style="stroke: #000000; stroke-width: 0.8"/>
      </g>
     </g>
     <g id="text_1">
      <!-- 0 -->
      <g transform="translate(75.485227 365.1136) scale(0.12 -0.12)">
       <defs>
        <path id="SimHei-30" d="M 225 2537 
Q 250 3200 412 3587 
Q 575 3975 875 4225 
Q 1175 4475 1612 4475 
Q 2050 4475 2375 4112 
Q 2700 3750 2800 3200 
Q 2900 2650 2862 1937 
Q 2825 1225 2612 775 
Q 2400 325 1975 150 
Q 1550 -25 1125 187 
Q 700 400 525 750 
Q 350 1100 275 1487 
Q 200 1875 225 2537 
z
M 750 2687 
Q 675 2000 800 1462 
Q 925 925 1212 700 
Q 1500 475 1800 612 
Q 2100 750 2237 1162 
Q 2375 1575 2375 2062 
Q 2375 2550 2337 2950 
Q 2300 3350 2112 3675 
Q 1925 4000 1612 4012 
Q 1300 4025 1062 3700 
Q 825 3375 750 2687 
z
" transform="scale(0.015625)"/>
       </defs>
       <use xlink:href="#SimHei-30"/>
      </g>
     </g>
    </g>
    <g id="xtick_2">
     <g id="line2d_3">
      <path d="M 149.845446 349.8636 
L 149.845446 34.5036 
" clip-path="url(#p1d5e4f932a)" style="fill: none; stroke-dasharray: 2.22,0.96; stroke-dashoffset: 0; stroke: #b0b0b0; stroke-opacity: 0.25; stroke-width: 0.6"/>
     </g>
     <g id="line2d_4">
      <g>
       <use xlink:href="#m549db94f32" x="149.845446" y="349.8636" style="stroke: #000000; stroke-width: 0.8"/>
      </g>
     </g>
     <g id="text_2">
      <!-- 50 -->
      <g transform="translate(143.845446 365.1136) scale(0.12 -0.12)">
       <defs>
        <path id="SimHei-35" d="M 550 1325 
Q 725 650 1150 575 
Q 1575 500 1837 662 
Q 2100 825 2212 1087 
Q 2325 1350 2312 1675 
Q 2300 2000 2137 2225 
Q 1975 2450 1725 2525 
Q 1475 2600 1162 2525 
Q 850 2450 650 2175 
L 225 2225 
Q 275 2375 700 4375 
L 2675 4375 
L 2675 3925 
L 1075 3925 
Q 950 3250 825 2850 
Q 1200 3025 1525 3012 
Q 1850 3000 2150 2862 
Q 2450 2725 2587 2487 
Q 2725 2250 2787 2012 
Q 2850 1775 2837 1500 
Q 2825 1225 2725 937 
Q 2625 650 2425 462 
Q 2225 275 1937 162 
Q 1650 50 1275 75 
Q 900 100 562 350 
Q 225 600 100 1200 
L 550 1325 
z
" transform="scale(0.015625)"/>
       </defs>
       <use xlink:href="#SimHei-35"/>
       <use xlink:href="#SimHei-30" transform="translate(50 0)"/>
      </g>
     </g>
    </g>
    <g id="xtick_3">
     <g id="line2d_5">
      <path d="M 221.205665 349.8636 
L 221.205665 34.5036 
" clip-path="url(#p1d5e4f932a)" style="fill: none; stroke-dasharray: 2.22,0.96; stroke-dashoffset: 0; stroke: #b0b0b0; stroke-opacity: 0.25; stroke-width: 0.6"/>
     </g>
     <g id="line2d_6">
      <g>
       <use xlink:href="#m549db94f32" x="221.205665" y="349.8636" style="stroke: #000000; stroke-width: 0.8"/>
      </g>
     </g>
     <g id="text_3">
      <!-- 100 -->
      <g transform="translate(212.205665 365.1136) scale(0.12 -0.12)">
       <defs>
        <path id="SimHei-31" d="M 1400 3600 
Q 1075 3275 575 2975 
L 575 3450 
Q 1200 3875 1600 4450 
L 1900 4450 
L 1900 150 
L 1400 150 
L 1400 3600 
z
" transform="scale(0.015625)"/>
       </defs>
       <use xlink:href="#SimHei-31"/>
       <use xlink:href="#SimHei-30" transform="translate(50 0)"/>
       <use xlink:href="#SimHei-30" transform="translate(100 0)"/>
      </g>
     </g>
    </g>
    <g id="xtick_4">
     <g id="line2d_7">
      <path d="M 292.565883 349.8636 
L 292.565883 34.5036 
" clip-path="url(#p1d5e4f932a)" style="fill: none; stroke-dasharray: 2.22,0.96; stroke-dashoffset: 0; stroke: #b0b0b0; stroke-opacity: 0.25; stroke-width: 0.6"/>
     </g>
     <g id="line2d_8">
      <g>
       <use xlink:href="#m549db94f32" x="292.565883" y="349.8636" style="stroke: #000000; stroke-width: 0.8"/>
      </g>
     </g>
     <g id="text_4">
      <!-- 150 -->
      <g transform="translate(283.565883 365.1136) scale(0.12 -0.12)">
       <use xlink:href="#SimHei-31"/>
       <use xlink:href="#SimHei-35" transform="translate(50 0)"/>
       <use xlink:href="#SimHei-30" transform="translate(100 0)"/>
      </g>
     </g>
    </g>
    <g id="xtick_5">
     <g id="line2d_9">
      <path d="M 363.926102 349.8636 
L 363.926102 34.5036 
" clip-path="url(#p1d5e4f932a)" style="fill: none; stroke-dasharray: 2.22,0.96; stroke-dashoffset: 0; stroke: #b0b0b0; stroke-opacity: 0.25; stroke-width: 0.6"/>
     </g>
     <g id="line2d_10">
      <g>
       <use xlink:href="#m549db94f32" x="363.926102" y="349.8636" style="stroke: #000000; stroke-width: 0.8"/>
      </g>
     </g>
     <g id="text_5">
      <!-- 200 -->
      <g transform="translate(354.926102 365.1136) scale(0.12 -0.12)">
       <defs>
        <path id="SimHei-32" d="M 300 250 
Q 325 625 650 925 
Q 975 1225 1475 1862 
Q 1975 2500 2125 2850 
Q 2275 3200 2237 3450 
Q 2200 3700 2000 3862 
Q 1800 4025 1537 4000 
Q 1275 3975 1037 3800 
Q 800 3625 675 3275 
L 200 3350 
Q 400 3925 712 4187 
Q 1025 4450 1450 4475 
Q 1700 4500 1900 4462 
Q 2100 4425 2312 4287 
Q 2525 4150 2662 3875 
Q 2800 3600 2762 3212 
Q 2725 2825 2375 2287 
Q 2025 1750 1025 600 
L 2825 600 
L 2825 150 
L 300 150 
L 300 250 
z
" transform="scale(0.015625)"/>
       </defs>
       <use xlink:href="#SimHei-32"/>
       <use xlink:href="#SimHei-30" transform="translate(50 0)"/>
       <use xlink:href="#SimHei-30" transform="translate(100 0)"/>
      </g>
     </g>
    </g>
    <g id="xtick_6">
     <g id="line2d_11">
      <path d="M 435.286321 349.8636 
L 435.286321 34.5036 
" clip-path="url(#p1d5e4f932a)" style="fill: none; stroke-dasharray: 2.22,0.96; stroke-dashoffset: 0; stroke: #b0b0b0; stroke-opacity: 0.25; stroke-width: 0.6"/>
     </g>
     <g id="line2d_12">
      <g>
       <use xlink:href="#m549db94f32" x="435.286321" y="349.8636" style="stroke: #000000; stroke-width: 0.8"/>
      </g>
     </g>
     <g id="text_6">
      <!-- 250 -->
      <g transform="translate(426.286321 365.1136) scale(0.12 -0.12)">
       <use xlink:href="#SimHei-32"/>
       <use xlink:href="#SimHei-35" transform="translate(50 0)"/>
       <use xlink:href="#SimHei-30" transform="translate(100 0)"/>
      </g>
     </g>
    </g>
    <g id="xtick_7">
     <g id="line2d_13">
      <path d="M 506.64654 349.8636 
L 506.64654 34.5036 
" clip-path="url(#p1d5e4f932a)" style="fill: none; stroke-dasharray: 2.22,0.96; stroke-dashoffset: 0; stroke: #b0b0b0; stroke-opacity: 0.25; stroke-width: 0.6"/>
     </g>
     <g id="line2d_14">
      <g>
       <use xlink:href="#m549db94f32" x="506.64654" y="349.8636" style="stroke: #000000; stroke-width: 0.8"/>
      </g>
     </g>
     <g id="text_7">
      <!-- 300 -->
      <g transform="translate(497.64654 365.1136) scale(0.12 -0.12)">
       <defs>
        <path id="SimHei-33" d="M 250 1225 
L 700 1300 
Q 800 975 1025 762 
Q 1250 550 1587 562 
Q 1925 575 2125 837 
Q 2325 1100 2300 1437 
Q 2275 1775 2037 1962 
Q 1800 2150 1275 2225 
L 1275 2550 
Q 1800 2600 2037 2825 
Q 2275 3050 2250 3412 
Q 2225 3775 1925 3937 
Q 1625 4100 1287 3975 
Q 950 3850 750 3275 
L 300 3350 
Q 450 3800 712 4100 
Q 975 4400 1425 4450 
Q 1875 4500 2212 4337 
Q 2550 4175 2687 3837 
Q 2825 3500 2725 3100 
Q 2625 2700 2150 2400 
Q 2500 2250 2687 1950 
Q 2875 1650 2812 1162 
Q 2750 675 2375 375 
Q 2000 75 1525 87 
Q 1050 100 700 387 
Q 350 675 250 1225 
z
" transform="scale(0.015625)"/>
       </defs>
       <use xlink:href="#SimHei-33"/>
       <use xlink:href="#SimHei-30" transform="translate(50 0)"/>
       <use xlink:href="#SimHei-30" transform="translate(100 0)"/>
      </g>
     </g>
    </g>
    <g id="xtick_8">
     <g id="line2d_15">
      <path d="M 578.006758 349.8636 
L 578.006758 34.5036 
" clip-path="url(#p1d5e4f932a)" style="fill: none; stroke-dasharray: 2.22,0.96; stroke-dashoffset: 0; stroke: #b0b0b0; stroke-opacity: 0.25; stroke-width: 0.6"/>
     </g>
     <g id="line2d_16">
      <g>
       <use xlink:href="#m549db94f32" x="578.006758" y="349.8636" style="stroke: #000000; stroke-width: 0.8"/>
      </g>
     </g>
     <g id="text_8">
      <!-- 350 -->
      <g transform="translate(569.006758 365.1136) scale(0.12 -0.12)">
       <use xlink:href="#SimHei-33"/>
       <use xlink:href="#SimHei-35" transform="translate(50 0)"/>
       <use xlink:href="#SimHei-30" transform="translate(100 0)"/>
      </g>
     </g>
    </g>
    <g id="xtick_9">
     <g id="line2d_17">
      <path d="M 649.366977 349.8636 
L 649.366977 34.5036 
" clip-path="url(#p1d5e4f932a)" style="fill: none; stroke-dasharray: 2.22,0.96; stroke-dashoffset: 0; stroke: #b0b0b0; stroke-opacity: 0.25; stroke-width: 0.6"/>
     </g>
     <g id="line2d_18">
      <g>
       <use xlink:href="#m549db94f32" x="649.366977" y="349.8636" style="stroke: #000000; stroke-width: 0.8"/>
      </g>
     </g>
     <g id="text_9">
      <!-- 400 -->
      <g transform="translate(640.366977 365.1136) scale(0.12 -0.12)">
       <defs>
        <path id="SimHei-34" d="M 2000 1100 
L 75 1100 
L 75 1525 
L 2100 4450 
L 2475 4450 
L 2475 1525 
L 3075 1525 
L 3075 1100 
L 2475 1100 
L 2475 150 
L 2000 150 
L 2000 1100 
z
M 2000 1525 
L 2000 3500 
L 600 1525 
L 2000 1525 
z
" transform="scale(0.015625)"/>
       </defs>
       <use xlink:href="#SimHei-34"/>
       <use xlink:href="#SimHei-30" transform="translate(50 0)"/>
       <use xlink:href="#SimHei-30" transform="translate(100 0)"/>
      </g>
     </g>
    </g>
    <g id="text_10">
     <!-- Episode -->
     <g transform="translate(333.4625 382.3011) scale(0.17 -0.17)">
      <defs>
       <path id="SimHei-45" d="M 2900 125 
L 350 125 
L 350 4400 
L 2775 4400 
L 2775 3925 
L 925 3925 
L 925 2600 
L 2625 2600 
L 2625 2125 
L 925 2125 
L 925 600 
L 2900 600 
L 2900 125 
z
" transform="scale(0.015625)"/>
       <path id="SimHei-70" d="M 2825 1525 
Q 2825 800 2475 425 
Q 2125 50 1625 50 
Q 1350 50 1150 162 
Q 950 275 800 500 
L 800 -800 
L 300 -800 
L 300 2925 
L 800 2925 
L 800 2550 
Q 950 2775 1150 2875 
Q 1350 2975 1625 2975 
Q 2125 2975 2475 2612 
Q 2825 2250 2825 1525 
z
M 2275 1525 
Q 2275 2000 2087 2262 
Q 1900 2525 1525 2525 
Q 1225 2525 1012 2262 
Q 800 2000 800 1525 
Q 800 1050 1012 775 
Q 1225 500 1525 500 
Q 1900 500 2087 775 
Q 2275 1050 2275 1525 
z
" transform="scale(0.015625)"/>
       <path id="SimHei-69" d="M 1800 3725 
L 1300 3725 
L 1300 4375 
L 1800 4375 
L 1800 3725 
z
M 1800 125 
L 1300 125 
L 1300 2925 
L 1800 2925 
L 1800 125 
z
" transform="scale(0.015625)"/>
       <path id="SimHei-73" d="M 2750 900 
Q 2750 500 2437 287 
Q 2125 75 1650 75 
Q 1050 75 725 312 
Q 400 550 400 1000 
L 900 1000 
Q 900 700 1112 600 
Q 1325 500 1625 500 
Q 1925 500 2075 612 
Q 2225 725 2225 900 
Q 2225 1025 2100 1150 
Q 1975 1275 1475 1350 
Q 900 1425 687 1637 
Q 475 1850 475 2200 
Q 475 2500 762 2737 
Q 1050 2975 1600 2975 
Q 2100 2975 2387 2750 
Q 2675 2525 2675 2150 
L 2175 2150 
Q 2175 2375 2012 2462 
Q 1850 2550 1600 2550 
Q 1275 2550 1137 2437 
Q 1000 2325 1000 2175 
Q 1000 2000 1125 1900 
Q 1250 1800 1650 1750 
Q 2300 1650 2525 1437 
Q 2750 1225 2750 900 
z
" transform="scale(0.015625)"/>
       <path id="SimHei-6f" d="M 2925 1525 
Q 2925 875 2525 475 
Q 2125 75 1575 75 
Q 1025 75 625 475 
Q 225 875 225 1525 
Q 225 2175 625 2575 
Q 1025 2975 1575 2975 
Q 2125 2975 2525 2575 
Q 2925 2175 2925 1525 
z
M 2375 1525 
Q 2375 2025 2125 2275 
Q 1875 2525 1575 2525 
Q 1275 2525 1025 2275 
Q 775 2025 775 1525 
Q 775 1025 1025 775 
Q 1275 525 1575 525 
Q 1875 525 2125 775 
Q 2375 1025 2375 1525 
z
" transform="scale(0.015625)"/>
       <path id="SimHei-64" d="M 2750 125 
L 2250 125 
L 2250 500 
Q 2100 275 1900 175 
Q 1700 75 1425 75 
Q 925 75 575 437 
Q 225 800 225 1525 
Q 225 2250 575 2625 
Q 925 3000 1425 3000 
Q 1700 3000 1900 2887 
Q 2100 2775 2250 2550 
L 2250 4400 
L 2750 4400 
L 2750 125 
z
M 2250 1525 
Q 2250 2000 2037 2275 
Q 1825 2550 1525 2550 
Q 1150 2550 962 2275 
Q 775 2000 775 1525 
Q 775 1050 962 787 
Q 1150 525 1525 525 
Q 1825 525 2037 787 
Q 2250 1050 2250 1525 
z
" transform="scale(0.015625)"/>
       <path id="SimHei-65" d="M 2850 1075 
Q 2800 625 2450 350 
Q 2100 75 1625 75 
Q 1025 75 637 462 
Q 250 850 250 1525 
Q 250 2200 637 2587 
Q 1025 2975 1625 2975 
Q 2150 2975 2487 2637 
Q 2825 2300 2825 1525 
L 800 1525 
Q 800 975 1037 750 
Q 1275 525 1625 525 
Q 1900 525 2075 662 
Q 2250 800 2300 1075 
L 2850 1075 
z
M 2250 1925 
Q 2200 2275 2025 2412 
Q 1850 2550 1575 2550 
Q 1325 2550 1125 2412 
Q 925 2275 825 1925 
L 2250 1925 
z
" transform="scale(0.015625)"/>
      </defs>
      <use xlink:href="#SimHei-45"/>
      <use xlink:href="#SimHei-70" transform="translate(50 0)"/>
      <use xlink:href="#SimHei-69" transform="translate(100 0)"/>
      <use xlink:href="#SimHei-73" transform="translate(150 0)"/>
      <use xlink:href="#SimHei-6f" transform="translate(200 0)"/>
      <use xlink:href="#SimHei-64" transform="translate(250 0)"/>
      <use xlink:href="#SimHei-65" transform="translate(300 0)"/>
     </g>
    </g>
   </g>
   <g id="matplotlib.axis_2">
    <g id="ytick_1">
     <g id="line2d_19">
      <path d="M 50.0125 316.457751 
L 676.4125 316.457751 
" clip-path="url(#p1d5e4f932a)" style="fill: none; stroke-dasharray: 2.22,0.96; stroke-dashoffset: 0; stroke: #b0b0b0; stroke-opacity: 0.25; stroke-width: 0.6"/>
     </g>
     <g id="line2d_20">
      <defs>
       <path id="m7e3a13252b" d="M 0 0 
L -3.5 0 
" style="stroke: #000000; stroke-width: 0.8"/>
      </defs>
      <g>
       <use xlink:href="#m7e3a13252b" x="50.0125" y="316.457751" style="stroke: #000000; stroke-width: 0.8"/>
      </g>
     </g>
     <g id="text_11">
      <!-- 1.0 -->
      <g transform="translate(25.0125 320.582751) scale(0.12 -0.12)">
       <defs>
        <path id="SimHei-2e" d="M 1075 125 
L 500 125 
L 500 675 
L 1075 675 
L 1075 125 
z
" transform="scale(0.015625)"/>
       </defs>
       <use xlink:href="#SimHei-31"/>
       <use xlink:href="#SimHei-2e" transform="translate(50 0)"/>
       <use xlink:href="#SimHei-30" transform="translate(100 0)"/>
      </g>
     </g>
    </g>
    <g id="ytick_2">
     <g id="line2d_21">
      <path d="M 50.0125 280.381081 
L 676.4125 280.381081 
" clip-path="url(#p1d5e4f932a)" style="fill: none; stroke-dasharray: 2.22,0.96; stroke-dashoffset: 0; stroke: #b0b0b0; stroke-opacity: 0.25; stroke-width: 0.6"/>
     </g>
     <g id="line2d_22">
      <g>
       <use xlink:href="#m7e3a13252b" x="50.0125" y="280.381081" style="stroke: #000000; stroke-width: 0.8"/>
      </g>
     </g>
     <g id="text_12">
      <!-- 1.5 -->
      <g transform="translate(25.0125 284.506081) scale(0.12 -0.12)">
       <use xlink:href="#SimHei-31"/>
       <use xlink:href="#SimHei-2e" transform="translate(50 0)"/>
       <use xlink:href="#SimHei-35" transform="translate(100 0)"/>
      </g>
     </g>
    </g>
    <g id="ytick_3">
     <g id="line2d_23">
      <path d="M 50.0125 244.30441 
L 676.4125 244.30441 
" clip-path="url(#p1d5e4f932a)" style="fill: none; stroke-dasharray: 2.22,0.96; stroke-dashoffset: 0; stroke: #b0b0b0; stroke-opacity: 0.25; stroke-width: 0.6"/>
     </g>
     <g id="line2d_24">
      <g>
       <use xlink:href="#m7e3a13252b" x="50.0125" y="244.30441" style="stroke: #000000; stroke-width: 0.8"/>
      </g>
     </g>
     <g id="text_13">
      <!-- 2.0 -->
      <g transform="translate(25.0125 248.42941) scale(0.12 -0.12)">
       <use xlink:href="#SimHei-32"/>
       <use xlink:href="#SimHei-2e" transform="translate(50 0)"/>
       <use xlink:href="#SimHei-30" transform="translate(100 0)"/>
      </g>
     </g>
    </g>
    <g id="ytick_4">
     <g id="line2d_25">
      <path d="M 50.0125 208.22774 
L 676.4125 208.22774 
" clip-path="url(#p1d5e4f932a)" style="fill: none; stroke-dasharray: 2.22,0.96; stroke-dashoffset: 0; stroke: #b0b0b0; stroke-opacity: 0.25; stroke-width: 0.6"/>
     </g>
     <g id="line2d_26">
      <g>
       <use xlink:href="#m7e3a13252b" x="50.0125" y="208.22774" style="stroke: #000000; stroke-width: 0.8"/>
      </g>
     </g>
     <g id="text_14">
      <!-- 2.5 -->
      <g transform="translate(25.0125 212.35274) scale(0.12 -0.12)">
       <use xlink:href="#SimHei-32"/>
       <use xlink:href="#SimHei-2e" transform="translate(50 0)"/>
       <use xlink:href="#SimHei-35" transform="translate(100 0)"/>
      </g>
     </g>
    </g>
    <g id="ytick_5">
     <g id="line2d_27">
      <path d="M 50.0125 172.151069 
L 676.4125 172.151069 
" clip-path="url(#p1d5e4f932a)" style="fill: none; stroke-dasharray: 2.22,0.96; stroke-dashoffset: 0; stroke: #b0b0b0; stroke-opacity: 0.25; stroke-width: 0.6"/>
     </g>
     <g id="line2d_28">
      <g>
       <use xlink:href="#m7e3a13252b" x="50.0125" y="172.151069" style="stroke: #000000; stroke-width: 0.8"/>
      </g>
     </g>
     <g id="text_15">
      <!-- 3.0 -->
      <g transform="translate(25.0125 176.276069) scale(0.12 -0.12)">
       <use xlink:href="#SimHei-33"/>
       <use xlink:href="#SimHei-2e" transform="translate(50 0)"/>
       <use xlink:href="#SimHei-30" transform="translate(100 0)"/>
      </g>
     </g>
    </g>
    <g id="ytick_6">
     <g id="line2d_29">
      <path d="M 50.0125 136.074399 
L 676.4125 136.074399 
" clip-path="url(#p1d5e4f932a)" style="fill: none; stroke-dasharray: 2.22,0.96; stroke-dashoffset: 0; stroke: #b0b0b0; stroke-opacity: 0.25; stroke-width: 0.6"/>
     </g>
     <g id="line2d_30">
      <g>
       <use xlink:href="#m7e3a13252b" x="50.0125" y="136.074399" style="stroke: #000000; stroke-width: 0.8"/>
      </g>
     </g>
     <g id="text_16">
      <!-- 3.5 -->
      <g transform="translate(25.0125 140.199399) scale(0.12 -0.12)">
       <use xlink:href="#SimHei-33"/>
       <use xlink:href="#SimHei-2e" transform="translate(50 0)"/>
       <use xlink:href="#SimHei-35" transform="translate(100 0)"/>
      </g>
     </g>
    </g>
    <g id="ytick_7">
     <g id="line2d_31">
      <path d="M 50.0125 99.997728 
L 676.4125 99.997728 
" clip-path="url(#p1d5e4f932a)" style="fill: none; stroke-dasharray: 2.22,0.96; stroke-dashoffset: 0; stroke: #b0b0b0; stroke-opacity: 0.25; stroke-width: 0.6"/>
     </g>
     <g id="line2d_32">
      <g>
       <use xlink:href="#m7e3a13252b" x="50.0125" y="99.997728" style="stroke: #000000; stroke-width: 0.8"/>
      </g>
     </g>
     <g id="text_17">
      <!-- 4.0 -->
      <g transform="translate(25.0125 104.122728) scale(0.12 -0.12)">
       <use xlink:href="#SimHei-34"/>
       <use xlink:href="#SimHei-2e" transform="translate(50 0)"/>
       <use xlink:href="#SimHei-30" transform="translate(100 0)"/>
      </g>
     </g>
    </g>
    <g id="ytick_8">
     <g id="line2d_33">
      <path d="M 50.0125 63.921058 
L 676.4125 63.921058 
" clip-path="url(#p1d5e4f932a)" style="fill: none; stroke-dasharray: 2.22,0.96; stroke-dashoffset: 0; stroke: #b0b0b0; stroke-opacity: 0.25; stroke-width: 0.6"/>
     </g>
     <g id="line2d_34">
      <g>
       <use xlink:href="#m7e3a13252b" x="50.0125" y="63.921058" style="stroke: #000000; stroke-width: 0.8"/>
      </g>
     </g>
     <g id="text_18">
      <!-- 4.5 -->
      <g transform="translate(25.0125 68.046058) scale(0.12 -0.12)">
       <use xlink:href="#SimHei-34"/>
       <use xlink:href="#SimHei-2e" transform="translate(50 0)"/>
       <use xlink:href="#SimHei-35" transform="translate(100 0)"/>
      </g>
     </g>
    </g>
    <g id="text_19">
     <!-- Total Task Energy -->
     <g transform="translate(18.8875 264.4336) rotate(-90) scale(0.17 -0.17)">
      <defs>
       <path id="SimHei-54" d="M 2850 3925 
L 1850 3925 
L 1850 125 
L 1275 125 
L 1275 3925 
L 275 3925 
L 275 4400 
L 2850 4400 
L 2850 3925 
z
" transform="scale(0.015625)"/>
       <path id="SimHei-74" d="M 2750 200 
Q 2625 150 2462 112 
Q 2300 75 2025 75 
Q 1575 75 1300 325 
Q 1025 575 1025 1025 
L 1025 2525 
L 175 2525 
L 175 2925 
L 1025 2925 
L 1025 3900 
L 1525 3900 
L 1525 2925 
L 2550 2925 
L 2550 2525 
L 1525 2525 
L 1525 1000 
Q 1525 800 1625 662 
Q 1725 525 2000 525 
Q 2275 525 2450 575 
Q 2625 625 2750 700 
L 2750 200 
z
" transform="scale(0.015625)"/>
       <path id="SimHei-61" d="M 2875 125 
L 2275 125 
Q 2225 175 2200 262 
Q 2175 350 2175 475 
Q 2000 275 1750 175 
Q 1500 75 1225 75 
Q 825 75 550 275 
Q 275 475 275 850 
Q 275 1225 525 1450 
Q 775 1675 1300 1750 
Q 1650 1800 1912 1875 
Q 2175 1950 2175 2075 
Q 2175 2225 2062 2375 
Q 1950 2525 1575 2525 
Q 1275 2525 1137 2412 
Q 1000 2300 950 2100 
L 400 2100 
Q 450 2500 762 2737 
Q 1075 2975 1575 2975 
Q 2125 2975 2400 2725 
Q 2675 2475 2675 2025 
L 2675 650 
Q 2675 500 2725 375 
Q 2775 250 2875 125 
z
M 2175 1050 
L 2175 1550 
Q 2025 1500 1887 1462 
Q 1750 1425 1425 1375 
Q 1050 1325 937 1200 
Q 825 1075 825 900 
Q 825 750 937 637 
Q 1050 525 1275 525 
Q 1500 525 1762 650 
Q 2025 775 2175 1050 
z
" transform="scale(0.015625)"/>
       <path id="SimHei-6c" d="M 1825 125 
L 1325 125 
L 1325 4400 
L 1825 4400 
L 1825 125 
z
" transform="scale(0.015625)"/>
       <path id="SimHei-20" transform="scale(0.015625)"/>
       <path id="SimHei-6b" d="M 2925 125 
L 2350 125 
L 1450 1650 
L 875 1100 
L 875 125 
L 375 125 
L 375 4400 
L 875 4400 
L 875 1675 
L 2125 2925 
L 2750 2925 
L 1775 1975 
L 2925 125 
z
" transform="scale(0.015625)"/>
       <path id="SimHei-6e" d="M 2800 125 
L 2300 125 
L 2300 1925 
Q 2300 2225 2150 2400 
Q 2000 2575 1750 2575 
Q 1425 2575 1137 2237 
Q 850 1900 850 1400 
L 850 125 
L 350 125 
L 350 2925 
L 850 2925 
L 850 2400 
Q 1050 2675 1287 2825 
Q 1525 2975 1900 2975 
Q 2350 2975 2575 2725 
Q 2800 2475 2800 2100 
L 2800 125 
z
" transform="scale(0.015625)"/>
       <path id="SimHei-72" d="M 2500 2425 
Q 2025 2500 1700 2287 
Q 1375 2075 1150 1550 
L 1150 125 
L 650 125 
L 650 2925 
L 1150 2925 
L 1150 2200 
Q 1375 2600 1712 2787 
Q 2050 2975 2500 2975 
L 2500 2425 
z
" transform="scale(0.015625)"/>
       <path id="SimHei-67" d="M 2975 2500 
Q 2800 2550 2637 2562 
Q 2475 2575 2300 2525 
Q 2375 2450 2425 2337 
Q 2475 2225 2475 2000 
Q 2475 1575 2187 1300 
Q 1900 1025 1475 1025 
Q 1375 1025 1212 1062 
Q 1050 1100 950 1150 
Q 875 1100 850 1050 
Q 825 1000 825 925 
Q 825 800 1000 737 
Q 1175 675 1625 675 
Q 2350 675 2612 475 
Q 2875 275 2875 -25 
Q 2875 -425 2487 -612 
Q 2100 -800 1575 -800 
Q 900 -800 575 -625 
Q 250 -450 250 -150 
Q 250 0 375 150 
Q 500 300 700 400 
Q 550 475 462 587 
Q 375 700 375 875 
Q 375 1025 487 1137 
Q 600 1250 750 1325 
Q 625 1450 550 1625 
Q 475 1800 475 2000 
Q 475 2425 762 2700 
Q 1050 2975 1475 2975 
Q 1700 2975 1862 2912 
Q 2025 2850 2150 2725 
Q 2350 2875 2550 2937 
Q 2750 3000 2975 2975 
L 2975 2500 
z
M 1975 2000 
Q 1975 2250 1850 2400 
Q 1725 2550 1475 2550 
Q 1225 2550 1100 2400 
Q 975 2250 975 2000 
Q 975 1750 1100 1600 
Q 1225 1450 1475 1450 
Q 1725 1450 1850 1600 
Q 1975 1750 1975 2000 
z
M 2400 -75 
Q 2400 25 2287 125 
Q 2175 225 1725 225 
Q 1625 225 1450 237 
Q 1275 250 1050 275 
Q 850 200 775 100 
Q 700 0 700 -100 
Q 700 -250 900 -350 
Q 1100 -450 1600 -450 
Q 2025 -450 2212 -337 
Q 2400 -225 2400 -75 
z
" transform="scale(0.015625)"/>
       <path id="SimHei-79" d="M 2900 2925 
L 1750 -100 
Q 1650 -450 1450 -625 
Q 1250 -800 950 -800 
Q 825 -800 712 -787 
Q 600 -775 500 -725 
L 500 -225 
Q 600 -275 700 -300 
Q 800 -325 875 -325 
Q 1075 -325 1150 -262 
Q 1225 -200 1300 25 
L 200 2925 
L 750 2925 
L 1550 725 
L 1575 725 
L 2350 2925 
L 2900 2925 
z
" transform="scale(0.015625)"/>
      </defs>
      <use xlink:href="#SimHei-54"/>
      <use xlink:href="#SimHei-6f" transform="translate(50 0)"/>
      <use xlink:href="#SimHei-74" transform="translate(100 0)"/>
      <use xlink:href="#SimHei-61" transform="translate(150 0)"/>
      <use xlink:href="#SimHei-6c" transform="translate(200 0)"/>
      <use xlink:href="#SimHei-20" transform="translate(250 0)"/>
      <use xlink:href="#SimHei-54" transform="translate(300 0)"/>
      <use xlink:href="#SimHei-61" transform="translate(350 0)"/>
      <use xlink:href="#SimHei-73" transform="translate(400 0)"/>
      <use xlink:href="#SimHei-6b" transform="translate(450 0)"/>
      <use xlink:href="#SimHei-20" transform="translate(500 0)"/>
      <use xlink:href="#SimHei-45" transform="translate(550 0)"/>
      <use xlink:href="#SimHei-6e" transform="translate(600 0)"/>
      <use xlink:href="#SimHei-65" transform="translate(650 0)"/>
      <use xlink:href="#SimHei-72" transform="translate(700 0)"/>
      <use xlink:href="#SimHei-67" transform="translate(750 0)"/>
      <use xlink:href="#SimHei-79" transform="translate(800 0)"/>
     </g>
    </g>
   </g>
   <g id="line2d_35">
    <path d="M 78.485227 48.838145 
L 79.912432 52.425817 
L 81.339636 50.09787 
L 82.76684 60.489718 
L 84.194045 72.98336 
L 85.621249 79.317154 
L 87.048454 82.292754 
L 88.475658 76.340012 
L 89.902862 68.189619 
L 91.330067 59.030569 
L 92.757271 59.36463 
L 95.61168 74.905473 
L 97.038884 75.581281 
L 98.466089 78.073826 
L 99.893293 82.046303 
L 101.320497 76.860786 
L 102.747702 66.942932 
L 104.174906 70.849338 
L 107.029315 82.072813 
L 108.456519 81.509404 
L 109.883724 68.293691 
L 111.310928 73.073355 
L 112.738132 73.993951 
L 114.165337 73.244757 
L 115.592541 67.759022 
L 117.019745 69.370427 
L 118.44695 65.481239 
L 119.874154 65.099406 
L 121.301359 65.813292 
L 122.728563 57.673079 
L 124.155767 56.095207 
L 125.582972 55.978364 
L 127.010176 62.868563 
L 128.43738 73.000099 
L 129.864585 62.279768 
L 131.291789 69.987158 
L 134.146198 96.064435 
L 137.000607 119.455672 
L 139.855015 140.130856 
L 141.28222 149.900509 
L 145.563833 176.030524 
L 146.991037 184.089811 
L 151.27265 205.805455 
L 154.127059 218.447618 
L 158.408672 234.959536 
L 159.835877 239.294215 
L 161.263081 244.297919 
L 165.544694 257.213664 
L 168.399103 264.202047 
L 171.253512 271.13534 
L 174.10792 277.387437 
L 175.535125 279.857706 
L 178.389533 285.371855 
L 182.671147 292.451222 
L 185.525555 296.776222 
L 191.234373 304.236441 
L 195.515986 308.81888 
L 198.370395 311.11225 
L 199.797599 312.651665 
L 201.224803 313.918998 
L 202.652008 314.748122 
L 204.079212 315.921366 
L 206.933621 317.845303 
L 208.360825 318.900684 
L 211.215234 320.467873 
L 212.642438 321.049388 
L 215.496847 322.558264 
L 216.924052 323.193249 
L 218.351256 323.687522 
L 219.77846 323.89164 
L 222.632869 325.076656 
L 226.914482 326.423467 
L 228.341687 326.922438 
L 229.768891 327.22507 
L 231.196095 327.397549 
L 232.6233 327.893463 
L 235.477708 328.272803 
L 236.904913 327.594581 
L 239.759322 328.415505 
L 241.186526 328.627109 
L 244.040935 329.547432 
L 245.468139 329.677953 
L 248.322548 330.391493 
L 249.749752 330.367894 
L 251.176957 330.58812 
L 252.604161 330.552123 
L 254.031365 330.770698 
L 258.312978 330.892521 
L 264.021796 331.926052 
L 265.449 331.700251 
L 266.876205 330.134963 
L 271.157818 330.496945 
L 274.012227 331.023537 
L 275.439431 331.089167 
L 276.866635 331.433081 
L 279.721044 331.936196 
L 281.148248 331.870218 
L 282.575453 332.029327 
L 284.002657 329.635925 
L 285.429862 329.990852 
L 286.857066 330.116392 
L 288.28427 330.394208 
L 289.711475 330.435839 
L 291.138679 330.658559 
L 292.565883 331.020868 
L 295.420292 331.061725 
L 296.847497 331.415125 
L 298.274701 331.619401 
L 301.12911 332.18844 
L 303.983518 332.497905 
L 305.410723 332.816206 
L 306.837927 332.649566 
L 308.265132 332.770037 
L 311.11954 332.701567 
L 313.973949 333.270153 
L 315.401153 333.297652 
L 316.828358 333.660177 
L 318.255562 333.742392 
L 321.109971 333.594089 
L 323.96438 332.910688 
L 325.391584 332.691763 
L 326.818788 332.703176 
L 328.245993 332.865626 
L 329.673197 333.195188 
L 331.100402 333.260585 
L 332.527606 332.977858 
L 335.382015 332.969691 
L 338.236423 333.189049 
L 339.663628 333.065841 
L 345.372445 333.675196 
L 355.362876 334.33923 
L 358.217285 334.246535 
L 359.644489 334.094999 
L 362.498898 334.488918 
L 363.926102 334.260303 
L 366.780511 334.463461 
L 368.207715 334.437837 
L 369.63492 334.256255 
L 371.062124 333.853157 
L 372.489328 333.879192 
L 373.916533 333.620036 
L 376.770942 333.644252 
L 378.198146 332.171179 
L 379.62535 332.148611 
L 381.052555 332.484673 
L 382.479759 332.670649 
L 383.906963 333.009715 
L 385.334168 333.09679 
L 386.761372 333.322419 
L 388.188577 333.344671 
L 391.042985 333.673984 
L 392.47019 333.61228 
L 393.897394 333.672366 
L 395.324598 333.405427 
L 396.751803 333.400522 
L 398.179007 333.641775 
L 399.606212 333.442311 
L 401.033416 331.421202 
L 405.315029 332.256581 
L 406.742233 332.477834 
L 408.169438 332.508485 
L 411.023847 332.981162 
L 412.451051 332.938908 
L 413.878255 333.225763 
L 415.30546 333.258208 
L 416.732664 333.169899 
L 418.159868 333.237575 
L 423.868686 333.970707 
L 426.723095 334.11854 
L 428.150299 334.309249 
L 429.577503 334.37089 
L 431.004708 334.631045 
L 432.431912 334.244518 
L 433.859117 334.434893 
L 436.713525 334.482195 
L 438.14073 334.456269 
L 439.567934 334.794485 
L 440.995138 334.735324 
L 442.422343 334.805995 
L 443.849547 334.567726 
L 446.703956 334.585623 
L 448.13116 334.491097 
L 449.558365 334.636557 
L 450.985569 334.546838 
L 453.839978 335.016816 
L 456.694387 334.781668 
L 458.121591 334.942519 
L 460.976 334.638818 
L 462.403204 334.616546 
L 463.830408 334.407186 
L 466.684817 333.638679 
L 469.539226 334.041029 
L 470.96643 334.017972 
L 472.393635 334.181222 
L 475.248043 334.197637 
L 476.675248 334.267897 
L 478.102452 334.039158 
L 479.529657 334.230474 
L 480.956861 333.899021 
L 482.384065 333.790699 
L 483.81127 333.89062 
L 485.238474 334.103997 
L 486.665678 332.830441 
L 488.092883 332.947461 
L 489.520087 333.209016 
L 490.947292 333.076715 
L 492.374496 333.486771 
L 493.8017 333.329893 
L 499.510518 333.585284 
L 500.937722 333.813983 
L 502.364927 333.77577 
L 503.792131 333.907286 
L 505.219335 333.743815 
L 506.64654 333.919401 
L 512.355357 334.037979 
L 513.782562 334.268201 
L 515.209766 334.100011 
L 518.064175 334.372113 
L 519.491379 334.35598 
L 520.918583 334.518218 
L 522.345788 334.811826 
L 525.200197 335.147935 
L 528.054605 335.270095 
L 529.48181 333.50128 
L 530.909014 333.545679 
L 533.763423 334.049663 
L 535.190627 333.847964 
L 538.045036 333.871628 
L 539.47224 334.109994 
L 540.899445 334.474416 
L 542.326649 334.12621 
L 543.753853 333.971809 
L 545.181058 334.093444 
L 548.035467 333.680477 
L 550.889875 333.917765 
L 553.744284 333.731188 
L 555.171488 333.996701 
L 556.598693 333.94464 
L 558.025897 334.168429 
L 559.453102 334.180471 
L 560.880306 334.054903 
L 563.734715 334.255078 
L 565.161919 334.223939 
L 566.589123 334.313404 
L 568.016328 333.571094 
L 569.443532 331.572026 
L 570.870737 331.774292 
L 572.297941 332.099163 
L 573.725145 332.13665 
L 575.15235 330.149449 
L 578.006758 330.319598 
L 579.433963 330.930399 
L 580.861167 330.996523 
L 582.288371 330.780253 
L 583.715576 331.11758 
L 585.14278 331.33787 
L 586.569985 331.775319 
L 590.851598 332.182798 
L 592.278802 332.09804 
L 593.706006 332.214131 
L 595.133211 332.455501 
L 596.560415 332.552486 
L 597.98762 332.879298 
L 599.414824 332.846797 
L 600.842028 332.313018 
L 603.696437 332.813149 
L 606.550846 333.047109 
L 607.97805 333.302714 
L 612.259663 333.545763 
L 615.114072 333.515509 
L 616.541276 333.694414 
L 617.968481 331.698103 
L 619.395685 332.132667 
L 620.82289 332.141236 
L 623.677298 332.848425 
L 625.104503 332.997423 
L 626.531707 333.024467 
L 627.958911 332.837168 
L 629.386116 333.052942 
L 636.522138 333.28368 
L 637.949342 332.915835 
L 639.376546 333.064546 
L 640.803751 333.342401 
L 645.085364 333.746488 
L 647.939773 333.665043 
L 647.939773 333.665043 
" clip-path="url(#p1d5e4f932a)" style="fill: none; stroke: #1f77b4; stroke-width: 1.2; stroke-linecap: square"/>
   </g>
   <g id="line2d_36">
    <path d="M 78.485227 218.137367 
L 79.912432 218.939617 
L 81.339636 218.207638 
L 82.76684 221.985053 
L 84.194045 217.537721 
L 85.621249 210.089195 
L 87.048454 214.35838 
L 89.902862 208.592341 
L 92.757271 195.663642 
L 94.184475 184.544983 
L 95.61168 187.649717 
L 97.038884 178.559698 
L 98.466089 176.154047 
L 99.893293 169.311835 
L 101.320497 159.52693 
L 102.747702 155.183923 
L 104.174906 151.807988 
L 105.60211 151.284802 
L 107.029315 149.510994 
L 108.456519 140.546058 
L 109.883724 145.180709 
L 111.310928 145.97572 
L 112.738132 141.961115 
L 114.165337 124.166421 
L 115.592541 122.648027 
L 117.019745 114.392921 
L 118.44695 112.463988 
L 119.874154 98.234232 
L 121.301359 105.536241 
L 122.728563 98.691278 
L 124.155767 95.704362 
L 125.582972 94.462939 
L 127.010176 99.465406 
L 128.43738 93.952223 
L 129.864585 83.516052 
L 131.291789 87.23138 
L 132.718994 83.678706 
L 134.146198 88.172243 
L 137.000607 111.747582 
L 138.427811 122.944947 
L 141.28222 143.120916 
L 144.136629 162.037506 
L 146.991037 179.03695 
L 149.845446 194.333576 
L 151.27265 201.23377 
L 155.554263 220.054057 
L 159.835877 236.24079 
L 164.11749 250.294127 
L 165.544694 254.627624 
L 166.971898 258.584674 
L 169.826307 265.668077 
L 172.680716 272.061871 
L 178.389533 283.750881 
L 181.243942 288.638753 
L 182.671147 290.710798 
L 184.098351 292.987099 
L 186.95276 297.131975 
L 188.379964 299.243853 
L 189.807168 300.999795 
L 191.234373 302.389434 
L 192.661577 304.107579 
L 194.088782 305.365664 
L 196.94319 308.584981 
L 198.370395 309.993261 
L 201.224803 311.893217 
L 202.652008 313.309009 
L 206.933621 316.613121 
L 208.360825 317.348953 
L 212.642438 319.953991 
L 214.069643 320.848609 
L 215.496847 321.404276 
L 216.924052 321.611959 
L 218.351256 321.940258 
L 221.205665 323.378949 
L 222.632869 323.463059 
L 225.487278 324.770023 
L 226.914482 325.144458 
L 228.341687 325.663291 
L 229.768891 325.808363 
L 232.6233 326.461699 
L 235.477708 327.398359 
L 236.904913 327.628817 
L 239.759322 328.561762 
L 241.186526 326.965163 
L 242.61373 327.602547 
L 244.040935 327.638076 
L 245.468139 327.91809 
L 248.322548 328.118614 
L 252.604161 329.289732 
L 254.031365 326.407799 
L 255.45857 326.773698 
L 258.312978 327.853654 
L 259.740183 325.732517 
L 264.021796 326.98408 
L 265.449 327.172382 
L 266.876205 326.377748 
L 269.730613 327.400205 
L 272.585022 328.340984 
L 278.29384 329.697233 
L 279.721044 329.431785 
L 281.148248 329.815203 
L 282.575453 329.981064 
L 292.565883 332.069835 
L 302.556314 332.998543 
L 303.983518 333.219665 
L 312.546745 333.453944 
L 313.973949 333.614035 
L 315.401153 333.436385 
L 316.828358 333.534539 
L 318.255562 328.433161 
L 319.682767 328.827183 
L 321.109971 328.767652 
L 322.537175 328.955658 
L 323.96438 329.342541 
L 326.818788 329.798125 
L 328.245993 329.79441 
L 332.527606 330.788318 
L 333.95481 330.932129 
L 335.382015 331.225158 
L 336.809219 331.19769 
L 338.236423 331.619253 
L 342.518037 332.000352 
L 343.945241 332.380857 
L 349.654058 332.852838 
L 353.935672 333.245571 
L 355.362876 333.059628 
L 356.79008 333.302477 
L 358.217285 333.217176 
L 359.644489 333.535283 
L 362.498898 333.389391 
L 363.926102 333.713133 
L 365.353307 333.712987 
L 366.780511 333.897432 
L 368.207715 333.731572 
L 369.63492 333.405187 
L 371.062124 333.305273 
L 372.489328 333.44995 
L 373.916533 333.417661 
L 375.343737 333.592754 
L 376.770942 333.56066 
L 378.198146 333.861465 
L 379.62535 333.882697 
L 382.479759 334.095095 
L 383.906963 334.212491 
L 385.334168 334.025749 
L 386.761372 334.051696 
L 388.188577 334.248928 
L 389.615781 334.271948 
L 391.042985 334.407073 
L 393.897394 334.247751 
L 395.324598 334.119191 
L 396.751803 334.138213 
L 398.179007 334.400762 
L 399.606212 334.518104 
L 401.033416 325.899173 
L 402.46062 326.484969 
L 403.887825 323.457839 
L 411.023847 326.118308 
L 412.451051 326.372111 
L 413.878255 327.084252 
L 415.30546 327.390547 
L 418.159868 327.619347 
L 419.587073 327.675954 
L 421.014277 328.066008 
L 425.29589 329.594723 
L 426.723095 327.180504 
L 428.150299 327.568301 
L 429.577503 327.661161 
L 431.004708 328.24421 
L 432.431912 328.587039 
L 433.859117 328.778597 
L 435.286321 329.306881 
L 436.713525 324.671093 
L 438.14073 325.381644 
L 440.995138 326.36862 
L 443.849547 326.939223 
L 445.276752 327.659676 
L 448.13116 327.9905 
L 452.412773 329.2597 
L 453.839978 329.44714 
L 455.267182 329.946539 
L 456.694387 330.3046 
L 458.121591 330.347334 
L 460.976 330.707458 
L 462.403204 330.583299 
L 465.257613 330.874258 
L 466.684817 328.305311 
L 468.112022 328.526375 
L 469.539226 328.95657 
L 470.96643 329.071411 
L 476.675248 330.515397 
L 479.529657 330.96492 
L 480.956861 331.264463 
L 482.384065 331.304779 
L 490.947292 332.33312 
L 492.374496 332.302199 
L 493.8017 330.240223 
L 495.228905 330.33783 
L 496.656109 330.869072 
L 498.083313 331.11374 
L 500.937722 331.355993 
L 502.364927 331.673119 
L 503.792131 332.105011 
L 505.219335 332.059281 
L 506.64654 332.287178 
L 509.500948 332.498513 
L 510.928153 332.680372 
L 512.355357 332.68455 
L 513.782562 332.851107 
L 515.209766 332.355065 
L 516.63697 332.774838 
L 520.918583 333.21808 
L 522.345788 333.237246 
L 523.772992 333.510317 
L 525.200197 333.179819 
L 526.627401 333.457822 
L 529.48181 333.418766 
L 530.909014 333.41029 
L 532.336218 333.587261 
L 533.763423 333.419335 
L 535.190627 333.386095 
L 538.045036 333.893254 
L 539.47224 333.64053 
L 540.899445 333.891423 
L 545.181058 334.293275 
L 549.462671 333.849482 
L 550.889875 333.80503 
L 553.744284 334.086128 
L 555.171488 334.127197 
L 556.598693 333.93689 
L 560.880306 333.733989 
L 562.30751 334.126935 
L 566.589123 333.917576 
L 568.016328 333.989848 
L 569.443532 333.908108 
L 570.870737 334.278114 
L 572.297941 334.081064 
L 575.15235 334.217898 
L 578.006758 333.981069 
L 579.433963 333.866927 
L 580.861167 333.5699 
L 582.288371 333.549496 
L 585.14278 333.932357 
L 587.997189 334.167592 
L 590.851598 333.68545 
L 593.706006 333.879891 
L 596.560415 334.091563 
L 597.98762 333.971258 
L 599.414824 334.054685 
L 600.842028 331.304686 
L 603.696437 331.797258 
L 606.550846 331.951227 
L 609.405255 332.447945 
L 610.832459 332.702353 
L 613.686868 332.643366 
L 615.114072 330.95716 
L 616.541276 331.088692 
L 617.968481 330.999183 
L 622.250094 331.743783 
L 625.104503 332.313671 
L 626.531707 332.786743 
L 627.958911 332.986361 
L 629.386116 332.862837 
L 632.240525 333.484652 
L 633.667729 333.440776 
L 636.522138 333.65031 
L 637.949342 334.026016 
L 642.230955 334.173169 
L 643.65816 333.947994 
L 646.512568 334.090683 
L 646.512568 334.090683 
" clip-path="url(#p1d5e4f932a)" style="fill: none; stroke: #ff7f0e; stroke-width: 1.2; stroke-linecap: square"/>
   </g>
   <g id="line2d_37">
    <path d="M 78.485227 289.214338 
L 79.912432 279.900141 
L 81.339636 279.900682 
L 82.76684 272.632109 
L 84.194045 272.2679 
L 85.621249 272.681459 
L 87.048454 266.542429 
L 88.475658 268.940647 
L 89.902862 270.289982 
L 91.330067 272.981414 
L 92.757271 275.393497 
L 95.61168 261.73778 
L 97.038884 265.477393 
L 98.466089 263.150505 
L 99.893293 263.602027 
L 101.320497 267.101386 
L 102.747702 270.214313 
L 104.174906 270.467655 
L 105.60211 272.103827 
L 109.883724 281.189072 
L 114.165337 288.764257 
L 115.592541 290.920884 
L 125.582972 304.030046 
L 127.010176 305.643563 
L 129.864585 308.443631 
L 131.291789 309.892532 
L 134.146198 312.083452 
L 137.000607 314.120155 
L 138.427811 306.015754 
L 139.855015 307.259044 
L 141.28222 308.932724 
L 145.563833 312.587096 
L 146.991037 313.385002 
L 149.845446 315.578755 
L 151.27265 316.211761 
L 152.699855 317.040848 
L 154.127059 317.563223 
L 159.835877 320.76987 
L 162.690285 322.380556 
L 164.11749 320.239077 
L 166.971898 321.741935 
L 168.399103 322.287206 
L 171.253512 323.71001 
L 172.680716 324.018839 
L 174.10792 324.763629 
L 179.816738 326.757492 
L 181.243942 327.094107 
L 182.671147 327.295981 
L 184.098351 327.845601 
L 185.525555 328.252824 
L 188.379964 328.565715 
L 192.661577 329.911216 
L 194.088782 325.827316 
L 196.94319 326.81209 
L 198.370395 327.005543 
L 204.079212 328.610391 
L 205.506417 328.748764 
L 206.933621 328.712225 
L 208.360825 328.935795 
L 209.78803 329.305511 
L 212.642438 329.402337 
L 215.496847 329.627277 
L 216.924052 329.97765 
L 218.351256 330.010617 
L 219.77846 330.462931 
L 222.632869 330.971525 
L 224.060073 329.626252 
L 225.487278 329.557456 
L 226.914482 330.090343 
L 228.341687 328.750593 
L 229.768891 329.176817 
L 232.6233 329.599072 
L 234.050504 329.835836 
L 235.477708 330.365005 
L 238.332117 330.52642 
L 242.61373 330.838613 
L 244.040935 331.183259 
L 245.468139 331.22146 
L 249.749752 331.974476 
L 252.604161 332.011647 
L 254.031365 332.278823 
L 255.45857 332.293574 
L 256.885774 332.554861 
L 258.312978 332.532708 
L 259.740183 332.725985 
L 261.167387 333.157512 
L 262.594592 333.282556 
L 265.449 333.08162 
L 266.876205 333.399172 
L 269.730613 333.715897 
L 271.157818 333.982668 
L 272.585022 334.026959 
L 275.439431 334.477827 
L 276.866635 334.479623 
L 278.29384 330.51374 
L 279.721044 330.582853 
L 282.575453 331.21517 
L 285.429862 331.831322 
L 286.857066 331.979904 
L 288.28427 331.685469 
L 291.138679 331.822007 
L 292.565883 331.950201 
L 293.993088 332.268216 
L 295.420292 332.278643 
L 296.847497 332.169531 
L 298.274701 332.412023 
L 301.12911 332.394447 
L 302.556314 332.68369 
L 308.265132 333.091519 
L 309.692336 330.673205 
L 312.546745 331.281612 
L 313.973949 331.64995 
L 316.828358 331.851177 
L 318.255562 332.107176 
L 319.682767 331.998451 
L 321.109971 332.089868 
L 322.537175 330.097278 
L 329.673197 331.615191 
L 332.527606 332.083958 
L 335.382015 332.664931 
L 338.236423 333.102674 
L 343.945241 333.479551 
L 345.372445 333.592991 
L 348.226854 333.432747 
L 349.654058 333.302824 
L 351.081263 333.369246 
L 356.79008 334.178084 
L 359.644489 334.427383 
L 365.353307 334.144298 
L 366.780511 334.327062 
L 368.207715 334.246707 
L 369.63492 334.436308 
L 372.489328 334.17557 
L 375.343737 334.32447 
L 376.770942 334.461131 
L 378.198146 334.484598 
L 379.62535 334.81817 
L 381.052555 334.908238 
L 383.906963 334.618863 
L 389.615781 334.89763 
L 391.042985 334.971732 
L 392.47019 334.911687 
L 395.324598 334.416055 
L 396.751803 334.60169 
L 398.179007 334.479784 
L 399.606212 332.831973 
L 402.46062 333.38551 
L 403.887825 333.361791 
L 405.315029 333.546384 
L 408.169438 333.391281 
L 409.596642 333.502722 
L 411.023847 332.974424 
L 412.451051 333.19604 
L 413.878255 333.1674 
L 415.30546 333.368086 
L 416.732664 333.326404 
L 419.587073 333.84266 
L 422.441482 334.019719 
L 425.29589 333.855402 
L 426.723095 333.727059 
L 428.150299 333.727481 
L 429.577503 333.99961 
L 432.431912 333.885092 
L 433.859117 330.167936 
L 435.286321 330.093083 
L 436.713525 330.353476 
L 438.14073 330.440837 
L 439.567934 330.864385 
L 440.995138 331.025891 
L 442.422343 331.009287 
L 446.703956 331.641513 
L 448.13116 330.462783 
L 449.558365 330.482112 
L 450.985569 330.700285 
L 452.412773 330.780049 
L 453.839978 330.415096 
L 456.694387 331.293013 
L 460.976 331.715933 
L 462.403204 331.695364 
L 463.830408 331.870364 
L 465.257613 331.736475 
L 466.684817 331.783189 
L 468.112022 332.113923 
L 469.539226 332.236496 
L 472.393635 332.875711 
L 476.675248 332.831401 
L 478.102452 333.062794 
L 479.529657 328.819555 
L 480.956861 329.25434 
L 485.238474 330.066566 
L 486.665678 330.41387 
L 489.520087 330.564445 
L 492.374496 331.204904 
L 493.8017 331.040955 
L 495.228905 331.068124 
L 500.937722 331.869404 
L 502.364927 331.776909 
L 503.792131 331.827402 
L 505.219335 331.475923 
L 506.64654 331.658705 
L 508.073744 331.683566 
L 509.500948 331.959751 
L 512.355357 332.097895 
L 516.63697 332.708143 
L 519.491379 332.651234 
L 522.345788 332.80801 
L 526.627401 333.405823 
L 528.054605 333.351962 
L 529.48181 333.531892 
L 530.909014 333.446563 
L 532.336218 333.627776 
L 533.763423 333.268391 
L 535.190627 333.688934 
L 538.045036 333.978418 
L 539.47224 333.807537 
L 540.899445 334.050775 
L 542.326649 333.646372 
L 546.608262 333.599307 
L 548.035467 333.747172 
L 549.462671 333.684734 
L 550.889875 334.07059 
L 555.171488 334.138723 
L 556.598693 333.85357 
L 559.453102 334.189151 
L 560.880306 334.07633 
L 562.30751 333.66952 
L 563.734715 333.805228 
L 565.161919 334.112158 
L 566.589123 334.269475 
L 569.443532 334.15105 
L 570.870737 333.977992 
L 572.297941 333.989644 
L 573.725145 334.124312 
L 575.15235 334.101585 
L 576.579554 334.263848 
L 578.006758 334.248244 
L 579.433963 334.372813 
L 580.861167 334.358984 
L 582.288371 334.693619 
L 585.14278 334.756458 
L 586.569985 334.683758 
L 589.424393 334.856353 
L 590.851598 334.92084 
L 592.278802 334.837389 
L 597.98762 335.155914 
L 602.269233 335.207174 
L 603.696437 335.428881 
L 605.123641 335.38675 
L 606.550846 335.529055 
L 610.832459 334.924469 
L 612.259663 334.86601 
L 613.686868 334.954563 
L 615.114072 334.736948 
L 622.250094 334.608359 
L 625.104503 335.026504 
L 627.958911 334.974892 
L 629.386116 334.652191 
L 630.81332 334.445652 
L 633.667729 334.734317 
L 635.094933 335.010963 
L 636.522138 334.962526 
L 637.949342 334.586455 
L 640.803751 334.598974 
L 642.230955 334.716556 
L 643.65816 334.661269 
L 646.512568 334.882679 
L 646.512568 334.882679 
" clip-path="url(#p1d5e4f932a)" style="fill: none; stroke: #2ca02c; stroke-width: 1.2; stroke-linecap: square"/>
   </g>
   <g id="line2d_38">
    <path d="M 78.485227 289.214338 
L 79.912432 279.562917 
L 81.339636 268.896322 
L 82.76684 262.265843 
L 84.194045 258.31248 
L 85.621249 261.494304 
L 87.048454 264.244387 
L 88.475658 263.951354 
L 89.902862 265.76717 
L 91.330067 268.769683 
L 92.757271 268.943672 
L 95.61168 275.582348 
L 98.466089 281.517793 
L 101.320497 286.530075 
L 104.174906 291.283266 
L 107.029315 295.751121 
L 111.310928 301.491672 
L 112.738132 302.687502 
L 114.165337 302.380327 
L 115.592541 304.11487 
L 118.44695 307.186598 
L 119.874154 308.448024 
L 121.301359 309.890607 
L 122.728563 311.103992 
L 125.582972 313.830028 
L 127.010176 314.970486 
L 128.43738 315.925362 
L 129.864585 314.19115 
L 131.291789 315.428012 
L 138.427811 319.310375 
L 139.855015 319.984067 
L 142.709424 320.922892 
L 144.136629 321.68717 
L 146.991037 322.831959 
L 148.418242 322.877882 
L 149.845446 323.576838 
L 152.699855 324.453528 
L 154.127059 325.049995 
L 155.554263 325.523641 
L 156.981468 325.762339 
L 158.408672 326.395414 
L 159.835877 326.675465 
L 161.263081 327.31944 
L 162.690285 327.626722 
L 165.544694 328.597151 
L 168.399103 329.097731 
L 171.253512 329.834046 
L 174.10792 330.289733 
L 176.962329 330.723466 
L 178.389533 330.843824 
L 179.816738 331.203321 
L 182.671147 331.541655 
L 184.098351 331.808406 
L 185.525555 331.678853 
L 186.95276 332.128262 
L 188.379964 332.154609 
L 189.807168 332.357686 
L 191.234373 332.34296 
L 194.088782 332.674426 
L 199.797599 333.000428 
L 201.224803 332.977214 
L 209.78803 334.07418 
L 211.215234 333.738059 
L 212.642438 333.950792 
L 214.069643 333.962416 
L 215.496847 333.743417 
L 216.924052 333.757557 
L 221.205665 334.25644 
L 224.060073 334.067326 
L 228.341687 334.081842 
L 229.768891 334.026514 
L 231.196095 333.856804 
L 232.6233 334.162508 
L 234.050504 334.204887 
L 235.477708 333.879063 
L 236.904913 333.956689 
L 238.332117 333.63668 
L 239.759322 333.75892 
L 241.186526 333.524763 
L 244.040935 333.654349 
L 246.895343 333.556198 
L 248.322548 333.189473 
L 249.749752 333.070532 
L 251.176957 333.377824 
L 255.45857 333.427185 
L 256.885774 332.999192 
L 258.312978 333.18022 
L 261.167387 332.953913 
L 262.594592 333.165701 
L 266.876205 333.323373 
L 269.730613 333.256858 
L 271.157818 333.371485 
L 272.585022 333.738648 
L 278.29384 334.444814 
L 282.575453 333.721714 
L 284.002657 333.83792 
L 285.429862 333.677771 
L 286.857066 333.690824 
L 289.711475 333.97229 
L 296.847497 334.151459 
L 298.274701 334.377831 
L 299.701905 334.4495 
L 301.12911 334.255543 
L 305.410723 334.235753 
L 306.837927 333.977223 
L 308.265132 334.243684 
L 309.692336 334.252881 
L 311.11954 334.067733 
L 312.546745 334.2276 
L 315.401153 334.297347 
L 316.828358 334.102758 
L 318.255562 334.102294 
L 319.682767 334.563665 
L 321.109971 334.379047 
L 322.537175 333.859713 
L 326.818788 333.567321 
L 328.245993 333.885363 
L 329.673197 333.722884 
L 332.527606 333.790717 
L 335.382015 334.007086 
L 336.809219 334.282214 
L 338.236423 334.260872 
L 339.663628 334.450311 
L 342.518037 335.114459 
L 348.226854 334.938676 
L 349.654058 334.773777 
L 353.935672 334.851358 
L 355.362876 334.698429 
L 359.644489 334.973634 
L 361.071693 334.849781 
L 362.498898 333.186463 
L 363.926102 333.004349 
L 365.353307 332.621384 
L 369.63492 332.659467 
L 371.062124 332.881441 
L 373.916533 332.810622 
L 375.343737 333.252002 
L 376.770942 333.375171 
L 378.198146 333.330776 
L 379.62535 333.088794 
L 382.479759 332.988742 
L 383.906963 333.254936 
L 385.334168 333.058177 
L 388.188577 333.698781 
L 389.615781 333.729519 
L 391.042985 333.919985 
L 392.47019 333.623759 
L 395.324598 333.58843 
L 396.751803 333.698054 
L 399.606212 333.363749 
L 401.033416 333.269705 
L 402.46062 333.426349 
L 403.887825 333.820095 
L 405.315029 333.590248 
L 406.742233 333.595751 
L 408.169438 331.701692 
L 412.451051 332.340546 
L 415.30546 332.366981 
L 416.732664 332.738708 
L 418.159868 330.080438 
L 421.014277 330.681379 
L 422.441482 331.022416 
L 423.868686 331.169004 
L 426.723095 331.289126 
L 428.150299 331.055736 
L 431.004708 331.786783 
L 432.431912 331.970787 
L 433.859117 332.04184 
L 438.14073 331.422308 
L 440.995138 331.773185 
L 442.422343 331.204382 
L 443.849547 331.550446 
L 445.276752 331.625724 
L 448.13116 331.460986 
L 449.558365 331.841497 
L 450.985569 331.911256 
L 452.412773 332.170083 
L 453.839978 332.28053 
L 458.121591 333.034676 
L 460.976 332.860129 
L 462.403204 332.860702 
L 463.830408 332.470797 
L 465.257613 332.875415 
L 466.684817 333.066633 
L 468.112022 332.927243 
L 469.539226 333.254661 
L 473.820839 333.343671 
L 475.248043 333.125461 
L 476.675248 333.188957 
L 479.529657 333.591496 
L 480.956861 333.640523 
L 482.384065 333.474744 
L 483.81127 333.742268 
L 485.238474 333.579233 
L 486.665678 333.751833 
L 488.092883 333.810123 
L 490.947292 333.669964 
L 492.374496 333.829326 
L 493.8017 334.13042 
L 495.228905 334.162693 
L 496.656109 333.90717 
L 499.510518 333.813166 
L 500.937722 333.588998 
L 502.364927 331.350455 
L 503.792131 331.310865 
L 506.64654 332.045879 
L 508.073744 331.959836 
L 509.500948 332.146172 
L 510.928153 331.998073 
L 512.355357 332.026542 
L 513.782562 331.891625 
L 515.209766 332.024969 
L 516.63697 332.468296 
L 518.064175 332.690637 
L 525.200197 332.91534 
L 526.627401 332.72225 
L 528.054605 332.922398 
L 529.48181 332.855763 
L 530.909014 333.079109 
L 532.336218 333.004137 
L 533.763423 333.268615 
L 535.190627 331.286003 
L 536.617832 331.622027 
L 538.045036 331.64785 
L 539.47224 331.87312 
L 540.899445 331.580958 
L 543.753853 331.764186 
L 545.181058 331.959371 
L 546.608262 332.28046 
L 548.035467 331.998576 
L 550.889875 332.312481 
L 555.171488 332.387098 
L 559.453102 332.390748 
L 560.880306 332.486964 
L 562.30751 332.824004 
L 563.734715 332.949041 
L 565.161919 333.359453 
L 568.016328 333.126352 
L 569.443532 330.491365 
L 570.870737 327.497592 
L 572.297941 327.584176 
L 573.725145 327.893364 
L 575.15235 328.317915 
L 585.14278 330.323318 
L 589.424393 330.737437 
L 590.851598 329.337645 
L 593.706006 329.891234 
L 595.133211 329.963679 
L 597.98762 330.475688 
L 599.414824 330.794039 
L 600.842028 330.867264 
L 602.269233 331.069688 
L 605.123641 331.314579 
L 606.550846 331.484624 
L 607.97805 331.853388 
L 609.405255 331.770829 
L 613.686868 332.121133 
L 615.114072 332.531236 
L 617.968481 332.575975 
L 619.395685 332.350797 
L 620.82289 332.401757 
L 623.677298 332.188566 
L 627.958911 332.565429 
L 630.81332 332.314262 
L 632.240525 332.163664 
L 635.094933 332.568624 
L 636.522138 332.781786 
L 637.949342 332.796374 
L 639.376546 333.096115 
L 646.512568 333.655645 
L 646.512568 333.655645 
" clip-path="url(#p1d5e4f932a)" style="fill: none; stroke: #9b8ac9; stroke-width: 1.2; stroke-linecap: square"/>
   </g>
   <g id="patch_3">
    <path d="M 50.0125 349.8636 
L 50.0125 34.5036 
" style="fill: none; stroke: #000000; stroke-width: 0.8; stroke-linejoin: miter; stroke-linecap: square"/>
   </g>
   <g id="patch_4">
    <path d="M 676.4125 349.8636 
L 676.4125 34.5036 
" style="fill: none; stroke: #000000; stroke-width: 0.8; stroke-linejoin: miter; stroke-linecap: square"/>
   </g>
   <g id="patch_5">
    <path d="M 50.0125 349.8636 
L 676.4125 349.8636 
" style="fill: none; stroke: #000000; stroke-width: 0.8; stroke-linejoin: miter; stroke-linecap: square"/>
   </g>
   <g id="patch_6">
    <path d="M 50.0125 34.5036 
L 676.4125 34.5036 
" style="fill: none; stroke: #000000; stroke-width: 0.8; stroke-linejoin: miter; stroke-linecap: square"/>
   </g>
   <g id="legend_1">
    <g id="patch_7">
     <path d="M 50.0125 31.35 
L 676.4125 31.35 
L 676.4125 7.2 
L 50.0125 7.2 
z
" style="fill: #ffffff; stroke: #808080; stroke-width: 0.8; stroke-linejoin: miter"/>
    </g>
    <g id="line2d_39">
     <path d="M 56.3125 18.4 
L 70.3125 18.4 
L 84.3125 18.4 
" style="fill: none; stroke: #1f77b4; stroke-width: 1.2; stroke-linecap: square"/>
    </g>
    <g id="text_20">
     <!-- GCN-DDQN -->
     <g transform="translate(92.7125 23.3) scale(0.14 -0.14)">
      <defs>
       <path id="SimHei-47" d="M 2850 75 
L 2425 75 
L 2350 425 
Q 2250 275 2037 175 
Q 1825 75 1575 75 
Q 1050 75 637 562 
Q 225 1050 225 2125 
Q 225 3300 600 3875 
Q 975 4450 1625 4450 
Q 2200 4450 2525 4025 
Q 2850 3600 2850 2925 
L 2300 2925 
Q 2300 3450 2125 3712 
Q 1950 3975 1625 3975 
Q 1225 3975 1025 3562 
Q 825 3150 825 2175 
Q 825 1250 1075 900 
Q 1325 550 1650 550 
Q 1975 550 2162 787 
Q 2350 1025 2350 1525 
L 2350 1800 
L 1575 1800 
L 1575 2275 
L 2850 2275 
L 2850 75 
z
" transform="scale(0.015625)"/>
       <path id="SimHei-43" d="M 2975 1825 
Q 2950 875 2575 475 
Q 2200 75 1675 75 
Q 1075 75 650 562 
Q 225 1050 225 2125 
Q 225 3300 637 3875 
Q 1050 4450 1700 4450 
Q 2250 4450 2612 4037 
Q 2975 3625 2950 2875 
L 2400 2875 
Q 2400 3425 2225 3700 
Q 2050 3975 1700 3975 
Q 1300 3975 1062 3562 
Q 825 3150 825 2175 
Q 825 1275 1062 912 
Q 1300 550 1675 550 
Q 1950 550 2175 812 
Q 2400 1075 2400 1825 
L 2975 1825 
z
" transform="scale(0.015625)"/>
       <path id="SimHei-4e" d="M 2850 125 
L 2225 125 
L 850 3225 
L 825 3225 
L 825 125 
L 250 125 
L 250 4400 
L 875 4400 
L 2250 1300 
L 2275 1300 
L 2275 4400 
L 2850 4400 
L 2850 125 
z
" transform="scale(0.015625)"/>
       <path id="SimHei-2d" d="M 2975 2125 
L 125 2125 
L 125 2525 
L 2975 2525 
L 2975 2125 
z
" transform="scale(0.015625)"/>
       <path id="SimHei-44" d="M 2925 2250 
Q 2925 1100 2437 612 
Q 1950 125 1125 125 
L 275 125 
L 275 4400 
L 1125 4400 
Q 2050 4400 2487 3900 
Q 2925 3400 2925 2250 
z
M 2325 2250 
Q 2325 3175 2025 3550 
Q 1725 3925 1125 3925 
L 850 3925 
L 850 600 
L 1125 600 
Q 1725 600 2025 962 
Q 2325 1325 2325 2250 
z
" transform="scale(0.015625)"/>
       <path id="SimHei-51" d="M 2950 2275 
Q 2950 1675 2862 1262 
Q 2775 850 2575 600 
L 2775 225 
L 2375 -200 
L 2150 225 
Q 2050 150 1900 112 
Q 1750 75 1575 75 
Q 925 75 550 587 
Q 175 1100 175 2275 
Q 175 3450 550 3950 
Q 925 4450 1575 4450 
Q 2225 4450 2587 3950 
Q 2950 3450 2950 2275 
z
M 2350 2275 
Q 2350 3325 2125 3650 
Q 1900 3975 1575 3975 
Q 1250 3975 1012 3650 
Q 775 3325 775 2275 
Q 775 1225 1012 887 
Q 1250 550 1575 550 
Q 1700 550 1800 587 
Q 1900 625 1950 675 
L 1550 1450 
L 1900 1875 
L 2250 1200 
Q 2300 1450 2325 1650 
Q 2350 1850 2350 2275 
z
" transform="scale(0.015625)"/>
      </defs>
      <use xlink:href="#SimHei-47"/>
      <use xlink:href="#SimHei-43" transform="translate(50 0)"/>
      <use xlink:href="#SimHei-4e" transform="translate(100 0)"/>
      <use xlink:href="#SimHei-2d" transform="translate(150 0)"/>
      <use xlink:href="#SimHei-44" transform="translate(200 0)"/>
      <use xlink:href="#SimHei-44" transform="translate(250 0)"/>
      <use xlink:href="#SimHei-51" transform="translate(300 0)"/>
      <use xlink:href="#SimHei-4e" transform="translate(350 0)"/>
     </g>
    </g>
    <g id="line2d_40">
     <path d="M 223.1125 18.4 
L 237.1125 18.4 
L 251.1125 18.4 
" style="fill: none; stroke: #ff7f0e; stroke-width: 1.2; stroke-linecap: square"/>
    </g>
    <g id="text_21">
     <!-- GCN-D3QN -->
     <g transform="translate(259.5125 23.3) scale(0.14 -0.14)">
      <use xlink:href="#SimHei-47"/>
      <use xlink:href="#SimHei-43" transform="translate(50 0)"/>
      <use xlink:href="#SimHei-4e" transform="translate(100 0)"/>
      <use xlink:href="#SimHei-2d" transform="translate(150 0)"/>
      <use xlink:href="#SimHei-44" transform="translate(200 0)"/>
      <use xlink:href="#SimHei-33" transform="translate(250 0)"/>
      <use xlink:href="#SimHei-51" transform="translate(300 0)"/>
      <use xlink:href="#SimHei-4e" transform="translate(350 0)"/>
     </g>
    </g>
    <g id="line2d_41">
     <path d="M 389.9125 18.4 
L 403.9125 18.4 
L 417.9125 18.4 
" style="fill: none; stroke: #2ca02c; stroke-width: 1.2; stroke-linecap: square"/>
    </g>
    <g id="text_22">
     <!-- GAT-LSTM-DDQN -->
     <g transform="translate(426.3125 23.3) scale(0.14 -0.14)">
      <defs>
       <path id="SimHei-41" d="M 3075 125 
L 2475 125 
L 2125 1450 
L 1025 1450 
L 675 125 
L 75 125 
L 1325 4450 
L 1825 4450 
L 3075 125 
z
M 2000 1925 
L 1600 3450 
L 1550 3450 
L 1150 1925 
L 2000 1925 
z
" transform="scale(0.015625)"/>
       <path id="SimHei-4c" d="M 2900 125 
L 300 125 
L 300 4400 
L 875 4400 
L 875 600 
L 2900 600 
L 2900 125 
z
" transform="scale(0.015625)"/>
       <path id="SimHei-53" d="M 2900 1325 
Q 2900 750 2537 412 
Q 2175 75 1550 75 
Q 925 75 575 425 
Q 225 775 225 1300 
L 225 1475 
L 800 1475 
L 800 1325 
Q 800 950 1025 750 
Q 1250 550 1550 550 
Q 1950 550 2137 762 
Q 2325 975 2325 1275 
Q 2325 1525 2100 1737 
Q 1875 1950 1450 2125 
Q 850 2350 587 2625 
Q 325 2900 325 3275 
Q 325 3800 687 4125 
Q 1050 4450 1550 4450 
Q 2200 4450 2487 4062 
Q 2775 3675 2775 3225 
L 2200 3225 
Q 2225 3500 2050 3725 
Q 1875 3950 1550 3950 
Q 1250 3950 1075 3787 
Q 900 3625 900 3350 
Q 900 3125 1037 2962 
Q 1175 2800 1750 2575 
Q 2300 2350 2600 2037 
Q 2900 1725 2900 1325 
z
" transform="scale(0.015625)"/>
       <path id="SimHei-4d" d="M 2925 125 
L 2425 125 
L 2425 3175 
L 2375 3175 
L 1775 125 
L 1375 125 
L 775 3175 
L 725 3175 
L 725 125 
L 225 125 
L 225 4400 
L 1000 4400 
L 1550 1575 
L 1600 1575 
L 2150 4400 
L 2925 4400 
L 2925 125 
z
" transform="scale(0.015625)"/>
      </defs>
      <use xlink:href="#SimHei-47"/>
      <use xlink:href="#SimHei-41" transform="translate(50 0)"/>
      <use xlink:href="#SimHei-54" transform="translate(100 0)"/>
      <use xlink:href="#SimHei-2d" transform="translate(150 0)"/>
      <use xlink:href="#SimHei-4c" transform="translate(200 0)"/>
      <use xlink:href="#SimHei-53" transform="translate(250 0)"/>
      <use xlink:href="#SimHei-54" transform="translate(300 0)"/>
      <use xlink:href="#SimHei-4d" transform="translate(350 0)"/>
      <use xlink:href="#SimHei-2d" transform="translate(400 0)"/>
      <use xlink:href="#SimHei-44" transform="translate(450 0)"/>
      <use xlink:href="#SimHei-44" transform="translate(500 0)"/>
      <use xlink:href="#SimHei-51" transform="translate(550 0)"/>
      <use xlink:href="#SimHei-4e" transform="translate(600 0)"/>
     </g>
    </g>
    <g id="line2d_42">
     <path d="M 591.7125 18.4 
L 605.7125 18.4 
L 619.7125 18.4 
" style="fill: none; stroke: #9b8ac9; stroke-width: 1.2; stroke-linecap: square"/>
    </g>
    <g id="text_23">
     <!-- GLDVTO -->
     <g transform="translate(628.1125 23.3) scale(0.14 -0.14)">
      <defs>
       <path id="SimHei-56" d="M 3050 4400 
L 1800 75 
L 1300 75 
L 50 4400 
L 650 4400 
L 1525 1125 
L 1575 1125 
L 2450 4400 
L 3050 4400 
z
" transform="scale(0.015625)"/>
       <path id="SimHei-4f" d="M 2950 2275 
Q 2950 1100 2587 587 
Q 2225 75 1575 75 
Q 925 75 550 587 
Q 175 1100 175 2275 
Q 175 3450 550 3950 
Q 925 4450 1575 4450 
Q 2225 4450 2587 3950 
Q 2950 3450 2950 2275 
z
M 2350 2275 
Q 2350 3325 2125 3650 
Q 1900 3975 1575 3975 
Q 1250 3975 1012 3650 
Q 775 3325 775 2275 
Q 775 1225 1012 887 
Q 1250 550 1575 550 
Q 1900 550 2125 887 
Q 2350 1225 2350 2275 
z
" transform="scale(0.015625)"/>
      </defs>
      <use xlink:href="#SimHei-47"/>
      <use xlink:href="#SimHei-4c" transform="translate(50 0)"/>
      <use xlink:href="#SimHei-44" transform="translate(100 0)"/>
      <use xlink:href="#SimHei-56" transform="translate(150 0)"/>
      <use xlink:href="#SimHei-54" transform="translate(200 0)"/>
      <use xlink:href="#SimHei-4f" transform="translate(250 0)"/>
     </g>
    </g>
   </g>
  </g>
 </g>
 <defs>
  <clipPath id="p1d5e4f932a">
   <rect x="50.0125" y="34.5036" width="626.4" height="315.36"/>
  </clipPath>
 </defs>
</svg>
