<?xml version="1.0" encoding="utf-8" standalone="no"?>
<!DOCTYPE svg PUBLIC "-//W3C//DTD SVG 1.1//EN"
  "http://www.w3.org/Graphics/SVG/1.1/DTD/svg11.dtd">
<svg xmlns:xlink="http://www.w3.org/1999/xlink" width="621.9pt" height="397.915pt" viewBox="0 0 621.9 397.915" xmlns="http://www.w3.org/2000/svg" version="1.1">
 <metadata>
  <rdf:RDF xmlns:dc="http://purl.org/dc/elements/1.1/" xmlns:cc="http://creativecommons.org/ns#" xmlns:rdf="http://www.w3.org/1999/02/22-rdf-syntax-ns#">
   <cc:Work>
    <dc:type rdf:resource="http://purl.org/dc/dcmitype/StillImage"/>
    <dc:date>2026-06-26T14:57:04.431788</dc:date>
    <dc:format>image/svg+xml</dc:format>
    <dc:creator>
     <cc:Agent>
      <dc:title>Matplotlib v3.10.7, https://matplotlib.org/</dc:title>
     </cc:Agent>
    </dc:creator>
   </cc:Work>
  </rdf:RDF>
 </metadata>
 <defs>
  <style type="text/css">*{stroke-linejoin: round; stroke-linecap: butt}</style>
 </defs>
 <g id="figure_1">
  <g id="patch_1">
   <path d="M 0 397.915 
L 621.9 397.915 
L 621.9 -0 
L 0 -0 
z
" style="fill: #ffffff"/>
  </g>
  <g id="axes_1">
   <g id="patch_2">
    <path d="M 56.7 356.965 
L 614.7 356.965 
L 614.7 24.325 
L 56.7 24.325 
z
" style="fill: #ffffff"/>
   </g>
   <g id="matplotlib.axis_1">
    <g id="xtick_1">
     <g id="line2d_1">
      <path d="M 82.063636 356.965 
L 82.063636 24.325 
" clip-path="url(#p01c7c65d19)" style="fill: none; stroke: #b0b0b0; stroke-opacity: 0.3; stroke-width: 0.8; stroke-linecap: square"/>
     </g>
     <g id="line2d_2">
      <defs>
       <path id="mfa7f3be0d5" d="M 0 0 
L 0 3.5 
" style="stroke: #000000; stroke-width: 0.8"/>
      </defs>
      <g>
       <use xlink:href="#mfa7f3be0d5" x="82.063636" y="356.965" style="stroke: #000000; stroke-width: 0.8"/>
      </g>
     </g>
     <g id="text_1">
      <!-- 0 -->
      <g transform="translate(79.063636 372.215) scale(0.12 -0.12)">
       <defs>
        <path id="SimHei-30" d="M 225 2537 
Q 250 3200 412 3587 
Q 575 3975 875 4225 
Q 1175 4475 1612 4475 
Q 2050 4475 2375 4112 
Q 2700 3750 2800 3200 
Q 2900 2650 2862 1937 
Q 2825 1225 2612 775 
Q 2400 325 1975 150 
Q 1550 -25 1125 187 
Q 700 400 525 750 
Q 350 1100 275 1487 
Q 200 1875 225 2537 
z
M 750 2687 
Q 675 2000 800 1462 
Q 925 925 1212 700 
Q 1500 475 1800 612 
Q 2100 750 2237 1162 
Q 2375 1575 2375 2062 
Q 2375 2550 2337 2950 
Q 2300 3350 2112 3675 
Q 1925 4000 1612 4012 
Q 1300 4025 1062 3700 
Q 825 3375 750 2687 
z
" transform="scale(0.015625)"/>
       </defs>
       <use xlink:href="#SimHei-30"/>
      </g>
     </g>
    </g>
    <g id="xtick_2">
     <g id="line2d_3">
      <path d="M 145.631647 356.965 
L 145.631647 24.325 
" clip-path="url(#p01c7c65d19)" style="fill: none; stroke: #b0b0b0; stroke-opacity: 0.3; stroke-width: 0.8; stroke-linecap: square"/>
     </g>
     <g id="line2d_4">
      <g>
       <use xlink:href="#mfa7f3be0d5" x="145.631647" y="356.965" style="stroke: #000000; stroke-width: 0.8"/>
      </g>
     </g>
     <g id="text_2">
      <!-- 50 -->
      <g transform="translate(139.631647 372.215) scale(0.12 -0.12)">
       <defs>
        <path id="SimHei-35" d="M 550 1325 
Q 725 650 1150 575 
Q 1575 500 1837 662 
Q 2100 825 2212 1087 
Q 2325 1350 2312 1675 
Q 2300 2000 2137 2225 
Q 1975 2450 1725 2525 
Q 1475 2600 1162 2525 
Q 850 2450 650 2175 
L 225 2225 
Q 275 2375 700 4375 
L 2675 4375 
L 2675 3925 
L 1075 3925 
Q 950 3250 825 2850 
Q 1200 3025 1525 3012 
Q 1850 3000 2150 2862 
Q 2450 2725 2587 2487 
Q 2725 2250 2787 2012 
Q 2850 1775 2837 1500 
Q 2825 1225 2725 937 
Q 2625 650 2425 462 
Q 2225 275 1937 162 
Q 1650 50 1275 75 
Q 900 100 562 350 
Q 225 600 100 1200 
L 550 1325 
z
" transform="scale(0.015625)"/>
       </defs>
       <use xlink:href="#SimHei-35"/>
       <use xlink:href="#SimHei-30" transform="translate(50 0)"/>
      </g>
     </g>
    </g>
    <g id="xtick_3">
     <g id="line2d_5">
      <path d="M 209.199658 356.965 
L 209.199658 24.325 
" clip-path="url(#p01c7c65d19)" style="fill: none; stroke: #b0b0b0; stroke-opacity: 0.3; stroke-width: 0.8; stroke-linecap: square"/>
     </g>
     <g id="line2d_6">
      <g>
       <use xlink:href="#mfa7f3be0d5" x="209.199658" y="356.965" style="stroke: #000000; stroke-width: 0.8"/>
      </g>
     </g>
     <g id="text_3">
      <!-- 100 -->
      <g transform="translate(200.199658 372.215) scale(0.12 -0.12)">
       <defs>
        <path id="SimHei-31" d="M 1400 3600 
Q 1075 3275 575 2975 
L 575 3450 
Q 1200 3875 1600 4450 
L 1900 4450 
L 1900 150 
L 1400 150 
L 1400 3600 
z
" transform="scale(0.015625)"/>
       </defs>
       <use xlink:href="#SimHei-31"/>
       <use xlink:href="#SimHei-30" transform="translate(50 0)"/>
       <use xlink:href="#SimHei-30" transform="translate(100 0)"/>
      </g>
     </g>
    </g>
    <g id="xtick_4">
     <g id="line2d_7">
      <path d="M 272.767669 356.965 
L 272.767669 24.325 
" clip-path="url(#p01c7c65d19)" style="fill: none; stroke: #b0b0b0; stroke-opacity: 0.3; stroke-width: 0.8; stroke-linecap: square"/>
     </g>
     <g id="line2d_8">
      <g>
       <use xlink:href="#mfa7f3be0d5" x="272.767669" y="356.965" style="stroke: #000000; stroke-width: 0.8"/>
      </g>
     </g>
     <g id="text_4">
      <!-- 150 -->
      <g transform="translate(263.767669 372.215) scale(0.12 -0.12)">
       <use xlink:href="#SimHei-31"/>
       <use xlink:href="#SimHei-35" transform="translate(50 0)"/>
       <use xlink:href="#SimHei-30" transform="translate(100 0)"/>
      </g>
     </g>
    </g>
    <g id="xtick_5">
     <g id="line2d_9">
      <path d="M 336.33568 356.965 
L 336.33568 24.325 
" clip-path="url(#p01c7c65d19)" style="fill: none; stroke: #b0b0b0; stroke-opacity: 0.3; stroke-width: 0.8; stroke-linecap: square"/>
     </g>
     <g id="line2d_10">
      <g>
       <use xlink:href="#mfa7f3be0d5" x="336.33568" y="356.965" style="stroke: #000000; stroke-width: 0.8"/>
      </g>
     </g>
     <g id="text_5">
      <!-- 200 -->
      <g transform="translate(327.33568 372.215) scale(0.12 -0.12)">
       <defs>
        <path id="SimHei-32" d="M 300 250 
Q 325 625 650 925 
Q 975 1225 1475 1862 
Q 1975 2500 2125 2850 
Q 2275 3200 2237 3450 
Q 2200 3700 2000 3862 
Q 1800 4025 1537 4000 
Q 1275 3975 1037 3800 
Q 800 3625 675 3275 
L 200 3350 
Q 400 3925 712 4187 
Q 1025 4450 1450 4475 
Q 1700 4500 1900 4462 
Q 2100 4425 2312 4287 
Q 2525 4150 2662 3875 
Q 2800 3600 2762 3212 
Q 2725 2825 2375 2287 
Q 2025 1750 1025 600 
L 2825 600 
L 2825 150 
L 300 150 
L 300 250 
z
" transform="scale(0.015625)"/>
       </defs>
       <use xlink:href="#SimHei-32"/>
       <use xlink:href="#SimHei-30" transform="translate(50 0)"/>
       <use xlink:href="#SimHei-30" transform="translate(100 0)"/>
      </g>
     </g>
    </g>
    <g id="xtick_6">
     <g id="line2d_11">
      <path d="M 399.903691 356.965 
L 399.903691 24.325 
" clip-path="url(#p01c7c65d19)" style="fill: none; stroke: #b0b0b0; stroke-opacity: 0.3; stroke-width: 0.8; stroke-linecap: square"/>
     </g>
     <g id="line2d_12">
      <g>
       <use xlink:href="#mfa7f3be0d5" x="399.903691" y="356.965" style="stroke: #000000; stroke-width: 0.8"/>
      </g>
     </g>
     <g id="text_6">
      <!-- 250 -->
      <g transform="translate(390.903691 372.215) scale(0.12 -0.12)">
       <use xlink:href="#SimHei-32"/>
       <use xlink:href="#SimHei-35" transform="translate(50 0)"/>
       <use xlink:href="#SimHei-30" transform="translate(100 0)"/>
      </g>
     </g>
    </g>
    <g id="xtick_7">
     <g id="line2d_13">
      <path d="M 463.471702 356.965 
L 463.471702 24.325 
" clip-path="url(#p01c7c65d19)" style="fill: none; stroke: #b0b0b0; stroke-opacity: 0.3; stroke-width: 0.8; stroke-linecap: square"/>
     </g>
     <g id="line2d_14">
      <g>
       <use xlink:href="#mfa7f3be0d5" x="463.471702" y="356.965" style="stroke: #000000; stroke-width: 0.8"/>
      </g>
     </g>
     <g id="text_7">
      <!-- 300 -->
      <g transform="translate(454.471702 372.215) scale(0.12 -0.12)">
       <defs>
        <path id="SimHei-33" d="M 250 1225 
L 700 1300 
Q 800 975 1025 762 
Q 1250 550 1587 562 
Q 1925 575 2125 837 
Q 2325 1100 2300 1437 
Q 2275 1775 2037 1962 
Q 1800 2150 1275 2225 
L 1275 2550 
Q 1800 2600 2037 2825 
Q 2275 3050 2250 3412 
Q 2225 3775 1925 3937 
Q 1625 4100 1287 3975 
Q 950 3850 750 3275 
L 300 3350 
Q 450 3800 712 4100 
Q 975 4400 1425 4450 
Q 1875 4500 2212 4337 
Q 2550 4175 2687 3837 
Q 2825 3500 2725 3100 
Q 2625 2700 2150 2400 
Q 2500 2250 2687 1950 
Q 2875 1650 2812 1162 
Q 2750 675 2375 375 
Q 2000 75 1525 87 
Q 1050 100 700 387 
Q 350 675 250 1225 
z
" transform="scale(0.015625)"/>
       </defs>
       <use xlink:href="#SimHei-33"/>
       <use xlink:href="#SimHei-30" transform="translate(50 0)"/>
       <use xlink:href="#SimHei-30" transform="translate(100 0)"/>
      </g>
     </g>
    </g>
    <g id="xtick_8">
     <g id="line2d_15">
      <path d="M 527.039713 356.965 
L 527.039713 24.325 
" clip-path="url(#p01c7c65d19)" style="fill: none; stroke: #b0b0b0; stroke-opacity: 0.3; stroke-width: 0.8; stroke-linecap: square"/>
     </g>
     <g id="line2d_16">
      <g>
       <use xlink:href="#mfa7f3be0d5" x="527.039713" y="356.965" style="stroke: #000000; stroke-width: 0.8"/>
      </g>
     </g>
     <g id="text_8">
      <!-- 350 -->
      <g transform="translate(518.039713 372.215) scale(0.12 -0.12)">
       <use xlink:href="#SimHei-33"/>
       <use xlink:href="#SimHei-35" transform="translate(50 0)"/>
       <use xlink:href="#SimHei-30" transform="translate(100 0)"/>
      </g>
     </g>
    </g>
    <g id="xtick_9">
     <g id="line2d_17">
      <path d="M 590.607724 356.965 
L 590.607724 24.325 
" clip-path="url(#p01c7c65d19)" style="fill: none; stroke: #b0b0b0; stroke-opacity: 0.3; stroke-width: 0.8; stroke-linecap: square"/>
     </g>
     <g id="line2d_18">
      <g>
       <use xlink:href="#mfa7f3be0d5" x="590.607724" y="356.965" style="stroke: #000000; stroke-width: 0.8"/>
      </g>
     </g>
     <g id="text_9">
      <!-- 400 -->
      <g transform="translate(581.607724 372.215) scale(0.12 -0.12)">
       <defs>
        <path id="SimHei-34" d="M 2000 1100 
L 75 1100 
L 75 1525 
L 2100 4450 
L 2475 4450 
L 2475 1525 
L 3075 1525 
L 3075 1100 
L 2475 1100 
L 2475 150 
L 2000 150 
L 2000 1100 
z
M 2000 1525 
L 2000 3500 
L 600 1525 
L 2000 1525 
z
" transform="scale(0.015625)"/>
       </defs>
       <use xlink:href="#SimHei-34"/>
       <use xlink:href="#SimHei-30" transform="translate(50 0)"/>
       <use xlink:href="#SimHei-30" transform="translate(100 0)"/>
      </g>
     </g>
    </g>
    <g id="text_10">
     <!-- Episode -->
     <g transform="translate(307.7 388.715) scale(0.16 -0.16)">
      <defs>
       <path id="SimHei-45" d="M 2900 125 
L 350 125 
L 350 4400 
L 2775 4400 
L 2775 3925 
L 925 3925 
L 925 2600 
L 2625 2600 
L 2625 2125 
L 925 2125 
L 925 600 
L 2900 600 
L 2900 125 
z
" transform="scale(0.015625)"/>
       <path id="SimHei-70" d="M 2825 1525 
Q 2825 800 2475 425 
Q 2125 50 1625 50 
Q 1350 50 1150 162 
Q 950 275 800 500 
L 800 -800 
L 300 -800 
L 300 2925 
L 800 2925 
L 800 2550 
Q 950 2775 1150 2875 
Q 1350 2975 1625 2975 
Q 2125 2975 2475 2612 
Q 2825 2250 2825 1525 
z
M 2275 1525 
Q 2275 2000 2087 2262 
Q 1900 2525 1525 2525 
Q 1225 2525 1012 2262 
Q 800 2000 800 1525 
Q 800 1050 1012 775 
Q 1225 500 1525 500 
Q 1900 500 2087 775 
Q 2275 1050 2275 1525 
z
" transform="scale(0.015625)"/>
       <path id="SimHei-69" d="M 1800 3725 
L 1300 3725 
L 1300 4375 
L 1800 4375 
L 1800 3725 
z
M 1800 125 
L 1300 125 
L 1300 2925 
L 1800 2925 
L 1800 125 
z
" transform="scale(0.015625)"/>
       <path id="SimHei-73" d="M 2750 900 
Q 2750 500 2437 287 
Q 2125 75 1650 75 
Q 1050 75 725 312 
Q 400 550 400 1000 
L 900 1000 
Q 900 700 1112 600 
Q 1325 500 1625 500 
Q 1925 500 2075 612 
Q 2225 725 2225 900 
Q 2225 1025 2100 1150 
Q 1975 1275 1475 1350 
Q 900 1425 687 1637 
Q 475 1850 475 2200 
Q 475 2500 762 2737 
Q 1050 2975 1600 2975 
Q 2100 2975 2387 2750 
Q 2675 2525 2675 2150 
L 2175 2150 
Q 2175 2375 2012 2462 
Q 1850 2550 1600 2550 
Q 1275 2550 1137 2437 
Q 1000 2325 1000 2175 
Q 1000 2000 1125 1900 
Q 1250 1800 1650 1750 
Q 2300 1650 2525 1437 
Q 2750 1225 2750 900 
z
" transform="scale(0.015625)"/>
       <path id="SimHei-6f" d="M 2925 1525 
Q 2925 875 2525 475 
Q 2125 75 1575 75 
Q 1025 75 625 475 
Q 225 875 225 1525 
Q 225 2175 625 2575 
Q 1025 2975 1575 2975 
Q 2125 2975 2525 2575 
Q 2925 2175 2925 1525 
z
M 2375 1525 
Q 2375 2025 2125 2275 
Q 1875 2525 1575 2525 
Q 1275 2525 1025 2275 
Q 775 2025 775 1525 
Q 775 1025 1025 775 
Q 1275 525 1575 525 
Q 1875 525 2125 775 
Q 2375 1025 2375 1525 
z
" transform="scale(0.015625)"/>
       <path id="SimHei-64" d="M 2750 125 
L 2250 125 
L 2250 500 
Q 2100 275 1900 175 
Q 1700 75 1425 75 
Q 925 75 575 437 
Q 225 800 225 1525 
Q 225 2250 575 2625 
Q 925 3000 1425 3000 
Q 1700 3000 1900 2887 
Q 2100 2775 2250 2550 
L 2250 4400 
L 2750 4400 
L 2750 125 
z
M 2250 1525 
Q 2250 2000 2037 2275 
Q 1825 2550 1525 2550 
Q 1150 2550 962 2275 
Q 775 2000 775 1525 
Q 775 1050 962 787 
Q 1150 525 1525 525 
Q 1825 525 2037 787 
Q 2250 1050 2250 1525 
z
" transform="scale(0.015625)"/>
       <path id="SimHei-65" d="M 2850 1075 
Q 2800 625 2450 350 
Q 2100 75 1625 75 
Q 1025 75 637 462 
Q 250 850 250 1525 
Q 250 2200 637 2587 
Q 1025 2975 1625 2975 
Q 2150 2975 2487 2637 
Q 2825 2300 2825 1525 
L 800 1525 
Q 800 975 1037 750 
Q 1275 525 1625 525 
Q 1900 525 2075 662 
Q 2250 800 2300 1075 
L 2850 1075 
z
M 2250 1925 
Q 2200 2275 2025 2412 
Q 1850 2550 1575 2550 
Q 1325 2550 1125 2412 
Q 925 2275 825 1925 
L 2250 1925 
z
" transform="scale(0.015625)"/>
      </defs>
      <use xlink:href="#SimHei-45"/>
      <use xlink:href="#SimHei-70" transform="translate(50 0)"/>
      <use xlink:href="#SimHei-69" transform="translate(100 0)"/>
      <use xlink:href="#SimHei-73" transform="translate(150 0)"/>
      <use xlink:href="#SimHei-6f" transform="translate(200 0)"/>
      <use xlink:href="#SimHei-64" transform="translate(250 0)"/>
      <use xlink:href="#SimHei-65" transform="translate(300 0)"/>
     </g>
    </g>
   </g>
   <g id="matplotlib.axis_2">
    <g id="ytick_1">
     <g id="line2d_19">
      <path d="M 56.7 337.836649 
L 614.7 337.836649 
" clip-path="url(#p01c7c65d19)" style="fill: none; stroke: #b0b0b0; stroke-opacity: 0.3; stroke-width: 0.8; stroke-linecap: square"/>
     </g>
     <g id="line2d_20">
      <defs>
       <path id="m549f55e5e4" d="M 0 0 
L -3.5 0 
" style="stroke: #000000; stroke-width: 0.8"/>
      </defs>
      <g>
       <use xlink:href="#m549f55e5e4" x="56.7" y="337.836649" style="stroke: #000000; stroke-width: 0.8"/>
      </g>
     </g>
     <g id="text_11">
      <!-- 0.05 -->
      <g transform="translate(25.7 341.961649) scale(0.12 -0.12)">
       <defs>
        <path id="SimHei-2e" d="M 1075 125 
L 500 125 
L 500 675 
L 1075 675 
L 1075 125 
z
" transform="scale(0.015625)"/>
       </defs>
       <use xlink:href="#SimHei-30"/>
       <use xlink:href="#SimHei-2e" transform="translate(50 0)"/>
       <use xlink:href="#SimHei-30" transform="translate(100 0)"/>
       <use xlink:href="#SimHei-35" transform="translate(150 0)"/>
      </g>
     </g>
    </g>
    <g id="ytick_2">
     <g id="line2d_21">
      <path d="M 56.7 271.11211 
L 614.7 271.11211 
" clip-path="url(#p01c7c65d19)" style="fill: none; stroke: #b0b0b0; stroke-opacity: 0.3; stroke-width: 0.8; stroke-linecap: square"/>
     </g>
     <g id="line2d_22">
      <g>
       <use xlink:href="#m549f55e5e4" x="56.7" y="271.11211" style="stroke: #000000; stroke-width: 0.8"/>
      </g>
     </g>
     <g id="text_12">
      <!-- 0.10 -->
      <g transform="translate(25.7 275.23711) scale(0.12 -0.12)">
       <use xlink:href="#SimHei-30"/>
       <use xlink:href="#SimHei-2e" transform="translate(50 0)"/>
       <use xlink:href="#SimHei-31" transform="translate(100 0)"/>
       <use xlink:href="#SimHei-30" transform="translate(150 0)"/>
      </g>
     </g>
    </g>
    <g id="ytick_3">
     <g id="line2d_23">
      <path d="M 56.7 204.387572 
L 614.7 204.387572 
" clip-path="url(#p01c7c65d19)" style="fill: none; stroke: #b0b0b0; stroke-opacity: 0.3; stroke-width: 0.8; stroke-linecap: square"/>
     </g>
     <g id="line2d_24">
      <g>
       <use xlink:href="#m549f55e5e4" x="56.7" y="204.387572" style="stroke: #000000; stroke-width: 0.8"/>
      </g>
     </g>
     <g id="text_13">
      <!-- 0.15 -->
      <g transform="translate(25.7 208.512572) scale(0.12 -0.12)">
       <use xlink:href="#SimHei-30"/>
       <use xlink:href="#SimHei-2e" transform="translate(50 0)"/>
       <use xlink:href="#SimHei-31" transform="translate(100 0)"/>
       <use xlink:href="#SimHei-35" transform="translate(150 0)"/>
      </g>
     </g>
    </g>
    <g id="ytick_4">
     <g id="line2d_25">
      <path d="M 56.7 137.663033 
L 614.7 137.663033 
" clip-path="url(#p01c7c65d19)" style="fill: none; stroke: #b0b0b0; stroke-opacity: 0.3; stroke-width: 0.8; stroke-linecap: square"/>
     </g>
     <g id="line2d_26">
      <g>
       <use xlink:href="#m549f55e5e4" x="56.7" y="137.663033" style="stroke: #000000; stroke-width: 0.8"/>
      </g>
     </g>
     <g id="text_14">
      <!-- 0.20 -->
      <g transform="translate(25.7 141.788033) scale(0.12 -0.12)">
       <use xlink:href="#SimHei-30"/>
       <use xlink:href="#SimHei-2e" transform="translate(50 0)"/>
       <use xlink:href="#SimHei-32" transform="translate(100 0)"/>
       <use xlink:href="#SimHei-30" transform="translate(150 0)"/>
      </g>
     </g>
    </g>
    <g id="ytick_5">
     <g id="line2d_27">
      <path d="M 56.7 70.938494 
L 614.7 70.938494 
" clip-path="url(#p01c7c65d19)" style="fill: none; stroke: #b0b0b0; stroke-opacity: 0.3; stroke-width: 0.8; stroke-linecap: square"/>
     </g>
     <g id="line2d_28">
      <g>
       <use xlink:href="#m549f55e5e4" x="56.7" y="70.938494" style="stroke: #000000; stroke-width: 0.8"/>
      </g>
     </g>
     <g id="text_15">
      <!-- 0.25 -->
      <g transform="translate(25.7 75.063494) scale(0.12 -0.12)">
       <use xlink:href="#SimHei-30"/>
       <use xlink:href="#SimHei-2e" transform="translate(50 0)"/>
       <use xlink:href="#SimHei-32" transform="translate(100 0)"/>
       <use xlink:href="#SimHei-35" transform="translate(150 0)"/>
      </g>
     </g>
    </g>
    <g id="text_16">
     <!-- Delay (s) -->
     <g transform="translate(19.7 226.645) rotate(-90) scale(0.16 -0.16)">
      <defs>
       <path id="SimHei-44" d="M 2925 2250 
Q 2925 1100 2437 612 
Q 1950 125 1125 125 
L 275 125 
L 275 4400 
L 1125 4400 
Q 2050 4400 2487 3900 
Q 2925 3400 2925 2250 
z
M 2325 2250 
Q 2325 3175 2025 3550 
Q 1725 3925 1125 3925 
L 850 3925 
L 850 600 
L 1125 600 
Q 1725 600 2025 962 
Q 2325 1325 2325 2250 
z
" transform="scale(0.015625)"/>
       <path id="SimHei-6c" d="M 1825 125 
L 1325 125 
L 1325 4400 
L 1825 4400 
L 1825 125 
z
" transform="scale(0.015625)"/>
       <path id="SimHei-61" d="M 2875 125 
L 2275 125 
Q 2225 175 2200 262 
Q 2175 350 2175 475 
Q 2000 275 1750 175 
Q 1500 75 1225 75 
Q 825 75 550 275 
Q 275 475 275 850 
Q 275 1225 525 1450 
Q 775 1675 1300 1750 
Q 1650 1800 1912 1875 
Q 2175 1950 2175 2075 
Q 2175 2225 2062 2375 
Q 1950 2525 1575 2525 
Q 1275 2525 1137 2412 
Q 1000 2300 950 2100 
L 400 2100 
Q 450 2500 762 2737 
Q 1075 2975 1575 2975 
Q 2125 2975 2400 2725 
Q 2675 2475 2675 2025 
L 2675 650 
Q 2675 500 2725 375 
Q 2775 250 2875 125 
z
M 2175 1050 
L 2175 1550 
Q 2025 1500 1887 1462 
Q 1750 1425 1425 1375 
Q 1050 1325 937 1200 
Q 825 1075 825 900 
Q 825 750 937 637 
Q 1050 525 1275 525 
Q 1500 525 1762 650 
Q 2025 775 2175 1050 
z
" transform="scale(0.015625)"/>
       <path id="SimHei-79" d="M 2900 2925 
L 1750 -100 
Q 1650 -450 1450 -625 
Q 1250 -800 950 -800 
Q 825 -800 712 -787 
Q 600 -775 500 -725 
L 500 -225 
Q 600 -275 700 -300 
Q 800 -325 875 -325 
Q 1075 -325 1150 -262 
Q 1225 -200 1300 25 
L 200 2925 
L 750 2925 
L 1550 725 
L 1575 725 
L 2350 2925 
L 2900 2925 
z
" transform="scale(0.015625)"/>
       <path id="SimHei-20" transform="scale(0.015625)"/>
       <path id="SimHei-28" d="M 2975 -200 
L 2700 -475 
Q 2075 125 1762 775 
Q 1450 1425 1450 2250 
Q 1450 3075 1762 3725 
Q 2075 4375 2700 5000 
L 2975 4725 
Q 2400 4175 2112 3587 
Q 1825 3000 1825 2250 
Q 1825 1500 2112 912 
Q 2400 325 2975 -200 
z
" transform="scale(0.015625)"/>
       <path id="SimHei-29" d="M 1675 2250 
Q 1675 1425 1362 775 
Q 1050 125 425 -475 
L 150 -200 
Q 725 325 1012 912 
Q 1300 1500 1300 2250 
Q 1300 3000 1012 3587 
Q 725 4175 150 4725 
L 425 5000 
Q 1050 4375 1362 3725 
Q 1675 3075 1675 2250 
z
" transform="scale(0.015625)"/>
      </defs>
      <use xlink:href="#SimHei-44"/>
      <use xlink:href="#SimHei-65" transform="translate(50 0)"/>
      <use xlink:href="#SimHei-6c" transform="translate(100 0)"/>
      <use xlink:href="#SimHei-61" transform="translate(150 0)"/>
      <use xlink:href="#SimHei-79" transform="translate(200 0)"/>
      <use xlink:href="#SimHei-20" transform="translate(250 0)"/>
      <use xlink:href="#SimHei-28" transform="translate(300 0)"/>
      <use xlink:href="#SimHei-73" transform="translate(350 0)"/>
      <use xlink:href="#SimHei-29" transform="translate(400 0)"/>
     </g>
    </g>
   </g>
   <g id="line2d_29">
    <path d="M 82.063636 250.972035 
L 83.334997 240.531401 
L 84.606357 236.851403 
L 85.877717 224.341772 
L 87.149077 205.732729 
L 88.420437 210.759668 
L 89.691798 201.628838 
L 90.963158 184.476586 
L 92.234518 184.547334 
L 93.505878 182.237439 
L 94.777239 187.382033 
L 96.048599 174.277194 
L 97.319959 165.834114 
L 98.591319 151.711613 
L 99.862679 135.557094 
L 101.13404 128.658762 
L 102.4054 129.044116 
L 103.67676 133.57597 
L 104.94812 148.933353 
L 106.219481 139.071954 
L 107.490841 140.813609 
L 108.762201 159.762368 
L 110.033561 174.759899 
L 112.576282 207.115227 
L 115.119002 233.134415 
L 116.390362 229.694051 
L 117.661722 241.246347 
L 118.933083 251.070523 
L 122.747163 274.316091 
L 124.018524 281.172592 
L 125.289884 283.973563 
L 126.561244 290.011288 
L 129.103964 299.403995 
L 132.918045 310.277422 
L 134.189405 312.59768 
L 138.003486 320.827801 
L 139.274846 307.070385 
L 141.817567 312.278951 
L 143.088927 314.577008 
L 145.631647 320.448205 
L 146.903008 322.830954 
L 148.174368 324.932091 
L 150.717088 327.575324 
L 153.259809 328.505546 
L 154.531169 329.780101 
L 155.802529 330.379042 
L 157.073889 331.722337 
L 159.61661 332.470559 
L 160.88797 332.735739 
L 162.15933 333.801709 
L 163.43069 325.719889 
L 164.702051 327.863299 
L 165.973411 329.101305 
L 167.244771 319.886325 
L 168.516131 321.656222 
L 169.787491 315.959324 
L 171.058852 312.349145 
L 172.330212 314.31971 
L 173.601572 317.082344 
L 174.872932 319.087351 
L 176.144293 321.846342 
L 177.415653 323.64497 
L 178.687013 324.731406 
L 179.958373 298.843327 
L 181.229733 302.699119 
L 182.501094 282.69649 
L 186.315174 296.027273 
L 187.586535 289.503183 
L 188.857895 294.564425 
L 190.129255 300.197847 
L 191.400615 278.03235 
L 192.671975 280.697421 
L 193.943336 285.680094 
L 195.214696 262.332262 
L 196.486056 268.427079 
L 197.757416 230.717885 
L 199.028776 232.823366 
L 200.300137 233.676035 
L 201.571497 228.672132 
L 202.842857 207.093815 
L 204.114217 197.456042 
L 205.385578 200.627904 
L 206.656938 199.576749 
L 207.928298 207.996757 
L 209.199658 180.227283 
L 210.471018 166.879946 
L 211.742379 184.394093 
L 213.013739 171.947553 
L 214.285099 187.733081 
L 215.556459 201.4481 
L 216.82782 199.367651 
L 218.09918 207.703939 
L 219.37054 178.712639 
L 220.6419 193.948053 
L 221.91326 180.880324 
L 223.184621 187.18779 
L 224.455981 201.514352 
L 225.727341 214.575925 
L 226.998701 211.5522 
L 228.270062 203.942339 
L 229.541422 175.73806 
L 230.812782 155.5728 
L 232.084142 141.07537 
L 233.355502 134.51399 
L 234.626863 125.462636 
L 235.898223 106.576254 
L 237.169583 113.090751 
L 238.440943 107.040606 
L 239.712303 106.937006 
L 240.983664 129.177082 
L 242.255024 123.13846 
L 243.526384 118.064812 
L 244.797744 124.50491 
L 246.069105 133.303655 
L 247.340465 118.502543 
L 248.611825 116.089244 
L 249.883185 109.848528 
L 251.154545 99.43451 
L 252.425906 104.948173 
L 253.697266 86.33779 
L 254.968626 96.965302 
L 256.239986 105.975961 
L 258.782707 117.486299 
L 260.054067 109.470983 
L 261.325427 106.074189 
L 262.596787 111.387166 
L 263.868148 97.201177 
L 265.139508 101.759232 
L 266.410868 96.350917 
L 268.953589 105.085385 
L 270.224949 107.058011 
L 271.496309 101.294075 
L 272.767669 113.539123 
L 274.039029 110.18276 
L 275.31039 116.355415 
L 276.58175 128.429934 
L 277.85311 114.865686 
L 279.12447 110.074646 
L 280.39583 115.891072 
L 281.667191 124.680772 
L 282.938551 117.764064 
L 284.209911 126.033429 
L 285.481271 127.960892 
L 286.752632 116.015528 
L 288.023992 122.044137 
L 289.295352 113.879986 
L 290.566712 107.997287 
L 291.838072 112.171031 
L 293.109433 109.656063 
L 294.380793 110.270908 
L 295.652153 121.943401 
L 296.923513 108.00542 
L 298.194874 116.658992 
L 299.466234 111.69182 
L 300.737594 118.654932 
L 302.008954 111.49362 
L 304.551675 135.385245 
L 305.823035 153.065737 
L 307.094395 157.53747 
L 308.365755 169.38336 
L 309.637116 174.9723 
L 310.908476 174.457158 
L 312.179836 171.33759 
L 313.451196 174.760741 
L 314.722556 172.114029 
L 315.993917 164.64546 
L 317.265277 164.764263 
L 318.536637 162.74696 
L 319.807997 165.600296 
L 321.079357 156.709471 
L 322.350718 165.138363 
L 323.622078 167.881794 
L 324.893438 166.977908 
L 326.164798 169.636309 
L 327.436159 186.486602 
L 328.707519 189.520856 
L 329.978879 187.120503 
L 332.521599 193.122479 
L 333.79296 184.364575 
L 335.06432 182.073278 
L 336.33568 169.273614 
L 337.60704 165.181813 
L 338.878401 159.381167 
L 340.149761 173.129197 
L 341.421121 167.46099 
L 342.692481 174.077512 
L 343.963841 186.893475 
L 345.235202 183.348969 
L 346.506562 176.440049 
L 347.777922 173.66274 
L 349.049282 181.928307 
L 350.320643 179.946175 
L 351.592003 174.83811 
L 352.863363 176.856655 
L 354.134723 170.89507 
L 355.406083 156.202212 
L 356.677444 164.11992 
L 357.948804 162.232528 
L 359.220164 168.447369 
L 360.491524 172.485101 
L 361.762884 177.440884 
L 363.034245 185.738308 
L 364.305605 177.732225 
L 365.576965 156.968272 
L 366.848325 156.808993 
L 368.119686 164.146965 
L 369.391046 165.152226 
L 370.662406 167.633879 
L 371.933766 163.525327 
L 373.205126 152.33162 
L 375.747847 160.972206 
L 377.019207 159.755644 
L 378.290567 170.101923 
L 379.561928 178.322457 
L 380.833288 178.919167 
L 382.104648 191.320119 
L 383.376008 186.003049 
L 384.647368 189.008841 
L 385.918729 193.38312 
L 387.190089 203.296818 
L 388.461449 200.307184 
L 389.732809 198.855987 
L 391.00417 202.712617 
L 392.27553 194.696807 
L 394.81825 187.787124 
L 396.08961 189.82278 
L 397.360971 198.453458 
L 398.632331 197.742504 
L 399.903691 203.23164 
L 401.175051 195.819581 
L 402.446411 198.024674 
L 403.717772 180.519069 
L 404.989132 179.176667 
L 406.260492 184.157879 
L 407.531852 187.849218 
L 408.803213 195.910868 
L 410.074573 183.325235 
L 411.345933 175.600029 
L 412.617293 171.283499 
L 413.888653 176.342786 
L 415.160014 175.94102 
L 416.431374 174.002436 
L 418.974094 162.880173 
L 420.245455 165.789782 
L 421.516815 171.997483 
L 422.788175 172.963278 
L 424.059535 173.609086 
L 425.330895 185.029509 
L 426.602256 183.069648 
L 427.873616 191.302346 
L 429.144976 191.976133 
L 430.416336 191.789515 
L 431.687697 183.720592 
L 432.959057 182.393473 
L 434.230417 183.922573 
L 435.501777 192.168612 
L 436.773137 178.676086 
L 438.044498 183.479507 
L 439.315858 180.654691 
L 440.587218 184.615124 
L 441.858578 184.273813 
L 443.129938 191.693962 
L 444.401299 187.601546 
L 445.672659 177.108653 
L 446.944019 176.99902 
L 449.48674 163.458564 
L 450.7581 168.938624 
L 453.30082 176.128374 
L 454.57218 186.31012 
L 455.843541 191.018864 
L 457.114901 199.620335 
L 458.386261 184.978751 
L 459.657621 184.432918 
L 460.928982 183.560739 
L 462.200342 178.823979 
L 463.471702 175.744658 
L 464.743062 179.822999 
L 466.014422 181.886705 
L 467.285783 192.246387 
L 468.557143 190.010311 
L 469.828503 187.494256 
L 471.099863 195.636389 
L 472.371224 190.222754 
L 473.642584 194.203308 
L 474.913944 188.894731 
L 476.185304 193.381242 
L 477.456664 175.149505 
L 478.728025 175.345109 
L 479.999385 178.883932 
L 481.270745 177.043273 
L 482.542105 177.62099 
L 483.813465 186.669758 
L 485.084826 184.409743 
L 487.627546 173.688128 
L 488.898906 185.717893 
L 490.170267 185.846402 
L 491.441627 181.947105 
L 493.984347 182.631678 
L 495.255707 180.851898 
L 496.527068 181.059778 
L 497.798428 187.737919 
L 499.069788 187.744588 
L 500.341148 193.239032 
L 501.612509 200.641586 
L 502.883869 193.671704 
L 504.155229 191.478597 
L 505.426589 181.969789 
L 506.697949 176.179146 
L 507.96931 181.702898 
L 509.24067 170.001644 
L 510.51203 174.098649 
L 511.78339 175.950121 
L 513.054751 175.770525 
L 515.597471 161.793625 
L 516.868831 163.634814 
L 518.140191 165.190084 
L 519.411552 163.616332 
L 520.682912 176.339934 
L 521.954272 186.417216 
L 523.225632 192.138378 
L 524.496992 193.193936 
L 525.768353 198.686312 
L 527.039713 210.624171 
L 528.311073 215.473915 
L 529.582433 202.815781 
L 530.853794 191.848553 
L 532.125154 191.963829 
L 533.396514 196.761364 
L 534.667874 200.496438 
L 535.939234 207.896919 
L 537.210595 208.577611 
L 538.481955 208.821654 
L 539.753315 200.365034 
L 541.024675 198.070882 
L 542.296036 191.774241 
L 543.567396 198.569933 
L 544.838756 198.429673 
L 546.110116 208.23442 
L 547.381476 213.271137 
L 548.652837 220.700924 
L 549.924197 208.524445 
L 551.195557 202.108694 
L 553.738278 183.52394 
L 555.009638 188.217101 
L 556.280998 188.717059 
L 557.552358 183.299122 
L 558.823718 170.521163 
L 560.095079 170.7299 
L 561.366439 180.370306 
L 562.637799 181.674364 
L 563.909159 187.695464 
L 565.180519 191.042853 
L 566.45188 193.967765 
L 567.72324 202.182691 
L 568.9946 196.563648 
L 570.26596 199.626181 
L 571.537321 198.209545 
L 572.808681 189.606279 
L 574.080041 178.32261 
L 575.351401 174.906282 
L 576.622761 166.305031 
L 577.894122 165.300068 
L 579.165482 165.294884 
L 580.436842 161.185778 
L 581.708202 165.915487 
L 582.979563 165.960434 
L 584.250923 161.801062 
L 585.522283 159.601714 
L 586.793643 163.694933 
L 588.065003 160.046937 
L 588.065003 160.046937 
" clip-path="url(#p01c7c65d19)" style="fill: none; stroke: #1f77b4; stroke-width: 1.2; stroke-linecap: square"/>
   </g>
   <g id="line2d_30">
    <path d="M 82.063636 112.833489 
L 83.334997 110.930218 
L 84.606357 106.857565 
L 85.877717 113.276752 
L 87.149077 108.6818 
L 88.420437 105.216014 
L 89.691798 105.371749 
L 90.963158 107.459566 
L 92.234518 114.174315 
L 93.505878 116.393562 
L 96.048599 113.290737 
L 97.319959 112.445845 
L 98.591319 116.893856 
L 99.862679 115.806061 
L 101.13404 110.370827 
L 102.4054 112.587199 
L 103.67676 111.307405 
L 104.94812 108.124848 
L 106.219481 106.667151 
L 107.490841 108.25206 
L 108.762201 105.866722 
L 110.033561 107.199423 
L 111.304921 110.038828 
L 112.576282 113.41874 
L 113.847642 112.897741 
L 115.119002 118.147222 
L 116.390362 119.137344 
L 117.661722 121.283945 
L 118.933083 122.064489 
L 120.204443 125.737369 
L 121.475803 123.171494 
L 122.747163 130.709838 
L 124.018524 129.735567 
L 125.289884 131.290619 
L 126.561244 133.904088 
L 127.832604 136.230437 
L 129.103964 134.639932 
L 130.375325 135.558066 
L 131.646685 134.949443 
L 132.918045 134.013829 
L 134.189405 139.182737 
L 136.732126 143.93529 
L 138.003486 146.022931 
L 139.274846 145.746068 
L 140.546206 148.215751 
L 141.817567 149.775395 
L 143.088927 150.137828 
L 144.360287 154.40498 
L 145.631647 152.205333 
L 146.903008 145.849827 
L 148.174368 142.07736 
L 149.445728 142.123407 
L 150.717088 141.996165 
L 151.988448 142.444562 
L 153.259809 139.567259 
L 154.531169 143.315612 
L 155.802529 146.635206 
L 157.073889 144.549223 
L 158.345249 145.313006 
L 159.61661 156.051463 
L 160.88797 160.282401 
L 162.15933 156.93088 
L 163.43069 159.709616 
L 164.702051 160.491415 
L 165.973411 161.128642 
L 167.244771 162.205192 
L 168.516131 172.210797 
L 169.787491 171.273633 
L 171.058852 170.637265 
L 172.330212 176.762682 
L 173.601572 180.208503 
L 174.872932 181.169478 
L 176.144293 180.983541 
L 177.415653 182.352808 
L 178.687013 184.009954 
L 179.958373 187.294131 
L 181.229733 185.687114 
L 182.501094 182.399378 
L 183.772454 189.151259 
L 185.043814 191.192769 
L 186.315174 194.218701 
L 187.586535 200.976989 
L 188.857895 201.761547 
L 190.129255 199.881627 
L 191.400615 204.085068 
L 192.671975 208.737506 
L 193.943336 216.749131 
L 195.214696 220.6493 
L 196.486056 221.575061 
L 197.757416 219.69519 
L 199.028776 221.993963 
L 200.300137 225.029485 
L 201.571497 222.479012 
L 202.842857 224.504907 
L 204.114217 224.917526 
L 205.385578 216.61577 
L 206.656938 213.240097 
L 207.928298 218.285877 
L 209.199658 226.065026 
L 210.471018 228.673637 
L 211.742379 228.613631 
L 213.013739 229.171519 
L 214.285099 230.788903 
L 215.556459 233.8444 
L 216.82782 236.083681 
L 218.09918 232.477214 
L 219.37054 229.767083 
L 220.6419 234.551387 
L 221.91326 235.021157 
L 223.184621 236.924854 
L 224.455981 232.725136 
L 225.727341 239.750526 
L 226.998701 242.126674 
L 228.270062 236.433189 
L 229.541422 239.47713 
L 230.812782 241.460208 
L 232.084142 236.781833 
L 234.626863 247.703073 
L 235.898223 251.674049 
L 237.169583 253.197588 
L 238.440943 256.998663 
L 239.712303 259.95902 
L 240.983664 261.357054 
L 242.255024 261.91793 
L 243.526384 263.455576 
L 244.797744 265.611484 
L 246.069105 265.43411 
L 247.340465 268.352686 
L 248.611825 272.008336 
L 249.883185 272.437507 
L 251.154545 271.86529 
L 252.425906 275.246624 
L 253.697266 272.959852 
L 254.968626 271.990793 
L 256.239986 268.174093 
L 257.511347 261.887172 
L 258.782707 266.236021 
L 260.054067 270.139377 
L 261.325427 272.098449 
L 262.596787 270.487496 
L 263.868148 273.492827 
L 265.139508 272.932633 
L 266.410868 275.705055 
L 267.682228 277.567479 
L 268.953589 276.15027 
L 270.224949 275.994155 
L 271.496309 274.344214 
L 272.767669 273.684301 
L 274.039029 275.715761 
L 275.31039 279.827525 
L 276.58175 282.483832 
L 279.12447 281.135211 
L 280.39583 282.02758 
L 281.667191 286.551484 
L 282.938551 285.470536 
L 285.481271 288.232106 
L 286.752632 288.791437 
L 288.023992 285.45884 
L 289.295352 287.578791 
L 290.566712 288.661843 
L 291.838072 288.85721 
L 293.109433 289.990674 
L 294.380793 292.687466 
L 295.652153 292.030056 
L 296.923513 294.447339 
L 298.194874 294.842375 
L 299.466234 297.393119 
L 302.008954 298.118763 
L 303.280314 296.991343 
L 304.551675 300.589158 
L 305.823035 299.113457 
L 307.094395 299.055803 
L 309.637116 301.159848 
L 310.908476 303.402084 
L 312.179836 303.149961 
L 313.451196 302.245475 
L 314.722556 301.635056 
L 315.993917 302.006208 
L 317.265277 301.626147 
L 318.536637 301.787244 
L 319.807997 302.31034 
L 321.079357 300.239603 
L 322.350718 300.168508 
L 323.622078 301.727878 
L 324.893438 304.874268 
L 326.164798 303.980349 
L 327.436159 306.702502 
L 328.707519 305.781157 
L 329.978879 305.710235 
L 331.250239 305.285947 
L 332.521599 305.129095 
L 333.79296 304.143595 
L 335.06432 304.338333 
L 336.33568 306.59103 
L 337.60704 309.078282 
L 338.878401 312.034501 
L 340.149761 313.477316 
L 341.421121 315.298397 
L 342.692481 316.302358 
L 343.963841 315.027478 
L 345.235202 315.309142 
L 346.506562 311.977537 
L 347.777922 313.196603 
L 349.049282 312.10109 
L 350.320643 312.327781 
L 351.592003 311.739377 
L 352.863363 309.112268 
L 354.134723 310.658977 
L 355.406083 311.312022 
L 356.677444 312.699506 
L 357.948804 313.664937 
L 359.220164 314.773806 
L 360.491524 316.115221 
L 361.762884 314.067229 
L 363.034245 315.663011 
L 364.305605 316.292171 
L 365.576965 317.144175 
L 366.848325 319.04211 
L 368.119686 321.393088 
L 369.391046 321.348862 
L 370.662406 320.537728 
L 371.933766 321.823849 
L 373.205126 320.001812 
L 374.476487 319.265488 
L 375.747847 320.018316 
L 377.019207 319.715504 
L 378.290567 319.688528 
L 379.561928 319.494368 
L 380.833288 318.265702 
L 382.104648 318.950275 
L 383.376008 319.781572 
L 384.647368 317.324169 
L 385.918729 318.289977 
L 387.190089 316.898817 
L 388.461449 318.054087 
L 389.732809 320.041857 
L 391.00417 319.093049 
L 392.27553 319.810937 
L 393.54689 320.378413 
L 394.81825 320.565066 
L 396.08961 317.807729 
L 397.360971 317.231637 
L 398.632331 317.851341 
L 399.903691 318.21007 
L 401.175051 321.275296 
L 402.446411 319.98696 
L 403.717772 321.352569 
L 404.989132 320.468162 
L 406.260492 321.285363 
L 407.531852 323.497277 
L 408.803213 321.882334 
L 410.074573 318.028784 
L 411.345933 319.954088 
L 412.617293 321.381931 
L 413.888653 321.458238 
L 415.160014 320.389647 
L 416.431374 320.092992 
L 417.702734 320.302227 
L 418.974094 322.930607 
L 420.245455 322.827807 
L 421.516815 318.045297 
L 422.788175 319.682645 
L 424.059535 321.795617 
L 425.330895 321.040836 
L 426.602256 318.912876 
L 427.873616 318.830506 
L 429.144976 319.118087 
L 430.416336 319.559919 
L 431.687697 321.046701 
L 434.230417 321.653237 
L 435.501777 321.328873 
L 438.044498 324.667739 
L 439.315858 325.909252 
L 440.587218 326.483404 
L 441.858578 325.711368 
L 443.129938 326.718367 
L 444.401299 325.513559 
L 445.672659 325.443522 
L 446.944019 325.85227 
L 448.215379 326.432255 
L 449.48674 326.437133 
L 450.7581 327.694773 
L 452.02946 327.00415 
L 453.30082 328.801299 
L 454.57218 328.693792 
L 455.843541 329.987499 
L 457.114901 331.033342 
L 458.386261 331.723337 
L 459.657621 331.810421 
L 460.928982 332.621939 
L 462.200342 332.238326 
L 463.471702 330.7872 
L 464.743062 331.967708 
L 466.014422 332.245984 
L 467.285783 331.452501 
L 468.557143 328.496365 
L 469.828503 327.503865 
L 471.099863 328.305835 
L 472.371224 328.872918 
L 473.642584 328.96246 
L 474.913944 330.704107 
L 476.185304 331.638018 
L 477.456664 330.98523 
L 478.728025 332.302927 
L 479.999385 330.446187 
L 481.270745 330.60564 
L 482.542105 330.943287 
L 483.813465 331.113225 
L 485.084826 330.706103 
L 486.356186 329.993523 
L 487.627546 328.954724 
L 488.898906 328.192644 
L 490.170267 327.284633 
L 491.441627 328.792269 
L 492.712987 329.988837 
L 493.984347 328.711464 
L 495.255707 328.507981 
L 496.527068 330.096709 
L 499.069788 331.170262 
L 500.341148 331.596055 
L 501.612509 330.238943 
L 502.883869 330.879845 
L 504.155229 332.005231 
L 505.426589 332.268519 
L 506.697949 332.403346 
L 507.96931 331.925257 
L 509.24067 326.322227 
L 510.51203 327.488955 
L 511.78339 327.521081 
L 513.054751 326.047765 
L 514.326111 326.703179 
L 515.597471 326.61497 
L 516.868831 326.279442 
L 518.140191 328.065971 
L 519.411552 327.737561 
L 520.682912 328.847 
L 521.954272 330.224918 
L 523.225632 329.987361 
L 524.496992 330.112562 
L 525.768353 329.912066 
L 527.039713 330.829065 
L 528.311073 331.963925 
L 529.582433 333.689572 
L 530.853794 334.777585 
L 532.125154 335.068593 
L 533.396514 333.421907 
L 534.667874 334.079555 
L 535.939234 333.528221 
L 537.210595 331.790912 
L 538.481955 332.289926 
L 539.753315 331.898847 
L 541.024675 329.255112 
L 542.296036 330.079582 
L 543.567396 329.373612 
L 544.838756 329.974973 
L 546.110116 330.996168 
L 547.381476 331.695677 
L 548.652837 332.714032 
L 549.924197 332.569177 
L 551.195557 333.463951 
L 552.466917 332.037878 
L 553.738278 331.83949 
L 555.009638 331.961543 
L 556.280998 333.022778 
L 557.552358 333.464053 
L 558.823718 333.369347 
L 560.095079 332.583097 
L 561.366439 333.245343 
L 562.637799 331.997773 
L 563.909159 332.297848 
L 565.180519 331.89194 
L 566.45188 332.823881 
L 567.72324 334.366504 
L 568.9946 334.777807 
L 570.26596 334.466902 
L 571.537321 334.448242 
L 572.808681 334.910927 
L 574.080041 335.035058 
L 575.351401 334.099486 
L 576.622761 334.247241 
L 577.894122 333.312845 
L 579.165482 333.073867 
L 580.436842 331.721837 
L 581.708202 331.606154 
L 582.979563 331.284629 
L 584.250923 332.37536 
L 585.522283 332.981768 
L 586.793643 332.128217 
L 588.065003 332.379073 
L 588.065003 332.379073 
" clip-path="url(#p01c7c65d19)" style="fill: none; stroke: #ff7f0e; stroke-width: 1.2; stroke-linecap: square"/>
   </g>
   <g id="line2d_31">
    <path d="M 82.063636 198.676509 
L 83.334997 185.178053 
L 84.606357 185.723019 
L 85.877717 175.991232 
L 87.149077 163.702452 
L 88.420437 157.972515 
L 89.691798 158.079038 
L 90.963158 155.605305 
L 92.234518 161.791062 
L 93.505878 163.436902 
L 94.777239 160.662812 
L 96.048599 160.076312 
L 97.319959 159.273906 
L 98.591319 154.266997 
L 99.862679 144.014345 
L 101.13404 140.860204 
L 102.4054 131.852181 
L 103.67676 130.352702 
L 104.94812 135.525369 
L 106.219481 129.688625 
L 107.490841 130.612986 
L 108.762201 138.734318 
L 110.033561 145.168919 
L 111.304921 147.814824 
L 112.576282 151.567607 
L 113.847642 158.617852 
L 115.119002 170.327982 
L 116.390362 178.493152 
L 117.661722 189.249997 
L 120.204443 202.166998 
L 121.475803 204.694718 
L 122.747163 208.29738 
L 124.018524 211.273518 
L 125.289884 213.054374 
L 126.561244 214.558904 
L 127.832604 211.78366 
L 129.103964 206.764545 
L 130.375325 203.566424 
L 131.646685 204.606173 
L 132.918045 198.580872 
L 134.189405 191.625973 
L 135.460766 189.813148 
L 136.732126 191.597434 
L 138.003486 189.786075 
L 139.274846 189.895166 
L 140.546206 192.727888 
L 141.817567 188.91101 
L 143.088927 186.19026 
L 144.360287 188.431674 
L 145.631647 189.172796 
L 146.903008 184.802074 
L 148.174368 186.145482 
L 149.445728 177.115665 
L 150.717088 179.997492 
L 151.988448 187.760635 
L 153.259809 184.719346 
L 154.531169 180.702144 
L 155.802529 179.750885 
L 157.073889 182.337441 
L 158.345249 183.389618 
L 159.61661 190.464329 
L 160.88797 190.98085 
L 162.15933 195.375845 
L 163.43069 195.497094 
L 164.702051 198.300375 
L 165.973411 202.088575 
L 167.244771 204.458908 
L 168.516131 209.872477 
L 169.787491 209.577452 
L 171.058852 204.832302 
L 172.330212 209.007171 
L 173.601572 214.802763 
L 177.415653 248.220094 
L 178.687013 257.386799 
L 181.229733 272.356167 
L 183.772454 284.829427 
L 186.315174 295.905847 
L 187.586535 299.11439 
L 188.857895 303.748572 
L 190.129255 307.645702 
L 191.400615 310.151106 
L 192.671975 313.545538 
L 193.943336 316.27366 
L 195.214696 318.538361 
L 196.486056 321.206539 
L 197.757416 322.036126 
L 199.028776 324.194843 
L 201.571497 327.021949 
L 202.842857 327.814657 
L 204.114217 329.355492 
L 205.385578 331.42292 
L 206.656938 332.957451 
L 207.928298 333.462294 
L 209.199658 334.182816 
L 210.471018 333.990123 
L 211.742379 334.95138 
L 213.013739 335.003218 
L 214.285099 334.536311 
L 216.82782 334.679571 
L 218.09918 333.878546 
L 219.37054 334.674862 
L 220.6419 335.040781 
L 221.91326 335.977435 
L 223.184621 336.036375 
L 225.727341 335.836481 
L 226.998701 336.377872 
L 228.270062 336.224012 
L 229.541422 336.199592 
L 230.812782 336.72302 
L 232.084142 337.583432 
L 233.355502 337.454185 
L 234.626863 338.371642 
L 235.898223 338.422306 
L 237.169583 337.762165 
L 238.440943 336.707815 
L 239.712303 337.243613 
L 240.983664 336.749634 
L 242.255024 336.554623 
L 243.526384 335.978219 
L 244.797744 336.946008 
L 248.611825 339.025356 
L 249.883185 338.454568 
L 251.154545 338.077667 
L 252.425906 338.202107 
L 253.697266 338.732814 
L 254.968626 338.779552 
L 256.239986 339.403354 
L 257.511347 340.801597 
L 258.782707 341.309177 
L 260.054067 340.980202 
L 261.325427 340.494084 
L 262.596787 339.464021 
L 263.868148 339.352973 
L 265.139508 340.037319 
L 266.410868 340.346222 
L 267.682228 340.026141 
L 268.953589 339.986477 
L 270.224949 340.507183 
L 272.767669 339.806473 
L 274.039029 339.868708 
L 275.31039 340.226741 
L 276.58175 339.827714 
L 277.85311 339.723903 
L 279.12447 339.976028 
L 280.39583 339.228471 
L 281.667191 339.00177 
L 284.209911 339.375116 
L 285.481271 340.120836 
L 286.752632 340.146822 
L 288.023992 339.73918 
L 289.295352 339.619471 
L 290.566712 339.094427 
L 291.838072 339.804251 
L 294.380793 340.081608 
L 295.652153 340.434907 
L 296.923513 340.539458 
L 298.194874 340.203585 
L 299.466234 340.263629 
L 300.737594 339.968865 
L 302.008954 339.47482 
L 303.280314 338.831463 
L 304.551675 339.489425 
L 305.823035 339.421325 
L 307.094395 339.507259 
L 308.365755 338.958662 
L 309.637116 339.092762 
L 310.908476 338.81354 
L 312.179836 338.86986 
L 315.993917 338.296613 
L 317.265277 337.842852 
L 318.536637 337.878086 
L 319.807997 338.328675 
L 321.079357 338.64099 
L 322.350718 339.690976 
L 323.622078 339.734752 
L 324.893438 340.249564 
L 326.164798 339.824915 
L 327.436159 339.059119 
L 328.707519 339.803057 
L 329.978879 339.695135 
L 332.521599 339.913233 
L 333.79296 340.155044 
L 335.06432 340.12765 
L 336.33568 339.521837 
L 337.60704 339.75735 
L 338.878401 339.679468 
L 340.149761 339.400719 
L 341.421121 339.76853 
L 342.692481 340.305138 
L 343.963841 338.991157 
L 345.235202 338.123953 
L 346.506562 338.846832 
L 347.777922 338.23805 
L 349.049282 339.086976 
L 350.320643 337.294889 
L 351.592003 337.343303 
L 352.863363 337.260248 
L 354.134723 337.554446 
L 355.406083 337.597771 
L 356.677444 336.744451 
L 357.948804 337.518874 
L 359.220164 337.308553 
L 360.491524 336.129054 
L 361.762884 336.837349 
L 363.034245 336.491838 
L 364.305605 337.041023 
L 365.576965 337.271414 
L 366.848325 337.172594 
L 368.119686 336.958241 
L 369.391046 338.145034 
L 370.662406 337.877342 
L 371.933766 338.476433 
L 373.205126 338.686128 
L 374.476487 338.755161 
L 375.747847 339.337946 
L 377.019207 339.234161 
L 378.290567 338.946165 
L 379.561928 339.97046 
L 380.833288 339.974068 
L 382.104648 340.508048 
L 383.376008 340.374027 
L 385.918729 340.802561 
L 387.190089 340.380613 
L 388.461449 340.243828 
L 389.732809 340.776975 
L 391.00417 341.053787 
L 392.27553 341.845 
L 393.54689 340.97075 
L 396.08961 340.658288 
L 397.360971 341.243135 
L 398.632331 340.677819 
L 399.903691 341.305139 
L 401.175051 340.233611 
L 402.446411 340.02956 
L 403.717772 338.396573 
L 404.989132 338.256691 
L 406.260492 339.065862 
L 407.531852 337.938929 
L 408.803213 337.680306 
L 410.074573 337.760784 
L 411.345933 338.090648 
L 412.617293 338.194012 
L 413.888653 337.908356 
L 415.160014 338.466031 
L 416.431374 337.851178 
L 417.702734 337.777213 
L 418.974094 337.389367 
L 420.245455 337.444176 
L 421.516815 338.266211 
L 422.788175 338.819362 
L 424.059535 337.727658 
L 425.330895 337.172607 
L 427.873616 337.061881 
L 430.416336 338.130193 
L 432.959057 338.550743 
L 434.230417 338.0636 
L 435.501777 337.910046 
L 436.773137 338.801933 
L 438.044498 338.860211 
L 441.858578 339.444935 
L 443.129938 339.143209 
L 445.672659 338.964059 
L 446.944019 339.803771 
L 449.48674 340.468276 
L 450.7581 340.419364 
L 452.02946 339.986255 
L 453.30082 340.051293 
L 454.57218 339.789123 
L 457.114901 339.824788 
L 459.657621 339.56642 
L 460.928982 339.390563 
L 462.200342 339.692686 
L 463.471702 339.750219 
L 464.743062 339.430805 
L 467.285783 340.181878 
L 468.557143 339.386084 
L 469.828503 338.80943 
L 471.099863 338.996709 
L 473.642584 338.68794 
L 474.913944 338.238554 
L 476.185304 339.227827 
L 477.456664 339.214767 
L 478.728025 338.209288 
L 479.999385 338.474615 
L 481.270745 338.979623 
L 482.542105 338.807481 
L 483.813465 339.065934 
L 485.084826 340.279405 
L 486.356186 340.898315 
L 487.627546 340.530057 
L 490.170267 341.410158 
L 491.441627 341.636162 
L 492.712987 340.389106 
L 493.984347 340.795229 
L 495.255707 340.939422 
L 496.527068 339.813103 
L 497.798428 339.34395 
L 499.069788 339.089117 
L 500.341148 338.209894 
L 501.612509 338.85726 
L 502.883869 339.217554 
L 504.155229 339.894003 
L 506.697949 340.656361 
L 507.96931 340.150339 
L 509.24067 339.887379 
L 510.51203 340.371993 
L 511.78339 339.910205 
L 513.054751 339.608566 
L 514.326111 339.065066 
L 515.597471 337.716182 
L 516.868831 337.546554 
L 518.140191 337.861221 
L 519.411552 338.889393 
L 520.682912 338.123885 
L 521.954272 338.851918 
L 523.225632 339.226646 
L 524.496992 338.227793 
L 525.768353 338.81723 
L 527.039713 339.171423 
L 528.311073 338.923562 
L 529.582433 339.179139 
L 530.853794 338.91727 
L 532.125154 339.076195 
L 533.396514 339.750591 
L 534.667874 338.979358 
L 535.939234 338.449458 
L 537.210595 338.257901 
L 538.481955 337.616872 
L 539.753315 337.544896 
L 541.024675 337.861622 
L 542.296036 338.53206 
L 543.567396 338.497461 
L 544.838756 339.055613 
L 546.110116 338.961062 
L 547.381476 339.458626 
L 548.652837 340.443577 
L 549.924197 339.623503 
L 551.195557 339.883349 
L 552.466917 339.964395 
L 553.738278 340.587851 
L 555.009638 339.701062 
L 556.280998 339.327844 
L 557.552358 339.4236 
L 558.823718 340.027498 
L 563.909159 339.153918 
L 565.180519 338.08495 
L 566.45188 338.592472 
L 567.72324 339.598044 
L 574.080041 337.467666 
L 575.351401 337.437423 
L 577.894122 337.739703 
L 580.436842 338.885358 
L 581.708202 339.066526 
L 582.979563 339.782587 
L 584.250923 339.210537 
L 585.522283 338.996738 
L 586.793643 339.420181 
L 588.065003 339.563117 
L 589.336364 340.232205 
L 589.336364 340.232205 
" clip-path="url(#p01c7c65d19)" style="fill: none; stroke: #2ca02c; stroke-width: 1.2; stroke-linecap: square"/>
   </g>
   <g id="line2d_32">
    <path d="M 82.063636 137.154768 
L 83.334997 126.471329 
L 84.606357 121.081485 
L 85.877717 118.72304 
L 87.149077 111.113845 
L 88.420437 104.866172 
L 89.691798 97.658325 
L 90.963158 93.088298 
L 92.234518 87.315303 
L 93.505878 79.093334 
L 94.777239 74.428203 
L 96.048599 77.574622 
L 97.319959 74.42197 
L 98.591319 70.595258 
L 99.862679 65.702401 
L 101.13404 64.209337 
L 102.4054 59.415574 
L 103.67676 58.211378 
L 104.94812 53.436467 
L 106.219481 55.724657 
L 108.762201 47.536028 
L 110.033561 49.336613 
L 111.304921 52.506689 
L 112.576282 48.759753 
L 113.847642 46.197389 
L 115.119002 40.614552 
L 116.390362 40.67675 
L 117.661722 39.445 
L 118.933083 41.100514 
L 120.204443 44.426467 
L 121.475803 45.900206 
L 122.747163 49.228795 
L 124.018524 45.291395 
L 125.289884 45.026962 
L 126.561244 42.42077 
L 127.832604 42.022371 
L 129.103964 52.072173 
L 131.646685 105.632395 
L 134.189405 150.006374 
L 136.732126 186.371398 
L 138.003486 201.166421 
L 140.546206 227.010257 
L 143.088927 248.078459 
L 144.360287 257.568184 
L 145.631647 265.685175 
L 146.903008 273.041151 
L 148.174368 279.665184 
L 151.988448 295.480075 
L 153.259809 300.360044 
L 155.802529 306.369511 
L 159.61661 313.888423 
L 160.88797 314.601169 
L 162.15933 316.881884 
L 163.43069 319.423802 
L 164.702051 321.432097 
L 165.973411 322.707013 
L 167.244771 324.165387 
L 168.516131 325.273662 
L 169.787491 326.010663 
L 171.058852 328.112075 
L 172.330212 327.743552 
L 173.601572 328.094534 
L 174.872932 327.990122 
L 176.144293 329.407568 
L 177.415653 330.47771 
L 178.687013 332.123332 
L 179.958373 332.47594 
L 181.229733 332.49691 
L 182.501094 333.514454 
L 183.772454 333.073215 
L 185.043814 333.110357 
L 186.315174 334.114009 
L 187.586535 333.479639 
L 188.857895 334.40255 
L 190.129255 334.754352 
L 191.400615 334.862203 
L 192.671975 335.917511 
L 193.943336 335.560746 
L 195.214696 335.746172 
L 196.486056 335.089199 
L 199.028776 336.343834 
L 201.571497 336.275576 
L 202.842857 336.958092 
L 204.114217 337.36014 
L 205.385578 337.487594 
L 206.656938 337.140175 
L 207.928298 337.355763 
L 209.199658 337.852437 
L 210.471018 339.638329 
L 211.742379 337.262808 
L 213.013739 337.385573 
L 214.285099 337.989471 
L 215.556459 337.052192 
L 216.82782 336.87516 
L 218.09918 337.13054 
L 220.6419 336.977909 
L 221.91326 337.96722 
L 223.184621 337.651438 
L 224.455981 337.057631 
L 225.727341 335.657598 
L 226.998701 334.908435 
L 228.270062 333.583874 
L 229.541422 333.132717 
L 230.812782 333.987988 
L 232.084142 335.019519 
L 233.355502 334.689058 
L 234.626863 335.770746 
L 235.898223 335.034581 
L 237.169583 334.448043 
L 238.440943 333.514572 
L 239.712303 333.482613 
L 240.983664 334.002347 
L 242.255024 333.03942 
L 244.797744 334.201171 
L 246.069105 334.389993 
L 247.340465 335.087481 
L 248.611825 335.99856 
L 249.883185 334.64006 
L 251.154545 334.631112 
L 252.425906 335.271008 
L 256.239986 335.895979 
L 257.511347 336.766959 
L 258.782707 337.332374 
L 260.054067 336.823393 
L 261.325427 335.232648 
L 262.596787 334.479001 
L 263.868148 334.618567 
L 265.139508 333.692455 
L 267.682228 334.481788 
L 268.953589 335.081479 
L 270.224949 336.123327 
L 271.496309 335.409539 
L 274.039029 336.32374 
L 275.31039 337.234626 
L 277.85311 338.817934 
L 279.12447 338.630655 
L 280.39583 337.855573 
L 281.667191 337.442087 
L 282.938551 336.508437 
L 284.209911 336.007134 
L 285.481271 336.422446 
L 286.752632 336.477194 
L 288.023992 336.79927 
L 289.295352 338.885188 
L 290.566712 338.905714 
L 291.838072 338.211002 
L 293.109433 337.990711 
L 294.380793 337.499757 
L 295.652153 335.600992 
L 296.923513 335.385481 
L 298.194874 334.627807 
L 302.008954 335.722592 
L 303.280314 334.955691 
L 304.551675 334.907621 
L 305.823035 334.618764 
L 307.094395 334.179725 
L 308.365755 334.991484 
L 310.908476 333.964402 
L 312.179836 333.302077 
L 313.451196 334.106513 
L 314.722556 334.173922 
L 315.993917 335.543441 
L 317.265277 335.774486 
L 319.807997 337.138635 
L 321.079357 337.509768 
L 322.350718 338.455127 
L 323.622078 338.733651 
L 324.893438 337.387012 
L 326.164798 337.783192 
L 327.436159 338.787555 
L 328.707519 337.90974 
L 331.250239 336.961817 
L 332.521599 338.335862 
L 333.79296 338.707838 
L 336.33568 337.775784 
L 337.60704 338.292098 
L 338.878401 339.056397 
L 340.149761 337.822699 
L 341.421121 336.937556 
L 342.692481 337.408924 
L 346.506562 339.806484 
L 347.777922 339.99287 
L 349.049282 338.183796 
L 350.320643 338.188738 
L 351.592003 337.226151 
L 352.863363 337.335976 
L 354.134723 337.891599 
L 355.406083 338.058201 
L 356.677444 337.774803 
L 357.948804 337.907348 
L 359.220164 336.937986 
L 360.491524 337.225768 
L 361.762884 336.424203 
L 363.034245 336.629204 
L 364.305605 335.44029 
L 365.576965 335.978413 
L 366.848325 337.039025 
L 368.119686 336.590565 
L 369.391046 335.2269 
L 370.662406 334.775475 
L 371.933766 334.446832 
L 373.205126 335.177641 
L 374.476487 335.258633 
L 375.747847 334.751268 
L 377.019207 335.224907 
L 378.290567 332.679994 
L 379.561928 332.719662 
L 380.833288 333.574559 
L 382.104648 334.879537 
L 383.376008 332.793078 
L 384.647368 331.904293 
L 388.461449 333.843071 
L 389.732809 334.133498 
L 391.00417 333.861928 
L 393.54689 336.166433 
L 394.81825 336.401503 
L 396.08961 336.964732 
L 397.360971 336.91898 
L 398.632331 337.172057 
L 399.903691 336.848751 
L 401.175051 335.173356 
L 402.446411 334.636558 
L 403.717772 334.97277 
L 404.989132 335.55787 
L 406.260492 336.62856 
L 407.531852 336.995421 
L 408.803213 337.557679 
L 410.074573 336.890392 
L 412.617293 336.974107 
L 413.888653 336.820222 
L 415.160014 336.048034 
L 416.431374 334.936357 
L 417.702734 334.790718 
L 418.974094 335.20491 
L 420.245455 336.881941 
L 421.516815 337.466321 
L 422.788175 338.862054 
L 424.059535 337.772904 
L 425.330895 337.475204 
L 426.602256 338.377197 
L 427.873616 338.011868 
L 429.144976 337.526742 
L 430.416336 337.805567 
L 431.687697 337.449552 
L 432.959057 337.25279 
L 434.230417 338.100414 
L 435.501777 337.722187 
L 436.773137 337.800568 
L 438.044498 337.419996 
L 439.315858 337.581681 
L 440.587218 337.563004 
L 441.858578 337.142728 
L 443.129938 336.01466 
L 444.401299 336.131343 
L 445.672659 335.674938 
L 446.944019 334.805116 
L 448.215379 334.73039 
L 449.48674 335.53066 
L 450.7581 334.895705 
L 452.02946 332.250598 
L 453.30082 333.219022 
L 455.843541 333.517579 
L 457.114901 333.661397 
L 458.386261 334.910897 
L 459.657621 335.015336 
L 460.928982 336.070071 
L 462.200342 336.205076 
L 464.743062 337.537854 
L 466.014422 338.53619 
L 467.285783 339.681856 
L 468.557143 338.840995 
L 469.828503 339.448375 
L 471.099863 339.820962 
L 472.371224 340.398672 
L 473.642584 340.195809 
L 474.913944 341.155686 
L 476.185304 340.941603 
L 477.456664 340.212044 
L 479.999385 339.551402 
L 481.270745 338.881735 
L 482.542105 338.95202 
L 483.813465 337.560249 
L 486.356186 338.576548 
L 487.627546 337.813534 
L 488.898906 338.445804 
L 490.170267 339.503645 
L 492.712987 340.527077 
L 493.984347 340.585231 
L 495.255707 339.238402 
L 496.527068 339.060668 
L 497.798428 337.086736 
L 499.069788 337.618449 
L 500.341148 336.723236 
L 501.612509 336.115378 
L 502.883869 336.857008 
L 505.426589 336.863318 
L 506.697949 337.083511 
L 507.96931 337.068376 
L 509.24067 337.333938 
L 510.51203 337.316822 
L 513.054751 335.782512 
L 514.326111 334.277211 
L 516.868831 335.885111 
L 518.140191 335.119478 
L 519.411552 335.36707 
L 520.682912 335.970059 
L 521.954272 336.831594 
L 524.496992 336.062967 
L 525.768353 336.255415 
L 527.039713 336.843029 
L 528.311073 336.949361 
L 529.582433 336.84171 
L 530.853794 335.890895 
L 532.125154 335.648208 
L 533.396514 336.340323 
L 534.667874 337.352107 
L 535.939234 337.794104 
L 537.210595 337.722689 
L 538.481955 337.994962 
L 539.753315 337.902304 
L 541.024675 338.399381 
L 543.567396 336.835073 
L 544.838756 337.059418 
L 546.110116 336.629634 
L 547.381476 338.007534 
L 548.652837 336.77557 
L 549.924197 337.270883 
L 551.195557 336.579793 
L 552.466917 336.49128 
L 555.009638 336.719627 
L 556.280998 336.386723 
L 557.552358 335.062487 
L 558.823718 335.157759 
L 560.095079 335.576787 
L 561.366439 335.326286 
L 562.637799 335.838131 
L 563.909159 335.902249 
L 565.180519 335.057141 
L 566.45188 334.905906 
L 567.72324 334.581463 
L 568.9946 334.544221 
L 570.26596 334.073452 
L 572.808681 334.7866 
L 574.080041 336.263766 
L 575.351401 335.794997 
L 576.622761 337.281003 
L 577.894122 337.652058 
L 579.165482 336.588358 
L 580.436842 336.225702 
L 582.979563 337.480401 
L 584.250923 337.417202 
L 585.522283 338.067009 
L 586.793643 337.732819 
L 588.065003 336.610206 
L 589.336364 336.776534 
L 589.336364 336.776534 
" clip-path="url(#p01c7c65d19)" style="fill: none; stroke: #d62728; stroke-width: 1.2; stroke-linecap: square"/>
   </g>
   <g id="line2d_33">
    <path d="M 82.063636 107.63907 
L 83.334997 104.412955 
L 85.877717 107.679787 
L 89.691798 148.952354 
L 90.963158 163.683181 
L 96.048599 215.370377 
L 98.591319 237.073224 
L 99.862679 246.818561 
L 102.4054 263.292386 
L 103.67676 271.129042 
L 104.94812 278.086285 
L 106.219481 284.408349 
L 107.490841 289.396934 
L 108.762201 293.119614 
L 110.033561 297.514245 
L 112.576282 304.687761 
L 113.847642 307.140354 
L 115.119002 310.92726 
L 117.661722 316.676031 
L 118.933083 318.767459 
L 122.747163 324.215927 
L 124.018524 324.267848 
L 125.289884 326.068306 
L 126.561244 326.496949 
L 127.832604 326.005386 
L 129.103964 326.730446 
L 130.375325 327.70576 
L 131.646685 329.612708 
L 132.918045 328.070795 
L 134.189405 329.141845 
L 136.732126 328.361414 
L 138.003486 328.981269 
L 139.274846 330.290892 
L 140.546206 331.158335 
L 141.817567 330.455357 
L 143.088927 331.311898 
L 144.360287 331.826389 
L 145.631647 332.924153 
L 146.903008 332.672467 
L 148.174368 332.543145 
L 149.445728 332.62193 
L 150.717088 333.364598 
L 151.988448 334.500835 
L 153.259809 334.610105 
L 154.531169 333.674476 
L 155.802529 334.336138 
L 157.073889 332.5968 
L 158.345249 333.539551 
L 159.61661 333.757288 
L 160.88797 334.113415 
L 162.15933 333.102787 
L 163.43069 334.368616 
L 165.973411 336.401793 
L 167.244771 335.785883 
L 169.787491 335.120421 
L 171.058852 335.591903 
L 172.330212 336.330461 
L 173.601572 335.5419 
L 174.872932 335.721707 
L 176.144293 334.29056 
L 178.687013 334.337501 
L 179.958373 335.539807 
L 181.229733 335.110012 
L 182.501094 335.996684 
L 183.772454 336.309131 
L 185.043814 336.774155 
L 186.315174 337.812932 
L 187.586535 336.596558 
L 188.857895 335.78676 
L 190.129255 335.77825 
L 191.400615 336.114933 
L 192.671975 336.719776 
L 193.943336 337.488069 
L 195.214696 338.551787 
L 196.486056 337.801609 
L 197.757416 337.552189 
L 199.028776 337.672843 
L 200.300137 338.33497 
L 201.571497 338.851716 
L 202.842857 338.748359 
L 204.114217 338.300317 
L 205.385578 338.963113 
L 207.928298 338.098301 
L 209.199658 337.927815 
L 210.471018 338.704585 
L 211.742379 338.614871 
L 213.013739 339.480691 
L 214.285099 339.928327 
L 215.556459 339.110469 
L 216.82782 339.137143 
L 218.09918 339.667348 
L 219.37054 338.918707 
L 220.6419 339.591776 
L 221.91326 339.293044 
L 223.184621 338.485675 
L 224.455981 339.01878 
L 226.998701 338.457091 
L 228.270062 337.786293 
L 229.541422 337.486101 
L 230.812782 338.177789 
L 232.084142 338.474731 
L 233.355502 337.710557 
L 234.626863 338.366863 
L 237.169583 337.294907 
L 238.440943 338.865103 
L 239.712303 337.247039 
L 240.983664 337.874558 
L 242.255024 337.782063 
L 244.797744 337.192748 
L 246.069105 336.682221 
L 247.340465 335.977618 
L 248.611825 336.85769 
L 249.883185 338.064752 
L 251.154545 337.869543 
L 252.425906 338.483537 
L 253.697266 338.610948 
L 254.968626 338.537638 
L 256.239986 339.236692 
L 257.511347 339.728482 
L 258.782707 338.674828 
L 260.054067 338.227302 
L 261.325427 339.283635 
L 262.596787 336.701664 
L 263.868148 337.353665 
L 265.139508 337.609949 
L 267.682228 337.131949 
L 268.953589 337.591265 
L 270.224949 337.261759 
L 272.767669 337.958553 
L 274.039029 337.266445 
L 275.31039 337.873847 
L 276.58175 336.528292 
L 277.85311 336.43763 
L 279.12447 337.258862 
L 280.39583 336.69713 
L 281.667191 337.791603 
L 284.209911 336.746652 
L 285.481271 336.807034 
L 286.752632 337.295289 
L 288.023992 337.186601 
L 290.566712 339.053471 
L 291.838072 337.799734 
L 293.109433 335.903022 
L 294.380793 336.565795 
L 295.652153 336.857266 
L 296.923513 335.296563 
L 299.466234 336.423404 
L 300.737594 336.72903 
L 302.008954 337.74568 
L 303.280314 337.568318 
L 304.551675 337.999783 
L 305.823035 337.580668 
L 307.094395 338.352481 
L 308.365755 337.867975 
L 310.908476 340.090489 
L 312.179836 339.49716 
L 313.451196 339.407087 
L 315.993917 338.82959 
L 317.265277 339.08558 
L 318.536637 338.181642 
L 319.807997 339.069394 
L 322.350718 338.944375 
L 323.622078 339.092176 
L 326.164798 338.180557 
L 327.436159 338.390212 
L 328.707519 338.083258 
L 329.978879 338.139289 
L 331.250239 337.693951 
L 332.521599 337.685028 
L 333.79296 337.464759 
L 335.06432 334.792722 
L 336.33568 334.182777 
L 337.60704 333.795202 
L 338.878401 334.356659 
L 340.149761 334.512502 
L 341.421121 334.500358 
L 342.692481 333.816519 
L 343.963841 332.727573 
L 345.235202 333.158093 
L 346.506562 334.7034 
L 347.777922 334.774183 
L 349.049282 334.649479 
L 351.592003 336.482564 
L 352.863363 337.031737 
L 354.134723 337.753938 
L 355.406083 337.773262 
L 356.677444 338.540969 
L 357.948804 338.794429 
L 361.762884 338.306343 
L 363.034245 337.683967 
L 364.305605 338.184634 
L 365.576965 338.563727 
L 366.848325 339.113119 
L 368.119686 339.150308 
L 369.391046 338.322177 
L 370.662406 337.901839 
L 373.205126 336.573106 
L 374.476487 336.208211 
L 375.747847 336.446628 
L 377.019207 336.21003 
L 378.290567 336.545827 
L 379.561928 336.312943 
L 380.833288 336.753901 
L 382.104648 337.739628 
L 383.376008 338.045413 
L 384.647368 337.387574 
L 385.918729 338.170016 
L 387.190089 337.676256 
L 389.732809 336.049336 
L 391.00417 336.749701 
L 392.27553 336.981098 
L 393.54689 337.609601 
L 394.81825 336.941342 
L 396.08961 337.243117 
L 397.360971 338.322327 
L 398.632331 339.077615 
L 399.903691 338.475452 
L 401.175051 336.978623 
L 402.446411 335.238549 
L 403.717772 335.648035 
L 404.989132 335.747832 
L 406.260492 335.396581 
L 407.531852 336.15217 
L 410.074573 336.91164 
L 411.345933 337.009932 
L 412.617293 337.669614 
L 413.888653 338.939312 
L 415.160014 338.933557 
L 416.431374 339.291765 
L 418.974094 341.178639 
L 420.245455 341.473547 
L 421.516815 339.822125 
L 422.788175 339.876863 
L 424.059535 339.728576 
L 425.330895 339.836223 
L 426.602256 339.476024 
L 427.873616 339.324158 
L 429.144976 340.265097 
L 431.687697 339.347403 
L 432.959057 339.443255 
L 435.501777 340.188615 
L 436.773137 340.357631 
L 438.044498 338.682143 
L 439.315858 338.88319 
L 440.587218 338.944751 
L 441.858578 338.552601 
L 443.129938 338.598831 
L 444.401299 338.926986 
L 445.672659 338.323979 
L 446.944019 338.08493 
L 448.215379 339.070781 
L 449.48674 339.642754 
L 450.7581 340.000267 
L 452.02946 339.777797 
L 453.30082 338.516986 
L 454.57218 338.060731 
L 455.843541 338.001052 
L 457.114901 337.734903 
L 458.386261 337.175125 
L 459.657621 336.204114 
L 460.928982 335.944283 
L 462.200342 336.461086 
L 463.471702 336.364308 
L 464.743062 334.634312 
L 466.014422 333.769726 
L 467.285783 334.501619 
L 468.557143 334.690056 
L 469.828503 334.530966 
L 471.099863 335.015324 
L 472.371224 335.881838 
L 473.642584 335.098761 
L 474.913944 335.259785 
L 476.185304 335.850809 
L 477.456664 334.688819 
L 478.728025 335.327493 
L 479.999385 336.382651 
L 481.270745 335.850368 
L 482.542105 336.36909 
L 483.813465 335.927277 
L 485.084826 336.676757 
L 487.627546 337.706152 
L 488.898906 336.290558 
L 490.170267 337.512396 
L 491.441627 338.00108 
L 492.712987 336.377849 
L 493.984347 336.706158 
L 495.255707 337.351875 
L 496.527068 337.84754 
L 497.798428 338.164376 
L 499.069788 338.775861 
L 501.612509 337.618414 
L 502.883869 338.284089 
L 504.155229 336.782437 
L 505.426589 336.486253 
L 506.697949 337.427193 
L 507.96931 337.802316 
L 510.51203 337.313901 
L 511.78339 338.265634 
L 513.054751 338.678721 
L 514.326111 338.601513 
L 515.597471 337.181938 
L 516.868831 337.897658 
L 518.140191 338.891336 
L 519.411552 337.760859 
L 520.682912 336.110298 
L 521.954272 335.629053 
L 523.225632 335.281034 
L 524.496992 336.440237 
L 525.768353 337.060293 
L 528.311073 336.761182 
L 529.582433 337.360377 
L 530.853794 337.606326 
L 532.125154 336.123074 
L 534.667874 335.940375 
L 535.939234 337.450257 
L 537.210595 338.112883 
L 538.481955 335.95454 
L 539.753315 337.629329 
L 541.024675 337.515883 
L 542.296036 338.007335 
L 543.567396 338.625212 
L 544.838756 337.899889 
L 546.110116 337.612968 
L 547.381476 337.945498 
L 549.924197 337.455519 
L 551.195557 336.031501 
L 552.466917 336.583934 
L 553.738278 336.668404 
L 555.009638 338.539311 
L 556.280998 339.274391 
L 557.552358 337.936514 
L 560.095079 337.163385 
L 561.366439 337.742592 
L 562.637799 338.680869 
L 563.909159 337.943369 
L 565.180519 338.908255 
L 566.45188 339.530499 
L 567.72324 339.598512 
L 568.9946 339.860895 
L 570.26596 339.641049 
L 571.537321 339.248524 
L 572.808681 338.193828 
L 574.080041 338.582154 
L 575.351401 336.982649 
L 577.894122 339.179097 
L 579.165482 338.637512 
L 581.708202 340.013494 
L 582.979563 340.337326 
L 585.522283 339.672154 
L 586.793643 340.005251 
L 588.065003 339.700276 
L 588.065003 339.700276 
" clip-path="url(#p01c7c65d19)" style="fill: none; stroke: #9467bd; stroke-width: 1.2; stroke-linecap: square"/>
   </g>
   <g id="patch_3">
    <path d="M 56.7 356.965 
L 56.7 24.325 
" style="fill: none; stroke: #000000; stroke-width: 0.8; stroke-linejoin: miter; stroke-linecap: square"/>
   </g>
   <g id="patch_4">
    <path d="M 614.7 356.965 
L 614.7 24.325 
" style="fill: none; stroke: #000000; stroke-width: 0.8; stroke-linejoin: miter; stroke-linecap: square"/>
   </g>
   <g id="patch_5">
    <path d="M 56.7 356.965 
L 614.7 356.965 
" style="fill: none; stroke: #000000; stroke-width: 0.8; stroke-linejoin: miter; stroke-linecap: square"/>
   </g>
   <g id="patch_6">
    <path d="M 56.7 24.325 
L 614.7 24.325 
" style="fill: none; stroke: #000000; stroke-width: 0.8; stroke-linejoin: miter; stroke-linecap: square"/>
   </g>
   <g id="text_17">
    <!-- Average Transmission Delay -->
    <g transform="translate(231.7 18.325) scale(0.16 -0.16)">
     <defs>
      <path id="SimHei-41" d="M 3075 125 
L 2475 125 
L 2125 1450 
L 1025 1450 
L 675 125 
L 75 125 
L 1325 4450 
L 1825 4450 
L 3075 125 
z
M 2000 1925 
L 1600 3450 
L 1550 3450 
L 1150 1925 
L 2000 1925 
z
" transform="scale(0.015625)"/>
      <path id="SimHei-76" d="M 2875 2925 
L 1825 75 
L 1275 75 
L 225 2925 
L 750 2925 
L 1525 750 
L 1575 750 
L 2350 2925 
L 2875 2925 
z
" transform="scale(0.015625)"/>
      <path id="SimHei-72" d="M 2500 2425 
Q 2025 2500 1700 2287 
Q 1375 2075 1150 1550 
L 1150 125 
L 650 125 
L 650 2925 
L 1150 2925 
L 1150 2200 
Q 1375 2600 1712 2787 
Q 2050 2975 2500 2975 
L 2500 2425 
z
" transform="scale(0.015625)"/>
      <path id="SimHei-67" d="M 2975 2500 
Q 2800 2550 2637 2562 
Q 2475 2575 2300 2525 
Q 2375 2450 2425 2337 
Q 2475 2225 2475 2000 
Q 2475 1575 2187 1300 
Q 1900 1025 1475 1025 
Q 1375 1025 1212 1062 
Q 1050 1100 950 1150 
Q 875 1100 850 1050 
Q 825 1000 825 925 
Q 825 800 1000 737 
Q 1175 675 1625 675 
Q 2350 675 2612 475 
Q 2875 275 2875 -25 
Q 2875 -425 2487 -612 
Q 2100 -800 1575 -800 
Q 900 -800 575 -625 
Q 250 -450 250 -150 
Q 250 0 375 150 
Q 500 300 700 400 
Q 550 475 462 587 
Q 375 700 375 875 
Q 375 1025 487 1137 
Q 600 1250 750 1325 
Q 625 1450 550 1625 
Q 475 1800 475 2000 
Q 475 2425 762 2700 
Q 1050 2975 1475 2975 
Q 1700 2975 1862 2912 
Q 2025 2850 2150 2725 
Q 2350 2875 2550 2937 
Q 2750 3000 2975 2975 
L 2975 2500 
z
M 1975 2000 
Q 1975 2250 1850 2400 
Q 1725 2550 1475 2550 
Q 1225 2550 1100 2400 
Q 975 2250 975 2000 
Q 975 1750 1100 1600 
Q 1225 1450 1475 1450 
Q 1725 1450 1850 1600 
Q 1975 1750 1975 2000 
z
M 2400 -75 
Q 2400 25 2287 125 
Q 2175 225 1725 225 
Q 1625 225 1450 237 
Q 1275 250 1050 275 
Q 850 200 775 100 
Q 700 0 700 -100 
Q 700 -250 900 -350 
Q 1100 -450 1600 -450 
Q 2025 -450 2212 -337 
Q 2400 -225 2400 -75 
z
" transform="scale(0.015625)"/>
      <path id="SimHei-54" d="M 2850 3925 
L 1850 3925 
L 1850 125 
L 1275 125 
L 1275 3925 
L 275 3925 
L 275 4400 
L 2850 4400 
L 2850 3925 
z
" transform="scale(0.015625)"/>
      <path id="SimHei-6e" d="M 2800 125 
L 2300 125 
L 2300 1925 
Q 2300 2225 2150 2400 
Q 2000 2575 1750 2575 
Q 1425 2575 1137 2237 
Q 850 1900 850 1400 
L 850 125 
L 350 125 
L 350 2925 
L 850 2925 
L 850 2400 
Q 1050 2675 1287 2825 
Q 1525 2975 1900 2975 
Q 2350 2975 2575 2725 
Q 2800 2475 2800 2100 
L 2800 125 
z
" transform="scale(0.015625)"/>
      <path id="SimHei-6d" d="M 3050 125 
L 2550 125 
L 2550 2150 
Q 2550 2300 2500 2400 
Q 2450 2500 2300 2500 
Q 2125 2500 1975 2312 
Q 1825 2125 1825 1825 
L 1825 125 
L 1325 125 
L 1325 2150 
Q 1325 2300 1275 2400 
Q 1225 2500 1075 2500 
Q 900 2500 750 2312 
Q 600 2125 600 1825 
L 600 125 
L 100 125 
L 100 2925 
L 600 2925 
L 600 2550 
Q 725 2750 900 2862 
Q 1075 2975 1275 2975 
Q 1475 2975 1612 2862 
Q 1750 2750 1800 2550 
Q 1925 2750 2087 2862 
Q 2250 2975 2450 2975 
Q 2750 2975 2900 2812 
Q 3050 2650 3050 2350 
L 3050 125 
z
" transform="scale(0.015625)"/>
     </defs>
     <use xlink:href="#SimHei-41"/>
     <use xlink:href="#SimHei-76" transform="translate(50 0)"/>
     <use xlink:href="#SimHei-65" transform="translate(100 0)"/>
     <use xlink:href="#SimHei-72" transform="translate(150 0)"/>
     <use xlink:href="#SimHei-61" transform="translate(200 0)"/>
     <use xlink:href="#SimHei-67" transform="translate(250 0)"/>
     <use xlink:href="#SimHei-65" transform="translate(300 0)"/>
     <use xlink:href="#SimHei-20" transform="translate(350 0)"/>
     <use xlink:href="#SimHei-54" transform="translate(400 0)"/>
     <use xlink:href="#SimHei-72" transform="translate(450 0)"/>
     <use xlink:href="#SimHei-61" transform="translate(500 0)"/>
     <use xlink:href="#SimHei-6e" transform="translate(550 0)"/>
     <use xlink:href="#SimHei-73" transform="translate(600 0)"/>
     <use xlink:href="#SimHei-6d" transform="translate(650 0)"/>
     <use xlink:href="#SimHei-69" transform="translate(700 0)"/>
     <use xlink:href="#SimHei-73" transform="translate(750 0)"/>
     <use xlink:href="#SimHei-73" transform="translate(800 0)"/>
     <use xlink:href="#SimHei-69" transform="translate(850 0)"/>
     <use xlink:href="#SimHei-6f" transform="translate(900 0)"/>
     <use xlink:href="#SimHei-6e" transform="translate(950 0)"/>
     <use xlink:href="#SimHei-20" transform="translate(1000 0)"/>
     <use xlink:href="#SimHei-44" transform="translate(1050 0)"/>
     <use xlink:href="#SimHei-65" transform="translate(1100 0)"/>
     <use xlink:href="#SimHei-6c" transform="translate(1150 0)"/>
     <use xlink:href="#SimHei-61" transform="translate(1200 0)"/>
     <use xlink:href="#SimHei-79" transform="translate(1250 0)"/>
    </g>
   </g>
   <g id="legend_1">
    <g id="patch_7">
     <path d="M 519.9 113.425 
L 606.3 113.425 
Q 608.7 113.425 608.7 111.025 
L 608.7 32.725 
Q 608.7 30.325 606.3 30.325 
L 519.9 30.325 
Q 517.5 30.325 517.5 32.725 
L 517.5 111.025 
Q 517.5 113.425 519.9 113.425 
z
" style="fill: #ffffff; opacity: 0.8; stroke: #cccccc; stroke-linejoin: miter"/>
    </g>
    <g id="line2d_34">
     <path d="M 522.3 39.325 
L 534.3 39.325 
L 546.3 39.325 
" style="fill: none; stroke: #1f77b4; stroke-width: 1.2; stroke-linecap: square"/>
    </g>
    <g id="text_18">
     <!-- DDPG -->
     <g transform="translate(555.9 43.525) scale(0.12 -0.12)">
      <defs>
       <path id="SimHei-50" d="M 2950 3100 
Q 2950 2500 2600 2150 
Q 2250 1800 1625 1800 
L 900 1800 
L 900 125 
L 325 125 
L 325 4400 
L 1625 4400 
Q 2250 4400 2600 4050 
Q 2950 3700 2950 3100 
z
M 2375 3100 
Q 2375 3575 2150 3750 
Q 1925 3925 1475 3925 
L 900 3925 
L 900 2275 
L 1475 2275 
Q 1925 2275 2150 2450 
Q 2375 2625 2375 3100 
z
" transform="scale(0.015625)"/>
       <path id="SimHei-47" d="M 2850 75 
L 2425 75 
L 2350 425 
Q 2250 275 2037 175 
Q 1825 75 1575 75 
Q 1050 75 637 562 
Q 225 1050 225 2125 
Q 225 3300 600 3875 
Q 975 4450 1625 4450 
Q 2200 4450 2525 4025 
Q 2850 3600 2850 2925 
L 2300 2925 
Q 2300 3450 2125 3712 
Q 1950 3975 1625 3975 
Q 1225 3975 1025 3562 
Q 825 3150 825 2175 
Q 825 1250 1075 900 
Q 1325 550 1650 550 
Q 1975 550 2162 787 
Q 2350 1025 2350 1525 
L 2350 1800 
L 1575 1800 
L 1575 2275 
L 2850 2275 
L 2850 75 
z
" transform="scale(0.015625)"/>
      </defs>
      <use xlink:href="#SimHei-44"/>
      <use xlink:href="#SimHei-44" transform="translate(50 0)"/>
      <use xlink:href="#SimHei-50" transform="translate(100 0)"/>
      <use xlink:href="#SimHei-47" transform="translate(150 0)"/>
     </g>
    </g>
    <g id="line2d_35">
     <path d="M 522.3 55.225 
L 534.3 55.225 
L 546.3 55.225 
" style="fill: none; stroke: #ff7f0e; stroke-width: 1.2; stroke-linecap: square"/>
    </g>
    <g id="text_19">
     <!-- PPO -->
     <g transform="translate(555.9 59.425) scale(0.12 -0.12)">
      <defs>
       <path id="SimHei-4f" d="M 2950 2275 
Q 2950 1100 2587 587 
Q 2225 75 1575 75 
Q 925 75 550 587 
Q 175 1100 175 2275 
Q 175 3450 550 3950 
Q 925 4450 1575 4450 
Q 2225 4450 2587 3950 
Q 2950 3450 2950 2275 
z
M 2350 2275 
Q 2350 3325 2125 3650 
Q 1900 3975 1575 3975 
Q 1250 3975 1012 3650 
Q 775 3325 775 2275 
Q 775 1225 1012 887 
Q 1250 550 1575 550 
Q 1900 550 2125 887 
Q 2350 1225 2350 2275 
z
" transform="scale(0.015625)"/>
      </defs>
      <use xlink:href="#SimHei-50"/>
      <use xlink:href="#SimHei-50" transform="translate(50 0)"/>
      <use xlink:href="#SimHei-4f" transform="translate(100 0)"/>
     </g>
    </g>
    <g id="line2d_36">
     <path d="M 522.3 71.125 
L 534.3 71.125 
L 546.3 71.125 
" style="fill: none; stroke: #2ca02c; stroke-width: 1.2; stroke-linecap: square"/>
    </g>
    <g id="text_20">
     <!-- TD3 -->
     <g transform="translate(555.9 75.325) scale(0.12 -0.12)">
      <use xlink:href="#SimHei-54"/>
      <use xlink:href="#SimHei-44" transform="translate(50 0)"/>
      <use xlink:href="#SimHei-33" transform="translate(100 0)"/>
     </g>
    </g>
    <g id="line2d_37">
     <path d="M 522.3 87.025 
L 534.3 87.025 
L 546.3 87.025 
" style="fill: none; stroke: #d62728; stroke-width: 1.2; stroke-linecap: square"/>
    </g>
    <g id="text_21">
     <!-- GCN-DDQN -->
     <g transform="translate(555.9 91.225) scale(0.12 -0.12)">
      <defs>
       <path id="SimHei-43" d="M 2975 1825 
Q 2950 875 2575 475 
Q 2200 75 1675 75 
Q 1075 75 650 562 
Q 225 1050 225 2125 
Q 225 3300 637 3875 
Q 1050 4450 1700 4450 
Q 2250 4450 2612 4037 
Q 2975 3625 2950 2875 
L 2400 2875 
Q 2400 3425 2225 3700 
Q 2050 3975 1700 3975 
Q 1300 3975 1062 3562 
Q 825 3150 825 2175 
Q 825 1275 1062 912 
Q 1300 550 1675 550 
Q 1950 550 2175 812 
Q 2400 1075 2400 1825 
L 2975 1825 
z
" transform="scale(0.015625)"/>
       <path id="SimHei-4e" d="M 2850 125 
L 2225 125 
L 850 3225 
L 825 3225 
L 825 125 
L 250 125 
L 250 4400 
L 875 4400 
L 2250 1300 
L 2275 1300 
L 2275 4400 
L 2850 4400 
L 2850 125 
z
" transform="scale(0.015625)"/>
       <path id="SimHei-2d" d="M 2975 2125 
L 125 2125 
L 125 2525 
L 2975 2525 
L 2975 2125 
z
" transform="scale(0.015625)"/>
       <path id="SimHei-51" d="M 2950 2275 
Q 2950 1675 2862 1262 
Q 2775 850 2575 600 
L 2775 225 
L 2375 -200 
L 2150 225 
Q 2050 150 1900 112 
Q 1750 75 1575 75 
Q 925 75 550 587 
Q 175 1100 175 2275 
Q 175 3450 550 3950 
Q 925 4450 1575 4450 
Q 2225 4450 2587 3950 
Q 2950 3450 2950 2275 
z
M 2350 2275 
Q 2350 3325 2125 3650 
Q 1900 3975 1575 3975 
Q 1250 3975 1012 3650 
Q 775 3325 775 2275 
Q 775 1225 1012 887 
Q 1250 550 1575 550 
Q 1700 550 1800 587 
Q 1900 625 1950 675 
L 1550 1450 
L 1900 1875 
L 2250 1200 
Q 2300 1450 2325 1650 
Q 2350 1850 2350 2275 
z
" transform="scale(0.015625)"/>
      </defs>
      <use xlink:href="#SimHei-47"/>
      <use xlink:href="#SimHei-43" transform="translate(50 0)"/>
      <use xlink:href="#SimHei-4e" transform="translate(100 0)"/>
      <use xlink:href="#SimHei-2d" transform="translate(150 0)"/>
      <use xlink:href="#SimHei-44" transform="translate(200 0)"/>
      <use xlink:href="#SimHei-44" transform="translate(250 0)"/>
      <use xlink:href="#SimHei-51" transform="translate(300 0)"/>
      <use xlink:href="#SimHei-4e" transform="translate(350 0)"/>
     </g>
    </g>
    <g id="line2d_38">
     <path d="M 522.3 102.925 
L 534.3 102.925 
L 546.3 102.925 
" style="fill: none; stroke: #9467bd; stroke-width: 1.2; stroke-linecap: square"/>
    </g>
    <g id="text_22">
     <!-- GLDVTO -->
     <g transform="translate(555.9 107.125) scale(0.12 -0.12)">
      <defs>
       <path id="SimHei-4c" d="M 2900 125 
L 300 125 
L 300 4400 
L 875 4400 
L 875 600 
L 2900 600 
L 2900 125 
z
" transform="scale(0.015625)"/>
       <path id="SimHei-56" d="M 3050 4400 
L 1800 75 
L 1300 75 
L 50 4400 
L 650 4400 
L 1525 1125 
L 1575 1125 
L 2450 4400 
L 3050 4400 
z
" transform="scale(0.015625)"/>
      </defs>
      <use xlink:href="#SimHei-47"/>
      <use xlink:href="#SimHei-4c" transform="translate(50 0)"/>
      <use xlink:href="#SimHei-44" transform="translate(100 0)"/>
      <use xlink:href="#SimHei-56" transform="translate(150 0)"/>
      <use xlink:href="#SimHei-54" transform="translate(200 0)"/>
      <use xlink:href="#SimHei-4f" transform="translate(250 0)"/>
     </g>
    </g>
   </g>
  </g>
 </g>
 <defs>
  <clipPath id="p01c7c65d19">
   <rect x="56.7" y="24.325" width="558" height="332.64"/>
  </clipPath>
 </defs>
</svg>
