<?xml version="1.0" encoding="utf-8" standalone="no"?>
<!DOCTYPE svg PUBLIC "-//W3C//DTD SVG 1.1//EN"
  "http://www.w3.org/Graphics/SVG/1.1/DTD/svg11.dtd">
<svg xmlns:xlink="http://www.w3.org/1999/xlink" width="712.99pt" height="424.835pt" viewBox="0 0 712.99 424.835" xmlns="http://www.w3.org/2000/svg" version="1.1">
 <metadata>
  <rdf:RDF xmlns:dc="http://purl.org/dc/elements/1.1/" xmlns:cc="http://creativecommons.org/ns#" xmlns:rdf="http://www.w3.org/1999/02/22-rdf-syntax-ns#">
   <cc:Work>
    <dc:type rdf:resource="http://purl.org/dc/dcmitype/StillImage"/>
    <dc:date>2026-06-26T14:57:04.291030</dc:date>
    <dc:format>image/svg+xml</dc:format>
    <dc:creator>
     <cc:Agent>
      <dc:title>Matplotlib v3.10.7, https://matplotlib.org/</dc:title>
     </cc:Agent>
    </dc:creator>
   </cc:Work>
  </rdf:RDF>
 </metadata>
 <defs>
  <style type="text/css">*{stroke-linejoin: round; stroke-linecap: butt}</style>
 </defs>
 <g id="figure_1">
  <g id="patch_1">
   <path d="M -0 424.835 
L 712.99 424.835 
L 712.99 0 
L -0 0 
z
" style="fill: #ffffff"/>
  </g>
  <g id="axes_1">
   <g id="patch_2">
    <path d="M 55.2 383.885 
L 705.79 383.885 
L 705.79 24.325 
L 55.2 24.325 
z
" style="fill: #ffffff"/>
   </g>
   <g id="matplotlib.axis_1">
    <g id="xtick_1">
     <g id="line2d_1">
      <path d="M 84.772273 383.885 
L 84.772273 24.325 
" clip-path="url(#pea424f1e1f)" style="fill: none; stroke: #b0b0b0; stroke-opacity: 0.3; stroke-width: 0.8; stroke-linecap: square"/>
     </g>
     <g id="line2d_2">
      <defs>
       <path id="m596ff97f6f" d="M 0 0 
L 0 3.5 
" style="stroke: #000000; stroke-width: 0.8"/>
      </defs>
      <g>
       <use xlink:href="#m596ff97f6f" x="84.772273" y="383.885" style="stroke: #000000; stroke-width: 0.8"/>
      </g>
     </g>
     <g id="text_1">
      <!-- 0 -->
      <g transform="translate(81.772273 399.135) scale(0.12 -0.12)">
       <defs>
        <path id="SimHei-30" d="M 225 2537 
Q 250 3200 412 3587 
Q 575 3975 875 4225 
Q 1175 4475 1612 4475 
Q 2050 4475 2375 4112 
Q 2700 3750 2800 3200 
Q 2900 2650 2862 1937 
Q 2825 1225 2612 775 
Q 2400 325 1975 150 
Q 1550 -25 1125 187 
Q 700 400 525 750 
Q 350 1100 275 1487 
Q 200 1875 225 2537 
z
M 750 2687 
Q 675 2000 800 1462 
Q 925 925 1212 700 
Q 1500 475 1800 612 
Q 2100 750 2237 1162 
Q 2375 1575 2375 2062 
Q 2375 2550 2337 2950 
Q 2300 3350 2112 3675 
Q 1925 4000 1612 4012 
Q 1300 4025 1062 3700 
Q 825 3375 750 2687 
z
" transform="scale(0.015625)"/>
       </defs>
       <use xlink:href="#SimHei-30"/>
      </g>
     </g>
    </g>
    <g id="xtick_2">
     <g id="line2d_3">
      <path d="M 158.888244 383.885 
L 158.888244 24.325 
" clip-path="url(#pea424f1e1f)" style="fill: none; stroke: #b0b0b0; stroke-opacity: 0.3; stroke-width: 0.8; stroke-linecap: square"/>
     </g>
     <g id="line2d_4">
      <g>
       <use xlink:href="#m596ff97f6f" x="158.888244" y="383.885" style="stroke: #000000; stroke-width: 0.8"/>
      </g>
     </g>
     <g id="text_2">
      <!-- 50 -->
      <g transform="translate(152.888244 399.135) scale(0.12 -0.12)">
       <defs>
        <path id="SimHei-35" d="M 550 1325 
Q 725 650 1150 575 
Q 1575 500 1837 662 
Q 2100 825 2212 1087 
Q 2325 1350 2312 1675 
Q 2300 2000 2137 2225 
Q 1975 2450 1725 2525 
Q 1475 2600 1162 2525 
Q 850 2450 650 2175 
L 225 2225 
Q 275 2375 700 4375 
L 2675 4375 
L 2675 3925 
L 1075 3925 
Q 950 3250 825 2850 
Q 1200 3025 1525 3012 
Q 1850 3000 2150 2862 
Q 2450 2725 2587 2487 
Q 2725 2250 2787 2012 
Q 2850 1775 2837 1500 
Q 2825 1225 2725 937 
Q 2625 650 2425 462 
Q 2225 275 1937 162 
Q 1650 50 1275 75 
Q 900 100 562 350 
Q 225 600 100 1200 
L 550 1325 
z
" transform="scale(0.015625)"/>
       </defs>
       <use xlink:href="#SimHei-35"/>
       <use xlink:href="#SimHei-30" transform="translate(50 0)"/>
      </g>
     </g>
    </g>
    <g id="xtick_3">
     <g id="line2d_5">
      <path d="M 233.004216 383.885 
L 233.004216 24.325 
" clip-path="url(#pea424f1e1f)" style="fill: none; stroke: #b0b0b0; stroke-opacity: 0.3; stroke-width: 0.8; stroke-linecap: square"/>
     </g>
     <g id="line2d_6">
      <g>
       <use xlink:href="#m596ff97f6f" x="233.004216" y="383.885" style="stroke: #000000; stroke-width: 0.8"/>
      </g>
     </g>
     <g id="text_3">
      <!-- 100 -->
      <g transform="translate(224.004216 399.135) scale(0.12 -0.12)">
       <defs>
        <path id="SimHei-31" d="M 1400 3600 
Q 1075 3275 575 2975 
L 575 3450 
Q 1200 3875 1600 4450 
L 1900 4450 
L 1900 150 
L 1400 150 
L 1400 3600 
z
" transform="scale(0.015625)"/>
       </defs>
       <use xlink:href="#SimHei-31"/>
       <use xlink:href="#SimHei-30" transform="translate(50 0)"/>
       <use xlink:href="#SimHei-30" transform="translate(100 0)"/>
      </g>
     </g>
    </g>
    <g id="xtick_4">
     <g id="line2d_7">
      <path d="M 307.120188 383.885 
L 307.120188 24.325 
" clip-path="url(#pea424f1e1f)" style="fill: none; stroke: #b0b0b0; stroke-opacity: 0.3; stroke-width: 0.8; stroke-linecap: square"/>
     </g>
     <g id="line2d_8">
      <g>
       <use xlink:href="#m596ff97f6f" x="307.120188" y="383.885" style="stroke: #000000; stroke-width: 0.8"/>
      </g>
     </g>
     <g id="text_4">
      <!-- 150 -->
      <g transform="translate(298.120188 399.135) scale(0.12 -0.12)">
       <use xlink:href="#SimHei-31"/>
       <use xlink:href="#SimHei-35" transform="translate(50 0)"/>
       <use xlink:href="#SimHei-30" transform="translate(100 0)"/>
      </g>
     </g>
    </g>
    <g id="xtick_5">
     <g id="line2d_9">
      <path d="M 381.23616 383.885 
L 381.23616 24.325 
" clip-path="url(#pea424f1e1f)" style="fill: none; stroke: #b0b0b0; stroke-opacity: 0.3; stroke-width: 0.8; stroke-linecap: square"/>
     </g>
     <g id="line2d_10">
      <g>
       <use xlink:href="#m596ff97f6f" x="381.23616" y="383.885" style="stroke: #000000; stroke-width: 0.8"/>
      </g>
     </g>
     <g id="text_5">
      <!-- 200 -->
      <g transform="translate(372.23616 399.135) scale(0.12 -0.12)">
       <defs>
        <path id="SimHei-32" d="M 300 250 
Q 325 625 650 925 
Q 975 1225 1475 1862 
Q 1975 2500 2125 2850 
Q 2275 3200 2237 3450 
Q 2200 3700 2000 3862 
Q 1800 4025 1537 4000 
Q 1275 3975 1037 3800 
Q 800 3625 675 3275 
L 200 3350 
Q 400 3925 712 4187 
Q 1025 4450 1450 4475 
Q 1700 4500 1900 4462 
Q 2100 4425 2312 4287 
Q 2525 4150 2662 3875 
Q 2800 3600 2762 3212 
Q 2725 2825 2375 2287 
Q 2025 1750 1025 600 
L 2825 600 
L 2825 150 
L 300 150 
L 300 250 
z
" transform="scale(0.015625)"/>
       </defs>
       <use xlink:href="#SimHei-32"/>
       <use xlink:href="#SimHei-30" transform="translate(50 0)"/>
       <use xlink:href="#SimHei-30" transform="translate(100 0)"/>
      </g>
     </g>
    </g>
    <g id="xtick_6">
     <g id="line2d_11">
      <path d="M 455.352131 383.885 
L 455.352131 24.325 
" clip-path="url(#pea424f1e1f)" style="fill: none; stroke: #b0b0b0; stroke-opacity: 0.3; stroke-width: 0.8; stroke-linecap: square"/>
     </g>
     <g id="line2d_12">
      <g>
       <use xlink:href="#m596ff97f6f" x="455.352131" y="383.885" style="stroke: #000000; stroke-width: 0.8"/>
      </g>
     </g>
     <g id="text_6">
      <!-- 250 -->
      <g transform="translate(446.352131 399.135) scale(0.12 -0.12)">
       <use xlink:href="#SimHei-32"/>
       <use xlink:href="#SimHei-35" transform="translate(50 0)"/>
       <use xlink:href="#SimHei-30" transform="translate(100 0)"/>
      </g>
     </g>
    </g>
    <g id="xtick_7">
     <g id="line2d_13">
      <path d="M 529.468103 383.885 
L 529.468103 24.325 
" clip-path="url(#pea424f1e1f)" style="fill: none; stroke: #b0b0b0; stroke-opacity: 0.3; stroke-width: 0.8; stroke-linecap: square"/>
     </g>
     <g id="line2d_14">
      <g>
       <use xlink:href="#m596ff97f6f" x="529.468103" y="383.885" style="stroke: #000000; stroke-width: 0.8"/>
      </g>
     </g>
     <g id="text_7">
      <!-- 300 -->
      <g transform="translate(520.468103 399.135) scale(0.12 -0.12)">
       <defs>
        <path id="SimHei-33" d="M 250 1225 
L 700 1300 
Q 800 975 1025 762 
Q 1250 550 1587 562 
Q 1925 575 2125 837 
Q 2325 1100 2300 1437 
Q 2275 1775 2037 1962 
Q 1800 2150 1275 2225 
L 1275 2550 
Q 1800 2600 2037 2825 
Q 2275 3050 2250 3412 
Q 2225 3775 1925 3937 
Q 1625 4100 1287 3975 
Q 950 3850 750 3275 
L 300 3350 
Q 450 3800 712 4100 
Q 975 4400 1425 4450 
Q 1875 4500 2212 4337 
Q 2550 4175 2687 3837 
Q 2825 3500 2725 3100 
Q 2625 2700 2150 2400 
Q 2500 2250 2687 1950 
Q 2875 1650 2812 1162 
Q 2750 675 2375 375 
Q 2000 75 1525 87 
Q 1050 100 700 387 
Q 350 675 250 1225 
z
" transform="scale(0.015625)"/>
       </defs>
       <use xlink:href="#SimHei-33"/>
       <use xlink:href="#SimHei-30" transform="translate(50 0)"/>
       <use xlink:href="#SimHei-30" transform="translate(100 0)"/>
      </g>
     </g>
    </g>
    <g id="xtick_8">
     <g id="line2d_15">
      <path d="M 603.584075 383.885 
L 603.584075 24.325 
" clip-path="url(#pea424f1e1f)" style="fill: none; stroke: #b0b0b0; stroke-opacity: 0.3; stroke-width: 0.8; stroke-linecap: square"/>
     </g>
     <g id="line2d_16">
      <g>
       <use xlink:href="#m596ff97f6f" x="603.584075" y="383.885" style="stroke: #000000; stroke-width: 0.8"/>
      </g>
     </g>
     <g id="text_8">
      <!-- 350 -->
      <g transform="translate(594.584075 399.135) scale(0.12 -0.12)">
       <use xlink:href="#SimHei-33"/>
       <use xlink:href="#SimHei-35" transform="translate(50 0)"/>
       <use xlink:href="#SimHei-30" transform="translate(100 0)"/>
      </g>
     </g>
    </g>
    <g id="xtick_9">
     <g id="line2d_17">
      <path d="M 677.700047 383.885 
L 677.700047 24.325 
" clip-path="url(#pea424f1e1f)" style="fill: none; stroke: #b0b0b0; stroke-opacity: 0.3; stroke-width: 0.8; stroke-linecap: square"/>
     </g>
     <g id="line2d_18">
      <g>
       <use xlink:href="#m596ff97f6f" x="677.700047" y="383.885" style="stroke: #000000; stroke-width: 0.8"/>
      </g>
     </g>
     <g id="text_9">
      <!-- 400 -->
      <g transform="translate(668.700047 399.135) scale(0.12 -0.12)">
       <defs>
        <path id="SimHei-34" d="M 2000 1100 
L 75 1100 
L 75 1525 
L 2100 4450 
L 2475 4450 
L 2475 1525 
L 3075 1525 
L 3075 1100 
L 2475 1100 
L 2475 150 
L 2000 150 
L 2000 1100 
z
M 2000 1525 
L 2000 3500 
L 600 1525 
L 2000 1525 
z
" transform="scale(0.015625)"/>
       </defs>
       <use xlink:href="#SimHei-34"/>
       <use xlink:href="#SimHei-30" transform="translate(50 0)"/>
       <use xlink:href="#SimHei-30" transform="translate(100 0)"/>
      </g>
     </g>
    </g>
    <g id="text_10">
     <!-- Episode -->
     <g transform="translate(352.495 415.635) scale(0.16 -0.16)">
      <defs>
       <path id="SimHei-45" d="M 2900 125 
L 350 125 
L 350 4400 
L 2775 4400 
L 2775 3925 
L 925 3925 
L 925 2600 
L 2625 2600 
L 2625 2125 
L 925 2125 
L 925 600 
L 2900 600 
L 2900 125 
z
" transform="scale(0.015625)"/>
       <path id="SimHei-70" d="M 2825 1525 
Q 2825 800 2475 425 
Q 2125 50 1625 50 
Q 1350 50 1150 162 
Q 950 275 800 500 
L 800 -800 
L 300 -800 
L 300 2925 
L 800 2925 
L 800 2550 
Q 950 2775 1150 2875 
Q 1350 2975 1625 2975 
Q 2125 2975 2475 2612 
Q 2825 2250 2825 1525 
z
M 2275 1525 
Q 2275 2000 2087 2262 
Q 1900 2525 1525 2525 
Q 1225 2525 1012 2262 
Q 800 2000 800 1525 
Q 800 1050 1012 775 
Q 1225 500 1525 500 
Q 1900 500 2087 775 
Q 2275 1050 2275 1525 
z
" transform="scale(0.015625)"/>
       <path id="SimHei-69" d="M 1800 3725 
L 1300 3725 
L 1300 4375 
L 1800 4375 
L 1800 3725 
z
M 1800 125 
L 1300 125 
L 1300 2925 
L 1800 2925 
L 1800 125 
z
" transform="scale(0.015625)"/>
       <path id="SimHei-73" d="M 2750 900 
Q 2750 500 2437 287 
Q 2125 75 1650 75 
Q 1050 75 725 312 
Q 400 550 400 1000 
L 900 1000 
Q 900 700 1112 600 
Q 1325 500 1625 500 
Q 1925 500 2075 612 
Q 2225 725 2225 900 
Q 2225 1025 2100 1150 
Q 1975 1275 1475 1350 
Q 900 1425 687 1637 
Q 475 1850 475 2200 
Q 475 2500 762 2737 
Q 1050 2975 1600 2975 
Q 2100 2975 2387 2750 
Q 2675 2525 2675 2150 
L 2175 2150 
Q 2175 2375 2012 2462 
Q 1850 2550 1600 2550 
Q 1275 2550 1137 2437 
Q 1000 2325 1000 2175 
Q 1000 2000 1125 1900 
Q 1250 1800 1650 1750 
Q 2300 1650 2525 1437 
Q 2750 1225 2750 900 
z
" transform="scale(0.015625)"/>
       <path id="SimHei-6f" d="M 2925 1525 
Q 2925 875 2525 475 
Q 2125 75 1575 75 
Q 1025 75 625 475 
Q 225 875 225 1525 
Q 225 2175 625 2575 
Q 1025 2975 1575 2975 
Q 2125 2975 2525 2575 
Q 2925 2175 2925 1525 
z
M 2375 1525 
Q 2375 2025 2125 2275 
Q 1875 2525 1575 2525 
Q 1275 2525 1025 2275 
Q 775 2025 775 1525 
Q 775 1025 1025 775 
Q 1275 525 1575 525 
Q 1875 525 2125 775 
Q 2375 1025 2375 1525 
z
" transform="scale(0.015625)"/>
       <path id="SimHei-64" d="M 2750 125 
L 2250 125 
L 2250 500 
Q 2100 275 1900 175 
Q 1700 75 1425 75 
Q 925 75 575 437 
Q 225 800 225 1525 
Q 225 2250 575 2625 
Q 925 3000 1425 3000 
Q 1700 3000 1900 2887 
Q 2100 2775 2250 2550 
L 2250 4400 
L 2750 4400 
L 2750 125 
z
M 2250 1525 
Q 2250 2000 2037 2275 
Q 1825 2550 1525 2550 
Q 1150 2550 962 2275 
Q 775 2000 775 1525 
Q 775 1050 962 787 
Q 1150 525 1525 525 
Q 1825 525 2037 787 
Q 2250 1050 2250 1525 
z
" transform="scale(0.015625)"/>
       <path id="SimHei-65" d="M 2850 1075 
Q 2800 625 2450 350 
Q 2100 75 1625 75 
Q 1025 75 637 462 
Q 250 850 250 1525 
Q 250 2200 637 2587 
Q 1025 2975 1625 2975 
Q 2150 2975 2487 2637 
Q 2825 2300 2825 1525 
L 800 1525 
Q 800 975 1037 750 
Q 1275 525 1625 525 
Q 1900 525 2075 662 
Q 2250 800 2300 1075 
L 2850 1075 
z
M 2250 1925 
Q 2200 2275 2025 2412 
Q 1850 2550 1575 2550 
Q 1325 2550 1125 2412 
Q 925 2275 825 1925 
L 2250 1925 
z
" transform="scale(0.015625)"/>
      </defs>
      <use xlink:href="#SimHei-45"/>
      <use xlink:href="#SimHei-70" transform="translate(50 0)"/>
      <use xlink:href="#SimHei-69" transform="translate(100 0)"/>
      <use xlink:href="#SimHei-73" transform="translate(150 0)"/>
      <use xlink:href="#SimHei-6f" transform="translate(200 0)"/>
      <use xlink:href="#SimHei-64" transform="translate(250 0)"/>
      <use xlink:href="#SimHei-65" transform="translate(300 0)"/>
     </g>
    </g>
   </g>
   <g id="matplotlib.axis_2">
    <g id="ytick_1">
     <g id="line2d_19">
      <path d="M 55.2 341.643921 
L 705.79 341.643921 
" clip-path="url(#pea424f1e1f)" style="fill: none; stroke: #b0b0b0; stroke-opacity: 0.3; stroke-width: 0.8; stroke-linecap: square"/>
     </g>
     <g id="line2d_20">
      <defs>
       <path id="ma379fd34c7" d="M 0 0 
L -3.5 0 
" style="stroke: #000000; stroke-width: 0.8"/>
      </defs>
      <g>
       <use xlink:href="#ma379fd34c7" x="55.2" y="341.643921" style="stroke: #000000; stroke-width: 0.8"/>
      </g>
     </g>
     <g id="text_11">
      <!-- 600 -->
      <g transform="translate(30.2 345.768921) scale(0.12 -0.12)">
       <defs>
        <path id="SimHei-36" d="M 250 1612 
Q 275 1975 387 2225 
Q 500 2475 725 2850 
L 1750 4450 
L 2325 4450 
L 1275 2800 
Q 1950 2975 2350 2750 
Q 2750 2525 2887 2237 
Q 3025 1950 3037 1612 
Q 3050 1275 2937 950 
Q 2825 625 2537 362 
Q 2250 100 1737 75 
Q 1225 50 862 262 
Q 500 475 362 862 
Q 225 1250 250 1612 
z
M 1025 787 
Q 1250 550 1625 525 
Q 2000 500 2250 775 
Q 2500 1050 2500 1575 
Q 2500 2100 2187 2300 
Q 1875 2500 1487 2450 
Q 1100 2400 925 2075 
Q 750 1750 775 1387 
Q 800 1025 1025 787 
z
" transform="scale(0.015625)"/>
       </defs>
       <use xlink:href="#SimHei-36"/>
       <use xlink:href="#SimHei-30" transform="translate(50 0)"/>
       <use xlink:href="#SimHei-30" transform="translate(100 0)"/>
      </g>
     </g>
    </g>
    <g id="ytick_2">
     <g id="line2d_21">
      <path d="M 55.2 279.875832 
L 705.79 279.875832 
" clip-path="url(#pea424f1e1f)" style="fill: none; stroke: #b0b0b0; stroke-opacity: 0.3; stroke-width: 0.8; stroke-linecap: square"/>
     </g>
     <g id="line2d_22">
      <g>
       <use xlink:href="#ma379fd34c7" x="55.2" y="279.875832" style="stroke: #000000; stroke-width: 0.8"/>
      </g>
     </g>
     <g id="text_12">
      <!-- 800 -->
      <g transform="translate(30.2 284.000832) scale(0.12 -0.12)">
       <defs>
        <path id="SimHei-38" d="M 175 1375 
Q 175 1675 325 1962 
Q 475 2250 825 2425 
Q 525 2600 425 2812 
Q 325 3025 312 3300 
Q 300 3575 387 3775 
Q 475 3975 650 4150 
Q 825 4325 1037 4387 
Q 1250 4450 1500 4450 
Q 1750 4450 1950 4400 
Q 2150 4350 2375 4187 
Q 2600 4025 2700 3725 
Q 2800 3425 2687 3025 
Q 2575 2625 2100 2400 
Q 2525 2275 2700 2012 
Q 2875 1750 2875 1375 
Q 2875 1000 2762 775 
Q 2650 550 2512 400 
Q 2375 250 2137 162 
Q 1900 75 1537 75 
Q 1175 75 912 162 
Q 650 250 475 425 
Q 300 600 237 837 
Q 175 1075 175 1375 
z
M 687 1400 
Q 675 1100 787 875 
Q 900 650 1200 587 
Q 1500 525 1825 600 
Q 2150 675 2275 950 
Q 2400 1225 2362 1500 
Q 2325 1775 2050 1962 
Q 1775 2150 1450 2125 
Q 1125 2100 912 1900 
Q 700 1700 687 1400 
z
M 775 3350 
Q 775 3100 950 2875 
Q 1125 2650 1500 2650 
Q 1875 2650 2062 2875 
Q 2250 3100 2237 3412 
Q 2225 3725 2012 3875 
Q 1800 4025 1437 4000 
Q 1075 3975 925 3787 
Q 775 3600 775 3350 
z
" transform="scale(0.015625)"/>
       </defs>
       <use xlink:href="#SimHei-38"/>
       <use xlink:href="#SimHei-30" transform="translate(50 0)"/>
       <use xlink:href="#SimHei-30" transform="translate(100 0)"/>
      </g>
     </g>
    </g>
    <g id="ytick_3">
     <g id="line2d_23">
      <path d="M 55.2 218.107743 
L 705.79 218.107743 
" clip-path="url(#pea424f1e1f)" style="fill: none; stroke: #b0b0b0; stroke-opacity: 0.3; stroke-width: 0.8; stroke-linecap: square"/>
     </g>
     <g id="line2d_24">
      <g>
       <use xlink:href="#ma379fd34c7" x="55.2" y="218.107743" style="stroke: #000000; stroke-width: 0.8"/>
      </g>
     </g>
     <g id="text_13">
      <!-- 1000 -->
      <g transform="translate(24.2 222.232743) scale(0.12 -0.12)">
       <use xlink:href="#SimHei-31"/>
       <use xlink:href="#SimHei-30" transform="translate(50 0)"/>
       <use xlink:href="#SimHei-30" transform="translate(100 0)"/>
       <use xlink:href="#SimHei-30" transform="translate(150 0)"/>
      </g>
     </g>
    </g>
    <g id="ytick_4">
     <g id="line2d_25">
      <path d="M 55.2 156.339654 
L 705.79 156.339654 
" clip-path="url(#pea424f1e1f)" style="fill: none; stroke: #b0b0b0; stroke-opacity: 0.3; stroke-width: 0.8; stroke-linecap: square"/>
     </g>
     <g id="line2d_26">
      <g>
       <use xlink:href="#ma379fd34c7" x="55.2" y="156.339654" style="stroke: #000000; stroke-width: 0.8"/>
      </g>
     </g>
     <g id="text_14">
      <!-- 1200 -->
      <g transform="translate(24.2 160.464654) scale(0.12 -0.12)">
       <use xlink:href="#SimHei-31"/>
       <use xlink:href="#SimHei-32" transform="translate(50 0)"/>
       <use xlink:href="#SimHei-30" transform="translate(100 0)"/>
       <use xlink:href="#SimHei-30" transform="translate(150 0)"/>
      </g>
     </g>
    </g>
    <g id="ytick_5">
     <g id="line2d_27">
      <path d="M 55.2 94.571565 
L 705.79 94.571565 
" clip-path="url(#pea424f1e1f)" style="fill: none; stroke: #b0b0b0; stroke-opacity: 0.3; stroke-width: 0.8; stroke-linecap: square"/>
     </g>
     <g id="line2d_28">
      <g>
       <use xlink:href="#ma379fd34c7" x="55.2" y="94.571565" style="stroke: #000000; stroke-width: 0.8"/>
      </g>
     </g>
     <g id="text_15">
      <!-- 1400 -->
      <g transform="translate(24.2 98.696565) scale(0.12 -0.12)">
       <use xlink:href="#SimHei-31"/>
       <use xlink:href="#SimHei-34" transform="translate(50 0)"/>
       <use xlink:href="#SimHei-30" transform="translate(100 0)"/>
       <use xlink:href="#SimHei-30" transform="translate(150 0)"/>
      </g>
     </g>
    </g>
    <g id="ytick_6">
     <g id="line2d_29">
      <path d="M 55.2 32.803476 
L 705.79 32.803476 
" clip-path="url(#pea424f1e1f)" style="fill: none; stroke: #b0b0b0; stroke-opacity: 0.3; stroke-width: 0.8; stroke-linecap: square"/>
     </g>
     <g id="line2d_30">
      <g>
       <use xlink:href="#ma379fd34c7" x="55.2" y="32.803476" style="stroke: #000000; stroke-width: 0.8"/>
      </g>
     </g>
     <g id="text_16">
      <!-- 1600 -->
      <g transform="translate(24.2 36.928476) scale(0.12 -0.12)">
       <use xlink:href="#SimHei-31"/>
       <use xlink:href="#SimHei-36" transform="translate(50 0)"/>
       <use xlink:href="#SimHei-30" transform="translate(100 0)"/>
       <use xlink:href="#SimHei-30" transform="translate(150 0)"/>
      </g>
     </g>
    </g>
    <g id="text_17">
     <!-- Total Reward -->
     <g transform="translate(18.2 252.105) rotate(-90) scale(0.16 -0.16)">
      <defs>
       <path id="SimHei-54" d="M 2850 3925 
L 1850 3925 
L 1850 125 
L 1275 125 
L 1275 3925 
L 275 3925 
L 275 4400 
L 2850 4400 
L 2850 3925 
z
" transform="scale(0.015625)"/>
       <path id="SimHei-74" d="M 2750 200 
Q 2625 150 2462 112 
Q 2300 75 2025 75 
Q 1575 75 1300 325 
Q 1025 575 1025 1025 
L 1025 2525 
L 175 2525 
L 175 2925 
L 1025 2925 
L 1025 3900 
L 1525 3900 
L 1525 2925 
L 2550 2925 
L 2550 2525 
L 1525 2525 
L 1525 1000 
Q 1525 800 1625 662 
Q 1725 525 2000 525 
Q 2275 525 2450 575 
Q 2625 625 2750 700 
L 2750 200 
z
" transform="scale(0.015625)"/>
       <path id="SimHei-61" d="M 2875 125 
L 2275 125 
Q 2225 175 2200 262 
Q 2175 350 2175 475 
Q 2000 275 1750 175 
Q 1500 75 1225 75 
Q 825 75 550 275 
Q 275 475 275 850 
Q 275 1225 525 1450 
Q 775 1675 1300 1750 
Q 1650 1800 1912 1875 
Q 2175 1950 2175 2075 
Q 2175 2225 2062 2375 
Q 1950 2525 1575 2525 
Q 1275 2525 1137 2412 
Q 1000 2300 950 2100 
L 400 2100 
Q 450 2500 762 2737 
Q 1075 2975 1575 2975 
Q 2125 2975 2400 2725 
Q 2675 2475 2675 2025 
L 2675 650 
Q 2675 500 2725 375 
Q 2775 250 2875 125 
z
M 2175 1050 
L 2175 1550 
Q 2025 1500 1887 1462 
Q 1750 1425 1425 1375 
Q 1050 1325 937 1200 
Q 825 1075 825 900 
Q 825 750 937 637 
Q 1050 525 1275 525 
Q 1500 525 1762 650 
Q 2025 775 2175 1050 
z
" transform="scale(0.015625)"/>
       <path id="SimHei-6c" d="M 1825 125 
L 1325 125 
L 1325 4400 
L 1825 4400 
L 1825 125 
z
" transform="scale(0.015625)"/>
       <path id="SimHei-20" transform="scale(0.015625)"/>
       <path id="SimHei-52" d="M 3000 125 
L 2400 125 
L 1500 1975 
L 850 1975 
L 850 125 
L 275 125 
L 275 4400 
L 1525 4400 
Q 2125 4400 2500 4112 
Q 2875 3825 2875 3175 
Q 2875 2675 2625 2400 
Q 2375 2125 2050 2050 
L 3000 125 
z
M 2300 3175 
Q 2300 3525 2087 3725 
Q 1875 3925 1400 3925 
L 850 3925 
L 850 2450 
L 1550 2450 
Q 1850 2450 2075 2612 
Q 2300 2775 2300 3175 
z
" transform="scale(0.015625)"/>
       <path id="SimHei-77" d="M 3075 2925 
L 2450 75 
L 1975 75 
L 1575 2250 
L 1525 2250 
L 1125 75 
L 650 75 
L 25 2925 
L 550 2925 
L 875 1050 
L 925 1050 
L 1275 2925 
L 1825 2925 
L 2175 1050 
L 2225 1050 
L 2550 2925 
L 3075 2925 
z
" transform="scale(0.015625)"/>
       <path id="SimHei-72" d="M 2500 2425 
Q 2025 2500 1700 2287 
Q 1375 2075 1150 1550 
L 1150 125 
L 650 125 
L 650 2925 
L 1150 2925 
L 1150 2200 
Q 1375 2600 1712 2787 
Q 2050 2975 2500 2975 
L 2500 2425 
z
" transform="scale(0.015625)"/>
      </defs>
      <use xlink:href="#SimHei-54"/>
      <use xlink:href="#SimHei-6f" transform="translate(50 0)"/>
      <use xlink:href="#SimHei-74" transform="translate(100 0)"/>
      <use xlink:href="#SimHei-61" transform="translate(150 0)"/>
      <use xlink:href="#SimHei-6c" transform="translate(200 0)"/>
      <use xlink:href="#SimHei-20" transform="translate(250 0)"/>
      <use xlink:href="#SimHei-52" transform="translate(300 0)"/>
      <use xlink:href="#SimHei-65" transform="translate(350 0)"/>
      <use xlink:href="#SimHei-77" transform="translate(400 0)"/>
      <use xlink:href="#SimHei-61" transform="translate(450 0)"/>
      <use xlink:href="#SimHei-72" transform="translate(500 0)"/>
      <use xlink:href="#SimHei-64" transform="translate(550 0)"/>
     </g>
    </g>
   </g>
   <g id="line2d_31">
    <path d="M 84.772273 110.208766 
L 86.254592 116.50095 
L 87.736912 126.593854 
L 89.219231 144.770327 
L 90.70155 158.808203 
L 92.18387 158.615308 
L 93.666189 170.695778 
L 95.148509 179.4186 
L 96.630828 181.790539 
L 98.113148 183.72291 
L 99.595467 178.279036 
L 101.077787 184.579489 
L 104.042425 229.031291 
L 105.524745 230.953459 
L 107.007064 238.384367 
L 108.489384 238.39961 
L 109.971703 235.35881 
L 111.454023 221.38882 
L 112.936342 223.451669 
L 114.418661 220.414143 
L 115.900981 203.558572 
L 117.3833 189.782777 
L 120.347939 166.896041 
L 121.830259 154.650798 
L 123.312578 144.165206 
L 124.794897 148.701416 
L 126.277217 138.287284 
L 127.759536 131.637763 
L 129.241856 122.658843 
L 132.206495 106.029284 
L 133.688814 101.213773 
L 135.171134 98.180587 
L 136.653453 93.343878 
L 138.135772 92.701139 
L 139.618092 88.966439 
L 141.100411 85.853745 
L 144.06505 80.596131 
L 145.54737 80.059048 
L 147.029689 78.029796 
L 148.512008 76.673371 
L 149.994328 74.064329 
L 151.476647 84.394645 
L 152.958967 78.259698 
L 154.441286 75.809862 
L 155.923606 74.421765 
L 157.405925 70.307864 
L 158.888244 66.994415 
L 160.370564 62.260798 
L 161.852883 60.379671 
L 163.335203 59.061934 
L 164.817522 56.028651 
L 166.299842 55.546414 
L 167.782161 54.021498 
L 169.264481 54.528614 
L 170.7468 55.179268 
L 172.229119 54.884406 
L 173.711439 53.210519 
L 175.193758 50.320847 
L 176.676078 49.518092 
L 178.158397 50.623815 
L 179.640717 58.315187 
L 181.123036 55.60134 
L 182.605355 57.066035 
L 184.087675 62.120562 
L 185.569994 62.071536 
L 188.534633 69.211869 
L 190.016953 68.019215 
L 191.499272 66.512958 
L 192.981591 65.850218 
L 194.463911 63.597543 
L 195.94623 60.514354 
L 197.42855 60.356639 
L 198.910869 86.412302 
L 200.393189 82.218645 
L 201.875508 104.51796 
L 203.357828 100.894736 
L 206.322466 88.344135 
L 207.804786 96.79744 
L 209.287105 91.567973 
L 210.769425 85.356457 
L 212.251744 113.964356 
L 213.734064 107.349228 
L 215.216383 101.748867 
L 216.698702 120.923234 
L 218.181022 114.428568 
L 219.663341 132.363436 
L 221.145661 135.655499 
L 222.62798 134.396097 
L 224.1103 140.714476 
L 225.592619 158.065579 
L 227.074938 156.221171 
L 228.557258 167.220597 
L 230.039577 167.083309 
L 231.521897 165.313424 
L 234.486536 195.563665 
L 235.968855 180.415216 
L 237.451175 191.817247 
L 238.933494 181.215123 
L 240.415813 168.121617 
L 241.898133 171.989789 
L 243.380452 163.133341 
L 244.862772 178.615343 
L 246.345091 166.826863 
L 247.827411 196.988439 
L 249.30973 189.781549 
L 250.792049 174.898145 
L 252.274369 163.036146 
L 255.239008 189.130644 
L 256.721327 203.685624 
L 258.203647 203.687509 
L 259.685966 210.685135 
L 261.168285 215.632864 
L 262.650605 214.693456 
L 264.132924 219.808938 
L 265.615244 224.110103 
L 267.097563 225.981324 
L 268.579883 225.344048 
L 270.062202 210.306948 
L 271.544522 221.693769 
L 273.026841 221.339887 
L 275.99148 210.88728 
L 277.473799 222.889227 
L 278.956119 237.189367 
L 280.438438 248.215997 
L 281.920758 261.426344 
L 283.403077 260.528407 
L 284.885396 264.195346 
L 286.367716 249.156654 
L 287.850035 243.550074 
L 289.332355 237.360754 
L 290.814674 235.278246 
L 292.296994 246.293623 
L 293.779313 245.317255 
L 295.261632 235.643517 
L 296.743952 243.252831 
L 298.226271 231.956245 
L 299.708591 244.00526 
L 301.19091 254.938326 
L 302.67323 254.457922 
L 304.155549 247.111044 
L 305.637869 250.813972 
L 307.120188 241.561041 
L 308.602507 235.878196 
L 310.084827 234.114464 
L 311.567146 225.466138 
L 313.049466 230.9334 
L 314.531785 243.66906 
L 316.014105 238.655872 
L 317.496424 229.295539 
L 318.978743 231.590927 
L 320.461063 220.529044 
L 321.943382 214.593198 
L 323.425702 223.420318 
L 324.908021 222.546117 
L 326.390341 222.976162 
L 327.87266 228.825622 
L 329.354979 226.207624 
L 330.837299 224.344062 
L 332.319618 231.546845 
L 333.801938 221.989846 
L 335.284257 228.573955 
L 336.766577 220.593228 
L 338.248896 229.138453 
L 339.731216 224.781738 
L 341.213535 236.600791 
L 342.695854 225.319197 
L 344.178174 216.101423 
L 345.660493 199.33141 
L 347.142813 191.161931 
L 348.625132 180.081965 
L 350.107452 177.118513 
L 351.589771 178.509179 
L 353.07209 185.611852 
L 354.55441 179.057028 
L 356.036729 179.783122 
L 357.519049 194.284604 
L 359.001368 191.844691 
L 360.483688 193.803114 
L 361.966007 187.817224 
L 363.448326 192.734703 
L 364.930646 189.90171 
L 366.412965 196.239405 
L 367.895285 205.633048 
L 369.377604 198.555496 
L 370.859924 186.907789 
L 372.342243 185.063126 
L 373.824563 187.584612 
L 375.306882 187.153313 
L 378.271521 183.600738 
L 379.75384 185.865212 
L 381.23616 186.963331 
L 382.718479 188.595413 
L 384.200799 198.766203 
L 385.683118 193.413374 
L 387.165437 197.325903 
L 388.647757 199.191687 
L 390.130076 188.233914 
L 391.612396 183.575425 
L 393.094715 190.474278 
L 394.577035 192.430739 
L 396.059354 189.977043 
L 397.541674 187.081086 
L 399.023993 191.33851 
L 400.506312 191.054144 
L 401.988632 190.096254 
L 403.470951 197.871572 
L 404.953271 188.942047 
L 406.43559 191.638458 
L 407.91791 187.905901 
L 409.400229 183.463163 
L 410.882548 178.449856 
L 412.364868 171.15174 
L 413.847187 176.435086 
L 415.329507 182.382885 
L 416.811826 190.06143 
L 418.294146 185.747875 
L 419.776465 194.665417 
L 421.258784 191.384198 
L 422.741104 197.906268 
L 424.223423 207.612744 
L 425.705743 202.176551 
L 427.188062 201.04116 
L 428.670382 196.987672 
L 430.152701 188.168777 
L 431.635021 178.576575 
L 433.11734 185.001481 
L 434.599659 175.768099 
L 436.081979 178.858809 
L 437.564298 175.069519 
L 439.046618 169.816586 
L 440.528937 163.816016 
L 442.011257 170.787519 
L 443.493576 175.259184 
L 444.975895 168.996246 
L 446.458215 173.284165 
L 447.940534 178.329998 
L 449.422854 180.550706 
L 450.905173 176.100599 
L 452.387493 167.635755 
L 453.869812 167.352552 
L 455.352131 161.845054 
L 456.834451 171.130625 
L 458.31677 163.606629 
L 459.79909 172.474261 
L 461.281409 174.602748 
L 462.763729 171.098328 
L 464.246048 176.578257 
L 465.728368 166.569139 
L 467.210687 180.436361 
L 468.693006 197.563928 
L 470.175326 197.291359 
L 471.657645 195.158571 
L 473.139965 190.924871 
L 474.622284 192.690347 
L 476.104604 195.863507 
L 477.586923 190.457791 
L 479.069242 195.652818 
L 480.551562 192.652962 
L 482.033881 190.154732 
L 483.516201 185.850085 
L 484.99852 176.49891 
L 486.48084 171.41186 
L 487.963159 170.039126 
L 489.445478 168.314163 
L 490.927798 170.491092 
L 492.410117 180.401884 
L 493.892437 173.284297 
L 495.374756 168.71769 
L 496.857076 167.981066 
L 498.339395 174.303894 
L 499.821715 175.026648 
L 501.304034 176.725181 
L 502.786353 175.953383 
L 504.268673 177.605827 
L 505.750992 173.093037 
L 507.233312 175.347809 
L 508.715631 179.356161 
L 510.197951 177.353358 
L 511.68027 181.12838 
L 513.162589 182.755391 
L 516.127228 173.942558 
L 517.609548 173.77719 
L 519.091867 167.685608 
L 520.574187 162.556955 
L 522.056506 152.511213 
L 523.538825 172.66279 
L 525.021145 180.107826 
L 526.503464 184.923662 
L 527.985784 192.803225 
L 529.468103 191.478962 
L 530.950423 187.907069 
L 532.432742 183.965164 
L 533.915062 174.968248 
L 535.397381 179.324414 
L 536.8797 179.214445 
L 538.36202 173.011766 
L 539.844339 175.607613 
L 541.326659 172.085068 
L 542.808978 173.774874 
L 544.291298 171.770286 
L 545.773617 181.147317 
L 547.255936 181.541769 
L 548.738256 179.907262 
L 550.220575 184.443781 
L 551.702895 183.229647 
L 553.185214 176.587376 
L 554.667534 178.549955 
L 556.149853 176.767469 
L 557.632172 171.45541 
L 559.114492 165.147439 
L 560.596811 167.770994 
L 562.079131 169.510762 
L 563.56145 169.762654 
L 565.04377 174.947665 
L 566.526089 178.753041 
L 568.008409 176.216779 
L 569.490728 170.945006 
L 570.973047 165.117216 
L 573.937686 148.850971 
L 575.420006 157.16735 
L 576.902325 163.033577 
L 578.384645 177.098562 
L 579.866964 184.737022 
L 581.349283 180.300615 
L 582.831603 189.591495 
L 584.313922 181.888975 
L 585.796242 182.436893 
L 587.278561 180.551582 
L 588.760881 187.426715 
L 590.2432 192.112598 
L 591.725519 190.00497 
L 593.207839 196.153646 
L 594.690158 190.868953 
L 596.172478 184.204313 
L 597.654797 179.003102 
L 599.137117 177.173293 
L 600.619436 177.083795 
L 602.101756 172.698147 
L 603.584075 161.458305 
L 605.066394 157.09742 
L 606.548714 176.998178 
L 609.513353 181.928035 
L 610.995672 174.539811 
L 612.477992 169.243929 
L 613.960311 162.675844 
L 615.44263 161.360461 
L 616.92495 159.139932 
L 618.407269 165.982713 
L 619.889589 164.381713 
L 621.371908 173.093762 
L 622.854228 167.747898 
L 624.336547 169.231128 
L 625.818866 166.50958 
L 627.301186 164.341156 
L 628.783505 155.79482 
L 630.265825 165.411154 
L 631.748144 177.389053 
L 633.230464 183.73268 
L 634.712783 188.240974 
L 636.195103 182.765748 
L 637.677422 183.157784 
L 639.159741 186.992011 
L 640.642061 203.048928 
L 642.12438 207.588952 
L 643.6067 202.61547 
L 645.089019 195.131628 
L 646.571339 192.378491 
L 648.053658 184.262182 
L 649.535977 180.455394 
L 651.018297 172.040757 
L 652.500616 182.289021 
L 653.982936 181.862711 
L 655.465255 190.433236 
L 656.947575 196.047793 
L 658.429894 207.488314 
L 659.912213 207.034366 
L 661.394533 204.526498 
L 662.876852 201.711083 
L 664.359172 202.378067 
L 665.841491 212.709979 
L 667.323811 205.864733 
L 668.80613 209.642483 
L 670.28845 208.588778 
L 671.770769 212.71341 
L 674.735408 199.055066 
L 676.217727 199.73373 
L 676.217727 199.73373 
" clip-path="url(#pea424f1e1f)" style="fill: none; stroke: #1f77b4; stroke-width: 1.5; stroke-linecap: square"/>
   </g>
   <g id="line2d_32">
    <path d="M 84.772273 290.759946 
L 86.254592 291.519687 
L 89.219231 275.886801 
L 90.70155 275.687861 
L 92.18387 274.905924 
L 93.666189 269.602625 
L 95.148509 266.267745 
L 96.630828 266.442616 
L 98.113148 265.475505 
L 99.595467 259.722202 
L 101.077787 254.806181 
L 102.560106 255.802049 
L 104.042425 245.332467 
L 107.007064 235.887639 
L 108.489384 240.567649 
L 109.971703 246.017399 
L 112.936342 240.719467 
L 114.418661 244.103305 
L 115.900981 245.169432 
L 117.3833 244.879811 
L 118.86562 237.919899 
L 120.347939 236.914615 
L 121.830259 232.152202 
L 123.312578 233.142849 
L 124.794897 225.100656 
L 126.277217 225.995436 
L 127.759536 218.691789 
L 129.241856 215.205598 
L 130.724175 218.379756 
L 132.206495 210.613942 
L 133.688814 209.666087 
L 135.171134 212.944606 
L 136.653453 213.351841 
L 138.135772 216.744789 
L 139.618092 216.551289 
L 141.100411 207.046662 
L 142.582731 210.032923 
L 144.06505 210.384267 
L 145.54737 205.153789 
L 147.029689 204.584936 
L 148.512008 196.345772 
L 149.994328 192.61301 
L 151.476647 192.674213 
L 152.958967 193.563636 
L 154.441286 191.728524 
L 155.923606 190.970677 
L 157.405925 190.392635 
L 160.370564 192.880849 
L 161.852883 206.665536 
L 163.335203 201.455973 
L 164.817522 193.697086 
L 166.299842 192.739296 
L 167.782161 193.184751 
L 169.264481 196.922706 
L 170.7468 196.11431 
L 172.229119 196.125961 
L 173.711439 192.421848 
L 175.193758 186.484506 
L 176.676078 189.380365 
L 179.640717 186.489853 
L 181.123036 182.534244 
L 182.605355 184.098522 
L 184.087675 188.031923 
L 185.569994 185.89949 
L 187.052314 183.357845 
L 188.534633 181.923536 
L 190.016953 177.058693 
L 191.499272 175.529017 
L 192.981591 175.869031 
L 194.463911 170.59917 
L 195.94623 174.626927 
L 197.42855 181.158031 
L 198.910869 178.532319 
L 200.393189 173.96845 
L 201.875508 169.879612 
L 203.357828 167.087997 
L 204.840147 167.175218 
L 206.322466 167.969451 
L 207.804786 160.615353 
L 209.287105 157.197488 
L 210.769425 158.664438 
L 212.251744 153.768959 
L 213.734064 149.795406 
L 215.216383 150.085641 
L 216.698702 149.003329 
L 218.181022 149.77205 
L 219.663341 147.196861 
L 221.145661 143.464162 
L 222.62798 143.508995 
L 224.1103 147.847022 
L 225.592619 144.092357 
L 227.074938 148.139015 
L 228.557258 154.628915 
L 230.039577 157.029723 
L 231.521897 152.177415 
L 233.004216 146.764122 
L 234.486536 143.413833 
L 235.968855 143.441312 
L 237.451175 145.010335 
L 238.933494 142.816808 
L 240.415813 137.291207 
L 241.898133 134.526745 
L 243.380452 137.166227 
L 244.862772 140.892511 
L 246.345091 133.46314 
L 247.827411 134.839536 
L 249.30973 132.813332 
L 250.792049 136.680491 
L 252.274369 137.443477 
L 253.756688 134.018851 
L 255.239008 135.271237 
L 256.721327 132.539238 
L 258.203647 137.858052 
L 259.685966 135.659333 
L 261.168285 128.08965 
L 262.650605 124.829805 
L 267.097563 124.280096 
L 268.579883 121.304823 
L 270.062202 120.234535 
L 271.544522 117.57684 
L 273.026841 113.02497 
L 275.99148 110.313411 
L 277.473799 108.375516 
L 278.956119 106.22963 
L 280.438438 105.880189 
L 281.920758 106.844805 
L 283.403077 101.072854 
L 284.885396 102.360462 
L 286.367716 105.012685 
L 287.850035 104.176835 
L 289.332355 107.110081 
L 290.814674 104.811727 
L 292.296994 101.746061 
L 293.779313 106.476834 
L 295.261632 105.822494 
L 296.743952 103.324261 
L 298.226271 105.712569 
L 299.708591 105.209276 
L 301.19091 101.248341 
L 302.67323 99.967511 
L 304.155549 100.612014 
L 305.637869 101.768044 
L 307.120188 101.374403 
L 308.602507 100.208383 
L 310.084827 95.657904 
L 311.567146 94.395434 
L 313.049466 94.170973 
L 314.531785 96.358971 
L 316.014105 92.909402 
L 317.496424 89.137417 
L 318.978743 86.934672 
L 320.461063 83.036489 
L 321.943382 84.298239 
L 323.425702 83.544951 
L 324.908021 83.942764 
L 326.390341 82.404596 
L 327.87266 85.19176 
L 329.354979 86.738358 
L 330.837299 87.254095 
L 332.319618 93.034409 
L 333.801938 96.03886 
L 335.284257 90.789425 
L 336.766577 91.488545 
L 338.248896 89.936236 
L 339.731216 87.812602 
L 341.213535 92.586066 
L 342.695854 91.3823 
L 344.178174 91.635774 
L 345.660493 92.772399 
L 347.142813 92.406995 
L 348.625132 88.304004 
L 350.107452 85.681531 
L 351.589771 85.600657 
L 353.07209 83.975065 
L 354.55441 83.561739 
L 356.036729 81.927946 
L 357.519049 82.711934 
L 359.001368 84.880258 
L 361.966007 81.193549 
L 363.448326 81.028071 
L 364.930646 83.729421 
L 366.412965 80.632853 
L 367.895285 78.406497 
L 369.377604 78.513597 
L 370.859924 75.782678 
L 372.342243 75.544906 
L 373.824563 74.902467 
L 375.306882 77.44378 
L 376.789201 75.878024 
L 379.75384 73.736726 
L 381.23616 70.9176 
L 382.718479 69.533484 
L 384.200799 67.770559 
L 385.683118 65.154064 
L 387.165437 63.416687 
L 388.647757 64.00148 
L 391.612396 66.746811 
L 393.094715 67.174888 
L 394.577035 66.503634 
L 396.059354 66.209729 
L 397.541674 66.463192 
L 399.023993 64.817664 
L 400.506312 68.013356 
L 401.988632 64.042791 
L 403.470951 63.741325 
L 406.43559 59.922176 
L 409.400229 60.170725 
L 410.882548 62.573545 
L 412.364868 62.789592 
L 413.847187 62.736701 
L 415.329507 63.009803 
L 416.811826 58.787216 
L 418.294146 56.313915 
L 419.776465 59.642742 
L 421.258784 59.010887 
L 422.741104 59.171964 
L 424.223423 61.883936 
L 425.705743 62.377896 
L 427.188062 60.300062 
L 428.670382 63.288796 
L 430.152701 64.433592 
L 431.635021 62.434854 
L 433.11734 61.997501 
L 434.599659 62.565338 
L 436.081979 62.120574 
L 437.564298 62.217543 
L 439.046618 61.942715 
L 440.528937 63.67805 
L 443.493576 64.309471 
L 444.975895 64.479898 
L 446.458215 65.518167 
L 447.940534 66.233993 
L 449.422854 66.284672 
L 450.905173 66.096552 
L 452.387493 69.020028 
L 453.869812 66.661836 
L 455.352131 70.035863 
L 456.834451 66.822348 
L 458.31677 66.864242 
L 459.79909 63.497433 
L 461.281409 64.500326 
L 462.763729 65.030699 
L 464.246048 62.193131 
L 465.728368 61.105103 
L 467.210687 65.744469 
L 468.693006 67.024182 
L 470.175326 66.181449 
L 471.657645 67.060729 
L 473.139965 68.500321 
L 474.622284 67.477211 
L 476.104604 65.518561 
L 477.586923 63.795572 
L 479.069242 62.814992 
L 480.551562 63.843019 
L 482.033881 60.105583 
L 483.516201 59.793946 
L 484.99852 62.386202 
L 486.48084 62.452158 
L 487.963159 63.952898 
L 489.445478 63.352814 
L 490.927798 63.870818 
L 492.410117 61.527787 
L 493.892437 59.549106 
L 495.374756 59.145294 
L 496.857076 58.886041 
L 498.339395 60.021546 
L 499.821715 57.461182 
L 502.786353 58.12946 
L 504.268673 59.585036 
L 505.750992 61.408043 
L 507.233312 62.393856 
L 508.715631 61.509211 
L 510.197951 61.895925 
L 511.68027 60.656046 
L 513.162589 63.909106 
L 514.644909 62.829452 
L 516.127228 63.264722 
L 517.609548 61.750322 
L 519.091867 65.942666 
L 520.574187 66.818033 
L 522.056506 65.176013 
L 523.538825 65.243089 
L 525.021145 62.902117 
L 527.985784 60.441336 
L 529.468103 61.287162 
L 530.950423 60.913829 
L 532.432742 58.936535 
L 533.915062 59.4777 
L 535.397381 60.584139 
L 536.8797 61.355056 
L 538.36202 60.793721 
L 539.844339 60.355252 
L 541.326659 62.567738 
L 542.808978 60.757939 
L 544.291298 59.818045 
L 545.773617 63.219605 
L 547.255936 61.36202 
L 548.738256 62.072862 
L 551.702895 65.345272 
L 553.185214 64.17181 
L 554.667534 64.319869 
L 556.149853 63.747825 
L 557.632172 65.409684 
L 559.114492 65.675038 
L 560.596811 63.348997 
L 562.079131 62.56947 
L 563.56145 62.371753 
L 565.04377 59.710722 
L 566.526089 59.853082 
L 568.008409 55.542711 
L 569.490728 56.41427 
L 572.455367 60.839988 
L 573.937686 59.960311 
L 575.420006 60.598242 
L 576.902325 59.22202 
L 578.384645 58.655685 
L 579.866964 55.526712 
L 581.349283 55.635519 
L 582.831603 58.355839 
L 584.313922 55.452863 
L 585.796242 56.544976 
L 587.278561 59.829173 
L 588.760881 59.002585 
L 590.2432 58.47292 
L 591.725519 58.534729 
L 593.207839 55.476427 
L 594.690158 54.661188 
L 596.172478 52.427014 
L 597.654797 52.477565 
L 599.137117 51.7138 
L 600.619436 52.206306 
L 602.101756 52.011475 
L 603.584075 52.425887 
L 605.066394 51.247609 
L 606.548714 52.923231 
L 608.031033 52.383744 
L 609.513353 51.104564 
L 610.995672 51.763553 
L 612.477992 52.808224 
L 613.960311 54.730685 
L 615.44263 55.679896 
L 616.92495 53.889287 
L 618.407269 56.295358 
L 619.889589 53.599235 
L 621.371908 56.047618 
L 622.854228 55.965318 
L 624.336547 56.33132 
L 625.818866 53.658257 
L 627.301186 51.907485 
L 628.783505 53.949048 
L 630.265825 55.297473 
L 631.748144 56.113753 
L 633.230464 56.558689 
L 634.712783 55.301617 
L 637.677422 52.405326 
L 639.159741 51.71368 
L 640.642061 51.381458 
L 642.12438 49.135607 
L 643.6067 48.863356 
L 645.089019 50.934411 
L 646.571339 50.596597 
L 648.053658 48.871694 
L 651.018297 50.935406 
L 652.500616 52.681827 
L 653.982936 54.633638 
L 655.465255 55.577189 
L 656.947575 56.787527 
L 658.429894 57.477056 
L 659.912213 53.656266 
L 661.394533 53.493956 
L 662.876852 54.598524 
L 664.359172 54.618648 
L 665.841491 54.380345 
L 667.323811 56.042775 
L 668.80613 55.404897 
L 670.28845 53.708936 
L 671.770769 54.634138 
L 673.253088 53.359331 
L 674.735408 54.6355 
L 676.217727 53.697932 
L 676.217727 53.697932 
" clip-path="url(#pea424f1e1f)" style="fill: none; stroke: #ff7f0e; stroke-width: 1.5; stroke-linecap: square"/>
   </g>
   <g id="line2d_33">
    <path d="M 84.772273 238.609559 
L 86.254592 244.149361 
L 87.736912 240.995075 
L 89.219231 240.39915 
L 90.70155 242.593169 
L 92.18387 238.447027 
L 93.666189 237.311395 
L 95.148509 237.601691 
L 96.630828 238.099496 
L 98.113148 242.546659 
L 99.595467 235.510936 
L 101.077787 225.70805 
L 102.560106 233.505015 
L 104.042425 234.547322 
L 105.524745 230.826795 
L 107.007064 225.951492 
L 108.489384 225.373773 
L 109.971703 224.155672 
L 111.454023 225.566676 
L 112.936342 218.375508 
L 114.418661 214.666857 
L 115.900981 212.097814 
L 117.3833 203.963138 
L 118.86562 204.307176 
L 120.347939 209.533661 
L 123.312578 196.60014 
L 124.794897 184.573419 
L 126.277217 177.099537 
L 127.759536 174.999582 
L 129.241856 170.523193 
L 130.724175 169.710327 
L 132.206495 167.98927 
L 133.688814 164.225066 
L 135.171134 166.216571 
L 136.653453 163.99986 
L 138.135772 166.234037 
L 139.618092 168.699129 
L 141.100411 166.922663 
L 142.582731 170.799022 
L 144.06505 176.545238 
L 145.54737 187.584684 
L 147.029689 183.037996 
L 148.512008 185.082662 
L 149.994328 185.418004 
L 151.476647 188.995252 
L 152.958967 187.166702 
L 154.441286 191.840102 
L 155.923606 191.618117 
L 157.405925 196.503648 
L 158.888244 195.261929 
L 160.370564 195.385353 
L 161.852883 192.365047 
L 163.335203 193.294125 
L 164.817522 190.818869 
L 166.299842 186.416737 
L 167.782161 187.019488 
L 169.264481 182.792676 
L 170.7468 176.919992 
L 172.229119 173.101263 
L 173.711439 171.336891 
L 175.193758 168.197881 
L 176.676078 170.375481 
L 178.158397 175.045191 
L 179.640717 177.162034 
L 181.123036 173.672935 
L 182.605355 172.054802 
L 184.087675 169.794328 
L 187.052314 162.970656 
L 188.534633 163.542698 
L 190.016953 159.433919 
L 191.499272 154.664602 
L 192.981591 141.264919 
L 195.94623 121.580194 
L 198.910869 105.53671 
L 200.393189 100.171387 
L 201.875508 96.507065 
L 203.357828 88.74838 
L 204.840147 87.034614 
L 206.322466 83.413545 
L 207.804786 80.091551 
L 209.287105 77.833068 
L 210.769425 72.961535 
L 212.251744 69.963042 
L 213.734064 68.298563 
L 215.216383 64.411737 
L 216.698702 62.786286 
L 218.181022 60.443089 
L 219.663341 59.710038 
L 221.145661 57.896441 
L 222.62798 55.084957 
L 224.1103 52.538033 
L 225.592619 52.59167 
L 227.074938 52.871292 
L 228.557258 53.3917 
L 230.039577 54.410044 
L 231.521897 52.138776 
L 233.004216 52.561489 
L 234.486536 56.10828 
L 235.968855 56.196644 
L 237.451175 54.665334 
L 238.933494 55.036213 
L 240.415813 57.462504 
L 241.898133 55.365677 
L 243.380452 56.943576 
L 246.345091 54.257499 
L 247.827411 51.968243 
L 249.30973 52.797031 
L 250.792049 51.253064 
L 252.274369 51.408778 
L 253.756688 52.063543 
L 255.239008 53.244062 
L 258.203647 53.37094 
L 259.685966 54.544874 
L 261.168285 52.971945 
L 262.650605 53.561188 
L 264.132924 54.382581 
L 265.615244 54.196325 
L 267.097563 54.156411 
L 268.579883 51.996018 
L 270.062202 52.361509 
L 271.544522 51.469227 
L 273.026841 52.317011 
L 274.50916 51.341664 
L 275.99148 51.016138 
L 277.473799 49.652793 
L 278.956119 50.773917 
L 280.438438 50.773267 
L 281.920758 51.681139 
L 283.403077 52.332315 
L 284.885396 53.993179 
L 286.367716 52.681166 
L 287.850035 51.803846 
L 289.332355 51.903455 
L 290.814674 50.358015 
L 292.296994 49.857255 
L 293.779313 49.028396 
L 295.261632 49.699942 
L 296.743952 50.723948 
L 298.226271 51.3941 
L 299.708591 50.59879 
L 301.19091 49.650047 
L 302.67323 48.529169 
L 304.155549 53.342071 
L 305.637869 54.491898 
L 307.120188 55.075416 
L 308.602507 57.111525 
L 310.084827 59.847883 
L 311.567146 61.060043 
L 313.049466 62.037735 
L 314.531785 59.661222 
L 316.014105 58.491327 
L 317.496424 56.001939 
L 318.978743 56.023773 
L 320.461063 55.068668 
L 321.943382 54.897513 
L 323.425702 52.101001 
L 324.908021 52.864116 
L 326.390341 52.706154 
L 327.87266 52.397459 
L 329.354979 50.675615 
L 330.837299 52.244095 
L 332.319618 50.124426 
L 333.801938 50.471765 
L 335.284257 51.434412 
L 336.766577 51.884963 
L 338.248896 50.949254 
L 339.731216 51.537504 
L 341.213535 51.797686 
L 342.695854 52.710466 
L 344.178174 51.173353 
L 345.660493 51.623831 
L 347.142813 52.331916 
L 348.625132 53.297983 
L 350.107452 54.047238 
L 351.589771 52.430625 
L 353.07209 48.915505 
L 354.55441 51.138622 
L 356.036729 51.603346 
L 357.519049 51.638598 
L 359.001368 52.339717 
L 361.966007 48.780781 
L 363.448326 47.951143 
L 364.930646 46.104232 
L 366.412965 47.667361 
L 367.895285 47.099911 
L 369.377604 48.480733 
L 370.859924 45.799098 
L 372.342243 45.615165 
L 375.306882 46.701312 
L 376.789201 46.684521 
L 378.271521 49.839391 
L 379.75384 49.167525 
L 381.23616 50.674062 
L 382.718479 52.019305 
L 384.200799 52.453588 
L 385.683118 49.268592 
L 387.165437 49.80444 
L 388.647757 51.407373 
L 390.130076 51.073029 
L 391.612396 50.26195 
L 393.094715 49.10532 
L 394.577035 49.585518 
L 396.059354 47.111812 
L 397.541674 43.956685 
L 399.023993 43.031114 
L 400.506312 42.524232 
L 401.988632 45.787876 
L 403.470951 48.386237 
L 404.953271 47.726958 
L 407.91791 49.486717 
L 409.400229 47.130306 
L 410.882548 46.923175 
L 412.364868 45.794142 
L 413.847187 47.950347 
L 415.329507 48.935097 
L 416.811826 48.335737 
L 418.294146 49.153586 
L 419.776465 47.945326 
L 421.258784 49.770047 
L 422.741104 52.089442 
L 425.705743 48.421558 
L 427.188062 47.582111 
L 428.670382 47.853268 
L 430.152701 47.858954 
L 431.635021 43.223486 
L 433.11734 44.933945 
L 434.599659 45.530516 
L 436.081979 45.547957 
L 437.564298 46.670099 
L 439.046618 48.286276 
L 440.528937 45.641623 
L 443.493576 44.580246 
L 444.975895 46.719905 
L 446.458215 47.079083 
L 447.940534 44.168841 
L 449.422854 45.420468 
L 450.905173 44.570852 
L 452.387493 45.332276 
L 453.869812 48.605176 
L 455.352131 49.872954 
L 456.834451 49.488442 
L 458.31677 48.336846 
L 459.79909 49.721801 
L 461.281409 50.602849 
L 462.763729 50.634703 
L 464.246048 51.788531 
L 465.728368 52.171203 
L 467.210687 51.354811 
L 468.693006 52.453731 
L 470.175326 52.184421 
L 471.657645 51.797466 
L 473.139965 51.879633 
L 474.622284 51.169569 
L 476.104604 49.28149 
L 477.586923 50.104446 
L 479.069242 47.137138 
L 480.551562 45.884926 
L 482.033881 45.996798 
L 483.516201 48.183652 
L 484.99852 49.740588 
L 486.48084 47.819733 
L 487.963159 47.276088 
L 489.445478 43.66488 
L 490.927798 47.029832 
L 492.410117 47.63292 
L 495.374756 44.167323 
L 496.857076 43.479301 
L 498.339395 44.592923 
L 499.821715 42.186727 
L 501.304034 43.679532 
L 502.786353 43.054988 
L 504.268673 45.641239 
L 505.750992 44.96375 
L 507.233312 47.259537 
L 508.715631 45.703543 
L 510.197951 46.652609 
L 511.68027 46.854292 
L 513.162589 45.322078 
L 514.644909 46.315434 
L 516.127228 46.252465 
L 517.609548 45.751965 
L 519.091867 44.540769 
L 520.574187 45.585442 
L 522.056506 45.962628 
L 523.538825 45.713513 
L 525.021145 46.490384 
L 526.503464 48.592054 
L 527.985784 48.649252 
L 529.468103 47.007864 
L 530.950423 47.658218 
L 532.432742 50.835086 
L 533.915062 50.084965 
L 535.397381 48.010256 
L 536.8797 47.019783 
L 538.36202 47.573928 
L 539.844339 47.991157 
L 542.808978 49.123764 
L 544.291298 49.076132 
L 545.773617 48.71999 
L 548.738256 47.651279 
L 550.220575 48.568422 
L 551.702895 45.612015 
L 553.185214 45.341232 
L 554.667534 44.663162 
L 556.149853 44.129538 
L 559.114492 47.560504 
L 560.596811 47.169321 
L 562.079131 48.982687 
L 563.56145 48.583377 
L 565.04377 51.255654 
L 566.526089 48.263615 
L 569.490728 46.038306 
L 570.973047 47.171871 
L 572.455367 45.407207 
L 573.937686 45.286749 
L 575.420006 45.965126 
L 576.902325 46.424411 
L 578.384645 46.003005 
L 579.866964 45.312105 
L 581.349283 45.97436 
L 582.831603 46.243986 
L 584.313922 44.533089 
L 585.796242 45.189233 
L 587.278561 47.52554 
L 588.760881 44.233429 
L 590.2432 42.177265 
L 591.725519 41.67471 
L 593.207839 40.668636 
L 594.690158 42.58509 
L 596.172478 41.892098 
L 597.654797 44.128795 
L 599.137117 45.092136 
L 600.619436 44.708715 
L 602.101756 42.945731 
L 603.584075 43.300883 
L 605.066394 46.580466 
L 606.548714 46.850714 
L 608.031033 46.083669 
L 609.513353 47.381969 
L 610.995672 47.209685 
L 612.477992 48.087599 
L 613.960311 49.600958 
L 615.44263 51.431623 
L 616.92495 54.576982 
L 618.407269 55.90721 
L 619.889589 56.016107 
L 621.371908 55.702315 
L 622.854228 53.287682 
L 624.336547 51.751317 
L 625.818866 49.852642 
L 627.301186 47.700367 
L 628.783505 47.877269 
L 630.265825 48.212484 
L 631.748144 49.705578 
L 633.230464 49.462891 
L 634.712783 47.362492 
L 636.195103 48.206283 
L 637.677422 47.876998 
L 639.159741 48.090545 
L 642.12438 47.245339 
L 643.6067 46.055173 
L 645.089019 48.545045 
L 648.053658 51.906121 
L 649.535977 52.301757 
L 651.018297 51.858489 
L 652.500616 52.960268 
L 653.982936 49.251291 
L 655.465255 48.397573 
L 656.947575 48.490011 
L 658.429894 46.917428 
L 659.912213 46.439391 
L 661.394533 47.3099 
L 662.876852 50.352437 
L 664.359172 51.483186 
L 665.841491 48.275146 
L 667.323811 46.517866 
L 668.80613 49.19327 
L 670.28845 50.693718 
L 671.770769 51.566964 
L 673.253088 50.607657 
L 674.735408 50.505054 
L 676.217727 51.556805 
L 676.217727 51.556805 
" clip-path="url(#pea424f1e1f)" style="fill: none; stroke: #2ca02c; stroke-width: 1.5; stroke-linecap: square"/>
   </g>
   <g id="line2d_34">
    <path d="M 84.772273 303.867046 
L 86.254592 305.951739 
L 87.736912 315.025757 
L 89.219231 320.460205 
L 92.18387 308.275528 
L 93.666189 317.248328 
L 95.148509 313.755132 
L 96.630828 316.142006 
L 98.113148 323.27582 
L 99.595467 321.330274 
L 101.077787 337.876085 
L 102.560106 332.377523 
L 104.042425 338.352232 
L 105.524745 336.713473 
L 107.007064 345.691452 
L 108.489384 348.847258 
L 111.454023 345.348305 
L 112.936342 342.031764 
L 114.418661 335.624595 
L 115.900981 331.868438 
L 117.3833 341.832883 
L 118.86562 344.712573 
L 120.347939 338.250009 
L 121.830259 340.004755 
L 123.312578 343.563648 
L 124.794897 351.331627 
L 126.277217 361.290284 
L 127.759536 367.541364 
L 129.241856 354.097 
L 130.724175 356.728066 
L 132.206495 353.057293 
L 133.688814 347.752798 
L 135.171134 344.812664 
L 138.135772 330.282057 
L 139.618092 320.536259 
L 142.582731 268.98944 
L 144.06505 247.848463 
L 145.54737 228.396328 
L 148.512008 196.214627 
L 149.994328 181.922793 
L 151.476647 171.411391 
L 152.958967 157.694831 
L 154.441286 147.761 
L 155.923606 136.376019 
L 157.405925 129.455909 
L 158.888244 121.03752 
L 163.335203 101.402911 
L 166.299842 94.284162 
L 167.782161 89.344986 
L 169.264481 83.227411 
L 172.229119 75.599158 
L 173.711439 72.130311 
L 175.193758 67.808244 
L 176.676078 65.355081 
L 178.158397 63.417784 
L 179.640717 62.168167 
L 181.123036 59.937238 
L 182.605355 57.484627 
L 184.087675 59.810637 
L 185.569994 59.986371 
L 187.052314 60.487302 
L 188.534633 59.610503 
L 191.499272 56.570478 
L 192.981591 56.817368 
L 194.463911 55.4203 
L 197.42855 53.51099 
L 198.910869 55.48198 
L 200.393189 54.694111 
L 201.875508 54.719475 
L 203.357828 54.875676 
L 204.840147 52.498442 
L 206.322466 51.523206 
L 207.804786 52.28331 
L 209.287105 52.17395 
L 210.769425 51.648182 
L 212.251744 50.55853 
L 213.734064 50.572621 
L 215.216383 49.464234 
L 216.698702 48.942758 
L 218.181022 51.172301 
L 219.663341 48.572023 
L 221.145661 50.093114 
L 222.62798 50.641114 
L 224.1103 53.242738 
L 225.592619 52.378801 
L 227.074938 51.922965 
L 228.557258 49.224261 
L 230.039577 48.771252 
L 231.521897 48.998579 
L 233.004216 48.297552 
L 234.486536 48.99072 
L 235.968855 53.237645 
L 237.451175 51.032759 
L 238.933494 50.202362 
L 240.415813 50.955226 
L 241.898133 48.967521 
L 243.380452 50.828402 
L 244.862772 49.912224 
L 246.345091 50.561095 
L 247.827411 52.917081 
L 250.792049 51.404731 
L 253.756688 51.434215 
L 255.239008 52.450637 
L 256.721327 48.214503 
L 258.203647 46.551822 
L 259.685966 45.789952 
L 261.168285 45.688427 
L 262.650605 46.187903 
L 264.132924 46.273788 
L 265.615244 48.428776 
L 267.097563 46.940766 
L 268.579883 47.755812 
L 270.062202 50.104388 
L 271.544522 49.259032 
L 273.026841 47.807165 
L 274.50916 47.659587 
L 275.99148 48.021668 
L 277.473799 48.746475 
L 278.956119 49.731622 
L 280.438438 49.006863 
L 281.920758 47.578754 
L 283.403077 48.997506 
L 284.885396 50.951359 
L 286.367716 49.679049 
L 287.850035 49.317582 
L 289.332355 47.057555 
L 290.814674 46.931352 
L 292.296994 45.90062 
L 293.779313 47.711377 
L 295.261632 50.7322 
L 296.743952 54.055414 
L 298.226271 50.904339 
L 299.708591 50.639446 
L 301.19091 51.584342 
L 302.67323 52.126965 
L 304.155549 50.863549 
L 305.637869 52.240701 
L 307.120188 52.402024 
L 308.602507 55.957332 
L 310.084827 54.7378 
L 311.567146 55.269805 
L 313.049466 55.277109 
L 314.531785 55.669102 
L 316.014105 56.318456 
L 317.496424 55.639442 
L 318.978743 55.62138 
L 320.461063 56.905188 
L 321.943382 56.181179 
L 323.425702 55.288134 
L 324.908021 55.518905 
L 326.390341 53.231111 
L 327.87266 52.698114 
L 329.354979 52.816993 
L 330.837299 53.313913 
L 332.319618 55.140785 
L 333.801938 56.219969 
L 335.284257 53.618393 
L 336.766577 56.878927 
L 338.248896 55.283694 
L 339.731216 58.083317 
L 341.213535 59.582161 
L 342.695854 57.642136 
L 344.178174 56.570505 
L 345.660493 54.903102 
L 347.142813 54.527072 
L 348.625132 51.893366 
L 350.107452 53.930684 
L 351.589771 54.849718 
L 353.07209 54.019242 
L 354.55441 55.092906 
L 356.036729 52.517251 
L 357.519049 55.284635 
L 359.001368 55.757838 
L 360.483688 55.400695 
L 361.966007 55.540683 
L 363.448326 56.029691 
L 364.930646 58.571643 
L 366.412965 57.141812 
L 367.895285 53.405514 
L 369.377604 51.189954 
L 370.859924 47.49592 
L 372.342243 46.371014 
L 373.824563 48.367465 
L 376.789201 43.913073 
L 378.271521 44.101335 
L 379.75384 50.533723 
L 381.23616 50.707739 
L 382.718479 49.140096 
L 384.200799 48.578408 
L 385.683118 51.078207 
L 387.165437 54.507473 
L 388.647757 56.535122 
L 391.612396 55.097975 
L 393.094715 56.591389 
L 394.577035 57.387336 
L 396.059354 55.930461 
L 397.541674 54.076297 
L 399.023993 54.400448 
L 400.506312 53.990665 
L 401.988632 51.453255 
L 403.470951 50.409506 
L 404.953271 53.072248 
L 406.43559 53.584396 
L 407.91791 52.991903 
L 409.400229 53.729136 
L 410.882548 53.360458 
L 413.847187 55.001136 
L 415.329507 54.872927 
L 416.811826 53.910719 
L 418.294146 53.872698 
L 419.776465 52.687425 
L 421.258784 55.186512 
L 422.741104 53.179315 
L 424.223423 52.086935 
L 425.705743 49.171312 
L 427.188062 49.237386 
L 428.670382 48.027209 
L 430.152701 50.698493 
L 433.11734 53.680211 
L 434.599659 53.428662 
L 436.081979 53.577924 
L 437.564298 53.57293 
L 439.046618 52.615436 
L 440.528937 52.502265 
L 442.011257 51.20956 
L 443.493576 50.218061 
L 444.975895 50.700794 
L 446.458215 49.630367 
L 447.940534 48.034508 
L 449.422854 48.41176 
L 450.905173 51.130676 
L 452.387493 49.355795 
L 453.869812 49.113309 
L 455.352131 50.134195 
L 456.834451 50.06023 
L 458.31677 49.235773 
L 459.79909 49.506617 
L 461.281409 52.232539 
L 462.763729 51.374496 
L 464.246048 52.372314 
L 465.728368 51.321679 
L 467.210687 52.431595 
L 468.693006 52.49758 
L 470.175326 53.679204 
L 471.657645 53.646474 
L 473.139965 52.738942 
L 474.622284 54.896978 
L 476.104604 54.01375 
L 477.586923 52.756279 
L 479.069242 52.389284 
L 480.551562 51.351487 
L 482.033881 49.330031 
L 483.516201 51.555738 
L 484.99852 50.039381 
L 486.48084 49.505755 
L 487.963159 47.88017 
L 489.445478 46.891362 
L 490.927798 47.724812 
L 493.892437 46.460126 
L 495.374756 47.048035 
L 496.857076 47.22721 
L 498.339395 46.791038 
L 499.821715 47.632891 
L 501.304034 49.604847 
L 502.786353 50.950335 
L 504.268673 51.769699 
L 505.750992 49.673069 
L 507.233312 49.768348 
L 508.715631 50.485913 
L 510.197951 51.405645 
L 511.68027 49.488445 
L 513.162589 49.202635 
L 514.644909 49.093094 
L 516.127228 53.093137 
L 517.609548 51.830187 
L 519.091867 52.178437 
L 520.574187 50.102729 
L 522.056506 50.573193 
L 523.538825 49.938615 
L 525.021145 50.00223 
L 526.503464 49.199819 
L 527.985784 48.98604 
L 529.468103 46.099113 
L 530.950423 47.276964 
L 532.432742 47.220695 
L 533.915062 48.303143 
L 535.397381 49.085243 
L 536.8797 46.199598 
L 539.844339 46.972777 
L 541.326659 47.047414 
L 542.808978 45.637816 
L 544.291298 45.445223 
L 545.773617 44.344367 
L 547.255936 43.402892 
L 550.220575 41.273134 
L 551.702895 42.398717 
L 553.185214 42.208982 
L 554.667534 44.237524 
L 556.149853 45.01866 
L 559.114492 49.179716 
L 560.596811 49.383852 
L 563.56145 47.544924 
L 565.04377 47.523451 
L 566.526089 49.342043 
L 568.008409 47.724821 
L 569.490728 49.575307 
L 570.973047 47.561573 
L 572.455367 50.792315 
L 573.937686 51.390576 
L 575.420006 50.940678 
L 576.902325 53.334305 
L 578.384645 51.876794 
L 579.866964 53.089919 
L 581.349283 50.769291 
L 582.831603 54.645142 
L 584.313922 53.793254 
L 585.796242 54.259572 
L 587.278561 54.024064 
L 588.760881 53.255952 
L 590.2432 52.192571 
L 591.725519 51.839941 
L 593.207839 51.74635 
L 594.690158 53.175152 
L 596.172478 51.164895 
L 597.654797 50.689885 
L 599.137117 48.682996 
L 600.619436 51.55372 
L 602.101756 51.697668 
L 603.584075 48.735815 
L 605.066394 48.438092 
L 606.548714 47.691602 
L 608.031033 49.496017 
L 609.513353 50.698948 
L 610.995672 50.08566 
L 612.477992 49.812141 
L 613.960311 47.918506 
L 615.44263 48.921334 
L 616.92495 45.66895 
L 618.407269 47.182559 
L 619.889589 48.138548 
L 621.371908 47.297899 
L 622.854228 45.375466 
L 624.336547 46.497638 
L 625.818866 48.095568 
L 627.301186 50.749506 
L 628.783505 49.852945 
L 630.265825 46.897143 
L 631.748144 46.62028 
L 633.230464 47.410595 
L 636.195103 50.87718 
L 637.677422 49.232592 
L 639.159741 47.909123 
L 640.642061 50.134936 
L 642.12438 50.102939 
L 643.6067 49.592691 
L 646.571339 47.895127 
L 648.053658 49.25542 
L 649.535977 49.645018 
L 651.018297 48.079444 
L 653.982936 51.581388 
L 655.465255 52.236093 
L 656.947575 52.60351 
L 658.429894 52.4797 
L 659.912213 54.076161 
L 661.394533 56.087618 
L 662.876852 54.976443 
L 664.359172 51.241014 
L 665.841491 52.264846 
L 667.323811 49.811225 
L 668.80613 50.569971 
L 670.28845 47.798892 
L 671.770769 49.992842 
L 673.253088 49.607849 
L 674.735408 47.941227 
L 676.217727 47.924829 
L 676.217727 47.924829 
" clip-path="url(#pea424f1e1f)" style="fill: none; stroke: #d62728; stroke-width: 1.5; stroke-linecap: square"/>
   </g>
   <g id="line2d_35">
    <path d="M 84.772273 326.875385 
L 86.254592 328.925831 
L 87.736912 328.908761 
L 89.219231 323.951554 
L 90.70155 309.232399 
L 92.18387 288.408081 
L 93.666189 271.782546 
L 95.148509 250.795581 
L 99.595467 205.048258 
L 101.077787 188.302356 
L 102.560106 176.117771 
L 105.524745 154.383096 
L 107.007064 146.099215 
L 108.489384 133.114313 
L 109.971703 125.914978 
L 111.454023 117.259274 
L 112.936342 112.822718 
L 115.900981 97.86783 
L 120.347939 86.628479 
L 123.312578 76.337568 
L 124.794897 73.9752 
L 126.277217 69.658454 
L 127.759536 71.566492 
L 130.724175 69.149779 
L 133.688814 68.736949 
L 135.171134 67.249632 
L 136.653453 66.045038 
L 138.135772 65.868767 
L 139.618092 64.401219 
L 141.100411 65.679337 
L 142.582731 64.591469 
L 144.06505 66.902935 
L 145.54737 66.619562 
L 147.029689 63.672932 
L 148.512008 64.588861 
L 149.994328 62.844321 
L 151.476647 60.321664 
L 152.958967 61.695335 
L 155.923606 59.03264 
L 157.405925 59.168072 
L 158.888244 58.356261 
L 160.370564 60.166895 
L 161.852883 60.196315 
L 163.335203 58.772676 
L 164.817522 56.860972 
L 166.299842 57.566468 
L 167.782161 55.543577 
L 169.264481 55.967038 
L 172.229119 58.38064 
L 173.711439 59.21304 
L 176.676078 54.754815 
L 179.640717 52.995585 
L 181.123036 53.067126 
L 182.605355 53.013582 
L 185.569994 55.701152 
L 190.016953 54.493248 
L 191.499272 55.556405 
L 192.981591 55.270412 
L 194.463911 56.245495 
L 195.94623 54.867141 
L 197.42855 52.378372 
L 198.910869 54.625319 
L 200.393189 53.598418 
L 201.875508 54.614263 
L 203.357828 53.034423 
L 204.840147 54.676296 
L 206.322466 51.98849 
L 207.804786 54.600205 
L 209.287105 56.204012 
L 210.769425 58.011588 
L 212.251744 55.326577 
L 213.734064 54.885636 
L 215.216383 53.769875 
L 216.698702 53.058756 
L 218.181022 53.375203 
L 219.663341 53.338845 
L 221.145661 51.862486 
L 222.62798 49.56884 
L 224.1103 51.520312 
L 225.592619 52.855393 
L 227.074938 52.345866 
L 228.557258 52.307859 
L 230.039577 52.972746 
L 231.521897 55.67483 
L 233.004216 55.125914 
L 234.486536 53.520682 
L 235.968855 51.202623 
L 237.451175 52.599604 
L 238.933494 53.605029 
L 240.415813 51.329335 
L 241.898133 49.957282 
L 243.380452 50.32171 
L 244.862772 48.624675 
L 246.345091 46.530096 
L 247.827411 44.798996 
L 249.30973 45.624948 
L 250.792049 45.887574 
L 252.274369 46.569368 
L 253.756688 47.487066 
L 255.239008 50.383212 
L 256.721327 50.397823 
L 258.203647 51.265553 
L 259.685966 51.646696 
L 261.168285 54.79279 
L 262.650605 54.835973 
L 264.132924 51.995837 
L 265.615244 54.100685 
L 267.097563 54.048052 
L 268.579883 53.80467 
L 270.062202 52.381951 
L 271.544522 48.792029 
L 273.026841 51.614906 
L 274.50916 50.857428 
L 275.99148 49.538213 
L 277.473799 49.328918 
L 278.956119 47.052908 
L 280.438438 49.014592 
L 281.920758 49.481227 
L 283.403077 49.445011 
L 284.885396 48.485415 
L 286.367716 49.872781 
L 287.850035 50.229197 
L 289.332355 48.79421 
L 290.814674 51.499352 
L 292.296994 51.49249 
L 293.779313 51.611807 
L 295.261632 55.051516 
L 296.743952 55.276411 
L 298.226271 54.838895 
L 299.708591 53.95209 
L 302.67323 53.10786 
L 304.155549 53.068301 
L 305.637869 51.908243 
L 307.120188 50.894403 
L 308.602507 51.179139 
L 310.084827 51.10486 
L 311.567146 50.552015 
L 313.049466 49.785322 
L 314.531785 50.330526 
L 316.014105 49.246183 
L 317.496424 47.46893 
L 318.978743 48.326429 
L 320.461063 48.888134 
L 323.425702 49.12074 
L 324.908021 51.113426 
L 326.390341 49.994303 
L 327.87266 47.904199 
L 329.354979 49.057551 
L 330.837299 50.585904 
L 332.319618 50.185581 
L 333.801938 47.847567 
L 335.284257 47.831131 
L 336.766577 47.325355 
L 338.248896 48.473415 
L 339.731216 49.910579 
L 341.213535 52.086876 
L 342.695854 52.091725 
L 344.178174 50.813685 
L 345.660493 50.180606 
L 347.142813 50.093962 
L 348.625132 53.358331 
L 350.107452 53.350337 
L 351.589771 54.077087 
L 353.07209 53.501076 
L 354.55441 51.724134 
L 356.036729 48.771839 
L 357.519049 47.832777 
L 359.001368 49.084682 
L 360.483688 48.643943 
L 361.966007 47.565738 
L 363.448326 48.681016 
L 364.930646 47.843316 
L 366.412965 49.245838 
L 369.377604 49.291303 
L 370.859924 49.468441 
L 372.342243 53.616415 
L 373.824563 54.478363 
L 375.306882 55.718646 
L 376.789201 52.718084 
L 378.271521 51.055321 
L 379.75384 51.515568 
L 381.23616 50.368283 
L 382.718479 48.107526 
L 384.200799 49.07391 
L 385.683118 51.106415 
L 387.165437 50.100633 
L 388.647757 51.283567 
L 390.130076 51.833587 
L 393.094715 49.482738 
L 394.577035 51.166714 
L 396.059354 53.328717 
L 397.541674 51.925475 
L 399.023993 55.146429 
L 400.506312 56.918597 
L 401.988632 55.31705 
L 403.470951 56.016652 
L 404.953271 57.656789 
L 406.43559 56.218374 
L 407.91791 53.583783 
L 409.400229 53.904668 
L 410.882548 50.497724 
L 413.847187 45.587424 
L 415.329507 44.35434 
L 416.811826 44.449357 
L 418.294146 45.489109 
L 419.776465 48.573468 
L 421.258784 48.712563 
L 422.741104 50.827881 
L 424.223423 51.748755 
L 425.705743 50.546081 
L 427.188062 51.227625 
L 428.670382 51.065884 
L 430.152701 53.174853 
L 431.635021 54.004063 
L 433.11734 53.288059 
L 434.599659 54.676813 
L 436.081979 52.595605 
L 437.564298 51.815528 
L 439.046618 51.964957 
L 440.528937 50.731366 
L 442.011257 50.821702 
L 443.493576 51.18369 
L 444.975895 50.548187 
L 446.458215 49.631883 
L 447.940534 46.987319 
L 449.422854 47.800061 
L 450.905173 47.643909 
L 452.387493 46.508682 
L 453.869812 52.122485 
L 455.352131 54.460178 
L 456.834451 54.509945 
L 458.31677 54.284307 
L 459.79909 56.08742 
L 462.763729 55.974093 
L 464.246048 54.427075 
L 465.728368 54.05691 
L 467.210687 54.256463 
L 468.693006 52.009303 
L 470.175326 51.897499 
L 471.657645 52.886254 
L 473.139965 53.251961 
L 474.622284 52.60671 
L 476.104604 53.027319 
L 477.586923 50.89676 
L 479.069242 49.372025 
L 480.551562 49.977187 
L 482.033881 48.628709 
L 483.516201 47.509453 
L 484.99852 47.661488 
L 486.48084 45.47624 
L 487.963159 48.723489 
L 489.445478 49.173455 
L 490.927798 50.405441 
L 492.410117 52.059535 
L 493.892437 54.841765 
L 495.374756 55.241266 
L 496.857076 55.505311 
L 498.339395 55.141463 
L 499.821715 55.684068 
L 501.304034 56.024766 
L 502.786353 53.801241 
L 504.268673 54.858041 
L 505.750992 56.939919 
L 507.233312 56.472862 
L 508.715631 53.33163 
L 510.197951 52.510432 
L 511.68027 54.795416 
L 513.162589 56.140512 
L 514.644909 56.560918 
L 516.127228 56.265924 
L 517.609548 54.731111 
L 519.091867 52.696236 
L 520.574187 51.510768 
L 522.056506 50.644868 
L 523.538825 54.183587 
L 525.021145 53.633955 
L 526.503464 55.098751 
L 527.985784 51.875981 
L 529.468103 50.584702 
L 530.950423 49.913027 
L 532.432742 51.365962 
L 535.397381 52.680597 
L 536.8797 55.057917 
L 538.36202 53.388086 
L 539.844339 53.202039 
L 541.326659 51.360576 
L 542.808978 53.0759 
L 544.291298 52.255563 
L 545.773617 54.428368 
L 547.255936 53.447857 
L 548.738256 54.391612 
L 550.220575 54.551289 
L 551.702895 54.102174 
L 553.185214 53.012528 
L 554.667534 52.166918 
L 556.149853 54.020561 
L 557.632172 52.873317 
L 559.114492 52.916755 
L 560.596811 52.470313 
L 562.079131 52.525314 
L 565.04377 58.619147 
L 566.526089 54.068803 
L 568.008409 52.033104 
L 569.490728 51.262623 
L 570.973047 50.716691 
L 572.455367 51.089882 
L 573.937686 48.331855 
L 575.420006 47.043108 
L 576.902325 48.358154 
L 578.384645 50.166956 
L 579.866964 50.802016 
L 581.349283 51.609193 
L 582.831603 49.142328 
L 584.313922 48.969364 
L 585.796242 50.428598 
L 588.760881 47.254558 
L 590.2432 48.459737 
L 593.207839 45.9939 
L 594.690158 44.317114 
L 596.172478 46.127354 
L 597.654797 46.480431 
L 599.137117 48.065913 
L 600.619436 46.515108 
L 602.101756 46.565221 
L 603.584075 43.503491 
L 605.066394 44.240146 
L 606.548714 45.436421 
L 608.031033 42.943735 
L 609.513353 44.159603 
L 610.995672 45.179134 
L 612.477992 47.059992 
L 613.960311 48.518049 
L 615.44263 50.594407 
L 616.92495 49.192863 
L 618.407269 50.191504 
L 619.889589 50.415532 
L 621.371908 51.039883 
L 622.854228 50.325777 
L 624.336547 50.338061 
L 625.818866 47.54443 
L 627.301186 47.599519 
L 628.783505 46.854894 
L 630.265825 48.056366 
L 631.748144 50.745506 
L 633.230464 51.354638 
L 634.712783 52.108527 
L 636.195103 52.140457 
L 637.677422 54.149669 
L 639.159741 54.029839 
L 640.642061 54.113786 
L 642.12438 54.601501 
L 643.6067 54.630653 
L 645.089019 54.913147 
L 646.571339 55.072469 
L 648.053658 53.441023 
L 649.535977 51.124362 
L 651.018297 49.308951 
L 652.500616 50.205565 
L 653.982936 49.969273 
L 655.465255 48.072641 
L 656.947575 47.757268 
L 658.429894 48.325684 
L 659.912213 49.349809 
L 661.394533 47.890729 
L 662.876852 47.495593 
L 664.359172 47.261749 
L 665.841491 45.3007 
L 667.323811 45.590003 
L 668.80613 45.698791 
L 670.28845 44.96743 
L 671.770769 43.263347 
L 673.253088 44.044563 
L 674.735408 44.95569 
L 676.217727 47.003161 
L 676.217727 47.003161 
" clip-path="url(#pea424f1e1f)" style="fill: none; stroke: #9467bd; stroke-width: 1.5; stroke-linecap: square"/>
   </g>
   <g id="patch_3">
    <path d="M 55.2 383.885 
L 55.2 24.325 
" style="fill: none; stroke: #000000; stroke-width: 0.8; stroke-linejoin: miter; stroke-linecap: square"/>
   </g>
   <g id="patch_4">
    <path d="M 705.79 383.885 
L 705.79 24.325 
" style="fill: none; stroke: #000000; stroke-width: 0.8; stroke-linejoin: miter; stroke-linecap: square"/>
   </g>
   <g id="patch_5">
    <path d="M 55.2 383.885 
L 705.79 383.885 
" style="fill: none; stroke: #000000; stroke-width: 0.8; stroke-linejoin: miter; stroke-linecap: square"/>
   </g>
   <g id="patch_6">
    <path d="M 55.2 24.325 
L 705.79 24.325 
" style="fill: none; stroke: #000000; stroke-width: 0.8; stroke-linejoin: miter; stroke-linecap: square"/>
   </g>
   <g id="text_18">
    <!-- Reward Comparison -->
    <g transform="translate(312.495 18.325) scale(0.16 -0.16)">
     <defs>
      <path id="SimHei-43" d="M 2975 1825 
Q 2950 875 2575 475 
Q 2200 75 1675 75 
Q 1075 75 650 562 
Q 225 1050 225 2125 
Q 225 3300 637 3875 
Q 1050 4450 1700 4450 
Q 2250 4450 2612 4037 
Q 2975 3625 2950 2875 
L 2400 2875 
Q 2400 3425 2225 3700 
Q 2050 3975 1700 3975 
Q 1300 3975 1062 3562 
Q 825 3150 825 2175 
Q 825 1275 1062 912 
Q 1300 550 1675 550 
Q 1950 550 2175 812 
Q 2400 1075 2400 1825 
L 2975 1825 
z
" transform="scale(0.015625)"/>
      <path id="SimHei-6d" d="M 3050 125 
L 2550 125 
L 2550 2150 
Q 2550 2300 2500 2400 
Q 2450 2500 2300 2500 
Q 2125 2500 1975 2312 
Q 1825 2125 1825 1825 
L 1825 125 
L 1325 125 
L 1325 2150 
Q 1325 2300 1275 2400 
Q 1225 2500 1075 2500 
Q 900 2500 750 2312 
Q 600 2125 600 1825 
L 600 125 
L 100 125 
L 100 2925 
L 600 2925 
L 600 2550 
Q 725 2750 900 2862 
Q 1075 2975 1275 2975 
Q 1475 2975 1612 2862 
Q 1750 2750 1800 2550 
Q 1925 2750 2087 2862 
Q 2250 2975 2450 2975 
Q 2750 2975 2900 2812 
Q 3050 2650 3050 2350 
L 3050 125 
z
" transform="scale(0.015625)"/>
      <path id="SimHei-6e" d="M 2800 125 
L 2300 125 
L 2300 1925 
Q 2300 2225 2150 2400 
Q 2000 2575 1750 2575 
Q 1425 2575 1137 2237 
Q 850 1900 850 1400 
L 850 125 
L 350 125 
L 350 2925 
L 850 2925 
L 850 2400 
Q 1050 2675 1287 2825 
Q 1525 2975 1900 2975 
Q 2350 2975 2575 2725 
Q 2800 2475 2800 2100 
L 2800 125 
z
" transform="scale(0.015625)"/>
     </defs>
     <use xlink:href="#SimHei-52"/>
     <use xlink:href="#SimHei-65" transform="translate(50 0)"/>
     <use xlink:href="#SimHei-77" transform="translate(100 0)"/>
     <use xlink:href="#SimHei-61" transform="translate(150 0)"/>
     <use xlink:href="#SimHei-72" transform="translate(200 0)"/>
     <use xlink:href="#SimHei-64" transform="translate(250 0)"/>
     <use xlink:href="#SimHei-20" transform="translate(300 0)"/>
     <use xlink:href="#SimHei-43" transform="translate(350 0)"/>
     <use xlink:href="#SimHei-6f" transform="translate(400 0)"/>
     <use xlink:href="#SimHei-6d" transform="translate(450 0)"/>
     <use xlink:href="#SimHei-70" transform="translate(500 0)"/>
     <use xlink:href="#SimHei-61" transform="translate(550 0)"/>
     <use xlink:href="#SimHei-72" transform="translate(600 0)"/>
     <use xlink:href="#SimHei-69" transform="translate(650 0)"/>
     <use xlink:href="#SimHei-73" transform="translate(700 0)"/>
     <use xlink:href="#SimHei-6f" transform="translate(750 0)"/>
     <use xlink:href="#SimHei-6e" transform="translate(800 0)"/>
    </g>
   </g>
   <g id="legend_1">
    <g id="patch_7">
     <path d="M 610.99 377.885 
L 697.39 377.885 
Q 699.79 377.885 699.79 375.485 
L 699.79 297.185 
Q 699.79 294.785 697.39 294.785 
L 610.99 294.785 
Q 608.59 294.785 608.59 297.185 
L 608.59 375.485 
Q 608.59 377.885 610.99 377.885 
z
" style="fill: #ffffff; opacity: 0.8; stroke: #cccccc; stroke-linejoin: miter"/>
    </g>
    <g id="line2d_36">
     <path d="M 613.39 303.785 
L 625.39 303.785 
L 637.39 303.785 
" style="fill: none; stroke: #1f77b4; stroke-width: 1.5; stroke-linecap: square"/>
    </g>
    <g id="text_19">
     <!-- DDPG -->
     <g transform="translate(646.99 307.985) scale(0.12 -0.12)">
      <defs>
       <path id="SimHei-44" d="M 2925 2250 
Q 2925 1100 2437 612 
Q 1950 125 1125 125 
L 275 125 
L 275 4400 
L 1125 4400 
Q 2050 4400 2487 3900 
Q 2925 3400 2925 2250 
z
M 2325 2250 
Q 2325 3175 2025 3550 
Q 1725 3925 1125 3925 
L 850 3925 
L 850 600 
L 1125 600 
Q 1725 600 2025 962 
Q 2325 1325 2325 2250 
z
" transform="scale(0.015625)"/>
       <path id="SimHei-50" d="M 2950 3100 
Q 2950 2500 2600 2150 
Q 2250 1800 1625 1800 
L 900 1800 
L 900 125 
L 325 125 
L 325 4400 
L 1625 4400 
Q 2250 4400 2600 4050 
Q 2950 3700 2950 3100 
z
M 2375 3100 
Q 2375 3575 2150 3750 
Q 1925 3925 1475 3925 
L 900 3925 
L 900 2275 
L 1475 2275 
Q 1925 2275 2150 2450 
Q 2375 2625 2375 3100 
z
" transform="scale(0.015625)"/>
       <path id="SimHei-47" d="M 2850 75 
L 2425 75 
L 2350 425 
Q 2250 275 2037 175 
Q 1825 75 1575 75 
Q 1050 75 637 562 
Q 225 1050 225 2125 
Q 225 3300 600 3875 
Q 975 4450 1625 4450 
Q 2200 4450 2525 4025 
Q 2850 3600 2850 2925 
L 2300 2925 
Q 2300 3450 2125 3712 
Q 1950 3975 1625 3975 
Q 1225 3975 1025 3562 
Q 825 3150 825 2175 
Q 825 1250 1075 900 
Q 1325 550 1650 550 
Q 1975 550 2162 787 
Q 2350 1025 2350 1525 
L 2350 1800 
L 1575 1800 
L 1575 2275 
L 2850 2275 
L 2850 75 
z
" transform="scale(0.015625)"/>
      </defs>
      <use xlink:href="#SimHei-44"/>
      <use xlink:href="#SimHei-44" transform="translate(50 0)"/>
      <use xlink:href="#SimHei-50" transform="translate(100 0)"/>
      <use xlink:href="#SimHei-47" transform="translate(150 0)"/>
     </g>
    </g>
    <g id="line2d_37">
     <path d="M 613.39 319.685 
L 625.39 319.685 
L 637.39 319.685 
" style="fill: none; stroke: #ff7f0e; stroke-width: 1.5; stroke-linecap: square"/>
    </g>
    <g id="text_20">
     <!-- PPO -->
     <g transform="translate(646.99 323.885) scale(0.12 -0.12)">
      <defs>
       <path id="SimHei-4f" d="M 2950 2275 
Q 2950 1100 2587 587 
Q 2225 75 1575 75 
Q 925 75 550 587 
Q 175 1100 175 2275 
Q 175 3450 550 3950 
Q 925 4450 1575 4450 
Q 2225 4450 2587 3950 
Q 2950 3450 2950 2275 
z
M 2350 2275 
Q 2350 3325 2125 3650 
Q 1900 3975 1575 3975 
Q 1250 3975 1012 3650 
Q 775 3325 775 2275 
Q 775 1225 1012 887 
Q 1250 550 1575 550 
Q 1900 550 2125 887 
Q 2350 1225 2350 2275 
z
" transform="scale(0.015625)"/>
      </defs>
      <use xlink:href="#SimHei-50"/>
      <use xlink:href="#SimHei-50" transform="translate(50 0)"/>
      <use xlink:href="#SimHei-4f" transform="translate(100 0)"/>
     </g>
    </g>
    <g id="line2d_38">
     <path d="M 613.39 335.585 
L 625.39 335.585 
L 637.39 335.585 
" style="fill: none; stroke: #2ca02c; stroke-width: 1.5; stroke-linecap: square"/>
    </g>
    <g id="text_21">
     <!-- TD3 -->
     <g transform="translate(646.99 339.785) scale(0.12 -0.12)">
      <use xlink:href="#SimHei-54"/>
      <use xlink:href="#SimHei-44" transform="translate(50 0)"/>
      <use xlink:href="#SimHei-33" transform="translate(100 0)"/>
     </g>
    </g>
    <g id="line2d_39">
     <path d="M 613.39 351.485 
L 625.39 351.485 
L 637.39 351.485 
" style="fill: none; stroke: #d62728; stroke-width: 1.5; stroke-linecap: square"/>
    </g>
    <g id="text_22">
     <!-- GCN-DDQN -->
     <g transform="translate(646.99 355.685) scale(0.12 -0.12)">
      <defs>
       <path id="SimHei-4e" d="M 2850 125 
L 2225 125 
L 850 3225 
L 825 3225 
L 825 125 
L 250 125 
L 250 4400 
L 875 4400 
L 2250 1300 
L 2275 1300 
L 2275 4400 
L 2850 4400 
L 2850 125 
z
" transform="scale(0.015625)"/>
       <path id="SimHei-2d" d="M 2975 2125 
L 125 2125 
L 125 2525 
L 2975 2525 
L 2975 2125 
z
" transform="scale(0.015625)"/>
       <path id="SimHei-51" d="M 2950 2275 
Q 2950 1675 2862 1262 
Q 2775 850 2575 600 
L 2775 225 
L 2375 -200 
L 2150 225 
Q 2050 150 1900 112 
Q 1750 75 1575 75 
Q 925 75 550 587 
Q 175 1100 175 2275 
Q 175 3450 550 3950 
Q 925 4450 1575 4450 
Q 2225 4450 2587 3950 
Q 2950 3450 2950 2275 
z
M 2350 2275 
Q 2350 3325 2125 3650 
Q 1900 3975 1575 3975 
Q 1250 3975 1012 3650 
Q 775 3325 775 2275 
Q 775 1225 1012 887 
Q 1250 550 1575 550 
Q 1700 550 1800 587 
Q 1900 625 1950 675 
L 1550 1450 
L 1900 1875 
L 2250 1200 
Q 2300 1450 2325 1650 
Q 2350 1850 2350 2275 
z
" transform="scale(0.015625)"/>
      </defs>
      <use xlink:href="#SimHei-47"/>
      <use xlink:href="#SimHei-43" transform="translate(50 0)"/>
      <use xlink:href="#SimHei-4e" transform="translate(100 0)"/>
      <use xlink:href="#SimHei-2d" transform="translate(150 0)"/>
      <use xlink:href="#SimHei-44" transform="translate(200 0)"/>
      <use xlink:href="#SimHei-44" transform="translate(250 0)"/>
      <use xlink:href="#SimHei-51" transform="translate(300 0)"/>
      <use xlink:href="#SimHei-4e" transform="translate(350 0)"/>
     </g>
    </g>
    <g id="line2d_40">
     <path d="M 613.39 367.385 
L 625.39 367.385 
L 637.39 367.385 
" style="fill: none; stroke: #9467bd; stroke-width: 1.5; stroke-linecap: square"/>
    </g>
    <g id="text_23">
     <!-- GLDVTO -->
     <g transform="translate(646.99 371.585) scale(0.12 -0.12)">
      <defs>
       <path id="SimHei-4c" d="M 2900 125 
L 300 125 
L 300 4400 
L 875 4400 
L 875 600 
L 2900 600 
L 2900 125 
z
" transform="scale(0.015625)"/>
       <path id="SimHei-56" d="M 3050 4400 
L 1800 75 
L 1300 75 
L 50 4400 
L 650 4400 
L 1525 1125 
L 1575 1125 
L 2450 4400 
L 3050 4400 
z
" transform="scale(0.015625)"/>
      </defs>
      <use xlink:href="#SimHei-47"/>
      <use xlink:href="#SimHei-4c" transform="translate(50 0)"/>
      <use xlink:href="#SimHei-44" transform="translate(100 0)"/>
      <use xlink:href="#SimHei-56" transform="translate(150 0)"/>
      <use xlink:href="#SimHei-54" transform="translate(200 0)"/>
      <use xlink:href="#SimHei-4f" transform="translate(250 0)"/>
     </g>
    </g>
   </g>
  </g>
 </g>
 <defs>
  <clipPath id="pea424f1e1f">
   <rect x="55.2" y="24.325" width="650.59" height="359.56"/>
  </clipPath>
 </defs>
</svg>
