<?xml version="1.0" encoding="utf-8" standalone="no"?>
<!DOCTYPE svg PUBLIC "-//W3C//DTD SVG 1.1//EN"
  "http://www.w3.org/Graphics/SVG/1.1/DTD/svg11.dtd">
<svg xmlns:xlink="http://www.w3.org/1999/xlink" width="689.6125pt" height="391.6261pt" viewBox="0 0 689.6125 391.6261" xmlns="http://www.w3.org/2000/svg" version="1.1">
 <metadata>
  <rdf:RDF xmlns:dc="http://purl.org/dc/elements/1.1/" xmlns:cc="http://creativecommons.org/ns#" xmlns:rdf="http://www.w3.org/1999/02/22-rdf-syntax-ns#">
   <cc:Work>
    <dc:type rdf:resource="http://purl.org/dc/dcmitype/StillImage"/>
    <dc:date>2026-07-09T22:50:08.525765</dc:date>
    <dc:format>image/svg+xml</dc:format>
    <dc:creator>
     <cc:Agent>
      <dc:title>Matplotlib v3.10.7, https://matplotlib.org/</dc:title>
     </cc:Agent>
    </dc:creator>
   </cc:Work>
  </rdf:RDF>
 </metadata>
 <defs>
  <style type="text/css">*{stroke-linejoin: round; stroke-linecap: butt}</style>
 </defs>
 <g id="figure_1">
  <g id="patch_1">
   <path d="M 0 391.6261 
L 689.6125 391.6261 
L 689.6125 0 
L 0 0 
z
" style="fill: #ffffff"/>
  </g>
  <g id="axes_1">
   <g id="patch_2">
    <path d="M 56.0125 349.8636 
L 682.4125 349.8636 
L 682.4125 34.5036 
L 56.0125 34.5036 
z
" style="fill: #ffffff"/>
   </g>
   <g id="matplotlib.axis_1">
    <g id="xtick_1">
     <g id="line2d_1">
      <path d="M 84.485227 349.8636 
L 84.485227 34.5036 
" clip-path="url(#p6e2d2b3c39)" style="fill: none; stroke-dasharray: 2.22,0.96; stroke-dashoffset: 0; stroke: #b0b0b0; stroke-opacity: 0.25; stroke-width: 0.6"/>
     </g>
     <g id="line2d_2">
      <defs>
       <path id="m12fb28334d" d="M 0 0 
L 0 3.5 
" style="stroke: #000000; stroke-width: 0.8"/>
      </defs>
      <g>
       <use xlink:href="#m12fb28334d" x="84.485227" y="349.8636" style="stroke: #000000; stroke-width: 0.8"/>
      </g>
     </g>
     <g id="text_1">
      <!-- 0 -->
      <g transform="translate(81.485227 365.1136) scale(0.12 -0.12)">
       <defs>
        <path id="SimHei-30" d="M 225 2537 
Q 250 3200 412 3587 
Q 575 3975 875 4225 
Q 1175 4475 1612 4475 
Q 2050 4475 2375 4112 
Q 2700 3750 2800 3200 
Q 2900 2650 2862 1937 
Q 2825 1225 2612 775 
Q 2400 325 1975 150 
Q 1550 -25 1125 187 
Q 700 400 525 750 
Q 350 1100 275 1487 
Q 200 1875 225 2537 
z
M 750 2687 
Q 675 2000 800 1462 
Q 925 925 1212 700 
Q 1500 475 1800 612 
Q 2100 750 2237 1162 
Q 2375 1575 2375 2062 
Q 2375 2550 2337 2950 
Q 2300 3350 2112 3675 
Q 1925 4000 1612 4012 
Q 1300 4025 1062 3700 
Q 825 3375 750 2687 
z
" transform="scale(0.015625)"/>
       </defs>
       <use xlink:href="#SimHei-30"/>
      </g>
     </g>
    </g>
    <g id="xtick_2">
     <g id="line2d_3">
      <path d="M 155.845446 349.8636 
L 155.845446 34.5036 
" clip-path="url(#p6e2d2b3c39)" style="fill: none; stroke-dasharray: 2.22,0.96; stroke-dashoffset: 0; stroke: #b0b0b0; stroke-opacity: 0.25; stroke-width: 0.6"/>
     </g>
     <g id="line2d_4">
      <g>
       <use xlink:href="#m12fb28334d" x="155.845446" y="349.8636" style="stroke: #000000; stroke-width: 0.8"/>
      </g>
     </g>
     <g id="text_2">
      <!-- 50 -->
      <g transform="translate(149.845446 365.1136) scale(0.12 -0.12)">
       <defs>
        <path id="SimHei-35" d="M 550 1325 
Q 725 650 1150 575 
Q 1575 500 1837 662 
Q 2100 825 2212 1087 
Q 2325 1350 2312 1675 
Q 2300 2000 2137 2225 
Q 1975 2450 1725 2525 
Q 1475 2600 1162 2525 
Q 850 2450 650 2175 
L 225 2225 
Q 275 2375 700 4375 
L 2675 4375 
L 2675 3925 
L 1075 3925 
Q 950 3250 825 2850 
Q 1200 3025 1525 3012 
Q 1850 3000 2150 2862 
Q 2450 2725 2587 2487 
Q 2725 2250 2787 2012 
Q 2850 1775 2837 1500 
Q 2825 1225 2725 937 
Q 2625 650 2425 462 
Q 2225 275 1937 162 
Q 1650 50 1275 75 
Q 900 100 562 350 
Q 225 600 100 1200 
L 550 1325 
z
" transform="scale(0.015625)"/>
       </defs>
       <use xlink:href="#SimHei-35"/>
       <use xlink:href="#SimHei-30" transform="translate(50 0)"/>
      </g>
     </g>
    </g>
    <g id="xtick_3">
     <g id="line2d_5">
      <path d="M 227.205665 349.8636 
L 227.205665 34.5036 
" clip-path="url(#p6e2d2b3c39)" style="fill: none; stroke-dasharray: 2.22,0.96; stroke-dashoffset: 0; stroke: #b0b0b0; stroke-opacity: 0.25; stroke-width: 0.6"/>
     </g>
     <g id="line2d_6">
      <g>
       <use xlink:href="#m12fb28334d" x="227.205665" y="349.8636" style="stroke: #000000; stroke-width: 0.8"/>
      </g>
     </g>
     <g id="text_3">
      <!-- 100 -->
      <g transform="translate(218.205665 365.1136) scale(0.12 -0.12)">
       <defs>
        <path id="SimHei-31" d="M 1400 3600 
Q 1075 3275 575 2975 
L 575 3450 
Q 1200 3875 1600 4450 
L 1900 4450 
L 1900 150 
L 1400 150 
L 1400 3600 
z
" transform="scale(0.015625)"/>
       </defs>
       <use xlink:href="#SimHei-31"/>
       <use xlink:href="#SimHei-30" transform="translate(50 0)"/>
       <use xlink:href="#SimHei-30" transform="translate(100 0)"/>
      </g>
     </g>
    </g>
    <g id="xtick_4">
     <g id="line2d_7">
      <path d="M 298.565883 349.8636 
L 298.565883 34.5036 
" clip-path="url(#p6e2d2b3c39)" style="fill: none; stroke-dasharray: 2.22,0.96; stroke-dashoffset: 0; stroke: #b0b0b0; stroke-opacity: 0.25; stroke-width: 0.6"/>
     </g>
     <g id="line2d_8">
      <g>
       <use xlink:href="#m12fb28334d" x="298.565883" y="349.8636" style="stroke: #000000; stroke-width: 0.8"/>
      </g>
     </g>
     <g id="text_4">
      <!-- 150 -->
      <g transform="translate(289.565883 365.1136) scale(0.12 -0.12)">
       <use xlink:href="#SimHei-31"/>
       <use xlink:href="#SimHei-35" transform="translate(50 0)"/>
       <use xlink:href="#SimHei-30" transform="translate(100 0)"/>
      </g>
     </g>
    </g>
    <g id="xtick_5">
     <g id="line2d_9">
      <path d="M 369.926102 349.8636 
L 369.926102 34.5036 
" clip-path="url(#p6e2d2b3c39)" style="fill: none; stroke-dasharray: 2.22,0.96; stroke-dashoffset: 0; stroke: #b0b0b0; stroke-opacity: 0.25; stroke-width: 0.6"/>
     </g>
     <g id="line2d_10">
      <g>
       <use xlink:href="#m12fb28334d" x="369.926102" y="349.8636" style="stroke: #000000; stroke-width: 0.8"/>
      </g>
     </g>
     <g id="text_5">
      <!-- 200 -->
      <g transform="translate(360.926102 365.1136) scale(0.12 -0.12)">
       <defs>
        <path id="SimHei-32" d="M 300 250 
Q 325 625 650 925 
Q 975 1225 1475 1862 
Q 1975 2500 2125 2850 
Q 2275 3200 2237 3450 
Q 2200 3700 2000 3862 
Q 1800 4025 1537 4000 
Q 1275 3975 1037 3800 
Q 800 3625 675 3275 
L 200 3350 
Q 400 3925 712 4187 
Q 1025 4450 1450 4475 
Q 1700 4500 1900 4462 
Q 2100 4425 2312 4287 
Q 2525 4150 2662 3875 
Q 2800 3600 2762 3212 
Q 2725 2825 2375 2287 
Q 2025 1750 1025 600 
L 2825 600 
L 2825 150 
L 300 150 
L 300 250 
z
" transform="scale(0.015625)"/>
       </defs>
       <use xlink:href="#SimHei-32"/>
       <use xlink:href="#SimHei-30" transform="translate(50 0)"/>
       <use xlink:href="#SimHei-30" transform="translate(100 0)"/>
      </g>
     </g>
    </g>
    <g id="xtick_6">
     <g id="line2d_11">
      <path d="M 441.286321 349.8636 
L 441.286321 34.5036 
" clip-path="url(#p6e2d2b3c39)" style="fill: none; stroke-dasharray: 2.22,0.96; stroke-dashoffset: 0; stroke: #b0b0b0; stroke-opacity: 0.25; stroke-width: 0.6"/>
     </g>
     <g id="line2d_12">
      <g>
       <use xlink:href="#m12fb28334d" x="441.286321" y="349.8636" style="stroke: #000000; stroke-width: 0.8"/>
      </g>
     </g>
     <g id="text_6">
      <!-- 250 -->
      <g transform="translate(432.286321 365.1136) scale(0.12 -0.12)">
       <use xlink:href="#SimHei-32"/>
       <use xlink:href="#SimHei-35" transform="translate(50 0)"/>
       <use xlink:href="#SimHei-30" transform="translate(100 0)"/>
      </g>
     </g>
    </g>
    <g id="xtick_7">
     <g id="line2d_13">
      <path d="M 512.64654 349.8636 
L 512.64654 34.5036 
" clip-path="url(#p6e2d2b3c39)" style="fill: none; stroke-dasharray: 2.22,0.96; stroke-dashoffset: 0; stroke: #b0b0b0; stroke-opacity: 0.25; stroke-width: 0.6"/>
     </g>
     <g id="line2d_14">
      <g>
       <use xlink:href="#m12fb28334d" x="512.64654" y="349.8636" style="stroke: #000000; stroke-width: 0.8"/>
      </g>
     </g>
     <g id="text_7">
      <!-- 300 -->
      <g transform="translate(503.64654 365.1136) scale(0.12 -0.12)">
       <defs>
        <path id="SimHei-33" d="M 250 1225 
L 700 1300 
Q 800 975 1025 762 
Q 1250 550 1587 562 
Q 1925 575 2125 837 
Q 2325 1100 2300 1437 
Q 2275 1775 2037 1962 
Q 1800 2150 1275 2225 
L 1275 2550 
Q 1800 2600 2037 2825 
Q 2275 3050 2250 3412 
Q 2225 3775 1925 3937 
Q 1625 4100 1287 3975 
Q 950 3850 750 3275 
L 300 3350 
Q 450 3800 712 4100 
Q 975 4400 1425 4450 
Q 1875 4500 2212 4337 
Q 2550 4175 2687 3837 
Q 2825 3500 2725 3100 
Q 2625 2700 2150 2400 
Q 2500 2250 2687 1950 
Q 2875 1650 2812 1162 
Q 2750 675 2375 375 
Q 2000 75 1525 87 
Q 1050 100 700 387 
Q 350 675 250 1225 
z
" transform="scale(0.015625)"/>
       </defs>
       <use xlink:href="#SimHei-33"/>
       <use xlink:href="#SimHei-30" transform="translate(50 0)"/>
       <use xlink:href="#SimHei-30" transform="translate(100 0)"/>
      </g>
     </g>
    </g>
    <g id="xtick_8">
     <g id="line2d_15">
      <path d="M 584.006758 349.8636 
L 584.006758 34.5036 
" clip-path="url(#p6e2d2b3c39)" style="fill: none; stroke-dasharray: 2.22,0.96; stroke-dashoffset: 0; stroke: #b0b0b0; stroke-opacity: 0.25; stroke-width: 0.6"/>
     </g>
     <g id="line2d_16">
      <g>
       <use xlink:href="#m12fb28334d" x="584.006758" y="349.8636" style="stroke: #000000; stroke-width: 0.8"/>
      </g>
     </g>
     <g id="text_8">
      <!-- 350 -->
      <g transform="translate(575.006758 365.1136) scale(0.12 -0.12)">
       <use xlink:href="#SimHei-33"/>
       <use xlink:href="#SimHei-35" transform="translate(50 0)"/>
       <use xlink:href="#SimHei-30" transform="translate(100 0)"/>
      </g>
     </g>
    </g>
    <g id="xtick_9">
     <g id="line2d_17">
      <path d="M 655.366977 349.8636 
L 655.366977 34.5036 
" clip-path="url(#p6e2d2b3c39)" style="fill: none; stroke-dasharray: 2.22,0.96; stroke-dashoffset: 0; stroke: #b0b0b0; stroke-opacity: 0.25; stroke-width: 0.6"/>
     </g>
     <g id="line2d_18">
      <g>
       <use xlink:href="#m12fb28334d" x="655.366977" y="349.8636" style="stroke: #000000; stroke-width: 0.8"/>
      </g>
     </g>
     <g id="text_9">
      <!-- 400 -->
      <g transform="translate(646.366977 365.1136) scale(0.12 -0.12)">
       <defs>
        <path id="SimHei-34" d="M 2000 1100 
L 75 1100 
L 75 1525 
L 2100 4450 
L 2475 4450 
L 2475 1525 
L 3075 1525 
L 3075 1100 
L 2475 1100 
L 2475 150 
L 2000 150 
L 2000 1100 
z
M 2000 1525 
L 2000 3500 
L 600 1525 
L 2000 1525 
z
" transform="scale(0.015625)"/>
       </defs>
       <use xlink:href="#SimHei-34"/>
       <use xlink:href="#SimHei-30" transform="translate(50 0)"/>
       <use xlink:href="#SimHei-30" transform="translate(100 0)"/>
      </g>
     </g>
    </g>
    <g id="text_10">
     <!-- Episode -->
     <g transform="translate(339.4625 382.3011) scale(0.17 -0.17)">
      <defs>
       <path id="SimHei-45" d="M 2900 125 
L 350 125 
L 350 4400 
L 2775 4400 
L 2775 3925 
L 925 3925 
L 925 2600 
L 2625 2600 
L 2625 2125 
L 925 2125 
L 925 600 
L 2900 600 
L 2900 125 
z
" transform="scale(0.015625)"/>
       <path id="SimHei-70" d="M 2825 1525 
Q 2825 800 2475 425 
Q 2125 50 1625 50 
Q 1350 50 1150 162 
Q 950 275 800 500 
L 800 -800 
L 300 -800 
L 300 2925 
L 800 2925 
L 800 2550 
Q 950 2775 1150 2875 
Q 1350 2975 1625 2975 
Q 2125 2975 2475 2612 
Q 2825 2250 2825 1525 
z
M 2275 1525 
Q 2275 2000 2087 2262 
Q 1900 2525 1525 2525 
Q 1225 2525 1012 2262 
Q 800 2000 800 1525 
Q 800 1050 1012 775 
Q 1225 500 1525 500 
Q 1900 500 2087 775 
Q 2275 1050 2275 1525 
z
" transform="scale(0.015625)"/>
       <path id="SimHei-69" d="M 1800 3725 
L 1300 3725 
L 1300 4375 
L 1800 4375 
L 1800 3725 
z
M 1800 125 
L 1300 125 
L 1300 2925 
L 1800 2925 
L 1800 125 
z
" transform="scale(0.015625)"/>
       <path id="SimHei-73" d="M 2750 900 
Q 2750 500 2437 287 
Q 2125 75 1650 75 
Q 1050 75 725 312 
Q 400 550 400 1000 
L 900 1000 
Q 900 700 1112 600 
Q 1325 500 1625 500 
Q 1925 500 2075 612 
Q 2225 725 2225 900 
Q 2225 1025 2100 1150 
Q 1975 1275 1475 1350 
Q 900 1425 687 1637 
Q 475 1850 475 2200 
Q 475 2500 762 2737 
Q 1050 2975 1600 2975 
Q 2100 2975 2387 2750 
Q 2675 2525 2675 2150 
L 2175 2150 
Q 2175 2375 2012 2462 
Q 1850 2550 1600 2550 
Q 1275 2550 1137 2437 
Q 1000 2325 1000 2175 
Q 1000 2000 1125 1900 
Q 1250 1800 1650 1750 
Q 2300 1650 2525 1437 
Q 2750 1225 2750 900 
z
" transform="scale(0.015625)"/>
       <path id="SimHei-6f" d="M 2925 1525 
Q 2925 875 2525 475 
Q 2125 75 1575 75 
Q 1025 75 625 475 
Q 225 875 225 1525 
Q 225 2175 625 2575 
Q 1025 2975 1575 2975 
Q 2125 2975 2525 2575 
Q 2925 2175 2925 1525 
z
M 2375 1525 
Q 2375 2025 2125 2275 
Q 1875 2525 1575 2525 
Q 1275 2525 1025 2275 
Q 775 2025 775 1525 
Q 775 1025 1025 775 
Q 1275 525 1575 525 
Q 1875 525 2125 775 
Q 2375 1025 2375 1525 
z
" transform="scale(0.015625)"/>
       <path id="SimHei-64" d="M 2750 125 
L 2250 125 
L 2250 500 
Q 2100 275 1900 175 
Q 1700 75 1425 75 
Q 925 75 575 437 
Q 225 800 225 1525 
Q 225 2250 575 2625 
Q 925 3000 1425 3000 
Q 1700 3000 1900 2887 
Q 2100 2775 2250 2550 
L 2250 4400 
L 2750 4400 
L 2750 125 
z
M 2250 1525 
Q 2250 2000 2037 2275 
Q 1825 2550 1525 2550 
Q 1150 2550 962 2275 
Q 775 2000 775 1525 
Q 775 1050 962 787 
Q 1150 525 1525 525 
Q 1825 525 2037 787 
Q 2250 1050 2250 1525 
z
" transform="scale(0.015625)"/>
       <path id="SimHei-65" d="M 2850 1075 
Q 2800 625 2450 350 
Q 2100 75 1625 75 
Q 1025 75 637 462 
Q 250 850 250 1525 
Q 250 2200 637 2587 
Q 1025 2975 1625 2975 
Q 2150 2975 2487 2637 
Q 2825 2300 2825 1525 
L 800 1525 
Q 800 975 1037 750 
Q 1275 525 1625 525 
Q 1900 525 2075 662 
Q 2250 800 2300 1075 
L 2850 1075 
z
M 2250 1925 
Q 2200 2275 2025 2412 
Q 1850 2550 1575 2550 
Q 1325 2550 1125 2412 
Q 925 2275 825 1925 
L 2250 1925 
z
" transform="scale(0.015625)"/>
      </defs>
      <use xlink:href="#SimHei-45"/>
      <use xlink:href="#SimHei-70" transform="translate(50 0)"/>
      <use xlink:href="#SimHei-69" transform="translate(100 0)"/>
      <use xlink:href="#SimHei-73" transform="translate(150 0)"/>
      <use xlink:href="#SimHei-6f" transform="translate(200 0)"/>
      <use xlink:href="#SimHei-64" transform="translate(250 0)"/>
      <use xlink:href="#SimHei-65" transform="translate(300 0)"/>
     </g>
    </g>
   </g>
   <g id="matplotlib.axis_2">
    <g id="ytick_1">
     <g id="line2d_19">
      <path d="M 56.0125 312.815134 
L 682.4125 312.815134 
" clip-path="url(#p6e2d2b3c39)" style="fill: none; stroke-dasharray: 2.22,0.96; stroke-dashoffset: 0; stroke: #b0b0b0; stroke-opacity: 0.25; stroke-width: 0.6"/>
     </g>
     <g id="line2d_20">
      <defs>
       <path id="mfce704a784" d="M 0 0 
L -3.5 0 
" style="stroke: #000000; stroke-width: 0.8"/>
      </defs>
      <g>
       <use xlink:href="#mfce704a784" x="56.0125" y="312.815134" style="stroke: #000000; stroke-width: 0.8"/>
      </g>
     </g>
     <g id="text_11">
      <!-- 600 -->
      <g transform="translate(31.0125 316.940134) scale(0.12 -0.12)">
       <defs>
        <path id="SimHei-36" d="M 250 1612 
Q 275 1975 387 2225 
Q 500 2475 725 2850 
L 1750 4450 
L 2325 4450 
L 1275 2800 
Q 1950 2975 2350 2750 
Q 2750 2525 2887 2237 
Q 3025 1950 3037 1612 
Q 3050 1275 2937 950 
Q 2825 625 2537 362 
Q 2250 100 1737 75 
Q 1225 50 862 262 
Q 500 475 362 862 
Q 225 1250 250 1612 
z
M 1025 787 
Q 1250 550 1625 525 
Q 2000 500 2250 775 
Q 2500 1050 2500 1575 
Q 2500 2100 2187 2300 
Q 1875 2500 1487 2450 
Q 1100 2400 925 2075 
Q 750 1750 775 1387 
Q 800 1025 1025 787 
z
" transform="scale(0.015625)"/>
       </defs>
       <use xlink:href="#SimHei-36"/>
       <use xlink:href="#SimHei-30" transform="translate(50 0)"/>
       <use xlink:href="#SimHei-30" transform="translate(100 0)"/>
      </g>
     </g>
    </g>
    <g id="ytick_2">
     <g id="line2d_21">
      <path d="M 56.0125 258.640074 
L 682.4125 258.640074 
" clip-path="url(#p6e2d2b3c39)" style="fill: none; stroke-dasharray: 2.22,0.96; stroke-dashoffset: 0; stroke: #b0b0b0; stroke-opacity: 0.25; stroke-width: 0.6"/>
     </g>
     <g id="line2d_22">
      <g>
       <use xlink:href="#mfce704a784" x="56.0125" y="258.640074" style="stroke: #000000; stroke-width: 0.8"/>
      </g>
     </g>
     <g id="text_12">
      <!-- 800 -->
      <g transform="translate(31.0125 262.765074) scale(0.12 -0.12)">
       <defs>
        <path id="SimHei-38" d="M 175 1375 
Q 175 1675 325 1962 
Q 475 2250 825 2425 
Q 525 2600 425 2812 
Q 325 3025 312 3300 
Q 300 3575 387 3775 
Q 475 3975 650 4150 
Q 825 4325 1037 4387 
Q 1250 4450 1500 4450 
Q 1750 4450 1950 4400 
Q 2150 4350 2375 4187 
Q 2600 4025 2700 3725 
Q 2800 3425 2687 3025 
Q 2575 2625 2100 2400 
Q 2525 2275 2700 2012 
Q 2875 1750 2875 1375 
Q 2875 1000 2762 775 
Q 2650 550 2512 400 
Q 2375 250 2137 162 
Q 1900 75 1537 75 
Q 1175 75 912 162 
Q 650 250 475 425 
Q 300 600 237 837 
Q 175 1075 175 1375 
z
M 687 1400 
Q 675 1100 787 875 
Q 900 650 1200 587 
Q 1500 525 1825 600 
Q 2150 675 2275 950 
Q 2400 1225 2362 1500 
Q 2325 1775 2050 1962 
Q 1775 2150 1450 2125 
Q 1125 2100 912 1900 
Q 700 1700 687 1400 
z
M 775 3350 
Q 775 3100 950 2875 
Q 1125 2650 1500 2650 
Q 1875 2650 2062 2875 
Q 2250 3100 2237 3412 
Q 2225 3725 2012 3875 
Q 1800 4025 1437 4000 
Q 1075 3975 925 3787 
Q 775 3600 775 3350 
z
" transform="scale(0.015625)"/>
       </defs>
       <use xlink:href="#SimHei-38"/>
       <use xlink:href="#SimHei-30" transform="translate(50 0)"/>
       <use xlink:href="#SimHei-30" transform="translate(100 0)"/>
      </g>
     </g>
    </g>
    <g id="ytick_3">
     <g id="line2d_23">
      <path d="M 56.0125 204.465014 
L 682.4125 204.465014 
" clip-path="url(#p6e2d2b3c39)" style="fill: none; stroke-dasharray: 2.22,0.96; stroke-dashoffset: 0; stroke: #b0b0b0; stroke-opacity: 0.25; stroke-width: 0.6"/>
     </g>
     <g id="line2d_24">
      <g>
       <use xlink:href="#mfce704a784" x="56.0125" y="204.465014" style="stroke: #000000; stroke-width: 0.8"/>
      </g>
     </g>
     <g id="text_13">
      <!-- 1000 -->
      <g transform="translate(25.0125 208.590014) scale(0.12 -0.12)">
       <use xlink:href="#SimHei-31"/>
       <use xlink:href="#SimHei-30" transform="translate(50 0)"/>
       <use xlink:href="#SimHei-30" transform="translate(100 0)"/>
       <use xlink:href="#SimHei-30" transform="translate(150 0)"/>
      </g>
     </g>
    </g>
    <g id="ytick_4">
     <g id="line2d_25">
      <path d="M 56.0125 150.289954 
L 682.4125 150.289954 
" clip-path="url(#p6e2d2b3c39)" style="fill: none; stroke-dasharray: 2.22,0.96; stroke-dashoffset: 0; stroke: #b0b0b0; stroke-opacity: 0.25; stroke-width: 0.6"/>
     </g>
     <g id="line2d_26">
      <g>
       <use xlink:href="#mfce704a784" x="56.0125" y="150.289954" style="stroke: #000000; stroke-width: 0.8"/>
      </g>
     </g>
     <g id="text_14">
      <!-- 1200 -->
      <g transform="translate(25.0125 154.414954) scale(0.12 -0.12)">
       <use xlink:href="#SimHei-31"/>
       <use xlink:href="#SimHei-32" transform="translate(50 0)"/>
       <use xlink:href="#SimHei-30" transform="translate(100 0)"/>
       <use xlink:href="#SimHei-30" transform="translate(150 0)"/>
      </g>
     </g>
    </g>
    <g id="ytick_5">
     <g id="line2d_27">
      <path d="M 56.0125 96.114894 
L 682.4125 96.114894 
" clip-path="url(#p6e2d2b3c39)" style="fill: none; stroke-dasharray: 2.22,0.96; stroke-dashoffset: 0; stroke: #b0b0b0; stroke-opacity: 0.25; stroke-width: 0.6"/>
     </g>
     <g id="line2d_28">
      <g>
       <use xlink:href="#mfce704a784" x="56.0125" y="96.114894" style="stroke: #000000; stroke-width: 0.8"/>
      </g>
     </g>
     <g id="text_15">
      <!-- 1400 -->
      <g transform="translate(25.0125 100.239894) scale(0.12 -0.12)">
       <use xlink:href="#SimHei-31"/>
       <use xlink:href="#SimHei-34" transform="translate(50 0)"/>
       <use xlink:href="#SimHei-30" transform="translate(100 0)"/>
       <use xlink:href="#SimHei-30" transform="translate(150 0)"/>
      </g>
     </g>
    </g>
    <g id="ytick_6">
     <g id="line2d_29">
      <path d="M 56.0125 41.939834 
L 682.4125 41.939834 
" clip-path="url(#p6e2d2b3c39)" style="fill: none; stroke-dasharray: 2.22,0.96; stroke-dashoffset: 0; stroke: #b0b0b0; stroke-opacity: 0.25; stroke-width: 0.6"/>
     </g>
     <g id="line2d_30">
      <g>
       <use xlink:href="#mfce704a784" x="56.0125" y="41.939834" style="stroke: #000000; stroke-width: 0.8"/>
      </g>
     </g>
     <g id="text_16">
      <!-- 1600 -->
      <g transform="translate(25.0125 46.064834) scale(0.12 -0.12)">
       <use xlink:href="#SimHei-31"/>
       <use xlink:href="#SimHei-36" transform="translate(50 0)"/>
       <use xlink:href="#SimHei-30" transform="translate(100 0)"/>
       <use xlink:href="#SimHei-30" transform="translate(150 0)"/>
      </g>
     </g>
    </g>
    <g id="text_17">
     <!-- Total Reward -->
     <g transform="translate(18.8875 243.1836) rotate(-90) scale(0.17 -0.17)">
      <defs>
       <path id="SimHei-54" d="M 2850 3925 
L 1850 3925 
L 1850 125 
L 1275 125 
L 1275 3925 
L 275 3925 
L 275 4400 
L 2850 4400 
L 2850 3925 
z
" transform="scale(0.015625)"/>
       <path id="SimHei-74" d="M 2750 200 
Q 2625 150 2462 112 
Q 2300 75 2025 75 
Q 1575 75 1300 325 
Q 1025 575 1025 1025 
L 1025 2525 
L 175 2525 
L 175 2925 
L 1025 2925 
L 1025 3900 
L 1525 3900 
L 1525 2925 
L 2550 2925 
L 2550 2525 
L 1525 2525 
L 1525 1000 
Q 1525 800 1625 662 
Q 1725 525 2000 525 
Q 2275 525 2450 575 
Q 2625 625 2750 700 
L 2750 200 
z
" transform="scale(0.015625)"/>
       <path id="SimHei-61" d="M 2875 125 
L 2275 125 
Q 2225 175 2200 262 
Q 2175 350 2175 475 
Q 2000 275 1750 175 
Q 1500 75 1225 75 
Q 825 75 550 275 
Q 275 475 275 850 
Q 275 1225 525 1450 
Q 775 1675 1300 1750 
Q 1650 1800 1912 1875 
Q 2175 1950 2175 2075 
Q 2175 2225 2062 2375 
Q 1950 2525 1575 2525 
Q 1275 2525 1137 2412 
Q 1000 2300 950 2100 
L 400 2100 
Q 450 2500 762 2737 
Q 1075 2975 1575 2975 
Q 2125 2975 2400 2725 
Q 2675 2475 2675 2025 
L 2675 650 
Q 2675 500 2725 375 
Q 2775 250 2875 125 
z
M 2175 1050 
L 2175 1550 
Q 2025 1500 1887 1462 
Q 1750 1425 1425 1375 
Q 1050 1325 937 1200 
Q 825 1075 825 900 
Q 825 750 937 637 
Q 1050 525 1275 525 
Q 1500 525 1762 650 
Q 2025 775 2175 1050 
z
" transform="scale(0.015625)"/>
       <path id="SimHei-6c" d="M 1825 125 
L 1325 125 
L 1325 4400 
L 1825 4400 
L 1825 125 
z
" transform="scale(0.015625)"/>
       <path id="SimHei-20" transform="scale(0.015625)"/>
       <path id="SimHei-52" d="M 3000 125 
L 2400 125 
L 1500 1975 
L 850 1975 
L 850 125 
L 275 125 
L 275 4400 
L 1525 4400 
Q 2125 4400 2500 4112 
Q 2875 3825 2875 3175 
Q 2875 2675 2625 2400 
Q 2375 2125 2050 2050 
L 3000 125 
z
M 2300 3175 
Q 2300 3525 2087 3725 
Q 1875 3925 1400 3925 
L 850 3925 
L 850 2450 
L 1550 2450 
Q 1850 2450 2075 2612 
Q 2300 2775 2300 3175 
z
" transform="scale(0.015625)"/>
       <path id="SimHei-77" d="M 3075 2925 
L 2450 75 
L 1975 75 
L 1575 2250 
L 1525 2250 
L 1125 75 
L 650 75 
L 25 2925 
L 550 2925 
L 875 1050 
L 925 1050 
L 1275 2925 
L 1825 2925 
L 2175 1050 
L 2225 1050 
L 2550 2925 
L 3075 2925 
z
" transform="scale(0.015625)"/>
       <path id="SimHei-72" d="M 2500 2425 
Q 2025 2500 1700 2287 
Q 1375 2075 1150 1550 
L 1150 125 
L 650 125 
L 650 2925 
L 1150 2925 
L 1150 2200 
Q 1375 2600 1712 2787 
Q 2050 2975 2500 2975 
L 2500 2425 
z
" transform="scale(0.015625)"/>
      </defs>
      <use xlink:href="#SimHei-54"/>
      <use xlink:href="#SimHei-6f" transform="translate(50 0)"/>
      <use xlink:href="#SimHei-74" transform="translate(100 0)"/>
      <use xlink:href="#SimHei-61" transform="translate(150 0)"/>
      <use xlink:href="#SimHei-6c" transform="translate(200 0)"/>
      <use xlink:href="#SimHei-20" transform="translate(250 0)"/>
      <use xlink:href="#SimHei-52" transform="translate(300 0)"/>
      <use xlink:href="#SimHei-65" transform="translate(350 0)"/>
      <use xlink:href="#SimHei-77" transform="translate(400 0)"/>
      <use xlink:href="#SimHei-61" transform="translate(450 0)"/>
      <use xlink:href="#SimHei-72" transform="translate(500 0)"/>
      <use xlink:href="#SimHei-64" transform="translate(550 0)"/>
     </g>
    </g>
   </g>
   <g id="line2d_31">
    <path d="M 84.485227 109.829845 
L 85.912432 115.348542 
L 87.339636 124.200746 
L 88.76684 140.142821 
L 90.194045 152.455049 
L 91.621249 152.285866 
L 93.048454 162.881308 
L 94.475658 170.53185 
L 95.902862 172.612212 
L 97.330067 174.30704 
L 98.757271 169.532371 
L 100.184475 175.058321 
L 103.038884 214.045752 
L 104.466089 215.731631 
L 105.893293 222.249072 
L 107.320497 222.262442 
L 108.747702 219.595441 
L 110.174906 207.342754 
L 111.60211 209.152021 
L 113.029315 206.487893 
L 114.456519 191.704343 
L 115.883724 179.621979 
L 118.738132 159.548665 
L 120.165337 148.808706 
L 121.592541 139.612087 
L 123.019745 143.590669 
L 124.44695 134.456726 
L 125.874154 128.624618 
L 127.301359 120.749458 
L 130.155767 106.164138 
L 131.582972 101.940588 
L 133.010176 99.280266 
L 134.43738 95.038124 
L 135.864585 94.474395 
L 137.291789 91.198794 
L 138.718994 88.468738 
L 141.573402 83.857432 
L 143.000607 83.386372 
L 144.427811 81.606572 
L 145.855015 80.416889 
L 147.28222 78.128571 
L 148.709424 87.189002 
L 150.136629 81.808212 
L 151.563833 79.659529 
L 152.991037 78.442068 
L 154.418242 74.833881 
L 155.845446 71.927748 
L 157.27265 67.776026 
L 158.699855 66.126141 
L 160.127059 64.970391 
L 161.554263 62.309983 
L 162.981468 61.887027 
L 164.408672 60.549566 
L 165.835877 60.994343 
L 167.263081 61.565014 
L 168.690285 61.306399 
L 170.11749 59.838279 
L 171.544694 57.303829 
L 172.971898 56.599755 
L 174.399103 57.569554 
L 175.826307 64.31544 
L 177.253512 61.935201 
L 178.680716 63.219844 
L 180.10792 67.653028 
L 181.535125 67.610029 
L 184.389533 73.872615 
L 185.816738 72.826572 
L 187.243942 71.505476 
L 188.671147 70.924205 
L 190.098351 68.948447 
L 191.525555 66.244268 
L 192.95276 66.105941 
L 194.379964 88.958632 
L 195.807168 85.280494 
L 197.234373 104.838598 
L 198.661577 101.660769 
L 201.515986 90.652989 
L 202.94319 98.067146 
L 204.370395 93.480528 
L 205.797599 88.032581 
L 207.224803 113.123767 
L 208.652008 107.321824 
L 210.079212 102.409904 
L 211.506417 119.227204 
L 212.933621 113.530915 
L 214.360825 129.261085 
L 215.78803 132.148461 
L 217.215234 131.043874 
L 218.642438 136.585548 
L 220.069643 151.803714 
L 221.496847 150.186036 
L 222.924052 159.833324 
L 224.351256 159.712913 
L 225.77846 158.160595 
L 228.632869 184.692234 
L 230.060073 171.405955 
L 231.487278 181.406356 
L 232.914482 172.107531 
L 234.341687 160.623583 
L 235.768891 164.016249 
L 237.196095 156.248506 
L 238.6233 169.827336 
L 240.050504 159.487991 
L 241.477708 185.941864 
L 242.904913 179.620902 
L 244.332117 166.567086 
L 245.759322 156.163259 
L 248.61373 179.050012 
L 250.040935 191.815777 
L 251.468139 191.81743 
L 252.895343 197.954852 
L 254.322548 202.294367 
L 255.749752 201.470438 
L 257.176957 205.957084 
L 258.604161 209.729515 
L 260.031365 211.370711 
L 261.45857 210.811774 
L 262.885774 197.623155 
L 264.312978 207.610217 
L 265.740183 207.299837 
L 268.594592 198.132148 
L 270.021796 208.658719 
L 271.449 221.200971 
L 272.876205 230.872119 
L 274.303409 242.458544 
L 275.730613 241.670989 
L 277.157818 244.887159 
L 278.585022 231.697143 
L 280.012227 226.779769 
L 281.439431 221.35129 
L 282.866635 219.524781 
L 284.29384 229.186059 
L 285.721044 228.329714 
L 287.148248 219.845149 
L 288.575453 226.519065 
L 290.002657 216.611147 
L 291.429862 227.179 
L 292.857066 236.768085 
L 294.28427 236.346737 
L 295.711475 229.902996 
L 297.138679 233.150731 
L 298.565883 225.035244 
L 299.993088 220.05098 
L 301.420292 218.50406 
L 302.847497 210.918856 
L 304.274701 215.714038 
L 305.701905 226.884129 
L 307.12911 222.487202 
L 308.556314 214.277516 
L 309.983518 216.290736 
L 311.410723 206.588669 
L 312.837927 201.382505 
L 314.265132 209.124524 
L 315.692336 208.357787 
L 317.11954 208.734967 
L 318.546745 213.865365 
L 319.973949 211.569192 
L 321.401153 209.934714 
L 322.828358 216.252073 
L 324.255562 207.869897 
L 325.682767 213.644634 
L 327.109971 206.644963 
L 328.537175 214.13974 
L 329.96438 210.318587 
L 331.391584 220.684748 
L 332.818788 210.789978 
L 334.245993 202.705326 
L 335.673197 187.996818 
L 337.100402 180.831596 
L 338.527606 171.113669 
L 339.95481 168.514509 
L 341.382015 169.734223 
L 342.809219 175.963778 
L 344.236423 170.214726 
L 345.663628 170.851562 
L 347.090832 183.570405 
L 348.518037 181.430426 
L 349.945241 183.148105 
L 351.372445 177.898048 
L 352.79965 182.211031 
L 354.226854 179.726292 
L 355.654058 185.284907 
L 357.081263 193.523808 
L 358.508467 187.316285 
L 359.935672 177.100408 
L 361.362876 175.482506 
L 362.79008 177.694031 
L 364.217285 177.315751 
L 367.071693 174.199887 
L 368.498898 176.185993 
L 369.926102 177.149122 
L 371.353307 178.580576 
L 372.780511 187.501091 
L 374.207715 182.806275 
L 375.63492 186.237844 
L 377.062124 187.874271 
L 378.489328 178.263515 
L 379.916533 174.177685 
L 381.343737 180.228476 
L 382.770942 181.944433 
L 384.198146 179.792365 
L 385.62535 177.252402 
L 387.052555 180.98647 
L 388.479759 180.73706 
L 389.906963 179.896921 
L 391.334168 186.716435 
L 392.761372 178.884599 
L 394.188577 181.249545 
L 395.615781 177.975824 
L 397.042985 174.079224 
L 398.47019 169.682192 
L 399.897394 163.281219 
L 401.324598 167.915094 
L 402.751803 173.131742 
L 404.179007 179.866378 
L 405.606212 176.083081 
L 407.033416 183.904406 
L 408.46062 181.026541 
L 409.887825 186.746866 
L 411.315029 195.260144 
L 412.742233 190.492212 
L 414.169438 189.496392 
L 415.596642 185.941191 
L 417.023847 178.206386 
L 418.451051 169.793334 
L 419.878255 175.428439 
L 421.30546 167.330098 
L 422.732664 170.040874 
L 424.159868 166.717393 
L 425.587073 162.110193 
L 427.014277 156.847261 
L 428.441482 162.961771 
L 429.868686 166.883743 
L 431.29589 161.390696 
L 432.723095 165.15151 
L 434.150299 169.577068 
L 435.577503 171.524789 
L 437.004708 167.621724 
L 438.431912 160.197447 
L 439.859117 159.949058 
L 441.286321 155.118586 
L 442.713525 163.2627 
L 444.14073 156.663614 
L 445.567934 164.441165 
L 446.995138 166.308002 
L 448.422343 163.234373 
L 449.849547 168.040665 
L 451.276752 159.261949 
L 452.703956 171.4245 
L 454.13116 186.446609 
L 455.558365 186.207547 
L 456.985569 184.336938 
L 458.412773 180.623678 
L 459.839978 182.172128 
L 461.267182 184.955218 
L 462.694387 180.214015 
L 464.121591 184.770428 
L 465.548795 182.139338 
L 466.976 179.94821 
L 468.403204 176.172725 
L 469.830408 167.971072 
L 471.257613 163.509363 
L 472.684817 162.305376 
L 474.112022 160.79246 
L 475.539226 162.701783 
L 476.96643 171.394261 
L 478.393635 165.151625 
L 479.820839 161.146382 
L 481.248043 160.50031 
L 482.675248 166.045885 
L 484.102452 166.679792 
L 485.529657 168.169528 
L 486.956861 167.492605 
L 488.384065 168.941918 
L 489.81127 164.983876 
L 491.238474 166.961474 
L 492.665678 170.477086 
L 494.092883 168.720484 
L 495.520087 172.03145 
L 496.947292 173.458456 
L 499.8017 165.728967 
L 501.228905 165.583928 
L 502.656109 160.241172 
L 504.083313 155.742974 
L 505.510518 146.932135 
L 506.937722 164.606519 
L 508.364927 171.136351 
L 509.792131 175.360186 
L 511.219335 182.27113 
L 512.64654 181.109656 
L 514.073744 177.976849 
L 515.500948 174.519514 
L 516.928153 166.628571 
L 518.355357 170.449243 
L 519.782562 170.352792 
L 521.209766 164.912596 
L 522.63697 167.189341 
L 524.064175 164.099815 
L 525.491379 165.581897 
L 526.918583 163.823729 
L 528.345788 172.04806 
L 529.772992 172.394022 
L 531.200197 170.960442 
L 532.627401 174.939296 
L 534.054605 173.874413 
L 535.48181 168.048663 
L 536.909014 169.769986 
L 538.336218 168.206618 
L 539.763423 163.54756 
L 541.190627 158.015015 
L 542.617832 160.316062 
L 544.045036 161.841964 
L 545.47224 162.062891 
L 546.899445 166.610518 
L 548.326649 169.948107 
L 549.753853 167.723623 
L 551.181058 163.099898 
L 552.608262 157.988507 
L 555.462671 143.72184 
L 556.889875 151.015902 
L 558.31708 156.161006 
L 559.744284 168.49701 
L 561.171488 175.196489 
L 562.598693 171.305441 
L 564.025897 179.454212 
L 565.453102 172.698547 
L 566.880306 173.179111 
L 568.30751 171.525557 
L 569.734715 177.555544 
L 571.161919 181.6654 
L 572.589123 179.816859 
L 574.016328 185.20969 
L 575.443532 180.574634 
L 576.870737 174.729265 
L 578.297941 170.167428 
L 579.725145 168.562554 
L 581.15235 168.484058 
L 582.579554 164.637529 
L 584.006758 154.779379 
L 585.433963 150.954569 
L 586.861167 168.408966 
L 589.715576 172.732806 
L 591.14278 166.252801 
L 592.569985 161.607931 
L 593.997189 155.847248 
L 595.424393 154.693563 
L 596.851598 152.745999 
L 598.278802 158.74761 
L 599.706006 157.343418 
L 601.133211 164.984512 
L 602.560415 160.295805 
L 603.98762 161.596704 
L 605.414824 159.209711 
L 606.842028 157.307847 
L 608.269233 149.812095 
L 609.696437 158.246312 
L 611.123641 168.751791 
L 612.550846 174.315609 
L 613.97805 178.269707 
L 615.405255 173.46754 
L 616.832459 173.811384 
L 618.259663 177.174277 
L 619.686868 191.257349 
L 621.114072 195.239277 
L 622.541276 190.877175 
L 623.968481 184.313307 
L 625.395685 181.898607 
L 626.82289 174.780021 
L 628.250094 171.441193 
L 629.677298 164.060951 
L 631.104503 173.049416 
L 632.531707 172.675511 
L 633.958911 180.192479 
L 635.386116 185.11685 
L 636.81332 195.151009 
L 638.240525 194.752865 
L 639.667729 192.553284 
L 641.094933 190.083962 
L 642.522138 190.668955 
L 643.949342 199.730786 
L 645.376546 193.727012 
L 646.803751 197.040371 
L 648.230955 196.116196 
L 649.65816 199.733795 
L 652.512568 187.754444 
L 653.939773 188.349682 
L 653.939773 188.349682 
" clip-path="url(#p6e2d2b3c39)" style="fill: none; stroke: #1f77b4; stroke-width: 1.2; stroke-linecap: square"/>
   </g>
   <g id="line2d_32">
    <path d="M 84.485227 268.186224 
L 85.912432 268.852572 
L 88.76684 255.141406 
L 90.194045 254.966921 
L 91.621249 254.281107 
L 93.048454 249.629731 
L 94.475658 246.704802 
L 95.902862 246.858176 
L 97.330067 246.00995 
L 98.757271 240.963889 
L 100.184475 236.652185 
L 101.61168 237.525633 
L 103.038884 228.343056 
L 105.893293 220.059262 
L 107.320497 224.163968 
L 108.747702 228.943791 
L 111.60211 224.297123 
L 113.029315 227.264993 
L 114.456519 228.200062 
L 115.883724 227.946044 
L 117.310928 221.841701 
L 118.738132 220.959994 
L 120.165337 216.783015 
L 121.592541 217.651884 
L 123.019745 210.598301 
L 124.44695 211.383088 
L 125.874154 204.977264 
L 127.301359 201.919623 
L 128.728563 204.703588 
L 130.155767 197.892411 
L 131.582972 197.061074 
L 133.010176 199.936571 
L 134.43738 200.293745 
L 135.864585 203.269605 
L 137.291789 203.099891 
L 138.718994 194.763649 
L 140.146198 197.382815 
L 141.573402 197.690969 
L 143.000607 193.103464 
L 144.427811 192.604539 
L 145.855015 185.378199 
L 147.28222 182.104298 
L 148.709424 182.157977 
L 150.136629 182.938065 
L 151.563833 181.32854 
L 152.991037 180.663853 
L 154.418242 180.156869 
L 157.27265 182.339211 
L 158.699855 194.429374 
L 160.127059 189.860213 
L 161.554263 183.05511 
L 162.981468 182.21506 
L 164.408672 182.605755 
L 165.835877 185.884211 
L 167.263081 185.17519 
L 168.690285 185.185409 
L 170.11749 181.936635 
L 171.544694 176.729159 
L 172.971898 179.269035 
L 175.826307 176.733848 
L 177.253512 173.264494 
L 178.680716 174.636478 
L 180.10792 178.086355 
L 181.535125 176.216057 
L 182.962329 173.986851 
L 184.389533 172.72886 
L 185.816738 168.462042 
L 187.243942 167.120406 
L 188.671147 167.418623 
L 190.098351 162.796576 
L 191.525555 166.329208 
L 192.95276 172.057457 
L 194.379964 169.754518 
L 195.807168 165.751677 
L 197.234373 162.165471 
L 198.661577 159.717024 
L 200.088782 159.793523 
L 201.515986 160.490123 
L 202.94319 154.040049 
L 204.370395 151.042336 
L 205.797599 152.328956 
L 207.224803 148.035269 
L 208.652008 144.550177 
L 210.079212 144.804734 
L 211.506417 143.855469 
L 212.933621 144.529692 
L 214.360825 142.271066 
L 215.78803 138.99722 
L 217.215234 139.036542 
L 218.642438 142.841304 
L 220.069643 139.548192 
L 221.496847 143.097403 
L 222.924052 148.789513 
L 224.351256 150.895193 
L 225.77846 146.63937 
L 227.205665 141.891523 
L 228.632869 138.953078 
L 230.060073 138.977179 
L 231.487278 140.353326 
L 232.914482 138.429444 
L 234.341687 133.583094 
L 235.768891 131.158462 
L 237.196095 133.473478 
L 238.6233 136.741698 
L 240.050504 130.225604 
L 241.477708 131.432802 
L 242.904913 129.655676 
L 244.332117 133.047452 
L 245.759322 133.716647 
L 247.186526 130.713003 
L 248.61373 131.811435 
L 250.040935 129.415276 
L 251.468139 134.080259 
L 252.895343 132.151823 
L 254.322548 125.512666 
L 255.749752 122.653548 
L 260.031365 122.171413 
L 261.45857 119.561885 
L 262.885774 118.623165 
L 264.312978 116.292175 
L 265.740183 112.299858 
L 268.594592 109.921625 
L 270.021796 108.221952 
L 271.449 106.339855 
L 272.876205 106.033371 
L 274.303409 106.879409 
L 275.730613 101.816992 
L 277.157818 102.946317 
L 278.585022 105.272508 
L 280.012227 104.539407 
L 281.439431 107.112074 
L 282.866635 105.096253 
L 284.29384 102.407443 
L 285.721044 106.556671 
L 287.148248 105.982768 
L 288.575453 103.791638 
L 290.002657 105.886356 
L 291.429862 105.444932 
L 292.857066 101.970907 
L 294.28427 100.847526 
L 295.711475 101.412802 
L 297.138679 102.426724 
L 298.565883 102.081473 
L 299.993088 101.058789 
L 301.420292 97.067691 
L 302.847497 95.960414 
L 304.274701 95.763546 
L 305.701905 97.682577 
L 307.12911 94.657057 
L 308.556314 91.348755 
L 309.983518 89.416788 
L 311.410723 85.997802 
L 312.837927 87.104447 
L 314.265132 86.44376 
L 315.692336 86.79267 
L 317.11954 85.443586 
L 318.546745 87.888129 
L 319.973949 89.244607 
L 321.401153 89.696945 
L 322.828358 94.766697 
L 324.255562 97.401817 
L 325.682767 92.797685 
L 327.109971 93.410864 
L 328.537175 92.049377 
L 329.96438 90.186796 
L 331.391584 94.373468 
L 332.818788 93.317679 
L 334.245993 93.539994 
L 335.673197 94.536896 
L 337.100402 94.21641 
L 338.527606 90.617792 
L 339.95481 88.317694 
L 341.382015 88.246761 
L 342.809219 86.821001 
L 344.236423 86.458484 
L 345.663628 85.02553 
L 347.090832 85.713144 
L 348.518037 87.61492 
L 351.372445 84.381411 
L 352.79965 84.236275 
L 354.226854 86.605553 
L 355.654058 83.88964 
L 357.081263 81.936965 
L 358.508467 82.0309 
L 359.935672 79.635688 
L 361.362876 79.427144 
L 362.79008 78.863679 
L 364.217285 81.092593 
L 365.644489 79.719313 
L 368.498898 77.841241 
L 369.926102 75.368664 
L 371.353307 74.154695 
L 372.780511 72.608482 
L 374.207715 70.313628 
L 375.63492 68.789823 
L 377.062124 69.302729 
L 379.916533 71.710582 
L 381.343737 72.086036 
L 382.770942 71.497298 
L 384.198146 71.239522 
L 385.62535 71.461827 
L 387.052555 70.018581 
L 388.479759 72.821433 
L 389.906963 69.338962 
L 391.334168 69.074554 
L 394.188577 65.724886 
L 397.042985 65.942881 
L 398.47019 68.050327 
L 399.897394 68.239816 
L 401.324598 68.193426 
L 402.751803 68.432956 
L 404.179007 64.729444 
L 405.606212 62.560181 
L 407.033416 65.479802 
L 408.46062 64.92562 
L 409.887825 65.066895 
L 411.315029 67.44549 
L 412.742233 67.878728 
L 414.169438 66.056319 
L 415.596642 68.677653 
L 417.023847 69.681722 
L 418.451051 67.928685 
L 419.878255 67.545095 
L 421.30546 68.043129 
L 422.732664 67.653039 
L 424.159868 67.738087 
L 425.587073 67.497044 
L 427.014277 69.019057 
L 429.868686 69.572859 
L 431.29589 69.722336 
L 432.723095 70.632972 
L 434.150299 71.260803 
L 435.577503 71.305252 
L 437.004708 71.140258 
L 438.431912 73.704357 
L 439.859117 71.636052 
L 441.286321 74.595317 
L 442.713525 71.776833 
L 444.14073 71.813577 
L 445.567934 68.860643 
L 446.995138 69.740253 
L 448.422343 70.205428 
L 449.849547 67.716677 
L 451.276752 66.762398 
L 452.703956 70.831455 
L 454.13116 71.953856 
L 455.558365 71.214718 
L 456.985569 71.98591 
L 458.412773 73.248536 
L 459.839978 72.351195 
L 461.267182 70.633318 
L 462.694387 69.122133 
L 464.121591 68.262093 
L 465.548795 69.163747 
L 466.976 65.885747 
L 468.403204 65.612419 
L 469.830408 67.886014 
L 471.257613 67.943861 
L 472.684817 69.260118 
L 474.112022 68.733802 
L 475.539226 69.188129 
L 476.96643 67.133122 
L 478.393635 65.397677 
L 479.820839 65.043504 
L 481.248043 64.81612 
L 482.675248 65.81204 
L 484.102452 63.566417 
L 486.956861 64.152545 
L 488.384065 65.42919 
L 489.81127 67.028097 
L 491.238474 67.892727 
L 492.665678 67.11683 
L 494.092883 67.456006 
L 495.520087 66.368543 
L 496.947292 69.22171 
L 498.374496 68.274776 
L 499.8017 68.656539 
L 501.228905 67.328301 
L 502.656109 71.005288 
L 504.083313 71.773049 
L 505.510518 70.332879 
L 506.937722 70.39171 
L 508.364927 68.338508 
L 511.219335 66.180226 
L 512.64654 66.922076 
L 514.073744 66.594637 
L 515.500948 64.860407 
L 516.928153 65.335048 
L 518.355357 66.305475 
L 519.782562 66.981624 
L 522.63697 66.104725 
L 524.064175 68.045234 
L 525.491379 66.45791 
L 526.918583 65.633555 
L 528.345788 68.616968 
L 529.772992 66.987732 
L 531.200197 67.611192 
L 534.054605 70.481331 
L 535.48181 69.452121 
L 536.909014 69.581979 
L 538.336218 69.080255 
L 539.763423 70.537825 
L 541.190627 70.770559 
L 542.617832 68.730454 
L 544.045036 68.046753 
L 545.47224 67.873341 
L 546.899445 65.539425 
L 548.326649 65.664285 
L 549.753853 61.88378 
L 551.181058 62.6482 
L 554.035467 66.529873 
L 555.462671 65.758333 
L 556.889875 66.317844 
L 558.31708 65.110799 
L 559.744284 64.614082 
L 561.171488 61.869747 
L 562.598693 61.965179 
L 564.025897 64.351096 
L 565.453102 61.804976 
L 566.880306 62.762838 
L 568.30751 65.643315 
L 569.734715 64.918338 
L 571.161919 64.453783 
L 572.589123 64.507995 
L 574.016328 61.825643 
L 575.443532 61.110621 
L 576.870737 59.151089 
L 578.297941 59.195426 
L 579.725145 58.525549 
L 581.15235 58.957512 
L 582.579554 58.786631 
L 584.006758 59.150101 
L 585.433963 58.116666 
L 586.861167 59.586307 
L 588.288371 59.113138 
L 589.715576 57.991205 
L 591.14278 58.569186 
L 592.569985 59.485438 
L 593.997189 61.171574 
L 595.424393 62.0041 
L 596.851598 60.433608 
L 598.278802 62.543905 
L 599.706006 60.179212 
L 601.133211 62.32662 
L 602.560415 62.254436 
L 603.98762 62.575447 
L 605.414824 60.230978 
L 606.842028 58.695424 
L 608.269233 60.486022 
L 609.696437 61.668688 
L 611.123641 62.384625 
L 612.550846 62.774865 
L 615.405255 60.431679 
L 616.832459 59.132067 
L 618.259663 58.525443 
L 619.686868 58.234061 
L 621.114072 56.264288 
L 622.541276 56.025504 
L 623.968481 57.841969 
L 625.395685 57.545682 
L 626.82289 56.032817 
L 629.677298 57.842841 
L 631.104503 59.374579 
L 632.531707 61.086457 
L 633.958911 61.914019 
L 635.386116 62.975572 
L 636.81332 63.580339 
L 638.240525 60.229231 
L 639.667729 60.086874 
L 641.094933 61.055659 
L 642.522138 61.07331 
L 643.949342 60.864301 
L 645.376546 62.322372 
L 646.803751 61.762907 
L 648.230955 60.275427 
L 649.65816 61.086896 
L 651.085364 59.968798 
L 652.512568 61.08809 
L 653.939773 60.265776 
L 653.939773 60.265776 
" clip-path="url(#p6e2d2b3c39)" style="fill: none; stroke: #ff7f0e; stroke-width: 1.2; stroke-linecap: square"/>
   </g>
   <g id="line2d_33">
    <path d="M 84.485227 222.446582 
L 85.912432 227.305387 
L 87.339636 224.538851 
L 88.76684 224.016182 
L 90.194045 225.940495 
L 91.621249 222.304029 
L 93.048454 221.307998 
L 94.475658 221.562609 
L 95.902862 221.99922 
L 97.330067 225.899702 
L 98.757271 219.728866 
L 100.184475 211.13103 
L 101.61168 217.969529 
L 103.038884 218.883708 
L 104.466089 215.620537 
L 105.893293 211.344546 
L 107.320497 210.837845 
L 108.747702 209.769482 
L 110.174906 211.007035 
L 111.60211 204.699862 
L 113.029315 201.447108 
L 114.456519 199.193873 
L 115.883724 192.059177 
L 117.310928 192.360923 
L 118.738132 196.944927 
L 121.592541 185.601298 
L 123.019745 175.052998 
L 124.44695 168.497865 
L 125.874154 166.656053 
L 127.301359 162.729938 
L 128.728563 162.016996 
L 130.155767 160.507505 
L 131.582972 157.206028 
L 133.010176 158.952721 
L 134.43738 157.008506 
L 135.864585 158.96804 
L 137.291789 161.130103 
L 138.718994 159.572014 
L 140.146198 162.97186 
L 141.573402 168.011705 
L 143.000607 177.694093 
L 144.427811 173.706321 
L 145.855015 175.49964 
L 147.28222 175.793759 
L 148.709424 178.931263 
L 150.136629 177.327493 
L 151.563833 181.426401 
L 152.991037 181.231704 
L 154.418242 185.516667 
L 155.845446 184.42759 
L 157.27265 184.535842 
L 158.699855 181.886816 
L 160.127059 182.701685 
L 161.554263 180.530707 
L 162.981468 176.66972 
L 164.408672 177.198377 
L 165.835877 173.491158 
L 167.263081 168.340392 
L 168.690285 164.991091 
L 170.11749 163.44361 
L 171.544694 160.690472 
L 172.971898 162.600384 
L 174.399103 166.696056 
L 175.826307 168.55268 
L 177.253512 165.492489 
L 178.680716 164.07327 
L 180.10792 162.090671 
L 182.962329 156.10582 
L 184.389533 156.607541 
L 185.816738 153.003846 
L 187.243942 148.820812 
L 188.671147 137.068326 
L 191.525555 119.803405 
L 194.379964 105.732115 
L 195.807168 101.026341 
L 197.234373 97.812467 
L 198.661577 91.007542 
L 200.088782 89.504445 
L 202.94319 83.414879 
L 204.370395 81.434027 
L 205.797599 77.161342 
L 207.224803 74.531448 
L 208.652008 73.07158 
L 210.079212 69.662554 
L 211.506417 68.236917 
L 212.933621 66.181763 
L 214.360825 65.538825 
L 215.78803 63.94817 
L 217.215234 61.482296 
L 218.642438 59.248461 
L 220.069643 59.295504 
L 221.496847 59.540753 
L 222.924052 59.997188 
L 224.351256 60.890349 
L 225.77846 58.898283 
L 227.205665 59.269034 
L 228.632869 62.379824 
L 230.060073 62.457326 
L 231.487278 61.114256 
L 232.914482 61.439544 
L 234.341687 63.567576 
L 235.768891 61.728508 
L 237.196095 63.112439 
L 240.050504 60.756556 
L 241.477708 58.748714 
L 242.904913 59.475621 
L 244.332117 58.12145 
L 245.759322 58.258023 
L 247.186526 58.832299 
L 248.61373 59.867699 
L 251.468139 59.97898 
L 252.895343 61.008605 
L 254.322548 59.629032 
L 255.749752 60.145841 
L 257.176957 60.866262 
L 258.604161 60.702902 
L 260.031365 60.667895 
L 261.45857 58.773074 
L 262.885774 59.093636 
L 264.312978 58.311041 
L 265.740183 59.054608 
L 267.167387 58.199159 
L 268.594592 57.913649 
L 270.021796 56.717897 
L 271.449 57.701204 
L 272.876205 57.700633 
L 274.303409 58.496903 
L 275.730613 59.068031 
L 277.157818 60.524728 
L 278.585022 59.373999 
L 280.012227 58.604526 
L 281.439431 58.69189 
L 282.866635 57.336428 
L 284.29384 56.897225 
L 285.721044 56.170256 
L 287.148248 56.759251 
L 288.575453 57.657377 
L 290.002657 58.245149 
L 291.429862 57.547605 
L 292.857066 56.715489 
L 294.28427 55.732398 
L 295.711475 59.95366 
L 297.138679 60.962141 
L 298.565883 61.473928 
L 299.993088 63.259742 
L 301.420292 65.659725 
L 302.847497 66.722877 
L 304.274701 67.580383 
L 305.701905 65.49601 
L 307.12911 64.469928 
L 308.556314 62.286555 
L 309.983518 62.305705 
L 311.410723 61.46801 
L 312.837927 61.317895 
L 314.265132 58.865152 
L 315.692336 59.534459 
L 317.11954 59.395915 
L 318.546745 59.125167 
L 319.973949 57.614986 
L 321.401153 58.990656 
L 322.828358 57.131554 
L 324.255562 57.436194 
L 325.682767 58.280505 
L 327.109971 58.675671 
L 328.537175 57.854988 
L 329.96438 58.370925 
L 331.391584 58.599123 
L 332.818788 59.399696 
L 334.245993 58.051538 
L 335.673197 58.44664 
L 337.100402 59.067682 
L 338.527606 59.914991 
L 339.95481 60.572142 
L 341.382015 59.154256 
L 342.809219 56.071243 
L 344.236423 58.021077 
L 345.663628 58.428673 
L 347.090832 58.459592 
L 348.518037 59.074523 
L 351.372445 55.95308 
L 352.79965 55.225428 
L 354.226854 53.605554 
L 355.654058 54.97653 
L 357.081263 54.478836 
L 358.508467 55.689917 
L 359.935672 53.33793 
L 361.362876 53.176607 
L 364.217285 54.129236 
L 365.644489 54.11451 
L 367.071693 56.881558 
L 368.498898 56.292283 
L 371.353307 58.793499 
L 372.780511 59.174396 
L 374.207715 56.380925 
L 375.63492 56.850903 
L 377.062124 58.25679 
L 378.489328 57.963547 
L 379.916533 57.252172 
L 381.343737 56.237724 
L 382.770942 56.658892 
L 384.198146 54.489274 
L 385.62535 51.722001 
L 387.052555 50.910209 
L 388.479759 50.465637 
L 389.906963 53.328087 
L 391.334168 55.607037 
L 392.761372 55.028802 
L 395.615781 56.572237 
L 397.042985 54.505494 
L 398.47019 54.323826 
L 399.897394 53.333583 
L 401.324598 55.22473 
L 402.751803 56.088426 
L 404.179007 55.562745 
L 405.606212 56.280057 
L 407.033416 55.220326 
L 408.46062 56.820738 
L 409.887825 58.855014 
L 412.742233 55.638016 
L 414.169438 54.90176 
L 415.596642 55.139584 
L 417.023847 55.144571 
L 418.451051 51.078933 
L 419.878255 52.579128 
L 421.30546 53.102364 
L 422.732664 53.117661 
L 424.159868 54.10186 
L 425.587073 55.519364 
L 427.014277 53.199813 
L 429.868686 52.268909 
L 431.29589 54.145543 
L 432.723095 54.460568 
L 434.150299 51.908077 
L 435.577503 53.005844 
L 437.004708 52.26067 
L 438.431912 52.928493 
L 439.859117 55.799062 
L 441.286321 56.910995 
L 442.713525 56.57375 
L 444.14073 55.563718 
L 445.567934 56.778422 
L 446.995138 57.551165 
L 448.422343 57.579103 
L 449.849547 58.591094 
L 451.276752 58.926724 
L 452.703956 58.21069 
L 454.13116 59.174522 
L 456.985569 58.59893 
L 458.412773 58.670997 
L 459.839978 58.04822 
L 461.267182 56.392238 
L 462.694387 57.114029 
L 464.121591 54.511487 
L 465.548795 53.413207 
L 466.976 53.511326 
L 468.403204 55.429355 
L 469.830408 56.7949 
L 471.257613 55.110172 
L 472.684817 54.633356 
L 474.112022 51.466067 
L 475.539226 54.417372 
L 476.96643 54.946324 
L 479.820839 51.906746 
L 481.248043 51.303301 
L 482.675248 52.280027 
L 484.102452 50.16962 
L 485.529657 51.478917 
L 486.956861 50.931148 
L 488.384065 53.199476 
L 489.81127 52.605269 
L 491.238474 54.61884 
L 492.665678 53.254121 
L 494.092883 54.08652 
L 495.520087 54.263411 
L 496.947292 52.919549 
L 498.374496 53.790794 
L 499.8017 53.735565 
L 501.228905 53.29659 
L 502.656109 52.234284 
L 504.083313 53.150538 
L 505.510518 53.481357 
L 506.937722 53.262865 
L 508.364927 53.944237 
L 509.792131 55.787553 
L 511.219335 55.83772 
L 512.64654 54.398104 
L 514.073744 54.968511 
L 515.500948 57.754853 
L 516.928153 57.096944 
L 518.355357 55.277275 
L 519.782562 54.408558 
L 521.209766 54.894584 
L 522.63697 55.260523 
L 525.491379 56.253901 
L 526.918583 56.212125 
L 528.345788 55.899762 
L 531.200197 54.962426 
L 532.627401 55.766826 
L 534.054605 53.173844 
L 535.48181 52.936348 
L 536.909014 52.341632 
L 538.336218 51.873605 
L 541.190627 54.88281 
L 542.617832 54.539714 
L 544.045036 56.130166 
L 545.47224 55.779942 
L 546.899445 58.123722 
L 548.326649 55.499489 
L 551.181058 53.547732 
L 552.608262 54.54195 
L 554.035467 52.994213 
L 555.462671 52.888563 
L 556.889875 53.483548 
L 558.31708 53.886374 
L 559.744284 53.516771 
L 561.171488 52.910802 
L 562.598693 53.491647 
L 564.025897 53.728129 
L 565.453102 52.227549 
L 566.880306 52.803034 
L 568.30751 54.852144 
L 569.734715 51.964725 
L 571.161919 50.161321 
L 572.589123 49.720544 
L 574.016328 48.838145 
L 575.443532 50.519013 
L 576.870737 49.911209 
L 578.297941 51.872954 
L 579.725145 52.717873 
L 581.15235 52.381585 
L 582.579554 50.835322 
L 584.006758 51.146815 
L 585.433963 54.023246 
L 586.861167 54.260273 
L 588.288371 53.587519 
L 589.715576 54.726222 
L 591.14278 54.575116 
L 592.569985 55.34511 
L 593.997189 56.672434 
L 595.424393 58.278059 
L 596.851598 61.036765 
L 598.278802 62.203471 
L 599.706006 62.298982 
L 601.133211 62.023764 
L 602.560415 59.905957 
L 603.98762 58.558454 
L 605.414824 56.893179 
L 606.842028 55.005479 
L 608.269233 55.160635 
L 609.696437 55.454643 
L 611.123641 56.764193 
L 612.550846 56.551339 
L 613.97805 54.709139 
L 615.405255 55.449204 
L 616.832459 55.160397 
L 618.259663 55.347693 
L 621.114072 54.606387 
L 622.541276 53.562526 
L 623.968481 55.746323 
L 626.82289 58.694229 
L 628.250094 59.041229 
L 629.677298 58.652451 
L 631.104503 59.618791 
L 632.531707 56.365751 
L 633.958911 55.616979 
L 635.386116 55.698054 
L 636.81332 54.318785 
L 638.240525 53.899512 
L 639.667729 54.663012 
L 641.094933 57.331536 
L 642.522138 58.323284 
L 643.949342 55.509602 
L 645.376546 53.968341 
L 646.803751 56.314863 
L 648.230955 57.630864 
L 649.65816 58.396763 
L 651.085364 57.555382 
L 652.512568 57.465392 
L 653.939773 58.387853 
L 653.939773 58.387853 
" clip-path="url(#p6e2d2b3c39)" style="fill: none; stroke: #2ca02c; stroke-width: 1.2; stroke-linecap: square"/>
   </g>
   <g id="line2d_34">
    <path d="M 84.485227 279.682095 
L 85.912432 281.510521 
L 87.339636 289.469087 
L 88.76684 294.23549 
L 91.621249 283.548651 
L 93.048454 291.418442 
L 94.475658 288.354658 
L 95.902862 290.448119 
L 97.330067 296.704986 
L 98.757271 294.998603 
L 100.184475 309.51047 
L 101.61168 304.687835 
L 103.038884 309.928085 
L 104.466089 308.490775 
L 105.893293 316.365109 
L 107.320497 319.132978 
L 110.174906 316.064145 
L 111.60211 313.1553 
L 113.029315 307.535751 
L 114.456519 304.241331 
L 115.883724 312.980867 
L 117.310928 315.506562 
L 118.738132 309.838428 
L 120.165337 311.377467 
L 121.592541 314.498872 
L 123.019745 321.311949 
L 124.44695 330.046408 
L 125.874154 335.529055 
L 127.301359 323.73738 
L 128.728563 326.045014 
L 130.155767 322.825482 
L 131.582972 318.173058 
L 133.010176 315.594349 
L 135.864585 302.849961 
L 137.291789 294.153811 
L 138.718994 269.092589 
L 140.146198 247.056872 
L 141.573402 228.718218 
L 143.000607 211.840451 
L 145.855015 183.927976 
L 147.28222 171.526529 
L 148.709424 162.427441 
L 150.136629 150.505182 
L 151.563833 141.889833 
L 152.991037 131.991988 
L 154.418242 126.001395 
L 155.845446 118.68882 
L 160.127059 101.640921 
L 162.981468 95.485721 
L 164.408672 91.191418 
L 165.835877 85.859803 
L 168.690285 79.227312 
L 170.11749 76.209626 
L 171.544694 72.441129 
L 172.971898 70.309569 
L 174.399103 68.628457 
L 175.826307 67.548685 
L 177.253512 65.60661 
L 178.680716 63.468642 
L 180.10792 65.520554 
L 181.535125 65.685336 
L 182.962329 66.134273 
L 184.389533 65.373884 
L 187.243942 62.722315 
L 188.671147 62.945145 
L 190.098351 61.725476 
L 192.95276 60.060552 
L 194.379964 61.793378 
L 195.807168 61.106074 
L 197.234373 61.131662 
L 198.661577 61.27167 
L 200.088782 59.189372 
L 201.515986 58.336456 
L 202.94319 59.005315 
L 204.370395 58.911372 
L 205.797599 58.452011 
L 207.224803 57.497907 
L 208.652008 57.511704 
L 210.079212 56.540864 
L 211.506417 56.084658 
L 212.933621 58.041176 
L 214.360825 55.761489 
L 215.78803 57.096445 
L 217.215234 57.577845 
L 218.642438 59.860344 
L 220.069643 59.103229 
L 221.496847 58.703985 
L 222.924052 56.337529 
L 224.351256 55.94066 
L 225.77846 56.140448 
L 227.205665 55.525962 
L 228.632869 56.13425 
L 230.060073 59.859405 
L 231.487278 57.925828 
L 232.914482 57.19775 
L 234.341687 57.858282 
L 235.768891 56.115115 
L 237.196095 57.747417 
L 238.6233 56.944021 
L 240.050504 57.513269 
L 241.477708 59.579765 
L 244.332117 58.253544 
L 247.186526 58.27958 
L 248.61373 59.171131 
L 250.040935 55.455803 
L 251.468139 53.997574 
L 252.895343 53.329414 
L 254.322548 53.240418 
L 255.749752 53.67854 
L 257.176957 53.753907 
L 258.604161 55.644022 
L 260.031365 54.338962 
L 261.45857 55.053846 
L 262.885774 57.113742 
L 264.312978 56.372328 
L 265.740183 55.098958 
L 267.167387 54.96954 
L 268.594592 55.287129 
L 270.021796 55.922852 
L 271.449 56.786911 
L 272.876205 56.151257 
L 274.303409 54.898714 
L 275.730613 56.143072 
L 277.157818 57.856751 
L 278.585022 56.740851 
L 280.012227 56.423827 
L 281.439431 54.441627 
L 282.866635 54.330944 
L 284.29384 53.426923 
L 285.721044 55.015092 
L 287.148248 57.664575 
L 288.575453 60.579277 
L 290.002657 57.815562 
L 291.429862 57.583234 
L 292.857066 58.411979 
L 294.28427 58.887901 
L 295.711475 57.779796 
L 297.138679 58.987661 
L 298.565883 59.129154 
L 299.993088 62.247417 
L 301.420292 61.177801 
L 302.847497 61.644409 
L 304.274701 61.650816 
L 305.701905 61.994624 
L 307.12911 62.564155 
L 308.556314 61.968611 
L 309.983518 61.952771 
L 311.410723 63.078763 
L 312.837927 62.443756 
L 314.265132 61.660492 
L 315.692336 61.862896 
L 317.11954 59.856335 
L 318.546745 59.388859 
L 319.973949 59.493125 
L 321.401153 59.92896 
L 322.828358 61.531259 
L 324.255562 62.477781 
L 325.682767 60.196012 
L 327.109971 63.055735 
L 328.537175 61.656601 
L 329.96438 64.112072 
L 331.391584 65.426666 
L 332.818788 63.725125 
L 334.245993 62.785228 
L 335.673197 61.322796 
L 337.100402 60.99299 
L 338.527606 58.68304 
L 339.95481 60.469915 
L 341.382015 61.275974 
L 342.809219 60.547587 
L 344.236423 61.489268 
L 345.663628 59.230233 
L 347.090832 61.657428 
L 348.518037 62.072461 
L 349.945241 61.759221 
L 351.372445 61.882 
L 352.79965 62.310896 
L 354.226854 64.540371 
L 355.654058 63.286306 
L 357.081263 60.009303 
L 358.508467 58.066098 
L 359.935672 54.826165 
L 361.362876 53.839541 
L 362.79008 55.590572 
L 365.644489 51.68375 
L 367.071693 51.848869 
L 368.498898 57.490536 
L 369.926102 57.643161 
L 371.353307 56.268225 
L 372.780511 55.775584 
L 374.207715 57.968088 
L 375.63492 60.975802 
L 377.062124 62.754195 
L 379.916533 61.493714 
L 381.343737 62.803546 
L 382.770942 63.501648 
L 384.198146 62.223864 
L 385.62535 60.597629 
L 387.052555 60.881932 
L 388.479759 60.522523 
L 389.906963 58.297032 
L 391.334168 57.381589 
L 392.761372 59.717005 
L 394.188577 60.166196 
L 395.615781 59.646537 
L 397.042985 60.293143 
L 398.47019 59.969786 
L 401.324598 61.40878 
L 402.751803 61.296331 
L 404.179007 60.452405 
L 405.606212 60.419058 
L 407.033416 59.379488 
L 408.46062 61.571368 
L 409.887825 59.810911 
L 411.315029 58.852815 
L 412.742233 56.295604 
L 414.169438 56.353555 
L 415.596642 55.292143 
L 417.023847 57.635051 
L 419.878255 60.250233 
L 421.30546 60.029606 
L 422.732664 60.16052 
L 424.159868 60.15614 
L 425.587073 59.316349 
L 427.014277 59.217089 
L 428.441482 58.083294 
L 429.868686 57.213678 
L 431.29589 57.63707 
L 432.723095 56.698229 
L 434.150299 55.298545 
L 435.577503 55.629422 
L 437.004708 58.014107 
L 438.431912 56.457409 
L 439.859117 56.244731 
L 441.286321 57.140121 
L 442.713525 57.075249 
L 444.14073 56.352141 
L 445.567934 56.589691 
L 446.995138 58.98052 
L 448.422343 58.227955 
L 449.849547 59.103113 
L 451.276752 58.181631 
L 452.703956 59.155107 
L 454.13116 59.21298 
L 455.558365 60.24935 
L 456.985569 60.220643 
L 458.412773 59.424672 
L 459.839978 61.317425 
L 461.267182 60.54277 
L 462.694387 59.439878 
L 464.121591 59.117997 
L 465.548795 58.207774 
L 466.976 56.434812 
L 468.403204 58.386917 
L 469.830408 57.056963 
L 471.257613 56.588934 
L 472.684817 55.163179 
L 474.112022 54.295923 
L 475.539226 55.02692 
L 478.393635 53.917698 
L 479.820839 54.433337 
L 481.248043 54.590487 
L 482.675248 54.207933 
L 484.102452 54.946298 
L 485.529657 56.675846 
L 486.956861 57.855936 
L 488.384065 58.574577 
L 489.81127 56.735681 
L 491.238474 56.819248 
L 492.665678 57.448604 
L 494.092883 58.255275 
L 495.520087 56.573753 
L 496.947292 56.323077 
L 498.374496 56.227001 
L 499.8017 59.735326 
L 501.228905 58.627629 
L 502.656109 58.933069 
L 504.083313 57.112524 
L 505.510518 57.525154 
L 506.937722 56.968584 
L 508.364927 57.024379 
L 509.792131 56.320606 
L 511.219335 56.133107 
L 512.64654 53.601064 
L 514.073744 54.634125 
L 515.500948 54.584773 
L 516.928153 55.534158 
L 518.355357 56.220115 
L 519.782562 53.689197 
L 522.63697 54.367331 
L 524.064175 54.432792 
L 525.491379 53.196473 
L 526.918583 53.027556 
L 528.345788 52.062025 
L 529.772992 51.236284 
L 532.627401 49.368333 
L 534.054605 50.355551 
L 535.48181 50.18914 
L 536.909014 51.968317 
L 538.336218 52.65343 
L 541.190627 56.302975 
L 542.617832 56.482017 
L 545.47224 54.869145 
L 546.899445 54.850312 
L 548.326649 56.445348 
L 549.753853 55.026927 
L 551.181058 56.649937 
L 552.608262 54.883747 
L 554.035467 57.71734 
L 555.462671 58.242058 
L 556.889875 57.847465 
L 558.31708 59.946848 
L 559.744284 58.668507 
L 561.171488 59.732504 
L 562.598693 57.697147 
L 564.025897 61.096547 
L 565.453102 60.34938 
L 566.880306 60.758374 
L 568.30751 60.551816 
L 569.734715 59.878127 
L 571.161919 58.945466 
L 572.589123 58.636184 
L 574.016328 58.554098 
L 575.443532 59.80726 
L 576.870737 58.044119 
L 578.297941 57.627501 
L 579.725145 55.867316 
L 581.15235 58.385148 
L 582.579554 58.5114 
L 584.006758 55.913642 
L 585.433963 55.652517 
L 586.861167 54.997792 
L 588.288371 56.580394 
L 589.715576 57.63545 
L 591.14278 57.097553 
L 592.569985 56.857657 
L 593.997189 55.196803 
L 595.424393 56.076356 
L 596.851598 53.223781 
L 598.278802 54.551325 
L 599.706006 55.389796 
L 601.133211 54.652486 
L 602.560415 52.966374 
L 603.98762 53.950599 
L 605.414824 55.352099 
L 606.842028 57.679794 
L 608.269233 56.893445 
L 609.696437 54.300994 
L 611.123641 54.058165 
L 612.550846 54.751328 
L 615.405255 57.791773 
L 616.832459 56.349351 
L 618.259663 55.188573 
L 619.686868 57.140772 
L 621.114072 57.112708 
L 622.541276 56.665184 
L 625.395685 55.176298 
L 626.82289 56.369373 
L 628.250094 56.711078 
L 629.677298 55.337957 
L 632.531707 58.409414 
L 633.958911 58.983638 
L 635.386116 59.305889 
L 636.81332 59.197299 
L 638.240525 60.59751 
L 639.667729 62.361703 
L 641.094933 61.387121 
L 642.522138 58.110881 
L 643.949342 59.008856 
L 645.376546 56.856854 
L 646.803751 57.522328 
L 648.230955 55.091893 
L 649.65816 57.016145 
L 651.085364 56.678478 
L 652.512568 55.216731 
L 653.939773 55.202349 
L 653.939773 55.202349 
" clip-path="url(#p6e2d2b3c39)" style="fill: none; stroke: #d62728; stroke-width: 1.2; stroke-linecap: square"/>
   </g>
   <g id="line2d_35">
    <path d="M 84.485227 299.862064 
L 85.912432 301.660453 
L 87.339636 301.645482 
L 88.76684 297.297654 
L 90.194045 284.387896 
L 91.621249 266.12347 
L 93.048454 251.541679 
L 94.475658 233.1346 
L 98.757271 193.010905 
L 100.184475 178.323544 
L 101.61168 167.636786 
L 104.466089 148.573911 
L 105.893293 141.308352 
L 107.320497 129.919658 
L 108.747702 123.605323 
L 110.174906 116.013648 
L 111.60211 112.122469 
L 114.456519 99.005955 
L 118.738132 89.148236 
L 121.592541 80.122366 
L 123.019745 78.050399 
L 124.44695 74.264302 
L 125.874154 75.937788 
L 128.728563 73.818157 
L 131.582972 73.456076 
L 133.010176 72.151592 
L 134.43738 71.095076 
L 135.864585 70.940474 
L 137.291789 69.653328 
L 138.718994 70.77433 
L 140.146198 69.820191 
L 141.573402 71.847513 
L 143.000607 71.598975 
L 144.427811 69.014569 
L 145.855015 69.817904 
L 147.28222 68.287817 
L 148.709424 66.075265 
L 150.136629 67.280073 
L 152.991037 64.944698 
L 154.418242 65.063482 
L 155.845446 64.351465 
L 157.27265 65.939521 
L 158.699855 65.965325 
L 160.127059 64.716692 
L 161.554263 63.039989 
L 162.981468 63.65876 
L 164.408672 61.884539 
L 165.835877 62.255945 
L 168.690285 64.372847 
L 170.11749 65.102923 
L 172.971898 61.192738 
L 175.826307 59.649767 
L 178.680716 59.665551 
L 181.535125 62.022744 
L 185.816738 60.963325 
L 187.243942 61.89579 
L 188.671147 61.644954 
L 190.098351 62.500171 
L 191.525555 61.291256 
L 192.95276 59.108426 
L 194.379964 61.079161 
L 195.807168 60.178494 
L 197.234373 61.069464 
L 198.661577 59.68383 
L 200.088782 61.123872 
L 201.515986 58.766472 
L 202.94319 61.057134 
L 204.370395 62.463788 
L 205.797599 64.049162 
L 207.224803 61.694215 
L 208.652008 61.307477 
L 210.079212 60.328875 
L 211.506417 59.705172 
L 212.933621 59.982719 
L 214.360825 59.95083 
L 215.78803 58.655958 
L 217.215234 56.644264 
L 218.642438 58.355846 
L 220.069643 59.526808 
L 221.496847 59.079917 
L 222.924052 59.046581 
L 224.351256 59.629735 
L 225.77846 61.999657 
L 227.205665 61.518218 
L 228.632869 60.110314 
L 230.060073 58.07721 
L 231.487278 59.302462 
L 232.914482 60.184293 
L 234.341687 58.188345 
L 235.768891 56.984956 
L 237.196095 57.304586 
L 238.6233 55.816164 
L 240.050504 53.979068 
L 241.477708 52.460768 
L 242.904913 53.185187 
L 244.332117 53.415529 
L 245.759322 54.013512 
L 247.186526 54.818399 
L 248.61373 57.358528 
L 250.040935 57.371342 
L 251.468139 58.132404 
L 252.895343 58.466694 
L 254.322548 61.226045 
L 255.749752 61.263919 
L 257.176957 58.772916 
L 258.604161 60.619019 
L 260.031365 60.572856 
L 261.45857 60.359392 
L 262.885774 59.111566 
L 264.312978 55.962945 
L 265.740183 58.438812 
L 267.167387 57.774449 
L 268.594592 56.617402 
L 270.021796 56.433836 
L 271.449 54.437612 
L 272.876205 56.158149 
L 274.303409 56.567422 
L 275.730613 56.535658 
L 277.157818 55.694023 
L 278.585022 56.910843 
L 280.012227 57.223445 
L 281.439431 55.964858 
L 282.866635 58.337463 
L 285.721044 58.436094 
L 287.148248 61.452966 
L 288.575453 61.650215 
L 290.002657 61.266482 
L 291.429862 60.48869 
L 294.28427 59.74824 
L 295.711475 59.713544 
L 298.565883 57.806879 
L 299.993088 58.056612 
L 301.420292 57.991465 
L 302.847497 57.50658 
L 304.274701 56.834135 
L 305.701905 57.312318 
L 307.12911 56.361271 
L 308.556314 54.802492 
L 309.983518 55.55458 
L 311.410723 56.047236 
L 314.265132 56.251249 
L 315.692336 57.998978 
L 317.11954 57.017426 
L 318.546745 55.184255 
L 319.973949 56.195828 
L 321.401153 57.536303 
L 322.828358 57.18519 
L 324.255562 55.134585 
L 325.682767 55.120169 
L 327.109971 54.676567 
L 328.537175 55.683498 
L 329.96438 56.943995 
L 331.391584 58.852764 
L 332.818788 58.857016 
L 334.245993 57.736083 
L 335.673197 57.180827 
L 337.100402 57.104834 
L 338.527606 59.967921 
L 339.95481 59.960909 
L 341.382015 60.598322 
L 342.809219 60.093118 
L 344.236423 58.534613 
L 345.663628 55.945237 
L 347.090832 55.121612 
L 348.518037 56.219623 
L 349.945241 55.833064 
L 351.372445 54.8874 
L 352.79965 55.865579 
L 354.226854 55.130856 
L 355.654058 56.360969 
L 358.508467 56.400845 
L 359.935672 56.556207 
L 361.362876 60.194279 
L 362.79008 60.95027 
L 364.217285 62.038087 
L 365.644489 59.406379 
L 367.071693 57.948015 
L 368.498898 58.351685 
L 369.926102 57.345433 
L 371.353307 55.362587 
L 372.780511 56.210175 
L 374.207715 57.992828 
L 375.63492 57.110685 
L 377.062124 58.148204 
L 378.489328 58.63061 
L 381.343737 56.568747 
L 382.770942 58.045715 
L 384.198146 59.941947 
L 385.62535 58.711203 
L 387.052555 61.536212 
L 388.479759 63.09053 
L 389.906963 61.685858 
L 391.334168 62.29946 
L 392.761372 63.737978 
L 394.188577 62.476385 
L 395.615781 60.165658 
L 397.042985 60.447098 
L 398.47019 57.458963 
L 401.324598 53.152277 
L 402.751803 52.070772 
L 404.179007 52.154109 
L 405.606212 53.066047 
L 407.033416 55.771252 
L 408.46062 55.893248 
L 409.887825 57.748534 
L 411.315029 58.556207 
L 412.742233 57.501376 
L 414.169438 58.099138 
L 415.596642 57.95728 
L 417.023847 59.806998 
L 418.451051 60.534274 
L 419.878255 59.906288 
L 421.30546 61.124324 
L 422.732664 59.298956 
L 424.159868 58.614772 
L 425.587073 58.745832 
L 427.014277 57.663884 
L 428.441482 57.743115 
L 429.868686 58.060605 
L 431.29589 57.503222 
L 432.723095 56.699558 
L 434.150299 54.380085 
L 435.577503 55.092919 
L 437.004708 54.955962 
L 438.431912 53.960286 
L 439.859117 58.883995 
L 441.286321 60.93432 
L 442.713525 60.97797 
L 444.14073 60.780069 
L 445.567934 62.361529 
L 448.422343 62.262133 
L 449.849547 60.905286 
L 451.276752 60.580625 
L 452.703956 60.755648 
L 454.13116 58.784727 
L 455.558365 58.686666 
L 456.985569 59.553876 
L 458.412773 59.874627 
L 459.839978 59.308695 
L 461.267182 59.677599 
L 462.694387 57.808946 
L 464.121591 56.471644 
L 465.548795 57.002415 
L 466.976 55.819702 
L 468.403204 54.838034 
L 469.830408 54.971379 
L 471.257613 53.05476 
L 472.684817 55.902831 
L 474.112022 56.297483 
L 475.539226 57.378024 
L 476.96643 58.828784 
L 478.393635 61.269 
L 479.820839 61.61939 
L 481.248043 61.850977 
L 482.675248 61.531856 
L 484.102452 62.007759 
L 485.529657 62.306576 
L 486.956861 60.356385 
L 488.384065 61.283275 
L 489.81127 63.109231 
L 491.238474 62.699589 
L 492.665678 59.944503 
L 494.092883 59.224253 
L 495.520087 61.228348 
L 496.947292 62.408094 
L 498.374496 62.77682 
L 499.8017 62.518089 
L 501.228905 61.171948 
L 502.656109 59.387216 
L 504.083313 58.347475 
L 505.510518 57.588019 
L 506.937722 60.69173 
L 508.364927 60.209663 
L 509.792131 61.494395 
L 511.219335 58.667794 
L 512.64654 57.535248 
L 514.073744 56.946141 
L 515.500948 58.22047 
L 518.355357 59.373499 
L 519.782562 61.45858 
L 521.209766 59.994018 
L 522.63697 59.830842 
L 524.064175 58.215746 
L 525.491379 59.720209 
L 526.918583 59.000714 
L 528.345788 60.906421 
L 529.772992 60.046442 
L 531.200197 60.874183 
L 532.627401 61.014231 
L 534.054605 60.620325 
L 535.48181 59.664627 
L 536.909014 58.922966 
L 538.336218 60.548744 
L 539.763423 59.542528 
L 541.190627 59.580627 
L 542.617832 59.189065 
L 544.045036 59.237305 
L 546.899445 64.582035 
L 548.326649 60.591056 
L 549.753853 58.805601 
L 551.181058 58.129834 
L 552.608262 57.651012 
L 554.035467 57.978328 
L 555.462671 55.55934 
L 556.889875 54.429016 
L 558.31708 55.582406 
L 559.744284 57.168856 
L 561.171488 57.725848 
L 562.598693 58.433802 
L 564.025897 56.270183 
L 565.453102 56.118481 
L 566.880306 57.398334 
L 569.734715 54.614473 
L 571.161919 55.671502 
L 574.016328 53.508785 
L 575.443532 52.038123 
L 576.870737 53.625834 
L 578.297941 53.935508 
L 579.725145 55.32609 
L 581.15235 53.965922 
L 582.579554 54.009875 
L 584.006758 51.324517 
L 585.433963 51.970617 
L 586.861167 53.019836 
L 588.288371 50.833571 
L 589.715576 51.899975 
L 591.14278 52.794177 
L 592.569985 54.443824 
L 593.997189 55.722645 
L 595.424393 57.543761 
L 596.851598 56.314506 
L 598.278802 57.190385 
L 599.706006 57.386874 
L 601.133211 57.934475 
L 602.560415 57.308153 
L 603.98762 57.318927 
L 605.414824 54.868711 
L 606.842028 54.917028 
L 608.269233 54.263939 
L 609.696437 55.317716 
L 611.123641 57.676285 
L 612.550846 58.210538 
L 613.97805 58.871753 
L 615.405255 58.899758 
L 616.832459 60.661982 
L 618.259663 60.556882 
L 619.686868 60.630509 
L 621.114072 61.05827 
L 622.541276 61.083839 
L 625.395685 61.471344 
L 626.82289 60.040448 
L 628.250094 58.008569 
L 629.677298 56.416323 
L 631.104503 57.202719 
L 632.531707 56.995474 
L 633.958911 55.331991 
L 635.386116 55.055385 
L 636.81332 55.553927 
L 638.240525 56.452158 
L 639.667729 55.172441 
L 641.094933 54.825878 
L 642.522138 54.62078 
L 643.949342 52.900799 
L 645.376546 53.154538 
L 646.803751 53.249953 
L 648.230955 52.608497 
L 649.65816 51.113894 
L 652.512568 52.5982 
L 653.939773 54.393979 
L 653.939773 54.393979 
" clip-path="url(#p6e2d2b3c39)" style="fill: none; stroke: #9b8ac9; stroke-width: 1.2; stroke-linecap: square"/>
   </g>
   <g id="patch_3">
    <path d="M 56.0125 349.8636 
L 56.0125 34.5036 
" style="fill: none; stroke: #000000; stroke-width: 0.8; stroke-linejoin: miter; stroke-linecap: square"/>
   </g>
   <g id="patch_4">
    <path d="M 682.4125 349.8636 
L 682.4125 34.5036 
" style="fill: none; stroke: #000000; stroke-width: 0.8; stroke-linejoin: miter; stroke-linecap: square"/>
   </g>
   <g id="patch_5">
    <path d="M 56.0125 349.8636 
L 682.4125 349.8636 
" style="fill: none; stroke: #000000; stroke-width: 0.8; stroke-linejoin: miter; stroke-linecap: square"/>
   </g>
   <g id="patch_6">
    <path d="M 56.0125 34.5036 
L 682.4125 34.5036 
" style="fill: none; stroke: #000000; stroke-width: 0.8; stroke-linejoin: miter; stroke-linecap: square"/>
   </g>
   <g id="legend_1">
    <g id="patch_7">
     <path d="M 56.0125 31.35 
L 682.4125 31.35 
L 682.4125 7.2 
L 56.0125 7.2 
z
" style="fill: #ffffff; stroke: #808080; stroke-width: 0.8; stroke-linejoin: miter"/>
    </g>
    <g id="line2d_36">
     <path d="M 62.3125 18.4 
L 76.3125 18.4 
L 90.3125 18.4 
" style="fill: none; stroke: #1f77b4; stroke-width: 1.2; stroke-linecap: square"/>
    </g>
    <g id="text_18">
     <!-- DDPG -->
     <g transform="translate(98.7125 23.3) scale(0.14 -0.14)">
      <defs>
       <path id="SimHei-44" d="M 2925 2250 
Q 2925 1100 2437 612 
Q 1950 125 1125 125 
L 275 125 
L 275 4400 
L 1125 4400 
Q 2050 4400 2487 3900 
Q 2925 3400 2925 2250 
z
M 2325 2250 
Q 2325 3175 2025 3550 
Q 1725 3925 1125 3925 
L 850 3925 
L 850 600 
L 1125 600 
Q 1725 600 2025 962 
Q 2325 1325 2325 2250 
z
" transform="scale(0.015625)"/>
       <path id="SimHei-50" d="M 2950 3100 
Q 2950 2500 2600 2150 
Q 2250 1800 1625 1800 
L 900 1800 
L 900 125 
L 325 125 
L 325 4400 
L 1625 4400 
Q 2250 4400 2600 4050 
Q 2950 3700 2950 3100 
z
M 2375 3100 
Q 2375 3575 2150 3750 
Q 1925 3925 1475 3925 
L 900 3925 
L 900 2275 
L 1475 2275 
Q 1925 2275 2150 2450 
Q 2375 2625 2375 3100 
z
" transform="scale(0.015625)"/>
       <path id="SimHei-47" d="M 2850 75 
L 2425 75 
L 2350 425 
Q 2250 275 2037 175 
Q 1825 75 1575 75 
Q 1050 75 637 562 
Q 225 1050 225 2125 
Q 225 3300 600 3875 
Q 975 4450 1625 4450 
Q 2200 4450 2525 4025 
Q 2850 3600 2850 2925 
L 2300 2925 
Q 2300 3450 2125 3712 
Q 1950 3975 1625 3975 
Q 1225 3975 1025 3562 
Q 825 3150 825 2175 
Q 825 1250 1075 900 
Q 1325 550 1650 550 
Q 1975 550 2162 787 
Q 2350 1025 2350 1525 
L 2350 1800 
L 1575 1800 
L 1575 2275 
L 2850 2275 
L 2850 75 
z
" transform="scale(0.015625)"/>
      </defs>
      <use xlink:href="#SimHei-44"/>
      <use xlink:href="#SimHei-44" transform="translate(50 0)"/>
      <use xlink:href="#SimHei-50" transform="translate(100 0)"/>
      <use xlink:href="#SimHei-47" transform="translate(150 0)"/>
     </g>
    </g>
    <g id="line2d_37">
     <path d="M 192.6625 18.4 
L 206.6625 18.4 
L 220.6625 18.4 
" style="fill: none; stroke: #ff7f0e; stroke-width: 1.2; stroke-linecap: square"/>
    </g>
    <g id="text_19">
     <!-- PPO -->
     <g transform="translate(229.0625 23.3) scale(0.14 -0.14)">
      <defs>
       <path id="SimHei-4f" d="M 2950 2275 
Q 2950 1100 2587 587 
Q 2225 75 1575 75 
Q 925 75 550 587 
Q 175 1100 175 2275 
Q 175 3450 550 3950 
Q 925 4450 1575 4450 
Q 2225 4450 2587 3950 
Q 2950 3450 2950 2275 
z
M 2350 2275 
Q 2350 3325 2125 3650 
Q 1900 3975 1575 3975 
Q 1250 3975 1012 3650 
Q 775 3325 775 2275 
Q 775 1225 1012 887 
Q 1250 550 1575 550 
Q 1900 550 2125 887 
Q 2350 1225 2350 2275 
z
" transform="scale(0.015625)"/>
      </defs>
      <use xlink:href="#SimHei-50"/>
      <use xlink:href="#SimHei-50" transform="translate(50 0)"/>
      <use xlink:href="#SimHei-4f" transform="translate(100 0)"/>
     </g>
    </g>
    <g id="line2d_38">
     <path d="M 316.0125 18.4 
L 330.0125 18.4 
L 344.0125 18.4 
" style="fill: none; stroke: #2ca02c; stroke-width: 1.2; stroke-linecap: square"/>
    </g>
    <g id="text_20">
     <!-- TD3 -->
     <g transform="translate(352.4125 23.3) scale(0.14 -0.14)">
      <use xlink:href="#SimHei-54"/>
      <use xlink:href="#SimHei-44" transform="translate(50 0)"/>
      <use xlink:href="#SimHei-33" transform="translate(100 0)"/>
     </g>
    </g>
    <g id="line2d_39">
     <path d="M 439.3625 18.4 
L 453.3625 18.4 
L 467.3625 18.4 
" style="fill: none; stroke: #d62728; stroke-width: 1.2; stroke-linecap: square"/>
    </g>
    <g id="text_21">
     <!-- GCN-DDQN -->
     <g transform="translate(475.7625 23.3) scale(0.14 -0.14)">
      <defs>
       <path id="SimHei-43" d="M 2975 1825 
Q 2950 875 2575 475 
Q 2200 75 1675 75 
Q 1075 75 650 562 
Q 225 1050 225 2125 
Q 225 3300 637 3875 
Q 1050 4450 1700 4450 
Q 2250 4450 2612 4037 
Q 2975 3625 2950 2875 
L 2400 2875 
Q 2400 3425 2225 3700 
Q 2050 3975 1700 3975 
Q 1300 3975 1062 3562 
Q 825 3150 825 2175 
Q 825 1275 1062 912 
Q 1300 550 1675 550 
Q 1950 550 2175 812 
Q 2400 1075 2400 1825 
L 2975 1825 
z
" transform="scale(0.015625)"/>
       <path id="SimHei-4e" d="M 2850 125 
L 2225 125 
L 850 3225 
L 825 3225 
L 825 125 
L 250 125 
L 250 4400 
L 875 4400 
L 2250 1300 
L 2275 1300 
L 2275 4400 
L 2850 4400 
L 2850 125 
z
" transform="scale(0.015625)"/>
       <path id="SimHei-2d" d="M 2975 2125 
L 125 2125 
L 125 2525 
L 2975 2525 
L 2975 2125 
z
" transform="scale(0.015625)"/>
       <path id="SimHei-51" d="M 2950 2275 
Q 2950 1675 2862 1262 
Q 2775 850 2575 600 
L 2775 225 
L 2375 -200 
L 2150 225 
Q 2050 150 1900 112 
Q 1750 75 1575 75 
Q 925 75 550 587 
Q 175 1100 175 2275 
Q 175 3450 550 3950 
Q 925 4450 1575 4450 
Q 2225 4450 2587 3950 
Q 2950 3450 2950 2275 
z
M 2350 2275 
Q 2350 3325 2125 3650 
Q 1900 3975 1575 3975 
Q 1250 3975 1012 3650 
Q 775 3325 775 2275 
Q 775 1225 1012 887 
Q 1250 550 1575 550 
Q 1700 550 1800 587 
Q 1900 625 1950 675 
L 1550 1450 
L 1900 1875 
L 2250 1200 
Q 2300 1450 2325 1650 
Q 2350 1850 2350 2275 
z
" transform="scale(0.015625)"/>
      </defs>
      <use xlink:href="#SimHei-47"/>
      <use xlink:href="#SimHei-43" transform="translate(50 0)"/>
      <use xlink:href="#SimHei-4e" transform="translate(100 0)"/>
      <use xlink:href="#SimHei-2d" transform="translate(150 0)"/>
      <use xlink:href="#SimHei-44" transform="translate(200 0)"/>
      <use xlink:href="#SimHei-44" transform="translate(250 0)"/>
      <use xlink:href="#SimHei-51" transform="translate(300 0)"/>
      <use xlink:href="#SimHei-4e" transform="translate(350 0)"/>
     </g>
    </g>
    <g id="line2d_40">
     <path d="M 597.7125 18.4 
L 611.7125 18.4 
L 625.7125 18.4 
" style="fill: none; stroke: #9b8ac9; stroke-width: 1.2; stroke-linecap: square"/>
    </g>
    <g id="text_22">
     <!-- GLDVTO -->
     <g transform="translate(634.1125 23.3) scale(0.14 -0.14)">
      <defs>
       <path id="SimHei-4c" d="M 2900 125 
L 300 125 
L 300 4400 
L 875 4400 
L 875 600 
L 2900 600 
L 2900 125 
z
" transform="scale(0.015625)"/>
       <path id="SimHei-56" d="M 3050 4400 
L 1800 75 
L 1300 75 
L 50 4400 
L 650 4400 
L 1525 1125 
L 1575 1125 
L 2450 4400 
L 3050 4400 
z
" transform="scale(0.015625)"/>
      </defs>
      <use xlink:href="#SimHei-47"/>
      <use xlink:href="#SimHei-4c" transform="translate(50 0)"/>
      <use xlink:href="#SimHei-44" transform="translate(100 0)"/>
      <use xlink:href="#SimHei-56" transform="translate(150 0)"/>
      <use xlink:href="#SimHei-54" transform="translate(200 0)"/>
      <use xlink:href="#SimHei-4f" transform="translate(250 0)"/>
     </g>
    </g>
   </g>
  </g>
 </g>
 <defs>
  <clipPath id="p6e2d2b3c39">
   <rect x="56.0125" y="34.5036" width="626.4" height="315.36"/>
  </clipPath>
 </defs>
</svg>
