<?xml version="1.0" encoding="utf-8" standalone="no"?>
<!DOCTYPE svg PUBLIC "-//W3C//DTD SVG 1.1//EN"
  "http://www.w3.org/Graphics/SVG/1.1/DTD/svg11.dtd">
<svg xmlns:xlink="http://www.w3.org/1999/xlink" width="689.6125pt" height="391.6261pt" viewBox="0 0 689.6125 391.6261" xmlns="http://www.w3.org/2000/svg" version="1.1">
 <metadata>
  <rdf:RDF xmlns:dc="http://purl.org/dc/elements/1.1/" xmlns:cc="http://creativecommons.org/ns#" xmlns:rdf="http://www.w3.org/1999/02/22-rdf-syntax-ns#">
   <cc:Work>
    <dc:type rdf:resource="http://purl.org/dc/dcmitype/StillImage"/>
    <dc:date>2026-07-09T22:50:08.653804</dc:date>
    <dc:format>image/svg+xml</dc:format>
    <dc:creator>
     <cc:Agent>
      <dc:title>Matplotlib v3.10.7, https://matplotlib.org/</dc:title>
     </cc:Agent>
    </dc:creator>
   </cc:Work>
  </rdf:RDF>
 </metadata>
 <defs>
  <style type="text/css">*{stroke-linejoin: round; stroke-linecap: butt}</style>
 </defs>
 <g id="figure_1">
  <g id="patch_1">
   <path d="M 0 391.6261 
L 689.6125 391.6261 
L 689.6125 0 
L 0 0 
z
" style="fill: #ffffff"/>
  </g>
  <g id="axes_1">
   <g id="patch_2">
    <path d="M 56.0125 349.8636 
L 682.4125 349.8636 
L 682.4125 34.5036 
L 56.0125 34.5036 
z
" style="fill: #ffffff"/>
   </g>
   <g id="matplotlib.axis_1">
    <g id="xtick_1">
     <g id="line2d_1">
      <path d="M 84.485227 349.8636 
L 84.485227 34.5036 
" clip-path="url(#pcf19db81ec)" style="fill: none; stroke-dasharray: 2.22,0.96; stroke-dashoffset: 0; stroke: #b0b0b0; stroke-opacity: 0.25; stroke-width: 0.6"/>
     </g>
     <g id="line2d_2">
      <defs>
       <path id="mb997708bae" d="M 0 0 
L 0 3.5 
" style="stroke: #000000; stroke-width: 0.8"/>
      </defs>
      <g>
       <use xlink:href="#mb997708bae" x="84.485227" y="349.8636" style="stroke: #000000; stroke-width: 0.8"/>
      </g>
     </g>
     <g id="text_1">
      <!-- 0 -->
      <g transform="translate(81.485227 365.1136) scale(0.12 -0.12)">
       <defs>
        <path id="SimHei-30" d="M 225 2537 
Q 250 3200 412 3587 
Q 575 3975 875 4225 
Q 1175 4475 1612 4475 
Q 2050 4475 2375 4112 
Q 2700 3750 2800 3200 
Q 2900 2650 2862 1937 
Q 2825 1225 2612 775 
Q 2400 325 1975 150 
Q 1550 -25 1125 187 
Q 700 400 525 750 
Q 350 1100 275 1487 
Q 200 1875 225 2537 
z
M 750 2687 
Q 675 2000 800 1462 
Q 925 925 1212 700 
Q 1500 475 1800 612 
Q 2100 750 2237 1162 
Q 2375 1575 2375 2062 
Q 2375 2550 2337 2950 
Q 2300 3350 2112 3675 
Q 1925 4000 1612 4012 
Q 1300 4025 1062 3700 
Q 825 3375 750 2687 
z
" transform="scale(0.015625)"/>
       </defs>
       <use xlink:href="#SimHei-30"/>
      </g>
     </g>
    </g>
    <g id="xtick_2">
     <g id="line2d_3">
      <path d="M 155.845446 349.8636 
L 155.845446 34.5036 
" clip-path="url(#pcf19db81ec)" style="fill: none; stroke-dasharray: 2.22,0.96; stroke-dashoffset: 0; stroke: #b0b0b0; stroke-opacity: 0.25; stroke-width: 0.6"/>
     </g>
     <g id="line2d_4">
      <g>
       <use xlink:href="#mb997708bae" x="155.845446" y="349.8636" style="stroke: #000000; stroke-width: 0.8"/>
      </g>
     </g>
     <g id="text_2">
      <!-- 50 -->
      <g transform="translate(149.845446 365.1136) scale(0.12 -0.12)">
       <defs>
        <path id="SimHei-35" d="M 550 1325 
Q 725 650 1150 575 
Q 1575 500 1837 662 
Q 2100 825 2212 1087 
Q 2325 1350 2312 1675 
Q 2300 2000 2137 2225 
Q 1975 2450 1725 2525 
Q 1475 2600 1162 2525 
Q 850 2450 650 2175 
L 225 2225 
Q 275 2375 700 4375 
L 2675 4375 
L 2675 3925 
L 1075 3925 
Q 950 3250 825 2850 
Q 1200 3025 1525 3012 
Q 1850 3000 2150 2862 
Q 2450 2725 2587 2487 
Q 2725 2250 2787 2012 
Q 2850 1775 2837 1500 
Q 2825 1225 2725 937 
Q 2625 650 2425 462 
Q 2225 275 1937 162 
Q 1650 50 1275 75 
Q 900 100 562 350 
Q 225 600 100 1200 
L 550 1325 
z
" transform="scale(0.015625)"/>
       </defs>
       <use xlink:href="#SimHei-35"/>
       <use xlink:href="#SimHei-30" transform="translate(50 0)"/>
      </g>
     </g>
    </g>
    <g id="xtick_3">
     <g id="line2d_5">
      <path d="M 227.205665 349.8636 
L 227.205665 34.5036 
" clip-path="url(#pcf19db81ec)" style="fill: none; stroke-dasharray: 2.22,0.96; stroke-dashoffset: 0; stroke: #b0b0b0; stroke-opacity: 0.25; stroke-width: 0.6"/>
     </g>
     <g id="line2d_6">
      <g>
       <use xlink:href="#mb997708bae" x="227.205665" y="349.8636" style="stroke: #000000; stroke-width: 0.8"/>
      </g>
     </g>
     <g id="text_3">
      <!-- 100 -->
      <g transform="translate(218.205665 365.1136) scale(0.12 -0.12)">
       <defs>
        <path id="SimHei-31" d="M 1400 3600 
Q 1075 3275 575 2975 
L 575 3450 
Q 1200 3875 1600 4450 
L 1900 4450 
L 1900 150 
L 1400 150 
L 1400 3600 
z
" transform="scale(0.015625)"/>
       </defs>
       <use xlink:href="#SimHei-31"/>
       <use xlink:href="#SimHei-30" transform="translate(50 0)"/>
       <use xlink:href="#SimHei-30" transform="translate(100 0)"/>
      </g>
     </g>
    </g>
    <g id="xtick_4">
     <g id="line2d_7">
      <path d="M 298.565883 349.8636 
L 298.565883 34.5036 
" clip-path="url(#pcf19db81ec)" style="fill: none; stroke-dasharray: 2.22,0.96; stroke-dashoffset: 0; stroke: #b0b0b0; stroke-opacity: 0.25; stroke-width: 0.6"/>
     </g>
     <g id="line2d_8">
      <g>
       <use xlink:href="#mb997708bae" x="298.565883" y="349.8636" style="stroke: #000000; stroke-width: 0.8"/>
      </g>
     </g>
     <g id="text_4">
      <!-- 150 -->
      <g transform="translate(289.565883 365.1136) scale(0.12 -0.12)">
       <use xlink:href="#SimHei-31"/>
       <use xlink:href="#SimHei-35" transform="translate(50 0)"/>
       <use xlink:href="#SimHei-30" transform="translate(100 0)"/>
      </g>
     </g>
    </g>
    <g id="xtick_5">
     <g id="line2d_9">
      <path d="M 369.926102 349.8636 
L 369.926102 34.5036 
" clip-path="url(#pcf19db81ec)" style="fill: none; stroke-dasharray: 2.22,0.96; stroke-dashoffset: 0; stroke: #b0b0b0; stroke-opacity: 0.25; stroke-width: 0.6"/>
     </g>
     <g id="line2d_10">
      <g>
       <use xlink:href="#mb997708bae" x="369.926102" y="349.8636" style="stroke: #000000; stroke-width: 0.8"/>
      </g>
     </g>
     <g id="text_5">
      <!-- 200 -->
      <g transform="translate(360.926102 365.1136) scale(0.12 -0.12)">
       <defs>
        <path id="SimHei-32" d="M 300 250 
Q 325 625 650 925 
Q 975 1225 1475 1862 
Q 1975 2500 2125 2850 
Q 2275 3200 2237 3450 
Q 2200 3700 2000 3862 
Q 1800 4025 1537 4000 
Q 1275 3975 1037 3800 
Q 800 3625 675 3275 
L 200 3350 
Q 400 3925 712 4187 
Q 1025 4450 1450 4475 
Q 1700 4500 1900 4462 
Q 2100 4425 2312 4287 
Q 2525 4150 2662 3875 
Q 2800 3600 2762 3212 
Q 2725 2825 2375 2287 
Q 2025 1750 1025 600 
L 2825 600 
L 2825 150 
L 300 150 
L 300 250 
z
" transform="scale(0.015625)"/>
       </defs>
       <use xlink:href="#SimHei-32"/>
       <use xlink:href="#SimHei-30" transform="translate(50 0)"/>
       <use xlink:href="#SimHei-30" transform="translate(100 0)"/>
      </g>
     </g>
    </g>
    <g id="xtick_6">
     <g id="line2d_11">
      <path d="M 441.286321 349.8636 
L 441.286321 34.5036 
" clip-path="url(#pcf19db81ec)" style="fill: none; stroke-dasharray: 2.22,0.96; stroke-dashoffset: 0; stroke: #b0b0b0; stroke-opacity: 0.25; stroke-width: 0.6"/>
     </g>
     <g id="line2d_12">
      <g>
       <use xlink:href="#mb997708bae" x="441.286321" y="349.8636" style="stroke: #000000; stroke-width: 0.8"/>
      </g>
     </g>
     <g id="text_6">
      <!-- 250 -->
      <g transform="translate(432.286321 365.1136) scale(0.12 -0.12)">
       <use xlink:href="#SimHei-32"/>
       <use xlink:href="#SimHei-35" transform="translate(50 0)"/>
       <use xlink:href="#SimHei-30" transform="translate(100 0)"/>
      </g>
     </g>
    </g>
    <g id="xtick_7">
     <g id="line2d_13">
      <path d="M 512.64654 349.8636 
L 512.64654 34.5036 
" clip-path="url(#pcf19db81ec)" style="fill: none; stroke-dasharray: 2.22,0.96; stroke-dashoffset: 0; stroke: #b0b0b0; stroke-opacity: 0.25; stroke-width: 0.6"/>
     </g>
     <g id="line2d_14">
      <g>
       <use xlink:href="#mb997708bae" x="512.64654" y="349.8636" style="stroke: #000000; stroke-width: 0.8"/>
      </g>
     </g>
     <g id="text_7">
      <!-- 300 -->
      <g transform="translate(503.64654 365.1136) scale(0.12 -0.12)">
       <defs>
        <path id="SimHei-33" d="M 250 1225 
L 700 1300 
Q 800 975 1025 762 
Q 1250 550 1587 562 
Q 1925 575 2125 837 
Q 2325 1100 2300 1437 
Q 2275 1775 2037 1962 
Q 1800 2150 1275 2225 
L 1275 2550 
Q 1800 2600 2037 2825 
Q 2275 3050 2250 3412 
Q 2225 3775 1925 3937 
Q 1625 4100 1287 3975 
Q 950 3850 750 3275 
L 300 3350 
Q 450 3800 712 4100 
Q 975 4400 1425 4450 
Q 1875 4500 2212 4337 
Q 2550 4175 2687 3837 
Q 2825 3500 2725 3100 
Q 2625 2700 2150 2400 
Q 2500 2250 2687 1950 
Q 2875 1650 2812 1162 
Q 2750 675 2375 375 
Q 2000 75 1525 87 
Q 1050 100 700 387 
Q 350 675 250 1225 
z
" transform="scale(0.015625)"/>
       </defs>
       <use xlink:href="#SimHei-33"/>
       <use xlink:href="#SimHei-30" transform="translate(50 0)"/>
       <use xlink:href="#SimHei-30" transform="translate(100 0)"/>
      </g>
     </g>
    </g>
    <g id="xtick_8">
     <g id="line2d_15">
      <path d="M 584.006758 349.8636 
L 584.006758 34.5036 
" clip-path="url(#pcf19db81ec)" style="fill: none; stroke-dasharray: 2.22,0.96; stroke-dashoffset: 0; stroke: #b0b0b0; stroke-opacity: 0.25; stroke-width: 0.6"/>
     </g>
     <g id="line2d_16">
      <g>
       <use xlink:href="#mb997708bae" x="584.006758" y="349.8636" style="stroke: #000000; stroke-width: 0.8"/>
      </g>
     </g>
     <g id="text_8">
      <!-- 350 -->
      <g transform="translate(575.006758 365.1136) scale(0.12 -0.12)">
       <use xlink:href="#SimHei-33"/>
       <use xlink:href="#SimHei-35" transform="translate(50 0)"/>
       <use xlink:href="#SimHei-30" transform="translate(100 0)"/>
      </g>
     </g>
    </g>
    <g id="xtick_9">
     <g id="line2d_17">
      <path d="M 655.366977 349.8636 
L 655.366977 34.5036 
" clip-path="url(#pcf19db81ec)" style="fill: none; stroke-dasharray: 2.22,0.96; stroke-dashoffset: 0; stroke: #b0b0b0; stroke-opacity: 0.25; stroke-width: 0.6"/>
     </g>
     <g id="line2d_18">
      <g>
       <use xlink:href="#mb997708bae" x="655.366977" y="349.8636" style="stroke: #000000; stroke-width: 0.8"/>
      </g>
     </g>
     <g id="text_9">
      <!-- 400 -->
      <g transform="translate(646.366977 365.1136) scale(0.12 -0.12)">
       <defs>
        <path id="SimHei-34" d="M 2000 1100 
L 75 1100 
L 75 1525 
L 2100 4450 
L 2475 4450 
L 2475 1525 
L 3075 1525 
L 3075 1100 
L 2475 1100 
L 2475 150 
L 2000 150 
L 2000 1100 
z
M 2000 1525 
L 2000 3500 
L 600 1525 
L 2000 1525 
z
" transform="scale(0.015625)"/>
       </defs>
       <use xlink:href="#SimHei-34"/>
       <use xlink:href="#SimHei-30" transform="translate(50 0)"/>
       <use xlink:href="#SimHei-30" transform="translate(100 0)"/>
      </g>
     </g>
    </g>
    <g id="text_10">
     <!-- Episode -->
     <g transform="translate(339.4625 382.3011) scale(0.17 -0.17)">
      <defs>
       <path id="SimHei-45" d="M 2900 125 
L 350 125 
L 350 4400 
L 2775 4400 
L 2775 3925 
L 925 3925 
L 925 2600 
L 2625 2600 
L 2625 2125 
L 925 2125 
L 925 600 
L 2900 600 
L 2900 125 
z
" transform="scale(0.015625)"/>
       <path id="SimHei-70" d="M 2825 1525 
Q 2825 800 2475 425 
Q 2125 50 1625 50 
Q 1350 50 1150 162 
Q 950 275 800 500 
L 800 -800 
L 300 -800 
L 300 2925 
L 800 2925 
L 800 2550 
Q 950 2775 1150 2875 
Q 1350 2975 1625 2975 
Q 2125 2975 2475 2612 
Q 2825 2250 2825 1525 
z
M 2275 1525 
Q 2275 2000 2087 2262 
Q 1900 2525 1525 2525 
Q 1225 2525 1012 2262 
Q 800 2000 800 1525 
Q 800 1050 1012 775 
Q 1225 500 1525 500 
Q 1900 500 2087 775 
Q 2275 1050 2275 1525 
z
" transform="scale(0.015625)"/>
       <path id="SimHei-69" d="M 1800 3725 
L 1300 3725 
L 1300 4375 
L 1800 4375 
L 1800 3725 
z
M 1800 125 
L 1300 125 
L 1300 2925 
L 1800 2925 
L 1800 125 
z
" transform="scale(0.015625)"/>
       <path id="SimHei-73" d="M 2750 900 
Q 2750 500 2437 287 
Q 2125 75 1650 75 
Q 1050 75 725 312 
Q 400 550 400 1000 
L 900 1000 
Q 900 700 1112 600 
Q 1325 500 1625 500 
Q 1925 500 2075 612 
Q 2225 725 2225 900 
Q 2225 1025 2100 1150 
Q 1975 1275 1475 1350 
Q 900 1425 687 1637 
Q 475 1850 475 2200 
Q 475 2500 762 2737 
Q 1050 2975 1600 2975 
Q 2100 2975 2387 2750 
Q 2675 2525 2675 2150 
L 2175 2150 
Q 2175 2375 2012 2462 
Q 1850 2550 1600 2550 
Q 1275 2550 1137 2437 
Q 1000 2325 1000 2175 
Q 1000 2000 1125 1900 
Q 1250 1800 1650 1750 
Q 2300 1650 2525 1437 
Q 2750 1225 2750 900 
z
" transform="scale(0.015625)"/>
       <path id="SimHei-6f" d="M 2925 1525 
Q 2925 875 2525 475 
Q 2125 75 1575 75 
Q 1025 75 625 475 
Q 225 875 225 1525 
Q 225 2175 625 2575 
Q 1025 2975 1575 2975 
Q 2125 2975 2525 2575 
Q 2925 2175 2925 1525 
z
M 2375 1525 
Q 2375 2025 2125 2275 
Q 1875 2525 1575 2525 
Q 1275 2525 1025 2275 
Q 775 2025 775 1525 
Q 775 1025 1025 775 
Q 1275 525 1575 525 
Q 1875 525 2125 775 
Q 2375 1025 2375 1525 
z
" transform="scale(0.015625)"/>
       <path id="SimHei-64" d="M 2750 125 
L 2250 125 
L 2250 500 
Q 2100 275 1900 175 
Q 1700 75 1425 75 
Q 925 75 575 437 
Q 225 800 225 1525 
Q 225 2250 575 2625 
Q 925 3000 1425 3000 
Q 1700 3000 1900 2887 
Q 2100 2775 2250 2550 
L 2250 4400 
L 2750 4400 
L 2750 125 
z
M 2250 1525 
Q 2250 2000 2037 2275 
Q 1825 2550 1525 2550 
Q 1150 2550 962 2275 
Q 775 2000 775 1525 
Q 775 1050 962 787 
Q 1150 525 1525 525 
Q 1825 525 2037 787 
Q 2250 1050 2250 1525 
z
" transform="scale(0.015625)"/>
       <path id="SimHei-65" d="M 2850 1075 
Q 2800 625 2450 350 
Q 2100 75 1625 75 
Q 1025 75 637 462 
Q 250 850 250 1525 
Q 250 2200 637 2587 
Q 1025 2975 1625 2975 
Q 2150 2975 2487 2637 
Q 2825 2300 2825 1525 
L 800 1525 
Q 800 975 1037 750 
Q 1275 525 1625 525 
Q 1900 525 2075 662 
Q 2250 800 2300 1075 
L 2850 1075 
z
M 2250 1925 
Q 2200 2275 2025 2412 
Q 1850 2550 1575 2550 
Q 1325 2550 1125 2412 
Q 925 2275 825 1925 
L 2250 1925 
z
" transform="scale(0.015625)"/>
      </defs>
      <use xlink:href="#SimHei-45"/>
      <use xlink:href="#SimHei-70" transform="translate(50 0)"/>
      <use xlink:href="#SimHei-69" transform="translate(100 0)"/>
      <use xlink:href="#SimHei-73" transform="translate(150 0)"/>
      <use xlink:href="#SimHei-6f" transform="translate(200 0)"/>
      <use xlink:href="#SimHei-64" transform="translate(250 0)"/>
      <use xlink:href="#SimHei-65" transform="translate(300 0)"/>
     </g>
    </g>
   </g>
   <g id="matplotlib.axis_2">
    <g id="ytick_1">
     <g id="line2d_19">
      <path d="M 56.0125 331.72893 
L 682.4125 331.72893 
" clip-path="url(#pcf19db81ec)" style="fill: none; stroke-dasharray: 2.22,0.96; stroke-dashoffset: 0; stroke: #b0b0b0; stroke-opacity: 0.25; stroke-width: 0.6"/>
     </g>
     <g id="line2d_20">
      <defs>
       <path id="m9709001ecd" d="M 0 0 
L -3.5 0 
" style="stroke: #000000; stroke-width: 0.8"/>
      </defs>
      <g>
       <use xlink:href="#m9709001ecd" x="56.0125" y="331.72893" style="stroke: #000000; stroke-width: 0.8"/>
      </g>
     </g>
     <g id="text_11">
      <!-- 0.05 -->
      <g transform="translate(25.0125 335.85393) scale(0.12 -0.12)">
       <defs>
        <path id="SimHei-2e" d="M 1075 125 
L 500 125 
L 500 675 
L 1075 675 
L 1075 125 
z
" transform="scale(0.015625)"/>
       </defs>
       <use xlink:href="#SimHei-30"/>
       <use xlink:href="#SimHei-2e" transform="translate(50 0)"/>
       <use xlink:href="#SimHei-30" transform="translate(100 0)"/>
       <use xlink:href="#SimHei-35" transform="translate(150 0)"/>
      </g>
     </g>
    </g>
    <g id="ytick_2">
     <g id="line2d_21">
      <path d="M 56.0125 268.470601 
L 682.4125 268.470601 
" clip-path="url(#pcf19db81ec)" style="fill: none; stroke-dasharray: 2.22,0.96; stroke-dashoffset: 0; stroke: #b0b0b0; stroke-opacity: 0.25; stroke-width: 0.6"/>
     </g>
     <g id="line2d_22">
      <g>
       <use xlink:href="#m9709001ecd" x="56.0125" y="268.470601" style="stroke: #000000; stroke-width: 0.8"/>
      </g>
     </g>
     <g id="text_12">
      <!-- 0.10 -->
      <g transform="translate(25.0125 272.595601) scale(0.12 -0.12)">
       <use xlink:href="#SimHei-30"/>
       <use xlink:href="#SimHei-2e" transform="translate(50 0)"/>
       <use xlink:href="#SimHei-31" transform="translate(100 0)"/>
       <use xlink:href="#SimHei-30" transform="translate(150 0)"/>
      </g>
     </g>
    </g>
    <g id="ytick_3">
     <g id="line2d_23">
      <path d="M 56.0125 205.212272 
L 682.4125 205.212272 
" clip-path="url(#pcf19db81ec)" style="fill: none; stroke-dasharray: 2.22,0.96; stroke-dashoffset: 0; stroke: #b0b0b0; stroke-opacity: 0.25; stroke-width: 0.6"/>
     </g>
     <g id="line2d_24">
      <g>
       <use xlink:href="#m9709001ecd" x="56.0125" y="205.212272" style="stroke: #000000; stroke-width: 0.8"/>
      </g>
     </g>
     <g id="text_13">
      <!-- 0.15 -->
      <g transform="translate(25.0125 209.337272) scale(0.12 -0.12)">
       <use xlink:href="#SimHei-30"/>
       <use xlink:href="#SimHei-2e" transform="translate(50 0)"/>
       <use xlink:href="#SimHei-31" transform="translate(100 0)"/>
       <use xlink:href="#SimHei-35" transform="translate(150 0)"/>
      </g>
     </g>
    </g>
    <g id="ytick_4">
     <g id="line2d_25">
      <path d="M 56.0125 141.953943 
L 682.4125 141.953943 
" clip-path="url(#pcf19db81ec)" style="fill: none; stroke-dasharray: 2.22,0.96; stroke-dashoffset: 0; stroke: #b0b0b0; stroke-opacity: 0.25; stroke-width: 0.6"/>
     </g>
     <g id="line2d_26">
      <g>
       <use xlink:href="#m9709001ecd" x="56.0125" y="141.953943" style="stroke: #000000; stroke-width: 0.8"/>
      </g>
     </g>
     <g id="text_14">
      <!-- 0.20 -->
      <g transform="translate(25.0125 146.078943) scale(0.12 -0.12)">
       <use xlink:href="#SimHei-30"/>
       <use xlink:href="#SimHei-2e" transform="translate(50 0)"/>
       <use xlink:href="#SimHei-32" transform="translate(100 0)"/>
       <use xlink:href="#SimHei-30" transform="translate(150 0)"/>
      </g>
     </g>
    </g>
    <g id="ytick_5">
     <g id="line2d_27">
      <path d="M 56.0125 78.695614 
L 682.4125 78.695614 
" clip-path="url(#pcf19db81ec)" style="fill: none; stroke-dasharray: 2.22,0.96; stroke-dashoffset: 0; stroke: #b0b0b0; stroke-opacity: 0.25; stroke-width: 0.6"/>
     </g>
     <g id="line2d_28">
      <g>
       <use xlink:href="#m9709001ecd" x="56.0125" y="78.695614" style="stroke: #000000; stroke-width: 0.8"/>
      </g>
     </g>
     <g id="text_15">
      <!-- 0.25 -->
      <g transform="translate(25.0125 82.820614) scale(0.12 -0.12)">
       <use xlink:href="#SimHei-30"/>
       <use xlink:href="#SimHei-2e" transform="translate(50 0)"/>
       <use xlink:href="#SimHei-32" transform="translate(100 0)"/>
       <use xlink:href="#SimHei-35" transform="translate(150 0)"/>
      </g>
     </g>
    </g>
    <g id="text_16">
     <!-- Total Task Latency -->
     <g transform="translate(18.8875 268.6836) rotate(-90) scale(0.17 -0.17)">
      <defs>
       <path id="SimHei-54" d="M 2850 3925 
L 1850 3925 
L 1850 125 
L 1275 125 
L 1275 3925 
L 275 3925 
L 275 4400 
L 2850 4400 
L 2850 3925 
z
" transform="scale(0.015625)"/>
       <path id="SimHei-74" d="M 2750 200 
Q 2625 150 2462 112 
Q 2300 75 2025 75 
Q 1575 75 1300 325 
Q 1025 575 1025 1025 
L 1025 2525 
L 175 2525 
L 175 2925 
L 1025 2925 
L 1025 3900 
L 1525 3900 
L 1525 2925 
L 2550 2925 
L 2550 2525 
L 1525 2525 
L 1525 1000 
Q 1525 800 1625 662 
Q 1725 525 2000 525 
Q 2275 525 2450 575 
Q 2625 625 2750 700 
L 2750 200 
z
" transform="scale(0.015625)"/>
       <path id="SimHei-61" d="M 2875 125 
L 2275 125 
Q 2225 175 2200 262 
Q 2175 350 2175 475 
Q 2000 275 1750 175 
Q 1500 75 1225 75 
Q 825 75 550 275 
Q 275 475 275 850 
Q 275 1225 525 1450 
Q 775 1675 1300 1750 
Q 1650 1800 1912 1875 
Q 2175 1950 2175 2075 
Q 2175 2225 2062 2375 
Q 1950 2525 1575 2525 
Q 1275 2525 1137 2412 
Q 1000 2300 950 2100 
L 400 2100 
Q 450 2500 762 2737 
Q 1075 2975 1575 2975 
Q 2125 2975 2400 2725 
Q 2675 2475 2675 2025 
L 2675 650 
Q 2675 500 2725 375 
Q 2775 250 2875 125 
z
M 2175 1050 
L 2175 1550 
Q 2025 1500 1887 1462 
Q 1750 1425 1425 1375 
Q 1050 1325 937 1200 
Q 825 1075 825 900 
Q 825 750 937 637 
Q 1050 525 1275 525 
Q 1500 525 1762 650 
Q 2025 775 2175 1050 
z
" transform="scale(0.015625)"/>
       <path id="SimHei-6c" d="M 1825 125 
L 1325 125 
L 1325 4400 
L 1825 4400 
L 1825 125 
z
" transform="scale(0.015625)"/>
       <path id="SimHei-20" transform="scale(0.015625)"/>
       <path id="SimHei-6b" d="M 2925 125 
L 2350 125 
L 1450 1650 
L 875 1100 
L 875 125 
L 375 125 
L 375 4400 
L 875 4400 
L 875 1675 
L 2125 2925 
L 2750 2925 
L 1775 1975 
L 2925 125 
z
" transform="scale(0.015625)"/>
       <path id="SimHei-4c" d="M 2900 125 
L 300 125 
L 300 4400 
L 875 4400 
L 875 600 
L 2900 600 
L 2900 125 
z
" transform="scale(0.015625)"/>
       <path id="SimHei-6e" d="M 2800 125 
L 2300 125 
L 2300 1925 
Q 2300 2225 2150 2400 
Q 2000 2575 1750 2575 
Q 1425 2575 1137 2237 
Q 850 1900 850 1400 
L 850 125 
L 350 125 
L 350 2925 
L 850 2925 
L 850 2400 
Q 1050 2675 1287 2825 
Q 1525 2975 1900 2975 
Q 2350 2975 2575 2725 
Q 2800 2475 2800 2100 
L 2800 125 
z
" transform="scale(0.015625)"/>
       <path id="SimHei-63" d="M 2850 1250 
Q 2850 725 2487 400 
Q 2125 75 1575 75 
Q 1025 75 625 462 
Q 225 850 225 1525 
Q 225 2200 625 2587 
Q 1025 2975 1575 2975 
Q 2125 2975 2450 2687 
Q 2775 2400 2775 2000 
L 2225 2000 
Q 2200 2300 2012 2412 
Q 1825 2525 1575 2525 
Q 1275 2525 1025 2287 
Q 775 2050 775 1525 
Q 775 1000 1025 762 
Q 1275 525 1575 525 
Q 1900 525 2100 700 
Q 2300 875 2300 1250 
L 2850 1250 
z
" transform="scale(0.015625)"/>
       <path id="SimHei-79" d="M 2900 2925 
L 1750 -100 
Q 1650 -450 1450 -625 
Q 1250 -800 950 -800 
Q 825 -800 712 -787 
Q 600 -775 500 -725 
L 500 -225 
Q 600 -275 700 -300 
Q 800 -325 875 -325 
Q 1075 -325 1150 -262 
Q 1225 -200 1300 25 
L 200 2925 
L 750 2925 
L 1550 725 
L 1575 725 
L 2350 2925 
L 2900 2925 
z
" transform="scale(0.015625)"/>
      </defs>
      <use xlink:href="#SimHei-54"/>
      <use xlink:href="#SimHei-6f" transform="translate(50 0)"/>
      <use xlink:href="#SimHei-74" transform="translate(100 0)"/>
      <use xlink:href="#SimHei-61" transform="translate(150 0)"/>
      <use xlink:href="#SimHei-6c" transform="translate(200 0)"/>
      <use xlink:href="#SimHei-20" transform="translate(250 0)"/>
      <use xlink:href="#SimHei-54" transform="translate(300 0)"/>
      <use xlink:href="#SimHei-61" transform="translate(350 0)"/>
      <use xlink:href="#SimHei-73" transform="translate(400 0)"/>
      <use xlink:href="#SimHei-6b" transform="translate(450 0)"/>
      <use xlink:href="#SimHei-20" transform="translate(500 0)"/>
      <use xlink:href="#SimHei-4c" transform="translate(550 0)"/>
      <use xlink:href="#SimHei-61" transform="translate(600 0)"/>
      <use xlink:href="#SimHei-74" transform="translate(650 0)"/>
      <use xlink:href="#SimHei-65" transform="translate(700 0)"/>
      <use xlink:href="#SimHei-6e" transform="translate(750 0)"/>
      <use xlink:href="#SimHei-63" transform="translate(800 0)"/>
      <use xlink:href="#SimHei-79" transform="translate(850 0)"/>
     </g>
    </g>
   </g>
   <g id="line2d_29">
    <path d="M 84.485227 249.376763 
L 85.912432 239.478499 
L 87.339636 235.989671 
L 88.76684 224.12989 
L 90.194045 206.487551 
L 91.621249 211.25335 
L 93.048454 202.596849 
L 94.475658 186.335623 
L 95.902862 186.402696 
L 97.330067 184.212796 
L 98.757271 189.090138 
L 100.184475 176.666069 
L 101.61168 168.661591 
L 103.038884 155.272727 
L 104.466089 139.957404 
L 105.893293 133.417427 
L 107.320497 133.782762 
L 108.747702 138.079195 
L 110.174906 152.638792 
L 111.60211 143.289674 
L 113.029315 144.940853 
L 114.456519 162.905261 
L 115.883724 177.123699 
L 117.310928 193.147676 
L 118.738132 207.798231 
L 121.592541 232.465773 
L 123.019745 229.204129 
L 124.44695 240.156305 
L 125.874154 249.470134 
L 130.155767 271.508141 
L 131.582972 278.00846 
L 133.010176 280.663926 
L 134.43738 286.388003 
L 137.291789 295.292777 
L 140.146198 302.428802 
L 141.573402 305.60135 
L 143.000607 307.801076 
L 147.28222 315.603658 
L 148.709424 302.560913 
L 151.563833 307.498904 
L 152.991037 309.677582 
L 155.845446 315.243781 
L 157.27265 317.502751 
L 158.699855 319.494738 
L 161.554263 322.000661 
L 164.408672 322.882559 
L 165.835877 324.090903 
L 167.263081 324.658731 
L 168.690285 325.932244 
L 171.544694 326.641597 
L 172.971898 326.893002 
L 174.399103 327.903597 
L 175.826307 320.241612 
L 177.253512 322.273676 
L 178.680716 323.44737 
L 180.10792 314.71109 
L 181.535125 316.389044 
L 182.962329 310.988089 
L 184.389533 307.565452 
L 185.816738 309.43365 
L 187.243942 312.052771 
L 188.671147 313.953621 
L 190.098351 316.569288 
L 191.525555 318.274481 
L 192.95276 319.304478 
L 194.379964 294.761235 
L 195.807168 298.416725 
L 197.234373 279.453195 
L 201.515986 292.091469 
L 202.94319 285.906293 
L 204.370395 290.704614 
L 205.797599 296.04539 
L 207.224803 275.031348 
L 208.652008 277.557973 
L 210.079212 282.281806 
L 211.506417 260.146849 
L 212.933621 265.925051 
L 214.360825 230.174777 
L 215.78803 232.170882 
L 217.215234 232.979256 
L 218.642438 228.235297 
L 220.069643 207.777931 
L 221.496847 198.640821 
L 222.924052 201.647911 
L 224.351256 200.651362 
L 225.77846 208.633967 
L 227.205665 182.307063 
L 228.632869 169.653094 
L 230.060073 186.257415 
L 231.487278 174.457449 
L 232.914482 189.42295 
L 234.341687 202.4255 
L 235.768891 200.453126 
L 237.196095 208.35636 
L 238.6233 180.871102 
L 240.050504 195.315066 
L 241.477708 182.92618 
L 242.904913 188.905986 
L 244.332117 202.48831 
L 245.759322 214.87136 
L 247.186526 212.004712 
L 248.61373 204.790168 
L 250.040935 178.051046 
L 251.468139 158.933332 
L 252.895343 145.189016 
L 254.322548 138.968486 
L 255.749752 130.387333 
L 257.176957 112.482062 
L 258.604161 118.658143 
L 260.031365 112.922292 
L 261.45857 112.824073 
L 262.885774 133.90882 
L 264.312978 128.183893 
L 265.740183 123.373811 
L 267.167387 129.479359 
L 268.594592 137.821027 
L 270.021796 123.788804 
L 271.449 121.50087 
L 272.876205 115.584348 
L 274.303409 105.711317 
L 275.730613 110.938556 
L 277.157818 93.294946 
L 278.585022 103.37038 
L 280.012227 111.912952 
L 282.866635 122.825351 
L 284.29384 115.226415 
L 285.721044 112.006077 
L 287.148248 117.043056 
L 288.575453 103.594002 
L 290.002657 107.915274 
L 291.429862 102.787911 
L 292.857066 106.75868 
L 294.28427 111.068641 
L 295.711475 112.938792 
L 297.138679 107.474281 
L 298.565883 119.083223 
L 299.993088 115.901217 
L 301.420292 121.753214 
L 302.847497 133.200486 
L 304.274701 120.340874 
L 305.701905 115.798719 
L 307.12911 121.312993 
L 308.556314 129.646085 
L 309.983518 123.088687 
L 311.410723 130.928475 
L 312.837927 132.755809 
L 314.265132 121.430984 
L 315.692336 127.146418 
L 317.11954 119.406379 
L 318.546745 113.829275 
L 319.973949 117.786201 
L 321.401153 115.401881 
L 322.828358 115.984786 
L 324.255562 127.050915 
L 325.682767 113.836985 
L 327.109971 122.041021 
L 328.537175 117.331884 
L 329.96438 123.933276 
L 331.391584 117.14398 
L 334.245993 139.794482 
L 335.673197 156.556507 
L 337.100402 160.795942 
L 338.527606 172.026461 
L 339.95481 177.325066 
L 341.382015 176.836685 
L 342.809219 173.879172 
L 344.236423 177.124497 
L 345.663628 174.615277 
L 347.090832 167.534686 
L 348.518037 167.647317 
L 349.945241 165.734809 
L 351.372445 168.43992 
L 352.79965 160.010956 
L 354.226854 168.001983 
L 355.654058 170.602898 
L 357.081263 169.745967 
L 358.508467 172.26627 
L 359.935672 188.241222 
L 361.362876 191.117853 
L 362.79008 188.842194 
L 365.644489 194.532379 
L 367.071693 186.229431 
L 368.498898 184.057162 
L 369.926102 171.922416 
L 371.353307 168.043176 
L 372.780511 162.543862 
L 374.207715 175.577709 
L 375.63492 170.203954 
L 377.062124 176.47676 
L 378.489328 188.626959 
L 379.916533 185.266584 
L 381.343737 178.716568 
L 382.770942 176.083535 
L 384.198146 183.919722 
L 385.62535 182.040558 
L 387.052555 177.197847 
L 388.479759 179.111533 
L 389.906963 173.45964 
L 391.334168 159.530047 
L 392.761372 167.036446 
L 394.188577 165.247101 
L 395.615781 171.139092 
L 397.042985 174.967072 
L 398.47019 179.665413 
L 399.897394 187.531802 
L 401.324598 179.941619 
L 402.751803 160.256312 
L 404.179007 160.105308 
L 405.606212 167.062086 
L 407.033416 168.015126 
L 408.46062 170.367862 
L 409.887825 166.472741 
L 411.315029 155.860526 
L 414.169438 164.05225 
L 415.596642 162.898886 
L 417.023847 172.707695 
L 418.451051 180.501189 
L 419.878255 181.066901 
L 421.30546 192.823647 
L 422.732664 187.782789 
L 424.159868 190.632437 
L 425.587073 194.77948 
L 427.014277 204.17818 
L 428.441482 201.343853 
L 429.868686 199.968042 
L 431.29589 203.624328 
L 432.723095 196.024924 
L 435.577503 189.474185 
L 437.004708 191.404092 
L 438.431912 199.586424 
L 439.859117 198.912402 
L 441.286321 204.116388 
L 442.713525 197.089371 
L 444.14073 199.179914 
L 445.567934 182.583691 
L 446.995138 181.311025 
L 448.422343 186.033472 
L 449.849547 189.533054 
L 451.276752 197.175917 
L 452.703956 185.244083 
L 454.13116 177.920186 
L 455.558365 173.827891 
L 456.985569 178.624358 
L 458.412773 178.243463 
L 459.839978 176.405585 
L 462.694387 165.861102 
L 464.121591 168.619562 
L 465.548795 174.504785 
L 466.976 175.420409 
L 468.403204 176.032669 
L 469.830408 186.859823 
L 471.257613 185.001773 
L 472.684817 192.806798 
L 474.112022 193.445583 
L 475.539226 193.268659 
L 476.96643 185.618901 
L 478.393635 184.360723 
L 479.820839 185.81039 
L 481.248043 193.628063 
L 482.675248 180.836448 
L 484.102452 185.39034 
L 485.529657 182.712268 
L 486.956861 186.466964 
L 488.384065 186.143384 
L 489.81127 193.17807 
L 491.238474 189.298248 
L 492.665678 179.35044 
L 494.092883 179.246502 
L 495.520087 173.081706 
L 496.947292 166.409446 
L 498.374496 171.604828 
L 499.8017 175.17589 
L 501.228905 178.421085 
L 502.656109 188.073908 
L 504.083313 192.538043 
L 505.510518 200.692684 
L 506.937722 186.811701 
L 508.364927 186.294223 
L 509.792131 185.467353 
L 511.219335 180.976658 
L 512.64654 178.057301 
L 514.073744 181.923781 
L 515.500948 183.880281 
L 516.928153 193.701798 
L 518.355357 191.581882 
L 519.782562 189.196531 
L 521.209766 196.915696 
L 522.63697 191.783289 
L 524.064175 195.557061 
L 525.491379 190.524254 
L 526.918583 194.7777 
L 528.345788 177.493066 
L 529.772992 177.678508 
L 531.200197 181.033497 
L 532.627401 179.288456 
L 534.054605 179.836162 
L 535.48181 188.414864 
L 536.909014 186.272252 
L 539.763423 176.107604 
L 541.190627 187.512447 
L 542.617832 187.634279 
L 544.045036 183.937543 
L 546.899445 184.586554 
L 548.326649 182.899231 
L 549.753853 183.096312 
L 551.181058 189.427536 
L 552.608262 189.433858 
L 554.035467 194.642877 
L 555.462671 201.660883 
L 556.889875 195.053073 
L 558.31708 192.973893 
L 559.744284 183.95905 
L 561.171488 178.469219 
L 562.598693 183.706022 
L 564.025897 172.612626 
L 565.453102 176.496799 
L 566.880306 178.252091 
L 568.30751 178.081825 
L 571.161919 164.830997 
L 572.589123 166.576541 
L 574.016328 168.051018 
L 575.443532 166.559019 
L 576.870737 178.621654 
L 578.297941 188.175441 
L 579.725145 193.599399 
L 581.15235 194.600124 
L 582.579554 199.807181 
L 584.006758 211.124892 
L 585.433963 215.722702 
L 586.861167 203.722133 
L 588.288371 193.32463 
L 589.715576 193.433918 
L 591.14278 197.982231 
L 592.569985 201.523275 
L 593.997189 208.539315 
L 595.424393 209.184647 
L 596.851598 209.416013 
L 598.278802 201.398697 
L 599.706006 199.223722 
L 601.133211 193.254179 
L 602.560415 199.696848 
L 603.98762 199.563875 
L 605.414824 208.859284 
L 606.842028 213.634353 
L 608.269233 220.678177 
L 609.696437 209.134242 
L 611.123641 203.051777 
L 613.97805 185.432465 
L 615.405255 189.881826 
L 616.832459 190.355812 
L 618.259663 185.219326 
L 619.686868 173.105157 
L 621.114072 173.30305 
L 622.541276 182.442656 
L 623.968481 183.678972 
L 625.395685 189.387287 
L 626.82289 192.560785 
L 628.250094 195.333754 
L 629.677298 203.12193 
L 631.104503 197.794786 
L 632.531707 200.698227 
L 633.958911 199.355181 
L 635.386116 191.198839 
L 636.81332 180.501334 
L 638.240525 177.262477 
L 639.667729 169.108045 
L 641.094933 168.155288 
L 642.522138 168.150373 
L 643.949342 164.254727 
L 645.376546 168.738737 
L 646.803751 168.781349 
L 648.230955 164.838049 
L 649.65816 162.752952 
L 651.085364 166.633536 
L 652.512568 163.175047 
L 652.512568 163.175047 
" clip-path="url(#pcf19db81ec)" style="fill: none; stroke: #1f77b4; stroke-width: 1.2; stroke-linecap: square"/>
   </g>
   <g id="line2d_30">
    <path d="M 84.485227 118.414245 
L 85.912432 116.609846 
L 87.339636 112.748759 
L 88.76684 118.834482 
L 90.194045 114.478229 
L 91.621249 111.192483 
L 93.048454 111.340128 
L 94.475658 113.319487 
L 95.902862 119.685418 
L 97.330067 121.78938 
L 100.184475 118.84774 
L 101.61168 118.046739 
L 103.038884 122.263684 
L 104.466089 121.232398 
L 105.893293 116.079514 
L 107.320497 118.18075 
L 108.747702 116.967438 
L 110.174906 113.95021 
L 111.60211 112.568237 
L 113.029315 114.070812 
L 114.456519 111.809388 
L 115.883724 113.072858 
L 117.310928 115.764761 
L 118.738132 118.969094 
L 120.165337 118.47516 
L 121.592541 123.45194 
L 123.019745 124.390628 
L 124.44695 126.425717 
L 125.874154 127.165713 
L 127.301359 130.647794 
L 128.728563 128.215211 
L 130.155767 135.361952 
L 131.582972 134.438294 
L 133.010176 135.912563 
L 134.43738 138.390268 
L 135.864585 140.595767 
L 137.291789 139.087886 
L 138.718994 139.958325 
L 140.146198 139.381319 
L 141.573402 138.494308 
L 143.000607 143.394701 
L 145.855015 147.900369 
L 147.28222 149.879561 
L 148.709424 149.61708 
L 150.136629 151.958468 
L 151.563833 153.437091 
L 152.991037 153.780696 
L 154.418242 157.826178 
L 155.845446 155.740799 
L 157.27265 149.715449 
L 158.699855 146.138954 
L 160.127059 146.182609 
L 161.554263 146.061977 
L 162.981468 146.487081 
L 164.408672 143.759248 
L 165.835877 147.312881 
L 167.263081 150.460029 
L 168.690285 148.482409 
L 170.11749 149.206514 
L 171.544694 159.387129 
L 172.971898 163.398279 
L 174.399103 160.220863 
L 175.826307 162.855249 
L 177.253512 163.596435 
L 178.680716 164.200559 
L 180.10792 165.221185 
L 181.535125 174.707018 
L 182.962329 173.818537 
L 184.389533 173.215228 
L 185.816738 179.022441 
L 187.243942 182.289259 
L 188.671147 183.200313 
L 190.098351 183.024035 
L 191.525555 184.322171 
L 192.95276 185.893232 
L 194.379964 189.006802 
L 195.807168 187.483266 
L 197.234373 184.366322 
L 198.661577 190.767456 
L 200.088782 192.702914 
L 201.515986 195.571654 
L 202.94319 201.978863 
L 204.370395 202.722664 
L 205.797599 200.940402 
L 207.224803 204.925483 
L 208.652008 209.336235 
L 210.079212 216.931672 
L 211.506417 220.629235 
L 212.933621 221.506904 
L 214.360825 219.724689 
L 215.78803 221.904046 
L 217.215234 224.781878 
L 218.642438 222.363897 
L 220.069643 224.284551 
L 221.496847 224.675735 
L 222.924052 216.805239 
L 224.351256 213.604925 
L 225.77846 218.388587 
L 227.205665 225.763625 
L 228.632869 228.236723 
L 230.060073 228.179835 
L 231.487278 228.708742 
L 232.914482 230.242105 
L 234.341687 233.138875 
L 235.768891 235.26183 
L 237.196095 231.842712 
L 238.6233 229.273367 
L 240.050504 233.809136 
L 241.477708 234.254502 
L 242.904913 236.059305 
L 244.332117 232.077755 
L 245.759322 238.73819 
L 247.186526 240.990901 
L 248.61373 235.593182 
L 250.040935 238.478996 
L 251.468139 240.359057 
L 252.895343 235.923715 
L 255.749752 246.277617 
L 257.176957 250.042309 
L 258.604161 251.486703 
L 260.031365 255.090319 
L 261.45857 257.896892 
L 262.885774 259.2223 
L 264.312978 259.75404 
L 265.740183 261.211808 
L 267.167387 263.255721 
L 268.594592 263.087561 
L 270.021796 265.854523 
L 271.449 269.32027 
L 272.876205 269.727146 
L 274.303409 269.184654 
L 275.730613 272.390335 
L 277.157818 270.222356 
L 278.585022 269.303637 
L 280.012227 265.685208 
L 281.439431 259.72488 
L 282.866635 263.847814 
L 284.29384 267.548399 
L 285.721044 269.405701 
L 287.148248 267.878434 
L 288.575453 270.727644 
L 290.002657 270.196551 
L 291.429862 272.824951 
L 292.857066 274.590626 
L 294.28427 273.247038 
L 295.711475 273.099033 
L 297.138679 271.534803 
L 298.565883 270.909171 
L 299.993088 272.8351 
L 301.420292 276.733266 
L 302.847497 279.251583 
L 305.701905 277.973021 
L 307.12911 278.819033 
L 308.556314 283.107929 
L 309.983518 282.083135 
L 312.837927 284.701246 
L 314.265132 285.231521 
L 315.692336 282.072045 
L 317.11954 284.081869 
L 318.546745 285.108659 
L 319.973949 285.293877 
L 321.401153 286.36846 
L 322.828358 288.925159 
L 324.255562 288.3019 
L 325.682767 290.59361 
L 327.109971 290.968124 
L 328.537175 293.386362 
L 331.391584 294.07431 
L 332.818788 293.005458 
L 334.245993 296.416373 
L 335.673197 295.017332 
L 337.100402 294.962673 
L 339.95481 296.957417 
L 341.382015 299.083173 
L 342.809219 298.844148 
L 344.236423 297.986648 
L 345.663628 297.407939 
L 347.090832 297.75981 
L 348.518037 297.399493 
L 349.945241 297.552221 
L 351.372445 298.048143 
L 352.79965 296.084977 
L 354.226854 296.017575 
L 355.654058 297.495939 
L 357.081263 300.47888 
L 358.508467 299.631399 
L 359.935672 302.212141 
L 361.362876 301.338658 
L 362.79008 301.27142 
L 364.217285 300.869173 
L 365.644489 300.720469 
L 367.071693 299.786164 
L 368.498898 299.970786 
L 369.926102 302.10646 
L 371.353307 304.464504 
L 372.780511 307.267153 
L 374.207715 308.635016 
L 375.63492 310.361496 
L 377.062124 311.313303 
L 378.489328 310.10465 
L 379.916533 310.371682 
L 381.343737 307.213148 
L 382.770942 308.368886 
L 384.198146 307.330282 
L 385.62535 307.545198 
L 387.052555 306.98736 
L 388.479759 304.496724 
L 389.906963 305.963084 
L 391.334168 306.582205 
L 392.761372 307.897612 
L 394.188577 308.812891 
L 395.615781 309.864156 
L 397.042985 311.135888 
L 398.47019 309.194284 
L 399.897394 310.707169 
L 401.324598 311.303645 
L 402.751803 312.111389 
L 404.179007 313.91073 
L 405.606212 316.13958 
L 407.033416 316.097651 
L 408.46062 315.328653 
L 409.887825 316.547963 
L 411.315029 314.820577 
L 412.742233 314.122504 
L 414.169438 314.836224 
L 415.596642 314.549143 
L 417.023847 314.523568 
L 418.451051 314.339494 
L 419.878255 313.174655 
L 421.30546 313.823666 
L 422.732664 314.611779 
L 424.159868 312.282033 
L 425.587073 313.197669 
L 427.014277 311.878778 
L 428.441482 312.974033 
L 429.868686 314.858543 
L 431.29589 313.959023 
L 432.723095 314.639618 
L 434.150299 315.177615 
L 435.577503 315.354572 
L 437.004708 312.740473 
L 438.431912 312.194308 
L 439.859117 312.781819 
L 441.286321 313.121913 
L 442.713525 316.027907 
L 444.14073 314.806497 
L 445.567934 316.101166 
L 446.995138 315.262701 
L 448.422343 316.03745 
L 449.849547 318.13446 
L 451.276752 316.60341 
L 452.703956 312.950044 
L 454.13116 314.775332 
L 455.558365 316.129002 
L 456.985569 316.201345 
L 458.412773 315.188266 
L 459.839978 314.907021 
L 461.267182 315.105387 
L 462.694387 317.597227 
L 464.121591 317.499767 
L 465.548795 312.9657 
L 466.976 314.517991 
L 468.403204 316.521198 
L 469.830408 315.805626 
L 471.257613 313.78821 
L 472.684817 313.710119 
L 474.112022 313.982761 
L 475.539226 314.40164 
L 476.96643 315.811187 
L 479.820839 316.386215 
L 481.248043 316.078701 
L 484.102452 319.244118 
L 485.529657 320.421138 
L 486.956861 320.965464 
L 488.384065 320.233534 
L 489.81127 321.188221 
L 491.238474 320.046 
L 492.665678 319.979602 
L 494.092883 320.367116 
L 495.520087 320.916972 
L 496.947292 320.921597 
L 498.374496 322.113905 
L 499.8017 321.459157 
L 501.228905 323.162949 
L 502.656109 323.061026 
L 504.083313 324.287528 
L 505.510518 325.279041 
L 506.937722 325.933192 
L 508.364927 326.015752 
L 509.792131 326.785114 
L 511.219335 326.421428 
L 512.64654 325.045685 
L 514.073744 326.164868 
L 515.500948 326.428689 
L 516.928153 325.676426 
L 518.355357 322.873855 
L 519.782562 321.932914 
L 521.209766 322.693223 
L 522.63697 323.230847 
L 524.064175 323.315738 
L 525.491379 324.96691 
L 526.918583 325.852305 
L 528.345788 325.233428 
L 529.772992 326.482673 
L 531.200197 324.722387 
L 532.627401 324.873557 
L 534.054605 325.193664 
L 535.48181 325.354774 
L 536.909014 324.968802 
L 538.336218 324.293239 
L 539.763423 323.308403 
L 541.190627 322.585912 
L 542.617832 321.725071 
L 544.045036 323.154387 
L 545.47224 324.288796 
L 546.899445 323.07778 
L 548.326649 322.884868 
L 549.753853 324.391065 
L 552.608262 325.408849 
L 554.035467 325.812522 
L 555.462671 324.525909 
L 556.889875 325.133518 
L 558.31708 326.200442 
L 559.744284 326.450053 
L 561.171488 326.577876 
L 562.598693 326.124623 
L 564.025897 320.81266 
L 565.453102 321.918778 
L 566.880306 321.949236 
L 568.30751 320.552455 
L 569.734715 321.173821 
L 571.161919 321.090195 
L 572.589123 320.772097 
L 574.016328 322.46582 
L 575.443532 322.15447 
L 576.870737 323.206276 
L 578.297941 324.512613 
L 579.725145 324.287397 
L 581.15235 324.406094 
L 582.579554 324.216013 
L 584.006758 325.085376 
L 585.433963 326.161282 
L 586.861167 327.797285 
L 588.288371 328.828778 
L 589.715576 329.104668 
L 591.14278 327.543525 
L 592.569985 328.167009 
L 593.997189 327.644316 
L 595.424393 325.997257 
L 596.851598 326.470348 
L 598.278802 326.099584 
L 599.706006 323.593186 
L 601.133211 324.374827 
L 602.560415 323.705531 
L 603.98762 324.275653 
L 605.414824 325.243798 
L 606.842028 325.906969 
L 608.269233 326.872422 
L 609.696437 326.735092 
L 611.123641 327.583384 
L 612.550846 326.231394 
L 613.97805 326.043311 
L 615.405255 326.159024 
L 616.832459 327.16513 
L 618.259663 327.583481 
L 619.686868 327.493696 
L 621.114072 326.748289 
L 622.541276 327.376133 
L 623.968481 326.193372 
L 625.395685 326.477859 
L 626.82289 326.093036 
L 628.250094 326.976565 
L 629.677298 328.439052 
L 631.104503 328.828988 
L 632.531707 328.534234 
L 633.958911 328.516544 
L 635.386116 328.955193 
L 636.81332 329.072876 
L 638.240525 328.185905 
L 639.667729 328.325985 
L 641.094933 327.440129 
L 642.522138 327.213565 
L 643.949342 325.93177 
L 645.376546 325.822096 
L 646.803751 325.517275 
L 648.230955 326.551344 
L 649.65816 327.12625 
L 651.085364 326.31704 
L 652.512568 326.554864 
L 652.512568 326.554864 
" clip-path="url(#pcf19db81ec)" style="fill: none; stroke: #ff7f0e; stroke-width: 1.2; stroke-linecap: square"/>
   </g>
   <g id="line2d_31">
    <path d="M 84.485227 199.797888 
L 85.912432 187.00065 
L 87.339636 187.517307 
L 88.76684 178.291067 
L 90.194045 166.640665 
L 91.621249 161.208387 
L 93.048454 161.309376 
L 94.475658 158.964148 
L 95.902862 164.828568 
L 97.330067 166.388909 
L 98.757271 163.758928 
L 100.184475 163.202896 
L 101.61168 162.442174 
L 103.038884 157.695363 
L 104.466089 147.975316 
L 105.893293 144.985027 
L 107.320497 136.444954 
L 108.747702 135.02337 
L 110.174906 139.927326 
L 111.60211 134.39379 
L 113.029315 135.270132 
L 114.456519 142.969577 
L 115.883724 149.069913 
L 117.310928 151.578368 
L 118.738132 155.136202 
L 120.165337 161.8202 
L 121.592541 172.922012 
L 123.019745 180.663016 
L 124.44695 190.861065 
L 127.301359 203.107053 
L 128.728563 205.503462 
L 130.155767 208.918974 
L 131.582972 211.740507 
L 133.010176 213.428851 
L 134.43738 214.855224 
L 135.864585 212.224148 
L 137.291789 207.465766 
L 138.718994 204.433781 
L 140.146198 205.419518 
L 141.573402 199.707219 
L 143.000607 193.113613 
L 144.427811 191.394961 
L 145.855015 193.086557 
L 147.28222 191.369295 
L 148.709424 191.472718 
L 150.136629 194.158286 
L 151.563833 190.539687 
L 152.991037 187.960275 
L 154.418242 190.085252 
L 155.845446 190.787874 
L 157.27265 186.644202 
L 158.699855 187.917823 
L 160.127059 179.357087 
L 161.554263 182.08921 
L 162.981468 189.449072 
L 164.408672 186.565772 
L 165.835877 182.757256 
L 167.263081 181.855413 
L 168.690285 184.307603 
L 170.11749 185.305121 
L 171.544694 192.012314 
L 172.971898 192.502003 
L 174.399103 196.668686 
L 175.826307 196.783637 
L 177.253512 199.441293 
L 178.680716 203.032704 
L 180.10792 205.279902 
L 181.535125 210.412247 
L 182.962329 210.132548 
L 184.389533 205.633899 
L 185.816738 209.591892 
L 187.243942 215.086414 
L 191.525555 246.76778 
L 192.95276 255.458293 
L 195.807168 269.650031 
L 198.661577 281.47533 
L 201.515986 291.976351 
L 202.94319 295.018216 
L 204.370395 299.411661 
L 205.797599 303.106343 
L 207.224803 305.481596 
L 208.652008 308.699694 
L 210.079212 311.286096 
L 211.506417 313.433151 
L 212.933621 315.962722 
L 214.360825 316.749213 
L 215.78803 318.795789 
L 218.642438 321.476033 
L 220.069643 322.227561 
L 221.496847 323.688352 
L 222.924052 325.648381 
L 224.351256 327.103196 
L 225.77846 327.581814 
L 227.205665 328.264906 
L 228.632869 328.082223 
L 230.060073 328.993544 
L 231.487278 329.042689 
L 232.914482 328.600037 
L 235.768891 328.735856 
L 237.196095 327.976443 
L 238.6233 328.731392 
L 240.050504 329.078302 
L 241.477708 329.966298 
L 242.904913 330.022177 
L 245.759322 329.832666 
L 247.186526 330.345933 
L 248.61373 330.200066 
L 250.040935 330.176914 
L 251.468139 330.673151 
L 252.895343 331.488867 
L 254.322548 331.366334 
L 255.749752 332.23613 
L 257.176957 332.284162 
L 258.604161 331.658315 
L 260.031365 330.658736 
L 261.45857 331.166701 
L 262.885774 330.698383 
L 264.312978 330.513503 
L 265.740183 329.967042 
L 267.167387 330.884556 
L 271.449 332.855886 
L 272.876205 332.314749 
L 274.303409 331.957427 
L 275.730613 332.075403 
L 277.157818 332.57854 
L 278.585022 332.622851 
L 280.012227 333.214248 
L 281.439431 334.539854 
L 282.866635 335.021066 
L 284.29384 334.709181 
L 285.721044 334.248316 
L 287.148248 333.271763 
L 288.575453 333.166483 
L 290.002657 333.815279 
L 291.429862 334.108136 
L 292.857066 333.804681 
L 294.28427 333.767078 
L 295.711475 334.260734 
L 298.565883 333.596425 
L 299.993088 333.655427 
L 301.420292 333.99486 
L 302.847497 333.616562 
L 304.274701 333.518145 
L 305.701905 333.757172 
L 307.12911 333.048449 
L 308.556314 332.833525 
L 311.410723 333.187476 
L 312.837927 333.894458 
L 314.265132 333.919093 
L 315.692336 333.532628 
L 317.11954 333.419137 
L 318.546745 332.921368 
L 319.973949 333.594318 
L 322.828358 333.857268 
L 324.255562 334.192213 
L 325.682767 334.291333 
L 327.109971 333.972908 
L 328.537175 334.029833 
L 329.96438 333.750381 
L 331.391584 333.282001 
L 332.818788 332.672065 
L 334.245993 333.295847 
L 335.673197 333.231285 
L 337.100402 333.312755 
L 338.527606 332.792656 
L 339.95481 332.91979 
L 341.382015 332.655073 
L 342.809219 332.708467 
L 347.090832 332.164999 
L 348.518037 331.73481 
L 349.945241 331.768214 
L 351.372445 332.195395 
L 352.79965 332.491486 
L 354.226854 333.486927 
L 355.654058 333.52843 
L 357.081263 334.016498 
L 358.508467 333.613909 
L 359.935672 332.887894 
L 361.362876 333.593187 
L 362.79008 333.490871 
L 365.644489 333.697639 
L 367.071693 333.926889 
L 368.498898 333.900917 
L 369.926102 333.326576 
L 371.353307 333.549854 
L 372.780511 333.476018 
L 374.207715 333.211749 
L 375.63492 333.560453 
L 377.062124 334.069185 
L 378.489328 332.823463 
L 379.916533 332.001308 
L 381.343737 332.686636 
L 382.770942 332.109479 
L 384.198146 332.914304 
L 385.62535 331.215313 
L 387.052555 331.261212 
L 388.479759 331.182471 
L 389.906963 331.461387 
L 391.334168 331.502461 
L 392.761372 330.693469 
L 394.188577 331.427662 
L 395.615781 331.228267 
L 397.042985 330.11004 
L 398.47019 330.781542 
L 399.897394 330.453979 
L 401.324598 330.974635 
L 402.751803 331.193057 
L 405.606212 330.896153 
L 407.033416 332.021295 
L 408.46062 331.767508 
L 409.887825 332.335479 
L 411.315029 332.53428 
L 412.742233 332.599726 
L 414.169438 333.152237 
L 415.596642 333.053843 
L 417.023847 332.780808 
L 418.451051 333.751893 
L 419.878255 333.755313 
L 421.30546 334.261555 
L 422.732664 334.134496 
L 425.587073 334.540769 
L 427.014277 334.14074 
L 428.441482 334.011061 
L 429.868686 334.516511 
L 431.29589 334.778944 
L 432.723095 335.529055 
L 434.150299 334.70022 
L 437.004708 334.40399 
L 438.431912 334.958455 
L 439.859117 334.422506 
L 441.286321 335.017238 
L 442.713525 334.001374 
L 444.14073 333.807923 
L 445.567934 332.259767 
L 446.995138 332.127151 
L 448.422343 332.894287 
L 449.849547 331.825896 
L 451.276752 331.580708 
L 452.703956 331.657005 
L 454.13116 331.969734 
L 455.558365 332.067728 
L 456.985569 331.796912 
L 458.412773 332.325616 
L 459.839978 331.742704 
L 461.267182 331.672581 
L 462.694387 331.304883 
L 464.121591 331.356845 
L 465.548795 332.136177 
L 466.976 332.660593 
L 468.403204 331.625601 
L 469.830408 331.099384 
L 472.684817 330.994409 
L 475.539226 332.007225 
L 478.393635 332.405928 
L 479.820839 331.944091 
L 481.248043 331.798514 
L 482.675248 332.644069 
L 484.102452 332.69932 
L 488.384065 333.253668 
L 489.81127 332.967616 
L 492.665678 332.797773 
L 494.092883 333.593863 
L 496.947292 334.223848 
L 498.374496 334.177477 
L 499.8017 333.766867 
L 501.228905 333.828528 
L 502.656109 333.579977 
L 505.510518 333.613788 
L 508.364927 333.368842 
L 509.792131 333.202121 
L 511.219335 333.488549 
L 512.64654 333.543093 
L 514.073744 333.240273 
L 516.928153 333.952328 
L 518.355357 333.197874 
L 519.782562 332.651177 
L 521.209766 332.828726 
L 524.064175 332.535997 
L 525.491379 332.109956 
L 526.918583 333.047839 
L 528.345788 333.035457 
L 529.772992 332.08221 
L 531.200197 332.333755 
L 532.627401 332.812528 
L 534.054605 332.649328 
L 535.48181 332.894356 
L 536.909014 334.044789 
L 538.336218 334.631548 
L 539.763423 334.282421 
L 542.617832 335.116802 
L 544.045036 335.331065 
L 545.47224 334.148791 
L 546.899445 334.533817 
L 548.326649 334.67052 
L 549.753853 333.602711 
L 551.181058 333.157929 
L 552.608262 332.916334 
L 554.035467 332.082785 
L 555.462671 332.696521 
L 556.889875 333.038099 
L 558.31708 333.679408 
L 561.171488 334.402163 
L 562.598693 333.922428 
L 564.025897 333.673128 
L 565.453102 334.132568 
L 566.880306 333.694768 
L 568.30751 333.408799 
L 569.734715 332.893532 
L 571.161919 331.614721 
L 572.589123 331.453904 
L 574.016328 331.752225 
L 575.443532 332.726985 
L 576.870737 332.001244 
L 578.297941 332.691458 
L 579.725145 333.046719 
L 581.15235 332.099754 
L 582.579554 332.658571 
L 584.006758 332.994365 
L 585.433963 332.75938 
L 586.861167 333.001679 
L 588.288371 332.753414 
L 589.715576 332.904083 
L 591.14278 333.543446 
L 592.569985 332.812277 
L 593.997189 332.309905 
L 595.424393 332.128298 
L 596.851598 331.520569 
L 598.278802 331.452333 
L 599.706006 331.752606 
L 601.133211 332.388216 
L 602.560415 332.355414 
L 603.98762 332.88457 
L 605.414824 332.794932 
L 606.842028 333.266648 
L 608.269233 334.200433 
L 609.696437 333.42296 
L 611.123641 333.669307 
L 612.550846 333.746143 
L 613.97805 334.337212 
L 615.405255 333.49649 
L 616.832459 333.14266 
L 618.259663 333.233441 
L 619.686868 333.805968 
L 625.395685 332.977769 
L 626.82289 331.964332 
L 628.250094 332.445489 
L 629.677298 333.398823 
L 636.81332 331.379115 
L 638.240525 331.350442 
L 641.094933 331.63702 
L 643.949342 332.72316 
L 645.376546 332.894917 
L 646.803751 333.57378 
L 648.230955 333.031447 
L 649.65816 332.828754 
L 651.085364 333.2302 
L 652.512568 333.365711 
L 653.939773 334.000041 
L 653.939773 334.000041 
" clip-path="url(#pcf19db81ec)" style="fill: none; stroke: #2ca02c; stroke-width: 1.2; stroke-linecap: square"/>
   </g>
   <g id="line2d_32">
    <path d="M 84.485227 141.472081 
L 85.912432 131.343626 
L 87.339636 126.233774 
L 88.76684 123.997846 
L 90.194045 116.783934 
L 91.621249 110.860815 
L 93.048454 104.027401 
L 94.475658 99.694778 
L 95.902862 94.22168 
L 97.330067 86.426826 
L 98.757271 82.004039 
L 100.184475 84.987008 
L 101.61168 81.99813 
L 103.038884 78.370209 
L 104.466089 73.731526 
L 105.893293 72.316023 
L 107.320497 67.771287 
L 108.747702 66.629647 
L 110.174906 62.102783 
L 111.60211 64.272106 
L 114.456519 56.508861 
L 115.883724 58.215909 
L 117.310928 61.221305 
L 118.738132 57.669015 
L 120.165337 55.239761 
L 121.592541 49.946942 
L 123.019745 50.005908 
L 124.44695 48.838145 
L 125.874154 50.407658 
L 127.301359 53.560835 
L 128.728563 54.958016 
L 130.155767 58.113691 
L 131.582972 54.380831 
L 133.010176 54.130136 
L 134.43738 51.65933 
L 135.864585 51.281627 
L 137.291789 61.589299 
L 138.718994 88.512446 
L 140.146198 112.658135 
L 143.000607 154.523501 
L 145.855015 188.834621 
L 147.28222 202.79081 
L 150.136629 227.171961 
L 152.991037 247.048392 
L 154.418242 256.003655 
L 155.845446 263.661645 
L 157.27265 270.601886 
L 158.699855 276.851567 
L 162.981468 291.771137 
L 164.408672 296.377757 
L 167.263081 302.041111 
L 171.544694 309.130226 
L 172.971898 309.795401 
L 174.399103 311.948146 
L 175.826307 314.349474 
L 177.253512 316.245754 
L 178.680716 317.447522 
L 180.10792 318.823908 
L 181.535125 319.869006 
L 182.962329 320.562677 
L 184.389533 322.550385 
L 185.816738 322.19692 
L 187.243942 322.525993 
L 188.671147 322.423695 
L 190.098351 323.764529 
L 191.525555 324.776399 
L 192.95276 326.334121 
L 194.379964 326.666241 
L 195.807168 326.684167 
L 197.234373 327.647093 
L 198.661577 327.227192 
L 200.088782 327.260981 
L 201.515986 328.211213 
L 202.94319 327.608643 
L 204.370395 328.482573 
L 205.797599 328.815164 
L 207.224803 328.916571 
L 208.652008 329.916301 
L 210.079212 329.577388 
L 211.506417 329.752568 
L 212.933621 329.129172 
L 215.78803 330.317687 
L 218.642438 330.25221 
L 220.069643 330.898945 
L 221.496847 331.279814 
L 222.924052 331.400383 
L 224.351256 331.070774 
L 225.77846 331.274949 
L 227.205665 331.74563 
L 228.632869 333.438574 
L 230.060073 331.186301 
L 231.487278 331.302549 
L 232.914482 331.874949 
L 234.341687 330.986246 
L 235.768891 330.818309 
L 237.196095 331.06033 
L 240.050504 330.91547 
L 241.477708 331.853321 
L 242.904913 331.553884 
L 244.332117 330.990869 
L 245.759322 329.663517 
L 247.186526 328.953227 
L 248.61373 327.697435 
L 250.040935 327.269679 
L 251.468139 328.080488 
L 252.895343 329.058404 
L 254.322548 328.745083 
L 255.749752 329.770557 
L 257.176957 329.072613 
L 258.604161 328.516526 
L 260.031365 327.63153 
L 261.45857 327.601215 
L 262.885774 328.093936 
L 264.312978 327.181019 
L 267.167387 328.282398 
L 268.594592 328.461402 
L 270.021796 329.122649 
L 271.449 329.986392 
L 272.876205 328.698457 
L 274.303409 328.689968 
L 275.730613 329.296617 
L 280.012227 329.889109 
L 281.439431 330.71484 
L 282.866635 331.250879 
L 284.29384 330.768336 
L 285.721044 329.260224 
L 287.148248 328.545726 
L 288.575453 328.67804 
L 290.002657 327.800035 
L 292.857066 328.548361 
L 294.28427 329.116898 
L 295.711475 330.104623 
L 297.138679 329.427913 
L 299.993088 330.294621 
L 301.420292 331.158187 
L 304.274701 332.659245 
L 305.701905 332.481694 
L 307.12911 331.746875 
L 308.556314 331.354869 
L 309.983518 330.469719 
L 311.410723 329.994458 
L 312.837927 330.388195 
L 314.265132 330.440098 
L 315.692336 330.745443 
L 317.11954 332.723001 
L 318.546745 332.742461 
L 319.973949 332.083837 
L 321.401153 331.87499 
L 322.828358 331.40954 
L 324.255562 329.609412 
L 325.682767 329.405097 
L 327.109971 328.686782 
L 331.391584 329.724695 
L 332.818788 328.997633 
L 334.245993 328.95206 
L 335.673197 328.678208 
L 337.100402 328.261976 
L 338.527606 329.031566 
L 341.382015 328.057839 
L 342.809219 327.42992 
L 344.236423 328.192567 
L 345.663628 328.256474 
L 347.090832 329.55485 
L 348.518037 329.773892 
L 351.372445 331.067176 
L 352.79965 331.419029 
L 354.226854 332.315279 
L 355.654058 332.579334 
L 357.081263 331.30265 
L 358.508467 331.678249 
L 359.935672 332.630438 
L 361.362876 331.798224 
L 364.217285 330.899543 
L 365.644489 332.20221 
L 367.071693 332.554862 
L 369.926102 331.671226 
L 371.353307 332.160719 
L 372.780511 332.885314 
L 374.207715 331.715704 
L 375.63492 330.876542 
L 377.062124 331.323424 
L 381.343737 333.596435 
L 382.770942 333.77314 
L 384.198146 332.058043 
L 385.62535 332.062728 
L 387.052555 331.150145 
L 388.479759 331.254266 
L 389.906963 331.781025 
L 391.334168 331.938972 
L 392.761372 331.670296 
L 394.188577 331.795956 
L 395.615781 330.87695 
L 397.042985 331.149782 
L 398.47019 330.389857 
L 399.897394 330.584209 
L 401.324598 329.457056 
L 402.751803 329.967226 
L 404.179007 330.97274 
L 405.606212 330.547577 
L 407.033416 329.254752 
L 408.46062 328.826778 
L 409.887825 328.515207 
L 411.315029 329.208052 
L 412.742233 329.284837 
L 414.169438 328.803828 
L 415.596642 329.252863 
L 417.023847 326.840153 
L 418.451051 326.87776 
L 419.878255 327.688247 
L 421.30546 328.925434 
L 422.732664 326.947362 
L 424.159868 326.104748 
L 428.441482 327.942811 
L 429.868686 328.21815 
L 431.29589 327.960687 
L 434.150299 330.145478 
L 435.577503 330.368336 
L 437.004708 330.902307 
L 438.431912 330.858931 
L 439.859117 331.098861 
L 441.286321 330.792351 
L 442.713525 329.203989 
L 444.14073 328.695078 
L 445.567934 329.013823 
L 446.995138 329.568528 
L 448.422343 330.583599 
L 449.849547 330.931402 
L 451.276752 331.464451 
L 452.703956 330.831829 
L 455.558365 330.911195 
L 456.985569 330.765304 
L 458.412773 330.03323 
L 459.839978 328.979302 
L 461.267182 328.841229 
L 462.694387 329.233904 
L 464.121591 330.823817 
L 465.548795 331.377839 
L 466.976 332.701066 
L 468.403204 331.668496 
L 469.830408 331.386261 
L 471.257613 332.241397 
L 474.112022 331.435122 
L 475.539226 331.699462 
L 476.96643 331.361942 
L 478.393635 331.175401 
L 479.820839 331.978993 
L 481.248043 331.620413 
L 482.675248 331.694722 
L 484.102452 331.333921 
L 485.529657 331.487207 
L 486.956861 331.4695 
L 488.384065 331.071056 
L 489.81127 330.001589 
L 491.238474 330.112211 
L 492.665678 329.679515 
L 494.092883 328.854879 
L 495.520087 328.784034 
L 496.947292 329.542732 
L 498.374496 328.940762 
L 499.8017 326.433063 
L 501.228905 327.351179 
L 505.510518 327.770574 
L 506.937722 328.955165 
L 508.364927 329.054178 
L 509.792131 330.054122 
L 511.219335 330.182113 
L 514.073744 331.445656 
L 515.500948 332.392131 
L 516.928153 333.478281 
L 518.355357 332.681102 
L 519.782562 333.256929 
L 521.209766 333.610162 
L 522.63697 334.157861 
L 524.064175 333.965536 
L 525.491379 334.875549 
L 526.918583 334.672588 
L 528.345788 333.980927 
L 531.200197 333.354605 
L 532.627401 332.719726 
L 534.054605 332.786359 
L 535.48181 331.466888 
L 538.336218 332.430392 
L 539.763423 331.707015 
L 541.190627 332.30644 
L 542.617832 333.309329 
L 545.47224 334.279595 
L 546.899445 334.334728 
L 548.326649 333.057864 
L 549.753853 332.889364 
L 551.181058 331.017973 
L 552.608262 331.522064 
L 554.035467 330.673356 
L 555.462671 330.097075 
L 556.889875 330.800179 
L 559.744284 330.806161 
L 561.171488 331.014915 
L 562.598693 331.000567 
L 564.025897 331.252333 
L 565.453102 331.236107 
L 568.30751 329.781501 
L 569.734715 328.354398 
L 572.589123 329.87877 
L 574.016328 329.15291 
L 575.443532 329.38764 
L 576.870737 329.959305 
L 578.297941 330.776085 
L 581.15235 330.047387 
L 582.579554 330.229838 
L 584.006758 330.786926 
L 585.433963 330.887734 
L 586.861167 330.785675 
L 588.288371 329.884254 
L 589.715576 329.654174 
L 591.14278 330.310335 
L 592.569985 331.269559 
L 593.997189 331.688595 
L 595.424393 331.62089 
L 596.851598 331.879019 
L 598.278802 331.791174 
L 599.706006 332.262429 
L 602.560415 330.779384 
L 603.98762 330.992074 
L 605.414824 330.584617 
L 606.842028 331.890937 
L 608.269233 330.722971 
L 609.696437 331.192554 
L 611.123641 330.537365 
L 612.550846 330.45345 
L 615.405255 330.669935 
L 616.832459 330.354325 
L 618.259663 329.09888 
L 619.686868 329.189203 
L 621.114072 329.586463 
L 622.541276 329.348975 
L 623.968481 329.834231 
L 625.395685 329.895018 
L 626.82289 329.093811 
L 628.250094 328.950433 
L 629.677298 328.642844 
L 631.104503 328.607537 
L 632.531707 328.161223 
L 635.386116 328.837325 
L 636.81332 330.237755 
L 638.240525 329.793338 
L 639.667729 331.202149 
L 641.094933 331.553927 
L 642.522138 330.545485 
L 643.949342 330.201668 
L 646.803751 331.391188 
L 648.230955 331.331272 
L 649.65816 331.947323 
L 651.085364 331.630493 
L 652.512568 330.566198 
L 653.939773 330.723886 
L 653.939773 330.723886 
" clip-path="url(#pcf19db81ec)" style="fill: none; stroke: #d62728; stroke-width: 1.2; stroke-linecap: square"/>
   </g>
   <g id="line2d_33">
    <path d="M 84.485227 113.489666 
L 85.912432 110.431142 
L 88.76684 113.528269 
L 93.048454 152.656806 
L 94.475658 166.622395 
L 100.184475 215.624542 
L 103.038884 236.199968 
L 104.466089 245.439054 
L 107.320497 261.057095 
L 108.747702 268.486653 
L 110.174906 275.08248 
L 111.60211 281.076126 
L 113.029315 285.805563 
L 114.456519 289.334857 
L 115.883724 293.501196 
L 118.738132 300.302062 
L 120.165337 302.627247 
L 121.592541 306.217431 
L 124.44695 311.667565 
L 125.874154 313.650347 
L 130.155767 318.815777 
L 131.582972 318.865001 
L 133.010176 320.571929 
L 134.43738 320.978305 
L 135.864585 320.512277 
L 137.291789 321.199673 
L 138.718994 322.124321 
L 140.146198 323.932206 
L 141.573402 322.470393 
L 143.000607 323.485804 
L 145.855015 322.745914 
L 147.28222 323.333569 
L 148.709424 324.57516 
L 150.136629 325.397541 
L 151.563833 324.731081 
L 152.991037 325.543126 
L 154.418242 326.030891 
L 155.845446 327.071628 
L 157.27265 326.833016 
L 158.699855 326.710413 
L 160.127059 326.785105 
L 161.554263 327.489193 
L 162.981468 328.566404 
L 164.408672 328.669998 
L 165.835877 327.782973 
L 167.263081 328.410264 
L 168.690285 326.761281 
L 170.11749 327.655058 
L 171.544694 327.861483 
L 172.971898 328.199111 
L 174.399103 327.240983 
L 175.826307 328.441055 
L 178.680716 330.368612 
L 180.10792 329.784697 
L 182.962329 329.153805 
L 184.389533 329.600793 
L 185.816738 330.300985 
L 187.243942 329.553389 
L 188.671147 329.723855 
L 190.098351 328.367053 
L 192.95276 328.411555 
L 194.379964 329.551404 
L 195.807168 329.143936 
L 197.234373 329.984547 
L 198.661577 330.280763 
L 200.088782 330.72163 
L 201.515986 331.706444 
L 202.94319 330.553259 
L 204.370395 329.785528 
L 205.797599 329.77746 
L 207.224803 330.096654 
L 208.652008 330.670076 
L 210.079212 331.398457 
L 211.506417 332.406918 
L 212.933621 331.69571 
L 214.360825 331.459246 
L 215.78803 331.573633 
L 217.215234 332.201364 
L 218.642438 332.691266 
L 220.069643 332.593278 
L 221.496847 332.168511 
L 222.924052 332.796876 
L 225.77846 331.976989 
L 227.205665 331.81536 
L 228.632869 332.551778 
L 230.060073 332.466724 
L 231.487278 333.287567 
L 232.914482 333.711949 
L 234.341687 332.936577 
L 235.768891 332.961866 
L 237.196095 333.464527 
L 238.6233 332.754776 
L 240.050504 333.392882 
L 241.477708 333.109668 
L 242.904913 332.34424 
L 244.332117 332.849651 
L 247.186526 332.31714 
L 248.61373 331.681189 
L 250.040935 331.396592 
L 251.468139 332.052348 
L 252.895343 332.333864 
L 254.322548 331.609388 
L 255.749752 332.2316 
L 258.604161 331.21533 
L 260.031365 332.703958 
L 261.45857 331.169948 
L 262.885774 331.764869 
L 264.312978 331.677179 
L 267.167387 331.118478 
L 268.594592 330.634472 
L 270.021796 329.966471 
L 271.449 330.800826 
L 272.876205 331.945183 
L 274.303409 331.760115 
L 275.730613 332.342213 
L 277.157818 332.463005 
L 278.585022 332.393504 
L 280.012227 333.056243 
L 281.439431 333.522486 
L 282.866635 332.523566 
L 284.29384 332.099289 
L 285.721044 333.100747 
L 287.148248 330.652905 
L 288.575453 331.271036 
L 290.002657 331.514006 
L 292.857066 331.060837 
L 294.28427 331.496292 
L 295.711475 331.183904 
L 298.565883 331.844501 
L 299.993088 331.188347 
L 301.420292 331.764195 
L 302.847497 330.488539 
L 304.274701 330.402587 
L 305.701905 331.181157 
L 307.12911 330.648606 
L 308.556314 331.686224 
L 311.410723 330.695556 
L 312.837927 330.752801 
L 314.265132 331.215692 
L 315.692336 331.11265 
L 318.546745 332.88254 
L 319.973949 331.693932 
L 321.401153 329.895751 
L 322.828358 330.524094 
L 324.255562 330.800424 
L 325.682767 329.320796 
L 328.537175 330.389099 
L 329.96438 330.67885 
L 331.391584 331.642686 
L 332.818788 331.474538 
L 334.245993 331.883589 
L 335.673197 331.486246 
L 337.100402 332.217965 
L 338.527606 331.758628 
L 341.382015 333.865687 
L 342.809219 333.30318 
L 344.236423 333.217787 
L 347.090832 332.670289 
L 348.518037 332.912981 
L 349.945241 332.056001 
L 351.372445 332.897636 
L 354.226854 332.779112 
L 355.654058 332.919234 
L 358.508467 332.054973 
L 359.935672 332.253736 
L 361.362876 331.962728 
L 362.79008 332.015848 
L 364.217285 331.593644 
L 365.644489 331.585185 
L 367.071693 331.376359 
L 368.498898 328.843129 
L 369.926102 328.264869 
L 371.353307 327.897428 
L 372.780511 328.429718 
L 374.207715 328.577465 
L 375.63492 328.565952 
L 377.062124 327.917638 
L 378.489328 326.88526 
L 379.916533 327.293416 
L 381.343737 328.758447 
L 382.770942 328.825552 
L 384.198146 328.707326 
L 387.052555 330.445187 
L 388.479759 330.965831 
L 389.906963 331.650516 
L 391.334168 331.668835 
L 392.761372 332.396662 
L 394.188577 332.636955 
L 398.47019 332.174224 
L 399.897394 331.584179 
L 404.179007 332.93909 
L 405.606212 332.974346 
L 407.033416 332.189235 
L 408.46062 331.790733 
L 411.315029 330.531026 
L 412.742233 330.185086 
L 414.169438 330.411117 
L 415.596642 330.18681 
L 417.023847 330.505163 
L 418.451051 330.284377 
L 419.878255 330.702428 
L 421.30546 331.636948 
L 422.732664 331.926848 
L 424.159868 331.303183 
L 425.587073 332.044979 
L 427.014277 331.576869 
L 429.868686 330.034464 
L 431.29589 330.698447 
L 432.723095 330.917822 
L 434.150299 331.513676 
L 435.577503 330.880132 
L 437.004708 331.166231 
L 438.431912 332.189377 
L 439.859117 332.90543 
L 441.286321 332.334548 
L 442.713525 330.915476 
L 444.14073 329.265796 
L 445.567934 329.65401 
L 446.995138 329.748623 
L 448.422343 329.415618 
L 449.849547 330.131956 
L 452.703956 330.851973 
L 454.13116 330.945159 
L 455.558365 331.570572 
L 456.985569 332.774312 
L 458.412773 332.768856 
L 459.839978 333.108455 
L 462.694387 334.897309 
L 464.121591 335.176898 
L 465.548795 333.611264 
L 466.976 333.663158 
L 468.403204 333.522574 
L 469.830408 333.624629 
L 471.257613 333.283142 
L 472.684817 333.139165 
L 474.112022 334.031224 
L 476.96643 333.161203 
L 478.393635 333.252075 
L 481.248043 333.958715 
L 482.675248 334.118951 
L 484.102452 332.530502 
L 485.529657 332.721105 
L 486.956861 332.779468 
L 488.384065 332.407689 
L 489.81127 332.451517 
L 491.238474 332.762626 
L 492.665678 332.190943 
L 494.092883 331.964312 
L 495.520087 332.898951 
L 496.947292 333.441211 
L 498.374496 333.780152 
L 499.8017 333.569239 
L 501.228905 332.373924 
L 502.656109 331.941371 
L 504.083313 331.884792 
L 505.510518 331.632469 
L 506.937722 331.101771 
L 508.364927 330.181201 
L 509.792131 329.934868 
L 511.219335 330.424824 
L 512.64654 330.333074 
L 514.073744 328.692948 
L 515.500948 327.873275 
L 516.928153 328.567148 
L 518.355357 328.745796 
L 519.782562 328.59497 
L 521.209766 329.054167 
L 522.63697 329.875667 
L 524.064175 329.13327 
L 525.491379 329.285929 
L 526.918583 329.84625 
L 528.345788 328.744624 
L 529.772992 329.350119 
L 531.200197 330.350464 
L 532.627401 329.845832 
L 534.054605 330.337607 
L 535.48181 329.918746 
L 536.909014 330.629291 
L 539.763423 331.605211 
L 541.190627 330.263155 
L 542.617832 331.421521 
L 544.045036 331.884818 
L 545.47224 330.345911 
L 546.899445 330.657166 
L 548.326649 331.269339 
L 549.753853 331.739255 
L 551.181058 332.039632 
L 552.608262 332.619351 
L 555.462671 331.522031 
L 556.889875 332.153126 
L 558.31708 330.729482 
L 559.744284 330.448684 
L 561.171488 331.340744 
L 562.598693 331.69638 
L 565.453102 331.233337 
L 566.880306 332.13563 
L 568.30751 332.527257 
L 569.734715 332.45406 
L 571.161919 331.10823 
L 572.589123 331.78677 
L 574.016328 332.728828 
L 575.443532 331.657077 
L 576.870737 330.092259 
L 578.297941 329.636014 
L 579.725145 329.306074 
L 581.15235 330.405058 
L 582.579554 330.992904 
L 585.433963 330.709331 
L 586.861167 331.277399 
L 588.288371 331.510572 
L 589.715576 330.104372 
L 592.569985 329.931163 
L 593.997189 331.362609 
L 595.424393 331.990814 
L 596.851598 329.944593 
L 598.278802 331.532379 
L 599.706006 331.424827 
L 601.133211 331.890749 
L 602.560415 332.476529 
L 603.98762 331.788885 
L 605.414824 331.516869 
L 606.842028 331.832124 
L 609.696437 331.367599 
L 611.123641 330.017555 
L 612.550846 330.541291 
L 613.97805 330.621373 
L 615.405255 332.395089 
L 616.832459 333.091984 
L 618.259663 331.823606 
L 621.114072 331.090641 
L 622.541276 331.639758 
L 623.968481 332.529294 
L 625.395685 331.830106 
L 626.82289 332.744868 
L 628.250094 333.334787 
L 629.677298 333.399267 
L 631.104503 333.64802 
L 632.531707 333.439595 
L 633.958911 333.067461 
L 635.386116 332.067554 
L 636.81332 332.435707 
L 638.240525 330.919293 
L 641.094933 333.00164 
L 642.522138 332.488189 
L 645.376546 333.792692 
L 646.803751 334.099701 
L 649.65816 333.469084 
L 651.085364 333.784877 
L 652.512568 333.495745 
L 652.512568 333.495745 
" clip-path="url(#pcf19db81ec)" style="fill: none; stroke: #9b8ac9; stroke-width: 1.2; stroke-linecap: square"/>
   </g>
   <g id="patch_3">
    <path d="M 56.0125 349.8636 
L 56.0125 34.5036 
" style="fill: none; stroke: #000000; stroke-width: 0.8; stroke-linejoin: miter; stroke-linecap: square"/>
   </g>
   <g id="patch_4">
    <path d="M 682.4125 349.8636 
L 682.4125 34.5036 
" style="fill: none; stroke: #000000; stroke-width: 0.8; stroke-linejoin: miter; stroke-linecap: square"/>
   </g>
   <g id="patch_5">
    <path d="M 56.0125 349.8636 
L 682.4125 349.8636 
" style="fill: none; stroke: #000000; stroke-width: 0.8; stroke-linejoin: miter; stroke-linecap: square"/>
   </g>
   <g id="patch_6">
    <path d="M 56.0125 34.5036 
L 682.4125 34.5036 
" style="fill: none; stroke: #000000; stroke-width: 0.8; stroke-linejoin: miter; stroke-linecap: square"/>
   </g>
   <g id="legend_1">
    <g id="patch_7">
     <path d="M 56.0125 31.35 
L 682.4125 31.35 
L 682.4125 7.2 
L 56.0125 7.2 
z
" style="fill: #ffffff; stroke: #808080; stroke-width: 0.8; stroke-linejoin: miter"/>
    </g>
    <g id="line2d_34">
     <path d="M 62.3125 18.4 
L 76.3125 18.4 
L 90.3125 18.4 
" style="fill: none; stroke: #1f77b4; stroke-width: 1.2; stroke-linecap: square"/>
    </g>
    <g id="text_17">
     <!-- DDPG -->
     <g transform="translate(98.7125 23.3) scale(0.14 -0.14)">
      <defs>
       <path id="SimHei-44" d="M 2925 2250 
Q 2925 1100 2437 612 
Q 1950 125 1125 125 
L 275 125 
L 275 4400 
L 1125 4400 
Q 2050 4400 2487 3900 
Q 2925 3400 2925 2250 
z
M 2325 2250 
Q 2325 3175 2025 3550 
Q 1725 3925 1125 3925 
L 850 3925 
L 850 600 
L 1125 600 
Q 1725 600 2025 962 
Q 2325 1325 2325 2250 
z
" transform="scale(0.015625)"/>
       <path id="SimHei-50" d="M 2950 3100 
Q 2950 2500 2600 2150 
Q 2250 1800 1625 1800 
L 900 1800 
L 900 125 
L 325 125 
L 325 4400 
L 1625 4400 
Q 2250 4400 2600 4050 
Q 2950 3700 2950 3100 
z
M 2375 3100 
Q 2375 3575 2150 3750 
Q 1925 3925 1475 3925 
L 900 3925 
L 900 2275 
L 1475 2275 
Q 1925 2275 2150 2450 
Q 2375 2625 2375 3100 
z
" transform="scale(0.015625)"/>
       <path id="SimHei-47" d="M 2850 75 
L 2425 75 
L 2350 425 
Q 2250 275 2037 175 
Q 1825 75 1575 75 
Q 1050 75 637 562 
Q 225 1050 225 2125 
Q 225 3300 600 3875 
Q 975 4450 1625 4450 
Q 2200 4450 2525 4025 
Q 2850 3600 2850 2925 
L 2300 2925 
Q 2300 3450 2125 3712 
Q 1950 3975 1625 3975 
Q 1225 3975 1025 3562 
Q 825 3150 825 2175 
Q 825 1250 1075 900 
Q 1325 550 1650 550 
Q 1975 550 2162 787 
Q 2350 1025 2350 1525 
L 2350 1800 
L 1575 1800 
L 1575 2275 
L 2850 2275 
L 2850 75 
z
" transform="scale(0.015625)"/>
      </defs>
      <use xlink:href="#SimHei-44"/>
      <use xlink:href="#SimHei-44" transform="translate(50 0)"/>
      <use xlink:href="#SimHei-50" transform="translate(100 0)"/>
      <use xlink:href="#SimHei-47" transform="translate(150 0)"/>
     </g>
    </g>
    <g id="line2d_35">
     <path d="M 192.6625 18.4 
L 206.6625 18.4 
L 220.6625 18.4 
" style="fill: none; stroke: #ff7f0e; stroke-width: 1.2; stroke-linecap: square"/>
    </g>
    <g id="text_18">
     <!-- PPO -->
     <g transform="translate(229.0625 23.3) scale(0.14 -0.14)">
      <defs>
       <path id="SimHei-4f" d="M 2950 2275 
Q 2950 1100 2587 587 
Q 2225 75 1575 75 
Q 925 75 550 587 
Q 175 1100 175 2275 
Q 175 3450 550 3950 
Q 925 4450 1575 4450 
Q 2225 4450 2587 3950 
Q 2950 3450 2950 2275 
z
M 2350 2275 
Q 2350 3325 2125 3650 
Q 1900 3975 1575 3975 
Q 1250 3975 1012 3650 
Q 775 3325 775 2275 
Q 775 1225 1012 887 
Q 1250 550 1575 550 
Q 1900 550 2125 887 
Q 2350 1225 2350 2275 
z
" transform="scale(0.015625)"/>
      </defs>
      <use xlink:href="#SimHei-50"/>
      <use xlink:href="#SimHei-50" transform="translate(50 0)"/>
      <use xlink:href="#SimHei-4f" transform="translate(100 0)"/>
     </g>
    </g>
    <g id="line2d_36">
     <path d="M 316.0125 18.4 
L 330.0125 18.4 
L 344.0125 18.4 
" style="fill: none; stroke: #2ca02c; stroke-width: 1.2; stroke-linecap: square"/>
    </g>
    <g id="text_19">
     <!-- TD3 -->
     <g transform="translate(352.4125 23.3) scale(0.14 -0.14)">
      <use xlink:href="#SimHei-54"/>
      <use xlink:href="#SimHei-44" transform="translate(50 0)"/>
      <use xlink:href="#SimHei-33" transform="translate(100 0)"/>
     </g>
    </g>
    <g id="line2d_37">
     <path d="M 439.3625 18.4 
L 453.3625 18.4 
L 467.3625 18.4 
" style="fill: none; stroke: #d62728; stroke-width: 1.2; stroke-linecap: square"/>
    </g>
    <g id="text_20">
     <!-- GCN-DDQN -->
     <g transform="translate(475.7625 23.3) scale(0.14 -0.14)">
      <defs>
       <path id="SimHei-43" d="M 2975 1825 
Q 2950 875 2575 475 
Q 2200 75 1675 75 
Q 1075 75 650 562 
Q 225 1050 225 2125 
Q 225 3300 637 3875 
Q 1050 4450 1700 4450 
Q 2250 4450 2612 4037 
Q 2975 3625 2950 2875 
L 2400 2875 
Q 2400 3425 2225 3700 
Q 2050 3975 1700 3975 
Q 1300 3975 1062 3562 
Q 825 3150 825 2175 
Q 825 1275 1062 912 
Q 1300 550 1675 550 
Q 1950 550 2175 812 
Q 2400 1075 2400 1825 
L 2975 1825 
z
" transform="scale(0.015625)"/>
       <path id="SimHei-4e" d="M 2850 125 
L 2225 125 
L 850 3225 
L 825 3225 
L 825 125 
L 250 125 
L 250 4400 
L 875 4400 
L 2250 1300 
L 2275 1300 
L 2275 4400 
L 2850 4400 
L 2850 125 
z
" transform="scale(0.015625)"/>
       <path id="SimHei-2d" d="M 2975 2125 
L 125 2125 
L 125 2525 
L 2975 2525 
L 2975 2125 
z
" transform="scale(0.015625)"/>
       <path id="SimHei-51" d="M 2950 2275 
Q 2950 1675 2862 1262 
Q 2775 850 2575 600 
L 2775 225 
L 2375 -200 
L 2150 225 
Q 2050 150 1900 112 
Q 1750 75 1575 75 
Q 925 75 550 587 
Q 175 1100 175 2275 
Q 175 3450 550 3950 
Q 925 4450 1575 4450 
Q 2225 4450 2587 3950 
Q 2950 3450 2950 2275 
z
M 2350 2275 
Q 2350 3325 2125 3650 
Q 1900 3975 1575 3975 
Q 1250 3975 1012 3650 
Q 775 3325 775 2275 
Q 775 1225 1012 887 
Q 1250 550 1575 550 
Q 1700 550 1800 587 
Q 1900 625 1950 675 
L 1550 1450 
L 1900 1875 
L 2250 1200 
Q 2300 1450 2325 1650 
Q 2350 1850 2350 2275 
z
" transform="scale(0.015625)"/>
      </defs>
      <use xlink:href="#SimHei-47"/>
      <use xlink:href="#SimHei-43" transform="translate(50 0)"/>
      <use xlink:href="#SimHei-4e" transform="translate(100 0)"/>
      <use xlink:href="#SimHei-2d" transform="translate(150 0)"/>
      <use xlink:href="#SimHei-44" transform="translate(200 0)"/>
      <use xlink:href="#SimHei-44" transform="translate(250 0)"/>
      <use xlink:href="#SimHei-51" transform="translate(300 0)"/>
      <use xlink:href="#SimHei-4e" transform="translate(350 0)"/>
     </g>
    </g>
    <g id="line2d_38">
     <path d="M 597.7125 18.4 
L 611.7125 18.4 
L 625.7125 18.4 
" style="fill: none; stroke: #9b8ac9; stroke-width: 1.2; stroke-linecap: square"/>
    </g>
    <g id="text_21">
     <!-- GLDVTO -->
     <g transform="translate(634.1125 23.3) scale(0.14 -0.14)">
      <defs>
       <path id="SimHei-56" d="M 3050 4400 
L 1800 75 
L 1300 75 
L 50 4400 
L 650 4400 
L 1525 1125 
L 1575 1125 
L 2450 4400 
L 3050 4400 
z
" transform="scale(0.015625)"/>
      </defs>
      <use xlink:href="#SimHei-47"/>
      <use xlink:href="#SimHei-4c" transform="translate(50 0)"/>
      <use xlink:href="#SimHei-44" transform="translate(100 0)"/>
      <use xlink:href="#SimHei-56" transform="translate(150 0)"/>
      <use xlink:href="#SimHei-54" transform="translate(200 0)"/>
      <use xlink:href="#SimHei-4f" transform="translate(250 0)"/>
     </g>
    </g>
   </g>
  </g>
 </g>
 <defs>
  <clipPath id="pcf19db81ec">
   <rect x="56.0125" y="34.5036" width="626.4" height="315.36"/>
  </clipPath>
 </defs>
</svg>
