<?xml version="1.0" encoding="utf-8" standalone="no"?>
<!DOCTYPE svg PUBLIC "-//W3C//DTD SVG 1.1//EN"
  "http://www.w3.org/Graphics/SVG/1.1/DTD/svg11.dtd">
<svg xmlns:xlink="http://www.w3.org/1999/xlink" width="683.6125pt" height="391.6261pt" viewBox="0 0 683.6125 391.6261" xmlns="http://www.w3.org/2000/svg" version="1.1">
 <metadata>
  <rdf:RDF xmlns:dc="http://purl.org/dc/elements/1.1/" xmlns:cc="http://creativecommons.org/ns#" xmlns:rdf="http://www.w3.org/1999/02/22-rdf-syntax-ns#">
   <cc:Work>
    <dc:type rdf:resource="http://purl.org/dc/dcmitype/StillImage"/>
    <dc:date>2026-07-09T22:50:08.781325</dc:date>
    <dc:format>image/svg+xml</dc:format>
    <dc:creator>
     <cc:Agent>
      <dc:title>Matplotlib v3.10.7, https://matplotlib.org/</dc:title>
     </cc:Agent>
    </dc:creator>
   </cc:Work>
  </rdf:RDF>
 </metadata>
 <defs>
  <style type="text/css">*{stroke-linejoin: round; stroke-linecap: butt}</style>
 </defs>
 <g id="figure_1">
  <g id="patch_1">
   <path d="M 0 391.6261 
L 683.6125 391.6261 
L 683.6125 0 
L 0 0 
z
" style="fill: #ffffff"/>
  </g>
  <g id="axes_1">
   <g id="patch_2">
    <path d="M 50.0125 349.8636 
L 676.4125 349.8636 
L 676.4125 34.5036 
L 50.0125 34.5036 
z
" style="fill: #ffffff"/>
   </g>
   <g id="matplotlib.axis_1">
    <g id="xtick_1">
     <g id="line2d_1">
      <path d="M 78.485227 349.8636 
L 78.485227 34.5036 
" clip-path="url(#p7a5b92ea1f)" style="fill: none; stroke-dasharray: 2.22,0.96; stroke-dashoffset: 0; stroke: #b0b0b0; stroke-opacity: 0.25; stroke-width: 0.6"/>
     </g>
     <g id="line2d_2">
      <defs>
       <path id="m923f34b562" d="M 0 0 
L 0 3.5 
" style="stroke: #000000; stroke-width: 0.8"/>
      </defs>
      <g>
       <use xlink:href="#m923f34b562" x="78.485227" y="349.8636" style="stroke: #000000; stroke-width: 0.8"/>
      </g>
     </g>
     <g id="text_1">
      <!-- 0 -->
      <g transform="translate(75.485227 365.1136) scale(0.12 -0.12)">
       <defs>
        <path id="SimHei-30" d="M 225 2537 
Q 250 3200 412 3587 
Q 575 3975 875 4225 
Q 1175 4475 1612 4475 
Q 2050 4475 2375 4112 
Q 2700 3750 2800 3200 
Q 2900 2650 2862 1937 
Q 2825 1225 2612 775 
Q 2400 325 1975 150 
Q 1550 -25 1125 187 
Q 700 400 525 750 
Q 350 1100 275 1487 
Q 200 1875 225 2537 
z
M 750 2687 
Q 675 2000 800 1462 
Q 925 925 1212 700 
Q 1500 475 1800 612 
Q 2100 750 2237 1162 
Q 2375 1575 2375 2062 
Q 2375 2550 2337 2950 
Q 2300 3350 2112 3675 
Q 1925 4000 1612 4012 
Q 1300 4025 1062 3700 
Q 825 3375 750 2687 
z
" transform="scale(0.015625)"/>
       </defs>
       <use xlink:href="#SimHei-30"/>
      </g>
     </g>
    </g>
    <g id="xtick_2">
     <g id="line2d_3">
      <path d="M 149.845446 349.8636 
L 149.845446 34.5036 
" clip-path="url(#p7a5b92ea1f)" style="fill: none; stroke-dasharray: 2.22,0.96; stroke-dashoffset: 0; stroke: #b0b0b0; stroke-opacity: 0.25; stroke-width: 0.6"/>
     </g>
     <g id="line2d_4">
      <g>
       <use xlink:href="#m923f34b562" x="149.845446" y="349.8636" style="stroke: #000000; stroke-width: 0.8"/>
      </g>
     </g>
     <g id="text_2">
      <!-- 50 -->
      <g transform="translate(143.845446 365.1136) scale(0.12 -0.12)">
       <defs>
        <path id="SimHei-35" d="M 550 1325 
Q 725 650 1150 575 
Q 1575 500 1837 662 
Q 2100 825 2212 1087 
Q 2325 1350 2312 1675 
Q 2300 2000 2137 2225 
Q 1975 2450 1725 2525 
Q 1475 2600 1162 2525 
Q 850 2450 650 2175 
L 225 2225 
Q 275 2375 700 4375 
L 2675 4375 
L 2675 3925 
L 1075 3925 
Q 950 3250 825 2850 
Q 1200 3025 1525 3012 
Q 1850 3000 2150 2862 
Q 2450 2725 2587 2487 
Q 2725 2250 2787 2012 
Q 2850 1775 2837 1500 
Q 2825 1225 2725 937 
Q 2625 650 2425 462 
Q 2225 275 1937 162 
Q 1650 50 1275 75 
Q 900 100 562 350 
Q 225 600 100 1200 
L 550 1325 
z
" transform="scale(0.015625)"/>
       </defs>
       <use xlink:href="#SimHei-35"/>
       <use xlink:href="#SimHei-30" transform="translate(50 0)"/>
      </g>
     </g>
    </g>
    <g id="xtick_3">
     <g id="line2d_5">
      <path d="M 221.205665 349.8636 
L 221.205665 34.5036 
" clip-path="url(#p7a5b92ea1f)" style="fill: none; stroke-dasharray: 2.22,0.96; stroke-dashoffset: 0; stroke: #b0b0b0; stroke-opacity: 0.25; stroke-width: 0.6"/>
     </g>
     <g id="line2d_6">
      <g>
       <use xlink:href="#m923f34b562" x="221.205665" y="349.8636" style="stroke: #000000; stroke-width: 0.8"/>
      </g>
     </g>
     <g id="text_3">
      <!-- 100 -->
      <g transform="translate(212.205665 365.1136) scale(0.12 -0.12)">
       <defs>
        <path id="SimHei-31" d="M 1400 3600 
Q 1075 3275 575 2975 
L 575 3450 
Q 1200 3875 1600 4450 
L 1900 4450 
L 1900 150 
L 1400 150 
L 1400 3600 
z
" transform="scale(0.015625)"/>
       </defs>
       <use xlink:href="#SimHei-31"/>
       <use xlink:href="#SimHei-30" transform="translate(50 0)"/>
       <use xlink:href="#SimHei-30" transform="translate(100 0)"/>
      </g>
     </g>
    </g>
    <g id="xtick_4">
     <g id="line2d_7">
      <path d="M 292.565883 349.8636 
L 292.565883 34.5036 
" clip-path="url(#p7a5b92ea1f)" style="fill: none; stroke-dasharray: 2.22,0.96; stroke-dashoffset: 0; stroke: #b0b0b0; stroke-opacity: 0.25; stroke-width: 0.6"/>
     </g>
     <g id="line2d_8">
      <g>
       <use xlink:href="#m923f34b562" x="292.565883" y="349.8636" style="stroke: #000000; stroke-width: 0.8"/>
      </g>
     </g>
     <g id="text_4">
      <!-- 150 -->
      <g transform="translate(283.565883 365.1136) scale(0.12 -0.12)">
       <use xlink:href="#SimHei-31"/>
       <use xlink:href="#SimHei-35" transform="translate(50 0)"/>
       <use xlink:href="#SimHei-30" transform="translate(100 0)"/>
      </g>
     </g>
    </g>
    <g id="xtick_5">
     <g id="line2d_9">
      <path d="M 363.926102 349.8636 
L 363.926102 34.5036 
" clip-path="url(#p7a5b92ea1f)" style="fill: none; stroke-dasharray: 2.22,0.96; stroke-dashoffset: 0; stroke: #b0b0b0; stroke-opacity: 0.25; stroke-width: 0.6"/>
     </g>
     <g id="line2d_10">
      <g>
       <use xlink:href="#m923f34b562" x="363.926102" y="349.8636" style="stroke: #000000; stroke-width: 0.8"/>
      </g>
     </g>
     <g id="text_5">
      <!-- 200 -->
      <g transform="translate(354.926102 365.1136) scale(0.12 -0.12)">
       <defs>
        <path id="SimHei-32" d="M 300 250 
Q 325 625 650 925 
Q 975 1225 1475 1862 
Q 1975 2500 2125 2850 
Q 2275 3200 2237 3450 
Q 2200 3700 2000 3862 
Q 1800 4025 1537 4000 
Q 1275 3975 1037 3800 
Q 800 3625 675 3275 
L 200 3350 
Q 400 3925 712 4187 
Q 1025 4450 1450 4475 
Q 1700 4500 1900 4462 
Q 2100 4425 2312 4287 
Q 2525 4150 2662 3875 
Q 2800 3600 2762 3212 
Q 2725 2825 2375 2287 
Q 2025 1750 1025 600 
L 2825 600 
L 2825 150 
L 300 150 
L 300 250 
z
" transform="scale(0.015625)"/>
       </defs>
       <use xlink:href="#SimHei-32"/>
       <use xlink:href="#SimHei-30" transform="translate(50 0)"/>
       <use xlink:href="#SimHei-30" transform="translate(100 0)"/>
      </g>
     </g>
    </g>
    <g id="xtick_6">
     <g id="line2d_11">
      <path d="M 435.286321 349.8636 
L 435.286321 34.5036 
" clip-path="url(#p7a5b92ea1f)" style="fill: none; stroke-dasharray: 2.22,0.96; stroke-dashoffset: 0; stroke: #b0b0b0; stroke-opacity: 0.25; stroke-width: 0.6"/>
     </g>
     <g id="line2d_12">
      <g>
       <use xlink:href="#m923f34b562" x="435.286321" y="349.8636" style="stroke: #000000; stroke-width: 0.8"/>
      </g>
     </g>
     <g id="text_6">
      <!-- 250 -->
      <g transform="translate(426.286321 365.1136) scale(0.12 -0.12)">
       <use xlink:href="#SimHei-32"/>
       <use xlink:href="#SimHei-35" transform="translate(50 0)"/>
       <use xlink:href="#SimHei-30" transform="translate(100 0)"/>
      </g>
     </g>
    </g>
    <g id="xtick_7">
     <g id="line2d_13">
      <path d="M 506.64654 349.8636 
L 506.64654 34.5036 
" clip-path="url(#p7a5b92ea1f)" style="fill: none; stroke-dasharray: 2.22,0.96; stroke-dashoffset: 0; stroke: #b0b0b0; stroke-opacity: 0.25; stroke-width: 0.6"/>
     </g>
     <g id="line2d_14">
      <g>
       <use xlink:href="#m923f34b562" x="506.64654" y="349.8636" style="stroke: #000000; stroke-width: 0.8"/>
      </g>
     </g>
     <g id="text_7">
      <!-- 300 -->
      <g transform="translate(497.64654 365.1136) scale(0.12 -0.12)">
       <defs>
        <path id="SimHei-33" d="M 250 1225 
L 700 1300 
Q 800 975 1025 762 
Q 1250 550 1587 562 
Q 1925 575 2125 837 
Q 2325 1100 2300 1437 
Q 2275 1775 2037 1962 
Q 1800 2150 1275 2225 
L 1275 2550 
Q 1800 2600 2037 2825 
Q 2275 3050 2250 3412 
Q 2225 3775 1925 3937 
Q 1625 4100 1287 3975 
Q 950 3850 750 3275 
L 300 3350 
Q 450 3800 712 4100 
Q 975 4400 1425 4450 
Q 1875 4500 2212 4337 
Q 2550 4175 2687 3837 
Q 2825 3500 2725 3100 
Q 2625 2700 2150 2400 
Q 2500 2250 2687 1950 
Q 2875 1650 2812 1162 
Q 2750 675 2375 375 
Q 2000 75 1525 87 
Q 1050 100 700 387 
Q 350 675 250 1225 
z
" transform="scale(0.015625)"/>
       </defs>
       <use xlink:href="#SimHei-33"/>
       <use xlink:href="#SimHei-30" transform="translate(50 0)"/>
       <use xlink:href="#SimHei-30" transform="translate(100 0)"/>
      </g>
     </g>
    </g>
    <g id="xtick_8">
     <g id="line2d_15">
      <path d="M 578.006758 349.8636 
L 578.006758 34.5036 
" clip-path="url(#p7a5b92ea1f)" style="fill: none; stroke-dasharray: 2.22,0.96; stroke-dashoffset: 0; stroke: #b0b0b0; stroke-opacity: 0.25; stroke-width: 0.6"/>
     </g>
     <g id="line2d_16">
      <g>
       <use xlink:href="#m923f34b562" x="578.006758" y="349.8636" style="stroke: #000000; stroke-width: 0.8"/>
      </g>
     </g>
     <g id="text_8">
      <!-- 350 -->
      <g transform="translate(569.006758 365.1136) scale(0.12 -0.12)">
       <use xlink:href="#SimHei-33"/>
       <use xlink:href="#SimHei-35" transform="translate(50 0)"/>
       <use xlink:href="#SimHei-30" transform="translate(100 0)"/>
      </g>
     </g>
    </g>
    <g id="xtick_9">
     <g id="line2d_17">
      <path d="M 649.366977 349.8636 
L 649.366977 34.5036 
" clip-path="url(#p7a5b92ea1f)" style="fill: none; stroke-dasharray: 2.22,0.96; stroke-dashoffset: 0; stroke: #b0b0b0; stroke-opacity: 0.25; stroke-width: 0.6"/>
     </g>
     <g id="line2d_18">
      <g>
       <use xlink:href="#m923f34b562" x="649.366977" y="349.8636" style="stroke: #000000; stroke-width: 0.8"/>
      </g>
     </g>
     <g id="text_9">
      <!-- 400 -->
      <g transform="translate(640.366977 365.1136) scale(0.12 -0.12)">
       <defs>
        <path id="SimHei-34" d="M 2000 1100 
L 75 1100 
L 75 1525 
L 2100 4450 
L 2475 4450 
L 2475 1525 
L 3075 1525 
L 3075 1100 
L 2475 1100 
L 2475 150 
L 2000 150 
L 2000 1100 
z
M 2000 1525 
L 2000 3500 
L 600 1525 
L 2000 1525 
z
" transform="scale(0.015625)"/>
       </defs>
       <use xlink:href="#SimHei-34"/>
       <use xlink:href="#SimHei-30" transform="translate(50 0)"/>
       <use xlink:href="#SimHei-30" transform="translate(100 0)"/>
      </g>
     </g>
    </g>
    <g id="text_10">
     <!-- Episode -->
     <g transform="translate(333.4625 382.3011) scale(0.17 -0.17)">
      <defs>
       <path id="SimHei-45" d="M 2900 125 
L 350 125 
L 350 4400 
L 2775 4400 
L 2775 3925 
L 925 3925 
L 925 2600 
L 2625 2600 
L 2625 2125 
L 925 2125 
L 925 600 
L 2900 600 
L 2900 125 
z
" transform="scale(0.015625)"/>
       <path id="SimHei-70" d="M 2825 1525 
Q 2825 800 2475 425 
Q 2125 50 1625 50 
Q 1350 50 1150 162 
Q 950 275 800 500 
L 800 -800 
L 300 -800 
L 300 2925 
L 800 2925 
L 800 2550 
Q 950 2775 1150 2875 
Q 1350 2975 1625 2975 
Q 2125 2975 2475 2612 
Q 2825 2250 2825 1525 
z
M 2275 1525 
Q 2275 2000 2087 2262 
Q 1900 2525 1525 2525 
Q 1225 2525 1012 2262 
Q 800 2000 800 1525 
Q 800 1050 1012 775 
Q 1225 500 1525 500 
Q 1900 500 2087 775 
Q 2275 1050 2275 1525 
z
" transform="scale(0.015625)"/>
       <path id="SimHei-69" d="M 1800 3725 
L 1300 3725 
L 1300 4375 
L 1800 4375 
L 1800 3725 
z
M 1800 125 
L 1300 125 
L 1300 2925 
L 1800 2925 
L 1800 125 
z
" transform="scale(0.015625)"/>
       <path id="SimHei-73" d="M 2750 900 
Q 2750 500 2437 287 
Q 2125 75 1650 75 
Q 1050 75 725 312 
Q 400 550 400 1000 
L 900 1000 
Q 900 700 1112 600 
Q 1325 500 1625 500 
Q 1925 500 2075 612 
Q 2225 725 2225 900 
Q 2225 1025 2100 1150 
Q 1975 1275 1475 1350 
Q 900 1425 687 1637 
Q 475 1850 475 2200 
Q 475 2500 762 2737 
Q 1050 2975 1600 2975 
Q 2100 2975 2387 2750 
Q 2675 2525 2675 2150 
L 2175 2150 
Q 2175 2375 2012 2462 
Q 1850 2550 1600 2550 
Q 1275 2550 1137 2437 
Q 1000 2325 1000 2175 
Q 1000 2000 1125 1900 
Q 1250 1800 1650 1750 
Q 2300 1650 2525 1437 
Q 2750 1225 2750 900 
z
" transform="scale(0.015625)"/>
       <path id="SimHei-6f" d="M 2925 1525 
Q 2925 875 2525 475 
Q 2125 75 1575 75 
Q 1025 75 625 475 
Q 225 875 225 1525 
Q 225 2175 625 2575 
Q 1025 2975 1575 2975 
Q 2125 2975 2525 2575 
Q 2925 2175 2925 1525 
z
M 2375 1525 
Q 2375 2025 2125 2275 
Q 1875 2525 1575 2525 
Q 1275 2525 1025 2275 
Q 775 2025 775 1525 
Q 775 1025 1025 775 
Q 1275 525 1575 525 
Q 1875 525 2125 775 
Q 2375 1025 2375 1525 
z
" transform="scale(0.015625)"/>
       <path id="SimHei-64" d="M 2750 125 
L 2250 125 
L 2250 500 
Q 2100 275 1900 175 
Q 1700 75 1425 75 
Q 925 75 575 437 
Q 225 800 225 1525 
Q 225 2250 575 2625 
Q 925 3000 1425 3000 
Q 1700 3000 1900 2887 
Q 2100 2775 2250 2550 
L 2250 4400 
L 2750 4400 
L 2750 125 
z
M 2250 1525 
Q 2250 2000 2037 2275 
Q 1825 2550 1525 2550 
Q 1150 2550 962 2275 
Q 775 2000 775 1525 
Q 775 1050 962 787 
Q 1150 525 1525 525 
Q 1825 525 2037 787 
Q 2250 1050 2250 1525 
z
" transform="scale(0.015625)"/>
       <path id="SimHei-65" d="M 2850 1075 
Q 2800 625 2450 350 
Q 2100 75 1625 75 
Q 1025 75 637 462 
Q 250 850 250 1525 
Q 250 2200 637 2587 
Q 1025 2975 1625 2975 
Q 2150 2975 2487 2637 
Q 2825 2300 2825 1525 
L 800 1525 
Q 800 975 1037 750 
Q 1275 525 1625 525 
Q 1900 525 2075 662 
Q 2250 800 2300 1075 
L 2850 1075 
z
M 2250 1925 
Q 2200 2275 2025 2412 
Q 1850 2550 1575 2550 
Q 1325 2550 1125 2412 
Q 925 2275 825 1925 
L 2250 1925 
z
" transform="scale(0.015625)"/>
      </defs>
      <use xlink:href="#SimHei-45"/>
      <use xlink:href="#SimHei-70" transform="translate(50 0)"/>
      <use xlink:href="#SimHei-69" transform="translate(100 0)"/>
      <use xlink:href="#SimHei-73" transform="translate(150 0)"/>
      <use xlink:href="#SimHei-6f" transform="translate(200 0)"/>
      <use xlink:href="#SimHei-64" transform="translate(250 0)"/>
      <use xlink:href="#SimHei-65" transform="translate(300 0)"/>
     </g>
    </g>
   </g>
   <g id="matplotlib.axis_2">
    <g id="ytick_1">
     <g id="line2d_19">
      <path d="M 50.0125 316.59258 
L 676.4125 316.59258 
" clip-path="url(#p7a5b92ea1f)" style="fill: none; stroke-dasharray: 2.22,0.96; stroke-dashoffset: 0; stroke: #b0b0b0; stroke-opacity: 0.25; stroke-width: 0.6"/>
     </g>
     <g id="line2d_20">
      <defs>
       <path id="m0cb1b35a4a" d="M 0 0 
L -3.5 0 
" style="stroke: #000000; stroke-width: 0.8"/>
      </defs>
      <g>
       <use xlink:href="#m0cb1b35a4a" x="50.0125" y="316.59258" style="stroke: #000000; stroke-width: 0.8"/>
      </g>
     </g>
     <g id="text_11">
      <!-- 1.0 -->
      <g transform="translate(25.0125 320.71758) scale(0.12 -0.12)">
       <defs>
        <path id="SimHei-2e" d="M 1075 125 
L 500 125 
L 500 675 
L 1075 675 
L 1075 125 
z
" transform="scale(0.015625)"/>
       </defs>
       <use xlink:href="#SimHei-31"/>
       <use xlink:href="#SimHei-2e" transform="translate(50 0)"/>
       <use xlink:href="#SimHei-30" transform="translate(100 0)"/>
      </g>
     </g>
    </g>
    <g id="ytick_2">
     <g id="line2d_21">
      <path d="M 50.0125 280.497734 
L 676.4125 280.497734 
" clip-path="url(#p7a5b92ea1f)" style="fill: none; stroke-dasharray: 2.22,0.96; stroke-dashoffset: 0; stroke: #b0b0b0; stroke-opacity: 0.25; stroke-width: 0.6"/>
     </g>
     <g id="line2d_22">
      <g>
       <use xlink:href="#m0cb1b35a4a" x="50.0125" y="280.497734" style="stroke: #000000; stroke-width: 0.8"/>
      </g>
     </g>
     <g id="text_12">
      <!-- 1.5 -->
      <g transform="translate(25.0125 284.622734) scale(0.12 -0.12)">
       <use xlink:href="#SimHei-31"/>
       <use xlink:href="#SimHei-2e" transform="translate(50 0)"/>
       <use xlink:href="#SimHei-35" transform="translate(100 0)"/>
      </g>
     </g>
    </g>
    <g id="ytick_3">
     <g id="line2d_23">
      <path d="M 50.0125 244.402887 
L 676.4125 244.402887 
" clip-path="url(#p7a5b92ea1f)" style="fill: none; stroke-dasharray: 2.22,0.96; stroke-dashoffset: 0; stroke: #b0b0b0; stroke-opacity: 0.25; stroke-width: 0.6"/>
     </g>
     <g id="line2d_24">
      <g>
       <use xlink:href="#m0cb1b35a4a" x="50.0125" y="244.402887" style="stroke: #000000; stroke-width: 0.8"/>
      </g>
     </g>
     <g id="text_13">
      <!-- 2.0 -->
      <g transform="translate(25.0125 248.527887) scale(0.12 -0.12)">
       <use xlink:href="#SimHei-32"/>
       <use xlink:href="#SimHei-2e" transform="translate(50 0)"/>
       <use xlink:href="#SimHei-30" transform="translate(100 0)"/>
      </g>
     </g>
    </g>
    <g id="ytick_4">
     <g id="line2d_25">
      <path d="M 50.0125 208.308041 
L 676.4125 208.308041 
" clip-path="url(#p7a5b92ea1f)" style="fill: none; stroke-dasharray: 2.22,0.96; stroke-dashoffset: 0; stroke: #b0b0b0; stroke-opacity: 0.25; stroke-width: 0.6"/>
     </g>
     <g id="line2d_26">
      <g>
       <use xlink:href="#m0cb1b35a4a" x="50.0125" y="208.308041" style="stroke: #000000; stroke-width: 0.8"/>
      </g>
     </g>
     <g id="text_14">
      <!-- 2.5 -->
      <g transform="translate(25.0125 212.433041) scale(0.12 -0.12)">
       <use xlink:href="#SimHei-32"/>
       <use xlink:href="#SimHei-2e" transform="translate(50 0)"/>
       <use xlink:href="#SimHei-35" transform="translate(100 0)"/>
      </g>
     </g>
    </g>
    <g id="ytick_5">
     <g id="line2d_27">
      <path d="M 50.0125 172.213195 
L 676.4125 172.213195 
" clip-path="url(#p7a5b92ea1f)" style="fill: none; stroke-dasharray: 2.22,0.96; stroke-dashoffset: 0; stroke: #b0b0b0; stroke-opacity: 0.25; stroke-width: 0.6"/>
     </g>
     <g id="line2d_28">
      <g>
       <use xlink:href="#m0cb1b35a4a" x="50.0125" y="172.213195" style="stroke: #000000; stroke-width: 0.8"/>
      </g>
     </g>
     <g id="text_15">
      <!-- 3.0 -->
      <g transform="translate(25.0125 176.338195) scale(0.12 -0.12)">
       <use xlink:href="#SimHei-33"/>
       <use xlink:href="#SimHei-2e" transform="translate(50 0)"/>
       <use xlink:href="#SimHei-30" transform="translate(100 0)"/>
      </g>
     </g>
    </g>
    <g id="ytick_6">
     <g id="line2d_29">
      <path d="M 50.0125 136.118349 
L 676.4125 136.118349 
" clip-path="url(#p7a5b92ea1f)" style="fill: none; stroke-dasharray: 2.22,0.96; stroke-dashoffset: 0; stroke: #b0b0b0; stroke-opacity: 0.25; stroke-width: 0.6"/>
     </g>
     <g id="line2d_30">
      <g>
       <use xlink:href="#m0cb1b35a4a" x="50.0125" y="136.118349" style="stroke: #000000; stroke-width: 0.8"/>
      </g>
     </g>
     <g id="text_16">
      <!-- 3.5 -->
      <g transform="translate(25.0125 140.243349) scale(0.12 -0.12)">
       <use xlink:href="#SimHei-33"/>
       <use xlink:href="#SimHei-2e" transform="translate(50 0)"/>
       <use xlink:href="#SimHei-35" transform="translate(100 0)"/>
      </g>
     </g>
    </g>
    <g id="ytick_7">
     <g id="line2d_31">
      <path d="M 50.0125 100.023503 
L 676.4125 100.023503 
" clip-path="url(#p7a5b92ea1f)" style="fill: none; stroke-dasharray: 2.22,0.96; stroke-dashoffset: 0; stroke: #b0b0b0; stroke-opacity: 0.25; stroke-width: 0.6"/>
     </g>
     <g id="line2d_32">
      <g>
       <use xlink:href="#m0cb1b35a4a" x="50.0125" y="100.023503" style="stroke: #000000; stroke-width: 0.8"/>
      </g>
     </g>
     <g id="text_17">
      <!-- 4.0 -->
      <g transform="translate(25.0125 104.148503) scale(0.12 -0.12)">
       <use xlink:href="#SimHei-34"/>
       <use xlink:href="#SimHei-2e" transform="translate(50 0)"/>
       <use xlink:href="#SimHei-30" transform="translate(100 0)"/>
      </g>
     </g>
    </g>
    <g id="ytick_8">
     <g id="line2d_33">
      <path d="M 50.0125 63.928657 
L 676.4125 63.928657 
" clip-path="url(#p7a5b92ea1f)" style="fill: none; stroke-dasharray: 2.22,0.96; stroke-dashoffset: 0; stroke: #b0b0b0; stroke-opacity: 0.25; stroke-width: 0.6"/>
     </g>
     <g id="line2d_34">
      <g>
       <use xlink:href="#m0cb1b35a4a" x="50.0125" y="63.928657" style="stroke: #000000; stroke-width: 0.8"/>
      </g>
     </g>
     <g id="text_18">
      <!-- 4.5 -->
      <g transform="translate(25.0125 68.053657) scale(0.12 -0.12)">
       <use xlink:href="#SimHei-34"/>
       <use xlink:href="#SimHei-2e" transform="translate(50 0)"/>
       <use xlink:href="#SimHei-35" transform="translate(100 0)"/>
      </g>
     </g>
    </g>
    <g id="text_19">
     <!-- Total Task Energy -->
     <g transform="translate(18.8875 264.4336) rotate(-90) scale(0.17 -0.17)">
      <defs>
       <path id="SimHei-54" d="M 2850 3925 
L 1850 3925 
L 1850 125 
L 1275 125 
L 1275 3925 
L 275 3925 
L 275 4400 
L 2850 4400 
L 2850 3925 
z
" transform="scale(0.015625)"/>
       <path id="SimHei-74" d="M 2750 200 
Q 2625 150 2462 112 
Q 2300 75 2025 75 
Q 1575 75 1300 325 
Q 1025 575 1025 1025 
L 1025 2525 
L 175 2525 
L 175 2925 
L 1025 2925 
L 1025 3900 
L 1525 3900 
L 1525 2925 
L 2550 2925 
L 2550 2525 
L 1525 2525 
L 1525 1000 
Q 1525 800 1625 662 
Q 1725 525 2000 525 
Q 2275 525 2450 575 
Q 2625 625 2750 700 
L 2750 200 
z
" transform="scale(0.015625)"/>
       <path id="SimHei-61" d="M 2875 125 
L 2275 125 
Q 2225 175 2200 262 
Q 2175 350 2175 475 
Q 2000 275 1750 175 
Q 1500 75 1225 75 
Q 825 75 550 275 
Q 275 475 275 850 
Q 275 1225 525 1450 
Q 775 1675 1300 1750 
Q 1650 1800 1912 1875 
Q 2175 1950 2175 2075 
Q 2175 2225 2062 2375 
Q 1950 2525 1575 2525 
Q 1275 2525 1137 2412 
Q 1000 2300 950 2100 
L 400 2100 
Q 450 2500 762 2737 
Q 1075 2975 1575 2975 
Q 2125 2975 2400 2725 
Q 2675 2475 2675 2025 
L 2675 650 
Q 2675 500 2725 375 
Q 2775 250 2875 125 
z
M 2175 1050 
L 2175 1550 
Q 2025 1500 1887 1462 
Q 1750 1425 1425 1375 
Q 1050 1325 937 1200 
Q 825 1075 825 900 
Q 825 750 937 637 
Q 1050 525 1275 525 
Q 1500 525 1762 650 
Q 2025 775 2175 1050 
z
" transform="scale(0.015625)"/>
       <path id="SimHei-6c" d="M 1825 125 
L 1325 125 
L 1325 4400 
L 1825 4400 
L 1825 125 
z
" transform="scale(0.015625)"/>
       <path id="SimHei-20" transform="scale(0.015625)"/>
       <path id="SimHei-6b" d="M 2925 125 
L 2350 125 
L 1450 1650 
L 875 1100 
L 875 125 
L 375 125 
L 375 4400 
L 875 4400 
L 875 1675 
L 2125 2925 
L 2750 2925 
L 1775 1975 
L 2925 125 
z
" transform="scale(0.015625)"/>
       <path id="SimHei-6e" d="M 2800 125 
L 2300 125 
L 2300 1925 
Q 2300 2225 2150 2400 
Q 2000 2575 1750 2575 
Q 1425 2575 1137 2237 
Q 850 1900 850 1400 
L 850 125 
L 350 125 
L 350 2925 
L 850 2925 
L 850 2400 
Q 1050 2675 1287 2825 
Q 1525 2975 1900 2975 
Q 2350 2975 2575 2725 
Q 2800 2475 2800 2100 
L 2800 125 
z
" transform="scale(0.015625)"/>
       <path id="SimHei-72" d="M 2500 2425 
Q 2025 2500 1700 2287 
Q 1375 2075 1150 1550 
L 1150 125 
L 650 125 
L 650 2925 
L 1150 2925 
L 1150 2200 
Q 1375 2600 1712 2787 
Q 2050 2975 2500 2975 
L 2500 2425 
z
" transform="scale(0.015625)"/>
       <path id="SimHei-67" d="M 2975 2500 
Q 2800 2550 2637 2562 
Q 2475 2575 2300 2525 
Q 2375 2450 2425 2337 
Q 2475 2225 2475 2000 
Q 2475 1575 2187 1300 
Q 1900 1025 1475 1025 
Q 1375 1025 1212 1062 
Q 1050 1100 950 1150 
Q 875 1100 850 1050 
Q 825 1000 825 925 
Q 825 800 1000 737 
Q 1175 675 1625 675 
Q 2350 675 2612 475 
Q 2875 275 2875 -25 
Q 2875 -425 2487 -612 
Q 2100 -800 1575 -800 
Q 900 -800 575 -625 
Q 250 -450 250 -150 
Q 250 0 375 150 
Q 500 300 700 400 
Q 550 475 462 587 
Q 375 700 375 875 
Q 375 1025 487 1137 
Q 600 1250 750 1325 
Q 625 1450 550 1625 
Q 475 1800 475 2000 
Q 475 2425 762 2700 
Q 1050 2975 1475 2975 
Q 1700 2975 1862 2912 
Q 2025 2850 2150 2725 
Q 2350 2875 2550 2937 
Q 2750 3000 2975 2975 
L 2975 2500 
z
M 1975 2000 
Q 1975 2250 1850 2400 
Q 1725 2550 1475 2550 
Q 1225 2550 1100 2400 
Q 975 2250 975 2000 
Q 975 1750 1100 1600 
Q 1225 1450 1475 1450 
Q 1725 1450 1850 1600 
Q 1975 1750 1975 2000 
z
M 2400 -75 
Q 2400 25 2287 125 
Q 2175 225 1725 225 
Q 1625 225 1450 237 
Q 1275 250 1050 275 
Q 850 200 775 100 
Q 700 0 700 -100 
Q 700 -250 900 -350 
Q 1100 -450 1600 -450 
Q 2025 -450 2212 -337 
Q 2400 -225 2400 -75 
z
" transform="scale(0.015625)"/>
       <path id="SimHei-79" d="M 2900 2925 
L 1750 -100 
Q 1650 -450 1450 -625 
Q 1250 -800 950 -800 
Q 825 -800 712 -787 
Q 600 -775 500 -725 
L 500 -225 
Q 600 -275 700 -300 
Q 800 -325 875 -325 
Q 1075 -325 1150 -262 
Q 1225 -200 1300 25 
L 200 2925 
L 750 2925 
L 1550 725 
L 1575 725 
L 2350 2925 
L 2900 2925 
z
" transform="scale(0.015625)"/>
      </defs>
      <use xlink:href="#SimHei-54"/>
      <use xlink:href="#SimHei-6f" transform="translate(50 0)"/>
      <use xlink:href="#SimHei-74" transform="translate(100 0)"/>
      <use xlink:href="#SimHei-61" transform="translate(150 0)"/>
      <use xlink:href="#SimHei-6c" transform="translate(200 0)"/>
      <use xlink:href="#SimHei-20" transform="translate(250 0)"/>
      <use xlink:href="#SimHei-54" transform="translate(300 0)"/>
      <use xlink:href="#SimHei-61" transform="translate(350 0)"/>
      <use xlink:href="#SimHei-73" transform="translate(400 0)"/>
      <use xlink:href="#SimHei-6b" transform="translate(450 0)"/>
      <use xlink:href="#SimHei-20" transform="translate(500 0)"/>
      <use xlink:href="#SimHei-45" transform="translate(550 0)"/>
      <use xlink:href="#SimHei-6e" transform="translate(600 0)"/>
      <use xlink:href="#SimHei-65" transform="translate(650 0)"/>
      <use xlink:href="#SimHei-72" transform="translate(700 0)"/>
      <use xlink:href="#SimHei-67" transform="translate(750 0)"/>
      <use xlink:href="#SimHei-79" transform="translate(800 0)"/>
     </g>
    </g>
   </g>
   <g id="line2d_35">
    <path d="M 78.485227 321.578869 
L 79.912432 313.256326 
L 81.339636 311.715211 
L 82.76684 297.667073 
L 84.194045 294.930852 
L 85.621249 292.933422 
L 87.048454 282.317634 
L 89.902862 269.762164 
L 91.330067 266.80352 
L 92.757271 269.653007 
L 95.61168 253.747872 
L 97.038884 249.840455 
L 98.466089 249.2875 
L 99.893293 234.70802 
L 101.320497 229.119092 
L 102.747702 229.735918 
L 104.174906 234.72599 
L 105.60211 227.575887 
L 107.029315 226.869847 
L 108.456519 232.146261 
L 109.883724 235.628565 
L 111.310928 240.744359 
L 114.165337 249.880848 
L 115.592541 254.229681 
L 117.019745 255.11168 
L 118.44695 259.25233 
L 119.874154 262.881944 
L 121.301359 263.767081 
L 124.155767 270.350118 
L 125.582972 273.863826 
L 129.864585 282.064713 
L 132.718994 287.321685 
L 135.573402 292.039087 
L 139.855015 298.285258 
L 141.28222 300.149641 
L 142.709424 296.465071 
L 145.563833 300.564765 
L 146.991037 302.210311 
L 148.418242 303.293892 
L 151.27265 306.52377 
L 156.981468 311.922862 
L 158.408672 313.215797 
L 159.835877 313.996685 
L 162.690285 316.285428 
L 164.11749 316.803204 
L 165.544694 317.701655 
L 166.971898 318.779458 
L 168.399103 319.236673 
L 169.826307 313.522503 
L 171.253512 314.721753 
L 172.680716 315.658942 
L 174.10792 307.102333 
L 175.535125 308.212419 
L 176.962329 305.261889 
L 178.389533 304.327272 
L 179.816738 305.848202 
L 181.243942 307.60389 
L 184.098351 310.600817 
L 185.525555 311.912436 
L 186.95276 312.924823 
L 188.379964 302.899801 
L 189.807168 304.672928 
L 191.234373 292.309646 
L 195.515986 298.602763 
L 196.94319 296.618072 
L 198.370395 298.652218 
L 199.797599 300.385082 
L 201.224803 285.206805 
L 202.652008 282.615549 
L 204.079212 285.199708 
L 205.506417 276.531082 
L 206.933621 279.324334 
L 208.360825 267.545442 
L 209.78803 265.226873 
L 211.215234 264.247657 
L 212.642438 265.332241 
L 214.069643 261.555184 
L 215.496847 264.509979 
L 216.924052 255.267039 
L 218.351256 251.778108 
L 219.77846 255.248042 
L 221.205665 245.54509 
L 222.632869 239.367065 
L 224.060073 244.360214 
L 225.487278 246.515091 
L 226.914482 250.8538 
L 228.341687 254.83614 
L 229.768891 254.19444 
L 231.196095 258.014847 
L 232.6233 249.6374 
L 234.050504 254.102522 
L 235.477708 243.738527 
L 236.904913 247.612815 
L 239.759322 256.407799 
L 241.186526 241.820406 
L 242.61373 236.593507 
L 244.040935 207.436969 
L 245.468139 207.282006 
L 246.895343 201.062427 
L 248.322548 196.549371 
L 249.749752 189.365711 
L 251.176957 186.509011 
L 252.604161 190.485793 
L 254.031365 191.58461 
L 255.45857 185.669714 
L 256.885774 192.85163 
L 258.312978 194.206781 
L 259.740183 189.856803 
L 261.167387 194.3292 
L 262.594592 197.082208 
L 264.021796 183.653228 
L 265.449 182.482678 
L 266.876205 181.731659 
L 268.303409 180.230193 
L 269.730613 183.489691 
L 271.157818 178.99909 
L 275.439431 195.761418 
L 276.866635 198.419378 
L 279.721044 187.171729 
L 281.148248 187.603833 
L 282.575453 178.419435 
L 284.002657 183.100279 
L 285.429862 177.398424 
L 286.857066 169.211342 
L 288.28427 169.795165 
L 289.711475 175.543886 
L 291.138679 170.339145 
L 292.565883 175.062764 
L 293.993088 177.867614 
L 295.420292 170.396551 
L 296.847497 177.399181 
L 298.274701 175.582421 
L 299.701905 164.525312 
L 301.12911 166.387241 
L 302.556314 169.241355 
L 303.983518 166.82688 
L 305.410723 170.605426 
L 306.837927 177.346507 
L 308.265132 180.427752 
L 309.692336 186.691585 
L 311.11954 187.707099 
L 312.546745 189.888953 
L 313.973949 194.773009 
L 315.401153 184.408988 
L 316.828358 176.217439 
L 319.682767 181.897531 
L 321.109971 185.804109 
L 322.537175 178.210919 
L 323.96438 181.883063 
L 325.391584 176.740186 
L 326.818788 181.001592 
L 328.245993 184.027604 
L 329.673197 191.261893 
L 332.527606 203.618974 
L 333.95481 206.233237 
L 335.382015 200.774892 
L 336.809219 202.837784 
L 339.663628 211.104123 
L 341.090832 207.701508 
L 342.518037 205.718956 
L 343.945241 198.069479 
L 345.372445 194.126945 
L 346.79965 194.184643 
L 348.226854 197.253511 
L 349.654058 192.841288 
L 351.081263 191.310383 
L 352.508467 190.978973 
L 353.935672 198.022761 
L 355.362876 203.364291 
L 356.79008 202.510083 
L 358.217285 204.659325 
L 359.644489 203.043191 
L 362.498898 197.95661 
L 365.353307 201.238543 
L 366.780511 193.161755 
L 368.207715 199.737639 
L 369.63492 192.655595 
L 371.062124 197.742271 
L 372.489328 201.630464 
L 373.916533 203.013718 
L 375.343737 196.898694 
L 376.770942 199.895422 
L 378.198146 204.831213 
L 379.62535 203.480877 
L 381.052555 200.431654 
L 382.479759 193.772821 
L 383.906963 195.312285 
L 385.334168 196.274478 
L 386.761372 195.750405 
L 388.188577 196.510701 
L 389.615781 196.634096 
L 391.042985 197.239052 
L 392.47019 198.837469 
L 393.897394 203.606371 
L 396.751803 199.000474 
L 398.179007 199.615233 
L 399.606212 199.322039 
L 401.033416 194.564463 
L 402.46062 200.90568 
L 403.887825 193.989169 
L 405.315029 181.431456 
L 406.742233 173.88283 
L 408.169438 176.790303 
L 409.596642 178.508259 
L 412.451051 189.651025 
L 413.878255 189.574487 
L 415.30546 196.599994 
L 416.732664 199.506423 
L 418.159868 198.973902 
L 419.587073 185.620157 
L 421.014277 190.753772 
L 422.441482 195.131496 
L 423.868686 188.925877 
L 425.29589 188.24575 
L 426.723095 193.155346 
L 428.150299 189.250211 
L 429.577503 195.217284 
L 431.004708 197.959117 
L 432.431912 202.514558 
L 433.859117 204.076055 
L 435.286321 210.322747 
L 436.713525 210.30684 
L 438.14073 214.877627 
L 439.567934 217.229579 
L 440.995138 217.516621 
L 442.422343 221.121208 
L 445.276752 227.917263 
L 446.703956 225.702789 
L 448.13116 208.714632 
L 449.558365 208.724561 
L 450.985569 209.822458 
L 452.412773 214.434652 
L 453.839978 218.42457 
L 455.267182 207.871972 
L 456.694387 213.804228 
L 458.121591 214.295377 
L 459.548795 204.994786 
L 460.976 208.405414 
L 462.403204 207.040006 
L 463.830408 213.166523 
L 465.257613 213.556992 
L 466.684817 216.401991 
L 468.112022 212.483506 
L 469.539226 209.577107 
L 470.96643 204.927009 
L 472.393635 207.582366 
L 473.820839 211.640116 
L 475.248043 217.249945 
L 476.675248 215.368649 
L 478.102452 214.182118 
L 479.529657 206.744047 
L 480.956861 211.02951 
L 482.384065 209.738023 
L 483.81127 203.561358 
L 485.238474 205.466469 
L 488.092883 213.592153 
L 489.520087 204.824813 
L 490.947292 202.716161 
L 492.374496 205.955997 
L 493.8017 206.225807 
L 495.228905 209.275888 
L 496.656109 215.085092 
L 498.083313 204.03576 
L 499.510518 209.016595 
L 500.937722 202.165691 
L 502.364927 193.087706 
L 503.792131 192.299171 
L 505.219335 190.942779 
L 506.64654 192.511761 
L 508.073744 193.696874 
L 509.500948 198.653457 
L 512.355357 206.419801 
L 513.782562 207.986527 
L 515.209766 209.743407 
L 516.63697 206.514268 
L 518.064175 206.375628 
L 519.491379 201.798808 
L 520.918583 203.942087 
L 522.345788 205.388666 
L 523.772992 205.608874 
L 525.200197 209.191966 
L 526.627401 209.119559 
L 528.054605 205.84167 
L 529.48181 211.808733 
L 530.909014 213.713234 
L 532.336218 218.823968 
L 533.763423 222.273642 
L 535.190627 227.607489 
L 536.617832 231.426165 
L 538.045036 235.71366 
L 539.47224 236.110019 
L 540.899445 232.587018 
L 542.326649 235.337455 
L 543.753853 239.334147 
L 545.181058 243.894528 
L 546.608262 244.885942 
L 548.035467 248.253145 
L 549.462671 245.681617 
L 550.889875 246.515939 
L 552.31708 247.607746 
L 553.744284 249.474837 
L 555.171488 231.271696 
L 558.025897 225.388324 
L 559.453102 225.263061 
L 560.880306 226.536233 
L 562.30751 231.054385 
L 563.734715 233.77855 
L 565.161919 227.951917 
L 566.589123 231.723649 
L 568.016328 223.471403 
L 569.443532 224.131926 
L 570.870737 228.958774 
L 572.297941 233.190576 
L 573.725145 233.776224 
L 575.15235 234.929953 
L 576.579554 232.404836 
L 578.006758 237.300692 
L 579.433963 240.685575 
L 580.861167 234.052187 
L 582.288371 236.967129 
L 583.715576 232.918571 
L 585.14278 235.983737 
L 586.569985 238.584861 
L 587.997189 243.325592 
L 590.851598 251.189966 
L 592.278802 249.776368 
L 593.706006 252.81595 
L 595.133211 251.700463 
L 596.560415 255.606714 
L 597.98762 256.123461 
L 600.842028 261.480417 
L 602.269233 264.730639 
L 603.696437 245.405188 
L 605.123641 244.894891 
L 606.550846 238.599813 
L 607.97805 238.461591 
L 609.405255 240.89212 
L 610.832459 239.546948 
L 612.259663 241.79117 
L 613.686868 233.101141 
L 615.114072 225.389661 
L 616.541276 222.302728 
L 617.968481 225.174621 
L 619.395685 227.011756 
L 620.82289 229.686478 
L 622.250094 229.768727 
L 623.677298 234.480878 
L 625.104503 234.426233 
L 626.531707 235.643035 
L 627.958911 235.224592 
L 629.386116 221.897423 
L 630.81332 217.72601 
L 632.240525 216.621915 
L 633.667729 207.509168 
L 635.094933 208.445573 
L 636.522138 207.268249 
L 637.949342 204.546595 
L 639.376546 204.097326 
L 640.803751 207.953648 
L 642.230955 210.544492 
L 643.65816 215.156961 
L 645.085364 216.371951 
L 646.512568 211.145027 
L 646.512568 211.145027 
" clip-path="url(#p7a5b92ea1f)" style="fill: none; stroke: #1f77b4; stroke-width: 1.2; stroke-linecap: square"/>
   </g>
   <g id="line2d_36">
    <path d="M 78.485227 289.353112 
L 79.912432 278.737552 
L 81.339636 274.027919 
L 82.76684 270.940446 
L 84.194045 260.703041 
L 85.621249 253.1264 
L 87.048454 255.664793 
L 88.475658 241.24987 
L 89.902862 242.666027 
L 91.330067 245.103376 
L 92.757271 231.163737 
L 94.184475 229.098131 
L 95.61168 228.479095 
L 97.038884 232.568138 
L 98.466089 236.258684 
L 99.893293 231.26388 
L 101.320497 216.223988 
L 102.747702 198.078125 
L 104.174906 200.809379 
L 105.60211 190.217638 
L 107.029315 191.85882 
L 108.456519 194.732191 
L 109.883724 186.342051 
L 111.310928 186.41509 
L 112.738132 185.957113 
L 114.165337 192.28627 
L 115.592541 192.144945 
L 117.019745 194.56607 
L 118.44695 195.385583 
L 119.874154 198.940647 
L 121.301359 201.032733 
L 122.728563 200.454308 
L 124.155767 201.003892 
L 125.582972 195.148552 
L 127.010176 191.860685 
L 128.43738 189.98954 
L 129.864585 190.976028 
L 131.291789 184.116893 
L 132.718994 188.133397 
L 135.573402 179.063941 
L 137.000607 182.627691 
L 138.427811 189.105379 
L 141.28222 199.444385 
L 142.709424 201.231168 
L 144.136629 206.630322 
L 145.563833 206.377193 
L 146.991037 209.340426 
L 148.418242 214.563581 
L 149.845446 197.572031 
L 151.27265 194.950441 
L 152.699855 193.162851 
L 154.127059 199.406796 
L 155.554263 199.28895 
L 156.981468 203.993451 
L 158.408672 203.514942 
L 159.835877 201.478662 
L 161.263081 201.596144 
L 162.690285 205.373697 
L 164.11749 208.02807 
L 165.544694 213.434043 
L 166.971898 216.73791 
L 168.399103 214.719225 
L 169.826307 219.016759 
L 171.253512 222.518096 
L 172.680716 223.478413 
L 174.10792 226.891998 
L 175.535125 231.513355 
L 176.962329 235.269661 
L 178.389533 225.653359 
L 179.816738 230.17982 
L 181.243942 232.828049 
L 182.671147 230.649236 
L 184.098351 231.726701 
L 185.525555 233.253539 
L 186.95276 232.427925 
L 188.379964 236.887166 
L 189.807168 235.563579 
L 191.234373 226.465886 
L 192.661577 231.004951 
L 194.088782 235.167368 
L 195.515986 234.096423 
L 196.94319 238.817077 
L 198.370395 238.624652 
L 199.797599 239.209063 
L 201.224803 242.579347 
L 202.652008 246.541785 
L 204.079212 245.643822 
L 205.506417 246.627893 
L 206.933621 249.393321 
L 208.360825 253.31416 
L 211.215234 259.808218 
L 212.642438 255.13069 
L 214.069643 256.338174 
L 215.496847 258.896314 
L 216.924052 256.824556 
L 218.351256 253.908908 
L 221.205665 261.046401 
L 222.632869 263.708642 
L 224.060073 264.573371 
L 225.487278 265.954513 
L 228.341687 271.114062 
L 229.768891 267.058637 
L 231.196095 262.323592 
L 232.6233 259.189443 
L 234.050504 259.380993 
L 235.477708 251.685567 
L 236.904913 253.217843 
L 238.332117 249.328511 
L 239.759322 253.443693 
L 241.186526 256.081948 
L 242.61373 254.48481 
L 244.040935 253.108426 
L 245.468139 256.213198 
L 246.895343 250.768178 
L 248.322548 254.910986 
L 249.749752 255.572995 
L 251.176957 250.037017 
L 252.604161 253.793157 
L 254.031365 255.623845 
L 255.45857 258.062172 
L 256.885774 261.481838 
L 258.312978 263.064868 
L 259.740183 263.357915 
L 261.167387 266.039111 
L 262.594592 269.168628 
L 264.021796 268.923421 
L 265.449 269.376266 
L 266.876205 272.240374 
L 268.303409 268.293418 
L 269.730613 271.564445 
L 271.157818 272.157424 
L 272.585022 264.103162 
L 274.012227 267.1323 
L 275.439431 262.784489 
L 278.29384 269.263827 
L 279.721044 272.183121 
L 281.148248 268.378155 
L 284.002657 270.438852 
L 286.857066 272.465203 
L 288.28427 273.212244 
L 289.711475 275.879759 
L 291.138679 270.482123 
L 292.565883 273.242158 
L 293.993088 274.120301 
L 296.847497 279.932541 
L 298.274701 280.798675 
L 299.701905 282.935 
L 301.12911 283.927244 
L 302.556314 286.582056 
L 303.983518 285.902982 
L 305.410723 286.150871 
L 309.692336 292.418608 
L 311.11954 289.200296 
L 312.546745 290.589203 
L 313.973949 290.086026 
L 315.401153 291.733423 
L 316.828358 293.723078 
L 318.255562 286.9869 
L 319.682767 289.291292 
L 321.109971 287.780641 
L 322.537175 285.413907 
L 323.96438 287.686905 
L 325.391584 289.702674 
L 326.818788 290.072564 
L 328.245993 292.046486 
L 331.100402 295.738143 
L 332.527606 293.216802 
L 333.95481 295.382451 
L 335.382015 297.248841 
L 336.809219 296.500623 
L 338.236423 293.107044 
L 339.663628 295.087584 
L 341.090832 295.298807 
L 342.518037 295.992398 
L 345.372445 297.082082 
L 346.79965 297.832774 
L 348.226854 299.481131 
L 351.081263 302.033575 
L 352.508467 302.962687 
L 353.935672 304.394769 
L 355.362876 301.066228 
L 358.217285 303.861956 
L 359.644489 303.415823 
L 361.071693 303.215127 
L 362.498898 304.343597 
L 366.780511 308.845011 
L 368.207715 308.621121 
L 371.062124 310.903407 
L 372.489328 311.600655 
L 378.198146 315.046895 
L 379.62535 314.1735 
L 381.052555 315.236798 
L 382.479759 316.074858 
L 383.906963 316.604826 
L 386.761372 318.136642 
L 388.188577 317.204645 
L 389.615781 318.080781 
L 393.897394 319.744468 
L 395.324598 320.516563 
L 396.751803 318.265279 
L 398.179007 316.685815 
L 399.606212 317.402926 
L 401.033416 316.662594 
L 402.46062 317.660434 
L 403.887825 318.153394 
L 405.315029 318.871126 
L 406.742233 319.455068 
L 408.169438 320.272025 
L 409.596642 317.059925 
L 413.878255 319.620713 
L 415.30546 320.047159 
L 416.732664 320.345123 
L 418.159868 317.182183 
L 419.587073 317.802605 
L 421.014277 316.343384 
L 422.441482 317.365338 
L 423.868686 317.255715 
L 425.29589 315.236008 
L 426.723095 316.083734 
L 428.150299 317.238978 
L 429.577503 317.955162 
L 431.004708 316.640878 
L 432.431912 314.164784 
L 433.859117 315.118876 
L 435.286321 314.524255 
L 436.713525 315.584108 
L 439.567934 317.298106 
L 440.995138 317.764294 
L 442.422343 318.476997 
L 443.849547 319.375296 
L 445.276752 318.089284 
L 446.703956 312.648555 
L 450.985569 316.030075 
L 453.839978 317.729401 
L 455.267182 315.450266 
L 456.694387 316.572466 
L 458.121591 317.367421 
L 459.548795 315.511265 
L 462.403204 317.361759 
L 463.830408 313.366339 
L 465.257613 312.343678 
L 466.684817 313.394678 
L 468.112022 314.155386 
L 469.539226 311.957366 
L 472.393635 313.825117 
L 479.529657 317.9292 
L 480.956861 318.745127 
L 482.384065 319.301054 
L 483.81127 320.005512 
L 485.238474 320.311775 
L 486.665678 320.849637 
L 488.092883 321.205761 
L 490.947292 322.441974 
L 492.374496 322.890911 
L 493.8017 321.18722 
L 495.228905 322.005913 
L 496.656109 322.296102 
L 499.510518 323.717756 
L 500.937722 323.653907 
L 502.364927 324.255286 
L 509.500948 326.438832 
L 510.928153 326.844578 
L 512.355357 327.424567 
L 516.63697 327.868881 
L 519.491379 328.787192 
L 520.918583 328.967912 
L 522.345788 328.554237 
L 523.772992 328.774647 
L 526.627401 329.394936 
L 528.054605 329.434326 
L 529.48181 329.780133 
L 530.909014 329.947347 
L 532.336218 327.15473 
L 533.763423 327.359823 
L 535.190627 328.035059 
L 538.045036 328.630629 
L 539.47224 326.857471 
L 542.326649 327.396721 
L 546.608262 328.791403 
L 548.035467 329.115205 
L 549.462671 327.03108 
L 552.31708 327.736772 
L 553.744284 327.814827 
L 555.171488 328.261287 
L 556.598693 328.51558 
L 558.025897 318.901619 
L 559.453102 319.973558 
L 560.880306 320.697665 
L 562.30751 321.236324 
L 563.734715 321.937066 
L 565.161919 322.146588 
L 566.589123 322.949288 
L 572.297941 324.81642 
L 573.725145 325.722416 
L 575.15235 325.675166 
L 576.579554 325.785637 
L 580.861167 326.978837 
L 582.288371 327.524776 
L 585.14278 327.825993 
L 586.569985 328.231882 
L 589.424393 328.850003 
L 590.851598 329.226247 
L 592.278802 329.322905 
L 593.706006 326.168669 
L 596.560415 327.26022 
L 597.98762 327.52336 
L 599.414824 327.081757 
L 600.842028 327.300286 
L 602.269233 327.868267 
L 603.696437 328.044136 
L 605.123641 328.456953 
L 606.550846 328.140259 
L 607.97805 326.711934 
L 613.686868 328.166266 
L 616.541276 328.889521 
L 617.968481 328.78675 
L 619.395685 324.797145 
L 620.82289 323.936675 
L 622.250094 324.799433 
L 623.677298 325.423783 
L 625.104503 325.736741 
L 629.386116 327.186887 
L 630.81332 327.571711 
L 632.240525 327.727851 
L 633.667729 328.125673 
L 637.949342 328.7849 
L 639.376546 329.208684 
L 640.803751 329.448845 
L 642.230955 329.828782 
L 643.65816 330.345436 
L 645.085364 330.324171 
L 646.512568 330.418355 
L 646.512568 330.418355 
" clip-path="url(#p7a5b92ea1f)" style="fill: none; stroke: #ff7f0e; stroke-width: 1.2; stroke-linecap: square"/>
   </g>
   <g id="line2d_37">
    <path d="M 78.485227 248.970422 
L 79.912432 237.352512 
L 81.339636 236.708941 
L 84.194045 227.880299 
L 85.621249 230.321273 
L 87.048454 227.916458 
L 88.475658 229.773076 
L 89.902862 225.147067 
L 92.757271 204.856383 
L 94.184475 201.118291 
L 95.61168 203.399516 
L 97.038884 204.900923 
L 98.466089 191.353245 
L 101.320497 182.202508 
L 102.747702 180.602552 
L 104.174906 177.80667 
L 105.60211 167.380365 
L 107.029315 167.027331 
L 108.456519 170.156491 
L 109.883724 175.11768 
L 111.310928 174.901225 
L 112.738132 177.56301 
L 114.165337 175.823112 
L 115.592541 183.448177 
L 117.019745 186.337638 
L 118.44695 188.551341 
L 119.874154 192.672579 
L 121.301359 199.652305 
L 122.728563 203.449092 
L 124.155767 204.754049 
L 125.582972 208.821364 
L 128.43738 219.896032 
L 129.864585 223.942621 
L 131.291789 226.988193 
L 132.718994 217.609879 
L 134.146198 213.079431 
L 135.573402 215.127357 
L 137.000607 206.801888 
L 138.427811 207.795876 
L 139.855015 210.618953 
L 141.28222 208.627469 
L 142.709424 208.743009 
L 144.136629 208.166771 
L 145.563833 208.025987 
L 146.991037 210.653963 
L 148.418242 209.418899 
L 149.845446 213.986563 
L 151.27265 217.495586 
L 152.699855 221.973579 
L 154.127059 223.097527 
L 155.554263 220.373023 
L 156.981468 225.342936 
L 158.408672 223.414848 
L 159.835877 226.150726 
L 161.263081 225.393739 
L 162.690285 223.418395 
L 164.11749 221.776379 
L 165.544694 220.76517 
L 166.971898 222.869505 
L 168.399103 227.198742 
L 169.826307 228.267094 
L 172.680716 230.879438 
L 174.10792 228.294453 
L 175.535125 228.930461 
L 176.962329 228.933386 
L 178.389533 227.076427 
L 179.816738 229.23579 
L 181.243942 231.857021 
L 184.098351 242.11095 
L 185.525555 246.978936 
L 188.379964 255.392153 
L 191.234373 263.376775 
L 195.515986 273.547132 
L 196.94319 276.231244 
L 199.797599 281.831833 
L 201.224803 284.700455 
L 202.652008 286.910605 
L 205.506417 291.882761 
L 211.215234 299.67725 
L 216.924052 305.835219 
L 224.060073 312.690368 
L 225.487278 313.648707 
L 226.914482 314.87662 
L 235.477708 320.375011 
L 236.904913 321.133369 
L 238.332117 322.072122 
L 239.759322 322.829296 
L 248.322548 326.404558 
L 251.176957 327.13118 
L 252.604161 327.393264 
L 254.031365 328.08982 
L 261.167387 329.766127 
L 262.594592 330.242377 
L 264.021796 330.35247 
L 266.876205 330.985461 
L 271.157818 331.47307 
L 272.585022 331.465067 
L 276.866635 332.08162 
L 278.29384 331.955953 
L 284.002657 333.234637 
L 286.857066 333.240723 
L 292.565883 334.068846 
L 293.993088 334.337431 
L 296.847497 334.349003 
L 298.274701 334.599615 
L 301.12911 334.855231 
L 303.983518 334.871682 
L 305.410723 334.577978 
L 306.837927 334.458378 
L 309.692336 334.559841 
L 311.11954 334.388829 
L 312.546745 334.650151 
L 313.973949 334.385533 
L 319.682767 335.002486 
L 322.537175 335.009343 
L 323.96438 334.815399 
L 325.391584 334.868125 
L 326.818788 334.454105 
L 328.245993 334.360027 
L 331.100402 334.726675 
L 332.527606 334.76841 
L 335.382015 335.127065 
L 338.236423 334.64354 
L 339.663628 334.574934 
L 341.090832 334.390623 
L 343.945241 334.585526 
L 346.79965 334.872984 
L 348.226854 334.754871 
L 356.79008 335.137794 
L 358.217285 334.829842 
L 363.926102 334.497241 
L 365.353307 334.663102 
L 366.780511 334.268867 
L 368.207715 334.568993 
L 369.63492 334.68617 
L 371.062124 334.282992 
L 372.489328 334.072532 
L 373.916533 334.048039 
L 376.770942 334.517468 
L 378.198146 334.302667 
L 379.62535 334.410522 
L 381.052555 334.393936 
L 382.479759 334.07711 
L 383.906963 334.158623 
L 386.761372 334.47551 
L 388.188577 334.376367 
L 389.615781 334.475445 
L 391.042985 334.3618 
L 392.47019 334.489108 
L 393.897394 334.485198 
L 395.324598 334.272929 
L 396.751803 334.19637 
L 398.179007 333.97686 
L 402.46062 334.168248 
L 403.887825 333.969633 
L 406.742233 334.083669 
L 409.596642 334.624073 
L 411.023847 334.543192 
L 413.878255 334.810612 
L 415.30546 334.918009 
L 418.159868 334.820113 
L 419.587073 334.977787 
L 421.014277 334.838777 
L 425.29589 335.225583 
L 428.150299 335.475723 
L 429.577503 335.062518 
L 435.286321 335.019856 
L 436.713525 334.756756 
L 438.14073 334.698204 
L 439.567934 334.298624 
L 442.422343 334.187893 
L 445.276752 334.257918 
L 446.703956 334.463687 
L 448.13116 334.180059 
L 449.558365 333.706702 
L 452.412773 334.003529 
L 453.839978 333.967077 
L 455.267182 333.805202 
L 458.121591 334.209571 
L 459.548795 334.060117 
L 463.830408 334.155682 
L 465.257613 334.45066 
L 466.684817 334.422362 
L 468.112022 334.684883 
L 470.96643 334.601549 
L 473.820839 334.361806 
L 478.102452 334.712384 
L 485.238474 334.570912 
L 486.665678 334.251027 
L 489.520087 334.436345 
L 490.947292 334.077961 
L 492.374496 333.955092 
L 493.8017 334.134829 
L 495.228905 334.077381 
L 496.656109 334.249231 
L 500.937722 334.292107 
L 503.792131 334.850138 
L 508.073744 335.265236 
L 515.209766 334.611573 
L 523.772992 334.813849 
L 528.054605 335.155196 
L 532.336218 334.94092 
L 535.190627 335.222755 
L 536.617832 334.955641 
L 539.47224 334.742789 
L 540.899445 334.496942 
L 542.326649 334.55643 
L 543.753853 334.300467 
L 545.181058 334.54743 
L 546.608262 334.525538 
L 549.462671 335.092483 
L 555.171488 334.766772 
L 556.598693 334.846218 
L 558.025897 334.562701 
L 559.453102 334.409954 
L 560.880306 334.517836 
L 562.30751 334.749145 
L 563.734715 334.864168 
L 565.161919 335.137296 
L 566.589123 335.247925 
L 570.870737 334.605045 
L 575.15235 334.825936 
L 579.433963 334.666137 
L 582.288371 334.930795 
L 583.715576 334.745953 
L 585.14278 334.393157 
L 586.569985 334.519242 
L 587.997189 334.181802 
L 589.424393 334.285134 
L 592.278802 334.952614 
L 593.706006 334.782013 
L 595.133211 335.054855 
L 597.98762 335.194083 
L 599.414824 335.378527 
L 600.842028 335.246565 
L 605.123641 335.377004 
L 606.550846 335.335404 
L 607.97805 335.411361 
L 610.832459 335.079293 
L 617.968481 335.176093 
L 619.395685 334.884755 
L 622.250094 334.72533 
L 623.677298 334.661824 
L 625.104503 334.74112 
L 626.531707 334.610928 
L 629.386116 334.949749 
L 630.81332 334.9426 
L 633.667729 335.27702 
L 635.094933 335.202934 
L 636.522138 334.774228 
L 639.376546 334.408913 
L 646.512568 335.218637 
L 647.939773 335.529055 
L 647.939773 335.529055 
" clip-path="url(#p7a5b92ea1f)" style="fill: none; stroke: #2ca02c; stroke-width: 1.2; stroke-linecap: square"/>
   </g>
   <g id="line2d_38">
    <path d="M 78.485227 48.838145 
L 79.912432 52.427624 
L 81.339636 50.098505 
L 82.76684 60.495588 
L 84.194045 72.995525 
L 85.621249 79.332509 
L 87.048454 82.309608 
L 88.475658 76.353868 
L 89.902862 68.199369 
L 91.330067 59.035704 
L 92.757271 59.369934 
L 95.61168 74.918606 
L 97.038884 75.594755 
L 98.466089 78.088555 
L 99.893293 82.063033 
L 101.320497 76.874904 
L 102.747702 66.952053 
L 104.174906 70.860428 
L 107.029315 82.089557 
L 108.456519 81.525864 
L 109.883724 68.303493 
L 111.310928 73.085565 
L 112.738132 74.006625 
L 114.165337 73.257054 
L 115.592541 67.768554 
L 117.019745 69.380771 
L 118.44695 65.489624 
L 119.874154 65.107598 
L 121.301359 65.821844 
L 122.728563 57.67753 
L 124.155767 56.098863 
L 125.582972 55.981961 
L 127.010176 62.875632 
L 128.43738 73.012272 
L 129.864585 62.28654 
L 131.291789 69.997813 
L 134.146198 96.088228 
L 137.000607 119.491249 
L 139.855015 140.176849 
L 141.28222 149.951425 
L 145.563833 176.094604 
L 146.991037 184.157951 
L 151.27265 205.884536 
L 154.127059 218.533068 
L 158.408672 235.053306 
L 159.835877 239.390168 
L 161.263081 244.396393 
L 165.544694 257.318645 
L 168.399103 264.310549 
L 171.253512 271.247335 
L 174.10792 277.502581 
L 175.535125 279.974095 
L 178.389533 285.491023 
L 182.671147 292.573956 
L 185.525555 296.901134 
L 191.234373 304.365113 
L 195.515986 308.949859 
L 198.370395 311.244385 
L 199.797599 312.784576 
L 201.224803 314.052547 
L 202.652008 314.882089 
L 204.079212 316.055924 
L 206.933621 317.98083 
L 208.360825 319.036744 
L 211.215234 320.604722 
L 212.642438 321.18653 
L 215.496847 322.696166 
L 216.924052 323.331471 
L 218.351256 323.825993 
L 219.77846 324.030214 
L 222.632869 325.215827 
L 226.914482 326.563316 
L 228.341687 327.062539 
L 229.768891 327.365323 
L 231.196095 327.537889 
L 232.6233 328.034052 
L 235.477708 328.413584 
L 236.904913 327.735021 
L 239.759322 328.556357 
L 241.186526 328.768068 
L 244.040935 329.688855 
L 245.468139 329.819442 
L 248.322548 330.533341 
L 249.749752 330.50973 
L 251.176957 330.730068 
L 252.604161 330.694052 
L 254.031365 330.912737 
L 258.312978 331.034622 
L 264.021796 332.068673 
L 265.449 331.842759 
L 266.876205 330.276682 
L 271.157818 330.638846 
L 274.012227 331.165703 
L 275.439431 331.231367 
L 276.866635 331.575454 
L 279.721044 332.078822 
L 281.148248 332.012811 
L 282.575453 332.172001 
L 284.002657 329.777393 
L 285.429862 330.132498 
L 286.857066 330.258102 
L 288.28427 330.536057 
L 289.711475 330.577709 
L 291.138679 330.800542 
L 292.565883 331.163034 
L 295.420292 331.203911 
L 296.847497 331.557489 
L 298.274701 331.761868 
L 301.12911 332.331193 
L 303.983518 332.640815 
L 305.410723 332.959275 
L 306.837927 332.792552 
L 308.265132 332.913084 
L 311.11954 332.844579 
L 313.973949 333.413452 
L 315.401153 333.440965 
L 316.828358 333.803672 
L 318.255562 333.885929 
L 321.109971 333.737551 
L 323.96438 333.053806 
L 325.391584 332.83477 
L 326.818788 332.846189 
L 328.245993 333.008721 
L 329.673197 333.338449 
L 331.100402 333.403879 
L 332.527606 333.12101 
L 335.382015 333.112838 
L 338.236423 333.332307 
L 339.663628 333.209037 
L 345.372445 333.818699 
L 355.362876 334.483067 
L 358.217285 334.390325 
L 359.644489 334.238713 
L 362.498898 334.632831 
L 363.926102 334.4041 
L 366.780511 334.607361 
L 368.207715 334.581724 
L 369.63492 334.40005 
L 371.062124 333.99675 
L 372.489328 334.022797 
L 373.916533 333.76351 
L 376.770942 333.787739 
L 378.198146 332.313924 
L 379.62535 332.291344 
L 381.052555 332.627575 
L 382.479759 332.813646 
L 383.906963 333.152882 
L 385.334168 333.240002 
L 386.761372 333.465744 
L 388.188577 333.488007 
L 391.042985 333.817486 
L 392.47019 333.755751 
L 393.897394 333.815867 
L 395.324598 333.548793 
L 396.751803 333.543886 
L 398.179007 333.78526 
L 399.606212 333.585697 
L 401.033416 331.563569 
L 405.315029 332.399368 
L 406.742233 332.620734 
L 408.169438 332.6514 
L 411.023847 333.124315 
L 412.451051 333.08204 
L 413.878255 333.36904 
L 415.30546 333.401501 
L 416.732664 333.313147 
L 418.159868 333.380857 
L 423.868686 334.114359 
L 426.723095 334.262266 
L 428.150299 334.453071 
L 429.577503 334.514743 
L 431.004708 334.775029 
L 432.431912 334.388308 
L 433.859117 334.578778 
L 436.713525 334.626104 
L 438.14073 334.600165 
L 439.567934 334.938551 
L 440.995138 334.879361 
L 442.422343 334.950067 
L 443.849547 334.711678 
L 446.703956 334.729584 
L 448.13116 334.635011 
L 449.558365 334.780544 
L 450.985569 334.69078 
L 453.839978 335.160995 
L 456.694387 334.925728 
L 458.121591 335.086661 
L 460.976 334.782806 
L 462.403204 334.760523 
L 463.830408 334.551057 
L 466.684817 333.782163 
L 469.539226 334.184716 
L 470.96643 334.161648 
L 472.393635 334.324979 
L 475.248043 334.341403 
L 476.675248 334.411699 
L 478.102452 334.182844 
L 479.529657 334.374257 
L 480.956861 334.042636 
L 482.384065 333.934259 
L 483.81127 334.034232 
L 485.238474 334.247715 
L 486.665678 332.973518 
L 488.092883 333.090597 
L 489.520087 333.352284 
L 490.947292 333.219916 
L 492.374496 333.630179 
L 493.8017 333.473222 
L 499.510518 333.728741 
L 500.937722 333.957556 
L 502.364927 333.919324 
L 503.792131 334.050905 
L 505.219335 333.887352 
L 506.64654 334.063027 
L 512.355357 334.181664 
L 513.782562 334.412003 
L 515.209766 334.243727 
L 518.064175 334.515967 
L 519.491379 334.499826 
L 520.918583 334.662146 
L 522.345788 334.955901 
L 525.200197 335.292179 
L 528.054605 335.414401 
L 529.48181 333.644695 
L 530.909014 333.689116 
L 533.763423 334.193354 
L 535.190627 333.991554 
L 538.045036 334.015229 
L 539.47224 334.253716 
L 540.899445 334.618321 
L 542.326649 334.269939 
L 543.753853 334.115461 
L 545.181058 334.237158 
L 548.035467 333.823982 
L 550.889875 334.06139 
L 553.744284 333.874719 
L 555.171488 334.140365 
L 556.598693 334.088278 
L 558.025897 334.31218 
L 559.453102 334.324228 
L 560.880306 334.198597 
L 563.734715 334.398873 
L 565.161919 334.367718 
L 566.589123 334.457228 
L 568.016328 333.714544 
L 569.443532 331.714469 
L 570.870737 331.916837 
L 572.297941 332.241872 
L 573.725145 332.279377 
L 575.15235 330.291176 
L 578.006758 330.46141 
L 579.433963 331.072518 
L 580.861167 331.138676 
L 582.288371 330.922297 
L 583.715576 331.259794 
L 585.14278 331.480195 
L 586.569985 331.917865 
L 590.851598 332.325549 
L 592.278802 332.240748 
L 593.706006 332.356897 
L 595.133211 332.598389 
L 596.560415 332.695423 
L 597.98762 333.0224 
L 599.414824 332.989882 
L 600.842028 332.455835 
L 603.696437 332.956218 
L 606.550846 333.190295 
L 607.97805 333.446028 
L 612.259663 333.6892 
L 615.114072 333.658931 
L 616.541276 333.837926 
L 617.968481 331.84061 
L 619.395685 332.275392 
L 620.82289 332.283965 
L 623.677298 332.991511 
L 625.104503 333.140584 
L 626.531707 333.167642 
L 627.958911 332.980249 
L 629.386116 333.196131 
L 636.522138 333.426986 
L 637.949342 333.058955 
L 639.376546 333.207741 
L 640.803751 333.485736 
L 645.085364 333.890026 
L 647.939773 333.80854 
L 647.939773 333.80854 
" clip-path="url(#p7a5b92ea1f)" style="fill: none; stroke: #d62728; stroke-width: 1.2; stroke-linecap: square"/>
   </g>
   <g id="line2d_39">
    <path d="M 78.485227 289.335441 
L 79.912432 279.679157 
L 81.339636 269.007189 
L 82.76684 262.373369 
L 84.194045 258.418015 
L 85.621249 261.601442 
L 87.048454 264.35291 
L 88.475658 264.05973 
L 89.902862 265.87646 
L 91.330067 268.880485 
L 92.757271 269.054563 
L 95.61168 275.696583 
L 98.466089 281.635018 
L 101.320497 286.649826 
L 104.174906 291.405411 
L 107.029315 295.875517 
L 111.310928 301.61896 
L 112.738132 302.815393 
L 114.165337 302.508063 
L 115.592541 304.24348 
L 118.44695 307.316755 
L 119.874154 308.578817 
L 121.301359 310.022127 
L 122.728563 311.236123 
L 125.582972 313.963533 
L 127.010176 315.104565 
L 128.43738 316.059922 
L 129.864585 314.324836 
L 131.291789 315.562321 
L 138.427811 319.446641 
L 139.855015 320.120672 
L 142.709424 321.05997 
L 144.136629 321.824633 
L 146.991037 322.969999 
L 148.418242 323.015945 
L 149.845446 323.715253 
L 152.699855 324.592384 
L 154.127059 325.189153 
L 155.554263 325.663037 
L 156.981468 325.901855 
L 158.408672 326.535249 
L 159.835877 326.815442 
L 161.263081 327.45974 
L 162.690285 327.767177 
L 165.544694 328.738095 
L 168.399103 329.238928 
L 171.253512 329.975613 
L 174.10792 330.43153 
L 176.962329 330.865482 
L 178.389533 330.9859 
L 179.816738 331.345578 
L 182.671147 331.684083 
L 184.098351 331.950968 
L 185.525555 331.82135 
L 186.95276 332.270985 
L 188.379964 332.297346 
L 189.807168 332.500525 
L 191.234373 332.485791 
L 194.088782 332.817424 
L 199.797599 333.143591 
L 201.224803 333.120365 
L 209.78803 334.217884 
L 211.215234 333.881593 
L 212.642438 334.094434 
L 214.069643 334.106063 
L 215.496847 333.886954 
L 216.924052 333.901101 
L 221.205665 334.400236 
L 224.060073 334.211026 
L 228.341687 334.22555 
L 229.768891 334.170193 
L 231.196095 334.000398 
L 232.6233 334.306256 
L 234.050504 334.348657 
L 235.477708 334.022668 
L 236.904913 334.100334 
L 238.332117 333.780163 
L 239.759322 333.902465 
L 241.186526 333.66819 
L 244.040935 333.797841 
L 246.895343 333.699641 
L 248.322548 333.332731 
L 249.749752 333.21373 
L 251.176957 333.521176 
L 255.45857 333.570563 
L 256.885774 333.142354 
L 258.312978 333.323474 
L 261.167387 333.097052 
L 262.594592 333.308947 
L 266.876205 333.466698 
L 269.730613 333.40015 
L 271.157818 333.514835 
L 272.585022 333.882182 
L 278.29384 334.588704 
L 282.575453 333.86524 
L 284.002657 333.981504 
L 285.429862 333.821275 
L 286.857066 333.834335 
L 289.711475 334.115942 
L 296.847497 334.295202 
L 298.274701 334.521688 
L 299.701905 334.593392 
L 301.12911 334.399338 
L 305.410723 334.379538 
L 306.837927 334.120878 
L 308.265132 334.387473 
L 309.692336 334.396674 
L 311.11954 334.211433 
L 312.546745 334.371381 
L 315.401153 334.441163 
L 316.828358 334.246476 
L 318.255562 334.246011 
L 319.682767 334.707615 
L 321.109971 334.522904 
L 322.537175 334.003309 
L 326.818788 333.710769 
L 328.245993 334.028971 
L 329.673197 333.86641 
L 332.527606 333.934278 
L 335.382015 334.150756 
L 336.809219 334.426023 
L 338.236423 334.40467 
L 339.663628 334.594204 
L 342.518037 335.258687 
L 348.226854 335.082815 
L 349.654058 334.917833 
L 353.935672 334.995453 
L 355.362876 334.842447 
L 359.644489 335.117791 
L 361.071693 334.993876 
L 362.498898 333.329719 
L 363.926102 333.147514 
L 365.353307 332.764355 
L 369.63492 332.802458 
L 371.062124 333.024544 
L 373.916533 332.953689 
L 375.343737 333.395291 
L 376.770942 333.518522 
L 378.198146 333.474105 
L 379.62535 333.232001 
L 382.479759 333.131899 
L 383.906963 333.398227 
L 385.334168 333.201369 
L 388.188577 333.842295 
L 389.615781 333.873049 
L 391.042985 334.063611 
L 392.47019 333.767236 
L 395.324598 333.731888 
L 396.751803 333.841568 
L 399.606212 333.507094 
L 401.033416 333.413004 
L 402.46062 333.569726 
L 403.887825 333.96367 
L 405.315029 333.733708 
L 406.742233 333.739213 
L 408.169438 331.8442 
L 412.451051 332.483376 
L 415.30546 332.509825 
L 416.732664 332.881739 
L 418.159868 330.222129 
L 421.014277 330.823373 
L 422.441482 331.164583 
L 423.868686 331.311244 
L 426.723095 331.431427 
L 428.150299 331.197919 
L 431.004708 331.929334 
L 432.431912 332.113431 
L 433.859117 332.18452 
L 438.14073 331.564675 
L 440.995138 331.91573 
L 442.422343 331.34664 
L 443.849547 331.692878 
L 445.276752 331.768194 
L 448.13116 331.603373 
L 449.558365 331.984076 
L 450.985569 332.05387 
L 452.412773 332.312827 
L 453.839978 332.42333 
L 458.121591 333.177856 
L 460.976 333.003221 
L 462.403204 333.003794 
L 463.830408 332.613693 
L 465.257613 333.018515 
L 466.684817 333.209829 
L 468.112022 333.070369 
L 469.539226 333.397952 
L 473.820839 333.487007 
L 475.248043 333.268687 
L 476.675248 333.332215 
L 479.529657 333.734957 
L 480.956861 333.784009 
L 482.384065 333.618146 
L 483.81127 333.885805 
L 485.238474 333.722688 
L 486.665678 333.895374 
L 488.092883 333.953693 
L 490.947292 333.813464 
L 492.374496 333.972906 
L 493.8017 334.274152 
L 495.228905 334.306442 
L 496.656109 334.05079 
L 499.510518 333.956738 
L 500.937722 333.732457 
L 502.364927 331.492787 
L 503.792131 331.453176 
L 506.64654 332.18856 
L 508.073744 332.102475 
L 509.500948 332.288905 
L 510.928153 332.140731 
L 512.355357 332.169214 
L 513.782562 332.034229 
L 515.209766 332.16764 
L 516.63697 332.611191 
L 518.064175 332.833644 
L 525.200197 333.058459 
L 526.627401 332.865272 
L 528.054605 333.065522 
L 529.48181 332.998853 
L 530.909014 333.222311 
L 532.336218 333.147302 
L 533.763423 333.411913 
L 535.190627 331.428302 
L 536.617832 331.764495 
L 538.045036 331.790331 
L 539.47224 332.015714 
L 540.899445 331.723405 
L 543.753853 331.906726 
L 545.181058 332.102009 
L 546.608262 332.42326 
L 548.035467 332.141233 
L 550.889875 332.455297 
L 555.171488 332.529952 
L 559.453102 332.533603 
L 560.880306 332.629868 
L 562.30751 332.967078 
L 563.734715 333.092178 
L 565.161919 333.502796 
L 568.016328 333.269578 
L 569.443532 330.633263 
L 570.870737 327.637982 
L 572.297941 327.72461 
L 573.725145 328.033954 
L 575.15235 328.458718 
L 585.14278 330.465132 
L 589.424393 330.879459 
L 590.851598 329.478962 
L 593.706006 330.03283 
L 595.133211 330.105312 
L 597.98762 330.617579 
L 599.414824 330.93609 
L 600.842028 331.009352 
L 602.269233 331.211877 
L 605.123641 331.456893 
L 606.550846 331.627022 
L 607.97805 331.995973 
L 609.405255 331.913372 
L 613.686868 332.263853 
L 615.114072 332.674162 
L 617.968481 332.718924 
L 619.395685 332.493632 
L 620.82289 332.544618 
L 623.677298 332.331319 
L 627.958911 332.708373 
L 630.81332 332.457079 
L 632.240525 332.306405 
L 635.094933 332.711569 
L 636.522138 332.924839 
L 637.949342 332.939434 
L 639.376546 333.239326 
L 646.512568 333.799138 
L 646.512568 333.799138 
" clip-path="url(#p7a5b92ea1f)" style="fill: none; stroke: #9b8ac9; stroke-width: 1.2; stroke-linecap: square"/>
   </g>
   <g id="patch_3">
    <path d="M 50.0125 349.8636 
L 50.0125 34.5036 
" style="fill: none; stroke: #000000; stroke-width: 0.8; stroke-linejoin: miter; stroke-linecap: square"/>
   </g>
   <g id="patch_4">
    <path d="M 676.4125 349.8636 
L 676.4125 34.5036 
" style="fill: none; stroke: #000000; stroke-width: 0.8; stroke-linejoin: miter; stroke-linecap: square"/>
   </g>
   <g id="patch_5">
    <path d="M 50.0125 349.8636 
L 676.4125 349.8636 
" style="fill: none; stroke: #000000; stroke-width: 0.8; stroke-linejoin: miter; stroke-linecap: square"/>
   </g>
   <g id="patch_6">
    <path d="M 50.0125 34.5036 
L 676.4125 34.5036 
" style="fill: none; stroke: #000000; stroke-width: 0.8; stroke-linejoin: miter; stroke-linecap: square"/>
   </g>
   <g id="legend_1">
    <g id="patch_7">
     <path d="M 50.0125 31.35 
L 676.4125 31.35 
L 676.4125 7.2 
L 50.0125 7.2 
z
" style="fill: #ffffff; stroke: #808080; stroke-width: 0.8; stroke-linejoin: miter"/>
    </g>
    <g id="line2d_40">
     <path d="M 56.3125 18.4 
L 70.3125 18.4 
L 84.3125 18.4 
" style="fill: none; stroke: #1f77b4; stroke-width: 1.2; stroke-linecap: square"/>
    </g>
    <g id="text_20">
     <!-- DDPG -->
     <g transform="translate(92.7125 23.3) scale(0.14 -0.14)">
      <defs>
       <path id="SimHei-44" d="M 2925 2250 
Q 2925 1100 2437 612 
Q 1950 125 1125 125 
L 275 125 
L 275 4400 
L 1125 4400 
Q 2050 4400 2487 3900 
Q 2925 3400 2925 2250 
z
M 2325 2250 
Q 2325 3175 2025 3550 
Q 1725 3925 1125 3925 
L 850 3925 
L 850 600 
L 1125 600 
Q 1725 600 2025 962 
Q 2325 1325 2325 2250 
z
" transform="scale(0.015625)"/>
       <path id="SimHei-50" d="M 2950 3100 
Q 2950 2500 2600 2150 
Q 2250 1800 1625 1800 
L 900 1800 
L 900 125 
L 325 125 
L 325 4400 
L 1625 4400 
Q 2250 4400 2600 4050 
Q 2950 3700 2950 3100 
z
M 2375 3100 
Q 2375 3575 2150 3750 
Q 1925 3925 1475 3925 
L 900 3925 
L 900 2275 
L 1475 2275 
Q 1925 2275 2150 2450 
Q 2375 2625 2375 3100 
z
" transform="scale(0.015625)"/>
       <path id="SimHei-47" d="M 2850 75 
L 2425 75 
L 2350 425 
Q 2250 275 2037 175 
Q 1825 75 1575 75 
Q 1050 75 637 562 
Q 225 1050 225 2125 
Q 225 3300 600 3875 
Q 975 4450 1625 4450 
Q 2200 4450 2525 4025 
Q 2850 3600 2850 2925 
L 2300 2925 
Q 2300 3450 2125 3712 
Q 1950 3975 1625 3975 
Q 1225 3975 1025 3562 
Q 825 3150 825 2175 
Q 825 1250 1075 900 
Q 1325 550 1650 550 
Q 1975 550 2162 787 
Q 2350 1025 2350 1525 
L 2350 1800 
L 1575 1800 
L 1575 2275 
L 2850 2275 
L 2850 75 
z
" transform="scale(0.015625)"/>
      </defs>
      <use xlink:href="#SimHei-44"/>
      <use xlink:href="#SimHei-44" transform="translate(50 0)"/>
      <use xlink:href="#SimHei-50" transform="translate(100 0)"/>
      <use xlink:href="#SimHei-47" transform="translate(150 0)"/>
     </g>
    </g>
    <g id="line2d_41">
     <path d="M 186.6625 18.4 
L 200.6625 18.4 
L 214.6625 18.4 
" style="fill: none; stroke: #ff7f0e; stroke-width: 1.2; stroke-linecap: square"/>
    </g>
    <g id="text_21">
     <!-- PPO -->
     <g transform="translate(223.0625 23.3) scale(0.14 -0.14)">
      <defs>
       <path id="SimHei-4f" d="M 2950 2275 
Q 2950 1100 2587 587 
Q 2225 75 1575 75 
Q 925 75 550 587 
Q 175 1100 175 2275 
Q 175 3450 550 3950 
Q 925 4450 1575 4450 
Q 2225 4450 2587 3950 
Q 2950 3450 2950 2275 
z
M 2350 2275 
Q 2350 3325 2125 3650 
Q 1900 3975 1575 3975 
Q 1250 3975 1012 3650 
Q 775 3325 775 2275 
Q 775 1225 1012 887 
Q 1250 550 1575 550 
Q 1900 550 2125 887 
Q 2350 1225 2350 2275 
z
" transform="scale(0.015625)"/>
      </defs>
      <use xlink:href="#SimHei-50"/>
      <use xlink:href="#SimHei-50" transform="translate(50 0)"/>
      <use xlink:href="#SimHei-4f" transform="translate(100 0)"/>
     </g>
    </g>
    <g id="line2d_42">
     <path d="M 310.0125 18.4 
L 324.0125 18.4 
L 338.0125 18.4 
" style="fill: none; stroke: #2ca02c; stroke-width: 1.2; stroke-linecap: square"/>
    </g>
    <g id="text_22">
     <!-- TD3 -->
     <g transform="translate(346.4125 23.3) scale(0.14 -0.14)">
      <use xlink:href="#SimHei-54"/>
      <use xlink:href="#SimHei-44" transform="translate(50 0)"/>
      <use xlink:href="#SimHei-33" transform="translate(100 0)"/>
     </g>
    </g>
    <g id="line2d_43">
     <path d="M 433.3625 18.4 
L 447.3625 18.4 
L 461.3625 18.4 
" style="fill: none; stroke: #d62728; stroke-width: 1.2; stroke-linecap: square"/>
    </g>
    <g id="text_23">
     <!-- GCN-DDQN -->
     <g transform="translate(469.7625 23.3) scale(0.14 -0.14)">
      <defs>
       <path id="SimHei-43" d="M 2975 1825 
Q 2950 875 2575 475 
Q 2200 75 1675 75 
Q 1075 75 650 562 
Q 225 1050 225 2125 
Q 225 3300 637 3875 
Q 1050 4450 1700 4450 
Q 2250 4450 2612 4037 
Q 2975 3625 2950 2875 
L 2400 2875 
Q 2400 3425 2225 3700 
Q 2050 3975 1700 3975 
Q 1300 3975 1062 3562 
Q 825 3150 825 2175 
Q 825 1275 1062 912 
Q 1300 550 1675 550 
Q 1950 550 2175 812 
Q 2400 1075 2400 1825 
L 2975 1825 
z
" transform="scale(0.015625)"/>
       <path id="SimHei-4e" d="M 2850 125 
L 2225 125 
L 850 3225 
L 825 3225 
L 825 125 
L 250 125 
L 250 4400 
L 875 4400 
L 2250 1300 
L 2275 1300 
L 2275 4400 
L 2850 4400 
L 2850 125 
z
" transform="scale(0.015625)"/>
       <path id="SimHei-2d" d="M 2975 2125 
L 125 2125 
L 125 2525 
L 2975 2525 
L 2975 2125 
z
" transform="scale(0.015625)"/>
       <path id="SimHei-51" d="M 2950 2275 
Q 2950 1675 2862 1262 
Q 2775 850 2575 600 
L 2775 225 
L 2375 -200 
L 2150 225 
Q 2050 150 1900 112 
Q 1750 75 1575 75 
Q 925 75 550 587 
Q 175 1100 175 2275 
Q 175 3450 550 3950 
Q 925 4450 1575 4450 
Q 2225 4450 2587 3950 
Q 2950 3450 2950 2275 
z
M 2350 2275 
Q 2350 3325 2125 3650 
Q 1900 3975 1575 3975 
Q 1250 3975 1012 3650 
Q 775 3325 775 2275 
Q 775 1225 1012 887 
Q 1250 550 1575 550 
Q 1700 550 1800 587 
Q 1900 625 1950 675 
L 1550 1450 
L 1900 1875 
L 2250 1200 
Q 2300 1450 2325 1650 
Q 2350 1850 2350 2275 
z
" transform="scale(0.015625)"/>
      </defs>
      <use xlink:href="#SimHei-47"/>
      <use xlink:href="#SimHei-43" transform="translate(50 0)"/>
      <use xlink:href="#SimHei-4e" transform="translate(100 0)"/>
      <use xlink:href="#SimHei-2d" transform="translate(150 0)"/>
      <use xlink:href="#SimHei-44" transform="translate(200 0)"/>
      <use xlink:href="#SimHei-44" transform="translate(250 0)"/>
      <use xlink:href="#SimHei-51" transform="translate(300 0)"/>
      <use xlink:href="#SimHei-4e" transform="translate(350 0)"/>
     </g>
    </g>
    <g id="line2d_44">
     <path d="M 591.7125 18.4 
L 605.7125 18.4 
L 619.7125 18.4 
" style="fill: none; stroke: #9b8ac9; stroke-width: 1.2; stroke-linecap: square"/>
    </g>
    <g id="text_24">
     <!-- GLDVTO -->
     <g transform="translate(628.1125 23.3) scale(0.14 -0.14)">
      <defs>
       <path id="SimHei-4c" d="M 2900 125 
L 300 125 
L 300 4400 
L 875 4400 
L 875 600 
L 2900 600 
L 2900 125 
z
" transform="scale(0.015625)"/>
       <path id="SimHei-56" d="M 3050 4400 
L 1800 75 
L 1300 75 
L 50 4400 
L 650 4400 
L 1525 1125 
L 1575 1125 
L 2450 4400 
L 3050 4400 
z
" transform="scale(0.015625)"/>
      </defs>
      <use xlink:href="#SimHei-47"/>
      <use xlink:href="#SimHei-4c" transform="translate(50 0)"/>
      <use xlink:href="#SimHei-44" transform="translate(100 0)"/>
      <use xlink:href="#SimHei-56" transform="translate(150 0)"/>
      <use xlink:href="#SimHei-54" transform="translate(200 0)"/>
      <use xlink:href="#SimHei-4f" transform="translate(250 0)"/>
     </g>
    </g>
   </g>
  </g>
 </g>
 <defs>
  <clipPath id="p7a5b92ea1f">
   <rect x="50.0125" y="34.5036" width="626.4" height="315.36"/>
  </clipPath>
 </defs>
</svg>
