<?xml version="1.0" encoding="utf-8" standalone="no"?>
<!DOCTYPE svg PUBLIC "-//W3C//DTD SVG 1.1//EN"
  "http://www.w3.org/Graphics/SVG/1.1/DTD/svg11.dtd">
<svg xmlns:xlink="http://www.w3.org/1999/xlink" width="614.4pt" height="397.915pt" viewBox="0 0 614.4 397.915" xmlns="http://www.w3.org/2000/svg" version="1.1">
 <metadata>
  <rdf:RDF xmlns:dc="http://purl.org/dc/elements/1.1/" xmlns:cc="http://creativecommons.org/ns#" xmlns:rdf="http://www.w3.org/1999/02/22-rdf-syntax-ns#">
   <cc:Work>
    <dc:type rdf:resource="http://purl.org/dc/dcmitype/StillImage"/>
    <dc:date>2026-06-26T14:57:04.568509</dc:date>
    <dc:format>image/svg+xml</dc:format>
    <dc:creator>
     <cc:Agent>
      <dc:title>Matplotlib v3.10.7, https://matplotlib.org/</dc:title>
     </cc:Agent>
    </dc:creator>
   </cc:Work>
  </rdf:RDF>
 </metadata>
 <defs>
  <style type="text/css">*{stroke-linejoin: round; stroke-linecap: butt}</style>
 </defs>
 <g id="figure_1">
  <g id="patch_1">
   <path d="M 0 397.915 
L 614.4 397.915 
L 614.4 -0 
L 0 -0 
z
" style="fill: #ffffff"/>
  </g>
  <g id="axes_1">
   <g id="patch_2">
    <path d="M 49.2 356.965 
L 607.2 356.965 
L 607.2 24.325 
L 49.2 24.325 
z
" style="fill: #ffffff"/>
   </g>
   <g id="matplotlib.axis_1">
    <g id="xtick_1">
     <g id="line2d_1">
      <path d="M 74.563636 356.965 
L 74.563636 24.325 
" clip-path="url(#p5075dd0e45)" style="fill: none; stroke: #b0b0b0; stroke-opacity: 0.3; stroke-width: 0.8; stroke-linecap: square"/>
     </g>
     <g id="line2d_2">
      <defs>
       <path id="m97658095b0" d="M 0 0 
L 0 3.5 
" style="stroke: #000000; stroke-width: 0.8"/>
      </defs>
      <g>
       <use xlink:href="#m97658095b0" x="74.563636" y="356.965" style="stroke: #000000; stroke-width: 0.8"/>
      </g>
     </g>
     <g id="text_1">
      <!-- 0 -->
      <g transform="translate(71.563636 372.215) scale(0.12 -0.12)">
       <defs>
        <path id="SimHei-30" d="M 225 2537 
Q 250 3200 412 3587 
Q 575 3975 875 4225 
Q 1175 4475 1612 4475 
Q 2050 4475 2375 4112 
Q 2700 3750 2800 3200 
Q 2900 2650 2862 1937 
Q 2825 1225 2612 775 
Q 2400 325 1975 150 
Q 1550 -25 1125 187 
Q 700 400 525 750 
Q 350 1100 275 1487 
Q 200 1875 225 2537 
z
M 750 2687 
Q 675 2000 800 1462 
Q 925 925 1212 700 
Q 1500 475 1800 612 
Q 2100 750 2237 1162 
Q 2375 1575 2375 2062 
Q 2375 2550 2337 2950 
Q 2300 3350 2112 3675 
Q 1925 4000 1612 4012 
Q 1300 4025 1062 3700 
Q 825 3375 750 2687 
z
" transform="scale(0.015625)"/>
       </defs>
       <use xlink:href="#SimHei-30"/>
      </g>
     </g>
    </g>
    <g id="xtick_2">
     <g id="line2d_3">
      <path d="M 138.131647 356.965 
L 138.131647 24.325 
" clip-path="url(#p5075dd0e45)" style="fill: none; stroke: #b0b0b0; stroke-opacity: 0.3; stroke-width: 0.8; stroke-linecap: square"/>
     </g>
     <g id="line2d_4">
      <g>
       <use xlink:href="#m97658095b0" x="138.131647" y="356.965" style="stroke: #000000; stroke-width: 0.8"/>
      </g>
     </g>
     <g id="text_2">
      <!-- 50 -->
      <g transform="translate(132.131647 372.215) scale(0.12 -0.12)">
       <defs>
        <path id="SimHei-35" d="M 550 1325 
Q 725 650 1150 575 
Q 1575 500 1837 662 
Q 2100 825 2212 1087 
Q 2325 1350 2312 1675 
Q 2300 2000 2137 2225 
Q 1975 2450 1725 2525 
Q 1475 2600 1162 2525 
Q 850 2450 650 2175 
L 225 2225 
Q 275 2375 700 4375 
L 2675 4375 
L 2675 3925 
L 1075 3925 
Q 950 3250 825 2850 
Q 1200 3025 1525 3012 
Q 1850 3000 2150 2862 
Q 2450 2725 2587 2487 
Q 2725 2250 2787 2012 
Q 2850 1775 2837 1500 
Q 2825 1225 2725 937 
Q 2625 650 2425 462 
Q 2225 275 1937 162 
Q 1650 50 1275 75 
Q 900 100 562 350 
Q 225 600 100 1200 
L 550 1325 
z
" transform="scale(0.015625)"/>
       </defs>
       <use xlink:href="#SimHei-35"/>
       <use xlink:href="#SimHei-30" transform="translate(50 0)"/>
      </g>
     </g>
    </g>
    <g id="xtick_3">
     <g id="line2d_5">
      <path d="M 201.699658 356.965 
L 201.699658 24.325 
" clip-path="url(#p5075dd0e45)" style="fill: none; stroke: #b0b0b0; stroke-opacity: 0.3; stroke-width: 0.8; stroke-linecap: square"/>
     </g>
     <g id="line2d_6">
      <g>
       <use xlink:href="#m97658095b0" x="201.699658" y="356.965" style="stroke: #000000; stroke-width: 0.8"/>
      </g>
     </g>
     <g id="text_3">
      <!-- 100 -->
      <g transform="translate(192.699658 372.215) scale(0.12 -0.12)">
       <defs>
        <path id="SimHei-31" d="M 1400 3600 
Q 1075 3275 575 2975 
L 575 3450 
Q 1200 3875 1600 4450 
L 1900 4450 
L 1900 150 
L 1400 150 
L 1400 3600 
z
" transform="scale(0.015625)"/>
       </defs>
       <use xlink:href="#SimHei-31"/>
       <use xlink:href="#SimHei-30" transform="translate(50 0)"/>
       <use xlink:href="#SimHei-30" transform="translate(100 0)"/>
      </g>
     </g>
    </g>
    <g id="xtick_4">
     <g id="line2d_7">
      <path d="M 265.267669 356.965 
L 265.267669 24.325 
" clip-path="url(#p5075dd0e45)" style="fill: none; stroke: #b0b0b0; stroke-opacity: 0.3; stroke-width: 0.8; stroke-linecap: square"/>
     </g>
     <g id="line2d_8">
      <g>
       <use xlink:href="#m97658095b0" x="265.267669" y="356.965" style="stroke: #000000; stroke-width: 0.8"/>
      </g>
     </g>
     <g id="text_4">
      <!-- 150 -->
      <g transform="translate(256.267669 372.215) scale(0.12 -0.12)">
       <use xlink:href="#SimHei-31"/>
       <use xlink:href="#SimHei-35" transform="translate(50 0)"/>
       <use xlink:href="#SimHei-30" transform="translate(100 0)"/>
      </g>
     </g>
    </g>
    <g id="xtick_5">
     <g id="line2d_9">
      <path d="M 328.83568 356.965 
L 328.83568 24.325 
" clip-path="url(#p5075dd0e45)" style="fill: none; stroke: #b0b0b0; stroke-opacity: 0.3; stroke-width: 0.8; stroke-linecap: square"/>
     </g>
     <g id="line2d_10">
      <g>
       <use xlink:href="#m97658095b0" x="328.83568" y="356.965" style="stroke: #000000; stroke-width: 0.8"/>
      </g>
     </g>
     <g id="text_5">
      <!-- 200 -->
      <g transform="translate(319.83568 372.215) scale(0.12 -0.12)">
       <defs>
        <path id="SimHei-32" d="M 300 250 
Q 325 625 650 925 
Q 975 1225 1475 1862 
Q 1975 2500 2125 2850 
Q 2275 3200 2237 3450 
Q 2200 3700 2000 3862 
Q 1800 4025 1537 4000 
Q 1275 3975 1037 3800 
Q 800 3625 675 3275 
L 200 3350 
Q 400 3925 712 4187 
Q 1025 4450 1450 4475 
Q 1700 4500 1900 4462 
Q 2100 4425 2312 4287 
Q 2525 4150 2662 3875 
Q 2800 3600 2762 3212 
Q 2725 2825 2375 2287 
Q 2025 1750 1025 600 
L 2825 600 
L 2825 150 
L 300 150 
L 300 250 
z
" transform="scale(0.015625)"/>
       </defs>
       <use xlink:href="#SimHei-32"/>
       <use xlink:href="#SimHei-30" transform="translate(50 0)"/>
       <use xlink:href="#SimHei-30" transform="translate(100 0)"/>
      </g>
     </g>
    </g>
    <g id="xtick_6">
     <g id="line2d_11">
      <path d="M 392.403691 356.965 
L 392.403691 24.325 
" clip-path="url(#p5075dd0e45)" style="fill: none; stroke: #b0b0b0; stroke-opacity: 0.3; stroke-width: 0.8; stroke-linecap: square"/>
     </g>
     <g id="line2d_12">
      <g>
       <use xlink:href="#m97658095b0" x="392.403691" y="356.965" style="stroke: #000000; stroke-width: 0.8"/>
      </g>
     </g>
     <g id="text_6">
      <!-- 250 -->
      <g transform="translate(383.403691 372.215) scale(0.12 -0.12)">
       <use xlink:href="#SimHei-32"/>
       <use xlink:href="#SimHei-35" transform="translate(50 0)"/>
       <use xlink:href="#SimHei-30" transform="translate(100 0)"/>
      </g>
     </g>
    </g>
    <g id="xtick_7">
     <g id="line2d_13">
      <path d="M 455.971702 356.965 
L 455.971702 24.325 
" clip-path="url(#p5075dd0e45)" style="fill: none; stroke: #b0b0b0; stroke-opacity: 0.3; stroke-width: 0.8; stroke-linecap: square"/>
     </g>
     <g id="line2d_14">
      <g>
       <use xlink:href="#m97658095b0" x="455.971702" y="356.965" style="stroke: #000000; stroke-width: 0.8"/>
      </g>
     </g>
     <g id="text_7">
      <!-- 300 -->
      <g transform="translate(446.971702 372.215) scale(0.12 -0.12)">
       <defs>
        <path id="SimHei-33" d="M 250 1225 
L 700 1300 
Q 800 975 1025 762 
Q 1250 550 1587 562 
Q 1925 575 2125 837 
Q 2325 1100 2300 1437 
Q 2275 1775 2037 1962 
Q 1800 2150 1275 2225 
L 1275 2550 
Q 1800 2600 2037 2825 
Q 2275 3050 2250 3412 
Q 2225 3775 1925 3937 
Q 1625 4100 1287 3975 
Q 950 3850 750 3275 
L 300 3350 
Q 450 3800 712 4100 
Q 975 4400 1425 4450 
Q 1875 4500 2212 4337 
Q 2550 4175 2687 3837 
Q 2825 3500 2725 3100 
Q 2625 2700 2150 2400 
Q 2500 2250 2687 1950 
Q 2875 1650 2812 1162 
Q 2750 675 2375 375 
Q 2000 75 1525 87 
Q 1050 100 700 387 
Q 350 675 250 1225 
z
" transform="scale(0.015625)"/>
       </defs>
       <use xlink:href="#SimHei-33"/>
       <use xlink:href="#SimHei-30" transform="translate(50 0)"/>
       <use xlink:href="#SimHei-30" transform="translate(100 0)"/>
      </g>
     </g>
    </g>
    <g id="xtick_8">
     <g id="line2d_15">
      <path d="M 519.539713 356.965 
L 519.539713 24.325 
" clip-path="url(#p5075dd0e45)" style="fill: none; stroke: #b0b0b0; stroke-opacity: 0.3; stroke-width: 0.8; stroke-linecap: square"/>
     </g>
     <g id="line2d_16">
      <g>
       <use xlink:href="#m97658095b0" x="519.539713" y="356.965" style="stroke: #000000; stroke-width: 0.8"/>
      </g>
     </g>
     <g id="text_8">
      <!-- 350 -->
      <g transform="translate(510.539713 372.215) scale(0.12 -0.12)">
       <use xlink:href="#SimHei-33"/>
       <use xlink:href="#SimHei-35" transform="translate(50 0)"/>
       <use xlink:href="#SimHei-30" transform="translate(100 0)"/>
      </g>
     </g>
    </g>
    <g id="xtick_9">
     <g id="line2d_17">
      <path d="M 583.107724 356.965 
L 583.107724 24.325 
" clip-path="url(#p5075dd0e45)" style="fill: none; stroke: #b0b0b0; stroke-opacity: 0.3; stroke-width: 0.8; stroke-linecap: square"/>
     </g>
     <g id="line2d_18">
      <g>
       <use xlink:href="#m97658095b0" x="583.107724" y="356.965" style="stroke: #000000; stroke-width: 0.8"/>
      </g>
     </g>
     <g id="text_9">
      <!-- 400 -->
      <g transform="translate(574.107724 372.215) scale(0.12 -0.12)">
       <defs>
        <path id="SimHei-34" d="M 2000 1100 
L 75 1100 
L 75 1525 
L 2100 4450 
L 2475 4450 
L 2475 1525 
L 3075 1525 
L 3075 1100 
L 2475 1100 
L 2475 150 
L 2000 150 
L 2000 1100 
z
M 2000 1525 
L 2000 3500 
L 600 1525 
L 2000 1525 
z
" transform="scale(0.015625)"/>
       </defs>
       <use xlink:href="#SimHei-34"/>
       <use xlink:href="#SimHei-30" transform="translate(50 0)"/>
       <use xlink:href="#SimHei-30" transform="translate(100 0)"/>
      </g>
     </g>
    </g>
    <g id="text_10">
     <!-- Episode -->
     <g transform="translate(300.2 388.715) scale(0.16 -0.16)">
      <defs>
       <path id="SimHei-45" d="M 2900 125 
L 350 125 
L 350 4400 
L 2775 4400 
L 2775 3925 
L 925 3925 
L 925 2600 
L 2625 2600 
L 2625 2125 
L 925 2125 
L 925 600 
L 2900 600 
L 2900 125 
z
" transform="scale(0.015625)"/>
       <path id="SimHei-70" d="M 2825 1525 
Q 2825 800 2475 425 
Q 2125 50 1625 50 
Q 1350 50 1150 162 
Q 950 275 800 500 
L 800 -800 
L 300 -800 
L 300 2925 
L 800 2925 
L 800 2550 
Q 950 2775 1150 2875 
Q 1350 2975 1625 2975 
Q 2125 2975 2475 2612 
Q 2825 2250 2825 1525 
z
M 2275 1525 
Q 2275 2000 2087 2262 
Q 1900 2525 1525 2525 
Q 1225 2525 1012 2262 
Q 800 2000 800 1525 
Q 800 1050 1012 775 
Q 1225 500 1525 500 
Q 1900 500 2087 775 
Q 2275 1050 2275 1525 
z
" transform="scale(0.015625)"/>
       <path id="SimHei-69" d="M 1800 3725 
L 1300 3725 
L 1300 4375 
L 1800 4375 
L 1800 3725 
z
M 1800 125 
L 1300 125 
L 1300 2925 
L 1800 2925 
L 1800 125 
z
" transform="scale(0.015625)"/>
       <path id="SimHei-73" d="M 2750 900 
Q 2750 500 2437 287 
Q 2125 75 1650 75 
Q 1050 75 725 312 
Q 400 550 400 1000 
L 900 1000 
Q 900 700 1112 600 
Q 1325 500 1625 500 
Q 1925 500 2075 612 
Q 2225 725 2225 900 
Q 2225 1025 2100 1150 
Q 1975 1275 1475 1350 
Q 900 1425 687 1637 
Q 475 1850 475 2200 
Q 475 2500 762 2737 
Q 1050 2975 1600 2975 
Q 2100 2975 2387 2750 
Q 2675 2525 2675 2150 
L 2175 2150 
Q 2175 2375 2012 2462 
Q 1850 2550 1600 2550 
Q 1275 2550 1137 2437 
Q 1000 2325 1000 2175 
Q 1000 2000 1125 1900 
Q 1250 1800 1650 1750 
Q 2300 1650 2525 1437 
Q 2750 1225 2750 900 
z
" transform="scale(0.015625)"/>
       <path id="SimHei-6f" d="M 2925 1525 
Q 2925 875 2525 475 
Q 2125 75 1575 75 
Q 1025 75 625 475 
Q 225 875 225 1525 
Q 225 2175 625 2575 
Q 1025 2975 1575 2975 
Q 2125 2975 2525 2575 
Q 2925 2175 2925 1525 
z
M 2375 1525 
Q 2375 2025 2125 2275 
Q 1875 2525 1575 2525 
Q 1275 2525 1025 2275 
Q 775 2025 775 1525 
Q 775 1025 1025 775 
Q 1275 525 1575 525 
Q 1875 525 2125 775 
Q 2375 1025 2375 1525 
z
" transform="scale(0.015625)"/>
       <path id="SimHei-64" d="M 2750 125 
L 2250 125 
L 2250 500 
Q 2100 275 1900 175 
Q 1700 75 1425 75 
Q 925 75 575 437 
Q 225 800 225 1525 
Q 225 2250 575 2625 
Q 925 3000 1425 3000 
Q 1700 3000 1900 2887 
Q 2100 2775 2250 2550 
L 2250 4400 
L 2750 4400 
L 2750 125 
z
M 2250 1525 
Q 2250 2000 2037 2275 
Q 1825 2550 1525 2550 
Q 1150 2550 962 2275 
Q 775 2000 775 1525 
Q 775 1050 962 787 
Q 1150 525 1525 525 
Q 1825 525 2037 787 
Q 2250 1050 2250 1525 
z
" transform="scale(0.015625)"/>
       <path id="SimHei-65" d="M 2850 1075 
Q 2800 625 2450 350 
Q 2100 75 1625 75 
Q 1025 75 637 462 
Q 250 850 250 1525 
Q 250 2200 637 2587 
Q 1025 2975 1625 2975 
Q 2150 2975 2487 2637 
Q 2825 2300 2825 1525 
L 800 1525 
Q 800 975 1037 750 
Q 1275 525 1625 525 
Q 1900 525 2075 662 
Q 2250 800 2300 1075 
L 2850 1075 
z
M 2250 1925 
Q 2200 2275 2025 2412 
Q 1850 2550 1575 2550 
Q 1325 2550 1125 2412 
Q 925 2275 825 1925 
L 2250 1925 
z
" transform="scale(0.015625)"/>
      </defs>
      <use xlink:href="#SimHei-45"/>
      <use xlink:href="#SimHei-70" transform="translate(50 0)"/>
      <use xlink:href="#SimHei-69" transform="translate(100 0)"/>
      <use xlink:href="#SimHei-73" transform="translate(150 0)"/>
      <use xlink:href="#SimHei-6f" transform="translate(200 0)"/>
      <use xlink:href="#SimHei-64" transform="translate(250 0)"/>
      <use xlink:href="#SimHei-65" transform="translate(300 0)"/>
     </g>
    </g>
   </g>
   <g id="matplotlib.axis_2">
    <g id="ytick_1">
     <g id="line2d_19">
      <path d="M 49.2 356.143215 
L 607.2 356.143215 
" clip-path="url(#p5075dd0e45)" style="fill: none; stroke: #b0b0b0; stroke-opacity: 0.3; stroke-width: 0.8; stroke-linecap: square"/>
     </g>
     <g id="line2d_20">
      <defs>
       <path id="m5485f2f81f" d="M 0 0 
L -3.5 0 
" style="stroke: #000000; stroke-width: 0.8"/>
      </defs>
      <g>
       <use xlink:href="#m5485f2f81f" x="49.2" y="356.143215" style="stroke: #000000; stroke-width: 0.8"/>
      </g>
     </g>
     <g id="text_11">
      <!-- 0.0 -->
      <g transform="translate(24.2 360.268215) scale(0.12 -0.12)">
       <defs>
        <path id="SimHei-2e" d="M 1075 125 
L 500 125 
L 500 675 
L 1075 675 
L 1075 125 
z
" transform="scale(0.015625)"/>
       </defs>
       <use xlink:href="#SimHei-30"/>
       <use xlink:href="#SimHei-2e" transform="translate(50 0)"/>
       <use xlink:href="#SimHei-30" transform="translate(100 0)"/>
      </g>
     </g>
    </g>
    <g id="ytick_2">
     <g id="line2d_21">
      <path d="M 49.2 311.286752 
L 607.2 311.286752 
" clip-path="url(#p5075dd0e45)" style="fill: none; stroke: #b0b0b0; stroke-opacity: 0.3; stroke-width: 0.8; stroke-linecap: square"/>
     </g>
     <g id="line2d_22">
      <g>
       <use xlink:href="#m5485f2f81f" x="49.2" y="311.286752" style="stroke: #000000; stroke-width: 0.8"/>
      </g>
     </g>
     <g id="text_12">
      <!-- 0.5 -->
      <g transform="translate(24.2 315.411752) scale(0.12 -0.12)">
       <use xlink:href="#SimHei-30"/>
       <use xlink:href="#SimHei-2e" transform="translate(50 0)"/>
       <use xlink:href="#SimHei-35" transform="translate(100 0)"/>
      </g>
     </g>
    </g>
    <g id="ytick_3">
     <g id="line2d_23">
      <path d="M 49.2 266.430289 
L 607.2 266.430289 
" clip-path="url(#p5075dd0e45)" style="fill: none; stroke: #b0b0b0; stroke-opacity: 0.3; stroke-width: 0.8; stroke-linecap: square"/>
     </g>
     <g id="line2d_24">
      <g>
       <use xlink:href="#m5485f2f81f" x="49.2" y="266.430289" style="stroke: #000000; stroke-width: 0.8"/>
      </g>
     </g>
     <g id="text_13">
      <!-- 1.0 -->
      <g transform="translate(24.2 270.555289) scale(0.12 -0.12)">
       <use xlink:href="#SimHei-31"/>
       <use xlink:href="#SimHei-2e" transform="translate(50 0)"/>
       <use xlink:href="#SimHei-30" transform="translate(100 0)"/>
      </g>
     </g>
    </g>
    <g id="ytick_4">
     <g id="line2d_25">
      <path d="M 49.2 221.573827 
L 607.2 221.573827 
" clip-path="url(#p5075dd0e45)" style="fill: none; stroke: #b0b0b0; stroke-opacity: 0.3; stroke-width: 0.8; stroke-linecap: square"/>
     </g>
     <g id="line2d_26">
      <g>
       <use xlink:href="#m5485f2f81f" x="49.2" y="221.573827" style="stroke: #000000; stroke-width: 0.8"/>
      </g>
     </g>
     <g id="text_14">
      <!-- 1.5 -->
      <g transform="translate(24.2 225.698827) scale(0.12 -0.12)">
       <use xlink:href="#SimHei-31"/>
       <use xlink:href="#SimHei-2e" transform="translate(50 0)"/>
       <use xlink:href="#SimHei-35" transform="translate(100 0)"/>
      </g>
     </g>
    </g>
    <g id="ytick_5">
     <g id="line2d_27">
      <path d="M 49.2 176.717364 
L 607.2 176.717364 
" clip-path="url(#p5075dd0e45)" style="fill: none; stroke: #b0b0b0; stroke-opacity: 0.3; stroke-width: 0.8; stroke-linecap: square"/>
     </g>
     <g id="line2d_28">
      <g>
       <use xlink:href="#m5485f2f81f" x="49.2" y="176.717364" style="stroke: #000000; stroke-width: 0.8"/>
      </g>
     </g>
     <g id="text_15">
      <!-- 2.0 -->
      <g transform="translate(24.2 180.842364) scale(0.12 -0.12)">
       <use xlink:href="#SimHei-32"/>
       <use xlink:href="#SimHei-2e" transform="translate(50 0)"/>
       <use xlink:href="#SimHei-30" transform="translate(100 0)"/>
      </g>
     </g>
    </g>
    <g id="ytick_6">
     <g id="line2d_29">
      <path d="M 49.2 131.860901 
L 607.2 131.860901 
" clip-path="url(#p5075dd0e45)" style="fill: none; stroke: #b0b0b0; stroke-opacity: 0.3; stroke-width: 0.8; stroke-linecap: square"/>
     </g>
     <g id="line2d_30">
      <g>
       <use xlink:href="#m5485f2f81f" x="49.2" y="131.860901" style="stroke: #000000; stroke-width: 0.8"/>
      </g>
     </g>
     <g id="text_16">
      <!-- 2.5 -->
      <g transform="translate(24.2 135.985901) scale(0.12 -0.12)">
       <use xlink:href="#SimHei-32"/>
       <use xlink:href="#SimHei-2e" transform="translate(50 0)"/>
       <use xlink:href="#SimHei-35" transform="translate(100 0)"/>
      </g>
     </g>
    </g>
    <g id="ytick_7">
     <g id="line2d_31">
      <path d="M 49.2 87.004438 
L 607.2 87.004438 
" clip-path="url(#p5075dd0e45)" style="fill: none; stroke: #b0b0b0; stroke-opacity: 0.3; stroke-width: 0.8; stroke-linecap: square"/>
     </g>
     <g id="line2d_32">
      <g>
       <use xlink:href="#m5485f2f81f" x="49.2" y="87.004438" style="stroke: #000000; stroke-width: 0.8"/>
      </g>
     </g>
     <g id="text_17">
      <!-- 3.0 -->
      <g transform="translate(24.2 91.129438) scale(0.12 -0.12)">
       <use xlink:href="#SimHei-33"/>
       <use xlink:href="#SimHei-2e" transform="translate(50 0)"/>
       <use xlink:href="#SimHei-30" transform="translate(100 0)"/>
      </g>
     </g>
    </g>
    <g id="ytick_8">
     <g id="line2d_33">
      <path d="M 49.2 42.147975 
L 607.2 42.147975 
" clip-path="url(#p5075dd0e45)" style="fill: none; stroke: #b0b0b0; stroke-opacity: 0.3; stroke-width: 0.8; stroke-linecap: square"/>
     </g>
     <g id="line2d_34">
      <g>
       <use xlink:href="#m5485f2f81f" x="49.2" y="42.147975" style="stroke: #000000; stroke-width: 0.8"/>
      </g>
     </g>
     <g id="text_18">
      <!-- 3.5 -->
      <g transform="translate(24.2 46.272975) scale(0.12 -0.12)">
       <use xlink:href="#SimHei-33"/>
       <use xlink:href="#SimHei-2e" transform="translate(50 0)"/>
       <use xlink:href="#SimHei-35" transform="translate(100 0)"/>
      </g>
     </g>
    </g>
    <g id="text_19">
     <!-- Energy -->
     <g transform="translate(18.2 214.645) rotate(-90) scale(0.16 -0.16)">
      <defs>
       <path id="SimHei-6e" d="M 2800 125 
L 2300 125 
L 2300 1925 
Q 2300 2225 2150 2400 
Q 2000 2575 1750 2575 
Q 1425 2575 1137 2237 
Q 850 1900 850 1400 
L 850 125 
L 350 125 
L 350 2925 
L 850 2925 
L 850 2400 
Q 1050 2675 1287 2825 
Q 1525 2975 1900 2975 
Q 2350 2975 2575 2725 
Q 2800 2475 2800 2100 
L 2800 125 
z
" transform="scale(0.015625)"/>
       <path id="SimHei-72" d="M 2500 2425 
Q 2025 2500 1700 2287 
Q 1375 2075 1150 1550 
L 1150 125 
L 650 125 
L 650 2925 
L 1150 2925 
L 1150 2200 
Q 1375 2600 1712 2787 
Q 2050 2975 2500 2975 
L 2500 2425 
z
" transform="scale(0.015625)"/>
       <path id="SimHei-67" d="M 2975 2500 
Q 2800 2550 2637 2562 
Q 2475 2575 2300 2525 
Q 2375 2450 2425 2337 
Q 2475 2225 2475 2000 
Q 2475 1575 2187 1300 
Q 1900 1025 1475 1025 
Q 1375 1025 1212 1062 
Q 1050 1100 950 1150 
Q 875 1100 850 1050 
Q 825 1000 825 925 
Q 825 800 1000 737 
Q 1175 675 1625 675 
Q 2350 675 2612 475 
Q 2875 275 2875 -25 
Q 2875 -425 2487 -612 
Q 2100 -800 1575 -800 
Q 900 -800 575 -625 
Q 250 -450 250 -150 
Q 250 0 375 150 
Q 500 300 700 400 
Q 550 475 462 587 
Q 375 700 375 875 
Q 375 1025 487 1137 
Q 600 1250 750 1325 
Q 625 1450 550 1625 
Q 475 1800 475 2000 
Q 475 2425 762 2700 
Q 1050 2975 1475 2975 
Q 1700 2975 1862 2912 
Q 2025 2850 2150 2725 
Q 2350 2875 2550 2937 
Q 2750 3000 2975 2975 
L 2975 2500 
z
M 1975 2000 
Q 1975 2250 1850 2400 
Q 1725 2550 1475 2550 
Q 1225 2550 1100 2400 
Q 975 2250 975 2000 
Q 975 1750 1100 1600 
Q 1225 1450 1475 1450 
Q 1725 1450 1850 1600 
Q 1975 1750 1975 2000 
z
M 2400 -75 
Q 2400 25 2287 125 
Q 2175 225 1725 225 
Q 1625 225 1450 237 
Q 1275 250 1050 275 
Q 850 200 775 100 
Q 700 0 700 -100 
Q 700 -250 900 -350 
Q 1100 -450 1600 -450 
Q 2025 -450 2212 -337 
Q 2400 -225 2400 -75 
z
" transform="scale(0.015625)"/>
       <path id="SimHei-79" d="M 2900 2925 
L 1750 -100 
Q 1650 -450 1450 -625 
Q 1250 -800 950 -800 
Q 825 -800 712 -787 
Q 600 -775 500 -725 
L 500 -225 
Q 600 -275 700 -300 
Q 800 -325 875 -325 
Q 1075 -325 1150 -262 
Q 1225 -200 1300 25 
L 200 2925 
L 750 2925 
L 1550 725 
L 1575 725 
L 2350 2925 
L 2900 2925 
z
" transform="scale(0.015625)"/>
      </defs>
      <use xlink:href="#SimHei-45"/>
      <use xlink:href="#SimHei-6e" transform="translate(50 0)"/>
      <use xlink:href="#SimHei-65" transform="translate(100 0)"/>
      <use xlink:href="#SimHei-72" transform="translate(150 0)"/>
      <use xlink:href="#SimHei-67" transform="translate(200 0)"/>
      <use xlink:href="#SimHei-79" transform="translate(250 0)"/>
     </g>
    </g>
   </g>
   <g id="line2d_35">
    <path d="M 74.563636 330.065899 
L 75.834997 320.465739 
L 77.106357 319.673361 
L 78.377717 305.065711 
L 79.649077 303.376475 
L 80.920437 301.189751 
L 82.191798 289.028167 
L 84.734518 274.993248 
L 86.005878 271.564094 
L 87.277239 274.640244 
L 88.548599 265.123523 
L 89.819959 257.079552 
L 91.091319 254.071398 
L 92.362679 253.825008 
L 93.63404 236.626671 
L 94.9054 230.446443 
L 96.17676 231.5872 
L 97.44812 236.858083 
L 98.719481 228.681036 
L 99.990841 227.786567 
L 101.262201 233.257503 
L 102.533561 236.374407 
L 105.076282 246.68229 
L 107.619002 255.965979 
L 108.890362 257.721438 
L 111.433083 265.899886 
L 112.704443 266.455434 
L 115.247163 273.794756 
L 117.789884 280.345639 
L 120.332604 286.316965 
L 122.875325 291.73096 
L 125.418045 296.537121 
L 127.960766 300.959383 
L 130.503486 304.975533 
L 131.774846 301.10751 
L 134.317567 305.03561 
L 136.860287 308.577585 
L 139.403008 311.743981 
L 143.217088 316.019336 
L 145.759809 318.598035 
L 149.573889 321.915777 
L 153.38797 324.75019 
L 154.65933 325.577227 
L 155.93069 318.811787 
L 158.473411 321.067749 
L 159.744771 310.874837 
L 161.016131 312.399505 
L 162.287491 308.812124 
L 163.558852 308.006926 
L 166.101572 311.30123 
L 169.915653 315.6333 
L 171.187013 316.955823 
L 172.458373 306.351201 
L 173.729733 308.112888 
L 175.001094 294.671371 
L 177.543814 299.208806 
L 178.815174 301.331308 
L 180.086535 299.439915 
L 182.629255 303.55164 
L 183.900615 286.816993 
L 185.171975 283.539602 
L 186.443336 286.42544 
L 187.714696 276.503038 
L 188.986056 279.806557 
L 190.257416 266.55269 
L 191.528776 263.463985 
L 192.800137 262.343948 
L 194.071497 264.301672 
L 195.342857 261.558622 
L 196.614217 265.425386 
L 197.885578 255.216729 
L 199.156938 251.151784 
L 200.428298 255.70203 
L 201.699658 245.341648 
L 202.971018 238.689906 
L 204.242379 243.872345 
L 205.513739 247.692872 
L 208.056459 256.874768 
L 209.32782 256.173604 
L 210.59918 260.110008 
L 211.87054 251.373067 
L 213.1419 255.927767 
L 214.41326 245.510965 
L 218.227341 258.875501 
L 219.498701 242.127914 
L 220.770062 237.080917 
L 222.041422 202.355167 
L 223.312782 202.485285 
L 224.584142 195.297538 
L 225.855502 190.290388 
L 227.126863 181.467927 
L 228.398223 177.887772 
L 229.669583 183.784287 
L 230.940943 184.992557 
L 232.212303 177.750107 
L 233.483664 185.915244 
L 234.755024 187.977297 
L 236.026384 182.033695 
L 237.297744 187.519394 
L 238.569105 190.753443 
L 239.840465 175.292622 
L 241.111825 175.225876 
L 242.383185 175.682959 
L 243.654545 175.428862 
L 244.925906 179.631002 
L 246.197266 174.430186 
L 247.468626 180.525233 
L 250.011347 194.756245 
L 251.282707 197.96192 
L 252.554067 192.221919 
L 253.825427 184.875964 
L 255.096787 184.780553 
L 256.368148 174.503571 
L 257.639508 178.930775 
L 258.910868 172.959412 
L 260.182228 164.318327 
L 261.453589 164.67195 
L 262.724949 171.4204 
L 263.996309 165.123334 
L 265.267669 170.221715 
L 266.539029 173.240662 
L 267.81039 163.299341 
L 269.08175 171.387806 
L 270.35311 169.743146 
L 271.62447 157.025886 
L 272.89583 158.958569 
L 274.167191 162.403196 
L 275.438551 160.200965 
L 276.709911 164.258992 
L 277.981271 172.331755 
L 279.252632 176.050372 
L 280.523992 183.724409 
L 281.795352 184.471562 
L 283.066712 187.835515 
L 284.338072 193.441789 
L 285.609433 180.561324 
L 286.880793 170.937202 
L 288.152153 173.768352 
L 290.694874 181.860087 
L 291.966234 173.253915 
L 293.237594 177.398424 
L 294.508954 171.772606 
L 295.780314 176.325455 
L 297.051675 179.61795 
L 298.323035 187.608436 
L 299.594395 194.82167 
L 300.865755 200.962233 
L 302.137116 203.303061 
L 303.408476 196.235749 
L 304.679836 198.600139 
L 305.951196 203.318681 
L 307.222556 209.076819 
L 308.493917 205.680943 
L 309.765277 203.277786 
L 311.036637 193.249099 
L 312.307997 188.212481 
L 313.579357 188.342509 
L 314.850718 192.213853 
L 316.122078 186.294665 
L 317.393438 185.943031 
L 318.664798 185.200705 
L 319.936159 192.859937 
L 321.207519 199.39773 
L 322.478879 198.958227 
L 323.750239 202.270964 
L 325.021599 200.044755 
L 326.29296 196.451453 
L 327.56432 193.229332 
L 328.83568 195.928183 
L 330.10704 198.304333 
L 331.378401 188.844205 
L 332.649761 196.467155 
L 333.921121 187.36086 
L 335.192481 193.525836 
L 336.463841 197.06112 
L 337.735202 198.734689 
L 339.006562 191.233613 
L 340.277922 194.628965 
L 341.549282 200.33562 
L 342.820643 198.371749 
L 344.092003 195.188013 
L 345.363363 186.789906 
L 346.634723 188.679178 
L 347.906083 189.814983 
L 349.177444 188.689803 
L 350.448804 190.405491 
L 351.720164 190.434092 
L 352.991524 191.724124 
L 354.262884 193.471682 
L 355.534245 198.523698 
L 356.805605 197.112613 
L 358.076965 193.738127 
L 359.348325 195.288904 
L 360.619686 194.596379 
L 361.891046 189.073894 
L 363.162406 196.378496 
L 364.433766 187.798802 
L 365.705126 173.186332 
L 366.976487 163.445175 
L 368.247847 166.970022 
L 369.519207 168.583916 
L 372.061928 180.865177 
L 373.333288 181.03006 
L 374.604648 189.025101 
L 375.876008 192.860401 
L 377.147368 192.060499 
L 378.418729 175.437845 
L 380.961449 186.868551 
L 382.232809 179.745456 
L 383.50417 178.692719 
L 384.77553 184.758044 
L 386.04689 180.432058 
L 387.31825 188.023389 
L 388.58961 190.905608 
L 389.860971 195.78604 
L 391.132331 197.542295 
L 392.403691 204.36221 
L 393.675051 205.367431 
L 394.946411 210.386385 
L 396.217772 213.687384 
L 397.489132 214.639616 
L 398.760492 219.100539 
L 400.031852 224.34472 
L 401.303213 227.982317 
L 402.574573 226.046808 
L 403.845933 206.99862 
L 405.117293 206.930387 
L 406.388653 208.205644 
L 408.931374 219.275976 
L 410.202734 205.983313 
L 411.474094 212.484349 
L 412.745455 213.56649 
L 414.016815 201.879794 
L 415.288175 205.395435 
L 416.559535 203.516563 
L 417.830895 210.281221 
L 419.102256 210.324011 
L 420.373616 213.040064 
L 421.644976 208.240888 
L 422.916336 204.773249 
L 424.187697 200.381291 
L 425.459057 202.809732 
L 426.730417 207.617243 
L 428.001777 214.288488 
L 429.273137 212.215313 
L 430.544498 211.314217 
L 431.815858 201.882432 
L 433.087218 206.593185 
L 434.358578 204.364489 
L 435.629938 196.738432 
L 436.901299 199.391292 
L 438.172659 205.518558 
L 439.444019 209.776643 
L 440.715379 200.109001 
L 441.98674 197.718695 
L 443.2581 201.087487 
L 444.52946 201.540567 
L 445.80082 205.415576 
L 447.07218 211.909325 
L 448.343541 198.028637 
L 449.614901 203.166184 
L 450.886261 195.276154 
L 452.157621 185.124623 
L 453.428982 184.140478 
L 454.700342 183.424903 
L 455.971702 185.586279 
L 457.243062 186.393676 
L 458.514422 192.170295 
L 461.057143 201.981867 
L 462.328503 204.232262 
L 463.599863 206.056564 
L 464.871224 202.185406 
L 466.142584 201.280962 
L 467.413944 195.771455 
L 468.685304 198.437361 
L 469.956664 200.555297 
L 471.228025 200.375087 
L 472.499385 204.605709 
L 473.770745 204.893776 
L 475.042105 200.478204 
L 476.313465 207.066863 
L 477.584826 209.351025 
L 478.856186 215.68106 
L 480.127546 219.431121 
L 481.398906 225.263428 
L 483.941627 235.656798 
L 485.212987 236.147815 
L 486.484347 231.530186 
L 487.755707 234.561995 
L 490.298428 244.560022 
L 491.569788 245.077375 
L 492.841148 249.171473 
L 494.112509 245.185538 
L 495.383869 246.682802 
L 496.655229 247.89342 
L 497.926589 252.052871 
L 499.197949 231.222622 
L 500.46931 227.433415 
L 501.74067 224.805099 
L 503.01203 224.235502 
L 504.28339 226.273119 
L 505.554751 231.647944 
L 506.826111 235.211809 
L 508.097471 228.255978 
L 509.368831 232.163946 
L 510.640191 222.590197 
L 511.911552 222.922242 
L 513.182912 228.73452 
L 514.454272 234.007851 
L 515.725632 234.402883 
L 516.996992 236.367869 
L 518.268353 233.242671 
L 519.539713 238.6807 
L 520.811073 241.877591 
L 522.082433 234.955617 
L 523.353794 238.617729 
L 524.625154 234.431455 
L 525.896514 237.748088 
L 527.167874 240.38892 
L 529.710595 249.921118 
L 530.981955 254.412165 
L 532.253315 252.870162 
L 533.524675 256.766892 
L 534.796036 255.446157 
L 536.067396 259.62752 
L 537.338756 260.238539 
L 538.610116 262.327602 
L 541.152837 269.710871 
L 542.424197 246.131298 
L 543.695557 247.035971 
L 544.966917 239.401694 
L 546.238278 239.905397 
L 547.509638 242.544208 
L 548.780998 240.813872 
L 550.052358 243.700162 
L 551.323718 233.585099 
L 552.595079 224.937415 
L 553.866439 220.862749 
L 556.409159 226.15736 
L 557.680519 228.679568 
L 558.95188 228.348217 
L 560.22324 233.807348 
L 561.4946 234.686084 
L 562.76596 235.948169 
L 564.037321 236.165624 
L 565.308681 220.40162 
L 566.580041 216.105744 
L 567.851401 214.579238 
L 569.122761 203.693218 
L 570.394122 205.171871 
L 571.665482 203.54116 
L 572.936842 200.805124 
L 574.208202 200.302009 
L 575.479563 205.056211 
L 576.750923 208.080681 
L 578.022283 214.106466 
L 579.293643 215.456353 
L 580.565003 208.043376 
L 580.565003 208.043376 
" clip-path="url(#p5075dd0e45)" style="fill: none; stroke: #1f77b4; stroke-width: 1.2; stroke-linecap: square"/>
   </g>
   <g id="line2d_36">
    <path d="M 74.563636 328.80136 
L 75.834997 315.35572 
L 77.106357 308.834222 
L 78.377717 304.007918 
L 79.649077 291.471499 
L 80.920437 281.557716 
L 82.191798 284.078807 
L 83.463158 266.228001 
L 84.734518 267.645415 
L 86.005878 270.697336 
L 87.277239 252.740517 
L 88.548599 248.947829 
L 89.819959 247.581729 
L 91.091319 251.883255 
L 92.362679 255.650722 
L 93.63404 248.118526 
L 94.9054 229.550584 
L 96.17676 207.109957 
L 97.44812 210.361886 
L 98.719481 196.4091 
L 99.990841 197.829791 
L 101.262201 201.14755 
L 102.533561 190.745688 
L 103.804921 189.826983 
L 105.076282 188.483998 
L 106.347642 195.743619 
L 107.619002 195.184827 
L 108.890362 197.165521 
L 110.161722 198.223168 
L 111.433083 201.546758 
L 112.704443 203.620541 
L 113.975803 202.227098 
L 115.247163 202.784174 
L 116.518524 195.045901 
L 117.789884 190.303058 
L 119.061244 188.241267 
L 120.332604 189.108351 
L 121.603964 180.406358 
L 122.875325 184.508237 
L 125.418045 172.947699 
L 126.689405 177.042164 
L 127.960766 184.957714 
L 129.232126 190.836688 
L 130.503486 197.61712 
L 131.774846 200.065977 
L 133.046206 206.544424 
L 134.317567 205.790397 
L 135.588927 208.786154 
L 136.860287 215.101817 
L 138.131647 194.293004 
L 139.403008 190.981861 
L 140.674368 189.648758 
L 141.945728 196.946414 
L 143.217088 196.309978 
L 144.488448 201.768903 
L 145.759809 201.207004 
L 147.031169 199.3814 
L 148.302529 199.009705 
L 149.573889 203.354209 
L 150.845249 206.745549 
L 152.11661 212.804162 
L 153.38797 216.549258 
L 154.65933 213.934232 
L 155.93069 219.083923 
L 157.202051 222.65088 
L 158.473411 223.427228 
L 159.744771 228.126402 
L 161.016131 233.606465 
L 162.287491 238.481194 
L 163.558852 226.167344 
L 164.830212 231.667583 
L 166.101572 234.85305 
L 167.372932 232.072068 
L 168.644293 232.530737 
L 169.915653 234.686808 
L 171.187013 234.11531 
L 172.458373 239.101037 
L 173.729733 237.150325 
L 175.001094 225.291812 
L 177.543814 235.460175 
L 178.815174 233.886119 
L 180.086535 238.951825 
L 181.357895 238.379414 
L 182.629255 239.221698 
L 183.900615 242.974478 
L 185.171975 247.801624 
L 186.443336 246.279698 
L 187.714696 246.881008 
L 188.986056 250.65789 
L 191.528776 258.962006 
L 192.800137 262.671255 
L 194.071497 257.379575 
L 195.342857 258.718175 
L 196.614217 262.042668 
L 199.156938 256.896743 
L 201.699658 264.991816 
L 202.971018 268.595492 
L 204.242379 269.863989 
L 205.513739 271.383598 
L 208.056459 277.866023 
L 211.87054 263.39949 
L 213.1419 262.743522 
L 214.41326 253.250331 
L 215.684621 254.842628 
L 216.955981 250.045154 
L 218.227341 254.598704 
L 219.498701 257.500606 
L 220.770062 255.874511 
L 222.041422 254.429232 
L 223.312782 258.475751 
L 224.584142 252.234928 
L 225.855502 256.702926 
L 227.126863 257.025394 
L 228.398223 250.053275 
L 229.669583 254.585509 
L 230.940943 256.733304 
L 232.212303 259.211766 
L 233.483664 263.226395 
L 234.755024 264.732005 
L 236.026384 264.569717 
L 238.569105 271.337842 
L 239.840465 271.048691 
L 241.111825 271.597537 
L 242.383185 275.078304 
L 243.654545 270.262637 
L 244.925906 273.798313 
L 246.197266 274.703802 
L 247.468626 264.773802 
L 248.739986 268.379979 
L 250.011347 263.390851 
L 251.282707 267.284207 
L 253.825427 274.022254 
L 255.096787 269.151704 
L 257.639508 271.362355 
L 258.910868 272.140153 
L 260.182228 273.079754 
L 261.453589 274.167844 
L 262.724949 277.45456 
L 263.996309 270.688008 
L 265.267669 274.105069 
L 266.539029 274.676689 
L 269.08175 281.112207 
L 270.35311 281.687277 
L 271.62447 284.421566 
L 272.89583 285.430395 
L 274.167191 288.276223 
L 275.438551 287.710116 
L 276.709911 287.850104 
L 279.252632 293.020472 
L 280.523992 295.401042 
L 281.795352 291.146992 
L 283.066712 293.594191 
L 284.338072 292.807801 
L 286.880793 297.356034 
L 288.152153 289.154127 
L 289.423513 291.616559 
L 290.694874 290.030188 
L 291.966234 286.801959 
L 294.508954 292.141466 
L 295.780314 292.586814 
L 297.051675 295.058516 
L 299.594395 299.440012 
L 300.865755 296.103392 
L 303.408476 300.29126 
L 304.679836 299.336436 
L 305.951196 294.838789 
L 307.222556 297.065494 
L 308.493917 297.180094 
L 309.765277 297.532836 
L 312.307997 298.701308 
L 313.579357 299.913795 
L 316.122078 303.753964 
L 319.936159 308.708951 
L 321.207519 304.572834 
L 323.750239 308.038089 
L 326.29296 306.811865 
L 328.83568 309.953639 
L 331.378401 313.060151 
L 332.649761 312.674492 
L 335.192481 315.602547 
L 337.735202 317.971632 
L 339.006562 318.869533 
L 340.277922 319.941213 
L 341.549282 320.858352 
L 342.820643 319.503925 
L 344.092003 320.591852 
L 349.177444 324.334468 
L 350.448804 322.89711 
L 352.991524 324.672997 
L 354.262884 325.382154 
L 355.534245 325.875034 
L 356.805605 326.66242 
L 358.076965 323.66185 
L 359.348325 321.484429 
L 360.619686 322.505236 
L 361.891046 321.780305 
L 364.433766 323.646361 
L 366.976487 325.081208 
L 368.247847 325.920857 
L 369.519207 321.861411 
L 373.333288 324.545025 
L 374.604648 325.365071 
L 375.876008 325.963413 
L 377.147368 321.887939 
L 378.418729 322.895446 
L 379.690089 320.825369 
L 380.961449 321.894372 
L 382.232809 322.273475 
L 383.50417 319.797065 
L 386.04689 321.933884 
L 387.31825 322.941949 
L 388.58961 321.326704 
L 389.860971 318.314662 
L 391.132331 319.439615 
L 392.403691 319.213866 
L 393.675051 320.400009 
L 397.489132 323.46102 
L 400.031852 325.178714 
L 401.303213 323.201298 
L 402.574573 316.530951 
L 406.388653 319.999727 
L 407.660014 320.908916 
L 408.931374 321.996134 
L 410.202734 319.13096 
L 411.474094 320.295683 
L 412.745455 321.307079 
L 414.016815 319.299404 
L 416.559535 321.477565 
L 417.830895 316.678739 
L 419.102256 315.636404 
L 420.373616 316.629217 
L 421.644976 317.794558 
L 422.916336 314.911834 
L 424.187697 316.031364 
L 425.459057 316.976654 
L 428.001777 319.259692 
L 430.544498 321.379778 
L 434.358578 324.254391 
L 435.629938 325.168902 
L 438.172659 326.29679 
L 443.2581 329.185328 
L 444.52946 327.431623 
L 445.80082 328.147712 
L 447.07218 328.654381 
L 450.886261 330.490694 
L 453.428982 331.523701 
L 458.514422 333.422655 
L 462.328503 334.561422 
L 464.871224 335.11051 
L 471.228025 336.505265 
L 472.499385 336.648333 
L 477.584826 337.555504 
L 478.856186 333.900146 
L 483.941627 335.29597 
L 485.212987 333.509946 
L 490.298428 335.069795 
L 491.569788 335.257788 
L 492.841148 335.592721 
L 494.112509 332.960911 
L 497.926589 334.146077 
L 500.46931 334.832018 
L 501.74067 323.236186 
L 504.28339 325.038775 
L 508.097471 327.261176 
L 509.368831 328.045587 
L 514.454272 330.518434 
L 516.996992 331.617999 
L 518.268353 331.832371 
L 524.625154 334.089364 
L 525.896514 334.269036 
L 527.167874 334.675049 
L 528.439234 334.910757 
L 532.253315 335.903078 
L 533.524675 332.184894 
L 538.610116 333.948276 
L 544.966917 335.682294 
L 546.238278 333.540966 
L 548.780998 334.379795 
L 552.595079 335.338711 
L 555.137799 335.924756 
L 556.409159 330.860052 
L 557.680519 329.474341 
L 561.4946 331.248771 
L 566.580041 333.056944 
L 572.936842 334.811926 
L 578.022283 336.017565 
L 580.565003 336.495956 
L 580.565003 336.495956 
" clip-path="url(#p5075dd0e45)" style="fill: none; stroke: #ff7f0e; stroke-width: 1.2; stroke-linecap: square"/>
   </g>
   <g id="line2d_37">
    <path d="M 74.563636 271.214637 
L 75.834997 257.332782 
L 77.106357 256.260891 
L 79.649077 245.272165 
L 80.920437 247.60001 
L 82.191798 244.340198 
L 83.463158 246.159279 
L 84.734518 240.177068 
L 87.277239 214.406261 
L 88.548599 208.821211 
L 89.819959 211.516103 
L 91.091319 213.004275 
L 92.362679 195.528443 
L 93.63404 189.243576 
L 94.9054 183.70273 
L 96.17676 181.291861 
L 97.44812 177.484655 
L 98.719481 164.323251 
L 99.990841 162.528935 
L 101.262201 166.310001 
L 102.533561 171.576348 
L 103.804921 170.922675 
L 105.076282 174.771084 
L 106.347642 171.692877 
L 107.619002 180.006449 
L 108.890362 183.214457 
L 110.161722 185.464944 
L 111.433083 189.82851 
L 112.704443 197.468308 
L 113.975803 202.042303 
L 115.247163 203.227758 
L 116.518524 207.753136 
L 119.061244 220.465493 
L 120.332604 225.761075 
L 121.603964 229.254899 
L 122.875325 217.833463 
L 124.146685 211.923379 
L 125.418045 214.401397 
L 126.689405 204.533637 
L 127.960766 204.992745 
L 129.232126 208.74037 
L 130.503486 206.006455 
L 131.774846 206.043299 
L 133.046206 205.279816 
L 134.317567 205.336172 
L 135.588927 208.780167 
L 136.860287 208.110443 
L 138.131647 213.48753 
L 139.403008 217.382886 
L 140.674368 222.74507 
L 141.945728 224.155913 
L 143.217088 220.650064 
L 144.488448 226.617776 
L 145.759809 224.199988 
L 147.031169 227.000247 
L 148.302529 225.119926 
L 150.845249 220.088191 
L 152.11661 218.585213 
L 153.38797 221.107293 
L 154.65933 227.201066 
L 155.93069 227.952378 
L 157.202051 228.972606 
L 158.473411 230.448771 
L 159.744771 227.125479 
L 161.016131 227.738723 
L 162.287491 227.222045 
L 163.558852 224.744188 
L 166.101572 230.665836 
L 168.644293 241.478905 
L 171.187013 251.27182 
L 173.729733 260.062118 
L 176.272454 267.955931 
L 178.815174 275.160388 
L 181.357895 281.668632 
L 183.900615 287.52901 
L 186.443336 292.77725 
L 188.986056 297.610348 
L 191.528776 301.881869 
L 194.071497 305.812818 
L 196.614217 309.35457 
L 199.156938 312.505178 
L 201.699658 315.389646 
L 204.242379 317.955467 
L 206.785099 320.249296 
L 211.87054 324.132666 
L 215.684621 326.671867 
L 219.498701 328.77755 
L 224.584142 331.102263 
L 227.126863 332.089575 
L 229.669583 333.006398 
L 237.297744 335.337787 
L 242.383185 336.464821 
L 246.197266 337.184762 
L 253.825427 338.438193 
L 267.81039 339.829771 
L 272.89583 340.13463 
L 294.508954 341.155677 
L 299.594395 341.360309 
L 305.951196 341.380826 
L 313.579357 341.50041 
L 374.604648 341.629385 
L 379.690089 341.642214 
L 382.232809 341.738089 
L 387.31825 341.688891 
L 389.860971 341.683848 
L 393.675051 341.692111 
L 412.745455 341.599922 
L 431.815858 341.647688 
L 435.629938 341.66408 
L 438.172659 341.64333 
L 440.715379 341.565399 
L 450.886261 341.622219 
L 453.428982 341.676982 
L 463.599863 341.523998 
L 471.228025 341.586586 
L 475.042105 341.633499 
L 482.670267 341.632288 
L 486.484347 341.683923 
L 489.027068 341.671184 
L 492.841148 341.700589 
L 518.268353 341.81664 
L 522.082433 341.762023 
L 528.439234 341.746206 
L 533.524675 341.80909 
L 541.152837 341.845 
L 547.509638 341.763754 
L 552.595079 341.795416 
L 557.680519 341.655061 
L 578.022283 341.694646 
L 581.836364 341.688704 
L 581.836364 341.688704 
" clip-path="url(#p5075dd0e45)" style="fill: none; stroke: #2ca02c; stroke-width: 1.2; stroke-linecap: square"/>
   </g>
   <g id="line2d_38">
    <path d="M 74.563636 39.445 
L 75.834997 44.415297 
L 77.106357 41.449423 
L 79.649077 69.532084 
L 80.920437 76.316758 
L 82.191798 80.022481 
L 83.463158 71.350588 
L 84.734518 61.359221 
L 86.005878 50.140551 
L 87.277239 49.338179 
L 88.548599 59.969235 
L 89.819959 68.810077 
L 91.091319 69.925233 
L 92.362679 71.906879 
L 93.63404 78.017085 
L 94.9054 71.958105 
L 96.17676 58.232456 
L 97.44812 62.227004 
L 99.990841 74.45702 
L 101.262201 72.499827 
L 102.533561 56.573306 
L 103.804921 62.532517 
L 105.076282 62.734941 
L 106.347642 62.314178 
L 107.619002 55.185208 
L 108.890362 57.859489 
L 110.161722 54.333651 
L 111.433083 54.206362 
L 112.704443 53.561877 
L 113.975803 43.694854 
L 115.247163 41.448867 
L 116.518524 41.107671 
L 117.789884 48.67306 
L 119.061244 59.800106 
L 120.332604 45.1265 
L 121.603964 54.283492 
L 124.146685 82.296587 
L 126.689405 107.618243 
L 129.232126 130.485533 
L 131.774846 151.036366 
L 134.317567 169.58964 
L 136.860287 186.357206 
L 139.403008 201.485393 
L 141.945728 215.184989 
L 144.488448 227.504599 
L 145.759809 233.196205 
L 147.031169 237.895792 
L 149.573889 247.963624 
L 152.11661 257.132387 
L 154.65933 265.351794 
L 157.202051 272.82688 
L 159.744771 279.506823 
L 162.287491 285.56907 
L 164.830212 290.984438 
L 167.372932 295.894264 
L 169.915653 300.422262 
L 172.458373 304.436726 
L 175.001094 308.051279 
L 178.815174 312.84739 
L 181.357895 315.640505 
L 183.900615 318.238609 
L 186.443336 320.505024 
L 188.986056 322.543626 
L 192.800137 325.184599 
L 195.342857 326.767634 
L 200.428298 329.463812 
L 205.513739 331.77456 
L 210.59918 333.640506 
L 214.41326 334.726404 
L 215.684621 334.360607 
L 218.227341 335.066264 
L 219.498701 335.155116 
L 223.312782 336.064761 
L 228.398223 337.067519 
L 232.212303 337.624523 
L 233.483664 337.503813 
L 237.297744 338.033227 
L 241.111825 338.544388 
L 242.383185 336.858548 
L 248.739986 337.959931 
L 256.368148 338.94051 
L 257.639508 336.18681 
L 263.996309 337.521018 
L 266.539029 337.878266 
L 272.89583 338.682128 
L 275.438551 339.025308 
L 283.066712 339.738861 
L 304.679836 340.841292 
L 308.493917 340.934214 
L 319.936159 341.177076 
L 322.478879 341.169455 
L 326.29296 341.262938 
L 328.83568 341.38439 
L 333.921121 341.474823 
L 339.006562 341.472351 
L 340.277922 341.508382 
L 341.549282 340.006804 
L 349.177444 340.394668 
L 352.991524 340.534774 
L 354.262884 340.346988 
L 359.348325 340.6131 
L 360.619686 340.661003 
L 361.891046 338.191253 
L 374.604648 339.517315 
L 378.418729 339.736012 
L 380.961449 339.948223 
L 401.303213 341.024937 
L 405.117293 341.047966 
L 410.202734 341.194654 
L 414.016815 341.297121 
L 419.102256 341.339173 
L 420.373616 340.98296 
L 422.916336 341.029234 
L 424.187697 340.911627 
L 434.358578 341.102611 
L 435.629938 340.947632 
L 436.901299 340.984428 
L 438.172659 339.495613 
L 457.243062 340.66796 
L 463.599863 340.933646 
L 475.042105 341.191093 
L 476.313465 338.707364 
L 480.127546 339.145483 
L 481.398906 339.108687 
L 483.941627 339.396283 
L 486.484347 339.641396 
L 487.755707 339.450867 
L 492.841148 339.899805 
L 506.826111 340.762912 
L 509.368831 340.839649 
L 510.640191 340.144258 
L 511.911552 337.963393 
L 515.725632 338.518857 
L 516.996992 336.048978 
L 524.625154 337.457146 
L 533.524675 338.735114 
L 548.780998 340.060776 
L 551.323718 340.160861 
L 553.866439 340.27412 
L 555.137799 338.020341 
L 558.95188 338.592772 
L 564.037321 339.249266 
L 570.394122 339.891351 
L 580.565003 340.451815 
L 581.836364 340.507123 
L 581.836364 340.507123 
" clip-path="url(#p5075dd0e45)" style="fill: none; stroke: #d62728; stroke-width: 1.2; stroke-linecap: square"/>
   </g>
   <g id="line2d_39">
    <path d="M 74.563636 330.921234 
L 75.834997 320.106363 
L 77.106357 306.595845 
L 78.377717 297.628041 
L 79.649077 290.936946 
L 80.920437 293.234169 
L 82.191798 295.176476 
L 83.463158 292.769168 
L 84.734518 293.095481 
L 86.005878 295.499842 
L 87.277239 293.817305 
L 89.819959 298.481594 
L 92.362679 302.726264 
L 94.9054 306.279882 
L 97.44812 309.720683 
L 99.990841 312.809451 
L 105.076282 318.129262 
L 106.347642 316.704183 
L 110.161722 320.302495 
L 113.975803 323.365342 
L 116.518524 325.109905 
L 119.061244 326.750368 
L 120.332604 323.975563 
L 122.875325 325.689457 
L 126.689405 328.007273 
L 129.232126 329.332591 
L 133.046206 331.08964 
L 135.588927 332.002479 
L 138.131647 332.954953 
L 144.488448 334.862838 
L 145.759809 335.202561 
L 147.031169 335.424561 
L 150.845249 336.36113 
L 155.93069 337.342958 
L 159.744771 337.952182 
L 167.372932 338.881823 
L 169.915653 339.144184 
L 175.001094 339.665971 
L 182.629255 340.107967 
L 188.986056 340.394157 
L 195.342857 340.863776 
L 206.785099 341.087469 
L 214.41326 341.067909 
L 216.955981 341.104931 
L 255.096787 341.546214 
L 258.910868 341.531121 
L 260.182228 341.306418 
L 284.338072 341.500581 
L 286.880793 341.337991 
L 290.694874 341.367483 
L 291.966234 341.091344 
L 297.051675 341.294094 
L 308.493917 341.390239 
L 326.29296 341.56696 
L 327.56432 339.463518 
L 342.820643 340.491511 
L 351.720164 340.811625 
L 354.262884 340.815391 
L 359.348325 341.036179 
L 366.976487 341.190153 
L 368.247847 338.833597 
L 375.876008 339.571514 
L 377.147368 336.170686 
L 380.961449 336.905157 
L 383.50417 337.273178 
L 384.77553 337.351839 
L 388.58961 337.995347 
L 396.217772 338.946556 
L 397.489132 339.060711 
L 398.760492 338.514854 
L 402.574573 338.940359 
L 406.388653 339.323293 
L 412.745455 339.908529 
L 429.273137 340.765747 
L 445.80082 341.065157 
L 447.07218 340.875363 
L 450.886261 340.977438 
L 452.157621 338.018074 
L 457.243062 338.699917 
L 462.328503 339.119193 
L 468.685304 339.642366 
L 471.228025 339.826305 
L 480.127546 340.391413 
L 481.398906 338.103976 
L 485.212987 338.575535 
L 489.027068 338.98544 
L 491.569788 339.312065 
L 510.640191 340.543075 
L 513.182912 333.599184 
L 515.725632 334.405745 
L 522.082433 336.050447 
L 529.710595 337.538946 
L 530.981955 335.821764 
L 538.610116 337.451619 
L 544.966917 338.343567 
L 552.595079 339.207866 
L 555.137799 339.427731 
L 556.409159 339.340051 
L 561.4946 339.741708 
L 566.580041 340.054343 
L 567.851401 339.958728 
L 579.293643 340.627061 
L 580.565003 340.530934 
L 580.565003 340.530934 
" clip-path="url(#p5075dd0e45)" style="fill: none; stroke: #9467bd; stroke-width: 1.2; stroke-linecap: square"/>
   </g>
   <g id="patch_3">
    <path d="M 49.2 356.965 
L 49.2 24.325 
" style="fill: none; stroke: #000000; stroke-width: 0.8; stroke-linejoin: miter; stroke-linecap: square"/>
   </g>
   <g id="patch_4">
    <path d="M 607.2 356.965 
L 607.2 24.325 
" style="fill: none; stroke: #000000; stroke-width: 0.8; stroke-linejoin: miter; stroke-linecap: square"/>
   </g>
   <g id="patch_5">
    <path d="M 49.2 356.965 
L 607.2 356.965 
" style="fill: none; stroke: #000000; stroke-width: 0.8; stroke-linejoin: miter; stroke-linecap: square"/>
   </g>
   <g id="patch_6">
    <path d="M 49.2 24.325 
L 607.2 24.325 
" style="fill: none; stroke: #000000; stroke-width: 0.8; stroke-linejoin: miter; stroke-linecap: square"/>
   </g>
   <g id="text_20">
    <!-- Total Energy Consumption -->
    <g transform="translate(232.2 18.325) scale(0.16 -0.16)">
     <defs>
      <path id="SimHei-54" d="M 2850 3925 
L 1850 3925 
L 1850 125 
L 1275 125 
L 1275 3925 
L 275 3925 
L 275 4400 
L 2850 4400 
L 2850 3925 
z
" transform="scale(0.015625)"/>
      <path id="SimHei-74" d="M 2750 200 
Q 2625 150 2462 112 
Q 2300 75 2025 75 
Q 1575 75 1300 325 
Q 1025 575 1025 1025 
L 1025 2525 
L 175 2525 
L 175 2925 
L 1025 2925 
L 1025 3900 
L 1525 3900 
L 1525 2925 
L 2550 2925 
L 2550 2525 
L 1525 2525 
L 1525 1000 
Q 1525 800 1625 662 
Q 1725 525 2000 525 
Q 2275 525 2450 575 
Q 2625 625 2750 700 
L 2750 200 
z
" transform="scale(0.015625)"/>
      <path id="SimHei-61" d="M 2875 125 
L 2275 125 
Q 2225 175 2200 262 
Q 2175 350 2175 475 
Q 2000 275 1750 175 
Q 1500 75 1225 75 
Q 825 75 550 275 
Q 275 475 275 850 
Q 275 1225 525 1450 
Q 775 1675 1300 1750 
Q 1650 1800 1912 1875 
Q 2175 1950 2175 2075 
Q 2175 2225 2062 2375 
Q 1950 2525 1575 2525 
Q 1275 2525 1137 2412 
Q 1000 2300 950 2100 
L 400 2100 
Q 450 2500 762 2737 
Q 1075 2975 1575 2975 
Q 2125 2975 2400 2725 
Q 2675 2475 2675 2025 
L 2675 650 
Q 2675 500 2725 375 
Q 2775 250 2875 125 
z
M 2175 1050 
L 2175 1550 
Q 2025 1500 1887 1462 
Q 1750 1425 1425 1375 
Q 1050 1325 937 1200 
Q 825 1075 825 900 
Q 825 750 937 637 
Q 1050 525 1275 525 
Q 1500 525 1762 650 
Q 2025 775 2175 1050 
z
" transform="scale(0.015625)"/>
      <path id="SimHei-6c" d="M 1825 125 
L 1325 125 
L 1325 4400 
L 1825 4400 
L 1825 125 
z
" transform="scale(0.015625)"/>
      <path id="SimHei-20" transform="scale(0.015625)"/>
      <path id="SimHei-43" d="M 2975 1825 
Q 2950 875 2575 475 
Q 2200 75 1675 75 
Q 1075 75 650 562 
Q 225 1050 225 2125 
Q 225 3300 637 3875 
Q 1050 4450 1700 4450 
Q 2250 4450 2612 4037 
Q 2975 3625 2950 2875 
L 2400 2875 
Q 2400 3425 2225 3700 
Q 2050 3975 1700 3975 
Q 1300 3975 1062 3562 
Q 825 3150 825 2175 
Q 825 1275 1062 912 
Q 1300 550 1675 550 
Q 1950 550 2175 812 
Q 2400 1075 2400 1825 
L 2975 1825 
z
" transform="scale(0.015625)"/>
      <path id="SimHei-75" d="M 2800 125 
L 2300 125 
L 2300 650 
Q 2100 375 1862 225 
Q 1625 75 1250 75 
Q 800 75 575 325 
Q 350 575 350 950 
L 350 2925 
L 850 2925 
L 850 1125 
Q 850 825 1000 650 
Q 1150 475 1400 475 
Q 1725 475 2012 812 
Q 2300 1150 2300 1650 
L 2300 2925 
L 2800 2925 
L 2800 125 
z
" transform="scale(0.015625)"/>
      <path id="SimHei-6d" d="M 3050 125 
L 2550 125 
L 2550 2150 
Q 2550 2300 2500 2400 
Q 2450 2500 2300 2500 
Q 2125 2500 1975 2312 
Q 1825 2125 1825 1825 
L 1825 125 
L 1325 125 
L 1325 2150 
Q 1325 2300 1275 2400 
Q 1225 2500 1075 2500 
Q 900 2500 750 2312 
Q 600 2125 600 1825 
L 600 125 
L 100 125 
L 100 2925 
L 600 2925 
L 600 2550 
Q 725 2750 900 2862 
Q 1075 2975 1275 2975 
Q 1475 2975 1612 2862 
Q 1750 2750 1800 2550 
Q 1925 2750 2087 2862 
Q 2250 2975 2450 2975 
Q 2750 2975 2900 2812 
Q 3050 2650 3050 2350 
L 3050 125 
z
" transform="scale(0.015625)"/>
     </defs>
     <use xlink:href="#SimHei-54"/>
     <use xlink:href="#SimHei-6f" transform="translate(50 0)"/>
     <use xlink:href="#SimHei-74" transform="translate(100 0)"/>
     <use xlink:href="#SimHei-61" transform="translate(150 0)"/>
     <use xlink:href="#SimHei-6c" transform="translate(200 0)"/>
     <use xlink:href="#SimHei-20" transform="translate(250 0)"/>
     <use xlink:href="#SimHei-45" transform="translate(300 0)"/>
     <use xlink:href="#SimHei-6e" transform="translate(350 0)"/>
     <use xlink:href="#SimHei-65" transform="translate(400 0)"/>
     <use xlink:href="#SimHei-72" transform="translate(450 0)"/>
     <use xlink:href="#SimHei-67" transform="translate(500 0)"/>
     <use xlink:href="#SimHei-79" transform="translate(550 0)"/>
     <use xlink:href="#SimHei-20" transform="translate(600 0)"/>
     <use xlink:href="#SimHei-43" transform="translate(650 0)"/>
     <use xlink:href="#SimHei-6f" transform="translate(700 0)"/>
     <use xlink:href="#SimHei-6e" transform="translate(750 0)"/>
     <use xlink:href="#SimHei-73" transform="translate(800 0)"/>
     <use xlink:href="#SimHei-75" transform="translate(850 0)"/>
     <use xlink:href="#SimHei-6d" transform="translate(900 0)"/>
     <use xlink:href="#SimHei-70" transform="translate(950 0)"/>
     <use xlink:href="#SimHei-74" transform="translate(1000 0)"/>
     <use xlink:href="#SimHei-69" transform="translate(1050 0)"/>
     <use xlink:href="#SimHei-6f" transform="translate(1100 0)"/>
     <use xlink:href="#SimHei-6e" transform="translate(1150 0)"/>
    </g>
   </g>
   <g id="legend_1">
    <g id="patch_7">
     <path d="M 512.4 113.425 
L 598.8 113.425 
Q 601.2 113.425 601.2 111.025 
L 601.2 32.725 
Q 601.2 30.325 598.8 30.325 
L 512.4 30.325 
Q 510 30.325 510 32.725 
L 510 111.025 
Q 510 113.425 512.4 113.425 
z
" style="fill: #ffffff; opacity: 0.8; stroke: #cccccc; stroke-linejoin: miter"/>
    </g>
    <g id="line2d_40">
     <path d="M 514.8 39.325 
L 526.8 39.325 
L 538.8 39.325 
" style="fill: none; stroke: #1f77b4; stroke-width: 1.2; stroke-linecap: square"/>
    </g>
    <g id="text_21">
     <!-- DDPG -->
     <g transform="translate(548.4 43.525) scale(0.12 -0.12)">
      <defs>
       <path id="SimHei-44" d="M 2925 2250 
Q 2925 1100 2437 612 
Q 1950 125 1125 125 
L 275 125 
L 275 4400 
L 1125 4400 
Q 2050 4400 2487 3900 
Q 2925 3400 2925 2250 
z
M 2325 2250 
Q 2325 3175 2025 3550 
Q 1725 3925 1125 3925 
L 850 3925 
L 850 600 
L 1125 600 
Q 1725 600 2025 962 
Q 2325 1325 2325 2250 
z
" transform="scale(0.015625)"/>
       <path id="SimHei-50" d="M 2950 3100 
Q 2950 2500 2600 2150 
Q 2250 1800 1625 1800 
L 900 1800 
L 900 125 
L 325 125 
L 325 4400 
L 1625 4400 
Q 2250 4400 2600 4050 
Q 2950 3700 2950 3100 
z
M 2375 3100 
Q 2375 3575 2150 3750 
Q 1925 3925 1475 3925 
L 900 3925 
L 900 2275 
L 1475 2275 
Q 1925 2275 2150 2450 
Q 2375 2625 2375 3100 
z
" transform="scale(0.015625)"/>
       <path id="SimHei-47" d="M 2850 75 
L 2425 75 
L 2350 425 
Q 2250 275 2037 175 
Q 1825 75 1575 75 
Q 1050 75 637 562 
Q 225 1050 225 2125 
Q 225 3300 600 3875 
Q 975 4450 1625 4450 
Q 2200 4450 2525 4025 
Q 2850 3600 2850 2925 
L 2300 2925 
Q 2300 3450 2125 3712 
Q 1950 3975 1625 3975 
Q 1225 3975 1025 3562 
Q 825 3150 825 2175 
Q 825 1250 1075 900 
Q 1325 550 1650 550 
Q 1975 550 2162 787 
Q 2350 1025 2350 1525 
L 2350 1800 
L 1575 1800 
L 1575 2275 
L 2850 2275 
L 2850 75 
z
" transform="scale(0.015625)"/>
      </defs>
      <use xlink:href="#SimHei-44"/>
      <use xlink:href="#SimHei-44" transform="translate(50 0)"/>
      <use xlink:href="#SimHei-50" transform="translate(100 0)"/>
      <use xlink:href="#SimHei-47" transform="translate(150 0)"/>
     </g>
    </g>
    <g id="line2d_41">
     <path d="M 514.8 55.225 
L 526.8 55.225 
L 538.8 55.225 
" style="fill: none; stroke: #ff7f0e; stroke-width: 1.2; stroke-linecap: square"/>
    </g>
    <g id="text_22">
     <!-- PPO -->
     <g transform="translate(548.4 59.425) scale(0.12 -0.12)">
      <defs>
       <path id="SimHei-4f" d="M 2950 2275 
Q 2950 1100 2587 587 
Q 2225 75 1575 75 
Q 925 75 550 587 
Q 175 1100 175 2275 
Q 175 3450 550 3950 
Q 925 4450 1575 4450 
Q 2225 4450 2587 3950 
Q 2950 3450 2950 2275 
z
M 2350 2275 
Q 2350 3325 2125 3650 
Q 1900 3975 1575 3975 
Q 1250 3975 1012 3650 
Q 775 3325 775 2275 
Q 775 1225 1012 887 
Q 1250 550 1575 550 
Q 1900 550 2125 887 
Q 2350 1225 2350 2275 
z
" transform="scale(0.015625)"/>
      </defs>
      <use xlink:href="#SimHei-50"/>
      <use xlink:href="#SimHei-50" transform="translate(50 0)"/>
      <use xlink:href="#SimHei-4f" transform="translate(100 0)"/>
     </g>
    </g>
    <g id="line2d_42">
     <path d="M 514.8 71.125 
L 526.8 71.125 
L 538.8 71.125 
" style="fill: none; stroke: #2ca02c; stroke-width: 1.2; stroke-linecap: square"/>
    </g>
    <g id="text_23">
     <!-- TD3 -->
     <g transform="translate(548.4 75.325) scale(0.12 -0.12)">
      <use xlink:href="#SimHei-54"/>
      <use xlink:href="#SimHei-44" transform="translate(50 0)"/>
      <use xlink:href="#SimHei-33" transform="translate(100 0)"/>
     </g>
    </g>
    <g id="line2d_43">
     <path d="M 514.8 87.025 
L 526.8 87.025 
L 538.8 87.025 
" style="fill: none; stroke: #d62728; stroke-width: 1.2; stroke-linecap: square"/>
    </g>
    <g id="text_24">
     <!-- GCN-DDQN -->
     <g transform="translate(548.4 91.225) scale(0.12 -0.12)">
      <defs>
       <path id="SimHei-4e" d="M 2850 125 
L 2225 125 
L 850 3225 
L 825 3225 
L 825 125 
L 250 125 
L 250 4400 
L 875 4400 
L 2250 1300 
L 2275 1300 
L 2275 4400 
L 2850 4400 
L 2850 125 
z
" transform="scale(0.015625)"/>
       <path id="SimHei-2d" d="M 2975 2125 
L 125 2125 
L 125 2525 
L 2975 2525 
L 2975 2125 
z
" transform="scale(0.015625)"/>
       <path id="SimHei-51" d="M 2950 2275 
Q 2950 1675 2862 1262 
Q 2775 850 2575 600 
L 2775 225 
L 2375 -200 
L 2150 225 
Q 2050 150 1900 112 
Q 1750 75 1575 75 
Q 925 75 550 587 
Q 175 1100 175 2275 
Q 175 3450 550 3950 
Q 925 4450 1575 4450 
Q 2225 4450 2587 3950 
Q 2950 3450 2950 2275 
z
M 2350 2275 
Q 2350 3325 2125 3650 
Q 1900 3975 1575 3975 
Q 1250 3975 1012 3650 
Q 775 3325 775 2275 
Q 775 1225 1012 887 
Q 1250 550 1575 550 
Q 1700 550 1800 587 
Q 1900 625 1950 675 
L 1550 1450 
L 1900 1875 
L 2250 1200 
Q 2300 1450 2325 1650 
Q 2350 1850 2350 2275 
z
" transform="scale(0.015625)"/>
      </defs>
      <use xlink:href="#SimHei-47"/>
      <use xlink:href="#SimHei-43" transform="translate(50 0)"/>
      <use xlink:href="#SimHei-4e" transform="translate(100 0)"/>
      <use xlink:href="#SimHei-2d" transform="translate(150 0)"/>
      <use xlink:href="#SimHei-44" transform="translate(200 0)"/>
      <use xlink:href="#SimHei-44" transform="translate(250 0)"/>
      <use xlink:href="#SimHei-51" transform="translate(300 0)"/>
      <use xlink:href="#SimHei-4e" transform="translate(350 0)"/>
     </g>
    </g>
    <g id="line2d_44">
     <path d="M 514.8 102.925 
L 526.8 102.925 
L 538.8 102.925 
" style="fill: none; stroke: #9467bd; stroke-width: 1.2; stroke-linecap: square"/>
    </g>
    <g id="text_25">
     <!-- GLDVTO -->
     <g transform="translate(548.4 107.125) scale(0.12 -0.12)">
      <defs>
       <path id="SimHei-4c" d="M 2900 125 
L 300 125 
L 300 4400 
L 875 4400 
L 875 600 
L 2900 600 
L 2900 125 
z
" transform="scale(0.015625)"/>
       <path id="SimHei-56" d="M 3050 4400 
L 1800 75 
L 1300 75 
L 50 4400 
L 650 4400 
L 1525 1125 
L 1575 1125 
L 2450 4400 
L 3050 4400 
z
" transform="scale(0.015625)"/>
      </defs>
      <use xlink:href="#SimHei-47"/>
      <use xlink:href="#SimHei-4c" transform="translate(50 0)"/>
      <use xlink:href="#SimHei-44" transform="translate(100 0)"/>
      <use xlink:href="#SimHei-56" transform="translate(150 0)"/>
      <use xlink:href="#SimHei-54" transform="translate(200 0)"/>
      <use xlink:href="#SimHei-4f" transform="translate(250 0)"/>
     </g>
    </g>
   </g>
  </g>
 </g>
 <defs>
  <clipPath id="p5075dd0e45">
   <rect x="49.2" y="24.325" width="558" height="332.64"/>
  </clipPath>
 </defs>
</svg>
