<?xml version="1.0" encoding="utf-8" standalone="no"?>
<!DOCTYPE svg PUBLIC "-//W3C//DTD SVG 1.1//EN"
  "http://www.w3.org/Graphics/SVG/1.1/DTD/svg11.dtd">
<svg xmlns:xlink="http://www.w3.org/1999/xlink" width="621.9pt" height="397.915pt" viewBox="0 0 621.9 397.915" xmlns="http://www.w3.org/2000/svg" version="1.1">
 <metadata>
  <rdf:RDF xmlns:dc="http://purl.org/dc/elements/1.1/" xmlns:cc="http://creativecommons.org/ns#" xmlns:rdf="http://www.w3.org/1999/02/22-rdf-syntax-ns#">
   <cc:Work>
    <dc:type rdf:resource="http://purl.org/dc/dcmitype/StillImage"/>
    <dc:date>2026-06-25T17:57:14.067001</dc:date>
    <dc:format>image/svg+xml</dc:format>
    <dc:creator>
     <cc:Agent>
      <dc:title>Matplotlib v3.10.7, https://matplotlib.org/</dc:title>
     </cc:Agent>
    </dc:creator>
   </cc:Work>
  </rdf:RDF>
 </metadata>
 <defs>
  <style type="text/css">*{stroke-linejoin: round; stroke-linecap: butt}</style>
 </defs>
 <g id="figure_1">
  <g id="patch_1">
   <path d="M 0 397.915 
L 621.9 397.915 
L 621.9 -0 
L 0 -0 
z
" style="fill: #ffffff"/>
  </g>
  <g id="axes_1">
   <g id="patch_2">
    <path d="M 56.7 356.965 
L 614.7 356.965 
L 614.7 24.325 
L 56.7 24.325 
z
" style="fill: #ffffff"/>
   </g>
   <g id="matplotlib.axis_1">
    <g id="xtick_1">
     <g id="line2d_1">
      <path d="M 82.063636 356.965 
L 82.063636 24.325 
" clip-path="url(#pf9bee4f884)" style="fill: none; stroke: #b0b0b0; stroke-opacity: 0.3; stroke-width: 0.8; stroke-linecap: square"/>
     </g>
     <g id="line2d_2">
      <defs>
       <path id="mfd1fbc8611" d="M 0 0 
L 0 3.5 
" style="stroke: #000000; stroke-width: 0.8"/>
      </defs>
      <g>
       <use xlink:href="#mfd1fbc8611" x="82.063636" y="356.965" style="stroke: #000000; stroke-width: 0.8"/>
      </g>
     </g>
     <g id="text_1">
      <!-- 0 -->
      <g transform="translate(79.063636 372.215) scale(0.12 -0.12)">
       <defs>
        <path id="SimHei-30" d="M 225 2537 
Q 250 3200 412 3587 
Q 575 3975 875 4225 
Q 1175 4475 1612 4475 
Q 2050 4475 2375 4112 
Q 2700 3750 2800 3200 
Q 2900 2650 2862 1937 
Q 2825 1225 2612 775 
Q 2400 325 1975 150 
Q 1550 -25 1125 187 
Q 700 400 525 750 
Q 350 1100 275 1487 
Q 200 1875 225 2537 
z
M 750 2687 
Q 675 2000 800 1462 
Q 925 925 1212 700 
Q 1500 475 1800 612 
Q 2100 750 2237 1162 
Q 2375 1575 2375 2062 
Q 2375 2550 2337 2950 
Q 2300 3350 2112 3675 
Q 1925 4000 1612 4012 
Q 1300 4025 1062 3700 
Q 825 3375 750 2687 
z
" transform="scale(0.015625)"/>
       </defs>
       <use xlink:href="#SimHei-30"/>
      </g>
     </g>
    </g>
    <g id="xtick_2">
     <g id="line2d_3">
      <path d="M 145.631647 356.965 
L 145.631647 24.325 
" clip-path="url(#pf9bee4f884)" style="fill: none; stroke: #b0b0b0; stroke-opacity: 0.3; stroke-width: 0.8; stroke-linecap: square"/>
     </g>
     <g id="line2d_4">
      <g>
       <use xlink:href="#mfd1fbc8611" x="145.631647" y="356.965" style="stroke: #000000; stroke-width: 0.8"/>
      </g>
     </g>
     <g id="text_2">
      <!-- 50 -->
      <g transform="translate(139.631647 372.215) scale(0.12 -0.12)">
       <defs>
        <path id="SimHei-35" d="M 550 1325 
Q 725 650 1150 575 
Q 1575 500 1837 662 
Q 2100 825 2212 1087 
Q 2325 1350 2312 1675 
Q 2300 2000 2137 2225 
Q 1975 2450 1725 2525 
Q 1475 2600 1162 2525 
Q 850 2450 650 2175 
L 225 2225 
Q 275 2375 700 4375 
L 2675 4375 
L 2675 3925 
L 1075 3925 
Q 950 3250 825 2850 
Q 1200 3025 1525 3012 
Q 1850 3000 2150 2862 
Q 2450 2725 2587 2487 
Q 2725 2250 2787 2012 
Q 2850 1775 2837 1500 
Q 2825 1225 2725 937 
Q 2625 650 2425 462 
Q 2225 275 1937 162 
Q 1650 50 1275 75 
Q 900 100 562 350 
Q 225 600 100 1200 
L 550 1325 
z
" transform="scale(0.015625)"/>
       </defs>
       <use xlink:href="#SimHei-35"/>
       <use xlink:href="#SimHei-30" transform="translate(50 0)"/>
      </g>
     </g>
    </g>
    <g id="xtick_3">
     <g id="line2d_5">
      <path d="M 209.199658 356.965 
L 209.199658 24.325 
" clip-path="url(#pf9bee4f884)" style="fill: none; stroke: #b0b0b0; stroke-opacity: 0.3; stroke-width: 0.8; stroke-linecap: square"/>
     </g>
     <g id="line2d_6">
      <g>
       <use xlink:href="#mfd1fbc8611" x="209.199658" y="356.965" style="stroke: #000000; stroke-width: 0.8"/>
      </g>
     </g>
     <g id="text_3">
      <!-- 100 -->
      <g transform="translate(200.199658 372.215) scale(0.12 -0.12)">
       <defs>
        <path id="SimHei-31" d="M 1400 3600 
Q 1075 3275 575 2975 
L 575 3450 
Q 1200 3875 1600 4450 
L 1900 4450 
L 1900 150 
L 1400 150 
L 1400 3600 
z
" transform="scale(0.015625)"/>
       </defs>
       <use xlink:href="#SimHei-31"/>
       <use xlink:href="#SimHei-30" transform="translate(50 0)"/>
       <use xlink:href="#SimHei-30" transform="translate(100 0)"/>
      </g>
     </g>
    </g>
    <g id="xtick_4">
     <g id="line2d_7">
      <path d="M 272.767669 356.965 
L 272.767669 24.325 
" clip-path="url(#pf9bee4f884)" style="fill: none; stroke: #b0b0b0; stroke-opacity: 0.3; stroke-width: 0.8; stroke-linecap: square"/>
     </g>
     <g id="line2d_8">
      <g>
       <use xlink:href="#mfd1fbc8611" x="272.767669" y="356.965" style="stroke: #000000; stroke-width: 0.8"/>
      </g>
     </g>
     <g id="text_4">
      <!-- 150 -->
      <g transform="translate(263.767669 372.215) scale(0.12 -0.12)">
       <use xlink:href="#SimHei-31"/>
       <use xlink:href="#SimHei-35" transform="translate(50 0)"/>
       <use xlink:href="#SimHei-30" transform="translate(100 0)"/>
      </g>
     </g>
    </g>
    <g id="xtick_5">
     <g id="line2d_9">
      <path d="M 336.33568 356.965 
L 336.33568 24.325 
" clip-path="url(#pf9bee4f884)" style="fill: none; stroke: #b0b0b0; stroke-opacity: 0.3; stroke-width: 0.8; stroke-linecap: square"/>
     </g>
     <g id="line2d_10">
      <g>
       <use xlink:href="#mfd1fbc8611" x="336.33568" y="356.965" style="stroke: #000000; stroke-width: 0.8"/>
      </g>
     </g>
     <g id="text_5">
      <!-- 200 -->
      <g transform="translate(327.33568 372.215) scale(0.12 -0.12)">
       <defs>
        <path id="SimHei-32" d="M 300 250 
Q 325 625 650 925 
Q 975 1225 1475 1862 
Q 1975 2500 2125 2850 
Q 2275 3200 2237 3450 
Q 2200 3700 2000 3862 
Q 1800 4025 1537 4000 
Q 1275 3975 1037 3800 
Q 800 3625 675 3275 
L 200 3350 
Q 400 3925 712 4187 
Q 1025 4450 1450 4475 
Q 1700 4500 1900 4462 
Q 2100 4425 2312 4287 
Q 2525 4150 2662 3875 
Q 2800 3600 2762 3212 
Q 2725 2825 2375 2287 
Q 2025 1750 1025 600 
L 2825 600 
L 2825 150 
L 300 150 
L 300 250 
z
" transform="scale(0.015625)"/>
       </defs>
       <use xlink:href="#SimHei-32"/>
       <use xlink:href="#SimHei-30" transform="translate(50 0)"/>
       <use xlink:href="#SimHei-30" transform="translate(100 0)"/>
      </g>
     </g>
    </g>
    <g id="xtick_6">
     <g id="line2d_11">
      <path d="M 399.903691 356.965 
L 399.903691 24.325 
" clip-path="url(#pf9bee4f884)" style="fill: none; stroke: #b0b0b0; stroke-opacity: 0.3; stroke-width: 0.8; stroke-linecap: square"/>
     </g>
     <g id="line2d_12">
      <g>
       <use xlink:href="#mfd1fbc8611" x="399.903691" y="356.965" style="stroke: #000000; stroke-width: 0.8"/>
      </g>
     </g>
     <g id="text_6">
      <!-- 250 -->
      <g transform="translate(390.903691 372.215) scale(0.12 -0.12)">
       <use xlink:href="#SimHei-32"/>
       <use xlink:href="#SimHei-35" transform="translate(50 0)"/>
       <use xlink:href="#SimHei-30" transform="translate(100 0)"/>
      </g>
     </g>
    </g>
    <g id="xtick_7">
     <g id="line2d_13">
      <path d="M 463.471702 356.965 
L 463.471702 24.325 
" clip-path="url(#pf9bee4f884)" style="fill: none; stroke: #b0b0b0; stroke-opacity: 0.3; stroke-width: 0.8; stroke-linecap: square"/>
     </g>
     <g id="line2d_14">
      <g>
       <use xlink:href="#mfd1fbc8611" x="463.471702" y="356.965" style="stroke: #000000; stroke-width: 0.8"/>
      </g>
     </g>
     <g id="text_7">
      <!-- 300 -->
      <g transform="translate(454.471702 372.215) scale(0.12 -0.12)">
       <defs>
        <path id="SimHei-33" d="M 250 1225 
L 700 1300 
Q 800 975 1025 762 
Q 1250 550 1587 562 
Q 1925 575 2125 837 
Q 2325 1100 2300 1437 
Q 2275 1775 2037 1962 
Q 1800 2150 1275 2225 
L 1275 2550 
Q 1800 2600 2037 2825 
Q 2275 3050 2250 3412 
Q 2225 3775 1925 3937 
Q 1625 4100 1287 3975 
Q 950 3850 750 3275 
L 300 3350 
Q 450 3800 712 4100 
Q 975 4400 1425 4450 
Q 1875 4500 2212 4337 
Q 2550 4175 2687 3837 
Q 2825 3500 2725 3100 
Q 2625 2700 2150 2400 
Q 2500 2250 2687 1950 
Q 2875 1650 2812 1162 
Q 2750 675 2375 375 
Q 2000 75 1525 87 
Q 1050 100 700 387 
Q 350 675 250 1225 
z
" transform="scale(0.015625)"/>
       </defs>
       <use xlink:href="#SimHei-33"/>
       <use xlink:href="#SimHei-30" transform="translate(50 0)"/>
       <use xlink:href="#SimHei-30" transform="translate(100 0)"/>
      </g>
     </g>
    </g>
    <g id="xtick_8">
     <g id="line2d_15">
      <path d="M 527.039713 356.965 
L 527.039713 24.325 
" clip-path="url(#pf9bee4f884)" style="fill: none; stroke: #b0b0b0; stroke-opacity: 0.3; stroke-width: 0.8; stroke-linecap: square"/>
     </g>
     <g id="line2d_16">
      <g>
       <use xlink:href="#mfd1fbc8611" x="527.039713" y="356.965" style="stroke: #000000; stroke-width: 0.8"/>
      </g>
     </g>
     <g id="text_8">
      <!-- 350 -->
      <g transform="translate(518.039713 372.215) scale(0.12 -0.12)">
       <use xlink:href="#SimHei-33"/>
       <use xlink:href="#SimHei-35" transform="translate(50 0)"/>
       <use xlink:href="#SimHei-30" transform="translate(100 0)"/>
      </g>
     </g>
    </g>
    <g id="xtick_9">
     <g id="line2d_17">
      <path d="M 590.607724 356.965 
L 590.607724 24.325 
" clip-path="url(#pf9bee4f884)" style="fill: none; stroke: #b0b0b0; stroke-opacity: 0.3; stroke-width: 0.8; stroke-linecap: square"/>
     </g>
     <g id="line2d_18">
      <g>
       <use xlink:href="#mfd1fbc8611" x="590.607724" y="356.965" style="stroke: #000000; stroke-width: 0.8"/>
      </g>
     </g>
     <g id="text_9">
      <!-- 400 -->
      <g transform="translate(581.607724 372.215) scale(0.12 -0.12)">
       <defs>
        <path id="SimHei-34" d="M 2000 1100 
L 75 1100 
L 75 1525 
L 2100 4450 
L 2475 4450 
L 2475 1525 
L 3075 1525 
L 3075 1100 
L 2475 1100 
L 2475 150 
L 2000 150 
L 2000 1100 
z
M 2000 1525 
L 2000 3500 
L 600 1525 
L 2000 1525 
z
" transform="scale(0.015625)"/>
       </defs>
       <use xlink:href="#SimHei-34"/>
       <use xlink:href="#SimHei-30" transform="translate(50 0)"/>
       <use xlink:href="#SimHei-30" transform="translate(100 0)"/>
      </g>
     </g>
    </g>
    <g id="text_10">
     <!-- Episode -->
     <g transform="translate(307.7 388.715) scale(0.16 -0.16)">
      <defs>
       <path id="SimHei-45" d="M 2900 125 
L 350 125 
L 350 4400 
L 2775 4400 
L 2775 3925 
L 925 3925 
L 925 2600 
L 2625 2600 
L 2625 2125 
L 925 2125 
L 925 600 
L 2900 600 
L 2900 125 
z
" transform="scale(0.015625)"/>
       <path id="SimHei-70" d="M 2825 1525 
Q 2825 800 2475 425 
Q 2125 50 1625 50 
Q 1350 50 1150 162 
Q 950 275 800 500 
L 800 -800 
L 300 -800 
L 300 2925 
L 800 2925 
L 800 2550 
Q 950 2775 1150 2875 
Q 1350 2975 1625 2975 
Q 2125 2975 2475 2612 
Q 2825 2250 2825 1525 
z
M 2275 1525 
Q 2275 2000 2087 2262 
Q 1900 2525 1525 2525 
Q 1225 2525 1012 2262 
Q 800 2000 800 1525 
Q 800 1050 1012 775 
Q 1225 500 1525 500 
Q 1900 500 2087 775 
Q 2275 1050 2275 1525 
z
" transform="scale(0.015625)"/>
       <path id="SimHei-69" d="M 1800 3725 
L 1300 3725 
L 1300 4375 
L 1800 4375 
L 1800 3725 
z
M 1800 125 
L 1300 125 
L 1300 2925 
L 1800 2925 
L 1800 125 
z
" transform="scale(0.015625)"/>
       <path id="SimHei-73" d="M 2750 900 
Q 2750 500 2437 287 
Q 2125 75 1650 75 
Q 1050 75 725 312 
Q 400 550 400 1000 
L 900 1000 
Q 900 700 1112 600 
Q 1325 500 1625 500 
Q 1925 500 2075 612 
Q 2225 725 2225 900 
Q 2225 1025 2100 1150 
Q 1975 1275 1475 1350 
Q 900 1425 687 1637 
Q 475 1850 475 2200 
Q 475 2500 762 2737 
Q 1050 2975 1600 2975 
Q 2100 2975 2387 2750 
Q 2675 2525 2675 2150 
L 2175 2150 
Q 2175 2375 2012 2462 
Q 1850 2550 1600 2550 
Q 1275 2550 1137 2437 
Q 1000 2325 1000 2175 
Q 1000 2000 1125 1900 
Q 1250 1800 1650 1750 
Q 2300 1650 2525 1437 
Q 2750 1225 2750 900 
z
" transform="scale(0.015625)"/>
       <path id="SimHei-6f" d="M 2925 1525 
Q 2925 875 2525 475 
Q 2125 75 1575 75 
Q 1025 75 625 475 
Q 225 875 225 1525 
Q 225 2175 625 2575 
Q 1025 2975 1575 2975 
Q 2125 2975 2525 2575 
Q 2925 2175 2925 1525 
z
M 2375 1525 
Q 2375 2025 2125 2275 
Q 1875 2525 1575 2525 
Q 1275 2525 1025 2275 
Q 775 2025 775 1525 
Q 775 1025 1025 775 
Q 1275 525 1575 525 
Q 1875 525 2125 775 
Q 2375 1025 2375 1525 
z
" transform="scale(0.015625)"/>
       <path id="SimHei-64" d="M 2750 125 
L 2250 125 
L 2250 500 
Q 2100 275 1900 175 
Q 1700 75 1425 75 
Q 925 75 575 437 
Q 225 800 225 1525 
Q 225 2250 575 2625 
Q 925 3000 1425 3000 
Q 1700 3000 1900 2887 
Q 2100 2775 2250 2550 
L 2250 4400 
L 2750 4400 
L 2750 125 
z
M 2250 1525 
Q 2250 2000 2037 2275 
Q 1825 2550 1525 2550 
Q 1150 2550 962 2275 
Q 775 2000 775 1525 
Q 775 1050 962 787 
Q 1150 525 1525 525 
Q 1825 525 2037 787 
Q 2250 1050 2250 1525 
z
" transform="scale(0.015625)"/>
       <path id="SimHei-65" d="M 2850 1075 
Q 2800 625 2450 350 
Q 2100 75 1625 75 
Q 1025 75 637 462 
Q 250 850 250 1525 
Q 250 2200 637 2587 
Q 1025 2975 1625 2975 
Q 2150 2975 2487 2637 
Q 2825 2300 2825 1525 
L 800 1525 
Q 800 975 1037 750 
Q 1275 525 1625 525 
Q 1900 525 2075 662 
Q 2250 800 2300 1075 
L 2850 1075 
z
M 2250 1925 
Q 2200 2275 2025 2412 
Q 1850 2550 1575 2550 
Q 1325 2550 1125 2412 
Q 925 2275 825 1925 
L 2250 1925 
z
" transform="scale(0.015625)"/>
      </defs>
      <use xlink:href="#SimHei-45"/>
      <use xlink:href="#SimHei-70" transform="translate(50 0)"/>
      <use xlink:href="#SimHei-69" transform="translate(100 0)"/>
      <use xlink:href="#SimHei-73" transform="translate(150 0)"/>
      <use xlink:href="#SimHei-6f" transform="translate(200 0)"/>
      <use xlink:href="#SimHei-64" transform="translate(250 0)"/>
      <use xlink:href="#SimHei-65" transform="translate(300 0)"/>
     </g>
    </g>
   </g>
   <g id="matplotlib.axis_2">
    <g id="ytick_1">
     <g id="line2d_19">
      <path d="M 56.7 337.729098 
L 614.7 337.729098 
" clip-path="url(#pf9bee4f884)" style="fill: none; stroke: #b0b0b0; stroke-opacity: 0.3; stroke-width: 0.8; stroke-linecap: square"/>
     </g>
     <g id="line2d_20">
      <defs>
       <path id="me779cc944c" d="M 0 0 
L -3.5 0 
" style="stroke: #000000; stroke-width: 0.8"/>
      </defs>
      <g>
       <use xlink:href="#me779cc944c" x="56.7" y="337.729098" style="stroke: #000000; stroke-width: 0.8"/>
      </g>
     </g>
     <g id="text_11">
      <!-- 0.05 -->
      <g transform="translate(25.7 341.854098) scale(0.12 -0.12)">
       <defs>
        <path id="SimHei-2e" d="M 1075 125 
L 500 125 
L 500 675 
L 1075 675 
L 1075 125 
z
" transform="scale(0.015625)"/>
       </defs>
       <use xlink:href="#SimHei-30"/>
       <use xlink:href="#SimHei-2e" transform="translate(50 0)"/>
       <use xlink:href="#SimHei-30" transform="translate(100 0)"/>
       <use xlink:href="#SimHei-35" transform="translate(150 0)"/>
      </g>
     </g>
    </g>
    <g id="ytick_2">
     <g id="line2d_21">
      <path d="M 56.7 273.489113 
L 614.7 273.489113 
" clip-path="url(#pf9bee4f884)" style="fill: none; stroke: #b0b0b0; stroke-opacity: 0.3; stroke-width: 0.8; stroke-linecap: square"/>
     </g>
     <g id="line2d_22">
      <g>
       <use xlink:href="#me779cc944c" x="56.7" y="273.489113" style="stroke: #000000; stroke-width: 0.8"/>
      </g>
     </g>
     <g id="text_12">
      <!-- 0.10 -->
      <g transform="translate(25.7 277.614113) scale(0.12 -0.12)">
       <use xlink:href="#SimHei-30"/>
       <use xlink:href="#SimHei-2e" transform="translate(50 0)"/>
       <use xlink:href="#SimHei-31" transform="translate(100 0)"/>
       <use xlink:href="#SimHei-30" transform="translate(150 0)"/>
      </g>
     </g>
    </g>
    <g id="ytick_3">
     <g id="line2d_23">
      <path d="M 56.7 209.249128 
L 614.7 209.249128 
" clip-path="url(#pf9bee4f884)" style="fill: none; stroke: #b0b0b0; stroke-opacity: 0.3; stroke-width: 0.8; stroke-linecap: square"/>
     </g>
     <g id="line2d_24">
      <g>
       <use xlink:href="#me779cc944c" x="56.7" y="209.249128" style="stroke: #000000; stroke-width: 0.8"/>
      </g>
     </g>
     <g id="text_13">
      <!-- 0.15 -->
      <g transform="translate(25.7 213.374128) scale(0.12 -0.12)">
       <use xlink:href="#SimHei-30"/>
       <use xlink:href="#SimHei-2e" transform="translate(50 0)"/>
       <use xlink:href="#SimHei-31" transform="translate(100 0)"/>
       <use xlink:href="#SimHei-35" transform="translate(150 0)"/>
      </g>
     </g>
    </g>
    <g id="ytick_4">
     <g id="line2d_25">
      <path d="M 56.7 145.009142 
L 614.7 145.009142 
" clip-path="url(#pf9bee4f884)" style="fill: none; stroke: #b0b0b0; stroke-opacity: 0.3; stroke-width: 0.8; stroke-linecap: square"/>
     </g>
     <g id="line2d_26">
      <g>
       <use xlink:href="#me779cc944c" x="56.7" y="145.009142" style="stroke: #000000; stroke-width: 0.8"/>
      </g>
     </g>
     <g id="text_14">
      <!-- 0.20 -->
      <g transform="translate(25.7 149.134142) scale(0.12 -0.12)">
       <use xlink:href="#SimHei-30"/>
       <use xlink:href="#SimHei-2e" transform="translate(50 0)"/>
       <use xlink:href="#SimHei-32" transform="translate(100 0)"/>
       <use xlink:href="#SimHei-30" transform="translate(150 0)"/>
      </g>
     </g>
    </g>
    <g id="ytick_5">
     <g id="line2d_27">
      <path d="M 56.7 80.769157 
L 614.7 80.769157 
" clip-path="url(#pf9bee4f884)" style="fill: none; stroke: #b0b0b0; stroke-opacity: 0.3; stroke-width: 0.8; stroke-linecap: square"/>
     </g>
     <g id="line2d_28">
      <g>
       <use xlink:href="#me779cc944c" x="56.7" y="80.769157" style="stroke: #000000; stroke-width: 0.8"/>
      </g>
     </g>
     <g id="text_15">
      <!-- 0.25 -->
      <g transform="translate(25.7 84.894157) scale(0.12 -0.12)">
       <use xlink:href="#SimHei-30"/>
       <use xlink:href="#SimHei-2e" transform="translate(50 0)"/>
       <use xlink:href="#SimHei-32" transform="translate(100 0)"/>
       <use xlink:href="#SimHei-35" transform="translate(150 0)"/>
      </g>
     </g>
    </g>
    <g id="text_16">
     <!-- Delay (s) -->
     <g transform="translate(19.7 226.645) rotate(-90) scale(0.16 -0.16)">
      <defs>
       <path id="SimHei-44" d="M 2925 2250 
Q 2925 1100 2437 612 
Q 1950 125 1125 125 
L 275 125 
L 275 4400 
L 1125 4400 
Q 2050 4400 2487 3900 
Q 2925 3400 2925 2250 
z
M 2325 2250 
Q 2325 3175 2025 3550 
Q 1725 3925 1125 3925 
L 850 3925 
L 850 600 
L 1125 600 
Q 1725 600 2025 962 
Q 2325 1325 2325 2250 
z
" transform="scale(0.015625)"/>
       <path id="SimHei-6c" d="M 1825 125 
L 1325 125 
L 1325 4400 
L 1825 4400 
L 1825 125 
z
" transform="scale(0.015625)"/>
       <path id="SimHei-61" d="M 2875 125 
L 2275 125 
Q 2225 175 2200 262 
Q 2175 350 2175 475 
Q 2000 275 1750 175 
Q 1500 75 1225 75 
Q 825 75 550 275 
Q 275 475 275 850 
Q 275 1225 525 1450 
Q 775 1675 1300 1750 
Q 1650 1800 1912 1875 
Q 2175 1950 2175 2075 
Q 2175 2225 2062 2375 
Q 1950 2525 1575 2525 
Q 1275 2525 1137 2412 
Q 1000 2300 950 2100 
L 400 2100 
Q 450 2500 762 2737 
Q 1075 2975 1575 2975 
Q 2125 2975 2400 2725 
Q 2675 2475 2675 2025 
L 2675 650 
Q 2675 500 2725 375 
Q 2775 250 2875 125 
z
M 2175 1050 
L 2175 1550 
Q 2025 1500 1887 1462 
Q 1750 1425 1425 1375 
Q 1050 1325 937 1200 
Q 825 1075 825 900 
Q 825 750 937 637 
Q 1050 525 1275 525 
Q 1500 525 1762 650 
Q 2025 775 2175 1050 
z
" transform="scale(0.015625)"/>
       <path id="SimHei-79" d="M 2900 2925 
L 1750 -100 
Q 1650 -450 1450 -625 
Q 1250 -800 950 -800 
Q 825 -800 712 -787 
Q 600 -775 500 -725 
L 500 -225 
Q 600 -275 700 -300 
Q 800 -325 875 -325 
Q 1075 -325 1150 -262 
Q 1225 -200 1300 25 
L 200 2925 
L 750 2925 
L 1550 725 
L 1575 725 
L 2350 2925 
L 2900 2925 
z
" transform="scale(0.015625)"/>
       <path id="SimHei-20" transform="scale(0.015625)"/>
       <path id="SimHei-28" d="M 2975 -200 
L 2700 -475 
Q 2075 125 1762 775 
Q 1450 1425 1450 2250 
Q 1450 3075 1762 3725 
Q 2075 4375 2700 5000 
L 2975 4725 
Q 2400 4175 2112 3587 
Q 1825 3000 1825 2250 
Q 1825 1500 2112 912 
Q 2400 325 2975 -200 
z
" transform="scale(0.015625)"/>
       <path id="SimHei-29" d="M 1675 2250 
Q 1675 1425 1362 775 
Q 1050 125 425 -475 
L 150 -200 
Q 725 325 1012 912 
Q 1300 1500 1300 2250 
Q 1300 3000 1012 3587 
Q 725 4175 150 4725 
L 425 5000 
Q 1050 4375 1362 3725 
Q 1675 3075 1675 2250 
z
" transform="scale(0.015625)"/>
      </defs>
      <use xlink:href="#SimHei-44"/>
      <use xlink:href="#SimHei-65" transform="translate(50 0)"/>
      <use xlink:href="#SimHei-6c" transform="translate(100 0)"/>
      <use xlink:href="#SimHei-61" transform="translate(150 0)"/>
      <use xlink:href="#SimHei-79" transform="translate(200 0)"/>
      <use xlink:href="#SimHei-20" transform="translate(250 0)"/>
      <use xlink:href="#SimHei-28" transform="translate(300 0)"/>
      <use xlink:href="#SimHei-73" transform="translate(350 0)"/>
      <use xlink:href="#SimHei-29" transform="translate(400 0)"/>
     </g>
    </g>
   </g>
   <g id="line2d_29">
    <path d="M 82.063636 271.46851 
L 84.606357 245.214868 
L 85.877717 249.215653 
L 87.149077 254.580135 
L 89.691798 248.861857 
L 90.963158 236.775137 
L 93.505878 232.579415 
L 94.777239 223.155877 
L 96.048599 227.313742 
L 97.319959 218.071963 
L 98.591319 229.914288 
L 99.862679 232.511471 
L 101.13404 225.400314 
L 102.4054 223.586865 
L 103.67676 233.94404 
L 104.94812 231.780635 
L 106.219481 239.355655 
L 107.490841 238.630027 
L 108.762201 246.132557 
L 110.033561 242.018147 
L 111.304921 245.983694 
L 112.576282 244.916122 
L 113.847642 246.536531 
L 115.119002 256.381406 
L 117.661722 271.254612 
L 118.933083 278.465537 
L 122.747163 294.412074 
L 124.018524 271.566732 
L 126.561244 284.021052 
L 129.103964 295.010108 
L 130.375325 299.482058 
L 131.646685 303.200196 
L 136.732126 315.766897 
L 138.003486 311.536202 
L 139.274846 313.249716 
L 140.546206 315.186965 
L 141.817567 316.318659 
L 143.088927 318.219009 
L 144.360287 319.313657 
L 145.631647 321.307106 
L 146.903008 320.112538 
L 149.445728 323.052845 
L 150.717088 324.021352 
L 151.988448 308.475797 
L 153.259809 304.161257 
L 154.531169 307.992652 
L 155.802529 311.421841 
L 157.073889 313.638265 
L 159.61661 319.140547 
L 160.88797 321.102313 
L 162.15933 295.449704 
L 163.43069 299.269827 
L 164.702051 304.015152 
L 165.973411 303.921878 
L 168.516131 311.198215 
L 171.058852 316.923853 
L 172.330212 309.875609 
L 173.601572 292.733719 
L 174.872932 296.790895 
L 176.144293 272.697851 
L 177.415653 279.198067 
L 179.958373 282.266441 
L 181.229733 287.703975 
L 182.501094 290.83539 
L 183.772454 277.174519 
L 185.043814 281.872742 
L 186.315174 287.114172 
L 187.586535 260.293482 
L 188.857895 267.829532 
L 190.129255 272.42099 
L 191.400615 278.166313 
L 192.671975 275.313494 
L 193.943336 260.281899 
L 195.214696 241.116559 
L 196.486056 250.929028 
L 197.757416 259.69336 
L 199.028776 228.073986 
L 200.300137 239.334157 
L 201.571497 246.301117 
L 202.842857 254.399106 
L 204.114217 237.365994 
L 205.385578 243.526572 
L 206.656938 247.930844 
L 207.928298 250.481358 
L 209.199658 258.853618 
L 211.742379 232.340997 
L 213.013739 222.174944 
L 214.285099 205.004631 
L 215.556459 206.30947 
L 216.82782 195.346905 
L 218.09918 208.913978 
L 219.37054 200.518056 
L 220.6419 204.237263 
L 221.91326 205.17215 
L 223.184621 178.528635 
L 224.455981 163.427902 
L 225.727341 153.335519 
L 226.998701 139.454226 
L 228.270062 155.750056 
L 229.541422 143.155699 
L 230.812782 142.099484 
L 232.084142 150.391281 
L 233.355502 155.12652 
L 234.626863 172.337972 
L 235.898223 181.912497 
L 237.169583 179.863678 
L 238.440943 170.666923 
L 239.712303 177.98754 
L 240.983664 178.91803 
L 242.255024 167.153803 
L 243.526384 174.774114 
L 244.797744 170.516111 
L 246.069105 170.406796 
L 247.340465 165.108224 
L 248.611825 156.104224 
L 249.883185 155.340457 
L 251.154545 153.434687 
L 252.425906 142.014595 
L 253.697266 144.032663 
L 254.968626 126.908752 
L 256.239986 142.945724 
L 257.511347 145.907397 
L 258.782707 143.393067 
L 260.054067 150.098234 
L 261.325427 149.853701 
L 262.596787 147.698299 
L 263.868148 149.938608 
L 265.139508 139.009921 
L 266.410868 135.09828 
L 267.682228 129.628427 
L 268.953589 128.687718 
L 270.224949 137.304864 
L 271.496309 154.699 
L 272.767669 162.74811 
L 274.039029 164.838956 
L 275.31039 160.782672 
L 276.58175 161.505987 
L 277.85311 152.271186 
L 279.12447 155.209006 
L 280.39583 162.429511 
L 281.667191 172.9928 
L 282.938551 168.437827 
L 284.209911 184.696091 
L 285.481271 178.736831 
L 286.752632 175.990619 
L 288.023992 181.011844 
L 289.295352 169.833836 
L 290.566712 169.370366 
L 291.838072 171.374953 
L 293.109433 172.793564 
L 294.380793 177.061135 
L 295.652153 170.070481 
L 296.923513 168.235543 
L 298.194874 175.234213 
L 299.466234 177.165922 
L 300.737594 172.493066 
L 302.008954 172.016119 
L 303.280314 185.110295 
L 304.551675 181.272762 
L 305.823035 193.488395 
L 307.094395 191.432094 
L 308.365755 178.249683 
L 309.637116 173.743559 
L 310.908476 167.539041 
L 312.179836 160.310338 
L 313.451196 160.082807 
L 314.722556 168.008891 
L 315.993917 167.226457 
L 317.265277 176.228265 
L 318.536637 174.003536 
L 319.807997 169.408281 
L 321.079357 174.226912 
L 322.350718 178.045816 
L 323.622078 172.458797 
L 324.893438 182.703153 
L 326.164798 171.300122 
L 327.436159 172.095959 
L 329.978879 184.959506 
L 331.250239 179.858904 
L 332.521599 180.937351 
L 333.79296 182.681933 
L 335.06432 189.603315 
L 336.33568 184.557302 
L 337.60704 186.150615 
L 338.878401 196.668536 
L 340.149761 202.200641 
L 341.421121 199.428401 
L 342.692481 200.508071 
L 343.963841 189.592796 
L 345.235202 190.229995 
L 346.506562 196.096579 
L 347.777922 203.070058 
L 349.049282 196.142173 
L 350.320643 186.994641 
L 351.592003 185.589461 
L 352.863363 197.273262 
L 354.134723 189.549556 
L 355.406083 190.074555 
L 356.677444 188.919018 
L 357.948804 179.784793 
L 359.220164 171.889822 
L 360.491524 182.229802 
L 361.762884 190.053764 
L 363.034245 196.621487 
L 364.305605 189.747449 
L 365.576965 197.40773 
L 366.848325 198.692495 
L 368.119686 201.333686 
L 369.391046 209.454196 
L 370.662406 210.511953 
L 371.933766 217.649791 
L 373.205126 211.382806 
L 374.476487 214.359392 
L 375.747847 211.592548 
L 377.019207 205.585106 
L 378.290567 204.73882 
L 379.561928 210.984027 
L 380.833288 201.515849 
L 382.104648 206.020827 
L 383.376008 197.034309 
L 384.647368 199.709642 
L 385.918729 206.323354 
L 388.461449 195.579798 
L 389.732809 181.288994 
L 391.00417 191.391211 
L 392.27553 184.190425 
L 393.54689 187.010214 
L 394.81825 193.936163 
L 396.08961 194.669481 
L 397.360971 208.666715 
L 398.632331 211.170039 
L 399.903691 205.5665 
L 401.175051 206.281824 
L 402.446411 204.445938 
L 403.717772 201.967017 
L 404.989132 198.434064 
L 406.260492 200.445581 
L 407.531852 206.380094 
L 408.803213 197.034898 
L 410.074573 197.298426 
L 411.345933 196.749227 
L 412.617293 198.362955 
L 413.888653 198.315235 
L 415.160014 206.98613 
L 416.431374 201.217258 
L 417.702734 209.648152 
L 418.974094 212.428148 
L 420.245455 210.091955 
L 421.516815 218.611696 
L 422.788175 211.490532 
L 424.059535 215.724188 
L 425.330895 222.720582 
L 426.602256 211.948349 
L 427.873616 204.252359 
L 429.144976 204.61545 
L 431.687697 192.098124 
L 432.959057 197.590034 
L 434.230417 199.932516 
L 435.501777 191.490405 
L 436.773137 185.614894 
L 438.044498 191.9679 
L 439.315858 186.380307 
L 440.587218 188.226352 
L 441.858578 196.669542 
L 443.129938 204.011423 
L 445.672659 179.999981 
L 446.944019 172.718111 
L 448.215379 186.218958 
L 449.48674 187.397011 
L 450.7581 191.572062 
L 452.02946 183.185564 
L 453.30082 181.896456 
L 454.57218 174.252913 
L 455.843541 163.411695 
L 457.114901 160.958066 
L 458.386261 162.67576 
L 459.657621 175.059372 
L 460.928982 171.902088 
L 462.200342 172.197312 
L 463.471702 171.711924 
L 464.743062 170.109532 
L 466.014422 172.783674 
L 467.285783 179.467658 
L 468.557143 169.815567 
L 469.828503 175.324726 
L 471.099863 179.559732 
L 472.371224 176.024075 
L 473.642584 177.980674 
L 474.913944 184.810352 
L 476.185304 180.508819 
L 477.456664 173.47424 
L 478.728025 177.327875 
L 479.999385 178.103427 
L 481.270745 184.111573 
L 482.542105 178.303915 
L 483.813465 187.219331 
L 485.084826 173.8665 
L 486.356186 189.215793 
L 487.627546 186.149849 
L 488.898906 195.172956 
L 490.170267 200.430906 
L 491.441627 201.669169 
L 492.712987 201.617709 
L 493.984347 194.986782 
L 495.255707 197.614947 
L 496.527068 195.855087 
L 497.798428 195.932508 
L 499.069788 206.048872 
L 500.341148 210.809164 
L 501.612509 205.983489 
L 502.883869 209.084691 
L 504.155229 210.964428 
L 505.426589 217.649789 
L 506.697949 212.729217 
L 507.96931 216.406797 
L 509.24067 215.143737 
L 510.51203 222.929205 
L 511.78339 214.508374 
L 513.054751 207.319954 
L 514.326111 196.418939 
L 515.597471 200.17469 
L 516.868831 192.337547 
L 518.140191 195.40145 
L 519.411552 192.106113 
L 521.954272 212.568746 
L 523.225632 214.791527 
L 524.496992 222.2448 
L 525.768353 224.520478 
L 527.039713 222.543194 
L 528.311073 223.325083 
L 529.582433 214.72256 
L 530.853794 218.312581 
L 532.125154 222.437907 
L 533.396514 221.510936 
L 534.667874 209.226757 
L 535.939234 207.823631 
L 537.210595 219.244778 
L 538.481955 222.980043 
L 539.753315 222.15075 
L 541.024675 219.840417 
L 542.296036 228.609076 
L 543.567396 219.503675 
L 546.110116 205.483092 
L 547.381476 208.087694 
L 548.652837 210.95346 
L 549.924197 207.421473 
L 551.195557 205.506173 
L 552.466917 206.361763 
L 555.009638 184.379144 
L 556.280998 193.83506 
L 557.552358 199.630822 
L 558.823718 186.46594 
L 560.095079 185.440051 
L 561.366439 186.841246 
L 562.637799 199.281825 
L 563.909159 207.519312 
L 565.180519 209.527349 
L 566.45188 202.53612 
L 567.72324 205.676404 
L 568.9946 203.162268 
L 570.26596 205.386939 
L 571.537321 212.686956 
L 572.808681 215.98381 
L 574.080041 207.225375 
L 575.351401 200.420931 
L 576.622761 207.643227 
L 577.894122 205.227101 
L 579.165482 202.124696 
L 581.708202 193.970647 
L 582.979563 206.086297 
L 584.250923 195.264468 
L 585.522283 199.492408 
L 586.793643 213.108172 
L 588.065003 216.015873 
L 588.065003 216.015873 
" clip-path="url(#pf9bee4f884)" style="fill: none; stroke: #1f77b4; stroke-width: 1.2; stroke-linecap: square"/>
   </g>
   <g id="line2d_30">
    <path d="M 82.063636 133.269163 
L 83.334997 133.104215 
L 84.606357 137.932027 
L 85.877717 135.500141 
L 87.149077 127.073352 
L 88.420437 127.105494 
L 89.691798 129.142278 
L 90.963158 125.35317 
L 92.234518 126.412701 
L 93.505878 126.368601 
L 94.777239 128.651522 
L 96.048599 125.214534 
L 97.319959 127.941532 
L 98.591319 131.347521 
L 99.862679 131.572126 
L 101.13404 131.098901 
L 102.4054 128.144099 
L 103.67676 126.510685 
L 104.94812 123.607582 
L 106.219481 123.054149 
L 107.490841 126.792179 
L 108.762201 129.218199 
L 110.033561 132.047338 
L 111.304921 130.738312 
L 112.576282 132.371218 
L 113.847642 132.114793 
L 115.119002 133.240209 
L 116.390362 136.821905 
L 117.661722 139.605935 
L 118.933083 139.794174 
L 120.204443 144.695367 
L 121.475803 143.969218 
L 122.747163 144.744861 
L 124.018524 142.327144 
L 125.289884 143.492969 
L 126.561244 145.129589 
L 127.832604 142.795025 
L 129.103964 145.955447 
L 130.375325 144.724684 
L 131.646685 148.22756 
L 132.918045 144.743619 
L 134.189405 150.396577 
L 135.460766 151.633586 
L 136.732126 155.030689 
L 138.003486 154.529483 
L 139.274846 151.79902 
L 140.546206 149.686912 
L 141.817567 155.889571 
L 143.088927 160.15713 
L 144.360287 162.769409 
L 145.631647 163.749881 
L 148.174368 168.936167 
L 149.445728 171.077522 
L 150.717088 175.429491 
L 151.988448 173.797784 
L 153.259809 172.80826 
L 154.531169 170.693062 
L 157.073889 169.850007 
L 158.345249 169.943041 
L 159.61661 172.692574 
L 160.88797 180.027303 
L 162.15933 186.596515 
L 163.43069 188.564411 
L 164.702051 185.501364 
L 167.244771 186.76352 
L 168.516131 186.857349 
L 169.787491 189.652043 
L 171.058852 190.669586 
L 172.330212 190.806852 
L 173.601572 189.963807 
L 174.872932 193.837357 
L 176.144293 197.337753 
L 177.415653 192.28129 
L 178.687013 193.865804 
L 179.958373 190.613077 
L 181.229733 195.12531 
L 182.501094 197.210371 
L 183.772454 200.02572 
L 185.043814 204.937997 
L 186.315174 205.698425 
L 187.586535 209.672183 
L 188.857895 212.400164 
L 190.129255 221.730548 
L 191.400615 226.784389 
L 192.671975 231.011652 
L 193.943336 229.951079 
L 195.214696 235.703247 
L 196.486056 235.653752 
L 197.757416 234.918685 
L 199.028776 239.431121 
L 200.300137 235.290286 
L 201.571497 234.685946 
L 202.842857 231.625123 
L 204.114217 233.540651 
L 205.385578 231.244885 
L 207.928298 231.123931 
L 209.199658 232.751742 
L 210.471018 235.724743 
L 211.742379 238.227403 
L 213.013739 239.298538 
L 214.285099 240.008495 
L 215.556459 240.325484 
L 216.82782 244.901394 
L 218.09918 246.4407 
L 219.37054 250.317866 
L 220.6419 250.538719 
L 221.91326 252.875422 
L 223.184621 251.75764 
L 224.455981 253.356524 
L 225.727341 252.307214 
L 226.998701 253.911415 
L 228.270062 256.522567 
L 229.541422 256.866974 
L 230.812782 259.708875 
L 232.084142 260.522626 
L 233.355502 263.122671 
L 234.626863 260.92943 
L 235.898223 262.624847 
L 237.169583 265.931635 
L 238.440943 263.447554 
L 239.712303 262.170101 
L 240.983664 263.031014 
L 242.255024 265.324209 
L 243.526384 264.236526 
L 244.797744 264.012321 
L 246.069105 265.553618 
L 248.611825 271.146021 
L 249.883185 273.282018 
L 251.154545 276.69394 
L 252.425906 277.674573 
L 253.697266 279.237093 
L 254.968626 280.404731 
L 256.239986 278.96964 
L 257.511347 280.501055 
L 258.782707 279.868052 
L 260.054067 283.193821 
L 261.325427 282.311454 
L 262.596787 280.822261 
L 263.868148 283.881516 
L 265.139508 280.616867 
L 267.682228 284.422966 
L 268.953589 283.376497 
L 270.224949 286.105331 
L 271.496309 286.468748 
L 272.767669 287.480702 
L 274.039029 287.893543 
L 275.31039 289.899691 
L 276.58175 292.885912 
L 277.85311 291.261862 
L 279.12447 293.275529 
L 280.39583 288.906268 
L 281.667191 289.463567 
L 282.938551 284.486663 
L 284.209911 283.969131 
L 285.481271 284.904306 
L 288.023992 293.884135 
L 289.295352 294.273763 
L 290.566712 295.638826 
L 291.838072 296.775224 
L 293.109433 292.268806 
L 294.380793 293.687332 
L 295.652153 296.575158 
L 296.923513 293.223126 
L 298.194874 295.959627 
L 299.466234 292.603832 
L 300.737594 292.080126 
L 302.008954 293.885392 
L 303.280314 292.282393 
L 304.551675 293.802999 
L 305.823035 291.148271 
L 307.094395 290.833007 
L 308.365755 290.914607 
L 309.637116 293.270622 
L 310.908476 293.615012 
L 312.179836 295.823817 
L 313.451196 297.360122 
L 314.722556 300.053539 
L 315.993917 301.887729 
L 317.265277 302.704048 
L 318.536637 302.624747 
L 319.807997 300.310052 
L 321.079357 300.933269 
L 322.350718 298.476253 
L 323.622078 297.445645 
L 324.893438 299.831133 
L 326.164798 298.594956 
L 327.436159 302.07524 
L 328.707519 299.027486 
L 329.978879 302.086923 
L 331.250239 303.808616 
L 332.521599 304.173041 
L 333.79296 303.881309 
L 336.33568 306.399412 
L 337.60704 307.703775 
L 338.878401 307.309473 
L 340.149761 307.746625 
L 341.421121 308.793599 
L 342.692481 307.553873 
L 345.235202 311.418336 
L 346.506562 309.209435 
L 347.777922 309.960977 
L 349.049282 309.346718 
L 350.320643 307.86255 
L 351.592003 308.884635 
L 352.863363 308.983537 
L 354.134723 311.592057 
L 355.406083 309.292327 
L 356.677444 308.868008 
L 357.948804 310.267803 
L 359.220164 311.460458 
L 360.491524 312.183161 
L 361.762884 313.652679 
L 363.034245 316.219751 
L 364.305605 315.712827 
L 365.576965 315.610149 
L 366.848325 318.326268 
L 368.119686 317.852597 
L 369.391046 318.057953 
L 370.662406 317.480306 
L 373.205126 318.477537 
L 374.476487 319.773563 
L 375.747847 321.497433 
L 377.019207 321.392519 
L 378.290567 318.303345 
L 379.561928 321.092462 
L 380.833288 322.506107 
L 382.104648 321.327851 
L 383.376008 322.53027 
L 384.647368 321.496474 
L 385.918729 321.656831 
L 388.461449 324.240933 
L 389.732809 323.443874 
L 391.00417 325.441322 
L 392.27553 325.884878 
L 393.54689 325.579734 
L 394.81825 325.469541 
L 396.08961 323.074757 
L 398.632331 324.60292 
L 399.903691 325.823092 
L 401.175051 325.721747 
L 402.446411 326.297734 
L 403.717772 326.681307 
L 404.989132 326.409025 
L 406.260492 326.419014 
L 407.531852 325.738487 
L 408.803213 327.14869 
L 410.074573 325.06909 
L 411.345933 324.194428 
L 412.617293 326.350548 
L 413.888653 326.178896 
L 415.160014 326.5698 
L 416.431374 327.220762 
L 417.702734 327.541003 
L 418.974094 322.192861 
L 420.245455 323.617708 
L 421.516815 324.860497 
L 424.059535 323.697699 
L 425.330895 324.559197 
L 426.602256 325.746662 
L 427.873616 327.245719 
L 429.144976 327.968961 
L 430.416336 329.319253 
L 431.687697 330.108762 
L 432.959057 331.241581 
L 434.230417 329.220068 
L 435.501777 330.491058 
L 436.773137 330.563299 
L 439.315858 330.278954 
L 440.587218 328.787536 
L 441.858578 329.705267 
L 443.129938 330.155775 
L 445.672659 331.777775 
L 446.944019 330.989958 
L 448.215379 330.765213 
L 449.48674 329.542872 
L 450.7581 330.236355 
L 452.02946 329.877819 
L 453.30082 327.946195 
L 454.57218 328.541214 
L 455.843541 330.067482 
L 457.114901 330.64975 
L 458.386261 329.843138 
L 459.657621 328.761414 
L 460.928982 329.226152 
L 462.200342 328.630919 
L 463.471702 329.308738 
L 464.743062 330.286184 
L 466.014422 331.68449 
L 467.285783 331.660174 
L 468.557143 332.770517 
L 469.828503 332.676932 
L 471.099863 332.736385 
L 472.371224 332.550018 
L 473.642584 333.413344 
L 474.913944 333.161135 
L 476.185304 333.740261 
L 477.456664 334.558596 
L 478.728025 334.632202 
L 479.999385 333.537564 
L 481.270745 334.230571 
L 483.813465 333.411322 
L 485.084826 333.354564 
L 486.356186 334.391087 
L 487.627546 334.709397 
L 488.898906 335.640281 
L 490.170267 335.68924 
L 492.712987 335.575993 
L 493.984347 336.360976 
L 495.255707 334.791469 
L 496.527068 335.322548 
L 497.798428 335.220285 
L 499.069788 334.904015 
L 500.341148 335.108287 
L 501.612509 335.801326 
L 502.883869 334.74087 
L 504.155229 335.823798 
L 505.426589 334.504491 
L 506.697949 335.313449 
L 507.96931 335.387507 
L 509.24067 336.080149 
L 510.51203 336.394203 
L 511.78339 337.263631 
L 513.054751 336.969858 
L 514.326111 335.677089 
L 515.597471 335.673783 
L 516.868831 336.4753 
L 518.140191 335.735638 
L 519.411552 335.198958 
L 520.682912 335.010658 
L 521.954272 333.992962 
L 523.225632 334.243904 
L 524.496992 334.286526 
L 525.768353 332.126745 
L 527.039713 332.719023 
L 529.582433 334.947709 
L 530.853794 335.982232 
L 532.125154 337.19229 
L 533.396514 337.815912 
L 534.667874 337.238858 
L 535.939234 336.106802 
L 537.210595 336.12877 
L 538.481955 335.320566 
L 539.753315 336.486662 
L 541.024675 336.014437 
L 542.296036 335.417551 
L 543.567396 335.91353 
L 544.838756 336.650229 
L 546.110116 337.122782 
L 547.381476 337.3297 
L 548.652837 337.34096 
L 549.924197 338.194814 
L 551.195557 337.817088 
L 552.466917 338.33195 
L 553.738278 338.073932 
L 555.009638 338.252722 
L 556.280998 338.96171 
L 557.552358 338.394677 
L 558.823718 337.996059 
L 560.095079 339.200603 
L 563.909159 337.759121 
L 565.180519 336.932132 
L 566.45188 336.782978 
L 567.72324 335.193407 
L 568.9946 334.229335 
L 570.26596 335.311114 
L 571.537321 335.072105 
L 572.808681 335.668735 
L 574.080041 335.932993 
L 575.351401 335.421541 
L 576.622761 335.076206 
L 577.894122 335.632469 
L 579.165482 335.431604 
L 580.436842 333.806832 
L 581.708202 333.20604 
L 582.979563 333.873498 
L 584.250923 333.910857 
L 585.522283 334.718995 
L 586.793643 333.710958 
L 588.065003 333.456365 
L 588.065003 333.456365 
" clip-path="url(#pf9bee4f884)" style="fill: none; stroke: #ff7f0e; stroke-width: 1.2; stroke-linecap: square"/>
   </g>
   <g id="line2d_31">
    <path d="M 82.063636 197.321026 
L 83.334997 190.183632 
L 84.606357 188.996841 
L 85.877717 188.144137 
L 87.149077 189.376396 
L 88.420437 190.063465 
L 89.691798 195.609621 
L 90.963158 194.939003 
L 92.234518 191.925476 
L 93.505878 190.602738 
L 94.777239 190.703542 
L 96.048599 190.556406 
L 98.591319 195.256971 
L 99.862679 199.477034 
L 102.4054 200.899615 
L 103.67676 200.1464 
L 104.94812 199.789194 
L 106.219481 199.163233 
L 107.490841 195.671829 
L 108.762201 191.71615 
L 110.033561 192.863874 
L 111.304921 195.211496 
L 112.576282 200.233272 
L 113.847642 204.489856 
L 115.119002 212.322595 
L 116.390362 221.141312 
L 117.661722 231.77356 
L 118.933083 239.468029 
L 120.204443 245.428736 
L 121.475803 249.671842 
L 122.747163 251.13039 
L 124.018524 247.742036 
L 125.289884 248.268085 
L 126.561244 242.460002 
L 127.832604 240.0745 
L 129.103964 236.992034 
L 130.375325 231.212458 
L 131.646685 224.284706 
L 132.918045 220.960856 
L 134.189405 212.98545 
L 135.460766 213.314758 
L 136.732126 209.592741 
L 138.003486 206.78629 
L 139.274846 205.066232 
L 140.546206 200.688421 
L 141.817567 199.184772 
L 143.088927 201.404793 
L 144.360287 193.873933 
L 145.631647 195.617523 
L 146.903008 194.052122 
L 148.174368 187.612209 
L 149.445728 189.738778 
L 150.717088 186.395813 
L 151.988448 185.343902 
L 153.259809 186.938211 
L 154.531169 189.925311 
L 155.802529 187.914402 
L 157.073889 188.960681 
L 159.61661 184.167151 
L 160.88797 183.51892 
L 162.15933 186.154307 
L 163.43069 193.712935 
L 164.702051 200.17717 
L 165.973411 202.903522 
L 167.244771 207.93302 
L 168.516131 208.987086 
L 169.787491 214.5013 
L 171.058852 214.647932 
L 172.330212 219.206521 
L 173.601572 218.531391 
L 174.872932 219.77414 
L 176.144293 222.312994 
L 177.415653 227.51018 
L 178.687013 229.130971 
L 179.958373 229.85439 
L 181.229733 227.964157 
L 182.501094 228.968554 
L 185.043814 249.561628 
L 186.315174 258.573498 
L 187.586535 266.636028 
L 188.857895 273.786412 
L 191.400615 285.849774 
L 192.671975 290.881904 
L 193.943336 296.383685 
L 195.214696 301.150163 
L 197.757416 308.16508 
L 199.028776 310.788372 
L 200.300137 313.957573 
L 202.842857 319.044758 
L 204.114217 320.960378 
L 206.656938 325.248438 
L 207.928298 326.374984 
L 209.199658 326.876723 
L 210.471018 327.624426 
L 213.013739 330.176739 
L 214.285099 332.277187 
L 215.556459 333.38595 
L 216.82782 332.696382 
L 218.09918 332.432559 
L 219.37054 331.987625 
L 220.6419 333.418138 
L 221.91326 334.315991 
L 223.184621 333.825632 
L 224.455981 334.932305 
L 225.727341 335.405035 
L 226.998701 336.35548 
L 228.270062 336.470396 
L 229.541422 336.427127 
L 230.812782 336.891898 
L 232.084142 337.728925 
L 233.355502 338.096234 
L 237.169583 339.709358 
L 238.440943 338.874779 
L 239.712303 339.607678 
L 240.983664 339.365583 
L 242.255024 338.891889 
L 244.797744 338.914601 
L 246.069105 339.807638 
L 247.340465 339.850093 
L 248.611825 340.159803 
L 249.883185 339.8419 
L 251.154545 339.862801 
L 252.425906 340.090474 
L 253.697266 339.24705 
L 257.511347 339.113244 
L 258.782707 338.523979 
L 260.054067 338.707854 
L 261.325427 337.851453 
L 262.596787 338.08942 
L 263.868148 336.429633 
L 265.139508 336.535748 
L 266.410868 336.88833 
L 268.953589 335.945876 
L 270.224949 336.358233 
L 272.767669 337.493036 
L 274.039029 337.004547 
L 275.31039 337.109489 
L 276.58175 337.026536 
L 277.85311 337.36242 
L 279.12447 337.942192 
L 280.39583 338.190885 
L 281.667191 337.932401 
L 282.938551 338.404904 
L 284.209911 337.74454 
L 285.481271 337.556965 
L 286.752632 337.56589 
L 288.023992 338.295495 
L 289.295352 338.648621 
L 290.566712 338.136537 
L 291.838072 338.611679 
L 293.109433 337.987544 
L 294.380793 338.334639 
L 295.652153 338.321801 
L 296.923513 339.074317 
L 298.194874 339.499056 
L 299.466234 339.394047 
L 300.737594 338.807741 
L 302.008954 339.179775 
L 303.280314 338.82301 
L 304.551675 339.040106 
L 307.094395 337.93117 
L 308.365755 338.386675 
L 309.637116 338.671076 
L 310.908476 339.285634 
L 312.179836 339.619204 
L 313.451196 340.182057 
L 314.722556 339.655945 
L 315.993917 338.515028 
L 317.265277 339.481013 
L 318.536637 338.613668 
L 319.807997 338.824321 
L 321.079357 338.522406 
L 324.893438 339.623526 
L 326.164798 339.601976 
L 327.436159 339.773462 
L 328.707519 339.103733 
L 329.978879 339.339195 
L 331.250239 339.026457 
L 332.521599 339.035018 
L 333.79296 338.324797 
L 335.06432 338.001426 
L 336.33568 337.51638 
L 337.60704 338.094103 
L 338.878401 337.679555 
L 340.149761 338.276357 
L 341.421121 338.469059 
L 342.692481 338.480536 
L 343.963841 338.614036 
L 345.235202 337.716612 
L 346.506562 337.963429 
L 347.777922 337.578493 
L 349.049282 337.37341 
L 350.320643 338.207158 
L 351.592003 337.393879 
L 352.863363 337.937029 
L 354.134723 337.937409 
L 355.406083 338.377187 
L 356.677444 338.407809 
L 357.948804 337.352394 
L 359.220164 336.730462 
L 360.491524 337.524984 
L 364.305605 338.235676 
L 365.576965 338.940987 
L 368.119686 338.652178 
L 369.391046 339.075488 
L 370.662406 339.143171 
L 371.933766 339.714367 
L 373.205126 340.110931 
L 374.476487 339.797942 
L 375.747847 339.156607 
L 377.019207 339.738331 
L 378.290567 339.082037 
L 379.561928 339.660676 
L 380.833288 339.229225 
L 382.104648 340.45132 
L 384.647368 340.03699 
L 385.918729 339.528399 
L 387.190089 339.190933 
L 388.461449 339.197478 
L 389.732809 338.434707 
L 391.00417 338.476821 
L 392.27553 339.355834 
L 393.54689 338.540515 
L 394.81825 338.922873 
L 396.08961 338.318183 
L 397.360971 338.240618 
L 398.632331 338.637138 
L 399.903691 338.836652 
L 401.175051 339.301876 
L 402.446411 338.991538 
L 403.717772 339.307892 
L 404.989132 339.989341 
L 406.260492 341.123257 
L 407.531852 340.243164 
L 408.803213 340.23062 
L 410.074573 340.067561 
L 412.617293 340.928469 
L 413.888653 340.258081 
L 415.160014 339.844421 
L 417.702734 339.871352 
L 418.974094 340.179656 
L 420.245455 340.258102 
L 421.516815 339.858417 
L 422.788175 338.708375 
L 424.059535 338.559453 
L 425.330895 338.949706 
L 426.602256 340.035329 
L 427.873616 339.861012 
L 429.144976 339.137893 
L 430.416336 339.51262 
L 431.687697 338.401536 
L 432.959057 339.118895 
L 434.230417 340.280469 
L 435.501777 341.007393 
L 438.044498 341.397912 
L 439.315858 340.905129 
L 440.587218 341.216036 
L 441.858578 341.845 
L 445.672659 341.042959 
L 446.944019 341.207264 
L 448.215379 340.455365 
L 450.7581 340.650624 
L 452.02946 340.887756 
L 453.30082 340.033689 
L 454.57218 339.83893 
L 455.843541 339.20186 
L 457.114901 339.2604 
L 458.386261 339.979578 
L 459.657621 339.851544 
L 460.928982 340.114834 
L 463.471702 339.398555 
L 464.743062 339.595424 
L 466.014422 338.922772 
L 467.285783 338.704437 
L 468.557143 338.219361 
L 469.828503 337.404291 
L 471.099863 338.674169 
L 472.371224 339.116778 
L 473.642584 338.103632 
L 476.185304 337.196917 
L 478.728025 337.602406 
L 479.999385 338.163802 
L 481.270745 338.594566 
L 482.542105 338.132269 
L 483.813465 337.963643 
L 485.084826 338.954397 
L 486.356186 338.945286 
L 487.627546 339.542399 
L 488.898906 339.047496 
L 490.170267 339.62106 
L 491.441627 339.935402 
L 492.712987 339.843991 
L 493.984347 339.22898 
L 495.255707 338.352416 
L 496.527068 338.379091 
L 497.798428 338.263109 
L 499.069788 339.295647 
L 500.341148 338.926863 
L 501.612509 339.144009 
L 502.883869 339.925395 
L 504.155229 340.44973 
L 505.426589 340.057022 
L 506.697949 340.170302 
L 507.96931 340.091944 
L 509.24067 340.317743 
L 510.51203 339.682903 
L 511.78339 339.551124 
L 513.054751 339.943929 
L 514.326111 339.743384 
L 515.597471 339.902556 
L 516.868831 339.586043 
L 518.140191 340.156691 
L 519.411552 339.760111 
L 520.682912 339.243832 
L 521.954272 338.975493 
L 523.225632 339.09196 
L 524.496992 338.73008 
L 525.768353 339.176323 
L 527.039713 338.480209 
L 528.311073 338.299997 
L 529.582433 339.353488 
L 530.853794 339.154185 
L 532.125154 338.829515 
L 533.396514 338.995142 
L 534.667874 339.017303 
L 535.939234 338.853749 
L 537.210595 339.030255 
L 538.481955 338.16136 
L 539.753315 337.812586 
L 541.024675 336.979201 
L 543.567396 337.209995 
L 544.838756 336.596191 
L 546.110116 336.117801 
L 547.381476 336.449513 
L 548.652837 337.351847 
L 549.924197 337.202826 
L 551.195557 337.596497 
L 552.466917 337.325754 
L 553.738278 336.686554 
L 555.009638 336.900203 
L 556.280998 335.933678 
L 557.552358 335.93604 
L 558.823718 335.811717 
L 561.366439 336.317789 
L 562.637799 336.226726 
L 563.909159 336.852545 
L 565.180519 337.140805 
L 566.45188 337.194853 
L 567.72324 338.000696 
L 568.9946 338.46637 
L 570.26596 337.952783 
L 571.537321 338.206957 
L 574.080041 339.662233 
L 575.351401 340.098346 
L 576.622761 339.50206 
L 579.165482 339.453546 
L 580.436842 338.431094 
L 581.708202 338.512256 
L 582.979563 338.872616 
L 584.250923 338.591687 
L 585.522283 338.918694 
L 586.793643 339.079742 
L 588.065003 339.102772 
L 589.336364 338.048507 
L 589.336364 338.048507 
" clip-path="url(#pf9bee4f884)" style="fill: none; stroke: #2ca02c; stroke-width: 1.2; stroke-linecap: square"/>
   </g>
   <g id="line2d_32">
    <path d="M 82.063636 134.919211 
L 83.334997 130.134667 
L 84.606357 116.790425 
L 87.149077 96.865232 
L 88.420437 94.089494 
L 89.691798 92.990899 
L 90.963158 91.369196 
L 92.234518 85.035843 
L 93.505878 80.956413 
L 94.777239 77.84683 
L 96.048599 71.511269 
L 97.319959 63.944355 
L 98.591319 65.995777 
L 99.862679 61.366149 
L 101.13404 62.063717 
L 102.4054 61.771182 
L 103.67676 58.173905 
L 104.94812 58.578211 
L 106.219481 56.581897 
L 107.490841 56.128753 
L 108.762201 56.137839 
L 110.033561 57.717962 
L 111.304921 52.934479 
L 112.576282 56.893874 
L 113.847642 53.517585 
L 115.119002 46.831886 
L 116.390362 46.465589 
L 117.661722 43.934746 
L 118.933083 39.814459 
L 120.204443 42.071854 
L 121.475803 39.445 
L 124.018524 45.098791 
L 125.289884 47.445799 
L 126.561244 53.189441 
L 127.832604 52.657509 
L 130.375325 105.701039 
L 131.646685 128.599219 
L 132.918045 148.261067 
L 136.732126 197.759511 
L 138.003486 212.697332 
L 139.274846 225.260795 
L 140.546206 233.587795 
L 143.088927 252.301076 
L 145.631647 267.27165 
L 146.903008 273.669275 
L 148.174368 280.99447 
L 150.717088 292.127709 
L 151.988448 295.437925 
L 153.259809 300.031481 
L 155.802529 307.664154 
L 157.073889 310.893505 
L 158.345249 313.57184 
L 159.61661 315.653321 
L 160.88797 318.098436 
L 162.15933 319.078006 
L 163.43069 321.102148 
L 164.702051 323.415787 
L 165.973411 324.368533 
L 167.244771 325.960838 
L 168.516131 327.094822 
L 169.787491 327.048291 
L 171.058852 328.181292 
L 172.330212 328.641294 
L 173.601572 330.403847 
L 174.872932 330.495196 
L 176.144293 331.380771 
L 177.415653 330.919337 
L 178.687013 330.619397 
L 179.958373 331.625162 
L 181.229733 331.26507 
L 182.501094 331.914051 
L 183.772454 331.874953 
L 185.043814 332.471106 
L 186.315174 333.252249 
L 190.129255 332.270334 
L 191.400615 332.389376 
L 192.671975 333.15383 
L 193.943336 331.991985 
L 195.214696 332.529796 
L 199.028776 331.411894 
L 200.300137 331.789255 
L 201.571497 331.494866 
L 202.842857 331.5585 
L 204.114217 331.943729 
L 205.385578 332.847012 
L 206.656938 334.069528 
L 207.928298 333.750063 
L 209.199658 335.832459 
L 210.471018 336.658194 
L 211.742379 338.104044 
L 213.013739 338.405265 
L 214.285099 338.572679 
L 215.556459 336.637833 
L 216.82782 336.327964 
L 219.37054 337.448537 
L 220.6419 336.972526 
L 221.91326 337.170284 
L 223.184621 337.203257 
L 224.455981 337.389384 
L 225.727341 337.280097 
L 228.270062 338.07654 
L 229.541422 338.512655 
L 230.812782 339.111815 
L 232.084142 338.70791 
L 233.355502 338.491081 
L 234.626863 337.751265 
L 235.898223 338.094902 
L 237.169583 337.126 
L 238.440943 337.177889 
L 239.712303 337.072912 
L 240.983664 337.201762 
L 242.255024 337.104107 
L 243.526384 337.756963 
L 244.797744 336.769434 
L 246.069105 335.25907 
L 247.340465 335.405513 
L 248.611825 336.11157 
L 249.883185 337.286485 
L 251.154545 337.014772 
L 252.425906 336.933233 
L 253.697266 337.945239 
L 254.968626 337.069731 
L 256.239986 337.621626 
L 258.782707 336.585921 
L 260.054067 336.447562 
L 261.325427 336.605323 
L 262.596787 337.269461 
L 263.868148 336.10455 
L 266.410868 336.472441 
L 267.682228 336.358005 
L 268.953589 336.370349 
L 270.224949 336.133525 
L 271.496309 335.425257 
L 272.767669 334.480279 
L 274.039029 334.132938 
L 275.31039 334.657874 
L 276.58175 334.832916 
L 279.12447 337.193595 
L 280.39583 336.978069 
L 282.938551 336.024821 
L 286.752632 336.307645 
L 288.023992 335.906027 
L 289.295352 334.814117 
L 290.566712 335.998921 
L 291.838072 335.060006 
L 293.109433 335.395381 
L 294.380793 335.921283 
L 295.652153 335.125153 
L 296.923513 334.46624 
L 299.466234 335.213588 
L 300.737594 335.926996 
L 302.008954 335.246537 
L 303.280314 336.781777 
L 304.551675 336.600717 
L 305.823035 335.784258 
L 307.094395 336.62699 
L 308.365755 336.482244 
L 309.637116 336.791209 
L 310.908476 336.689922 
L 312.179836 336.835603 
L 313.451196 334.686682 
L 314.722556 334.902533 
L 315.993917 335.518555 
L 317.265277 335.867317 
L 318.536637 336.780615 
L 319.807997 334.581884 
L 321.079357 334.165862 
L 322.350718 334.96021 
L 324.893438 334.773726 
L 326.164798 334.031785 
L 327.436159 335.073368 
L 328.707519 335.198644 
L 329.978879 336.516757 
L 331.250239 337.036083 
L 332.521599 336.635372 
L 333.79296 337.084054 
L 335.06432 337.873699 
L 337.60704 335.918221 
L 338.878401 335.962581 
L 340.149761 336.821155 
L 341.421121 334.327222 
L 342.692481 332.977003 
L 343.963841 334.374934 
L 345.235202 333.474761 
L 346.506562 333.56174 
L 347.777922 332.91142 
L 349.049282 333.040105 
L 350.320643 334.35598 
L 351.592003 334.799773 
L 352.863363 334.906924 
L 354.134723 334.699832 
L 355.406083 334.057233 
L 356.677444 332.633281 
L 357.948804 332.796344 
L 359.220164 332.28938 
L 360.491524 333.637847 
L 361.762884 333.509611 
L 363.034245 333.968306 
L 364.305605 334.990978 
L 365.576965 334.423004 
L 366.848325 334.878269 
L 368.119686 334.71055 
L 369.391046 333.778824 
L 371.933766 335.537242 
L 373.205126 334.557118 
L 374.476487 333.774119 
L 375.747847 334.358465 
L 377.019207 334.363038 
L 378.290567 334.680705 
L 379.561928 335.832456 
L 380.833288 336.106919 
L 382.104648 335.670886 
L 383.376008 335.675515 
L 384.647368 336.541009 
L 385.918729 336.972061 
L 387.190089 336.96743 
L 388.461449 337.624777 
L 389.732809 337.807828 
L 391.00417 338.752297 
L 392.27553 337.509556 
L 393.54689 338.232897 
L 396.08961 338.764001 
L 397.360971 338.098746 
L 399.903691 337.902298 
L 401.175051 337.473996 
L 402.446411 337.934809 
L 403.717772 338.152671 
L 404.989132 338.176581 
L 406.260492 338.655085 
L 407.531852 337.870491 
L 408.803213 337.271735 
L 410.074573 336.402507 
L 411.345933 336.733452 
L 412.617293 336.398052 
L 413.888653 335.554682 
L 415.160014 335.190074 
L 416.431374 334.599548 
L 417.702734 335.396841 
L 418.974094 335.813013 
L 421.516815 336.123413 
L 422.788175 336.769802 
L 425.330895 336.152946 
L 426.602256 335.150183 
L 427.873616 336.236036 
L 429.144976 336.738004 
L 430.416336 335.931308 
L 431.687697 335.671757 
L 432.959057 335.969814 
L 434.230417 335.970515 
L 435.501777 336.156952 
L 436.773137 335.25972 
L 438.044498 336.100797 
L 439.315858 336.253587 
L 440.587218 335.970783 
L 441.858578 336.606763 
L 443.129938 336.423837 
L 444.401299 335.247318 
L 445.672659 335.08519 
L 446.944019 335.200106 
L 448.215379 335.576874 
L 449.48674 335.274547 
L 450.7581 333.814889 
L 452.02946 334.432877 
L 453.30082 336.085581 
L 454.57218 336.723756 
L 455.843541 336.519264 
L 457.114901 336.712588 
L 458.386261 337.22918 
L 459.657621 337.397923 
L 460.928982 337.97632 
L 462.200342 337.187925 
L 464.743062 336.639341 
L 466.014422 337.576279 
L 467.285783 338.340698 
L 468.557143 337.855686 
L 469.828503 337.640395 
L 471.099863 338.18817 
L 472.371224 338.89922 
L 473.642584 338.497805 
L 474.913944 338.475383 
L 476.185304 337.581753 
L 477.456664 338.431255 
L 478.728025 337.249099 
L 479.999385 337.192348 
L 481.270745 336.709645 
L 482.542105 335.615023 
L 483.813465 334.152595 
L 485.084826 334.355513 
L 486.356186 334.314306 
L 487.627546 334.007472 
L 488.898906 333.94291 
L 490.170267 334.638252 
L 491.441627 335.512282 
L 492.712987 334.583056 
L 493.984347 334.213828 
L 495.255707 333.023407 
L 496.527068 333.501734 
L 497.798428 333.576257 
L 499.069788 334.32368 
L 500.341148 335.734378 
L 501.612509 336.7653 
L 502.883869 336.714483 
L 504.155229 337.775761 
L 505.426589 339.15782 
L 506.697949 337.455691 
L 507.96931 338.109328 
L 509.24067 338.95068 
L 511.78339 337.029353 
L 513.054751 337.940977 
L 514.326111 336.92295 
L 515.597471 336.433043 
L 516.868831 335.485584 
L 518.140191 334.398024 
L 520.682912 335.630198 
L 521.954272 336.033594 
L 523.225632 335.673964 
L 524.496992 336.947552 
L 525.768353 337.597826 
L 527.039713 337.418751 
L 528.311073 337.519477 
L 529.582433 336.368633 
L 530.853794 336.26136 
L 532.125154 337.058481 
L 533.396514 336.781505 
L 534.667874 337.528161 
L 535.939234 336.940077 
L 537.210595 336.702227 
L 538.481955 334.716816 
L 539.753315 333.723391 
L 541.024675 333.836141 
L 542.296036 332.633548 
L 543.567396 333.13517 
L 544.838756 333.90982 
L 546.110116 334.250867 
L 547.381476 333.535016 
L 548.652837 334.69754 
L 549.924197 334.860227 
L 551.195557 334.521603 
L 552.466917 334.406708 
L 553.738278 334.998677 
L 555.009638 335.29092 
L 556.280998 335.044691 
L 557.552358 335.004159 
L 562.637799 337.653051 
L 563.909159 337.571025 
L 565.180519 338.022334 
L 567.72324 337.712054 
L 568.9946 337.880062 
L 570.26596 336.86766 
L 571.537321 334.953827 
L 572.808681 334.542495 
L 574.080041 335.186099 
L 575.351401 336.085069 
L 576.622761 336.832359 
L 577.894122 336.774199 
L 579.165482 337.418337 
L 580.436842 335.030206 
L 581.708202 336.035644 
L 582.979563 334.646337 
L 584.250923 335.963122 
L 585.522283 335.717778 
L 586.793643 335.673718 
L 588.065003 335.939179 
L 589.336364 335.165195 
L 589.336364 335.165195 
" clip-path="url(#pf9bee4f884)" style="fill: none; stroke: #d62728; stroke-width: 1.2; stroke-linecap: square"/>
   </g>
   <g id="line2d_33">
    <path d="M 82.063636 185.50193 
L 83.334997 185.295574 
L 84.606357 187.760687 
L 85.877717 187.464884 
L 87.149077 194.182319 
L 92.234518 224.768348 
L 93.505878 234.973619 
L 97.319959 260.858548 
L 98.591319 267.665414 
L 99.862679 271.950381 
L 101.13404 275.722612 
L 102.4054 282.855268 
L 106.219481 297.309302 
L 107.490841 301.470545 
L 108.762201 304.806449 
L 110.033561 307.432297 
L 111.304921 310.825864 
L 112.576282 312.489213 
L 115.119002 316.984395 
L 116.390362 317.762361 
L 117.661722 320.229391 
L 120.204443 322.032621 
L 121.475803 323.812485 
L 122.747163 325.310857 
L 124.018524 327.712865 
L 125.289884 328.039695 
L 129.103964 330.148905 
L 130.375325 331.257277 
L 131.646685 330.722963 
L 132.918045 331.980625 
L 134.189405 332.237379 
L 135.460766 332.745171 
L 136.732126 332.043591 
L 138.003486 332.41779 
L 139.274846 333.424943 
L 141.817567 332.998727 
L 143.088927 333.986705 
L 144.360287 334.169333 
L 145.631647 332.093919 
L 146.903008 332.520952 
L 148.174368 333.638906 
L 149.445728 333.734276 
L 150.717088 331.91637 
L 151.988448 333.390826 
L 153.259809 334.141268 
L 154.531169 334.443523 
L 155.802529 333.910091 
L 158.345249 334.975583 
L 159.61661 335.078906 
L 160.88797 335.351672 
L 162.15933 334.909066 
L 163.43069 334.998274 
L 165.973411 335.740166 
L 167.244771 335.125587 
L 168.516131 335.23488 
L 169.787491 336.363992 
L 171.058852 336.163413 
L 172.330212 336.97587 
L 173.601572 334.513651 
L 174.872932 335.027164 
L 176.144293 336.049303 
L 177.415653 336.60396 
L 178.687013 336.537083 
L 179.958373 337.066527 
L 181.229733 338.418327 
L 182.501094 338.563017 
L 183.772454 336.999276 
L 185.043814 336.953467 
L 186.315174 335.899997 
L 187.586535 335.434753 
L 188.857895 334.545186 
L 190.129255 335.235444 
L 191.400615 335.673353 
L 192.671975 335.523505 
L 195.214696 335.963111 
L 196.486056 336.941586 
L 197.757416 338.079246 
L 199.028776 337.835382 
L 200.300137 337.402979 
L 201.571497 337.744034 
L 202.842857 336.710701 
L 204.114217 337.226891 
L 205.385578 336.768115 
L 207.928298 338.401697 
L 209.199658 337.277247 
L 210.471018 337.641614 
L 211.742379 337.64164 
L 213.013739 337.061192 
L 214.285099 337.278467 
L 215.556459 335.927955 
L 216.82782 336.836522 
L 218.09918 336.922669 
L 219.37054 335.896359 
L 221.91326 336.657437 
L 223.184621 337.18113 
L 224.455981 336.568466 
L 225.727341 336.233663 
L 226.998701 337.025936 
L 228.270062 337.568195 
L 229.541422 338.907965 
L 230.812782 338.73715 
L 232.084142 338.792623 
L 233.355502 338.244915 
L 234.626863 338.730311 
L 235.898223 338.42876 
L 237.169583 338.916536 
L 238.440943 338.820607 
L 239.712303 338.95421 
L 240.983664 338.635823 
L 242.255024 338.721362 
L 243.526384 339.426016 
L 244.797744 338.458972 
L 246.069105 338.584774 
L 247.340465 337.950625 
L 249.883185 337.45077 
L 251.154545 337.409159 
L 252.425906 337.02657 
L 253.697266 337.458 
L 254.968626 337.154295 
L 256.239986 337.595636 
L 257.511347 335.64311 
L 258.782707 335.658745 
L 260.054067 336.31524 
L 261.325427 337.102417 
L 265.139508 338.227371 
L 266.410868 338.121474 
L 267.682228 339.27387 
L 268.953589 338.040708 
L 270.224949 338.442895 
L 271.496309 338.50097 
L 272.767669 338.874252 
L 274.039029 338.619869 
L 275.31039 337.874395 
L 276.58175 338.215808 
L 277.85311 336.560817 
L 279.12447 336.250344 
L 280.39583 335.644151 
L 281.667191 334.39478 
L 284.209911 336.071613 
L 285.481271 335.445174 
L 286.752632 335.743642 
L 288.023992 335.795628 
L 289.295352 334.471463 
L 290.566712 335.828751 
L 291.838072 336.641861 
L 293.109433 336.18974 
L 294.380793 336.199007 
L 295.652153 336.009347 
L 296.923513 335.9478 
L 299.466234 337.691685 
L 300.737594 336.763592 
L 302.008954 337.361783 
L 303.280314 336.464395 
L 304.551675 337.482814 
L 305.823035 338.305835 
L 307.094395 338.83973 
L 308.365755 338.65492 
L 309.637116 337.930004 
L 310.908476 338.302566 
L 313.451196 338.656692 
L 314.722556 339.365047 
L 315.993917 339.637406 
L 317.265277 339.476171 
L 319.807997 339.601253 
L 321.079357 340.03774 
L 322.350718 340.306867 
L 323.622078 340.43258 
L 326.164798 339.934096 
L 327.436159 338.293034 
L 328.707519 337.637404 
L 329.978879 337.803882 
L 331.250239 337.43179 
L 332.521599 338.255446 
L 335.06432 338.871866 
L 336.33568 338.805159 
L 337.60704 339.095741 
L 340.149761 339.910379 
L 341.421121 339.160955 
L 342.692481 338.00633 
L 343.963841 337.426975 
L 345.235202 337.828696 
L 346.506562 337.904072 
L 347.777922 337.169036 
L 350.320643 336.128188 
L 351.592003 337.02641 
L 352.863363 337.022433 
L 354.134723 337.630025 
L 355.406083 336.845969 
L 356.677444 338.093253 
L 359.220164 338.652473 
L 360.491524 338.569662 
L 361.762884 338.058602 
L 363.034245 338.125907 
L 364.305605 337.442301 
L 365.576965 337.027986 
L 368.119686 336.495376 
L 369.391046 335.534951 
L 370.662406 334.397037 
L 371.933766 335.422385 
L 373.205126 335.596743 
L 374.476487 336.212243 
L 375.747847 336.691916 
L 377.019207 336.353847 
L 378.290567 336.831488 
L 380.833288 338.218195 
L 383.376008 339.423328 
L 384.647368 338.527496 
L 385.918729 338.140168 
L 387.190089 336.943093 
L 389.732809 337.038099 
L 391.00417 336.912165 
L 392.27553 337.165805 
L 393.54689 338.510329 
L 394.81825 337.320855 
L 396.08961 336.792447 
L 397.360971 337.063926 
L 398.632331 336.664628 
L 399.903691 337.150385 
L 401.175051 336.08894 
L 402.446411 335.38787 
L 403.717772 335.251528 
L 404.989132 335.799652 
L 406.260492 335.16756 
L 407.531852 333.965222 
L 408.803213 335.084514 
L 410.074573 336.599771 
L 411.345933 337.145903 
L 412.617293 337.836302 
L 413.888653 336.8611 
L 415.160014 337.110643 
L 416.431374 338.360778 
L 418.974094 338.391725 
L 420.245455 337.709547 
L 421.516815 336.854874 
L 422.788175 337.849536 
L 425.330895 336.66484 
L 426.602256 335.753511 
L 429.144976 337.245386 
L 430.416336 336.697197 
L 431.687697 337.807479 
L 432.959057 338.219009 
L 436.773137 337.215563 
L 438.044498 337.753428 
L 439.315858 337.717742 
L 440.587218 338.325016 
L 441.858578 338.474502 
L 443.129938 337.723663 
L 444.401299 337.540498 
L 445.672659 337.551048 
L 446.944019 338.313293 
L 449.48674 339.538487 
L 450.7581 339.505789 
L 452.02946 339.216823 
L 453.30082 338.677641 
L 454.57218 338.724571 
L 455.843541 337.818225 
L 457.114901 337.651654 
L 459.657621 337.81318 
L 460.928982 339.015813 
L 462.200342 337.118945 
L 463.471702 336.669956 
L 464.743062 337.017592 
L 466.014422 337.526477 
L 467.285783 337.16577 
L 469.828503 336.841256 
L 471.099863 337.774336 
L 472.371224 337.08976 
L 473.642584 337.450268 
L 474.913944 337.119922 
L 476.185304 337.304777 
L 477.456664 337.296532 
L 478.728025 336.35368 
L 479.999385 336.534807 
L 481.270745 336.450653 
L 482.542105 335.740649 
L 483.813465 335.329403 
L 485.084826 335.073727 
L 486.356186 335.313539 
L 487.627546 335.384151 
L 488.898906 336.029221 
L 490.170267 335.304105 
L 491.441627 335.658793 
L 492.712987 336.555771 
L 493.984347 335.928576 
L 495.255707 335.689894 
L 496.527068 336.691358 
L 497.798428 336.918883 
L 499.069788 337.389492 
L 500.341148 338.591559 
L 501.612509 338.502892 
L 502.883869 339.287438 
L 504.155229 339.016015 
L 505.426589 339.067002 
L 506.697949 339.884902 
L 507.96931 338.69788 
L 509.24067 338.607767 
L 510.51203 337.324903 
L 511.78339 337.15401 
L 513.054751 338.161337 
L 514.326111 338.505862 
L 515.597471 337.929407 
L 516.868831 338.579051 
L 518.140191 338.802894 
L 519.411552 339.526962 
L 520.682912 339.808114 
L 521.954272 339.893829 
L 523.225632 339.618234 
L 524.496992 338.242873 
L 525.768353 338.918287 
L 527.039713 338.940327 
L 528.311073 339.436136 
L 529.582433 339.010047 
L 530.853794 339.043331 
L 532.125154 337.586319 
L 533.396514 336.953014 
L 534.667874 337.743039 
L 535.939234 337.390457 
L 537.210595 336.42356 
L 541.024675 336.799143 
L 542.296036 336.549045 
L 543.567396 334.510385 
L 544.838756 334.434598 
L 546.110116 333.756007 
L 547.381476 333.98663 
L 548.652837 334.676395 
L 549.924197 334.757511 
L 551.195557 335.458928 
L 552.466917 335.450999 
L 553.738278 335.163096 
L 555.009638 336.028719 
L 556.280998 335.939946 
L 557.552358 335.371557 
L 558.823718 336.482729 
L 560.095079 336.194324 
L 561.366439 337.156743 
L 562.637799 335.865769 
L 563.909159 335.5575 
L 565.180519 335.871273 
L 566.45188 336.400443 
L 568.9946 335.962885 
L 570.26596 335.36697 
L 571.537321 335.861289 
L 572.808681 335.731414 
L 575.351401 336.258945 
L 576.622761 336.192891 
L 577.894122 337.18074 
L 579.165482 336.136029 
L 581.708202 337.305182 
L 582.979563 335.598774 
L 584.250923 335.233868 
L 585.522283 335.64357 
L 586.793643 335.93472 
L 588.065003 336.000119 
L 588.065003 336.000119 
" clip-path="url(#pf9bee4f884)" style="fill: none; stroke: #9467bd; stroke-width: 1.2; stroke-linecap: square"/>
   </g>
   <g id="patch_3">
    <path d="M 56.7 356.965 
L 56.7 24.325 
" style="fill: none; stroke: #000000; stroke-width: 0.8; stroke-linejoin: miter; stroke-linecap: square"/>
   </g>
   <g id="patch_4">
    <path d="M 614.7 356.965 
L 614.7 24.325 
" style="fill: none; stroke: #000000; stroke-width: 0.8; stroke-linejoin: miter; stroke-linecap: square"/>
   </g>
   <g id="patch_5">
    <path d="M 56.7 356.965 
L 614.7 356.965 
" style="fill: none; stroke: #000000; stroke-width: 0.8; stroke-linejoin: miter; stroke-linecap: square"/>
   </g>
   <g id="patch_6">
    <path d="M 56.7 24.325 
L 614.7 24.325 
" style="fill: none; stroke: #000000; stroke-width: 0.8; stroke-linejoin: miter; stroke-linecap: square"/>
   </g>
   <g id="text_17">
    <!-- Average Transmission Delay -->
    <g transform="translate(231.7 18.325) scale(0.16 -0.16)">
     <defs>
      <path id="SimHei-41" d="M 3075 125 
L 2475 125 
L 2125 1450 
L 1025 1450 
L 675 125 
L 75 125 
L 1325 4450 
L 1825 4450 
L 3075 125 
z
M 2000 1925 
L 1600 3450 
L 1550 3450 
L 1150 1925 
L 2000 1925 
z
" transform="scale(0.015625)"/>
      <path id="SimHei-76" d="M 2875 2925 
L 1825 75 
L 1275 75 
L 225 2925 
L 750 2925 
L 1525 750 
L 1575 750 
L 2350 2925 
L 2875 2925 
z
" transform="scale(0.015625)"/>
      <path id="SimHei-72" d="M 2500 2425 
Q 2025 2500 1700 2287 
Q 1375 2075 1150 1550 
L 1150 125 
L 650 125 
L 650 2925 
L 1150 2925 
L 1150 2200 
Q 1375 2600 1712 2787 
Q 2050 2975 2500 2975 
L 2500 2425 
z
" transform="scale(0.015625)"/>
      <path id="SimHei-67" d="M 2975 2500 
Q 2800 2550 2637 2562 
Q 2475 2575 2300 2525 
Q 2375 2450 2425 2337 
Q 2475 2225 2475 2000 
Q 2475 1575 2187 1300 
Q 1900 1025 1475 1025 
Q 1375 1025 1212 1062 
Q 1050 1100 950 1150 
Q 875 1100 850 1050 
Q 825 1000 825 925 
Q 825 800 1000 737 
Q 1175 675 1625 675 
Q 2350 675 2612 475 
Q 2875 275 2875 -25 
Q 2875 -425 2487 -612 
Q 2100 -800 1575 -800 
Q 900 -800 575 -625 
Q 250 -450 250 -150 
Q 250 0 375 150 
Q 500 300 700 400 
Q 550 475 462 587 
Q 375 700 375 875 
Q 375 1025 487 1137 
Q 600 1250 750 1325 
Q 625 1450 550 1625 
Q 475 1800 475 2000 
Q 475 2425 762 2700 
Q 1050 2975 1475 2975 
Q 1700 2975 1862 2912 
Q 2025 2850 2150 2725 
Q 2350 2875 2550 2937 
Q 2750 3000 2975 2975 
L 2975 2500 
z
M 1975 2000 
Q 1975 2250 1850 2400 
Q 1725 2550 1475 2550 
Q 1225 2550 1100 2400 
Q 975 2250 975 2000 
Q 975 1750 1100 1600 
Q 1225 1450 1475 1450 
Q 1725 1450 1850 1600 
Q 1975 1750 1975 2000 
z
M 2400 -75 
Q 2400 25 2287 125 
Q 2175 225 1725 225 
Q 1625 225 1450 237 
Q 1275 250 1050 275 
Q 850 200 775 100 
Q 700 0 700 -100 
Q 700 -250 900 -350 
Q 1100 -450 1600 -450 
Q 2025 -450 2212 -337 
Q 2400 -225 2400 -75 
z
" transform="scale(0.015625)"/>
      <path id="SimHei-54" d="M 2850 3925 
L 1850 3925 
L 1850 125 
L 1275 125 
L 1275 3925 
L 275 3925 
L 275 4400 
L 2850 4400 
L 2850 3925 
z
" transform="scale(0.015625)"/>
      <path id="SimHei-6e" d="M 2800 125 
L 2300 125 
L 2300 1925 
Q 2300 2225 2150 2400 
Q 2000 2575 1750 2575 
Q 1425 2575 1137 2237 
Q 850 1900 850 1400 
L 850 125 
L 350 125 
L 350 2925 
L 850 2925 
L 850 2400 
Q 1050 2675 1287 2825 
Q 1525 2975 1900 2975 
Q 2350 2975 2575 2725 
Q 2800 2475 2800 2100 
L 2800 125 
z
" transform="scale(0.015625)"/>
      <path id="SimHei-6d" d="M 3050 125 
L 2550 125 
L 2550 2150 
Q 2550 2300 2500 2400 
Q 2450 2500 2300 2500 
Q 2125 2500 1975 2312 
Q 1825 2125 1825 1825 
L 1825 125 
L 1325 125 
L 1325 2150 
Q 1325 2300 1275 2400 
Q 1225 2500 1075 2500 
Q 900 2500 750 2312 
Q 600 2125 600 1825 
L 600 125 
L 100 125 
L 100 2925 
L 600 2925 
L 600 2550 
Q 725 2750 900 2862 
Q 1075 2975 1275 2975 
Q 1475 2975 1612 2862 
Q 1750 2750 1800 2550 
Q 1925 2750 2087 2862 
Q 2250 2975 2450 2975 
Q 2750 2975 2900 2812 
Q 3050 2650 3050 2350 
L 3050 125 
z
" transform="scale(0.015625)"/>
     </defs>
     <use xlink:href="#SimHei-41"/>
     <use xlink:href="#SimHei-76" transform="translate(50 0)"/>
     <use xlink:href="#SimHei-65" transform="translate(100 0)"/>
     <use xlink:href="#SimHei-72" transform="translate(150 0)"/>
     <use xlink:href="#SimHei-61" transform="translate(200 0)"/>
     <use xlink:href="#SimHei-67" transform="translate(250 0)"/>
     <use xlink:href="#SimHei-65" transform="translate(300 0)"/>
     <use xlink:href="#SimHei-20" transform="translate(350 0)"/>
     <use xlink:href="#SimHei-54" transform="translate(400 0)"/>
     <use xlink:href="#SimHei-72" transform="translate(450 0)"/>
     <use xlink:href="#SimHei-61" transform="translate(500 0)"/>
     <use xlink:href="#SimHei-6e" transform="translate(550 0)"/>
     <use xlink:href="#SimHei-73" transform="translate(600 0)"/>
     <use xlink:href="#SimHei-6d" transform="translate(650 0)"/>
     <use xlink:href="#SimHei-69" transform="translate(700 0)"/>
     <use xlink:href="#SimHei-73" transform="translate(750 0)"/>
     <use xlink:href="#SimHei-73" transform="translate(800 0)"/>
     <use xlink:href="#SimHei-69" transform="translate(850 0)"/>
     <use xlink:href="#SimHei-6f" transform="translate(900 0)"/>
     <use xlink:href="#SimHei-6e" transform="translate(950 0)"/>
     <use xlink:href="#SimHei-20" transform="translate(1000 0)"/>
     <use xlink:href="#SimHei-44" transform="translate(1050 0)"/>
     <use xlink:href="#SimHei-65" transform="translate(1100 0)"/>
     <use xlink:href="#SimHei-6c" transform="translate(1150 0)"/>
     <use xlink:href="#SimHei-61" transform="translate(1200 0)"/>
     <use xlink:href="#SimHei-79" transform="translate(1250 0)"/>
    </g>
   </g>
   <g id="legend_1">
    <g id="patch_7">
     <path d="M 519.9 113.425 
L 606.3 113.425 
Q 608.7 113.425 608.7 111.025 
L 608.7 32.725 
Q 608.7 30.325 606.3 30.325 
L 519.9 30.325 
Q 517.5 30.325 517.5 32.725 
L 517.5 111.025 
Q 517.5 113.425 519.9 113.425 
z
" style="fill: #ffffff; opacity: 0.8; stroke: #cccccc; stroke-linejoin: miter"/>
    </g>
    <g id="line2d_34">
     <path d="M 522.3 39.325 
L 534.3 39.325 
L 546.3 39.325 
" style="fill: none; stroke: #1f77b4; stroke-width: 1.2; stroke-linecap: square"/>
    </g>
    <g id="text_18">
     <!-- DDPG -->
     <g transform="translate(555.9 43.525) scale(0.12 -0.12)">
      <defs>
       <path id="SimHei-50" d="M 2950 3100 
Q 2950 2500 2600 2150 
Q 2250 1800 1625 1800 
L 900 1800 
L 900 125 
L 325 125 
L 325 4400 
L 1625 4400 
Q 2250 4400 2600 4050 
Q 2950 3700 2950 3100 
z
M 2375 3100 
Q 2375 3575 2150 3750 
Q 1925 3925 1475 3925 
L 900 3925 
L 900 2275 
L 1475 2275 
Q 1925 2275 2150 2450 
Q 2375 2625 2375 3100 
z
" transform="scale(0.015625)"/>
       <path id="SimHei-47" d="M 2850 75 
L 2425 75 
L 2350 425 
Q 2250 275 2037 175 
Q 1825 75 1575 75 
Q 1050 75 637 562 
Q 225 1050 225 2125 
Q 225 3300 600 3875 
Q 975 4450 1625 4450 
Q 2200 4450 2525 4025 
Q 2850 3600 2850 2925 
L 2300 2925 
Q 2300 3450 2125 3712 
Q 1950 3975 1625 3975 
Q 1225 3975 1025 3562 
Q 825 3150 825 2175 
Q 825 1250 1075 900 
Q 1325 550 1650 550 
Q 1975 550 2162 787 
Q 2350 1025 2350 1525 
L 2350 1800 
L 1575 1800 
L 1575 2275 
L 2850 2275 
L 2850 75 
z
" transform="scale(0.015625)"/>
      </defs>
      <use xlink:href="#SimHei-44"/>
      <use xlink:href="#SimHei-44" transform="translate(50 0)"/>
      <use xlink:href="#SimHei-50" transform="translate(100 0)"/>
      <use xlink:href="#SimHei-47" transform="translate(150 0)"/>
     </g>
    </g>
    <g id="line2d_35">
     <path d="M 522.3 55.225 
L 534.3 55.225 
L 546.3 55.225 
" style="fill: none; stroke: #ff7f0e; stroke-width: 1.2; stroke-linecap: square"/>
    </g>
    <g id="text_19">
     <!-- PPO -->
     <g transform="translate(555.9 59.425) scale(0.12 -0.12)">
      <defs>
       <path id="SimHei-4f" d="M 2950 2275 
Q 2950 1100 2587 587 
Q 2225 75 1575 75 
Q 925 75 550 587 
Q 175 1100 175 2275 
Q 175 3450 550 3950 
Q 925 4450 1575 4450 
Q 2225 4450 2587 3950 
Q 2950 3450 2950 2275 
z
M 2350 2275 
Q 2350 3325 2125 3650 
Q 1900 3975 1575 3975 
Q 1250 3975 1012 3650 
Q 775 3325 775 2275 
Q 775 1225 1012 887 
Q 1250 550 1575 550 
Q 1900 550 2125 887 
Q 2350 1225 2350 2275 
z
" transform="scale(0.015625)"/>
      </defs>
      <use xlink:href="#SimHei-50"/>
      <use xlink:href="#SimHei-50" transform="translate(50 0)"/>
      <use xlink:href="#SimHei-4f" transform="translate(100 0)"/>
     </g>
    </g>
    <g id="line2d_36">
     <path d="M 522.3 71.125 
L 534.3 71.125 
L 546.3 71.125 
" style="fill: none; stroke: #2ca02c; stroke-width: 1.2; stroke-linecap: square"/>
    </g>
    <g id="text_20">
     <!-- TD3 -->
     <g transform="translate(555.9 75.325) scale(0.12 -0.12)">
      <use xlink:href="#SimHei-54"/>
      <use xlink:href="#SimHei-44" transform="translate(50 0)"/>
      <use xlink:href="#SimHei-33" transform="translate(100 0)"/>
     </g>
    </g>
    <g id="line2d_37">
     <path d="M 522.3 87.025 
L 534.3 87.025 
L 546.3 87.025 
" style="fill: none; stroke: #d62728; stroke-width: 1.2; stroke-linecap: square"/>
    </g>
    <g id="text_21">
     <!-- GCN-DDQN -->
     <g transform="translate(555.9 91.225) scale(0.12 -0.12)">
      <defs>
       <path id="SimHei-43" d="M 2975 1825 
Q 2950 875 2575 475 
Q 2200 75 1675 75 
Q 1075 75 650 562 
Q 225 1050 225 2125 
Q 225 3300 637 3875 
Q 1050 4450 1700 4450 
Q 2250 4450 2612 4037 
Q 2975 3625 2950 2875 
L 2400 2875 
Q 2400 3425 2225 3700 
Q 2050 3975 1700 3975 
Q 1300 3975 1062 3562 
Q 825 3150 825 2175 
Q 825 1275 1062 912 
Q 1300 550 1675 550 
Q 1950 550 2175 812 
Q 2400 1075 2400 1825 
L 2975 1825 
z
" transform="scale(0.015625)"/>
       <path id="SimHei-4e" d="M 2850 125 
L 2225 125 
L 850 3225 
L 825 3225 
L 825 125 
L 250 125 
L 250 4400 
L 875 4400 
L 2250 1300 
L 2275 1300 
L 2275 4400 
L 2850 4400 
L 2850 125 
z
" transform="scale(0.015625)"/>
       <path id="SimHei-2d" d="M 2975 2125 
L 125 2125 
L 125 2525 
L 2975 2525 
L 2975 2125 
z
" transform="scale(0.015625)"/>
       <path id="SimHei-51" d="M 2950 2275 
Q 2950 1675 2862 1262 
Q 2775 850 2575 600 
L 2775 225 
L 2375 -200 
L 2150 225 
Q 2050 150 1900 112 
Q 1750 75 1575 75 
Q 925 75 550 587 
Q 175 1100 175 2275 
Q 175 3450 550 3950 
Q 925 4450 1575 4450 
Q 2225 4450 2587 3950 
Q 2950 3450 2950 2275 
z
M 2350 2275 
Q 2350 3325 2125 3650 
Q 1900 3975 1575 3975 
Q 1250 3975 1012 3650 
Q 775 3325 775 2275 
Q 775 1225 1012 887 
Q 1250 550 1575 550 
Q 1700 550 1800 587 
Q 1900 625 1950 675 
L 1550 1450 
L 1900 1875 
L 2250 1200 
Q 2300 1450 2325 1650 
Q 2350 1850 2350 2275 
z
" transform="scale(0.015625)"/>
      </defs>
      <use xlink:href="#SimHei-47"/>
      <use xlink:href="#SimHei-43" transform="translate(50 0)"/>
      <use xlink:href="#SimHei-4e" transform="translate(100 0)"/>
      <use xlink:href="#SimHei-2d" transform="translate(150 0)"/>
      <use xlink:href="#SimHei-44" transform="translate(200 0)"/>
      <use xlink:href="#SimHei-44" transform="translate(250 0)"/>
      <use xlink:href="#SimHei-51" transform="translate(300 0)"/>
      <use xlink:href="#SimHei-4e" transform="translate(350 0)"/>
     </g>
    </g>
    <g id="line2d_38">
     <path d="M 522.3 102.925 
L 534.3 102.925 
L 546.3 102.925 
" style="fill: none; stroke: #9467bd; stroke-width: 1.2; stroke-linecap: square"/>
    </g>
    <g id="text_22">
     <!-- GLDVTO -->
     <g transform="translate(555.9 107.125) scale(0.12 -0.12)">
      <defs>
       <path id="SimHei-4c" d="M 2900 125 
L 300 125 
L 300 4400 
L 875 4400 
L 875 600 
L 2900 600 
L 2900 125 
z
" transform="scale(0.015625)"/>
       <path id="SimHei-56" d="M 3050 4400 
L 1800 75 
L 1300 75 
L 50 4400 
L 650 4400 
L 1525 1125 
L 1575 1125 
L 2450 4400 
L 3050 4400 
z
" transform="scale(0.015625)"/>
      </defs>
      <use xlink:href="#SimHei-47"/>
      <use xlink:href="#SimHei-4c" transform="translate(50 0)"/>
      <use xlink:href="#SimHei-44" transform="translate(100 0)"/>
      <use xlink:href="#SimHei-56" transform="translate(150 0)"/>
      <use xlink:href="#SimHei-54" transform="translate(200 0)"/>
      <use xlink:href="#SimHei-4f" transform="translate(250 0)"/>
     </g>
    </g>
   </g>
  </g>
 </g>
 <defs>
  <clipPath id="pf9bee4f884">
   <rect x="56.7" y="24.325" width="558" height="332.64"/>
  </clipPath>
 </defs>
</svg>
