<?xml version="1.0" encoding="utf-8" standalone="no"?>
<!DOCTYPE svg PUBLIC "-//W3C//DTD SVG 1.1//EN"
  "http://www.w3.org/Graphics/SVG/1.1/DTD/svg11.dtd">
<svg xmlns:xlink="http://www.w3.org/1999/xlink" width="689.6125pt" height="391.6261pt" viewBox="0 0 689.6125 391.6261" xmlns="http://www.w3.org/2000/svg" version="1.1">
 <metadata>
  <rdf:RDF xmlns:dc="http://purl.org/dc/elements/1.1/" xmlns:cc="http://creativecommons.org/ns#" xmlns:rdf="http://www.w3.org/1999/02/22-rdf-syntax-ns#">
   <cc:Work>
    <dc:type rdf:resource="http://purl.org/dc/dcmitype/StillImage"/>
    <dc:date>2026-07-08T23:32:07.439730</dc:date>
    <dc:format>image/svg+xml</dc:format>
    <dc:creator>
     <cc:Agent>
      <dc:title>Matplotlib v3.10.7, https://matplotlib.org/</dc:title>
     </cc:Agent>
    </dc:creator>
   </cc:Work>
  </rdf:RDF>
 </metadata>
 <defs>
  <style type="text/css">*{stroke-linejoin: round; stroke-linecap: butt}</style>
 </defs>
 <g id="figure_1">
  <g id="patch_1">
   <path d="M 0 391.6261 
L 689.6125 391.6261 
L 689.6125 0 
L 0 0 
z
" style="fill: #ffffff"/>
  </g>
  <g id="axes_1">
   <g id="patch_2">
    <path d="M 56.0125 349.8636 
L 682.4125 349.8636 
L 682.4125 34.5036 
L 56.0125 34.5036 
z
" style="fill: #ffffff"/>
   </g>
   <g id="matplotlib.axis_1">
    <g id="xtick_1">
     <g id="line2d_1">
      <path d="M 84.485227 349.8636 
L 84.485227 34.5036 
" clip-path="url(#p0e5e221c2e)" style="fill: none; stroke-dasharray: 2.22,0.96; stroke-dashoffset: 0; stroke: #b0b0b0; stroke-opacity: 0.25; stroke-width: 0.6"/>
     </g>
     <g id="line2d_2">
      <defs>
       <path id="m5b5151f2f9" d="M 0 0 
L 0 3.5 
" style="stroke: #000000; stroke-width: 0.8"/>
      </defs>
      <g>
       <use xlink:href="#m5b5151f2f9" x="84.485227" y="349.8636" style="stroke: #000000; stroke-width: 0.8"/>
      </g>
     </g>
     <g id="text_1">
      <!-- 0 -->
      <g transform="translate(81.485227 365.1136) scale(0.12 -0.12)">
       <defs>
        <path id="SimHei-30" d="M 225 2537 
Q 250 3200 412 3587 
Q 575 3975 875 4225 
Q 1175 4475 1612 4475 
Q 2050 4475 2375 4112 
Q 2700 3750 2800 3200 
Q 2900 2650 2862 1937 
Q 2825 1225 2612 775 
Q 2400 325 1975 150 
Q 1550 -25 1125 187 
Q 700 400 525 750 
Q 350 1100 275 1487 
Q 200 1875 225 2537 
z
M 750 2687 
Q 675 2000 800 1462 
Q 925 925 1212 700 
Q 1500 475 1800 612 
Q 2100 750 2237 1162 
Q 2375 1575 2375 2062 
Q 2375 2550 2337 2950 
Q 2300 3350 2112 3675 
Q 1925 4000 1612 4012 
Q 1300 4025 1062 3700 
Q 825 3375 750 2687 
z
" transform="scale(0.015625)"/>
       </defs>
       <use xlink:href="#SimHei-30"/>
      </g>
     </g>
    </g>
    <g id="xtick_2">
     <g id="line2d_3">
      <path d="M 155.845446 349.8636 
L 155.845446 34.5036 
" clip-path="url(#p0e5e221c2e)" style="fill: none; stroke-dasharray: 2.22,0.96; stroke-dashoffset: 0; stroke: #b0b0b0; stroke-opacity: 0.25; stroke-width: 0.6"/>
     </g>
     <g id="line2d_4">
      <g>
       <use xlink:href="#m5b5151f2f9" x="155.845446" y="349.8636" style="stroke: #000000; stroke-width: 0.8"/>
      </g>
     </g>
     <g id="text_2">
      <!-- 50 -->
      <g transform="translate(149.845446 365.1136) scale(0.12 -0.12)">
       <defs>
        <path id="SimHei-35" d="M 550 1325 
Q 725 650 1150 575 
Q 1575 500 1837 662 
Q 2100 825 2212 1087 
Q 2325 1350 2312 1675 
Q 2300 2000 2137 2225 
Q 1975 2450 1725 2525 
Q 1475 2600 1162 2525 
Q 850 2450 650 2175 
L 225 2225 
Q 275 2375 700 4375 
L 2675 4375 
L 2675 3925 
L 1075 3925 
Q 950 3250 825 2850 
Q 1200 3025 1525 3012 
Q 1850 3000 2150 2862 
Q 2450 2725 2587 2487 
Q 2725 2250 2787 2012 
Q 2850 1775 2837 1500 
Q 2825 1225 2725 937 
Q 2625 650 2425 462 
Q 2225 275 1937 162 
Q 1650 50 1275 75 
Q 900 100 562 350 
Q 225 600 100 1200 
L 550 1325 
z
" transform="scale(0.015625)"/>
       </defs>
       <use xlink:href="#SimHei-35"/>
       <use xlink:href="#SimHei-30" transform="translate(50 0)"/>
      </g>
     </g>
    </g>
    <g id="xtick_3">
     <g id="line2d_5">
      <path d="M 227.205665 349.8636 
L 227.205665 34.5036 
" clip-path="url(#p0e5e221c2e)" style="fill: none; stroke-dasharray: 2.22,0.96; stroke-dashoffset: 0; stroke: #b0b0b0; stroke-opacity: 0.25; stroke-width: 0.6"/>
     </g>
     <g id="line2d_6">
      <g>
       <use xlink:href="#m5b5151f2f9" x="227.205665" y="349.8636" style="stroke: #000000; stroke-width: 0.8"/>
      </g>
     </g>
     <g id="text_3">
      <!-- 100 -->
      <g transform="translate(218.205665 365.1136) scale(0.12 -0.12)">
       <defs>
        <path id="SimHei-31" d="M 1400 3600 
Q 1075 3275 575 2975 
L 575 3450 
Q 1200 3875 1600 4450 
L 1900 4450 
L 1900 150 
L 1400 150 
L 1400 3600 
z
" transform="scale(0.015625)"/>
       </defs>
       <use xlink:href="#SimHei-31"/>
       <use xlink:href="#SimHei-30" transform="translate(50 0)"/>
       <use xlink:href="#SimHei-30" transform="translate(100 0)"/>
      </g>
     </g>
    </g>
    <g id="xtick_4">
     <g id="line2d_7">
      <path d="M 298.565883 349.8636 
L 298.565883 34.5036 
" clip-path="url(#p0e5e221c2e)" style="fill: none; stroke-dasharray: 2.22,0.96; stroke-dashoffset: 0; stroke: #b0b0b0; stroke-opacity: 0.25; stroke-width: 0.6"/>
     </g>
     <g id="line2d_8">
      <g>
       <use xlink:href="#m5b5151f2f9" x="298.565883" y="349.8636" style="stroke: #000000; stroke-width: 0.8"/>
      </g>
     </g>
     <g id="text_4">
      <!-- 150 -->
      <g transform="translate(289.565883 365.1136) scale(0.12 -0.12)">
       <use xlink:href="#SimHei-31"/>
       <use xlink:href="#SimHei-35" transform="translate(50 0)"/>
       <use xlink:href="#SimHei-30" transform="translate(100 0)"/>
      </g>
     </g>
    </g>
    <g id="xtick_5">
     <g id="line2d_9">
      <path d="M 369.926102 349.8636 
L 369.926102 34.5036 
" clip-path="url(#p0e5e221c2e)" style="fill: none; stroke-dasharray: 2.22,0.96; stroke-dashoffset: 0; stroke: #b0b0b0; stroke-opacity: 0.25; stroke-width: 0.6"/>
     </g>
     <g id="line2d_10">
      <g>
       <use xlink:href="#m5b5151f2f9" x="369.926102" y="349.8636" style="stroke: #000000; stroke-width: 0.8"/>
      </g>
     </g>
     <g id="text_5">
      <!-- 200 -->
      <g transform="translate(360.926102 365.1136) scale(0.12 -0.12)">
       <defs>
        <path id="SimHei-32" d="M 300 250 
Q 325 625 650 925 
Q 975 1225 1475 1862 
Q 1975 2500 2125 2850 
Q 2275 3200 2237 3450 
Q 2200 3700 2000 3862 
Q 1800 4025 1537 4000 
Q 1275 3975 1037 3800 
Q 800 3625 675 3275 
L 200 3350 
Q 400 3925 712 4187 
Q 1025 4450 1450 4475 
Q 1700 4500 1900 4462 
Q 2100 4425 2312 4287 
Q 2525 4150 2662 3875 
Q 2800 3600 2762 3212 
Q 2725 2825 2375 2287 
Q 2025 1750 1025 600 
L 2825 600 
L 2825 150 
L 300 150 
L 300 250 
z
" transform="scale(0.015625)"/>
       </defs>
       <use xlink:href="#SimHei-32"/>
       <use xlink:href="#SimHei-30" transform="translate(50 0)"/>
       <use xlink:href="#SimHei-30" transform="translate(100 0)"/>
      </g>
     </g>
    </g>
    <g id="xtick_6">
     <g id="line2d_11">
      <path d="M 441.286321 349.8636 
L 441.286321 34.5036 
" clip-path="url(#p0e5e221c2e)" style="fill: none; stroke-dasharray: 2.22,0.96; stroke-dashoffset: 0; stroke: #b0b0b0; stroke-opacity: 0.25; stroke-width: 0.6"/>
     </g>
     <g id="line2d_12">
      <g>
       <use xlink:href="#m5b5151f2f9" x="441.286321" y="349.8636" style="stroke: #000000; stroke-width: 0.8"/>
      </g>
     </g>
     <g id="text_6">
      <!-- 250 -->
      <g transform="translate(432.286321 365.1136) scale(0.12 -0.12)">
       <use xlink:href="#SimHei-32"/>
       <use xlink:href="#SimHei-35" transform="translate(50 0)"/>
       <use xlink:href="#SimHei-30" transform="translate(100 0)"/>
      </g>
     </g>
    </g>
    <g id="xtick_7">
     <g id="line2d_13">
      <path d="M 512.64654 349.8636 
L 512.64654 34.5036 
" clip-path="url(#p0e5e221c2e)" style="fill: none; stroke-dasharray: 2.22,0.96; stroke-dashoffset: 0; stroke: #b0b0b0; stroke-opacity: 0.25; stroke-width: 0.6"/>
     </g>
     <g id="line2d_14">
      <g>
       <use xlink:href="#m5b5151f2f9" x="512.64654" y="349.8636" style="stroke: #000000; stroke-width: 0.8"/>
      </g>
     </g>
     <g id="text_7">
      <!-- 300 -->
      <g transform="translate(503.64654 365.1136) scale(0.12 -0.12)">
       <defs>
        <path id="SimHei-33" d="M 250 1225 
L 700 1300 
Q 800 975 1025 762 
Q 1250 550 1587 562 
Q 1925 575 2125 837 
Q 2325 1100 2300 1437 
Q 2275 1775 2037 1962 
Q 1800 2150 1275 2225 
L 1275 2550 
Q 1800 2600 2037 2825 
Q 2275 3050 2250 3412 
Q 2225 3775 1925 3937 
Q 1625 4100 1287 3975 
Q 950 3850 750 3275 
L 300 3350 
Q 450 3800 712 4100 
Q 975 4400 1425 4450 
Q 1875 4500 2212 4337 
Q 2550 4175 2687 3837 
Q 2825 3500 2725 3100 
Q 2625 2700 2150 2400 
Q 2500 2250 2687 1950 
Q 2875 1650 2812 1162 
Q 2750 675 2375 375 
Q 2000 75 1525 87 
Q 1050 100 700 387 
Q 350 675 250 1225 
z
" transform="scale(0.015625)"/>
       </defs>
       <use xlink:href="#SimHei-33"/>
       <use xlink:href="#SimHei-30" transform="translate(50 0)"/>
       <use xlink:href="#SimHei-30" transform="translate(100 0)"/>
      </g>
     </g>
    </g>
    <g id="xtick_8">
     <g id="line2d_15">
      <path d="M 584.006758 349.8636 
L 584.006758 34.5036 
" clip-path="url(#p0e5e221c2e)" style="fill: none; stroke-dasharray: 2.22,0.96; stroke-dashoffset: 0; stroke: #b0b0b0; stroke-opacity: 0.25; stroke-width: 0.6"/>
     </g>
     <g id="line2d_16">
      <g>
       <use xlink:href="#m5b5151f2f9" x="584.006758" y="349.8636" style="stroke: #000000; stroke-width: 0.8"/>
      </g>
     </g>
     <g id="text_8">
      <!-- 350 -->
      <g transform="translate(575.006758 365.1136) scale(0.12 -0.12)">
       <use xlink:href="#SimHei-33"/>
       <use xlink:href="#SimHei-35" transform="translate(50 0)"/>
       <use xlink:href="#SimHei-30" transform="translate(100 0)"/>
      </g>
     </g>
    </g>
    <g id="xtick_9">
     <g id="line2d_17">
      <path d="M 655.366977 349.8636 
L 655.366977 34.5036 
" clip-path="url(#p0e5e221c2e)" style="fill: none; stroke-dasharray: 2.22,0.96; stroke-dashoffset: 0; stroke: #b0b0b0; stroke-opacity: 0.25; stroke-width: 0.6"/>
     </g>
     <g id="line2d_18">
      <g>
       <use xlink:href="#m5b5151f2f9" x="655.366977" y="349.8636" style="stroke: #000000; stroke-width: 0.8"/>
      </g>
     </g>
     <g id="text_9">
      <!-- 400 -->
      <g transform="translate(646.366977 365.1136) scale(0.12 -0.12)">
       <defs>
        <path id="SimHei-34" d="M 2000 1100 
L 75 1100 
L 75 1525 
L 2100 4450 
L 2475 4450 
L 2475 1525 
L 3075 1525 
L 3075 1100 
L 2475 1100 
L 2475 150 
L 2000 150 
L 2000 1100 
z
M 2000 1525 
L 2000 3500 
L 600 1525 
L 2000 1525 
z
" transform="scale(0.015625)"/>
       </defs>
       <use xlink:href="#SimHei-34"/>
       <use xlink:href="#SimHei-30" transform="translate(50 0)"/>
       <use xlink:href="#SimHei-30" transform="translate(100 0)"/>
      </g>
     </g>
    </g>
    <g id="text_10">
     <!-- Episode -->
     <g transform="translate(339.4625 382.3011) scale(0.17 -0.17)">
      <defs>
       <path id="SimHei-45" d="M 2900 125 
L 350 125 
L 350 4400 
L 2775 4400 
L 2775 3925 
L 925 3925 
L 925 2600 
L 2625 2600 
L 2625 2125 
L 925 2125 
L 925 600 
L 2900 600 
L 2900 125 
z
" transform="scale(0.015625)"/>
       <path id="SimHei-70" d="M 2825 1525 
Q 2825 800 2475 425 
Q 2125 50 1625 50 
Q 1350 50 1150 162 
Q 950 275 800 500 
L 800 -800 
L 300 -800 
L 300 2925 
L 800 2925 
L 800 2550 
Q 950 2775 1150 2875 
Q 1350 2975 1625 2975 
Q 2125 2975 2475 2612 
Q 2825 2250 2825 1525 
z
M 2275 1525 
Q 2275 2000 2087 2262 
Q 1900 2525 1525 2525 
Q 1225 2525 1012 2262 
Q 800 2000 800 1525 
Q 800 1050 1012 775 
Q 1225 500 1525 500 
Q 1900 500 2087 775 
Q 2275 1050 2275 1525 
z
" transform="scale(0.015625)"/>
       <path id="SimHei-69" d="M 1800 3725 
L 1300 3725 
L 1300 4375 
L 1800 4375 
L 1800 3725 
z
M 1800 125 
L 1300 125 
L 1300 2925 
L 1800 2925 
L 1800 125 
z
" transform="scale(0.015625)"/>
       <path id="SimHei-73" d="M 2750 900 
Q 2750 500 2437 287 
Q 2125 75 1650 75 
Q 1050 75 725 312 
Q 400 550 400 1000 
L 900 1000 
Q 900 700 1112 600 
Q 1325 500 1625 500 
Q 1925 500 2075 612 
Q 2225 725 2225 900 
Q 2225 1025 2100 1150 
Q 1975 1275 1475 1350 
Q 900 1425 687 1637 
Q 475 1850 475 2200 
Q 475 2500 762 2737 
Q 1050 2975 1600 2975 
Q 2100 2975 2387 2750 
Q 2675 2525 2675 2150 
L 2175 2150 
Q 2175 2375 2012 2462 
Q 1850 2550 1600 2550 
Q 1275 2550 1137 2437 
Q 1000 2325 1000 2175 
Q 1000 2000 1125 1900 
Q 1250 1800 1650 1750 
Q 2300 1650 2525 1437 
Q 2750 1225 2750 900 
z
" transform="scale(0.015625)"/>
       <path id="SimHei-6f" d="M 2925 1525 
Q 2925 875 2525 475 
Q 2125 75 1575 75 
Q 1025 75 625 475 
Q 225 875 225 1525 
Q 225 2175 625 2575 
Q 1025 2975 1575 2975 
Q 2125 2975 2525 2575 
Q 2925 2175 2925 1525 
z
M 2375 1525 
Q 2375 2025 2125 2275 
Q 1875 2525 1575 2525 
Q 1275 2525 1025 2275 
Q 775 2025 775 1525 
Q 775 1025 1025 775 
Q 1275 525 1575 525 
Q 1875 525 2125 775 
Q 2375 1025 2375 1525 
z
" transform="scale(0.015625)"/>
       <path id="SimHei-64" d="M 2750 125 
L 2250 125 
L 2250 500 
Q 2100 275 1900 175 
Q 1700 75 1425 75 
Q 925 75 575 437 
Q 225 800 225 1525 
Q 225 2250 575 2625 
Q 925 3000 1425 3000 
Q 1700 3000 1900 2887 
Q 2100 2775 2250 2550 
L 2250 4400 
L 2750 4400 
L 2750 125 
z
M 2250 1525 
Q 2250 2000 2037 2275 
Q 1825 2550 1525 2550 
Q 1150 2550 962 2275 
Q 775 2000 775 1525 
Q 775 1050 962 787 
Q 1150 525 1525 525 
Q 1825 525 2037 787 
Q 2250 1050 2250 1525 
z
" transform="scale(0.015625)"/>
       <path id="SimHei-65" d="M 2850 1075 
Q 2800 625 2450 350 
Q 2100 75 1625 75 
Q 1025 75 637 462 
Q 250 850 250 1525 
Q 250 2200 637 2587 
Q 1025 2975 1625 2975 
Q 2150 2975 2487 2637 
Q 2825 2300 2825 1525 
L 800 1525 
Q 800 975 1037 750 
Q 1275 525 1625 525 
Q 1900 525 2075 662 
Q 2250 800 2300 1075 
L 2850 1075 
z
M 2250 1925 
Q 2200 2275 2025 2412 
Q 1850 2550 1575 2550 
Q 1325 2550 1125 2412 
Q 925 2275 825 1925 
L 2250 1925 
z
" transform="scale(0.015625)"/>
      </defs>
      <use xlink:href="#SimHei-45"/>
      <use xlink:href="#SimHei-70" transform="translate(50 0)"/>
      <use xlink:href="#SimHei-69" transform="translate(100 0)"/>
      <use xlink:href="#SimHei-73" transform="translate(150 0)"/>
      <use xlink:href="#SimHei-6f" transform="translate(200 0)"/>
      <use xlink:href="#SimHei-64" transform="translate(250 0)"/>
      <use xlink:href="#SimHei-65" transform="translate(300 0)"/>
     </g>
    </g>
   </g>
   <g id="matplotlib.axis_2">
    <g id="ytick_1">
     <g id="line2d_19">
      <path d="M 56.0125 308.592448 
L 682.4125 308.592448 
" clip-path="url(#p0e5e221c2e)" style="fill: none; stroke-dasharray: 2.22,0.96; stroke-dashoffset: 0; stroke: #b0b0b0; stroke-opacity: 0.25; stroke-width: 0.6"/>
     </g>
     <g id="line2d_20">
      <defs>
       <path id="m45f74a1eda" d="M 0 0 
L -3.5 0 
" style="stroke: #000000; stroke-width: 0.8"/>
      </defs>
      <g>
       <use xlink:href="#m45f74a1eda" x="56.0125" y="308.592448" style="stroke: #000000; stroke-width: 0.8"/>
      </g>
     </g>
     <g id="text_11">
      <!-- 600 -->
      <g transform="translate(31.0125 312.717448) scale(0.12 -0.12)">
       <defs>
        <path id="SimHei-36" d="M 250 1612 
Q 275 1975 387 2225 
Q 500 2475 725 2850 
L 1750 4450 
L 2325 4450 
L 1275 2800 
Q 1950 2975 2350 2750 
Q 2750 2525 2887 2237 
Q 3025 1950 3037 1612 
Q 3050 1275 2937 950 
Q 2825 625 2537 362 
Q 2250 100 1737 75 
Q 1225 50 862 262 
Q 500 475 362 862 
Q 225 1250 250 1612 
z
M 1025 787 
Q 1250 550 1625 525 
Q 2000 500 2250 775 
Q 2500 1050 2500 1575 
Q 2500 2100 2187 2300 
Q 1875 2500 1487 2450 
Q 1100 2400 925 2075 
Q 750 1750 775 1387 
Q 800 1025 1025 787 
z
" transform="scale(0.015625)"/>
       </defs>
       <use xlink:href="#SimHei-36"/>
       <use xlink:href="#SimHei-30" transform="translate(50 0)"/>
       <use xlink:href="#SimHei-30" transform="translate(100 0)"/>
      </g>
     </g>
    </g>
    <g id="ytick_2">
     <g id="line2d_21">
      <path d="M 56.0125 255.197827 
L 682.4125 255.197827 
" clip-path="url(#p0e5e221c2e)" style="fill: none; stroke-dasharray: 2.22,0.96; stroke-dashoffset: 0; stroke: #b0b0b0; stroke-opacity: 0.25; stroke-width: 0.6"/>
     </g>
     <g id="line2d_22">
      <g>
       <use xlink:href="#m45f74a1eda" x="56.0125" y="255.197827" style="stroke: #000000; stroke-width: 0.8"/>
      </g>
     </g>
     <g id="text_12">
      <!-- 800 -->
      <g transform="translate(31.0125 259.322827) scale(0.12 -0.12)">
       <defs>
        <path id="SimHei-38" d="M 175 1375 
Q 175 1675 325 1962 
Q 475 2250 825 2425 
Q 525 2600 425 2812 
Q 325 3025 312 3300 
Q 300 3575 387 3775 
Q 475 3975 650 4150 
Q 825 4325 1037 4387 
Q 1250 4450 1500 4450 
Q 1750 4450 1950 4400 
Q 2150 4350 2375 4187 
Q 2600 4025 2700 3725 
Q 2800 3425 2687 3025 
Q 2575 2625 2100 2400 
Q 2525 2275 2700 2012 
Q 2875 1750 2875 1375 
Q 2875 1000 2762 775 
Q 2650 550 2512 400 
Q 2375 250 2137 162 
Q 1900 75 1537 75 
Q 1175 75 912 162 
Q 650 250 475 425 
Q 300 600 237 837 
Q 175 1075 175 1375 
z
M 687 1400 
Q 675 1100 787 875 
Q 900 650 1200 587 
Q 1500 525 1825 600 
Q 2150 675 2275 950 
Q 2400 1225 2362 1500 
Q 2325 1775 2050 1962 
Q 1775 2150 1450 2125 
Q 1125 2100 912 1900 
Q 700 1700 687 1400 
z
M 775 3350 
Q 775 3100 950 2875 
Q 1125 2650 1500 2650 
Q 1875 2650 2062 2875 
Q 2250 3100 2237 3412 
Q 2225 3725 2012 3875 
Q 1800 4025 1437 4000 
Q 1075 3975 925 3787 
Q 775 3600 775 3350 
z
" transform="scale(0.015625)"/>
       </defs>
       <use xlink:href="#SimHei-38"/>
       <use xlink:href="#SimHei-30" transform="translate(50 0)"/>
       <use xlink:href="#SimHei-30" transform="translate(100 0)"/>
      </g>
     </g>
    </g>
    <g id="ytick_3">
     <g id="line2d_23">
      <path d="M 56.0125 201.803205 
L 682.4125 201.803205 
" clip-path="url(#p0e5e221c2e)" style="fill: none; stroke-dasharray: 2.22,0.96; stroke-dashoffset: 0; stroke: #b0b0b0; stroke-opacity: 0.25; stroke-width: 0.6"/>
     </g>
     <g id="line2d_24">
      <g>
       <use xlink:href="#m45f74a1eda" x="56.0125" y="201.803205" style="stroke: #000000; stroke-width: 0.8"/>
      </g>
     </g>
     <g id="text_13">
      <!-- 1000 -->
      <g transform="translate(25.0125 205.928205) scale(0.12 -0.12)">
       <use xlink:href="#SimHei-31"/>
       <use xlink:href="#SimHei-30" transform="translate(50 0)"/>
       <use xlink:href="#SimHei-30" transform="translate(100 0)"/>
       <use xlink:href="#SimHei-30" transform="translate(150 0)"/>
      </g>
     </g>
    </g>
    <g id="ytick_4">
     <g id="line2d_25">
      <path d="M 56.0125 148.408584 
L 682.4125 148.408584 
" clip-path="url(#p0e5e221c2e)" style="fill: none; stroke-dasharray: 2.22,0.96; stroke-dashoffset: 0; stroke: #b0b0b0; stroke-opacity: 0.25; stroke-width: 0.6"/>
     </g>
     <g id="line2d_26">
      <g>
       <use xlink:href="#m45f74a1eda" x="56.0125" y="148.408584" style="stroke: #000000; stroke-width: 0.8"/>
      </g>
     </g>
     <g id="text_14">
      <!-- 1200 -->
      <g transform="translate(25.0125 152.533584) scale(0.12 -0.12)">
       <use xlink:href="#SimHei-31"/>
       <use xlink:href="#SimHei-32" transform="translate(50 0)"/>
       <use xlink:href="#SimHei-30" transform="translate(100 0)"/>
       <use xlink:href="#SimHei-30" transform="translate(150 0)"/>
      </g>
     </g>
    </g>
    <g id="ytick_5">
     <g id="line2d_27">
      <path d="M 56.0125 95.013963 
L 682.4125 95.013963 
" clip-path="url(#p0e5e221c2e)" style="fill: none; stroke-dasharray: 2.22,0.96; stroke-dashoffset: 0; stroke: #b0b0b0; stroke-opacity: 0.25; stroke-width: 0.6"/>
     </g>
     <g id="line2d_28">
      <g>
       <use xlink:href="#m45f74a1eda" x="56.0125" y="95.013963" style="stroke: #000000; stroke-width: 0.8"/>
      </g>
     </g>
     <g id="text_15">
      <!-- 1400 -->
      <g transform="translate(25.0125 99.138963) scale(0.12 -0.12)">
       <use xlink:href="#SimHei-31"/>
       <use xlink:href="#SimHei-34" transform="translate(50 0)"/>
       <use xlink:href="#SimHei-30" transform="translate(100 0)"/>
       <use xlink:href="#SimHei-30" transform="translate(150 0)"/>
      </g>
     </g>
    </g>
    <g id="ytick_6">
     <g id="line2d_29">
      <path d="M 56.0125 41.619342 
L 682.4125 41.619342 
" clip-path="url(#p0e5e221c2e)" style="fill: none; stroke-dasharray: 2.22,0.96; stroke-dashoffset: 0; stroke: #b0b0b0; stroke-opacity: 0.25; stroke-width: 0.6"/>
     </g>
     <g id="line2d_30">
      <g>
       <use xlink:href="#m45f74a1eda" x="56.0125" y="41.619342" style="stroke: #000000; stroke-width: 0.8"/>
      </g>
     </g>
     <g id="text_16">
      <!-- 1600 -->
      <g transform="translate(25.0125 45.744342) scale(0.12 -0.12)">
       <use xlink:href="#SimHei-31"/>
       <use xlink:href="#SimHei-36" transform="translate(50 0)"/>
       <use xlink:href="#SimHei-30" transform="translate(100 0)"/>
       <use xlink:href="#SimHei-30" transform="translate(150 0)"/>
      </g>
     </g>
    </g>
    <g id="text_17">
     <!-- Total Reward -->
     <g transform="translate(18.8875 243.1836) rotate(-90) scale(0.17 -0.17)">
      <defs>
       <path id="SimHei-54" d="M 2850 3925 
L 1850 3925 
L 1850 125 
L 1275 125 
L 1275 3925 
L 275 3925 
L 275 4400 
L 2850 4400 
L 2850 3925 
z
" transform="scale(0.015625)"/>
       <path id="SimHei-74" d="M 2750 200 
Q 2625 150 2462 112 
Q 2300 75 2025 75 
Q 1575 75 1300 325 
Q 1025 575 1025 1025 
L 1025 2525 
L 175 2525 
L 175 2925 
L 1025 2925 
L 1025 3900 
L 1525 3900 
L 1525 2925 
L 2550 2925 
L 2550 2525 
L 1525 2525 
L 1525 1000 
Q 1525 800 1625 662 
Q 1725 525 2000 525 
Q 2275 525 2450 575 
Q 2625 625 2750 700 
L 2750 200 
z
" transform="scale(0.015625)"/>
       <path id="SimHei-61" d="M 2875 125 
L 2275 125 
Q 2225 175 2200 262 
Q 2175 350 2175 475 
Q 2000 275 1750 175 
Q 1500 75 1225 75 
Q 825 75 550 275 
Q 275 475 275 850 
Q 275 1225 525 1450 
Q 775 1675 1300 1750 
Q 1650 1800 1912 1875 
Q 2175 1950 2175 2075 
Q 2175 2225 2062 2375 
Q 1950 2525 1575 2525 
Q 1275 2525 1137 2412 
Q 1000 2300 950 2100 
L 400 2100 
Q 450 2500 762 2737 
Q 1075 2975 1575 2975 
Q 2125 2975 2400 2725 
Q 2675 2475 2675 2025 
L 2675 650 
Q 2675 500 2725 375 
Q 2775 250 2875 125 
z
M 2175 1050 
L 2175 1550 
Q 2025 1500 1887 1462 
Q 1750 1425 1425 1375 
Q 1050 1325 937 1200 
Q 825 1075 825 900 
Q 825 750 937 637 
Q 1050 525 1275 525 
Q 1500 525 1762 650 
Q 2025 775 2175 1050 
z
" transform="scale(0.015625)"/>
       <path id="SimHei-6c" d="M 1825 125 
L 1325 125 
L 1325 4400 
L 1825 4400 
L 1825 125 
z
" transform="scale(0.015625)"/>
       <path id="SimHei-20" transform="scale(0.015625)"/>
       <path id="SimHei-52" d="M 3000 125 
L 2400 125 
L 1500 1975 
L 850 1975 
L 850 125 
L 275 125 
L 275 4400 
L 1525 4400 
Q 2125 4400 2500 4112 
Q 2875 3825 2875 3175 
Q 2875 2675 2625 2400 
Q 2375 2125 2050 2050 
L 3000 125 
z
M 2300 3175 
Q 2300 3525 2087 3725 
Q 1875 3925 1400 3925 
L 850 3925 
L 850 2450 
L 1550 2450 
Q 1850 2450 2075 2612 
Q 2300 2775 2300 3175 
z
" transform="scale(0.015625)"/>
       <path id="SimHei-77" d="M 3075 2925 
L 2450 75 
L 1975 75 
L 1575 2250 
L 1525 2250 
L 1125 75 
L 650 75 
L 25 2925 
L 550 2925 
L 875 1050 
L 925 1050 
L 1275 2925 
L 1825 2925 
L 2175 1050 
L 2225 1050 
L 2550 2925 
L 3075 2925 
z
" transform="scale(0.015625)"/>
       <path id="SimHei-72" d="M 2500 2425 
Q 2025 2500 1700 2287 
Q 1375 2075 1150 1550 
L 1150 125 
L 650 125 
L 650 2925 
L 1150 2925 
L 1150 2200 
Q 1375 2600 1712 2787 
Q 2050 2975 2500 2975 
L 2500 2425 
z
" transform="scale(0.015625)"/>
      </defs>
      <use xlink:href="#SimHei-54"/>
      <use xlink:href="#SimHei-6f" transform="translate(50 0)"/>
      <use xlink:href="#SimHei-74" transform="translate(100 0)"/>
      <use xlink:href="#SimHei-61" transform="translate(150 0)"/>
      <use xlink:href="#SimHei-6c" transform="translate(200 0)"/>
      <use xlink:href="#SimHei-20" transform="translate(250 0)"/>
      <use xlink:href="#SimHei-52" transform="translate(300 0)"/>
      <use xlink:href="#SimHei-65" transform="translate(350 0)"/>
      <use xlink:href="#SimHei-77" transform="translate(400 0)"/>
      <use xlink:href="#SimHei-61" transform="translate(450 0)"/>
      <use xlink:href="#SimHei-72" transform="translate(500 0)"/>
      <use xlink:href="#SimHei-64" transform="translate(550 0)"/>
     </g>
    </g>
   </g>
   <g id="line2d_31">
    <path d="M 84.485227 163.101352 
L 85.912432 166.193458 
L 87.339636 173.761405 
L 88.76684 166.216781 
L 90.194045 156.50127 
L 91.621249 154.194698 
L 93.048454 151.468152 
L 94.475658 152.420114 
L 95.902862 153.209546 
L 97.330067 156.064404 
L 98.757271 166.051091 
L 100.184475 162.621221 
L 101.61168 162.331563 
L 103.038884 150.736957 
L 104.466089 149.130748 
L 105.893293 158.748071 
L 107.320497 164.047158 
L 108.747702 153.470827 
L 110.174906 150.104318 
L 111.60211 142.013689 
L 113.029315 143.730274 
L 114.456519 139.098286 
L 115.883724 140.62186 
L 117.310928 137.360262 
L 118.738132 137.607535 
L 120.165337 132.082792 
L 121.592541 123.729307 
L 124.44695 110.759073 
L 127.301359 100.379144 
L 128.728563 96.556515 
L 130.155767 91.434569 
L 131.582972 110.031952 
L 137.291789 88.820659 
L 138.718994 84.579758 
L 140.146198 83.789456 
L 141.573402 81.338703 
L 145.855015 77.31196 
L 147.28222 84.997927 
L 148.709424 82.223996 
L 151.563833 77.592969 
L 152.991037 73.001393 
L 154.418242 72.324704 
L 155.845446 67.845873 
L 157.27265 70.274076 
L 158.699855 69.313696 
L 160.127059 67.692763 
L 161.554263 64.120948 
L 162.981468 74.744308 
L 164.408672 82.34414 
L 165.835877 81.15981 
L 170.11749 74.086321 
L 171.544694 73.845812 
L 172.971898 72.552464 
L 174.399103 92.483781 
L 175.826307 87.984793 
L 177.253512 86.662059 
L 178.680716 87.630891 
L 180.10792 84.382332 
L 181.535125 83.898431 
L 182.962329 77.818094 
L 184.389533 76.790505 
L 185.816738 75.570446 
L 187.243942 100.422741 
L 188.671147 98.724403 
L 190.098351 117.361078 
L 191.525555 109.43427 
L 192.95276 109.560484 
L 194.379964 112.005179 
L 195.807168 108.44303 
L 197.234373 105.93378 
L 198.661577 117.940399 
L 200.088782 111.510701 
L 201.515986 104.145277 
L 202.94319 124.494212 
L 204.370395 119.607546 
L 205.797599 116.951654 
L 207.224803 111.417748 
L 208.652008 113.0514 
L 210.079212 122.623139 
L 211.506417 140.505067 
L 214.360825 124.844189 
L 215.78803 133.72601 
L 217.215234 124.688214 
L 218.642438 123.793958 
L 220.069643 117.057304 
L 221.496847 131.623367 
L 222.924052 125.76975 
L 224.351256 124.900435 
L 225.77846 121.008836 
L 227.205665 112.423658 
L 228.632869 121.234936 
L 230.060073 143.403043 
L 231.487278 160.91284 
L 232.914482 176.613967 
L 234.341687 176.081374 
L 235.768891 196.969244 
L 237.196095 184.389672 
L 238.6233 182.923759 
L 240.050504 176.609888 
L 241.477708 177.209173 
L 242.904913 202.758342 
L 244.332117 216.562791 
L 245.759322 228.907323 
L 247.186526 237.473074 
L 248.61373 222.511927 
L 250.040935 232.057749 
L 251.468139 243.776368 
L 254.322548 230.710629 
L 255.749752 216.645882 
L 257.176957 203.761809 
L 258.604161 195.796759 
L 260.031365 199.542648 
L 261.45857 191.992521 
L 262.885774 197.208252 
L 264.312978 205.278845 
L 265.740183 195.553165 
L 268.594592 205.855379 
L 270.021796 218.041889 
L 271.449 211.534245 
L 272.876205 208.237591 
L 274.303409 211.89104 
L 275.730613 217.659875 
L 277.157818 215.116626 
L 278.585022 228.224102 
L 280.012227 214.703545 
L 281.439431 215.664879 
L 282.866635 222.727896 
L 284.29384 216.596814 
L 285.721044 215.403942 
L 287.148248 213.638512 
L 288.575453 212.755309 
L 290.002657 210.027034 
L 291.429862 209.662277 
L 292.857066 211.844031 
L 294.28427 209.407838 
L 297.138679 191.279371 
L 298.565883 189.595481 
L 299.993088 189.880208 
L 301.420292 190.37432 
L 302.847497 191.593295 
L 304.274701 193.32712 
L 305.701905 199.771719 
L 307.12911 195.330682 
L 308.556314 183.961494 
L 309.983518 183.127972 
L 311.410723 177.317132 
L 312.837927 178.675923 
L 314.265132 181.148008 
L 315.692336 179.191281 
L 317.11954 187.618477 
L 318.546745 187.124801 
L 319.973949 189.561283 
L 321.401153 186.748117 
L 322.828358 179.716463 
L 324.255562 182.176169 
L 325.682767 189.563871 
L 327.109971 193.835545 
L 328.537175 194.824105 
L 329.96438 189.89653 
L 331.391584 186.056298 
L 332.818788 176.268646 
L 334.245993 175.03024 
L 335.673197 166.967951 
L 337.100402 166.64643 
L 338.527606 169.833115 
L 339.95481 176.886944 
L 341.382015 190.839705 
L 342.809219 195.832103 
L 344.236423 191.073578 
L 345.663628 184.746598 
L 347.090832 191.446497 
L 348.518037 181.505559 
L 349.945241 183.273704 
L 351.372445 189.166593 
L 352.79965 187.188531 
L 354.226854 181.112011 
L 355.654058 189.420212 
L 357.081263 178.827838 
L 358.508467 194.10862 
L 359.935672 195.026393 
L 361.362876 187.999723 
L 362.79008 180.171114 
L 364.217285 187.432497 
L 365.644489 189.480398 
L 367.071693 193.91981 
L 368.498898 185.997962 
L 369.926102 189.541832 
L 371.353307 195.959327 
L 372.780511 187.534103 
L 374.207715 182.41271 
L 375.63492 183.235201 
L 377.062124 181.460332 
L 378.489328 188.716204 
L 379.916533 187.104661 
L 381.343737 182.357981 
L 382.770942 175.104656 
L 384.198146 178.363547 
L 385.62535 176.14529 
L 387.052555 176.66909 
L 388.479759 167.476039 
L 389.906963 168.69231 
L 391.334168 164.407393 
L 392.761372 163.196223 
L 394.188577 168.989085 
L 395.615781 178.970673 
L 397.042985 173.047241 
L 398.47019 172.003017 
L 399.897394 167.667839 
L 401.324598 175.805539 
L 402.751803 164.948137 
L 404.179007 163.443525 
L 405.606212 159.874551 
L 407.033416 152.370538 
L 408.46062 149.746717 
L 409.887825 148.06868 
L 411.315029 153.416392 
L 412.742233 151.840492 
L 414.169438 159.043632 
L 415.596642 160.164066 
L 417.023847 158.023658 
L 418.451051 154.434091 
L 419.878255 162.069741 
L 421.30546 160.392293 
L 422.732664 162.190544 
L 424.159868 158.065325 
L 425.587073 151.266867 
L 427.014277 159.444441 
L 428.441482 162.66686 
L 429.868686 165.112541 
L 431.29589 160.577556 
L 432.723095 165.737777 
L 434.150299 165.161193 
L 435.577503 159.719909 
L 437.004708 167.534481 
L 438.431912 156.958832 
L 439.859117 157.16028 
L 441.286321 159.408978 
L 442.713525 159.352902 
L 444.14073 165.761639 
L 445.567934 161.845416 
L 446.995138 157.005017 
L 448.422343 158.443007 
L 449.849547 154.12256 
L 451.276752 161.326487 
L 452.703956 159.834082 
L 454.13116 163.131392 
L 455.558365 162.959966 
L 456.985569 163.445079 
L 458.412773 154.046073 
L 459.839978 167.389555 
L 461.267182 158.348433 
L 462.694387 156.423889 
L 464.121591 152.774151 
L 465.548795 145.449523 
L 466.976 147.711867 
L 468.403204 143.421971 
L 469.830408 137.563649 
L 471.257613 140.3081 
L 472.684817 152.363334 
L 474.112022 155.29396 
L 475.539226 157.88637 
L 476.96643 157.68169 
L 478.393635 157.254719 
L 479.820839 159.210944 
L 482.675248 166.725641 
L 484.102452 161.53915 
L 485.529657 162.052134 
L 486.956861 160.309587 
L 489.81127 149.967804 
L 491.238474 163.75972 
L 492.665678 171.264891 
L 494.092883 180.765306 
L 495.520087 169.054528 
L 496.947292 167.860496 
L 498.374496 161.80379 
L 499.8017 166.416653 
L 501.228905 171.512578 
L 502.656109 178.808579 
L 504.083313 193.64345 
L 505.510518 195.506517 
L 506.937722 191.554624 
L 508.364927 181.474548 
L 509.792131 182.622852 
L 511.219335 184.379199 
L 512.64654 183.44461 
L 514.073744 183.613328 
L 515.500948 180.513606 
L 516.928153 178.521538 
L 518.355357 182.315427 
L 519.782562 174.395314 
L 521.209766 169.369648 
L 522.63697 173.955561 
L 524.064175 172.137541 
L 525.491379 170.556563 
L 528.345788 189.086595 
L 529.772992 186.011168 
L 531.200197 186.61986 
L 532.627401 180.524648 
L 534.054605 189.909464 
L 535.48181 178.507788 
L 536.909014 190.607969 
L 538.336218 177.728439 
L 539.763423 178.772677 
L 541.190627 169.099297 
L 542.617832 164.479768 
L 544.045036 164.29849 
L 545.47224 162.163599 
L 546.899445 157.701169 
L 548.326649 160.979109 
L 549.753853 158.592354 
L 551.181058 160.189194 
L 552.608262 153.202227 
L 554.035467 152.752638 
L 555.462671 157.378824 
L 556.889875 156.361361 
L 558.31708 153.292122 
L 559.744284 149.128269 
L 561.171488 154.4635 
L 562.598693 151.752058 
L 564.025897 156.015887 
L 565.453102 151.237298 
L 566.880306 160.872864 
L 568.30751 171.435475 
L 569.734715 179.1933 
L 571.161919 178.695069 
L 572.589123 184.064396 
L 574.016328 181.445537 
L 575.443532 180.409406 
L 576.870737 169.838704 
L 578.297941 161.65177 
L 579.725145 162.643206 
L 581.15235 157.100195 
L 582.579554 155.156168 
L 584.006758 159.451465 
L 585.433963 157.968851 
L 586.861167 163.804246 
L 588.288371 157.896521 
L 589.715576 158.407427 
L 591.14278 154.915925 
L 592.569985 156.571637 
L 593.997189 160.069971 
L 595.424393 148.036731 
L 596.851598 143.101416 
L 598.278802 140.444358 
L 599.706006 143.028462 
L 601.133211 140.420403 
L 602.560415 149.894385 
L 603.98762 155.961252 
L 605.414824 154.942796 
L 606.842028 153.123173 
L 608.269233 153.24341 
L 609.696437 154.61308 
L 611.123641 154.492912 
L 612.550846 153.716999 
L 613.97805 167.058983 
L 615.405255 169.907595 
L 616.832459 163.078968 
L 618.259663 158.43983 
L 619.686868 165.355457 
L 622.541276 169.68121 
L 623.968481 161.382996 
L 625.395685 154.349191 
L 626.82289 152.039599 
L 628.250094 171.950442 
L 629.677298 169.534028 
L 631.104503 171.333437 
L 632.531707 174.968036 
L 633.958911 170.562304 
L 635.386116 168.176813 
L 636.81332 175.417198 
L 638.240525 175.617058 
L 639.667729 168.740232 
L 641.094933 170.23239 
L 642.522138 174.199462 
L 643.949342 176.913703 
L 645.376546 173.564778 
L 646.803751 162.482724 
L 648.230955 168.920806 
L 649.65816 163.685487 
L 651.085364 153.260841 
L 652.512568 153.605192 
L 653.939773 159.351613 
L 653.939773 159.351613 
" clip-path="url(#p0e5e221c2e)" style="fill: none; stroke: #1f77b4; stroke-width: 1.2; stroke-linecap: square"/>
   </g>
   <g id="line2d_32">
    <path d="M 84.485227 238.19354 
L 85.912432 227.047284 
L 87.339636 216.780344 
L 88.76684 216.631905 
L 90.194045 224.733937 
L 91.621249 223.599208 
L 93.048454 226.218213 
L 94.475658 224.028045 
L 95.902862 225.082051 
L 97.330067 220.434463 
L 98.757271 222.871653 
L 100.184475 222.988711 
L 101.61168 228.835477 
L 103.038884 225.175093 
L 104.466089 218.798552 
L 105.893293 215.403431 
L 107.320497 208.587952 
L 110.174906 211.528884 
L 111.60211 222.804156 
L 113.029315 214.179836 
L 114.456519 213.866454 
L 115.883724 207.442131 
L 117.310928 209.850126 
L 118.738132 206.382645 
L 120.165337 201.167017 
L 123.019745 202.679789 
L 124.44695 199.621511 
L 125.874154 192.861992 
L 127.301359 195.109693 
L 128.728563 192.413993 
L 130.155767 182.308288 
L 131.582972 183.147097 
L 133.010176 177.033478 
L 134.43738 177.922438 
L 135.864585 185.358861 
L 137.291789 190.976796 
L 138.718994 190.407999 
L 140.146198 185.85418 
L 141.573402 188.184166 
L 143.000607 188.493076 
L 144.427811 187.46536 
L 145.855015 185.273103 
L 147.28222 181.112891 
L 148.709424 185.075768 
L 151.563833 179.339132 
L 152.991037 180.953745 
L 154.418242 179.324523 
L 155.845446 180.736477 
L 157.27265 175.385937 
L 158.699855 175.243932 
L 160.127059 173.598794 
L 161.554263 168.268023 
L 162.981468 166.595055 
L 164.408672 171.362039 
L 165.835877 166.315547 
L 167.263081 163.948895 
L 168.690285 165.012091 
L 170.11749 165.79267 
L 171.544694 167.006606 
L 172.971898 162.409828 
L 174.399103 161.236567 
L 175.826307 160.54118 
L 177.253512 163.896038 
L 178.680716 163.719093 
L 180.10792 161.030811 
L 181.535125 160.148567 
L 182.962329 160.00367 
L 184.389533 160.50165 
L 185.816738 157.526127 
L 187.243942 153.233079 
L 188.671147 153.54593 
L 190.098351 149.033678 
L 191.525555 154.735099 
L 192.95276 152.394867 
L 194.379964 157.048642 
L 195.807168 158.522908 
L 197.234373 158.89659 
L 198.661577 152.927514 
L 200.088782 152.871037 
L 201.515986 153.120969 
L 202.94319 152.014655 
L 204.370395 151.384952 
L 207.224803 141.475967 
L 208.652008 138.114205 
L 210.079212 135.085142 
L 211.506417 137.387834 
L 212.933621 139.277554 
L 214.360825 136.206941 
L 217.215234 138.132451 
L 218.642438 142.039729 
L 220.069643 141.36296 
L 221.496847 138.077876 
L 222.924052 137.743089 
L 224.351256 136.314484 
L 225.77846 135.606943 
L 227.205665 139.841523 
L 228.632869 134.375847 
L 230.060073 134.372838 
L 231.487278 129.042959 
L 234.341687 130.402965 
L 235.768891 126.403864 
L 237.196095 124.19711 
L 238.6233 123.356587 
L 240.050504 128.624656 
L 242.904913 128.073676 
L 244.332117 124.721657 
L 245.759322 125.625676 
L 247.186526 122.986223 
L 248.61373 121.379164 
L 250.040935 120.396523 
L 251.468139 117.310372 
L 252.895343 115.902894 
L 254.322548 113.464507 
L 255.749752 115.81883 
L 257.176957 117.072787 
L 258.604161 116.236476 
L 260.031365 117.569111 
L 261.45857 118.204643 
L 262.885774 120.464682 
L 264.312978 119.155339 
L 265.740183 116.661913 
L 267.167387 119.164633 
L 268.594592 119.335301 
L 270.021796 113.085082 
L 271.449 113.133919 
L 272.876205 110.920238 
L 274.303409 107.8822 
L 275.730613 106.772858 
L 277.157818 106.556448 
L 278.585022 103.7175 
L 280.012227 104.559337 
L 281.439431 103.284627 
L 282.866635 101.735284 
L 284.29384 99.896953 
L 285.721044 99.640846 
L 287.148248 97.553615 
L 288.575453 93.195862 
L 290.002657 93.76444 
L 291.429862 93.509894 
L 294.28427 91.269154 
L 295.711475 89.727614 
L 298.565883 93.920585 
L 301.420292 89.961825 
L 302.847497 88.960523 
L 304.274701 89.32705 
L 305.701905 87.775894 
L 307.12911 87.169779 
L 308.556314 88.908782 
L 309.983518 93.657891 
L 311.410723 95.833935 
L 312.837927 92.777881 
L 314.265132 94.217927 
L 315.692336 92.30352 
L 317.11954 92.179425 
L 318.546745 93.532567 
L 319.973949 91.312941 
L 321.401153 97.319502 
L 322.828358 95.472083 
L 324.255562 88.065558 
L 325.682767 87.979894 
L 327.109971 86.331263 
L 328.537175 88.804336 
L 329.96438 90.88983 
L 331.391584 88.286551 
L 332.818788 89.058982 
L 334.245993 86.550588 
L 335.673197 85.43021 
L 337.100402 85.511858 
L 338.527606 85.060209 
L 339.95481 83.232748 
L 341.382015 83.550519 
L 342.809219 84.147424 
L 344.236423 83.362601 
L 345.663628 82.429363 
L 347.090832 77.868052 
L 348.518037 76.605898 
L 349.945241 76.780438 
L 351.372445 77.877066 
L 352.79965 80.334868 
L 354.226854 83.345388 
L 355.654058 85.038042 
L 357.081263 84.730792 
L 358.508467 86.164192 
L 359.935672 84.304967 
L 361.362876 84.615195 
L 362.79008 82.086154 
L 364.217285 80.806986 
L 365.644489 80.221355 
L 367.071693 78.032641 
L 368.498898 77.024462 
L 369.926102 77.074705 
L 371.353307 77.455812 
L 372.780511 78.034865 
L 374.207715 79.905317 
L 375.63492 77.425858 
L 377.062124 77.630589 
L 378.489328 76.488699 
L 379.916533 75.764145 
L 381.343737 76.497958 
L 382.770942 74.772889 
L 385.62535 75.078992 
L 387.052555 72.759203 
L 388.479759 72.292175 
L 389.906963 73.219543 
L 391.334168 76.699198 
L 392.761372 77.970577 
L 394.188577 74.251192 
L 395.615781 75.862275 
L 397.042985 76.860748 
L 398.47019 72.866556 
L 399.897394 75.395287 
L 401.324598 75.355787 
L 402.751803 75.079074 
L 404.179007 75.834354 
L 405.606212 74.105557 
L 407.033416 72.977757 
L 408.46062 72.667978 
L 409.887825 72.861371 
L 411.315029 70.263319 
L 412.742233 69.771839 
L 414.169438 68.265093 
L 415.596642 66.09556 
L 417.023847 69.181649 
L 418.451051 69.275031 
L 419.878255 67.682316 
L 421.30546 69.192369 
L 422.732664 70.198223 
L 425.587073 70.819271 
L 427.014277 70.802092 
L 428.441482 68.861254 
L 429.868686 68.959002 
L 431.29589 68.488081 
L 432.723095 70.113808 
L 434.150299 70.700175 
L 435.577503 70.332776 
L 437.004708 68.915447 
L 438.431912 68.511154 
L 439.859117 68.54397 
L 441.286321 67.42284 
L 442.713525 65.804244 
L 444.14073 65.21415 
L 445.567934 66.34865 
L 446.995138 64.380688 
L 448.422343 65.440878 
L 449.849547 66.090048 
L 451.276752 64.318305 
L 452.703956 67.620645 
L 454.13116 68.737501 
L 455.558365 66.418448 
L 456.985569 66.448015 
L 458.412773 65.820007 
L 459.839978 67.36516 
L 461.267182 64.253584 
L 462.694387 65.92557 
L 464.121591 65.854499 
L 465.548795 64.690037 
L 466.976 65.508761 
L 468.403204 67.518885 
L 469.830408 66.378335 
L 471.257613 66.707868 
L 472.684817 66.505333 
L 474.112022 64.522791 
L 475.539226 64.087318 
L 476.96643 62.490703 
L 478.393635 63.439107 
L 481.248043 62.712603 
L 482.675248 64.422968 
L 485.529657 61.775471 
L 486.956861 61.370427 
L 488.384065 60.256694 
L 489.81127 60.502512 
L 491.238474 61.364819 
L 492.665678 61.48842 
L 494.092883 63.010985 
L 495.520087 62.370568 
L 496.947292 64.576111 
L 498.374496 64.627402 
L 499.8017 65.827679 
L 501.228905 67.965187 
L 502.656109 70.945642 
L 504.083313 70.445596 
L 505.510518 70.742523 
L 506.937722 70.244081 
L 508.364927 71.075966 
L 509.792131 70.859996 
L 511.219335 71.030063 
L 512.64654 67.948153 
L 514.073744 67.338773 
L 515.500948 67.761517 
L 516.928153 66.001785 
L 518.355357 64.932886 
L 519.782562 65.322982 
L 521.209766 63.039174 
L 522.63697 62.471585 
L 524.064175 65.031131 
L 525.491379 62.886479 
L 526.918583 62.31694 
L 528.345788 62.03774 
L 529.772992 61.348127 
L 531.200197 62.355553 
L 532.627401 63.063534 
L 534.054605 63.04214 
L 535.48181 61.174479 
L 536.909014 60.927111 
L 538.336218 60.398795 
L 539.763423 59.710184 
L 541.190627 58.694008 
L 542.617832 58.25798 
L 544.045036 60.129413 
L 545.47224 59.863939 
L 546.899445 61.743149 
L 548.326649 62.396374 
L 549.753853 61.03105 
L 551.181058 58.811892 
L 552.608262 57.454716 
L 554.035467 57.518622 
L 555.462671 56.539494 
L 556.889875 56.352209 
L 558.31708 56.656981 
L 559.744284 59.048503 
L 561.171488 58.159573 
L 562.598693 57.915902 
L 564.025897 60.307498 
L 565.453102 60.137904 
L 566.880306 59.34999 
L 568.30751 58.346035 
L 569.734715 58.076037 
L 572.589123 58.388139 
L 575.443532 60.368516 
L 576.870737 60.962637 
L 578.297941 61.841777 
L 579.725145 61.244704 
L 581.15235 58.510609 
L 582.579554 58.873812 
L 584.006758 59.699281 
L 585.433963 58.024806 
L 586.861167 59.629099 
L 588.288371 58.349805 
L 589.715576 58.472015 
L 591.14278 54.707874 
L 592.569985 53.598012 
L 593.997189 54.999613 
L 595.424393 54.671974 
L 596.851598 56.420678 
L 598.278802 57.405843 
L 599.706006 57.489768 
L 601.133211 57.294864 
L 605.414824 61.877598 
L 606.842028 60.08442 
L 608.269233 58.639228 
L 609.696437 58.168452 
L 611.123641 56.978093 
L 612.550846 55.228639 
L 613.97805 54.71516 
L 615.405255 54.894082 
L 616.832459 54.914728 
L 618.259663 56.009164 
L 619.686868 56.35904 
L 621.114072 56.930775 
L 622.541276 59.169545 
L 623.968481 58.678895 
L 625.395685 60.006019 
L 626.82289 59.789991 
L 628.250094 59.252324 
L 629.677298 60.699997 
L 631.104503 59.712185 
L 632.531707 58.976029 
L 633.958911 59.81381 
L 635.386116 60.259193 
L 636.81332 59.73582 
L 638.240525 59.596704 
L 639.667729 57.60853 
L 641.094933 58.721655 
L 642.522138 58.847482 
L 643.949342 60.030007 
L 645.376546 60.70135 
L 646.803751 61.504615 
L 648.230955 61.821565 
L 649.65816 61.515955 
L 651.085364 62.733757 
L 652.512568 59.681966 
L 653.939773 59.125253 
L 653.939773 59.125253 
" clip-path="url(#p0e5e221c2e)" style="fill: none; stroke: #ff7f0e; stroke-width: 1.2; stroke-linecap: square"/>
   </g>
   <g id="line2d_33">
    <path d="M 84.485227 167.315914 
L 85.912432 174.728257 
L 87.339636 173.800062 
L 88.76684 171.151128 
L 90.194045 166.644287 
L 91.621249 167.69398 
L 93.048454 167.104742 
L 94.475658 163.705408 
L 95.902862 163.971991 
L 97.330067 160.851978 
L 98.757271 166.194706 
L 100.184475 169.899975 
L 101.61168 165.977436 
L 103.038884 165.25102 
L 104.466089 162.073043 
L 105.893293 162.172989 
L 107.320497 158.034937 
L 110.174906 154.078271 
L 111.60211 153.019613 
L 113.029315 154.7774 
L 114.456519 160.494768 
L 115.883724 162.154273 
L 117.310928 161.003564 
L 118.738132 157.068382 
L 120.165337 156.935363 
L 121.592541 149.854797 
L 123.019745 145.020368 
L 124.44695 137.440004 
L 125.874154 131.703977 
L 127.301359 127.050912 
L 128.728563 122.815566 
L 130.155767 122.779831 
L 131.582972 125.824733 
L 133.010176 130.154239 
L 134.43738 132.266549 
L 135.864585 130.843663 
L 137.291789 131.784668 
L 138.718994 136.982071 
L 140.146198 141.425677 
L 141.573402 145.411697 
L 143.000607 149.978206 
L 144.427811 151.798254 
L 145.855015 156.850711 
L 148.709424 165.4721 
L 150.136629 160.772632 
L 151.563833 160.632422 
L 152.991037 164.362998 
L 154.418242 165.831989 
L 155.845446 169.612877 
L 157.27265 169.004613 
L 158.699855 168.788848 
L 160.127059 169.379289 
L 161.554263 174.923652 
L 162.981468 174.328022 
L 164.408672 171.714511 
L 165.835877 173.554927 
L 167.263081 172.655102 
L 168.690285 177.875935 
L 171.544694 171.920541 
L 172.971898 169.891433 
L 174.399103 172.439282 
L 175.826307 170.689411 
L 177.253512 169.152149 
L 178.680716 167.376921 
L 180.10792 166.769074 
L 182.962329 164.954113 
L 184.389533 170.208289 
L 185.816738 169.301765 
L 187.243942 167.701008 
L 188.671147 166.322582 
L 190.098351 164.301051 
L 191.525555 163.729192 
L 192.95276 161.718124 
L 194.379964 159.94786 
L 195.807168 159.763393 
L 197.234373 156.572817 
L 198.661577 146.141753 
L 201.515986 129.377849 
L 202.94319 120.698175 
L 204.370395 113.469627 
L 205.797599 105.104236 
L 207.224803 101.623712 
L 208.652008 98.568967 
L 210.079212 93.397931 
L 211.506417 89.563872 
L 212.933621 86.503101 
L 214.360825 81.726847 
L 215.78803 80.408083 
L 217.215234 80.680254 
L 218.642438 80.281625 
L 220.069643 76.592341 
L 222.924052 73.990262 
L 224.351256 71.041372 
L 225.77846 67.612301 
L 227.205665 65.364614 
L 228.632869 64.099542 
L 230.060073 63.627762 
L 231.487278 62.733601 
L 232.914482 63.840018 
L 234.341687 62.735249 
L 235.768891 62.194526 
L 237.196095 63.259621 
L 238.6233 65.029954 
L 240.050504 65.906313 
L 241.477708 65.817886 
L 242.904913 64.238542 
L 244.332117 63.193356 
L 245.759322 62.663735 
L 247.186526 60.781024 
L 248.61373 57.709391 
L 250.040935 56.615251 
L 251.468139 55.769572 
L 252.895343 56.581357 
L 254.322548 56.535259 
L 255.749752 55.30992 
L 260.031365 59.502008 
L 261.45857 59.077395 
L 262.885774 56.803033 
L 264.312978 54.785064 
L 265.740183 55.782695 
L 267.167387 54.139337 
L 271.449 59.224504 
L 272.876205 57.327908 
L 274.303409 58.370653 
L 275.730613 58.856104 
L 277.157818 57.241999 
L 278.585022 57.644492 
L 280.012227 57.869003 
L 281.439431 56.512958 
L 284.29384 56.346916 
L 285.721044 56.943221 
L 287.148248 56.946086 
L 288.575453 58.214132 
L 290.002657 56.922055 
L 291.429862 58.141998 
L 294.28427 57.666662 
L 295.711475 58.115038 
L 297.138679 57.156538 
L 298.565883 56.405412 
L 299.993088 56.94714 
L 301.420292 54.568062 
L 302.847497 56.310873 
L 304.274701 55.609534 
L 305.701905 55.310407 
L 307.12911 56.258245 
L 308.556314 56.517869 
L 309.983518 56.37882 
L 311.410723 58.184814 
L 312.837927 59.024014 
L 314.265132 58.861141 
L 315.692336 57.594219 
L 317.11954 58.893025 
L 318.546745 59.302094 
L 319.973949 59.152342 
L 321.401153 59.942941 
L 322.828358 60.503609 
L 324.255562 58.905522 
L 325.682767 58.298069 
L 327.109971 57.919903 
L 328.537175 59.360739 
L 329.96438 58.596232 
L 331.391584 58.179144 
L 332.818788 58.38509 
L 334.245993 56.684918 
L 335.673197 57.933122 
L 337.100402 57.616804 
L 338.527606 59.365287 
L 341.382015 59.704288 
L 342.809219 58.828857 
L 344.236423 60.542046 
L 345.663628 58.29986 
L 347.090832 56.489172 
L 348.518037 57.376447 
L 349.945241 58.749162 
L 351.372445 58.253649 
L 352.79965 58.952515 
L 354.226854 61.096574 
L 355.654058 58.82334 
L 357.081263 58.717308 
L 358.508467 57.285183 
L 359.935672 55.375653 
L 361.362876 55.568211 
L 362.79008 57.398896 
L 364.217285 58.687548 
L 365.644489 57.573633 
L 367.071693 57.418912 
L 368.498898 56.456699 
L 369.926102 55.705349 
L 371.353307 56.008744 
L 372.780511 57.731064 
L 374.207715 58.376276 
L 375.63492 56.440236 
L 377.062124 56.608736 
L 378.489328 56.604473 
L 379.916533 58.61847 
L 381.343737 57.064695 
L 382.770942 57.67389 
L 384.198146 56.50663 
L 385.62535 57.397994 
L 388.479759 60.297472 
L 389.906963 58.966893 
L 391.334168 57.22599 
L 392.761372 57.282858 
L 394.188577 56.969493 
L 395.615781 54.669821 
L 397.042985 56.203146 
L 398.47019 53.490107 
L 399.897394 53.764331 
L 401.324598 54.450476 
L 402.751803 53.064641 
L 404.179007 54.351816 
L 405.606212 54.878327 
L 407.033416 55.231167 
L 408.46062 53.825197 
L 409.887825 52.973998 
L 411.315029 52.970584 
L 412.742233 52.27929 
L 414.169438 52.345993 
L 415.596642 53.829942 
L 417.023847 56.384092 
L 418.451051 55.787269 
L 419.878255 54.706882 
L 421.30546 54.394629 
L 422.732664 52.301468 
L 424.159868 52.501606 
L 425.587073 52.548905 
L 427.014277 52.310866 
L 428.441482 51.82717 
L 429.868686 51.187791 
L 431.29589 51.728785 
L 432.723095 51.42747 
L 434.150299 49.008428 
L 435.577503 48.838145 
L 437.004708 49.765431 
L 439.859117 52.493408 
L 441.286321 51.917011 
L 442.713525 54.036997 
L 444.14073 55.501859 
L 445.567934 55.850326 
L 448.422343 55.418481 
L 449.849547 56.792404 
L 451.276752 56.927334 
L 452.703956 57.207289 
L 454.13116 58.587169 
L 455.558365 59.511158 
L 456.985569 59.731898 
L 458.412773 58.84394 
L 459.839978 57.761228 
L 461.267182 56.416729 
L 462.694387 57.943268 
L 464.121591 55.887027 
L 465.548795 54.635011 
L 466.976 56.612823 
L 468.403204 58.196675 
L 469.830408 58.316675 
L 471.257613 58.564326 
L 472.684817 57.247264 
L 474.112022 56.645472 
L 475.539226 55.05345 
L 476.96643 54.567414 
L 478.393635 52.737463 
L 479.820839 53.252133 
L 481.248043 52.783786 
L 482.675248 53.426334 
L 484.102452 55.098404 
L 485.529657 56.229514 
L 486.956861 56.391568 
L 488.384065 56.388244 
L 489.81127 55.736968 
L 491.238474 55.441908 
L 492.665678 57.108834 
L 494.092883 59.285043 
L 495.520087 58.998591 
L 496.947292 58.894313 
L 498.374496 59.578472 
L 499.8017 59.70872 
L 502.656109 59.685483 
L 505.510518 55.665608 
L 506.937722 56.283664 
L 508.364927 55.822909 
L 509.792131 54.46319 
L 511.219335 55.206117 
L 512.64654 54.903454 
L 514.073744 55.266451 
L 515.500948 55.80773 
L 516.928153 57.329274 
L 518.355357 57.210682 
L 519.782562 56.538924 
L 521.209766 57.617428 
L 522.63697 59.867381 
L 524.064175 59.452657 
L 525.491379 58.260166 
L 526.918583 60.078364 
L 528.345788 58.625627 
L 529.772992 57.694816 
L 531.200197 59.691203 
L 532.627401 58.180548 
L 534.054605 60.464654 
L 535.48181 57.455435 
L 536.909014 56.136047 
L 538.336218 56.502178 
L 539.763423 56.155379 
L 542.617832 56.481861 
L 544.045036 55.300251 
L 545.47224 58.395732 
L 546.899445 58.656036 
L 548.326649 60.338957 
L 549.753853 59.72987 
L 551.181058 58.224341 
L 552.608262 59.531903 
L 554.035467 59.341462 
L 555.462671 58.782462 
L 556.889875 59.50483 
L 558.31708 58.530452 
L 559.744284 58.268579 
L 561.171488 60.60213 
L 562.598693 58.311184 
L 564.025897 59.748283 
L 565.453102 59.396494 
L 566.880306 61.028023 
L 568.30751 60.820916 
L 569.734715 60.867471 
L 571.161919 59.406162 
L 572.589123 60.759327 
L 574.016328 59.259615 
L 576.870737 51.587079 
L 578.297941 51.938138 
L 579.725145 54.234221 
L 581.15235 54.153327 
L 582.579554 56.025015 
L 584.006758 54.740103 
L 585.433963 55.488257 
L 586.861167 56.004579 
L 588.288371 57.221884 
L 589.715576 57.989644 
L 591.14278 55.280024 
L 592.569985 56.567466 
L 593.997189 56.975527 
L 595.424393 55.570494 
L 596.851598 56.611031 
L 598.278802 57.101178 
L 599.706006 56.978487 
L 602.560415 57.352085 
L 603.98762 56.306422 
L 605.414824 55.676067 
L 606.842028 56.233187 
L 608.269233 56.670575 
L 609.696437 56.414574 
L 611.123641 55.502783 
L 612.550846 55.321724 
L 613.97805 56.420891 
L 615.405255 55.271188 
L 616.832459 55.090348 
L 619.686868 53.999845 
L 621.114072 56.43986 
L 622.541276 55.090836 
L 623.968481 55.802859 
L 625.395685 53.400431 
L 626.82289 54.646949 
L 628.250094 55.660975 
L 631.104503 53.934838 
L 632.531707 53.277145 
L 633.958911 53.614464 
L 635.386116 53.006899 
L 636.81332 52.216498 
L 638.240525 52.333148 
L 639.667729 53.493362 
L 641.094933 52.722466 
L 642.522138 50.954942 
L 643.949342 51.889786 
L 645.376546 50.372748 
L 646.803751 51.305736 
L 648.230955 52.052299 
L 649.65816 54.430634 
L 651.085364 54.614137 
L 652.512568 52.478102 
L 653.939773 54.118095 
L 653.939773 54.118095 
" clip-path="url(#p0e5e221c2e)" style="fill: none; stroke: #2ca02c; stroke-width: 1.2; stroke-linecap: square"/>
   </g>
   <g id="line2d_34">
    <path d="M 84.485227 205.179783 
L 85.912432 206.625148 
L 87.339636 214.189471 
L 88.76684 222.375335 
L 90.194045 234.633981 
L 91.621249 239.295588 
L 93.048454 253.795753 
L 94.475658 250.511547 
L 95.902862 254.550662 
L 97.330067 252.970258 
L 98.757271 263.21359 
L 100.184475 271.625673 
L 101.61168 269.792957 
L 103.038884 271.07325 
L 104.466089 278.417051 
L 105.893293 282.13673 
L 107.320497 287.440249 
L 108.747702 288.993053 
L 110.174906 296.532424 
L 111.60211 293.624397 
L 113.029315 293.741959 
L 114.456519 282.564295 
L 115.883724 281.441635 
L 117.310928 281.004424 
L 118.738132 278.791264 
L 120.165337 283.641096 
L 121.592541 287.515214 
L 123.019745 290.610458 
L 124.44695 293.973207 
L 128.728563 313.462073 
L 130.155767 316.233222 
L 131.582972 326.094608 
L 133.010176 323.416888 
L 134.43738 324.527515 
L 135.864585 335.529055 
L 138.718994 282.885164 
L 140.146198 259.503073 
L 141.573402 239.065638 
L 143.000607 222.170121 
L 145.855015 192.912808 
L 147.28222 179.536131 
L 154.418242 130.118253 
L 155.845446 124.133493 
L 157.27265 116.34956 
L 158.699855 113.173043 
L 160.127059 107.60365 
L 161.554263 103.140027 
L 162.981468 99.480775 
L 164.408672 97.327097 
L 167.263081 86.10165 
L 168.690285 83.004584 
L 170.11749 82.163527 
L 171.544694 81.932486 
L 174.399103 76.640185 
L 175.826307 76.178848 
L 177.253512 75.345912 
L 178.680716 72.723372 
L 180.10792 70.520536 
L 181.535125 68.109505 
L 182.962329 66.151176 
L 185.816738 59.740157 
L 187.243942 59.823581 
L 188.671147 61.410029 
L 190.098351 61.153674 
L 191.525555 61.24323 
L 192.95276 60.289213 
L 194.379964 62.11184 
L 195.807168 61.042099 
L 197.234373 59.644277 
L 198.661577 60.762339 
L 200.088782 63.369674 
L 201.515986 65.472164 
L 202.94319 66.21817 
L 204.370395 65.104589 
L 205.797599 62.996826 
L 207.224803 62.298204 
L 208.652008 61.870618 
L 210.079212 61.989381 
L 211.506417 60.902821 
L 212.933621 59.640078 
L 214.360825 59.575093 
L 215.78803 60.056134 
L 217.215234 59.803425 
L 218.642438 59.95252 
L 220.069643 59.266523 
L 221.496847 59.431243 
L 222.924052 60.6573 
L 224.351256 60.004847 
L 225.77846 58.702072 
L 227.205665 57.783393 
L 228.632869 55.38923 
L 230.060073 57.094205 
L 231.487278 56.657673 
L 232.914482 57.691109 
L 234.341687 57.193714 
L 235.768891 58.458339 
L 237.196095 58.034275 
L 238.6233 57.787808 
L 240.050504 57.378751 
L 241.477708 57.766256 
L 242.904913 57.057648 
L 244.332117 58.046927 
L 247.186526 57.199375 
L 248.61373 59.136694 
L 250.040935 56.868392 
L 251.468139 55.214357 
L 252.895343 58.489645 
L 255.749752 60.249749 
L 257.176957 59.535055 
L 258.604161 61.914507 
L 260.031365 62.396324 
L 261.45857 62.304258 
L 262.885774 62.044148 
L 264.312978 59.069505 
L 265.740183 58.301799 
L 267.167387 58.35331 
L 268.594592 58.147009 
L 270.021796 59.150826 
L 271.449 58.645217 
L 272.876205 58.63215 
L 274.303409 59.838325 
L 275.730613 58.050234 
L 277.157818 56.879029 
L 278.585022 57.111292 
L 280.012227 56.268679 
L 281.439431 57.569375 
L 284.29384 57.023972 
L 285.721044 55.591233 
L 287.148248 56.196353 
L 288.575453 57.17878 
L 290.002657 56.959214 
L 291.429862 57.870354 
L 292.857066 56.577345 
L 294.28427 54.549015 
L 295.711475 54.290854 
L 297.138679 55.635153 
L 298.565883 59.491047 
L 299.993088 58.189395 
L 301.420292 58.679086 
L 302.847497 58.268202 
L 304.274701 58.111634 
L 305.701905 57.345289 
L 307.12911 60.961276 
L 308.556314 58.216734 
L 311.410723 58.161117 
L 312.837927 59.034397 
L 315.692336 56.895492 
L 317.11954 55.472842 
L 318.546745 54.599828 
L 319.973949 54.410559 
L 321.401153 53.201884 
L 322.828358 53.547025 
L 324.255562 54.158036 
L 325.682767 53.76096 
L 327.109971 54.73469 
L 328.537175 56.374531 
L 329.96438 56.722065 
L 331.391584 58.675908 
L 332.818788 58.256844 
L 334.245993 57.98746 
L 335.673197 59.668014 
L 337.100402 61.031697 
L 338.527606 61.249103 
L 339.95481 62.324782 
L 341.382015 61.594055 
L 342.809219 63.143787 
L 344.236423 63.221917 
L 345.663628 61.073836 
L 347.090832 59.791305 
L 348.518037 58.834168 
L 349.945241 55.841104 
L 351.372445 57.238037 
L 352.79965 56.641739 
L 354.226854 56.858348 
L 355.654058 57.489465 
L 357.081263 57.822475 
L 358.508467 57.659874 
L 359.935672 55.375946 
L 361.362876 54.496151 
L 362.79008 54.697103 
L 364.217285 56.714577 
L 365.644489 55.394796 
L 367.071693 56.786819 
L 368.498898 57.014974 
L 369.926102 56.887991 
L 371.353307 57.051327 
L 372.780511 56.144306 
L 374.207715 57.401267 
L 375.63492 57.169 
L 377.062124 59.028019 
L 378.489328 60.300211 
L 379.916533 61.729675 
L 381.343737 61.522286 
L 382.770942 60.915609 
L 384.198146 60.475202 
L 385.62535 62.255284 
L 387.052555 63.117174 
L 388.479759 63.640088 
L 389.906963 61.673515 
L 391.334168 63.408797 
L 392.761372 61.556626 
L 394.188577 63.590491 
L 395.615781 64.62075 
L 397.042985 61.580917 
L 398.47019 61.352159 
L 399.897394 59.622362 
L 401.324598 60.037412 
L 402.751803 62.15584 
L 404.179007 60.414854 
L 405.606212 61.458238 
L 407.033416 61.168604 
L 408.46062 62.61416 
L 409.887825 62.688626 
L 411.315029 61.987384 
L 412.742233 60.742265 
L 414.169438 60.497667 
L 415.596642 61.632951 
L 417.023847 61.549763 
L 418.451051 61.198487 
L 419.878255 60.724631 
L 421.30546 61.710263 
L 422.732664 61.027697 
L 424.159868 62.227348 
L 425.587073 62.7263 
L 427.014277 61.797687 
L 428.441482 61.776769 
L 429.868686 62.343717 
L 431.29589 63.654072 
L 432.723095 63.855676 
L 434.150299 62.566729 
L 435.577503 61.865857 
L 437.004708 61.783369 
L 438.431912 60.215264 
L 439.859117 57.001763 
L 441.286321 57.592271 
L 442.713525 57.235359 
L 444.14073 58.544926 
L 445.567934 59.285851 
L 446.995138 59.569571 
L 448.422343 60.110079 
L 449.849547 60.388487 
L 452.703956 59.740234 
L 455.558365 55.48456 
L 456.985569 55.350219 
L 458.412773 57.159479 
L 459.839978 59.50016 
L 461.267182 57.277419 
L 462.694387 56.410608 
L 464.121591 55.30121 
L 465.548795 54.624691 
L 466.976 55.037502 
L 468.403204 53.815955 
L 469.830408 51.910443 
L 471.257613 53.344264 
L 472.684817 55.279076 
L 474.112022 54.403483 
L 475.539226 53.848787 
L 476.96643 54.765762 
L 478.393635 53.482978 
L 479.820839 53.490276 
L 481.248043 55.096202 
L 482.675248 56.387875 
L 484.102452 56.789764 
L 485.529657 58.001809 
L 486.956861 60.329536 
L 488.384065 58.261582 
L 489.81127 55.70403 
L 491.238474 56.4491 
L 492.665678 57.588125 
L 494.092883 57.201794 
L 495.520087 56.311964 
L 496.947292 56.165482 
L 498.374496 57.625605 
L 499.8017 56.275645 
L 501.228905 55.775226 
L 502.656109 59.023865 
L 505.510518 58.901433 
L 506.937722 59.134614 
L 508.364927 59.896817 
L 509.792131 60.117853 
L 511.219335 61.184607 
L 512.64654 60.438879 
L 514.073744 63.284574 
L 515.500948 62.859942 
L 516.928153 61.76638 
L 519.782562 61.343208 
L 521.209766 62.438105 
L 522.63697 61.618284 
L 524.064175 62.951736 
L 525.491379 60.626726 
L 526.918583 58.921117 
L 528.345788 58.01574 
L 531.200197 57.298022 
L 532.627401 58.868914 
L 534.054605 60.978147 
L 535.48181 60.651802 
L 536.909014 61.120241 
L 538.336218 58.337134 
L 539.763423 56.061379 
L 541.190627 57.407566 
L 542.617832 57.497839 
L 545.47224 61.359213 
L 548.326649 63.61411 
L 549.753853 62.706557 
L 551.181058 60.178802 
L 552.608262 59.439708 
L 554.035467 56.492243 
L 555.462671 60.678425 
L 556.889875 58.212678 
L 558.31708 56.925303 
L 559.744284 59.611736 
L 561.171488 60.449971 
L 562.598693 59.463863 
L 564.025897 56.978713 
L 565.453102 56.355277 
L 566.880306 56.147995 
L 568.30751 56.809355 
L 569.734715 58.996038 
L 571.161919 57.861535 
L 572.589123 57.683711 
L 574.016328 55.4802 
L 575.443532 55.103641 
L 576.870737 54.885235 
L 578.297941 54.190026 
L 579.725145 52.075932 
L 581.15235 53.032655 
L 582.579554 51.525755 
L 584.006758 51.927946 
L 585.433963 54.756036 
L 586.861167 54.248464 
L 588.288371 54.344528 
L 589.715576 55.221088 
L 591.14278 52.45681 
L 592.569985 52.315611 
L 593.997189 52.611112 
L 595.424393 53.576359 
L 596.851598 54.960057 
L 598.278802 55.917404 
L 599.706006 57.082402 
L 601.133211 59.426813 
L 602.560415 59.614893 
L 605.414824 59.451712 
L 609.696437 57.187615 
L 611.123641 59.507324 
L 612.550846 60.378995 
L 613.97805 58.869397 
L 615.405255 56.269316 
L 616.832459 57.961646 
L 618.259663 57.559548 
L 619.686868 58.911707 
L 621.114072 59.978156 
L 622.541276 59.842365 
L 623.968481 59.27673 
L 625.395685 59.730633 
L 626.82289 57.927905 
L 628.250094 59.620663 
L 629.677298 57.391997 
L 631.104503 56.467696 
L 632.531707 57.342547 
L 633.958911 59.67227 
L 635.386116 60.179448 
L 636.81332 59.72567 
L 638.240525 58.949012 
L 639.667729 59.636398 
L 641.094933 58.270972 
L 642.522138 59.834955 
L 643.949342 59.061486 
L 645.376546 57.081295 
L 646.803751 58.747527 
L 648.230955 58.519978 
L 649.65816 56.69229 
L 651.085364 57.983099 
L 652.512568 56.416097 
L 653.939773 55.540538 
L 653.939773 55.540538 
" clip-path="url(#p0e5e221c2e)" style="fill: none; stroke: #d62728; stroke-width: 1.2; stroke-linecap: square"/>
   </g>
   <g id="line2d_35">
    <path d="M 84.485227 206.280381 
L 85.912432 204.450782 
L 87.339636 199.591715 
L 88.76684 195.291519 
L 90.194045 186.111956 
L 91.621249 177.902513 
L 93.048454 168.153289 
L 94.475658 160.102415 
L 95.902862 154.552378 
L 97.330067 147.975279 
L 98.757271 139.17746 
L 103.038884 117.472625 
L 104.466089 113.405862 
L 105.893293 110.28832 
L 107.320497 104.035063 
L 108.747702 101.738319 
L 110.174906 96.889244 
L 111.60211 92.635781 
L 113.029315 89.416212 
L 114.456519 87.842256 
L 115.883724 84.082529 
L 117.310928 80.931756 
L 120.165337 75.124484 
L 121.592541 73.217376 
L 123.019745 72.740997 
L 124.44695 71.643655 
L 125.874154 69.075278 
L 127.301359 68.743602 
L 128.728563 66.911106 
L 130.155767 65.289466 
L 131.582972 66.142432 
L 133.010176 64.476758 
L 134.43738 64.231708 
L 135.864585 59.965272 
L 137.291789 58.40512 
L 138.718994 57.685779 
L 140.146198 59.510478 
L 141.573402 57.102565 
L 143.000607 57.069941 
L 144.427811 57.951045 
L 145.855015 56.872032 
L 147.28222 56.905829 
L 148.709424 58.179593 
L 150.136629 59.16946 
L 151.563833 57.718043 
L 152.991037 58.225921 
L 154.418242 55.522672 
L 155.845446 56.428982 
L 157.27265 55.71998 
L 158.699855 55.297107 
L 160.127059 55.400557 
L 161.554263 56.287006 
L 162.981468 56.405635 
L 164.408672 59.73425 
L 165.835877 59.856424 
L 167.263081 61.871818 
L 168.690285 60.784453 
L 170.11749 60.766175 
L 171.544694 59.629494 
L 172.971898 61.133772 
L 174.399103 61.006837 
L 175.826307 62.311677 
L 177.253512 61.094684 
L 178.680716 59.340893 
L 180.10792 58.177728 
L 181.535125 55.807037 
L 182.962329 56.723619 
L 184.389533 55.560852 
L 185.816738 53.345762 
L 187.243942 55.255661 
L 188.671147 54.170716 
L 190.098351 54.355691 
L 191.525555 53.861193 
L 192.95276 52.47203 
L 194.379964 50.803292 
L 195.807168 50.428352 
L 197.234373 51.439244 
L 198.661577 53.996528 
L 200.088782 51.139913 
L 201.515986 52.419453 
L 202.94319 53.338482 
L 204.370395 54.718983 
L 205.797599 52.104063 
L 207.224803 51.512822 
L 208.652008 51.913375 
L 210.079212 51.697939 
L 212.933621 53.940785 
L 214.360825 56.253913 
L 215.78803 54.497279 
L 217.215234 53.922971 
L 220.069643 53.872512 
L 221.496847 54.592138 
L 222.924052 55.178571 
L 224.351256 57.06436 
L 228.632869 55.7005 
L 230.060073 56.826611 
L 232.914482 55.980299 
L 234.341687 56.737166 
L 235.768891 57.695237 
L 237.196095 58.215217 
L 238.6233 58.52116 
L 240.050504 59.456647 
L 241.477708 56.148256 
L 242.904913 56.687171 
L 244.332117 59.106854 
L 245.759322 59.500341 
L 247.186526 58.83611 
L 248.61373 58.505115 
L 250.040935 56.966201 
L 251.468139 57.631551 
L 252.895343 57.857563 
L 254.322548 55.197008 
L 255.749752 55.762098 
L 257.176957 56.161354 
L 258.604161 54.349246 
L 260.031365 53.584835 
L 261.45857 54.747537 
L 264.312978 55.486176 
L 265.740183 52.40224 
L 267.167387 51.326107 
L 268.594592 49.038742 
L 270.021796 49.416165 
L 271.449 50.626317 
L 272.876205 54.632765 
L 274.303409 57.234433 
L 275.730613 55.476082 
L 277.157818 54.632565 
L 278.585022 56.521803 
L 281.439431 57.214821 
L 282.866635 57.785306 
L 284.29384 59.46922 
L 285.721044 57.474247 
L 287.148248 59.631144 
L 288.575453 59.298533 
L 290.002657 58.680113 
L 291.429862 55.718916 
L 292.857066 56.109009 
L 294.28427 57.638735 
L 295.711475 58.020361 
L 297.138679 60.658734 
L 298.565883 61.802627 
L 299.993088 62.52989 
L 301.420292 61.220573 
L 302.847497 59.510239 
L 304.274701 60.663091 
L 305.701905 58.945795 
L 307.12911 58.54994 
L 308.556314 60.653239 
L 309.983518 58.331489 
L 311.410723 58.442889 
L 312.837927 58.088922 
L 314.265132 58.702028 
L 315.692336 58.826165 
L 317.11954 58.561776 
L 318.546745 57.747396 
L 319.973949 56.098379 
L 321.401153 55.147371 
L 322.828358 57.5356 
L 324.255562 58.057171 
L 325.682767 57.505369 
L 327.109971 58.606504 
L 328.537175 60.074443 
L 331.391584 60.116567 
L 332.818788 60.420751 
L 334.245993 58.041129 
L 335.673197 59.578343 
L 337.100402 58.858078 
L 338.527606 59.750339 
L 339.95481 59.012479 
L 341.382015 56.902498 
L 342.809219 56.870246 
L 345.663628 54.217365 
L 347.090832 54.781624 
L 348.518037 52.981639 
L 349.945241 52.696741 
L 351.372445 54.248861 
L 352.79965 56.546714 
L 354.226854 56.857741 
L 355.654058 53.921161 
L 357.081263 54.054629 
L 358.508467 53.277431 
L 359.935672 55.331463 
L 361.362876 55.170177 
L 362.79008 53.574008 
L 364.217285 53.551622 
L 365.644489 53.72581 
L 367.071693 53.387512 
L 368.498898 52.106894 
L 369.926102 52.18332 
L 371.353307 51.911624 
L 372.780511 53.797885 
L 374.207715 54.188783 
L 375.63492 55.218793 
L 377.062124 57.686928 
L 378.489328 57.748538 
L 379.916533 57.064099 
L 381.343737 57.639127 
L 382.770942 59.009664 
L 384.198146 58.060399 
L 385.62535 57.917543 
L 387.052555 57.549042 
L 388.479759 55.670463 
L 389.906963 54.972958 
L 391.334168 55.215298 
L 392.761372 56.704382 
L 394.188577 55.699274 
L 395.615781 55.22987 
L 397.042985 55.969641 
L 398.47019 58.337136 
L 399.897394 59.522909 
L 401.324598 58.442863 
L 402.751803 58.075698 
L 404.179007 57.823628 
L 405.606212 59.075798 
L 407.033416 59.834412 
L 408.46062 62.052181 
L 409.887825 62.592445 
L 411.315029 61.843924 
L 412.742233 63.261586 
L 414.169438 62.544204 
L 415.596642 59.956188 
L 418.451051 56.205587 
L 419.878255 56.702765 
L 421.30546 55.272036 
L 422.732664 54.91718 
L 424.159868 53.730167 
L 425.587073 54.840039 
L 427.014277 53.902851 
L 428.441482 55.770193 
L 429.868686 56.421827 
L 431.29589 56.504658 
L 432.723095 57.867804 
L 434.150299 56.683984 
L 435.577503 55.671483 
L 437.004708 56.255768 
L 438.431912 54.672924 
L 439.859117 56.565395 
L 441.286321 56.519362 
L 442.713525 55.84853 
L 444.14073 57.753723 
L 445.567934 56.973099 
L 446.995138 56.423587 
L 448.422343 57.147071 
L 449.849547 57.27745 
L 452.703956 58.998862 
L 454.13116 59.430368 
L 455.558365 59.579666 
L 456.985569 58.336504 
L 458.412773 58.688673 
L 459.839978 58.852109 
L 461.267182 59.18585 
L 462.694387 58.536274 
L 464.121591 59.382392 
L 465.548795 61.359101 
L 466.976 63.093633 
L 468.403204 62.672455 
L 471.257613 63.826821 
L 472.684817 62.506029 
L 474.112022 60.970083 
L 475.539226 59.626002 
L 476.96643 59.535361 
L 478.393635 56.726505 
L 479.820839 57.28047 
L 481.248043 55.582389 
L 482.675248 55.903592 
L 484.102452 56.429155 
L 485.529657 55.450711 
L 486.956861 55.346301 
L 488.384065 55.438121 
L 489.81127 56.552753 
L 491.238474 56.115767 
L 492.665678 56.654333 
L 494.092883 57.563966 
L 496.947292 58.312606 
L 498.374496 58.509337 
L 499.8017 57.807467 
L 501.228905 57.620177 
L 502.656109 58.220928 
L 504.083313 57.810974 
L 505.510518 57.044234 
L 506.937722 60.503063 
L 508.364927 60.027639 
L 509.792131 58.166052 
L 511.219335 57.647999 
L 512.64654 57.481333 
L 514.073744 56.618018 
L 515.500948 55.245443 
L 516.928153 57.502443 
L 518.355357 55.992487 
L 519.782562 53.802813 
L 521.209766 55.413849 
L 522.63697 56.638673 
L 524.064175 54.324381 
L 525.491379 53.506072 
L 526.918583 55.066111 
L 528.345788 54.801038 
L 529.772992 55.255714 
L 531.200197 56.932615 
L 532.627401 57.030074 
L 534.054605 58.019071 
L 535.48181 59.668018 
L 536.909014 61.758029 
L 538.336218 61.759899 
L 539.763423 60.672625 
L 541.190627 60.157289 
L 542.617832 59.253833 
L 544.045036 56.680663 
L 545.47224 57.486265 
L 546.899445 56.844911 
L 548.326649 56.42255 
L 549.753853 56.340303 
L 551.181058 54.68707 
L 552.608262 56.717148 
L 554.035467 56.216597 
L 555.462671 55.037979 
L 556.889875 53.32883 
L 558.31708 51.402475 
L 559.744284 53.456137 
L 561.171488 54.726504 
L 562.598693 55.190131 
L 564.025897 55.472269 
L 565.453102 54.557221 
L 566.880306 54.993242 
L 568.30751 55.83376 
L 569.734715 55.62963 
L 571.161919 54.983164 
L 572.589123 55.453861 
L 574.016328 57.468525 
L 575.443532 56.562428 
L 576.870737 55.25677 
L 579.725145 57.098183 
L 581.15235 56.705442 
L 582.579554 57.858444 
L 584.006758 60.56316 
L 585.433963 60.779603 
L 586.861167 59.661333 
L 588.288371 61.414549 
L 589.715576 60.654903 
L 591.14278 59.369186 
L 592.569985 58.917874 
L 593.997189 58.831107 
L 595.424393 59.362961 
L 596.851598 60.648185 
L 598.278802 60.116606 
L 599.706006 58.709543 
L 601.133211 60.172185 
L 602.560415 60.644129 
L 603.98762 62.014074 
L 605.414824 61.692119 
L 606.842028 62.247877 
L 608.269233 61.564133 
L 609.696437 62.786028 
L 611.123641 62.655163 
L 612.550846 63.130946 
L 613.97805 63.301977 
L 615.405255 62.556028 
L 616.832459 62.95202 
L 618.259663 62.689086 
L 619.686868 63.362832 
L 621.114072 61.17005 
L 622.541276 61.093785 
L 623.968481 60.26917 
L 625.395685 60.55242 
L 628.250094 62.830714 
L 629.677298 62.509308 
L 631.104503 63.590877 
L 632.531707 62.414485 
L 633.958911 62.009599 
L 635.386116 63.102738 
L 636.81332 61.973069 
L 638.240525 62.989403 
L 639.667729 62.228547 
L 641.094933 62.704948 
L 642.522138 61.744951 
L 643.949342 63.624143 
L 645.376546 63.65755 
L 646.803751 64.780658 
L 648.230955 63.583792 
L 651.085364 63.061257 
L 652.512568 63.767286 
L 653.939773 63.579302 
L 653.939773 63.579302 
" clip-path="url(#p0e5e221c2e)" style="fill: none; stroke: #9b8ac9; stroke-width: 1.2; stroke-linecap: square"/>
   </g>
   <g id="patch_3">
    <path d="M 56.0125 349.8636 
L 56.0125 34.5036 
" style="fill: none; stroke: #000000; stroke-width: 0.8; stroke-linejoin: miter; stroke-linecap: square"/>
   </g>
   <g id="patch_4">
    <path d="M 682.4125 349.8636 
L 682.4125 34.5036 
" style="fill: none; stroke: #000000; stroke-width: 0.8; stroke-linejoin: miter; stroke-linecap: square"/>
   </g>
   <g id="patch_5">
    <path d="M 56.0125 349.8636 
L 682.4125 349.8636 
" style="fill: none; stroke: #000000; stroke-width: 0.8; stroke-linejoin: miter; stroke-linecap: square"/>
   </g>
   <g id="patch_6">
    <path d="M 56.0125 34.5036 
L 682.4125 34.5036 
" style="fill: none; stroke: #000000; stroke-width: 0.8; stroke-linejoin: miter; stroke-linecap: square"/>
   </g>
   <g id="legend_1">
    <g id="patch_7">
     <path d="M 56.0125 31.35 
L 682.4125 31.35 
L 682.4125 7.2 
L 56.0125 7.2 
z
" style="fill: #ffffff; stroke: #808080; stroke-width: 0.8; stroke-linejoin: miter"/>
    </g>
    <g id="line2d_36">
     <path d="M 62.3125 18.4 
L 76.3125 18.4 
L 90.3125 18.4 
" style="fill: none; stroke: #1f77b4; stroke-width: 1.2; stroke-linecap: square"/>
    </g>
    <g id="text_18">
     <!-- DDPG -->
     <g transform="translate(98.7125 23.3) scale(0.14 -0.14)">
      <defs>
       <path id="SimHei-44" d="M 2925 2250 
Q 2925 1100 2437 612 
Q 1950 125 1125 125 
L 275 125 
L 275 4400 
L 1125 4400 
Q 2050 4400 2487 3900 
Q 2925 3400 2925 2250 
z
M 2325 2250 
Q 2325 3175 2025 3550 
Q 1725 3925 1125 3925 
L 850 3925 
L 850 600 
L 1125 600 
Q 1725 600 2025 962 
Q 2325 1325 2325 2250 
z
" transform="scale(0.015625)"/>
       <path id="SimHei-50" d="M 2950 3100 
Q 2950 2500 2600 2150 
Q 2250 1800 1625 1800 
L 900 1800 
L 900 125 
L 325 125 
L 325 4400 
L 1625 4400 
Q 2250 4400 2600 4050 
Q 2950 3700 2950 3100 
z
M 2375 3100 
Q 2375 3575 2150 3750 
Q 1925 3925 1475 3925 
L 900 3925 
L 900 2275 
L 1475 2275 
Q 1925 2275 2150 2450 
Q 2375 2625 2375 3100 
z
" transform="scale(0.015625)"/>
       <path id="SimHei-47" d="M 2850 75 
L 2425 75 
L 2350 425 
Q 2250 275 2037 175 
Q 1825 75 1575 75 
Q 1050 75 637 562 
Q 225 1050 225 2125 
Q 225 3300 600 3875 
Q 975 4450 1625 4450 
Q 2200 4450 2525 4025 
Q 2850 3600 2850 2925 
L 2300 2925 
Q 2300 3450 2125 3712 
Q 1950 3975 1625 3975 
Q 1225 3975 1025 3562 
Q 825 3150 825 2175 
Q 825 1250 1075 900 
Q 1325 550 1650 550 
Q 1975 550 2162 787 
Q 2350 1025 2350 1525 
L 2350 1800 
L 1575 1800 
L 1575 2275 
L 2850 2275 
L 2850 75 
z
" transform="scale(0.015625)"/>
      </defs>
      <use xlink:href="#SimHei-44"/>
      <use xlink:href="#SimHei-44" transform="translate(50 0)"/>
      <use xlink:href="#SimHei-50" transform="translate(100 0)"/>
      <use xlink:href="#SimHei-47" transform="translate(150 0)"/>
     </g>
    </g>
    <g id="line2d_37">
     <path d="M 192.6625 18.4 
L 206.6625 18.4 
L 220.6625 18.4 
" style="fill: none; stroke: #ff7f0e; stroke-width: 1.2; stroke-linecap: square"/>
    </g>
    <g id="text_19">
     <!-- PPO -->
     <g transform="translate(229.0625 23.3) scale(0.14 -0.14)">
      <defs>
       <path id="SimHei-4f" d="M 2950 2275 
Q 2950 1100 2587 587 
Q 2225 75 1575 75 
Q 925 75 550 587 
Q 175 1100 175 2275 
Q 175 3450 550 3950 
Q 925 4450 1575 4450 
Q 2225 4450 2587 3950 
Q 2950 3450 2950 2275 
z
M 2350 2275 
Q 2350 3325 2125 3650 
Q 1900 3975 1575 3975 
Q 1250 3975 1012 3650 
Q 775 3325 775 2275 
Q 775 1225 1012 887 
Q 1250 550 1575 550 
Q 1900 550 2125 887 
Q 2350 1225 2350 2275 
z
" transform="scale(0.015625)"/>
      </defs>
      <use xlink:href="#SimHei-50"/>
      <use xlink:href="#SimHei-50" transform="translate(50 0)"/>
      <use xlink:href="#SimHei-4f" transform="translate(100 0)"/>
     </g>
    </g>
    <g id="line2d_38">
     <path d="M 316.0125 18.4 
L 330.0125 18.4 
L 344.0125 18.4 
" style="fill: none; stroke: #2ca02c; stroke-width: 1.2; stroke-linecap: square"/>
    </g>
    <g id="text_20">
     <!-- TD3 -->
     <g transform="translate(352.4125 23.3) scale(0.14 -0.14)">
      <use xlink:href="#SimHei-54"/>
      <use xlink:href="#SimHei-44" transform="translate(50 0)"/>
      <use xlink:href="#SimHei-33" transform="translate(100 0)"/>
     </g>
    </g>
    <g id="line2d_39">
     <path d="M 439.3625 18.4 
L 453.3625 18.4 
L 467.3625 18.4 
" style="fill: none; stroke: #d62728; stroke-width: 1.2; stroke-linecap: square"/>
    </g>
    <g id="text_21">
     <!-- GCN-DDQN -->
     <g transform="translate(475.7625 23.3) scale(0.14 -0.14)">
      <defs>
       <path id="SimHei-43" d="M 2975 1825 
Q 2950 875 2575 475 
Q 2200 75 1675 75 
Q 1075 75 650 562 
Q 225 1050 225 2125 
Q 225 3300 637 3875 
Q 1050 4450 1700 4450 
Q 2250 4450 2612 4037 
Q 2975 3625 2950 2875 
L 2400 2875 
Q 2400 3425 2225 3700 
Q 2050 3975 1700 3975 
Q 1300 3975 1062 3562 
Q 825 3150 825 2175 
Q 825 1275 1062 912 
Q 1300 550 1675 550 
Q 1950 550 2175 812 
Q 2400 1075 2400 1825 
L 2975 1825 
z
" transform="scale(0.015625)"/>
       <path id="SimHei-4e" d="M 2850 125 
L 2225 125 
L 850 3225 
L 825 3225 
L 825 125 
L 250 125 
L 250 4400 
L 875 4400 
L 2250 1300 
L 2275 1300 
L 2275 4400 
L 2850 4400 
L 2850 125 
z
" transform="scale(0.015625)"/>
       <path id="SimHei-2d" d="M 2975 2125 
L 125 2125 
L 125 2525 
L 2975 2525 
L 2975 2125 
z
" transform="scale(0.015625)"/>
       <path id="SimHei-51" d="M 2950 2275 
Q 2950 1675 2862 1262 
Q 2775 850 2575 600 
L 2775 225 
L 2375 -200 
L 2150 225 
Q 2050 150 1900 112 
Q 1750 75 1575 75 
Q 925 75 550 587 
Q 175 1100 175 2275 
Q 175 3450 550 3950 
Q 925 4450 1575 4450 
Q 2225 4450 2587 3950 
Q 2950 3450 2950 2275 
z
M 2350 2275 
Q 2350 3325 2125 3650 
Q 1900 3975 1575 3975 
Q 1250 3975 1012 3650 
Q 775 3325 775 2275 
Q 775 1225 1012 887 
Q 1250 550 1575 550 
Q 1700 550 1800 587 
Q 1900 625 1950 675 
L 1550 1450 
L 1900 1875 
L 2250 1200 
Q 2300 1450 2325 1650 
Q 2350 1850 2350 2275 
z
" transform="scale(0.015625)"/>
      </defs>
      <use xlink:href="#SimHei-47"/>
      <use xlink:href="#SimHei-43" transform="translate(50 0)"/>
      <use xlink:href="#SimHei-4e" transform="translate(100 0)"/>
      <use xlink:href="#SimHei-2d" transform="translate(150 0)"/>
      <use xlink:href="#SimHei-44" transform="translate(200 0)"/>
      <use xlink:href="#SimHei-44" transform="translate(250 0)"/>
      <use xlink:href="#SimHei-51" transform="translate(300 0)"/>
      <use xlink:href="#SimHei-4e" transform="translate(350 0)"/>
     </g>
    </g>
    <g id="line2d_40">
     <path d="M 597.7125 18.4 
L 611.7125 18.4 
L 625.7125 18.4 
" style="fill: none; stroke: #9b8ac9; stroke-width: 1.2; stroke-linecap: square"/>
    </g>
    <g id="text_22">
     <!-- GLDVTO -->
     <g transform="translate(634.1125 23.3) scale(0.14 -0.14)">
      <defs>
       <path id="SimHei-4c" d="M 2900 125 
L 300 125 
L 300 4400 
L 875 4400 
L 875 600 
L 2900 600 
L 2900 125 
z
" transform="scale(0.015625)"/>
       <path id="SimHei-56" d="M 3050 4400 
L 1800 75 
L 1300 75 
L 50 4400 
L 650 4400 
L 1525 1125 
L 1575 1125 
L 2450 4400 
L 3050 4400 
z
" transform="scale(0.015625)"/>
      </defs>
      <use xlink:href="#SimHei-47"/>
      <use xlink:href="#SimHei-4c" transform="translate(50 0)"/>
      <use xlink:href="#SimHei-44" transform="translate(100 0)"/>
      <use xlink:href="#SimHei-56" transform="translate(150 0)"/>
      <use xlink:href="#SimHei-54" transform="translate(200 0)"/>
      <use xlink:href="#SimHei-4f" transform="translate(250 0)"/>
     </g>
    </g>
   </g>
  </g>
 </g>
 <defs>
  <clipPath id="p0e5e221c2e">
   <rect x="56.0125" y="34.5036" width="626.4" height="315.36"/>
  </clipPath>
 </defs>
</svg>
