<?xml version="1.0" encoding="utf-8" standalone="no"?>
<!DOCTYPE svg PUBLIC "-//W3C//DTD SVG 1.1//EN"
  "http://www.w3.org/Graphics/SVG/1.1/DTD/svg11.dtd">
<svg xmlns:xlink="http://www.w3.org/1999/xlink" width="683.6125pt" height="391.6261pt" viewBox="0 0 683.6125 391.6261" xmlns="http://www.w3.org/2000/svg" version="1.1">
 <metadata>
  <rdf:RDF xmlns:dc="http://purl.org/dc/elements/1.1/" xmlns:cc="http://creativecommons.org/ns#" xmlns:rdf="http://www.w3.org/1999/02/22-rdf-syntax-ns#">
   <cc:Work>
    <dc:type rdf:resource="http://purl.org/dc/dcmitype/StillImage"/>
    <dc:date>2026-07-08T23:32:07.709410</dc:date>
    <dc:format>image/svg+xml</dc:format>
    <dc:creator>
     <cc:Agent>
      <dc:title>Matplotlib v3.10.7, https://matplotlib.org/</dc:title>
     </cc:Agent>
    </dc:creator>
   </cc:Work>
  </rdf:RDF>
 </metadata>
 <defs>
  <style type="text/css">*{stroke-linejoin: round; stroke-linecap: butt}</style>
 </defs>
 <g id="figure_1">
  <g id="patch_1">
   <path d="M 0 391.6261 
L 683.6125 391.6261 
L 683.6125 0 
L 0 0 
z
" style="fill: #ffffff"/>
  </g>
  <g id="axes_1">
   <g id="patch_2">
    <path d="M 50.0125 349.8636 
L 676.4125 349.8636 
L 676.4125 34.5036 
L 50.0125 34.5036 
z
" style="fill: #ffffff"/>
   </g>
   <g id="matplotlib.axis_1">
    <g id="xtick_1">
     <g id="line2d_1">
      <path d="M 78.485227 349.8636 
L 78.485227 34.5036 
" clip-path="url(#p798c09ab92)" style="fill: none; stroke-dasharray: 2.22,0.96; stroke-dashoffset: 0; stroke: #b0b0b0; stroke-opacity: 0.25; stroke-width: 0.6"/>
     </g>
     <g id="line2d_2">
      <defs>
       <path id="m595fc7f629" d="M 0 0 
L 0 3.5 
" style="stroke: #000000; stroke-width: 0.8"/>
      </defs>
      <g>
       <use xlink:href="#m595fc7f629" x="78.485227" y="349.8636" style="stroke: #000000; stroke-width: 0.8"/>
      </g>
     </g>
     <g id="text_1">
      <!-- 0 -->
      <g transform="translate(75.485227 365.1136) scale(0.12 -0.12)">
       <defs>
        <path id="SimHei-30" d="M 225 2537 
Q 250 3200 412 3587 
Q 575 3975 875 4225 
Q 1175 4475 1612 4475 
Q 2050 4475 2375 4112 
Q 2700 3750 2800 3200 
Q 2900 2650 2862 1937 
Q 2825 1225 2612 775 
Q 2400 325 1975 150 
Q 1550 -25 1125 187 
Q 700 400 525 750 
Q 350 1100 275 1487 
Q 200 1875 225 2537 
z
M 750 2687 
Q 675 2000 800 1462 
Q 925 925 1212 700 
Q 1500 475 1800 612 
Q 2100 750 2237 1162 
Q 2375 1575 2375 2062 
Q 2375 2550 2337 2950 
Q 2300 3350 2112 3675 
Q 1925 4000 1612 4012 
Q 1300 4025 1062 3700 
Q 825 3375 750 2687 
z
" transform="scale(0.015625)"/>
       </defs>
       <use xlink:href="#SimHei-30"/>
      </g>
     </g>
    </g>
    <g id="xtick_2">
     <g id="line2d_3">
      <path d="M 149.845446 349.8636 
L 149.845446 34.5036 
" clip-path="url(#p798c09ab92)" style="fill: none; stroke-dasharray: 2.22,0.96; stroke-dashoffset: 0; stroke: #b0b0b0; stroke-opacity: 0.25; stroke-width: 0.6"/>
     </g>
     <g id="line2d_4">
      <g>
       <use xlink:href="#m595fc7f629" x="149.845446" y="349.8636" style="stroke: #000000; stroke-width: 0.8"/>
      </g>
     </g>
     <g id="text_2">
      <!-- 50 -->
      <g transform="translate(143.845446 365.1136) scale(0.12 -0.12)">
       <defs>
        <path id="SimHei-35" d="M 550 1325 
Q 725 650 1150 575 
Q 1575 500 1837 662 
Q 2100 825 2212 1087 
Q 2325 1350 2312 1675 
Q 2300 2000 2137 2225 
Q 1975 2450 1725 2525 
Q 1475 2600 1162 2525 
Q 850 2450 650 2175 
L 225 2225 
Q 275 2375 700 4375 
L 2675 4375 
L 2675 3925 
L 1075 3925 
Q 950 3250 825 2850 
Q 1200 3025 1525 3012 
Q 1850 3000 2150 2862 
Q 2450 2725 2587 2487 
Q 2725 2250 2787 2012 
Q 2850 1775 2837 1500 
Q 2825 1225 2725 937 
Q 2625 650 2425 462 
Q 2225 275 1937 162 
Q 1650 50 1275 75 
Q 900 100 562 350 
Q 225 600 100 1200 
L 550 1325 
z
" transform="scale(0.015625)"/>
       </defs>
       <use xlink:href="#SimHei-35"/>
       <use xlink:href="#SimHei-30" transform="translate(50 0)"/>
      </g>
     </g>
    </g>
    <g id="xtick_3">
     <g id="line2d_5">
      <path d="M 221.205665 349.8636 
L 221.205665 34.5036 
" clip-path="url(#p798c09ab92)" style="fill: none; stroke-dasharray: 2.22,0.96; stroke-dashoffset: 0; stroke: #b0b0b0; stroke-opacity: 0.25; stroke-width: 0.6"/>
     </g>
     <g id="line2d_6">
      <g>
       <use xlink:href="#m595fc7f629" x="221.205665" y="349.8636" style="stroke: #000000; stroke-width: 0.8"/>
      </g>
     </g>
     <g id="text_3">
      <!-- 100 -->
      <g transform="translate(212.205665 365.1136) scale(0.12 -0.12)">
       <defs>
        <path id="SimHei-31" d="M 1400 3600 
Q 1075 3275 575 2975 
L 575 3450 
Q 1200 3875 1600 4450 
L 1900 4450 
L 1900 150 
L 1400 150 
L 1400 3600 
z
" transform="scale(0.015625)"/>
       </defs>
       <use xlink:href="#SimHei-31"/>
       <use xlink:href="#SimHei-30" transform="translate(50 0)"/>
       <use xlink:href="#SimHei-30" transform="translate(100 0)"/>
      </g>
     </g>
    </g>
    <g id="xtick_4">
     <g id="line2d_7">
      <path d="M 292.565883 349.8636 
L 292.565883 34.5036 
" clip-path="url(#p798c09ab92)" style="fill: none; stroke-dasharray: 2.22,0.96; stroke-dashoffset: 0; stroke: #b0b0b0; stroke-opacity: 0.25; stroke-width: 0.6"/>
     </g>
     <g id="line2d_8">
      <g>
       <use xlink:href="#m595fc7f629" x="292.565883" y="349.8636" style="stroke: #000000; stroke-width: 0.8"/>
      </g>
     </g>
     <g id="text_4">
      <!-- 150 -->
      <g transform="translate(283.565883 365.1136) scale(0.12 -0.12)">
       <use xlink:href="#SimHei-31"/>
       <use xlink:href="#SimHei-35" transform="translate(50 0)"/>
       <use xlink:href="#SimHei-30" transform="translate(100 0)"/>
      </g>
     </g>
    </g>
    <g id="xtick_5">
     <g id="line2d_9">
      <path d="M 363.926102 349.8636 
L 363.926102 34.5036 
" clip-path="url(#p798c09ab92)" style="fill: none; stroke-dasharray: 2.22,0.96; stroke-dashoffset: 0; stroke: #b0b0b0; stroke-opacity: 0.25; stroke-width: 0.6"/>
     </g>
     <g id="line2d_10">
      <g>
       <use xlink:href="#m595fc7f629" x="363.926102" y="349.8636" style="stroke: #000000; stroke-width: 0.8"/>
      </g>
     </g>
     <g id="text_5">
      <!-- 200 -->
      <g transform="translate(354.926102 365.1136) scale(0.12 -0.12)">
       <defs>
        <path id="SimHei-32" d="M 300 250 
Q 325 625 650 925 
Q 975 1225 1475 1862 
Q 1975 2500 2125 2850 
Q 2275 3200 2237 3450 
Q 2200 3700 2000 3862 
Q 1800 4025 1537 4000 
Q 1275 3975 1037 3800 
Q 800 3625 675 3275 
L 200 3350 
Q 400 3925 712 4187 
Q 1025 4450 1450 4475 
Q 1700 4500 1900 4462 
Q 2100 4425 2312 4287 
Q 2525 4150 2662 3875 
Q 2800 3600 2762 3212 
Q 2725 2825 2375 2287 
Q 2025 1750 1025 600 
L 2825 600 
L 2825 150 
L 300 150 
L 300 250 
z
" transform="scale(0.015625)"/>
       </defs>
       <use xlink:href="#SimHei-32"/>
       <use xlink:href="#SimHei-30" transform="translate(50 0)"/>
       <use xlink:href="#SimHei-30" transform="translate(100 0)"/>
      </g>
     </g>
    </g>
    <g id="xtick_6">
     <g id="line2d_11">
      <path d="M 435.286321 349.8636 
L 435.286321 34.5036 
" clip-path="url(#p798c09ab92)" style="fill: none; stroke-dasharray: 2.22,0.96; stroke-dashoffset: 0; stroke: #b0b0b0; stroke-opacity: 0.25; stroke-width: 0.6"/>
     </g>
     <g id="line2d_12">
      <g>
       <use xlink:href="#m595fc7f629" x="435.286321" y="349.8636" style="stroke: #000000; stroke-width: 0.8"/>
      </g>
     </g>
     <g id="text_6">
      <!-- 250 -->
      <g transform="translate(426.286321 365.1136) scale(0.12 -0.12)">
       <use xlink:href="#SimHei-32"/>
       <use xlink:href="#SimHei-35" transform="translate(50 0)"/>
       <use xlink:href="#SimHei-30" transform="translate(100 0)"/>
      </g>
     </g>
    </g>
    <g id="xtick_7">
     <g id="line2d_13">
      <path d="M 506.64654 349.8636 
L 506.64654 34.5036 
" clip-path="url(#p798c09ab92)" style="fill: none; stroke-dasharray: 2.22,0.96; stroke-dashoffset: 0; stroke: #b0b0b0; stroke-opacity: 0.25; stroke-width: 0.6"/>
     </g>
     <g id="line2d_14">
      <g>
       <use xlink:href="#m595fc7f629" x="506.64654" y="349.8636" style="stroke: #000000; stroke-width: 0.8"/>
      </g>
     </g>
     <g id="text_7">
      <!-- 300 -->
      <g transform="translate(497.64654 365.1136) scale(0.12 -0.12)">
       <defs>
        <path id="SimHei-33" d="M 250 1225 
L 700 1300 
Q 800 975 1025 762 
Q 1250 550 1587 562 
Q 1925 575 2125 837 
Q 2325 1100 2300 1437 
Q 2275 1775 2037 1962 
Q 1800 2150 1275 2225 
L 1275 2550 
Q 1800 2600 2037 2825 
Q 2275 3050 2250 3412 
Q 2225 3775 1925 3937 
Q 1625 4100 1287 3975 
Q 950 3850 750 3275 
L 300 3350 
Q 450 3800 712 4100 
Q 975 4400 1425 4450 
Q 1875 4500 2212 4337 
Q 2550 4175 2687 3837 
Q 2825 3500 2725 3100 
Q 2625 2700 2150 2400 
Q 2500 2250 2687 1950 
Q 2875 1650 2812 1162 
Q 2750 675 2375 375 
Q 2000 75 1525 87 
Q 1050 100 700 387 
Q 350 675 250 1225 
z
" transform="scale(0.015625)"/>
       </defs>
       <use xlink:href="#SimHei-33"/>
       <use xlink:href="#SimHei-30" transform="translate(50 0)"/>
       <use xlink:href="#SimHei-30" transform="translate(100 0)"/>
      </g>
     </g>
    </g>
    <g id="xtick_8">
     <g id="line2d_15">
      <path d="M 578.006758 349.8636 
L 578.006758 34.5036 
" clip-path="url(#p798c09ab92)" style="fill: none; stroke-dasharray: 2.22,0.96; stroke-dashoffset: 0; stroke: #b0b0b0; stroke-opacity: 0.25; stroke-width: 0.6"/>
     </g>
     <g id="line2d_16">
      <g>
       <use xlink:href="#m595fc7f629" x="578.006758" y="349.8636" style="stroke: #000000; stroke-width: 0.8"/>
      </g>
     </g>
     <g id="text_8">
      <!-- 350 -->
      <g transform="translate(569.006758 365.1136) scale(0.12 -0.12)">
       <use xlink:href="#SimHei-33"/>
       <use xlink:href="#SimHei-35" transform="translate(50 0)"/>
       <use xlink:href="#SimHei-30" transform="translate(100 0)"/>
      </g>
     </g>
    </g>
    <g id="xtick_9">
     <g id="line2d_17">
      <path d="M 649.366977 349.8636 
L 649.366977 34.5036 
" clip-path="url(#p798c09ab92)" style="fill: none; stroke-dasharray: 2.22,0.96; stroke-dashoffset: 0; stroke: #b0b0b0; stroke-opacity: 0.25; stroke-width: 0.6"/>
     </g>
     <g id="line2d_18">
      <g>
       <use xlink:href="#m595fc7f629" x="649.366977" y="349.8636" style="stroke: #000000; stroke-width: 0.8"/>
      </g>
     </g>
     <g id="text_9">
      <!-- 400 -->
      <g transform="translate(640.366977 365.1136) scale(0.12 -0.12)">
       <defs>
        <path id="SimHei-34" d="M 2000 1100 
L 75 1100 
L 75 1525 
L 2100 4450 
L 2475 4450 
L 2475 1525 
L 3075 1525 
L 3075 1100 
L 2475 1100 
L 2475 150 
L 2000 150 
L 2000 1100 
z
M 2000 1525 
L 2000 3500 
L 600 1525 
L 2000 1525 
z
" transform="scale(0.015625)"/>
       </defs>
       <use xlink:href="#SimHei-34"/>
       <use xlink:href="#SimHei-30" transform="translate(50 0)"/>
       <use xlink:href="#SimHei-30" transform="translate(100 0)"/>
      </g>
     </g>
    </g>
    <g id="text_10">
     <!-- Episode -->
     <g transform="translate(333.4625 382.3011) scale(0.17 -0.17)">
      <defs>
       <path id="SimHei-45" d="M 2900 125 
L 350 125 
L 350 4400 
L 2775 4400 
L 2775 3925 
L 925 3925 
L 925 2600 
L 2625 2600 
L 2625 2125 
L 925 2125 
L 925 600 
L 2900 600 
L 2900 125 
z
" transform="scale(0.015625)"/>
       <path id="SimHei-70" d="M 2825 1525 
Q 2825 800 2475 425 
Q 2125 50 1625 50 
Q 1350 50 1150 162 
Q 950 275 800 500 
L 800 -800 
L 300 -800 
L 300 2925 
L 800 2925 
L 800 2550 
Q 950 2775 1150 2875 
Q 1350 2975 1625 2975 
Q 2125 2975 2475 2612 
Q 2825 2250 2825 1525 
z
M 2275 1525 
Q 2275 2000 2087 2262 
Q 1900 2525 1525 2525 
Q 1225 2525 1012 2262 
Q 800 2000 800 1525 
Q 800 1050 1012 775 
Q 1225 500 1525 500 
Q 1900 500 2087 775 
Q 2275 1050 2275 1525 
z
" transform="scale(0.015625)"/>
       <path id="SimHei-69" d="M 1800 3725 
L 1300 3725 
L 1300 4375 
L 1800 4375 
L 1800 3725 
z
M 1800 125 
L 1300 125 
L 1300 2925 
L 1800 2925 
L 1800 125 
z
" transform="scale(0.015625)"/>
       <path id="SimHei-73" d="M 2750 900 
Q 2750 500 2437 287 
Q 2125 75 1650 75 
Q 1050 75 725 312 
Q 400 550 400 1000 
L 900 1000 
Q 900 700 1112 600 
Q 1325 500 1625 500 
Q 1925 500 2075 612 
Q 2225 725 2225 900 
Q 2225 1025 2100 1150 
Q 1975 1275 1475 1350 
Q 900 1425 687 1637 
Q 475 1850 475 2200 
Q 475 2500 762 2737 
Q 1050 2975 1600 2975 
Q 2100 2975 2387 2750 
Q 2675 2525 2675 2150 
L 2175 2150 
Q 2175 2375 2012 2462 
Q 1850 2550 1600 2550 
Q 1275 2550 1137 2437 
Q 1000 2325 1000 2175 
Q 1000 2000 1125 1900 
Q 1250 1800 1650 1750 
Q 2300 1650 2525 1437 
Q 2750 1225 2750 900 
z
" transform="scale(0.015625)"/>
       <path id="SimHei-6f" d="M 2925 1525 
Q 2925 875 2525 475 
Q 2125 75 1575 75 
Q 1025 75 625 475 
Q 225 875 225 1525 
Q 225 2175 625 2575 
Q 1025 2975 1575 2975 
Q 2125 2975 2525 2575 
Q 2925 2175 2925 1525 
z
M 2375 1525 
Q 2375 2025 2125 2275 
Q 1875 2525 1575 2525 
Q 1275 2525 1025 2275 
Q 775 2025 775 1525 
Q 775 1025 1025 775 
Q 1275 525 1575 525 
Q 1875 525 2125 775 
Q 2375 1025 2375 1525 
z
" transform="scale(0.015625)"/>
       <path id="SimHei-64" d="M 2750 125 
L 2250 125 
L 2250 500 
Q 2100 275 1900 175 
Q 1700 75 1425 75 
Q 925 75 575 437 
Q 225 800 225 1525 
Q 225 2250 575 2625 
Q 925 3000 1425 3000 
Q 1700 3000 1900 2887 
Q 2100 2775 2250 2550 
L 2250 4400 
L 2750 4400 
L 2750 125 
z
M 2250 1525 
Q 2250 2000 2037 2275 
Q 1825 2550 1525 2550 
Q 1150 2550 962 2275 
Q 775 2000 775 1525 
Q 775 1050 962 787 
Q 1150 525 1525 525 
Q 1825 525 2037 787 
Q 2250 1050 2250 1525 
z
" transform="scale(0.015625)"/>
       <path id="SimHei-65" d="M 2850 1075 
Q 2800 625 2450 350 
Q 2100 75 1625 75 
Q 1025 75 637 462 
Q 250 850 250 1525 
Q 250 2200 637 2587 
Q 1025 2975 1625 2975 
Q 2150 2975 2487 2637 
Q 2825 2300 2825 1525 
L 800 1525 
Q 800 975 1037 750 
Q 1275 525 1625 525 
Q 1900 525 2075 662 
Q 2250 800 2300 1075 
L 2850 1075 
z
M 2250 1925 
Q 2200 2275 2025 2412 
Q 1850 2550 1575 2550 
Q 1325 2550 1125 2412 
Q 925 2275 825 1925 
L 2250 1925 
z
" transform="scale(0.015625)"/>
      </defs>
      <use xlink:href="#SimHei-45"/>
      <use xlink:href="#SimHei-70" transform="translate(50 0)"/>
      <use xlink:href="#SimHei-69" transform="translate(100 0)"/>
      <use xlink:href="#SimHei-73" transform="translate(150 0)"/>
      <use xlink:href="#SimHei-6f" transform="translate(200 0)"/>
      <use xlink:href="#SimHei-64" transform="translate(250 0)"/>
      <use xlink:href="#SimHei-65" transform="translate(300 0)"/>
     </g>
    </g>
   </g>
   <g id="matplotlib.axis_2">
    <g id="ytick_1">
     <g id="line2d_19">
      <path d="M 50.0125 311.827239 
L 676.4125 311.827239 
" clip-path="url(#p798c09ab92)" style="fill: none; stroke-dasharray: 2.22,0.96; stroke-dashoffset: 0; stroke: #b0b0b0; stroke-opacity: 0.25; stroke-width: 0.6"/>
     </g>
     <g id="line2d_20">
      <defs>
       <path id="m2aee06d91f" d="M 0 0 
L -3.5 0 
" style="stroke: #000000; stroke-width: 0.8"/>
      </defs>
      <g>
       <use xlink:href="#m2aee06d91f" x="50.0125" y="311.827239" style="stroke: #000000; stroke-width: 0.8"/>
      </g>
     </g>
     <g id="text_11">
      <!-- 1.0 -->
      <g transform="translate(25.0125 315.952239) scale(0.12 -0.12)">
       <defs>
        <path id="SimHei-2e" d="M 1075 125 
L 500 125 
L 500 675 
L 1075 675 
L 1075 125 
z
" transform="scale(0.015625)"/>
       </defs>
       <use xlink:href="#SimHei-31"/>
       <use xlink:href="#SimHei-2e" transform="translate(50 0)"/>
       <use xlink:href="#SimHei-30" transform="translate(100 0)"/>
      </g>
     </g>
    </g>
    <g id="ytick_2">
     <g id="line2d_21">
      <path d="M 50.0125 269.772246 
L 676.4125 269.772246 
" clip-path="url(#p798c09ab92)" style="fill: none; stroke-dasharray: 2.22,0.96; stroke-dashoffset: 0; stroke: #b0b0b0; stroke-opacity: 0.25; stroke-width: 0.6"/>
     </g>
     <g id="line2d_22">
      <g>
       <use xlink:href="#m2aee06d91f" x="50.0125" y="269.772246" style="stroke: #000000; stroke-width: 0.8"/>
      </g>
     </g>
     <g id="text_12">
      <!-- 1.5 -->
      <g transform="translate(25.0125 273.897246) scale(0.12 -0.12)">
       <use xlink:href="#SimHei-31"/>
       <use xlink:href="#SimHei-2e" transform="translate(50 0)"/>
       <use xlink:href="#SimHei-35" transform="translate(100 0)"/>
      </g>
     </g>
    </g>
    <g id="ytick_3">
     <g id="line2d_23">
      <path d="M 50.0125 227.717252 
L 676.4125 227.717252 
" clip-path="url(#p798c09ab92)" style="fill: none; stroke-dasharray: 2.22,0.96; stroke-dashoffset: 0; stroke: #b0b0b0; stroke-opacity: 0.25; stroke-width: 0.6"/>
     </g>
     <g id="line2d_24">
      <g>
       <use xlink:href="#m2aee06d91f" x="50.0125" y="227.717252" style="stroke: #000000; stroke-width: 0.8"/>
      </g>
     </g>
     <g id="text_13">
      <!-- 2.0 -->
      <g transform="translate(25.0125 231.842252) scale(0.12 -0.12)">
       <use xlink:href="#SimHei-32"/>
       <use xlink:href="#SimHei-2e" transform="translate(50 0)"/>
       <use xlink:href="#SimHei-30" transform="translate(100 0)"/>
      </g>
     </g>
    </g>
    <g id="ytick_4">
     <g id="line2d_25">
      <path d="M 50.0125 185.662258 
L 676.4125 185.662258 
" clip-path="url(#p798c09ab92)" style="fill: none; stroke-dasharray: 2.22,0.96; stroke-dashoffset: 0; stroke: #b0b0b0; stroke-opacity: 0.25; stroke-width: 0.6"/>
     </g>
     <g id="line2d_26">
      <g>
       <use xlink:href="#m2aee06d91f" x="50.0125" y="185.662258" style="stroke: #000000; stroke-width: 0.8"/>
      </g>
     </g>
     <g id="text_14">
      <!-- 2.5 -->
      <g transform="translate(25.0125 189.787258) scale(0.12 -0.12)">
       <use xlink:href="#SimHei-32"/>
       <use xlink:href="#SimHei-2e" transform="translate(50 0)"/>
       <use xlink:href="#SimHei-35" transform="translate(100 0)"/>
      </g>
     </g>
    </g>
    <g id="ytick_5">
     <g id="line2d_27">
      <path d="M 50.0125 143.607264 
L 676.4125 143.607264 
" clip-path="url(#p798c09ab92)" style="fill: none; stroke-dasharray: 2.22,0.96; stroke-dashoffset: 0; stroke: #b0b0b0; stroke-opacity: 0.25; stroke-width: 0.6"/>
     </g>
     <g id="line2d_28">
      <g>
       <use xlink:href="#m2aee06d91f" x="50.0125" y="143.607264" style="stroke: #000000; stroke-width: 0.8"/>
      </g>
     </g>
     <g id="text_15">
      <!-- 3.0 -->
      <g transform="translate(25.0125 147.732264) scale(0.12 -0.12)">
       <use xlink:href="#SimHei-33"/>
       <use xlink:href="#SimHei-2e" transform="translate(50 0)"/>
       <use xlink:href="#SimHei-30" transform="translate(100 0)"/>
      </g>
     </g>
    </g>
    <g id="ytick_6">
     <g id="line2d_29">
      <path d="M 50.0125 101.552271 
L 676.4125 101.552271 
" clip-path="url(#p798c09ab92)" style="fill: none; stroke-dasharray: 2.22,0.96; stroke-dashoffset: 0; stroke: #b0b0b0; stroke-opacity: 0.25; stroke-width: 0.6"/>
     </g>
     <g id="line2d_30">
      <g>
       <use xlink:href="#m2aee06d91f" x="50.0125" y="101.552271" style="stroke: #000000; stroke-width: 0.8"/>
      </g>
     </g>
     <g id="text_16">
      <!-- 3.5 -->
      <g transform="translate(25.0125 105.677271) scale(0.12 -0.12)">
       <use xlink:href="#SimHei-33"/>
       <use xlink:href="#SimHei-2e" transform="translate(50 0)"/>
       <use xlink:href="#SimHei-35" transform="translate(100 0)"/>
      </g>
     </g>
    </g>
    <g id="ytick_7">
     <g id="line2d_31">
      <path d="M 50.0125 59.497277 
L 676.4125 59.497277 
" clip-path="url(#p798c09ab92)" style="fill: none; stroke-dasharray: 2.22,0.96; stroke-dashoffset: 0; stroke: #b0b0b0; stroke-opacity: 0.25; stroke-width: 0.6"/>
     </g>
     <g id="line2d_32">
      <g>
       <use xlink:href="#m2aee06d91f" x="50.0125" y="59.497277" style="stroke: #000000; stroke-width: 0.8"/>
      </g>
     </g>
     <g id="text_17">
      <!-- 4.0 -->
      <g transform="translate(25.0125 63.622277) scale(0.12 -0.12)">
       <use xlink:href="#SimHei-34"/>
       <use xlink:href="#SimHei-2e" transform="translate(50 0)"/>
       <use xlink:href="#SimHei-30" transform="translate(100 0)"/>
      </g>
     </g>
    </g>
    <g id="text_18">
     <!-- Total Task Energy -->
     <g transform="translate(18.8875 264.4336) rotate(-90) scale(0.17 -0.17)">
      <defs>
       <path id="SimHei-54" d="M 2850 3925 
L 1850 3925 
L 1850 125 
L 1275 125 
L 1275 3925 
L 275 3925 
L 275 4400 
L 2850 4400 
L 2850 3925 
z
" transform="scale(0.015625)"/>
       <path id="SimHei-74" d="M 2750 200 
Q 2625 150 2462 112 
Q 2300 75 2025 75 
Q 1575 75 1300 325 
Q 1025 575 1025 1025 
L 1025 2525 
L 175 2525 
L 175 2925 
L 1025 2925 
L 1025 3900 
L 1525 3900 
L 1525 2925 
L 2550 2925 
L 2550 2525 
L 1525 2525 
L 1525 1000 
Q 1525 800 1625 662 
Q 1725 525 2000 525 
Q 2275 525 2450 575 
Q 2625 625 2750 700 
L 2750 200 
z
" transform="scale(0.015625)"/>
       <path id="SimHei-61" d="M 2875 125 
L 2275 125 
Q 2225 175 2200 262 
Q 2175 350 2175 475 
Q 2000 275 1750 175 
Q 1500 75 1225 75 
Q 825 75 550 275 
Q 275 475 275 850 
Q 275 1225 525 1450 
Q 775 1675 1300 1750 
Q 1650 1800 1912 1875 
Q 2175 1950 2175 2075 
Q 2175 2225 2062 2375 
Q 1950 2525 1575 2525 
Q 1275 2525 1137 2412 
Q 1000 2300 950 2100 
L 400 2100 
Q 450 2500 762 2737 
Q 1075 2975 1575 2975 
Q 2125 2975 2400 2725 
Q 2675 2475 2675 2025 
L 2675 650 
Q 2675 500 2725 375 
Q 2775 250 2875 125 
z
M 2175 1050 
L 2175 1550 
Q 2025 1500 1887 1462 
Q 1750 1425 1425 1375 
Q 1050 1325 937 1200 
Q 825 1075 825 900 
Q 825 750 937 637 
Q 1050 525 1275 525 
Q 1500 525 1762 650 
Q 2025 775 2175 1050 
z
" transform="scale(0.015625)"/>
       <path id="SimHei-6c" d="M 1825 125 
L 1325 125 
L 1325 4400 
L 1825 4400 
L 1825 125 
z
" transform="scale(0.015625)"/>
       <path id="SimHei-20" transform="scale(0.015625)"/>
       <path id="SimHei-6b" d="M 2925 125 
L 2350 125 
L 1450 1650 
L 875 1100 
L 875 125 
L 375 125 
L 375 4400 
L 875 4400 
L 875 1675 
L 2125 2925 
L 2750 2925 
L 1775 1975 
L 2925 125 
z
" transform="scale(0.015625)"/>
       <path id="SimHei-6e" d="M 2800 125 
L 2300 125 
L 2300 1925 
Q 2300 2225 2150 2400 
Q 2000 2575 1750 2575 
Q 1425 2575 1137 2237 
Q 850 1900 850 1400 
L 850 125 
L 350 125 
L 350 2925 
L 850 2925 
L 850 2400 
Q 1050 2675 1287 2825 
Q 1525 2975 1900 2975 
Q 2350 2975 2575 2725 
Q 2800 2475 2800 2100 
L 2800 125 
z
" transform="scale(0.015625)"/>
       <path id="SimHei-72" d="M 2500 2425 
Q 2025 2500 1700 2287 
Q 1375 2075 1150 1550 
L 1150 125 
L 650 125 
L 650 2925 
L 1150 2925 
L 1150 2200 
Q 1375 2600 1712 2787 
Q 2050 2975 2500 2975 
L 2500 2425 
z
" transform="scale(0.015625)"/>
       <path id="SimHei-67" d="M 2975 2500 
Q 2800 2550 2637 2562 
Q 2475 2575 2300 2525 
Q 2375 2450 2425 2337 
Q 2475 2225 2475 2000 
Q 2475 1575 2187 1300 
Q 1900 1025 1475 1025 
Q 1375 1025 1212 1062 
Q 1050 1100 950 1150 
Q 875 1100 850 1050 
Q 825 1000 825 925 
Q 825 800 1000 737 
Q 1175 675 1625 675 
Q 2350 675 2612 475 
Q 2875 275 2875 -25 
Q 2875 -425 2487 -612 
Q 2100 -800 1575 -800 
Q 900 -800 575 -625 
Q 250 -450 250 -150 
Q 250 0 375 150 
Q 500 300 700 400 
Q 550 475 462 587 
Q 375 700 375 875 
Q 375 1025 487 1137 
Q 600 1250 750 1325 
Q 625 1450 550 1625 
Q 475 1800 475 2000 
Q 475 2425 762 2700 
Q 1050 2975 1475 2975 
Q 1700 2975 1862 2912 
Q 2025 2850 2150 2725 
Q 2350 2875 2550 2937 
Q 2750 3000 2975 2975 
L 2975 2500 
z
M 1975 2000 
Q 1975 2250 1850 2400 
Q 1725 2550 1475 2550 
Q 1225 2550 1100 2400 
Q 975 2250 975 2000 
Q 975 1750 1100 1600 
Q 1225 1450 1475 1450 
Q 1725 1450 1850 1600 
Q 1975 1750 1975 2000 
z
M 2400 -75 
Q 2400 25 2287 125 
Q 2175 225 1725 225 
Q 1625 225 1450 237 
Q 1275 250 1050 275 
Q 850 200 775 100 
Q 700 0 700 -100 
Q 700 -250 900 -350 
Q 1100 -450 1600 -450 
Q 2025 -450 2212 -337 
Q 2400 -225 2400 -75 
z
" transform="scale(0.015625)"/>
       <path id="SimHei-79" d="M 2900 2925 
L 1750 -100 
Q 1650 -450 1450 -625 
Q 1250 -800 950 -800 
Q 825 -800 712 -787 
Q 600 -775 500 -725 
L 500 -225 
Q 600 -275 700 -300 
Q 800 -325 875 -325 
Q 1075 -325 1150 -262 
Q 1225 -200 1300 25 
L 200 2925 
L 750 2925 
L 1550 725 
L 1575 725 
L 2350 2925 
L 2900 2925 
z
" transform="scale(0.015625)"/>
      </defs>
      <use xlink:href="#SimHei-54"/>
      <use xlink:href="#SimHei-6f" transform="translate(50 0)"/>
      <use xlink:href="#SimHei-74" transform="translate(100 0)"/>
      <use xlink:href="#SimHei-61" transform="translate(150 0)"/>
      <use xlink:href="#SimHei-6c" transform="translate(200 0)"/>
      <use xlink:href="#SimHei-20" transform="translate(250 0)"/>
      <use xlink:href="#SimHei-54" transform="translate(300 0)"/>
      <use xlink:href="#SimHei-61" transform="translate(350 0)"/>
      <use xlink:href="#SimHei-73" transform="translate(400 0)"/>
      <use xlink:href="#SimHei-6b" transform="translate(450 0)"/>
      <use xlink:href="#SimHei-20" transform="translate(500 0)"/>
      <use xlink:href="#SimHei-45" transform="translate(550 0)"/>
      <use xlink:href="#SimHei-6e" transform="translate(600 0)"/>
      <use xlink:href="#SimHei-65" transform="translate(650 0)"/>
      <use xlink:href="#SimHei-72" transform="translate(700 0)"/>
      <use xlink:href="#SimHei-67" transform="translate(750 0)"/>
      <use xlink:href="#SimHei-79" transform="translate(800 0)"/>
     </g>
    </g>
   </g>
   <g id="line2d_33">
    <path d="M 78.485227 270.27002 
L 79.912432 270.375912 
L 81.339636 265.461454 
L 82.76684 268.62665 
L 84.194045 269.058391 
L 85.621249 258.215474 
L 87.048454 254.02159 
L 88.475658 246.92192 
L 89.902862 250.326361 
L 91.330067 243.7592 
L 92.757271 241.314453 
L 94.184475 243.150313 
L 95.61168 244.077114 
L 97.038884 248.837024 
L 98.466089 246.641227 
L 99.893293 247.115258 
L 101.320497 250.026267 
L 102.747702 254.191261 
L 105.60211 260.935642 
L 107.029315 263.550399 
L 108.456519 266.811664 
L 109.883724 261.160515 
L 111.310928 264.120716 
L 112.738132 255.242881 
L 114.165337 258.55268 
L 115.592541 262.361203 
L 118.44695 269.302872 
L 119.874154 272.491576 
L 121.301359 274.827124 
L 122.728563 278.03163 
L 124.155767 280.555305 
L 125.582972 246.461363 
L 127.010176 251.073293 
L 132.718994 266.483008 
L 135.573402 273.29027 
L 138.427811 279.332055 
L 139.855015 281.882699 
L 141.28222 283.023715 
L 142.709424 285.655214 
L 145.563833 290.069843 
L 149.845446 296.54404 
L 154.127059 301.704423 
L 155.554263 303.124907 
L 156.981468 299.204278 
L 158.408672 299.025041 
L 159.835877 300.919642 
L 162.690285 304.189882 
L 164.11749 305.778546 
L 166.971898 307.902546 
L 168.399103 298.613922 
L 169.826307 300.397382 
L 171.253512 301.751199 
L 172.680716 299.574023 
L 175.535125 303.124538 
L 176.962329 304.015781 
L 178.389533 305.628023 
L 179.816738 303.596231 
L 181.243942 291.440295 
L 182.671147 293.674602 
L 184.098351 292.946808 
L 185.525555 295.014844 
L 186.95276 292.556039 
L 188.379964 293.630525 
L 191.234373 297.644467 
L 192.661577 295.162737 
L 194.088782 295.21268 
L 195.515986 296.829722 
L 196.94319 293.43021 
L 198.370395 295.624438 
L 199.797599 297.139595 
L 201.224803 298.878087 
L 202.652008 291.688518 
L 204.079212 292.078178 
L 205.506417 285.824374 
L 206.933621 288.343888 
L 208.360825 290.496801 
L 209.78803 276.10915 
L 211.215234 279.056175 
L 212.642438 276.015773 
L 214.069643 279.000383 
L 215.496847 272.565184 
L 216.924052 273.005824 
L 218.351256 275.76321 
L 219.77846 273.600073 
L 221.205665 275.034705 
L 222.632869 272.691172 
L 224.060073 264.575063 
L 225.487278 258.159219 
L 226.914482 239.041063 
L 228.341687 234.528114 
L 229.768891 216.390479 
L 231.196095 222.250673 
L 232.6233 221.427969 
L 234.050504 223.382523 
L 235.477708 221.079622 
L 236.904913 196.468184 
L 238.332117 188.379166 
L 239.759322 186.726842 
L 241.186526 190.374625 
L 242.61373 197.410115 
L 244.040935 196.068082 
L 245.468139 176.344425 
L 246.895343 181.676221 
L 248.322548 187.699724 
L 249.749752 191.446417 
L 251.176957 197.787056 
L 252.604161 199.677885 
L 254.031365 200.834586 
L 255.45857 206.856623 
L 256.885774 211.682588 
L 258.312978 212.359656 
L 259.740183 211.404469 
L 261.167387 207.616877 
L 262.594592 201.561386 
L 264.021796 186.689092 
L 266.876205 168.869706 
L 268.303409 168.328253 
L 269.730613 168.886318 
L 271.157818 170.993826 
L 272.585022 154.461893 
L 274.012227 160.760065 
L 275.439431 167.879209 
L 276.866635 154.38038 
L 278.29384 158.96304 
L 279.721044 160.712624 
L 281.148248 165.831488 
L 282.575453 162.60975 
L 284.002657 164.405682 
L 285.429862 158.879886 
L 286.857066 160.663908 
L 288.28427 149.808961 
L 289.711475 149.019641 
L 291.138679 157.83003 
L 292.565883 160.163379 
L 293.993088 161.061337 
L 295.420292 165.16126 
L 296.847497 165.532419 
L 298.274701 163.623181 
L 299.701905 163.617114 
L 301.12911 160.541635 
L 302.556314 169.048957 
L 303.983518 167.962265 
L 305.410723 175.776904 
L 306.837927 182.81726 
L 308.265132 186.461548 
L 309.692336 189.148093 
L 311.11954 187.940861 
L 312.546745 192.060297 
L 313.973949 197.810051 
L 315.401153 199.224374 
L 316.828358 201.110626 
L 318.255562 197.082031 
L 319.682767 197.916025 
L 321.109971 203.697884 
L 322.537175 203.48238 
L 323.96438 197.791884 
L 325.391584 201.130338 
L 326.818788 202.754592 
L 328.245993 205.922228 
L 329.673197 211.75742 
L 331.100402 211.158983 
L 332.527606 212.213891 
L 333.95481 213.607836 
L 335.382015 213.683523 
L 336.809219 207.691186 
L 338.236423 205.976064 
L 339.663628 200.783373 
L 341.090832 202.717242 
L 342.518037 192.56779 
L 343.945241 180.681677 
L 345.372445 180.727869 
L 346.79965 183.503637 
L 348.226854 187.867365 
L 349.654058 172.148432 
L 351.081263 179.795602 
L 353.935672 182.992193 
L 355.362876 189.406475 
L 356.79008 193.36003 
L 358.217285 194.59403 
L 359.644489 188.402745 
L 361.071693 180.740991 
L 362.498898 184.817523 
L 363.926102 187.700914 
L 365.353307 184.822271 
L 366.780511 191.900084 
L 368.207715 196.594367 
L 369.63492 195.843876 
L 371.062124 190.255802 
L 372.489328 162.821921 
L 373.916533 161.974607 
L 375.343737 164.79947 
L 376.770942 170.334391 
L 378.198146 170.467832 
L 379.62535 168.265581 
L 381.052555 166.359425 
L 382.479759 174.172416 
L 383.906963 165.307933 
L 385.334168 167.917499 
L 386.761372 156.391271 
L 388.188577 150.325426 
L 389.615781 152.206906 
L 391.042985 157.817019 
L 392.47019 157.970077 
L 393.897394 166.373282 
L 395.324598 169.187833 
L 396.751803 169.80244 
L 398.179007 172.482024 
L 399.606212 176.818672 
L 401.033416 180.492467 
L 402.46062 185.65136 
L 403.887825 188.859511 
L 405.315029 187.423358 
L 406.742233 187.172289 
L 408.169438 184.455978 
L 409.596642 190.324323 
L 411.023847 183.170464 
L 412.451051 184.344009 
L 413.878255 180.862454 
L 415.30546 185.749887 
L 416.732664 189.261687 
L 418.159868 185.502931 
L 419.587073 192.426754 
L 421.014277 193.687636 
L 422.441482 192.553609 
L 423.868686 192.256088 
L 425.29589 196.287302 
L 426.723095 175.136769 
L 428.150299 180.150096 
L 429.577503 179.962151 
L 431.004708 177.882721 
L 432.431912 185.882939 
L 433.859117 192.039497 
L 435.286321 197.512208 
L 436.713525 198.192589 
L 438.14073 196.033803 
L 439.567934 199.854203 
L 440.995138 201.087004 
L 442.422343 205.115479 
L 443.849547 210.290127 
L 445.276752 202.486693 
L 446.703956 206.729177 
L 448.13116 204.342667 
L 449.558365 199.724902 
L 450.985569 199.957218 
L 452.412773 206.696559 
L 453.839978 197.538202 
L 455.267182 198.633155 
L 456.694387 204.848305 
L 458.121591 209.035883 
L 459.548795 214.166222 
L 460.976 210.466583 
L 462.403204 213.731013 
L 463.830408 219.370446 
L 465.257613 215.264743 
L 466.684817 212.295445 
L 468.112022 217.348692 
L 469.539226 219.340306 
L 470.96643 221.649969 
L 472.393635 225.99345 
L 473.820839 225.539463 
L 475.248043 229.839775 
L 476.675248 229.902388 
L 478.102452 232.409871 
L 479.529657 228.121415 
L 480.956861 232.190989 
L 482.384065 234.240909 
L 483.81127 238.373225 
L 485.238474 228.495499 
L 486.665678 227.975932 
L 488.092883 215.671501 
L 489.520087 221.421855 
L 490.947292 220.07437 
L 492.374496 225.328911 
L 493.8017 219.911685 
L 495.228905 219.150009 
L 496.656109 213.291316 
L 498.083313 209.247135 
L 499.510518 194.483385 
L 500.937722 196.387849 
L 502.364927 202.760063 
L 503.792131 192.812242 
L 505.219335 196.575952 
L 506.64654 202.172854 
L 508.073744 205.594912 
L 509.500948 206.789913 
L 510.928153 210.503701 
L 512.355357 211.822678 
L 513.782562 216.858569 
L 515.209766 218.986228 
L 516.63697 215.576018 
L 518.064175 214.723005 
L 519.491379 216.604384 
L 520.918583 214.984752 
L 522.345788 208.100511 
L 523.772992 204.95481 
L 525.200197 204.997657 
L 526.627401 210.982829 
L 528.054605 199.936127 
L 529.48181 204.350927 
L 530.909014 181.527536 
L 532.336218 189.344505 
L 535.190627 197.508371 
L 538.045036 206.456977 
L 539.47224 202.43185 
L 542.326649 208.587587 
L 543.753853 213.882734 
L 545.181058 216.259607 
L 546.608262 221.769587 
L 548.035467 226.572034 
L 549.462671 215.924128 
L 550.889875 215.810281 
L 552.31708 218.252331 
L 553.744284 222.918285 
L 555.171488 225.45533 
L 556.598693 229.878374 
L 558.025897 229.108069 
L 559.453102 229.646739 
L 560.880306 221.944975 
L 562.30751 224.368226 
L 563.734715 218.271599 
L 565.161919 209.199592 
L 566.589123 206.095771 
L 568.016328 205.648744 
L 569.443532 203.362813 
L 570.870737 209.745698 
L 572.297941 212.62158 
L 573.725145 207.218594 
L 575.15235 213.095584 
L 576.579554 212.778913 
L 578.006758 209.692113 
L 579.433963 213.76755 
L 580.861167 218.188186 
L 582.288371 218.369583 
L 583.715576 222.371001 
L 585.14278 222.809554 
L 586.569985 220.96263 
L 587.997189 204.49522 
L 590.851598 216.391497 
L 592.278802 219.741537 
L 593.706006 222.186662 
L 595.133211 226.617321 
L 596.560415 219.653645 
L 597.98762 223.389381 
L 599.414824 209.637974 
L 600.842028 212.88753 
L 602.269233 214.505371 
L 603.696437 217.406323 
L 605.123641 218.456342 
L 606.550846 223.168357 
L 607.97805 210.753997 
L 609.405255 208.427895 
L 610.832459 214.166006 
L 612.259663 219.230884 
L 613.686868 216.321519 
L 615.114072 211.656543 
L 616.541276 210.923699 
L 619.395685 221.551619 
L 620.82289 224.180775 
L 622.250094 219.918057 
L 623.677298 216.912123 
L 625.104503 219.899934 
L 627.958911 229.008879 
L 629.386116 231.078134 
L 630.81332 225.22894 
L 632.240525 215.584978 
L 633.667729 219.070895 
L 635.094933 223.881532 
L 636.522138 224.584228 
L 637.949342 220.825871 
L 639.376546 222.4333 
L 640.803751 227.921739 
L 642.230955 220.801559 
L 643.65816 225.725002 
L 645.085364 231.283537 
L 646.512568 218.668729 
L 646.512568 218.668729 
" clip-path="url(#p798c09ab92)" style="fill: none; stroke: #1f77b4; stroke-width: 1.2; stroke-linecap: square"/>
   </g>
   <g id="line2d_34">
    <path d="M 78.485227 225.906075 
L 79.912432 226.624547 
L 81.339636 227.020283 
L 82.76684 228.048036 
L 84.194045 221.191896 
L 85.621249 217.733892 
L 87.048454 215.598051 
L 88.475658 215.211184 
L 89.902862 218.099731 
L 91.330067 213.149838 
L 92.757271 209.375874 
L 94.184475 203.849679 
L 95.61168 200.053944 
L 97.038884 201.955657 
L 98.466089 205.083419 
L 99.893293 208.79808 
L 101.320497 206.826444 
L 102.747702 203.436834 
L 104.174906 198.626585 
L 105.60211 187.082022 
L 107.029315 183.852686 
L 108.456519 179.181219 
L 111.310928 181.608274 
L 112.738132 183.313772 
L 114.165337 182.104698 
L 115.592541 171.224105 
L 117.019745 174.250525 
L 118.44695 180.957158 
L 119.874154 183.235134 
L 121.301359 189.089634 
L 122.728563 190.907202 
L 124.155767 191.672624 
L 125.582972 191.626577 
L 127.010176 198.16975 
L 128.43738 197.792413 
L 129.864585 199.057701 
L 131.291789 194.408256 
L 132.718994 199.746474 
L 134.146198 202.051066 
L 135.573402 197.467159 
L 137.000607 194.318242 
L 138.427811 191.510253 
L 139.855015 187.383526 
L 141.28222 189.192236 
L 142.709424 186.898349 
L 144.136629 180.092169 
L 145.563833 184.9736 
L 146.991037 175.097892 
L 148.418242 177.199095 
L 149.845446 167.937692 
L 151.27265 173.69165 
L 152.699855 175.278956 
L 154.127059 180.859356 
L 155.554263 181.169801 
L 156.981468 183.083701 
L 158.408672 180.511875 
L 159.835877 185.430849 
L 161.263081 179.541456 
L 162.690285 178.11359 
L 164.11749 176.114447 
L 165.544694 169.653169 
L 166.971898 176.645245 
L 168.399103 178.633131 
L 169.826307 178.177548 
L 171.253512 176.163607 
L 172.680716 181.276702 
L 174.10792 180.197549 
L 175.535125 175.577644 
L 176.962329 176.979206 
L 178.389533 181.754725 
L 179.816738 185.694648 
L 181.243942 178.704856 
L 182.671147 179.35639 
L 184.098351 186.196211 
L 185.525555 180.639768 
L 186.95276 171.296361 
L 188.379964 173.832544 
L 189.807168 171.834781 
L 191.234373 178.693815 
L 192.661577 170.896318 
L 194.088782 175.957075 
L 195.515986 182.270808 
L 196.94319 182.623235 
L 198.370395 184.349821 
L 199.797599 191.322511 
L 201.224803 196.64854 
L 202.652008 203.188266 
L 204.079212 202.643952 
L 205.506417 201.033116 
L 206.933621 207.027008 
L 208.360825 212.48088 
L 209.78803 215.516726 
L 211.215234 212.223334 
L 212.642438 216.493161 
L 214.069643 204.081133 
L 215.496847 210.18614 
L 216.924052 207.47134 
L 218.351256 202.054349 
L 219.77846 207.789971 
L 221.205665 206.332886 
L 222.632869 211.343376 
L 224.060073 212.365954 
L 225.487278 214.367898 
L 229.768891 229.124247 
L 231.196095 227.213003 
L 232.6233 232.141034 
L 235.477708 240.120737 
L 236.904913 241.185262 
L 238.332117 244.990547 
L 239.759322 243.408318 
L 241.186526 247.655332 
L 242.61373 249.137077 
L 244.040935 251.307689 
L 245.468139 254.364803 
L 246.895343 251.863433 
L 248.322548 251.404494 
L 249.749752 252.508199 
L 251.176957 253.957651 
L 252.604161 257.295429 
L 254.031365 255.953887 
L 255.45857 238.335898 
L 256.885774 233.077017 
L 258.312978 237.469616 
L 261.167387 242.924501 
L 262.594592 236.713898 
L 264.021796 239.299404 
L 265.449 242.964271 
L 266.876205 244.59464 
L 268.303409 245.687399 
L 269.730613 231.627919 
L 271.157818 232.849155 
L 272.585022 237.545349 
L 274.012227 241.760758 
L 275.439431 240.752644 
L 276.866635 239.217188 
L 278.29384 243.686603 
L 279.721044 244.517097 
L 281.148248 247.508056 
L 284.002657 252.817997 
L 285.429862 253.627238 
L 286.857066 257.246487 
L 288.28427 258.384245 
L 289.711475 262.205901 
L 291.138679 262.227844 
L 292.565883 265.475129 
L 293.993088 265.68487 
L 295.420292 268.843199 
L 296.847497 271.580898 
L 298.274701 271.10304 
L 299.701905 273.941164 
L 301.12911 275.897653 
L 302.556314 272.017119 
L 303.983518 272.337066 
L 305.410723 266.719767 
L 306.837927 269.398517 
L 309.692336 273.876232 
L 311.11954 276.617095 
L 312.546745 278.900315 
L 313.973949 279.138102 
L 315.401153 279.121196 
L 318.255562 284.404566 
L 319.682767 285.014419 
L 321.109971 287.399063 
L 322.537175 283.194921 
L 323.96438 282.951983 
L 325.391584 285.231097 
L 326.818788 284.64326 
L 328.245993 286.621705 
L 331.100402 279.272796 
L 333.95481 284.184307 
L 335.382015 280.200652 
L 336.809219 273.437857 
L 341.090832 281.63856 
L 342.518037 284.088279 
L 343.945241 282.898522 
L 345.372445 277.162674 
L 346.79965 277.168502 
L 348.226854 279.356377 
L 349.654058 278.23877 
L 351.081263 273.398485 
L 352.508467 275.297804 
L 353.935672 274.448752 
L 356.79008 280.146868 
L 358.217285 282.662174 
L 359.644489 281.084804 
L 361.071693 283.250858 
L 362.498898 285.644059 
L 363.926102 287.757813 
L 365.353307 287.931 
L 366.780511 290.146687 
L 368.207715 281.269249 
L 369.63492 283.865765 
L 372.489328 288.408266 
L 373.916533 290.913906 
L 375.343737 293.009708 
L 376.770942 291.806994 
L 378.198146 290.320413 
L 379.62535 287.783725 
L 383.906963 294.146898 
L 385.334168 295.895668 
L 386.761372 295.407983 
L 389.615781 299.155988 
L 391.042985 298.137036 
L 392.47019 300.067501 
L 393.897394 299.462224 
L 395.324598 299.079658 
L 398.179007 302.204284 
L 399.606212 303.635845 
L 403.887825 307.184617 
L 405.315029 308.749175 
L 406.742233 310.005115 
L 408.169438 311.088973 
L 409.596642 312.371715 
L 411.023847 308.55058 
L 413.878255 311.163879 
L 415.30546 312.253597 
L 418.159868 314.102918 
L 419.587073 314.549363 
L 421.014277 315.632071 
L 422.441482 316.330867 
L 423.868686 316.707899 
L 425.29589 317.568651 
L 426.723095 317.609981 
L 428.150299 318.423683 
L 429.577503 316.766339 
L 431.004708 317.258254 
L 432.431912 318.001106 
L 433.859117 318.527027 
L 435.286321 319.404553 
L 436.713525 316.206172 
L 438.14073 316.48248 
L 439.567934 317.545948 
L 440.995138 318.376286 
L 442.422343 318.88512 
L 443.849547 319.199488 
L 445.276752 319.908301 
L 446.703956 319.13688 
L 448.13116 319.74723 
L 450.985569 321.215692 
L 455.267182 322.192261 
L 456.694387 322.037896 
L 458.121591 322.195523 
L 459.548795 322.989937 
L 460.976 323.049482 
L 462.403204 323.470652 
L 465.257613 324.643656 
L 466.684817 324.920016 
L 470.96643 326.498148 
L 472.393635 326.80812 
L 473.820839 325.490142 
L 475.248043 325.974264 
L 478.102452 326.668341 
L 479.529657 327.109431 
L 480.956861 327.420561 
L 482.384065 327.561099 
L 483.81127 327.358838 
L 485.238474 327.600724 
L 486.665678 326.955832 
L 488.092883 327.234951 
L 489.520087 327.233292 
L 493.8017 328.209063 
L 496.656109 327.978589 
L 499.510518 328.659397 
L 500.937722 328.92579 
L 502.364927 328.929756 
L 503.792131 329.073238 
L 506.64654 329.675598 
L 508.073744 329.740474 
L 509.500948 329.583621 
L 510.928153 329.768664 
L 512.355357 329.768664 
L 513.782562 330.011907 
L 515.209766 330.070361 
L 518.064175 330.354609 
L 519.491379 330.737167 
L 520.918583 330.870487 
L 522.345788 331.280355 
L 525.200197 331.329186 
L 528.054605 331.459289 
L 529.48181 331.760315 
L 530.909014 332.24343 
L 532.336218 332.366524 
L 533.763423 332.700728 
L 538.045036 332.379679 
L 539.47224 331.962092 
L 540.899445 332.130963 
L 543.753853 332.003957 
L 545.181058 331.806383 
L 546.608262 328.337629 
L 549.462671 328.80357 
L 552.31708 329.170873 
L 553.744284 328.873534 
L 556.598693 329.600569 
L 558.025897 329.139405 
L 566.589123 330.291361 
L 568.016328 330.037809 
L 570.870737 330.334174 
L 572.297941 330.571519 
L 573.725145 331.08987 
L 575.15235 331.237084 
L 576.579554 330.87867 
L 579.433963 331.176257 
L 582.288371 331.708395 
L 583.715576 331.713058 
L 586.569985 331.982174 
L 587.997189 331.996388 
L 589.424393 331.886264 
L 590.851598 331.385034 
L 592.278802 331.360112 
L 593.706006 329.355459 
L 596.560415 329.587756 
L 597.98762 327.421509 
L 599.414824 327.965571 
L 602.269233 328.273749 
L 603.696437 328.617842 
L 605.123641 328.706321 
L 609.405255 329.627418 
L 610.832459 330.060772 
L 612.259663 330.361628 
L 613.686868 330.345357 
L 615.114072 330.564273 
L 616.541276 330.545374 
L 620.82289 331.06587 
L 622.250094 331.239752 
L 623.677298 330.990897 
L 625.104503 330.96618 
L 627.958911 331.068166 
L 629.386116 330.860981 
L 630.81332 331.130406 
L 633.667729 331.197321 
L 635.094933 331.035712 
L 636.522138 331.122167 
L 637.949342 331.041682 
L 639.376546 331.117932 
L 640.803751 331.648304 
L 643.65816 332.056178 
L 645.085364 331.8427 
L 646.512568 331.97796 
L 646.512568 331.97796 
" clip-path="url(#p798c09ab92)" style="fill: none; stroke: #ff7f0e; stroke-width: 1.2; stroke-linecap: square"/>
   </g>
   <g id="line2d_35">
    <path d="M 78.485227 155.056445 
L 79.912432 160.077747 
L 81.339636 164.128417 
L 82.76684 165.536363 
L 84.194045 172.916933 
L 85.621249 178.535881 
L 87.048454 180.634822 
L 88.475658 187.601505 
L 89.902862 180.325698 
L 91.330067 183.449274 
L 92.757271 182.403434 
L 94.184475 164.895498 
L 95.61168 161.655044 
L 98.466089 176.233007 
L 99.893293 176.400638 
L 101.320497 171.103893 
L 102.747702 171.405498 
L 104.174906 178.996778 
L 105.60211 180.546031 
L 107.029315 184.867454 
L 108.456519 184.308055 
L 109.883724 184.135847 
L 111.310928 190.134054 
L 112.738132 187.267453 
L 114.165337 193.099756 
L 115.592541 199.846888 
L 117.019745 205.400655 
L 118.44695 210.113072 
L 121.301359 220.785366 
L 122.728563 221.33512 
L 124.155767 223.475393 
L 125.582972 223.720495 
L 127.010176 226.165132 
L 128.43738 229.659353 
L 129.864585 225.616856 
L 131.291789 228.880062 
L 132.718994 229.587127 
L 134.146198 224.593631 
L 135.573402 222.952343 
L 137.000607 213.368256 
L 138.427811 211.679381 
L 139.855015 202.808576 
L 141.28222 200.536244 
L 142.709424 189.682311 
L 144.136629 193.62697 
L 145.563833 183.468453 
L 146.991037 175.345438 
L 148.418242 175.727676 
L 149.845446 179.692737 
L 151.27265 178.583915 
L 152.699855 179.33713 
L 155.554263 179.199312 
L 156.981468 180.906447 
L 158.408672 182.383681 
L 159.835877 188.574261 
L 161.263081 192.52624 
L 162.690285 193.241777 
L 164.11749 190.635637 
L 165.544694 185.854661 
L 166.971898 185.728333 
L 168.399103 177.521214 
L 169.826307 182.850097 
L 171.253512 187.011987 
L 172.680716 193.345743 
L 174.10792 194.113023 
L 175.535125 199.150739 
L 176.962329 196.72698 
L 178.389533 195.295685 
L 179.816738 198.332873 
L 181.243942 202.302766 
L 182.671147 205.857586 
L 184.098351 206.014475 
L 185.525555 207.651655 
L 186.95276 212.536166 
L 188.379964 217.94677 
L 189.807168 217.569768 
L 191.234373 222.698027 
L 194.088782 233.720986 
L 198.370395 248.069138 
L 201.224803 256.250826 
L 204.079212 263.923682 
L 206.933621 270.896527 
L 208.360825 274.239861 
L 211.215234 280.19584 
L 212.642438 282.491576 
L 214.069643 285.159938 
L 221.205665 296.580763 
L 226.914482 303.289706 
L 228.341687 305.045476 
L 229.768891 306.216452 
L 232.6233 309.152257 
L 234.050504 310.159284 
L 235.477708 311.338859 
L 236.904913 312.791037 
L 241.186526 315.493211 
L 242.61373 316.346122 
L 245.468139 317.776764 
L 246.895343 318.777693 
L 248.322548 319.390288 
L 249.749752 319.626273 
L 251.176957 320.354994 
L 252.604161 321.281618 
L 254.031365 321.923551 
L 255.45857 322.413998 
L 256.885774 322.715178 
L 258.312978 323.325176 
L 261.167387 323.996503 
L 262.594592 324.308912 
L 264.021796 324.916449 
L 265.449 325.337422 
L 266.876205 325.528196 
L 268.303409 326.216673 
L 271.157818 327.030001 
L 274.012227 327.586791 
L 275.439431 328.124119 
L 279.721044 329.166884 
L 281.148248 329.49131 
L 282.575453 329.51453 
L 284.002657 329.807903 
L 288.28427 330.100929 
L 291.138679 330.466043 
L 292.565883 330.343597 
L 293.993088 330.57554 
L 295.420292 330.336922 
L 298.274701 330.313131 
L 299.701905 330.64443 
L 303.983518 331.067944 
L 305.410723 331.240084 
L 306.837927 331.603172 
L 309.692336 332.039923 
L 312.546745 331.802791 
L 313.973949 331.971605 
L 316.828358 331.640779 
L 319.682767 331.972565 
L 322.537175 332.050066 
L 325.391584 332.24187 
L 328.245993 332.619598 
L 329.673197 332.484483 
L 331.100402 332.802791 
L 333.95481 332.976902 
L 335.382015 333.060263 
L 336.809219 333.256902 
L 338.236423 333.057783 
L 339.663628 333.040391 
L 342.518037 333.24662 
L 345.372445 333.290841 
L 348.226854 333.312885 
L 349.654058 333.407878 
L 351.081263 333.291006 
L 352.508467 333.437091 
L 353.935672 333.309445 
L 358.217285 333.721688 
L 359.644489 333.757406 
L 362.498898 334.095078 
L 363.926102 333.920518 
L 365.353307 334.148901 
L 366.780511 334.200538 
L 368.207715 334.467682 
L 369.63492 334.22661 
L 371.062124 334.285445 
L 372.489328 334.093843 
L 373.916533 334.262924 
L 375.343737 334.308118 
L 376.770942 333.966751 
L 378.198146 334.065053 
L 379.62535 334.280145 
L 381.052555 333.987071 
L 383.906963 334.104583 
L 386.761372 333.986242 
L 389.615781 334.241923 
L 391.042985 334.364374 
L 396.751803 334.17446 
L 398.179007 334.023384 
L 399.606212 334.109141 
L 401.033416 333.81893 
L 406.742233 333.389708 
L 411.023847 333.488223 
L 412.451051 333.162639 
L 415.30546 333.489993 
L 419.587073 333.1179 
L 423.868686 333.246082 
L 425.29589 333.11911 
L 428.150299 333.106191 
L 429.577503 332.987174 
L 431.004708 333.082263 
L 432.431912 333.486902 
L 433.859117 333.691141 
L 435.286321 334.1825 
L 436.713525 333.95546 
L 438.14073 333.871369 
L 439.567934 333.567695 
L 440.995138 333.712394 
L 442.422343 333.745339 
L 448.13116 333.277675 
L 449.558365 333.303994 
L 450.985569 333.564265 
L 452.412773 333.391181 
L 455.267182 333.695854 
L 456.694387 333.271556 
L 458.121591 333.323204 
L 459.548795 333.154108 
L 460.976 333.114572 
L 462.403204 332.947822 
L 463.830408 332.977313 
L 465.257613 332.635251 
L 466.684817 332.880531 
L 468.112022 332.866875 
L 469.539226 333.065708 
L 472.393635 333.115812 
L 475.248043 333.095065 
L 476.675248 333.087847 
L 478.102452 332.967352 
L 479.529657 333.189703 
L 480.956861 333.090294 
L 482.384065 333.26632 
L 483.81127 333.168584 
L 485.238474 333.266233 
L 486.665678 333.483371 
L 489.520087 333.476708 
L 490.947292 333.566342 
L 492.374496 333.503573 
L 493.8017 333.307478 
L 495.228905 333.702983 
L 496.656109 333.639376 
L 498.083313 333.783475 
L 499.510518 333.741941 
L 506.64654 334.221342 
L 509.500948 334.218848 
L 512.355357 334.044401 
L 513.782562 333.962025 
L 515.209766 333.55857 
L 519.491379 334.069087 
L 520.918583 334.352087 
L 526.627401 334.693162 
L 528.054605 334.536467 
L 529.48181 334.063012 
L 532.336218 333.897184 
L 533.763423 333.944956 
L 535.190627 334.165922 
L 536.617832 334.084115 
L 538.045036 334.134888 
L 540.899445 334.544953 
L 542.326649 334.377395 
L 545.181058 334.886119 
L 549.462671 334.905664 
L 550.889875 334.679782 
L 555.171488 335.529055 
L 556.598693 334.877673 
L 560.880306 335.095466 
L 563.734715 334.801265 
L 572.297941 334.340082 
L 573.725145 333.636073 
L 576.579554 333.751686 
L 578.006758 333.568577 
L 583.715576 333.957543 
L 585.14278 333.773537 
L 587.997189 333.731402 
L 589.424393 333.465996 
L 592.278802 333.866084 
L 595.133211 333.8191 
L 596.560415 333.865442 
L 597.98762 333.798174 
L 600.842028 334.187442 
L 602.269233 333.994439 
L 603.696437 334.148882 
L 605.123641 333.917254 
L 607.97805 334.098905 
L 610.832459 334.093036 
L 613.686868 334.252047 
L 615.114072 334.133579 
L 616.541276 334.347627 
L 617.968481 334.376428 
L 619.395685 334.249855 
L 620.82289 334.578119 
L 622.250094 334.729421 
L 625.104503 334.332822 
L 626.531707 334.336818 
L 627.958911 334.526403 
L 629.386116 334.06859 
L 630.81332 334.028517 
L 636.522138 334.337747 
L 639.376546 334.095412 
L 642.230955 334.40602 
L 645.085364 334.203452 
L 646.512568 334.506817 
L 647.939773 334.528784 
L 647.939773 334.528784 
" clip-path="url(#p798c09ab92)" style="fill: none; stroke: #2ca02c; stroke-width: 1.2; stroke-linecap: square"/>
   </g>
   <g id="line2d_36">
    <path d="M 78.485227 183.981156 
L 79.912432 175.782758 
L 81.339636 170.784733 
L 82.76684 157.154693 
L 84.194045 156.046759 
L 85.621249 149.256052 
L 87.048454 138.322286 
L 88.475658 135.346108 
L 89.902862 130.310712 
L 91.330067 131.411105 
L 92.757271 128.590908 
L 94.184475 121.896706 
L 95.61168 118.786754 
L 97.038884 120.787875 
L 98.466089 115.165286 
L 99.893293 117.191909 
L 101.320497 117.510483 
L 102.747702 115.969891 
L 104.174906 117.53599 
L 105.60211 113.188585 
L 107.029315 118.738728 
L 108.456519 114.214093 
L 109.883724 117.254198 
L 111.310928 119.909972 
L 112.738132 122.080573 
L 114.165337 108.626084 
L 115.592541 98.340425 
L 117.019745 106.303361 
L 118.44695 107.695744 
L 119.874154 100.853115 
L 121.301359 109.451012 
L 122.728563 103.63893 
L 124.155767 106.952008 
L 125.582972 103.708745 
L 127.010176 108.05665 
L 128.43738 102.755174 
L 129.864585 102.32087 
L 131.291789 108.225867 
L 132.718994 119.811071 
L 135.573402 140.680933 
L 138.427811 159.165129 
L 141.28222 176.355454 
L 142.709424 184.389772 
L 146.991037 205.841614 
L 149.845446 218.125542 
L 152.699855 228.992438 
L 159.835877 252.685163 
L 162.690285 260.441337 
L 166.971898 271.033599 
L 169.826307 276.848195 
L 172.680716 281.990382 
L 174.10792 283.964764 
L 178.389533 290.869866 
L 182.671147 296.989798 
L 184.098351 298.73929 
L 185.525555 300.255554 
L 188.379964 303.724604 
L 189.807168 304.873523 
L 191.234373 306.508007 
L 192.661577 307.904804 
L 196.94319 311.554317 
L 198.370395 312.354902 
L 199.797599 313.389883 
L 202.652008 315.060309 
L 204.079212 315.568304 
L 205.506417 316.743611 
L 206.933621 317.634903 
L 208.360825 317.811906 
L 209.78803 318.410812 
L 214.069643 320.990186 
L 216.924052 322.434079 
L 218.351256 323.212294 
L 221.205665 324.207687 
L 224.060073 325.035703 
L 226.914482 326.16424 
L 228.341687 326.469621 
L 229.768891 326.88957 
L 231.196095 326.730446 
L 234.050504 327.168771 
L 239.759322 328.578489 
L 242.61373 329.313004 
L 244.040935 329.7418 
L 245.468139 329.90965 
L 246.895343 329.720586 
L 248.322548 329.665656 
L 251.176957 330.270363 
L 252.604161 330.347945 
L 254.031365 330.765104 
L 255.45857 330.874206 
L 259.740183 330.74594 
L 261.167387 331.017057 
L 262.594592 330.52703 
L 268.303409 330.855047 
L 269.730613 330.794947 
L 275.439431 331.90938 
L 276.866635 332.101514 
L 278.29384 331.877296 
L 279.721044 332.125625 
L 281.148248 332.189328 
L 282.575453 332.13452 
L 284.002657 332.418266 
L 286.857066 332.138132 
L 288.28427 332.377958 
L 292.565883 332.730692 
L 293.993088 332.531585 
L 295.420292 332.674703 
L 298.274701 332.651811 
L 299.701905 332.747357 
L 301.12911 331.646499 
L 302.556314 331.514513 
L 303.983518 331.643718 
L 305.410723 331.147253 
L 306.837927 330.239453 
L 308.265132 330.197775 
L 309.692336 330.418928 
L 311.11954 330.783883 
L 313.973949 331.169171 
L 318.255562 331.546636 
L 321.109971 331.492804 
L 322.537175 331.694052 
L 325.391584 331.640828 
L 328.245993 332.30282 
L 329.673197 331.743904 
L 333.95481 331.922672 
L 335.382015 329.808957 
L 336.809219 329.888165 
L 342.518037 330.766528 
L 343.945241 330.761367 
L 345.372445 330.508166 
L 346.79965 330.684587 
L 348.226854 330.518121 
L 351.081263 330.959165 
L 352.508467 330.447849 
L 353.935672 330.834434 
L 355.362876 330.857002 
L 356.79008 330.614599 
L 358.217285 330.510783 
L 362.498898 331.052738 
L 363.926102 331.311865 
L 365.353307 331.434132 
L 369.63492 331.264931 
L 371.062124 330.964064 
L 372.489328 331.103265 
L 373.916533 330.768684 
L 375.343737 330.712169 
L 376.770942 331.111672 
L 378.198146 331.23755 
L 379.62535 331.078796 
L 381.052555 331.049086 
L 382.479759 331.349653 
L 385.334168 331.544258 
L 386.761372 328.515383 
L 389.615781 328.658108 
L 395.324598 329.580235 
L 396.751803 329.543656 
L 398.179007 329.795266 
L 399.606212 325.379788 
L 405.315029 326.776938 
L 406.742233 326.720981 
L 408.169438 327.044385 
L 409.596642 325.277646 
L 411.023847 326.036911 
L 413.878255 326.791195 
L 415.30546 326.996479 
L 416.732664 327.403773 
L 418.159868 327.383122 
L 421.014277 328.243421 
L 422.441482 328.340147 
L 423.868686 328.904263 
L 425.29589 329.162643 
L 426.723095 329.243479 
L 428.150299 329.64168 
L 429.577503 329.849788 
L 432.431912 330.018369 
L 433.859117 330.350685 
L 435.286321 329.680821 
L 436.713525 329.750043 
L 439.567934 330.37121 
L 440.995138 330.186696 
L 443.849547 330.327911 
L 446.703956 331.029198 
L 449.558365 331.437806 
L 453.839978 331.040723 
L 456.694387 331.226334 
L 458.121591 331.143194 
L 459.548795 330.937237 
L 460.976 330.892332 
L 462.403204 331.231259 
L 465.257613 331.424926 
L 466.684817 331.732917 
L 470.96643 331.529713 
L 472.393635 331.244709 
L 473.820839 331.619096 
L 475.248043 331.464933 
L 476.675248 331.726281 
L 480.956861 332.029349 
L 483.81127 332.60963 
L 485.238474 332.425212 
L 486.665678 329.44635 
L 492.374496 330.36797 
L 493.8017 330.429578 
L 495.228905 330.67356 
L 496.656109 330.42551 
L 498.083313 330.322314 
L 499.510518 330.35663 
L 500.937722 330.512064 
L 502.364927 330.19826 
L 510.928153 330.947737 
L 513.782562 330.510133 
L 516.63697 331.110173 
L 518.064175 330.709878 
L 519.491379 331.083722 
L 526.627401 331.938132 
L 528.054605 331.901052 
L 529.48181 329.957657 
L 530.909014 329.818554 
L 532.336218 329.878317 
L 533.763423 330.064947 
L 535.190627 329.94701 
L 536.617832 330.331451 
L 540.899445 330.964791 
L 542.326649 330.828454 
L 543.753853 331.299244 
L 545.181058 331.107684 
L 546.608262 331.457173 
L 548.035467 331.341966 
L 549.462671 331.495837 
L 550.889875 331.275617 
L 553.744284 331.276626 
L 555.171488 328.529705 
L 558.025897 329.359603 
L 559.453102 329.247202 
L 562.30751 329.789526 
L 563.734715 330.07717 
L 565.161919 330.19726 
L 566.589123 330.050039 
L 569.443532 330.671488 
L 570.870737 330.455926 
L 572.297941 330.713499 
L 573.725145 330.334961 
L 575.15235 330.275678 
L 576.579554 330.0505 
L 578.006758 330.040915 
L 579.433963 330.377589 
L 580.861167 328.058702 
L 582.288371 328.144032 
L 583.715576 328.416379 
L 586.569985 329.108615 
L 587.997189 326.749274 
L 590.851598 327.747315 
L 592.278802 328.045426 
L 593.706006 328.561985 
L 597.98762 329.104635 
L 599.414824 329.511929 
L 603.696437 329.911915 
L 605.123641 330.364975 
L 606.550846 330.351509 
L 607.97805 330.537849 
L 609.405255 330.884674 
L 613.686868 331.217018 
L 615.114072 331.57529 
L 616.541276 331.366439 
L 619.395685 331.354995 
L 622.250094 331.799731 
L 623.677298 331.758037 
L 625.104503 331.896084 
L 626.531707 331.681085 
L 627.958911 329.012095 
L 629.386116 329.426769 
L 630.81332 329.441577 
L 632.240525 329.103867 
L 635.094933 329.514393 
L 636.522138 329.409869 
L 637.949342 329.090995 
L 639.376546 329.254888 
L 640.803751 328.983994 
L 647.939773 329.713124 
L 647.939773 329.713124 
" clip-path="url(#p798c09ab92)" style="fill: none; stroke: #d62728; stroke-width: 1.2; stroke-linecap: square"/>
   </g>
   <g id="line2d_37">
    <path d="M 78.485227 48.838145 
L 79.912432 54.845056 
L 81.339636 62.399353 
L 82.76684 67.307799 
L 85.621249 80.660159 
L 87.048454 80.03017 
L 88.475658 88.735072 
L 89.902862 100.325307 
L 91.330067 108.183169 
L 92.757271 119.328638 
L 94.184475 128.14964 
L 97.038884 148.230043 
L 98.466089 152.061189 
L 99.893293 159.550622 
L 102.747702 176.475985 
L 107.029315 198.613436 
L 108.456519 204.312308 
L 111.310928 216.653382 
L 112.738132 222.33273 
L 114.165337 227.431325 
L 115.592541 233.076559 
L 117.019745 236.629198 
L 118.44695 241.831156 
L 121.301359 250.328192 
L 124.155767 258.556419 
L 128.43738 268.942012 
L 131.291789 275.293173 
L 137.000607 285.66611 
L 141.28222 292.255227 
L 142.709424 294.424366 
L 144.136629 296.230403 
L 145.563833 298.385069 
L 148.418242 301.998659 
L 152.699855 306.14426 
L 154.127059 307.345947 
L 155.554263 298.066592 
L 156.981468 299.913177 
L 161.263081 304.757172 
L 165.544694 308.956655 
L 168.399103 311.325567 
L 174.10792 315.765561 
L 175.535125 316.117197 
L 176.962329 316.90792 
L 178.389533 317.92478 
L 179.816738 318.663601 
L 181.243942 312.090085 
L 182.671147 313.170088 
L 184.098351 314.555219 
L 186.95276 316.494112 
L 189.807168 317.89066 
L 191.234373 318.82286 
L 194.088782 320.17577 
L 204.079212 325.230798 
L 205.506417 325.601213 
L 206.933621 326.191874 
L 208.360825 326.543728 
L 211.215234 326.759871 
L 212.642438 327.133672 
L 214.069643 327.826901 
L 215.496847 328.117923 
L 216.924052 328.103742 
L 218.351256 328.259442 
L 221.205665 328.716188 
L 222.632869 328.410711 
L 224.060073 328.73795 
L 226.914482 329.175546 
L 228.341687 327.753903 
L 229.768891 327.871616 
L 231.196095 328.411811 
L 232.6233 323.558349 
L 235.477708 324.837327 
L 238.332117 325.880593 
L 239.759322 326.114433 
L 241.186526 326.669596 
L 242.61373 326.999544 
L 245.468139 327.251114 
L 246.895343 327.761564 
L 248.322548 327.886796 
L 251.176957 328.728425 
L 254.031365 328.647447 
L 255.45857 328.843031 
L 259.740183 329.826561 
L 261.167387 329.773301 
L 264.021796 330.426024 
L 265.449 330.587641 
L 272.585022 330.543771 
L 274.012227 330.693515 
L 275.439431 330.712812 
L 278.29384 330.322321 
L 279.721044 329.857772 
L 281.148248 329.955181 
L 284.002657 330.76345 
L 285.429862 330.910267 
L 288.28427 330.791079 
L 292.565883 331.158963 
L 293.993088 331.540473 
L 295.420292 331.406228 
L 296.847497 331.674183 
L 298.274701 331.50629 
L 299.701905 331.696124 
L 302.556314 331.83577 
L 303.983518 332.220958 
L 305.410723 332.144943 
L 306.837927 332.455115 
L 309.692336 332.02064 
L 312.546745 331.604875 
L 316.828358 331.846494 
L 318.255562 331.686547 
L 319.682767 331.793122 
L 322.537175 331.495264 
L 325.391584 331.506248 
L 326.818788 331.697688 
L 328.245993 331.272952 
L 329.673197 331.589408 
L 332.527606 331.833474 
L 335.382015 332.162298 
L 338.236423 331.982493 
L 339.663628 332.451235 
L 341.090832 332.462581 
L 342.518037 332.309892 
L 343.945241 332.657986 
L 348.226854 332.437705 
L 351.081263 332.063211 
L 352.508467 332.270915 
L 353.935672 332.085588 
L 355.362876 332.07747 
L 356.79008 331.788301 
L 358.217285 331.64332 
L 361.071693 332.075657 
L 362.498898 331.339508 
L 368.207715 331.768749 
L 369.63492 331.483141 
L 371.062124 328.804458 
L 373.916533 329.70005 
L 375.343737 329.598082 
L 376.770942 329.708758 
L 378.198146 330.075207 
L 379.62535 330.195249 
L 381.052555 330.076014 
L 382.479759 330.068405 
L 383.906963 329.898023 
L 385.334168 329.900695 
L 386.761372 330.061753 
L 388.188577 330.075874 
L 391.042985 330.579469 
L 393.897394 330.952075 
L 395.324598 331.01691 
L 398.179007 331.330269 
L 399.606212 331.155061 
L 402.46062 331.147552 
L 406.742233 331.703837 
L 411.023847 331.881226 
L 413.878255 332.328112 
L 415.30546 332.189188 
L 419.587073 332.834672 
L 422.441482 332.370544 
L 423.868686 332.349378 
L 425.29589 332.135708 
L 428.150299 331.937497 
L 431.004708 332.215804 
L 432.431912 332.386565 
L 433.859117 332.188854 
L 436.713525 332.641529 
L 442.422343 332.506857 
L 446.703956 331.695693 
L 448.13116 330.100649 
L 449.558365 330.361243 
L 450.985569 330.776019 
L 453.839978 330.993418 
L 455.267182 331.154246 
L 462.403204 331.3902 
L 463.830408 331.215324 
L 465.257613 331.20622 
L 466.684817 331.029587 
L 468.112022 331.011255 
L 469.539226 331.324411 
L 470.96643 331.151011 
L 472.393635 331.442161 
L 473.820839 331.551639 
L 475.248043 331.538894 
L 476.675248 331.867628 
L 479.529657 332.136431 
L 480.956861 331.780408 
L 482.384065 331.653182 
L 485.238474 331.801825 
L 486.665678 332.283816 
L 488.092883 332.460348 
L 489.520087 332.460089 
L 493.8017 332.919421 
L 495.228905 332.523938 
L 496.656109 332.673209 
L 499.510518 332.720841 
L 506.64654 333.393717 
L 508.073744 332.971193 
L 509.500948 332.978345 
L 510.928153 332.556792 
L 512.355357 332.648318 
L 515.209766 332.482006 
L 516.63697 332.4084 
L 518.064175 332.100915 
L 523.772992 332.911013 
L 525.200197 332.56228 
L 528.054605 332.921842 
L 529.48181 332.550448 
L 532.336218 332.160604 
L 533.763423 332.427854 
L 536.617832 332.728137 
L 542.326649 332.366103 
L 549.462671 332.89171 
L 550.889875 332.61814 
L 552.31708 332.729946 
L 553.744284 332.590299 
L 555.171488 332.79801 
L 556.598693 332.872019 
L 558.025897 332.403881 
L 559.453102 329.006894 
L 562.30751 329.724553 
L 565.161919 329.978526 
L 568.016328 330.628936 
L 569.443532 330.760185 
L 572.297941 331.611194 
L 573.725145 331.57807 
L 576.579554 331.955922 
L 579.433963 332.310114 
L 580.861167 331.986583 
L 582.288371 332.020872 
L 583.715576 331.838711 
L 585.14278 331.796316 
L 586.569985 332.182101 
L 587.997189 332.306797 
L 592.278802 332.116962 
L 593.706006 332.288738 
L 596.560415 332.034423 
L 597.98762 332.34614 
L 600.842028 332.42233 
L 602.269233 332.610765 
L 606.550846 332.415749 
L 607.97805 332.258484 
L 609.405255 332.681925 
L 610.832459 332.620916 
L 612.259663 332.823929 
L 613.686868 332.860353 
L 615.114072 333.250038 
L 616.541276 332.983653 
L 619.395685 332.823888 
L 620.82289 333.03307 
L 625.104503 332.770979 
L 626.531707 332.99047 
L 627.958911 333.402164 
L 629.386116 333.291128 
L 630.81332 333.535388 
L 632.240525 333.419612 
L 633.667729 333.705324 
L 635.094933 333.542723 
L 636.522138 332.367607 
L 637.949342 332.311743 
L 640.803751 331.911453 
L 642.230955 332.227998 
L 643.65816 331.886988 
L 645.085364 332.062679 
L 646.512568 332.586194 
L 646.512568 332.586194 
" clip-path="url(#p798c09ab92)" style="fill: none; stroke: #9b8ac9; stroke-width: 1.2; stroke-linecap: square"/>
   </g>
   <g id="patch_3">
    <path d="M 50.0125 349.8636 
L 50.0125 34.5036 
" style="fill: none; stroke: #000000; stroke-width: 0.8; stroke-linejoin: miter; stroke-linecap: square"/>
   </g>
   <g id="patch_4">
    <path d="M 676.4125 349.8636 
L 676.4125 34.5036 
" style="fill: none; stroke: #000000; stroke-width: 0.8; stroke-linejoin: miter; stroke-linecap: square"/>
   </g>
   <g id="patch_5">
    <path d="M 50.0125 349.8636 
L 676.4125 349.8636 
" style="fill: none; stroke: #000000; stroke-width: 0.8; stroke-linejoin: miter; stroke-linecap: square"/>
   </g>
   <g id="patch_6">
    <path d="M 50.0125 34.5036 
L 676.4125 34.5036 
" style="fill: none; stroke: #000000; stroke-width: 0.8; stroke-linejoin: miter; stroke-linecap: square"/>
   </g>
   <g id="legend_1">
    <g id="patch_7">
     <path d="M 50.0125 31.35 
L 676.4125 31.35 
L 676.4125 7.2 
L 50.0125 7.2 
z
" style="fill: #ffffff; stroke: #808080; stroke-width: 0.8; stroke-linejoin: miter"/>
    </g>
    <g id="line2d_38">
     <path d="M 56.3125 18.4 
L 70.3125 18.4 
L 84.3125 18.4 
" style="fill: none; stroke: #1f77b4; stroke-width: 1.2; stroke-linecap: square"/>
    </g>
    <g id="text_19">
     <!-- DDPG -->
     <g transform="translate(92.7125 23.3) scale(0.14 -0.14)">
      <defs>
       <path id="SimHei-44" d="M 2925 2250 
Q 2925 1100 2437 612 
Q 1950 125 1125 125 
L 275 125 
L 275 4400 
L 1125 4400 
Q 2050 4400 2487 3900 
Q 2925 3400 2925 2250 
z
M 2325 2250 
Q 2325 3175 2025 3550 
Q 1725 3925 1125 3925 
L 850 3925 
L 850 600 
L 1125 600 
Q 1725 600 2025 962 
Q 2325 1325 2325 2250 
z
" transform="scale(0.015625)"/>
       <path id="SimHei-50" d="M 2950 3100 
Q 2950 2500 2600 2150 
Q 2250 1800 1625 1800 
L 900 1800 
L 900 125 
L 325 125 
L 325 4400 
L 1625 4400 
Q 2250 4400 2600 4050 
Q 2950 3700 2950 3100 
z
M 2375 3100 
Q 2375 3575 2150 3750 
Q 1925 3925 1475 3925 
L 900 3925 
L 900 2275 
L 1475 2275 
Q 1925 2275 2150 2450 
Q 2375 2625 2375 3100 
z
" transform="scale(0.015625)"/>
       <path id="SimHei-47" d="M 2850 75 
L 2425 75 
L 2350 425 
Q 2250 275 2037 175 
Q 1825 75 1575 75 
Q 1050 75 637 562 
Q 225 1050 225 2125 
Q 225 3300 600 3875 
Q 975 4450 1625 4450 
Q 2200 4450 2525 4025 
Q 2850 3600 2850 2925 
L 2300 2925 
Q 2300 3450 2125 3712 
Q 1950 3975 1625 3975 
Q 1225 3975 1025 3562 
Q 825 3150 825 2175 
Q 825 1250 1075 900 
Q 1325 550 1650 550 
Q 1975 550 2162 787 
Q 2350 1025 2350 1525 
L 2350 1800 
L 1575 1800 
L 1575 2275 
L 2850 2275 
L 2850 75 
z
" transform="scale(0.015625)"/>
      </defs>
      <use xlink:href="#SimHei-44"/>
      <use xlink:href="#SimHei-44" transform="translate(50 0)"/>
      <use xlink:href="#SimHei-50" transform="translate(100 0)"/>
      <use xlink:href="#SimHei-47" transform="translate(150 0)"/>
     </g>
    </g>
    <g id="line2d_39">
     <path d="M 186.6625 18.4 
L 200.6625 18.4 
L 214.6625 18.4 
" style="fill: none; stroke: #ff7f0e; stroke-width: 1.2; stroke-linecap: square"/>
    </g>
    <g id="text_20">
     <!-- PPO -->
     <g transform="translate(223.0625 23.3) scale(0.14 -0.14)">
      <defs>
       <path id="SimHei-4f" d="M 2950 2275 
Q 2950 1100 2587 587 
Q 2225 75 1575 75 
Q 925 75 550 587 
Q 175 1100 175 2275 
Q 175 3450 550 3950 
Q 925 4450 1575 4450 
Q 2225 4450 2587 3950 
Q 2950 3450 2950 2275 
z
M 2350 2275 
Q 2350 3325 2125 3650 
Q 1900 3975 1575 3975 
Q 1250 3975 1012 3650 
Q 775 3325 775 2275 
Q 775 1225 1012 887 
Q 1250 550 1575 550 
Q 1900 550 2125 887 
Q 2350 1225 2350 2275 
z
" transform="scale(0.015625)"/>
      </defs>
      <use xlink:href="#SimHei-50"/>
      <use xlink:href="#SimHei-50" transform="translate(50 0)"/>
      <use xlink:href="#SimHei-4f" transform="translate(100 0)"/>
     </g>
    </g>
    <g id="line2d_40">
     <path d="M 310.0125 18.4 
L 324.0125 18.4 
L 338.0125 18.4 
" style="fill: none; stroke: #2ca02c; stroke-width: 1.2; stroke-linecap: square"/>
    </g>
    <g id="text_21">
     <!-- TD3 -->
     <g transform="translate(346.4125 23.3) scale(0.14 -0.14)">
      <use xlink:href="#SimHei-54"/>
      <use xlink:href="#SimHei-44" transform="translate(50 0)"/>
      <use xlink:href="#SimHei-33" transform="translate(100 0)"/>
     </g>
    </g>
    <g id="line2d_41">
     <path d="M 433.3625 18.4 
L 447.3625 18.4 
L 461.3625 18.4 
" style="fill: none; stroke: #d62728; stroke-width: 1.2; stroke-linecap: square"/>
    </g>
    <g id="text_22">
     <!-- GCN-DDQN -->
     <g transform="translate(469.7625 23.3) scale(0.14 -0.14)">
      <defs>
       <path id="SimHei-43" d="M 2975 1825 
Q 2950 875 2575 475 
Q 2200 75 1675 75 
Q 1075 75 650 562 
Q 225 1050 225 2125 
Q 225 3300 637 3875 
Q 1050 4450 1700 4450 
Q 2250 4450 2612 4037 
Q 2975 3625 2950 2875 
L 2400 2875 
Q 2400 3425 2225 3700 
Q 2050 3975 1700 3975 
Q 1300 3975 1062 3562 
Q 825 3150 825 2175 
Q 825 1275 1062 912 
Q 1300 550 1675 550 
Q 1950 550 2175 812 
Q 2400 1075 2400 1825 
L 2975 1825 
z
" transform="scale(0.015625)"/>
       <path id="SimHei-4e" d="M 2850 125 
L 2225 125 
L 850 3225 
L 825 3225 
L 825 125 
L 250 125 
L 250 4400 
L 875 4400 
L 2250 1300 
L 2275 1300 
L 2275 4400 
L 2850 4400 
L 2850 125 
z
" transform="scale(0.015625)"/>
       <path id="SimHei-2d" d="M 2975 2125 
L 125 2125 
L 125 2525 
L 2975 2525 
L 2975 2125 
z
" transform="scale(0.015625)"/>
       <path id="SimHei-51" d="M 2950 2275 
Q 2950 1675 2862 1262 
Q 2775 850 2575 600 
L 2775 225 
L 2375 -200 
L 2150 225 
Q 2050 150 1900 112 
Q 1750 75 1575 75 
Q 925 75 550 587 
Q 175 1100 175 2275 
Q 175 3450 550 3950 
Q 925 4450 1575 4450 
Q 2225 4450 2587 3950 
Q 2950 3450 2950 2275 
z
M 2350 2275 
Q 2350 3325 2125 3650 
Q 1900 3975 1575 3975 
Q 1250 3975 1012 3650 
Q 775 3325 775 2275 
Q 775 1225 1012 887 
Q 1250 550 1575 550 
Q 1700 550 1800 587 
Q 1900 625 1950 675 
L 1550 1450 
L 1900 1875 
L 2250 1200 
Q 2300 1450 2325 1650 
Q 2350 1850 2350 2275 
z
" transform="scale(0.015625)"/>
      </defs>
      <use xlink:href="#SimHei-47"/>
      <use xlink:href="#SimHei-43" transform="translate(50 0)"/>
      <use xlink:href="#SimHei-4e" transform="translate(100 0)"/>
      <use xlink:href="#SimHei-2d" transform="translate(150 0)"/>
      <use xlink:href="#SimHei-44" transform="translate(200 0)"/>
      <use xlink:href="#SimHei-44" transform="translate(250 0)"/>
      <use xlink:href="#SimHei-51" transform="translate(300 0)"/>
      <use xlink:href="#SimHei-4e" transform="translate(350 0)"/>
     </g>
    </g>
    <g id="line2d_42">
     <path d="M 591.7125 18.4 
L 605.7125 18.4 
L 619.7125 18.4 
" style="fill: none; stroke: #9b8ac9; stroke-width: 1.2; stroke-linecap: square"/>
    </g>
    <g id="text_23">
     <!-- GLDVTO -->
     <g transform="translate(628.1125 23.3) scale(0.14 -0.14)">
      <defs>
       <path id="SimHei-4c" d="M 2900 125 
L 300 125 
L 300 4400 
L 875 4400 
L 875 600 
L 2900 600 
L 2900 125 
z
" transform="scale(0.015625)"/>
       <path id="SimHei-56" d="M 3050 4400 
L 1800 75 
L 1300 75 
L 50 4400 
L 650 4400 
L 1525 1125 
L 1575 1125 
L 2450 4400 
L 3050 4400 
z
" transform="scale(0.015625)"/>
      </defs>
      <use xlink:href="#SimHei-47"/>
      <use xlink:href="#SimHei-4c" transform="translate(50 0)"/>
      <use xlink:href="#SimHei-44" transform="translate(100 0)"/>
      <use xlink:href="#SimHei-56" transform="translate(150 0)"/>
      <use xlink:href="#SimHei-54" transform="translate(200 0)"/>
      <use xlink:href="#SimHei-4f" transform="translate(250 0)"/>
     </g>
    </g>
   </g>
  </g>
 </g>
 <defs>
  <clipPath id="p798c09ab92">
   <rect x="50.0125" y="34.5036" width="626.4" height="315.36"/>
  </clipPath>
 </defs>
</svg>
