<?xml version="1.0" encoding="utf-8" standalone="no"?>
<!DOCTYPE svg PUBLIC "-//W3C//DTD SVG 1.1//EN"
  "http://www.w3.org/Graphics/SVG/1.1/DTD/svg11.dtd">
<svg xmlns:xlink="http://www.w3.org/1999/xlink" width="689.6125pt" height="391.6261pt" viewBox="0 0 689.6125 391.6261" xmlns="http://www.w3.org/2000/svg" version="1.1">
 <metadata>
  <rdf:RDF xmlns:dc="http://purl.org/dc/elements/1.1/" xmlns:cc="http://creativecommons.org/ns#" xmlns:rdf="http://www.w3.org/1999/02/22-rdf-syntax-ns#">
   <cc:Work>
    <dc:type rdf:resource="http://purl.org/dc/dcmitype/StillImage"/>
    <dc:date>2026-07-08T23:32:07.574977</dc:date>
    <dc:format>image/svg+xml</dc:format>
    <dc:creator>
     <cc:Agent>
      <dc:title>Matplotlib v3.10.7, https://matplotlib.org/</dc:title>
     </cc:Agent>
    </dc:creator>
   </cc:Work>
  </rdf:RDF>
 </metadata>
 <defs>
  <style type="text/css">*{stroke-linejoin: round; stroke-linecap: butt}</style>
 </defs>
 <g id="figure_1">
  <g id="patch_1">
   <path d="M 0 391.6261 
L 689.6125 391.6261 
L 689.6125 0 
L 0 0 
z
" style="fill: #ffffff"/>
  </g>
  <g id="axes_1">
   <g id="patch_2">
    <path d="M 56.0125 349.8636 
L 682.4125 349.8636 
L 682.4125 34.5036 
L 56.0125 34.5036 
z
" style="fill: #ffffff"/>
   </g>
   <g id="matplotlib.axis_1">
    <g id="xtick_1">
     <g id="line2d_1">
      <path d="M 84.485227 349.8636 
L 84.485227 34.5036 
" clip-path="url(#p12fb99b8b1)" style="fill: none; stroke-dasharray: 2.22,0.96; stroke-dashoffset: 0; stroke: #b0b0b0; stroke-opacity: 0.25; stroke-width: 0.6"/>
     </g>
     <g id="line2d_2">
      <defs>
       <path id="m410f4e8e7f" d="M 0 0 
L 0 3.5 
" style="stroke: #000000; stroke-width: 0.8"/>
      </defs>
      <g>
       <use xlink:href="#m410f4e8e7f" x="84.485227" y="349.8636" style="stroke: #000000; stroke-width: 0.8"/>
      </g>
     </g>
     <g id="text_1">
      <!-- 0 -->
      <g transform="translate(81.485227 365.1136) scale(0.12 -0.12)">
       <defs>
        <path id="SimHei-30" d="M 225 2537 
Q 250 3200 412 3587 
Q 575 3975 875 4225 
Q 1175 4475 1612 4475 
Q 2050 4475 2375 4112 
Q 2700 3750 2800 3200 
Q 2900 2650 2862 1937 
Q 2825 1225 2612 775 
Q 2400 325 1975 150 
Q 1550 -25 1125 187 
Q 700 400 525 750 
Q 350 1100 275 1487 
Q 200 1875 225 2537 
z
M 750 2687 
Q 675 2000 800 1462 
Q 925 925 1212 700 
Q 1500 475 1800 612 
Q 2100 750 2237 1162 
Q 2375 1575 2375 2062 
Q 2375 2550 2337 2950 
Q 2300 3350 2112 3675 
Q 1925 4000 1612 4012 
Q 1300 4025 1062 3700 
Q 825 3375 750 2687 
z
" transform="scale(0.015625)"/>
       </defs>
       <use xlink:href="#SimHei-30"/>
      </g>
     </g>
    </g>
    <g id="xtick_2">
     <g id="line2d_3">
      <path d="M 155.845446 349.8636 
L 155.845446 34.5036 
" clip-path="url(#p12fb99b8b1)" style="fill: none; stroke-dasharray: 2.22,0.96; stroke-dashoffset: 0; stroke: #b0b0b0; stroke-opacity: 0.25; stroke-width: 0.6"/>
     </g>
     <g id="line2d_4">
      <g>
       <use xlink:href="#m410f4e8e7f" x="155.845446" y="349.8636" style="stroke: #000000; stroke-width: 0.8"/>
      </g>
     </g>
     <g id="text_2">
      <!-- 50 -->
      <g transform="translate(149.845446 365.1136) scale(0.12 -0.12)">
       <defs>
        <path id="SimHei-35" d="M 550 1325 
Q 725 650 1150 575 
Q 1575 500 1837 662 
Q 2100 825 2212 1087 
Q 2325 1350 2312 1675 
Q 2300 2000 2137 2225 
Q 1975 2450 1725 2525 
Q 1475 2600 1162 2525 
Q 850 2450 650 2175 
L 225 2225 
Q 275 2375 700 4375 
L 2675 4375 
L 2675 3925 
L 1075 3925 
Q 950 3250 825 2850 
Q 1200 3025 1525 3012 
Q 1850 3000 2150 2862 
Q 2450 2725 2587 2487 
Q 2725 2250 2787 2012 
Q 2850 1775 2837 1500 
Q 2825 1225 2725 937 
Q 2625 650 2425 462 
Q 2225 275 1937 162 
Q 1650 50 1275 75 
Q 900 100 562 350 
Q 225 600 100 1200 
L 550 1325 
z
" transform="scale(0.015625)"/>
       </defs>
       <use xlink:href="#SimHei-35"/>
       <use xlink:href="#SimHei-30" transform="translate(50 0)"/>
      </g>
     </g>
    </g>
    <g id="xtick_3">
     <g id="line2d_5">
      <path d="M 227.205665 349.8636 
L 227.205665 34.5036 
" clip-path="url(#p12fb99b8b1)" style="fill: none; stroke-dasharray: 2.22,0.96; stroke-dashoffset: 0; stroke: #b0b0b0; stroke-opacity: 0.25; stroke-width: 0.6"/>
     </g>
     <g id="line2d_6">
      <g>
       <use xlink:href="#m410f4e8e7f" x="227.205665" y="349.8636" style="stroke: #000000; stroke-width: 0.8"/>
      </g>
     </g>
     <g id="text_3">
      <!-- 100 -->
      <g transform="translate(218.205665 365.1136) scale(0.12 -0.12)">
       <defs>
        <path id="SimHei-31" d="M 1400 3600 
Q 1075 3275 575 2975 
L 575 3450 
Q 1200 3875 1600 4450 
L 1900 4450 
L 1900 150 
L 1400 150 
L 1400 3600 
z
" transform="scale(0.015625)"/>
       </defs>
       <use xlink:href="#SimHei-31"/>
       <use xlink:href="#SimHei-30" transform="translate(50 0)"/>
       <use xlink:href="#SimHei-30" transform="translate(100 0)"/>
      </g>
     </g>
    </g>
    <g id="xtick_4">
     <g id="line2d_7">
      <path d="M 298.565883 349.8636 
L 298.565883 34.5036 
" clip-path="url(#p12fb99b8b1)" style="fill: none; stroke-dasharray: 2.22,0.96; stroke-dashoffset: 0; stroke: #b0b0b0; stroke-opacity: 0.25; stroke-width: 0.6"/>
     </g>
     <g id="line2d_8">
      <g>
       <use xlink:href="#m410f4e8e7f" x="298.565883" y="349.8636" style="stroke: #000000; stroke-width: 0.8"/>
      </g>
     </g>
     <g id="text_4">
      <!-- 150 -->
      <g transform="translate(289.565883 365.1136) scale(0.12 -0.12)">
       <use xlink:href="#SimHei-31"/>
       <use xlink:href="#SimHei-35" transform="translate(50 0)"/>
       <use xlink:href="#SimHei-30" transform="translate(100 0)"/>
      </g>
     </g>
    </g>
    <g id="xtick_5">
     <g id="line2d_9">
      <path d="M 369.926102 349.8636 
L 369.926102 34.5036 
" clip-path="url(#p12fb99b8b1)" style="fill: none; stroke-dasharray: 2.22,0.96; stroke-dashoffset: 0; stroke: #b0b0b0; stroke-opacity: 0.25; stroke-width: 0.6"/>
     </g>
     <g id="line2d_10">
      <g>
       <use xlink:href="#m410f4e8e7f" x="369.926102" y="349.8636" style="stroke: #000000; stroke-width: 0.8"/>
      </g>
     </g>
     <g id="text_5">
      <!-- 200 -->
      <g transform="translate(360.926102 365.1136) scale(0.12 -0.12)">
       <defs>
        <path id="SimHei-32" d="M 300 250 
Q 325 625 650 925 
Q 975 1225 1475 1862 
Q 1975 2500 2125 2850 
Q 2275 3200 2237 3450 
Q 2200 3700 2000 3862 
Q 1800 4025 1537 4000 
Q 1275 3975 1037 3800 
Q 800 3625 675 3275 
L 200 3350 
Q 400 3925 712 4187 
Q 1025 4450 1450 4475 
Q 1700 4500 1900 4462 
Q 2100 4425 2312 4287 
Q 2525 4150 2662 3875 
Q 2800 3600 2762 3212 
Q 2725 2825 2375 2287 
Q 2025 1750 1025 600 
L 2825 600 
L 2825 150 
L 300 150 
L 300 250 
z
" transform="scale(0.015625)"/>
       </defs>
       <use xlink:href="#SimHei-32"/>
       <use xlink:href="#SimHei-30" transform="translate(50 0)"/>
       <use xlink:href="#SimHei-30" transform="translate(100 0)"/>
      </g>
     </g>
    </g>
    <g id="xtick_6">
     <g id="line2d_11">
      <path d="M 441.286321 349.8636 
L 441.286321 34.5036 
" clip-path="url(#p12fb99b8b1)" style="fill: none; stroke-dasharray: 2.22,0.96; stroke-dashoffset: 0; stroke: #b0b0b0; stroke-opacity: 0.25; stroke-width: 0.6"/>
     </g>
     <g id="line2d_12">
      <g>
       <use xlink:href="#m410f4e8e7f" x="441.286321" y="349.8636" style="stroke: #000000; stroke-width: 0.8"/>
      </g>
     </g>
     <g id="text_6">
      <!-- 250 -->
      <g transform="translate(432.286321 365.1136) scale(0.12 -0.12)">
       <use xlink:href="#SimHei-32"/>
       <use xlink:href="#SimHei-35" transform="translate(50 0)"/>
       <use xlink:href="#SimHei-30" transform="translate(100 0)"/>
      </g>
     </g>
    </g>
    <g id="xtick_7">
     <g id="line2d_13">
      <path d="M 512.64654 349.8636 
L 512.64654 34.5036 
" clip-path="url(#p12fb99b8b1)" style="fill: none; stroke-dasharray: 2.22,0.96; stroke-dashoffset: 0; stroke: #b0b0b0; stroke-opacity: 0.25; stroke-width: 0.6"/>
     </g>
     <g id="line2d_14">
      <g>
       <use xlink:href="#m410f4e8e7f" x="512.64654" y="349.8636" style="stroke: #000000; stroke-width: 0.8"/>
      </g>
     </g>
     <g id="text_7">
      <!-- 300 -->
      <g transform="translate(503.64654 365.1136) scale(0.12 -0.12)">
       <defs>
        <path id="SimHei-33" d="M 250 1225 
L 700 1300 
Q 800 975 1025 762 
Q 1250 550 1587 562 
Q 1925 575 2125 837 
Q 2325 1100 2300 1437 
Q 2275 1775 2037 1962 
Q 1800 2150 1275 2225 
L 1275 2550 
Q 1800 2600 2037 2825 
Q 2275 3050 2250 3412 
Q 2225 3775 1925 3937 
Q 1625 4100 1287 3975 
Q 950 3850 750 3275 
L 300 3350 
Q 450 3800 712 4100 
Q 975 4400 1425 4450 
Q 1875 4500 2212 4337 
Q 2550 4175 2687 3837 
Q 2825 3500 2725 3100 
Q 2625 2700 2150 2400 
Q 2500 2250 2687 1950 
Q 2875 1650 2812 1162 
Q 2750 675 2375 375 
Q 2000 75 1525 87 
Q 1050 100 700 387 
Q 350 675 250 1225 
z
" transform="scale(0.015625)"/>
       </defs>
       <use xlink:href="#SimHei-33"/>
       <use xlink:href="#SimHei-30" transform="translate(50 0)"/>
       <use xlink:href="#SimHei-30" transform="translate(100 0)"/>
      </g>
     </g>
    </g>
    <g id="xtick_8">
     <g id="line2d_15">
      <path d="M 584.006758 349.8636 
L 584.006758 34.5036 
" clip-path="url(#p12fb99b8b1)" style="fill: none; stroke-dasharray: 2.22,0.96; stroke-dashoffset: 0; stroke: #b0b0b0; stroke-opacity: 0.25; stroke-width: 0.6"/>
     </g>
     <g id="line2d_16">
      <g>
       <use xlink:href="#m410f4e8e7f" x="584.006758" y="349.8636" style="stroke: #000000; stroke-width: 0.8"/>
      </g>
     </g>
     <g id="text_8">
      <!-- 350 -->
      <g transform="translate(575.006758 365.1136) scale(0.12 -0.12)">
       <use xlink:href="#SimHei-33"/>
       <use xlink:href="#SimHei-35" transform="translate(50 0)"/>
       <use xlink:href="#SimHei-30" transform="translate(100 0)"/>
      </g>
     </g>
    </g>
    <g id="xtick_9">
     <g id="line2d_17">
      <path d="M 655.366977 349.8636 
L 655.366977 34.5036 
" clip-path="url(#p12fb99b8b1)" style="fill: none; stroke-dasharray: 2.22,0.96; stroke-dashoffset: 0; stroke: #b0b0b0; stroke-opacity: 0.25; stroke-width: 0.6"/>
     </g>
     <g id="line2d_18">
      <g>
       <use xlink:href="#m410f4e8e7f" x="655.366977" y="349.8636" style="stroke: #000000; stroke-width: 0.8"/>
      </g>
     </g>
     <g id="text_9">
      <!-- 400 -->
      <g transform="translate(646.366977 365.1136) scale(0.12 -0.12)">
       <defs>
        <path id="SimHei-34" d="M 2000 1100 
L 75 1100 
L 75 1525 
L 2100 4450 
L 2475 4450 
L 2475 1525 
L 3075 1525 
L 3075 1100 
L 2475 1100 
L 2475 150 
L 2000 150 
L 2000 1100 
z
M 2000 1525 
L 2000 3500 
L 600 1525 
L 2000 1525 
z
" transform="scale(0.015625)"/>
       </defs>
       <use xlink:href="#SimHei-34"/>
       <use xlink:href="#SimHei-30" transform="translate(50 0)"/>
       <use xlink:href="#SimHei-30" transform="translate(100 0)"/>
      </g>
     </g>
    </g>
    <g id="text_10">
     <!-- Episode -->
     <g transform="translate(339.4625 382.3011) scale(0.17 -0.17)">
      <defs>
       <path id="SimHei-45" d="M 2900 125 
L 350 125 
L 350 4400 
L 2775 4400 
L 2775 3925 
L 925 3925 
L 925 2600 
L 2625 2600 
L 2625 2125 
L 925 2125 
L 925 600 
L 2900 600 
L 2900 125 
z
" transform="scale(0.015625)"/>
       <path id="SimHei-70" d="M 2825 1525 
Q 2825 800 2475 425 
Q 2125 50 1625 50 
Q 1350 50 1150 162 
Q 950 275 800 500 
L 800 -800 
L 300 -800 
L 300 2925 
L 800 2925 
L 800 2550 
Q 950 2775 1150 2875 
Q 1350 2975 1625 2975 
Q 2125 2975 2475 2612 
Q 2825 2250 2825 1525 
z
M 2275 1525 
Q 2275 2000 2087 2262 
Q 1900 2525 1525 2525 
Q 1225 2525 1012 2262 
Q 800 2000 800 1525 
Q 800 1050 1012 775 
Q 1225 500 1525 500 
Q 1900 500 2087 775 
Q 2275 1050 2275 1525 
z
" transform="scale(0.015625)"/>
       <path id="SimHei-69" d="M 1800 3725 
L 1300 3725 
L 1300 4375 
L 1800 4375 
L 1800 3725 
z
M 1800 125 
L 1300 125 
L 1300 2925 
L 1800 2925 
L 1800 125 
z
" transform="scale(0.015625)"/>
       <path id="SimHei-73" d="M 2750 900 
Q 2750 500 2437 287 
Q 2125 75 1650 75 
Q 1050 75 725 312 
Q 400 550 400 1000 
L 900 1000 
Q 900 700 1112 600 
Q 1325 500 1625 500 
Q 1925 500 2075 612 
Q 2225 725 2225 900 
Q 2225 1025 2100 1150 
Q 1975 1275 1475 1350 
Q 900 1425 687 1637 
Q 475 1850 475 2200 
Q 475 2500 762 2737 
Q 1050 2975 1600 2975 
Q 2100 2975 2387 2750 
Q 2675 2525 2675 2150 
L 2175 2150 
Q 2175 2375 2012 2462 
Q 1850 2550 1600 2550 
Q 1275 2550 1137 2437 
Q 1000 2325 1000 2175 
Q 1000 2000 1125 1900 
Q 1250 1800 1650 1750 
Q 2300 1650 2525 1437 
Q 2750 1225 2750 900 
z
" transform="scale(0.015625)"/>
       <path id="SimHei-6f" d="M 2925 1525 
Q 2925 875 2525 475 
Q 2125 75 1575 75 
Q 1025 75 625 475 
Q 225 875 225 1525 
Q 225 2175 625 2575 
Q 1025 2975 1575 2975 
Q 2125 2975 2525 2575 
Q 2925 2175 2925 1525 
z
M 2375 1525 
Q 2375 2025 2125 2275 
Q 1875 2525 1575 2525 
Q 1275 2525 1025 2275 
Q 775 2025 775 1525 
Q 775 1025 1025 775 
Q 1275 525 1575 525 
Q 1875 525 2125 775 
Q 2375 1025 2375 1525 
z
" transform="scale(0.015625)"/>
       <path id="SimHei-64" d="M 2750 125 
L 2250 125 
L 2250 500 
Q 2100 275 1900 175 
Q 1700 75 1425 75 
Q 925 75 575 437 
Q 225 800 225 1525 
Q 225 2250 575 2625 
Q 925 3000 1425 3000 
Q 1700 3000 1900 2887 
Q 2100 2775 2250 2550 
L 2250 4400 
L 2750 4400 
L 2750 125 
z
M 2250 1525 
Q 2250 2000 2037 2275 
Q 1825 2550 1525 2550 
Q 1150 2550 962 2275 
Q 775 2000 775 1525 
Q 775 1050 962 787 
Q 1150 525 1525 525 
Q 1825 525 2037 787 
Q 2250 1050 2250 1525 
z
" transform="scale(0.015625)"/>
       <path id="SimHei-65" d="M 2850 1075 
Q 2800 625 2450 350 
Q 2100 75 1625 75 
Q 1025 75 637 462 
Q 250 850 250 1525 
Q 250 2200 637 2587 
Q 1025 2975 1625 2975 
Q 2150 2975 2487 2637 
Q 2825 2300 2825 1525 
L 800 1525 
Q 800 975 1037 750 
Q 1275 525 1625 525 
Q 1900 525 2075 662 
Q 2250 800 2300 1075 
L 2850 1075 
z
M 2250 1925 
Q 2200 2275 2025 2412 
Q 1850 2550 1575 2550 
Q 1325 2550 1125 2412 
Q 925 2275 825 1925 
L 2250 1925 
z
" transform="scale(0.015625)"/>
      </defs>
      <use xlink:href="#SimHei-45"/>
      <use xlink:href="#SimHei-70" transform="translate(50 0)"/>
      <use xlink:href="#SimHei-69" transform="translate(100 0)"/>
      <use xlink:href="#SimHei-73" transform="translate(150 0)"/>
      <use xlink:href="#SimHei-6f" transform="translate(200 0)"/>
      <use xlink:href="#SimHei-64" transform="translate(250 0)"/>
      <use xlink:href="#SimHei-65" transform="translate(300 0)"/>
     </g>
    </g>
   </g>
   <g id="matplotlib.axis_2">
    <g id="ytick_1">
     <g id="line2d_19">
      <path d="M 56.0125 331.626966 
L 682.4125 331.626966 
" clip-path="url(#p12fb99b8b1)" style="fill: none; stroke-dasharray: 2.22,0.96; stroke-dashoffset: 0; stroke: #b0b0b0; stroke-opacity: 0.25; stroke-width: 0.6"/>
     </g>
     <g id="line2d_20">
      <defs>
       <path id="ma673a1d9ab" d="M 0 0 
L -3.5 0 
" style="stroke: #000000; stroke-width: 0.8"/>
      </defs>
      <g>
       <use xlink:href="#ma673a1d9ab" x="56.0125" y="331.626966" style="stroke: #000000; stroke-width: 0.8"/>
      </g>
     </g>
     <g id="text_11">
      <!-- 0.05 -->
      <g transform="translate(25.0125 335.751966) scale(0.12 -0.12)">
       <defs>
        <path id="SimHei-2e" d="M 1075 125 
L 500 125 
L 500 675 
L 1075 675 
L 1075 125 
z
" transform="scale(0.015625)"/>
       </defs>
       <use xlink:href="#SimHei-30"/>
       <use xlink:href="#SimHei-2e" transform="translate(50 0)"/>
       <use xlink:href="#SimHei-30" transform="translate(100 0)"/>
       <use xlink:href="#SimHei-35" transform="translate(150 0)"/>
      </g>
     </g>
    </g>
    <g id="ytick_2">
     <g id="line2d_21">
      <path d="M 56.0125 270.724123 
L 682.4125 270.724123 
" clip-path="url(#p12fb99b8b1)" style="fill: none; stroke-dasharray: 2.22,0.96; stroke-dashoffset: 0; stroke: #b0b0b0; stroke-opacity: 0.25; stroke-width: 0.6"/>
     </g>
     <g id="line2d_22">
      <g>
       <use xlink:href="#ma673a1d9ab" x="56.0125" y="270.724123" style="stroke: #000000; stroke-width: 0.8"/>
      </g>
     </g>
     <g id="text_12">
      <!-- 0.10 -->
      <g transform="translate(25.0125 274.849123) scale(0.12 -0.12)">
       <use xlink:href="#SimHei-30"/>
       <use xlink:href="#SimHei-2e" transform="translate(50 0)"/>
       <use xlink:href="#SimHei-31" transform="translate(100 0)"/>
       <use xlink:href="#SimHei-30" transform="translate(150 0)"/>
      </g>
     </g>
    </g>
    <g id="ytick_3">
     <g id="line2d_23">
      <path d="M 56.0125 209.821279 
L 682.4125 209.821279 
" clip-path="url(#p12fb99b8b1)" style="fill: none; stroke-dasharray: 2.22,0.96; stroke-dashoffset: 0; stroke: #b0b0b0; stroke-opacity: 0.25; stroke-width: 0.6"/>
     </g>
     <g id="line2d_24">
      <g>
       <use xlink:href="#ma673a1d9ab" x="56.0125" y="209.821279" style="stroke: #000000; stroke-width: 0.8"/>
      </g>
     </g>
     <g id="text_13">
      <!-- 0.15 -->
      <g transform="translate(25.0125 213.946279) scale(0.12 -0.12)">
       <use xlink:href="#SimHei-30"/>
       <use xlink:href="#SimHei-2e" transform="translate(50 0)"/>
       <use xlink:href="#SimHei-31" transform="translate(100 0)"/>
       <use xlink:href="#SimHei-35" transform="translate(150 0)"/>
      </g>
     </g>
    </g>
    <g id="ytick_4">
     <g id="line2d_25">
      <path d="M 56.0125 148.918436 
L 682.4125 148.918436 
" clip-path="url(#p12fb99b8b1)" style="fill: none; stroke-dasharray: 2.22,0.96; stroke-dashoffset: 0; stroke: #b0b0b0; stroke-opacity: 0.25; stroke-width: 0.6"/>
     </g>
     <g id="line2d_26">
      <g>
       <use xlink:href="#ma673a1d9ab" x="56.0125" y="148.918436" style="stroke: #000000; stroke-width: 0.8"/>
      </g>
     </g>
     <g id="text_14">
      <!-- 0.20 -->
      <g transform="translate(25.0125 153.043436) scale(0.12 -0.12)">
       <use xlink:href="#SimHei-30"/>
       <use xlink:href="#SimHei-2e" transform="translate(50 0)"/>
       <use xlink:href="#SimHei-32" transform="translate(100 0)"/>
       <use xlink:href="#SimHei-30" transform="translate(150 0)"/>
      </g>
     </g>
    </g>
    <g id="ytick_5">
     <g id="line2d_27">
      <path d="M 56.0125 88.015593 
L 682.4125 88.015593 
" clip-path="url(#p12fb99b8b1)" style="fill: none; stroke-dasharray: 2.22,0.96; stroke-dashoffset: 0; stroke: #b0b0b0; stroke-opacity: 0.25; stroke-width: 0.6"/>
     </g>
     <g id="line2d_28">
      <g>
       <use xlink:href="#ma673a1d9ab" x="56.0125" y="88.015593" style="stroke: #000000; stroke-width: 0.8"/>
      </g>
     </g>
     <g id="text_15">
      <!-- 0.25 -->
      <g transform="translate(25.0125 92.140593) scale(0.12 -0.12)">
       <use xlink:href="#SimHei-30"/>
       <use xlink:href="#SimHei-2e" transform="translate(50 0)"/>
       <use xlink:href="#SimHei-32" transform="translate(100 0)"/>
       <use xlink:href="#SimHei-35" transform="translate(150 0)"/>
      </g>
     </g>
    </g>
    <g id="text_16">
     <!-- Total Task Latency -->
     <g transform="translate(18.8875 268.6836) rotate(-90) scale(0.17 -0.17)">
      <defs>
       <path id="SimHei-54" d="M 2850 3925 
L 1850 3925 
L 1850 125 
L 1275 125 
L 1275 3925 
L 275 3925 
L 275 4400 
L 2850 4400 
L 2850 3925 
z
" transform="scale(0.015625)"/>
       <path id="SimHei-74" d="M 2750 200 
Q 2625 150 2462 112 
Q 2300 75 2025 75 
Q 1575 75 1300 325 
Q 1025 575 1025 1025 
L 1025 2525 
L 175 2525 
L 175 2925 
L 1025 2925 
L 1025 3900 
L 1525 3900 
L 1525 2925 
L 2550 2925 
L 2550 2525 
L 1525 2525 
L 1525 1000 
Q 1525 800 1625 662 
Q 1725 525 2000 525 
Q 2275 525 2450 575 
Q 2625 625 2750 700 
L 2750 200 
z
" transform="scale(0.015625)"/>
       <path id="SimHei-61" d="M 2875 125 
L 2275 125 
Q 2225 175 2200 262 
Q 2175 350 2175 475 
Q 2000 275 1750 175 
Q 1500 75 1225 75 
Q 825 75 550 275 
Q 275 475 275 850 
Q 275 1225 525 1450 
Q 775 1675 1300 1750 
Q 1650 1800 1912 1875 
Q 2175 1950 2175 2075 
Q 2175 2225 2062 2375 
Q 1950 2525 1575 2525 
Q 1275 2525 1137 2412 
Q 1000 2300 950 2100 
L 400 2100 
Q 450 2500 762 2737 
Q 1075 2975 1575 2975 
Q 2125 2975 2400 2725 
Q 2675 2475 2675 2025 
L 2675 650 
Q 2675 500 2725 375 
Q 2775 250 2875 125 
z
M 2175 1050 
L 2175 1550 
Q 2025 1500 1887 1462 
Q 1750 1425 1425 1375 
Q 1050 1325 937 1200 
Q 825 1075 825 900 
Q 825 750 937 637 
Q 1050 525 1275 525 
Q 1500 525 1762 650 
Q 2025 775 2175 1050 
z
" transform="scale(0.015625)"/>
       <path id="SimHei-6c" d="M 1825 125 
L 1325 125 
L 1325 4400 
L 1825 4400 
L 1825 125 
z
" transform="scale(0.015625)"/>
       <path id="SimHei-20" transform="scale(0.015625)"/>
       <path id="SimHei-6b" d="M 2925 125 
L 2350 125 
L 1450 1650 
L 875 1100 
L 875 125 
L 375 125 
L 375 4400 
L 875 4400 
L 875 1675 
L 2125 2925 
L 2750 2925 
L 1775 1975 
L 2925 125 
z
" transform="scale(0.015625)"/>
       <path id="SimHei-4c" d="M 2900 125 
L 300 125 
L 300 4400 
L 875 4400 
L 875 600 
L 2900 600 
L 2900 125 
z
" transform="scale(0.015625)"/>
       <path id="SimHei-6e" d="M 2800 125 
L 2300 125 
L 2300 1925 
Q 2300 2225 2150 2400 
Q 2000 2575 1750 2575 
Q 1425 2575 1137 2237 
Q 850 1900 850 1400 
L 850 125 
L 350 125 
L 350 2925 
L 850 2925 
L 850 2400 
Q 1050 2675 1287 2825 
Q 1525 2975 1900 2975 
Q 2350 2975 2575 2725 
Q 2800 2475 2800 2100 
L 2800 125 
z
" transform="scale(0.015625)"/>
       <path id="SimHei-63" d="M 2850 1250 
Q 2850 725 2487 400 
Q 2125 75 1575 75 
Q 1025 75 625 462 
Q 225 850 225 1525 
Q 225 2200 625 2587 
Q 1025 2975 1575 2975 
Q 2125 2975 2450 2687 
Q 2775 2400 2775 2000 
L 2225 2000 
Q 2200 2300 2012 2412 
Q 1825 2525 1575 2525 
Q 1275 2525 1025 2287 
Q 775 2050 775 1525 
Q 775 1000 1025 762 
Q 1275 525 1575 525 
Q 1900 525 2100 700 
Q 2300 875 2300 1250 
L 2850 1250 
z
" transform="scale(0.015625)"/>
       <path id="SimHei-79" d="M 2900 2925 
L 1750 -100 
Q 1650 -450 1450 -625 
Q 1250 -800 950 -800 
Q 825 -800 712 -787 
Q 600 -775 500 -725 
L 500 -225 
Q 600 -275 700 -300 
Q 800 -325 875 -325 
Q 1075 -325 1150 -262 
Q 1225 -200 1300 25 
L 200 2925 
L 750 2925 
L 1550 725 
L 1575 725 
L 2350 2925 
L 2900 2925 
z
" transform="scale(0.015625)"/>
      </defs>
      <use xlink:href="#SimHei-54"/>
      <use xlink:href="#SimHei-6f" transform="translate(50 0)"/>
      <use xlink:href="#SimHei-74" transform="translate(100 0)"/>
      <use xlink:href="#SimHei-61" transform="translate(150 0)"/>
      <use xlink:href="#SimHei-6c" transform="translate(200 0)"/>
      <use xlink:href="#SimHei-20" transform="translate(250 0)"/>
      <use xlink:href="#SimHei-54" transform="translate(300 0)"/>
      <use xlink:href="#SimHei-61" transform="translate(350 0)"/>
      <use xlink:href="#SimHei-73" transform="translate(400 0)"/>
      <use xlink:href="#SimHei-6b" transform="translate(450 0)"/>
      <use xlink:href="#SimHei-20" transform="translate(500 0)"/>
      <use xlink:href="#SimHei-4c" transform="translate(550 0)"/>
      <use xlink:href="#SimHei-61" transform="translate(600 0)"/>
      <use xlink:href="#SimHei-74" transform="translate(650 0)"/>
      <use xlink:href="#SimHei-65" transform="translate(700 0)"/>
      <use xlink:href="#SimHei-6e" transform="translate(750 0)"/>
      <use xlink:href="#SimHei-63" transform="translate(800 0)"/>
      <use xlink:href="#SimHei-79" transform="translate(850 0)"/>
     </g>
    </g>
   </g>
   <g id="line2d_29">
    <path d="M 84.485227 268.808486 
L 87.339636 243.91867 
L 88.76684 247.711622 
L 90.194045 252.797429 
L 93.048454 247.376205 
L 94.475658 235.917367 
L 97.330067 231.939603 
L 98.757271 223.0056 
L 100.184475 226.947472 
L 101.61168 218.185786 
L 103.038884 229.412925 
L 104.466089 231.875189 
L 105.893293 225.133443 
L 107.320497 223.414199 
L 108.747702 233.233339 
L 110.174906 231.182319 
L 111.60211 238.363831 
L 113.029315 237.675899 
L 114.456519 244.788687 
L 115.883724 240.888012 
L 117.310928 244.647556 
L 118.738132 243.635443 
L 120.165337 245.171675 
L 121.592541 254.505128 
L 124.44695 268.6057 
L 125.874154 275.442032 
L 130.155767 290.560177 
L 131.582972 268.901605 
L 134.43738 280.708948 
L 137.291789 291.127144 
L 138.718994 295.366785 
L 140.146198 298.891773 
L 145.855015 310.805659 
L 147.28222 306.79474 
L 148.709424 308.41924 
L 150.136629 310.255853 
L 151.563833 311.328757 
L 152.991037 313.130388 
L 154.418242 314.168171 
L 155.845446 316.058064 
L 157.27265 314.925552 
L 160.127059 317.713115 
L 161.554263 318.63131 
L 162.981468 303.893316 
L 164.408672 299.802909 
L 165.835877 303.43527 
L 167.263081 306.686319 
L 168.690285 308.787605 
L 171.544694 314.004054 
L 172.971898 315.86391 
L 174.399103 291.543904 
L 175.826307 295.165579 
L 177.253512 299.664393 
L 178.680716 299.575965 
L 181.535125 306.47431 
L 184.389533 311.902512 
L 185.816738 305.220412 
L 187.243942 288.969009 
L 188.671147 292.815423 
L 190.098351 269.973965 
L 191.525555 276.136507 
L 194.379964 279.045486 
L 195.807168 284.20055 
L 197.234373 287.169295 
L 198.661577 274.218079 
L 200.088782 278.672239 
L 201.515986 283.641387 
L 202.94319 258.213979 
L 204.370395 265.358546 
L 205.797599 269.711487 
L 207.224803 275.158351 
L 208.652008 272.453731 
L 210.079212 258.202998 
L 211.506417 240.03326 
L 212.933621 249.33599 
L 214.360825 257.645033 
L 215.78803 227.668223 
L 217.215234 238.34345 
L 218.642438 244.94849 
L 220.069643 252.625804 
L 221.496847 236.477529 
L 222.924052 242.318077 
L 224.351256 246.493556 
L 225.77846 248.911576 
L 227.205665 256.848913 
L 230.060073 231.713571 
L 231.487278 222.075625 
L 232.914482 205.797276 
L 234.341687 207.034331 
L 235.768891 196.64125 
L 237.196095 209.50354 
L 238.6233 201.54377 
L 240.050504 205.069771 
L 241.477708 205.956093 
L 242.904913 180.696656 
L 244.332117 166.380378 
L 245.759322 156.812274 
L 247.186526 143.652087 
L 248.61373 159.10138 
L 250.040935 147.161276 
L 251.468139 146.159929 
L 252.895343 154.020984 
L 254.322548 158.510235 
L 255.749752 174.827587 
L 257.176957 183.904734 
L 258.604161 181.962347 
L 260.031365 173.243345 
L 261.45857 180.18367 
L 262.885774 181.065823 
L 264.312978 169.912725 
L 265.740183 177.137176 
L 267.167387 173.100368 
L 268.594592 172.996731 
L 270.021796 167.97341 
L 271.449 159.43715 
L 272.876205 158.713059 
L 274.303409 156.90629 
L 275.730613 146.079449 
L 277.157818 147.992683 
L 278.585022 131.758326 
L 280.012227 146.962208 
L 281.439431 149.770028 
L 282.866635 147.386312 
L 284.29384 153.74316 
L 285.721044 153.511329 
L 287.148248 151.467896 
L 288.575453 153.591825 
L 290.002657 143.230863 
L 291.429862 139.522424 
L 292.857066 134.336719 
L 294.28427 133.444878 
L 295.711475 141.61438 
L 297.138679 158.104924 
L 298.565883 165.735899 
L 299.993088 167.718129 
L 301.420292 163.872562 
L 302.847497 164.558302 
L 304.274701 155.80323 
L 305.701905 158.588436 
L 307.12911 165.433851 
L 308.556314 175.448397 
L 309.983518 171.130046 
L 311.410723 186.543725 
L 312.837927 180.894037 
L 314.265132 178.290485 
L 315.692336 183.050867 
L 317.11954 172.453535 
L 318.546745 172.014142 
L 319.973949 173.914595 
L 321.401153 175.259511 
L 322.828358 179.30539 
L 324.255562 172.677887 
L 325.682767 170.93827 
L 327.109971 177.573373 
L 328.537175 179.404734 
L 329.96438 174.974624 
L 331.391584 174.522453 
L 332.818788 186.936412 
L 334.245993 183.298232 
L 335.673197 194.879286 
L 337.100402 192.929806 
L 338.527606 180.432195 
L 339.95481 176.160156 
L 341.382015 170.277951 
L 342.809219 163.424765 
L 344.236423 163.209053 
L 345.663628 170.723393 
L 347.090832 169.981605 
L 348.518037 178.515786 
L 349.945241 176.406628 
L 351.372445 172.050088 
L 352.79965 176.6184 
L 354.226854 180.238919 
L 355.654058 174.942135 
L 357.081263 184.654317 
L 358.508467 173.84365 
L 359.935672 174.598145 
L 362.79008 186.793456 
L 364.217285 181.95782 
L 365.644489 182.980244 
L 367.071693 184.634199 
L 368.498898 191.196029 
L 369.926102 186.412146 
L 371.353307 187.92269 
L 372.780511 197.894225 
L 374.207715 203.138948 
L 375.63492 200.51072 
L 377.062124 201.534303 
L 378.489328 191.186056 
L 379.916533 191.790154 
L 381.343737 197.35198 
L 382.770942 203.9632 
L 384.198146 197.395206 
L 385.62535 188.72287 
L 387.052555 187.390686 
L 388.479759 198.467536 
L 389.906963 191.145062 
L 391.334168 191.642788 
L 392.761372 190.54728 
L 394.188577 181.887559 
L 395.615781 174.402717 
L 397.042985 184.205555 
L 398.47019 191.623077 
L 399.897394 197.84962 
L 401.324598 191.332675 
L 402.751803 198.595019 
L 404.179007 199.813043 
L 405.606212 202.31703 
L 407.033416 210.015695 
L 408.46062 211.018504 
L 409.887825 217.785544 
L 411.315029 211.844117 
L 412.742233 214.666076 
L 414.169438 212.042963 
L 415.596642 206.347596 
L 417.023847 205.545273 
L 418.451051 211.466054 
L 419.878255 202.489729 
L 421.30546 206.760683 
L 422.732664 198.240996 
L 424.159868 200.777351 
L 425.587073 207.047494 
L 428.441482 196.862045 
L 429.868686 183.313621 
L 431.29589 192.891047 
L 432.723095 186.064328 
L 434.150299 188.737634 
L 435.577503 195.303794 
L 437.004708 195.999017 
L 438.431912 209.269122 
L 439.859117 211.642403 
L 441.286321 206.329957 
L 442.713525 207.008121 
L 444.14073 205.267606 
L 445.567934 202.91746 
L 446.995138 199.568037 
L 448.422343 201.47506 
L 449.849547 207.101286 
L 451.276752 198.241555 
L 452.703956 198.491393 
L 454.13116 197.970724 
L 455.558365 199.500622 
L 456.985569 199.455381 
L 458.412773 207.67584 
L 459.839978 202.206649 
L 461.267182 210.199575 
L 462.694387 212.835155 
L 464.121591 210.620323 
L 465.548795 218.69748 
L 466.976 211.946247 
L 468.403204 215.959973 
L 469.830408 222.592918 
L 471.257613 212.380281 
L 472.684817 205.084083 
L 474.112022 205.428312 
L 476.96643 193.561237 
L 478.393635 198.767853 
L 479.820839 200.988647 
L 481.248043 192.985088 
L 482.675248 187.414799 
L 484.102452 193.437778 
L 485.529657 188.140449 
L 486.956861 189.890596 
L 488.384065 197.895179 
L 489.81127 204.855664 
L 492.665678 182.091569 
L 494.092883 175.187978 
L 495.520087 187.987482 
L 496.947292 189.104338 
L 498.374496 193.062503 
L 499.8017 185.111667 
L 501.228905 183.889526 
L 502.656109 176.64305 
L 504.083313 166.365012 
L 505.510518 164.038844 
L 506.937722 165.667308 
L 508.364927 177.407615 
L 509.792131 174.414346 
L 511.219335 174.694233 
L 512.64654 174.234061 
L 514.073744 172.71491 
L 515.500948 175.250135 
L 516.928153 181.586899 
L 518.355357 172.436215 
L 519.782562 177.659184 
L 521.209766 181.67419 
L 522.63697 178.322204 
L 524.064175 180.177161 
L 525.491379 186.65205 
L 526.918583 182.573974 
L 528.345788 175.904828 
L 529.772992 179.558273 
L 531.200197 180.293537 
L 532.627401 185.989572 
L 534.054605 180.48361 
L 535.48181 188.935888 
L 536.909014 176.276711 
L 538.336218 190.828638 
L 539.763423 187.921963 
L 541.190627 196.476338 
L 542.617832 201.461147 
L 544.045036 202.635085 
L 545.47224 202.586298 
L 546.899445 196.299835 
L 548.326649 198.791472 
L 549.753853 197.123033 
L 551.181058 197.196432 
L 552.608262 206.787271 
L 554.035467 211.300275 
L 555.462671 206.725284 
L 556.889875 209.665385 
L 558.31708 211.447474 
L 559.744284 217.785543 
L 561.171488 213.120585 
L 562.598693 216.607121 
L 564.025897 215.409676 
L 565.453102 222.790703 
L 566.880306 214.807318 
L 568.30751 207.992323 
L 569.734715 197.657594 
L 571.161919 201.218241 
L 572.589123 193.788222 
L 574.016328 196.692962 
L 575.443532 193.568811 
L 578.297941 212.96845 
L 579.725145 215.075762 
L 581.15235 222.141851 
L 582.579554 224.299313 
L 584.006758 222.424745 
L 585.433963 223.166016 
L 586.861167 215.010378 
L 588.288371 218.413904 
L 589.715576 222.324928 
L 591.14278 221.446111 
L 592.569985 209.80007 
L 593.997189 208.469834 
L 595.424393 219.297675 
L 596.851598 222.8389 
L 598.278802 222.052688 
L 599.706006 219.862372 
L 601.133211 228.175516 
L 602.560415 219.543123 
L 605.414824 206.250882 
L 606.842028 208.72018 
L 608.269233 211.437075 
L 609.696437 208.088568 
L 611.123641 206.272764 
L 612.550846 207.083908 
L 615.405255 186.243243 
L 616.832459 195.207942 
L 618.259663 200.702626 
L 619.686868 188.221634 
L 621.114072 187.249038 
L 622.541276 188.577443 
L 623.968481 200.371759 
L 625.395685 208.181324 
L 626.82289 210.085047 
L 628.250094 203.456999 
L 629.677298 206.434152 
L 631.104503 204.050621 
L 632.531707 206.159724 
L 633.958911 213.080519 
L 635.386116 216.206109 
L 636.81332 207.902656 
L 638.240525 201.451691 
L 639.667729 208.298802 
L 641.094933 206.008189 
L 642.522138 203.066948 
L 645.376546 195.336486 
L 646.803751 206.822752 
L 648.230955 196.563096 
L 649.65816 200.571402 
L 651.085364 213.479854 
L 652.512568 216.236506 
L 652.512568 216.236506 
" clip-path="url(#p12fb99b8b1)" style="fill: none; stroke: #1f77b4; stroke-width: 1.2; stroke-linecap: square"/>
   </g>
   <g id="line2d_30">
    <path d="M 84.485227 137.788326 
L 85.912432 137.631947 
L 87.339636 142.208964 
L 88.76684 139.903409 
L 90.194045 131.914375 
L 91.621249 131.944848 
L 93.048454 133.875825 
L 94.475658 130.283554 
L 95.902862 131.288044 
L 97.330067 131.246235 
L 98.757271 133.410562 
L 100.184475 130.152119 
L 101.61168 132.737455 
L 103.038884 135.966509 
L 104.466089 136.179447 
L 105.893293 135.730805 
L 107.320497 132.929499 
L 108.747702 131.380938 
L 110.174906 128.628645 
L 111.60211 128.103962 
L 113.029315 131.647809 
L 114.456519 133.947802 
L 115.883724 136.629973 
L 117.310928 135.388948 
L 118.738132 136.937028 
L 120.165337 136.693924 
L 121.592541 137.760876 
L 123.019745 141.15651 
L 124.44695 143.795915 
L 125.874154 143.974375 
L 127.301359 148.620961 
L 128.728563 147.932534 
L 130.155767 148.667884 
L 131.582972 146.375763 
L 133.010176 147.481025 
L 134.43738 149.032626 
L 135.864585 146.819338 
L 137.291789 149.815582 
L 138.718994 148.648755 
L 140.146198 151.969663 
L 141.573402 148.666706 
L 143.000607 154.026004 
L 144.427811 155.198753 
L 145.855015 158.419383 
L 147.28222 157.944213 
L 148.709424 155.355593 
L 150.136629 153.353205 
L 151.563833 159.233648 
L 152.991037 163.279515 
L 154.418242 165.756092 
L 155.845446 166.68563 
L 158.699855 171.602499 
L 160.127059 173.632615 
L 161.554263 177.758507 
L 162.981468 176.211564 
L 164.408672 175.273444 
L 165.835877 173.268127 
L 168.690285 172.468867 
L 170.11749 172.557068 
L 171.544694 175.163767 
L 172.971898 182.117472 
L 174.399103 188.345426 
L 175.826307 190.211093 
L 177.253512 187.307165 
L 180.10792 188.503755 
L 181.535125 188.59271 
L 182.962329 191.242225 
L 184.389533 192.206908 
L 185.816738 192.337045 
L 187.243942 191.537794 
L 188.671147 195.21012 
L 190.098351 198.528677 
L 191.525555 193.734888 
L 192.95276 195.23709 
L 194.379964 192.153336 
L 195.807168 196.431167 
L 197.234373 198.407913 
L 198.661577 201.07701 
L 200.088782 205.734104 
L 201.515986 206.455029 
L 202.94319 210.222358 
L 204.370395 212.808626 
L 205.797599 221.654314 
L 207.224803 226.445618 
L 208.652008 230.453283 
L 210.079212 229.447805 
L 211.506417 234.901159 
L 212.933621 234.854235 
L 214.360825 234.157353 
L 215.78803 238.435377 
L 217.215234 234.509651 
L 218.642438 233.936705 
L 220.069643 231.034886 
L 221.496847 232.850906 
L 222.924052 230.6744 
L 225.77846 230.559729 
L 227.205665 232.102979 
L 228.632869 234.921539 
L 230.060073 237.294189 
L 231.487278 238.309681 
L 232.914482 238.982757 
L 234.341687 239.28328 
L 235.768891 243.62148 
L 237.196095 245.080822 
L 238.6233 248.756577 
L 240.050504 248.965957 
L 241.477708 251.181273 
L 242.904913 250.121558 
L 244.332117 251.637383 
L 245.759322 250.642582 
L 247.186526 252.163448 
L 248.61373 254.638956 
L 250.040935 254.965471 
L 251.468139 257.659742 
L 252.895343 258.43122 
L 254.322548 260.896197 
L 255.749752 258.81689 
L 257.176957 260.424234 
L 258.604161 263.559241 
L 260.031365 261.204203 
L 261.45857 259.993112 
L 262.885774 260.809302 
L 264.312978 262.983369 
L 265.740183 261.95219 
L 267.167387 261.739632 
L 268.594592 263.200861 
L 271.449 268.50275 
L 272.876205 270.527786 
L 274.303409 273.762465 
L 275.730613 274.692157 
L 277.157818 276.173506 
L 278.585022 277.280488 
L 280.012227 275.919947 
L 281.439431 277.371808 
L 282.866635 276.771688 
L 284.29384 279.92469 
L 285.721044 279.088161 
L 287.148248 277.676328 
L 288.575453 280.576661 
L 290.002657 277.481604 
L 291.429862 279.197904 
L 292.857066 281.089983 
L 294.28427 280.097877 
L 295.711475 282.684953 
L 297.138679 283.029491 
L 298.565883 283.988876 
L 299.993088 284.380271 
L 301.420292 286.282203 
L 302.847497 289.113296 
L 304.274701 287.573612 
L 305.701905 289.482673 
L 307.12911 285.340387 
L 308.556314 285.868735 
L 309.983518 281.150372 
L 311.410723 280.659724 
L 312.837927 281.546319 
L 315.692336 290.059663 
L 317.11954 290.42905 
L 318.546745 291.723201 
L 319.973949 292.800566 
L 321.401153 288.528248 
L 322.828358 289.873083 
L 324.255562 292.610893 
L 325.682767 289.432992 
L 327.109971 292.027337 
L 328.537175 288.845869 
L 329.96438 288.349369 
L 331.391584 290.060855 
L 332.818788 288.541129 
L 334.245993 289.982742 
L 335.673197 287.465922 
L 337.100402 287.167035 
L 338.527606 287.244396 
L 339.95481 289.478021 
L 341.382015 289.80452 
L 342.809219 291.898582 
L 344.236423 293.35508 
L 345.663628 295.908579 
L 347.090832 297.647486 
L 348.518037 298.421399 
L 349.945241 298.346218 
L 351.372445 296.151766 
L 352.79965 296.742608 
L 354.226854 294.413229 
L 355.654058 293.43616 
L 357.081263 295.697726 
L 358.508467 294.525766 
L 359.935672 297.825256 
L 361.362876 294.935827 
L 362.79008 297.836333 
L 364.217285 299.468587 
L 365.644489 299.814081 
L 367.071693 299.537504 
L 369.926102 301.924796 
L 371.353307 303.1614 
L 372.780511 302.787581 
L 374.207715 303.202024 
L 375.63492 304.19461 
L 377.062124 303.019285 
L 379.916533 306.682997 
L 381.343737 304.588844 
L 382.770942 305.301344 
L 384.198146 304.718995 
L 385.62535 303.311927 
L 387.052555 304.280916 
L 388.479759 304.374681 
L 389.906963 306.847693 
L 391.334168 304.667429 
L 392.761372 304.265153 
L 394.188577 305.592231 
L 395.615781 306.722931 
L 397.042985 307.40809 
L 398.47019 308.80127 
L 399.897394 311.234988 
L 401.324598 310.754397 
L 402.751803 310.657053 
L 404.179007 313.232075 
L 405.606212 312.783011 
L 407.033416 312.977699 
L 408.46062 312.430059 
L 411.315029 313.375485 
L 412.742233 314.604186 
L 414.169438 316.238504 
L 415.596642 316.13904 
L 417.023847 313.210343 
L 418.451051 315.85457 
L 419.878255 317.194779 
L 421.30546 316.077731 
L 422.732664 317.217687 
L 424.159868 316.237595 
L 425.587073 316.389621 
L 428.441482 318.839484 
L 429.868686 318.083831 
L 431.29589 319.977516 
L 432.723095 320.39803 
L 434.150299 320.108737 
L 435.577503 320.004269 
L 437.004708 317.733889 
L 439.859117 319.182667 
L 441.286321 320.339453 
L 442.713525 320.243374 
L 444.14073 320.789439 
L 445.567934 321.153086 
L 446.995138 320.894949 
L 448.422343 320.904419 
L 449.849547 320.259243 
L 451.276752 321.59619 
L 452.703956 319.624621 
L 454.13116 318.795396 
L 455.558365 320.83951 
L 456.985569 320.676774 
L 458.412773 321.047372 
L 459.839978 321.664517 
L 461.267182 321.968122 
L 462.694387 316.897805 
L 464.121591 318.248635 
L 465.548795 319.426863 
L 468.403204 318.324471 
L 469.830408 319.141216 
L 471.257613 320.266994 
L 472.684817 321.688178 
L 474.112022 322.373849 
L 475.539226 323.653996 
L 476.96643 324.402491 
L 478.393635 325.476462 
L 479.820839 323.559964 
L 481.248043 324.764928 
L 482.675248 324.833416 
L 485.529657 324.563843 
L 486.956861 323.1499 
L 488.384065 324.019957 
L 489.81127 324.447062 
L 492.665678 325.984802 
L 494.092883 325.237911 
L 495.520087 325.024841 
L 496.947292 323.865998 
L 498.374496 324.523456 
L 499.8017 324.183545 
L 501.228905 322.352266 
L 502.656109 322.916374 
L 504.083313 324.363356 
L 505.510518 324.915376 
L 506.937722 324.150666 
L 508.364927 323.125135 
L 509.792131 323.565731 
L 511.219335 323.001419 
L 512.64654 323.644027 
L 514.073744 324.570696 
L 515.500948 325.896363 
L 516.928153 325.873311 
L 518.355357 326.925973 
L 519.782562 326.83725 
L 521.209766 326.893614 
L 522.63697 326.716929 
L 524.064175 327.535407 
L 525.491379 327.2963 
L 526.918583 327.845341 
L 528.345788 328.621165 
L 529.772992 328.690947 
L 531.200197 327.653174 
L 532.627401 328.310181 
L 535.48181 327.533489 
L 536.909014 327.47968 
L 538.336218 328.462357 
L 539.763423 328.764132 
L 541.190627 329.646659 
L 542.617832 329.693075 
L 545.47224 329.58571 
L 546.899445 330.329915 
L 548.326649 328.84194 
L 549.753853 329.345431 
L 551.181058 329.24848 
L 552.608262 328.94864 
L 554.035467 329.142301 
L 555.462671 329.799337 
L 556.889875 328.79397 
L 558.31708 329.820642 
L 559.744284 328.56987 
L 561.171488 329.336805 
L 562.598693 329.407016 
L 564.025897 330.063676 
L 565.453102 330.361416 
L 566.880306 331.185679 
L 568.30751 330.907167 
L 569.734715 329.681554 
L 571.161919 329.67842 
L 572.589123 330.4383 
L 574.016328 329.737062 
L 575.443532 329.228262 
L 576.870737 329.049743 
L 578.297941 328.084915 
L 579.725145 328.32282 
L 581.15235 328.363229 
L 582.579554 326.315644 
L 584.006758 326.877154 
L 586.861167 328.990064 
L 588.288371 329.970846 
L 589.715576 331.118043 
L 591.14278 331.70927 
L 592.569985 331.162192 
L 593.997189 330.088945 
L 595.424393 330.109771 
L 596.851598 329.343552 
L 598.278802 330.449072 
L 599.706006 330.001378 
L 601.133211 329.435499 
L 602.560415 329.905713 
L 603.98762 330.604142 
L 605.414824 331.052147 
L 606.842028 331.248316 
L 608.269233 331.258991 
L 609.696437 332.068489 
L 611.123641 331.710385 
L 612.550846 332.198501 
L 613.97805 331.953886 
L 615.405255 332.123388 
L 616.832459 332.795546 
L 618.259663 332.257969 
L 619.686868 331.880059 
L 621.114072 333.022029 
L 625.395685 331.655429 
L 626.82289 330.8714 
L 628.250094 330.729995 
L 629.677298 329.222999 
L 631.104503 328.309009 
L 632.531707 329.334592 
L 633.958911 329.107999 
L 635.386116 329.673635 
L 636.81332 329.924164 
L 638.240525 329.439282 
L 639.667729 329.111887 
L 641.094933 329.639252 
L 642.522138 329.448822 
L 643.949342 327.908454 
L 645.376546 327.338872 
L 646.803751 327.971656 
L 648.230955 328.007075 
L 649.65816 328.773231 
L 651.085364 327.81756 
L 652.512568 327.576193 
L 652.512568 327.576193 
" clip-path="url(#p12fb99b8b1)" style="fill: none; stroke: #ff7f0e; stroke-width: 1.2; stroke-linecap: square"/>
   </g>
   <g id="line2d_31">
    <path d="M 84.485227 198.512819 
L 85.912432 191.746199 
L 87.339636 190.621059 
L 88.76684 189.812652 
L 90.194045 190.980898 
L 91.621249 191.632275 
L 93.048454 196.890319 
L 94.475658 196.254538 
L 95.902862 193.397558 
L 97.330067 192.143533 
L 98.757271 192.2391 
L 100.184475 192.099608 
L 103.038884 196.555988 
L 104.466089 200.556827 
L 107.320497 201.905508 
L 108.747702 201.191421 
L 110.174906 200.852771 
L 111.60211 200.259328 
L 113.029315 196.949295 
L 114.456519 193.199106 
L 115.883724 194.287208 
L 117.310928 196.512875 
L 118.738132 201.27378 
L 120.165337 205.309243 
L 121.592541 212.735086 
L 123.019745 221.095688 
L 124.44695 231.175611 
L 125.874154 238.470368 
L 127.301359 244.121428 
L 128.728563 248.144113 
L 130.155767 249.526891 
L 131.582972 246.314556 
L 133.010176 246.813278 
L 134.43738 241.306914 
L 135.864585 239.045334 
L 137.291789 236.122996 
L 138.718994 230.643658 
L 140.146198 224.075789 
L 141.573402 220.924607 
L 143.000607 213.363507 
L 144.427811 213.675709 
L 145.855015 210.147043 
L 147.28222 207.486382 
L 148.709424 205.855677 
L 150.136629 201.705285 
L 151.563833 200.279747 
L 152.991037 202.384443 
L 154.418242 195.244796 
L 155.845446 196.89781 
L 157.27265 195.413728 
L 158.699855 189.308357 
L 160.127059 191.324454 
L 161.554263 188.15515 
L 162.981468 187.157883 
L 164.408672 188.669372 
L 165.835877 191.501298 
L 167.263081 189.594851 
L 168.690285 190.586778 
L 171.544694 186.042263 
L 172.971898 185.427706 
L 174.399103 187.926189 
L 175.826307 195.092162 
L 177.253512 201.220592 
L 178.680716 203.805316 
L 180.10792 208.573541 
L 181.535125 209.572851 
L 182.962329 214.800611 
L 184.389533 214.939627 
L 185.816738 219.261406 
L 187.243942 218.621348 
L 188.671147 219.799538 
L 190.098351 222.206503 
L 191.525555 227.133705 
L 192.95276 228.6703 
L 194.379964 229.356138 
L 195.807168 227.564099 
L 197.234373 228.51632 
L 200.088782 248.039624 
L 201.515986 256.583345 
L 202.94319 264.227042 
L 204.370395 271.005977 
L 205.797599 276.982247 
L 207.224803 282.442671 
L 208.652008 287.213392 
L 210.079212 292.429367 
L 211.506417 296.948235 
L 214.360825 303.598741 
L 215.78803 306.085758 
L 217.215234 309.090325 
L 218.642438 311.617543 
L 220.069643 313.913241 
L 221.496847 315.729348 
L 224.351256 319.794651 
L 225.77846 320.862676 
L 227.205665 321.338351 
L 228.632869 322.047211 
L 231.487278 324.466937 
L 232.914482 326.458271 
L 234.341687 327.509435 
L 235.768891 326.855689 
L 237.196095 326.605572 
L 238.6233 326.183751 
L 240.050504 327.539952 
L 241.477708 328.391163 
L 242.904913 327.926277 
L 244.332117 328.97546 
L 245.759322 329.423633 
L 247.186526 330.324705 
L 248.61373 330.433651 
L 250.040935 330.392629 
L 251.468139 330.833257 
L 252.895343 331.626802 
L 254.322548 331.975029 
L 258.604161 333.504355 
L 260.031365 332.713131 
L 261.45857 333.407957 
L 262.885774 333.178438 
L 264.312978 332.729352 
L 267.167387 332.750884 
L 268.594592 333.597529 
L 270.021796 333.637779 
L 271.449 333.9314 
L 272.876205 333.630012 
L 274.303409 333.649827 
L 275.730613 333.865673 
L 277.157818 333.066063 
L 281.439431 332.939208 
L 282.866635 332.380554 
L 284.29384 332.554877 
L 285.721044 331.742964 
L 287.148248 331.968569 
L 288.575453 330.395005 
L 290.002657 330.495608 
L 291.429862 330.829873 
L 294.28427 329.936379 
L 295.711475 330.327314 
L 298.565883 331.403167 
L 299.993088 330.940053 
L 301.420292 331.039544 
L 302.847497 330.9609 
L 304.274701 331.279336 
L 305.701905 331.828989 
L 307.12911 332.064764 
L 308.556314 331.819707 
L 309.983518 332.267665 
L 311.410723 331.641606 
L 312.837927 331.463775 
L 314.265132 331.472236 
L 315.692336 332.163939 
L 317.11954 332.498721 
L 318.546745 332.013239 
L 319.973949 332.463698 
L 321.401153 331.871986 
L 322.828358 332.20105 
L 324.255562 332.188879 
L 325.682767 332.902303 
L 327.109971 333.304978 
L 328.537175 333.205423 
L 329.96438 332.649576 
L 331.391584 333.002283 
L 332.818788 332.664051 
L 334.245993 332.869869 
L 337.100402 331.81854 
L 338.527606 332.250382 
L 339.95481 332.52001 
L 341.382015 333.102643 
L 342.809219 333.418884 
L 344.236423 333.952499 
L 345.663628 333.453717 
L 347.090832 332.372069 
L 348.518037 333.287872 
L 349.945241 332.465584 
L 351.372445 332.665294 
L 352.79965 332.379063 
L 357.081263 333.422982 
L 358.508467 333.402552 
L 359.935672 333.565129 
L 361.362876 332.930191 
L 362.79008 333.153421 
L 364.217285 332.85693 
L 365.644489 332.865046 
L 367.071693 332.191719 
L 368.498898 331.885147 
L 369.926102 331.425298 
L 371.353307 331.97301 
L 372.780511 331.579996 
L 374.207715 332.145796 
L 375.63492 332.328487 
L 377.062124 332.339368 
L 378.489328 332.465933 
L 379.916533 331.615128 
L 381.343737 331.849124 
L 382.770942 331.484184 
L 384.198146 331.289755 
L 385.62535 332.080192 
L 387.052555 331.309161 
L 388.479759 331.824095 
L 389.906963 331.824455 
L 391.334168 332.241388 
L 392.761372 332.270419 
L 394.188577 331.26983 
L 395.615781 330.680207 
L 397.042985 331.433455 
L 401.324598 332.107228 
L 402.751803 332.775899 
L 405.606212 332.502094 
L 407.033416 332.903413 
L 408.46062 332.967581 
L 409.887825 333.509104 
L 411.315029 333.885067 
L 412.742233 333.588338 
L 414.169438 332.980318 
L 415.596642 333.531823 
L 417.023847 332.909622 
L 418.451051 333.458202 
L 419.878255 333.049164 
L 421.30546 334.207774 
L 424.159868 333.814967 
L 425.587073 333.332797 
L 427.014277 333.012861 
L 428.441482 333.019066 
L 429.868686 332.295919 
L 431.29589 332.335845 
L 432.723095 333.169196 
L 434.150299 332.396231 
L 435.577503 332.758726 
L 437.004708 332.185449 
L 438.431912 332.111914 
L 439.859117 332.487835 
L 441.286321 332.676984 
L 442.713525 333.118041 
L 444.14073 332.823824 
L 445.567934 333.123745 
L 446.995138 333.769794 
L 448.422343 334.844804 
L 449.849547 334.010431 
L 451.276752 333.998538 
L 452.703956 333.84395 
L 455.558365 334.660135 
L 456.985569 334.024573 
L 458.412773 333.632402 
L 461.267182 333.657934 
L 462.694387 333.950222 
L 464.121591 334.024593 
L 465.548795 333.645671 
L 466.976 332.555371 
L 468.403204 332.414185 
L 469.830408 332.784166 
L 471.257613 333.813392 
L 472.684817 333.64813 
L 474.112022 332.962576 
L 475.539226 333.317837 
L 476.96643 332.264472 
L 478.393635 332.944566 
L 479.820839 334.045798 
L 481.248043 334.73496 
L 484.102452 335.105192 
L 485.529657 334.638008 
L 486.956861 334.932764 
L 488.384065 335.529055 
L 492.665678 334.768678 
L 494.092883 334.924448 
L 495.520087 334.211608 
L 498.374496 334.396724 
L 499.8017 334.621537 
L 501.228905 333.811837 
L 502.656109 333.627196 
L 504.083313 333.02322 
L 505.510518 333.07872 
L 506.937722 333.760537 
L 508.364927 333.639155 
L 509.792131 333.888768 
L 512.64654 333.209697 
L 514.073744 333.39634 
L 515.500948 332.75863 
L 516.928153 332.551638 
L 518.355357 332.091761 
L 519.782562 331.319032 
L 521.209766 332.522942 
L 522.63697 332.942559 
L 524.064175 331.982043 
L 526.918583 331.12243 
L 529.772992 331.506855 
L 531.200197 332.039087 
L 532.627401 332.447474 
L 534.054605 332.009192 
L 535.48181 331.849326 
L 536.909014 332.788613 
L 538.336218 332.779975 
L 539.763423 333.346069 
L 541.190627 332.876875 
L 542.617832 333.420644 
L 544.045036 333.718656 
L 545.47224 333.631994 
L 546.899445 333.048932 
L 548.326649 332.217904 
L 549.753853 332.243192 
L 551.181058 332.133236 
L 552.608262 333.112135 
L 554.035467 332.762509 
L 555.462671 332.968375 
L 556.889875 333.709169 
L 558.31708 334.206266 
L 559.744284 333.833959 
L 561.171488 333.941354 
L 562.598693 333.867067 
L 564.025897 334.081136 
L 565.453102 333.479275 
L 566.880306 333.354341 
L 568.30751 333.726741 
L 569.734715 333.536613 
L 571.161919 333.687517 
L 572.589123 333.387446 
L 574.016328 333.92845 
L 578.297941 332.808613 
L 579.725145 332.91903 
L 581.15235 332.575948 
L 582.579554 332.99901 
L 584.006758 332.339057 
L 585.433963 332.168207 
L 586.861167 333.166972 
L 588.288371 332.978023 
L 589.715576 332.670218 
L 591.14278 332.827241 
L 592.569985 332.848251 
L 593.997189 332.693193 
L 595.424393 332.86053 
L 596.851598 332.036772 
L 598.278802 331.706117 
L 599.706006 330.916024 
L 602.560415 331.134829 
L 603.98762 330.552911 
L 605.414824 330.099373 
L 606.842028 330.413852 
L 608.269233 331.269312 
L 609.696437 331.128032 
L 611.123641 331.501253 
L 612.550846 331.244575 
L 613.97805 330.63858 
L 615.405255 330.84113 
L 616.832459 329.924814 
L 618.259663 329.927053 
L 619.686868 329.809189 
L 622.541276 330.288971 
L 623.968481 330.202639 
L 625.395685 330.795948 
L 626.82289 331.069233 
L 628.250094 331.120473 
L 629.677298 331.884455 
L 631.104503 332.325938 
L 632.531707 331.839031 
L 633.958911 332.080001 
L 636.81332 333.459678 
L 638.240525 333.873136 
L 639.667729 333.307826 
L 642.522138 333.261832 
L 643.949342 332.292495 
L 645.376546 332.36944 
L 646.803751 332.71108 
L 648.230955 332.444745 
L 649.65816 332.754765 
L 651.085364 332.907446 
L 652.512568 332.92928 
L 653.939773 331.929782 
L 653.939773 331.929782 
" clip-path="url(#p12fb99b8b1)" style="fill: none; stroke: #2ca02c; stroke-width: 1.2; stroke-linecap: square"/>
   </g>
   <g id="line2d_32">
    <path d="M 84.485227 139.352657 
L 85.912432 134.816661 
L 87.339636 122.165626 
L 90.194045 103.275508 
L 91.621249 100.643964 
L 93.048454 99.602439 
L 94.475658 98.064981 
L 95.902862 92.060633 
L 97.330067 88.193121 
L 98.757271 85.245076 
L 100.184475 79.238635 
L 101.61168 72.064807 
L 103.038884 74.009661 
L 104.466089 69.620533 
L 105.893293 70.281865 
L 107.320497 70.004526 
L 108.747702 66.59412 
L 110.174906 66.977423 
L 111.60211 65.084814 
L 113.029315 64.65521 
L 114.456519 64.663824 
L 115.883724 66.161862 
L 117.310928 61.626873 
L 118.738132 65.380584 
L 120.165337 62.179687 
L 121.592541 55.841297 
L 123.019745 55.494028 
L 124.44695 53.094658 
L 125.874154 49.188411 
L 127.301359 51.328539 
L 128.728563 48.838145 
L 130.155767 51.65195 
L 131.582972 54.198233 
L 133.010176 56.423318 
L 134.43738 61.868589 
L 135.864585 61.364291 
L 138.718994 111.652312 
L 140.146198 133.360976 
L 141.573402 152.00143 
L 145.855015 198.928526 
L 147.28222 213.090356 
L 148.709424 225.001172 
L 150.136629 232.895601 
L 152.991037 250.636763 
L 155.845446 264.829645 
L 157.27265 270.894926 
L 158.699855 277.839591 
L 161.554263 288.39448 
L 162.981468 291.532737 
L 164.408672 295.887667 
L 167.263081 303.123837 
L 168.690285 306.185429 
L 170.11749 308.72463 
L 171.544694 310.697983 
L 172.971898 313.016078 
L 174.399103 313.944761 
L 175.826307 315.863754 
L 177.253512 318.057203 
L 178.680716 318.960456 
L 180.10792 320.470044 
L 181.535125 321.54512 
L 182.962329 321.501005 
L 184.389533 322.575149 
L 185.816738 323.011255 
L 187.243942 324.682247 
L 188.671147 324.768851 
L 190.098351 325.608422 
L 191.525555 325.170959 
L 192.95276 324.8866 
L 194.379964 325.840117 
L 195.807168 325.498732 
L 197.234373 326.113999 
L 198.661577 326.076932 
L 200.088782 326.642116 
L 201.515986 327.38268 
L 205.797599 326.451774 
L 207.224803 326.564632 
L 208.652008 327.289374 
L 210.079212 326.187885 
L 211.506417 326.697757 
L 215.78803 325.637928 
L 217.215234 325.995686 
L 218.642438 325.71659 
L 220.069643 325.776918 
L 221.496847 326.142135 
L 222.924052 326.998494 
L 224.351256 328.157503 
L 225.77846 327.854634 
L 227.205665 329.828853 
L 228.632869 330.611693 
L 230.060073 331.982434 
L 231.487278 332.268007 
L 232.914482 332.426724 
L 234.341687 330.59239 
L 235.768891 330.298618 
L 238.6233 331.360979 
L 240.050504 330.909696 
L 241.477708 331.09718 
L 242.904913 331.128441 
L 244.332117 331.304899 
L 245.759322 331.201289 
L 248.61373 331.956359 
L 250.040935 332.369819 
L 251.468139 332.937853 
L 252.895343 332.554931 
L 254.322548 332.349366 
L 255.749752 331.647981 
L 257.176957 331.973767 
L 258.604161 331.055197 
L 260.031365 331.104391 
L 261.45857 331.004867 
L 262.885774 331.127023 
L 264.312978 331.034442 
L 265.740183 331.653383 
L 267.167387 330.717154 
L 268.594592 329.285251 
L 270.021796 329.424086 
L 271.449 330.093465 
L 272.876205 331.207345 
L 274.303409 330.949748 
L 275.730613 330.872444 
L 277.157818 331.831879 
L 278.585022 331.001851 
L 280.012227 331.525076 
L 282.866635 330.543174 
L 284.29384 330.412003 
L 285.721044 330.561568 
L 287.148248 331.191206 
L 288.575453 330.086809 
L 291.429862 330.435589 
L 292.857066 330.327098 
L 294.28427 330.338801 
L 295.711475 330.114279 
L 297.138679 329.442805 
L 298.565883 328.546917 
L 299.993088 328.217619 
L 301.420292 328.715286 
L 302.847497 328.881235 
L 305.701905 331.119281 
L 307.12911 330.914951 
L 309.983518 330.011222 
L 314.265132 330.279354 
L 315.692336 329.8986 
L 317.11954 328.863412 
L 318.546745 329.986667 
L 319.973949 329.096528 
L 321.401153 329.414481 
L 322.828358 329.913063 
L 324.255562 329.158291 
L 325.682767 328.533606 
L 328.537175 329.242131 
L 329.96438 329.918479 
L 331.391584 329.273369 
L 332.818788 330.728856 
L 334.245993 330.557202 
L 335.673197 329.783156 
L 337.100402 330.58211 
L 338.527606 330.444883 
L 339.95481 330.737798 
L 341.382015 330.641773 
L 342.809219 330.779886 
L 344.236423 328.742597 
L 345.663628 328.947235 
L 347.090832 329.531256 
L 348.518037 329.8619 
L 349.945241 330.727754 
L 351.372445 328.643243 
L 352.79965 328.248833 
L 354.226854 329.001916 
L 357.081263 328.82512 
L 358.508467 328.121721 
L 359.935672 329.109196 
L 361.362876 329.227964 
L 362.79008 330.477603 
L 364.217285 330.969952 
L 365.644489 330.590057 
L 367.071693 331.01543 
L 368.498898 331.764055 
L 371.353307 329.91016 
L 372.780511 329.952216 
L 374.207715 330.766188 
L 375.63492 328.40181 
L 377.062124 327.121732 
L 378.489328 328.447044 
L 379.916533 327.593633 
L 381.343737 327.676094 
L 382.770942 327.059557 
L 384.198146 327.181556 
L 385.62535 328.429074 
L 387.052555 328.849813 
L 388.479759 328.951398 
L 389.906963 328.755064 
L 391.334168 328.145847 
L 392.761372 326.795866 
L 394.188577 326.950459 
L 395.615781 326.46983 
L 397.042985 327.748248 
L 398.47019 327.626673 
L 399.897394 328.06154 
L 401.324598 329.031086 
L 402.751803 328.492617 
L 404.179007 328.924232 
L 405.606212 328.765225 
L 407.033416 327.881901 
L 409.887825 329.548972 
L 411.315029 328.619763 
L 412.742233 327.87744 
L 414.169438 328.431431 
L 415.596642 328.435766 
L 417.023847 328.736931 
L 418.451051 329.828851 
L 419.878255 330.089056 
L 421.30546 329.675673 
L 422.732664 329.680062 
L 424.159868 330.500595 
L 425.587073 330.909255 
L 427.014277 330.904865 
L 428.441482 331.528064 
L 429.868686 331.701606 
L 431.29589 332.597011 
L 432.723095 331.418829 
L 434.150299 332.104593 
L 437.004708 332.608108 
L 438.431912 331.977411 
L 441.286321 331.791168 
L 442.713525 331.385116 
L 444.14073 331.82199 
L 445.567934 332.028535 
L 446.995138 332.051202 
L 448.422343 332.504849 
L 449.849547 331.761013 
L 451.276752 331.193362 
L 452.703956 330.369288 
L 454.13116 330.683041 
L 455.558365 330.365065 
L 456.985569 329.565506 
L 458.412773 329.219839 
L 459.839978 328.65999 
L 461.267182 329.415865 
L 462.694387 329.810417 
L 465.548795 330.104693 
L 466.976 330.717504 
L 469.830408 330.132692 
L 471.257613 329.18202 
L 472.684817 330.211466 
L 474.112022 330.687357 
L 475.539226 329.922567 
L 476.96643 329.6765 
L 478.393635 329.959073 
L 479.820839 329.959738 
L 481.248043 330.136489 
L 482.675248 329.285867 
L 484.102452 330.083252 
L 485.529657 330.228105 
L 486.956861 329.959992 
L 488.384065 330.562934 
L 489.81127 330.38951 
L 491.238474 329.27411 
L 492.665678 329.120404 
L 494.092883 329.22935 
L 495.520087 329.586546 
L 496.947292 329.299923 
L 498.374496 327.916092 
L 499.8017 328.501977 
L 501.228905 330.068826 
L 502.656109 330.67385 
L 504.083313 330.47998 
L 505.510518 330.663262 
L 506.937722 331.153017 
L 508.364927 331.312994 
L 509.792131 331.861345 
L 511.219335 331.113906 
L 514.073744 330.59382 
L 515.500948 331.482085 
L 516.928153 332.206794 
L 518.355357 331.746978 
L 519.782562 331.542871 
L 521.209766 332.06219 
L 522.63697 332.736302 
L 524.064175 332.35574 
L 525.491379 332.334482 
L 526.918583 331.487275 
L 528.345788 332.292647 
L 529.772992 331.171901 
L 531.200197 331.118099 
L 532.627401 330.660471 
L 534.054605 329.622713 
L 535.48181 328.236255 
L 536.909014 328.428632 
L 538.336218 328.389566 
L 539.763423 328.098671 
L 541.190627 328.037463 
L 542.617832 328.696683 
L 544.045036 329.525309 
L 545.47224 328.644354 
L 546.899445 328.294307 
L 548.326649 327.165726 
L 549.753853 327.619205 
L 551.181058 327.689857 
L 552.608262 328.398453 
L 554.035467 329.735867 
L 555.462671 330.713235 
L 556.889875 330.665058 
L 558.31708 331.671204 
L 559.744284 332.981468 
L 561.171488 331.367762 
L 562.598693 331.987444 
L 564.025897 332.785089 
L 566.880306 330.963571 
L 568.30751 331.827838 
L 569.734715 330.862695 
L 571.161919 330.398239 
L 572.589123 329.499998 
L 574.016328 328.468935 
L 576.870737 329.6371 
L 578.297941 330.01954 
L 579.725145 329.678591 
L 581.15235 330.886019 
L 582.579554 331.502513 
L 584.006758 331.332741 
L 585.433963 331.428234 
L 586.861167 330.337174 
L 588.288371 330.235474 
L 589.715576 330.991186 
L 591.14278 330.728599 
L 592.569985 331.436467 
L 593.997189 330.878932 
L 595.424393 330.653438 
L 596.851598 328.771166 
L 598.278802 327.829347 
L 599.706006 327.93624 
L 601.133211 326.796119 
L 602.560415 327.271684 
L 603.98762 328.006091 
L 605.414824 328.329422 
L 606.842028 327.650758 
L 608.269233 328.752891 
L 609.696437 328.907127 
L 611.123641 328.586094 
L 612.550846 328.477167 
L 613.97805 329.038385 
L 615.405255 329.315446 
L 616.832459 329.082009 
L 618.259663 329.043581 
L 623.968481 331.554869 
L 625.395685 331.477105 
L 626.82289 331.904969 
L 629.677298 331.610807 
L 631.104503 331.770087 
L 632.531707 330.810278 
L 633.958911 328.995865 
L 635.386116 328.6059 
L 636.81332 329.216071 
L 638.240525 330.068341 
L 639.667729 330.77681 
L 641.094933 330.721672 
L 642.522138 331.332348 
L 643.949342 329.068276 
L 645.376546 330.021483 
L 646.803751 328.704348 
L 648.230955 329.952729 
L 649.65816 329.72013 
L 651.085364 329.678359 
L 652.512568 329.93003 
L 653.939773 329.196253 
L 653.939773 329.196253 
" clip-path="url(#p12fb99b8b1)" style="fill: none; stroke: #d62728; stroke-width: 1.2; stroke-linecap: square"/>
   </g>
   <g id="line2d_33">
    <path d="M 84.485227 187.307703 
L 85.912432 187.112066 
L 87.339636 189.449122 
L 88.76684 189.168685 
L 90.194045 195.537162 
L 93.048454 209.338126 
L 94.475658 217.607848 
L 95.902862 224.534307 
L 97.330067 234.209433 
L 101.61168 258.749691 
L 103.038884 265.202953 
L 104.466089 269.265325 
L 105.893293 272.841596 
L 107.320497 279.603724 
L 111.60211 293.3069 
L 113.029315 297.251974 
L 114.456519 300.414584 
L 115.883724 302.904024 
L 117.310928 306.121302 
L 118.738132 307.698243 
L 121.592541 311.959909 
L 123.019745 312.697462 
L 124.44695 315.036334 
L 127.301359 316.74589 
L 128.728563 318.433294 
L 130.155767 319.853828 
L 131.582972 322.131056 
L 133.010176 322.440908 
L 137.291789 324.440549 
L 138.718994 325.491344 
L 140.146198 324.984786 
L 141.573402 326.177114 
L 143.000607 326.420531 
L 144.427811 326.901944 
L 145.855015 326.236809 
L 147.28222 326.59157 
L 148.709424 327.546404 
L 151.563833 327.142328 
L 152.991037 328.078983 
L 154.418242 328.252123 
L 155.845446 326.284523 
L 157.27265 326.689373 
L 158.699855 327.749251 
L 160.127059 327.839667 
L 161.554263 326.116197 
L 162.981468 327.514059 
L 164.408672 328.225516 
L 165.835877 328.51207 
L 167.263081 328.006348 
L 170.11749 329.01649 
L 171.544694 329.114446 
L 172.971898 329.373043 
L 174.399103 328.953429 
L 175.826307 329.038003 
L 178.680716 329.741354 
L 180.10792 329.158702 
L 181.535125 329.262317 
L 182.962329 330.332774 
L 184.389533 330.142615 
L 185.816738 330.912866 
L 187.243942 328.578554 
L 188.671147 329.065392 
L 190.098351 330.034433 
L 191.525555 330.560276 
L 192.95276 330.496874 
L 194.379964 330.998814 
L 195.807168 332.280391 
L 197.234373 332.417564 
L 198.661577 330.935056 
L 200.088782 330.891627 
L 201.515986 329.892883 
L 202.94319 329.451807 
L 204.370395 328.608452 
L 205.797599 329.262853 
L 207.224803 329.678012 
L 208.652008 329.535949 
L 211.506417 329.952718 
L 212.933621 330.880363 
L 214.360825 331.958924 
L 215.78803 331.727728 
L 217.215234 331.317788 
L 218.642438 331.641126 
L 220.069643 330.661473 
L 221.496847 331.150848 
L 222.924052 330.715904 
L 225.77846 332.264624 
L 227.205665 331.198588 
L 228.632869 331.544027 
L 230.060073 331.54405 
L 231.487278 330.993756 
L 232.914482 331.199744 
L 234.341687 329.919388 
L 235.768891 330.780758 
L 237.196095 330.862429 
L 238.6233 329.889434 
L 241.477708 330.610975 
L 242.904913 331.107464 
L 244.332117 330.526626 
L 245.759322 330.209216 
L 247.186526 330.960331 
L 248.61373 331.474421 
L 250.040935 332.744593 
L 251.468139 332.582651 
L 252.895343 332.635242 
L 254.322548 332.115987 
L 255.749752 332.576168 
L 257.176957 332.290282 
L 258.604161 332.752719 
L 260.031365 332.661773 
L 261.45857 332.788436 
L 262.885774 332.486588 
L 264.312978 332.567684 
L 265.740183 333.235732 
L 267.167387 332.318924 
L 268.594592 332.438191 
L 270.021796 331.836985 
L 272.876205 331.363096 
L 274.303409 331.323647 
L 275.730613 330.960933 
L 277.157818 331.36995 
L 278.585022 331.082022 
L 280.012227 331.500436 
L 281.439431 329.64934 
L 282.866635 329.664164 
L 284.29384 330.286554 
L 285.721044 331.03284 
L 290.002657 332.099354 
L 291.429862 331.998959 
L 292.857066 333.09149 
L 294.28427 331.922388 
L 295.711475 332.303683 
L 297.138679 332.358741 
L 298.565883 332.712631 
L 299.993088 332.471463 
L 301.420292 331.764714 
L 302.847497 332.088392 
L 304.274701 330.519375 
L 305.701905 330.22503 
L 307.12911 329.650328 
L 308.556314 328.465859 
L 311.410723 330.055584 
L 312.837927 329.461687 
L 314.265132 329.74465 
L 315.692336 329.793935 
L 317.11954 328.538559 
L 318.546745 329.825338 
L 319.973949 330.596209 
L 321.401153 330.167574 
L 322.828358 330.17636 
L 324.255562 329.996552 
L 325.682767 329.938202 
L 328.537175 331.591496 
L 329.96438 330.711616 
L 331.391584 331.278732 
L 332.818788 330.427961 
L 334.245993 331.393476 
L 335.673197 332.173743 
L 337.100402 332.679902 
L 338.527606 332.504693 
L 339.95481 331.817435 
L 341.382015 332.170643 
L 344.236423 332.506373 
L 345.663628 333.17793 
L 347.090832 333.436141 
L 348.518037 333.283282 
L 351.372445 333.401866 
L 352.79965 333.815678 
L 354.226854 334.070824 
L 355.654058 334.190007 
L 358.508467 333.717418 
L 359.935672 332.161606 
L 361.362876 331.540035 
L 362.79008 331.697865 
L 364.217285 331.345102 
L 365.644489 332.125971 
L 368.498898 332.710369 
L 369.926102 332.647128 
L 371.353307 332.922614 
L 374.207715 333.694934 
L 375.63492 332.98444 
L 377.062124 331.889796 
L 378.489328 331.340537 
L 379.916533 331.721389 
L 381.343737 331.79285 
L 382.770942 331.095997 
L 385.62535 330.10922 
L 387.052555 330.960781 
L 388.479759 330.957011 
L 389.906963 331.533039 
L 391.334168 330.789714 
L 392.761372 331.972203 
L 395.615781 332.502373 
L 397.042985 332.423864 
L 398.47019 331.939352 
L 399.897394 332.003161 
L 401.324598 331.355067 
L 402.751803 330.962275 
L 405.606212 330.457333 
L 407.033416 329.546801 
L 408.46062 328.467999 
L 409.887825 329.440082 
L 411.315029 329.605382 
L 412.742233 330.188908 
L 414.169438 330.643663 
L 415.596642 330.323156 
L 417.023847 330.775985 
L 419.878255 332.090655 
L 422.732664 333.233184 
L 424.159868 332.383888 
L 425.587073 332.016682 
L 427.014277 330.881793 
L 429.868686 330.971862 
L 431.29589 330.852471 
L 432.723095 331.092934 
L 434.150299 332.367614 
L 435.577503 331.23993 
L 437.004708 330.738972 
L 438.431912 330.996348 
L 439.859117 330.617793 
L 441.286321 331.078316 
L 442.713525 330.072011 
L 444.14073 329.40736 
L 445.567934 329.2781 
L 446.995138 329.79775 
L 448.422343 329.198494 
L 449.849547 328.058616 
L 451.276752 329.119763 
L 452.703956 330.556305 
L 454.13116 331.074066 
L 455.558365 331.728601 
L 456.985569 330.804059 
L 458.412773 331.040638 
L 459.839978 332.225831 
L 462.694387 332.25517 
L 464.121591 331.608431 
L 465.548795 330.798155 
L 466.976 331.741147 
L 469.830408 330.617994 
L 471.257613 329.754006 
L 474.112022 331.168381 
L 475.539226 330.64867 
L 476.96643 331.701275 
L 478.393635 332.091427 
L 482.675248 331.140108 
L 484.102452 331.650032 
L 485.529657 331.6162 
L 486.956861 332.191927 
L 488.384065 332.333647 
L 489.81127 331.621813 
L 491.238474 331.448163 
L 492.665678 331.458165 
L 494.092883 332.180812 
L 496.947292 333.34236 
L 498.374496 333.311361 
L 499.8017 333.037407 
L 501.228905 332.526233 
L 502.656109 332.570726 
L 504.083313 331.711463 
L 505.510518 331.553545 
L 508.364927 331.70668 
L 509.792131 332.846839 
L 511.219335 331.048509 
L 512.64654 330.622844 
L 514.073744 330.952421 
L 515.500948 331.434871 
L 516.928153 331.092902 
L 519.782562 330.785245 
L 521.209766 331.669854 
L 522.63697 331.02084 
L 524.064175 331.362621 
L 525.491379 331.049435 
L 526.918583 331.224687 
L 528.345788 331.216871 
L 529.772992 330.322998 
L 531.200197 330.494716 
L 532.627401 330.414934 
L 534.054605 329.741812 
L 535.48181 329.35193 
L 536.909014 329.109536 
L 538.336218 329.33689 
L 539.763423 329.403834 
L 541.190627 330.015394 
L 542.617832 329.327946 
L 544.045036 329.664209 
L 545.47224 330.51459 
L 546.899445 329.919977 
L 548.326649 329.693694 
L 549.753853 330.643134 
L 551.181058 330.85884 
L 552.608262 331.305001 
L 554.035467 332.444624 
L 555.462671 332.360563 
L 556.889875 333.104353 
L 558.31708 332.847029 
L 559.744284 332.895368 
L 561.171488 333.67078 
L 562.598693 332.545421 
L 564.025897 332.45999 
L 565.453102 331.243768 
L 566.880306 331.081752 
L 568.30751 332.036751 
L 569.734715 332.363378 
L 571.161919 331.816869 
L 572.589123 332.432765 
L 574.016328 332.64498 
L 575.443532 333.331434 
L 576.870737 333.597981 
L 578.297941 333.679243 
L 579.725145 333.417964 
L 581.15235 332.114051 
L 582.579554 332.754378 
L 584.006758 332.775274 
L 585.433963 333.245327 
L 586.861167 332.841372 
L 588.288371 332.872927 
L 589.715576 331.491604 
L 591.14278 330.891198 
L 592.569985 331.640182 
L 593.997189 331.305916 
L 595.424393 330.389247 
L 599.706006 330.74532 
L 601.133211 330.508214 
L 602.560415 328.575458 
L 603.98762 328.503608 
L 605.414824 327.860269 
L 606.842028 328.078911 
L 608.269233 328.732844 
L 609.696437 328.809747 
L 611.123641 329.474726 
L 612.550846 329.467209 
L 613.97805 329.194263 
L 615.405255 330.014918 
L 616.832459 329.930757 
L 618.259663 329.391894 
L 619.686868 330.445344 
L 621.114072 330.17192 
L 622.541276 331.084343 
L 623.968481 329.860433 
L 625.395685 329.568178 
L 626.82289 329.865651 
L 628.250094 330.367332 
L 631.104503 329.952504 
L 632.531707 329.387545 
L 633.958911 329.856186 
L 635.386116 329.733057 
L 638.240525 330.233185 
L 639.667729 330.170562 
L 641.094933 331.107093 
L 642.522138 330.116653 
L 645.376546 331.225072 
L 646.803751 329.607308 
L 648.230955 329.261358 
L 651.085364 329.925802 
L 652.512568 329.987804 
L 652.512568 329.987804 
" clip-path="url(#p12fb99b8b1)" style="fill: none; stroke: #9b8ac9; stroke-width: 1.2; stroke-linecap: square"/>
   </g>
   <g id="patch_3">
    <path d="M 56.0125 349.8636 
L 56.0125 34.5036 
" style="fill: none; stroke: #000000; stroke-width: 0.8; stroke-linejoin: miter; stroke-linecap: square"/>
   </g>
   <g id="patch_4">
    <path d="M 682.4125 349.8636 
L 682.4125 34.5036 
" style="fill: none; stroke: #000000; stroke-width: 0.8; stroke-linejoin: miter; stroke-linecap: square"/>
   </g>
   <g id="patch_5">
    <path d="M 56.0125 349.8636 
L 682.4125 349.8636 
" style="fill: none; stroke: #000000; stroke-width: 0.8; stroke-linejoin: miter; stroke-linecap: square"/>
   </g>
   <g id="patch_6">
    <path d="M 56.0125 34.5036 
L 682.4125 34.5036 
" style="fill: none; stroke: #000000; stroke-width: 0.8; stroke-linejoin: miter; stroke-linecap: square"/>
   </g>
   <g id="legend_1">
    <g id="patch_7">
     <path d="M 56.0125 31.35 
L 682.4125 31.35 
L 682.4125 7.2 
L 56.0125 7.2 
z
" style="fill: #ffffff; stroke: #808080; stroke-width: 0.8; stroke-linejoin: miter"/>
    </g>
    <g id="line2d_34">
     <path d="M 62.3125 18.4 
L 76.3125 18.4 
L 90.3125 18.4 
" style="fill: none; stroke: #1f77b4; stroke-width: 1.2; stroke-linecap: square"/>
    </g>
    <g id="text_17">
     <!-- DDPG -->
     <g transform="translate(98.7125 23.3) scale(0.14 -0.14)">
      <defs>
       <path id="SimHei-44" d="M 2925 2250 
Q 2925 1100 2437 612 
Q 1950 125 1125 125 
L 275 125 
L 275 4400 
L 1125 4400 
Q 2050 4400 2487 3900 
Q 2925 3400 2925 2250 
z
M 2325 2250 
Q 2325 3175 2025 3550 
Q 1725 3925 1125 3925 
L 850 3925 
L 850 600 
L 1125 600 
Q 1725 600 2025 962 
Q 2325 1325 2325 2250 
z
" transform="scale(0.015625)"/>
       <path id="SimHei-50" d="M 2950 3100 
Q 2950 2500 2600 2150 
Q 2250 1800 1625 1800 
L 900 1800 
L 900 125 
L 325 125 
L 325 4400 
L 1625 4400 
Q 2250 4400 2600 4050 
Q 2950 3700 2950 3100 
z
M 2375 3100 
Q 2375 3575 2150 3750 
Q 1925 3925 1475 3925 
L 900 3925 
L 900 2275 
L 1475 2275 
Q 1925 2275 2150 2450 
Q 2375 2625 2375 3100 
z
" transform="scale(0.015625)"/>
       <path id="SimHei-47" d="M 2850 75 
L 2425 75 
L 2350 425 
Q 2250 275 2037 175 
Q 1825 75 1575 75 
Q 1050 75 637 562 
Q 225 1050 225 2125 
Q 225 3300 600 3875 
Q 975 4450 1625 4450 
Q 2200 4450 2525 4025 
Q 2850 3600 2850 2925 
L 2300 2925 
Q 2300 3450 2125 3712 
Q 1950 3975 1625 3975 
Q 1225 3975 1025 3562 
Q 825 3150 825 2175 
Q 825 1250 1075 900 
Q 1325 550 1650 550 
Q 1975 550 2162 787 
Q 2350 1025 2350 1525 
L 2350 1800 
L 1575 1800 
L 1575 2275 
L 2850 2275 
L 2850 75 
z
" transform="scale(0.015625)"/>
      </defs>
      <use xlink:href="#SimHei-44"/>
      <use xlink:href="#SimHei-44" transform="translate(50 0)"/>
      <use xlink:href="#SimHei-50" transform="translate(100 0)"/>
      <use xlink:href="#SimHei-47" transform="translate(150 0)"/>
     </g>
    </g>
    <g id="line2d_35">
     <path d="M 192.6625 18.4 
L 206.6625 18.4 
L 220.6625 18.4 
" style="fill: none; stroke: #ff7f0e; stroke-width: 1.2; stroke-linecap: square"/>
    </g>
    <g id="text_18">
     <!-- PPO -->
     <g transform="translate(229.0625 23.3) scale(0.14 -0.14)">
      <defs>
       <path id="SimHei-4f" d="M 2950 2275 
Q 2950 1100 2587 587 
Q 2225 75 1575 75 
Q 925 75 550 587 
Q 175 1100 175 2275 
Q 175 3450 550 3950 
Q 925 4450 1575 4450 
Q 2225 4450 2587 3950 
Q 2950 3450 2950 2275 
z
M 2350 2275 
Q 2350 3325 2125 3650 
Q 1900 3975 1575 3975 
Q 1250 3975 1012 3650 
Q 775 3325 775 2275 
Q 775 1225 1012 887 
Q 1250 550 1575 550 
Q 1900 550 2125 887 
Q 2350 1225 2350 2275 
z
" transform="scale(0.015625)"/>
      </defs>
      <use xlink:href="#SimHei-50"/>
      <use xlink:href="#SimHei-50" transform="translate(50 0)"/>
      <use xlink:href="#SimHei-4f" transform="translate(100 0)"/>
     </g>
    </g>
    <g id="line2d_36">
     <path d="M 316.0125 18.4 
L 330.0125 18.4 
L 344.0125 18.4 
" style="fill: none; stroke: #2ca02c; stroke-width: 1.2; stroke-linecap: square"/>
    </g>
    <g id="text_19">
     <!-- TD3 -->
     <g transform="translate(352.4125 23.3) scale(0.14 -0.14)">
      <use xlink:href="#SimHei-54"/>
      <use xlink:href="#SimHei-44" transform="translate(50 0)"/>
      <use xlink:href="#SimHei-33" transform="translate(100 0)"/>
     </g>
    </g>
    <g id="line2d_37">
     <path d="M 439.3625 18.4 
L 453.3625 18.4 
L 467.3625 18.4 
" style="fill: none; stroke: #d62728; stroke-width: 1.2; stroke-linecap: square"/>
    </g>
    <g id="text_20">
     <!-- GCN-DDQN -->
     <g transform="translate(475.7625 23.3) scale(0.14 -0.14)">
      <defs>
       <path id="SimHei-43" d="M 2975 1825 
Q 2950 875 2575 475 
Q 2200 75 1675 75 
Q 1075 75 650 562 
Q 225 1050 225 2125 
Q 225 3300 637 3875 
Q 1050 4450 1700 4450 
Q 2250 4450 2612 4037 
Q 2975 3625 2950 2875 
L 2400 2875 
Q 2400 3425 2225 3700 
Q 2050 3975 1700 3975 
Q 1300 3975 1062 3562 
Q 825 3150 825 2175 
Q 825 1275 1062 912 
Q 1300 550 1675 550 
Q 1950 550 2175 812 
Q 2400 1075 2400 1825 
L 2975 1825 
z
" transform="scale(0.015625)"/>
       <path id="SimHei-4e" d="M 2850 125 
L 2225 125 
L 850 3225 
L 825 3225 
L 825 125 
L 250 125 
L 250 4400 
L 875 4400 
L 2250 1300 
L 2275 1300 
L 2275 4400 
L 2850 4400 
L 2850 125 
z
" transform="scale(0.015625)"/>
       <path id="SimHei-2d" d="M 2975 2125 
L 125 2125 
L 125 2525 
L 2975 2525 
L 2975 2125 
z
" transform="scale(0.015625)"/>
       <path id="SimHei-51" d="M 2950 2275 
Q 2950 1675 2862 1262 
Q 2775 850 2575 600 
L 2775 225 
L 2375 -200 
L 2150 225 
Q 2050 150 1900 112 
Q 1750 75 1575 75 
Q 925 75 550 587 
Q 175 1100 175 2275 
Q 175 3450 550 3950 
Q 925 4450 1575 4450 
Q 2225 4450 2587 3950 
Q 2950 3450 2950 2275 
z
M 2350 2275 
Q 2350 3325 2125 3650 
Q 1900 3975 1575 3975 
Q 1250 3975 1012 3650 
Q 775 3325 775 2275 
Q 775 1225 1012 887 
Q 1250 550 1575 550 
Q 1700 550 1800 587 
Q 1900 625 1950 675 
L 1550 1450 
L 1900 1875 
L 2250 1200 
Q 2300 1450 2325 1650 
Q 2350 1850 2350 2275 
z
" transform="scale(0.015625)"/>
      </defs>
      <use xlink:href="#SimHei-47"/>
      <use xlink:href="#SimHei-43" transform="translate(50 0)"/>
      <use xlink:href="#SimHei-4e" transform="translate(100 0)"/>
      <use xlink:href="#SimHei-2d" transform="translate(150 0)"/>
      <use xlink:href="#SimHei-44" transform="translate(200 0)"/>
      <use xlink:href="#SimHei-44" transform="translate(250 0)"/>
      <use xlink:href="#SimHei-51" transform="translate(300 0)"/>
      <use xlink:href="#SimHei-4e" transform="translate(350 0)"/>
     </g>
    </g>
    <g id="line2d_38">
     <path d="M 597.7125 18.4 
L 611.7125 18.4 
L 625.7125 18.4 
" style="fill: none; stroke: #9b8ac9; stroke-width: 1.2; stroke-linecap: square"/>
    </g>
    <g id="text_21">
     <!-- GLDVTO -->
     <g transform="translate(634.1125 23.3) scale(0.14 -0.14)">
      <defs>
       <path id="SimHei-56" d="M 3050 4400 
L 1800 75 
L 1300 75 
L 50 4400 
L 650 4400 
L 1525 1125 
L 1575 1125 
L 2450 4400 
L 3050 4400 
z
" transform="scale(0.015625)"/>
      </defs>
      <use xlink:href="#SimHei-47"/>
      <use xlink:href="#SimHei-4c" transform="translate(50 0)"/>
      <use xlink:href="#SimHei-44" transform="translate(100 0)"/>
      <use xlink:href="#SimHei-56" transform="translate(150 0)"/>
      <use xlink:href="#SimHei-54" transform="translate(200 0)"/>
      <use xlink:href="#SimHei-4f" transform="translate(250 0)"/>
     </g>
    </g>
   </g>
  </g>
 </g>
 <defs>
  <clipPath id="p12fb99b8b1">
   <rect x="56.0125" y="34.5036" width="626.4" height="315.36"/>
  </clipPath>
 </defs>
</svg>
