<?xml version="1.0" encoding="utf-8" standalone="no"?>
<!DOCTYPE svg PUBLIC "-//W3C//DTD SVG 1.1//EN"
  "http://www.w3.org/Graphics/SVG/1.1/DTD/svg11.dtd">
<svg xmlns:xlink="http://www.w3.org/1999/xlink" width="689.6125pt" height="391.6261pt" viewBox="0 0 689.6125 391.6261" xmlns="http://www.w3.org/2000/svg" version="1.1">
 <metadata>
  <rdf:RDF xmlns:dc="http://purl.org/dc/elements/1.1/" xmlns:cc="http://creativecommons.org/ns#" xmlns:rdf="http://www.w3.org/1999/02/22-rdf-syntax-ns#">
   <cc:Work>
    <dc:type rdf:resource="http://purl.org/dc/dcmitype/StillImage"/>
    <dc:date>2026-07-13T21:10:53.279930</dc:date>
    <dc:format>image/svg+xml</dc:format>
    <dc:creator>
     <cc:Agent>
      <dc:title>Matplotlib v3.10.7, https://matplotlib.org/</dc:title>
     </cc:Agent>
    </dc:creator>
   </cc:Work>
  </rdf:RDF>
 </metadata>
 <defs>
  <style type="text/css">*{stroke-linejoin: round; stroke-linecap: butt}</style>
 </defs>
 <g id="figure_1">
  <g id="patch_1">
   <path d="M 0 391.6261 
L 689.6125 391.6261 
L 689.6125 0 
L 0 0 
z
" style="fill: #ffffff"/>
  </g>
  <g id="axes_1">
   <g id="patch_2">
    <path d="M 56.0125 349.8636 
L 682.4125 349.8636 
L 682.4125 34.5036 
L 56.0125 34.5036 
z
" style="fill: #ffffff"/>
   </g>
   <g id="matplotlib.axis_1">
    <g id="xtick_1">
     <g id="line2d_1">
      <path d="M 84.485227 349.8636 
L 84.485227 34.5036 
" clip-path="url(#p5beb1b7f5c)" style="fill: none; stroke-dasharray: 2.22,0.96; stroke-dashoffset: 0; stroke: #b0b0b0; stroke-opacity: 0.25; stroke-width: 0.6"/>
     </g>
     <g id="line2d_2">
      <defs>
       <path id="m4e666bf2f8" d="M 0 0 
L 0 3.5 
" style="stroke: #000000; stroke-width: 0.8"/>
      </defs>
      <g>
       <use xlink:href="#m4e666bf2f8" x="84.485227" y="349.8636" style="stroke: #000000; stroke-width: 0.8"/>
      </g>
     </g>
     <g id="text_1">
      <!-- 0 -->
      <g transform="translate(81.485227 365.1136) scale(0.12 -0.12)">
       <defs>
        <path id="SimHei-30" d="M 225 2537 
Q 250 3200 412 3587 
Q 575 3975 875 4225 
Q 1175 4475 1612 4475 
Q 2050 4475 2375 4112 
Q 2700 3750 2800 3200 
Q 2900 2650 2862 1937 
Q 2825 1225 2612 775 
Q 2400 325 1975 150 
Q 1550 -25 1125 187 
Q 700 400 525 750 
Q 350 1100 275 1487 
Q 200 1875 225 2537 
z
M 750 2687 
Q 675 2000 800 1462 
Q 925 925 1212 700 
Q 1500 475 1800 612 
Q 2100 750 2237 1162 
Q 2375 1575 2375 2062 
Q 2375 2550 2337 2950 
Q 2300 3350 2112 3675 
Q 1925 4000 1612 4012 
Q 1300 4025 1062 3700 
Q 825 3375 750 2687 
z
" transform="scale(0.015625)"/>
       </defs>
       <use xlink:href="#SimHei-30"/>
      </g>
     </g>
    </g>
    <g id="xtick_2">
     <g id="line2d_3">
      <path d="M 155.845446 349.8636 
L 155.845446 34.5036 
" clip-path="url(#p5beb1b7f5c)" style="fill: none; stroke-dasharray: 2.22,0.96; stroke-dashoffset: 0; stroke: #b0b0b0; stroke-opacity: 0.25; stroke-width: 0.6"/>
     </g>
     <g id="line2d_4">
      <g>
       <use xlink:href="#m4e666bf2f8" x="155.845446" y="349.8636" style="stroke: #000000; stroke-width: 0.8"/>
      </g>
     </g>
     <g id="text_2">
      <!-- 50 -->
      <g transform="translate(149.845446 365.1136) scale(0.12 -0.12)">
       <defs>
        <path id="SimHei-35" d="M 550 1325 
Q 725 650 1150 575 
Q 1575 500 1837 662 
Q 2100 825 2212 1087 
Q 2325 1350 2312 1675 
Q 2300 2000 2137 2225 
Q 1975 2450 1725 2525 
Q 1475 2600 1162 2525 
Q 850 2450 650 2175 
L 225 2225 
Q 275 2375 700 4375 
L 2675 4375 
L 2675 3925 
L 1075 3925 
Q 950 3250 825 2850 
Q 1200 3025 1525 3012 
Q 1850 3000 2150 2862 
Q 2450 2725 2587 2487 
Q 2725 2250 2787 2012 
Q 2850 1775 2837 1500 
Q 2825 1225 2725 937 
Q 2625 650 2425 462 
Q 2225 275 1937 162 
Q 1650 50 1275 75 
Q 900 100 562 350 
Q 225 600 100 1200 
L 550 1325 
z
" transform="scale(0.015625)"/>
       </defs>
       <use xlink:href="#SimHei-35"/>
       <use xlink:href="#SimHei-30" transform="translate(50 0)"/>
      </g>
     </g>
    </g>
    <g id="xtick_3">
     <g id="line2d_5">
      <path d="M 227.205665 349.8636 
L 227.205665 34.5036 
" clip-path="url(#p5beb1b7f5c)" style="fill: none; stroke-dasharray: 2.22,0.96; stroke-dashoffset: 0; stroke: #b0b0b0; stroke-opacity: 0.25; stroke-width: 0.6"/>
     </g>
     <g id="line2d_6">
      <g>
       <use xlink:href="#m4e666bf2f8" x="227.205665" y="349.8636" style="stroke: #000000; stroke-width: 0.8"/>
      </g>
     </g>
     <g id="text_3">
      <!-- 100 -->
      <g transform="translate(218.205665 365.1136) scale(0.12 -0.12)">
       <defs>
        <path id="SimHei-31" d="M 1400 3600 
Q 1075 3275 575 2975 
L 575 3450 
Q 1200 3875 1600 4450 
L 1900 4450 
L 1900 150 
L 1400 150 
L 1400 3600 
z
" transform="scale(0.015625)"/>
       </defs>
       <use xlink:href="#SimHei-31"/>
       <use xlink:href="#SimHei-30" transform="translate(50 0)"/>
       <use xlink:href="#SimHei-30" transform="translate(100 0)"/>
      </g>
     </g>
    </g>
    <g id="xtick_4">
     <g id="line2d_7">
      <path d="M 298.565883 349.8636 
L 298.565883 34.5036 
" clip-path="url(#p5beb1b7f5c)" style="fill: none; stroke-dasharray: 2.22,0.96; stroke-dashoffset: 0; stroke: #b0b0b0; stroke-opacity: 0.25; stroke-width: 0.6"/>
     </g>
     <g id="line2d_8">
      <g>
       <use xlink:href="#m4e666bf2f8" x="298.565883" y="349.8636" style="stroke: #000000; stroke-width: 0.8"/>
      </g>
     </g>
     <g id="text_4">
      <!-- 150 -->
      <g transform="translate(289.565883 365.1136) scale(0.12 -0.12)">
       <use xlink:href="#SimHei-31"/>
       <use xlink:href="#SimHei-35" transform="translate(50 0)"/>
       <use xlink:href="#SimHei-30" transform="translate(100 0)"/>
      </g>
     </g>
    </g>
    <g id="xtick_5">
     <g id="line2d_9">
      <path d="M 369.926102 349.8636 
L 369.926102 34.5036 
" clip-path="url(#p5beb1b7f5c)" style="fill: none; stroke-dasharray: 2.22,0.96; stroke-dashoffset: 0; stroke: #b0b0b0; stroke-opacity: 0.25; stroke-width: 0.6"/>
     </g>
     <g id="line2d_10">
      <g>
       <use xlink:href="#m4e666bf2f8" x="369.926102" y="349.8636" style="stroke: #000000; stroke-width: 0.8"/>
      </g>
     </g>
     <g id="text_5">
      <!-- 200 -->
      <g transform="translate(360.926102 365.1136) scale(0.12 -0.12)">
       <defs>
        <path id="SimHei-32" d="M 300 250 
Q 325 625 650 925 
Q 975 1225 1475 1862 
Q 1975 2500 2125 2850 
Q 2275 3200 2237 3450 
Q 2200 3700 2000 3862 
Q 1800 4025 1537 4000 
Q 1275 3975 1037 3800 
Q 800 3625 675 3275 
L 200 3350 
Q 400 3925 712 4187 
Q 1025 4450 1450 4475 
Q 1700 4500 1900 4462 
Q 2100 4425 2312 4287 
Q 2525 4150 2662 3875 
Q 2800 3600 2762 3212 
Q 2725 2825 2375 2287 
Q 2025 1750 1025 600 
L 2825 600 
L 2825 150 
L 300 150 
L 300 250 
z
" transform="scale(0.015625)"/>
       </defs>
       <use xlink:href="#SimHei-32"/>
       <use xlink:href="#SimHei-30" transform="translate(50 0)"/>
       <use xlink:href="#SimHei-30" transform="translate(100 0)"/>
      </g>
     </g>
    </g>
    <g id="xtick_6">
     <g id="line2d_11">
      <path d="M 441.286321 349.8636 
L 441.286321 34.5036 
" clip-path="url(#p5beb1b7f5c)" style="fill: none; stroke-dasharray: 2.22,0.96; stroke-dashoffset: 0; stroke: #b0b0b0; stroke-opacity: 0.25; stroke-width: 0.6"/>
     </g>
     <g id="line2d_12">
      <g>
       <use xlink:href="#m4e666bf2f8" x="441.286321" y="349.8636" style="stroke: #000000; stroke-width: 0.8"/>
      </g>
     </g>
     <g id="text_6">
      <!-- 250 -->
      <g transform="translate(432.286321 365.1136) scale(0.12 -0.12)">
       <use xlink:href="#SimHei-32"/>
       <use xlink:href="#SimHei-35" transform="translate(50 0)"/>
       <use xlink:href="#SimHei-30" transform="translate(100 0)"/>
      </g>
     </g>
    </g>
    <g id="xtick_7">
     <g id="line2d_13">
      <path d="M 512.64654 349.8636 
L 512.64654 34.5036 
" clip-path="url(#p5beb1b7f5c)" style="fill: none; stroke-dasharray: 2.22,0.96; stroke-dashoffset: 0; stroke: #b0b0b0; stroke-opacity: 0.25; stroke-width: 0.6"/>
     </g>
     <g id="line2d_14">
      <g>
       <use xlink:href="#m4e666bf2f8" x="512.64654" y="349.8636" style="stroke: #000000; stroke-width: 0.8"/>
      </g>
     </g>
     <g id="text_7">
      <!-- 300 -->
      <g transform="translate(503.64654 365.1136) scale(0.12 -0.12)">
       <defs>
        <path id="SimHei-33" d="M 250 1225 
L 700 1300 
Q 800 975 1025 762 
Q 1250 550 1587 562 
Q 1925 575 2125 837 
Q 2325 1100 2300 1437 
Q 2275 1775 2037 1962 
Q 1800 2150 1275 2225 
L 1275 2550 
Q 1800 2600 2037 2825 
Q 2275 3050 2250 3412 
Q 2225 3775 1925 3937 
Q 1625 4100 1287 3975 
Q 950 3850 750 3275 
L 300 3350 
Q 450 3800 712 4100 
Q 975 4400 1425 4450 
Q 1875 4500 2212 4337 
Q 2550 4175 2687 3837 
Q 2825 3500 2725 3100 
Q 2625 2700 2150 2400 
Q 2500 2250 2687 1950 
Q 2875 1650 2812 1162 
Q 2750 675 2375 375 
Q 2000 75 1525 87 
Q 1050 100 700 387 
Q 350 675 250 1225 
z
" transform="scale(0.015625)"/>
       </defs>
       <use xlink:href="#SimHei-33"/>
       <use xlink:href="#SimHei-30" transform="translate(50 0)"/>
       <use xlink:href="#SimHei-30" transform="translate(100 0)"/>
      </g>
     </g>
    </g>
    <g id="xtick_8">
     <g id="line2d_15">
      <path d="M 584.006758 349.8636 
L 584.006758 34.5036 
" clip-path="url(#p5beb1b7f5c)" style="fill: none; stroke-dasharray: 2.22,0.96; stroke-dashoffset: 0; stroke: #b0b0b0; stroke-opacity: 0.25; stroke-width: 0.6"/>
     </g>
     <g id="line2d_16">
      <g>
       <use xlink:href="#m4e666bf2f8" x="584.006758" y="349.8636" style="stroke: #000000; stroke-width: 0.8"/>
      </g>
     </g>
     <g id="text_8">
      <!-- 350 -->
      <g transform="translate(575.006758 365.1136) scale(0.12 -0.12)">
       <use xlink:href="#SimHei-33"/>
       <use xlink:href="#SimHei-35" transform="translate(50 0)"/>
       <use xlink:href="#SimHei-30" transform="translate(100 0)"/>
      </g>
     </g>
    </g>
    <g id="xtick_9">
     <g id="line2d_17">
      <path d="M 655.366977 349.8636 
L 655.366977 34.5036 
" clip-path="url(#p5beb1b7f5c)" style="fill: none; stroke-dasharray: 2.22,0.96; stroke-dashoffset: 0; stroke: #b0b0b0; stroke-opacity: 0.25; stroke-width: 0.6"/>
     </g>
     <g id="line2d_18">
      <g>
       <use xlink:href="#m4e666bf2f8" x="655.366977" y="349.8636" style="stroke: #000000; stroke-width: 0.8"/>
      </g>
     </g>
     <g id="text_9">
      <!-- 400 -->
      <g transform="translate(646.366977 365.1136) scale(0.12 -0.12)">
       <defs>
        <path id="SimHei-34" d="M 2000 1100 
L 75 1100 
L 75 1525 
L 2100 4450 
L 2475 4450 
L 2475 1525 
L 3075 1525 
L 3075 1100 
L 2475 1100 
L 2475 150 
L 2000 150 
L 2000 1100 
z
M 2000 1525 
L 2000 3500 
L 600 1525 
L 2000 1525 
z
" transform="scale(0.015625)"/>
       </defs>
       <use xlink:href="#SimHei-34"/>
       <use xlink:href="#SimHei-30" transform="translate(50 0)"/>
       <use xlink:href="#SimHei-30" transform="translate(100 0)"/>
      </g>
     </g>
    </g>
    <g id="text_10">
     <!-- Episode -->
     <g transform="translate(339.4625 382.3011) scale(0.17 -0.17)">
      <defs>
       <path id="SimHei-45" d="M 2900 125 
L 350 125 
L 350 4400 
L 2775 4400 
L 2775 3925 
L 925 3925 
L 925 2600 
L 2625 2600 
L 2625 2125 
L 925 2125 
L 925 600 
L 2900 600 
L 2900 125 
z
" transform="scale(0.015625)"/>
       <path id="SimHei-70" d="M 2825 1525 
Q 2825 800 2475 425 
Q 2125 50 1625 50 
Q 1350 50 1150 162 
Q 950 275 800 500 
L 800 -800 
L 300 -800 
L 300 2925 
L 800 2925 
L 800 2550 
Q 950 2775 1150 2875 
Q 1350 2975 1625 2975 
Q 2125 2975 2475 2612 
Q 2825 2250 2825 1525 
z
M 2275 1525 
Q 2275 2000 2087 2262 
Q 1900 2525 1525 2525 
Q 1225 2525 1012 2262 
Q 800 2000 800 1525 
Q 800 1050 1012 775 
Q 1225 500 1525 500 
Q 1900 500 2087 775 
Q 2275 1050 2275 1525 
z
" transform="scale(0.015625)"/>
       <path id="SimHei-69" d="M 1800 3725 
L 1300 3725 
L 1300 4375 
L 1800 4375 
L 1800 3725 
z
M 1800 125 
L 1300 125 
L 1300 2925 
L 1800 2925 
L 1800 125 
z
" transform="scale(0.015625)"/>
       <path id="SimHei-73" d="M 2750 900 
Q 2750 500 2437 287 
Q 2125 75 1650 75 
Q 1050 75 725 312 
Q 400 550 400 1000 
L 900 1000 
Q 900 700 1112 600 
Q 1325 500 1625 500 
Q 1925 500 2075 612 
Q 2225 725 2225 900 
Q 2225 1025 2100 1150 
Q 1975 1275 1475 1350 
Q 900 1425 687 1637 
Q 475 1850 475 2200 
Q 475 2500 762 2737 
Q 1050 2975 1600 2975 
Q 2100 2975 2387 2750 
Q 2675 2525 2675 2150 
L 2175 2150 
Q 2175 2375 2012 2462 
Q 1850 2550 1600 2550 
Q 1275 2550 1137 2437 
Q 1000 2325 1000 2175 
Q 1000 2000 1125 1900 
Q 1250 1800 1650 1750 
Q 2300 1650 2525 1437 
Q 2750 1225 2750 900 
z
" transform="scale(0.015625)"/>
       <path id="SimHei-6f" d="M 2925 1525 
Q 2925 875 2525 475 
Q 2125 75 1575 75 
Q 1025 75 625 475 
Q 225 875 225 1525 
Q 225 2175 625 2575 
Q 1025 2975 1575 2975 
Q 2125 2975 2525 2575 
Q 2925 2175 2925 1525 
z
M 2375 1525 
Q 2375 2025 2125 2275 
Q 1875 2525 1575 2525 
Q 1275 2525 1025 2275 
Q 775 2025 775 1525 
Q 775 1025 1025 775 
Q 1275 525 1575 525 
Q 1875 525 2125 775 
Q 2375 1025 2375 1525 
z
" transform="scale(0.015625)"/>
       <path id="SimHei-64" d="M 2750 125 
L 2250 125 
L 2250 500 
Q 2100 275 1900 175 
Q 1700 75 1425 75 
Q 925 75 575 437 
Q 225 800 225 1525 
Q 225 2250 575 2625 
Q 925 3000 1425 3000 
Q 1700 3000 1900 2887 
Q 2100 2775 2250 2550 
L 2250 4400 
L 2750 4400 
L 2750 125 
z
M 2250 1525 
Q 2250 2000 2037 2275 
Q 1825 2550 1525 2550 
Q 1150 2550 962 2275 
Q 775 2000 775 1525 
Q 775 1050 962 787 
Q 1150 525 1525 525 
Q 1825 525 2037 787 
Q 2250 1050 2250 1525 
z
" transform="scale(0.015625)"/>
       <path id="SimHei-65" d="M 2850 1075 
Q 2800 625 2450 350 
Q 2100 75 1625 75 
Q 1025 75 637 462 
Q 250 850 250 1525 
Q 250 2200 637 2587 
Q 1025 2975 1625 2975 
Q 2150 2975 2487 2637 
Q 2825 2300 2825 1525 
L 800 1525 
Q 800 975 1037 750 
Q 1275 525 1625 525 
Q 1900 525 2075 662 
Q 2250 800 2300 1075 
L 2850 1075 
z
M 2250 1925 
Q 2200 2275 2025 2412 
Q 1850 2550 1575 2550 
Q 1325 2550 1125 2412 
Q 925 2275 825 1925 
L 2250 1925 
z
" transform="scale(0.015625)"/>
      </defs>
      <use xlink:href="#SimHei-45"/>
      <use xlink:href="#SimHei-70" transform="translate(50 0)"/>
      <use xlink:href="#SimHei-69" transform="translate(100 0)"/>
      <use xlink:href="#SimHei-73" transform="translate(150 0)"/>
      <use xlink:href="#SimHei-6f" transform="translate(200 0)"/>
      <use xlink:href="#SimHei-64" transform="translate(250 0)"/>
      <use xlink:href="#SimHei-65" transform="translate(300 0)"/>
     </g>
    </g>
   </g>
   <g id="matplotlib.axis_2">
    <g id="ytick_1">
     <g id="line2d_19">
      <path d="M 56.0125 309.389084 
L 682.4125 309.389084 
" clip-path="url(#p5beb1b7f5c)" style="fill: none; stroke-dasharray: 2.22,0.96; stroke-dashoffset: 0; stroke: #b0b0b0; stroke-opacity: 0.25; stroke-width: 0.6"/>
     </g>
     <g id="line2d_20">
      <defs>
       <path id="m27da091e15" d="M 0 0 
L -3.5 0 
" style="stroke: #000000; stroke-width: 0.8"/>
      </defs>
      <g>
       <use xlink:href="#m27da091e15" x="56.0125" y="309.389084" style="stroke: #000000; stroke-width: 0.8"/>
      </g>
     </g>
     <g id="text_11">
      <!-- 600 -->
      <g transform="translate(31.0125 313.514084) scale(0.12 -0.12)">
       <defs>
        <path id="SimHei-36" d="M 250 1612 
Q 275 1975 387 2225 
Q 500 2475 725 2850 
L 1750 4450 
L 2325 4450 
L 1275 2800 
Q 1950 2975 2350 2750 
Q 2750 2525 2887 2237 
Q 3025 1950 3037 1612 
Q 3050 1275 2937 950 
Q 2825 625 2537 362 
Q 2250 100 1737 75 
Q 1225 50 862 262 
Q 500 475 362 862 
Q 225 1250 250 1612 
z
M 1025 787 
Q 1250 550 1625 525 
Q 2000 500 2250 775 
Q 2500 1050 2500 1575 
Q 2500 2100 2187 2300 
Q 1875 2500 1487 2450 
Q 1100 2400 925 2075 
Q 750 1750 775 1387 
Q 800 1025 1025 787 
z
" transform="scale(0.015625)"/>
       </defs>
       <use xlink:href="#SimHei-36"/>
       <use xlink:href="#SimHei-30" transform="translate(50 0)"/>
       <use xlink:href="#SimHei-30" transform="translate(100 0)"/>
      </g>
     </g>
    </g>
    <g id="ytick_2">
     <g id="line2d_21">
      <path d="M 56.0125 255.91306 
L 682.4125 255.91306 
" clip-path="url(#p5beb1b7f5c)" style="fill: none; stroke-dasharray: 2.22,0.96; stroke-dashoffset: 0; stroke: #b0b0b0; stroke-opacity: 0.25; stroke-width: 0.6"/>
     </g>
     <g id="line2d_22">
      <g>
       <use xlink:href="#m27da091e15" x="56.0125" y="255.91306" style="stroke: #000000; stroke-width: 0.8"/>
      </g>
     </g>
     <g id="text_12">
      <!-- 800 -->
      <g transform="translate(31.0125 260.03806) scale(0.12 -0.12)">
       <defs>
        <path id="SimHei-38" d="M 175 1375 
Q 175 1675 325 1962 
Q 475 2250 825 2425 
Q 525 2600 425 2812 
Q 325 3025 312 3300 
Q 300 3575 387 3775 
Q 475 3975 650 4150 
Q 825 4325 1037 4387 
Q 1250 4450 1500 4450 
Q 1750 4450 1950 4400 
Q 2150 4350 2375 4187 
Q 2600 4025 2700 3725 
Q 2800 3425 2687 3025 
Q 2575 2625 2100 2400 
Q 2525 2275 2700 2012 
Q 2875 1750 2875 1375 
Q 2875 1000 2762 775 
Q 2650 550 2512 400 
Q 2375 250 2137 162 
Q 1900 75 1537 75 
Q 1175 75 912 162 
Q 650 250 475 425 
Q 300 600 237 837 
Q 175 1075 175 1375 
z
M 687 1400 
Q 675 1100 787 875 
Q 900 650 1200 587 
Q 1500 525 1825 600 
Q 2150 675 2275 950 
Q 2400 1225 2362 1500 
Q 2325 1775 2050 1962 
Q 1775 2150 1450 2125 
Q 1125 2100 912 1900 
Q 700 1700 687 1400 
z
M 775 3350 
Q 775 3100 950 2875 
Q 1125 2650 1500 2650 
Q 1875 2650 2062 2875 
Q 2250 3100 2237 3412 
Q 2225 3725 2012 3875 
Q 1800 4025 1437 4000 
Q 1075 3975 925 3787 
Q 775 3600 775 3350 
z
" transform="scale(0.015625)"/>
       </defs>
       <use xlink:href="#SimHei-38"/>
       <use xlink:href="#SimHei-30" transform="translate(50 0)"/>
       <use xlink:href="#SimHei-30" transform="translate(100 0)"/>
      </g>
     </g>
    </g>
    <g id="ytick_3">
     <g id="line2d_23">
      <path d="M 56.0125 202.437036 
L 682.4125 202.437036 
" clip-path="url(#p5beb1b7f5c)" style="fill: none; stroke-dasharray: 2.22,0.96; stroke-dashoffset: 0; stroke: #b0b0b0; stroke-opacity: 0.25; stroke-width: 0.6"/>
     </g>
     <g id="line2d_24">
      <g>
       <use xlink:href="#m27da091e15" x="56.0125" y="202.437036" style="stroke: #000000; stroke-width: 0.8"/>
      </g>
     </g>
     <g id="text_13">
      <!-- 1000 -->
      <g transform="translate(25.0125 206.562036) scale(0.12 -0.12)">
       <use xlink:href="#SimHei-31"/>
       <use xlink:href="#SimHei-30" transform="translate(50 0)"/>
       <use xlink:href="#SimHei-30" transform="translate(100 0)"/>
       <use xlink:href="#SimHei-30" transform="translate(150 0)"/>
      </g>
     </g>
    </g>
    <g id="ytick_4">
     <g id="line2d_25">
      <path d="M 56.0125 148.961012 
L 682.4125 148.961012 
" clip-path="url(#p5beb1b7f5c)" style="fill: none; stroke-dasharray: 2.22,0.96; stroke-dashoffset: 0; stroke: #b0b0b0; stroke-opacity: 0.25; stroke-width: 0.6"/>
     </g>
     <g id="line2d_26">
      <g>
       <use xlink:href="#m27da091e15" x="56.0125" y="148.961012" style="stroke: #000000; stroke-width: 0.8"/>
      </g>
     </g>
     <g id="text_14">
      <!-- 1200 -->
      <g transform="translate(25.0125 153.086012) scale(0.12 -0.12)">
       <use xlink:href="#SimHei-31"/>
       <use xlink:href="#SimHei-32" transform="translate(50 0)"/>
       <use xlink:href="#SimHei-30" transform="translate(100 0)"/>
       <use xlink:href="#SimHei-30" transform="translate(150 0)"/>
      </g>
     </g>
    </g>
    <g id="ytick_5">
     <g id="line2d_27">
      <path d="M 56.0125 95.484988 
L 682.4125 95.484988 
" clip-path="url(#p5beb1b7f5c)" style="fill: none; stroke-dasharray: 2.22,0.96; stroke-dashoffset: 0; stroke: #b0b0b0; stroke-opacity: 0.25; stroke-width: 0.6"/>
     </g>
     <g id="line2d_28">
      <g>
       <use xlink:href="#m27da091e15" x="56.0125" y="95.484988" style="stroke: #000000; stroke-width: 0.8"/>
      </g>
     </g>
     <g id="text_15">
      <!-- 1400 -->
      <g transform="translate(25.0125 99.609988) scale(0.12 -0.12)">
       <use xlink:href="#SimHei-31"/>
       <use xlink:href="#SimHei-34" transform="translate(50 0)"/>
       <use xlink:href="#SimHei-30" transform="translate(100 0)"/>
       <use xlink:href="#SimHei-30" transform="translate(150 0)"/>
      </g>
     </g>
    </g>
    <g id="ytick_6">
     <g id="line2d_29">
      <path d="M 56.0125 42.008964 
L 682.4125 42.008964 
" clip-path="url(#p5beb1b7f5c)" style="fill: none; stroke-dasharray: 2.22,0.96; stroke-dashoffset: 0; stroke: #b0b0b0; stroke-opacity: 0.25; stroke-width: 0.6"/>
     </g>
     <g id="line2d_30">
      <g>
       <use xlink:href="#m27da091e15" x="56.0125" y="42.008964" style="stroke: #000000; stroke-width: 0.8"/>
      </g>
     </g>
     <g id="text_16">
      <!-- 1600 -->
      <g transform="translate(25.0125 46.133964) scale(0.12 -0.12)">
       <use xlink:href="#SimHei-31"/>
       <use xlink:href="#SimHei-36" transform="translate(50 0)"/>
       <use xlink:href="#SimHei-30" transform="translate(100 0)"/>
       <use xlink:href="#SimHei-30" transform="translate(150 0)"/>
      </g>
     </g>
    </g>
    <g id="text_17">
     <!-- Total Reward -->
     <g transform="translate(18.8875 243.1836) rotate(-90) scale(0.17 -0.17)">
      <defs>
       <path id="SimHei-54" d="M 2850 3925 
L 1850 3925 
L 1850 125 
L 1275 125 
L 1275 3925 
L 275 3925 
L 275 4400 
L 2850 4400 
L 2850 3925 
z
" transform="scale(0.015625)"/>
       <path id="SimHei-74" d="M 2750 200 
Q 2625 150 2462 112 
Q 2300 75 2025 75 
Q 1575 75 1300 325 
Q 1025 575 1025 1025 
L 1025 2525 
L 175 2525 
L 175 2925 
L 1025 2925 
L 1025 3900 
L 1525 3900 
L 1525 2925 
L 2550 2925 
L 2550 2525 
L 1525 2525 
L 1525 1000 
Q 1525 800 1625 662 
Q 1725 525 2000 525 
Q 2275 525 2450 575 
Q 2625 625 2750 700 
L 2750 200 
z
" transform="scale(0.015625)"/>
       <path id="SimHei-61" d="M 2875 125 
L 2275 125 
Q 2225 175 2200 262 
Q 2175 350 2175 475 
Q 2000 275 1750 175 
Q 1500 75 1225 75 
Q 825 75 550 275 
Q 275 475 275 850 
Q 275 1225 525 1450 
Q 775 1675 1300 1750 
Q 1650 1800 1912 1875 
Q 2175 1950 2175 2075 
Q 2175 2225 2062 2375 
Q 1950 2525 1575 2525 
Q 1275 2525 1137 2412 
Q 1000 2300 950 2100 
L 400 2100 
Q 450 2500 762 2737 
Q 1075 2975 1575 2975 
Q 2125 2975 2400 2725 
Q 2675 2475 2675 2025 
L 2675 650 
Q 2675 500 2725 375 
Q 2775 250 2875 125 
z
M 2175 1050 
L 2175 1550 
Q 2025 1500 1887 1462 
Q 1750 1425 1425 1375 
Q 1050 1325 937 1200 
Q 825 1075 825 900 
Q 825 750 937 637 
Q 1050 525 1275 525 
Q 1500 525 1762 650 
Q 2025 775 2175 1050 
z
" transform="scale(0.015625)"/>
       <path id="SimHei-6c" d="M 1825 125 
L 1325 125 
L 1325 4400 
L 1825 4400 
L 1825 125 
z
" transform="scale(0.015625)"/>
       <path id="SimHei-20" transform="scale(0.015625)"/>
       <path id="SimHei-52" d="M 3000 125 
L 2400 125 
L 1500 1975 
L 850 1975 
L 850 125 
L 275 125 
L 275 4400 
L 1525 4400 
Q 2125 4400 2500 4112 
Q 2875 3825 2875 3175 
Q 2875 2675 2625 2400 
Q 2375 2125 2050 2050 
L 3000 125 
z
M 2300 3175 
Q 2300 3525 2087 3725 
Q 1875 3925 1400 3925 
L 850 3925 
L 850 2450 
L 1550 2450 
Q 1850 2450 2075 2612 
Q 2300 2775 2300 3175 
z
" transform="scale(0.015625)"/>
       <path id="SimHei-77" d="M 3075 2925 
L 2450 75 
L 1975 75 
L 1575 2250 
L 1525 2250 
L 1125 75 
L 650 75 
L 25 2925 
L 550 2925 
L 875 1050 
L 925 1050 
L 1275 2925 
L 1825 2925 
L 2175 1050 
L 2225 1050 
L 2550 2925 
L 3075 2925 
z
" transform="scale(0.015625)"/>
       <path id="SimHei-72" d="M 2500 2425 
Q 2025 2500 1700 2287 
Q 1375 2075 1150 1550 
L 1150 125 
L 650 125 
L 650 2925 
L 1150 2925 
L 1150 2200 
Q 1375 2600 1712 2787 
Q 2050 2975 2500 2975 
L 2500 2425 
z
" transform="scale(0.015625)"/>
      </defs>
      <use xlink:href="#SimHei-54"/>
      <use xlink:href="#SimHei-6f" transform="translate(50 0)"/>
      <use xlink:href="#SimHei-74" transform="translate(100 0)"/>
      <use xlink:href="#SimHei-61" transform="translate(150 0)"/>
      <use xlink:href="#SimHei-6c" transform="translate(200 0)"/>
      <use xlink:href="#SimHei-20" transform="translate(250 0)"/>
      <use xlink:href="#SimHei-52" transform="translate(300 0)"/>
      <use xlink:href="#SimHei-65" transform="translate(350 0)"/>
      <use xlink:href="#SimHei-77" transform="translate(400 0)"/>
      <use xlink:href="#SimHei-61" transform="translate(450 0)"/>
      <use xlink:href="#SimHei-72" transform="translate(500 0)"/>
      <use xlink:href="#SimHei-64" transform="translate(550 0)"/>
     </g>
    </g>
   </g>
   <g id="line2d_31">
    <path d="M 84.485227 225.332605 
L 85.912432 238.592036 
L 87.339636 237.480402 
L 88.76684 241.436938 
L 90.194045 233.058552 
L 91.621249 235.016725 
L 93.048454 258.815592 
L 94.475658 265.875978 
L 95.902862 266.739812 
L 97.330067 274.111959 
L 98.757271 283.618495 
L 100.184475 283.148249 
L 101.61168 294.04498 
L 103.038884 288.447489 
L 104.466089 293.41776 
L 105.893293 290.301899 
L 107.320497 291.347229 
L 108.747702 292.538167 
L 110.174906 297.011206 
L 111.60211 293.656382 
L 113.029315 302.433006 
L 114.456519 307.376606 
L 115.883724 306.363197 
L 117.310928 291.918367 
L 118.738132 287.412682 
L 120.165337 288.566081 
L 121.592541 294.704033 
L 123.019745 295.52896 
L 124.44695 295.412588 
L 125.874154 296.364536 
L 127.301359 297.165676 
L 128.728563 293.138987 
L 130.155767 295.994544 
L 131.582972 296.957624 
L 133.010176 293.438619 
L 134.43738 292.515983 
L 135.864585 296.007282 
L 137.291789 296.515131 
L 138.718994 295.497899 
L 140.146198 301.701181 
L 141.573402 306.596408 
L 143.000607 301.347017 
L 144.427811 303.760103 
L 145.855015 302.009852 
L 147.28222 309.473585 
L 148.709424 307.026648 
L 150.136629 317.615795 
L 151.563833 316.334599 
L 152.991037 323.419048 
L 154.418242 314.924456 
L 155.845446 320.636923 
L 157.27265 325.107076 
L 158.699855 325.215285 
L 160.127059 326.734163 
L 161.554263 317.79805 
L 162.981468 314.556033 
L 164.408672 308.12254 
L 165.835877 310.514304 
L 167.263081 304.71243 
L 168.690285 306.037185 
L 170.11749 301.139639 
L 171.544694 302.279542 
L 172.971898 317.168286 
L 174.399103 317.720933 
L 175.826307 325.686407 
L 177.253512 332.061411 
L 178.680716 329.1988 
L 180.10792 332.976995 
L 181.535125 327.192497 
L 182.962329 325.945542 
L 184.389533 319.943755 
L 185.816738 319.896842 
L 187.243942 315.965968 
L 188.671147 317.456245 
L 190.098351 314.244667 
L 191.525555 312.814306 
L 192.95276 317.569236 
L 194.379964 319.170707 
L 195.807168 315.873467 
L 197.234373 322.699589 
L 198.661577 321.357196 
L 200.088782 321.501459 
L 201.515986 331.2103 
L 202.94319 332.686717 
L 204.370395 335.529055 
L 205.797599 327.072691 
L 207.224803 323.873602 
L 208.652008 318.73882 
L 210.079212 319.915287 
L 211.506417 308.86749 
L 212.933621 312.981933 
L 214.360825 305.210984 
L 215.78803 304.457374 
L 217.215234 301.918711 
L 218.642438 294.682282 
L 220.069643 294.812356 
L 221.496847 282.284345 
L 222.924052 285.503845 
L 224.351256 280.24327 
L 225.77846 289.71616 
L 227.205665 292.522405 
L 228.632869 304.417864 
L 230.060073 309.714363 
L 231.487278 306.266032 
L 232.914482 317.748753 
L 234.341687 312.95599 
L 235.768891 311.856821 
L 237.196095 307.51852 
L 238.6233 313.868522 
L 240.050504 326.139411 
L 241.477708 325.722513 
L 242.904913 320.651982 
L 244.332117 325.539658 
L 245.759322 324.915631 
L 247.186526 317.78817 
L 248.61373 317.550253 
L 251.468139 314.455121 
L 252.895343 314.376822 
L 254.322548 311.757408 
L 255.749752 322.132888 
L 257.176957 295.42014 
L 258.604161 293.465855 
L 260.031365 298.619875 
L 261.45857 290.870646 
L 262.885774 302.938079 
L 264.312978 303.902912 
L 265.740183 314.27323 
L 267.167387 312.711724 
L 268.594592 317.239804 
L 270.021796 317.902323 
L 271.449 301.675075 
L 272.876205 294.273081 
L 274.303409 302.870538 
L 275.730613 300.855734 
L 277.157818 306.569909 
L 278.585022 290.933228 
L 280.012227 288.802002 
L 281.439431 292.638874 
L 282.866635 287.284087 
L 284.29384 286.125597 
L 285.721044 279.673116 
L 287.148248 260.271284 
L 290.002657 247.898324 
L 291.429862 251.560763 
L 292.857066 244.631436 
L 295.711475 250.767333 
L 297.138679 261.961034 
L 298.565883 254.202925 
L 299.993088 254.487288 
L 301.420292 243.622799 
L 302.847497 244.879357 
L 305.701905 255.836188 
L 307.12911 254.711435 
L 308.556314 249.353377 
L 309.983518 257.381991 
L 311.410723 252.965275 
L 312.837927 251.5492 
L 314.265132 262.385006 
L 315.692336 260.747403 
L 317.11954 256.682867 
L 319.973949 238.154249 
L 321.401153 223.828273 
L 322.828358 220.18981 
L 324.255562 220.1175 
L 325.682767 208.894031 
L 327.109971 212.206471 
L 328.537175 212.769666 
L 329.96438 218.098283 
L 331.391584 213.656177 
L 332.818788 217.39893 
L 334.245993 226.324169 
L 335.673197 214.825314 
L 337.100402 217.306672 
L 338.527606 211.652055 
L 339.95481 220.054449 
L 341.382015 223.480689 
L 342.809219 227.435541 
L 345.663628 220.423678 
L 347.090832 216.566471 
L 348.518037 208.671766 
L 349.945241 210.966595 
L 351.372445 205.672543 
L 352.79965 205.733502 
L 354.226854 208.241285 
L 355.654058 218.367383 
L 357.081263 217.052745 
L 358.508467 207.764699 
L 359.935672 204.471493 
L 361.362876 218.707796 
L 362.79008 213.046138 
L 364.217285 214.763728 
L 365.644489 211.173851 
L 368.498898 202.759633 
L 369.926102 193.92869 
L 371.353307 194.332605 
L 372.780511 190.492075 
L 374.207715 187.155109 
L 377.062124 199.422635 
L 378.489328 196.20831 
L 379.916533 198.246553 
L 381.343737 192.848747 
L 382.770942 185.080576 
L 384.198146 188.426582 
L 385.62535 178.014743 
L 387.052555 173.675614 
L 388.479759 174.839456 
L 389.906963 178.887059 
L 391.334168 182.561761 
L 392.761372 182.771519 
L 394.188577 179.095762 
L 395.615781 187.991396 
L 397.042985 184.616295 
L 398.47019 186.139237 
L 399.897394 193.674804 
L 401.324598 192.522958 
L 402.751803 192.46074 
L 404.179007 193.94531 
L 405.606212 197.380043 
L 407.033416 187.703181 
L 408.46062 191.981554 
L 409.887825 190.170548 
L 411.315029 182.899095 
L 412.742233 179.399832 
L 414.169438 188.311986 
L 415.596642 183.270929 
L 417.023847 185.152013 
L 418.451051 190.141369 
L 419.878255 184.67415 
L 421.30546 180.190788 
L 422.732664 177.458302 
L 424.159868 183.434273 
L 425.587073 188.293549 
L 427.014277 179.821548 
L 428.441482 182.441117 
L 429.868686 172.685397 
L 431.29589 170.373307 
L 432.723095 177.879589 
L 434.150299 174.874231 
L 435.577503 165.414666 
L 437.004708 168.02471 
L 438.431912 173.309771 
L 439.859117 170.769635 
L 441.286321 175.96884 
L 442.713525 176.484129 
L 444.14073 175.475326 
L 445.567934 188.019982 
L 446.995138 186.100663 
L 448.422343 189.160249 
L 449.849547 188.394032 
L 451.276752 183.432299 
L 452.703956 182.3117 
L 454.13116 174.870406 
L 455.558365 176.661346 
L 456.985569 172.689441 
L 458.412773 168.352168 
L 459.839978 166.46346 
L 461.267182 168.837563 
L 462.694387 173.792433 
L 464.121591 181.872237 
L 465.548795 191.152497 
L 466.976 190.3233 
L 468.403204 191.161218 
L 469.830408 188.983556 
L 471.257613 183.977378 
L 472.684817 176.888933 
L 474.112022 179.329092 
L 475.539226 184.245718 
L 476.96643 176.301457 
L 478.393635 174.398697 
L 479.820839 174.479035 
L 481.248043 162.103726 
L 482.675248 164.77605 
L 484.102452 166.794224 
L 485.529657 169.233256 
L 486.956861 159.418762 
L 488.384065 177.42462 
L 489.81127 183.23927 
L 491.238474 184.386395 
L 492.665678 180.71345 
L 494.092883 197.748845 
L 495.520087 199.099275 
L 496.947292 190.073658 
L 498.374496 190.645913 
L 499.8017 182.873633 
L 501.228905 178.514263 
L 502.656109 185.57876 
L 504.083313 178.203609 
L 505.510518 185.724151 
L 506.937722 174.590187 
L 509.792131 164.228308 
L 511.219335 160.672334 
L 512.64654 168.777577 
L 515.500948 158.352925 
L 516.928153 156.102798 
L 518.355357 161.572337 
L 519.782562 163.919685 
L 521.209766 166.011273 
L 522.63697 166.664656 
L 524.064175 171.089116 
L 525.491379 176.814126 
L 526.918583 168.607875 
L 528.345788 182.407716 
L 529.772992 173.339156 
L 531.200197 178.039381 
L 532.627401 174.974178 
L 534.054605 182.30842 
L 535.48181 182.924 
L 536.909014 188.14797 
L 538.336218 178.47923 
L 539.763423 175.043499 
L 541.190627 181.443814 
L 542.617832 174.28855 
L 544.045036 178.955552 
L 545.47224 177.273537 
L 546.899445 185.242252 
L 548.326649 181.476653 
L 549.753853 176.693255 
L 551.181058 170.319281 
L 552.608262 168.768217 
L 554.035467 166.588483 
L 555.462671 168.848941 
L 556.889875 178.210254 
L 558.31708 176.65272 
L 559.744284 181.917566 
L 561.171488 192.188953 
L 562.598693 192.279928 
L 564.025897 185.221501 
L 565.453102 193.067188 
L 566.880306 188.872692 
L 568.30751 185.058283 
L 569.734715 180.231675 
L 571.161919 170.965733 
L 572.589123 179.423497 
L 574.016328 182.838326 
L 575.443532 177.540589 
L 576.870737 179.16718 
L 578.297941 181.988838 
L 579.725145 179.583911 
L 581.15235 188.649186 
L 582.579554 184.057885 
L 584.006758 193.01277 
L 585.433963 189.942371 
L 586.861167 189.870533 
L 588.288371 192.445501 
L 589.715576 186.229772 
L 591.14278 184.43694 
L 592.569985 173.901326 
L 593.997189 177.632222 
L 595.424393 176.458056 
L 596.851598 174.277103 
L 598.278802 171.272009 
L 599.706006 167.637332 
L 601.133211 164.46327 
L 603.98762 183.674116 
L 605.414824 181.492456 
L 606.842028 177.153796 
L 608.269233 174.273459 
L 609.696437 165.879321 
L 611.123641 163.609412 
L 612.550846 166.957219 
L 613.97805 167.529459 
L 615.405255 169.493648 
L 616.832459 169.560716 
L 618.259663 175.70596 
L 619.686868 170.029904 
L 621.114072 170.855181 
L 622.541276 164.581509 
L 623.968481 176.95909 
L 625.395685 182.200598 
L 626.82289 188.037778 
L 628.250094 186.491069 
L 629.677298 191.558546 
L 631.104503 182.656526 
L 632.531707 185.601435 
L 633.958911 183.552544 
L 635.386116 184.949756 
L 638.240525 197.67272 
L 639.667729 198.030649 
L 641.094933 196.54838 
L 642.522138 191.199273 
L 643.949342 184.553309 
L 645.376546 173.474545 
L 646.803751 167.811503 
L 648.230955 176.709666 
L 649.65816 174.819931 
L 651.085364 168.675344 
L 652.512568 167.379309 
L 653.939773 164.364026 
L 653.939773 164.364026 
" clip-path="url(#p5beb1b7f5c)" style="fill: none; stroke: #1f77b4; stroke-width: 1.2; stroke-linecap: square"/>
   </g>
   <g id="line2d_32">
    <path d="M 84.485227 176.684329 
L 85.912432 176.867605 
L 87.339636 182.135418 
L 88.76684 191.062121 
L 90.194045 192.387021 
L 91.621249 192.099202 
L 93.048454 190.621435 
L 94.475658 196.086621 
L 95.902862 193.992153 
L 97.330067 196.031076 
L 98.757271 203.581865 
L 100.184475 198.679694 
L 101.61168 202.943529 
L 103.038884 206.463001 
L 104.466089 209.196057 
L 105.893293 210.85067 
L 107.320497 207.726407 
L 108.747702 210.371269 
L 110.174906 213.318614 
L 111.60211 215.640869 
L 113.029315 204.806795 
L 115.883724 210.860317 
L 117.310928 208.876603 
L 118.738132 208.942207 
L 120.165337 206.699252 
L 121.592541 210.458078 
L 123.019745 207.321385 
L 124.44695 200.118266 
L 125.874154 194.760329 
L 127.301359 191.655282 
L 128.728563 194.778901 
L 130.155767 194.465043 
L 133.010176 192.813348 
L 134.43738 197.992509 
L 135.864585 194.566673 
L 137.291789 193.275492 
L 138.718994 190.919462 
L 140.146198 189.781683 
L 141.573402 192.454864 
L 143.000607 191.355739 
L 144.427811 196.101307 
L 145.855015 195.006602 
L 147.28222 191.921696 
L 148.709424 195.658308 
L 151.563833 194.997411 
L 152.991037 188.782605 
L 154.418242 184.367616 
L 155.845446 183.998377 
L 157.27265 187.155425 
L 158.699855 183.804783 
L 160.127059 188.483564 
L 161.554263 186.543527 
L 162.981468 181.516371 
L 164.408672 176.023475 
L 165.835877 175.532897 
L 167.263081 174.70987 
L 168.690285 176.088135 
L 170.11749 171.814192 
L 171.544694 164.987475 
L 172.971898 161.960312 
L 174.399103 168.214197 
L 175.826307 161.41328 
L 177.253512 163.236792 
L 180.10792 160.81027 
L 181.535125 160.365624 
L 182.962329 161.650871 
L 184.389533 156.26194 
L 185.816738 160.453257 
L 187.243942 161.77 
L 188.671147 157.138412 
L 190.098351 153.052868 
L 191.525555 147.452483 
L 192.95276 144.61962 
L 194.379964 141.020415 
L 195.807168 138.594386 
L 197.234373 142.311343 
L 198.661577 142.300784 
L 200.088782 142.649334 
L 201.515986 138.935151 
L 202.94319 139.260533 
L 204.370395 134.659298 
L 205.797599 139.033513 
L 207.224803 142.245763 
L 208.652008 141.433656 
L 211.506417 147.397359 
L 212.933621 149.404671 
L 214.360825 147.250797 
L 215.78803 147.299291 
L 217.215234 143.883783 
L 218.642438 139.502025 
L 220.069643 138.266641 
L 221.496847 141.935897 
L 222.924052 142.881248 
L 225.77846 139.460636 
L 227.205665 138.143165 
L 228.632869 133.100046 
L 230.060073 131.910651 
L 231.487278 131.045678 
L 232.914482 135.497658 
L 234.341687 134.254208 
L 235.768891 139.944955 
L 238.6233 135.614343 
L 240.050504 135.38306 
L 241.477708 131.957309 
L 242.904913 127.995921 
L 244.332117 127.056771 
L 245.759322 122.525496 
L 247.186526 119.877668 
L 250.040935 116.960249 
L 251.468139 114.357828 
L 252.895343 114.771375 
L 254.322548 110.121669 
L 255.749752 107.851602 
L 257.176957 103.810051 
L 258.604161 104.173337 
L 260.031365 105.260466 
L 261.45857 106.792247 
L 262.885774 102.215922 
L 264.312978 103.999607 
L 265.740183 103.524461 
L 267.167387 99.663468 
L 268.594592 99.715533 
L 270.021796 99.299169 
L 271.449 98.350126 
L 272.876205 97.695004 
L 274.303409 100.740187 
L 275.730613 98.31173 
L 277.157818 96.326339 
L 278.585022 102.191968 
L 280.012227 101.594318 
L 281.439431 100.869811 
L 282.866635 100.60964 
L 284.29384 97.942235 
L 285.721044 96.131715 
L 287.148248 95.33529 
L 288.575453 93.197418 
L 290.002657 90.148426 
L 291.429862 88.105428 
L 292.857066 88.823331 
L 294.28427 88.547912 
L 295.711475 90.170697 
L 297.138679 91.291238 
L 298.565883 91.426102 
L 299.993088 88.744087 
L 301.420292 86.323031 
L 302.847497 84.306446 
L 304.274701 83.106698 
L 305.701905 86.608135 
L 307.12911 85.27414 
L 309.983518 82.30431 
L 311.410723 82.952101 
L 312.837927 81.712351 
L 314.265132 78.118263 
L 315.692336 77.567823 
L 317.11954 76.485462 
L 318.546745 75.776457 
L 321.401153 76.790362 
L 322.828358 76.325456 
L 324.255562 76.754134 
L 325.682767 78.459006 
L 327.109971 77.201848 
L 328.537175 77.544129 
L 329.96438 80.627546 
L 331.391584 80.812699 
L 332.818788 83.946921 
L 334.245993 84.636608 
L 335.673197 87.19591 
L 337.100402 86.471039 
L 338.527606 88.94791 
L 341.382015 86.156434 
L 342.809219 83.434935 
L 344.236423 84.784318 
L 345.663628 85.761531 
L 347.090832 86.307402 
L 348.518037 85.055456 
L 349.945241 86.279271 
L 351.372445 82.993535 
L 352.79965 83.362095 
L 354.226854 81.267861 
L 355.654058 84.287282 
L 357.081263 80.617658 
L 358.508467 81.252655 
L 359.935672 81.600727 
L 361.362876 80.889031 
L 362.79008 78.299823 
L 364.217285 78.051939 
L 365.644489 76.315118 
L 367.071693 72.850161 
L 368.498898 74.229967 
L 369.926102 72.624699 
L 371.353307 74.324148 
L 372.780511 75.487943 
L 374.207715 74.904892 
L 375.63492 76.112276 
L 377.062124 73.69342 
L 378.489328 73.564112 
L 379.916533 72.334348 
L 381.343737 74.219235 
L 382.770942 75.093866 
L 384.198146 72.724386 
L 385.62535 72.638562 
L 387.052555 71.223441 
L 388.479759 69.336174 
L 389.906963 68.498245 
L 391.334168 69.078363 
L 392.761372 69.812467 
L 394.188577 70.194426 
L 395.615781 69.774091 
L 397.042985 68.733133 
L 398.47019 70.19902 
L 399.897394 67.661009 
L 401.324598 67.447169 
L 402.751803 68.77451 
L 404.179007 70.266604 
L 405.606212 69.85024 
L 407.033416 68.043012 
L 408.46062 67.056701 
L 409.887825 66.96745 
L 411.315029 67.281652 
L 412.742233 66.592308 
L 414.169438 62.831958 
L 415.596642 63.948335 
L 417.023847 64.051572 
L 418.451051 63.770659 
L 419.878255 62.612877 
L 421.30546 63.07501 
L 422.732664 65.508412 
L 424.159868 65.311739 
L 425.587073 64.519981 
L 427.014277 66.853993 
L 428.441482 64.542274 
L 429.868686 63.884222 
L 431.29589 64.476294 
L 432.723095 63.724396 
L 434.150299 65.108688 
L 435.577503 64.628734 
L 437.004708 61.128205 
L 438.431912 62.951131 
L 439.859117 61.92098 
L 441.286321 63.139922 
L 442.713525 65.052628 
L 444.14073 65.697958 
L 445.567934 67.021454 
L 446.995138 67.849464 
L 448.422343 65.742417 
L 449.849547 66.147677 
L 451.276752 66.321902 
L 452.703956 68.130432 
L 454.13116 65.359324 
L 455.558365 64.113461 
L 456.985569 64.719764 
L 458.412773 63.735436 
L 459.839978 62.580099 
L 461.267182 62.526438 
L 464.121591 63.862252 
L 465.548795 65.116123 
L 466.976 63.804708 
L 468.403204 66.907876 
L 469.830408 65.460228 
L 471.257613 67.273096 
L 472.684817 68.305884 
L 474.112022 66.916605 
L 475.539226 69.097398 
L 476.96643 70.331707 
L 478.393635 68.68956 
L 479.820839 68.957832 
L 481.248043 65.749374 
L 482.675248 65.81324 
L 484.102452 63.718477 
L 485.529657 64.706032 
L 486.956861 62.484035 
L 488.384065 63.703481 
L 489.81127 62.6078 
L 491.238474 64.791081 
L 492.665678 63.564107 
L 494.092883 65.624824 
L 495.520087 65.340976 
L 498.374496 63.939384 
L 499.8017 65.413845 
L 501.228905 63.71683 
L 502.656109 64.718667 
L 504.083313 65.263153 
L 505.510518 63.590042 
L 506.937722 64.804854 
L 508.364927 65.086916 
L 509.792131 64.318196 
L 511.219335 64.71147 
L 512.64654 64.729486 
L 514.073744 63.034965 
L 515.500948 63.790196 
L 516.928153 65.569793 
L 518.355357 67.088591 
L 519.782562 67.364441 
L 521.209766 64.467006 
L 522.63697 64.595851 
L 524.064175 65.111661 
L 525.491379 64.182203 
L 526.918583 61.925635 
L 528.345788 63.872791 
L 529.772992 65.055626 
L 532.627401 66.828987 
L 534.054605 67.303036 
L 535.48181 67.169294 
L 536.909014 65.823232 
L 538.336218 64.676286 
L 539.763423 65.81825 
L 541.190627 62.820209 
L 542.617832 62.812437 
L 544.045036 62.320983 
L 545.47224 59.80403 
L 546.899445 59.486069 
L 548.326649 59.991127 
L 549.753853 62.104468 
L 551.181058 61.555569 
L 552.608262 61.592405 
L 554.035467 61.104707 
L 555.462671 59.596343 
L 556.889875 61.453021 
L 558.31708 61.889356 
L 559.744284 60.943246 
L 561.171488 63.108372 
L 562.598693 62.778081 
L 564.025897 64.677606 
L 565.453102 64.548549 
L 566.880306 62.76678 
L 568.30751 65.802101 
L 569.734715 65.841391 
L 571.161919 66.229011 
L 572.589123 66.809688 
L 574.016328 65.162811 
L 575.443532 62.913054 
L 576.870737 62.118818 
L 578.297941 60.628612 
L 579.725145 58.676528 
L 581.15235 58.980201 
L 582.579554 59.605871 
L 584.006758 58.490677 
L 585.433963 59.217569 
L 586.861167 60.345506 
L 588.288371 59.014988 
L 589.715576 60.218267 
L 591.14278 60.07777 
L 593.997189 58.635735 
L 595.424393 60.292989 
L 596.851598 60.650879 
L 598.278802 60.606101 
L 599.706006 61.565894 
L 601.133211 61.960404 
L 602.560415 61.909894 
L 603.98762 58.436468 
L 605.414824 60.578158 
L 606.842028 59.242963 
L 608.269233 59.528765 
L 609.696437 59.975176 
L 611.123641 58.615597 
L 612.550846 60.307673 
L 613.97805 62.298098 
L 615.405255 60.890569 
L 616.832459 58.94226 
L 618.259663 59.46619 
L 619.686868 59.451385 
L 621.114072 61.163277 
L 622.541276 60.074141 
L 623.968481 60.858701 
L 625.395685 63.219704 
L 626.82289 61.422425 
L 628.250094 62.150445 
L 629.677298 64.425283 
L 631.104503 64.948204 
L 632.531707 64.613968 
L 633.958911 63.678287 
L 635.386116 63.602256 
L 636.81332 63.0586 
L 638.240525 62.27629 
L 639.667729 61.957362 
L 641.094933 61.370816 
L 642.522138 62.171779 
L 643.949342 63.353344 
L 645.376546 62.714835 
L 646.803751 63.373889 
L 648.230955 63.051693 
L 649.65816 62.354556 
L 651.085364 59.900931 
L 652.512568 60.486023 
L 653.939773 61.667418 
L 653.939773 61.667418 
" clip-path="url(#p5beb1b7f5c)" style="fill: none; stroke: #ff7f0e; stroke-width: 1.2; stroke-linecap: square"/>
   </g>
   <g id="line2d_33">
    <path d="M 84.485227 123.584939 
L 85.912432 131.840618 
L 87.339636 132.475722 
L 88.76684 131.314333 
L 90.194045 127.110614 
L 91.621249 128.524091 
L 93.048454 126.867386 
L 94.475658 123.286778 
L 95.902862 129.247571 
L 97.330067 131.119941 
L 98.757271 133.343111 
L 100.184475 127.886688 
L 101.61168 127.868044 
L 103.038884 129.727864 
L 104.466089 131.20066 
L 105.893293 129.005095 
L 107.320497 128.48816 
L 108.747702 123.618185 
L 110.174906 124.098364 
L 111.60211 122.890442 
L 113.029315 127.481722 
L 114.456519 128.853221 
L 115.883724 135.078025 
L 117.310928 140.249638 
L 118.738132 155.862003 
L 120.165337 170.086772 
L 124.44695 203.855407 
L 125.874154 218.592446 
L 127.301359 225.900193 
L 128.728563 232.3451 
L 130.155767 240.499246 
L 131.582972 235.665898 
L 133.010176 239.103427 
L 134.43738 242.951628 
L 135.864585 250.324721 
L 137.291789 254.150696 
L 138.718994 258.529823 
L 140.146198 263.676364 
L 141.573402 262.51511 
L 143.000607 263.002555 
L 144.427811 267.100743 
L 145.855015 269.284786 
L 147.28222 273.820918 
L 148.709424 282.46371 
L 150.136629 288.807774 
L 151.563833 296.865718 
L 152.991037 298.811563 
L 154.418242 303.628004 
L 155.845446 300.651153 
L 157.27265 302.795475 
L 158.699855 296.95101 
L 160.127059 287.350698 
L 161.554263 273.638739 
L 162.981468 261.196298 
L 164.408672 255.265483 
L 165.835877 240.884644 
L 167.263081 230.912846 
L 168.690285 225.670257 
L 170.11749 212.487383 
L 171.544694 213.309531 
L 172.971898 209.162165 
L 174.399103 203.038793 
L 175.826307 203.864505 
L 177.253512 195.090733 
L 178.680716 189.395588 
L 180.10792 190.427084 
L 181.535125 187.136278 
L 182.962329 180.384421 
L 184.389533 176.727896 
L 185.816738 172.647789 
L 187.243942 160.420612 
L 188.671147 151.338573 
L 190.098351 140.096152 
L 191.525555 130.944861 
L 194.379964 114.114542 
L 197.234373 105.921693 
L 198.661577 101.097996 
L 200.088782 96.672982 
L 201.515986 91.567211 
L 202.94319 87.776437 
L 204.370395 86.431381 
L 205.797599 82.254707 
L 207.224803 77.408611 
L 208.652008 75.28166 
L 210.079212 72.713146 
L 211.506417 71.147069 
L 212.933621 70.539243 
L 214.360825 67.782726 
L 215.78803 67.299295 
L 217.215234 65.584932 
L 218.642438 65.805429 
L 220.069643 62.339206 
L 221.496847 64.604024 
L 222.924052 64.938544 
L 224.351256 64.743926 
L 225.77846 66.008991 
L 227.205665 66.482278 
L 228.632869 63.779718 
L 230.060073 65.978546 
L 231.487278 64.823106 
L 232.914482 62.357786 
L 235.768891 58.856335 
L 237.196095 59.270925 
L 238.6233 57.786569 
L 242.904913 57.728801 
L 244.332117 58.168943 
L 245.759322 58.287458 
L 247.186526 61.249441 
L 248.61373 59.061937 
L 250.040935 58.345483 
L 251.468139 58.42269 
L 252.895343 57.940668 
L 254.322548 58.006787 
L 255.749752 56.18425 
L 257.176957 55.161708 
L 258.604161 53.515074 
L 261.45857 58.361259 
L 262.885774 59.234497 
L 264.312978 59.474415 
L 265.740183 56.766325 
L 267.167387 58.170127 
L 268.594592 57.713789 
L 270.021796 55.962681 
L 271.449 53.983817 
L 272.876205 53.629619 
L 274.303409 50.528372 
L 275.730613 49.736039 
L 277.157818 49.133277 
L 278.585022 50.311235 
L 280.012227 50.906068 
L 281.439431 51.105583 
L 282.866635 53.570895 
L 284.29384 52.081246 
L 285.721044 51.83196 
L 287.148248 53.455609 
L 288.575453 53.96088 
L 290.002657 51.207562 
L 291.429862 52.5649 
L 292.857066 54.277684 
L 294.28427 53.209853 
L 295.711475 54.654408 
L 297.138679 55.203694 
L 298.565883 57.375545 
L 299.993088 56.115989 
L 301.420292 54.636687 
L 302.847497 54.764198 
L 304.274701 53.986485 
L 305.701905 54.932168 
L 307.12911 55.039046 
L 309.983518 52.306763 
L 311.410723 53.759516 
L 312.837927 55.432833 
L 314.265132 57.335986 
L 315.692336 58.1305 
L 317.11954 59.21102 
L 318.546745 57.710371 
L 319.973949 58.006894 
L 321.401153 60.357229 
L 322.828358 58.948521 
L 324.255562 56.685362 
L 325.682767 54.78035 
L 327.109971 55.628724 
L 328.537175 57.169253 
L 329.96438 57.437757 
L 331.391584 57.049644 
L 334.245993 57.522193 
L 335.673197 58.875919 
L 337.100402 57.466891 
L 338.527606 58.863647 
L 339.95481 58.858643 
L 341.382015 60.704077 
L 342.809219 62.2136 
L 344.236423 61.043331 
L 345.663628 60.914588 
L 347.090832 63.92019 
L 348.518037 62.393099 
L 349.945241 62.967293 
L 351.372445 63.152718 
L 352.79965 62.807045 
L 355.654058 61.871706 
L 357.081263 61.246943 
L 358.508467 60.839346 
L 359.935672 60.090277 
L 361.362876 60.877454 
L 362.79008 61.413603 
L 364.217285 61.362934 
L 365.644489 59.955723 
L 367.071693 59.936164 
L 368.498898 62.614866 
L 369.926102 60.991743 
L 371.353307 62.547191 
L 372.780511 61.347169 
L 374.207715 61.885525 
L 375.63492 60.665558 
L 377.062124 60.760449 
L 378.489328 59.744961 
L 381.343737 63.88938 
L 384.198146 64.633331 
L 385.62535 64.661375 
L 387.052555 65.059313 
L 388.479759 63.170091 
L 389.906963 61.947435 
L 391.334168 59.417521 
L 392.761372 57.712772 
L 394.188577 56.196431 
L 395.615781 57.193285 
L 397.042985 55.714033 
L 398.47019 56.778445 
L 399.897394 58.423899 
L 401.324598 58.492992 
L 402.751803 59.152652 
L 404.179007 59.453207 
L 405.606212 61.598181 
L 407.033416 59.425434 
L 408.46062 58.705145 
L 409.887825 59.397962 
L 411.315029 58.998884 
L 412.742233 58.781877 
L 414.169438 61.842516 
L 415.596642 61.41291 
L 417.023847 62.497273 
L 418.451051 60.685037 
L 419.878255 60.38806 
L 421.30546 58.564324 
L 422.732664 57.356914 
L 424.159868 56.364869 
L 425.587073 55.801647 
L 427.014277 54.226355 
L 428.441482 54.423219 
L 429.868686 53.163068 
L 432.723095 54.472134 
L 434.150299 54.073221 
L 435.577503 55.204756 
L 437.004708 54.540907 
L 438.431912 55.99581 
L 439.859117 53.858792 
L 441.286321 54.041215 
L 442.713525 55.225951 
L 444.14073 54.804386 
L 445.567934 55.564917 
L 446.995138 54.512965 
L 448.422343 55.117247 
L 449.849547 52.783415 
L 452.703956 53.106978 
L 454.13116 51.229178 
L 455.558365 54.216434 
L 456.985569 54.136376 
L 458.412773 53.250734 
L 459.839978 54.528247 
L 461.267182 53.905549 
L 462.694387 54.972238 
L 464.121591 54.585521 
L 465.548795 55.225755 
L 466.976 55.128882 
L 468.403204 55.944943 
L 469.830408 55.933969 
L 471.257613 54.320541 
L 472.684817 54.274954 
L 474.112022 55.988351 
L 475.539226 56.827691 
L 476.96643 55.976986 
L 478.393635 56.896398 
L 479.820839 58.292907 
L 481.248043 59.113734 
L 482.675248 57.420597 
L 484.102452 58.902757 
L 485.529657 57.082946 
L 486.956861 54.629614 
L 488.384065 52.68423 
L 489.81127 53.701065 
L 491.238474 55.156995 
L 494.092883 56.184617 
L 495.520087 54.769527 
L 496.947292 54.439015 
L 498.374496 56.614747 
L 499.8017 55.591807 
L 501.228905 54.976381 
L 502.656109 53.192739 
L 504.083313 53.222656 
L 505.510518 54.250412 
L 506.937722 54.984186 
L 508.364927 55.870251 
L 509.792131 58.193893 
L 511.219335 59.352425 
L 512.64654 59.77983 
L 514.073744 58.954642 
L 515.500948 61.063532 
L 516.928153 60.022833 
L 518.355357 59.602039 
L 519.782562 57.089018 
L 524.064175 52.249289 
L 525.491379 52.098392 
L 526.918583 53.366227 
L 528.345788 53.684752 
L 529.772992 50.325258 
L 531.200197 51.822784 
L 532.627401 53.1173 
L 534.054605 52.701293 
L 535.48181 52.142479 
L 536.909014 53.149042 
L 538.336218 52.697551 
L 541.190627 52.401777 
L 542.617832 53.50596 
L 544.045036 52.813305 
L 545.47224 55.229152 
L 546.899445 55.002489 
L 549.753853 53.930996 
L 551.181058 55.147292 
L 552.608262 55.047152 
L 554.035467 56.639338 
L 555.462671 56.692202 
L 556.889875 55.542376 
L 558.31708 55.087088 
L 559.744284 54.163857 
L 561.171488 55.994064 
L 562.598693 55.63987 
L 564.025897 56.055937 
L 565.453102 56.01437 
L 568.30751 57.264495 
L 569.734715 56.262011 
L 571.161919 54.654816 
L 572.589123 56.618861 
L 574.016328 59.416797 
L 575.443532 58.52963 
L 576.870737 57.368587 
L 578.297941 58.605841 
L 579.725145 58.500064 
L 581.15235 58.784544 
L 582.579554 60.650646 
L 584.006758 59.166412 
L 585.433963 59.083646 
L 586.861167 59.186299 
L 588.288371 59.037199 
L 589.715576 57.493061 
L 591.14278 56.725746 
L 592.569985 53.695815 
L 593.997189 55.463889 
L 595.424393 55.734556 
L 596.851598 55.304574 
L 598.278802 53.32884 
L 599.706006 53.881227 
L 601.133211 56.356872 
L 602.560415 56.849586 
L 603.98762 58.001475 
L 605.414824 58.380354 
L 606.842028 56.803252 
L 608.269233 58.554246 
L 609.696437 58.708258 
L 611.123641 58.236862 
L 613.97805 58.89955 
L 616.832459 59.890491 
L 618.259663 61.380162 
L 619.686868 60.874486 
L 621.114072 59.582254 
L 622.541276 62.929197 
L 623.968481 62.614838 
L 625.395685 63.1151 
L 626.82289 62.932939 
L 628.250094 62.031322 
L 629.677298 61.365736 
L 631.104503 60.890461 
L 632.531707 63.857192 
L 633.958911 61.474214 
L 635.386116 60.628649 
L 636.81332 60.811431 
L 639.667729 58.608403 
L 641.094933 57.194994 
L 642.522138 56.453326 
L 643.949342 57.645004 
L 645.376546 57.935824 
L 646.803751 58.028847 
L 648.230955 59.996872 
L 649.65816 59.702541 
L 651.085364 59.616175 
L 652.512568 60.060267 
L 653.939773 59.860707 
L 653.939773 59.860707 
" clip-path="url(#p5beb1b7f5c)" style="fill: none; stroke: #2ca02c; stroke-width: 1.2; stroke-linecap: square"/>
   </g>
   <g id="line2d_34">
    <path d="M 84.485227 203.515017 
L 85.912432 204.860231 
L 87.339636 212.89161 
L 88.76684 228.701503 
L 90.194045 236.337706 
L 91.621249 248.0436 
L 93.048454 257.196876 
L 94.475658 259.025713 
L 95.902862 263.302705 
L 97.330067 270.069997 
L 98.757271 283.350384 
L 101.61168 271.042047 
L 103.038884 275.970802 
L 104.466089 286.241404 
L 105.893293 284.134989 
L 107.320497 285.481663 
L 108.747702 283.615842 
L 110.174906 286.973178 
L 111.60211 288.817161 
L 113.029315 293.149915 
L 114.456519 300.292458 
L 115.883724 303.065265 
L 117.310928 303.793584 
L 120.165337 295.987798 
L 121.592541 296.533024 
L 123.019745 300.730926 
L 125.874154 294.145671 
L 127.301359 290.519602 
L 128.728563 287.735505 
L 130.155767 286.678575 
L 131.582972 283.30183 
L 133.010176 282.155157 
L 134.43738 286.025866 
L 135.864585 289.160405 
L 137.291789 266.272962 
L 140.146198 226.321228 
L 141.573402 209.808667 
L 144.427811 182.573596 
L 145.855015 166.655006 
L 147.28222 155.73034 
L 148.709424 146.993266 
L 151.563833 128.133476 
L 154.418242 115.395795 
L 155.845446 110.936596 
L 157.27265 105.336583 
L 158.699855 100.522677 
L 160.127059 96.329264 
L 161.554263 93.353728 
L 162.981468 91.936198 
L 164.408672 87.514932 
L 165.835877 84.687022 
L 167.263081 82.842238 
L 168.690285 79.542646 
L 170.11749 77.99626 
L 171.544694 77.627884 
L 172.971898 76.807107 
L 174.399103 76.450347 
L 175.826307 74.745715 
L 177.253512 76.112641 
L 178.680716 77.062771 
L 180.10792 76.573907 
L 181.535125 74.257564 
L 182.962329 73.303096 
L 184.389533 69.333697 
L 185.816738 68.631268 
L 187.243942 68.373967 
L 188.671147 65.758955 
L 190.098351 64.068068 
L 191.525555 63.114851 
L 192.95276 61.59392 
L 194.379964 64.535155 
L 195.807168 63.005021 
L 198.661577 60.90906 
L 200.088782 60.332385 
L 201.515986 61.049749 
L 202.94319 60.017334 
L 204.370395 60.01749 
L 205.797599 60.77058 
L 207.224803 60.67386 
L 208.652008 58.558905 
L 210.079212 58.863066 
L 211.506417 57.478664 
L 212.933621 58.536207 
L 214.360825 60.984737 
L 217.215234 60.692026 
L 218.642438 59.527493 
L 220.069643 61.351627 
L 221.496847 59.047378 
L 222.924052 58.714221 
L 224.351256 59.348658 
L 225.77846 57.878463 
L 227.205665 58.610751 
L 228.632869 58.939541 
L 230.060073 59.784542 
L 231.487278 61.534206 
L 232.914482 63.930342 
L 234.341687 65.055939 
L 235.768891 63.581311 
L 237.196095 64.249161 
L 238.6233 64.207782 
L 240.050504 63.740461 
L 241.477708 63.721168 
L 242.904913 63.101976 
L 244.332117 63.231362 
L 245.759322 63.061931 
L 247.186526 62.459987 
L 248.61373 61.322155 
L 250.040935 62.168561 
L 251.468139 61.4213 
L 252.895343 61.8142 
L 254.322548 63.648107 
L 255.749752 63.685157 
L 257.176957 63.395617 
L 258.604161 63.730609 
L 260.031365 61.942924 
L 261.45857 59.637514 
L 262.885774 61.472471 
L 264.312978 61.702337 
L 265.740183 60.960853 
L 267.167387 63.374788 
L 268.594592 61.076184 
L 270.021796 60.579856 
L 271.449 60.844074 
L 272.876205 60.467659 
L 274.303409 58.276215 
L 275.730613 58.717505 
L 277.157818 60.646345 
L 278.585022 59.616685 
L 280.012227 59.1502 
L 281.439431 59.875847 
L 282.866635 57.991755 
L 284.29384 57.916686 
L 285.721044 58.48056 
L 287.148248 57.271563 
L 288.575453 56.396043 
L 290.002657 55.819268 
L 291.429862 54.238235 
L 292.857066 55.99622 
L 294.28427 55.480557 
L 295.711475 57.539498 
L 297.138679 57.385162 
L 298.565883 57.843261 
L 301.420292 62.471005 
L 302.847497 61.310872 
L 304.274701 60.959394 
L 305.701905 62.386927 
L 307.12911 62.014752 
L 308.556314 61.119694 
L 309.983518 64.5966 
L 311.410723 66.93038 
L 312.837927 65.116511 
L 314.265132 65.860262 
L 315.692336 66.203797 
L 317.11954 64.008478 
L 318.546745 62.533179 
L 319.973949 61.711758 
L 321.401153 59.879888 
L 322.828358 59.822028 
L 324.255562 60.020853 
L 325.682767 59.751537 
L 327.109971 58.878013 
L 328.537175 60.565747 
L 329.96438 60.292155 
L 331.391584 61.794737 
L 332.818788 61.456368 
L 334.245993 62.174305 
L 335.673197 61.383184 
L 337.100402 59.402331 
L 338.527606 57.968224 
L 339.95481 57.35996 
L 341.382015 58.062001 
L 342.809219 56.633225 
L 344.236423 57.859495 
L 345.663628 58.73306 
L 347.090832 56.986845 
L 348.518037 55.85922 
L 351.372445 54.624173 
L 352.79965 53.06906 
L 354.226854 53.468212 
L 355.654058 52.316626 
L 357.081263 53.615472 
L 358.508467 55.106918 
L 361.362876 53.482156 
L 362.79008 52.665429 
L 364.217285 53.602758 
L 365.644489 53.450065 
L 367.071693 53.698257 
L 368.498898 51.704522 
L 369.926102 50.573347 
L 372.780511 51.037671 
L 374.207715 48.838145 
L 375.63492 52.845122 
L 377.062124 54.260688 
L 378.489328 55.835971 
L 379.916533 56.161399 
L 381.343737 56.368405 
L 382.770942 56.861587 
L 384.198146 55.589125 
L 385.62535 53.6377 
L 387.052555 56.113377 
L 388.479759 55.589797 
L 389.906963 56.027188 
L 391.334168 59.161797 
L 392.761372 61.432669 
L 394.188577 61.405413 
L 395.615781 61.895302 
L 397.042985 59.999861 
L 399.897394 63.105539 
L 401.324598 63.201982 
L 402.751803 61.472142 
L 404.179007 61.332391 
L 405.606212 63.040601 
L 407.033416 61.822618 
L 408.46062 57.030548 
L 409.887825 59.923776 
L 411.315029 59.718092 
L 412.742233 60.945707 
L 414.169438 59.639586 
L 415.596642 60.493891 
L 417.023847 62.145818 
L 418.451051 60.778774 
L 419.878255 59.79969 
L 421.30546 59.952485 
L 422.732664 58.93212 
L 424.159868 61.711406 
L 425.587073 59.973677 
L 427.014277 60.702403 
L 428.441482 62.559847 
L 429.868686 63.461321 
L 431.29589 62.774035 
L 432.723095 63.477318 
L 434.150299 64.667083 
L 435.577503 65.22536 
L 437.004708 63.561854 
L 438.431912 63.225359 
L 439.859117 63.829381 
L 441.286321 65.695035 
L 442.713525 65.761511 
L 444.14073 65.673932 
L 445.567934 65.109723 
L 446.995138 64.134211 
L 448.422343 62.971642 
L 449.849547 61.142559 
L 451.276752 60.865541 
L 452.703956 60.960233 
L 454.13116 60.731251 
L 455.558365 61.725264 
L 456.985569 63.693136 
L 458.412773 63.275916 
L 459.839978 61.507091 
L 461.267182 60.593755 
L 462.694387 62.895593 
L 465.548795 63.748208 
L 466.976 64.051023 
L 468.403204 64.209645 
L 469.830408 63.435751 
L 471.257613 62.309885 
L 472.684817 61.754054 
L 474.112022 63.084345 
L 475.539226 63.775099 
L 476.96643 63.074075 
L 478.393635 63.575624 
L 479.820839 63.545107 
L 481.248043 62.387458 
L 482.675248 62.034056 
L 485.529657 61.731646 
L 486.956861 57.921702 
L 489.81127 58.352557 
L 491.238474 57.48939 
L 492.665678 56.44961 
L 494.092883 58.404109 
L 496.947292 55.600704 
L 498.374496 55.476261 
L 499.8017 54.610789 
L 501.228905 56.174938 
L 502.656109 54.782807 
L 504.083313 53.930889 
L 505.510518 54.724157 
L 506.937722 56.830531 
L 508.364927 57.5011 
L 509.792131 57.568766 
L 511.219335 56.65281 
L 512.64654 56.709169 
L 514.073744 54.897946 
L 515.500948 57.322588 
L 516.928153 57.018628 
L 518.355357 55.441502 
L 521.209766 56.654334 
L 522.63697 58.943295 
L 524.064175 59.015428 
L 525.491379 60.321109 
L 526.918583 60.178284 
L 528.345788 56.728852 
L 529.772992 56.855704 
L 531.200197 57.401067 
L 532.627401 58.816388 
L 534.054605 59.652507 
L 535.48181 61.05999 
L 536.909014 61.594697 
L 538.336218 60.437564 
L 539.763423 59.427264 
L 541.190627 60.900698 
L 542.617832 61.831144 
L 544.045036 59.912282 
L 545.47224 61.538304 
L 546.899445 60.520401 
L 548.326649 62.121757 
L 551.181058 61.126154 
L 552.608262 58.860461 
L 554.035467 57.860599 
L 555.462671 59.129747 
L 556.889875 58.078207 
L 558.31708 59.068108 
L 559.744284 57.931556 
L 561.171488 56.526067 
L 562.598693 58.005541 
L 564.025897 58.549272 
L 565.453102 58.324913 
L 566.880306 55.937833 
L 568.30751 55.509127 
L 569.734715 56.576602 
L 571.161919 58.652348 
L 572.589123 60.002173 
L 574.016328 57.948042 
L 575.443532 58.749778 
L 576.870737 59.239675 
L 578.297941 59.521886 
L 579.725145 60.650806 
L 581.15235 58.853486 
L 582.579554 58.721706 
L 584.006758 58.210426 
L 585.433963 57.336794 
L 586.861167 58.428586 
L 588.288371 56.89026 
L 589.715576 54.933945 
L 591.14278 55.964688 
L 592.569985 55.713569 
L 593.997189 54.431996 
L 595.424393 56.145825 
L 596.851598 55.938148 
L 598.278802 57.524315 
L 599.706006 56.58963 
L 601.133211 59.138299 
L 602.560415 59.41361 
L 603.98762 60.311105 
L 605.414824 58.90121 
L 608.269233 61.676119 
L 609.696437 61.447672 
L 611.123641 60.918812 
L 612.550846 61.816687 
L 613.97805 61.780077 
L 616.832459 60.94831 
L 618.259663 62.314459 
L 619.686868 65.159883 
L 621.114072 65.017128 
L 622.541276 64.142901 
L 623.968481 63.912611 
L 625.395685 65.555991 
L 626.82289 65.208845 
L 628.250094 63.764467 
L 629.677298 63.854065 
L 631.104503 63.379625 
L 632.531707 63.162615 
L 633.958911 62.795546 
L 635.386116 63.08663 
L 636.81332 61.671424 
L 638.240525 60.678972 
L 639.667729 61.978077 
L 641.094933 61.314392 
L 642.522138 63.051885 
L 643.949342 64.249607 
L 645.376546 63.013746 
L 646.803751 63.42687 
L 649.65816 61.546271 
L 651.085364 61.882809 
L 652.512568 61.691422 
L 653.939773 62.527017 
L 653.939773 62.527017 
" clip-path="url(#p5beb1b7f5c)" style="fill: none; stroke: #d62728; stroke-width: 1.2; stroke-linecap: square"/>
   </g>
   <g id="line2d_35">
    <path d="M 84.485227 178.528201 
L 85.912432 183.703788 
L 87.339636 185.301982 
L 88.76684 196.914594 
L 90.194045 188.671528 
L 93.048454 175.678286 
L 94.475658 168.176271 
L 95.902862 158.216013 
L 98.757271 140.366246 
L 100.184475 134.263937 
L 101.61168 126.577499 
L 103.038884 120.680012 
L 104.466089 115.644459 
L 105.893293 111.592975 
L 108.747702 96.419245 
L 110.174906 93.944329 
L 111.60211 88.721758 
L 113.029315 84.080287 
L 114.456519 81.916467 
L 115.883724 80.200175 
L 117.310928 77.058484 
L 118.738132 76.948948 
L 120.165337 75.617005 
L 121.592541 73.859629 
L 123.019745 70.721807 
L 125.874154 67.216206 
L 127.301359 66.736875 
L 128.728563 62.726886 
L 130.155767 63.618685 
L 131.582972 63.881612 
L 133.010176 64.359622 
L 134.43738 63.075017 
L 135.864585 62.773228 
L 137.291789 62.821826 
L 138.718994 64.447919 
L 140.146198 64.130528 
L 141.573402 65.363859 
L 143.000607 65.828894 
L 144.427811 67.628248 
L 145.855015 66.808827 
L 147.28222 67.406236 
L 148.709424 66.732986 
L 150.136629 66.307139 
L 151.563833 65.350944 
L 152.991037 64.114521 
L 154.418242 64.685686 
L 155.845446 63.143019 
L 157.27265 63.009598 
L 158.699855 61.342841 
L 160.127059 60.277009 
L 161.554263 60.35103 
L 162.981468 60.576117 
L 165.835877 58.666735 
L 167.263081 58.086108 
L 168.690285 59.23541 
L 170.11749 61.596082 
L 171.544694 61.560421 
L 172.971898 60.378623 
L 174.399103 60.6726 
L 175.826307 63.219469 
L 177.253512 63.53306 
L 178.680716 62.56782 
L 180.10792 61.36883 
L 181.535125 62.102168 
L 182.962329 58.8186 
L 184.389533 59.110745 
L 185.816738 58.723398 
L 187.243942 57.418173 
L 188.671147 58.303602 
L 190.098351 59.007287 
L 191.525555 59.38097 
L 192.95276 59.325836 
L 194.379964 60.158757 
L 195.807168 60.366895 
L 197.234373 59.943126 
L 198.661577 58.555664 
L 200.088782 56.245548 
L 201.515986 56.282638 
L 202.94319 56.133008 
L 204.370395 55.373735 
L 205.797599 57.227556 
L 207.224803 56.773428 
L 208.652008 58.038311 
L 210.079212 57.011489 
L 211.506417 57.221418 
L 214.360825 56.43055 
L 215.78803 55.810938 
L 217.215234 57.302702 
L 218.642438 58.302658 
L 221.496847 57.772642 
L 222.924052 59.236318 
L 224.351256 58.550434 
L 225.77846 58.253462 
L 227.205665 56.876993 
L 228.632869 57.127833 
L 230.060073 58.509042 
L 231.487278 58.03264 
L 232.914482 57.697853 
L 234.341687 55.52443 
L 235.768891 54.855159 
L 237.196095 55.815544 
L 238.6233 53.886187 
L 240.050504 55.899698 
L 241.477708 55.420924 
L 242.904913 55.490557 
L 244.332117 54.078569 
L 245.759322 53.389837 
L 247.186526 52.378501 
L 248.61373 50.996684 
L 250.040935 52.23058 
L 251.468139 51.018031 
L 252.895343 50.566119 
L 254.322548 51.228539 
L 255.749752 50.327003 
L 257.176957 51.88707 
L 258.604161 54.55268 
L 261.45857 56.194963 
L 262.885774 55.326462 
L 264.312978 56.392307 
L 265.740183 55.567537 
L 267.167387 55.772791 
L 270.021796 56.875199 
L 271.449 56.301319 
L 272.876205 56.786654 
L 274.303409 56.27242 
L 275.730613 57.427744 
L 277.157818 57.828534 
L 278.585022 57.177406 
L 280.012227 56.963972 
L 281.439431 59.799534 
L 282.866635 59.586192 
L 284.29384 57.724231 
L 285.721044 57.308337 
L 287.148248 55.567006 
L 288.575453 56.608541 
L 290.002657 56.37935 
L 291.429862 54.95313 
L 292.857066 54.745546 
L 294.28427 56.497856 
L 295.711475 56.38857 
L 297.138679 58.281465 
L 298.565883 57.723924 
L 299.993088 58.22498 
L 301.420292 57.524554 
L 304.274701 59.335355 
L 305.701905 59.015119 
L 307.12911 59.004493 
L 308.556314 57.53804 
L 309.983518 57.416066 
L 311.410723 59.193258 
L 312.837927 59.456296 
L 315.692336 59.417949 
L 317.11954 57.360264 
L 318.546745 56.755653 
L 321.401153 59.250693 
L 322.828358 58.054653 
L 324.255562 56.501414 
L 325.682767 56.154838 
L 327.109971 57.892732 
L 328.537175 57.703137 
L 329.96438 59.002294 
L 331.391584 61.098056 
L 332.818788 60.550325 
L 334.245993 62.600991 
L 335.673197 62.092867 
L 337.100402 61.929854 
L 338.527606 58.547416 
L 339.95481 58.788375 
L 341.382015 58.812509 
L 342.809219 60.014753 
L 344.236423 58.637266 
L 345.663628 58.256582 
L 347.090832 57.299802 
L 348.518037 56.608139 
L 349.945241 56.073457 
L 351.372445 54.230846 
L 352.79965 54.941288 
L 354.226854 58.581838 
L 355.654058 61.309717 
L 357.081263 62.577965 
L 358.508467 62.891083 
L 359.935672 62.781502 
L 361.362876 61.759754 
L 362.79008 61.413262 
L 364.217285 60.749203 
L 365.644489 58.833767 
L 367.071693 58.118914 
L 368.498898 59.889699 
L 369.926102 59.471634 
L 371.353307 59.980235 
L 372.780511 59.912153 
L 374.207715 59.130484 
L 375.63492 59.929716 
L 377.062124 58.136027 
L 378.489328 57.492941 
L 379.916533 57.811382 
L 381.343737 57.476984 
L 384.198146 57.835947 
L 385.62535 55.679137 
L 387.052555 55.99818 
L 388.479759 54.992651 
L 389.906963 56.217021 
L 391.334168 54.869471 
L 392.761372 55.005862 
L 394.188577 55.502136 
L 395.615781 53.264564 
L 397.042985 54.397655 
L 398.47019 56.019391 
L 399.897394 54.701388 
L 401.324598 55.656199 
L 402.751803 55.478099 
L 404.179007 56.153937 
L 405.606212 56.016466 
L 407.033416 54.109638 
L 408.46062 56.16121 
L 409.887825 56.385639 
L 411.315029 56.371194 
L 412.742233 55.115431 
L 414.169438 55.691116 
L 415.596642 54.608936 
L 417.023847 55.491851 
L 418.451051 56.058271 
L 419.878255 57.414591 
L 422.732664 62.415732 
L 424.159868 63.190998 
L 425.587073 62.428263 
L 427.014277 61.145888 
L 428.441482 57.954815 
L 429.868686 58.336879 
L 431.29589 59.113063 
L 432.723095 58.205286 
L 434.150299 57.033365 
L 435.577503 58.946576 
L 437.004708 58.524336 
L 438.431912 57.324493 
L 439.859117 56.474098 
L 441.286321 59.105534 
L 442.713525 57.668934 
L 444.14073 59.847912 
L 445.567934 59.037329 
L 446.995138 60.65656 
L 448.422343 60.597075 
L 449.849547 61.448502 
L 451.276752 59.415362 
L 452.703956 60.92205 
L 454.13116 59.324425 
L 455.558365 57.969099 
L 456.985569 59.137494 
L 458.412773 58.654384 
L 459.839978 56.699453 
L 461.267182 56.182268 
L 462.694387 53.912976 
L 464.121591 53.856098 
L 465.548795 55.484077 
L 468.403204 53.576393 
L 469.830408 54.112574 
L 471.257613 53.08153 
L 472.684817 52.774096 
L 474.112022 51.842661 
L 475.539226 52.154369 
L 476.96643 53.317974 
L 478.393635 54.309774 
L 479.820839 54.597035 
L 481.248043 56.129026 
L 482.675248 56.323993 
L 484.102452 57.877111 
L 485.529657 60.126055 
L 486.956861 58.565524 
L 488.384065 58.857979 
L 489.81127 58.276962 
L 491.238474 58.552831 
L 492.665678 60.594001 
L 494.092883 59.193661 
L 495.520087 58.419557 
L 496.947292 58.284551 
L 498.374496 54.725861 
L 499.8017 55.161637 
L 501.228905 55.256514 
L 502.656109 54.571621 
L 504.083313 55.465424 
L 505.510518 58.796614 
L 506.937722 60.49373 
L 508.364927 61.010119 
L 509.792131 61.38092 
L 511.219335 61.402581 
L 512.64654 59.361251 
L 514.073744 59.634482 
L 515.500948 59.046656 
L 516.928153 59.909091 
L 518.355357 58.189593 
L 519.782562 56.744983 
L 521.209766 56.479442 
L 522.63697 57.179144 
L 524.064175 58.136882 
L 525.491379 58.823422 
L 526.918583 57.059638 
L 528.345788 55.728098 
L 529.772992 57.84233 
L 532.627401 58.650925 
L 534.054605 58.375312 
L 535.48181 58.427398 
L 536.909014 60.506599 
L 539.763423 58.976883 
L 541.190627 60.623991 
L 542.617832 60.053984 
L 544.045036 59.151824 
L 545.47224 58.914474 
L 548.326649 61.445309 
L 549.753853 61.806738 
L 551.181058 61.483849 
L 554.035467 63.437592 
L 555.462671 64.113269 
L 556.889875 62.369304 
L 558.31708 62.779176 
L 559.744284 62.888005 
L 561.171488 60.320076 
L 562.598693 59.854288 
L 564.025897 57.900357 
L 565.453102 55.723992 
L 566.880306 54.715871 
L 568.30751 54.859915 
L 571.161919 57.490694 
L 572.589123 56.750529 
L 574.016328 58.758838 
L 575.443532 59.176816 
L 576.870737 59.203361 
L 578.297941 59.473038 
L 579.725145 59.438756 
L 581.15235 59.230239 
L 582.579554 56.671949 
L 584.006758 57.782542 
L 585.433963 58.139765 
L 586.861167 57.833536 
L 588.288371 56.716733 
L 589.715576 55.04287 
L 591.14278 55.551819 
L 592.569985 55.635981 
L 593.997189 57.774228 
L 595.424393 56.962006 
L 596.851598 54.615774 
L 598.278802 54.808781 
L 599.706006 54.810028 
L 602.560415 55.627359 
L 603.98762 57.003474 
L 605.414824 59.117316 
L 606.842028 61.442656 
L 608.269233 60.618633 
L 609.696437 62.685944 
L 611.123641 61.805383 
L 612.550846 61.241851 
L 613.97805 64.41031 
L 615.405255 63.949759 
L 616.832459 60.971645 
L 618.259663 61.486959 
L 619.686868 63.179335 
L 621.114072 61.355801 
L 622.541276 61.431786 
L 623.968481 62.432076 
L 625.395685 60.821724 
L 626.82289 60.006601 
L 631.104503 61.190947 
L 632.531707 62.681515 
L 633.958911 62.267914 
L 635.386116 60.802692 
L 636.81332 60.387039 
L 638.240525 60.134638 
L 639.667729 59.058436 
L 641.094933 58.930802 
L 642.522138 59.266314 
L 643.949342 59.478023 
L 645.376546 59.466138 
L 646.803751 58.873763 
L 648.230955 57.301534 
L 649.65816 56.673672 
L 651.085364 56.644128 
L 652.512568 58.052122 
L 653.939773 58.710555 
L 653.939773 58.710555 
" clip-path="url(#p5beb1b7f5c)" style="fill: none; stroke: #9b8ac9; stroke-width: 1.2; stroke-linecap: square"/>
   </g>
   <g id="patch_3">
    <path d="M 56.0125 349.8636 
L 56.0125 34.5036 
" style="fill: none; stroke: #000000; stroke-width: 0.8; stroke-linejoin: miter; stroke-linecap: square"/>
   </g>
   <g id="patch_4">
    <path d="M 682.4125 349.8636 
L 682.4125 34.5036 
" style="fill: none; stroke: #000000; stroke-width: 0.8; stroke-linejoin: miter; stroke-linecap: square"/>
   </g>
   <g id="patch_5">
    <path d="M 56.0125 349.8636 
L 682.4125 349.8636 
" style="fill: none; stroke: #000000; stroke-width: 0.8; stroke-linejoin: miter; stroke-linecap: square"/>
   </g>
   <g id="patch_6">
    <path d="M 56.0125 34.5036 
L 682.4125 34.5036 
" style="fill: none; stroke: #000000; stroke-width: 0.8; stroke-linejoin: miter; stroke-linecap: square"/>
   </g>
   <g id="legend_1">
    <g id="patch_7">
     <path d="M 56.0125 31.35 
L 682.4125 31.35 
L 682.4125 7.2 
L 56.0125 7.2 
z
" style="fill: #ffffff; stroke: #808080; stroke-width: 0.8; stroke-linejoin: miter"/>
    </g>
    <g id="line2d_36">
     <path d="M 62.3125 18.4 
L 76.3125 18.4 
L 90.3125 18.4 
" style="fill: none; stroke: #1f77b4; stroke-width: 1.2; stroke-linecap: square"/>
    </g>
    <g id="text_18">
     <!-- DDPG -->
     <g transform="translate(98.7125 23.3) scale(0.14 -0.14)">
      <defs>
       <path id="SimHei-44" d="M 2925 2250 
Q 2925 1100 2437 612 
Q 1950 125 1125 125 
L 275 125 
L 275 4400 
L 1125 4400 
Q 2050 4400 2487 3900 
Q 2925 3400 2925 2250 
z
M 2325 2250 
Q 2325 3175 2025 3550 
Q 1725 3925 1125 3925 
L 850 3925 
L 850 600 
L 1125 600 
Q 1725 600 2025 962 
Q 2325 1325 2325 2250 
z
" transform="scale(0.015625)"/>
       <path id="SimHei-50" d="M 2950 3100 
Q 2950 2500 2600 2150 
Q 2250 1800 1625 1800 
L 900 1800 
L 900 125 
L 325 125 
L 325 4400 
L 1625 4400 
Q 2250 4400 2600 4050 
Q 2950 3700 2950 3100 
z
M 2375 3100 
Q 2375 3575 2150 3750 
Q 1925 3925 1475 3925 
L 900 3925 
L 900 2275 
L 1475 2275 
Q 1925 2275 2150 2450 
Q 2375 2625 2375 3100 
z
" transform="scale(0.015625)"/>
       <path id="SimHei-47" d="M 2850 75 
L 2425 75 
L 2350 425 
Q 2250 275 2037 175 
Q 1825 75 1575 75 
Q 1050 75 637 562 
Q 225 1050 225 2125 
Q 225 3300 600 3875 
Q 975 4450 1625 4450 
Q 2200 4450 2525 4025 
Q 2850 3600 2850 2925 
L 2300 2925 
Q 2300 3450 2125 3712 
Q 1950 3975 1625 3975 
Q 1225 3975 1025 3562 
Q 825 3150 825 2175 
Q 825 1250 1075 900 
Q 1325 550 1650 550 
Q 1975 550 2162 787 
Q 2350 1025 2350 1525 
L 2350 1800 
L 1575 1800 
L 1575 2275 
L 2850 2275 
L 2850 75 
z
" transform="scale(0.015625)"/>
      </defs>
      <use xlink:href="#SimHei-44"/>
      <use xlink:href="#SimHei-44" transform="translate(50 0)"/>
      <use xlink:href="#SimHei-50" transform="translate(100 0)"/>
      <use xlink:href="#SimHei-47" transform="translate(150 0)"/>
     </g>
    </g>
    <g id="line2d_37">
     <path d="M 192.6625 18.4 
L 206.6625 18.4 
L 220.6625 18.4 
" style="fill: none; stroke: #ff7f0e; stroke-width: 1.2; stroke-linecap: square"/>
    </g>
    <g id="text_19">
     <!-- PPO -->
     <g transform="translate(229.0625 23.3) scale(0.14 -0.14)">
      <defs>
       <path id="SimHei-4f" d="M 2950 2275 
Q 2950 1100 2587 587 
Q 2225 75 1575 75 
Q 925 75 550 587 
Q 175 1100 175 2275 
Q 175 3450 550 3950 
Q 925 4450 1575 4450 
Q 2225 4450 2587 3950 
Q 2950 3450 2950 2275 
z
M 2350 2275 
Q 2350 3325 2125 3650 
Q 1900 3975 1575 3975 
Q 1250 3975 1012 3650 
Q 775 3325 775 2275 
Q 775 1225 1012 887 
Q 1250 550 1575 550 
Q 1900 550 2125 887 
Q 2350 1225 2350 2275 
z
" transform="scale(0.015625)"/>
      </defs>
      <use xlink:href="#SimHei-50"/>
      <use xlink:href="#SimHei-50" transform="translate(50 0)"/>
      <use xlink:href="#SimHei-4f" transform="translate(100 0)"/>
     </g>
    </g>
    <g id="line2d_38">
     <path d="M 316.0125 18.4 
L 330.0125 18.4 
L 344.0125 18.4 
" style="fill: none; stroke: #2ca02c; stroke-width: 1.2; stroke-linecap: square"/>
    </g>
    <g id="text_20">
     <!-- TD3 -->
     <g transform="translate(352.4125 23.3) scale(0.14 -0.14)">
      <use xlink:href="#SimHei-54"/>
      <use xlink:href="#SimHei-44" transform="translate(50 0)"/>
      <use xlink:href="#SimHei-33" transform="translate(100 0)"/>
     </g>
    </g>
    <g id="line2d_39">
     <path d="M 439.3625 18.4 
L 453.3625 18.4 
L 467.3625 18.4 
" style="fill: none; stroke: #d62728; stroke-width: 1.2; stroke-linecap: square"/>
    </g>
    <g id="text_21">
     <!-- GCN-DDQN -->
     <g transform="translate(475.7625 23.3) scale(0.14 -0.14)">
      <defs>
       <path id="SimHei-43" d="M 2975 1825 
Q 2950 875 2575 475 
Q 2200 75 1675 75 
Q 1075 75 650 562 
Q 225 1050 225 2125 
Q 225 3300 637 3875 
Q 1050 4450 1700 4450 
Q 2250 4450 2612 4037 
Q 2975 3625 2950 2875 
L 2400 2875 
Q 2400 3425 2225 3700 
Q 2050 3975 1700 3975 
Q 1300 3975 1062 3562 
Q 825 3150 825 2175 
Q 825 1275 1062 912 
Q 1300 550 1675 550 
Q 1950 550 2175 812 
Q 2400 1075 2400 1825 
L 2975 1825 
z
" transform="scale(0.015625)"/>
       <path id="SimHei-4e" d="M 2850 125 
L 2225 125 
L 850 3225 
L 825 3225 
L 825 125 
L 250 125 
L 250 4400 
L 875 4400 
L 2250 1300 
L 2275 1300 
L 2275 4400 
L 2850 4400 
L 2850 125 
z
" transform="scale(0.015625)"/>
       <path id="SimHei-2d" d="M 2975 2125 
L 125 2125 
L 125 2525 
L 2975 2525 
L 2975 2125 
z
" transform="scale(0.015625)"/>
       <path id="SimHei-51" d="M 2950 2275 
Q 2950 1675 2862 1262 
Q 2775 850 2575 600 
L 2775 225 
L 2375 -200 
L 2150 225 
Q 2050 150 1900 112 
Q 1750 75 1575 75 
Q 925 75 550 587 
Q 175 1100 175 2275 
Q 175 3450 550 3950 
Q 925 4450 1575 4450 
Q 2225 4450 2587 3950 
Q 2950 3450 2950 2275 
z
M 2350 2275 
Q 2350 3325 2125 3650 
Q 1900 3975 1575 3975 
Q 1250 3975 1012 3650 
Q 775 3325 775 2275 
Q 775 1225 1012 887 
Q 1250 550 1575 550 
Q 1700 550 1800 587 
Q 1900 625 1950 675 
L 1550 1450 
L 1900 1875 
L 2250 1200 
Q 2300 1450 2325 1650 
Q 2350 1850 2350 2275 
z
" transform="scale(0.015625)"/>
      </defs>
      <use xlink:href="#SimHei-47"/>
      <use xlink:href="#SimHei-43" transform="translate(50 0)"/>
      <use xlink:href="#SimHei-4e" transform="translate(100 0)"/>
      <use xlink:href="#SimHei-2d" transform="translate(150 0)"/>
      <use xlink:href="#SimHei-44" transform="translate(200 0)"/>
      <use xlink:href="#SimHei-44" transform="translate(250 0)"/>
      <use xlink:href="#SimHei-51" transform="translate(300 0)"/>
      <use xlink:href="#SimHei-4e" transform="translate(350 0)"/>
     </g>
    </g>
    <g id="line2d_40">
     <path d="M 597.7125 18.4 
L 611.7125 18.4 
L 625.7125 18.4 
" style="fill: none; stroke: #9b8ac9; stroke-width: 1.2; stroke-linecap: square"/>
    </g>
    <g id="text_22">
     <!-- GLDVTO -->
     <g transform="translate(634.1125 23.3) scale(0.14 -0.14)">
      <defs>
       <path id="SimHei-4c" d="M 2900 125 
L 300 125 
L 300 4400 
L 875 4400 
L 875 600 
L 2900 600 
L 2900 125 
z
" transform="scale(0.015625)"/>
       <path id="SimHei-56" d="M 3050 4400 
L 1800 75 
L 1300 75 
L 50 4400 
L 650 4400 
L 1525 1125 
L 1575 1125 
L 2450 4400 
L 3050 4400 
z
" transform="scale(0.015625)"/>
      </defs>
      <use xlink:href="#SimHei-47"/>
      <use xlink:href="#SimHei-4c" transform="translate(50 0)"/>
      <use xlink:href="#SimHei-44" transform="translate(100 0)"/>
      <use xlink:href="#SimHei-56" transform="translate(150 0)"/>
      <use xlink:href="#SimHei-54" transform="translate(200 0)"/>
      <use xlink:href="#SimHei-4f" transform="translate(250 0)"/>
     </g>
    </g>
   </g>
  </g>
 </g>
 <defs>
  <clipPath id="p5beb1b7f5c">
   <rect x="56.0125" y="34.5036" width="626.4" height="315.36"/>
  </clipPath>
 </defs>
</svg>
