<?xml version="1.0" encoding="utf-8" standalone="no"?>
<!DOCTYPE svg PUBLIC "-//W3C//DTD SVG 1.1//EN"
  "http://www.w3.org/Graphics/SVG/1.1/DTD/svg11.dtd">
<svg xmlns:xlink="http://www.w3.org/1999/xlink" width="689.6125pt" height="391.6261pt" viewBox="0 0 689.6125 391.6261" xmlns="http://www.w3.org/2000/svg" version="1.1">
 <metadata>
  <rdf:RDF xmlns:dc="http://purl.org/dc/elements/1.1/" xmlns:cc="http://creativecommons.org/ns#" xmlns:rdf="http://www.w3.org/1999/02/22-rdf-syntax-ns#">
   <cc:Work>
    <dc:type rdf:resource="http://purl.org/dc/dcmitype/StillImage"/>
    <dc:date>2026-07-13T21:10:53.415967</dc:date>
    <dc:format>image/svg+xml</dc:format>
    <dc:creator>
     <cc:Agent>
      <dc:title>Matplotlib v3.10.7, https://matplotlib.org/</dc:title>
     </cc:Agent>
    </dc:creator>
   </cc:Work>
  </rdf:RDF>
 </metadata>
 <defs>
  <style type="text/css">*{stroke-linejoin: round; stroke-linecap: butt}</style>
 </defs>
 <g id="figure_1">
  <g id="patch_1">
   <path d="M 0 391.6261 
L 689.6125 391.6261 
L 689.6125 0 
L 0 0 
z
" style="fill: #ffffff"/>
  </g>
  <g id="axes_1">
   <g id="patch_2">
    <path d="M 56.0125 349.8636 
L 682.4125 349.8636 
L 682.4125 34.5036 
L 56.0125 34.5036 
z
" style="fill: #ffffff"/>
   </g>
   <g id="matplotlib.axis_1">
    <g id="xtick_1">
     <g id="line2d_1">
      <path d="M 84.485227 349.8636 
L 84.485227 34.5036 
" clip-path="url(#p3a907d0f7c)" style="fill: none; stroke-dasharray: 2.22,0.96; stroke-dashoffset: 0; stroke: #b0b0b0; stroke-opacity: 0.25; stroke-width: 0.6"/>
     </g>
     <g id="line2d_2">
      <defs>
       <path id="ma57e546e2c" d="M 0 0 
L 0 3.5 
" style="stroke: #000000; stroke-width: 0.8"/>
      </defs>
      <g>
       <use xlink:href="#ma57e546e2c" x="84.485227" y="349.8636" style="stroke: #000000; stroke-width: 0.8"/>
      </g>
     </g>
     <g id="text_1">
      <!-- 0 -->
      <g transform="translate(81.485227 365.1136) scale(0.12 -0.12)">
       <defs>
        <path id="SimHei-30" d="M 225 2537 
Q 250 3200 412 3587 
Q 575 3975 875 4225 
Q 1175 4475 1612 4475 
Q 2050 4475 2375 4112 
Q 2700 3750 2800 3200 
Q 2900 2650 2862 1937 
Q 2825 1225 2612 775 
Q 2400 325 1975 150 
Q 1550 -25 1125 187 
Q 700 400 525 750 
Q 350 1100 275 1487 
Q 200 1875 225 2537 
z
M 750 2687 
Q 675 2000 800 1462 
Q 925 925 1212 700 
Q 1500 475 1800 612 
Q 2100 750 2237 1162 
Q 2375 1575 2375 2062 
Q 2375 2550 2337 2950 
Q 2300 3350 2112 3675 
Q 1925 4000 1612 4012 
Q 1300 4025 1062 3700 
Q 825 3375 750 2687 
z
" transform="scale(0.015625)"/>
       </defs>
       <use xlink:href="#SimHei-30"/>
      </g>
     </g>
    </g>
    <g id="xtick_2">
     <g id="line2d_3">
      <path d="M 155.845446 349.8636 
L 155.845446 34.5036 
" clip-path="url(#p3a907d0f7c)" style="fill: none; stroke-dasharray: 2.22,0.96; stroke-dashoffset: 0; stroke: #b0b0b0; stroke-opacity: 0.25; stroke-width: 0.6"/>
     </g>
     <g id="line2d_4">
      <g>
       <use xlink:href="#ma57e546e2c" x="155.845446" y="349.8636" style="stroke: #000000; stroke-width: 0.8"/>
      </g>
     </g>
     <g id="text_2">
      <!-- 50 -->
      <g transform="translate(149.845446 365.1136) scale(0.12 -0.12)">
       <defs>
        <path id="SimHei-35" d="M 550 1325 
Q 725 650 1150 575 
Q 1575 500 1837 662 
Q 2100 825 2212 1087 
Q 2325 1350 2312 1675 
Q 2300 2000 2137 2225 
Q 1975 2450 1725 2525 
Q 1475 2600 1162 2525 
Q 850 2450 650 2175 
L 225 2225 
Q 275 2375 700 4375 
L 2675 4375 
L 2675 3925 
L 1075 3925 
Q 950 3250 825 2850 
Q 1200 3025 1525 3012 
Q 1850 3000 2150 2862 
Q 2450 2725 2587 2487 
Q 2725 2250 2787 2012 
Q 2850 1775 2837 1500 
Q 2825 1225 2725 937 
Q 2625 650 2425 462 
Q 2225 275 1937 162 
Q 1650 50 1275 75 
Q 900 100 562 350 
Q 225 600 100 1200 
L 550 1325 
z
" transform="scale(0.015625)"/>
       </defs>
       <use xlink:href="#SimHei-35"/>
       <use xlink:href="#SimHei-30" transform="translate(50 0)"/>
      </g>
     </g>
    </g>
    <g id="xtick_3">
     <g id="line2d_5">
      <path d="M 227.205665 349.8636 
L 227.205665 34.5036 
" clip-path="url(#p3a907d0f7c)" style="fill: none; stroke-dasharray: 2.22,0.96; stroke-dashoffset: 0; stroke: #b0b0b0; stroke-opacity: 0.25; stroke-width: 0.6"/>
     </g>
     <g id="line2d_6">
      <g>
       <use xlink:href="#ma57e546e2c" x="227.205665" y="349.8636" style="stroke: #000000; stroke-width: 0.8"/>
      </g>
     </g>
     <g id="text_3">
      <!-- 100 -->
      <g transform="translate(218.205665 365.1136) scale(0.12 -0.12)">
       <defs>
        <path id="SimHei-31" d="M 1400 3600 
Q 1075 3275 575 2975 
L 575 3450 
Q 1200 3875 1600 4450 
L 1900 4450 
L 1900 150 
L 1400 150 
L 1400 3600 
z
" transform="scale(0.015625)"/>
       </defs>
       <use xlink:href="#SimHei-31"/>
       <use xlink:href="#SimHei-30" transform="translate(50 0)"/>
       <use xlink:href="#SimHei-30" transform="translate(100 0)"/>
      </g>
     </g>
    </g>
    <g id="xtick_4">
     <g id="line2d_7">
      <path d="M 298.565883 349.8636 
L 298.565883 34.5036 
" clip-path="url(#p3a907d0f7c)" style="fill: none; stroke-dasharray: 2.22,0.96; stroke-dashoffset: 0; stroke: #b0b0b0; stroke-opacity: 0.25; stroke-width: 0.6"/>
     </g>
     <g id="line2d_8">
      <g>
       <use xlink:href="#ma57e546e2c" x="298.565883" y="349.8636" style="stroke: #000000; stroke-width: 0.8"/>
      </g>
     </g>
     <g id="text_4">
      <!-- 150 -->
      <g transform="translate(289.565883 365.1136) scale(0.12 -0.12)">
       <use xlink:href="#SimHei-31"/>
       <use xlink:href="#SimHei-35" transform="translate(50 0)"/>
       <use xlink:href="#SimHei-30" transform="translate(100 0)"/>
      </g>
     </g>
    </g>
    <g id="xtick_5">
     <g id="line2d_9">
      <path d="M 369.926102 349.8636 
L 369.926102 34.5036 
" clip-path="url(#p3a907d0f7c)" style="fill: none; stroke-dasharray: 2.22,0.96; stroke-dashoffset: 0; stroke: #b0b0b0; stroke-opacity: 0.25; stroke-width: 0.6"/>
     </g>
     <g id="line2d_10">
      <g>
       <use xlink:href="#ma57e546e2c" x="369.926102" y="349.8636" style="stroke: #000000; stroke-width: 0.8"/>
      </g>
     </g>
     <g id="text_5">
      <!-- 200 -->
      <g transform="translate(360.926102 365.1136) scale(0.12 -0.12)">
       <defs>
        <path id="SimHei-32" d="M 300 250 
Q 325 625 650 925 
Q 975 1225 1475 1862 
Q 1975 2500 2125 2850 
Q 2275 3200 2237 3450 
Q 2200 3700 2000 3862 
Q 1800 4025 1537 4000 
Q 1275 3975 1037 3800 
Q 800 3625 675 3275 
L 200 3350 
Q 400 3925 712 4187 
Q 1025 4450 1450 4475 
Q 1700 4500 1900 4462 
Q 2100 4425 2312 4287 
Q 2525 4150 2662 3875 
Q 2800 3600 2762 3212 
Q 2725 2825 2375 2287 
Q 2025 1750 1025 600 
L 2825 600 
L 2825 150 
L 300 150 
L 300 250 
z
" transform="scale(0.015625)"/>
       </defs>
       <use xlink:href="#SimHei-32"/>
       <use xlink:href="#SimHei-30" transform="translate(50 0)"/>
       <use xlink:href="#SimHei-30" transform="translate(100 0)"/>
      </g>
     </g>
    </g>
    <g id="xtick_6">
     <g id="line2d_11">
      <path d="M 441.286321 349.8636 
L 441.286321 34.5036 
" clip-path="url(#p3a907d0f7c)" style="fill: none; stroke-dasharray: 2.22,0.96; stroke-dashoffset: 0; stroke: #b0b0b0; stroke-opacity: 0.25; stroke-width: 0.6"/>
     </g>
     <g id="line2d_12">
      <g>
       <use xlink:href="#ma57e546e2c" x="441.286321" y="349.8636" style="stroke: #000000; stroke-width: 0.8"/>
      </g>
     </g>
     <g id="text_6">
      <!-- 250 -->
      <g transform="translate(432.286321 365.1136) scale(0.12 -0.12)">
       <use xlink:href="#SimHei-32"/>
       <use xlink:href="#SimHei-35" transform="translate(50 0)"/>
       <use xlink:href="#SimHei-30" transform="translate(100 0)"/>
      </g>
     </g>
    </g>
    <g id="xtick_7">
     <g id="line2d_13">
      <path d="M 512.64654 349.8636 
L 512.64654 34.5036 
" clip-path="url(#p3a907d0f7c)" style="fill: none; stroke-dasharray: 2.22,0.96; stroke-dashoffset: 0; stroke: #b0b0b0; stroke-opacity: 0.25; stroke-width: 0.6"/>
     </g>
     <g id="line2d_14">
      <g>
       <use xlink:href="#ma57e546e2c" x="512.64654" y="349.8636" style="stroke: #000000; stroke-width: 0.8"/>
      </g>
     </g>
     <g id="text_7">
      <!-- 300 -->
      <g transform="translate(503.64654 365.1136) scale(0.12 -0.12)">
       <defs>
        <path id="SimHei-33" d="M 250 1225 
L 700 1300 
Q 800 975 1025 762 
Q 1250 550 1587 562 
Q 1925 575 2125 837 
Q 2325 1100 2300 1437 
Q 2275 1775 2037 1962 
Q 1800 2150 1275 2225 
L 1275 2550 
Q 1800 2600 2037 2825 
Q 2275 3050 2250 3412 
Q 2225 3775 1925 3937 
Q 1625 4100 1287 3975 
Q 950 3850 750 3275 
L 300 3350 
Q 450 3800 712 4100 
Q 975 4400 1425 4450 
Q 1875 4500 2212 4337 
Q 2550 4175 2687 3837 
Q 2825 3500 2725 3100 
Q 2625 2700 2150 2400 
Q 2500 2250 2687 1950 
Q 2875 1650 2812 1162 
Q 2750 675 2375 375 
Q 2000 75 1525 87 
Q 1050 100 700 387 
Q 350 675 250 1225 
z
" transform="scale(0.015625)"/>
       </defs>
       <use xlink:href="#SimHei-33"/>
       <use xlink:href="#SimHei-30" transform="translate(50 0)"/>
       <use xlink:href="#SimHei-30" transform="translate(100 0)"/>
      </g>
     </g>
    </g>
    <g id="xtick_8">
     <g id="line2d_15">
      <path d="M 584.006758 349.8636 
L 584.006758 34.5036 
" clip-path="url(#p3a907d0f7c)" style="fill: none; stroke-dasharray: 2.22,0.96; stroke-dashoffset: 0; stroke: #b0b0b0; stroke-opacity: 0.25; stroke-width: 0.6"/>
     </g>
     <g id="line2d_16">
      <g>
       <use xlink:href="#ma57e546e2c" x="584.006758" y="349.8636" style="stroke: #000000; stroke-width: 0.8"/>
      </g>
     </g>
     <g id="text_8">
      <!-- 350 -->
      <g transform="translate(575.006758 365.1136) scale(0.12 -0.12)">
       <use xlink:href="#SimHei-33"/>
       <use xlink:href="#SimHei-35" transform="translate(50 0)"/>
       <use xlink:href="#SimHei-30" transform="translate(100 0)"/>
      </g>
     </g>
    </g>
    <g id="xtick_9">
     <g id="line2d_17">
      <path d="M 655.366977 349.8636 
L 655.366977 34.5036 
" clip-path="url(#p3a907d0f7c)" style="fill: none; stroke-dasharray: 2.22,0.96; stroke-dashoffset: 0; stroke: #b0b0b0; stroke-opacity: 0.25; stroke-width: 0.6"/>
     </g>
     <g id="line2d_18">
      <g>
       <use xlink:href="#ma57e546e2c" x="655.366977" y="349.8636" style="stroke: #000000; stroke-width: 0.8"/>
      </g>
     </g>
     <g id="text_9">
      <!-- 400 -->
      <g transform="translate(646.366977 365.1136) scale(0.12 -0.12)">
       <defs>
        <path id="SimHei-34" d="M 2000 1100 
L 75 1100 
L 75 1525 
L 2100 4450 
L 2475 4450 
L 2475 1525 
L 3075 1525 
L 3075 1100 
L 2475 1100 
L 2475 150 
L 2000 150 
L 2000 1100 
z
M 2000 1525 
L 2000 3500 
L 600 1525 
L 2000 1525 
z
" transform="scale(0.015625)"/>
       </defs>
       <use xlink:href="#SimHei-34"/>
       <use xlink:href="#SimHei-30" transform="translate(50 0)"/>
       <use xlink:href="#SimHei-30" transform="translate(100 0)"/>
      </g>
     </g>
    </g>
    <g id="text_10">
     <!-- Episode -->
     <g transform="translate(339.4625 382.3011) scale(0.17 -0.17)">
      <defs>
       <path id="SimHei-45" d="M 2900 125 
L 350 125 
L 350 4400 
L 2775 4400 
L 2775 3925 
L 925 3925 
L 925 2600 
L 2625 2600 
L 2625 2125 
L 925 2125 
L 925 600 
L 2900 600 
L 2900 125 
z
" transform="scale(0.015625)"/>
       <path id="SimHei-70" d="M 2825 1525 
Q 2825 800 2475 425 
Q 2125 50 1625 50 
Q 1350 50 1150 162 
Q 950 275 800 500 
L 800 -800 
L 300 -800 
L 300 2925 
L 800 2925 
L 800 2550 
Q 950 2775 1150 2875 
Q 1350 2975 1625 2975 
Q 2125 2975 2475 2612 
Q 2825 2250 2825 1525 
z
M 2275 1525 
Q 2275 2000 2087 2262 
Q 1900 2525 1525 2525 
Q 1225 2525 1012 2262 
Q 800 2000 800 1525 
Q 800 1050 1012 775 
Q 1225 500 1525 500 
Q 1900 500 2087 775 
Q 2275 1050 2275 1525 
z
" transform="scale(0.015625)"/>
       <path id="SimHei-69" d="M 1800 3725 
L 1300 3725 
L 1300 4375 
L 1800 4375 
L 1800 3725 
z
M 1800 125 
L 1300 125 
L 1300 2925 
L 1800 2925 
L 1800 125 
z
" transform="scale(0.015625)"/>
       <path id="SimHei-73" d="M 2750 900 
Q 2750 500 2437 287 
Q 2125 75 1650 75 
Q 1050 75 725 312 
Q 400 550 400 1000 
L 900 1000 
Q 900 700 1112 600 
Q 1325 500 1625 500 
Q 1925 500 2075 612 
Q 2225 725 2225 900 
Q 2225 1025 2100 1150 
Q 1975 1275 1475 1350 
Q 900 1425 687 1637 
Q 475 1850 475 2200 
Q 475 2500 762 2737 
Q 1050 2975 1600 2975 
Q 2100 2975 2387 2750 
Q 2675 2525 2675 2150 
L 2175 2150 
Q 2175 2375 2012 2462 
Q 1850 2550 1600 2550 
Q 1275 2550 1137 2437 
Q 1000 2325 1000 2175 
Q 1000 2000 1125 1900 
Q 1250 1800 1650 1750 
Q 2300 1650 2525 1437 
Q 2750 1225 2750 900 
z
" transform="scale(0.015625)"/>
       <path id="SimHei-6f" d="M 2925 1525 
Q 2925 875 2525 475 
Q 2125 75 1575 75 
Q 1025 75 625 475 
Q 225 875 225 1525 
Q 225 2175 625 2575 
Q 1025 2975 1575 2975 
Q 2125 2975 2525 2575 
Q 2925 2175 2925 1525 
z
M 2375 1525 
Q 2375 2025 2125 2275 
Q 1875 2525 1575 2525 
Q 1275 2525 1025 2275 
Q 775 2025 775 1525 
Q 775 1025 1025 775 
Q 1275 525 1575 525 
Q 1875 525 2125 775 
Q 2375 1025 2375 1525 
z
" transform="scale(0.015625)"/>
       <path id="SimHei-64" d="M 2750 125 
L 2250 125 
L 2250 500 
Q 2100 275 1900 175 
Q 1700 75 1425 75 
Q 925 75 575 437 
Q 225 800 225 1525 
Q 225 2250 575 2625 
Q 925 3000 1425 3000 
Q 1700 3000 1900 2887 
Q 2100 2775 2250 2550 
L 2250 4400 
L 2750 4400 
L 2750 125 
z
M 2250 1525 
Q 2250 2000 2037 2275 
Q 1825 2550 1525 2550 
Q 1150 2550 962 2275 
Q 775 2000 775 1525 
Q 775 1050 962 787 
Q 1150 525 1525 525 
Q 1825 525 2037 787 
Q 2250 1050 2250 1525 
z
" transform="scale(0.015625)"/>
       <path id="SimHei-65" d="M 2850 1075 
Q 2800 625 2450 350 
Q 2100 75 1625 75 
Q 1025 75 637 462 
Q 250 850 250 1525 
Q 250 2200 637 2587 
Q 1025 2975 1625 2975 
Q 2150 2975 2487 2637 
Q 2825 2300 2825 1525 
L 800 1525 
Q 800 975 1037 750 
Q 1275 525 1625 525 
Q 1900 525 2075 662 
Q 2250 800 2300 1075 
L 2850 1075 
z
M 2250 1925 
Q 2200 2275 2025 2412 
Q 1850 2550 1575 2550 
Q 1325 2550 1125 2412 
Q 925 2275 825 1925 
L 2250 1925 
z
" transform="scale(0.015625)"/>
      </defs>
      <use xlink:href="#SimHei-45"/>
      <use xlink:href="#SimHei-70" transform="translate(50 0)"/>
      <use xlink:href="#SimHei-69" transform="translate(100 0)"/>
      <use xlink:href="#SimHei-73" transform="translate(150 0)"/>
      <use xlink:href="#SimHei-6f" transform="translate(200 0)"/>
      <use xlink:href="#SimHei-64" transform="translate(250 0)"/>
      <use xlink:href="#SimHei-65" transform="translate(300 0)"/>
     </g>
    </g>
   </g>
   <g id="matplotlib.axis_2">
    <g id="ytick_1">
     <g id="line2d_19">
      <path d="M 56.0125 332.374272 
L 682.4125 332.374272 
" clip-path="url(#p3a907d0f7c)" style="fill: none; stroke-dasharray: 2.22,0.96; stroke-dashoffset: 0; stroke: #b0b0b0; stroke-opacity: 0.25; stroke-width: 0.6"/>
     </g>
     <g id="line2d_20">
      <defs>
       <path id="m6e97358a15" d="M 0 0 
L -3.5 0 
" style="stroke: #000000; stroke-width: 0.8"/>
      </defs>
      <g>
       <use xlink:href="#m6e97358a15" x="56.0125" y="332.374272" style="stroke: #000000; stroke-width: 0.8"/>
      </g>
     </g>
     <g id="text_11">
      <!-- 0.05 -->
      <g transform="translate(25.0125 336.499272) scale(0.12 -0.12)">
       <defs>
        <path id="SimHei-2e" d="M 1075 125 
L 500 125 
L 500 675 
L 1075 675 
L 1075 125 
z
" transform="scale(0.015625)"/>
       </defs>
       <use xlink:href="#SimHei-30"/>
       <use xlink:href="#SimHei-2e" transform="translate(50 0)"/>
       <use xlink:href="#SimHei-30" transform="translate(100 0)"/>
       <use xlink:href="#SimHei-35" transform="translate(150 0)"/>
      </g>
     </g>
    </g>
    <g id="ytick_2">
     <g id="line2d_21">
      <path d="M 56.0125 286.402946 
L 682.4125 286.402946 
" clip-path="url(#p3a907d0f7c)" style="fill: none; stroke-dasharray: 2.22,0.96; stroke-dashoffset: 0; stroke: #b0b0b0; stroke-opacity: 0.25; stroke-width: 0.6"/>
     </g>
     <g id="line2d_22">
      <g>
       <use xlink:href="#m6e97358a15" x="56.0125" y="286.402946" style="stroke: #000000; stroke-width: 0.8"/>
      </g>
     </g>
     <g id="text_12">
      <!-- 0.10 -->
      <g transform="translate(25.0125 290.527946) scale(0.12 -0.12)">
       <use xlink:href="#SimHei-30"/>
       <use xlink:href="#SimHei-2e" transform="translate(50 0)"/>
       <use xlink:href="#SimHei-31" transform="translate(100 0)"/>
       <use xlink:href="#SimHei-30" transform="translate(150 0)"/>
      </g>
     </g>
    </g>
    <g id="ytick_3">
     <g id="line2d_23">
      <path d="M 56.0125 240.43162 
L 682.4125 240.43162 
" clip-path="url(#p3a907d0f7c)" style="fill: none; stroke-dasharray: 2.22,0.96; stroke-dashoffset: 0; stroke: #b0b0b0; stroke-opacity: 0.25; stroke-width: 0.6"/>
     </g>
     <g id="line2d_24">
      <g>
       <use xlink:href="#m6e97358a15" x="56.0125" y="240.43162" style="stroke: #000000; stroke-width: 0.8"/>
      </g>
     </g>
     <g id="text_13">
      <!-- 0.15 -->
      <g transform="translate(25.0125 244.55662) scale(0.12 -0.12)">
       <use xlink:href="#SimHei-30"/>
       <use xlink:href="#SimHei-2e" transform="translate(50 0)"/>
       <use xlink:href="#SimHei-31" transform="translate(100 0)"/>
       <use xlink:href="#SimHei-35" transform="translate(150 0)"/>
      </g>
     </g>
    </g>
    <g id="ytick_4">
     <g id="line2d_25">
      <path d="M 56.0125 194.460295 
L 682.4125 194.460295 
" clip-path="url(#p3a907d0f7c)" style="fill: none; stroke-dasharray: 2.22,0.96; stroke-dashoffset: 0; stroke: #b0b0b0; stroke-opacity: 0.25; stroke-width: 0.6"/>
     </g>
     <g id="line2d_26">
      <g>
       <use xlink:href="#m6e97358a15" x="56.0125" y="194.460295" style="stroke: #000000; stroke-width: 0.8"/>
      </g>
     </g>
     <g id="text_14">
      <!-- 0.20 -->
      <g transform="translate(25.0125 198.585295) scale(0.12 -0.12)">
       <use xlink:href="#SimHei-30"/>
       <use xlink:href="#SimHei-2e" transform="translate(50 0)"/>
       <use xlink:href="#SimHei-32" transform="translate(100 0)"/>
       <use xlink:href="#SimHei-30" transform="translate(150 0)"/>
      </g>
     </g>
    </g>
    <g id="ytick_5">
     <g id="line2d_27">
      <path d="M 56.0125 148.488969 
L 682.4125 148.488969 
" clip-path="url(#p3a907d0f7c)" style="fill: none; stroke-dasharray: 2.22,0.96; stroke-dashoffset: 0; stroke: #b0b0b0; stroke-opacity: 0.25; stroke-width: 0.6"/>
     </g>
     <g id="line2d_28">
      <g>
       <use xlink:href="#m6e97358a15" x="56.0125" y="148.488969" style="stroke: #000000; stroke-width: 0.8"/>
      </g>
     </g>
     <g id="text_15">
      <!-- 0.25 -->
      <g transform="translate(25.0125 152.613969) scale(0.12 -0.12)">
       <use xlink:href="#SimHei-30"/>
       <use xlink:href="#SimHei-2e" transform="translate(50 0)"/>
       <use xlink:href="#SimHei-32" transform="translate(100 0)"/>
       <use xlink:href="#SimHei-35" transform="translate(150 0)"/>
      </g>
     </g>
    </g>
    <g id="ytick_6">
     <g id="line2d_29">
      <path d="M 56.0125 102.517643 
L 682.4125 102.517643 
" clip-path="url(#p3a907d0f7c)" style="fill: none; stroke-dasharray: 2.22,0.96; stroke-dashoffset: 0; stroke: #b0b0b0; stroke-opacity: 0.25; stroke-width: 0.6"/>
     </g>
     <g id="line2d_30">
      <g>
       <use xlink:href="#m6e97358a15" x="56.0125" y="102.517643" style="stroke: #000000; stroke-width: 0.8"/>
      </g>
     </g>
     <g id="text_16">
      <!-- 0.30 -->
      <g transform="translate(25.0125 106.642643) scale(0.12 -0.12)">
       <use xlink:href="#SimHei-30"/>
       <use xlink:href="#SimHei-2e" transform="translate(50 0)"/>
       <use xlink:href="#SimHei-33" transform="translate(100 0)"/>
       <use xlink:href="#SimHei-30" transform="translate(150 0)"/>
      </g>
     </g>
    </g>
    <g id="ytick_7">
     <g id="line2d_31">
      <path d="M 56.0125 56.546317 
L 682.4125 56.546317 
" clip-path="url(#p3a907d0f7c)" style="fill: none; stroke-dasharray: 2.22,0.96; stroke-dashoffset: 0; stroke: #b0b0b0; stroke-opacity: 0.25; stroke-width: 0.6"/>
     </g>
     <g id="line2d_32">
      <g>
       <use xlink:href="#m6e97358a15" x="56.0125" y="56.546317" style="stroke: #000000; stroke-width: 0.8"/>
      </g>
     </g>
     <g id="text_17">
      <!-- 0.35 -->
      <g transform="translate(25.0125 60.671317) scale(0.12 -0.12)">
       <use xlink:href="#SimHei-30"/>
       <use xlink:href="#SimHei-2e" transform="translate(50 0)"/>
       <use xlink:href="#SimHei-33" transform="translate(100 0)"/>
       <use xlink:href="#SimHei-35" transform="translate(150 0)"/>
      </g>
     </g>
    </g>
    <g id="text_18">
     <!-- Total Task Latency -->
     <g transform="translate(18.8875 268.6836) rotate(-90) scale(0.17 -0.17)">
      <defs>
       <path id="SimHei-54" d="M 2850 3925 
L 1850 3925 
L 1850 125 
L 1275 125 
L 1275 3925 
L 275 3925 
L 275 4400 
L 2850 4400 
L 2850 3925 
z
" transform="scale(0.015625)"/>
       <path id="SimHei-74" d="M 2750 200 
Q 2625 150 2462 112 
Q 2300 75 2025 75 
Q 1575 75 1300 325 
Q 1025 575 1025 1025 
L 1025 2525 
L 175 2525 
L 175 2925 
L 1025 2925 
L 1025 3900 
L 1525 3900 
L 1525 2925 
L 2550 2925 
L 2550 2525 
L 1525 2525 
L 1525 1000 
Q 1525 800 1625 662 
Q 1725 525 2000 525 
Q 2275 525 2450 575 
Q 2625 625 2750 700 
L 2750 200 
z
" transform="scale(0.015625)"/>
       <path id="SimHei-61" d="M 2875 125 
L 2275 125 
Q 2225 175 2200 262 
Q 2175 350 2175 475 
Q 2000 275 1750 175 
Q 1500 75 1225 75 
Q 825 75 550 275 
Q 275 475 275 850 
Q 275 1225 525 1450 
Q 775 1675 1300 1750 
Q 1650 1800 1912 1875 
Q 2175 1950 2175 2075 
Q 2175 2225 2062 2375 
Q 1950 2525 1575 2525 
Q 1275 2525 1137 2412 
Q 1000 2300 950 2100 
L 400 2100 
Q 450 2500 762 2737 
Q 1075 2975 1575 2975 
Q 2125 2975 2400 2725 
Q 2675 2475 2675 2025 
L 2675 650 
Q 2675 500 2725 375 
Q 2775 250 2875 125 
z
M 2175 1050 
L 2175 1550 
Q 2025 1500 1887 1462 
Q 1750 1425 1425 1375 
Q 1050 1325 937 1200 
Q 825 1075 825 900 
Q 825 750 937 637 
Q 1050 525 1275 525 
Q 1500 525 1762 650 
Q 2025 775 2175 1050 
z
" transform="scale(0.015625)"/>
       <path id="SimHei-6c" d="M 1825 125 
L 1325 125 
L 1325 4400 
L 1825 4400 
L 1825 125 
z
" transform="scale(0.015625)"/>
       <path id="SimHei-20" transform="scale(0.015625)"/>
       <path id="SimHei-6b" d="M 2925 125 
L 2350 125 
L 1450 1650 
L 875 1100 
L 875 125 
L 375 125 
L 375 4400 
L 875 4400 
L 875 1675 
L 2125 2925 
L 2750 2925 
L 1775 1975 
L 2925 125 
z
" transform="scale(0.015625)"/>
       <path id="SimHei-4c" d="M 2900 125 
L 300 125 
L 300 4400 
L 875 4400 
L 875 600 
L 2900 600 
L 2900 125 
z
" transform="scale(0.015625)"/>
       <path id="SimHei-6e" d="M 2800 125 
L 2300 125 
L 2300 1925 
Q 2300 2225 2150 2400 
Q 2000 2575 1750 2575 
Q 1425 2575 1137 2237 
Q 850 1900 850 1400 
L 850 125 
L 350 125 
L 350 2925 
L 850 2925 
L 850 2400 
Q 1050 2675 1287 2825 
Q 1525 2975 1900 2975 
Q 2350 2975 2575 2725 
Q 2800 2475 2800 2100 
L 2800 125 
z
" transform="scale(0.015625)"/>
       <path id="SimHei-63" d="M 2850 1250 
Q 2850 725 2487 400 
Q 2125 75 1575 75 
Q 1025 75 625 462 
Q 225 850 225 1525 
Q 225 2200 625 2587 
Q 1025 2975 1575 2975 
Q 2125 2975 2450 2687 
Q 2775 2400 2775 2000 
L 2225 2000 
Q 2200 2300 2012 2412 
Q 1825 2525 1575 2525 
Q 1275 2525 1025 2287 
Q 775 2050 775 1525 
Q 775 1000 1025 762 
Q 1275 525 1575 525 
Q 1900 525 2100 700 
Q 2300 875 2300 1250 
L 2850 1250 
z
" transform="scale(0.015625)"/>
       <path id="SimHei-79" d="M 2900 2925 
L 1750 -100 
Q 1650 -450 1450 -625 
Q 1250 -800 950 -800 
Q 825 -800 712 -787 
Q 600 -775 500 -725 
L 500 -225 
Q 600 -275 700 -300 
Q 800 -325 875 -325 
Q 1075 -325 1150 -262 
Q 1225 -200 1300 25 
L 200 2925 
L 750 2925 
L 1550 725 
L 1575 725 
L 2350 2925 
L 2900 2925 
z
" transform="scale(0.015625)"/>
      </defs>
      <use xlink:href="#SimHei-54"/>
      <use xlink:href="#SimHei-6f" transform="translate(50 0)"/>
      <use xlink:href="#SimHei-74" transform="translate(100 0)"/>
      <use xlink:href="#SimHei-61" transform="translate(150 0)"/>
      <use xlink:href="#SimHei-6c" transform="translate(200 0)"/>
      <use xlink:href="#SimHei-20" transform="translate(250 0)"/>
      <use xlink:href="#SimHei-54" transform="translate(300 0)"/>
      <use xlink:href="#SimHei-61" transform="translate(350 0)"/>
      <use xlink:href="#SimHei-73" transform="translate(400 0)"/>
      <use xlink:href="#SimHei-6b" transform="translate(450 0)"/>
      <use xlink:href="#SimHei-20" transform="translate(500 0)"/>
      <use xlink:href="#SimHei-4c" transform="translate(550 0)"/>
      <use xlink:href="#SimHei-61" transform="translate(600 0)"/>
      <use xlink:href="#SimHei-74" transform="translate(650 0)"/>
      <use xlink:href="#SimHei-65" transform="translate(700 0)"/>
      <use xlink:href="#SimHei-6e" transform="translate(750 0)"/>
      <use xlink:href="#SimHei-63" transform="translate(800 0)"/>
      <use xlink:href="#SimHei-79" transform="translate(850 0)"/>
     </g>
    </g>
   </g>
   <g id="line2d_33">
    <path d="M 84.485227 68.460694 
L 85.912432 67.378207 
L 87.339636 69.452968 
L 88.76684 71.753488 
L 90.194045 73.633118 
L 91.621249 69.59617 
L 93.048454 68.266117 
L 95.902862 70.811966 
L 97.330067 77.7229 
L 98.757271 72.132231 
L 100.184475 67.022179 
L 101.61168 69.317207 
L 103.038884 70.228871 
L 104.466089 70.72518 
L 105.893293 71.589337 
L 107.320497 73.301274 
L 108.747702 77.570261 
L 110.174906 80.399776 
L 113.029315 79.416933 
L 114.456519 77.528203 
L 115.883724 79.63439 
L 117.310928 91.071261 
L 118.738132 94.269811 
L 120.165337 92.66608 
L 121.592541 92.455668 
L 123.019745 90.79188 
L 124.44695 81.952773 
L 125.874154 81.297649 
L 127.301359 74.223235 
L 128.728563 69.626339 
L 130.155767 69.526198 
L 131.582972 69.574732 
L 133.010176 70.677667 
L 134.43738 67.29125 
L 135.864585 63.202656 
L 137.291789 64.116295 
L 138.718994 60.566968 
L 140.146198 57.332026 
L 141.573402 58.567402 
L 143.000607 56.559863 
L 144.427811 53.139908 
L 145.855015 51.28437 
L 147.28222 52.049171 
L 148.709424 53.158668 
L 150.136629 51.692235 
L 151.563833 51.569924 
L 152.991037 55.906181 
L 154.418242 54.937963 
L 155.845446 52.218052 
L 157.27265 50.72892 
L 158.699855 50.031823 
L 160.127059 52.37925 
L 161.554263 50.356486 
L 162.981468 48.838145 
L 164.408672 54.285731 
L 165.835877 52.840501 
L 167.263081 54.350021 
L 168.690285 56.812806 
L 170.11749 54.161914 
L 171.544694 55.79355 
L 172.971898 58.497993 
L 174.399103 57.877039 
L 175.826307 57.096418 
L 177.253512 60.641933 
L 178.680716 58.062076 
L 180.10792 59.791129 
L 181.535125 59.756788 
L 182.962329 59.035096 
L 184.389533 54.940774 
L 185.816738 54.24975 
L 187.243942 51.103864 
L 188.671147 51.306884 
L 190.098351 50.002552 
L 191.525555 54.81987 
L 192.95276 54.344328 
L 194.379964 50.908671 
L 195.807168 52.355622 
L 197.234373 54.701462 
L 198.661577 54.221629 
L 200.088782 53.490301 
L 202.94319 54.962992 
L 205.797599 51.011816 
L 207.224803 49.926475 
L 208.652008 52.120004 
L 210.079212 53.418852 
L 211.506417 52.339696 
L 214.360825 55.869231 
L 215.78803 53.393462 
L 217.215234 56.146038 
L 218.642438 55.344511 
L 220.069643 53.19646 
L 221.496847 54.935628 
L 222.924052 53.803863 
L 225.77846 52.781225 
L 227.205665 54.619491 
L 228.632869 52.630005 
L 230.060073 51.727751 
L 231.487278 52.345109 
L 232.914482 50.93199 
L 234.341687 51.379766 
L 235.768891 55.815566 
L 237.196095 53.032703 
L 238.6233 52.24761 
L 240.050504 56.439841 
L 241.477708 56.533714 
L 242.904913 56.07561 
L 244.332117 58.953191 
L 245.759322 58.61008 
L 248.61373 54.454805 
L 250.040935 55.13637 
L 251.468139 57.689572 
L 252.895343 55.67028 
L 254.322548 59.887101 
L 255.749752 61.896425 
L 257.176957 88.549406 
L 258.604161 83.523851 
L 260.031365 84.726629 
L 262.885774 83.150907 
L 264.312978 79.81916 
L 265.740183 78.937159 
L 267.167387 75.773402 
L 268.594592 75.853086 
L 270.021796 72.701729 
L 271.449 84.594035 
L 272.876205 83.005831 
L 274.303409 77.918586 
L 275.730613 78.236493 
L 277.157818 77.338372 
L 278.585022 98.647631 
L 280.012227 92.116034 
L 281.439431 91.029865 
L 282.866635 89.68605 
L 284.29384 83.82265 
L 285.721044 88.149273 
L 287.148248 105.289451 
L 288.575453 117.092822 
L 290.002657 119.394245 
L 291.429862 110.214345 
L 292.857066 118.424547 
L 294.28427 111.76288 
L 295.711475 109.249821 
L 297.138679 107.809744 
L 298.565883 112.057021 
L 299.993088 114.870947 
L 301.420292 127.801243 
L 302.847497 127.177052 
L 304.274701 123.621874 
L 305.701905 118.356248 
L 307.12911 126.829157 
L 308.556314 127.363309 
L 309.983518 121.631544 
L 311.410723 126.065453 
L 312.837927 127.303634 
L 314.265132 121.193902 
L 315.692336 127.095509 
L 317.11954 131.930117 
L 318.546745 145.569293 
L 319.973949 150.83199 
L 321.401153 162.465661 
L 322.828358 167.923221 
L 324.255562 176.09064 
L 325.682767 186.872012 
L 327.109971 177.471785 
L 328.537175 180.993099 
L 329.96438 175.546882 
L 331.391584 173.708278 
L 332.818788 170.253976 
L 334.245993 164.910444 
L 335.673197 178.278424 
L 337.100402 179.059486 
L 338.527606 188.78163 
L 339.95481 185.218718 
L 341.382015 183.653353 
L 342.809219 183.983358 
L 344.236423 176.036705 
L 345.663628 178.925905 
L 347.090832 184.916195 
L 348.518037 191.717329 
L 349.945241 187.468918 
L 351.372445 192.078375 
L 352.79965 184.892631 
L 354.226854 178.98142 
L 355.654058 179.630745 
L 357.081263 182.023449 
L 358.508467 189.155966 
L 359.935672 191.926089 
L 361.362876 186.875255 
L 362.79008 188.402805 
L 364.217285 193.508519 
L 365.644489 201.703016 
L 368.498898 207.092184 
L 369.926102 212.727622 
L 371.353307 210.071392 
L 372.780511 213.310951 
L 374.207715 201.791064 
L 375.63492 203.398469 
L 377.062124 203.880771 
L 378.489328 204.021036 
L 379.916533 203.032111 
L 381.343737 204.196868 
L 382.770942 204.994975 
L 384.198146 202.688755 
L 385.62535 212.031223 
L 387.052555 219.841861 
L 388.479759 214.670859 
L 389.906963 212.892661 
L 391.334168 210.382696 
L 392.761372 212.870122 
L 394.188577 214.235556 
L 395.615781 208.650492 
L 397.042985 212.024261 
L 398.47019 211.717133 
L 399.897394 209.345635 
L 402.751803 213.990417 
L 404.179007 212.37271 
L 405.606212 206.883554 
L 407.033416 216.54757 
L 408.46062 207.636692 
L 409.887825 209.617796 
L 411.315029 214.811777 
L 412.742233 217.353045 
L 414.169438 216.014209 
L 415.596642 213.197883 
L 417.023847 212.058113 
L 418.451051 206.0279 
L 419.878255 212.406136 
L 421.30546 217.163617 
L 422.732664 223.069211 
L 424.159868 223.117524 
L 425.587073 218.676244 
L 427.014277 223.564722 
L 428.441482 223.718713 
L 429.868686 231.703905 
L 431.29589 235.996669 
L 432.723095 228.669287 
L 434.150299 229.632896 
L 435.577503 237.18163 
L 437.004708 238.033365 
L 438.431912 236.766837 
L 439.859117 237.55627 
L 442.713525 233.60637 
L 444.14073 233.643814 
L 445.567934 222.371946 
L 448.422343 226.021612 
L 449.849547 216.956454 
L 451.276752 218.461241 
L 452.703956 216.630862 
L 454.13116 224.760664 
L 455.558365 223.787282 
L 456.985569 221.773408 
L 458.412773 223.522591 
L 459.839978 227.852392 
L 461.267182 224.008663 
L 462.694387 222.875364 
L 464.121591 216.750346 
L 465.548795 211.627225 
L 466.976 213.093348 
L 468.403204 213.820638 
L 469.830408 215.080153 
L 471.257613 215.729974 
L 472.684817 220.740958 
L 474.112022 216.316877 
L 475.539226 218.989864 
L 476.96643 222.64801 
L 478.393635 223.343027 
L 479.820839 224.175079 
L 481.248043 234.4739 
L 482.675248 230.530526 
L 484.102452 229.960416 
L 485.529657 232.389705 
L 486.956861 237.888986 
L 488.384065 228.828738 
L 489.81127 227.540566 
L 491.238474 222.547868 
L 492.665678 219.640944 
L 494.092883 213.974078 
L 495.520087 215.413896 
L 496.947292 221.19723 
L 498.374496 214.083311 
L 499.8017 214.849503 
L 501.228905 219.587026 
L 502.656109 212.409923 
L 504.083313 218.787552 
L 505.510518 205.985798 
L 506.937722 215.991696 
L 508.364927 220.077955 
L 509.792131 224.761316 
L 511.219335 230.807074 
L 512.64654 222.563569 
L 514.073744 229.387535 
L 515.500948 233.729161 
L 516.928153 234.940496 
L 518.355357 233.676647 
L 519.782562 235.11407 
L 521.209766 229.029439 
L 522.63697 226.924033 
L 524.064175 225.35552 
L 525.491379 218.141047 
L 526.918583 224.884912 
L 528.345788 217.09799 
L 529.772992 225.202997 
L 531.200197 224.333196 
L 534.054605 227.532338 
L 535.48181 224.385197 
L 536.909014 224.316572 
L 538.336218 231.682891 
L 539.763423 234.160913 
L 541.190627 230.703039 
L 542.617832 238.193883 
L 544.045036 231.03952 
L 545.47224 227.496173 
L 546.899445 227.904125 
L 548.326649 230.357699 
L 549.753853 233.626064 
L 551.181058 236.35896 
L 552.608262 238.162856 
L 554.035467 238.665863 
L 555.462671 239.530202 
L 556.889875 235.213162 
L 558.31708 233.740796 
L 559.744284 227.641714 
L 561.171488 218.496693 
L 562.598693 214.828197 
L 564.025897 221.304595 
L 565.453102 219.268424 
L 566.880306 223.934928 
L 568.30751 226.156235 
L 569.734715 229.722311 
L 571.161919 236.470808 
L 572.589123 227.597502 
L 574.016328 221.768461 
L 575.443532 222.483821 
L 576.870737 226.536605 
L 578.297941 228.318694 
L 579.725145 228.783382 
L 581.15235 224.501082 
L 582.579554 231.433577 
L 584.006758 224.303428 
L 585.433963 226.658366 
L 586.861167 224.610691 
L 588.288371 227.271892 
L 589.715576 229.076633 
L 591.14278 227.976348 
L 592.569985 232.207405 
L 593.997189 227.790026 
L 595.424393 228.636262 
L 598.278802 234.409904 
L 599.706006 238.954096 
L 601.133211 241.09649 
L 602.560415 232.344771 
L 603.98762 228.380383 
L 605.414824 232.434055 
L 606.842028 235.94831 
L 609.696437 244.509923 
L 611.123641 244.28622 
L 612.550846 241.21727 
L 613.97805 241.987977 
L 615.405255 243.667962 
L 616.832459 243.131045 
L 618.259663 238.005518 
L 619.686868 235.339522 
L 621.114072 237.832376 
L 622.541276 241.976201 
L 623.968481 235.813282 
L 625.395685 227.864003 
L 626.82289 227.546926 
L 628.250094 223.022415 
L 629.677298 213.234429 
L 631.104503 223.794253 
L 632.531707 223.229326 
L 633.958911 221.145042 
L 635.386116 216.311192 
L 636.81332 220.217033 
L 638.240525 214.459254 
L 639.667729 220.254315 
L 641.094933 219.345253 
L 642.522138 223.464932 
L 643.949342 227.169582 
L 645.376546 235.380792 
L 646.803751 239.941716 
L 648.230955 238.553058 
L 649.65816 233.845032 
L 651.085364 235.94625 
L 652.512568 239.689978 
L 652.512568 239.689978 
" clip-path="url(#p3a907d0f7c)" style="fill: none; stroke: #1f77b4; stroke-width: 1.2; stroke-linecap: square"/>
   </g>
   <g id="line2d_34">
    <path d="M 84.485227 209.858256 
L 85.912432 204.038738 
L 87.339636 200.422186 
L 90.194045 194.438023 
L 91.621249 195.079978 
L 93.048454 192.629436 
L 94.475658 192.721454 
L 95.902862 188.965239 
L 97.330067 189.921549 
L 98.757271 184.235894 
L 100.184475 181.488618 
L 101.61168 181.244736 
L 103.038884 182.852694 
L 104.466089 182.630807 
L 105.893293 183.230517 
L 107.320497 186.313365 
L 108.747702 183.926461 
L 110.174906 184.778609 
L 111.60211 180.570642 
L 113.029315 181.460121 
L 114.456519 184.285616 
L 115.883724 183.022009 
L 117.310928 184.872229 
L 118.738132 183.840225 
L 120.165337 186.627019 
L 121.592541 185.460261 
L 123.019745 184.877472 
L 124.44695 186.654042 
L 125.874154 190.144548 
L 127.301359 191.410435 
L 128.728563 191.973795 
L 130.155767 198.676111 
L 131.582972 203.088593 
L 133.010176 203.654242 
L 134.43738 198.104336 
L 135.864585 194.226114 
L 137.291789 193.289404 
L 138.718994 195.85492 
L 140.146198 196.255186 
L 141.573402 201.179116 
L 143.000607 199.830205 
L 144.427811 198.276491 
L 148.709424 197.698738 
L 151.563833 200.199486 
L 152.991037 201.081381 
L 154.418242 201.592721 
L 155.845446 202.728424 
L 157.27265 206.63838 
L 158.699855 205.56345 
L 160.127059 206.16682 
L 161.554263 209.377562 
L 162.981468 210.308173 
L 164.408672 212.71599 
L 165.835877 212.385517 
L 167.263081 212.350566 
L 170.11749 219.357699 
L 171.544694 223.431401 
L 172.971898 220.60579 
L 174.399103 219.049433 
L 175.826307 218.573912 
L 177.253512 219.043429 
L 178.680716 220.450495 
L 180.10792 221.101406 
L 181.535125 223.208687 
L 182.962329 222.650478 
L 184.389533 226.130507 
L 185.816738 227.637902 
L 187.243942 229.745475 
L 188.671147 237.474832 
L 190.098351 240.02747 
L 191.525555 243.02191 
L 192.95276 243.372878 
L 194.379964 246.933153 
L 195.807168 247.115317 
L 197.234373 248.913655 
L 198.661577 248.789111 
L 200.088782 249.429217 
L 201.515986 251.243851 
L 202.94319 251.510453 
L 204.370395 255.948888 
L 205.797599 253.793013 
L 207.224803 253.344635 
L 208.652008 249.139983 
L 210.079212 249.27806 
L 211.506417 250.118525 
L 212.933621 251.307433 
L 214.360825 253.401408 
L 215.78803 254.849691 
L 217.215234 254.689036 
L 218.642438 254.875841 
L 220.069643 256.625355 
L 221.496847 257.926487 
L 222.924052 256.835535 
L 224.351256 257.539543 
L 225.77846 256.95169 
L 227.205665 258.423964 
L 228.632869 262.939586 
L 230.060073 264.703535 
L 231.487278 263.916261 
L 232.914482 264.523706 
L 234.341687 266.114977 
L 235.768891 264.360664 
L 237.196095 267.356143 
L 238.6233 266.888546 
L 240.050504 270.055432 
L 241.477708 270.843826 
L 242.904913 272.392781 
L 244.332117 273.56205 
L 245.759322 275.117368 
L 247.186526 274.728435 
L 248.61373 275.885788 
L 250.040935 276.293032 
L 251.468139 275.028896 
L 252.895343 274.455607 
L 254.322548 279.082321 
L 255.749752 281.966945 
L 257.176957 282.332902 
L 260.031365 283.628739 
L 261.45857 282.030323 
L 262.885774 283.174928 
L 264.312978 283.807082 
L 265.740183 285.226855 
L 267.167387 286.470406 
L 268.594592 287.191077 
L 270.021796 288.669644 
L 271.449 288.962596 
L 272.876205 290.443367 
L 274.303409 288.542949 
L 275.730613 288.640079 
L 277.157818 290.30887 
L 278.585022 288.925811 
L 280.012227 289.760436 
L 281.439431 289.884801 
L 282.866635 291.658024 
L 284.29384 293.6693 
L 285.721044 294.149195 
L 287.148248 294.954273 
L 288.575453 297.893075 
L 290.002657 298.314044 
L 291.429862 300.374092 
L 292.857066 300.217602 
L 294.28427 300.412053 
L 295.711475 301.894811 
L 297.138679 303.11124 
L 298.565883 301.911091 
L 299.993088 303.344233 
L 301.420292 303.005644 
L 302.847497 304.683699 
L 304.274701 303.256319 
L 305.701905 302.561136 
L 307.12911 303.663959 
L 308.556314 306.056806 
L 309.983518 302.697964 
L 311.410723 302.140631 
L 312.837927 302.56804 
L 314.265132 305.526664 
L 317.11954 307.332887 
L 318.546745 306.369069 
L 319.973949 308.702111 
L 321.401153 308.531187 
L 322.828358 309.461053 
L 324.255562 309.047435 
L 325.682767 308.807449 
L 327.109971 310.668238 
L 328.537175 309.471046 
L 329.96438 307.65079 
L 331.391584 307.747498 
L 332.818788 307.449859 
L 334.245993 308.946372 
L 335.673197 307.570227 
L 338.527606 308.316247 
L 339.95481 309.312704 
L 342.809219 309.87011 
L 344.236423 306.910762 
L 345.663628 306.089219 
L 347.090832 305.934833 
L 348.518037 304.947596 
L 349.945241 305.559522 
L 351.372445 307.731082 
L 352.79965 310.15919 
L 354.226854 311.362408 
L 355.654058 309.47865 
L 357.081263 308.70747 
L 358.508467 309.704682 
L 359.935672 308.505603 
L 361.362876 308.173883 
L 362.79008 309.204399 
L 364.217285 310.811634 
L 365.644489 312.163719 
L 367.071693 313.135985 
L 368.498898 311.978977 
L 369.926102 313.955286 
L 371.353307 313.268412 
L 372.780511 313.16122 
L 374.207715 314.208809 
L 375.63492 313.991448 
L 377.062124 315.790545 
L 378.489328 316.950139 
L 379.916533 316.858196 
L 381.343737 317.149766 
L 382.770942 316.517264 
L 384.198146 317.242416 
L 385.62535 318.294564 
L 388.479759 320.017091 
L 389.906963 321.175428 
L 391.334168 321.196543 
L 392.761372 321.40133 
L 394.188577 318.253785 
L 395.615781 316.735166 
L 397.042985 317.622738 
L 398.47019 316.511265 
L 399.897394 318.631998 
L 401.324598 319.262389 
L 402.751803 318.704267 
L 404.179007 318.694381 
L 405.606212 319.109759 
L 407.033416 319.666341 
L 408.46062 321.320672 
L 409.887825 321.834409 
L 411.315029 321.658123 
L 412.742233 320.98547 
L 414.169438 322.223181 
L 415.596642 321.604585 
L 417.023847 321.137875 
L 418.451051 322.780171 
L 419.878255 323.394941 
L 421.30546 321.402201 
L 422.732664 321.277571 
L 425.587073 321.304977 
L 427.014277 321.209587 
L 428.441482 321.225688 
L 429.868686 321.485775 
L 431.29589 322.37487 
L 432.723095 322.573996 
L 434.150299 322.341216 
L 435.577503 322.727333 
L 437.004708 323.583088 
L 438.431912 324.085728 
L 439.859117 324.750552 
L 441.286321 325.235082 
L 442.713525 325.362927 
L 445.567934 325.073255 
L 446.995138 325.437718 
L 448.422343 326.78252 
L 449.849547 327.035748 
L 451.276752 327.509998 
L 452.703956 326.876937 
L 454.13116 327.3774 
L 455.558365 328.408826 
L 456.985569 328.283326 
L 458.412773 328.473219 
L 459.839978 329.037269 
L 461.267182 329.060235 
L 462.694387 329.326812 
L 465.548795 330.24156 
L 466.976 329.169314 
L 468.403204 327.065534 
L 469.830408 328.036455 
L 471.257613 326.963107 
L 472.684817 326.157852 
L 474.112022 327.616307 
L 475.539226 325.978873 
L 476.96643 325.332451 
L 478.393635 325.530006 
L 479.820839 325.109209 
L 481.248043 326.506512 
L 482.675248 326.726052 
L 484.102452 326.155431 
L 486.956861 326.741113 
L 488.384065 325.333658 
L 489.81127 325.704931 
L 491.238474 325.530171 
L 492.665678 325.205049 
L 494.092883 324.087828 
L 496.947292 326.089808 
L 498.374496 326.429386 
L 499.8017 325.387901 
L 501.228905 326.653957 
L 502.656109 325.925508 
L 504.083313 325.031621 
L 505.510518 325.117941 
L 506.937722 325.808572 
L 508.364927 324.457305 
L 509.792131 324.336279 
L 511.219335 325.428065 
L 512.64654 325.130866 
L 514.073744 325.189718 
L 515.500948 324.79565 
L 516.928153 323.650152 
L 518.355357 323.496041 
L 519.782562 324.46874 
L 521.209766 324.976308 
L 522.63697 326.404238 
L 524.064175 327.561294 
L 528.345788 330.128818 
L 529.772992 330.902387 
L 531.200197 330.069266 
L 532.627401 330.474346 
L 534.054605 330.211114 
L 535.48181 331.282782 
L 536.909014 331.087097 
L 538.336218 331.129305 
L 539.763423 329.996679 
L 541.190627 329.962094 
L 542.617832 329.050908 
L 544.045036 329.898511 
L 545.47224 329.94762 
L 546.899445 330.411198 
L 548.326649 330.163071 
L 549.753853 329.374728 
L 551.181058 327.707502 
L 552.608262 327.724922 
L 554.035467 328.419641 
L 555.462671 328.089271 
L 556.889875 327.606648 
L 558.31708 328.07287 
L 561.171488 328.242937 
L 562.598693 329.348144 
L 564.025897 329.545088 
L 565.453102 328.395623 
L 566.880306 329.212779 
L 568.30751 328.742805 
L 569.734715 328.670056 
L 574.016328 329.70413 
L 575.443532 329.409006 
L 576.870737 329.490545 
L 578.297941 329.437078 
L 579.725145 329.695185 
L 581.15235 328.852247 
L 582.579554 329.015413 
L 584.006758 328.857014 
L 586.861167 329.74961 
L 588.288371 330.964606 
L 589.715576 330.302088 
L 591.14278 331.07415 
L 595.424393 330.200084 
L 596.851598 330.657623 
L 598.278802 330.683983 
L 599.706006 330.394111 
L 601.133211 329.842223 
L 605.414824 332.000826 
L 606.842028 332.242062 
L 608.269233 331.311925 
L 611.123641 331.530102 
L 612.550846 332.170455 
L 615.405255 332.270257 
L 616.832459 332.109074 
L 618.259663 330.701004 
L 619.686868 330.95192 
L 621.114072 331.087799 
L 622.541276 331.498582 
L 623.968481 331.349527 
L 625.395685 331.011912 
L 626.82289 330.839742 
L 628.250094 329.918876 
L 629.677298 329.239339 
L 631.104503 328.258464 
L 632.531707 327.67395 
L 633.958911 327.807189 
L 635.386116 327.431663 
L 636.81332 328.01878 
L 638.240525 328.780861 
L 639.667729 329.124496 
L 641.094933 329.70299 
L 643.949342 328.720473 
L 645.376546 329.203565 
L 646.803751 330.082143 
L 648.230955 329.7669 
L 649.65816 330.542755 
L 651.085364 331.860446 
L 652.512568 331.798164 
L 652.512568 331.798164 
" clip-path="url(#p3a907d0f7c)" style="fill: none; stroke: #ff7f0e; stroke-width: 1.2; stroke-linecap: square"/>
   </g>
   <g id="line2d_35">
    <path d="M 84.485227 275.187588 
L 85.912432 271.515101 
L 87.339636 268.72944 
L 88.76684 272.016441 
L 90.194045 274.736447 
L 91.621249 273.811996 
L 93.048454 269.195385 
L 95.902862 269.072555 
L 97.330067 267.734794 
L 98.757271 265.703952 
L 100.184475 269.165775 
L 101.61168 269.548239 
L 103.038884 268.679173 
L 104.466089 269.321103 
L 107.320497 273.414303 
L 108.747702 272.915676 
L 110.174906 270.218991 
L 111.60211 270.066945 
L 113.029315 268.129709 
L 114.456519 263.041951 
L 115.883724 260.075562 
L 117.310928 256.116768 
L 120.165337 232.823359 
L 121.592541 224.300119 
L 123.019745 211.38513 
L 124.44695 202.281829 
L 125.874154 197.57456 
L 127.301359 189.495801 
L 128.728563 182.20614 
L 130.155767 176.655579 
L 133.010176 164.272577 
L 134.43738 159.89294 
L 137.291789 149.695825 
L 138.718994 146.679135 
L 141.573402 139.8691 
L 143.000607 140.440021 
L 144.427811 136.750615 
L 145.855015 131.630296 
L 147.28222 129.552835 
L 148.709424 127.954553 
L 151.563833 125.435766 
L 152.991037 123.537711 
L 154.418242 119.525604 
L 155.845446 119.291443 
L 157.27265 119.824735 
L 158.699855 125.562373 
L 160.127059 132.623319 
L 162.981468 153.717801 
L 164.408672 162.053112 
L 165.835877 171.664516 
L 167.263081 177.09179 
L 168.690285 181.424887 
L 170.11749 187.390285 
L 171.544694 195.040661 
L 172.971898 196.727342 
L 174.399103 203.797191 
L 175.826307 207.040092 
L 177.253512 211.913119 
L 178.680716 214.892422 
L 180.10792 219.03961 
L 181.535125 223.58616 
L 182.962329 229.591407 
L 184.389533 233.756007 
L 185.816738 238.465358 
L 187.243942 247.932133 
L 190.098351 264.553055 
L 191.525555 271.670533 
L 192.95276 277.874514 
L 197.234373 293.804239 
L 198.661577 297.113752 
L 200.088782 301.290904 
L 201.515986 304.51246 
L 202.94319 306.67607 
L 204.370395 309.387218 
L 207.224803 313.940075 
L 208.652008 315.788429 
L 211.506417 318.708725 
L 212.933621 320.301889 
L 214.360825 321.648747 
L 215.78803 322.299082 
L 217.215234 323.533422 
L 218.642438 324.423567 
L 221.496847 325.413061 
L 222.924052 326.281424 
L 224.351256 326.572044 
L 225.77846 327.311411 
L 227.205665 327.371782 
L 228.632869 327.613167 
L 230.060073 328.852857 
L 231.487278 329.433211 
L 232.914482 330.583887 
L 234.341687 330.555955 
L 235.768891 331.079295 
L 238.6233 331.648919 
L 240.050504 331.544094 
L 241.477708 331.576838 
L 242.904913 332.412616 
L 244.332117 332.983979 
L 245.759322 333.232315 
L 248.61373 333.455981 
L 250.040935 333.939796 
L 252.895343 334.108803 
L 254.322548 333.771926 
L 255.749752 333.613497 
L 257.176957 333.700983 
L 258.604161 333.104121 
L 260.031365 332.854947 
L 261.45857 333.164358 
L 262.885774 332.86366 
L 264.312978 333.198604 
L 265.740183 333.041843 
L 267.167387 332.769034 
L 268.594592 332.113941 
L 270.021796 333.072961 
L 271.449 332.618957 
L 272.876205 332.959742 
L 274.303409 332.9841 
L 275.730613 332.813409 
L 277.157818 333.303889 
L 278.585022 333.333356 
L 280.012227 333.801321 
L 281.439431 333.772562 
L 282.866635 334.415687 
L 284.29384 334.32428 
L 285.721044 334.626111 
L 287.148248 334.67159 
L 288.575453 334.578018 
L 290.002657 334.718031 
L 291.429862 334.718653 
L 292.857066 335.001883 
L 294.28427 334.895296 
L 295.711475 334.926377 
L 297.138679 335.479123 
L 298.565883 335.18958 
L 299.993088 335.47906 
L 301.420292 335.111355 
L 302.847497 335.146224 
L 304.274701 334.674927 
L 307.12911 335.529055 
L 308.556314 334.813539 
L 309.983518 334.652459 
L 311.410723 334.827673 
L 312.837927 334.878753 
L 314.265132 334.541058 
L 315.692336 334.645809 
L 317.11954 334.589669 
L 319.973949 334.850992 
L 321.401153 334.09312 
L 322.828358 334.456931 
L 324.255562 334.048785 
L 325.682767 333.969022 
L 327.109971 334.296913 
L 328.537175 334.341814 
L 329.96438 334.776633 
L 331.391584 334.052987 
L 332.818788 334.08904 
L 334.245993 334.401045 
L 337.100402 333.805835 
L 339.95481 334.311951 
L 341.382015 333.878357 
L 342.809219 333.853788 
L 345.663628 333.550381 
L 347.090832 333.037738 
L 348.518037 333.492873 
L 349.945241 333.124432 
L 351.372445 333.811346 
L 352.79965 333.536617 
L 354.226854 334.276579 
L 355.654058 333.75681 
L 357.081263 333.769917 
L 359.935672 333.447682 
L 361.362876 334.204533 
L 364.217285 333.092018 
L 365.644489 333.276971 
L 367.071693 332.718185 
L 369.926102 333.57469 
L 371.353307 333.865039 
L 372.780511 333.148018 
L 374.207715 333.79683 
L 375.63492 333.695235 
L 377.062124 333.841334 
L 378.489328 333.627379 
L 379.916533 333.833396 
L 381.343737 333.782918 
L 382.770942 334.191033 
L 384.198146 333.608537 
L 385.62535 333.784422 
L 387.052555 333.163326 
L 388.479759 333.094445 
L 391.334168 333.367267 
L 392.761372 332.889767 
L 394.188577 333.297867 
L 395.615781 332.509477 
L 397.042985 332.377185 
L 399.897394 332.528838 
L 401.324598 332.303502 
L 402.751803 332.950571 
L 405.606212 331.581954 
L 407.033416 331.186401 
L 408.46062 331.075429 
L 409.887825 330.844452 
L 411.315029 331.150647 
L 412.742233 331.11184 
L 414.169438 331.837262 
L 415.596642 332.025602 
L 419.878255 332.004029 
L 421.30546 331.994148 
L 424.159868 332.778469 
L 425.587073 332.077751 
L 427.014277 332.532654 
L 428.441482 332.470268 
L 431.29589 332.714691 
L 432.723095 332.431964 
L 435.577503 332.264134 
L 437.004708 332.492257 
L 438.431912 332.330786 
L 439.859117 332.052433 
L 441.286321 331.991691 
L 442.713525 331.713562 
L 446.995138 332.824956 
L 448.422343 332.390894 
L 449.849547 332.255239 
L 451.276752 332.421694 
L 452.703956 333.13228 
L 454.13116 333.113764 
L 455.558365 333.59623 
L 456.985569 333.763614 
L 458.412773 334.12951 
L 459.839978 334.337874 
L 461.267182 333.886935 
L 462.694387 333.835665 
L 464.121591 333.557035 
L 465.548795 333.93858 
L 466.976 334.474498 
L 469.830408 333.713159 
L 471.257613 334.426475 
L 474.112022 334.083579 
L 475.539226 333.276241 
L 476.96643 333.56677 
L 478.393635 333.243428 
L 479.820839 333.622263 
L 481.248043 333.439482 
L 482.675248 332.744958 
L 484.102452 332.374205 
L 485.529657 331.781988 
L 486.956861 332.501862 
L 488.384065 331.940795 
L 489.81127 332.454339 
L 491.238474 332.548194 
L 492.665678 332.156181 
L 494.092883 332.850429 
L 496.947292 333.813049 
L 498.374496 333.535517 
L 499.8017 333.377411 
L 501.228905 334.434461 
L 502.656109 334.079727 
L 504.083313 333.88117 
L 505.510518 333.487848 
L 506.937722 333.52691 
L 508.364927 333.258104 
L 511.219335 334.252446 
L 512.64654 333.831006 
L 514.073744 333.798439 
L 515.500948 333.172514 
L 516.928153 333.376814 
L 518.355357 333.188182 
L 521.209766 333.372351 
L 522.63697 333.163206 
L 524.064175 333.410303 
L 525.491379 333.228028 
L 526.918583 333.21967 
L 528.345788 333.584716 
L 529.772992 333.618321 
L 532.627401 333.527533 
L 534.054605 333.581847 
L 535.48181 333.18142 
L 536.909014 333.104749 
L 538.336218 333.231247 
L 539.763423 332.957105 
L 541.190627 333.591347 
L 546.899445 332.987821 
L 548.326649 333.088999 
L 549.753853 333.366865 
L 551.181058 333.426358 
L 552.608262 333.623686 
L 554.035467 333.545643 
L 555.462671 333.645321 
L 556.889875 333.555657 
L 559.744284 334.525868 
L 561.171488 334.307249 
L 562.598693 334.620307 
L 564.025897 333.932279 
L 565.453102 333.891311 
L 566.880306 333.497236 
L 568.30751 333.641735 
L 569.734715 333.642276 
L 571.161919 333.757838 
L 572.589123 333.575673 
L 574.016328 333.835751 
L 575.443532 333.647294 
L 576.870737 333.868054 
L 578.297941 333.89847 
L 579.725145 333.61298 
L 581.15235 333.471722 
L 582.579554 333.801488 
L 585.433963 333.906866 
L 586.861167 333.504899 
L 589.715576 333.671268 
L 591.14278 333.906767 
L 592.569985 333.863292 
L 593.997189 333.127512 
L 595.424393 333.208959 
L 596.851598 332.925449 
L 598.278802 333.41421 
L 599.706006 333.301759 
L 601.133211 333.510211 
L 602.560415 333.920142 
L 603.98762 333.137005 
L 605.414824 332.584232 
L 609.696437 333.248845 
L 611.123641 333.122515 
L 612.550846 332.759709 
L 613.97805 332.80621 
L 615.405255 333.393098 
L 618.259663 333.444283 
L 621.114072 333.73703 
L 623.968481 332.606933 
L 625.395685 332.717557 
L 628.250094 333.712022 
L 631.104503 332.852424 
L 632.531707 332.808274 
L 633.958911 333.227662 
L 635.386116 333.517164 
L 636.81332 333.451931 
L 638.240525 333.223833 
L 641.094933 333.430189 
L 642.522138 332.652992 
L 643.949342 332.752466 
L 645.376546 332.610269 
L 646.803751 331.869106 
L 648.230955 331.447398 
L 651.085364 331.844251 
L 652.512568 331.37999 
L 653.939773 331.371255 
L 653.939773 331.371255 
" clip-path="url(#p3a907d0f7c)" style="fill: none; stroke: #2ca02c; stroke-width: 1.2; stroke-linecap: square"/>
   </g>
   <g id="line2d_36">
    <path d="M 84.485227 177.402895 
L 85.912432 169.132375 
L 87.339636 159.788879 
L 88.76684 152.879221 
L 90.194045 141.438932 
L 91.621249 134.36195 
L 94.475658 122.098106 
L 95.902862 114.091383 
L 97.330067 110.466584 
L 98.757271 107.976033 
L 100.184475 100.490194 
L 101.61168 96.747362 
L 103.038884 93.793945 
L 104.466089 94.735174 
L 107.320497 87.743582 
L 108.747702 83.16288 
L 110.174906 77.234096 
L 111.60211 72.514786 
L 113.029315 68.444277 
L 114.456519 65.687311 
L 115.883724 65.109497 
L 117.310928 65.994059 
L 118.738132 65.814006 
L 120.165337 64.971432 
L 121.592541 67.318073 
L 123.019745 63.123444 
L 124.44695 61.358662 
L 125.874154 61.180478 
L 127.301359 56.667493 
L 128.728563 58.103126 
L 130.155767 58.542877 
L 131.582972 56.469945 
L 133.010176 55.616305 
L 134.43738 54.980038 
L 135.864585 54.21432 
L 138.718994 106.387547 
L 140.146198 129.70845 
L 141.573402 149.734142 
L 143.000607 167.992177 
L 144.427811 184.707217 
L 145.855015 199.320419 
L 148.709424 225.350918 
L 150.136629 236.331935 
L 151.563833 246.085315 
L 152.991037 254.599644 
L 155.845446 268.956482 
L 157.27265 273.962093 
L 158.699855 279.801205 
L 160.127059 285.072043 
L 162.981468 292.415201 
L 164.408672 295.885157 
L 167.263081 301.08993 
L 168.690285 304.429586 
L 171.544694 309.166227 
L 172.971898 312.354863 
L 174.399103 314.590517 
L 177.253512 318.283315 
L 178.680716 319.178344 
L 180.10792 319.380129 
L 181.535125 320.419216 
L 182.962329 321.653139 
L 184.389533 323.236106 
L 187.243942 324.251858 
L 188.671147 324.49939 
L 190.098351 325.42461 
L 191.525555 326.067406 
L 192.95276 326.308132 
L 194.379964 327.151304 
L 197.234373 328.203525 
L 198.661577 329.318106 
L 200.088782 330.288926 
L 201.515986 330.352284 
L 202.94319 330.623438 
L 204.370395 329.829529 
L 205.797599 330.006411 
L 207.224803 330.717088 
L 208.652008 330.68811 
L 210.079212 330.158931 
L 211.506417 330.48556 
L 212.933621 330.113201 
L 214.360825 330.171377 
L 215.78803 330.502312 
L 217.215234 330.513824 
L 218.642438 330.124787 
L 221.496847 330.716848 
L 222.924052 330.836562 
L 224.351256 330.609583 
L 225.77846 331.305865 
L 227.205665 331.118269 
L 230.060073 332.389667 
L 231.487278 331.921193 
L 232.914482 330.947641 
L 235.768891 330.235777 
L 237.196095 330.212823 
L 238.6233 330.727305 
L 240.050504 330.755407 
L 241.477708 331.857854 
L 242.904913 330.906737 
L 244.332117 331.365284 
L 247.186526 331.757676 
L 250.040935 331.683194 
L 251.468139 331.941636 
L 252.895343 331.938572 
L 254.322548 331.741549 
L 255.749752 331.918501 
L 258.604161 330.629492 
L 260.031365 330.968852 
L 261.45857 331.186788 
L 262.885774 331.012398 
L 264.312978 330.403395 
L 265.740183 330.087594 
L 268.594592 330.842866 
L 270.021796 331.993996 
L 271.449 331.459248 
L 272.876205 332.019255 
L 274.303409 332.342321 
L 277.157818 331.983552 
L 278.585022 331.542788 
L 280.012227 332.097783 
L 281.439431 331.809121 
L 282.866635 331.839508 
L 284.29384 330.547178 
L 285.721044 331.158026 
L 290.002657 331.44485 
L 291.429862 331.251329 
L 292.857066 331.386444 
L 294.28427 331.88325 
L 295.711475 331.408159 
L 297.138679 331.215582 
L 298.565883 331.270202 
L 299.993088 331.642666 
L 301.420292 332.500165 
L 302.847497 332.968194 
L 305.701905 331.869678 
L 307.12911 332.32155 
L 308.556314 331.620758 
L 309.983518 331.448134 
L 312.837927 332.245852 
L 314.265132 331.849605 
L 315.692336 332.184886 
L 317.11954 332.28667 
L 318.546745 331.442284 
L 319.973949 331.789807 
L 321.401153 330.838647 
L 322.828358 330.908622 
L 324.255562 330.793224 
L 325.682767 331.643258 
L 327.109971 331.985707 
L 328.537175 331.849784 
L 329.96438 332.010346 
L 331.391584 331.523662 
L 332.818788 331.235729 
L 335.673197 331.468809 
L 338.527606 331.15773 
L 339.95481 331.344091 
L 342.809219 332.447858 
L 344.236423 332.656324 
L 345.663628 333.071065 
L 347.090832 332.733913 
L 348.518037 332.882042 
L 349.945241 331.93299 
L 351.372445 331.626981 
L 352.79965 331.85196 
L 355.654058 331.611776 
L 357.081263 331.055346 
L 358.508467 331.32111 
L 359.935672 331.392081 
L 361.362876 331.016339 
L 362.79008 331.47783 
L 364.217285 331.467113 
L 365.644489 331.718052 
L 367.071693 331.201089 
L 369.926102 331.489825 
L 371.353307 332.027132 
L 372.780511 332.050397 
L 375.63492 331.574709 
L 377.062124 332.075001 
L 378.489328 331.641295 
L 379.916533 332.062649 
L 381.343737 331.909227 
L 382.770942 331.628489 
L 384.198146 330.377787 
L 385.62535 330.512795 
L 388.479759 331.323841 
L 389.906963 330.828902 
L 391.334168 331.565031 
L 392.761372 331.700074 
L 394.188577 332.12628 
L 395.615781 332.431249 
L 397.042985 332.373443 
L 398.47019 332.811705 
L 399.897394 332.725686 
L 401.324598 332.174188 
L 402.751803 332.589568 
L 404.179007 332.3535 
L 405.606212 331.762938 
L 408.46062 331.884448 
L 409.887825 331.374988 
L 411.315029 330.543059 
L 412.742233 330.271695 
L 414.169438 330.154103 
L 415.596642 329.613305 
L 417.023847 330.351362 
L 418.451051 330.477889 
L 419.878255 330.813206 
L 421.30546 330.993871 
L 422.732664 331.30005 
L 424.159868 331.127365 
L 425.587073 330.65853 
L 427.014277 331.225994 
L 428.441482 330.424926 
L 429.868686 330.767014 
L 431.29589 330.224731 
L 432.723095 330.830788 
L 434.150299 331.11658 
L 435.577503 331.774646 
L 437.004708 331.144542 
L 438.431912 330.739979 
L 439.859117 330.965616 
L 442.713525 329.967039 
L 444.14073 330.545536 
L 445.567934 330.824281 
L 446.995138 330.551323 
L 448.422343 330.789601 
L 449.849547 330.558153 
L 451.276752 330.859747 
L 452.703956 330.49709 
L 454.13116 330.631196 
L 455.558365 331.160905 
L 456.985569 331.067464 
L 458.412773 330.720673 
L 459.839978 330.966604 
L 461.267182 332.145107 
L 464.121591 332.952011 
L 465.548795 333.031082 
L 466.976 333.631101 
L 468.403204 334.077805 
L 469.830408 332.607919 
L 471.257613 332.471331 
L 472.684817 332.721618 
L 474.112022 333.383945 
L 475.539226 333.533051 
L 478.393635 331.782697 
L 479.820839 331.935556 
L 481.248043 331.308761 
L 482.675248 331.418247 
L 484.102452 330.70874 
L 485.529657 330.795253 
L 488.384065 331.332721 
L 489.81127 330.756333 
L 491.238474 330.545745 
L 492.665678 331.163958 
L 494.092883 330.186762 
L 496.947292 330.300246 
L 498.374496 330.203982 
L 499.8017 330.47446 
L 501.228905 330.565169 
L 502.656109 330.847308 
L 504.083313 329.698641 
L 505.510518 329.695724 
L 508.364927 330.551255 
L 509.792131 329.673763 
L 511.219335 329.452323 
L 512.64654 330.65418 
L 516.928153 330.736192 
L 518.355357 330.412968 
L 519.782562 330.613274 
L 521.209766 329.851511 
L 524.064175 329.938801 
L 525.491379 329.664849 
L 528.345788 329.814485 
L 529.772992 329.704199 
L 531.200197 328.879868 
L 532.627401 328.790445 
L 535.48181 327.135365 
L 538.336218 328.793904 
L 539.763423 329.049877 
L 541.190627 329.535173 
L 545.47224 330.441464 
L 548.326649 331.718853 
L 549.753853 332.670477 
L 551.181058 332.157159 
L 552.608262 332.331259 
L 554.035467 332.765015 
L 555.462671 332.849412 
L 556.889875 333.049608 
L 558.31708 331.600732 
L 559.744284 331.233967 
L 561.171488 331.154174 
L 564.025897 331.935811 
L 566.880306 333.063794 
L 568.30751 333.24429 
L 569.734715 333.219748 
L 571.161919 331.379302 
L 575.443532 330.41399 
L 576.870737 330.672611 
L 578.297941 329.988862 
L 582.579554 330.599263 
L 585.433963 331.516041 
L 586.861167 332.112999 
L 588.288371 332.87618 
L 589.715576 333.298354 
L 591.14278 333.256721 
L 592.569985 333.100593 
L 593.997189 333.136921 
L 595.424393 332.96972 
L 596.851598 333.174022 
L 598.278802 333.567253 
L 599.706006 333.401923 
L 603.98762 331.64103 
L 605.414824 331.38689 
L 606.842028 331.661852 
L 608.269233 331.539531 
L 611.123641 330.326924 
L 612.550846 331.569731 
L 613.97805 331.677183 
L 615.405255 332.065954 
L 616.832459 331.604435 
L 618.259663 331.016875 
L 619.686868 331.281631 
L 621.114072 331.765823 
L 622.541276 332.383646 
L 625.395685 332.643029 
L 626.82289 332.110349 
L 628.250094 332.055535 
L 629.677298 332.649396 
L 631.104503 332.664551 
L 632.531707 332.870645 
L 633.958911 332.566137 
L 636.81332 332.397394 
L 638.240525 331.917719 
L 639.667729 330.614609 
L 641.094933 331.091788 
L 642.522138 330.274827 
L 646.803751 331.892836 
L 648.230955 332.05371 
L 649.65816 333.102235 
L 651.085364 333.089668 
L 652.512568 333.526515 
L 653.939773 332.82922 
L 653.939773 332.82922 
" clip-path="url(#p3a907d0f7c)" style="fill: none; stroke: #d62728; stroke-width: 1.2; stroke-linecap: square"/>
   </g>
   <g id="line2d_37">
    <path d="M 84.485227 199.380423 
L 85.912432 196.58095 
L 87.339636 193.067804 
L 88.76684 188.376641 
L 90.194045 194.3789 
L 91.621249 204.048922 
L 94.475658 220.140623 
L 97.330067 234.744135 
L 100.184475 252.593704 
L 103.038884 267.769951 
L 104.466089 273.071835 
L 107.320497 284.566841 
L 108.747702 289.243191 
L 111.60211 297.000899 
L 113.029315 300.178647 
L 114.456519 303.747303 
L 115.883724 306.520664 
L 117.310928 308.487096 
L 118.738132 309.416804 
L 120.165337 311.717146 
L 121.592541 313.612432 
L 123.019745 314.814049 
L 124.44695 315.850242 
L 125.874154 318.238142 
L 127.301359 319.305984 
L 128.728563 321.048886 
L 131.582972 321.734281 
L 133.010176 322.665099 
L 134.43738 323.454522 
L 135.864585 323.885825 
L 137.291789 324.705605 
L 138.718994 324.918039 
L 140.146198 326.13102 
L 141.573402 326.007253 
L 143.000607 326.911858 
L 144.427811 327.107766 
L 145.855015 327.714322 
L 147.28222 327.403587 
L 148.709424 328.756983 
L 150.136629 329.700759 
L 151.563833 330.070136 
L 152.991037 329.852066 
L 154.418242 330.197257 
L 157.27265 330.064449 
L 160.127059 330.71848 
L 161.554263 330.369553 
L 162.981468 330.841412 
L 164.408672 331.5757 
L 165.835877 330.137834 
L 168.690285 330.735668 
L 170.11749 330.256362 
L 171.544694 330.112524 
L 172.971898 330.880628 
L 174.399103 330.571935 
L 175.826307 330.506306 
L 177.253512 330.635882 
L 178.680716 329.933656 
L 180.10792 330.526814 
L 181.535125 330.646439 
L 182.962329 330.931575 
L 184.389533 331.619292 
L 185.816738 331.769351 
L 187.243942 332.526608 
L 188.671147 332.712595 
L 190.098351 332.290734 
L 192.95276 331.954735 
L 194.379964 332.301139 
L 195.807168 332.827069 
L 197.234373 332.756307 
L 198.661577 332.975862 
L 200.088782 332.839401 
L 201.515986 332.928282 
L 202.94319 332.421341 
L 205.797599 332.583617 
L 208.652008 332.051518 
L 211.506417 332.003812 
L 212.933621 331.751257 
L 214.360825 332.034154 
L 215.78803 331.664982 
L 217.215234 331.628057 
L 218.642438 332.189462 
L 220.069643 332.458516 
L 221.496847 331.907657 
L 222.924052 331.614796 
L 224.351256 330.255079 
L 225.77846 329.736015 
L 227.205665 330.481335 
L 228.632869 329.982303 
L 230.060073 330.222976 
L 231.487278 329.939025 
L 232.914482 330.194069 
L 234.341687 330.033867 
L 235.768891 330.109613 
L 237.196095 329.861153 
L 240.050504 330.482013 
L 241.477708 329.482826 
L 245.759322 330.169007 
L 248.61373 329.618121 
L 250.040935 329.166853 
L 251.468139 329.343425 
L 252.895343 330.047341 
L 254.322548 330.143784 
L 255.749752 330.095069 
L 257.176957 330.937143 
L 258.604161 331.212847 
L 260.031365 331.183616 
L 261.45857 331.296875 
L 262.885774 330.91944 
L 265.740183 331.675942 
L 267.167387 331.174823 
L 268.594592 331.318708 
L 270.021796 332.123666 
L 272.876205 333.251813 
L 274.303409 332.918738 
L 275.730613 332.159102 
L 277.157818 332.170457 
L 278.585022 332.651573 
L 281.439431 332.904913 
L 282.866635 331.133206 
L 284.29384 331.077961 
L 285.721044 331.336819 
L 287.148248 331.842641 
L 288.575453 331.821909 
L 290.002657 332.33834 
L 291.429862 331.974923 
L 292.857066 331.218128 
L 294.28427 329.816486 
L 295.711475 330.639807 
L 298.565883 328.459737 
L 299.993088 328.855781 
L 301.420292 329.407709 
L 302.847497 329.839373 
L 304.274701 329.95325 
L 305.701905 330.966429 
L 307.12911 330.8624 
L 308.556314 331.334437 
L 309.983518 332.084455 
L 311.410723 332.181184 
L 312.837927 331.822375 
L 315.692336 332.823173 
L 317.11954 332.311213 
L 318.546745 332.269227 
L 319.973949 330.874936 
L 321.401153 331.427341 
L 322.828358 331.510419 
L 324.255562 331.13533 
L 325.682767 330.991324 
L 327.109971 331.533794 
L 328.537175 331.549858 
L 329.96438 331.319306 
L 331.391584 330.734726 
L 332.818788 331.149291 
L 334.245993 331.011111 
L 335.673197 330.99579 
L 337.100402 329.790676 
L 338.527606 329.238663 
L 339.95481 328.563662 
L 341.382015 329.943363 
L 344.236423 330.776794 
L 345.663628 331.029157 
L 347.090832 331.05412 
L 348.518037 331.329373 
L 349.945241 331.235782 
L 351.372445 331.984447 
L 352.79965 331.388005 
L 354.226854 330.967973 
L 357.081263 331.263789 
L 359.935672 331.039317 
L 361.362876 331.315592 
L 364.217285 331.130541 
L 365.644489 331.125851 
L 367.071693 331.323334 
L 369.926102 331.02917 
L 371.353307 331.259977 
L 372.780511 331.137636 
L 374.207715 331.454428 
L 375.63492 330.955537 
L 378.489328 330.520924 
L 379.916533 331.192672 
L 381.343737 331.43579 
L 382.770942 331.898437 
L 384.198146 331.648917 
L 385.62535 331.112189 
L 387.052555 331.450969 
L 388.479759 331.208802 
L 389.906963 330.554692 
L 391.334168 331.094627 
L 392.761372 331.376941 
L 394.188577 332.068458 
L 395.615781 332.123395 
L 397.042985 332.426665 
L 398.47019 332.297666 
L 399.897394 332.551128 
L 401.324598 332.542678 
L 402.751803 332.810633 
L 404.179007 332.261005 
L 405.606212 332.341817 
L 407.033416 332.102269 
L 408.46062 332.015994 
L 409.887825 332.311068 
L 411.315029 331.641639 
L 412.742233 330.783422 
L 414.169438 330.989211 
L 415.596642 331.705028 
L 417.023847 332.004513 
L 419.878255 330.978843 
L 421.30546 331.124418 
L 422.732664 331.576888 
L 424.159868 332.196216 
L 425.587073 332.458095 
L 431.29589 332.119861 
L 432.723095 332.248868 
L 435.577503 332.257486 
L 437.004708 331.333901 
L 438.431912 331.308182 
L 439.859117 330.402521 
L 441.286321 331.339147 
L 442.713525 331.798417 
L 444.14073 331.446775 
L 445.567934 332.062852 
L 446.995138 332.272409 
L 448.422343 333.055702 
L 449.849547 331.881716 
L 451.276752 331.479292 
L 452.703956 331.551472 
L 454.13116 331.275194 
L 455.558365 331.534078 
L 456.985569 331.512426 
L 458.412773 331.876456 
L 459.839978 331.27378 
L 461.267182 331.38641 
L 462.694387 330.960632 
L 465.548795 332.055817 
L 466.976 332.210919 
L 468.403204 331.791259 
L 469.830408 332.609873 
L 471.257613 332.130363 
L 472.684817 332.629563 
L 474.112022 332.259951 
L 475.539226 332.628224 
L 476.96643 332.18962 
L 478.393635 332.471381 
L 481.248043 332.490836 
L 482.675248 332.750307 
L 484.102452 333.50812 
L 485.529657 333.654829 
L 486.956861 333.261715 
L 488.384065 332.646729 
L 491.238474 333.054739 
L 492.665678 333.335308 
L 494.092883 332.777254 
L 495.520087 331.945408 
L 496.947292 330.941719 
L 498.374496 330.817679 
L 499.8017 330.137836 
L 501.228905 330.303713 
L 502.656109 330.87987 
L 505.510518 330.834387 
L 508.364927 330.351827 
L 509.792131 329.881497 
L 511.219335 329.904941 
L 512.64654 329.13434 
L 514.073744 328.816953 
L 515.500948 329.129675 
L 516.928153 328.761141 
L 518.355357 329.222207 
L 519.782562 329.19379 
L 521.209766 329.778351 
L 524.064175 329.719503 
L 525.491379 328.813451 
L 526.918583 329.098919 
L 528.345788 329.185029 
L 529.772992 328.020497 
L 531.200197 327.752935 
L 532.627401 328.231366 
L 534.054605 326.867428 
L 536.909014 327.541538 
L 538.336218 328.504523 
L 539.763423 328.894193 
L 541.190627 328.534766 
L 542.617832 328.930355 
L 544.045036 329.44468 
L 545.47224 329.387591 
L 546.899445 329.741159 
L 548.326649 328.270823 
L 549.753853 328.401059 
L 551.181058 328.173604 
L 552.608262 328.960541 
L 554.035467 329.025443 
L 555.462671 329.377258 
L 556.889875 329.877516 
L 558.31708 330.576195 
L 562.598693 330.549602 
L 564.025897 330.532311 
L 565.453102 330.823377 
L 566.880306 330.664861 
L 568.30751 330.990385 
L 569.734715 331.862463 
L 571.161919 332.041765 
L 572.589123 331.953837 
L 576.870737 330.920948 
L 578.297941 331.121962 
L 579.725145 331.447731 
L 581.15235 331.928488 
L 582.579554 332.232334 
L 585.433963 332.465505 
L 586.861167 331.890139 
L 588.288371 332.105897 
L 589.715576 331.768529 
L 591.14278 332.070329 
L 592.569985 332.08117 
L 593.997189 332.993908 
L 595.424393 333.283789 
L 598.278802 332.326847 
L 602.560415 333.679101 
L 605.414824 333.515672 
L 606.842028 333.904206 
L 608.269233 334.106511 
L 609.696437 333.673662 
L 611.123641 333.052129 
L 612.550846 332.23976 
L 613.97805 332.231191 
L 615.405255 331.900707 
L 616.832459 331.415668 
L 618.259663 331.574682 
L 619.686868 331.0487 
L 621.114072 331.143788 
L 622.541276 330.8329 
L 623.968481 331.290037 
L 625.395685 331.266969 
L 626.82289 330.906959 
L 628.250094 331.014389 
L 629.677298 330.569184 
L 631.104503 330.305422 
L 632.531707 330.530115 
L 633.958911 331.280257 
L 635.386116 331.197795 
L 636.81332 331.958238 
L 638.240525 332.379751 
L 639.667729 331.64504 
L 641.094933 332.201796 
L 642.522138 333.148463 
L 643.949342 332.922035 
L 645.376546 332.927327 
L 646.803751 333.087146 
L 648.230955 333.540567 
L 652.512568 333.265528 
L 652.512568 333.265528 
" clip-path="url(#p3a907d0f7c)" style="fill: none; stroke: #9b8ac9; stroke-width: 1.2; stroke-linecap: square"/>
   </g>
   <g id="patch_3">
    <path d="M 56.0125 349.8636 
L 56.0125 34.5036 
" style="fill: none; stroke: #000000; stroke-width: 0.8; stroke-linejoin: miter; stroke-linecap: square"/>
   </g>
   <g id="patch_4">
    <path d="M 682.4125 349.8636 
L 682.4125 34.5036 
" style="fill: none; stroke: #000000; stroke-width: 0.8; stroke-linejoin: miter; stroke-linecap: square"/>
   </g>
   <g id="patch_5">
    <path d="M 56.0125 349.8636 
L 682.4125 349.8636 
" style="fill: none; stroke: #000000; stroke-width: 0.8; stroke-linejoin: miter; stroke-linecap: square"/>
   </g>
   <g id="patch_6">
    <path d="M 56.0125 34.5036 
L 682.4125 34.5036 
" style="fill: none; stroke: #000000; stroke-width: 0.8; stroke-linejoin: miter; stroke-linecap: square"/>
   </g>
   <g id="legend_1">
    <g id="patch_7">
     <path d="M 56.0125 31.35 
L 682.4125 31.35 
L 682.4125 7.2 
L 56.0125 7.2 
z
" style="fill: #ffffff; stroke: #808080; stroke-width: 0.8; stroke-linejoin: miter"/>
    </g>
    <g id="line2d_38">
     <path d="M 62.3125 18.4 
L 76.3125 18.4 
L 90.3125 18.4 
" style="fill: none; stroke: #1f77b4; stroke-width: 1.2; stroke-linecap: square"/>
    </g>
    <g id="text_19">
     <!-- DDPG -->
     <g transform="translate(98.7125 23.3) scale(0.14 -0.14)">
      <defs>
       <path id="SimHei-44" d="M 2925 2250 
Q 2925 1100 2437 612 
Q 1950 125 1125 125 
L 275 125 
L 275 4400 
L 1125 4400 
Q 2050 4400 2487 3900 
Q 2925 3400 2925 2250 
z
M 2325 2250 
Q 2325 3175 2025 3550 
Q 1725 3925 1125 3925 
L 850 3925 
L 850 600 
L 1125 600 
Q 1725 600 2025 962 
Q 2325 1325 2325 2250 
z
" transform="scale(0.015625)"/>
       <path id="SimHei-50" d="M 2950 3100 
Q 2950 2500 2600 2150 
Q 2250 1800 1625 1800 
L 900 1800 
L 900 125 
L 325 125 
L 325 4400 
L 1625 4400 
Q 2250 4400 2600 4050 
Q 2950 3700 2950 3100 
z
M 2375 3100 
Q 2375 3575 2150 3750 
Q 1925 3925 1475 3925 
L 900 3925 
L 900 2275 
L 1475 2275 
Q 1925 2275 2150 2450 
Q 2375 2625 2375 3100 
z
" transform="scale(0.015625)"/>
       <path id="SimHei-47" d="M 2850 75 
L 2425 75 
L 2350 425 
Q 2250 275 2037 175 
Q 1825 75 1575 75 
Q 1050 75 637 562 
Q 225 1050 225 2125 
Q 225 3300 600 3875 
Q 975 4450 1625 4450 
Q 2200 4450 2525 4025 
Q 2850 3600 2850 2925 
L 2300 2925 
Q 2300 3450 2125 3712 
Q 1950 3975 1625 3975 
Q 1225 3975 1025 3562 
Q 825 3150 825 2175 
Q 825 1250 1075 900 
Q 1325 550 1650 550 
Q 1975 550 2162 787 
Q 2350 1025 2350 1525 
L 2350 1800 
L 1575 1800 
L 1575 2275 
L 2850 2275 
L 2850 75 
z
" transform="scale(0.015625)"/>
      </defs>
      <use xlink:href="#SimHei-44"/>
      <use xlink:href="#SimHei-44" transform="translate(50 0)"/>
      <use xlink:href="#SimHei-50" transform="translate(100 0)"/>
      <use xlink:href="#SimHei-47" transform="translate(150 0)"/>
     </g>
    </g>
    <g id="line2d_39">
     <path d="M 192.6625 18.4 
L 206.6625 18.4 
L 220.6625 18.4 
" style="fill: none; stroke: #ff7f0e; stroke-width: 1.2; stroke-linecap: square"/>
    </g>
    <g id="text_20">
     <!-- PPO -->
     <g transform="translate(229.0625 23.3) scale(0.14 -0.14)">
      <defs>
       <path id="SimHei-4f" d="M 2950 2275 
Q 2950 1100 2587 587 
Q 2225 75 1575 75 
Q 925 75 550 587 
Q 175 1100 175 2275 
Q 175 3450 550 3950 
Q 925 4450 1575 4450 
Q 2225 4450 2587 3950 
Q 2950 3450 2950 2275 
z
M 2350 2275 
Q 2350 3325 2125 3650 
Q 1900 3975 1575 3975 
Q 1250 3975 1012 3650 
Q 775 3325 775 2275 
Q 775 1225 1012 887 
Q 1250 550 1575 550 
Q 1900 550 2125 887 
Q 2350 1225 2350 2275 
z
" transform="scale(0.015625)"/>
      </defs>
      <use xlink:href="#SimHei-50"/>
      <use xlink:href="#SimHei-50" transform="translate(50 0)"/>
      <use xlink:href="#SimHei-4f" transform="translate(100 0)"/>
     </g>
    </g>
    <g id="line2d_40">
     <path d="M 316.0125 18.4 
L 330.0125 18.4 
L 344.0125 18.4 
" style="fill: none; stroke: #2ca02c; stroke-width: 1.2; stroke-linecap: square"/>
    </g>
    <g id="text_21">
     <!-- TD3 -->
     <g transform="translate(352.4125 23.3) scale(0.14 -0.14)">
      <use xlink:href="#SimHei-54"/>
      <use xlink:href="#SimHei-44" transform="translate(50 0)"/>
      <use xlink:href="#SimHei-33" transform="translate(100 0)"/>
     </g>
    </g>
    <g id="line2d_41">
     <path d="M 439.3625 18.4 
L 453.3625 18.4 
L 467.3625 18.4 
" style="fill: none; stroke: #d62728; stroke-width: 1.2; stroke-linecap: square"/>
    </g>
    <g id="text_22">
     <!-- GCN-DDQN -->
     <g transform="translate(475.7625 23.3) scale(0.14 -0.14)">
      <defs>
       <path id="SimHei-43" d="M 2975 1825 
Q 2950 875 2575 475 
Q 2200 75 1675 75 
Q 1075 75 650 562 
Q 225 1050 225 2125 
Q 225 3300 637 3875 
Q 1050 4450 1700 4450 
Q 2250 4450 2612 4037 
Q 2975 3625 2950 2875 
L 2400 2875 
Q 2400 3425 2225 3700 
Q 2050 3975 1700 3975 
Q 1300 3975 1062 3562 
Q 825 3150 825 2175 
Q 825 1275 1062 912 
Q 1300 550 1675 550 
Q 1950 550 2175 812 
Q 2400 1075 2400 1825 
L 2975 1825 
z
" transform="scale(0.015625)"/>
       <path id="SimHei-4e" d="M 2850 125 
L 2225 125 
L 850 3225 
L 825 3225 
L 825 125 
L 250 125 
L 250 4400 
L 875 4400 
L 2250 1300 
L 2275 1300 
L 2275 4400 
L 2850 4400 
L 2850 125 
z
" transform="scale(0.015625)"/>
       <path id="SimHei-2d" d="M 2975 2125 
L 125 2125 
L 125 2525 
L 2975 2525 
L 2975 2125 
z
" transform="scale(0.015625)"/>
       <path id="SimHei-51" d="M 2950 2275 
Q 2950 1675 2862 1262 
Q 2775 850 2575 600 
L 2775 225 
L 2375 -200 
L 2150 225 
Q 2050 150 1900 112 
Q 1750 75 1575 75 
Q 925 75 550 587 
Q 175 1100 175 2275 
Q 175 3450 550 3950 
Q 925 4450 1575 4450 
Q 2225 4450 2587 3950 
Q 2950 3450 2950 2275 
z
M 2350 2275 
Q 2350 3325 2125 3650 
Q 1900 3975 1575 3975 
Q 1250 3975 1012 3650 
Q 775 3325 775 2275 
Q 775 1225 1012 887 
Q 1250 550 1575 550 
Q 1700 550 1800 587 
Q 1900 625 1950 675 
L 1550 1450 
L 1900 1875 
L 2250 1200 
Q 2300 1450 2325 1650 
Q 2350 1850 2350 2275 
z
" transform="scale(0.015625)"/>
      </defs>
      <use xlink:href="#SimHei-47"/>
      <use xlink:href="#SimHei-43" transform="translate(50 0)"/>
      <use xlink:href="#SimHei-4e" transform="translate(100 0)"/>
      <use xlink:href="#SimHei-2d" transform="translate(150 0)"/>
      <use xlink:href="#SimHei-44" transform="translate(200 0)"/>
      <use xlink:href="#SimHei-44" transform="translate(250 0)"/>
      <use xlink:href="#SimHei-51" transform="translate(300 0)"/>
      <use xlink:href="#SimHei-4e" transform="translate(350 0)"/>
     </g>
    </g>
    <g id="line2d_42">
     <path d="M 597.7125 18.4 
L 611.7125 18.4 
L 625.7125 18.4 
" style="fill: none; stroke: #9b8ac9; stroke-width: 1.2; stroke-linecap: square"/>
    </g>
    <g id="text_23">
     <!-- GLDVTO -->
     <g transform="translate(634.1125 23.3) scale(0.14 -0.14)">
      <defs>
       <path id="SimHei-56" d="M 3050 4400 
L 1800 75 
L 1300 75 
L 50 4400 
L 650 4400 
L 1525 1125 
L 1575 1125 
L 2450 4400 
L 3050 4400 
z
" transform="scale(0.015625)"/>
      </defs>
      <use xlink:href="#SimHei-47"/>
      <use xlink:href="#SimHei-4c" transform="translate(50 0)"/>
      <use xlink:href="#SimHei-44" transform="translate(100 0)"/>
      <use xlink:href="#SimHei-56" transform="translate(150 0)"/>
      <use xlink:href="#SimHei-54" transform="translate(200 0)"/>
      <use xlink:href="#SimHei-4f" transform="translate(250 0)"/>
     </g>
    </g>
   </g>
  </g>
 </g>
 <defs>
  <clipPath id="p3a907d0f7c">
   <rect x="56.0125" y="34.5036" width="626.4" height="315.36"/>
  </clipPath>
 </defs>
</svg>
