<?xml version="1.0" encoding="utf-8" standalone="no"?>
<!DOCTYPE svg PUBLIC "-//W3C//DTD SVG 1.1//EN"
  "http://www.w3.org/Graphics/SVG/1.1/DTD/svg11.dtd">
<svg xmlns:xlink="http://www.w3.org/1999/xlink" width="671.6125pt" height="391.6261pt" viewBox="0 0 671.6125 391.6261" xmlns="http://www.w3.org/2000/svg" version="1.1">
 <metadata>
  <rdf:RDF xmlns:dc="http://purl.org/dc/elements/1.1/" xmlns:cc="http://creativecommons.org/ns#" xmlns:rdf="http://www.w3.org/1999/02/22-rdf-syntax-ns#">
   <cc:Work>
    <dc:type rdf:resource="http://purl.org/dc/dcmitype/StillImage"/>
    <dc:date>2026-07-13T21:10:53.564262</dc:date>
    <dc:format>image/svg+xml</dc:format>
    <dc:creator>
     <cc:Agent>
      <dc:title>Matplotlib v3.10.7, https://matplotlib.org/</dc:title>
     </cc:Agent>
    </dc:creator>
   </cc:Work>
  </rdf:RDF>
 </metadata>
 <defs>
  <style type="text/css">*{stroke-linejoin: round; stroke-linecap: butt}</style>
 </defs>
 <g id="figure_1">
  <g id="patch_1">
   <path d="M 0 391.6261 
L 671.6125 391.6261 
L 671.6125 0 
L 0 0 
z
" style="fill: #ffffff"/>
  </g>
  <g id="axes_1">
   <g id="patch_2">
    <path d="M 38.0125 349.8636 
L 664.4125 349.8636 
L 664.4125 34.5036 
L 38.0125 34.5036 
z
" style="fill: #ffffff"/>
   </g>
   <g id="matplotlib.axis_1">
    <g id="xtick_1">
     <g id="line2d_1">
      <path d="M 66.485227 349.8636 
L 66.485227 34.5036 
" clip-path="url(#pcbc27c8ffa)" style="fill: none; stroke-dasharray: 2.22,0.96; stroke-dashoffset: 0; stroke: #b0b0b0; stroke-opacity: 0.25; stroke-width: 0.6"/>
     </g>
     <g id="line2d_2">
      <defs>
       <path id="mbd4ca3bb78" d="M 0 0 
L 0 3.5 
" style="stroke: #000000; stroke-width: 0.8"/>
      </defs>
      <g>
       <use xlink:href="#mbd4ca3bb78" x="66.485227" y="349.8636" style="stroke: #000000; stroke-width: 0.8"/>
      </g>
     </g>
     <g id="text_1">
      <!-- 0 -->
      <g transform="translate(63.485227 365.1136) scale(0.12 -0.12)">
       <defs>
        <path id="SimHei-30" d="M 225 2537 
Q 250 3200 412 3587 
Q 575 3975 875 4225 
Q 1175 4475 1612 4475 
Q 2050 4475 2375 4112 
Q 2700 3750 2800 3200 
Q 2900 2650 2862 1937 
Q 2825 1225 2612 775 
Q 2400 325 1975 150 
Q 1550 -25 1125 187 
Q 700 400 525 750 
Q 350 1100 275 1487 
Q 200 1875 225 2537 
z
M 750 2687 
Q 675 2000 800 1462 
Q 925 925 1212 700 
Q 1500 475 1800 612 
Q 2100 750 2237 1162 
Q 2375 1575 2375 2062 
Q 2375 2550 2337 2950 
Q 2300 3350 2112 3675 
Q 1925 4000 1612 4012 
Q 1300 4025 1062 3700 
Q 825 3375 750 2687 
z
" transform="scale(0.015625)"/>
       </defs>
       <use xlink:href="#SimHei-30"/>
      </g>
     </g>
    </g>
    <g id="xtick_2">
     <g id="line2d_3">
      <path d="M 137.845446 349.8636 
L 137.845446 34.5036 
" clip-path="url(#pcbc27c8ffa)" style="fill: none; stroke-dasharray: 2.22,0.96; stroke-dashoffset: 0; stroke: #b0b0b0; stroke-opacity: 0.25; stroke-width: 0.6"/>
     </g>
     <g id="line2d_4">
      <g>
       <use xlink:href="#mbd4ca3bb78" x="137.845446" y="349.8636" style="stroke: #000000; stroke-width: 0.8"/>
      </g>
     </g>
     <g id="text_2">
      <!-- 50 -->
      <g transform="translate(131.845446 365.1136) scale(0.12 -0.12)">
       <defs>
        <path id="SimHei-35" d="M 550 1325 
Q 725 650 1150 575 
Q 1575 500 1837 662 
Q 2100 825 2212 1087 
Q 2325 1350 2312 1675 
Q 2300 2000 2137 2225 
Q 1975 2450 1725 2525 
Q 1475 2600 1162 2525 
Q 850 2450 650 2175 
L 225 2225 
Q 275 2375 700 4375 
L 2675 4375 
L 2675 3925 
L 1075 3925 
Q 950 3250 825 2850 
Q 1200 3025 1525 3012 
Q 1850 3000 2150 2862 
Q 2450 2725 2587 2487 
Q 2725 2250 2787 2012 
Q 2850 1775 2837 1500 
Q 2825 1225 2725 937 
Q 2625 650 2425 462 
Q 2225 275 1937 162 
Q 1650 50 1275 75 
Q 900 100 562 350 
Q 225 600 100 1200 
L 550 1325 
z
" transform="scale(0.015625)"/>
       </defs>
       <use xlink:href="#SimHei-35"/>
       <use xlink:href="#SimHei-30" transform="translate(50 0)"/>
      </g>
     </g>
    </g>
    <g id="xtick_3">
     <g id="line2d_5">
      <path d="M 209.205665 349.8636 
L 209.205665 34.5036 
" clip-path="url(#pcbc27c8ffa)" style="fill: none; stroke-dasharray: 2.22,0.96; stroke-dashoffset: 0; stroke: #b0b0b0; stroke-opacity: 0.25; stroke-width: 0.6"/>
     </g>
     <g id="line2d_6">
      <g>
       <use xlink:href="#mbd4ca3bb78" x="209.205665" y="349.8636" style="stroke: #000000; stroke-width: 0.8"/>
      </g>
     </g>
     <g id="text_3">
      <!-- 100 -->
      <g transform="translate(200.205665 365.1136) scale(0.12 -0.12)">
       <defs>
        <path id="SimHei-31" d="M 1400 3600 
Q 1075 3275 575 2975 
L 575 3450 
Q 1200 3875 1600 4450 
L 1900 4450 
L 1900 150 
L 1400 150 
L 1400 3600 
z
" transform="scale(0.015625)"/>
       </defs>
       <use xlink:href="#SimHei-31"/>
       <use xlink:href="#SimHei-30" transform="translate(50 0)"/>
       <use xlink:href="#SimHei-30" transform="translate(100 0)"/>
      </g>
     </g>
    </g>
    <g id="xtick_4">
     <g id="line2d_7">
      <path d="M 280.565883 349.8636 
L 280.565883 34.5036 
" clip-path="url(#pcbc27c8ffa)" style="fill: none; stroke-dasharray: 2.22,0.96; stroke-dashoffset: 0; stroke: #b0b0b0; stroke-opacity: 0.25; stroke-width: 0.6"/>
     </g>
     <g id="line2d_8">
      <g>
       <use xlink:href="#mbd4ca3bb78" x="280.565883" y="349.8636" style="stroke: #000000; stroke-width: 0.8"/>
      </g>
     </g>
     <g id="text_4">
      <!-- 150 -->
      <g transform="translate(271.565883 365.1136) scale(0.12 -0.12)">
       <use xlink:href="#SimHei-31"/>
       <use xlink:href="#SimHei-35" transform="translate(50 0)"/>
       <use xlink:href="#SimHei-30" transform="translate(100 0)"/>
      </g>
     </g>
    </g>
    <g id="xtick_5">
     <g id="line2d_9">
      <path d="M 351.926102 349.8636 
L 351.926102 34.5036 
" clip-path="url(#pcbc27c8ffa)" style="fill: none; stroke-dasharray: 2.22,0.96; stroke-dashoffset: 0; stroke: #b0b0b0; stroke-opacity: 0.25; stroke-width: 0.6"/>
     </g>
     <g id="line2d_10">
      <g>
       <use xlink:href="#mbd4ca3bb78" x="351.926102" y="349.8636" style="stroke: #000000; stroke-width: 0.8"/>
      </g>
     </g>
     <g id="text_5">
      <!-- 200 -->
      <g transform="translate(342.926102 365.1136) scale(0.12 -0.12)">
       <defs>
        <path id="SimHei-32" d="M 300 250 
Q 325 625 650 925 
Q 975 1225 1475 1862 
Q 1975 2500 2125 2850 
Q 2275 3200 2237 3450 
Q 2200 3700 2000 3862 
Q 1800 4025 1537 4000 
Q 1275 3975 1037 3800 
Q 800 3625 675 3275 
L 200 3350 
Q 400 3925 712 4187 
Q 1025 4450 1450 4475 
Q 1700 4500 1900 4462 
Q 2100 4425 2312 4287 
Q 2525 4150 2662 3875 
Q 2800 3600 2762 3212 
Q 2725 2825 2375 2287 
Q 2025 1750 1025 600 
L 2825 600 
L 2825 150 
L 300 150 
L 300 250 
z
" transform="scale(0.015625)"/>
       </defs>
       <use xlink:href="#SimHei-32"/>
       <use xlink:href="#SimHei-30" transform="translate(50 0)"/>
       <use xlink:href="#SimHei-30" transform="translate(100 0)"/>
      </g>
     </g>
    </g>
    <g id="xtick_6">
     <g id="line2d_11">
      <path d="M 423.286321 349.8636 
L 423.286321 34.5036 
" clip-path="url(#pcbc27c8ffa)" style="fill: none; stroke-dasharray: 2.22,0.96; stroke-dashoffset: 0; stroke: #b0b0b0; stroke-opacity: 0.25; stroke-width: 0.6"/>
     </g>
     <g id="line2d_12">
      <g>
       <use xlink:href="#mbd4ca3bb78" x="423.286321" y="349.8636" style="stroke: #000000; stroke-width: 0.8"/>
      </g>
     </g>
     <g id="text_6">
      <!-- 250 -->
      <g transform="translate(414.286321 365.1136) scale(0.12 -0.12)">
       <use xlink:href="#SimHei-32"/>
       <use xlink:href="#SimHei-35" transform="translate(50 0)"/>
       <use xlink:href="#SimHei-30" transform="translate(100 0)"/>
      </g>
     </g>
    </g>
    <g id="xtick_7">
     <g id="line2d_13">
      <path d="M 494.64654 349.8636 
L 494.64654 34.5036 
" clip-path="url(#pcbc27c8ffa)" style="fill: none; stroke-dasharray: 2.22,0.96; stroke-dashoffset: 0; stroke: #b0b0b0; stroke-opacity: 0.25; stroke-width: 0.6"/>
     </g>
     <g id="line2d_14">
      <g>
       <use xlink:href="#mbd4ca3bb78" x="494.64654" y="349.8636" style="stroke: #000000; stroke-width: 0.8"/>
      </g>
     </g>
     <g id="text_7">
      <!-- 300 -->
      <g transform="translate(485.64654 365.1136) scale(0.12 -0.12)">
       <defs>
        <path id="SimHei-33" d="M 250 1225 
L 700 1300 
Q 800 975 1025 762 
Q 1250 550 1587 562 
Q 1925 575 2125 837 
Q 2325 1100 2300 1437 
Q 2275 1775 2037 1962 
Q 1800 2150 1275 2225 
L 1275 2550 
Q 1800 2600 2037 2825 
Q 2275 3050 2250 3412 
Q 2225 3775 1925 3937 
Q 1625 4100 1287 3975 
Q 950 3850 750 3275 
L 300 3350 
Q 450 3800 712 4100 
Q 975 4400 1425 4450 
Q 1875 4500 2212 4337 
Q 2550 4175 2687 3837 
Q 2825 3500 2725 3100 
Q 2625 2700 2150 2400 
Q 2500 2250 2687 1950 
Q 2875 1650 2812 1162 
Q 2750 675 2375 375 
Q 2000 75 1525 87 
Q 1050 100 700 387 
Q 350 675 250 1225 
z
" transform="scale(0.015625)"/>
       </defs>
       <use xlink:href="#SimHei-33"/>
       <use xlink:href="#SimHei-30" transform="translate(50 0)"/>
       <use xlink:href="#SimHei-30" transform="translate(100 0)"/>
      </g>
     </g>
    </g>
    <g id="xtick_8">
     <g id="line2d_15">
      <path d="M 566.006758 349.8636 
L 566.006758 34.5036 
" clip-path="url(#pcbc27c8ffa)" style="fill: none; stroke-dasharray: 2.22,0.96; stroke-dashoffset: 0; stroke: #b0b0b0; stroke-opacity: 0.25; stroke-width: 0.6"/>
     </g>
     <g id="line2d_16">
      <g>
       <use xlink:href="#mbd4ca3bb78" x="566.006758" y="349.8636" style="stroke: #000000; stroke-width: 0.8"/>
      </g>
     </g>
     <g id="text_8">
      <!-- 350 -->
      <g transform="translate(557.006758 365.1136) scale(0.12 -0.12)">
       <use xlink:href="#SimHei-33"/>
       <use xlink:href="#SimHei-35" transform="translate(50 0)"/>
       <use xlink:href="#SimHei-30" transform="translate(100 0)"/>
      </g>
     </g>
    </g>
    <g id="xtick_9">
     <g id="line2d_17">
      <path d="M 637.366977 349.8636 
L 637.366977 34.5036 
" clip-path="url(#pcbc27c8ffa)" style="fill: none; stroke-dasharray: 2.22,0.96; stroke-dashoffset: 0; stroke: #b0b0b0; stroke-opacity: 0.25; stroke-width: 0.6"/>
     </g>
     <g id="line2d_18">
      <g>
       <use xlink:href="#mbd4ca3bb78" x="637.366977" y="349.8636" style="stroke: #000000; stroke-width: 0.8"/>
      </g>
     </g>
     <g id="text_9">
      <!-- 400 -->
      <g transform="translate(628.366977 365.1136) scale(0.12 -0.12)">
       <defs>
        <path id="SimHei-34" d="M 2000 1100 
L 75 1100 
L 75 1525 
L 2100 4450 
L 2475 4450 
L 2475 1525 
L 3075 1525 
L 3075 1100 
L 2475 1100 
L 2475 150 
L 2000 150 
L 2000 1100 
z
M 2000 1525 
L 2000 3500 
L 600 1525 
L 2000 1525 
z
" transform="scale(0.015625)"/>
       </defs>
       <use xlink:href="#SimHei-34"/>
       <use xlink:href="#SimHei-30" transform="translate(50 0)"/>
       <use xlink:href="#SimHei-30" transform="translate(100 0)"/>
      </g>
     </g>
    </g>
    <g id="text_10">
     <!-- Episode -->
     <g transform="translate(321.4625 382.3011) scale(0.17 -0.17)">
      <defs>
       <path id="SimHei-45" d="M 2900 125 
L 350 125 
L 350 4400 
L 2775 4400 
L 2775 3925 
L 925 3925 
L 925 2600 
L 2625 2600 
L 2625 2125 
L 925 2125 
L 925 600 
L 2900 600 
L 2900 125 
z
" transform="scale(0.015625)"/>
       <path id="SimHei-70" d="M 2825 1525 
Q 2825 800 2475 425 
Q 2125 50 1625 50 
Q 1350 50 1150 162 
Q 950 275 800 500 
L 800 -800 
L 300 -800 
L 300 2925 
L 800 2925 
L 800 2550 
Q 950 2775 1150 2875 
Q 1350 2975 1625 2975 
Q 2125 2975 2475 2612 
Q 2825 2250 2825 1525 
z
M 2275 1525 
Q 2275 2000 2087 2262 
Q 1900 2525 1525 2525 
Q 1225 2525 1012 2262 
Q 800 2000 800 1525 
Q 800 1050 1012 775 
Q 1225 500 1525 500 
Q 1900 500 2087 775 
Q 2275 1050 2275 1525 
z
" transform="scale(0.015625)"/>
       <path id="SimHei-69" d="M 1800 3725 
L 1300 3725 
L 1300 4375 
L 1800 4375 
L 1800 3725 
z
M 1800 125 
L 1300 125 
L 1300 2925 
L 1800 2925 
L 1800 125 
z
" transform="scale(0.015625)"/>
       <path id="SimHei-73" d="M 2750 900 
Q 2750 500 2437 287 
Q 2125 75 1650 75 
Q 1050 75 725 312 
Q 400 550 400 1000 
L 900 1000 
Q 900 700 1112 600 
Q 1325 500 1625 500 
Q 1925 500 2075 612 
Q 2225 725 2225 900 
Q 2225 1025 2100 1150 
Q 1975 1275 1475 1350 
Q 900 1425 687 1637 
Q 475 1850 475 2200 
Q 475 2500 762 2737 
Q 1050 2975 1600 2975 
Q 2100 2975 2387 2750 
Q 2675 2525 2675 2150 
L 2175 2150 
Q 2175 2375 2012 2462 
Q 1850 2550 1600 2550 
Q 1275 2550 1137 2437 
Q 1000 2325 1000 2175 
Q 1000 2000 1125 1900 
Q 1250 1800 1650 1750 
Q 2300 1650 2525 1437 
Q 2750 1225 2750 900 
z
" transform="scale(0.015625)"/>
       <path id="SimHei-6f" d="M 2925 1525 
Q 2925 875 2525 475 
Q 2125 75 1575 75 
Q 1025 75 625 475 
Q 225 875 225 1525 
Q 225 2175 625 2575 
Q 1025 2975 1575 2975 
Q 2125 2975 2525 2575 
Q 2925 2175 2925 1525 
z
M 2375 1525 
Q 2375 2025 2125 2275 
Q 1875 2525 1575 2525 
Q 1275 2525 1025 2275 
Q 775 2025 775 1525 
Q 775 1025 1025 775 
Q 1275 525 1575 525 
Q 1875 525 2125 775 
Q 2375 1025 2375 1525 
z
" transform="scale(0.015625)"/>
       <path id="SimHei-64" d="M 2750 125 
L 2250 125 
L 2250 500 
Q 2100 275 1900 175 
Q 1700 75 1425 75 
Q 925 75 575 437 
Q 225 800 225 1525 
Q 225 2250 575 2625 
Q 925 3000 1425 3000 
Q 1700 3000 1900 2887 
Q 2100 2775 2250 2550 
L 2250 4400 
L 2750 4400 
L 2750 125 
z
M 2250 1525 
Q 2250 2000 2037 2275 
Q 1825 2550 1525 2550 
Q 1150 2550 962 2275 
Q 775 2000 775 1525 
Q 775 1050 962 787 
Q 1150 525 1525 525 
Q 1825 525 2037 787 
Q 2250 1050 2250 1525 
z
" transform="scale(0.015625)"/>
       <path id="SimHei-65" d="M 2850 1075 
Q 2800 625 2450 350 
Q 2100 75 1625 75 
Q 1025 75 637 462 
Q 250 850 250 1525 
Q 250 2200 637 2587 
Q 1025 2975 1625 2975 
Q 2150 2975 2487 2637 
Q 2825 2300 2825 1525 
L 800 1525 
Q 800 975 1037 750 
Q 1275 525 1625 525 
Q 1900 525 2075 662 
Q 2250 800 2300 1075 
L 2850 1075 
z
M 2250 1925 
Q 2200 2275 2025 2412 
Q 1850 2550 1575 2550 
Q 1325 2550 1125 2412 
Q 925 2275 825 1925 
L 2250 1925 
z
" transform="scale(0.015625)"/>
      </defs>
      <use xlink:href="#SimHei-45"/>
      <use xlink:href="#SimHei-70" transform="translate(50 0)"/>
      <use xlink:href="#SimHei-69" transform="translate(100 0)"/>
      <use xlink:href="#SimHei-73" transform="translate(150 0)"/>
      <use xlink:href="#SimHei-6f" transform="translate(200 0)"/>
      <use xlink:href="#SimHei-64" transform="translate(250 0)"/>
      <use xlink:href="#SimHei-65" transform="translate(300 0)"/>
     </g>
    </g>
   </g>
   <g id="matplotlib.axis_2">
    <g id="ytick_1">
     <g id="line2d_19">
      <path d="M 38.0125 317.261697 
L 664.4125 317.261697 
" clip-path="url(#pcbc27c8ffa)" style="fill: none; stroke-dasharray: 2.22,0.96; stroke-dashoffset: 0; stroke: #b0b0b0; stroke-opacity: 0.25; stroke-width: 0.6"/>
     </g>
     <g id="line2d_20">
      <defs>
       <path id="ma662dcfa82" d="M 0 0 
L -3.5 0 
" style="stroke: #000000; stroke-width: 0.8"/>
      </defs>
      <g>
       <use xlink:href="#ma662dcfa82" x="38.0125" y="317.261697" style="stroke: #000000; stroke-width: 0.8"/>
      </g>
     </g>
     <g id="text_11">
      <!-- 1 -->
      <g transform="translate(25.0125 321.386697) scale(0.12 -0.12)">
       <use xlink:href="#SimHei-31"/>
      </g>
     </g>
    </g>
    <g id="ytick_2">
     <g id="line2d_21">
      <path d="M 38.0125 249.685844 
L 664.4125 249.685844 
" clip-path="url(#pcbc27c8ffa)" style="fill: none; stroke-dasharray: 2.22,0.96; stroke-dashoffset: 0; stroke: #b0b0b0; stroke-opacity: 0.25; stroke-width: 0.6"/>
     </g>
     <g id="line2d_22">
      <g>
       <use xlink:href="#ma662dcfa82" x="38.0125" y="249.685844" style="stroke: #000000; stroke-width: 0.8"/>
      </g>
     </g>
     <g id="text_12">
      <!-- 2 -->
      <g transform="translate(25.0125 253.810844) scale(0.12 -0.12)">
       <use xlink:href="#SimHei-32"/>
      </g>
     </g>
    </g>
    <g id="ytick_3">
     <g id="line2d_23">
      <path d="M 38.0125 182.109991 
L 664.4125 182.109991 
" clip-path="url(#pcbc27c8ffa)" style="fill: none; stroke-dasharray: 2.22,0.96; stroke-dashoffset: 0; stroke: #b0b0b0; stroke-opacity: 0.25; stroke-width: 0.6"/>
     </g>
     <g id="line2d_24">
      <g>
       <use xlink:href="#ma662dcfa82" x="38.0125" y="182.109991" style="stroke: #000000; stroke-width: 0.8"/>
      </g>
     </g>
     <g id="text_13">
      <!-- 3 -->
      <g transform="translate(25.0125 186.234991) scale(0.12 -0.12)">
       <use xlink:href="#SimHei-33"/>
      </g>
     </g>
    </g>
    <g id="ytick_4">
     <g id="line2d_25">
      <path d="M 38.0125 114.534138 
L 664.4125 114.534138 
" clip-path="url(#pcbc27c8ffa)" style="fill: none; stroke-dasharray: 2.22,0.96; stroke-dashoffset: 0; stroke: #b0b0b0; stroke-opacity: 0.25; stroke-width: 0.6"/>
     </g>
     <g id="line2d_26">
      <g>
       <use xlink:href="#ma662dcfa82" x="38.0125" y="114.534138" style="stroke: #000000; stroke-width: 0.8"/>
      </g>
     </g>
     <g id="text_14">
      <!-- 4 -->
      <g transform="translate(25.0125 118.659138) scale(0.12 -0.12)">
       <use xlink:href="#SimHei-34"/>
      </g>
     </g>
    </g>
    <g id="ytick_5">
     <g id="line2d_27">
      <path d="M 38.0125 46.958284 
L 664.4125 46.958284 
" clip-path="url(#pcbc27c8ffa)" style="fill: none; stroke-dasharray: 2.22,0.96; stroke-dashoffset: 0; stroke: #b0b0b0; stroke-opacity: 0.25; stroke-width: 0.6"/>
     </g>
     <g id="line2d_28">
      <g>
       <use xlink:href="#ma662dcfa82" x="38.0125" y="46.958284" style="stroke: #000000; stroke-width: 0.8"/>
      </g>
     </g>
     <g id="text_15">
      <!-- 5 -->
      <g transform="translate(25.0125 51.083284) scale(0.12 -0.12)">
       <use xlink:href="#SimHei-35"/>
      </g>
     </g>
    </g>
    <g id="text_16">
     <!-- Total Task Energy -->
     <g transform="translate(18.8875 264.4336) rotate(-90) scale(0.17 -0.17)">
      <defs>
       <path id="SimHei-54" d="M 2850 3925 
L 1850 3925 
L 1850 125 
L 1275 125 
L 1275 3925 
L 275 3925 
L 275 4400 
L 2850 4400 
L 2850 3925 
z
" transform="scale(0.015625)"/>
       <path id="SimHei-74" d="M 2750 200 
Q 2625 150 2462 112 
Q 2300 75 2025 75 
Q 1575 75 1300 325 
Q 1025 575 1025 1025 
L 1025 2525 
L 175 2525 
L 175 2925 
L 1025 2925 
L 1025 3900 
L 1525 3900 
L 1525 2925 
L 2550 2925 
L 2550 2525 
L 1525 2525 
L 1525 1000 
Q 1525 800 1625 662 
Q 1725 525 2000 525 
Q 2275 525 2450 575 
Q 2625 625 2750 700 
L 2750 200 
z
" transform="scale(0.015625)"/>
       <path id="SimHei-61" d="M 2875 125 
L 2275 125 
Q 2225 175 2200 262 
Q 2175 350 2175 475 
Q 2000 275 1750 175 
Q 1500 75 1225 75 
Q 825 75 550 275 
Q 275 475 275 850 
Q 275 1225 525 1450 
Q 775 1675 1300 1750 
Q 1650 1800 1912 1875 
Q 2175 1950 2175 2075 
Q 2175 2225 2062 2375 
Q 1950 2525 1575 2525 
Q 1275 2525 1137 2412 
Q 1000 2300 950 2100 
L 400 2100 
Q 450 2500 762 2737 
Q 1075 2975 1575 2975 
Q 2125 2975 2400 2725 
Q 2675 2475 2675 2025 
L 2675 650 
Q 2675 500 2725 375 
Q 2775 250 2875 125 
z
M 2175 1050 
L 2175 1550 
Q 2025 1500 1887 1462 
Q 1750 1425 1425 1375 
Q 1050 1325 937 1200 
Q 825 1075 825 900 
Q 825 750 937 637 
Q 1050 525 1275 525 
Q 1500 525 1762 650 
Q 2025 775 2175 1050 
z
" transform="scale(0.015625)"/>
       <path id="SimHei-6c" d="M 1825 125 
L 1325 125 
L 1325 4400 
L 1825 4400 
L 1825 125 
z
" transform="scale(0.015625)"/>
       <path id="SimHei-20" transform="scale(0.015625)"/>
       <path id="SimHei-6b" d="M 2925 125 
L 2350 125 
L 1450 1650 
L 875 1100 
L 875 125 
L 375 125 
L 375 4400 
L 875 4400 
L 875 1675 
L 2125 2925 
L 2750 2925 
L 1775 1975 
L 2925 125 
z
" transform="scale(0.015625)"/>
       <path id="SimHei-6e" d="M 2800 125 
L 2300 125 
L 2300 1925 
Q 2300 2225 2150 2400 
Q 2000 2575 1750 2575 
Q 1425 2575 1137 2237 
Q 850 1900 850 1400 
L 850 125 
L 350 125 
L 350 2925 
L 850 2925 
L 850 2400 
Q 1050 2675 1287 2825 
Q 1525 2975 1900 2975 
Q 2350 2975 2575 2725 
Q 2800 2475 2800 2100 
L 2800 125 
z
" transform="scale(0.015625)"/>
       <path id="SimHei-72" d="M 2500 2425 
Q 2025 2500 1700 2287 
Q 1375 2075 1150 1550 
L 1150 125 
L 650 125 
L 650 2925 
L 1150 2925 
L 1150 2200 
Q 1375 2600 1712 2787 
Q 2050 2975 2500 2975 
L 2500 2425 
z
" transform="scale(0.015625)"/>
       <path id="SimHei-67" d="M 2975 2500 
Q 2800 2550 2637 2562 
Q 2475 2575 2300 2525 
Q 2375 2450 2425 2337 
Q 2475 2225 2475 2000 
Q 2475 1575 2187 1300 
Q 1900 1025 1475 1025 
Q 1375 1025 1212 1062 
Q 1050 1100 950 1150 
Q 875 1100 850 1050 
Q 825 1000 825 925 
Q 825 800 1000 737 
Q 1175 675 1625 675 
Q 2350 675 2612 475 
Q 2875 275 2875 -25 
Q 2875 -425 2487 -612 
Q 2100 -800 1575 -800 
Q 900 -800 575 -625 
Q 250 -450 250 -150 
Q 250 0 375 150 
Q 500 300 700 400 
Q 550 475 462 587 
Q 375 700 375 875 
Q 375 1025 487 1137 
Q 600 1250 750 1325 
Q 625 1450 550 1625 
Q 475 1800 475 2000 
Q 475 2425 762 2700 
Q 1050 2975 1475 2975 
Q 1700 2975 1862 2912 
Q 2025 2850 2150 2725 
Q 2350 2875 2550 2937 
Q 2750 3000 2975 2975 
L 2975 2500 
z
M 1975 2000 
Q 1975 2250 1850 2400 
Q 1725 2550 1475 2550 
Q 1225 2550 1100 2400 
Q 975 2250 975 2000 
Q 975 1750 1100 1600 
Q 1225 1450 1475 1450 
Q 1725 1450 1850 1600 
Q 1975 1750 1975 2000 
z
M 2400 -75 
Q 2400 25 2287 125 
Q 2175 225 1725 225 
Q 1625 225 1450 237 
Q 1275 250 1050 275 
Q 850 200 775 100 
Q 700 0 700 -100 
Q 700 -250 900 -350 
Q 1100 -450 1600 -450 
Q 2025 -450 2212 -337 
Q 2400 -225 2400 -75 
z
" transform="scale(0.015625)"/>
       <path id="SimHei-79" d="M 2900 2925 
L 1750 -100 
Q 1650 -450 1450 -625 
Q 1250 -800 950 -800 
Q 825 -800 712 -787 
Q 600 -775 500 -725 
L 500 -225 
Q 600 -275 700 -300 
Q 800 -325 875 -325 
Q 1075 -325 1150 -262 
Q 1225 -200 1300 25 
L 200 2925 
L 750 2925 
L 1550 725 
L 1575 725 
L 2350 2925 
L 2900 2925 
z
" transform="scale(0.015625)"/>
      </defs>
      <use xlink:href="#SimHei-54"/>
      <use xlink:href="#SimHei-6f" transform="translate(50 0)"/>
      <use xlink:href="#SimHei-74" transform="translate(100 0)"/>
      <use xlink:href="#SimHei-61" transform="translate(150 0)"/>
      <use xlink:href="#SimHei-6c" transform="translate(200 0)"/>
      <use xlink:href="#SimHei-20" transform="translate(250 0)"/>
      <use xlink:href="#SimHei-54" transform="translate(300 0)"/>
      <use xlink:href="#SimHei-61" transform="translate(350 0)"/>
      <use xlink:href="#SimHei-73" transform="translate(400 0)"/>
      <use xlink:href="#SimHei-6b" transform="translate(450 0)"/>
      <use xlink:href="#SimHei-20" transform="translate(500 0)"/>
      <use xlink:href="#SimHei-45" transform="translate(550 0)"/>
      <use xlink:href="#SimHei-6e" transform="translate(600 0)"/>
      <use xlink:href="#SimHei-65" transform="translate(650 0)"/>
      <use xlink:href="#SimHei-72" transform="translate(700 0)"/>
      <use xlink:href="#SimHei-67" transform="translate(750 0)"/>
      <use xlink:href="#SimHei-79" transform="translate(800 0)"/>
     </g>
    </g>
   </g>
   <g id="line2d_29">
    <path d="M 66.485227 299.715486 
L 67.912432 287.203513 
L 69.339636 279.942087 
L 70.76684 275.181986 
L 72.194045 270.810236 
L 73.621249 262.629472 
L 75.048454 239.015339 
L 76.475658 234.269858 
L 77.902862 225.612288 
L 79.330067 214.321982 
L 80.757271 212.694788 
L 82.184475 190.135587 
L 83.61168 178.370737 
L 85.038884 176.478273 
L 86.466089 172.843434 
L 87.893293 178.569475 
L 89.320497 170.267993 
L 90.747702 165.74853 
L 92.174906 166.599651 
L 93.60211 166.107622 
L 95.029315 158.986755 
L 96.456519 158.983899 
L 97.883724 157.91997 
L 99.310928 163.897092 
L 100.738132 162.112793 
L 102.165337 161.949327 
L 103.592541 162.482664 
L 106.44695 139.341245 
L 109.301359 128.518995 
L 110.728563 129.829338 
L 112.155767 129.789105 
L 113.582972 132.63471 
L 115.010176 139.337323 
L 116.43738 135.04726 
L 117.864585 134.837579 
L 119.291789 134.052167 
L 120.718994 128.9083 
L 122.146198 125.335418 
L 125.000607 106.977787 
L 126.427811 98.418708 
L 127.855015 104.709996 
L 129.28222 102.697819 
L 130.709424 107.814736 
L 132.136629 81.741095 
L 133.563833 85.804723 
L 134.991037 91.084074 
L 136.418242 92.405304 
L 137.845446 100.905999 
L 139.27265 82.086896 
L 140.699855 85.473797 
L 142.127059 74.540198 
L 143.554263 75.136891 
L 144.981468 71.128788 
L 146.408672 72.269929 
L 147.835877 74.904164 
L 149.263081 74.528603 
L 150.690285 71.129335 
L 152.11749 63.301286 
L 153.544694 64.098905 
L 154.971898 71.484983 
L 156.399103 73.184145 
L 157.826307 76.581505 
L 159.253512 81.229362 
L 160.680716 89.484467 
L 163.535125 99.671099 
L 164.962329 88.06183 
L 166.389533 90.91863 
L 167.816738 90.618468 
L 169.243942 87.978455 
L 170.671147 76.262184 
L 172.098351 78.434669 
L 173.525555 82.058198 
L 174.95276 61.317861 
L 176.379964 68.702111 
L 177.807168 69.311265 
L 179.234373 67.694168 
L 180.661577 75.551553 
L 182.088782 67.781423 
L 183.515986 60.817326 
L 184.94319 67.396116 
L 186.370395 72.289277 
L 187.797599 75.767539 
L 189.224803 73.187918 
L 190.652008 70.92116 
L 192.079212 67.256649 
L 193.506417 73.992086 
L 194.933621 67.512369 
L 196.360825 74.304075 
L 197.78803 74.834483 
L 199.215234 76.959642 
L 200.642438 72.321109 
L 202.069643 69.887004 
L 203.496847 77.51377 
L 204.924052 76.470851 
L 206.351256 76.799652 
L 207.77846 70.074593 
L 209.205665 72.561833 
L 210.632869 61.969267 
L 212.060073 66.007253 
L 213.487278 57.893866 
L 216.341687 62.954885 
L 217.768891 56.272727 
L 219.196095 53.013908 
L 220.6233 55.243049 
L 222.050504 57.914009 
L 223.477708 54.828017 
L 224.904913 65.570389 
L 226.332117 65.728172 
L 227.759322 67.790343 
L 229.186526 75.345972 
L 230.61373 79.707678 
L 232.040935 80.050986 
L 233.468139 60.390756 
L 234.895343 55.863414 
L 236.322548 58.107674 
L 237.749752 63.141468 
L 239.176957 76.703446 
L 240.604161 70.327359 
L 242.031365 67.170422 
L 243.45857 61.368463 
L 244.885774 58.0113 
L 246.312978 58.995022 
L 247.740183 48.838145 
L 249.167387 50.940863 
L 250.594592 54.488659 
L 252.021796 53.82402 
L 253.449 65.308634 
L 254.876205 68.53307 
L 256.303409 54.025431 
L 257.730613 52.084486 
L 259.157818 54.332678 
L 260.585022 65.119418 
L 262.012227 68.793043 
L 263.439431 77.984475 
L 264.866635 74.662761 
L 266.29384 70.894913 
L 267.721044 74.714543 
L 269.148248 85.208513 
L 270.575453 91.067954 
L 272.002657 97.648187 
L 273.429862 78.373501 
L 274.857066 81.728881 
L 276.28427 79.187931 
L 277.711475 84.475712 
L 279.138679 57.151848 
L 280.565883 65.095187 
L 281.993088 61.447347 
L 283.420292 67.932856 
L 286.274701 77.382452 
L 287.701905 79.489564 
L 289.12911 90.536905 
L 290.556314 95.088777 
L 291.983518 86.775466 
L 293.410723 97.985952 
L 294.837927 96.528636 
L 296.265132 100.973744 
L 297.692336 106.875682 
L 299.11954 104.420997 
L 300.546745 112.216925 
L 303.401153 125.266939 
L 304.828358 131.737566 
L 306.255562 137.263239 
L 307.682767 144.964495 
L 309.109971 144.753965 
L 310.537175 143.103728 
L 311.96438 150.767807 
L 313.391584 153.680287 
L 314.818788 154.967116 
L 316.245993 145.876443 
L 317.673197 152.026701 
L 320.527606 159.754608 
L 321.95481 156.239774 
L 323.382015 147.707598 
L 324.809219 155.2114 
L 326.236423 157.980735 
L 327.663628 164.014907 
L 329.090832 166.003405 
L 330.518037 164.873916 
L 331.945241 158.753847 
L 333.372445 160.845977 
L 334.79965 166.377926 
L 336.226854 155.617838 
L 337.654058 143.425199 
L 339.081263 145.00098 
L 340.508467 151.501278 
L 341.935672 157.369394 
L 343.362876 151.701345 
L 344.79008 156.995985 
L 346.217285 159.162145 
L 347.644489 163.294983 
L 349.071693 164.860509 
L 350.498898 165.295643 
L 351.926102 169.840149 
L 353.353307 167.823635 
L 354.780511 173.355689 
L 356.207715 180.455527 
L 357.63492 184.625352 
L 360.489328 191.560202 
L 361.916533 193.567666 
L 363.343737 193.711754 
L 364.770942 197.815615 
L 366.198146 198.950637 
L 369.052555 211.865479 
L 370.479759 212.645687 
L 371.906963 211.342222 
L 373.334168 204.033903 
L 374.761372 207.865664 
L 376.188577 208.424849 
L 377.615781 208.622098 
L 379.042985 209.542497 
L 380.47019 207.23703 
L 381.897394 212.040104 
L 383.324598 211.282964 
L 384.751803 215.694653 
L 386.179007 215.998277 
L 387.606212 215.532917 
L 389.033416 219.554904 
L 390.46062 216.799689 
L 391.887825 215.110594 
L 394.742233 219.990489 
L 396.169438 223.122178 
L 399.023847 223.129059 
L 400.451051 224.950977 
L 401.878255 229.726314 
L 403.30546 231.384692 
L 404.732664 235.519233 
L 406.159868 231.46684 
L 407.587073 211.10568 
L 409.014277 216.781186 
L 410.441482 215.308935 
L 411.868686 219.455919 
L 413.29589 216.926536 
L 414.723095 216.23596 
L 416.150299 216.780948 
L 417.577503 222.448255 
L 419.004708 222.971997 
L 420.431912 220.284177 
L 421.859117 225.630097 
L 423.286321 222.519783 
L 424.713525 225.871269 
L 426.14073 230.436098 
L 427.567934 221.340647 
L 428.995138 224.556661 
L 430.422343 219.138118 
L 431.849547 219.206516 
L 433.276752 224.102893 
L 434.703956 227.072218 
L 436.13116 227.950364 
L 437.558365 224.722918 
L 438.985569 226.7097 
L 440.412773 230.883646 
L 441.839978 231.391458 
L 443.267182 235.254206 
L 444.694387 234.25232 
L 446.121591 232.775893 
L 447.548795 230.941778 
L 448.976 228.329614 
L 450.403204 230.876765 
L 451.830408 234.922431 
L 453.257613 228.732146 
L 454.684817 230.622441 
L 456.112022 231.670087 
L 457.539226 231.728969 
L 458.96643 231.916994 
L 460.393635 229.873318 
L 461.820839 225.80569 
L 463.248043 229.385803 
L 464.675248 229.896699 
L 466.102452 231.639009 
L 467.529657 230.952609 
L 468.956861 231.733222 
L 470.384065 229.661635 
L 471.81127 221.705732 
L 473.238474 216.407926 
L 474.665678 219.70402 
L 476.092883 214.026617 
L 477.520087 210.87626 
L 478.947292 216.545063 
L 480.374496 218.241896 
L 481.8017 219.671602 
L 483.228905 213.862692 
L 484.656109 198.650923 
L 486.083313 201.945802 
L 487.510518 201.954356 
L 488.937722 200.301831 
L 491.792131 208.274601 
L 493.219335 214.372809 
L 494.64654 213.435704 
L 496.073744 219.142459 
L 497.500948 221.784497 
L 498.928153 219.6041 
L 500.355357 215.923057 
L 501.782562 216.609469 
L 503.209766 215.330466 
L 504.63697 217.274143 
L 506.064175 219.66144 
L 507.491379 217.817671 
L 508.918583 223.508278 
L 510.345788 214.769271 
L 511.772992 212.707974 
L 513.200197 215.399908 
L 514.627401 210.588906 
L 516.054605 208.091572 
L 517.48181 212.410297 
L 518.909014 212.64617 
L 520.336218 215.806883 
L 521.763423 216.991412 
L 523.190627 208.743122 
L 524.617832 214.943263 
L 526.045036 212.637205 
L 527.47224 214.506789 
L 528.899445 217.427753 
L 530.326649 222.004009 
L 531.753853 219.80518 
L 533.181058 211.833432 
L 534.608262 217.075376 
L 536.035467 218.447095 
L 537.462671 220.338385 
L 538.889875 221.870345 
L 540.31708 224.838514 
L 541.744284 215.744622 
L 543.171488 203.789093 
L 544.598693 203.3321 
L 546.025897 207.903703 
L 547.453102 208.239383 
L 548.880306 212.208424 
L 550.30751 217.327734 
L 551.734715 220.385322 
L 553.161919 225.746012 
L 554.589123 222.080777 
L 556.016328 219.560761 
L 557.443532 213.329155 
L 558.870737 218.246055 
L 560.297941 216.906912 
L 563.15235 220.795387 
L 564.579554 226.05366 
L 566.006758 221.465021 
L 567.433963 222.105213 
L 568.861167 221.185056 
L 570.288371 215.606282 
L 571.715576 219.531329 
L 573.14278 222.03126 
L 574.569985 227.323572 
L 575.997189 228.372106 
L 578.851598 233.974821 
L 580.278802 230.289026 
L 581.706006 235.196632 
L 583.133211 238.167327 
L 584.560415 239.303904 
L 585.98762 234.676904 
L 587.414824 238.579041 
L 588.842028 240.229727 
L 590.269233 244.064604 
L 591.696437 248.238371 
L 593.123641 251.184887 
L 594.550846 253.864388 
L 595.97805 252.709357 
L 597.405255 254.154036 
L 598.832459 252.655444 
L 600.259663 250.078057 
L 601.686868 251.635007 
L 603.114072 244.004578 
L 604.541276 245.34983 
L 605.968481 237.130084 
L 607.395685 236.0064 
L 608.82289 235.102184 
L 610.250094 230.901233 
L 611.677298 222.179448 
L 613.104503 227.360568 
L 614.531707 227.011127 
L 615.958911 223.004962 
L 617.386116 214.442876 
L 618.81332 216.787328 
L 620.240525 213.984038 
L 621.667729 218.741969 
L 623.094933 220.009305 
L 624.522138 219.436327 
L 625.949342 222.890759 
L 628.803751 233.423129 
L 630.230955 234.724092 
L 631.65816 231.484672 
L 633.085364 235.731006 
L 634.512568 239.346738 
L 634.512568 239.346738 
" clip-path="url(#pcbc27c8ffa)" style="fill: none; stroke: #1f77b4; stroke-width: 1.2; stroke-linecap: square"/>
   </g>
   <g id="line2d_30">
    <path d="M 66.485227 283.894064 
L 67.912432 281.417739 
L 69.339636 279.767009 
L 70.76684 279.354149 
L 72.194045 274.369877 
L 73.621249 267.345696 
L 75.048454 261.117178 
L 76.475658 257.33163 
L 77.902862 257.564073 
L 79.330067 256.661238 
L 80.757271 254.313177 
L 83.61168 241.320274 
L 85.038884 238.49213 
L 86.466089 233.151109 
L 87.893293 233.635831 
L 89.320497 234.296697 
L 90.747702 234.546629 
L 92.174906 227.316637 
L 93.60211 221.414725 
L 95.029315 222.199197 
L 96.456519 224.632256 
L 97.883724 223.403503 
L 99.310928 225.520815 
L 100.738132 224.356763 
L 102.165337 217.064554 
L 103.592541 211.945571 
L 105.019745 207.436627 
L 106.44695 210.743897 
L 109.301359 209.287539 
L 110.728563 209.701851 
L 112.155767 214.714169 
L 113.582972 215.893018 
L 115.010176 213.876841 
L 116.43738 210.650148 
L 117.864585 197.609351 
L 119.291789 197.645299 
L 120.718994 201.695246 
L 122.146198 198.179724 
L 123.573402 201.17335 
L 125.000607 202.653292 
L 126.427811 205.957431 
L 127.855015 204.135393 
L 129.28222 197.031944 
L 130.709424 190.99278 
L 132.136629 188.825525 
L 133.563833 193.71099 
L 134.991037 199.141574 
L 136.418242 194.335139 
L 137.845446 199.182052 
L 139.27265 194.805313 
L 140.699855 200.089613 
L 142.127059 202.083565 
L 143.554263 206.816233 
L 144.981468 203.980829 
L 146.408672 198.138206 
L 147.835877 199.66582 
L 149.263081 201.963188 
L 150.690285 197.168495 
L 152.11749 203.510069 
L 153.544694 205.21659 
L 154.971898 203.722044 
L 156.399103 205.032811 
L 157.826307 209.368874 
L 159.253512 210.275783 
L 160.680716 213.836209 
L 162.10792 219.196124 
L 163.535125 223.79161 
L 164.962329 226.611625 
L 166.389533 231.655901 
L 167.816738 230.23482 
L 169.243942 231.431583 
L 170.671147 231.780003 
L 172.098351 230.485549 
L 173.525555 231.864727 
L 174.95276 230.817192 
L 176.379964 234.056601 
L 177.807168 234.54756 
L 179.234373 238.614352 
L 180.661577 235.460727 
L 182.088782 239.342342 
L 183.515986 242.110062 
L 184.94319 243.472649 
L 186.370395 245.826999 
L 187.797599 233.787039 
L 189.224803 232.594069 
L 190.652008 229.030291 
L 192.079212 227.347678 
L 193.506417 229.924966 
L 194.933621 228.328327 
L 196.360825 232.908623 
L 197.78803 234.079712 
L 199.215234 232.297095 
L 200.642438 235.228782 
L 203.496847 242.89912 
L 204.924052 242.135837 
L 206.351256 243.714493 
L 207.77846 243.438799 
L 209.205665 247.546216 
L 210.632869 249.838892 
L 212.060073 252.970359 
L 213.487278 254.194141 
L 214.914482 248.717623 
L 216.341687 247.274103 
L 217.768891 249.033845 
L 219.196095 249.252079 
L 220.6233 248.087919 
L 222.050504 252.255603 
L 223.477708 254.321236 
L 224.904913 255.244983 
L 226.332117 257.257068 
L 227.759322 259.51488 
L 229.186526 262.493943 
L 230.61373 263.77126 
L 232.040935 262.758136 
L 234.895343 266.088649 
L 236.322548 269.557064 
L 237.749752 272.360251 
L 239.176957 271.450145 
L 240.604161 272.18347 
L 242.031365 274.571767 
L 243.45857 274.415357 
L 244.885774 277.02095 
L 246.312978 276.819069 
L 247.740183 279.078 
L 250.594592 284.013948 
L 252.021796 286.178145 
L 253.449 286.341063 
L 254.876205 288.529212 
L 256.303409 285.737928 
L 257.730613 286.483969 
L 259.157818 287.586672 
L 260.585022 289.081967 
L 262.012227 289.856791 
L 263.439431 291.217313 
L 264.866635 293.265622 
L 266.29384 293.905921 
L 267.721044 293.179096 
L 269.148248 293.25383 
L 270.575453 295.1888 
L 273.429862 298.283925 
L 274.857066 299.714137 
L 276.28427 299.815525 
L 277.711475 295.099087 
L 279.138679 296.772806 
L 280.565883 298.01087 
L 281.993088 291.776734 
L 283.420292 291.959746 
L 284.847497 293.908569 
L 286.274701 292.540092 
L 287.701905 293.806012 
L 289.12911 294.208018 
L 290.556314 296.242561 
L 291.983518 297.988313 
L 293.410723 289.358246 
L 294.837927 288.291706 
L 299.11954 294.694909 
L 300.546745 293.478649 
L 301.973949 295.411454 
L 303.401153 295.162838 
L 304.828358 297.249934 
L 306.255562 298.756781 
L 307.682767 299.576082 
L 309.109971 301.178583 
L 310.537175 300.909968 
L 311.96438 296.210102 
L 313.391584 297.779967 
L 314.818788 297.10202 
L 316.245993 297.942348 
L 317.673197 290.278404 
L 319.100402 292.407696 
L 320.527606 291.351432 
L 321.95481 291.595785 
L 323.382015 293.728496 
L 324.809219 295.536013 
L 326.236423 295.52039 
L 329.090832 298.203693 
L 330.518037 296.09003 
L 331.945241 297.355226 
L 333.372445 298.883408 
L 336.226854 302.216296 
L 337.654058 298.47956 
L 339.081263 297.361053 
L 340.508467 299.197405 
L 343.362876 301.420644 
L 344.79008 302.972978 
L 346.217285 304.836378 
L 347.644489 306.437903 
L 349.071693 306.460922 
L 353.353307 309.509659 
L 354.780511 310.841265 
L 356.207715 311.80648 
L 357.63492 312.603599 
L 359.062124 313.657325 
L 360.489328 314.436723 
L 361.916533 313.665716 
L 363.343737 314.664181 
L 366.198146 316.193661 
L 367.62535 316.548921 
L 369.052555 317.49897 
L 370.479759 316.905918 
L 371.906963 317.89173 
L 373.334168 318.529582 
L 374.761372 319.568975 
L 376.188577 316.123666 
L 377.615781 314.591747 
L 379.042985 315.748035 
L 380.47019 316.412348 
L 381.897394 317.469398 
L 383.324598 318.275425 
L 384.751803 315.929722 
L 386.179007 316.597553 
L 387.606212 313.715592 
L 389.033416 314.372778 
L 390.46062 315.433244 
L 391.887825 316.336967 
L 393.315029 317.021954 
L 394.742233 316.411294 
L 396.169438 317.273354 
L 397.596642 317.983612 
L 399.023847 318.892515 
L 401.878255 319.997348 
L 403.30546 317.546837 
L 404.732664 318.019603 
L 406.159868 316.616529 
L 407.587073 317.468851 
L 414.723095 320.951126 
L 419.004708 322.159974 
L 420.431912 322.602167 
L 421.859117 323.378073 
L 423.286321 323.900431 
L 424.713525 324.756956 
L 426.14073 324.041673 
L 427.567934 322.694863 
L 428.995138 323.158544 
L 430.422343 323.276099 
L 433.276752 324.548483 
L 436.13116 324.757877 
L 443.267182 326.929 
L 447.548795 327.823211 
L 448.976 326.130744 
L 450.403204 326.268546 
L 451.830408 326.718359 
L 453.257613 323.839754 
L 454.684817 323.995636 
L 456.112022 324.532203 
L 457.539226 324.750825 
L 461.820839 326.404442 
L 463.248043 326.401275 
L 464.675248 324.19304 
L 466.102452 324.623197 
L 468.956861 325.892847 
L 470.384065 325.103749 
L 471.81127 325.370844 
L 473.238474 322.288414 
L 474.665678 322.827485 
L 476.092883 319.021858 
L 477.520087 319.535629 
L 481.8017 321.862389 
L 483.228905 322.209459 
L 484.656109 322.871192 
L 486.083313 319.745677 
L 487.510518 320.357739 
L 488.937722 321.111935 
L 490.364927 321.533209 
L 491.792131 322.222818 
L 494.64654 323.103852 
L 496.073744 320.757089 
L 498.928153 321.552823 
L 500.355357 322.020652 
L 501.782562 322.894748 
L 503.209766 323.536816 
L 504.63697 323.919089 
L 506.064175 324.707527 
L 507.491379 325.34039 
L 508.918583 325.741943 
L 510.345788 326.329404 
L 513.200197 326.796486 
L 514.627401 327.006435 
L 517.48181 327.868795 
L 520.336218 328.536532 
L 521.763423 328.458638 
L 523.190627 328.493549 
L 524.617832 328.328646 
L 526.045036 328.363185 
L 527.47224 328.810081 
L 530.326649 329.382767 
L 531.753853 329.491872 
L 537.462671 330.426149 
L 538.889875 328.544247 
L 543.171488 329.294514 
L 546.025897 329.631451 
L 547.453102 329.657554 
L 551.734715 330.302487 
L 553.161919 330.311579 
L 554.589123 328.121991 
L 556.016328 328.578918 
L 557.443532 328.854872 
L 558.870737 329.380807 
L 560.297941 329.460199 
L 561.725145 329.772603 
L 563.15235 328.88392 
L 564.579554 329.220207 
L 566.006758 329.770472 
L 571.715576 330.417227 
L 573.14278 330.778143 
L 575.997189 330.869424 
L 578.851598 331.325596 
L 580.278802 331.179621 
L 584.560415 331.493469 
L 587.414824 332.002487 
L 588.842028 331.991871 
L 590.269233 332.146039 
L 591.696437 332.168156 
L 593.123641 332.312105 
L 594.550846 332.1903 
L 595.97805 332.30463 
L 597.405255 332.534633 
L 598.832459 332.602799 
L 600.259663 330.04915 
L 601.686868 330.377764 
L 603.114072 330.542922 
L 604.541276 330.936845 
L 605.968481 331.005438 
L 607.395685 331.246507 
L 608.82289 331.135214 
L 610.250094 326.432649 
L 613.104503 326.937109 
L 614.531707 323.43071 
L 615.958911 323.937628 
L 617.386116 322.770837 
L 618.81332 323.501102 
L 620.240525 324.099483 
L 621.667729 324.82706 
L 623.094933 325.243721 
L 624.522138 325.804989 
L 625.949342 325.949557 
L 628.803751 326.883134 
L 634.512568 328.442626 
L 634.512568 328.442626 
" clip-path="url(#pcbc27c8ffa)" style="fill: none; stroke: #ff7f0e; stroke-width: 1.2; stroke-linecap: square"/>
   </g>
   <g id="line2d_31">
    <path d="M 66.485227 261.566955 
L 67.912432 256.09341 
L 69.339636 254.15062 
L 70.76684 256.867937 
L 72.194045 255.9606 
L 73.621249 258.873102 
L 75.048454 258.397915 
L 76.475658 261.641058 
L 77.902862 255.564766 
L 79.330067 257.308789 
L 80.757271 260.029331 
L 83.61168 266.042077 
L 85.038884 268.656221 
L 87.893293 269.517007 
L 89.320497 272.014987 
L 90.747702 269.691188 
L 92.174906 268.150413 
L 93.60211 266.143514 
L 96.456519 271.199624 
L 97.883724 271.69168 
L 99.310928 271.500411 
L 100.738132 263.195391 
L 102.165337 261.938021 
L 103.592541 245.94332 
L 105.019745 227.394256 
L 106.44695 230.598405 
L 107.874154 216.803116 
L 109.301359 216.640199 
L 110.728563 205.762136 
L 112.155767 200.733007 
L 113.582972 193.208048 
L 115.010176 196.584039 
L 116.43738 194.110623 
L 117.864585 188.211009 
L 119.291789 185.081617 
L 120.718994 171.706809 
L 122.146198 167.617211 
L 123.573402 169.103786 
L 125.000607 168.636517 
L 126.427811 171.441471 
L 127.855015 163.89092 
L 129.28222 157.067192 
L 130.709424 163.512345 
L 132.136629 168.935129 
L 133.563833 166.327291 
L 134.991037 155.612288 
L 137.845446 152.242195 
L 139.27265 147.710762 
L 140.699855 151.854445 
L 142.127059 144.544502 
L 143.554263 147.377753 
L 144.981468 151.808708 
L 146.408672 152.9598 
L 147.835877 161.750413 
L 149.263081 167.193675 
L 150.690285 169.816396 
L 152.11749 172.909466 
L 153.544694 177.30799 
L 154.971898 178.512974 
L 156.399103 179.223734 
L 157.826307 178.646521 
L 159.253512 186.235163 
L 160.680716 188.078629 
L 162.10792 189.2785 
L 163.535125 194.364043 
L 164.962329 200.426081 
L 166.389533 204.950876 
L 169.243942 217.197094 
L 172.098351 228.898281 
L 174.95276 239.46526 
L 176.379964 244.158755 
L 182.088782 261.104415 
L 187.797599 274.804909 
L 192.079212 283.074529 
L 193.506417 285.673512 
L 194.933621 287.734733 
L 196.360825 290.125021 
L 199.215234 293.980297 
L 200.642438 296.014483 
L 203.496847 299.486973 
L 210.632869 307.872547 
L 213.487278 310.490954 
L 220.6233 316.19454 
L 222.050504 316.86064 
L 223.477708 317.862493 
L 224.904913 318.529762 
L 226.332117 319.425043 
L 227.759322 320.162607 
L 229.186526 320.7111 
L 230.61373 321.417179 
L 233.468139 322.598966 
L 234.895343 323.366602 
L 236.322548 323.793333 
L 237.749752 324.347067 
L 240.604161 325.233533 
L 242.031365 325.844173 
L 243.45857 326.188279 
L 244.885774 326.972375 
L 246.312978 327.20986 
L 249.167387 328.178601 
L 250.594592 328.445209 
L 252.021796 328.395152 
L 256.303409 329.739852 
L 257.730613 329.869649 
L 260.585022 330.521619 
L 263.439431 330.917077 
L 264.866635 331.000687 
L 269.148248 331.673197 
L 270.575453 331.755516 
L 272.002657 331.711222 
L 273.429862 331.864376 
L 274.857066 332.285327 
L 276.28427 332.561651 
L 279.138679 332.709786 
L 286.274701 333.477478 
L 287.701905 333.449421 
L 289.12911 333.663055 
L 290.556314 333.590532 
L 291.983518 333.355877 
L 293.410723 333.380047 
L 294.837927 333.520692 
L 296.265132 333.111457 
L 299.11954 333.501006 
L 300.546745 333.495665 
L 301.973949 333.726909 
L 303.401153 333.821362 
L 304.828358 333.692105 
L 311.96438 334.492762 
L 313.391584 334.499811 
L 314.818788 334.783946 
L 316.245993 334.634405 
L 317.673197 334.654013 
L 319.100402 334.807627 
L 323.382015 334.935814 
L 324.809219 335.053569 
L 326.236423 334.862758 
L 327.663628 335.027066 
L 329.090832 334.810415 
L 330.518037 334.764913 
L 333.372445 335.01136 
L 337.654058 335.014762 
L 340.508467 334.54653 
L 347.644489 334.472012 
L 349.071693 334.28134 
L 353.353307 334.182075 
L 356.207715 334.54884 
L 357.63492 334.457505 
L 359.062124 334.486655 
L 361.916533 334.833671 
L 366.198146 335.090795 
L 367.62535 335.173316 
L 369.052555 334.974389 
L 370.479759 334.960409 
L 371.906963 334.708506 
L 373.334168 334.919803 
L 377.615781 334.619564 
L 379.042985 334.896546 
L 380.47019 334.590129 
L 381.897394 334.658582 
L 384.751803 334.561804 
L 386.179007 333.942307 
L 387.606212 334.087996 
L 396.169438 334.005708 
L 397.596642 334.215194 
L 399.023847 334.576748 
L 400.451051 334.64713 
L 403.30546 334.408867 
L 406.159868 334.646687 
L 407.587073 334.460852 
L 411.868686 334.4141 
L 413.29589 334.285382 
L 416.150299 334.435122 
L 417.577503 334.539433 
L 420.431912 334.54099 
L 424.713525 334.742213 
L 426.14073 334.965726 
L 428.995138 334.992936 
L 430.422343 335.258457 
L 434.703956 335.056437 
L 436.13116 334.815601 
L 437.558365 334.693477 
L 441.839978 333.713915 
L 443.267182 333.815531 
L 444.694387 333.744715 
L 447.548795 334.136425 
L 453.257613 334.774611 
L 454.684817 334.382399 
L 461.820839 333.983871 
L 463.248043 334.091685 
L 466.102452 334.163145 
L 467.529657 334.198123 
L 468.956861 334.114027 
L 471.81127 334.26235 
L 473.238474 334.110943 
L 474.665678 334.178643 
L 476.092883 333.966436 
L 480.374496 333.695502 
L 481.8017 333.421995 
L 483.228905 333.654713 
L 486.083313 333.851918 
L 487.510518 334.022927 
L 488.937722 333.982013 
L 490.364927 333.684589 
L 491.792131 333.622212 
L 493.219335 333.717156 
L 494.64654 334.175046 
L 496.073744 333.975023 
L 500.355357 334.353895 
L 501.782562 334.630099 
L 504.63697 334.03757 
L 506.064175 334.272384 
L 508.918583 333.743805 
L 510.345788 333.733216 
L 511.772992 333.930304 
L 516.054605 334.074047 
L 518.909014 334.094435 
L 527.47224 334.722264 
L 528.899445 334.733379 
L 530.326649 334.601737 
L 533.181058 334.725498 
L 540.31708 334.391693 
L 541.744284 334.19803 
L 544.598693 334.16635 
L 546.025897 334.361239 
L 547.453102 334.373527 
L 551.734715 334.772815 
L 553.161919 334.585875 
L 554.589123 334.671572 
L 556.016328 334.505674 
L 557.443532 334.136835 
L 558.870737 334.286987 
L 560.297941 334.139212 
L 563.15235 334.106404 
L 566.006758 334.295354 
L 567.433963 334.173583 
L 570.288371 334.51069 
L 571.715576 334.410663 
L 573.14278 334.560108 
L 575.997189 334.194836 
L 578.851598 334.201595 
L 580.278802 334.048869 
L 581.706006 334.03206 
L 583.133211 334.15552 
L 585.98762 334.617133 
L 587.414824 334.387633 
L 588.842028 334.561049 
L 590.269233 334.520291 
L 591.696437 334.673732 
L 593.123641 334.701826 
L 595.97805 335.067426 
L 598.832459 334.956885 
L 600.259663 334.932991 
L 601.686868 335.198634 
L 603.114072 335.164273 
L 605.968481 334.580263 
L 610.250094 334.834752 
L 615.958911 334.619414 
L 621.667729 334.790135 
L 623.094933 334.870053 
L 624.522138 334.761129 
L 627.376546 335.114293 
L 633.085364 335.368004 
L 634.512568 335.529055 
L 635.939773 335.384554 
L 635.939773 335.384554 
" clip-path="url(#pcbc27c8ffa)" style="fill: none; stroke: #2ca02c; stroke-width: 1.2; stroke-linecap: square"/>
   </g>
   <g id="line2d_32">
    <path d="M 66.485227 206.106695 
L 67.912432 191.975873 
L 69.339636 194.062741 
L 70.76684 186.764572 
L 72.194045 174.593202 
L 73.621249 174.714646 
L 75.048454 174.673669 
L 76.475658 167.586475 
L 77.902862 157.914776 
L 79.330067 156.107689 
L 80.757271 144.606204 
L 82.184475 149.867398 
L 83.61168 156.777525 
L 85.038884 148.853993 
L 86.466089 142.469536 
L 87.893293 146.701627 
L 89.320497 147.667834 
L 90.747702 138.428422 
L 92.174906 134.232925 
L 93.60211 129.045408 
L 95.029315 131.353179 
L 96.456519 134.765846 
L 97.883724 137.378627 
L 99.310928 140.26225 
L 100.738132 145.091915 
L 103.592541 159.509823 
L 105.019745 144.867388 
L 106.44695 142.697956 
L 107.874154 142.922814 
L 109.301359 145.528284 
L 110.728563 147.206694 
L 112.155767 153.534693 
L 113.582972 151.028399 
L 115.010176 154.124341 
L 116.43738 143.626186 
L 117.864585 140.26427 
L 119.291789 145.702212 
L 120.718994 155.308631 
L 123.573402 172.691518 
L 126.427811 188.313564 
L 132.136629 215.247784 
L 134.991037 226.819526 
L 136.418242 230.935073 
L 137.845446 236.06334 
L 143.554263 254.543462 
L 147.835877 265.73893 
L 150.690285 272.620853 
L 154.971898 281.255923 
L 160.680716 290.91202 
L 162.10792 293.124406 
L 169.243942 302.004711 
L 177.807168 310.29908 
L 180.661577 312.814025 
L 182.088782 313.531576 
L 186.370395 316.419334 
L 190.652008 319.077228 
L 193.506417 320.591651 
L 194.933621 321.429318 
L 196.360825 321.717046 
L 197.78803 322.217371 
L 200.642438 323.4462 
L 203.496847 324.537313 
L 204.924052 325.307711 
L 206.351256 325.603777 
L 209.205665 326.813756 
L 210.632869 326.906817 
L 212.060073 327.223762 
L 213.487278 327.671294 
L 214.914482 326.519701 
L 216.341687 327.005652 
L 217.768891 327.19284 
L 219.196095 327.53254 
L 220.6233 327.523985 
L 222.050504 327.664163 
L 223.477708 328.194948 
L 226.332117 328.338498 
L 230.61373 329.032451 
L 232.040935 329.226144 
L 236.322548 330.122107 
L 237.749752 330.199798 
L 239.176957 330.531593 
L 242.031365 330.868889 
L 246.312978 330.969367 
L 247.740183 327.183689 
L 249.167387 327.493592 
L 250.594592 328.149326 
L 252.021796 328.555002 
L 256.303409 329.087973 
L 257.730613 329.445632 
L 259.157818 330.013342 
L 263.439431 330.725656 
L 266.29384 331.168289 
L 267.721044 331.013987 
L 269.148248 330.97178 
L 270.575453 331.385478 
L 276.28427 332.158226 
L 277.711475 330.603734 
L 279.138679 330.978755 
L 280.565883 331.066668 
L 281.993088 331.451988 
L 283.420292 331.715776 
L 287.701905 331.896981 
L 291.983518 331.748375 
L 293.410723 331.636546 
L 294.837927 332.053445 
L 296.265132 332.068406 
L 299.11954 332.721486 
L 300.546745 332.647346 
L 301.973949 332.87119 
L 303.401153 332.806753 
L 306.255562 333.12574 
L 307.682767 332.898719 
L 309.109971 332.992003 
L 310.537175 330.825378 
L 313.391584 331.143858 
L 314.818788 330.195858 
L 316.245993 330.436083 
L 317.673197 330.417196 
L 319.100402 330.684497 
L 320.527606 330.757694 
L 321.95481 331.199115 
L 326.236423 331.924762 
L 327.663628 331.854563 
L 330.518037 332.362988 
L 331.945241 332.289427 
L 333.372445 332.442577 
L 334.79965 332.777398 
L 336.226854 332.978888 
L 337.654058 333.029695 
L 339.081263 332.693896 
L 340.508467 332.959786 
L 343.362876 333.151459 
L 344.79008 332.946512 
L 347.644489 333.287813 
L 350.498898 333.120645 
L 351.926102 333.279383 
L 353.353307 333.187258 
L 356.207715 333.466057 
L 357.63492 331.792361 
L 359.062124 331.75322 
L 360.489328 329.149266 
L 364.770942 329.938391 
L 366.198146 329.921565 
L 367.62535 330.222684 
L 369.052555 330.645504 
L 371.906963 331.212655 
L 373.334168 331.043378 
L 376.188577 331.551146 
L 377.615781 331.54679 
L 379.042985 331.870899 
L 380.47019 332.056189 
L 381.897394 331.851965 
L 383.324598 332.166165 
L 387.606212 332.516923 
L 389.033416 332.824869 
L 391.887825 332.988169 
L 397.596642 333.050848 
L 399.023847 333.494364 
L 400.451051 333.789726 
L 401.878255 333.837267 
L 403.30546 333.313034 
L 404.732664 333.540161 
L 406.159868 333.574571 
L 407.587073 333.357488 
L 409.014277 333.513024 
L 413.29589 333.479734 
L 414.723095 333.660701 
L 416.150299 333.420587 
L 417.577503 333.550033 
L 419.004708 333.116104 
L 420.431912 333.365391 
L 421.859117 333.261714 
L 423.286321 333.522265 
L 424.713525 333.436889 
L 428.995138 333.514007 
L 431.849547 333.570369 
L 433.276752 333.713979 
L 434.703956 333.398914 
L 436.13116 333.609571 
L 438.985569 333.751087 
L 440.412773 333.931687 
L 441.839978 334.251154 
L 443.267182 334.125344 
L 444.694387 334.268603 
L 447.548795 334.211291 
L 450.403204 334.045989 
L 453.257613 333.946904 
L 456.112022 334.006222 
L 457.539226 334.027454 
L 458.96643 333.883665 
L 460.393635 331.158082 
L 461.820839 331.460385 
L 468.956861 331.334289 
L 471.81127 331.782502 
L 481.8017 332.9856 
L 483.228905 333.234523 
L 484.656109 333.259654 
L 486.083313 333.130513 
L 487.510518 333.322619 
L 488.937722 333.28893 
L 490.364927 333.530297 
L 491.792131 333.301425 
L 493.219335 329.655102 
L 498.928153 330.765729 
L 500.355357 330.660893 
L 501.782562 330.955458 
L 506.064175 331.320326 
L 507.491379 330.536895 
L 513.200197 331.250665 
L 514.627401 331.20034 
L 524.617832 332.696434 
L 526.045036 332.596929 
L 527.47224 332.354635 
L 528.899445 332.456048 
L 530.326649 332.787943 
L 533.181058 332.808944 
L 536.035467 333.188766 
L 544.598693 333.53717 
L 546.025897 333.508472 
L 547.453102 333.200348 
L 548.880306 333.037339 
L 551.734715 333.112325 
L 553.161919 332.903367 
L 554.589123 333.195045 
L 561.725145 333.824915 
L 563.15235 333.510005 
L 566.006758 333.460911 
L 568.861167 333.665471 
L 570.288371 333.68435 
L 571.715576 333.88788 
L 573.14278 333.762761 
L 575.997189 333.90974 
L 577.424393 332.048124 
L 578.851598 332.030225 
L 581.706006 332.409568 
L 583.133211 332.126172 
L 584.560415 332.290525 
L 587.414824 332.228369 
L 590.269233 332.631633 
L 594.550846 332.940132 
L 595.97805 332.856817 
L 597.405255 333.008236 
L 598.832459 332.869643 
L 600.259663 332.903591 
L 604.541276 333.636623 
L 605.968481 333.537395 
L 607.395685 333.660991 
L 608.82289 328.885632 
L 613.104503 329.891319 
L 614.531707 330.153533 
L 615.958911 330.568605 
L 620.240525 331.191712 
L 621.667729 331.213739 
L 623.094933 331.500244 
L 625.949342 331.444242 
L 630.230955 331.777624 
L 631.65816 331.657628 
L 634.512568 331.984654 
L 635.939773 331.986013 
L 635.939773 331.986013 
" clip-path="url(#pcbc27c8ffa)" style="fill: none; stroke: #d62728; stroke-width: 1.2; stroke-linecap: square"/>
   </g>
   <g id="line2d_33">
    <path d="M 66.485227 231.746695 
L 67.912432 230.216078 
L 69.339636 218.275296 
L 70.76684 212.014061 
L 72.194045 216.086867 
L 73.621249 221.401291 
L 75.048454 224.836899 
L 76.475658 230.10774 
L 77.902862 234.816655 
L 79.330067 238.167601 
L 83.61168 251.745788 
L 85.038884 256.030863 
L 86.466089 258.131867 
L 87.893293 262.075062 
L 89.320497 265.53579 
L 90.747702 268.526305 
L 92.174906 272.014546 
L 95.029315 278.117831 
L 97.883724 283.289423 
L 100.738132 288.450769 
L 102.165337 290.836677 
L 105.019745 295.023372 
L 110.728563 302.178564 
L 116.43738 308.153698 
L 119.291789 310.498955 
L 120.718994 311.495034 
L 122.146198 312.726046 
L 123.573402 311.303359 
L 127.855015 314.530089 
L 129.28222 314.964789 
L 130.709424 316.111101 
L 132.136629 317.001193 
L 134.991037 317.978308 
L 137.845446 319.593323 
L 139.27265 320.188446 
L 140.699855 320.981717 
L 143.554263 322.307171 
L 144.981468 322.522432 
L 147.835877 323.957031 
L 149.263081 324.154007 
L 153.544694 325.247467 
L 154.971898 325.812477 
L 157.826307 326.035006 
L 159.253512 326.314808 
L 163.535125 327.651534 
L 164.962329 327.895519 
L 166.389533 328.447047 
L 167.816738 328.814523 
L 170.671147 329.125746 
L 172.098351 329.599528 
L 173.525555 329.741843 
L 174.95276 330.018883 
L 176.379964 329.752205 
L 177.807168 329.994328 
L 179.234373 329.941628 
L 184.94319 331.167094 
L 186.370395 331.604427 
L 187.797599 331.69675 
L 190.652008 331.407923 
L 196.360825 332.040511 
L 197.78803 331.917114 
L 199.215234 331.944417 
L 200.642438 332.107199 
L 202.069643 331.899663 
L 204.924052 332.087308 
L 206.351256 332.179147 
L 207.77846 332.470548 
L 209.205665 332.398995 
L 210.632869 332.022399 
L 212.060073 332.282146 
L 213.487278 332.078978 
L 214.914482 332.349432 
L 216.341687 332.201629 
L 217.768891 332.499886 
L 220.6233 332.066238 
L 226.332117 332.605067 
L 230.61373 333.062313 
L 232.040935 331.349145 
L 233.468139 331.452692 
L 234.895343 331.443782 
L 239.176957 332.384864 
L 242.031365 332.620786 
L 244.885774 332.584003 
L 246.312978 332.820572 
L 249.167387 332.999946 
L 250.594592 333.244874 
L 252.021796 333.16574 
L 254.876205 333.352922 
L 256.303409 333.402865 
L 257.730613 333.189713 
L 260.585022 333.192685 
L 262.012227 333.358133 
L 263.439431 333.295371 
L 264.866635 333.473732 
L 267.721044 333.476975 
L 269.148248 333.836612 
L 270.575453 334.077294 
L 272.002657 333.81548 
L 274.857066 333.98549 
L 276.28427 333.737185 
L 277.711475 333.956677 
L 279.138679 333.776265 
L 280.565883 333.720433 
L 281.993088 333.948931 
L 283.420292 333.851115 
L 284.847497 333.983076 
L 291.983518 333.775326 
L 293.410723 333.909982 
L 296.265132 333.644837 
L 297.692336 333.843805 
L 300.546745 333.809929 
L 301.973949 333.566526 
L 303.401153 333.063528 
L 306.255562 333.403102 
L 307.682767 333.336763 
L 309.109971 333.483952 
L 310.537175 333.365664 
L 311.96438 333.113005 
L 319.100402 333.593101 
L 320.527606 333.538259 
L 323.382015 333.96898 
L 326.236423 333.875942 
L 327.663628 333.978933 
L 329.090832 334.211935 
L 330.518037 333.860968 
L 331.945241 333.636926 
L 333.372445 333.83942 
L 336.226854 333.797753 
L 337.654058 333.343656 
L 339.081263 333.198688 
L 343.362876 334.005251 
L 346.217285 333.862049 
L 349.071693 333.892958 
L 350.498898 332.864381 
L 351.926102 333.042301 
L 353.353307 332.864115 
L 356.207715 333.301663 
L 360.489328 333.246727 
L 361.916533 333.040862 
L 364.770942 333.032219 
L 366.198146 332.971673 
L 367.62535 333.057847 
L 369.052555 332.888959 
L 371.906963 332.890255 
L 373.334168 333.048071 
L 374.761372 333.003107 
L 376.188577 333.135244 
L 377.615781 333.064078 
L 380.47019 333.359301 
L 384.751803 333.626989 
L 386.179007 333.486462 
L 389.033416 333.671954 
L 393.315029 333.999503 
L 394.742233 333.983147 
L 396.169438 334.146185 
L 399.023847 334.100585 
L 400.451051 333.950709 
L 401.878255 333.958685 
L 403.30546 333.763317 
L 404.732664 333.780534 
L 406.159868 333.953746 
L 417.577503 334.405116 
L 419.004708 334.099675 
L 420.431912 334.265114 
L 421.859117 332.342168 
L 423.286321 332.390791 
L 426.14073 332.293523 
L 428.995138 332.296779 
L 430.422343 332.472985 
L 431.849547 332.173997 
L 437.558365 332.473387 
L 438.985569 332.326389 
L 443.267182 332.281648 
L 448.976 333.082373 
L 450.403204 333.151009 
L 454.684817 333.037176 
L 456.112022 333.131357 
L 457.539226 332.902937 
L 458.96643 331.208753 
L 461.820839 331.489246 
L 463.248043 331.503635 
L 466.102452 332.138477 
L 468.956861 332.112163 
L 470.384065 332.428068 
L 471.81127 332.421208 
L 476.092883 333.002417 
L 477.520087 333.093554 
L 478.947292 330.280146 
L 480.374496 330.608204 
L 481.8017 330.335861 
L 484.656109 331.051009 
L 486.083313 331.556933 
L 491.792131 332.185098 
L 493.219335 332.400916 
L 494.64654 332.206841 
L 497.500948 332.349902 
L 500.355357 332.441459 
L 503.209766 332.447067 
L 506.064175 332.640239 
L 507.491379 330.991282 
L 510.345788 331.369978 
L 511.772992 331.203887 
L 513.200197 330.016048 
L 514.627401 330.417834 
L 516.054605 328.090204 
L 517.48181 328.335224 
L 518.909014 328.429768 
L 520.336218 328.838345 
L 521.763423 328.836354 
L 523.190627 329.214061 
L 524.617832 329.318996 
L 527.47224 330.175672 
L 528.899445 330.582844 
L 530.326649 329.555409 
L 531.753853 329.89555 
L 533.181058 330.40032 
L 541.744284 331.590813 
L 546.025897 331.635129 
L 547.453102 331.586294 
L 550.30751 331.964458 
L 554.589123 332.302159 
L 556.016328 332.109864 
L 560.297941 332.784345 
L 564.579554 333.484836 
L 568.861167 333.552717 
L 570.288371 333.392117 
L 571.715576 333.530058 
L 573.14278 333.508943 
L 575.997189 333.119154 
L 577.424393 333.372629 
L 580.278802 333.52031 
L 584.560415 333.151629 
L 587.414824 333.13134 
L 588.842028 333.035238 
L 590.269233 333.238623 
L 591.696437 333.147912 
L 594.550846 333.317532 
L 595.97805 333.209428 
L 597.405255 333.324363 
L 598.832459 333.225642 
L 601.686868 333.222139 
L 603.114072 333.462447 
L 605.968481 333.156536 
L 607.395685 333.320348 
L 610.250094 333.427345 
L 611.677298 333.563093 
L 613.104503 333.41597 
L 614.531707 333.569609 
L 615.958911 333.507356 
L 618.81332 333.833631 
L 620.240525 333.863048 
L 621.667729 333.368385 
L 623.094933 333.43177 
L 624.522138 333.641425 
L 627.376546 333.436673 
L 634.512568 334.128522 
L 634.512568 334.128522 
" clip-path="url(#pcbc27c8ffa)" style="fill: none; stroke: #9b8ac9; stroke-width: 1.2; stroke-linecap: square"/>
   </g>
   <g id="patch_3">
    <path d="M 38.0125 349.8636 
L 38.0125 34.5036 
" style="fill: none; stroke: #000000; stroke-width: 0.8; stroke-linejoin: miter; stroke-linecap: square"/>
   </g>
   <g id="patch_4">
    <path d="M 664.4125 349.8636 
L 664.4125 34.5036 
" style="fill: none; stroke: #000000; stroke-width: 0.8; stroke-linejoin: miter; stroke-linecap: square"/>
   </g>
   <g id="patch_5">
    <path d="M 38.0125 349.8636 
L 664.4125 349.8636 
" style="fill: none; stroke: #000000; stroke-width: 0.8; stroke-linejoin: miter; stroke-linecap: square"/>
   </g>
   <g id="patch_6">
    <path d="M 38.0125 34.5036 
L 664.4125 34.5036 
" style="fill: none; stroke: #000000; stroke-width: 0.8; stroke-linejoin: miter; stroke-linecap: square"/>
   </g>
   <g id="legend_1">
    <g id="patch_7">
     <path d="M 38.0125 31.35 
L 664.4125 31.35 
L 664.4125 7.2 
L 38.0125 7.2 
z
" style="fill: #ffffff; stroke: #808080; stroke-width: 0.8; stroke-linejoin: miter"/>
    </g>
    <g id="line2d_34">
     <path d="M 44.3125 18.4 
L 58.3125 18.4 
L 72.3125 18.4 
" style="fill: none; stroke: #1f77b4; stroke-width: 1.2; stroke-linecap: square"/>
    </g>
    <g id="text_17">
     <!-- DDPG -->
     <g transform="translate(80.7125 23.3) scale(0.14 -0.14)">
      <defs>
       <path id="SimHei-44" d="M 2925 2250 
Q 2925 1100 2437 612 
Q 1950 125 1125 125 
L 275 125 
L 275 4400 
L 1125 4400 
Q 2050 4400 2487 3900 
Q 2925 3400 2925 2250 
z
M 2325 2250 
Q 2325 3175 2025 3550 
Q 1725 3925 1125 3925 
L 850 3925 
L 850 600 
L 1125 600 
Q 1725 600 2025 962 
Q 2325 1325 2325 2250 
z
" transform="scale(0.015625)"/>
       <path id="SimHei-50" d="M 2950 3100 
Q 2950 2500 2600 2150 
Q 2250 1800 1625 1800 
L 900 1800 
L 900 125 
L 325 125 
L 325 4400 
L 1625 4400 
Q 2250 4400 2600 4050 
Q 2950 3700 2950 3100 
z
M 2375 3100 
Q 2375 3575 2150 3750 
Q 1925 3925 1475 3925 
L 900 3925 
L 900 2275 
L 1475 2275 
Q 1925 2275 2150 2450 
Q 2375 2625 2375 3100 
z
" transform="scale(0.015625)"/>
       <path id="SimHei-47" d="M 2850 75 
L 2425 75 
L 2350 425 
Q 2250 275 2037 175 
Q 1825 75 1575 75 
Q 1050 75 637 562 
Q 225 1050 225 2125 
Q 225 3300 600 3875 
Q 975 4450 1625 4450 
Q 2200 4450 2525 4025 
Q 2850 3600 2850 2925 
L 2300 2925 
Q 2300 3450 2125 3712 
Q 1950 3975 1625 3975 
Q 1225 3975 1025 3562 
Q 825 3150 825 2175 
Q 825 1250 1075 900 
Q 1325 550 1650 550 
Q 1975 550 2162 787 
Q 2350 1025 2350 1525 
L 2350 1800 
L 1575 1800 
L 1575 2275 
L 2850 2275 
L 2850 75 
z
" transform="scale(0.015625)"/>
      </defs>
      <use xlink:href="#SimHei-44"/>
      <use xlink:href="#SimHei-44" transform="translate(50 0)"/>
      <use xlink:href="#SimHei-50" transform="translate(100 0)"/>
      <use xlink:href="#SimHei-47" transform="translate(150 0)"/>
     </g>
    </g>
    <g id="line2d_35">
     <path d="M 174.6625 18.4 
L 188.6625 18.4 
L 202.6625 18.4 
" style="fill: none; stroke: #ff7f0e; stroke-width: 1.2; stroke-linecap: square"/>
    </g>
    <g id="text_18">
     <!-- PPO -->
     <g transform="translate(211.0625 23.3) scale(0.14 -0.14)">
      <defs>
       <path id="SimHei-4f" d="M 2950 2275 
Q 2950 1100 2587 587 
Q 2225 75 1575 75 
Q 925 75 550 587 
Q 175 1100 175 2275 
Q 175 3450 550 3950 
Q 925 4450 1575 4450 
Q 2225 4450 2587 3950 
Q 2950 3450 2950 2275 
z
M 2350 2275 
Q 2350 3325 2125 3650 
Q 1900 3975 1575 3975 
Q 1250 3975 1012 3650 
Q 775 3325 775 2275 
Q 775 1225 1012 887 
Q 1250 550 1575 550 
Q 1900 550 2125 887 
Q 2350 1225 2350 2275 
z
" transform="scale(0.015625)"/>
      </defs>
      <use xlink:href="#SimHei-50"/>
      <use xlink:href="#SimHei-50" transform="translate(50 0)"/>
      <use xlink:href="#SimHei-4f" transform="translate(100 0)"/>
     </g>
    </g>
    <g id="line2d_36">
     <path d="M 298.0125 18.4 
L 312.0125 18.4 
L 326.0125 18.4 
" style="fill: none; stroke: #2ca02c; stroke-width: 1.2; stroke-linecap: square"/>
    </g>
    <g id="text_19">
     <!-- TD3 -->
     <g transform="translate(334.4125 23.3) scale(0.14 -0.14)">
      <use xlink:href="#SimHei-54"/>
      <use xlink:href="#SimHei-44" transform="translate(50 0)"/>
      <use xlink:href="#SimHei-33" transform="translate(100 0)"/>
     </g>
    </g>
    <g id="line2d_37">
     <path d="M 421.3625 18.4 
L 435.3625 18.4 
L 449.3625 18.4 
" style="fill: none; stroke: #d62728; stroke-width: 1.2; stroke-linecap: square"/>
    </g>
    <g id="text_20">
     <!-- GCN-DDQN -->
     <g transform="translate(457.7625 23.3) scale(0.14 -0.14)">
      <defs>
       <path id="SimHei-43" d="M 2975 1825 
Q 2950 875 2575 475 
Q 2200 75 1675 75 
Q 1075 75 650 562 
Q 225 1050 225 2125 
Q 225 3300 637 3875 
Q 1050 4450 1700 4450 
Q 2250 4450 2612 4037 
Q 2975 3625 2950 2875 
L 2400 2875 
Q 2400 3425 2225 3700 
Q 2050 3975 1700 3975 
Q 1300 3975 1062 3562 
Q 825 3150 825 2175 
Q 825 1275 1062 912 
Q 1300 550 1675 550 
Q 1950 550 2175 812 
Q 2400 1075 2400 1825 
L 2975 1825 
z
" transform="scale(0.015625)"/>
       <path id="SimHei-4e" d="M 2850 125 
L 2225 125 
L 850 3225 
L 825 3225 
L 825 125 
L 250 125 
L 250 4400 
L 875 4400 
L 2250 1300 
L 2275 1300 
L 2275 4400 
L 2850 4400 
L 2850 125 
z
" transform="scale(0.015625)"/>
       <path id="SimHei-2d" d="M 2975 2125 
L 125 2125 
L 125 2525 
L 2975 2525 
L 2975 2125 
z
" transform="scale(0.015625)"/>
       <path id="SimHei-51" d="M 2950 2275 
Q 2950 1675 2862 1262 
Q 2775 850 2575 600 
L 2775 225 
L 2375 -200 
L 2150 225 
Q 2050 150 1900 112 
Q 1750 75 1575 75 
Q 925 75 550 587 
Q 175 1100 175 2275 
Q 175 3450 550 3950 
Q 925 4450 1575 4450 
Q 2225 4450 2587 3950 
Q 2950 3450 2950 2275 
z
M 2350 2275 
Q 2350 3325 2125 3650 
Q 1900 3975 1575 3975 
Q 1250 3975 1012 3650 
Q 775 3325 775 2275 
Q 775 1225 1012 887 
Q 1250 550 1575 550 
Q 1700 550 1800 587 
Q 1900 625 1950 675 
L 1550 1450 
L 1900 1875 
L 2250 1200 
Q 2300 1450 2325 1650 
Q 2350 1850 2350 2275 
z
" transform="scale(0.015625)"/>
      </defs>
      <use xlink:href="#SimHei-47"/>
      <use xlink:href="#SimHei-43" transform="translate(50 0)"/>
      <use xlink:href="#SimHei-4e" transform="translate(100 0)"/>
      <use xlink:href="#SimHei-2d" transform="translate(150 0)"/>
      <use xlink:href="#SimHei-44" transform="translate(200 0)"/>
      <use xlink:href="#SimHei-44" transform="translate(250 0)"/>
      <use xlink:href="#SimHei-51" transform="translate(300 0)"/>
      <use xlink:href="#SimHei-4e" transform="translate(350 0)"/>
     </g>
    </g>
    <g id="line2d_38">
     <path d="M 579.7125 18.4 
L 593.7125 18.4 
L 607.7125 18.4 
" style="fill: none; stroke: #9b8ac9; stroke-width: 1.2; stroke-linecap: square"/>
    </g>
    <g id="text_21">
     <!-- GLDVTO -->
     <g transform="translate(616.1125 23.3) scale(0.14 -0.14)">
      <defs>
       <path id="SimHei-4c" d="M 2900 125 
L 300 125 
L 300 4400 
L 875 4400 
L 875 600 
L 2900 600 
L 2900 125 
z
" transform="scale(0.015625)"/>
       <path id="SimHei-56" d="M 3050 4400 
L 1800 75 
L 1300 75 
L 50 4400 
L 650 4400 
L 1525 1125 
L 1575 1125 
L 2450 4400 
L 3050 4400 
z
" transform="scale(0.015625)"/>
      </defs>
      <use xlink:href="#SimHei-47"/>
      <use xlink:href="#SimHei-4c" transform="translate(50 0)"/>
      <use xlink:href="#SimHei-44" transform="translate(100 0)"/>
      <use xlink:href="#SimHei-56" transform="translate(150 0)"/>
      <use xlink:href="#SimHei-54" transform="translate(200 0)"/>
      <use xlink:href="#SimHei-4f" transform="translate(250 0)"/>
     </g>
    </g>
   </g>
  </g>
 </g>
 <defs>
  <clipPath id="pcbc27c8ffa">
   <rect x="38.0125" y="34.5036" width="626.4" height="315.36"/>
  </clipPath>
 </defs>
</svg>
