<?xml version="1.0" encoding="utf-8" standalone="no"?>
<!DOCTYPE svg PUBLIC "-//W3C//DTD SVG 1.1//EN"
  "http://www.w3.org/Graphics/SVG/1.1/DTD/svg11.dtd">
<svg xmlns:xlink="http://www.w3.org/1999/xlink" width="689.6125pt" height="391.6261pt" viewBox="0 0 689.6125 391.6261" xmlns="http://www.w3.org/2000/svg" version="1.1">
 <metadata>
  <rdf:RDF xmlns:dc="http://purl.org/dc/elements/1.1/" xmlns:cc="http://creativecommons.org/ns#" xmlns:rdf="http://www.w3.org/1999/02/22-rdf-syntax-ns#">
   <cc:Work>
    <dc:type rdf:resource="http://purl.org/dc/dcmitype/StillImage"/>
    <dc:date>2026-07-10T15:53:26.110299</dc:date>
    <dc:format>image/svg+xml</dc:format>
    <dc:creator>
     <cc:Agent>
      <dc:title>Matplotlib v3.10.7, https://matplotlib.org/</dc:title>
     </cc:Agent>
    </dc:creator>
   </cc:Work>
  </rdf:RDF>
 </metadata>
 <defs>
  <style type="text/css">*{stroke-linejoin: round; stroke-linecap: butt}</style>
 </defs>
 <g id="figure_1">
  <g id="patch_1">
   <path d="M 0 391.6261 
L 689.6125 391.6261 
L 689.6125 0 
L 0 0 
z
" style="fill: #ffffff"/>
  </g>
  <g id="axes_1">
   <g id="patch_2">
    <path d="M 56.0125 349.8636 
L 682.4125 349.8636 
L 682.4125 34.5036 
L 56.0125 34.5036 
z
" style="fill: #ffffff"/>
   </g>
   <g id="matplotlib.axis_1">
    <g id="xtick_1">
     <g id="line2d_1">
      <path d="M 84.485227 349.8636 
L 84.485227 34.5036 
" clip-path="url(#pb90b875b68)" style="fill: none; stroke-dasharray: 2.22,0.96; stroke-dashoffset: 0; stroke: #b0b0b0; stroke-opacity: 0.25; stroke-width: 0.6"/>
     </g>
     <g id="line2d_2">
      <defs>
       <path id="m96fe85603d" d="M 0 0 
L 0 3.5 
" style="stroke: #000000; stroke-width: 0.8"/>
      </defs>
      <g>
       <use xlink:href="#m96fe85603d" x="84.485227" y="349.8636" style="stroke: #000000; stroke-width: 0.8"/>
      </g>
     </g>
     <g id="text_1">
      <!-- 0 -->
      <g transform="translate(81.485227 365.1136) scale(0.12 -0.12)">
       <defs>
        <path id="SimHei-30" d="M 225 2537 
Q 250 3200 412 3587 
Q 575 3975 875 4225 
Q 1175 4475 1612 4475 
Q 2050 4475 2375 4112 
Q 2700 3750 2800 3200 
Q 2900 2650 2862 1937 
Q 2825 1225 2612 775 
Q 2400 325 1975 150 
Q 1550 -25 1125 187 
Q 700 400 525 750 
Q 350 1100 275 1487 
Q 200 1875 225 2537 
z
M 750 2687 
Q 675 2000 800 1462 
Q 925 925 1212 700 
Q 1500 475 1800 612 
Q 2100 750 2237 1162 
Q 2375 1575 2375 2062 
Q 2375 2550 2337 2950 
Q 2300 3350 2112 3675 
Q 1925 4000 1612 4012 
Q 1300 4025 1062 3700 
Q 825 3375 750 2687 
z
" transform="scale(0.015625)"/>
       </defs>
       <use xlink:href="#SimHei-30"/>
      </g>
     </g>
    </g>
    <g id="xtick_2">
     <g id="line2d_3">
      <path d="M 155.845446 349.8636 
L 155.845446 34.5036 
" clip-path="url(#pb90b875b68)" style="fill: none; stroke-dasharray: 2.22,0.96; stroke-dashoffset: 0; stroke: #b0b0b0; stroke-opacity: 0.25; stroke-width: 0.6"/>
     </g>
     <g id="line2d_4">
      <g>
       <use xlink:href="#m96fe85603d" x="155.845446" y="349.8636" style="stroke: #000000; stroke-width: 0.8"/>
      </g>
     </g>
     <g id="text_2">
      <!-- 50 -->
      <g transform="translate(149.845446 365.1136) scale(0.12 -0.12)">
       <defs>
        <path id="SimHei-35" d="M 550 1325 
Q 725 650 1150 575 
Q 1575 500 1837 662 
Q 2100 825 2212 1087 
Q 2325 1350 2312 1675 
Q 2300 2000 2137 2225 
Q 1975 2450 1725 2525 
Q 1475 2600 1162 2525 
Q 850 2450 650 2175 
L 225 2225 
Q 275 2375 700 4375 
L 2675 4375 
L 2675 3925 
L 1075 3925 
Q 950 3250 825 2850 
Q 1200 3025 1525 3012 
Q 1850 3000 2150 2862 
Q 2450 2725 2587 2487 
Q 2725 2250 2787 2012 
Q 2850 1775 2837 1500 
Q 2825 1225 2725 937 
Q 2625 650 2425 462 
Q 2225 275 1937 162 
Q 1650 50 1275 75 
Q 900 100 562 350 
Q 225 600 100 1200 
L 550 1325 
z
" transform="scale(0.015625)"/>
       </defs>
       <use xlink:href="#SimHei-35"/>
       <use xlink:href="#SimHei-30" transform="translate(50 0)"/>
      </g>
     </g>
    </g>
    <g id="xtick_3">
     <g id="line2d_5">
      <path d="M 227.205665 349.8636 
L 227.205665 34.5036 
" clip-path="url(#pb90b875b68)" style="fill: none; stroke-dasharray: 2.22,0.96; stroke-dashoffset: 0; stroke: #b0b0b0; stroke-opacity: 0.25; stroke-width: 0.6"/>
     </g>
     <g id="line2d_6">
      <g>
       <use xlink:href="#m96fe85603d" x="227.205665" y="349.8636" style="stroke: #000000; stroke-width: 0.8"/>
      </g>
     </g>
     <g id="text_3">
      <!-- 100 -->
      <g transform="translate(218.205665 365.1136) scale(0.12 -0.12)">
       <defs>
        <path id="SimHei-31" d="M 1400 3600 
Q 1075 3275 575 2975 
L 575 3450 
Q 1200 3875 1600 4450 
L 1900 4450 
L 1900 150 
L 1400 150 
L 1400 3600 
z
" transform="scale(0.015625)"/>
       </defs>
       <use xlink:href="#SimHei-31"/>
       <use xlink:href="#SimHei-30" transform="translate(50 0)"/>
       <use xlink:href="#SimHei-30" transform="translate(100 0)"/>
      </g>
     </g>
    </g>
    <g id="xtick_4">
     <g id="line2d_7">
      <path d="M 298.565883 349.8636 
L 298.565883 34.5036 
" clip-path="url(#pb90b875b68)" style="fill: none; stroke-dasharray: 2.22,0.96; stroke-dashoffset: 0; stroke: #b0b0b0; stroke-opacity: 0.25; stroke-width: 0.6"/>
     </g>
     <g id="line2d_8">
      <g>
       <use xlink:href="#m96fe85603d" x="298.565883" y="349.8636" style="stroke: #000000; stroke-width: 0.8"/>
      </g>
     </g>
     <g id="text_4">
      <!-- 150 -->
      <g transform="translate(289.565883 365.1136) scale(0.12 -0.12)">
       <use xlink:href="#SimHei-31"/>
       <use xlink:href="#SimHei-35" transform="translate(50 0)"/>
       <use xlink:href="#SimHei-30" transform="translate(100 0)"/>
      </g>
     </g>
    </g>
    <g id="xtick_5">
     <g id="line2d_9">
      <path d="M 369.926102 349.8636 
L 369.926102 34.5036 
" clip-path="url(#pb90b875b68)" style="fill: none; stroke-dasharray: 2.22,0.96; stroke-dashoffset: 0; stroke: #b0b0b0; stroke-opacity: 0.25; stroke-width: 0.6"/>
     </g>
     <g id="line2d_10">
      <g>
       <use xlink:href="#m96fe85603d" x="369.926102" y="349.8636" style="stroke: #000000; stroke-width: 0.8"/>
      </g>
     </g>
     <g id="text_5">
      <!-- 200 -->
      <g transform="translate(360.926102 365.1136) scale(0.12 -0.12)">
       <defs>
        <path id="SimHei-32" d="M 300 250 
Q 325 625 650 925 
Q 975 1225 1475 1862 
Q 1975 2500 2125 2850 
Q 2275 3200 2237 3450 
Q 2200 3700 2000 3862 
Q 1800 4025 1537 4000 
Q 1275 3975 1037 3800 
Q 800 3625 675 3275 
L 200 3350 
Q 400 3925 712 4187 
Q 1025 4450 1450 4475 
Q 1700 4500 1900 4462 
Q 2100 4425 2312 4287 
Q 2525 4150 2662 3875 
Q 2800 3600 2762 3212 
Q 2725 2825 2375 2287 
Q 2025 1750 1025 600 
L 2825 600 
L 2825 150 
L 300 150 
L 300 250 
z
" transform="scale(0.015625)"/>
       </defs>
       <use xlink:href="#SimHei-32"/>
       <use xlink:href="#SimHei-30" transform="translate(50 0)"/>
       <use xlink:href="#SimHei-30" transform="translate(100 0)"/>
      </g>
     </g>
    </g>
    <g id="xtick_6">
     <g id="line2d_11">
      <path d="M 441.286321 349.8636 
L 441.286321 34.5036 
" clip-path="url(#pb90b875b68)" style="fill: none; stroke-dasharray: 2.22,0.96; stroke-dashoffset: 0; stroke: #b0b0b0; stroke-opacity: 0.25; stroke-width: 0.6"/>
     </g>
     <g id="line2d_12">
      <g>
       <use xlink:href="#m96fe85603d" x="441.286321" y="349.8636" style="stroke: #000000; stroke-width: 0.8"/>
      </g>
     </g>
     <g id="text_6">
      <!-- 250 -->
      <g transform="translate(432.286321 365.1136) scale(0.12 -0.12)">
       <use xlink:href="#SimHei-32"/>
       <use xlink:href="#SimHei-35" transform="translate(50 0)"/>
       <use xlink:href="#SimHei-30" transform="translate(100 0)"/>
      </g>
     </g>
    </g>
    <g id="xtick_7">
     <g id="line2d_13">
      <path d="M 512.64654 349.8636 
L 512.64654 34.5036 
" clip-path="url(#pb90b875b68)" style="fill: none; stroke-dasharray: 2.22,0.96; stroke-dashoffset: 0; stroke: #b0b0b0; stroke-opacity: 0.25; stroke-width: 0.6"/>
     </g>
     <g id="line2d_14">
      <g>
       <use xlink:href="#m96fe85603d" x="512.64654" y="349.8636" style="stroke: #000000; stroke-width: 0.8"/>
      </g>
     </g>
     <g id="text_7">
      <!-- 300 -->
      <g transform="translate(503.64654 365.1136) scale(0.12 -0.12)">
       <defs>
        <path id="SimHei-33" d="M 250 1225 
L 700 1300 
Q 800 975 1025 762 
Q 1250 550 1587 562 
Q 1925 575 2125 837 
Q 2325 1100 2300 1437 
Q 2275 1775 2037 1962 
Q 1800 2150 1275 2225 
L 1275 2550 
Q 1800 2600 2037 2825 
Q 2275 3050 2250 3412 
Q 2225 3775 1925 3937 
Q 1625 4100 1287 3975 
Q 950 3850 750 3275 
L 300 3350 
Q 450 3800 712 4100 
Q 975 4400 1425 4450 
Q 1875 4500 2212 4337 
Q 2550 4175 2687 3837 
Q 2825 3500 2725 3100 
Q 2625 2700 2150 2400 
Q 2500 2250 2687 1950 
Q 2875 1650 2812 1162 
Q 2750 675 2375 375 
Q 2000 75 1525 87 
Q 1050 100 700 387 
Q 350 675 250 1225 
z
" transform="scale(0.015625)"/>
       </defs>
       <use xlink:href="#SimHei-33"/>
       <use xlink:href="#SimHei-30" transform="translate(50 0)"/>
       <use xlink:href="#SimHei-30" transform="translate(100 0)"/>
      </g>
     </g>
    </g>
    <g id="xtick_8">
     <g id="line2d_15">
      <path d="M 584.006758 349.8636 
L 584.006758 34.5036 
" clip-path="url(#pb90b875b68)" style="fill: none; stroke-dasharray: 2.22,0.96; stroke-dashoffset: 0; stroke: #b0b0b0; stroke-opacity: 0.25; stroke-width: 0.6"/>
     </g>
     <g id="line2d_16">
      <g>
       <use xlink:href="#m96fe85603d" x="584.006758" y="349.8636" style="stroke: #000000; stroke-width: 0.8"/>
      </g>
     </g>
     <g id="text_8">
      <!-- 350 -->
      <g transform="translate(575.006758 365.1136) scale(0.12 -0.12)">
       <use xlink:href="#SimHei-33"/>
       <use xlink:href="#SimHei-35" transform="translate(50 0)"/>
       <use xlink:href="#SimHei-30" transform="translate(100 0)"/>
      </g>
     </g>
    </g>
    <g id="xtick_9">
     <g id="line2d_17">
      <path d="M 655.366977 349.8636 
L 655.366977 34.5036 
" clip-path="url(#pb90b875b68)" style="fill: none; stroke-dasharray: 2.22,0.96; stroke-dashoffset: 0; stroke: #b0b0b0; stroke-opacity: 0.25; stroke-width: 0.6"/>
     </g>
     <g id="line2d_18">
      <g>
       <use xlink:href="#m96fe85603d" x="655.366977" y="349.8636" style="stroke: #000000; stroke-width: 0.8"/>
      </g>
     </g>
     <g id="text_9">
      <!-- 400 -->
      <g transform="translate(646.366977 365.1136) scale(0.12 -0.12)">
       <defs>
        <path id="SimHei-34" d="M 2000 1100 
L 75 1100 
L 75 1525 
L 2100 4450 
L 2475 4450 
L 2475 1525 
L 3075 1525 
L 3075 1100 
L 2475 1100 
L 2475 150 
L 2000 150 
L 2000 1100 
z
M 2000 1525 
L 2000 3500 
L 600 1525 
L 2000 1525 
z
" transform="scale(0.015625)"/>
       </defs>
       <use xlink:href="#SimHei-34"/>
       <use xlink:href="#SimHei-30" transform="translate(50 0)"/>
       <use xlink:href="#SimHei-30" transform="translate(100 0)"/>
      </g>
     </g>
    </g>
    <g id="text_10">
     <!-- Episode -->
     <g transform="translate(339.4625 382.3011) scale(0.17 -0.17)">
      <defs>
       <path id="SimHei-45" d="M 2900 125 
L 350 125 
L 350 4400 
L 2775 4400 
L 2775 3925 
L 925 3925 
L 925 2600 
L 2625 2600 
L 2625 2125 
L 925 2125 
L 925 600 
L 2900 600 
L 2900 125 
z
" transform="scale(0.015625)"/>
       <path id="SimHei-70" d="M 2825 1525 
Q 2825 800 2475 425 
Q 2125 50 1625 50 
Q 1350 50 1150 162 
Q 950 275 800 500 
L 800 -800 
L 300 -800 
L 300 2925 
L 800 2925 
L 800 2550 
Q 950 2775 1150 2875 
Q 1350 2975 1625 2975 
Q 2125 2975 2475 2612 
Q 2825 2250 2825 1525 
z
M 2275 1525 
Q 2275 2000 2087 2262 
Q 1900 2525 1525 2525 
Q 1225 2525 1012 2262 
Q 800 2000 800 1525 
Q 800 1050 1012 775 
Q 1225 500 1525 500 
Q 1900 500 2087 775 
Q 2275 1050 2275 1525 
z
" transform="scale(0.015625)"/>
       <path id="SimHei-69" d="M 1800 3725 
L 1300 3725 
L 1300 4375 
L 1800 4375 
L 1800 3725 
z
M 1800 125 
L 1300 125 
L 1300 2925 
L 1800 2925 
L 1800 125 
z
" transform="scale(0.015625)"/>
       <path id="SimHei-73" d="M 2750 900 
Q 2750 500 2437 287 
Q 2125 75 1650 75 
Q 1050 75 725 312 
Q 400 550 400 1000 
L 900 1000 
Q 900 700 1112 600 
Q 1325 500 1625 500 
Q 1925 500 2075 612 
Q 2225 725 2225 900 
Q 2225 1025 2100 1150 
Q 1975 1275 1475 1350 
Q 900 1425 687 1637 
Q 475 1850 475 2200 
Q 475 2500 762 2737 
Q 1050 2975 1600 2975 
Q 2100 2975 2387 2750 
Q 2675 2525 2675 2150 
L 2175 2150 
Q 2175 2375 2012 2462 
Q 1850 2550 1600 2550 
Q 1275 2550 1137 2437 
Q 1000 2325 1000 2175 
Q 1000 2000 1125 1900 
Q 1250 1800 1650 1750 
Q 2300 1650 2525 1437 
Q 2750 1225 2750 900 
z
" transform="scale(0.015625)"/>
       <path id="SimHei-6f" d="M 2925 1525 
Q 2925 875 2525 475 
Q 2125 75 1575 75 
Q 1025 75 625 475 
Q 225 875 225 1525 
Q 225 2175 625 2575 
Q 1025 2975 1575 2975 
Q 2125 2975 2525 2575 
Q 2925 2175 2925 1525 
z
M 2375 1525 
Q 2375 2025 2125 2275 
Q 1875 2525 1575 2525 
Q 1275 2525 1025 2275 
Q 775 2025 775 1525 
Q 775 1025 1025 775 
Q 1275 525 1575 525 
Q 1875 525 2125 775 
Q 2375 1025 2375 1525 
z
" transform="scale(0.015625)"/>
       <path id="SimHei-64" d="M 2750 125 
L 2250 125 
L 2250 500 
Q 2100 275 1900 175 
Q 1700 75 1425 75 
Q 925 75 575 437 
Q 225 800 225 1525 
Q 225 2250 575 2625 
Q 925 3000 1425 3000 
Q 1700 3000 1900 2887 
Q 2100 2775 2250 2550 
L 2250 4400 
L 2750 4400 
L 2750 125 
z
M 2250 1525 
Q 2250 2000 2037 2275 
Q 1825 2550 1525 2550 
Q 1150 2550 962 2275 
Q 775 2000 775 1525 
Q 775 1050 962 787 
Q 1150 525 1525 525 
Q 1825 525 2037 787 
Q 2250 1050 2250 1525 
z
" transform="scale(0.015625)"/>
       <path id="SimHei-65" d="M 2850 1075 
Q 2800 625 2450 350 
Q 2100 75 1625 75 
Q 1025 75 637 462 
Q 250 850 250 1525 
Q 250 2200 637 2587 
Q 1025 2975 1625 2975 
Q 2150 2975 2487 2637 
Q 2825 2300 2825 1525 
L 800 1525 
Q 800 975 1037 750 
Q 1275 525 1625 525 
Q 1900 525 2075 662 
Q 2250 800 2300 1075 
L 2850 1075 
z
M 2250 1925 
Q 2200 2275 2025 2412 
Q 1850 2550 1575 2550 
Q 1325 2550 1125 2412 
Q 925 2275 825 1925 
L 2250 1925 
z
" transform="scale(0.015625)"/>
      </defs>
      <use xlink:href="#SimHei-45"/>
      <use xlink:href="#SimHei-70" transform="translate(50 0)"/>
      <use xlink:href="#SimHei-69" transform="translate(100 0)"/>
      <use xlink:href="#SimHei-73" transform="translate(150 0)"/>
      <use xlink:href="#SimHei-6f" transform="translate(200 0)"/>
      <use xlink:href="#SimHei-64" transform="translate(250 0)"/>
      <use xlink:href="#SimHei-65" transform="translate(300 0)"/>
     </g>
    </g>
   </g>
   <g id="matplotlib.axis_2">
    <g id="ytick_1">
     <g id="line2d_19">
      <path d="M 56.0125 308.196172 
L 682.4125 308.196172 
" clip-path="url(#pb90b875b68)" style="fill: none; stroke-dasharray: 2.22,0.96; stroke-dashoffset: 0; stroke: #b0b0b0; stroke-opacity: 0.25; stroke-width: 0.6"/>
     </g>
     <g id="line2d_20">
      <defs>
       <path id="meebfb3da52" d="M 0 0 
L -3.5 0 
" style="stroke: #000000; stroke-width: 0.8"/>
      </defs>
      <g>
       <use xlink:href="#meebfb3da52" x="56.0125" y="308.196172" style="stroke: #000000; stroke-width: 0.8"/>
      </g>
     </g>
     <g id="text_11">
      <!-- 600 -->
      <g transform="translate(31.0125 312.321172) scale(0.12 -0.12)">
       <defs>
        <path id="SimHei-36" d="M 250 1612 
Q 275 1975 387 2225 
Q 500 2475 725 2850 
L 1750 4450 
L 2325 4450 
L 1275 2800 
Q 1950 2975 2350 2750 
Q 2750 2525 2887 2237 
Q 3025 1950 3037 1612 
Q 3050 1275 2937 950 
Q 2825 625 2537 362 
Q 2250 100 1737 75 
Q 1225 50 862 262 
Q 500 475 362 862 
Q 225 1250 250 1612 
z
M 1025 787 
Q 1250 550 1625 525 
Q 2000 500 2250 775 
Q 2500 1050 2500 1575 
Q 2500 2100 2187 2300 
Q 1875 2500 1487 2450 
Q 1100 2400 925 2075 
Q 750 1750 775 1387 
Q 800 1025 1025 787 
z
" transform="scale(0.015625)"/>
       </defs>
       <use xlink:href="#SimHei-36"/>
       <use xlink:href="#SimHei-30" transform="translate(50 0)"/>
       <use xlink:href="#SimHei-30" transform="translate(100 0)"/>
      </g>
     </g>
    </g>
    <g id="ytick_2">
     <g id="line2d_21">
      <path d="M 56.0125 254.535733 
L 682.4125 254.535733 
" clip-path="url(#pb90b875b68)" style="fill: none; stroke-dasharray: 2.22,0.96; stroke-dashoffset: 0; stroke: #b0b0b0; stroke-opacity: 0.25; stroke-width: 0.6"/>
     </g>
     <g id="line2d_22">
      <g>
       <use xlink:href="#meebfb3da52" x="56.0125" y="254.535733" style="stroke: #000000; stroke-width: 0.8"/>
      </g>
     </g>
     <g id="text_12">
      <!-- 800 -->
      <g transform="translate(31.0125 258.660733) scale(0.12 -0.12)">
       <defs>
        <path id="SimHei-38" d="M 175 1375 
Q 175 1675 325 1962 
Q 475 2250 825 2425 
Q 525 2600 425 2812 
Q 325 3025 312 3300 
Q 300 3575 387 3775 
Q 475 3975 650 4150 
Q 825 4325 1037 4387 
Q 1250 4450 1500 4450 
Q 1750 4450 1950 4400 
Q 2150 4350 2375 4187 
Q 2600 4025 2700 3725 
Q 2800 3425 2687 3025 
Q 2575 2625 2100 2400 
Q 2525 2275 2700 2012 
Q 2875 1750 2875 1375 
Q 2875 1000 2762 775 
Q 2650 550 2512 400 
Q 2375 250 2137 162 
Q 1900 75 1537 75 
Q 1175 75 912 162 
Q 650 250 475 425 
Q 300 600 237 837 
Q 175 1075 175 1375 
z
M 687 1400 
Q 675 1100 787 875 
Q 900 650 1200 587 
Q 1500 525 1825 600 
Q 2150 675 2275 950 
Q 2400 1225 2362 1500 
Q 2325 1775 2050 1962 
Q 1775 2150 1450 2125 
Q 1125 2100 912 1900 
Q 700 1700 687 1400 
z
M 775 3350 
Q 775 3100 950 2875 
Q 1125 2650 1500 2650 
Q 1875 2650 2062 2875 
Q 2250 3100 2237 3412 
Q 2225 3725 2012 3875 
Q 1800 4025 1437 4000 
Q 1075 3975 925 3787 
Q 775 3600 775 3350 
z
" transform="scale(0.015625)"/>
       </defs>
       <use xlink:href="#SimHei-38"/>
       <use xlink:href="#SimHei-30" transform="translate(50 0)"/>
       <use xlink:href="#SimHei-30" transform="translate(100 0)"/>
      </g>
     </g>
    </g>
    <g id="ytick_3">
     <g id="line2d_23">
      <path d="M 56.0125 200.875293 
L 682.4125 200.875293 
" clip-path="url(#pb90b875b68)" style="fill: none; stroke-dasharray: 2.22,0.96; stroke-dashoffset: 0; stroke: #b0b0b0; stroke-opacity: 0.25; stroke-width: 0.6"/>
     </g>
     <g id="line2d_24">
      <g>
       <use xlink:href="#meebfb3da52" x="56.0125" y="200.875293" style="stroke: #000000; stroke-width: 0.8"/>
      </g>
     </g>
     <g id="text_13">
      <!-- 1000 -->
      <g transform="translate(25.0125 205.000293) scale(0.12 -0.12)">
       <use xlink:href="#SimHei-31"/>
       <use xlink:href="#SimHei-30" transform="translate(50 0)"/>
       <use xlink:href="#SimHei-30" transform="translate(100 0)"/>
       <use xlink:href="#SimHei-30" transform="translate(150 0)"/>
      </g>
     </g>
    </g>
    <g id="ytick_4">
     <g id="line2d_25">
      <path d="M 56.0125 147.214854 
L 682.4125 147.214854 
" clip-path="url(#pb90b875b68)" style="fill: none; stroke-dasharray: 2.22,0.96; stroke-dashoffset: 0; stroke: #b0b0b0; stroke-opacity: 0.25; stroke-width: 0.6"/>
     </g>
     <g id="line2d_26">
      <g>
       <use xlink:href="#meebfb3da52" x="56.0125" y="147.214854" style="stroke: #000000; stroke-width: 0.8"/>
      </g>
     </g>
     <g id="text_14">
      <!-- 1200 -->
      <g transform="translate(25.0125 151.339854) scale(0.12 -0.12)">
       <use xlink:href="#SimHei-31"/>
       <use xlink:href="#SimHei-32" transform="translate(50 0)"/>
       <use xlink:href="#SimHei-30" transform="translate(100 0)"/>
       <use xlink:href="#SimHei-30" transform="translate(150 0)"/>
      </g>
     </g>
    </g>
    <g id="ytick_5">
     <g id="line2d_27">
      <path d="M 56.0125 93.554415 
L 682.4125 93.554415 
" clip-path="url(#pb90b875b68)" style="fill: none; stroke-dasharray: 2.22,0.96; stroke-dashoffset: 0; stroke: #b0b0b0; stroke-opacity: 0.25; stroke-width: 0.6"/>
     </g>
     <g id="line2d_28">
      <g>
       <use xlink:href="#meebfb3da52" x="56.0125" y="93.554415" style="stroke: #000000; stroke-width: 0.8"/>
      </g>
     </g>
     <g id="text_15">
      <!-- 1400 -->
      <g transform="translate(25.0125 97.679415) scale(0.12 -0.12)">
       <use xlink:href="#SimHei-31"/>
       <use xlink:href="#SimHei-34" transform="translate(50 0)"/>
       <use xlink:href="#SimHei-30" transform="translate(100 0)"/>
       <use xlink:href="#SimHei-30" transform="translate(150 0)"/>
      </g>
     </g>
    </g>
    <g id="ytick_6">
     <g id="line2d_29">
      <path d="M 56.0125 39.893976 
L 682.4125 39.893976 
" clip-path="url(#pb90b875b68)" style="fill: none; stroke-dasharray: 2.22,0.96; stroke-dashoffset: 0; stroke: #b0b0b0; stroke-opacity: 0.25; stroke-width: 0.6"/>
     </g>
     <g id="line2d_30">
      <g>
       <use xlink:href="#meebfb3da52" x="56.0125" y="39.893976" style="stroke: #000000; stroke-width: 0.8"/>
      </g>
     </g>
     <g id="text_16">
      <!-- 1600 -->
      <g transform="translate(25.0125 44.018976) scale(0.12 -0.12)">
       <use xlink:href="#SimHei-31"/>
       <use xlink:href="#SimHei-36" transform="translate(50 0)"/>
       <use xlink:href="#SimHei-30" transform="translate(100 0)"/>
       <use xlink:href="#SimHei-30" transform="translate(150 0)"/>
      </g>
     </g>
    </g>
    <g id="text_17">
     <!-- Total Reward -->
     <g transform="translate(18.8875 243.1836) rotate(-90) scale(0.17 -0.17)">
      <defs>
       <path id="SimHei-54" d="M 2850 3925 
L 1850 3925 
L 1850 125 
L 1275 125 
L 1275 3925 
L 275 3925 
L 275 4400 
L 2850 4400 
L 2850 3925 
z
" transform="scale(0.015625)"/>
       <path id="SimHei-74" d="M 2750 200 
Q 2625 150 2462 112 
Q 2300 75 2025 75 
Q 1575 75 1300 325 
Q 1025 575 1025 1025 
L 1025 2525 
L 175 2525 
L 175 2925 
L 1025 2925 
L 1025 3900 
L 1525 3900 
L 1525 2925 
L 2550 2925 
L 2550 2525 
L 1525 2525 
L 1525 1000 
Q 1525 800 1625 662 
Q 1725 525 2000 525 
Q 2275 525 2450 575 
Q 2625 625 2750 700 
L 2750 200 
z
" transform="scale(0.015625)"/>
       <path id="SimHei-61" d="M 2875 125 
L 2275 125 
Q 2225 175 2200 262 
Q 2175 350 2175 475 
Q 2000 275 1750 175 
Q 1500 75 1225 75 
Q 825 75 550 275 
Q 275 475 275 850 
Q 275 1225 525 1450 
Q 775 1675 1300 1750 
Q 1650 1800 1912 1875 
Q 2175 1950 2175 2075 
Q 2175 2225 2062 2375 
Q 1950 2525 1575 2525 
Q 1275 2525 1137 2412 
Q 1000 2300 950 2100 
L 400 2100 
Q 450 2500 762 2737 
Q 1075 2975 1575 2975 
Q 2125 2975 2400 2725 
Q 2675 2475 2675 2025 
L 2675 650 
Q 2675 500 2725 375 
Q 2775 250 2875 125 
z
M 2175 1050 
L 2175 1550 
Q 2025 1500 1887 1462 
Q 1750 1425 1425 1375 
Q 1050 1325 937 1200 
Q 825 1075 825 900 
Q 825 750 937 637 
Q 1050 525 1275 525 
Q 1500 525 1762 650 
Q 2025 775 2175 1050 
z
" transform="scale(0.015625)"/>
       <path id="SimHei-6c" d="M 1825 125 
L 1325 125 
L 1325 4400 
L 1825 4400 
L 1825 125 
z
" transform="scale(0.015625)"/>
       <path id="SimHei-20" transform="scale(0.015625)"/>
       <path id="SimHei-52" d="M 3000 125 
L 2400 125 
L 1500 1975 
L 850 1975 
L 850 125 
L 275 125 
L 275 4400 
L 1525 4400 
Q 2125 4400 2500 4112 
Q 2875 3825 2875 3175 
Q 2875 2675 2625 2400 
Q 2375 2125 2050 2050 
L 3000 125 
z
M 2300 3175 
Q 2300 3525 2087 3725 
Q 1875 3925 1400 3925 
L 850 3925 
L 850 2450 
L 1550 2450 
Q 1850 2450 2075 2612 
Q 2300 2775 2300 3175 
z
" transform="scale(0.015625)"/>
       <path id="SimHei-77" d="M 3075 2925 
L 2450 75 
L 1975 75 
L 1575 2250 
L 1525 2250 
L 1125 75 
L 650 75 
L 25 2925 
L 550 2925 
L 875 1050 
L 925 1050 
L 1275 2925 
L 1825 2925 
L 2175 1050 
L 2225 1050 
L 2550 2925 
L 3075 2925 
z
" transform="scale(0.015625)"/>
       <path id="SimHei-72" d="M 2500 2425 
Q 2025 2500 1700 2287 
Q 1375 2075 1150 1550 
L 1150 125 
L 650 125 
L 650 2925 
L 1150 2925 
L 1150 2200 
Q 1375 2600 1712 2787 
Q 2050 2975 2500 2975 
L 2500 2425 
z
" transform="scale(0.015625)"/>
      </defs>
      <use xlink:href="#SimHei-54"/>
      <use xlink:href="#SimHei-6f" transform="translate(50 0)"/>
      <use xlink:href="#SimHei-74" transform="translate(100 0)"/>
      <use xlink:href="#SimHei-61" transform="translate(150 0)"/>
      <use xlink:href="#SimHei-6c" transform="translate(200 0)"/>
      <use xlink:href="#SimHei-20" transform="translate(250 0)"/>
      <use xlink:href="#SimHei-52" transform="translate(300 0)"/>
      <use xlink:href="#SimHei-65" transform="translate(350 0)"/>
      <use xlink:href="#SimHei-77" transform="translate(400 0)"/>
      <use xlink:href="#SimHei-61" transform="translate(450 0)"/>
      <use xlink:href="#SimHei-72" transform="translate(500 0)"/>
      <use xlink:href="#SimHei-64" transform="translate(550 0)"/>
     </g>
    </g>
   </g>
   <g id="line2d_31">
    <path d="M 84.485227 311.183157 
L 85.912432 307.311496 
L 87.339636 306.386799 
L 88.76684 310.806683 
L 90.194045 312.636149 
L 91.621249 306.48081 
L 93.048454 304.374729 
L 94.475658 311.944104 
L 95.902862 311.309075 
L 97.330067 313.833658 
L 98.757271 309.070234 
L 100.184475 311.030434 
L 101.61168 312.309428 
L 103.038884 301.300627 
L 104.466089 298.199728 
L 105.893293 307.268272 
L 107.320497 325.723344 
L 108.747702 323.23085 
L 110.174906 323.891205 
L 111.60211 326.664537 
L 113.029315 322.234001 
L 114.456519 318.962179 
L 115.883724 315.134251 
L 117.310928 316.51304 
L 118.738132 306.506341 
L 120.165337 316.776891 
L 121.592541 315.664169 
L 123.019745 311.839387 
L 124.44695 314.405502 
L 125.874154 319.729476 
L 127.301359 315.965531 
L 128.728563 313.692607 
L 130.155767 310.917021 
L 131.582972 309.205339 
L 135.864585 244.885786 
L 137.291789 225.413359 
L 138.718994 209.437768 
L 141.573402 182.093009 
L 144.427811 158.696678 
L 145.855015 148.515361 
L 147.28222 139.214123 
L 148.709424 128.328504 
L 150.136629 120.616975 
L 151.563833 115.997801 
L 152.991037 110.671768 
L 155.845446 99.120214 
L 157.27265 95.34907 
L 158.699855 90.084795 
L 160.127059 87.229008 
L 161.554263 82.709786 
L 162.981468 79.009271 
L 165.835877 75.734542 
L 167.263081 75.087608 
L 170.11749 69.346338 
L 171.544694 70.055951 
L 172.971898 68.597026 
L 174.399103 67.936473 
L 175.826307 66.440929 
L 177.253512 66.244139 
L 180.10792 62.488097 
L 181.535125 62.88385 
L 182.962329 64.314463 
L 184.389533 63.820542 
L 185.816738 62.790112 
L 187.243942 64.172696 
L 188.671147 63.599095 
L 190.098351 61.433014 
L 191.525555 61.965806 
L 192.95276 59.67691 
L 195.807168 55.820415 
L 197.234373 55.849347 
L 198.661577 55.533925 
L 200.088782 56.78373 
L 201.515986 56.634223 
L 202.94319 57.197722 
L 204.370395 57.992724 
L 205.797599 57.551772 
L 207.224803 59.676099 
L 208.652008 60.035354 
L 210.079212 59.473695 
L 211.506417 58.503394 
L 214.360825 55.441081 
L 215.78803 56.352931 
L 217.215234 58.881145 
L 218.642438 57.916406 
L 220.069643 57.171725 
L 221.496847 56.232945 
L 222.924052 56.688166 
L 224.351256 55.856777 
L 225.77846 56.582154 
L 227.205665 56.136021 
L 228.632869 56.44039 
L 230.060073 54.130623 
L 231.487278 54.975745 
L 232.914482 54.957434 
L 234.341687 56.198506 
L 235.768891 57.652587 
L 237.196095 58.777698 
L 238.6233 59.383657 
L 240.050504 59.393609 
L 241.477708 58.168551 
L 242.904913 58.94697 
L 244.332117 56.260345 
L 245.759322 55.794029 
L 247.186526 54.812826 
L 250.040935 56.452028 
L 251.468139 54.824103 
L 252.895343 53.924045 
L 254.322548 54.95794 
L 255.749752 54.506394 
L 257.176957 54.440621 
L 258.604161 55.684766 
L 260.031365 55.113564 
L 261.45857 56.28453 
L 262.885774 56.321069 
L 264.312978 60.017766 
L 265.740183 62.716283 
L 267.167387 66.168542 
L 268.594592 66.560942 
L 270.021796 63.96213 
L 271.449 62.231793 
L 272.876205 61.39006 
L 274.303409 63.336531 
L 275.730613 64.39709 
L 277.157818 66.273344 
L 278.585022 66.180434 
L 280.012227 65.634109 
L 281.439431 66.068657 
L 282.866635 63.301572 
L 284.29384 61.322729 
L 285.721044 60.004407 
L 287.148248 59.651016 
L 288.575453 57.639788 
L 290.002657 57.151134 
L 291.429862 57.204333 
L 292.857066 57.031266 
L 294.28427 56.599727 
L 295.711475 56.299321 
L 297.138679 55.763704 
L 298.565883 56.370262 
L 301.420292 56.345458 
L 302.847497 58.452088 
L 304.274701 57.049144 
L 305.701905 55.890789 
L 307.12911 54.180982 
L 308.556314 53.645504 
L 311.410723 54.675761 
L 312.837927 55.39044 
L 314.265132 53.573905 
L 315.692336 54.02795 
L 317.11954 56.660643 
L 319.973949 55.80299 
L 322.828358 54.425674 
L 324.255562 53.687625 
L 325.682767 54.950876 
L 327.109971 54.56183 
L 328.537175 53.073716 
L 329.96438 52.443096 
L 332.818788 57.251403 
L 334.245993 55.913434 
L 335.673197 55.818053 
L 337.100402 56.630486 
L 338.527606 56.65244 
L 341.382015 54.486217 
L 342.809219 55.090961 
L 344.236423 55.900878 
L 345.663628 57.141886 
L 347.090832 55.218234 
L 348.518037 57.428623 
L 349.945241 56.291183 
L 351.372445 57.956093 
L 352.79965 57.869896 
L 354.226854 57.577302 
L 355.654058 57.806229 
L 358.508467 54.016195 
L 359.935672 54.077942 
L 361.362876 54.472698 
L 362.79008 56.301608 
L 364.217285 57.543594 
L 365.644489 57.65687 
L 367.071693 58.692286 
L 368.498898 60.774393 
L 369.926102 58.981815 
L 371.353307 58.315174 
L 372.780511 57.272676 
L 374.207715 58.58999 
L 375.63492 57.152198 
L 377.062124 57.018954 
L 378.489328 55.588339 
L 379.916533 56.133976 
L 381.343737 56.162241 
L 382.770942 55.672327 
L 384.198146 55.703082 
L 385.62535 54.227917 
L 387.052555 54.679146 
L 388.479759 53.740332 
L 389.906963 53.680867 
L 391.334168 53.232268 
L 392.761372 54.145146 
L 394.188577 55.257976 
L 395.615781 54.311406 
L 397.042985 56.48535 
L 398.47019 54.823949 
L 401.324598 53.478428 
L 402.751803 52.200515 
L 405.606212 52.992827 
L 407.033416 51.934542 
L 408.46062 52.679979 
L 409.887825 55.143069 
L 411.315029 54.598995 
L 412.742233 52.55611 
L 414.169438 53.178163 
L 415.596642 53.673566 
L 417.023847 55.947285 
L 418.451051 56.917024 
L 419.878255 58.673062 
L 421.30546 55.529456 
L 424.159868 51.338685 
L 425.587073 51.803653 
L 427.014277 51.152395 
L 428.441482 51.795105 
L 429.868686 51.640855 
L 431.29589 53.467963 
L 434.150299 54.321262 
L 435.577503 54.419786 
L 437.004708 55.30572 
L 438.431912 54.962836 
L 439.859117 54.247134 
L 441.286321 55.420803 
L 442.713525 55.568105 
L 444.14073 55.052507 
L 445.567934 56.710446 
L 446.995138 55.60682 
L 448.422343 55.379104 
L 449.849547 54.563259 
L 451.276752 52.727298 
L 452.703956 56.71634 
L 454.13116 56.788463 
L 455.558365 57.29999 
L 456.985569 58.254809 
L 458.412773 57.684564 
L 459.839978 58.888041 
L 462.694387 54.836787 
L 464.121591 53.26139 
L 465.548795 54.567833 
L 466.976 52.848226 
L 468.403204 53.449845 
L 469.830408 55.527606 
L 471.257613 56.76683 
L 472.684817 56.80407 
L 474.112022 57.082579 
L 475.539226 58.925653 
L 478.393635 58.863379 
L 479.820839 56.328678 
L 481.248043 55.570677 
L 482.675248 56.9221 
L 484.102452 57.37192 
L 485.529657 56.660633 
L 486.956861 57.967223 
L 488.384065 59.064955 
L 489.81127 61.596806 
L 491.238474 60.315212 
L 492.665678 59.192971 
L 494.092883 60.039568 
L 495.520087 59.091196 
L 496.947292 57.876162 
L 498.374496 57.302632 
L 499.8017 57.060486 
L 501.228905 56.997197 
L 502.656109 59.609659 
L 504.083313 58.294778 
L 505.510518 55.604107 
L 506.937722 55.344721 
L 508.364927 54.227849 
L 509.792131 53.915474 
L 511.219335 53.789537 
L 512.64654 55.410385 
L 514.073744 54.821068 
L 515.500948 55.753265 
L 516.928153 55.66012 
L 518.355357 56.318332 
L 519.782562 55.190407 
L 521.209766 55.970123 
L 522.63697 57.523673 
L 524.064175 59.808294 
L 525.491379 59.258887 
L 526.918583 58.869854 
L 528.345788 57.398118 
L 529.772992 56.612834 
L 531.200197 57.537193 
L 532.627401 59.162093 
L 534.054605 58.517469 
L 535.48181 60.328628 
L 536.909014 58.565501 
L 538.336218 57.916292 
L 541.190627 56.124678 
L 542.617832 58.112605 
L 544.045036 58.431299 
L 545.47224 58.565613 
L 546.899445 57.684758 
L 548.326649 57.719108 
L 549.753853 57.010798 
L 551.181058 55.299271 
L 552.608262 54.855872 
L 555.462671 54.358725 
L 556.889875 54.805072 
L 558.31708 56.533436 
L 559.744284 57.237613 
L 561.171488 55.611561 
L 562.598693 56.22878 
L 564.025897 54.424795 
L 565.453102 56.634828 
L 566.880306 57.161289 
L 568.30751 55.70889 
L 569.734715 57.427303 
L 571.161919 56.341013 
L 572.589123 56.442961 
L 574.016328 57.365468 
L 575.443532 56.982593 
L 576.870737 55.694973 
L 578.297941 56.760794 
L 579.725145 56.131172 
L 581.15235 56.346376 
L 582.579554 55.311877 
L 584.006758 55.9313 
L 585.433963 55.370337 
L 586.861167 54.352309 
L 588.288371 52.580214 
L 589.715576 52.41736 
L 591.14278 52.051137 
L 592.569985 50.225483 
L 593.997189 51.94251 
L 595.424393 51.784622 
L 596.851598 51.982612 
L 598.278802 51.616848 
L 599.706006 52.993981 
L 601.133211 54.009121 
L 602.560415 56.062345 
L 603.98762 56.042555 
L 605.414824 55.35897 
L 606.842028 54.428955 
L 608.269233 52.044101 
L 609.696437 51.437188 
L 611.123641 51.409366 
L 612.550846 52.834117 
L 613.97805 54.721738 
L 615.405255 53.733685 
L 616.832459 54.607154 
L 618.259663 56.313804 
L 619.686868 56.964591 
L 622.541276 54.410676 
L 623.968481 55.544636 
L 625.395685 55.542262 
L 626.82289 55.078072 
L 628.250094 57.676364 
L 629.677298 57.74367 
L 631.104503 55.597229 
L 632.531707 57.272287 
L 633.958911 54.461764 
L 635.386116 53.850281 
L 636.81332 52.476048 
L 638.240525 51.750789 
L 639.667729 54.157278 
L 641.094933 52.831811 
L 642.522138 53.063601 
L 643.949342 52.706387 
L 645.376546 53.050683 
L 646.803751 52.590317 
L 648.230955 52.959979 
L 649.65816 53.075989 
L 651.085364 55.325028 
L 652.512568 57.037166 
L 653.939773 57.634194 
L 653.939773 57.634194 
" clip-path="url(#pb90b875b68)" style="fill: none; stroke: #1f77b4; stroke-width: 1.2; stroke-linecap: square"/>
   </g>
   <g id="line2d_32">
    <path d="M 84.485227 238.972202 
L 85.912432 237.420333 
L 87.339636 249.029461 
L 88.76684 250.649445 
L 90.194045 262.03366 
L 91.621249 267.90229 
L 93.048454 267.815675 
L 94.475658 266.261801 
L 95.902862 275.416355 
L 97.330067 273.57419 
L 98.757271 269.976817 
L 100.184475 265.666323 
L 101.61168 270.043149 
L 103.038884 272.914004 
L 104.466089 272.19932 
L 105.893293 278.82682 
L 107.320497 283.629403 
L 108.747702 280.739788 
L 110.174906 273.346781 
L 111.60211 273.876955 
L 113.029315 273.024072 
L 114.456519 269.521457 
L 115.883724 264.804971 
L 117.310928 263.313052 
L 118.738132 263.555113 
L 120.165337 281.53945 
L 121.592541 278.027406 
L 123.019745 277.857778 
L 124.44695 268.913046 
L 125.874154 276.21183 
L 127.301359 290.129819 
L 128.728563 286.182979 
L 130.155767 279.040125 
L 131.582972 282.777507 
L 133.010176 288.999007 
L 134.43738 288.044231 
L 135.864585 304.423102 
L 137.291789 305.5969 
L 138.718994 299.75592 
L 140.146198 300.736057 
L 141.573402 309.963203 
L 143.000607 312.295456 
L 144.427811 305.147862 
L 145.855015 308.001044 
L 147.28222 311.758034 
L 148.709424 313.554419 
L 150.136629 306.036946 
L 152.991037 258.638754 
L 154.418242 237.582508 
L 158.699855 183.46433 
L 160.127059 169.048611 
L 162.981468 145.855226 
L 164.408672 136.466792 
L 165.835877 129.548488 
L 167.263081 123.761077 
L 168.690285 115.008961 
L 171.544694 106.435145 
L 172.971898 101.446624 
L 174.399103 95.689181 
L 175.826307 92.076855 
L 177.253512 87.38153 
L 178.680716 85.626671 
L 180.10792 81.765959 
L 181.535125 78.715478 
L 182.962329 75.007151 
L 184.389533 74.556652 
L 185.816738 73.176398 
L 187.243942 69.513328 
L 188.671147 69.512282 
L 190.098351 67.72539 
L 191.525555 66.40517 
L 192.95276 64.105169 
L 194.379964 66.344997 
L 195.807168 64.125724 
L 197.234373 62.762043 
L 198.661577 60.670083 
L 200.088782 61.451214 
L 201.515986 61.247836 
L 202.94319 61.550974 
L 204.370395 60.378454 
L 205.797599 61.805159 
L 207.224803 60.368551 
L 208.652008 60.369052 
L 210.079212 59.652688 
L 211.506417 61.649598 
L 212.933621 58.323007 
L 214.360825 57.482323 
L 215.78803 53.995234 
L 217.215234 55.310769 
L 218.642438 56.049353 
L 220.069643 55.571808 
L 221.496847 55.662364 
L 222.924052 56.342169 
L 224.351256 56.395458 
L 225.77846 55.21131 
L 227.205665 55.804138 
L 228.632869 55.713159 
L 230.060073 54.748045 
L 231.487278 54.173347 
L 232.914482 55.413842 
L 234.341687 56.920023 
L 235.768891 56.12431 
L 237.196095 56.745484 
L 238.6233 55.569979 
L 240.050504 53.920946 
L 241.477708 55.591632 
L 242.904913 55.132442 
L 244.332117 56.105365 
L 245.759322 56.50854 
L 247.186526 57.705152 
L 248.61373 59.3945 
L 250.040935 60.805615 
L 251.468139 58.917732 
L 252.895343 58.32212 
L 254.322548 56.716443 
L 255.749752 56.808052 
L 257.176957 58.474605 
L 258.604161 60.431987 
L 260.031365 59.943132 
L 261.45857 60.021979 
L 262.885774 60.501029 
L 265.740183 57.802515 
L 267.167387 57.77021 
L 268.594592 59.302893 
L 270.021796 59.360745 
L 272.876205 57.260772 
L 274.303409 56.545577 
L 275.730613 60.013576 
L 277.157818 60.284538 
L 278.585022 60.197321 
L 280.012227 56.775004 
L 281.439431 56.312073 
L 282.866635 56.442314 
L 284.29384 54.058024 
L 285.721044 54.534782 
L 287.148248 53.516395 
L 288.575453 54.149957 
L 290.002657 53.477187 
L 291.429862 54.529623 
L 292.857066 54.646222 
L 294.28427 52.374592 
L 295.711475 52.787727 
L 297.138679 55.914753 
L 298.565883 56.285403 
L 299.993088 55.603659 
L 301.420292 55.83931 
L 302.847497 56.507802 
L 304.274701 56.671135 
L 305.701905 57.360318 
L 307.12911 56.03917 
L 308.556314 56.184641 
L 309.983518 55.868752 
L 311.410723 57.802526 
L 312.837927 55.897839 
L 314.265132 56.480021 
L 315.692336 58.997294 
L 317.11954 59.926478 
L 318.546745 61.156622 
L 319.973949 60.048749 
L 321.401153 61.48489 
L 322.828358 60.540093 
L 324.255562 60.969586 
L 325.682767 62.494205 
L 327.109971 60.918613 
L 328.537175 61.811224 
L 331.391584 60.062813 
L 332.818788 59.791022 
L 334.245993 60.239034 
L 335.673197 60.381811 
L 337.100402 60.915009 
L 338.527606 60.618921 
L 339.95481 59.921284 
L 341.382015 57.113194 
L 342.809219 54.995101 
L 344.236423 53.664869 
L 345.663628 54.309525 
L 347.090832 55.487528 
L 348.518037 54.32447 
L 349.945241 56.112224 
L 351.372445 55.76753 
L 352.79965 54.126306 
L 354.226854 54.313887 
L 355.654058 55.96644 
L 357.081263 57.387057 
L 359.935672 56.668827 
L 361.362876 53.298279 
L 362.79008 54.147413 
L 364.217285 54.175097 
L 365.644489 54.557014 
L 367.071693 54.475009 
L 368.498898 53.867329 
L 369.926102 53.540418 
L 372.780511 49.925413 
L 374.207715 49.775768 
L 375.63492 53.073749 
L 377.062124 54.412983 
L 378.489328 54.398607 
L 379.916533 54.803885 
L 382.770942 57.947557 
L 384.198146 56.054921 
L 385.62535 55.516686 
L 387.052555 54.726901 
L 388.479759 56.82864 
L 389.906963 57.921886 
L 391.334168 56.807808 
L 392.761372 56.166363 
L 395.615781 54.351328 
L 397.042985 54.089147 
L 398.47019 52.556214 
L 399.897394 53.670597 
L 401.324598 54.422019 
L 402.751803 58.601732 
L 404.179007 55.028785 
L 405.606212 54.161123 
L 407.033416 52.987346 
L 408.46062 53.600241 
L 409.887825 54.379067 
L 411.315029 54.781669 
L 412.742233 53.788685 
L 414.169438 53.231168 
L 415.596642 54.602491 
L 417.023847 56.282259 
L 419.878255 57.323459 
L 421.30546 58.861174 
L 422.732664 57.425176 
L 424.159868 58.324759 
L 425.587073 56.258284 
L 427.014277 56.719452 
L 428.441482 55.391909 
L 429.868686 53.714328 
L 431.29589 54.980838 
L 432.723095 56.76312 
L 434.150299 54.404365 
L 435.577503 54.701577 
L 437.004708 54.00757 
L 438.431912 54.822647 
L 441.286321 57.179348 
L 442.713525 57.323323 
L 444.14073 56.804152 
L 445.567934 57.1315 
L 446.995138 57.309475 
L 448.422343 56.715221 
L 451.276752 59.792318 
L 452.703956 60.202257 
L 454.13116 58.823388 
L 455.558365 60.624811 
L 456.985569 60.355329 
L 458.412773 61.214868 
L 459.839978 59.289447 
L 461.267182 59.633701 
L 462.694387 59.333611 
L 464.121591 57.535653 
L 465.548795 57.692324 
L 466.976 58.836962 
L 468.403204 56.62054 
L 469.830408 57.183579 
L 471.257613 58.255283 
L 472.684817 57.082425 
L 474.112022 58.296838 
L 475.539226 58.930137 
L 476.96643 58.700346 
L 478.393635 59.696339 
L 479.820839 61.047819 
L 481.248043 58.521449 
L 482.675248 60.463455 
L 484.102452 57.488306 
L 485.529657 58.236687 
L 486.956861 57.747827 
L 488.384065 57.963294 
L 489.81127 57.787967 
L 491.238474 56.336398 
L 494.092883 57.029212 
L 495.520087 59.995245 
L 496.947292 61.1987 
L 498.374496 59.554712 
L 499.8017 59.718208 
L 501.228905 59.542209 
L 502.656109 61.22408 
L 504.083313 60.137311 
L 505.510518 61.488136 
L 506.937722 59.522558 
L 508.364927 60.515996 
L 509.792131 58.547172 
L 511.219335 58.878136 
L 512.64654 58.423021 
L 514.073744 57.403551 
L 515.500948 55.999706 
L 516.928153 56.65961 
L 518.355357 58.139369 
L 519.782562 58.986771 
L 521.209766 58.401571 
L 522.63697 56.346563 
L 524.064175 57.22415 
L 525.491379 57.545225 
L 526.918583 59.317894 
L 528.345788 58.214536 
L 529.772992 59.081694 
L 531.200197 58.911355 
L 532.627401 57.833355 
L 534.054605 57.61175 
L 535.48181 58.437793 
L 536.909014 58.337482 
L 538.336218 57.240867 
L 539.763423 58.59839 
L 541.190627 58.811588 
L 544.045036 54.099393 
L 545.47224 56.107155 
L 546.899445 56.397735 
L 548.326649 55.600059 
L 549.753853 54.655952 
L 551.181058 54.128676 
L 552.608262 55.066228 
L 554.035467 55.467019 
L 555.462671 54.248746 
L 556.889875 53.239279 
L 558.31708 53.403213 
L 559.744284 56.010138 
L 561.171488 56.232372 
L 562.598693 57.913379 
L 564.025897 58.242378 
L 565.453102 58.381793 
L 566.880306 59.668477 
L 568.30751 58.17978 
L 569.734715 57.603103 
L 571.161919 58.475372 
L 572.589123 59.05316 
L 574.016328 59.456487 
L 575.443532 58.958233 
L 576.870737 57.85426 
L 578.297941 57.820117 
L 579.725145 57.585732 
L 581.15235 56.616892 
L 582.579554 57.389082 
L 584.006758 57.190408 
L 585.433963 57.370601 
L 586.861167 57.787815 
L 588.288371 59.743882 
L 589.715576 58.20861 
L 591.14278 56.857091 
L 592.569985 55.984648 
L 593.997189 57.144454 
L 595.424393 56.328865 
L 596.851598 57.857633 
L 598.278802 56.517804 
L 601.133211 57.278077 
L 602.560415 58.361027 
L 603.98762 58.252982 
L 605.414824 56.46568 
L 606.842028 53.835392 
L 609.696437 55.026107 
L 611.123641 56.933324 
L 612.550846 56.667537 
L 613.97805 58.640052 
L 616.832459 57.268905 
L 618.259663 58.460451 
L 619.686868 57.259964 
L 621.114072 58.610347 
L 623.968481 60.148592 
L 625.395685 60.449466 
L 626.82289 61.29422 
L 628.250094 61.793926 
L 631.104503 61.350636 
L 632.531707 59.149205 
L 635.386116 59.046027 
L 636.81332 59.885799 
L 639.667729 60.565873 
L 641.094933 60.254321 
L 642.522138 61.165927 
L 643.949342 59.728696 
L 649.65816 58.558747 
L 651.085364 56.825235 
L 652.512568 57.73113 
L 653.939773 55.435653 
L 653.939773 55.435653 
" clip-path="url(#pb90b875b68)" style="fill: none; stroke: #ff7f0e; stroke-width: 1.2; stroke-linecap: square"/>
   </g>
   <g id="line2d_33">
    <path d="M 84.485227 285.541775 
L 85.912432 276.316029 
L 87.339636 270.553533 
L 88.76684 272.390036 
L 90.194045 276.742371 
L 91.621249 269.589378 
L 93.048454 263.600846 
L 94.475658 266.613795 
L 95.902862 266.256195 
L 97.330067 264.692532 
L 98.757271 269.459688 
L 100.184475 271.61387 
L 101.61168 279.963279 
L 103.038884 282.63042 
L 105.893293 279.37263 
L 107.320497 273.46113 
L 108.747702 273.292857 
L 110.174906 276.474318 
L 111.60211 278.718496 
L 113.029315 280.122585 
L 114.456519 284.784999 
L 115.883724 283.314548 
L 117.310928 282.743594 
L 118.738132 293.986191 
L 120.165337 296.638745 
L 121.592541 290.030755 
L 123.019745 281.886011 
L 124.44695 277.769832 
L 125.874154 278.807805 
L 127.301359 280.845889 
L 128.728563 283.826135 
L 130.155767 284.78561 
L 131.582972 287.813875 
L 133.010176 288.468272 
L 134.43738 294.166136 
L 135.864585 288.9662 
L 137.291789 290.816746 
L 138.718994 287.982858 
L 140.146198 292.385839 
L 141.573402 300.769931 
L 143.000607 295.108328 
L 144.427811 293.929218 
L 145.855015 283.868831 
L 147.28222 294.309748 
L 148.709424 300.935324 
L 150.136629 305.320342 
L 151.563833 303.260429 
L 152.991037 305.516991 
L 154.418242 316.347104 
L 155.845446 304.714656 
L 157.27265 307.908624 
L 158.699855 303.944169 
L 160.127059 295.55353 
L 162.981468 315.02518 
L 164.408672 321.47997 
L 165.835877 323.352076 
L 167.263081 327.24716 
L 168.690285 319.957543 
L 170.11749 315.624577 
L 171.544694 316.825701 
L 172.971898 329.194275 
L 174.399103 317.801681 
L 175.826307 323.137847 
L 177.253512 324.631522 
L 178.680716 325.621873 
L 180.10792 320.258225 
L 181.535125 335.529055 
L 182.962329 316.815976 
L 184.389533 313.772765 
L 185.816738 317.233725 
L 187.243942 310.888166 
L 188.671147 315.814077 
L 190.098351 310.103824 
L 191.525555 313.024022 
L 192.95276 305.302077 
L 194.379964 309.966122 
L 195.807168 306.196594 
L 197.234373 309.365701 
L 198.661577 304.951738 
L 200.088782 309.595703 
L 201.515986 303.786033 
L 202.94319 304.435534 
L 204.370395 302.37893 
L 205.797599 297.846488 
L 207.224803 297.270065 
L 208.652008 304.055705 
L 210.079212 314.058739 
L 211.506417 299.609265 
L 212.933621 304.443961 
L 214.360825 305.152893 
L 215.78803 310.296519 
L 217.215234 317.378889 
L 218.642438 308.239452 
L 220.069643 311.352711 
L 221.496847 317.80841 
L 222.924052 316.562553 
L 224.351256 324.545789 
L 225.77846 313.947097 
L 227.205665 306.692447 
L 228.632869 305.33689 
L 230.060073 302.345206 
L 231.487278 309.363709 
L 232.914482 303.402876 
L 234.341687 308.622377 
L 235.768891 301.986631 
L 237.196095 308.844177 
L 238.6233 305.050811 
L 240.050504 302.221737 
L 241.477708 292.557498 
L 242.904913 291.872581 
L 244.332117 283.468063 
L 245.759322 282.438879 
L 247.186526 289.104655 
L 248.61373 290.203917 
L 250.040935 273.558894 
L 252.895343 233.578801 
L 254.322548 218.614132 
L 257.176957 185.012024 
L 258.604161 169.907338 
L 260.031365 157.078043 
L 262.885774 139.900739 
L 264.312978 131.730814 
L 265.740183 122.876145 
L 267.167387 117.655555 
L 268.594592 108.928405 
L 270.021796 102.882893 
L 271.449 98.046529 
L 272.876205 94.872325 
L 274.303409 92.652263 
L 275.730613 89.402847 
L 277.157818 85.77229 
L 280.012227 79.702566 
L 281.439431 79.091124 
L 282.866635 75.343616 
L 284.29384 73.200493 
L 285.721044 70.806629 
L 288.575453 67.828335 
L 290.002657 67.846292 
L 291.429862 65.20893 
L 292.857066 66.591899 
L 294.28427 65.205018 
L 295.711475 62.763699 
L 297.138679 61.373861 
L 298.565883 61.972203 
L 299.993088 61.728098 
L 302.847497 59.748715 
L 304.274701 57.065622 
L 305.701905 56.699311 
L 307.12911 55.650999 
L 308.556314 56.393518 
L 309.983518 59.162589 
L 311.410723 59.881926 
L 312.837927 58.501548 
L 314.265132 60.862513 
L 315.692336 59.318512 
L 317.11954 57.288089 
L 319.973949 55.393812 
L 321.401153 54.736877 
L 322.828358 55.740514 
L 324.255562 57.058748 
L 325.682767 56.762639 
L 327.109971 59.79381 
L 328.537175 59.599673 
L 329.96438 59.840767 
L 331.391584 58.098112 
L 332.818788 57.536211 
L 334.245993 59.727577 
L 335.673197 58.268435 
L 337.100402 56.262636 
L 338.527606 57.853219 
L 339.95481 55.08806 
L 342.809219 52.276812 
L 344.236423 53.437531 
L 345.663628 52.073141 
L 347.090832 52.22505 
L 348.518037 54.396779 
L 349.945241 55.559199 
L 351.372445 53.78454 
L 352.79965 55.174485 
L 354.226854 54.447928 
L 355.654058 53.404231 
L 357.081263 53.315177 
L 358.508467 53.490918 
L 359.935672 53.96616 
L 361.362876 55.58417 
L 362.79008 56.890569 
L 364.217285 57.004587 
L 365.644489 56.261456 
L 367.071693 56.708057 
L 368.498898 56.407515 
L 369.926102 56.665003 
L 371.353307 57.674234 
L 372.780511 57.99031 
L 374.207715 57.392501 
L 375.63492 57.763654 
L 377.062124 57.84166 
L 378.489328 59.035872 
L 379.916533 59.142353 
L 381.343737 59.960411 
L 382.770942 61.26567 
L 385.62535 57.564191 
L 387.052555 56.432847 
L 388.479759 56.830259 
L 389.906963 55.55441 
L 391.334168 53.30834 
L 392.761372 52.434266 
L 394.188577 49.566721 
L 395.615781 50.160442 
L 398.47019 53.539851 
L 399.897394 53.152387 
L 401.324598 53.531755 
L 402.751803 57.217486 
L 404.179007 56.886243 
L 405.606212 56.358452 
L 407.033416 56.897596 
L 408.46062 53.502215 
L 409.887825 54.224963 
L 411.315029 55.436457 
L 412.742233 55.442044 
L 414.169438 53.513072 
L 417.023847 55.826322 
L 418.451051 55.280325 
L 419.878255 55.118108 
L 421.30546 55.756444 
L 422.732664 56.986033 
L 424.159868 59.011367 
L 425.587073 58.069182 
L 427.014277 57.881958 
L 428.441482 57.879589 
L 429.868686 54.855477 
L 431.29589 55.290769 
L 432.723095 55.210918 
L 434.150299 54.496503 
L 435.577503 56.142927 
L 437.004708 55.031885 
L 438.431912 53.614623 
L 439.859117 54.088945 
L 441.286321 53.297086 
L 442.713525 55.606062 
L 444.14073 56.28802 
L 445.567934 57.820945 
L 446.995138 61.14364 
L 448.422343 60.446076 
L 449.849547 62.122142 
L 451.276752 61.941043 
L 452.703956 61.116571 
L 455.558365 57.544988 
L 456.985569 57.464532 
L 458.412773 56.52709 
L 459.839978 54.874767 
L 461.267182 55.474293 
L 462.694387 52.165858 
L 464.121591 52.5032 
L 465.548795 55.766133 
L 466.976 57.450786 
L 468.403204 58.126179 
L 469.830408 58.162734 
L 471.257613 57.185501 
L 472.684817 56.762602 
L 474.112022 55.987995 
L 475.539226 55.462405 
L 476.96643 56.540734 
L 478.393635 57.400627 
L 479.820839 56.954548 
L 481.248043 55.629371 
L 482.675248 56.829304 
L 484.102452 56.732534 
L 485.529657 57.654417 
L 486.956861 56.127652 
L 488.384065 54.126181 
L 489.81127 55.006923 
L 491.238474 54.525833 
L 492.665678 55.288747 
L 496.947292 52.290557 
L 498.374496 53.097113 
L 499.8017 53.517328 
L 501.228905 55.807027 
L 502.656109 56.147962 
L 504.083313 56.111797 
L 505.510518 54.323714 
L 506.937722 55.812302 
L 508.364927 56.921331 
L 509.792131 57.476368 
L 511.219335 59.355326 
L 512.64654 57.887808 
L 514.073744 57.044637 
L 515.500948 56.714286 
L 516.928153 57.861155 
L 518.355357 58.680714 
L 519.782562 57.278624 
L 521.209766 57.117649 
L 522.63697 58.695623 
L 524.064175 58.053381 
L 525.491379 58.607206 
L 526.918583 58.506198 
L 528.345788 59.523589 
L 529.772992 60.316546 
L 531.200197 59.766937 
L 532.627401 58.258416 
L 534.054605 57.306017 
L 535.48181 56.596868 
L 536.909014 56.942809 
L 538.336218 56.708585 
L 541.190627 55.365398 
L 542.617832 54.51908 
L 544.045036 52.468681 
L 545.47224 51.719596 
L 546.899445 51.967758 
L 548.326649 51.977349 
L 549.753853 53.472476 
L 551.181058 53.455067 
L 552.608262 52.265635 
L 554.035467 50.912889 
L 555.462671 48.838145 
L 556.889875 50.20475 
L 558.31708 52.083797 
L 559.744284 53.10978 
L 561.171488 52.70401 
L 564.025897 52.384411 
L 565.453102 53.420227 
L 568.30751 55.034786 
L 569.734715 57.523958 
L 572.589123 58.063606 
L 574.016328 57.865035 
L 575.443532 57.369557 
L 576.870737 55.141648 
L 578.297941 54.216956 
L 579.725145 55.626923 
L 582.579554 56.912332 
L 584.006758 59.334302 
L 585.433963 58.483274 
L 586.861167 59.321139 
L 588.288371 57.716347 
L 589.715576 58.00462 
L 591.14278 58.516945 
L 592.569985 58.150371 
L 593.997189 56.541617 
L 595.424393 55.654021 
L 596.851598 55.591597 
L 598.278802 56.799427 
L 599.706006 57.326591 
L 601.133211 57.603945 
L 602.560415 56.312603 
L 603.98762 55.829853 
L 605.414824 55.922665 
L 606.842028 54.68244 
L 608.269233 51.769133 
L 609.696437 51.809445 
L 611.123641 51.700067 
L 612.550846 51.374527 
L 613.97805 50.721666 
L 615.405255 50.298897 
L 616.832459 50.639858 
L 618.259663 51.650594 
L 621.114072 55.924379 
L 622.541276 55.229226 
L 623.968481 54.786132 
L 625.395685 56.309907 
L 626.82289 56.997008 
L 628.250094 58.718326 
L 629.677298 56.975256 
L 631.104503 57.239406 
L 632.531707 59.24838 
L 633.958911 60.070705 
L 635.386116 60.65426 
L 636.81332 60.640483 
L 638.240525 62.675305 
L 639.667729 63.217954 
L 641.094933 60.066354 
L 642.522138 58.212855 
L 643.949342 58.834792 
L 645.376546 57.159343 
L 646.803751 58.175541 
L 648.230955 57.185522 
L 649.65816 55.937405 
L 651.085364 55.683627 
L 652.512568 57.553611 
L 653.939773 58.661996 
L 653.939773 58.661996 
" clip-path="url(#pb90b875b68)" style="fill: none; stroke: #2ca02c; stroke-width: 1.2; stroke-linecap: square"/>
   </g>
   <g id="line2d_34">
    <path d="M 84.485227 285.541775 
L 85.912432 277.07177 
L 87.339636 267.816695 
L 90.194045 242.791272 
L 91.621249 225.019044 
L 95.902862 188.24941 
L 97.330067 174.193564 
L 100.184475 153.927483 
L 101.61168 146.174493 
L 103.038884 137.686121 
L 107.320497 118.528608 
L 108.747702 110.758114 
L 110.174906 108.616224 
L 111.60211 104.366477 
L 113.029315 98.596129 
L 114.456519 93.403627 
L 115.883724 89.377196 
L 117.310928 87.713845 
L 118.738132 82.502309 
L 120.165337 79.890655 
L 121.592541 79.769632 
L 123.019745 77.166807 
L 124.44695 76.303778 
L 125.874154 75.974205 
L 127.301359 74.654337 
L 128.728563 70.507783 
L 131.582972 68.225821 
L 133.010176 66.34957 
L 134.43738 65.984238 
L 135.864585 67.21316 
L 137.291789 67.783826 
L 138.718994 67.536119 
L 140.146198 64.389229 
L 141.573402 63.369783 
L 143.000607 62.850402 
L 144.427811 64.003764 
L 145.855015 61.287436 
L 147.28222 59.642329 
L 148.709424 60.633371 
L 150.136629 61.361654 
L 151.563833 61.732061 
L 152.991037 60.787739 
L 154.418242 60.847217 
L 155.845446 59.948053 
L 157.27265 58.022609 
L 158.699855 58.614575 
L 160.127059 59.046285 
L 161.554263 58.497997 
L 162.981468 58.140992 
L 164.408672 56.14935 
L 165.835877 55.221214 
L 167.263081 55.524995 
L 168.690285 56.459448 
L 170.11749 56.710684 
L 171.544694 57.205796 
L 172.971898 55.132034 
L 174.399103 55.461092 
L 175.826307 54.174791 
L 177.253512 53.729857 
L 178.680716 54.275932 
L 180.10792 55.572365 
L 181.535125 56.234322 
L 182.962329 57.559783 
L 184.389533 55.74797 
L 185.816738 56.775483 
L 187.243942 58.426898 
L 188.671147 57.380055 
L 190.098351 59.381388 
L 191.525555 59.900082 
L 192.95276 61.772759 
L 194.379964 61.453898 
L 195.807168 62.557016 
L 197.234373 61.204389 
L 198.661577 60.159859 
L 200.088782 58.404523 
L 201.515986 58.856446 
L 202.94319 59.992561 
L 204.370395 59.682807 
L 205.797599 57.707746 
L 207.224803 56.018657 
L 208.652008 53.382484 
L 210.079212 53.457892 
L 211.506417 52.332151 
L 212.933621 52.707099 
L 214.360825 52.177138 
L 215.78803 50.352016 
L 217.215234 53.678981 
L 218.642438 53.3959 
L 220.069643 52.991002 
L 221.496847 52.858375 
L 222.924052 51.794406 
L 224.351256 51.89947 
L 225.77846 50.661503 
L 228.632869 50.133677 
L 230.060073 49.294409 
L 232.914482 50.232061 
L 234.341687 51.397158 
L 235.768891 51.247659 
L 237.196095 50.137324 
L 238.6233 52.481676 
L 240.050504 55.204336 
L 241.477708 55.599079 
L 242.904913 57.479951 
L 244.332117 59.752521 
L 245.759322 56.368282 
L 247.186526 54.770506 
L 248.61373 54.004941 
L 250.040935 52.305989 
L 251.468139 52.661252 
L 252.895343 53.464398 
L 254.322548 53.591972 
L 255.749752 52.789842 
L 257.176957 52.27336 
L 258.604161 53.179422 
L 260.031365 55.583233 
L 261.45857 58.629034 
L 262.885774 56.724637 
L 264.312978 55.197551 
L 265.740183 55.465933 
L 267.167387 56.288751 
L 271.449 54.048348 
L 272.876205 54.711276 
L 274.303409 57.099277 
L 275.730613 54.056886 
L 277.157818 54.491614 
L 278.585022 54.802313 
L 280.012227 54.701777 
L 281.439431 56.773667 
L 282.866635 56.210591 
L 284.29384 56.191621 
L 285.721044 57.467594 
L 287.148248 55.726687 
L 288.575453 55.198579 
L 290.002657 55.267354 
L 291.429862 54.706817 
L 292.857066 55.527608 
L 294.28427 55.026206 
L 295.711475 55.067256 
L 297.138679 55.830027 
L 298.565883 58.341937 
L 299.993088 59.710934 
L 301.420292 60.194715 
L 302.847497 58.362934 
L 304.274701 57.091104 
L 305.701905 56.646669 
L 307.12911 54.43696 
L 308.556314 52.853079 
L 309.983518 52.960202 
L 311.410723 54.08669 
L 312.837927 53.403574 
L 314.265132 56.741153 
L 317.11954 54.065394 
L 318.546745 55.037206 
L 319.973949 56.672466 
L 321.401153 56.538387 
L 322.828358 58.150557 
L 324.255562 57.829613 
L 325.682767 56.240679 
L 327.109971 57.045009 
L 328.537175 54.820516 
L 329.96438 56.743664 
L 331.391584 56.034398 
L 332.818788 54.327795 
L 334.245993 53.435244 
L 335.673197 54.369648 
L 337.100402 53.190205 
L 338.527606 50.329171 
L 339.95481 50.582978 
L 341.382015 51.927585 
L 342.809219 52.770196 
L 345.663628 51.827278 
L 347.090832 53.672221 
L 349.945241 53.380348 
L 351.372445 53.005296 
L 352.79965 54.184111 
L 354.226854 53.832744 
L 355.654058 54.466356 
L 357.081263 53.221844 
L 358.508467 53.222432 
L 359.935672 53.697974 
L 361.362876 53.632732 
L 362.79008 55.951546 
L 364.217285 55.778994 
L 365.644489 58.840152 
L 367.071693 57.761304 
L 368.498898 56.948398 
L 369.926102 55.71572 
L 371.353307 56.081938 
L 372.780511 57.489544 
L 374.207715 57.214387 
L 375.63492 55.587662 
L 378.489328 54.486035 
L 381.343737 55.687891 
L 382.770942 55.62684 
L 384.198146 57.11506 
L 385.62535 55.933931 
L 387.052555 56.150149 
L 388.479759 55.454625 
L 389.906963 53.758165 
L 391.334168 55.072352 
L 392.761372 53.765546 
L 394.188577 53.101921 
L 395.615781 55.200719 
L 397.042985 54.340317 
L 398.47019 54.98217 
L 399.897394 54.772547 
L 401.324598 55.881568 
L 404.179007 57.452102 
L 405.606212 57.619098 
L 408.46062 55.957365 
L 409.887825 55.918083 
L 414.169438 57.53831 
L 415.596642 57.212179 
L 417.023847 57.816263 
L 418.451051 55.104147 
L 419.878255 55.936422 
L 421.30546 55.632748 
L 422.732664 56.354108 
L 424.159868 54.81218 
L 425.587073 56.14555 
L 427.014277 57.207304 
L 428.441482 55.207503 
L 429.868686 56.748537 
L 431.29589 57.008235 
L 432.723095 55.633208 
L 434.150299 55.436711 
L 435.577503 55.469479 
L 437.004708 55.672134 
L 438.431912 58.544117 
L 439.859117 57.521058 
L 441.286321 56.870036 
L 442.713525 57.780942 
L 444.14073 58.120211 
L 445.567934 58.218698 
L 446.995138 55.477852 
L 448.422343 54.193055 
L 449.849547 53.271705 
L 451.276752 54.159364 
L 454.13116 53.350936 
L 455.558365 53.071513 
L 456.985569 53.253109 
L 458.412773 54.620348 
L 459.839978 54.838582 
L 461.267182 53.750295 
L 462.694387 54.645188 
L 464.121591 54.805833 
L 465.548795 54.5718 
L 466.976 52.721638 
L 468.403204 55.473412 
L 469.830408 56.625573 
L 471.257613 55.239935 
L 472.684817 54.515731 
L 474.112022 54.9636 
L 475.539226 54.469474 
L 476.96643 54.458468 
L 478.393635 55.589714 
L 479.820839 55.543815 
L 481.248043 51.99158 
L 482.675248 52.468442 
L 484.102452 50.830924 
L 485.529657 50.069154 
L 486.956861 52.885832 
L 488.384065 54.858214 
L 489.81127 54.901961 
L 491.238474 55.662705 
L 492.665678 55.150435 
L 494.092883 53.602389 
L 495.520087 54.622067 
L 496.947292 53.467236 
L 498.374496 53.97851 
L 499.8017 53.526101 
L 501.228905 57.324737 
L 502.656109 59.141613 
L 504.083313 58.836449 
L 505.510518 56.885549 
L 506.937722 56.417495 
L 508.364927 56.698464 
L 509.792131 54.209 
L 511.219335 54.145824 
L 512.64654 56.175295 
L 514.073744 56.536432 
L 515.500948 58.967289 
L 516.928153 59.479342 
L 518.355357 58.007946 
L 519.782562 60.422262 
L 521.209766 59.776949 
L 522.63697 60.462058 
L 525.491379 57.234265 
L 526.918583 58.670924 
L 528.345788 58.213969 
L 529.772992 57.069959 
L 531.200197 58.884837 
L 532.627401 58.303327 
L 534.054605 59.73149 
L 535.48181 57.752474 
L 536.909014 57.93059 
L 538.336218 59.947386 
L 541.190627 57.713964 
L 542.617832 59.524696 
L 544.045036 60.847574 
L 545.47224 61.805278 
L 546.899445 61.750552 
L 548.326649 60.793521 
L 549.753853 61.620167 
L 551.181058 59.423845 
L 552.608262 57.974553 
L 554.035467 57.826391 
L 555.462671 58.868869 
L 556.889875 58.343951 
L 559.744284 54.517131 
L 561.171488 56.13113 
L 564.025897 57.974347 
L 565.453102 57.432947 
L 566.880306 57.547933 
L 569.734715 59.310197 
L 571.161919 58.15772 
L 572.589123 58.773777 
L 574.016328 58.187864 
L 575.443532 57.11786 
L 576.870737 57.99827 
L 578.297941 57.279336 
L 579.725145 58.011815 
L 581.15235 60.048261 
L 582.579554 61.228408 
L 584.006758 60.576019 
L 586.861167 62.521332 
L 588.288371 60.553479 
L 589.715576 60.191048 
L 591.14278 61.250506 
L 592.569985 61.117083 
L 593.997189 61.238569 
L 595.424393 59.085286 
L 596.851598 58.402721 
L 598.278802 59.671137 
L 599.706006 59.883513 
L 601.133211 59.207723 
L 602.560415 60.398323 
L 603.98762 63.337886 
L 605.414824 63.029336 
L 606.842028 62.044062 
L 608.269233 63.275207 
L 609.696437 61.378646 
L 611.123641 61.68764 
L 612.550846 59.909101 
L 613.97805 60.955319 
L 615.405255 62.620839 
L 616.832459 60.32372 
L 618.259663 60.318446 
L 619.686868 58.748743 
L 621.114072 58.675301 
L 622.541276 58.088048 
L 623.968481 59.395849 
L 625.395685 60.268648 
L 626.82289 58.228422 
L 628.250094 57.029161 
L 629.677298 56.273188 
L 631.104503 58.966294 
L 632.531707 58.439002 
L 633.958911 56.055187 
L 635.386116 58.766994 
L 636.81332 59.108623 
L 638.240525 60.201629 
L 639.667729 58.672585 
L 641.094933 56.880019 
L 642.522138 56.758364 
L 643.949342 55.50781 
L 645.376546 54.792363 
L 646.803751 53.252213 
L 648.230955 52.443137 
L 649.65816 54.426288 
L 651.085364 53.644959 
L 652.512568 51.028201 
L 653.939773 51.80207 
L 653.939773 51.80207 
" clip-path="url(#pb90b875b68)" style="fill: none; stroke: #9b8ac9; stroke-width: 1.2; stroke-linecap: square"/>
   </g>
   <g id="patch_3">
    <path d="M 56.0125 349.8636 
L 56.0125 34.5036 
" style="fill: none; stroke: #000000; stroke-width: 0.8; stroke-linejoin: miter; stroke-linecap: square"/>
   </g>
   <g id="patch_4">
    <path d="M 682.4125 349.8636 
L 682.4125 34.5036 
" style="fill: none; stroke: #000000; stroke-width: 0.8; stroke-linejoin: miter; stroke-linecap: square"/>
   </g>
   <g id="patch_5">
    <path d="M 56.0125 349.8636 
L 682.4125 349.8636 
" style="fill: none; stroke: #000000; stroke-width: 0.8; stroke-linejoin: miter; stroke-linecap: square"/>
   </g>
   <g id="patch_6">
    <path d="M 56.0125 34.5036 
L 682.4125 34.5036 
" style="fill: none; stroke: #000000; stroke-width: 0.8; stroke-linejoin: miter; stroke-linecap: square"/>
   </g>
   <g id="legend_1">
    <g id="patch_7">
     <path d="M 56.0125 31.35 
L 682.4125 31.35 
L 682.4125 7.2 
L 56.0125 7.2 
z
" style="fill: #ffffff; stroke: #808080; stroke-width: 0.8; stroke-linejoin: miter"/>
    </g>
    <g id="line2d_35">
     <path d="M 62.3125 18.4 
L 76.3125 18.4 
L 90.3125 18.4 
" style="fill: none; stroke: #1f77b4; stroke-width: 1.2; stroke-linecap: square"/>
    </g>
    <g id="text_18">
     <!-- GCN-DDQN -->
     <g transform="translate(98.7125 23.3) scale(0.14 -0.14)">
      <defs>
       <path id="SimHei-47" d="M 2850 75 
L 2425 75 
L 2350 425 
Q 2250 275 2037 175 
Q 1825 75 1575 75 
Q 1050 75 637 562 
Q 225 1050 225 2125 
Q 225 3300 600 3875 
Q 975 4450 1625 4450 
Q 2200 4450 2525 4025 
Q 2850 3600 2850 2925 
L 2300 2925 
Q 2300 3450 2125 3712 
Q 1950 3975 1625 3975 
Q 1225 3975 1025 3562 
Q 825 3150 825 2175 
Q 825 1250 1075 900 
Q 1325 550 1650 550 
Q 1975 550 2162 787 
Q 2350 1025 2350 1525 
L 2350 1800 
L 1575 1800 
L 1575 2275 
L 2850 2275 
L 2850 75 
z
" transform="scale(0.015625)"/>
       <path id="SimHei-43" d="M 2975 1825 
Q 2950 875 2575 475 
Q 2200 75 1675 75 
Q 1075 75 650 562 
Q 225 1050 225 2125 
Q 225 3300 637 3875 
Q 1050 4450 1700 4450 
Q 2250 4450 2612 4037 
Q 2975 3625 2950 2875 
L 2400 2875 
Q 2400 3425 2225 3700 
Q 2050 3975 1700 3975 
Q 1300 3975 1062 3562 
Q 825 3150 825 2175 
Q 825 1275 1062 912 
Q 1300 550 1675 550 
Q 1950 550 2175 812 
Q 2400 1075 2400 1825 
L 2975 1825 
z
" transform="scale(0.015625)"/>
       <path id="SimHei-4e" d="M 2850 125 
L 2225 125 
L 850 3225 
L 825 3225 
L 825 125 
L 250 125 
L 250 4400 
L 875 4400 
L 2250 1300 
L 2275 1300 
L 2275 4400 
L 2850 4400 
L 2850 125 
z
" transform="scale(0.015625)"/>
       <path id="SimHei-2d" d="M 2975 2125 
L 125 2125 
L 125 2525 
L 2975 2525 
L 2975 2125 
z
" transform="scale(0.015625)"/>
       <path id="SimHei-44" d="M 2925 2250 
Q 2925 1100 2437 612 
Q 1950 125 1125 125 
L 275 125 
L 275 4400 
L 1125 4400 
Q 2050 4400 2487 3900 
Q 2925 3400 2925 2250 
z
M 2325 2250 
Q 2325 3175 2025 3550 
Q 1725 3925 1125 3925 
L 850 3925 
L 850 600 
L 1125 600 
Q 1725 600 2025 962 
Q 2325 1325 2325 2250 
z
" transform="scale(0.015625)"/>
       <path id="SimHei-51" d="M 2950 2275 
Q 2950 1675 2862 1262 
Q 2775 850 2575 600 
L 2775 225 
L 2375 -200 
L 2150 225 
Q 2050 150 1900 112 
Q 1750 75 1575 75 
Q 925 75 550 587 
Q 175 1100 175 2275 
Q 175 3450 550 3950 
Q 925 4450 1575 4450 
Q 2225 4450 2587 3950 
Q 2950 3450 2950 2275 
z
M 2350 2275 
Q 2350 3325 2125 3650 
Q 1900 3975 1575 3975 
Q 1250 3975 1012 3650 
Q 775 3325 775 2275 
Q 775 1225 1012 887 
Q 1250 550 1575 550 
Q 1700 550 1800 587 
Q 1900 625 1950 675 
L 1550 1450 
L 1900 1875 
L 2250 1200 
Q 2300 1450 2325 1650 
Q 2350 1850 2350 2275 
z
" transform="scale(0.015625)"/>
      </defs>
      <use xlink:href="#SimHei-47"/>
      <use xlink:href="#SimHei-43" transform="translate(50 0)"/>
      <use xlink:href="#SimHei-4e" transform="translate(100 0)"/>
      <use xlink:href="#SimHei-2d" transform="translate(150 0)"/>
      <use xlink:href="#SimHei-44" transform="translate(200 0)"/>
      <use xlink:href="#SimHei-44" transform="translate(250 0)"/>
      <use xlink:href="#SimHei-51" transform="translate(300 0)"/>
      <use xlink:href="#SimHei-4e" transform="translate(350 0)"/>
     </g>
    </g>
    <g id="line2d_36">
     <path d="M 229.1125 18.4 
L 243.1125 18.4 
L 257.1125 18.4 
" style="fill: none; stroke: #ff7f0e; stroke-width: 1.2; stroke-linecap: square"/>
    </g>
    <g id="text_19">
     <!-- GCN-D3QN -->
     <g transform="translate(265.5125 23.3) scale(0.14 -0.14)">
      <use xlink:href="#SimHei-47"/>
      <use xlink:href="#SimHei-43" transform="translate(50 0)"/>
      <use xlink:href="#SimHei-4e" transform="translate(100 0)"/>
      <use xlink:href="#SimHei-2d" transform="translate(150 0)"/>
      <use xlink:href="#SimHei-44" transform="translate(200 0)"/>
      <use xlink:href="#SimHei-33" transform="translate(250 0)"/>
      <use xlink:href="#SimHei-51" transform="translate(300 0)"/>
      <use xlink:href="#SimHei-4e" transform="translate(350 0)"/>
     </g>
    </g>
    <g id="line2d_37">
     <path d="M 395.9125 18.4 
L 409.9125 18.4 
L 423.9125 18.4 
" style="fill: none; stroke: #2ca02c; stroke-width: 1.2; stroke-linecap: square"/>
    </g>
    <g id="text_20">
     <!-- GAT-LSTM-DDQN -->
     <g transform="translate(432.3125 23.3) scale(0.14 -0.14)">
      <defs>
       <path id="SimHei-41" d="M 3075 125 
L 2475 125 
L 2125 1450 
L 1025 1450 
L 675 125 
L 75 125 
L 1325 4450 
L 1825 4450 
L 3075 125 
z
M 2000 1925 
L 1600 3450 
L 1550 3450 
L 1150 1925 
L 2000 1925 
z
" transform="scale(0.015625)"/>
       <path id="SimHei-4c" d="M 2900 125 
L 300 125 
L 300 4400 
L 875 4400 
L 875 600 
L 2900 600 
L 2900 125 
z
" transform="scale(0.015625)"/>
       <path id="SimHei-53" d="M 2900 1325 
Q 2900 750 2537 412 
Q 2175 75 1550 75 
Q 925 75 575 425 
Q 225 775 225 1300 
L 225 1475 
L 800 1475 
L 800 1325 
Q 800 950 1025 750 
Q 1250 550 1550 550 
Q 1950 550 2137 762 
Q 2325 975 2325 1275 
Q 2325 1525 2100 1737 
Q 1875 1950 1450 2125 
Q 850 2350 587 2625 
Q 325 2900 325 3275 
Q 325 3800 687 4125 
Q 1050 4450 1550 4450 
Q 2200 4450 2487 4062 
Q 2775 3675 2775 3225 
L 2200 3225 
Q 2225 3500 2050 3725 
Q 1875 3950 1550 3950 
Q 1250 3950 1075 3787 
Q 900 3625 900 3350 
Q 900 3125 1037 2962 
Q 1175 2800 1750 2575 
Q 2300 2350 2600 2037 
Q 2900 1725 2900 1325 
z
" transform="scale(0.015625)"/>
       <path id="SimHei-4d" d="M 2925 125 
L 2425 125 
L 2425 3175 
L 2375 3175 
L 1775 125 
L 1375 125 
L 775 3175 
L 725 3175 
L 725 125 
L 225 125 
L 225 4400 
L 1000 4400 
L 1550 1575 
L 1600 1575 
L 2150 4400 
L 2925 4400 
L 2925 125 
z
" transform="scale(0.015625)"/>
      </defs>
      <use xlink:href="#SimHei-47"/>
      <use xlink:href="#SimHei-41" transform="translate(50 0)"/>
      <use xlink:href="#SimHei-54" transform="translate(100 0)"/>
      <use xlink:href="#SimHei-2d" transform="translate(150 0)"/>
      <use xlink:href="#SimHei-4c" transform="translate(200 0)"/>
      <use xlink:href="#SimHei-53" transform="translate(250 0)"/>
      <use xlink:href="#SimHei-54" transform="translate(300 0)"/>
      <use xlink:href="#SimHei-4d" transform="translate(350 0)"/>
      <use xlink:href="#SimHei-2d" transform="translate(400 0)"/>
      <use xlink:href="#SimHei-44" transform="translate(450 0)"/>
      <use xlink:href="#SimHei-44" transform="translate(500 0)"/>
      <use xlink:href="#SimHei-51" transform="translate(550 0)"/>
      <use xlink:href="#SimHei-4e" transform="translate(600 0)"/>
     </g>
    </g>
    <g id="line2d_38">
     <path d="M 597.7125 18.4 
L 611.7125 18.4 
L 625.7125 18.4 
" style="fill: none; stroke: #9b8ac9; stroke-width: 1.2; stroke-linecap: square"/>
    </g>
    <g id="text_21">
     <!-- GLDVTO -->
     <g transform="translate(634.1125 23.3) scale(0.14 -0.14)">
      <defs>
       <path id="SimHei-56" d="M 3050 4400 
L 1800 75 
L 1300 75 
L 50 4400 
L 650 4400 
L 1525 1125 
L 1575 1125 
L 2450 4400 
L 3050 4400 
z
" transform="scale(0.015625)"/>
       <path id="SimHei-4f" d="M 2950 2275 
Q 2950 1100 2587 587 
Q 2225 75 1575 75 
Q 925 75 550 587 
Q 175 1100 175 2275 
Q 175 3450 550 3950 
Q 925 4450 1575 4450 
Q 2225 4450 2587 3950 
Q 2950 3450 2950 2275 
z
M 2350 2275 
Q 2350 3325 2125 3650 
Q 1900 3975 1575 3975 
Q 1250 3975 1012 3650 
Q 775 3325 775 2275 
Q 775 1225 1012 887 
Q 1250 550 1575 550 
Q 1900 550 2125 887 
Q 2350 1225 2350 2275 
z
" transform="scale(0.015625)"/>
      </defs>
      <use xlink:href="#SimHei-47"/>
      <use xlink:href="#SimHei-4c" transform="translate(50 0)"/>
      <use xlink:href="#SimHei-44" transform="translate(100 0)"/>
      <use xlink:href="#SimHei-56" transform="translate(150 0)"/>
      <use xlink:href="#SimHei-54" transform="translate(200 0)"/>
      <use xlink:href="#SimHei-4f" transform="translate(250 0)"/>
     </g>
    </g>
   </g>
  </g>
 </g>
 <defs>
  <clipPath id="pb90b875b68">
   <rect x="56.0125" y="34.5036" width="626.4" height="315.36"/>
  </clipPath>
 </defs>
</svg>
