<?xml version="1.0" encoding="utf-8" standalone="no"?>
<!DOCTYPE svg PUBLIC "-//W3C//DTD SVG 1.1//EN"
  "http://www.w3.org/Graphics/SVG/1.1/DTD/svg11.dtd">
<svg xmlns:xlink="http://www.w3.org/1999/xlink" width="689.6125pt" height="391.6261pt" viewBox="0 0 689.6125 391.6261" xmlns="http://www.w3.org/2000/svg" version="1.1">
 <metadata>
  <rdf:RDF xmlns:dc="http://purl.org/dc/elements/1.1/" xmlns:cc="http://creativecommons.org/ns#" xmlns:rdf="http://www.w3.org/1999/02/22-rdf-syntax-ns#">
   <cc:Work>
    <dc:type rdf:resource="http://purl.org/dc/dcmitype/StillImage"/>
    <dc:date>2026-07-10T15:53:26.241329</dc:date>
    <dc:format>image/svg+xml</dc:format>
    <dc:creator>
     <cc:Agent>
      <dc:title>Matplotlib v3.10.7, https://matplotlib.org/</dc:title>
     </cc:Agent>
    </dc:creator>
   </cc:Work>
  </rdf:RDF>
 </metadata>
 <defs>
  <style type="text/css">*{stroke-linejoin: round; stroke-linecap: butt}</style>
 </defs>
 <g id="figure_1">
  <g id="patch_1">
   <path d="M 0 391.6261 
L 689.6125 391.6261 
L 689.6125 0 
L 0 0 
z
" style="fill: #ffffff"/>
  </g>
  <g id="axes_1">
   <g id="patch_2">
    <path d="M 56.0125 349.8636 
L 682.4125 349.8636 
L 682.4125 34.5036 
L 56.0125 34.5036 
z
" style="fill: #ffffff"/>
   </g>
   <g id="matplotlib.axis_1">
    <g id="xtick_1">
     <g id="line2d_1">
      <path d="M 84.485227 349.8636 
L 84.485227 34.5036 
" clip-path="url(#pb05f61eb5e)" style="fill: none; stroke-dasharray: 2.22,0.96; stroke-dashoffset: 0; stroke: #b0b0b0; stroke-opacity: 0.25; stroke-width: 0.6"/>
     </g>
     <g id="line2d_2">
      <defs>
       <path id="m1d1a4c85f9" d="M 0 0 
L 0 3.5 
" style="stroke: #000000; stroke-width: 0.8"/>
      </defs>
      <g>
       <use xlink:href="#m1d1a4c85f9" x="84.485227" y="349.8636" style="stroke: #000000; stroke-width: 0.8"/>
      </g>
     </g>
     <g id="text_1">
      <!-- 0 -->
      <g transform="translate(81.485227 365.1136) scale(0.12 -0.12)">
       <defs>
        <path id="SimHei-30" d="M 225 2537 
Q 250 3200 412 3587 
Q 575 3975 875 4225 
Q 1175 4475 1612 4475 
Q 2050 4475 2375 4112 
Q 2700 3750 2800 3200 
Q 2900 2650 2862 1937 
Q 2825 1225 2612 775 
Q 2400 325 1975 150 
Q 1550 -25 1125 187 
Q 700 400 525 750 
Q 350 1100 275 1487 
Q 200 1875 225 2537 
z
M 750 2687 
Q 675 2000 800 1462 
Q 925 925 1212 700 
Q 1500 475 1800 612 
Q 2100 750 2237 1162 
Q 2375 1575 2375 2062 
Q 2375 2550 2337 2950 
Q 2300 3350 2112 3675 
Q 1925 4000 1612 4012 
Q 1300 4025 1062 3700 
Q 825 3375 750 2687 
z
" transform="scale(0.015625)"/>
       </defs>
       <use xlink:href="#SimHei-30"/>
      </g>
     </g>
    </g>
    <g id="xtick_2">
     <g id="line2d_3">
      <path d="M 155.845446 349.8636 
L 155.845446 34.5036 
" clip-path="url(#pb05f61eb5e)" style="fill: none; stroke-dasharray: 2.22,0.96; stroke-dashoffset: 0; stroke: #b0b0b0; stroke-opacity: 0.25; stroke-width: 0.6"/>
     </g>
     <g id="line2d_4">
      <g>
       <use xlink:href="#m1d1a4c85f9" x="155.845446" y="349.8636" style="stroke: #000000; stroke-width: 0.8"/>
      </g>
     </g>
     <g id="text_2">
      <!-- 50 -->
      <g transform="translate(149.845446 365.1136) scale(0.12 -0.12)">
       <defs>
        <path id="SimHei-35" d="M 550 1325 
Q 725 650 1150 575 
Q 1575 500 1837 662 
Q 2100 825 2212 1087 
Q 2325 1350 2312 1675 
Q 2300 2000 2137 2225 
Q 1975 2450 1725 2525 
Q 1475 2600 1162 2525 
Q 850 2450 650 2175 
L 225 2225 
Q 275 2375 700 4375 
L 2675 4375 
L 2675 3925 
L 1075 3925 
Q 950 3250 825 2850 
Q 1200 3025 1525 3012 
Q 1850 3000 2150 2862 
Q 2450 2725 2587 2487 
Q 2725 2250 2787 2012 
Q 2850 1775 2837 1500 
Q 2825 1225 2725 937 
Q 2625 650 2425 462 
Q 2225 275 1937 162 
Q 1650 50 1275 75 
Q 900 100 562 350 
Q 225 600 100 1200 
L 550 1325 
z
" transform="scale(0.015625)"/>
       </defs>
       <use xlink:href="#SimHei-35"/>
       <use xlink:href="#SimHei-30" transform="translate(50 0)"/>
      </g>
     </g>
    </g>
    <g id="xtick_3">
     <g id="line2d_5">
      <path d="M 227.205665 349.8636 
L 227.205665 34.5036 
" clip-path="url(#pb05f61eb5e)" style="fill: none; stroke-dasharray: 2.22,0.96; stroke-dashoffset: 0; stroke: #b0b0b0; stroke-opacity: 0.25; stroke-width: 0.6"/>
     </g>
     <g id="line2d_6">
      <g>
       <use xlink:href="#m1d1a4c85f9" x="227.205665" y="349.8636" style="stroke: #000000; stroke-width: 0.8"/>
      </g>
     </g>
     <g id="text_3">
      <!-- 100 -->
      <g transform="translate(218.205665 365.1136) scale(0.12 -0.12)">
       <defs>
        <path id="SimHei-31" d="M 1400 3600 
Q 1075 3275 575 2975 
L 575 3450 
Q 1200 3875 1600 4450 
L 1900 4450 
L 1900 150 
L 1400 150 
L 1400 3600 
z
" transform="scale(0.015625)"/>
       </defs>
       <use xlink:href="#SimHei-31"/>
       <use xlink:href="#SimHei-30" transform="translate(50 0)"/>
       <use xlink:href="#SimHei-30" transform="translate(100 0)"/>
      </g>
     </g>
    </g>
    <g id="xtick_4">
     <g id="line2d_7">
      <path d="M 298.565883 349.8636 
L 298.565883 34.5036 
" clip-path="url(#pb05f61eb5e)" style="fill: none; stroke-dasharray: 2.22,0.96; stroke-dashoffset: 0; stroke: #b0b0b0; stroke-opacity: 0.25; stroke-width: 0.6"/>
     </g>
     <g id="line2d_8">
      <g>
       <use xlink:href="#m1d1a4c85f9" x="298.565883" y="349.8636" style="stroke: #000000; stroke-width: 0.8"/>
      </g>
     </g>
     <g id="text_4">
      <!-- 150 -->
      <g transform="translate(289.565883 365.1136) scale(0.12 -0.12)">
       <use xlink:href="#SimHei-31"/>
       <use xlink:href="#SimHei-35" transform="translate(50 0)"/>
       <use xlink:href="#SimHei-30" transform="translate(100 0)"/>
      </g>
     </g>
    </g>
    <g id="xtick_5">
     <g id="line2d_9">
      <path d="M 369.926102 349.8636 
L 369.926102 34.5036 
" clip-path="url(#pb05f61eb5e)" style="fill: none; stroke-dasharray: 2.22,0.96; stroke-dashoffset: 0; stroke: #b0b0b0; stroke-opacity: 0.25; stroke-width: 0.6"/>
     </g>
     <g id="line2d_10">
      <g>
       <use xlink:href="#m1d1a4c85f9" x="369.926102" y="349.8636" style="stroke: #000000; stroke-width: 0.8"/>
      </g>
     </g>
     <g id="text_5">
      <!-- 200 -->
      <g transform="translate(360.926102 365.1136) scale(0.12 -0.12)">
       <defs>
        <path id="SimHei-32" d="M 300 250 
Q 325 625 650 925 
Q 975 1225 1475 1862 
Q 1975 2500 2125 2850 
Q 2275 3200 2237 3450 
Q 2200 3700 2000 3862 
Q 1800 4025 1537 4000 
Q 1275 3975 1037 3800 
Q 800 3625 675 3275 
L 200 3350 
Q 400 3925 712 4187 
Q 1025 4450 1450 4475 
Q 1700 4500 1900 4462 
Q 2100 4425 2312 4287 
Q 2525 4150 2662 3875 
Q 2800 3600 2762 3212 
Q 2725 2825 2375 2287 
Q 2025 1750 1025 600 
L 2825 600 
L 2825 150 
L 300 150 
L 300 250 
z
" transform="scale(0.015625)"/>
       </defs>
       <use xlink:href="#SimHei-32"/>
       <use xlink:href="#SimHei-30" transform="translate(50 0)"/>
       <use xlink:href="#SimHei-30" transform="translate(100 0)"/>
      </g>
     </g>
    </g>
    <g id="xtick_6">
     <g id="line2d_11">
      <path d="M 441.286321 349.8636 
L 441.286321 34.5036 
" clip-path="url(#pb05f61eb5e)" style="fill: none; stroke-dasharray: 2.22,0.96; stroke-dashoffset: 0; stroke: #b0b0b0; stroke-opacity: 0.25; stroke-width: 0.6"/>
     </g>
     <g id="line2d_12">
      <g>
       <use xlink:href="#m1d1a4c85f9" x="441.286321" y="349.8636" style="stroke: #000000; stroke-width: 0.8"/>
      </g>
     </g>
     <g id="text_6">
      <!-- 250 -->
      <g transform="translate(432.286321 365.1136) scale(0.12 -0.12)">
       <use xlink:href="#SimHei-32"/>
       <use xlink:href="#SimHei-35" transform="translate(50 0)"/>
       <use xlink:href="#SimHei-30" transform="translate(100 0)"/>
      </g>
     </g>
    </g>
    <g id="xtick_7">
     <g id="line2d_13">
      <path d="M 512.64654 349.8636 
L 512.64654 34.5036 
" clip-path="url(#pb05f61eb5e)" style="fill: none; stroke-dasharray: 2.22,0.96; stroke-dashoffset: 0; stroke: #b0b0b0; stroke-opacity: 0.25; stroke-width: 0.6"/>
     </g>
     <g id="line2d_14">
      <g>
       <use xlink:href="#m1d1a4c85f9" x="512.64654" y="349.8636" style="stroke: #000000; stroke-width: 0.8"/>
      </g>
     </g>
     <g id="text_7">
      <!-- 300 -->
      <g transform="translate(503.64654 365.1136) scale(0.12 -0.12)">
       <defs>
        <path id="SimHei-33" d="M 250 1225 
L 700 1300 
Q 800 975 1025 762 
Q 1250 550 1587 562 
Q 1925 575 2125 837 
Q 2325 1100 2300 1437 
Q 2275 1775 2037 1962 
Q 1800 2150 1275 2225 
L 1275 2550 
Q 1800 2600 2037 2825 
Q 2275 3050 2250 3412 
Q 2225 3775 1925 3937 
Q 1625 4100 1287 3975 
Q 950 3850 750 3275 
L 300 3350 
Q 450 3800 712 4100 
Q 975 4400 1425 4450 
Q 1875 4500 2212 4337 
Q 2550 4175 2687 3837 
Q 2825 3500 2725 3100 
Q 2625 2700 2150 2400 
Q 2500 2250 2687 1950 
Q 2875 1650 2812 1162 
Q 2750 675 2375 375 
Q 2000 75 1525 87 
Q 1050 100 700 387 
Q 350 675 250 1225 
z
" transform="scale(0.015625)"/>
       </defs>
       <use xlink:href="#SimHei-33"/>
       <use xlink:href="#SimHei-30" transform="translate(50 0)"/>
       <use xlink:href="#SimHei-30" transform="translate(100 0)"/>
      </g>
     </g>
    </g>
    <g id="xtick_8">
     <g id="line2d_15">
      <path d="M 584.006758 349.8636 
L 584.006758 34.5036 
" clip-path="url(#pb05f61eb5e)" style="fill: none; stroke-dasharray: 2.22,0.96; stroke-dashoffset: 0; stroke: #b0b0b0; stroke-opacity: 0.25; stroke-width: 0.6"/>
     </g>
     <g id="line2d_16">
      <g>
       <use xlink:href="#m1d1a4c85f9" x="584.006758" y="349.8636" style="stroke: #000000; stroke-width: 0.8"/>
      </g>
     </g>
     <g id="text_8">
      <!-- 350 -->
      <g transform="translate(575.006758 365.1136) scale(0.12 -0.12)">
       <use xlink:href="#SimHei-33"/>
       <use xlink:href="#SimHei-35" transform="translate(50 0)"/>
       <use xlink:href="#SimHei-30" transform="translate(100 0)"/>
      </g>
     </g>
    </g>
    <g id="xtick_9">
     <g id="line2d_17">
      <path d="M 655.366977 349.8636 
L 655.366977 34.5036 
" clip-path="url(#pb05f61eb5e)" style="fill: none; stroke-dasharray: 2.22,0.96; stroke-dashoffset: 0; stroke: #b0b0b0; stroke-opacity: 0.25; stroke-width: 0.6"/>
     </g>
     <g id="line2d_18">
      <g>
       <use xlink:href="#m1d1a4c85f9" x="655.366977" y="349.8636" style="stroke: #000000; stroke-width: 0.8"/>
      </g>
     </g>
     <g id="text_9">
      <!-- 400 -->
      <g transform="translate(646.366977 365.1136) scale(0.12 -0.12)">
       <defs>
        <path id="SimHei-34" d="M 2000 1100 
L 75 1100 
L 75 1525 
L 2100 4450 
L 2475 4450 
L 2475 1525 
L 3075 1525 
L 3075 1100 
L 2475 1100 
L 2475 150 
L 2000 150 
L 2000 1100 
z
M 2000 1525 
L 2000 3500 
L 600 1525 
L 2000 1525 
z
" transform="scale(0.015625)"/>
       </defs>
       <use xlink:href="#SimHei-34"/>
       <use xlink:href="#SimHei-30" transform="translate(50 0)"/>
       <use xlink:href="#SimHei-30" transform="translate(100 0)"/>
      </g>
     </g>
    </g>
    <g id="text_10">
     <!-- Episode -->
     <g transform="translate(339.4625 382.3011) scale(0.17 -0.17)">
      <defs>
       <path id="SimHei-45" d="M 2900 125 
L 350 125 
L 350 4400 
L 2775 4400 
L 2775 3925 
L 925 3925 
L 925 2600 
L 2625 2600 
L 2625 2125 
L 925 2125 
L 925 600 
L 2900 600 
L 2900 125 
z
" transform="scale(0.015625)"/>
       <path id="SimHei-70" d="M 2825 1525 
Q 2825 800 2475 425 
Q 2125 50 1625 50 
Q 1350 50 1150 162 
Q 950 275 800 500 
L 800 -800 
L 300 -800 
L 300 2925 
L 800 2925 
L 800 2550 
Q 950 2775 1150 2875 
Q 1350 2975 1625 2975 
Q 2125 2975 2475 2612 
Q 2825 2250 2825 1525 
z
M 2275 1525 
Q 2275 2000 2087 2262 
Q 1900 2525 1525 2525 
Q 1225 2525 1012 2262 
Q 800 2000 800 1525 
Q 800 1050 1012 775 
Q 1225 500 1525 500 
Q 1900 500 2087 775 
Q 2275 1050 2275 1525 
z
" transform="scale(0.015625)"/>
       <path id="SimHei-69" d="M 1800 3725 
L 1300 3725 
L 1300 4375 
L 1800 4375 
L 1800 3725 
z
M 1800 125 
L 1300 125 
L 1300 2925 
L 1800 2925 
L 1800 125 
z
" transform="scale(0.015625)"/>
       <path id="SimHei-73" d="M 2750 900 
Q 2750 500 2437 287 
Q 2125 75 1650 75 
Q 1050 75 725 312 
Q 400 550 400 1000 
L 900 1000 
Q 900 700 1112 600 
Q 1325 500 1625 500 
Q 1925 500 2075 612 
Q 2225 725 2225 900 
Q 2225 1025 2100 1150 
Q 1975 1275 1475 1350 
Q 900 1425 687 1637 
Q 475 1850 475 2200 
Q 475 2500 762 2737 
Q 1050 2975 1600 2975 
Q 2100 2975 2387 2750 
Q 2675 2525 2675 2150 
L 2175 2150 
Q 2175 2375 2012 2462 
Q 1850 2550 1600 2550 
Q 1275 2550 1137 2437 
Q 1000 2325 1000 2175 
Q 1000 2000 1125 1900 
Q 1250 1800 1650 1750 
Q 2300 1650 2525 1437 
Q 2750 1225 2750 900 
z
" transform="scale(0.015625)"/>
       <path id="SimHei-6f" d="M 2925 1525 
Q 2925 875 2525 475 
Q 2125 75 1575 75 
Q 1025 75 625 475 
Q 225 875 225 1525 
Q 225 2175 625 2575 
Q 1025 2975 1575 2975 
Q 2125 2975 2525 2575 
Q 2925 2175 2925 1525 
z
M 2375 1525 
Q 2375 2025 2125 2275 
Q 1875 2525 1575 2525 
Q 1275 2525 1025 2275 
Q 775 2025 775 1525 
Q 775 1025 1025 775 
Q 1275 525 1575 525 
Q 1875 525 2125 775 
Q 2375 1025 2375 1525 
z
" transform="scale(0.015625)"/>
       <path id="SimHei-64" d="M 2750 125 
L 2250 125 
L 2250 500 
Q 2100 275 1900 175 
Q 1700 75 1425 75 
Q 925 75 575 437 
Q 225 800 225 1525 
Q 225 2250 575 2625 
Q 925 3000 1425 3000 
Q 1700 3000 1900 2887 
Q 2100 2775 2250 2550 
L 2250 4400 
L 2750 4400 
L 2750 125 
z
M 2250 1525 
Q 2250 2000 2037 2275 
Q 1825 2550 1525 2550 
Q 1150 2550 962 2275 
Q 775 2000 775 1525 
Q 775 1050 962 787 
Q 1150 525 1525 525 
Q 1825 525 2037 787 
Q 2250 1050 2250 1525 
z
" transform="scale(0.015625)"/>
       <path id="SimHei-65" d="M 2850 1075 
Q 2800 625 2450 350 
Q 2100 75 1625 75 
Q 1025 75 637 462 
Q 250 850 250 1525 
Q 250 2200 637 2587 
Q 1025 2975 1625 2975 
Q 2150 2975 2487 2637 
Q 2825 2300 2825 1525 
L 800 1525 
Q 800 975 1037 750 
Q 1275 525 1625 525 
Q 1900 525 2075 662 
Q 2250 800 2300 1075 
L 2850 1075 
z
M 2250 1925 
Q 2200 2275 2025 2412 
Q 1850 2550 1575 2550 
Q 1325 2550 1125 2412 
Q 925 2275 825 1925 
L 2250 1925 
z
" transform="scale(0.015625)"/>
      </defs>
      <use xlink:href="#SimHei-45"/>
      <use xlink:href="#SimHei-70" transform="translate(50 0)"/>
      <use xlink:href="#SimHei-69" transform="translate(100 0)"/>
      <use xlink:href="#SimHei-73" transform="translate(150 0)"/>
      <use xlink:href="#SimHei-6f" transform="translate(200 0)"/>
      <use xlink:href="#SimHei-64" transform="translate(250 0)"/>
      <use xlink:href="#SimHei-65" transform="translate(300 0)"/>
     </g>
    </g>
   </g>
   <g id="matplotlib.axis_2">
    <g id="ytick_1">
     <g id="line2d_19">
      <path d="M 56.0125 332.710308 
L 682.4125 332.710308 
" clip-path="url(#pb05f61eb5e)" style="fill: none; stroke-dasharray: 2.22,0.96; stroke-dashoffset: 0; stroke: #b0b0b0; stroke-opacity: 0.25; stroke-width: 0.6"/>
     </g>
     <g id="line2d_20">
      <defs>
       <path id="mfe7cba921e" d="M 0 0 
L -3.5 0 
" style="stroke: #000000; stroke-width: 0.8"/>
      </defs>
      <g>
       <use xlink:href="#mfe7cba921e" x="56.0125" y="332.710308" style="stroke: #000000; stroke-width: 0.8"/>
      </g>
     </g>
     <g id="text_11">
      <!-- 0.05 -->
      <g transform="translate(25.0125 336.835308) scale(0.12 -0.12)">
       <defs>
        <path id="SimHei-2e" d="M 1075 125 
L 500 125 
L 500 675 
L 1075 675 
L 1075 125 
z
" transform="scale(0.015625)"/>
       </defs>
       <use xlink:href="#SimHei-30"/>
       <use xlink:href="#SimHei-2e" transform="translate(50 0)"/>
       <use xlink:href="#SimHei-30" transform="translate(100 0)"/>
       <use xlink:href="#SimHei-35" transform="translate(150 0)"/>
      </g>
     </g>
    </g>
    <g id="ytick_2">
     <g id="line2d_21">
      <path d="M 56.0125 286.924994 
L 682.4125 286.924994 
" clip-path="url(#pb05f61eb5e)" style="fill: none; stroke-dasharray: 2.22,0.96; stroke-dashoffset: 0; stroke: #b0b0b0; stroke-opacity: 0.25; stroke-width: 0.6"/>
     </g>
     <g id="line2d_22">
      <g>
       <use xlink:href="#mfe7cba921e" x="56.0125" y="286.924994" style="stroke: #000000; stroke-width: 0.8"/>
      </g>
     </g>
     <g id="text_12">
      <!-- 0.10 -->
      <g transform="translate(25.0125 291.049994) scale(0.12 -0.12)">
       <use xlink:href="#SimHei-30"/>
       <use xlink:href="#SimHei-2e" transform="translate(50 0)"/>
       <use xlink:href="#SimHei-31" transform="translate(100 0)"/>
       <use xlink:href="#SimHei-30" transform="translate(150 0)"/>
      </g>
     </g>
    </g>
    <g id="ytick_3">
     <g id="line2d_23">
      <path d="M 56.0125 241.139679 
L 682.4125 241.139679 
" clip-path="url(#pb05f61eb5e)" style="fill: none; stroke-dasharray: 2.22,0.96; stroke-dashoffset: 0; stroke: #b0b0b0; stroke-opacity: 0.25; stroke-width: 0.6"/>
     </g>
     <g id="line2d_24">
      <g>
       <use xlink:href="#mfe7cba921e" x="56.0125" y="241.139679" style="stroke: #000000; stroke-width: 0.8"/>
      </g>
     </g>
     <g id="text_13">
      <!-- 0.15 -->
      <g transform="translate(25.0125 245.264679) scale(0.12 -0.12)">
       <use xlink:href="#SimHei-30"/>
       <use xlink:href="#SimHei-2e" transform="translate(50 0)"/>
       <use xlink:href="#SimHei-31" transform="translate(100 0)"/>
       <use xlink:href="#SimHei-35" transform="translate(150 0)"/>
      </g>
     </g>
    </g>
    <g id="ytick_4">
     <g id="line2d_25">
      <path d="M 56.0125 195.354365 
L 682.4125 195.354365 
" clip-path="url(#pb05f61eb5e)" style="fill: none; stroke-dasharray: 2.22,0.96; stroke-dashoffset: 0; stroke: #b0b0b0; stroke-opacity: 0.25; stroke-width: 0.6"/>
     </g>
     <g id="line2d_26">
      <g>
       <use xlink:href="#mfe7cba921e" x="56.0125" y="195.354365" style="stroke: #000000; stroke-width: 0.8"/>
      </g>
     </g>
     <g id="text_14">
      <!-- 0.20 -->
      <g transform="translate(25.0125 199.479365) scale(0.12 -0.12)">
       <use xlink:href="#SimHei-30"/>
       <use xlink:href="#SimHei-2e" transform="translate(50 0)"/>
       <use xlink:href="#SimHei-32" transform="translate(100 0)"/>
       <use xlink:href="#SimHei-30" transform="translate(150 0)"/>
      </g>
     </g>
    </g>
    <g id="ytick_5">
     <g id="line2d_27">
      <path d="M 56.0125 149.56905 
L 682.4125 149.56905 
" clip-path="url(#pb05f61eb5e)" style="fill: none; stroke-dasharray: 2.22,0.96; stroke-dashoffset: 0; stroke: #b0b0b0; stroke-opacity: 0.25; stroke-width: 0.6"/>
     </g>
     <g id="line2d_28">
      <g>
       <use xlink:href="#mfe7cba921e" x="56.0125" y="149.56905" style="stroke: #000000; stroke-width: 0.8"/>
      </g>
     </g>
     <g id="text_15">
      <!-- 0.25 -->
      <g transform="translate(25.0125 153.69405) scale(0.12 -0.12)">
       <use xlink:href="#SimHei-30"/>
       <use xlink:href="#SimHei-2e" transform="translate(50 0)"/>
       <use xlink:href="#SimHei-32" transform="translate(100 0)"/>
       <use xlink:href="#SimHei-35" transform="translate(150 0)"/>
      </g>
     </g>
    </g>
    <g id="ytick_6">
     <g id="line2d_29">
      <path d="M 56.0125 103.783736 
L 682.4125 103.783736 
" clip-path="url(#pb05f61eb5e)" style="fill: none; stroke-dasharray: 2.22,0.96; stroke-dashoffset: 0; stroke: #b0b0b0; stroke-opacity: 0.25; stroke-width: 0.6"/>
     </g>
     <g id="line2d_30">
      <g>
       <use xlink:href="#mfe7cba921e" x="56.0125" y="103.783736" style="stroke: #000000; stroke-width: 0.8"/>
      </g>
     </g>
     <g id="text_16">
      <!-- 0.30 -->
      <g transform="translate(25.0125 107.908736) scale(0.12 -0.12)">
       <use xlink:href="#SimHei-30"/>
       <use xlink:href="#SimHei-2e" transform="translate(50 0)"/>
       <use xlink:href="#SimHei-33" transform="translate(100 0)"/>
       <use xlink:href="#SimHei-30" transform="translate(150 0)"/>
      </g>
     </g>
    </g>
    <g id="ytick_7">
     <g id="line2d_31">
      <path d="M 56.0125 57.998421 
L 682.4125 57.998421 
" clip-path="url(#pb05f61eb5e)" style="fill: none; stroke-dasharray: 2.22,0.96; stroke-dashoffset: 0; stroke: #b0b0b0; stroke-opacity: 0.25; stroke-width: 0.6"/>
     </g>
     <g id="line2d_32">
      <g>
       <use xlink:href="#mfe7cba921e" x="56.0125" y="57.998421" style="stroke: #000000; stroke-width: 0.8"/>
      </g>
     </g>
     <g id="text_17">
      <!-- 0.35 -->
      <g transform="translate(25.0125 62.123421) scale(0.12 -0.12)">
       <use xlink:href="#SimHei-30"/>
       <use xlink:href="#SimHei-2e" transform="translate(50 0)"/>
       <use xlink:href="#SimHei-33" transform="translate(100 0)"/>
       <use xlink:href="#SimHei-35" transform="translate(150 0)"/>
      </g>
     </g>
    </g>
    <g id="text_18">
     <!-- Total Task Latency -->
     <g transform="translate(18.8875 268.6836) rotate(-90) scale(0.17 -0.17)">
      <defs>
       <path id="SimHei-54" d="M 2850 3925 
L 1850 3925 
L 1850 125 
L 1275 125 
L 1275 3925 
L 275 3925 
L 275 4400 
L 2850 4400 
L 2850 3925 
z
" transform="scale(0.015625)"/>
       <path id="SimHei-74" d="M 2750 200 
Q 2625 150 2462 112 
Q 2300 75 2025 75 
Q 1575 75 1300 325 
Q 1025 575 1025 1025 
L 1025 2525 
L 175 2525 
L 175 2925 
L 1025 2925 
L 1025 3900 
L 1525 3900 
L 1525 2925 
L 2550 2925 
L 2550 2525 
L 1525 2525 
L 1525 1000 
Q 1525 800 1625 662 
Q 1725 525 2000 525 
Q 2275 525 2450 575 
Q 2625 625 2750 700 
L 2750 200 
z
" transform="scale(0.015625)"/>
       <path id="SimHei-61" d="M 2875 125 
L 2275 125 
Q 2225 175 2200 262 
Q 2175 350 2175 475 
Q 2000 275 1750 175 
Q 1500 75 1225 75 
Q 825 75 550 275 
Q 275 475 275 850 
Q 275 1225 525 1450 
Q 775 1675 1300 1750 
Q 1650 1800 1912 1875 
Q 2175 1950 2175 2075 
Q 2175 2225 2062 2375 
Q 1950 2525 1575 2525 
Q 1275 2525 1137 2412 
Q 1000 2300 950 2100 
L 400 2100 
Q 450 2500 762 2737 
Q 1075 2975 1575 2975 
Q 2125 2975 2400 2725 
Q 2675 2475 2675 2025 
L 2675 650 
Q 2675 500 2725 375 
Q 2775 250 2875 125 
z
M 2175 1050 
L 2175 1550 
Q 2025 1500 1887 1462 
Q 1750 1425 1425 1375 
Q 1050 1325 937 1200 
Q 825 1075 825 900 
Q 825 750 937 637 
Q 1050 525 1275 525 
Q 1500 525 1762 650 
Q 2025 775 2175 1050 
z
" transform="scale(0.015625)"/>
       <path id="SimHei-6c" d="M 1825 125 
L 1325 125 
L 1325 4400 
L 1825 4400 
L 1825 125 
z
" transform="scale(0.015625)"/>
       <path id="SimHei-20" transform="scale(0.015625)"/>
       <path id="SimHei-6b" d="M 2925 125 
L 2350 125 
L 1450 1650 
L 875 1100 
L 875 125 
L 375 125 
L 375 4400 
L 875 4400 
L 875 1675 
L 2125 2925 
L 2750 2925 
L 1775 1975 
L 2925 125 
z
" transform="scale(0.015625)"/>
       <path id="SimHei-4c" d="M 2900 125 
L 300 125 
L 300 4400 
L 875 4400 
L 875 600 
L 2900 600 
L 2900 125 
z
" transform="scale(0.015625)"/>
       <path id="SimHei-6e" d="M 2800 125 
L 2300 125 
L 2300 1925 
Q 2300 2225 2150 2400 
Q 2000 2575 1750 2575 
Q 1425 2575 1137 2237 
Q 850 1900 850 1400 
L 850 125 
L 350 125 
L 350 2925 
L 850 2925 
L 850 2400 
Q 1050 2675 1287 2825 
Q 1525 2975 1900 2975 
Q 2350 2975 2575 2725 
Q 2800 2475 2800 2100 
L 2800 125 
z
" transform="scale(0.015625)"/>
       <path id="SimHei-63" d="M 2850 1250 
Q 2850 725 2487 400 
Q 2125 75 1575 75 
Q 1025 75 625 462 
Q 225 850 225 1525 
Q 225 2200 625 2587 
Q 1025 2975 1575 2975 
Q 2125 2975 2450 2687 
Q 2775 2400 2775 2000 
L 2225 2000 
Q 2200 2300 2012 2412 
Q 1825 2525 1575 2525 
Q 1275 2525 1025 2287 
Q 775 2050 775 1525 
Q 775 1000 1025 762 
Q 1275 525 1575 525 
Q 1900 525 2100 700 
Q 2300 875 2300 1250 
L 2850 1250 
z
" transform="scale(0.015625)"/>
       <path id="SimHei-79" d="M 2900 2925 
L 1750 -100 
Q 1650 -450 1450 -625 
Q 1250 -800 950 -800 
Q 825 -800 712 -787 
Q 600 -775 500 -725 
L 500 -225 
Q 600 -275 700 -300 
Q 800 -325 875 -325 
Q 1075 -325 1150 -262 
Q 1225 -200 1300 25 
L 200 2925 
L 750 2925 
L 1550 725 
L 1575 725 
L 2350 2925 
L 2900 2925 
z
" transform="scale(0.015625)"/>
      </defs>
      <use xlink:href="#SimHei-54"/>
      <use xlink:href="#SimHei-6f" transform="translate(50 0)"/>
      <use xlink:href="#SimHei-74" transform="translate(100 0)"/>
      <use xlink:href="#SimHei-61" transform="translate(150 0)"/>
      <use xlink:href="#SimHei-6c" transform="translate(200 0)"/>
      <use xlink:href="#SimHei-20" transform="translate(250 0)"/>
      <use xlink:href="#SimHei-54" transform="translate(300 0)"/>
      <use xlink:href="#SimHei-61" transform="translate(350 0)"/>
      <use xlink:href="#SimHei-73" transform="translate(400 0)"/>
      <use xlink:href="#SimHei-6b" transform="translate(450 0)"/>
      <use xlink:href="#SimHei-20" transform="translate(500 0)"/>
      <use xlink:href="#SimHei-4c" transform="translate(550 0)"/>
      <use xlink:href="#SimHei-61" transform="translate(600 0)"/>
      <use xlink:href="#SimHei-74" transform="translate(650 0)"/>
      <use xlink:href="#SimHei-65" transform="translate(700 0)"/>
      <use xlink:href="#SimHei-6e" transform="translate(750 0)"/>
      <use xlink:href="#SimHei-63" transform="translate(800 0)"/>
      <use xlink:href="#SimHei-79" transform="translate(850 0)"/>
     </g>
    </g>
   </g>
   <g id="line2d_33">
    <path d="M 84.485227 155.090648 
L 85.912432 154.489485 
L 88.76684 149.901237 
L 90.194045 149.182283 
L 91.621249 145.048038 
L 93.048454 146.270615 
L 94.475658 144.843235 
L 95.902862 144.435523 
L 97.330067 143.49972 
L 98.757271 143.164296 
L 100.184475 142.61133 
L 101.61168 137.833741 
L 103.038884 136.742518 
L 104.466089 134.800037 
L 105.893293 135.757566 
L 107.320497 140.1572 
L 108.747702 138.982245 
L 110.174906 138.532818 
L 111.60211 140.666258 
L 113.029315 139.617022 
L 114.456519 138.935977 
L 115.883724 136.188884 
L 117.310928 134.090101 
L 118.738132 133.84196 
L 120.165337 132.065416 
L 121.592541 133.627323 
L 123.019745 131.865271 
L 125.874154 134.034818 
L 127.301359 134.490427 
L 128.728563 132.604113 
L 130.155767 129.683855 
L 131.582972 125.516275 
L 134.43738 163.365161 
L 135.864585 180.475111 
L 137.291789 195.183289 
L 138.718994 208.187181 
L 141.573402 231.070442 
L 143.000607 240.687164 
L 144.427811 249.531963 
L 145.855015 257.487443 
L 147.28222 264.400073 
L 150.136629 276.525284 
L 151.563833 281.121186 
L 152.991037 286.566978 
L 154.418242 291.166374 
L 155.845446 294.385258 
L 157.27265 298.399046 
L 158.699855 301.909803 
L 160.127059 304.151473 
L 161.554263 307.322006 
L 162.981468 309.885828 
L 164.408672 311.720917 
L 165.835877 313.062448 
L 167.263081 315.295716 
L 168.690285 317.210904 
L 170.11749 318.804375 
L 171.544694 321.165157 
L 172.971898 322.23778 
L 174.399103 322.909351 
L 175.826307 322.723895 
L 178.680716 324.420767 
L 180.10792 325.890532 
L 181.535125 325.857227 
L 184.389533 327.987494 
L 185.816738 328.369356 
L 187.243942 329.088265 
L 188.671147 329.131135 
L 190.098351 329.926795 
L 191.525555 330.408084 
L 192.95276 331.180773 
L 194.379964 331.296474 
L 195.807168 331.280735 
L 197.234373 330.547245 
L 198.661577 331.022096 
L 200.088782 330.17206 
L 201.515986 330.167908 
L 202.94319 330.504033 
L 204.370395 328.801405 
L 205.797599 329.498453 
L 207.224803 329.914153 
L 208.652008 329.461755 
L 210.079212 329.949791 
L 211.506417 329.353154 
L 212.933621 329.790906 
L 214.360825 329.952316 
L 215.78803 330.836876 
L 221.496847 330.202655 
L 222.924052 330.494041 
L 224.351256 330.366961 
L 225.77846 330.729232 
L 228.632869 331.763268 
L 230.060073 331.51824 
L 231.487278 331.750969 
L 232.914482 331.250654 
L 234.341687 331.063551 
L 235.768891 331.05596 
L 237.196095 330.776692 
L 238.6233 330.987913 
L 240.050504 331.535629 
L 241.477708 331.479681 
L 242.904913 331.830002 
L 244.332117 331.361477 
L 245.759322 331.231978 
L 247.186526 331.351168 
L 248.61373 330.484902 
L 250.040935 328.905624 
L 252.895343 330.001406 
L 254.322548 330.24289 
L 255.749752 330.290598 
L 257.176957 331.019662 
L 258.604161 331.619074 
L 260.031365 331.898628 
L 261.45857 332.963119 
L 262.885774 332.296612 
L 264.312978 332.247713 
L 265.740183 332.537538 
L 267.167387 332.264599 
L 268.594592 332.85915 
L 270.021796 333.217476 
L 271.449 332.583208 
L 272.876205 332.523742 
L 274.303409 333.004257 
L 275.730613 331.950248 
L 277.157818 331.731011 
L 278.585022 332.222098 
L 280.012227 332.309762 
L 281.439431 330.421994 
L 282.866635 330.56339 
L 284.29384 330.983678 
L 285.721044 331.53855 
L 287.148248 330.514688 
L 288.575453 331.315232 
L 290.002657 331.520257 
L 291.429862 330.905894 
L 292.857066 330.833713 
L 294.28427 331.179325 
L 295.711475 331.172696 
L 297.138679 330.754799 
L 299.993088 329.514097 
L 301.420292 330.347827 
L 302.847497 330.493951 
L 304.274701 330.476438 
L 305.701905 330.632092 
L 308.556314 331.285956 
L 309.983518 329.946546 
L 311.410723 330.292967 
L 312.837927 330.349831 
L 314.265132 330.521311 
L 315.692336 331.721855 
L 317.11954 331.691801 
L 318.546745 331.318523 
L 319.973949 330.067912 
L 321.401153 329.496892 
L 322.828358 330.326919 
L 324.255562 329.208574 
L 325.682767 329.150693 
L 328.537175 329.903386 
L 329.96438 330.669671 
L 331.391584 330.091394 
L 332.818788 330.670514 
L 334.245993 330.821307 
L 335.673197 330.66702 
L 337.100402 330.10478 
L 338.527606 330.012564 
L 339.95481 330.294876 
L 341.382015 330.37022 
L 344.236423 331.163753 
L 345.663628 330.323756 
L 347.090832 330.346562 
L 348.518037 329.602478 
L 349.945241 329.724245 
L 351.372445 329.330781 
L 354.226854 330.888723 
L 355.654058 330.714693 
L 358.508467 331.393512 
L 359.935672 331.22889 
L 361.362876 331.565999 
L 362.79008 331.752184 
L 364.217285 332.320292 
L 365.644489 331.35117 
L 367.071693 331.390073 
L 368.498898 330.68393 
L 369.926102 330.946499 
L 371.353307 331.633822 
L 372.780511 331.690705 
L 374.207715 332.666004 
L 375.63492 332.575649 
L 377.062124 332.190031 
L 378.489328 332.737272 
L 379.916533 332.951033 
L 381.343737 332.767093 
L 382.770942 333.086695 
L 384.198146 333.244611 
L 385.62535 332.291967 
L 387.052555 332.645076 
L 388.479759 333.180549 
L 389.906963 333.342872 
L 391.334168 333.630574 
L 394.188577 334.043649 
L 395.615781 332.961761 
L 398.47019 332.674712 
L 399.897394 332.681755 
L 401.324598 333.143429 
L 402.751803 332.763553 
L 405.606212 333.275392 
L 407.033416 333.204314 
L 408.46062 333.353543 
L 409.887825 333.708435 
L 411.315029 333.445682 
L 412.742233 333.793948 
L 414.169438 333.841964 
L 415.596642 333.719589 
L 417.023847 332.784172 
L 421.30546 332.837144 
L 422.732664 332.475241 
L 424.159868 332.466173 
L 425.587073 331.972369 
L 427.014277 332.041488 
L 428.441482 331.08546 
L 429.868686 331.340474 
L 431.29589 331.722434 
L 432.723095 331.885452 
L 434.150299 332.773633 
L 435.577503 332.548087 
L 437.004708 333.236694 
L 439.859117 334.093971 
L 441.286321 334.005062 
L 442.713525 333.750989 
L 445.567934 332.595519 
L 446.995138 332.333021 
L 449.849547 332.556702 
L 451.276752 331.541926 
L 452.703956 330.755806 
L 454.13116 331.089001 
L 455.558365 330.556253 
L 456.985569 330.910509 
L 458.412773 331.589625 
L 459.839978 331.425662 
L 461.267182 331.478496 
L 462.694387 331.745349 
L 464.121591 331.374039 
L 465.548795 330.760137 
L 466.976 330.956958 
L 468.403204 330.662854 
L 469.830408 330.722303 
L 471.257613 330.454015 
L 472.684817 330.937205 
L 475.539226 331.409673 
L 476.96643 331.146041 
L 478.393635 331.326368 
L 481.248043 332.408753 
L 484.102452 331.169632 
L 485.529657 331.381104 
L 486.956861 331.760595 
L 488.384065 331.764988 
L 489.81127 331.555487 
L 491.238474 332.12416 
L 492.665678 331.988525 
L 494.092883 331.327382 
L 495.520087 331.035831 
L 496.947292 331.334165 
L 498.374496 330.912498 
L 499.8017 331.435517 
L 501.228905 330.045958 
L 502.656109 329.334597 
L 505.510518 329.574714 
L 506.937722 330.692263 
L 509.792131 330.80093 
L 511.219335 331.392629 
L 512.64654 331.71645 
L 514.073744 331.855823 
L 515.500948 332.330467 
L 516.928153 332.561933 
L 519.782562 332.255197 
L 521.209766 331.940302 
L 522.63697 331.312689 
L 524.064175 331.47733 
L 525.491379 331.910312 
L 526.918583 331.940579 
L 528.345788 332.107188 
L 529.772992 331.416946 
L 531.200197 331.739371 
L 532.627401 330.914362 
L 534.054605 331.304623 
L 535.48181 330.508398 
L 536.909014 330.762535 
L 538.336218 331.593582 
L 539.763423 331.241299 
L 546.899445 332.111428 
L 548.326649 330.474165 
L 549.753853 331.335667 
L 551.181058 331.213084 
L 552.608262 331.579472 
L 554.035467 330.896583 
L 555.462671 331.605729 
L 556.889875 331.501858 
L 558.31708 331.707716 
L 559.744284 331.313015 
L 565.453102 331.406734 
L 566.880306 330.817428 
L 568.30751 331.863222 
L 569.734715 332.223653 
L 572.589123 331.232125 
L 574.016328 330.875088 
L 576.870737 331.070704 
L 578.297941 331.076924 
L 579.725145 330.905629 
L 581.15235 331.622183 
L 582.579554 331.90614 
L 584.006758 331.938688 
L 585.433963 332.143534 
L 586.861167 331.630382 
L 588.288371 331.51172 
L 591.14278 332.190319 
L 592.569985 331.915425 
L 593.997189 331.501063 
L 595.424393 331.432618 
L 598.278802 332.060321 
L 599.706006 331.697853 
L 601.133211 331.702595 
L 602.560415 331.846733 
L 603.98762 332.389052 
L 605.414824 331.973721 
L 606.842028 332.754123 
L 608.269233 332.184796 
L 609.696437 332.115367 
L 611.123641 332.315078 
L 612.550846 331.330241 
L 613.97805 331.359441 
L 616.832459 332.444913 
L 618.259663 332.426065 
L 619.686868 333.198334 
L 622.541276 331.627886 
L 623.968481 331.438134 
L 625.395685 330.013546 
L 626.82289 330.863217 
L 628.250094 331.203696 
L 632.531707 331.427706 
L 633.958911 331.767005 
L 635.386116 332.315925 
L 636.81332 331.904646 
L 638.240525 331.94911 
L 639.667729 332.471831 
L 641.094933 332.550883 
L 642.522138 332.873355 
L 643.949342 332.843797 
L 645.376546 332.96361 
L 646.803751 333.294003 
L 648.230955 332.993017 
L 649.65816 333.39248 
L 651.085364 333.455324 
L 652.512568 332.728318 
L 653.939773 333.680697 
L 653.939773 333.680697 
" clip-path="url(#pb05f61eb5e)" style="fill: none; stroke: #1f77b4; stroke-width: 1.2; stroke-linecap: square"/>
   </g>
   <g id="line2d_34">
    <path d="M 84.485227 177.065688 
L 85.912432 172.102822 
L 87.339636 165.063678 
L 88.76684 161.9569 
L 91.621249 150.653076 
L 93.048454 149.53451 
L 94.475658 147.607596 
L 95.902862 143.486083 
L 97.330067 140.627552 
L 98.757271 139.467776 
L 100.184475 137.031642 
L 101.61168 136.721787 
L 103.038884 134.350895 
L 104.466089 131.639389 
L 105.893293 130.792322 
L 107.320497 131.892597 
L 108.747702 131.911257 
L 110.174906 132.771346 
L 111.60211 132.228877 
L 113.029315 129.680852 
L 114.456519 130.06091 
L 115.883724 132.616344 
L 118.738132 130.928285 
L 120.165337 131.679966 
L 121.592541 132.762156 
L 123.019745 135.163893 
L 124.44695 133.135669 
L 125.874154 128.146995 
L 127.301359 128.720794 
L 128.728563 129.588802 
L 131.582972 130.901321 
L 133.010176 130.717578 
L 134.43738 129.6412 
L 135.864585 129.494217 
L 137.291789 129.597068 
L 138.718994 128.021848 
L 140.146198 130.54912 
L 141.573402 130.586415 
L 143.000607 126.399138 
L 144.427811 125.652255 
L 145.855015 123.194463 
L 147.28222 124.633839 
L 148.709424 123.745765 
L 150.136629 123.413225 
L 152.991037 162.242763 
L 154.418242 179.473837 
L 155.845446 195.052491 
L 158.699855 221.365607 
L 161.554263 241.928815 
L 162.981468 251.200508 
L 164.408672 259.429962 
L 165.835877 266.121335 
L 170.11749 283.640855 
L 172.971898 292.794906 
L 174.399103 296.652582 
L 175.826307 300.028912 
L 177.253512 302.939335 
L 178.680716 305.101681 
L 180.10792 307.77204 
L 184.389533 314.468833 
L 185.816738 315.202502 
L 187.243942 316.607246 
L 188.671147 317.540905 
L 190.098351 319.498042 
L 191.525555 320.677723 
L 192.95276 321.595645 
L 194.379964 321.850685 
L 195.807168 323.206715 
L 197.234373 324.014448 
L 198.661577 325.192454 
L 200.088782 325.189567 
L 201.515986 326.342235 
L 202.94319 325.760493 
L 204.370395 326.158945 
L 205.797599 326.395182 
L 207.224803 326.821683 
L 210.079212 327.940593 
L 211.506417 328.756171 
L 212.933621 329.405093 
L 214.360825 329.808982 
L 215.78803 330.889649 
L 217.215234 330.908572 
L 218.642438 330.285902 
L 221.496847 331.318777 
L 222.924052 331.400807 
L 224.351256 330.410402 
L 225.77846 330.675713 
L 227.205665 330.714504 
L 228.632869 331.550696 
L 230.060073 331.056522 
L 231.487278 331.217085 
L 232.914482 330.905787 
L 234.341687 331.499771 
L 235.768891 332.312117 
L 237.196095 332.089567 
L 240.050504 333.576263 
L 241.477708 334.143077 
L 242.904913 333.764435 
L 245.759322 333.575611 
L 247.186526 333.322428 
L 248.61373 332.542477 
L 250.040935 331.071592 
L 251.468139 330.761278 
L 252.895343 331.248304 
L 254.322548 330.798752 
L 255.749752 331.48915 
L 257.176957 331.005995 
L 258.604161 331.939624 
L 260.031365 331.839862 
L 261.45857 332.349618 
L 262.885774 332.628701 
L 264.312978 332.195952 
L 265.740183 332.669023 
L 267.167387 332.936205 
L 268.594592 333.397205 
L 270.021796 334.178003 
L 271.449 333.906373 
L 272.876205 333.472594 
L 274.303409 334.164823 
L 275.730613 333.425553 
L 277.157818 333.581759 
L 278.585022 333.622883 
L 280.012227 333.793552 
L 281.439431 331.983364 
L 282.866635 331.869793 
L 284.29384 331.389283 
L 285.721044 331.475103 
L 287.148248 331.101756 
L 288.575453 331.27743 
L 290.002657 331.615537 
L 291.429862 330.904383 
L 292.857066 329.909025 
L 294.28427 329.538328 
L 295.711475 330.195105 
L 297.138679 329.970382 
L 298.565883 328.866187 
L 299.993088 329.792343 
L 301.420292 329.188435 
L 302.847497 330.078644 
L 304.274701 329.360815 
L 305.701905 329.62244 
L 307.12911 330.903045 
L 308.556314 331.203211 
L 309.983518 330.604082 
L 311.410723 331.481628 
L 312.837927 331.214553 
L 314.265132 332.02619 
L 315.692336 331.588358 
L 317.11954 332.503437 
L 318.546745 332.696181 
L 319.973949 332.584601 
L 321.401153 331.677138 
L 322.828358 331.045893 
L 324.255562 330.268576 
L 328.537175 332.314532 
L 329.96438 331.760098 
L 331.391584 332.060988 
L 332.818788 331.92591 
L 334.245993 332.047863 
L 335.673197 331.718269 
L 337.100402 331.842916 
L 338.527606 331.830713 
L 342.809219 332.22495 
L 344.236423 332.316937 
L 345.663628 332.038209 
L 347.090832 332.393146 
L 348.518037 331.651517 
L 349.945241 331.830008 
L 351.372445 332.474248 
L 354.226854 332.505847 
L 355.654058 332.973758 
L 357.081263 332.603302 
L 358.508467 332.418505 
L 359.935672 332.659409 
L 361.362876 332.686179 
L 364.217285 332.017071 
L 365.644489 332.623377 
L 367.071693 332.255411 
L 368.498898 333.074522 
L 369.926102 332.985114 
L 371.353307 332.724741 
L 372.780511 333.043531 
L 377.062124 332.497772 
L 378.489328 332.510135 
L 379.916533 332.687959 
L 381.343737 332.616801 
L 384.198146 332.981549 
L 385.62535 333.203352 
L 387.052555 332.804522 
L 389.906963 332.358569 
L 391.334168 332.62738 
L 392.761372 332.182304 
L 394.188577 332.515684 
L 397.042985 332.635873 
L 398.47019 333.101234 
L 399.897394 332.608201 
L 401.324598 333.070002 
L 402.751803 332.738121 
L 405.606212 332.307368 
L 407.033416 330.627605 
L 408.46062 330.667719 
L 411.315029 330.308383 
L 412.742233 330.648874 
L 414.169438 330.680258 
L 419.878255 332.148711 
L 421.30546 331.884864 
L 422.732664 331.773319 
L 424.159868 331.937132 
L 425.587073 332.514994 
L 427.014277 332.932821 
L 428.441482 331.895339 
L 429.868686 331.950273 
L 431.29589 331.631503 
L 432.723095 330.251296 
L 434.150299 330.483159 
L 435.577503 329.375748 
L 438.431912 330.79907 
L 439.859117 331.280662 
L 441.286321 330.059708 
L 442.713525 329.90883 
L 444.14073 330.474645 
L 446.995138 331.332111 
L 448.422343 331.303734 
L 449.849547 331.39818 
L 451.276752 330.915853 
L 452.703956 330.047695 
L 454.13116 331.138222 
L 456.985569 331.611823 
L 458.412773 332.352699 
L 459.839978 332.551386 
L 461.267182 332.492581 
L 462.694387 333.324365 
L 464.121591 333.060238 
L 465.548795 333.465764 
L 466.976 333.751743 
L 468.403204 333.496268 
L 469.830408 334.046291 
L 471.257613 334.081795 
L 472.684817 334.475221 
L 474.112022 334.101162 
L 475.539226 333.39188 
L 476.96643 332.991511 
L 478.393635 333.246148 
L 482.675248 333.287871 
L 484.102452 332.855156 
L 485.529657 332.036915 
L 486.956861 331.61152 
L 488.384065 332.047203 
L 489.81127 330.84015 
L 492.665678 332.515641 
L 494.092883 332.910041 
L 495.520087 333.031167 
L 496.947292 333.754739 
L 498.374496 332.926048 
L 499.8017 333.794034 
L 501.228905 333.422591 
L 502.656109 333.374075 
L 504.083313 333.55182 
L 506.937722 334.664583 
L 508.364927 334.17088 
L 509.792131 334.664316 
L 511.219335 334.976657 
L 512.64654 334.383019 
L 514.073744 335.080583 
L 515.500948 335.380411 
L 516.928153 335.335446 
L 518.355357 334.824858 
L 519.782562 334.596128 
L 521.209766 333.975877 
L 522.63697 332.637027 
L 524.064175 332.335703 
L 525.491379 332.50324 
L 526.918583 332.048614 
L 528.345788 332.193517 
L 532.627401 332.191498 
L 534.054605 332.709692 
L 535.48181 332.260619 
L 536.909014 331.591919 
L 538.336218 330.68377 
L 539.763423 330.831433 
L 544.045036 331.73225 
L 545.47224 331.616047 
L 546.899445 331.727915 
L 548.326649 332.01239 
L 549.753853 332.575402 
L 551.181058 332.578546 
L 552.608262 331.851363 
L 554.035467 331.299653 
L 555.462671 331.525115 
L 556.889875 331.575452 
L 558.31708 332.346607 
L 559.744284 332.314003 
L 561.171488 332.020983 
L 562.598693 332.932043 
L 565.453102 333.724166 
L 566.880306 333.153483 
L 568.30751 333.002822 
L 569.734715 332.584831 
L 571.161919 333.664278 
L 572.589123 334.288273 
L 574.016328 334.64714 
L 575.443532 334.01676 
L 576.870737 334.310981 
L 578.297941 334.427853 
L 579.725145 333.500111 
L 584.006758 334.533694 
L 586.861167 334.807373 
L 588.288371 334.33651 
L 589.715576 334.375662 
L 591.14278 334.70143 
L 592.569985 333.925305 
L 593.997189 334.196818 
L 596.851598 333.731326 
L 598.278802 333.964884 
L 599.706006 333.735748 
L 601.133211 334.551477 
L 602.560415 334.058478 
L 605.414824 333.735392 
L 606.842028 333.223304 
L 608.269233 333.003254 
L 612.550846 333.000422 
L 615.405255 331.827569 
L 616.832459 332.045843 
L 618.259663 331.725547 
L 619.686868 331.90659 
L 621.114072 331.934103 
L 622.541276 331.549575 
L 623.968481 331.920287 
L 625.395685 331.902231 
L 626.82289 332.344191 
L 628.250094 332.469929 
L 629.677298 332.835878 
L 631.104503 332.80264 
L 632.531707 332.94323 
L 633.958911 333.408325 
L 635.386116 334.113126 
L 636.81332 333.799868 
L 638.240525 333.745126 
L 639.667729 332.816557 
L 641.094933 333.422594 
L 642.522138 331.781356 
L 643.949342 332.137091 
L 645.376546 332.730858 
L 648.230955 332.537986 
L 649.65816 332.842569 
L 651.085364 332.53951 
L 652.512568 332.460009 
L 652.512568 332.460009 
" clip-path="url(#pb05f61eb5e)" style="fill: none; stroke: #ff7f0e; stroke-width: 1.2; stroke-linecap: square"/>
   </g>
   <g id="line2d_35">
    <path d="M 84.485227 156.114846 
L 85.912432 157.547638 
L 87.339636 157.13122 
L 88.76684 157.110028 
L 90.194045 155.73408 
L 91.621249 150.638814 
L 94.475658 142.260799 
L 95.902862 134.937099 
L 97.330067 131.323842 
L 98.757271 128.173311 
L 100.184475 120.892665 
L 101.61168 115.115297 
L 103.038884 108.664946 
L 104.466089 100.715722 
L 105.893293 97.949979 
L 107.320497 93.360275 
L 108.747702 90.556235 
L 110.174906 89.753966 
L 113.029315 81.039004 
L 114.456519 80.524259 
L 115.883724 78.642997 
L 117.310928 75.838941 
L 118.738132 76.492706 
L 120.165337 76.57152 
L 121.592541 73.913158 
L 123.019745 73.648856 
L 124.44695 69.872104 
L 125.874154 68.428277 
L 127.301359 67.669037 
L 128.728563 66.29506 
L 130.155767 67.140719 
L 131.582972 68.206214 
L 133.010176 66.855209 
L 134.43738 63.955431 
L 137.291789 56.93588 
L 138.718994 55.753262 
L 140.146198 56.712506 
L 141.573402 58.928015 
L 143.000607 59.021805 
L 144.427811 59.857325 
L 145.855015 57.512067 
L 147.28222 56.945718 
L 148.709424 57.143927 
L 150.136629 55.035336 
L 151.563833 51.407294 
L 152.991037 50.284772 
L 154.418242 52.588827 
L 155.845446 51.134809 
L 157.27265 50.751666 
L 158.699855 51.614712 
L 160.127059 49.914419 
L 161.554263 48.838145 
L 162.981468 51.084615 
L 164.408672 52.619091 
L 165.835877 53.925749 
L 167.263081 57.124108 
L 168.690285 55.635311 
L 171.544694 54.092256 
L 172.971898 56.924819 
L 174.399103 55.470854 
L 175.826307 57.078461 
L 177.253512 57.337269 
L 178.680716 57.140413 
L 180.10792 56.751957 
L 181.535125 59.264849 
L 182.962329 58.509409 
L 184.389533 56.731233 
L 185.816738 58.158792 
L 187.243942 58.052641 
L 188.671147 59.37567 
L 190.098351 60.101049 
L 191.525555 59.165343 
L 192.95276 63.366799 
L 195.807168 61.50192 
L 197.234373 64.032808 
L 198.661577 61.316824 
L 200.088782 62.539041 
L 201.515986 64.183374 
L 202.94319 63.757778 
L 204.370395 62.312801 
L 205.797599 61.376488 
L 207.224803 61.760248 
L 208.652008 61.139168 
L 210.079212 59.510621 
L 211.506417 57.206995 
L 212.933621 53.555387 
L 214.360825 52.730459 
L 215.78803 53.229776 
L 217.215234 56.108202 
L 218.642438 54.914171 
L 220.069643 53.448976 
L 221.496847 55.626184 
L 222.924052 56.659025 
L 224.351256 58.278334 
L 225.77846 56.832932 
L 227.205665 56.152934 
L 228.632869 59.991933 
L 231.487278 62.752456 
L 232.914482 63.287502 
L 234.341687 57.764461 
L 235.768891 58.252629 
L 237.196095 57.849762 
L 238.6233 54.212337 
L 240.050504 53.072101 
L 241.477708 51.727653 
L 242.904913 50.62436 
L 244.332117 53.535892 
L 245.759322 55.448873 
L 247.186526 59.495734 
L 248.61373 65.012009 
L 250.040935 85.92102 
L 251.468139 111.121868 
L 252.895343 133.725904 
L 254.322548 154.118091 
L 255.749752 171.551225 
L 258.604161 201.837885 
L 264.312978 245.65655 
L 267.167387 261.868073 
L 268.594592 268.900999 
L 271.449 281.077992 
L 272.876205 286.241217 
L 274.303409 290.75526 
L 275.730613 294.853462 
L 278.585022 301.369023 
L 280.012227 304.200551 
L 281.439431 307.370371 
L 284.29384 312.022485 
L 287.148248 316.064582 
L 288.575453 317.753577 
L 290.002657 320.106246 
L 292.857066 323.12115 
L 294.28427 324.45621 
L 297.138679 326.34697 
L 298.565883 327.171529 
L 299.993088 327.541568 
L 301.420292 328.799314 
L 302.847497 328.987129 
L 304.274701 328.578175 
L 305.701905 328.979415 
L 307.12911 330.180037 
L 309.983518 329.284165 
L 311.410723 329.790398 
L 312.837927 330.076651 
L 314.265132 329.65867 
L 315.692336 330.319698 
L 317.11954 330.160184 
L 318.546745 330.800592 
L 319.973949 330.8017 
L 321.401153 331.025928 
L 322.828358 330.766962 
L 324.255562 330.774462 
L 325.682767 331.051765 
L 327.109971 331.09599 
L 328.537175 330.771598 
L 329.96438 331.045796 
L 331.391584 330.907421 
L 332.818788 330.956073 
L 334.245993 331.895855 
L 335.673197 332.45038 
L 337.100402 331.805468 
L 338.527606 331.283979 
L 339.95481 331.438886 
L 341.382015 330.763027 
L 342.809219 330.843048 
L 344.236423 331.262594 
L 347.090832 331.475227 
L 348.518037 330.889486 
L 349.945241 330.982404 
L 351.372445 331.699198 
L 352.79965 331.810529 
L 354.226854 331.445908 
L 355.654058 331.807324 
L 357.081263 331.80279 
L 358.508467 332.812317 
L 359.935672 333.05021 
L 361.362876 332.729245 
L 362.79008 333.002157 
L 364.217285 333.72344 
L 365.644489 333.236142 
L 367.071693 333.250302 
L 368.498898 332.834114 
L 369.926102 331.52287 
L 371.353307 331.334591 
L 372.780511 330.824159 
L 374.207715 331.05387 
L 375.63492 331.433787 
L 378.489328 330.717224 
L 379.916533 330.25806 
L 381.343737 330.244022 
L 384.198146 330.981843 
L 385.62535 330.86088 
L 388.479759 331.827069 
L 389.906963 331.704505 
L 391.334168 330.89002 
L 392.761372 331.16289 
L 394.188577 331.744607 
L 395.615781 331.73237 
L 397.042985 332.562238 
L 398.47019 332.807877 
L 401.324598 332.443752 
L 402.751803 331.638077 
L 404.179007 331.542023 
L 405.606212 331.253494 
L 407.033416 331.81212 
L 408.46062 331.299172 
L 409.887825 331.18629 
L 412.742233 331.471424 
L 414.169438 331.131352 
L 415.596642 331.520951 
L 417.023847 331.155845 
L 418.451051 331.768813 
L 419.878255 331.899961 
L 421.30546 331.322894 
L 422.732664 331.043674 
L 424.159868 330.45079 
L 425.587073 330.361016 
L 427.014277 330.814446 
L 428.441482 330.415203 
L 432.723095 331.680153 
L 434.150299 332.40084 
L 435.577503 332.648376 
L 437.004708 332.596767 
L 438.431912 332.773309 
L 439.859117 332.636048 
L 442.713525 331.885727 
L 444.14073 330.949654 
L 445.567934 331.274321 
L 446.995138 332.234923 
L 448.422343 332.513343 
L 449.849547 331.627185 
L 451.276752 332.135232 
L 452.703956 332.021355 
L 454.13116 332.24282 
L 455.558365 330.867502 
L 456.985569 330.941813 
L 458.412773 330.799221 
L 459.839978 330.279037 
L 461.267182 330.971476 
L 462.694387 331.283306 
L 464.121591 331.817153 
L 465.548795 332.179617 
L 472.684817 332.474178 
L 476.96643 331.194401 
L 478.393635 331.553945 
L 479.820839 331.201674 
L 481.248043 331.011722 
L 482.675248 331.094 
L 485.529657 332.069612 
L 486.956861 331.913357 
L 488.384065 332.338466 
L 489.81127 332.634947 
L 492.665678 332.517808 
L 494.092883 332.974656 
L 495.520087 333.695342 
L 496.947292 333.455636 
L 498.374496 333.490366 
L 499.8017 333.357235 
L 501.228905 333.574963 
L 504.083313 332.622065 
L 505.510518 332.72711 
L 506.937722 333.446579 
L 508.364927 333.231656 
L 509.792131 333.395691 
L 511.219335 332.649953 
L 512.64654 333.01064 
L 514.073744 332.975406 
L 515.500948 332.471611 
L 516.928153 332.276914 
L 518.355357 332.246178 
L 519.782562 331.919137 
L 524.064175 332.925109 
L 525.491379 332.449188 
L 526.918583 332.283665 
L 528.345788 332.988795 
L 529.772992 333.267169 
L 532.627401 332.902212 
L 534.054605 332.30904 
L 535.48181 331.550064 
L 536.909014 332.071174 
L 538.336218 332.370428 
L 539.763423 333.20034 
L 541.190627 333.772376 
L 542.617832 333.807489 
L 544.045036 333.216459 
L 546.899445 332.798091 
L 548.326649 333.155752 
L 551.181058 332.148287 
L 552.608262 332.779546 
L 554.035467 333.222281 
L 555.462671 332.823385 
L 556.889875 333.279792 
L 558.31708 332.739164 
L 559.744284 332.426604 
L 561.171488 331.934487 
L 562.598693 331.816204 
L 564.025897 332.389315 
L 565.453102 332.557408 
L 566.880306 332.581162 
L 568.30751 333.186897 
L 569.734715 333.233735 
L 571.161919 333.397624 
L 572.589123 332.742788 
L 576.870737 334.501561 
L 578.297941 333.729347 
L 579.725145 334.150783 
L 581.15235 334.017785 
L 582.579554 333.431001 
L 584.006758 333.810244 
L 585.433963 333.558955 
L 586.861167 333.831421 
L 588.288371 333.658268 
L 589.715576 333.1005 
L 591.14278 333.101422 
L 592.569985 332.709379 
L 593.997189 332.815576 
L 596.851598 333.392365 
L 598.278802 332.183302 
L 599.706006 332.523395 
L 602.560415 332.390819 
L 605.414824 333.080723 
L 606.842028 332.595524 
L 609.696437 331.926941 
L 611.123641 332.285543 
L 612.550846 332.078549 
L 613.97805 332.66988 
L 615.405255 332.516523 
L 616.832459 332.882166 
L 618.259663 331.396874 
L 619.686868 332.116712 
L 621.114072 332.555608 
L 622.541276 332.057495 
L 623.968481 332.593076 
L 625.395685 332.543298 
L 626.82289 331.684423 
L 628.250094 331.36723 
L 629.677298 331.666979 
L 631.104503 331.169683 
L 632.531707 331.160677 
L 636.81332 331.983511 
L 639.667729 332.893073 
L 641.094933 332.38493 
L 642.522138 332.913199 
L 645.376546 333.273439 
L 646.803751 332.705922 
L 648.230955 332.38796 
L 649.65816 332.887868 
L 652.512568 333.010339 
L 652.512568 333.010339 
" clip-path="url(#pb05f61eb5e)" style="fill: none; stroke: #2ca02c; stroke-width: 1.2; stroke-linecap: square"/>
   </g>
   <g id="line2d_36">
    <path d="M 84.485227 156.114846 
L 85.912432 159.658974 
L 87.339636 160.31616 
L 90.194045 177.839604 
L 91.621249 189.832363 
L 95.902862 220.512619 
L 97.330067 229.625424 
L 98.757271 237.48112 
L 100.184475 246.599141 
L 103.038884 262.091882 
L 107.320497 281.510813 
L 108.747702 286.627164 
L 110.174906 290.72745 
L 111.60211 294.206861 
L 114.456519 302.165012 
L 115.883724 305.037188 
L 117.310928 306.818747 
L 118.738132 309.084545 
L 120.165337 312.113979 
L 121.592541 313.556789 
L 123.019745 315.719432 
L 124.44695 316.946662 
L 125.874154 318.490736 
L 127.301359 320.323121 
L 128.728563 321.908772 
L 130.155767 323.294349 
L 131.582972 323.916801 
L 133.010176 324.839767 
L 134.43738 326.170158 
L 135.864585 325.97699 
L 137.291789 326.11374 
L 138.718994 326.054769 
L 140.146198 326.553184 
L 141.573402 327.34229 
L 143.000607 328.318968 
L 144.427811 328.780973 
L 145.855015 329.4009 
L 147.28222 329.838703 
L 148.709424 329.551859 
L 150.136629 330.136252 
L 151.563833 329.960386 
L 152.991037 329.410889 
L 154.418242 329.968028 
L 155.845446 330.299369 
L 157.27265 330.848867 
L 158.699855 331.100097 
L 161.554263 330.55024 
L 162.981468 330.684893 
L 164.408672 330.405563 
L 165.835877 330.400196 
L 167.263081 331.223086 
L 171.544694 330.251382 
L 172.971898 330.977693 
L 174.399103 330.710713 
L 175.826307 331.299848 
L 177.253512 331.519315 
L 178.680716 331.234769 
L 181.535125 331.645647 
L 184.389533 331.060867 
L 185.816738 331.422268 
L 187.243942 332.354546 
L 188.671147 332.810976 
L 191.525555 332.815901 
L 192.95276 332.663202 
L 194.379964 332.713179 
L 195.807168 332.651223 
L 197.234373 332.751887 
L 200.088782 333.524141 
L 202.94319 331.544274 
L 205.797599 331.705472 
L 207.224803 332.446351 
L 208.652008 332.229144 
L 210.079212 332.160273 
L 212.933621 331.338611 
L 214.360825 330.959161 
L 215.78803 331.656882 
L 217.215234 331.565899 
L 220.069643 330.046629 
L 221.496847 328.854056 
L 222.924052 330.032366 
L 224.351256 330.445878 
L 228.632869 330.810608 
L 230.060073 330.534885 
L 231.487278 331.328637 
L 232.914482 331.60513 
L 234.341687 331.63465 
L 235.768891 331.303087 
L 237.196095 331.628848 
L 238.6233 331.591885 
L 240.050504 332.272776 
L 241.477708 332.058674 
L 242.904913 331.730312 
L 244.332117 331.573781 
L 245.759322 332.206222 
L 247.186526 332.084457 
L 248.61373 332.78872 
L 250.040935 332.655321 
L 251.468139 331.812579 
L 252.895343 331.572478 
L 254.322548 331.125245 
L 255.749752 331.289589 
L 257.176957 332.130253 
L 258.604161 332.699416 
L 260.031365 332.69232 
L 261.45857 332.150965 
L 262.885774 332.598824 
L 264.312978 332.814254 
L 265.740183 333.366948 
L 267.167387 331.920783 
L 268.594592 332.087119 
L 270.021796 331.142426 
L 271.449 331.612959 
L 272.876205 331.775031 
L 274.303409 332.647904 
L 275.730613 332.651371 
L 277.157818 332.990731 
L 278.585022 332.854401 
L 282.866635 332.975685 
L 284.29384 333.264592 
L 285.721044 333.418022 
L 287.148248 334.173473 
L 288.575453 333.993627 
L 290.002657 334.09142 
L 291.429862 333.363949 
L 292.857066 333.104431 
L 294.28427 332.358493 
L 295.711475 332.680381 
L 297.138679 332.571822 
L 298.565883 332.257151 
L 299.993088 332.327446 
L 301.420292 332.252327 
L 304.274701 332.749161 
L 305.701905 332.692233 
L 307.12911 332.418625 
L 308.556314 331.775959 
L 309.983518 332.108541 
L 314.265132 331.745774 
L 315.692336 331.741346 
L 317.11954 332.014318 
L 319.973949 333.389856 
L 321.401153 333.405057 
L 322.828358 333.303816 
L 324.255562 333.764139 
L 325.682767 333.51218 
L 328.537175 333.374853 
L 329.96438 332.851872 
L 332.818788 333.569686 
L 334.245993 333.689041 
L 335.673197 333.634236 
L 337.100402 333.806975 
L 338.527606 333.775007 
L 339.95481 334.427453 
L 341.382015 334.182014 
L 342.809219 334.724216 
L 344.236423 334.663081 
L 345.663628 335.191184 
L 347.090832 335.171938 
L 348.518037 334.891697 
L 351.372445 334.67068 
L 355.654058 332.447476 
L 357.081263 332.80164 
L 358.508467 333.037555 
L 359.935672 333.031473 
L 361.362876 333.334623 
L 362.79008 332.417266 
L 364.217285 332.61743 
L 365.644489 332.361881 
L 367.071693 332.900556 
L 368.498898 332.841718 
L 369.926102 332.930535 
L 371.353307 331.665409 
L 372.780511 331.978692 
L 374.207715 331.263944 
L 375.63492 331.621598 
L 377.062124 332.341859 
L 378.489328 333.309715 
L 379.916533 333.017556 
L 381.343737 333.533594 
L 384.198146 335.111906 
L 385.62535 335.529055 
L 387.052555 333.868058 
L 388.479759 334.293143 
L 389.906963 333.83113 
L 391.334168 333.912793 
L 392.761372 334.56138 
L 394.188577 334.629584 
L 395.615781 334.204536 
L 397.042985 334.413968 
L 398.47019 334.930553 
L 399.897394 334.477293 
L 401.324598 333.890997 
L 402.751803 333.778101 
L 404.179007 332.733116 
L 405.606212 332.771521 
L 407.033416 331.508029 
L 408.46062 331.844974 
L 409.887825 331.863124 
L 411.315029 332.365683 
L 412.742233 332.092115 
L 414.169438 332.867225 
L 415.596642 332.414299 
L 417.023847 332.440033 
L 418.451051 332.185607 
L 419.878255 331.441853 
L 421.30546 331.650789 
L 422.732664 331.170178 
L 424.159868 331.085401 
L 425.587073 330.521521 
L 427.014277 330.641175 
L 429.868686 332.083005 
L 431.29589 332.51866 
L 434.150299 332.451546 
L 435.577503 331.952554 
L 437.004708 331.928903 
L 438.431912 330.236106 
L 439.859117 330.111063 
L 441.286321 329.722535 
L 442.713525 330.037647 
L 444.14073 330.627776 
L 445.567934 330.770577 
L 446.995138 331.445937 
L 451.276752 332.100502 
L 452.703956 331.984304 
L 454.13116 332.702134 
L 455.558365 333.063865 
L 458.412773 333.223264 
L 459.839978 333.742275 
L 461.267182 333.437091 
L 465.548795 331.632046 
L 468.403204 331.080363 
L 469.830408 331.283005 
L 471.257613 330.961722 
L 472.684817 331.541957 
L 474.112022 330.811222 
L 475.539226 331.638953 
L 476.96643 331.428475 
L 478.393635 332.645008 
L 479.820839 333.020572 
L 481.248043 332.052294 
L 482.675248 331.885357 
L 484.102452 332.200853 
L 485.529657 331.787818 
L 486.956861 331.704444 
L 488.384065 331.874531 
L 489.81127 331.921228 
L 491.238474 331.774859 
L 492.665678 331.919849 
L 494.092883 332.649652 
L 495.520087 331.402353 
L 496.947292 331.324483 
L 498.374496 331.491469 
L 499.8017 331.140731 
L 501.228905 331.651433 
L 502.656109 331.084286 
L 504.083313 330.144044 
L 505.510518 330.16536 
L 506.937722 330.99066 
L 508.364927 330.8812 
L 509.792131 331.498541 
L 511.219335 331.359161 
L 512.64654 332.366357 
L 514.073744 332.398485 
L 515.500948 332.073349 
L 516.928153 332.289594 
L 519.782562 332.358768 
L 521.209766 332.122296 
L 522.63697 332.719384 
L 524.064175 332.683434 
L 525.491379 332.783096 
L 526.918583 332.996198 
L 529.772992 332.205894 
L 531.200197 332.663572 
L 532.627401 332.46581 
L 534.054605 331.981046 
L 535.48181 332.365254 
L 536.909014 332.227653 
L 538.336218 331.587658 
L 539.763423 331.91314 
L 541.190627 332.058377 
L 542.617832 332.444136 
L 544.045036 332.680479 
L 545.47224 332.443661 
L 546.899445 332.551964 
L 548.326649 332.784812 
L 549.753853 333.627 
L 552.608262 333.46251 
L 554.035467 332.851514 
L 555.462671 332.51111 
L 556.889875 332.660822 
L 558.31708 332.052356 
L 559.744284 332.25792 
L 561.171488 332.774745 
L 562.598693 332.898293 
L 564.025897 332.533808 
L 565.453102 332.547748 
L 566.880306 332.911858 
L 568.30751 333.588828 
L 569.734715 332.961458 
L 571.161919 333.320142 
L 572.589123 333.420024 
L 574.016328 333.842758 
L 578.297941 332.887762 
L 579.725145 333.042063 
L 581.15235 332.695808 
L 582.579554 331.499925 
L 584.006758 329.749895 
L 585.433963 329.962091 
L 586.861167 330.502562 
L 588.288371 330.575007 
L 589.715576 330.464083 
L 591.14278 330.214345 
L 592.569985 330.481329 
L 593.997189 329.91599 
L 595.424393 330.070082 
L 598.278802 330.060634 
L 601.133211 331.127528 
L 602.560415 329.753957 
L 605.414824 330.1457 
L 606.842028 329.836655 
L 608.269233 330.556713 
L 609.696437 330.565118 
L 611.123641 330.770453 
L 612.550846 331.477923 
L 613.97805 330.778921 
L 615.405255 330.677668 
L 616.832459 330.850081 
L 618.259663 331.179879 
L 619.686868 330.798947 
L 621.114072 331.056744 
L 622.541276 331.889946 
L 623.968481 332.210121 
L 625.395685 330.986117 
L 628.250094 330.924526 
L 629.677298 331.678118 
L 631.104503 331.796191 
L 633.958911 332.697718 
L 635.386116 331.807742 
L 636.81332 331.279035 
L 639.667729 331.309126 
L 641.094933 331.19448 
L 643.949342 331.575355 
L 645.376546 331.393671 
L 648.230955 331.873291 
L 649.65816 330.706775 
L 651.085364 330.68759 
L 652.512568 330.87564 
L 652.512568 330.87564 
" clip-path="url(#pb05f61eb5e)" style="fill: none; stroke: #9b8ac9; stroke-width: 1.2; stroke-linecap: square"/>
   </g>
   <g id="patch_3">
    <path d="M 56.0125 349.8636 
L 56.0125 34.5036 
" style="fill: none; stroke: #000000; stroke-width: 0.8; stroke-linejoin: miter; stroke-linecap: square"/>
   </g>
   <g id="patch_4">
    <path d="M 682.4125 349.8636 
L 682.4125 34.5036 
" style="fill: none; stroke: #000000; stroke-width: 0.8; stroke-linejoin: miter; stroke-linecap: square"/>
   </g>
   <g id="patch_5">
    <path d="M 56.0125 349.8636 
L 682.4125 349.8636 
" style="fill: none; stroke: #000000; stroke-width: 0.8; stroke-linejoin: miter; stroke-linecap: square"/>
   </g>
   <g id="patch_6">
    <path d="M 56.0125 34.5036 
L 682.4125 34.5036 
" style="fill: none; stroke: #000000; stroke-width: 0.8; stroke-linejoin: miter; stroke-linecap: square"/>
   </g>
   <g id="legend_1">
    <g id="patch_7">
     <path d="M 56.0125 31.35 
L 682.4125 31.35 
L 682.4125 7.2 
L 56.0125 7.2 
z
" style="fill: #ffffff; stroke: #808080; stroke-width: 0.8; stroke-linejoin: miter"/>
    </g>
    <g id="line2d_37">
     <path d="M 62.3125 18.4 
L 76.3125 18.4 
L 90.3125 18.4 
" style="fill: none; stroke: #1f77b4; stroke-width: 1.2; stroke-linecap: square"/>
    </g>
    <g id="text_19">
     <!-- GCN-DDQN -->
     <g transform="translate(98.7125 23.3) scale(0.14 -0.14)">
      <defs>
       <path id="SimHei-47" d="M 2850 75 
L 2425 75 
L 2350 425 
Q 2250 275 2037 175 
Q 1825 75 1575 75 
Q 1050 75 637 562 
Q 225 1050 225 2125 
Q 225 3300 600 3875 
Q 975 4450 1625 4450 
Q 2200 4450 2525 4025 
Q 2850 3600 2850 2925 
L 2300 2925 
Q 2300 3450 2125 3712 
Q 1950 3975 1625 3975 
Q 1225 3975 1025 3562 
Q 825 3150 825 2175 
Q 825 1250 1075 900 
Q 1325 550 1650 550 
Q 1975 550 2162 787 
Q 2350 1025 2350 1525 
L 2350 1800 
L 1575 1800 
L 1575 2275 
L 2850 2275 
L 2850 75 
z
" transform="scale(0.015625)"/>
       <path id="SimHei-43" d="M 2975 1825 
Q 2950 875 2575 475 
Q 2200 75 1675 75 
Q 1075 75 650 562 
Q 225 1050 225 2125 
Q 225 3300 637 3875 
Q 1050 4450 1700 4450 
Q 2250 4450 2612 4037 
Q 2975 3625 2950 2875 
L 2400 2875 
Q 2400 3425 2225 3700 
Q 2050 3975 1700 3975 
Q 1300 3975 1062 3562 
Q 825 3150 825 2175 
Q 825 1275 1062 912 
Q 1300 550 1675 550 
Q 1950 550 2175 812 
Q 2400 1075 2400 1825 
L 2975 1825 
z
" transform="scale(0.015625)"/>
       <path id="SimHei-4e" d="M 2850 125 
L 2225 125 
L 850 3225 
L 825 3225 
L 825 125 
L 250 125 
L 250 4400 
L 875 4400 
L 2250 1300 
L 2275 1300 
L 2275 4400 
L 2850 4400 
L 2850 125 
z
" transform="scale(0.015625)"/>
       <path id="SimHei-2d" d="M 2975 2125 
L 125 2125 
L 125 2525 
L 2975 2525 
L 2975 2125 
z
" transform="scale(0.015625)"/>
       <path id="SimHei-44" d="M 2925 2250 
Q 2925 1100 2437 612 
Q 1950 125 1125 125 
L 275 125 
L 275 4400 
L 1125 4400 
Q 2050 4400 2487 3900 
Q 2925 3400 2925 2250 
z
M 2325 2250 
Q 2325 3175 2025 3550 
Q 1725 3925 1125 3925 
L 850 3925 
L 850 600 
L 1125 600 
Q 1725 600 2025 962 
Q 2325 1325 2325 2250 
z
" transform="scale(0.015625)"/>
       <path id="SimHei-51" d="M 2950 2275 
Q 2950 1675 2862 1262 
Q 2775 850 2575 600 
L 2775 225 
L 2375 -200 
L 2150 225 
Q 2050 150 1900 112 
Q 1750 75 1575 75 
Q 925 75 550 587 
Q 175 1100 175 2275 
Q 175 3450 550 3950 
Q 925 4450 1575 4450 
Q 2225 4450 2587 3950 
Q 2950 3450 2950 2275 
z
M 2350 2275 
Q 2350 3325 2125 3650 
Q 1900 3975 1575 3975 
Q 1250 3975 1012 3650 
Q 775 3325 775 2275 
Q 775 1225 1012 887 
Q 1250 550 1575 550 
Q 1700 550 1800 587 
Q 1900 625 1950 675 
L 1550 1450 
L 1900 1875 
L 2250 1200 
Q 2300 1450 2325 1650 
Q 2350 1850 2350 2275 
z
" transform="scale(0.015625)"/>
      </defs>
      <use xlink:href="#SimHei-47"/>
      <use xlink:href="#SimHei-43" transform="translate(50 0)"/>
      <use xlink:href="#SimHei-4e" transform="translate(100 0)"/>
      <use xlink:href="#SimHei-2d" transform="translate(150 0)"/>
      <use xlink:href="#SimHei-44" transform="translate(200 0)"/>
      <use xlink:href="#SimHei-44" transform="translate(250 0)"/>
      <use xlink:href="#SimHei-51" transform="translate(300 0)"/>
      <use xlink:href="#SimHei-4e" transform="translate(350 0)"/>
     </g>
    </g>
    <g id="line2d_38">
     <path d="M 229.1125 18.4 
L 243.1125 18.4 
L 257.1125 18.4 
" style="fill: none; stroke: #ff7f0e; stroke-width: 1.2; stroke-linecap: square"/>
    </g>
    <g id="text_20">
     <!-- GCN-D3QN -->
     <g transform="translate(265.5125 23.3) scale(0.14 -0.14)">
      <use xlink:href="#SimHei-47"/>
      <use xlink:href="#SimHei-43" transform="translate(50 0)"/>
      <use xlink:href="#SimHei-4e" transform="translate(100 0)"/>
      <use xlink:href="#SimHei-2d" transform="translate(150 0)"/>
      <use xlink:href="#SimHei-44" transform="translate(200 0)"/>
      <use xlink:href="#SimHei-33" transform="translate(250 0)"/>
      <use xlink:href="#SimHei-51" transform="translate(300 0)"/>
      <use xlink:href="#SimHei-4e" transform="translate(350 0)"/>
     </g>
    </g>
    <g id="line2d_39">
     <path d="M 395.9125 18.4 
L 409.9125 18.4 
L 423.9125 18.4 
" style="fill: none; stroke: #2ca02c; stroke-width: 1.2; stroke-linecap: square"/>
    </g>
    <g id="text_21">
     <!-- GAT-LSTM-DDQN -->
     <g transform="translate(432.3125 23.3) scale(0.14 -0.14)">
      <defs>
       <path id="SimHei-41" d="M 3075 125 
L 2475 125 
L 2125 1450 
L 1025 1450 
L 675 125 
L 75 125 
L 1325 4450 
L 1825 4450 
L 3075 125 
z
M 2000 1925 
L 1600 3450 
L 1550 3450 
L 1150 1925 
L 2000 1925 
z
" transform="scale(0.015625)"/>
       <path id="SimHei-53" d="M 2900 1325 
Q 2900 750 2537 412 
Q 2175 75 1550 75 
Q 925 75 575 425 
Q 225 775 225 1300 
L 225 1475 
L 800 1475 
L 800 1325 
Q 800 950 1025 750 
Q 1250 550 1550 550 
Q 1950 550 2137 762 
Q 2325 975 2325 1275 
Q 2325 1525 2100 1737 
Q 1875 1950 1450 2125 
Q 850 2350 587 2625 
Q 325 2900 325 3275 
Q 325 3800 687 4125 
Q 1050 4450 1550 4450 
Q 2200 4450 2487 4062 
Q 2775 3675 2775 3225 
L 2200 3225 
Q 2225 3500 2050 3725 
Q 1875 3950 1550 3950 
Q 1250 3950 1075 3787 
Q 900 3625 900 3350 
Q 900 3125 1037 2962 
Q 1175 2800 1750 2575 
Q 2300 2350 2600 2037 
Q 2900 1725 2900 1325 
z
" transform="scale(0.015625)"/>
       <path id="SimHei-4d" d="M 2925 125 
L 2425 125 
L 2425 3175 
L 2375 3175 
L 1775 125 
L 1375 125 
L 775 3175 
L 725 3175 
L 725 125 
L 225 125 
L 225 4400 
L 1000 4400 
L 1550 1575 
L 1600 1575 
L 2150 4400 
L 2925 4400 
L 2925 125 
z
" transform="scale(0.015625)"/>
      </defs>
      <use xlink:href="#SimHei-47"/>
      <use xlink:href="#SimHei-41" transform="translate(50 0)"/>
      <use xlink:href="#SimHei-54" transform="translate(100 0)"/>
      <use xlink:href="#SimHei-2d" transform="translate(150 0)"/>
      <use xlink:href="#SimHei-4c" transform="translate(200 0)"/>
      <use xlink:href="#SimHei-53" transform="translate(250 0)"/>
      <use xlink:href="#SimHei-54" transform="translate(300 0)"/>
      <use xlink:href="#SimHei-4d" transform="translate(350 0)"/>
      <use xlink:href="#SimHei-2d" transform="translate(400 0)"/>
      <use xlink:href="#SimHei-44" transform="translate(450 0)"/>
      <use xlink:href="#SimHei-44" transform="translate(500 0)"/>
      <use xlink:href="#SimHei-51" transform="translate(550 0)"/>
      <use xlink:href="#SimHei-4e" transform="translate(600 0)"/>
     </g>
    </g>
    <g id="line2d_40">
     <path d="M 597.7125 18.4 
L 611.7125 18.4 
L 625.7125 18.4 
" style="fill: none; stroke: #9b8ac9; stroke-width: 1.2; stroke-linecap: square"/>
    </g>
    <g id="text_22">
     <!-- GLDVTO -->
     <g transform="translate(634.1125 23.3) scale(0.14 -0.14)">
      <defs>
       <path id="SimHei-56" d="M 3050 4400 
L 1800 75 
L 1300 75 
L 50 4400 
L 650 4400 
L 1525 1125 
L 1575 1125 
L 2450 4400 
L 3050 4400 
z
" transform="scale(0.015625)"/>
       <path id="SimHei-4f" d="M 2950 2275 
Q 2950 1100 2587 587 
Q 2225 75 1575 75 
Q 925 75 550 587 
Q 175 1100 175 2275 
Q 175 3450 550 3950 
Q 925 4450 1575 4450 
Q 2225 4450 2587 3950 
Q 2950 3450 2950 2275 
z
M 2350 2275 
Q 2350 3325 2125 3650 
Q 1900 3975 1575 3975 
Q 1250 3975 1012 3650 
Q 775 3325 775 2275 
Q 775 1225 1012 887 
Q 1250 550 1575 550 
Q 1900 550 2125 887 
Q 2350 1225 2350 2275 
z
" transform="scale(0.015625)"/>
      </defs>
      <use xlink:href="#SimHei-47"/>
      <use xlink:href="#SimHei-4c" transform="translate(50 0)"/>
      <use xlink:href="#SimHei-44" transform="translate(100 0)"/>
      <use xlink:href="#SimHei-56" transform="translate(150 0)"/>
      <use xlink:href="#SimHei-54" transform="translate(200 0)"/>
      <use xlink:href="#SimHei-4f" transform="translate(250 0)"/>
     </g>
    </g>
   </g>
  </g>
 </g>
 <defs>
  <clipPath id="pb05f61eb5e">
   <rect x="56.0125" y="34.5036" width="626.4" height="315.36"/>
  </clipPath>
 </defs>
</svg>
