<?xml version="1.0" encoding="utf-8" standalone="no"?>
<!DOCTYPE svg PUBLIC "-//W3C//DTD SVG 1.1//EN"
  "http://www.w3.org/Graphics/SVG/1.1/DTD/svg11.dtd">
<svg xmlns:xlink="http://www.w3.org/1999/xlink" width="671.6125pt" height="391.6261pt" viewBox="0 0 671.6125 391.6261" xmlns="http://www.w3.org/2000/svg" version="1.1">
 <metadata>
  <rdf:RDF xmlns:dc="http://purl.org/dc/elements/1.1/" xmlns:cc="http://creativecommons.org/ns#" xmlns:rdf="http://www.w3.org/1999/02/22-rdf-syntax-ns#">
   <cc:Work>
    <dc:type rdf:resource="http://purl.org/dc/dcmitype/StillImage"/>
    <dc:date>2026-07-10T15:53:26.367463</dc:date>
    <dc:format>image/svg+xml</dc:format>
    <dc:creator>
     <cc:Agent>
      <dc:title>Matplotlib v3.10.7, https://matplotlib.org/</dc:title>
     </cc:Agent>
    </dc:creator>
   </cc:Work>
  </rdf:RDF>
 </metadata>
 <defs>
  <style type="text/css">*{stroke-linejoin: round; stroke-linecap: butt}</style>
 </defs>
 <g id="figure_1">
  <g id="patch_1">
   <path d="M 0 391.6261 
L 671.6125 391.6261 
L 671.6125 0 
L 0 0 
z
" style="fill: #ffffff"/>
  </g>
  <g id="axes_1">
   <g id="patch_2">
    <path d="M 38.0125 349.8636 
L 664.4125 349.8636 
L 664.4125 34.5036 
L 38.0125 34.5036 
z
" style="fill: #ffffff"/>
   </g>
   <g id="matplotlib.axis_1">
    <g id="xtick_1">
     <g id="line2d_1">
      <path d="M 66.485227 349.8636 
L 66.485227 34.5036 
" clip-path="url(#p2c39216664)" style="fill: none; stroke-dasharray: 2.22,0.96; stroke-dashoffset: 0; stroke: #b0b0b0; stroke-opacity: 0.25; stroke-width: 0.6"/>
     </g>
     <g id="line2d_2">
      <defs>
       <path id="mfd20a739de" d="M 0 0 
L 0 3.5 
" style="stroke: #000000; stroke-width: 0.8"/>
      </defs>
      <g>
       <use xlink:href="#mfd20a739de" x="66.485227" y="349.8636" style="stroke: #000000; stroke-width: 0.8"/>
      </g>
     </g>
     <g id="text_1">
      <!-- 0 -->
      <g transform="translate(63.485227 365.1136) scale(0.12 -0.12)">
       <defs>
        <path id="SimHei-30" d="M 225 2537 
Q 250 3200 412 3587 
Q 575 3975 875 4225 
Q 1175 4475 1612 4475 
Q 2050 4475 2375 4112 
Q 2700 3750 2800 3200 
Q 2900 2650 2862 1937 
Q 2825 1225 2612 775 
Q 2400 325 1975 150 
Q 1550 -25 1125 187 
Q 700 400 525 750 
Q 350 1100 275 1487 
Q 200 1875 225 2537 
z
M 750 2687 
Q 675 2000 800 1462 
Q 925 925 1212 700 
Q 1500 475 1800 612 
Q 2100 750 2237 1162 
Q 2375 1575 2375 2062 
Q 2375 2550 2337 2950 
Q 2300 3350 2112 3675 
Q 1925 4000 1612 4012 
Q 1300 4025 1062 3700 
Q 825 3375 750 2687 
z
" transform="scale(0.015625)"/>
       </defs>
       <use xlink:href="#SimHei-30"/>
      </g>
     </g>
    </g>
    <g id="xtick_2">
     <g id="line2d_3">
      <path d="M 137.845446 349.8636 
L 137.845446 34.5036 
" clip-path="url(#p2c39216664)" style="fill: none; stroke-dasharray: 2.22,0.96; stroke-dashoffset: 0; stroke: #b0b0b0; stroke-opacity: 0.25; stroke-width: 0.6"/>
     </g>
     <g id="line2d_4">
      <g>
       <use xlink:href="#mfd20a739de" x="137.845446" y="349.8636" style="stroke: #000000; stroke-width: 0.8"/>
      </g>
     </g>
     <g id="text_2">
      <!-- 50 -->
      <g transform="translate(131.845446 365.1136) scale(0.12 -0.12)">
       <defs>
        <path id="SimHei-35" d="M 550 1325 
Q 725 650 1150 575 
Q 1575 500 1837 662 
Q 2100 825 2212 1087 
Q 2325 1350 2312 1675 
Q 2300 2000 2137 2225 
Q 1975 2450 1725 2525 
Q 1475 2600 1162 2525 
Q 850 2450 650 2175 
L 225 2225 
Q 275 2375 700 4375 
L 2675 4375 
L 2675 3925 
L 1075 3925 
Q 950 3250 825 2850 
Q 1200 3025 1525 3012 
Q 1850 3000 2150 2862 
Q 2450 2725 2587 2487 
Q 2725 2250 2787 2012 
Q 2850 1775 2837 1500 
Q 2825 1225 2725 937 
Q 2625 650 2425 462 
Q 2225 275 1937 162 
Q 1650 50 1275 75 
Q 900 100 562 350 
Q 225 600 100 1200 
L 550 1325 
z
" transform="scale(0.015625)"/>
       </defs>
       <use xlink:href="#SimHei-35"/>
       <use xlink:href="#SimHei-30" transform="translate(50 0)"/>
      </g>
     </g>
    </g>
    <g id="xtick_3">
     <g id="line2d_5">
      <path d="M 209.205665 349.8636 
L 209.205665 34.5036 
" clip-path="url(#p2c39216664)" style="fill: none; stroke-dasharray: 2.22,0.96; stroke-dashoffset: 0; stroke: #b0b0b0; stroke-opacity: 0.25; stroke-width: 0.6"/>
     </g>
     <g id="line2d_6">
      <g>
       <use xlink:href="#mfd20a739de" x="209.205665" y="349.8636" style="stroke: #000000; stroke-width: 0.8"/>
      </g>
     </g>
     <g id="text_3">
      <!-- 100 -->
      <g transform="translate(200.205665 365.1136) scale(0.12 -0.12)">
       <defs>
        <path id="SimHei-31" d="M 1400 3600 
Q 1075 3275 575 2975 
L 575 3450 
Q 1200 3875 1600 4450 
L 1900 4450 
L 1900 150 
L 1400 150 
L 1400 3600 
z
" transform="scale(0.015625)"/>
       </defs>
       <use xlink:href="#SimHei-31"/>
       <use xlink:href="#SimHei-30" transform="translate(50 0)"/>
       <use xlink:href="#SimHei-30" transform="translate(100 0)"/>
      </g>
     </g>
    </g>
    <g id="xtick_4">
     <g id="line2d_7">
      <path d="M 280.565883 349.8636 
L 280.565883 34.5036 
" clip-path="url(#p2c39216664)" style="fill: none; stroke-dasharray: 2.22,0.96; stroke-dashoffset: 0; stroke: #b0b0b0; stroke-opacity: 0.25; stroke-width: 0.6"/>
     </g>
     <g id="line2d_8">
      <g>
       <use xlink:href="#mfd20a739de" x="280.565883" y="349.8636" style="stroke: #000000; stroke-width: 0.8"/>
      </g>
     </g>
     <g id="text_4">
      <!-- 150 -->
      <g transform="translate(271.565883 365.1136) scale(0.12 -0.12)">
       <use xlink:href="#SimHei-31"/>
       <use xlink:href="#SimHei-35" transform="translate(50 0)"/>
       <use xlink:href="#SimHei-30" transform="translate(100 0)"/>
      </g>
     </g>
    </g>
    <g id="xtick_5">
     <g id="line2d_9">
      <path d="M 351.926102 349.8636 
L 351.926102 34.5036 
" clip-path="url(#p2c39216664)" style="fill: none; stroke-dasharray: 2.22,0.96; stroke-dashoffset: 0; stroke: #b0b0b0; stroke-opacity: 0.25; stroke-width: 0.6"/>
     </g>
     <g id="line2d_10">
      <g>
       <use xlink:href="#mfd20a739de" x="351.926102" y="349.8636" style="stroke: #000000; stroke-width: 0.8"/>
      </g>
     </g>
     <g id="text_5">
      <!-- 200 -->
      <g transform="translate(342.926102 365.1136) scale(0.12 -0.12)">
       <defs>
        <path id="SimHei-32" d="M 300 250 
Q 325 625 650 925 
Q 975 1225 1475 1862 
Q 1975 2500 2125 2850 
Q 2275 3200 2237 3450 
Q 2200 3700 2000 3862 
Q 1800 4025 1537 4000 
Q 1275 3975 1037 3800 
Q 800 3625 675 3275 
L 200 3350 
Q 400 3925 712 4187 
Q 1025 4450 1450 4475 
Q 1700 4500 1900 4462 
Q 2100 4425 2312 4287 
Q 2525 4150 2662 3875 
Q 2800 3600 2762 3212 
Q 2725 2825 2375 2287 
Q 2025 1750 1025 600 
L 2825 600 
L 2825 150 
L 300 150 
L 300 250 
z
" transform="scale(0.015625)"/>
       </defs>
       <use xlink:href="#SimHei-32"/>
       <use xlink:href="#SimHei-30" transform="translate(50 0)"/>
       <use xlink:href="#SimHei-30" transform="translate(100 0)"/>
      </g>
     </g>
    </g>
    <g id="xtick_6">
     <g id="line2d_11">
      <path d="M 423.286321 349.8636 
L 423.286321 34.5036 
" clip-path="url(#p2c39216664)" style="fill: none; stroke-dasharray: 2.22,0.96; stroke-dashoffset: 0; stroke: #b0b0b0; stroke-opacity: 0.25; stroke-width: 0.6"/>
     </g>
     <g id="line2d_12">
      <g>
       <use xlink:href="#mfd20a739de" x="423.286321" y="349.8636" style="stroke: #000000; stroke-width: 0.8"/>
      </g>
     </g>
     <g id="text_6">
      <!-- 250 -->
      <g transform="translate(414.286321 365.1136) scale(0.12 -0.12)">
       <use xlink:href="#SimHei-32"/>
       <use xlink:href="#SimHei-35" transform="translate(50 0)"/>
       <use xlink:href="#SimHei-30" transform="translate(100 0)"/>
      </g>
     </g>
    </g>
    <g id="xtick_7">
     <g id="line2d_13">
      <path d="M 494.64654 349.8636 
L 494.64654 34.5036 
" clip-path="url(#p2c39216664)" style="fill: none; stroke-dasharray: 2.22,0.96; stroke-dashoffset: 0; stroke: #b0b0b0; stroke-opacity: 0.25; stroke-width: 0.6"/>
     </g>
     <g id="line2d_14">
      <g>
       <use xlink:href="#mfd20a739de" x="494.64654" y="349.8636" style="stroke: #000000; stroke-width: 0.8"/>
      </g>
     </g>
     <g id="text_7">
      <!-- 300 -->
      <g transform="translate(485.64654 365.1136) scale(0.12 -0.12)">
       <defs>
        <path id="SimHei-33" d="M 250 1225 
L 700 1300 
Q 800 975 1025 762 
Q 1250 550 1587 562 
Q 1925 575 2125 837 
Q 2325 1100 2300 1437 
Q 2275 1775 2037 1962 
Q 1800 2150 1275 2225 
L 1275 2550 
Q 1800 2600 2037 2825 
Q 2275 3050 2250 3412 
Q 2225 3775 1925 3937 
Q 1625 4100 1287 3975 
Q 950 3850 750 3275 
L 300 3350 
Q 450 3800 712 4100 
Q 975 4400 1425 4450 
Q 1875 4500 2212 4337 
Q 2550 4175 2687 3837 
Q 2825 3500 2725 3100 
Q 2625 2700 2150 2400 
Q 2500 2250 2687 1950 
Q 2875 1650 2812 1162 
Q 2750 675 2375 375 
Q 2000 75 1525 87 
Q 1050 100 700 387 
Q 350 675 250 1225 
z
" transform="scale(0.015625)"/>
       </defs>
       <use xlink:href="#SimHei-33"/>
       <use xlink:href="#SimHei-30" transform="translate(50 0)"/>
       <use xlink:href="#SimHei-30" transform="translate(100 0)"/>
      </g>
     </g>
    </g>
    <g id="xtick_8">
     <g id="line2d_15">
      <path d="M 566.006758 349.8636 
L 566.006758 34.5036 
" clip-path="url(#p2c39216664)" style="fill: none; stroke-dasharray: 2.22,0.96; stroke-dashoffset: 0; stroke: #b0b0b0; stroke-opacity: 0.25; stroke-width: 0.6"/>
     </g>
     <g id="line2d_16">
      <g>
       <use xlink:href="#mfd20a739de" x="566.006758" y="349.8636" style="stroke: #000000; stroke-width: 0.8"/>
      </g>
     </g>
     <g id="text_8">
      <!-- 350 -->
      <g transform="translate(557.006758 365.1136) scale(0.12 -0.12)">
       <use xlink:href="#SimHei-33"/>
       <use xlink:href="#SimHei-35" transform="translate(50 0)"/>
       <use xlink:href="#SimHei-30" transform="translate(100 0)"/>
      </g>
     </g>
    </g>
    <g id="xtick_9">
     <g id="line2d_17">
      <path d="M 637.366977 349.8636 
L 637.366977 34.5036 
" clip-path="url(#p2c39216664)" style="fill: none; stroke-dasharray: 2.22,0.96; stroke-dashoffset: 0; stroke: #b0b0b0; stroke-opacity: 0.25; stroke-width: 0.6"/>
     </g>
     <g id="line2d_18">
      <g>
       <use xlink:href="#mfd20a739de" x="637.366977" y="349.8636" style="stroke: #000000; stroke-width: 0.8"/>
      </g>
     </g>
     <g id="text_9">
      <!-- 400 -->
      <g transform="translate(628.366977 365.1136) scale(0.12 -0.12)">
       <defs>
        <path id="SimHei-34" d="M 2000 1100 
L 75 1100 
L 75 1525 
L 2100 4450 
L 2475 4450 
L 2475 1525 
L 3075 1525 
L 3075 1100 
L 2475 1100 
L 2475 150 
L 2000 150 
L 2000 1100 
z
M 2000 1525 
L 2000 3500 
L 600 1525 
L 2000 1525 
z
" transform="scale(0.015625)"/>
       </defs>
       <use xlink:href="#SimHei-34"/>
       <use xlink:href="#SimHei-30" transform="translate(50 0)"/>
       <use xlink:href="#SimHei-30" transform="translate(100 0)"/>
      </g>
     </g>
    </g>
    <g id="text_10">
     <!-- Episode -->
     <g transform="translate(321.4625 382.3011) scale(0.17 -0.17)">
      <defs>
       <path id="SimHei-45" d="M 2900 125 
L 350 125 
L 350 4400 
L 2775 4400 
L 2775 3925 
L 925 3925 
L 925 2600 
L 2625 2600 
L 2625 2125 
L 925 2125 
L 925 600 
L 2900 600 
L 2900 125 
z
" transform="scale(0.015625)"/>
       <path id="SimHei-70" d="M 2825 1525 
Q 2825 800 2475 425 
Q 2125 50 1625 50 
Q 1350 50 1150 162 
Q 950 275 800 500 
L 800 -800 
L 300 -800 
L 300 2925 
L 800 2925 
L 800 2550 
Q 950 2775 1150 2875 
Q 1350 2975 1625 2975 
Q 2125 2975 2475 2612 
Q 2825 2250 2825 1525 
z
M 2275 1525 
Q 2275 2000 2087 2262 
Q 1900 2525 1525 2525 
Q 1225 2525 1012 2262 
Q 800 2000 800 1525 
Q 800 1050 1012 775 
Q 1225 500 1525 500 
Q 1900 500 2087 775 
Q 2275 1050 2275 1525 
z
" transform="scale(0.015625)"/>
       <path id="SimHei-69" d="M 1800 3725 
L 1300 3725 
L 1300 4375 
L 1800 4375 
L 1800 3725 
z
M 1800 125 
L 1300 125 
L 1300 2925 
L 1800 2925 
L 1800 125 
z
" transform="scale(0.015625)"/>
       <path id="SimHei-73" d="M 2750 900 
Q 2750 500 2437 287 
Q 2125 75 1650 75 
Q 1050 75 725 312 
Q 400 550 400 1000 
L 900 1000 
Q 900 700 1112 600 
Q 1325 500 1625 500 
Q 1925 500 2075 612 
Q 2225 725 2225 900 
Q 2225 1025 2100 1150 
Q 1975 1275 1475 1350 
Q 900 1425 687 1637 
Q 475 1850 475 2200 
Q 475 2500 762 2737 
Q 1050 2975 1600 2975 
Q 2100 2975 2387 2750 
Q 2675 2525 2675 2150 
L 2175 2150 
Q 2175 2375 2012 2462 
Q 1850 2550 1600 2550 
Q 1275 2550 1137 2437 
Q 1000 2325 1000 2175 
Q 1000 2000 1125 1900 
Q 1250 1800 1650 1750 
Q 2300 1650 2525 1437 
Q 2750 1225 2750 900 
z
" transform="scale(0.015625)"/>
       <path id="SimHei-6f" d="M 2925 1525 
Q 2925 875 2525 475 
Q 2125 75 1575 75 
Q 1025 75 625 475 
Q 225 875 225 1525 
Q 225 2175 625 2575 
Q 1025 2975 1575 2975 
Q 2125 2975 2525 2575 
Q 2925 2175 2925 1525 
z
M 2375 1525 
Q 2375 2025 2125 2275 
Q 1875 2525 1575 2525 
Q 1275 2525 1025 2275 
Q 775 2025 775 1525 
Q 775 1025 1025 775 
Q 1275 525 1575 525 
Q 1875 525 2125 775 
Q 2375 1025 2375 1525 
z
" transform="scale(0.015625)"/>
       <path id="SimHei-64" d="M 2750 125 
L 2250 125 
L 2250 500 
Q 2100 275 1900 175 
Q 1700 75 1425 75 
Q 925 75 575 437 
Q 225 800 225 1525 
Q 225 2250 575 2625 
Q 925 3000 1425 3000 
Q 1700 3000 1900 2887 
Q 2100 2775 2250 2550 
L 2250 4400 
L 2750 4400 
L 2750 125 
z
M 2250 1525 
Q 2250 2000 2037 2275 
Q 1825 2550 1525 2550 
Q 1150 2550 962 2275 
Q 775 2000 775 1525 
Q 775 1050 962 787 
Q 1150 525 1525 525 
Q 1825 525 2037 787 
Q 2250 1050 2250 1525 
z
" transform="scale(0.015625)"/>
       <path id="SimHei-65" d="M 2850 1075 
Q 2800 625 2450 350 
Q 2100 75 1625 75 
Q 1025 75 637 462 
Q 250 850 250 1525 
Q 250 2200 637 2587 
Q 1025 2975 1625 2975 
Q 2150 2975 2487 2637 
Q 2825 2300 2825 1525 
L 800 1525 
Q 800 975 1037 750 
Q 1275 525 1625 525 
Q 1900 525 2075 662 
Q 2250 800 2300 1075 
L 2850 1075 
z
M 2250 1925 
Q 2200 2275 2025 2412 
Q 1850 2550 1575 2550 
Q 1325 2550 1125 2412 
Q 925 2275 825 1925 
L 2250 1925 
z
" transform="scale(0.015625)"/>
      </defs>
      <use xlink:href="#SimHei-45"/>
      <use xlink:href="#SimHei-70" transform="translate(50 0)"/>
      <use xlink:href="#SimHei-69" transform="translate(100 0)"/>
      <use xlink:href="#SimHei-73" transform="translate(150 0)"/>
      <use xlink:href="#SimHei-6f" transform="translate(200 0)"/>
      <use xlink:href="#SimHei-64" transform="translate(250 0)"/>
      <use xlink:href="#SimHei-65" transform="translate(300 0)"/>
     </g>
    </g>
   </g>
   <g id="matplotlib.axis_2">
    <g id="ytick_1">
     <g id="line2d_19">
      <path d="M 38.0125 319.211598 
L 664.4125 319.211598 
" clip-path="url(#p2c39216664)" style="fill: none; stroke-dasharray: 2.22,0.96; stroke-dashoffset: 0; stroke: #b0b0b0; stroke-opacity: 0.25; stroke-width: 0.6"/>
     </g>
     <g id="line2d_20">
      <defs>
       <path id="m92f51ffdf3" d="M 0 0 
L -3.5 0 
" style="stroke: #000000; stroke-width: 0.8"/>
      </defs>
      <g>
       <use xlink:href="#m92f51ffdf3" x="38.0125" y="319.211598" style="stroke: #000000; stroke-width: 0.8"/>
      </g>
     </g>
     <g id="text_11">
      <!-- 1 -->
      <g transform="translate(25.0125 323.336598) scale(0.12 -0.12)">
       <use xlink:href="#SimHei-31"/>
      </g>
     </g>
    </g>
    <g id="ytick_2">
     <g id="line2d_21">
      <path d="M 38.0125 257.08823 
L 664.4125 257.08823 
" clip-path="url(#p2c39216664)" style="fill: none; stroke-dasharray: 2.22,0.96; stroke-dashoffset: 0; stroke: #b0b0b0; stroke-opacity: 0.25; stroke-width: 0.6"/>
     </g>
     <g id="line2d_22">
      <g>
       <use xlink:href="#m92f51ffdf3" x="38.0125" y="257.08823" style="stroke: #000000; stroke-width: 0.8"/>
      </g>
     </g>
     <g id="text_12">
      <!-- 2 -->
      <g transform="translate(25.0125 261.21323) scale(0.12 -0.12)">
       <use xlink:href="#SimHei-32"/>
      </g>
     </g>
    </g>
    <g id="ytick_3">
     <g id="line2d_23">
      <path d="M 38.0125 194.964862 
L 664.4125 194.964862 
" clip-path="url(#p2c39216664)" style="fill: none; stroke-dasharray: 2.22,0.96; stroke-dashoffset: 0; stroke: #b0b0b0; stroke-opacity: 0.25; stroke-width: 0.6"/>
     </g>
     <g id="line2d_24">
      <g>
       <use xlink:href="#m92f51ffdf3" x="38.0125" y="194.964862" style="stroke: #000000; stroke-width: 0.8"/>
      </g>
     </g>
     <g id="text_13">
      <!-- 3 -->
      <g transform="translate(25.0125 199.089862) scale(0.12 -0.12)">
       <use xlink:href="#SimHei-33"/>
      </g>
     </g>
    </g>
    <g id="ytick_4">
     <g id="line2d_25">
      <path d="M 38.0125 132.841493 
L 664.4125 132.841493 
" clip-path="url(#p2c39216664)" style="fill: none; stroke-dasharray: 2.22,0.96; stroke-dashoffset: 0; stroke: #b0b0b0; stroke-opacity: 0.25; stroke-width: 0.6"/>
     </g>
     <g id="line2d_26">
      <g>
       <use xlink:href="#m92f51ffdf3" x="38.0125" y="132.841493" style="stroke: #000000; stroke-width: 0.8"/>
      </g>
     </g>
     <g id="text_14">
      <!-- 4 -->
      <g transform="translate(25.0125 136.966493) scale(0.12 -0.12)">
       <use xlink:href="#SimHei-34"/>
      </g>
     </g>
    </g>
    <g id="ytick_5">
     <g id="line2d_27">
      <path d="M 38.0125 70.718125 
L 664.4125 70.718125 
" clip-path="url(#p2c39216664)" style="fill: none; stroke-dasharray: 2.22,0.96; stroke-dashoffset: 0; stroke: #b0b0b0; stroke-opacity: 0.25; stroke-width: 0.6"/>
     </g>
     <g id="line2d_28">
      <g>
       <use xlink:href="#m92f51ffdf3" x="38.0125" y="70.718125" style="stroke: #000000; stroke-width: 0.8"/>
      </g>
     </g>
     <g id="text_15">
      <!-- 5 -->
      <g transform="translate(25.0125 74.843125) scale(0.12 -0.12)">
       <use xlink:href="#SimHei-35"/>
      </g>
     </g>
    </g>
    <g id="text_16">
     <!-- Total Task Energy -->
     <g transform="translate(18.8875 264.4336) rotate(-90) scale(0.17 -0.17)">
      <defs>
       <path id="SimHei-54" d="M 2850 3925 
L 1850 3925 
L 1850 125 
L 1275 125 
L 1275 3925 
L 275 3925 
L 275 4400 
L 2850 4400 
L 2850 3925 
z
" transform="scale(0.015625)"/>
       <path id="SimHei-74" d="M 2750 200 
Q 2625 150 2462 112 
Q 2300 75 2025 75 
Q 1575 75 1300 325 
Q 1025 575 1025 1025 
L 1025 2525 
L 175 2525 
L 175 2925 
L 1025 2925 
L 1025 3900 
L 1525 3900 
L 1525 2925 
L 2550 2925 
L 2550 2525 
L 1525 2525 
L 1525 1000 
Q 1525 800 1625 662 
Q 1725 525 2000 525 
Q 2275 525 2450 575 
Q 2625 625 2750 700 
L 2750 200 
z
" transform="scale(0.015625)"/>
       <path id="SimHei-61" d="M 2875 125 
L 2275 125 
Q 2225 175 2200 262 
Q 2175 350 2175 475 
Q 2000 275 1750 175 
Q 1500 75 1225 75 
Q 825 75 550 275 
Q 275 475 275 850 
Q 275 1225 525 1450 
Q 775 1675 1300 1750 
Q 1650 1800 1912 1875 
Q 2175 1950 2175 2075 
Q 2175 2225 2062 2375 
Q 1950 2525 1575 2525 
Q 1275 2525 1137 2412 
Q 1000 2300 950 2100 
L 400 2100 
Q 450 2500 762 2737 
Q 1075 2975 1575 2975 
Q 2125 2975 2400 2725 
Q 2675 2475 2675 2025 
L 2675 650 
Q 2675 500 2725 375 
Q 2775 250 2875 125 
z
M 2175 1050 
L 2175 1550 
Q 2025 1500 1887 1462 
Q 1750 1425 1425 1375 
Q 1050 1325 937 1200 
Q 825 1075 825 900 
Q 825 750 937 637 
Q 1050 525 1275 525 
Q 1500 525 1762 650 
Q 2025 775 2175 1050 
z
" transform="scale(0.015625)"/>
       <path id="SimHei-6c" d="M 1825 125 
L 1325 125 
L 1325 4400 
L 1825 4400 
L 1825 125 
z
" transform="scale(0.015625)"/>
       <path id="SimHei-20" transform="scale(0.015625)"/>
       <path id="SimHei-6b" d="M 2925 125 
L 2350 125 
L 1450 1650 
L 875 1100 
L 875 125 
L 375 125 
L 375 4400 
L 875 4400 
L 875 1675 
L 2125 2925 
L 2750 2925 
L 1775 1975 
L 2925 125 
z
" transform="scale(0.015625)"/>
       <path id="SimHei-6e" d="M 2800 125 
L 2300 125 
L 2300 1925 
Q 2300 2225 2150 2400 
Q 2000 2575 1750 2575 
Q 1425 2575 1137 2237 
Q 850 1900 850 1400 
L 850 125 
L 350 125 
L 350 2925 
L 850 2925 
L 850 2400 
Q 1050 2675 1287 2825 
Q 1525 2975 1900 2975 
Q 2350 2975 2575 2725 
Q 2800 2475 2800 2100 
L 2800 125 
z
" transform="scale(0.015625)"/>
       <path id="SimHei-72" d="M 2500 2425 
Q 2025 2500 1700 2287 
Q 1375 2075 1150 1550 
L 1150 125 
L 650 125 
L 650 2925 
L 1150 2925 
L 1150 2200 
Q 1375 2600 1712 2787 
Q 2050 2975 2500 2975 
L 2500 2425 
z
" transform="scale(0.015625)"/>
       <path id="SimHei-67" d="M 2975 2500 
Q 2800 2550 2637 2562 
Q 2475 2575 2300 2525 
Q 2375 2450 2425 2337 
Q 2475 2225 2475 2000 
Q 2475 1575 2187 1300 
Q 1900 1025 1475 1025 
Q 1375 1025 1212 1062 
Q 1050 1100 950 1150 
Q 875 1100 850 1050 
Q 825 1000 825 925 
Q 825 800 1000 737 
Q 1175 675 1625 675 
Q 2350 675 2612 475 
Q 2875 275 2875 -25 
Q 2875 -425 2487 -612 
Q 2100 -800 1575 -800 
Q 900 -800 575 -625 
Q 250 -450 250 -150 
Q 250 0 375 150 
Q 500 300 700 400 
Q 550 475 462 587 
Q 375 700 375 875 
Q 375 1025 487 1137 
Q 600 1250 750 1325 
Q 625 1450 550 1625 
Q 475 1800 475 2000 
Q 475 2425 762 2700 
Q 1050 2975 1475 2975 
Q 1700 2975 1862 2912 
Q 2025 2850 2150 2725 
Q 2350 2875 2550 2937 
Q 2750 3000 2975 2975 
L 2975 2500 
z
M 1975 2000 
Q 1975 2250 1850 2400 
Q 1725 2550 1475 2550 
Q 1225 2550 1100 2400 
Q 975 2250 975 2000 
Q 975 1750 1100 1600 
Q 1225 1450 1475 1450 
Q 1725 1450 1850 1600 
Q 1975 1750 1975 2000 
z
M 2400 -75 
Q 2400 25 2287 125 
Q 2175 225 1725 225 
Q 1625 225 1450 237 
Q 1275 250 1050 275 
Q 850 200 775 100 
Q 700 0 700 -100 
Q 700 -250 900 -350 
Q 1100 -450 1600 -450 
Q 2025 -450 2212 -337 
Q 2400 -225 2400 -75 
z
" transform="scale(0.015625)"/>
       <path id="SimHei-79" d="M 2900 2925 
L 1750 -100 
Q 1650 -450 1450 -625 
Q 1250 -800 950 -800 
Q 825 -800 712 -787 
Q 600 -775 500 -725 
L 500 -225 
Q 600 -275 700 -300 
Q 800 -325 875 -325 
Q 1075 -325 1150 -262 
Q 1225 -200 1300 25 
L 200 2925 
L 750 2925 
L 1550 725 
L 1575 725 
L 2350 2925 
L 2900 2925 
z
" transform="scale(0.015625)"/>
      </defs>
      <use xlink:href="#SimHei-54"/>
      <use xlink:href="#SimHei-6f" transform="translate(50 0)"/>
      <use xlink:href="#SimHei-74" transform="translate(100 0)"/>
      <use xlink:href="#SimHei-61" transform="translate(150 0)"/>
      <use xlink:href="#SimHei-6c" transform="translate(200 0)"/>
      <use xlink:href="#SimHei-20" transform="translate(250 0)"/>
      <use xlink:href="#SimHei-54" transform="translate(300 0)"/>
      <use xlink:href="#SimHei-61" transform="translate(350 0)"/>
      <use xlink:href="#SimHei-73" transform="translate(400 0)"/>
      <use xlink:href="#SimHei-6b" transform="translate(450 0)"/>
      <use xlink:href="#SimHei-20" transform="translate(500 0)"/>
      <use xlink:href="#SimHei-45" transform="translate(550 0)"/>
      <use xlink:href="#SimHei-6e" transform="translate(600 0)"/>
      <use xlink:href="#SimHei-65" transform="translate(650 0)"/>
      <use xlink:href="#SimHei-72" transform="translate(700 0)"/>
      <use xlink:href="#SimHei-67" transform="translate(750 0)"/>
      <use xlink:href="#SimHei-79" transform="translate(800 0)"/>
     </g>
    </g>
   </g>
   <g id="line2d_29">
    <path d="M 66.485227 48.838145 
L 67.912432 57.178814 
L 69.339636 58.266634 
L 70.76684 60.393166 
L 72.194045 55.818425 
L 73.621249 60.515226 
L 75.048454 67.886303 
L 76.475658 67.755919 
L 77.902862 75.660427 
L 79.330067 82.216229 
L 80.757271 86.009114 
L 82.184475 76.093445 
L 83.61168 75.623161 
L 85.038884 81.993711 
L 86.466089 92.423838 
L 87.893293 95.258885 
L 89.320497 74.456138 
L 90.747702 78.467061 
L 92.174906 85.610501 
L 93.60211 93.929202 
L 95.029315 98.991573 
L 96.456519 101.806542 
L 99.310928 113.509023 
L 100.738132 116.80496 
L 102.165337 123.094591 
L 103.592541 124.125456 
L 105.019745 126.564393 
L 106.44695 128.517762 
L 107.874154 128.380864 
L 109.301359 131.916552 
L 110.728563 135.05064 
L 112.155767 138.596895 
L 113.582972 144.952488 
L 116.43738 163.419095 
L 119.291789 180.199472 
L 122.146198 195.000565 
L 125.000607 208.875228 
L 126.427811 212.970414 
L 129.28222 224.85258 
L 132.136629 235.198915 
L 134.991037 244.264606 
L 139.27265 257.069833 
L 142.127059 264.691482 
L 146.408672 275.06728 
L 149.263081 280.647238 
L 150.690285 282.991746 
L 153.544694 288.443624 
L 154.971898 290.719985 
L 156.399103 292.699193 
L 159.253512 297.130854 
L 162.10792 300.986339 
L 163.535125 302.847824 
L 166.389533 305.960614 
L 169.243942 308.318096 
L 173.525555 312.435627 
L 174.95276 313.836322 
L 176.379964 314.987064 
L 177.807168 315.866241 
L 179.234373 315.239844 
L 180.661577 316.022718 
L 182.088782 317.20187 
L 186.370395 319.476315 
L 189.224803 320.985296 
L 190.652008 321.438555 
L 193.506417 322.82358 
L 194.933621 323.306777 
L 196.360825 323.976915 
L 197.78803 324.406191 
L 200.642438 325.435122 
L 202.069643 325.80361 
L 204.924052 326.813989 
L 206.351256 327.212565 
L 210.632869 328.118343 
L 212.060073 328.543956 
L 213.487278 328.723733 
L 216.341687 329.473727 
L 217.768891 329.556183 
L 219.196095 329.760486 
L 222.050504 330.81151 
L 223.477708 331.149102 
L 224.904913 331.2556 
L 226.332117 331.183288 
L 227.759322 331.518963 
L 229.186526 330.543221 
L 230.61373 330.768037 
L 232.040935 330.578671 
L 234.895343 331.050297 
L 236.322548 330.880728 
L 237.749752 331.138149 
L 240.604161 330.958872 
L 243.45857 331.190047 
L 246.312978 331.496638 
L 250.594592 331.539822 
L 252.021796 331.756049 
L 254.876205 332.018753 
L 256.303409 332.197908 
L 257.730613 332.161459 
L 259.157818 332.34097 
L 260.585022 331.986869 
L 263.439431 332.08075 
L 267.721044 332.735906 
L 269.148248 331.601274 
L 272.002657 332.240448 
L 273.429862 332.341912 
L 274.857066 332.31351 
L 276.28427 332.443257 
L 279.138679 332.95488 
L 280.565883 332.763883 
L 281.993088 331.399994 
L 283.420292 331.701753 
L 284.847497 331.875467 
L 289.12911 331.854216 
L 290.556314 332.006721 
L 291.983518 331.866188 
L 293.410723 331.847019 
L 296.265132 332.339002 
L 297.692336 332.290333 
L 301.973949 333.057851 
L 303.401153 332.941377 
L 304.828358 333.125921 
L 307.682767 333.195949 
L 310.537175 333.65379 
L 313.391584 334.263779 
L 316.245993 334.364628 
L 317.673197 334.585572 
L 319.100402 334.142163 
L 320.527606 334.312176 
L 321.95481 334.117624 
L 326.236423 334.442147 
L 327.663628 334.28505 
L 329.090832 334.418984 
L 330.518037 334.373625 
L 331.945241 334.501686 
L 333.372445 332.784926 
L 334.79965 332.786533 
L 336.226854 333.107519 
L 339.081263 333.192351 
L 340.508467 333.099428 
L 341.935672 333.261693 
L 347.644489 333.44322 
L 351.926102 333.760596 
L 353.353307 333.786793 
L 354.780511 333.968837 
L 356.207715 333.992825 
L 357.63492 333.486169 
L 359.062124 333.631639 
L 363.343737 333.759313 
L 366.198146 334.017716 
L 367.62535 334.081429 
L 369.052555 334.00981 
L 370.479759 333.724649 
L 371.906963 333.825848 
L 373.334168 333.714234 
L 374.761372 333.883115 
L 376.188577 333.770463 
L 384.751803 334.218541 
L 386.179007 334.038048 
L 389.033416 334.147909 
L 396.169438 334.402319 
L 397.596642 334.40643 
L 399.023847 333.922486 
L 401.878255 334.089517 
L 404.732664 334.498919 
L 406.159868 334.339643 
L 407.587073 334.325407 
L 409.014277 334.190985 
L 410.441482 331.887688 
L 411.868686 331.975437 
L 413.29589 332.308807 
L 416.150299 332.755263 
L 417.577503 333.05648 
L 419.004708 333.1809 
L 421.859117 333.746691 
L 423.286321 334.026381 
L 424.713525 334.033991 
L 433.276752 334.864268 
L 437.558365 334.669277 
L 438.985569 334.690517 
L 440.412773 334.567029 
L 441.839978 334.675125 
L 443.267182 334.624243 
L 447.548795 335.153046 
L 450.403204 335.124041 
L 451.830408 334.993307 
L 456.112022 335.201617 
L 457.539226 334.950855 
L 458.96643 334.881918 
L 461.820839 335.068216 
L 467.529657 334.873184 
L 468.956861 334.946366 
L 470.384065 334.62734 
L 471.81127 334.788026 
L 474.665678 334.860548 
L 476.092883 333.946269 
L 478.947292 334.360088 
L 480.374496 334.123352 
L 484.656109 334.519386 
L 487.510518 334.419876 
L 488.937722 334.518341 
L 490.364927 334.247723 
L 491.792131 334.183874 
L 494.64654 334.37231 
L 496.073744 334.067869 
L 497.500948 333.965706 
L 498.928153 334.104542 
L 500.355357 334.38243 
L 501.782562 334.426252 
L 503.209766 334.140398 
L 504.63697 334.078625 
L 506.064175 334.223069 
L 507.491379 334.10997 
L 508.918583 334.229013 
L 511.772992 334.732841 
L 513.200197 334.620595 
L 514.627401 334.729064 
L 516.054605 334.374804 
L 518.909014 334.386324 
L 523.190627 334.470151 
L 526.045036 334.360144 
L 528.899445 334.457615 
L 533.181058 334.351039 
L 536.035467 334.445895 
L 538.889875 334.720325 
L 541.744284 334.537177 
L 543.171488 334.782802 
L 548.880306 334.841688 
L 554.589123 335.217664 
L 556.016328 335.171574 
L 558.870737 335.322604 
L 561.725145 335.042273 
L 578.851598 335.346119 
L 580.278802 335.529055 
L 581.706006 335.416629 
L 583.133211 335.521652 
L 585.98762 335.351237 
L 587.414824 335.172638 
L 588.842028 335.340014 
L 591.696437 335.260422 
L 593.123641 335.509397 
L 594.550846 335.241725 
L 597.405255 335.189305 
L 601.686868 335.485782 
L 603.114072 335.462509 
L 604.541276 334.237899 
L 605.968481 334.353797 
L 607.395685 326.52766 
L 610.250094 327.60512 
L 611.677298 328.125531 
L 613.104503 327.490638 
L 614.531707 327.970425 
L 615.958911 328.239242 
L 617.386116 328.81195 
L 621.667729 329.550711 
L 623.094933 329.727742 
L 624.522138 329.756361 
L 625.949342 329.989435 
L 627.376546 330.408858 
L 630.230955 330.689079 
L 634.512568 331.490687 
L 635.939773 331.684405 
L 635.939773 331.684405 
" clip-path="url(#p2c39216664)" style="fill: none; stroke: #1f77b4; stroke-width: 1.2; stroke-linecap: square"/>
   </g>
   <g id="line2d_30">
    <path d="M 66.485227 297.820399 
L 67.912432 285.041844 
L 69.339636 263.103672 
L 70.76684 260.559142 
L 72.194045 246.631326 
L 73.621249 230.052231 
L 75.048454 227.561035 
L 76.475658 226.117104 
L 77.902862 225.886774 
L 79.330067 217.865876 
L 80.757271 219.400874 
L 82.184475 217.773134 
L 83.61168 217.475217 
L 85.038884 200.531136 
L 86.466089 204.53714 
L 87.893293 206.255636 
L 89.320497 200.266839 
L 90.747702 193.458604 
L 92.174906 194.393799 
L 93.60211 197.831244 
L 95.029315 200.282478 
L 96.456519 200.6308 
L 97.883724 196.489859 
L 99.310928 186.610582 
L 100.738132 185.402884 
L 102.165337 177.13389 
L 103.592541 174.594882 
L 105.019745 174.711103 
L 106.44695 170.872378 
L 107.874154 165.394673 
L 109.301359 156.942102 
L 110.728563 157.174215 
L 112.155767 159.384825 
L 113.582972 158.118283 
L 115.010176 157.158127 
L 116.43738 156.855595 
L 117.864585 151.475452 
L 119.291789 155.211769 
L 120.718994 149.258656 
L 122.146198 153.821775 
L 123.573402 151.962556 
L 125.000607 150.3983 
L 126.427811 154.18736 
L 127.855015 146.823936 
L 129.28222 143.931821 
L 130.709424 140.38289 
L 132.136629 145.088077 
L 133.563833 151.890501 
L 134.991037 161.111373 
L 137.845446 177.467306 
L 140.699855 193.008487 
L 143.554263 207.000607 
L 146.408672 219.756532 
L 149.263081 230.843104 
L 153.544694 245.852487 
L 154.971898 250.167493 
L 156.399103 250.497557 
L 162.10792 265.757595 
L 164.962329 272.481767 
L 166.389533 275.519022 
L 167.816738 276.687815 
L 169.243942 279.835306 
L 170.671147 275.881383 
L 172.098351 278.92975 
L 176.379964 286.931742 
L 179.234373 291.736831 
L 184.94319 299.232131 
L 186.370395 301.226459 
L 187.797599 302.967508 
L 190.652008 306.062655 
L 192.079212 307.089186 
L 193.506417 308.558953 
L 199.215234 313.630435 
L 200.642438 314.57586 
L 203.496847 316.830468 
L 204.924052 317.829985 
L 206.351256 318.313907 
L 207.77846 319.220747 
L 209.205665 319.862955 
L 210.632869 320.748426 
L 213.487278 322.068402 
L 214.914482 322.379444 
L 220.6233 324.625449 
L 223.477708 325.37284 
L 227.759322 326.98178 
L 229.186526 327.358935 
L 230.61373 327.332787 
L 232.040935 319.936357 
L 233.468139 320.466463 
L 234.895343 321.137864 
L 237.749752 322.07092 
L 239.176957 320.201901 
L 240.604161 320.740351 
L 243.45857 322.076947 
L 244.885774 322.618415 
L 247.740183 323.957853 
L 252.021796 325.736002 
L 253.449 326.176025 
L 254.876205 326.734797 
L 257.730613 327.566807 
L 259.157818 328.061848 
L 260.585022 328.193896 
L 262.012227 328.148492 
L 263.439431 328.228713 
L 267.721044 329.407034 
L 269.148248 329.559574 
L 270.575453 330.04696 
L 272.002657 330.250673 
L 273.429862 330.135077 
L 274.857066 330.422766 
L 276.28427 330.449238 
L 277.711475 330.779439 
L 279.138679 330.801582 
L 281.993088 331.202621 
L 283.420292 331.014587 
L 286.274701 331.582647 
L 287.701905 331.547716 
L 290.556314 332.147907 
L 291.983518 332.459959 
L 293.410723 332.563887 
L 294.837927 332.902438 
L 296.265132 332.962673 
L 297.692336 332.867862 
L 300.546745 333.143904 
L 301.973949 333.444537 
L 303.401153 333.430764 
L 304.828358 333.228307 
L 309.109971 333.380285 
L 313.391584 333.604497 
L 314.818788 333.828534 
L 316.245993 333.848223 
L 317.673197 333.645071 
L 319.100402 333.765954 
L 321.95481 333.742126 
L 323.382015 334.040464 
L 324.809219 333.92942 
L 326.236423 334.018559 
L 327.663628 331.737601 
L 329.090832 332.048242 
L 330.518037 332.225438 
L 333.372445 332.90314 
L 334.79965 333.101624 
L 336.226854 333.102828 
L 337.654058 332.883969 
L 339.081263 332.935646 
L 340.508467 332.8617 
L 341.935672 332.987979 
L 343.362876 332.935109 
L 344.79008 333.082727 
L 346.217285 333.033971 
L 347.644489 333.312009 
L 350.498898 333.279524 
L 351.926102 333.382837 
L 354.780511 333.447786 
L 363.343737 333.871985 
L 367.62535 334.400454 
L 369.052555 334.070131 
L 370.479759 333.464658 
L 373.334168 333.99959 
L 377.615781 334.412776 
L 379.042985 334.349623 
L 387.606212 334.95093 
L 391.887825 334.827799 
L 396.169438 335.165347 
L 397.596642 335.028146 
L 401.878255 335.148906 
L 403.30546 334.988839 
L 404.732664 335.044216 
L 406.159868 335.368513 
L 410.441482 335.15618 
L 413.29589 335.415527 
L 414.723095 333.853854 
L 416.150299 333.956645 
L 417.577503 332.303699 
L 420.431912 332.686461 
L 421.859117 332.530749 
L 424.713525 332.537619 
L 427.567934 332.994205 
L 430.422343 333.301547 
L 431.849547 333.08645 
L 434.703956 333.089361 
L 437.558365 333.688896 
L 438.985569 333.632562 
L 448.976 334.266211 
L 450.403204 333.882423 
L 454.684817 333.92333 
L 456.112022 333.801472 
L 460.393635 334.484643 
L 464.675248 334.109865 
L 467.529657 334.258726 
L 468.956861 334.430151 
L 474.665678 334.629577 
L 476.092883 334.532494 
L 478.947292 334.651278 
L 480.374496 334.626701 
L 481.8017 334.104229 
L 486.083313 334.231595 
L 487.510518 334.196009 
L 490.364927 334.371876 
L 491.792131 334.038826 
L 496.073744 334.520242 
L 501.782562 334.835625 
L 503.209766 334.787531 
L 504.63697 334.934942 
L 511.772992 334.810684 
L 513.200197 334.838704 
L 514.627401 332.312908 
L 516.054605 332.497415 
L 520.336218 332.280998 
L 521.763423 332.685601 
L 523.190627 332.883554 
L 524.617832 332.767846 
L 526.045036 333.024701 
L 527.47224 333.040006 
L 528.899445 332.728923 
L 533.181058 333.428875 
L 537.462671 333.595625 
L 540.31708 333.939891 
L 541.744284 333.824701 
L 543.171488 333.949596 
L 544.598693 333.883046 
L 546.025897 333.669209 
L 547.453102 333.999945 
L 548.880306 333.036027 
L 553.161919 333.279558 
L 556.016328 333.815126 
L 557.443532 333.825648 
L 560.297941 334.198051 
L 561.725145 333.966512 
L 568.861167 334.487709 
L 570.288371 334.5037 
L 573.14278 334.821348 
L 574.569985 334.698567 
L 575.997189 334.775556 
L 577.424393 334.595015 
L 583.133211 335.031171 
L 588.842028 334.463818 
L 590.269233 334.606609 
L 591.696437 334.300218 
L 594.550846 334.615895 
L 595.97805 334.558253 
L 597.405255 334.692886 
L 598.832459 334.310276 
L 600.259663 334.167033 
L 601.686868 334.263052 
L 604.541276 334.152345 
L 605.968481 334.088288 
L 608.82289 334.419836 
L 610.250094 334.439295 
L 611.677298 334.574512 
L 613.104503 334.329877 
L 617.386116 334.713183 
L 618.81332 334.85955 
L 621.667729 334.546226 
L 623.094933 334.539523 
L 624.522138 334.852642 
L 628.803751 335.075692 
L 630.230955 333.767005 
L 631.65816 333.98906 
L 634.512568 333.814076 
L 634.512568 333.814076 
" clip-path="url(#p2c39216664)" style="fill: none; stroke: #ff7f0e; stroke-width: 1.2; stroke-linecap: square"/>
   </g>
   <g id="line2d_31">
    <path d="M 66.485227 128.797085 
L 67.912432 131.910112 
L 69.339636 124.581963 
L 70.76684 127.219942 
L 72.194045 134.120381 
L 73.621249 138.752048 
L 75.048454 138.960791 
L 76.475658 145.252031 
L 77.902862 143.012595 
L 79.330067 144.008573 
L 80.757271 147.245998 
L 82.184475 147.779007 
L 83.61168 153.173192 
L 85.038884 148.970821 
L 86.466089 150.781579 
L 87.893293 140.268881 
L 89.320497 140.81476 
L 90.747702 142.659867 
L 92.174906 147.197039 
L 93.60211 137.922183 
L 95.029315 137.806907 
L 96.456519 141.835679 
L 97.883724 143.421193 
L 99.310928 139.752239 
L 100.738132 134.246363 
L 102.165337 139.958769 
L 103.592541 135.39759 
L 105.019745 138.302184 
L 106.44695 136.618501 
L 107.874154 140.5549 
L 109.301359 142.683148 
L 110.728563 135.822934 
L 113.582972 141.761161 
L 115.010176 140.02146 
L 116.43738 135.579522 
L 117.864585 132.015956 
L 119.291789 130.26994 
L 120.718994 128.937201 
L 122.146198 125.355174 
L 123.573402 120.314349 
L 125.000607 121.276549 
L 126.427811 114.726631 
L 127.855015 122.701687 
L 130.709424 116.490591 
L 132.136629 117.814756 
L 133.563833 117.283924 
L 134.991037 121.189315 
L 136.418242 122.357094 
L 137.845446 126.034589 
L 139.27265 119.665423 
L 142.127059 129.702897 
L 143.554263 130.320933 
L 144.981468 119.986828 
L 146.408672 114.720426 
L 147.835877 106.278878 
L 149.263081 107.944585 
L 150.690285 101.038124 
L 152.11749 101.776623 
L 153.544694 100.078017 
L 154.971898 96.094372 
L 156.399103 103.222025 
L 157.826307 104.667914 
L 159.253512 98.960399 
L 160.680716 82.869996 
L 162.10792 87.517302 
L 163.535125 84.845162 
L 164.962329 90.443066 
L 166.389533 91.500063 
L 169.243942 99.615117 
L 170.671147 99.760144 
L 172.098351 103.706328 
L 173.525555 105.646976 
L 174.95276 113.543567 
L 176.379964 112.606046 
L 177.807168 111.929912 
L 179.234373 108.235126 
L 180.661577 111.688763 
L 183.515986 119.986228 
L 184.94319 116.305103 
L 186.370395 115.425227 
L 187.797599 115.539371 
L 189.224803 105.207427 
L 190.652008 106.052693 
L 192.079212 105.411076 
L 193.506417 102.688109 
L 194.933621 96.538709 
L 196.360825 94.860543 
L 197.78803 77.352882 
L 199.215234 75.912213 
L 200.642438 82.226444 
L 202.069643 85.231665 
L 203.496847 72.997345 
L 204.924052 72.622347 
L 206.351256 75.859819 
L 207.77846 83.804372 
L 209.205665 86.112356 
L 210.632869 79.440147 
L 212.060073 80.890382 
L 213.487278 85.276389 
L 214.914482 76.479168 
L 216.341687 79.805084 
L 217.768891 88.366011 
L 219.196095 81.49198 
L 220.6233 71.875108 
L 222.050504 66.882084 
L 223.477708 60.961903 
L 224.904913 70.926987 
L 226.332117 69.42594 
L 227.759322 66.249916 
L 229.186526 72.809553 
L 230.61373 77.514493 
L 232.040935 85.61992 
L 234.895343 110.117341 
L 239.176957 142.108494 
L 242.031365 160.867329 
L 244.885774 177.89331 
L 247.740183 193.123592 
L 250.594592 207.133261 
L 252.021796 213.638642 
L 254.876205 225.306247 
L 257.730613 236.05161 
L 260.585022 245.868524 
L 262.012227 250.436704 
L 263.439431 254.610903 
L 269.148248 269.486962 
L 272.002657 276.181097 
L 274.857066 281.763572 
L 277.711475 286.500732 
L 279.138679 289.032186 
L 283.420292 295.342317 
L 287.701905 300.68266 
L 291.983518 305.339183 
L 293.410723 306.728705 
L 294.837927 308.295958 
L 297.692336 310.72658 
L 299.11954 311.634511 
L 301.973949 313.946998 
L 306.255562 316.370043 
L 307.682767 317.324789 
L 310.537175 318.899808 
L 311.96438 319.92806 
L 314.818788 321.489377 
L 316.245993 321.892441 
L 317.673197 322.734808 
L 319.100402 323.321963 
L 320.527606 323.697149 
L 321.95481 324.212199 
L 323.382015 324.505161 
L 327.663628 326.190912 
L 330.518037 326.550529 
L 331.945241 326.90891 
L 334.79965 327.997176 
L 336.226854 328.21157 
L 341.935672 329.813871 
L 346.217285 330.462657 
L 349.071693 330.98187 
L 350.498898 331.314288 
L 351.926102 331.082112 
L 354.780511 331.559258 
L 359.062124 332.344997 
L 360.489328 332.335932 
L 361.916533 332.591611 
L 364.770942 332.694467 
L 366.198146 332.770813 
L 369.052555 333.351006 
L 371.906963 333.47471 
L 373.334168 330.806972 
L 374.761372 331.14277 
L 376.188577 331.044034 
L 377.615781 331.223753 
L 379.042985 331.630696 
L 383.324598 332.298517 
L 387.606212 332.786785 
L 389.033416 332.646755 
L 391.887825 332.863011 
L 393.315029 331.555697 
L 399.023847 332.146929 
L 403.30546 333.096021 
L 406.159868 333.362543 
L 407.587073 333.238924 
L 413.29589 333.651803 
L 414.723095 333.91311 
L 417.577503 333.980929 
L 419.004708 334.122186 
L 420.431912 334.018783 
L 424.713525 334.510006 
L 426.14073 330.311769 
L 428.995138 330.861424 
L 430.422343 331.065179 
L 431.849547 331.087978 
L 434.703956 331.531855 
L 436.13116 331.628159 
L 438.985569 332.076184 
L 440.412773 331.931642 
L 441.839978 332.142511 
L 443.267182 332.195573 
L 444.694387 332.051437 
L 448.976 332.7603 
L 450.403204 332.755166 
L 451.830408 333.087537 
L 453.257613 333.295721 
L 456.112022 333.368075 
L 457.539226 332.581345 
L 458.96643 332.675251 
L 463.248043 333.344413 
L 464.675248 333.365308 
L 466.102452 333.503177 
L 467.529657 333.444376 
L 468.956861 333.669308 
L 471.81127 333.89344 
L 474.665678 334.303379 
L 477.520087 334.125467 
L 486.083313 334.540664 
L 487.510518 333.97595 
L 488.937722 334.133654 
L 490.364927 334.127246 
L 500.355357 335.101919 
L 501.782562 334.818807 
L 503.209766 334.713442 
L 506.064175 334.968364 
L 507.491379 335.127683 
L 508.918583 334.935001 
L 510.345788 334.85924 
L 511.772992 334.66752 
L 513.200197 334.831769 
L 516.054605 334.792407 
L 517.48181 333.428142 
L 523.190627 333.542032 
L 524.617832 333.797809 
L 526.045036 333.844987 
L 527.47224 333.754887 
L 528.899445 333.959327 
L 530.326649 333.933326 
L 531.753853 333.690744 
L 534.608262 333.854719 
L 536.035467 334.046982 
L 537.462671 334.019226 
L 540.31708 334.375602 
L 543.171488 334.430781 
L 544.598693 334.697035 
L 550.30751 334.628192 
L 551.734715 334.416177 
L 553.161919 334.398393 
L 554.589123 334.206139 
L 557.443532 334.296651 
L 560.297941 334.51913 
L 561.725145 334.526321 
L 563.15235 334.379201 
L 567.433963 334.706897 
L 568.861167 334.462378 
L 570.288371 334.368257 
L 571.715576 334.459955 
L 573.14278 331.820013 
L 574.569985 332.088141 
L 578.851598 332.370468 
L 580.278802 330.119186 
L 583.133211 330.794845 
L 585.98762 331.074119 
L 588.842028 331.578771 
L 593.123641 331.786489 
L 595.97805 332.3574 
L 598.832459 332.603427 
L 600.259663 329.835154 
L 601.686868 330.116348 
L 604.541276 330.428778 
L 605.968481 330.734384 
L 608.82289 330.999185 
L 610.250094 331.22244 
L 611.677298 331.296806 
L 613.104503 331.492284 
L 615.958911 331.609501 
L 620.240525 332.673343 
L 621.667729 332.668494 
L 623.094933 332.778852 
L 624.522138 333.079079 
L 627.376546 333.386509 
L 628.803751 333.208522 
L 631.65816 333.534596 
L 633.085364 331.45843 
L 634.512568 331.718365 
L 634.512568 331.718365 
" clip-path="url(#p2c39216664)" style="fill: none; stroke: #2ca02c; stroke-width: 1.2; stroke-linecap: square"/>
   </g>
   <g id="line2d_32">
    <path d="M 66.485227 128.797085 
L 67.912432 131.318562 
L 69.339636 130.704006 
L 70.76684 138.811719 
L 72.194045 145.502709 
L 73.621249 154.680529 
L 75.048454 160.715952 
L 79.330067 184.935025 
L 80.757271 189.540698 
L 83.61168 203.403752 
L 86.466089 215.999042 
L 89.320497 227.70176 
L 90.747702 233.198227 
L 96.456519 251.179686 
L 99.310928 259.263426 
L 102.165337 266.506891 
L 103.592541 268.719604 
L 107.874154 278.245207 
L 110.728563 283.73004 
L 115.010176 291.406566 
L 117.864585 295.875028 
L 119.291789 297.899793 
L 120.718994 299.664417 
L 122.146198 301.179977 
L 123.573402 303.142073 
L 126.427811 306.324739 
L 130.709424 310.612951 
L 132.136629 311.469811 
L 134.991037 313.987488 
L 136.418242 314.891214 
L 137.845446 316.165841 
L 140.699855 318.076844 
L 142.127059 317.079459 
L 144.981468 319.014681 
L 146.408672 319.895128 
L 147.835877 320.425822 
L 149.263081 321.277543 
L 154.971898 323.997824 
L 156.399103 324.468109 
L 157.826307 324.757174 
L 160.680716 325.734036 
L 162.10792 326.275468 
L 163.535125 326.56388 
L 164.962329 327.067666 
L 167.816738 327.226285 
L 169.243942 327.559091 
L 170.671147 328.01446 
L 172.098351 328.162236 
L 177.807168 329.792098 
L 179.234373 329.992549 
L 184.94319 330.205592 
L 190.652008 331.185216 
L 192.079212 331.287628 
L 197.78803 332.313388 
L 200.642438 332.499637 
L 202.069643 332.545674 
L 203.496847 332.915818 
L 206.351256 333.294913 
L 207.77846 333.419551 
L 209.205665 333.289508 
L 210.632869 333.473018 
L 212.060073 333.52041 
L 213.487278 333.809431 
L 219.196095 333.841745 
L 220.6233 333.496069 
L 227.759322 333.76637 
L 230.61373 334.191553 
L 232.040935 334.178324 
L 233.468139 334.291225 
L 234.895343 334.167666 
L 236.322548 334.380585 
L 239.176957 334.505674 
L 242.031365 334.435348 
L 246.312978 334.411476 
L 247.740183 334.443268 
L 249.167387 334.352205 
L 250.594592 334.572224 
L 252.021796 334.485288 
L 256.303409 334.757859 
L 259.157818 334.866866 
L 262.012227 334.899521 
L 263.439431 334.78024 
L 264.866635 334.825926 
L 266.29384 334.534543 
L 269.148248 334.564804 
L 270.575453 334.833647 
L 272.002657 334.687801 
L 274.857066 334.683224 
L 276.28427 332.719382 
L 279.138679 333.209339 
L 280.565883 332.915224 
L 287.701905 333.20139 
L 289.12911 332.936292 
L 290.556314 333.069159 
L 291.983518 332.828611 
L 294.837927 333.015254 
L 296.265132 332.935543 
L 297.692336 333.09062 
L 299.11954 332.947578 
L 300.546745 333.102228 
L 301.973949 332.800853 
L 304.828358 333.104021 
L 307.682767 333.645593 
L 310.537175 333.711004 
L 311.96438 334.034924 
L 313.391584 334.11426 
L 316.245993 334.103026 
L 317.673197 334.334054 
L 319.100402 334.386572 
L 320.527606 334.093379 
L 321.95481 334.328253 
L 324.809219 334.478477 
L 330.518037 334.665137 
L 331.945241 334.446878 
L 333.372445 334.42863 
L 334.79965 334.27654 
L 336.226854 334.432875 
L 337.654058 332.690121 
L 339.081263 332.922173 
L 340.508467 332.722656 
L 341.935672 333.046579 
L 344.79008 333.304371 
L 350.498898 333.61975 
L 351.926102 333.795008 
L 353.353307 329.674227 
L 354.780511 329.896917 
L 356.207715 330.307838 
L 357.63492 330.307004 
L 360.489328 330.669885 
L 361.916533 330.759294 
L 363.343737 331.076597 
L 364.770942 331.279475 
L 366.198146 331.332977 
L 367.62535 331.590572 
L 369.052555 328.056396 
L 370.479759 328.532578 
L 374.761372 329.275056 
L 376.188577 329.49772 
L 377.615781 329.834287 
L 379.042985 329.803773 
L 386.179007 331.183781 
L 387.606212 331.560809 
L 389.033416 331.281586 
L 390.46062 331.519453 
L 393.315029 331.729554 
L 394.742233 332.04767 
L 396.169438 332.068184 
L 397.596642 331.790826 
L 401.878255 332.39719 
L 403.30546 332.578944 
L 404.732664 332.634562 
L 407.587073 333.02808 
L 410.441482 333.102461 
L 411.868686 333.335723 
L 413.29589 333.180031 
L 414.723095 333.221205 
L 416.150299 333.432296 
L 417.577503 333.263422 
L 419.004708 331.704973 
L 423.286321 332.247394 
L 424.713525 332.359628 
L 427.567934 331.946267 
L 428.995138 332.36255 
L 430.422343 332.601067 
L 431.849547 333.014 
L 433.276752 333.046735 
L 434.703956 333.39787 
L 436.13116 333.405969 
L 437.558365 333.624142 
L 438.985569 333.480379 
L 441.839978 333.867739 
L 443.267182 333.73908 
L 446.121591 333.747326 
L 448.976 334.092478 
L 456.112022 334.640226 
L 457.539226 334.506066 
L 460.393635 334.868527 
L 461.820839 334.750934 
L 463.248043 334.805657 
L 466.102452 335.14813 
L 467.529657 335.262446 
L 470.384065 335.195921 
L 471.81127 335.324124 
L 474.665678 335.2366 
L 476.092883 335.223667 
L 477.520087 332.898813 
L 478.947292 331.371531 
L 480.374496 331.541382 
L 481.8017 330.222456 
L 486.083313 330.475546 
L 488.937722 330.940179 
L 490.364927 331.487409 
L 491.792131 331.652267 
L 493.219335 331.558069 
L 496.073744 331.990483 
L 498.928153 332.672501 
L 500.355357 332.703066 
L 503.209766 333.066426 
L 504.63697 332.978274 
L 506.064175 333.166062 
L 508.918583 333.042144 
L 510.345788 333.195666 
L 511.772992 333.4952 
L 514.627401 333.263579 
L 516.054605 332.784027 
L 517.48181 332.930252 
L 518.909014 332.843707 
L 520.336218 332.874994 
L 523.190627 333.270882 
L 524.617832 332.969226 
L 526.045036 332.94131 
L 527.47224 333.094783 
L 528.899445 332.741479 
L 530.326649 332.829759 
L 531.753853 332.581287 
L 533.181058 332.533797 
L 534.608262 332.754006 
L 537.462671 332.986444 
L 538.889875 332.872139 
L 540.31708 332.884584 
L 543.171488 333.235109 
L 546.025897 333.227766 
L 547.453102 333.15694 
L 550.30751 333.346861 
L 553.161919 333.505769 
L 554.589123 333.735081 
L 557.443532 333.571763 
L 558.870737 333.417306 
L 561.725145 333.884849 
L 564.579554 334.503592 
L 566.006758 334.410032 
L 567.433963 334.622453 
L 568.861167 334.472722 
L 581.706006 334.470033 
L 583.133211 334.645056 
L 584.560415 334.562031 
L 585.98762 334.359215 
L 588.842028 334.820355 
L 590.269233 334.729308 
L 597.405255 334.932352 
L 598.832459 335.105765 
L 600.259663 335.098469 
L 601.686868 335.282546 
L 603.114072 335.245113 
L 604.541276 335.349942 
L 607.395685 335.171524 
L 608.82289 335.327128 
L 614.531707 335.130784 
L 615.958911 335.214607 
L 617.386116 334.919864 
L 618.81332 333.678849 
L 624.522138 334.092955 
L 625.949342 334.083905 
L 627.376546 334.222194 
L 628.803751 334.472984 
L 630.230955 334.386016 
L 631.65816 332.370351 
L 633.085364 332.714509 
L 634.512568 332.93758 
L 634.512568 332.93758 
" clip-path="url(#p2c39216664)" style="fill: none; stroke: #9b8ac9; stroke-width: 1.2; stroke-linecap: square"/>
   </g>
   <g id="patch_3">
    <path d="M 38.0125 349.8636 
L 38.0125 34.5036 
" style="fill: none; stroke: #000000; stroke-width: 0.8; stroke-linejoin: miter; stroke-linecap: square"/>
   </g>
   <g id="patch_4">
    <path d="M 664.4125 349.8636 
L 664.4125 34.5036 
" style="fill: none; stroke: #000000; stroke-width: 0.8; stroke-linejoin: miter; stroke-linecap: square"/>
   </g>
   <g id="patch_5">
    <path d="M 38.0125 349.8636 
L 664.4125 349.8636 
" style="fill: none; stroke: #000000; stroke-width: 0.8; stroke-linejoin: miter; stroke-linecap: square"/>
   </g>
   <g id="patch_6">
    <path d="M 38.0125 34.5036 
L 664.4125 34.5036 
" style="fill: none; stroke: #000000; stroke-width: 0.8; stroke-linejoin: miter; stroke-linecap: square"/>
   </g>
   <g id="legend_1">
    <g id="patch_7">
     <path d="M 38.0125 31.35 
L 664.4125 31.35 
L 664.4125 7.2 
L 38.0125 7.2 
z
" style="fill: #ffffff; stroke: #808080; stroke-width: 0.8; stroke-linejoin: miter"/>
    </g>
    <g id="line2d_33">
     <path d="M 44.3125 18.4 
L 58.3125 18.4 
L 72.3125 18.4 
" style="fill: none; stroke: #1f77b4; stroke-width: 1.2; stroke-linecap: square"/>
    </g>
    <g id="text_17">
     <!-- GCN-DDQN -->
     <g transform="translate(80.7125 23.3) scale(0.14 -0.14)">
      <defs>
       <path id="SimHei-47" d="M 2850 75 
L 2425 75 
L 2350 425 
Q 2250 275 2037 175 
Q 1825 75 1575 75 
Q 1050 75 637 562 
Q 225 1050 225 2125 
Q 225 3300 600 3875 
Q 975 4450 1625 4450 
Q 2200 4450 2525 4025 
Q 2850 3600 2850 2925 
L 2300 2925 
Q 2300 3450 2125 3712 
Q 1950 3975 1625 3975 
Q 1225 3975 1025 3562 
Q 825 3150 825 2175 
Q 825 1250 1075 900 
Q 1325 550 1650 550 
Q 1975 550 2162 787 
Q 2350 1025 2350 1525 
L 2350 1800 
L 1575 1800 
L 1575 2275 
L 2850 2275 
L 2850 75 
z
" transform="scale(0.015625)"/>
       <path id="SimHei-43" d="M 2975 1825 
Q 2950 875 2575 475 
Q 2200 75 1675 75 
Q 1075 75 650 562 
Q 225 1050 225 2125 
Q 225 3300 637 3875 
Q 1050 4450 1700 4450 
Q 2250 4450 2612 4037 
Q 2975 3625 2950 2875 
L 2400 2875 
Q 2400 3425 2225 3700 
Q 2050 3975 1700 3975 
Q 1300 3975 1062 3562 
Q 825 3150 825 2175 
Q 825 1275 1062 912 
Q 1300 550 1675 550 
Q 1950 550 2175 812 
Q 2400 1075 2400 1825 
L 2975 1825 
z
" transform="scale(0.015625)"/>
       <path id="SimHei-4e" d="M 2850 125 
L 2225 125 
L 850 3225 
L 825 3225 
L 825 125 
L 250 125 
L 250 4400 
L 875 4400 
L 2250 1300 
L 2275 1300 
L 2275 4400 
L 2850 4400 
L 2850 125 
z
" transform="scale(0.015625)"/>
       <path id="SimHei-2d" d="M 2975 2125 
L 125 2125 
L 125 2525 
L 2975 2525 
L 2975 2125 
z
" transform="scale(0.015625)"/>
       <path id="SimHei-44" d="M 2925 2250 
Q 2925 1100 2437 612 
Q 1950 125 1125 125 
L 275 125 
L 275 4400 
L 1125 4400 
Q 2050 4400 2487 3900 
Q 2925 3400 2925 2250 
z
M 2325 2250 
Q 2325 3175 2025 3550 
Q 1725 3925 1125 3925 
L 850 3925 
L 850 600 
L 1125 600 
Q 1725 600 2025 962 
Q 2325 1325 2325 2250 
z
" transform="scale(0.015625)"/>
       <path id="SimHei-51" d="M 2950 2275 
Q 2950 1675 2862 1262 
Q 2775 850 2575 600 
L 2775 225 
L 2375 -200 
L 2150 225 
Q 2050 150 1900 112 
Q 1750 75 1575 75 
Q 925 75 550 587 
Q 175 1100 175 2275 
Q 175 3450 550 3950 
Q 925 4450 1575 4450 
Q 2225 4450 2587 3950 
Q 2950 3450 2950 2275 
z
M 2350 2275 
Q 2350 3325 2125 3650 
Q 1900 3975 1575 3975 
Q 1250 3975 1012 3650 
Q 775 3325 775 2275 
Q 775 1225 1012 887 
Q 1250 550 1575 550 
Q 1700 550 1800 587 
Q 1900 625 1950 675 
L 1550 1450 
L 1900 1875 
L 2250 1200 
Q 2300 1450 2325 1650 
Q 2350 1850 2350 2275 
z
" transform="scale(0.015625)"/>
      </defs>
      <use xlink:href="#SimHei-47"/>
      <use xlink:href="#SimHei-43" transform="translate(50 0)"/>
      <use xlink:href="#SimHei-4e" transform="translate(100 0)"/>
      <use xlink:href="#SimHei-2d" transform="translate(150 0)"/>
      <use xlink:href="#SimHei-44" transform="translate(200 0)"/>
      <use xlink:href="#SimHei-44" transform="translate(250 0)"/>
      <use xlink:href="#SimHei-51" transform="translate(300 0)"/>
      <use xlink:href="#SimHei-4e" transform="translate(350 0)"/>
     </g>
    </g>
    <g id="line2d_34">
     <path d="M 211.1125 18.4 
L 225.1125 18.4 
L 239.1125 18.4 
" style="fill: none; stroke: #ff7f0e; stroke-width: 1.2; stroke-linecap: square"/>
    </g>
    <g id="text_18">
     <!-- GCN-D3QN -->
     <g transform="translate(247.5125 23.3) scale(0.14 -0.14)">
      <use xlink:href="#SimHei-47"/>
      <use xlink:href="#SimHei-43" transform="translate(50 0)"/>
      <use xlink:href="#SimHei-4e" transform="translate(100 0)"/>
      <use xlink:href="#SimHei-2d" transform="translate(150 0)"/>
      <use xlink:href="#SimHei-44" transform="translate(200 0)"/>
      <use xlink:href="#SimHei-33" transform="translate(250 0)"/>
      <use xlink:href="#SimHei-51" transform="translate(300 0)"/>
      <use xlink:href="#SimHei-4e" transform="translate(350 0)"/>
     </g>
    </g>
    <g id="line2d_35">
     <path d="M 377.9125 18.4 
L 391.9125 18.4 
L 405.9125 18.4 
" style="fill: none; stroke: #2ca02c; stroke-width: 1.2; stroke-linecap: square"/>
    </g>
    <g id="text_19">
     <!-- GAT-LSTM-DDQN -->
     <g transform="translate(414.3125 23.3) scale(0.14 -0.14)">
      <defs>
       <path id="SimHei-41" d="M 3075 125 
L 2475 125 
L 2125 1450 
L 1025 1450 
L 675 125 
L 75 125 
L 1325 4450 
L 1825 4450 
L 3075 125 
z
M 2000 1925 
L 1600 3450 
L 1550 3450 
L 1150 1925 
L 2000 1925 
z
" transform="scale(0.015625)"/>
       <path id="SimHei-4c" d="M 2900 125 
L 300 125 
L 300 4400 
L 875 4400 
L 875 600 
L 2900 600 
L 2900 125 
z
" transform="scale(0.015625)"/>
       <path id="SimHei-53" d="M 2900 1325 
Q 2900 750 2537 412 
Q 2175 75 1550 75 
Q 925 75 575 425 
Q 225 775 225 1300 
L 225 1475 
L 800 1475 
L 800 1325 
Q 800 950 1025 750 
Q 1250 550 1550 550 
Q 1950 550 2137 762 
Q 2325 975 2325 1275 
Q 2325 1525 2100 1737 
Q 1875 1950 1450 2125 
Q 850 2350 587 2625 
Q 325 2900 325 3275 
Q 325 3800 687 4125 
Q 1050 4450 1550 4450 
Q 2200 4450 2487 4062 
Q 2775 3675 2775 3225 
L 2200 3225 
Q 2225 3500 2050 3725 
Q 1875 3950 1550 3950 
Q 1250 3950 1075 3787 
Q 900 3625 900 3350 
Q 900 3125 1037 2962 
Q 1175 2800 1750 2575 
Q 2300 2350 2600 2037 
Q 2900 1725 2900 1325 
z
" transform="scale(0.015625)"/>
       <path id="SimHei-4d" d="M 2925 125 
L 2425 125 
L 2425 3175 
L 2375 3175 
L 1775 125 
L 1375 125 
L 775 3175 
L 725 3175 
L 725 125 
L 225 125 
L 225 4400 
L 1000 4400 
L 1550 1575 
L 1600 1575 
L 2150 4400 
L 2925 4400 
L 2925 125 
z
" transform="scale(0.015625)"/>
      </defs>
      <use xlink:href="#SimHei-47"/>
      <use xlink:href="#SimHei-41" transform="translate(50 0)"/>
      <use xlink:href="#SimHei-54" transform="translate(100 0)"/>
      <use xlink:href="#SimHei-2d" transform="translate(150 0)"/>
      <use xlink:href="#SimHei-4c" transform="translate(200 0)"/>
      <use xlink:href="#SimHei-53" transform="translate(250 0)"/>
      <use xlink:href="#SimHei-54" transform="translate(300 0)"/>
      <use xlink:href="#SimHei-4d" transform="translate(350 0)"/>
      <use xlink:href="#SimHei-2d" transform="translate(400 0)"/>
      <use xlink:href="#SimHei-44" transform="translate(450 0)"/>
      <use xlink:href="#SimHei-44" transform="translate(500 0)"/>
      <use xlink:href="#SimHei-51" transform="translate(550 0)"/>
      <use xlink:href="#SimHei-4e" transform="translate(600 0)"/>
     </g>
    </g>
    <g id="line2d_36">
     <path d="M 579.7125 18.4 
L 593.7125 18.4 
L 607.7125 18.4 
" style="fill: none; stroke: #9b8ac9; stroke-width: 1.2; stroke-linecap: square"/>
    </g>
    <g id="text_20">
     <!-- GLDVTO -->
     <g transform="translate(616.1125 23.3) scale(0.14 -0.14)">
      <defs>
       <path id="SimHei-56" d="M 3050 4400 
L 1800 75 
L 1300 75 
L 50 4400 
L 650 4400 
L 1525 1125 
L 1575 1125 
L 2450 4400 
L 3050 4400 
z
" transform="scale(0.015625)"/>
       <path id="SimHei-4f" d="M 2950 2275 
Q 2950 1100 2587 587 
Q 2225 75 1575 75 
Q 925 75 550 587 
Q 175 1100 175 2275 
Q 175 3450 550 3950 
Q 925 4450 1575 4450 
Q 2225 4450 2587 3950 
Q 2950 3450 2950 2275 
z
M 2350 2275 
Q 2350 3325 2125 3650 
Q 1900 3975 1575 3975 
Q 1250 3975 1012 3650 
Q 775 3325 775 2275 
Q 775 1225 1012 887 
Q 1250 550 1575 550 
Q 1900 550 2125 887 
Q 2350 1225 2350 2275 
z
" transform="scale(0.015625)"/>
      </defs>
      <use xlink:href="#SimHei-47"/>
      <use xlink:href="#SimHei-4c" transform="translate(50 0)"/>
      <use xlink:href="#SimHei-44" transform="translate(100 0)"/>
      <use xlink:href="#SimHei-56" transform="translate(150 0)"/>
      <use xlink:href="#SimHei-54" transform="translate(200 0)"/>
      <use xlink:href="#SimHei-4f" transform="translate(250 0)"/>
     </g>
    </g>
   </g>
  </g>
 </g>
 <defs>
  <clipPath id="p2c39216664">
   <rect x="38.0125" y="34.5036" width="626.4" height="315.36"/>
  </clipPath>
 </defs>
</svg>
