<?xml version="1.0" encoding="utf-8" standalone="no"?>
<!DOCTYPE svg PUBLIC "-//W3C//DTD SVG 1.1//EN"
  "http://www.w3.org/Graphics/SVG/1.1/DTD/svg11.dtd">
<svg xmlns:xlink="http://www.w3.org/1999/xlink" width="689.6125pt" height="391.6261pt" viewBox="0 0 689.6125 391.6261" xmlns="http://www.w3.org/2000/svg" version="1.1">
 <metadata>
  <rdf:RDF xmlns:dc="http://purl.org/dc/elements/1.1/" xmlns:cc="http://creativecommons.org/ns#" xmlns:rdf="http://www.w3.org/1999/02/22-rdf-syntax-ns#">
   <cc:Work>
    <dc:type rdf:resource="http://purl.org/dc/dcmitype/StillImage"/>
    <dc:date>2026-07-13T18:57:42.525558</dc:date>
    <dc:format>image/svg+xml</dc:format>
    <dc:creator>
     <cc:Agent>
      <dc:title>Matplotlib v3.10.7, https://matplotlib.org/</dc:title>
     </cc:Agent>
    </dc:creator>
   </cc:Work>
  </rdf:RDF>
 </metadata>
 <defs>
  <style type="text/css">*{stroke-linejoin: round; stroke-linecap: butt}</style>
 </defs>
 <g id="figure_1">
  <g id="patch_1">
   <path d="M 0 391.6261 
L 689.6125 391.6261 
L 689.6125 0 
L 0 0 
z
" style="fill: #ffffff"/>
  </g>
  <g id="axes_1">
   <g id="patch_2">
    <path d="M 56.0125 349.8636 
L 682.4125 349.8636 
L 682.4125 34.5036 
L 56.0125 34.5036 
z
" style="fill: #ffffff"/>
   </g>
   <g id="matplotlib.axis_1">
    <g id="xtick_1">
     <g id="line2d_1">
      <path d="M 84.485227 349.8636 
L 84.485227 34.5036 
" clip-path="url(#p6d70cafcd2)" style="fill: none; stroke-dasharray: 2.22,0.96; stroke-dashoffset: 0; stroke: #b0b0b0; stroke-opacity: 0.25; stroke-width: 0.6"/>
     </g>
     <g id="line2d_2">
      <defs>
       <path id="m3120dd8e33" d="M 0 0 
L 0 3.5 
" style="stroke: #000000; stroke-width: 0.8"/>
      </defs>
      <g>
       <use xlink:href="#m3120dd8e33" x="84.485227" y="349.8636" style="stroke: #000000; stroke-width: 0.8"/>
      </g>
     </g>
     <g id="text_1">
      <!-- 0 -->
      <g transform="translate(81.485227 365.1136) scale(0.12 -0.12)">
       <defs>
        <path id="SimHei-30" d="M 225 2537 
Q 250 3200 412 3587 
Q 575 3975 875 4225 
Q 1175 4475 1612 4475 
Q 2050 4475 2375 4112 
Q 2700 3750 2800 3200 
Q 2900 2650 2862 1937 
Q 2825 1225 2612 775 
Q 2400 325 1975 150 
Q 1550 -25 1125 187 
Q 700 400 525 750 
Q 350 1100 275 1487 
Q 200 1875 225 2537 
z
M 750 2687 
Q 675 2000 800 1462 
Q 925 925 1212 700 
Q 1500 475 1800 612 
Q 2100 750 2237 1162 
Q 2375 1575 2375 2062 
Q 2375 2550 2337 2950 
Q 2300 3350 2112 3675 
Q 1925 4000 1612 4012 
Q 1300 4025 1062 3700 
Q 825 3375 750 2687 
z
" transform="scale(0.015625)"/>
       </defs>
       <use xlink:href="#SimHei-30"/>
      </g>
     </g>
    </g>
    <g id="xtick_2">
     <g id="line2d_3">
      <path d="M 155.845446 349.8636 
L 155.845446 34.5036 
" clip-path="url(#p6d70cafcd2)" style="fill: none; stroke-dasharray: 2.22,0.96; stroke-dashoffset: 0; stroke: #b0b0b0; stroke-opacity: 0.25; stroke-width: 0.6"/>
     </g>
     <g id="line2d_4">
      <g>
       <use xlink:href="#m3120dd8e33" x="155.845446" y="349.8636" style="stroke: #000000; stroke-width: 0.8"/>
      </g>
     </g>
     <g id="text_2">
      <!-- 50 -->
      <g transform="translate(149.845446 365.1136) scale(0.12 -0.12)">
       <defs>
        <path id="SimHei-35" d="M 550 1325 
Q 725 650 1150 575 
Q 1575 500 1837 662 
Q 2100 825 2212 1087 
Q 2325 1350 2312 1675 
Q 2300 2000 2137 2225 
Q 1975 2450 1725 2525 
Q 1475 2600 1162 2525 
Q 850 2450 650 2175 
L 225 2225 
Q 275 2375 700 4375 
L 2675 4375 
L 2675 3925 
L 1075 3925 
Q 950 3250 825 2850 
Q 1200 3025 1525 3012 
Q 1850 3000 2150 2862 
Q 2450 2725 2587 2487 
Q 2725 2250 2787 2012 
Q 2850 1775 2837 1500 
Q 2825 1225 2725 937 
Q 2625 650 2425 462 
Q 2225 275 1937 162 
Q 1650 50 1275 75 
Q 900 100 562 350 
Q 225 600 100 1200 
L 550 1325 
z
" transform="scale(0.015625)"/>
       </defs>
       <use xlink:href="#SimHei-35"/>
       <use xlink:href="#SimHei-30" transform="translate(50 0)"/>
      </g>
     </g>
    </g>
    <g id="xtick_3">
     <g id="line2d_5">
      <path d="M 227.205665 349.8636 
L 227.205665 34.5036 
" clip-path="url(#p6d70cafcd2)" style="fill: none; stroke-dasharray: 2.22,0.96; stroke-dashoffset: 0; stroke: #b0b0b0; stroke-opacity: 0.25; stroke-width: 0.6"/>
     </g>
     <g id="line2d_6">
      <g>
       <use xlink:href="#m3120dd8e33" x="227.205665" y="349.8636" style="stroke: #000000; stroke-width: 0.8"/>
      </g>
     </g>
     <g id="text_3">
      <!-- 100 -->
      <g transform="translate(218.205665 365.1136) scale(0.12 -0.12)">
       <defs>
        <path id="SimHei-31" d="M 1400 3600 
Q 1075 3275 575 2975 
L 575 3450 
Q 1200 3875 1600 4450 
L 1900 4450 
L 1900 150 
L 1400 150 
L 1400 3600 
z
" transform="scale(0.015625)"/>
       </defs>
       <use xlink:href="#SimHei-31"/>
       <use xlink:href="#SimHei-30" transform="translate(50 0)"/>
       <use xlink:href="#SimHei-30" transform="translate(100 0)"/>
      </g>
     </g>
    </g>
    <g id="xtick_4">
     <g id="line2d_7">
      <path d="M 298.565883 349.8636 
L 298.565883 34.5036 
" clip-path="url(#p6d70cafcd2)" style="fill: none; stroke-dasharray: 2.22,0.96; stroke-dashoffset: 0; stroke: #b0b0b0; stroke-opacity: 0.25; stroke-width: 0.6"/>
     </g>
     <g id="line2d_8">
      <g>
       <use xlink:href="#m3120dd8e33" x="298.565883" y="349.8636" style="stroke: #000000; stroke-width: 0.8"/>
      </g>
     </g>
     <g id="text_4">
      <!-- 150 -->
      <g transform="translate(289.565883 365.1136) scale(0.12 -0.12)">
       <use xlink:href="#SimHei-31"/>
       <use xlink:href="#SimHei-35" transform="translate(50 0)"/>
       <use xlink:href="#SimHei-30" transform="translate(100 0)"/>
      </g>
     </g>
    </g>
    <g id="xtick_5">
     <g id="line2d_9">
      <path d="M 369.926102 349.8636 
L 369.926102 34.5036 
" clip-path="url(#p6d70cafcd2)" style="fill: none; stroke-dasharray: 2.22,0.96; stroke-dashoffset: 0; stroke: #b0b0b0; stroke-opacity: 0.25; stroke-width: 0.6"/>
     </g>
     <g id="line2d_10">
      <g>
       <use xlink:href="#m3120dd8e33" x="369.926102" y="349.8636" style="stroke: #000000; stroke-width: 0.8"/>
      </g>
     </g>
     <g id="text_5">
      <!-- 200 -->
      <g transform="translate(360.926102 365.1136) scale(0.12 -0.12)">
       <defs>
        <path id="SimHei-32" d="M 300 250 
Q 325 625 650 925 
Q 975 1225 1475 1862 
Q 1975 2500 2125 2850 
Q 2275 3200 2237 3450 
Q 2200 3700 2000 3862 
Q 1800 4025 1537 4000 
Q 1275 3975 1037 3800 
Q 800 3625 675 3275 
L 200 3350 
Q 400 3925 712 4187 
Q 1025 4450 1450 4475 
Q 1700 4500 1900 4462 
Q 2100 4425 2312 4287 
Q 2525 4150 2662 3875 
Q 2800 3600 2762 3212 
Q 2725 2825 2375 2287 
Q 2025 1750 1025 600 
L 2825 600 
L 2825 150 
L 300 150 
L 300 250 
z
" transform="scale(0.015625)"/>
       </defs>
       <use xlink:href="#SimHei-32"/>
       <use xlink:href="#SimHei-30" transform="translate(50 0)"/>
       <use xlink:href="#SimHei-30" transform="translate(100 0)"/>
      </g>
     </g>
    </g>
    <g id="xtick_6">
     <g id="line2d_11">
      <path d="M 441.286321 349.8636 
L 441.286321 34.5036 
" clip-path="url(#p6d70cafcd2)" style="fill: none; stroke-dasharray: 2.22,0.96; stroke-dashoffset: 0; stroke: #b0b0b0; stroke-opacity: 0.25; stroke-width: 0.6"/>
     </g>
     <g id="line2d_12">
      <g>
       <use xlink:href="#m3120dd8e33" x="441.286321" y="349.8636" style="stroke: #000000; stroke-width: 0.8"/>
      </g>
     </g>
     <g id="text_6">
      <!-- 250 -->
      <g transform="translate(432.286321 365.1136) scale(0.12 -0.12)">
       <use xlink:href="#SimHei-32"/>
       <use xlink:href="#SimHei-35" transform="translate(50 0)"/>
       <use xlink:href="#SimHei-30" transform="translate(100 0)"/>
      </g>
     </g>
    </g>
    <g id="xtick_7">
     <g id="line2d_13">
      <path d="M 512.64654 349.8636 
L 512.64654 34.5036 
" clip-path="url(#p6d70cafcd2)" style="fill: none; stroke-dasharray: 2.22,0.96; stroke-dashoffset: 0; stroke: #b0b0b0; stroke-opacity: 0.25; stroke-width: 0.6"/>
     </g>
     <g id="line2d_14">
      <g>
       <use xlink:href="#m3120dd8e33" x="512.64654" y="349.8636" style="stroke: #000000; stroke-width: 0.8"/>
      </g>
     </g>
     <g id="text_7">
      <!-- 300 -->
      <g transform="translate(503.64654 365.1136) scale(0.12 -0.12)">
       <defs>
        <path id="SimHei-33" d="M 250 1225 
L 700 1300 
Q 800 975 1025 762 
Q 1250 550 1587 562 
Q 1925 575 2125 837 
Q 2325 1100 2300 1437 
Q 2275 1775 2037 1962 
Q 1800 2150 1275 2225 
L 1275 2550 
Q 1800 2600 2037 2825 
Q 2275 3050 2250 3412 
Q 2225 3775 1925 3937 
Q 1625 4100 1287 3975 
Q 950 3850 750 3275 
L 300 3350 
Q 450 3800 712 4100 
Q 975 4400 1425 4450 
Q 1875 4500 2212 4337 
Q 2550 4175 2687 3837 
Q 2825 3500 2725 3100 
Q 2625 2700 2150 2400 
Q 2500 2250 2687 1950 
Q 2875 1650 2812 1162 
Q 2750 675 2375 375 
Q 2000 75 1525 87 
Q 1050 100 700 387 
Q 350 675 250 1225 
z
" transform="scale(0.015625)"/>
       </defs>
       <use xlink:href="#SimHei-33"/>
       <use xlink:href="#SimHei-30" transform="translate(50 0)"/>
       <use xlink:href="#SimHei-30" transform="translate(100 0)"/>
      </g>
     </g>
    </g>
    <g id="xtick_8">
     <g id="line2d_15">
      <path d="M 584.006758 349.8636 
L 584.006758 34.5036 
" clip-path="url(#p6d70cafcd2)" style="fill: none; stroke-dasharray: 2.22,0.96; stroke-dashoffset: 0; stroke: #b0b0b0; stroke-opacity: 0.25; stroke-width: 0.6"/>
     </g>
     <g id="line2d_16">
      <g>
       <use xlink:href="#m3120dd8e33" x="584.006758" y="349.8636" style="stroke: #000000; stroke-width: 0.8"/>
      </g>
     </g>
     <g id="text_8">
      <!-- 350 -->
      <g transform="translate(575.006758 365.1136) scale(0.12 -0.12)">
       <use xlink:href="#SimHei-33"/>
       <use xlink:href="#SimHei-35" transform="translate(50 0)"/>
       <use xlink:href="#SimHei-30" transform="translate(100 0)"/>
      </g>
     </g>
    </g>
    <g id="xtick_9">
     <g id="line2d_17">
      <path d="M 655.366977 349.8636 
L 655.366977 34.5036 
" clip-path="url(#p6d70cafcd2)" style="fill: none; stroke-dasharray: 2.22,0.96; stroke-dashoffset: 0; stroke: #b0b0b0; stroke-opacity: 0.25; stroke-width: 0.6"/>
     </g>
     <g id="line2d_18">
      <g>
       <use xlink:href="#m3120dd8e33" x="655.366977" y="349.8636" style="stroke: #000000; stroke-width: 0.8"/>
      </g>
     </g>
     <g id="text_9">
      <!-- 400 -->
      <g transform="translate(646.366977 365.1136) scale(0.12 -0.12)">
       <defs>
        <path id="SimHei-34" d="M 2000 1100 
L 75 1100 
L 75 1525 
L 2100 4450 
L 2475 4450 
L 2475 1525 
L 3075 1525 
L 3075 1100 
L 2475 1100 
L 2475 150 
L 2000 150 
L 2000 1100 
z
M 2000 1525 
L 2000 3500 
L 600 1525 
L 2000 1525 
z
" transform="scale(0.015625)"/>
       </defs>
       <use xlink:href="#SimHei-34"/>
       <use xlink:href="#SimHei-30" transform="translate(50 0)"/>
       <use xlink:href="#SimHei-30" transform="translate(100 0)"/>
      </g>
     </g>
    </g>
    <g id="text_10">
     <!-- Episode -->
     <g transform="translate(339.4625 382.3011) scale(0.17 -0.17)">
      <defs>
       <path id="SimHei-45" d="M 2900 125 
L 350 125 
L 350 4400 
L 2775 4400 
L 2775 3925 
L 925 3925 
L 925 2600 
L 2625 2600 
L 2625 2125 
L 925 2125 
L 925 600 
L 2900 600 
L 2900 125 
z
" transform="scale(0.015625)"/>
       <path id="SimHei-70" d="M 2825 1525 
Q 2825 800 2475 425 
Q 2125 50 1625 50 
Q 1350 50 1150 162 
Q 950 275 800 500 
L 800 -800 
L 300 -800 
L 300 2925 
L 800 2925 
L 800 2550 
Q 950 2775 1150 2875 
Q 1350 2975 1625 2975 
Q 2125 2975 2475 2612 
Q 2825 2250 2825 1525 
z
M 2275 1525 
Q 2275 2000 2087 2262 
Q 1900 2525 1525 2525 
Q 1225 2525 1012 2262 
Q 800 2000 800 1525 
Q 800 1050 1012 775 
Q 1225 500 1525 500 
Q 1900 500 2087 775 
Q 2275 1050 2275 1525 
z
" transform="scale(0.015625)"/>
       <path id="SimHei-69" d="M 1800 3725 
L 1300 3725 
L 1300 4375 
L 1800 4375 
L 1800 3725 
z
M 1800 125 
L 1300 125 
L 1300 2925 
L 1800 2925 
L 1800 125 
z
" transform="scale(0.015625)"/>
       <path id="SimHei-73" d="M 2750 900 
Q 2750 500 2437 287 
Q 2125 75 1650 75 
Q 1050 75 725 312 
Q 400 550 400 1000 
L 900 1000 
Q 900 700 1112 600 
Q 1325 500 1625 500 
Q 1925 500 2075 612 
Q 2225 725 2225 900 
Q 2225 1025 2100 1150 
Q 1975 1275 1475 1350 
Q 900 1425 687 1637 
Q 475 1850 475 2200 
Q 475 2500 762 2737 
Q 1050 2975 1600 2975 
Q 2100 2975 2387 2750 
Q 2675 2525 2675 2150 
L 2175 2150 
Q 2175 2375 2012 2462 
Q 1850 2550 1600 2550 
Q 1275 2550 1137 2437 
Q 1000 2325 1000 2175 
Q 1000 2000 1125 1900 
Q 1250 1800 1650 1750 
Q 2300 1650 2525 1437 
Q 2750 1225 2750 900 
z
" transform="scale(0.015625)"/>
       <path id="SimHei-6f" d="M 2925 1525 
Q 2925 875 2525 475 
Q 2125 75 1575 75 
Q 1025 75 625 475 
Q 225 875 225 1525 
Q 225 2175 625 2575 
Q 1025 2975 1575 2975 
Q 2125 2975 2525 2575 
Q 2925 2175 2925 1525 
z
M 2375 1525 
Q 2375 2025 2125 2275 
Q 1875 2525 1575 2525 
Q 1275 2525 1025 2275 
Q 775 2025 775 1525 
Q 775 1025 1025 775 
Q 1275 525 1575 525 
Q 1875 525 2125 775 
Q 2375 1025 2375 1525 
z
" transform="scale(0.015625)"/>
       <path id="SimHei-64" d="M 2750 125 
L 2250 125 
L 2250 500 
Q 2100 275 1900 175 
Q 1700 75 1425 75 
Q 925 75 575 437 
Q 225 800 225 1525 
Q 225 2250 575 2625 
Q 925 3000 1425 3000 
Q 1700 3000 1900 2887 
Q 2100 2775 2250 2550 
L 2250 4400 
L 2750 4400 
L 2750 125 
z
M 2250 1525 
Q 2250 2000 2037 2275 
Q 1825 2550 1525 2550 
Q 1150 2550 962 2275 
Q 775 2000 775 1525 
Q 775 1050 962 787 
Q 1150 525 1525 525 
Q 1825 525 2037 787 
Q 2250 1050 2250 1525 
z
" transform="scale(0.015625)"/>
       <path id="SimHei-65" d="M 2850 1075 
Q 2800 625 2450 350 
Q 2100 75 1625 75 
Q 1025 75 637 462 
Q 250 850 250 1525 
Q 250 2200 637 2587 
Q 1025 2975 1625 2975 
Q 2150 2975 2487 2637 
Q 2825 2300 2825 1525 
L 800 1525 
Q 800 975 1037 750 
Q 1275 525 1625 525 
Q 1900 525 2075 662 
Q 2250 800 2300 1075 
L 2850 1075 
z
M 2250 1925 
Q 2200 2275 2025 2412 
Q 1850 2550 1575 2550 
Q 1325 2550 1125 2412 
Q 925 2275 825 1925 
L 2250 1925 
z
" transform="scale(0.015625)"/>
      </defs>
      <use xlink:href="#SimHei-45"/>
      <use xlink:href="#SimHei-70" transform="translate(50 0)"/>
      <use xlink:href="#SimHei-69" transform="translate(100 0)"/>
      <use xlink:href="#SimHei-73" transform="translate(150 0)"/>
      <use xlink:href="#SimHei-6f" transform="translate(200 0)"/>
      <use xlink:href="#SimHei-64" transform="translate(250 0)"/>
      <use xlink:href="#SimHei-65" transform="translate(300 0)"/>
     </g>
    </g>
   </g>
   <g id="matplotlib.axis_2">
    <g id="ytick_1">
     <g id="line2d_19">
      <path d="M 56.0125 316.704193 
L 682.4125 316.704193 
" clip-path="url(#p6d70cafcd2)" style="fill: none; stroke-dasharray: 2.22,0.96; stroke-dashoffset: 0; stroke: #b0b0b0; stroke-opacity: 0.25; stroke-width: 0.6"/>
     </g>
     <g id="line2d_20">
      <defs>
       <path id="m43e695b678" d="M 0 0 
L -3.5 0 
" style="stroke: #000000; stroke-width: 0.8"/>
      </defs>
      <g>
       <use xlink:href="#m43e695b678" x="56.0125" y="316.704193" style="stroke: #000000; stroke-width: 0.8"/>
      </g>
     </g>
     <g id="text_11">
      <!-- 600 -->
      <g transform="translate(31.0125 320.829193) scale(0.12 -0.12)">
       <defs>
        <path id="SimHei-36" d="M 250 1612 
Q 275 1975 387 2225 
Q 500 2475 725 2850 
L 1750 4450 
L 2325 4450 
L 1275 2800 
Q 1950 2975 2350 2750 
Q 2750 2525 2887 2237 
Q 3025 1950 3037 1612 
Q 3050 1275 2937 950 
Q 2825 625 2537 362 
Q 2250 100 1737 75 
Q 1225 50 862 262 
Q 500 475 362 862 
Q 225 1250 250 1612 
z
M 1025 787 
Q 1250 550 1625 525 
Q 2000 500 2250 775 
Q 2500 1050 2500 1575 
Q 2500 2100 2187 2300 
Q 1875 2500 1487 2450 
Q 1100 2400 925 2075 
Q 750 1750 775 1387 
Q 800 1025 1025 787 
z
" transform="scale(0.015625)"/>
       </defs>
       <use xlink:href="#SimHei-36"/>
       <use xlink:href="#SimHei-30" transform="translate(50 0)"/>
       <use xlink:href="#SimHei-30" transform="translate(100 0)"/>
      </g>
     </g>
    </g>
    <g id="ytick_2">
     <g id="line2d_21">
      <path d="M 56.0125 261.175399 
L 682.4125 261.175399 
" clip-path="url(#p6d70cafcd2)" style="fill: none; stroke-dasharray: 2.22,0.96; stroke-dashoffset: 0; stroke: #b0b0b0; stroke-opacity: 0.25; stroke-width: 0.6"/>
     </g>
     <g id="line2d_22">
      <g>
       <use xlink:href="#m43e695b678" x="56.0125" y="261.175399" style="stroke: #000000; stroke-width: 0.8"/>
      </g>
     </g>
     <g id="text_12">
      <!-- 800 -->
      <g transform="translate(31.0125 265.300399) scale(0.12 -0.12)">
       <defs>
        <path id="SimHei-38" d="M 175 1375 
Q 175 1675 325 1962 
Q 475 2250 825 2425 
Q 525 2600 425 2812 
Q 325 3025 312 3300 
Q 300 3575 387 3775 
Q 475 3975 650 4150 
Q 825 4325 1037 4387 
Q 1250 4450 1500 4450 
Q 1750 4450 1950 4400 
Q 2150 4350 2375 4187 
Q 2600 4025 2700 3725 
Q 2800 3425 2687 3025 
Q 2575 2625 2100 2400 
Q 2525 2275 2700 2012 
Q 2875 1750 2875 1375 
Q 2875 1000 2762 775 
Q 2650 550 2512 400 
Q 2375 250 2137 162 
Q 1900 75 1537 75 
Q 1175 75 912 162 
Q 650 250 475 425 
Q 300 600 237 837 
Q 175 1075 175 1375 
z
M 687 1400 
Q 675 1100 787 875 
Q 900 650 1200 587 
Q 1500 525 1825 600 
Q 2150 675 2275 950 
Q 2400 1225 2362 1500 
Q 2325 1775 2050 1962 
Q 1775 2150 1450 2125 
Q 1125 2100 912 1900 
Q 700 1700 687 1400 
z
M 775 3350 
Q 775 3100 950 2875 
Q 1125 2650 1500 2650 
Q 1875 2650 2062 2875 
Q 2250 3100 2237 3412 
Q 2225 3725 2012 3875 
Q 1800 4025 1437 4000 
Q 1075 3975 925 3787 
Q 775 3600 775 3350 
z
" transform="scale(0.015625)"/>
       </defs>
       <use xlink:href="#SimHei-38"/>
       <use xlink:href="#SimHei-30" transform="translate(50 0)"/>
       <use xlink:href="#SimHei-30" transform="translate(100 0)"/>
      </g>
     </g>
    </g>
    <g id="ytick_3">
     <g id="line2d_23">
      <path d="M 56.0125 205.646605 
L 682.4125 205.646605 
" clip-path="url(#p6d70cafcd2)" style="fill: none; stroke-dasharray: 2.22,0.96; stroke-dashoffset: 0; stroke: #b0b0b0; stroke-opacity: 0.25; stroke-width: 0.6"/>
     </g>
     <g id="line2d_24">
      <g>
       <use xlink:href="#m43e695b678" x="56.0125" y="205.646605" style="stroke: #000000; stroke-width: 0.8"/>
      </g>
     </g>
     <g id="text_13">
      <!-- 1000 -->
      <g transform="translate(25.0125 209.771605) scale(0.12 -0.12)">
       <use xlink:href="#SimHei-31"/>
       <use xlink:href="#SimHei-30" transform="translate(50 0)"/>
       <use xlink:href="#SimHei-30" transform="translate(100 0)"/>
       <use xlink:href="#SimHei-30" transform="translate(150 0)"/>
      </g>
     </g>
    </g>
    <g id="ytick_4">
     <g id="line2d_25">
      <path d="M 56.0125 150.117811 
L 682.4125 150.117811 
" clip-path="url(#p6d70cafcd2)" style="fill: none; stroke-dasharray: 2.22,0.96; stroke-dashoffset: 0; stroke: #b0b0b0; stroke-opacity: 0.25; stroke-width: 0.6"/>
     </g>
     <g id="line2d_26">
      <g>
       <use xlink:href="#m43e695b678" x="56.0125" y="150.117811" style="stroke: #000000; stroke-width: 0.8"/>
      </g>
     </g>
     <g id="text_14">
      <!-- 1200 -->
      <g transform="translate(25.0125 154.242811) scale(0.12 -0.12)">
       <use xlink:href="#SimHei-31"/>
       <use xlink:href="#SimHei-32" transform="translate(50 0)"/>
       <use xlink:href="#SimHei-30" transform="translate(100 0)"/>
       <use xlink:href="#SimHei-30" transform="translate(150 0)"/>
      </g>
     </g>
    </g>
    <g id="ytick_5">
     <g id="line2d_27">
      <path d="M 56.0125 94.589017 
L 682.4125 94.589017 
" clip-path="url(#p6d70cafcd2)" style="fill: none; stroke-dasharray: 2.22,0.96; stroke-dashoffset: 0; stroke: #b0b0b0; stroke-opacity: 0.25; stroke-width: 0.6"/>
     </g>
     <g id="line2d_28">
      <g>
       <use xlink:href="#m43e695b678" x="56.0125" y="94.589017" style="stroke: #000000; stroke-width: 0.8"/>
      </g>
     </g>
     <g id="text_15">
      <!-- 1400 -->
      <g transform="translate(25.0125 98.714017) scale(0.12 -0.12)">
       <use xlink:href="#SimHei-31"/>
       <use xlink:href="#SimHei-34" transform="translate(50 0)"/>
       <use xlink:href="#SimHei-30" transform="translate(100 0)"/>
       <use xlink:href="#SimHei-30" transform="translate(150 0)"/>
      </g>
     </g>
    </g>
    <g id="ytick_6">
     <g id="line2d_29">
      <path d="M 56.0125 39.060223 
L 682.4125 39.060223 
" clip-path="url(#p6d70cafcd2)" style="fill: none; stroke-dasharray: 2.22,0.96; stroke-dashoffset: 0; stroke: #b0b0b0; stroke-opacity: 0.25; stroke-width: 0.6"/>
     </g>
     <g id="line2d_30">
      <g>
       <use xlink:href="#m43e695b678" x="56.0125" y="39.060223" style="stroke: #000000; stroke-width: 0.8"/>
      </g>
     </g>
     <g id="text_16">
      <!-- 1600 -->
      <g transform="translate(25.0125 43.185223) scale(0.12 -0.12)">
       <use xlink:href="#SimHei-31"/>
       <use xlink:href="#SimHei-36" transform="translate(50 0)"/>
       <use xlink:href="#SimHei-30" transform="translate(100 0)"/>
       <use xlink:href="#SimHei-30" transform="translate(150 0)"/>
      </g>
     </g>
    </g>
    <g id="text_17">
     <!-- Total Reward -->
     <g transform="translate(18.8875 243.1836) rotate(-90) scale(0.17 -0.17)">
      <defs>
       <path id="SimHei-54" d="M 2850 3925 
L 1850 3925 
L 1850 125 
L 1275 125 
L 1275 3925 
L 275 3925 
L 275 4400 
L 2850 4400 
L 2850 3925 
z
" transform="scale(0.015625)"/>
       <path id="SimHei-74" d="M 2750 200 
Q 2625 150 2462 112 
Q 2300 75 2025 75 
Q 1575 75 1300 325 
Q 1025 575 1025 1025 
L 1025 2525 
L 175 2525 
L 175 2925 
L 1025 2925 
L 1025 3900 
L 1525 3900 
L 1525 2925 
L 2550 2925 
L 2550 2525 
L 1525 2525 
L 1525 1000 
Q 1525 800 1625 662 
Q 1725 525 2000 525 
Q 2275 525 2450 575 
Q 2625 625 2750 700 
L 2750 200 
z
" transform="scale(0.015625)"/>
       <path id="SimHei-61" d="M 2875 125 
L 2275 125 
Q 2225 175 2200 262 
Q 2175 350 2175 475 
Q 2000 275 1750 175 
Q 1500 75 1225 75 
Q 825 75 550 275 
Q 275 475 275 850 
Q 275 1225 525 1450 
Q 775 1675 1300 1750 
Q 1650 1800 1912 1875 
Q 2175 1950 2175 2075 
Q 2175 2225 2062 2375 
Q 1950 2525 1575 2525 
Q 1275 2525 1137 2412 
Q 1000 2300 950 2100 
L 400 2100 
Q 450 2500 762 2737 
Q 1075 2975 1575 2975 
Q 2125 2975 2400 2725 
Q 2675 2475 2675 2025 
L 2675 650 
Q 2675 500 2725 375 
Q 2775 250 2875 125 
z
M 2175 1050 
L 2175 1550 
Q 2025 1500 1887 1462 
Q 1750 1425 1425 1375 
Q 1050 1325 937 1200 
Q 825 1075 825 900 
Q 825 750 937 637 
Q 1050 525 1275 525 
Q 1500 525 1762 650 
Q 2025 775 2175 1050 
z
" transform="scale(0.015625)"/>
       <path id="SimHei-6c" d="M 1825 125 
L 1325 125 
L 1325 4400 
L 1825 4400 
L 1825 125 
z
" transform="scale(0.015625)"/>
       <path id="SimHei-20" transform="scale(0.015625)"/>
       <path id="SimHei-52" d="M 3000 125 
L 2400 125 
L 1500 1975 
L 850 1975 
L 850 125 
L 275 125 
L 275 4400 
L 1525 4400 
Q 2125 4400 2500 4112 
Q 2875 3825 2875 3175 
Q 2875 2675 2625 2400 
Q 2375 2125 2050 2050 
L 3000 125 
z
M 2300 3175 
Q 2300 3525 2087 3725 
Q 1875 3925 1400 3925 
L 850 3925 
L 850 2450 
L 1550 2450 
Q 1850 2450 2075 2612 
Q 2300 2775 2300 3175 
z
" transform="scale(0.015625)"/>
       <path id="SimHei-77" d="M 3075 2925 
L 2450 75 
L 1975 75 
L 1575 2250 
L 1525 2250 
L 1125 75 
L 650 75 
L 25 2925 
L 550 2925 
L 875 1050 
L 925 1050 
L 1275 2925 
L 1825 2925 
L 2175 1050 
L 2225 1050 
L 2550 2925 
L 3075 2925 
z
" transform="scale(0.015625)"/>
       <path id="SimHei-72" d="M 2500 2425 
Q 2025 2500 1700 2287 
Q 1375 2075 1150 1550 
L 1150 125 
L 650 125 
L 650 2925 
L 1150 2925 
L 1150 2200 
Q 1375 2600 1712 2787 
Q 2050 2975 2500 2975 
L 2500 2425 
z
" transform="scale(0.015625)"/>
      </defs>
      <use xlink:href="#SimHei-54"/>
      <use xlink:href="#SimHei-6f" transform="translate(50 0)"/>
      <use xlink:href="#SimHei-74" transform="translate(100 0)"/>
      <use xlink:href="#SimHei-61" transform="translate(150 0)"/>
      <use xlink:href="#SimHei-6c" transform="translate(200 0)"/>
      <use xlink:href="#SimHei-20" transform="translate(250 0)"/>
      <use xlink:href="#SimHei-52" transform="translate(300 0)"/>
      <use xlink:href="#SimHei-65" transform="translate(350 0)"/>
      <use xlink:href="#SimHei-77" transform="translate(400 0)"/>
      <use xlink:href="#SimHei-61" transform="translate(450 0)"/>
      <use xlink:href="#SimHei-72" transform="translate(500 0)"/>
      <use xlink:href="#SimHei-64" transform="translate(550 0)"/>
     </g>
    </g>
   </g>
   <g id="line2d_31">
    <path d="M 84.485227 232.664377 
L 85.912432 244.344787 
L 87.339636 249.796487 
L 88.76684 258.841659 
L 90.194045 256.676263 
L 91.621249 254.12715 
L 93.048454 254.330322 
L 94.475658 268.283655 
L 95.902862 273.064806 
L 97.330067 279.841874 
L 98.757271 280.424015 
L 100.184475 280.496565 
L 101.61168 286.750515 
L 103.038884 285.318726 
L 104.466089 284.756441 
L 105.893293 277.618673 
L 107.320497 276.389687 
L 108.747702 286.815612 
L 110.174906 284.595171 
L 111.60211 285.801538 
L 113.029315 278.266049 
L 114.456519 284.69815 
L 115.883724 285.345223 
L 117.310928 288.554076 
L 118.738132 284.885519 
L 120.165337 287.782015 
L 121.592541 287.645523 
L 123.019745 279.841548 
L 124.44695 285.831019 
L 125.874154 277.557835 
L 127.301359 277.617062 
L 128.728563 276.387013 
L 130.155767 282.837643 
L 131.582972 300.385864 
L 133.010176 296.283259 
L 137.291789 233.321158 
L 138.718994 214.883514 
L 140.146198 199.014885 
L 141.573402 185.749085 
L 143.000607 175.440669 
L 144.427811 161.833762 
L 147.28222 142.36999 
L 148.709424 135.812314 
L 150.136629 124.706802 
L 151.563833 119.237562 
L 152.991037 112.633548 
L 154.418242 108.041973 
L 158.699855 96.516102 
L 160.127059 90.755748 
L 161.554263 86.398691 
L 162.981468 83.717684 
L 164.408672 80.212697 
L 165.835877 78.12894 
L 167.263081 77.870995 
L 168.690285 76.376553 
L 170.11749 73.134721 
L 171.544694 71.424061 
L 172.971898 67.8841 
L 174.399103 65.42309 
L 175.826307 64.918662 
L 177.253512 64.900667 
L 178.680716 64.291337 
L 180.10792 61.726313 
L 181.535125 58.872135 
L 182.962329 57.864576 
L 184.389533 58.701782 
L 185.816738 58.850795 
L 187.243942 58.599992 
L 188.671147 58.864514 
L 191.525555 59.052016 
L 192.95276 58.965279 
L 194.379964 58.702586 
L 195.807168 59.528965 
L 197.234373 59.71325 
L 198.661577 58.16021 
L 200.088782 59.551536 
L 202.94319 60.066071 
L 204.370395 58.063126 
L 207.224803 57.311445 
L 208.652008 59.01108 
L 210.079212 57.036654 
L 211.506417 58.530282 
L 214.360825 57.335985 
L 215.78803 58.467217 
L 217.215234 58.708181 
L 218.642438 59.082876 
L 220.069643 58.953558 
L 221.496847 57.484814 
L 222.924052 56.760691 
L 224.351256 57.748139 
L 227.205665 55.80215 
L 228.632869 57.201248 
L 230.060073 56.352573 
L 231.487278 54.551563 
L 232.914482 54.686634 
L 234.341687 55.413186 
L 235.768891 54.946005 
L 237.196095 54.856867 
L 238.6233 56.821573 
L 240.050504 55.836655 
L 241.477708 54.543985 
L 244.332117 57.068832 
L 245.759322 57.150022 
L 247.186526 55.91088 
L 248.61373 53.334362 
L 250.040935 53.74827 
L 251.468139 58.835737 
L 252.895343 62.268851 
L 254.322548 61.537299 
L 255.749752 60.063768 
L 257.176957 58.96172 
L 258.604161 57.051788 
L 260.031365 56.286928 
L 261.45857 56.059742 
L 262.885774 59.203935 
L 264.312978 57.197959 
L 265.740183 57.092862 
L 267.167387 57.85962 
L 268.594592 57.442091 
L 270.021796 56.822767 
L 271.449 56.598524 
L 272.876205 56.775074 
L 274.303409 57.719394 
L 275.730613 57.402132 
L 277.157818 56.654689 
L 278.585022 56.685595 
L 280.012227 60.364692 
L 281.439431 63.242206 
L 282.866635 62.781497 
L 284.29384 61.073541 
L 285.721044 60.966522 
L 287.148248 60.01802 
L 288.575453 60.563305 
L 292.857066 55.475395 
L 294.28427 55.680203 
L 295.711475 56.945655 
L 297.138679 55.712493 
L 298.565883 56.496304 
L 299.993088 55.804835 
L 301.420292 53.83766 
L 304.274701 51.992801 
L 305.701905 52.103269 
L 307.12911 52.007381 
L 309.983518 53.911614 
L 311.410723 56.20355 
L 312.837927 55.604378 
L 314.265132 56.830386 
L 315.692336 57.363044 
L 317.11954 59.523706 
L 318.546745 59.428116 
L 319.973949 60.988795 
L 321.401153 57.34665 
L 322.828358 56.407436 
L 324.255562 54.559699 
L 325.682767 54.75807 
L 327.109971 55.666913 
L 328.537175 56.774815 
L 329.96438 55.893513 
L 331.391584 54.615416 
L 332.818788 54.774453 
L 334.245993 55.052975 
L 335.673197 54.428697 
L 337.100402 56.26502 
L 338.527606 52.632026 
L 339.95481 51.121177 
L 341.382015 52.902816 
L 342.809219 54.214111 
L 344.236423 54.471541 
L 345.663628 55.926163 
L 348.518037 55.849657 
L 349.945241 57.569643 
L 351.372445 57.032859 
L 352.79965 55.982859 
L 354.226854 56.45819 
L 355.654058 56.024701 
L 358.508467 53.742372 
L 359.935672 53.453679 
L 361.362876 53.468352 
L 362.79008 54.884909 
L 364.217285 58.150929 
L 365.644489 55.331125 
L 367.071693 53.431399 
L 368.498898 52.266379 
L 369.926102 53.288627 
L 371.353307 52.111446 
L 374.207715 54.690194 
L 375.63492 54.250184 
L 377.062124 53.050174 
L 378.489328 53.835551 
L 379.916533 53.498475 
L 382.770942 53.181941 
L 384.198146 53.212239 
L 385.62535 54.751972 
L 387.052555 53.073756 
L 388.479759 55.549008 
L 391.334168 56.773638 
L 392.761372 55.662528 
L 394.188577 56.476711 
L 395.615781 56.077948 
L 397.042985 56.328517 
L 398.47019 56.717459 
L 399.897394 54.457016 
L 401.324598 54.586133 
L 402.751803 55.429644 
L 404.179007 55.340108 
L 405.606212 56.306139 
L 407.033416 57.453766 
L 408.46062 55.698747 
L 409.887825 56.569045 
L 411.315029 56.279807 
L 412.742233 55.4421 
L 414.169438 55.140497 
L 415.596642 56.453759 
L 417.023847 52.808728 
L 418.451051 54.005307 
L 419.878255 56.091691 
L 421.30546 57.519359 
L 422.732664 58.350687 
L 424.159868 58.028068 
L 425.587073 58.183218 
L 428.441482 57.343031 
L 429.868686 57.699938 
L 431.29589 59.321747 
L 432.723095 57.689493 
L 434.150299 59.29806 
L 435.577503 59.160326 
L 437.004708 58.821972 
L 438.431912 61.544377 
L 439.859117 60.767178 
L 441.286321 63.343392 
L 442.713525 59.858632 
L 444.14073 57.449163 
L 445.567934 57.57446 
L 446.995138 59.846511 
L 448.422343 60.090467 
L 449.849547 58.641751 
L 451.276752 59.326791 
L 452.703956 60.141375 
L 454.13116 58.330482 
L 455.558365 58.726631 
L 456.985569 55.481852 
L 458.412773 56.142755 
L 459.839978 57.361922 
L 461.267182 59.616215 
L 462.694387 57.950595 
L 464.121591 56.507469 
L 465.548795 55.771141 
L 466.976 57.376821 
L 468.403204 58.128903 
L 469.830408 59.259326 
L 471.257613 58.985063 
L 472.684817 59.428494 
L 474.112022 59.998523 
L 475.539226 60.063648 
L 476.96643 59.648931 
L 478.393635 60.77441 
L 479.820839 59.558712 
L 481.248043 60.077237 
L 482.675248 58.258964 
L 484.102452 55.947966 
L 485.529657 55.744725 
L 486.956861 56.445375 
L 488.384065 58.582071 
L 489.81127 57.914872 
L 491.238474 60.227597 
L 492.665678 59.734679 
L 494.092883 60.212528 
L 495.520087 59.346514 
L 496.947292 58.193792 
L 498.374496 58.37558 
L 499.8017 56.16541 
L 501.228905 57.037104 
L 502.656109 56.201638 
L 504.083313 57.588871 
L 505.510518 59.406197 
L 506.937722 56.772292 
L 508.364927 54.91798 
L 509.792131 55.62274 
L 511.219335 55.856898 
L 512.64654 57.908382 
L 514.073744 57.407869 
L 515.500948 54.493465 
L 516.928153 50.881092 
L 518.355357 51.540958 
L 519.782562 50.985112 
L 521.209766 52.211669 
L 522.63697 53.683017 
L 524.064175 53.493458 
L 525.491379 52.041686 
L 526.918583 52.215141 
L 528.345788 51.263798 
L 529.772992 51.003817 
L 531.200197 53.693607 
L 532.627401 53.551069 
L 534.054605 55.410954 
L 535.48181 56.427471 
L 536.909014 56.269064 
L 538.336218 55.020462 
L 539.763423 55.701169 
L 541.190627 54.163207 
L 542.617832 54.776078 
L 544.045036 57.297012 
L 545.47224 56.017237 
L 546.899445 55.686972 
L 548.326649 57.081018 
L 549.753853 57.306568 
L 551.181058 54.902823 
L 552.608262 54.541224 
L 554.035467 53.903008 
L 555.462671 52.240749 
L 556.889875 51.864315 
L 558.31708 55.061385 
L 559.744284 56.345254 
L 561.171488 56.344249 
L 562.598693 58.204173 
L 564.025897 58.717944 
L 565.453102 56.791676 
L 566.880306 56.35654 
L 568.30751 55.669169 
L 569.734715 55.500017 
L 571.161919 53.575342 
L 572.589123 54.906975 
L 574.016328 54.38749 
L 575.443532 53.698565 
L 576.870737 53.695449 
L 578.297941 55.753022 
L 579.725145 55.236362 
L 581.15235 56.845173 
L 582.579554 55.537514 
L 584.006758 56.168799 
L 585.433963 54.642976 
L 586.861167 55.400375 
L 588.288371 56.471287 
L 589.715576 57.197064 
L 591.14278 57.258898 
L 592.569985 55.4696 
L 593.997189 55.005517 
L 595.424393 56.84509 
L 596.851598 56.037799 
L 598.278802 57.128663 
L 599.706006 57.182045 
L 601.133211 56.356982 
L 602.560415 56.145759 
L 603.98762 55.802002 
L 605.414824 56.118281 
L 606.842028 60.938485 
L 608.269233 59.478446 
L 611.123641 60.018279 
L 612.550846 62.009184 
L 616.832459 57.5086 
L 618.259663 58.129661 
L 621.114072 55.061464 
L 622.541276 52.675121 
L 623.968481 50.547435 
L 625.395685 51.931662 
L 628.250094 53.252638 
L 629.677298 56.399601 
L 631.104503 55.623697 
L 632.531707 53.239717 
L 633.958911 52.150236 
L 636.81332 53.281645 
L 638.240525 53.705166 
L 639.667729 53.775835 
L 641.094933 56.409133 
L 642.522138 55.531807 
L 643.949342 55.985162 
L 645.376546 56.248369 
L 646.803751 56.378984 
L 648.230955 56.078812 
L 649.65816 55.467834 
L 651.085364 55.183623 
L 652.512568 56.136944 
L 653.939773 55.954057 
L 653.939773 55.954057 
" clip-path="url(#p6d70cafcd2)" style="fill: none; stroke: #1f77b4; stroke-width: 1.2; stroke-linecap: square"/>
   </g>
   <g id="line2d_32">
    <path d="M 84.485227 285.738939 
L 85.912432 278.273149 
L 87.339636 279.819838 
L 88.76684 288.458784 
L 90.194045 290.806829 
L 91.621249 288.221326 
L 93.048454 288.684901 
L 94.475658 297.953631 
L 95.902862 302.372931 
L 97.330067 302.928843 
L 98.757271 311.722317 
L 100.184475 314.701405 
L 101.61168 322.055136 
L 103.038884 315.455985 
L 104.466089 312.122625 
L 105.893293 314.515928 
L 107.320497 305.870382 
L 108.747702 309.58187 
L 110.174906 322.259577 
L 111.60211 323.606418 
L 113.029315 320.559577 
L 114.456519 318.064107 
L 115.883724 335.529055 
L 117.310928 331.074978 
L 118.738132 327.926517 
L 120.165337 333.363178 
L 121.592541 328.600467 
L 123.019745 328.830323 
L 124.44695 321.307912 
L 125.874154 323.788802 
L 127.301359 321.395209 
L 128.728563 326.896421 
L 130.155767 324.280793 
L 131.582972 321.425642 
L 133.010176 327.078958 
L 134.43738 325.346861 
L 135.864585 321.962805 
L 137.291789 317.437057 
L 138.718994 316.307807 
L 140.146198 314.813891 
L 141.573402 312.175712 
L 143.000607 321.326167 
L 144.427811 318.611558 
L 145.855015 328.833131 
L 147.28222 305.738122 
L 148.709424 279.011935 
L 150.136629 255.642679 
L 151.563833 235.095769 
L 152.991037 218.387749 
L 154.418242 199.929933 
L 155.845446 185.541807 
L 160.127059 152.084475 
L 161.554263 142.165823 
L 162.981468 133.63447 
L 164.408672 127.224074 
L 165.835877 118.720029 
L 167.263081 114.841353 
L 168.690285 112.017396 
L 171.544694 99.424811 
L 172.971898 94.807963 
L 174.399103 93.321069 
L 175.826307 92.199679 
L 177.253512 89.215627 
L 178.680716 84.343255 
L 180.10792 81.863508 
L 181.535125 76.830253 
L 182.962329 74.128109 
L 184.389533 71.151708 
L 185.816738 70.867511 
L 187.243942 71.507592 
L 190.098351 66.619808 
L 191.525555 63.218614 
L 192.95276 63.581677 
L 194.379964 63.607705 
L 195.807168 64.117751 
L 197.234373 62.355022 
L 198.661577 60.855124 
L 200.088782 61.014588 
L 201.515986 58.660855 
L 202.94319 59.75414 
L 204.370395 59.162042 
L 205.797599 59.146826 
L 207.224803 59.572934 
L 208.652008 58.350995 
L 210.079212 56.076736 
L 212.933621 56.580772 
L 214.360825 56.02201 
L 215.78803 57.049628 
L 217.215234 57.769877 
L 218.642438 58.097229 
L 220.069643 56.40337 
L 221.496847 55.847055 
L 222.924052 56.826248 
L 224.351256 57.254912 
L 225.77846 57.359015 
L 227.205665 56.493708 
L 228.632869 55.833511 
L 230.060073 56.320171 
L 231.487278 54.619203 
L 232.914482 54.579189 
L 234.341687 55.781198 
L 235.768891 56.178098 
L 237.196095 56.311088 
L 238.6233 55.879594 
L 240.050504 54.74913 
L 242.904913 60.625361 
L 244.332117 60.583977 
L 245.759322 59.626344 
L 247.186526 58.807399 
L 248.61373 59.721946 
L 250.040935 60.39549 
L 252.895343 60.827019 
L 254.322548 58.156919 
L 255.749752 58.070312 
L 257.176957 58.778967 
L 258.604161 60.748437 
L 260.031365 60.784348 
L 261.45857 61.655791 
L 262.885774 60.358787 
L 264.312978 59.88561 
L 265.740183 61.176635 
L 267.167387 59.735863 
L 268.594592 59.762316 
L 270.021796 61.249082 
L 271.449 60.541026 
L 272.876205 58.742259 
L 274.303409 56.045489 
L 275.730613 56.894751 
L 277.157818 57.200688 
L 278.585022 59.226337 
L 280.012227 56.772031 
L 281.439431 56.055732 
L 282.866635 55.782575 
L 284.29384 53.676877 
L 285.721044 53.890108 
L 287.148248 52.970483 
L 288.575453 50.50528 
L 290.002657 49.604833 
L 291.429862 48.838145 
L 292.857066 50.480036 
L 294.28427 49.622448 
L 295.711475 50.170126 
L 297.138679 52.138808 
L 298.565883 52.248894 
L 299.993088 54.455166 
L 301.420292 53.524054 
L 302.847497 53.187583 
L 304.274701 55.203935 
L 305.701905 58.576984 
L 307.12911 59.736222 
L 308.556314 58.848471 
L 309.983518 57.16596 
L 311.410723 57.583734 
L 312.837927 56.639197 
L 314.265132 56.308941 
L 315.692336 58.295976 
L 317.11954 58.261712 
L 318.546745 59.420677 
L 319.973949 59.25145 
L 321.401153 60.111823 
L 322.828358 55.602743 
L 324.255562 54.130991 
L 325.682767 54.644085 
L 327.109971 54.681647 
L 328.537175 54.459753 
L 329.96438 54.455651 
L 331.391584 55.243083 
L 332.818788 55.599393 
L 334.245993 55.517688 
L 335.673197 56.670088 
L 337.100402 57.265568 
L 338.527606 57.201723 
L 339.95481 56.254903 
L 341.382015 57.014765 
L 342.809219 58.013558 
L 345.663628 58.447173 
L 347.090832 58.396046 
L 348.518037 59.277058 
L 349.945241 58.476741 
L 351.372445 58.832367 
L 352.79965 58.517481 
L 354.226854 59.559972 
L 355.654058 61.085524 
L 357.081263 61.431192 
L 358.508467 61.619748 
L 359.935672 59.934113 
L 361.362876 59.650797 
L 362.79008 57.920443 
L 365.644489 55.997299 
L 367.071693 57.507217 
L 368.498898 57.618741 
L 369.926102 58.334011 
L 371.353307 58.627959 
L 372.780511 58.805186 
L 374.207715 57.071624 
L 375.63492 58.305048 
L 377.062124 57.470736 
L 378.489328 53.501577 
L 379.916533 54.541568 
L 381.343737 54.871255 
L 382.770942 55.077112 
L 384.198146 55.796561 
L 385.62535 54.773952 
L 387.052555 55.108842 
L 388.479759 56.212287 
L 389.906963 59.043291 
L 391.334168 59.049411 
L 392.761372 58.49909 
L 394.188577 58.363425 
L 395.615781 59.135758 
L 397.042985 56.371776 
L 398.47019 58.17267 
L 399.897394 58.484669 
L 401.324598 59.126749 
L 402.751803 57.273383 
L 404.179007 58.633885 
L 405.606212 58.270908 
L 407.033416 59.409436 
L 408.46062 57.891263 
L 409.887825 57.445871 
L 411.315029 57.121359 
L 412.742233 60.130131 
L 414.169438 61.416066 
L 415.596642 62.154641 
L 417.023847 59.073873 
L 418.451051 58.022233 
L 419.878255 58.414159 
L 421.30546 58.020803 
L 422.732664 57.129724 
L 424.159868 55.03242 
L 425.587073 54.254826 
L 427.014277 54.337558 
L 428.441482 55.827268 
L 429.868686 55.38968 
L 431.29589 57.507096 
L 432.723095 56.71021 
L 434.150299 55.663098 
L 435.577503 55.6188 
L 437.004708 56.168838 
L 438.431912 57.890541 
L 439.859117 58.332356 
L 441.286321 59.506281 
L 442.713525 61.719035 
L 444.14073 61.272247 
L 445.567934 61.99568 
L 446.995138 60.888817 
L 448.422343 62.318774 
L 449.849547 60.573581 
L 451.276752 62.901411 
L 452.703956 61.22801 
L 454.13116 60.713193 
L 456.985569 58.826268 
L 458.412773 61.247687 
L 459.839978 59.384038 
L 461.267182 61.084645 
L 462.694387 61.202145 
L 465.548795 62.416885 
L 466.976 59.843909 
L 468.403204 58.263352 
L 469.830408 59.573819 
L 471.257613 58.647664 
L 472.684817 55.882771 
L 474.112022 56.490062 
L 475.539226 57.628281 
L 476.96643 58.231469 
L 478.393635 60.061584 
L 479.820839 60.600818 
L 481.248043 58.789444 
L 482.675248 59.28657 
L 484.102452 57.733424 
L 485.529657 58.069734 
L 486.956861 56.173498 
L 488.384065 56.140051 
L 489.81127 56.705091 
L 491.238474 55.693172 
L 492.665678 56.935404 
L 494.092883 55.597768 
L 495.520087 56.177322 
L 496.947292 56.636145 
L 499.8017 50.11805 
L 501.228905 51.993169 
L 502.656109 50.791909 
L 504.083313 51.961056 
L 505.510518 52.189223 
L 506.937722 51.581252 
L 508.364927 50.766274 
L 509.792131 51.515521 
L 511.219335 52.624348 
L 512.64654 52.587275 
L 514.073744 55.081485 
L 516.928153 58.002327 
L 518.355357 58.256377 
L 519.782562 55.97413 
L 521.209766 56.066751 
L 522.63697 55.693965 
L 524.064175 55.469507 
L 525.491379 53.978651 
L 526.918583 53.289549 
L 528.345788 55.074971 
L 529.772992 55.027556 
L 531.200197 55.359586 
L 532.627401 57.422777 
L 534.054605 57.373905 
L 536.909014 56.155499 
L 538.336218 54.711719 
L 539.763423 53.51643 
L 541.190627 54.379567 
L 542.617832 53.783821 
L 544.045036 54.162125 
L 545.47224 53.464711 
L 546.899445 53.13447 
L 548.326649 57.02569 
L 549.753853 58.764133 
L 551.181058 59.322199 
L 552.608262 58.195073 
L 554.035467 60.06878 
L 555.462671 60.206096 
L 556.889875 60.145762 
L 558.31708 59.283662 
L 559.744284 58.845594 
L 562.598693 56.406166 
L 564.025897 56.891655 
L 565.453102 56.640754 
L 566.880306 54.482687 
L 568.30751 53.753317 
L 569.734715 57.675038 
L 571.161919 58.701189 
L 572.589123 59.589982 
L 574.016328 60.057032 
L 575.443532 57.91874 
L 576.870737 55.029841 
L 578.297941 56.114999 
L 579.725145 55.640342 
L 581.15235 55.745869 
L 582.579554 55.654043 
L 584.006758 56.645299 
L 585.433963 57.228681 
L 586.861167 57.144631 
L 588.288371 57.617385 
L 589.715576 57.671314 
L 591.14278 57.092386 
L 592.569985 55.516928 
L 593.997189 54.454712 
L 595.424393 53.758203 
L 596.851598 54.45242 
L 598.278802 56.452977 
L 599.706006 54.308395 
L 601.133211 55.747 
L 602.560415 55.96487 
L 603.98762 56.625533 
L 606.842028 55.871902 
L 609.696437 54.102112 
L 611.123641 53.86462 
L 612.550846 56.636787 
L 613.97805 56.263262 
L 615.405255 54.93522 
L 619.686868 57.200388 
L 621.114072 57.4093 
L 622.541276 55.247145 
L 623.968481 55.967972 
L 625.395685 57.563098 
L 626.82289 57.153257 
L 628.250094 57.265605 
L 629.677298 57.579934 
L 631.104503 57.701325 
L 632.531707 59.595329 
L 633.958911 56.90004 
L 635.386116 56.152741 
L 638.240525 56.307044 
L 639.667729 57.530715 
L 641.094933 57.494908 
L 642.522138 56.161688 
L 643.949342 58.562092 
L 645.376546 57.399001 
L 646.803751 57.747056 
L 649.65816 57.640577 
L 651.085364 56.246099 
L 652.512568 56.360102 
L 653.939773 56.288251 
L 653.939773 56.288251 
" clip-path="url(#p6d70cafcd2)" style="fill: none; stroke: #ff7f0e; stroke-width: 1.2; stroke-linecap: square"/>
   </g>
   <g id="line2d_33">
    <path d="M 84.485227 233.689826 
L 85.912432 238.061204 
L 87.339636 232.495676 
L 88.76684 228.677297 
L 90.194045 217.108167 
L 91.621249 208.733091 
L 94.475658 194.811785 
L 95.902862 187.04377 
L 97.330067 181.215815 
L 98.757271 174.180495 
L 100.184475 164.557336 
L 103.038884 149.167584 
L 105.893293 135.692154 
L 107.320497 126.652586 
L 108.747702 121.528117 
L 110.174906 118.270207 
L 113.029315 106.717838 
L 114.456519 99.725678 
L 115.883724 96.60433 
L 117.310928 93.184967 
L 118.738132 91.35304 
L 120.165337 86.686166 
L 121.592541 84.202299 
L 123.019745 79.875229 
L 124.44695 78.11528 
L 125.874154 77.593483 
L 128.728563 74.928609 
L 130.155767 73.348064 
L 131.582972 72.471592 
L 133.010176 72.785054 
L 134.43738 72.528658 
L 135.864585 68.60562 
L 137.291789 66.79695 
L 138.718994 66.906281 
L 140.146198 67.778002 
L 141.573402 67.640431 
L 143.000607 66.523949 
L 147.28222 60.623186 
L 150.136629 60.622795 
L 151.563833 60.972388 
L 152.991037 59.421185 
L 154.418242 59.32158 
L 155.845446 63.116367 
L 157.27265 66.191033 
L 158.699855 63.790534 
L 161.554263 65.342565 
L 162.981468 64.974858 
L 164.408672 64.248387 
L 165.835877 63.387835 
L 167.263081 63.318174 
L 168.690285 61.869749 
L 170.11749 62.605739 
L 171.544694 61.324914 
L 172.971898 63.176741 
L 174.399103 60.504926 
L 175.826307 59.939503 
L 177.253512 58.753392 
L 178.680716 58.856522 
L 180.10792 57.963908 
L 181.535125 54.848637 
L 182.962329 56.523636 
L 184.389533 55.144793 
L 185.816738 55.073633 
L 187.243942 54.409694 
L 188.671147 56.172224 
L 190.098351 55.193007 
L 191.525555 56.478067 
L 192.95276 57.357292 
L 194.379964 58.463729 
L 195.807168 59.782784 
L 197.234373 61.654855 
L 198.661577 60.332374 
L 200.088782 60.933005 
L 201.515986 60.440173 
L 202.94319 62.146617 
L 204.370395 60.74192 
L 205.797599 62.489863 
L 208.652008 60.783266 
L 210.079212 60.155397 
L 211.506417 58.533602 
L 212.933621 59.73912 
L 214.360825 58.827827 
L 215.78803 57.07052 
L 217.215234 57.689875 
L 218.642438 59.396076 
L 220.069643 58.759519 
L 221.496847 57.547797 
L 222.924052 56.02808 
L 224.351256 55.261921 
L 225.77846 57.144127 
L 227.205665 57.313442 
L 228.632869 56.634299 
L 230.060073 56.385673 
L 231.487278 56.925876 
L 232.914482 57.93962 
L 234.341687 57.79129 
L 235.768891 57.339563 
L 237.196095 56.499182 
L 238.6233 57.286499 
L 240.050504 58.605279 
L 241.477708 57.676331 
L 242.904913 58.734646 
L 244.332117 58.495525 
L 245.759322 57.087776 
L 247.186526 57.219813 
L 248.61373 56.381027 
L 250.040935 56.735857 
L 251.468139 54.721163 
L 252.895343 56.820181 
L 254.322548 56.900569 
L 255.749752 58.040042 
L 257.176957 60.112501 
L 258.604161 59.239995 
L 260.031365 59.325288 
L 261.45857 62.293215 
L 262.885774 58.8443 
L 264.312978 59.271206 
L 265.740183 56.510928 
L 267.167387 57.223904 
L 268.594592 57.264076 
L 270.021796 56.570438 
L 271.449 58.896362 
L 272.876205 56.981596 
L 274.303409 56.560317 
L 275.730613 56.311157 
L 278.585022 54.457296 
L 280.012227 56.60135 
L 281.439431 56.997315 
L 282.866635 56.927057 
L 284.29384 57.923674 
L 285.721044 59.244451 
L 287.148248 59.581454 
L 288.575453 61.207877 
L 290.002657 59.78128 
L 291.429862 58.750219 
L 292.857066 56.771106 
L 294.28427 58.531441 
L 295.711475 56.944942 
L 297.138679 58.589891 
L 298.565883 58.693426 
L 299.993088 56.955571 
L 301.420292 56.391301 
L 302.847497 56.660169 
L 304.274701 58.360157 
L 305.701905 58.923471 
L 307.12911 56.412684 
L 308.556314 53.640194 
L 309.983518 52.427503 
L 311.410723 52.392876 
L 312.837927 53.946683 
L 314.265132 54.111765 
L 315.692336 52.917287 
L 317.11954 53.345424 
L 319.973949 55.825736 
L 321.401153 52.439068 
L 324.255562 53.156103 
L 325.682767 54.455257 
L 327.109971 56.447938 
L 328.537175 56.619644 
L 329.96438 55.330843 
L 331.391584 54.616084 
L 332.818788 53.443757 
L 334.245993 53.079325 
L 335.673197 53.812272 
L 337.100402 52.164339 
L 338.527606 53.20954 
L 339.95481 52.845619 
L 341.382015 53.542683 
L 342.809219 52.590112 
L 345.663628 53.495749 
L 347.090832 54.19554 
L 348.518037 53.386348 
L 349.945241 53.136625 
L 351.372445 53.84373 
L 352.79965 53.845657 
L 354.226854 55.56745 
L 357.081263 55.851171 
L 358.508467 55.495408 
L 359.935672 56.494483 
L 361.362876 52.545096 
L 362.79008 51.355399 
L 364.217285 53.570688 
L 365.644489 52.892916 
L 367.071693 54.370618 
L 368.498898 53.687437 
L 371.353307 54.215791 
L 372.780511 53.119538 
L 375.63492 54.395342 
L 377.062124 56.568857 
L 378.489328 52.909874 
L 379.916533 51.63454 
L 381.343737 54.028346 
L 382.770942 54.977432 
L 384.198146 54.607403 
L 385.62535 51.189517 
L 387.052555 54.096871 
L 388.479759 54.858865 
L 389.906963 54.265419 
L 391.334168 55.344588 
L 392.761372 56.223143 
L 394.188577 59.114277 
L 395.615781 58.24647 
L 397.042985 61.092583 
L 398.47019 58.42231 
L 399.897394 60.298027 
L 402.751803 62.891289 
L 404.179007 63.399182 
L 405.606212 63.593797 
L 408.46062 59.494873 
L 409.887825 60.905052 
L 411.315029 57.984955 
L 412.742233 59.291967 
L 414.169438 61.557195 
L 415.596642 62.753521 
L 417.023847 64.775869 
L 418.451051 64.129516 
L 419.878255 63.343519 
L 421.30546 62.249007 
L 422.732664 59.038368 
L 424.159868 59.168651 
L 425.587073 56.768492 
L 427.014277 57.282165 
L 428.441482 56.487612 
L 429.868686 57.391165 
L 431.29589 57.345734 
L 432.723095 55.361126 
L 434.150299 55.872142 
L 435.577503 55.173776 
L 437.004708 55.002215 
L 438.431912 54.278159 
L 439.859117 54.850391 
L 441.286321 52.525164 
L 442.713525 51.317545 
L 444.14073 51.395856 
L 445.567934 53.14784 
L 446.995138 53.831819 
L 448.422343 53.388829 
L 449.849547 53.428429 
L 451.276752 53.307059 
L 452.703956 54.288532 
L 454.13116 57.130074 
L 455.558365 57.162398 
L 456.985569 56.334323 
L 458.412773 57.259991 
L 459.839978 57.748043 
L 461.267182 60.271515 
L 462.694387 58.384382 
L 465.548795 60.977272 
L 466.976 60.688543 
L 468.403204 60.942267 
L 469.830408 59.872243 
L 471.257613 59.851242 
L 472.684817 57.775405 
L 474.112022 59.151161 
L 475.539226 58.277512 
L 476.96643 56.711309 
L 478.393635 56.551392 
L 479.820839 57.768055 
L 481.248043 59.684877 
L 482.675248 57.314917 
L 484.102452 56.318753 
L 485.529657 58.393017 
L 486.956861 59.699952 
L 488.384065 62.961181 
L 489.81127 60.344605 
L 491.238474 59.971522 
L 494.092883 60.486647 
L 495.520087 60.946759 
L 496.947292 62.05855 
L 498.374496 62.113041 
L 501.228905 62.7299 
L 502.656109 63.594273 
L 505.510518 59.466197 
L 506.937722 58.324292 
L 508.364927 57.928793 
L 509.792131 58.753375 
L 511.219335 60.499194 
L 512.64654 64.944618 
L 514.073744 62.659191 
L 515.500948 61.865132 
L 516.928153 59.871252 
L 518.355357 59.189515 
L 519.782562 61.089385 
L 521.209766 61.175655 
L 522.63697 61.838802 
L 524.064175 60.734402 
L 525.491379 61.064964 
L 526.918583 61.158425 
L 528.345788 59.585896 
L 529.772992 57.651683 
L 531.200197 58.167879 
L 532.627401 58.883052 
L 534.054605 59.134554 
L 535.48181 58.771612 
L 536.909014 57.087222 
L 538.336218 57.035972 
L 539.763423 59.067517 
L 541.190627 59.232728 
L 542.617832 58.416957 
L 544.045036 59.558903 
L 545.47224 59.905494 
L 546.899445 61.131763 
L 548.326649 61.710416 
L 549.753853 63.074497 
L 551.181058 61.950788 
L 552.608262 62.416724 
L 554.035467 59.160086 
L 555.462671 59.478528 
L 556.889875 60.215183 
L 558.31708 59.118323 
L 559.744284 58.492019 
L 561.171488 58.356939 
L 562.598693 59.441236 
L 564.025897 59.66451 
L 565.453102 58.582523 
L 566.880306 58.134277 
L 568.30751 57.257973 
L 569.734715 57.299235 
L 571.161919 56.700632 
L 572.589123 57.49378 
L 574.016328 58.025417 
L 575.443532 56.027616 
L 576.870737 55.979557 
L 578.297941 55.495341 
L 579.725145 56.805321 
L 581.15235 53.349034 
L 582.579554 54.96511 
L 584.006758 55.489557 
L 585.433963 57.934742 
L 586.861167 57.560079 
L 588.288371 57.788029 
L 589.715576 55.922376 
L 591.14278 57.687493 
L 592.569985 58.449016 
L 593.997189 58.4909 
L 595.424393 59.230874 
L 596.851598 59.004848 
L 598.278802 57.720317 
L 599.706006 59.733448 
L 601.133211 58.541792 
L 602.560415 58.979407 
L 603.98762 58.981566 
L 605.414824 60.242596 
L 606.842028 60.794692 
L 608.269233 60.27692 
L 611.123641 55.288308 
L 612.550846 54.519265 
L 613.97805 54.976964 
L 615.405255 56.36891 
L 616.832459 56.030204 
L 618.259663 54.216521 
L 619.686868 54.539951 
L 621.114072 55.830244 
L 622.541276 56.54554 
L 623.968481 57.772775 
L 625.395685 56.740167 
L 626.82289 56.724468 
L 628.250094 54.607903 
L 629.677298 52.892768 
L 631.104503 51.694823 
L 632.531707 53.15035 
L 633.958911 53.469885 
L 635.386116 53.076912 
L 636.81332 51.850555 
L 638.240525 53.395154 
L 639.667729 54.409911 
L 641.094933 53.495002 
L 642.522138 53.127989 
L 643.949342 51.81448 
L 645.376546 54.350261 
L 648.230955 53.56694 
L 649.65816 54.585058 
L 651.085364 54.58361 
L 652.512568 54.716703 
L 653.939773 53.626463 
L 653.939773 53.626463 
" clip-path="url(#p6d70cafcd2)" style="fill: none; stroke: #2ca02c; stroke-width: 1.2; stroke-linecap: square"/>
   </g>
   <g id="line2d_34">
    <path d="M 84.485227 233.689826 
L 85.912432 238.061204 
L 87.339636 235.337088 
L 88.76684 228.872671 
L 90.194045 217.193108 
L 91.621249 207.28009 
L 93.048454 200.093339 
L 94.475658 191.064959 
L 95.902862 183.8939 
L 97.330067 174.021018 
L 98.757271 163.225548 
L 101.61168 144.614164 
L 103.038884 135.333943 
L 104.466089 129.260302 
L 105.893293 123.711699 
L 107.320497 113.485466 
L 108.747702 104.199189 
L 110.174906 97.905629 
L 111.60211 92.69111 
L 113.029315 89.068899 
L 114.456519 87.694198 
L 117.310928 82.183029 
L 118.738132 76.859176 
L 120.165337 74.987129 
L 121.592541 71.284755 
L 123.019745 69.810098 
L 124.44695 67.844538 
L 125.874154 68.627911 
L 127.301359 66.28757 
L 128.728563 63.313119 
L 130.155767 63.405057 
L 131.582972 63.064938 
L 133.010176 61.076898 
L 134.43738 60.191458 
L 135.864585 61.166557 
L 137.291789 59.451819 
L 138.718994 58.284271 
L 140.146198 58.290006 
L 141.573402 57.974872 
L 143.000607 57.894734 
L 144.427811 58.672734 
L 145.855015 59.832546 
L 147.28222 59.090369 
L 148.709424 59.043452 
L 150.136629 57.542552 
L 151.563833 58.836921 
L 152.991037 58.663103 
L 154.418242 56.402108 
L 157.27265 58.905185 
L 158.699855 58.134244 
L 160.127059 59.710542 
L 161.554263 61.548448 
L 162.981468 62.534174 
L 164.408672 63.985953 
L 165.835877 64.037639 
L 168.690285 63.145192 
L 170.11749 61.965939 
L 171.544694 62.847071 
L 172.971898 60.545779 
L 174.399103 60.547916 
L 175.826307 62.701413 
L 177.253512 59.061532 
L 178.680716 57.57029 
L 180.10792 57.365899 
L 181.535125 57.58294 
L 182.962329 57.050967 
L 184.389533 55.61584 
L 185.816738 55.114556 
L 187.243942 56.014057 
L 188.671147 55.56172 
L 190.098351 56.234523 
L 191.525555 57.381433 
L 192.95276 58.985947 
L 194.379964 57.363657 
L 195.807168 60.099328 
L 197.234373 59.101407 
L 198.661577 57.814321 
L 200.088782 59.864945 
L 201.515986 59.346154 
L 202.94319 59.019696 
L 204.370395 60.795302 
L 205.797599 61.207726 
L 207.224803 59.380413 
L 208.652008 59.538367 
L 210.079212 56.303264 
L 211.506417 56.31433 
L 212.933621 55.549238 
L 214.360825 55.9081 
L 215.78803 52.994137 
L 217.215234 52.616301 
L 218.642438 50.169286 
L 220.069643 52.17075 
L 221.496847 52.424028 
L 222.924052 55.18084 
L 224.351256 55.926503 
L 225.77846 55.122114 
L 227.205665 56.119363 
L 228.632869 55.52587 
L 231.487278 56.786504 
L 232.914482 59.336558 
L 234.341687 60.597572 
L 235.768891 60.857562 
L 237.196095 58.752553 
L 238.6233 56.250512 
L 240.050504 56.554301 
L 241.477708 57.0219 
L 242.904913 55.89833 
L 244.332117 56.993244 
L 245.759322 57.259432 
L 247.186526 56.090404 
L 248.61373 55.331709 
L 250.040935 54.065326 
L 251.468139 52.972323 
L 252.895343 51.642507 
L 254.322548 52.232974 
L 255.749752 53.521777 
L 257.176957 54.428901 
L 258.604161 54.649914 
L 260.031365 55.219825 
L 261.45857 57.294934 
L 262.885774 56.678794 
L 265.740183 55.877887 
L 267.167387 55.557278 
L 268.594592 55.603251 
L 270.021796 57.195097 
L 271.449 56.43701 
L 272.876205 56.551901 
L 274.303409 58.216363 
L 275.730613 57.017306 
L 277.157818 56.988546 
L 278.585022 58.026897 
L 280.012227 57.206269 
L 281.439431 57.84802 
L 282.866635 57.493674 
L 284.29384 56.259486 
L 285.721044 58.155717 
L 287.148248 59.072593 
L 288.575453 59.16605 
L 290.002657 60.886985 
L 291.429862 59.541991 
L 294.28427 54.967043 
L 295.711475 56.296627 
L 297.138679 55.293052 
L 298.565883 56.1348 
L 299.993088 56.134353 
L 301.420292 55.277046 
L 302.847497 53.787716 
L 304.274701 55.23896 
L 305.701905 58.403974 
L 307.12911 58.323945 
L 308.556314 55.915808 
L 309.983518 52.868852 
L 311.410723 51.421362 
L 312.837927 51.067877 
L 314.265132 51.746285 
L 315.692336 51.543484 
L 317.11954 52.477953 
L 318.546745 52.755757 
L 319.973949 55.339961 
L 321.401153 54.178559 
L 322.828358 55.588696 
L 325.682767 55.883031 
L 327.109971 57.020405 
L 328.537175 57.49461 
L 329.96438 58.101877 
L 331.391584 56.861414 
L 332.818788 55.170356 
L 334.245993 53.867902 
L 335.673197 52.779481 
L 337.100402 51.448811 
L 338.527606 50.606784 
L 341.382015 50.542866 
L 342.809219 52.343447 
L 345.663628 53.660595 
L 348.518037 54.527271 
L 349.945241 53.929585 
L 351.372445 54.352596 
L 352.79965 55.388756 
L 354.226854 55.787903 
L 355.654058 56.671442 
L 357.081263 56.799434 
L 358.508467 57.363828 
L 359.935672 57.40141 
L 361.362876 56.793597 
L 362.79008 56.943327 
L 364.217285 58.680509 
L 365.644489 58.348937 
L 367.071693 59.182891 
L 368.498898 56.626847 
L 369.926102 55.589539 
L 371.353307 55.450098 
L 372.780511 54.792933 
L 374.207715 54.699123 
L 375.63492 56.479594 
L 377.062124 57.850139 
L 378.489328 56.422656 
L 379.916533 53.989967 
L 381.343737 52.908994 
L 382.770942 54.126198 
L 384.198146 55.029822 
L 385.62535 54.19108 
L 387.052555 52.116159 
L 388.479759 53.859676 
L 389.906963 55.003974 
L 391.334168 53.808263 
L 392.761372 53.609032 
L 394.188577 55.917233 
L 397.042985 53.826093 
L 398.47019 55.490869 
L 399.897394 55.011014 
L 401.324598 55.687233 
L 404.179007 53.625227 
L 405.606212 52.243679 
L 407.033416 53.524408 
L 411.315029 54.094529 
L 412.742233 53.328602 
L 415.596642 56.230811 
L 417.023847 59.305358 
L 418.451051 60.797877 
L 419.878255 62.55857 
L 421.30546 63.597101 
L 422.732664 64.998954 
L 424.159868 60.999039 
L 425.587073 60.850621 
L 427.014277 60.858179 
L 428.441482 59.5961 
L 431.29589 61.431347 
L 432.723095 60.699554 
L 434.150299 60.671569 
L 435.577503 59.898592 
L 437.004708 61.740509 
L 438.431912 59.753436 
L 439.859117 58.656096 
L 442.713525 56.129315 
L 444.14073 55.354111 
L 445.567934 57.092642 
L 446.995138 58.566502 
L 448.422343 57.969777 
L 449.849547 57.688 
L 451.276752 58.512242 
L 452.703956 57.180351 
L 454.13116 59.655834 
L 455.558365 59.196155 
L 456.985569 59.741018 
L 458.412773 59.55077 
L 459.839978 63.004315 
L 461.267182 61.782029 
L 462.694387 58.664682 
L 464.121591 59.225826 
L 465.548795 60.336985 
L 466.976 62.713073 
L 468.403204 61.164552 
L 469.830408 57.699616 
L 471.257613 57.911997 
L 472.684817 57.380995 
L 474.112022 56.481493 
L 475.539226 58.105554 
L 476.96643 58.112748 
L 478.393635 56.982809 
L 479.820839 58.973888 
L 481.248043 58.66609 
L 482.675248 58.009817 
L 484.102452 56.540242 
L 485.529657 54.716168 
L 486.956861 55.990315 
L 488.384065 55.327681 
L 489.81127 55.114049 
L 492.665678 58.746307 
L 494.092883 59.952577 
L 495.520087 59.596757 
L 496.947292 61.288585 
L 498.374496 61.303376 
L 499.8017 62.39169 
L 501.228905 62.159734 
L 502.656109 63.419897 
L 504.083313 64.421241 
L 505.510518 60.893275 
L 506.937722 61.799827 
L 508.364927 59.564012 
L 509.792131 58.647254 
L 511.219335 59.648267 
L 512.64654 59.533915 
L 514.073744 61.056556 
L 515.500948 61.148763 
L 516.928153 62.018453 
L 519.782562 60.826737 
L 521.209766 61.648048 
L 522.63697 61.126105 
L 525.491379 63.345246 
L 526.918583 62.727445 
L 528.345788 60.52535 
L 529.772992 57.79416 
L 532.627401 56.689026 
L 534.054605 58.199876 
L 535.48181 58.638493 
L 536.909014 56.862883 
L 538.336218 55.949223 
L 539.763423 54.524014 
L 541.190627 55.181299 
L 542.617832 56.41671 
L 544.045036 55.121048 
L 545.47224 57.128725 
L 546.899445 56.478429 
L 548.326649 56.500805 
L 549.753853 57.158271 
L 551.181058 54.653521 
L 554.035467 56.527019 
L 555.462671 55.35741 
L 556.889875 56.294561 
L 558.31708 56.285479 
L 559.744284 54.502181 
L 561.171488 56.959842 
L 562.598693 56.974389 
L 564.025897 56.130591 
L 565.453102 55.778736 
L 566.880306 54.410541 
L 568.30751 55.994002 
L 569.734715 53.275309 
L 571.161919 54.628735 
L 572.589123 55.369798 
L 574.016328 56.966142 
L 575.443532 54.802627 
L 576.870737 55.250599 
L 578.297941 55.190338 
L 579.725145 56.554349 
L 581.15235 56.289709 
L 582.579554 56.840819 
L 584.006758 55.958003 
L 585.433963 56.859635 
L 586.861167 58.081171 
L 588.288371 56.341814 
L 589.715576 56.558922 
L 591.14278 55.048089 
L 592.569985 56.275861 
L 593.997189 56.301819 
L 595.424393 57.070659 
L 596.851598 57.069435 
L 598.278802 57.318128 
L 599.706006 54.783608 
L 601.133211 55.428581 
L 602.560415 55.137351 
L 603.98762 57.96146 
L 605.414824 58.779928 
L 606.842028 58.658257 
L 608.269233 60.14296 
L 609.696437 60.138406 
L 611.123641 60.851772 
L 612.550846 58.156224 
L 613.97805 57.730281 
L 615.405255 58.433732 
L 616.832459 59.459789 
L 618.259663 57.716599 
L 619.686868 57.787357 
L 621.114072 57.272309 
L 622.541276 55.171852 
L 623.968481 55.409321 
L 625.395685 57.079543 
L 626.82289 57.061601 
L 628.250094 56.56138 
L 629.677298 56.24471 
L 631.104503 54.783475 
L 632.531707 56.344164 
L 633.958911 58.302669 
L 635.386116 59.030973 
L 636.81332 58.244288 
L 638.240525 55.08417 
L 639.667729 54.732906 
L 641.094933 55.561141 
L 642.522138 55.127157 
L 643.949342 56.7942 
L 645.376546 57.382801 
L 646.803751 57.602164 
L 648.230955 58.756484 
L 649.65816 57.905196 
L 651.085364 58.168714 
L 652.512568 61.133239 
L 653.939773 61.699282 
L 653.939773 61.699282 
" clip-path="url(#p6d70cafcd2)" style="fill: none; stroke: #9b8ac9; stroke-width: 1.2; stroke-linecap: square"/>
   </g>
   <g id="patch_3">
    <path d="M 56.0125 349.8636 
L 56.0125 34.5036 
" style="fill: none; stroke: #000000; stroke-width: 0.8; stroke-linejoin: miter; stroke-linecap: square"/>
   </g>
   <g id="patch_4">
    <path d="M 682.4125 349.8636 
L 682.4125 34.5036 
" style="fill: none; stroke: #000000; stroke-width: 0.8; stroke-linejoin: miter; stroke-linecap: square"/>
   </g>
   <g id="patch_5">
    <path d="M 56.0125 349.8636 
L 682.4125 349.8636 
" style="fill: none; stroke: #000000; stroke-width: 0.8; stroke-linejoin: miter; stroke-linecap: square"/>
   </g>
   <g id="patch_6">
    <path d="M 56.0125 34.5036 
L 682.4125 34.5036 
" style="fill: none; stroke: #000000; stroke-width: 0.8; stroke-linejoin: miter; stroke-linecap: square"/>
   </g>
   <g id="legend_1">
    <g id="patch_7">
     <path d="M 56.0125 31.35 
L 682.4125 31.35 
L 682.4125 7.2 
L 56.0125 7.2 
z
" style="fill: #ffffff; stroke: #808080; stroke-width: 0.8; stroke-linejoin: miter"/>
    </g>
    <g id="line2d_35">
     <path d="M 62.3125 18.4 
L 76.3125 18.4 
L 90.3125 18.4 
" style="fill: none; stroke: #1f77b4; stroke-width: 1.2; stroke-linecap: square"/>
    </g>
    <g id="text_18">
     <!-- GCN-DDQN -->
     <g transform="translate(98.7125 23.3) scale(0.14 -0.14)">
      <defs>
       <path id="SimHei-47" d="M 2850 75 
L 2425 75 
L 2350 425 
Q 2250 275 2037 175 
Q 1825 75 1575 75 
Q 1050 75 637 562 
Q 225 1050 225 2125 
Q 225 3300 600 3875 
Q 975 4450 1625 4450 
Q 2200 4450 2525 4025 
Q 2850 3600 2850 2925 
L 2300 2925 
Q 2300 3450 2125 3712 
Q 1950 3975 1625 3975 
Q 1225 3975 1025 3562 
Q 825 3150 825 2175 
Q 825 1250 1075 900 
Q 1325 550 1650 550 
Q 1975 550 2162 787 
Q 2350 1025 2350 1525 
L 2350 1800 
L 1575 1800 
L 1575 2275 
L 2850 2275 
L 2850 75 
z
" transform="scale(0.015625)"/>
       <path id="SimHei-43" d="M 2975 1825 
Q 2950 875 2575 475 
Q 2200 75 1675 75 
Q 1075 75 650 562 
Q 225 1050 225 2125 
Q 225 3300 637 3875 
Q 1050 4450 1700 4450 
Q 2250 4450 2612 4037 
Q 2975 3625 2950 2875 
L 2400 2875 
Q 2400 3425 2225 3700 
Q 2050 3975 1700 3975 
Q 1300 3975 1062 3562 
Q 825 3150 825 2175 
Q 825 1275 1062 912 
Q 1300 550 1675 550 
Q 1950 550 2175 812 
Q 2400 1075 2400 1825 
L 2975 1825 
z
" transform="scale(0.015625)"/>
       <path id="SimHei-4e" d="M 2850 125 
L 2225 125 
L 850 3225 
L 825 3225 
L 825 125 
L 250 125 
L 250 4400 
L 875 4400 
L 2250 1300 
L 2275 1300 
L 2275 4400 
L 2850 4400 
L 2850 125 
z
" transform="scale(0.015625)"/>
       <path id="SimHei-2d" d="M 2975 2125 
L 125 2125 
L 125 2525 
L 2975 2525 
L 2975 2125 
z
" transform="scale(0.015625)"/>
       <path id="SimHei-44" d="M 2925 2250 
Q 2925 1100 2437 612 
Q 1950 125 1125 125 
L 275 125 
L 275 4400 
L 1125 4400 
Q 2050 4400 2487 3900 
Q 2925 3400 2925 2250 
z
M 2325 2250 
Q 2325 3175 2025 3550 
Q 1725 3925 1125 3925 
L 850 3925 
L 850 600 
L 1125 600 
Q 1725 600 2025 962 
Q 2325 1325 2325 2250 
z
" transform="scale(0.015625)"/>
       <path id="SimHei-51" d="M 2950 2275 
Q 2950 1675 2862 1262 
Q 2775 850 2575 600 
L 2775 225 
L 2375 -200 
L 2150 225 
Q 2050 150 1900 112 
Q 1750 75 1575 75 
Q 925 75 550 587 
Q 175 1100 175 2275 
Q 175 3450 550 3950 
Q 925 4450 1575 4450 
Q 2225 4450 2587 3950 
Q 2950 3450 2950 2275 
z
M 2350 2275 
Q 2350 3325 2125 3650 
Q 1900 3975 1575 3975 
Q 1250 3975 1012 3650 
Q 775 3325 775 2275 
Q 775 1225 1012 887 
Q 1250 550 1575 550 
Q 1700 550 1800 587 
Q 1900 625 1950 675 
L 1550 1450 
L 1900 1875 
L 2250 1200 
Q 2300 1450 2325 1650 
Q 2350 1850 2350 2275 
z
" transform="scale(0.015625)"/>
      </defs>
      <use xlink:href="#SimHei-47"/>
      <use xlink:href="#SimHei-43" transform="translate(50 0)"/>
      <use xlink:href="#SimHei-4e" transform="translate(100 0)"/>
      <use xlink:href="#SimHei-2d" transform="translate(150 0)"/>
      <use xlink:href="#SimHei-44" transform="translate(200 0)"/>
      <use xlink:href="#SimHei-44" transform="translate(250 0)"/>
      <use xlink:href="#SimHei-51" transform="translate(300 0)"/>
      <use xlink:href="#SimHei-4e" transform="translate(350 0)"/>
     </g>
    </g>
    <g id="line2d_36">
     <path d="M 229.1125 18.4 
L 243.1125 18.4 
L 257.1125 18.4 
" style="fill: none; stroke: #ff7f0e; stroke-width: 1.2; stroke-linecap: square"/>
    </g>
    <g id="text_19">
     <!-- GCN-D3QN -->
     <g transform="translate(265.5125 23.3) scale(0.14 -0.14)">
      <use xlink:href="#SimHei-47"/>
      <use xlink:href="#SimHei-43" transform="translate(50 0)"/>
      <use xlink:href="#SimHei-4e" transform="translate(100 0)"/>
      <use xlink:href="#SimHei-2d" transform="translate(150 0)"/>
      <use xlink:href="#SimHei-44" transform="translate(200 0)"/>
      <use xlink:href="#SimHei-33" transform="translate(250 0)"/>
      <use xlink:href="#SimHei-51" transform="translate(300 0)"/>
      <use xlink:href="#SimHei-4e" transform="translate(350 0)"/>
     </g>
    </g>
    <g id="line2d_37">
     <path d="M 395.9125 18.4 
L 409.9125 18.4 
L 423.9125 18.4 
" style="fill: none; stroke: #2ca02c; stroke-width: 1.2; stroke-linecap: square"/>
    </g>
    <g id="text_20">
     <!-- GAT-LSTM-DDQN -->
     <g transform="translate(432.3125 23.3) scale(0.14 -0.14)">
      <defs>
       <path id="SimHei-41" d="M 3075 125 
L 2475 125 
L 2125 1450 
L 1025 1450 
L 675 125 
L 75 125 
L 1325 4450 
L 1825 4450 
L 3075 125 
z
M 2000 1925 
L 1600 3450 
L 1550 3450 
L 1150 1925 
L 2000 1925 
z
" transform="scale(0.015625)"/>
       <path id="SimHei-4c" d="M 2900 125 
L 300 125 
L 300 4400 
L 875 4400 
L 875 600 
L 2900 600 
L 2900 125 
z
" transform="scale(0.015625)"/>
       <path id="SimHei-53" d="M 2900 1325 
Q 2900 750 2537 412 
Q 2175 75 1550 75 
Q 925 75 575 425 
Q 225 775 225 1300 
L 225 1475 
L 800 1475 
L 800 1325 
Q 800 950 1025 750 
Q 1250 550 1550 550 
Q 1950 550 2137 762 
Q 2325 975 2325 1275 
Q 2325 1525 2100 1737 
Q 1875 1950 1450 2125 
Q 850 2350 587 2625 
Q 325 2900 325 3275 
Q 325 3800 687 4125 
Q 1050 4450 1550 4450 
Q 2200 4450 2487 4062 
Q 2775 3675 2775 3225 
L 2200 3225 
Q 2225 3500 2050 3725 
Q 1875 3950 1550 3950 
Q 1250 3950 1075 3787 
Q 900 3625 900 3350 
Q 900 3125 1037 2962 
Q 1175 2800 1750 2575 
Q 2300 2350 2600 2037 
Q 2900 1725 2900 1325 
z
" transform="scale(0.015625)"/>
       <path id="SimHei-4d" d="M 2925 125 
L 2425 125 
L 2425 3175 
L 2375 3175 
L 1775 125 
L 1375 125 
L 775 3175 
L 725 3175 
L 725 125 
L 225 125 
L 225 4400 
L 1000 4400 
L 1550 1575 
L 1600 1575 
L 2150 4400 
L 2925 4400 
L 2925 125 
z
" transform="scale(0.015625)"/>
      </defs>
      <use xlink:href="#SimHei-47"/>
      <use xlink:href="#SimHei-41" transform="translate(50 0)"/>
      <use xlink:href="#SimHei-54" transform="translate(100 0)"/>
      <use xlink:href="#SimHei-2d" transform="translate(150 0)"/>
      <use xlink:href="#SimHei-4c" transform="translate(200 0)"/>
      <use xlink:href="#SimHei-53" transform="translate(250 0)"/>
      <use xlink:href="#SimHei-54" transform="translate(300 0)"/>
      <use xlink:href="#SimHei-4d" transform="translate(350 0)"/>
      <use xlink:href="#SimHei-2d" transform="translate(400 0)"/>
      <use xlink:href="#SimHei-44" transform="translate(450 0)"/>
      <use xlink:href="#SimHei-44" transform="translate(500 0)"/>
      <use xlink:href="#SimHei-51" transform="translate(550 0)"/>
      <use xlink:href="#SimHei-4e" transform="translate(600 0)"/>
     </g>
    </g>
    <g id="line2d_38">
     <path d="M 597.7125 18.4 
L 611.7125 18.4 
L 625.7125 18.4 
" style="fill: none; stroke: #9b8ac9; stroke-width: 1.2; stroke-linecap: square"/>
    </g>
    <g id="text_21">
     <!-- GLDVTO -->
     <g transform="translate(634.1125 23.3) scale(0.14 -0.14)">
      <defs>
       <path id="SimHei-56" d="M 3050 4400 
L 1800 75 
L 1300 75 
L 50 4400 
L 650 4400 
L 1525 1125 
L 1575 1125 
L 2450 4400 
L 3050 4400 
z
" transform="scale(0.015625)"/>
       <path id="SimHei-4f" d="M 2950 2275 
Q 2950 1100 2587 587 
Q 2225 75 1575 75 
Q 925 75 550 587 
Q 175 1100 175 2275 
Q 175 3450 550 3950 
Q 925 4450 1575 4450 
Q 2225 4450 2587 3950 
Q 2950 3450 2950 2275 
z
M 2350 2275 
Q 2350 3325 2125 3650 
Q 1900 3975 1575 3975 
Q 1250 3975 1012 3650 
Q 775 3325 775 2275 
Q 775 1225 1012 887 
Q 1250 550 1575 550 
Q 1900 550 2125 887 
Q 2350 1225 2350 2275 
z
" transform="scale(0.015625)"/>
      </defs>
      <use xlink:href="#SimHei-47"/>
      <use xlink:href="#SimHei-4c" transform="translate(50 0)"/>
      <use xlink:href="#SimHei-44" transform="translate(100 0)"/>
      <use xlink:href="#SimHei-56" transform="translate(150 0)"/>
      <use xlink:href="#SimHei-54" transform="translate(200 0)"/>
      <use xlink:href="#SimHei-4f" transform="translate(250 0)"/>
     </g>
    </g>
   </g>
  </g>
 </g>
 <defs>
  <clipPath id="p6d70cafcd2">
   <rect x="56.0125" y="34.5036" width="626.4" height="315.36"/>
  </clipPath>
 </defs>
</svg>
