<?xml version="1.0" encoding="utf-8" standalone="no"?>
<!DOCTYPE svg PUBLIC "-//W3C//DTD SVG 1.1//EN"
  "http://www.w3.org/Graphics/SVG/1.1/DTD/svg11.dtd">
<svg xmlns:xlink="http://www.w3.org/1999/xlink" width="683.6125pt" height="391.6261pt" viewBox="0 0 683.6125 391.6261" xmlns="http://www.w3.org/2000/svg" version="1.1">
 <metadata>
  <rdf:RDF xmlns:dc="http://purl.org/dc/elements/1.1/" xmlns:cc="http://creativecommons.org/ns#" xmlns:rdf="http://www.w3.org/1999/02/22-rdf-syntax-ns#">
   <cc:Work>
    <dc:type rdf:resource="http://purl.org/dc/dcmitype/StillImage"/>
    <dc:date>2026-07-13T18:57:42.859334</dc:date>
    <dc:format>image/svg+xml</dc:format>
    <dc:creator>
     <cc:Agent>
      <dc:title>Matplotlib v3.10.7, https://matplotlib.org/</dc:title>
     </cc:Agent>
    </dc:creator>
   </cc:Work>
  </rdf:RDF>
 </metadata>
 <defs>
  <style type="text/css">*{stroke-linejoin: round; stroke-linecap: butt}</style>
 </defs>
 <g id="figure_1">
  <g id="patch_1">
   <path d="M 0 391.6261 
L 683.6125 391.6261 
L 683.6125 0 
L 0 0 
z
" style="fill: #ffffff"/>
  </g>
  <g id="axes_1">
   <g id="patch_2">
    <path d="M 50.0125 349.8636 
L 676.4125 349.8636 
L 676.4125 34.5036 
L 50.0125 34.5036 
z
" style="fill: #ffffff"/>
   </g>
   <g id="matplotlib.axis_1">
    <g id="xtick_1">
     <g id="line2d_1">
      <path d="M 78.485227 349.8636 
L 78.485227 34.5036 
" clip-path="url(#p1634549b20)" style="fill: none; stroke-dasharray: 2.22,0.96; stroke-dashoffset: 0; stroke: #b0b0b0; stroke-opacity: 0.25; stroke-width: 0.6"/>
     </g>
     <g id="line2d_2">
      <defs>
       <path id="mdbf07468d4" d="M 0 0 
L 0 3.5 
" style="stroke: #000000; stroke-width: 0.8"/>
      </defs>
      <g>
       <use xlink:href="#mdbf07468d4" x="78.485227" y="349.8636" style="stroke: #000000; stroke-width: 0.8"/>
      </g>
     </g>
     <g id="text_1">
      <!-- 0 -->
      <g transform="translate(75.485227 365.1136) scale(0.12 -0.12)">
       <defs>
        <path id="SimHei-30" d="M 225 2537 
Q 250 3200 412 3587 
Q 575 3975 875 4225 
Q 1175 4475 1612 4475 
Q 2050 4475 2375 4112 
Q 2700 3750 2800 3200 
Q 2900 2650 2862 1937 
Q 2825 1225 2612 775 
Q 2400 325 1975 150 
Q 1550 -25 1125 187 
Q 700 400 525 750 
Q 350 1100 275 1487 
Q 200 1875 225 2537 
z
M 750 2687 
Q 675 2000 800 1462 
Q 925 925 1212 700 
Q 1500 475 1800 612 
Q 2100 750 2237 1162 
Q 2375 1575 2375 2062 
Q 2375 2550 2337 2950 
Q 2300 3350 2112 3675 
Q 1925 4000 1612 4012 
Q 1300 4025 1062 3700 
Q 825 3375 750 2687 
z
" transform="scale(0.015625)"/>
       </defs>
       <use xlink:href="#SimHei-30"/>
      </g>
     </g>
    </g>
    <g id="xtick_2">
     <g id="line2d_3">
      <path d="M 149.845446 349.8636 
L 149.845446 34.5036 
" clip-path="url(#p1634549b20)" style="fill: none; stroke-dasharray: 2.22,0.96; stroke-dashoffset: 0; stroke: #b0b0b0; stroke-opacity: 0.25; stroke-width: 0.6"/>
     </g>
     <g id="line2d_4">
      <g>
       <use xlink:href="#mdbf07468d4" x="149.845446" y="349.8636" style="stroke: #000000; stroke-width: 0.8"/>
      </g>
     </g>
     <g id="text_2">
      <!-- 50 -->
      <g transform="translate(143.845446 365.1136) scale(0.12 -0.12)">
       <defs>
        <path id="SimHei-35" d="M 550 1325 
Q 725 650 1150 575 
Q 1575 500 1837 662 
Q 2100 825 2212 1087 
Q 2325 1350 2312 1675 
Q 2300 2000 2137 2225 
Q 1975 2450 1725 2525 
Q 1475 2600 1162 2525 
Q 850 2450 650 2175 
L 225 2225 
Q 275 2375 700 4375 
L 2675 4375 
L 2675 3925 
L 1075 3925 
Q 950 3250 825 2850 
Q 1200 3025 1525 3012 
Q 1850 3000 2150 2862 
Q 2450 2725 2587 2487 
Q 2725 2250 2787 2012 
Q 2850 1775 2837 1500 
Q 2825 1225 2725 937 
Q 2625 650 2425 462 
Q 2225 275 1937 162 
Q 1650 50 1275 75 
Q 900 100 562 350 
Q 225 600 100 1200 
L 550 1325 
z
" transform="scale(0.015625)"/>
       </defs>
       <use xlink:href="#SimHei-35"/>
       <use xlink:href="#SimHei-30" transform="translate(50 0)"/>
      </g>
     </g>
    </g>
    <g id="xtick_3">
     <g id="line2d_5">
      <path d="M 221.205665 349.8636 
L 221.205665 34.5036 
" clip-path="url(#p1634549b20)" style="fill: none; stroke-dasharray: 2.22,0.96; stroke-dashoffset: 0; stroke: #b0b0b0; stroke-opacity: 0.25; stroke-width: 0.6"/>
     </g>
     <g id="line2d_6">
      <g>
       <use xlink:href="#mdbf07468d4" x="221.205665" y="349.8636" style="stroke: #000000; stroke-width: 0.8"/>
      </g>
     </g>
     <g id="text_3">
      <!-- 100 -->
      <g transform="translate(212.205665 365.1136) scale(0.12 -0.12)">
       <defs>
        <path id="SimHei-31" d="M 1400 3600 
Q 1075 3275 575 2975 
L 575 3450 
Q 1200 3875 1600 4450 
L 1900 4450 
L 1900 150 
L 1400 150 
L 1400 3600 
z
" transform="scale(0.015625)"/>
       </defs>
       <use xlink:href="#SimHei-31"/>
       <use xlink:href="#SimHei-30" transform="translate(50 0)"/>
       <use xlink:href="#SimHei-30" transform="translate(100 0)"/>
      </g>
     </g>
    </g>
    <g id="xtick_4">
     <g id="line2d_7">
      <path d="M 292.565883 349.8636 
L 292.565883 34.5036 
" clip-path="url(#p1634549b20)" style="fill: none; stroke-dasharray: 2.22,0.96; stroke-dashoffset: 0; stroke: #b0b0b0; stroke-opacity: 0.25; stroke-width: 0.6"/>
     </g>
     <g id="line2d_8">
      <g>
       <use xlink:href="#mdbf07468d4" x="292.565883" y="349.8636" style="stroke: #000000; stroke-width: 0.8"/>
      </g>
     </g>
     <g id="text_4">
      <!-- 150 -->
      <g transform="translate(283.565883 365.1136) scale(0.12 -0.12)">
       <use xlink:href="#SimHei-31"/>
       <use xlink:href="#SimHei-35" transform="translate(50 0)"/>
       <use xlink:href="#SimHei-30" transform="translate(100 0)"/>
      </g>
     </g>
    </g>
    <g id="xtick_5">
     <g id="line2d_9">
      <path d="M 363.926102 349.8636 
L 363.926102 34.5036 
" clip-path="url(#p1634549b20)" style="fill: none; stroke-dasharray: 2.22,0.96; stroke-dashoffset: 0; stroke: #b0b0b0; stroke-opacity: 0.25; stroke-width: 0.6"/>
     </g>
     <g id="line2d_10">
      <g>
       <use xlink:href="#mdbf07468d4" x="363.926102" y="349.8636" style="stroke: #000000; stroke-width: 0.8"/>
      </g>
     </g>
     <g id="text_5">
      <!-- 200 -->
      <g transform="translate(354.926102 365.1136) scale(0.12 -0.12)">
       <defs>
        <path id="SimHei-32" d="M 300 250 
Q 325 625 650 925 
Q 975 1225 1475 1862 
Q 1975 2500 2125 2850 
Q 2275 3200 2237 3450 
Q 2200 3700 2000 3862 
Q 1800 4025 1537 4000 
Q 1275 3975 1037 3800 
Q 800 3625 675 3275 
L 200 3350 
Q 400 3925 712 4187 
Q 1025 4450 1450 4475 
Q 1700 4500 1900 4462 
Q 2100 4425 2312 4287 
Q 2525 4150 2662 3875 
Q 2800 3600 2762 3212 
Q 2725 2825 2375 2287 
Q 2025 1750 1025 600 
L 2825 600 
L 2825 150 
L 300 150 
L 300 250 
z
" transform="scale(0.015625)"/>
       </defs>
       <use xlink:href="#SimHei-32"/>
       <use xlink:href="#SimHei-30" transform="translate(50 0)"/>
       <use xlink:href="#SimHei-30" transform="translate(100 0)"/>
      </g>
     </g>
    </g>
    <g id="xtick_6">
     <g id="line2d_11">
      <path d="M 435.286321 349.8636 
L 435.286321 34.5036 
" clip-path="url(#p1634549b20)" style="fill: none; stroke-dasharray: 2.22,0.96; stroke-dashoffset: 0; stroke: #b0b0b0; stroke-opacity: 0.25; stroke-width: 0.6"/>
     </g>
     <g id="line2d_12">
      <g>
       <use xlink:href="#mdbf07468d4" x="435.286321" y="349.8636" style="stroke: #000000; stroke-width: 0.8"/>
      </g>
     </g>
     <g id="text_6">
      <!-- 250 -->
      <g transform="translate(426.286321 365.1136) scale(0.12 -0.12)">
       <use xlink:href="#SimHei-32"/>
       <use xlink:href="#SimHei-35" transform="translate(50 0)"/>
       <use xlink:href="#SimHei-30" transform="translate(100 0)"/>
      </g>
     </g>
    </g>
    <g id="xtick_7">
     <g id="line2d_13">
      <path d="M 506.64654 349.8636 
L 506.64654 34.5036 
" clip-path="url(#p1634549b20)" style="fill: none; stroke-dasharray: 2.22,0.96; stroke-dashoffset: 0; stroke: #b0b0b0; stroke-opacity: 0.25; stroke-width: 0.6"/>
     </g>
     <g id="line2d_14">
      <g>
       <use xlink:href="#mdbf07468d4" x="506.64654" y="349.8636" style="stroke: #000000; stroke-width: 0.8"/>
      </g>
     </g>
     <g id="text_7">
      <!-- 300 -->
      <g transform="translate(497.64654 365.1136) scale(0.12 -0.12)">
       <defs>
        <path id="SimHei-33" d="M 250 1225 
L 700 1300 
Q 800 975 1025 762 
Q 1250 550 1587 562 
Q 1925 575 2125 837 
Q 2325 1100 2300 1437 
Q 2275 1775 2037 1962 
Q 1800 2150 1275 2225 
L 1275 2550 
Q 1800 2600 2037 2825 
Q 2275 3050 2250 3412 
Q 2225 3775 1925 3937 
Q 1625 4100 1287 3975 
Q 950 3850 750 3275 
L 300 3350 
Q 450 3800 712 4100 
Q 975 4400 1425 4450 
Q 1875 4500 2212 4337 
Q 2550 4175 2687 3837 
Q 2825 3500 2725 3100 
Q 2625 2700 2150 2400 
Q 2500 2250 2687 1950 
Q 2875 1650 2812 1162 
Q 2750 675 2375 375 
Q 2000 75 1525 87 
Q 1050 100 700 387 
Q 350 675 250 1225 
z
" transform="scale(0.015625)"/>
       </defs>
       <use xlink:href="#SimHei-33"/>
       <use xlink:href="#SimHei-30" transform="translate(50 0)"/>
       <use xlink:href="#SimHei-30" transform="translate(100 0)"/>
      </g>
     </g>
    </g>
    <g id="xtick_8">
     <g id="line2d_15">
      <path d="M 578.006758 349.8636 
L 578.006758 34.5036 
" clip-path="url(#p1634549b20)" style="fill: none; stroke-dasharray: 2.22,0.96; stroke-dashoffset: 0; stroke: #b0b0b0; stroke-opacity: 0.25; stroke-width: 0.6"/>
     </g>
     <g id="line2d_16">
      <g>
       <use xlink:href="#mdbf07468d4" x="578.006758" y="349.8636" style="stroke: #000000; stroke-width: 0.8"/>
      </g>
     </g>
     <g id="text_8">
      <!-- 350 -->
      <g transform="translate(569.006758 365.1136) scale(0.12 -0.12)">
       <use xlink:href="#SimHei-33"/>
       <use xlink:href="#SimHei-35" transform="translate(50 0)"/>
       <use xlink:href="#SimHei-30" transform="translate(100 0)"/>
      </g>
     </g>
    </g>
    <g id="xtick_9">
     <g id="line2d_17">
      <path d="M 649.366977 349.8636 
L 649.366977 34.5036 
" clip-path="url(#p1634549b20)" style="fill: none; stroke-dasharray: 2.22,0.96; stroke-dashoffset: 0; stroke: #b0b0b0; stroke-opacity: 0.25; stroke-width: 0.6"/>
     </g>
     <g id="line2d_18">
      <g>
       <use xlink:href="#mdbf07468d4" x="649.366977" y="349.8636" style="stroke: #000000; stroke-width: 0.8"/>
      </g>
     </g>
     <g id="text_9">
      <!-- 400 -->
      <g transform="translate(640.366977 365.1136) scale(0.12 -0.12)">
       <defs>
        <path id="SimHei-34" d="M 2000 1100 
L 75 1100 
L 75 1525 
L 2100 4450 
L 2475 4450 
L 2475 1525 
L 3075 1525 
L 3075 1100 
L 2475 1100 
L 2475 150 
L 2000 150 
L 2000 1100 
z
M 2000 1525 
L 2000 3500 
L 600 1525 
L 2000 1525 
z
" transform="scale(0.015625)"/>
       </defs>
       <use xlink:href="#SimHei-34"/>
       <use xlink:href="#SimHei-30" transform="translate(50 0)"/>
       <use xlink:href="#SimHei-30" transform="translate(100 0)"/>
      </g>
     </g>
    </g>
    <g id="text_10">
     <!-- Episode -->
     <g transform="translate(333.4625 382.3011) scale(0.17 -0.17)">
      <defs>
       <path id="SimHei-45" d="M 2900 125 
L 350 125 
L 350 4400 
L 2775 4400 
L 2775 3925 
L 925 3925 
L 925 2600 
L 2625 2600 
L 2625 2125 
L 925 2125 
L 925 600 
L 2900 600 
L 2900 125 
z
" transform="scale(0.015625)"/>
       <path id="SimHei-70" d="M 2825 1525 
Q 2825 800 2475 425 
Q 2125 50 1625 50 
Q 1350 50 1150 162 
Q 950 275 800 500 
L 800 -800 
L 300 -800 
L 300 2925 
L 800 2925 
L 800 2550 
Q 950 2775 1150 2875 
Q 1350 2975 1625 2975 
Q 2125 2975 2475 2612 
Q 2825 2250 2825 1525 
z
M 2275 1525 
Q 2275 2000 2087 2262 
Q 1900 2525 1525 2525 
Q 1225 2525 1012 2262 
Q 800 2000 800 1525 
Q 800 1050 1012 775 
Q 1225 500 1525 500 
Q 1900 500 2087 775 
Q 2275 1050 2275 1525 
z
" transform="scale(0.015625)"/>
       <path id="SimHei-69" d="M 1800 3725 
L 1300 3725 
L 1300 4375 
L 1800 4375 
L 1800 3725 
z
M 1800 125 
L 1300 125 
L 1300 2925 
L 1800 2925 
L 1800 125 
z
" transform="scale(0.015625)"/>
       <path id="SimHei-73" d="M 2750 900 
Q 2750 500 2437 287 
Q 2125 75 1650 75 
Q 1050 75 725 312 
Q 400 550 400 1000 
L 900 1000 
Q 900 700 1112 600 
Q 1325 500 1625 500 
Q 1925 500 2075 612 
Q 2225 725 2225 900 
Q 2225 1025 2100 1150 
Q 1975 1275 1475 1350 
Q 900 1425 687 1637 
Q 475 1850 475 2200 
Q 475 2500 762 2737 
Q 1050 2975 1600 2975 
Q 2100 2975 2387 2750 
Q 2675 2525 2675 2150 
L 2175 2150 
Q 2175 2375 2012 2462 
Q 1850 2550 1600 2550 
Q 1275 2550 1137 2437 
Q 1000 2325 1000 2175 
Q 1000 2000 1125 1900 
Q 1250 1800 1650 1750 
Q 2300 1650 2525 1437 
Q 2750 1225 2750 900 
z
" transform="scale(0.015625)"/>
       <path id="SimHei-6f" d="M 2925 1525 
Q 2925 875 2525 475 
Q 2125 75 1575 75 
Q 1025 75 625 475 
Q 225 875 225 1525 
Q 225 2175 625 2575 
Q 1025 2975 1575 2975 
Q 2125 2975 2525 2575 
Q 2925 2175 2925 1525 
z
M 2375 1525 
Q 2375 2025 2125 2275 
Q 1875 2525 1575 2525 
Q 1275 2525 1025 2275 
Q 775 2025 775 1525 
Q 775 1025 1025 775 
Q 1275 525 1575 525 
Q 1875 525 2125 775 
Q 2375 1025 2375 1525 
z
" transform="scale(0.015625)"/>
       <path id="SimHei-64" d="M 2750 125 
L 2250 125 
L 2250 500 
Q 2100 275 1900 175 
Q 1700 75 1425 75 
Q 925 75 575 437 
Q 225 800 225 1525 
Q 225 2250 575 2625 
Q 925 3000 1425 3000 
Q 1700 3000 1900 2887 
Q 2100 2775 2250 2550 
L 2250 4400 
L 2750 4400 
L 2750 125 
z
M 2250 1525 
Q 2250 2000 2037 2275 
Q 1825 2550 1525 2550 
Q 1150 2550 962 2275 
Q 775 2000 775 1525 
Q 775 1050 962 787 
Q 1150 525 1525 525 
Q 1825 525 2037 787 
Q 2250 1050 2250 1525 
z
" transform="scale(0.015625)"/>
       <path id="SimHei-65" d="M 2850 1075 
Q 2800 625 2450 350 
Q 2100 75 1625 75 
Q 1025 75 637 462 
Q 250 850 250 1525 
Q 250 2200 637 2587 
Q 1025 2975 1625 2975 
Q 2150 2975 2487 2637 
Q 2825 2300 2825 1525 
L 800 1525 
Q 800 975 1037 750 
Q 1275 525 1625 525 
Q 1900 525 2075 662 
Q 2250 800 2300 1075 
L 2850 1075 
z
M 2250 1925 
Q 2200 2275 2025 2412 
Q 1850 2550 1575 2550 
Q 1325 2550 1125 2412 
Q 925 2275 825 1925 
L 2250 1925 
z
" transform="scale(0.015625)"/>
      </defs>
      <use xlink:href="#SimHei-45"/>
      <use xlink:href="#SimHei-70" transform="translate(50 0)"/>
      <use xlink:href="#SimHei-69" transform="translate(100 0)"/>
      <use xlink:href="#SimHei-73" transform="translate(150 0)"/>
      <use xlink:href="#SimHei-6f" transform="translate(200 0)"/>
      <use xlink:href="#SimHei-64" transform="translate(250 0)"/>
      <use xlink:href="#SimHei-65" transform="translate(300 0)"/>
     </g>
    </g>
   </g>
   <g id="matplotlib.axis_2">
    <g id="ytick_1">
     <g id="line2d_19">
      <path d="M 50.0125 312.331408 
L 676.4125 312.331408 
" clip-path="url(#p1634549b20)" style="fill: none; stroke-dasharray: 2.22,0.96; stroke-dashoffset: 0; stroke: #b0b0b0; stroke-opacity: 0.25; stroke-width: 0.6"/>
     </g>
     <g id="line2d_20">
      <defs>
       <path id="mcc2c3171e3" d="M 0 0 
L -3.5 0 
" style="stroke: #000000; stroke-width: 0.8"/>
      </defs>
      <g>
       <use xlink:href="#mcc2c3171e3" x="50.0125" y="312.331408" style="stroke: #000000; stroke-width: 0.8"/>
      </g>
     </g>
     <g id="text_11">
      <!-- 1.0 -->
      <g transform="translate(25.0125 316.456408) scale(0.12 -0.12)">
       <defs>
        <path id="SimHei-2e" d="M 1075 125 
L 500 125 
L 500 675 
L 1075 675 
L 1075 125 
z
" transform="scale(0.015625)"/>
       </defs>
       <use xlink:href="#SimHei-31"/>
       <use xlink:href="#SimHei-2e" transform="translate(50 0)"/>
       <use xlink:href="#SimHei-30" transform="translate(100 0)"/>
      </g>
     </g>
    </g>
    <g id="ytick_2">
     <g id="line2d_21">
      <path d="M 50.0125 268.116373 
L 676.4125 268.116373 
" clip-path="url(#p1634549b20)" style="fill: none; stroke-dasharray: 2.22,0.96; stroke-dashoffset: 0; stroke: #b0b0b0; stroke-opacity: 0.25; stroke-width: 0.6"/>
     </g>
     <g id="line2d_22">
      <g>
       <use xlink:href="#mcc2c3171e3" x="50.0125" y="268.116373" style="stroke: #000000; stroke-width: 0.8"/>
      </g>
     </g>
     <g id="text_12">
      <!-- 1.5 -->
      <g transform="translate(25.0125 272.241373) scale(0.12 -0.12)">
       <use xlink:href="#SimHei-31"/>
       <use xlink:href="#SimHei-2e" transform="translate(50 0)"/>
       <use xlink:href="#SimHei-35" transform="translate(100 0)"/>
      </g>
     </g>
    </g>
    <g id="ytick_3">
     <g id="line2d_23">
      <path d="M 50.0125 223.901337 
L 676.4125 223.901337 
" clip-path="url(#p1634549b20)" style="fill: none; stroke-dasharray: 2.22,0.96; stroke-dashoffset: 0; stroke: #b0b0b0; stroke-opacity: 0.25; stroke-width: 0.6"/>
     </g>
     <g id="line2d_24">
      <g>
       <use xlink:href="#mcc2c3171e3" x="50.0125" y="223.901337" style="stroke: #000000; stroke-width: 0.8"/>
      </g>
     </g>
     <g id="text_13">
      <!-- 2.0 -->
      <g transform="translate(25.0125 228.026337) scale(0.12 -0.12)">
       <use xlink:href="#SimHei-32"/>
       <use xlink:href="#SimHei-2e" transform="translate(50 0)"/>
       <use xlink:href="#SimHei-30" transform="translate(100 0)"/>
      </g>
     </g>
    </g>
    <g id="ytick_4">
     <g id="line2d_25">
      <path d="M 50.0125 179.686302 
L 676.4125 179.686302 
" clip-path="url(#p1634549b20)" style="fill: none; stroke-dasharray: 2.22,0.96; stroke-dashoffset: 0; stroke: #b0b0b0; stroke-opacity: 0.25; stroke-width: 0.6"/>
     </g>
     <g id="line2d_26">
      <g>
       <use xlink:href="#mcc2c3171e3" x="50.0125" y="179.686302" style="stroke: #000000; stroke-width: 0.8"/>
      </g>
     </g>
     <g id="text_14">
      <!-- 2.5 -->
      <g transform="translate(25.0125 183.811302) scale(0.12 -0.12)">
       <use xlink:href="#SimHei-32"/>
       <use xlink:href="#SimHei-2e" transform="translate(50 0)"/>
       <use xlink:href="#SimHei-35" transform="translate(100 0)"/>
      </g>
     </g>
    </g>
    <g id="ytick_5">
     <g id="line2d_27">
      <path d="M 50.0125 135.471267 
L 676.4125 135.471267 
" clip-path="url(#p1634549b20)" style="fill: none; stroke-dasharray: 2.22,0.96; stroke-dashoffset: 0; stroke: #b0b0b0; stroke-opacity: 0.25; stroke-width: 0.6"/>
     </g>
     <g id="line2d_28">
      <g>
       <use xlink:href="#mcc2c3171e3" x="50.0125" y="135.471267" style="stroke: #000000; stroke-width: 0.8"/>
      </g>
     </g>
     <g id="text_15">
      <!-- 3.0 -->
      <g transform="translate(25.0125 139.596267) scale(0.12 -0.12)">
       <use xlink:href="#SimHei-33"/>
       <use xlink:href="#SimHei-2e" transform="translate(50 0)"/>
       <use xlink:href="#SimHei-30" transform="translate(100 0)"/>
      </g>
     </g>
    </g>
    <g id="ytick_6">
     <g id="line2d_29">
      <path d="M 50.0125 91.256232 
L 676.4125 91.256232 
" clip-path="url(#p1634549b20)" style="fill: none; stroke-dasharray: 2.22,0.96; stroke-dashoffset: 0; stroke: #b0b0b0; stroke-opacity: 0.25; stroke-width: 0.6"/>
     </g>
     <g id="line2d_30">
      <g>
       <use xlink:href="#mcc2c3171e3" x="50.0125" y="91.256232" style="stroke: #000000; stroke-width: 0.8"/>
      </g>
     </g>
     <g id="text_16">
      <!-- 3.5 -->
      <g transform="translate(25.0125 95.381232) scale(0.12 -0.12)">
       <use xlink:href="#SimHei-33"/>
       <use xlink:href="#SimHei-2e" transform="translate(50 0)"/>
       <use xlink:href="#SimHei-35" transform="translate(100 0)"/>
      </g>
     </g>
    </g>
    <g id="ytick_7">
     <g id="line2d_31">
      <path d="M 50.0125 47.041196 
L 676.4125 47.041196 
" clip-path="url(#p1634549b20)" style="fill: none; stroke-dasharray: 2.22,0.96; stroke-dashoffset: 0; stroke: #b0b0b0; stroke-opacity: 0.25; stroke-width: 0.6"/>
     </g>
     <g id="line2d_32">
      <g>
       <use xlink:href="#mcc2c3171e3" x="50.0125" y="47.041196" style="stroke: #000000; stroke-width: 0.8"/>
      </g>
     </g>
     <g id="text_17">
      <!-- 4.0 -->
      <g transform="translate(25.0125 51.166196) scale(0.12 -0.12)">
       <use xlink:href="#SimHei-34"/>
       <use xlink:href="#SimHei-2e" transform="translate(50 0)"/>
       <use xlink:href="#SimHei-30" transform="translate(100 0)"/>
      </g>
     </g>
    </g>
    <g id="text_18">
     <!-- Total Task Energy -->
     <g transform="translate(18.8875 264.4336) rotate(-90) scale(0.17 -0.17)">
      <defs>
       <path id="SimHei-54" d="M 2850 3925 
L 1850 3925 
L 1850 125 
L 1275 125 
L 1275 3925 
L 275 3925 
L 275 4400 
L 2850 4400 
L 2850 3925 
z
" transform="scale(0.015625)"/>
       <path id="SimHei-74" d="M 2750 200 
Q 2625 150 2462 112 
Q 2300 75 2025 75 
Q 1575 75 1300 325 
Q 1025 575 1025 1025 
L 1025 2525 
L 175 2525 
L 175 2925 
L 1025 2925 
L 1025 3900 
L 1525 3900 
L 1525 2925 
L 2550 2925 
L 2550 2525 
L 1525 2525 
L 1525 1000 
Q 1525 800 1625 662 
Q 1725 525 2000 525 
Q 2275 525 2450 575 
Q 2625 625 2750 700 
L 2750 200 
z
" transform="scale(0.015625)"/>
       <path id="SimHei-61" d="M 2875 125 
L 2275 125 
Q 2225 175 2200 262 
Q 2175 350 2175 475 
Q 2000 275 1750 175 
Q 1500 75 1225 75 
Q 825 75 550 275 
Q 275 475 275 850 
Q 275 1225 525 1450 
Q 775 1675 1300 1750 
Q 1650 1800 1912 1875 
Q 2175 1950 2175 2075 
Q 2175 2225 2062 2375 
Q 1950 2525 1575 2525 
Q 1275 2525 1137 2412 
Q 1000 2300 950 2100 
L 400 2100 
Q 450 2500 762 2737 
Q 1075 2975 1575 2975 
Q 2125 2975 2400 2725 
Q 2675 2475 2675 2025 
L 2675 650 
Q 2675 500 2725 375 
Q 2775 250 2875 125 
z
M 2175 1050 
L 2175 1550 
Q 2025 1500 1887 1462 
Q 1750 1425 1425 1375 
Q 1050 1325 937 1200 
Q 825 1075 825 900 
Q 825 750 937 637 
Q 1050 525 1275 525 
Q 1500 525 1762 650 
Q 2025 775 2175 1050 
z
" transform="scale(0.015625)"/>
       <path id="SimHei-6c" d="M 1825 125 
L 1325 125 
L 1325 4400 
L 1825 4400 
L 1825 125 
z
" transform="scale(0.015625)"/>
       <path id="SimHei-20" transform="scale(0.015625)"/>
       <path id="SimHei-6b" d="M 2925 125 
L 2350 125 
L 1450 1650 
L 875 1100 
L 875 125 
L 375 125 
L 375 4400 
L 875 4400 
L 875 1675 
L 2125 2925 
L 2750 2925 
L 1775 1975 
L 2925 125 
z
" transform="scale(0.015625)"/>
       <path id="SimHei-6e" d="M 2800 125 
L 2300 125 
L 2300 1925 
Q 2300 2225 2150 2400 
Q 2000 2575 1750 2575 
Q 1425 2575 1137 2237 
Q 850 1900 850 1400 
L 850 125 
L 350 125 
L 350 2925 
L 850 2925 
L 850 2400 
Q 1050 2675 1287 2825 
Q 1525 2975 1900 2975 
Q 2350 2975 2575 2725 
Q 2800 2475 2800 2100 
L 2800 125 
z
" transform="scale(0.015625)"/>
       <path id="SimHei-72" d="M 2500 2425 
Q 2025 2500 1700 2287 
Q 1375 2075 1150 1550 
L 1150 125 
L 650 125 
L 650 2925 
L 1150 2925 
L 1150 2200 
Q 1375 2600 1712 2787 
Q 2050 2975 2500 2975 
L 2500 2425 
z
" transform="scale(0.015625)"/>
       <path id="SimHei-67" d="M 2975 2500 
Q 2800 2550 2637 2562 
Q 2475 2575 2300 2525 
Q 2375 2450 2425 2337 
Q 2475 2225 2475 2000 
Q 2475 1575 2187 1300 
Q 1900 1025 1475 1025 
Q 1375 1025 1212 1062 
Q 1050 1100 950 1150 
Q 875 1100 850 1050 
Q 825 1000 825 925 
Q 825 800 1000 737 
Q 1175 675 1625 675 
Q 2350 675 2612 475 
Q 2875 275 2875 -25 
Q 2875 -425 2487 -612 
Q 2100 -800 1575 -800 
Q 900 -800 575 -625 
Q 250 -450 250 -150 
Q 250 0 375 150 
Q 500 300 700 400 
Q 550 475 462 587 
Q 375 700 375 875 
Q 375 1025 487 1137 
Q 600 1250 750 1325 
Q 625 1450 550 1625 
Q 475 1800 475 2000 
Q 475 2425 762 2700 
Q 1050 2975 1475 2975 
Q 1700 2975 1862 2912 
Q 2025 2850 2150 2725 
Q 2350 2875 2550 2937 
Q 2750 3000 2975 2975 
L 2975 2500 
z
M 1975 2000 
Q 1975 2250 1850 2400 
Q 1725 2550 1475 2550 
Q 1225 2550 1100 2400 
Q 975 2250 975 2000 
Q 975 1750 1100 1600 
Q 1225 1450 1475 1450 
Q 1725 1450 1850 1600 
Q 1975 1750 1975 2000 
z
M 2400 -75 
Q 2400 25 2287 125 
Q 2175 225 1725 225 
Q 1625 225 1450 237 
Q 1275 250 1050 275 
Q 850 200 775 100 
Q 700 0 700 -100 
Q 700 -250 900 -350 
Q 1100 -450 1600 -450 
Q 2025 -450 2212 -337 
Q 2400 -225 2400 -75 
z
" transform="scale(0.015625)"/>
       <path id="SimHei-79" d="M 2900 2925 
L 1750 -100 
Q 1650 -450 1450 -625 
Q 1250 -800 950 -800 
Q 825 -800 712 -787 
Q 600 -775 500 -725 
L 500 -225 
Q 600 -275 700 -300 
Q 800 -325 875 -325 
Q 1075 -325 1150 -262 
Q 1225 -200 1300 25 
L 200 2925 
L 750 2925 
L 1550 725 
L 1575 725 
L 2350 2925 
L 2900 2925 
z
" transform="scale(0.015625)"/>
      </defs>
      <use xlink:href="#SimHei-54"/>
      <use xlink:href="#SimHei-6f" transform="translate(50 0)"/>
      <use xlink:href="#SimHei-74" transform="translate(100 0)"/>
      <use xlink:href="#SimHei-61" transform="translate(150 0)"/>
      <use xlink:href="#SimHei-6c" transform="translate(200 0)"/>
      <use xlink:href="#SimHei-20" transform="translate(250 0)"/>
      <use xlink:href="#SimHei-54" transform="translate(300 0)"/>
      <use xlink:href="#SimHei-61" transform="translate(350 0)"/>
      <use xlink:href="#SimHei-73" transform="translate(400 0)"/>
      <use xlink:href="#SimHei-6b" transform="translate(450 0)"/>
      <use xlink:href="#SimHei-20" transform="translate(500 0)"/>
      <use xlink:href="#SimHei-45" transform="translate(550 0)"/>
      <use xlink:href="#SimHei-6e" transform="translate(600 0)"/>
      <use xlink:href="#SimHei-65" transform="translate(650 0)"/>
      <use xlink:href="#SimHei-72" transform="translate(700 0)"/>
      <use xlink:href="#SimHei-67" transform="translate(750 0)"/>
      <use xlink:href="#SimHei-79" transform="translate(800 0)"/>
     </g>
    </g>
   </g>
   <g id="line2d_33">
    <path d="M 78.485227 184.712725 
L 79.912432 167.88908 
L 81.339636 163.489313 
L 82.76684 148.573433 
L 84.194045 153.925399 
L 85.621249 141.446017 
L 87.048454 143.690637 
L 88.475658 142.524514 
L 89.902862 144.662088 
L 91.330067 146.196908 
L 92.757271 130.757038 
L 94.184475 125.981687 
L 95.61168 124.022631 
L 97.038884 121.247537 
L 98.466089 126.637 
L 99.893293 130.115021 
L 101.320497 124.94584 
L 102.747702 100.72889 
L 104.174906 102.308397 
L 105.60211 99.833117 
L 107.029315 101.144094 
L 108.456519 97.395143 
L 109.883724 101.159156 
L 111.310928 103.012609 
L 112.738132 99.549795 
L 114.165337 100.75682 
L 115.592541 99.035943 
L 117.019745 103.64742 
L 118.44695 98.816986 
L 119.874154 99.851003 
L 121.301359 93.76275 
L 122.728563 95.604851 
L 124.155767 97.168161 
L 125.582972 94.858819 
L 127.010176 97.392746 
L 128.43738 103.349047 
L 131.291789 125.516245 
L 132.718994 135.945553 
L 135.573402 154.980912 
L 138.427811 172.147694 
L 139.855015 180.269223 
L 144.136629 202.010382 
L 148.418242 220.892758 
L 149.845446 226.864748 
L 152.699855 237.129937 
L 156.981468 251.013035 
L 161.263081 262.85256 
L 162.690285 266.710154 
L 164.11749 270.139617 
L 166.971898 276.515939 
L 168.399103 273.653237 
L 169.826307 276.86206 
L 171.253512 279.398449 
L 174.10792 284.976033 
L 175.535125 287.583767 
L 178.389533 292.182866 
L 179.816738 294.159361 
L 182.671147 298.573706 
L 184.098351 299.952762 
L 186.95276 303.647152 
L 191.234373 308.249021 
L 192.661577 309.28092 
L 194.088782 310.596221 
L 198.370395 313.728973 
L 199.797599 314.548319 
L 201.224803 315.734911 
L 205.506417 318.86022 
L 208.360825 320.271672 
L 209.78803 317.177505 
L 211.215234 317.999847 
L 212.642438 318.690715 
L 214.069643 319.966106 
L 216.924052 321.756978 
L 218.351256 322.757738 
L 219.77846 323.124315 
L 225.487278 325.111579 
L 229.768891 326.525278 
L 232.6233 326.775899 
L 235.477708 327.665363 
L 239.759322 328.2571 
L 241.186526 328.703681 
L 242.61373 328.499838 
L 245.468139 329.059171 
L 246.895343 329.507104 
L 249.749752 329.949035 
L 252.604161 330.101969 
L 254.031365 330.424779 
L 256.885774 330.830059 
L 258.312978 330.540695 
L 259.740183 330.610617 
L 261.167387 330.995793 
L 264.021796 331.624764 
L 265.449 331.945479 
L 266.876205 332.489819 
L 269.730613 332.989985 
L 272.585022 332.712478 
L 274.012227 332.995543 
L 275.439431 332.967985 
L 278.29384 333.602704 
L 279.721044 333.762056 
L 281.148248 333.64058 
L 282.575453 333.981739 
L 285.429862 333.762146 
L 288.28427 334.148536 
L 289.711475 333.768709 
L 291.138679 333.741667 
L 292.565883 333.544397 
L 293.993088 333.833555 
L 295.420292 333.889962 
L 296.847497 333.660297 
L 299.701905 333.628485 
L 301.12911 333.309147 
L 302.556314 333.515159 
L 303.983518 333.900498 
L 305.410723 334.111131 
L 308.265132 334.012183 
L 309.692336 334.205203 
L 311.11954 334.602313 
L 312.546745 334.396138 
L 318.255562 335.034838 
L 319.682767 334.938088 
L 321.109971 334.450853 
L 322.537175 334.66276 
L 323.96438 334.344337 
L 326.818788 334.780061 
L 328.245993 334.688275 
L 329.673197 334.815756 
L 331.100402 334.550619 
L 333.95481 334.406801 
L 335.382015 334.495789 
L 336.809219 334.298257 
L 338.236423 334.603234 
L 341.090832 335.023061 
L 343.945241 334.869227 
L 345.372445 334.595782 
L 348.226854 335.09946 
L 349.654058 335.086333 
L 351.081263 335.21201 
L 352.508467 335.064572 
L 353.935672 333.164959 
L 355.362876 333.325712 
L 356.79008 333.095755 
L 358.217285 333.48256 
L 359.644489 333.533528 
L 363.926102 334.552065 
L 366.780511 334.670177 
L 368.207715 334.311778 
L 371.062124 334.55473 
L 372.489328 334.329216 
L 373.916533 334.464405 
L 375.343737 334.475016 
L 378.198146 334.774251 
L 379.62535 335.060371 
L 381.052555 335.028505 
L 382.479759 334.831061 
L 388.188577 335.28166 
L 389.615781 335.122569 
L 393.897394 335.186446 
L 395.324598 334.960579 
L 398.179007 334.796135 
L 402.46062 334.781463 
L 403.887825 334.900535 
L 405.315029 334.894135 
L 406.742233 332.529652 
L 408.169438 332.750336 
L 411.023847 332.50231 
L 412.451051 332.714254 
L 415.30546 332.667512 
L 416.732664 332.561851 
L 418.159868 332.753981 
L 421.014277 332.926272 
L 422.441482 332.817439 
L 423.868686 333.029096 
L 425.29589 332.995804 
L 429.577503 333.588583 
L 432.431912 333.570586 
L 433.859117 333.400375 
L 435.286321 333.039094 
L 436.713525 332.937419 
L 438.14073 332.949904 
L 439.567934 331.450948 
L 440.995138 331.721643 
L 442.422343 331.640837 
L 443.849547 332.027292 
L 445.276752 332.121006 
L 446.703956 332.500945 
L 448.13116 332.658502 
L 449.558365 332.99378 
L 450.985569 333.161682 
L 452.412773 333.462312 
L 453.839978 333.273793 
L 455.267182 333.64209 
L 460.976 333.819796 
L 462.403204 333.90728 
L 463.830408 333.743932 
L 465.257613 333.943925 
L 469.539226 333.710849 
L 470.96643 333.794 
L 478.102452 334.742659 
L 479.529657 334.295519 
L 480.956861 334.360185 
L 482.384065 334.255951 
L 483.81127 333.932008 
L 486.665678 334.301163 
L 489.520087 334.381795 
L 490.947292 334.676725 
L 492.374496 334.529584 
L 493.8017 334.742451 
L 495.228905 334.656337 
L 496.656109 334.962906 
L 498.083313 335.100137 
L 499.510518 334.906422 
L 502.364927 334.842691 
L 503.792131 334.400884 
L 505.219335 334.460257 
L 506.64654 334.377914 
L 509.500948 334.488617 
L 512.355357 334.270425 
L 513.782562 333.802653 
L 515.209766 333.620696 
L 518.064175 334.197774 
L 520.918583 334.495536 
L 523.772992 334.333908 
L 525.200197 333.764453 
L 526.627401 333.754605 
L 529.48181 333.392215 
L 530.909014 333.570898 
L 532.336218 333.632901 
L 533.763423 333.565388 
L 535.190627 333.947071 
L 536.617832 334.017973 
L 538.045036 333.834424 
L 539.47224 333.781539 
L 540.899445 333.934504 
L 542.326649 333.878685 
L 543.753853 334.182478 
L 545.181058 333.825734 
L 546.608262 333.980163 
L 548.035467 333.957239 
L 549.462671 333.799499 
L 550.889875 334.090906 
L 552.31708 334.225919 
L 555.171488 334.158488 
L 556.598693 334.189113 
L 558.025897 334.006901 
L 560.880306 334.482872 
L 562.30751 334.680489 
L 563.734715 334.497345 
L 568.016328 334.616232 
L 569.443532 334.397659 
L 570.870737 334.426513 
L 572.297941 334.33758 
L 573.725145 334.382454 
L 576.579554 334.70769 
L 578.006758 335.036554 
L 579.433963 335.163232 
L 580.861167 335.07944 
L 586.569985 335.317219 
L 587.997189 334.971554 
L 589.424393 334.7568 
L 590.851598 334.758115 
L 592.278802 334.50223 
L 595.133211 334.761886 
L 596.560415 334.353499 
L 602.269233 334.454247 
L 603.696437 334.223664 
L 607.97805 333.84524 
L 609.405255 333.557091 
L 610.832459 332.290147 
L 612.259663 332.397319 
L 617.968481 332.32468 
L 620.82289 332.405143 
L 622.250094 332.840026 
L 633.667729 333.442007 
L 635.094933 333.854655 
L 637.949342 333.882602 
L 639.376546 333.873536 
L 640.803751 334.240734 
L 642.230955 334.416816 
L 643.65816 334.431961 
L 645.085364 334.780069 
L 646.512568 334.659507 
L 647.939773 334.688403 
L 647.939773 334.688403 
" clip-path="url(#p1634549b20)" style="fill: none; stroke: #1f77b4; stroke-width: 1.2; stroke-linecap: square"/>
   </g>
   <g id="line2d_34">
    <path d="M 78.485227 49.908083 
L 79.912432 60.52746 
L 81.339636 58.685751 
L 82.76684 54.846813 
L 84.194045 54.578579 
L 85.621249 56.981723 
L 88.475658 57.557309 
L 89.902862 62.608611 
L 91.330067 72.0876 
L 92.757271 68.981548 
L 94.184475 74.532617 
L 95.61168 54.213865 
L 97.038884 61.253307 
L 98.466089 62.586751 
L 99.893293 60.816902 
L 101.320497 67.771225 
L 102.747702 65.231393 
L 104.174906 67.832233 
L 105.60211 58.866688 
L 107.029315 61.185439 
L 108.456519 63.877788 
L 109.883724 57.22595 
L 111.310928 55.391832 
L 112.738132 51.070362 
L 114.165337 48.838145 
L 115.592541 52.37905 
L 117.019745 58.366599 
L 118.44695 65.853306 
L 119.874154 72.466873 
L 121.301359 77.601664 
L 122.728563 78.260138 
L 124.155767 82.186471 
L 125.582972 89.19259 
L 127.010176 84.716802 
L 128.43738 91.109891 
L 129.864585 98.790432 
L 131.291789 103.127932 
L 132.718994 82.156512 
L 134.146198 73.334494 
L 135.573402 73.002133 
L 137.000607 71.497135 
L 138.427811 75.551461 
L 139.855015 65.222326 
L 141.28222 76.746435 
L 144.136629 102.131171 
L 146.991037 125.141112 
L 149.845446 145.794675 
L 152.699855 164.45696 
L 154.127059 172.840034 
L 155.554263 180.266471 
L 156.981468 188.3269 
L 159.835877 202.795398 
L 162.690285 215.691102 
L 165.544694 227.192086 
L 168.399103 238.056319 
L 171.253512 247.923602 
L 174.10792 256.375779 
L 175.535125 260.187024 
L 176.962329 263.561723 
L 179.816738 271.051564 
L 181.243942 274.140473 
L 182.671147 276.721877 
L 184.098351 278.065745 
L 186.95276 283.629202 
L 188.379964 286.159809 
L 189.807168 285.782379 
L 195.515986 295.012455 
L 196.94319 296.999156 
L 198.370395 299.184784 
L 199.797599 301.064447 
L 201.224803 302.553655 
L 202.652008 304.212986 
L 204.079212 305.568141 
L 205.506417 307.305078 
L 206.933621 308.78421 
L 208.360825 310.03338 
L 211.215234 312.165882 
L 212.642438 313.380347 
L 214.069643 314.292644 
L 215.496847 315.045227 
L 216.924052 316.067457 
L 222.632869 319.132907 
L 224.060073 320.234532 
L 225.487278 320.570041 
L 226.914482 321.457646 
L 229.768891 322.907712 
L 231.196095 323.100673 
L 232.6233 323.510595 
L 234.050504 320.05484 
L 236.904913 321.120502 
L 241.186526 323.314873 
L 242.61373 323.691691 
L 244.040935 324.380893 
L 245.468139 324.91412 
L 248.322548 325.662038 
L 251.176957 326.101237 
L 252.604161 326.759807 
L 255.45857 327.636829 
L 256.885774 327.63404 
L 258.312978 328.066234 
L 259.740183 328.274945 
L 261.167387 328.142367 
L 262.594592 328.379119 
L 265.449 329.462858 
L 266.876205 329.621887 
L 268.303409 330.171571 
L 271.157818 330.221093 
L 272.585022 330.650104 
L 275.439431 330.39993 
L 276.866635 330.88439 
L 278.29384 331.120634 
L 279.721044 331.489945 
L 281.148248 331.385636 
L 282.575453 331.566073 
L 284.002657 331.867525 
L 285.429862 331.840283 
L 286.857066 332.280131 
L 288.28427 332.468658 
L 289.711475 332.143964 
L 292.565883 332.016424 
L 293.993088 332.230633 
L 295.420292 332.037901 
L 298.274701 332.79634 
L 299.701905 332.973535 
L 301.12911 332.824711 
L 306.837927 333.456991 
L 308.265132 333.268177 
L 309.692336 330.320422 
L 315.401153 331.361594 
L 316.828358 331.066211 
L 318.255562 331.320039 
L 319.682767 331.163709 
L 321.109971 331.312253 
L 323.96438 331.169741 
L 325.391584 331.407789 
L 329.673197 332.390134 
L 331.100402 332.34252 
L 332.527606 332.572425 
L 333.95481 332.559166 
L 335.382015 333.089665 
L 336.809219 333.005077 
L 338.236423 333.166187 
L 339.663628 332.810727 
L 342.518037 333.213196 
L 345.372445 333.097262 
L 348.226854 333.23261 
L 349.654058 333.506172 
L 351.081263 333.500683 
L 352.508467 333.628691 
L 355.362876 334.403614 
L 356.79008 334.370988 
L 359.644489 334.053193 
L 362.498898 334.268473 
L 363.926102 334.100819 
L 365.353307 334.394973 
L 366.780511 334.335603 
L 368.207715 334.400161 
L 369.63492 334.291079 
L 371.062124 334.487072 
L 372.489328 334.489524 
L 373.916533 329.773917 
L 376.770942 330.459968 
L 379.62535 330.578962 
L 382.479759 331.149835 
L 383.906963 331.35787 
L 386.761372 331.192764 
L 389.615781 331.824939 
L 392.47019 332.736687 
L 393.897394 332.892345 
L 396.751803 332.730442 
L 399.606212 333.095926 
L 401.033416 332.766966 
L 402.46062 332.821405 
L 405.315029 333.306338 
L 408.169438 333.426138 
L 409.596642 333.606295 
L 411.023847 333.298249 
L 412.451051 333.233028 
L 413.878255 333.480671 
L 415.30546 333.014406 
L 418.159868 332.856585 
L 421.014277 332.805353 
L 423.868686 333.512462 
L 425.29589 333.495709 
L 426.723095 333.761966 
L 429.577503 333.948909 
L 433.859117 334.648364 
L 436.713525 334.353012 
L 438.14073 334.708357 
L 439.567934 334.789846 
L 440.995138 335.051778 
L 445.276752 334.994519 
L 446.703956 335.104733 
L 448.13116 334.771912 
L 450.985569 335.122032 
L 452.412773 335.078452 
L 453.839978 334.602189 
L 456.694387 334.217708 
L 458.121591 334.268483 
L 459.548795 334.494892 
L 460.976 334.384579 
L 462.403204 334.570879 
L 463.830408 334.456544 
L 465.257613 334.654022 
L 466.684817 334.63288 
L 468.112022 334.745971 
L 469.539226 334.680334 
L 470.96643 334.434562 
L 472.393635 334.490108 
L 473.820839 333.750453 
L 475.248043 333.598685 
L 476.675248 333.974041 
L 478.102452 334.212375 
L 479.529657 334.108939 
L 480.956861 334.293573 
L 482.384065 334.603436 
L 485.238474 334.77418 
L 486.665678 334.501894 
L 488.092883 334.894869 
L 489.520087 335.034174 
L 492.374496 334.795508 
L 499.510518 333.879234 
L 500.937722 334.157166 
L 502.364927 332.722556 
L 503.792131 332.953149 
L 505.219335 333.030205 
L 508.073744 332.794555 
L 509.500948 332.988056 
L 513.782562 333.196617 
L 516.63697 333.535352 
L 518.064175 333.638837 
L 519.491379 333.522978 
L 520.918583 333.555757 
L 522.345788 333.770922 
L 526.627401 333.377293 
L 529.48181 332.790668 
L 530.909014 332.754944 
L 533.763423 333.135692 
L 536.617832 333.36856 
L 538.045036 333.239927 
L 542.326649 333.378727 
L 543.753853 333.676448 
L 546.608262 334.034538 
L 548.035467 334.304183 
L 549.462671 334.144813 
L 550.889875 334.371481 
L 552.31708 333.905923 
L 553.744284 333.808729 
L 555.171488 333.948557 
L 556.598693 333.52329 
L 558.025897 333.738515 
L 559.453102 333.425162 
L 560.880306 333.282826 
L 562.30751 333.468772 
L 563.734715 333.109066 
L 565.161919 333.384461 
L 566.589123 333.490294 
L 568.016328 333.787017 
L 569.443532 333.812632 
L 570.870737 333.522206 
L 572.297941 333.854962 
L 578.006758 334.400172 
L 579.433963 334.108815 
L 582.288371 334.115088 
L 586.569985 334.32252 
L 589.424393 334.301317 
L 592.278802 333.716086 
L 593.706006 333.950399 
L 595.133211 334.045106 
L 596.560415 333.87916 
L 597.98762 333.968858 
L 600.842028 333.517408 
L 602.269233 334.118937 
L 603.696437 334.123397 
L 605.123641 333.965501 
L 606.550846 331.562415 
L 612.259663 332.410253 
L 615.114072 332.811843 
L 616.541276 332.757455 
L 617.968481 332.817268 
L 619.395685 333.124797 
L 620.82289 333.181247 
L 623.677298 332.720942 
L 625.104503 332.936932 
L 626.531707 333.27531 
L 627.958911 333.411286 
L 630.81332 333.186915 
L 632.240525 333.420814 
L 633.667729 333.353039 
L 636.522138 333.757073 
L 637.949342 333.799518 
L 640.803751 333.457031 
L 642.230955 333.896101 
L 643.65816 333.970834 
L 645.085364 333.902864 
L 646.512568 332.675532 
L 646.512568 332.675532 
" clip-path="url(#p1634549b20)" style="fill: none; stroke: #ff7f0e; stroke-width: 1.2; stroke-linecap: square"/>
   </g>
   <g id="line2d_35">
    <path d="M 78.485227 52.075752 
L 79.912432 57.448057 
L 81.339636 58.769518 
L 82.76684 70.653553 
L 84.194045 76.86191 
L 85.621249 79.471003 
L 87.048454 87.518271 
L 88.475658 92.061864 
L 89.902862 84.272983 
L 91.330067 93.384134 
L 92.757271 86.620636 
L 95.61168 110.715765 
L 97.038884 121.928911 
L 98.466089 130.22012 
L 101.320497 149.213342 
L 102.747702 155.29463 
L 105.60211 172.881949 
L 108.456519 188.805216 
L 109.883724 195.956665 
L 111.310928 199.750358 
L 114.165337 212.553727 
L 117.019745 224.526461 
L 119.874154 234.912808 
L 121.301359 237.626168 
L 124.155767 247.054336 
L 125.582972 250.737328 
L 127.010176 255.075388 
L 131.291789 266.687538 
L 134.146198 272.815058 
L 135.573402 275.915194 
L 139.855015 283.997169 
L 141.28222 286.649945 
L 145.563833 293.371893 
L 148.418242 297.489767 
L 149.845446 299.362511 
L 151.27265 297.617116 
L 154.127059 301.809846 
L 155.554263 303.299627 
L 159.835877 308.28481 
L 162.690285 310.256948 
L 164.11749 311.539776 
L 165.544694 312.630281 
L 166.971898 310.405737 
L 171.253512 313.859865 
L 172.680716 314.589171 
L 174.10792 315.836915 
L 175.535125 316.747134 
L 178.389533 318.379641 
L 182.671147 321.017571 
L 184.098351 321.43474 
L 185.525555 322.256545 
L 186.95276 319.214118 
L 188.379964 320.190864 
L 191.234373 321.19092 
L 195.515986 323.115226 
L 199.797599 325.617506 
L 201.224803 325.44772 
L 202.652008 325.648099 
L 204.079212 325.668523 
L 206.933621 326.570783 
L 209.78803 327.526196 
L 211.215234 328.096372 
L 212.642438 328.453455 
L 215.496847 328.799903 
L 216.924052 329.273788 
L 218.351256 329.097092 
L 219.77846 329.456278 
L 221.205665 330.119689 
L 222.632869 330.290313 
L 224.060073 330.25015 
L 226.914482 330.511475 
L 228.341687 330.881756 
L 229.768891 330.950298 
L 231.196095 331.272434 
L 232.6233 331.441842 
L 234.050504 331.889416 
L 235.477708 332.056909 
L 236.904913 332.358695 
L 238.332117 332.368263 
L 242.61373 332.883238 
L 244.040935 332.919027 
L 245.468139 332.556119 
L 246.895343 332.687819 
L 249.749752 333.412255 
L 251.176957 333.168475 
L 254.031365 333.677316 
L 255.45857 333.427526 
L 256.885774 333.494324 
L 259.740183 333.271271 
L 261.167387 333.294113 
L 262.594592 333.605446 
L 264.021796 333.692354 
L 265.449 333.572751 
L 266.876205 333.600058 
L 268.303409 333.313259 
L 269.730613 333.341457 
L 271.157818 332.957098 
L 272.585022 332.929386 
L 275.439431 333.558442 
L 278.29384 333.602965 
L 279.721044 333.946063 
L 281.148248 333.901276 
L 282.575453 333.625524 
L 284.002657 333.723693 
L 285.429862 333.670266 
L 286.857066 333.920711 
L 296.847497 333.765583 
L 298.274701 333.921164 
L 299.701905 333.832647 
L 302.556314 333.988133 
L 303.983518 334.282381 
L 306.837927 334.18454 
L 308.265132 334.393527 
L 309.692336 334.041651 
L 311.11954 334.136923 
L 312.546745 332.271477 
L 313.973949 332.656492 
L 315.401153 332.317147 
L 316.828358 332.392515 
L 318.255562 332.706069 
L 319.682767 332.756683 
L 321.109971 330.553637 
L 322.537175 330.687235 
L 325.391584 330.694285 
L 326.818788 331.087131 
L 328.245993 330.881387 
L 329.673197 331.180162 
L 331.100402 331.346647 
L 332.527606 331.648598 
L 333.95481 331.774161 
L 335.382015 331.671865 
L 338.236423 332.374595 
L 341.090832 332.382306 
L 342.518037 332.096608 
L 345.372445 332.422573 
L 348.226854 332.863717 
L 349.654058 333.226078 
L 351.081263 333.232144 
L 353.935672 333.527857 
L 356.79008 333.514225 
L 358.217285 333.426993 
L 359.644489 333.624912 
L 361.071693 333.453553 
L 363.926102 333.574638 
L 365.353307 333.026447 
L 366.780511 333.532033 
L 368.207715 333.502818 
L 372.489328 334.170021 
L 373.916533 334.275294 
L 375.343737 334.09448 
L 378.198146 334.42565 
L 379.62535 334.573743 
L 381.052555 334.082859 
L 382.479759 334.071927 
L 383.906963 334.206492 
L 385.334168 333.947853 
L 388.188577 334.536068 
L 393.897394 334.967701 
L 395.324598 333.837205 
L 396.751803 333.405849 
L 398.179007 333.244031 
L 401.033416 333.498294 
L 403.887825 333.975537 
L 405.315029 333.80086 
L 406.742233 334.389099 
L 408.169438 334.120849 
L 409.596642 334.183782 
L 411.023847 331.962975 
L 412.451051 331.874406 
L 413.878255 332.097491 
L 415.30546 331.930685 
L 416.732664 331.91193 
L 419.587073 332.686191 
L 421.014277 333.010898 
L 422.441482 332.858065 
L 423.868686 333.061052 
L 425.29589 332.589545 
L 426.723095 332.602397 
L 428.150299 332.731832 
L 429.577503 332.640026 
L 435.286321 332.911874 
L 438.14073 333.439523 
L 439.567934 333.443341 
L 440.995138 333.865669 
L 442.422343 334.004549 
L 443.849547 333.986137 
L 445.276752 333.832688 
L 446.703956 333.931997 
L 448.13116 333.522244 
L 449.558365 333.582499 
L 450.985569 333.805572 
L 452.412773 333.548143 
L 453.839978 333.873699 
L 455.267182 333.720702 
L 456.694387 333.899386 
L 458.121591 333.937666 
L 459.548795 333.602849 
L 465.257613 334.341354 
L 466.684817 334.205252 
L 473.820839 334.447439 
L 475.248043 334.372554 
L 476.675248 334.445243 
L 478.102452 334.683229 
L 479.529657 334.496707 
L 483.81127 334.937727 
L 485.238474 334.888406 
L 486.665678 334.546908 
L 492.374496 334.897415 
L 493.8017 334.776055 
L 496.656109 335.219162 
L 505.219335 335.103484 
L 506.64654 329.833137 
L 508.073744 329.718581 
L 516.63697 331.69734 
L 522.345788 332.187964 
L 523.772992 332.572824 
L 525.200197 332.524876 
L 526.627401 332.651274 
L 528.054605 332.526079 
L 532.336218 332.647936 
L 535.190627 332.173756 
L 538.045036 332.590717 
L 540.899445 332.691311 
L 542.326649 332.648042 
L 543.753853 332.724191 
L 546.608262 333.325123 
L 549.462671 333.686132 
L 552.31708 333.863174 
L 558.025897 334.717911 
L 559.453102 334.673163 
L 560.880306 334.7586 
L 563.734715 334.581162 
L 569.443532 335.087216 
L 570.870737 335.006129 
L 575.15235 335.514734 
L 576.579554 335.241815 
L 578.006758 334.354163 
L 579.433963 334.219404 
L 580.861167 334.321707 
L 585.14278 334.125685 
L 589.424393 334.752797 
L 590.851598 332.276653 
L 593.706006 332.345273 
L 595.133211 332.677765 
L 596.560415 332.142733 
L 599.414824 332.331829 
L 600.842028 332.429703 
L 602.269233 332.369972 
L 603.696437 332.096608 
L 605.123641 332.031094 
L 606.550846 332.344091 
L 607.97805 332.065572 
L 610.832459 332.647423 
L 612.259663 332.520541 
L 613.686868 332.75359 
L 615.114072 331.017528 
L 619.395685 331.447035 
L 620.82289 331.535473 
L 622.250094 331.756689 
L 623.677298 328.220849 
L 626.531707 328.862017 
L 627.958911 328.824387 
L 629.386116 329.423685 
L 632.240525 329.89484 
L 637.949342 330.621404 
L 642.230955 331.808762 
L 643.65816 328.977577 
L 645.085364 329.109632 
L 646.512568 329.497585 
L 646.512568 329.497585 
" clip-path="url(#p1634549b20)" style="fill: none; stroke: #2ca02c; stroke-width: 1.2; stroke-linecap: square"/>
   </g>
   <g id="line2d_36">
    <path d="M 78.485227 52.075752 
L 79.912432 57.448057 
L 82.76684 74.855019 
L 84.194045 86.974888 
L 85.621249 98.136245 
L 87.048454 100.990183 
L 88.475658 110.184219 
L 89.902862 117.551069 
L 94.184475 147.612638 
L 95.61168 154.823909 
L 97.038884 163.802701 
L 102.747702 193.991369 
L 105.60211 207.650193 
L 109.883724 225.520711 
L 111.310928 231.154766 
L 112.738132 234.269787 
L 115.592541 243.844775 
L 117.019745 248.602968 
L 119.874154 257.088085 
L 124.155767 267.752681 
L 127.010176 273.995136 
L 131.291789 282.334088 
L 135.573402 289.756252 
L 138.427811 294.33195 
L 141.28222 298.782072 
L 142.709424 300.193867 
L 144.136629 301.909936 
L 145.563833 303.87571 
L 148.418242 306.904742 
L 149.845446 308.252009 
L 151.27265 305.2081 
L 152.699855 306.707438 
L 155.554263 309.371833 
L 156.981468 310.414501 
L 159.835877 312.22309 
L 161.263081 311.692232 
L 165.544694 314.811122 
L 166.971898 315.587999 
L 168.399103 316.140638 
L 169.826307 317.136028 
L 171.253512 317.936228 
L 176.962329 321.632913 
L 179.816738 322.994781 
L 181.243942 323.753174 
L 189.807168 326.448289 
L 191.234373 326.720353 
L 192.661577 327.106111 
L 194.088782 327.328054 
L 196.94319 328.090701 
L 198.370395 328.721668 
L 201.224803 329.311637 
L 202.652008 329.146656 
L 204.079212 329.638435 
L 205.506417 329.967424 
L 209.78803 330.61287 
L 214.069643 331.968153 
L 215.496847 332.535147 
L 216.924052 332.91625 
L 218.351256 332.979341 
L 221.205665 332.869429 
L 222.632869 332.805939 
L 224.060073 333.015935 
L 225.487278 323.545602 
L 226.914482 324.216899 
L 228.341687 324.350332 
L 231.196095 325.748252 
L 235.477708 326.952821 
L 241.186526 327.992347 
L 242.61373 328.102708 
L 245.468139 328.845444 
L 246.895343 328.853602 
L 248.322548 329.211851 
L 249.749752 329.754842 
L 251.176957 329.929597 
L 252.604161 330.282776 
L 255.45857 330.237626 
L 258.312978 330.957743 
L 261.167387 330.871569 
L 262.594592 331.375714 
L 265.449 332.03185 
L 266.876205 329.960349 
L 268.303409 330.193707 
L 269.730613 330.133428 
L 271.157818 330.448202 
L 272.585022 330.564606 
L 274.012227 330.831599 
L 275.439431 331.361974 
L 276.866635 331.285985 
L 281.148248 331.758489 
L 282.575453 331.432609 
L 284.002657 331.7789 
L 285.429862 331.968191 
L 288.28427 332.490942 
L 289.711475 332.647414 
L 291.138679 332.493292 
L 292.565883 332.814013 
L 295.420292 332.905978 
L 296.847497 330.168543 
L 298.274701 329.817356 
L 299.701905 330.102361 
L 301.12911 330.269102 
L 302.556314 330.623461 
L 303.983518 330.672921 
L 308.265132 331.519731 
L 309.692336 331.294492 
L 311.11954 331.637948 
L 312.546745 332.145641 
L 313.973949 332.080029 
L 316.828358 332.483368 
L 318.255562 332.473636 
L 319.682767 332.639487 
L 321.109971 332.989605 
L 322.537175 332.64952 
L 323.96438 332.831119 
L 326.818788 332.989991 
L 328.245993 333.194536 
L 329.673197 332.97162 
L 331.100402 333.120052 
L 333.95481 333.150255 
L 335.382015 333.358629 
L 338.236423 333.455152 
L 341.090832 332.968355 
L 342.518037 333.079881 
L 343.945241 332.959099 
L 345.372445 332.485139 
L 346.79965 332.729209 
L 348.226854 333.15503 
L 349.654058 333.359069 
L 351.081263 332.87428 
L 352.508467 332.700706 
L 355.362876 332.997174 
L 356.79008 333.009277 
L 358.217285 333.175083 
L 362.498898 333.001391 
L 365.353307 332.68528 
L 369.63492 333.236808 
L 371.062124 332.997233 
L 372.489328 333.131375 
L 373.916533 333.512448 
L 375.343737 333.41895 
L 376.770942 333.125814 
L 378.198146 333.266886 
L 379.62535 332.899591 
L 381.052555 333.124029 
L 382.479759 332.815086 
L 385.334168 332.964233 
L 386.761372 333.389835 
L 389.615781 333.623222 
L 392.47019 333.502816 
L 398.179007 333.922224 
L 402.46062 333.661287 
L 406.742233 334.346443 
L 408.169438 334.808013 
L 413.878255 335.313841 
L 416.732664 335.444155 
L 418.159868 335.186595 
L 419.587073 335.492988 
L 421.014277 335.265624 
L 423.868686 335.24354 
L 425.29589 335.437103 
L 429.577503 335.346469 
L 433.859117 335.091617 
L 435.286321 334.853675 
L 439.567934 335.081279 
L 440.995138 335.314156 
L 442.422343 334.98828 
L 443.849547 335.305546 
L 445.276752 335.181459 
L 446.703956 334.884746 
L 448.13116 334.711069 
L 452.412773 335.218935 
L 453.839978 335.005374 
L 455.267182 334.92835 
L 458.121591 335.123786 
L 459.548795 334.848545 
L 465.257613 334.225786 
L 466.684817 334.614714 
L 468.112022 334.271635 
L 469.539226 334.432082 
L 470.96643 334.399399 
L 472.393635 334.678836 
L 473.820839 334.703707 
L 475.248043 334.915127 
L 476.675248 334.687723 
L 479.529657 334.499019 
L 480.956861 334.763398 
L 482.384065 334.547472 
L 483.81127 334.722206 
L 485.238474 334.751026 
L 486.665678 334.929259 
L 489.520087 334.773149 
L 492.374496 335.122812 
L 493.8017 335.013245 
L 495.228905 335.095012 
L 496.656109 334.837853 
L 498.083313 334.811029 
L 500.937722 334.588714 
L 503.792131 334.924791 
L 505.219335 334.755788 
L 506.64654 334.85092 
L 508.073744 334.637408 
L 509.500948 334.300677 
L 510.928153 334.398941 
L 512.355357 334.326611 
L 515.209766 334.911297 
L 519.491379 334.81014 
L 520.918583 335.032826 
L 522.345788 334.786869 
L 525.200197 334.869404 
L 526.627401 334.698498 
L 528.054605 334.699028 
L 529.48181 334.427307 
L 530.909014 334.586901 
L 533.763423 334.688908 
L 536.617832 334.045052 
L 538.045036 334.186115 
L 539.47224 331.783857 
L 546.608262 332.803231 
L 548.035467 329.482823 
L 550.889875 330.242786 
L 552.31708 330.511331 
L 553.744284 330.408623 
L 558.025897 331.52529 
L 560.880306 331.501307 
L 562.30751 331.158371 
L 563.734715 331.081497 
L 566.589123 331.853688 
L 568.016328 331.849431 
L 569.443532 332.303085 
L 570.870737 332.569479 
L 572.297941 332.154491 
L 573.725145 332.567528 
L 575.15235 332.733084 
L 576.579554 332.381701 
L 580.861167 332.296269 
L 585.14278 332.677276 
L 586.569985 332.473227 
L 587.997189 332.72978 
L 589.424393 332.814548 
L 590.851598 332.439369 
L 593.706006 332.838169 
L 597.98762 332.912154 
L 599.414824 332.578009 
L 602.269233 332.990965 
L 603.696437 328.308035 
L 605.123641 328.671446 
L 606.550846 328.86483 
L 607.97805 329.396204 
L 609.405255 329.70592 
L 610.832459 329.836576 
L 612.259663 328.0722 
L 613.686868 328.156681 
L 616.541276 328.79765 
L 617.968481 328.994911 
L 619.395685 328.826709 
L 620.82289 329.357603 
L 623.677298 329.86255 
L 625.104503 330.415976 
L 626.531707 328.761504 
L 633.667729 329.574078 
L 635.094933 329.613509 
L 637.949342 330.278112 
L 639.376546 330.490339 
L 642.230955 331.277459 
L 643.65816 331.242718 
L 645.085364 331.569391 
L 646.512568 331.603373 
L 646.512568 331.603373 
" clip-path="url(#p1634549b20)" style="fill: none; stroke: #9b8ac9; stroke-width: 1.2; stroke-linecap: square"/>
   </g>
   <g id="patch_3">
    <path d="M 50.0125 349.8636 
L 50.0125 34.5036 
" style="fill: none; stroke: #000000; stroke-width: 0.8; stroke-linejoin: miter; stroke-linecap: square"/>
   </g>
   <g id="patch_4">
    <path d="M 676.4125 349.8636 
L 676.4125 34.5036 
" style="fill: none; stroke: #000000; stroke-width: 0.8; stroke-linejoin: miter; stroke-linecap: square"/>
   </g>
   <g id="patch_5">
    <path d="M 50.0125 349.8636 
L 676.4125 349.8636 
" style="fill: none; stroke: #000000; stroke-width: 0.8; stroke-linejoin: miter; stroke-linecap: square"/>
   </g>
   <g id="patch_6">
    <path d="M 50.0125 34.5036 
L 676.4125 34.5036 
" style="fill: none; stroke: #000000; stroke-width: 0.8; stroke-linejoin: miter; stroke-linecap: square"/>
   </g>
   <g id="legend_1">
    <g id="patch_7">
     <path d="M 50.0125 31.35 
L 676.4125 31.35 
L 676.4125 7.2 
L 50.0125 7.2 
z
" style="fill: #ffffff; stroke: #808080; stroke-width: 0.8; stroke-linejoin: miter"/>
    </g>
    <g id="line2d_37">
     <path d="M 56.3125 18.4 
L 70.3125 18.4 
L 84.3125 18.4 
" style="fill: none; stroke: #1f77b4; stroke-width: 1.2; stroke-linecap: square"/>
    </g>
    <g id="text_19">
     <!-- GCN-DDQN -->
     <g transform="translate(92.7125 23.3) scale(0.14 -0.14)">
      <defs>
       <path id="SimHei-47" d="M 2850 75 
L 2425 75 
L 2350 425 
Q 2250 275 2037 175 
Q 1825 75 1575 75 
Q 1050 75 637 562 
Q 225 1050 225 2125 
Q 225 3300 600 3875 
Q 975 4450 1625 4450 
Q 2200 4450 2525 4025 
Q 2850 3600 2850 2925 
L 2300 2925 
Q 2300 3450 2125 3712 
Q 1950 3975 1625 3975 
Q 1225 3975 1025 3562 
Q 825 3150 825 2175 
Q 825 1250 1075 900 
Q 1325 550 1650 550 
Q 1975 550 2162 787 
Q 2350 1025 2350 1525 
L 2350 1800 
L 1575 1800 
L 1575 2275 
L 2850 2275 
L 2850 75 
z
" transform="scale(0.015625)"/>
       <path id="SimHei-43" d="M 2975 1825 
Q 2950 875 2575 475 
Q 2200 75 1675 75 
Q 1075 75 650 562 
Q 225 1050 225 2125 
Q 225 3300 637 3875 
Q 1050 4450 1700 4450 
Q 2250 4450 2612 4037 
Q 2975 3625 2950 2875 
L 2400 2875 
Q 2400 3425 2225 3700 
Q 2050 3975 1700 3975 
Q 1300 3975 1062 3562 
Q 825 3150 825 2175 
Q 825 1275 1062 912 
Q 1300 550 1675 550 
Q 1950 550 2175 812 
Q 2400 1075 2400 1825 
L 2975 1825 
z
" transform="scale(0.015625)"/>
       <path id="SimHei-4e" d="M 2850 125 
L 2225 125 
L 850 3225 
L 825 3225 
L 825 125 
L 250 125 
L 250 4400 
L 875 4400 
L 2250 1300 
L 2275 1300 
L 2275 4400 
L 2850 4400 
L 2850 125 
z
" transform="scale(0.015625)"/>
       <path id="SimHei-2d" d="M 2975 2125 
L 125 2125 
L 125 2525 
L 2975 2525 
L 2975 2125 
z
" transform="scale(0.015625)"/>
       <path id="SimHei-44" d="M 2925 2250 
Q 2925 1100 2437 612 
Q 1950 125 1125 125 
L 275 125 
L 275 4400 
L 1125 4400 
Q 2050 4400 2487 3900 
Q 2925 3400 2925 2250 
z
M 2325 2250 
Q 2325 3175 2025 3550 
Q 1725 3925 1125 3925 
L 850 3925 
L 850 600 
L 1125 600 
Q 1725 600 2025 962 
Q 2325 1325 2325 2250 
z
" transform="scale(0.015625)"/>
       <path id="SimHei-51" d="M 2950 2275 
Q 2950 1675 2862 1262 
Q 2775 850 2575 600 
L 2775 225 
L 2375 -200 
L 2150 225 
Q 2050 150 1900 112 
Q 1750 75 1575 75 
Q 925 75 550 587 
Q 175 1100 175 2275 
Q 175 3450 550 3950 
Q 925 4450 1575 4450 
Q 2225 4450 2587 3950 
Q 2950 3450 2950 2275 
z
M 2350 2275 
Q 2350 3325 2125 3650 
Q 1900 3975 1575 3975 
Q 1250 3975 1012 3650 
Q 775 3325 775 2275 
Q 775 1225 1012 887 
Q 1250 550 1575 550 
Q 1700 550 1800 587 
Q 1900 625 1950 675 
L 1550 1450 
L 1900 1875 
L 2250 1200 
Q 2300 1450 2325 1650 
Q 2350 1850 2350 2275 
z
" transform="scale(0.015625)"/>
      </defs>
      <use xlink:href="#SimHei-47"/>
      <use xlink:href="#SimHei-43" transform="translate(50 0)"/>
      <use xlink:href="#SimHei-4e" transform="translate(100 0)"/>
      <use xlink:href="#SimHei-2d" transform="translate(150 0)"/>
      <use xlink:href="#SimHei-44" transform="translate(200 0)"/>
      <use xlink:href="#SimHei-44" transform="translate(250 0)"/>
      <use xlink:href="#SimHei-51" transform="translate(300 0)"/>
      <use xlink:href="#SimHei-4e" transform="translate(350 0)"/>
     </g>
    </g>
    <g id="line2d_38">
     <path d="M 223.1125 18.4 
L 237.1125 18.4 
L 251.1125 18.4 
" style="fill: none; stroke: #ff7f0e; stroke-width: 1.2; stroke-linecap: square"/>
    </g>
    <g id="text_20">
     <!-- GCN-D3QN -->
     <g transform="translate(259.5125 23.3) scale(0.14 -0.14)">
      <use xlink:href="#SimHei-47"/>
      <use xlink:href="#SimHei-43" transform="translate(50 0)"/>
      <use xlink:href="#SimHei-4e" transform="translate(100 0)"/>
      <use xlink:href="#SimHei-2d" transform="translate(150 0)"/>
      <use xlink:href="#SimHei-44" transform="translate(200 0)"/>
      <use xlink:href="#SimHei-33" transform="translate(250 0)"/>
      <use xlink:href="#SimHei-51" transform="translate(300 0)"/>
      <use xlink:href="#SimHei-4e" transform="translate(350 0)"/>
     </g>
    </g>
    <g id="line2d_39">
     <path d="M 389.9125 18.4 
L 403.9125 18.4 
L 417.9125 18.4 
" style="fill: none; stroke: #2ca02c; stroke-width: 1.2; stroke-linecap: square"/>
    </g>
    <g id="text_21">
     <!-- GAT-LSTM-DDQN -->
     <g transform="translate(426.3125 23.3) scale(0.14 -0.14)">
      <defs>
       <path id="SimHei-41" d="M 3075 125 
L 2475 125 
L 2125 1450 
L 1025 1450 
L 675 125 
L 75 125 
L 1325 4450 
L 1825 4450 
L 3075 125 
z
M 2000 1925 
L 1600 3450 
L 1550 3450 
L 1150 1925 
L 2000 1925 
z
" transform="scale(0.015625)"/>
       <path id="SimHei-4c" d="M 2900 125 
L 300 125 
L 300 4400 
L 875 4400 
L 875 600 
L 2900 600 
L 2900 125 
z
" transform="scale(0.015625)"/>
       <path id="SimHei-53" d="M 2900 1325 
Q 2900 750 2537 412 
Q 2175 75 1550 75 
Q 925 75 575 425 
Q 225 775 225 1300 
L 225 1475 
L 800 1475 
L 800 1325 
Q 800 950 1025 750 
Q 1250 550 1550 550 
Q 1950 550 2137 762 
Q 2325 975 2325 1275 
Q 2325 1525 2100 1737 
Q 1875 1950 1450 2125 
Q 850 2350 587 2625 
Q 325 2900 325 3275 
Q 325 3800 687 4125 
Q 1050 4450 1550 4450 
Q 2200 4450 2487 4062 
Q 2775 3675 2775 3225 
L 2200 3225 
Q 2225 3500 2050 3725 
Q 1875 3950 1550 3950 
Q 1250 3950 1075 3787 
Q 900 3625 900 3350 
Q 900 3125 1037 2962 
Q 1175 2800 1750 2575 
Q 2300 2350 2600 2037 
Q 2900 1725 2900 1325 
z
" transform="scale(0.015625)"/>
       <path id="SimHei-4d" d="M 2925 125 
L 2425 125 
L 2425 3175 
L 2375 3175 
L 1775 125 
L 1375 125 
L 775 3175 
L 725 3175 
L 725 125 
L 225 125 
L 225 4400 
L 1000 4400 
L 1550 1575 
L 1600 1575 
L 2150 4400 
L 2925 4400 
L 2925 125 
z
" transform="scale(0.015625)"/>
      </defs>
      <use xlink:href="#SimHei-47"/>
      <use xlink:href="#SimHei-41" transform="translate(50 0)"/>
      <use xlink:href="#SimHei-54" transform="translate(100 0)"/>
      <use xlink:href="#SimHei-2d" transform="translate(150 0)"/>
      <use xlink:href="#SimHei-4c" transform="translate(200 0)"/>
      <use xlink:href="#SimHei-53" transform="translate(250 0)"/>
      <use xlink:href="#SimHei-54" transform="translate(300 0)"/>
      <use xlink:href="#SimHei-4d" transform="translate(350 0)"/>
      <use xlink:href="#SimHei-2d" transform="translate(400 0)"/>
      <use xlink:href="#SimHei-44" transform="translate(450 0)"/>
      <use xlink:href="#SimHei-44" transform="translate(500 0)"/>
      <use xlink:href="#SimHei-51" transform="translate(550 0)"/>
      <use xlink:href="#SimHei-4e" transform="translate(600 0)"/>
     </g>
    </g>
    <g id="line2d_40">
     <path d="M 591.7125 18.4 
L 605.7125 18.4 
L 619.7125 18.4 
" style="fill: none; stroke: #9b8ac9; stroke-width: 1.2; stroke-linecap: square"/>
    </g>
    <g id="text_22">
     <!-- GLDVTO -->
     <g transform="translate(628.1125 23.3) scale(0.14 -0.14)">
      <defs>
       <path id="SimHei-56" d="M 3050 4400 
L 1800 75 
L 1300 75 
L 50 4400 
L 650 4400 
L 1525 1125 
L 1575 1125 
L 2450 4400 
L 3050 4400 
z
" transform="scale(0.015625)"/>
       <path id="SimHei-4f" d="M 2950 2275 
Q 2950 1100 2587 587 
Q 2225 75 1575 75 
Q 925 75 550 587 
Q 175 1100 175 2275 
Q 175 3450 550 3950 
Q 925 4450 1575 4450 
Q 2225 4450 2587 3950 
Q 2950 3450 2950 2275 
z
M 2350 2275 
Q 2350 3325 2125 3650 
Q 1900 3975 1575 3975 
Q 1250 3975 1012 3650 
Q 775 3325 775 2275 
Q 775 1225 1012 887 
Q 1250 550 1575 550 
Q 1900 550 2125 887 
Q 2350 1225 2350 2275 
z
" transform="scale(0.015625)"/>
      </defs>
      <use xlink:href="#SimHei-47"/>
      <use xlink:href="#SimHei-4c" transform="translate(50 0)"/>
      <use xlink:href="#SimHei-44" transform="translate(100 0)"/>
      <use xlink:href="#SimHei-56" transform="translate(150 0)"/>
      <use xlink:href="#SimHei-54" transform="translate(200 0)"/>
      <use xlink:href="#SimHei-4f" transform="translate(250 0)"/>
     </g>
    </g>
   </g>
  </g>
 </g>
 <defs>
  <clipPath id="p1634549b20">
   <rect x="50.0125" y="34.5036" width="626.4" height="315.36"/>
  </clipPath>
 </defs>
</svg>
