<?xml version="1.0" encoding="utf-8" standalone="no"?>
<!DOCTYPE svg PUBLIC "-//W3C//DTD SVG 1.1//EN"
  "http://www.w3.org/Graphics/SVG/1.1/DTD/svg11.dtd">
<svg xmlns:xlink="http://www.w3.org/1999/xlink" width="689.6125pt" height="391.6261pt" viewBox="0 0 689.6125 391.6261" xmlns="http://www.w3.org/2000/svg" version="1.1">
 <metadata>
  <rdf:RDF xmlns:dc="http://purl.org/dc/elements/1.1/" xmlns:cc="http://creativecommons.org/ns#" xmlns:rdf="http://www.w3.org/1999/02/22-rdf-syntax-ns#">
   <cc:Work>
    <dc:type rdf:resource="http://purl.org/dc/dcmitype/StillImage"/>
    <dc:date>2026-07-13T18:57:42.729086</dc:date>
    <dc:format>image/svg+xml</dc:format>
    <dc:creator>
     <cc:Agent>
      <dc:title>Matplotlib v3.10.7, https://matplotlib.org/</dc:title>
     </cc:Agent>
    </dc:creator>
   </cc:Work>
  </rdf:RDF>
 </metadata>
 <defs>
  <style type="text/css">*{stroke-linejoin: round; stroke-linecap: butt}</style>
 </defs>
 <g id="figure_1">
  <g id="patch_1">
   <path d="M 0 391.6261 
L 689.6125 391.6261 
L 689.6125 0 
L 0 0 
z
" style="fill: #ffffff"/>
  </g>
  <g id="axes_1">
   <g id="patch_2">
    <path d="M 56.0125 349.8636 
L 682.4125 349.8636 
L 682.4125 34.5036 
L 56.0125 34.5036 
z
" style="fill: #ffffff"/>
   </g>
   <g id="matplotlib.axis_1">
    <g id="xtick_1">
     <g id="line2d_1">
      <path d="M 84.485227 349.8636 
L 84.485227 34.5036 
" clip-path="url(#p92ee5a6cfd)" style="fill: none; stroke-dasharray: 2.22,0.96; stroke-dashoffset: 0; stroke: #b0b0b0; stroke-opacity: 0.25; stroke-width: 0.6"/>
     </g>
     <g id="line2d_2">
      <defs>
       <path id="mb4dcfab3d8" d="M 0 0 
L 0 3.5 
" style="stroke: #000000; stroke-width: 0.8"/>
      </defs>
      <g>
       <use xlink:href="#mb4dcfab3d8" x="84.485227" y="349.8636" style="stroke: #000000; stroke-width: 0.8"/>
      </g>
     </g>
     <g id="text_1">
      <!-- 0 -->
      <g transform="translate(81.485227 365.1136) scale(0.12 -0.12)">
       <defs>
        <path id="SimHei-30" d="M 225 2537 
Q 250 3200 412 3587 
Q 575 3975 875 4225 
Q 1175 4475 1612 4475 
Q 2050 4475 2375 4112 
Q 2700 3750 2800 3200 
Q 2900 2650 2862 1937 
Q 2825 1225 2612 775 
Q 2400 325 1975 150 
Q 1550 -25 1125 187 
Q 700 400 525 750 
Q 350 1100 275 1487 
Q 200 1875 225 2537 
z
M 750 2687 
Q 675 2000 800 1462 
Q 925 925 1212 700 
Q 1500 475 1800 612 
Q 2100 750 2237 1162 
Q 2375 1575 2375 2062 
Q 2375 2550 2337 2950 
Q 2300 3350 2112 3675 
Q 1925 4000 1612 4012 
Q 1300 4025 1062 3700 
Q 825 3375 750 2687 
z
" transform="scale(0.015625)"/>
       </defs>
       <use xlink:href="#SimHei-30"/>
      </g>
     </g>
    </g>
    <g id="xtick_2">
     <g id="line2d_3">
      <path d="M 155.845446 349.8636 
L 155.845446 34.5036 
" clip-path="url(#p92ee5a6cfd)" style="fill: none; stroke-dasharray: 2.22,0.96; stroke-dashoffset: 0; stroke: #b0b0b0; stroke-opacity: 0.25; stroke-width: 0.6"/>
     </g>
     <g id="line2d_4">
      <g>
       <use xlink:href="#mb4dcfab3d8" x="155.845446" y="349.8636" style="stroke: #000000; stroke-width: 0.8"/>
      </g>
     </g>
     <g id="text_2">
      <!-- 50 -->
      <g transform="translate(149.845446 365.1136) scale(0.12 -0.12)">
       <defs>
        <path id="SimHei-35" d="M 550 1325 
Q 725 650 1150 575 
Q 1575 500 1837 662 
Q 2100 825 2212 1087 
Q 2325 1350 2312 1675 
Q 2300 2000 2137 2225 
Q 1975 2450 1725 2525 
Q 1475 2600 1162 2525 
Q 850 2450 650 2175 
L 225 2225 
Q 275 2375 700 4375 
L 2675 4375 
L 2675 3925 
L 1075 3925 
Q 950 3250 825 2850 
Q 1200 3025 1525 3012 
Q 1850 3000 2150 2862 
Q 2450 2725 2587 2487 
Q 2725 2250 2787 2012 
Q 2850 1775 2837 1500 
Q 2825 1225 2725 937 
Q 2625 650 2425 462 
Q 2225 275 1937 162 
Q 1650 50 1275 75 
Q 900 100 562 350 
Q 225 600 100 1200 
L 550 1325 
z
" transform="scale(0.015625)"/>
       </defs>
       <use xlink:href="#SimHei-35"/>
       <use xlink:href="#SimHei-30" transform="translate(50 0)"/>
      </g>
     </g>
    </g>
    <g id="xtick_3">
     <g id="line2d_5">
      <path d="M 227.205665 349.8636 
L 227.205665 34.5036 
" clip-path="url(#p92ee5a6cfd)" style="fill: none; stroke-dasharray: 2.22,0.96; stroke-dashoffset: 0; stroke: #b0b0b0; stroke-opacity: 0.25; stroke-width: 0.6"/>
     </g>
     <g id="line2d_6">
      <g>
       <use xlink:href="#mb4dcfab3d8" x="227.205665" y="349.8636" style="stroke: #000000; stroke-width: 0.8"/>
      </g>
     </g>
     <g id="text_3">
      <!-- 100 -->
      <g transform="translate(218.205665 365.1136) scale(0.12 -0.12)">
       <defs>
        <path id="SimHei-31" d="M 1400 3600 
Q 1075 3275 575 2975 
L 575 3450 
Q 1200 3875 1600 4450 
L 1900 4450 
L 1900 150 
L 1400 150 
L 1400 3600 
z
" transform="scale(0.015625)"/>
       </defs>
       <use xlink:href="#SimHei-31"/>
       <use xlink:href="#SimHei-30" transform="translate(50 0)"/>
       <use xlink:href="#SimHei-30" transform="translate(100 0)"/>
      </g>
     </g>
    </g>
    <g id="xtick_4">
     <g id="line2d_7">
      <path d="M 298.565883 349.8636 
L 298.565883 34.5036 
" clip-path="url(#p92ee5a6cfd)" style="fill: none; stroke-dasharray: 2.22,0.96; stroke-dashoffset: 0; stroke: #b0b0b0; stroke-opacity: 0.25; stroke-width: 0.6"/>
     </g>
     <g id="line2d_8">
      <g>
       <use xlink:href="#mb4dcfab3d8" x="298.565883" y="349.8636" style="stroke: #000000; stroke-width: 0.8"/>
      </g>
     </g>
     <g id="text_4">
      <!-- 150 -->
      <g transform="translate(289.565883 365.1136) scale(0.12 -0.12)">
       <use xlink:href="#SimHei-31"/>
       <use xlink:href="#SimHei-35" transform="translate(50 0)"/>
       <use xlink:href="#SimHei-30" transform="translate(100 0)"/>
      </g>
     </g>
    </g>
    <g id="xtick_5">
     <g id="line2d_9">
      <path d="M 369.926102 349.8636 
L 369.926102 34.5036 
" clip-path="url(#p92ee5a6cfd)" style="fill: none; stroke-dasharray: 2.22,0.96; stroke-dashoffset: 0; stroke: #b0b0b0; stroke-opacity: 0.25; stroke-width: 0.6"/>
     </g>
     <g id="line2d_10">
      <g>
       <use xlink:href="#mb4dcfab3d8" x="369.926102" y="349.8636" style="stroke: #000000; stroke-width: 0.8"/>
      </g>
     </g>
     <g id="text_5">
      <!-- 200 -->
      <g transform="translate(360.926102 365.1136) scale(0.12 -0.12)">
       <defs>
        <path id="SimHei-32" d="M 300 250 
Q 325 625 650 925 
Q 975 1225 1475 1862 
Q 1975 2500 2125 2850 
Q 2275 3200 2237 3450 
Q 2200 3700 2000 3862 
Q 1800 4025 1537 4000 
Q 1275 3975 1037 3800 
Q 800 3625 675 3275 
L 200 3350 
Q 400 3925 712 4187 
Q 1025 4450 1450 4475 
Q 1700 4500 1900 4462 
Q 2100 4425 2312 4287 
Q 2525 4150 2662 3875 
Q 2800 3600 2762 3212 
Q 2725 2825 2375 2287 
Q 2025 1750 1025 600 
L 2825 600 
L 2825 150 
L 300 150 
L 300 250 
z
" transform="scale(0.015625)"/>
       </defs>
       <use xlink:href="#SimHei-32"/>
       <use xlink:href="#SimHei-30" transform="translate(50 0)"/>
       <use xlink:href="#SimHei-30" transform="translate(100 0)"/>
      </g>
     </g>
    </g>
    <g id="xtick_6">
     <g id="line2d_11">
      <path d="M 441.286321 349.8636 
L 441.286321 34.5036 
" clip-path="url(#p92ee5a6cfd)" style="fill: none; stroke-dasharray: 2.22,0.96; stroke-dashoffset: 0; stroke: #b0b0b0; stroke-opacity: 0.25; stroke-width: 0.6"/>
     </g>
     <g id="line2d_12">
      <g>
       <use xlink:href="#mb4dcfab3d8" x="441.286321" y="349.8636" style="stroke: #000000; stroke-width: 0.8"/>
      </g>
     </g>
     <g id="text_6">
      <!-- 250 -->
      <g transform="translate(432.286321 365.1136) scale(0.12 -0.12)">
       <use xlink:href="#SimHei-32"/>
       <use xlink:href="#SimHei-35" transform="translate(50 0)"/>
       <use xlink:href="#SimHei-30" transform="translate(100 0)"/>
      </g>
     </g>
    </g>
    <g id="xtick_7">
     <g id="line2d_13">
      <path d="M 512.64654 349.8636 
L 512.64654 34.5036 
" clip-path="url(#p92ee5a6cfd)" style="fill: none; stroke-dasharray: 2.22,0.96; stroke-dashoffset: 0; stroke: #b0b0b0; stroke-opacity: 0.25; stroke-width: 0.6"/>
     </g>
     <g id="line2d_14">
      <g>
       <use xlink:href="#mb4dcfab3d8" x="512.64654" y="349.8636" style="stroke: #000000; stroke-width: 0.8"/>
      </g>
     </g>
     <g id="text_7">
      <!-- 300 -->
      <g transform="translate(503.64654 365.1136) scale(0.12 -0.12)">
       <defs>
        <path id="SimHei-33" d="M 250 1225 
L 700 1300 
Q 800 975 1025 762 
Q 1250 550 1587 562 
Q 1925 575 2125 837 
Q 2325 1100 2300 1437 
Q 2275 1775 2037 1962 
Q 1800 2150 1275 2225 
L 1275 2550 
Q 1800 2600 2037 2825 
Q 2275 3050 2250 3412 
Q 2225 3775 1925 3937 
Q 1625 4100 1287 3975 
Q 950 3850 750 3275 
L 300 3350 
Q 450 3800 712 4100 
Q 975 4400 1425 4450 
Q 1875 4500 2212 4337 
Q 2550 4175 2687 3837 
Q 2825 3500 2725 3100 
Q 2625 2700 2150 2400 
Q 2500 2250 2687 1950 
Q 2875 1650 2812 1162 
Q 2750 675 2375 375 
Q 2000 75 1525 87 
Q 1050 100 700 387 
Q 350 675 250 1225 
z
" transform="scale(0.015625)"/>
       </defs>
       <use xlink:href="#SimHei-33"/>
       <use xlink:href="#SimHei-30" transform="translate(50 0)"/>
       <use xlink:href="#SimHei-30" transform="translate(100 0)"/>
      </g>
     </g>
    </g>
    <g id="xtick_8">
     <g id="line2d_15">
      <path d="M 584.006758 349.8636 
L 584.006758 34.5036 
" clip-path="url(#p92ee5a6cfd)" style="fill: none; stroke-dasharray: 2.22,0.96; stroke-dashoffset: 0; stroke: #b0b0b0; stroke-opacity: 0.25; stroke-width: 0.6"/>
     </g>
     <g id="line2d_16">
      <g>
       <use xlink:href="#mb4dcfab3d8" x="584.006758" y="349.8636" style="stroke: #000000; stroke-width: 0.8"/>
      </g>
     </g>
     <g id="text_8">
      <!-- 350 -->
      <g transform="translate(575.006758 365.1136) scale(0.12 -0.12)">
       <use xlink:href="#SimHei-33"/>
       <use xlink:href="#SimHei-35" transform="translate(50 0)"/>
       <use xlink:href="#SimHei-30" transform="translate(100 0)"/>
      </g>
     </g>
    </g>
    <g id="xtick_9">
     <g id="line2d_17">
      <path d="M 655.366977 349.8636 
L 655.366977 34.5036 
" clip-path="url(#p92ee5a6cfd)" style="fill: none; stroke-dasharray: 2.22,0.96; stroke-dashoffset: 0; stroke: #b0b0b0; stroke-opacity: 0.25; stroke-width: 0.6"/>
     </g>
     <g id="line2d_18">
      <g>
       <use xlink:href="#mb4dcfab3d8" x="655.366977" y="349.8636" style="stroke: #000000; stroke-width: 0.8"/>
      </g>
     </g>
     <g id="text_9">
      <!-- 400 -->
      <g transform="translate(646.366977 365.1136) scale(0.12 -0.12)">
       <defs>
        <path id="SimHei-34" d="M 2000 1100 
L 75 1100 
L 75 1525 
L 2100 4450 
L 2475 4450 
L 2475 1525 
L 3075 1525 
L 3075 1100 
L 2475 1100 
L 2475 150 
L 2000 150 
L 2000 1100 
z
M 2000 1525 
L 2000 3500 
L 600 1525 
L 2000 1525 
z
" transform="scale(0.015625)"/>
       </defs>
       <use xlink:href="#SimHei-34"/>
       <use xlink:href="#SimHei-30" transform="translate(50 0)"/>
       <use xlink:href="#SimHei-30" transform="translate(100 0)"/>
      </g>
     </g>
    </g>
    <g id="text_10">
     <!-- Episode -->
     <g transform="translate(339.4625 382.3011) scale(0.17 -0.17)">
      <defs>
       <path id="SimHei-45" d="M 2900 125 
L 350 125 
L 350 4400 
L 2775 4400 
L 2775 3925 
L 925 3925 
L 925 2600 
L 2625 2600 
L 2625 2125 
L 925 2125 
L 925 600 
L 2900 600 
L 2900 125 
z
" transform="scale(0.015625)"/>
       <path id="SimHei-70" d="M 2825 1525 
Q 2825 800 2475 425 
Q 2125 50 1625 50 
Q 1350 50 1150 162 
Q 950 275 800 500 
L 800 -800 
L 300 -800 
L 300 2925 
L 800 2925 
L 800 2550 
Q 950 2775 1150 2875 
Q 1350 2975 1625 2975 
Q 2125 2975 2475 2612 
Q 2825 2250 2825 1525 
z
M 2275 1525 
Q 2275 2000 2087 2262 
Q 1900 2525 1525 2525 
Q 1225 2525 1012 2262 
Q 800 2000 800 1525 
Q 800 1050 1012 775 
Q 1225 500 1525 500 
Q 1900 500 2087 775 
Q 2275 1050 2275 1525 
z
" transform="scale(0.015625)"/>
       <path id="SimHei-69" d="M 1800 3725 
L 1300 3725 
L 1300 4375 
L 1800 4375 
L 1800 3725 
z
M 1800 125 
L 1300 125 
L 1300 2925 
L 1800 2925 
L 1800 125 
z
" transform="scale(0.015625)"/>
       <path id="SimHei-73" d="M 2750 900 
Q 2750 500 2437 287 
Q 2125 75 1650 75 
Q 1050 75 725 312 
Q 400 550 400 1000 
L 900 1000 
Q 900 700 1112 600 
Q 1325 500 1625 500 
Q 1925 500 2075 612 
Q 2225 725 2225 900 
Q 2225 1025 2100 1150 
Q 1975 1275 1475 1350 
Q 900 1425 687 1637 
Q 475 1850 475 2200 
Q 475 2500 762 2737 
Q 1050 2975 1600 2975 
Q 2100 2975 2387 2750 
Q 2675 2525 2675 2150 
L 2175 2150 
Q 2175 2375 2012 2462 
Q 1850 2550 1600 2550 
Q 1275 2550 1137 2437 
Q 1000 2325 1000 2175 
Q 1000 2000 1125 1900 
Q 1250 1800 1650 1750 
Q 2300 1650 2525 1437 
Q 2750 1225 2750 900 
z
" transform="scale(0.015625)"/>
       <path id="SimHei-6f" d="M 2925 1525 
Q 2925 875 2525 475 
Q 2125 75 1575 75 
Q 1025 75 625 475 
Q 225 875 225 1525 
Q 225 2175 625 2575 
Q 1025 2975 1575 2975 
Q 2125 2975 2525 2575 
Q 2925 2175 2925 1525 
z
M 2375 1525 
Q 2375 2025 2125 2275 
Q 1875 2525 1575 2525 
Q 1275 2525 1025 2275 
Q 775 2025 775 1525 
Q 775 1025 1025 775 
Q 1275 525 1575 525 
Q 1875 525 2125 775 
Q 2375 1025 2375 1525 
z
" transform="scale(0.015625)"/>
       <path id="SimHei-64" d="M 2750 125 
L 2250 125 
L 2250 500 
Q 2100 275 1900 175 
Q 1700 75 1425 75 
Q 925 75 575 437 
Q 225 800 225 1525 
Q 225 2250 575 2625 
Q 925 3000 1425 3000 
Q 1700 3000 1900 2887 
Q 2100 2775 2250 2550 
L 2250 4400 
L 2750 4400 
L 2750 125 
z
M 2250 1525 
Q 2250 2000 2037 2275 
Q 1825 2550 1525 2550 
Q 1150 2550 962 2275 
Q 775 2000 775 1525 
Q 775 1050 962 787 
Q 1150 525 1525 525 
Q 1825 525 2037 787 
Q 2250 1050 2250 1525 
z
" transform="scale(0.015625)"/>
       <path id="SimHei-65" d="M 2850 1075 
Q 2800 625 2450 350 
Q 2100 75 1625 75 
Q 1025 75 637 462 
Q 250 850 250 1525 
Q 250 2200 637 2587 
Q 1025 2975 1625 2975 
Q 2150 2975 2487 2637 
Q 2825 2300 2825 1525 
L 800 1525 
Q 800 975 1037 750 
Q 1275 525 1625 525 
Q 1900 525 2075 662 
Q 2250 800 2300 1075 
L 2850 1075 
z
M 2250 1925 
Q 2200 2275 2025 2412 
Q 1850 2550 1575 2550 
Q 1325 2550 1125 2412 
Q 925 2275 825 1925 
L 2250 1925 
z
" transform="scale(0.015625)"/>
      </defs>
      <use xlink:href="#SimHei-45"/>
      <use xlink:href="#SimHei-70" transform="translate(50 0)"/>
      <use xlink:href="#SimHei-69" transform="translate(100 0)"/>
      <use xlink:href="#SimHei-73" transform="translate(150 0)"/>
      <use xlink:href="#SimHei-6f" transform="translate(200 0)"/>
      <use xlink:href="#SimHei-64" transform="translate(250 0)"/>
      <use xlink:href="#SimHei-65" transform="translate(300 0)"/>
     </g>
    </g>
   </g>
   <g id="matplotlib.axis_2">
    <g id="ytick_1">
     <g id="line2d_19">
      <path d="M 56.0125 331.582133 
L 682.4125 331.582133 
" clip-path="url(#p92ee5a6cfd)" style="fill: none; stroke-dasharray: 2.22,0.96; stroke-dashoffset: 0; stroke: #b0b0b0; stroke-opacity: 0.25; stroke-width: 0.6"/>
     </g>
     <g id="line2d_20">
      <defs>
       <path id="ma1d15efddd" d="M 0 0 
L -3.5 0 
" style="stroke: #000000; stroke-width: 0.8"/>
      </defs>
      <g>
       <use xlink:href="#ma1d15efddd" x="56.0125" y="331.582133" style="stroke: #000000; stroke-width: 0.8"/>
      </g>
     </g>
     <g id="text_11">
      <!-- 0.05 -->
      <g transform="translate(25.0125 335.707133) scale(0.12 -0.12)">
       <defs>
        <path id="SimHei-2e" d="M 1075 125 
L 500 125 
L 500 675 
L 1075 675 
L 1075 125 
z
" transform="scale(0.015625)"/>
       </defs>
       <use xlink:href="#SimHei-30"/>
       <use xlink:href="#SimHei-2e" transform="translate(50 0)"/>
       <use xlink:href="#SimHei-30" transform="translate(100 0)"/>
       <use xlink:href="#SimHei-35" transform="translate(150 0)"/>
      </g>
     </g>
    </g>
    <g id="ytick_2">
     <g id="line2d_21">
      <path d="M 56.0125 270.44798 
L 682.4125 270.44798 
" clip-path="url(#p92ee5a6cfd)" style="fill: none; stroke-dasharray: 2.22,0.96; stroke-dashoffset: 0; stroke: #b0b0b0; stroke-opacity: 0.25; stroke-width: 0.6"/>
     </g>
     <g id="line2d_22">
      <g>
       <use xlink:href="#ma1d15efddd" x="56.0125" y="270.44798" style="stroke: #000000; stroke-width: 0.8"/>
      </g>
     </g>
     <g id="text_12">
      <!-- 0.10 -->
      <g transform="translate(25.0125 274.57298) scale(0.12 -0.12)">
       <use xlink:href="#SimHei-30"/>
       <use xlink:href="#SimHei-2e" transform="translate(50 0)"/>
       <use xlink:href="#SimHei-31" transform="translate(100 0)"/>
       <use xlink:href="#SimHei-30" transform="translate(150 0)"/>
      </g>
     </g>
    </g>
    <g id="ytick_3">
     <g id="line2d_23">
      <path d="M 56.0125 209.313828 
L 682.4125 209.313828 
" clip-path="url(#p92ee5a6cfd)" style="fill: none; stroke-dasharray: 2.22,0.96; stroke-dashoffset: 0; stroke: #b0b0b0; stroke-opacity: 0.25; stroke-width: 0.6"/>
     </g>
     <g id="line2d_24">
      <g>
       <use xlink:href="#ma1d15efddd" x="56.0125" y="209.313828" style="stroke: #000000; stroke-width: 0.8"/>
      </g>
     </g>
     <g id="text_13">
      <!-- 0.15 -->
      <g transform="translate(25.0125 213.438828) scale(0.12 -0.12)">
       <use xlink:href="#SimHei-30"/>
       <use xlink:href="#SimHei-2e" transform="translate(50 0)"/>
       <use xlink:href="#SimHei-31" transform="translate(100 0)"/>
       <use xlink:href="#SimHei-35" transform="translate(150 0)"/>
      </g>
     </g>
    </g>
    <g id="ytick_4">
     <g id="line2d_25">
      <path d="M 56.0125 148.179675 
L 682.4125 148.179675 
" clip-path="url(#p92ee5a6cfd)" style="fill: none; stroke-dasharray: 2.22,0.96; stroke-dashoffset: 0; stroke: #b0b0b0; stroke-opacity: 0.25; stroke-width: 0.6"/>
     </g>
     <g id="line2d_26">
      <g>
       <use xlink:href="#ma1d15efddd" x="56.0125" y="148.179675" style="stroke: #000000; stroke-width: 0.8"/>
      </g>
     </g>
     <g id="text_14">
      <!-- 0.20 -->
      <g transform="translate(25.0125 152.304675) scale(0.12 -0.12)">
       <use xlink:href="#SimHei-30"/>
       <use xlink:href="#SimHei-2e" transform="translate(50 0)"/>
       <use xlink:href="#SimHei-32" transform="translate(100 0)"/>
       <use xlink:href="#SimHei-30" transform="translate(150 0)"/>
      </g>
     </g>
    </g>
    <g id="ytick_5">
     <g id="line2d_27">
      <path d="M 56.0125 87.045523 
L 682.4125 87.045523 
" clip-path="url(#p92ee5a6cfd)" style="fill: none; stroke-dasharray: 2.22,0.96; stroke-dashoffset: 0; stroke: #b0b0b0; stroke-opacity: 0.25; stroke-width: 0.6"/>
     </g>
     <g id="line2d_28">
      <g>
       <use xlink:href="#ma1d15efddd" x="56.0125" y="87.045523" style="stroke: #000000; stroke-width: 0.8"/>
      </g>
     </g>
     <g id="text_15">
      <!-- 0.25 -->
      <g transform="translate(25.0125 91.170523) scale(0.12 -0.12)">
       <use xlink:href="#SimHei-30"/>
       <use xlink:href="#SimHei-2e" transform="translate(50 0)"/>
       <use xlink:href="#SimHei-32" transform="translate(100 0)"/>
       <use xlink:href="#SimHei-35" transform="translate(150 0)"/>
      </g>
     </g>
    </g>
    <g id="text_16">
     <!-- Total Task Latency -->
     <g transform="translate(18.8875 268.6836) rotate(-90) scale(0.17 -0.17)">
      <defs>
       <path id="SimHei-54" d="M 2850 3925 
L 1850 3925 
L 1850 125 
L 1275 125 
L 1275 3925 
L 275 3925 
L 275 4400 
L 2850 4400 
L 2850 3925 
z
" transform="scale(0.015625)"/>
       <path id="SimHei-74" d="M 2750 200 
Q 2625 150 2462 112 
Q 2300 75 2025 75 
Q 1575 75 1300 325 
Q 1025 575 1025 1025 
L 1025 2525 
L 175 2525 
L 175 2925 
L 1025 2925 
L 1025 3900 
L 1525 3900 
L 1525 2925 
L 2550 2925 
L 2550 2525 
L 1525 2525 
L 1525 1000 
Q 1525 800 1625 662 
Q 1725 525 2000 525 
Q 2275 525 2450 575 
Q 2625 625 2750 700 
L 2750 200 
z
" transform="scale(0.015625)"/>
       <path id="SimHei-61" d="M 2875 125 
L 2275 125 
Q 2225 175 2200 262 
Q 2175 350 2175 475 
Q 2000 275 1750 175 
Q 1500 75 1225 75 
Q 825 75 550 275 
Q 275 475 275 850 
Q 275 1225 525 1450 
Q 775 1675 1300 1750 
Q 1650 1800 1912 1875 
Q 2175 1950 2175 2075 
Q 2175 2225 2062 2375 
Q 1950 2525 1575 2525 
Q 1275 2525 1137 2412 
Q 1000 2300 950 2100 
L 400 2100 
Q 450 2500 762 2737 
Q 1075 2975 1575 2975 
Q 2125 2975 2400 2725 
Q 2675 2475 2675 2025 
L 2675 650 
Q 2675 500 2725 375 
Q 2775 250 2875 125 
z
M 2175 1050 
L 2175 1550 
Q 2025 1500 1887 1462 
Q 1750 1425 1425 1375 
Q 1050 1325 937 1200 
Q 825 1075 825 900 
Q 825 750 937 637 
Q 1050 525 1275 525 
Q 1500 525 1762 650 
Q 2025 775 2175 1050 
z
" transform="scale(0.015625)"/>
       <path id="SimHei-6c" d="M 1825 125 
L 1325 125 
L 1325 4400 
L 1825 4400 
L 1825 125 
z
" transform="scale(0.015625)"/>
       <path id="SimHei-20" transform="scale(0.015625)"/>
       <path id="SimHei-6b" d="M 2925 125 
L 2350 125 
L 1450 1650 
L 875 1100 
L 875 125 
L 375 125 
L 375 4400 
L 875 4400 
L 875 1675 
L 2125 2925 
L 2750 2925 
L 1775 1975 
L 2925 125 
z
" transform="scale(0.015625)"/>
       <path id="SimHei-4c" d="M 2900 125 
L 300 125 
L 300 4400 
L 875 4400 
L 875 600 
L 2900 600 
L 2900 125 
z
" transform="scale(0.015625)"/>
       <path id="SimHei-6e" d="M 2800 125 
L 2300 125 
L 2300 1925 
Q 2300 2225 2150 2400 
Q 2000 2575 1750 2575 
Q 1425 2575 1137 2237 
Q 850 1900 850 1400 
L 850 125 
L 350 125 
L 350 2925 
L 850 2925 
L 850 2400 
Q 1050 2675 1287 2825 
Q 1525 2975 1900 2975 
Q 2350 2975 2575 2725 
Q 2800 2475 2800 2100 
L 2800 125 
z
" transform="scale(0.015625)"/>
       <path id="SimHei-63" d="M 2850 1250 
Q 2850 725 2487 400 
Q 2125 75 1575 75 
Q 1025 75 625 462 
Q 225 850 225 1525 
Q 225 2200 625 2587 
Q 1025 2975 1575 2975 
Q 2125 2975 2450 2687 
Q 2775 2400 2775 2000 
L 2225 2000 
Q 2200 2300 2012 2412 
Q 1825 2525 1575 2525 
Q 1275 2525 1025 2287 
Q 775 2050 775 1525 
Q 775 1000 1025 762 
Q 1275 525 1575 525 
Q 1900 525 2100 700 
Q 2300 875 2300 1250 
L 2850 1250 
z
" transform="scale(0.015625)"/>
       <path id="SimHei-79" d="M 2900 2925 
L 1750 -100 
Q 1650 -450 1450 -625 
Q 1250 -800 950 -800 
Q 825 -800 712 -787 
Q 600 -775 500 -725 
L 500 -225 
Q 600 -275 700 -300 
Q 800 -325 875 -325 
Q 1075 -325 1150 -262 
Q 1225 -200 1300 25 
L 200 2925 
L 750 2925 
L 1550 725 
L 1575 725 
L 2350 2925 
L 2900 2925 
z
" transform="scale(0.015625)"/>
      </defs>
      <use xlink:href="#SimHei-54"/>
      <use xlink:href="#SimHei-6f" transform="translate(50 0)"/>
      <use xlink:href="#SimHei-74" transform="translate(100 0)"/>
      <use xlink:href="#SimHei-61" transform="translate(150 0)"/>
      <use xlink:href="#SimHei-6c" transform="translate(200 0)"/>
      <use xlink:href="#SimHei-20" transform="translate(250 0)"/>
      <use xlink:href="#SimHei-54" transform="translate(300 0)"/>
      <use xlink:href="#SimHei-61" transform="translate(350 0)"/>
      <use xlink:href="#SimHei-73" transform="translate(400 0)"/>
      <use xlink:href="#SimHei-6b" transform="translate(450 0)"/>
      <use xlink:href="#SimHei-20" transform="translate(500 0)"/>
      <use xlink:href="#SimHei-4c" transform="translate(550 0)"/>
      <use xlink:href="#SimHei-61" transform="translate(600 0)"/>
      <use xlink:href="#SimHei-74" transform="translate(650 0)"/>
      <use xlink:href="#SimHei-65" transform="translate(700 0)"/>
      <use xlink:href="#SimHei-6e" transform="translate(750 0)"/>
      <use xlink:href="#SimHei-63" transform="translate(800 0)"/>
      <use xlink:href="#SimHei-79" transform="translate(850 0)"/>
     </g>
    </g>
   </g>
   <g id="line2d_29">
    <path d="M 84.485227 102.454444 
L 85.912432 103.410532 
L 87.339636 98.388888 
L 88.76684 92.657669 
L 90.194045 89.254898 
L 91.621249 87.444636 
L 93.048454 83.100203 
L 94.475658 78.386259 
L 95.902862 78.932628 
L 97.330067 77.784477 
L 98.757271 76.286548 
L 100.184475 72.726942 
L 101.61168 71.918791 
L 103.038884 69.900182 
L 105.893293 68.532664 
L 107.320497 67.15056 
L 108.747702 60.918137 
L 110.174906 56.697331 
L 111.60211 58.276331 
L 113.029315 57.088381 
L 114.456519 54.244352 
L 115.883724 51.782449 
L 117.310928 53.757229 
L 118.738132 49.396371 
L 120.165337 50.913637 
L 121.592541 49.248874 
L 123.019745 51.826912 
L 124.44695 51.950406 
L 125.874154 56.46574 
L 127.301359 59.633309 
L 128.728563 61.452346 
L 130.155767 61.874386 
L 131.582972 62.926626 
L 133.010176 61.772756 
L 134.43738 84.967337 
L 135.864585 110.378259 
L 137.291789 132.044088 
L 138.718994 151.279381 
L 141.573402 183.744066 
L 143.000607 198.523387 
L 145.855015 222.908714 
L 147.28222 233.204699 
L 148.709424 241.613667 
L 150.136629 251.489462 
L 151.563833 257.352172 
L 152.991037 264.40156 
L 154.418242 270.271971 
L 155.845446 276.732005 
L 157.27265 281.454887 
L 158.699855 286.648719 
L 160.127059 290.742407 
L 161.554263 295.855711 
L 164.408672 301.716222 
L 165.835877 303.845745 
L 167.263081 307.002377 
L 168.690285 310.527937 
L 170.11749 312.080913 
L 171.544694 314.100897 
L 172.971898 314.812428 
L 174.399103 314.4969 
L 175.826307 315.157689 
L 178.680716 318.21291 
L 180.10792 320.358024 
L 181.535125 321.172865 
L 182.962329 321.602601 
L 184.389533 323.141642 
L 185.816738 322.838838 
L 187.243942 324.244348 
L 188.671147 323.416102 
L 190.098351 324.059311 
L 194.379964 326.772305 
L 195.807168 326.517009 
L 197.234373 327.576748 
L 198.661577 328.285887 
L 200.088782 328.20545 
L 201.515986 328.967623 
L 202.94319 329.300701 
L 204.370395 329.062808 
L 205.797599 328.603604 
L 207.224803 328.834753 
L 208.652008 327.697206 
L 210.079212 327.918601 
L 211.506417 327.408824 
L 214.360825 328.792249 
L 215.78803 327.206001 
L 217.215234 326.875579 
L 218.642438 326.37642 
L 221.496847 328.70755 
L 222.924052 329.332397 
L 224.351256 330.371649 
L 225.77846 330.68433 
L 227.205665 330.827749 
L 228.632869 330.721615 
L 230.060073 329.448466 
L 231.487278 328.934809 
L 232.914482 328.897505 
L 234.341687 327.322156 
L 235.768891 327.639621 
L 237.196095 328.533774 
L 238.6233 328.119082 
L 240.050504 329.195693 
L 241.477708 329.273902 
L 242.904913 329.528653 
L 244.332117 329.522865 
L 245.759322 327.507005 
L 247.186526 326.905053 
L 248.61373 328.582627 
L 251.468139 329.270568 
L 252.895343 328.826182 
L 254.322548 329.405885 
L 255.749752 328.65011 
L 257.176957 329.828281 
L 258.604161 330.383579 
L 260.031365 330.022027 
L 261.45857 330.206923 
L 262.885774 329.297923 
L 264.312978 330.110092 
L 265.740183 330.236237 
L 267.167387 331.422084 
L 268.594592 331.113229 
L 270.021796 330.410314 
L 271.449 331.043538 
L 272.876205 330.845178 
L 274.303409 331.677895 
L 275.730613 331.968313 
L 277.157818 332.745303 
L 278.585022 331.898198 
L 280.012227 331.718697 
L 281.439431 329.662272 
L 284.29384 329.831381 
L 285.721044 329.920638 
L 287.148248 330.329702 
L 290.002657 330.283912 
L 291.429862 331.244809 
L 292.857066 331.781319 
L 294.28427 332.113096 
L 295.711475 330.666086 
L 297.138679 330.867165 
L 298.565883 328.51134 
L 299.993088 328.476529 
L 301.420292 328.697438 
L 302.847497 329.925681 
L 304.274701 329.740147 
L 305.701905 328.888978 
L 307.12911 329.361921 
L 308.556314 330.088381 
L 309.983518 330.312318 
L 311.410723 330.952625 
L 312.837927 331.250182 
L 314.265132 330.790388 
L 315.692336 330.523841 
L 317.11954 331.130248 
L 318.546745 331.391914 
L 319.973949 330.578876 
L 321.401153 330.31821 
L 322.828358 331.174862 
L 324.255562 331.866847 
L 325.682767 332.734273 
L 327.109971 332.64968 
L 328.537175 332.339955 
L 329.96438 331.875381 
L 332.818788 330.113908 
L 334.245993 330.42661 
L 335.673197 330.581903 
L 337.100402 329.90668 
L 339.95481 330.098433 
L 341.382015 329.900635 
L 342.809219 329.968539 
L 344.236423 330.422525 
L 345.663628 330.015463 
L 347.090832 330.612134 
L 348.518037 330.715366 
L 349.945241 331.275078 
L 351.372445 331.161293 
L 352.79965 331.468558 
L 354.226854 331.969016 
L 355.654058 330.920158 
L 357.081263 330.889955 
L 358.508467 332.204969 
L 359.935672 331.553998 
L 361.362876 331.508922 
L 362.79008 330.425415 
L 364.217285 329.864489 
L 365.644489 330.487074 
L 367.071693 330.550452 
L 368.498898 329.783646 
L 369.926102 329.36945 
L 371.353307 329.92971 
L 372.780511 329.670878 
L 374.207715 327.6598 
L 375.63492 327.416475 
L 377.062124 328.268875 
L 378.489328 328.305718 
L 379.916533 327.671044 
L 381.343737 328.155631 
L 384.198146 328.201627 
L 385.62535 329.560277 
L 387.052555 330.08517 
L 388.479759 329.621165 
L 389.906963 328.341212 
L 391.334168 328.982668 
L 392.761372 330.066854 
L 394.188577 329.638171 
L 398.47019 332.096965 
L 401.324598 332.890839 
L 402.751803 333.05726 
L 404.179007 333.004421 
L 405.606212 332.590354 
L 407.033416 331.476645 
L 408.46062 331.272493 
L 409.887825 331.298329 
L 411.315029 331.586742 
L 412.742233 328.928858 
L 414.169438 329.265956 
L 417.023847 330.598249 
L 418.451051 331.913471 
L 419.878255 330.772882 
L 421.30546 328.523292 
L 422.732664 329.112417 
L 424.159868 329.177548 
L 427.014277 328.630491 
L 428.441482 329.172784 
L 429.868686 329.915874 
L 431.29589 328.699519 
L 432.723095 329.534154 
L 434.150299 330.076885 
L 437.004708 330.36639 
L 438.431912 329.956177 
L 439.859117 330.566116 
L 441.286321 328.755988 
L 442.713525 328.532593 
L 444.14073 329.583143 
L 445.567934 328.638009 
L 446.995138 329.177669 
L 448.422343 328.430269 
L 449.849547 329.034328 
L 451.276752 329.418818 
L 452.703956 328.969012 
L 454.13116 329.37449 
L 455.558365 329.577075 
L 456.985569 329.021674 
L 458.412773 329.027257 
L 459.839978 328.601626 
L 461.267182 329.378477 
L 462.694387 330.353019 
L 464.121591 330.460981 
L 465.548795 330.201277 
L 466.976 330.732682 
L 468.403204 330.506135 
L 469.830408 329.332585 
L 471.257613 330.768458 
L 472.684817 330.723256 
L 474.112022 331.08704 
L 475.539226 330.735703 
L 476.96643 331.280912 
L 478.393635 330.536037 
L 479.820839 330.159742 
L 481.248043 330.421397 
L 482.675248 330.911678 
L 484.102452 331.821014 
L 485.529657 332.405093 
L 488.384065 332.745806 
L 489.81127 332.864973 
L 491.238474 332.630459 
L 492.665678 331.129413 
L 494.092883 330.536132 
L 495.520087 330.963858 
L 496.947292 331.612998 
L 498.374496 331.055519 
L 499.8017 331.178166 
L 501.228905 330.605235 
L 502.656109 330.254351 
L 504.083313 330.167203 
L 505.510518 330.880803 
L 506.937722 330.559597 
L 508.364927 330.036314 
L 509.792131 330.518239 
L 511.219335 330.316586 
L 512.64654 331.41082 
L 514.073744 330.905813 
L 515.500948 330.624787 
L 516.928153 331.570018 
L 518.355357 331.766673 
L 519.782562 332.218434 
L 521.209766 331.777054 
L 522.63697 332.258843 
L 524.064175 333.040487 
L 525.491379 333.509384 
L 526.918583 333.37282 
L 528.345788 333.932537 
L 529.772992 333.908985 
L 531.200197 331.886567 
L 532.627401 333.047585 
L 534.054605 332.233284 
L 535.48181 332.455801 
L 536.909014 333.380402 
L 538.336218 333.945451 
L 539.763423 334.637177 
L 541.190627 335.132564 
L 544.045036 332.22493 
L 545.47224 332.888455 
L 548.326649 332.561288 
L 551.181058 333.267616 
L 552.608262 333.884728 
L 554.035467 332.174682 
L 555.462671 333.211431 
L 556.889875 333.54968 
L 558.31708 333.358781 
L 559.744284 333.023594 
L 561.171488 332.93529 
L 562.598693 331.81368 
L 564.025897 332.212075 
L 565.453102 332.941437 
L 566.880306 333.061716 
L 568.30751 332.002881 
L 571.161919 331.020069 
L 572.589123 330.279074 
L 574.016328 330.613723 
L 575.443532 329.605949 
L 576.870737 329.820192 
L 578.297941 330.151969 
L 579.725145 329.761255 
L 581.15235 330.078753 
L 582.579554 331.367898 
L 584.006758 331.431239 
L 585.433963 331.831341 
L 586.861167 331.47688 
L 588.288371 332.683829 
L 589.715576 332.474114 
L 591.14278 332.69985 
L 592.569985 331.658677 
L 593.997189 331.693858 
L 596.851598 332.086539 
L 598.278802 331.478051 
L 599.706006 331.085105 
L 601.133211 331.292931 
L 602.560415 331.044854 
L 603.98762 331.677246 
L 605.414824 331.787802 
L 606.842028 331.440487 
L 608.269233 330.851224 
L 609.696437 331.525361 
L 611.123641 331.770405 
L 612.550846 329.586991 
L 613.97805 329.240739 
L 615.405255 329.662091 
L 616.832459 329.565191 
L 618.259663 330.377371 
L 619.686868 329.599826 
L 621.114072 329.406142 
L 622.541276 329.335936 
L 623.968481 331.428976 
L 625.395685 331.662522 
L 626.82289 331.176658 
L 628.250094 330.98868 
L 629.677298 330.623254 
L 631.104503 331.240493 
L 632.531707 332.007825 
L 633.958911 332.908183 
L 635.386116 332.670851 
L 636.81332 333.404891 
L 639.667729 333.21519 
L 641.094933 334.201572 
L 642.522138 334.236928 
L 643.949342 333.55651 
L 645.376546 333.919269 
L 648.230955 333.714976 
L 649.65816 334.257837 
L 652.512568 332.65821 
L 653.939773 333.399744 
L 653.939773 333.399744 
" clip-path="url(#p92ee5a6cfd)" style="fill: none; stroke: #1f77b4; stroke-width: 1.2; stroke-linecap: square"/>
   </g>
   <g id="line2d_30">
    <path d="M 84.485227 66.678634 
L 85.912432 73.210818 
L 87.339636 68.769351 
L 88.76684 66.540956 
L 90.194045 60.247715 
L 91.621249 65.89395 
L 93.048454 61.462332 
L 94.475658 60.876761 
L 95.902862 58.707242 
L 97.330067 58.815383 
L 98.757271 51.791424 
L 100.184475 55.64859 
L 103.038884 56.366619 
L 104.466089 56.199614 
L 105.893293 54.040273 
L 107.320497 50.699257 
L 108.747702 51.951524 
L 110.174906 52.296214 
L 111.60211 50.924138 
L 113.029315 51.708403 
L 114.456519 48.838145 
L 115.883724 54.191754 
L 117.310928 57.748517 
L 118.738132 55.303503 
L 120.165337 54.656803 
L 121.592541 53.454081 
L 123.019745 51.585135 
L 124.44695 53.662092 
L 125.874154 53.961337 
L 127.301359 55.614827 
L 128.728563 58.547963 
L 130.155767 55.298794 
L 131.582972 52.639993 
L 133.010176 50.456279 
L 134.43738 55.41394 
L 135.864585 56.837066 
L 137.291789 56.206411 
L 138.718994 57.423615 
L 140.146198 58.028606 
L 141.573402 57.287069 
L 144.427811 57.951875 
L 145.855015 58.964293 
L 147.28222 81.505839 
L 150.136629 129.924692 
L 152.991037 167.876492 
L 154.418242 184.624896 
L 155.845446 199.864993 
L 157.27265 213.441736 
L 158.699855 225.597816 
L 161.554263 246.351097 
L 162.981468 254.992378 
L 165.835877 269.921978 
L 168.690285 280.339201 
L 170.11749 284.539373 
L 172.971898 294.889891 
L 174.399103 297.144276 
L 177.253512 303.849067 
L 178.680716 305.86591 
L 180.10792 307.617849 
L 181.535125 310.501184 
L 182.962329 312.385683 
L 184.389533 314.52682 
L 185.816738 316.220834 
L 187.243942 317.72845 
L 188.671147 317.179474 
L 190.098351 317.366746 
L 192.95276 320.75054 
L 194.379964 321.552141 
L 195.807168 321.487285 
L 197.234373 322.77206 
L 198.661577 323.521434 
L 200.088782 324.048131 
L 201.515986 324.332386 
L 202.94319 324.428548 
L 204.370395 324.790539 
L 205.797599 325.561662 
L 207.224803 326.019015 
L 208.652008 327.164238 
L 210.079212 327.975526 
L 211.506417 328.511536 
L 212.933621 328.224928 
L 214.360825 328.682713 
L 215.78803 328.793423 
L 217.215234 328.022004 
L 218.642438 326.97648 
L 220.069643 327.638582 
L 221.496847 327.726858 
L 224.351256 329.132195 
L 225.77846 327.838023 
L 227.205665 327.48082 
L 230.060073 327.670315 
L 231.487278 328.268727 
L 232.914482 329.321353 
L 234.341687 329.318891 
L 235.768891 329.599294 
L 237.196095 329.598275 
L 238.6233 328.551608 
L 240.050504 327.757817 
L 241.477708 327.370376 
L 242.904913 326.367779 
L 244.332117 326.612327 
L 245.759322 328.248062 
L 247.186526 328.851122 
L 248.61373 328.439105 
L 252.895343 330.507179 
L 254.322548 330.312762 
L 257.176957 330.711 
L 258.604161 330.722008 
L 260.031365 331.419316 
L 261.45857 331.505835 
L 262.885774 329.952519 
L 264.312978 329.18978 
L 265.740183 329.253597 
L 267.167387 329.971005 
L 268.594592 329.850477 
L 270.021796 330.852141 
L 271.449 330.87305 
L 274.303409 331.637474 
L 275.730613 331.269677 
L 277.157818 331.096314 
L 278.585022 331.578046 
L 280.012227 330.805914 
L 282.866635 331.544945 
L 284.29384 330.891187 
L 285.721044 331.535294 
L 287.148248 331.928314 
L 288.575453 331.719601 
L 291.429862 331.97229 
L 294.28427 332.257454 
L 295.711475 331.648245 
L 297.138679 331.171875 
L 298.565883 331.030222 
L 301.420292 331.128875 
L 302.847497 330.958919 
L 305.701905 330.851799 
L 307.12911 330.40114 
L 308.556314 329.486569 
L 311.410723 328.882621 
L 312.837927 329.45198 
L 314.265132 328.229226 
L 315.692336 326.445712 
L 317.11954 326.147997 
L 318.546745 327.312857 
L 319.973949 329.093118 
L 321.401153 328.529479 
L 322.828358 328.879054 
L 324.255562 329.812892 
L 325.682767 329.353159 
L 327.109971 330.147766 
L 328.537175 330.271918 
L 329.96438 330.962841 
L 331.391584 330.890132 
L 332.818788 330.453883 
L 335.673197 330.603808 
L 337.100402 329.893438 
L 338.527606 328.480917 
L 339.95481 329.922417 
L 341.382015 329.831764 
L 342.809219 328.624036 
L 344.236423 328.571573 
L 348.518037 329.300598 
L 349.945241 328.475659 
L 351.372445 328.747853 
L 352.79965 329.19804 
L 354.226854 329.995431 
L 355.654058 328.799615 
L 357.081263 328.736485 
L 358.508467 327.037253 
L 359.935672 326.85913 
L 362.79008 327.737662 
L 364.217285 327.668188 
L 365.644489 328.198619 
L 367.071693 328.288624 
L 368.498898 328.862058 
L 369.926102 328.989075 
L 371.353307 328.870078 
L 372.780511 329.415997 
L 375.63492 329.271347 
L 377.062124 330.451446 
L 378.489328 330.428518 
L 379.916533 329.67005 
L 381.343737 329.647534 
L 382.770942 330.410215 
L 384.198146 330.033159 
L 385.62535 331.655908 
L 387.052555 332.446778 
L 388.479759 331.208361 
L 389.906963 330.779456 
L 391.334168 332.218852 
L 392.761372 332.529177 
L 394.188577 332.556643 
L 395.615781 332.455081 
L 397.042985 333.291041 
L 398.47019 333.353546 
L 399.897394 334.605792 
L 401.324598 333.733478 
L 402.751803 333.965084 
L 404.179007 332.986291 
L 407.033416 332.250906 
L 411.315029 333.094286 
L 412.742233 332.954223 
L 414.169438 332.210386 
L 415.596642 332.271805 
L 417.023847 332.677421 
L 418.451051 332.468901 
L 419.878255 332.583575 
L 421.30546 330.162239 
L 422.732664 330.922691 
L 424.159868 330.691631 
L 425.587073 331.035021 
L 427.014277 331.023999 
L 428.441482 331.279688 
L 429.868686 331.765962 
L 431.29589 331.940438 
L 432.723095 329.778943 
L 434.150299 330.448665 
L 435.577503 330.885427 
L 437.004708 331.174666 
L 439.859117 329.478364 
L 441.286321 328.007975 
L 442.713525 329.27677 
L 444.14073 329.681626 
L 445.567934 330.36676 
L 446.995138 330.075282 
L 448.422343 329.658652 
L 449.849547 330.702747 
L 451.276752 330.466759 
L 452.703956 331.157297 
L 454.13116 331.979104 
L 455.558365 331.607614 
L 456.985569 332.052894 
L 458.412773 332.002313 
L 459.839978 329.680533 
L 461.267182 328.063763 
L 462.694387 328.797004 
L 464.121591 329.964936 
L 465.548795 329.554999 
L 466.976 329.879424 
L 469.830408 327.514985 
L 471.257613 328.477211 
L 472.684817 328.873704 
L 474.112022 329.837915 
L 475.539226 329.971647 
L 476.96643 329.444369 
L 478.393635 330.675282 
L 482.675248 329.261301 
L 484.102452 330.346511 
L 485.529657 330.247599 
L 486.956861 330.597493 
L 488.384065 330.462594 
L 489.81127 330.961402 
L 491.238474 330.817168 
L 492.665678 328.811898 
L 494.092883 329.027201 
L 495.520087 328.896661 
L 496.947292 329.885949 
L 498.374496 328.727551 
L 499.8017 328.802548 
L 501.228905 329.680514 
L 502.656109 329.384169 
L 504.083313 329.705151 
L 505.510518 329.496344 
L 506.937722 328.442885 
L 508.364927 328.04514 
L 509.792131 329.024422 
L 511.219335 329.246004 
L 512.64654 329.584895 
L 514.073744 330.61221 
L 516.928153 329.725513 
L 518.355357 328.35865 
L 519.782562 329.038932 
L 521.209766 329.517641 
L 522.63697 330.465804 
L 524.064175 329.697812 
L 525.491379 329.380363 
L 526.918583 329.79602 
L 528.345788 329.490175 
L 529.772992 329.827254 
L 531.200197 329.355654 
L 532.627401 330.137378 
L 534.054605 329.298578 
L 535.48181 329.200894 
L 536.909014 329.401622 
L 538.336218 330.224064 
L 539.763423 330.680811 
L 541.190627 331.614828 
L 542.617832 330.318262 
L 545.47224 330.666707 
L 546.899445 331.441844 
L 549.753853 331.684726 
L 551.181058 332.627718 
L 552.608262 332.766414 
L 554.035467 331.944213 
L 555.462671 332.567302 
L 556.889875 332.699159 
L 558.31708 332.391741 
L 559.744284 331.709879 
L 561.171488 332.76322 
L 562.598693 331.590299 
L 564.025897 331.724781 
L 566.880306 332.614962 
L 569.734715 332.789668 
L 572.589123 331.890941 
L 574.016328 332.483965 
L 575.443532 332.142548 
L 576.870737 332.019772 
L 579.725145 331.157338 
L 581.15235 330.814795 
L 582.579554 330.784239 
L 584.006758 331.324408 
L 586.861167 331.182456 
L 588.288371 331.458528 
L 592.569985 331.841481 
L 593.997189 332.559615 
L 595.424393 332.676201 
L 596.851598 332.335057 
L 599.706006 333.094604 
L 601.133211 332.705038 
L 602.560415 332.06925 
L 603.98762 332.076349 
L 605.414824 331.483152 
L 606.842028 329.224393 
L 608.269233 329.648582 
L 609.696437 329.531357 
L 611.123641 328.530155 
L 612.550846 326.958559 
L 613.97805 327.394746 
L 615.405255 328.967791 
L 616.832459 328.495515 
L 618.259663 328.49814 
L 619.686868 329.956545 
L 621.114072 330.541678 
L 622.541276 330.680542 
L 623.968481 331.295195 
L 625.395685 331.498023 
L 626.82289 331.375987 
L 628.250094 330.620739 
L 629.677298 330.149939 
L 631.104503 331.087614 
L 632.531707 332.282138 
L 633.958911 332.778387 
L 635.386116 332.427656 
L 636.81332 332.629624 
L 638.240525 332.946573 
L 639.667729 333.116854 
L 645.376546 332.283497 
L 646.803751 331.595856 
L 649.65816 330.499455 
L 651.085364 330.997423 
L 652.512568 330.427557 
L 652.512568 330.427557 
" clip-path="url(#p92ee5a6cfd)" style="fill: none; stroke: #ff7f0e; stroke-width: 1.2; stroke-linecap: square"/>
   </g>
   <g id="line2d_31">
    <path d="M 84.485227 108.64858 
L 87.339636 120.802825 
L 88.76684 121.820643 
L 93.048454 148.572899 
L 94.475658 156.786172 
L 95.902862 163.082259 
L 97.330067 172.289229 
L 98.757271 179.319286 
L 100.184475 191.660961 
L 101.61168 200.796342 
L 103.038884 213.890487 
L 104.466089 223.435802 
L 105.893293 230.068695 
L 107.320497 239.282706 
L 108.747702 246.111214 
L 111.60211 263.538859 
L 114.456519 276.371975 
L 115.883724 280.532609 
L 117.310928 283.269134 
L 118.738132 287.754163 
L 120.165337 290.906855 
L 121.592541 296.20787 
L 124.44695 301.575593 
L 125.874154 302.900964 
L 130.155767 309.817253 
L 131.582972 310.907359 
L 133.010176 313.79621 
L 134.43738 314.660574 
L 135.864585 316.929888 
L 137.291789 318.028768 
L 140.146198 321.7162 
L 141.573402 322.530158 
L 143.000607 323.172361 
L 144.427811 323.99081 
L 145.855015 325.63959 
L 147.28222 326.333882 
L 148.709424 327.370932 
L 150.136629 327.980696 
L 151.563833 329.370819 
L 152.991037 329.840108 
L 154.418242 329.391814 
L 155.845446 329.07863 
L 158.699855 329.858258 
L 160.127059 330.33238 
L 161.554263 329.917722 
L 162.981468 329.739263 
L 164.408672 330.761665 
L 168.690285 331.712732 
L 170.11749 331.732467 
L 171.544694 330.192537 
L 172.971898 329.90888 
L 174.399103 329.219908 
L 175.826307 329.444686 
L 177.253512 329.471338 
L 178.680716 329.17839 
L 180.10792 329.809876 
L 181.535125 329.003319 
L 182.962329 328.878941 
L 184.389533 328.937694 
L 185.816738 328.789721 
L 187.243942 329.265599 
L 188.671147 330.167657 
L 190.098351 330.787268 
L 191.525555 330.984815 
L 192.95276 329.171032 
L 194.379964 330.024145 
L 195.807168 328.000507 
L 198.661577 329.028909 
L 200.088782 329.493774 
L 201.515986 327.042091 
L 202.94319 327.236425 
L 204.370395 328.151914 
L 205.797599 328.355811 
L 207.224803 328.255096 
L 208.652008 328.5745 
L 210.079212 329.455914 
L 211.506417 329.907652 
L 212.933621 330.026545 
L 214.360825 329.892367 
L 215.78803 330.592892 
L 217.215234 331.053501 
L 220.069643 332.377195 
L 221.496847 330.588218 
L 222.924052 330.382329 
L 225.77846 329.684311 
L 227.205665 329.839687 
L 228.632869 331.707387 
L 230.060073 331.49202 
L 232.914482 332.620791 
L 234.341687 332.453051 
L 235.768891 332.470897 
L 237.196095 332.618045 
L 238.6233 331.333025 
L 240.050504 331.501569 
L 241.477708 330.759557 
L 244.332117 330.995112 
L 247.186526 331.825212 
L 248.61373 332.18496 
L 250.040935 333.290551 
L 251.468139 333.878033 
L 252.895343 333.358752 
L 254.322548 333.261148 
L 255.749752 333.775507 
L 257.176957 332.811881 
L 258.604161 332.900062 
L 260.031365 332.172348 
L 261.45857 332.55707 
L 262.885774 332.471128 
L 264.312978 332.159945 
L 265.740183 332.086232 
L 267.167387 330.618525 
L 268.594592 330.328158 
L 270.021796 330.974035 
L 271.449 330.659614 
L 272.876205 331.364667 
L 274.303409 330.541317 
L 275.730613 330.242686 
L 277.157818 331.363654 
L 278.585022 332.012195 
L 280.012227 329.37446 
L 281.439431 328.266358 
L 282.866635 328.731774 
L 284.29384 329.065581 
L 285.721044 328.203611 
L 287.148248 328.218121 
L 288.575453 329.372546 
L 290.002657 330.07092 
L 291.429862 329.093612 
L 292.857066 329.142588 
L 294.28427 327.800922 
L 295.711475 328.771426 
L 297.138679 328.410645 
L 298.565883 329.291229 
L 299.993088 329.449052 
L 301.420292 329.452603 
L 302.847497 329.033962 
L 304.274701 329.363869 
L 308.556314 331.0654 
L 309.983518 330.449205 
L 311.410723 329.964821 
L 312.837927 329.142673 
L 315.692336 328.090384 
L 317.11954 328.634973 
L 318.546745 327.904773 
L 319.973949 329.273131 
L 321.401153 329.223704 
L 322.828358 328.917835 
L 324.255562 330.715096 
L 325.682767 330.702651 
L 327.109971 330.086162 
L 328.537175 330.308589 
L 329.96438 330.838138 
L 331.391584 330.435957 
L 332.818788 330.670102 
L 334.245993 331.024954 
L 335.673197 332.2794 
L 337.100402 332.763183 
L 338.527606 333.409058 
L 339.95481 333.127228 
L 341.382015 332.961374 
L 342.809219 332.178981 
L 344.236423 331.787997 
L 345.663628 331.553515 
L 351.372445 329.971562 
L 352.79965 330.548788 
L 354.226854 331.6551 
L 355.654058 331.926673 
L 357.081263 331.509915 
L 358.508467 330.021237 
L 361.362876 331.395249 
L 362.79008 331.921935 
L 364.217285 332.002483 
L 365.644489 332.508866 
L 368.498898 332.717351 
L 369.926102 333.493954 
L 371.353307 332.926594 
L 372.780511 332.701439 
L 374.207715 331.711869 
L 375.63492 331.806837 
L 377.062124 331.561514 
L 378.489328 332.400318 
L 379.916533 332.69662 
L 381.343737 331.138012 
L 382.770942 330.668663 
L 384.198146 331.598012 
L 385.62535 332.788544 
L 387.052555 332.608408 
L 388.479759 332.81832 
L 389.906963 332.80089 
L 391.334168 332.545778 
L 392.761372 333.050597 
L 394.188577 334.158921 
L 395.615781 333.742751 
L 397.042985 334.223898 
L 398.47019 334.537842 
L 399.897394 333.265352 
L 401.324598 331.419444 
L 404.179007 331.637703 
L 405.606212 331.482056 
L 407.033416 329.654908 
L 408.46062 329.818604 
L 409.887825 329.860942 
L 411.315029 329.547631 
L 412.742233 330.461019 
L 414.169438 330.325886 
L 415.596642 328.967506 
L 417.023847 328.212757 
L 418.451051 326.732363 
L 419.878255 326.673213 
L 421.30546 327.071856 
L 422.732664 326.602634 
L 424.159868 327.415376 
L 425.587073 327.508151 
L 427.014277 328.553132 
L 428.441482 328.785736 
L 429.868686 329.854912 
L 431.29589 329.702268 
L 432.723095 329.188663 
L 434.150299 330.23417 
L 435.577503 329.873473 
L 437.004708 330.14996 
L 438.431912 330.977312 
L 439.859117 331.162237 
L 441.286321 331.555855 
L 442.713525 330.938545 
L 444.14073 330.747918 
L 445.567934 330.800489 
L 446.995138 330.51587 
L 448.422343 331.182387 
L 449.849547 330.94776 
L 451.276752 330.942635 
L 452.703956 331.238411 
L 454.13116 331.708605 
L 455.558365 332.309001 
L 456.985569 332.535814 
L 458.412773 332.401295 
L 459.839978 333.159594 
L 461.267182 332.719334 
L 462.694387 333.025772 
L 464.121591 333.008858 
L 466.976 333.391249 
L 468.403204 332.941877 
L 469.830408 332.190908 
L 471.257613 332.13394 
L 472.684817 332.222691 
L 474.112022 330.670066 
L 475.539226 330.023385 
L 476.96643 329.614746 
L 478.393635 329.728378 
L 479.820839 330.10893 
L 481.248043 330.084538 
L 482.675248 330.307347 
L 484.102452 331.110724 
L 486.956861 330.650262 
L 488.384065 328.812516 
L 489.81127 328.23488 
L 494.092883 330.446545 
L 495.520087 331.453997 
L 496.947292 331.604254 
L 498.374496 331.38698 
L 499.8017 331.549187 
L 501.228905 331.182384 
L 502.656109 331.222965 
L 504.083313 331.658251 
L 505.510518 331.597643 
L 506.937722 331.246033 
L 508.364927 331.334517 
L 509.792131 331.769161 
L 511.219335 331.515602 
L 512.64654 330.20891 
L 515.500948 331.023261 
L 516.928153 331.904878 
L 518.355357 332.537755 
L 519.782562 331.847406 
L 521.209766 330.917106 
L 524.064175 332.48654 
L 525.491379 331.643314 
L 526.918583 331.708746 
L 529.772992 333.117787 
L 531.200197 332.84161 
L 532.627401 332.836566 
L 534.054605 331.26144 
L 535.48181 330.335348 
L 538.336218 330.588629 
L 539.763423 329.813791 
L 541.190627 330.113633 
L 542.617832 329.812981 
L 544.045036 329.653989 
L 545.47224 330.171498 
L 546.899445 330.836613 
L 548.326649 330.364771 
L 549.753853 330.774184 
L 551.181058 331.936951 
L 552.608262 330.523259 
L 554.035467 330.426938 
L 555.462671 330.180009 
L 556.889875 330.53181 
L 558.31708 330.716074 
L 559.744284 329.35117 
L 561.171488 329.999986 
L 562.598693 328.637245 
L 564.025897 328.507501 
L 565.453102 328.594745 
L 566.880306 329.638366 
L 568.30751 329.890631 
L 569.734715 331.137807 
L 571.161919 331.821592 
L 572.589123 330.99912 
L 574.016328 330.740137 
L 575.443532 331.255288 
L 576.870737 330.137847 
L 578.297941 329.340703 
L 579.725145 329.552785 
L 581.15235 329.899491 
L 582.579554 328.719933 
L 584.006758 329.739007 
L 585.433963 328.87029 
L 586.861167 329.725932 
L 588.288371 330.304675 
L 589.715576 330.079204 
L 591.14278 329.378216 
L 593.997189 329.737979 
L 595.424393 329.493012 
L 596.851598 329.091792 
L 598.278802 329.208357 
L 599.706006 330.339456 
L 601.133211 330.544639 
L 602.560415 328.440418 
L 603.98762 329.089909 
L 605.414824 328.948215 
L 606.842028 329.241137 
L 608.269233 328.984054 
L 609.696437 329.398721 
L 611.123641 329.320005 
L 612.550846 330.123935 
L 613.97805 329.532132 
L 615.405255 329.299228 
L 616.832459 329.36261 
L 618.259663 329.005365 
L 619.686868 329.541645 
L 622.541276 329.78301 
L 623.968481 330.642265 
L 626.82289 330.175746 
L 629.677298 329.987387 
L 631.104503 329.605752 
L 632.531707 329.104394 
L 636.81332 329.985445 
L 638.240525 329.640905 
L 639.667729 329.123507 
L 641.094933 328.816065 
L 642.522138 329.148757 
L 643.949342 329.786798 
L 645.376546 330.022088 
L 646.803751 330.603972 
L 648.230955 329.895582 
L 649.65816 328.806283 
L 651.085364 329.125383 
L 652.512568 329.958202 
L 652.512568 329.958202 
" clip-path="url(#p92ee5a6cfd)" style="fill: none; stroke: #2ca02c; stroke-width: 1.2; stroke-linecap: square"/>
   </g>
   <g id="line2d_32">
    <path d="M 84.485227 108.64858 
L 85.912432 114.585417 
L 87.339636 117.753365 
L 88.76684 122.892623 
L 90.194045 132.827627 
L 91.621249 141.710018 
L 94.475658 168.080429 
L 95.902862 175.386326 
L 97.330067 187.517585 
L 98.757271 197.753458 
L 103.038884 232.03292 
L 104.466089 240.850287 
L 107.320497 256.683647 
L 108.747702 264.15395 
L 111.60211 276.836304 
L 113.029315 282.20887 
L 115.883724 289.992267 
L 117.310928 293.514501 
L 118.738132 296.276453 
L 120.165337 300.957123 
L 121.592541 304.082905 
L 123.019745 306.512072 
L 124.44695 310.236469 
L 125.874154 311.744671 
L 127.301359 314.283303 
L 130.155767 317.093365 
L 131.582972 318.333671 
L 134.43738 319.321614 
L 135.864585 319.241729 
L 137.291789 318.492629 
L 138.718994 320.206712 
L 141.573402 322.099988 
L 144.427811 325.255721 
L 145.855015 326.403635 
L 147.28222 326.646972 
L 150.136629 327.473378 
L 151.563833 327.232973 
L 152.991037 328.452168 
L 155.845446 328.957909 
L 157.27265 327.533685 
L 158.699855 328.109702 
L 160.127059 328.22424 
L 161.554263 328.981551 
L 162.981468 328.871583 
L 164.408672 325.384384 
L 165.835877 325.76348 
L 167.263081 325.519304 
L 168.690285 325.497683 
L 170.11749 326.820054 
L 171.544694 327.006855 
L 172.971898 327.380332 
L 174.399103 327.584775 
L 175.826307 328.218749 
L 177.253512 329.271084 
L 178.680716 329.550461 
L 180.10792 329.693377 
L 181.535125 330.525054 
L 182.962329 329.700895 
L 184.389533 330.319444 
L 185.816738 330.26124 
L 187.243942 330.953392 
L 188.671147 330.051472 
L 190.098351 330.631672 
L 191.525555 331.341958 
L 192.95276 331.002004 
L 194.379964 330.154115 
L 195.807168 329.566815 
L 197.234373 330.038577 
L 198.661577 330.637299 
L 200.088782 330.634402 
L 202.94319 329.34492 
L 205.797599 328.397245 
L 207.224803 328.245023 
L 208.652008 327.71872 
L 210.079212 328.135667 
L 211.506417 328.189906 
L 212.933621 328.950967 
L 214.360825 328.966494 
L 215.78803 329.433657 
L 217.215234 329.231558 
L 218.642438 329.703464 
L 220.069643 329.938751 
L 221.496847 329.978885 
L 224.351256 329.521519 
L 225.77846 330.000258 
L 227.205665 329.844997 
L 228.632869 330.952062 
L 230.060073 331.752461 
L 231.487278 330.271498 
L 232.914482 330.930547 
L 234.341687 331.032398 
L 235.768891 329.884934 
L 237.196095 329.912388 
L 238.6233 329.624402 
L 240.050504 330.635448 
L 241.477708 330.892213 
L 242.904913 330.773089 
L 244.332117 331.004706 
L 245.759322 331.719161 
L 247.186526 331.741428 
L 248.61373 330.894088 
L 251.468139 331.031619 
L 252.895343 330.694332 
L 255.749752 330.557773 
L 257.176957 330.493835 
L 258.604161 329.959688 
L 260.031365 329.7061 
L 261.45857 328.526622 
L 262.885774 326.078647 
L 264.312978 326.449673 
L 265.740183 327.497583 
L 267.167387 327.29185 
L 270.021796 327.442423 
L 271.449 328.054222 
L 272.876205 326.500746 
L 275.730613 327.09794 
L 277.157818 326.6757 
L 278.585022 325.415661 
L 280.012227 325.378076 
L 281.439431 326.284784 
L 282.866635 325.85096 
L 284.29384 326.442914 
L 285.721044 326.749227 
L 287.148248 326.871762 
L 288.575453 326.598569 
L 290.002657 328.116166 
L 291.429862 329.130209 
L 292.857066 330.001019 
L 294.28427 331.120083 
L 295.711475 330.866226 
L 297.138679 331.658432 
L 298.565883 331.95316 
L 299.993088 331.911982 
L 301.420292 332.290476 
L 302.847497 330.631667 
L 304.274701 331.204726 
L 305.701905 330.862769 
L 307.12911 331.577796 
L 308.556314 331.786263 
L 309.983518 332.49918 
L 311.410723 331.425297 
L 312.837927 331.396669 
L 314.265132 331.73552 
L 315.692336 331.173557 
L 318.546745 331.300224 
L 319.973949 331.684939 
L 321.401153 330.74586 
L 324.255562 331.27267 
L 325.682767 332.258573 
L 327.109971 331.093049 
L 328.537175 330.51686 
L 329.96438 330.473481 
L 331.391584 331.144836 
L 332.818788 330.823723 
L 334.245993 330.945347 
L 337.100402 331.861557 
L 338.527606 332.058405 
L 339.95481 332.61884 
L 341.382015 332.997924 
L 344.236423 332.775456 
L 347.090832 331.603703 
L 348.518037 331.325732 
L 349.945241 331.224702 
L 351.372445 330.381413 
L 354.226854 332.522854 
L 355.654058 332.307067 
L 358.508467 330.309087 
L 359.935672 330.853402 
L 361.362876 330.661597 
L 362.79008 330.176548 
L 364.217285 330.447919 
L 365.644489 331.410688 
L 367.071693 331.072963 
L 368.498898 330.950088 
L 369.926102 331.333873 
L 371.353307 330.433426 
L 372.780511 331.278767 
L 375.63492 330.882369 
L 377.062124 331.145691 
L 378.489328 330.537218 
L 381.343737 331.629253 
L 382.770942 331.645046 
L 384.198146 331.808727 
L 385.62535 331.482126 
L 387.052555 331.667286 
L 388.479759 332.45879 
L 389.906963 332.292074 
L 391.334168 333.074562 
L 392.761372 332.978135 
L 394.188577 333.646399 
L 397.042985 335.529055 
L 398.47019 335.064248 
L 399.897394 334.353804 
L 401.324598 333.446317 
L 402.751803 334.162634 
L 404.179007 334.526966 
L 405.606212 333.994753 
L 407.033416 333.589516 
L 408.46062 332.899713 
L 409.887825 333.826507 
L 411.315029 333.155681 
L 412.742233 332.027241 
L 414.169438 332.154491 
L 415.596642 331.883903 
L 417.023847 332.160649 
L 418.451051 333.01241 
L 419.878255 332.500642 
L 421.30546 331.767469 
L 424.159868 332.196361 
L 425.587073 331.502927 
L 427.014277 331.031841 
L 428.441482 332.282854 
L 429.868686 332.5155 
L 431.29589 332.528749 
L 435.577503 333.330878 
L 437.004708 332.994124 
L 438.431912 333.692746 
L 439.859117 333.538647 
L 441.286321 334.046426 
L 442.713525 333.469168 
L 444.14073 333.825091 
L 445.567934 333.55157 
L 446.995138 333.613082 
L 448.422343 334.29716 
L 449.849547 334.235074 
L 451.276752 333.113326 
L 452.703956 334.04236 
L 454.13116 332.914119 
L 455.558365 332.252406 
L 456.985569 333.113628 
L 458.412773 332.615524 
L 459.839978 331.750205 
L 461.267182 331.326748 
L 462.694387 332.087808 
L 464.121591 331.89659 
L 468.403204 332.511885 
L 469.830408 332.576402 
L 471.257613 332.45849 
L 472.684817 332.571955 
L 474.112022 332.896545 
L 475.539226 332.767068 
L 476.96643 332.027791 
L 478.393635 332.659367 
L 479.820839 332.477586 
L 481.248043 331.689558 
L 482.675248 331.443112 
L 484.102452 330.961283 
L 485.529657 330.339819 
L 486.956861 330.733302 
L 488.384065 329.215597 
L 489.81127 329.534324 
L 491.238474 329.683581 
L 492.665678 329.51633 
L 494.092883 329.660629 
L 495.520087 328.97432 
L 496.947292 329.110146 
L 498.374496 329.866616 
L 499.8017 328.788717 
L 501.228905 329.213259 
L 502.656109 329.232867 
L 505.510518 330.245534 
L 506.937722 328.782106 
L 508.364927 328.907918 
L 509.792131 328.900434 
L 511.219335 329.300091 
L 512.64654 329.444005 
L 514.073744 330.006427 
L 515.500948 329.972497 
L 516.928153 330.614144 
L 518.355357 329.959842 
L 519.782562 330.403241 
L 521.209766 329.791598 
L 522.63697 328.897687 
L 524.064175 328.551691 
L 525.491379 328.042049 
L 526.918583 328.707474 
L 528.345788 329.236364 
L 529.772992 330.087969 
L 531.200197 330.161336 
L 532.627401 330.900688 
L 534.054605 330.578073 
L 535.48181 330.81313 
L 536.909014 330.808638 
L 538.336218 330.602791 
L 539.763423 330.836699 
L 541.190627 329.912537 
L 542.617832 328.484969 
L 544.045036 329.412992 
L 545.47224 328.423867 
L 546.899445 328.031118 
L 548.326649 328.696907 
L 549.753853 328.172507 
L 551.181058 328.745255 
L 552.608262 329.879945 
L 554.035467 329.007387 
L 555.462671 328.907166 
L 558.31708 331.229427 
L 559.744284 331.941082 
L 564.025897 333.05001 
L 565.453102 332.390802 
L 566.880306 332.831703 
L 568.30751 332.66781 
L 571.161919 332.075717 
L 572.589123 332.060237 
L 574.016328 331.361796 
L 575.443532 331.744279 
L 576.870737 331.731483 
L 578.297941 332.470897 
L 579.725145 331.213699 
L 581.15235 331.624681 
L 582.579554 330.824252 
L 584.006758 331.195701 
L 585.433963 330.808029 
L 586.861167 331.63511 
L 588.288371 332.244898 
L 589.715576 332.110608 
L 591.14278 331.365921 
L 592.569985 332.74411 
L 593.997189 332.819376 
L 595.424393 332.193629 
L 596.851598 331.803271 
L 598.278802 331.795269 
L 601.133211 332.366719 
L 602.560415 331.987149 
L 603.98762 331.134919 
L 605.414824 330.747534 
L 606.842028 330.695187 
L 608.269233 331.60561 
L 609.696437 331.583009 
L 611.123641 331.969023 
L 612.550846 331.944774 
L 613.97805 332.698312 
L 615.405255 331.923181 
L 616.832459 331.692696 
L 619.686868 329.54043 
L 622.541276 330.571918 
L 623.968481 332.067371 
L 625.395685 330.568378 
L 626.82289 330.723094 
L 628.250094 330.71818 
L 629.677298 331.388487 
L 631.104503 332.310555 
L 632.531707 332.032774 
L 633.958911 331.084534 
L 635.386116 330.647949 
L 636.81332 330.831781 
L 638.240525 329.985393 
L 639.667729 330.584157 
L 641.094933 329.692656 
L 642.522138 330.613284 
L 645.376546 331.734776 
L 646.803751 332.15361 
L 649.65816 331.33475 
L 651.085364 331.586344 
L 652.512568 330.675944 
L 652.512568 330.675944 
" clip-path="url(#p92ee5a6cfd)" style="fill: none; stroke: #9b8ac9; stroke-width: 1.2; stroke-linecap: square"/>
   </g>
   <g id="patch_3">
    <path d="M 56.0125 349.8636 
L 56.0125 34.5036 
" style="fill: none; stroke: #000000; stroke-width: 0.8; stroke-linejoin: miter; stroke-linecap: square"/>
   </g>
   <g id="patch_4">
    <path d="M 682.4125 349.8636 
L 682.4125 34.5036 
" style="fill: none; stroke: #000000; stroke-width: 0.8; stroke-linejoin: miter; stroke-linecap: square"/>
   </g>
   <g id="patch_5">
    <path d="M 56.0125 349.8636 
L 682.4125 349.8636 
" style="fill: none; stroke: #000000; stroke-width: 0.8; stroke-linejoin: miter; stroke-linecap: square"/>
   </g>
   <g id="patch_6">
    <path d="M 56.0125 34.5036 
L 682.4125 34.5036 
" style="fill: none; stroke: #000000; stroke-width: 0.8; stroke-linejoin: miter; stroke-linecap: square"/>
   </g>
   <g id="legend_1">
    <g id="patch_7">
     <path d="M 56.0125 31.35 
L 682.4125 31.35 
L 682.4125 7.2 
L 56.0125 7.2 
z
" style="fill: #ffffff; stroke: #808080; stroke-width: 0.8; stroke-linejoin: miter"/>
    </g>
    <g id="line2d_33">
     <path d="M 62.3125 18.4 
L 76.3125 18.4 
L 90.3125 18.4 
" style="fill: none; stroke: #1f77b4; stroke-width: 1.2; stroke-linecap: square"/>
    </g>
    <g id="text_17">
     <!-- GCN-DDQN -->
     <g transform="translate(98.7125 23.3) scale(0.14 -0.14)">
      <defs>
       <path id="SimHei-47" d="M 2850 75 
L 2425 75 
L 2350 425 
Q 2250 275 2037 175 
Q 1825 75 1575 75 
Q 1050 75 637 562 
Q 225 1050 225 2125 
Q 225 3300 600 3875 
Q 975 4450 1625 4450 
Q 2200 4450 2525 4025 
Q 2850 3600 2850 2925 
L 2300 2925 
Q 2300 3450 2125 3712 
Q 1950 3975 1625 3975 
Q 1225 3975 1025 3562 
Q 825 3150 825 2175 
Q 825 1250 1075 900 
Q 1325 550 1650 550 
Q 1975 550 2162 787 
Q 2350 1025 2350 1525 
L 2350 1800 
L 1575 1800 
L 1575 2275 
L 2850 2275 
L 2850 75 
z
" transform="scale(0.015625)"/>
       <path id="SimHei-43" d="M 2975 1825 
Q 2950 875 2575 475 
Q 2200 75 1675 75 
Q 1075 75 650 562 
Q 225 1050 225 2125 
Q 225 3300 637 3875 
Q 1050 4450 1700 4450 
Q 2250 4450 2612 4037 
Q 2975 3625 2950 2875 
L 2400 2875 
Q 2400 3425 2225 3700 
Q 2050 3975 1700 3975 
Q 1300 3975 1062 3562 
Q 825 3150 825 2175 
Q 825 1275 1062 912 
Q 1300 550 1675 550 
Q 1950 550 2175 812 
Q 2400 1075 2400 1825 
L 2975 1825 
z
" transform="scale(0.015625)"/>
       <path id="SimHei-4e" d="M 2850 125 
L 2225 125 
L 850 3225 
L 825 3225 
L 825 125 
L 250 125 
L 250 4400 
L 875 4400 
L 2250 1300 
L 2275 1300 
L 2275 4400 
L 2850 4400 
L 2850 125 
z
" transform="scale(0.015625)"/>
       <path id="SimHei-2d" d="M 2975 2125 
L 125 2125 
L 125 2525 
L 2975 2525 
L 2975 2125 
z
" transform="scale(0.015625)"/>
       <path id="SimHei-44" d="M 2925 2250 
Q 2925 1100 2437 612 
Q 1950 125 1125 125 
L 275 125 
L 275 4400 
L 1125 4400 
Q 2050 4400 2487 3900 
Q 2925 3400 2925 2250 
z
M 2325 2250 
Q 2325 3175 2025 3550 
Q 1725 3925 1125 3925 
L 850 3925 
L 850 600 
L 1125 600 
Q 1725 600 2025 962 
Q 2325 1325 2325 2250 
z
" transform="scale(0.015625)"/>
       <path id="SimHei-51" d="M 2950 2275 
Q 2950 1675 2862 1262 
Q 2775 850 2575 600 
L 2775 225 
L 2375 -200 
L 2150 225 
Q 2050 150 1900 112 
Q 1750 75 1575 75 
Q 925 75 550 587 
Q 175 1100 175 2275 
Q 175 3450 550 3950 
Q 925 4450 1575 4450 
Q 2225 4450 2587 3950 
Q 2950 3450 2950 2275 
z
M 2350 2275 
Q 2350 3325 2125 3650 
Q 1900 3975 1575 3975 
Q 1250 3975 1012 3650 
Q 775 3325 775 2275 
Q 775 1225 1012 887 
Q 1250 550 1575 550 
Q 1700 550 1800 587 
Q 1900 625 1950 675 
L 1550 1450 
L 1900 1875 
L 2250 1200 
Q 2300 1450 2325 1650 
Q 2350 1850 2350 2275 
z
" transform="scale(0.015625)"/>
      </defs>
      <use xlink:href="#SimHei-47"/>
      <use xlink:href="#SimHei-43" transform="translate(50 0)"/>
      <use xlink:href="#SimHei-4e" transform="translate(100 0)"/>
      <use xlink:href="#SimHei-2d" transform="translate(150 0)"/>
      <use xlink:href="#SimHei-44" transform="translate(200 0)"/>
      <use xlink:href="#SimHei-44" transform="translate(250 0)"/>
      <use xlink:href="#SimHei-51" transform="translate(300 0)"/>
      <use xlink:href="#SimHei-4e" transform="translate(350 0)"/>
     </g>
    </g>
    <g id="line2d_34">
     <path d="M 229.1125 18.4 
L 243.1125 18.4 
L 257.1125 18.4 
" style="fill: none; stroke: #ff7f0e; stroke-width: 1.2; stroke-linecap: square"/>
    </g>
    <g id="text_18">
     <!-- GCN-D3QN -->
     <g transform="translate(265.5125 23.3) scale(0.14 -0.14)">
      <use xlink:href="#SimHei-47"/>
      <use xlink:href="#SimHei-43" transform="translate(50 0)"/>
      <use xlink:href="#SimHei-4e" transform="translate(100 0)"/>
      <use xlink:href="#SimHei-2d" transform="translate(150 0)"/>
      <use xlink:href="#SimHei-44" transform="translate(200 0)"/>
      <use xlink:href="#SimHei-33" transform="translate(250 0)"/>
      <use xlink:href="#SimHei-51" transform="translate(300 0)"/>
      <use xlink:href="#SimHei-4e" transform="translate(350 0)"/>
     </g>
    </g>
    <g id="line2d_35">
     <path d="M 395.9125 18.4 
L 409.9125 18.4 
L 423.9125 18.4 
" style="fill: none; stroke: #2ca02c; stroke-width: 1.2; stroke-linecap: square"/>
    </g>
    <g id="text_19">
     <!-- GAT-LSTM-DDQN -->
     <g transform="translate(432.3125 23.3) scale(0.14 -0.14)">
      <defs>
       <path id="SimHei-41" d="M 3075 125 
L 2475 125 
L 2125 1450 
L 1025 1450 
L 675 125 
L 75 125 
L 1325 4450 
L 1825 4450 
L 3075 125 
z
M 2000 1925 
L 1600 3450 
L 1550 3450 
L 1150 1925 
L 2000 1925 
z
" transform="scale(0.015625)"/>
       <path id="SimHei-53" d="M 2900 1325 
Q 2900 750 2537 412 
Q 2175 75 1550 75 
Q 925 75 575 425 
Q 225 775 225 1300 
L 225 1475 
L 800 1475 
L 800 1325 
Q 800 950 1025 750 
Q 1250 550 1550 550 
Q 1950 550 2137 762 
Q 2325 975 2325 1275 
Q 2325 1525 2100 1737 
Q 1875 1950 1450 2125 
Q 850 2350 587 2625 
Q 325 2900 325 3275 
Q 325 3800 687 4125 
Q 1050 4450 1550 4450 
Q 2200 4450 2487 4062 
Q 2775 3675 2775 3225 
L 2200 3225 
Q 2225 3500 2050 3725 
Q 1875 3950 1550 3950 
Q 1250 3950 1075 3787 
Q 900 3625 900 3350 
Q 900 3125 1037 2962 
Q 1175 2800 1750 2575 
Q 2300 2350 2600 2037 
Q 2900 1725 2900 1325 
z
" transform="scale(0.015625)"/>
       <path id="SimHei-4d" d="M 2925 125 
L 2425 125 
L 2425 3175 
L 2375 3175 
L 1775 125 
L 1375 125 
L 775 3175 
L 725 3175 
L 725 125 
L 225 125 
L 225 4400 
L 1000 4400 
L 1550 1575 
L 1600 1575 
L 2150 4400 
L 2925 4400 
L 2925 125 
z
" transform="scale(0.015625)"/>
      </defs>
      <use xlink:href="#SimHei-47"/>
      <use xlink:href="#SimHei-41" transform="translate(50 0)"/>
      <use xlink:href="#SimHei-54" transform="translate(100 0)"/>
      <use xlink:href="#SimHei-2d" transform="translate(150 0)"/>
      <use xlink:href="#SimHei-4c" transform="translate(200 0)"/>
      <use xlink:href="#SimHei-53" transform="translate(250 0)"/>
      <use xlink:href="#SimHei-54" transform="translate(300 0)"/>
      <use xlink:href="#SimHei-4d" transform="translate(350 0)"/>
      <use xlink:href="#SimHei-2d" transform="translate(400 0)"/>
      <use xlink:href="#SimHei-44" transform="translate(450 0)"/>
      <use xlink:href="#SimHei-44" transform="translate(500 0)"/>
      <use xlink:href="#SimHei-51" transform="translate(550 0)"/>
      <use xlink:href="#SimHei-4e" transform="translate(600 0)"/>
     </g>
    </g>
    <g id="line2d_36">
     <path d="M 597.7125 18.4 
L 611.7125 18.4 
L 625.7125 18.4 
" style="fill: none; stroke: #9b8ac9; stroke-width: 1.2; stroke-linecap: square"/>
    </g>
    <g id="text_20">
     <!-- GLDVTO -->
     <g transform="translate(634.1125 23.3) scale(0.14 -0.14)">
      <defs>
       <path id="SimHei-56" d="M 3050 4400 
L 1800 75 
L 1300 75 
L 50 4400 
L 650 4400 
L 1525 1125 
L 1575 1125 
L 2450 4400 
L 3050 4400 
z
" transform="scale(0.015625)"/>
       <path id="SimHei-4f" d="M 2950 2275 
Q 2950 1100 2587 587 
Q 2225 75 1575 75 
Q 925 75 550 587 
Q 175 1100 175 2275 
Q 175 3450 550 3950 
Q 925 4450 1575 4450 
Q 2225 4450 2587 3950 
Q 2950 3450 2950 2275 
z
M 2350 2275 
Q 2350 3325 2125 3650 
Q 1900 3975 1575 3975 
Q 1250 3975 1012 3650 
Q 775 3325 775 2275 
Q 775 1225 1012 887 
Q 1250 550 1575 550 
Q 1900 550 2125 887 
Q 2350 1225 2350 2275 
z
" transform="scale(0.015625)"/>
      </defs>
      <use xlink:href="#SimHei-47"/>
      <use xlink:href="#SimHei-4c" transform="translate(50 0)"/>
      <use xlink:href="#SimHei-44" transform="translate(100 0)"/>
      <use xlink:href="#SimHei-56" transform="translate(150 0)"/>
      <use xlink:href="#SimHei-54" transform="translate(200 0)"/>
      <use xlink:href="#SimHei-4f" transform="translate(250 0)"/>
     </g>
    </g>
   </g>
  </g>
 </g>
 <defs>
  <clipPath id="p92ee5a6cfd">
   <rect x="56.0125" y="34.5036" width="626.4" height="315.36"/>
  </clipPath>
 </defs>
</svg>
