<?xml version="1.0" encoding="utf-8" standalone="no"?>
<!DOCTYPE svg PUBLIC "-//W3C//DTD SVG 1.1//EN"
  "http://www.w3.org/Graphics/SVG/1.1/DTD/svg11.dtd">
<svg xmlns:xlink="http://www.w3.org/1999/xlink" width="621.9pt" height="397.915pt" viewBox="0 0 621.9 397.915" xmlns="http://www.w3.org/2000/svg" version="1.1">
 <metadata>
  <rdf:RDF xmlns:dc="http://purl.org/dc/elements/1.1/" xmlns:cc="http://creativecommons.org/ns#" xmlns:rdf="http://www.w3.org/1999/02/22-rdf-syntax-ns#">
   <cc:Work>
    <dc:type rdf:resource="http://purl.org/dc/dcmitype/StillImage"/>
    <dc:date>2026-06-25T20:34:07.979316</dc:date>
    <dc:format>image/svg+xml</dc:format>
    <dc:creator>
     <cc:Agent>
      <dc:title>Matplotlib v3.10.7, https://matplotlib.org/</dc:title>
     </cc:Agent>
    </dc:creator>
   </cc:Work>
  </rdf:RDF>
 </metadata>
 <defs>
  <style type="text/css">*{stroke-linejoin: round; stroke-linecap: butt}</style>
 </defs>
 <g id="figure_1">
  <g id="patch_1">
   <path d="M 0 397.915 
L 621.9 397.915 
L 621.9 -0 
L 0 -0 
z
" style="fill: #ffffff"/>
  </g>
  <g id="axes_1">
   <g id="patch_2">
    <path d="M 56.7 356.965 
L 614.7 356.965 
L 614.7 24.325 
L 56.7 24.325 
z
" style="fill: #ffffff"/>
   </g>
   <g id="matplotlib.axis_1">
    <g id="xtick_1">
     <g id="line2d_1">
      <path d="M 82.063636 356.965 
L 82.063636 24.325 
" clip-path="url(#p38058ce8d1)" style="fill: none; stroke: #b0b0b0; stroke-opacity: 0.3; stroke-width: 0.8; stroke-linecap: square"/>
     </g>
     <g id="line2d_2">
      <defs>
       <path id="m945637e122" d="M 0 0 
L 0 3.5 
" style="stroke: #000000; stroke-width: 0.8"/>
      </defs>
      <g>
       <use xlink:href="#m945637e122" x="82.063636" y="356.965" style="stroke: #000000; stroke-width: 0.8"/>
      </g>
     </g>
     <g id="text_1">
      <!-- 0 -->
      <g transform="translate(79.063636 372.215) scale(0.12 -0.12)">
       <defs>
        <path id="SimHei-30" d="M 225 2537 
Q 250 3200 412 3587 
Q 575 3975 875 4225 
Q 1175 4475 1612 4475 
Q 2050 4475 2375 4112 
Q 2700 3750 2800 3200 
Q 2900 2650 2862 1937 
Q 2825 1225 2612 775 
Q 2400 325 1975 150 
Q 1550 -25 1125 187 
Q 700 400 525 750 
Q 350 1100 275 1487 
Q 200 1875 225 2537 
z
M 750 2687 
Q 675 2000 800 1462 
Q 925 925 1212 700 
Q 1500 475 1800 612 
Q 2100 750 2237 1162 
Q 2375 1575 2375 2062 
Q 2375 2550 2337 2950 
Q 2300 3350 2112 3675 
Q 1925 4000 1612 4012 
Q 1300 4025 1062 3700 
Q 825 3375 750 2687 
z
" transform="scale(0.015625)"/>
       </defs>
       <use xlink:href="#SimHei-30"/>
      </g>
     </g>
    </g>
    <g id="xtick_2">
     <g id="line2d_3">
      <path d="M 145.631647 356.965 
L 145.631647 24.325 
" clip-path="url(#p38058ce8d1)" style="fill: none; stroke: #b0b0b0; stroke-opacity: 0.3; stroke-width: 0.8; stroke-linecap: square"/>
     </g>
     <g id="line2d_4">
      <g>
       <use xlink:href="#m945637e122" x="145.631647" y="356.965" style="stroke: #000000; stroke-width: 0.8"/>
      </g>
     </g>
     <g id="text_2">
      <!-- 50 -->
      <g transform="translate(139.631647 372.215) scale(0.12 -0.12)">
       <defs>
        <path id="SimHei-35" d="M 550 1325 
Q 725 650 1150 575 
Q 1575 500 1837 662 
Q 2100 825 2212 1087 
Q 2325 1350 2312 1675 
Q 2300 2000 2137 2225 
Q 1975 2450 1725 2525 
Q 1475 2600 1162 2525 
Q 850 2450 650 2175 
L 225 2225 
Q 275 2375 700 4375 
L 2675 4375 
L 2675 3925 
L 1075 3925 
Q 950 3250 825 2850 
Q 1200 3025 1525 3012 
Q 1850 3000 2150 2862 
Q 2450 2725 2587 2487 
Q 2725 2250 2787 2012 
Q 2850 1775 2837 1500 
Q 2825 1225 2725 937 
Q 2625 650 2425 462 
Q 2225 275 1937 162 
Q 1650 50 1275 75 
Q 900 100 562 350 
Q 225 600 100 1200 
L 550 1325 
z
" transform="scale(0.015625)"/>
       </defs>
       <use xlink:href="#SimHei-35"/>
       <use xlink:href="#SimHei-30" transform="translate(50 0)"/>
      </g>
     </g>
    </g>
    <g id="xtick_3">
     <g id="line2d_5">
      <path d="M 209.199658 356.965 
L 209.199658 24.325 
" clip-path="url(#p38058ce8d1)" style="fill: none; stroke: #b0b0b0; stroke-opacity: 0.3; stroke-width: 0.8; stroke-linecap: square"/>
     </g>
     <g id="line2d_6">
      <g>
       <use xlink:href="#m945637e122" x="209.199658" y="356.965" style="stroke: #000000; stroke-width: 0.8"/>
      </g>
     </g>
     <g id="text_3">
      <!-- 100 -->
      <g transform="translate(200.199658 372.215) scale(0.12 -0.12)">
       <defs>
        <path id="SimHei-31" d="M 1400 3600 
Q 1075 3275 575 2975 
L 575 3450 
Q 1200 3875 1600 4450 
L 1900 4450 
L 1900 150 
L 1400 150 
L 1400 3600 
z
" transform="scale(0.015625)"/>
       </defs>
       <use xlink:href="#SimHei-31"/>
       <use xlink:href="#SimHei-30" transform="translate(50 0)"/>
       <use xlink:href="#SimHei-30" transform="translate(100 0)"/>
      </g>
     </g>
    </g>
    <g id="xtick_4">
     <g id="line2d_7">
      <path d="M 272.767669 356.965 
L 272.767669 24.325 
" clip-path="url(#p38058ce8d1)" style="fill: none; stroke: #b0b0b0; stroke-opacity: 0.3; stroke-width: 0.8; stroke-linecap: square"/>
     </g>
     <g id="line2d_8">
      <g>
       <use xlink:href="#m945637e122" x="272.767669" y="356.965" style="stroke: #000000; stroke-width: 0.8"/>
      </g>
     </g>
     <g id="text_4">
      <!-- 150 -->
      <g transform="translate(263.767669 372.215) scale(0.12 -0.12)">
       <use xlink:href="#SimHei-31"/>
       <use xlink:href="#SimHei-35" transform="translate(50 0)"/>
       <use xlink:href="#SimHei-30" transform="translate(100 0)"/>
      </g>
     </g>
    </g>
    <g id="xtick_5">
     <g id="line2d_9">
      <path d="M 336.33568 356.965 
L 336.33568 24.325 
" clip-path="url(#p38058ce8d1)" style="fill: none; stroke: #b0b0b0; stroke-opacity: 0.3; stroke-width: 0.8; stroke-linecap: square"/>
     </g>
     <g id="line2d_10">
      <g>
       <use xlink:href="#m945637e122" x="336.33568" y="356.965" style="stroke: #000000; stroke-width: 0.8"/>
      </g>
     </g>
     <g id="text_5">
      <!-- 200 -->
      <g transform="translate(327.33568 372.215) scale(0.12 -0.12)">
       <defs>
        <path id="SimHei-32" d="M 300 250 
Q 325 625 650 925 
Q 975 1225 1475 1862 
Q 1975 2500 2125 2850 
Q 2275 3200 2237 3450 
Q 2200 3700 2000 3862 
Q 1800 4025 1537 4000 
Q 1275 3975 1037 3800 
Q 800 3625 675 3275 
L 200 3350 
Q 400 3925 712 4187 
Q 1025 4450 1450 4475 
Q 1700 4500 1900 4462 
Q 2100 4425 2312 4287 
Q 2525 4150 2662 3875 
Q 2800 3600 2762 3212 
Q 2725 2825 2375 2287 
Q 2025 1750 1025 600 
L 2825 600 
L 2825 150 
L 300 150 
L 300 250 
z
" transform="scale(0.015625)"/>
       </defs>
       <use xlink:href="#SimHei-32"/>
       <use xlink:href="#SimHei-30" transform="translate(50 0)"/>
       <use xlink:href="#SimHei-30" transform="translate(100 0)"/>
      </g>
     </g>
    </g>
    <g id="xtick_6">
     <g id="line2d_11">
      <path d="M 399.903691 356.965 
L 399.903691 24.325 
" clip-path="url(#p38058ce8d1)" style="fill: none; stroke: #b0b0b0; stroke-opacity: 0.3; stroke-width: 0.8; stroke-linecap: square"/>
     </g>
     <g id="line2d_12">
      <g>
       <use xlink:href="#m945637e122" x="399.903691" y="356.965" style="stroke: #000000; stroke-width: 0.8"/>
      </g>
     </g>
     <g id="text_6">
      <!-- 250 -->
      <g transform="translate(390.903691 372.215) scale(0.12 -0.12)">
       <use xlink:href="#SimHei-32"/>
       <use xlink:href="#SimHei-35" transform="translate(50 0)"/>
       <use xlink:href="#SimHei-30" transform="translate(100 0)"/>
      </g>
     </g>
    </g>
    <g id="xtick_7">
     <g id="line2d_13">
      <path d="M 463.471702 356.965 
L 463.471702 24.325 
" clip-path="url(#p38058ce8d1)" style="fill: none; stroke: #b0b0b0; stroke-opacity: 0.3; stroke-width: 0.8; stroke-linecap: square"/>
     </g>
     <g id="line2d_14">
      <g>
       <use xlink:href="#m945637e122" x="463.471702" y="356.965" style="stroke: #000000; stroke-width: 0.8"/>
      </g>
     </g>
     <g id="text_7">
      <!-- 300 -->
      <g transform="translate(454.471702 372.215) scale(0.12 -0.12)">
       <defs>
        <path id="SimHei-33" d="M 250 1225 
L 700 1300 
Q 800 975 1025 762 
Q 1250 550 1587 562 
Q 1925 575 2125 837 
Q 2325 1100 2300 1437 
Q 2275 1775 2037 1962 
Q 1800 2150 1275 2225 
L 1275 2550 
Q 1800 2600 2037 2825 
Q 2275 3050 2250 3412 
Q 2225 3775 1925 3937 
Q 1625 4100 1287 3975 
Q 950 3850 750 3275 
L 300 3350 
Q 450 3800 712 4100 
Q 975 4400 1425 4450 
Q 1875 4500 2212 4337 
Q 2550 4175 2687 3837 
Q 2825 3500 2725 3100 
Q 2625 2700 2150 2400 
Q 2500 2250 2687 1950 
Q 2875 1650 2812 1162 
Q 2750 675 2375 375 
Q 2000 75 1525 87 
Q 1050 100 700 387 
Q 350 675 250 1225 
z
" transform="scale(0.015625)"/>
       </defs>
       <use xlink:href="#SimHei-33"/>
       <use xlink:href="#SimHei-30" transform="translate(50 0)"/>
       <use xlink:href="#SimHei-30" transform="translate(100 0)"/>
      </g>
     </g>
    </g>
    <g id="xtick_8">
     <g id="line2d_15">
      <path d="M 527.039713 356.965 
L 527.039713 24.325 
" clip-path="url(#p38058ce8d1)" style="fill: none; stroke: #b0b0b0; stroke-opacity: 0.3; stroke-width: 0.8; stroke-linecap: square"/>
     </g>
     <g id="line2d_16">
      <g>
       <use xlink:href="#m945637e122" x="527.039713" y="356.965" style="stroke: #000000; stroke-width: 0.8"/>
      </g>
     </g>
     <g id="text_8">
      <!-- 350 -->
      <g transform="translate(518.039713 372.215) scale(0.12 -0.12)">
       <use xlink:href="#SimHei-33"/>
       <use xlink:href="#SimHei-35" transform="translate(50 0)"/>
       <use xlink:href="#SimHei-30" transform="translate(100 0)"/>
      </g>
     </g>
    </g>
    <g id="xtick_9">
     <g id="line2d_17">
      <path d="M 590.607724 356.965 
L 590.607724 24.325 
" clip-path="url(#p38058ce8d1)" style="fill: none; stroke: #b0b0b0; stroke-opacity: 0.3; stroke-width: 0.8; stroke-linecap: square"/>
     </g>
     <g id="line2d_18">
      <g>
       <use xlink:href="#m945637e122" x="590.607724" y="356.965" style="stroke: #000000; stroke-width: 0.8"/>
      </g>
     </g>
     <g id="text_9">
      <!-- 400 -->
      <g transform="translate(581.607724 372.215) scale(0.12 -0.12)">
       <defs>
        <path id="SimHei-34" d="M 2000 1100 
L 75 1100 
L 75 1525 
L 2100 4450 
L 2475 4450 
L 2475 1525 
L 3075 1525 
L 3075 1100 
L 2475 1100 
L 2475 150 
L 2000 150 
L 2000 1100 
z
M 2000 1525 
L 2000 3500 
L 600 1525 
L 2000 1525 
z
" transform="scale(0.015625)"/>
       </defs>
       <use xlink:href="#SimHei-34"/>
       <use xlink:href="#SimHei-30" transform="translate(50 0)"/>
       <use xlink:href="#SimHei-30" transform="translate(100 0)"/>
      </g>
     </g>
    </g>
    <g id="text_10">
     <!-- Episode -->
     <g transform="translate(307.7 388.715) scale(0.16 -0.16)">
      <defs>
       <path id="SimHei-45" d="M 2900 125 
L 350 125 
L 350 4400 
L 2775 4400 
L 2775 3925 
L 925 3925 
L 925 2600 
L 2625 2600 
L 2625 2125 
L 925 2125 
L 925 600 
L 2900 600 
L 2900 125 
z
" transform="scale(0.015625)"/>
       <path id="SimHei-70" d="M 2825 1525 
Q 2825 800 2475 425 
Q 2125 50 1625 50 
Q 1350 50 1150 162 
Q 950 275 800 500 
L 800 -800 
L 300 -800 
L 300 2925 
L 800 2925 
L 800 2550 
Q 950 2775 1150 2875 
Q 1350 2975 1625 2975 
Q 2125 2975 2475 2612 
Q 2825 2250 2825 1525 
z
M 2275 1525 
Q 2275 2000 2087 2262 
Q 1900 2525 1525 2525 
Q 1225 2525 1012 2262 
Q 800 2000 800 1525 
Q 800 1050 1012 775 
Q 1225 500 1525 500 
Q 1900 500 2087 775 
Q 2275 1050 2275 1525 
z
" transform="scale(0.015625)"/>
       <path id="SimHei-69" d="M 1800 3725 
L 1300 3725 
L 1300 4375 
L 1800 4375 
L 1800 3725 
z
M 1800 125 
L 1300 125 
L 1300 2925 
L 1800 2925 
L 1800 125 
z
" transform="scale(0.015625)"/>
       <path id="SimHei-73" d="M 2750 900 
Q 2750 500 2437 287 
Q 2125 75 1650 75 
Q 1050 75 725 312 
Q 400 550 400 1000 
L 900 1000 
Q 900 700 1112 600 
Q 1325 500 1625 500 
Q 1925 500 2075 612 
Q 2225 725 2225 900 
Q 2225 1025 2100 1150 
Q 1975 1275 1475 1350 
Q 900 1425 687 1637 
Q 475 1850 475 2200 
Q 475 2500 762 2737 
Q 1050 2975 1600 2975 
Q 2100 2975 2387 2750 
Q 2675 2525 2675 2150 
L 2175 2150 
Q 2175 2375 2012 2462 
Q 1850 2550 1600 2550 
Q 1275 2550 1137 2437 
Q 1000 2325 1000 2175 
Q 1000 2000 1125 1900 
Q 1250 1800 1650 1750 
Q 2300 1650 2525 1437 
Q 2750 1225 2750 900 
z
" transform="scale(0.015625)"/>
       <path id="SimHei-6f" d="M 2925 1525 
Q 2925 875 2525 475 
Q 2125 75 1575 75 
Q 1025 75 625 475 
Q 225 875 225 1525 
Q 225 2175 625 2575 
Q 1025 2975 1575 2975 
Q 2125 2975 2525 2575 
Q 2925 2175 2925 1525 
z
M 2375 1525 
Q 2375 2025 2125 2275 
Q 1875 2525 1575 2525 
Q 1275 2525 1025 2275 
Q 775 2025 775 1525 
Q 775 1025 1025 775 
Q 1275 525 1575 525 
Q 1875 525 2125 775 
Q 2375 1025 2375 1525 
z
" transform="scale(0.015625)"/>
       <path id="SimHei-64" d="M 2750 125 
L 2250 125 
L 2250 500 
Q 2100 275 1900 175 
Q 1700 75 1425 75 
Q 925 75 575 437 
Q 225 800 225 1525 
Q 225 2250 575 2625 
Q 925 3000 1425 3000 
Q 1700 3000 1900 2887 
Q 2100 2775 2250 2550 
L 2250 4400 
L 2750 4400 
L 2750 125 
z
M 2250 1525 
Q 2250 2000 2037 2275 
Q 1825 2550 1525 2550 
Q 1150 2550 962 2275 
Q 775 2000 775 1525 
Q 775 1050 962 787 
Q 1150 525 1525 525 
Q 1825 525 2037 787 
Q 2250 1050 2250 1525 
z
" transform="scale(0.015625)"/>
       <path id="SimHei-65" d="M 2850 1075 
Q 2800 625 2450 350 
Q 2100 75 1625 75 
Q 1025 75 637 462 
Q 250 850 250 1525 
Q 250 2200 637 2587 
Q 1025 2975 1625 2975 
Q 2150 2975 2487 2637 
Q 2825 2300 2825 1525 
L 800 1525 
Q 800 975 1037 750 
Q 1275 525 1625 525 
Q 1900 525 2075 662 
Q 2250 800 2300 1075 
L 2850 1075 
z
M 2250 1925 
Q 2200 2275 2025 2412 
Q 1850 2550 1575 2550 
Q 1325 2550 1125 2412 
Q 925 2275 825 1925 
L 2250 1925 
z
" transform="scale(0.015625)"/>
      </defs>
      <use xlink:href="#SimHei-45"/>
      <use xlink:href="#SimHei-70" transform="translate(50 0)"/>
      <use xlink:href="#SimHei-69" transform="translate(100 0)"/>
      <use xlink:href="#SimHei-73" transform="translate(150 0)"/>
      <use xlink:href="#SimHei-6f" transform="translate(200 0)"/>
      <use xlink:href="#SimHei-64" transform="translate(250 0)"/>
      <use xlink:href="#SimHei-65" transform="translate(300 0)"/>
     </g>
    </g>
   </g>
   <g id="matplotlib.axis_2">
    <g id="ytick_1">
     <g id="line2d_19">
      <path d="M 56.7 337.06923 
L 614.7 337.06923 
" clip-path="url(#p38058ce8d1)" style="fill: none; stroke: #b0b0b0; stroke-opacity: 0.3; stroke-width: 0.8; stroke-linecap: square"/>
     </g>
     <g id="line2d_20">
      <defs>
       <path id="mce2faaa568" d="M 0 0 
L -3.5 0 
" style="stroke: #000000; stroke-width: 0.8"/>
      </defs>
      <g>
       <use xlink:href="#mce2faaa568" x="56.7" y="337.06923" style="stroke: #000000; stroke-width: 0.8"/>
      </g>
     </g>
     <g id="text_11">
      <!-- 0.05 -->
      <g transform="translate(25.7 341.19423) scale(0.12 -0.12)">
       <defs>
        <path id="SimHei-2e" d="M 1075 125 
L 500 125 
L 500 675 
L 1075 675 
L 1075 125 
z
" transform="scale(0.015625)"/>
       </defs>
       <use xlink:href="#SimHei-30"/>
       <use xlink:href="#SimHei-2e" transform="translate(50 0)"/>
       <use xlink:href="#SimHei-30" transform="translate(100 0)"/>
       <use xlink:href="#SimHei-35" transform="translate(150 0)"/>
      </g>
     </g>
    </g>
    <g id="ytick_2">
     <g id="line2d_21">
      <path d="M 56.7 268.471197 
L 614.7 268.471197 
" clip-path="url(#p38058ce8d1)" style="fill: none; stroke: #b0b0b0; stroke-opacity: 0.3; stroke-width: 0.8; stroke-linecap: square"/>
     </g>
     <g id="line2d_22">
      <g>
       <use xlink:href="#mce2faaa568" x="56.7" y="268.471197" style="stroke: #000000; stroke-width: 0.8"/>
      </g>
     </g>
     <g id="text_12">
      <!-- 0.10 -->
      <g transform="translate(25.7 272.596197) scale(0.12 -0.12)">
       <use xlink:href="#SimHei-30"/>
       <use xlink:href="#SimHei-2e" transform="translate(50 0)"/>
       <use xlink:href="#SimHei-31" transform="translate(100 0)"/>
       <use xlink:href="#SimHei-30" transform="translate(150 0)"/>
      </g>
     </g>
    </g>
    <g id="ytick_3">
     <g id="line2d_23">
      <path d="M 56.7 199.873163 
L 614.7 199.873163 
" clip-path="url(#p38058ce8d1)" style="fill: none; stroke: #b0b0b0; stroke-opacity: 0.3; stroke-width: 0.8; stroke-linecap: square"/>
     </g>
     <g id="line2d_24">
      <g>
       <use xlink:href="#mce2faaa568" x="56.7" y="199.873163" style="stroke: #000000; stroke-width: 0.8"/>
      </g>
     </g>
     <g id="text_13">
      <!-- 0.15 -->
      <g transform="translate(25.7 203.998163) scale(0.12 -0.12)">
       <use xlink:href="#SimHei-30"/>
       <use xlink:href="#SimHei-2e" transform="translate(50 0)"/>
       <use xlink:href="#SimHei-31" transform="translate(100 0)"/>
       <use xlink:href="#SimHei-35" transform="translate(150 0)"/>
      </g>
     </g>
    </g>
    <g id="ytick_4">
     <g id="line2d_25">
      <path d="M 56.7 131.27513 
L 614.7 131.27513 
" clip-path="url(#p38058ce8d1)" style="fill: none; stroke: #b0b0b0; stroke-opacity: 0.3; stroke-width: 0.8; stroke-linecap: square"/>
     </g>
     <g id="line2d_26">
      <g>
       <use xlink:href="#mce2faaa568" x="56.7" y="131.27513" style="stroke: #000000; stroke-width: 0.8"/>
      </g>
     </g>
     <g id="text_14">
      <!-- 0.20 -->
      <g transform="translate(25.7 135.40013) scale(0.12 -0.12)">
       <use xlink:href="#SimHei-30"/>
       <use xlink:href="#SimHei-2e" transform="translate(50 0)"/>
       <use xlink:href="#SimHei-32" transform="translate(100 0)"/>
       <use xlink:href="#SimHei-30" transform="translate(150 0)"/>
      </g>
     </g>
    </g>
    <g id="ytick_5">
     <g id="line2d_27">
      <path d="M 56.7 62.677097 
L 614.7 62.677097 
" clip-path="url(#p38058ce8d1)" style="fill: none; stroke: #b0b0b0; stroke-opacity: 0.3; stroke-width: 0.8; stroke-linecap: square"/>
     </g>
     <g id="line2d_28">
      <g>
       <use xlink:href="#mce2faaa568" x="56.7" y="62.677097" style="stroke: #000000; stroke-width: 0.8"/>
      </g>
     </g>
     <g id="text_15">
      <!-- 0.25 -->
      <g transform="translate(25.7 66.802097) scale(0.12 -0.12)">
       <use xlink:href="#SimHei-30"/>
       <use xlink:href="#SimHei-2e" transform="translate(50 0)"/>
       <use xlink:href="#SimHei-32" transform="translate(100 0)"/>
       <use xlink:href="#SimHei-35" transform="translate(150 0)"/>
      </g>
     </g>
    </g>
    <g id="text_16">
     <!-- Delay (s) -->
     <g transform="translate(19.7 226.645) rotate(-90) scale(0.16 -0.16)">
      <defs>
       <path id="SimHei-44" d="M 2925 2250 
Q 2925 1100 2437 612 
Q 1950 125 1125 125 
L 275 125 
L 275 4400 
L 1125 4400 
Q 2050 4400 2487 3900 
Q 2925 3400 2925 2250 
z
M 2325 2250 
Q 2325 3175 2025 3550 
Q 1725 3925 1125 3925 
L 850 3925 
L 850 600 
L 1125 600 
Q 1725 600 2025 962 
Q 2325 1325 2325 2250 
z
" transform="scale(0.015625)"/>
       <path id="SimHei-6c" d="M 1825 125 
L 1325 125 
L 1325 4400 
L 1825 4400 
L 1825 125 
z
" transform="scale(0.015625)"/>
       <path id="SimHei-61" d="M 2875 125 
L 2275 125 
Q 2225 175 2200 262 
Q 2175 350 2175 475 
Q 2000 275 1750 175 
Q 1500 75 1225 75 
Q 825 75 550 275 
Q 275 475 275 850 
Q 275 1225 525 1450 
Q 775 1675 1300 1750 
Q 1650 1800 1912 1875 
Q 2175 1950 2175 2075 
Q 2175 2225 2062 2375 
Q 1950 2525 1575 2525 
Q 1275 2525 1137 2412 
Q 1000 2300 950 2100 
L 400 2100 
Q 450 2500 762 2737 
Q 1075 2975 1575 2975 
Q 2125 2975 2400 2725 
Q 2675 2475 2675 2025 
L 2675 650 
Q 2675 500 2725 375 
Q 2775 250 2875 125 
z
M 2175 1050 
L 2175 1550 
Q 2025 1500 1887 1462 
Q 1750 1425 1425 1375 
Q 1050 1325 937 1200 
Q 825 1075 825 900 
Q 825 750 937 637 
Q 1050 525 1275 525 
Q 1500 525 1762 650 
Q 2025 775 2175 1050 
z
" transform="scale(0.015625)"/>
       <path id="SimHei-79" d="M 2900 2925 
L 1750 -100 
Q 1650 -450 1450 -625 
Q 1250 -800 950 -800 
Q 825 -800 712 -787 
Q 600 -775 500 -725 
L 500 -225 
Q 600 -275 700 -300 
Q 800 -325 875 -325 
Q 1075 -325 1150 -262 
Q 1225 -200 1300 25 
L 200 2925 
L 750 2925 
L 1550 725 
L 1575 725 
L 2350 2925 
L 2900 2925 
z
" transform="scale(0.015625)"/>
       <path id="SimHei-20" transform="scale(0.015625)"/>
       <path id="SimHei-28" d="M 2975 -200 
L 2700 -475 
Q 2075 125 1762 775 
Q 1450 1425 1450 2250 
Q 1450 3075 1762 3725 
Q 2075 4375 2700 5000 
L 2975 4725 
Q 2400 4175 2112 3587 
Q 1825 3000 1825 2250 
Q 1825 1500 2112 912 
Q 2400 325 2975 -200 
z
" transform="scale(0.015625)"/>
       <path id="SimHei-29" d="M 1675 2250 
Q 1675 1425 1362 775 
Q 1050 125 425 -475 
L 150 -200 
Q 725 325 1012 912 
Q 1300 1500 1300 2250 
Q 1300 3000 1012 3587 
Q 725 4175 150 4725 
L 425 5000 
Q 1050 4375 1362 3725 
Q 1675 3075 1675 2250 
z
" transform="scale(0.015625)"/>
      </defs>
      <use xlink:href="#SimHei-44"/>
      <use xlink:href="#SimHei-65" transform="translate(50 0)"/>
      <use xlink:href="#SimHei-6c" transform="translate(100 0)"/>
      <use xlink:href="#SimHei-61" transform="translate(150 0)"/>
      <use xlink:href="#SimHei-79" transform="translate(200 0)"/>
      <use xlink:href="#SimHei-20" transform="translate(250 0)"/>
      <use xlink:href="#SimHei-28" transform="translate(300 0)"/>
      <use xlink:href="#SimHei-73" transform="translate(350 0)"/>
      <use xlink:href="#SimHei-29" transform="translate(400 0)"/>
     </g>
    </g>
   </g>
   <g id="line2d_29">
    <path d="M 82.063636 323.388591 
L 83.334997 311.511722 
L 84.606357 312.266131 
L 85.877717 303.737484 
L 88.420437 306.56544 
L 89.691798 306.29747 
L 90.963158 304.259391 
L 92.234518 298.765375 
L 93.505878 300.772191 
L 94.777239 301.178083 
L 96.048599 301.24037 
L 97.319959 301.634498 
L 98.591319 289.437766 
L 99.862679 291.798552 
L 101.13404 290.396204 
L 102.4054 294.547291 
L 103.67676 289.720649 
L 104.94812 293.028857 
L 106.219481 295.949251 
L 107.490841 297.553234 
L 108.762201 281.334577 
L 110.033561 286.53654 
L 111.304921 280.230346 
L 112.576282 279.589508 
L 115.119002 291.719341 
L 116.390362 295.696862 
L 117.661722 299.040018 
L 118.933083 302.92582 
L 120.204443 307.401061 
L 121.475803 309.320256 
L 124.018524 316.212453 
L 125.289884 319.029461 
L 126.561244 320.456712 
L 127.832604 322.891028 
L 129.103964 324.924584 
L 130.375325 325.696387 
L 131.646685 327.072071 
L 132.918045 328.936501 
L 134.189405 329.20755 
L 135.460766 330.375309 
L 136.732126 330.915366 
L 138.003486 330.796111 
L 139.274846 331.408152 
L 140.546206 332.421365 
L 141.817567 333.029947 
L 143.088927 334.230925 
L 144.360287 334.355531 
L 145.631647 335.216898 
L 146.903008 334.840216 
L 148.174368 335.44678 
L 150.717088 335.242605 
L 151.988448 335.292005 
L 153.259809 335.605652 
L 154.531169 335.566081 
L 155.802529 336.637683 
L 157.073889 336.563483 
L 158.345249 337.204094 
L 159.61661 336.051343 
L 160.88797 336.26841 
L 162.15933 336.019401 
L 163.43069 336.037585 
L 167.244771 337.930321 
L 169.787491 337.190341 
L 171.058852 337.149589 
L 172.330212 337.534204 
L 173.601572 337.392475 
L 174.872932 338.449988 
L 176.144293 339.028881 
L 177.415653 338.587538 
L 178.687013 337.803808 
L 179.958373 336.861462 
L 181.229733 335.531432 
L 182.501094 316.556776 
L 183.772454 318.725868 
L 185.043814 319.886911 
L 186.315174 314.69476 
L 187.586535 316.274706 
L 188.857895 319.020482 
L 190.129255 320.852423 
L 191.400615 322.305849 
L 192.671975 324.096499 
L 193.943336 312.468797 
L 195.214696 309.863198 
L 196.486056 307.917627 
L 199.028776 313.572183 
L 200.300137 297.023561 
L 202.842857 305.935663 
L 204.114217 308.917844 
L 205.385578 293.006189 
L 207.928298 302.616478 
L 209.199658 297.443012 
L 210.471018 300.710325 
L 211.742379 291.974703 
L 213.013739 287.791118 
L 214.285099 291.514081 
L 215.556459 286.540614 
L 216.82782 282.478069 
L 218.09918 272.571372 
L 219.37054 260.212926 
L 220.6419 256.855499 
L 221.91326 252.360112 
L 223.184621 260.371303 
L 224.455981 243.244707 
L 225.727341 238.311265 
L 226.998701 246.430373 
L 228.270062 237.971184 
L 229.541422 244.547108 
L 230.812782 223.024681 
L 232.084142 231.004715 
L 233.355502 231.923384 
L 234.626863 222.6331 
L 235.898223 227.964266 
L 237.169583 211.703844 
L 238.440943 209.472423 
L 239.712303 218.569049 
L 240.983664 209.08149 
L 242.255024 214.547457 
L 243.526384 205.023934 
L 244.797744 202.833823 
L 246.069105 196.996929 
L 247.340465 200.635841 
L 248.611825 200.651291 
L 249.883185 200.509141 
L 251.154545 207.185483 
L 252.425906 207.889307 
L 253.697266 205.444243 
L 254.968626 195.866349 
L 256.239986 193.427485 
L 257.511347 195.183722 
L 258.782707 197.924972 
L 260.054067 189.244418 
L 261.325427 175.467923 
L 262.596787 186.850109 
L 263.868148 174.375458 
L 265.139508 184.638814 
L 266.410868 179.725503 
L 267.682228 172.416156 
L 268.953589 180.054861 
L 270.224949 174.091896 
L 271.496309 183.46646 
L 272.767669 183.333815 
L 274.039029 185.585849 
L 275.31039 194.138194 
L 276.58175 190.626791 
L 277.85311 192.577704 
L 279.12447 195.821039 
L 280.39583 184.406879 
L 281.667191 183.182874 
L 282.938551 168.238285 
L 284.209911 160.176222 
L 285.481271 147.19727 
L 286.752632 151.892462 
L 288.023992 143.078712 
L 289.295352 150.418607 
L 290.566712 142.374482 
L 291.838072 157.711489 
L 293.109433 163.942097 
L 294.380793 167.498149 
L 295.652153 161.03888 
L 296.923513 153.372361 
L 298.194874 164.5974 
L 299.466234 167.217297 
L 300.737594 173.379288 
L 302.008954 165.06868 
L 303.280314 162.541631 
L 304.551675 158.507293 
L 305.823035 158.548093 
L 307.094395 149.55244 
L 308.365755 155.556419 
L 309.637116 165.2007 
L 310.908476 165.78494 
L 312.179836 176.533602 
L 313.451196 169.813947 
L 315.993917 173.147537 
L 317.265277 166.548803 
L 318.536637 166.094333 
L 319.807997 167.324073 
L 321.079357 172.500268 
L 322.350718 176.310343 
L 323.622078 169.211663 
L 324.893438 165.314537 
L 326.164798 167.172551 
L 327.436159 163.272696 
L 328.707519 175.153948 
L 329.978879 175.792442 
L 331.250239 172.219151 
L 332.521599 176.309887 
L 333.79296 182.352129 
L 335.06432 185.936075 
L 336.33568 182.318693 
L 337.60704 181.869686 
L 338.878401 175.01199 
L 340.149761 185.406949 
L 341.421121 183.87641 
L 342.692481 176.055517 
L 343.963841 179.558868 
L 345.235202 169.891067 
L 346.506562 169.600303 
L 347.777922 169.455284 
L 349.049282 152.129736 
L 350.320643 151.396154 
L 351.592003 156.742599 
L 352.863363 144.229436 
L 354.134723 149.285531 
L 355.406083 147.478237 
L 356.677444 158.878993 
L 357.948804 153.368138 
L 359.220164 155.073282 
L 360.491524 162.144309 
L 361.762884 168.396866 
L 363.034245 178.733594 
L 364.305605 175.893756 
L 365.576965 176.42238 
L 366.848325 181.432805 
L 368.119686 173.00326 
L 369.391046 180.567652 
L 370.662406 179.688859 
L 371.933766 167.438353 
L 373.205126 166.907084 
L 374.476487 176.326078 
L 375.747847 189.912585 
L 377.019207 185.60058 
L 378.290567 179.053428 
L 379.561928 176.679927 
L 380.833288 177.708784 
L 382.104648 176.894273 
L 384.647368 185.332772 
L 385.918729 191.694614 
L 387.190089 200.019658 
L 388.461449 195.619952 
L 389.732809 182.688601 
L 391.00417 175.001579 
L 392.27553 186.417536 
L 393.54689 183.741289 
L 394.81825 180.435223 
L 396.08961 189.14905 
L 397.360971 192.599638 
L 398.632331 190.047148 
L 399.903691 176.564703 
L 401.175051 188.947045 
L 402.446411 184.2035 
L 403.717772 195.467127 
L 404.989132 183.234483 
L 406.260492 186.087896 
L 407.531852 191.272007 
L 410.074573 194.827915 
L 411.345933 191.3073 
L 412.617293 200.19287 
L 413.888653 189.345872 
L 415.160014 198.303766 
L 416.431374 189.031891 
L 417.702734 178.545206 
L 418.974094 175.740438 
L 420.245455 167.186129 
L 421.516815 180.296446 
L 422.788175 183.275862 
L 424.059535 195.017828 
L 425.330895 193.190716 
L 426.602256 195.853877 
L 427.873616 199.687516 
L 429.144976 188.000638 
L 430.416336 178.315185 
L 431.687697 172.867897 
L 432.959057 172.694962 
L 434.230417 171.844471 
L 435.501777 164.749348 
L 436.773137 160.830759 
L 438.044498 158.871504 
L 439.315858 158.813623 
L 440.587218 149.783195 
L 441.858578 161.533537 
L 443.129938 163.100852 
L 444.401299 163.801478 
L 445.672659 154.136298 
L 446.944019 160.923473 
L 448.215379 159.105466 
L 449.48674 142.328001 
L 450.7581 153.150113 
L 452.02946 168.717402 
L 453.30082 165.309617 
L 454.57218 158.295411 
L 455.843541 163.437872 
L 457.114901 165.234293 
L 458.386261 157.572441 
L 459.657621 163.870615 
L 460.928982 162.800915 
L 462.200342 169.717907 
L 463.471702 165.779227 
L 464.743062 169.463564 
L 466.014422 162.268503 
L 467.285783 171.622947 
L 468.557143 171.097066 
L 469.828503 171.11391 
L 471.099863 173.055448 
L 472.371224 156.151802 
L 473.642584 157.682584 
L 474.913944 158.076387 
L 476.185304 171.426686 
L 477.456664 181.78756 
L 479.999385 197.070186 
L 481.270745 202.710892 
L 482.542105 207.145167 
L 483.813465 213.658822 
L 485.084826 215.721129 
L 486.356186 222.361697 
L 487.627546 217.712445 
L 488.898906 212.098407 
L 490.170267 195.130798 
L 491.441627 197.657542 
L 492.712987 180.629733 
L 493.984347 176.99351 
L 495.255707 184.877257 
L 496.527068 187.457475 
L 497.798428 196.105921 
L 499.069788 202.899161 
L 500.341148 198.931242 
L 501.612509 206.060643 
L 502.883869 208.944126 
L 504.155229 213.92572 
L 505.426589 202.618413 
L 506.697949 206.752578 
L 507.96931 209.623179 
L 509.24067 209.965403 
L 510.51203 200.738377 
L 511.78339 203.449216 
L 514.326111 192.805105 
L 515.597471 198.399156 
L 516.868831 201.13024 
L 518.140191 199.761922 
L 519.411552 193.213547 
L 520.682912 194.698267 
L 521.954272 187.879879 
L 523.225632 187.831586 
L 524.496992 188.517946 
L 525.768353 201.428584 
L 527.039713 192.571235 
L 528.311073 187.753632 
L 529.582433 189.91958 
L 530.853794 178.524469 
L 532.125154 181.932224 
L 533.396514 184.916692 
L 534.667874 194.168921 
L 535.939234 200.383021 
L 537.210595 208.622841 
L 538.481955 205.930709 
L 539.753315 204.494137 
L 541.024675 190.396715 
L 542.296036 197.9788 
L 543.567396 199.017336 
L 544.838756 200.343104 
L 546.110116 183.113023 
L 547.381476 178.280437 
L 548.652837 177.747859 
L 549.924197 182.333176 
L 551.195557 180.770232 
L 552.466917 186.756622 
L 553.738278 182.091606 
L 555.009638 188.349925 
L 556.280998 199.106553 
L 557.552358 185.99583 
L 558.823718 188.639872 
L 560.095079 186.17219 
L 561.366439 173.230215 
L 562.637799 175.157581 
L 563.909159 174.754866 
L 565.180519 178.179002 
L 566.45188 186.607628 
L 567.72324 184.147429 
L 568.9946 179.398072 
L 570.26596 180.235708 
L 571.537321 168.698518 
L 572.808681 176.49628 
L 574.080041 178.594407 
L 575.351401 172.767308 
L 576.622761 171.91596 
L 577.894122 183.010846 
L 579.165482 190.947418 
L 580.436842 185.406958 
L 581.708202 175.362593 
L 582.979563 170.630269 
L 584.250923 181.013107 
L 585.522283 181.431686 
L 586.793643 168.886538 
L 588.065003 166.307237 
L 588.065003 166.307237 
" clip-path="url(#p38058ce8d1)" style="fill: none; stroke: #1f77b4; stroke-width: 1.2; stroke-linecap: square"/>
   </g>
   <g id="line2d_30">
    <path d="M 82.063636 71.799066 
L 83.334997 80.138088 
L 84.606357 75.525898 
L 85.877717 81.533755 
L 87.149077 88.815534 
L 88.420437 92.697 
L 89.691798 93.6992 
L 90.963158 89.68545 
L 92.234518 88.260201 
L 93.505878 93.916103 
L 94.777239 94.456398 
L 96.048599 99.237335 
L 97.319959 97.10837 
L 98.591319 88.983372 
L 99.862679 92.131307 
L 101.13404 92.450637 
L 102.4054 97.261802 
L 103.67676 95.995762 
L 104.94812 97.670744 
L 106.219481 97.642274 
L 107.490841 104.076778 
L 108.762201 104.046154 
L 110.033561 112.832165 
L 111.304921 116.72849 
L 112.576282 117.354903 
L 113.847642 117.059056 
L 118.933083 120.656485 
L 120.204443 115.808154 
L 121.475803 110.10716 
L 122.747163 106.153321 
L 124.018524 105.356826 
L 125.289884 103.452166 
L 126.561244 103.237507 
L 129.103964 106.828891 
L 130.375325 107.762502 
L 131.646685 107.835884 
L 132.918045 119.75512 
L 134.189405 125.536313 
L 135.460766 133.900628 
L 136.732126 138.419669 
L 138.003486 139.662104 
L 139.274846 139.998114 
L 140.546206 146.174843 
L 141.817567 145.197585 
L 144.360287 152.766336 
L 145.631647 151.371106 
L 146.903008 152.343319 
L 148.174368 152.87691 
L 149.445728 151.753116 
L 150.717088 148.401526 
L 151.988448 146.512544 
L 153.259809 149.53132 
L 154.531169 150.331127 
L 155.802529 150.00142 
L 157.073889 147.807658 
L 158.345249 155.153566 
L 159.61661 157.919989 
L 160.88797 155.754507 
L 162.15933 163.971395 
L 163.43069 165.898299 
L 164.702051 165.161084 
L 167.244771 174.706989 
L 168.516131 167.174078 
L 169.787491 176.085924 
L 171.058852 175.525492 
L 172.330212 181.170876 
L 173.601572 189.561488 
L 174.872932 191.105142 
L 176.144293 190.454918 
L 177.415653 190.601166 
L 178.687013 187.346227 
L 181.229733 194.987213 
L 182.501094 197.259528 
L 183.772454 204.849077 
L 185.043814 205.738256 
L 186.315174 212.890361 
L 187.586535 213.655518 
L 188.857895 214.850418 
L 190.129255 215.004805 
L 191.400615 213.82792 
L 192.671975 219.066835 
L 193.943336 213.201809 
L 195.214696 212.369628 
L 196.486056 214.276584 
L 197.757416 211.509609 
L 199.028776 210.309105 
L 200.300137 209.769661 
L 201.571497 212.521915 
L 202.842857 216.70343 
L 204.114217 218.3215 
L 205.385578 214.860708 
L 206.656938 217.84088 
L 209.199658 225.996525 
L 210.471018 224.712571 
L 211.742379 227.934003 
L 214.285099 228.062161 
L 215.556459 223.717909 
L 216.82782 225.574571 
L 218.09918 230.103763 
L 219.37054 232.066912 
L 220.6419 233.397493 
L 221.91326 238.885141 
L 223.184621 232.362077 
L 224.455981 238.841113 
L 225.727341 238.34285 
L 226.998701 240.316183 
L 228.270062 233.813519 
L 229.541422 233.969661 
L 230.812782 234.670917 
L 232.084142 238.358659 
L 233.355502 241.140968 
L 234.626863 244.304635 
L 235.898223 249.57705 
L 237.169583 249.559821 
L 238.440943 251.288353 
L 239.712303 254.381451 
L 240.983664 252.447216 
L 242.255024 252.775295 
L 243.526384 256.749912 
L 244.797744 253.372569 
L 246.069105 258.560239 
L 247.340465 253.321118 
L 248.611825 257.331119 
L 249.883185 259.396094 
L 251.154545 262.07034 
L 252.425906 266.058476 
L 253.697266 265.732676 
L 254.968626 264.183272 
L 256.239986 264.290107 
L 257.511347 262.752098 
L 258.782707 265.675135 
L 260.054067 269.644177 
L 261.325427 271.375905 
L 262.596787 269.895779 
L 263.868148 270.614399 
L 265.139508 273.013798 
L 266.410868 276.265293 
L 267.682228 280.596067 
L 268.953589 281.930404 
L 270.224949 279.657587 
L 271.496309 283.006234 
L 272.767669 285.637753 
L 274.039029 280.82582 
L 275.31039 284.284326 
L 276.58175 284.920928 
L 277.85311 283.906596 
L 279.12447 286.300653 
L 280.39583 285.07165 
L 281.667191 283.271296 
L 282.938551 287.783301 
L 284.209911 290.5943 
L 285.481271 294.758947 
L 286.752632 295.303003 
L 288.023992 295.280637 
L 289.295352 297.821273 
L 290.566712 301.186505 
L 291.838072 299.60006 
L 293.109433 300.816225 
L 294.380793 298.541785 
L 295.652153 301.168203 
L 296.923513 300.642909 
L 298.194874 299.809611 
L 299.466234 298.292377 
L 300.737594 297.732408 
L 302.008954 299.999305 
L 303.280314 297.979254 
L 304.551675 295.326852 
L 305.823035 298.507491 
L 307.094395 299.109286 
L 308.365755 294.929289 
L 309.637116 295.518511 
L 310.908476 295.320068 
L 312.179836 292.693121 
L 313.451196 296.506462 
L 314.722556 297.574267 
L 315.993917 298.387543 
L 317.265277 298.323506 
L 318.536637 297.416012 
L 319.807997 295.487696 
L 321.079357 294.502616 
L 322.350718 296.742641 
L 323.622078 298.404425 
L 326.164798 300.056059 
L 327.436159 297.740263 
L 328.707519 299.249394 
L 329.978879 301.433143 
L 331.250239 296.85728 
L 332.521599 299.902652 
L 333.79296 294.751658 
L 335.06432 297.644103 
L 336.33568 296.626809 
L 337.60704 297.119764 
L 338.878401 299.731354 
L 340.149761 300.687253 
L 341.421121 301.293809 
L 342.692481 302.513814 
L 343.963841 305.660726 
L 345.235202 305.240153 
L 346.506562 305.424204 
L 347.777922 308.063286 
L 349.049282 307.871842 
L 351.592003 312.852755 
L 352.863363 313.667305 
L 354.134723 309.27904 
L 355.406083 310.00293 
L 356.677444 309.914233 
L 357.948804 310.404729 
L 359.220164 312.418173 
L 360.491524 313.636988 
L 361.762884 313.642316 
L 363.034245 315.367969 
L 364.305605 317.763316 
L 365.576965 318.954664 
L 366.848325 319.37315 
L 368.119686 317.645059 
L 369.391046 318.301119 
L 370.662406 318.37172 
L 371.933766 320.55563 
L 373.205126 320.903813 
L 374.476487 320.638603 
L 375.747847 319.510129 
L 377.019207 319.728847 
L 378.290567 318.494975 
L 379.561928 317.879311 
L 380.833288 318.817736 
L 382.104648 320.963854 
L 383.376008 320.276337 
L 384.647368 320.762824 
L 385.918729 322.811385 
L 387.190089 319.892123 
L 388.461449 317.908593 
L 389.732809 319.263057 
L 391.00417 319.31266 
L 392.27553 319.571667 
L 393.54689 320.971545 
L 394.81825 321.991124 
L 396.08961 321.731908 
L 397.360971 322.944284 
L 398.632331 324.339613 
L 399.903691 324.654321 
L 401.175051 325.870999 
L 402.446411 326.608909 
L 403.717772 326.894711 
L 404.989132 328.465656 
L 406.260492 327.270009 
L 407.531852 326.583824 
L 408.803213 325.356469 
L 410.074573 327.127382 
L 411.345933 328.677605 
L 412.617293 327.115479 
L 413.888653 328.424415 
L 415.160014 328.784336 
L 416.431374 328.66925 
L 417.702734 327.2874 
L 418.974094 327.987362 
L 421.516815 330.320105 
L 422.788175 329.599148 
L 424.059535 330.679342 
L 425.330895 331.910898 
L 426.602256 329.827035 
L 427.873616 330.47495 
L 429.144976 329.700356 
L 430.416336 328.668451 
L 431.687697 328.481076 
L 432.959057 326.003885 
L 434.230417 327.021901 
L 435.501777 327.637705 
L 436.773137 326.947666 
L 438.044498 326.392606 
L 439.315858 326.565705 
L 440.587218 327.227418 
L 441.858578 328.671263 
L 443.129938 329.154371 
L 444.401299 329.938095 
L 445.672659 329.35106 
L 446.944019 329.518699 
L 448.215379 328.953953 
L 449.48674 328.926304 
L 450.7581 326.42072 
L 452.02946 326.688264 
L 453.30082 328.30324 
L 454.57218 324.892321 
L 455.843541 324.451702 
L 457.114901 325.030775 
L 458.386261 322.932369 
L 459.657621 325.09314 
L 460.928982 324.231947 
L 462.200342 325.273881 
L 463.471702 325.545446 
L 464.743062 327.205153 
L 466.014422 327.143785 
L 467.285783 327.959853 
L 468.557143 328.580928 
L 469.828503 330.229523 
L 472.371224 331.94981 
L 473.642584 331.947142 
L 474.913944 333.990943 
L 477.456664 334.675071 
L 481.270745 335.930366 
L 482.542105 335.261579 
L 485.084826 334.338136 
L 486.356186 335.033878 
L 487.627546 335.399558 
L 488.898906 336.253401 
L 490.170267 336.23665 
L 492.712987 335.727271 
L 493.984347 336.417561 
L 495.255707 335.492899 
L 496.527068 335.26252 
L 497.798428 335.39307 
L 499.069788 335.287377 
L 500.341148 334.770079 
L 501.612509 335.888626 
L 502.883869 333.597125 
L 504.155229 334.128052 
L 505.426589 331.495301 
L 506.697949 332.977733 
L 507.96931 332.032505 
L 509.24067 333.088295 
L 510.51203 333.568462 
L 511.78339 333.44203 
L 513.054751 334.184063 
L 514.326111 334.017882 
L 515.597471 333.485191 
L 516.868831 332.757938 
L 518.140191 332.707302 
L 519.411552 329.06824 
L 520.682912 328.908602 
L 521.954272 329.315061 
L 523.225632 330.530347 
L 524.496992 328.95098 
L 525.768353 328.683861 
L 528.311073 329.009909 
L 529.582433 330.378138 
L 530.853794 330.765025 
L 532.125154 330.635654 
L 533.396514 327.150216 
L 534.667874 328.221164 
L 535.939234 329.523712 
L 537.210595 328.011182 
L 538.481955 327.787051 
L 539.753315 328.729314 
L 541.024675 328.684437 
L 542.296036 328.761815 
L 543.567396 329.987932 
L 544.838756 330.972021 
L 547.381476 330.874886 
L 548.652837 332.123555 
L 549.924197 331.917185 
L 551.195557 331.834225 
L 552.466917 332.519237 
L 553.738278 332.372698 
L 555.009638 331.610247 
L 556.280998 332.241253 
L 557.552358 329.997874 
L 558.823718 330.968573 
L 560.095079 330.820293 
L 561.366439 332.301942 
L 562.637799 331.13606 
L 563.909159 331.463949 
L 565.180519 331.183482 
L 566.45188 331.103809 
L 567.72324 330.248746 
L 568.9946 328.877173 
L 571.537321 328.577562 
L 572.808681 330.427307 
L 574.080041 328.895126 
L 575.351401 329.361176 
L 576.622761 329.082961 
L 577.894122 330.176593 
L 581.708202 332.456061 
L 582.979563 332.841331 
L 584.250923 333.996669 
L 585.522283 332.449208 
L 586.793643 330.197673 
L 588.065003 331.194767 
L 588.065003 331.194767 
" clip-path="url(#p38058ce8d1)" style="fill: none; stroke: #ff7f0e; stroke-width: 1.2; stroke-linecap: square"/>
   </g>
   <g id="line2d_31">
    <path d="M 82.063636 121.196761 
L 83.334997 112.471412 
L 84.606357 101.222509 
L 85.877717 96.336493 
L 87.149077 94.001064 
L 88.420437 90.371305 
L 89.691798 83.345637 
L 90.963158 81.177499 
L 92.234518 86.316276 
L 93.505878 87.502222 
L 94.777239 89.224535 
L 96.048599 82.436858 
L 97.319959 76.711307 
L 98.591319 74.279421 
L 99.862679 79.764592 
L 101.13404 78.376192 
L 102.4054 81.453598 
L 103.67676 83.090509 
L 104.94812 85.851542 
L 106.219481 84.768576 
L 107.490841 84.03938 
L 108.762201 80.999423 
L 110.033561 87.258608 
L 111.304921 78.773589 
L 112.576282 75.161186 
L 115.119002 65.057259 
L 116.390362 62.702204 
L 117.661722 55.042481 
L 118.933083 53.908087 
L 120.204443 52.341044 
L 121.475803 46.121999 
L 122.747163 48.512513 
L 124.018524 49.182764 
L 125.289884 45.445951 
L 126.561244 43.180425 
L 127.832604 39.445 
L 129.103964 41.270828 
L 130.375325 40.138681 
L 131.646685 41.254282 
L 132.918045 39.557871 
L 135.460766 56.914631 
L 136.732126 62.537314 
L 139.274846 83.603874 
L 141.817567 109.072056 
L 143.088927 112.456701 
L 144.360287 118.614799 
L 145.631647 121.018911 
L 148.174368 128.945307 
L 149.445728 136.26125 
L 150.717088 145.068097 
L 151.988448 151.371396 
L 153.259809 154.971825 
L 154.531169 159.507368 
L 155.802529 159.213951 
L 157.073889 160.910878 
L 158.345249 161.657979 
L 159.61661 160.185395 
L 160.88797 162.623378 
L 163.43069 180.640032 
L 165.973411 190.189569 
L 167.244771 193.89512 
L 168.516131 196.60183 
L 169.787491 204.731868 
L 171.058852 202.072313 
L 172.330212 202.986633 
L 173.601572 205.149968 
L 174.872932 210.002257 
L 176.144293 212.140746 
L 177.415653 215.744443 
L 178.687013 215.973116 
L 179.958373 221.099867 
L 181.229733 224.887097 
L 182.501094 232.877793 
L 183.772454 244.19198 
L 185.043814 254.17983 
L 187.586535 269.999652 
L 188.857895 277.007708 
L 191.400615 288.397659 
L 193.943336 298.080134 
L 195.214696 302.110201 
L 196.486056 304.908843 
L 197.757416 308.881953 
L 199.028776 311.448393 
L 201.571497 317.147263 
L 202.842857 318.990627 
L 204.114217 321.039735 
L 205.385578 322.718745 
L 206.656938 323.254602 
L 207.928298 324.375544 
L 209.199658 326.540997 
L 211.742379 328.159691 
L 214.285099 330.300409 
L 215.556459 331.940818 
L 216.82782 332.652576 
L 218.09918 332.755668 
L 219.37054 334.628059 
L 220.6419 335.140134 
L 221.91326 335.774691 
L 223.184621 335.465429 
L 225.727341 336.432576 
L 226.998701 336.353539 
L 228.270062 336.41505 
L 229.541422 336.598162 
L 230.812782 337.539939 
L 232.084142 337.785748 
L 233.355502 336.824849 
L 234.626863 336.861154 
L 235.898223 337.018837 
L 237.169583 336.261648 
L 238.440943 336.639621 
L 239.712303 336.489617 
L 240.983664 335.731766 
L 242.255024 336.931087 
L 243.526384 337.078057 
L 246.069105 336.845007 
L 247.340465 336.769798 
L 248.611825 337.644528 
L 249.883185 337.732803 
L 251.154545 336.641634 
L 252.425906 336.934979 
L 253.697266 336.377023 
L 254.968626 337.338667 
L 256.239986 337.879175 
L 257.511347 339.432817 
L 258.782707 339.083093 
L 260.054067 338.437659 
L 262.596787 339.145307 
L 263.868148 338.744015 
L 265.139508 339.638445 
L 266.410868 339.345476 
L 267.682228 338.431646 
L 268.953589 337.791836 
L 270.224949 338.530322 
L 271.496309 338.944103 
L 274.039029 338.335474 
L 275.31039 338.809228 
L 276.58175 338.914682 
L 277.85311 339.23956 
L 279.12447 338.669816 
L 280.39583 337.858088 
L 281.667191 337.375027 
L 282.938551 337.779077 
L 284.209911 337.614326 
L 285.481271 336.851277 
L 286.752632 336.933764 
L 288.023992 337.363506 
L 289.295352 336.765596 
L 290.566712 337.124122 
L 291.838072 337.702716 
L 293.109433 338.431192 
L 294.380793 338.010574 
L 295.652153 338.873181 
L 299.466234 339.213966 
L 300.737594 338.435829 
L 302.008954 338.7197 
L 303.280314 339.354573 
L 304.551675 338.331762 
L 305.823035 338.075209 
L 307.094395 338.541427 
L 308.365755 339.624626 
L 309.637116 338.983844 
L 310.908476 338.899462 
L 312.179836 339.30264 
L 313.451196 338.924903 
L 315.993917 339.350336 
L 317.265277 338.236482 
L 318.536637 338.562312 
L 319.807997 337.540937 
L 321.079357 337.452909 
L 322.350718 337.55158 
L 323.622078 337.18091 
L 324.893438 337.283476 
L 326.164798 337.619358 
L 327.436159 338.128453 
L 328.707519 339.041158 
L 329.978879 339.155101 
L 331.250239 339.820636 
L 332.521599 340.242012 
L 335.06432 340.222716 
L 336.33568 339.675727 
L 337.60704 340.272088 
L 338.878401 341.243927 
L 340.149761 341.845 
L 341.421121 341.003806 
L 342.692481 340.310971 
L 343.963841 340.731782 
L 346.506562 340.804838 
L 347.777922 340.063344 
L 349.049282 340.250297 
L 351.592003 339.529618 
L 352.863363 339.293298 
L 354.134723 339.33637 
L 355.406083 338.682152 
L 359.220164 338.231507 
L 360.491524 338.89821 
L 361.762884 338.291701 
L 363.034245 337.556568 
L 364.305605 339.417092 
L 365.576965 339.779371 
L 366.848325 339.473528 
L 368.119686 339.557739 
L 369.391046 338.157677 
L 370.662406 338.270243 
L 371.933766 337.596864 
L 373.205126 338.422345 
L 374.476487 339.00834 
L 375.747847 338.749554 
L 377.019207 338.001776 
L 378.290567 338.449263 
L 379.561928 338.685639 
L 380.833288 339.261402 
L 382.104648 338.519551 
L 383.376008 338.95859 
L 384.647368 339.059414 
L 385.918729 338.979021 
L 387.190089 338.403707 
L 389.732809 338.722109 
L 391.00417 338.085469 
L 392.27553 338.985539 
L 393.54689 338.990439 
L 396.08961 337.145694 
L 397.360971 338.104103 
L 398.632331 338.411708 
L 399.903691 338.969452 
L 401.175051 338.248498 
L 402.446411 338.284471 
L 403.717772 338.783311 
L 404.989132 339.087518 
L 406.260492 338.801327 
L 407.531852 337.404374 
L 408.803213 336.789462 
L 410.074573 337.04751 
L 411.345933 336.956824 
L 412.617293 336.126907 
L 413.888653 336.145041 
L 415.160014 335.545318 
L 416.431374 336.471887 
L 417.702734 337.928624 
L 418.974094 338.209123 
L 421.516815 340.551684 
L 422.788175 340.47518 
L 424.059535 341.378011 
L 425.330895 340.249213 
L 426.602256 339.449186 
L 427.873616 338.403759 
L 429.144976 337.989232 
L 430.416336 337.253908 
L 432.959057 336.663368 
L 434.230417 337.319297 
L 435.501777 336.778515 
L 436.773137 336.584111 
L 438.044498 336.994282 
L 439.315858 336.37229 
L 440.587218 335.358496 
L 441.858578 335.024251 
L 443.129938 335.056282 
L 444.401299 334.797079 
L 445.672659 334.223432 
L 446.944019 333.443432 
L 448.215379 333.975178 
L 449.48674 335.07605 
L 450.7581 335.672192 
L 453.30082 335.426028 
L 454.57218 336.045061 
L 455.843541 335.390072 
L 457.114901 335.484208 
L 459.657621 334.903344 
L 460.928982 334.833982 
L 462.200342 335.565537 
L 463.471702 335.553182 
L 464.743062 336.245578 
L 467.285783 336.471392 
L 468.557143 337.189318 
L 469.828503 338.569335 
L 472.371224 338.686097 
L 473.642584 339.234578 
L 474.913944 339.384789 
L 476.185304 339.89694 
L 477.456664 339.520235 
L 478.728025 338.243127 
L 479.999385 338.396653 
L 481.270745 338.299985 
L 482.542105 338.076958 
L 483.813465 338.480348 
L 485.084826 338.746611 
L 486.356186 339.729254 
L 487.627546 338.259992 
L 488.898906 338.260624 
L 490.170267 338.385371 
L 491.441627 338.734085 
L 492.712987 338.312085 
L 493.984347 338.496514 
L 495.255707 338.21579 
L 496.527068 338.598152 
L 497.798428 339.378475 
L 499.069788 338.683194 
L 500.341148 338.522159 
L 502.883869 337.822164 
L 504.155229 338.751748 
L 505.426589 338.9964 
L 506.697949 338.959714 
L 509.24067 339.848972 
L 510.51203 339.764007 
L 511.78339 340.448456 
L 513.054751 340.702443 
L 514.326111 340.479298 
L 515.597471 339.77467 
L 516.868831 339.295379 
L 518.140191 340.191214 
L 519.411552 339.687424 
L 520.682912 339.814194 
L 521.954272 340.275898 
L 523.225632 339.243334 
L 524.496992 338.850266 
L 525.768353 338.635428 
L 527.039713 338.237139 
L 528.311073 338.261876 
L 529.582433 338.095086 
L 532.125154 336.510144 
L 534.667874 336.522057 
L 535.939234 337.449002 
L 537.210595 338.067339 
L 538.481955 338.468927 
L 539.753315 338.394944 
L 541.024675 339.114069 
L 542.296036 338.892081 
L 543.567396 337.712101 
L 544.838756 337.063778 
L 546.110116 336.585046 
L 547.381476 335.873447 
L 548.652837 336.330247 
L 549.924197 336.062679 
L 551.195557 336.341148 
L 552.466917 337.010632 
L 553.738278 337.018995 
L 555.009638 335.996604 
L 556.280998 335.775452 
L 557.552358 337.054465 
L 558.823718 336.303629 
L 561.366439 337.348165 
L 562.637799 337.295476 
L 563.909159 337.660507 
L 565.180519 336.910085 
L 566.45188 336.909253 
L 567.72324 336.753228 
L 568.9946 337.010627 
L 570.26596 337.637539 
L 571.537321 337.824494 
L 572.808681 339.067254 
L 574.080041 339.340125 
L 575.351401 338.8598 
L 576.622761 339.281171 
L 577.894122 339.843205 
L 579.165482 338.556433 
L 580.436842 338.292064 
L 581.708202 337.678525 
L 582.979563 337.230799 
L 584.250923 337.626198 
L 585.522283 337.215345 
L 586.793643 337.824869 
L 588.065003 337.326536 
L 589.336364 337.865478 
L 589.336364 337.865478 
" clip-path="url(#p38058ce8d1)" style="fill: none; stroke: #2ca02c; stroke-width: 1.2; stroke-linecap: square"/>
   </g>
   <g id="line2d_32">
    <path d="M 82.063636 117.068044 
L 83.334997 123.967598 
L 84.606357 145.892648 
L 87.149077 181.618246 
L 89.691798 211.576505 
L 90.963158 224.782752 
L 92.234518 235.827172 
L 94.777239 253.947209 
L 96.048599 261.937618 
L 97.319959 268.68569 
L 98.591319 273.691359 
L 99.862679 280.959269 
L 101.13404 286.767686 
L 102.4054 290.594461 
L 103.67676 293.766722 
L 104.94812 298.139134 
L 106.219481 302.943388 
L 107.490841 306.089535 
L 110.033561 313.154063 
L 111.304921 316.357973 
L 112.576282 318.605091 
L 113.847642 320.186165 
L 115.119002 322.856765 
L 117.661722 327.224414 
L 118.933083 327.189813 
L 120.204443 328.575517 
L 121.475803 329.163663 
L 122.747163 329.894331 
L 124.018524 328.542111 
L 125.289884 329.345761 
L 126.561244 330.706656 
L 129.103964 332.350432 
L 130.375325 332.146943 
L 131.646685 333.348691 
L 132.918045 333.039088 
L 134.189405 333.801243 
L 135.460766 334.052922 
L 136.732126 334.168296 
L 138.003486 334.069483 
L 139.274846 333.062244 
L 140.546206 334.940842 
L 141.817567 335.490628 
L 143.088927 335.818969 
L 144.360287 335.506041 
L 145.631647 335.01516 
L 146.903008 336.234946 
L 148.174368 336.488199 
L 149.445728 337.25483 
L 150.717088 336.498563 
L 153.259809 335.578443 
L 154.531169 336.599296 
L 155.802529 336.841568 
L 157.073889 336.344075 
L 158.345249 336.421943 
L 159.61661 336.257879 
L 160.88797 336.74904 
L 162.15933 336.929606 
L 163.43069 336.827397 
L 164.702051 336.885987 
L 165.973411 335.084535 
L 167.244771 335.279614 
L 168.516131 334.394273 
L 169.787491 334.165483 
L 171.058852 334.971265 
L 172.330212 335.605752 
L 173.601572 336.843818 
L 174.872932 336.254639 
L 176.144293 336.821791 
L 177.415653 337.008021 
L 178.687013 336.991081 
L 179.958373 336.61864 
L 181.229733 337.332918 
L 183.772454 337.83019 
L 185.043814 337.178947 
L 186.315174 336.987512 
L 187.586535 337.017012 
L 188.857895 338.204462 
L 190.129255 337.228013 
L 191.400615 337.583163 
L 192.671975 338.717017 
L 193.943336 337.492449 
L 196.486056 338.032334 
L 197.757416 336.644691 
L 199.028776 334.281887 
L 200.300137 334.177938 
L 201.571497 334.721316 
L 202.842857 334.917052 
L 204.114217 335.423863 
L 205.385578 336.183325 
L 206.656938 335.830909 
L 207.928298 335.078707 
L 209.199658 334.931803 
L 213.013739 336.792798 
L 214.285099 336.626607 
L 215.556459 335.204927 
L 216.82782 336.650787 
L 218.09918 335.070745 
L 219.37054 335.54719 
L 220.6419 335.841793 
L 221.91326 335.257268 
L 224.455981 336.528893 
L 226.998701 336.433791 
L 228.270062 335.447341 
L 229.541422 334.612833 
L 232.084142 334.045738 
L 233.355502 334.058963 
L 234.626863 334.209481 
L 235.898223 334.83572 
L 237.169583 333.417042 
L 238.440943 333.328245 
L 239.712303 333.687935 
L 240.983664 333.285271 
L 243.526384 334.571708 
L 244.797744 333.30346 
L 246.069105 332.636865 
L 247.340465 334.190027 
L 248.611825 334.110334 
L 249.883185 334.93588 
L 251.154545 335.894398 
L 253.697266 335.993905 
L 254.968626 334.677942 
L 256.239986 335.202516 
L 257.511347 335.209189 
L 258.782707 334.751162 
L 260.054067 334.960942 
L 261.325427 335.826249 
L 262.596787 336.22248 
L 263.868148 337.066426 
L 265.139508 337.518345 
L 266.410868 336.449391 
L 267.682228 335.935046 
L 268.953589 334.684165 
L 270.224949 333.975052 
L 271.496309 334.565382 
L 272.767669 331.395155 
L 274.039029 332.250843 
L 275.31039 331.109734 
L 276.58175 330.863992 
L 277.85311 330.020578 
L 279.12447 330.437028 
L 280.39583 331.37913 
L 281.667191 331.73393 
L 282.938551 331.73422 
L 284.209911 333.407158 
L 285.481271 332.413741 
L 286.752632 332.526312 
L 288.023992 330.732511 
L 289.295352 332.248481 
L 290.566712 332.339579 
L 291.838072 331.435597 
L 293.109433 331.359927 
L 294.380793 332.617698 
L 295.652153 333.047553 
L 296.923513 333.804642 
L 298.194874 333.680678 
L 299.466234 334.075562 
L 300.737594 333.518344 
L 302.008954 333.184376 
L 303.280314 333.239145 
L 304.551675 332.865904 
L 305.823035 332.902222 
L 307.094395 332.399936 
L 308.365755 332.994669 
L 309.637116 333.023251 
L 310.908476 333.770327 
L 312.179836 334.023721 
L 313.451196 335.187028 
L 314.722556 336.543251 
L 315.993917 336.427523 
L 317.265277 337.562907 
L 318.536637 338.111435 
L 319.807997 337.126636 
L 321.079357 337.01702 
L 322.350718 337.51597 
L 323.622078 337.211622 
L 324.893438 338.147511 
L 326.164798 337.648818 
L 327.436159 338.223128 
L 328.707519 338.44766 
L 329.978879 339.060406 
L 331.250239 338.145142 
L 332.521599 338.868503 
L 333.79296 338.204465 
L 335.06432 337.960828 
L 336.33568 339.663701 
L 337.60704 338.700306 
L 340.149761 338.988689 
L 341.421121 338.441912 
L 342.692481 339.246445 
L 343.963841 339.439829 
L 345.235202 339.499848 
L 346.506562 339.329642 
L 347.777922 338.276608 
L 349.049282 338.221807 
L 350.320643 337.828157 
L 351.592003 336.194718 
L 354.134723 335.5126 
L 355.406083 336.112442 
L 356.677444 336.125714 
L 357.948804 335.357182 
L 359.220164 335.551975 
L 360.491524 334.247061 
L 361.762884 333.9844 
L 363.034245 334.803762 
L 364.305605 334.868521 
L 365.576965 334.278327 
L 366.848325 335.018664 
L 368.119686 335.578596 
L 369.391046 335.929139 
L 370.662406 335.505666 
L 371.933766 335.956533 
L 373.205126 335.096363 
L 374.476487 333.655274 
L 375.747847 334.64761 
L 377.019207 335.156422 
L 378.290567 335.362435 
L 379.561928 334.494602 
L 380.833288 335.096855 
L 382.104648 335.552523 
L 383.376008 334.806038 
L 384.647368 333.691547 
L 385.918729 333.692703 
L 387.190089 333.892581 
L 388.461449 333.471151 
L 389.732809 334.719022 
L 391.00417 334.602337 
L 392.27553 332.618378 
L 394.81825 334.106 
L 396.08961 335.162359 
L 397.360971 335.966887 
L 398.632331 334.481552 
L 399.903691 334.666508 
L 401.175051 334.466411 
L 402.446411 334.824317 
L 404.989132 333.315884 
L 406.260492 333.088922 
L 407.531852 333.783226 
L 410.074573 334.526043 
L 411.345933 333.908376 
L 412.617293 333.523555 
L 413.888653 332.904381 
L 415.160014 333.584446 
L 416.431374 333.977467 
L 417.702734 334.938312 
L 418.974094 335.01949 
L 420.245455 335.485983 
L 421.516815 336.35457 
L 422.788175 336.26031 
L 424.059535 335.267643 
L 425.330895 335.50586 
L 426.602256 335.157262 
L 427.873616 333.901515 
L 429.144976 333.620061 
L 430.416336 334.361787 
L 431.687697 334.335844 
L 434.230417 335.623858 
L 435.501777 335.34831 
L 438.044498 336.365358 
L 439.315858 336.678124 
L 440.587218 336.641659 
L 441.858578 337.55917 
L 443.129938 337.192337 
L 444.401299 337.836052 
L 445.672659 337.977911 
L 446.944019 336.379513 
L 448.215379 336.255609 
L 449.48674 336.540803 
L 450.7581 336.13365 
L 452.02946 337.550662 
L 454.57218 337.776011 
L 455.843541 338.104136 
L 457.114901 337.607993 
L 458.386261 338.485365 
L 460.928982 337.695891 
L 462.200342 338.115341 
L 463.471702 337.802907 
L 466.014422 338.405081 
L 468.557143 338.046288 
L 469.828503 337.747256 
L 471.099863 337.277491 
L 472.371224 337.160499 
L 473.642584 335.912976 
L 474.913944 334.110432 
L 476.185304 334.309777 
L 477.456664 334.358898 
L 478.728025 334.007707 
L 479.999385 333.822099 
L 481.270745 332.381408 
L 482.542105 332.482946 
L 483.813465 331.779119 
L 485.084826 332.087862 
L 487.627546 334.108403 
L 488.898906 334.000722 
L 490.170267 334.388726 
L 491.441627 333.529397 
L 492.712987 333.909084 
L 493.984347 334.059067 
L 495.255707 333.580346 
L 496.527068 333.569767 
L 497.798428 334.23588 
L 499.069788 334.230599 
L 501.612509 335.572261 
L 502.883869 335.86557 
L 504.155229 335.596846 
L 505.426589 334.598849 
L 506.697949 334.384037 
L 507.96931 334.63582 
L 509.24067 335.445131 
L 510.51203 334.968268 
L 511.78339 334.680646 
L 513.054751 335.223897 
L 514.326111 336.222731 
L 515.597471 335.782486 
L 518.140191 336.435252 
L 519.411552 335.881444 
L 520.682912 336.70914 
L 521.954272 338.525666 
L 523.225632 338.157582 
L 524.496992 338.861444 
L 527.039713 338.244215 
L 528.311073 336.751989 
L 529.582433 336.893242 
L 530.853794 337.265091 
L 532.125154 338.440842 
L 533.396514 337.614823 
L 534.667874 336.155815 
L 537.210595 337.578431 
L 538.481955 337.863444 
L 539.753315 338.492957 
L 541.024675 338.076631 
L 542.296036 338.549326 
L 543.567396 339.355354 
L 544.838756 339.990295 
L 546.110116 338.741619 
L 547.381476 339.516905 
L 548.652837 338.677842 
L 549.924197 339.604629 
L 551.195557 339.75779 
L 552.466917 338.821618 
L 553.738278 339.678294 
L 555.009638 338.925888 
L 556.280998 339.237481 
L 561.366439 338.896033 
L 562.637799 339.555544 
L 563.909159 339.978725 
L 565.180519 339.418599 
L 566.45188 339.188593 
L 567.72324 337.724381 
L 568.9946 338.657496 
L 570.26596 337.113554 
L 571.537321 337.317125 
L 572.808681 337.712053 
L 574.080041 337.859477 
L 575.351401 337.781014 
L 576.622761 338.222162 
L 577.894122 338.068519 
L 579.165482 338.128553 
L 580.436842 338.740052 
L 581.708202 338.398345 
L 582.979563 339.035243 
L 584.250923 337.579576 
L 585.522283 338.13983 
L 586.793643 337.446962 
L 588.065003 337.138795 
L 589.336364 336.960878 
L 589.336364 336.960878 
" clip-path="url(#p38058ce8d1)" style="fill: none; stroke: #d62728; stroke-width: 1.2; stroke-linecap: square"/>
   </g>
   <g id="line2d_33">
    <path d="M 82.063636 154.426092 
L 83.334997 152.390154 
L 84.606357 151.193807 
L 85.877717 155.628509 
L 88.420437 170.924917 
L 89.691798 185.54839 
L 90.963158 193.64965 
L 92.234518 206.683416 
L 93.505878 217.319752 
L 94.777239 229.05272 
L 96.048599 239.231272 
L 97.319959 246.306019 
L 99.862679 263.875609 
L 102.4054 278.509274 
L 103.67676 283.504058 
L 104.94812 289.461282 
L 107.490841 299.114398 
L 108.762201 303.283391 
L 111.304921 310.266997 
L 112.576282 312.461994 
L 113.847642 315.540197 
L 115.119002 317.210748 
L 116.390362 318.151215 
L 118.933083 321.54749 
L 120.204443 323.620948 
L 121.475803 325.914046 
L 122.747163 326.487716 
L 124.018524 327.400464 
L 125.289884 328.785867 
L 126.561244 329.958013 
L 127.832604 328.566438 
L 129.103964 330.104789 
L 130.375325 329.948114 
L 131.646685 330.438971 
L 132.918045 332.177992 
L 134.189405 332.373622 
L 135.460766 331.209462 
L 136.732126 332.287217 
L 138.003486 331.379273 
L 139.274846 331.96188 
L 140.546206 333.420492 
L 141.817567 332.791459 
L 143.088927 332.684986 
L 144.360287 333.241888 
L 145.631647 333.38433 
L 148.174368 335.018073 
L 149.445728 335.455526 
L 151.988448 335.734756 
L 153.259809 335.886363 
L 154.531169 335.897636 
L 155.802529 336.068813 
L 159.61661 334.665609 
L 160.88797 334.596485 
L 162.15933 333.408427 
L 163.43069 333.816108 
L 164.702051 334.035506 
L 165.973411 334.658125 
L 167.244771 335.608272 
L 168.516131 336.064536 
L 169.787491 337.397035 
L 171.058852 337.949201 
L 172.330212 337.4697 
L 173.601572 337.860348 
L 174.872932 337.087109 
L 178.687013 337.296054 
L 179.958373 338.32787 
L 181.229733 337.691069 
L 182.501094 337.689944 
L 183.772454 338.145541 
L 185.043814 336.84405 
L 186.315174 337.622794 
L 187.586535 338.627366 
L 188.857895 338.405631 
L 190.129255 337.974585 
L 191.400615 336.601857 
L 192.671975 336.574537 
L 193.943336 336.433425 
L 195.214696 336.550135 
L 197.757416 335.528272 
L 199.028776 336.861588 
L 200.300137 337.053728 
L 201.571497 337.045086 
L 202.842857 336.185974 
L 204.114217 335.094831 
L 205.385578 334.869272 
L 206.656938 335.102936 
L 207.928298 334.134704 
L 210.471018 334.65188 
L 211.742379 334.012526 
L 213.013739 331.865623 
L 215.556459 333.572075 
L 216.82782 333.055259 
L 218.09918 333.511695 
L 219.37054 334.484113 
L 220.6419 334.876849 
L 221.91326 334.677726 
L 223.184621 335.422792 
L 224.455981 335.881148 
L 225.727341 334.93825 
L 226.998701 334.585669 
L 228.270062 334.562528 
L 229.541422 334.203907 
L 230.812782 334.141415 
L 232.084142 333.571898 
L 233.355502 332.841299 
L 234.626863 333.999653 
L 235.898223 333.704746 
L 237.169583 334.113682 
L 238.440943 333.514067 
L 239.712303 334.289417 
L 240.983664 333.847288 
L 242.255024 333.558496 
L 243.526384 333.994967 
L 244.797744 333.644618 
L 246.069105 332.604682 
L 247.340465 331.142422 
L 248.611825 329.92348 
L 249.883185 329.702773 
L 251.154545 329.783135 
L 252.425906 330.971133 
L 253.697266 331.527868 
L 254.968626 330.648615 
L 256.239986 330.984508 
L 257.511347 332.046057 
L 258.782707 332.540927 
L 260.054067 334.41242 
L 261.325427 334.752957 
L 262.596787 333.911557 
L 263.868148 333.908652 
L 265.139508 334.126986 
L 266.410868 334.473185 
L 267.682228 335.221782 
L 268.953589 334.830548 
L 270.224949 334.627334 
L 271.496309 335.288418 
L 272.767669 335.562692 
L 274.039029 335.058233 
L 275.31039 336.228265 
L 276.58175 335.195913 
L 277.85311 335.245267 
L 279.12447 336.361605 
L 280.39583 336.298194 
L 281.667191 335.887362 
L 282.938551 335.75267 
L 284.209911 334.901052 
L 285.481271 334.573783 
L 286.752632 334.921435 
L 288.023992 335.130616 
L 289.295352 334.144625 
L 290.566712 335.038486 
L 291.838072 334.937 
L 293.109433 334.961788 
L 295.652153 334.028842 
L 296.923513 333.881732 
L 298.194874 334.562798 
L 299.466234 334.976887 
L 300.737594 334.994458 
L 303.280314 335.609349 
L 304.551675 336.287066 
L 305.823035 336.14139 
L 307.094395 336.813085 
L 308.365755 337.286313 
L 309.637116 337.885177 
L 310.908476 337.935895 
L 312.179836 338.277795 
L 313.451196 338.149226 
L 314.722556 337.049081 
L 315.993917 336.983239 
L 317.265277 337.596873 
L 318.536637 337.427971 
L 319.807997 336.617751 
L 321.079357 337.228577 
L 322.350718 337.515196 
L 323.622078 337.37974 
L 324.893438 336.807571 
L 326.164798 337.345882 
L 327.436159 336.055246 
L 328.707519 336.406365 
L 329.978879 336.582775 
L 331.250239 335.815862 
L 332.521599 336.296759 
L 333.79296 334.944159 
L 335.06432 334.829333 
L 336.33568 334.943298 
L 337.60704 334.184775 
L 338.878401 335.585403 
L 340.149761 336.580175 
L 341.421121 337.138148 
L 342.692481 336.863479 
L 343.963841 336.753019 
L 345.235202 336.87448 
L 346.506562 336.183089 
L 347.777922 336.131068 
L 349.049282 336.433785 
L 350.320643 337.049656 
L 351.592003 336.682237 
L 352.863363 337.06955 
L 354.134723 335.872574 
L 355.406083 335.885807 
L 356.677444 336.742778 
L 357.948804 337.083823 
L 359.220164 335.834177 
L 360.491524 336.297141 
L 361.762884 335.995059 
L 364.305605 336.570761 
L 365.576965 338.246282 
L 366.848325 339.167961 
L 368.119686 338.783253 
L 369.391046 338.661759 
L 370.662406 338.038076 
L 371.933766 338.687701 
L 373.205126 338.019764 
L 374.476487 337.64385 
L 375.747847 338.257168 
L 377.019207 337.373968 
L 378.290567 338.2234 
L 379.561928 338.133096 
L 380.833288 336.891179 
L 382.104648 337.367094 
L 383.376008 336.265526 
L 384.647368 336.923295 
L 385.918729 336.747758 
L 387.190089 337.519421 
L 388.461449 337.208577 
L 389.732809 337.62456 
L 391.00417 337.007845 
L 392.27553 337.601141 
L 393.54689 337.646665 
L 394.81825 338.036081 
L 396.08961 337.538386 
L 397.360971 337.310136 
L 398.632331 337.307502 
L 399.903691 336.698401 
L 401.175051 337.627233 
L 402.446411 336.771819 
L 403.717772 337.262636 
L 404.989132 337.352805 
L 406.260492 336.381684 
L 407.531852 335.229011 
L 410.074573 336.183462 
L 411.345933 337.534001 
L 412.617293 337.370041 
L 413.888653 337.983043 
L 416.431374 336.951431 
L 417.702734 337.502527 
L 418.974094 337.895776 
L 420.245455 337.497549 
L 421.516815 337.813209 
L 422.788175 337.384878 
L 424.059535 336.665991 
L 425.330895 334.238525 
L 426.602256 335.066494 
L 427.873616 335.487291 
L 429.144976 334.282962 
L 430.416336 335.74557 
L 434.230417 337.040524 
L 435.501777 337.824002 
L 436.773137 336.710947 
L 438.044498 336.833721 
L 439.315858 336.364435 
L 440.587218 336.033807 
L 441.858578 336.034601 
L 443.129938 335.729035 
L 444.401299 333.489473 
L 445.672659 331.883446 
L 446.944019 333.515269 
L 449.48674 334.326837 
L 450.7581 335.04498 
L 452.02946 336.226097 
L 453.30082 336.82655 
L 454.57218 335.317709 
L 455.843541 333.302898 
L 457.114901 334.860563 
L 458.386261 334.80511 
L 459.657621 335.239089 
L 460.928982 335.399212 
L 463.471702 334.770137 
L 464.743062 332.660937 
L 466.014422 332.732781 
L 467.285783 334.339225 
L 469.828503 336.683682 
L 471.099863 336.006826 
L 472.371224 334.791758 
L 473.642584 335.346468 
L 474.913944 335.434466 
L 476.185304 335.379969 
L 477.456664 335.657456 
L 478.728025 336.358426 
L 479.999385 336.693122 
L 481.270745 336.57851 
L 482.542105 337.384506 
L 483.813465 337.917381 
L 485.084826 337.877157 
L 486.356186 337.624726 
L 487.627546 337.589011 
L 488.898906 337.166409 
L 490.170267 337.456962 
L 491.441627 337.592515 
L 492.712987 336.34252 
L 493.984347 336.829878 
L 495.255707 337.122783 
L 496.527068 335.907 
L 497.798428 337.731348 
L 499.069788 338.108009 
L 500.341148 337.567494 
L 501.612509 337.634645 
L 502.883869 337.38555 
L 504.155229 335.999192 
L 505.426589 336.349985 
L 506.697949 337.444782 
L 507.96931 336.626577 
L 510.51203 336.969282 
L 511.78339 337.549586 
L 513.054751 337.152932 
L 514.326111 337.00989 
L 516.868831 338.187699 
L 518.140191 339.511436 
L 519.411552 339.884302 
L 520.682912 339.095995 
L 521.954272 340.219314 
L 524.496992 339.3257 
L 525.768353 339.951179 
L 527.039713 340.090367 
L 528.311073 340.097335 
L 529.582433 339.734829 
L 530.853794 340.264876 
L 532.125154 340.211786 
L 533.396514 340.448622 
L 534.667874 339.932984 
L 535.939234 338.68267 
L 537.210595 338.044931 
L 538.481955 338.250328 
L 539.753315 337.351123 
L 541.024675 337.440192 
L 542.296036 336.78313 
L 543.567396 337.417983 
L 544.838756 337.494495 
L 546.110116 335.834327 
L 547.381476 335.769732 
L 548.652837 336.447349 
L 549.924197 336.613594 
L 551.195557 336.337086 
L 552.466917 335.761003 
L 553.738278 336.529163 
L 555.009638 337.823852 
L 556.280998 336.745524 
L 557.552358 336.680748 
L 558.823718 335.55084 
L 561.366439 335.558258 
L 562.637799 336.007853 
L 563.909159 335.008803 
L 565.180519 335.722755 
L 566.45188 335.914601 
L 567.72324 337.352006 
L 568.9946 336.807082 
L 570.26596 335.781021 
L 571.537321 335.752022 
L 572.808681 335.593874 
L 574.080041 335.242324 
L 575.351401 335.467112 
L 576.622761 334.291149 
L 577.894122 334.377529 
L 580.436842 335.514432 
L 581.708202 335.205269 
L 582.979563 334.059029 
L 584.250923 335.229989 
L 585.522283 334.060456 
L 586.793643 333.113073 
L 588.065003 333.281711 
L 588.065003 333.281711 
" clip-path="url(#p38058ce8d1)" style="fill: none; stroke: #9467bd; stroke-width: 1.2; stroke-linecap: square"/>
   </g>
   <g id="patch_3">
    <path d="M 56.7 356.965 
L 56.7 24.325 
" style="fill: none; stroke: #000000; stroke-width: 0.8; stroke-linejoin: miter; stroke-linecap: square"/>
   </g>
   <g id="patch_4">
    <path d="M 614.7 356.965 
L 614.7 24.325 
" style="fill: none; stroke: #000000; stroke-width: 0.8; stroke-linejoin: miter; stroke-linecap: square"/>
   </g>
   <g id="patch_5">
    <path d="M 56.7 356.965 
L 614.7 356.965 
" style="fill: none; stroke: #000000; stroke-width: 0.8; stroke-linejoin: miter; stroke-linecap: square"/>
   </g>
   <g id="patch_6">
    <path d="M 56.7 24.325 
L 614.7 24.325 
" style="fill: none; stroke: #000000; stroke-width: 0.8; stroke-linejoin: miter; stroke-linecap: square"/>
   </g>
   <g id="text_17">
    <!-- Average Transmission Delay -->
    <g transform="translate(231.7 18.325) scale(0.16 -0.16)">
     <defs>
      <path id="SimHei-41" d="M 3075 125 
L 2475 125 
L 2125 1450 
L 1025 1450 
L 675 125 
L 75 125 
L 1325 4450 
L 1825 4450 
L 3075 125 
z
M 2000 1925 
L 1600 3450 
L 1550 3450 
L 1150 1925 
L 2000 1925 
z
" transform="scale(0.015625)"/>
      <path id="SimHei-76" d="M 2875 2925 
L 1825 75 
L 1275 75 
L 225 2925 
L 750 2925 
L 1525 750 
L 1575 750 
L 2350 2925 
L 2875 2925 
z
" transform="scale(0.015625)"/>
      <path id="SimHei-72" d="M 2500 2425 
Q 2025 2500 1700 2287 
Q 1375 2075 1150 1550 
L 1150 125 
L 650 125 
L 650 2925 
L 1150 2925 
L 1150 2200 
Q 1375 2600 1712 2787 
Q 2050 2975 2500 2975 
L 2500 2425 
z
" transform="scale(0.015625)"/>
      <path id="SimHei-67" d="M 2975 2500 
Q 2800 2550 2637 2562 
Q 2475 2575 2300 2525 
Q 2375 2450 2425 2337 
Q 2475 2225 2475 2000 
Q 2475 1575 2187 1300 
Q 1900 1025 1475 1025 
Q 1375 1025 1212 1062 
Q 1050 1100 950 1150 
Q 875 1100 850 1050 
Q 825 1000 825 925 
Q 825 800 1000 737 
Q 1175 675 1625 675 
Q 2350 675 2612 475 
Q 2875 275 2875 -25 
Q 2875 -425 2487 -612 
Q 2100 -800 1575 -800 
Q 900 -800 575 -625 
Q 250 -450 250 -150 
Q 250 0 375 150 
Q 500 300 700 400 
Q 550 475 462 587 
Q 375 700 375 875 
Q 375 1025 487 1137 
Q 600 1250 750 1325 
Q 625 1450 550 1625 
Q 475 1800 475 2000 
Q 475 2425 762 2700 
Q 1050 2975 1475 2975 
Q 1700 2975 1862 2912 
Q 2025 2850 2150 2725 
Q 2350 2875 2550 2937 
Q 2750 3000 2975 2975 
L 2975 2500 
z
M 1975 2000 
Q 1975 2250 1850 2400 
Q 1725 2550 1475 2550 
Q 1225 2550 1100 2400 
Q 975 2250 975 2000 
Q 975 1750 1100 1600 
Q 1225 1450 1475 1450 
Q 1725 1450 1850 1600 
Q 1975 1750 1975 2000 
z
M 2400 -75 
Q 2400 25 2287 125 
Q 2175 225 1725 225 
Q 1625 225 1450 237 
Q 1275 250 1050 275 
Q 850 200 775 100 
Q 700 0 700 -100 
Q 700 -250 900 -350 
Q 1100 -450 1600 -450 
Q 2025 -450 2212 -337 
Q 2400 -225 2400 -75 
z
" transform="scale(0.015625)"/>
      <path id="SimHei-54" d="M 2850 3925 
L 1850 3925 
L 1850 125 
L 1275 125 
L 1275 3925 
L 275 3925 
L 275 4400 
L 2850 4400 
L 2850 3925 
z
" transform="scale(0.015625)"/>
      <path id="SimHei-6e" d="M 2800 125 
L 2300 125 
L 2300 1925 
Q 2300 2225 2150 2400 
Q 2000 2575 1750 2575 
Q 1425 2575 1137 2237 
Q 850 1900 850 1400 
L 850 125 
L 350 125 
L 350 2925 
L 850 2925 
L 850 2400 
Q 1050 2675 1287 2825 
Q 1525 2975 1900 2975 
Q 2350 2975 2575 2725 
Q 2800 2475 2800 2100 
L 2800 125 
z
" transform="scale(0.015625)"/>
      <path id="SimHei-6d" d="M 3050 125 
L 2550 125 
L 2550 2150 
Q 2550 2300 2500 2400 
Q 2450 2500 2300 2500 
Q 2125 2500 1975 2312 
Q 1825 2125 1825 1825 
L 1825 125 
L 1325 125 
L 1325 2150 
Q 1325 2300 1275 2400 
Q 1225 2500 1075 2500 
Q 900 2500 750 2312 
Q 600 2125 600 1825 
L 600 125 
L 100 125 
L 100 2925 
L 600 2925 
L 600 2550 
Q 725 2750 900 2862 
Q 1075 2975 1275 2975 
Q 1475 2975 1612 2862 
Q 1750 2750 1800 2550 
Q 1925 2750 2087 2862 
Q 2250 2975 2450 2975 
Q 2750 2975 2900 2812 
Q 3050 2650 3050 2350 
L 3050 125 
z
" transform="scale(0.015625)"/>
     </defs>
     <use xlink:href="#SimHei-41"/>
     <use xlink:href="#SimHei-76" transform="translate(50 0)"/>
     <use xlink:href="#SimHei-65" transform="translate(100 0)"/>
     <use xlink:href="#SimHei-72" transform="translate(150 0)"/>
     <use xlink:href="#SimHei-61" transform="translate(200 0)"/>
     <use xlink:href="#SimHei-67" transform="translate(250 0)"/>
     <use xlink:href="#SimHei-65" transform="translate(300 0)"/>
     <use xlink:href="#SimHei-20" transform="translate(350 0)"/>
     <use xlink:href="#SimHei-54" transform="translate(400 0)"/>
     <use xlink:href="#SimHei-72" transform="translate(450 0)"/>
     <use xlink:href="#SimHei-61" transform="translate(500 0)"/>
     <use xlink:href="#SimHei-6e" transform="translate(550 0)"/>
     <use xlink:href="#SimHei-73" transform="translate(600 0)"/>
     <use xlink:href="#SimHei-6d" transform="translate(650 0)"/>
     <use xlink:href="#SimHei-69" transform="translate(700 0)"/>
     <use xlink:href="#SimHei-73" transform="translate(750 0)"/>
     <use xlink:href="#SimHei-73" transform="translate(800 0)"/>
     <use xlink:href="#SimHei-69" transform="translate(850 0)"/>
     <use xlink:href="#SimHei-6f" transform="translate(900 0)"/>
     <use xlink:href="#SimHei-6e" transform="translate(950 0)"/>
     <use xlink:href="#SimHei-20" transform="translate(1000 0)"/>
     <use xlink:href="#SimHei-44" transform="translate(1050 0)"/>
     <use xlink:href="#SimHei-65" transform="translate(1100 0)"/>
     <use xlink:href="#SimHei-6c" transform="translate(1150 0)"/>
     <use xlink:href="#SimHei-61" transform="translate(1200 0)"/>
     <use xlink:href="#SimHei-79" transform="translate(1250 0)"/>
    </g>
   </g>
   <g id="legend_1">
    <g id="patch_7">
     <path d="M 519.9 113.425 
L 606.3 113.425 
Q 608.7 113.425 608.7 111.025 
L 608.7 32.725 
Q 608.7 30.325 606.3 30.325 
L 519.9 30.325 
Q 517.5 30.325 517.5 32.725 
L 517.5 111.025 
Q 517.5 113.425 519.9 113.425 
z
" style="fill: #ffffff; opacity: 0.8; stroke: #cccccc; stroke-linejoin: miter"/>
    </g>
    <g id="line2d_34">
     <path d="M 522.3 39.325 
L 534.3 39.325 
L 546.3 39.325 
" style="fill: none; stroke: #1f77b4; stroke-width: 1.2; stroke-linecap: square"/>
    </g>
    <g id="text_18">
     <!-- DDPG -->
     <g transform="translate(555.9 43.525) scale(0.12 -0.12)">
      <defs>
       <path id="SimHei-50" d="M 2950 3100 
Q 2950 2500 2600 2150 
Q 2250 1800 1625 1800 
L 900 1800 
L 900 125 
L 325 125 
L 325 4400 
L 1625 4400 
Q 2250 4400 2600 4050 
Q 2950 3700 2950 3100 
z
M 2375 3100 
Q 2375 3575 2150 3750 
Q 1925 3925 1475 3925 
L 900 3925 
L 900 2275 
L 1475 2275 
Q 1925 2275 2150 2450 
Q 2375 2625 2375 3100 
z
" transform="scale(0.015625)"/>
       <path id="SimHei-47" d="M 2850 75 
L 2425 75 
L 2350 425 
Q 2250 275 2037 175 
Q 1825 75 1575 75 
Q 1050 75 637 562 
Q 225 1050 225 2125 
Q 225 3300 600 3875 
Q 975 4450 1625 4450 
Q 2200 4450 2525 4025 
Q 2850 3600 2850 2925 
L 2300 2925 
Q 2300 3450 2125 3712 
Q 1950 3975 1625 3975 
Q 1225 3975 1025 3562 
Q 825 3150 825 2175 
Q 825 1250 1075 900 
Q 1325 550 1650 550 
Q 1975 550 2162 787 
Q 2350 1025 2350 1525 
L 2350 1800 
L 1575 1800 
L 1575 2275 
L 2850 2275 
L 2850 75 
z
" transform="scale(0.015625)"/>
      </defs>
      <use xlink:href="#SimHei-44"/>
      <use xlink:href="#SimHei-44" transform="translate(50 0)"/>
      <use xlink:href="#SimHei-50" transform="translate(100 0)"/>
      <use xlink:href="#SimHei-47" transform="translate(150 0)"/>
     </g>
    </g>
    <g id="line2d_35">
     <path d="M 522.3 55.225 
L 534.3 55.225 
L 546.3 55.225 
" style="fill: none; stroke: #ff7f0e; stroke-width: 1.2; stroke-linecap: square"/>
    </g>
    <g id="text_19">
     <!-- PPO -->
     <g transform="translate(555.9 59.425) scale(0.12 -0.12)">
      <defs>
       <path id="SimHei-4f" d="M 2950 2275 
Q 2950 1100 2587 587 
Q 2225 75 1575 75 
Q 925 75 550 587 
Q 175 1100 175 2275 
Q 175 3450 550 3950 
Q 925 4450 1575 4450 
Q 2225 4450 2587 3950 
Q 2950 3450 2950 2275 
z
M 2350 2275 
Q 2350 3325 2125 3650 
Q 1900 3975 1575 3975 
Q 1250 3975 1012 3650 
Q 775 3325 775 2275 
Q 775 1225 1012 887 
Q 1250 550 1575 550 
Q 1900 550 2125 887 
Q 2350 1225 2350 2275 
z
" transform="scale(0.015625)"/>
      </defs>
      <use xlink:href="#SimHei-50"/>
      <use xlink:href="#SimHei-50" transform="translate(50 0)"/>
      <use xlink:href="#SimHei-4f" transform="translate(100 0)"/>
     </g>
    </g>
    <g id="line2d_36">
     <path d="M 522.3 71.125 
L 534.3 71.125 
L 546.3 71.125 
" style="fill: none; stroke: #2ca02c; stroke-width: 1.2; stroke-linecap: square"/>
    </g>
    <g id="text_20">
     <!-- TD3 -->
     <g transform="translate(555.9 75.325) scale(0.12 -0.12)">
      <use xlink:href="#SimHei-54"/>
      <use xlink:href="#SimHei-44" transform="translate(50 0)"/>
      <use xlink:href="#SimHei-33" transform="translate(100 0)"/>
     </g>
    </g>
    <g id="line2d_37">
     <path d="M 522.3 87.025 
L 534.3 87.025 
L 546.3 87.025 
" style="fill: none; stroke: #d62728; stroke-width: 1.2; stroke-linecap: square"/>
    </g>
    <g id="text_21">
     <!-- GCN-DDQN -->
     <g transform="translate(555.9 91.225) scale(0.12 -0.12)">
      <defs>
       <path id="SimHei-43" d="M 2975 1825 
Q 2950 875 2575 475 
Q 2200 75 1675 75 
Q 1075 75 650 562 
Q 225 1050 225 2125 
Q 225 3300 637 3875 
Q 1050 4450 1700 4450 
Q 2250 4450 2612 4037 
Q 2975 3625 2950 2875 
L 2400 2875 
Q 2400 3425 2225 3700 
Q 2050 3975 1700 3975 
Q 1300 3975 1062 3562 
Q 825 3150 825 2175 
Q 825 1275 1062 912 
Q 1300 550 1675 550 
Q 1950 550 2175 812 
Q 2400 1075 2400 1825 
L 2975 1825 
z
" transform="scale(0.015625)"/>
       <path id="SimHei-4e" d="M 2850 125 
L 2225 125 
L 850 3225 
L 825 3225 
L 825 125 
L 250 125 
L 250 4400 
L 875 4400 
L 2250 1300 
L 2275 1300 
L 2275 4400 
L 2850 4400 
L 2850 125 
z
" transform="scale(0.015625)"/>
       <path id="SimHei-2d" d="M 2975 2125 
L 125 2125 
L 125 2525 
L 2975 2525 
L 2975 2125 
z
" transform="scale(0.015625)"/>
       <path id="SimHei-51" d="M 2950 2275 
Q 2950 1675 2862 1262 
Q 2775 850 2575 600 
L 2775 225 
L 2375 -200 
L 2150 225 
Q 2050 150 1900 112 
Q 1750 75 1575 75 
Q 925 75 550 587 
Q 175 1100 175 2275 
Q 175 3450 550 3950 
Q 925 4450 1575 4450 
Q 2225 4450 2587 3950 
Q 2950 3450 2950 2275 
z
M 2350 2275 
Q 2350 3325 2125 3650 
Q 1900 3975 1575 3975 
Q 1250 3975 1012 3650 
Q 775 3325 775 2275 
Q 775 1225 1012 887 
Q 1250 550 1575 550 
Q 1700 550 1800 587 
Q 1900 625 1950 675 
L 1550 1450 
L 1900 1875 
L 2250 1200 
Q 2300 1450 2325 1650 
Q 2350 1850 2350 2275 
z
" transform="scale(0.015625)"/>
      </defs>
      <use xlink:href="#SimHei-47"/>
      <use xlink:href="#SimHei-43" transform="translate(50 0)"/>
      <use xlink:href="#SimHei-4e" transform="translate(100 0)"/>
      <use xlink:href="#SimHei-2d" transform="translate(150 0)"/>
      <use xlink:href="#SimHei-44" transform="translate(200 0)"/>
      <use xlink:href="#SimHei-44" transform="translate(250 0)"/>
      <use xlink:href="#SimHei-51" transform="translate(300 0)"/>
      <use xlink:href="#SimHei-4e" transform="translate(350 0)"/>
     </g>
    </g>
    <g id="line2d_38">
     <path d="M 522.3 102.925 
L 534.3 102.925 
L 546.3 102.925 
" style="fill: none; stroke: #9467bd; stroke-width: 1.2; stroke-linecap: square"/>
    </g>
    <g id="text_22">
     <!-- GLDVTO -->
     <g transform="translate(555.9 107.125) scale(0.12 -0.12)">
      <defs>
       <path id="SimHei-4c" d="M 2900 125 
L 300 125 
L 300 4400 
L 875 4400 
L 875 600 
L 2900 600 
L 2900 125 
z
" transform="scale(0.015625)"/>
       <path id="SimHei-56" d="M 3050 4400 
L 1800 75 
L 1300 75 
L 50 4400 
L 650 4400 
L 1525 1125 
L 1575 1125 
L 2450 4400 
L 3050 4400 
z
" transform="scale(0.015625)"/>
      </defs>
      <use xlink:href="#SimHei-47"/>
      <use xlink:href="#SimHei-4c" transform="translate(50 0)"/>
      <use xlink:href="#SimHei-44" transform="translate(100 0)"/>
      <use xlink:href="#SimHei-56" transform="translate(150 0)"/>
      <use xlink:href="#SimHei-54" transform="translate(200 0)"/>
      <use xlink:href="#SimHei-4f" transform="translate(250 0)"/>
     </g>
    </g>
   </g>
  </g>
 </g>
 <defs>
  <clipPath id="p38058ce8d1">
   <rect x="56.7" y="24.325" width="558" height="332.64"/>
  </clipPath>
 </defs>
</svg>
