<?xml version="1.0" encoding="utf-8" standalone="no"?>
<!DOCTYPE svg PUBLIC "-//W3C//DTD SVG 1.1//EN"
  "http://www.w3.org/Graphics/SVG/1.1/DTD/svg11.dtd">
<svg xmlns:xlink="http://www.w3.org/1999/xlink" width="712.99pt" height="424.835pt" viewBox="0 0 712.99 424.835" xmlns="http://www.w3.org/2000/svg" version="1.1">
 <metadata>
  <rdf:RDF xmlns:dc="http://purl.org/dc/elements/1.1/" xmlns:cc="http://creativecommons.org/ns#" xmlns:rdf="http://www.w3.org/1999/02/22-rdf-syntax-ns#">
   <cc:Work>
    <dc:type rdf:resource="http://purl.org/dc/dcmitype/StillImage"/>
    <dc:date>2026-06-25T20:34:07.838564</dc:date>
    <dc:format>image/svg+xml</dc:format>
    <dc:creator>
     <cc:Agent>
      <dc:title>Matplotlib v3.10.7, https://matplotlib.org/</dc:title>
     </cc:Agent>
    </dc:creator>
   </cc:Work>
  </rdf:RDF>
 </metadata>
 <defs>
  <style type="text/css">*{stroke-linejoin: round; stroke-linecap: butt}</style>
 </defs>
 <g id="figure_1">
  <g id="patch_1">
   <path d="M -0 424.835 
L 712.99 424.835 
L 712.99 0 
L -0 0 
z
" style="fill: #ffffff"/>
  </g>
  <g id="axes_1">
   <g id="patch_2">
    <path d="M 55.2 383.885 
L 705.79 383.885 
L 705.79 24.325 
L 55.2 24.325 
z
" style="fill: #ffffff"/>
   </g>
   <g id="matplotlib.axis_1">
    <g id="xtick_1">
     <g id="line2d_1">
      <path d="M 84.772273 383.885 
L 84.772273 24.325 
" clip-path="url(#p69a686e242)" style="fill: none; stroke: #b0b0b0; stroke-opacity: 0.3; stroke-width: 0.8; stroke-linecap: square"/>
     </g>
     <g id="line2d_2">
      <defs>
       <path id="m4eff2b8090" d="M 0 0 
L 0 3.5 
" style="stroke: #000000; stroke-width: 0.8"/>
      </defs>
      <g>
       <use xlink:href="#m4eff2b8090" x="84.772273" y="383.885" style="stroke: #000000; stroke-width: 0.8"/>
      </g>
     </g>
     <g id="text_1">
      <!-- 0 -->
      <g transform="translate(81.772273 399.135) scale(0.12 -0.12)">
       <defs>
        <path id="SimHei-30" d="M 225 2537 
Q 250 3200 412 3587 
Q 575 3975 875 4225 
Q 1175 4475 1612 4475 
Q 2050 4475 2375 4112 
Q 2700 3750 2800 3200 
Q 2900 2650 2862 1937 
Q 2825 1225 2612 775 
Q 2400 325 1975 150 
Q 1550 -25 1125 187 
Q 700 400 525 750 
Q 350 1100 275 1487 
Q 200 1875 225 2537 
z
M 750 2687 
Q 675 2000 800 1462 
Q 925 925 1212 700 
Q 1500 475 1800 612 
Q 2100 750 2237 1162 
Q 2375 1575 2375 2062 
Q 2375 2550 2337 2950 
Q 2300 3350 2112 3675 
Q 1925 4000 1612 4012 
Q 1300 4025 1062 3700 
Q 825 3375 750 2687 
z
" transform="scale(0.015625)"/>
       </defs>
       <use xlink:href="#SimHei-30"/>
      </g>
     </g>
    </g>
    <g id="xtick_2">
     <g id="line2d_3">
      <path d="M 158.888244 383.885 
L 158.888244 24.325 
" clip-path="url(#p69a686e242)" style="fill: none; stroke: #b0b0b0; stroke-opacity: 0.3; stroke-width: 0.8; stroke-linecap: square"/>
     </g>
     <g id="line2d_4">
      <g>
       <use xlink:href="#m4eff2b8090" x="158.888244" y="383.885" style="stroke: #000000; stroke-width: 0.8"/>
      </g>
     </g>
     <g id="text_2">
      <!-- 50 -->
      <g transform="translate(152.888244 399.135) scale(0.12 -0.12)">
       <defs>
        <path id="SimHei-35" d="M 550 1325 
Q 725 650 1150 575 
Q 1575 500 1837 662 
Q 2100 825 2212 1087 
Q 2325 1350 2312 1675 
Q 2300 2000 2137 2225 
Q 1975 2450 1725 2525 
Q 1475 2600 1162 2525 
Q 850 2450 650 2175 
L 225 2225 
Q 275 2375 700 4375 
L 2675 4375 
L 2675 3925 
L 1075 3925 
Q 950 3250 825 2850 
Q 1200 3025 1525 3012 
Q 1850 3000 2150 2862 
Q 2450 2725 2587 2487 
Q 2725 2250 2787 2012 
Q 2850 1775 2837 1500 
Q 2825 1225 2725 937 
Q 2625 650 2425 462 
Q 2225 275 1937 162 
Q 1650 50 1275 75 
Q 900 100 562 350 
Q 225 600 100 1200 
L 550 1325 
z
" transform="scale(0.015625)"/>
       </defs>
       <use xlink:href="#SimHei-35"/>
       <use xlink:href="#SimHei-30" transform="translate(50 0)"/>
      </g>
     </g>
    </g>
    <g id="xtick_3">
     <g id="line2d_5">
      <path d="M 233.004216 383.885 
L 233.004216 24.325 
" clip-path="url(#p69a686e242)" style="fill: none; stroke: #b0b0b0; stroke-opacity: 0.3; stroke-width: 0.8; stroke-linecap: square"/>
     </g>
     <g id="line2d_6">
      <g>
       <use xlink:href="#m4eff2b8090" x="233.004216" y="383.885" style="stroke: #000000; stroke-width: 0.8"/>
      </g>
     </g>
     <g id="text_3">
      <!-- 100 -->
      <g transform="translate(224.004216 399.135) scale(0.12 -0.12)">
       <defs>
        <path id="SimHei-31" d="M 1400 3600 
Q 1075 3275 575 2975 
L 575 3450 
Q 1200 3875 1600 4450 
L 1900 4450 
L 1900 150 
L 1400 150 
L 1400 3600 
z
" transform="scale(0.015625)"/>
       </defs>
       <use xlink:href="#SimHei-31"/>
       <use xlink:href="#SimHei-30" transform="translate(50 0)"/>
       <use xlink:href="#SimHei-30" transform="translate(100 0)"/>
      </g>
     </g>
    </g>
    <g id="xtick_4">
     <g id="line2d_7">
      <path d="M 307.120188 383.885 
L 307.120188 24.325 
" clip-path="url(#p69a686e242)" style="fill: none; stroke: #b0b0b0; stroke-opacity: 0.3; stroke-width: 0.8; stroke-linecap: square"/>
     </g>
     <g id="line2d_8">
      <g>
       <use xlink:href="#m4eff2b8090" x="307.120188" y="383.885" style="stroke: #000000; stroke-width: 0.8"/>
      </g>
     </g>
     <g id="text_4">
      <!-- 150 -->
      <g transform="translate(298.120188 399.135) scale(0.12 -0.12)">
       <use xlink:href="#SimHei-31"/>
       <use xlink:href="#SimHei-35" transform="translate(50 0)"/>
       <use xlink:href="#SimHei-30" transform="translate(100 0)"/>
      </g>
     </g>
    </g>
    <g id="xtick_5">
     <g id="line2d_9">
      <path d="M 381.23616 383.885 
L 381.23616 24.325 
" clip-path="url(#p69a686e242)" style="fill: none; stroke: #b0b0b0; stroke-opacity: 0.3; stroke-width: 0.8; stroke-linecap: square"/>
     </g>
     <g id="line2d_10">
      <g>
       <use xlink:href="#m4eff2b8090" x="381.23616" y="383.885" style="stroke: #000000; stroke-width: 0.8"/>
      </g>
     </g>
     <g id="text_5">
      <!-- 200 -->
      <g transform="translate(372.23616 399.135) scale(0.12 -0.12)">
       <defs>
        <path id="SimHei-32" d="M 300 250 
Q 325 625 650 925 
Q 975 1225 1475 1862 
Q 1975 2500 2125 2850 
Q 2275 3200 2237 3450 
Q 2200 3700 2000 3862 
Q 1800 4025 1537 4000 
Q 1275 3975 1037 3800 
Q 800 3625 675 3275 
L 200 3350 
Q 400 3925 712 4187 
Q 1025 4450 1450 4475 
Q 1700 4500 1900 4462 
Q 2100 4425 2312 4287 
Q 2525 4150 2662 3875 
Q 2800 3600 2762 3212 
Q 2725 2825 2375 2287 
Q 2025 1750 1025 600 
L 2825 600 
L 2825 150 
L 300 150 
L 300 250 
z
" transform="scale(0.015625)"/>
       </defs>
       <use xlink:href="#SimHei-32"/>
       <use xlink:href="#SimHei-30" transform="translate(50 0)"/>
       <use xlink:href="#SimHei-30" transform="translate(100 0)"/>
      </g>
     </g>
    </g>
    <g id="xtick_6">
     <g id="line2d_11">
      <path d="M 455.352131 383.885 
L 455.352131 24.325 
" clip-path="url(#p69a686e242)" style="fill: none; stroke: #b0b0b0; stroke-opacity: 0.3; stroke-width: 0.8; stroke-linecap: square"/>
     </g>
     <g id="line2d_12">
      <g>
       <use xlink:href="#m4eff2b8090" x="455.352131" y="383.885" style="stroke: #000000; stroke-width: 0.8"/>
      </g>
     </g>
     <g id="text_6">
      <!-- 250 -->
      <g transform="translate(446.352131 399.135) scale(0.12 -0.12)">
       <use xlink:href="#SimHei-32"/>
       <use xlink:href="#SimHei-35" transform="translate(50 0)"/>
       <use xlink:href="#SimHei-30" transform="translate(100 0)"/>
      </g>
     </g>
    </g>
    <g id="xtick_7">
     <g id="line2d_13">
      <path d="M 529.468103 383.885 
L 529.468103 24.325 
" clip-path="url(#p69a686e242)" style="fill: none; stroke: #b0b0b0; stroke-opacity: 0.3; stroke-width: 0.8; stroke-linecap: square"/>
     </g>
     <g id="line2d_14">
      <g>
       <use xlink:href="#m4eff2b8090" x="529.468103" y="383.885" style="stroke: #000000; stroke-width: 0.8"/>
      </g>
     </g>
     <g id="text_7">
      <!-- 300 -->
      <g transform="translate(520.468103 399.135) scale(0.12 -0.12)">
       <defs>
        <path id="SimHei-33" d="M 250 1225 
L 700 1300 
Q 800 975 1025 762 
Q 1250 550 1587 562 
Q 1925 575 2125 837 
Q 2325 1100 2300 1437 
Q 2275 1775 2037 1962 
Q 1800 2150 1275 2225 
L 1275 2550 
Q 1800 2600 2037 2825 
Q 2275 3050 2250 3412 
Q 2225 3775 1925 3937 
Q 1625 4100 1287 3975 
Q 950 3850 750 3275 
L 300 3350 
Q 450 3800 712 4100 
Q 975 4400 1425 4450 
Q 1875 4500 2212 4337 
Q 2550 4175 2687 3837 
Q 2825 3500 2725 3100 
Q 2625 2700 2150 2400 
Q 2500 2250 2687 1950 
Q 2875 1650 2812 1162 
Q 2750 675 2375 375 
Q 2000 75 1525 87 
Q 1050 100 700 387 
Q 350 675 250 1225 
z
" transform="scale(0.015625)"/>
       </defs>
       <use xlink:href="#SimHei-33"/>
       <use xlink:href="#SimHei-30" transform="translate(50 0)"/>
       <use xlink:href="#SimHei-30" transform="translate(100 0)"/>
      </g>
     </g>
    </g>
    <g id="xtick_8">
     <g id="line2d_15">
      <path d="M 603.584075 383.885 
L 603.584075 24.325 
" clip-path="url(#p69a686e242)" style="fill: none; stroke: #b0b0b0; stroke-opacity: 0.3; stroke-width: 0.8; stroke-linecap: square"/>
     </g>
     <g id="line2d_16">
      <g>
       <use xlink:href="#m4eff2b8090" x="603.584075" y="383.885" style="stroke: #000000; stroke-width: 0.8"/>
      </g>
     </g>
     <g id="text_8">
      <!-- 350 -->
      <g transform="translate(594.584075 399.135) scale(0.12 -0.12)">
       <use xlink:href="#SimHei-33"/>
       <use xlink:href="#SimHei-35" transform="translate(50 0)"/>
       <use xlink:href="#SimHei-30" transform="translate(100 0)"/>
      </g>
     </g>
    </g>
    <g id="xtick_9">
     <g id="line2d_17">
      <path d="M 677.700047 383.885 
L 677.700047 24.325 
" clip-path="url(#p69a686e242)" style="fill: none; stroke: #b0b0b0; stroke-opacity: 0.3; stroke-width: 0.8; stroke-linecap: square"/>
     </g>
     <g id="line2d_18">
      <g>
       <use xlink:href="#m4eff2b8090" x="677.700047" y="383.885" style="stroke: #000000; stroke-width: 0.8"/>
      </g>
     </g>
     <g id="text_9">
      <!-- 400 -->
      <g transform="translate(668.700047 399.135) scale(0.12 -0.12)">
       <defs>
        <path id="SimHei-34" d="M 2000 1100 
L 75 1100 
L 75 1525 
L 2100 4450 
L 2475 4450 
L 2475 1525 
L 3075 1525 
L 3075 1100 
L 2475 1100 
L 2475 150 
L 2000 150 
L 2000 1100 
z
M 2000 1525 
L 2000 3500 
L 600 1525 
L 2000 1525 
z
" transform="scale(0.015625)"/>
       </defs>
       <use xlink:href="#SimHei-34"/>
       <use xlink:href="#SimHei-30" transform="translate(50 0)"/>
       <use xlink:href="#SimHei-30" transform="translate(100 0)"/>
      </g>
     </g>
    </g>
    <g id="text_10">
     <!-- Episode -->
     <g transform="translate(352.495 415.635) scale(0.16 -0.16)">
      <defs>
       <path id="SimHei-45" d="M 2900 125 
L 350 125 
L 350 4400 
L 2775 4400 
L 2775 3925 
L 925 3925 
L 925 2600 
L 2625 2600 
L 2625 2125 
L 925 2125 
L 925 600 
L 2900 600 
L 2900 125 
z
" transform="scale(0.015625)"/>
       <path id="SimHei-70" d="M 2825 1525 
Q 2825 800 2475 425 
Q 2125 50 1625 50 
Q 1350 50 1150 162 
Q 950 275 800 500 
L 800 -800 
L 300 -800 
L 300 2925 
L 800 2925 
L 800 2550 
Q 950 2775 1150 2875 
Q 1350 2975 1625 2975 
Q 2125 2975 2475 2612 
Q 2825 2250 2825 1525 
z
M 2275 1525 
Q 2275 2000 2087 2262 
Q 1900 2525 1525 2525 
Q 1225 2525 1012 2262 
Q 800 2000 800 1525 
Q 800 1050 1012 775 
Q 1225 500 1525 500 
Q 1900 500 2087 775 
Q 2275 1050 2275 1525 
z
" transform="scale(0.015625)"/>
       <path id="SimHei-69" d="M 1800 3725 
L 1300 3725 
L 1300 4375 
L 1800 4375 
L 1800 3725 
z
M 1800 125 
L 1300 125 
L 1300 2925 
L 1800 2925 
L 1800 125 
z
" transform="scale(0.015625)"/>
       <path id="SimHei-73" d="M 2750 900 
Q 2750 500 2437 287 
Q 2125 75 1650 75 
Q 1050 75 725 312 
Q 400 550 400 1000 
L 900 1000 
Q 900 700 1112 600 
Q 1325 500 1625 500 
Q 1925 500 2075 612 
Q 2225 725 2225 900 
Q 2225 1025 2100 1150 
Q 1975 1275 1475 1350 
Q 900 1425 687 1637 
Q 475 1850 475 2200 
Q 475 2500 762 2737 
Q 1050 2975 1600 2975 
Q 2100 2975 2387 2750 
Q 2675 2525 2675 2150 
L 2175 2150 
Q 2175 2375 2012 2462 
Q 1850 2550 1600 2550 
Q 1275 2550 1137 2437 
Q 1000 2325 1000 2175 
Q 1000 2000 1125 1900 
Q 1250 1800 1650 1750 
Q 2300 1650 2525 1437 
Q 2750 1225 2750 900 
z
" transform="scale(0.015625)"/>
       <path id="SimHei-6f" d="M 2925 1525 
Q 2925 875 2525 475 
Q 2125 75 1575 75 
Q 1025 75 625 475 
Q 225 875 225 1525 
Q 225 2175 625 2575 
Q 1025 2975 1575 2975 
Q 2125 2975 2525 2575 
Q 2925 2175 2925 1525 
z
M 2375 1525 
Q 2375 2025 2125 2275 
Q 1875 2525 1575 2525 
Q 1275 2525 1025 2275 
Q 775 2025 775 1525 
Q 775 1025 1025 775 
Q 1275 525 1575 525 
Q 1875 525 2125 775 
Q 2375 1025 2375 1525 
z
" transform="scale(0.015625)"/>
       <path id="SimHei-64" d="M 2750 125 
L 2250 125 
L 2250 500 
Q 2100 275 1900 175 
Q 1700 75 1425 75 
Q 925 75 575 437 
Q 225 800 225 1525 
Q 225 2250 575 2625 
Q 925 3000 1425 3000 
Q 1700 3000 1900 2887 
Q 2100 2775 2250 2550 
L 2250 4400 
L 2750 4400 
L 2750 125 
z
M 2250 1525 
Q 2250 2000 2037 2275 
Q 1825 2550 1525 2550 
Q 1150 2550 962 2275 
Q 775 2000 775 1525 
Q 775 1050 962 787 
Q 1150 525 1525 525 
Q 1825 525 2037 787 
Q 2250 1050 2250 1525 
z
" transform="scale(0.015625)"/>
       <path id="SimHei-65" d="M 2850 1075 
Q 2800 625 2450 350 
Q 2100 75 1625 75 
Q 1025 75 637 462 
Q 250 850 250 1525 
Q 250 2200 637 2587 
Q 1025 2975 1625 2975 
Q 2150 2975 2487 2637 
Q 2825 2300 2825 1525 
L 800 1525 
Q 800 975 1037 750 
Q 1275 525 1625 525 
Q 1900 525 2075 662 
Q 2250 800 2300 1075 
L 2850 1075 
z
M 2250 1925 
Q 2200 2275 2025 2412 
Q 1850 2550 1575 2550 
Q 1325 2550 1125 2412 
Q 925 2275 825 1925 
L 2250 1925 
z
" transform="scale(0.015625)"/>
      </defs>
      <use xlink:href="#SimHei-45"/>
      <use xlink:href="#SimHei-70" transform="translate(50 0)"/>
      <use xlink:href="#SimHei-69" transform="translate(100 0)"/>
      <use xlink:href="#SimHei-73" transform="translate(150 0)"/>
      <use xlink:href="#SimHei-6f" transform="translate(200 0)"/>
      <use xlink:href="#SimHei-64" transform="translate(250 0)"/>
      <use xlink:href="#SimHei-65" transform="translate(300 0)"/>
     </g>
    </g>
   </g>
   <g id="matplotlib.axis_2">
    <g id="ytick_1">
     <g id="line2d_19">
      <path d="M 55.2 376.275615 
L 705.79 376.275615 
" clip-path="url(#p69a686e242)" style="fill: none; stroke: #b0b0b0; stroke-opacity: 0.3; stroke-width: 0.8; stroke-linecap: square"/>
     </g>
     <g id="line2d_20">
      <defs>
       <path id="mea4f814fb8" d="M 0 0 
L -3.5 0 
" style="stroke: #000000; stroke-width: 0.8"/>
      </defs>
      <g>
       <use xlink:href="#mea4f814fb8" x="55.2" y="376.275615" style="stroke: #000000; stroke-width: 0.8"/>
      </g>
     </g>
     <g id="text_11">
      <!-- 600 -->
      <g transform="translate(30.2 380.400615) scale(0.12 -0.12)">
       <defs>
        <path id="SimHei-36" d="M 250 1612 
Q 275 1975 387 2225 
Q 500 2475 725 2850 
L 1750 4450 
L 2325 4450 
L 1275 2800 
Q 1950 2975 2350 2750 
Q 2750 2525 2887 2237 
Q 3025 1950 3037 1612 
Q 3050 1275 2937 950 
Q 2825 625 2537 362 
Q 2250 100 1737 75 
Q 1225 50 862 262 
Q 500 475 362 862 
Q 225 1250 250 1612 
z
M 1025 787 
Q 1250 550 1625 525 
Q 2000 500 2250 775 
Q 2500 1050 2500 1575 
Q 2500 2100 2187 2300 
Q 1875 2500 1487 2450 
Q 1100 2400 925 2075 
Q 750 1750 775 1387 
Q 800 1025 1025 787 
z
" transform="scale(0.015625)"/>
       </defs>
       <use xlink:href="#SimHei-36"/>
       <use xlink:href="#SimHei-30" transform="translate(50 0)"/>
       <use xlink:href="#SimHei-30" transform="translate(100 0)"/>
      </g>
     </g>
    </g>
    <g id="ytick_2">
     <g id="line2d_21">
      <path d="M 55.2 309.462088 
L 705.79 309.462088 
" clip-path="url(#p69a686e242)" style="fill: none; stroke: #b0b0b0; stroke-opacity: 0.3; stroke-width: 0.8; stroke-linecap: square"/>
     </g>
     <g id="line2d_22">
      <g>
       <use xlink:href="#mea4f814fb8" x="55.2" y="309.462088" style="stroke: #000000; stroke-width: 0.8"/>
      </g>
     </g>
     <g id="text_12">
      <!-- 800 -->
      <g transform="translate(30.2 313.587088) scale(0.12 -0.12)">
       <defs>
        <path id="SimHei-38" d="M 175 1375 
Q 175 1675 325 1962 
Q 475 2250 825 2425 
Q 525 2600 425 2812 
Q 325 3025 312 3300 
Q 300 3575 387 3775 
Q 475 3975 650 4150 
Q 825 4325 1037 4387 
Q 1250 4450 1500 4450 
Q 1750 4450 1950 4400 
Q 2150 4350 2375 4187 
Q 2600 4025 2700 3725 
Q 2800 3425 2687 3025 
Q 2575 2625 2100 2400 
Q 2525 2275 2700 2012 
Q 2875 1750 2875 1375 
Q 2875 1000 2762 775 
Q 2650 550 2512 400 
Q 2375 250 2137 162 
Q 1900 75 1537 75 
Q 1175 75 912 162 
Q 650 250 475 425 
Q 300 600 237 837 
Q 175 1075 175 1375 
z
M 687 1400 
Q 675 1100 787 875 
Q 900 650 1200 587 
Q 1500 525 1825 600 
Q 2150 675 2275 950 
Q 2400 1225 2362 1500 
Q 2325 1775 2050 1962 
Q 1775 2150 1450 2125 
Q 1125 2100 912 1900 
Q 700 1700 687 1400 
z
M 775 3350 
Q 775 3100 950 2875 
Q 1125 2650 1500 2650 
Q 1875 2650 2062 2875 
Q 2250 3100 2237 3412 
Q 2225 3725 2012 3875 
Q 1800 4025 1437 4000 
Q 1075 3975 925 3787 
Q 775 3600 775 3350 
z
" transform="scale(0.015625)"/>
       </defs>
       <use xlink:href="#SimHei-38"/>
       <use xlink:href="#SimHei-30" transform="translate(50 0)"/>
       <use xlink:href="#SimHei-30" transform="translate(100 0)"/>
      </g>
     </g>
    </g>
    <g id="ytick_3">
     <g id="line2d_23">
      <path d="M 55.2 242.648562 
L 705.79 242.648562 
" clip-path="url(#p69a686e242)" style="fill: none; stroke: #b0b0b0; stroke-opacity: 0.3; stroke-width: 0.8; stroke-linecap: square"/>
     </g>
     <g id="line2d_24">
      <g>
       <use xlink:href="#mea4f814fb8" x="55.2" y="242.648562" style="stroke: #000000; stroke-width: 0.8"/>
      </g>
     </g>
     <g id="text_13">
      <!-- 1000 -->
      <g transform="translate(24.2 246.773562) scale(0.12 -0.12)">
       <use xlink:href="#SimHei-31"/>
       <use xlink:href="#SimHei-30" transform="translate(50 0)"/>
       <use xlink:href="#SimHei-30" transform="translate(100 0)"/>
       <use xlink:href="#SimHei-30" transform="translate(150 0)"/>
      </g>
     </g>
    </g>
    <g id="ytick_4">
     <g id="line2d_25">
      <path d="M 55.2 175.835035 
L 705.79 175.835035 
" clip-path="url(#p69a686e242)" style="fill: none; stroke: #b0b0b0; stroke-opacity: 0.3; stroke-width: 0.8; stroke-linecap: square"/>
     </g>
     <g id="line2d_26">
      <g>
       <use xlink:href="#mea4f814fb8" x="55.2" y="175.835035" style="stroke: #000000; stroke-width: 0.8"/>
      </g>
     </g>
     <g id="text_14">
      <!-- 1200 -->
      <g transform="translate(24.2 179.960035) scale(0.12 -0.12)">
       <use xlink:href="#SimHei-31"/>
       <use xlink:href="#SimHei-32" transform="translate(50 0)"/>
       <use xlink:href="#SimHei-30" transform="translate(100 0)"/>
       <use xlink:href="#SimHei-30" transform="translate(150 0)"/>
      </g>
     </g>
    </g>
    <g id="ytick_5">
     <g id="line2d_27">
      <path d="M 55.2 109.021508 
L 705.79 109.021508 
" clip-path="url(#p69a686e242)" style="fill: none; stroke: #b0b0b0; stroke-opacity: 0.3; stroke-width: 0.8; stroke-linecap: square"/>
     </g>
     <g id="line2d_28">
      <g>
       <use xlink:href="#mea4f814fb8" x="55.2" y="109.021508" style="stroke: #000000; stroke-width: 0.8"/>
      </g>
     </g>
     <g id="text_15">
      <!-- 1400 -->
      <g transform="translate(24.2 113.146508) scale(0.12 -0.12)">
       <use xlink:href="#SimHei-31"/>
       <use xlink:href="#SimHei-34" transform="translate(50 0)"/>
       <use xlink:href="#SimHei-30" transform="translate(100 0)"/>
       <use xlink:href="#SimHei-30" transform="translate(150 0)"/>
      </g>
     </g>
    </g>
    <g id="ytick_6">
     <g id="line2d_29">
      <path d="M 55.2 42.207982 
L 705.79 42.207982 
" clip-path="url(#p69a686e242)" style="fill: none; stroke: #b0b0b0; stroke-opacity: 0.3; stroke-width: 0.8; stroke-linecap: square"/>
     </g>
     <g id="line2d_30">
      <g>
       <use xlink:href="#mea4f814fb8" x="55.2" y="42.207982" style="stroke: #000000; stroke-width: 0.8"/>
      </g>
     </g>
     <g id="text_16">
      <!-- 1600 -->
      <g transform="translate(24.2 46.332982) scale(0.12 -0.12)">
       <use xlink:href="#SimHei-31"/>
       <use xlink:href="#SimHei-36" transform="translate(50 0)"/>
       <use xlink:href="#SimHei-30" transform="translate(100 0)"/>
       <use xlink:href="#SimHei-30" transform="translate(150 0)"/>
      </g>
     </g>
    </g>
    <g id="text_17">
     <!-- Total Reward -->
     <g transform="translate(18.2 252.105) rotate(-90) scale(0.16 -0.16)">
      <defs>
       <path id="SimHei-54" d="M 2850 3925 
L 1850 3925 
L 1850 125 
L 1275 125 
L 1275 3925 
L 275 3925 
L 275 4400 
L 2850 4400 
L 2850 3925 
z
" transform="scale(0.015625)"/>
       <path id="SimHei-74" d="M 2750 200 
Q 2625 150 2462 112 
Q 2300 75 2025 75 
Q 1575 75 1300 325 
Q 1025 575 1025 1025 
L 1025 2525 
L 175 2525 
L 175 2925 
L 1025 2925 
L 1025 3900 
L 1525 3900 
L 1525 2925 
L 2550 2925 
L 2550 2525 
L 1525 2525 
L 1525 1000 
Q 1525 800 1625 662 
Q 1725 525 2000 525 
Q 2275 525 2450 575 
Q 2625 625 2750 700 
L 2750 200 
z
" transform="scale(0.015625)"/>
       <path id="SimHei-61" d="M 2875 125 
L 2275 125 
Q 2225 175 2200 262 
Q 2175 350 2175 475 
Q 2000 275 1750 175 
Q 1500 75 1225 75 
Q 825 75 550 275 
Q 275 475 275 850 
Q 275 1225 525 1450 
Q 775 1675 1300 1750 
Q 1650 1800 1912 1875 
Q 2175 1950 2175 2075 
Q 2175 2225 2062 2375 
Q 1950 2525 1575 2525 
Q 1275 2525 1137 2412 
Q 1000 2300 950 2100 
L 400 2100 
Q 450 2500 762 2737 
Q 1075 2975 1575 2975 
Q 2125 2975 2400 2725 
Q 2675 2475 2675 2025 
L 2675 650 
Q 2675 500 2725 375 
Q 2775 250 2875 125 
z
M 2175 1050 
L 2175 1550 
Q 2025 1500 1887 1462 
Q 1750 1425 1425 1375 
Q 1050 1325 937 1200 
Q 825 1075 825 900 
Q 825 750 937 637 
Q 1050 525 1275 525 
Q 1500 525 1762 650 
Q 2025 775 2175 1050 
z
" transform="scale(0.015625)"/>
       <path id="SimHei-6c" d="M 1825 125 
L 1325 125 
L 1325 4400 
L 1825 4400 
L 1825 125 
z
" transform="scale(0.015625)"/>
       <path id="SimHei-20" transform="scale(0.015625)"/>
       <path id="SimHei-52" d="M 3000 125 
L 2400 125 
L 1500 1975 
L 850 1975 
L 850 125 
L 275 125 
L 275 4400 
L 1525 4400 
Q 2125 4400 2500 4112 
Q 2875 3825 2875 3175 
Q 2875 2675 2625 2400 
Q 2375 2125 2050 2050 
L 3000 125 
z
M 2300 3175 
Q 2300 3525 2087 3725 
Q 1875 3925 1400 3925 
L 850 3925 
L 850 2450 
L 1550 2450 
Q 1850 2450 2075 2612 
Q 2300 2775 2300 3175 
z
" transform="scale(0.015625)"/>
       <path id="SimHei-77" d="M 3075 2925 
L 2450 75 
L 1975 75 
L 1575 2250 
L 1525 2250 
L 1125 75 
L 650 75 
L 25 2925 
L 550 2925 
L 875 1050 
L 925 1050 
L 1275 2925 
L 1825 2925 
L 2175 1050 
L 2225 1050 
L 2550 2925 
L 3075 2925 
z
" transform="scale(0.015625)"/>
       <path id="SimHei-72" d="M 2500 2425 
Q 2025 2500 1700 2287 
Q 1375 2075 1150 1550 
L 1150 125 
L 650 125 
L 650 2925 
L 1150 2925 
L 1150 2200 
Q 1375 2600 1712 2787 
Q 2050 2975 2500 2975 
L 2500 2425 
z
" transform="scale(0.015625)"/>
      </defs>
      <use xlink:href="#SimHei-54"/>
      <use xlink:href="#SimHei-6f" transform="translate(50 0)"/>
      <use xlink:href="#SimHei-74" transform="translate(100 0)"/>
      <use xlink:href="#SimHei-61" transform="translate(150 0)"/>
      <use xlink:href="#SimHei-6c" transform="translate(200 0)"/>
      <use xlink:href="#SimHei-20" transform="translate(250 0)"/>
      <use xlink:href="#SimHei-52" transform="translate(300 0)"/>
      <use xlink:href="#SimHei-65" transform="translate(350 0)"/>
      <use xlink:href="#SimHei-77" transform="translate(400 0)"/>
      <use xlink:href="#SimHei-61" transform="translate(450 0)"/>
      <use xlink:href="#SimHei-72" transform="translate(500 0)"/>
      <use xlink:href="#SimHei-64" transform="translate(550 0)"/>
     </g>
    </g>
   </g>
   <g id="line2d_31">
    <path d="M 84.772273 40.668636 
L 86.254592 53.811215 
L 87.736912 55.415462 
L 89.219231 68.037563 
L 90.70155 68.249367 
L 93.666189 71.237512 
L 95.148509 73.390215 
L 96.630828 78.850699 
L 98.113148 75.919218 
L 99.595467 78.636507 
L 101.077787 78.428954 
L 102.560106 81.639702 
L 104.042425 90.858051 
L 105.524745 86.008666 
L 107.007064 89.996036 
L 108.489384 86.732886 
L 109.971703 91.877657 
L 111.454023 88.97162 
L 112.936342 86.763922 
L 114.418661 86.279342 
L 115.900981 96.43182 
L 117.3833 92.102282 
L 118.86562 97.217475 
L 120.347939 101.466878 
L 121.830259 96.503089 
L 123.312578 93.687969 
L 124.794897 89.85622 
L 126.277217 86.838835 
L 127.759536 82.95729 
L 129.241856 83.509663 
L 130.724175 81.909353 
L 132.206495 81.480567 
L 133.688814 79.812849 
L 135.171134 77.708503 
L 136.653453 76.924001 
L 138.135772 75.680823 
L 139.618092 73.116931 
L 141.100411 72.115486 
L 142.582731 69.674899 
L 144.06505 67.881205 
L 145.54737 64.204555 
L 147.029689 62.27576 
L 148.512008 60.795935 
L 149.994328 61.438199 
L 151.476647 64.057661 
L 152.958967 64.501981 
L 154.441286 65.232695 
L 155.923606 67.049149 
L 157.405925 66.54418 
L 160.370564 62.982541 
L 161.852883 64.813943 
L 163.335203 64.915338 
L 164.817522 65.979003 
L 166.299842 64.954524 
L 167.782161 64.806354 
L 170.7468 61.850262 
L 172.229119 62.090814 
L 173.711439 63.241332 
L 175.193758 62.965683 
L 176.676078 63.01994 
L 178.158397 64.882234 
L 179.640717 63.350673 
L 181.123036 62.404037 
L 182.605355 62.474357 
L 184.087675 60.250496 
L 185.569994 62.469212 
L 187.052314 61.432329 
L 188.534633 59.406405 
L 190.016953 61.761441 
L 191.499272 61.499689 
L 192.981591 64.517254 
L 194.463911 63.390007 
L 195.94623 61.871845 
L 197.42855 61.767207 
L 198.910869 62.081516 
L 200.393189 59.119019 
L 201.875508 79.795936 
L 203.357828 79.078949 
L 204.840147 79.168217 
L 206.322466 81.527465 
L 207.804786 78.719477 
L 209.287105 77.435218 
L 210.769425 75.263963 
L 212.251744 74.763244 
L 213.734064 73.955308 
L 215.216383 86.309206 
L 216.698702 88.381636 
L 218.181022 92.591035 
L 219.663341 87.24093 
L 221.145661 82.721166 
L 222.62798 109.500423 
L 224.1103 106.210553 
L 225.592619 101.449094 
L 227.074938 96.185807 
L 228.557258 103.382782 
L 230.039577 99.086525 
L 231.521897 96.643128 
L 233.004216 98.592002 
L 234.486536 96.565625 
L 235.968855 101.222761 
L 237.451175 105.08467 
L 238.933494 102.737086 
L 240.415813 103.085418 
L 241.898133 107.708313 
L 243.380452 111.930548 
L 244.862772 117.064389 
L 246.345091 121.170844 
L 247.827411 124.62844 
L 249.30973 119.568135 
L 250.792049 136.935104 
L 252.274369 144.566271 
L 253.756688 136.750095 
L 255.239008 143.89516 
L 256.721327 136.442933 
L 258.203647 140.647631 
L 259.685966 134.691061 
L 261.168285 141.440878 
L 262.650605 151.557047 
L 264.132924 145.076405 
L 265.615244 159.768713 
L 267.097563 162.407958 
L 268.579883 156.532173 
L 270.062202 182.240736 
L 271.544522 174.567711 
L 273.026841 179.288167 
L 274.50916 181.109125 
L 275.99148 180.289564 
L 277.473799 182.251954 
L 278.956119 178.328335 
L 280.438438 179.701659 
L 281.920758 175.468872 
L 283.403077 179.36594 
L 284.885396 179.393503 
L 286.367716 189.13517 
L 287.850035 194.699573 
L 289.332355 196.403336 
L 290.814674 195.472002 
L 292.296994 209.713412 
L 293.779313 221.621764 
L 295.261632 211.538972 
L 296.743952 227.124635 
L 298.226271 218.191265 
L 299.708591 220.785477 
L 301.19091 219.801293 
L 302.67323 217.650008 
L 304.155549 214.323803 
L 305.637869 205.411401 
L 307.120188 206.697356 
L 308.602507 209.140476 
L 310.084827 198.257372 
L 311.567146 194.210953 
L 313.049466 191.912473 
L 314.531785 190.349801 
L 316.014105 198.697814 
L 317.496424 197.675559 
L 318.978743 211.829105 
L 320.461063 212.150455 
L 321.943382 227.008664 
L 323.425702 221.761978 
L 324.908021 226.47793 
L 326.390341 218.874716 
L 327.87266 220.984567 
L 329.354979 208.784712 
L 330.837299 202.577583 
L 332.319618 203.094952 
L 333.801938 215.066353 
L 335.284257 218.192239 
L 336.766577 208.248402 
L 338.248896 204.622052 
L 339.731216 198.934856 
L 341.213535 206.197061 
L 342.695854 218.675168 
L 344.178174 236.37589 
L 345.660493 232.382084 
L 347.142813 250.75281 
L 348.625132 246.149502 
L 350.107452 237.726965 
L 351.589771 236.141267 
L 353.07209 226.443211 
L 354.55441 222.090046 
L 356.036729 214.874311 
L 357.519049 213.948437 
L 359.001368 225.12582 
L 360.483688 223.702372 
L 361.966007 229.244543 
L 363.448326 221.988049 
L 366.412965 228.4549 
L 369.377604 223.008823 
L 370.859924 239.165334 
L 372.342243 228.403874 
L 373.824563 227.055308 
L 375.306882 224.297924 
L 376.789201 224.07201 
L 378.271521 221.033674 
L 379.75384 218.564526 
L 381.23616 221.824358 
L 382.718479 222.477259 
L 384.200799 226.427383 
L 385.683118 217.255477 
L 387.165437 210.17924 
L 388.647757 214.614089 
L 390.130076 210.417682 
L 391.612396 216.389185 
L 393.094715 208.25884 
L 394.577035 208.975951 
L 396.059354 223.669789 
L 397.541674 242.020839 
L 399.023993 240.794075 
L 400.506312 253.668516 
L 401.988632 251.396674 
L 403.470951 247.687845 
L 404.953271 239.006322 
L 406.43559 239.254065 
L 407.91791 236.155213 
L 409.400229 224.82315 
L 410.882548 218.090849 
L 412.364868 207.732798 
L 413.847187 202.833749 
L 415.329507 203.737952 
L 416.811826 196.7913 
L 418.294146 204.492619 
L 419.776465 195.083448 
L 421.258784 193.587607 
L 422.741104 207.827764 
L 424.223423 204.706113 
L 425.705743 191.514276 
L 427.188062 182.988369 
L 428.670382 187.627627 
L 430.152701 195.695353 
L 431.635021 189.810585 
L 433.11734 189.086103 
L 434.599659 194.806802 
L 436.081979 194.52532 
L 437.564298 193.968609 
L 439.046618 192.880994 
L 440.528937 183.391693 
L 442.011257 191.758618 
L 443.493576 211.334636 
L 444.975895 225.591579 
L 446.458215 210.708924 
L 447.940534 214.568785 
L 449.422854 225.966371 
L 452.387493 211.560089 
L 453.869812 215.500175 
L 455.352131 221.459907 
L 456.834451 212.745498 
L 458.31677 210.832003 
L 459.79909 199.339162 
L 461.281409 208.556746 
L 462.763729 211.458916 
L 464.246048 206.587108 
L 465.728368 211.944938 
L 467.210687 212.692531 
L 468.693006 209.141237 
L 470.175326 206.531259 
L 471.657645 217.939486 
L 473.139965 214.580579 
L 474.622284 226.512998 
L 476.104604 229.824915 
L 477.586923 227.303818 
L 479.069242 235.931482 
L 480.551562 222.271206 
L 482.033881 221.869615 
L 483.516201 206.142025 
L 484.99852 208.308789 
L 486.48084 201.266238 
L 487.963159 202.946382 
L 490.927798 213.328191 
L 492.410117 212.844324 
L 493.892437 213.104023 
L 495.374756 215.007806 
L 496.857076 216.108579 
L 498.339395 219.605971 
L 499.821715 219.574231 
L 501.304034 214.165677 
L 502.786353 227.680525 
L 504.268673 222.421232 
L 505.750992 229.288764 
L 507.233312 231.462192 
L 508.715631 243.19151 
L 510.197951 233.325933 
L 511.68027 236.221436 
L 513.162589 243.682914 
L 514.644909 228.578913 
L 516.127228 207.177944 
L 517.609548 213.600778 
L 519.091867 232.709804 
L 520.574187 226.718065 
L 522.056506 219.807698 
L 523.538825 231.345134 
L 525.021145 222.045296 
L 526.503464 224.704175 
L 527.985784 213.282749 
L 529.468103 203.987529 
L 530.950423 210.803567 
L 532.432742 224.07665 
L 533.915062 213.235228 
L 535.397381 214.31105 
L 536.8797 209.877651 
L 538.36202 210.219059 
L 539.844339 223.153713 
L 541.326659 217.829506 
L 542.808978 218.295241 
L 544.291298 209.138355 
L 545.773617 198.867299 
L 547.255936 192.78557 
L 548.738256 188.998303 
L 550.220575 183.344674 
L 551.702895 183.624311 
L 553.185214 179.772267 
L 554.667534 170.915029 
L 556.149853 166.819501 
L 557.632172 168.391071 
L 559.114492 173.770312 
L 560.596811 187.30212 
L 562.079131 182.542449 
L 563.56145 190.991201 
L 565.04377 192.37143 
L 566.526089 183.627477 
L 568.008409 179.306121 
L 569.490728 170.40097 
L 570.973047 168.227163 
L 572.455367 173.62371 
L 573.937686 172.31987 
L 575.420006 169.841764 
L 576.902325 166.757388 
L 578.384645 172.640919 
L 581.349283 162.670718 
L 582.831603 162.47917 
L 584.313922 168.321114 
L 585.796242 169.989154 
L 587.278561 171.47246 
L 588.760881 177.964992 
L 590.2432 175.623283 
L 591.725519 174.494279 
L 593.207839 181.245384 
L 594.690158 184.714727 
L 596.172478 183.753071 
L 597.654797 190.451042 
L 599.137117 185.939574 
L 600.619436 184.282355 
L 602.101756 175.890066 
L 603.584075 178.743184 
L 605.066394 180.299618 
L 606.548714 187.950209 
L 608.031033 200.204858 
L 609.513353 194.363216 
L 610.995672 195.338558 
L 612.477992 185.681393 
L 613.960311 183.953043 
L 615.44263 175.90868 
L 616.92495 179.338147 
L 618.407269 187.333482 
L 619.889589 205.208664 
L 621.371908 194.212422 
L 622.854228 191.778341 
L 624.336547 181.87432 
L 625.818866 181.362638 
L 627.301186 183.397653 
L 628.783505 188.1769 
L 630.265825 183.728722 
L 631.748144 190.722268 
L 633.230464 188.490953 
L 634.712783 194.209836 
L 636.195103 193.925064 
L 637.677422 180.780705 
L 639.159741 191.741297 
L 640.642061 188.506714 
L 642.12438 197.164456 
L 643.6067 198.21354 
L 645.089019 201.376754 
L 646.571339 193.856561 
L 649.535977 183.031513 
L 651.018297 188.758028 
L 652.500616 204.855328 
L 653.982936 199.069325 
L 655.465255 201.330638 
L 656.947575 198.704884 
L 658.429894 196.493819 
L 659.912213 216.265546 
L 661.394533 213.441915 
L 662.876852 203.852972 
L 665.841491 195.998091 
L 667.323811 212.79692 
L 668.80613 220.540945 
L 670.28845 208.64044 
L 671.770769 206.56174 
L 673.253088 215.456716 
L 674.735408 214.612302 
L 676.217727 219.646521 
L 676.217727 219.646521 
" clip-path="url(#p69a686e242)" style="fill: none; stroke: #1f77b4; stroke-width: 1.5; stroke-linecap: square"/>
   </g>
   <g id="line2d_32">
    <path d="M 84.772273 246.863332 
L 86.254592 252.15384 
L 87.736912 251.772469 
L 89.219231 252.912883 
L 90.70155 258.938535 
L 93.666189 253.853198 
L 95.148509 258.588612 
L 96.630828 261.634106 
L 98.113148 267.384942 
L 99.595467 270.09595 
L 101.077787 269.206165 
L 102.560106 268.185518 
L 104.042425 278.009831 
L 105.524745 267.472755 
L 107.007064 277.432756 
L 108.489384 281.106356 
L 109.971703 276.182745 
L 111.454023 273.200655 
L 112.936342 268.533999 
L 114.418661 266.932134 
L 115.900981 260.306759 
L 118.86562 241.657846 
L 120.347939 238.467793 
L 121.830259 239.354877 
L 123.312578 244.854718 
L 124.794897 244.40787 
L 126.277217 256.760048 
L 129.241856 277.223875 
L 132.206495 262.84514 
L 133.688814 264.957676 
L 135.171134 276.258269 
L 136.653453 275.515319 
L 138.135772 274.495127 
L 139.618092 266.814556 
L 141.100411 266.502565 
L 142.582731 263.831848 
L 144.06505 258.675706 
L 145.54737 265.227938 
L 147.029689 257.045029 
L 148.512008 255.10083 
L 149.994328 255.519146 
L 151.476647 248.515918 
L 152.958967 250.469322 
L 154.441286 243.025231 
L 155.923606 238.22969 
L 157.405925 238.768657 
L 158.888244 232.924062 
L 160.370564 237.512959 
L 161.852883 231.199289 
L 164.817522 227.474484 
L 166.299842 225.030901 
L 167.782161 225.863381 
L 169.264481 227.452031 
L 170.7468 230.78789 
L 172.229119 219.008835 
L 173.711439 213.202102 
L 175.193758 204.686003 
L 178.158397 198.26155 
L 179.640717 196.264526 
L 181.123036 193.933715 
L 182.605355 194.606469 
L 184.087675 191.039223 
L 185.569994 204.43423 
L 187.052314 195.022659 
L 188.534633 191.610066 
L 190.016953 186.952365 
L 191.499272 179.655178 
L 192.981591 182.716045 
L 194.463911 183.148784 
L 195.94623 179.153345 
L 197.42855 178.788561 
L 198.910869 178.034155 
L 200.393189 178.007458 
L 201.875508 178.855929 
L 203.357828 179.435221 
L 204.840147 179.171153 
L 206.322466 177.054067 
L 209.287105 175.585223 
L 210.769425 175.667109 
L 212.251744 176.987933 
L 213.734064 172.768355 
L 215.216383 170.533861 
L 216.698702 172.445423 
L 218.181022 178.558391 
L 219.663341 183.396473 
L 222.62798 191.709188 
L 225.592619 176.803616 
L 227.074938 175.101298 
L 228.557258 174.802591 
L 230.039577 178.844955 
L 231.521897 177.220435 
L 233.004216 172.436523 
L 234.486536 169.014149 
L 235.968855 167.94652 
L 237.451175 163.773192 
L 238.933494 164.585051 
L 240.415813 160.663956 
L 241.898133 158.28602 
L 244.862772 152.403602 
L 246.345091 147.97347 
L 247.827411 144.285692 
L 249.30973 144.651872 
L 250.792049 140.382469 
L 252.274369 142.896097 
L 253.756688 143.596026 
L 255.239008 153.937867 
L 256.721327 150.474471 
L 258.203647 149.894486 
L 259.685966 147.435063 
L 261.168285 145.773737 
L 262.650605 144.852591 
L 264.132924 140.154755 
L 265.615244 139.046528 
L 267.097563 137.275346 
L 268.579883 134.939334 
L 270.062202 129.680277 
L 271.544522 131.383528 
L 273.026841 127.665481 
L 274.50916 130.590356 
L 275.99148 124.304657 
L 277.473799 126.562116 
L 278.956119 127.254828 
L 280.438438 126.684294 
L 281.920758 125.463821 
L 283.403077 119.751402 
L 284.885396 123.208453 
L 286.367716 121.552026 
L 287.850035 121.077416 
L 289.332355 126.737061 
L 290.814674 126.157274 
L 292.296994 125.086901 
L 293.779313 128.273395 
L 295.261632 129.552195 
L 296.743952 129.911322 
L 298.226271 125.896598 
L 299.708591 122.33552 
L 301.19091 119.589753 
L 302.67323 119.66002 
L 304.155549 116.738766 
L 305.637869 116.856025 
L 307.120188 114.21412 
L 308.602507 117.289441 
L 310.084827 113.340874 
L 311.567146 113.810742 
L 313.049466 112.702228 
L 314.531785 107.002188 
L 316.014105 104.837135 
L 317.496424 106.305288 
L 318.978743 104.046278 
L 320.461063 101.205457 
L 321.943382 97.992309 
L 323.425702 98.698129 
L 324.908021 98.776502 
L 326.390341 97.596955 
L 327.87266 95.610806 
L 329.354979 93.286779 
L 330.837299 96.033527 
L 332.319618 96.982946 
L 333.801938 94.579698 
L 335.284257 95.728359 
L 336.766577 95.147608 
L 339.731216 94.301136 
L 341.213535 96.854268 
L 342.695854 97.18629 
L 344.178174 98.175111 
L 345.660493 95.403357 
L 347.142813 95.77019 
L 348.625132 102.765712 
L 350.107452 103.739999 
L 351.589771 100.187406 
L 353.07209 104.052515 
L 354.55441 102.490859 
L 356.036729 98.16587 
L 357.519049 97.878058 
L 359.001368 98.034153 
L 360.483688 99.226875 
L 361.966007 100.889407 
L 363.448326 98.490507 
L 364.930646 97.528882 
L 366.412965 97.888717 
L 367.895285 100.266833 
L 369.377604 101.383356 
L 370.859924 102.805125 
L 372.342243 100.063852 
L 373.824563 96.739527 
L 375.306882 98.029542 
L 376.789201 98.277527 
L 378.271521 99.686694 
L 379.75384 94.5462 
L 381.23616 93.306774 
L 382.718479 91.799788 
L 384.200799 89.953642 
L 385.683118 89.575921 
L 387.165437 88.821455 
L 388.647757 86.556732 
L 390.130076 85.235077 
L 391.612396 87.00767 
L 393.094715 86.274307 
L 394.577035 86.249391 
L 396.059354 84.888795 
L 397.541674 84.2361 
L 399.023993 81.700086 
L 400.506312 78.818874 
L 401.988632 82.437785 
L 403.470951 82.414715 
L 404.953271 80.067867 
L 406.43559 81.376421 
L 407.91791 79.298581 
L 409.400229 85.144207 
L 412.364868 82.182406 
L 413.847187 82.086134 
L 415.329507 81.696855 
L 416.811826 82.8101 
L 418.294146 85.01038 
L 419.776465 81.51482 
L 421.258784 81.359115 
L 422.741104 77.623487 
L 424.223423 75.271566 
L 425.705743 77.74027 
L 427.188062 76.429278 
L 428.670382 78.171367 
L 430.152701 78.452267 
L 431.635021 76.87017 
L 433.11734 76.121952 
L 434.599659 74.655191 
L 436.081979 77.572075 
L 437.564298 76.425598 
L 439.046618 78.371385 
L 440.528937 81.603419 
L 442.011257 81.351333 
L 443.493576 79.343916 
L 444.975895 76.650525 
L 446.458215 75.074739 
L 447.940534 72.935571 
L 449.422854 73.12896 
L 450.905173 71.363548 
L 453.869812 72.853263 
L 455.352131 73.851985 
L 456.834451 74.420299 
L 458.31677 73.599369 
L 459.79909 73.989715 
L 461.281409 73.50191 
L 462.763729 74.631614 
L 464.246048 74.914767 
L 465.728368 78.946681 
L 467.210687 77.032594 
L 468.693006 79.956039 
L 470.175326 79.343468 
L 471.657645 78.168967 
L 473.139965 77.442434 
L 474.622284 74.988379 
L 476.104604 76.275653 
L 477.586923 74.712007 
L 479.069242 77.552995 
L 480.551562 74.749644 
L 482.033881 75.831386 
L 483.516201 76.760086 
L 484.99852 72.178601 
L 486.48084 73.925289 
L 487.963159 71.108541 
L 489.445478 74.04931 
L 490.927798 76.330057 
L 492.410117 75.394671 
L 493.892437 78.280605 
L 495.374756 75.987696 
L 496.857076 75.258816 
L 498.339395 74.80146 
L 499.821715 73.676261 
L 501.304034 75.41736 
L 502.786353 75.150764 
L 504.268673 73.146505 
L 505.750992 72.779654 
L 507.233312 73.405491 
L 508.715631 71.427978 
L 510.197951 71.770487 
L 511.68027 70.364827 
L 513.162589 68.590556 
L 514.644909 69.804771 
L 516.127228 67.728637 
L 517.609548 67.446347 
L 519.091867 70.120752 
L 520.574187 69.915699 
L 522.056506 73.283445 
L 523.538825 73.564172 
L 525.021145 71.781766 
L 526.503464 73.445185 
L 527.985784 71.492335 
L 529.468103 72.104954 
L 530.950423 70.407298 
L 532.432742 70.142931 
L 533.915062 66.948929 
L 536.8797 69.221078 
L 538.36202 66.807893 
L 539.844339 62.600679 
L 541.326659 61.894494 
L 542.808978 59.320465 
L 544.291298 62.0796 
L 545.773617 63.82568 
L 547.255936 63.107365 
L 548.738256 62.094861 
L 550.220575 63.109239 
L 551.702895 63.865583 
L 553.185214 60.282019 
L 554.667534 64.391508 
L 556.149853 66.148488 
L 557.632172 64.999745 
L 559.114492 68.10742 
L 560.596811 68.623797 
L 562.079131 71.178378 
L 563.56145 69.774822 
L 565.04377 68.102847 
L 568.008409 68.160589 
L 569.490728 67.277603 
L 570.973047 69.000781 
L 572.455367 68.982145 
L 573.937686 65.413626 
L 575.420006 63.598233 
L 576.902325 65.191608 
L 578.384645 63.901457 
L 579.866964 63.385438 
L 581.349283 65.812841 
L 582.831603 65.365194 
L 584.313922 61.446289 
L 585.796242 61.414884 
L 587.278561 62.456196 
L 588.760881 64.097342 
L 591.725519 64.561063 
L 593.207839 62.082888 
L 594.690158 61.252794 
L 596.172478 57.435928 
L 597.654797 56.428459 
L 599.137117 57.176016 
L 600.619436 60.268928 
L 602.101756 60.437896 
L 603.584075 60.101817 
L 605.066394 62.207092 
L 606.548714 60.950239 
L 608.031033 57.072038 
L 609.513353 58.672526 
L 610.995672 65.143659 
L 612.477992 63.557788 
L 613.960311 63.865575 
L 615.44263 65.366448 
L 616.92495 66.02085 
L 618.407269 67.384042 
L 619.889589 67.5385 
L 621.371908 68.55931 
L 622.854228 71.340409 
L 624.336547 71.222427 
L 625.818866 70.257411 
L 627.301186 67.676715 
L 628.783505 67.278313 
L 630.265825 67.593449 
L 631.748144 66.7181 
L 633.230464 63.725608 
L 634.712783 63.539825 
L 636.195103 65.602696 
L 637.677422 64.891549 
L 639.159741 62.465559 
L 640.642061 62.170555 
L 642.12438 61.428351 
L 643.6067 61.992715 
L 645.089019 65.077564 
L 646.571339 66.155056 
L 648.053658 68.713515 
L 649.535977 69.564046 
L 651.018297 69.626634 
L 652.500616 68.448314 
L 653.982936 70.200378 
L 655.465255 69.494339 
L 656.947575 70.770256 
L 661.394533 63.353051 
L 662.876852 62.915256 
L 664.359172 63.319561 
L 665.841491 62.550248 
L 667.323811 61.441652 
L 668.80613 58.347433 
L 670.28845 57.83178 
L 671.770769 60.475243 
L 673.253088 61.180649 
L 674.735408 58.560982 
L 676.217727 58.65594 
L 676.217727 58.65594 
" clip-path="url(#p69a686e242)" style="fill: none; stroke: #ff7f0e; stroke-width: 1.5; stroke-linecap: square"/>
   </g>
   <g id="line2d_33">
    <path d="M 84.772273 315.691897 
L 86.254592 312.835652 
L 87.736912 307.588418 
L 89.219231 315.285611 
L 90.70155 310.100492 
L 92.18387 298.415612 
L 93.666189 309.892538 
L 95.148509 316.146655 
L 96.630828 319.531196 
L 98.113148 323.296387 
L 99.595467 308.20407 
L 101.077787 310.551877 
L 102.560106 305.132052 
L 104.042425 301.369744 
L 105.524745 302.218903 
L 107.007064 301.799257 
L 108.489384 291.64594 
L 109.971703 296.576452 
L 111.454023 288.955615 
L 112.936342 291.4372 
L 114.418661 305.710738 
L 115.900981 303.369985 
L 117.3833 305.392737 
L 118.86562 322.756429 
L 120.347939 335.834546 
L 121.830259 341.510151 
L 123.312578 344.824491 
L 124.794897 342.372195 
L 126.277217 328.059941 
L 127.759536 330.631556 
L 129.241856 338.754365 
L 130.724175 337.186774 
L 132.206495 346.040822 
L 133.688814 345.311764 
L 135.171134 355.245374 
L 136.653453 356.227067 
L 138.135772 360.653774 
L 139.618092 367.541364 
L 141.100411 364.585134 
L 142.582731 353.908733 
L 144.06505 359.587585 
L 145.54737 353.328863 
L 147.029689 339.712339 
L 149.994328 335.729369 
L 151.476647 321.766736 
L 152.958967 309.57238 
L 154.441286 300.36178 
L 155.923606 303.026193 
L 158.888244 280.234082 
L 160.370564 277.559689 
L 161.852883 273.119261 
L 163.335203 263.889693 
L 164.817522 257.970659 
L 166.299842 258.607756 
L 167.782161 261.802816 
L 169.264481 251.524644 
L 170.7468 252.810789 
L 172.229119 256.969329 
L 173.711439 254.093371 
L 175.193758 252.419453 
L 178.158397 233.20502 
L 181.123036 219.58514 
L 182.605355 213.907054 
L 184.087675 207.207035 
L 185.569994 207.048678 
L 187.052314 201.918262 
L 188.534633 201.858469 
L 190.016953 205.684224 
L 191.499272 199.65304 
L 192.981591 192.54257 
L 194.463911 186.399075 
L 195.94623 182.719432 
L 197.42855 185.211239 
L 198.910869 183.362465 
L 200.393189 177.674316 
L 201.875508 166.090904 
L 204.840147 145.420095 
L 206.322466 137.412446 
L 207.804786 127.605903 
L 209.287105 119.717931 
L 210.769425 116.182248 
L 212.251744 113.712978 
L 213.734064 107.645447 
L 215.216383 104.777916 
L 216.698702 98.900931 
L 218.181022 95.760753 
L 219.663341 89.980169 
L 221.145661 88.092452 
L 222.62798 84.630791 
L 224.1103 84.632482 
L 225.592619 81.784834 
L 227.074938 78.637631 
L 228.557258 77.389891 
L 230.039577 73.650926 
L 231.521897 71.514701 
L 233.004216 70.073353 
L 234.486536 69.148457 
L 237.451175 66.671655 
L 238.933494 67.183809 
L 240.415813 64.722324 
L 241.898133 66.313877 
L 243.380452 66.772598 
L 244.862772 68.289803 
L 246.345091 66.047695 
L 247.827411 65.514526 
L 249.30973 65.123388 
L 250.792049 62.251764 
L 252.274369 59.695903 
L 255.239008 64.578539 
L 256.721327 64.575666 
L 258.203647 67.474949 
L 259.685966 67.293608 
L 261.168285 67.990881 
L 264.132924 66.051516 
L 265.615244 64.238296 
L 267.097563 65.251516 
L 268.579883 64.402962 
L 270.062202 66.048698 
L 271.544522 64.119234 
L 273.026841 65.723486 
L 274.50916 63.943371 
L 275.99148 65.006788 
L 277.473799 63.177559 
L 278.956119 63.910017 
L 280.438438 65.578994 
L 281.920758 65.543207 
L 283.403077 63.763268 
L 284.885396 62.310635 
L 286.367716 62.473474 
L 289.332355 65.142635 
L 290.814674 64.094888 
L 292.296994 61.014546 
L 293.779313 61.159287 
L 295.261632 59.727202 
L 296.743952 58.976037 
L 298.226271 56.165086 
L 299.708591 59.118104 
L 301.19091 60.153678 
L 304.155549 59.63269 
L 305.637869 55.998417 
L 308.602507 52.618092 
L 310.084827 53.632871 
L 311.567146 53.356914 
L 313.049466 52.314247 
L 314.531785 51.431001 
L 316.014105 52.804464 
L 317.496424 51.069027 
L 318.978743 54.411002 
L 320.461063 56.169122 
L 321.943382 56.472012 
L 323.425702 57.231642 
L 324.908021 56.282294 
L 326.390341 56.472997 
L 327.87266 57.249671 
L 330.837299 60.223357 
L 332.319618 58.931858 
L 333.801938 58.121421 
L 335.284257 59.156889 
L 336.766577 61.321724 
L 338.248896 60.603848 
L 339.731216 58.594436 
L 341.213535 58.593355 
L 342.695854 59.757836 
L 344.178174 57.691589 
L 345.660493 58.993849 
L 347.142813 61.347302 
L 348.625132 60.520125 
L 350.107452 59.498764 
L 351.589771 62.335608 
L 353.07209 63.44831 
L 354.55441 61.370981 
L 356.036729 57.724704 
L 357.519049 59.579195 
L 359.001368 59.073531 
L 360.483688 56.831965 
L 361.966007 57.889591 
L 363.448326 57.608819 
L 364.930646 59.297445 
L 366.412965 57.73694 
L 367.895285 58.863889 
L 369.377604 59.547613 
L 370.859924 60.435161 
L 372.342243 59.144649 
L 373.824563 60.283459 
L 375.306882 59.850628 
L 376.789201 58.894401 
L 378.271521 59.196597 
L 379.75384 62.550267 
L 381.23616 62.436527 
L 382.718479 60.763454 
L 384.200799 60.666078 
L 385.683118 59.44098 
L 387.165437 57.594815 
L 388.647757 54.945112 
L 390.130076 56.780575 
L 393.094715 55.360379 
L 394.577035 56.597693 
L 396.059354 53.640135 
L 397.541674 55.373032 
L 399.023993 57.856719 
L 400.506312 56.86959 
L 401.988632 56.651798 
L 404.953271 59.826514 
L 406.43559 60.038507 
L 407.91791 60.744164 
L 409.400229 60.459983 
L 410.882548 59.664751 
L 412.364868 61.982364 
L 413.847187 59.787511 
L 415.329507 60.711003 
L 416.811826 60.366589 
L 418.294146 60.823598 
L 421.258784 61.484002 
L 422.741104 61.077916 
L 424.223423 61.511149 
L 425.705743 59.201559 
L 427.188062 59.098022 
L 430.152701 55.836746 
L 431.635021 55.222738 
L 433.11734 53.046796 
L 434.599659 55.417102 
L 436.081979 57.338514 
L 437.564298 57.452577 
L 439.046618 58.344608 
L 440.528937 58.173494 
L 442.011257 59.0142 
L 443.493576 59.346418 
L 444.975895 57.96328 
L 446.458215 60.673122 
L 447.940534 61.359249 
L 449.422854 61.12183 
L 450.905173 62.754268 
L 452.387493 62.236559 
L 453.869812 63.464779 
L 455.352131 63.247956 
L 456.834451 61.214119 
L 458.31677 61.06493 
L 459.79909 61.956034 
L 462.763729 61.390445 
L 464.246048 62.459844 
L 465.728368 64.283465 
L 467.210687 64.270611 
L 468.693006 65.622598 
L 470.175326 65.52298 
L 471.657645 65.731409 
L 473.139965 68.655245 
L 474.622284 69.312997 
L 476.104604 65.969431 
L 477.586923 64.011676 
L 479.069242 61.245063 
L 480.551562 60.064565 
L 483.516201 58.85251 
L 486.48084 59.425994 
L 487.963159 58.712687 
L 489.445478 62.052226 
L 490.927798 63.2289 
L 492.410117 62.452717 
L 493.892437 63.217886 
L 495.374756 61.188664 
L 498.339395 59.159465 
L 499.821715 56.988087 
L 501.304034 56.458475 
L 502.786353 57.759982 
L 504.268673 54.490337 
L 505.750992 55.008917 
L 507.233312 57.705892 
L 508.715631 55.752752 
L 510.197951 57.080315 
L 511.68027 57.228175 
L 513.162589 56.862349 
L 514.644909 55.428914 
L 516.127228 57.12673 
L 517.609548 58.498864 
L 519.091867 59.322107 
L 520.574187 60.437408 
L 522.056506 58.207179 
L 523.538825 56.533303 
L 525.021145 56.887881 
L 526.503464 56.13157 
L 527.985784 56.415241 
L 529.468103 57.255125 
L 532.432742 60.076442 
L 533.915062 61.382563 
L 535.397381 58.397554 
L 536.8797 59.391644 
L 538.36202 59.243225 
L 539.844339 60.177232 
L 541.326659 60.047697 
L 542.808978 59.290133 
L 544.291298 61.008297 
L 545.773617 58.982131 
L 547.255936 59.96056 
L 550.220575 62.47666 
L 551.702895 62.229716 
L 554.667534 64.809638 
L 556.149853 62.230381 
L 557.632172 62.683415 
L 559.114492 64.21244 
L 560.596811 64.912503 
L 562.079131 64.853052 
L 563.56145 64.312772 
L 565.04377 65.034926 
L 566.526089 65.098424 
L 568.008409 66.152601 
L 569.490728 63.812441 
L 570.973047 65.267501 
L 572.455367 66.135534 
L 573.937686 67.710854 
L 575.420006 66.314474 
L 576.902325 66.741129 
L 578.384645 65.055967 
L 579.866964 65.489901 
L 581.349283 65.448399 
L 582.831603 64.076524 
L 584.313922 60.710511 
L 585.796242 60.411824 
L 587.278561 59.865248 
L 588.760881 56.270845 
L 590.2432 54.479932 
L 591.725519 54.56289 
L 593.207839 56.123712 
L 594.690158 59.576918 
L 596.172478 61.121847 
L 597.654797 62.057212 
L 599.137117 63.75603 
L 602.101756 60.136403 
L 603.584075 59.293369 
L 605.066394 61.732297 
L 606.548714 60.60867 
L 608.031033 59.936508 
L 609.513353 57.916378 
L 610.995672 57.855057 
L 612.477992 59.124398 
L 613.960311 59.42695 
L 615.44263 57.910103 
L 616.92495 56.147964 
L 618.407269 56.430621 
L 619.889589 61.20368 
L 621.371908 58.643816 
L 622.854228 57.636932 
L 624.336547 58.577041 
L 625.818866 56.087603 
L 627.301186 55.122172 
L 628.783505 56.779547 
L 630.265825 57.779276 
L 631.748144 56.514398 
L 633.230464 60.079195 
L 634.712783 58.922233 
L 636.195103 62.300402 
L 637.677422 64.598613 
L 639.159741 65.397739 
L 640.642061 64.131477 
L 642.12438 62.716219 
L 643.6067 63.759614 
L 645.089019 63.343326 
L 646.571339 62.810604 
L 648.053658 61.018099 
L 649.535977 60.582797 
L 651.018297 58.808077 
L 652.500616 59.220267 
L 653.982936 56.35199 
L 655.465255 60.966713 
L 656.947575 61.813898 
L 658.429894 63.926409 
L 661.394533 64.740691 
L 662.876852 66.026264 
L 664.359172 63.857963 
L 665.841491 65.866738 
L 667.323811 64.631983 
L 668.80613 64.813189 
L 670.28845 65.298738 
L 671.770769 65.495455 
L 673.253088 64.030739 
L 674.735408 61.400764 
L 676.217727 63.068374 
L 676.217727 63.068374 
" clip-path="url(#p69a686e242)" style="fill: none; stroke: #2ca02c; stroke-width: 1.5; stroke-linecap: square"/>
   </g>
   <g id="line2d_34">
    <path d="M 84.772273 318.881024 
L 86.254592 305.445802 
L 87.736912 280.263277 
L 89.219231 259.872793 
L 93.666189 206.31347 
L 95.148509 190.651075 
L 96.630828 176.262815 
L 98.113148 163.620761 
L 101.077787 142.2453 
L 105.524745 121.074689 
L 108.489384 113.271409 
L 109.971703 112.670246 
L 111.454023 108.517972 
L 112.936342 102.29998 
L 115.900981 96.531794 
L 117.3833 94.550366 
L 118.86562 91.189419 
L 120.347939 87.165601 
L 123.312578 77.977375 
L 124.794897 76.779778 
L 126.277217 74.922456 
L 127.759536 72.480512 
L 129.241856 68.46192 
L 130.724175 66.711683 
L 132.206495 67.325917 
L 133.688814 66.061881 
L 135.171134 66.814602 
L 136.653453 65.600173 
L 138.135772 65.067871 
L 139.618092 62.692942 
L 141.100411 62.223307 
L 142.582731 60.935756 
L 144.06505 63.836208 
L 145.54737 63.845148 
L 147.029689 63.994785 
L 148.512008 62.728171 
L 149.994328 65.745224 
L 151.476647 65.456761 
L 152.958967 64.304231 
L 154.441286 64.502121 
L 155.923606 63.246061 
L 157.405925 63.006657 
L 158.888244 64.381018 
L 161.852883 66.706516 
L 163.335203 64.539407 
L 166.299842 64.498396 
L 169.264481 62.363964 
L 170.7468 62.302819 
L 172.229119 63.302944 
L 173.711439 61.784775 
L 175.193758 61.19038 
L 176.676078 63.95608 
L 178.158397 62.95065 
L 179.640717 61.374838 
L 181.123036 60.75003 
L 182.605355 61.680046 
L 184.087675 60.822908 
L 185.569994 65.457296 
L 187.052314 65.936438 
L 188.534633 66.660758 
L 190.016953 64.682184 
L 191.499272 65.70031 
L 192.981591 66.14623 
L 194.463911 66.123884 
L 195.94623 63.668385 
L 197.42855 61.767004 
L 198.910869 62.109356 
L 200.393189 62.321853 
L 201.875508 63.002297 
L 203.357828 65.221571 
L 204.840147 66.002688 
L 206.322466 68.07829 
L 207.804786 67.974971 
L 209.287105 65.385416 
L 210.769425 67.881357 
L 212.251744 69.546533 
L 213.734064 69.736389 
L 215.216383 68.821613 
L 216.698702 71.418756 
L 218.181022 67.494427 
L 219.663341 70.181371 
L 221.145661 71.139424 
L 222.62798 70.269148 
L 225.592619 69.763663 
L 227.074938 67.323596 
L 228.557258 69.481542 
L 230.039577 68.96133 
L 231.521897 65.899763 
L 233.004216 69.819981 
L 234.486536 68.176904 
L 235.968855 67.554982 
L 237.451175 67.937038 
L 238.933494 66.391139 
L 240.415813 65.770921 
L 241.898133 61.445521 
L 243.380452 60.0444 
L 244.862772 61.47813 
L 246.345091 63.401164 
L 247.827411 66.009052 
L 249.30973 66.267682 
L 250.792049 64.411105 
L 252.274369 63.839061 
L 253.756688 65.572473 
L 255.239008 65.452164 
L 256.721327 67.196763 
L 258.203647 64.480548 
L 259.685966 64.715026 
L 261.168285 63.590016 
L 262.650605 63.076046 
L 264.132924 65.342773 
L 265.615244 68.313772 
L 267.097563 65.082155 
L 268.579883 64.528138 
L 270.062202 64.884303 
L 271.544522 62.023406 
L 273.026841 62.994764 
L 275.99148 63.474892 
L 277.473799 60.766821 
L 278.956119 60.833666 
L 280.438438 61.021372 
L 281.920758 62.204942 
L 283.403077 64.339643 
L 284.885396 61.188521 
L 286.367716 61.311006 
L 287.850035 59.582657 
L 289.332355 61.132798 
L 290.814674 59.844299 
L 292.296994 61.712375 
L 293.779313 64.318708 
L 295.261632 66.609066 
L 296.743952 67.079561 
L 298.226271 66.075702 
L 299.708591 65.532078 
L 301.19091 65.198623 
L 302.67323 62.204585 
L 304.155549 62.98819 
L 305.637869 59.896872 
L 307.120188 62.134998 
L 308.602507 61.045622 
L 310.084827 65.500187 
L 311.567146 68.385907 
L 313.049466 67.828725 
L 314.531785 67.644585 
L 316.014105 68.52151 
L 317.496424 70.918838 
L 318.978743 68.271378 
L 320.461063 68.846114 
L 321.943382 70.383548 
L 323.425702 69.850734 
L 324.908021 68.209366 
L 326.390341 64.718942 
L 327.87266 65.775998 
L 329.354979 65.425706 
L 330.837299 67.312821 
L 332.319618 65.416615 
L 333.801938 64.963834 
L 335.284257 64.152989 
L 336.766577 66.174398 
L 338.248896 63.165861 
L 339.731216 63.28482 
L 341.213535 62.272566 
L 342.695854 61.698595 
L 344.178174 58.06445 
L 345.660493 57.843258 
L 347.142813 58.201558 
L 348.625132 58.371228 
L 350.107452 59.318362 
L 351.589771 58.724131 
L 353.07209 61.129964 
L 354.55441 64.30812 
L 356.036729 64.657157 
L 357.519049 64.741787 
L 360.483688 67.735338 
L 361.966007 67.62667 
L 363.448326 64.687866 
L 364.930646 62.317898 
L 366.412965 62.460767 
L 367.895285 61.025897 
L 369.377604 62.498327 
L 370.859924 62.772462 
L 372.342243 64.470336 
L 375.306882 66.733898 
L 376.789201 63.075512 
L 378.271521 60.148117 
L 379.75384 57.574007 
L 381.23616 59.104086 
L 382.718479 61.233234 
L 384.200799 62.375395 
L 385.683118 63.342642 
L 387.165437 61.353977 
L 390.130076 59.714114 
L 393.094715 61.236468 
L 394.577035 60.991024 
L 396.059354 57.539785 
L 397.541674 58.095918 
L 399.023993 60.31823 
L 400.506312 63.050124 
L 403.470951 64.898766 
L 406.43559 63.942178 
L 407.91791 64.003167 
L 409.400229 65.447845 
L 410.882548 65.791332 
L 412.364868 67.085512 
L 413.847187 68.214544 
L 415.329507 67.892066 
L 416.811826 67.026912 
L 418.294146 64.730752 
L 419.776465 65.045807 
L 421.258784 64.088771 
L 422.741104 63.577542 
L 424.223423 65.588735 
L 425.705743 66.615911 
L 427.188062 65.199149 
L 428.670382 64.326305 
L 430.152701 67.039209 
L 431.635021 67.225571 
L 433.11734 68.848435 
L 434.599659 68.907838 
L 436.081979 67.156053 
L 437.564298 67.925916 
L 439.046618 65.483172 
L 440.528937 64.362745 
L 442.011257 65.197169 
L 443.493576 64.213035 
L 444.975895 62.681486 
L 446.458215 64.14316 
L 447.940534 64.175413 
L 450.905173 58.742834 
L 452.387493 58.346709 
L 453.869812 58.920349 
L 455.352131 58.524651 
L 456.834451 59.798116 
L 458.31677 63.661844 
L 459.79909 66.197137 
L 461.281409 63.768857 
L 462.763729 63.882636 
L 464.246048 61.956439 
L 465.728368 61.383035 
L 467.210687 63.421553 
L 468.693006 64.29295 
L 470.175326 64.295023 
L 471.657645 63.052227 
L 473.139965 64.400453 
L 474.622284 63.866363 
L 477.586923 70.385005 
L 479.069242 69.508323 
L 480.551562 69.653709 
L 482.033881 68.664657 
L 483.516201 68.902012 
L 484.99852 71.180964 
L 486.48084 69.158859 
L 487.963159 70.338953 
L 489.445478 65.84057 
L 490.927798 68.542912 
L 492.410117 67.900275 
L 493.892437 66.898 
L 495.374756 63.203531 
L 496.857076 61.836632 
L 498.339395 61.615429 
L 499.821715 61.897614 
L 501.304034 61.116959 
L 502.786353 59.459016 
L 504.268673 60.36537 
L 505.750992 57.783432 
L 507.233312 56.68358 
L 508.715631 57.663604 
L 510.197951 57.113535 
L 511.68027 59.208803 
L 513.162589 59.34128 
L 514.644909 61.489375 
L 516.127228 63.104208 
L 517.609548 65.550383 
L 519.091867 67.355039 
L 520.574187 65.313101 
L 522.056506 65.970141 
L 523.538825 67.887433 
L 525.021145 66.711906 
L 526.503464 70.143824 
L 527.985784 69.660161 
L 529.468103 69.680096 
L 530.950423 67.872906 
L 532.432742 66.528481 
L 533.915062 65.367928 
L 536.8797 63.932097 
L 538.36202 65.600382 
L 539.844339 65.003751 
L 541.326659 64.192608 
L 542.808978 66.733647 
L 544.291298 64.955341 
L 545.773617 61.711846 
L 547.255936 60.89853 
L 548.738256 60.733295 
L 550.220575 62.323806 
L 551.702895 62.645615 
L 553.185214 65.406654 
L 556.149853 64.75302 
L 557.632172 64.589657 
L 559.114492 65.731047 
L 560.596811 65.111606 
L 562.079131 64.967881 
L 563.56145 62.949801 
L 565.04377 65.603667 
L 566.526089 66.119976 
L 568.008409 64.399081 
L 569.490728 63.230658 
L 570.973047 64.133021 
L 572.455367 63.68125 
L 573.937686 64.914312 
L 575.420006 63.565089 
L 576.902325 60.592373 
L 578.384645 61.462768 
L 579.866964 62.173042 
L 581.349283 63.536417 
L 585.796242 62.045404 
L 587.278561 60.907564 
L 588.760881 60.187707 
L 590.2432 57.103977 
L 591.725519 55.795073 
L 593.207839 57.641849 
L 594.690158 57.856383 
L 596.172478 60.322038 
L 597.654797 59.93094 
L 599.137117 59.095093 
L 600.619436 59.323704 
L 602.101756 58.319476 
L 605.066394 59.046617 
L 606.548714 57.184082 
L 608.031033 58.017208 
L 609.513353 58.262855 
L 610.995672 62.266964 
L 612.477992 62.722417 
L 613.960311 60.274659 
L 615.44263 58.396634 
L 616.92495 59.438771 
L 618.407269 60.177917 
L 619.889589 60.321475 
L 621.371908 59.695985 
L 622.854228 58.827442 
L 624.336547 59.496935 
L 625.818866 59.58518 
L 627.301186 59.383617 
L 628.783505 59.047333 
L 630.265825 59.065266 
L 631.748144 57.748567 
L 633.230464 57.561971 
L 634.712783 58.231095 
L 636.195103 57.172695 
L 637.677422 55.640659 
L 639.159741 57.461595 
L 640.642061 59.553938 
L 642.12438 62.222064 
L 643.6067 60.404912 
L 645.089019 60.344339 
L 646.571339 60.805023 
L 648.053658 60.971998 
L 649.535977 62.488559 
L 651.018297 63.505193 
L 652.500616 63.825939 
L 655.465255 68.580291 
L 656.947575 66.114841 
L 658.429894 64.437699 
L 659.912213 63.633551 
L 661.394533 62.14679 
L 662.876852 62.868008 
L 664.359172 64.131291 
L 665.841491 62.557581 
L 667.323811 66.481502 
L 668.80613 68.51383 
L 670.28845 68.851549 
L 671.770769 68.66373 
L 673.253088 69.917231 
L 674.735408 68.872607 
L 676.217727 67.015168 
L 676.217727 67.015168 
" clip-path="url(#p69a686e242)" style="fill: none; stroke: #d62728; stroke-width: 1.5; stroke-linecap: square"/>
   </g>
   <g id="line2d_35">
    <path d="M 84.772273 259.762564 
L 86.254592 252.267341 
L 87.736912 241.841316 
L 89.219231 236.022755 
L 90.70155 230.655511 
L 92.18387 223.374946 
L 93.666189 212.507482 
L 96.630828 187.152048 
L 98.113148 178.837049 
L 99.595467 167.302318 
L 101.077787 157.891236 
L 102.560106 147.723927 
L 105.524745 131.696037 
L 108.489384 118.684775 
L 109.971703 112.72424 
L 111.454023 105.481262 
L 112.936342 101.011834 
L 114.418661 96.938201 
L 115.900981 94.501593 
L 117.3833 92.515859 
L 118.86562 87.609888 
L 120.347939 83.71009 
L 121.830259 80.77168 
L 123.312578 77.22214 
L 124.794897 73.16591 
L 126.277217 71.676595 
L 127.759536 73.010849 
L 129.241856 70.789949 
L 130.724175 69.172451 
L 132.206495 68.339061 
L 133.688814 69.128402 
L 135.171134 68.757917 
L 136.653453 68.0799 
L 138.135772 70.672128 
L 139.618092 72.329316 
L 141.100411 73.297888 
L 142.582731 69.795491 
L 144.06505 67.556076 
L 145.54737 64.320505 
L 147.029689 68.111674 
L 148.512008 63.540806 
L 149.994328 62.416096 
L 151.476647 63.504356 
L 152.958967 62.75977 
L 154.441286 62.166119 
L 155.923606 61.968781 
L 157.405925 64.174603 
L 158.888244 62.987804 
L 160.370564 63.145191 
L 161.852883 61.395273 
L 163.335203 63.07835 
L 164.817522 61.15603 
L 166.299842 58.039116 
L 167.782161 57.273195 
L 169.264481 55.793518 
L 170.7468 57.736537 
L 172.229119 60.55237 
L 173.711439 64.060505 
L 175.193758 63.673656 
L 176.676078 64.067874 
L 179.640717 61.165842 
L 181.123036 63.017433 
L 182.605355 61.616159 
L 184.087675 61.947771 
L 185.569994 62.075586 
L 187.052314 58.631711 
L 188.534633 61.597241 
L 190.016953 61.006156 
L 191.499272 60.245102 
L 192.981591 57.487443 
L 194.463911 56.03946 
L 195.94623 57.481196 
L 197.42855 55.22837 
L 198.910869 56.284864 
L 200.393189 55.751278 
L 201.875508 58.469985 
L 203.357828 58.267651 
L 204.840147 59.385974 
L 206.322466 61.450969 
L 207.804786 59.348418 
L 209.287105 59.380993 
L 210.769425 57.640701 
L 212.251744 57.29038 
L 213.734064 59.273786 
L 215.216383 60.264834 
L 216.698702 61.747103 
L 218.181022 61.924903 
L 219.663341 62.443073 
L 221.145661 63.940531 
L 222.62798 62.93523 
L 224.1103 64.276975 
L 225.592619 62.567544 
L 227.074938 65.79866 
L 228.557258 65.391914 
L 230.039577 67.64888 
L 231.521897 67.478386 
L 233.004216 67.68036 
L 234.486536 66.772084 
L 235.968855 65.712258 
L 237.451175 67.698329 
L 240.415813 64.325082 
L 241.898133 65.141976 
L 243.380452 63.351519 
L 244.862772 62.492405 
L 246.345091 63.782532 
L 247.827411 62.416199 
L 249.30973 63.006298 
L 250.792049 62.980239 
L 252.274369 63.919764 
L 253.756688 60.199642 
L 255.239008 61.901474 
L 256.721327 60.984567 
L 258.203647 59.8438 
L 259.685966 60.706698 
L 261.168285 59.855334 
L 262.650605 59.754261 
L 264.132924 61.866345 
L 265.615244 63.166224 
L 267.097563 62.775827 
L 268.579883 63.67666 
L 270.062202 61.513374 
L 271.544522 61.30335 
L 273.026841 59.613793 
L 274.50916 60.871066 
L 275.99148 61.841904 
L 277.473799 63.744293 
L 278.956119 65.932262 
L 280.438438 64.966737 
L 281.920758 65.994949 
L 283.403077 66.791956 
L 284.885396 65.298578 
L 286.367716 62.988886 
L 287.850035 64.806831 
L 289.332355 63.569209 
L 290.814674 64.023037 
L 292.296994 63.265363 
L 293.779313 63.82819 
L 295.261632 65.796353 
L 296.743952 66.140404 
L 298.226271 64.368449 
L 299.708591 64.339195 
L 301.19091 64.863781 
L 302.67323 64.318695 
L 304.155549 65.405454 
L 305.637869 66.048968 
L 307.120188 64.293214 
L 308.602507 63.848497 
L 310.084827 63.716327 
L 311.567146 64.229481 
L 313.049466 63.871455 
L 314.531785 63.744578 
L 316.014105 64.536788 
L 317.496424 63.899857 
L 318.978743 62.185264 
L 320.461063 63.331587 
L 321.943382 66.247799 
L 323.425702 67.193903 
L 326.390341 66.737141 
L 327.87266 66.178363 
L 329.354979 67.017882 
L 330.837299 66.524916 
L 332.319618 67.03137 
L 333.801938 65.890625 
L 335.284257 66.102807 
L 336.766577 65.910816 
L 339.731216 62.55699 
L 341.213535 63.253217 
L 342.695854 61.34538 
L 344.178174 62.898513 
L 345.660493 62.07349 
L 347.142813 64.475143 
L 348.625132 64.444412 
L 350.107452 62.270656 
L 351.589771 62.185975 
L 353.07209 62.972806 
L 354.55441 66.811944 
L 356.036729 67.938708 
L 357.519049 67.738388 
L 359.001368 68.477369 
L 360.483688 70.275049 
L 361.966007 69.94002 
L 363.448326 69.012719 
L 364.930646 69.13619 
L 366.412965 67.215554 
L 367.895285 69.019411 
L 369.377604 69.047649 
L 370.859924 67.548684 
L 372.342243 68.249498 
L 373.824563 67.097124 
L 375.306882 67.121402 
L 378.271521 68.015147 
L 379.75384 67.326391 
L 381.23616 65.430364 
L 382.718479 67.659395 
L 384.200799 66.176833 
L 385.683118 66.607451 
L 387.165437 66.745807 
L 388.647757 68.450494 
L 390.130076 68.379276 
L 391.612396 64.358708 
L 393.094715 61.574525 
L 394.577035 61.963549 
L 396.059354 61.297018 
L 397.541674 58.975791 
L 399.023993 59.577331 
L 400.506312 63.356466 
L 401.988632 62.647459 
L 403.470951 60.138175 
L 404.953271 62.289102 
L 406.43559 60.13233 
L 407.91791 61.96393 
L 409.400229 64.835835 
L 410.882548 63.01535 
L 412.364868 62.738681 
L 413.847187 62.596497 
L 415.329507 62.583476 
L 416.811826 63.190752 
L 418.294146 60.007569 
L 419.776465 63.856995 
L 421.258784 62.609317 
L 422.741104 63.273408 
L 424.223423 64.821053 
L 425.705743 64.832539 
L 427.188062 63.643398 
L 428.670382 63.923955 
L 430.152701 62.51672 
L 431.635021 61.558687 
L 433.11734 63.892892 
L 434.599659 61.04696 
L 436.081979 61.476086 
L 437.564298 63.761538 
L 439.046618 66.523421 
L 440.528937 66.062705 
L 442.011257 64.027195 
L 443.493576 64.746505 
L 444.975895 62.247654 
L 446.458215 61.653773 
L 447.940534 63.104089 
L 449.422854 63.880707 
L 450.905173 65.166263 
L 452.387493 62.194803 
L 453.869812 61.391734 
L 455.352131 62.761153 
L 456.834451 62.493298 
L 458.31677 62.48278 
L 459.79909 59.873254 
L 461.281409 56.474203 
L 462.763729 56.40758 
L 464.246048 56.162214 
L 465.728368 56.935461 
L 467.210687 59.142713 
L 468.693006 59.127375 
L 470.175326 59.653809 
L 471.657645 60.029026 
L 473.139965 58.609202 
L 474.622284 59.266458 
L 476.104604 61.314552 
L 477.586923 62.772531 
L 479.069242 63.801041 
L 480.551562 63.742359 
L 482.033881 63.066689 
L 483.516201 61.48086 
L 486.48084 62.693972 
L 487.963159 60.2028 
L 489.445478 58.584509 
L 490.927798 58.719856 
L 492.410117 59.751521 
L 493.892437 57.499596 
L 495.374756 57.766533 
L 496.857076 57.012446 
L 498.339395 57.939142 
L 499.821715 56.481703 
L 501.304034 54.828276 
L 502.786353 54.940718 
L 504.268673 56.487156 
L 505.750992 56.742072 
L 507.233312 56.073941 
L 508.715631 57.069094 
L 510.197951 55.265448 
L 511.68027 53.850657 
L 514.644909 57.677654 
L 516.127228 59.08007 
L 517.609548 61.138977 
L 519.091867 61.94728 
L 520.574187 63.074983 
L 522.056506 63.660867 
L 523.538825 63.827925 
L 525.021145 63.291743 
L 526.503464 61.484879 
L 527.985784 62.032454 
L 529.468103 64.511565 
L 532.432742 67.317996 
L 533.915062 66.405638 
L 535.397381 66.766733 
L 536.8797 66.703327 
L 538.36202 67.705874 
L 539.844339 67.466541 
L 542.808978 65.911705 
L 544.291298 66.201358 
L 545.773617 65.163542 
L 547.255936 62.882111 
L 548.738256 62.52978 
L 550.220575 60.196559 
L 551.702895 59.812022 
L 553.185214 60.08334 
L 554.667534 60.682537 
L 556.149853 57.488939 
L 557.632172 57.383147 
L 559.114492 58.683155 
L 560.596811 61.694632 
L 562.079131 62.935123 
L 563.56145 63.313514 
L 565.04377 62.322235 
L 566.526089 60.702638 
L 568.008409 62.122413 
L 569.490728 62.523766 
L 570.973047 63.543929 
L 572.455367 64.820898 
L 573.937686 64.378963 
L 575.420006 64.484103 
L 576.902325 60.985635 
L 578.384645 60.335749 
L 579.866964 59.219874 
L 581.349283 60.756855 
L 582.831603 61.374086 
L 584.313922 63.755876 
L 585.796242 63.235156 
L 587.278561 60.463678 
L 590.2432 61.210271 
L 591.725519 61.065624 
L 593.207839 62.074905 
L 594.690158 62.338553 
L 596.172478 61.403768 
L 597.654797 61.270063 
L 599.137117 61.796475 
L 600.619436 61.033859 
L 602.101756 60.002484 
L 603.584075 61.046771 
L 605.066394 62.622281 
L 606.548714 62.027824 
L 608.031033 64.851642 
L 609.513353 65.861187 
L 610.995672 63.743917 
L 612.477992 63.629847 
L 613.960311 64.21818 
L 615.44263 65.319836 
L 616.92495 65.235127 
L 618.407269 66.837047 
L 619.889589 68.838476 
L 621.371908 68.562625 
L 622.854228 66.959872 
L 624.336547 66.954155 
L 625.818866 68.269612 
L 627.301186 67.863636 
L 628.783505 67.955273 
L 630.265825 68.293502 
L 631.748144 66.098143 
L 633.230464 61.99927 
L 634.712783 60.72372 
L 636.195103 59.833922 
L 637.677422 61.918413 
L 639.159741 62.592723 
L 640.642061 61.373537 
L 642.12438 63.107821 
L 643.6067 61.333066 
L 645.089019 60.805578 
L 646.571339 61.627552 
L 648.053658 61.849477 
L 649.535977 61.410726 
L 651.018297 59.638871 
L 652.500616 60.032974 
L 653.982936 60.980883 
L 655.465255 62.117153 
L 656.947575 61.602037 
L 661.394533 63.001164 
L 662.876852 63.881324 
L 664.359172 65.346856 
L 665.841491 64.136478 
L 667.323811 62.313874 
L 668.80613 62.151289 
L 670.28845 63.712435 
L 671.770769 63.193006 
L 673.253088 65.301682 
L 674.735408 65.042586 
L 676.217727 63.498606 
L 676.217727 63.498606 
" clip-path="url(#p69a686e242)" style="fill: none; stroke: #9467bd; stroke-width: 1.5; stroke-linecap: square"/>
   </g>
   <g id="patch_3">
    <path d="M 55.2 383.885 
L 55.2 24.325 
" style="fill: none; stroke: #000000; stroke-width: 0.8; stroke-linejoin: miter; stroke-linecap: square"/>
   </g>
   <g id="patch_4">
    <path d="M 705.79 383.885 
L 705.79 24.325 
" style="fill: none; stroke: #000000; stroke-width: 0.8; stroke-linejoin: miter; stroke-linecap: square"/>
   </g>
   <g id="patch_5">
    <path d="M 55.2 383.885 
L 705.79 383.885 
" style="fill: none; stroke: #000000; stroke-width: 0.8; stroke-linejoin: miter; stroke-linecap: square"/>
   </g>
   <g id="patch_6">
    <path d="M 55.2 24.325 
L 705.79 24.325 
" style="fill: none; stroke: #000000; stroke-width: 0.8; stroke-linejoin: miter; stroke-linecap: square"/>
   </g>
   <g id="text_18">
    <!-- Reward Comparison -->
    <g transform="translate(312.495 18.325) scale(0.16 -0.16)">
     <defs>
      <path id="SimHei-43" d="M 2975 1825 
Q 2950 875 2575 475 
Q 2200 75 1675 75 
Q 1075 75 650 562 
Q 225 1050 225 2125 
Q 225 3300 637 3875 
Q 1050 4450 1700 4450 
Q 2250 4450 2612 4037 
Q 2975 3625 2950 2875 
L 2400 2875 
Q 2400 3425 2225 3700 
Q 2050 3975 1700 3975 
Q 1300 3975 1062 3562 
Q 825 3150 825 2175 
Q 825 1275 1062 912 
Q 1300 550 1675 550 
Q 1950 550 2175 812 
Q 2400 1075 2400 1825 
L 2975 1825 
z
" transform="scale(0.015625)"/>
      <path id="SimHei-6d" d="M 3050 125 
L 2550 125 
L 2550 2150 
Q 2550 2300 2500 2400 
Q 2450 2500 2300 2500 
Q 2125 2500 1975 2312 
Q 1825 2125 1825 1825 
L 1825 125 
L 1325 125 
L 1325 2150 
Q 1325 2300 1275 2400 
Q 1225 2500 1075 2500 
Q 900 2500 750 2312 
Q 600 2125 600 1825 
L 600 125 
L 100 125 
L 100 2925 
L 600 2925 
L 600 2550 
Q 725 2750 900 2862 
Q 1075 2975 1275 2975 
Q 1475 2975 1612 2862 
Q 1750 2750 1800 2550 
Q 1925 2750 2087 2862 
Q 2250 2975 2450 2975 
Q 2750 2975 2900 2812 
Q 3050 2650 3050 2350 
L 3050 125 
z
" transform="scale(0.015625)"/>
      <path id="SimHei-6e" d="M 2800 125 
L 2300 125 
L 2300 1925 
Q 2300 2225 2150 2400 
Q 2000 2575 1750 2575 
Q 1425 2575 1137 2237 
Q 850 1900 850 1400 
L 850 125 
L 350 125 
L 350 2925 
L 850 2925 
L 850 2400 
Q 1050 2675 1287 2825 
Q 1525 2975 1900 2975 
Q 2350 2975 2575 2725 
Q 2800 2475 2800 2100 
L 2800 125 
z
" transform="scale(0.015625)"/>
     </defs>
     <use xlink:href="#SimHei-52"/>
     <use xlink:href="#SimHei-65" transform="translate(50 0)"/>
     <use xlink:href="#SimHei-77" transform="translate(100 0)"/>
     <use xlink:href="#SimHei-61" transform="translate(150 0)"/>
     <use xlink:href="#SimHei-72" transform="translate(200 0)"/>
     <use xlink:href="#SimHei-64" transform="translate(250 0)"/>
     <use xlink:href="#SimHei-20" transform="translate(300 0)"/>
     <use xlink:href="#SimHei-43" transform="translate(350 0)"/>
     <use xlink:href="#SimHei-6f" transform="translate(400 0)"/>
     <use xlink:href="#SimHei-6d" transform="translate(450 0)"/>
     <use xlink:href="#SimHei-70" transform="translate(500 0)"/>
     <use xlink:href="#SimHei-61" transform="translate(550 0)"/>
     <use xlink:href="#SimHei-72" transform="translate(600 0)"/>
     <use xlink:href="#SimHei-69" transform="translate(650 0)"/>
     <use xlink:href="#SimHei-73" transform="translate(700 0)"/>
     <use xlink:href="#SimHei-6f" transform="translate(750 0)"/>
     <use xlink:href="#SimHei-6e" transform="translate(800 0)"/>
    </g>
   </g>
   <g id="legend_1">
    <g id="patch_7">
     <path d="M 610.99 377.885 
L 697.39 377.885 
Q 699.79 377.885 699.79 375.485 
L 699.79 297.185 
Q 699.79 294.785 697.39 294.785 
L 610.99 294.785 
Q 608.59 294.785 608.59 297.185 
L 608.59 375.485 
Q 608.59 377.885 610.99 377.885 
z
" style="fill: #ffffff; opacity: 0.8; stroke: #cccccc; stroke-linejoin: miter"/>
    </g>
    <g id="line2d_36">
     <path d="M 613.39 303.785 
L 625.39 303.785 
L 637.39 303.785 
" style="fill: none; stroke: #1f77b4; stroke-width: 1.5; stroke-linecap: square"/>
    </g>
    <g id="text_19">
     <!-- DDPG -->
     <g transform="translate(646.99 307.985) scale(0.12 -0.12)">
      <defs>
       <path id="SimHei-44" d="M 2925 2250 
Q 2925 1100 2437 612 
Q 1950 125 1125 125 
L 275 125 
L 275 4400 
L 1125 4400 
Q 2050 4400 2487 3900 
Q 2925 3400 2925 2250 
z
M 2325 2250 
Q 2325 3175 2025 3550 
Q 1725 3925 1125 3925 
L 850 3925 
L 850 600 
L 1125 600 
Q 1725 600 2025 962 
Q 2325 1325 2325 2250 
z
" transform="scale(0.015625)"/>
       <path id="SimHei-50" d="M 2950 3100 
Q 2950 2500 2600 2150 
Q 2250 1800 1625 1800 
L 900 1800 
L 900 125 
L 325 125 
L 325 4400 
L 1625 4400 
Q 2250 4400 2600 4050 
Q 2950 3700 2950 3100 
z
M 2375 3100 
Q 2375 3575 2150 3750 
Q 1925 3925 1475 3925 
L 900 3925 
L 900 2275 
L 1475 2275 
Q 1925 2275 2150 2450 
Q 2375 2625 2375 3100 
z
" transform="scale(0.015625)"/>
       <path id="SimHei-47" d="M 2850 75 
L 2425 75 
L 2350 425 
Q 2250 275 2037 175 
Q 1825 75 1575 75 
Q 1050 75 637 562 
Q 225 1050 225 2125 
Q 225 3300 600 3875 
Q 975 4450 1625 4450 
Q 2200 4450 2525 4025 
Q 2850 3600 2850 2925 
L 2300 2925 
Q 2300 3450 2125 3712 
Q 1950 3975 1625 3975 
Q 1225 3975 1025 3562 
Q 825 3150 825 2175 
Q 825 1250 1075 900 
Q 1325 550 1650 550 
Q 1975 550 2162 787 
Q 2350 1025 2350 1525 
L 2350 1800 
L 1575 1800 
L 1575 2275 
L 2850 2275 
L 2850 75 
z
" transform="scale(0.015625)"/>
      </defs>
      <use xlink:href="#SimHei-44"/>
      <use xlink:href="#SimHei-44" transform="translate(50 0)"/>
      <use xlink:href="#SimHei-50" transform="translate(100 0)"/>
      <use xlink:href="#SimHei-47" transform="translate(150 0)"/>
     </g>
    </g>
    <g id="line2d_37">
     <path d="M 613.39 319.685 
L 625.39 319.685 
L 637.39 319.685 
" style="fill: none; stroke: #ff7f0e; stroke-width: 1.5; stroke-linecap: square"/>
    </g>
    <g id="text_20">
     <!-- PPO -->
     <g transform="translate(646.99 323.885) scale(0.12 -0.12)">
      <defs>
       <path id="SimHei-4f" d="M 2950 2275 
Q 2950 1100 2587 587 
Q 2225 75 1575 75 
Q 925 75 550 587 
Q 175 1100 175 2275 
Q 175 3450 550 3950 
Q 925 4450 1575 4450 
Q 2225 4450 2587 3950 
Q 2950 3450 2950 2275 
z
M 2350 2275 
Q 2350 3325 2125 3650 
Q 1900 3975 1575 3975 
Q 1250 3975 1012 3650 
Q 775 3325 775 2275 
Q 775 1225 1012 887 
Q 1250 550 1575 550 
Q 1900 550 2125 887 
Q 2350 1225 2350 2275 
z
" transform="scale(0.015625)"/>
      </defs>
      <use xlink:href="#SimHei-50"/>
      <use xlink:href="#SimHei-50" transform="translate(50 0)"/>
      <use xlink:href="#SimHei-4f" transform="translate(100 0)"/>
     </g>
    </g>
    <g id="line2d_38">
     <path d="M 613.39 335.585 
L 625.39 335.585 
L 637.39 335.585 
" style="fill: none; stroke: #2ca02c; stroke-width: 1.5; stroke-linecap: square"/>
    </g>
    <g id="text_21">
     <!-- TD3 -->
     <g transform="translate(646.99 339.785) scale(0.12 -0.12)">
      <use xlink:href="#SimHei-54"/>
      <use xlink:href="#SimHei-44" transform="translate(50 0)"/>
      <use xlink:href="#SimHei-33" transform="translate(100 0)"/>
     </g>
    </g>
    <g id="line2d_39">
     <path d="M 613.39 351.485 
L 625.39 351.485 
L 637.39 351.485 
" style="fill: none; stroke: #d62728; stroke-width: 1.5; stroke-linecap: square"/>
    </g>
    <g id="text_22">
     <!-- GCN-DDQN -->
     <g transform="translate(646.99 355.685) scale(0.12 -0.12)">
      <defs>
       <path id="SimHei-4e" d="M 2850 125 
L 2225 125 
L 850 3225 
L 825 3225 
L 825 125 
L 250 125 
L 250 4400 
L 875 4400 
L 2250 1300 
L 2275 1300 
L 2275 4400 
L 2850 4400 
L 2850 125 
z
" transform="scale(0.015625)"/>
       <path id="SimHei-2d" d="M 2975 2125 
L 125 2125 
L 125 2525 
L 2975 2525 
L 2975 2125 
z
" transform="scale(0.015625)"/>
       <path id="SimHei-51" d="M 2950 2275 
Q 2950 1675 2862 1262 
Q 2775 850 2575 600 
L 2775 225 
L 2375 -200 
L 2150 225 
Q 2050 150 1900 112 
Q 1750 75 1575 75 
Q 925 75 550 587 
Q 175 1100 175 2275 
Q 175 3450 550 3950 
Q 925 4450 1575 4450 
Q 2225 4450 2587 3950 
Q 2950 3450 2950 2275 
z
M 2350 2275 
Q 2350 3325 2125 3650 
Q 1900 3975 1575 3975 
Q 1250 3975 1012 3650 
Q 775 3325 775 2275 
Q 775 1225 1012 887 
Q 1250 550 1575 550 
Q 1700 550 1800 587 
Q 1900 625 1950 675 
L 1550 1450 
L 1900 1875 
L 2250 1200 
Q 2300 1450 2325 1650 
Q 2350 1850 2350 2275 
z
" transform="scale(0.015625)"/>
      </defs>
      <use xlink:href="#SimHei-47"/>
      <use xlink:href="#SimHei-43" transform="translate(50 0)"/>
      <use xlink:href="#SimHei-4e" transform="translate(100 0)"/>
      <use xlink:href="#SimHei-2d" transform="translate(150 0)"/>
      <use xlink:href="#SimHei-44" transform="translate(200 0)"/>
      <use xlink:href="#SimHei-44" transform="translate(250 0)"/>
      <use xlink:href="#SimHei-51" transform="translate(300 0)"/>
      <use xlink:href="#SimHei-4e" transform="translate(350 0)"/>
     </g>
    </g>
    <g id="line2d_40">
     <path d="M 613.39 367.385 
L 625.39 367.385 
L 637.39 367.385 
" style="fill: none; stroke: #9467bd; stroke-width: 1.5; stroke-linecap: square"/>
    </g>
    <g id="text_23">
     <!-- GLDVTO -->
     <g transform="translate(646.99 371.585) scale(0.12 -0.12)">
      <defs>
       <path id="SimHei-4c" d="M 2900 125 
L 300 125 
L 300 4400 
L 875 4400 
L 875 600 
L 2900 600 
L 2900 125 
z
" transform="scale(0.015625)"/>
       <path id="SimHei-56" d="M 3050 4400 
L 1800 75 
L 1300 75 
L 50 4400 
L 650 4400 
L 1525 1125 
L 1575 1125 
L 2450 4400 
L 3050 4400 
z
" transform="scale(0.015625)"/>
      </defs>
      <use xlink:href="#SimHei-47"/>
      <use xlink:href="#SimHei-4c" transform="translate(50 0)"/>
      <use xlink:href="#SimHei-44" transform="translate(100 0)"/>
      <use xlink:href="#SimHei-56" transform="translate(150 0)"/>
      <use xlink:href="#SimHei-54" transform="translate(200 0)"/>
      <use xlink:href="#SimHei-4f" transform="translate(250 0)"/>
     </g>
    </g>
   </g>
  </g>
 </g>
 <defs>
  <clipPath id="p69a686e242">
   <rect x="55.2" y="24.325" width="650.59" height="359.56"/>
  </clipPath>
 </defs>
</svg>
