<?xml version="1.0" encoding="utf-8" standalone="no"?>
<!DOCTYPE svg PUBLIC "-//W3C//DTD SVG 1.1//EN"
  "http://www.w3.org/Graphics/SVG/1.1/DTD/svg11.dtd">
<svg xmlns:xlink="http://www.w3.org/1999/xlink" width="602.4pt" height="397.915pt" viewBox="0 0 602.4 397.915" xmlns="http://www.w3.org/2000/svg" version="1.1">
 <metadata>
  <rdf:RDF xmlns:dc="http://purl.org/dc/elements/1.1/" xmlns:cc="http://creativecommons.org/ns#" xmlns:rdf="http://www.w3.org/1999/02/22-rdf-syntax-ns#">
   <cc:Work>
    <dc:type rdf:resource="http://purl.org/dc/dcmitype/StillImage"/>
    <dc:date>2026-06-25T20:34:08.114587</dc:date>
    <dc:format>image/svg+xml</dc:format>
    <dc:creator>
     <cc:Agent>
      <dc:title>Matplotlib v3.10.7, https://matplotlib.org/</dc:title>
     </cc:Agent>
    </dc:creator>
   </cc:Work>
  </rdf:RDF>
 </metadata>
 <defs>
  <style type="text/css">*{stroke-linejoin: round; stroke-linecap: butt}</style>
 </defs>
 <g id="figure_1">
  <g id="patch_1">
   <path d="M 0 397.915 
L 602.4 397.915 
L 602.4 -0 
L 0 -0 
z
" style="fill: #ffffff"/>
  </g>
  <g id="axes_1">
   <g id="patch_2">
    <path d="M 37.2 356.965 
L 595.2 356.965 
L 595.2 24.325 
L 37.2 24.325 
z
" style="fill: #ffffff"/>
   </g>
   <g id="matplotlib.axis_1">
    <g id="xtick_1">
     <g id="line2d_1">
      <path d="M 62.563636 356.965 
L 62.563636 24.325 
" clip-path="url(#p3b639710e4)" style="fill: none; stroke: #b0b0b0; stroke-opacity: 0.3; stroke-width: 0.8; stroke-linecap: square"/>
     </g>
     <g id="line2d_2">
      <defs>
       <path id="m6805f52413" d="M 0 0 
L 0 3.5 
" style="stroke: #000000; stroke-width: 0.8"/>
      </defs>
      <g>
       <use xlink:href="#m6805f52413" x="62.563636" y="356.965" style="stroke: #000000; stroke-width: 0.8"/>
      </g>
     </g>
     <g id="text_1">
      <!-- 0 -->
      <g transform="translate(59.563636 372.215) scale(0.12 -0.12)">
       <defs>
        <path id="SimHei-30" d="M 225 2537 
Q 250 3200 412 3587 
Q 575 3975 875 4225 
Q 1175 4475 1612 4475 
Q 2050 4475 2375 4112 
Q 2700 3750 2800 3200 
Q 2900 2650 2862 1937 
Q 2825 1225 2612 775 
Q 2400 325 1975 150 
Q 1550 -25 1125 187 
Q 700 400 525 750 
Q 350 1100 275 1487 
Q 200 1875 225 2537 
z
M 750 2687 
Q 675 2000 800 1462 
Q 925 925 1212 700 
Q 1500 475 1800 612 
Q 2100 750 2237 1162 
Q 2375 1575 2375 2062 
Q 2375 2550 2337 2950 
Q 2300 3350 2112 3675 
Q 1925 4000 1612 4012 
Q 1300 4025 1062 3700 
Q 825 3375 750 2687 
z
" transform="scale(0.015625)"/>
       </defs>
       <use xlink:href="#SimHei-30"/>
      </g>
     </g>
    </g>
    <g id="xtick_2">
     <g id="line2d_3">
      <path d="M 126.131647 356.965 
L 126.131647 24.325 
" clip-path="url(#p3b639710e4)" style="fill: none; stroke: #b0b0b0; stroke-opacity: 0.3; stroke-width: 0.8; stroke-linecap: square"/>
     </g>
     <g id="line2d_4">
      <g>
       <use xlink:href="#m6805f52413" x="126.131647" y="356.965" style="stroke: #000000; stroke-width: 0.8"/>
      </g>
     </g>
     <g id="text_2">
      <!-- 50 -->
      <g transform="translate(120.131647 372.215) scale(0.12 -0.12)">
       <defs>
        <path id="SimHei-35" d="M 550 1325 
Q 725 650 1150 575 
Q 1575 500 1837 662 
Q 2100 825 2212 1087 
Q 2325 1350 2312 1675 
Q 2300 2000 2137 2225 
Q 1975 2450 1725 2525 
Q 1475 2600 1162 2525 
Q 850 2450 650 2175 
L 225 2225 
Q 275 2375 700 4375 
L 2675 4375 
L 2675 3925 
L 1075 3925 
Q 950 3250 825 2850 
Q 1200 3025 1525 3012 
Q 1850 3000 2150 2862 
Q 2450 2725 2587 2487 
Q 2725 2250 2787 2012 
Q 2850 1775 2837 1500 
Q 2825 1225 2725 937 
Q 2625 650 2425 462 
Q 2225 275 1937 162 
Q 1650 50 1275 75 
Q 900 100 562 350 
Q 225 600 100 1200 
L 550 1325 
z
" transform="scale(0.015625)"/>
       </defs>
       <use xlink:href="#SimHei-35"/>
       <use xlink:href="#SimHei-30" transform="translate(50 0)"/>
      </g>
     </g>
    </g>
    <g id="xtick_3">
     <g id="line2d_5">
      <path d="M 189.699658 356.965 
L 189.699658 24.325 
" clip-path="url(#p3b639710e4)" style="fill: none; stroke: #b0b0b0; stroke-opacity: 0.3; stroke-width: 0.8; stroke-linecap: square"/>
     </g>
     <g id="line2d_6">
      <g>
       <use xlink:href="#m6805f52413" x="189.699658" y="356.965" style="stroke: #000000; stroke-width: 0.8"/>
      </g>
     </g>
     <g id="text_3">
      <!-- 100 -->
      <g transform="translate(180.699658 372.215) scale(0.12 -0.12)">
       <defs>
        <path id="SimHei-31" d="M 1400 3600 
Q 1075 3275 575 2975 
L 575 3450 
Q 1200 3875 1600 4450 
L 1900 4450 
L 1900 150 
L 1400 150 
L 1400 3600 
z
" transform="scale(0.015625)"/>
       </defs>
       <use xlink:href="#SimHei-31"/>
       <use xlink:href="#SimHei-30" transform="translate(50 0)"/>
       <use xlink:href="#SimHei-30" transform="translate(100 0)"/>
      </g>
     </g>
    </g>
    <g id="xtick_4">
     <g id="line2d_7">
      <path d="M 253.267669 356.965 
L 253.267669 24.325 
" clip-path="url(#p3b639710e4)" style="fill: none; stroke: #b0b0b0; stroke-opacity: 0.3; stroke-width: 0.8; stroke-linecap: square"/>
     </g>
     <g id="line2d_8">
      <g>
       <use xlink:href="#m6805f52413" x="253.267669" y="356.965" style="stroke: #000000; stroke-width: 0.8"/>
      </g>
     </g>
     <g id="text_4">
      <!-- 150 -->
      <g transform="translate(244.267669 372.215) scale(0.12 -0.12)">
       <use xlink:href="#SimHei-31"/>
       <use xlink:href="#SimHei-35" transform="translate(50 0)"/>
       <use xlink:href="#SimHei-30" transform="translate(100 0)"/>
      </g>
     </g>
    </g>
    <g id="xtick_5">
     <g id="line2d_9">
      <path d="M 316.83568 356.965 
L 316.83568 24.325 
" clip-path="url(#p3b639710e4)" style="fill: none; stroke: #b0b0b0; stroke-opacity: 0.3; stroke-width: 0.8; stroke-linecap: square"/>
     </g>
     <g id="line2d_10">
      <g>
       <use xlink:href="#m6805f52413" x="316.83568" y="356.965" style="stroke: #000000; stroke-width: 0.8"/>
      </g>
     </g>
     <g id="text_5">
      <!-- 200 -->
      <g transform="translate(307.83568 372.215) scale(0.12 -0.12)">
       <defs>
        <path id="SimHei-32" d="M 300 250 
Q 325 625 650 925 
Q 975 1225 1475 1862 
Q 1975 2500 2125 2850 
Q 2275 3200 2237 3450 
Q 2200 3700 2000 3862 
Q 1800 4025 1537 4000 
Q 1275 3975 1037 3800 
Q 800 3625 675 3275 
L 200 3350 
Q 400 3925 712 4187 
Q 1025 4450 1450 4475 
Q 1700 4500 1900 4462 
Q 2100 4425 2312 4287 
Q 2525 4150 2662 3875 
Q 2800 3600 2762 3212 
Q 2725 2825 2375 2287 
Q 2025 1750 1025 600 
L 2825 600 
L 2825 150 
L 300 150 
L 300 250 
z
" transform="scale(0.015625)"/>
       </defs>
       <use xlink:href="#SimHei-32"/>
       <use xlink:href="#SimHei-30" transform="translate(50 0)"/>
       <use xlink:href="#SimHei-30" transform="translate(100 0)"/>
      </g>
     </g>
    </g>
    <g id="xtick_6">
     <g id="line2d_11">
      <path d="M 380.403691 356.965 
L 380.403691 24.325 
" clip-path="url(#p3b639710e4)" style="fill: none; stroke: #b0b0b0; stroke-opacity: 0.3; stroke-width: 0.8; stroke-linecap: square"/>
     </g>
     <g id="line2d_12">
      <g>
       <use xlink:href="#m6805f52413" x="380.403691" y="356.965" style="stroke: #000000; stroke-width: 0.8"/>
      </g>
     </g>
     <g id="text_6">
      <!-- 250 -->
      <g transform="translate(371.403691 372.215) scale(0.12 -0.12)">
       <use xlink:href="#SimHei-32"/>
       <use xlink:href="#SimHei-35" transform="translate(50 0)"/>
       <use xlink:href="#SimHei-30" transform="translate(100 0)"/>
      </g>
     </g>
    </g>
    <g id="xtick_7">
     <g id="line2d_13">
      <path d="M 443.971702 356.965 
L 443.971702 24.325 
" clip-path="url(#p3b639710e4)" style="fill: none; stroke: #b0b0b0; stroke-opacity: 0.3; stroke-width: 0.8; stroke-linecap: square"/>
     </g>
     <g id="line2d_14">
      <g>
       <use xlink:href="#m6805f52413" x="443.971702" y="356.965" style="stroke: #000000; stroke-width: 0.8"/>
      </g>
     </g>
     <g id="text_7">
      <!-- 300 -->
      <g transform="translate(434.971702 372.215) scale(0.12 -0.12)">
       <defs>
        <path id="SimHei-33" d="M 250 1225 
L 700 1300 
Q 800 975 1025 762 
Q 1250 550 1587 562 
Q 1925 575 2125 837 
Q 2325 1100 2300 1437 
Q 2275 1775 2037 1962 
Q 1800 2150 1275 2225 
L 1275 2550 
Q 1800 2600 2037 2825 
Q 2275 3050 2250 3412 
Q 2225 3775 1925 3937 
Q 1625 4100 1287 3975 
Q 950 3850 750 3275 
L 300 3350 
Q 450 3800 712 4100 
Q 975 4400 1425 4450 
Q 1875 4500 2212 4337 
Q 2550 4175 2687 3837 
Q 2825 3500 2725 3100 
Q 2625 2700 2150 2400 
Q 2500 2250 2687 1950 
Q 2875 1650 2812 1162 
Q 2750 675 2375 375 
Q 2000 75 1525 87 
Q 1050 100 700 387 
Q 350 675 250 1225 
z
" transform="scale(0.015625)"/>
       </defs>
       <use xlink:href="#SimHei-33"/>
       <use xlink:href="#SimHei-30" transform="translate(50 0)"/>
       <use xlink:href="#SimHei-30" transform="translate(100 0)"/>
      </g>
     </g>
    </g>
    <g id="xtick_8">
     <g id="line2d_15">
      <path d="M 507.539713 356.965 
L 507.539713 24.325 
" clip-path="url(#p3b639710e4)" style="fill: none; stroke: #b0b0b0; stroke-opacity: 0.3; stroke-width: 0.8; stroke-linecap: square"/>
     </g>
     <g id="line2d_16">
      <g>
       <use xlink:href="#m6805f52413" x="507.539713" y="356.965" style="stroke: #000000; stroke-width: 0.8"/>
      </g>
     </g>
     <g id="text_8">
      <!-- 350 -->
      <g transform="translate(498.539713 372.215) scale(0.12 -0.12)">
       <use xlink:href="#SimHei-33"/>
       <use xlink:href="#SimHei-35" transform="translate(50 0)"/>
       <use xlink:href="#SimHei-30" transform="translate(100 0)"/>
      </g>
     </g>
    </g>
    <g id="xtick_9">
     <g id="line2d_17">
      <path d="M 571.107724 356.965 
L 571.107724 24.325 
" clip-path="url(#p3b639710e4)" style="fill: none; stroke: #b0b0b0; stroke-opacity: 0.3; stroke-width: 0.8; stroke-linecap: square"/>
     </g>
     <g id="line2d_18">
      <g>
       <use xlink:href="#m6805f52413" x="571.107724" y="356.965" style="stroke: #000000; stroke-width: 0.8"/>
      </g>
     </g>
     <g id="text_9">
      <!-- 400 -->
      <g transform="translate(562.107724 372.215) scale(0.12 -0.12)">
       <defs>
        <path id="SimHei-34" d="M 2000 1100 
L 75 1100 
L 75 1525 
L 2100 4450 
L 2475 4450 
L 2475 1525 
L 3075 1525 
L 3075 1100 
L 2475 1100 
L 2475 150 
L 2000 150 
L 2000 1100 
z
M 2000 1525 
L 2000 3500 
L 600 1525 
L 2000 1525 
z
" transform="scale(0.015625)"/>
       </defs>
       <use xlink:href="#SimHei-34"/>
       <use xlink:href="#SimHei-30" transform="translate(50 0)"/>
       <use xlink:href="#SimHei-30" transform="translate(100 0)"/>
      </g>
     </g>
    </g>
    <g id="text_10">
     <!-- Episode -->
     <g transform="translate(288.2 388.715) scale(0.16 -0.16)">
      <defs>
       <path id="SimHei-45" d="M 2900 125 
L 350 125 
L 350 4400 
L 2775 4400 
L 2775 3925 
L 925 3925 
L 925 2600 
L 2625 2600 
L 2625 2125 
L 925 2125 
L 925 600 
L 2900 600 
L 2900 125 
z
" transform="scale(0.015625)"/>
       <path id="SimHei-70" d="M 2825 1525 
Q 2825 800 2475 425 
Q 2125 50 1625 50 
Q 1350 50 1150 162 
Q 950 275 800 500 
L 800 -800 
L 300 -800 
L 300 2925 
L 800 2925 
L 800 2550 
Q 950 2775 1150 2875 
Q 1350 2975 1625 2975 
Q 2125 2975 2475 2612 
Q 2825 2250 2825 1525 
z
M 2275 1525 
Q 2275 2000 2087 2262 
Q 1900 2525 1525 2525 
Q 1225 2525 1012 2262 
Q 800 2000 800 1525 
Q 800 1050 1012 775 
Q 1225 500 1525 500 
Q 1900 500 2087 775 
Q 2275 1050 2275 1525 
z
" transform="scale(0.015625)"/>
       <path id="SimHei-69" d="M 1800 3725 
L 1300 3725 
L 1300 4375 
L 1800 4375 
L 1800 3725 
z
M 1800 125 
L 1300 125 
L 1300 2925 
L 1800 2925 
L 1800 125 
z
" transform="scale(0.015625)"/>
       <path id="SimHei-73" d="M 2750 900 
Q 2750 500 2437 287 
Q 2125 75 1650 75 
Q 1050 75 725 312 
Q 400 550 400 1000 
L 900 1000 
Q 900 700 1112 600 
Q 1325 500 1625 500 
Q 1925 500 2075 612 
Q 2225 725 2225 900 
Q 2225 1025 2100 1150 
Q 1975 1275 1475 1350 
Q 900 1425 687 1637 
Q 475 1850 475 2200 
Q 475 2500 762 2737 
Q 1050 2975 1600 2975 
Q 2100 2975 2387 2750 
Q 2675 2525 2675 2150 
L 2175 2150 
Q 2175 2375 2012 2462 
Q 1850 2550 1600 2550 
Q 1275 2550 1137 2437 
Q 1000 2325 1000 2175 
Q 1000 2000 1125 1900 
Q 1250 1800 1650 1750 
Q 2300 1650 2525 1437 
Q 2750 1225 2750 900 
z
" transform="scale(0.015625)"/>
       <path id="SimHei-6f" d="M 2925 1525 
Q 2925 875 2525 475 
Q 2125 75 1575 75 
Q 1025 75 625 475 
Q 225 875 225 1525 
Q 225 2175 625 2575 
Q 1025 2975 1575 2975 
Q 2125 2975 2525 2575 
Q 2925 2175 2925 1525 
z
M 2375 1525 
Q 2375 2025 2125 2275 
Q 1875 2525 1575 2525 
Q 1275 2525 1025 2275 
Q 775 2025 775 1525 
Q 775 1025 1025 775 
Q 1275 525 1575 525 
Q 1875 525 2125 775 
Q 2375 1025 2375 1525 
z
" transform="scale(0.015625)"/>
       <path id="SimHei-64" d="M 2750 125 
L 2250 125 
L 2250 500 
Q 2100 275 1900 175 
Q 1700 75 1425 75 
Q 925 75 575 437 
Q 225 800 225 1525 
Q 225 2250 575 2625 
Q 925 3000 1425 3000 
Q 1700 3000 1900 2887 
Q 2100 2775 2250 2550 
L 2250 4400 
L 2750 4400 
L 2750 125 
z
M 2250 1525 
Q 2250 2000 2037 2275 
Q 1825 2550 1525 2550 
Q 1150 2550 962 2275 
Q 775 2000 775 1525 
Q 775 1050 962 787 
Q 1150 525 1525 525 
Q 1825 525 2037 787 
Q 2250 1050 2250 1525 
z
" transform="scale(0.015625)"/>
       <path id="SimHei-65" d="M 2850 1075 
Q 2800 625 2450 350 
Q 2100 75 1625 75 
Q 1025 75 637 462 
Q 250 850 250 1525 
Q 250 2200 637 2587 
Q 1025 2975 1625 2975 
Q 2150 2975 2487 2637 
Q 2825 2300 2825 1525 
L 800 1525 
Q 800 975 1037 750 
Q 1275 525 1625 525 
Q 1900 525 2075 662 
Q 2250 800 2300 1075 
L 2850 1075 
z
M 2250 1925 
Q 2200 2275 2025 2412 
Q 1850 2550 1575 2550 
Q 1325 2550 1125 2412 
Q 925 2275 825 1925 
L 2250 1925 
z
" transform="scale(0.015625)"/>
      </defs>
      <use xlink:href="#SimHei-45"/>
      <use xlink:href="#SimHei-70" transform="translate(50 0)"/>
      <use xlink:href="#SimHei-69" transform="translate(100 0)"/>
      <use xlink:href="#SimHei-73" transform="translate(150 0)"/>
      <use xlink:href="#SimHei-6f" transform="translate(200 0)"/>
      <use xlink:href="#SimHei-64" transform="translate(250 0)"/>
      <use xlink:href="#SimHei-65" transform="translate(300 0)"/>
     </g>
    </g>
   </g>
   <g id="matplotlib.axis_2">
    <g id="ytick_1">
     <g id="line2d_19">
      <path d="M 37.2 351.223263 
L 595.2 351.223263 
" clip-path="url(#p3b639710e4)" style="fill: none; stroke: #b0b0b0; stroke-opacity: 0.3; stroke-width: 0.8; stroke-linecap: square"/>
     </g>
     <g id="line2d_20">
      <defs>
       <path id="m01918761da" d="M 0 0 
L -3.5 0 
" style="stroke: #000000; stroke-width: 0.8"/>
      </defs>
      <g>
       <use xlink:href="#m01918761da" x="37.2" y="351.223263" style="stroke: #000000; stroke-width: 0.8"/>
      </g>
     </g>
     <g id="text_11">
      <!-- 0 -->
      <g transform="translate(24.2 355.348263) scale(0.12 -0.12)">
       <use xlink:href="#SimHei-30"/>
      </g>
     </g>
    </g>
    <g id="ytick_2">
     <g id="line2d_21">
      <path d="M 37.2 291.961512 
L 595.2 291.961512 
" clip-path="url(#p3b639710e4)" style="fill: none; stroke: #b0b0b0; stroke-opacity: 0.3; stroke-width: 0.8; stroke-linecap: square"/>
     </g>
     <g id="line2d_22">
      <g>
       <use xlink:href="#m01918761da" x="37.2" y="291.961512" style="stroke: #000000; stroke-width: 0.8"/>
      </g>
     </g>
     <g id="text_12">
      <!-- 1 -->
      <g transform="translate(24.2 296.086512) scale(0.12 -0.12)">
       <use xlink:href="#SimHei-31"/>
      </g>
     </g>
    </g>
    <g id="ytick_3">
     <g id="line2d_23">
      <path d="M 37.2 232.699761 
L 595.2 232.699761 
" clip-path="url(#p3b639710e4)" style="fill: none; stroke: #b0b0b0; stroke-opacity: 0.3; stroke-width: 0.8; stroke-linecap: square"/>
     </g>
     <g id="line2d_24">
      <g>
       <use xlink:href="#m01918761da" x="37.2" y="232.699761" style="stroke: #000000; stroke-width: 0.8"/>
      </g>
     </g>
     <g id="text_13">
      <!-- 2 -->
      <g transform="translate(24.2 236.824761) scale(0.12 -0.12)">
       <use xlink:href="#SimHei-32"/>
      </g>
     </g>
    </g>
    <g id="ytick_4">
     <g id="line2d_25">
      <path d="M 37.2 173.43801 
L 595.2 173.43801 
" clip-path="url(#p3b639710e4)" style="fill: none; stroke: #b0b0b0; stroke-opacity: 0.3; stroke-width: 0.8; stroke-linecap: square"/>
     </g>
     <g id="line2d_26">
      <g>
       <use xlink:href="#m01918761da" x="37.2" y="173.43801" style="stroke: #000000; stroke-width: 0.8"/>
      </g>
     </g>
     <g id="text_14">
      <!-- 3 -->
      <g transform="translate(24.2 177.56301) scale(0.12 -0.12)">
       <use xlink:href="#SimHei-33"/>
      </g>
     </g>
    </g>
    <g id="ytick_5">
     <g id="line2d_27">
      <path d="M 37.2 114.176259 
L 595.2 114.176259 
" clip-path="url(#p3b639710e4)" style="fill: none; stroke: #b0b0b0; stroke-opacity: 0.3; stroke-width: 0.8; stroke-linecap: square"/>
     </g>
     <g id="line2d_28">
      <g>
       <use xlink:href="#m01918761da" x="37.2" y="114.176259" style="stroke: #000000; stroke-width: 0.8"/>
      </g>
     </g>
     <g id="text_15">
      <!-- 4 -->
      <g transform="translate(24.2 118.301259) scale(0.12 -0.12)">
       <use xlink:href="#SimHei-34"/>
      </g>
     </g>
    </g>
    <g id="ytick_6">
     <g id="line2d_29">
      <path d="M 37.2 54.914508 
L 595.2 54.914508 
" clip-path="url(#p3b639710e4)" style="fill: none; stroke: #b0b0b0; stroke-opacity: 0.3; stroke-width: 0.8; stroke-linecap: square"/>
     </g>
     <g id="line2d_30">
      <g>
       <use xlink:href="#m01918761da" x="37.2" y="54.914508" style="stroke: #000000; stroke-width: 0.8"/>
      </g>
     </g>
     <g id="text_16">
      <!-- 5 -->
      <g transform="translate(24.2 59.039508) scale(0.12 -0.12)">
       <use xlink:href="#SimHei-35"/>
      </g>
     </g>
    </g>
    <g id="text_17">
     <!-- Energy -->
     <g transform="translate(18.2 214.645) rotate(-90) scale(0.16 -0.16)">
      <defs>
       <path id="SimHei-6e" d="M 2800 125 
L 2300 125 
L 2300 1925 
Q 2300 2225 2150 2400 
Q 2000 2575 1750 2575 
Q 1425 2575 1137 2237 
Q 850 1900 850 1400 
L 850 125 
L 350 125 
L 350 2925 
L 850 2925 
L 850 2400 
Q 1050 2675 1287 2825 
Q 1525 2975 1900 2975 
Q 2350 2975 2575 2725 
Q 2800 2475 2800 2100 
L 2800 125 
z
" transform="scale(0.015625)"/>
       <path id="SimHei-72" d="M 2500 2425 
Q 2025 2500 1700 2287 
Q 1375 2075 1150 1550 
L 1150 125 
L 650 125 
L 650 2925 
L 1150 2925 
L 1150 2200 
Q 1375 2600 1712 2787 
Q 2050 2975 2500 2975 
L 2500 2425 
z
" transform="scale(0.015625)"/>
       <path id="SimHei-67" d="M 2975 2500 
Q 2800 2550 2637 2562 
Q 2475 2575 2300 2525 
Q 2375 2450 2425 2337 
Q 2475 2225 2475 2000 
Q 2475 1575 2187 1300 
Q 1900 1025 1475 1025 
Q 1375 1025 1212 1062 
Q 1050 1100 950 1150 
Q 875 1100 850 1050 
Q 825 1000 825 925 
Q 825 800 1000 737 
Q 1175 675 1625 675 
Q 2350 675 2612 475 
Q 2875 275 2875 -25 
Q 2875 -425 2487 -612 
Q 2100 -800 1575 -800 
Q 900 -800 575 -625 
Q 250 -450 250 -150 
Q 250 0 375 150 
Q 500 300 700 400 
Q 550 475 462 587 
Q 375 700 375 875 
Q 375 1025 487 1137 
Q 600 1250 750 1325 
Q 625 1450 550 1625 
Q 475 1800 475 2000 
Q 475 2425 762 2700 
Q 1050 2975 1475 2975 
Q 1700 2975 1862 2912 
Q 2025 2850 2150 2725 
Q 2350 2875 2550 2937 
Q 2750 3000 2975 2975 
L 2975 2500 
z
M 1975 2000 
Q 1975 2250 1850 2400 
Q 1725 2550 1475 2550 
Q 1225 2550 1100 2400 
Q 975 2250 975 2000 
Q 975 1750 1100 1600 
Q 1225 1450 1475 1450 
Q 1725 1450 1850 1600 
Q 1975 1750 1975 2000 
z
M 2400 -75 
Q 2400 25 2287 125 
Q 2175 225 1725 225 
Q 1625 225 1450 237 
Q 1275 250 1050 275 
Q 850 200 775 100 
Q 700 0 700 -100 
Q 700 -250 900 -350 
Q 1100 -450 1600 -450 
Q 2025 -450 2212 -337 
Q 2400 -225 2400 -75 
z
" transform="scale(0.015625)"/>
       <path id="SimHei-79" d="M 2900 2925 
L 1750 -100 
Q 1650 -450 1450 -625 
Q 1250 -800 950 -800 
Q 825 -800 712 -787 
Q 600 -775 500 -725 
L 500 -225 
Q 600 -275 700 -300 
Q 800 -325 875 -325 
Q 1075 -325 1150 -262 
Q 1225 -200 1300 25 
L 200 2925 
L 750 2925 
L 1550 725 
L 1575 725 
L 2350 2925 
L 2900 2925 
z
" transform="scale(0.015625)"/>
      </defs>
      <use xlink:href="#SimHei-45"/>
      <use xlink:href="#SimHei-6e" transform="translate(50 0)"/>
      <use xlink:href="#SimHei-65" transform="translate(100 0)"/>
      <use xlink:href="#SimHei-72" transform="translate(150 0)"/>
      <use xlink:href="#SimHei-67" transform="translate(200 0)"/>
      <use xlink:href="#SimHei-79" transform="translate(250 0)"/>
     </g>
    </g>
   </g>
   <g id="line2d_31">
    <path d="M 62.563636 300.810398 
L 63.834997 298.283079 
L 65.106357 300.440798 
L 66.377717 300.96098 
L 70.191798 306.591535 
L 72.734518 303.056018 
L 74.005878 304.971527 
L 75.277239 305.242832 
L 76.548599 300.778927 
L 77.819959 302.652271 
L 79.091319 302.262974 
L 80.362679 304.063134 
L 81.63404 304.806144 
L 82.9054 306.60808 
L 84.17676 306.299806 
L 85.44812 308.048379 
L 86.719481 307.325782 
L 87.990841 306.257114 
L 89.262201 303.831857 
L 90.533561 305.721296 
L 93.076282 308.709874 
L 95.619002 311.923659 
L 98.161722 314.838191 
L 100.704443 317.429972 
L 103.247163 319.777009 
L 107.061244 322.86736 
L 109.603964 324.676628 
L 113.418045 327.091892 
L 117.232126 329.17941 
L 122.317567 331.534725 
L 128.674368 333.85073 
L 133.759809 335.33187 
L 138.845249 336.512343 
L 147.744771 338.058031 
L 157.915653 339.236835 
L 160.458373 339.450456 
L 161.729733 339.052097 
L 163.001094 336.403749 
L 165.543814 336.928871 
L 168.086535 337.278198 
L 173.171975 338.082113 
L 174.443336 336.133813 
L 175.714696 336.412647 
L 176.986056 336.492491 
L 179.528776 336.97971 
L 180.800137 329.00081 
L 184.614217 330.846564 
L 185.885578 326.236679 
L 188.428298 327.746587 
L 189.699658 324.628746 
L 190.971018 325.482605 
L 192.242379 324.656177 
L 193.513739 323.411195 
L 194.785099 324.132762 
L 196.056459 321.841766 
L 197.32782 322.713311 
L 198.59918 318.996402 
L 199.87054 315.747901 
L 201.1419 316.738491 
L 202.41326 313.12549 
L 203.684621 314.561399 
L 204.955981 311.51855 
L 206.227341 310.456887 
L 207.498701 312.045714 
L 208.770062 311.366605 
L 210.041422 312.884728 
L 211.312782 311.700073 
L 212.584142 313.00064 
L 213.855502 314.025814 
L 215.126863 310.128023 
L 216.398223 311.463091 
L 217.669583 308.641639 
L 218.940943 302.997274 
L 220.212303 304.749054 
L 221.483664 293.511313 
L 222.755024 295.912431 
L 224.026384 290.476296 
L 225.297744 287.466687 
L 226.569105 287.9378 
L 229.111825 293.00958 
L 230.383185 285.955747 
L 231.654545 285.92611 
L 232.925906 285.656607 
L 234.197266 288.210981 
L 235.468626 290.370361 
L 236.739986 289.043786 
L 238.011347 291.245109 
L 239.282707 293.705751 
L 241.825427 271.724154 
L 243.096787 275.138053 
L 244.368148 274.607684 
L 245.639508 276.386232 
L 246.910868 274.493966 
L 248.182228 275.278211 
L 249.453589 273.039395 
L 250.724949 265.877252 
L 251.996309 269.44083 
L 253.267669 264.032062 
L 255.81039 271.025775 
L 257.08175 271.918388 
L 258.35311 270.258341 
L 259.62447 273.496084 
L 260.89583 267.04852 
L 262.167191 270.170307 
L 263.438551 261.669238 
L 264.709911 262.571401 
L 265.981271 262.525743 
L 267.252632 260.518033 
L 268.523992 252.842814 
L 269.795352 254.604327 
L 271.066712 253.94177 
L 272.338072 258.293974 
L 273.609433 260.674266 
L 274.880793 246.782841 
L 276.152153 247.183045 
L 277.423513 250.20852 
L 279.966234 251.676339 
L 281.237594 256.058426 
L 282.508954 250.442 
L 283.780314 250.403391 
L 285.051675 246.829502 
L 286.323035 248.708183 
L 287.594395 252.596029 
L 288.865755 251.315167 
L 290.137116 253.80143 
L 291.408476 254.144683 
L 292.679836 250.641059 
L 293.951196 250.06186 
L 295.222556 254.26314 
L 296.493917 248.597639 
L 297.765277 249.245844 
L 299.036637 252.9984 
L 300.307997 247.606753 
L 301.579357 248.649727 
L 302.850718 242.172747 
L 304.122078 238.789379 
L 305.393438 238.176115 
L 306.664798 240.805659 
L 309.207519 243.783335 
L 310.478879 242.040691 
L 311.750239 241.02571 
L 313.021599 241.332038 
L 314.29296 241.910552 
L 315.56432 242.345637 
L 316.83568 244.325702 
L 318.10704 248.991402 
L 319.378401 250.439914 
L 320.649761 252.644597 
L 321.921121 245.387892 
L 325.735202 249.413143 
L 327.006562 251.968011 
L 328.277922 253.599675 
L 329.549282 246.108409 
L 330.820643 239.814102 
L 332.092003 228.391476 
L 333.363363 223.665563 
L 334.634723 216.868445 
L 335.906083 222.882618 
L 337.177444 220.993997 
L 338.448804 222.518321 
L 339.720164 226.254211 
L 340.991524 231.699978 
L 342.262884 234.994695 
L 343.534245 237.632847 
L 344.805605 237.545849 
L 346.076965 242.425998 
L 347.348325 241.170162 
L 348.619686 242.647234 
L 349.891046 247.345388 
L 351.162406 248.940582 
L 352.433766 249.181521 
L 353.705126 247.694563 
L 354.976487 249.959342 
L 356.247847 254.568109 
L 357.519207 252.563425 
L 358.790567 256.560786 
L 360.061928 254.601677 
L 361.333288 252.089206 
L 362.604648 255.850022 
L 363.876008 260.044371 
L 365.147368 262.605643 
L 366.418729 263.971379 
L 367.690089 267.786763 
L 368.961449 265.477116 
L 370.232809 261.080287 
L 371.50417 260.849903 
L 372.77553 261.363006 
L 374.04689 256.831073 
L 375.31825 261.091007 
L 376.58961 260.742497 
L 377.860971 263.877027 
L 379.132331 265.126276 
L 380.403691 263.814852 
L 381.675051 267.5206 
L 382.946411 263.742405 
L 384.217772 267.642799 
L 385.489132 267.760653 
L 386.760492 271.492161 
L 388.031852 272.730886 
L 389.303213 272.766157 
L 390.574573 266.501787 
L 391.845933 262.65327 
L 393.117293 265.813195 
L 394.388653 261.579105 
L 395.660014 265.537895 
L 396.931374 264.611942 
L 398.202734 263.37992 
L 399.474094 261.192389 
L 402.016815 268.399921 
L 403.288175 267.264682 
L 404.559535 263.131776 
L 405.830895 262.632829 
L 407.102256 266.545731 
L 408.373616 269.978289 
L 409.644976 265.17275 
L 410.916336 262.033056 
L 412.187697 261.050983 
L 413.459057 261.031605 
L 416.001777 265.559656 
L 417.273137 255.847025 
L 418.544498 258.810525 
L 419.815858 260.751856 
L 421.087218 261.197493 
L 422.358578 259.923763 
L 423.629938 264.015635 
L 424.901299 262.823432 
L 426.172659 261.11382 
L 427.444019 265.003846 
L 428.715379 254.796798 
L 429.98674 240.886663 
L 431.2581 243.10393 
L 432.52946 248.017436 
L 433.80082 244.954983 
L 435.07218 248.577623 
L 436.343541 251.389791 
L 437.614901 249.710682 
L 438.886261 246.130152 
L 440.157621 250.679879 
L 441.428982 251.723242 
L 442.700342 254.062117 
L 443.971702 255.317 
L 445.243062 251.405641 
L 446.514422 242.258472 
L 447.785783 243.699947 
L 449.057143 246.75553 
L 450.328503 247.946494 
L 451.599863 252.369352 
L 452.871224 248.752997 
L 454.142584 250.46876 
L 455.413944 254.446456 
L 456.685304 254.901529 
L 459.228025 262.935023 
L 460.499385 264.148089 
L 461.770745 263.951729 
L 463.042105 265.77258 
L 464.313465 269.411702 
L 465.584826 269.046171 
L 466.856186 270.916243 
L 468.127546 273.361912 
L 469.398906 268.796176 
L 470.670267 264.866389 
L 471.941627 268.687053 
L 473.212987 268.802391 
L 474.484347 262.771458 
L 475.755707 266.74299 
L 478.298428 273.490836 
L 479.569788 275.129697 
L 480.841148 275.362287 
L 482.112509 278.708695 
L 483.383869 280.459404 
L 484.655229 283.384045 
L 485.926589 283.847176 
L 487.197949 284.837795 
L 488.46931 281.56545 
L 489.74067 280.1891 
L 491.01203 276.522121 
L 492.28339 274.124131 
L 493.554751 273.930852 
L 494.826111 275.452857 
L 496.097471 273.81183 
L 497.368831 275.192056 
L 498.640191 277.189047 
L 499.911552 280.461109 
L 502.454272 283.174201 
L 503.725632 281.482335 
L 504.996992 282.758617 
L 506.268353 285.679904 
L 507.539713 283.607118 
L 508.811073 285.035498 
L 511.353794 277.629756 
L 512.625154 280.791138 
L 513.896514 281.364425 
L 515.167874 284.216828 
L 516.439234 280.82683 
L 517.710595 283.847671 
L 518.981955 283.340082 
L 520.253315 275.821017 
L 521.524675 262.66967 
L 524.067396 270.223045 
L 525.338756 272.730784 
L 526.610116 273.907644 
L 527.881476 273.432049 
L 529.152837 272.191273 
L 530.424197 274.113682 
L 531.695557 275.056705 
L 532.966917 272.81024 
L 535.509638 273.844063 
L 536.780998 275.203603 
L 538.052358 270.772454 
L 539.323718 271.245166 
L 540.595079 272.769741 
L 541.866439 270.786296 
L 543.137799 272.676963 
L 544.409159 271.46719 
L 545.680519 273.475192 
L 546.95188 275.165972 
L 548.22324 268.809847 
L 549.4946 272.15764 
L 550.76596 266.932594 
L 552.037321 256.809117 
L 553.308681 255.55273 
L 554.580041 258.178183 
L 555.851401 260.261701 
L 557.122761 259.177102 
L 558.394122 263.292679 
L 559.665482 266.906547 
L 560.936842 268.99049 
L 562.208202 262.784153 
L 563.479563 254.328453 
L 564.750923 258.488214 
L 566.022283 257.042355 
L 567.293643 259.426939 
L 568.565003 263.260059 
L 568.565003 263.260059 
" clip-path="url(#p3b639710e4)" style="fill: none; stroke: #1f77b4; stroke-width: 1.2; stroke-linecap: square"/>
   </g>
   <g id="line2d_32">
    <path d="M 62.563636 39.445 
L 65.106357 52.354357 
L 66.377717 64.407405 
L 67.649077 71.057096 
L 68.920437 82.206354 
L 70.191798 92.310781 
L 71.463158 93.734564 
L 72.734518 103.554851 
L 74.005878 114.984211 
L 75.277239 124.500266 
L 76.548599 132.062685 
L 77.819959 133.611351 
L 79.091319 130.100592 
L 80.362679 135.050204 
L 81.63404 137.240294 
L 82.9054 144.46785 
L 84.17676 150.824724 
L 85.44812 159.864036 
L 86.719481 161.090659 
L 87.990841 157.12324 
L 89.262201 159.727524 
L 90.533561 161.709541 
L 91.804921 170.116375 
L 93.076282 175.761371 
L 95.619002 191.188705 
L 96.890362 193.183886 
L 98.161722 190.238992 
L 99.433083 187.972819 
L 100.704443 181.605636 
L 101.975803 183.511005 
L 103.247163 191.264579 
L 104.518524 196.939103 
L 105.789884 197.644837 
L 107.061244 201.980708 
L 108.332604 195.92257 
L 109.603964 198.261549 
L 110.875325 198.131012 
L 112.146685 201.087429 
L 113.418045 207.580381 
L 114.689405 208.095134 
L 115.960766 214.737113 
L 117.232126 220.646874 
L 118.503486 223.798055 
L 119.774846 223.179341 
L 121.046206 226.296114 
L 122.317567 226.292544 
L 123.588927 227.616012 
L 124.860287 223.939079 
L 126.131647 225.791554 
L 127.403008 228.910678 
L 128.674368 221.646135 
L 129.945728 225.815612 
L 131.217088 229.498346 
L 132.488448 230.317976 
L 133.759809 228.948378 
L 135.031169 231.442912 
L 136.302529 230.380482 
L 137.573889 234.021713 
L 138.845249 236.642942 
L 140.11661 235.876128 
L 141.38797 233.78144 
L 142.65933 235.650426 
L 143.93069 228.159897 
L 145.202051 230.742732 
L 146.473411 229.574893 
L 147.744771 235.093341 
L 149.016131 237.721549 
L 150.287491 239.388735 
L 151.558852 241.869408 
L 152.830212 242.830952 
L 154.101572 247.715896 
L 155.372932 250.832121 
L 157.915653 256.148293 
L 159.187013 257.88879 
L 160.458373 258.870915 
L 161.729733 262.820865 
L 163.001094 263.355902 
L 164.272454 264.506614 
L 165.543814 266.627191 
L 166.815174 268.249947 
L 169.357895 275.197057 
L 170.629255 274.443882 
L 171.900615 271.495407 
L 173.171975 274.990345 
L 174.443336 275.716258 
L 175.714696 272.201155 
L 176.986056 273.08612 
L 178.257416 262.378827 
L 179.528776 258.645612 
L 180.800137 258.719433 
L 182.071497 261.400367 
L 183.342857 265.312335 
L 184.614217 264.345404 
L 185.885578 262.91958 
L 187.156938 262.403692 
L 188.428298 266.308769 
L 189.699658 267.725698 
L 190.971018 269.956383 
L 192.242379 269.691068 
L 193.513739 271.33388 
L 194.785099 274.565738 
L 196.056459 276.693915 
L 197.32782 272.23421 
L 198.59918 273.00701 
L 199.87054 276.101466 
L 201.1419 277.151143 
L 202.41326 278.474831 
L 203.684621 271.761601 
L 204.955981 275.166648 
L 206.227341 270.288627 
L 207.498701 272.400155 
L 208.770062 269.655959 
L 210.041422 270.456338 
L 211.312782 272.062324 
L 212.584142 269.416416 
L 215.126863 275.876154 
L 216.398223 276.240134 
L 217.669583 270.210315 
L 218.940943 273.508939 
L 220.212303 275.9513 
L 221.483664 276.381954 
L 222.755024 273.53689 
L 224.026384 276.748813 
L 225.297744 279.547804 
L 226.569105 282.626658 
L 227.840465 283.209885 
L 229.111825 284.149193 
L 230.383185 286.867419 
L 231.654545 289.257789 
L 232.925906 290.93827 
L 234.197266 290.910752 
L 236.739986 295.764577 
L 238.011347 295.433012 
L 239.282707 295.626775 
L 240.554067 297.427813 
L 241.825427 297.41535 
L 244.368148 301.614352 
L 245.639508 302.111673 
L 246.910868 304.06978 
L 248.182228 301.990329 
L 249.453589 303.95688 
L 250.724949 303.85295 
L 251.996309 304.208592 
L 253.267669 306.068886 
L 254.539029 303.968908 
L 255.81039 303.861696 
L 257.08175 302.898133 
L 259.62447 306.492059 
L 260.89583 306.753899 
L 262.167191 308.4171 
L 268.523992 315.555581 
L 271.066712 318.079873 
L 272.338072 319.022387 
L 273.609433 318.714159 
L 274.880793 319.826776 
L 278.694874 322.633755 
L 279.966234 320.772271 
L 281.237594 320.108396 
L 282.508954 321.076046 
L 283.780314 320.48375 
L 285.051675 321.376058 
L 286.323035 321.214332 
L 288.865755 323.179981 
L 291.408476 324.964755 
L 292.679836 323.137563 
L 293.951196 324.081445 
L 296.493917 325.575598 
L 297.765277 326.418256 
L 302.850718 328.926441 
L 304.122078 327.996082 
L 305.393438 328.685807 
L 306.664798 329.140157 
L 307.936159 327.143899 
L 309.207519 327.91687 
L 310.478879 321.611731 
L 311.750239 316.550697 
L 314.29296 318.951665 
L 315.56432 317.674677 
L 316.83568 315.267753 
L 318.10704 314.246851 
L 319.378401 315.626888 
L 320.649761 313.282111 
L 321.921121 314.680334 
L 323.192481 313.914261 
L 324.463841 315.324686 
L 325.735202 315.457212 
L 327.006562 316.276922 
L 330.820643 319.844558 
L 333.363363 320.156603 
L 335.906083 322.156443 
L 337.177444 320.478401 
L 340.991524 323.488032 
L 344.805605 326.055474 
L 346.076965 324.657688 
L 347.348325 324.154535 
L 348.619686 324.984217 
L 349.891046 322.500615 
L 353.705126 325.166202 
L 354.976487 323.825829 
L 357.519207 325.481768 
L 358.790567 324.689493 
L 360.061928 324.260825 
L 362.604648 325.995773 
L 366.418729 328.177191 
L 367.690089 328.737646 
L 368.961449 328.059466 
L 371.50417 329.238402 
L 375.31825 330.994377 
L 381.675051 333.378912 
L 384.217772 334.069292 
L 386.760492 334.826901 
L 389.303213 335.266608 
L 391.845933 335.777262 
L 393.117293 333.823004 
L 396.931374 334.975832 
L 398.202734 333.758566 
L 402.016815 334.837397 
L 403.288175 333.335914 
L 405.830895 334.134171 
L 408.373616 334.810974 
L 409.644976 335.140557 
L 410.916336 334.050728 
L 414.730417 335.013239 
L 416.001777 335.31536 
L 417.273137 334.059432 
L 418.544498 330.755516 
L 421.087218 331.831919 
L 424.901299 333.300954 
L 429.98674 334.786331 
L 431.2581 334.931316 
L 433.80082 335.520794 
L 435.07218 331.512247 
L 437.614901 332.372981 
L 438.886261 332.69313 
L 440.157621 333.14853 
L 441.428982 332.021952 
L 445.243062 333.393849 
L 446.514422 332.619563 
L 449.057143 333.49485 
L 452.871224 334.608928 
L 456.685304 335.659148 
L 459.228025 336.239378 
L 465.584826 337.484913 
L 468.127546 337.879123 
L 469.398906 337.839401 
L 471.941627 338.121908 
L 478.298428 338.904147 
L 491.01203 339.89162 
L 492.28339 339.761288 
L 503.725632 340.354344 
L 508.811073 340.555552 
L 512.625154 340.73051 
L 513.896514 340.659366 
L 518.981955 340.848591 
L 526.610116 341.062795 
L 530.424197 341.17776 
L 536.780998 341.225231 
L 545.680519 341.35001 
L 546.95188 340.956669 
L 548.22324 341.003176 
L 549.4946 337.572013 
L 555.851401 338.476292 
L 560.936842 339.07978 
L 566.022283 339.536211 
L 567.293643 337.853227 
L 568.565003 338.052965 
L 568.565003 338.052965 
" clip-path="url(#p3b639710e4)" style="fill: none; stroke: #ff7f0e; stroke-width: 1.2; stroke-linecap: square"/>
   </g>
   <g id="line2d_33">
    <path d="M 62.563636 286.262469 
L 63.834997 283.861327 
L 65.106357 282.079622 
L 66.377717 273.406272 
L 67.649077 272.928804 
L 68.920437 276.10499 
L 70.191798 275.414779 
L 71.463158 270.614784 
L 72.734518 260.371226 
L 74.005878 262.445963 
L 75.277239 265.171888 
L 76.548599 259.229885 
L 77.819959 258.264735 
L 80.362679 263.27573 
L 81.63404 263.421232 
L 82.9054 265.245395 
L 84.17676 265.639473 
L 85.44812 256.950079 
L 86.719481 249.882336 
L 87.990841 251.48088 
L 89.262201 250.953365 
L 90.533561 249.819038 
L 91.804921 254.300106 
L 93.076282 250.671247 
L 94.347642 238.16925 
L 95.619002 233.808634 
L 96.890362 236.904971 
L 98.161722 237.804751 
L 99.433083 233.744466 
L 100.704443 227.635523 
L 101.975803 230.424493 
L 103.247163 228.56167 
L 104.518524 228.319732 
L 105.789884 228.307391 
L 107.061244 228.911966 
L 108.332604 218.375664 
L 109.603964 204.761401 
L 110.875325 204.339433 
L 112.146685 207.207062 
L 113.418045 194.552832 
L 114.689405 200.154337 
L 115.960766 198.872133 
L 117.232126 204.970685 
L 118.503486 209.481776 
L 119.774846 210.289164 
L 121.046206 213.436168 
L 122.317567 210.906685 
L 123.588927 196.474007 
L 124.860287 198.445709 
L 126.131647 198.636156 
L 127.403008 202.361031 
L 128.674368 206.565329 
L 129.945728 209.512238 
L 131.217088 215.980439 
L 132.488448 219.468385 
L 133.759809 222.551219 
L 135.031169 227.405577 
L 136.302529 223.274305 
L 137.573889 228.932157 
L 140.11661 237.157266 
L 141.38797 238.398887 
L 142.65933 240.350175 
L 143.93069 245.405802 
L 145.202051 245.81386 
L 146.473411 242.68153 
L 147.744771 245.81827 
L 150.287491 255.198262 
L 151.558852 251.075248 
L 152.830212 251.251669 
L 154.101572 247.652716 
L 155.372932 250.559931 
L 156.644293 247.346741 
L 157.915653 252.055543 
L 159.187013 251.536143 
L 161.729733 256.151777 
L 164.272454 264.458091 
L 166.815174 271.977819 
L 169.357895 278.764901 
L 171.900615 284.904717 
L 174.443336 290.439056 
L 176.986056 295.437045 
L 179.528776 299.960777 
L 182.071497 304.026574 
L 184.614217 307.709563 
L 187.156938 311.031752 
L 189.699658 314.035998 
L 193.513739 317.963023 
L 196.056459 320.274451 
L 198.59918 322.369179 
L 202.41326 325.11317 
L 204.955981 326.745099 
L 208.770062 328.890531 
L 212.584142 330.73507 
L 217.669583 332.785091 
L 221.483664 334.056789 
L 225.297744 335.114295 
L 229.111825 336.047935 
L 231.654545 336.614247 
L 240.554067 338.170742 
L 249.453589 339.211347 
L 257.08175 339.828913 
L 272.338072 340.675432 
L 283.780314 340.977374 
L 291.408476 341.118745 
L 299.036637 341.299341 
L 319.378401 341.495676 
L 328.277922 341.49209 
L 337.177444 341.515417 
L 412.187697 341.624282 
L 426.172659 341.583758 
L 440.157621 341.689065 
L 454.142584 341.642887 
L 463.042105 341.578627 
L 489.74067 341.675568 
L 507.539713 341.68279 
L 511.353794 341.737652 
L 518.981955 341.755692 
L 534.238278 341.815194 
L 539.323718 341.845 
L 569.836364 341.697518 
L 569.836364 341.697518 
" clip-path="url(#p3b639710e4)" style="fill: none; stroke: #2ca02c; stroke-width: 1.2; stroke-linecap: square"/>
   </g>
   <g id="line2d_34">
    <path d="M 62.563636 226.198909 
L 63.834997 227.450511 
L 66.377717 238.571241 
L 68.920437 248.607321 
L 71.463158 257.641172 
L 74.005878 265.824008 
L 76.548599 273.201867 
L 77.819959 276.621042 
L 79.091319 277.794954 
L 81.63404 284.013421 
L 84.17676 289.601099 
L 86.719481 294.659845 
L 89.262201 299.290926 
L 91.804921 303.403577 
L 94.347642 307.14738 
L 96.890362 310.495056 
L 99.433083 313.559232 
L 101.975803 316.324549 
L 103.247163 317.600522 
L 104.518524 317.743334 
L 107.061244 320.033183 
L 109.603964 322.152303 
L 113.418045 324.935931 
L 117.232126 327.291752 
L 118.503486 327.985991 
L 119.774846 322.247639 
L 122.317567 324.132191 
L 124.860287 325.821814 
L 128.674368 328.076652 
L 129.945728 328.745849 
L 131.217088 326.245566 
L 135.031169 328.493558 
L 137.573889 329.773563 
L 140.11661 330.92174 
L 145.202051 332.885954 
L 154.101572 335.538043 
L 161.729733 337.109884 
L 169.357895 338.291525 
L 175.714696 339.047694 
L 190.971018 340.195783 
L 224.026384 341.0586 
L 229.111825 341.12018 
L 236.739986 341.281998 
L 251.996309 341.302531 
L 253.267669 338.654987 
L 263.438551 339.625144 
L 264.709911 339.72704 
L 265.981271 337.338281 
L 267.252632 337.556979 
L 268.523992 337.647664 
L 272.338072 338.17679 
L 279.966234 339.133675 
L 287.594395 339.791263 
L 309.207519 340.918624 
L 313.021599 340.945666 
L 320.649761 341.085272 
L 333.363363 341.26839 
L 337.177444 341.329273 
L 339.720164 340.982669 
L 340.991524 340.998556 
L 342.262884 340.876444 
L 349.891046 341.008183 
L 351.162406 340.171598 
L 360.061928 340.604118 
L 363.876008 340.726788 
L 367.690089 340.765778 
L 368.961449 338.383782 
L 371.50417 338.667611 
L 372.77553 336.612658 
L 377.860971 337.537512 
L 379.132331 337.527172 
L 381.675051 337.851615 
L 391.845933 339.127445 
L 393.117293 338.844924 
L 396.931374 339.273345 
L 404.559535 339.905756 
L 405.830895 338.918081 
L 407.102256 339.044223 
L 408.373616 335.960913 
L 409.644976 333.737569 
L 414.730417 335.201162 
L 421.087218 336.68608 
L 429.98674 338.132381 
L 433.80082 338.619093 
L 438.886261 339.182863 
L 450.328503 340.065218 
L 455.413944 340.301604 
L 461.770745 340.535252 
L 468.127546 340.789819 
L 470.670267 340.862786 
L 471.941627 339.88212 
L 480.841148 340.383238 
L 483.383869 340.464445 
L 484.655229 340.53764 
L 485.926589 337.480173 
L 489.74067 338.098391 
L 496.097471 338.917444 
L 503.725632 339.619376 
L 508.811073 339.955937 
L 510.082433 339.81792 
L 513.896514 340.056871 
L 515.167874 339.972987 
L 520.253315 340.245176 
L 527.881476 340.614218 
L 534.238278 340.851348 
L 554.580041 341.327598 
L 563.479563 341.319046 
L 569.836364 341.366647 
L 569.836364 341.366647 
" clip-path="url(#p3b639710e4)" style="fill: none; stroke: #d62728; stroke-width: 1.2; stroke-linecap: square"/>
   </g>
   <g id="line2d_35">
    <path d="M 62.563636 176.071849 
L 63.834997 182.242755 
L 65.106357 185.980831 
L 66.377717 191.184563 
L 67.649077 195.171559 
L 68.920437 194.780155 
L 70.191798 202.125938 
L 71.463158 206.772025 
L 72.734518 213.490355 
L 74.005878 217.487331 
L 76.548599 229.372446 
L 79.091319 240.313784 
L 81.63404 250.157098 
L 84.17676 259.090581 
L 86.719481 267.167062 
L 89.262201 274.383801 
L 91.804921 280.904368 
L 94.347642 286.845914 
L 96.890362 292.200087 
L 99.433083 296.99789 
L 101.975803 301.366045 
L 104.518524 305.292797 
L 107.061244 308.895551 
L 109.603964 312.109739 
L 112.146685 314.986135 
L 114.689405 317.601145 
L 115.960766 317.269857 
L 119.774846 320.734876 
L 122.317567 322.732962 
L 124.860287 324.61539 
L 127.403008 326.29079 
L 129.945728 327.830679 
L 133.759809 329.783897 
L 137.573889 331.43714 
L 140.11661 332.327648 
L 143.93069 333.624371 
L 149.016131 335.146449 
L 154.101572 336.32503 
L 161.729733 337.672848 
L 170.629255 338.917237 
L 174.443336 339.2075 
L 187.156938 340.168524 
L 201.1419 340.842648 
L 238.011347 341.385184 
L 241.825427 341.421433 
L 243.096787 338.797304 
L 253.267669 339.832492 
L 272.338072 340.8445 
L 283.780314 341.109634 
L 293.951196 341.309429 
L 295.222556 341.171647 
L 320.649761 341.334203 
L 329.549282 341.489504 
L 337.177444 341.43876 
L 344.805605 341.470935 
L 347.348325 341.44754 
L 352.433766 341.516562 
L 356.247847 341.469094 
L 379.132331 341.651402 
L 385.489132 341.650752 
L 404.559535 341.522572 
L 405.830895 339.512465 
L 416.001777 340.225865 
L 421.087218 340.435564 
L 431.2581 340.85296 
L 442.700342 341.095241 
L 446.514422 341.190812 
L 452.871224 341.253825 
L 479.569788 341.516068 
L 493.554751 341.422905 
L 508.811073 341.592903 
L 536.780998 341.573267 
L 538.052358 341.403892 
L 545.680519 341.485374 
L 550.76596 341.484193 
L 553.308681 341.514085 
L 554.580041 339.785887 
L 567.293643 340.58169 
L 568.565003 340.613911 
L 568.565003 340.613911 
" clip-path="url(#p3b639710e4)" style="fill: none; stroke: #9467bd; stroke-width: 1.2; stroke-linecap: square"/>
   </g>
   <g id="patch_3">
    <path d="M 37.2 356.965 
L 37.2 24.325 
" style="fill: none; stroke: #000000; stroke-width: 0.8; stroke-linejoin: miter; stroke-linecap: square"/>
   </g>
   <g id="patch_4">
    <path d="M 595.2 356.965 
L 595.2 24.325 
" style="fill: none; stroke: #000000; stroke-width: 0.8; stroke-linejoin: miter; stroke-linecap: square"/>
   </g>
   <g id="patch_5">
    <path d="M 37.2 356.965 
L 595.2 356.965 
" style="fill: none; stroke: #000000; stroke-width: 0.8; stroke-linejoin: miter; stroke-linecap: square"/>
   </g>
   <g id="patch_6">
    <path d="M 37.2 24.325 
L 595.2 24.325 
" style="fill: none; stroke: #000000; stroke-width: 0.8; stroke-linejoin: miter; stroke-linecap: square"/>
   </g>
   <g id="text_18">
    <!-- Total Energy Consumption -->
    <g transform="translate(220.2 18.325) scale(0.16 -0.16)">
     <defs>
      <path id="SimHei-54" d="M 2850 3925 
L 1850 3925 
L 1850 125 
L 1275 125 
L 1275 3925 
L 275 3925 
L 275 4400 
L 2850 4400 
L 2850 3925 
z
" transform="scale(0.015625)"/>
      <path id="SimHei-74" d="M 2750 200 
Q 2625 150 2462 112 
Q 2300 75 2025 75 
Q 1575 75 1300 325 
Q 1025 575 1025 1025 
L 1025 2525 
L 175 2525 
L 175 2925 
L 1025 2925 
L 1025 3900 
L 1525 3900 
L 1525 2925 
L 2550 2925 
L 2550 2525 
L 1525 2525 
L 1525 1000 
Q 1525 800 1625 662 
Q 1725 525 2000 525 
Q 2275 525 2450 575 
Q 2625 625 2750 700 
L 2750 200 
z
" transform="scale(0.015625)"/>
      <path id="SimHei-61" d="M 2875 125 
L 2275 125 
Q 2225 175 2200 262 
Q 2175 350 2175 475 
Q 2000 275 1750 175 
Q 1500 75 1225 75 
Q 825 75 550 275 
Q 275 475 275 850 
Q 275 1225 525 1450 
Q 775 1675 1300 1750 
Q 1650 1800 1912 1875 
Q 2175 1950 2175 2075 
Q 2175 2225 2062 2375 
Q 1950 2525 1575 2525 
Q 1275 2525 1137 2412 
Q 1000 2300 950 2100 
L 400 2100 
Q 450 2500 762 2737 
Q 1075 2975 1575 2975 
Q 2125 2975 2400 2725 
Q 2675 2475 2675 2025 
L 2675 650 
Q 2675 500 2725 375 
Q 2775 250 2875 125 
z
M 2175 1050 
L 2175 1550 
Q 2025 1500 1887 1462 
Q 1750 1425 1425 1375 
Q 1050 1325 937 1200 
Q 825 1075 825 900 
Q 825 750 937 637 
Q 1050 525 1275 525 
Q 1500 525 1762 650 
Q 2025 775 2175 1050 
z
" transform="scale(0.015625)"/>
      <path id="SimHei-6c" d="M 1825 125 
L 1325 125 
L 1325 4400 
L 1825 4400 
L 1825 125 
z
" transform="scale(0.015625)"/>
      <path id="SimHei-20" transform="scale(0.015625)"/>
      <path id="SimHei-43" d="M 2975 1825 
Q 2950 875 2575 475 
Q 2200 75 1675 75 
Q 1075 75 650 562 
Q 225 1050 225 2125 
Q 225 3300 637 3875 
Q 1050 4450 1700 4450 
Q 2250 4450 2612 4037 
Q 2975 3625 2950 2875 
L 2400 2875 
Q 2400 3425 2225 3700 
Q 2050 3975 1700 3975 
Q 1300 3975 1062 3562 
Q 825 3150 825 2175 
Q 825 1275 1062 912 
Q 1300 550 1675 550 
Q 1950 550 2175 812 
Q 2400 1075 2400 1825 
L 2975 1825 
z
" transform="scale(0.015625)"/>
      <path id="SimHei-75" d="M 2800 125 
L 2300 125 
L 2300 650 
Q 2100 375 1862 225 
Q 1625 75 1250 75 
Q 800 75 575 325 
Q 350 575 350 950 
L 350 2925 
L 850 2925 
L 850 1125 
Q 850 825 1000 650 
Q 1150 475 1400 475 
Q 1725 475 2012 812 
Q 2300 1150 2300 1650 
L 2300 2925 
L 2800 2925 
L 2800 125 
z
" transform="scale(0.015625)"/>
      <path id="SimHei-6d" d="M 3050 125 
L 2550 125 
L 2550 2150 
Q 2550 2300 2500 2400 
Q 2450 2500 2300 2500 
Q 2125 2500 1975 2312 
Q 1825 2125 1825 1825 
L 1825 125 
L 1325 125 
L 1325 2150 
Q 1325 2300 1275 2400 
Q 1225 2500 1075 2500 
Q 900 2500 750 2312 
Q 600 2125 600 1825 
L 600 125 
L 100 125 
L 100 2925 
L 600 2925 
L 600 2550 
Q 725 2750 900 2862 
Q 1075 2975 1275 2975 
Q 1475 2975 1612 2862 
Q 1750 2750 1800 2550 
Q 1925 2750 2087 2862 
Q 2250 2975 2450 2975 
Q 2750 2975 2900 2812 
Q 3050 2650 3050 2350 
L 3050 125 
z
" transform="scale(0.015625)"/>
     </defs>
     <use xlink:href="#SimHei-54"/>
     <use xlink:href="#SimHei-6f" transform="translate(50 0)"/>
     <use xlink:href="#SimHei-74" transform="translate(100 0)"/>
     <use xlink:href="#SimHei-61" transform="translate(150 0)"/>
     <use xlink:href="#SimHei-6c" transform="translate(200 0)"/>
     <use xlink:href="#SimHei-20" transform="translate(250 0)"/>
     <use xlink:href="#SimHei-45" transform="translate(300 0)"/>
     <use xlink:href="#SimHei-6e" transform="translate(350 0)"/>
     <use xlink:href="#SimHei-65" transform="translate(400 0)"/>
     <use xlink:href="#SimHei-72" transform="translate(450 0)"/>
     <use xlink:href="#SimHei-67" transform="translate(500 0)"/>
     <use xlink:href="#SimHei-79" transform="translate(550 0)"/>
     <use xlink:href="#SimHei-20" transform="translate(600 0)"/>
     <use xlink:href="#SimHei-43" transform="translate(650 0)"/>
     <use xlink:href="#SimHei-6f" transform="translate(700 0)"/>
     <use xlink:href="#SimHei-6e" transform="translate(750 0)"/>
     <use xlink:href="#SimHei-73" transform="translate(800 0)"/>
     <use xlink:href="#SimHei-75" transform="translate(850 0)"/>
     <use xlink:href="#SimHei-6d" transform="translate(900 0)"/>
     <use xlink:href="#SimHei-70" transform="translate(950 0)"/>
     <use xlink:href="#SimHei-74" transform="translate(1000 0)"/>
     <use xlink:href="#SimHei-69" transform="translate(1050 0)"/>
     <use xlink:href="#SimHei-6f" transform="translate(1100 0)"/>
     <use xlink:href="#SimHei-6e" transform="translate(1150 0)"/>
    </g>
   </g>
   <g id="legend_1">
    <g id="patch_7">
     <path d="M 500.4 113.425 
L 586.8 113.425 
Q 589.2 113.425 589.2 111.025 
L 589.2 32.725 
Q 589.2 30.325 586.8 30.325 
L 500.4 30.325 
Q 498 30.325 498 32.725 
L 498 111.025 
Q 498 113.425 500.4 113.425 
z
" style="fill: #ffffff; opacity: 0.8; stroke: #cccccc; stroke-linejoin: miter"/>
    </g>
    <g id="line2d_36">
     <path d="M 502.8 39.325 
L 514.8 39.325 
L 526.8 39.325 
" style="fill: none; stroke: #1f77b4; stroke-width: 1.2; stroke-linecap: square"/>
    </g>
    <g id="text_19">
     <!-- DDPG -->
     <g transform="translate(536.4 43.525) scale(0.12 -0.12)">
      <defs>
       <path id="SimHei-44" d="M 2925 2250 
Q 2925 1100 2437 612 
Q 1950 125 1125 125 
L 275 125 
L 275 4400 
L 1125 4400 
Q 2050 4400 2487 3900 
Q 2925 3400 2925 2250 
z
M 2325 2250 
Q 2325 3175 2025 3550 
Q 1725 3925 1125 3925 
L 850 3925 
L 850 600 
L 1125 600 
Q 1725 600 2025 962 
Q 2325 1325 2325 2250 
z
" transform="scale(0.015625)"/>
       <path id="SimHei-50" d="M 2950 3100 
Q 2950 2500 2600 2150 
Q 2250 1800 1625 1800 
L 900 1800 
L 900 125 
L 325 125 
L 325 4400 
L 1625 4400 
Q 2250 4400 2600 4050 
Q 2950 3700 2950 3100 
z
M 2375 3100 
Q 2375 3575 2150 3750 
Q 1925 3925 1475 3925 
L 900 3925 
L 900 2275 
L 1475 2275 
Q 1925 2275 2150 2450 
Q 2375 2625 2375 3100 
z
" transform="scale(0.015625)"/>
       <path id="SimHei-47" d="M 2850 75 
L 2425 75 
L 2350 425 
Q 2250 275 2037 175 
Q 1825 75 1575 75 
Q 1050 75 637 562 
Q 225 1050 225 2125 
Q 225 3300 600 3875 
Q 975 4450 1625 4450 
Q 2200 4450 2525 4025 
Q 2850 3600 2850 2925 
L 2300 2925 
Q 2300 3450 2125 3712 
Q 1950 3975 1625 3975 
Q 1225 3975 1025 3562 
Q 825 3150 825 2175 
Q 825 1250 1075 900 
Q 1325 550 1650 550 
Q 1975 550 2162 787 
Q 2350 1025 2350 1525 
L 2350 1800 
L 1575 1800 
L 1575 2275 
L 2850 2275 
L 2850 75 
z
" transform="scale(0.015625)"/>
      </defs>
      <use xlink:href="#SimHei-44"/>
      <use xlink:href="#SimHei-44" transform="translate(50 0)"/>
      <use xlink:href="#SimHei-50" transform="translate(100 0)"/>
      <use xlink:href="#SimHei-47" transform="translate(150 0)"/>
     </g>
    </g>
    <g id="line2d_37">
     <path d="M 502.8 55.225 
L 514.8 55.225 
L 526.8 55.225 
" style="fill: none; stroke: #ff7f0e; stroke-width: 1.2; stroke-linecap: square"/>
    </g>
    <g id="text_20">
     <!-- PPO -->
     <g transform="translate(536.4 59.425) scale(0.12 -0.12)">
      <defs>
       <path id="SimHei-4f" d="M 2950 2275 
Q 2950 1100 2587 587 
Q 2225 75 1575 75 
Q 925 75 550 587 
Q 175 1100 175 2275 
Q 175 3450 550 3950 
Q 925 4450 1575 4450 
Q 2225 4450 2587 3950 
Q 2950 3450 2950 2275 
z
M 2350 2275 
Q 2350 3325 2125 3650 
Q 1900 3975 1575 3975 
Q 1250 3975 1012 3650 
Q 775 3325 775 2275 
Q 775 1225 1012 887 
Q 1250 550 1575 550 
Q 1900 550 2125 887 
Q 2350 1225 2350 2275 
z
" transform="scale(0.015625)"/>
      </defs>
      <use xlink:href="#SimHei-50"/>
      <use xlink:href="#SimHei-50" transform="translate(50 0)"/>
      <use xlink:href="#SimHei-4f" transform="translate(100 0)"/>
     </g>
    </g>
    <g id="line2d_38">
     <path d="M 502.8 71.125 
L 514.8 71.125 
L 526.8 71.125 
" style="fill: none; stroke: #2ca02c; stroke-width: 1.2; stroke-linecap: square"/>
    </g>
    <g id="text_21">
     <!-- TD3 -->
     <g transform="translate(536.4 75.325) scale(0.12 -0.12)">
      <use xlink:href="#SimHei-54"/>
      <use xlink:href="#SimHei-44" transform="translate(50 0)"/>
      <use xlink:href="#SimHei-33" transform="translate(100 0)"/>
     </g>
    </g>
    <g id="line2d_39">
     <path d="M 502.8 87.025 
L 514.8 87.025 
L 526.8 87.025 
" style="fill: none; stroke: #d62728; stroke-width: 1.2; stroke-linecap: square"/>
    </g>
    <g id="text_22">
     <!-- GCN-DDQN -->
     <g transform="translate(536.4 91.225) scale(0.12 -0.12)">
      <defs>
       <path id="SimHei-4e" d="M 2850 125 
L 2225 125 
L 850 3225 
L 825 3225 
L 825 125 
L 250 125 
L 250 4400 
L 875 4400 
L 2250 1300 
L 2275 1300 
L 2275 4400 
L 2850 4400 
L 2850 125 
z
" transform="scale(0.015625)"/>
       <path id="SimHei-2d" d="M 2975 2125 
L 125 2125 
L 125 2525 
L 2975 2525 
L 2975 2125 
z
" transform="scale(0.015625)"/>
       <path id="SimHei-51" d="M 2950 2275 
Q 2950 1675 2862 1262 
Q 2775 850 2575 600 
L 2775 225 
L 2375 -200 
L 2150 225 
Q 2050 150 1900 112 
Q 1750 75 1575 75 
Q 925 75 550 587 
Q 175 1100 175 2275 
Q 175 3450 550 3950 
Q 925 4450 1575 4450 
Q 2225 4450 2587 3950 
Q 2950 3450 2950 2275 
z
M 2350 2275 
Q 2350 3325 2125 3650 
Q 1900 3975 1575 3975 
Q 1250 3975 1012 3650 
Q 775 3325 775 2275 
Q 775 1225 1012 887 
Q 1250 550 1575 550 
Q 1700 550 1800 587 
Q 1900 625 1950 675 
L 1550 1450 
L 1900 1875 
L 2250 1200 
Q 2300 1450 2325 1650 
Q 2350 1850 2350 2275 
z
" transform="scale(0.015625)"/>
      </defs>
      <use xlink:href="#SimHei-47"/>
      <use xlink:href="#SimHei-43" transform="translate(50 0)"/>
      <use xlink:href="#SimHei-4e" transform="translate(100 0)"/>
      <use xlink:href="#SimHei-2d" transform="translate(150 0)"/>
      <use xlink:href="#SimHei-44" transform="translate(200 0)"/>
      <use xlink:href="#SimHei-44" transform="translate(250 0)"/>
      <use xlink:href="#SimHei-51" transform="translate(300 0)"/>
      <use xlink:href="#SimHei-4e" transform="translate(350 0)"/>
     </g>
    </g>
    <g id="line2d_40">
     <path d="M 502.8 102.925 
L 514.8 102.925 
L 526.8 102.925 
" style="fill: none; stroke: #9467bd; stroke-width: 1.2; stroke-linecap: square"/>
    </g>
    <g id="text_23">
     <!-- GLDVTO -->
     <g transform="translate(536.4 107.125) scale(0.12 -0.12)">
      <defs>
       <path id="SimHei-4c" d="M 2900 125 
L 300 125 
L 300 4400 
L 875 4400 
L 875 600 
L 2900 600 
L 2900 125 
z
" transform="scale(0.015625)"/>
       <path id="SimHei-56" d="M 3050 4400 
L 1800 75 
L 1300 75 
L 50 4400 
L 650 4400 
L 1525 1125 
L 1575 1125 
L 2450 4400 
L 3050 4400 
z
" transform="scale(0.015625)"/>
      </defs>
      <use xlink:href="#SimHei-47"/>
      <use xlink:href="#SimHei-4c" transform="translate(50 0)"/>
      <use xlink:href="#SimHei-44" transform="translate(100 0)"/>
      <use xlink:href="#SimHei-56" transform="translate(150 0)"/>
      <use xlink:href="#SimHei-54" transform="translate(200 0)"/>
      <use xlink:href="#SimHei-4f" transform="translate(250 0)"/>
     </g>
    </g>
   </g>
  </g>
 </g>
 <defs>
  <clipPath id="p3b639710e4">
   <rect x="37.2" y="24.325" width="558" height="332.64"/>
  </clipPath>
 </defs>
</svg>
