<?xml version="1.0" encoding="utf-8" standalone="no"?>
<!DOCTYPE svg PUBLIC "-//W3C//DTD SVG 1.1//EN"
  "http://www.w3.org/Graphics/SVG/1.1/DTD/svg11.dtd">
<svg xmlns:xlink="http://www.w3.org/1999/xlink" width="689.6125pt" height="391.6261pt" viewBox="0 0 689.6125 391.6261" xmlns="http://www.w3.org/2000/svg" version="1.1">
 <metadata>
  <rdf:RDF xmlns:dc="http://purl.org/dc/elements/1.1/" xmlns:cc="http://creativecommons.org/ns#" xmlns:rdf="http://www.w3.org/1999/02/22-rdf-syntax-ns#">
   <cc:Work>
    <dc:type rdf:resource="http://purl.org/dc/dcmitype/StillImage"/>
    <dc:date>2026-07-13T19:14:03.385829</dc:date>
    <dc:format>image/svg+xml</dc:format>
    <dc:creator>
     <cc:Agent>
      <dc:title>Matplotlib v3.10.7, https://matplotlib.org/</dc:title>
     </cc:Agent>
    </dc:creator>
   </cc:Work>
  </rdf:RDF>
 </metadata>
 <defs>
  <style type="text/css">*{stroke-linejoin: round; stroke-linecap: butt}</style>
 </defs>
 <g id="figure_1">
  <g id="patch_1">
   <path d="M 0 391.6261 
L 689.6125 391.6261 
L 689.6125 0 
L 0 0 
z
" style="fill: #ffffff"/>
  </g>
  <g id="axes_1">
   <g id="patch_2">
    <path d="M 56.0125 349.8636 
L 682.4125 349.8636 
L 682.4125 34.5036 
L 56.0125 34.5036 
z
" style="fill: #ffffff"/>
   </g>
   <g id="matplotlib.axis_1">
    <g id="xtick_1">
     <g id="line2d_1">
      <path d="M 84.485227 349.8636 
L 84.485227 34.5036 
" clip-path="url(#p19a053a074)" style="fill: none; stroke-dasharray: 2.22,0.96; stroke-dashoffset: 0; stroke: #b0b0b0; stroke-opacity: 0.25; stroke-width: 0.6"/>
     </g>
     <g id="line2d_2">
      <defs>
       <path id="m0e34865780" d="M 0 0 
L 0 3.5 
" style="stroke: #000000; stroke-width: 0.8"/>
      </defs>
      <g>
       <use xlink:href="#m0e34865780" x="84.485227" y="349.8636" style="stroke: #000000; stroke-width: 0.8"/>
      </g>
     </g>
     <g id="text_1">
      <!-- 0 -->
      <g transform="translate(81.485227 365.1136) scale(0.12 -0.12)">
       <defs>
        <path id="SimHei-30" d="M 225 2537 
Q 250 3200 412 3587 
Q 575 3975 875 4225 
Q 1175 4475 1612 4475 
Q 2050 4475 2375 4112 
Q 2700 3750 2800 3200 
Q 2900 2650 2862 1937 
Q 2825 1225 2612 775 
Q 2400 325 1975 150 
Q 1550 -25 1125 187 
Q 700 400 525 750 
Q 350 1100 275 1487 
Q 200 1875 225 2537 
z
M 750 2687 
Q 675 2000 800 1462 
Q 925 925 1212 700 
Q 1500 475 1800 612 
Q 2100 750 2237 1162 
Q 2375 1575 2375 2062 
Q 2375 2550 2337 2950 
Q 2300 3350 2112 3675 
Q 1925 4000 1612 4012 
Q 1300 4025 1062 3700 
Q 825 3375 750 2687 
z
" transform="scale(0.015625)"/>
       </defs>
       <use xlink:href="#SimHei-30"/>
      </g>
     </g>
    </g>
    <g id="xtick_2">
     <g id="line2d_3">
      <path d="M 155.845446 349.8636 
L 155.845446 34.5036 
" clip-path="url(#p19a053a074)" style="fill: none; stroke-dasharray: 2.22,0.96; stroke-dashoffset: 0; stroke: #b0b0b0; stroke-opacity: 0.25; stroke-width: 0.6"/>
     </g>
     <g id="line2d_4">
      <g>
       <use xlink:href="#m0e34865780" x="155.845446" y="349.8636" style="stroke: #000000; stroke-width: 0.8"/>
      </g>
     </g>
     <g id="text_2">
      <!-- 50 -->
      <g transform="translate(149.845446 365.1136) scale(0.12 -0.12)">
       <defs>
        <path id="SimHei-35" d="M 550 1325 
Q 725 650 1150 575 
Q 1575 500 1837 662 
Q 2100 825 2212 1087 
Q 2325 1350 2312 1675 
Q 2300 2000 2137 2225 
Q 1975 2450 1725 2525 
Q 1475 2600 1162 2525 
Q 850 2450 650 2175 
L 225 2225 
Q 275 2375 700 4375 
L 2675 4375 
L 2675 3925 
L 1075 3925 
Q 950 3250 825 2850 
Q 1200 3025 1525 3012 
Q 1850 3000 2150 2862 
Q 2450 2725 2587 2487 
Q 2725 2250 2787 2012 
Q 2850 1775 2837 1500 
Q 2825 1225 2725 937 
Q 2625 650 2425 462 
Q 2225 275 1937 162 
Q 1650 50 1275 75 
Q 900 100 562 350 
Q 225 600 100 1200 
L 550 1325 
z
" transform="scale(0.015625)"/>
       </defs>
       <use xlink:href="#SimHei-35"/>
       <use xlink:href="#SimHei-30" transform="translate(50 0)"/>
      </g>
     </g>
    </g>
    <g id="xtick_3">
     <g id="line2d_5">
      <path d="M 227.205665 349.8636 
L 227.205665 34.5036 
" clip-path="url(#p19a053a074)" style="fill: none; stroke-dasharray: 2.22,0.96; stroke-dashoffset: 0; stroke: #b0b0b0; stroke-opacity: 0.25; stroke-width: 0.6"/>
     </g>
     <g id="line2d_6">
      <g>
       <use xlink:href="#m0e34865780" x="227.205665" y="349.8636" style="stroke: #000000; stroke-width: 0.8"/>
      </g>
     </g>
     <g id="text_3">
      <!-- 100 -->
      <g transform="translate(218.205665 365.1136) scale(0.12 -0.12)">
       <defs>
        <path id="SimHei-31" d="M 1400 3600 
Q 1075 3275 575 2975 
L 575 3450 
Q 1200 3875 1600 4450 
L 1900 4450 
L 1900 150 
L 1400 150 
L 1400 3600 
z
" transform="scale(0.015625)"/>
       </defs>
       <use xlink:href="#SimHei-31"/>
       <use xlink:href="#SimHei-30" transform="translate(50 0)"/>
       <use xlink:href="#SimHei-30" transform="translate(100 0)"/>
      </g>
     </g>
    </g>
    <g id="xtick_4">
     <g id="line2d_7">
      <path d="M 298.565883 349.8636 
L 298.565883 34.5036 
" clip-path="url(#p19a053a074)" style="fill: none; stroke-dasharray: 2.22,0.96; stroke-dashoffset: 0; stroke: #b0b0b0; stroke-opacity: 0.25; stroke-width: 0.6"/>
     </g>
     <g id="line2d_8">
      <g>
       <use xlink:href="#m0e34865780" x="298.565883" y="349.8636" style="stroke: #000000; stroke-width: 0.8"/>
      </g>
     </g>
     <g id="text_4">
      <!-- 150 -->
      <g transform="translate(289.565883 365.1136) scale(0.12 -0.12)">
       <use xlink:href="#SimHei-31"/>
       <use xlink:href="#SimHei-35" transform="translate(50 0)"/>
       <use xlink:href="#SimHei-30" transform="translate(100 0)"/>
      </g>
     </g>
    </g>
    <g id="xtick_5">
     <g id="line2d_9">
      <path d="M 369.926102 349.8636 
L 369.926102 34.5036 
" clip-path="url(#p19a053a074)" style="fill: none; stroke-dasharray: 2.22,0.96; stroke-dashoffset: 0; stroke: #b0b0b0; stroke-opacity: 0.25; stroke-width: 0.6"/>
     </g>
     <g id="line2d_10">
      <g>
       <use xlink:href="#m0e34865780" x="369.926102" y="349.8636" style="stroke: #000000; stroke-width: 0.8"/>
      </g>
     </g>
     <g id="text_5">
      <!-- 200 -->
      <g transform="translate(360.926102 365.1136) scale(0.12 -0.12)">
       <defs>
        <path id="SimHei-32" d="M 300 250 
Q 325 625 650 925 
Q 975 1225 1475 1862 
Q 1975 2500 2125 2850 
Q 2275 3200 2237 3450 
Q 2200 3700 2000 3862 
Q 1800 4025 1537 4000 
Q 1275 3975 1037 3800 
Q 800 3625 675 3275 
L 200 3350 
Q 400 3925 712 4187 
Q 1025 4450 1450 4475 
Q 1700 4500 1900 4462 
Q 2100 4425 2312 4287 
Q 2525 4150 2662 3875 
Q 2800 3600 2762 3212 
Q 2725 2825 2375 2287 
Q 2025 1750 1025 600 
L 2825 600 
L 2825 150 
L 300 150 
L 300 250 
z
" transform="scale(0.015625)"/>
       </defs>
       <use xlink:href="#SimHei-32"/>
       <use xlink:href="#SimHei-30" transform="translate(50 0)"/>
       <use xlink:href="#SimHei-30" transform="translate(100 0)"/>
      </g>
     </g>
    </g>
    <g id="xtick_6">
     <g id="line2d_11">
      <path d="M 441.286321 349.8636 
L 441.286321 34.5036 
" clip-path="url(#p19a053a074)" style="fill: none; stroke-dasharray: 2.22,0.96; stroke-dashoffset: 0; stroke: #b0b0b0; stroke-opacity: 0.25; stroke-width: 0.6"/>
     </g>
     <g id="line2d_12">
      <g>
       <use xlink:href="#m0e34865780" x="441.286321" y="349.8636" style="stroke: #000000; stroke-width: 0.8"/>
      </g>
     </g>
     <g id="text_6">
      <!-- 250 -->
      <g transform="translate(432.286321 365.1136) scale(0.12 -0.12)">
       <use xlink:href="#SimHei-32"/>
       <use xlink:href="#SimHei-35" transform="translate(50 0)"/>
       <use xlink:href="#SimHei-30" transform="translate(100 0)"/>
      </g>
     </g>
    </g>
    <g id="xtick_7">
     <g id="line2d_13">
      <path d="M 512.64654 349.8636 
L 512.64654 34.5036 
" clip-path="url(#p19a053a074)" style="fill: none; stroke-dasharray: 2.22,0.96; stroke-dashoffset: 0; stroke: #b0b0b0; stroke-opacity: 0.25; stroke-width: 0.6"/>
     </g>
     <g id="line2d_14">
      <g>
       <use xlink:href="#m0e34865780" x="512.64654" y="349.8636" style="stroke: #000000; stroke-width: 0.8"/>
      </g>
     </g>
     <g id="text_7">
      <!-- 300 -->
      <g transform="translate(503.64654 365.1136) scale(0.12 -0.12)">
       <defs>
        <path id="SimHei-33" d="M 250 1225 
L 700 1300 
Q 800 975 1025 762 
Q 1250 550 1587 562 
Q 1925 575 2125 837 
Q 2325 1100 2300 1437 
Q 2275 1775 2037 1962 
Q 1800 2150 1275 2225 
L 1275 2550 
Q 1800 2600 2037 2825 
Q 2275 3050 2250 3412 
Q 2225 3775 1925 3937 
Q 1625 4100 1287 3975 
Q 950 3850 750 3275 
L 300 3350 
Q 450 3800 712 4100 
Q 975 4400 1425 4450 
Q 1875 4500 2212 4337 
Q 2550 4175 2687 3837 
Q 2825 3500 2725 3100 
Q 2625 2700 2150 2400 
Q 2500 2250 2687 1950 
Q 2875 1650 2812 1162 
Q 2750 675 2375 375 
Q 2000 75 1525 87 
Q 1050 100 700 387 
Q 350 675 250 1225 
z
" transform="scale(0.015625)"/>
       </defs>
       <use xlink:href="#SimHei-33"/>
       <use xlink:href="#SimHei-30" transform="translate(50 0)"/>
       <use xlink:href="#SimHei-30" transform="translate(100 0)"/>
      </g>
     </g>
    </g>
    <g id="xtick_8">
     <g id="line2d_15">
      <path d="M 584.006758 349.8636 
L 584.006758 34.5036 
" clip-path="url(#p19a053a074)" style="fill: none; stroke-dasharray: 2.22,0.96; stroke-dashoffset: 0; stroke: #b0b0b0; stroke-opacity: 0.25; stroke-width: 0.6"/>
     </g>
     <g id="line2d_16">
      <g>
       <use xlink:href="#m0e34865780" x="584.006758" y="349.8636" style="stroke: #000000; stroke-width: 0.8"/>
      </g>
     </g>
     <g id="text_8">
      <!-- 350 -->
      <g transform="translate(575.006758 365.1136) scale(0.12 -0.12)">
       <use xlink:href="#SimHei-33"/>
       <use xlink:href="#SimHei-35" transform="translate(50 0)"/>
       <use xlink:href="#SimHei-30" transform="translate(100 0)"/>
      </g>
     </g>
    </g>
    <g id="xtick_9">
     <g id="line2d_17">
      <path d="M 655.366977 349.8636 
L 655.366977 34.5036 
" clip-path="url(#p19a053a074)" style="fill: none; stroke-dasharray: 2.22,0.96; stroke-dashoffset: 0; stroke: #b0b0b0; stroke-opacity: 0.25; stroke-width: 0.6"/>
     </g>
     <g id="line2d_18">
      <g>
       <use xlink:href="#m0e34865780" x="655.366977" y="349.8636" style="stroke: #000000; stroke-width: 0.8"/>
      </g>
     </g>
     <g id="text_9">
      <!-- 400 -->
      <g transform="translate(646.366977 365.1136) scale(0.12 -0.12)">
       <defs>
        <path id="SimHei-34" d="M 2000 1100 
L 75 1100 
L 75 1525 
L 2100 4450 
L 2475 4450 
L 2475 1525 
L 3075 1525 
L 3075 1100 
L 2475 1100 
L 2475 150 
L 2000 150 
L 2000 1100 
z
M 2000 1525 
L 2000 3500 
L 600 1525 
L 2000 1525 
z
" transform="scale(0.015625)"/>
       </defs>
       <use xlink:href="#SimHei-34"/>
       <use xlink:href="#SimHei-30" transform="translate(50 0)"/>
       <use xlink:href="#SimHei-30" transform="translate(100 0)"/>
      </g>
     </g>
    </g>
    <g id="text_10">
     <!-- Episode -->
     <g transform="translate(339.4625 382.3011) scale(0.17 -0.17)">
      <defs>
       <path id="SimHei-45" d="M 2900 125 
L 350 125 
L 350 4400 
L 2775 4400 
L 2775 3925 
L 925 3925 
L 925 2600 
L 2625 2600 
L 2625 2125 
L 925 2125 
L 925 600 
L 2900 600 
L 2900 125 
z
" transform="scale(0.015625)"/>
       <path id="SimHei-70" d="M 2825 1525 
Q 2825 800 2475 425 
Q 2125 50 1625 50 
Q 1350 50 1150 162 
Q 950 275 800 500 
L 800 -800 
L 300 -800 
L 300 2925 
L 800 2925 
L 800 2550 
Q 950 2775 1150 2875 
Q 1350 2975 1625 2975 
Q 2125 2975 2475 2612 
Q 2825 2250 2825 1525 
z
M 2275 1525 
Q 2275 2000 2087 2262 
Q 1900 2525 1525 2525 
Q 1225 2525 1012 2262 
Q 800 2000 800 1525 
Q 800 1050 1012 775 
Q 1225 500 1525 500 
Q 1900 500 2087 775 
Q 2275 1050 2275 1525 
z
" transform="scale(0.015625)"/>
       <path id="SimHei-69" d="M 1800 3725 
L 1300 3725 
L 1300 4375 
L 1800 4375 
L 1800 3725 
z
M 1800 125 
L 1300 125 
L 1300 2925 
L 1800 2925 
L 1800 125 
z
" transform="scale(0.015625)"/>
       <path id="SimHei-73" d="M 2750 900 
Q 2750 500 2437 287 
Q 2125 75 1650 75 
Q 1050 75 725 312 
Q 400 550 400 1000 
L 900 1000 
Q 900 700 1112 600 
Q 1325 500 1625 500 
Q 1925 500 2075 612 
Q 2225 725 2225 900 
Q 2225 1025 2100 1150 
Q 1975 1275 1475 1350 
Q 900 1425 687 1637 
Q 475 1850 475 2200 
Q 475 2500 762 2737 
Q 1050 2975 1600 2975 
Q 2100 2975 2387 2750 
Q 2675 2525 2675 2150 
L 2175 2150 
Q 2175 2375 2012 2462 
Q 1850 2550 1600 2550 
Q 1275 2550 1137 2437 
Q 1000 2325 1000 2175 
Q 1000 2000 1125 1900 
Q 1250 1800 1650 1750 
Q 2300 1650 2525 1437 
Q 2750 1225 2750 900 
z
" transform="scale(0.015625)"/>
       <path id="SimHei-6f" d="M 2925 1525 
Q 2925 875 2525 475 
Q 2125 75 1575 75 
Q 1025 75 625 475 
Q 225 875 225 1525 
Q 225 2175 625 2575 
Q 1025 2975 1575 2975 
Q 2125 2975 2525 2575 
Q 2925 2175 2925 1525 
z
M 2375 1525 
Q 2375 2025 2125 2275 
Q 1875 2525 1575 2525 
Q 1275 2525 1025 2275 
Q 775 2025 775 1525 
Q 775 1025 1025 775 
Q 1275 525 1575 525 
Q 1875 525 2125 775 
Q 2375 1025 2375 1525 
z
" transform="scale(0.015625)"/>
       <path id="SimHei-64" d="M 2750 125 
L 2250 125 
L 2250 500 
Q 2100 275 1900 175 
Q 1700 75 1425 75 
Q 925 75 575 437 
Q 225 800 225 1525 
Q 225 2250 575 2625 
Q 925 3000 1425 3000 
Q 1700 3000 1900 2887 
Q 2100 2775 2250 2550 
L 2250 4400 
L 2750 4400 
L 2750 125 
z
M 2250 1525 
Q 2250 2000 2037 2275 
Q 1825 2550 1525 2550 
Q 1150 2550 962 2275 
Q 775 2000 775 1525 
Q 775 1050 962 787 
Q 1150 525 1525 525 
Q 1825 525 2037 787 
Q 2250 1050 2250 1525 
z
" transform="scale(0.015625)"/>
       <path id="SimHei-65" d="M 2850 1075 
Q 2800 625 2450 350 
Q 2100 75 1625 75 
Q 1025 75 637 462 
Q 250 850 250 1525 
Q 250 2200 637 2587 
Q 1025 2975 1625 2975 
Q 2150 2975 2487 2637 
Q 2825 2300 2825 1525 
L 800 1525 
Q 800 975 1037 750 
Q 1275 525 1625 525 
Q 1900 525 2075 662 
Q 2250 800 2300 1075 
L 2850 1075 
z
M 2250 1925 
Q 2200 2275 2025 2412 
Q 1850 2550 1575 2550 
Q 1325 2550 1125 2412 
Q 925 2275 825 1925 
L 2250 1925 
z
" transform="scale(0.015625)"/>
      </defs>
      <use xlink:href="#SimHei-45"/>
      <use xlink:href="#SimHei-70" transform="translate(50 0)"/>
      <use xlink:href="#SimHei-69" transform="translate(100 0)"/>
      <use xlink:href="#SimHei-73" transform="translate(150 0)"/>
      <use xlink:href="#SimHei-6f" transform="translate(200 0)"/>
      <use xlink:href="#SimHei-64" transform="translate(250 0)"/>
      <use xlink:href="#SimHei-65" transform="translate(300 0)"/>
     </g>
    </g>
   </g>
   <g id="matplotlib.axis_2">
    <g id="ytick_1">
     <g id="line2d_19">
      <path d="M 56.0125 300.512153 
L 682.4125 300.512153 
" clip-path="url(#p19a053a074)" style="fill: none; stroke-dasharray: 2.22,0.96; stroke-dashoffset: 0; stroke: #b0b0b0; stroke-opacity: 0.25; stroke-width: 0.6"/>
     </g>
     <g id="line2d_20">
      <defs>
       <path id="m9bdd4433ef" d="M 0 0 
L -3.5 0 
" style="stroke: #000000; stroke-width: 0.8"/>
      </defs>
      <g>
       <use xlink:href="#m9bdd4433ef" x="56.0125" y="300.512153" style="stroke: #000000; stroke-width: 0.8"/>
      </g>
     </g>
     <g id="text_11">
      <!-- 600 -->
      <g transform="translate(31.0125 304.637153) scale(0.12 -0.12)">
       <defs>
        <path id="SimHei-36" d="M 250 1612 
Q 275 1975 387 2225 
Q 500 2475 725 2850 
L 1750 4450 
L 2325 4450 
L 1275 2800 
Q 1950 2975 2350 2750 
Q 2750 2525 2887 2237 
Q 3025 1950 3037 1612 
Q 3050 1275 2937 950 
Q 2825 625 2537 362 
Q 2250 100 1737 75 
Q 1225 50 862 262 
Q 500 475 362 862 
Q 225 1250 250 1612 
z
M 1025 787 
Q 1250 550 1625 525 
Q 2000 500 2250 775 
Q 2500 1050 2500 1575 
Q 2500 2100 2187 2300 
Q 1875 2500 1487 2450 
Q 1100 2400 925 2075 
Q 750 1750 775 1387 
Q 800 1025 1025 787 
z
" transform="scale(0.015625)"/>
       </defs>
       <use xlink:href="#SimHei-36"/>
       <use xlink:href="#SimHei-30" transform="translate(50 0)"/>
       <use xlink:href="#SimHei-30" transform="translate(100 0)"/>
      </g>
     </g>
    </g>
    <g id="ytick_2">
     <g id="line2d_21">
      <path d="M 56.0125 248.601609 
L 682.4125 248.601609 
" clip-path="url(#p19a053a074)" style="fill: none; stroke-dasharray: 2.22,0.96; stroke-dashoffset: 0; stroke: #b0b0b0; stroke-opacity: 0.25; stroke-width: 0.6"/>
     </g>
     <g id="line2d_22">
      <g>
       <use xlink:href="#m9bdd4433ef" x="56.0125" y="248.601609" style="stroke: #000000; stroke-width: 0.8"/>
      </g>
     </g>
     <g id="text_12">
      <!-- 800 -->
      <g transform="translate(31.0125 252.726609) scale(0.12 -0.12)">
       <defs>
        <path id="SimHei-38" d="M 175 1375 
Q 175 1675 325 1962 
Q 475 2250 825 2425 
Q 525 2600 425 2812 
Q 325 3025 312 3300 
Q 300 3575 387 3775 
Q 475 3975 650 4150 
Q 825 4325 1037 4387 
Q 1250 4450 1500 4450 
Q 1750 4450 1950 4400 
Q 2150 4350 2375 4187 
Q 2600 4025 2700 3725 
Q 2800 3425 2687 3025 
Q 2575 2625 2100 2400 
Q 2525 2275 2700 2012 
Q 2875 1750 2875 1375 
Q 2875 1000 2762 775 
Q 2650 550 2512 400 
Q 2375 250 2137 162 
Q 1900 75 1537 75 
Q 1175 75 912 162 
Q 650 250 475 425 
Q 300 600 237 837 
Q 175 1075 175 1375 
z
M 687 1400 
Q 675 1100 787 875 
Q 900 650 1200 587 
Q 1500 525 1825 600 
Q 2150 675 2275 950 
Q 2400 1225 2362 1500 
Q 2325 1775 2050 1962 
Q 1775 2150 1450 2125 
Q 1125 2100 912 1900 
Q 700 1700 687 1400 
z
M 775 3350 
Q 775 3100 950 2875 
Q 1125 2650 1500 2650 
Q 1875 2650 2062 2875 
Q 2250 3100 2237 3412 
Q 2225 3725 2012 3875 
Q 1800 4025 1437 4000 
Q 1075 3975 925 3787 
Q 775 3600 775 3350 
z
" transform="scale(0.015625)"/>
       </defs>
       <use xlink:href="#SimHei-38"/>
       <use xlink:href="#SimHei-30" transform="translate(50 0)"/>
       <use xlink:href="#SimHei-30" transform="translate(100 0)"/>
      </g>
     </g>
    </g>
    <g id="ytick_3">
     <g id="line2d_23">
      <path d="M 56.0125 196.691065 
L 682.4125 196.691065 
" clip-path="url(#p19a053a074)" style="fill: none; stroke-dasharray: 2.22,0.96; stroke-dashoffset: 0; stroke: #b0b0b0; stroke-opacity: 0.25; stroke-width: 0.6"/>
     </g>
     <g id="line2d_24">
      <g>
       <use xlink:href="#m9bdd4433ef" x="56.0125" y="196.691065" style="stroke: #000000; stroke-width: 0.8"/>
      </g>
     </g>
     <g id="text_13">
      <!-- 1000 -->
      <g transform="translate(25.0125 200.816065) scale(0.12 -0.12)">
       <use xlink:href="#SimHei-31"/>
       <use xlink:href="#SimHei-30" transform="translate(50 0)"/>
       <use xlink:href="#SimHei-30" transform="translate(100 0)"/>
       <use xlink:href="#SimHei-30" transform="translate(150 0)"/>
      </g>
     </g>
    </g>
    <g id="ytick_4">
     <g id="line2d_25">
      <path d="M 56.0125 144.780521 
L 682.4125 144.780521 
" clip-path="url(#p19a053a074)" style="fill: none; stroke-dasharray: 2.22,0.96; stroke-dashoffset: 0; stroke: #b0b0b0; stroke-opacity: 0.25; stroke-width: 0.6"/>
     </g>
     <g id="line2d_26">
      <g>
       <use xlink:href="#m9bdd4433ef" x="56.0125" y="144.780521" style="stroke: #000000; stroke-width: 0.8"/>
      </g>
     </g>
     <g id="text_14">
      <!-- 1200 -->
      <g transform="translate(25.0125 148.905521) scale(0.12 -0.12)">
       <use xlink:href="#SimHei-31"/>
       <use xlink:href="#SimHei-32" transform="translate(50 0)"/>
       <use xlink:href="#SimHei-30" transform="translate(100 0)"/>
       <use xlink:href="#SimHei-30" transform="translate(150 0)"/>
      </g>
     </g>
    </g>
    <g id="ytick_5">
     <g id="line2d_27">
      <path d="M 56.0125 92.869976 
L 682.4125 92.869976 
" clip-path="url(#p19a053a074)" style="fill: none; stroke-dasharray: 2.22,0.96; stroke-dashoffset: 0; stroke: #b0b0b0; stroke-opacity: 0.25; stroke-width: 0.6"/>
     </g>
     <g id="line2d_28">
      <g>
       <use xlink:href="#m9bdd4433ef" x="56.0125" y="92.869976" style="stroke: #000000; stroke-width: 0.8"/>
      </g>
     </g>
     <g id="text_15">
      <!-- 1400 -->
      <g transform="translate(25.0125 96.994976) scale(0.12 -0.12)">
       <use xlink:href="#SimHei-31"/>
       <use xlink:href="#SimHei-34" transform="translate(50 0)"/>
       <use xlink:href="#SimHei-30" transform="translate(100 0)"/>
       <use xlink:href="#SimHei-30" transform="translate(150 0)"/>
      </g>
     </g>
    </g>
    <g id="ytick_6">
     <g id="line2d_29">
      <path d="M 56.0125 40.959432 
L 682.4125 40.959432 
" clip-path="url(#p19a053a074)" style="fill: none; stroke-dasharray: 2.22,0.96; stroke-dashoffset: 0; stroke: #b0b0b0; stroke-opacity: 0.25; stroke-width: 0.6"/>
     </g>
     <g id="line2d_30">
      <g>
       <use xlink:href="#m9bdd4433ef" x="56.0125" y="40.959432" style="stroke: #000000; stroke-width: 0.8"/>
      </g>
     </g>
     <g id="text_16">
      <!-- 1600 -->
      <g transform="translate(25.0125 45.084432) scale(0.12 -0.12)">
       <use xlink:href="#SimHei-31"/>
       <use xlink:href="#SimHei-36" transform="translate(50 0)"/>
       <use xlink:href="#SimHei-30" transform="translate(100 0)"/>
       <use xlink:href="#SimHei-30" transform="translate(150 0)"/>
      </g>
     </g>
    </g>
    <g id="text_17">
     <!-- Total Reward -->
     <g transform="translate(18.8875 243.1836) rotate(-90) scale(0.17 -0.17)">
      <defs>
       <path id="SimHei-54" d="M 2850 3925 
L 1850 3925 
L 1850 125 
L 1275 125 
L 1275 3925 
L 275 3925 
L 275 4400 
L 2850 4400 
L 2850 3925 
z
" transform="scale(0.015625)"/>
       <path id="SimHei-74" d="M 2750 200 
Q 2625 150 2462 112 
Q 2300 75 2025 75 
Q 1575 75 1300 325 
Q 1025 575 1025 1025 
L 1025 2525 
L 175 2525 
L 175 2925 
L 1025 2925 
L 1025 3900 
L 1525 3900 
L 1525 2925 
L 2550 2925 
L 2550 2525 
L 1525 2525 
L 1525 1000 
Q 1525 800 1625 662 
Q 1725 525 2000 525 
Q 2275 525 2450 575 
Q 2625 625 2750 700 
L 2750 200 
z
" transform="scale(0.015625)"/>
       <path id="SimHei-61" d="M 2875 125 
L 2275 125 
Q 2225 175 2200 262 
Q 2175 350 2175 475 
Q 2000 275 1750 175 
Q 1500 75 1225 75 
Q 825 75 550 275 
Q 275 475 275 850 
Q 275 1225 525 1450 
Q 775 1675 1300 1750 
Q 1650 1800 1912 1875 
Q 2175 1950 2175 2075 
Q 2175 2225 2062 2375 
Q 1950 2525 1575 2525 
Q 1275 2525 1137 2412 
Q 1000 2300 950 2100 
L 400 2100 
Q 450 2500 762 2737 
Q 1075 2975 1575 2975 
Q 2125 2975 2400 2725 
Q 2675 2475 2675 2025 
L 2675 650 
Q 2675 500 2725 375 
Q 2775 250 2875 125 
z
M 2175 1050 
L 2175 1550 
Q 2025 1500 1887 1462 
Q 1750 1425 1425 1375 
Q 1050 1325 937 1200 
Q 825 1075 825 900 
Q 825 750 937 637 
Q 1050 525 1275 525 
Q 1500 525 1762 650 
Q 2025 775 2175 1050 
z
" transform="scale(0.015625)"/>
       <path id="SimHei-6c" d="M 1825 125 
L 1325 125 
L 1325 4400 
L 1825 4400 
L 1825 125 
z
" transform="scale(0.015625)"/>
       <path id="SimHei-20" transform="scale(0.015625)"/>
       <path id="SimHei-52" d="M 3000 125 
L 2400 125 
L 1500 1975 
L 850 1975 
L 850 125 
L 275 125 
L 275 4400 
L 1525 4400 
Q 2125 4400 2500 4112 
Q 2875 3825 2875 3175 
Q 2875 2675 2625 2400 
Q 2375 2125 2050 2050 
L 3000 125 
z
M 2300 3175 
Q 2300 3525 2087 3725 
Q 1875 3925 1400 3925 
L 850 3925 
L 850 2450 
L 1550 2450 
Q 1850 2450 2075 2612 
Q 2300 2775 2300 3175 
z
" transform="scale(0.015625)"/>
       <path id="SimHei-77" d="M 3075 2925 
L 2450 75 
L 1975 75 
L 1575 2250 
L 1525 2250 
L 1125 75 
L 650 75 
L 25 2925 
L 550 2925 
L 875 1050 
L 925 1050 
L 1275 2925 
L 1825 2925 
L 2175 1050 
L 2225 1050 
L 2550 2925 
L 3075 2925 
z
" transform="scale(0.015625)"/>
       <path id="SimHei-72" d="M 2500 2425 
Q 2025 2500 1700 2287 
Q 1375 2075 1150 1550 
L 1150 125 
L 650 125 
L 650 2925 
L 1150 2925 
L 1150 2200 
Q 1375 2600 1712 2787 
Q 2050 2975 2500 2975 
L 2500 2425 
z
" transform="scale(0.015625)"/>
      </defs>
      <use xlink:href="#SimHei-54"/>
      <use xlink:href="#SimHei-6f" transform="translate(50 0)"/>
      <use xlink:href="#SimHei-74" transform="translate(100 0)"/>
      <use xlink:href="#SimHei-61" transform="translate(150 0)"/>
      <use xlink:href="#SimHei-6c" transform="translate(200 0)"/>
      <use xlink:href="#SimHei-20" transform="translate(250 0)"/>
      <use xlink:href="#SimHei-52" transform="translate(300 0)"/>
      <use xlink:href="#SimHei-65" transform="translate(350 0)"/>
      <use xlink:href="#SimHei-77" transform="translate(400 0)"/>
      <use xlink:href="#SimHei-61" transform="translate(450 0)"/>
      <use xlink:href="#SimHei-72" transform="translate(500 0)"/>
      <use xlink:href="#SimHei-64" transform="translate(550 0)"/>
     </g>
    </g>
   </g>
   <g id="line2d_31">
    <path d="M 84.485227 335.529055 
L 85.912432 333.405476 
L 87.339636 319.904876 
L 88.76684 298.752813 
L 90.194045 288.041924 
L 91.621249 279.179757 
L 93.048454 261.595516 
L 94.475658 246.727334 
L 95.902862 245.336495 
L 97.330067 239.502158 
L 98.757271 227.970051 
L 100.184475 211.860308 
L 101.61168 207.003923 
L 103.038884 207.279583 
L 104.466089 220.153052 
L 107.320497 199.317966 
L 108.747702 201.308418 
L 110.174906 196.214933 
L 111.60211 183.375547 
L 113.029315 188.316079 
L 115.883724 163.086397 
L 117.310928 162.159208 
L 118.738132 156.975875 
L 120.165337 155.127778 
L 121.592541 146.655649 
L 124.44695 131.218343 
L 125.874154 127.674064 
L 127.301359 120.539592 
L 128.728563 114.919679 
L 130.155767 111.077332 
L 131.582972 107.736141 
L 133.010176 102.824594 
L 134.43738 98.658083 
L 135.864585 93.589413 
L 137.291789 89.291113 
L 140.146198 82.118976 
L 141.573402 78.312956 
L 143.000607 74.951629 
L 144.427811 74.40737 
L 145.855015 72.775309 
L 147.28222 92.583208 
L 148.709424 88.401651 
L 150.136629 94.785146 
L 151.563833 89.613835 
L 152.991037 86.42538 
L 155.845446 81.086276 
L 157.27265 79.871777 
L 158.699855 76.008037 
L 160.127059 74.286376 
L 161.554263 74.309565 
L 162.981468 71.784295 
L 164.408672 68.914641 
L 165.835877 67.657842 
L 167.263081 72.227206 
L 168.690285 71.095322 
L 170.11749 69.307758 
L 171.544694 68.960045 
L 172.971898 65.88588 
L 174.399103 88.841723 
L 175.826307 85.272799 
L 177.253512 96.945002 
L 180.10792 92.189676 
L 181.535125 89.108613 
L 182.962329 88.331469 
L 184.389533 85.370966 
L 185.816738 89.38278 
L 187.243942 120.455442 
L 188.671147 123.101949 
L 190.098351 139.269317 
L 191.525555 140.020104 
L 192.95276 144.355496 
L 194.379964 136.510026 
L 195.807168 131.835253 
L 197.234373 133.511892 
L 198.661577 144.812276 
L 200.088782 137.872529 
L 201.515986 132.22209 
L 202.94319 144.820346 
L 204.370395 146.243528 
L 205.797599 146.510886 
L 207.224803 158.216471 
L 208.652008 152.38009 
L 210.079212 144.122118 
L 211.506417 134.839606 
L 212.933621 136.612813 
L 214.360825 162.281625 
L 215.78803 165.385436 
L 217.215234 164.633092 
L 218.642438 162.625347 
L 220.069643 167.174648 
L 221.496847 159.25549 
L 222.924052 176.870923 
L 224.351256 170.723767 
L 225.77846 167.680309 
L 228.632869 181.986889 
L 230.060073 190.75408 
L 231.487278 183.764522 
L 232.914482 191.800318 
L 234.341687 195.153713 
L 235.768891 190.846268 
L 238.6233 178.170254 
L 240.050504 180.75428 
L 241.477708 188.732635 
L 242.904913 184.379123 
L 244.332117 181.967429 
L 245.759322 192.020066 
L 247.186526 194.104638 
L 248.61373 197.129204 
L 250.040935 195.824018 
L 251.468139 204.401536 
L 252.895343 221.869598 
L 255.749752 206.635719 
L 257.176957 207.656177 
L 258.604161 200.696325 
L 260.031365 198.746157 
L 261.45857 213.410579 
L 262.885774 206.747191 
L 264.312978 205.717001 
L 265.740183 216.625163 
L 267.167387 212.125715 
L 268.594592 205.668256 
L 270.021796 204.034938 
L 271.449 195.197446 
L 272.876205 194.648773 
L 274.303409 195.927419 
L 275.730613 190.850059 
L 277.157818 189.668403 
L 278.585022 187.400836 
L 280.012227 186.206592 
L 281.439431 182.432472 
L 282.866635 182.757346 
L 284.29384 177.866768 
L 285.721044 173.989857 
L 287.148248 173.05219 
L 288.575453 165.295608 
L 290.002657 161.328485 
L 291.429862 171.776039 
L 292.857066 177.099092 
L 294.28427 171.334802 
L 295.711475 164.234333 
L 297.138679 163.901662 
L 298.565883 171.577237 
L 299.993088 173.700061 
L 301.420292 185.395704 
L 302.847497 185.54915 
L 304.274701 188.456633 
L 305.701905 187.043247 
L 307.12911 191.389042 
L 308.556314 191.423159 
L 309.983518 178.223727 
L 311.410723 183.393565 
L 312.837927 177.055459 
L 314.265132 175.726087 
L 315.692336 175.048569 
L 317.11954 180.715454 
L 318.546745 172.765118 
L 319.973949 176.301897 
L 321.401153 181.320791 
L 322.828358 180.602523 
L 324.255562 184.678268 
L 325.682767 175.614361 
L 327.109971 170.992265 
L 328.537175 172.593855 
L 329.96438 165.982558 
L 331.391584 165.423339 
L 332.818788 169.960708 
L 334.245993 177.41178 
L 335.673197 168.01962 
L 337.100402 171.239169 
L 338.527606 164.13896 
L 339.95481 162.415136 
L 341.382015 159.689335 
L 342.809219 161.471032 
L 344.236423 172.312245 
L 345.663628 187.565387 
L 347.090832 180.207308 
L 348.518037 176.345579 
L 349.945241 188.25412 
L 351.372445 187.805624 
L 352.79965 198.712289 
L 354.226854 202.349279 
L 355.654058 192.269614 
L 357.081263 190.896608 
L 358.508467 182.777587 
L 359.935672 179.903069 
L 361.362876 177.999037 
L 362.79008 171.149242 
L 364.217285 175.875698 
L 365.644489 182.192992 
L 367.071693 176.338516 
L 368.498898 181.062331 
L 369.926102 176.371474 
L 371.353307 172.659387 
L 372.780511 179.428712 
L 374.207715 176.374063 
L 375.63492 175.428057 
L 377.062124 169.082401 
L 378.489328 165.015129 
L 379.916533 169.907267 
L 381.343737 165.647468 
L 382.770942 160.496392 
L 384.198146 157.507594 
L 385.62535 156.863027 
L 387.052555 158.75069 
L 388.479759 164.525087 
L 389.906963 158.295451 
L 391.334168 168.127377 
L 392.761372 168.764162 
L 394.188577 166.307752 
L 395.615781 168.129073 
L 397.042985 164.938716 
L 398.47019 168.438667 
L 399.897394 173.738216 
L 401.324598 170.872371 
L 402.751803 164.791906 
L 404.179007 164.569377 
L 405.606212 160.429443 
L 407.033416 157.001855 
L 408.46062 168.241983 
L 409.887825 168.257024 
L 411.315029 173.535579 
L 412.742233 164.780537 
L 414.169438 162.767353 
L 415.596642 171.687226 
L 418.451051 184.569012 
L 419.878255 187.193275 
L 421.30546 185.399423 
L 422.732664 190.911907 
L 424.159868 193.195935 
L 425.587073 190.436012 
L 427.014277 195.34484 
L 428.441482 191.158094 
L 429.868686 188.198008 
L 431.29589 185.868883 
L 432.723095 184.938295 
L 434.150299 180.3921 
L 435.577503 171.992254 
L 437.004708 180.217332 
L 438.431912 186.162295 
L 439.859117 190.037509 
L 441.286321 186.820732 
L 442.713525 178.314058 
L 444.14073 172.549108 
L 445.567934 170.047285 
L 446.995138 171.871065 
L 448.422343 175.290006 
L 449.849547 174.82884 
L 451.276752 177.591718 
L 452.703956 176.208499 
L 454.13116 171.293941 
L 455.558365 162.758049 
L 456.985569 165.539813 
L 458.412773 165.754119 
L 461.267182 177.052143 
L 462.694387 177.713017 
L 464.121591 171.682357 
L 465.548795 173.155201 
L 466.976 175.768702 
L 468.403204 168.357403 
L 469.830408 167.306343 
L 471.257613 174.457554 
L 472.684817 164.662925 
L 474.112022 167.525583 
L 475.539226 173.667728 
L 476.96643 166.375669 
L 478.393635 165.993887 
L 479.820839 164.708237 
L 481.248043 176.587638 
L 482.675248 169.577423 
L 484.102452 171.541258 
L 485.529657 164.14278 
L 486.956861 157.958264 
L 488.384065 158.581446 
L 489.81127 155.057842 
L 491.238474 163.557505 
L 492.665678 170.760479 
L 494.092883 180.937868 
L 495.520087 175.337288 
L 496.947292 171.781932 
L 498.374496 169.387924 
L 499.8017 171.085214 
L 501.228905 177.384078 
L 502.656109 172.881168 
L 504.083313 172.289122 
L 505.510518 165.507152 
L 506.937722 176.751133 
L 508.364927 171.474272 
L 509.792131 172.49182 
L 511.219335 165.561204 
L 512.64654 171.224449 
L 514.073744 172.077512 
L 515.500948 173.624165 
L 516.928153 180.549108 
L 518.355357 175.454247 
L 519.782562 176.33559 
L 522.63697 169.453439 
L 524.064175 171.998067 
L 525.491379 169.663541 
L 526.918583 177.930731 
L 528.345788 168.636054 
L 529.772992 172.439352 
L 531.200197 181.344887 
L 532.627401 177.408424 
L 534.054605 183.715931 
L 535.48181 178.263391 
L 536.909014 178.4143 
L 538.336218 175.46971 
L 539.763423 170.602036 
L 541.190627 164.989976 
L 542.617832 169.254166 
L 544.045036 162.919713 
L 545.47224 160.116495 
L 546.899445 161.526565 
L 548.326649 161.622277 
L 549.753853 160.979494 
L 551.181058 165.689884 
L 552.608262 166.22816 
L 554.035467 172.007494 
L 555.462671 168.437017 
L 556.889875 169.702483 
L 558.31708 167.218928 
L 559.744284 162.767792 
L 561.171488 161.516121 
L 562.598693 156.919949 
L 564.025897 156.231151 
L 565.453102 149.322929 
L 566.880306 147.888944 
L 568.30751 141.217327 
L 569.734715 136.157621 
L 571.161919 140.156877 
L 572.589123 139.895526 
L 574.016328 139.026732 
L 575.443532 136.423636 
L 576.870737 138.061682 
L 578.297941 137.141545 
L 579.725145 134.265835 
L 581.15235 130.165886 
L 582.579554 129.887245 
L 584.006758 127.869481 
L 585.433963 128.08509 
L 586.861167 133.110232 
L 588.288371 144.572218 
L 589.715576 140.666713 
L 591.14278 146.917099 
L 592.569985 145.839882 
L 593.997189 148.357452 
L 595.424393 154.595557 
L 596.851598 156.614665 
L 599.706006 159.299615 
L 601.133211 154.111949 
L 602.560415 155.645132 
L 603.98762 156.736207 
L 605.414824 171.995434 
L 608.269233 154.831704 
L 609.696437 150.524859 
L 611.123641 152.107515 
L 612.550846 151.259283 
L 613.97805 152.800114 
L 615.405255 151.180317 
L 616.832459 153.841081 
L 618.259663 155.038555 
L 619.686868 159.069371 
L 621.114072 158.172716 
L 622.541276 159.32391 
L 623.968481 164.734117 
L 625.395685 161.269501 
L 626.82289 158.434467 
L 628.250094 168.024074 
L 629.677298 169.483328 
L 631.104503 162.428033 
L 632.531707 168.393495 
L 633.958911 165.734906 
L 635.386116 167.947111 
L 636.81332 166.355933 
L 638.240525 171.187599 
L 639.667729 182.416821 
L 641.094933 176.859335 
L 642.522138 180.657947 
L 643.949342 175.381529 
L 645.376546 171.208332 
L 646.803751 168.13919 
L 648.230955 164.56746 
L 649.65816 167.273835 
L 651.085364 172.092094 
L 653.939773 183.444335 
L 653.939773 183.444335 
" clip-path="url(#p19a053a074)" style="fill: none; stroke: #1f77b4; stroke-width: 1.2; stroke-linecap: square"/>
   </g>
   <g id="line2d_32">
    <path d="M 84.485227 201.824619 
L 85.912432 203.636875 
L 87.339636 205.213079 
L 90.194045 215.269705 
L 91.621249 221.158068 
L 93.048454 223.891285 
L 94.475658 225.694952 
L 95.902862 227.857002 
L 97.330067 235.832812 
L 98.757271 237.96869 
L 100.184475 233.063193 
L 101.61168 235.396232 
L 103.038884 238.780356 
L 104.466089 231.988339 
L 105.893293 226.333805 
L 107.320497 227.75369 
L 108.747702 229.853203 
L 110.174906 227.47369 
L 111.60211 221.912078 
L 113.029315 217.631639 
L 114.456519 214.658368 
L 115.883724 215.512304 
L 117.310928 217.096883 
L 118.738132 208.018266 
L 120.165337 211.251411 
L 121.592541 214.795401 
L 123.019745 213.572224 
L 125.874154 213.424422 
L 127.301359 210.504263 
L 128.728563 210.9768 
L 130.155767 212.676984 
L 131.582972 211.008098 
L 133.010176 210.008369 
L 134.43738 218.003146 
L 135.864585 214.426637 
L 137.291789 216.61821 
L 138.718994 214.218091 
L 140.146198 214.01918 
L 141.573402 210.520979 
L 143.000607 206.568706 
L 144.427811 208.666816 
L 145.855015 205.718208 
L 147.28222 203.121954 
L 148.709424 205.60718 
L 150.136629 201.937331 
L 151.563833 190.892114 
L 152.991037 188.220354 
L 154.418242 191.508266 
L 155.845446 189.676758 
L 157.27265 187.243607 
L 158.699855 186.065836 
L 160.127059 185.57571 
L 161.554263 189.916564 
L 162.981468 188.078954 
L 164.408672 190.590318 
L 165.835877 188.905881 
L 167.263081 186.489109 
L 168.690285 188.761875 
L 170.11749 189.00409 
L 171.544694 186.294776 
L 172.971898 180.892118 
L 174.399103 178.846544 
L 175.826307 182.05638 
L 177.253512 182.549578 
L 178.680716 176.149427 
L 180.10792 173.1125 
L 181.535125 172.272349 
L 182.962329 167.772755 
L 184.389533 164.777516 
L 185.816738 160.894904 
L 187.243942 163.271358 
L 188.671147 163.416556 
L 190.098351 160.371739 
L 191.525555 159.997958 
L 192.95276 160.873555 
L 194.379964 166.027584 
L 195.807168 164.030862 
L 197.234373 158.130792 
L 198.661577 153.137137 
L 200.088782 155.222969 
L 201.515986 155.473802 
L 202.94319 154.324573 
L 204.370395 155.906542 
L 205.797599 152.359997 
L 207.224803 153.110121 
L 210.079212 151.654554 
L 211.506417 148.071864 
L 212.933621 147.008159 
L 214.360825 147.348209 
L 215.78803 142.738395 
L 217.215234 138.977737 
L 218.642438 137.997882 
L 220.069643 138.718449 
L 221.496847 142.321748 
L 222.924052 141.192306 
L 224.351256 144.602939 
L 225.77846 142.592802 
L 227.205665 136.796361 
L 228.632869 135.095966 
L 230.060073 130.036191 
L 231.487278 127.489017 
L 232.914482 125.692526 
L 234.341687 125.909401 
L 235.768891 123.1553 
L 237.196095 124.75378 
L 238.6233 121.803688 
L 240.050504 118.322888 
L 241.477708 118.206408 
L 242.904913 114.27837 
L 244.332117 110.020662 
L 245.759322 105.331074 
L 247.186526 107.034604 
L 248.61373 115.687207 
L 250.040935 113.863778 
L 251.468139 116.547451 
L 252.895343 116.956525 
L 254.322548 116.219948 
L 255.749752 113.32903 
L 257.176957 110.084548 
L 258.604161 112.130218 
L 260.031365 108.214821 
L 261.45857 107.290529 
L 262.885774 107.815333 
L 264.312978 106.558353 
L 265.740183 104.296311 
L 267.167387 103.833789 
L 268.594592 102.285415 
L 270.021796 98.831812 
L 271.449 102.701293 
L 274.303409 96.892471 
L 275.730613 97.793882 
L 277.157818 102.974417 
L 278.585022 101.429208 
L 280.012227 101.023187 
L 281.439431 103.023093 
L 282.866635 105.392856 
L 284.29384 101.807935 
L 285.721044 97.672595 
L 287.148248 94.891092 
L 288.575453 96.220222 
L 290.002657 94.763392 
L 291.429862 92.73761 
L 292.857066 93.507338 
L 294.28427 92.262398 
L 295.711475 92.966551 
L 297.138679 95.973349 
L 298.565883 97.052097 
L 299.993088 95.530136 
L 301.420292 97.069233 
L 302.847497 95.192191 
L 304.274701 96.924078 
L 305.701905 97.095035 
L 307.12911 95.437476 
L 308.556314 93.547539 
L 309.983518 96.532155 
L 311.410723 95.480462 
L 312.837927 92.896643 
L 314.265132 93.511979 
L 315.692336 95.885914 
L 317.11954 97.014956 
L 318.546745 97.311504 
L 319.973949 98.987481 
L 321.401153 96.560252 
L 322.828358 92.016363 
L 324.255562 92.763226 
L 325.682767 90.921464 
L 327.109971 87.8651 
L 328.537175 89.510425 
L 329.96438 88.836418 
L 331.391584 89.222394 
L 332.818788 88.535245 
L 334.245993 88.515812 
L 337.100402 90.640665 
L 338.527606 92.148754 
L 339.95481 92.184801 
L 341.382015 88.433046 
L 342.809219 86.191618 
L 344.236423 85.117748 
L 345.663628 85.871473 
L 347.090832 84.643274 
L 348.518037 83.033921 
L 349.945241 77.871347 
L 351.372445 77.780826 
L 352.79965 75.875979 
L 354.226854 73.234021 
L 355.654058 72.176239 
L 357.081263 72.925237 
L 358.508467 73.369621 
L 359.935672 72.242036 
L 361.362876 73.736191 
L 362.79008 76.175921 
L 364.217285 76.963986 
L 365.644489 76.199142 
L 367.071693 76.532391 
L 368.498898 76.294831 
L 369.926102 76.304313 
L 371.353307 71.955584 
L 372.780511 72.475316 
L 374.207715 70.825994 
L 375.63492 70.830841 
L 377.062124 72.538993 
L 378.489328 72.217946 
L 379.916533 73.757352 
L 381.343737 72.521544 
L 382.770942 72.014456 
L 384.198146 71.104756 
L 385.62535 71.391136 
L 387.052555 75.900134 
L 388.479759 75.904314 
L 389.906963 73.532378 
L 391.334168 72.96905 
L 392.761372 73.178865 
L 394.188577 73.186282 
L 395.615781 73.440235 
L 398.47019 69.856583 
L 399.897394 69.961358 
L 401.324598 69.446915 
L 402.751803 71.436767 
L 404.179007 70.145715 
L 405.606212 66.197814 
L 407.033416 66.729554 
L 408.46062 66.577787 
L 409.887825 67.839362 
L 411.315029 69.995727 
L 412.742233 71.620767 
L 414.169438 68.484228 
L 415.596642 71.856703 
L 417.023847 70.191076 
L 418.451051 70.579547 
L 419.878255 72.111125 
L 421.30546 71.019757 
L 422.732664 70.77181 
L 424.159868 70.190632 
L 425.587073 69.863054 
L 427.014277 68.885974 
L 428.441482 69.613149 
L 429.868686 69.572835 
L 431.29589 67.757287 
L 432.723095 65.592465 
L 434.150299 66.65123 
L 435.577503 67.277124 
L 437.004708 64.73227 
L 438.431912 65.656231 
L 439.859117 65.542778 
L 441.286321 67.628749 
L 442.713525 68.1489 
L 444.14073 67.008333 
L 445.567934 64.386372 
L 446.995138 60.937857 
L 448.422343 61.348192 
L 449.849547 64.042327 
L 451.276752 63.240428 
L 452.703956 65.722285 
L 454.13116 64.252437 
L 455.558365 67.694898 
L 456.985569 70.416566 
L 458.412773 69.837405 
L 459.839978 70.93712 
L 461.267182 70.229312 
L 462.694387 68.409042 
L 464.121591 67.825035 
L 465.548795 66.073801 
L 466.976 67.33892 
L 468.403204 70.5275 
L 469.830408 72.362295 
L 472.684817 69.626115 
L 474.112022 69.274872 
L 476.96643 68.05711 
L 479.820839 68.105933 
L 481.248043 65.995368 
L 482.675248 67.901098 
L 484.102452 66.486527 
L 485.529657 66.221655 
L 486.956861 65.825203 
L 488.384065 66.981102 
L 489.81127 65.782621 
L 491.238474 65.703851 
L 492.665678 66.314843 
L 494.092883 65.803144 
L 495.520087 66.691612 
L 496.947292 65.953066 
L 498.374496 64.558963 
L 499.8017 65.221873 
L 501.228905 64.735884 
L 502.656109 63.727339 
L 504.083313 63.915588 
L 506.937722 63.714711 
L 508.364927 63.26025 
L 509.792131 64.514373 
L 511.219335 63.378514 
L 512.64654 65.615637 
L 514.073744 65.511274 
L 515.500948 63.467083 
L 516.928153 61.837254 
L 518.355357 62.412655 
L 519.782562 62.841554 
L 521.209766 63.742458 
L 522.63697 63.900485 
L 524.064175 63.873437 
L 525.491379 62.763854 
L 526.918583 62.484512 
L 528.345788 60.972323 
L 529.772992 60.778144 
L 531.200197 61.630502 
L 532.627401 61.929074 
L 534.054605 62.68763 
L 535.48181 62.482887 
L 536.909014 61.430279 
L 538.336218 60.853643 
L 539.763423 62.413156 
L 541.190627 61.712456 
L 542.617832 64.601873 
L 544.045036 65.267751 
L 545.47224 63.017333 
L 546.899445 61.783839 
L 548.326649 62.405364 
L 549.753853 60.053782 
L 551.181058 61.083249 
L 552.608262 60.892122 
L 554.035467 63.666861 
L 555.462671 65.950432 
L 556.889875 63.966099 
L 558.31708 63.637615 
L 559.744284 62.769715 
L 561.171488 60.263993 
L 562.598693 59.171393 
L 564.025897 57.000659 
L 565.453102 57.830488 
L 566.880306 57.124146 
L 568.30751 55.970034 
L 569.734715 56.971804 
L 572.589123 56.424708 
L 575.443532 57.639316 
L 576.870737 56.713219 
L 578.297941 55.383449 
L 579.725145 56.34845 
L 581.15235 55.836287 
L 582.579554 58.172473 
L 584.006758 61.554074 
L 585.433963 62.46994 
L 586.861167 60.919356 
L 588.288371 60.976088 
L 589.715576 60.824938 
L 591.14278 61.360401 
L 592.569985 61.199631 
L 593.997189 59.89925 
L 595.424393 59.380239 
L 596.851598 59.517539 
L 598.278802 60.886346 
L 599.706006 62.534237 
L 601.133211 61.888211 
L 602.560415 60.415786 
L 603.98762 60.7505 
L 605.414824 59.789082 
L 606.842028 59.893411 
L 608.269233 59.285461 
L 611.123641 58.542886 
L 612.550846 59.336048 
L 613.97805 59.561466 
L 615.405255 61.089917 
L 616.832459 62.370323 
L 618.259663 60.386575 
L 619.686868 59.150515 
L 622.541276 63.216145 
L 623.968481 61.372238 
L 625.395685 60.121075 
L 626.82289 58.329696 
L 628.250094 56.911062 
L 629.677298 58.655151 
L 631.104503 59.392498 
L 632.531707 59.419987 
L 633.958911 59.132363 
L 635.386116 59.618152 
L 636.81332 58.896941 
L 638.240525 59.41715 
L 639.667729 58.537657 
L 641.094933 58.044556 
L 642.522138 58.60726 
L 645.376546 58.87246 
L 646.803751 56.503684 
L 648.230955 56.24621 
L 649.65816 57.425784 
L 651.085364 57.09504 
L 652.512568 54.925047 
L 653.939773 55.912483 
L 653.939773 55.912483 
" clip-path="url(#p19a053a074)" style="fill: none; stroke: #ff7f0e; stroke-width: 1.2; stroke-linecap: square"/>
   </g>
   <g id="line2d_33">
    <path d="M 84.485227 247.413487 
L 85.912432 242.157688 
L 87.339636 241.213362 
L 88.76684 241.790309 
L 90.194045 236.925091 
L 91.621249 230.759648 
L 93.048454 233.046306 
L 94.475658 229.749959 
L 95.902862 230.724289 
L 98.757271 229.518715 
L 100.184475 225.201433 
L 101.61168 222.978447 
L 103.038884 225.2476 
L 104.466089 226.132905 
L 105.893293 226.052 
L 107.320497 231.756184 
L 108.747702 234.030371 
L 110.174906 241.201663 
L 111.60211 250.335965 
L 113.029315 245.653239 
L 114.456519 247.515072 
L 115.883724 241.318792 
L 117.310928 233.775404 
L 118.738132 224.036701 
L 120.165337 220.944598 
L 121.592541 210.505876 
L 124.44695 184.876609 
L 125.874154 174.487561 
L 127.301359 162.629828 
L 128.728563 153.284107 
L 130.155767 146.536433 
L 131.582972 142.418441 
L 133.010176 136.974773 
L 134.43738 139.73936 
L 135.864585 144.220937 
L 137.291789 151.518122 
L 138.718994 150.848581 
L 140.146198 148.204211 
L 141.573402 146.388667 
L 143.000607 147.977014 
L 144.427811 151.740877 
L 145.855015 151.630848 
L 147.28222 157.616045 
L 148.709424 155.598855 
L 150.136629 151.920604 
L 151.563833 151.68868 
L 152.991037 154.670457 
L 154.418242 151.103513 
L 155.845446 150.197379 
L 157.27265 158.297895 
L 158.699855 162.671719 
L 160.127059 168.949561 
L 161.554263 169.358526 
L 162.981468 173.264494 
L 164.408672 179.252603 
L 165.835877 178.792875 
L 167.263081 177.349537 
L 168.690285 171.875135 
L 170.11749 172.369414 
L 171.544694 168.445761 
L 172.971898 162.127619 
L 174.399103 159.204101 
L 175.826307 159.300375 
L 177.253512 157.557058 
L 178.680716 158.454959 
L 180.10792 156.93842 
L 181.535125 156.194476 
L 182.962329 154.835275 
L 184.389533 153.746427 
L 185.816738 152.907172 
L 187.243942 149.621744 
L 188.671147 142.208108 
L 190.098351 133.770276 
L 191.525555 127.840509 
L 192.95276 118.591094 
L 195.807168 102.681779 
L 197.234373 97.741454 
L 198.661577 92.175834 
L 200.088782 90.099538 
L 204.370395 79.644844 
L 205.797599 77.033487 
L 208.652008 72.717903 
L 210.079212 70.580819 
L 211.506417 70.664308 
L 212.933621 68.341026 
L 214.360825 68.174711 
L 215.78803 65.032627 
L 217.215234 64.920867 
L 218.642438 62.724306 
L 220.069643 61.960084 
L 221.496847 60.369253 
L 222.924052 57.982052 
L 224.351256 56.665155 
L 225.77846 56.343452 
L 227.205665 56.984949 
L 228.632869 57.102581 
L 230.060073 55.273536 
L 231.487278 53.781644 
L 232.914482 54.656054 
L 234.341687 52.514111 
L 235.768891 51.258611 
L 237.196095 52.165438 
L 238.6233 50.472273 
L 240.050504 50.771361 
L 241.477708 52.362325 
L 242.904913 54.594146 
L 244.332117 53.094765 
L 245.759322 53.114809 
L 247.186526 55.092863 
L 248.61373 53.303049 
L 250.040935 52.49247 
L 251.468139 52.421701 
L 254.322548 52.613727 
L 255.749752 51.831088 
L 257.176957 52.285772 
L 258.604161 53.641148 
L 260.031365 55.359721 
L 264.312978 57.686448 
L 265.740183 57.538443 
L 267.167387 57.556654 
L 268.594592 56.986586 
L 270.021796 56.014809 
L 271.449 54.496933 
L 272.876205 54.866145 
L 274.303409 56.133177 
L 275.730613 55.621704 
L 277.157818 53.81245 
L 278.585022 52.694672 
L 280.012227 53.45614 
L 281.439431 52.756413 
L 282.866635 53.660321 
L 284.29384 53.80173 
L 285.721044 55.479545 
L 287.148248 55.469893 
L 288.575453 57.351324 
L 290.002657 57.195609 
L 291.429862 55.669577 
L 292.857066 56.07975 
L 294.28427 54.804894 
L 295.711475 55.108408 
L 297.138679 56.084948 
L 298.565883 55.814597 
L 299.993088 55.851078 
L 301.420292 53.430751 
L 302.847497 52.391703 
L 304.274701 52.331864 
L 305.701905 54.151595 
L 308.556314 54.909914 
L 309.983518 56.320912 
L 311.410723 55.563245 
L 312.837927 55.787093 
L 314.265132 54.684166 
L 315.692336 55.219407 
L 317.11954 56.955379 
L 318.546745 55.74545 
L 319.973949 55.178463 
L 321.401153 57.538364 
L 322.828358 55.590749 
L 324.255562 54.274453 
L 325.682767 55.809634 
L 327.109971 56.416361 
L 328.537175 57.898638 
L 329.96438 58.238489 
L 331.391584 55.796507 
L 332.818788 56.824938 
L 334.245993 56.38416 
L 335.673197 57.174003 
L 337.100402 56.868829 
L 338.527606 55.295962 
L 339.95481 54.4859 
L 341.382015 53.465199 
L 342.809219 55.330287 
L 344.236423 56.597124 
L 345.663628 57.296201 
L 347.090832 55.212941 
L 348.518037 55.840331 
L 349.945241 56.161834 
L 351.372445 57.536765 
L 352.79965 58.442626 
L 355.654058 59.112101 
L 357.081263 59.842688 
L 358.508467 59.934972 
L 362.79008 54.474203 
L 364.217285 56.933529 
L 365.644489 56.011258 
L 367.071693 57.076445 
L 368.498898 54.665113 
L 369.926102 54.711686 
L 371.353307 53.926567 
L 372.780511 52.825953 
L 374.207715 51.90415 
L 375.63492 52.424801 
L 377.062124 53.407786 
L 378.489328 54.952692 
L 379.916533 55.627713 
L 381.343737 56.60882 
L 382.770942 56.478144 
L 384.198146 55.050308 
L 385.62535 55.488298 
L 387.052555 57.44219 
L 388.479759 56.85316 
L 389.906963 58.7667 
L 391.334168 58.494088 
L 392.761372 57.949183 
L 394.188577 58.032027 
L 395.615781 59.901953 
L 397.042985 57.145723 
L 398.47019 54.967667 
L 399.897394 54.417938 
L 402.751803 51.756775 
L 404.179007 51.524817 
L 405.606212 51.58014 
L 407.033416 53.400297 
L 408.46062 54.797982 
L 409.887825 53.823627 
L 411.315029 54.387239 
L 412.742233 55.71075 
L 414.169438 55.197243 
L 417.023847 52.156837 
L 418.451051 51.755822 
L 419.878255 51.146793 
L 421.30546 51.501996 
L 422.732664 49.996736 
L 424.159868 48.838145 
L 425.587073 50.068697 
L 427.014277 53.320462 
L 428.441482 53.950815 
L 429.868686 53.797191 
L 431.29589 54.891953 
L 432.723095 56.229587 
L 434.150299 54.508705 
L 435.577503 54.970487 
L 437.004708 54.964344 
L 438.431912 54.336223 
L 439.859117 53.023341 
L 441.286321 53.650096 
L 442.713525 52.07779 
L 444.14073 53.384657 
L 445.567934 51.73587 
L 446.995138 52.325312 
L 448.422343 53.045035 
L 449.849547 54.205675 
L 451.276752 55.019322 
L 452.703956 55.522267 
L 455.558365 57.177842 
L 456.985569 56.366991 
L 458.412773 55.242384 
L 459.839978 55.700567 
L 461.267182 55.681288 
L 462.694387 56.12593 
L 464.121591 56.76562 
L 465.548795 56.970902 
L 466.976 59.199981 
L 468.403204 58.303511 
L 469.830408 59.333258 
L 472.684817 60.083059 
L 474.112022 60.96886 
L 475.539226 60.731063 
L 476.96643 60.613753 
L 478.393635 60.997424 
L 479.820839 60.386576 
L 482.675248 57.70191 
L 484.102452 59.76683 
L 485.529657 60.569969 
L 486.956861 60.600117 
L 488.384065 58.89043 
L 489.81127 60.061582 
L 491.238474 59.872127 
L 492.665678 58.514412 
L 494.092883 58.597589 
L 495.520087 57.838197 
L 496.947292 57.717187 
L 498.374496 56.976286 
L 499.8017 56.972382 
L 502.656109 54.419016 
L 504.083313 52.48093 
L 505.510518 51.706103 
L 506.937722 51.07513 
L 508.364927 51.23732 
L 509.792131 52.730178 
L 511.219335 52.570011 
L 512.64654 53.340289 
L 514.073744 52.663505 
L 515.500948 54.13753 
L 516.928153 55.355185 
L 518.355357 53.162383 
L 519.782562 53.197781 
L 521.209766 54.031828 
L 522.63697 53.427435 
L 524.064175 55.31799 
L 525.491379 54.260432 
L 526.918583 53.993116 
L 528.345788 55.440829 
L 529.772992 56.444505 
L 531.200197 58.112844 
L 532.627401 58.391149 
L 535.48181 59.273357 
L 536.909014 57.155701 
L 538.336218 58.659163 
L 539.763423 59.077179 
L 541.190627 55.723023 
L 542.617832 56.048925 
L 544.045036 57.189044 
L 545.47224 56.256397 
L 546.899445 56.52112 
L 548.326649 57.459482 
L 549.753853 56.40192 
L 551.181058 58.035862 
L 552.608262 59.335372 
L 554.035467 58.488363 
L 555.462671 58.156089 
L 556.889875 57.44991 
L 558.31708 56.58748 
L 559.744284 56.552389 
L 561.171488 55.239557 
L 562.598693 56.155687 
L 564.025897 56.816424 
L 565.453102 54.714093 
L 566.880306 56.175054 
L 568.30751 56.040636 
L 569.734715 54.70915 
L 571.161919 57.164454 
L 572.589123 59.298984 
L 574.016328 59.38842 
L 575.443532 59.884803 
L 576.870737 60.503944 
L 578.297941 60.032403 
L 579.725145 60.959882 
L 581.15235 58.66221 
L 582.579554 59.310439 
L 584.006758 58.427222 
L 585.433963 59.760975 
L 586.861167 60.343611 
L 589.715576 56.016644 
L 591.14278 57.597123 
L 592.569985 57.507358 
L 593.997189 56.898593 
L 595.424393 56.115109 
L 596.851598 55.917812 
L 598.278802 56.354488 
L 599.706006 58.880778 
L 601.133211 58.851094 
L 603.98762 55.571731 
L 605.414824 54.345522 
L 606.842028 53.981825 
L 608.269233 54.116571 
L 609.696437 53.251256 
L 613.97805 55.39772 
L 615.405255 55.021625 
L 616.832459 56.104317 
L 618.259663 56.801175 
L 619.686868 56.125753 
L 621.114072 55.072533 
L 622.541276 54.291402 
L 623.968481 55.336543 
L 625.395685 56.883411 
L 628.250094 58.734139 
L 629.677298 57.705663 
L 631.104503 55.841838 
L 632.531707 53.724161 
L 633.958911 54.334742 
L 635.386116 53.957105 
L 636.81332 53.790049 
L 638.240525 55.709687 
L 642.522138 55.974886 
L 643.949342 54.862945 
L 645.376546 54.526981 
L 646.803751 54.824052 
L 648.230955 55.712142 
L 649.65816 54.54416 
L 651.085364 54.240105 
L 652.512568 54.920078 
L 653.939773 53.22459 
L 653.939773 53.22459 
" clip-path="url(#p19a053a074)" style="fill: none; stroke: #2ca02c; stroke-width: 1.2; stroke-linecap: square"/>
   </g>
   <g id="line2d_34">
    <path d="M 84.485227 221.948362 
L 85.912432 232.867678 
L 87.339636 237.964146 
L 88.76684 246.419936 
L 90.194045 244.395636 
L 91.621249 242.012624 
L 93.048454 242.202557 
L 94.475658 255.246692 
L 95.902862 259.716304 
L 97.330067 266.051779 
L 98.757271 266.595987 
L 100.184475 266.66381 
L 101.61168 272.510254 
L 103.038884 271.17176 
L 104.466089 270.646113 
L 105.893293 263.973441 
L 107.320497 262.824535 
L 108.747702 272.571109 
L 110.174906 270.495351 
L 111.60211 271.623111 
L 113.029315 264.578635 
L 114.456519 270.59162 
L 115.883724 271.19653 
L 117.310928 274.196295 
L 118.738132 270.766781 
L 120.165337 273.474541 
L 121.592541 273.346943 
L 123.019745 266.051474 
L 124.44695 271.650672 
L 125.874154 263.916568 
L 127.301359 263.971935 
L 128.728563 262.822036 
L 130.155767 268.852343 
L 131.582972 285.257124 
L 133.010176 281.421845 
L 137.291789 222.562348 
L 138.718994 205.326098 
L 140.146198 190.491467 
L 141.573402 178.090065 
L 143.000607 168.453345 
L 144.427811 155.733062 
L 147.28222 137.537547 
L 148.709424 131.407168 
L 150.136629 121.025291 
L 151.563833 115.912426 
L 152.991037 109.738729 
L 154.418242 105.446339 
L 158.699855 94.671493 
L 160.127059 89.286483 
L 161.554263 85.213331 
L 162.981468 82.707019 
L 164.408672 79.430416 
L 165.835877 77.482437 
L 167.263081 77.241299 
L 168.690285 75.844235 
L 170.11749 72.81364 
L 171.544694 71.214446 
L 172.971898 67.905149 
L 174.399103 65.604498 
L 175.826307 65.132939 
L 177.253512 65.116116 
L 178.680716 64.54649 
L 180.10792 62.148602 
L 181.535125 59.480403 
L 182.962329 58.538496 
L 184.389533 59.32115 
L 185.816738 59.460453 
L 187.243942 59.225992 
L 188.671147 59.473279 
L 191.525555 59.648562 
L 192.95276 59.567478 
L 194.379964 59.321902 
L 195.807168 60.094433 
L 197.234373 60.266711 
L 198.661577 58.814866 
L 200.088782 60.115534 
L 202.94319 60.596542 
L 204.370395 58.724109 
L 207.224803 58.021407 
L 208.652008 59.610294 
L 210.079212 57.764521 
L 211.506417 59.160825 
L 214.360825 58.044348 
L 215.78803 59.101869 
L 217.215234 59.327132 
L 218.642438 59.677412 
L 220.069643 59.55652 
L 221.496847 58.183479 
L 222.924052 57.50654 
L 224.351256 58.429646 
L 227.205665 56.610457 
L 228.632869 57.91839 
L 230.060073 57.125015 
L 231.487278 55.441358 
L 232.914482 55.567628 
L 234.341687 56.246839 
L 235.768891 55.810098 
L 237.196095 55.726769 
L 238.6233 57.563455 
L 240.050504 56.642714 
L 241.477708 55.434274 
L 244.332117 57.794603 
L 245.759322 57.870503 
L 247.186526 56.712102 
L 248.61373 54.30347 
L 250.040935 54.690409 
L 251.468139 59.446377 
L 252.895343 62.655789 
L 254.322548 61.971904 
L 255.749752 60.594389 
L 257.176957 59.56415 
L 258.604161 57.778669 
L 260.031365 57.063647 
L 261.45857 56.851265 
L 262.885774 59.790583 
L 264.312978 57.915316 
L 265.740183 57.817066 
L 267.167387 58.533863 
L 268.594592 58.14354 
L 270.021796 57.564571 
L 271.449 57.35494 
L 272.876205 57.519985 
L 274.303409 58.402774 
L 275.730613 58.106185 
L 277.157818 57.407445 
L 278.585022 57.436337 
L 280.012227 60.875704 
L 281.439431 63.56572 
L 282.866635 63.135031 
L 284.29384 61.538365 
L 285.721044 61.43832 
L 287.148248 60.551622 
L 288.575453 61.061377 
L 292.857066 56.304994 
L 294.28427 56.496457 
L 295.711475 57.679452 
L 297.138679 56.526642 
L 298.565883 57.259381 
L 299.993088 56.612968 
L 301.420292 54.773974 
L 304.274701 53.049325 
L 305.701905 53.152595 
L 307.12911 53.062955 
L 309.983518 54.843109 
L 311.410723 56.985702 
L 312.837927 56.425572 
L 314.265132 57.571694 
L 315.692336 58.069644 
L 317.11954 60.089518 
L 318.546745 60.000156 
L 319.973949 61.459142 
L 321.401153 58.054318 
L 322.828358 57.176303 
L 324.255562 55.448964 
L 325.682767 55.63441 
L 327.109971 56.484032 
L 328.537175 57.519744 
L 329.96438 56.695867 
L 331.391584 55.501051 
L 334.245993 55.910098 
L 335.673197 55.326499 
L 337.100402 57.043167 
L 338.527606 53.646898 
L 339.95481 52.234496 
L 341.382015 53.900044 
L 342.809219 55.125895 
L 344.236423 55.366551 
L 345.663628 56.72639 
L 348.518037 56.654869 
L 349.945241 58.262781 
L 351.372445 57.760974 
L 352.79965 56.779391 
L 354.226854 57.22375 
L 355.654058 56.818507 
L 358.508467 54.684894 
L 359.935672 54.415013 
L 361.362876 54.42873 
L 362.79008 55.752984 
L 364.217285 58.806191 
L 365.644489 56.170124 
L 367.071693 54.394185 
L 368.498898 53.305077 
L 369.926102 54.260716 
L 371.353307 53.16024 
L 374.207715 55.570956 
L 375.63492 55.159618 
L 377.062124 54.0378 
L 378.489328 54.772001 
L 379.916533 54.456889 
L 382.770942 54.160981 
L 384.198146 54.189304 
L 385.62535 55.628709 
L 387.052555 54.059846 
L 388.479759 56.37381 
L 391.334168 57.518643 
L 392.761372 56.479933 
L 394.188577 57.241064 
L 395.615781 56.868285 
L 397.042985 57.102527 
L 398.47019 57.466125 
L 399.897394 55.352972 
L 401.324598 55.473676 
L 402.751803 56.262224 
L 404.179007 56.178522 
L 405.606212 57.081607 
L 407.033416 58.154454 
L 408.46062 56.513792 
L 409.887825 57.327381 
L 411.315029 57.05699 
L 412.742233 56.273868 
L 414.169438 55.991918 
L 415.596642 57.219607 
L 417.023847 53.812086 
L 418.451051 54.930697 
L 419.878255 56.881132 
L 421.30546 58.215774 
L 422.732664 58.992932 
L 424.159868 58.691335 
L 425.587073 58.836375 
L 428.441482 58.050935 
L 429.868686 58.384586 
L 431.29589 59.900718 
L 432.723095 58.374821 
L 434.150299 59.878575 
L 435.577503 59.749815 
L 437.004708 59.433509 
L 438.431912 61.978521 
L 439.859117 61.251965 
L 441.286321 63.660313 
L 442.713525 60.40262 
L 444.14073 58.150151 
L 445.567934 58.267284 
L 446.995138 60.391288 
L 448.422343 60.619349 
L 449.849547 59.265031 
L 452.703956 60.666939 
L 454.13116 58.974044 
L 455.558365 59.34438 
L 456.985569 56.31103 
L 458.412773 56.928868 
L 459.839978 58.068595 
L 461.267182 60.175998 
L 462.694387 58.61891 
L 464.121591 57.269818 
L 465.548795 56.581469 
L 466.976 58.082523 
L 468.403204 58.7856 
L 469.830408 59.842364 
L 471.257613 59.585972 
L 472.684817 60.00051 
L 474.112022 60.533395 
L 475.539226 60.594277 
L 476.96643 60.206583 
L 478.393635 61.258725 
L 479.820839 60.122242 
L 481.248043 60.60698 
L 482.675248 58.907186 
L 484.102452 56.746772 
L 485.529657 56.556774 
L 486.956861 57.21177 
L 488.384065 59.209239 
L 489.81127 58.585515 
L 491.238474 60.747543 
L 492.665678 60.286743 
L 494.092883 60.733456 
L 495.520087 59.923871 
L 496.947292 58.84626 
L 498.374496 59.016203 
L 499.8017 56.950047 
L 501.228905 57.764942 
L 502.656109 56.983915 
L 504.083313 58.280756 
L 505.510518 59.979665 
L 506.937722 57.517386 
L 508.364927 55.783899 
L 509.792131 56.442738 
L 511.219335 56.661638 
L 512.64654 58.579448 
L 514.073744 58.111548 
L 515.500948 55.387046 
L 516.928153 52.010055 
L 518.355357 52.626924 
L 519.782562 52.107297 
L 521.209766 53.253932 
L 522.63697 54.629407 
L 524.064175 54.4522 
L 525.491379 53.095025 
L 526.918583 53.257178 
L 528.345788 52.367824 
L 529.772992 52.124784 
L 531.200197 54.639307 
L 532.627401 54.506057 
L 534.054605 56.244752 
L 535.48181 57.195032 
L 536.909014 57.046947 
L 538.336218 55.879704 
L 539.763423 56.516056 
L 541.190627 55.078308 
L 542.617832 55.651244 
L 544.045036 58.007915 
L 545.47224 56.81153 
L 546.899445 56.502784 
L 548.326649 57.805994 
L 549.753853 58.016848 
L 551.181058 55.76973 
L 552.608262 55.431694 
L 554.035467 54.835063 
L 555.462671 53.281117 
L 556.889875 52.929211 
L 558.31708 55.91796 
L 559.744284 57.118173 
L 561.171488 57.117234 
L 562.598693 58.855965 
L 564.025897 59.336259 
L 565.453102 57.535506 
L 566.880306 57.128723 
L 568.30751 56.486141 
L 569.734715 56.328011 
L 571.161919 54.528748 
L 572.589123 55.773612 
L 574.016328 55.287977 
L 575.443532 54.643942 
L 576.870737 54.641029 
L 578.297941 56.564531 
L 579.725145 56.081536 
L 581.15235 57.585517 
L 582.579554 56.363065 
L 584.006758 56.953216 
L 585.433963 55.526816 
L 586.861167 56.234862 
L 588.288371 57.235993 
L 589.715576 57.914479 
L 591.14278 57.972284 
L 592.569985 56.299577 
L 593.997189 55.865733 
L 595.424393 57.585439 
L 596.851598 56.830751 
L 598.278802 57.850535 
L 599.706006 57.900439 
L 601.133211 57.129136 
L 602.560415 56.931677 
L 603.98762 56.610319 
L 605.414824 56.905989 
L 606.842028 61.412109 
L 608.269233 60.047207 
L 611.123641 60.551864 
L 612.550846 62.413041 
L 616.832459 58.205715 
L 618.259663 58.786308 
L 621.114072 55.918034 
L 622.541276 53.687185 
L 623.968481 51.698139 
L 625.395685 52.99217 
L 628.250094 54.227071 
L 629.677298 57.168979 
L 631.104503 56.443632 
L 632.531707 54.214993 
L 633.958911 53.196502 
L 636.81332 54.254188 
L 638.240525 54.650113 
L 639.667729 54.716177 
L 641.094933 57.17789 
L 642.522138 56.35773 
L 643.949342 56.781545 
L 645.376546 57.027601 
L 646.803751 57.149705 
L 648.230955 56.869092 
L 649.65816 56.297925 
L 651.085364 56.032233 
L 652.512568 56.923436 
L 653.939773 56.752466 
L 653.939773 56.752466 
" clip-path="url(#p19a053a074)" style="fill: none; stroke: #d62728; stroke-width: 1.2; stroke-linecap: square"/>
   </g>
   <g id="line2d_35">
    <path d="M 84.485227 222.906993 
L 85.912432 226.993532 
L 87.339636 224.446919 
L 88.76684 218.403724 
L 90.194045 207.485199 
L 91.621249 198.218113 
L 93.048454 191.499649 
L 94.475658 183.059558 
L 95.902862 176.355764 
L 97.330067 167.126198 
L 98.757271 157.03416 
L 101.61168 139.635491 
L 103.038884 130.959968 
L 104.466089 125.282085 
L 105.893293 120.095028 
L 107.320497 110.535135 
L 108.747702 101.853951 
L 110.174906 95.970478 
L 111.60211 91.095737 
L 113.029315 87.709549 
L 114.456519 86.424423 
L 117.310928 81.272362 
L 118.738132 76.29541 
L 120.165337 74.545346 
L 121.592541 71.084218 
L 123.019745 69.705649 
L 124.44695 67.868165 
L 125.874154 68.600494 
L 127.301359 66.412649 
L 128.728563 63.632013 
L 130.155767 63.71796 
L 131.582972 63.400003 
L 133.010176 61.541504 
L 134.43738 60.713759 
L 135.864585 61.62532 
L 137.291789 60.022315 
L 138.718994 58.930843 
L 140.146198 58.936205 
L 141.573402 58.641605 
L 143.000607 58.566689 
L 144.427811 59.293994 
L 145.855015 60.378234 
L 147.28222 59.684416 
L 148.709424 59.640556 
L 150.136629 58.237455 
L 151.563833 59.447483 
L 152.991037 59.284991 
L 154.418242 57.171322 
L 157.27265 59.511299 
L 158.699855 58.790593 
L 160.127059 60.264179 
L 161.554263 61.982327 
L 162.981468 62.903824 
L 164.408672 64.261005 
L 165.835877 64.309323 
L 168.690285 63.475028 
L 170.11749 62.372615 
L 171.544694 63.196332 
L 172.971898 61.044992 
L 174.399103 61.04699 
L 175.826307 63.060165 
L 177.253512 59.657458 
L 178.680716 58.263386 
L 180.10792 58.072313 
L 181.535125 58.275212 
L 182.962329 57.777901 
L 184.389533 56.436288 
L 185.816738 55.967667 
L 187.243942 56.808557 
L 188.671147 56.385693 
L 190.098351 57.014658 
L 191.525555 58.086834 
L 192.95276 59.586799 
L 194.379964 58.070216 
L 195.807168 60.627632 
L 197.234373 59.694735 
L 198.661577 58.491516 
L 200.088782 60.408521 
L 201.515986 59.923534 
L 202.94319 59.618348 
L 204.370395 61.278257 
L 205.797599 61.663807 
L 207.224803 59.955561 
L 208.652008 60.103223 
L 210.079212 57.078919 
L 211.506417 57.089264 
L 212.933621 56.374025 
L 214.360825 56.709504 
L 215.78803 53.985414 
L 217.215234 53.632198 
L 218.642438 51.344631 
L 220.069643 53.215679 
L 221.496847 53.452453 
L 222.924052 56.029632 
L 224.351256 56.726708 
L 225.77846 55.974732 
L 227.205665 56.907001 
L 228.632869 56.35218 
L 231.487278 57.530671 
L 232.914482 59.914564 
L 234.341687 61.09341 
L 235.768891 61.336459 
L 237.196095 59.368612 
L 238.6233 57.029605 
L 240.050504 57.313598 
L 241.477708 57.750728 
L 242.904913 56.700371 
L 244.332117 57.72394 
L 245.759322 57.972784 
L 247.186526 56.879929 
L 248.61373 56.170671 
L 250.040935 54.986805 
L 251.468139 53.965021 
L 252.895343 52.721856 
L 254.322548 53.273849 
L 255.749752 54.478674 
L 257.176957 55.326689 
L 258.604161 55.533301 
L 260.031365 56.066077 
L 261.45857 58.005972 
L 262.885774 57.429979 
L 265.740183 56.681259 
L 267.167387 56.381541 
L 268.594592 56.424519 
L 270.021796 57.91264 
L 271.449 57.20395 
L 272.876205 57.311355 
L 274.303409 58.86736 
L 275.730613 57.746434 
L 277.157818 57.719548 
L 278.585022 58.69024 
L 280.012227 57.923084 
L 281.439431 58.523019 
L 282.866635 58.191762 
L 284.29384 57.037993 
L 285.721044 58.810666 
L 287.148248 59.667799 
L 288.575453 59.755166 
L 290.002657 61.363965 
L 291.429862 60.106611 
L 294.28427 55.829766 
L 295.711475 57.072714 
L 297.138679 56.134532 
L 298.565883 56.921432 
L 299.993088 56.921014 
L 301.420292 56.119569 
L 302.847497 54.727284 
L 304.274701 56.083965 
L 305.701905 59.042747 
L 307.12911 58.967933 
L 308.556314 56.716709 
L 309.983518 53.868293 
L 311.410723 52.515122 
L 312.837927 52.184669 
L 314.265132 52.818872 
L 315.692336 52.629286 
L 317.11954 53.502865 
L 318.546745 53.762567 
L 319.973949 56.178385 
L 321.401153 55.09266 
L 322.828358 56.410912 
L 325.682767 56.686068 
L 327.109971 57.749331 
L 328.537175 58.192637 
L 329.96438 58.760334 
L 331.391584 57.6007 
L 332.818788 56.019831 
L 334.245993 54.802245 
L 335.673197 53.784745 
L 337.100402 52.540781 
L 338.527606 51.753621 
L 341.382015 51.693867 
L 342.809219 53.377123 
L 345.663628 54.608446 
L 348.518037 55.418649 
L 349.945241 54.859909 
L 351.372445 55.255356 
L 352.79965 56.224 
L 354.226854 56.597139 
L 355.654058 57.423107 
L 357.081263 57.542758 
L 358.508467 58.070376 
L 359.935672 58.105509 
L 361.362876 57.537302 
L 362.79008 57.677276 
L 364.217285 59.301263 
L 365.644489 58.991297 
L 367.071693 59.770909 
L 368.498898 57.381417 
L 369.926102 56.411701 
L 371.353307 56.281345 
L 372.780511 55.667001 
L 374.207715 55.579303 
L 375.63492 57.243759 
L 377.062124 58.525 
L 378.489328 57.190531 
L 379.916533 54.916357 
L 381.343737 53.905819 
L 382.770942 55.04371 
L 384.198146 55.888454 
L 385.62535 55.104365 
L 387.052555 53.164645 
L 388.479759 54.794555 
L 389.906963 55.86429 
L 391.334168 54.746492 
L 392.761372 54.560243 
L 394.188577 56.718041 
L 397.042985 54.76316 
L 398.47019 56.319459 
L 399.897394 55.870871 
L 401.324598 56.503029 
L 404.179007 54.575383 
L 405.606212 53.283856 
L 407.033416 54.481132 
L 411.315029 55.014105 
L 412.742233 54.298085 
L 415.596642 57.011187 
L 417.023847 59.885397 
L 418.451051 61.280664 
L 419.878255 62.92663 
L 421.30546 63.89749 
L 422.732664 65.207999 
L 424.159868 61.468718 
L 425.587073 61.32997 
L 427.014277 61.337036 
L 428.441482 60.157194 
L 431.29589 61.872857 
L 432.723095 61.188747 
L 434.150299 61.162586 
L 435.577503 60.439975 
L 437.004708 62.161873 
L 438.431912 60.304278 
L 439.859117 59.278441 
L 442.713525 56.916304 
L 444.14073 56.191612 
L 445.567934 57.816861 
L 446.995138 59.194685 
L 448.422343 58.636842 
L 449.849547 58.373426 
L 451.276752 59.14396 
L 452.703956 57.898855 
L 454.13116 60.213036 
L 455.558365 59.783309 
L 456.985569 60.29267 
L 458.412773 60.114818 
L 459.839978 63.34333 
L 461.267182 62.200688 
L 462.694387 59.286468 
L 464.121591 59.811047 
L 465.548795 60.849803 
L 466.976 63.071065 
L 468.403204 61.623446 
L 469.830408 58.384285 
L 471.257613 58.582827 
L 472.684817 58.086425 
L 474.112022 57.245534 
L 475.539226 58.763772 
L 476.96643 58.770497 
L 478.393635 57.714185 
L 479.820839 59.575525 
L 481.248043 59.287783 
L 482.675248 58.674273 
L 484.102452 57.300455 
L 485.529657 55.595238 
L 486.956861 56.786361 
L 488.384065 56.166905 
L 489.81127 55.967193 
L 492.665678 59.362774 
L 494.092883 60.490443 
L 495.520087 60.157809 
L 496.947292 61.739397 
L 498.374496 61.753224 
L 499.8017 62.770624 
L 501.228905 62.553782 
L 502.656109 63.731833 
L 504.083313 64.667929 
L 505.510518 61.369846 
L 506.937722 62.217326 
L 508.364927 60.127197 
L 509.792131 59.270174 
L 511.219335 60.205962 
L 512.64654 60.099061 
L 514.073744 61.522487 
L 515.500948 61.608685 
L 516.928153 62.421707 
L 519.782562 61.307643 
L 521.209766 62.075437 
L 522.63697 61.587504 
L 525.491379 63.662046 
L 526.918583 63.084501 
L 528.345788 61.025894 
L 529.772992 58.472668 
L 532.627401 57.439545 
L 534.054605 58.851948 
L 535.48181 59.261985 
L 536.909014 57.602073 
L 538.336218 56.747947 
L 539.763423 55.415605 
L 541.190627 56.030061 
L 542.617832 57.184973 
L 544.045036 55.973736 
L 545.47224 57.850593 
L 546.899445 57.242671 
L 548.326649 57.263588 
L 549.753853 57.878213 
L 551.181058 55.536673 
L 554.035467 57.288094 
L 555.462671 56.194697 
L 556.889875 57.070783 
L 558.31708 57.062293 
L 559.744284 55.395194 
L 561.171488 57.692714 
L 562.598693 57.706314 
L 564.025897 56.917498 
L 565.453102 56.588569 
L 566.880306 55.309525 
L 568.30751 56.789808 
L 569.734715 54.248265 
L 571.161919 55.513502 
L 572.589123 56.206277 
L 574.016328 57.698604 
L 575.443532 55.676064 
L 576.870737 56.094845 
L 578.297941 56.038511 
L 579.725145 57.313643 
L 581.15235 57.066248 
L 582.579554 57.581447 
L 584.006758 56.756155 
L 585.433963 57.599037 
L 586.861167 58.740978 
L 588.288371 57.114957 
L 589.715576 57.317919 
L 591.14278 55.905531 
L 592.569985 57.053302 
L 593.997189 57.077568 
L 595.424393 57.796311 
L 596.851598 57.795167 
L 598.278802 58.027655 
L 599.706006 55.658284 
L 601.133211 56.261231 
L 602.560415 55.988976 
L 603.98762 58.629067 
L 605.414824 59.394204 
L 606.842028 59.280461 
L 608.269233 60.668421 
L 609.696437 60.664164 
L 611.123641 61.331047 
L 612.550846 58.81114 
L 613.97805 58.412951 
L 615.405255 59.070566 
L 616.832459 60.029766 
L 618.259663 58.400161 
L 619.686868 58.466308 
L 621.114072 57.984821 
L 622.541276 56.021229 
L 623.968481 56.243225 
L 625.395685 57.804616 
L 626.82289 57.787843 
L 628.250094 57.320216 
L 629.677298 57.02418 
L 631.104503 55.658159 
L 632.531707 57.117154 
L 633.958911 58.948043 
L 635.386116 59.628891 
L 636.81332 58.893466 
L 638.240525 55.939261 
L 639.667729 55.610885 
L 641.094933 56.385153 
L 642.522138 55.979447 
L 643.949342 57.537866 
L 645.376546 58.088114 
L 646.803751 58.293183 
L 648.230955 59.372287 
L 649.65816 58.576469 
L 651.085364 58.822816 
L 652.512568 61.594173 
L 653.939773 62.123333 
L 653.939773 62.123333 
" clip-path="url(#p19a053a074)" style="fill: none; stroke: #9b8ac9; stroke-width: 1.2; stroke-linecap: square"/>
   </g>
   <g id="patch_3">
    <path d="M 56.0125 349.8636 
L 56.0125 34.5036 
" style="fill: none; stroke: #000000; stroke-width: 0.8; stroke-linejoin: miter; stroke-linecap: square"/>
   </g>
   <g id="patch_4">
    <path d="M 682.4125 349.8636 
L 682.4125 34.5036 
" style="fill: none; stroke: #000000; stroke-width: 0.8; stroke-linejoin: miter; stroke-linecap: square"/>
   </g>
   <g id="patch_5">
    <path d="M 56.0125 349.8636 
L 682.4125 349.8636 
" style="fill: none; stroke: #000000; stroke-width: 0.8; stroke-linejoin: miter; stroke-linecap: square"/>
   </g>
   <g id="patch_6">
    <path d="M 56.0125 34.5036 
L 682.4125 34.5036 
" style="fill: none; stroke: #000000; stroke-width: 0.8; stroke-linejoin: miter; stroke-linecap: square"/>
   </g>
   <g id="legend_1">
    <g id="patch_7">
     <path d="M 56.0125 31.35 
L 682.4125 31.35 
L 682.4125 7.2 
L 56.0125 7.2 
z
" style="fill: #ffffff; stroke: #808080; stroke-width: 0.8; stroke-linejoin: miter"/>
    </g>
    <g id="line2d_36">
     <path d="M 62.3125 18.4 
L 76.3125 18.4 
L 90.3125 18.4 
" style="fill: none; stroke: #1f77b4; stroke-width: 1.2; stroke-linecap: square"/>
    </g>
    <g id="text_18">
     <!-- DDPG -->
     <g transform="translate(98.7125 23.3) scale(0.14 -0.14)">
      <defs>
       <path id="SimHei-44" d="M 2925 2250 
Q 2925 1100 2437 612 
Q 1950 125 1125 125 
L 275 125 
L 275 4400 
L 1125 4400 
Q 2050 4400 2487 3900 
Q 2925 3400 2925 2250 
z
M 2325 2250 
Q 2325 3175 2025 3550 
Q 1725 3925 1125 3925 
L 850 3925 
L 850 600 
L 1125 600 
Q 1725 600 2025 962 
Q 2325 1325 2325 2250 
z
" transform="scale(0.015625)"/>
       <path id="SimHei-50" d="M 2950 3100 
Q 2950 2500 2600 2150 
Q 2250 1800 1625 1800 
L 900 1800 
L 900 125 
L 325 125 
L 325 4400 
L 1625 4400 
Q 2250 4400 2600 4050 
Q 2950 3700 2950 3100 
z
M 2375 3100 
Q 2375 3575 2150 3750 
Q 1925 3925 1475 3925 
L 900 3925 
L 900 2275 
L 1475 2275 
Q 1925 2275 2150 2450 
Q 2375 2625 2375 3100 
z
" transform="scale(0.015625)"/>
       <path id="SimHei-47" d="M 2850 75 
L 2425 75 
L 2350 425 
Q 2250 275 2037 175 
Q 1825 75 1575 75 
Q 1050 75 637 562 
Q 225 1050 225 2125 
Q 225 3300 600 3875 
Q 975 4450 1625 4450 
Q 2200 4450 2525 4025 
Q 2850 3600 2850 2925 
L 2300 2925 
Q 2300 3450 2125 3712 
Q 1950 3975 1625 3975 
Q 1225 3975 1025 3562 
Q 825 3150 825 2175 
Q 825 1250 1075 900 
Q 1325 550 1650 550 
Q 1975 550 2162 787 
Q 2350 1025 2350 1525 
L 2350 1800 
L 1575 1800 
L 1575 2275 
L 2850 2275 
L 2850 75 
z
" transform="scale(0.015625)"/>
      </defs>
      <use xlink:href="#SimHei-44"/>
      <use xlink:href="#SimHei-44" transform="translate(50 0)"/>
      <use xlink:href="#SimHei-50" transform="translate(100 0)"/>
      <use xlink:href="#SimHei-47" transform="translate(150 0)"/>
     </g>
    </g>
    <g id="line2d_37">
     <path d="M 192.6625 18.4 
L 206.6625 18.4 
L 220.6625 18.4 
" style="fill: none; stroke: #ff7f0e; stroke-width: 1.2; stroke-linecap: square"/>
    </g>
    <g id="text_19">
     <!-- PPO -->
     <g transform="translate(229.0625 23.3) scale(0.14 -0.14)">
      <defs>
       <path id="SimHei-4f" d="M 2950 2275 
Q 2950 1100 2587 587 
Q 2225 75 1575 75 
Q 925 75 550 587 
Q 175 1100 175 2275 
Q 175 3450 550 3950 
Q 925 4450 1575 4450 
Q 2225 4450 2587 3950 
Q 2950 3450 2950 2275 
z
M 2350 2275 
Q 2350 3325 2125 3650 
Q 1900 3975 1575 3975 
Q 1250 3975 1012 3650 
Q 775 3325 775 2275 
Q 775 1225 1012 887 
Q 1250 550 1575 550 
Q 1900 550 2125 887 
Q 2350 1225 2350 2275 
z
" transform="scale(0.015625)"/>
      </defs>
      <use xlink:href="#SimHei-50"/>
      <use xlink:href="#SimHei-50" transform="translate(50 0)"/>
      <use xlink:href="#SimHei-4f" transform="translate(100 0)"/>
     </g>
    </g>
    <g id="line2d_38">
     <path d="M 316.0125 18.4 
L 330.0125 18.4 
L 344.0125 18.4 
" style="fill: none; stroke: #2ca02c; stroke-width: 1.2; stroke-linecap: square"/>
    </g>
    <g id="text_20">
     <!-- TD3 -->
     <g transform="translate(352.4125 23.3) scale(0.14 -0.14)">
      <use xlink:href="#SimHei-54"/>
      <use xlink:href="#SimHei-44" transform="translate(50 0)"/>
      <use xlink:href="#SimHei-33" transform="translate(100 0)"/>
     </g>
    </g>
    <g id="line2d_39">
     <path d="M 439.3625 18.4 
L 453.3625 18.4 
L 467.3625 18.4 
" style="fill: none; stroke: #d62728; stroke-width: 1.2; stroke-linecap: square"/>
    </g>
    <g id="text_21">
     <!-- GCN-DDQN -->
     <g transform="translate(475.7625 23.3) scale(0.14 -0.14)">
      <defs>
       <path id="SimHei-43" d="M 2975 1825 
Q 2950 875 2575 475 
Q 2200 75 1675 75 
Q 1075 75 650 562 
Q 225 1050 225 2125 
Q 225 3300 637 3875 
Q 1050 4450 1700 4450 
Q 2250 4450 2612 4037 
Q 2975 3625 2950 2875 
L 2400 2875 
Q 2400 3425 2225 3700 
Q 2050 3975 1700 3975 
Q 1300 3975 1062 3562 
Q 825 3150 825 2175 
Q 825 1275 1062 912 
Q 1300 550 1675 550 
Q 1950 550 2175 812 
Q 2400 1075 2400 1825 
L 2975 1825 
z
" transform="scale(0.015625)"/>
       <path id="SimHei-4e" d="M 2850 125 
L 2225 125 
L 850 3225 
L 825 3225 
L 825 125 
L 250 125 
L 250 4400 
L 875 4400 
L 2250 1300 
L 2275 1300 
L 2275 4400 
L 2850 4400 
L 2850 125 
z
" transform="scale(0.015625)"/>
       <path id="SimHei-2d" d="M 2975 2125 
L 125 2125 
L 125 2525 
L 2975 2525 
L 2975 2125 
z
" transform="scale(0.015625)"/>
       <path id="SimHei-51" d="M 2950 2275 
Q 2950 1675 2862 1262 
Q 2775 850 2575 600 
L 2775 225 
L 2375 -200 
L 2150 225 
Q 2050 150 1900 112 
Q 1750 75 1575 75 
Q 925 75 550 587 
Q 175 1100 175 2275 
Q 175 3450 550 3950 
Q 925 4450 1575 4450 
Q 2225 4450 2587 3950 
Q 2950 3450 2950 2275 
z
M 2350 2275 
Q 2350 3325 2125 3650 
Q 1900 3975 1575 3975 
Q 1250 3975 1012 3650 
Q 775 3325 775 2275 
Q 775 1225 1012 887 
Q 1250 550 1575 550 
Q 1700 550 1800 587 
Q 1900 625 1950 675 
L 1550 1450 
L 1900 1875 
L 2250 1200 
Q 2300 1450 2325 1650 
Q 2350 1850 2350 2275 
z
" transform="scale(0.015625)"/>
      </defs>
      <use xlink:href="#SimHei-47"/>
      <use xlink:href="#SimHei-43" transform="translate(50 0)"/>
      <use xlink:href="#SimHei-4e" transform="translate(100 0)"/>
      <use xlink:href="#SimHei-2d" transform="translate(150 0)"/>
      <use xlink:href="#SimHei-44" transform="translate(200 0)"/>
      <use xlink:href="#SimHei-44" transform="translate(250 0)"/>
      <use xlink:href="#SimHei-51" transform="translate(300 0)"/>
      <use xlink:href="#SimHei-4e" transform="translate(350 0)"/>
     </g>
    </g>
    <g id="line2d_40">
     <path d="M 597.7125 18.4 
L 611.7125 18.4 
L 625.7125 18.4 
" style="fill: none; stroke: #9b8ac9; stroke-width: 1.2; stroke-linecap: square"/>
    </g>
    <g id="text_22">
     <!-- GLDVTO -->
     <g transform="translate(634.1125 23.3) scale(0.14 -0.14)">
      <defs>
       <path id="SimHei-4c" d="M 2900 125 
L 300 125 
L 300 4400 
L 875 4400 
L 875 600 
L 2900 600 
L 2900 125 
z
" transform="scale(0.015625)"/>
       <path id="SimHei-56" d="M 3050 4400 
L 1800 75 
L 1300 75 
L 50 4400 
L 650 4400 
L 1525 1125 
L 1575 1125 
L 2450 4400 
L 3050 4400 
z
" transform="scale(0.015625)"/>
      </defs>
      <use xlink:href="#SimHei-47"/>
      <use xlink:href="#SimHei-4c" transform="translate(50 0)"/>
      <use xlink:href="#SimHei-44" transform="translate(100 0)"/>
      <use xlink:href="#SimHei-56" transform="translate(150 0)"/>
      <use xlink:href="#SimHei-54" transform="translate(200 0)"/>
      <use xlink:href="#SimHei-4f" transform="translate(250 0)"/>
     </g>
    </g>
   </g>
  </g>
 </g>
 <defs>
  <clipPath id="p19a053a074">
   <rect x="56.0125" y="34.5036" width="626.4" height="315.36"/>
  </clipPath>
 </defs>
</svg>
