<?xml version="1.0" encoding="utf-8" standalone="no"?>
<!DOCTYPE svg PUBLIC "-//W3C//DTD SVG 1.1//EN"
  "http://www.w3.org/Graphics/SVG/1.1/DTD/svg11.dtd">
<svg xmlns:xlink="http://www.w3.org/1999/xlink" width="683.6125pt" height="391.6261pt" viewBox="0 0 683.6125 391.6261" xmlns="http://www.w3.org/2000/svg" version="1.1">
 <metadata>
  <rdf:RDF xmlns:dc="http://purl.org/dc/elements/1.1/" xmlns:cc="http://creativecommons.org/ns#" xmlns:rdf="http://www.w3.org/1999/02/22-rdf-syntax-ns#">
   <cc:Work>
    <dc:type rdf:resource="http://purl.org/dc/dcmitype/StillImage"/>
    <dc:date>2026-07-13T19:14:03.652394</dc:date>
    <dc:format>image/svg+xml</dc:format>
    <dc:creator>
     <cc:Agent>
      <dc:title>Matplotlib v3.10.7, https://matplotlib.org/</dc:title>
     </cc:Agent>
    </dc:creator>
   </cc:Work>
  </rdf:RDF>
 </metadata>
 <defs>
  <style type="text/css">*{stroke-linejoin: round; stroke-linecap: butt}</style>
 </defs>
 <g id="figure_1">
  <g id="patch_1">
   <path d="M 0 391.6261 
L 683.6125 391.6261 
L 683.6125 0 
L 0 0 
z
" style="fill: #ffffff"/>
  </g>
  <g id="axes_1">
   <g id="patch_2">
    <path d="M 50.0125 349.8636 
L 676.4125 349.8636 
L 676.4125 34.5036 
L 50.0125 34.5036 
z
" style="fill: #ffffff"/>
   </g>
   <g id="matplotlib.axis_1">
    <g id="xtick_1">
     <g id="line2d_1">
      <path d="M 78.485227 349.8636 
L 78.485227 34.5036 
" clip-path="url(#p2fa23125fe)" style="fill: none; stroke-dasharray: 2.22,0.96; stroke-dashoffset: 0; stroke: #b0b0b0; stroke-opacity: 0.25; stroke-width: 0.6"/>
     </g>
     <g id="line2d_2">
      <defs>
       <path id="m35c3e909cc" d="M 0 0 
L 0 3.5 
" style="stroke: #000000; stroke-width: 0.8"/>
      </defs>
      <g>
       <use xlink:href="#m35c3e909cc" x="78.485227" y="349.8636" style="stroke: #000000; stroke-width: 0.8"/>
      </g>
     </g>
     <g id="text_1">
      <!-- 0 -->
      <g transform="translate(75.485227 365.1136) scale(0.12 -0.12)">
       <defs>
        <path id="SimHei-30" d="M 225 2537 
Q 250 3200 412 3587 
Q 575 3975 875 4225 
Q 1175 4475 1612 4475 
Q 2050 4475 2375 4112 
Q 2700 3750 2800 3200 
Q 2900 2650 2862 1937 
Q 2825 1225 2612 775 
Q 2400 325 1975 150 
Q 1550 -25 1125 187 
Q 700 400 525 750 
Q 350 1100 275 1487 
Q 200 1875 225 2537 
z
M 750 2687 
Q 675 2000 800 1462 
Q 925 925 1212 700 
Q 1500 475 1800 612 
Q 2100 750 2237 1162 
Q 2375 1575 2375 2062 
Q 2375 2550 2337 2950 
Q 2300 3350 2112 3675 
Q 1925 4000 1612 4012 
Q 1300 4025 1062 3700 
Q 825 3375 750 2687 
z
" transform="scale(0.015625)"/>
       </defs>
       <use xlink:href="#SimHei-30"/>
      </g>
     </g>
    </g>
    <g id="xtick_2">
     <g id="line2d_3">
      <path d="M 149.845446 349.8636 
L 149.845446 34.5036 
" clip-path="url(#p2fa23125fe)" style="fill: none; stroke-dasharray: 2.22,0.96; stroke-dashoffset: 0; stroke: #b0b0b0; stroke-opacity: 0.25; stroke-width: 0.6"/>
     </g>
     <g id="line2d_4">
      <g>
       <use xlink:href="#m35c3e909cc" x="149.845446" y="349.8636" style="stroke: #000000; stroke-width: 0.8"/>
      </g>
     </g>
     <g id="text_2">
      <!-- 50 -->
      <g transform="translate(143.845446 365.1136) scale(0.12 -0.12)">
       <defs>
        <path id="SimHei-35" d="M 550 1325 
Q 725 650 1150 575 
Q 1575 500 1837 662 
Q 2100 825 2212 1087 
Q 2325 1350 2312 1675 
Q 2300 2000 2137 2225 
Q 1975 2450 1725 2525 
Q 1475 2600 1162 2525 
Q 850 2450 650 2175 
L 225 2225 
Q 275 2375 700 4375 
L 2675 4375 
L 2675 3925 
L 1075 3925 
Q 950 3250 825 2850 
Q 1200 3025 1525 3012 
Q 1850 3000 2150 2862 
Q 2450 2725 2587 2487 
Q 2725 2250 2787 2012 
Q 2850 1775 2837 1500 
Q 2825 1225 2725 937 
Q 2625 650 2425 462 
Q 2225 275 1937 162 
Q 1650 50 1275 75 
Q 900 100 562 350 
Q 225 600 100 1200 
L 550 1325 
z
" transform="scale(0.015625)"/>
       </defs>
       <use xlink:href="#SimHei-35"/>
       <use xlink:href="#SimHei-30" transform="translate(50 0)"/>
      </g>
     </g>
    </g>
    <g id="xtick_3">
     <g id="line2d_5">
      <path d="M 221.205665 349.8636 
L 221.205665 34.5036 
" clip-path="url(#p2fa23125fe)" style="fill: none; stroke-dasharray: 2.22,0.96; stroke-dashoffset: 0; stroke: #b0b0b0; stroke-opacity: 0.25; stroke-width: 0.6"/>
     </g>
     <g id="line2d_6">
      <g>
       <use xlink:href="#m35c3e909cc" x="221.205665" y="349.8636" style="stroke: #000000; stroke-width: 0.8"/>
      </g>
     </g>
     <g id="text_3">
      <!-- 100 -->
      <g transform="translate(212.205665 365.1136) scale(0.12 -0.12)">
       <defs>
        <path id="SimHei-31" d="M 1400 3600 
Q 1075 3275 575 2975 
L 575 3450 
Q 1200 3875 1600 4450 
L 1900 4450 
L 1900 150 
L 1400 150 
L 1400 3600 
z
" transform="scale(0.015625)"/>
       </defs>
       <use xlink:href="#SimHei-31"/>
       <use xlink:href="#SimHei-30" transform="translate(50 0)"/>
       <use xlink:href="#SimHei-30" transform="translate(100 0)"/>
      </g>
     </g>
    </g>
    <g id="xtick_4">
     <g id="line2d_7">
      <path d="M 292.565883 349.8636 
L 292.565883 34.5036 
" clip-path="url(#p2fa23125fe)" style="fill: none; stroke-dasharray: 2.22,0.96; stroke-dashoffset: 0; stroke: #b0b0b0; stroke-opacity: 0.25; stroke-width: 0.6"/>
     </g>
     <g id="line2d_8">
      <g>
       <use xlink:href="#m35c3e909cc" x="292.565883" y="349.8636" style="stroke: #000000; stroke-width: 0.8"/>
      </g>
     </g>
     <g id="text_4">
      <!-- 150 -->
      <g transform="translate(283.565883 365.1136) scale(0.12 -0.12)">
       <use xlink:href="#SimHei-31"/>
       <use xlink:href="#SimHei-35" transform="translate(50 0)"/>
       <use xlink:href="#SimHei-30" transform="translate(100 0)"/>
      </g>
     </g>
    </g>
    <g id="xtick_5">
     <g id="line2d_9">
      <path d="M 363.926102 349.8636 
L 363.926102 34.5036 
" clip-path="url(#p2fa23125fe)" style="fill: none; stroke-dasharray: 2.22,0.96; stroke-dashoffset: 0; stroke: #b0b0b0; stroke-opacity: 0.25; stroke-width: 0.6"/>
     </g>
     <g id="line2d_10">
      <g>
       <use xlink:href="#m35c3e909cc" x="363.926102" y="349.8636" style="stroke: #000000; stroke-width: 0.8"/>
      </g>
     </g>
     <g id="text_5">
      <!-- 200 -->
      <g transform="translate(354.926102 365.1136) scale(0.12 -0.12)">
       <defs>
        <path id="SimHei-32" d="M 300 250 
Q 325 625 650 925 
Q 975 1225 1475 1862 
Q 1975 2500 2125 2850 
Q 2275 3200 2237 3450 
Q 2200 3700 2000 3862 
Q 1800 4025 1537 4000 
Q 1275 3975 1037 3800 
Q 800 3625 675 3275 
L 200 3350 
Q 400 3925 712 4187 
Q 1025 4450 1450 4475 
Q 1700 4500 1900 4462 
Q 2100 4425 2312 4287 
Q 2525 4150 2662 3875 
Q 2800 3600 2762 3212 
Q 2725 2825 2375 2287 
Q 2025 1750 1025 600 
L 2825 600 
L 2825 150 
L 300 150 
L 300 250 
z
" transform="scale(0.015625)"/>
       </defs>
       <use xlink:href="#SimHei-32"/>
       <use xlink:href="#SimHei-30" transform="translate(50 0)"/>
       <use xlink:href="#SimHei-30" transform="translate(100 0)"/>
      </g>
     </g>
    </g>
    <g id="xtick_6">
     <g id="line2d_11">
      <path d="M 435.286321 349.8636 
L 435.286321 34.5036 
" clip-path="url(#p2fa23125fe)" style="fill: none; stroke-dasharray: 2.22,0.96; stroke-dashoffset: 0; stroke: #b0b0b0; stroke-opacity: 0.25; stroke-width: 0.6"/>
     </g>
     <g id="line2d_12">
      <g>
       <use xlink:href="#m35c3e909cc" x="435.286321" y="349.8636" style="stroke: #000000; stroke-width: 0.8"/>
      </g>
     </g>
     <g id="text_6">
      <!-- 250 -->
      <g transform="translate(426.286321 365.1136) scale(0.12 -0.12)">
       <use xlink:href="#SimHei-32"/>
       <use xlink:href="#SimHei-35" transform="translate(50 0)"/>
       <use xlink:href="#SimHei-30" transform="translate(100 0)"/>
      </g>
     </g>
    </g>
    <g id="xtick_7">
     <g id="line2d_13">
      <path d="M 506.64654 349.8636 
L 506.64654 34.5036 
" clip-path="url(#p2fa23125fe)" style="fill: none; stroke-dasharray: 2.22,0.96; stroke-dashoffset: 0; stroke: #b0b0b0; stroke-opacity: 0.25; stroke-width: 0.6"/>
     </g>
     <g id="line2d_14">
      <g>
       <use xlink:href="#m35c3e909cc" x="506.64654" y="349.8636" style="stroke: #000000; stroke-width: 0.8"/>
      </g>
     </g>
     <g id="text_7">
      <!-- 300 -->
      <g transform="translate(497.64654 365.1136) scale(0.12 -0.12)">
       <defs>
        <path id="SimHei-33" d="M 250 1225 
L 700 1300 
Q 800 975 1025 762 
Q 1250 550 1587 562 
Q 1925 575 2125 837 
Q 2325 1100 2300 1437 
Q 2275 1775 2037 1962 
Q 1800 2150 1275 2225 
L 1275 2550 
Q 1800 2600 2037 2825 
Q 2275 3050 2250 3412 
Q 2225 3775 1925 3937 
Q 1625 4100 1287 3975 
Q 950 3850 750 3275 
L 300 3350 
Q 450 3800 712 4100 
Q 975 4400 1425 4450 
Q 1875 4500 2212 4337 
Q 2550 4175 2687 3837 
Q 2825 3500 2725 3100 
Q 2625 2700 2150 2400 
Q 2500 2250 2687 1950 
Q 2875 1650 2812 1162 
Q 2750 675 2375 375 
Q 2000 75 1525 87 
Q 1050 100 700 387 
Q 350 675 250 1225 
z
" transform="scale(0.015625)"/>
       </defs>
       <use xlink:href="#SimHei-33"/>
       <use xlink:href="#SimHei-30" transform="translate(50 0)"/>
       <use xlink:href="#SimHei-30" transform="translate(100 0)"/>
      </g>
     </g>
    </g>
    <g id="xtick_8">
     <g id="line2d_15">
      <path d="M 578.006758 349.8636 
L 578.006758 34.5036 
" clip-path="url(#p2fa23125fe)" style="fill: none; stroke-dasharray: 2.22,0.96; stroke-dashoffset: 0; stroke: #b0b0b0; stroke-opacity: 0.25; stroke-width: 0.6"/>
     </g>
     <g id="line2d_16">
      <g>
       <use xlink:href="#m35c3e909cc" x="578.006758" y="349.8636" style="stroke: #000000; stroke-width: 0.8"/>
      </g>
     </g>
     <g id="text_8">
      <!-- 350 -->
      <g transform="translate(569.006758 365.1136) scale(0.12 -0.12)">
       <use xlink:href="#SimHei-33"/>
       <use xlink:href="#SimHei-35" transform="translate(50 0)"/>
       <use xlink:href="#SimHei-30" transform="translate(100 0)"/>
      </g>
     </g>
    </g>
    <g id="xtick_9">
     <g id="line2d_17">
      <path d="M 649.366977 349.8636 
L 649.366977 34.5036 
" clip-path="url(#p2fa23125fe)" style="fill: none; stroke-dasharray: 2.22,0.96; stroke-dashoffset: 0; stroke: #b0b0b0; stroke-opacity: 0.25; stroke-width: 0.6"/>
     </g>
     <g id="line2d_18">
      <g>
       <use xlink:href="#m35c3e909cc" x="649.366977" y="349.8636" style="stroke: #000000; stroke-width: 0.8"/>
      </g>
     </g>
     <g id="text_9">
      <!-- 400 -->
      <g transform="translate(640.366977 365.1136) scale(0.12 -0.12)">
       <defs>
        <path id="SimHei-34" d="M 2000 1100 
L 75 1100 
L 75 1525 
L 2100 4450 
L 2475 4450 
L 2475 1525 
L 3075 1525 
L 3075 1100 
L 2475 1100 
L 2475 150 
L 2000 150 
L 2000 1100 
z
M 2000 1525 
L 2000 3500 
L 600 1525 
L 2000 1525 
z
" transform="scale(0.015625)"/>
       </defs>
       <use xlink:href="#SimHei-34"/>
       <use xlink:href="#SimHei-30" transform="translate(50 0)"/>
       <use xlink:href="#SimHei-30" transform="translate(100 0)"/>
      </g>
     </g>
    </g>
    <g id="text_10">
     <!-- Episode -->
     <g transform="translate(333.4625 382.3011) scale(0.17 -0.17)">
      <defs>
       <path id="SimHei-45" d="M 2900 125 
L 350 125 
L 350 4400 
L 2775 4400 
L 2775 3925 
L 925 3925 
L 925 2600 
L 2625 2600 
L 2625 2125 
L 925 2125 
L 925 600 
L 2900 600 
L 2900 125 
z
" transform="scale(0.015625)"/>
       <path id="SimHei-70" d="M 2825 1525 
Q 2825 800 2475 425 
Q 2125 50 1625 50 
Q 1350 50 1150 162 
Q 950 275 800 500 
L 800 -800 
L 300 -800 
L 300 2925 
L 800 2925 
L 800 2550 
Q 950 2775 1150 2875 
Q 1350 2975 1625 2975 
Q 2125 2975 2475 2612 
Q 2825 2250 2825 1525 
z
M 2275 1525 
Q 2275 2000 2087 2262 
Q 1900 2525 1525 2525 
Q 1225 2525 1012 2262 
Q 800 2000 800 1525 
Q 800 1050 1012 775 
Q 1225 500 1525 500 
Q 1900 500 2087 775 
Q 2275 1050 2275 1525 
z
" transform="scale(0.015625)"/>
       <path id="SimHei-69" d="M 1800 3725 
L 1300 3725 
L 1300 4375 
L 1800 4375 
L 1800 3725 
z
M 1800 125 
L 1300 125 
L 1300 2925 
L 1800 2925 
L 1800 125 
z
" transform="scale(0.015625)"/>
       <path id="SimHei-73" d="M 2750 900 
Q 2750 500 2437 287 
Q 2125 75 1650 75 
Q 1050 75 725 312 
Q 400 550 400 1000 
L 900 1000 
Q 900 700 1112 600 
Q 1325 500 1625 500 
Q 1925 500 2075 612 
Q 2225 725 2225 900 
Q 2225 1025 2100 1150 
Q 1975 1275 1475 1350 
Q 900 1425 687 1637 
Q 475 1850 475 2200 
Q 475 2500 762 2737 
Q 1050 2975 1600 2975 
Q 2100 2975 2387 2750 
Q 2675 2525 2675 2150 
L 2175 2150 
Q 2175 2375 2012 2462 
Q 1850 2550 1600 2550 
Q 1275 2550 1137 2437 
Q 1000 2325 1000 2175 
Q 1000 2000 1125 1900 
Q 1250 1800 1650 1750 
Q 2300 1650 2525 1437 
Q 2750 1225 2750 900 
z
" transform="scale(0.015625)"/>
       <path id="SimHei-6f" d="M 2925 1525 
Q 2925 875 2525 475 
Q 2125 75 1575 75 
Q 1025 75 625 475 
Q 225 875 225 1525 
Q 225 2175 625 2575 
Q 1025 2975 1575 2975 
Q 2125 2975 2525 2575 
Q 2925 2175 2925 1525 
z
M 2375 1525 
Q 2375 2025 2125 2275 
Q 1875 2525 1575 2525 
Q 1275 2525 1025 2275 
Q 775 2025 775 1525 
Q 775 1025 1025 775 
Q 1275 525 1575 525 
Q 1875 525 2125 775 
Q 2375 1025 2375 1525 
z
" transform="scale(0.015625)"/>
       <path id="SimHei-64" d="M 2750 125 
L 2250 125 
L 2250 500 
Q 2100 275 1900 175 
Q 1700 75 1425 75 
Q 925 75 575 437 
Q 225 800 225 1525 
Q 225 2250 575 2625 
Q 925 3000 1425 3000 
Q 1700 3000 1900 2887 
Q 2100 2775 2250 2550 
L 2250 4400 
L 2750 4400 
L 2750 125 
z
M 2250 1525 
Q 2250 2000 2037 2275 
Q 1825 2550 1525 2550 
Q 1150 2550 962 2275 
Q 775 2000 775 1525 
Q 775 1050 962 787 
Q 1150 525 1525 525 
Q 1825 525 2037 787 
Q 2250 1050 2250 1525 
z
" transform="scale(0.015625)"/>
       <path id="SimHei-65" d="M 2850 1075 
Q 2800 625 2450 350 
Q 2100 75 1625 75 
Q 1025 75 637 462 
Q 250 850 250 1525 
Q 250 2200 637 2587 
Q 1025 2975 1625 2975 
Q 2150 2975 2487 2637 
Q 2825 2300 2825 1525 
L 800 1525 
Q 800 975 1037 750 
Q 1275 525 1625 525 
Q 1900 525 2075 662 
Q 2250 800 2300 1075 
L 2850 1075 
z
M 2250 1925 
Q 2200 2275 2025 2412 
Q 1850 2550 1575 2550 
Q 1325 2550 1125 2412 
Q 925 2275 825 1925 
L 2250 1925 
z
" transform="scale(0.015625)"/>
      </defs>
      <use xlink:href="#SimHei-45"/>
      <use xlink:href="#SimHei-70" transform="translate(50 0)"/>
      <use xlink:href="#SimHei-69" transform="translate(100 0)"/>
      <use xlink:href="#SimHei-73" transform="translate(150 0)"/>
      <use xlink:href="#SimHei-6f" transform="translate(200 0)"/>
      <use xlink:href="#SimHei-64" transform="translate(250 0)"/>
      <use xlink:href="#SimHei-65" transform="translate(300 0)"/>
     </g>
    </g>
   </g>
   <g id="matplotlib.axis_2">
    <g id="ytick_1">
     <g id="line2d_19">
      <path d="M 50.0125 315.380629 
L 676.4125 315.380629 
" clip-path="url(#p2fa23125fe)" style="fill: none; stroke-dasharray: 2.22,0.96; stroke-dashoffset: 0; stroke: #b0b0b0; stroke-opacity: 0.25; stroke-width: 0.6"/>
     </g>
     <g id="line2d_20">
      <defs>
       <path id="m8884cb81d5" d="M 0 0 
L -3.5 0 
" style="stroke: #000000; stroke-width: 0.8"/>
      </defs>
      <g>
       <use xlink:href="#m8884cb81d5" x="50.0125" y="315.380629" style="stroke: #000000; stroke-width: 0.8"/>
      </g>
     </g>
     <g id="text_11">
      <!-- 1.0 -->
      <g transform="translate(25.0125 319.505629) scale(0.12 -0.12)">
       <defs>
        <path id="SimHei-2e" d="M 1075 125 
L 500 125 
L 500 675 
L 1075 675 
L 1075 125 
z
" transform="scale(0.015625)"/>
       </defs>
       <use xlink:href="#SimHei-31"/>
       <use xlink:href="#SimHei-2e" transform="translate(50 0)"/>
       <use xlink:href="#SimHei-30" transform="translate(100 0)"/>
      </g>
     </g>
    </g>
    <g id="ytick_2">
     <g id="line2d_21">
      <path d="M 50.0125 277.720342 
L 676.4125 277.720342 
" clip-path="url(#p2fa23125fe)" style="fill: none; stroke-dasharray: 2.22,0.96; stroke-dashoffset: 0; stroke: #b0b0b0; stroke-opacity: 0.25; stroke-width: 0.6"/>
     </g>
     <g id="line2d_22">
      <g>
       <use xlink:href="#m8884cb81d5" x="50.0125" y="277.720342" style="stroke: #000000; stroke-width: 0.8"/>
      </g>
     </g>
     <g id="text_12">
      <!-- 1.5 -->
      <g transform="translate(25.0125 281.845342) scale(0.12 -0.12)">
       <use xlink:href="#SimHei-31"/>
       <use xlink:href="#SimHei-2e" transform="translate(50 0)"/>
       <use xlink:href="#SimHei-35" transform="translate(100 0)"/>
      </g>
     </g>
    </g>
    <g id="ytick_3">
     <g id="line2d_23">
      <path d="M 50.0125 240.060055 
L 676.4125 240.060055 
" clip-path="url(#p2fa23125fe)" style="fill: none; stroke-dasharray: 2.22,0.96; stroke-dashoffset: 0; stroke: #b0b0b0; stroke-opacity: 0.25; stroke-width: 0.6"/>
     </g>
     <g id="line2d_24">
      <g>
       <use xlink:href="#m8884cb81d5" x="50.0125" y="240.060055" style="stroke: #000000; stroke-width: 0.8"/>
      </g>
     </g>
     <g id="text_13">
      <!-- 2.0 -->
      <g transform="translate(25.0125 244.185055) scale(0.12 -0.12)">
       <use xlink:href="#SimHei-32"/>
       <use xlink:href="#SimHei-2e" transform="translate(50 0)"/>
       <use xlink:href="#SimHei-30" transform="translate(100 0)"/>
      </g>
     </g>
    </g>
    <g id="ytick_4">
     <g id="line2d_25">
      <path d="M 50.0125 202.399768 
L 676.4125 202.399768 
" clip-path="url(#p2fa23125fe)" style="fill: none; stroke-dasharray: 2.22,0.96; stroke-dashoffset: 0; stroke: #b0b0b0; stroke-opacity: 0.25; stroke-width: 0.6"/>
     </g>
     <g id="line2d_26">
      <g>
       <use xlink:href="#m8884cb81d5" x="50.0125" y="202.399768" style="stroke: #000000; stroke-width: 0.8"/>
      </g>
     </g>
     <g id="text_14">
      <!-- 2.5 -->
      <g transform="translate(25.0125 206.524768) scale(0.12 -0.12)">
       <use xlink:href="#SimHei-32"/>
       <use xlink:href="#SimHei-2e" transform="translate(50 0)"/>
       <use xlink:href="#SimHei-35" transform="translate(100 0)"/>
      </g>
     </g>
    </g>
    <g id="ytick_5">
     <g id="line2d_27">
      <path d="M 50.0125 164.739481 
L 676.4125 164.739481 
" clip-path="url(#p2fa23125fe)" style="fill: none; stroke-dasharray: 2.22,0.96; stroke-dashoffset: 0; stroke: #b0b0b0; stroke-opacity: 0.25; stroke-width: 0.6"/>
     </g>
     <g id="line2d_28">
      <g>
       <use xlink:href="#m8884cb81d5" x="50.0125" y="164.739481" style="stroke: #000000; stroke-width: 0.8"/>
      </g>
     </g>
     <g id="text_15">
      <!-- 3.0 -->
      <g transform="translate(25.0125 168.864481) scale(0.12 -0.12)">
       <use xlink:href="#SimHei-33"/>
       <use xlink:href="#SimHei-2e" transform="translate(50 0)"/>
       <use xlink:href="#SimHei-30" transform="translate(100 0)"/>
      </g>
     </g>
    </g>
    <g id="ytick_6">
     <g id="line2d_29">
      <path d="M 50.0125 127.079194 
L 676.4125 127.079194 
" clip-path="url(#p2fa23125fe)" style="fill: none; stroke-dasharray: 2.22,0.96; stroke-dashoffset: 0; stroke: #b0b0b0; stroke-opacity: 0.25; stroke-width: 0.6"/>
     </g>
     <g id="line2d_30">
      <g>
       <use xlink:href="#m8884cb81d5" x="50.0125" y="127.079194" style="stroke: #000000; stroke-width: 0.8"/>
      </g>
     </g>
     <g id="text_16">
      <!-- 3.5 -->
      <g transform="translate(25.0125 131.204194) scale(0.12 -0.12)">
       <use xlink:href="#SimHei-33"/>
       <use xlink:href="#SimHei-2e" transform="translate(50 0)"/>
       <use xlink:href="#SimHei-35" transform="translate(100 0)"/>
      </g>
     </g>
    </g>
    <g id="ytick_7">
     <g id="line2d_31">
      <path d="M 50.0125 89.418907 
L 676.4125 89.418907 
" clip-path="url(#p2fa23125fe)" style="fill: none; stroke-dasharray: 2.22,0.96; stroke-dashoffset: 0; stroke: #b0b0b0; stroke-opacity: 0.25; stroke-width: 0.6"/>
     </g>
     <g id="line2d_32">
      <g>
       <use xlink:href="#m8884cb81d5" x="50.0125" y="89.418907" style="stroke: #000000; stroke-width: 0.8"/>
      </g>
     </g>
     <g id="text_17">
      <!-- 4.0 -->
      <g transform="translate(25.0125 93.543907) scale(0.12 -0.12)">
       <use xlink:href="#SimHei-34"/>
       <use xlink:href="#SimHei-2e" transform="translate(50 0)"/>
       <use xlink:href="#SimHei-30" transform="translate(100 0)"/>
      </g>
     </g>
    </g>
    <g id="ytick_8">
     <g id="line2d_33">
      <path d="M 50.0125 51.75862 
L 676.4125 51.75862 
" clip-path="url(#p2fa23125fe)" style="fill: none; stroke-dasharray: 2.22,0.96; stroke-dashoffset: 0; stroke: #b0b0b0; stroke-opacity: 0.25; stroke-width: 0.6"/>
     </g>
     <g id="line2d_34">
      <g>
       <use xlink:href="#m8884cb81d5" x="50.0125" y="51.75862" style="stroke: #000000; stroke-width: 0.8"/>
      </g>
     </g>
     <g id="text_18">
      <!-- 4.5 -->
      <g transform="translate(25.0125 55.88362) scale(0.12 -0.12)">
       <use xlink:href="#SimHei-34"/>
       <use xlink:href="#SimHei-2e" transform="translate(50 0)"/>
       <use xlink:href="#SimHei-35" transform="translate(100 0)"/>
      </g>
     </g>
    </g>
    <g id="text_19">
     <!-- Total Task Energy -->
     <g transform="translate(18.8875 264.4336) rotate(-90) scale(0.17 -0.17)">
      <defs>
       <path id="SimHei-54" d="M 2850 3925 
L 1850 3925 
L 1850 125 
L 1275 125 
L 1275 3925 
L 275 3925 
L 275 4400 
L 2850 4400 
L 2850 3925 
z
" transform="scale(0.015625)"/>
       <path id="SimHei-74" d="M 2750 200 
Q 2625 150 2462 112 
Q 2300 75 2025 75 
Q 1575 75 1300 325 
Q 1025 575 1025 1025 
L 1025 2525 
L 175 2525 
L 175 2925 
L 1025 2925 
L 1025 3900 
L 1525 3900 
L 1525 2925 
L 2550 2925 
L 2550 2525 
L 1525 2525 
L 1525 1000 
Q 1525 800 1625 662 
Q 1725 525 2000 525 
Q 2275 525 2450 575 
Q 2625 625 2750 700 
L 2750 200 
z
" transform="scale(0.015625)"/>
       <path id="SimHei-61" d="M 2875 125 
L 2275 125 
Q 2225 175 2200 262 
Q 2175 350 2175 475 
Q 2000 275 1750 175 
Q 1500 75 1225 75 
Q 825 75 550 275 
Q 275 475 275 850 
Q 275 1225 525 1450 
Q 775 1675 1300 1750 
Q 1650 1800 1912 1875 
Q 2175 1950 2175 2075 
Q 2175 2225 2062 2375 
Q 1950 2525 1575 2525 
Q 1275 2525 1137 2412 
Q 1000 2300 950 2100 
L 400 2100 
Q 450 2500 762 2737 
Q 1075 2975 1575 2975 
Q 2125 2975 2400 2725 
Q 2675 2475 2675 2025 
L 2675 650 
Q 2675 500 2725 375 
Q 2775 250 2875 125 
z
M 2175 1050 
L 2175 1550 
Q 2025 1500 1887 1462 
Q 1750 1425 1425 1375 
Q 1050 1325 937 1200 
Q 825 1075 825 900 
Q 825 750 937 637 
Q 1050 525 1275 525 
Q 1500 525 1762 650 
Q 2025 775 2175 1050 
z
" transform="scale(0.015625)"/>
       <path id="SimHei-6c" d="M 1825 125 
L 1325 125 
L 1325 4400 
L 1825 4400 
L 1825 125 
z
" transform="scale(0.015625)"/>
       <path id="SimHei-20" transform="scale(0.015625)"/>
       <path id="SimHei-6b" d="M 2925 125 
L 2350 125 
L 1450 1650 
L 875 1100 
L 875 125 
L 375 125 
L 375 4400 
L 875 4400 
L 875 1675 
L 2125 2925 
L 2750 2925 
L 1775 1975 
L 2925 125 
z
" transform="scale(0.015625)"/>
       <path id="SimHei-6e" d="M 2800 125 
L 2300 125 
L 2300 1925 
Q 2300 2225 2150 2400 
Q 2000 2575 1750 2575 
Q 1425 2575 1137 2237 
Q 850 1900 850 1400 
L 850 125 
L 350 125 
L 350 2925 
L 850 2925 
L 850 2400 
Q 1050 2675 1287 2825 
Q 1525 2975 1900 2975 
Q 2350 2975 2575 2725 
Q 2800 2475 2800 2100 
L 2800 125 
z
" transform="scale(0.015625)"/>
       <path id="SimHei-72" d="M 2500 2425 
Q 2025 2500 1700 2287 
Q 1375 2075 1150 1550 
L 1150 125 
L 650 125 
L 650 2925 
L 1150 2925 
L 1150 2200 
Q 1375 2600 1712 2787 
Q 2050 2975 2500 2975 
L 2500 2425 
z
" transform="scale(0.015625)"/>
       <path id="SimHei-67" d="M 2975 2500 
Q 2800 2550 2637 2562 
Q 2475 2575 2300 2525 
Q 2375 2450 2425 2337 
Q 2475 2225 2475 2000 
Q 2475 1575 2187 1300 
Q 1900 1025 1475 1025 
Q 1375 1025 1212 1062 
Q 1050 1100 950 1150 
Q 875 1100 850 1050 
Q 825 1000 825 925 
Q 825 800 1000 737 
Q 1175 675 1625 675 
Q 2350 675 2612 475 
Q 2875 275 2875 -25 
Q 2875 -425 2487 -612 
Q 2100 -800 1575 -800 
Q 900 -800 575 -625 
Q 250 -450 250 -150 
Q 250 0 375 150 
Q 500 300 700 400 
Q 550 475 462 587 
Q 375 700 375 875 
Q 375 1025 487 1137 
Q 600 1250 750 1325 
Q 625 1450 550 1625 
Q 475 1800 475 2000 
Q 475 2425 762 2700 
Q 1050 2975 1475 2975 
Q 1700 2975 1862 2912 
Q 2025 2850 2150 2725 
Q 2350 2875 2550 2937 
Q 2750 3000 2975 2975 
L 2975 2500 
z
M 1975 2000 
Q 1975 2250 1850 2400 
Q 1725 2550 1475 2550 
Q 1225 2550 1100 2400 
Q 975 2250 975 2000 
Q 975 1750 1100 1600 
Q 1225 1450 1475 1450 
Q 1725 1450 1850 1600 
Q 1975 1750 1975 2000 
z
M 2400 -75 
Q 2400 25 2287 125 
Q 2175 225 1725 225 
Q 1625 225 1450 237 
Q 1275 250 1050 275 
Q 850 200 775 100 
Q 700 0 700 -100 
Q 700 -250 900 -350 
Q 1100 -450 1600 -450 
Q 2025 -450 2212 -337 
Q 2400 -225 2400 -75 
z
" transform="scale(0.015625)"/>
       <path id="SimHei-79" d="M 2900 2925 
L 1750 -100 
Q 1650 -450 1450 -625 
Q 1250 -800 950 -800 
Q 825 -800 712 -787 
Q 600 -775 500 -725 
L 500 -225 
Q 600 -275 700 -300 
Q 800 -325 875 -325 
Q 1075 -325 1150 -262 
Q 1225 -200 1300 25 
L 200 2925 
L 750 2925 
L 1550 725 
L 1575 725 
L 2350 2925 
L 2900 2925 
z
" transform="scale(0.015625)"/>
      </defs>
      <use xlink:href="#SimHei-54"/>
      <use xlink:href="#SimHei-6f" transform="translate(50 0)"/>
      <use xlink:href="#SimHei-74" transform="translate(100 0)"/>
      <use xlink:href="#SimHei-61" transform="translate(150 0)"/>
      <use xlink:href="#SimHei-6c" transform="translate(200 0)"/>
      <use xlink:href="#SimHei-20" transform="translate(250 0)"/>
      <use xlink:href="#SimHei-54" transform="translate(300 0)"/>
      <use xlink:href="#SimHei-61" transform="translate(350 0)"/>
      <use xlink:href="#SimHei-73" transform="translate(400 0)"/>
      <use xlink:href="#SimHei-6b" transform="translate(450 0)"/>
      <use xlink:href="#SimHei-20" transform="translate(500 0)"/>
      <use xlink:href="#SimHei-45" transform="translate(550 0)"/>
      <use xlink:href="#SimHei-6e" transform="translate(600 0)"/>
      <use xlink:href="#SimHei-65" transform="translate(650 0)"/>
      <use xlink:href="#SimHei-72" transform="translate(700 0)"/>
      <use xlink:href="#SimHei-67" transform="translate(750 0)"/>
      <use xlink:href="#SimHei-79" transform="translate(800 0)"/>
     </g>
    </g>
   </g>
   <g id="line2d_35">
    <path d="M 78.485227 48.838145 
L 79.912432 55.003314 
L 81.339636 56.299628 
L 82.76684 66.797665 
L 84.194045 69.137678 
L 85.621249 73.153646 
L 87.048454 86.037759 
L 88.475658 93.569814 
L 89.902862 97.366225 
L 91.330067 103.709774 
L 92.757271 102.509322 
L 94.184475 114.063815 
L 95.61168 122.046155 
L 98.466089 130.251711 
L 99.893293 135.298094 
L 101.320497 141.338751 
L 102.747702 139.979707 
L 104.174906 144.431806 
L 105.60211 151.355202 
L 107.029315 151.388104 
L 109.883724 169.053977 
L 111.310928 176.265067 
L 112.738132 174.6958 
L 114.165337 180.264191 
L 117.019745 195.36272 
L 119.874154 209.065847 
L 121.301359 215.41702 
L 124.155767 226.388456 
L 129.864585 246.024994 
L 134.146198 258.927119 
L 137.000607 266.229635 
L 139.855015 272.339787 
L 141.28222 267.959491 
L 142.709424 271.32123 
L 144.136629 270.885298 
L 148.418242 280.016421 
L 149.845446 282.284274 
L 151.27265 284.966926 
L 155.554263 292.048034 
L 158.408672 296.140511 
L 159.835877 297.86873 
L 161.263081 296.582796 
L 162.690285 298.609858 
L 166.971898 303.181789 
L 168.399103 286.429779 
L 169.826307 288.964147 
L 171.253512 283.500996 
L 172.680716 285.56134 
L 174.10792 288.128524 
L 175.535125 290.338664 
L 176.962329 292.336452 
L 178.389533 294.783208 
L 179.816738 289.431537 
L 181.243942 278.969383 
L 182.671147 277.586487 
L 184.098351 271.181475 
L 185.525555 268.520895 
L 186.95276 267.090684 
L 189.807168 272.902886 
L 191.234373 273.970776 
L 192.661577 272.136604 
L 194.088782 272.848646 
L 195.515986 275.680676 
L 196.94319 271.549383 
L 198.370395 271.656381 
L 199.797599 271.49913 
L 201.224803 264.158823 
L 202.652008 266.739868 
L 205.506417 273.475127 
L 206.933621 275.080721 
L 208.360825 256.736985 
L 209.78803 251.697378 
L 211.215234 253.805897 
L 212.642438 252.732871 
L 214.069643 250.415566 
L 215.496847 247.85757 
L 216.924052 233.121604 
L 218.351256 237.017586 
L 219.77846 232.220836 
L 221.205665 225.126514 
L 222.632869 209.713002 
L 224.060073 206.701943 
L 225.487278 210.192812 
L 226.914482 204.972 
L 228.341687 207.674073 
L 229.768891 204.05903 
L 231.196095 207.15785 
L 232.6233 212.350462 
L 234.050504 213.107056 
L 235.477708 209.878954 
L 236.904913 213.71805 
L 238.332117 214.329037 
L 239.759322 205.123637 
L 241.186526 206.461841 
L 242.61373 204.365146 
L 244.040935 203.808219 
L 245.468139 200.279355 
L 246.895343 192.852592 
L 248.322548 195.124675 
L 249.749752 188.244188 
L 251.176957 190.219566 
L 252.604161 185.708566 
L 254.031365 186.734889 
L 255.45857 186.893694 
L 256.885774 191.740623 
L 258.312978 194.91763 
L 259.740183 173.743539 
L 262.594592 167.270154 
L 264.021796 171.013623 
L 265.449 178.336481 
L 266.876205 182.833448 
L 268.303409 185.776355 
L 269.730613 191.648454 
L 271.157818 193.669046 
L 272.585022 194.936658 
L 274.012227 191.81358 
L 275.439431 195.292822 
L 276.866635 195.58868 
L 278.29384 193.27131 
L 279.721044 198.616357 
L 281.148248 199.870208 
L 282.575453 202.365236 
L 284.002657 208.393536 
L 285.429862 208.291329 
L 286.857066 211.476412 
L 288.28427 209.695998 
L 289.711475 215.302896 
L 291.138679 216.529654 
L 292.565883 207.633731 
L 293.993088 209.680899 
L 296.847497 197.170181 
L 298.274701 192.663851 
L 299.701905 195.731236 
L 301.12911 196.57838 
L 302.556314 197.640321 
L 303.983518 203.89202 
L 305.410723 198.985406 
L 306.837927 204.873239 
L 308.265132 199.92943 
L 309.692336 205.261058 
L 311.11954 206.498859 
L 312.546745 212.751411 
L 313.973949 207.203229 
L 315.401153 203.64827 
L 316.828358 205.558036 
L 318.255562 204.46268 
L 319.682767 210.355895 
L 321.109971 215.603889 
L 322.537175 216.738423 
L 323.96438 216.847 
L 325.391584 207.03477 
L 326.818788 212.655229 
L 328.245993 210.217005 
L 329.673197 212.907464 
L 331.100402 212.943552 
L 332.527606 208.663229 
L 333.95481 211.614791 
L 335.382015 212.200743 
L 336.809219 214.139884 
L 338.236423 212.56838 
L 339.663628 213.21331 
L 341.090832 215.445591 
L 342.518037 218.370094 
L 345.372445 213.686946 
L 346.79965 215.264439 
L 348.226854 217.898537 
L 349.654058 215.530005 
L 351.081263 205.445203 
L 352.508467 211.830779 
L 353.935672 214.65908 
L 356.79008 224.749034 
L 358.217285 223.951573 
L 359.644489 221.773454 
L 361.071693 223.438663 
L 362.498898 219.900336 
L 363.926102 224.955067 
L 365.353307 225.329275 
L 366.780511 226.518567 
L 368.207715 228.297291 
L 369.63492 227.878444 
L 371.062124 232.933657 
L 372.489328 231.272012 
L 373.916533 235.069297 
L 375.343737 239.351487 
L 376.770942 237.133908 
L 378.198146 239.005818 
L 379.62535 238.042397 
L 381.052555 237.488619 
L 382.479759 225.195166 
L 383.906963 228.176845 
L 385.334168 218.105603 
L 386.761372 220.671189 
L 388.188577 221.946925 
L 389.615781 224.910564 
L 391.042985 222.612679 
L 392.47019 206.452845 
L 395.324598 197.080609 
L 396.751803 202.848153 
L 398.179007 205.476456 
L 399.606212 210.053679 
L 401.033416 212.63542 
L 402.46062 206.682079 
L 403.887825 203.838652 
L 405.315029 199.340443 
L 406.742233 205.517195 
L 408.169438 207.749989 
L 409.596642 205.995928 
L 411.023847 202.452175 
L 412.451051 201.971863 
L 415.30546 202.216042 
L 416.732664 200.393148 
L 418.159868 205.800707 
L 419.587073 204.507012 
L 421.014277 208.470219 
L 422.441482 208.750825 
L 423.868686 204.891836 
L 425.29589 208.664066 
L 426.723095 202.869145 
L 428.150299 193.603441 
L 429.577503 200.181733 
L 431.004708 199.81891 
L 432.431912 192.224733 
L 433.859117 193.048256 
L 435.286321 199.280299 
L 436.713525 200.82187 
L 438.14073 207.073115 
L 439.567934 212.24622 
L 440.995138 210.741152 
L 442.422343 214.106394 
L 443.849547 216.794829 
L 445.276752 221.16721 
L 446.703956 219.263736 
L 449.558365 223.766977 
L 450.985569 216.058396 
L 452.412773 215.286201 
L 453.839978 216.428317 
L 455.267182 220.349265 
L 456.694387 215.337798 
L 458.121591 220.592869 
L 459.548795 216.908196 
L 460.976 217.468711 
L 462.403204 222.714555 
L 463.830408 226.253498 
L 465.257613 220.443515 
L 466.684817 222.325856 
L 468.112022 224.748519 
L 469.539226 226.801774 
L 470.96643 230.241144 
L 472.393635 220.920808 
L 473.820839 219.001074 
L 475.248043 201.586117 
L 476.675248 202.993358 
L 478.102452 203.038057 
L 479.529657 204.496196 
L 480.956861 208.269879 
L 482.384065 204.615165 
L 483.81127 208.282307 
L 485.238474 202.753813 
L 486.665678 202.265239 
L 488.092883 190.771677 
L 489.520087 197.194187 
L 490.947292 199.341956 
L 492.374496 200.980701 
L 493.8017 192.846021 
L 495.228905 190.194283 
L 496.656109 195.411599 
L 498.083313 193.75951 
L 499.510518 198.837634 
L 500.937722 199.442513 
L 502.364927 198.20724 
L 503.792131 203.59343 
L 505.219335 209.949317 
L 506.64654 198.317656 
L 508.073744 198.035919 
L 509.500948 193.386671 
L 510.928153 183.532979 
L 512.355357 182.56645 
L 513.782562 186.519833 
L 515.209766 193.291692 
L 516.63697 196.976849 
L 518.064175 199.993658 
L 519.491379 200.261607 
L 520.918583 195.676272 
L 522.345788 200.566458 
L 523.772992 201.868083 
L 525.200197 196.275361 
L 526.627401 185.143595 
L 528.054605 190.82637 
L 529.48181 187.408383 
L 530.909014 168.78528 
L 532.336218 174.634318 
L 533.763423 178.532236 
L 535.190627 185.934847 
L 536.617832 188.066523 
L 538.045036 193.690289 
L 539.47224 197.727667 
L 542.326649 187.517836 
L 543.753853 193.662876 
L 545.181058 195.701302 
L 546.608262 192.394088 
L 548.035467 180.194466 
L 549.462671 186.690312 
L 550.889875 190.682194 
L 552.31708 192.603703 
L 553.744284 197.202162 
L 555.171488 199.972292 
L 556.598693 205.345382 
L 558.025897 205.294567 
L 559.453102 211.309265 
L 560.880306 210.33635 
L 562.30751 215.410255 
L 563.734715 221.18243 
L 565.161919 221.819125 
L 566.589123 215.235976 
L 568.016328 216.624952 
L 569.443532 221.993608 
L 570.870737 219.704095 
L 572.297941 220.233993 
L 573.725145 221.001653 
L 575.15235 226.087748 
L 576.579554 226.631339 
L 578.006758 232.046892 
L 579.433963 235.489064 
L 580.861167 239.563272 
L 582.288371 234.324868 
L 583.715576 238.843261 
L 585.14278 236.871479 
L 586.569985 241.201451 
L 587.997189 243.63405 
L 589.424393 242.211684 
L 590.851598 244.308784 
L 592.278802 246.973427 
L 593.706006 237.899647 
L 595.133211 239.446933 
L 596.560415 238.342068 
L 597.98762 239.549039 
L 599.414824 233.916559 
L 600.842028 235.045835 
L 602.269233 236.784605 
L 603.696437 239.40551 
L 605.123641 241.617588 
L 606.550846 238.790589 
L 607.97805 242.57072 
L 609.405255 241.637584 
L 610.832459 231.270242 
L 612.259663 234.713632 
L 613.686868 237.666761 
L 615.114072 238.952717 
L 616.541276 239.109224 
L 617.968481 222.233421 
L 619.395685 221.98364 
L 620.82289 226.257926 
L 622.250094 222.27755 
L 623.677298 223.032918 
L 625.104503 223.417049 
L 626.531707 227.119869 
L 627.958911 224.954684 
L 629.386116 229.103953 
L 630.81332 226.439795 
L 632.240525 225.042992 
L 633.667729 214.846896 
L 635.094933 218.270526 
L 636.522138 216.758215 
L 637.949342 218.043004 
L 639.376546 217.550354 
L 640.803751 216.525623 
L 642.230955 218.465668 
L 643.65816 216.351461 
L 645.085364 207.614253 
L 646.512568 205.012587 
L 646.512568 205.012587 
" clip-path="url(#p2fa23125fe)" style="fill: none; stroke: #1f77b4; stroke-width: 1.2; stroke-linecap: square"/>
   </g>
   <g id="line2d_36">
    <path d="M 78.485227 213.871871 
L 79.912432 203.663189 
L 81.339636 200.816256 
L 82.76684 202.225429 
L 85.621249 180.257738 
L 87.048454 178.290121 
L 88.475658 167.304325 
L 89.902862 163.627968 
L 91.330067 151.074195 
L 92.757271 156.578855 
L 94.184475 160.840898 
L 95.61168 167.748582 
L 97.038884 168.484061 
L 98.466089 167.977272 
L 99.893293 172.803476 
L 101.320497 168.165231 
L 102.747702 146.251325 
L 104.174906 149.213415 
L 105.60211 153.43407 
L 107.029315 147.699296 
L 108.456519 149.437046 
L 109.883724 157.592935 
L 111.310928 140.538596 
L 114.165337 151.197246 
L 115.592541 146.969222 
L 117.019745 140.681012 
L 118.44695 145.979573 
L 119.874154 149.665504 
L 121.301359 151.444886 
L 124.155767 157.020012 
L 125.582972 158.445139 
L 127.010176 161.709534 
L 129.864585 154.788481 
L 132.718994 162.300943 
L 134.146198 160.168935 
L 135.573402 162.654846 
L 137.000607 156.691254 
L 138.427811 158.509254 
L 141.28222 169.959309 
L 142.709424 172.538563 
L 144.136629 172.558019 
L 146.991037 182.737901 
L 148.418242 175.606678 
L 149.845446 174.853098 
L 151.27265 178.107583 
L 152.699855 179.881735 
L 154.127059 184.212967 
L 155.554263 180.925301 
L 156.981468 185.468815 
L 158.408672 178.662288 
L 159.835877 181.196557 
L 161.263081 184.902292 
L 162.690285 190.587597 
L 164.11749 185.275596 
L 165.544694 190.033419 
L 166.971898 193.276372 
L 168.399103 198.046879 
L 169.826307 192.550396 
L 171.253512 192.112082 
L 172.680716 190.271816 
L 174.10792 195.197468 
L 175.535125 198.548589 
L 176.962329 202.734176 
L 178.389533 202.459458 
L 179.816738 205.627323 
L 181.243942 206.003021 
L 182.671147 208.605638 
L 184.098351 208.191279 
L 185.525555 212.574338 
L 186.95276 210.530311 
L 188.379964 214.543254 
L 189.807168 213.238069 
L 191.234373 218.172675 
L 194.088782 226.728279 
L 195.515986 225.160277 
L 196.94319 229.669838 
L 198.370395 222.9341 
L 199.797599 225.473176 
L 201.224803 225.083236 
L 202.652008 229.529364 
L 204.079212 229.601915 
L 205.506417 223.467035 
L 206.933621 221.015156 
L 209.78803 230.347685 
L 211.215234 233.438731 
L 212.642438 235.020045 
L 214.069643 237.709059 
L 215.496847 236.33939 
L 216.924052 238.204715 
L 218.351256 233.606742 
L 219.77846 230.462938 
L 221.205665 229.938289 
L 222.632869 234.163637 
L 224.060073 238.806242 
L 225.487278 242.82145 
L 226.914482 244.782065 
L 228.341687 244.538933 
L 229.768891 248.58886 
L 231.196095 249.574014 
L 232.6233 251.696351 
L 235.477708 258.778898 
L 236.904913 260.190877 
L 238.332117 251.926616 
L 239.759322 255.625124 
L 241.186526 255.985319 
L 242.61373 258.688148 
L 244.040935 262.16375 
L 245.468139 264.793515 
L 246.895343 265.168711 
L 248.322548 266.676996 
L 249.749752 269.587103 
L 251.176957 269.358935 
L 252.604161 272.532388 
L 254.031365 275.179171 
L 255.45857 277.242048 
L 256.885774 276.478494 
L 258.312978 279.278492 
L 259.740183 281.556708 
L 261.167387 280.328534 
L 264.021796 284.669413 
L 265.449 283.55141 
L 266.876205 285.842095 
L 268.303409 285.408179 
L 269.730613 287.146056 
L 271.157818 288.496154 
L 272.585022 288.64059 
L 275.439431 291.03248 
L 276.866635 291.220547 
L 278.29384 291.739514 
L 279.721044 294.040363 
L 282.575453 293.038664 
L 284.002657 294.660878 
L 285.429862 288.533736 
L 288.28427 292.506442 
L 289.711475 294.180265 
L 291.138679 290.635402 
L 292.565883 288.734941 
L 293.993088 290.681583 
L 295.420292 287.926371 
L 296.847497 289.992997 
L 298.274701 287.002236 
L 301.12911 291.272764 
L 302.556314 290.856922 
L 303.983518 288.723247 
L 305.410723 290.820265 
L 306.837927 288.452894 
L 309.692336 290.841497 
L 311.11954 289.194047 
L 312.546745 291.057111 
L 313.973949 291.952431 
L 316.828358 295.106319 
L 318.255562 296.368496 
L 319.682767 297.451652 
L 322.537175 300.436239 
L 323.96438 299.570228 
L 325.391584 300.701052 
L 326.818788 302.060263 
L 328.245993 300.603095 
L 329.673197 301.558085 
L 331.100402 302.952585 
L 332.527606 303.977826 
L 333.95481 300.363631 
L 335.382015 301.570354 
L 336.809219 301.52538 
L 339.663628 303.741013 
L 341.090832 304.324309 
L 343.945241 307.414022 
L 345.372445 307.539027 
L 346.79965 308.917071 
L 348.226854 309.767665 
L 349.654058 309.528183 
L 351.081263 310.531098 
L 352.508467 310.888965 
L 355.362876 312.550867 
L 356.79008 312.426468 
L 358.217285 311.192923 
L 362.498898 313.971762 
L 363.926102 313.29877 
L 365.353307 314.221194 
L 368.207715 315.623783 
L 369.63492 316.071632 
L 371.062124 316.784738 
L 372.489328 315.3037 
L 373.916533 314.707097 
L 375.343737 315.453349 
L 376.770942 316.066858 
L 378.198146 317.2287 
L 379.62535 317.680947 
L 381.052555 317.961554 
L 382.479759 316.077123 
L 383.906963 317.012512 
L 386.761372 318.394191 
L 388.188577 318.895237 
L 389.615781 319.112642 
L 391.042985 319.675951 
L 392.47019 317.327029 
L 393.897394 318.326886 
L 396.751803 319.850669 
L 399.606212 320.440993 
L 401.033416 321.177584 
L 402.46062 317.581055 
L 403.887825 318.622764 
L 405.315029 319.261369 
L 406.742233 317.778388 
L 408.169438 318.570942 
L 409.596642 318.808362 
L 411.023847 319.71791 
L 412.451051 319.643643 
L 413.878255 316.847287 
L 415.30546 316.749439 
L 418.159868 318.577312 
L 419.587073 319.203232 
L 421.014277 317.511373 
L 422.441482 318.426348 
L 423.868686 318.603915 
L 425.29589 318.300023 
L 426.723095 318.82681 
L 428.150299 319.004853 
L 429.577503 317.995734 
L 432.431912 319.392865 
L 433.859117 317.595411 
L 435.286321 318.130718 
L 436.713525 319.032356 
L 440.995138 321.392581 
L 442.422343 322.266252 
L 443.849547 322.9478 
L 446.703956 323.468963 
L 448.13116 323.985905 
L 449.558365 323.608377 
L 453.839978 324.78293 
L 455.267182 325.264462 
L 456.694387 325.292383 
L 458.121591 325.891166 
L 460.976 326.557885 
L 462.403204 324.659851 
L 463.830408 324.928849 
L 465.257613 325.584959 
L 466.684817 325.866761 
L 468.112022 326.396447 
L 469.539226 326.664728 
L 470.96643 326.786046 
L 473.820839 327.28421 
L 475.248043 327.839733 
L 478.102452 328.002119 
L 480.956861 328.83879 
L 482.384065 328.989006 
L 485.238474 329.657306 
L 488.092883 329.951281 
L 489.520087 330.116713 
L 490.947292 330.595917 
L 492.374496 330.752973 
L 493.8017 328.278304 
L 495.228905 328.626335 
L 496.656109 327.527074 
L 498.083313 328.011693 
L 499.510518 328.358963 
L 500.937722 326.691549 
L 502.364927 327.003927 
L 503.792131 327.174105 
L 508.073744 327.163126 
L 512.355357 328.007955 
L 519.491379 328.847992 
L 520.918583 329.319238 
L 522.345788 329.662152 
L 523.772992 326.82876 
L 525.200197 325.722184 
L 526.627401 326.347096 
L 528.054605 321.578625 
L 529.48181 319.554519 
L 533.763423 321.465275 
L 535.190627 319.150602 
L 538.045036 320.500444 
L 539.47224 321.307183 
L 540.899445 321.884308 
L 542.326649 322.274179 
L 543.753853 322.475822 
L 546.608262 323.959343 
L 548.035467 324.382679 
L 549.462671 322.065186 
L 550.889875 322.797986 
L 558.025897 325.2448 
L 559.453102 325.964589 
L 560.880306 325.133076 
L 566.589123 326.601558 
L 568.016328 327.032987 
L 569.443532 327.067753 
L 573.725145 328.405654 
L 575.15235 328.464844 
L 576.579554 319.918223 
L 579.433963 321.197611 
L 582.288371 322.240901 
L 583.715576 322.9803 
L 589.424393 324.440114 
L 592.278802 325.45826 
L 593.706006 323.554634 
L 600.842028 326.084664 
L 603.696437 326.944988 
L 605.123641 327.158627 
L 606.550846 327.509082 
L 607.97805 328.095929 
L 610.832459 328.986981 
L 612.259663 329.350935 
L 615.114072 329.223665 
L 617.968481 329.519248 
L 619.395685 329.486306 
L 622.250094 330.144168 
L 623.677298 330.314179 
L 625.104503 330.300796 
L 626.531707 330.64876 
L 627.958911 330.54813 
L 630.81332 330.728432 
L 632.240525 330.927891 
L 633.667729 330.947583 
L 636.522138 331.343526 
L 637.949342 331.342829 
L 639.376546 331.47886 
L 640.803751 330.193987 
L 643.65816 330.615646 
L 645.085364 330.581232 
L 646.512568 330.887356 
L 646.512568 330.887356 
" clip-path="url(#p2fa23125fe)" style="fill: none; stroke: #ff7f0e; stroke-width: 1.2; stroke-linecap: square"/>
   </g>
   <g id="line2d_37">
    <path d="M 78.485227 268.409081 
L 79.912432 268.590165 
L 81.339636 253.935947 
L 82.76684 253.051046 
L 84.194045 248.748054 
L 85.621249 248.572339 
L 87.048454 242.687261 
L 88.475658 241.82675 
L 89.902862 239.240474 
L 91.330067 237.723291 
L 92.757271 234.959698 
L 94.184475 238.330263 
L 95.61168 233.376279 
L 97.038884 231.435111 
L 98.466089 234.375992 
L 99.893293 225.902402 
L 101.320497 225.622659 
L 102.747702 219.283786 
L 104.174906 216.829442 
L 105.60211 206.316545 
L 107.029315 205.188693 
L 108.456519 199.842774 
L 109.883724 187.430828 
L 111.310928 190.640958 
L 112.738132 195.368177 
L 114.165337 192.4984 
L 117.019745 205.896837 
L 118.44695 204.220878 
L 124.155767 227.94009 
L 125.582972 232.967359 
L 127.010176 236.52924 
L 128.43738 237.090835 
L 129.864585 239.990432 
L 131.291789 241.785635 
L 132.718994 238.820378 
L 134.146198 239.954696 
L 135.573402 239.777518 
L 137.000607 234.816635 
L 138.427811 232.208743 
L 139.855015 232.834324 
L 141.28222 235.536867 
L 142.709424 225.61097 
L 144.136629 228.552091 
L 145.563833 230.182152 
L 146.991037 231.351576 
L 148.418242 235.774767 
L 151.27265 243.400594 
L 152.699855 241.86155 
L 154.127059 241.810977 
L 155.554263 236.3481 
L 156.981468 239.187441 
L 158.408672 235.162934 
L 159.835877 238.076704 
L 161.263081 237.87246 
L 162.690285 236.906366 
L 164.11749 240.473257 
L 165.544694 243.172731 
L 166.971898 247.226142 
L 168.399103 245.815038 
L 169.826307 248.049357 
L 171.253512 249.696792 
L 172.680716 248.539543 
L 174.10792 252.214369 
L 175.535125 253.350386 
L 176.962329 243.286858 
L 178.389533 242.715151 
L 181.243942 250.349693 
L 182.671147 252.187525 
L 184.098351 256.444661 
L 185.525555 260.338347 
L 189.807168 270.559032 
L 191.234373 273.694305 
L 196.94319 284.961282 
L 199.797599 289.963677 
L 205.506417 298.648299 
L 206.933621 300.475478 
L 209.78803 303.660022 
L 211.215234 305.476257 
L 212.642438 306.902923 
L 214.069643 308.022831 
L 215.496847 309.560109 
L 219.77846 313.55383 
L 221.205665 314.708693 
L 226.914482 318.288878 
L 228.341687 318.785161 
L 229.768891 319.48316 
L 231.196095 320.00673 
L 232.6233 320.739609 
L 235.477708 321.554447 
L 238.332117 323.079923 
L 239.759322 323.435068 
L 241.186526 324.024254 
L 242.61373 324.455767 
L 245.468139 324.58007 
L 246.895343 325.009565 
L 249.749752 326.162784 
L 251.176957 326.472985 
L 252.604161 327.039178 
L 256.885774 328.135156 
L 259.740183 328.249767 
L 266.876205 330.203389 
L 268.303409 330.283173 
L 269.730613 330.53441 
L 271.157818 330.912748 
L 281.148248 332.190756 
L 282.575453 331.979318 
L 285.429862 331.819956 
L 288.28427 332.617564 
L 291.138679 332.964917 
L 292.565883 332.689117 
L 295.420292 332.966434 
L 296.847497 333.092467 
L 299.701905 332.820557 
L 301.12911 333.056974 
L 302.556314 333.175003 
L 303.983518 332.827789 
L 309.692336 333.215002 
L 311.11954 332.888031 
L 312.546745 333.10436 
L 321.109971 333.675785 
L 322.537175 333.487175 
L 323.96438 333.425801 
L 325.391584 333.48138 
L 326.818788 333.259451 
L 328.245993 333.266074 
L 329.673197 333.631587 
L 331.100402 333.49918 
L 332.527606 333.857394 
L 336.809219 334.307805 
L 339.663628 334.473818 
L 341.090832 334.788446 
L 342.518037 334.9676 
L 343.945241 334.933242 
L 345.372445 334.601185 
L 349.654058 335.116107 
L 351.081263 335.162787 
L 352.508467 334.886167 
L 353.935672 334.836895 
L 355.362876 334.558194 
L 361.071693 334.62475 
L 362.498898 334.58241 
L 363.926102 334.806549 
L 365.353307 334.797441 
L 366.780511 334.560076 
L 368.207715 334.543077 
L 369.63492 334.769013 
L 375.343737 334.946207 
L 376.770942 334.682442 
L 381.052555 334.608663 
L 382.479759 334.494397 
L 383.906963 334.583158 
L 385.334168 334.81603 
L 389.615781 335.261415 
L 391.042985 335.087838 
L 396.751803 335.180808 
L 398.179007 335.017505 
L 399.606212 335.036657 
L 401.033416 335.289621 
L 402.46062 335.138954 
L 403.887825 335.13453 
L 405.315029 335.42155 
L 406.742233 335.529055 
L 408.169438 335.424876 
L 409.596642 335.51943 
L 411.023847 335.155063 
L 413.878255 334.699245 
L 415.30546 334.689536 
L 416.732664 334.326733 
L 418.159868 334.372706 
L 419.587073 334.591242 
L 421.014277 334.282947 
L 431.004708 333.778863 
L 432.431912 334.027002 
L 433.859117 334.139753 
L 435.286321 333.944564 
L 438.14073 334.478205 
L 439.567934 334.465155 
L 443.849547 334.832939 
L 445.276752 334.948526 
L 448.13116 334.661523 
L 449.558365 334.861113 
L 450.985569 334.890637 
L 452.412773 334.775418 
L 455.267182 334.816046 
L 456.694387 334.631211 
L 458.121591 334.185668 
L 459.548795 334.242557 
L 460.976 334.09402 
L 462.403204 333.79395 
L 463.830408 333.84868 
L 465.257613 334.119365 
L 466.684817 334.013401 
L 469.539226 334.114163 
L 470.96643 333.940314 
L 479.529657 334.271497 
L 480.956861 334.190077 
L 483.81127 334.761351 
L 485.238474 334.477691 
L 486.665678 334.359483 
L 489.520087 334.705397 
L 490.947292 334.303717 
L 492.374496 334.363322 
L 493.8017 334.685559 
L 502.364927 335.092823 
L 503.792131 334.843847 
L 508.073744 335.211434 
L 510.928153 335.330447 
L 512.355357 335.19226 
L 513.782562 335.385019 
L 515.209766 335.134077 
L 519.491379 334.780369 
L 522.345788 335.023757 
L 525.200197 334.406144 
L 528.054605 334.75338 
L 529.48181 334.933092 
L 530.909014 334.708772 
L 533.763423 334.935303 
L 536.617832 334.908777 
L 539.47224 334.990685 
L 540.899445 334.809279 
L 542.326649 334.822094 
L 543.753853 334.654806 
L 550.889875 335.132495 
L 552.31708 334.986963 
L 555.171488 335.280989 
L 558.025897 335.12627 
L 559.453102 335.278872 
L 560.880306 335.148863 
L 562.30751 334.527299 
L 563.734715 334.582882 
L 569.443532 334.126581 
L 570.870737 334.220163 
L 572.297941 334.104695 
L 575.15235 334.268908 
L 578.006758 334.453334 
L 580.861167 334.11958 
L 582.288371 333.967812 
L 583.715576 333.953756 
L 586.569985 334.298869 
L 587.997189 334.2722 
L 589.424393 334.008202 
L 593.706006 333.743766 
L 597.98762 333.913951 
L 603.696437 334.347682 
L 606.550846 334.212313 
L 607.97805 333.837909 
L 609.405255 334.148978 
L 612.259663 334.278092 
L 613.686868 334.461619 
L 615.114072 334.309273 
L 617.968481 334.507366 
L 619.395685 334.450824 
L 623.677298 334.558752 
L 625.104503 334.263533 
L 626.531707 334.082461 
L 627.958911 333.560093 
L 629.386116 333.790665 
L 633.667729 333.854736 
L 635.094933 333.691772 
L 637.949342 333.739003 
L 642.230955 334.108171 
L 643.65816 333.985917 
L 645.085364 334.037817 
L 646.512568 334.221238 
L 647.939773 334.160764 
L 647.939773 334.160764 
" clip-path="url(#p2fa23125fe)" style="fill: none; stroke: #2ca02c; stroke-width: 1.2; stroke-linecap: square"/>
   </g>
   <g id="line2d_38">
    <path d="M 78.485227 206.681039 
L 79.912432 192.351449 
L 81.339636 188.603934 
L 82.76684 175.89929 
L 84.194045 180.457843 
L 85.621249 169.828492 
L 87.048454 171.740354 
L 88.475658 170.747105 
L 89.902862 172.56779 
L 91.330067 173.875077 
L 92.757271 160.724123 
L 94.184475 156.656703 
L 95.61168 154.988071 
L 97.038884 152.624377 
L 98.466089 157.214868 
L 99.893293 160.177283 
L 101.320497 155.774417 
L 102.747702 135.147558 
L 104.174906 136.492908 
L 105.60211 134.384581 
L 107.029315 135.50121 
L 108.456519 132.30803 
L 109.883724 135.514039 
L 111.310928 137.092723 
L 112.738132 134.143261 
L 114.165337 135.171348 
L 115.592541 133.705586 
L 117.019745 137.633425 
L 118.44695 133.519089 
L 119.874154 134.399816 
L 121.301359 129.214129 
L 122.728563 130.783143 
L 124.155767 132.114697 
L 125.582972 130.147708 
L 127.010176 132.305988 
L 128.43738 137.379285 
L 131.291789 156.260261 
L 132.718994 165.143455 
L 135.573402 181.356879 
L 138.427811 195.978736 
L 139.855015 202.896272 
L 144.136629 221.414369 
L 148.418242 237.497488 
L 149.845446 242.584149 
L 152.699855 251.327554 
L 156.981468 263.152524 
L 161.263081 273.236874 
L 162.690285 276.522591 
L 164.11749 279.443646 
L 166.971898 284.874698 
L 168.399103 282.436383 
L 169.826307 285.169507 
L 171.253512 287.329884 
L 174.10792 292.080608 
L 175.535125 294.301753 
L 178.389533 298.219049 
L 179.816738 299.902534 
L 182.671147 303.662466 
L 184.098351 304.837081 
L 186.95276 307.983789 
L 191.234373 311.903444 
L 192.661577 312.782368 
L 194.088782 313.902679 
L 198.370395 316.57101 
L 199.797599 317.26889 
L 201.224803 318.279574 
L 205.506417 320.941565 
L 208.360825 322.143773 
L 209.78803 319.508307 
L 212.642438 320.797188 
L 214.069643 321.883506 
L 218.351256 324.261287 
L 219.77846 324.57352 
L 225.487278 326.266178 
L 229.768891 327.470301 
L 232.6233 327.683767 
L 235.477708 328.441371 
L 239.759322 328.945385 
L 241.186526 329.325762 
L 242.61373 329.152138 
L 245.468139 329.628552 
L 246.895343 330.01008 
L 249.749752 330.386495 
L 252.604161 330.516758 
L 255.45857 330.95573 
L 256.885774 331.13691 
L 258.312978 330.890444 
L 259.740183 330.95 
L 262.594592 331.50774 
L 265.449 332.086972 
L 266.876205 332.550615 
L 269.730613 332.976633 
L 272.585022 332.740266 
L 274.012227 332.981367 
L 275.439431 332.957895 
L 279.721044 333.634248 
L 281.148248 333.53078 
L 282.575453 333.821363 
L 285.429862 333.634324 
L 288.28427 333.963433 
L 289.711475 333.639914 
L 291.138679 333.616881 
L 292.565883 333.448856 
L 293.993088 333.695147 
L 295.420292 333.743192 
L 296.847497 333.547574 
L 299.701905 333.520478 
L 301.12911 333.248481 
L 302.556314 333.423952 
L 303.983518 333.752165 
L 305.410723 333.931573 
L 308.265132 333.847294 
L 309.692336 334.0117 
L 311.11954 334.349938 
L 312.546745 334.174329 
L 318.255562 334.718343 
L 319.682767 334.635936 
L 321.109971 334.220932 
L 322.537175 334.401425 
L 323.96438 334.130207 
L 326.818788 334.501336 
L 328.245993 334.423158 
L 329.673197 334.531739 
L 331.100402 334.305909 
L 333.95481 334.183411 
L 335.382015 334.259207 
L 336.809219 334.090959 
L 339.663628 334.50977 
L 341.090832 334.708312 
L 343.945241 334.577284 
L 345.372445 334.344376 
L 348.226854 334.773385 
L 349.654058 334.762205 
L 351.081263 334.86925 
L 352.508467 334.74367 
L 353.935672 333.125668 
L 355.362876 333.26259 
L 356.79008 333.066724 
L 358.217285 333.396186 
L 359.644489 333.439598 
L 363.926102 334.30714 
L 366.780511 334.407742 
L 368.207715 334.102475 
L 371.062124 334.309409 
L 372.489328 334.117328 
L 375.343737 334.241514 
L 378.198146 334.496387 
L 379.62535 334.740091 
L 381.052555 334.71295 
L 382.479759 334.544776 
L 388.188577 334.928574 
L 389.615781 334.793068 
L 393.897394 334.847476 
L 395.324598 334.655093 
L 403.887825 334.60395 
L 405.315029 334.598499 
L 406.742233 332.584543 
L 408.169438 332.772512 
L 411.023847 332.561255 
L 412.451051 332.741779 
L 415.30546 332.701966 
L 416.732664 332.611969 
L 419.587073 332.839469 
L 421.014277 332.922366 
L 422.441482 332.829667 
L 423.868686 333.009946 
L 425.29589 332.98159 
L 429.577503 333.486491 
L 432.431912 333.471162 
L 433.859117 333.326185 
L 435.286321 333.018462 
L 438.14073 332.942495 
L 439.567934 331.665755 
L 440.995138 331.89632 
L 442.422343 331.827493 
L 443.849547 332.156657 
L 445.276752 332.236478 
L 446.703956 332.560093 
L 448.13116 332.694292 
L 449.558365 332.979866 
L 450.985569 333.122877 
L 452.412773 333.37894 
L 453.839978 333.218368 
L 455.267182 333.532066 
L 460.976 333.683428 
L 462.403204 333.757942 
L 463.830408 333.61881 
L 465.257613 333.789155 
L 469.539226 333.590632 
L 472.393635 333.831181 
L 478.102452 334.469479 
L 479.529657 334.088626 
L 480.956861 334.143705 
L 482.384065 334.054924 
L 483.81127 333.779004 
L 488.092883 334.137398 
L 489.520087 334.162112 
L 490.947292 334.413319 
L 492.374496 334.287992 
L 493.8017 334.469302 
L 495.228905 334.395954 
L 496.656109 334.657075 
L 498.083313 334.773962 
L 500.937722 334.546081 
L 502.364927 334.554682 
L 503.792131 334.178371 
L 505.219335 334.228943 
L 506.64654 334.158806 
L 509.500948 334.253098 
L 512.355357 334.067253 
L 513.782562 333.668826 
L 515.209766 333.513844 
L 518.064175 334.005372 
L 522.345788 334.18312 
L 523.772992 334.121324 
L 525.200197 333.636289 
L 526.627401 333.627901 
L 529.48181 333.319234 
L 532.336218 333.524239 
L 533.763423 333.466735 
L 535.190627 333.791835 
L 536.617832 333.852226 
L 539.47224 333.650842 
L 540.899445 333.781131 
L 542.326649 333.733587 
L 543.753853 333.992343 
L 545.181058 333.688485 
L 546.608262 333.820021 
L 548.035467 333.800495 
L 549.462671 333.66614 
L 550.889875 333.914346 
L 552.31708 334.029344 
L 555.171488 333.971909 
L 556.598693 333.997995 
L 558.025897 333.842795 
L 562.30751 334.416525 
L 563.734715 334.260532 
L 568.016328 334.361794 
L 569.443532 334.175624 
L 575.15235 334.303775 
L 576.579554 334.439694 
L 578.006758 334.719805 
L 579.433963 334.827703 
L 580.861167 334.756333 
L 586.569985 334.958862 
L 589.424393 334.481524 
L 590.851598 334.482644 
L 592.278802 334.264693 
L 595.133211 334.485856 
L 596.560415 334.138011 
L 602.269233 334.223823 
L 605.123641 333.934204 
L 609.405255 333.459668 
L 610.832459 332.380544 
L 612.259663 332.471828 
L 617.968481 332.409958 
L 620.82289 332.478493 
L 622.250094 332.848905 
L 633.667729 333.361645 
L 635.094933 333.713119 
L 637.949342 333.736923 
L 639.376546 333.729201 
L 640.803751 334.041963 
L 642.230955 334.191941 
L 643.65816 334.204841 
L 645.085364 334.501343 
L 646.512568 334.398654 
L 647.939773 334.423266 
L 647.939773 334.423266 
" clip-path="url(#p2fa23125fe)" style="fill: none; stroke: #d62728; stroke-width: 1.2; stroke-linecap: square"/>
   </g>
   <g id="line2d_39">
    <path d="M 78.485227 93.707104 
L 79.912432 98.282981 
L 82.76684 113.109412 
L 84.194045 123.432547 
L 85.621249 132.939266 
L 87.048454 135.370116 
L 88.475658 143.201163 
L 89.902862 149.4759 
L 94.184475 175.08093 
L 95.61168 181.223151 
L 97.038884 188.870864 
L 102.747702 214.584151 
L 105.60211 226.218095 
L 109.883724 241.439361 
L 111.310928 246.238185 
L 112.738132 248.891412 
L 115.592541 257.046937 
L 117.019745 261.099742 
L 119.874154 268.326966 
L 124.155767 277.410567 
L 127.010176 282.727597 
L 131.291789 289.830323 
L 135.573402 296.152173 
L 138.427811 300.049538 
L 141.28222 303.839943 
L 142.709424 305.042443 
L 144.136629 306.50411 
L 145.563833 308.178464 
L 148.418242 310.758451 
L 149.845446 311.905989 
L 151.27265 309.313331 
L 152.699855 310.590396 
L 155.554263 312.859803 
L 156.981468 313.747898 
L 159.835877 315.288369 
L 161.263081 314.83621 
L 165.544694 317.492734 
L 166.971898 318.154441 
L 168.399103 318.625152 
L 169.826307 319.472979 
L 171.253512 320.154552 
L 176.962329 323.303214 
L 179.816738 324.463189 
L 181.243942 325.109153 
L 189.807168 327.404725 
L 194.088782 328.154068 
L 196.94319 328.803654 
L 198.370395 329.341082 
L 201.224803 329.84359 
L 202.652008 329.703067 
L 204.079212 330.121941 
L 205.506417 330.402158 
L 209.78803 330.951919 
L 214.069643 332.106285 
L 215.496847 332.589224 
L 216.924052 332.91383 
L 218.351256 332.967568 
L 221.205665 332.87395 
L 222.632869 332.819872 
L 224.060073 332.998737 
L 225.487278 324.932352 
L 226.914482 325.504131 
L 228.341687 325.617783 
L 231.196095 326.808466 
L 235.477708 327.834461 
L 241.186526 328.719881 
L 242.61373 328.813881 
L 245.468139 329.446509 
L 246.895343 329.453457 
L 248.322548 329.758597 
L 249.749752 330.221091 
L 251.176957 330.36994 
L 252.604161 330.67076 
L 255.45857 330.632304 
L 258.312978 331.245665 
L 261.167387 331.172267 
L 262.594592 331.601673 
L 265.449 332.16054 
L 266.876205 330.396132 
L 268.303409 330.594896 
L 269.730613 330.543553 
L 271.157818 330.811663 
L 272.585022 330.91081 
L 274.012227 331.138222 
L 275.439431 331.589971 
L 276.866635 331.525247 
L 281.148248 331.927704 
L 282.575453 331.650134 
L 284.002657 331.945088 
L 286.857066 332.372768 
L 289.711475 332.684848 
L 291.138679 332.553574 
L 292.565883 332.826749 
L 295.420292 332.905081 
L 296.847497 330.573462 
L 298.274701 330.274338 
L 302.556314 330.960939 
L 303.983518 331.003068 
L 308.265132 331.72434 
L 309.692336 331.532492 
L 311.11954 331.825033 
L 312.546745 332.257461 
L 313.973949 332.201576 
L 316.828358 332.545121 
L 318.255562 332.536832 
L 319.682767 332.678096 
L 321.109971 332.97631 
L 322.537175 332.686641 
L 323.96438 332.841319 
L 326.818788 332.976639 
L 328.245993 333.150861 
L 329.673197 332.960992 
L 332.527606 333.107489 
L 333.95481 333.113144 
L 335.382015 333.290628 
L 338.236423 333.372841 
L 341.090832 332.95821 
L 342.518037 333.053203 
L 343.945241 332.950326 
L 345.372445 332.54663 
L 346.79965 332.754517 
L 348.226854 333.117211 
L 349.654058 333.291002 
L 351.081263 332.878082 
L 352.508467 332.730239 
L 358.217285 333.134291 
L 362.498898 332.986349 
L 365.353307 332.717101 
L 369.63492 333.186866 
L 371.062124 332.982807 
L 372.489328 333.097063 
L 373.916533 333.421643 
L 375.343737 333.342006 
L 376.770942 333.092327 
L 378.198146 333.212485 
L 379.62535 332.89964 
L 381.052555 333.090806 
L 382.479759 332.827663 
L 385.334168 332.954699 
L 386.761372 333.317207 
L 389.615781 333.515995 
L 392.47019 333.413439 
L 398.179007 333.770671 
L 402.46062 333.548417 
L 406.742233 334.132001 
L 408.169438 334.525145 
L 413.878255 334.955985 
L 416.732664 335.06698 
L 418.159868 334.847603 
L 419.587073 335.108574 
L 421.014277 334.914916 
L 423.868686 334.896106 
L 425.29589 335.060973 
L 429.577503 334.983776 
L 433.859117 334.766705 
L 435.286321 334.564037 
L 439.567934 334.7579 
L 440.995138 334.956253 
L 442.422343 334.678688 
L 443.849547 334.948919 
L 445.276752 334.843229 
L 448.13116 334.442572 
L 452.412773 334.875149 
L 453.839978 334.693247 
L 455.267182 334.627642 
L 458.121591 334.794105 
L 459.548795 334.559668 
L 465.257613 334.029231 
L 466.684817 334.360502 
L 468.112022 334.068282 
L 469.539226 334.204944 
L 470.96643 334.177106 
L 472.393635 334.415118 
L 473.820839 334.436302 
L 475.248043 334.616379 
L 478.102452 334.340654 
L 479.529657 334.261958 
L 480.956861 334.487144 
L 482.384065 334.303228 
L 483.81127 334.452058 
L 485.238474 334.476605 
L 486.665678 334.628416 
L 489.520087 334.495449 
L 492.374496 334.793276 
L 493.8017 334.699952 
L 495.228905 334.769597 
L 496.656109 334.550561 
L 499.510518 334.39651 
L 500.937722 334.338356 
L 503.792131 334.624611 
L 505.219335 334.480661 
L 506.64654 334.561691 
L 509.500948 334.093019 
L 510.928153 334.176716 
L 512.355357 334.115109 
L 515.209766 334.613117 
L 519.491379 334.526956 
L 520.918583 334.71663 
L 522.345788 334.507135 
L 525.200197 334.577434 
L 526.627401 334.431865 
L 528.054605 334.432316 
L 529.48181 334.200877 
L 530.909014 334.336812 
L 533.763423 334.423697 
L 536.617832 333.87529 
L 538.045036 333.995441 
L 539.47224 331.94931 
L 546.608262 332.817565 
L 548.035467 329.989398 
L 550.889875 330.636699 
L 552.31708 330.865432 
L 553.744284 330.777951 
L 558.025897 331.729075 
L 560.880306 331.708648 
L 562.30751 331.416551 
L 563.734715 331.351073 
L 566.589123 332.00879 
L 568.016328 332.005163 
L 569.443532 332.391565 
L 570.870737 332.618466 
L 572.297941 332.264999 
L 573.725145 332.616805 
L 575.15235 332.757817 
L 576.579554 332.458526 
L 580.861167 332.385759 
L 585.14278 332.710283 
L 586.569985 332.536483 
L 587.997189 332.755003 
L 589.424393 332.827204 
L 590.851598 332.507645 
L 593.706006 332.847324 
L 597.98762 332.910341 
L 599.414824 332.625732 
L 602.269233 332.977468 
L 603.696437 328.988769 
L 605.123641 329.298305 
L 606.550846 329.463021 
L 607.97805 329.91562 
L 609.405255 330.179421 
L 610.832459 330.290708 
L 612.259663 328.787895 
L 613.686868 328.859853 
L 616.541276 329.4058 
L 617.968481 329.573817 
L 619.395685 329.430551 
L 620.82289 329.882742 
L 623.677298 330.312832 
L 625.104503 330.784214 
L 626.531707 329.375013 
L 633.667729 330.067125 
L 635.094933 330.10071 
L 637.949342 330.666788 
L 639.376546 330.847553 
L 642.230955 331.517984 
L 643.65816 331.488394 
L 645.085364 331.766638 
L 646.512568 331.795583 
L 646.512568 331.795583 
" clip-path="url(#p2fa23125fe)" style="fill: none; stroke: #9b8ac9; stroke-width: 1.2; stroke-linecap: square"/>
   </g>
   <g id="patch_3">
    <path d="M 50.0125 349.8636 
L 50.0125 34.5036 
" style="fill: none; stroke: #000000; stroke-width: 0.8; stroke-linejoin: miter; stroke-linecap: square"/>
   </g>
   <g id="patch_4">
    <path d="M 676.4125 349.8636 
L 676.4125 34.5036 
" style="fill: none; stroke: #000000; stroke-width: 0.8; stroke-linejoin: miter; stroke-linecap: square"/>
   </g>
   <g id="patch_5">
    <path d="M 50.0125 349.8636 
L 676.4125 349.8636 
" style="fill: none; stroke: #000000; stroke-width: 0.8; stroke-linejoin: miter; stroke-linecap: square"/>
   </g>
   <g id="patch_6">
    <path d="M 50.0125 34.5036 
L 676.4125 34.5036 
" style="fill: none; stroke: #000000; stroke-width: 0.8; stroke-linejoin: miter; stroke-linecap: square"/>
   </g>
   <g id="legend_1">
    <g id="patch_7">
     <path d="M 50.0125 31.35 
L 676.4125 31.35 
L 676.4125 7.2 
L 50.0125 7.2 
z
" style="fill: #ffffff; stroke: #808080; stroke-width: 0.8; stroke-linejoin: miter"/>
    </g>
    <g id="line2d_40">
     <path d="M 56.3125 18.4 
L 70.3125 18.4 
L 84.3125 18.4 
" style="fill: none; stroke: #1f77b4; stroke-width: 1.2; stroke-linecap: square"/>
    </g>
    <g id="text_20">
     <!-- DDPG -->
     <g transform="translate(92.7125 23.3) scale(0.14 -0.14)">
      <defs>
       <path id="SimHei-44" d="M 2925 2250 
Q 2925 1100 2437 612 
Q 1950 125 1125 125 
L 275 125 
L 275 4400 
L 1125 4400 
Q 2050 4400 2487 3900 
Q 2925 3400 2925 2250 
z
M 2325 2250 
Q 2325 3175 2025 3550 
Q 1725 3925 1125 3925 
L 850 3925 
L 850 600 
L 1125 600 
Q 1725 600 2025 962 
Q 2325 1325 2325 2250 
z
" transform="scale(0.015625)"/>
       <path id="SimHei-50" d="M 2950 3100 
Q 2950 2500 2600 2150 
Q 2250 1800 1625 1800 
L 900 1800 
L 900 125 
L 325 125 
L 325 4400 
L 1625 4400 
Q 2250 4400 2600 4050 
Q 2950 3700 2950 3100 
z
M 2375 3100 
Q 2375 3575 2150 3750 
Q 1925 3925 1475 3925 
L 900 3925 
L 900 2275 
L 1475 2275 
Q 1925 2275 2150 2450 
Q 2375 2625 2375 3100 
z
" transform="scale(0.015625)"/>
       <path id="SimHei-47" d="M 2850 75 
L 2425 75 
L 2350 425 
Q 2250 275 2037 175 
Q 1825 75 1575 75 
Q 1050 75 637 562 
Q 225 1050 225 2125 
Q 225 3300 600 3875 
Q 975 4450 1625 4450 
Q 2200 4450 2525 4025 
Q 2850 3600 2850 2925 
L 2300 2925 
Q 2300 3450 2125 3712 
Q 1950 3975 1625 3975 
Q 1225 3975 1025 3562 
Q 825 3150 825 2175 
Q 825 1250 1075 900 
Q 1325 550 1650 550 
Q 1975 550 2162 787 
Q 2350 1025 2350 1525 
L 2350 1800 
L 1575 1800 
L 1575 2275 
L 2850 2275 
L 2850 75 
z
" transform="scale(0.015625)"/>
      </defs>
      <use xlink:href="#SimHei-44"/>
      <use xlink:href="#SimHei-44" transform="translate(50 0)"/>
      <use xlink:href="#SimHei-50" transform="translate(100 0)"/>
      <use xlink:href="#SimHei-47" transform="translate(150 0)"/>
     </g>
    </g>
    <g id="line2d_41">
     <path d="M 186.6625 18.4 
L 200.6625 18.4 
L 214.6625 18.4 
" style="fill: none; stroke: #ff7f0e; stroke-width: 1.2; stroke-linecap: square"/>
    </g>
    <g id="text_21">
     <!-- PPO -->
     <g transform="translate(223.0625 23.3) scale(0.14 -0.14)">
      <defs>
       <path id="SimHei-4f" d="M 2950 2275 
Q 2950 1100 2587 587 
Q 2225 75 1575 75 
Q 925 75 550 587 
Q 175 1100 175 2275 
Q 175 3450 550 3950 
Q 925 4450 1575 4450 
Q 2225 4450 2587 3950 
Q 2950 3450 2950 2275 
z
M 2350 2275 
Q 2350 3325 2125 3650 
Q 1900 3975 1575 3975 
Q 1250 3975 1012 3650 
Q 775 3325 775 2275 
Q 775 1225 1012 887 
Q 1250 550 1575 550 
Q 1900 550 2125 887 
Q 2350 1225 2350 2275 
z
" transform="scale(0.015625)"/>
      </defs>
      <use xlink:href="#SimHei-50"/>
      <use xlink:href="#SimHei-50" transform="translate(50 0)"/>
      <use xlink:href="#SimHei-4f" transform="translate(100 0)"/>
     </g>
    </g>
    <g id="line2d_42">
     <path d="M 310.0125 18.4 
L 324.0125 18.4 
L 338.0125 18.4 
" style="fill: none; stroke: #2ca02c; stroke-width: 1.2; stroke-linecap: square"/>
    </g>
    <g id="text_22">
     <!-- TD3 -->
     <g transform="translate(346.4125 23.3) scale(0.14 -0.14)">
      <use xlink:href="#SimHei-54"/>
      <use xlink:href="#SimHei-44" transform="translate(50 0)"/>
      <use xlink:href="#SimHei-33" transform="translate(100 0)"/>
     </g>
    </g>
    <g id="line2d_43">
     <path d="M 433.3625 18.4 
L 447.3625 18.4 
L 461.3625 18.4 
" style="fill: none; stroke: #d62728; stroke-width: 1.2; stroke-linecap: square"/>
    </g>
    <g id="text_23">
     <!-- GCN-DDQN -->
     <g transform="translate(469.7625 23.3) scale(0.14 -0.14)">
      <defs>
       <path id="SimHei-43" d="M 2975 1825 
Q 2950 875 2575 475 
Q 2200 75 1675 75 
Q 1075 75 650 562 
Q 225 1050 225 2125 
Q 225 3300 637 3875 
Q 1050 4450 1700 4450 
Q 2250 4450 2612 4037 
Q 2975 3625 2950 2875 
L 2400 2875 
Q 2400 3425 2225 3700 
Q 2050 3975 1700 3975 
Q 1300 3975 1062 3562 
Q 825 3150 825 2175 
Q 825 1275 1062 912 
Q 1300 550 1675 550 
Q 1950 550 2175 812 
Q 2400 1075 2400 1825 
L 2975 1825 
z
" transform="scale(0.015625)"/>
       <path id="SimHei-4e" d="M 2850 125 
L 2225 125 
L 850 3225 
L 825 3225 
L 825 125 
L 250 125 
L 250 4400 
L 875 4400 
L 2250 1300 
L 2275 1300 
L 2275 4400 
L 2850 4400 
L 2850 125 
z
" transform="scale(0.015625)"/>
       <path id="SimHei-2d" d="M 2975 2125 
L 125 2125 
L 125 2525 
L 2975 2525 
L 2975 2125 
z
" transform="scale(0.015625)"/>
       <path id="SimHei-51" d="M 2950 2275 
Q 2950 1675 2862 1262 
Q 2775 850 2575 600 
L 2775 225 
L 2375 -200 
L 2150 225 
Q 2050 150 1900 112 
Q 1750 75 1575 75 
Q 925 75 550 587 
Q 175 1100 175 2275 
Q 175 3450 550 3950 
Q 925 4450 1575 4450 
Q 2225 4450 2587 3950 
Q 2950 3450 2950 2275 
z
M 2350 2275 
Q 2350 3325 2125 3650 
Q 1900 3975 1575 3975 
Q 1250 3975 1012 3650 
Q 775 3325 775 2275 
Q 775 1225 1012 887 
Q 1250 550 1575 550 
Q 1700 550 1800 587 
Q 1900 625 1950 675 
L 1550 1450 
L 1900 1875 
L 2250 1200 
Q 2300 1450 2325 1650 
Q 2350 1850 2350 2275 
z
" transform="scale(0.015625)"/>
      </defs>
      <use xlink:href="#SimHei-47"/>
      <use xlink:href="#SimHei-43" transform="translate(50 0)"/>
      <use xlink:href="#SimHei-4e" transform="translate(100 0)"/>
      <use xlink:href="#SimHei-2d" transform="translate(150 0)"/>
      <use xlink:href="#SimHei-44" transform="translate(200 0)"/>
      <use xlink:href="#SimHei-44" transform="translate(250 0)"/>
      <use xlink:href="#SimHei-51" transform="translate(300 0)"/>
      <use xlink:href="#SimHei-4e" transform="translate(350 0)"/>
     </g>
    </g>
    <g id="line2d_44">
     <path d="M 591.7125 18.4 
L 605.7125 18.4 
L 619.7125 18.4 
" style="fill: none; stroke: #9b8ac9; stroke-width: 1.2; stroke-linecap: square"/>
    </g>
    <g id="text_24">
     <!-- GLDVTO -->
     <g transform="translate(628.1125 23.3) scale(0.14 -0.14)">
      <defs>
       <path id="SimHei-4c" d="M 2900 125 
L 300 125 
L 300 4400 
L 875 4400 
L 875 600 
L 2900 600 
L 2900 125 
z
" transform="scale(0.015625)"/>
       <path id="SimHei-56" d="M 3050 4400 
L 1800 75 
L 1300 75 
L 50 4400 
L 650 4400 
L 1525 1125 
L 1575 1125 
L 2450 4400 
L 3050 4400 
z
" transform="scale(0.015625)"/>
      </defs>
      <use xlink:href="#SimHei-47"/>
      <use xlink:href="#SimHei-4c" transform="translate(50 0)"/>
      <use xlink:href="#SimHei-44" transform="translate(100 0)"/>
      <use xlink:href="#SimHei-56" transform="translate(150 0)"/>
      <use xlink:href="#SimHei-54" transform="translate(200 0)"/>
      <use xlink:href="#SimHei-4f" transform="translate(250 0)"/>
     </g>
    </g>
   </g>
  </g>
 </g>
 <defs>
  <clipPath id="p2fa23125fe">
   <rect x="50.0125" y="34.5036" width="626.4" height="315.36"/>
  </clipPath>
 </defs>
</svg>
