<?xml version="1.0" encoding="utf-8" standalone="no"?>
<!DOCTYPE svg PUBLIC "-//W3C//DTD SVG 1.1//EN"
  "http://www.w3.org/Graphics/SVG/1.1/DTD/svg11.dtd">
<svg xmlns:xlink="http://www.w3.org/1999/xlink" width="689.6125pt" height="391.6261pt" viewBox="0 0 689.6125 391.6261" xmlns="http://www.w3.org/2000/svg" version="1.1">
 <metadata>
  <rdf:RDF xmlns:dc="http://purl.org/dc/elements/1.1/" xmlns:cc="http://creativecommons.org/ns#" xmlns:rdf="http://www.w3.org/1999/02/22-rdf-syntax-ns#">
   <cc:Work>
    <dc:type rdf:resource="http://purl.org/dc/dcmitype/StillImage"/>
    <dc:date>2026-07-13T19:14:03.516976</dc:date>
    <dc:format>image/svg+xml</dc:format>
    <dc:creator>
     <cc:Agent>
      <dc:title>Matplotlib v3.10.7, https://matplotlib.org/</dc:title>
     </cc:Agent>
    </dc:creator>
   </cc:Work>
  </rdf:RDF>
 </metadata>
 <defs>
  <style type="text/css">*{stroke-linejoin: round; stroke-linecap: butt}</style>
 </defs>
 <g id="figure_1">
  <g id="patch_1">
   <path d="M 0 391.6261 
L 689.6125 391.6261 
L 689.6125 0 
L 0 0 
z
" style="fill: #ffffff"/>
  </g>
  <g id="axes_1">
   <g id="patch_2">
    <path d="M 56.0125 349.8636 
L 682.4125 349.8636 
L 682.4125 34.5036 
L 56.0125 34.5036 
z
" style="fill: #ffffff"/>
   </g>
   <g id="matplotlib.axis_1">
    <g id="xtick_1">
     <g id="line2d_1">
      <path d="M 84.485227 349.8636 
L 84.485227 34.5036 
" clip-path="url(#p452c3a798d)" style="fill: none; stroke-dasharray: 2.22,0.96; stroke-dashoffset: 0; stroke: #b0b0b0; stroke-opacity: 0.25; stroke-width: 0.6"/>
     </g>
     <g id="line2d_2">
      <defs>
       <path id="m5601f9710a" d="M 0 0 
L 0 3.5 
" style="stroke: #000000; stroke-width: 0.8"/>
      </defs>
      <g>
       <use xlink:href="#m5601f9710a" x="84.485227" y="349.8636" style="stroke: #000000; stroke-width: 0.8"/>
      </g>
     </g>
     <g id="text_1">
      <!-- 0 -->
      <g transform="translate(81.485227 365.1136) scale(0.12 -0.12)">
       <defs>
        <path id="SimHei-30" d="M 225 2537 
Q 250 3200 412 3587 
Q 575 3975 875 4225 
Q 1175 4475 1612 4475 
Q 2050 4475 2375 4112 
Q 2700 3750 2800 3200 
Q 2900 2650 2862 1937 
Q 2825 1225 2612 775 
Q 2400 325 1975 150 
Q 1550 -25 1125 187 
Q 700 400 525 750 
Q 350 1100 275 1487 
Q 200 1875 225 2537 
z
M 750 2687 
Q 675 2000 800 1462 
Q 925 925 1212 700 
Q 1500 475 1800 612 
Q 2100 750 2237 1162 
Q 2375 1575 2375 2062 
Q 2375 2550 2337 2950 
Q 2300 3350 2112 3675 
Q 1925 4000 1612 4012 
Q 1300 4025 1062 3700 
Q 825 3375 750 2687 
z
" transform="scale(0.015625)"/>
       </defs>
       <use xlink:href="#SimHei-30"/>
      </g>
     </g>
    </g>
    <g id="xtick_2">
     <g id="line2d_3">
      <path d="M 155.845446 349.8636 
L 155.845446 34.5036 
" clip-path="url(#p452c3a798d)" style="fill: none; stroke-dasharray: 2.22,0.96; stroke-dashoffset: 0; stroke: #b0b0b0; stroke-opacity: 0.25; stroke-width: 0.6"/>
     </g>
     <g id="line2d_4">
      <g>
       <use xlink:href="#m5601f9710a" x="155.845446" y="349.8636" style="stroke: #000000; stroke-width: 0.8"/>
      </g>
     </g>
     <g id="text_2">
      <!-- 50 -->
      <g transform="translate(149.845446 365.1136) scale(0.12 -0.12)">
       <defs>
        <path id="SimHei-35" d="M 550 1325 
Q 725 650 1150 575 
Q 1575 500 1837 662 
Q 2100 825 2212 1087 
Q 2325 1350 2312 1675 
Q 2300 2000 2137 2225 
Q 1975 2450 1725 2525 
Q 1475 2600 1162 2525 
Q 850 2450 650 2175 
L 225 2225 
Q 275 2375 700 4375 
L 2675 4375 
L 2675 3925 
L 1075 3925 
Q 950 3250 825 2850 
Q 1200 3025 1525 3012 
Q 1850 3000 2150 2862 
Q 2450 2725 2587 2487 
Q 2725 2250 2787 2012 
Q 2850 1775 2837 1500 
Q 2825 1225 2725 937 
Q 2625 650 2425 462 
Q 2225 275 1937 162 
Q 1650 50 1275 75 
Q 900 100 562 350 
Q 225 600 100 1200 
L 550 1325 
z
" transform="scale(0.015625)"/>
       </defs>
       <use xlink:href="#SimHei-35"/>
       <use xlink:href="#SimHei-30" transform="translate(50 0)"/>
      </g>
     </g>
    </g>
    <g id="xtick_3">
     <g id="line2d_5">
      <path d="M 227.205665 349.8636 
L 227.205665 34.5036 
" clip-path="url(#p452c3a798d)" style="fill: none; stroke-dasharray: 2.22,0.96; stroke-dashoffset: 0; stroke: #b0b0b0; stroke-opacity: 0.25; stroke-width: 0.6"/>
     </g>
     <g id="line2d_6">
      <g>
       <use xlink:href="#m5601f9710a" x="227.205665" y="349.8636" style="stroke: #000000; stroke-width: 0.8"/>
      </g>
     </g>
     <g id="text_3">
      <!-- 100 -->
      <g transform="translate(218.205665 365.1136) scale(0.12 -0.12)">
       <defs>
        <path id="SimHei-31" d="M 1400 3600 
Q 1075 3275 575 2975 
L 575 3450 
Q 1200 3875 1600 4450 
L 1900 4450 
L 1900 150 
L 1400 150 
L 1400 3600 
z
" transform="scale(0.015625)"/>
       </defs>
       <use xlink:href="#SimHei-31"/>
       <use xlink:href="#SimHei-30" transform="translate(50 0)"/>
       <use xlink:href="#SimHei-30" transform="translate(100 0)"/>
      </g>
     </g>
    </g>
    <g id="xtick_4">
     <g id="line2d_7">
      <path d="M 298.565883 349.8636 
L 298.565883 34.5036 
" clip-path="url(#p452c3a798d)" style="fill: none; stroke-dasharray: 2.22,0.96; stroke-dashoffset: 0; stroke: #b0b0b0; stroke-opacity: 0.25; stroke-width: 0.6"/>
     </g>
     <g id="line2d_8">
      <g>
       <use xlink:href="#m5601f9710a" x="298.565883" y="349.8636" style="stroke: #000000; stroke-width: 0.8"/>
      </g>
     </g>
     <g id="text_4">
      <!-- 150 -->
      <g transform="translate(289.565883 365.1136) scale(0.12 -0.12)">
       <use xlink:href="#SimHei-31"/>
       <use xlink:href="#SimHei-35" transform="translate(50 0)"/>
       <use xlink:href="#SimHei-30" transform="translate(100 0)"/>
      </g>
     </g>
    </g>
    <g id="xtick_5">
     <g id="line2d_9">
      <path d="M 369.926102 349.8636 
L 369.926102 34.5036 
" clip-path="url(#p452c3a798d)" style="fill: none; stroke-dasharray: 2.22,0.96; stroke-dashoffset: 0; stroke: #b0b0b0; stroke-opacity: 0.25; stroke-width: 0.6"/>
     </g>
     <g id="line2d_10">
      <g>
       <use xlink:href="#m5601f9710a" x="369.926102" y="349.8636" style="stroke: #000000; stroke-width: 0.8"/>
      </g>
     </g>
     <g id="text_5">
      <!-- 200 -->
      <g transform="translate(360.926102 365.1136) scale(0.12 -0.12)">
       <defs>
        <path id="SimHei-32" d="M 300 250 
Q 325 625 650 925 
Q 975 1225 1475 1862 
Q 1975 2500 2125 2850 
Q 2275 3200 2237 3450 
Q 2200 3700 2000 3862 
Q 1800 4025 1537 4000 
Q 1275 3975 1037 3800 
Q 800 3625 675 3275 
L 200 3350 
Q 400 3925 712 4187 
Q 1025 4450 1450 4475 
Q 1700 4500 1900 4462 
Q 2100 4425 2312 4287 
Q 2525 4150 2662 3875 
Q 2800 3600 2762 3212 
Q 2725 2825 2375 2287 
Q 2025 1750 1025 600 
L 2825 600 
L 2825 150 
L 300 150 
L 300 250 
z
" transform="scale(0.015625)"/>
       </defs>
       <use xlink:href="#SimHei-32"/>
       <use xlink:href="#SimHei-30" transform="translate(50 0)"/>
       <use xlink:href="#SimHei-30" transform="translate(100 0)"/>
      </g>
     </g>
    </g>
    <g id="xtick_6">
     <g id="line2d_11">
      <path d="M 441.286321 349.8636 
L 441.286321 34.5036 
" clip-path="url(#p452c3a798d)" style="fill: none; stroke-dasharray: 2.22,0.96; stroke-dashoffset: 0; stroke: #b0b0b0; stroke-opacity: 0.25; stroke-width: 0.6"/>
     </g>
     <g id="line2d_12">
      <g>
       <use xlink:href="#m5601f9710a" x="441.286321" y="349.8636" style="stroke: #000000; stroke-width: 0.8"/>
      </g>
     </g>
     <g id="text_6">
      <!-- 250 -->
      <g transform="translate(432.286321 365.1136) scale(0.12 -0.12)">
       <use xlink:href="#SimHei-32"/>
       <use xlink:href="#SimHei-35" transform="translate(50 0)"/>
       <use xlink:href="#SimHei-30" transform="translate(100 0)"/>
      </g>
     </g>
    </g>
    <g id="xtick_7">
     <g id="line2d_13">
      <path d="M 512.64654 349.8636 
L 512.64654 34.5036 
" clip-path="url(#p452c3a798d)" style="fill: none; stroke-dasharray: 2.22,0.96; stroke-dashoffset: 0; stroke: #b0b0b0; stroke-opacity: 0.25; stroke-width: 0.6"/>
     </g>
     <g id="line2d_14">
      <g>
       <use xlink:href="#m5601f9710a" x="512.64654" y="349.8636" style="stroke: #000000; stroke-width: 0.8"/>
      </g>
     </g>
     <g id="text_7">
      <!-- 300 -->
      <g transform="translate(503.64654 365.1136) scale(0.12 -0.12)">
       <defs>
        <path id="SimHei-33" d="M 250 1225 
L 700 1300 
Q 800 975 1025 762 
Q 1250 550 1587 562 
Q 1925 575 2125 837 
Q 2325 1100 2300 1437 
Q 2275 1775 2037 1962 
Q 1800 2150 1275 2225 
L 1275 2550 
Q 1800 2600 2037 2825 
Q 2275 3050 2250 3412 
Q 2225 3775 1925 3937 
Q 1625 4100 1287 3975 
Q 950 3850 750 3275 
L 300 3350 
Q 450 3800 712 4100 
Q 975 4400 1425 4450 
Q 1875 4500 2212 4337 
Q 2550 4175 2687 3837 
Q 2825 3500 2725 3100 
Q 2625 2700 2150 2400 
Q 2500 2250 2687 1950 
Q 2875 1650 2812 1162 
Q 2750 675 2375 375 
Q 2000 75 1525 87 
Q 1050 100 700 387 
Q 350 675 250 1225 
z
" transform="scale(0.015625)"/>
       </defs>
       <use xlink:href="#SimHei-33"/>
       <use xlink:href="#SimHei-30" transform="translate(50 0)"/>
       <use xlink:href="#SimHei-30" transform="translate(100 0)"/>
      </g>
     </g>
    </g>
    <g id="xtick_8">
     <g id="line2d_15">
      <path d="M 584.006758 349.8636 
L 584.006758 34.5036 
" clip-path="url(#p452c3a798d)" style="fill: none; stroke-dasharray: 2.22,0.96; stroke-dashoffset: 0; stroke: #b0b0b0; stroke-opacity: 0.25; stroke-width: 0.6"/>
     </g>
     <g id="line2d_16">
      <g>
       <use xlink:href="#m5601f9710a" x="584.006758" y="349.8636" style="stroke: #000000; stroke-width: 0.8"/>
      </g>
     </g>
     <g id="text_8">
      <!-- 350 -->
      <g transform="translate(575.006758 365.1136) scale(0.12 -0.12)">
       <use xlink:href="#SimHei-33"/>
       <use xlink:href="#SimHei-35" transform="translate(50 0)"/>
       <use xlink:href="#SimHei-30" transform="translate(100 0)"/>
      </g>
     </g>
    </g>
    <g id="xtick_9">
     <g id="line2d_17">
      <path d="M 655.366977 349.8636 
L 655.366977 34.5036 
" clip-path="url(#p452c3a798d)" style="fill: none; stroke-dasharray: 2.22,0.96; stroke-dashoffset: 0; stroke: #b0b0b0; stroke-opacity: 0.25; stroke-width: 0.6"/>
     </g>
     <g id="line2d_18">
      <g>
       <use xlink:href="#m5601f9710a" x="655.366977" y="349.8636" style="stroke: #000000; stroke-width: 0.8"/>
      </g>
     </g>
     <g id="text_9">
      <!-- 400 -->
      <g transform="translate(646.366977 365.1136) scale(0.12 -0.12)">
       <defs>
        <path id="SimHei-34" d="M 2000 1100 
L 75 1100 
L 75 1525 
L 2100 4450 
L 2475 4450 
L 2475 1525 
L 3075 1525 
L 3075 1100 
L 2475 1100 
L 2475 150 
L 2000 150 
L 2000 1100 
z
M 2000 1525 
L 2000 3500 
L 600 1525 
L 2000 1525 
z
" transform="scale(0.015625)"/>
       </defs>
       <use xlink:href="#SimHei-34"/>
       <use xlink:href="#SimHei-30" transform="translate(50 0)"/>
       <use xlink:href="#SimHei-30" transform="translate(100 0)"/>
      </g>
     </g>
    </g>
    <g id="text_10">
     <!-- Episode -->
     <g transform="translate(339.4625 382.3011) scale(0.17 -0.17)">
      <defs>
       <path id="SimHei-45" d="M 2900 125 
L 350 125 
L 350 4400 
L 2775 4400 
L 2775 3925 
L 925 3925 
L 925 2600 
L 2625 2600 
L 2625 2125 
L 925 2125 
L 925 600 
L 2900 600 
L 2900 125 
z
" transform="scale(0.015625)"/>
       <path id="SimHei-70" d="M 2825 1525 
Q 2825 800 2475 425 
Q 2125 50 1625 50 
Q 1350 50 1150 162 
Q 950 275 800 500 
L 800 -800 
L 300 -800 
L 300 2925 
L 800 2925 
L 800 2550 
Q 950 2775 1150 2875 
Q 1350 2975 1625 2975 
Q 2125 2975 2475 2612 
Q 2825 2250 2825 1525 
z
M 2275 1525 
Q 2275 2000 2087 2262 
Q 1900 2525 1525 2525 
Q 1225 2525 1012 2262 
Q 800 2000 800 1525 
Q 800 1050 1012 775 
Q 1225 500 1525 500 
Q 1900 500 2087 775 
Q 2275 1050 2275 1525 
z
" transform="scale(0.015625)"/>
       <path id="SimHei-69" d="M 1800 3725 
L 1300 3725 
L 1300 4375 
L 1800 4375 
L 1800 3725 
z
M 1800 125 
L 1300 125 
L 1300 2925 
L 1800 2925 
L 1800 125 
z
" transform="scale(0.015625)"/>
       <path id="SimHei-73" d="M 2750 900 
Q 2750 500 2437 287 
Q 2125 75 1650 75 
Q 1050 75 725 312 
Q 400 550 400 1000 
L 900 1000 
Q 900 700 1112 600 
Q 1325 500 1625 500 
Q 1925 500 2075 612 
Q 2225 725 2225 900 
Q 2225 1025 2100 1150 
Q 1975 1275 1475 1350 
Q 900 1425 687 1637 
Q 475 1850 475 2200 
Q 475 2500 762 2737 
Q 1050 2975 1600 2975 
Q 2100 2975 2387 2750 
Q 2675 2525 2675 2150 
L 2175 2150 
Q 2175 2375 2012 2462 
Q 1850 2550 1600 2550 
Q 1275 2550 1137 2437 
Q 1000 2325 1000 2175 
Q 1000 2000 1125 1900 
Q 1250 1800 1650 1750 
Q 2300 1650 2525 1437 
Q 2750 1225 2750 900 
z
" transform="scale(0.015625)"/>
       <path id="SimHei-6f" d="M 2925 1525 
Q 2925 875 2525 475 
Q 2125 75 1575 75 
Q 1025 75 625 475 
Q 225 875 225 1525 
Q 225 2175 625 2575 
Q 1025 2975 1575 2975 
Q 2125 2975 2525 2575 
Q 2925 2175 2925 1525 
z
M 2375 1525 
Q 2375 2025 2125 2275 
Q 1875 2525 1575 2525 
Q 1275 2525 1025 2275 
Q 775 2025 775 1525 
Q 775 1025 1025 775 
Q 1275 525 1575 525 
Q 1875 525 2125 775 
Q 2375 1025 2375 1525 
z
" transform="scale(0.015625)"/>
       <path id="SimHei-64" d="M 2750 125 
L 2250 125 
L 2250 500 
Q 2100 275 1900 175 
Q 1700 75 1425 75 
Q 925 75 575 437 
Q 225 800 225 1525 
Q 225 2250 575 2625 
Q 925 3000 1425 3000 
Q 1700 3000 1900 2887 
Q 2100 2775 2250 2550 
L 2250 4400 
L 2750 4400 
L 2750 125 
z
M 2250 1525 
Q 2250 2000 2037 2275 
Q 1825 2550 1525 2550 
Q 1150 2550 962 2275 
Q 775 2000 775 1525 
Q 775 1050 962 787 
Q 1150 525 1525 525 
Q 1825 525 2037 787 
Q 2250 1050 2250 1525 
z
" transform="scale(0.015625)"/>
       <path id="SimHei-65" d="M 2850 1075 
Q 2800 625 2450 350 
Q 2100 75 1625 75 
Q 1025 75 637 462 
Q 250 850 250 1525 
Q 250 2200 637 2587 
Q 1025 2975 1625 2975 
Q 2150 2975 2487 2637 
Q 2825 2300 2825 1525 
L 800 1525 
Q 800 975 1037 750 
Q 1275 525 1625 525 
Q 1900 525 2075 662 
Q 2250 800 2300 1075 
L 2850 1075 
z
M 2250 1925 
Q 2200 2275 2025 2412 
Q 1850 2550 1575 2550 
Q 1325 2550 1125 2412 
Q 925 2275 825 1925 
L 2250 1925 
z
" transform="scale(0.015625)"/>
      </defs>
      <use xlink:href="#SimHei-45"/>
      <use xlink:href="#SimHei-70" transform="translate(50 0)"/>
      <use xlink:href="#SimHei-69" transform="translate(100 0)"/>
      <use xlink:href="#SimHei-73" transform="translate(150 0)"/>
      <use xlink:href="#SimHei-6f" transform="translate(200 0)"/>
      <use xlink:href="#SimHei-64" transform="translate(250 0)"/>
      <use xlink:href="#SimHei-65" transform="translate(300 0)"/>
     </g>
    </g>
   </g>
   <g id="matplotlib.axis_2">
    <g id="ytick_1">
     <g id="line2d_19">
      <path d="M 56.0125 331.96545 
L 682.4125 331.96545 
" clip-path="url(#p452c3a798d)" style="fill: none; stroke-dasharray: 2.22,0.96; stroke-dashoffset: 0; stroke: #b0b0b0; stroke-opacity: 0.25; stroke-width: 0.6"/>
     </g>
     <g id="line2d_20">
      <defs>
       <path id="ma34b557b33" d="M 0 0 
L -3.5 0 
" style="stroke: #000000; stroke-width: 0.8"/>
      </defs>
      <g>
       <use xlink:href="#ma34b557b33" x="56.0125" y="331.96545" style="stroke: #000000; stroke-width: 0.8"/>
      </g>
     </g>
     <g id="text_11">
      <!-- 0.05 -->
      <g transform="translate(25.0125 336.09045) scale(0.12 -0.12)">
       <defs>
        <path id="SimHei-2e" d="M 1075 125 
L 500 125 
L 500 675 
L 1075 675 
L 1075 125 
z
" transform="scale(0.015625)"/>
       </defs>
       <use xlink:href="#SimHei-30"/>
       <use xlink:href="#SimHei-2e" transform="translate(50 0)"/>
       <use xlink:href="#SimHei-30" transform="translate(100 0)"/>
       <use xlink:href="#SimHei-35" transform="translate(150 0)"/>
      </g>
     </g>
    </g>
    <g id="ytick_2">
     <g id="line2d_21">
      <path d="M 56.0125 276.768517 
L 682.4125 276.768517 
" clip-path="url(#p452c3a798d)" style="fill: none; stroke-dasharray: 2.22,0.96; stroke-dashoffset: 0; stroke: #b0b0b0; stroke-opacity: 0.25; stroke-width: 0.6"/>
     </g>
     <g id="line2d_22">
      <g>
       <use xlink:href="#ma34b557b33" x="56.0125" y="276.768517" style="stroke: #000000; stroke-width: 0.8"/>
      </g>
     </g>
     <g id="text_12">
      <!-- 0.10 -->
      <g transform="translate(25.0125 280.893517) scale(0.12 -0.12)">
       <use xlink:href="#SimHei-30"/>
       <use xlink:href="#SimHei-2e" transform="translate(50 0)"/>
       <use xlink:href="#SimHei-31" transform="translate(100 0)"/>
       <use xlink:href="#SimHei-30" transform="translate(150 0)"/>
      </g>
     </g>
    </g>
    <g id="ytick_3">
     <g id="line2d_23">
      <path d="M 56.0125 221.571585 
L 682.4125 221.571585 
" clip-path="url(#p452c3a798d)" style="fill: none; stroke-dasharray: 2.22,0.96; stroke-dashoffset: 0; stroke: #b0b0b0; stroke-opacity: 0.25; stroke-width: 0.6"/>
     </g>
     <g id="line2d_24">
      <g>
       <use xlink:href="#ma34b557b33" x="56.0125" y="221.571585" style="stroke: #000000; stroke-width: 0.8"/>
      </g>
     </g>
     <g id="text_13">
      <!-- 0.15 -->
      <g transform="translate(25.0125 225.696585) scale(0.12 -0.12)">
       <use xlink:href="#SimHei-30"/>
       <use xlink:href="#SimHei-2e" transform="translate(50 0)"/>
       <use xlink:href="#SimHei-31" transform="translate(100 0)"/>
       <use xlink:href="#SimHei-35" transform="translate(150 0)"/>
      </g>
     </g>
    </g>
    <g id="ytick_4">
     <g id="line2d_25">
      <path d="M 56.0125 166.374652 
L 682.4125 166.374652 
" clip-path="url(#p452c3a798d)" style="fill: none; stroke-dasharray: 2.22,0.96; stroke-dashoffset: 0; stroke: #b0b0b0; stroke-opacity: 0.25; stroke-width: 0.6"/>
     </g>
     <g id="line2d_26">
      <g>
       <use xlink:href="#ma34b557b33" x="56.0125" y="166.374652" style="stroke: #000000; stroke-width: 0.8"/>
      </g>
     </g>
     <g id="text_14">
      <!-- 0.20 -->
      <g transform="translate(25.0125 170.499652) scale(0.12 -0.12)">
       <use xlink:href="#SimHei-30"/>
       <use xlink:href="#SimHei-2e" transform="translate(50 0)"/>
       <use xlink:href="#SimHei-32" transform="translate(100 0)"/>
       <use xlink:href="#SimHei-30" transform="translate(150 0)"/>
      </g>
     </g>
    </g>
    <g id="ytick_5">
     <g id="line2d_27">
      <path d="M 56.0125 111.17772 
L 682.4125 111.17772 
" clip-path="url(#p452c3a798d)" style="fill: none; stroke-dasharray: 2.22,0.96; stroke-dashoffset: 0; stroke: #b0b0b0; stroke-opacity: 0.25; stroke-width: 0.6"/>
     </g>
     <g id="line2d_28">
      <g>
       <use xlink:href="#ma34b557b33" x="56.0125" y="111.17772" style="stroke: #000000; stroke-width: 0.8"/>
      </g>
     </g>
     <g id="text_15">
      <!-- 0.25 -->
      <g transform="translate(25.0125 115.30272) scale(0.12 -0.12)">
       <use xlink:href="#SimHei-30"/>
       <use xlink:href="#SimHei-2e" transform="translate(50 0)"/>
       <use xlink:href="#SimHei-32" transform="translate(100 0)"/>
       <use xlink:href="#SimHei-35" transform="translate(150 0)"/>
      </g>
     </g>
    </g>
    <g id="ytick_6">
     <g id="line2d_29">
      <path d="M 56.0125 55.980788 
L 682.4125 55.980788 
" clip-path="url(#p452c3a798d)" style="fill: none; stroke-dasharray: 2.22,0.96; stroke-dashoffset: 0; stroke: #b0b0b0; stroke-opacity: 0.25; stroke-width: 0.6"/>
     </g>
     <g id="line2d_30">
      <g>
       <use xlink:href="#ma34b557b33" x="56.0125" y="55.980788" style="stroke: #000000; stroke-width: 0.8"/>
      </g>
     </g>
     <g id="text_16">
      <!-- 0.30 -->
      <g transform="translate(25.0125 60.105788) scale(0.12 -0.12)">
       <use xlink:href="#SimHei-30"/>
       <use xlink:href="#SimHei-2e" transform="translate(50 0)"/>
       <use xlink:href="#SimHei-33" transform="translate(100 0)"/>
       <use xlink:href="#SimHei-30" transform="translate(150 0)"/>
      </g>
     </g>
    </g>
    <g id="text_17">
     <!-- Total Task Latency -->
     <g transform="translate(18.8875 268.6836) rotate(-90) scale(0.17 -0.17)">
      <defs>
       <path id="SimHei-54" d="M 2850 3925 
L 1850 3925 
L 1850 125 
L 1275 125 
L 1275 3925 
L 275 3925 
L 275 4400 
L 2850 4400 
L 2850 3925 
z
" transform="scale(0.015625)"/>
       <path id="SimHei-74" d="M 2750 200 
Q 2625 150 2462 112 
Q 2300 75 2025 75 
Q 1575 75 1300 325 
Q 1025 575 1025 1025 
L 1025 2525 
L 175 2525 
L 175 2925 
L 1025 2925 
L 1025 3900 
L 1525 3900 
L 1525 2925 
L 2550 2925 
L 2550 2525 
L 1525 2525 
L 1525 1000 
Q 1525 800 1625 662 
Q 1725 525 2000 525 
Q 2275 525 2450 575 
Q 2625 625 2750 700 
L 2750 200 
z
" transform="scale(0.015625)"/>
       <path id="SimHei-61" d="M 2875 125 
L 2275 125 
Q 2225 175 2200 262 
Q 2175 350 2175 475 
Q 2000 275 1750 175 
Q 1500 75 1225 75 
Q 825 75 550 275 
Q 275 475 275 850 
Q 275 1225 525 1450 
Q 775 1675 1300 1750 
Q 1650 1800 1912 1875 
Q 2175 1950 2175 2075 
Q 2175 2225 2062 2375 
Q 1950 2525 1575 2525 
Q 1275 2525 1137 2412 
Q 1000 2300 950 2100 
L 400 2100 
Q 450 2500 762 2737 
Q 1075 2975 1575 2975 
Q 2125 2975 2400 2725 
Q 2675 2475 2675 2025 
L 2675 650 
Q 2675 500 2725 375 
Q 2775 250 2875 125 
z
M 2175 1050 
L 2175 1550 
Q 2025 1500 1887 1462 
Q 1750 1425 1425 1375 
Q 1050 1325 937 1200 
Q 825 1075 825 900 
Q 825 750 937 637 
Q 1050 525 1275 525 
Q 1500 525 1762 650 
Q 2025 775 2175 1050 
z
" transform="scale(0.015625)"/>
       <path id="SimHei-6c" d="M 1825 125 
L 1325 125 
L 1325 4400 
L 1825 4400 
L 1825 125 
z
" transform="scale(0.015625)"/>
       <path id="SimHei-20" transform="scale(0.015625)"/>
       <path id="SimHei-6b" d="M 2925 125 
L 2350 125 
L 1450 1650 
L 875 1100 
L 875 125 
L 375 125 
L 375 4400 
L 875 4400 
L 875 1675 
L 2125 2925 
L 2750 2925 
L 1775 1975 
L 2925 125 
z
" transform="scale(0.015625)"/>
       <path id="SimHei-4c" d="M 2900 125 
L 300 125 
L 300 4400 
L 875 4400 
L 875 600 
L 2900 600 
L 2900 125 
z
" transform="scale(0.015625)"/>
       <path id="SimHei-6e" d="M 2800 125 
L 2300 125 
L 2300 1925 
Q 2300 2225 2150 2400 
Q 2000 2575 1750 2575 
Q 1425 2575 1137 2237 
Q 850 1900 850 1400 
L 850 125 
L 350 125 
L 350 2925 
L 850 2925 
L 850 2400 
Q 1050 2675 1287 2825 
Q 1525 2975 1900 2975 
Q 2350 2975 2575 2725 
Q 2800 2475 2800 2100 
L 2800 125 
z
" transform="scale(0.015625)"/>
       <path id="SimHei-63" d="M 2850 1250 
Q 2850 725 2487 400 
Q 2125 75 1575 75 
Q 1025 75 625 462 
Q 225 850 225 1525 
Q 225 2200 625 2587 
Q 1025 2975 1575 2975 
Q 2125 2975 2450 2687 
Q 2775 2400 2775 2000 
L 2225 2000 
Q 2200 2300 2012 2412 
Q 1825 2525 1575 2525 
Q 1275 2525 1025 2287 
Q 775 2050 775 1525 
Q 775 1000 1025 762 
Q 1275 525 1575 525 
Q 1900 525 2100 700 
Q 2300 875 2300 1250 
L 2850 1250 
z
" transform="scale(0.015625)"/>
       <path id="SimHei-79" d="M 2900 2925 
L 1750 -100 
Q 1650 -450 1450 -625 
Q 1250 -800 950 -800 
Q 825 -800 712 -787 
Q 600 -775 500 -725 
L 500 -225 
Q 600 -275 700 -300 
Q 800 -325 875 -325 
Q 1075 -325 1150 -262 
Q 1225 -200 1300 25 
L 200 2925 
L 750 2925 
L 1550 725 
L 1575 725 
L 2350 2925 
L 2900 2925 
z
" transform="scale(0.015625)"/>
      </defs>
      <use xlink:href="#SimHei-54"/>
      <use xlink:href="#SimHei-6f" transform="translate(50 0)"/>
      <use xlink:href="#SimHei-74" transform="translate(100 0)"/>
      <use xlink:href="#SimHei-61" transform="translate(150 0)"/>
      <use xlink:href="#SimHei-6c" transform="translate(200 0)"/>
      <use xlink:href="#SimHei-20" transform="translate(250 0)"/>
      <use xlink:href="#SimHei-54" transform="translate(300 0)"/>
      <use xlink:href="#SimHei-61" transform="translate(350 0)"/>
      <use xlink:href="#SimHei-73" transform="translate(400 0)"/>
      <use xlink:href="#SimHei-6b" transform="translate(450 0)"/>
      <use xlink:href="#SimHei-20" transform="translate(500 0)"/>
      <use xlink:href="#SimHei-4c" transform="translate(550 0)"/>
      <use xlink:href="#SimHei-61" transform="translate(600 0)"/>
      <use xlink:href="#SimHei-74" transform="translate(650 0)"/>
      <use xlink:href="#SimHei-65" transform="translate(700 0)"/>
      <use xlink:href="#SimHei-6e" transform="translate(750 0)"/>
      <use xlink:href="#SimHei-63" transform="translate(800 0)"/>
      <use xlink:href="#SimHei-79" transform="translate(850 0)"/>
     </g>
    </g>
   </g>
   <g id="line2d_31">
    <path d="M 84.485227 48.838145 
L 85.912432 53.027256 
L 87.339636 67.130401 
L 88.76684 90.302784 
L 90.194045 99.294422 
L 91.621249 109.603902 
L 93.048454 127.53229 
L 94.475658 141.978676 
L 95.902862 148.266215 
L 97.330067 151.860073 
L 98.757271 160.623062 
L 100.184475 176.866059 
L 101.61168 178.007868 
L 103.038884 175.648898 
L 104.466089 172.072367 
L 105.893293 180.201525 
L 107.320497 187.068879 
L 108.747702 177.603463 
L 110.174906 186.015365 
L 111.60211 198.602812 
L 113.029315 195.511927 
L 114.456519 203.51906 
L 115.883724 213.990326 
L 117.310928 220.476923 
L 118.738132 220.673002 
L 120.165337 223.265783 
L 123.019745 245.41767 
L 124.44695 253.807014 
L 125.874154 260.035394 
L 127.301359 267.270332 
L 128.728563 272.583065 
L 130.155767 276.727469 
L 133.010176 287.606037 
L 135.864585 296.075136 
L 138.718994 302.635294 
L 140.146198 305.69764 
L 141.573402 308.002867 
L 144.427811 314.005064 
L 145.855015 316.140764 
L 147.28222 291.877054 
L 148.709424 295.688485 
L 150.136629 295.055819 
L 151.563833 299.310926 
L 154.418242 304.602661 
L 157.27265 310.170667 
L 160.127059 314.458803 
L 162.981468 318.237304 
L 165.835877 320.776578 
L 167.263081 308.56815 
L 168.690285 312.051236 
L 171.544694 316.26558 
L 172.971898 317.979619 
L 174.399103 292.5616 
L 175.826307 296.747239 
L 177.253512 276.934244 
L 178.680716 281.443275 
L 181.535125 291.417587 
L 184.389533 299.384419 
L 185.816738 293.347597 
L 187.243942 273.695144 
L 188.671147 273.443188 
L 190.098351 243.755416 
L 191.525555 241.186227 
L 192.95276 236.307602 
L 194.379964 244.850827 
L 195.807168 251.479845 
L 197.234373 247.207665 
L 198.661577 237.019543 
L 200.088782 243.299502 
L 201.515986 251.44309 
L 202.94319 235.847237 
L 204.370395 234.073879 
L 205.797599 232.499151 
L 207.224803 222.06647 
L 208.652008 221.829849 
L 210.079212 233.650676 
L 211.506417 243.650778 
L 212.933621 242.7893 
L 214.360825 223.65481 
L 215.78803 218.532328 
L 217.215234 221.453359 
L 218.642438 221.969167 
L 220.069643 212.799866 
L 221.496847 220.427354 
L 222.924052 206.502024 
L 224.351256 217.399987 
L 225.77846 212.390758 
L 227.205665 199.223249 
L 228.632869 196.543674 
L 230.060073 189.947506 
L 231.487278 196.184374 
L 232.914482 195.502126 
L 234.341687 184.906191 
L 235.768891 187.656798 
L 237.196095 191.176035 
L 238.6233 193.767096 
L 240.050504 193.300915 
L 241.477708 180.126876 
L 242.904913 186.677265 
L 244.332117 187.614806 
L 245.759322 182.887131 
L 247.186526 181.999657 
L 248.61373 184.763115 
L 250.040935 194.551013 
L 251.468139 181.088019 
L 252.895343 172.360594 
L 254.322548 172.751635 
L 255.749752 176.390521 
L 257.176957 171.725535 
L 258.604161 180.448537 
L 260.031365 185.292212 
L 261.45857 177.719055 
L 262.885774 180.655107 
L 264.312978 179.800742 
L 265.740183 164.583496 
L 267.167387 168.552416 
L 268.594592 176.497593 
L 270.021796 178.470389 
L 271.449 187.38354 
L 272.876205 189.952272 
L 274.303409 194.452082 
L 275.730613 195.95031 
L 277.157818 196.459297 
L 278.585022 198.07887 
L 280.012227 190.903877 
L 281.439431 193.190698 
L 282.866635 190.868026 
L 284.29384 184.982553 
L 285.721044 192.330462 
L 287.148248 192.46673 
L 288.575453 201.345708 
L 290.002657 208.238807 
L 291.429862 208.420023 
L 292.857066 201.327855 
L 294.28427 202.815068 
L 295.711475 207.722404 
L 297.138679 210.56177 
L 298.565883 204.665382 
L 299.993088 202.473197 
L 301.420292 195.577873 
L 302.847497 185.675461 
L 304.274701 188.505481 
L 305.701905 190.496683 
L 307.12911 191.713944 
L 308.556314 185.578741 
L 309.983518 197.650289 
L 311.410723 192.121068 
L 312.837927 199.662127 
L 314.265132 199.589963 
L 315.692336 200.045187 
L 317.11954 192.749567 
L 318.546745 206.58597 
L 319.973949 200.171151 
L 321.401153 197.334689 
L 322.828358 191.503531 
L 324.255562 186.605234 
L 325.682767 192.485631 
L 327.109971 196.968945 
L 328.537175 197.423686 
L 329.96438 203.151344 
L 331.391584 208.175499 
L 332.818788 204.126799 
L 334.245993 200.936872 
L 335.673197 205.255831 
L 338.527606 204.299347 
L 341.382015 212.057954 
L 342.809219 212.492302 
L 344.236423 203.019085 
L 345.663628 197.559001 
L 347.090832 204.429098 
L 348.518037 209.400544 
L 349.945241 197.011704 
L 351.372445 191.50844 
L 352.79965 184.176849 
L 354.226854 180.622647 
L 355.654058 190.436998 
L 357.081263 184.202256 
L 358.508467 195.995396 
L 359.935672 193.14114 
L 361.362876 196.822585 
L 362.79008 204.907711 
L 365.644489 184.461744 
L 367.071693 183.365215 
L 368.498898 177.958277 
L 369.926102 176.072691 
L 371.353307 180.330553 
L 372.780511 182.309406 
L 374.207715 183.740023 
L 375.63492 186.927292 
L 377.062124 194.912751 
L 378.489328 200.91189 
L 379.916533 197.030702 
L 381.343737 205.946938 
L 382.770942 206.828022 
L 384.198146 209.116011 
L 385.62535 210.703229 
L 387.052555 206.490136 
L 388.479759 199.780652 
L 389.906963 206.821262 
L 391.334168 203.326808 
L 392.761372 205.120808 
L 394.188577 205.593614 
L 395.615781 198.225672 
L 397.042985 200.962019 
L 398.47019 203.964106 
L 399.897394 193.975542 
L 402.751803 201.746075 
L 404.179007 200.574532 
L 405.606212 209.114069 
L 407.033416 214.078953 
L 408.46062 198.794811 
L 411.315029 186.507812 
L 412.742233 195.066152 
L 414.169438 198.457927 
L 415.596642 197.311145 
L 417.023847 188.80758 
L 418.451051 182.565932 
L 419.878255 184.526425 
L 421.30546 181.358455 
L 422.732664 175.827962 
L 424.159868 177.811279 
L 425.587073 183.576801 
L 427.014277 175.257946 
L 428.441482 175.584893 
L 429.868686 181.463426 
L 431.29589 183.953246 
L 432.723095 181.359665 
L 434.150299 184.029596 
L 435.577503 195.239836 
L 437.004708 188.075667 
L 438.431912 176.906306 
L 439.859117 178.055132 
L 441.286321 186.756395 
L 444.14073 203.075687 
L 445.567934 208.056612 
L 446.995138 203.249725 
L 448.422343 199.66079 
L 449.849547 202.17699 
L 451.276752 201.569598 
L 452.703956 203.703859 
L 454.13116 204.560292 
L 455.558365 212.508385 
L 456.985569 206.783188 
L 458.412773 202.642632 
L 459.839978 200.209477 
L 461.267182 201.797804 
L 462.694387 199.985002 
L 464.121591 202.266091 
L 465.548795 198.357303 
L 466.976 195.144626 
L 468.403204 203.333417 
L 469.830408 202.52973 
L 471.257613 188.120298 
L 472.684817 197.639049 
L 474.112022 193.99076 
L 475.539226 194.145025 
L 476.96643 202.338378 
L 478.393635 203.496296 
L 479.820839 204.839543 
L 481.248043 193.71365 
L 482.675248 196.052443 
L 484.102452 195.68759 
L 485.529657 203.690604 
L 486.956861 207.284429 
L 488.384065 208.389481 
L 489.81127 215.191588 
L 491.238474 206.525577 
L 492.665678 196.511798 
L 494.092883 187.470163 
L 495.520087 192.940284 
L 496.947292 192.200118 
L 498.374496 194.549399 
L 499.8017 187.200766 
L 501.228905 176.72388 
L 502.656109 184.825623 
L 504.083313 188.696462 
L 505.510518 198.532067 
L 506.937722 188.537015 
L 508.364927 186.573241 
L 509.792131 185.071415 
L 511.219335 196.704175 
L 512.64654 190.011719 
L 514.073744 193.134971 
L 515.500948 189.359852 
L 516.928153 184.536367 
L 518.355357 191.130642 
L 519.782562 192.404398 
L 521.209766 196.624516 
L 522.63697 194.235539 
L 524.064175 186.646051 
L 525.491379 191.383235 
L 526.918583 185.669554 
L 528.345788 196.014041 
L 531.200197 194.363384 
L 532.627401 200.931474 
L 534.054605 196.32838 
L 535.48181 199.182456 
L 536.909014 197.293631 
L 538.336218 201.443959 
L 539.763423 207.552119 
L 541.190627 214.431831 
L 542.617832 202.931353 
L 544.045036 205.945204 
L 545.47224 198.201958 
L 546.899445 198.138171 
L 548.326649 195.403953 
L 551.181058 192.652607 
L 552.608262 192.622138 
L 554.035467 186.207694 
L 555.462671 191.91007 
L 556.889875 186.451168 
L 558.31708 189.56478 
L 559.744284 195.127532 
L 561.171488 197.878447 
L 564.025897 197.475582 
L 565.453102 205.584139 
L 566.880306 209.813756 
L 568.30751 219.290348 
L 569.734715 226.328602 
L 571.161919 224.283269 
L 572.589123 224.067049 
L 574.016328 219.445109 
L 575.443532 222.34276 
L 576.870737 217.708777 
L 578.297941 206.19303 
L 579.725145 212.254438 
L 581.15235 220.086766 
L 582.579554 222.057476 
L 584.006758 231.380735 
L 585.433963 223.33978 
L 586.861167 224.037289 
L 588.288371 213.856919 
L 589.715576 220.544062 
L 591.14278 216.140908 
L 592.569985 215.984482 
L 593.997189 213.336234 
L 595.424393 207.219665 
L 596.851598 209.949186 
L 598.278802 205.386377 
L 599.706006 207.422371 
L 601.133211 210.638362 
L 602.560415 210.770229 
L 603.98762 212.39679 
L 605.414824 204.637395 
L 606.842028 212.064097 
L 608.269233 217.795775 
L 609.696437 215.419741 
L 611.123641 216.123575 
L 612.550846 215.900734 
L 613.97805 215.844406 
L 615.405255 219.095989 
L 616.832459 217.664947 
L 618.259663 221.173285 
L 619.686868 221.417344 
L 621.114072 224.286149 
L 622.541276 224.59863 
L 623.968481 214.522565 
L 625.395685 222.101394 
L 626.82289 221.755017 
L 628.250094 210.311936 
L 629.677298 208.455049 
L 631.104503 211.649218 
L 632.531707 210.422171 
L 633.958911 208.413479 
L 635.386116 207.178444 
L 636.81332 209.779734 
L 638.240525 206.18115 
L 639.667729 198.651683 
L 641.094933 203.078947 
L 642.522138 196.511453 
L 643.949342 200.570666 
L 645.376546 201.361409 
L 646.803751 204.538264 
L 648.230955 205.984536 
L 649.65816 202.970977 
L 651.085364 198.406435 
L 652.512568 191.655754 
L 652.512568 191.655754 
" clip-path="url(#p452c3a798d)" style="fill: none; stroke: #1f77b4; stroke-width: 1.2; stroke-linecap: square"/>
   </g>
   <g id="line2d_32">
    <path d="M 84.485227 186.020582 
L 85.912432 184.021923 
L 87.339636 182.562502 
L 88.76684 180.08403 
L 90.194045 174.91669 
L 91.621249 171.129038 
L 93.048454 169.361333 
L 94.475658 162.150179 
L 95.902862 160.378904 
L 97.330067 155.232518 
L 98.757271 153.05899 
L 100.184475 153.926314 
L 101.61168 154.223442 
L 103.038884 149.605261 
L 104.466089 151.866251 
L 107.320497 149.865955 
L 108.747702 149.696763 
L 110.174906 145.543207 
L 113.029315 150.669515 
L 114.456519 147.211525 
L 115.883724 151.479237 
L 117.310928 153.05381 
L 118.738132 155.432915 
L 120.165337 153.068731 
L 121.592541 154.082459 
L 123.019745 151.981441 
L 124.44695 155.893256 
L 125.874154 156.150295 
L 127.301359 158.58382 
L 128.728563 160.528804 
L 130.155767 163.07827 
L 131.582972 162.202921 
L 133.010176 163.227197 
L 134.43738 161.296668 
L 135.864585 161.416651 
L 137.291789 162.204908 
L 138.718994 159.400589 
L 140.146198 156.014751 
L 141.573402 161.993211 
L 143.000607 163.379643 
L 144.427811 165.217644 
L 145.855015 170.427287 
L 147.28222 174.664139 
L 148.709424 176.558637 
L 150.136629 174.302699 
L 151.563833 173.737158 
L 152.991037 178.226671 
L 154.418242 173.589022 
L 155.845446 171.329638 
L 157.27265 175.556601 
L 158.699855 176.518363 
L 160.127059 181.029343 
L 161.554263 184.33452 
L 162.981468 185.374361 
L 164.408672 181.999448 
L 165.835877 180.676381 
L 167.263081 179.802972 
L 168.690285 178.059101 
L 170.11749 178.637995 
L 171.544694 183.88607 
L 172.971898 188.616564 
L 174.399103 191.349825 
L 175.826307 188.192552 
L 177.253512 186.998044 
L 178.680716 187.476912 
L 180.10792 191.11457 
L 181.535125 195.477383 
L 182.962329 199.063849 
L 184.389533 201.831627 
L 185.816738 200.739915 
L 187.243942 202.197136 
L 188.671147 200.878739 
L 190.098351 201.076897 
L 191.525555 198.785558 
L 192.95276 198.46533 
L 194.379964 199.777453 
L 195.807168 196.20303 
L 197.234373 198.363254 
L 198.661577 204.116648 
L 200.088782 206.280993 
L 201.515986 203.971358 
L 202.94319 205.935892 
L 204.370395 202.824692 
L 205.797599 204.866817 
L 207.224803 202.869932 
L 208.652008 209.158668 
L 210.079212 212.368554 
L 211.506417 215.087914 
L 212.933621 218.207648 
L 214.360825 220.122241 
L 215.78803 226.943493 
L 217.215234 229.240204 
L 218.642438 227.765222 
L 220.069643 232.753383 
L 221.496847 234.895889 
L 222.924052 236.11665 
L 224.351256 236.819373 
L 225.77846 235.57347 
L 227.205665 240.001986 
L 228.632869 239.548738 
L 230.060073 243.013541 
L 231.487278 241.95412 
L 232.914482 240.426212 
L 234.341687 242.082685 
L 235.768891 242.024564 
L 237.196095 241.7424 
L 238.6233 244.113053 
L 240.050504 247.736663 
L 242.904913 252.184613 
L 244.332117 256.65855 
L 245.759322 262.745491 
L 247.186526 264.179208 
L 248.61373 258.919192 
L 250.040935 263.015077 
L 251.468139 261.290466 
L 252.895343 262.399449 
L 254.322548 264.469998 
L 255.749752 266.12093 
L 257.176957 266.809178 
L 258.604161 267.164155 
L 260.031365 269.298914 
L 261.45857 270.673905 
L 262.885774 269.307059 
L 264.312978 270.415434 
L 265.740183 273.517774 
L 267.167387 274.193492 
L 268.594592 277.703484 
L 270.021796 280.630565 
L 271.449 277.608231 
L 272.876205 279.903727 
L 274.303409 281.177985 
L 275.730613 281.175606 
L 277.157818 279.93116 
L 278.585022 281.58049 
L 281.439431 275.606757 
L 282.866635 271.001922 
L 284.29384 274.432412 
L 285.721044 279.008373 
L 287.148248 280.601998 
L 288.575453 277.402928 
L 290.002657 278.99035 
L 292.857066 277.616198 
L 294.28427 279.859876 
L 295.711475 281.016171 
L 297.138679 279.005732 
L 298.565883 276.687559 
L 299.993088 277.624505 
L 301.420292 280.24713 
L 302.847497 280.085116 
L 304.274701 279.411116 
L 305.701905 282.398495 
L 307.12911 281.258645 
L 308.556314 281.318942 
L 309.983518 283.25239 
L 311.410723 286.431872 
L 312.837927 288.839708 
L 314.265132 288.915518 
L 315.692336 288.370928 
L 317.11954 288.30637 
L 318.546745 292.505129 
L 319.973949 291.231865 
L 321.401153 293.360442 
L 322.828358 296.980584 
L 324.255562 297.028174 
L 325.682767 299.168579 
L 327.109971 299.133495 
L 328.537175 300.966421 
L 329.96438 300.555314 
L 331.391584 300.604252 
L 332.818788 301.96027 
L 334.245993 300.679037 
L 335.673197 301.147871 
L 337.100402 300.657832 
L 338.527606 298.960756 
L 339.95481 299.987609 
L 341.382015 300.722527 
L 342.809219 300.424468 
L 344.236423 299.903681 
L 345.663628 299.139662 
L 347.090832 301.530129 
L 348.518037 302.615128 
L 349.945241 303.089235 
L 351.372445 301.801216 
L 352.79965 303.709483 
L 354.226854 304.214327 
L 355.654058 302.898169 
L 357.081263 304.977539 
L 358.508467 305.355787 
L 359.935672 306.797769 
L 361.362876 306.670456 
L 362.79008 304.066881 
L 364.217285 304.795126 
L 365.644489 304.854994 
L 367.071693 305.096221 
L 368.498898 308.06057 
L 369.926102 307.699633 
L 371.353307 310.359367 
L 372.780511 309.998081 
L 374.207715 313.031362 
L 375.63492 311.925715 
L 377.062124 312.889387 
L 378.489328 310.788806 
L 379.916533 312.126475 
L 381.343737 314.120527 
L 382.770942 313.647128 
L 384.198146 314.173453 
L 385.62535 313.78559 
L 387.052555 312.747428 
L 388.479759 310.931124 
L 389.906963 313.365667 
L 391.334168 313.96336 
L 392.761372 314.934553 
L 394.188577 315.020138 
L 395.615781 314.001793 
L 397.042985 314.562659 
L 398.47019 314.672332 
L 399.897394 315.616588 
L 401.324598 316.223051 
L 402.751803 316.114569 
L 405.606212 319.202537 
L 407.033416 318.651699 
L 408.46062 317.08527 
L 409.887825 317.984612 
L 411.315029 318.661568 
L 412.742233 317.584608 
L 414.169438 319.163374 
L 415.596642 318.61408 
L 417.023847 320.912256 
L 419.878255 317.270723 
L 421.30546 316.183866 
L 422.732664 315.791453 
L 424.159868 317.424059 
L 425.587073 318.65052 
L 427.014277 319.12024 
L 428.441482 318.868788 
L 429.868686 318.802919 
L 431.29589 319.251586 
L 432.723095 320.784798 
L 434.150299 320.243888 
L 435.577503 320.200762 
L 437.004708 321.344849 
L 438.431912 319.980489 
L 439.859117 319.576896 
L 441.286321 319.641365 
L 442.713525 318.670608 
L 444.14073 318.403007 
L 445.567934 318.620541 
L 446.995138 318.995195 
L 448.422343 319.925286 
L 449.849547 318.202784 
L 451.276752 318.380408 
L 452.703956 318.739883 
L 454.13116 319.953761 
L 455.558365 317.646862 
L 456.985569 315.765977 
L 458.412773 316.610901 
L 459.839978 315.905174 
L 461.267182 317.707517 
L 462.694387 316.666983 
L 464.121591 315.883958 
L 465.548795 314.657624 
L 466.976 314.522705 
L 468.403204 314.211265 
L 469.830408 314.462874 
L 472.684817 318.229932 
L 475.539226 321.047196 
L 476.96643 322.311864 
L 478.393635 322.484244 
L 479.820839 322.148512 
L 481.248043 323.272134 
L 482.675248 322.015589 
L 484.102452 322.68539 
L 485.529657 323.912764 
L 486.956861 323.82305 
L 488.384065 324.313263 
L 489.81127 324.298036 
L 491.238474 324.028098 
L 492.665678 324.499915 
L 494.092883 325.484543 
L 495.520087 325.270936 
L 496.947292 326.603688 
L 498.374496 327.670226 
L 499.8017 326.414085 
L 501.228905 327.282496 
L 502.656109 327.428504 
L 504.083313 327.692707 
L 505.510518 328.280122 
L 508.364927 328.959748 
L 509.792131 326.742506 
L 511.219335 327.437842 
L 512.64654 327.596815 
L 514.073744 326.943101 
L 515.500948 327.339599 
L 516.928153 327.072719 
L 518.355357 327.426863 
L 519.782562 328.189268 
L 521.209766 329.111102 
L 522.63697 329.286896 
L 524.064175 327.40578 
L 525.491379 327.092869 
L 526.918583 327.442409 
L 528.345788 328.064724 
L 529.772992 327.373043 
L 531.200197 327.457225 
L 532.627401 328.841328 
L 534.054605 326.741387 
L 535.48181 326.773843 
L 536.909014 328.441783 
L 538.336218 328.487986 
L 541.190627 328.204163 
L 542.617832 327.172773 
L 544.045036 326.856612 
L 545.47224 325.69334 
L 546.899445 326.078733 
L 548.326649 325.832953 
L 549.753853 326.782787 
L 551.181058 326.859458 
L 552.608262 328.12095 
L 554.035467 328.345039 
L 555.462671 326.751042 
L 556.889875 327.894827 
L 558.31708 328.100879 
L 559.744284 329.027946 
L 561.171488 329.252431 
L 562.598693 329.79095 
L 564.025897 329.035769 
L 565.453102 329.168063 
L 566.880306 329.577042 
L 568.30751 329.702293 
L 571.161919 330.62999 
L 574.016328 331.070235 
L 575.443532 330.049937 
L 576.870737 330.258682 
L 578.297941 330.112773 
L 581.15235 326.907479 
L 582.579554 324.503169 
L 584.006758 324.806259 
L 586.861167 326.709761 
L 588.288371 326.5807 
L 589.715576 327.300639 
L 591.14278 327.708172 
L 593.997189 328.809341 
L 595.424393 329.764706 
L 596.851598 329.226437 
L 598.278802 329.552212 
L 601.133211 327.893741 
L 602.560415 328.087686 
L 603.98762 328.468527 
L 605.414824 329.349362 
L 606.842028 329.429006 
L 609.696437 330.752484 
L 611.123641 330.21535 
L 612.550846 330.531724 
L 613.97805 330.703815 
L 615.405255 331.047071 
L 618.259663 329.616743 
L 619.686868 329.441819 
L 621.114072 327.434837 
L 623.968481 328.026417 
L 625.395685 327.314604 
L 626.82289 328.247879 
L 628.250094 327.417019 
L 629.677298 327.926121 
L 631.104503 327.488456 
L 632.531707 327.823258 
L 633.958911 327.357535 
L 635.386116 327.075274 
L 636.81332 327.248479 
L 638.240525 327.59257 
L 639.667729 328.32013 
L 641.094933 328.450329 
L 642.522138 328.771155 
L 643.949342 329.301116 
L 645.376546 328.982176 
L 646.803751 328.026299 
L 648.230955 328.276879 
L 649.65816 328.385711 
L 651.085364 326.58005 
L 652.512568 327.15478 
L 652.512568 327.15478 
" clip-path="url(#p452c3a798d)" style="fill: none; stroke: #ff7f0e; stroke-width: 1.2; stroke-linecap: square"/>
   </g>
   <g id="line2d_33">
    <path d="M 84.485227 173.545622 
L 85.912432 168.835489 
L 87.339636 169.012192 
L 88.76684 172.304143 
L 90.194045 167.601255 
L 91.621249 167.636094 
L 93.048454 166.27746 
L 94.475658 163.21523 
L 95.902862 161.090157 
L 97.330067 158.067787 
L 98.757271 159.842429 
L 100.184475 158.280539 
L 101.61168 153.698165 
L 104.466089 152.546717 
L 105.893293 148.851998 
L 107.320497 148.116312 
L 108.747702 142.132473 
L 110.174906 141.142883 
L 111.60211 144.679847 
L 113.029315 144.042065 
L 114.456519 145.014066 
L 115.883724 147.62588 
L 117.310928 151.314317 
L 118.738132 157.149123 
L 120.165337 155.323028 
L 124.44695 194.920255 
L 127.301359 218.318489 
L 130.155767 237.018369 
L 131.582972 240.886197 
L 133.010176 248.258662 
L 135.864585 246.511823 
L 137.291789 239.083668 
L 138.718994 233.89805 
L 140.146198 233.837794 
L 141.573402 230.443225 
L 143.000607 226.096212 
L 144.427811 222.9498 
L 145.855015 221.200762 
L 147.28222 220.740077 
L 148.709424 216.005334 
L 150.136629 213.885901 
L 151.563833 214.323608 
L 152.991037 211.704282 
L 154.418242 213.640558 
L 155.845446 214.358413 
L 157.27265 209.920239 
L 158.699855 210.195027 
L 160.127059 211.480117 
L 161.554263 211.266544 
L 162.981468 211.674579 
L 164.408672 206.570502 
L 165.835877 208.263385 
L 167.263081 206.955117 
L 168.690285 208.634481 
L 170.11749 211.70843 
L 171.544694 218.378622 
L 172.971898 218.139986 
L 174.399103 220.676 
L 175.826307 222.189055 
L 177.253512 225.729367 
L 178.680716 226.274032 
L 181.535125 229.23052 
L 182.962329 227.125695 
L 184.389533 230.671742 
L 185.816738 231.222942 
L 187.243942 233.937399 
L 188.671147 239.423836 
L 190.098351 247.979123 
L 191.525555 257.440404 
L 192.95276 265.272235 
L 195.807168 278.054594 
L 197.234373 283.982747 
L 201.515986 298.239664 
L 204.370395 304.629337 
L 205.797599 307.144537 
L 207.224803 310.32862 
L 211.506417 316.655979 
L 212.933621 317.908896 
L 214.360825 318.440038 
L 215.78803 319.229895 
L 217.215234 321.164764 
L 218.642438 322.384324 
L 221.496847 324.345623 
L 222.924052 324.60683 
L 224.351256 326.072082 
L 225.77846 326.228489 
L 227.205665 327.79831 
L 228.632869 329.200919 
L 230.060073 329.662632 
L 231.487278 330.337889 
L 232.914482 330.818167 
L 234.341687 330.472649 
L 235.768891 331.185324 
L 237.196095 331.137454 
L 238.6233 330.638468 
L 240.050504 331.556807 
L 241.477708 332.083432 
L 242.904913 331.605717 
L 244.332117 331.898958 
L 245.759322 332.328195 
L 247.186526 332.504544 
L 250.040935 333.178584 
L 251.468139 333.289678 
L 252.895343 332.554229 
L 254.322548 332.471236 
L 255.749752 333.265726 
L 257.176957 333.022724 
L 258.604161 333.256144 
L 260.031365 332.655707 
L 261.45857 333.031813 
L 264.312978 332.838544 
L 265.740183 332.939098 
L 270.021796 332.805079 
L 271.449 332.309344 
L 272.876205 332.754065 
L 275.730613 332.92574 
L 277.157818 332.735052 
L 278.585022 332.952619 
L 280.012227 332.684832 
L 281.439431 333.077906 
L 282.866635 332.741643 
L 284.29384 331.983989 
L 285.721044 332.025431 
L 287.148248 332.861517 
L 288.575453 332.215419 
L 290.002657 332.468319 
L 291.429862 332.525536 
L 292.857066 332.464064 
L 294.28427 332.600927 
L 295.711475 332.434357 
L 297.138679 333.230891 
L 298.565883 334.159436 
L 299.993088 334.256503 
L 301.420292 333.216689 
L 304.274701 333.299424 
L 305.701905 333.735937 
L 307.12911 333.776994 
L 309.983518 332.730105 
L 311.410723 333.209896 
L 312.837927 333.014971 
L 314.265132 333.207359 
L 315.692336 333.894973 
L 317.11954 334.013528 
L 318.546745 334.646913 
L 319.973949 334.73621 
L 321.401153 333.589072 
L 324.255562 334.270358 
L 325.682767 333.797817 
L 327.109971 333.636067 
L 328.537175 333.796607 
L 329.96438 333.19067 
L 331.391584 332.947386 
L 332.818788 333.264969 
L 334.245993 332.199076 
L 337.100402 332.047677 
L 338.527606 332.342289 
L 339.95481 331.932766 
L 341.382015 331.976282 
L 342.809219 332.201294 
L 345.663628 332.401775 
L 347.090832 332.223203 
L 348.518037 331.374386 
L 349.945241 331.603282 
L 351.372445 333.150305 
L 352.79965 333.278792 
L 354.226854 333.629508 
L 355.654058 334.555735 
L 357.081263 333.850484 
L 358.508467 333.660134 
L 359.935672 333.83204 
L 362.79008 333.523765 
L 364.217285 333.13393 
L 365.644489 333.92536 
L 367.071693 333.486418 
L 368.498898 333.511104 
L 369.926102 333.807669 
L 371.353307 333.699726 
L 372.780511 334.060348 
L 374.207715 333.462096 
L 375.63492 333.874513 
L 377.062124 334.142617 
L 378.489328 334.936032 
L 379.916533 334.700845 
L 382.770942 333.668556 
L 384.198146 333.397406 
L 388.479759 333.47519 
L 389.906963 333.862722 
L 394.188577 333.759516 
L 395.615781 333.033861 
L 398.47019 333.958298 
L 399.897394 333.662617 
L 401.324598 333.827251 
L 402.751803 333.645453 
L 404.179007 332.872867 
L 405.606212 332.797014 
L 407.033416 333.079437 
L 408.46062 332.543236 
L 409.887825 332.1366 
L 411.315029 331.923168 
L 412.742233 332.124598 
L 414.169438 331.187399 
L 415.596642 331.070627 
L 418.451051 331.724498 
L 419.878255 331.873663 
L 421.30546 332.208985 
L 422.732664 332.231137 
L 424.159868 333.149236 
L 425.587073 333.446391 
L 427.014277 332.679438 
L 428.441482 333.09557 
L 429.868686 332.828521 
L 431.29589 333.192042 
L 432.723095 334.009303 
L 434.150299 334.377266 
L 435.577503 334.314984 
L 437.004708 333.873389 
L 438.431912 333.92934 
L 439.859117 333.721641 
L 441.286321 333.888908 
L 442.713525 333.720674 
L 444.14073 333.362617 
L 445.567934 333.131744 
L 446.995138 332.6547 
L 448.422343 332.858304 
L 449.849547 332.096194 
L 451.276752 332.578505 
L 452.703956 332.692036 
L 454.13116 332.237863 
L 456.985569 332.090044 
L 458.412773 332.482579 
L 459.839978 331.682648 
L 461.267182 332.705734 
L 462.694387 333.471809 
L 465.548795 333.966982 
L 466.976 333.181136 
L 468.403204 332.597058 
L 469.830408 332.282946 
L 471.257613 332.307524 
L 474.112022 332.742617 
L 475.539226 332.163339 
L 476.96643 332.517115 
L 478.393635 332.509868 
L 479.820839 332.988639 
L 481.248043 333.783876 
L 482.675248 333.965071 
L 484.102452 334.274512 
L 485.529657 334.193279 
L 486.956861 334.619132 
L 488.384065 335.218344 
L 489.81127 335.048112 
L 491.238474 334.64069 
L 492.665678 335.202849 
L 494.092883 334.229594 
L 495.520087 334.981368 
L 498.374496 333.50037 
L 499.8017 333.722355 
L 501.228905 333.577269 
L 502.656109 334.063378 
L 504.083313 333.287496 
L 505.510518 333.099781 
L 506.937722 333.661741 
L 508.364927 333.637816 
L 509.792131 334.512226 
L 511.219335 333.562088 
L 512.64654 333.575075 
L 514.073744 332.936306 
L 515.500948 332.54938 
L 516.928153 332.521158 
L 518.355357 332.695407 
L 519.782562 332.730056 
L 521.209766 333.297157 
L 526.918583 332.317143 
L 528.345788 331.994858 
L 529.772992 332.702925 
L 531.200197 333.054453 
L 532.627401 333.172904 
L 534.054605 334.034359 
L 535.48181 334.030345 
L 536.909014 333.795355 
L 538.336218 333.420077 
L 539.763423 333.358132 
L 541.190627 332.936859 
L 542.617832 332.345861 
L 544.045036 332.754222 
L 545.47224 332.714833 
L 548.326649 333.364301 
L 549.753853 333.917431 
L 551.181058 334.079612 
L 552.608262 333.074208 
L 554.035467 333.383561 
L 555.462671 334.330839 
L 556.889875 334.728562 
L 558.31708 333.992557 
L 559.744284 333.784355 
L 561.171488 333.9762 
L 564.025897 334.883286 
L 565.453102 334.788647 
L 566.880306 333.834833 
L 569.734715 333.327295 
L 571.161919 333.187747 
L 572.589123 333.326593 
L 574.016328 332.799511 
L 575.443532 332.775995 
L 576.870737 332.233745 
L 578.297941 332.474344 
L 579.725145 332.151436 
L 581.15235 332.572969 
L 582.579554 332.753043 
L 584.006758 332.798424 
L 585.433963 333.431176 
L 586.861167 333.408426 
L 588.288371 333.692442 
L 589.715576 334.544575 
L 591.14278 334.692934 
L 592.569985 334.055033 
L 593.997189 334.642914 
L 595.424393 335.050104 
L 596.851598 333.827376 
L 598.278802 334.553198 
L 599.706006 334.056201 
L 601.133211 334.437314 
L 602.560415 334.018078 
L 603.98762 334.319565 
L 605.414824 334.282777 
L 606.842028 333.360472 
L 608.269233 333.504598 
L 609.696437 333.007013 
L 611.123641 332.788707 
L 612.550846 333.368859 
L 613.97805 333.228347 
L 615.405255 332.768621 
L 616.832459 333.252265 
L 618.259663 332.738429 
L 622.541276 332.475562 
L 623.968481 332.185622 
L 625.395685 332.212771 
L 626.82289 332.072802 
L 628.250094 331.767811 
L 631.104503 331.399539 
L 632.531707 332.316986 
L 633.958911 332.58038 
L 635.386116 332.288703 
L 636.81332 333.10859 
L 638.240525 332.158777 
L 639.667729 331.895338 
L 641.094933 332.052106 
L 642.522138 331.480991 
L 643.949342 331.065904 
L 645.376546 331.302458 
L 646.803751 331.736736 
L 648.230955 332.408744 
L 649.65816 332.732954 
L 651.085364 332.755378 
L 653.939773 332.246364 
L 653.939773 332.246364 
" clip-path="url(#p452c3a798d)" style="fill: none; stroke: #2ca02c; stroke-width: 1.2; stroke-linecap: square"/>
   </g>
   <g id="line2d_34">
    <path d="M 84.485227 125.090159 
L 85.912432 125.953394 
L 87.339636 121.419442 
L 88.76684 116.244826 
L 90.194045 113.172525 
L 91.621249 111.538072 
L 93.048454 107.615561 
L 94.475658 103.359426 
L 95.902862 103.852732 
L 97.330067 102.816088 
L 98.757271 101.463634 
L 100.184475 98.24973 
L 101.61168 97.520064 
L 103.038884 95.697499 
L 105.893293 94.462791 
L 107.320497 93.214915 
L 108.747702 87.587771 
L 110.174906 83.776881 
L 111.60211 85.202532 
L 113.029315 84.129952 
L 114.456519 81.56213 
L 115.883724 79.339322 
L 117.310928 81.122315 
L 118.738132 77.184975 
L 120.165337 78.554887 
L 121.592541 77.051803 
L 123.019745 79.379467 
L 124.44695 79.490967 
L 125.874154 83.567781 
L 127.301359 86.427723 
L 128.728563 88.070099 
L 130.155767 88.451151 
L 131.582972 89.4012 
L 133.010176 88.359391 
L 134.43738 109.301363 
L 135.864585 132.24443 
L 137.291789 151.806119 
L 138.718994 169.173321 
L 141.573402 198.485105 
L 143.000607 211.829089 
L 145.855015 233.846164 
L 147.28222 243.142225 
L 148.709424 250.734532 
L 150.136629 259.65121 
L 151.563833 264.944546 
L 152.991037 271.309313 
L 154.418242 276.609601 
L 155.845446 282.442251 
L 157.27265 286.706456 
L 158.699855 291.395874 
L 160.127059 295.091992 
L 161.554263 299.708702 
L 164.408672 305.000053 
L 165.835877 306.922762 
L 167.263081 309.772828 
L 168.690285 312.955993 
L 170.11749 314.358147 
L 171.544694 316.181954 
L 172.971898 316.824383 
L 174.399103 316.539499 
L 175.826307 317.136113 
L 178.680716 319.894617 
L 180.10792 321.831402 
L 181.535125 322.567108 
L 182.962329 322.955109 
L 184.389533 324.344681 
L 185.816738 324.071285 
L 187.243942 325.340295 
L 188.671147 324.592486 
L 190.098351 325.173228 
L 194.379964 327.622742 
L 195.807168 327.392239 
L 197.234373 328.349059 
L 198.661577 328.989328 
L 200.088782 328.916703 
L 201.515986 329.604855 
L 202.94319 329.905586 
L 204.370395 329.690796 
L 205.797599 329.276189 
L 207.224803 329.484889 
L 208.652008 328.457818 
L 210.079212 328.657712 
L 211.506417 328.197444 
L 214.360825 329.446514 
L 215.78803 328.014319 
L 217.215234 327.715987 
L 218.642438 327.265304 
L 221.496847 329.37004 
L 222.924052 329.934203 
L 224.351256 330.872525 
L 225.77846 331.154839 
L 227.205665 331.28433 
L 228.632869 331.188504 
L 230.060073 330.039 
L 231.487278 329.575228 
L 232.914482 329.541547 
L 234.341687 328.119192 
L 235.768891 328.405826 
L 237.196095 329.213141 
L 238.6233 328.838723 
L 240.050504 329.810776 
L 241.477708 329.881389 
L 242.904913 330.111399 
L 244.332117 330.106173 
L 245.759322 328.286089 
L 247.186526 327.742598 
L 248.61373 329.25725 
L 251.468139 329.878379 
L 252.895343 329.477151 
L 254.322548 330.000555 
L 255.749752 329.318179 
L 257.176957 330.381928 
L 258.604161 330.883297 
L 260.031365 330.556858 
L 261.45857 330.723797 
L 262.885774 329.903078 
L 264.312978 330.63637 
L 265.740183 330.750264 
L 267.167387 331.820945 
L 268.594592 331.542085 
L 270.021796 330.907435 
L 271.449 331.479161 
L 272.876205 331.300066 
L 274.303409 332.051912 
L 275.730613 332.314125 
L 277.157818 333.015656 
L 278.585022 332.250819 
L 280.012227 332.088751 
L 281.439431 330.232041 
L 284.29384 330.384727 
L 285.721044 330.465316 
L 287.148248 330.834652 
L 290.002657 330.793309 
L 291.429862 331.660886 
L 292.857066 332.145291 
L 294.28427 332.444847 
L 295.711475 331.138368 
L 297.138679 331.319918 
L 298.565883 329.192885 
L 299.993088 329.161456 
L 301.420292 329.36091 
L 302.847497 330.469869 
L 304.274701 330.302354 
L 305.701905 329.533848 
L 307.12911 329.96086 
L 308.556314 330.616768 
L 309.983518 330.818956 
L 311.410723 331.397078 
L 312.837927 331.665737 
L 314.265132 331.250597 
L 315.692336 331.009937 
L 317.11954 331.557451 
L 318.546745 331.793705 
L 319.973949 331.059627 
L 321.401153 330.824276 
L 322.828358 331.597732 
L 324.255562 332.222513 
L 325.682767 333.005696 
L 327.109971 332.929319 
L 328.537175 332.649674 
L 329.96438 332.230218 
L 332.818788 330.639815 
L 334.245993 330.922148 
L 335.673197 331.06236 
L 337.100402 330.452713 
L 339.95481 330.625844 
L 341.382015 330.447255 
L 342.809219 330.508564 
L 344.236423 330.918461 
L 345.663628 330.550931 
L 347.090832 331.089655 
L 348.518037 331.182861 
L 349.945241 331.688215 
L 351.372445 331.585481 
L 352.79965 331.862905 
L 354.226854 332.314759 
L 355.654058 331.367765 
L 357.081263 331.340494 
L 358.508467 332.527797 
L 359.935672 331.940047 
L 361.362876 331.899349 
L 362.79008 330.92107 
L 364.217285 330.414619 
L 365.644489 330.976741 
L 367.071693 331.033963 
L 368.498898 330.341628 
L 369.926102 329.967658 
L 371.353307 330.473507 
L 372.780511 330.239811 
L 374.207715 328.424045 
L 375.63492 328.204351 
L 377.062124 328.973969 
L 378.489328 329.007233 
L 379.916533 328.434197 
L 381.343737 328.871722 
L 384.198146 328.913251 
L 385.62535 330.139952 
L 387.052555 330.613869 
L 388.479759 330.194927 
L 389.906963 329.03928 
L 391.334168 329.618439 
L 392.761372 330.597331 
L 394.188577 330.210282 
L 398.47019 332.430283 
L 401.324598 333.147057 
L 402.751803 333.297315 
L 404.179007 333.249608 
L 405.606212 332.875755 
L 407.033416 331.870207 
L 408.46062 331.685881 
L 409.887825 331.709208 
L 411.315029 331.969611 
L 412.742233 329.569856 
L 414.169438 329.874215 
L 417.023847 331.077119 
L 418.451051 332.264609 
L 419.878255 331.234791 
L 421.30546 329.203677 
L 422.732664 329.735588 
L 424.159868 329.794393 
L 427.014277 329.300465 
L 428.441482 329.790092 
L 429.868686 330.461014 
L 431.29589 329.362789 
L 432.723095 330.116366 
L 434.150299 330.606388 
L 437.004708 330.867777 
L 438.431912 330.497403 
L 439.859117 331.048106 
L 441.286321 329.413774 
L 442.713525 329.212075 
L 444.14073 330.160597 
L 445.567934 329.307253 
L 446.995138 329.794502 
L 448.422343 329.119688 
L 449.849547 329.665083 
L 451.276752 330.012232 
L 452.703956 329.606109 
L 454.13116 329.972209 
L 455.558365 330.155119 
L 456.985569 329.653657 
L 458.412773 329.658697 
L 459.839978 329.274403 
L 461.267182 329.975808 
L 462.694387 330.855705 
L 464.121591 330.953182 
L 465.548795 330.718699 
L 466.976 331.198495 
L 468.403204 330.99395 
L 469.830408 329.934373 
L 471.257613 331.230797 
L 472.684817 331.189985 
L 474.112022 331.518439 
L 475.539226 331.201223 
L 476.96643 331.693483 
L 478.393635 331.020949 
L 479.820839 330.681199 
L 481.248043 330.917442 
L 482.675248 331.360108 
L 484.102452 332.181131 
L 485.529657 332.708486 
L 488.384065 333.016109 
L 489.81127 333.123703 
L 491.238474 332.911964 
L 492.665678 331.556697 
L 494.092883 331.021034 
L 495.520087 331.40722 
L 496.947292 331.993318 
L 498.374496 331.489979 
L 499.8017 331.600715 
L 501.228905 331.083426 
L 502.656109 330.766619 
L 504.083313 330.687935 
L 505.510518 331.332232 
L 506.937722 331.04222 
L 508.364927 330.569757 
L 509.792131 331.004879 
L 511.219335 330.82281 
L 512.64654 331.810774 
L 514.073744 331.354812 
L 515.500948 331.101079 
L 516.928153 331.954512 
L 518.355357 332.132067 
L 519.782562 332.539955 
L 521.209766 332.141441 
L 522.63697 332.576439 
L 524.064175 333.282172 
L 525.491379 333.70553 
L 526.918583 333.582229 
L 528.345788 334.087588 
L 529.772992 334.066322 
L 531.200197 332.240318 
L 532.627401 333.28858 
L 534.054605 332.553362 
L 535.48181 332.754269 
L 536.909014 333.589075 
L 541.190627 335.17107 
L 544.045036 332.54582 
L 545.47224 333.144904 
L 548.326649 332.849511 
L 551.181058 333.487242 
L 552.608262 334.044422 
L 554.035467 332.500451 
L 555.462671 333.436514 
L 556.889875 333.741913 
L 558.31708 333.569553 
L 559.744284 333.266919 
L 561.171488 333.187191 
L 562.598693 332.174509 
L 564.025897 332.534213 
L 565.453102 333.192741 
L 566.880306 333.301339 
L 568.30751 332.345336 
L 571.161919 331.457972 
L 572.589123 330.788941 
L 574.016328 331.09109 
L 575.443532 330.181189 
L 578.297941 330.67418 
L 579.725145 330.321412 
L 581.15235 330.608075 
L 582.579554 331.77202 
L 584.006758 331.82921 
L 585.433963 332.190455 
L 586.861167 331.870419 
L 588.288371 332.960151 
L 589.715576 332.770804 
L 591.14278 332.974617 
L 592.569985 332.03456 
L 593.997189 332.066324 
L 596.851598 332.420869 
L 598.278802 331.871476 
L 599.706006 331.516692 
L 601.133211 331.704334 
L 602.560415 331.48035 
L 603.98762 332.051326 
L 605.414824 332.151144 
L 606.842028 331.83756 
L 608.269233 331.305525 
L 609.696437 331.914192 
L 611.123641 332.135437 
L 612.550846 330.164071 
L 613.97805 329.851447 
L 615.405255 330.231878 
L 616.832459 330.144389 
L 618.259663 330.877692 
L 619.686868 330.17566 
L 622.541276 329.937399 
L 623.968481 331.827167 
L 625.395685 332.038032 
L 626.82289 331.599354 
L 628.250094 331.429632 
L 629.677298 331.099695 
L 631.104503 331.656989 
L 633.958911 333.162716 
L 635.386116 332.948433 
L 636.81332 333.611185 
L 639.667729 333.439908 
L 641.094933 334.330494 
L 642.522138 334.362416 
L 643.949342 333.74808 
L 645.376546 334.075608 
L 648.230955 333.891156 
L 649.65816 334.381295 
L 652.512568 332.93702 
L 653.939773 333.606538 
L 653.939773 333.606538 
" clip-path="url(#p452c3a798d)" style="fill: none; stroke: #d62728; stroke-width: 1.2; stroke-linecap: square"/>
   </g>
   <g id="line2d_35">
    <path d="M 84.485227 130.682734 
L 85.912432 136.042998 
L 87.339636 138.903282 
L 88.76684 143.543425 
L 90.194045 152.513563 
L 91.621249 160.533315 
L 94.475658 184.342687 
L 95.902862 190.939051 
L 97.330067 201.892147 
L 98.757271 211.133934 
L 103.038884 242.084246 
L 104.466089 250.04529 
L 107.320497 264.340947 
L 108.747702 271.08575 
L 111.60211 282.53642 
L 113.029315 287.387214 
L 115.883724 294.414704 
L 117.310928 297.594866 
L 118.738132 300.088583 
L 120.165337 304.314676 
L 121.592541 307.136889 
L 123.019745 309.330141 
L 124.44695 312.692832 
L 125.874154 314.05456 
L 127.301359 316.346646 
L 130.155767 318.8838 
L 131.582972 320.003651 
L 134.43738 320.895646 
L 135.864585 320.823519 
L 137.291789 320.147171 
L 138.718994 321.694786 
L 141.573402 323.40419 
L 144.427811 326.253446 
L 145.855015 327.289877 
L 147.28222 327.509581 
L 150.136629 328.255728 
L 151.563833 328.038671 
L 152.991037 329.139461 
L 155.845446 329.596085 
L 157.27265 328.310179 
L 158.699855 328.830254 
L 160.127059 328.933668 
L 161.554263 329.61743 
L 162.981468 329.518142 
L 164.408672 326.369613 
L 165.835877 326.711892 
L 167.263081 326.49143 
L 168.690285 326.471909 
L 170.11749 327.665854 
L 171.544694 327.834513 
L 172.971898 328.171719 
L 174.399103 328.356307 
L 175.826307 328.92871 
L 177.253512 329.878845 
L 178.680716 330.13109 
L 180.10792 330.260126 
L 181.535125 331.011032 
L 182.962329 330.266914 
L 184.389533 330.825391 
L 185.816738 330.772839 
L 187.243942 331.397771 
L 188.671147 330.583443 
L 191.525555 331.7486 
L 192.95276 331.441662 
L 194.379964 330.676117 
L 195.807168 330.145855 
L 198.661577 331.112376 
L 200.088782 331.10976 
L 202.94319 329.945511 
L 205.797599 329.089871 
L 207.224803 328.952433 
L 208.652008 328.477243 
L 210.079212 328.853697 
L 211.506417 328.902668 
L 212.933621 329.589817 
L 214.360825 329.603836 
L 215.78803 330.025629 
L 217.215234 329.843157 
L 218.642438 330.269233 
L 220.069643 330.481669 
L 221.496847 330.517905 
L 224.351256 330.104958 
L 225.77846 330.537203 
L 227.205665 330.397021 
L 228.632869 331.39657 
L 230.060073 332.119236 
L 231.487278 330.782101 
L 232.914482 331.377145 
L 234.341687 331.469103 
L 235.768891 330.433079 
L 237.196095 330.457867 
L 238.6233 330.19785 
L 240.050504 331.110705 
L 241.477708 331.342534 
L 242.904913 331.234978 
L 244.332117 331.444101 
L 245.759322 332.08917 
L 247.186526 332.109274 
L 248.61373 331.344226 
L 251.468139 331.468401 
L 252.895343 331.16387 
L 255.749752 331.040573 
L 257.176957 330.982845 
L 258.604161 330.500573 
L 260.031365 330.271613 
L 261.45857 329.206683 
L 262.885774 326.996451 
L 264.312978 327.331443 
L 265.740183 328.277582 
L 267.167387 328.09183 
L 270.021796 328.227779 
L 271.449 328.780162 
L 272.876205 327.377556 
L 275.730613 327.916752 
L 277.157818 327.535519 
L 278.585022 326.397853 
L 280.012227 326.363918 
L 281.439431 327.182568 
L 282.866635 326.790876 
L 284.29384 327.32534 
L 285.721044 327.601905 
L 287.148248 327.71254 
L 288.575453 327.465879 
L 290.002657 328.83609 
L 294.28427 331.548273 
L 295.711475 331.31907 
L 297.138679 332.034339 
L 298.565883 332.300443 
L 299.993088 332.263264 
L 301.420292 332.605 
L 302.847497 331.107291 
L 304.274701 331.624696 
L 305.701905 331.315949 
L 307.12911 331.961534 
L 308.556314 332.149755 
L 309.983518 332.793435 
L 311.410723 331.823846 
L 312.837927 331.797998 
L 314.265132 332.10394 
L 315.692336 331.596554 
L 318.546745 331.710919 
L 319.973949 332.058271 
L 321.401153 331.210393 
L 324.255562 331.686041 
L 325.682767 332.576196 
L 327.109971 331.523865 
L 328.537175 331.003634 
L 329.96438 330.964468 
L 331.391584 331.570622 
L 332.818788 331.280695 
L 334.245993 331.390507 
L 337.100402 332.217737 
L 338.527606 332.395467 
L 339.95481 332.901474 
L 341.382015 333.243742 
L 344.236423 333.04288 
L 347.090832 331.984925 
L 348.518037 331.73395 
L 349.945241 331.642732 
L 351.372445 330.881341 
L 354.226854 332.81481 
L 355.654058 332.61998 
L 358.508467 330.81604 
L 359.935672 331.307491 
L 361.362876 331.134314 
L 362.79008 330.696372 
L 364.217285 330.941388 
L 365.644489 331.810655 
L 367.071693 331.505729 
L 368.498898 331.394788 
L 369.926102 331.7413 
L 371.353307 330.928302 
L 372.780511 331.691546 
L 375.63492 331.333645 
L 377.062124 331.571394 
L 378.489328 331.022015 
L 381.343737 332.007994 
L 382.770942 332.022253 
L 384.198146 332.170038 
L 385.62535 331.875155 
L 387.052555 332.042333 
L 388.479759 332.756968 
L 389.906963 332.606443 
L 391.334168 333.312937 
L 392.761372 333.225875 
L 394.188577 333.829238 
L 397.042985 335.529055 
L 398.47019 335.109389 
L 399.897394 334.467942 
L 401.324598 333.648588 
L 402.751803 334.295338 
L 404.179007 334.624287 
L 408.46062 333.15507 
L 409.887825 333.991855 
L 411.315029 333.386178 
L 412.742233 332.36733 
L 414.169438 332.482222 
L 415.596642 332.237913 
L 417.023847 332.487781 
L 418.451051 333.256821 
L 419.878255 332.794755 
L 421.30546 332.132786 
L 424.159868 332.520025 
L 425.587073 331.893936 
L 427.014277 331.468601 
L 428.441482 332.598118 
L 429.868686 332.80817 
L 431.29589 332.820132 
L 435.577503 333.54436 
L 437.004708 333.240311 
L 438.431912 333.871084 
L 439.859117 333.731951 
L 441.286321 334.190415 
L 442.713525 333.669219 
L 444.14073 333.990576 
L 445.567934 333.743619 
L 446.995138 333.799157 
L 448.422343 334.416799 
L 449.849547 334.360743 
L 451.276752 333.347936 
L 452.703956 334.186745 
L 454.13116 333.168076 
L 455.558365 332.570627 
L 456.985569 333.348209 
L 458.412773 332.89848 
L 459.839978 332.117199 
L 461.267182 331.734868 
L 462.694387 332.422015 
L 464.121591 332.249368 
L 468.403204 332.804906 
L 469.830408 332.863158 
L 471.257613 332.756697 
L 472.684817 332.859142 
L 474.112022 333.152209 
L 475.539226 333.035306 
L 476.96643 332.367826 
L 478.393635 332.938065 
L 479.820839 332.773938 
L 481.248043 332.062442 
L 482.675248 331.83993 
L 484.102452 331.404895 
L 485.529657 330.843787 
L 486.956861 331.199055 
L 488.384065 329.828747 
L 489.81127 330.11652 
L 491.238474 330.251281 
L 492.665678 330.100273 
L 494.092883 330.230558 
L 495.520087 329.610902 
L 496.947292 329.733537 
L 498.374496 330.41654 
L 499.8017 329.443324 
L 501.228905 329.826636 
L 502.656109 329.84434 
L 505.510518 330.758659 
L 506.937722 329.437355 
L 508.364927 329.550949 
L 509.792131 329.544192 
L 511.219335 329.905035 
L 512.64654 330.034972 
L 514.073744 330.542773 
L 515.500948 330.512138 
L 516.928153 331.09147 
L 518.355357 330.500713 
L 519.782562 330.901049 
L 521.209766 330.348808 
L 522.63697 329.541712 
L 524.064175 329.229318 
L 525.491379 328.769171 
L 526.918583 329.369972 
L 528.345788 329.847496 
L 529.772992 330.616396 
L 531.200197 330.682638 
L 532.627401 331.350186 
L 534.054605 331.058902 
L 535.48181 331.27113 
L 536.909014 331.267075 
L 538.336218 331.08122 
L 539.763423 331.292411 
L 541.190627 330.458001 
L 542.617832 329.169076 
L 544.045036 330.006971 
L 545.47224 329.113908 
L 546.899445 328.759302 
L 548.326649 329.360431 
L 549.753853 328.886959 
L 551.181058 329.404083 
L 552.608262 330.428575 
L 554.035467 329.640758 
L 555.462671 329.55027 
L 558.31708 331.646998 
L 559.744284 332.289539 
L 564.025897 333.290769 
L 565.453102 332.695582 
L 566.880306 333.093664 
L 568.30751 332.945688 
L 571.161919 332.411098 
L 572.589123 332.397121 
L 574.016328 331.766511 
L 575.443532 332.111848 
L 576.870737 332.100295 
L 578.297941 332.767899 
L 579.725145 331.632798 
L 581.15235 332.003866 
L 582.579554 331.281172 
L 584.006758 331.616548 
L 585.433963 331.266525 
L 586.861167 332.013282 
L 588.288371 332.563848 
L 589.715576 332.442601 
L 591.14278 331.770235 
L 592.569985 333.014578 
L 593.997189 333.082534 
L 595.424393 332.517558 
L 596.851598 332.165112 
L 598.278802 332.157887 
L 601.133211 332.673838 
L 602.560415 332.331132 
L 603.98762 331.561668 
L 605.414824 331.211905 
L 606.842028 331.164642 
L 608.269233 331.986646 
L 609.696437 331.96624 
L 611.123641 332.314766 
L 612.550846 332.292872 
L 613.97805 332.973228 
L 615.405255 332.273376 
L 616.832459 332.065275 
L 619.686868 330.122033 
L 622.541276 331.053344 
L 623.968481 332.403562 
L 625.395685 331.050149 
L 626.82289 331.189839 
L 628.250094 331.185402 
L 629.677298 331.79061 
L 631.104503 332.623128 
L 632.531707 332.372326 
L 633.958911 331.516176 
L 635.386116 331.121992 
L 636.81332 331.28797 
L 638.240525 330.523782 
L 639.667729 331.064395 
L 641.094933 330.259475 
L 642.522138 331.090693 
L 645.376546 332.103269 
L 646.803751 332.481426 
L 649.65816 331.742092 
L 651.085364 331.969252 
L 652.512568 331.147268 
L 652.512568 331.147268 
" clip-path="url(#p452c3a798d)" style="fill: none; stroke: #9b8ac9; stroke-width: 1.2; stroke-linecap: square"/>
   </g>
   <g id="patch_3">
    <path d="M 56.0125 349.8636 
L 56.0125 34.5036 
" style="fill: none; stroke: #000000; stroke-width: 0.8; stroke-linejoin: miter; stroke-linecap: square"/>
   </g>
   <g id="patch_4">
    <path d="M 682.4125 349.8636 
L 682.4125 34.5036 
" style="fill: none; stroke: #000000; stroke-width: 0.8; stroke-linejoin: miter; stroke-linecap: square"/>
   </g>
   <g id="patch_5">
    <path d="M 56.0125 349.8636 
L 682.4125 349.8636 
" style="fill: none; stroke: #000000; stroke-width: 0.8; stroke-linejoin: miter; stroke-linecap: square"/>
   </g>
   <g id="patch_6">
    <path d="M 56.0125 34.5036 
L 682.4125 34.5036 
" style="fill: none; stroke: #000000; stroke-width: 0.8; stroke-linejoin: miter; stroke-linecap: square"/>
   </g>
   <g id="legend_1">
    <g id="patch_7">
     <path d="M 56.0125 31.35 
L 682.4125 31.35 
L 682.4125 7.2 
L 56.0125 7.2 
z
" style="fill: #ffffff; stroke: #808080; stroke-width: 0.8; stroke-linejoin: miter"/>
    </g>
    <g id="line2d_36">
     <path d="M 62.3125 18.4 
L 76.3125 18.4 
L 90.3125 18.4 
" style="fill: none; stroke: #1f77b4; stroke-width: 1.2; stroke-linecap: square"/>
    </g>
    <g id="text_18">
     <!-- DDPG -->
     <g transform="translate(98.7125 23.3) scale(0.14 -0.14)">
      <defs>
       <path id="SimHei-44" d="M 2925 2250 
Q 2925 1100 2437 612 
Q 1950 125 1125 125 
L 275 125 
L 275 4400 
L 1125 4400 
Q 2050 4400 2487 3900 
Q 2925 3400 2925 2250 
z
M 2325 2250 
Q 2325 3175 2025 3550 
Q 1725 3925 1125 3925 
L 850 3925 
L 850 600 
L 1125 600 
Q 1725 600 2025 962 
Q 2325 1325 2325 2250 
z
" transform="scale(0.015625)"/>
       <path id="SimHei-50" d="M 2950 3100 
Q 2950 2500 2600 2150 
Q 2250 1800 1625 1800 
L 900 1800 
L 900 125 
L 325 125 
L 325 4400 
L 1625 4400 
Q 2250 4400 2600 4050 
Q 2950 3700 2950 3100 
z
M 2375 3100 
Q 2375 3575 2150 3750 
Q 1925 3925 1475 3925 
L 900 3925 
L 900 2275 
L 1475 2275 
Q 1925 2275 2150 2450 
Q 2375 2625 2375 3100 
z
" transform="scale(0.015625)"/>
       <path id="SimHei-47" d="M 2850 75 
L 2425 75 
L 2350 425 
Q 2250 275 2037 175 
Q 1825 75 1575 75 
Q 1050 75 637 562 
Q 225 1050 225 2125 
Q 225 3300 600 3875 
Q 975 4450 1625 4450 
Q 2200 4450 2525 4025 
Q 2850 3600 2850 2925 
L 2300 2925 
Q 2300 3450 2125 3712 
Q 1950 3975 1625 3975 
Q 1225 3975 1025 3562 
Q 825 3150 825 2175 
Q 825 1250 1075 900 
Q 1325 550 1650 550 
Q 1975 550 2162 787 
Q 2350 1025 2350 1525 
L 2350 1800 
L 1575 1800 
L 1575 2275 
L 2850 2275 
L 2850 75 
z
" transform="scale(0.015625)"/>
      </defs>
      <use xlink:href="#SimHei-44"/>
      <use xlink:href="#SimHei-44" transform="translate(50 0)"/>
      <use xlink:href="#SimHei-50" transform="translate(100 0)"/>
      <use xlink:href="#SimHei-47" transform="translate(150 0)"/>
     </g>
    </g>
    <g id="line2d_37">
     <path d="M 192.6625 18.4 
L 206.6625 18.4 
L 220.6625 18.4 
" style="fill: none; stroke: #ff7f0e; stroke-width: 1.2; stroke-linecap: square"/>
    </g>
    <g id="text_19">
     <!-- PPO -->
     <g transform="translate(229.0625 23.3) scale(0.14 -0.14)">
      <defs>
       <path id="SimHei-4f" d="M 2950 2275 
Q 2950 1100 2587 587 
Q 2225 75 1575 75 
Q 925 75 550 587 
Q 175 1100 175 2275 
Q 175 3450 550 3950 
Q 925 4450 1575 4450 
Q 2225 4450 2587 3950 
Q 2950 3450 2950 2275 
z
M 2350 2275 
Q 2350 3325 2125 3650 
Q 1900 3975 1575 3975 
Q 1250 3975 1012 3650 
Q 775 3325 775 2275 
Q 775 1225 1012 887 
Q 1250 550 1575 550 
Q 1900 550 2125 887 
Q 2350 1225 2350 2275 
z
" transform="scale(0.015625)"/>
      </defs>
      <use xlink:href="#SimHei-50"/>
      <use xlink:href="#SimHei-50" transform="translate(50 0)"/>
      <use xlink:href="#SimHei-4f" transform="translate(100 0)"/>
     </g>
    </g>
    <g id="line2d_38">
     <path d="M 316.0125 18.4 
L 330.0125 18.4 
L 344.0125 18.4 
" style="fill: none; stroke: #2ca02c; stroke-width: 1.2; stroke-linecap: square"/>
    </g>
    <g id="text_20">
     <!-- TD3 -->
     <g transform="translate(352.4125 23.3) scale(0.14 -0.14)">
      <use xlink:href="#SimHei-54"/>
      <use xlink:href="#SimHei-44" transform="translate(50 0)"/>
      <use xlink:href="#SimHei-33" transform="translate(100 0)"/>
     </g>
    </g>
    <g id="line2d_39">
     <path d="M 439.3625 18.4 
L 453.3625 18.4 
L 467.3625 18.4 
" style="fill: none; stroke: #d62728; stroke-width: 1.2; stroke-linecap: square"/>
    </g>
    <g id="text_21">
     <!-- GCN-DDQN -->
     <g transform="translate(475.7625 23.3) scale(0.14 -0.14)">
      <defs>
       <path id="SimHei-43" d="M 2975 1825 
Q 2950 875 2575 475 
Q 2200 75 1675 75 
Q 1075 75 650 562 
Q 225 1050 225 2125 
Q 225 3300 637 3875 
Q 1050 4450 1700 4450 
Q 2250 4450 2612 4037 
Q 2975 3625 2950 2875 
L 2400 2875 
Q 2400 3425 2225 3700 
Q 2050 3975 1700 3975 
Q 1300 3975 1062 3562 
Q 825 3150 825 2175 
Q 825 1275 1062 912 
Q 1300 550 1675 550 
Q 1950 550 2175 812 
Q 2400 1075 2400 1825 
L 2975 1825 
z
" transform="scale(0.015625)"/>
       <path id="SimHei-4e" d="M 2850 125 
L 2225 125 
L 850 3225 
L 825 3225 
L 825 125 
L 250 125 
L 250 4400 
L 875 4400 
L 2250 1300 
L 2275 1300 
L 2275 4400 
L 2850 4400 
L 2850 125 
z
" transform="scale(0.015625)"/>
       <path id="SimHei-2d" d="M 2975 2125 
L 125 2125 
L 125 2525 
L 2975 2525 
L 2975 2125 
z
" transform="scale(0.015625)"/>
       <path id="SimHei-51" d="M 2950 2275 
Q 2950 1675 2862 1262 
Q 2775 850 2575 600 
L 2775 225 
L 2375 -200 
L 2150 225 
Q 2050 150 1900 112 
Q 1750 75 1575 75 
Q 925 75 550 587 
Q 175 1100 175 2275 
Q 175 3450 550 3950 
Q 925 4450 1575 4450 
Q 2225 4450 2587 3950 
Q 2950 3450 2950 2275 
z
M 2350 2275 
Q 2350 3325 2125 3650 
Q 1900 3975 1575 3975 
Q 1250 3975 1012 3650 
Q 775 3325 775 2275 
Q 775 1225 1012 887 
Q 1250 550 1575 550 
Q 1700 550 1800 587 
Q 1900 625 1950 675 
L 1550 1450 
L 1900 1875 
L 2250 1200 
Q 2300 1450 2325 1650 
Q 2350 1850 2350 2275 
z
" transform="scale(0.015625)"/>
      </defs>
      <use xlink:href="#SimHei-47"/>
      <use xlink:href="#SimHei-43" transform="translate(50 0)"/>
      <use xlink:href="#SimHei-4e" transform="translate(100 0)"/>
      <use xlink:href="#SimHei-2d" transform="translate(150 0)"/>
      <use xlink:href="#SimHei-44" transform="translate(200 0)"/>
      <use xlink:href="#SimHei-44" transform="translate(250 0)"/>
      <use xlink:href="#SimHei-51" transform="translate(300 0)"/>
      <use xlink:href="#SimHei-4e" transform="translate(350 0)"/>
     </g>
    </g>
    <g id="line2d_40">
     <path d="M 597.7125 18.4 
L 611.7125 18.4 
L 625.7125 18.4 
" style="fill: none; stroke: #9b8ac9; stroke-width: 1.2; stroke-linecap: square"/>
    </g>
    <g id="text_22">
     <!-- GLDVTO -->
     <g transform="translate(634.1125 23.3) scale(0.14 -0.14)">
      <defs>
       <path id="SimHei-56" d="M 3050 4400 
L 1800 75 
L 1300 75 
L 50 4400 
L 650 4400 
L 1525 1125 
L 1575 1125 
L 2450 4400 
L 3050 4400 
z
" transform="scale(0.015625)"/>
      </defs>
      <use xlink:href="#SimHei-47"/>
      <use xlink:href="#SimHei-4c" transform="translate(50 0)"/>
      <use xlink:href="#SimHei-44" transform="translate(100 0)"/>
      <use xlink:href="#SimHei-56" transform="translate(150 0)"/>
      <use xlink:href="#SimHei-54" transform="translate(200 0)"/>
      <use xlink:href="#SimHei-4f" transform="translate(250 0)"/>
     </g>
    </g>
   </g>
  </g>
 </g>
 <defs>
  <clipPath id="p452c3a798d">
   <rect x="56.0125" y="34.5036" width="626.4" height="315.36"/>
  </clipPath>
 </defs>
</svg>
