<?xml version="1.0" encoding="utf-8" standalone="no"?>
<!DOCTYPE svg PUBLIC "-//W3C//DTD SVG 1.1//EN"
  "http://www.w3.org/Graphics/SVG/1.1/DTD/svg11.dtd">
<svg xmlns:xlink="http://www.w3.org/1999/xlink" width="627.9pt" height="397.915pt" viewBox="0 0 627.9 397.915" xmlns="http://www.w3.org/2000/svg" version="1.1">
 <metadata>
  <rdf:RDF xmlns:dc="http://purl.org/dc/elements/1.1/" xmlns:cc="http://creativecommons.org/ns#" xmlns:rdf="http://www.w3.org/1999/02/22-rdf-syntax-ns#">
   <cc:Work>
    <dc:type rdf:resource="http://purl.org/dc/dcmitype/StillImage"/>
    <dc:date>2026-06-25T19:51:57.403081</dc:date>
    <dc:format>image/svg+xml</dc:format>
    <dc:creator>
     <cc:Agent>
      <dc:title>Matplotlib v3.10.7, https://matplotlib.org/</dc:title>
     </cc:Agent>
    </dc:creator>
   </cc:Work>
  </rdf:RDF>
 </metadata>
 <defs>
  <style type="text/css">*{stroke-linejoin: round; stroke-linecap: butt}</style>
 </defs>
 <g id="figure_1">
  <g id="patch_1">
   <path d="M 0 397.915 
L 627.9 397.915 
L 627.9 -0 
L 0 -0 
z
" style="fill: #ffffff"/>
  </g>
  <g id="axes_1">
   <g id="patch_2">
    <path d="M 62.7 356.965 
L 620.7 356.965 
L 620.7 24.325 
L 62.7 24.325 
z
" style="fill: #ffffff"/>
   </g>
   <g id="matplotlib.axis_1">
    <g id="xtick_1">
     <g id="line2d_1">
      <path d="M 88.063636 356.965 
L 88.063636 24.325 
" clip-path="url(#pc12f1b444d)" style="fill: none; stroke: #b0b0b0; stroke-opacity: 0.3; stroke-width: 0.8; stroke-linecap: square"/>
     </g>
     <g id="line2d_2">
      <defs>
       <path id="mb6a82018ed" d="M 0 0 
L 0 3.5 
" style="stroke: #000000; stroke-width: 0.8"/>
      </defs>
      <g>
       <use xlink:href="#mb6a82018ed" x="88.063636" y="356.965" style="stroke: #000000; stroke-width: 0.8"/>
      </g>
     </g>
     <g id="text_1">
      <!-- 0 -->
      <g transform="translate(85.063636 372.215) scale(0.12 -0.12)">
       <defs>
        <path id="SimHei-30" d="M 225 2537 
Q 250 3200 412 3587 
Q 575 3975 875 4225 
Q 1175 4475 1612 4475 
Q 2050 4475 2375 4112 
Q 2700 3750 2800 3200 
Q 2900 2650 2862 1937 
Q 2825 1225 2612 775 
Q 2400 325 1975 150 
Q 1550 -25 1125 187 
Q 700 400 525 750 
Q 350 1100 275 1487 
Q 200 1875 225 2537 
z
M 750 2687 
Q 675 2000 800 1462 
Q 925 925 1212 700 
Q 1500 475 1800 612 
Q 2100 750 2237 1162 
Q 2375 1575 2375 2062 
Q 2375 2550 2337 2950 
Q 2300 3350 2112 3675 
Q 1925 4000 1612 4012 
Q 1300 4025 1062 3700 
Q 825 3375 750 2687 
z
" transform="scale(0.015625)"/>
       </defs>
       <use xlink:href="#SimHei-30"/>
      </g>
     </g>
    </g>
    <g id="xtick_2">
     <g id="line2d_3">
      <path d="M 151.631647 356.965 
L 151.631647 24.325 
" clip-path="url(#pc12f1b444d)" style="fill: none; stroke: #b0b0b0; stroke-opacity: 0.3; stroke-width: 0.8; stroke-linecap: square"/>
     </g>
     <g id="line2d_4">
      <g>
       <use xlink:href="#mb6a82018ed" x="151.631647" y="356.965" style="stroke: #000000; stroke-width: 0.8"/>
      </g>
     </g>
     <g id="text_2">
      <!-- 50 -->
      <g transform="translate(145.631647 372.215) scale(0.12 -0.12)">
       <defs>
        <path id="SimHei-35" d="M 550 1325 
Q 725 650 1150 575 
Q 1575 500 1837 662 
Q 2100 825 2212 1087 
Q 2325 1350 2312 1675 
Q 2300 2000 2137 2225 
Q 1975 2450 1725 2525 
Q 1475 2600 1162 2525 
Q 850 2450 650 2175 
L 225 2225 
Q 275 2375 700 4375 
L 2675 4375 
L 2675 3925 
L 1075 3925 
Q 950 3250 825 2850 
Q 1200 3025 1525 3012 
Q 1850 3000 2150 2862 
Q 2450 2725 2587 2487 
Q 2725 2250 2787 2012 
Q 2850 1775 2837 1500 
Q 2825 1225 2725 937 
Q 2625 650 2425 462 
Q 2225 275 1937 162 
Q 1650 50 1275 75 
Q 900 100 562 350 
Q 225 600 100 1200 
L 550 1325 
z
" transform="scale(0.015625)"/>
       </defs>
       <use xlink:href="#SimHei-35"/>
       <use xlink:href="#SimHei-30" transform="translate(50 0)"/>
      </g>
     </g>
    </g>
    <g id="xtick_3">
     <g id="line2d_5">
      <path d="M 215.199658 356.965 
L 215.199658 24.325 
" clip-path="url(#pc12f1b444d)" style="fill: none; stroke: #b0b0b0; stroke-opacity: 0.3; stroke-width: 0.8; stroke-linecap: square"/>
     </g>
     <g id="line2d_6">
      <g>
       <use xlink:href="#mb6a82018ed" x="215.199658" y="356.965" style="stroke: #000000; stroke-width: 0.8"/>
      </g>
     </g>
     <g id="text_3">
      <!-- 100 -->
      <g transform="translate(206.199658 372.215) scale(0.12 -0.12)">
       <defs>
        <path id="SimHei-31" d="M 1400 3600 
Q 1075 3275 575 2975 
L 575 3450 
Q 1200 3875 1600 4450 
L 1900 4450 
L 1900 150 
L 1400 150 
L 1400 3600 
z
" transform="scale(0.015625)"/>
       </defs>
       <use xlink:href="#SimHei-31"/>
       <use xlink:href="#SimHei-30" transform="translate(50 0)"/>
       <use xlink:href="#SimHei-30" transform="translate(100 0)"/>
      </g>
     </g>
    </g>
    <g id="xtick_4">
     <g id="line2d_7">
      <path d="M 278.767669 356.965 
L 278.767669 24.325 
" clip-path="url(#pc12f1b444d)" style="fill: none; stroke: #b0b0b0; stroke-opacity: 0.3; stroke-width: 0.8; stroke-linecap: square"/>
     </g>
     <g id="line2d_8">
      <g>
       <use xlink:href="#mb6a82018ed" x="278.767669" y="356.965" style="stroke: #000000; stroke-width: 0.8"/>
      </g>
     </g>
     <g id="text_4">
      <!-- 150 -->
      <g transform="translate(269.767669 372.215) scale(0.12 -0.12)">
       <use xlink:href="#SimHei-31"/>
       <use xlink:href="#SimHei-35" transform="translate(50 0)"/>
       <use xlink:href="#SimHei-30" transform="translate(100 0)"/>
      </g>
     </g>
    </g>
    <g id="xtick_5">
     <g id="line2d_9">
      <path d="M 342.33568 356.965 
L 342.33568 24.325 
" clip-path="url(#pc12f1b444d)" style="fill: none; stroke: #b0b0b0; stroke-opacity: 0.3; stroke-width: 0.8; stroke-linecap: square"/>
     </g>
     <g id="line2d_10">
      <g>
       <use xlink:href="#mb6a82018ed" x="342.33568" y="356.965" style="stroke: #000000; stroke-width: 0.8"/>
      </g>
     </g>
     <g id="text_5">
      <!-- 200 -->
      <g transform="translate(333.33568 372.215) scale(0.12 -0.12)">
       <defs>
        <path id="SimHei-32" d="M 300 250 
Q 325 625 650 925 
Q 975 1225 1475 1862 
Q 1975 2500 2125 2850 
Q 2275 3200 2237 3450 
Q 2200 3700 2000 3862 
Q 1800 4025 1537 4000 
Q 1275 3975 1037 3800 
Q 800 3625 675 3275 
L 200 3350 
Q 400 3925 712 4187 
Q 1025 4450 1450 4475 
Q 1700 4500 1900 4462 
Q 2100 4425 2312 4287 
Q 2525 4150 2662 3875 
Q 2800 3600 2762 3212 
Q 2725 2825 2375 2287 
Q 2025 1750 1025 600 
L 2825 600 
L 2825 150 
L 300 150 
L 300 250 
z
" transform="scale(0.015625)"/>
       </defs>
       <use xlink:href="#SimHei-32"/>
       <use xlink:href="#SimHei-30" transform="translate(50 0)"/>
       <use xlink:href="#SimHei-30" transform="translate(100 0)"/>
      </g>
     </g>
    </g>
    <g id="xtick_6">
     <g id="line2d_11">
      <path d="M 405.903691 356.965 
L 405.903691 24.325 
" clip-path="url(#pc12f1b444d)" style="fill: none; stroke: #b0b0b0; stroke-opacity: 0.3; stroke-width: 0.8; stroke-linecap: square"/>
     </g>
     <g id="line2d_12">
      <g>
       <use xlink:href="#mb6a82018ed" x="405.903691" y="356.965" style="stroke: #000000; stroke-width: 0.8"/>
      </g>
     </g>
     <g id="text_6">
      <!-- 250 -->
      <g transform="translate(396.903691 372.215) scale(0.12 -0.12)">
       <use xlink:href="#SimHei-32"/>
       <use xlink:href="#SimHei-35" transform="translate(50 0)"/>
       <use xlink:href="#SimHei-30" transform="translate(100 0)"/>
      </g>
     </g>
    </g>
    <g id="xtick_7">
     <g id="line2d_13">
      <path d="M 469.471702 356.965 
L 469.471702 24.325 
" clip-path="url(#pc12f1b444d)" style="fill: none; stroke: #b0b0b0; stroke-opacity: 0.3; stroke-width: 0.8; stroke-linecap: square"/>
     </g>
     <g id="line2d_14">
      <g>
       <use xlink:href="#mb6a82018ed" x="469.471702" y="356.965" style="stroke: #000000; stroke-width: 0.8"/>
      </g>
     </g>
     <g id="text_7">
      <!-- 300 -->
      <g transform="translate(460.471702 372.215) scale(0.12 -0.12)">
       <defs>
        <path id="SimHei-33" d="M 250 1225 
L 700 1300 
Q 800 975 1025 762 
Q 1250 550 1587 562 
Q 1925 575 2125 837 
Q 2325 1100 2300 1437 
Q 2275 1775 2037 1962 
Q 1800 2150 1275 2225 
L 1275 2550 
Q 1800 2600 2037 2825 
Q 2275 3050 2250 3412 
Q 2225 3775 1925 3937 
Q 1625 4100 1287 3975 
Q 950 3850 750 3275 
L 300 3350 
Q 450 3800 712 4100 
Q 975 4400 1425 4450 
Q 1875 4500 2212 4337 
Q 2550 4175 2687 3837 
Q 2825 3500 2725 3100 
Q 2625 2700 2150 2400 
Q 2500 2250 2687 1950 
Q 2875 1650 2812 1162 
Q 2750 675 2375 375 
Q 2000 75 1525 87 
Q 1050 100 700 387 
Q 350 675 250 1225 
z
" transform="scale(0.015625)"/>
       </defs>
       <use xlink:href="#SimHei-33"/>
       <use xlink:href="#SimHei-30" transform="translate(50 0)"/>
       <use xlink:href="#SimHei-30" transform="translate(100 0)"/>
      </g>
     </g>
    </g>
    <g id="xtick_8">
     <g id="line2d_15">
      <path d="M 533.039713 356.965 
L 533.039713 24.325 
" clip-path="url(#pc12f1b444d)" style="fill: none; stroke: #b0b0b0; stroke-opacity: 0.3; stroke-width: 0.8; stroke-linecap: square"/>
     </g>
     <g id="line2d_16">
      <g>
       <use xlink:href="#mb6a82018ed" x="533.039713" y="356.965" style="stroke: #000000; stroke-width: 0.8"/>
      </g>
     </g>
     <g id="text_8">
      <!-- 350 -->
      <g transform="translate(524.039713 372.215) scale(0.12 -0.12)">
       <use xlink:href="#SimHei-33"/>
       <use xlink:href="#SimHei-35" transform="translate(50 0)"/>
       <use xlink:href="#SimHei-30" transform="translate(100 0)"/>
      </g>
     </g>
    </g>
    <g id="xtick_9">
     <g id="line2d_17">
      <path d="M 596.607724 356.965 
L 596.607724 24.325 
" clip-path="url(#pc12f1b444d)" style="fill: none; stroke: #b0b0b0; stroke-opacity: 0.3; stroke-width: 0.8; stroke-linecap: square"/>
     </g>
     <g id="line2d_18">
      <g>
       <use xlink:href="#mb6a82018ed" x="596.607724" y="356.965" style="stroke: #000000; stroke-width: 0.8"/>
      </g>
     </g>
     <g id="text_9">
      <!-- 400 -->
      <g transform="translate(587.607724 372.215) scale(0.12 -0.12)">
       <defs>
        <path id="SimHei-34" d="M 2000 1100 
L 75 1100 
L 75 1525 
L 2100 4450 
L 2475 4450 
L 2475 1525 
L 3075 1525 
L 3075 1100 
L 2475 1100 
L 2475 150 
L 2000 150 
L 2000 1100 
z
M 2000 1525 
L 2000 3500 
L 600 1525 
L 2000 1525 
z
" transform="scale(0.015625)"/>
       </defs>
       <use xlink:href="#SimHei-34"/>
       <use xlink:href="#SimHei-30" transform="translate(50 0)"/>
       <use xlink:href="#SimHei-30" transform="translate(100 0)"/>
      </g>
     </g>
    </g>
    <g id="text_10">
     <!-- Episode -->
     <g transform="translate(313.7 388.715) scale(0.16 -0.16)">
      <defs>
       <path id="SimHei-45" d="M 2900 125 
L 350 125 
L 350 4400 
L 2775 4400 
L 2775 3925 
L 925 3925 
L 925 2600 
L 2625 2600 
L 2625 2125 
L 925 2125 
L 925 600 
L 2900 600 
L 2900 125 
z
" transform="scale(0.015625)"/>
       <path id="SimHei-70" d="M 2825 1525 
Q 2825 800 2475 425 
Q 2125 50 1625 50 
Q 1350 50 1150 162 
Q 950 275 800 500 
L 800 -800 
L 300 -800 
L 300 2925 
L 800 2925 
L 800 2550 
Q 950 2775 1150 2875 
Q 1350 2975 1625 2975 
Q 2125 2975 2475 2612 
Q 2825 2250 2825 1525 
z
M 2275 1525 
Q 2275 2000 2087 2262 
Q 1900 2525 1525 2525 
Q 1225 2525 1012 2262 
Q 800 2000 800 1525 
Q 800 1050 1012 775 
Q 1225 500 1525 500 
Q 1900 500 2087 775 
Q 2275 1050 2275 1525 
z
" transform="scale(0.015625)"/>
       <path id="SimHei-69" d="M 1800 3725 
L 1300 3725 
L 1300 4375 
L 1800 4375 
L 1800 3725 
z
M 1800 125 
L 1300 125 
L 1300 2925 
L 1800 2925 
L 1800 125 
z
" transform="scale(0.015625)"/>
       <path id="SimHei-73" d="M 2750 900 
Q 2750 500 2437 287 
Q 2125 75 1650 75 
Q 1050 75 725 312 
Q 400 550 400 1000 
L 900 1000 
Q 900 700 1112 600 
Q 1325 500 1625 500 
Q 1925 500 2075 612 
Q 2225 725 2225 900 
Q 2225 1025 2100 1150 
Q 1975 1275 1475 1350 
Q 900 1425 687 1637 
Q 475 1850 475 2200 
Q 475 2500 762 2737 
Q 1050 2975 1600 2975 
Q 2100 2975 2387 2750 
Q 2675 2525 2675 2150 
L 2175 2150 
Q 2175 2375 2012 2462 
Q 1850 2550 1600 2550 
Q 1275 2550 1137 2437 
Q 1000 2325 1000 2175 
Q 1000 2000 1125 1900 
Q 1250 1800 1650 1750 
Q 2300 1650 2525 1437 
Q 2750 1225 2750 900 
z
" transform="scale(0.015625)"/>
       <path id="SimHei-6f" d="M 2925 1525 
Q 2925 875 2525 475 
Q 2125 75 1575 75 
Q 1025 75 625 475 
Q 225 875 225 1525 
Q 225 2175 625 2575 
Q 1025 2975 1575 2975 
Q 2125 2975 2525 2575 
Q 2925 2175 2925 1525 
z
M 2375 1525 
Q 2375 2025 2125 2275 
Q 1875 2525 1575 2525 
Q 1275 2525 1025 2275 
Q 775 2025 775 1525 
Q 775 1025 1025 775 
Q 1275 525 1575 525 
Q 1875 525 2125 775 
Q 2375 1025 2375 1525 
z
" transform="scale(0.015625)"/>
       <path id="SimHei-64" d="M 2750 125 
L 2250 125 
L 2250 500 
Q 2100 275 1900 175 
Q 1700 75 1425 75 
Q 925 75 575 437 
Q 225 800 225 1525 
Q 225 2250 575 2625 
Q 925 3000 1425 3000 
Q 1700 3000 1900 2887 
Q 2100 2775 2250 2550 
L 2250 4400 
L 2750 4400 
L 2750 125 
z
M 2250 1525 
Q 2250 2000 2037 2275 
Q 1825 2550 1525 2550 
Q 1150 2550 962 2275 
Q 775 2000 775 1525 
Q 775 1050 962 787 
Q 1150 525 1525 525 
Q 1825 525 2037 787 
Q 2250 1050 2250 1525 
z
" transform="scale(0.015625)"/>
       <path id="SimHei-65" d="M 2850 1075 
Q 2800 625 2450 350 
Q 2100 75 1625 75 
Q 1025 75 637 462 
Q 250 850 250 1525 
Q 250 2200 637 2587 
Q 1025 2975 1625 2975 
Q 2150 2975 2487 2637 
Q 2825 2300 2825 1525 
L 800 1525 
Q 800 975 1037 750 
Q 1275 525 1625 525 
Q 1900 525 2075 662 
Q 2250 800 2300 1075 
L 2850 1075 
z
M 2250 1925 
Q 2200 2275 2025 2412 
Q 1850 2550 1575 2550 
Q 1325 2550 1125 2412 
Q 925 2275 825 1925 
L 2250 1925 
z
" transform="scale(0.015625)"/>
      </defs>
      <use xlink:href="#SimHei-45"/>
      <use xlink:href="#SimHei-70" transform="translate(50 0)"/>
      <use xlink:href="#SimHei-69" transform="translate(100 0)"/>
      <use xlink:href="#SimHei-73" transform="translate(150 0)"/>
      <use xlink:href="#SimHei-6f" transform="translate(200 0)"/>
      <use xlink:href="#SimHei-64" transform="translate(250 0)"/>
      <use xlink:href="#SimHei-65" transform="translate(300 0)"/>
     </g>
    </g>
   </g>
   <g id="matplotlib.axis_2">
    <g id="ytick_1">
     <g id="line2d_19">
      <path d="M 62.7 337.187169 
L 620.7 337.187169 
" clip-path="url(#pc12f1b444d)" style="fill: none; stroke: #b0b0b0; stroke-opacity: 0.3; stroke-width: 0.8; stroke-linecap: square"/>
     </g>
     <g id="line2d_20">
      <defs>
       <path id="m52f3172790" d="M 0 0 
L -3.5 0 
" style="stroke: #000000; stroke-width: 0.8"/>
      </defs>
      <g>
       <use xlink:href="#m52f3172790" x="62.7" y="337.187169" style="stroke: #000000; stroke-width: 0.8"/>
      </g>
     </g>
     <g id="text_11">
      <!-- 0.050 -->
      <g transform="translate(25.7 341.312169) scale(0.12 -0.12)">
       <defs>
        <path id="SimHei-2e" d="M 1075 125 
L 500 125 
L 500 675 
L 1075 675 
L 1075 125 
z
" transform="scale(0.015625)"/>
       </defs>
       <use xlink:href="#SimHei-30"/>
       <use xlink:href="#SimHei-2e" transform="translate(50 0)"/>
       <use xlink:href="#SimHei-30" transform="translate(100 0)"/>
       <use xlink:href="#SimHei-35" transform="translate(150 0)"/>
       <use xlink:href="#SimHei-30" transform="translate(200 0)"/>
      </g>
     </g>
    </g>
    <g id="ytick_2">
     <g id="line2d_21">
      <path d="M 62.7 295.296519 
L 620.7 295.296519 
" clip-path="url(#pc12f1b444d)" style="fill: none; stroke: #b0b0b0; stroke-opacity: 0.3; stroke-width: 0.8; stroke-linecap: square"/>
     </g>
     <g id="line2d_22">
      <g>
       <use xlink:href="#m52f3172790" x="62.7" y="295.296519" style="stroke: #000000; stroke-width: 0.8"/>
      </g>
     </g>
     <g id="text_12">
      <!-- 0.075 -->
      <g transform="translate(25.7 299.421519) scale(0.12 -0.12)">
       <defs>
        <path id="SimHei-37" d="M 850 150 
Q 1300 2050 2425 3925 
L 275 3925 
L 275 4375 
L 2950 4375 
L 2950 3950 
Q 1775 2050 1400 150 
L 850 150 
z
" transform="scale(0.015625)"/>
       </defs>
       <use xlink:href="#SimHei-30"/>
       <use xlink:href="#SimHei-2e" transform="translate(50 0)"/>
       <use xlink:href="#SimHei-30" transform="translate(100 0)"/>
       <use xlink:href="#SimHei-37" transform="translate(150 0)"/>
       <use xlink:href="#SimHei-35" transform="translate(200 0)"/>
      </g>
     </g>
    </g>
    <g id="ytick_3">
     <g id="line2d_23">
      <path d="M 62.7 253.40587 
L 620.7 253.40587 
" clip-path="url(#pc12f1b444d)" style="fill: none; stroke: #b0b0b0; stroke-opacity: 0.3; stroke-width: 0.8; stroke-linecap: square"/>
     </g>
     <g id="line2d_24">
      <g>
       <use xlink:href="#m52f3172790" x="62.7" y="253.40587" style="stroke: #000000; stroke-width: 0.8"/>
      </g>
     </g>
     <g id="text_13">
      <!-- 0.100 -->
      <g transform="translate(25.7 257.53087) scale(0.12 -0.12)">
       <use xlink:href="#SimHei-30"/>
       <use xlink:href="#SimHei-2e" transform="translate(50 0)"/>
       <use xlink:href="#SimHei-31" transform="translate(100 0)"/>
       <use xlink:href="#SimHei-30" transform="translate(150 0)"/>
       <use xlink:href="#SimHei-30" transform="translate(200 0)"/>
      </g>
     </g>
    </g>
    <g id="ytick_4">
     <g id="line2d_25">
      <path d="M 62.7 211.51522 
L 620.7 211.51522 
" clip-path="url(#pc12f1b444d)" style="fill: none; stroke: #b0b0b0; stroke-opacity: 0.3; stroke-width: 0.8; stroke-linecap: square"/>
     </g>
     <g id="line2d_26">
      <g>
       <use xlink:href="#m52f3172790" x="62.7" y="211.51522" style="stroke: #000000; stroke-width: 0.8"/>
      </g>
     </g>
     <g id="text_14">
      <!-- 0.125 -->
      <g transform="translate(25.7 215.64022) scale(0.12 -0.12)">
       <use xlink:href="#SimHei-30"/>
       <use xlink:href="#SimHei-2e" transform="translate(50 0)"/>
       <use xlink:href="#SimHei-31" transform="translate(100 0)"/>
       <use xlink:href="#SimHei-32" transform="translate(150 0)"/>
       <use xlink:href="#SimHei-35" transform="translate(200 0)"/>
      </g>
     </g>
    </g>
    <g id="ytick_5">
     <g id="line2d_27">
      <path d="M 62.7 169.62457 
L 620.7 169.62457 
" clip-path="url(#pc12f1b444d)" style="fill: none; stroke: #b0b0b0; stroke-opacity: 0.3; stroke-width: 0.8; stroke-linecap: square"/>
     </g>
     <g id="line2d_28">
      <g>
       <use xlink:href="#m52f3172790" x="62.7" y="169.62457" style="stroke: #000000; stroke-width: 0.8"/>
      </g>
     </g>
     <g id="text_15">
      <!-- 0.150 -->
      <g transform="translate(25.7 173.74957) scale(0.12 -0.12)">
       <use xlink:href="#SimHei-30"/>
       <use xlink:href="#SimHei-2e" transform="translate(50 0)"/>
       <use xlink:href="#SimHei-31" transform="translate(100 0)"/>
       <use xlink:href="#SimHei-35" transform="translate(150 0)"/>
       <use xlink:href="#SimHei-30" transform="translate(200 0)"/>
      </g>
     </g>
    </g>
    <g id="ytick_6">
     <g id="line2d_29">
      <path d="M 62.7 127.733921 
L 620.7 127.733921 
" clip-path="url(#pc12f1b444d)" style="fill: none; stroke: #b0b0b0; stroke-opacity: 0.3; stroke-width: 0.8; stroke-linecap: square"/>
     </g>
     <g id="line2d_30">
      <g>
       <use xlink:href="#m52f3172790" x="62.7" y="127.733921" style="stroke: #000000; stroke-width: 0.8"/>
      </g>
     </g>
     <g id="text_16">
      <!-- 0.175 -->
      <g transform="translate(25.7 131.858921) scale(0.12 -0.12)">
       <use xlink:href="#SimHei-30"/>
       <use xlink:href="#SimHei-2e" transform="translate(50 0)"/>
       <use xlink:href="#SimHei-31" transform="translate(100 0)"/>
       <use xlink:href="#SimHei-37" transform="translate(150 0)"/>
       <use xlink:href="#SimHei-35" transform="translate(200 0)"/>
      </g>
     </g>
    </g>
    <g id="ytick_7">
     <g id="line2d_31">
      <path d="M 62.7 85.843271 
L 620.7 85.843271 
" clip-path="url(#pc12f1b444d)" style="fill: none; stroke: #b0b0b0; stroke-opacity: 0.3; stroke-width: 0.8; stroke-linecap: square"/>
     </g>
     <g id="line2d_32">
      <g>
       <use xlink:href="#m52f3172790" x="62.7" y="85.843271" style="stroke: #000000; stroke-width: 0.8"/>
      </g>
     </g>
     <g id="text_17">
      <!-- 0.200 -->
      <g transform="translate(25.7 89.968271) scale(0.12 -0.12)">
       <use xlink:href="#SimHei-30"/>
       <use xlink:href="#SimHei-2e" transform="translate(50 0)"/>
       <use xlink:href="#SimHei-32" transform="translate(100 0)"/>
       <use xlink:href="#SimHei-30" transform="translate(150 0)"/>
       <use xlink:href="#SimHei-30" transform="translate(200 0)"/>
      </g>
     </g>
    </g>
    <g id="ytick_8">
     <g id="line2d_33">
      <path d="M 62.7 43.952622 
L 620.7 43.952622 
" clip-path="url(#pc12f1b444d)" style="fill: none; stroke: #b0b0b0; stroke-opacity: 0.3; stroke-width: 0.8; stroke-linecap: square"/>
     </g>
     <g id="line2d_34">
      <g>
       <use xlink:href="#m52f3172790" x="62.7" y="43.952622" style="stroke: #000000; stroke-width: 0.8"/>
      </g>
     </g>
     <g id="text_18">
      <!-- 0.225 -->
      <g transform="translate(25.7 48.077622) scale(0.12 -0.12)">
       <use xlink:href="#SimHei-30"/>
       <use xlink:href="#SimHei-2e" transform="translate(50 0)"/>
       <use xlink:href="#SimHei-32" transform="translate(100 0)"/>
       <use xlink:href="#SimHei-32" transform="translate(150 0)"/>
       <use xlink:href="#SimHei-35" transform="translate(200 0)"/>
      </g>
     </g>
    </g>
    <g id="text_19">
     <!-- Delay (s) -->
     <g transform="translate(19.7 226.645) rotate(-90) scale(0.16 -0.16)">
      <defs>
       <path id="SimHei-44" d="M 2925 2250 
Q 2925 1100 2437 612 
Q 1950 125 1125 125 
L 275 125 
L 275 4400 
L 1125 4400 
Q 2050 4400 2487 3900 
Q 2925 3400 2925 2250 
z
M 2325 2250 
Q 2325 3175 2025 3550 
Q 1725 3925 1125 3925 
L 850 3925 
L 850 600 
L 1125 600 
Q 1725 600 2025 962 
Q 2325 1325 2325 2250 
z
" transform="scale(0.015625)"/>
       <path id="SimHei-6c" d="M 1825 125 
L 1325 125 
L 1325 4400 
L 1825 4400 
L 1825 125 
z
" transform="scale(0.015625)"/>
       <path id="SimHei-61" d="M 2875 125 
L 2275 125 
Q 2225 175 2200 262 
Q 2175 350 2175 475 
Q 2000 275 1750 175 
Q 1500 75 1225 75 
Q 825 75 550 275 
Q 275 475 275 850 
Q 275 1225 525 1450 
Q 775 1675 1300 1750 
Q 1650 1800 1912 1875 
Q 2175 1950 2175 2075 
Q 2175 2225 2062 2375 
Q 1950 2525 1575 2525 
Q 1275 2525 1137 2412 
Q 1000 2300 950 2100 
L 400 2100 
Q 450 2500 762 2737 
Q 1075 2975 1575 2975 
Q 2125 2975 2400 2725 
Q 2675 2475 2675 2025 
L 2675 650 
Q 2675 500 2725 375 
Q 2775 250 2875 125 
z
M 2175 1050 
L 2175 1550 
Q 2025 1500 1887 1462 
Q 1750 1425 1425 1375 
Q 1050 1325 937 1200 
Q 825 1075 825 900 
Q 825 750 937 637 
Q 1050 525 1275 525 
Q 1500 525 1762 650 
Q 2025 775 2175 1050 
z
" transform="scale(0.015625)"/>
       <path id="SimHei-79" d="M 2900 2925 
L 1750 -100 
Q 1650 -450 1450 -625 
Q 1250 -800 950 -800 
Q 825 -800 712 -787 
Q 600 -775 500 -725 
L 500 -225 
Q 600 -275 700 -300 
Q 800 -325 875 -325 
Q 1075 -325 1150 -262 
Q 1225 -200 1300 25 
L 200 2925 
L 750 2925 
L 1550 725 
L 1575 725 
L 2350 2925 
L 2900 2925 
z
" transform="scale(0.015625)"/>
       <path id="SimHei-20" transform="scale(0.015625)"/>
       <path id="SimHei-28" d="M 2975 -200 
L 2700 -475 
Q 2075 125 1762 775 
Q 1450 1425 1450 2250 
Q 1450 3075 1762 3725 
Q 2075 4375 2700 5000 
L 2975 4725 
Q 2400 4175 2112 3587 
Q 1825 3000 1825 2250 
Q 1825 1500 2112 912 
Q 2400 325 2975 -200 
z
" transform="scale(0.015625)"/>
       <path id="SimHei-29" d="M 1675 2250 
Q 1675 1425 1362 775 
Q 1050 125 425 -475 
L 150 -200 
Q 725 325 1012 912 
Q 1300 1500 1300 2250 
Q 1300 3000 1012 3587 
Q 725 4175 150 4725 
L 425 5000 
Q 1050 4375 1362 3725 
Q 1675 3075 1675 2250 
z
" transform="scale(0.015625)"/>
      </defs>
      <use xlink:href="#SimHei-44"/>
      <use xlink:href="#SimHei-65" transform="translate(50 0)"/>
      <use xlink:href="#SimHei-6c" transform="translate(100 0)"/>
      <use xlink:href="#SimHei-61" transform="translate(150 0)"/>
      <use xlink:href="#SimHei-79" transform="translate(200 0)"/>
      <use xlink:href="#SimHei-20" transform="translate(250 0)"/>
      <use xlink:href="#SimHei-28" transform="translate(300 0)"/>
      <use xlink:href="#SimHei-73" transform="translate(350 0)"/>
      <use xlink:href="#SimHei-29" transform="translate(400 0)"/>
     </g>
    </g>
   </g>
   <g id="line2d_35">
    <path d="M 88.063636 88.897313 
L 89.334997 101.954132 
L 90.606357 125.460162 
L 91.877717 146.265946 
L 95.691798 196.47977 
L 96.963158 210.810078 
L 98.234518 223.465259 
L 100.777239 245.611674 
L 102.048599 254.930835 
L 103.319959 262.489047 
L 104.591319 268.507873 
L 107.13404 283.155985 
L 108.4054 289.001693 
L 109.67676 294.172044 
L 117.304921 315.645598 
L 118.576282 318.26442 
L 119.847642 318.973072 
L 121.119002 320.257423 
L 122.390362 322.849092 
L 123.661722 324.510184 
L 124.933083 325.637022 
L 126.204443 326.445966 
L 127.475803 326.967882 
L 130.018524 328.914733 
L 131.289884 329.511609 
L 133.832604 332.17025 
L 135.103964 330.051677 
L 136.375325 330.353605 
L 137.646685 331.295813 
L 138.918045 331.106394 
L 140.189405 332.090071 
L 141.460766 332.270013 
L 142.732126 332.160473 
L 144.003486 333.055356 
L 146.546206 332.171729 
L 147.817567 332.411437 
L 149.088927 333.135612 
L 150.360287 334.643529 
L 151.631647 335.872195 
L 152.903008 335.407772 
L 154.174368 332.439003 
L 156.717088 331.899657 
L 157.988448 330.599897 
L 159.259809 329.473922 
L 160.531169 330.048162 
L 161.802529 328.673576 
L 164.345249 331.254305 
L 166.88797 332.589225 
L 168.15933 333.751504 
L 169.43069 334.578737 
L 170.702051 334.238406 
L 171.973411 332.049144 
L 173.244771 332.990881 
L 174.516131 333.447693 
L 175.787491 334.79099 
L 177.058852 336.304037 
L 178.330212 336.483193 
L 179.601572 336.886979 
L 180.872932 337.415454 
L 182.144293 335.787784 
L 183.415653 335.180795 
L 184.687013 334.882349 
L 185.958373 335.237383 
L 187.229733 335.154304 
L 188.501094 335.927218 
L 189.772454 335.938351 
L 191.043814 336.591789 
L 192.315174 337.554269 
L 193.586535 337.713993 
L 194.857895 338.28053 
L 196.129255 338.578388 
L 197.400615 337.590063 
L 199.943336 337.58959 
L 201.214696 337.264551 
L 202.486056 336.383749 
L 203.757416 335.843039 
L 205.028776 335.157202 
L 206.300137 336.822474 
L 207.571497 336.558293 
L 208.842857 336.054383 
L 210.114217 336.147824 
L 212.656938 336.552243 
L 213.928298 336.447401 
L 215.199658 336.567935 
L 216.471018 335.844262 
L 217.742379 335.438833 
L 219.013739 336.777018 
L 220.285099 334.934591 
L 221.556459 335.22315 
L 222.82782 332.917102 
L 224.09918 333.46331 
L 226.6419 335.61217 
L 227.91326 335.896511 
L 229.184621 335.449172 
L 230.455981 336.533174 
L 235.541422 335.488605 
L 236.812782 334.819062 
L 238.084142 335.599393 
L 239.355502 336.714413 
L 241.898223 337.11944 
L 243.169583 336.803941 
L 244.440943 336.610898 
L 245.712303 336.700449 
L 246.983664 335.971322 
L 248.255024 335.619892 
L 249.526384 336.566176 
L 250.797744 336.686032 
L 252.069105 336.587457 
L 253.340465 336.14983 
L 254.611825 335.031564 
L 255.883185 335.721958 
L 258.425906 336.715035 
L 259.697266 336.387577 
L 260.968626 338.018109 
L 262.239986 338.814731 
L 263.511347 339.034184 
L 266.054067 334.662081 
L 267.325427 335.869939 
L 268.596787 335.36702 
L 269.868148 336.308321 
L 271.139508 335.397786 
L 272.410868 336.123852 
L 273.682228 335.864724 
L 274.953589 336.169467 
L 276.224949 336.609211 
L 277.496309 337.34735 
L 278.767669 336.468794 
L 280.039029 336.711963 
L 281.31039 336.5505 
L 282.58175 336.087288 
L 283.85311 333.513023 
L 285.12447 334.801131 
L 286.39583 334.989326 
L 287.667191 334.346442 
L 288.938551 334.329641 
L 290.209911 334.190479 
L 291.481271 334.440567 
L 292.752632 334.406276 
L 294.023992 334.857593 
L 295.295352 335.108419 
L 297.838072 337.503204 
L 300.380793 339.03667 
L 301.652153 340.140557 
L 302.923513 338.757271 
L 304.194874 338.230504 
L 305.466234 336.369841 
L 306.737594 337.333974 
L 308.008954 335.814923 
L 309.280314 335.628975 
L 310.551675 334.644047 
L 311.823035 336.095027 
L 313.094395 334.044586 
L 314.365755 335.129788 
L 315.637116 334.620232 
L 316.908476 335.519963 
L 319.451196 336.670733 
L 320.722556 335.356194 
L 321.993917 335.536179 
L 323.265277 335.481143 
L 324.536637 334.746736 
L 325.807997 333.709328 
L 327.079357 334.067728 
L 328.350718 333.457261 
L 329.622078 333.002774 
L 330.893438 332.978619 
L 332.164798 333.801292 
L 333.436159 334.102122 
L 334.707519 332.53698 
L 335.978879 333.139451 
L 337.250239 333.934866 
L 338.521599 333.984149 
L 339.79296 335.437806 
L 341.06432 335.601069 
L 342.33568 333.76596 
L 343.60704 334.34703 
L 344.878401 334.476619 
L 347.421121 335.695499 
L 348.692481 335.980994 
L 349.963841 336.88407 
L 351.235202 336.90445 
L 352.506562 337.825804 
L 353.777922 337.010861 
L 355.049282 338.337262 
L 356.320643 338.327509 
L 357.592003 337.596375 
L 358.863363 337.317471 
L 360.134723 337.713542 
L 361.406083 334.696139 
L 362.677444 335.727717 
L 363.948804 334.901014 
L 365.220164 333.576916 
L 366.491524 334.07277 
L 367.762884 333.361895 
L 369.034245 333.653953 
L 370.305605 333.101894 
L 374.119686 335.676225 
L 375.391046 335.451924 
L 376.662406 334.620304 
L 377.933766 334.581045 
L 379.205126 334.045392 
L 380.476487 333.95305 
L 381.747847 332.215729 
L 383.019207 333.470323 
L 384.290567 333.537012 
L 385.561928 334.78217 
L 386.833288 331.271592 
L 388.104648 330.950578 
L 389.376008 332.127513 
L 390.647368 332.359986 
L 391.918729 331.63499 
L 393.190089 333.108462 
L 394.461449 334.889062 
L 395.732809 335.929633 
L 397.00417 336.051218 
L 398.27553 335.863934 
L 399.54689 335.162372 
L 400.81825 333.756756 
L 402.08961 334.361988 
L 403.360971 334.55897 
L 404.632331 334.904831 
L 405.903691 334.047092 
L 409.717772 335.427371 
L 410.989132 335.507607 
L 412.260492 336.513555 
L 413.531852 334.760083 
L 414.803213 334.408067 
L 416.074573 334.321958 
L 418.617293 331.742258 
L 419.888653 332.715165 
L 421.160014 332.268186 
L 422.431374 331.131017 
L 423.702734 331.316985 
L 424.974094 332.053246 
L 426.245455 331.311578 
L 427.516815 331.952802 
L 428.788175 333.189488 
L 430.059535 332.685211 
L 432.602256 332.33832 
L 436.416336 335.452453 
L 437.687697 335.748951 
L 438.959057 334.401933 
L 440.230417 334.997057 
L 441.501777 335.307545 
L 442.773137 335.122116 
L 444.044498 333.794721 
L 445.315858 333.505692 
L 447.858578 334.288422 
L 449.129938 334.041991 
L 450.401299 333.049147 
L 451.672659 332.662336 
L 452.944019 332.836881 
L 454.215379 332.353526 
L 455.48674 333.171825 
L 456.7581 333.140416 
L 458.02946 334.349383 
L 459.30082 334.858666 
L 460.57218 336.644083 
L 461.843541 337.04375 
L 463.114901 338.244307 
L 465.657621 336.526774 
L 466.928982 335.229193 
L 468.200342 335.985989 
L 469.471702 336.606194 
L 470.743062 336.490711 
L 472.014422 337.237705 
L 473.285783 337.142595 
L 474.557143 336.280373 
L 475.828503 335.806443 
L 478.371224 335.823784 
L 479.642584 336.583345 
L 480.913944 337.506343 
L 482.185304 338.650831 
L 483.456664 338.117706 
L 484.728025 338.55829 
L 485.999385 337.320935 
L 487.270745 336.867333 
L 489.813465 337.779086 
L 491.084826 338.975137 
L 492.356186 339.240953 
L 493.627546 338.487692 
L 494.898906 338.261745 
L 496.170267 338.427969 
L 497.441627 339.592342 
L 498.712987 339.599566 
L 501.255707 338.388829 
L 502.527068 337.328272 
L 503.798428 337.438398 
L 505.069788 336.654264 
L 506.341148 337.410021 
L 507.612509 337.302553 
L 508.883869 337.747571 
L 510.155229 337.421453 
L 511.426589 335.724551 
L 512.697949 335.757018 
L 515.24067 335.478124 
L 516.51203 335.995163 
L 517.78339 336.355273 
L 519.054751 336.409572 
L 520.326111 335.1187 
L 521.597471 336.078027 
L 522.868831 337.496225 
L 524.140191 336.088732 
L 525.411552 335.59761 
L 526.682912 335.444498 
L 527.954272 334.006507 
L 529.225632 333.468876 
L 530.496992 333.906852 
L 531.768353 332.047161 
L 533.039713 332.327422 
L 534.311073 333.277412 
L 535.582433 333.905788 
L 538.125154 335.614627 
L 539.396514 335.087211 
L 540.667874 334.385788 
L 541.939234 334.442956 
L 543.210595 335.415629 
L 544.481955 336.142493 
L 545.753315 336.494601 
L 547.024675 336.992079 
L 548.296036 338.022743 
L 549.567396 337.761659 
L 550.838756 338.971979 
L 552.110116 339.019471 
L 553.381476 338.013708 
L 554.652837 337.866415 
L 555.924197 336.877632 
L 557.195557 337.955881 
L 558.466917 338.38127 
L 559.738278 339.325427 
L 561.009638 338.911561 
L 562.280998 339.61244 
L 563.552358 339.653812 
L 564.823718 338.912815 
L 566.095079 338.979966 
L 567.366439 340.1628 
L 569.909159 339.94294 
L 571.180519 338.587051 
L 572.45188 338.884846 
L 573.72324 340.393622 
L 574.9946 339.872589 
L 576.26596 339.488217 
L 577.537321 340.076092 
L 578.808681 340.29332 
L 580.080041 339.13487 
L 581.351401 339.556475 
L 582.622761 339.380135 
L 583.894122 337.510818 
L 585.165482 337.709333 
L 586.436842 337.618694 
L 587.708202 337.324606 
L 588.979563 338.727769 
L 590.250923 339.501607 
L 591.522283 337.688482 
L 592.793643 337.312788 
L 595.336364 336.026528 
L 595.336364 336.026528 
" clip-path="url(#pc12f1b444d)" style="fill: none; stroke: #1f77b4; stroke-width: 1.2; stroke-linecap: square"/>
   </g>
   <g id="line2d_36">
    <path d="M 88.063636 39.445 
L 89.334997 58.426762 
L 91.877717 111.389694 
L 95.691798 172.693098 
L 98.234518 202.641123 
L 99.505878 215.938535 
L 100.777239 227.892389 
L 102.048599 238.787849 
L 104.591319 257.182299 
L 105.862679 265.879877 
L 107.13404 272.983902 
L 108.4054 278.031174 
L 109.67676 283.90173 
L 110.94812 288.964409 
L 113.490841 299.818842 
L 116.033561 306.975824 
L 118.576282 312.198359 
L 119.847642 313.268658 
L 122.390362 319.057867 
L 123.661722 321.852552 
L 124.933083 323.769485 
L 126.204443 324.903341 
L 127.475803 325.694266 
L 128.747163 326.997684 
L 130.018524 327.881482 
L 131.289884 329.731287 
L 132.561244 330.659758 
L 133.832604 332.870083 
L 135.103964 332.446921 
L 136.375325 331.783121 
L 137.646685 333.286194 
L 138.918045 334.274285 
L 140.189405 333.863761 
L 141.460766 335.503643 
L 142.732126 336.015855 
L 144.003486 337.373471 
L 145.274846 333.961439 
L 146.546206 333.332997 
L 147.817567 333.281984 
L 149.088927 334.574866 
L 150.360287 335.085773 
L 151.631647 333.911261 
L 152.903008 334.23546 
L 154.174368 332.716683 
L 155.445728 331.968465 
L 156.717088 332.123138 
L 157.988448 333.311317 
L 159.259809 333.397993 
L 160.531169 335.454424 
L 161.802529 334.351666 
L 163.073889 335.339965 
L 164.345249 335.043823 
L 165.61661 336.235634 
L 168.15933 336.629444 
L 169.43069 336.256158 
L 170.702051 337.380287 
L 171.973411 335.034447 
L 173.244771 335.384986 
L 174.516131 335.321926 
L 177.058852 336.07523 
L 178.330212 336.375675 
L 179.601572 336.138497 
L 180.872932 336.445188 
L 182.144293 336.424932 
L 183.415653 336.915735 
L 184.687013 338.204627 
L 185.958373 337.636361 
L 187.229733 336.138669 
L 188.501094 337.408962 
L 189.772454 337.182986 
L 191.043814 337.911937 
L 192.315174 336.348498 
L 193.586535 336.430681 
L 194.857895 337.034696 
L 196.129255 337.976263 
L 197.400615 338.120051 
L 198.671975 337.38731 
L 199.943336 336.322011 
L 201.214696 336.702587 
L 202.486056 337.626889 
L 203.757416 337.452192 
L 205.028776 336.415321 
L 206.300137 336.118717 
L 207.571497 335.686877 
L 208.842857 332.069423 
L 211.385578 333.738367 
L 212.656938 334.251571 
L 213.928298 332.74999 
L 215.199658 334.127389 
L 216.471018 334.950483 
L 219.013739 336.054355 
L 220.285099 335.544043 
L 221.556459 336.228456 
L 222.82782 334.734912 
L 224.09918 332.990035 
L 225.37054 334.063223 
L 226.6419 332.600594 
L 229.184621 334.550881 
L 230.455981 334.326139 
L 231.727341 334.834788 
L 232.998701 335.827631 
L 234.270062 335.952484 
L 235.541422 334.749319 
L 236.812782 333.781683 
L 238.084142 334.400533 
L 239.355502 335.587091 
L 240.626863 336.489169 
L 241.898223 337.137497 
L 243.169583 335.77093 
L 245.712303 336.777436 
L 248.255024 337.97475 
L 249.526384 337.131378 
L 250.797744 335.967278 
L 252.069105 336.569022 
L 253.340465 335.37628 
L 254.611825 336.704207 
L 257.154545 337.794027 
L 258.425906 336.525041 
L 259.697266 334.960888 
L 260.968626 335.768869 
L 262.239986 335.086165 
L 263.511347 333.939516 
L 264.782707 333.948396 
L 266.054067 333.690578 
L 267.325427 335.653701 
L 268.596787 334.878226 
L 269.868148 335.871568 
L 271.139508 334.967786 
L 272.410868 334.253308 
L 273.682228 335.500956 
L 274.953589 336.177591 
L 276.224949 335.810169 
L 277.496309 336.42871 
L 278.767669 335.489705 
L 280.039029 335.196426 
L 281.31039 335.635335 
L 282.58175 335.336485 
L 283.85311 335.413042 
L 285.12447 335.130113 
L 287.667191 337.418266 
L 288.938551 337.090322 
L 290.209911 337.366617 
L 291.481271 336.381309 
L 292.752632 337.703008 
L 294.023992 337.425273 
L 295.295352 335.871709 
L 296.566712 335.484849 
L 297.838072 337.439102 
L 299.109433 337.297368 
L 300.380793 336.739437 
L 301.652153 335.916384 
L 304.194874 337.189715 
L 305.466234 336.528068 
L 306.737594 336.864501 
L 308.008954 336.540861 
L 309.280314 336.909991 
L 310.551675 337.944101 
L 311.823035 338.618775 
L 313.094395 340.12549 
L 314.365755 341.126578 
L 315.637116 340.734223 
L 316.908476 341.602581 
L 318.179836 341.845 
L 319.451196 341.060501 
L 321.993917 338.809609 
L 323.265277 338.975641 
L 325.807997 337.939005 
L 327.079357 336.140189 
L 328.350718 335.509239 
L 329.622078 335.89514 
L 330.893438 335.529573 
L 332.164798 334.73932 
L 333.436159 335.523703 
L 334.707519 334.033644 
L 335.978879 334.841882 
L 337.250239 335.505476 
L 338.521599 335.098097 
L 339.79296 333.362922 
L 341.06432 334.571716 
L 342.33568 334.251401 
L 343.60704 334.903293 
L 344.878401 334.533841 
L 346.149761 334.547864 
L 348.692481 335.829085 
L 349.963841 334.802398 
L 351.235202 333.414331 
L 352.506562 334.690667 
L 353.777922 332.37156 
L 355.049282 333.943355 
L 357.592003 334.766671 
L 358.863363 333.754501 
L 360.134723 334.047382 
L 361.406083 332.807961 
L 362.677444 333.721347 
L 363.948804 331.454129 
L 365.220164 332.361973 
L 366.491524 334.304629 
L 367.762884 333.026345 
L 369.034245 334.766659 
L 370.305605 335.1813 
L 371.576965 335.093017 
L 372.848325 336.090035 
L 374.119686 336.358556 
L 375.391046 336.76501 
L 376.662406 337.918194 
L 377.933766 337.958934 
L 379.205126 336.726398 
L 380.476487 336.894553 
L 381.747847 336.417096 
L 383.019207 337.467476 
L 384.290567 337.852604 
L 385.561928 338.811894 
L 386.833288 337.207237 
L 388.104648 337.311516 
L 389.376008 337.287303 
L 390.647368 336.576019 
L 391.918729 334.685672 
L 393.190089 334.912483 
L 394.461449 335.951047 
L 395.732809 335.499396 
L 397.00417 335.841761 
L 398.27553 336.999779 
L 399.54689 335.583717 
L 400.81825 332.947052 
L 403.360971 333.867056 
L 404.632331 334.881642 
L 405.903691 335.362831 
L 408.446411 336.096547 
L 409.717772 335.675747 
L 410.989132 335.879791 
L 412.260492 336.537123 
L 413.531852 336.440791 
L 414.803213 336.020576 
L 416.074573 337.20583 
L 417.345933 336.831941 
L 418.617293 337.418865 
L 419.888653 337.528558 
L 421.160014 337.416163 
L 422.431374 335.425848 
L 423.702734 335.330638 
L 424.974094 335.007746 
L 426.245455 335.768848 
L 427.516815 335.340446 
L 428.788175 336.415842 
L 430.059535 334.896941 
L 431.330895 333.118463 
L 432.602256 333.954724 
L 433.873616 334.428184 
L 435.144976 334.372769 
L 436.416336 336.06131 
L 437.687697 336.918282 
L 438.959057 335.623427 
L 440.230417 336.192002 
L 441.501777 335.245759 
L 442.773137 333.330233 
L 444.044498 333.499298 
L 445.315858 334.106445 
L 446.587218 334.489591 
L 447.858578 333.992002 
L 449.129938 333.276108 
L 450.401299 332.134553 
L 451.672659 331.679875 
L 452.944019 330.714477 
L 454.215379 331.714651 
L 455.48674 332.106035 
L 456.7581 332.897173 
L 458.02946 333.387768 
L 459.30082 334.31619 
L 460.57218 335.034049 
L 463.114901 335.572185 
L 464.386261 335.368782 
L 465.657621 335.356767 
L 466.928982 335.684401 
L 468.200342 335.398281 
L 469.471702 334.647222 
L 470.743062 335.798486 
L 472.014422 335.057576 
L 473.285783 335.369897 
L 475.828503 334.054797 
L 477.099863 333.63521 
L 478.371224 332.728044 
L 479.642584 333.645011 
L 480.913944 334.843004 
L 482.185304 334.742964 
L 483.456664 337.105522 
L 484.728025 337.213679 
L 485.999385 336.914704 
L 487.270745 335.364867 
L 488.542105 336.153606 
L 489.813465 335.938428 
L 491.084826 335.841604 
L 492.356186 336.177589 
L 493.627546 334.307008 
L 494.898906 331.976457 
L 496.170267 332.997941 
L 497.441627 332.164548 
L 498.712987 332.953076 
L 499.984347 332.41893 
L 501.255707 332.429285 
L 502.527068 331.281281 
L 503.798428 331.087844 
L 505.069788 333.305379 
L 506.341148 333.637327 
L 507.612509 334.932005 
L 510.155229 333.666795 
L 511.426589 334.097004 
L 512.697949 334.817115 
L 513.96931 334.478205 
L 515.24067 334.381553 
L 516.51203 333.103087 
L 519.054751 334.35939 
L 520.326111 334.164971 
L 521.597471 334.827495 
L 522.868831 334.615764 
L 524.140191 333.193191 
L 525.411552 332.572056 
L 526.682912 332.906629 
L 527.954272 331.020866 
L 530.496992 331.888279 
L 531.768353 332.37117 
L 533.039713 332.484239 
L 535.582433 335.659814 
L 536.853794 336.195594 
L 538.125154 336.028678 
L 539.396514 335.562681 
L 540.667874 335.65779 
L 541.939234 337.134828 
L 543.210595 337.518438 
L 544.481955 337.179635 
L 545.753315 337.242641 
L 547.024675 336.793284 
L 548.296036 336.770939 
L 549.567396 337.067324 
L 550.838756 336.971371 
L 552.110116 338.091351 
L 553.381476 338.166882 
L 554.652837 336.645192 
L 555.924197 337.233908 
L 557.195557 336.949361 
L 558.466917 336.063785 
L 559.738278 337.590538 
L 561.009638 336.552583 
L 562.280998 336.812786 
L 563.552358 337.295816 
L 564.823718 337.309032 
L 566.095079 337.772762 
L 567.366439 337.31404 
L 568.637799 336.192892 
L 569.909159 335.685795 
L 571.180519 334.76682 
L 572.45188 334.919856 
L 573.72324 335.825645 
L 574.9946 335.770819 
L 576.26596 335.909078 
L 577.537321 336.927592 
L 578.808681 336.737477 
L 581.351401 336.140093 
L 582.622761 337.077421 
L 583.894122 335.952772 
L 585.165482 336.68755 
L 586.436842 335.968227 
L 587.708202 336.130255 
L 588.979563 337.757776 
L 590.250923 337.709021 
L 591.522283 335.72184 
L 592.793643 336.843548 
L 594.065003 337.199848 
L 594.065003 337.199848 
" clip-path="url(#pc12f1b444d)" style="fill: none; stroke: #ff7f0e; stroke-width: 1.2; stroke-linecap: square"/>
   </g>
   <g id="line2d_37">
    <path d="M 88.063636 100.811198 
L 89.334997 98.059411 
L 90.606357 103.627001 
L 93.149077 124.311331 
L 94.420437 126.19961 
L 95.691798 132.788418 
L 96.963158 141.298342 
L 98.234518 153.776251 
L 99.505878 159.735652 
L 100.777239 169.519036 
L 102.048599 180.493342 
L 103.319959 186.800941 
L 104.591319 198.483989 
L 105.862679 208.99085 
L 107.13404 213.232358 
L 108.4054 225.171593 
L 109.67676 234.911563 
L 110.94812 243.223147 
L 112.219481 250.732863 
L 113.490841 260.187417 
L 114.762201 265.480489 
L 117.304921 279.881338 
L 118.576282 285.782295 
L 121.119002 295.351596 
L 122.390362 298.283516 
L 123.661722 302.397168 
L 124.933083 306.920817 
L 126.204443 309.414306 
L 127.475803 312.216569 
L 130.018524 316.786205 
L 131.289884 317.788735 
L 132.561244 319.181251 
L 133.832604 319.87176 
L 135.103964 322.949285 
L 136.375325 324.678241 
L 138.918045 327.120672 
L 140.189405 328.520477 
L 141.460766 327.859516 
L 142.732126 329.763406 
L 144.003486 330.256904 
L 145.274846 330.404834 
L 146.546206 331.847562 
L 149.088927 333.073706 
L 150.360287 333.630502 
L 151.631647 332.838124 
L 152.903008 333.28846 
L 154.174368 334.059385 
L 155.445728 335.098289 
L 156.717088 334.180074 
L 157.988448 333.493758 
L 159.259809 332.090833 
L 161.802529 332.5763 
L 164.345249 334.914999 
L 165.61661 334.92736 
L 166.88797 335.220873 
L 168.15933 334.845428 
L 169.43069 332.200897 
L 170.702051 333.296183 
L 171.973411 334.792316 
L 173.244771 334.383441 
L 174.516131 334.120415 
L 175.787491 334.312103 
L 177.058852 334.944583 
L 178.330212 336.464292 
L 179.601572 337.217314 
L 180.872932 338.684518 
L 182.144293 338.568468 
L 183.415653 337.939208 
L 184.687013 337.493695 
L 185.958373 337.60357 
L 187.229733 337.288701 
L 188.501094 337.676577 
L 189.772454 336.523382 
L 191.043814 336.817056 
L 192.315174 336.3756 
L 193.586535 336.654483 
L 194.857895 336.249877 
L 196.129255 336.114878 
L 197.400615 336.187979 
L 198.671975 335.610559 
L 199.943336 335.621635 
L 201.214696 332.460098 
L 203.757416 333.793735 
L 205.028776 334.876771 
L 206.300137 333.817327 
L 207.571497 334.595 
L 208.842857 332.883253 
L 210.114217 333.752496 
L 211.385578 334.417548 
L 212.656938 333.040354 
L 213.928298 330.133202 
L 215.199658 329.718585 
L 216.471018 329.92354 
L 217.742379 329.316572 
L 219.013739 330.924545 
L 220.285099 329.166179 
L 221.556459 329.79787 
L 222.82782 330.097802 
L 224.09918 331.169416 
L 225.37054 333.621161 
L 227.91326 333.659422 
L 229.184621 333.385534 
L 230.455981 334.232018 
L 231.727341 334.568747 
L 232.998701 336.112554 
L 234.270062 336.258039 
L 235.541422 336.853711 
L 236.812782 336.503197 
L 238.084142 335.086272 
L 239.355502 334.387749 
L 240.626863 335.622513 
L 241.898223 335.800124 
L 243.169583 334.740748 
L 244.440943 335.535842 
L 245.712303 334.704452 
L 246.983664 335.750593 
L 248.255024 336.19282 
L 249.526384 337.521443 
L 250.797744 337.817168 
L 253.340465 339.128634 
L 254.611825 340.148358 
L 255.883185 340.510286 
L 257.154545 340.166903 
L 258.425906 339.672678 
L 259.697266 339.395363 
L 260.968626 337.809873 
L 262.239986 337.936974 
L 263.511347 337.141965 
L 267.325427 336.839926 
L 269.868148 339.995397 
L 271.139508 337.90689 
L 272.410868 337.709939 
L 273.682228 337.329893 
L 274.953589 337.866901 
L 276.224949 336.828111 
L 277.496309 337.020164 
L 278.767669 336.123524 
L 280.039029 335.431211 
L 282.58175 336.277868 
L 283.85311 335.909944 
L 285.12447 336.144153 
L 286.39583 335.4184 
L 287.667191 334.408621 
L 288.938551 334.365651 
L 290.209911 335.313446 
L 291.481271 336.090723 
L 292.752632 336.302332 
L 294.023992 336.076167 
L 295.295352 336.218458 
L 296.566712 337.378028 
L 297.838072 337.677699 
L 299.109433 337.435617 
L 300.380793 337.866888 
L 301.652153 337.737947 
L 302.923513 338.054439 
L 304.194874 337.876625 
L 305.466234 337.377189 
L 306.737594 337.660547 
L 308.008954 334.375706 
L 309.280314 335.87906 
L 310.551675 335.583776 
L 311.823035 336.709016 
L 313.094395 336.57394 
L 314.365755 337.482214 
L 315.637116 336.218382 
L 316.908476 336.357592 
L 318.179836 334.305011 
L 319.451196 334.651071 
L 320.722556 335.718207 
L 321.993917 335.891227 
L 323.265277 337.211918 
L 324.536637 337.689051 
L 325.807997 337.844765 
L 327.079357 338.506232 
L 329.622078 339.043083 
L 330.893438 337.903192 
L 332.164798 338.042196 
L 334.707519 337.445568 
L 335.978879 337.072368 
L 337.250239 336.376523 
L 338.521599 337.246594 
L 339.79296 337.103061 
L 341.06432 335.261355 
L 342.33568 335.744382 
L 343.60704 336.85121 
L 347.421121 336.498642 
L 348.692481 336.977913 
L 349.963841 336.863938 
L 351.235202 336.565342 
L 352.506562 336.492571 
L 353.777922 335.866497 
L 355.049282 336.491743 
L 356.320643 336.936802 
L 357.592003 335.728058 
L 358.863363 335.762333 
L 360.134723 335.675785 
L 361.406083 336.127429 
L 362.677444 335.368894 
L 363.948804 335.341168 
L 365.220164 332.513164 
L 366.491524 332.137663 
L 367.762884 332.812425 
L 370.305605 331.616854 
L 371.576965 331.22419 
L 372.848325 331.862709 
L 375.391046 332.623133 
L 376.662406 333.852153 
L 379.205126 333.283644 
L 380.476487 332.853755 
L 381.747847 332.976051 
L 383.019207 331.66783 
L 384.290567 330.895468 
L 385.561928 332.29381 
L 386.833288 332.460287 
L 388.104648 332.199567 
L 390.647368 334.387015 
L 391.918729 334.945795 
L 393.190089 335.031628 
L 394.461449 334.145675 
L 395.732809 335.63525 
L 397.00417 335.575058 
L 398.27553 336.050245 
L 399.54689 336.81368 
L 400.81825 337.265078 
L 402.08961 338.548645 
L 403.360971 338.204127 
L 404.632331 339.462518 
L 405.903691 339.768299 
L 407.175051 340.304784 
L 408.446411 340.556982 
L 409.717772 339.834995 
L 410.989132 340.270539 
L 412.260492 338.200784 
L 413.531852 338.682916 
L 414.803213 338.127771 
L 416.074573 337.969145 
L 417.345933 338.494081 
L 418.617293 338.508205 
L 419.888653 337.591643 
L 422.431374 335.173447 
L 423.702734 336.266326 
L 424.974094 336.652558 
L 426.245455 336.011216 
L 427.516815 333.857897 
L 428.788175 333.007752 
L 430.059535 334.890291 
L 431.330895 333.446447 
L 432.602256 333.778341 
L 433.873616 335.295948 
L 435.144976 335.132527 
L 436.416336 337.08759 
L 437.687697 335.737589 
L 438.959057 335.321079 
L 442.773137 335.854847 
L 444.044498 336.345012 
L 445.315858 337.026705 
L 446.587218 336.648361 
L 447.858578 336.740456 
L 449.129938 335.853775 
L 450.401299 336.778624 
L 451.672659 336.679609 
L 452.944019 337.158257 
L 454.215379 336.338044 
L 455.48674 335.982398 
L 456.7581 334.010026 
L 458.02946 335.291386 
L 459.30082 334.504119 
L 460.57218 334.14748 
L 461.843541 333.591096 
L 463.114901 334.091029 
L 464.386261 334.763715 
L 465.657621 336.108842 
L 466.928982 335.782571 
L 468.200342 336.459947 
L 472.014422 337.575769 
L 473.285783 336.591609 
L 474.557143 334.813589 
L 475.828503 335.653602 
L 477.099863 335.43567 
L 478.371224 334.848799 
L 479.642584 335.678057 
L 480.913944 335.594761 
L 482.185304 333.975885 
L 483.456664 333.693422 
L 484.728025 332.181063 
L 485.999385 333.659348 
L 487.270745 333.812649 
L 488.542105 334.74485 
L 489.813465 334.350278 
L 491.084826 336.01617 
L 492.356186 333.892172 
L 493.627546 332.602328 
L 494.898906 333.658391 
L 496.170267 334.265632 
L 497.441627 332.788559 
L 498.712987 334.200158 
L 499.984347 334.711078 
L 501.255707 335.056918 
L 503.798428 333.976757 
L 505.069788 333.989784 
L 506.341148 335.002378 
L 508.883869 335.213243 
L 510.155229 336.510639 
L 512.697949 335.836416 
L 513.96931 335.930363 
L 515.24067 336.490161 
L 516.51203 336.490656 
L 517.78339 334.992517 
L 519.054751 334.957048 
L 520.326111 335.719988 
L 521.597471 335.439625 
L 522.868831 334.875463 
L 524.140191 335.056553 
L 525.411552 335.728357 
L 526.682912 335.401596 
L 527.954272 336.551811 
L 529.225632 335.701052 
L 530.496992 336.7847 
L 531.768353 337.347531 
L 533.039713 336.927316 
L 534.311073 337.761302 
L 535.582433 336.940653 
L 536.853794 337.989819 
L 538.125154 337.500886 
L 539.396514 337.659974 
L 540.667874 337.219676 
L 541.939234 336.179717 
L 543.210595 336.575205 
L 544.481955 336.484551 
L 545.753315 336.560048 
L 547.024675 337.155437 
L 548.296036 337.071991 
L 549.567396 336.222701 
L 550.838756 335.850324 
L 552.110116 333.906418 
L 553.381476 335.17393 
L 554.652837 335.641594 
L 555.924197 336.284805 
L 557.195557 337.270401 
L 558.466917 336.824033 
L 559.738278 337.593779 
L 561.009638 337.629025 
L 562.280998 338.279503 
L 563.552358 337.106021 
L 564.823718 336.980281 
L 566.095079 337.041609 
L 567.366439 337.627152 
L 568.637799 336.687595 
L 571.180519 336.45821 
L 572.45188 336.645683 
L 573.72324 335.331392 
L 574.9946 335.943349 
L 576.26596 335.305612 
L 577.537321 335.295777 
L 581.351401 336.697567 
L 582.622761 338.01597 
L 583.894122 337.285488 
L 585.165482 337.718402 
L 586.436842 337.912973 
L 587.708202 339.015894 
L 588.979563 339.282339 
L 590.250923 338.793815 
L 591.522283 337.793772 
L 592.793643 338.397059 
L 594.065003 336.829872 
L 594.065003 336.829872 
" clip-path="url(#pc12f1b444d)" style="fill: none; stroke: #2ca02c; stroke-width: 1.2; stroke-linecap: square"/>
   </g>
   <g id="line2d_38">
    <path d="M 88.063636 100.811198 
L 89.334997 91.843373 
L 90.606357 84.055729 
L 91.877717 68.403554 
L 93.149077 62.340755 
L 94.420437 82.695951 
L 95.691798 98.825185 
L 96.963158 111.279228 
L 100.777239 168.260055 
L 102.048599 181.422208 
L 104.591319 211.391789 
L 107.13404 234.024051 
L 110.94812 260.906902 
L 112.219481 268.538784 
L 113.490841 274.669239 
L 114.762201 281.381416 
L 116.033561 286.93193 
L 117.304921 291.973333 
L 118.576282 295.138471 
L 121.119002 303.858475 
L 123.661722 307.407608 
L 124.933083 309.762138 
L 126.204443 311.489697 
L 127.475803 315.244887 
L 128.747163 314.015341 
L 130.018524 316.451704 
L 131.289884 318.157983 
L 132.561244 320.681408 
L 133.832604 321.25407 
L 135.103964 322.857683 
L 136.375325 324.16982 
L 137.646685 322.248382 
L 138.918045 324.310905 
L 140.189405 326.711074 
L 141.460766 326.576812 
L 142.732126 328.239238 
L 144.003486 328.205795 
L 145.274846 329.132065 
L 146.546206 331.081145 
L 149.088927 332.354349 
L 150.360287 332.629313 
L 151.631647 333.67703 
L 152.903008 333.43806 
L 154.174368 332.317853 
L 155.445728 333.442103 
L 156.717088 333.002504 
L 157.988448 332.387252 
L 159.259809 333.422498 
L 160.531169 336.241699 
L 161.802529 335.633556 
L 163.073889 336.524148 
L 164.345249 335.596477 
L 165.61661 335.292195 
L 168.15933 337.053246 
L 169.43069 335.040779 
L 170.702051 335.022842 
L 171.973411 335.71128 
L 173.244771 335.621281 
L 174.516131 335.848583 
L 175.787491 336.328604 
L 177.058852 336.428673 
L 178.330212 336.207452 
L 179.601572 338.031423 
L 180.872932 338.680436 
L 182.144293 336.71054 
L 183.415653 335.901597 
L 184.687013 334.031387 
L 185.958373 334.915791 
L 187.229733 335.202558 
L 188.501094 333.952694 
L 189.772454 333.871448 
L 191.043814 334.71783 
L 192.315174 335.99225 
L 193.586535 335.371863 
L 194.857895 336.152705 
L 196.129255 336.458313 
L 197.400615 337.407356 
L 198.671975 337.763312 
L 201.214696 337.233292 
L 203.757416 337.48285 
L 205.028776 336.717038 
L 206.300137 337.499315 
L 207.571497 337.667778 
L 208.842857 338.68465 
L 210.114217 338.34661 
L 211.385578 338.451929 
L 212.656938 338.75058 
L 213.928298 338.214216 
L 215.199658 339.770333 
L 216.471018 338.642638 
L 217.742379 339.119468 
L 219.013739 337.923043 
L 220.285099 339.469624 
L 221.556459 339.948903 
L 222.82782 339.162195 
L 224.09918 338.584748 
L 225.37054 338.745367 
L 226.6419 337.102645 
L 227.91326 336.577533 
L 229.184621 337.105994 
L 230.455981 337.284061 
L 231.727341 335.81749 
L 232.998701 333.761485 
L 234.270062 334.666973 
L 235.541422 335.967641 
L 236.812782 335.971711 
L 238.084142 335.425344 
L 239.355502 334.691927 
L 240.626863 333.274959 
L 241.898223 332.757642 
L 243.169583 334.159195 
L 244.440943 334.0632 
L 245.712303 334.895131 
L 246.983664 335.199852 
L 248.255024 336.016761 
L 249.526384 337.739948 
L 250.797744 337.946783 
L 252.069105 337.662323 
L 253.340465 337.494019 
L 254.611825 336.211403 
L 255.883185 337.478282 
L 257.154545 338.206074 
L 258.425906 336.04921 
L 259.697266 335.771106 
L 260.968626 334.760462 
L 262.239986 334.915941 
L 263.511347 335.686393 
L 264.782707 336.042298 
L 267.325427 335.807474 
L 268.596787 336.337903 
L 269.868148 336.402181 
L 271.139508 336.219469 
L 272.410868 335.074294 
L 273.682228 335.204849 
L 274.953589 335.450011 
L 276.224949 334.112205 
L 277.496309 334.10043 
L 278.767669 333.823978 
L 280.039029 333.735055 
L 281.31039 334.393632 
L 282.58175 334.924561 
L 283.85311 335.670613 
L 285.12447 336.217733 
L 286.39583 335.949649 
L 287.667191 336.153779 
L 290.209911 337.341276 
L 291.481271 338.250781 
L 292.752632 338.072217 
L 294.023992 337.345513 
L 295.295352 337.66073 
L 296.566712 339.171098 
L 297.838072 338.361598 
L 299.109433 337.406068 
L 300.380793 337.54883 
L 302.923513 337.078057 
L 304.194874 336.41203 
L 305.466234 335.019095 
L 306.737594 334.682634 
L 308.008954 332.859524 
L 309.280314 333.968144 
L 311.823035 335.687849 
L 313.094395 336.237849 
L 314.365755 336.639288 
L 315.637116 336.851618 
L 316.908476 335.20772 
L 318.179836 336.396163 
L 320.722556 334.696294 
L 321.993917 334.885815 
L 323.265277 336.935181 
L 324.536637 336.045032 
L 325.807997 336.070064 
L 327.079357 335.082103 
L 328.350718 333.377798 
L 329.622078 333.433591 
L 330.893438 332.252565 
L 332.164798 333.133544 
L 333.436159 330.753354 
L 334.707519 330.855487 
L 335.978879 329.908172 
L 337.250239 329.547138 
L 338.521599 330.351979 
L 339.79296 331.562466 
L 341.06432 332.041752 
L 342.33568 332.778206 
L 343.60704 332.839752 
L 344.878401 333.912933 
L 347.421121 335.553831 
L 348.692481 335.645745 
L 349.963841 337.468682 
L 351.235202 337.99535 
L 352.506562 338.662393 
L 353.777922 337.105801 
L 355.049282 337.589309 
L 356.320643 336.998876 
L 357.592003 338.075426 
L 358.863363 337.811413 
L 360.134723 337.915059 
L 361.406083 337.612714 
L 362.677444 337.867608 
L 363.948804 337.09373 
L 365.220164 336.141841 
L 366.491524 336.831128 
L 367.762884 337.763147 
L 369.034245 338.932321 
L 370.305605 339.444974 
L 371.576965 339.585203 
L 372.848325 335.486306 
L 374.119686 335.361143 
L 375.391046 335.579059 
L 376.662406 336.704933 
L 377.933766 336.848702 
L 379.205126 336.085393 
L 380.476487 337.25806 
L 381.747847 337.326329 
L 383.019207 336.670261 
L 384.290567 337.076341 
L 385.561928 336.170928 
L 386.833288 336.417151 
L 388.104648 336.431548 
L 389.376008 337.715123 
L 390.647368 338.068178 
L 391.918729 338.689954 
L 393.190089 338.893999 
L 397.00417 338.714754 
L 398.27553 337.633311 
L 399.54689 339.313395 
L 400.81825 337.211687 
L 402.08961 337.11504 
L 403.360971 338.18489 
L 404.632331 339.411108 
L 405.903691 339.620049 
L 407.175051 338.844095 
L 408.446411 337.159334 
L 409.717772 336.153367 
L 410.989132 335.697069 
L 412.260492 335.458274 
L 413.531852 334.110238 
L 414.803213 334.360688 
L 416.074573 333.82762 
L 417.345933 332.173063 
L 418.617293 331.190205 
L 419.888653 332.105032 
L 421.160014 329.78266 
L 422.431374 331.687606 
L 423.702734 332.280161 
L 424.974094 330.670086 
L 426.245455 331.470502 
L 427.516815 332.505594 
L 428.788175 334.183405 
L 430.059535 334.59902 
L 431.330895 333.651668 
L 433.873616 334.69852 
L 436.416336 337.212677 
L 437.687697 337.371965 
L 438.959057 335.637192 
L 440.230417 334.476149 
L 441.501777 335.94038 
L 444.044498 336.590641 
L 445.315858 335.447349 
L 446.587218 335.766041 
L 447.858578 336.403209 
L 449.129938 335.458663 
L 451.672659 336.026005 
L 452.944019 336.562693 
L 454.215379 336.625309 
L 456.7581 334.286815 
L 458.02946 334.398342 
L 459.30082 335.207716 
L 460.57218 336.636606 
L 461.843541 337.303212 
L 463.114901 337.461565 
L 464.386261 338.163359 
L 466.928982 339.170443 
L 468.200342 338.591466 
L 469.471702 338.81123 
L 470.743062 338.211348 
L 472.014422 338.606805 
L 473.285783 337.441423 
L 474.557143 337.770108 
L 475.828503 337.440799 
L 477.099863 337.534525 
L 479.642584 339.146311 
L 480.913944 339.295932 
L 482.185304 340.840703 
L 483.456664 340.745808 
L 484.728025 339.71203 
L 485.999385 336.214539 
L 487.270745 336.155263 
L 489.813465 337.103456 
L 491.084826 337.899265 
L 492.356186 335.069948 
L 493.627546 334.530733 
L 494.898906 335.379598 
L 496.170267 335.581669 
L 497.441627 336.876907 
L 498.712987 337.85603 
L 499.984347 335.973175 
L 501.255707 336.484898 
L 503.798428 336.650715 
L 505.069788 335.463537 
L 506.341148 335.485106 
L 508.883869 337.345621 
L 510.155229 337.389165 
L 511.426589 336.100953 
L 512.697949 335.941454 
L 513.96931 336.179618 
L 515.24067 336.888485 
L 516.51203 335.496409 
L 517.78339 334.686095 
L 519.054751 335.4138 
L 520.326111 335.613378 
L 521.597471 336.271974 
L 522.868831 335.79754 
L 525.411552 336.769549 
L 526.682912 337.1523 
L 527.954272 336.603564 
L 529.225632 336.400091 
L 530.496992 336.960799 
L 531.768353 337.862058 
L 533.039713 338.908828 
L 534.311073 339.641103 
L 535.582433 340.803508 
L 538.125154 340.557036 
L 539.396514 338.456601 
L 540.667874 339.4785 
L 544.481955 338.597291 
L 545.753315 337.515395 
L 547.024675 336.961262 
L 548.296036 338.823258 
L 549.567396 338.854964 
L 550.838756 338.309043 
L 552.110116 338.552211 
L 554.652837 337.434015 
L 555.924197 337.536148 
L 557.195557 337.938744 
L 558.466917 338.002616 
L 559.738278 337.636286 
L 561.009638 338.034769 
L 562.280998 334.686895 
L 563.552358 334.209705 
L 564.823718 333.954377 
L 566.095079 334.282622 
L 567.366439 334.267326 
L 568.637799 333.868973 
L 569.909159 336.613601 
L 571.180519 336.968112 
L 572.45188 336.715315 
L 573.72324 336.341483 
L 574.9946 336.98036 
L 576.26596 335.656255 
L 578.808681 336.584521 
L 580.080041 337.714102 
L 581.351401 338.03291 
L 582.622761 338.552981 
L 583.894122 339.266532 
L 585.165482 339.606911 
L 586.436842 339.376309 
L 587.708202 339.599625 
L 588.979563 340.28238 
L 590.250923 340.7056 
L 591.522283 339.221211 
L 592.793643 339.407061 
L 594.065003 339.805255 
L 594.065003 339.805255 
" clip-path="url(#pc12f1b444d)" style="fill: none; stroke: #9467bd; stroke-width: 1.2; stroke-linecap: square"/>
   </g>
   <g id="patch_3">
    <path d="M 62.7 356.965 
L 62.7 24.325 
" style="fill: none; stroke: #000000; stroke-width: 0.8; stroke-linejoin: miter; stroke-linecap: square"/>
   </g>
   <g id="patch_4">
    <path d="M 620.7 356.965 
L 620.7 24.325 
" style="fill: none; stroke: #000000; stroke-width: 0.8; stroke-linejoin: miter; stroke-linecap: square"/>
   </g>
   <g id="patch_5">
    <path d="M 62.7 356.965 
L 620.7 356.965 
" style="fill: none; stroke: #000000; stroke-width: 0.8; stroke-linejoin: miter; stroke-linecap: square"/>
   </g>
   <g id="patch_6">
    <path d="M 62.7 24.325 
L 620.7 24.325 
" style="fill: none; stroke: #000000; stroke-width: 0.8; stroke-linejoin: miter; stroke-linecap: square"/>
   </g>
   <g id="text_20">
    <!-- Average Transmission Delay -->
    <g transform="translate(237.7 18.325) scale(0.16 -0.16)">
     <defs>
      <path id="SimHei-41" d="M 3075 125 
L 2475 125 
L 2125 1450 
L 1025 1450 
L 675 125 
L 75 125 
L 1325 4450 
L 1825 4450 
L 3075 125 
z
M 2000 1925 
L 1600 3450 
L 1550 3450 
L 1150 1925 
L 2000 1925 
z
" transform="scale(0.015625)"/>
      <path id="SimHei-76" d="M 2875 2925 
L 1825 75 
L 1275 75 
L 225 2925 
L 750 2925 
L 1525 750 
L 1575 750 
L 2350 2925 
L 2875 2925 
z
" transform="scale(0.015625)"/>
      <path id="SimHei-72" d="M 2500 2425 
Q 2025 2500 1700 2287 
Q 1375 2075 1150 1550 
L 1150 125 
L 650 125 
L 650 2925 
L 1150 2925 
L 1150 2200 
Q 1375 2600 1712 2787 
Q 2050 2975 2500 2975 
L 2500 2425 
z
" transform="scale(0.015625)"/>
      <path id="SimHei-67" d="M 2975 2500 
Q 2800 2550 2637 2562 
Q 2475 2575 2300 2525 
Q 2375 2450 2425 2337 
Q 2475 2225 2475 2000 
Q 2475 1575 2187 1300 
Q 1900 1025 1475 1025 
Q 1375 1025 1212 1062 
Q 1050 1100 950 1150 
Q 875 1100 850 1050 
Q 825 1000 825 925 
Q 825 800 1000 737 
Q 1175 675 1625 675 
Q 2350 675 2612 475 
Q 2875 275 2875 -25 
Q 2875 -425 2487 -612 
Q 2100 -800 1575 -800 
Q 900 -800 575 -625 
Q 250 -450 250 -150 
Q 250 0 375 150 
Q 500 300 700 400 
Q 550 475 462 587 
Q 375 700 375 875 
Q 375 1025 487 1137 
Q 600 1250 750 1325 
Q 625 1450 550 1625 
Q 475 1800 475 2000 
Q 475 2425 762 2700 
Q 1050 2975 1475 2975 
Q 1700 2975 1862 2912 
Q 2025 2850 2150 2725 
Q 2350 2875 2550 2937 
Q 2750 3000 2975 2975 
L 2975 2500 
z
M 1975 2000 
Q 1975 2250 1850 2400 
Q 1725 2550 1475 2550 
Q 1225 2550 1100 2400 
Q 975 2250 975 2000 
Q 975 1750 1100 1600 
Q 1225 1450 1475 1450 
Q 1725 1450 1850 1600 
Q 1975 1750 1975 2000 
z
M 2400 -75 
Q 2400 25 2287 125 
Q 2175 225 1725 225 
Q 1625 225 1450 237 
Q 1275 250 1050 275 
Q 850 200 775 100 
Q 700 0 700 -100 
Q 700 -250 900 -350 
Q 1100 -450 1600 -450 
Q 2025 -450 2212 -337 
Q 2400 -225 2400 -75 
z
" transform="scale(0.015625)"/>
      <path id="SimHei-54" d="M 2850 3925 
L 1850 3925 
L 1850 125 
L 1275 125 
L 1275 3925 
L 275 3925 
L 275 4400 
L 2850 4400 
L 2850 3925 
z
" transform="scale(0.015625)"/>
      <path id="SimHei-6e" d="M 2800 125 
L 2300 125 
L 2300 1925 
Q 2300 2225 2150 2400 
Q 2000 2575 1750 2575 
Q 1425 2575 1137 2237 
Q 850 1900 850 1400 
L 850 125 
L 350 125 
L 350 2925 
L 850 2925 
L 850 2400 
Q 1050 2675 1287 2825 
Q 1525 2975 1900 2975 
Q 2350 2975 2575 2725 
Q 2800 2475 2800 2100 
L 2800 125 
z
" transform="scale(0.015625)"/>
      <path id="SimHei-6d" d="M 3050 125 
L 2550 125 
L 2550 2150 
Q 2550 2300 2500 2400 
Q 2450 2500 2300 2500 
Q 2125 2500 1975 2312 
Q 1825 2125 1825 1825 
L 1825 125 
L 1325 125 
L 1325 2150 
Q 1325 2300 1275 2400 
Q 1225 2500 1075 2500 
Q 900 2500 750 2312 
Q 600 2125 600 1825 
L 600 125 
L 100 125 
L 100 2925 
L 600 2925 
L 600 2550 
Q 725 2750 900 2862 
Q 1075 2975 1275 2975 
Q 1475 2975 1612 2862 
Q 1750 2750 1800 2550 
Q 1925 2750 2087 2862 
Q 2250 2975 2450 2975 
Q 2750 2975 2900 2812 
Q 3050 2650 3050 2350 
L 3050 125 
z
" transform="scale(0.015625)"/>
     </defs>
     <use xlink:href="#SimHei-41"/>
     <use xlink:href="#SimHei-76" transform="translate(50 0)"/>
     <use xlink:href="#SimHei-65" transform="translate(100 0)"/>
     <use xlink:href="#SimHei-72" transform="translate(150 0)"/>
     <use xlink:href="#SimHei-61" transform="translate(200 0)"/>
     <use xlink:href="#SimHei-67" transform="translate(250 0)"/>
     <use xlink:href="#SimHei-65" transform="translate(300 0)"/>
     <use xlink:href="#SimHei-20" transform="translate(350 0)"/>
     <use xlink:href="#SimHei-54" transform="translate(400 0)"/>
     <use xlink:href="#SimHei-72" transform="translate(450 0)"/>
     <use xlink:href="#SimHei-61" transform="translate(500 0)"/>
     <use xlink:href="#SimHei-6e" transform="translate(550 0)"/>
     <use xlink:href="#SimHei-73" transform="translate(600 0)"/>
     <use xlink:href="#SimHei-6d" transform="translate(650 0)"/>
     <use xlink:href="#SimHei-69" transform="translate(700 0)"/>
     <use xlink:href="#SimHei-73" transform="translate(750 0)"/>
     <use xlink:href="#SimHei-73" transform="translate(800 0)"/>
     <use xlink:href="#SimHei-69" transform="translate(850 0)"/>
     <use xlink:href="#SimHei-6f" transform="translate(900 0)"/>
     <use xlink:href="#SimHei-6e" transform="translate(950 0)"/>
     <use xlink:href="#SimHei-20" transform="translate(1000 0)"/>
     <use xlink:href="#SimHei-44" transform="translate(1050 0)"/>
     <use xlink:href="#SimHei-65" transform="translate(1100 0)"/>
     <use xlink:href="#SimHei-6c" transform="translate(1150 0)"/>
     <use xlink:href="#SimHei-61" transform="translate(1200 0)"/>
     <use xlink:href="#SimHei-79" transform="translate(1250 0)"/>
    </g>
   </g>
   <g id="legend_1">
    <g id="patch_7">
     <path d="M 495.9 97.525 
L 612.3 97.525 
Q 614.7 97.525 614.7 95.125 
L 614.7 32.725 
Q 614.7 30.325 612.3 30.325 
L 495.9 30.325 
Q 493.5 30.325 493.5 32.725 
L 493.5 95.125 
Q 493.5 97.525 495.9 97.525 
z
" style="fill: #ffffff; opacity: 0.8; stroke: #cccccc; stroke-linejoin: miter"/>
    </g>
    <g id="line2d_39">
     <path d="M 498.3 39.325 
L 510.3 39.325 
L 522.3 39.325 
" style="fill: none; stroke: #1f77b4; stroke-width: 1.2; stroke-linecap: square"/>
    </g>
    <g id="text_21">
     <!-- GCN-DDQN -->
     <g transform="translate(531.9 43.525) scale(0.12 -0.12)">
      <defs>
       <path id="SimHei-47" d="M 2850 75 
L 2425 75 
L 2350 425 
Q 2250 275 2037 175 
Q 1825 75 1575 75 
Q 1050 75 637 562 
Q 225 1050 225 2125 
Q 225 3300 600 3875 
Q 975 4450 1625 4450 
Q 2200 4450 2525 4025 
Q 2850 3600 2850 2925 
L 2300 2925 
Q 2300 3450 2125 3712 
Q 1950 3975 1625 3975 
Q 1225 3975 1025 3562 
Q 825 3150 825 2175 
Q 825 1250 1075 900 
Q 1325 550 1650 550 
Q 1975 550 2162 787 
Q 2350 1025 2350 1525 
L 2350 1800 
L 1575 1800 
L 1575 2275 
L 2850 2275 
L 2850 75 
z
" transform="scale(0.015625)"/>
       <path id="SimHei-43" d="M 2975 1825 
Q 2950 875 2575 475 
Q 2200 75 1675 75 
Q 1075 75 650 562 
Q 225 1050 225 2125 
Q 225 3300 637 3875 
Q 1050 4450 1700 4450 
Q 2250 4450 2612 4037 
Q 2975 3625 2950 2875 
L 2400 2875 
Q 2400 3425 2225 3700 
Q 2050 3975 1700 3975 
Q 1300 3975 1062 3562 
Q 825 3150 825 2175 
Q 825 1275 1062 912 
Q 1300 550 1675 550 
Q 1950 550 2175 812 
Q 2400 1075 2400 1825 
L 2975 1825 
z
" transform="scale(0.015625)"/>
       <path id="SimHei-4e" d="M 2850 125 
L 2225 125 
L 850 3225 
L 825 3225 
L 825 125 
L 250 125 
L 250 4400 
L 875 4400 
L 2250 1300 
L 2275 1300 
L 2275 4400 
L 2850 4400 
L 2850 125 
z
" transform="scale(0.015625)"/>
       <path id="SimHei-2d" d="M 2975 2125 
L 125 2125 
L 125 2525 
L 2975 2525 
L 2975 2125 
z
" transform="scale(0.015625)"/>
       <path id="SimHei-51" d="M 2950 2275 
Q 2950 1675 2862 1262 
Q 2775 850 2575 600 
L 2775 225 
L 2375 -200 
L 2150 225 
Q 2050 150 1900 112 
Q 1750 75 1575 75 
Q 925 75 550 587 
Q 175 1100 175 2275 
Q 175 3450 550 3950 
Q 925 4450 1575 4450 
Q 2225 4450 2587 3950 
Q 2950 3450 2950 2275 
z
M 2350 2275 
Q 2350 3325 2125 3650 
Q 1900 3975 1575 3975 
Q 1250 3975 1012 3650 
Q 775 3325 775 2275 
Q 775 1225 1012 887 
Q 1250 550 1575 550 
Q 1700 550 1800 587 
Q 1900 625 1950 675 
L 1550 1450 
L 1900 1875 
L 2250 1200 
Q 2300 1450 2325 1650 
Q 2350 1850 2350 2275 
z
" transform="scale(0.015625)"/>
      </defs>
      <use xlink:href="#SimHei-47"/>
      <use xlink:href="#SimHei-43" transform="translate(50 0)"/>
      <use xlink:href="#SimHei-4e" transform="translate(100 0)"/>
      <use xlink:href="#SimHei-2d" transform="translate(150 0)"/>
      <use xlink:href="#SimHei-44" transform="translate(200 0)"/>
      <use xlink:href="#SimHei-44" transform="translate(250 0)"/>
      <use xlink:href="#SimHei-51" transform="translate(300 0)"/>
      <use xlink:href="#SimHei-4e" transform="translate(350 0)"/>
     </g>
    </g>
    <g id="line2d_40">
     <path d="M 498.3 55.225 
L 510.3 55.225 
L 522.3 55.225 
" style="fill: none; stroke: #ff7f0e; stroke-width: 1.2; stroke-linecap: square"/>
    </g>
    <g id="text_22">
     <!-- GCN-D3QN -->
     <g transform="translate(531.9 59.425) scale(0.12 -0.12)">
      <use xlink:href="#SimHei-47"/>
      <use xlink:href="#SimHei-43" transform="translate(50 0)"/>
      <use xlink:href="#SimHei-4e" transform="translate(100 0)"/>
      <use xlink:href="#SimHei-2d" transform="translate(150 0)"/>
      <use xlink:href="#SimHei-44" transform="translate(200 0)"/>
      <use xlink:href="#SimHei-33" transform="translate(250 0)"/>
      <use xlink:href="#SimHei-51" transform="translate(300 0)"/>
      <use xlink:href="#SimHei-4e" transform="translate(350 0)"/>
     </g>
    </g>
    <g id="line2d_41">
     <path d="M 498.3 71.125 
L 510.3 71.125 
L 522.3 71.125 
" style="fill: none; stroke: #2ca02c; stroke-width: 1.2; stroke-linecap: square"/>
    </g>
    <g id="text_23">
     <!-- GAT-LSTM-DDQN -->
     <g transform="translate(531.9 75.325) scale(0.12 -0.12)">
      <defs>
       <path id="SimHei-4c" d="M 2900 125 
L 300 125 
L 300 4400 
L 875 4400 
L 875 600 
L 2900 600 
L 2900 125 
z
" transform="scale(0.015625)"/>
       <path id="SimHei-53" d="M 2900 1325 
Q 2900 750 2537 412 
Q 2175 75 1550 75 
Q 925 75 575 425 
Q 225 775 225 1300 
L 225 1475 
L 800 1475 
L 800 1325 
Q 800 950 1025 750 
Q 1250 550 1550 550 
Q 1950 550 2137 762 
Q 2325 975 2325 1275 
Q 2325 1525 2100 1737 
Q 1875 1950 1450 2125 
Q 850 2350 587 2625 
Q 325 2900 325 3275 
Q 325 3800 687 4125 
Q 1050 4450 1550 4450 
Q 2200 4450 2487 4062 
Q 2775 3675 2775 3225 
L 2200 3225 
Q 2225 3500 2050 3725 
Q 1875 3950 1550 3950 
Q 1250 3950 1075 3787 
Q 900 3625 900 3350 
Q 900 3125 1037 2962 
Q 1175 2800 1750 2575 
Q 2300 2350 2600 2037 
Q 2900 1725 2900 1325 
z
" transform="scale(0.015625)"/>
       <path id="SimHei-4d" d="M 2925 125 
L 2425 125 
L 2425 3175 
L 2375 3175 
L 1775 125 
L 1375 125 
L 775 3175 
L 725 3175 
L 725 125 
L 225 125 
L 225 4400 
L 1000 4400 
L 1550 1575 
L 1600 1575 
L 2150 4400 
L 2925 4400 
L 2925 125 
z
" transform="scale(0.015625)"/>
      </defs>
      <use xlink:href="#SimHei-47"/>
      <use xlink:href="#SimHei-41" transform="translate(50 0)"/>
      <use xlink:href="#SimHei-54" transform="translate(100 0)"/>
      <use xlink:href="#SimHei-2d" transform="translate(150 0)"/>
      <use xlink:href="#SimHei-4c" transform="translate(200 0)"/>
      <use xlink:href="#SimHei-53" transform="translate(250 0)"/>
      <use xlink:href="#SimHei-54" transform="translate(300 0)"/>
      <use xlink:href="#SimHei-4d" transform="translate(350 0)"/>
      <use xlink:href="#SimHei-2d" transform="translate(400 0)"/>
      <use xlink:href="#SimHei-44" transform="translate(450 0)"/>
      <use xlink:href="#SimHei-44" transform="translate(500 0)"/>
      <use xlink:href="#SimHei-51" transform="translate(550 0)"/>
      <use xlink:href="#SimHei-4e" transform="translate(600 0)"/>
     </g>
    </g>
    <g id="line2d_42">
     <path d="M 498.3 87.025 
L 510.3 87.025 
L 522.3 87.025 
" style="fill: none; stroke: #9467bd; stroke-width: 1.2; stroke-linecap: square"/>
    </g>
    <g id="text_24">
     <!-- GLDVTO -->
     <g transform="translate(531.9 91.225) scale(0.12 -0.12)">
      <defs>
       <path id="SimHei-56" d="M 3050 4400 
L 1800 75 
L 1300 75 
L 50 4400 
L 650 4400 
L 1525 1125 
L 1575 1125 
L 2450 4400 
L 3050 4400 
z
" transform="scale(0.015625)"/>
       <path id="SimHei-4f" d="M 2950 2275 
Q 2950 1100 2587 587 
Q 2225 75 1575 75 
Q 925 75 550 587 
Q 175 1100 175 2275 
Q 175 3450 550 3950 
Q 925 4450 1575 4450 
Q 2225 4450 2587 3950 
Q 2950 3450 2950 2275 
z
M 2350 2275 
Q 2350 3325 2125 3650 
Q 1900 3975 1575 3975 
Q 1250 3975 1012 3650 
Q 775 3325 775 2275 
Q 775 1225 1012 887 
Q 1250 550 1575 550 
Q 1900 550 2125 887 
Q 2350 1225 2350 2275 
z
" transform="scale(0.015625)"/>
      </defs>
      <use xlink:href="#SimHei-47"/>
      <use xlink:href="#SimHei-4c" transform="translate(50 0)"/>
      <use xlink:href="#SimHei-44" transform="translate(100 0)"/>
      <use xlink:href="#SimHei-56" transform="translate(150 0)"/>
      <use xlink:href="#SimHei-54" transform="translate(200 0)"/>
      <use xlink:href="#SimHei-4f" transform="translate(250 0)"/>
     </g>
    </g>
   </g>
  </g>
 </g>
 <defs>
  <clipPath id="pc12f1b444d">
   <rect x="62.7" y="24.325" width="558" height="332.64"/>
  </clipPath>
 </defs>
</svg>
