<?xml version="1.0" encoding="utf-8" standalone="no"?>
<!DOCTYPE svg PUBLIC "-//W3C//DTD SVG 1.1//EN"
  "http://www.w3.org/Graphics/SVG/1.1/DTD/svg11.dtd">
<svg xmlns:xlink="http://www.w3.org/1999/xlink" width="689.6125pt" height="391.6261pt" viewBox="0 0 689.6125 391.6261" xmlns="http://www.w3.org/2000/svg" version="1.1">
 <metadata>
  <rdf:RDF xmlns:dc="http://purl.org/dc/elements/1.1/" xmlns:cc="http://creativecommons.org/ns#" xmlns:rdf="http://www.w3.org/1999/02/22-rdf-syntax-ns#">
   <cc:Work>
    <dc:type rdf:resource="http://purl.org/dc/dcmitype/StillImage"/>
    <dc:date>2026-07-11T21:37:28.527980</dc:date>
    <dc:format>image/svg+xml</dc:format>
    <dc:creator>
     <cc:Agent>
      <dc:title>Matplotlib v3.10.7, https://matplotlib.org/</dc:title>
     </cc:Agent>
    </dc:creator>
   </cc:Work>
  </rdf:RDF>
 </metadata>
 <defs>
  <style type="text/css">*{stroke-linejoin: round; stroke-linecap: butt}</style>
 </defs>
 <g id="figure_1">
  <g id="patch_1">
   <path d="M 0 391.6261 
L 689.6125 391.6261 
L 689.6125 0 
L 0 0 
z
" style="fill: #ffffff"/>
  </g>
  <g id="axes_1">
   <g id="patch_2">
    <path d="M 56.0125 349.8636 
L 682.4125 349.8636 
L 682.4125 34.5036 
L 56.0125 34.5036 
z
" style="fill: #ffffff"/>
   </g>
   <g id="matplotlib.axis_1">
    <g id="xtick_1">
     <g id="line2d_1">
      <path d="M 84.485227 349.8636 
L 84.485227 34.5036 
" clip-path="url(#pd62f72eb50)" style="fill: none; stroke-dasharray: 2.22,0.96; stroke-dashoffset: 0; stroke: #b0b0b0; stroke-opacity: 0.25; stroke-width: 0.6"/>
     </g>
     <g id="line2d_2">
      <defs>
       <path id="mdbdf4e722e" d="M 0 0 
L 0 3.5 
" style="stroke: #000000; stroke-width: 0.8"/>
      </defs>
      <g>
       <use xlink:href="#mdbdf4e722e" x="84.485227" y="349.8636" style="stroke: #000000; stroke-width: 0.8"/>
      </g>
     </g>
     <g id="text_1">
      <!-- 0 -->
      <g transform="translate(81.485227 365.1136) scale(0.12 -0.12)">
       <defs>
        <path id="SimHei-30" d="M 225 2537 
Q 250 3200 412 3587 
Q 575 3975 875 4225 
Q 1175 4475 1612 4475 
Q 2050 4475 2375 4112 
Q 2700 3750 2800 3200 
Q 2900 2650 2862 1937 
Q 2825 1225 2612 775 
Q 2400 325 1975 150 
Q 1550 -25 1125 187 
Q 700 400 525 750 
Q 350 1100 275 1487 
Q 200 1875 225 2537 
z
M 750 2687 
Q 675 2000 800 1462 
Q 925 925 1212 700 
Q 1500 475 1800 612 
Q 2100 750 2237 1162 
Q 2375 1575 2375 2062 
Q 2375 2550 2337 2950 
Q 2300 3350 2112 3675 
Q 1925 4000 1612 4012 
Q 1300 4025 1062 3700 
Q 825 3375 750 2687 
z
" transform="scale(0.015625)"/>
       </defs>
       <use xlink:href="#SimHei-30"/>
      </g>
     </g>
    </g>
    <g id="xtick_2">
     <g id="line2d_3">
      <path d="M 155.845446 349.8636 
L 155.845446 34.5036 
" clip-path="url(#pd62f72eb50)" style="fill: none; stroke-dasharray: 2.22,0.96; stroke-dashoffset: 0; stroke: #b0b0b0; stroke-opacity: 0.25; stroke-width: 0.6"/>
     </g>
     <g id="line2d_4">
      <g>
       <use xlink:href="#mdbdf4e722e" x="155.845446" y="349.8636" style="stroke: #000000; stroke-width: 0.8"/>
      </g>
     </g>
     <g id="text_2">
      <!-- 50 -->
      <g transform="translate(149.845446 365.1136) scale(0.12 -0.12)">
       <defs>
        <path id="SimHei-35" d="M 550 1325 
Q 725 650 1150 575 
Q 1575 500 1837 662 
Q 2100 825 2212 1087 
Q 2325 1350 2312 1675 
Q 2300 2000 2137 2225 
Q 1975 2450 1725 2525 
Q 1475 2600 1162 2525 
Q 850 2450 650 2175 
L 225 2225 
Q 275 2375 700 4375 
L 2675 4375 
L 2675 3925 
L 1075 3925 
Q 950 3250 825 2850 
Q 1200 3025 1525 3012 
Q 1850 3000 2150 2862 
Q 2450 2725 2587 2487 
Q 2725 2250 2787 2012 
Q 2850 1775 2837 1500 
Q 2825 1225 2725 937 
Q 2625 650 2425 462 
Q 2225 275 1937 162 
Q 1650 50 1275 75 
Q 900 100 562 350 
Q 225 600 100 1200 
L 550 1325 
z
" transform="scale(0.015625)"/>
       </defs>
       <use xlink:href="#SimHei-35"/>
       <use xlink:href="#SimHei-30" transform="translate(50 0)"/>
      </g>
     </g>
    </g>
    <g id="xtick_3">
     <g id="line2d_5">
      <path d="M 227.205665 349.8636 
L 227.205665 34.5036 
" clip-path="url(#pd62f72eb50)" style="fill: none; stroke-dasharray: 2.22,0.96; stroke-dashoffset: 0; stroke: #b0b0b0; stroke-opacity: 0.25; stroke-width: 0.6"/>
     </g>
     <g id="line2d_6">
      <g>
       <use xlink:href="#mdbdf4e722e" x="227.205665" y="349.8636" style="stroke: #000000; stroke-width: 0.8"/>
      </g>
     </g>
     <g id="text_3">
      <!-- 100 -->
      <g transform="translate(218.205665 365.1136) scale(0.12 -0.12)">
       <defs>
        <path id="SimHei-31" d="M 1400 3600 
Q 1075 3275 575 2975 
L 575 3450 
Q 1200 3875 1600 4450 
L 1900 4450 
L 1900 150 
L 1400 150 
L 1400 3600 
z
" transform="scale(0.015625)"/>
       </defs>
       <use xlink:href="#SimHei-31"/>
       <use xlink:href="#SimHei-30" transform="translate(50 0)"/>
       <use xlink:href="#SimHei-30" transform="translate(100 0)"/>
      </g>
     </g>
    </g>
    <g id="xtick_4">
     <g id="line2d_7">
      <path d="M 298.565883 349.8636 
L 298.565883 34.5036 
" clip-path="url(#pd62f72eb50)" style="fill: none; stroke-dasharray: 2.22,0.96; stroke-dashoffset: 0; stroke: #b0b0b0; stroke-opacity: 0.25; stroke-width: 0.6"/>
     </g>
     <g id="line2d_8">
      <g>
       <use xlink:href="#mdbdf4e722e" x="298.565883" y="349.8636" style="stroke: #000000; stroke-width: 0.8"/>
      </g>
     </g>
     <g id="text_4">
      <!-- 150 -->
      <g transform="translate(289.565883 365.1136) scale(0.12 -0.12)">
       <use xlink:href="#SimHei-31"/>
       <use xlink:href="#SimHei-35" transform="translate(50 0)"/>
       <use xlink:href="#SimHei-30" transform="translate(100 0)"/>
      </g>
     </g>
    </g>
    <g id="xtick_5">
     <g id="line2d_9">
      <path d="M 369.926102 349.8636 
L 369.926102 34.5036 
" clip-path="url(#pd62f72eb50)" style="fill: none; stroke-dasharray: 2.22,0.96; stroke-dashoffset: 0; stroke: #b0b0b0; stroke-opacity: 0.25; stroke-width: 0.6"/>
     </g>
     <g id="line2d_10">
      <g>
       <use xlink:href="#mdbdf4e722e" x="369.926102" y="349.8636" style="stroke: #000000; stroke-width: 0.8"/>
      </g>
     </g>
     <g id="text_5">
      <!-- 200 -->
      <g transform="translate(360.926102 365.1136) scale(0.12 -0.12)">
       <defs>
        <path id="SimHei-32" d="M 300 250 
Q 325 625 650 925 
Q 975 1225 1475 1862 
Q 1975 2500 2125 2850 
Q 2275 3200 2237 3450 
Q 2200 3700 2000 3862 
Q 1800 4025 1537 4000 
Q 1275 3975 1037 3800 
Q 800 3625 675 3275 
L 200 3350 
Q 400 3925 712 4187 
Q 1025 4450 1450 4475 
Q 1700 4500 1900 4462 
Q 2100 4425 2312 4287 
Q 2525 4150 2662 3875 
Q 2800 3600 2762 3212 
Q 2725 2825 2375 2287 
Q 2025 1750 1025 600 
L 2825 600 
L 2825 150 
L 300 150 
L 300 250 
z
" transform="scale(0.015625)"/>
       </defs>
       <use xlink:href="#SimHei-32"/>
       <use xlink:href="#SimHei-30" transform="translate(50 0)"/>
       <use xlink:href="#SimHei-30" transform="translate(100 0)"/>
      </g>
     </g>
    </g>
    <g id="xtick_6">
     <g id="line2d_11">
      <path d="M 441.286321 349.8636 
L 441.286321 34.5036 
" clip-path="url(#pd62f72eb50)" style="fill: none; stroke-dasharray: 2.22,0.96; stroke-dashoffset: 0; stroke: #b0b0b0; stroke-opacity: 0.25; stroke-width: 0.6"/>
     </g>
     <g id="line2d_12">
      <g>
       <use xlink:href="#mdbdf4e722e" x="441.286321" y="349.8636" style="stroke: #000000; stroke-width: 0.8"/>
      </g>
     </g>
     <g id="text_6">
      <!-- 250 -->
      <g transform="translate(432.286321 365.1136) scale(0.12 -0.12)">
       <use xlink:href="#SimHei-32"/>
       <use xlink:href="#SimHei-35" transform="translate(50 0)"/>
       <use xlink:href="#SimHei-30" transform="translate(100 0)"/>
      </g>
     </g>
    </g>
    <g id="xtick_7">
     <g id="line2d_13">
      <path d="M 512.64654 349.8636 
L 512.64654 34.5036 
" clip-path="url(#pd62f72eb50)" style="fill: none; stroke-dasharray: 2.22,0.96; stroke-dashoffset: 0; stroke: #b0b0b0; stroke-opacity: 0.25; stroke-width: 0.6"/>
     </g>
     <g id="line2d_14">
      <g>
       <use xlink:href="#mdbdf4e722e" x="512.64654" y="349.8636" style="stroke: #000000; stroke-width: 0.8"/>
      </g>
     </g>
     <g id="text_7">
      <!-- 300 -->
      <g transform="translate(503.64654 365.1136) scale(0.12 -0.12)">
       <defs>
        <path id="SimHei-33" d="M 250 1225 
L 700 1300 
Q 800 975 1025 762 
Q 1250 550 1587 562 
Q 1925 575 2125 837 
Q 2325 1100 2300 1437 
Q 2275 1775 2037 1962 
Q 1800 2150 1275 2225 
L 1275 2550 
Q 1800 2600 2037 2825 
Q 2275 3050 2250 3412 
Q 2225 3775 1925 3937 
Q 1625 4100 1287 3975 
Q 950 3850 750 3275 
L 300 3350 
Q 450 3800 712 4100 
Q 975 4400 1425 4450 
Q 1875 4500 2212 4337 
Q 2550 4175 2687 3837 
Q 2825 3500 2725 3100 
Q 2625 2700 2150 2400 
Q 2500 2250 2687 1950 
Q 2875 1650 2812 1162 
Q 2750 675 2375 375 
Q 2000 75 1525 87 
Q 1050 100 700 387 
Q 350 675 250 1225 
z
" transform="scale(0.015625)"/>
       </defs>
       <use xlink:href="#SimHei-33"/>
       <use xlink:href="#SimHei-30" transform="translate(50 0)"/>
       <use xlink:href="#SimHei-30" transform="translate(100 0)"/>
      </g>
     </g>
    </g>
    <g id="xtick_8">
     <g id="line2d_15">
      <path d="M 584.006758 349.8636 
L 584.006758 34.5036 
" clip-path="url(#pd62f72eb50)" style="fill: none; stroke-dasharray: 2.22,0.96; stroke-dashoffset: 0; stroke: #b0b0b0; stroke-opacity: 0.25; stroke-width: 0.6"/>
     </g>
     <g id="line2d_16">
      <g>
       <use xlink:href="#mdbdf4e722e" x="584.006758" y="349.8636" style="stroke: #000000; stroke-width: 0.8"/>
      </g>
     </g>
     <g id="text_8">
      <!-- 350 -->
      <g transform="translate(575.006758 365.1136) scale(0.12 -0.12)">
       <use xlink:href="#SimHei-33"/>
       <use xlink:href="#SimHei-35" transform="translate(50 0)"/>
       <use xlink:href="#SimHei-30" transform="translate(100 0)"/>
      </g>
     </g>
    </g>
    <g id="xtick_9">
     <g id="line2d_17">
      <path d="M 655.366977 349.8636 
L 655.366977 34.5036 
" clip-path="url(#pd62f72eb50)" style="fill: none; stroke-dasharray: 2.22,0.96; stroke-dashoffset: 0; stroke: #b0b0b0; stroke-opacity: 0.25; stroke-width: 0.6"/>
     </g>
     <g id="line2d_18">
      <g>
       <use xlink:href="#mdbdf4e722e" x="655.366977" y="349.8636" style="stroke: #000000; stroke-width: 0.8"/>
      </g>
     </g>
     <g id="text_9">
      <!-- 400 -->
      <g transform="translate(646.366977 365.1136) scale(0.12 -0.12)">
       <defs>
        <path id="SimHei-34" d="M 2000 1100 
L 75 1100 
L 75 1525 
L 2100 4450 
L 2475 4450 
L 2475 1525 
L 3075 1525 
L 3075 1100 
L 2475 1100 
L 2475 150 
L 2000 150 
L 2000 1100 
z
M 2000 1525 
L 2000 3500 
L 600 1525 
L 2000 1525 
z
" transform="scale(0.015625)"/>
       </defs>
       <use xlink:href="#SimHei-34"/>
       <use xlink:href="#SimHei-30" transform="translate(50 0)"/>
       <use xlink:href="#SimHei-30" transform="translate(100 0)"/>
      </g>
     </g>
    </g>
    <g id="text_10">
     <!-- Episode -->
     <g transform="translate(339.4625 382.3011) scale(0.17 -0.17)">
      <defs>
       <path id="SimHei-45" d="M 2900 125 
L 350 125 
L 350 4400 
L 2775 4400 
L 2775 3925 
L 925 3925 
L 925 2600 
L 2625 2600 
L 2625 2125 
L 925 2125 
L 925 600 
L 2900 600 
L 2900 125 
z
" transform="scale(0.015625)"/>
       <path id="SimHei-70" d="M 2825 1525 
Q 2825 800 2475 425 
Q 2125 50 1625 50 
Q 1350 50 1150 162 
Q 950 275 800 500 
L 800 -800 
L 300 -800 
L 300 2925 
L 800 2925 
L 800 2550 
Q 950 2775 1150 2875 
Q 1350 2975 1625 2975 
Q 2125 2975 2475 2612 
Q 2825 2250 2825 1525 
z
M 2275 1525 
Q 2275 2000 2087 2262 
Q 1900 2525 1525 2525 
Q 1225 2525 1012 2262 
Q 800 2000 800 1525 
Q 800 1050 1012 775 
Q 1225 500 1525 500 
Q 1900 500 2087 775 
Q 2275 1050 2275 1525 
z
" transform="scale(0.015625)"/>
       <path id="SimHei-69" d="M 1800 3725 
L 1300 3725 
L 1300 4375 
L 1800 4375 
L 1800 3725 
z
M 1800 125 
L 1300 125 
L 1300 2925 
L 1800 2925 
L 1800 125 
z
" transform="scale(0.015625)"/>
       <path id="SimHei-73" d="M 2750 900 
Q 2750 500 2437 287 
Q 2125 75 1650 75 
Q 1050 75 725 312 
Q 400 550 400 1000 
L 900 1000 
Q 900 700 1112 600 
Q 1325 500 1625 500 
Q 1925 500 2075 612 
Q 2225 725 2225 900 
Q 2225 1025 2100 1150 
Q 1975 1275 1475 1350 
Q 900 1425 687 1637 
Q 475 1850 475 2200 
Q 475 2500 762 2737 
Q 1050 2975 1600 2975 
Q 2100 2975 2387 2750 
Q 2675 2525 2675 2150 
L 2175 2150 
Q 2175 2375 2012 2462 
Q 1850 2550 1600 2550 
Q 1275 2550 1137 2437 
Q 1000 2325 1000 2175 
Q 1000 2000 1125 1900 
Q 1250 1800 1650 1750 
Q 2300 1650 2525 1437 
Q 2750 1225 2750 900 
z
" transform="scale(0.015625)"/>
       <path id="SimHei-6f" d="M 2925 1525 
Q 2925 875 2525 475 
Q 2125 75 1575 75 
Q 1025 75 625 475 
Q 225 875 225 1525 
Q 225 2175 625 2575 
Q 1025 2975 1575 2975 
Q 2125 2975 2525 2575 
Q 2925 2175 2925 1525 
z
M 2375 1525 
Q 2375 2025 2125 2275 
Q 1875 2525 1575 2525 
Q 1275 2525 1025 2275 
Q 775 2025 775 1525 
Q 775 1025 1025 775 
Q 1275 525 1575 525 
Q 1875 525 2125 775 
Q 2375 1025 2375 1525 
z
" transform="scale(0.015625)"/>
       <path id="SimHei-64" d="M 2750 125 
L 2250 125 
L 2250 500 
Q 2100 275 1900 175 
Q 1700 75 1425 75 
Q 925 75 575 437 
Q 225 800 225 1525 
Q 225 2250 575 2625 
Q 925 3000 1425 3000 
Q 1700 3000 1900 2887 
Q 2100 2775 2250 2550 
L 2250 4400 
L 2750 4400 
L 2750 125 
z
M 2250 1525 
Q 2250 2000 2037 2275 
Q 1825 2550 1525 2550 
Q 1150 2550 962 2275 
Q 775 2000 775 1525 
Q 775 1050 962 787 
Q 1150 525 1525 525 
Q 1825 525 2037 787 
Q 2250 1050 2250 1525 
z
" transform="scale(0.015625)"/>
       <path id="SimHei-65" d="M 2850 1075 
Q 2800 625 2450 350 
Q 2100 75 1625 75 
Q 1025 75 637 462 
Q 250 850 250 1525 
Q 250 2200 637 2587 
Q 1025 2975 1625 2975 
Q 2150 2975 2487 2637 
Q 2825 2300 2825 1525 
L 800 1525 
Q 800 975 1037 750 
Q 1275 525 1625 525 
Q 1900 525 2075 662 
Q 2250 800 2300 1075 
L 2850 1075 
z
M 2250 1925 
Q 2200 2275 2025 2412 
Q 1850 2550 1575 2550 
Q 1325 2550 1125 2412 
Q 925 2275 825 1925 
L 2250 1925 
z
" transform="scale(0.015625)"/>
      </defs>
      <use xlink:href="#SimHei-45"/>
      <use xlink:href="#SimHei-70" transform="translate(50 0)"/>
      <use xlink:href="#SimHei-69" transform="translate(100 0)"/>
      <use xlink:href="#SimHei-73" transform="translate(150 0)"/>
      <use xlink:href="#SimHei-6f" transform="translate(200 0)"/>
      <use xlink:href="#SimHei-64" transform="translate(250 0)"/>
      <use xlink:href="#SimHei-65" transform="translate(300 0)"/>
     </g>
    </g>
   </g>
   <g id="matplotlib.axis_2">
    <g id="ytick_1">
     <g id="line2d_19">
      <path d="M 56.0125 312.024807 
L 682.4125 312.024807 
" clip-path="url(#pd62f72eb50)" style="fill: none; stroke-dasharray: 2.22,0.96; stroke-dashoffset: 0; stroke: #b0b0b0; stroke-opacity: 0.25; stroke-width: 0.6"/>
     </g>
     <g id="line2d_20">
      <defs>
       <path id="mcc7690fec2" d="M 0 0 
L -3.5 0 
" style="stroke: #000000; stroke-width: 0.8"/>
      </defs>
      <g>
       <use xlink:href="#mcc7690fec2" x="56.0125" y="312.024807" style="stroke: #000000; stroke-width: 0.8"/>
      </g>
     </g>
     <g id="text_11">
      <!-- 600 -->
      <g transform="translate(31.0125 316.149807) scale(0.12 -0.12)">
       <defs>
        <path id="SimHei-36" d="M 250 1612 
Q 275 1975 387 2225 
Q 500 2475 725 2850 
L 1750 4450 
L 2325 4450 
L 1275 2800 
Q 1950 2975 2350 2750 
Q 2750 2525 2887 2237 
Q 3025 1950 3037 1612 
Q 3050 1275 2937 950 
Q 2825 625 2537 362 
Q 2250 100 1737 75 
Q 1225 50 862 262 
Q 500 475 362 862 
Q 225 1250 250 1612 
z
M 1025 787 
Q 1250 550 1625 525 
Q 2000 500 2250 775 
Q 2500 1050 2500 1575 
Q 2500 2100 2187 2300 
Q 1875 2500 1487 2450 
Q 1100 2400 925 2075 
Q 750 1750 775 1387 
Q 800 1025 1025 787 
z
" transform="scale(0.015625)"/>
       </defs>
       <use xlink:href="#SimHei-36"/>
       <use xlink:href="#SimHei-30" transform="translate(50 0)"/>
       <use xlink:href="#SimHei-30" transform="translate(100 0)"/>
      </g>
     </g>
    </g>
    <g id="ytick_2">
     <g id="line2d_21">
      <path d="M 56.0125 257.981115 
L 682.4125 257.981115 
" clip-path="url(#pd62f72eb50)" style="fill: none; stroke-dasharray: 2.22,0.96; stroke-dashoffset: 0; stroke: #b0b0b0; stroke-opacity: 0.25; stroke-width: 0.6"/>
     </g>
     <g id="line2d_22">
      <g>
       <use xlink:href="#mcc7690fec2" x="56.0125" y="257.981115" style="stroke: #000000; stroke-width: 0.8"/>
      </g>
     </g>
     <g id="text_12">
      <!-- 800 -->
      <g transform="translate(31.0125 262.106115) scale(0.12 -0.12)">
       <defs>
        <path id="SimHei-38" d="M 175 1375 
Q 175 1675 325 1962 
Q 475 2250 825 2425 
Q 525 2600 425 2812 
Q 325 3025 312 3300 
Q 300 3575 387 3775 
Q 475 3975 650 4150 
Q 825 4325 1037 4387 
Q 1250 4450 1500 4450 
Q 1750 4450 1950 4400 
Q 2150 4350 2375 4187 
Q 2600 4025 2700 3725 
Q 2800 3425 2687 3025 
Q 2575 2625 2100 2400 
Q 2525 2275 2700 2012 
Q 2875 1750 2875 1375 
Q 2875 1000 2762 775 
Q 2650 550 2512 400 
Q 2375 250 2137 162 
Q 1900 75 1537 75 
Q 1175 75 912 162 
Q 650 250 475 425 
Q 300 600 237 837 
Q 175 1075 175 1375 
z
M 687 1400 
Q 675 1100 787 875 
Q 900 650 1200 587 
Q 1500 525 1825 600 
Q 2150 675 2275 950 
Q 2400 1225 2362 1500 
Q 2325 1775 2050 1962 
Q 1775 2150 1450 2125 
Q 1125 2100 912 1900 
Q 700 1700 687 1400 
z
M 775 3350 
Q 775 3100 950 2875 
Q 1125 2650 1500 2650 
Q 1875 2650 2062 2875 
Q 2250 3100 2237 3412 
Q 2225 3725 2012 3875 
Q 1800 4025 1437 4000 
Q 1075 3975 925 3787 
Q 775 3600 775 3350 
z
" transform="scale(0.015625)"/>
       </defs>
       <use xlink:href="#SimHei-38"/>
       <use xlink:href="#SimHei-30" transform="translate(50 0)"/>
       <use xlink:href="#SimHei-30" transform="translate(100 0)"/>
      </g>
     </g>
    </g>
    <g id="ytick_3">
     <g id="line2d_23">
      <path d="M 56.0125 203.937422 
L 682.4125 203.937422 
" clip-path="url(#pd62f72eb50)" style="fill: none; stroke-dasharray: 2.22,0.96; stroke-dashoffset: 0; stroke: #b0b0b0; stroke-opacity: 0.25; stroke-width: 0.6"/>
     </g>
     <g id="line2d_24">
      <g>
       <use xlink:href="#mcc7690fec2" x="56.0125" y="203.937422" style="stroke: #000000; stroke-width: 0.8"/>
      </g>
     </g>
     <g id="text_13">
      <!-- 1000 -->
      <g transform="translate(25.0125 208.062422) scale(0.12 -0.12)">
       <use xlink:href="#SimHei-31"/>
       <use xlink:href="#SimHei-30" transform="translate(50 0)"/>
       <use xlink:href="#SimHei-30" transform="translate(100 0)"/>
       <use xlink:href="#SimHei-30" transform="translate(150 0)"/>
      </g>
     </g>
    </g>
    <g id="ytick_4">
     <g id="line2d_25">
      <path d="M 56.0125 149.89373 
L 682.4125 149.89373 
" clip-path="url(#pd62f72eb50)" style="fill: none; stroke-dasharray: 2.22,0.96; stroke-dashoffset: 0; stroke: #b0b0b0; stroke-opacity: 0.25; stroke-width: 0.6"/>
     </g>
     <g id="line2d_26">
      <g>
       <use xlink:href="#mcc7690fec2" x="56.0125" y="149.89373" style="stroke: #000000; stroke-width: 0.8"/>
      </g>
     </g>
     <g id="text_14">
      <!-- 1200 -->
      <g transform="translate(25.0125 154.01873) scale(0.12 -0.12)">
       <use xlink:href="#SimHei-31"/>
       <use xlink:href="#SimHei-32" transform="translate(50 0)"/>
       <use xlink:href="#SimHei-30" transform="translate(100 0)"/>
       <use xlink:href="#SimHei-30" transform="translate(150 0)"/>
      </g>
     </g>
    </g>
    <g id="ytick_5">
     <g id="line2d_27">
      <path d="M 56.0125 95.850038 
L 682.4125 95.850038 
" clip-path="url(#pd62f72eb50)" style="fill: none; stroke-dasharray: 2.22,0.96; stroke-dashoffset: 0; stroke: #b0b0b0; stroke-opacity: 0.25; stroke-width: 0.6"/>
     </g>
     <g id="line2d_28">
      <g>
       <use xlink:href="#mcc7690fec2" x="56.0125" y="95.850038" style="stroke: #000000; stroke-width: 0.8"/>
      </g>
     </g>
     <g id="text_15">
      <!-- 1400 -->
      <g transform="translate(25.0125 99.975038) scale(0.12 -0.12)">
       <use xlink:href="#SimHei-31"/>
       <use xlink:href="#SimHei-34" transform="translate(50 0)"/>
       <use xlink:href="#SimHei-30" transform="translate(100 0)"/>
       <use xlink:href="#SimHei-30" transform="translate(150 0)"/>
      </g>
     </g>
    </g>
    <g id="ytick_6">
     <g id="line2d_29">
      <path d="M 56.0125 41.806345 
L 682.4125 41.806345 
" clip-path="url(#pd62f72eb50)" style="fill: none; stroke-dasharray: 2.22,0.96; stroke-dashoffset: 0; stroke: #b0b0b0; stroke-opacity: 0.25; stroke-width: 0.6"/>
     </g>
     <g id="line2d_30">
      <g>
       <use xlink:href="#mcc7690fec2" x="56.0125" y="41.806345" style="stroke: #000000; stroke-width: 0.8"/>
      </g>
     </g>
     <g id="text_16">
      <!-- 1600 -->
      <g transform="translate(25.0125 45.931345) scale(0.12 -0.12)">
       <use xlink:href="#SimHei-31"/>
       <use xlink:href="#SimHei-36" transform="translate(50 0)"/>
       <use xlink:href="#SimHei-30" transform="translate(100 0)"/>
       <use xlink:href="#SimHei-30" transform="translate(150 0)"/>
      </g>
     </g>
    </g>
    <g id="text_17">
     <!-- Total Reward -->
     <g transform="translate(18.8875 243.1836) rotate(-90) scale(0.17 -0.17)">
      <defs>
       <path id="SimHei-54" d="M 2850 3925 
L 1850 3925 
L 1850 125 
L 1275 125 
L 1275 3925 
L 275 3925 
L 275 4400 
L 2850 4400 
L 2850 3925 
z
" transform="scale(0.015625)"/>
       <path id="SimHei-74" d="M 2750 200 
Q 2625 150 2462 112 
Q 2300 75 2025 75 
Q 1575 75 1300 325 
Q 1025 575 1025 1025 
L 1025 2525 
L 175 2525 
L 175 2925 
L 1025 2925 
L 1025 3900 
L 1525 3900 
L 1525 2925 
L 2550 2925 
L 2550 2525 
L 1525 2525 
L 1525 1000 
Q 1525 800 1625 662 
Q 1725 525 2000 525 
Q 2275 525 2450 575 
Q 2625 625 2750 700 
L 2750 200 
z
" transform="scale(0.015625)"/>
       <path id="SimHei-61" d="M 2875 125 
L 2275 125 
Q 2225 175 2200 262 
Q 2175 350 2175 475 
Q 2000 275 1750 175 
Q 1500 75 1225 75 
Q 825 75 550 275 
Q 275 475 275 850 
Q 275 1225 525 1450 
Q 775 1675 1300 1750 
Q 1650 1800 1912 1875 
Q 2175 1950 2175 2075 
Q 2175 2225 2062 2375 
Q 1950 2525 1575 2525 
Q 1275 2525 1137 2412 
Q 1000 2300 950 2100 
L 400 2100 
Q 450 2500 762 2737 
Q 1075 2975 1575 2975 
Q 2125 2975 2400 2725 
Q 2675 2475 2675 2025 
L 2675 650 
Q 2675 500 2725 375 
Q 2775 250 2875 125 
z
M 2175 1050 
L 2175 1550 
Q 2025 1500 1887 1462 
Q 1750 1425 1425 1375 
Q 1050 1325 937 1200 
Q 825 1075 825 900 
Q 825 750 937 637 
Q 1050 525 1275 525 
Q 1500 525 1762 650 
Q 2025 775 2175 1050 
z
" transform="scale(0.015625)"/>
       <path id="SimHei-6c" d="M 1825 125 
L 1325 125 
L 1325 4400 
L 1825 4400 
L 1825 125 
z
" transform="scale(0.015625)"/>
       <path id="SimHei-20" transform="scale(0.015625)"/>
       <path id="SimHei-52" d="M 3000 125 
L 2400 125 
L 1500 1975 
L 850 1975 
L 850 125 
L 275 125 
L 275 4400 
L 1525 4400 
Q 2125 4400 2500 4112 
Q 2875 3825 2875 3175 
Q 2875 2675 2625 2400 
Q 2375 2125 2050 2050 
L 3000 125 
z
M 2300 3175 
Q 2300 3525 2087 3725 
Q 1875 3925 1400 3925 
L 850 3925 
L 850 2450 
L 1550 2450 
Q 1850 2450 2075 2612 
Q 2300 2775 2300 3175 
z
" transform="scale(0.015625)"/>
       <path id="SimHei-77" d="M 3075 2925 
L 2450 75 
L 1975 75 
L 1575 2250 
L 1525 2250 
L 1125 75 
L 650 75 
L 25 2925 
L 550 2925 
L 875 1050 
L 925 1050 
L 1275 2925 
L 1825 2925 
L 2175 1050 
L 2225 1050 
L 2550 2925 
L 3075 2925 
z
" transform="scale(0.015625)"/>
       <path id="SimHei-72" d="M 2500 2425 
Q 2025 2500 1700 2287 
Q 1375 2075 1150 1550 
L 1150 125 
L 650 125 
L 650 2925 
L 1150 2925 
L 1150 2200 
Q 1375 2600 1712 2787 
Q 2050 2975 2500 2975 
L 2500 2425 
z
" transform="scale(0.015625)"/>
      </defs>
      <use xlink:href="#SimHei-54"/>
      <use xlink:href="#SimHei-6f" transform="translate(50 0)"/>
      <use xlink:href="#SimHei-74" transform="translate(100 0)"/>
      <use xlink:href="#SimHei-61" transform="translate(150 0)"/>
      <use xlink:href="#SimHei-6c" transform="translate(200 0)"/>
      <use xlink:href="#SimHei-20" transform="translate(250 0)"/>
      <use xlink:href="#SimHei-52" transform="translate(300 0)"/>
      <use xlink:href="#SimHei-65" transform="translate(350 0)"/>
      <use xlink:href="#SimHei-77" transform="translate(400 0)"/>
      <use xlink:href="#SimHei-61" transform="translate(450 0)"/>
      <use xlink:href="#SimHei-72" transform="translate(500 0)"/>
      <use xlink:href="#SimHei-64" transform="translate(550 0)"/>
     </g>
    </g>
   </g>
   <g id="line2d_31">
    <path d="M 84.485227 215.686834 
L 85.912432 214.012794 
L 88.76684 185.329692 
L 91.621249 161.575258 
L 93.048454 153.432408 
L 94.475658 141.58669 
L 97.330067 124.434665 
L 100.184475 111.331115 
L 101.61168 107.08335 
L 103.038884 99.970127 
L 104.466089 95.748406 
L 105.893293 90.237616 
L 107.320497 88.515857 
L 108.747702 86.30496 
L 111.60211 79.965222 
L 113.029315 79.019192 
L 114.456519 78.413719 
L 115.883724 76.468482 
L 117.310928 75.843855 
L 118.738132 74.823712 
L 120.165337 74.153637 
L 121.592541 75.277539 
L 123.019745 73.422668 
L 124.44695 73.419145 
L 125.874154 72.468412 
L 127.301359 71.97001 
L 128.728563 72.032738 
L 130.155767 69.955122 
L 131.582972 69.692449 
L 133.010176 69.721766 
L 134.43738 68.502971 
L 135.864585 67.511235 
L 137.291789 65.637635 
L 138.718994 63.405229 
L 140.146198 63.055308 
L 141.573402 61.630267 
L 143.000607 62.98061 
L 144.427811 65.047082 
L 147.28222 65.893362 
L 148.709424 63.189263 
L 150.136629 62.741248 
L 152.991037 63.783389 
L 154.418242 61.204032 
L 155.845446 60.35916 
L 157.27265 61.148777 
L 158.699855 61.618669 
L 160.127059 60.227416 
L 161.554263 63.595828 
L 162.981468 62.718642 
L 164.408672 62.078939 
L 165.835877 61.592925 
L 167.263081 62.146445 
L 168.690285 60.118099 
L 170.11749 59.855766 
L 171.544694 61.561446 
L 172.971898 62.34206 
L 174.399103 61.952051 
L 175.826307 62.475766 
L 177.253512 64.614809 
L 178.680716 63.650091 
L 180.10792 66.005998 
L 181.535125 64.623959 
L 182.962329 64.412139 
L 184.389533 62.727433 
L 185.816738 60.686826 
L 187.243942 59.681433 
L 188.671147 59.36824 
L 190.098351 60.311404 
L 191.525555 60.031313 
L 192.95276 60.841945 
L 194.379964 59.727821 
L 197.234373 56.832113 
L 198.661577 56.683034 
L 200.088782 55.703806 
L 202.94319 56.021663 
L 205.797599 57.35928 
L 208.652008 55.277676 
L 210.079212 55.490871 
L 211.506417 56.532967 
L 212.933621 54.762124 
L 214.360825 54.572008 
L 215.78803 53.251293 
L 217.215234 53.907054 
L 218.642438 53.907683 
L 220.069643 54.902882 
L 221.496847 54.356652 
L 222.924052 52.83532 
L 224.351256 53.541055 
L 225.77846 51.96474 
L 227.205665 51.88184 
L 228.632869 51.23983 
L 230.060073 51.207972 
L 231.487278 54.064538 
L 232.914482 54.541059 
L 234.341687 55.849752 
L 235.768891 56.204064 
L 237.196095 55.977226 
L 238.6233 57.072311 
L 240.050504 58.46429 
L 241.477708 56.75505 
L 242.904913 58.09821 
L 244.332117 59.262132 
L 245.759322 56.021295 
L 247.186526 54.350095 
L 248.61373 56.917419 
L 250.040935 58.338614 
L 251.468139 60.277332 
L 252.895343 60.150405 
L 254.322548 59.449768 
L 255.749752 59.313551 
L 257.176957 58.515229 
L 258.604161 59.057134 
L 260.031365 60.114047 
L 261.45857 60.517779 
L 262.885774 62.385749 
L 264.312978 63.242364 
L 265.740183 61.018112 
L 267.167387 61.054158 
L 268.594592 63.889093 
L 270.021796 65.616059 
L 271.449 66.889315 
L 272.876205 64.315755 
L 274.303409 63.984533 
L 275.730613 64.097575 
L 277.157818 64.528011 
L 278.585022 65.694956 
L 280.012227 64.727136 
L 281.439431 64.419191 
L 282.866635 63.55588 
L 284.29384 64.019007 
L 285.721044 63.024634 
L 287.148248 60.54221 
L 288.575453 62.036428 
L 290.002657 60.284107 
L 291.429862 62.232397 
L 292.857066 63.889546 
L 294.28427 63.460028 
L 295.711475 62.881948 
L 298.565883 60.054417 
L 299.993088 60.619887 
L 301.420292 58.663513 
L 302.847497 58.944936 
L 304.274701 59.354843 
L 305.701905 59.053764 
L 307.12911 57.357823 
L 308.556314 58.497494 
L 309.983518 57.717196 
L 311.410723 54.291269 
L 312.837927 53.439101 
L 314.265132 52.240922 
L 315.692336 51.569254 
L 317.11954 52.642644 
L 319.973949 55.084779 
L 321.401153 55.765122 
L 322.828358 55.122348 
L 324.255562 55.760972 
L 325.682767 58.023971 
L 327.109971 58.378339 
L 328.537175 57.480587 
L 329.96438 56.859298 
L 331.391584 56.73331 
L 332.818788 59.983285 
L 334.245993 60.822693 
L 335.673197 61.260858 
L 337.100402 59.883868 
L 338.527606 59.02919 
L 339.95481 59.190791 
L 341.382015 59.769258 
L 342.809219 63.23909 
L 344.236423 63.651853 
L 345.663628 62.769527 
L 347.090832 61.162039 
L 348.518037 60.906878 
L 349.945241 59.373258 
L 351.372445 60.842981 
L 352.79965 61.890579 
L 354.226854 62.198025 
L 355.654058 61.678029 
L 357.081263 64.630231 
L 358.508467 65.222057 
L 359.935672 62.140227 
L 361.362876 60.772405 
L 362.79008 59.575853 
L 364.217285 54.404301 
L 365.644489 53.034394 
L 367.071693 54.071581 
L 371.353307 53.329852 
L 372.780511 51.657662 
L 374.207715 53.756253 
L 375.63492 56.923357 
L 377.062124 58.969745 
L 378.489328 61.56801 
L 379.916533 62.066434 
L 381.343737 61.04565 
L 385.62535 58.700198 
L 387.052555 58.449442 
L 388.479759 57.742644 
L 389.906963 57.384194 
L 391.334168 56.276712 
L 392.761372 55.440238 
L 394.188577 56.238219 
L 395.615781 57.950005 
L 397.042985 56.367286 
L 398.47019 55.803131 
L 399.897394 54.507267 
L 401.324598 55.965794 
L 402.751803 54.956063 
L 404.179007 54.55054 
L 405.606212 58.480455 
L 407.033416 56.825751 
L 408.46062 57.090261 
L 409.887825 56.466102 
L 411.315029 55.254253 
L 414.169438 53.783945 
L 415.596642 53.540275 
L 417.023847 54.438539 
L 418.451051 57.772316 
L 419.878255 56.214409 
L 421.30546 57.262118 
L 422.732664 57.306179 
L 424.159868 58.995042 
L 425.587073 57.834669 
L 427.014277 59.205418 
L 428.441482 60.743465 
L 431.29589 61.352 
L 432.723095 61.900793 
L 434.150299 62.197914 
L 435.577503 60.620207 
L 437.004708 60.114095 
L 438.431912 61.041153 
L 439.859117 59.21973 
L 441.286321 61.035576 
L 442.713525 62.305174 
L 444.14073 61.629113 
L 445.567934 62.031429 
L 446.995138 60.871717 
L 448.422343 61.145966 
L 449.849547 60.040002 
L 451.276752 59.281282 
L 452.703956 59.646187 
L 454.13116 60.24894 
L 455.558365 59.420347 
L 456.985569 58.909488 
L 458.412773 61.04465 
L 459.839978 61.613604 
L 461.267182 60.441045 
L 462.694387 61.705707 
L 464.121591 61.816665 
L 465.548795 61.567334 
L 466.976 63.129671 
L 468.403204 63.983468 
L 469.830408 61.876483 
L 471.257613 61.738239 
L 472.684817 60.856077 
L 474.112022 61.783093 
L 475.539226 58.884514 
L 476.96643 58.114691 
L 478.393635 56.915872 
L 479.820839 55.292148 
L 481.248043 56.887741 
L 482.675248 56.843694 
L 484.102452 56.260566 
L 485.529657 57.593188 
L 486.956861 59.610928 
L 488.384065 60.316388 
L 489.81127 61.45919 
L 491.238474 61.159755 
L 492.665678 61.486755 
L 494.092883 60.424575 
L 495.520087 62.206761 
L 496.947292 61.651201 
L 498.374496 62.435065 
L 499.8017 60.565061 
L 501.228905 60.166532 
L 502.656109 61.270916 
L 504.083313 63.13257 
L 505.510518 63.487011 
L 506.937722 63.189787 
L 508.364927 64.497409 
L 509.792131 63.897819 
L 511.219335 62.488212 
L 512.64654 62.064966 
L 514.073744 63.727981 
L 515.500948 64.152016 
L 518.355357 60.067779 
L 519.782562 59.522694 
L 521.209766 60.663111 
L 522.63697 60.352762 
L 525.491379 57.694305 
L 526.918583 58.292344 
L 528.345788 57.556846 
L 529.772992 57.195135 
L 531.200197 59.946925 
L 532.627401 60.31427 
L 534.054605 61.947323 
L 535.48181 64.319078 
L 536.909014 61.475298 
L 538.336218 61.077436 
L 539.763423 61.31208 
L 541.190627 60.863152 
L 542.617832 59.891899 
L 544.045036 60.383974 
L 545.47224 58.760125 
L 546.899445 58.998577 
L 548.326649 59.47299 
L 549.753853 58.377969 
L 551.181058 58.447102 
L 552.608262 59.368001 
L 554.035467 59.049164 
L 556.889875 63.301847 
L 558.31708 62.048121 
L 559.744284 62.387958 
L 561.171488 62.944941 
L 562.598693 63.291169 
L 564.025897 61.746826 
L 565.453102 61.206613 
L 566.880306 60.167978 
L 568.30751 58.458555 
L 569.734715 58.054527 
L 571.161919 59.431916 
L 574.016328 59.648423 
L 575.443532 59.383638 
L 576.870737 58.394766 
L 578.297941 61.06392 
L 579.725145 62.601746 
L 581.15235 62.765173 
L 582.579554 61.578362 
L 584.006758 62.29542 
L 585.433963 62.047793 
L 586.861167 62.381677 
L 588.288371 64.275826 
L 589.715576 61.264717 
L 591.14278 62.240667 
L 592.569985 61.720681 
L 593.997189 60.235543 
L 595.424393 59.411091 
L 596.851598 60.712183 
L 598.278802 61.303366 
L 599.706006 60.300694 
L 601.133211 60.509877 
L 602.560415 59.497406 
L 603.98762 60.481862 
L 605.414824 58.458846 
L 606.842028 59.250125 
L 608.269233 59.261465 
L 611.123641 61.015456 
L 612.550846 60.57224 
L 613.97805 59.398999 
L 615.405255 61.473161 
L 616.832459 61.034717 
L 618.259663 60.009621 
L 619.686868 60.177943 
L 621.114072 56.897405 
L 622.541276 58.216313 
L 623.968481 57.975882 
L 625.395685 56.294615 
L 626.82289 56.938001 
L 628.250094 58.156876 
L 629.677298 57.445653 
L 631.104503 58.122259 
L 632.531707 57.903175 
L 633.958911 58.641666 
L 635.386116 59.703179 
L 636.81332 60.143942 
L 638.240525 57.522411 
L 639.667729 57.369283 
L 641.094933 56.823355 
L 642.522138 57.324248 
L 643.949342 56.479857 
L 645.376546 53.628686 
L 646.803751 55.220389 
L 648.230955 54.369476 
L 649.65816 54.256078 
L 651.085364 55.804142 
L 652.512568 56.876459 
L 653.939773 56.064472 
L 653.939773 56.064472 
" clip-path="url(#pd62f72eb50)" style="fill: none; stroke: #1f77b4; stroke-width: 1.2; stroke-linecap: square"/>
   </g>
   <g id="line2d_32">
    <path d="M 84.485227 335.529055 
L 85.912432 315.296173 
L 87.339636 289.078041 
L 90.194045 245.280251 
L 91.621249 225.817942 
L 94.475658 192.898259 
L 95.902862 177.078841 
L 97.330067 166.008667 
L 98.757271 154.066197 
L 100.184475 144.373367 
L 104.466089 118.959343 
L 105.893293 112.746987 
L 108.747702 103.714333 
L 110.174906 96.839057 
L 111.60211 91.307955 
L 114.456519 85.027166 
L 115.883724 82.520883 
L 117.310928 80.247566 
L 118.738132 77.420151 
L 120.165337 73.363735 
L 121.592541 72.689757 
L 123.019745 71.784219 
L 124.44695 72.395661 
L 125.874154 71.836148 
L 127.301359 72.387127 
L 128.728563 70.680227 
L 130.155767 70.018219 
L 131.582972 71.393829 
L 133.010176 70.083929 
L 134.43738 69.279307 
L 135.864585 68.0578 
L 137.291789 67.64102 
L 138.718994 65.912207 
L 140.146198 66.406465 
L 141.573402 65.369046 
L 143.000607 63.153012 
L 144.427811 64.061795 
L 145.855015 64.108716 
L 147.28222 63.008173 
L 148.709424 60.929519 
L 150.136629 60.918539 
L 151.563833 61.156317 
L 152.991037 60.803846 
L 154.418242 59.493636 
L 155.845446 60.46463 
L 157.27265 62.05143 
L 158.699855 61.99648 
L 160.127059 61.200597 
L 161.554263 60.763902 
L 162.981468 58.59068 
L 164.408672 59.258438 
L 165.835877 60.549923 
L 167.263081 61.188545 
L 168.690285 62.860301 
L 170.11749 61.39552 
L 171.544694 61.284569 
L 172.971898 63.496583 
L 174.399103 63.25713 
L 175.826307 63.370951 
L 177.253512 64.061801 
L 178.680716 63.031346 
L 180.10792 65.064391 
L 181.535125 65.525581 
L 182.962329 64.725444 
L 184.389533 64.121139 
L 185.816738 60.783699 
L 187.243942 59.397661 
L 188.671147 57.423152 
L 190.098351 58.502514 
L 191.525555 59.270158 
L 192.95276 60.805836 
L 194.379964 60.383899 
L 195.807168 60.693584 
L 197.234373 59.56972 
L 198.661577 58.679393 
L 200.088782 59.802249 
L 201.515986 60.281995 
L 202.94319 62.214848 
L 204.370395 62.824278 
L 205.797599 62.490518 
L 207.224803 60.335305 
L 208.652008 61.524258 
L 210.079212 59.497329 
L 211.506417 61.079919 
L 212.933621 58.900751 
L 214.360825 58.799563 
L 215.78803 57.877304 
L 217.215234 57.874905 
L 218.642438 56.962071 
L 220.069643 57.961637 
L 221.496847 57.502108 
L 222.924052 59.842871 
L 224.351256 59.611762 
L 225.77846 59.169213 
L 227.205665 58.140587 
L 228.632869 58.293289 
L 230.060073 57.033684 
L 231.487278 57.052542 
L 232.914482 55.027505 
L 234.341687 54.982682 
L 235.768891 55.309994 
L 237.196095 54.074017 
L 238.6233 54.975259 
L 240.050504 52.850279 
L 241.477708 54.114292 
L 242.904913 53.98037 
L 244.332117 55.906764 
L 245.759322 54.733768 
L 247.186526 54.634022 
L 248.61373 56.256093 
L 250.040935 58.773217 
L 251.468139 60.194311 
L 252.895343 58.224643 
L 254.322548 58.558387 
L 255.749752 58.586925 
L 257.176957 57.792352 
L 258.604161 56.543704 
L 260.031365 54.952332 
L 261.45857 56.467475 
L 262.885774 56.905687 
L 264.312978 55.616398 
L 265.740183 53.350107 
L 267.167387 54.077861 
L 268.594592 55.006234 
L 270.021796 56.368015 
L 271.449 54.434042 
L 272.876205 53.986725 
L 274.303409 52.925871 
L 275.730613 55.696538 
L 277.157818 56.310323 
L 278.585022 57.29696 
L 281.439431 54.821958 
L 282.866635 55.012001 
L 284.29384 55.969842 
L 285.721044 54.240706 
L 287.148248 55.934745 
L 288.575453 54.849037 
L 290.002657 55.713722 
L 291.429862 54.411709 
L 292.857066 54.637136 
L 294.28427 55.262915 
L 295.711475 54.913989 
L 298.565883 57.233033 
L 299.993088 55.431214 
L 301.420292 55.382388 
L 302.847497 57.496925 
L 304.274701 56.692072 
L 305.701905 56.558976 
L 307.12911 56.854106 
L 308.556314 57.503748 
L 309.983518 56.248873 
L 311.410723 54.595833 
L 312.837927 55.496666 
L 314.265132 55.97473 
L 315.692336 55.669762 
L 317.11954 56.992403 
L 318.546745 58.09982 
L 319.973949 58.35891 
L 321.401153 60.252003 
L 322.828358 60.353691 
L 324.255562 59.799054 
L 327.109971 58.941656 
L 328.537175 57.983201 
L 329.96438 55.202161 
L 331.391584 54.564537 
L 332.818788 55.225908 
L 334.245993 55.620317 
L 335.673197 55.367088 
L 337.100402 54.837984 
L 338.527606 53.365611 
L 339.95481 53.362891 
L 341.382015 54.747521 
L 342.809219 56.506563 
L 344.236423 55.34627 
L 345.663628 55.703639 
L 347.090832 55.833416 
L 348.518037 54.97213 
L 349.945241 55.560681 
L 351.372445 56.386927 
L 352.79965 55.363807 
L 354.226854 55.272151 
L 355.654058 55.986593 
L 357.081263 58.280326 
L 358.508467 59.577105 
L 359.935672 60.697415 
L 361.362876 60.628442 
L 362.79008 58.645554 
L 364.217285 57.576117 
L 365.644489 58.115902 
L 367.071693 57.35196 
L 368.498898 56.123521 
L 369.926102 55.178242 
L 371.353307 56.415939 
L 372.780511 56.152947 
L 374.207715 56.543959 
L 375.63492 55.875919 
L 377.062124 56.97227 
L 378.489328 57.309755 
L 379.916533 56.846782 
L 381.343737 57.404355 
L 382.770942 57.658796 
L 384.198146 57.594395 
L 385.62535 58.163566 
L 387.052555 55.996819 
L 388.479759 57.123774 
L 389.906963 58.535838 
L 391.334168 58.678121 
L 392.761372 58.540248 
L 394.188577 58.718476 
L 395.615781 59.597492 
L 397.042985 58.959147 
L 398.47019 59.104709 
L 399.897394 57.84973 
L 404.179007 61.246855 
L 405.606212 62.597605 
L 407.033416 60.773854 
L 408.46062 60.653502 
L 409.887825 58.00725 
L 411.315029 57.04695 
L 412.742233 54.951525 
L 414.169438 54.141273 
L 415.596642 53.748414 
L 417.023847 57.120553 
L 418.451051 58.015501 
L 419.878255 55.768882 
L 422.732664 53.552814 
L 424.159868 55.357744 
L 425.587073 55.666308 
L 427.014277 55.334773 
L 428.441482 55.168909 
L 429.868686 56.785371 
L 431.29589 57.842306 
L 432.723095 60.543415 
L 434.150299 60.04808 
L 435.577503 59.385879 
L 437.004708 60.241038 
L 438.431912 60.143679 
L 439.859117 60.549465 
L 442.713525 62.468656 
L 444.14073 61.477834 
L 445.567934 58.016865 
L 446.995138 58.204566 
L 448.422343 55.925014 
L 449.849547 57.049538 
L 451.276752 58.865192 
L 452.703956 58.144279 
L 454.13116 59.249191 
L 455.558365 58.826491 
L 456.985569 61.007363 
L 458.412773 62.361343 
L 459.839978 62.956391 
L 461.267182 61.777404 
L 462.694387 60.860321 
L 466.976 59.151851 
L 468.403204 59.203474 
L 469.830408 59.679781 
L 471.257613 60.580215 
L 472.684817 61.19445 
L 474.112022 60.04872 
L 476.96643 59.251662 
L 478.393635 57.086083 
L 479.820839 56.213134 
L 481.248043 57.73757 
L 482.675248 58.184793 
L 484.102452 57.437902 
L 485.529657 59.629631 
L 486.956861 58.38957 
L 488.384065 57.920378 
L 489.81127 60.028373 
L 491.238474 59.462477 
L 492.665678 57.446027 
L 494.092883 57.027037 
L 495.520087 57.883436 
L 496.947292 59.453065 
L 498.374496 58.05703 
L 499.8017 59.414362 
L 501.228905 57.007024 
L 502.656109 56.506089 
L 504.083313 58.779121 
L 505.510518 59.424073 
L 506.937722 58.521472 
L 508.364927 60.77144 
L 509.792131 60.971801 
L 511.219335 59.195598 
L 512.64654 58.780582 
L 514.073744 60.352682 
L 515.500948 60.731724 
L 516.928153 57.94996 
L 518.355357 57.003308 
L 519.782562 56.832515 
L 521.209766 58.817207 
L 522.63697 59.035307 
L 524.064175 57.647445 
L 525.491379 56.742785 
L 526.918583 57.812421 
L 528.345788 59.839613 
L 529.772992 59.651147 
L 531.200197 58.467478 
L 532.627401 57.017356 
L 534.054605 58.381043 
L 535.48181 58.274852 
L 536.909014 58.85989 
L 538.336218 58.08391 
L 539.763423 57.859842 
L 541.190627 56.796426 
L 542.617832 57.604051 
L 544.045036 58.595605 
L 545.47224 57.115471 
L 546.899445 57.287799 
L 548.326649 58.03324 
L 551.181058 59.26528 
L 552.608262 59.493724 
L 554.035467 58.276926 
L 555.462671 59.532162 
L 556.889875 60.239332 
L 558.31708 58.904709 
L 559.744284 60.614735 
L 561.171488 59.631417 
L 562.598693 60.900865 
L 565.453102 57.682134 
L 566.880306 58.448047 
L 568.30751 60.428458 
L 569.734715 61.034578 
L 571.161919 59.783931 
L 572.589123 62.30643 
L 574.016328 61.49919 
L 575.443532 60.531045 
L 576.870737 59.078351 
L 578.297941 59.869681 
L 579.725145 59.3608 
L 581.15235 60.115678 
L 582.579554 59.087924 
L 584.006758 57.344122 
L 585.433963 57.580874 
L 586.861167 57.18256 
L 588.288371 58.165382 
L 589.715576 56.773643 
L 591.14278 58.871314 
L 593.997189 60.087291 
L 595.424393 60.572667 
L 596.851598 60.815971 
L 599.706006 60.970932 
L 601.133211 57.289213 
L 602.560415 57.996048 
L 603.98762 59.627108 
L 605.414824 60.418988 
L 606.842028 58.608033 
L 608.269233 57.423644 
L 609.696437 57.784131 
L 611.123641 56.968593 
L 612.550846 59.418233 
L 613.97805 57.762721 
L 615.405255 58.622051 
L 616.832459 57.481742 
L 618.259663 55.835808 
L 619.686868 57.074862 
L 621.114072 56.149476 
L 622.541276 57.366591 
L 623.968481 56.36635 
L 625.395685 56.768508 
L 626.82289 57.660906 
L 628.250094 59.019299 
L 631.104503 60.165361 
L 632.531707 59.480424 
L 633.958911 58.270746 
L 635.386116 59.011226 
L 636.81332 59.604146 
L 638.240525 59.341184 
L 639.667729 59.607065 
L 641.094933 57.7218 
L 642.522138 55.179282 
L 643.949342 55.988765 
L 645.376546 57.795079 
L 646.803751 59.052644 
L 648.230955 57.391198 
L 649.65816 58.966046 
L 651.085364 58.997033 
L 652.512568 60.292795 
L 653.939773 58.737198 
L 653.939773 58.737198 
" clip-path="url(#pd62f72eb50)" style="fill: none; stroke: #ff7f0e; stroke-width: 1.2; stroke-linecap: square"/>
   </g>
   <g id="line2d_33">
    <path d="M 84.485227 331.285586 
L 85.912432 319.807476 
L 87.339636 298.301469 
L 90.194045 274.321115 
L 91.621249 260.585197 
L 93.048454 251.268811 
L 94.475658 237.911968 
L 95.902862 222.111552 
L 97.330067 212.788964 
L 98.757271 196.678603 
L 100.184475 185.232844 
L 101.61168 176.368107 
L 104.466089 154.866813 
L 107.320497 142.237666 
L 108.747702 135.348356 
L 110.174906 130.91047 
L 111.60211 122.953709 
L 113.029315 117.467166 
L 114.456519 113.663777 
L 118.738132 103.269572 
L 120.165337 99.237168 
L 123.019745 88.855547 
L 124.44695 85.149931 
L 125.874154 85.69293 
L 127.301359 85.072776 
L 128.728563 82.621192 
L 131.582972 74.567354 
L 133.010176 73.501845 
L 134.43738 72.581971 
L 135.864585 72.415642 
L 137.291789 70.188678 
L 138.718994 67.314397 
L 140.146198 65.329262 
L 141.573402 64.405773 
L 143.000607 63.739099 
L 144.427811 62.010433 
L 145.855015 61.333426 
L 147.28222 62.502308 
L 148.709424 58.670164 
L 150.136629 59.914909 
L 151.563833 59.81217 
L 152.991037 57.78505 
L 154.418242 57.038189 
L 155.845446 58.679623 
L 157.27265 58.194009 
L 158.699855 58.571213 
L 160.127059 57.215553 
L 161.554263 60.770436 
L 162.981468 61.379439 
L 164.408672 60.71606 
L 165.835877 59.58161 
L 167.263081 60.031614 
L 168.690285 60.280297 
L 170.11749 59.965469 
L 171.544694 59.290392 
L 172.971898 59.64265 
L 174.399103 59.1073 
L 175.826307 60.001604 
L 177.253512 59.259974 
L 178.680716 60.25074 
L 180.10792 60.475553 
L 181.535125 59.04588 
L 182.962329 60.051475 
L 184.389533 58.389766 
L 185.816738 60.655619 
L 187.243942 59.812727 
L 188.671147 57.124798 
L 190.098351 57.971791 
L 191.525555 56.803169 
L 192.95276 58.675821 
L 194.379964 57.868745 
L 195.807168 58.6164 
L 198.661577 61.772968 
L 200.088782 61.462826 
L 201.515986 60.98968 
L 202.94319 60.236564 
L 204.370395 58.537144 
L 205.797599 59.746673 
L 207.224803 58.813865 
L 208.652008 58.262093 
L 210.079212 60.259156 
L 211.506417 58.942759 
L 212.933621 58.088873 
L 214.360825 59.177283 
L 215.78803 59.405641 
L 217.215234 57.326392 
L 218.642438 56.982854 
L 220.069643 57.872159 
L 222.924052 57.466088 
L 224.351256 56.286243 
L 225.77846 55.980022 
L 227.205665 55.812892 
L 228.632869 56.885859 
L 231.487278 60.658578 
L 232.914482 58.725007 
L 234.341687 59.340846 
L 237.196095 61.237017 
L 238.6233 60.647511 
L 240.050504 63.07353 
L 241.477708 62.92826 
L 242.904913 61.828877 
L 244.332117 63.488481 
L 245.759322 62.534358 
L 247.186526 63.018759 
L 248.61373 62.939658 
L 250.040935 63.642855 
L 251.468139 64.649725 
L 252.895343 64.656933 
L 254.322548 62.089629 
L 255.749752 61.646774 
L 257.176957 60.471572 
L 258.604161 60.650395 
L 260.031365 59.516922 
L 261.45857 61.03241 
L 262.885774 59.452236 
L 264.312978 59.83871 
L 265.740183 57.665885 
L 267.167387 58.034528 
L 268.594592 58.281879 
L 270.021796 58.185613 
L 271.449 57.192789 
L 274.303409 56.797978 
L 275.730613 55.996511 
L 277.157818 56.745021 
L 278.585022 54.457328 
L 280.012227 55.234616 
L 281.439431 56.757956 
L 282.866635 57.072666 
L 284.29384 55.467146 
L 285.721044 56.177609 
L 287.148248 57.889766 
L 288.575453 59.80177 
L 290.002657 59.739135 
L 291.429862 64.226598 
L 292.857066 61.047403 
L 294.28427 60.51709 
L 295.711475 59.554637 
L 297.138679 58.020745 
L 298.565883 55.485409 
L 299.993088 56.263494 
L 301.420292 56.375907 
L 302.847497 56.156967 
L 304.274701 54.422268 
L 305.701905 53.561818 
L 307.12911 53.020931 
L 308.556314 55.545476 
L 309.983518 55.697918 
L 311.410723 54.645554 
L 312.837927 54.924242 
L 314.265132 56.611496 
L 315.692336 55.581729 
L 317.11954 56.683762 
L 318.546745 56.771873 
L 319.973949 55.004138 
L 321.401153 54.58872 
L 324.255562 54.608618 
L 325.682767 55.176623 
L 327.109971 54.824277 
L 328.537175 54.250389 
L 329.96438 56.096492 
L 331.391584 56.886699 
L 332.818788 55.866667 
L 334.245993 56.964814 
L 335.673197 58.212798 
L 337.100402 61.28526 
L 338.527606 58.780909 
L 339.95481 59.830745 
L 341.382015 62.281537 
L 342.809219 62.623504 
L 344.236423 64.291709 
L 345.663628 61.13504 
L 347.090832 60.776641 
L 348.518037 60.63256 
L 349.945241 60.816715 
L 351.372445 60.559478 
L 352.79965 59.379721 
L 354.226854 60.292889 
L 355.654058 59.687 
L 357.081263 58.954069 
L 358.508467 60.545957 
L 359.935672 58.08426 
L 361.362876 58.761672 
L 362.79008 58.767587 
L 364.217285 59.62977 
L 365.644489 60.631176 
L 367.071693 60.981015 
L 368.498898 60.099859 
L 369.926102 61.704513 
L 371.353307 61.790794 
L 372.780511 61.565212 
L 374.207715 60.400877 
L 375.63492 59.639776 
L 377.062124 59.729234 
L 378.489328 59.13477 
L 379.916533 58.694398 
L 381.343737 59.666537 
L 382.770942 61.139261 
L 384.198146 60.182818 
L 385.62535 59.561693 
L 387.052555 60.230996 
L 388.479759 59.42264 
L 389.906963 58.923979 
L 391.334168 60.797116 
L 392.761372 59.970386 
L 394.188577 57.481942 
L 395.615781 60.650753 
L 397.042985 60.808447 
L 398.47019 61.696219 
L 399.897394 61.84446 
L 401.324598 62.230087 
L 402.751803 59.628723 
L 404.179007 58.043794 
L 405.606212 57.095229 
L 407.033416 56.506435 
L 408.46062 55.746367 
L 409.887825 59.189797 
L 411.315029 60.789588 
L 412.742233 61.037981 
L 414.169438 60.807674 
L 415.596642 61.201942 
L 417.023847 60.773676 
L 418.451051 62.096041 
L 419.878255 61.444768 
L 421.30546 62.558489 
L 422.732664 61.712599 
L 424.159868 63.502937 
L 425.587073 61.497075 
L 427.014277 62.707602 
L 428.441482 62.488655 
L 429.868686 59.975593 
L 431.29589 61.446178 
L 432.723095 60.441272 
L 434.150299 60.458099 
L 435.577503 59.988753 
L 437.004708 61.077551 
L 438.431912 58.672302 
L 439.859117 59.305252 
L 441.286321 58.890882 
L 442.713525 55.995285 
L 444.14073 54.716004 
L 445.567934 56.222148 
L 446.995138 55.050731 
L 448.422343 57.665656 
L 449.849547 58.08197 
L 451.276752 56.453484 
L 452.703956 52.755942 
L 454.13116 53.996885 
L 455.558365 54.796615 
L 456.985569 57.188975 
L 458.412773 57.87411 
L 459.839978 57.1597 
L 461.267182 59.687909 
L 462.694387 59.126575 
L 464.121591 60.737752 
L 465.548795 61.646629 
L 466.976 61.075357 
L 468.403204 59.552009 
L 469.830408 59.448287 
L 471.257613 56.915749 
L 472.684817 58.267395 
L 474.112022 57.352104 
L 475.539226 58.1257 
L 476.96643 58.399868 
L 478.393635 56.213723 
L 479.820839 55.585518 
L 481.248043 56.026412 
L 482.675248 57.889381 
L 484.102452 56.654548 
L 485.529657 57.533576 
L 486.956861 58.115021 
L 488.384065 61.019596 
L 489.81127 62.634771 
L 491.238474 64.442663 
L 492.665678 63.252998 
L 494.092883 60.890487 
L 495.520087 61.667055 
L 496.947292 59.791522 
L 498.374496 59.847505 
L 499.8017 57.382335 
L 501.228905 60.360648 
L 502.656109 58.929401 
L 504.083313 60.382033 
L 505.510518 60.62078 
L 506.937722 59.060128 
L 508.364927 58.306452 
L 509.792131 59.168236 
L 511.219335 59.60866 
L 512.64654 59.294025 
L 514.073744 60.680208 
L 515.500948 60.83513 
L 516.928153 61.183069 
L 518.355357 58.367452 
L 519.782562 57.123223 
L 521.209766 57.999404 
L 522.63697 57.130765 
L 524.064175 57.756753 
L 525.491379 56.311353 
L 526.918583 57.342429 
L 528.345788 60.588731 
L 529.772992 60.479283 
L 532.627401 59.82079 
L 534.054605 57.528837 
L 535.48181 57.336744 
L 536.909014 56.611165 
L 538.336218 56.234221 
L 539.763423 57.244755 
L 541.190627 57.763121 
L 545.47224 64.847438 
L 546.899445 64.120079 
L 548.326649 63.6288 
L 549.753853 64.079982 
L 552.608262 64.823067 
L 555.462671 62.57211 
L 556.889875 62.108024 
L 558.31708 61.26738 
L 559.744284 58.882723 
L 561.171488 59.253757 
L 562.598693 58.425742 
L 564.025897 58.189851 
L 565.453102 58.494498 
L 566.880306 60.421494 
L 568.30751 60.214639 
L 569.734715 61.218342 
L 571.161919 61.481513 
L 572.589123 61.054115 
L 574.016328 61.255408 
L 576.870737 58.471391 
L 578.297941 58.275682 
L 579.725145 57.657311 
L 581.15235 58.821968 
L 582.579554 58.104578 
L 584.006758 58.623384 
L 585.433963 57.456698 
L 586.861167 59.703055 
L 588.288371 59.839176 
L 589.715576 58.222365 
L 591.14278 58.118347 
L 592.569985 57.502656 
L 593.997189 58.854545 
L 596.851598 56.12318 
L 598.278802 56.837424 
L 599.706006 58.123297 
L 601.133211 58.579656 
L 602.560415 60.179992 
L 603.98762 60.280769 
L 605.414824 62.179792 
L 606.842028 59.815324 
L 608.269233 59.637323 
L 609.696437 59.745012 
L 611.123641 59.715743 
L 612.550846 60.006281 
L 613.97805 58.009851 
L 615.405255 57.055908 
L 616.832459 56.700559 
L 618.259663 57.336887 
L 619.686868 58.184806 
L 621.114072 59.400953 
L 622.541276 58.355313 
L 623.968481 57.030153 
L 625.395685 58.882509 
L 626.82289 55.182233 
L 628.250094 55.098812 
L 629.677298 54.895363 
L 631.104503 54.281311 
L 633.958911 58.831566 
L 635.386116 58.646213 
L 636.81332 59.983184 
L 638.240525 60.611008 
L 639.667729 60.496941 
L 641.094933 61.183542 
L 642.522138 58.620673 
L 643.949342 56.921302 
L 645.376546 58.575512 
L 646.803751 59.583277 
L 648.230955 58.321023 
L 649.65816 59.679818 
L 651.085364 58.896866 
L 652.512568 59.396631 
L 653.939773 58.865956 
L 653.939773 58.865956 
" clip-path="url(#pd62f72eb50)" style="fill: none; stroke: #2ca02c; stroke-width: 1.2; stroke-linecap: square"/>
   </g>
   <g id="line2d_34">
    <path d="M 84.485227 331.285586 
L 85.912432 319.807476 
L 88.76684 283.060648 
L 90.194045 268.336677 
L 91.621249 255.457187 
L 93.048454 238.892645 
L 94.475658 225.439959 
L 95.902862 209.458025 
L 98.757271 183.203714 
L 103.038884 148.666919 
L 104.466089 139.374734 
L 105.893293 129.291302 
L 107.320497 123.275518 
L 108.747702 115.772418 
L 110.174906 110.097857 
L 111.60211 106.228127 
L 113.029315 100.768092 
L 115.883724 94.854154 
L 117.310928 93.324625 
L 118.738132 89.939084 
L 120.165337 88.931323 
L 121.592541 86.094856 
L 123.019745 82.780529 
L 124.44695 80.239702 
L 125.874154 79.184414 
L 127.301359 77.163937 
L 128.728563 77.685065 
L 130.155767 74.122411 
L 131.582972 71.601541 
L 133.010176 70.918328 
L 134.43738 70.797089 
L 137.291789 65.789073 
L 138.718994 66.887871 
L 140.146198 66.925838 
L 141.573402 67.834649 
L 143.000607 66.544568 
L 144.427811 67.815791 
L 145.855015 64.128826 
L 147.28222 64.64781 
L 148.709424 62.498638 
L 150.136629 61.174687 
L 151.563833 61.246213 
L 152.991037 60.545623 
L 154.418242 62.736076 
L 155.845446 63.422454 
L 157.27265 62.767424 
L 158.699855 63.435448 
L 160.127059 61.860546 
L 161.554263 60.986179 
L 162.981468 60.724403 
L 164.408672 61.584539 
L 165.835877 61.648669 
L 167.263081 62.415628 
L 168.690285 62.503886 
L 170.11749 62.443764 
L 171.544694 63.772566 
L 172.971898 65.760144 
L 174.399103 65.001557 
L 175.826307 66.251551 
L 177.253512 65.33511 
L 180.10792 63.960855 
L 181.535125 60.84384 
L 182.962329 62.430441 
L 184.389533 62.444058 
L 185.816738 61.110659 
L 187.243942 60.62652 
L 188.671147 60.73895 
L 190.098351 61.511599 
L 192.95276 61.30721 
L 194.379964 61.035952 
L 195.807168 62.139592 
L 197.234373 62.98886 
L 198.661577 63.607107 
L 200.088782 62.837179 
L 201.515986 62.616865 
L 202.94319 61.391393 
L 204.370395 57.953331 
L 205.797599 58.030153 
L 207.224803 57.743153 
L 208.652008 57.817914 
L 210.079212 55.379667 
L 211.506417 54.217009 
L 212.933621 56.323536 
L 214.360825 57.737158 
L 215.78803 58.813328 
L 217.215234 58.276249 
L 218.642438 58.643225 
L 220.069643 58.26135 
L 221.496847 58.115238 
L 222.924052 58.268369 
L 224.351256 57.813074 
L 225.77846 56.05483 
L 227.205665 54.657662 
L 228.632869 52.441108 
L 230.060073 52.158376 
L 231.487278 54.028689 
L 232.914482 52.593842 
L 234.341687 54.320016 
L 235.768891 54.788058 
L 237.196095 55.11359 
L 238.6233 55.756926 
L 240.050504 55.703732 
L 241.477708 55.140104 
L 244.332117 57.187559 
L 245.759322 59.120369 
L 247.186526 58.885504 
L 248.61373 61.244917 
L 250.040935 59.603615 
L 251.468139 59.14746 
L 252.895343 59.430891 
L 254.322548 61.790686 
L 255.749752 60.456126 
L 257.176957 58.958498 
L 258.604161 60.606295 
L 260.031365 59.620985 
L 261.45857 57.611119 
L 262.885774 56.622191 
L 264.312978 58.818065 
L 265.740183 57.416549 
L 267.167387 56.77582 
L 268.594592 57.212091 
L 270.021796 58.641563 
L 271.449 58.96924 
L 272.876205 58.401219 
L 274.303409 59.015259 
L 275.730613 58.144281 
L 277.157818 59.867769 
L 278.585022 59.890101 
L 280.012227 59.36922 
L 281.439431 58.34036 
L 282.866635 60.752777 
L 284.29384 59.760378 
L 285.721044 61.3086 
L 287.148248 60.049349 
L 288.575453 61.269114 
L 290.002657 60.535023 
L 291.429862 62.752073 
L 292.857066 63.715802 
L 294.28427 61.946298 
L 295.711475 58.922516 
L 297.138679 59.848469 
L 298.565883 60.611391 
L 299.993088 59.862869 
L 301.420292 59.450918 
L 302.847497 59.916451 
L 304.274701 60.86952 
L 305.701905 61.545969 
L 307.12911 61.776777 
L 308.556314 63.913044 
L 309.983518 63.092011 
L 311.410723 64.110519 
L 314.265132 61.639425 
L 315.692336 62.297376 
L 317.11954 60.697537 
L 318.546745 61.149286 
L 319.973949 60.772344 
L 321.401153 60.245562 
L 322.828358 58.465461 
L 324.255562 57.594563 
L 325.682767 57.060334 
L 327.109971 57.242198 
L 328.537175 58.198824 
L 329.96438 60.45999 
L 331.391584 61.391662 
L 332.818788 62.570053 
L 334.245993 62.378194 
L 335.673197 58.151697 
L 337.100402 60.485939 
L 338.527606 60.522683 
L 339.95481 61.113781 
L 341.382015 61.384219 
L 342.809219 59.129099 
L 344.236423 56.663319 
L 345.663628 56.876982 
L 347.090832 58.989935 
L 348.518037 59.014183 
L 349.945241 58.068221 
L 351.372445 58.04788 
L 352.79965 59.815756 
L 354.226854 59.352479 
L 355.654058 60.046857 
L 357.081263 62.820704 
L 358.508467 61.974567 
L 361.362876 62.687788 
L 362.79008 60.741578 
L 364.217285 58.532424 
L 365.644489 59.253931 
L 367.071693 59.687992 
L 368.498898 60.58786 
L 369.926102 60.701416 
L 371.353307 59.68957 
L 372.780511 59.023138 
L 374.207715 60.117625 
L 375.63492 60.023216 
L 377.062124 58.520096 
L 378.489328 58.725272 
L 379.916533 59.84535 
L 381.343737 57.80623 
L 382.770942 58.869564 
L 384.198146 58.349108 
L 385.62535 58.96648 
L 387.052555 60.337401 
L 388.479759 57.452177 
L 389.906963 57.926203 
L 391.334168 58.230532 
L 392.761372 54.859793 
L 394.188577 53.356262 
L 395.615781 54.445524 
L 397.042985 54.757865 
L 398.47019 54.517931 
L 399.897394 54.603362 
L 401.324598 52.824956 
L 402.751803 54.08667 
L 404.179007 53.878828 
L 405.606212 52.593945 
L 407.033416 50.113396 
L 408.46062 48.838145 
L 409.887825 49.873033 
L 411.315029 51.754504 
L 414.169438 55.850294 
L 415.596642 56.625962 
L 417.023847 55.65998 
L 418.451051 58.06492 
L 419.878255 62.518173 
L 421.30546 61.764298 
L 422.732664 61.625871 
L 424.159868 59.46096 
L 425.587073 59.470254 
L 427.014277 60.076118 
L 428.441482 58.687886 
L 429.868686 61.243043 
L 431.29589 59.485363 
L 432.723095 59.598109 
L 434.150299 60.325015 
L 435.577503 61.187748 
L 437.004708 59.590374 
L 438.431912 58.296521 
L 439.859117 59.681463 
L 441.286321 57.583442 
L 442.713525 58.326835 
L 444.14073 58.218603 
L 445.567934 57.43925 
L 446.995138 59.955047 
L 448.422343 59.692151 
L 449.849547 57.246486 
L 451.276752 58.133287 
L 452.703956 57.701796 
L 454.13116 56.788734 
L 455.558365 56.72162 
L 456.985569 57.038337 
L 458.412773 58.139104 
L 459.839978 59.971016 
L 461.267182 59.694905 
L 462.694387 60.04639 
L 464.121591 60.148422 
L 465.548795 58.424901 
L 466.976 60.19297 
L 468.403204 63.198752 
L 469.830408 61.094659 
L 471.257613 62.749613 
L 472.684817 62.805535 
L 474.112022 60.257079 
L 475.539226 61.624512 
L 476.96643 60.284099 
L 478.393635 61.24555 
L 479.820839 60.444221 
L 481.248043 60.447417 
L 482.675248 59.381715 
L 484.102452 58.549794 
L 485.529657 58.82123 
L 486.956861 59.524481 
L 488.384065 57.491663 
L 489.81127 56.378418 
L 491.238474 58.611915 
L 492.665678 58.321037 
L 494.092883 60.867408 
L 495.520087 60.867257 
L 496.947292 60.065315 
L 498.374496 57.650124 
L 501.228905 56.582061 
L 502.656109 53.408076 
L 504.083313 55.49667 
L 505.510518 56.359393 
L 506.937722 56.387682 
L 508.364927 58.850767 
L 509.792131 58.050745 
L 511.219335 59.611769 
L 512.64654 59.896227 
L 514.073744 60.696102 
L 515.500948 60.049293 
L 516.928153 60.848288 
L 518.355357 61.259186 
L 519.782562 61.394726 
L 521.209766 61.385385 
L 522.63697 61.043681 
L 524.064175 58.86101 
L 525.491379 60.010365 
L 526.918583 59.16241 
L 528.345788 56.915679 
L 529.772992 58.792799 
L 531.200197 60.082064 
L 532.627401 57.556151 
L 534.054605 59.142794 
L 535.48181 59.175967 
L 536.909014 58.445459 
L 538.336218 60.46361 
L 539.763423 61.467717 
L 541.190627 60.743778 
L 542.617832 61.148823 
L 544.045036 61.278076 
L 545.47224 62.600243 
L 546.899445 61.809163 
L 548.326649 62.660354 
L 549.753853 61.590803 
L 551.181058 61.351177 
L 554.035467 61.409843 
L 555.462671 59.332442 
L 556.889875 58.669183 
L 558.31708 57.126508 
L 559.744284 56.203891 
L 561.171488 57.426819 
L 562.598693 56.714594 
L 564.025897 57.23305 
L 566.880306 57.241529 
L 568.30751 58.758314 
L 569.734715 58.489828 
L 571.161919 59.381367 
L 572.589123 62.48147 
L 574.016328 62.514041 
L 575.443532 61.511498 
L 576.870737 61.867934 
L 578.297941 60.973692 
L 579.725145 60.865628 
L 581.15235 63.282947 
L 582.579554 63.314094 
L 585.433963 60.305012 
L 586.861167 61.130727 
L 588.288371 61.199727 
L 589.715576 62.41819 
L 591.14278 62.757706 
L 592.569985 61.951652 
L 593.997189 61.405424 
L 595.424393 61.285808 
L 598.278802 59.746858 
L 599.706006 57.35117 
L 601.133211 57.71388 
L 602.560415 56.491576 
L 603.98762 59.201359 
L 605.414824 55.994429 
L 606.842028 58.403611 
L 608.269233 58.429271 
L 609.696437 60.292414 
L 611.123641 58.378292 
L 612.550846 58.126428 
L 613.97805 58.045533 
L 615.405255 59.393959 
L 616.832459 57.188231 
L 618.259663 58.39317 
L 619.686868 55.858728 
L 621.114072 56.676308 
L 622.541276 56.840083 
L 623.968481 58.993164 
L 625.395685 57.760965 
L 626.82289 56.159981 
L 629.677298 59.437398 
L 631.104503 59.596666 
L 632.531707 59.442181 
L 633.958911 58.070687 
L 635.386116 58.108301 
L 636.81332 57.276807 
L 638.240525 57.040126 
L 639.667729 58.540464 
L 642.522138 56.981279 
L 643.949342 57.574816 
L 645.376546 57.01449 
L 646.803751 56.135779 
L 649.65816 57.032741 
L 651.085364 56.985286 
L 652.512568 57.113706 
L 653.939773 56.088156 
L 653.939773 56.088156 
" clip-path="url(#pd62f72eb50)" style="fill: none; stroke: #9b8ac9; stroke-width: 1.2; stroke-linecap: square"/>
   </g>
   <g id="patch_3">
    <path d="M 56.0125 349.8636 
L 56.0125 34.5036 
" style="fill: none; stroke: #000000; stroke-width: 0.8; stroke-linejoin: miter; stroke-linecap: square"/>
   </g>
   <g id="patch_4">
    <path d="M 682.4125 349.8636 
L 682.4125 34.5036 
" style="fill: none; stroke: #000000; stroke-width: 0.8; stroke-linejoin: miter; stroke-linecap: square"/>
   </g>
   <g id="patch_5">
    <path d="M 56.0125 349.8636 
L 682.4125 349.8636 
" style="fill: none; stroke: #000000; stroke-width: 0.8; stroke-linejoin: miter; stroke-linecap: square"/>
   </g>
   <g id="patch_6">
    <path d="M 56.0125 34.5036 
L 682.4125 34.5036 
" style="fill: none; stroke: #000000; stroke-width: 0.8; stroke-linejoin: miter; stroke-linecap: square"/>
   </g>
   <g id="legend_1">
    <g id="patch_7">
     <path d="M 56.0125 31.35 
L 682.4125 31.35 
L 682.4125 7.2 
L 56.0125 7.2 
z
" style="fill: #ffffff; stroke: #808080; stroke-width: 0.8; stroke-linejoin: miter"/>
    </g>
    <g id="line2d_35">
     <path d="M 62.3125 18.4 
L 76.3125 18.4 
L 90.3125 18.4 
" style="fill: none; stroke: #1f77b4; stroke-width: 1.2; stroke-linecap: square"/>
    </g>
    <g id="text_18">
     <!-- GCN-DDQN -->
     <g transform="translate(98.7125 23.3) scale(0.14 -0.14)">
      <defs>
       <path id="SimHei-47" d="M 2850 75 
L 2425 75 
L 2350 425 
Q 2250 275 2037 175 
Q 1825 75 1575 75 
Q 1050 75 637 562 
Q 225 1050 225 2125 
Q 225 3300 600 3875 
Q 975 4450 1625 4450 
Q 2200 4450 2525 4025 
Q 2850 3600 2850 2925 
L 2300 2925 
Q 2300 3450 2125 3712 
Q 1950 3975 1625 3975 
Q 1225 3975 1025 3562 
Q 825 3150 825 2175 
Q 825 1250 1075 900 
Q 1325 550 1650 550 
Q 1975 550 2162 787 
Q 2350 1025 2350 1525 
L 2350 1800 
L 1575 1800 
L 1575 2275 
L 2850 2275 
L 2850 75 
z
" transform="scale(0.015625)"/>
       <path id="SimHei-43" d="M 2975 1825 
Q 2950 875 2575 475 
Q 2200 75 1675 75 
Q 1075 75 650 562 
Q 225 1050 225 2125 
Q 225 3300 637 3875 
Q 1050 4450 1700 4450 
Q 2250 4450 2612 4037 
Q 2975 3625 2950 2875 
L 2400 2875 
Q 2400 3425 2225 3700 
Q 2050 3975 1700 3975 
Q 1300 3975 1062 3562 
Q 825 3150 825 2175 
Q 825 1275 1062 912 
Q 1300 550 1675 550 
Q 1950 550 2175 812 
Q 2400 1075 2400 1825 
L 2975 1825 
z
" transform="scale(0.015625)"/>
       <path id="SimHei-4e" d="M 2850 125 
L 2225 125 
L 850 3225 
L 825 3225 
L 825 125 
L 250 125 
L 250 4400 
L 875 4400 
L 2250 1300 
L 2275 1300 
L 2275 4400 
L 2850 4400 
L 2850 125 
z
" transform="scale(0.015625)"/>
       <path id="SimHei-2d" d="M 2975 2125 
L 125 2125 
L 125 2525 
L 2975 2525 
L 2975 2125 
z
" transform="scale(0.015625)"/>
       <path id="SimHei-44" d="M 2925 2250 
Q 2925 1100 2437 612 
Q 1950 125 1125 125 
L 275 125 
L 275 4400 
L 1125 4400 
Q 2050 4400 2487 3900 
Q 2925 3400 2925 2250 
z
M 2325 2250 
Q 2325 3175 2025 3550 
Q 1725 3925 1125 3925 
L 850 3925 
L 850 600 
L 1125 600 
Q 1725 600 2025 962 
Q 2325 1325 2325 2250 
z
" transform="scale(0.015625)"/>
       <path id="SimHei-51" d="M 2950 2275 
Q 2950 1675 2862 1262 
Q 2775 850 2575 600 
L 2775 225 
L 2375 -200 
L 2150 225 
Q 2050 150 1900 112 
Q 1750 75 1575 75 
Q 925 75 550 587 
Q 175 1100 175 2275 
Q 175 3450 550 3950 
Q 925 4450 1575 4450 
Q 2225 4450 2587 3950 
Q 2950 3450 2950 2275 
z
M 2350 2275 
Q 2350 3325 2125 3650 
Q 1900 3975 1575 3975 
Q 1250 3975 1012 3650 
Q 775 3325 775 2275 
Q 775 1225 1012 887 
Q 1250 550 1575 550 
Q 1700 550 1800 587 
Q 1900 625 1950 675 
L 1550 1450 
L 1900 1875 
L 2250 1200 
Q 2300 1450 2325 1650 
Q 2350 1850 2350 2275 
z
" transform="scale(0.015625)"/>
      </defs>
      <use xlink:href="#SimHei-47"/>
      <use xlink:href="#SimHei-43" transform="translate(50 0)"/>
      <use xlink:href="#SimHei-4e" transform="translate(100 0)"/>
      <use xlink:href="#SimHei-2d" transform="translate(150 0)"/>
      <use xlink:href="#SimHei-44" transform="translate(200 0)"/>
      <use xlink:href="#SimHei-44" transform="translate(250 0)"/>
      <use xlink:href="#SimHei-51" transform="translate(300 0)"/>
      <use xlink:href="#SimHei-4e" transform="translate(350 0)"/>
     </g>
    </g>
    <g id="line2d_36">
     <path d="M 229.1125 18.4 
L 243.1125 18.4 
L 257.1125 18.4 
" style="fill: none; stroke: #ff7f0e; stroke-width: 1.2; stroke-linecap: square"/>
    </g>
    <g id="text_19">
     <!-- GCN-D3QN -->
     <g transform="translate(265.5125 23.3) scale(0.14 -0.14)">
      <use xlink:href="#SimHei-47"/>
      <use xlink:href="#SimHei-43" transform="translate(50 0)"/>
      <use xlink:href="#SimHei-4e" transform="translate(100 0)"/>
      <use xlink:href="#SimHei-2d" transform="translate(150 0)"/>
      <use xlink:href="#SimHei-44" transform="translate(200 0)"/>
      <use xlink:href="#SimHei-33" transform="translate(250 0)"/>
      <use xlink:href="#SimHei-51" transform="translate(300 0)"/>
      <use xlink:href="#SimHei-4e" transform="translate(350 0)"/>
     </g>
    </g>
    <g id="line2d_37">
     <path d="M 395.9125 18.4 
L 409.9125 18.4 
L 423.9125 18.4 
" style="fill: none; stroke: #2ca02c; stroke-width: 1.2; stroke-linecap: square"/>
    </g>
    <g id="text_20">
     <!-- GAT-LSTM-DDQN -->
     <g transform="translate(432.3125 23.3) scale(0.14 -0.14)">
      <defs>
       <path id="SimHei-41" d="M 3075 125 
L 2475 125 
L 2125 1450 
L 1025 1450 
L 675 125 
L 75 125 
L 1325 4450 
L 1825 4450 
L 3075 125 
z
M 2000 1925 
L 1600 3450 
L 1550 3450 
L 1150 1925 
L 2000 1925 
z
" transform="scale(0.015625)"/>
       <path id="SimHei-4c" d="M 2900 125 
L 300 125 
L 300 4400 
L 875 4400 
L 875 600 
L 2900 600 
L 2900 125 
z
" transform="scale(0.015625)"/>
       <path id="SimHei-53" d="M 2900 1325 
Q 2900 750 2537 412 
Q 2175 75 1550 75 
Q 925 75 575 425 
Q 225 775 225 1300 
L 225 1475 
L 800 1475 
L 800 1325 
Q 800 950 1025 750 
Q 1250 550 1550 550 
Q 1950 550 2137 762 
Q 2325 975 2325 1275 
Q 2325 1525 2100 1737 
Q 1875 1950 1450 2125 
Q 850 2350 587 2625 
Q 325 2900 325 3275 
Q 325 3800 687 4125 
Q 1050 4450 1550 4450 
Q 2200 4450 2487 4062 
Q 2775 3675 2775 3225 
L 2200 3225 
Q 2225 3500 2050 3725 
Q 1875 3950 1550 3950 
Q 1250 3950 1075 3787 
Q 900 3625 900 3350 
Q 900 3125 1037 2962 
Q 1175 2800 1750 2575 
Q 2300 2350 2600 2037 
Q 2900 1725 2900 1325 
z
" transform="scale(0.015625)"/>
       <path id="SimHei-4d" d="M 2925 125 
L 2425 125 
L 2425 3175 
L 2375 3175 
L 1775 125 
L 1375 125 
L 775 3175 
L 725 3175 
L 725 125 
L 225 125 
L 225 4400 
L 1000 4400 
L 1550 1575 
L 1600 1575 
L 2150 4400 
L 2925 4400 
L 2925 125 
z
" transform="scale(0.015625)"/>
      </defs>
      <use xlink:href="#SimHei-47"/>
      <use xlink:href="#SimHei-41" transform="translate(50 0)"/>
      <use xlink:href="#SimHei-54" transform="translate(100 0)"/>
      <use xlink:href="#SimHei-2d" transform="translate(150 0)"/>
      <use xlink:href="#SimHei-4c" transform="translate(200 0)"/>
      <use xlink:href="#SimHei-53" transform="translate(250 0)"/>
      <use xlink:href="#SimHei-54" transform="translate(300 0)"/>
      <use xlink:href="#SimHei-4d" transform="translate(350 0)"/>
      <use xlink:href="#SimHei-2d" transform="translate(400 0)"/>
      <use xlink:href="#SimHei-44" transform="translate(450 0)"/>
      <use xlink:href="#SimHei-44" transform="translate(500 0)"/>
      <use xlink:href="#SimHei-51" transform="translate(550 0)"/>
      <use xlink:href="#SimHei-4e" transform="translate(600 0)"/>
     </g>
    </g>
    <g id="line2d_38">
     <path d="M 597.7125 18.4 
L 611.7125 18.4 
L 625.7125 18.4 
" style="fill: none; stroke: #9b8ac9; stroke-width: 1.2; stroke-linecap: square"/>
    </g>
    <g id="text_21">
     <!-- GLDVTO -->
     <g transform="translate(634.1125 23.3) scale(0.14 -0.14)">
      <defs>
       <path id="SimHei-56" d="M 3050 4400 
L 1800 75 
L 1300 75 
L 50 4400 
L 650 4400 
L 1525 1125 
L 1575 1125 
L 2450 4400 
L 3050 4400 
z
" transform="scale(0.015625)"/>
       <path id="SimHei-4f" d="M 2950 2275 
Q 2950 1100 2587 587 
Q 2225 75 1575 75 
Q 925 75 550 587 
Q 175 1100 175 2275 
Q 175 3450 550 3950 
Q 925 4450 1575 4450 
Q 2225 4450 2587 3950 
Q 2950 3450 2950 2275 
z
M 2350 2275 
Q 2350 3325 2125 3650 
Q 1900 3975 1575 3975 
Q 1250 3975 1012 3650 
Q 775 3325 775 2275 
Q 775 1225 1012 887 
Q 1250 550 1575 550 
Q 1900 550 2125 887 
Q 2350 1225 2350 2275 
z
" transform="scale(0.015625)"/>
      </defs>
      <use xlink:href="#SimHei-47"/>
      <use xlink:href="#SimHei-4c" transform="translate(50 0)"/>
      <use xlink:href="#SimHei-44" transform="translate(100 0)"/>
      <use xlink:href="#SimHei-56" transform="translate(150 0)"/>
      <use xlink:href="#SimHei-54" transform="translate(200 0)"/>
      <use xlink:href="#SimHei-4f" transform="translate(250 0)"/>
     </g>
    </g>
   </g>
  </g>
 </g>
 <defs>
  <clipPath id="pd62f72eb50">
   <rect x="56.0125" y="34.5036" width="626.4" height="315.36"/>
  </clipPath>
 </defs>
</svg>
