<?xml version="1.0" encoding="utf-8" standalone="no"?>
<!DOCTYPE svg PUBLIC "-//W3C//DTD SVG 1.1//EN"
  "http://www.w3.org/Graphics/SVG/1.1/DTD/svg11.dtd">
<svg xmlns:xlink="http://www.w3.org/1999/xlink" width="712.99pt" height="424.835pt" viewBox="0 0 712.99 424.835" xmlns="http://www.w3.org/2000/svg" version="1.1">
 <metadata>
  <rdf:RDF xmlns:dc="http://purl.org/dc/elements/1.1/" xmlns:cc="http://creativecommons.org/ns#" xmlns:rdf="http://www.w3.org/1999/02/22-rdf-syntax-ns#">
   <cc:Work>
    <dc:type rdf:resource="http://purl.org/dc/dcmitype/StillImage"/>
    <dc:date>2026-06-29T10:06:30.307839</dc:date>
    <dc:format>image/svg+xml</dc:format>
    <dc:creator>
     <cc:Agent>
      <dc:title>Matplotlib v3.10.7, https://matplotlib.org/</dc:title>
     </cc:Agent>
    </dc:creator>
   </cc:Work>
  </rdf:RDF>
 </metadata>
 <defs>
  <style type="text/css">*{stroke-linejoin: round; stroke-linecap: butt}</style>
 </defs>
 <g id="figure_1">
  <g id="patch_1">
   <path d="M -0 424.835 
L 712.99 424.835 
L 712.99 0 
L -0 0 
z
" style="fill: #ffffff"/>
  </g>
  <g id="axes_1">
   <g id="patch_2">
    <path d="M 55.2 383.885 
L 705.79 383.885 
L 705.79 24.325 
L 55.2 24.325 
z
" style="fill: #ffffff"/>
   </g>
   <g id="matplotlib.axis_1">
    <g id="xtick_1">
     <g id="line2d_1">
      <path d="M 84.772273 383.885 
L 84.772273 24.325 
" clip-path="url(#pae103a5fc1)" style="fill: none; stroke: #b0b0b0; stroke-opacity: 0.3; stroke-width: 0.8; stroke-linecap: square"/>
     </g>
     <g id="line2d_2">
      <defs>
       <path id="m0521dc83ae" d="M 0 0 
L 0 3.5 
" style="stroke: #000000; stroke-width: 0.8"/>
      </defs>
      <g>
       <use xlink:href="#m0521dc83ae" x="84.772273" y="383.885" style="stroke: #000000; stroke-width: 0.8"/>
      </g>
     </g>
     <g id="text_1">
      <!-- 0 -->
      <g transform="translate(81.772273 399.135) scale(0.12 -0.12)">
       <defs>
        <path id="SimHei-30" d="M 225 2537 
Q 250 3200 412 3587 
Q 575 3975 875 4225 
Q 1175 4475 1612 4475 
Q 2050 4475 2375 4112 
Q 2700 3750 2800 3200 
Q 2900 2650 2862 1937 
Q 2825 1225 2612 775 
Q 2400 325 1975 150 
Q 1550 -25 1125 187 
Q 700 400 525 750 
Q 350 1100 275 1487 
Q 200 1875 225 2537 
z
M 750 2687 
Q 675 2000 800 1462 
Q 925 925 1212 700 
Q 1500 475 1800 612 
Q 2100 750 2237 1162 
Q 2375 1575 2375 2062 
Q 2375 2550 2337 2950 
Q 2300 3350 2112 3675 
Q 1925 4000 1612 4012 
Q 1300 4025 1062 3700 
Q 825 3375 750 2687 
z
" transform="scale(0.015625)"/>
       </defs>
       <use xlink:href="#SimHei-30"/>
      </g>
     </g>
    </g>
    <g id="xtick_2">
     <g id="line2d_3">
      <path d="M 158.888244 383.885 
L 158.888244 24.325 
" clip-path="url(#pae103a5fc1)" style="fill: none; stroke: #b0b0b0; stroke-opacity: 0.3; stroke-width: 0.8; stroke-linecap: square"/>
     </g>
     <g id="line2d_4">
      <g>
       <use xlink:href="#m0521dc83ae" x="158.888244" y="383.885" style="stroke: #000000; stroke-width: 0.8"/>
      </g>
     </g>
     <g id="text_2">
      <!-- 50 -->
      <g transform="translate(152.888244 399.135) scale(0.12 -0.12)">
       <defs>
        <path id="SimHei-35" d="M 550 1325 
Q 725 650 1150 575 
Q 1575 500 1837 662 
Q 2100 825 2212 1087 
Q 2325 1350 2312 1675 
Q 2300 2000 2137 2225 
Q 1975 2450 1725 2525 
Q 1475 2600 1162 2525 
Q 850 2450 650 2175 
L 225 2225 
Q 275 2375 700 4375 
L 2675 4375 
L 2675 3925 
L 1075 3925 
Q 950 3250 825 2850 
Q 1200 3025 1525 3012 
Q 1850 3000 2150 2862 
Q 2450 2725 2587 2487 
Q 2725 2250 2787 2012 
Q 2850 1775 2837 1500 
Q 2825 1225 2725 937 
Q 2625 650 2425 462 
Q 2225 275 1937 162 
Q 1650 50 1275 75 
Q 900 100 562 350 
Q 225 600 100 1200 
L 550 1325 
z
" transform="scale(0.015625)"/>
       </defs>
       <use xlink:href="#SimHei-35"/>
       <use xlink:href="#SimHei-30" transform="translate(50 0)"/>
      </g>
     </g>
    </g>
    <g id="xtick_3">
     <g id="line2d_5">
      <path d="M 233.004216 383.885 
L 233.004216 24.325 
" clip-path="url(#pae103a5fc1)" style="fill: none; stroke: #b0b0b0; stroke-opacity: 0.3; stroke-width: 0.8; stroke-linecap: square"/>
     </g>
     <g id="line2d_6">
      <g>
       <use xlink:href="#m0521dc83ae" x="233.004216" y="383.885" style="stroke: #000000; stroke-width: 0.8"/>
      </g>
     </g>
     <g id="text_3">
      <!-- 100 -->
      <g transform="translate(224.004216 399.135) scale(0.12 -0.12)">
       <defs>
        <path id="SimHei-31" d="M 1400 3600 
Q 1075 3275 575 2975 
L 575 3450 
Q 1200 3875 1600 4450 
L 1900 4450 
L 1900 150 
L 1400 150 
L 1400 3600 
z
" transform="scale(0.015625)"/>
       </defs>
       <use xlink:href="#SimHei-31"/>
       <use xlink:href="#SimHei-30" transform="translate(50 0)"/>
       <use xlink:href="#SimHei-30" transform="translate(100 0)"/>
      </g>
     </g>
    </g>
    <g id="xtick_4">
     <g id="line2d_7">
      <path d="M 307.120188 383.885 
L 307.120188 24.325 
" clip-path="url(#pae103a5fc1)" style="fill: none; stroke: #b0b0b0; stroke-opacity: 0.3; stroke-width: 0.8; stroke-linecap: square"/>
     </g>
     <g id="line2d_8">
      <g>
       <use xlink:href="#m0521dc83ae" x="307.120188" y="383.885" style="stroke: #000000; stroke-width: 0.8"/>
      </g>
     </g>
     <g id="text_4">
      <!-- 150 -->
      <g transform="translate(298.120188 399.135) scale(0.12 -0.12)">
       <use xlink:href="#SimHei-31"/>
       <use xlink:href="#SimHei-35" transform="translate(50 0)"/>
       <use xlink:href="#SimHei-30" transform="translate(100 0)"/>
      </g>
     </g>
    </g>
    <g id="xtick_5">
     <g id="line2d_9">
      <path d="M 381.23616 383.885 
L 381.23616 24.325 
" clip-path="url(#pae103a5fc1)" style="fill: none; stroke: #b0b0b0; stroke-opacity: 0.3; stroke-width: 0.8; stroke-linecap: square"/>
     </g>
     <g id="line2d_10">
      <g>
       <use xlink:href="#m0521dc83ae" x="381.23616" y="383.885" style="stroke: #000000; stroke-width: 0.8"/>
      </g>
     </g>
     <g id="text_5">
      <!-- 200 -->
      <g transform="translate(372.23616 399.135) scale(0.12 -0.12)">
       <defs>
        <path id="SimHei-32" d="M 300 250 
Q 325 625 650 925 
Q 975 1225 1475 1862 
Q 1975 2500 2125 2850 
Q 2275 3200 2237 3450 
Q 2200 3700 2000 3862 
Q 1800 4025 1537 4000 
Q 1275 3975 1037 3800 
Q 800 3625 675 3275 
L 200 3350 
Q 400 3925 712 4187 
Q 1025 4450 1450 4475 
Q 1700 4500 1900 4462 
Q 2100 4425 2312 4287 
Q 2525 4150 2662 3875 
Q 2800 3600 2762 3212 
Q 2725 2825 2375 2287 
Q 2025 1750 1025 600 
L 2825 600 
L 2825 150 
L 300 150 
L 300 250 
z
" transform="scale(0.015625)"/>
       </defs>
       <use xlink:href="#SimHei-32"/>
       <use xlink:href="#SimHei-30" transform="translate(50 0)"/>
       <use xlink:href="#SimHei-30" transform="translate(100 0)"/>
      </g>
     </g>
    </g>
    <g id="xtick_6">
     <g id="line2d_11">
      <path d="M 455.352131 383.885 
L 455.352131 24.325 
" clip-path="url(#pae103a5fc1)" style="fill: none; stroke: #b0b0b0; stroke-opacity: 0.3; stroke-width: 0.8; stroke-linecap: square"/>
     </g>
     <g id="line2d_12">
      <g>
       <use xlink:href="#m0521dc83ae" x="455.352131" y="383.885" style="stroke: #000000; stroke-width: 0.8"/>
      </g>
     </g>
     <g id="text_6">
      <!-- 250 -->
      <g transform="translate(446.352131 399.135) scale(0.12 -0.12)">
       <use xlink:href="#SimHei-32"/>
       <use xlink:href="#SimHei-35" transform="translate(50 0)"/>
       <use xlink:href="#SimHei-30" transform="translate(100 0)"/>
      </g>
     </g>
    </g>
    <g id="xtick_7">
     <g id="line2d_13">
      <path d="M 529.468103 383.885 
L 529.468103 24.325 
" clip-path="url(#pae103a5fc1)" style="fill: none; stroke: #b0b0b0; stroke-opacity: 0.3; stroke-width: 0.8; stroke-linecap: square"/>
     </g>
     <g id="line2d_14">
      <g>
       <use xlink:href="#m0521dc83ae" x="529.468103" y="383.885" style="stroke: #000000; stroke-width: 0.8"/>
      </g>
     </g>
     <g id="text_7">
      <!-- 300 -->
      <g transform="translate(520.468103 399.135) scale(0.12 -0.12)">
       <defs>
        <path id="SimHei-33" d="M 250 1225 
L 700 1300 
Q 800 975 1025 762 
Q 1250 550 1587 562 
Q 1925 575 2125 837 
Q 2325 1100 2300 1437 
Q 2275 1775 2037 1962 
Q 1800 2150 1275 2225 
L 1275 2550 
Q 1800 2600 2037 2825 
Q 2275 3050 2250 3412 
Q 2225 3775 1925 3937 
Q 1625 4100 1287 3975 
Q 950 3850 750 3275 
L 300 3350 
Q 450 3800 712 4100 
Q 975 4400 1425 4450 
Q 1875 4500 2212 4337 
Q 2550 4175 2687 3837 
Q 2825 3500 2725 3100 
Q 2625 2700 2150 2400 
Q 2500 2250 2687 1950 
Q 2875 1650 2812 1162 
Q 2750 675 2375 375 
Q 2000 75 1525 87 
Q 1050 100 700 387 
Q 350 675 250 1225 
z
" transform="scale(0.015625)"/>
       </defs>
       <use xlink:href="#SimHei-33"/>
       <use xlink:href="#SimHei-30" transform="translate(50 0)"/>
       <use xlink:href="#SimHei-30" transform="translate(100 0)"/>
      </g>
     </g>
    </g>
    <g id="xtick_8">
     <g id="line2d_15">
      <path d="M 603.584075 383.885 
L 603.584075 24.325 
" clip-path="url(#pae103a5fc1)" style="fill: none; stroke: #b0b0b0; stroke-opacity: 0.3; stroke-width: 0.8; stroke-linecap: square"/>
     </g>
     <g id="line2d_16">
      <g>
       <use xlink:href="#m0521dc83ae" x="603.584075" y="383.885" style="stroke: #000000; stroke-width: 0.8"/>
      </g>
     </g>
     <g id="text_8">
      <!-- 350 -->
      <g transform="translate(594.584075 399.135) scale(0.12 -0.12)">
       <use xlink:href="#SimHei-33"/>
       <use xlink:href="#SimHei-35" transform="translate(50 0)"/>
       <use xlink:href="#SimHei-30" transform="translate(100 0)"/>
      </g>
     </g>
    </g>
    <g id="xtick_9">
     <g id="line2d_17">
      <path d="M 677.700047 383.885 
L 677.700047 24.325 
" clip-path="url(#pae103a5fc1)" style="fill: none; stroke: #b0b0b0; stroke-opacity: 0.3; stroke-width: 0.8; stroke-linecap: square"/>
     </g>
     <g id="line2d_18">
      <g>
       <use xlink:href="#m0521dc83ae" x="677.700047" y="383.885" style="stroke: #000000; stroke-width: 0.8"/>
      </g>
     </g>
     <g id="text_9">
      <!-- 400 -->
      <g transform="translate(668.700047 399.135) scale(0.12 -0.12)">
       <defs>
        <path id="SimHei-34" d="M 2000 1100 
L 75 1100 
L 75 1525 
L 2100 4450 
L 2475 4450 
L 2475 1525 
L 3075 1525 
L 3075 1100 
L 2475 1100 
L 2475 150 
L 2000 150 
L 2000 1100 
z
M 2000 1525 
L 2000 3500 
L 600 1525 
L 2000 1525 
z
" transform="scale(0.015625)"/>
       </defs>
       <use xlink:href="#SimHei-34"/>
       <use xlink:href="#SimHei-30" transform="translate(50 0)"/>
       <use xlink:href="#SimHei-30" transform="translate(100 0)"/>
      </g>
     </g>
    </g>
    <g id="text_10">
     <!-- Episode -->
     <g transform="translate(352.495 415.635) scale(0.16 -0.16)">
      <defs>
       <path id="SimHei-45" d="M 2900 125 
L 350 125 
L 350 4400 
L 2775 4400 
L 2775 3925 
L 925 3925 
L 925 2600 
L 2625 2600 
L 2625 2125 
L 925 2125 
L 925 600 
L 2900 600 
L 2900 125 
z
" transform="scale(0.015625)"/>
       <path id="SimHei-70" d="M 2825 1525 
Q 2825 800 2475 425 
Q 2125 50 1625 50 
Q 1350 50 1150 162 
Q 950 275 800 500 
L 800 -800 
L 300 -800 
L 300 2925 
L 800 2925 
L 800 2550 
Q 950 2775 1150 2875 
Q 1350 2975 1625 2975 
Q 2125 2975 2475 2612 
Q 2825 2250 2825 1525 
z
M 2275 1525 
Q 2275 2000 2087 2262 
Q 1900 2525 1525 2525 
Q 1225 2525 1012 2262 
Q 800 2000 800 1525 
Q 800 1050 1012 775 
Q 1225 500 1525 500 
Q 1900 500 2087 775 
Q 2275 1050 2275 1525 
z
" transform="scale(0.015625)"/>
       <path id="SimHei-69" d="M 1800 3725 
L 1300 3725 
L 1300 4375 
L 1800 4375 
L 1800 3725 
z
M 1800 125 
L 1300 125 
L 1300 2925 
L 1800 2925 
L 1800 125 
z
" transform="scale(0.015625)"/>
       <path id="SimHei-73" d="M 2750 900 
Q 2750 500 2437 287 
Q 2125 75 1650 75 
Q 1050 75 725 312 
Q 400 550 400 1000 
L 900 1000 
Q 900 700 1112 600 
Q 1325 500 1625 500 
Q 1925 500 2075 612 
Q 2225 725 2225 900 
Q 2225 1025 2100 1150 
Q 1975 1275 1475 1350 
Q 900 1425 687 1637 
Q 475 1850 475 2200 
Q 475 2500 762 2737 
Q 1050 2975 1600 2975 
Q 2100 2975 2387 2750 
Q 2675 2525 2675 2150 
L 2175 2150 
Q 2175 2375 2012 2462 
Q 1850 2550 1600 2550 
Q 1275 2550 1137 2437 
Q 1000 2325 1000 2175 
Q 1000 2000 1125 1900 
Q 1250 1800 1650 1750 
Q 2300 1650 2525 1437 
Q 2750 1225 2750 900 
z
" transform="scale(0.015625)"/>
       <path id="SimHei-6f" d="M 2925 1525 
Q 2925 875 2525 475 
Q 2125 75 1575 75 
Q 1025 75 625 475 
Q 225 875 225 1525 
Q 225 2175 625 2575 
Q 1025 2975 1575 2975 
Q 2125 2975 2525 2575 
Q 2925 2175 2925 1525 
z
M 2375 1525 
Q 2375 2025 2125 2275 
Q 1875 2525 1575 2525 
Q 1275 2525 1025 2275 
Q 775 2025 775 1525 
Q 775 1025 1025 775 
Q 1275 525 1575 525 
Q 1875 525 2125 775 
Q 2375 1025 2375 1525 
z
" transform="scale(0.015625)"/>
       <path id="SimHei-64" d="M 2750 125 
L 2250 125 
L 2250 500 
Q 2100 275 1900 175 
Q 1700 75 1425 75 
Q 925 75 575 437 
Q 225 800 225 1525 
Q 225 2250 575 2625 
Q 925 3000 1425 3000 
Q 1700 3000 1900 2887 
Q 2100 2775 2250 2550 
L 2250 4400 
L 2750 4400 
L 2750 125 
z
M 2250 1525 
Q 2250 2000 2037 2275 
Q 1825 2550 1525 2550 
Q 1150 2550 962 2275 
Q 775 2000 775 1525 
Q 775 1050 962 787 
Q 1150 525 1525 525 
Q 1825 525 2037 787 
Q 2250 1050 2250 1525 
z
" transform="scale(0.015625)"/>
       <path id="SimHei-65" d="M 2850 1075 
Q 2800 625 2450 350 
Q 2100 75 1625 75 
Q 1025 75 637 462 
Q 250 850 250 1525 
Q 250 2200 637 2587 
Q 1025 2975 1625 2975 
Q 2150 2975 2487 2637 
Q 2825 2300 2825 1525 
L 800 1525 
Q 800 975 1037 750 
Q 1275 525 1625 525 
Q 1900 525 2075 662 
Q 2250 800 2300 1075 
L 2850 1075 
z
M 2250 1925 
Q 2200 2275 2025 2412 
Q 1850 2550 1575 2550 
Q 1325 2550 1125 2412 
Q 925 2275 825 1925 
L 2250 1925 
z
" transform="scale(0.015625)"/>
      </defs>
      <use xlink:href="#SimHei-45"/>
      <use xlink:href="#SimHei-70" transform="translate(50 0)"/>
      <use xlink:href="#SimHei-69" transform="translate(100 0)"/>
      <use xlink:href="#SimHei-73" transform="translate(150 0)"/>
      <use xlink:href="#SimHei-6f" transform="translate(200 0)"/>
      <use xlink:href="#SimHei-64" transform="translate(250 0)"/>
      <use xlink:href="#SimHei-65" transform="translate(300 0)"/>
     </g>
    </g>
   </g>
   <g id="matplotlib.axis_2">
    <g id="ytick_1">
     <g id="line2d_19">
      <path d="M 55.2 357.9465 
L 705.79 357.9465 
" clip-path="url(#pae103a5fc1)" style="fill: none; stroke: #b0b0b0; stroke-opacity: 0.3; stroke-width: 0.8; stroke-linecap: square"/>
     </g>
     <g id="line2d_20">
      <defs>
       <path id="m2980ec5377" d="M 0 0 
L -3.5 0 
" style="stroke: #000000; stroke-width: 0.8"/>
      </defs>
      <g>
       <use xlink:href="#m2980ec5377" x="55.2" y="357.9465" style="stroke: #000000; stroke-width: 0.8"/>
      </g>
     </g>
     <g id="text_11">
      <!-- 600 -->
      <g transform="translate(30.2 362.0715) scale(0.12 -0.12)">
       <defs>
        <path id="SimHei-36" d="M 250 1612 
Q 275 1975 387 2225 
Q 500 2475 725 2850 
L 1750 4450 
L 2325 4450 
L 1275 2800 
Q 1950 2975 2350 2750 
Q 2750 2525 2887 2237 
Q 3025 1950 3037 1612 
Q 3050 1275 2937 950 
Q 2825 625 2537 362 
Q 2250 100 1737 75 
Q 1225 50 862 262 
Q 500 475 362 862 
Q 225 1250 250 1612 
z
M 1025 787 
Q 1250 550 1625 525 
Q 2000 500 2250 775 
Q 2500 1050 2500 1575 
Q 2500 2100 2187 2300 
Q 1875 2500 1487 2450 
Q 1100 2400 925 2075 
Q 750 1750 775 1387 
Q 800 1025 1025 787 
z
" transform="scale(0.015625)"/>
       </defs>
       <use xlink:href="#SimHei-36"/>
       <use xlink:href="#SimHei-30" transform="translate(50 0)"/>
       <use xlink:href="#SimHei-30" transform="translate(100 0)"/>
      </g>
     </g>
    </g>
    <g id="ytick_2">
     <g id="line2d_21">
      <path d="M 55.2 292.420401 
L 705.79 292.420401 
" clip-path="url(#pae103a5fc1)" style="fill: none; stroke: #b0b0b0; stroke-opacity: 0.3; stroke-width: 0.8; stroke-linecap: square"/>
     </g>
     <g id="line2d_22">
      <g>
       <use xlink:href="#m2980ec5377" x="55.2" y="292.420401" style="stroke: #000000; stroke-width: 0.8"/>
      </g>
     </g>
     <g id="text_12">
      <!-- 800 -->
      <g transform="translate(30.2 296.545401) scale(0.12 -0.12)">
       <defs>
        <path id="SimHei-38" d="M 175 1375 
Q 175 1675 325 1962 
Q 475 2250 825 2425 
Q 525 2600 425 2812 
Q 325 3025 312 3300 
Q 300 3575 387 3775 
Q 475 3975 650 4150 
Q 825 4325 1037 4387 
Q 1250 4450 1500 4450 
Q 1750 4450 1950 4400 
Q 2150 4350 2375 4187 
Q 2600 4025 2700 3725 
Q 2800 3425 2687 3025 
Q 2575 2625 2100 2400 
Q 2525 2275 2700 2012 
Q 2875 1750 2875 1375 
Q 2875 1000 2762 775 
Q 2650 550 2512 400 
Q 2375 250 2137 162 
Q 1900 75 1537 75 
Q 1175 75 912 162 
Q 650 250 475 425 
Q 300 600 237 837 
Q 175 1075 175 1375 
z
M 687 1400 
Q 675 1100 787 875 
Q 900 650 1200 587 
Q 1500 525 1825 600 
Q 2150 675 2275 950 
Q 2400 1225 2362 1500 
Q 2325 1775 2050 1962 
Q 1775 2150 1450 2125 
Q 1125 2100 912 1900 
Q 700 1700 687 1400 
z
M 775 3350 
Q 775 3100 950 2875 
Q 1125 2650 1500 2650 
Q 1875 2650 2062 2875 
Q 2250 3100 2237 3412 
Q 2225 3725 2012 3875 
Q 1800 4025 1437 4000 
Q 1075 3975 925 3787 
Q 775 3600 775 3350 
z
" transform="scale(0.015625)"/>
       </defs>
       <use xlink:href="#SimHei-38"/>
       <use xlink:href="#SimHei-30" transform="translate(50 0)"/>
       <use xlink:href="#SimHei-30" transform="translate(100 0)"/>
      </g>
     </g>
    </g>
    <g id="ytick_3">
     <g id="line2d_23">
      <path d="M 55.2 226.894301 
L 705.79 226.894301 
" clip-path="url(#pae103a5fc1)" style="fill: none; stroke: #b0b0b0; stroke-opacity: 0.3; stroke-width: 0.8; stroke-linecap: square"/>
     </g>
     <g id="line2d_24">
      <g>
       <use xlink:href="#m2980ec5377" x="55.2" y="226.894301" style="stroke: #000000; stroke-width: 0.8"/>
      </g>
     </g>
     <g id="text_13">
      <!-- 1000 -->
      <g transform="translate(24.2 231.019301) scale(0.12 -0.12)">
       <use xlink:href="#SimHei-31"/>
       <use xlink:href="#SimHei-30" transform="translate(50 0)"/>
       <use xlink:href="#SimHei-30" transform="translate(100 0)"/>
       <use xlink:href="#SimHei-30" transform="translate(150 0)"/>
      </g>
     </g>
    </g>
    <g id="ytick_4">
     <g id="line2d_25">
      <path d="M 55.2 161.368202 
L 705.79 161.368202 
" clip-path="url(#pae103a5fc1)" style="fill: none; stroke: #b0b0b0; stroke-opacity: 0.3; stroke-width: 0.8; stroke-linecap: square"/>
     </g>
     <g id="line2d_26">
      <g>
       <use xlink:href="#m2980ec5377" x="55.2" y="161.368202" style="stroke: #000000; stroke-width: 0.8"/>
      </g>
     </g>
     <g id="text_14">
      <!-- 1200 -->
      <g transform="translate(24.2 165.493202) scale(0.12 -0.12)">
       <use xlink:href="#SimHei-31"/>
       <use xlink:href="#SimHei-32" transform="translate(50 0)"/>
       <use xlink:href="#SimHei-30" transform="translate(100 0)"/>
       <use xlink:href="#SimHei-30" transform="translate(150 0)"/>
      </g>
     </g>
    </g>
    <g id="ytick_5">
     <g id="line2d_27">
      <path d="M 55.2 95.842103 
L 705.79 95.842103 
" clip-path="url(#pae103a5fc1)" style="fill: none; stroke: #b0b0b0; stroke-opacity: 0.3; stroke-width: 0.8; stroke-linecap: square"/>
     </g>
     <g id="line2d_28">
      <g>
       <use xlink:href="#m2980ec5377" x="55.2" y="95.842103" style="stroke: #000000; stroke-width: 0.8"/>
      </g>
     </g>
     <g id="text_15">
      <!-- 1400 -->
      <g transform="translate(24.2 99.967103) scale(0.12 -0.12)">
       <use xlink:href="#SimHei-31"/>
       <use xlink:href="#SimHei-34" transform="translate(50 0)"/>
       <use xlink:href="#SimHei-30" transform="translate(100 0)"/>
       <use xlink:href="#SimHei-30" transform="translate(150 0)"/>
      </g>
     </g>
    </g>
    <g id="ytick_6">
     <g id="line2d_29">
      <path d="M 55.2 30.316004 
L 705.79 30.316004 
" clip-path="url(#pae103a5fc1)" style="fill: none; stroke: #b0b0b0; stroke-opacity: 0.3; stroke-width: 0.8; stroke-linecap: square"/>
     </g>
     <g id="line2d_30">
      <g>
       <use xlink:href="#m2980ec5377" x="55.2" y="30.316004" style="stroke: #000000; stroke-width: 0.8"/>
      </g>
     </g>
     <g id="text_16">
      <!-- 1600 -->
      <g transform="translate(24.2 34.441004) scale(0.12 -0.12)">
       <use xlink:href="#SimHei-31"/>
       <use xlink:href="#SimHei-36" transform="translate(50 0)"/>
       <use xlink:href="#SimHei-30" transform="translate(100 0)"/>
       <use xlink:href="#SimHei-30" transform="translate(150 0)"/>
      </g>
     </g>
    </g>
    <g id="text_17">
     <!-- Total Reward -->
     <g transform="translate(18.2 252.105) rotate(-90) scale(0.16 -0.16)">
      <defs>
       <path id="SimHei-54" d="M 2850 3925 
L 1850 3925 
L 1850 125 
L 1275 125 
L 1275 3925 
L 275 3925 
L 275 4400 
L 2850 4400 
L 2850 3925 
z
" transform="scale(0.015625)"/>
       <path id="SimHei-74" d="M 2750 200 
Q 2625 150 2462 112 
Q 2300 75 2025 75 
Q 1575 75 1300 325 
Q 1025 575 1025 1025 
L 1025 2525 
L 175 2525 
L 175 2925 
L 1025 2925 
L 1025 3900 
L 1525 3900 
L 1525 2925 
L 2550 2925 
L 2550 2525 
L 1525 2525 
L 1525 1000 
Q 1525 800 1625 662 
Q 1725 525 2000 525 
Q 2275 525 2450 575 
Q 2625 625 2750 700 
L 2750 200 
z
" transform="scale(0.015625)"/>
       <path id="SimHei-61" d="M 2875 125 
L 2275 125 
Q 2225 175 2200 262 
Q 2175 350 2175 475 
Q 2000 275 1750 175 
Q 1500 75 1225 75 
Q 825 75 550 275 
Q 275 475 275 850 
Q 275 1225 525 1450 
Q 775 1675 1300 1750 
Q 1650 1800 1912 1875 
Q 2175 1950 2175 2075 
Q 2175 2225 2062 2375 
Q 1950 2525 1575 2525 
Q 1275 2525 1137 2412 
Q 1000 2300 950 2100 
L 400 2100 
Q 450 2500 762 2737 
Q 1075 2975 1575 2975 
Q 2125 2975 2400 2725 
Q 2675 2475 2675 2025 
L 2675 650 
Q 2675 500 2725 375 
Q 2775 250 2875 125 
z
M 2175 1050 
L 2175 1550 
Q 2025 1500 1887 1462 
Q 1750 1425 1425 1375 
Q 1050 1325 937 1200 
Q 825 1075 825 900 
Q 825 750 937 637 
Q 1050 525 1275 525 
Q 1500 525 1762 650 
Q 2025 775 2175 1050 
z
" transform="scale(0.015625)"/>
       <path id="SimHei-6c" d="M 1825 125 
L 1325 125 
L 1325 4400 
L 1825 4400 
L 1825 125 
z
" transform="scale(0.015625)"/>
       <path id="SimHei-20" transform="scale(0.015625)"/>
       <path id="SimHei-52" d="M 3000 125 
L 2400 125 
L 1500 1975 
L 850 1975 
L 850 125 
L 275 125 
L 275 4400 
L 1525 4400 
Q 2125 4400 2500 4112 
Q 2875 3825 2875 3175 
Q 2875 2675 2625 2400 
Q 2375 2125 2050 2050 
L 3000 125 
z
M 2300 3175 
Q 2300 3525 2087 3725 
Q 1875 3925 1400 3925 
L 850 3925 
L 850 2450 
L 1550 2450 
Q 1850 2450 2075 2612 
Q 2300 2775 2300 3175 
z
" transform="scale(0.015625)"/>
       <path id="SimHei-77" d="M 3075 2925 
L 2450 75 
L 1975 75 
L 1575 2250 
L 1525 2250 
L 1125 75 
L 650 75 
L 25 2925 
L 550 2925 
L 875 1050 
L 925 1050 
L 1275 2925 
L 1825 2925 
L 2175 1050 
L 2225 1050 
L 2550 2925 
L 3075 2925 
z
" transform="scale(0.015625)"/>
       <path id="SimHei-72" d="M 2500 2425 
Q 2025 2500 1700 2287 
Q 1375 2075 1150 1550 
L 1150 125 
L 650 125 
L 650 2925 
L 1150 2925 
L 1150 2200 
Q 1375 2600 1712 2787 
Q 2050 2975 2500 2975 
L 2500 2425 
z
" transform="scale(0.015625)"/>
      </defs>
      <use xlink:href="#SimHei-54"/>
      <use xlink:href="#SimHei-6f" transform="translate(50 0)"/>
      <use xlink:href="#SimHei-74" transform="translate(100 0)"/>
      <use xlink:href="#SimHei-61" transform="translate(150 0)"/>
      <use xlink:href="#SimHei-6c" transform="translate(200 0)"/>
      <use xlink:href="#SimHei-20" transform="translate(250 0)"/>
      <use xlink:href="#SimHei-52" transform="translate(300 0)"/>
      <use xlink:href="#SimHei-65" transform="translate(350 0)"/>
      <use xlink:href="#SimHei-77" transform="translate(400 0)"/>
      <use xlink:href="#SimHei-61" transform="translate(450 0)"/>
      <use xlink:href="#SimHei-72" transform="translate(500 0)"/>
      <use xlink:href="#SimHei-64" transform="translate(550 0)"/>
     </g>
    </g>
   </g>
   <g id="line2d_31">
    <path d="M 84.772273 301.657843 
L 86.254592 288.481504 
L 87.736912 263.78422 
L 89.219231 243.786639 
L 93.666189 191.25935 
L 95.148509 175.898752 
L 96.630828 161.787739 
L 98.113148 149.389285 
L 101.077787 128.425707 
L 105.524745 107.663031 
L 108.489384 100.010112 
L 109.971703 99.420533 
L 111.454023 95.348269 
L 112.936342 89.250091 
L 115.900981 83.593052 
L 117.3833 81.649804 
L 118.86562 78.353619 
L 120.347939 74.407336 
L 123.312578 65.396158 
L 124.794897 64.221637 
L 126.277217 62.400104 
L 127.759536 60.005214 
L 129.241856 56.064056 
L 130.724175 54.347544 
L 132.206495 54.949942 
L 133.688814 53.710263 
L 135.171134 54.44848 
L 136.653453 53.257452 
L 138.135772 52.735406 
L 139.618092 50.40624 
L 141.100411 49.945654 
L 142.582731 48.682913 
L 144.06505 51.527477 
L 145.54737 51.536244 
L 147.029689 51.682998 
L 148.512008 50.440791 
L 149.994328 53.399708 
L 151.476647 53.116803 
L 152.958967 51.986481 
L 154.441286 52.180558 
L 155.923606 50.948701 
L 157.405925 50.71391 
L 158.888244 52.061789 
L 161.852883 54.342476 
L 163.335203 52.217126 
L 166.299842 52.176905 
L 169.264481 50.083602 
L 170.7468 50.023634 
L 172.229119 51.004488 
L 173.711439 49.515572 
L 175.193758 48.932631 
L 176.676078 51.645038 
L 178.158397 50.658982 
L 179.640717 49.113535 
L 181.123036 48.500766 
L 182.605355 49.412861 
L 184.087675 48.57224 
L 185.569994 53.117328 
L 187.052314 53.587238 
L 188.534633 54.2976 
L 190.016953 52.357152 
L 191.499272 53.355659 
L 192.981591 53.792987 
L 194.463911 53.771071 
L 195.94623 51.362887 
L 197.42855 49.498144 
L 198.910869 49.833899 
L 200.393189 50.042301 
L 201.875508 50.709634 
L 203.357828 52.886145 
L 204.840147 53.65221 
L 206.322466 55.687818 
L 207.804786 55.58649 
L 209.287105 53.046833 
L 210.769425 55.494679 
L 212.251744 57.127769 
L 213.734064 57.313967 
L 215.216383 56.416818 
L 216.698702 58.963917 
L 218.181022 55.115206 
L 219.663341 57.750375 
L 221.145661 58.689967 
L 222.62798 57.83646 
L 225.592619 57.340715 
L 227.074938 54.947667 
L 228.557258 57.064031 
L 230.039577 56.553843 
L 231.521897 53.551269 
L 233.004216 57.395948 
L 234.486536 55.784532 
L 235.968855 55.174594 
L 237.451175 55.549288 
L 238.933494 54.033177 
L 240.415813 53.42491 
L 241.898133 49.182856 
L 243.380452 47.808733 
L 244.862772 49.214836 
L 246.345091 51.100815 
L 247.827411 53.658452 
L 249.30973 53.912098 
L 250.792049 52.091296 
L 252.274369 51.530274 
L 253.756688 53.230286 
L 255.239008 53.112295 
L 256.721327 54.823277 
L 258.203647 52.1594 
L 259.685966 52.389361 
L 261.168285 51.286028 
L 262.650605 50.781962 
L 264.132924 53.005012 
L 265.615244 55.918762 
L 267.097563 52.749416 
L 268.579883 52.206074 
L 270.062202 52.555376 
L 271.544522 49.749606 
L 273.026841 50.702247 
L 275.99148 51.173123 
L 277.473799 48.517234 
L 278.956119 48.58279 
L 280.438438 48.766879 
L 281.920758 49.927643 
L 283.403077 52.021211 
L 284.885396 48.930808 
L 286.367716 49.050933 
L 287.850035 47.355887 
L 289.332355 48.876159 
L 290.814674 47.612487 
L 292.296994 49.444567 
L 293.779313 52.000679 
L 295.261632 54.246904 
L 296.743952 54.708334 
L 298.226271 53.723817 
L 299.708591 53.190669 
L 301.19091 52.86364 
L 302.67323 49.927293 
L 304.155549 50.695799 
L 305.637869 47.664047 
L 307.120188 49.859047 
L 308.602507 48.790662 
L 310.084827 53.159392 
L 311.567146 55.989507 
L 313.049466 55.443062 
L 314.531785 55.26247 
L 316.014105 56.122498 
L 317.496424 58.473632 
L 318.978743 55.877185 
L 320.461063 56.440847 
L 321.943382 57.948656 
L 323.425702 57.426109 
L 324.908021 55.816368 
L 326.390341 52.393201 
L 327.87266 53.429889 
L 329.354979 53.086347 
L 330.837299 54.937098 
L 332.319618 53.07743 
L 333.801938 52.633374 
L 335.284257 51.838153 
L 336.766577 53.820612 
L 338.248896 50.870046 
L 339.731216 50.986713 
L 341.213535 49.993965 
L 342.695854 49.431053 
L 344.178174 45.866935 
L 345.660493 45.650004 
L 347.142813 46.0014 
L 348.625132 46.167801 
L 350.107452 47.096684 
L 351.589771 46.513904 
L 353.07209 48.873379 
L 354.55441 51.990295 
L 356.036729 52.332607 
L 357.519049 52.415606 
L 360.483688 55.351474 
L 361.966007 55.2449 
L 363.448326 52.362724 
L 364.930646 50.038423 
L 366.412965 50.178539 
L 367.895285 48.771317 
L 369.377604 50.215375 
L 370.859924 50.484228 
L 372.342243 52.149385 
L 375.306882 54.369331 
L 376.789201 50.781438 
L 378.271521 47.910451 
L 379.75384 45.385942 
L 381.23616 46.886537 
L 382.718479 48.974659 
L 384.200799 50.094812 
L 385.683118 51.043421 
L 387.165437 49.093076 
L 390.130076 47.484811 
L 393.094715 48.977831 
L 394.577035 48.737116 
L 396.059354 45.352379 
L 397.541674 45.897796 
L 399.023993 48.077286 
L 400.506312 50.756539 
L 403.470951 52.56956 
L 406.43559 51.631405 
L 407.91791 51.691219 
L 409.400229 53.108058 
L 410.882548 53.444927 
L 412.364868 54.71417 
L 413.847187 55.821447 
L 415.329507 55.505183 
L 416.811826 54.656699 
L 418.294146 52.404784 
L 419.776465 52.713768 
L 421.258784 51.775173 
L 422.741104 51.273794 
L 424.223423 53.246234 
L 425.705743 54.253618 
L 427.188062 52.864155 
L 428.670382 52.00813 
L 430.152701 54.668759 
L 431.635021 54.85153 
L 433.11734 56.443123 
L 434.599659 56.501381 
L 436.081979 54.783351 
L 437.564298 55.53838 
L 439.046618 53.142705 
L 440.528937 52.043867 
L 442.011257 52.862213 
L 443.493576 51.897042 
L 444.975895 50.395005 
L 446.458215 51.828513 
L 447.940534 51.860146 
L 450.905173 46.532247 
L 452.387493 46.143755 
L 453.869812 46.706341 
L 455.352131 46.318267 
L 456.834451 47.567194 
L 458.31677 51.356472 
L 459.79909 53.842913 
L 461.281409 51.461423 
L 462.763729 51.57301 
L 464.246048 49.683928 
L 465.728368 49.121573 
L 467.210687 51.120812 
L 468.693006 51.975418 
L 470.175326 51.97745 
L 471.657645 50.758602 
L 473.139965 52.080849 
L 474.622284 51.55705 
L 477.586923 57.950085 
L 479.069242 57.090296 
L 480.551562 57.232881 
L 482.033881 56.262886 
L 483.516201 56.495668 
L 484.99852 58.730706 
L 486.48084 56.747565 
L 487.963159 57.90492 
L 489.445478 53.493217 
L 490.927798 56.143487 
L 492.410117 55.513233 
L 493.892437 54.530271 
L 495.374756 50.90699 
L 496.857076 49.56643 
L 498.339395 49.349489 
L 499.821715 49.626237 
L 501.304034 48.860625 
L 502.786353 47.234629 
L 504.268673 48.123518 
L 505.750992 45.591331 
L 507.233312 44.512672 
L 508.715631 45.473812 
L 510.197951 44.934342 
L 511.68027 46.989237 
L 513.162589 47.119161 
L 514.644909 49.225865 
L 516.127228 50.809582 
L 517.609548 53.208621 
L 519.091867 54.978503 
L 520.574187 52.975911 
L 522.056506 53.62029 
L 523.538825 55.500639 
L 525.021145 54.347763 
L 526.503464 57.713552 
L 527.985784 57.239208 
L 529.468103 57.258758 
L 530.950423 55.486392 
L 532.432742 54.167873 
L 533.915062 53.029682 
L 536.8797 51.621518 
L 538.36202 53.257656 
L 539.844339 52.672522 
L 541.326659 51.877009 
L 542.808978 54.369084 
L 544.291298 52.625045 
L 545.773617 49.444048 
L 547.255936 48.646404 
L 548.738256 48.484354 
L 550.220575 50.044217 
L 551.702895 50.359825 
L 553.185214 53.067661 
L 556.149853 52.426622 
L 557.632172 52.266407 
L 559.114492 53.385804 
L 560.596811 52.778299 
L 562.079131 52.637343 
L 563.56145 50.65815 
L 565.04377 53.260879 
L 566.526089 53.767238 
L 568.008409 52.079504 
L 569.490728 50.933595 
L 570.973047 51.81857 
L 572.455367 51.375505 
L 573.937686 52.584807 
L 575.420006 51.261582 
L 576.902325 48.346147 
L 578.384645 49.19977 
L 579.866964 49.896358 
L 581.349283 51.233462 
L 585.796242 49.77118 
L 587.278561 48.655264 
L 588.760881 47.949278 
L 590.2432 44.924969 
L 591.725519 43.641286 
L 593.207839 45.452476 
L 594.690158 45.662877 
L 596.172478 48.081021 
L 597.654797 47.697459 
L 599.137117 46.877718 
L 600.619436 47.101924 
L 602.101756 46.117046 
L 605.066394 46.830176 
L 606.548714 45.00353 
L 608.031033 45.820602 
L 609.513353 46.061516 
L 610.995672 49.98847 
L 612.477992 50.435147 
L 613.960311 48.034555 
L 615.44263 46.192717 
L 616.92495 47.214774 
L 618.407269 47.939677 
L 619.889589 48.080469 
L 621.371908 47.467031 
L 622.854228 46.615224 
L 624.336547 47.271817 
L 625.818866 47.358361 
L 627.301186 47.160682 
L 628.783505 46.830879 
L 630.265825 46.848465 
L 631.748144 45.557138 
L 633.230464 45.374137 
L 634.712783 46.030369 
L 636.195103 44.992362 
L 637.677422 43.489847 
L 639.159741 45.275695 
L 640.642061 47.327721 
L 642.12438 49.944435 
L 643.6067 48.162298 
L 645.089019 48.102892 
L 646.571339 48.5547 
L 648.053658 48.718457 
L 649.535977 50.205796 
L 651.018297 51.20284 
L 652.500616 51.517406 
L 655.465255 56.180145 
L 656.947575 53.762203 
L 658.429894 52.117377 
L 659.912213 51.328724 
L 661.394533 49.870612 
L 662.876852 50.577933 
L 664.359172 51.816873 
L 665.841491 50.273487 
L 667.323811 54.121798 
L 668.80613 56.114966 
L 670.28845 56.446177 
L 671.770769 56.261977 
L 673.253088 57.491324 
L 674.735408 56.466829 
L 676.217727 54.645181 
L 676.217727 54.645181 
" clip-path="url(#pae103a5fc1)" style="fill: none; stroke: #1f77b4; stroke-width: 1.5; stroke-linecap: square"/>
   </g>
   <g id="line2d_32">
    <path d="M 84.772273 197.003634 
L 86.254592 220.164453 
L 87.736912 230.329329 
L 89.219231 238.464578 
L 90.70155 244.376908 
L 92.18387 257.135546 
L 93.666189 265.903572 
L 95.148509 284.043718 
L 96.630828 305.49964 
L 98.113148 310.625148 
L 99.595467 307.870452 
L 101.077787 308.442236 
L 102.560106 313.615647 
L 104.042425 316.597074 
L 105.524745 321.062784 
L 107.007064 315.398022 
L 108.489384 318.550875 
L 109.971703 323.437533 
L 111.454023 320.462372 
L 112.936342 333.262235 
L 114.418661 329.938987 
L 115.900981 333.381803 
L 117.3833 331.37316 
L 118.86562 344.32938 
L 120.347939 335.43617 
L 121.830259 353.516594 
L 123.312578 347.523628 
L 124.794897 347.572769 
L 126.277217 354.129948 
L 127.759536 349.248375 
L 129.241856 361.000688 
L 130.724175 360.342691 
L 132.206495 344.679143 
L 133.688814 345.728332 
L 135.171134 343.419391 
L 136.653453 350.932846 
L 138.135772 350.240712 
L 139.618092 357.353189 
L 141.100411 350.341029 
L 142.582731 355.585149 
L 144.06505 356.574556 
L 145.54737 365.642591 
L 147.029689 367.541364 
L 148.512008 355.740658 
L 149.994328 323.961394 
L 151.476647 296.576584 
L 154.441286 249.133127 
L 157.405925 212.249681 
L 158.888244 194.942096 
L 160.370564 179.23137 
L 163.335203 154.991376 
L 164.817522 144.446868 
L 166.299842 131.755691 
L 167.782161 122.18605 
L 169.264481 116.999202 
L 170.7468 111.352692 
L 172.229119 104.931288 
L 173.711439 97.969677 
L 175.193758 91.892078 
L 176.676078 87.379672 
L 178.158397 83.473828 
L 179.640717 78.507914 
L 181.123036 78.989266 
L 182.605355 76.481984 
L 184.087675 72.917205 
L 185.569994 70.188398 
L 187.052314 68.990336 
L 188.534633 69.282877 
L 190.016953 66.355011 
L 191.499272 60.87475 
L 194.463911 61.166346 
L 195.94623 59.600587 
L 197.42855 58.999132 
L 198.910869 59.798968 
L 200.393189 57.494651 
L 201.875508 56.642185 
L 203.357828 58.369669 
L 204.840147 54.261875 
L 206.322466 54.780258 
L 207.804786 56.115483 
L 209.287105 56.009959 
L 210.769425 53.019913 
L 212.251744 55.733681 
L 213.734064 53.675822 
L 215.216383 56.543242 
L 216.698702 58.29741 
L 218.181022 55.454516 
L 219.663341 54.153121 
L 221.145661 53.337319 
L 222.62798 50.603782 
L 224.1103 49.116079 
L 225.592619 49.174591 
L 227.074938 51.344849 
L 228.557258 51.536599 
L 230.039577 49.851162 
L 231.521897 49.057839 
L 233.004216 48.842421 
L 234.486536 47.825168 
L 235.968855 47.995828 
L 237.451175 49.873803 
L 238.933494 46.3538 
L 240.415813 47.319999 
L 241.898133 46.978743 
L 243.380452 48.240842 
L 244.862772 48.792451 
L 246.345091 49.748061 
L 247.827411 49.197834 
L 249.30973 50.19534 
L 250.792049 47.924147 
L 252.274369 47.502748 
L 253.756688 50.37225 
L 255.239008 51.073551 
L 256.721327 49.311405 
L 258.203647 53.233159 
L 259.685966 53.658262 
L 261.168285 55.426393 
L 262.650605 53.771771 
L 264.132924 55.112633 
L 265.615244 56.007442 
L 267.097563 55.315323 
L 268.579883 55.608455 
L 270.062202 58.294598 
L 271.544522 58.815151 
L 273.026841 60.61578 
L 274.50916 59.455863 
L 275.99148 59.316444 
L 277.473799 58.142309 
L 278.956119 59.179496 
L 280.438438 57.106317 
L 281.920758 52.541515 
L 284.885396 49.234107 
L 286.367716 48.810643 
L 287.850035 48.067086 
L 289.332355 47.843249 
L 290.814674 48.452198 
L 293.779313 44.766697 
L 295.261632 43.362512 
L 296.743952 43.530018 
L 298.226271 43.101407 
L 299.708591 44.243487 
L 301.19091 44.709068 
L 302.67323 44.82401 
L 304.155549 48.241274 
L 305.637869 45.581659 
L 307.120188 45.827143 
L 308.602507 46.520782 
L 310.084827 48.793626 
L 311.567146 49.835582 
L 313.049466 50.238705 
L 314.531785 52.077856 
L 316.014105 52.055442 
L 317.496424 53.742601 
L 318.978743 51.185893 
L 320.461063 52.939751 
L 321.943382 51.717593 
L 323.425702 51.228072 
L 326.390341 52.444117 
L 327.87266 49.834485 
L 329.354979 51.626127 
L 330.837299 49.627814 
L 332.319618 47.110538 
L 333.801938 46.484402 
L 335.284257 47.420262 
L 336.766577 45.985216 
L 339.731216 47.657873 
L 341.213535 49.533542 
L 342.695854 51.009149 
L 344.178174 53.116875 
L 345.660493 54.998586 
L 347.142813 52.506746 
L 348.625132 54.171144 
L 350.107452 56.636799 
L 351.589771 55.689938 
L 353.07209 53.111926 
L 354.55441 52.621108 
L 356.036729 51.169915 
L 357.519049 49.962477 
L 359.001368 53.181632 
L 360.483688 56.039989 
L 361.966007 57.029015 
L 363.448326 56.949362 
L 364.930646 54.095744 
L 366.412965 56.014651 
L 367.895285 54.897704 
L 369.377604 53.410215 
L 370.859924 53.420518 
L 372.342243 52.656327 
L 373.824563 52.043379 
L 375.306882 52.224203 
L 376.789201 52.267058 
L 378.271521 51.912907 
L 379.75384 51.417184 
L 381.23616 50.266052 
L 382.718479 49.47301 
L 384.200799 49.261096 
L 385.683118 49.300432 
L 388.647757 50.848195 
L 391.612396 49.348939 
L 393.094715 49.070918 
L 394.577035 53.091953 
L 396.059354 52.783084 
L 397.541674 51.061519 
L 399.023993 51.543654 
L 401.988632 45.051197 
L 403.470951 43.047688 
L 404.953271 42.896193 
L 406.43559 43.236358 
L 407.91791 40.668636 
L 409.400229 43.580341 
L 410.882548 45.265401 
L 412.364868 46.771721 
L 413.847187 44.944167 
L 415.329507 45.984709 
L 416.811826 47.200452 
L 418.294146 44.608528 
L 419.776465 45.467909 
L 421.258784 47.419058 
L 422.741104 49.608643 
L 424.223423 50.923013 
L 425.705743 51.859218 
L 428.670382 50.438252 
L 430.152701 49.216798 
L 431.635021 50.384676 
L 433.11734 50.687014 
L 434.599659 48.415439 
L 436.081979 47.223518 
L 437.564298 46.961409 
L 439.046618 49.64138 
L 440.528937 50.051672 
L 442.011257 51.875525 
L 443.493576 49.712498 
L 444.975895 50.193607 
L 446.458215 50.406793 
L 447.940534 49.149203 
L 449.422854 47.674847 
L 450.905173 47.205565 
L 452.387493 47.604449 
L 453.869812 50.625115 
L 455.352131 49.951915 
L 456.834451 50.597146 
L 458.31677 50.351312 
L 459.79909 47.774542 
L 461.281409 47.916666 
L 462.763729 47.566909 
L 464.246048 48.212593 
L 465.728368 47.647699 
L 467.210687 49.68348 
L 468.693006 53.402913 
L 470.175326 55.692879 
L 471.657645 56.311302 
L 473.139965 55.973477 
L 474.622284 56.294245 
L 476.104604 54.334064 
L 477.586923 53.697978 
L 479.069242 55.28404 
L 480.551562 56.124602 
L 482.033881 55.772293 
L 483.516201 52.258092 
L 484.99852 54.040774 
L 486.48084 52.643096 
L 487.963159 53.869006 
L 489.445478 52.345146 
L 490.927798 52.095522 
L 492.410117 52.849245 
L 493.892437 52.079279 
L 495.374756 52.21559 
L 496.857076 50.572929 
L 499.821715 50.150356 
L 501.304034 47.622651 
L 502.786353 48.281543 
L 504.268673 45.674889 
L 505.750992 45.529103 
L 507.233312 44.855583 
L 508.715631 44.516954 
L 510.197951 44.391466 
L 511.68027 45.916005 
L 513.162589 46.996622 
L 514.644909 49.934442 
L 516.127228 50.919722 
L 517.609548 53.066322 
L 520.574187 50.425941 
L 522.056506 52.277147 
L 523.538825 51.382202 
L 525.021145 52.063945 
L 526.503464 55.159136 
L 527.985784 52.477646 
L 529.468103 52.618453 
L 530.950423 50.45473 
L 532.432742 51.742827 
L 533.915062 50.889046 
L 535.397381 52.411943 
L 536.8797 52.1254 
L 538.36202 50.403098 
L 539.844339 51.294816 
L 541.326659 53.28524 
L 542.808978 51.036422 
L 544.291298 50.472603 
L 545.773617 50.349536 
L 547.255936 51.764195 
L 548.738256 53.547828 
L 551.702895 55.357072 
L 553.185214 55.311504 
L 554.667534 54.547639 
L 556.149853 54.243058 
L 557.632172 52.299258 
L 559.114492 52.156088 
L 560.596811 50.655943 
L 562.079131 51.212958 
L 563.56145 49.259716 
L 565.04377 51.063816 
L 566.526089 50.595171 
L 568.008409 48.715167 
L 569.490728 47.870545 
L 570.973047 49.4147 
L 572.455367 50.502339 
L 573.937686 52.796196 
L 575.420006 48.639941 
L 576.902325 50.855983 
L 578.384645 51.204874 
L 579.866964 50.580401 
L 581.349283 50.900634 
L 582.831603 49.383234 
L 584.313922 47.706114 
L 585.796242 47.598989 
L 588.760881 47.106196 
L 591.725519 45.425237 
L 593.207839 45.195522 
L 596.172478 45.905329 
L 597.654797 47.422134 
L 599.137117 47.915359 
L 602.101756 49.318187 
L 603.584075 47.76303 
L 605.066394 49.622134 
L 606.548714 52.33754 
L 608.031033 53.60699 
L 609.513353 51.40254 
L 610.995672 49.654622 
L 612.477992 51.272886 
L 613.960311 50.62077 
L 615.44263 48.113917 
L 616.92495 46.65298 
L 618.407269 48.912598 
L 619.889589 49.916991 
L 621.371908 50.567692 
L 622.854228 50.409201 
L 624.336547 49.987054 
L 625.818866 50.564469 
L 627.301186 50.412944 
L 630.265825 51.678705 
L 631.748144 49.850403 
L 633.230464 49.907821 
L 634.712783 49.427619 
L 636.195103 48.291962 
L 637.677422 45.551039 
L 639.159741 45.66747 
L 640.642061 49.318116 
L 642.12438 50.38837 
L 643.6067 49.39915 
L 645.089019 47.735657 
L 646.571339 48.44787 
L 648.053658 49.670837 
L 649.535977 48.076999 
L 651.018297 47.026295 
L 652.500616 45.140256 
L 653.982936 46.02989 
L 655.465255 46.127824 
L 656.947575 48.096662 
L 659.912213 48.636843 
L 661.394533 49.865524 
L 662.876852 50.295152 
L 664.359172 49.44639 
L 665.841491 50.574542 
L 667.323811 49.812385 
L 668.80613 48.518192 
L 670.28845 49.75435 
L 671.770769 52.028072 
L 673.253088 51.850145 
L 674.735408 52.832641 
L 676.217727 54.667124 
L 676.217727 54.667124 
" clip-path="url(#pae103a5fc1)" style="fill: none; stroke: #ff7f0e; stroke-width: 1.5; stroke-linecap: square"/>
   </g>
   <g id="line2d_33">
    <path d="M 84.772273 243.678535 
L 86.254592 239.275259 
L 87.736912 238.593773 
L 90.70155 217.86858 
L 92.18387 215.10339 
L 93.666189 210.78982 
L 95.148509 201.81262 
L 96.630828 194.659106 
L 98.113148 184.783751 
L 99.595467 174.087866 
L 101.077787 167.422303 
L 104.042425 146.394652 
L 105.524745 141.753183 
L 107.007064 134.891062 
L 108.489384 127.128562 
L 109.971703 122.25271 
L 111.454023 119.779432 
L 112.936342 109.578737 
L 115.900981 97.889877 
L 117.3833 94.435227 
L 118.86562 88.342449 
L 120.347939 84.532302 
L 121.830259 81.49909 
L 123.312578 76.980937 
L 124.794897 73.644746 
L 126.277217 70.812389 
L 129.241856 68.869583 
L 130.724175 67.329542 
L 132.206495 65.622112 
L 133.688814 64.311585 
L 135.171134 63.448688 
L 136.653453 60.637959 
L 138.135772 58.471041 
L 139.618092 55.937761 
L 141.100411 54.300748 
L 142.582731 54.791282 
L 144.06505 53.098694 
L 145.54737 52.090017 
L 147.029689 52.447536 
L 148.512008 51.757975 
L 149.994328 51.550827 
L 151.476647 49.900354 
L 152.958967 49.87795 
L 155.923606 54.715009 
L 157.405925 54.327648 
L 158.888244 51.662966 
L 160.370564 51.329479 
L 161.852883 51.376958 
L 163.335203 48.737915 
L 164.817522 47.022346 
L 166.299842 47.72815 
L 167.782161 46.748564 
L 169.264481 46.598227 
L 172.229119 51.022799 
L 173.711439 50.82832 
L 175.193758 49.695926 
L 176.676078 51.333692 
L 178.158397 49.957946 
L 179.640717 46.698458 
L 181.123036 44.61242 
L 182.605355 44.461171 
L 184.087675 43.360572 
L 185.569994 45.531619 
L 187.052314 48.111575 
L 188.534633 46.508059 
L 190.016953 46.947934 
L 191.499272 46.098756 
L 192.981591 45.829582 
L 194.463911 45.371831 
L 195.94623 45.846475 
L 197.42855 46.091016 
L 198.910869 48.805491 
L 200.393189 47.425318 
L 201.875508 48.558201 
L 203.357828 47.826088 
L 204.840147 49.468877 
L 206.322466 47.840877 
L 207.804786 50.748164 
L 209.287105 52.174973 
L 210.769425 52.217716 
L 212.251744 49.930791 
L 213.734064 49.056148 
L 216.698702 51.989257 
L 218.181022 51.689558 
L 219.663341 53.158044 
L 221.145661 53.267871 
L 222.62798 52.623104 
L 225.592619 49.807762 
L 227.074938 48.665816 
L 228.557258 50.869101 
L 230.039577 52.865584 
L 231.521897 52.421666 
L 233.004216 51.555035 
L 234.486536 52.661922 
L 235.968855 52.893921 
L 237.451175 51.192194 
L 238.933494 49.905824 
L 240.415813 52.739544 
L 241.898133 51.204806 
L 243.380452 52.737849 
L 244.862772 52.720297 
L 246.345091 55.180215 
L 247.827411 56.456816 
L 249.30973 55.395714 
L 250.792049 55.834762 
L 252.274369 53.114574 
L 253.756688 55.489077 
L 255.239008 54.753595 
L 256.721327 55.647941 
L 258.203647 52.416509 
L 259.685966 51.434452 
L 261.168285 53.003203 
L 262.650605 51.377427 
L 264.132924 51.169848 
L 265.615244 51.090473 
L 267.097563 51.904182 
L 268.579883 51.531832 
L 270.062202 50.075837 
L 271.544522 49.764026 
L 273.026841 49.272026 
L 274.50916 49.922415 
L 275.99148 50.699007 
L 277.473799 52.237701 
L 278.956119 52.11792 
L 280.438438 54.871356 
L 281.920758 54.506809 
L 283.403077 54.77822 
L 284.885396 52.980885 
L 286.367716 52.37846 
L 287.850035 52.763719 
L 289.332355 55.785685 
L 290.814674 54.733246 
L 292.296994 55.447682 
L 293.779313 57.777805 
L 295.261632 54.600298 
L 296.743952 52.006206 
L 298.226271 48.00921 
L 299.708591 50.60508 
L 301.19091 50.106534 
L 302.67323 48.018652 
L 305.637869 49.15761 
L 307.120188 49.193315 
L 308.602507 50.217652 
L 310.084827 50.196502 
L 311.567146 49.76491 
L 313.049466 48.018441 
L 314.531785 51.679113 
L 316.014105 50.325182 
L 317.496424 48.454867 
L 318.978743 47.918219 
L 321.943382 51.576531 
L 323.425702 52.875775 
L 324.908021 53.742282 
L 326.390341 53.14955 
L 327.87266 55.198677 
L 330.837299 54.623765 
L 332.319618 55.351722 
L 333.801938 54.074507 
L 335.284257 53.668028 
L 336.766577 56.26157 
L 338.248896 54.645752 
L 339.731216 53.359717 
L 341.213535 54.551777 
L 342.695854 55.240755 
L 344.178174 53.729072 
L 345.660493 53.830423 
L 347.142813 52.439931 
L 348.625132 50.752239 
L 350.107452 50.957414 
L 351.589771 50.608273 
L 353.07209 51.814178 
L 354.55441 53.554163 
L 356.036729 52.782855 
L 357.519049 52.308305 
L 359.001368 50.085191 
L 360.483688 49.836205 
L 361.966007 49.88853 
L 363.448326 52.149238 
L 364.930646 50.2936 
L 366.412965 49.683891 
L 367.895285 50.751825 
L 369.377604 46.29227 
L 370.859924 47.046465 
L 372.342243 45.885628 
L 373.824563 46.550889 
L 375.306882 48.037407 
L 376.789201 47.959366 
L 378.271521 49.249 
L 379.75384 48.497839 
L 381.23616 48.277579 
L 382.718479 49.302365 
L 384.200799 50.763281 
L 385.683118 50.003178 
L 387.165437 51.269683 
L 388.647757 51.131428 
L 391.612396 48.499818 
L 393.094715 49.161058 
L 394.577035 49.590653 
L 397.541674 49.609232 
L 399.023993 52.93635 
L 400.506312 49.07697 
L 401.988632 48.760718 
L 403.470951 50.228161 
L 404.953271 45.952808 
L 406.43559 47.391906 
L 407.91791 48.512061 
L 409.400229 47.771341 
L 410.882548 47.874868 
L 412.364868 45.754631 
L 413.847187 45.610303 
L 415.329507 46.035839 
L 416.811826 46.909751 
L 418.294146 47.971663 
L 419.776465 47.924968 
L 421.258784 48.892573 
L 422.741104 48.487056 
L 424.223423 50.135764 
L 425.705743 49.425645 
L 427.188062 49.478937 
L 428.670382 47.891788 
L 430.152701 46.834246 
L 431.635021 46.160514 
L 433.11734 43.512646 
L 434.599659 44.293245 
L 436.081979 47.093624 
L 437.564298 47.796555 
L 439.046618 48.159795 
L 440.528937 47.77709 
L 442.011257 48.160014 
L 443.493576 47.722129 
L 444.975895 45.302865 
L 446.458215 48.265356 
L 447.940534 47.227913 
L 449.422854 49.145558 
L 450.905173 50.066213 
L 452.387493 48.079225 
L 453.869812 48.958777 
L 456.834451 45.031572 
L 458.31677 43.445481 
L 459.79909 44.666245 
L 461.281409 43.550715 
L 462.763729 44.476929 
L 464.246048 45.654132 
L 465.728368 46.978288 
L 467.210687 45.670862 
L 468.693006 44.555465 
L 470.175326 48.088529 
L 471.657645 49.268984 
L 473.139965 49.961468 
L 474.622284 49.70869 
L 476.104604 50.869102 
L 477.586923 50.832286 
L 479.069242 51.9491 
L 480.551562 53.235381 
L 482.033881 52.441661 
L 483.516201 52.75859 
L 484.99852 51.810902 
L 486.48084 51.899235 
L 487.963159 49.682365 
L 489.445478 51.450128 
L 490.927798 53.515872 
L 492.410117 54.159837 
L 493.892437 55.012882 
L 495.374756 52.484842 
L 496.857076 50.896267 
L 498.339395 50.424389 
L 499.821715 46.878525 
L 501.304034 48.543038 
L 502.786353 49.983919 
L 504.268673 47.128392 
L 505.750992 47.312819 
L 507.233312 47.996401 
L 508.715631 47.879798 
L 510.197951 47.126111 
L 511.68027 46.85923 
L 513.162589 49.809984 
L 514.644909 49.913723 
L 516.127228 52.782807 
L 519.091867 56.240084 
L 520.574187 56.134506 
L 522.056506 55.332254 
L 523.538825 56.172217 
L 526.503464 58.286436 
L 527.985784 57.817093 
L 529.468103 57.847813 
L 530.950423 56.886256 
L 532.432742 55.474532 
L 533.915062 56.810837 
L 535.397381 57.609892 
L 536.8797 54.689017 
L 538.36202 53.14575 
L 539.844339 53.606163 
L 541.326659 54.501321 
L 542.808978 52.536937 
L 544.291298 50.869044 
L 545.773617 47.387485 
L 547.255936 47.459003 
L 548.738256 45.857451 
L 550.220575 47.520154 
L 551.702895 46.118989 
L 553.185214 46.301765 
L 554.667534 45.771478 
L 556.149853 49.586238 
L 559.114492 47.542867 
L 560.596811 48.460851 
L 562.079131 50.782505 
L 563.56145 50.855701 
L 565.04377 47.552937 
L 566.526089 48.71902 
L 568.008409 48.557511 
L 569.490728 50.731307 
L 570.973047 51.246203 
L 572.455367 47.742878 
L 573.937686 48.70901 
L 575.420006 48.072562 
L 576.902325 48.965178 
L 578.384645 46.060788 
L 579.866964 45.374466 
L 581.349283 47.51091 
L 582.831603 51.272249 
L 584.313922 49.880516 
L 585.796242 49.244848 
L 587.278561 50.404949 
L 588.760881 49.971494 
L 590.2432 49.817286 
L 591.725519 51.871942 
L 593.207839 52.812294 
L 594.690158 51.13852 
L 596.172478 51.145292 
L 597.654797 54.001341 
L 599.137117 53.407574 
L 600.619436 51.643223 
L 602.101756 50.186126 
L 603.584075 50.508614 
L 605.066394 49.937255 
L 606.548714 51.95003 
L 608.031033 52.610068 
L 609.513353 51.125989 
L 610.995672 50.006036 
L 612.477992 51.505946 
L 615.44263 51.583711 
L 616.92495 54.047843 
L 619.889589 55.027714 
L 621.371908 52.740234 
L 622.854228 51.858811 
L 624.336547 51.116314 
L 625.818866 50.937897 
L 627.301186 53.3653 
L 628.783505 52.902005 
L 630.265825 50.924839 
L 631.748144 49.293663 
L 634.712783 47.488227 
L 636.195103 48.837716 
L 637.677422 46.758078 
L 639.159741 45.958286 
L 640.642061 44.193818 
L 643.6067 43.313914 
L 645.089019 43.615864 
L 646.571339 44.355527 
L 651.018297 47.7187 
L 652.500616 49.127871 
L 653.982936 49.558703 
L 655.465255 49.666297 
L 658.429894 49.022559 
L 659.912213 49.876018 
L 661.394533 51.232315 
L 662.876852 51.690132 
L 664.359172 48.247974 
L 665.841491 47.396431 
L 667.323811 44.912846 
L 668.80613 49.133976 
L 670.28845 48.52168 
L 671.770769 50.840738 
L 673.253088 53.919816 
L 674.735408 52.430896 
L 676.217727 54.188234 
L 676.217727 54.188234 
" clip-path="url(#pae103a5fc1)" style="fill: none; stroke: #2ca02c; stroke-width: 1.5; stroke-linecap: square"/>
   </g>
   <g id="line2d_34">
    <path d="M 84.772273 243.678535 
L 86.254592 236.327737 
L 87.736912 226.102611 
L 89.219231 220.396168 
L 90.70155 215.132344 
L 92.18387 207.992069 
L 93.666189 197.33401 
L 96.630828 172.467148 
L 98.113148 164.31237 
L 99.595467 152.999902 
L 101.077787 143.770162 
L 102.560106 133.798766 
L 105.524745 118.079717 
L 108.489384 105.319169 
L 109.971703 99.473487 
L 111.454023 92.370073 
L 112.936342 87.986766 
L 114.418661 83.991629 
L 115.900981 81.601972 
L 117.3833 79.6545 
L 118.86562 74.843063 
L 120.347939 71.018409 
L 121.830259 68.13662 
L 123.312578 64.655475 
L 124.794897 60.677405 
L 126.277217 59.216787 
L 127.759536 60.525332 
L 129.241856 58.347226 
L 130.724175 56.760895 
L 132.206495 55.943564 
L 133.688814 56.717695 
L 135.171134 56.354349 
L 136.653453 55.689397 
L 138.135772 58.231676 
L 139.618092 59.856931 
L 141.100411 60.80684 
L 142.582731 57.371931 
L 144.06505 55.175667 
L 145.54737 52.002442 
L 147.029689 55.720559 
L 148.512008 51.237767 
L 149.994328 50.134729 
L 151.476647 51.202019 
L 152.958967 50.47178 
L 154.441286 49.889568 
L 155.923606 49.696032 
L 157.405925 51.859351 
L 158.888244 50.69542 
L 160.370564 50.849774 
L 161.852883 49.133576 
L 163.335203 50.784221 
L 164.817522 48.898943 
L 166.299842 45.842089 
L 167.782161 45.090926 
L 169.264481 43.639761 
L 170.7468 45.54534 
L 172.229119 48.306915 
L 173.711439 51.747452 
L 175.193758 51.368057 
L 176.676078 51.754678 
L 179.640717 48.908566 
L 181.123036 50.724479 
L 182.605355 49.350205 
L 184.087675 49.675428 
L 185.569994 49.80078 
L 187.052314 46.423264 
L 188.534633 49.331652 
L 190.016953 48.751957 
L 191.499272 48.005568 
L 192.981591 45.301046 
L 194.463911 43.880964 
L 195.94623 45.294919 
L 197.42855 43.085503 
L 198.910869 44.121639 
L 200.393189 43.598335 
L 201.875508 46.264655 
L 203.357828 46.06622 
L 204.840147 47.162994 
L 206.322466 49.188199 
L 207.804786 47.126161 
L 209.287105 47.158109 
L 210.769425 45.45135 
L 212.251744 45.10778 
L 213.734064 47.052968 
L 215.216383 48.024919 
L 216.698702 49.478627 
L 218.181022 49.653 
L 219.663341 50.161186 
L 221.145661 51.629789 
L 222.62798 50.64386 
L 224.1103 51.95975 
L 225.592619 50.283259 
L 227.074938 53.452114 
L 228.557258 53.053205 
L 230.039577 55.266683 
L 231.521897 55.099474 
L 233.004216 55.297555 
L 234.486536 54.406781 
L 235.968855 53.367377 
L 237.451175 55.315178 
L 240.415813 52.00693 
L 241.898133 52.808084 
L 243.380452 51.052126 
L 244.862772 50.209567 
L 246.345091 51.474834 
L 247.827411 50.13483 
L 249.30973 50.713557 
L 250.792049 50.688001 
L 252.274369 51.609422 
L 253.756688 47.960983 
L 255.239008 49.630022 
L 256.721327 48.730784 
L 258.203647 47.611998 
L 259.685966 48.458269 
L 261.168285 47.62331 
L 262.650605 47.524185 
L 264.132924 49.59557 
L 265.615244 50.870402 
L 267.097563 50.487528 
L 268.579883 51.371003 
L 270.062202 49.249401 
L 271.544522 49.043424 
L 273.026841 47.386423 
L 274.50916 48.61947 
L 275.99148 49.571601 
L 277.473799 51.437333 
L 278.956119 53.583141 
L 280.438438 52.636221 
L 281.920758 53.644621 
L 283.403077 54.42627 
L 284.885396 52.961668 
L 286.367716 50.696481 
L 287.850035 52.479397 
L 289.332355 51.265623 
L 290.814674 51.710706 
L 292.296994 50.967631 
L 293.779313 51.519613 
L 295.261632 53.449852 
L 296.743952 53.787273 
L 298.226271 52.049462 
L 299.708591 52.020771 
L 301.19091 52.535249 
L 302.67323 52.000667 
L 304.155549 53.066485 
L 305.637869 53.697598 
L 307.120188 51.975676 
L 308.602507 51.539529 
L 310.084827 51.409906 
L 311.567146 51.913171 
L 313.049466 51.562044 
L 314.531785 51.437612 
L 316.014105 52.214557 
L 317.496424 51.589899 
L 318.978743 49.908344 
L 320.461063 51.032579 
L 321.943382 53.892599 
L 323.425702 54.820472 
L 326.390341 54.372511 
L 327.87266 53.8245 
L 329.354979 54.647843 
L 330.837299 54.164376 
L 332.319618 54.661071 
L 333.801938 53.542307 
L 335.284257 53.750401 
L 336.766577 53.562109 
L 339.731216 50.272907 
L 341.213535 50.955719 
L 342.695854 49.084645 
L 344.178174 50.60785 
L 345.660493 49.798724 
L 347.142813 52.1541 
L 348.625132 52.123961 
L 350.107452 49.992091 
L 351.589771 49.909042 
L 353.07209 50.680711 
L 354.55441 54.445873 
L 356.036729 55.550926 
L 357.519049 55.354465 
L 359.001368 56.079207 
L 360.483688 57.842248 
L 361.966007 57.513675 
L 363.448326 56.604242 
L 364.930646 56.725334 
L 366.412965 54.841706 
L 367.895285 56.610804 
L 369.377604 56.638499 
L 370.859924 55.168416 
L 372.342243 55.855727 
L 373.824563 54.725558 
L 375.306882 54.749368 
L 378.271521 55.625891 
L 379.75384 54.950407 
L 381.23616 53.090915 
L 382.718479 55.276994 
L 384.200799 53.823 
L 385.683118 54.245321 
L 387.165437 54.381011 
L 388.647757 56.05285 
L 390.130076 55.983004 
L 391.612396 52.039908 
L 393.094715 49.309374 
L 394.577035 49.690901 
L 396.059354 49.037214 
L 397.541674 46.760715 
L 399.023993 47.350664 
L 400.506312 51.056979 
L 401.988632 50.361633 
L 403.470951 47.900701 
L 404.953271 50.010181 
L 406.43559 47.894968 
L 407.91791 49.691275 
L 409.400229 52.507841 
L 410.882548 50.722436 
L 412.364868 50.451098 
L 413.847187 50.311654 
L 415.329507 50.298883 
L 416.811826 50.894457 
L 418.294146 47.772612 
L 419.776465 51.547863 
L 421.258784 50.324227 
L 422.741104 50.975521 
L 424.223423 52.493344 
L 425.705743 52.504609 
L 427.188062 51.338382 
L 428.670382 51.613532 
L 430.152701 50.233414 
L 431.635021 49.293841 
L 433.11734 51.583068 
L 434.599659 48.791974 
L 436.081979 49.212832 
L 437.564298 51.454245 
L 439.046618 54.16291 
L 440.528937 53.711071 
L 442.011257 51.714783 
L 443.493576 52.420233 
L 444.975895 49.969532 
L 446.458215 49.387094 
L 447.940534 50.809465 
L 449.422854 51.571118 
L 450.905173 52.831903 
L 452.387493 49.917699 
L 453.869812 49.130105 
L 455.352131 50.473137 
L 456.834451 50.210443 
L 458.31677 50.200127 
L 459.79909 47.640885 
L 461.281409 44.30733 
L 462.763729 44.24199 
L 464.246048 44.001352 
L 465.728368 44.7597 
L 467.210687 46.92442 
L 468.693006 46.909378 
L 470.175326 47.425668 
L 471.657645 47.793655 
L 473.139965 46.401189 
L 474.622284 47.045781 
L 476.104604 49.05441 
L 477.586923 50.484296 
L 479.069242 51.492987 
L 480.551562 51.435436 
L 482.033881 50.772785 
L 483.516201 49.217514 
L 486.48084 50.40725 
L 487.963159 47.96408 
L 489.445478 46.376972 
L 490.927798 46.509712 
L 492.410117 47.521497 
L 493.892437 45.312965 
L 495.374756 45.574758 
L 496.857076 44.835201 
L 498.339395 45.74404 
L 499.821715 44.314685 
L 501.304034 42.693118 
L 502.786353 42.803393 
L 504.268673 44.320033 
L 505.750992 44.570037 
L 507.233312 43.914781 
L 508.715631 44.890757 
L 510.197951 43.121866 
L 511.68027 41.734337 
L 514.644909 45.487592 
L 516.127228 46.862985 
L 517.609548 48.882219 
L 519.091867 49.674946 
L 520.574187 50.78092 
L 522.056506 51.355514 
L 523.538825 51.519353 
L 525.021145 50.993503 
L 526.503464 49.221456 
L 527.985784 49.758479 
L 529.468103 52.18982 
L 532.432742 54.942174 
L 533.915062 54.047396 
L 535.397381 54.401534 
L 536.8797 54.339349 
L 538.36202 55.322578 
L 539.844339 55.087856 
L 542.808978 53.562981 
L 544.291298 53.847052 
L 545.773617 52.829234 
L 547.255936 50.591764 
L 548.738256 50.246221 
L 550.220575 47.95796 
L 551.702895 47.580832 
L 553.185214 47.846922 
L 554.667534 48.434573 
L 556.149853 45.302513 
L 557.632172 45.198759 
L 559.114492 46.473717 
L 560.596811 49.427166 
L 562.079131 50.643755 
L 563.56145 51.014855 
L 565.04377 50.042676 
L 566.526089 48.454287 
L 568.008409 49.846704 
L 569.490728 50.240324 
L 570.973047 51.24083 
L 572.455367 52.493192 
L 573.937686 52.059773 
L 575.420006 52.162887 
L 576.902325 48.731831 
L 578.384645 48.094467 
L 579.866964 47.000095 
L 581.349283 48.50746 
L 582.831603 49.112797 
L 584.313922 51.448692 
L 585.796242 50.938007 
L 587.278561 48.219931 
L 590.2432 48.952139 
L 591.725519 48.810279 
L 593.207839 49.800112 
L 594.690158 50.058679 
L 596.172478 49.141907 
L 597.654797 49.010778 
L 599.137117 49.527047 
L 600.619436 48.779126 
L 602.101756 47.767624 
L 603.584075 48.791789 
L 605.066394 50.336941 
L 606.548714 49.753939 
L 608.031033 52.523345 
L 609.513353 53.513437 
L 610.995672 51.436964 
L 612.477992 51.325092 
L 613.960311 51.902088 
L 615.44263 52.982517 
L 616.92495 52.899439 
L 618.407269 54.470493 
L 619.889589 56.433356 
L 621.371908 56.16282 
L 622.854228 54.590951 
L 624.336547 54.585344 
L 625.818866 55.875453 
L 627.301186 55.4773 
L 628.783505 55.567171 
L 630.265825 55.898883 
L 631.748144 53.745827 
L 633.230464 49.725934 
L 634.712783 48.474963 
L 636.195103 47.602311 
L 637.677422 49.646636 
L 639.159741 50.307952 
L 640.642061 49.112259 
L 642.12438 50.813125 
L 643.6067 49.072567 
L 645.089019 48.555243 
L 646.571339 49.361379 
L 648.053658 49.579028 
L 649.535977 49.148731 
L 651.018297 47.411018 
L 652.500616 47.797527 
L 653.982936 48.72717 
L 655.465255 49.841546 
L 656.947575 49.336356 
L 661.394533 50.708523 
L 662.876852 51.571723 
L 664.359172 53.009016 
L 665.841491 51.82196 
L 667.323811 50.034476 
L 668.80613 49.875024 
L 670.28845 51.406089 
L 671.770769 50.896668 
L 673.253088 52.964712 
L 674.735408 52.710608 
L 676.217727 51.19638 
L 676.217727 51.19638 
" clip-path="url(#pae103a5fc1)" style="fill: none; stroke: #9467bd; stroke-width: 1.5; stroke-linecap: square"/>
   </g>
   <g id="patch_3">
    <path d="M 55.2 383.885 
L 55.2 24.325 
" style="fill: none; stroke: #000000; stroke-width: 0.8; stroke-linejoin: miter; stroke-linecap: square"/>
   </g>
   <g id="patch_4">
    <path d="M 705.79 383.885 
L 705.79 24.325 
" style="fill: none; stroke: #000000; stroke-width: 0.8; stroke-linejoin: miter; stroke-linecap: square"/>
   </g>
   <g id="patch_5">
    <path d="M 55.2 383.885 
L 705.79 383.885 
" style="fill: none; stroke: #000000; stroke-width: 0.8; stroke-linejoin: miter; stroke-linecap: square"/>
   </g>
   <g id="patch_6">
    <path d="M 55.2 24.325 
L 705.79 24.325 
" style="fill: none; stroke: #000000; stroke-width: 0.8; stroke-linejoin: miter; stroke-linecap: square"/>
   </g>
   <g id="text_18">
    <!-- Reward Comparison -->
    <g transform="translate(312.495 18.325) scale(0.16 -0.16)">
     <defs>
      <path id="SimHei-43" d="M 2975 1825 
Q 2950 875 2575 475 
Q 2200 75 1675 75 
Q 1075 75 650 562 
Q 225 1050 225 2125 
Q 225 3300 637 3875 
Q 1050 4450 1700 4450 
Q 2250 4450 2612 4037 
Q 2975 3625 2950 2875 
L 2400 2875 
Q 2400 3425 2225 3700 
Q 2050 3975 1700 3975 
Q 1300 3975 1062 3562 
Q 825 3150 825 2175 
Q 825 1275 1062 912 
Q 1300 550 1675 550 
Q 1950 550 2175 812 
Q 2400 1075 2400 1825 
L 2975 1825 
z
" transform="scale(0.015625)"/>
      <path id="SimHei-6d" d="M 3050 125 
L 2550 125 
L 2550 2150 
Q 2550 2300 2500 2400 
Q 2450 2500 2300 2500 
Q 2125 2500 1975 2312 
Q 1825 2125 1825 1825 
L 1825 125 
L 1325 125 
L 1325 2150 
Q 1325 2300 1275 2400 
Q 1225 2500 1075 2500 
Q 900 2500 750 2312 
Q 600 2125 600 1825 
L 600 125 
L 100 125 
L 100 2925 
L 600 2925 
L 600 2550 
Q 725 2750 900 2862 
Q 1075 2975 1275 2975 
Q 1475 2975 1612 2862 
Q 1750 2750 1800 2550 
Q 1925 2750 2087 2862 
Q 2250 2975 2450 2975 
Q 2750 2975 2900 2812 
Q 3050 2650 3050 2350 
L 3050 125 
z
" transform="scale(0.015625)"/>
      <path id="SimHei-6e" d="M 2800 125 
L 2300 125 
L 2300 1925 
Q 2300 2225 2150 2400 
Q 2000 2575 1750 2575 
Q 1425 2575 1137 2237 
Q 850 1900 850 1400 
L 850 125 
L 350 125 
L 350 2925 
L 850 2925 
L 850 2400 
Q 1050 2675 1287 2825 
Q 1525 2975 1900 2975 
Q 2350 2975 2575 2725 
Q 2800 2475 2800 2100 
L 2800 125 
z
" transform="scale(0.015625)"/>
     </defs>
     <use xlink:href="#SimHei-52"/>
     <use xlink:href="#SimHei-65" transform="translate(50 0)"/>
     <use xlink:href="#SimHei-77" transform="translate(100 0)"/>
     <use xlink:href="#SimHei-61" transform="translate(150 0)"/>
     <use xlink:href="#SimHei-72" transform="translate(200 0)"/>
     <use xlink:href="#SimHei-64" transform="translate(250 0)"/>
     <use xlink:href="#SimHei-20" transform="translate(300 0)"/>
     <use xlink:href="#SimHei-43" transform="translate(350 0)"/>
     <use xlink:href="#SimHei-6f" transform="translate(400 0)"/>
     <use xlink:href="#SimHei-6d" transform="translate(450 0)"/>
     <use xlink:href="#SimHei-70" transform="translate(500 0)"/>
     <use xlink:href="#SimHei-61" transform="translate(550 0)"/>
     <use xlink:href="#SimHei-72" transform="translate(600 0)"/>
     <use xlink:href="#SimHei-69" transform="translate(650 0)"/>
     <use xlink:href="#SimHei-73" transform="translate(700 0)"/>
     <use xlink:href="#SimHei-6f" transform="translate(750 0)"/>
     <use xlink:href="#SimHei-6e" transform="translate(800 0)"/>
    </g>
   </g>
   <g id="legend_1">
    <g id="patch_7">
     <path d="M 580.99 377.885 
L 697.39 377.885 
Q 699.79 377.885 699.79 375.485 
L 699.79 313.085 
Q 699.79 310.685 697.39 310.685 
L 580.99 310.685 
Q 578.59 310.685 578.59 313.085 
L 578.59 375.485 
Q 578.59 377.885 580.99 377.885 
z
" style="fill: #ffffff; opacity: 0.8; stroke: #cccccc; stroke-linejoin: miter"/>
    </g>
    <g id="line2d_35">
     <path d="M 583.39 319.685 
L 595.39 319.685 
L 607.39 319.685 
" style="fill: none; stroke: #1f77b4; stroke-width: 1.5; stroke-linecap: square"/>
    </g>
    <g id="text_19">
     <!-- GCN-DDQN -->
     <g transform="translate(616.99 323.885) scale(0.12 -0.12)">
      <defs>
       <path id="SimHei-47" d="M 2850 75 
L 2425 75 
L 2350 425 
Q 2250 275 2037 175 
Q 1825 75 1575 75 
Q 1050 75 637 562 
Q 225 1050 225 2125 
Q 225 3300 600 3875 
Q 975 4450 1625 4450 
Q 2200 4450 2525 4025 
Q 2850 3600 2850 2925 
L 2300 2925 
Q 2300 3450 2125 3712 
Q 1950 3975 1625 3975 
Q 1225 3975 1025 3562 
Q 825 3150 825 2175 
Q 825 1250 1075 900 
Q 1325 550 1650 550 
Q 1975 550 2162 787 
Q 2350 1025 2350 1525 
L 2350 1800 
L 1575 1800 
L 1575 2275 
L 2850 2275 
L 2850 75 
z
" transform="scale(0.015625)"/>
       <path id="SimHei-4e" d="M 2850 125 
L 2225 125 
L 850 3225 
L 825 3225 
L 825 125 
L 250 125 
L 250 4400 
L 875 4400 
L 2250 1300 
L 2275 1300 
L 2275 4400 
L 2850 4400 
L 2850 125 
z
" transform="scale(0.015625)"/>
       <path id="SimHei-2d" d="M 2975 2125 
L 125 2125 
L 125 2525 
L 2975 2525 
L 2975 2125 
z
" transform="scale(0.015625)"/>
       <path id="SimHei-44" d="M 2925 2250 
Q 2925 1100 2437 612 
Q 1950 125 1125 125 
L 275 125 
L 275 4400 
L 1125 4400 
Q 2050 4400 2487 3900 
Q 2925 3400 2925 2250 
z
M 2325 2250 
Q 2325 3175 2025 3550 
Q 1725 3925 1125 3925 
L 850 3925 
L 850 600 
L 1125 600 
Q 1725 600 2025 962 
Q 2325 1325 2325 2250 
z
" transform="scale(0.015625)"/>
       <path id="SimHei-51" d="M 2950 2275 
Q 2950 1675 2862 1262 
Q 2775 850 2575 600 
L 2775 225 
L 2375 -200 
L 2150 225 
Q 2050 150 1900 112 
Q 1750 75 1575 75 
Q 925 75 550 587 
Q 175 1100 175 2275 
Q 175 3450 550 3950 
Q 925 4450 1575 4450 
Q 2225 4450 2587 3950 
Q 2950 3450 2950 2275 
z
M 2350 2275 
Q 2350 3325 2125 3650 
Q 1900 3975 1575 3975 
Q 1250 3975 1012 3650 
Q 775 3325 775 2275 
Q 775 1225 1012 887 
Q 1250 550 1575 550 
Q 1700 550 1800 587 
Q 1900 625 1950 675 
L 1550 1450 
L 1900 1875 
L 2250 1200 
Q 2300 1450 2325 1650 
Q 2350 1850 2350 2275 
z
" transform="scale(0.015625)"/>
      </defs>
      <use xlink:href="#SimHei-47"/>
      <use xlink:href="#SimHei-43" transform="translate(50 0)"/>
      <use xlink:href="#SimHei-4e" transform="translate(100 0)"/>
      <use xlink:href="#SimHei-2d" transform="translate(150 0)"/>
      <use xlink:href="#SimHei-44" transform="translate(200 0)"/>
      <use xlink:href="#SimHei-44" transform="translate(250 0)"/>
      <use xlink:href="#SimHei-51" transform="translate(300 0)"/>
      <use xlink:href="#SimHei-4e" transform="translate(350 0)"/>
     </g>
    </g>
    <g id="line2d_36">
     <path d="M 583.39 335.585 
L 595.39 335.585 
L 607.39 335.585 
" style="fill: none; stroke: #ff7f0e; stroke-width: 1.5; stroke-linecap: square"/>
    </g>
    <g id="text_20">
     <!-- GCN-D3QN -->
     <g transform="translate(616.99 339.785) scale(0.12 -0.12)">
      <use xlink:href="#SimHei-47"/>
      <use xlink:href="#SimHei-43" transform="translate(50 0)"/>
      <use xlink:href="#SimHei-4e" transform="translate(100 0)"/>
      <use xlink:href="#SimHei-2d" transform="translate(150 0)"/>
      <use xlink:href="#SimHei-44" transform="translate(200 0)"/>
      <use xlink:href="#SimHei-33" transform="translate(250 0)"/>
      <use xlink:href="#SimHei-51" transform="translate(300 0)"/>
      <use xlink:href="#SimHei-4e" transform="translate(350 0)"/>
     </g>
    </g>
    <g id="line2d_37">
     <path d="M 583.39 351.485 
L 595.39 351.485 
L 607.39 351.485 
" style="fill: none; stroke: #2ca02c; stroke-width: 1.5; stroke-linecap: square"/>
    </g>
    <g id="text_21">
     <!-- GAT-LSTM-DDQN -->
     <g transform="translate(616.99 355.685) scale(0.12 -0.12)">
      <defs>
       <path id="SimHei-41" d="M 3075 125 
L 2475 125 
L 2125 1450 
L 1025 1450 
L 675 125 
L 75 125 
L 1325 4450 
L 1825 4450 
L 3075 125 
z
M 2000 1925 
L 1600 3450 
L 1550 3450 
L 1150 1925 
L 2000 1925 
z
" transform="scale(0.015625)"/>
       <path id="SimHei-4c" d="M 2900 125 
L 300 125 
L 300 4400 
L 875 4400 
L 875 600 
L 2900 600 
L 2900 125 
z
" transform="scale(0.015625)"/>
       <path id="SimHei-53" d="M 2900 1325 
Q 2900 750 2537 412 
Q 2175 75 1550 75 
Q 925 75 575 425 
Q 225 775 225 1300 
L 225 1475 
L 800 1475 
L 800 1325 
Q 800 950 1025 750 
Q 1250 550 1550 550 
Q 1950 550 2137 762 
Q 2325 975 2325 1275 
Q 2325 1525 2100 1737 
Q 1875 1950 1450 2125 
Q 850 2350 587 2625 
Q 325 2900 325 3275 
Q 325 3800 687 4125 
Q 1050 4450 1550 4450 
Q 2200 4450 2487 4062 
Q 2775 3675 2775 3225 
L 2200 3225 
Q 2225 3500 2050 3725 
Q 1875 3950 1550 3950 
Q 1250 3950 1075 3787 
Q 900 3625 900 3350 
Q 900 3125 1037 2962 
Q 1175 2800 1750 2575 
Q 2300 2350 2600 2037 
Q 2900 1725 2900 1325 
z
" transform="scale(0.015625)"/>
       <path id="SimHei-4d" d="M 2925 125 
L 2425 125 
L 2425 3175 
L 2375 3175 
L 1775 125 
L 1375 125 
L 775 3175 
L 725 3175 
L 725 125 
L 225 125 
L 225 4400 
L 1000 4400 
L 1550 1575 
L 1600 1575 
L 2150 4400 
L 2925 4400 
L 2925 125 
z
" transform="scale(0.015625)"/>
      </defs>
      <use xlink:href="#SimHei-47"/>
      <use xlink:href="#SimHei-41" transform="translate(50 0)"/>
      <use xlink:href="#SimHei-54" transform="translate(100 0)"/>
      <use xlink:href="#SimHei-2d" transform="translate(150 0)"/>
      <use xlink:href="#SimHei-4c" transform="translate(200 0)"/>
      <use xlink:href="#SimHei-53" transform="translate(250 0)"/>
      <use xlink:href="#SimHei-54" transform="translate(300 0)"/>
      <use xlink:href="#SimHei-4d" transform="translate(350 0)"/>
      <use xlink:href="#SimHei-2d" transform="translate(400 0)"/>
      <use xlink:href="#SimHei-44" transform="translate(450 0)"/>
      <use xlink:href="#SimHei-44" transform="translate(500 0)"/>
      <use xlink:href="#SimHei-51" transform="translate(550 0)"/>
      <use xlink:href="#SimHei-4e" transform="translate(600 0)"/>
     </g>
    </g>
    <g id="line2d_38">
     <path d="M 583.39 367.385 
L 595.39 367.385 
L 607.39 367.385 
" style="fill: none; stroke: #9467bd; stroke-width: 1.5; stroke-linecap: square"/>
    </g>
    <g id="text_22">
     <!-- GLDVTO -->
     <g transform="translate(616.99 371.585) scale(0.12 -0.12)">
      <defs>
       <path id="SimHei-56" d="M 3050 4400 
L 1800 75 
L 1300 75 
L 50 4400 
L 650 4400 
L 1525 1125 
L 1575 1125 
L 2450 4400 
L 3050 4400 
z
" transform="scale(0.015625)"/>
       <path id="SimHei-4f" d="M 2950 2275 
Q 2950 1100 2587 587 
Q 2225 75 1575 75 
Q 925 75 550 587 
Q 175 1100 175 2275 
Q 175 3450 550 3950 
Q 925 4450 1575 4450 
Q 2225 4450 2587 3950 
Q 2950 3450 2950 2275 
z
M 2350 2275 
Q 2350 3325 2125 3650 
Q 1900 3975 1575 3975 
Q 1250 3975 1012 3650 
Q 775 3325 775 2275 
Q 775 1225 1012 887 
Q 1250 550 1575 550 
Q 1900 550 2125 887 
Q 2350 1225 2350 2275 
z
" transform="scale(0.015625)"/>
      </defs>
      <use xlink:href="#SimHei-47"/>
      <use xlink:href="#SimHei-4c" transform="translate(50 0)"/>
      <use xlink:href="#SimHei-44" transform="translate(100 0)"/>
      <use xlink:href="#SimHei-56" transform="translate(150 0)"/>
      <use xlink:href="#SimHei-54" transform="translate(200 0)"/>
      <use xlink:href="#SimHei-4f" transform="translate(250 0)"/>
     </g>
    </g>
   </g>
  </g>
 </g>
 <defs>
  <clipPath id="pae103a5fc1">
   <rect x="55.2" y="24.325" width="650.59" height="359.56"/>
  </clipPath>
 </defs>
</svg>
