<?xml version="1.0" encoding="utf-8" standalone="no"?>
<!DOCTYPE svg PUBLIC "-//W3C//DTD SVG 1.1//EN"
  "http://www.w3.org/Graphics/SVG/1.1/DTD/svg11.dtd">
<svg xmlns:xlink="http://www.w3.org/1999/xlink" width="712.99pt" height="424.835pt" viewBox="0 0 712.99 424.835" xmlns="http://www.w3.org/2000/svg" version="1.1">
 <metadata>
  <rdf:RDF xmlns:dc="http://purl.org/dc/elements/1.1/" xmlns:cc="http://creativecommons.org/ns#" xmlns:rdf="http://www.w3.org/1999/02/22-rdf-syntax-ns#">
   <cc:Work>
    <dc:type rdf:resource="http://purl.org/dc/dcmitype/StillImage"/>
    <dc:date>2026-06-25T19:51:57.258537</dc:date>
    <dc:format>image/svg+xml</dc:format>
    <dc:creator>
     <cc:Agent>
      <dc:title>Matplotlib v3.10.7, https://matplotlib.org/</dc:title>
     </cc:Agent>
    </dc:creator>
   </cc:Work>
  </rdf:RDF>
 </metadata>
 <defs>
  <style type="text/css">*{stroke-linejoin: round; stroke-linecap: butt}</style>
 </defs>
 <g id="figure_1">
  <g id="patch_1">
   <path d="M -0 424.835 
L 712.99 424.835 
L 712.99 0 
L -0 0 
z
" style="fill: #ffffff"/>
  </g>
  <g id="axes_1">
   <g id="patch_2">
    <path d="M 55.2 383.885 
L 705.79 383.885 
L 705.79 24.325 
L 55.2 24.325 
z
" style="fill: #ffffff"/>
   </g>
   <g id="matplotlib.axis_1">
    <g id="xtick_1">
     <g id="line2d_1">
      <path d="M 84.772273 383.885 
L 84.772273 24.325 
" clip-path="url(#p739436b001)" style="fill: none; stroke: #b0b0b0; stroke-opacity: 0.3; stroke-width: 0.8; stroke-linecap: square"/>
     </g>
     <g id="line2d_2">
      <defs>
       <path id="m1c27dd954e" d="M 0 0 
L 0 3.5 
" style="stroke: #000000; stroke-width: 0.8"/>
      </defs>
      <g>
       <use xlink:href="#m1c27dd954e" x="84.772273" y="383.885" style="stroke: #000000; stroke-width: 0.8"/>
      </g>
     </g>
     <g id="text_1">
      <!-- 0 -->
      <g transform="translate(81.772273 399.135) scale(0.12 -0.12)">
       <defs>
        <path id="SimHei-30" d="M 225 2537 
Q 250 3200 412 3587 
Q 575 3975 875 4225 
Q 1175 4475 1612 4475 
Q 2050 4475 2375 4112 
Q 2700 3750 2800 3200 
Q 2900 2650 2862 1937 
Q 2825 1225 2612 775 
Q 2400 325 1975 150 
Q 1550 -25 1125 187 
Q 700 400 525 750 
Q 350 1100 275 1487 
Q 200 1875 225 2537 
z
M 750 2687 
Q 675 2000 800 1462 
Q 925 925 1212 700 
Q 1500 475 1800 612 
Q 2100 750 2237 1162 
Q 2375 1575 2375 2062 
Q 2375 2550 2337 2950 
Q 2300 3350 2112 3675 
Q 1925 4000 1612 4012 
Q 1300 4025 1062 3700 
Q 825 3375 750 2687 
z
" transform="scale(0.015625)"/>
       </defs>
       <use xlink:href="#SimHei-30"/>
      </g>
     </g>
    </g>
    <g id="xtick_2">
     <g id="line2d_3">
      <path d="M 158.888244 383.885 
L 158.888244 24.325 
" clip-path="url(#p739436b001)" style="fill: none; stroke: #b0b0b0; stroke-opacity: 0.3; stroke-width: 0.8; stroke-linecap: square"/>
     </g>
     <g id="line2d_4">
      <g>
       <use xlink:href="#m1c27dd954e" x="158.888244" y="383.885" style="stroke: #000000; stroke-width: 0.8"/>
      </g>
     </g>
     <g id="text_2">
      <!-- 50 -->
      <g transform="translate(152.888244 399.135) scale(0.12 -0.12)">
       <defs>
        <path id="SimHei-35" d="M 550 1325 
Q 725 650 1150 575 
Q 1575 500 1837 662 
Q 2100 825 2212 1087 
Q 2325 1350 2312 1675 
Q 2300 2000 2137 2225 
Q 1975 2450 1725 2525 
Q 1475 2600 1162 2525 
Q 850 2450 650 2175 
L 225 2225 
Q 275 2375 700 4375 
L 2675 4375 
L 2675 3925 
L 1075 3925 
Q 950 3250 825 2850 
Q 1200 3025 1525 3012 
Q 1850 3000 2150 2862 
Q 2450 2725 2587 2487 
Q 2725 2250 2787 2012 
Q 2850 1775 2837 1500 
Q 2825 1225 2725 937 
Q 2625 650 2425 462 
Q 2225 275 1937 162 
Q 1650 50 1275 75 
Q 900 100 562 350 
Q 225 600 100 1200 
L 550 1325 
z
" transform="scale(0.015625)"/>
       </defs>
       <use xlink:href="#SimHei-35"/>
       <use xlink:href="#SimHei-30" transform="translate(50 0)"/>
      </g>
     </g>
    </g>
    <g id="xtick_3">
     <g id="line2d_5">
      <path d="M 233.004216 383.885 
L 233.004216 24.325 
" clip-path="url(#p739436b001)" style="fill: none; stroke: #b0b0b0; stroke-opacity: 0.3; stroke-width: 0.8; stroke-linecap: square"/>
     </g>
     <g id="line2d_6">
      <g>
       <use xlink:href="#m1c27dd954e" x="233.004216" y="383.885" style="stroke: #000000; stroke-width: 0.8"/>
      </g>
     </g>
     <g id="text_3">
      <!-- 100 -->
      <g transform="translate(224.004216 399.135) scale(0.12 -0.12)">
       <defs>
        <path id="SimHei-31" d="M 1400 3600 
Q 1075 3275 575 2975 
L 575 3450 
Q 1200 3875 1600 4450 
L 1900 4450 
L 1900 150 
L 1400 150 
L 1400 3600 
z
" transform="scale(0.015625)"/>
       </defs>
       <use xlink:href="#SimHei-31"/>
       <use xlink:href="#SimHei-30" transform="translate(50 0)"/>
       <use xlink:href="#SimHei-30" transform="translate(100 0)"/>
      </g>
     </g>
    </g>
    <g id="xtick_4">
     <g id="line2d_7">
      <path d="M 307.120188 383.885 
L 307.120188 24.325 
" clip-path="url(#p739436b001)" style="fill: none; stroke: #b0b0b0; stroke-opacity: 0.3; stroke-width: 0.8; stroke-linecap: square"/>
     </g>
     <g id="line2d_8">
      <g>
       <use xlink:href="#m1c27dd954e" x="307.120188" y="383.885" style="stroke: #000000; stroke-width: 0.8"/>
      </g>
     </g>
     <g id="text_4">
      <!-- 150 -->
      <g transform="translate(298.120188 399.135) scale(0.12 -0.12)">
       <use xlink:href="#SimHei-31"/>
       <use xlink:href="#SimHei-35" transform="translate(50 0)"/>
       <use xlink:href="#SimHei-30" transform="translate(100 0)"/>
      </g>
     </g>
    </g>
    <g id="xtick_5">
     <g id="line2d_9">
      <path d="M 381.23616 383.885 
L 381.23616 24.325 
" clip-path="url(#p739436b001)" style="fill: none; stroke: #b0b0b0; stroke-opacity: 0.3; stroke-width: 0.8; stroke-linecap: square"/>
     </g>
     <g id="line2d_10">
      <g>
       <use xlink:href="#m1c27dd954e" x="381.23616" y="383.885" style="stroke: #000000; stroke-width: 0.8"/>
      </g>
     </g>
     <g id="text_5">
      <!-- 200 -->
      <g transform="translate(372.23616 399.135) scale(0.12 -0.12)">
       <defs>
        <path id="SimHei-32" d="M 300 250 
Q 325 625 650 925 
Q 975 1225 1475 1862 
Q 1975 2500 2125 2850 
Q 2275 3200 2237 3450 
Q 2200 3700 2000 3862 
Q 1800 4025 1537 4000 
Q 1275 3975 1037 3800 
Q 800 3625 675 3275 
L 200 3350 
Q 400 3925 712 4187 
Q 1025 4450 1450 4475 
Q 1700 4500 1900 4462 
Q 2100 4425 2312 4287 
Q 2525 4150 2662 3875 
Q 2800 3600 2762 3212 
Q 2725 2825 2375 2287 
Q 2025 1750 1025 600 
L 2825 600 
L 2825 150 
L 300 150 
L 300 250 
z
" transform="scale(0.015625)"/>
       </defs>
       <use xlink:href="#SimHei-32"/>
       <use xlink:href="#SimHei-30" transform="translate(50 0)"/>
       <use xlink:href="#SimHei-30" transform="translate(100 0)"/>
      </g>
     </g>
    </g>
    <g id="xtick_6">
     <g id="line2d_11">
      <path d="M 455.352131 383.885 
L 455.352131 24.325 
" clip-path="url(#p739436b001)" style="fill: none; stroke: #b0b0b0; stroke-opacity: 0.3; stroke-width: 0.8; stroke-linecap: square"/>
     </g>
     <g id="line2d_12">
      <g>
       <use xlink:href="#m1c27dd954e" x="455.352131" y="383.885" style="stroke: #000000; stroke-width: 0.8"/>
      </g>
     </g>
     <g id="text_6">
      <!-- 250 -->
      <g transform="translate(446.352131 399.135) scale(0.12 -0.12)">
       <use xlink:href="#SimHei-32"/>
       <use xlink:href="#SimHei-35" transform="translate(50 0)"/>
       <use xlink:href="#SimHei-30" transform="translate(100 0)"/>
      </g>
     </g>
    </g>
    <g id="xtick_7">
     <g id="line2d_13">
      <path d="M 529.468103 383.885 
L 529.468103 24.325 
" clip-path="url(#p739436b001)" style="fill: none; stroke: #b0b0b0; stroke-opacity: 0.3; stroke-width: 0.8; stroke-linecap: square"/>
     </g>
     <g id="line2d_14">
      <g>
       <use xlink:href="#m1c27dd954e" x="529.468103" y="383.885" style="stroke: #000000; stroke-width: 0.8"/>
      </g>
     </g>
     <g id="text_7">
      <!-- 300 -->
      <g transform="translate(520.468103 399.135) scale(0.12 -0.12)">
       <defs>
        <path id="SimHei-33" d="M 250 1225 
L 700 1300 
Q 800 975 1025 762 
Q 1250 550 1587 562 
Q 1925 575 2125 837 
Q 2325 1100 2300 1437 
Q 2275 1775 2037 1962 
Q 1800 2150 1275 2225 
L 1275 2550 
Q 1800 2600 2037 2825 
Q 2275 3050 2250 3412 
Q 2225 3775 1925 3937 
Q 1625 4100 1287 3975 
Q 950 3850 750 3275 
L 300 3350 
Q 450 3800 712 4100 
Q 975 4400 1425 4450 
Q 1875 4500 2212 4337 
Q 2550 4175 2687 3837 
Q 2825 3500 2725 3100 
Q 2625 2700 2150 2400 
Q 2500 2250 2687 1950 
Q 2875 1650 2812 1162 
Q 2750 675 2375 375 
Q 2000 75 1525 87 
Q 1050 100 700 387 
Q 350 675 250 1225 
z
" transform="scale(0.015625)"/>
       </defs>
       <use xlink:href="#SimHei-33"/>
       <use xlink:href="#SimHei-30" transform="translate(50 0)"/>
       <use xlink:href="#SimHei-30" transform="translate(100 0)"/>
      </g>
     </g>
    </g>
    <g id="xtick_8">
     <g id="line2d_15">
      <path d="M 603.584075 383.885 
L 603.584075 24.325 
" clip-path="url(#p739436b001)" style="fill: none; stroke: #b0b0b0; stroke-opacity: 0.3; stroke-width: 0.8; stroke-linecap: square"/>
     </g>
     <g id="line2d_16">
      <g>
       <use xlink:href="#m1c27dd954e" x="603.584075" y="383.885" style="stroke: #000000; stroke-width: 0.8"/>
      </g>
     </g>
     <g id="text_8">
      <!-- 350 -->
      <g transform="translate(594.584075 399.135) scale(0.12 -0.12)">
       <use xlink:href="#SimHei-33"/>
       <use xlink:href="#SimHei-35" transform="translate(50 0)"/>
       <use xlink:href="#SimHei-30" transform="translate(100 0)"/>
      </g>
     </g>
    </g>
    <g id="xtick_9">
     <g id="line2d_17">
      <path d="M 677.700047 383.885 
L 677.700047 24.325 
" clip-path="url(#p739436b001)" style="fill: none; stroke: #b0b0b0; stroke-opacity: 0.3; stroke-width: 0.8; stroke-linecap: square"/>
     </g>
     <g id="line2d_18">
      <g>
       <use xlink:href="#m1c27dd954e" x="677.700047" y="383.885" style="stroke: #000000; stroke-width: 0.8"/>
      </g>
     </g>
     <g id="text_9">
      <!-- 400 -->
      <g transform="translate(668.700047 399.135) scale(0.12 -0.12)">
       <defs>
        <path id="SimHei-34" d="M 2000 1100 
L 75 1100 
L 75 1525 
L 2100 4450 
L 2475 4450 
L 2475 1525 
L 3075 1525 
L 3075 1100 
L 2475 1100 
L 2475 150 
L 2000 150 
L 2000 1100 
z
M 2000 1525 
L 2000 3500 
L 600 1525 
L 2000 1525 
z
" transform="scale(0.015625)"/>
       </defs>
       <use xlink:href="#SimHei-34"/>
       <use xlink:href="#SimHei-30" transform="translate(50 0)"/>
       <use xlink:href="#SimHei-30" transform="translate(100 0)"/>
      </g>
     </g>
    </g>
    <g id="text_10">
     <!-- Episode -->
     <g transform="translate(352.495 415.635) scale(0.16 -0.16)">
      <defs>
       <path id="SimHei-45" d="M 2900 125 
L 350 125 
L 350 4400 
L 2775 4400 
L 2775 3925 
L 925 3925 
L 925 2600 
L 2625 2600 
L 2625 2125 
L 925 2125 
L 925 600 
L 2900 600 
L 2900 125 
z
" transform="scale(0.015625)"/>
       <path id="SimHei-70" d="M 2825 1525 
Q 2825 800 2475 425 
Q 2125 50 1625 50 
Q 1350 50 1150 162 
Q 950 275 800 500 
L 800 -800 
L 300 -800 
L 300 2925 
L 800 2925 
L 800 2550 
Q 950 2775 1150 2875 
Q 1350 2975 1625 2975 
Q 2125 2975 2475 2612 
Q 2825 2250 2825 1525 
z
M 2275 1525 
Q 2275 2000 2087 2262 
Q 1900 2525 1525 2525 
Q 1225 2525 1012 2262 
Q 800 2000 800 1525 
Q 800 1050 1012 775 
Q 1225 500 1525 500 
Q 1900 500 2087 775 
Q 2275 1050 2275 1525 
z
" transform="scale(0.015625)"/>
       <path id="SimHei-69" d="M 1800 3725 
L 1300 3725 
L 1300 4375 
L 1800 4375 
L 1800 3725 
z
M 1800 125 
L 1300 125 
L 1300 2925 
L 1800 2925 
L 1800 125 
z
" transform="scale(0.015625)"/>
       <path id="SimHei-73" d="M 2750 900 
Q 2750 500 2437 287 
Q 2125 75 1650 75 
Q 1050 75 725 312 
Q 400 550 400 1000 
L 900 1000 
Q 900 700 1112 600 
Q 1325 500 1625 500 
Q 1925 500 2075 612 
Q 2225 725 2225 900 
Q 2225 1025 2100 1150 
Q 1975 1275 1475 1350 
Q 900 1425 687 1637 
Q 475 1850 475 2200 
Q 475 2500 762 2737 
Q 1050 2975 1600 2975 
Q 2100 2975 2387 2750 
Q 2675 2525 2675 2150 
L 2175 2150 
Q 2175 2375 2012 2462 
Q 1850 2550 1600 2550 
Q 1275 2550 1137 2437 
Q 1000 2325 1000 2175 
Q 1000 2000 1125 1900 
Q 1250 1800 1650 1750 
Q 2300 1650 2525 1437 
Q 2750 1225 2750 900 
z
" transform="scale(0.015625)"/>
       <path id="SimHei-6f" d="M 2925 1525 
Q 2925 875 2525 475 
Q 2125 75 1575 75 
Q 1025 75 625 475 
Q 225 875 225 1525 
Q 225 2175 625 2575 
Q 1025 2975 1575 2975 
Q 2125 2975 2525 2575 
Q 2925 2175 2925 1525 
z
M 2375 1525 
Q 2375 2025 2125 2275 
Q 1875 2525 1575 2525 
Q 1275 2525 1025 2275 
Q 775 2025 775 1525 
Q 775 1025 1025 775 
Q 1275 525 1575 525 
Q 1875 525 2125 775 
Q 2375 1025 2375 1525 
z
" transform="scale(0.015625)"/>
       <path id="SimHei-64" d="M 2750 125 
L 2250 125 
L 2250 500 
Q 2100 275 1900 175 
Q 1700 75 1425 75 
Q 925 75 575 437 
Q 225 800 225 1525 
Q 225 2250 575 2625 
Q 925 3000 1425 3000 
Q 1700 3000 1900 2887 
Q 2100 2775 2250 2550 
L 2250 4400 
L 2750 4400 
L 2750 125 
z
M 2250 1525 
Q 2250 2000 2037 2275 
Q 1825 2550 1525 2550 
Q 1150 2550 962 2275 
Q 775 2000 775 1525 
Q 775 1050 962 787 
Q 1150 525 1525 525 
Q 1825 525 2037 787 
Q 2250 1050 2250 1525 
z
" transform="scale(0.015625)"/>
       <path id="SimHei-65" d="M 2850 1075 
Q 2800 625 2450 350 
Q 2100 75 1625 75 
Q 1025 75 637 462 
Q 250 850 250 1525 
Q 250 2200 637 2587 
Q 1025 2975 1625 2975 
Q 2150 2975 2487 2637 
Q 2825 2300 2825 1525 
L 800 1525 
Q 800 975 1037 750 
Q 1275 525 1625 525 
Q 1900 525 2075 662 
Q 2250 800 2300 1075 
L 2850 1075 
z
M 2250 1925 
Q 2200 2275 2025 2412 
Q 1850 2550 1575 2550 
Q 1325 2550 1125 2412 
Q 925 2275 825 1925 
L 2250 1925 
z
" transform="scale(0.015625)"/>
      </defs>
      <use xlink:href="#SimHei-45"/>
      <use xlink:href="#SimHei-70" transform="translate(50 0)"/>
      <use xlink:href="#SimHei-69" transform="translate(100 0)"/>
      <use xlink:href="#SimHei-73" transform="translate(150 0)"/>
      <use xlink:href="#SimHei-6f" transform="translate(200 0)"/>
      <use xlink:href="#SimHei-64" transform="translate(250 0)"/>
      <use xlink:href="#SimHei-65" transform="translate(300 0)"/>
     </g>
    </g>
   </g>
   <g id="matplotlib.axis_2">
    <g id="ytick_1">
     <g id="line2d_19">
      <path d="M 55.2 344.17756 
L 705.79 344.17756 
" clip-path="url(#p739436b001)" style="fill: none; stroke: #b0b0b0; stroke-opacity: 0.3; stroke-width: 0.8; stroke-linecap: square"/>
     </g>
     <g id="line2d_20">
      <defs>
       <path id="m0e79d9a579" d="M 0 0 
L -3.5 0 
" style="stroke: #000000; stroke-width: 0.8"/>
      </defs>
      <g>
       <use xlink:href="#m0e79d9a579" x="55.2" y="344.17756" style="stroke: #000000; stroke-width: 0.8"/>
      </g>
     </g>
     <g id="text_11">
      <!-- 1100 -->
      <g transform="translate(24.2 348.30256) scale(0.12 -0.12)">
       <use xlink:href="#SimHei-31"/>
       <use xlink:href="#SimHei-31" transform="translate(50 0)"/>
       <use xlink:href="#SimHei-30" transform="translate(100 0)"/>
       <use xlink:href="#SimHei-30" transform="translate(150 0)"/>
      </g>
     </g>
    </g>
    <g id="ytick_2">
     <g id="line2d_21">
      <path d="M 55.2 279.092389 
L 705.79 279.092389 
" clip-path="url(#p739436b001)" style="fill: none; stroke: #b0b0b0; stroke-opacity: 0.3; stroke-width: 0.8; stroke-linecap: square"/>
     </g>
     <g id="line2d_22">
      <g>
       <use xlink:href="#m0e79d9a579" x="55.2" y="279.092389" style="stroke: #000000; stroke-width: 0.8"/>
      </g>
     </g>
     <g id="text_12">
      <!-- 1200 -->
      <g transform="translate(24.2 283.217389) scale(0.12 -0.12)">
       <use xlink:href="#SimHei-31"/>
       <use xlink:href="#SimHei-32" transform="translate(50 0)"/>
       <use xlink:href="#SimHei-30" transform="translate(100 0)"/>
       <use xlink:href="#SimHei-30" transform="translate(150 0)"/>
      </g>
     </g>
    </g>
    <g id="ytick_3">
     <g id="line2d_23">
      <path d="M 55.2 214.007218 
L 705.79 214.007218 
" clip-path="url(#p739436b001)" style="fill: none; stroke: #b0b0b0; stroke-opacity: 0.3; stroke-width: 0.8; stroke-linecap: square"/>
     </g>
     <g id="line2d_24">
      <g>
       <use xlink:href="#m0e79d9a579" x="55.2" y="214.007218" style="stroke: #000000; stroke-width: 0.8"/>
      </g>
     </g>
     <g id="text_13">
      <!-- 1300 -->
      <g transform="translate(24.2 218.132218) scale(0.12 -0.12)">
       <use xlink:href="#SimHei-31"/>
       <use xlink:href="#SimHei-33" transform="translate(50 0)"/>
       <use xlink:href="#SimHei-30" transform="translate(100 0)"/>
       <use xlink:href="#SimHei-30" transform="translate(150 0)"/>
      </g>
     </g>
    </g>
    <g id="ytick_4">
     <g id="line2d_25">
      <path d="M 55.2 148.922048 
L 705.79 148.922048 
" clip-path="url(#p739436b001)" style="fill: none; stroke: #b0b0b0; stroke-opacity: 0.3; stroke-width: 0.8; stroke-linecap: square"/>
     </g>
     <g id="line2d_26">
      <g>
       <use xlink:href="#m0e79d9a579" x="55.2" y="148.922048" style="stroke: #000000; stroke-width: 0.8"/>
      </g>
     </g>
     <g id="text_14">
      <!-- 1400 -->
      <g transform="translate(24.2 153.047048) scale(0.12 -0.12)">
       <use xlink:href="#SimHei-31"/>
       <use xlink:href="#SimHei-34" transform="translate(50 0)"/>
       <use xlink:href="#SimHei-30" transform="translate(100 0)"/>
       <use xlink:href="#SimHei-30" transform="translate(150 0)"/>
      </g>
     </g>
    </g>
    <g id="ytick_5">
     <g id="line2d_27">
      <path d="M 55.2 83.836877 
L 705.79 83.836877 
" clip-path="url(#p739436b001)" style="fill: none; stroke: #b0b0b0; stroke-opacity: 0.3; stroke-width: 0.8; stroke-linecap: square"/>
     </g>
     <g id="line2d_28">
      <g>
       <use xlink:href="#m0e79d9a579" x="55.2" y="83.836877" style="stroke: #000000; stroke-width: 0.8"/>
      </g>
     </g>
     <g id="text_15">
      <!-- 1500 -->
      <g transform="translate(24.2 87.961877) scale(0.12 -0.12)">
       <use xlink:href="#SimHei-31"/>
       <use xlink:href="#SimHei-35" transform="translate(50 0)"/>
       <use xlink:href="#SimHei-30" transform="translate(100 0)"/>
       <use xlink:href="#SimHei-30" transform="translate(150 0)"/>
      </g>
     </g>
    </g>
    <g id="text_16">
     <!-- Total Reward -->
     <g transform="translate(18.2 252.105) rotate(-90) scale(0.16 -0.16)">
      <defs>
       <path id="SimHei-54" d="M 2850 3925 
L 1850 3925 
L 1850 125 
L 1275 125 
L 1275 3925 
L 275 3925 
L 275 4400 
L 2850 4400 
L 2850 3925 
z
" transform="scale(0.015625)"/>
       <path id="SimHei-74" d="M 2750 200 
Q 2625 150 2462 112 
Q 2300 75 2025 75 
Q 1575 75 1300 325 
Q 1025 575 1025 1025 
L 1025 2525 
L 175 2525 
L 175 2925 
L 1025 2925 
L 1025 3900 
L 1525 3900 
L 1525 2925 
L 2550 2925 
L 2550 2525 
L 1525 2525 
L 1525 1000 
Q 1525 800 1625 662 
Q 1725 525 2000 525 
Q 2275 525 2450 575 
Q 2625 625 2750 700 
L 2750 200 
z
" transform="scale(0.015625)"/>
       <path id="SimHei-61" d="M 2875 125 
L 2275 125 
Q 2225 175 2200 262 
Q 2175 350 2175 475 
Q 2000 275 1750 175 
Q 1500 75 1225 75 
Q 825 75 550 275 
Q 275 475 275 850 
Q 275 1225 525 1450 
Q 775 1675 1300 1750 
Q 1650 1800 1912 1875 
Q 2175 1950 2175 2075 
Q 2175 2225 2062 2375 
Q 1950 2525 1575 2525 
Q 1275 2525 1137 2412 
Q 1000 2300 950 2100 
L 400 2100 
Q 450 2500 762 2737 
Q 1075 2975 1575 2975 
Q 2125 2975 2400 2725 
Q 2675 2475 2675 2025 
L 2675 650 
Q 2675 500 2725 375 
Q 2775 250 2875 125 
z
M 2175 1050 
L 2175 1550 
Q 2025 1500 1887 1462 
Q 1750 1425 1425 1375 
Q 1050 1325 937 1200 
Q 825 1075 825 900 
Q 825 750 937 637 
Q 1050 525 1275 525 
Q 1500 525 1762 650 
Q 2025 775 2175 1050 
z
" transform="scale(0.015625)"/>
       <path id="SimHei-6c" d="M 1825 125 
L 1325 125 
L 1325 4400 
L 1825 4400 
L 1825 125 
z
" transform="scale(0.015625)"/>
       <path id="SimHei-20" transform="scale(0.015625)"/>
       <path id="SimHei-52" d="M 3000 125 
L 2400 125 
L 1500 1975 
L 850 1975 
L 850 125 
L 275 125 
L 275 4400 
L 1525 4400 
Q 2125 4400 2500 4112 
Q 2875 3825 2875 3175 
Q 2875 2675 2625 2400 
Q 2375 2125 2050 2050 
L 3000 125 
z
M 2300 3175 
Q 2300 3525 2087 3725 
Q 1875 3925 1400 3925 
L 850 3925 
L 850 2450 
L 1550 2450 
Q 1850 2450 2075 2612 
Q 2300 2775 2300 3175 
z
" transform="scale(0.015625)"/>
       <path id="SimHei-77" d="M 3075 2925 
L 2450 75 
L 1975 75 
L 1575 2250 
L 1525 2250 
L 1125 75 
L 650 75 
L 25 2925 
L 550 2925 
L 875 1050 
L 925 1050 
L 1275 2925 
L 1825 2925 
L 2175 1050 
L 2225 1050 
L 2550 2925 
L 3075 2925 
z
" transform="scale(0.015625)"/>
       <path id="SimHei-72" d="M 2500 2425 
Q 2025 2500 1700 2287 
Q 1375 2075 1150 1550 
L 1150 125 
L 650 125 
L 650 2925 
L 1150 2925 
L 1150 2200 
Q 1375 2600 1712 2787 
Q 2050 2975 2500 2975 
L 2500 2425 
z
" transform="scale(0.015625)"/>
      </defs>
      <use xlink:href="#SimHei-54"/>
      <use xlink:href="#SimHei-6f" transform="translate(50 0)"/>
      <use xlink:href="#SimHei-74" transform="translate(100 0)"/>
      <use xlink:href="#SimHei-61" transform="translate(150 0)"/>
      <use xlink:href="#SimHei-6c" transform="translate(200 0)"/>
      <use xlink:href="#SimHei-20" transform="translate(250 0)"/>
      <use xlink:href="#SimHei-52" transform="translate(300 0)"/>
      <use xlink:href="#SimHei-65" transform="translate(350 0)"/>
      <use xlink:href="#SimHei-77" transform="translate(400 0)"/>
      <use xlink:href="#SimHei-61" transform="translate(450 0)"/>
      <use xlink:href="#SimHei-72" transform="translate(500 0)"/>
      <use xlink:href="#SimHei-64" transform="translate(550 0)"/>
     </g>
    </g>
   </g>
   <g id="line2d_29">
    <path d="M 84.772273 349.514594 
L 86.254592 340.495438 
L 87.736912 312.066112 
L 89.219231 291.070209 
L 90.70155 267.387796 
L 92.18387 247.516852 
L 93.666189 233.001387 
L 96.630828 195.376444 
L 98.113148 179.529607 
L 101.077787 160.866942 
L 102.560106 154.605805 
L 104.042425 145.924695 
L 105.524745 139.016805 
L 107.007064 129.989083 
L 108.489384 127.610063 
L 111.454023 110.83048 
L 114.418661 91.074487 
L 115.900981 84.106497 
L 117.3833 79.160622 
L 118.86562 81.470679 
L 120.347939 83.56417 
L 121.830259 81.911498 
L 123.312578 80.930776 
L 124.794897 78.828424 
L 126.277217 76.221785 
L 127.759536 72.004276 
L 129.241856 69.082713 
L 130.724175 67.3242 
L 132.206495 66.84752 
L 133.688814 60.896658 
L 135.171134 59.235423 
L 136.653453 58.637501 
L 138.135772 54.319198 
L 139.618092 52.762477 
L 141.100411 52.829216 
L 142.582731 57.777436 
L 144.06505 59.316639 
L 145.54737 60.654151 
L 147.029689 59.267433 
L 148.512008 58.823507 
L 149.994328 60.230923 
L 151.476647 61.479562 
L 152.958967 62.879129 
L 154.441286 60.047451 
L 155.923606 62.75382 
L 157.405925 60.032312 
L 158.888244 59.253481 
L 160.370564 57.789533 
L 161.852883 61.113816 
L 163.335203 62.701411 
L 164.817522 59.576359 
L 166.299842 58.763457 
L 167.782161 65.750475 
L 169.264481 64.472201 
L 170.7468 66.477908 
L 172.229119 66.156717 
L 173.711439 64.888308 
L 175.193758 66.879976 
L 176.676078 59.509478 
L 178.158397 59.905786 
L 179.640717 57.335888 
L 181.123036 61.127429 
L 182.605355 60.12916 
L 184.087675 58.052682 
L 185.569994 57.020328 
L 187.052314 53.683493 
L 188.534633 50.996242 
L 190.016953 47.708688 
L 191.499272 47.404604 
L 192.981591 50.893983 
L 194.463911 56.510026 
L 195.94623 58.089532 
L 197.42855 56.228426 
L 198.910869 58.03501 
L 200.393189 57.837395 
L 201.875508 51.101441 
L 203.357828 55.320554 
L 204.840147 57.015219 
L 206.322466 48.639967 
L 207.804786 50.494131 
L 209.287105 48.43768 
L 210.769425 47.557245 
L 212.251744 46.337905 
L 213.734064 47.446397 
L 215.216383 47.603862 
L 216.698702 49.278315 
L 218.181022 49.78706 
L 219.663341 49.690376 
L 221.145661 51.127825 
L 222.62798 51.898665 
L 224.1103 51.853702 
L 227.074938 58.11408 
L 228.557258 58.617071 
L 230.039577 51.409214 
L 231.521897 50.183208 
L 233.004216 51.514855 
L 234.486536 55.479366 
L 235.968855 52.210156 
L 237.451175 51.923345 
L 238.933494 52.992194 
L 240.415813 54.308684 
L 241.898133 59.513161 
L 243.380452 61.480188 
L 244.862772 61.891558 
L 246.345091 64.069592 
L 247.827411 64.388832 
L 249.30973 61.023275 
L 250.792049 62.138371 
L 252.274369 58.251542 
L 253.756688 63.016696 
L 255.239008 61.522134 
L 256.721327 57.7299 
L 258.203647 59.872454 
L 261.168285 57.083016 
L 262.650605 55.456437 
L 265.615244 53.229431 
L 268.579883 67.903716 
L 270.062202 67.666582 
L 271.544522 66.589249 
L 273.026841 61.443277 
L 274.50916 61.328766 
L 275.99148 65.085307 
L 277.473799 64.970977 
L 278.956119 61.251976 
L 280.438438 54.118665 
L 281.920758 61.345479 
L 283.403077 58.05455 
L 286.367716 64.002617 
L 287.850035 62.965713 
L 289.332355 60.976588 
L 290.814674 60.655351 
L 292.296994 60.80199 
L 293.779313 62.842502 
L 295.261632 64.421634 
L 296.743952 69.055015 
L 298.226271 73.062182 
L 299.708591 68.97407 
L 301.19091 69.23071 
L 302.67323 63.738034 
L 304.155549 60.8813 
L 305.637869 64.916098 
L 307.120188 66.276606 
L 308.602507 63.853934 
L 311.567146 62.634595 
L 313.049466 57.148859 
L 314.531785 57.525905 
L 316.014105 58.157111 
L 317.496424 59.960882 
L 318.978743 66.576452 
L 320.461063 67.688408 
L 321.943382 68.327807 
L 323.425702 63.154741 
L 324.908021 63.352648 
L 326.390341 66.97368 
L 327.87266 65.309263 
L 329.354979 64.648237 
L 330.837299 60.711314 
L 332.319618 54.647638 
L 333.801938 59.556098 
L 335.284257 62.561258 
L 336.766577 62.26302 
L 338.248896 66.56067 
L 339.731216 67.013677 
L 341.213535 62.668364 
L 342.695854 62.143747 
L 344.178174 58.704238 
L 345.660493 57.850723 
L 347.142813 63.230166 
L 348.625132 62.774226 
L 350.107452 64.351639 
L 351.589771 60.190158 
L 353.07209 57.688869 
L 354.55441 59.361407 
L 356.036729 56.504023 
L 357.519049 54.187697 
L 359.001368 56.45836 
L 360.483688 53.459058 
L 361.966007 51.293515 
L 363.448326 52.853952 
L 364.930646 50.344218 
L 366.412965 49.796911 
L 367.895285 50.001344 
L 369.377604 52.479078 
L 370.859924 49.932654 
L 372.342243 58.798958 
L 373.824563 59.214214 
L 375.306882 58.369999 
L 376.789201 56.947001 
L 378.271521 58.230545 
L 379.75384 58.406073 
L 381.23616 63.54363 
L 382.718479 65.533714 
L 384.200799 59.246493 
L 385.683118 58.502294 
L 387.165437 58.349434 
L 388.647757 56.455833 
L 390.130076 56.346103 
L 391.612396 55.594899 
L 393.094715 56.580684 
L 394.577035 60.482145 
L 396.059354 60.286362 
L 397.541674 58.215288 
L 399.023993 62.009868 
L 400.506312 60.760695 
L 401.988632 56.957328 
L 403.470951 55.094828 
L 404.953271 51.252656 
L 406.43559 55.492402 
L 407.91791 62.521993 
L 409.400229 56.441968 
L 410.882548 56.347335 
L 412.364868 58.195482 
L 413.847187 58.505637 
L 415.329507 61.237091 
L 416.811826 62.884502 
L 418.294146 53.36811 
L 419.776465 55.608629 
L 421.258784 58.164336 
L 422.741104 55.707567 
L 424.223423 57.414346 
L 425.705743 56.221028 
L 427.188062 57.160087 
L 428.670382 60.085 
L 430.152701 64.159309 
L 431.635021 64.885362 
L 433.11734 67.600467 
L 434.599659 67.454574 
L 436.081979 66.623816 
L 437.564298 61.632165 
L 439.046618 64.904972 
L 440.528937 66.365464 
L 442.011257 60.467494 
L 443.493576 55.559016 
L 444.975895 58.601528 
L 446.458215 51.381286 
L 447.940534 49.568837 
L 449.422854 47.970447 
L 450.905173 40.878293 
L 452.387493 48.540466 
L 453.869812 47.114599 
L 455.352131 50.985557 
L 456.834451 56.993502 
L 458.31677 60.538923 
L 459.79909 57.176499 
L 461.281409 56.95382 
L 462.763729 52.146564 
L 464.246048 56.700653 
L 465.728368 57.597675 
L 467.210687 60.341091 
L 468.693006 61.569606 
L 470.175326 61.617161 
L 471.657645 62.105375 
L 473.139965 60.987863 
L 474.622284 55.294135 
L 476.104604 58.376919 
L 477.586923 63.399272 
L 479.069242 63.305737 
L 480.551562 60.611156 
L 482.033881 63.011057 
L 483.516201 58.926367 
L 484.99852 60.531201 
L 486.48084 67.206631 
L 487.963159 65.388934 
L 489.445478 64.184681 
L 490.927798 60.792708 
L 492.410117 64.724086 
L 493.892437 65.416209 
L 495.374756 65.58694 
L 496.857076 64.714723 
L 498.339395 69.009108 
L 499.821715 66.856189 
L 501.304034 64.285286 
L 502.786353 64.437978 
L 504.268673 61.695022 
L 505.750992 57.922247 
L 507.233312 55.286998 
L 508.715631 58.503194 
L 510.197951 59.711967 
L 511.68027 58.956326 
L 513.162589 64.612631 
L 514.644909 67.962638 
L 516.127228 68.040773 
L 517.609548 66.913161 
L 519.091867 66.370475 
L 520.574187 67.072023 
L 522.056506 63.557753 
L 523.538825 62.704493 
L 525.021145 58.343229 
L 526.503464 60.182098 
L 527.985784 59.945645 
L 529.468103 60.507637 
L 530.950423 65.841852 
L 532.432742 63.111679 
L 533.915062 65.983981 
L 535.397381 64.349934 
L 536.8797 60.539036 
L 538.36202 63.446952 
L 539.844339 68.541516 
L 542.808978 65.613209 
L 544.291298 67.342408 
L 545.773617 70.719367 
L 547.255936 68.877795 
L 548.738256 64.664732 
L 550.220575 65.726471 
L 551.702895 69.296067 
L 553.185214 64.841629 
L 554.667534 61.428112 
L 556.149853 60.231645 
L 557.632172 60.214978 
L 559.114492 60.515274 
L 562.079131 53.554884 
L 563.56145 54.706339 
L 565.04377 53.785032 
L 566.526089 56.155582 
L 568.008409 55.127686 
L 569.490728 58.905021 
L 570.973047 58.539261 
L 572.455367 58.384012 
L 573.937686 55.490525 
L 575.420006 62.044307 
L 578.384645 73.622191 
L 579.866964 71.530736 
L 581.349283 72.040415 
L 582.831603 70.594802 
L 584.313922 67.97681 
L 585.796242 69.384716 
L 587.278561 75.114386 
L 588.760881 77.21096 
L 590.2432 72.053566 
L 591.725519 65.699148 
L 593.207839 65.852948 
L 594.690158 60.468669 
L 596.172478 61.815149 
L 597.654797 66.67241 
L 599.137117 68.056701 
L 600.619436 67.186344 
L 602.101756 65.51019 
L 603.584075 64.331093 
L 605.066394 62.969871 
L 606.548714 55.998772 
L 608.031033 57.170718 
L 609.513353 53.316513 
L 610.995672 52.884987 
L 612.477992 55.878393 
L 613.960311 60.173628 
L 615.44263 60.670747 
L 616.92495 56.978633 
L 618.407269 60.594849 
L 619.889589 57.312824 
L 621.371908 61.820441 
L 622.854228 58.212556 
L 624.336547 62.564773 
L 625.818866 64.397675 
L 627.301186 63.086607 
L 628.783505 63.098584 
L 630.265825 64.152281 
L 631.748144 69.943138 
L 633.230464 66.234449 
L 634.712783 66.881499 
L 636.195103 65.502438 
L 637.677422 63.736568 
L 639.159741 60.598067 
L 640.642061 58.543866 
L 642.12438 58.868656 
L 643.6067 60.350036 
L 645.089019 61.003221 
L 646.571339 59.057488 
L 648.053658 61.331237 
L 649.535977 63.926258 
L 651.018297 64.385781 
L 653.982936 59.979808 
L 655.465255 61.786415 
L 656.947575 65.553306 
L 658.429894 62.526116 
L 659.912213 62.123146 
L 661.394533 66.759183 
L 662.876852 67.999925 
L 664.359172 69.419069 
L 665.841491 70.449792 
L 667.323811 63.286884 
L 668.80613 62.092131 
L 670.28845 58.627215 
L 671.770769 58.631339 
L 673.253088 59.91733 
L 674.735408 54.382342 
L 676.217727 55.545252 
L 676.217727 55.545252 
" clip-path="url(#p739436b001)" style="fill: none; stroke: #1f77b4; stroke-width: 1.5; stroke-linecap: square"/>
   </g>
   <g id="line2d_30">
    <path d="M 84.772273 344.878537 
L 86.254592 325.304108 
L 87.736912 297.549429 
L 89.219231 272.04682 
L 90.70155 254.909308 
L 92.18387 231.237497 
L 93.666189 214.764193 
L 95.148509 194.912474 
L 98.113148 163.369341 
L 101.077787 140.796793 
L 102.560106 133.184558 
L 104.042425 129.664868 
L 105.524745 122.806931 
L 107.007064 119.551627 
L 108.489384 115.990112 
L 109.971703 111.429093 
L 112.936342 103.139148 
L 114.418661 100.993982 
L 115.900981 92.280685 
L 117.3833 86.344656 
L 118.86562 84.392324 
L 120.347939 93.815114 
L 121.830259 91.766449 
L 123.312578 85.333913 
L 124.794897 85.141033 
L 127.759536 79.210585 
L 129.241856 79.064771 
L 130.724175 74.291205 
L 132.206495 72.895028 
L 133.688814 70.685987 
L 135.171134 66.701484 
L 136.653453 62.38588 
L 138.135772 60.059295 
L 139.618092 64.647138 
L 141.100411 65.996821 
L 142.582731 71.535525 
L 144.06505 70.456966 
L 145.54737 68.273526 
L 147.029689 66.916624 
L 148.512008 68.03631 
L 149.994328 64.508272 
L 151.476647 72.051085 
L 152.958967 64.686367 
L 154.441286 62.15941 
L 155.923606 64.04432 
L 157.405925 63.275785 
L 158.888244 62.657818 
L 160.370564 58.386662 
L 161.852883 59.150754 
L 163.335203 55.167435 
L 164.817522 55.204375 
L 166.299842 58.323267 
L 167.782161 56.154188 
L 169.264481 55.413761 
L 170.7468 60.429287 
L 172.229119 57.292927 
L 173.711439 56.229269 
L 175.193758 62.123525 
L 176.676078 58.230849 
L 178.158397 58.427616 
L 179.640717 59.737251 
L 181.123036 56.542368 
L 182.605355 62.797953 
L 185.569994 54.969546 
L 188.534633 49.549729 
L 190.016953 48.17424 
L 191.499272 48.431175 
L 192.981591 50.653718 
L 194.463911 52.462419 
L 195.94623 55.057151 
L 197.42855 55.93486 
L 200.393189 54.013835 
L 201.875508 51.028557 
L 203.357828 52.427987 
L 204.840147 48.066607 
L 206.322466 48.114073 
L 207.804786 52.757396 
L 209.287105 50.908671 
L 210.769425 48.763456 
L 212.251744 56.816829 
L 213.734064 56.125826 
L 215.216383 57.106752 
L 216.698702 60.563273 
L 218.181022 54.441074 
L 219.663341 49.87234 
L 221.145661 49.761818 
L 222.62798 52.187118 
L 224.1103 50.564814 
L 225.592619 54.329884 
L 227.074938 55.574003 
L 228.557258 54.329211 
L 230.039577 56.377338 
L 231.521897 56.267011 
L 233.004216 59.182488 
L 234.486536 61.106631 
L 235.968855 57.288355 
L 237.451175 58.188108 
L 238.933494 59.741048 
L 240.415813 53.125379 
L 241.898133 51.449123 
L 244.862772 56.50004 
L 246.345091 55.200552 
L 247.827411 53.143407 
L 249.30973 55.547784 
L 250.792049 59.456374 
L 252.274369 56.334649 
L 253.756688 54.647418 
L 255.239008 52.322653 
L 256.721327 58.185141 
L 258.203647 60.294189 
L 261.168285 52.198838 
L 262.650605 47.91742 
L 264.132924 48.290088 
L 267.097563 62.288469 
L 268.579883 66.499094 
L 270.062202 64.729988 
L 273.026841 61.941627 
L 274.50916 66.937566 
L 275.99148 67.783147 
L 278.956119 55.829005 
L 280.438438 52.892566 
L 281.920758 53.345478 
L 283.403077 54.921544 
L 284.885396 54.128013 
L 286.367716 57.537287 
L 287.850035 60.105043 
L 289.332355 62.079793 
L 290.814674 62.647966 
L 292.296994 64.522707 
L 293.779313 65.983929 
L 295.261632 66.302731 
L 296.743952 69.56115 
L 298.226271 68.412107 
L 299.708591 65.060457 
L 301.19091 62.665237 
L 302.67323 60.540593 
L 304.155549 55.001902 
L 305.637869 56.038054 
L 307.120188 54.908135 
L 308.602507 54.437816 
L 310.084827 57.292168 
L 311.567146 55.063846 
L 313.049466 59.492535 
L 314.531785 56.22022 
L 316.014105 57.711846 
L 317.496424 59.657665 
L 318.978743 67.739179 
L 320.461063 68.326453 
L 321.943382 65.69877 
L 323.425702 68.675642 
L 324.908021 61.38289 
L 326.390341 60.168648 
L 327.87266 61.038632 
L 329.354979 56.410334 
L 330.837299 52.36121 
L 332.319618 53.164248 
L 333.801938 59.110677 
L 335.284257 53.52114 
L 336.766577 52.483229 
L 338.248896 58.974833 
L 339.731216 59.03482 
L 341.213535 60.263235 
L 342.695854 63.17626 
L 344.178174 61.147532 
L 345.660493 59.922166 
L 347.142813 55.568278 
L 348.625132 60.714457 
L 350.107452 63.003312 
L 351.589771 60.244502 
L 353.07209 55.779298 
L 354.55441 53.84101 
L 356.036729 54.329283 
L 357.519049 51.021792 
L 359.001368 51.170743 
L 360.483688 51.191769 
L 361.966007 52.775055 
L 363.448326 52.913455 
L 364.930646 54.764527 
L 366.412965 49.101107 
L 367.895285 53.618816 
L 369.377604 56.179034 
L 370.859924 57.297785 
L 372.342243 60.008227 
L 373.824563 53.938481 
L 375.306882 55.785038 
L 376.789201 59.694834 
L 378.271521 61.236221 
L 379.75384 65.094884 
L 381.23616 66.933461 
L 382.718479 60.501732 
L 384.200799 50.506227 
L 385.683118 46.555255 
L 387.165437 45.888626 
L 390.130076 40.866941 
L 391.612396 41.334929 
L 393.094715 44.392385 
L 394.577035 48.577349 
L 396.059354 51.036258 
L 397.541674 54.149771 
L 399.023993 53.294115 
L 400.506312 58.360896 
L 401.988632 56.994507 
L 403.470951 58.431771 
L 404.953271 55.797018 
L 406.43559 51.354114 
L 407.91791 53.865619 
L 409.400229 51.274482 
L 410.882548 52.679263 
L 412.364868 56.762384 
L 413.847187 58.822782 
L 415.329507 59.957451 
L 416.811826 59.669738 
L 418.294146 63.143843 
L 421.258784 65.535776 
L 422.741104 61.368997 
L 425.705743 66.144814 
L 427.188062 62.568481 
L 428.670382 66.005657 
L 430.152701 67.434018 
L 431.635021 74.658152 
L 433.11734 74.441215 
L 434.599659 71.459247 
L 436.081979 65.35702 
L 437.564298 63.899442 
L 439.046618 65.152571 
L 440.528937 62.638893 
L 442.011257 59.702465 
L 443.493576 59.74532 
L 444.975895 57.821927 
L 446.458215 55.342054 
L 447.940534 55.437352 
L 449.422854 55.648662 
L 450.905173 57.938777 
L 452.387493 60.805803 
L 453.869812 59.704379 
L 455.352131 58.90014 
L 456.834451 56.208233 
L 458.31677 57.352859 
L 459.79909 50.104495 
L 461.281409 44.54525 
L 462.763729 41.564195 
L 464.246048 46.190954 
L 465.728368 47.39189 
L 467.210687 51.220464 
L 468.693006 49.590033 
L 470.175326 51.049885 
L 471.657645 50.842002 
L 473.139965 47.659227 
L 474.622284 48.18316 
L 476.104604 49.277175 
L 477.586923 50.707334 
L 479.069242 50.580967 
L 480.551562 56.847186 
L 482.033881 54.371193 
L 483.516201 57.34631 
L 484.99852 56.819261 
L 486.48084 53.400776 
L 487.963159 57.653494 
L 489.445478 58.614529 
L 490.927798 59.926898 
L 492.410117 59.237618 
L 493.892437 63.065271 
L 495.374756 60.304348 
L 496.857076 58.58043 
L 498.339395 63.531632 
L 499.821715 58.869025 
L 501.304034 59.838021 
L 502.786353 61.496642 
L 504.268673 57.771189 
L 505.750992 57.513326 
L 507.233312 57.81534 
L 508.715631 60.083972 
L 510.197951 59.483669 
L 511.68027 61.041835 
L 513.162589 67.40038 
L 514.644909 72.029183 
L 516.127228 71.150926 
L 517.609548 65.79076 
L 519.091867 70.218887 
L 520.574187 69.70228 
L 522.056506 65.063903 
L 523.538825 63.286418 
L 525.021145 60.222114 
L 526.503464 58.632596 
L 527.985784 64.818293 
L 529.468103 59.835247 
L 530.950423 55.958104 
L 532.432742 53.350832 
L 533.915062 58.743906 
L 535.397381 53.749249 
L 536.8797 57.348522 
L 538.36202 54.544604 
L 539.844339 60.28114 
L 541.326659 58.729779 
L 542.808978 60.113891 
L 544.291298 62.775879 
L 545.773617 60.060451 
L 548.738256 61.374882 
L 550.220575 62.659032 
L 551.702895 63.330532 
L 553.185214 63.431686 
L 554.667534 64.015299 
L 556.149853 61.348107 
L 557.632172 58.361039 
L 559.114492 57.597188 
L 560.596811 59.859297 
L 562.079131 59.505008 
L 563.56145 58.05089 
L 565.04377 52.037695 
L 566.526089 51.590884 
L 568.008409 53.938209 
L 569.490728 53.200495 
L 570.973047 53.967799 
L 572.455367 53.895045 
L 573.937686 55.697137 
L 576.902325 67.912458 
L 578.384645 67.868825 
L 579.866964 65.374054 
L 581.349283 63.844908 
L 582.831603 64.359007 
L 584.313922 65.729478 
L 585.796242 67.507261 
L 587.278561 65.319247 
L 588.760881 62.148141 
L 590.2432 59.665833 
L 591.725519 57.677191 
L 593.207839 58.982084 
L 594.690158 59.837707 
L 596.172478 59.44495 
L 597.654797 57.326285 
L 599.137117 52.985273 
L 600.619436 51.808374 
L 602.101756 52.774092 
L 603.584075 51.265748 
L 605.066394 51.16329 
L 606.548714 49.750697 
L 608.031033 48.605435 
L 609.513353 47.312935 
L 610.995672 51.338842 
L 612.477992 55.935605 
L 613.960311 59.809275 
L 615.44263 57.280504 
L 616.92495 60.051236 
L 618.407269 59.301489 
L 619.889589 54.715689 
L 621.371908 50.966612 
L 622.854228 52.182855 
L 624.336547 55.374591 
L 625.818866 57.280939 
L 627.301186 56.896497 
L 628.783505 54.809466 
L 630.265825 59.498281 
L 631.748144 58.681866 
L 633.230464 61.930633 
L 634.712783 56.925947 
L 636.195103 62.106733 
L 637.677422 57.601812 
L 639.159741 58.84362 
L 640.642061 57.626785 
L 642.12438 61.632644 
L 643.6067 61.902356 
L 645.089019 60.787243 
L 646.571339 57.814917 
L 648.053658 59.85385 
L 649.535977 61.179357 
L 651.018297 57.308164 
L 652.500616 55.369285 
L 653.982936 56.188226 
L 655.465255 58.044501 
L 656.947575 63.333411 
L 658.429894 57.789679 
L 659.912213 55.82719 
L 661.394533 61.464469 
L 662.876852 65.094147 
L 664.359172 64.143924 
L 665.841491 60.378032 
L 667.323811 59.281602 
L 668.80613 57.277799 
L 670.28845 56.768914 
L 671.770769 56.636727 
L 673.253088 58.003989 
L 674.735408 53.348432 
L 676.217727 53.470666 
L 676.217727 53.470666 
" clip-path="url(#p739436b001)" style="fill: none; stroke: #ff7f0e; stroke-width: 1.5; stroke-linecap: square"/>
   </g>
   <g id="line2d_31">
    <path d="M 84.772273 303.323238 
L 86.254592 310.363207 
L 87.736912 314.56511 
L 89.219231 316.455242 
L 90.70155 316.693328 
L 92.18387 318.322943 
L 93.666189 312.745851 
L 95.148509 311.975825 
L 96.630828 293.182259 
L 98.113148 280.093104 
L 99.595467 269.11493 
L 101.077787 251.364095 
L 102.560106 248.782863 
L 104.042425 236.662937 
L 105.524745 223.395897 
L 107.007064 218.586446 
L 108.489384 206.106653 
L 109.971703 189.232927 
L 112.936342 165.885872 
L 114.418661 158.715512 
L 115.900981 152.097851 
L 118.86562 137.866052 
L 120.347939 133.762288 
L 121.830259 125.993564 
L 123.312578 123.6944 
L 124.794897 120.925483 
L 126.277217 120.692665 
L 127.759536 114.248406 
L 129.241856 109.161898 
L 130.724175 104.893374 
L 132.206495 93.488909 
L 133.688814 92.798963 
L 135.171134 85.973638 
L 136.653453 87.19306 
L 138.135772 84.227643 
L 139.618092 80.250686 
L 141.100411 79.570287 
L 142.582731 73.312009 
L 144.06505 74.542301 
L 145.54737 70.675799 
L 147.029689 68.79128 
L 148.512008 63.379646 
L 149.994328 65.167937 
L 151.476647 64.697802 
L 152.958967 56.395313 
L 154.441286 53.752711 
L 155.923606 51.673823 
L 157.405925 54.046274 
L 158.888244 50.104466 
L 160.370564 51.41768 
L 161.852883 53.110797 
L 164.817522 65.125858 
L 166.299842 62.295409 
L 167.782161 59.780499 
L 169.264481 63.196339 
L 170.7468 60.890663 
L 172.229119 65.645463 
L 173.711439 67.540647 
L 175.193758 64.999215 
L 176.676078 65.070408 
L 178.158397 63.080736 
L 179.640717 67.006169 
L 181.123036 63.674415 
L 182.605355 63.766751 
L 184.087675 60.238837 
L 185.569994 67.739078 
L 187.052314 66.508129 
L 188.534633 68.510276 
L 190.016953 73.91842 
L 191.499272 68.326868 
L 192.981591 66.13063 
L 194.463911 64.215577 
L 195.94623 60.342425 
L 197.42855 59.616022 
L 198.910869 52.735011 
L 200.393189 47.253998 
L 201.875508 46.030436 
L 203.357828 50.688955 
L 204.840147 46.541044 
L 206.322466 48.679377 
L 207.804786 52.451074 
L 209.287105 48.191687 
L 210.769425 50.791869 
L 212.251744 54.285506 
L 213.734064 52.4271 
L 215.216383 53.367828 
L 216.698702 57.96702 
L 218.181022 58.586214 
L 219.663341 60.767661 
L 221.145661 62.182612 
L 222.62798 64.466411 
L 224.1103 62.782901 
L 225.592619 61.658258 
L 227.074938 61.976657 
L 228.557258 62.003994 
L 230.039577 58.753044 
L 231.521897 61.573074 
L 233.004216 61.439092 
L 234.486536 61.134126 
L 235.968855 60.481537 
L 237.451175 57.679329 
L 238.933494 51.462706 
L 240.415813 53.093045 
L 241.898133 50.577581 
L 243.380452 51.030466 
L 246.345091 52.783382 
L 247.827411 52.454487 
L 249.30973 46.135065 
L 250.792049 45.829068 
L 252.274369 51.832502 
L 253.756688 52.346218 
L 255.239008 51.577678 
L 256.721327 50.536627 
L 258.203647 54.331787 
L 259.685966 54.78626 
L 261.168285 56.609556 
L 262.650605 60.263309 
L 264.132924 55.131879 
L 265.615244 61.220668 
L 267.097563 60.836918 
L 268.579883 65.065942 
L 270.062202 58.848871 
L 271.544522 59.318692 
L 273.026841 56.970201 
L 274.50916 63.282206 
L 275.99148 66.246466 
L 277.473799 64.104463 
L 278.956119 67.247354 
L 280.438438 66.167568 
L 281.920758 66.479366 
L 283.403077 64.831641 
L 284.885396 59.830973 
L 286.367716 58.693418 
L 287.850035 58.881947 
L 289.332355 66.958601 
L 290.814674 62.519651 
L 292.296994 63.488824 
L 293.779313 61.168954 
L 295.261632 57.703591 
L 296.743952 51.165941 
L 298.226271 56.198808 
L 299.708591 50.312207 
L 301.19091 54.385575 
L 302.67323 54.534995 
L 304.155549 48.68585 
L 305.637869 47.842998 
L 307.120188 47.465559 
L 308.602507 45.1828 
L 310.084827 44.198404 
L 311.567146 40.668636 
L 313.049466 45.534196 
L 314.531785 51.260781 
L 316.014105 51.007839 
L 317.496424 50.38789 
L 320.461063 51.100003 
L 321.943382 57.573443 
L 323.425702 54.283637 
L 324.908021 55.257935 
L 326.390341 56.478499 
L 327.87266 60.324124 
L 329.354979 64.702631 
L 330.837299 64.330516 
L 332.319618 65.275182 
L 333.801938 64.868821 
L 335.284257 63.003376 
L 336.766577 64.748185 
L 339.731216 67.586204 
L 341.213535 71.388272 
L 342.695854 70.94053 
L 344.178174 66.718983 
L 345.660493 65.089523 
L 347.142813 59.377222 
L 348.625132 62.29116 
L 350.107452 60.064627 
L 351.589771 57.257103 
L 353.07209 57.779716 
L 354.55441 55.636494 
L 356.036729 51.925893 
L 357.519049 49.821774 
L 359.001368 47.448266 
L 360.483688 48.465908 
L 361.966007 53.093697 
L 363.448326 51.559392 
L 364.930646 54.515422 
L 366.412965 51.150441 
L 367.895285 50.729334 
L 369.377604 49.110522 
L 370.859924 48.364896 
L 372.342243 49.576513 
L 373.824563 51.150726 
L 375.306882 49.216876 
L 376.789201 46.499782 
L 378.271521 45.247553 
L 379.75384 46.098022 
L 381.23616 51.93537 
L 382.718479 56.486323 
L 384.200799 51.592456 
L 385.683118 60.606696 
L 387.165437 59.088432 
L 388.647757 58.735001 
L 390.130076 60.682723 
L 393.094715 62.557035 
L 394.577035 63.395631 
L 396.059354 61.675382 
L 397.541674 57.134774 
L 399.023993 55.382691 
L 400.506312 61.054731 
L 401.988632 55.156917 
L 403.470951 57.131906 
L 404.953271 57.195296 
L 406.43559 52.857045 
L 407.91791 58.440676 
L 409.400229 59.958025 
L 410.882548 57.757373 
L 412.364868 56.167533 
L 413.847187 59.703967 
L 415.329507 61.63217 
L 416.811826 60.800457 
L 418.294146 62.093935 
L 419.776465 61.931481 
L 421.258784 62.004235 
L 422.741104 67.286617 
L 424.223423 65.566141 
L 425.705743 68.558501 
L 427.188062 66.667513 
L 428.670382 66.016773 
L 430.152701 63.290096 
L 431.635021 63.691396 
L 433.11734 62.701035 
L 434.599659 61.914657 
L 436.081979 59.238205 
L 437.564298 59.925656 
L 439.046618 62.776106 
L 440.528937 56.738073 
L 442.011257 61.166332 
L 443.493576 59.128024 
L 444.975895 61.898637 
L 446.458215 55.810452 
L 447.940534 56.170943 
L 449.422854 57.645856 
L 450.905173 59.93915 
L 452.387493 62.634228 
L 453.869812 64.022835 
L 455.352131 58.95915 
L 456.834451 50.655598 
L 458.31677 48.415613 
L 459.79909 45.276816 
L 461.281409 52.620796 
L 462.763729 57.021111 
L 464.246048 58.533779 
L 465.728368 62.482594 
L 467.210687 61.649428 
L 468.693006 62.08948 
L 470.175326 56.391482 
L 471.657645 53.894518 
L 473.139965 55.117483 
L 474.622284 53.906562 
L 476.104604 54.028081 
L 477.586923 57.90925 
L 479.069242 58.375358 
L 480.551562 68.867556 
L 482.033881 73.159059 
L 483.516201 70.683686 
L 484.99852 77.451104 
L 486.48084 74.475193 
L 487.963159 74.407452 
L 489.445478 72.217326 
L 490.927798 69.206218 
L 492.410117 70.658998 
L 493.892437 70.245793 
L 495.374756 70.056669 
L 496.857076 64.108954 
L 498.339395 65.105203 
L 499.821715 68.583773 
L 501.304034 63.92682 
L 502.786353 61.20796 
L 504.268673 63.846581 
L 505.750992 61.889858 
L 507.233312 59.436525 
L 508.715631 54.254061 
L 510.197951 56.344192 
L 513.162589 63.24937 
L 514.644909 65.12203 
L 516.127228 58.522534 
L 517.609548 61.538677 
L 519.091867 61.743457 
L 520.574187 59.991689 
L 522.056506 57.315583 
L 523.538825 55.572872 
L 525.021145 54.24344 
L 526.503464 55.527939 
L 527.985784 53.382515 
L 529.468103 54.410159 
L 530.950423 49.102391 
L 533.915062 46.91363 
L 535.397381 50.736792 
L 536.8797 51.647981 
L 538.36202 53.763514 
L 539.844339 58.90681 
L 541.326659 61.180713 
L 542.808978 56.162821 
L 544.291298 52.290401 
L 545.773617 57.869831 
L 547.255936 61.333713 
L 548.738256 56.464363 
L 550.220575 56.893794 
L 551.702895 53.937477 
L 553.185214 55.714076 
L 554.667534 58.425446 
L 556.149853 56.678189 
L 557.632172 54.436625 
L 559.114492 55.690242 
L 560.596811 58.2086 
L 562.079131 56.928234 
L 565.04377 58.208122 
L 566.526089 53.013528 
L 568.008409 59.619253 
L 569.490728 59.376856 
L 570.973047 53.192922 
L 572.455367 51.913663 
L 573.937686 51.924825 
L 575.420006 49.720705 
L 576.902325 50.270039 
L 578.384645 53.939477 
L 579.866964 56.351221 
L 581.349283 55.164328 
L 582.831603 53.000164 
L 584.313922 53.774393 
L 585.796242 53.122038 
L 587.278561 53.443985 
L 588.760881 56.670425 
L 590.2432 61.471471 
L 591.725519 62.548996 
L 593.207839 64.115719 
L 594.690158 64.176531 
L 596.172478 65.240507 
L 597.654797 68.526616 
L 599.137117 71.277284 
L 600.619436 68.953457 
L 602.101756 69.189975 
L 603.584075 66.606722 
L 605.066394 66.904662 
L 606.548714 65.446704 
L 608.031033 62.598825 
L 609.513353 65.216615 
L 610.995672 63.475091 
L 612.477992 65.973208 
L 613.960311 67.73457 
L 615.44263 68.457177 
L 616.92495 65.995248 
L 618.407269 60.422284 
L 619.889589 62.880204 
L 621.371908 66.362874 
L 622.854228 68.585472 
L 624.336547 68.765199 
L 625.818866 71.17838 
L 627.301186 71.744938 
L 628.783505 67.324739 
L 630.265825 71.698059 
L 631.748144 74.111306 
L 633.230464 73.642294 
L 634.712783 63.27203 
L 636.195103 65.88239 
L 637.677422 63.812107 
L 639.159741 64.233184 
L 640.642061 60.710782 
L 642.12438 59.433181 
L 643.6067 57.877824 
L 645.089019 58.109583 
L 646.571339 58.592081 
L 648.053658 51.834267 
L 649.535977 53.938176 
L 651.018297 57.730497 
L 652.500616 57.174502 
L 653.982936 53.732456 
L 655.465255 54.44726 
L 656.947575 55.028789 
L 658.429894 55.119228 
L 659.912213 53.470365 
L 661.394533 55.795364 
L 662.876852 54.142505 
L 664.359172 49.470953 
L 665.841491 52.433121 
L 667.323811 54.463607 
L 668.80613 56.154534 
L 670.28845 56.276545 
L 671.770769 58.084795 
L 673.253088 57.368106 
L 674.735408 68.121266 
L 676.217727 66.224113 
L 676.217727 66.224113 
" clip-path="url(#p739436b001)" style="fill: none; stroke: #2ca02c; stroke-width: 1.5; stroke-linecap: square"/>
   </g>
   <g id="line2d_32">
    <path d="M 84.772273 303.323238 
L 86.254592 317.569769 
L 87.736912 329.462495 
L 89.219231 338.198815 
L 90.70155 367.541364 
L 92.18387 344.631282 
L 93.666189 328.477636 
L 95.148509 302.921356 
L 96.630828 284.985144 
L 98.113148 260.164275 
L 99.595467 244.024542 
L 101.077787 231.075163 
L 104.042425 197.4745 
L 108.489384 157.968107 
L 109.971703 153.787533 
L 111.454023 135.728967 
L 112.936342 125.999409 
L 114.418661 121.26429 
L 115.900981 117.601479 
L 117.3833 113.228278 
L 118.86562 109.559784 
L 120.347939 106.365005 
L 121.830259 100.098882 
L 123.312578 97.520416 
L 124.794897 100.537887 
L 126.277217 94.715395 
L 127.759536 89.442561 
L 129.241856 87.479065 
L 130.724175 88.833511 
L 132.206495 84.468104 
L 133.688814 83.994536 
L 135.171134 77.671151 
L 136.653453 79.733699 
L 138.135772 81.537608 
L 139.618092 82.035769 
L 141.100411 84.714702 
L 142.582731 86.780126 
L 144.06505 89.600495 
L 145.54737 83.847408 
L 147.029689 83.299636 
L 148.512008 82.165983 
L 149.994328 77.417098 
L 151.476647 75.311104 
L 152.958967 72.628743 
L 154.441286 68.398021 
L 155.923606 70.095492 
L 157.405925 69.922444 
L 158.888244 63.720614 
L 160.370564 62.004039 
L 161.852883 68.401884 
L 163.335203 68.965169 
L 164.817522 76.334063 
L 166.299842 73.659256 
L 167.782161 74.491875 
L 169.264481 75.856092 
L 170.7468 70.422169 
L 172.229119 71.27049 
L 173.711439 71.194136 
L 175.193758 73.240487 
L 176.676078 72.743469 
L 178.158397 66.437298 
L 179.640717 67.541048 
L 181.123036 66.018422 
L 182.605355 70.0101 
L 184.087675 69.693319 
L 187.052314 72.66422 
L 188.534633 73.769346 
L 190.016953 77.903432 
L 191.499272 72.652546 
L 192.981591 65.368991 
L 194.463911 69.913326 
L 195.94623 66.1448 
L 197.42855 65.149436 
L 198.910869 61.61058 
L 200.393189 61.468661 
L 201.875508 58.792935 
L 203.357828 58.878073 
L 204.840147 53.623595 
L 206.322466 56.636232 
L 207.804786 60.066598 
L 209.287105 56.392857 
L 210.769425 63.24427 
L 212.251744 59.211316 
L 213.734064 55.542172 
L 215.216383 53.785058 
L 216.698702 55.481828 
L 218.181022 56.036612 
L 219.663341 57.276052 
L 221.145661 60.308626 
L 222.62798 61.330033 
L 224.1103 60.714155 
L 225.592619 61.526341 
L 227.074938 56.55158 
L 228.557258 55.041852 
L 230.039577 50.036365 
L 231.521897 52.215819 
L 233.004216 56.788421 
L 234.486536 55.943064 
L 235.968855 56.261454 
L 237.451175 57.963088 
L 238.933494 58.281694 
L 240.415813 59.848871 
L 241.898133 58.748401 
L 243.380452 52.413904 
L 244.862772 58.493808 
L 246.345091 63.361934 
L 247.827411 62.08534 
L 249.30973 60.569941 
L 250.792049 58.872126 
L 252.274369 63.835976 
L 253.756688 65.219544 
L 255.239008 62.533527 
L 256.721327 58.782804 
L 258.203647 56.601905 
L 259.685966 57.137527 
L 261.168285 58.463175 
L 262.650605 60.531612 
L 264.132924 57.908328 
L 265.615244 56.953644 
L 267.097563 57.832423 
L 268.579883 57.634725 
L 270.062202 60.984717 
L 271.544522 60.70258 
L 273.026841 56.088277 
L 274.50916 57.77602 
L 275.99148 61.436739 
L 277.473799 60.536399 
L 278.956119 64.347425 
L 280.438438 65.693305 
L 281.920758 58.660007 
L 283.403077 56.387157 
L 284.885396 60.017682 
L 286.367716 57.088338 
L 287.850035 58.449314 
L 289.332355 62.077317 
L 290.814674 61.687078 
L 292.296994 56.986781 
L 293.779313 57.189259 
L 295.261632 53.633258 
L 296.743952 52.869603 
L 298.226271 53.410791 
L 299.708591 58.907484 
L 301.19091 57.864276 
L 302.67323 58.087761 
L 304.155549 56.97155 
L 305.637869 56.189104 
L 307.120188 52.754475 
L 308.602507 53.499553 
L 310.084827 52.068259 
L 311.567146 56.623688 
L 313.049466 58.247076 
L 314.531785 58.843644 
L 316.014105 56.830638 
L 317.496424 53.673621 
L 318.978743 50.795018 
L 320.461063 52.188991 
L 323.425702 51.706462 
L 324.908021 48.473217 
L 326.390341 50.158197 
L 327.87266 49.522201 
L 329.354979 56.321297 
L 330.837299 61.285422 
L 332.319618 63.203304 
L 333.801938 64.10376 
L 335.284257 60.495857 
L 336.766577 60.398375 
L 338.248896 59.850369 
L 339.731216 57.783836 
L 341.213535 63.787397 
L 342.695854 66.179131 
L 344.178174 62.63223 
L 345.660493 63.826102 
L 347.142813 58.220594 
L 348.625132 61.009387 
L 350.107452 60.813004 
L 351.589771 59.62945 
L 353.07209 62.783015 
L 354.55441 61.783474 
L 356.036729 62.657565 
L 357.519049 59.8863 
L 359.001368 60.259362 
L 361.966007 64.164485 
L 363.448326 61.071021 
L 364.930646 64.102587 
L 366.412965 62.88457 
L 367.895285 65.337183 
L 369.377604 64.579014 
L 370.859924 65.606627 
L 372.342243 59.90154 
L 373.824563 60.791137 
L 375.306882 62.953977 
L 376.789201 60.413877 
L 378.271521 52.87198 
L 379.75384 51.612357 
L 381.23616 53.318071 
L 382.718479 47.743757 
L 384.200799 47.839755 
L 385.683118 45.908842 
L 387.165437 45.290215 
L 388.647757 43.941667 
L 390.130076 47.533668 
L 391.612396 48.950231 
L 394.577035 46.98091 
L 396.059354 42.285669 
L 397.541674 42.77088 
L 399.023993 41.819829 
L 400.506312 46.255223 
L 401.988632 49.101445 
L 403.470951 50.755741 
L 404.953271 46.381919 
L 406.43559 44.478804 
L 407.91791 52.541746 
L 409.400229 51.646085 
L 410.882548 49.407196 
L 412.364868 48.799223 
L 413.847187 45.072605 
L 415.329507 44.38554 
L 416.811826 43.844416 
L 418.294146 43.553605 
L 419.776465 48.80903 
L 421.258784 51.590213 
L 422.741104 49.917616 
L 424.223423 53.947559 
L 425.705743 53.099779 
L 427.188062 49.231095 
L 428.670382 50.328087 
L 431.635021 45.165439 
L 433.11734 49.410579 
L 434.599659 45.024926 
L 436.081979 43.717637 
L 437.564298 44.549262 
L 439.046618 44.21298 
L 440.528937 41.386566 
L 442.011257 45.17616 
L 443.493576 43.08934 
L 444.975895 42.93365 
L 446.458215 45.682008 
L 447.940534 42.424589 
L 449.422854 50.276691 
L 450.905173 53.649717 
L 452.387493 56.355734 
L 453.869812 55.138717 
L 455.352131 61.5305 
L 456.834451 55.109834 
L 458.31677 53.111928 
L 459.79909 49.422216 
L 461.281409 49.501108 
L 462.763729 52.287686 
L 464.246048 49.721775 
L 465.728368 48.730617 
L 467.210687 48.785663 
L 468.693006 48.986154 
L 470.175326 46.445099 
L 471.657645 47.485266 
L 473.139965 52.172609 
L 476.104604 54.229751 
L 477.586923 50.973174 
L 479.069242 49.155821 
L 480.551562 55.29716 
L 482.033881 57.536177 
L 483.516201 52.671983 
L 484.99852 58.804262 
L 486.48084 60.883275 
L 487.963159 58.00783 
L 489.445478 61.761483 
L 490.927798 55.837123 
L 492.410117 58.684329 
L 493.892437 56.958447 
L 495.374756 58.618916 
L 496.857076 54.817723 
L 498.339395 55.833315 
L 499.821715 58.069519 
L 501.304034 54.503418 
L 502.786353 47.691121 
L 505.750992 53.165638 
L 507.233312 50.79119 
L 508.715631 45.775193 
L 510.197951 45.339518 
L 511.68027 50.324718 
L 513.162589 56.411913 
L 514.644909 57.025579 
L 516.127228 56.780916 
L 517.609548 57.966976 
L 519.091867 62.685197 
L 520.574187 59.845389 
L 522.056506 64.238312 
L 523.538825 59.483332 
L 525.021145 61.936033 
L 526.503464 66.234388 
L 527.985784 60.680347 
L 529.468103 64.11854 
L 530.950423 62.363151 
L 532.432742 57.370433 
L 533.915062 59.270194 
L 535.397381 53.279422 
L 536.8797 49.076065 
L 538.36202 45.492541 
L 539.844339 46.958296 
L 541.326659 50.618869 
L 542.808978 50.232515 
L 544.291298 48.981787 
L 547.255936 54.101989 
L 548.738256 52.853626 
L 550.220575 58.15026 
L 551.702895 57.254189 
L 553.185214 57.19436 
L 554.667534 60.237787 
L 556.149853 64.14241 
L 557.632172 62.031132 
L 559.114492 65.638835 
L 560.596811 62.75225 
L 562.079131 57.534115 
L 563.56145 59.210467 
L 565.04377 58.44219 
L 566.526089 59.715675 
L 568.008409 59.67009 
L 569.490728 54.274566 
L 570.973047 52.962347 
L 572.455367 54.004919 
L 573.937686 57.394727 
L 575.420006 56.209853 
L 576.902325 54.165223 
L 579.866964 56.930184 
L 581.349283 58.929273 
L 582.831603 59.327969 
L 584.313922 59.017285 
L 585.796242 60.320028 
L 587.278561 59.808839 
L 588.760881 58.820326 
L 590.2432 64.108657 
L 591.725519 64.340024 
L 593.207839 63.807054 
L 594.690158 65.108723 
L 596.172478 70.059008 
L 597.654797 69.009997 
L 599.137117 74.617744 
L 600.619436 72.037876 
L 602.101756 65.80901 
L 603.584075 61.399132 
L 605.066394 61.099672 
L 606.548714 60.550823 
L 608.031033 60.44252 
L 609.513353 60.719857 
L 610.995672 61.791976 
L 612.477992 63.475661 
L 613.960311 62.503146 
L 615.44263 60.330517 
L 616.92495 61.630895 
L 618.407269 59.850212 
L 619.889589 55.520966 
L 621.371908 60.821023 
L 622.854228 61.890726 
L 624.336547 60.984866 
L 625.818866 59.913628 
L 627.301186 60.988497 
L 628.783505 58.381937 
L 630.265825 59.026604 
L 631.748144 61.030205 
L 633.230464 63.692801 
L 634.712783 60.199898 
L 636.195103 57.995662 
L 637.677422 50.735727 
L 639.159741 54.390357 
L 640.642061 58.489519 
L 642.12438 58.45005 
L 643.6067 60.919097 
L 645.089019 58.986497 
L 646.571339 56.654415 
L 648.053658 56.658769 
L 649.535977 57.97302 
L 651.018297 56.051323 
L 652.500616 61.461592 
L 653.982936 56.228224 
L 656.947575 60.639468 
L 658.429894 59.064286 
L 659.912213 58.356832 
L 661.394533 58.72341 
L 662.876852 57.213552 
L 664.359172 53.661979 
L 665.841491 51.899481 
L 667.323811 53.961663 
L 668.80613 58.76593 
L 670.28845 56.286179 
L 671.770769 57.057971 
L 673.253088 53.521414 
L 674.735408 55.186864 
L 676.217727 59.184808 
L 676.217727 59.184808 
" clip-path="url(#p739436b001)" style="fill: none; stroke: #9467bd; stroke-width: 1.5; stroke-linecap: square"/>
   </g>
   <g id="patch_3">
    <path d="M 55.2 383.885 
L 55.2 24.325 
" style="fill: none; stroke: #000000; stroke-width: 0.8; stroke-linejoin: miter; stroke-linecap: square"/>
   </g>
   <g id="patch_4">
    <path d="M 705.79 383.885 
L 705.79 24.325 
" style="fill: none; stroke: #000000; stroke-width: 0.8; stroke-linejoin: miter; stroke-linecap: square"/>
   </g>
   <g id="patch_5">
    <path d="M 55.2 383.885 
L 705.79 383.885 
" style="fill: none; stroke: #000000; stroke-width: 0.8; stroke-linejoin: miter; stroke-linecap: square"/>
   </g>
   <g id="patch_6">
    <path d="M 55.2 24.325 
L 705.79 24.325 
" style="fill: none; stroke: #000000; stroke-width: 0.8; stroke-linejoin: miter; stroke-linecap: square"/>
   </g>
   <g id="text_17">
    <!-- Reward Comparison -->
    <g transform="translate(312.495 18.325) scale(0.16 -0.16)">
     <defs>
      <path id="SimHei-43" d="M 2975 1825 
Q 2950 875 2575 475 
Q 2200 75 1675 75 
Q 1075 75 650 562 
Q 225 1050 225 2125 
Q 225 3300 637 3875 
Q 1050 4450 1700 4450 
Q 2250 4450 2612 4037 
Q 2975 3625 2950 2875 
L 2400 2875 
Q 2400 3425 2225 3700 
Q 2050 3975 1700 3975 
Q 1300 3975 1062 3562 
Q 825 3150 825 2175 
Q 825 1275 1062 912 
Q 1300 550 1675 550 
Q 1950 550 2175 812 
Q 2400 1075 2400 1825 
L 2975 1825 
z
" transform="scale(0.015625)"/>
      <path id="SimHei-6d" d="M 3050 125 
L 2550 125 
L 2550 2150 
Q 2550 2300 2500 2400 
Q 2450 2500 2300 2500 
Q 2125 2500 1975 2312 
Q 1825 2125 1825 1825 
L 1825 125 
L 1325 125 
L 1325 2150 
Q 1325 2300 1275 2400 
Q 1225 2500 1075 2500 
Q 900 2500 750 2312 
Q 600 2125 600 1825 
L 600 125 
L 100 125 
L 100 2925 
L 600 2925 
L 600 2550 
Q 725 2750 900 2862 
Q 1075 2975 1275 2975 
Q 1475 2975 1612 2862 
Q 1750 2750 1800 2550 
Q 1925 2750 2087 2862 
Q 2250 2975 2450 2975 
Q 2750 2975 2900 2812 
Q 3050 2650 3050 2350 
L 3050 125 
z
" transform="scale(0.015625)"/>
      <path id="SimHei-6e" d="M 2800 125 
L 2300 125 
L 2300 1925 
Q 2300 2225 2150 2400 
Q 2000 2575 1750 2575 
Q 1425 2575 1137 2237 
Q 850 1900 850 1400 
L 850 125 
L 350 125 
L 350 2925 
L 850 2925 
L 850 2400 
Q 1050 2675 1287 2825 
Q 1525 2975 1900 2975 
Q 2350 2975 2575 2725 
Q 2800 2475 2800 2100 
L 2800 125 
z
" transform="scale(0.015625)"/>
     </defs>
     <use xlink:href="#SimHei-52"/>
     <use xlink:href="#SimHei-65" transform="translate(50 0)"/>
     <use xlink:href="#SimHei-77" transform="translate(100 0)"/>
     <use xlink:href="#SimHei-61" transform="translate(150 0)"/>
     <use xlink:href="#SimHei-72" transform="translate(200 0)"/>
     <use xlink:href="#SimHei-64" transform="translate(250 0)"/>
     <use xlink:href="#SimHei-20" transform="translate(300 0)"/>
     <use xlink:href="#SimHei-43" transform="translate(350 0)"/>
     <use xlink:href="#SimHei-6f" transform="translate(400 0)"/>
     <use xlink:href="#SimHei-6d" transform="translate(450 0)"/>
     <use xlink:href="#SimHei-70" transform="translate(500 0)"/>
     <use xlink:href="#SimHei-61" transform="translate(550 0)"/>
     <use xlink:href="#SimHei-72" transform="translate(600 0)"/>
     <use xlink:href="#SimHei-69" transform="translate(650 0)"/>
     <use xlink:href="#SimHei-73" transform="translate(700 0)"/>
     <use xlink:href="#SimHei-6f" transform="translate(750 0)"/>
     <use xlink:href="#SimHei-6e" transform="translate(800 0)"/>
    </g>
   </g>
   <g id="legend_1">
    <g id="patch_7">
     <path d="M 580.99 377.885 
L 697.39 377.885 
Q 699.79 377.885 699.79 375.485 
L 699.79 313.085 
Q 699.79 310.685 697.39 310.685 
L 580.99 310.685 
Q 578.59 310.685 578.59 313.085 
L 578.59 375.485 
Q 578.59 377.885 580.99 377.885 
z
" style="fill: #ffffff; opacity: 0.8; stroke: #cccccc; stroke-linejoin: miter"/>
    </g>
    <g id="line2d_33">
     <path d="M 583.39 319.685 
L 595.39 319.685 
L 607.39 319.685 
" style="fill: none; stroke: #1f77b4; stroke-width: 1.5; stroke-linecap: square"/>
    </g>
    <g id="text_18">
     <!-- GCN-DDQN -->
     <g transform="translate(616.99 323.885) scale(0.12 -0.12)">
      <defs>
       <path id="SimHei-47" d="M 2850 75 
L 2425 75 
L 2350 425 
Q 2250 275 2037 175 
Q 1825 75 1575 75 
Q 1050 75 637 562 
Q 225 1050 225 2125 
Q 225 3300 600 3875 
Q 975 4450 1625 4450 
Q 2200 4450 2525 4025 
Q 2850 3600 2850 2925 
L 2300 2925 
Q 2300 3450 2125 3712 
Q 1950 3975 1625 3975 
Q 1225 3975 1025 3562 
Q 825 3150 825 2175 
Q 825 1250 1075 900 
Q 1325 550 1650 550 
Q 1975 550 2162 787 
Q 2350 1025 2350 1525 
L 2350 1800 
L 1575 1800 
L 1575 2275 
L 2850 2275 
L 2850 75 
z
" transform="scale(0.015625)"/>
       <path id="SimHei-4e" d="M 2850 125 
L 2225 125 
L 850 3225 
L 825 3225 
L 825 125 
L 250 125 
L 250 4400 
L 875 4400 
L 2250 1300 
L 2275 1300 
L 2275 4400 
L 2850 4400 
L 2850 125 
z
" transform="scale(0.015625)"/>
       <path id="SimHei-2d" d="M 2975 2125 
L 125 2125 
L 125 2525 
L 2975 2525 
L 2975 2125 
z
" transform="scale(0.015625)"/>
       <path id="SimHei-44" d="M 2925 2250 
Q 2925 1100 2437 612 
Q 1950 125 1125 125 
L 275 125 
L 275 4400 
L 1125 4400 
Q 2050 4400 2487 3900 
Q 2925 3400 2925 2250 
z
M 2325 2250 
Q 2325 3175 2025 3550 
Q 1725 3925 1125 3925 
L 850 3925 
L 850 600 
L 1125 600 
Q 1725 600 2025 962 
Q 2325 1325 2325 2250 
z
" transform="scale(0.015625)"/>
       <path id="SimHei-51" d="M 2950 2275 
Q 2950 1675 2862 1262 
Q 2775 850 2575 600 
L 2775 225 
L 2375 -200 
L 2150 225 
Q 2050 150 1900 112 
Q 1750 75 1575 75 
Q 925 75 550 587 
Q 175 1100 175 2275 
Q 175 3450 550 3950 
Q 925 4450 1575 4450 
Q 2225 4450 2587 3950 
Q 2950 3450 2950 2275 
z
M 2350 2275 
Q 2350 3325 2125 3650 
Q 1900 3975 1575 3975 
Q 1250 3975 1012 3650 
Q 775 3325 775 2275 
Q 775 1225 1012 887 
Q 1250 550 1575 550 
Q 1700 550 1800 587 
Q 1900 625 1950 675 
L 1550 1450 
L 1900 1875 
L 2250 1200 
Q 2300 1450 2325 1650 
Q 2350 1850 2350 2275 
z
" transform="scale(0.015625)"/>
      </defs>
      <use xlink:href="#SimHei-47"/>
      <use xlink:href="#SimHei-43" transform="translate(50 0)"/>
      <use xlink:href="#SimHei-4e" transform="translate(100 0)"/>
      <use xlink:href="#SimHei-2d" transform="translate(150 0)"/>
      <use xlink:href="#SimHei-44" transform="translate(200 0)"/>
      <use xlink:href="#SimHei-44" transform="translate(250 0)"/>
      <use xlink:href="#SimHei-51" transform="translate(300 0)"/>
      <use xlink:href="#SimHei-4e" transform="translate(350 0)"/>
     </g>
    </g>
    <g id="line2d_34">
     <path d="M 583.39 335.585 
L 595.39 335.585 
L 607.39 335.585 
" style="fill: none; stroke: #ff7f0e; stroke-width: 1.5; stroke-linecap: square"/>
    </g>
    <g id="text_19">
     <!-- GCN-D3QN -->
     <g transform="translate(616.99 339.785) scale(0.12 -0.12)">
      <use xlink:href="#SimHei-47"/>
      <use xlink:href="#SimHei-43" transform="translate(50 0)"/>
      <use xlink:href="#SimHei-4e" transform="translate(100 0)"/>
      <use xlink:href="#SimHei-2d" transform="translate(150 0)"/>
      <use xlink:href="#SimHei-44" transform="translate(200 0)"/>
      <use xlink:href="#SimHei-33" transform="translate(250 0)"/>
      <use xlink:href="#SimHei-51" transform="translate(300 0)"/>
      <use xlink:href="#SimHei-4e" transform="translate(350 0)"/>
     </g>
    </g>
    <g id="line2d_35">
     <path d="M 583.39 351.485 
L 595.39 351.485 
L 607.39 351.485 
" style="fill: none; stroke: #2ca02c; stroke-width: 1.5; stroke-linecap: square"/>
    </g>
    <g id="text_20">
     <!-- GAT-LSTM-DDQN -->
     <g transform="translate(616.99 355.685) scale(0.12 -0.12)">
      <defs>
       <path id="SimHei-41" d="M 3075 125 
L 2475 125 
L 2125 1450 
L 1025 1450 
L 675 125 
L 75 125 
L 1325 4450 
L 1825 4450 
L 3075 125 
z
M 2000 1925 
L 1600 3450 
L 1550 3450 
L 1150 1925 
L 2000 1925 
z
" transform="scale(0.015625)"/>
       <path id="SimHei-4c" d="M 2900 125 
L 300 125 
L 300 4400 
L 875 4400 
L 875 600 
L 2900 600 
L 2900 125 
z
" transform="scale(0.015625)"/>
       <path id="SimHei-53" d="M 2900 1325 
Q 2900 750 2537 412 
Q 2175 75 1550 75 
Q 925 75 575 425 
Q 225 775 225 1300 
L 225 1475 
L 800 1475 
L 800 1325 
Q 800 950 1025 750 
Q 1250 550 1550 550 
Q 1950 550 2137 762 
Q 2325 975 2325 1275 
Q 2325 1525 2100 1737 
Q 1875 1950 1450 2125 
Q 850 2350 587 2625 
Q 325 2900 325 3275 
Q 325 3800 687 4125 
Q 1050 4450 1550 4450 
Q 2200 4450 2487 4062 
Q 2775 3675 2775 3225 
L 2200 3225 
Q 2225 3500 2050 3725 
Q 1875 3950 1550 3950 
Q 1250 3950 1075 3787 
Q 900 3625 900 3350 
Q 900 3125 1037 2962 
Q 1175 2800 1750 2575 
Q 2300 2350 2600 2037 
Q 2900 1725 2900 1325 
z
" transform="scale(0.015625)"/>
       <path id="SimHei-4d" d="M 2925 125 
L 2425 125 
L 2425 3175 
L 2375 3175 
L 1775 125 
L 1375 125 
L 775 3175 
L 725 3175 
L 725 125 
L 225 125 
L 225 4400 
L 1000 4400 
L 1550 1575 
L 1600 1575 
L 2150 4400 
L 2925 4400 
L 2925 125 
z
" transform="scale(0.015625)"/>
      </defs>
      <use xlink:href="#SimHei-47"/>
      <use xlink:href="#SimHei-41" transform="translate(50 0)"/>
      <use xlink:href="#SimHei-54" transform="translate(100 0)"/>
      <use xlink:href="#SimHei-2d" transform="translate(150 0)"/>
      <use xlink:href="#SimHei-4c" transform="translate(200 0)"/>
      <use xlink:href="#SimHei-53" transform="translate(250 0)"/>
      <use xlink:href="#SimHei-54" transform="translate(300 0)"/>
      <use xlink:href="#SimHei-4d" transform="translate(350 0)"/>
      <use xlink:href="#SimHei-2d" transform="translate(400 0)"/>
      <use xlink:href="#SimHei-44" transform="translate(450 0)"/>
      <use xlink:href="#SimHei-44" transform="translate(500 0)"/>
      <use xlink:href="#SimHei-51" transform="translate(550 0)"/>
      <use xlink:href="#SimHei-4e" transform="translate(600 0)"/>
     </g>
    </g>
    <g id="line2d_36">
     <path d="M 583.39 367.385 
L 595.39 367.385 
L 607.39 367.385 
" style="fill: none; stroke: #9467bd; stroke-width: 1.5; stroke-linecap: square"/>
    </g>
    <g id="text_21">
     <!-- GLDVTO -->
     <g transform="translate(616.99 371.585) scale(0.12 -0.12)">
      <defs>
       <path id="SimHei-56" d="M 3050 4400 
L 1800 75 
L 1300 75 
L 50 4400 
L 650 4400 
L 1525 1125 
L 1575 1125 
L 2450 4400 
L 3050 4400 
z
" transform="scale(0.015625)"/>
       <path id="SimHei-4f" d="M 2950 2275 
Q 2950 1100 2587 587 
Q 2225 75 1575 75 
Q 925 75 550 587 
Q 175 1100 175 2275 
Q 175 3450 550 3950 
Q 925 4450 1575 4450 
Q 2225 4450 2587 3950 
Q 2950 3450 2950 2275 
z
M 2350 2275 
Q 2350 3325 2125 3650 
Q 1900 3975 1575 3975 
Q 1250 3975 1012 3650 
Q 775 3325 775 2275 
Q 775 1225 1012 887 
Q 1250 550 1575 550 
Q 1900 550 2125 887 
Q 2350 1225 2350 2275 
z
" transform="scale(0.015625)"/>
      </defs>
      <use xlink:href="#SimHei-47"/>
      <use xlink:href="#SimHei-4c" transform="translate(50 0)"/>
      <use xlink:href="#SimHei-44" transform="translate(100 0)"/>
      <use xlink:href="#SimHei-56" transform="translate(150 0)"/>
      <use xlink:href="#SimHei-54" transform="translate(200 0)"/>
      <use xlink:href="#SimHei-4f" transform="translate(250 0)"/>
     </g>
    </g>
   </g>
  </g>
 </g>
 <defs>
  <clipPath id="p739436b001">
   <rect x="55.2" y="24.325" width="650.59" height="359.56"/>
  </clipPath>
 </defs>
</svg>
