<?xml version="1.0" encoding="utf-8" standalone="no"?>
<!DOCTYPE svg PUBLIC "-//W3C//DTD SVG 1.1//EN"
  "http://www.w3.org/Graphics/SVG/1.1/DTD/svg11.dtd">
<svg xmlns:xlink="http://www.w3.org/1999/xlink" width="671.6125pt" height="391.6261pt" viewBox="0 0 671.6125 391.6261" xmlns="http://www.w3.org/2000/svg" version="1.1">
 <metadata>
  <rdf:RDF xmlns:dc="http://purl.org/dc/elements/1.1/" xmlns:cc="http://creativecommons.org/ns#" xmlns:rdf="http://www.w3.org/1999/02/22-rdf-syntax-ns#">
   <cc:Work>
    <dc:type rdf:resource="http://purl.org/dc/dcmitype/StillImage"/>
    <dc:date>2026-07-11T21:37:28.791740</dc:date>
    <dc:format>image/svg+xml</dc:format>
    <dc:creator>
     <cc:Agent>
      <dc:title>Matplotlib v3.10.7, https://matplotlib.org/</dc:title>
     </cc:Agent>
    </dc:creator>
   </cc:Work>
  </rdf:RDF>
 </metadata>
 <defs>
  <style type="text/css">*{stroke-linejoin: round; stroke-linecap: butt}</style>
 </defs>
 <g id="figure_1">
  <g id="patch_1">
   <path d="M 0 391.6261 
L 671.6125 391.6261 
L 671.6125 0 
L 0 0 
z
" style="fill: #ffffff"/>
  </g>
  <g id="axes_1">
   <g id="patch_2">
    <path d="M 38.0125 349.8636 
L 664.4125 349.8636 
L 664.4125 34.5036 
L 38.0125 34.5036 
z
" style="fill: #ffffff"/>
   </g>
   <g id="matplotlib.axis_1">
    <g id="xtick_1">
     <g id="line2d_1">
      <path d="M 66.485227 349.8636 
L 66.485227 34.5036 
" clip-path="url(#p2847d496c7)" style="fill: none; stroke-dasharray: 2.22,0.96; stroke-dashoffset: 0; stroke: #b0b0b0; stroke-opacity: 0.25; stroke-width: 0.6"/>
     </g>
     <g id="line2d_2">
      <defs>
       <path id="mbf57d44de7" d="M 0 0 
L 0 3.5 
" style="stroke: #000000; stroke-width: 0.8"/>
      </defs>
      <g>
       <use xlink:href="#mbf57d44de7" x="66.485227" y="349.8636" style="stroke: #000000; stroke-width: 0.8"/>
      </g>
     </g>
     <g id="text_1">
      <!-- 0 -->
      <g transform="translate(63.485227 365.1136) scale(0.12 -0.12)">
       <defs>
        <path id="SimHei-30" d="M 225 2537 
Q 250 3200 412 3587 
Q 575 3975 875 4225 
Q 1175 4475 1612 4475 
Q 2050 4475 2375 4112 
Q 2700 3750 2800 3200 
Q 2900 2650 2862 1937 
Q 2825 1225 2612 775 
Q 2400 325 1975 150 
Q 1550 -25 1125 187 
Q 700 400 525 750 
Q 350 1100 275 1487 
Q 200 1875 225 2537 
z
M 750 2687 
Q 675 2000 800 1462 
Q 925 925 1212 700 
Q 1500 475 1800 612 
Q 2100 750 2237 1162 
Q 2375 1575 2375 2062 
Q 2375 2550 2337 2950 
Q 2300 3350 2112 3675 
Q 1925 4000 1612 4012 
Q 1300 4025 1062 3700 
Q 825 3375 750 2687 
z
" transform="scale(0.015625)"/>
       </defs>
       <use xlink:href="#SimHei-30"/>
      </g>
     </g>
    </g>
    <g id="xtick_2">
     <g id="line2d_3">
      <path d="M 137.845446 349.8636 
L 137.845446 34.5036 
" clip-path="url(#p2847d496c7)" style="fill: none; stroke-dasharray: 2.22,0.96; stroke-dashoffset: 0; stroke: #b0b0b0; stroke-opacity: 0.25; stroke-width: 0.6"/>
     </g>
     <g id="line2d_4">
      <g>
       <use xlink:href="#mbf57d44de7" x="137.845446" y="349.8636" style="stroke: #000000; stroke-width: 0.8"/>
      </g>
     </g>
     <g id="text_2">
      <!-- 50 -->
      <g transform="translate(131.845446 365.1136) scale(0.12 -0.12)">
       <defs>
        <path id="SimHei-35" d="M 550 1325 
Q 725 650 1150 575 
Q 1575 500 1837 662 
Q 2100 825 2212 1087 
Q 2325 1350 2312 1675 
Q 2300 2000 2137 2225 
Q 1975 2450 1725 2525 
Q 1475 2600 1162 2525 
Q 850 2450 650 2175 
L 225 2225 
Q 275 2375 700 4375 
L 2675 4375 
L 2675 3925 
L 1075 3925 
Q 950 3250 825 2850 
Q 1200 3025 1525 3012 
Q 1850 3000 2150 2862 
Q 2450 2725 2587 2487 
Q 2725 2250 2787 2012 
Q 2850 1775 2837 1500 
Q 2825 1225 2725 937 
Q 2625 650 2425 462 
Q 2225 275 1937 162 
Q 1650 50 1275 75 
Q 900 100 562 350 
Q 225 600 100 1200 
L 550 1325 
z
" transform="scale(0.015625)"/>
       </defs>
       <use xlink:href="#SimHei-35"/>
       <use xlink:href="#SimHei-30" transform="translate(50 0)"/>
      </g>
     </g>
    </g>
    <g id="xtick_3">
     <g id="line2d_5">
      <path d="M 209.205665 349.8636 
L 209.205665 34.5036 
" clip-path="url(#p2847d496c7)" style="fill: none; stroke-dasharray: 2.22,0.96; stroke-dashoffset: 0; stroke: #b0b0b0; stroke-opacity: 0.25; stroke-width: 0.6"/>
     </g>
     <g id="line2d_6">
      <g>
       <use xlink:href="#mbf57d44de7" x="209.205665" y="349.8636" style="stroke: #000000; stroke-width: 0.8"/>
      </g>
     </g>
     <g id="text_3">
      <!-- 100 -->
      <g transform="translate(200.205665 365.1136) scale(0.12 -0.12)">
       <defs>
        <path id="SimHei-31" d="M 1400 3600 
Q 1075 3275 575 2975 
L 575 3450 
Q 1200 3875 1600 4450 
L 1900 4450 
L 1900 150 
L 1400 150 
L 1400 3600 
z
" transform="scale(0.015625)"/>
       </defs>
       <use xlink:href="#SimHei-31"/>
       <use xlink:href="#SimHei-30" transform="translate(50 0)"/>
       <use xlink:href="#SimHei-30" transform="translate(100 0)"/>
      </g>
     </g>
    </g>
    <g id="xtick_4">
     <g id="line2d_7">
      <path d="M 280.565883 349.8636 
L 280.565883 34.5036 
" clip-path="url(#p2847d496c7)" style="fill: none; stroke-dasharray: 2.22,0.96; stroke-dashoffset: 0; stroke: #b0b0b0; stroke-opacity: 0.25; stroke-width: 0.6"/>
     </g>
     <g id="line2d_8">
      <g>
       <use xlink:href="#mbf57d44de7" x="280.565883" y="349.8636" style="stroke: #000000; stroke-width: 0.8"/>
      </g>
     </g>
     <g id="text_4">
      <!-- 150 -->
      <g transform="translate(271.565883 365.1136) scale(0.12 -0.12)">
       <use xlink:href="#SimHei-31"/>
       <use xlink:href="#SimHei-35" transform="translate(50 0)"/>
       <use xlink:href="#SimHei-30" transform="translate(100 0)"/>
      </g>
     </g>
    </g>
    <g id="xtick_5">
     <g id="line2d_9">
      <path d="M 351.926102 349.8636 
L 351.926102 34.5036 
" clip-path="url(#p2847d496c7)" style="fill: none; stroke-dasharray: 2.22,0.96; stroke-dashoffset: 0; stroke: #b0b0b0; stroke-opacity: 0.25; stroke-width: 0.6"/>
     </g>
     <g id="line2d_10">
      <g>
       <use xlink:href="#mbf57d44de7" x="351.926102" y="349.8636" style="stroke: #000000; stroke-width: 0.8"/>
      </g>
     </g>
     <g id="text_5">
      <!-- 200 -->
      <g transform="translate(342.926102 365.1136) scale(0.12 -0.12)">
       <defs>
        <path id="SimHei-32" d="M 300 250 
Q 325 625 650 925 
Q 975 1225 1475 1862 
Q 1975 2500 2125 2850 
Q 2275 3200 2237 3450 
Q 2200 3700 2000 3862 
Q 1800 4025 1537 4000 
Q 1275 3975 1037 3800 
Q 800 3625 675 3275 
L 200 3350 
Q 400 3925 712 4187 
Q 1025 4450 1450 4475 
Q 1700 4500 1900 4462 
Q 2100 4425 2312 4287 
Q 2525 4150 2662 3875 
Q 2800 3600 2762 3212 
Q 2725 2825 2375 2287 
Q 2025 1750 1025 600 
L 2825 600 
L 2825 150 
L 300 150 
L 300 250 
z
" transform="scale(0.015625)"/>
       </defs>
       <use xlink:href="#SimHei-32"/>
       <use xlink:href="#SimHei-30" transform="translate(50 0)"/>
       <use xlink:href="#SimHei-30" transform="translate(100 0)"/>
      </g>
     </g>
    </g>
    <g id="xtick_6">
     <g id="line2d_11">
      <path d="M 423.286321 349.8636 
L 423.286321 34.5036 
" clip-path="url(#p2847d496c7)" style="fill: none; stroke-dasharray: 2.22,0.96; stroke-dashoffset: 0; stroke: #b0b0b0; stroke-opacity: 0.25; stroke-width: 0.6"/>
     </g>
     <g id="line2d_12">
      <g>
       <use xlink:href="#mbf57d44de7" x="423.286321" y="349.8636" style="stroke: #000000; stroke-width: 0.8"/>
      </g>
     </g>
     <g id="text_6">
      <!-- 250 -->
      <g transform="translate(414.286321 365.1136) scale(0.12 -0.12)">
       <use xlink:href="#SimHei-32"/>
       <use xlink:href="#SimHei-35" transform="translate(50 0)"/>
       <use xlink:href="#SimHei-30" transform="translate(100 0)"/>
      </g>
     </g>
    </g>
    <g id="xtick_7">
     <g id="line2d_13">
      <path d="M 494.64654 349.8636 
L 494.64654 34.5036 
" clip-path="url(#p2847d496c7)" style="fill: none; stroke-dasharray: 2.22,0.96; stroke-dashoffset: 0; stroke: #b0b0b0; stroke-opacity: 0.25; stroke-width: 0.6"/>
     </g>
     <g id="line2d_14">
      <g>
       <use xlink:href="#mbf57d44de7" x="494.64654" y="349.8636" style="stroke: #000000; stroke-width: 0.8"/>
      </g>
     </g>
     <g id="text_7">
      <!-- 300 -->
      <g transform="translate(485.64654 365.1136) scale(0.12 -0.12)">
       <defs>
        <path id="SimHei-33" d="M 250 1225 
L 700 1300 
Q 800 975 1025 762 
Q 1250 550 1587 562 
Q 1925 575 2125 837 
Q 2325 1100 2300 1437 
Q 2275 1775 2037 1962 
Q 1800 2150 1275 2225 
L 1275 2550 
Q 1800 2600 2037 2825 
Q 2275 3050 2250 3412 
Q 2225 3775 1925 3937 
Q 1625 4100 1287 3975 
Q 950 3850 750 3275 
L 300 3350 
Q 450 3800 712 4100 
Q 975 4400 1425 4450 
Q 1875 4500 2212 4337 
Q 2550 4175 2687 3837 
Q 2825 3500 2725 3100 
Q 2625 2700 2150 2400 
Q 2500 2250 2687 1950 
Q 2875 1650 2812 1162 
Q 2750 675 2375 375 
Q 2000 75 1525 87 
Q 1050 100 700 387 
Q 350 675 250 1225 
z
" transform="scale(0.015625)"/>
       </defs>
       <use xlink:href="#SimHei-33"/>
       <use xlink:href="#SimHei-30" transform="translate(50 0)"/>
       <use xlink:href="#SimHei-30" transform="translate(100 0)"/>
      </g>
     </g>
    </g>
    <g id="xtick_8">
     <g id="line2d_15">
      <path d="M 566.006758 349.8636 
L 566.006758 34.5036 
" clip-path="url(#p2847d496c7)" style="fill: none; stroke-dasharray: 2.22,0.96; stroke-dashoffset: 0; stroke: #b0b0b0; stroke-opacity: 0.25; stroke-width: 0.6"/>
     </g>
     <g id="line2d_16">
      <g>
       <use xlink:href="#mbf57d44de7" x="566.006758" y="349.8636" style="stroke: #000000; stroke-width: 0.8"/>
      </g>
     </g>
     <g id="text_8">
      <!-- 350 -->
      <g transform="translate(557.006758 365.1136) scale(0.12 -0.12)">
       <use xlink:href="#SimHei-33"/>
       <use xlink:href="#SimHei-35" transform="translate(50 0)"/>
       <use xlink:href="#SimHei-30" transform="translate(100 0)"/>
      </g>
     </g>
    </g>
    <g id="xtick_9">
     <g id="line2d_17">
      <path d="M 637.366977 349.8636 
L 637.366977 34.5036 
" clip-path="url(#p2847d496c7)" style="fill: none; stroke-dasharray: 2.22,0.96; stroke-dashoffset: 0; stroke: #b0b0b0; stroke-opacity: 0.25; stroke-width: 0.6"/>
     </g>
     <g id="line2d_18">
      <g>
       <use xlink:href="#mbf57d44de7" x="637.366977" y="349.8636" style="stroke: #000000; stroke-width: 0.8"/>
      </g>
     </g>
     <g id="text_9">
      <!-- 400 -->
      <g transform="translate(628.366977 365.1136) scale(0.12 -0.12)">
       <defs>
        <path id="SimHei-34" d="M 2000 1100 
L 75 1100 
L 75 1525 
L 2100 4450 
L 2475 4450 
L 2475 1525 
L 3075 1525 
L 3075 1100 
L 2475 1100 
L 2475 150 
L 2000 150 
L 2000 1100 
z
M 2000 1525 
L 2000 3500 
L 600 1525 
L 2000 1525 
z
" transform="scale(0.015625)"/>
       </defs>
       <use xlink:href="#SimHei-34"/>
       <use xlink:href="#SimHei-30" transform="translate(50 0)"/>
       <use xlink:href="#SimHei-30" transform="translate(100 0)"/>
      </g>
     </g>
    </g>
    <g id="text_10">
     <!-- Episode -->
     <g transform="translate(321.4625 382.3011) scale(0.17 -0.17)">
      <defs>
       <path id="SimHei-45" d="M 2900 125 
L 350 125 
L 350 4400 
L 2775 4400 
L 2775 3925 
L 925 3925 
L 925 2600 
L 2625 2600 
L 2625 2125 
L 925 2125 
L 925 600 
L 2900 600 
L 2900 125 
z
" transform="scale(0.015625)"/>
       <path id="SimHei-70" d="M 2825 1525 
Q 2825 800 2475 425 
Q 2125 50 1625 50 
Q 1350 50 1150 162 
Q 950 275 800 500 
L 800 -800 
L 300 -800 
L 300 2925 
L 800 2925 
L 800 2550 
Q 950 2775 1150 2875 
Q 1350 2975 1625 2975 
Q 2125 2975 2475 2612 
Q 2825 2250 2825 1525 
z
M 2275 1525 
Q 2275 2000 2087 2262 
Q 1900 2525 1525 2525 
Q 1225 2525 1012 2262 
Q 800 2000 800 1525 
Q 800 1050 1012 775 
Q 1225 500 1525 500 
Q 1900 500 2087 775 
Q 2275 1050 2275 1525 
z
" transform="scale(0.015625)"/>
       <path id="SimHei-69" d="M 1800 3725 
L 1300 3725 
L 1300 4375 
L 1800 4375 
L 1800 3725 
z
M 1800 125 
L 1300 125 
L 1300 2925 
L 1800 2925 
L 1800 125 
z
" transform="scale(0.015625)"/>
       <path id="SimHei-73" d="M 2750 900 
Q 2750 500 2437 287 
Q 2125 75 1650 75 
Q 1050 75 725 312 
Q 400 550 400 1000 
L 900 1000 
Q 900 700 1112 600 
Q 1325 500 1625 500 
Q 1925 500 2075 612 
Q 2225 725 2225 900 
Q 2225 1025 2100 1150 
Q 1975 1275 1475 1350 
Q 900 1425 687 1637 
Q 475 1850 475 2200 
Q 475 2500 762 2737 
Q 1050 2975 1600 2975 
Q 2100 2975 2387 2750 
Q 2675 2525 2675 2150 
L 2175 2150 
Q 2175 2375 2012 2462 
Q 1850 2550 1600 2550 
Q 1275 2550 1137 2437 
Q 1000 2325 1000 2175 
Q 1000 2000 1125 1900 
Q 1250 1800 1650 1750 
Q 2300 1650 2525 1437 
Q 2750 1225 2750 900 
z
" transform="scale(0.015625)"/>
       <path id="SimHei-6f" d="M 2925 1525 
Q 2925 875 2525 475 
Q 2125 75 1575 75 
Q 1025 75 625 475 
Q 225 875 225 1525 
Q 225 2175 625 2575 
Q 1025 2975 1575 2975 
Q 2125 2975 2525 2575 
Q 2925 2175 2925 1525 
z
M 2375 1525 
Q 2375 2025 2125 2275 
Q 1875 2525 1575 2525 
Q 1275 2525 1025 2275 
Q 775 2025 775 1525 
Q 775 1025 1025 775 
Q 1275 525 1575 525 
Q 1875 525 2125 775 
Q 2375 1025 2375 1525 
z
" transform="scale(0.015625)"/>
       <path id="SimHei-64" d="M 2750 125 
L 2250 125 
L 2250 500 
Q 2100 275 1900 175 
Q 1700 75 1425 75 
Q 925 75 575 437 
Q 225 800 225 1525 
Q 225 2250 575 2625 
Q 925 3000 1425 3000 
Q 1700 3000 1900 2887 
Q 2100 2775 2250 2550 
L 2250 4400 
L 2750 4400 
L 2750 125 
z
M 2250 1525 
Q 2250 2000 2037 2275 
Q 1825 2550 1525 2550 
Q 1150 2550 962 2275 
Q 775 2000 775 1525 
Q 775 1050 962 787 
Q 1150 525 1525 525 
Q 1825 525 2037 787 
Q 2250 1050 2250 1525 
z
" transform="scale(0.015625)"/>
       <path id="SimHei-65" d="M 2850 1075 
Q 2800 625 2450 350 
Q 2100 75 1625 75 
Q 1025 75 637 462 
Q 250 850 250 1525 
Q 250 2200 637 2587 
Q 1025 2975 1625 2975 
Q 2150 2975 2487 2637 
Q 2825 2300 2825 1525 
L 800 1525 
Q 800 975 1037 750 
Q 1275 525 1625 525 
Q 1900 525 2075 662 
Q 2250 800 2300 1075 
L 2850 1075 
z
M 2250 1925 
Q 2200 2275 2025 2412 
Q 1850 2550 1575 2550 
Q 1325 2550 1125 2412 
Q 925 2275 825 1925 
L 2250 1925 
z
" transform="scale(0.015625)"/>
      </defs>
      <use xlink:href="#SimHei-45"/>
      <use xlink:href="#SimHei-70" transform="translate(50 0)"/>
      <use xlink:href="#SimHei-69" transform="translate(100 0)"/>
      <use xlink:href="#SimHei-73" transform="translate(150 0)"/>
      <use xlink:href="#SimHei-6f" transform="translate(200 0)"/>
      <use xlink:href="#SimHei-64" transform="translate(250 0)"/>
      <use xlink:href="#SimHei-65" transform="translate(300 0)"/>
     </g>
    </g>
   </g>
   <g id="matplotlib.axis_2">
    <g id="ytick_1">
     <g id="line2d_19">
      <path d="M 38.0125 321.374053 
L 664.4125 321.374053 
" clip-path="url(#p2847d496c7)" style="fill: none; stroke-dasharray: 2.22,0.96; stroke-dashoffset: 0; stroke: #b0b0b0; stroke-opacity: 0.25; stroke-width: 0.6"/>
     </g>
     <g id="line2d_20">
      <defs>
       <path id="mfbb8910677" d="M 0 0 
L -3.5 0 
" style="stroke: #000000; stroke-width: 0.8"/>
      </defs>
      <g>
       <use xlink:href="#mfbb8910677" x="38.0125" y="321.374053" style="stroke: #000000; stroke-width: 0.8"/>
      </g>
     </g>
     <g id="text_11">
      <!-- 1 -->
      <g transform="translate(25.0125 325.499053) scale(0.12 -0.12)">
       <use xlink:href="#SimHei-31"/>
      </g>
     </g>
    </g>
    <g id="ytick_2">
     <g id="line2d_21">
      <path d="M 38.0125 269.132857 
L 664.4125 269.132857 
" clip-path="url(#p2847d496c7)" style="fill: none; stroke-dasharray: 2.22,0.96; stroke-dashoffset: 0; stroke: #b0b0b0; stroke-opacity: 0.25; stroke-width: 0.6"/>
     </g>
     <g id="line2d_22">
      <g>
       <use xlink:href="#mfbb8910677" x="38.0125" y="269.132857" style="stroke: #000000; stroke-width: 0.8"/>
      </g>
     </g>
     <g id="text_12">
      <!-- 2 -->
      <g transform="translate(25.0125 273.257857) scale(0.12 -0.12)">
       <use xlink:href="#SimHei-32"/>
      </g>
     </g>
    </g>
    <g id="ytick_3">
     <g id="line2d_23">
      <path d="M 38.0125 216.891661 
L 664.4125 216.891661 
" clip-path="url(#p2847d496c7)" style="fill: none; stroke-dasharray: 2.22,0.96; stroke-dashoffset: 0; stroke: #b0b0b0; stroke-opacity: 0.25; stroke-width: 0.6"/>
     </g>
     <g id="line2d_24">
      <g>
       <use xlink:href="#mfbb8910677" x="38.0125" y="216.891661" style="stroke: #000000; stroke-width: 0.8"/>
      </g>
     </g>
     <g id="text_13">
      <!-- 3 -->
      <g transform="translate(25.0125 221.016661) scale(0.12 -0.12)">
       <use xlink:href="#SimHei-33"/>
      </g>
     </g>
    </g>
    <g id="ytick_4">
     <g id="line2d_25">
      <path d="M 38.0125 164.650465 
L 664.4125 164.650465 
" clip-path="url(#p2847d496c7)" style="fill: none; stroke-dasharray: 2.22,0.96; stroke-dashoffset: 0; stroke: #b0b0b0; stroke-opacity: 0.25; stroke-width: 0.6"/>
     </g>
     <g id="line2d_26">
      <g>
       <use xlink:href="#mfbb8910677" x="38.0125" y="164.650465" style="stroke: #000000; stroke-width: 0.8"/>
      </g>
     </g>
     <g id="text_14">
      <!-- 4 -->
      <g transform="translate(25.0125 168.775465) scale(0.12 -0.12)">
       <use xlink:href="#SimHei-34"/>
      </g>
     </g>
    </g>
    <g id="ytick_5">
     <g id="line2d_27">
      <path d="M 38.0125 112.409269 
L 664.4125 112.409269 
" clip-path="url(#p2847d496c7)" style="fill: none; stroke-dasharray: 2.22,0.96; stroke-dashoffset: 0; stroke: #b0b0b0; stroke-opacity: 0.25; stroke-width: 0.6"/>
     </g>
     <g id="line2d_28">
      <g>
       <use xlink:href="#mfbb8910677" x="38.0125" y="112.409269" style="stroke: #000000; stroke-width: 0.8"/>
      </g>
     </g>
     <g id="text_15">
      <!-- 5 -->
      <g transform="translate(25.0125 116.534269) scale(0.12 -0.12)">
       <use xlink:href="#SimHei-35"/>
      </g>
     </g>
    </g>
    <g id="ytick_6">
     <g id="line2d_29">
      <path d="M 38.0125 60.168073 
L 664.4125 60.168073 
" clip-path="url(#p2847d496c7)" style="fill: none; stroke-dasharray: 2.22,0.96; stroke-dashoffset: 0; stroke: #b0b0b0; stroke-opacity: 0.25; stroke-width: 0.6"/>
     </g>
     <g id="line2d_30">
      <g>
       <use xlink:href="#mfbb8910677" x="38.0125" y="60.168073" style="stroke: #000000; stroke-width: 0.8"/>
      </g>
     </g>
     <g id="text_16">
      <!-- 6 -->
      <g transform="translate(25.0125 64.293073) scale(0.12 -0.12)">
       <defs>
        <path id="SimHei-36" d="M 250 1612 
Q 275 1975 387 2225 
Q 500 2475 725 2850 
L 1750 4450 
L 2325 4450 
L 1275 2800 
Q 1950 2975 2350 2750 
Q 2750 2525 2887 2237 
Q 3025 1950 3037 1612 
Q 3050 1275 2937 950 
Q 2825 625 2537 362 
Q 2250 100 1737 75 
Q 1225 50 862 262 
Q 500 475 362 862 
Q 225 1250 250 1612 
z
M 1025 787 
Q 1250 550 1625 525 
Q 2000 500 2250 775 
Q 2500 1050 2500 1575 
Q 2500 2100 2187 2300 
Q 1875 2500 1487 2450 
Q 1100 2400 925 2075 
Q 750 1750 775 1387 
Q 800 1025 1025 787 
z
" transform="scale(0.015625)"/>
       </defs>
       <use xlink:href="#SimHei-36"/>
      </g>
     </g>
    </g>
    <g id="text_17">
     <!-- Total Task Energy -->
     <g transform="translate(18.8875 264.4336) rotate(-90) scale(0.17 -0.17)">
      <defs>
       <path id="SimHei-54" d="M 2850 3925 
L 1850 3925 
L 1850 125 
L 1275 125 
L 1275 3925 
L 275 3925 
L 275 4400 
L 2850 4400 
L 2850 3925 
z
" transform="scale(0.015625)"/>
       <path id="SimHei-74" d="M 2750 200 
Q 2625 150 2462 112 
Q 2300 75 2025 75 
Q 1575 75 1300 325 
Q 1025 575 1025 1025 
L 1025 2525 
L 175 2525 
L 175 2925 
L 1025 2925 
L 1025 3900 
L 1525 3900 
L 1525 2925 
L 2550 2925 
L 2550 2525 
L 1525 2525 
L 1525 1000 
Q 1525 800 1625 662 
Q 1725 525 2000 525 
Q 2275 525 2450 575 
Q 2625 625 2750 700 
L 2750 200 
z
" transform="scale(0.015625)"/>
       <path id="SimHei-61" d="M 2875 125 
L 2275 125 
Q 2225 175 2200 262 
Q 2175 350 2175 475 
Q 2000 275 1750 175 
Q 1500 75 1225 75 
Q 825 75 550 275 
Q 275 475 275 850 
Q 275 1225 525 1450 
Q 775 1675 1300 1750 
Q 1650 1800 1912 1875 
Q 2175 1950 2175 2075 
Q 2175 2225 2062 2375 
Q 1950 2525 1575 2525 
Q 1275 2525 1137 2412 
Q 1000 2300 950 2100 
L 400 2100 
Q 450 2500 762 2737 
Q 1075 2975 1575 2975 
Q 2125 2975 2400 2725 
Q 2675 2475 2675 2025 
L 2675 650 
Q 2675 500 2725 375 
Q 2775 250 2875 125 
z
M 2175 1050 
L 2175 1550 
Q 2025 1500 1887 1462 
Q 1750 1425 1425 1375 
Q 1050 1325 937 1200 
Q 825 1075 825 900 
Q 825 750 937 637 
Q 1050 525 1275 525 
Q 1500 525 1762 650 
Q 2025 775 2175 1050 
z
" transform="scale(0.015625)"/>
       <path id="SimHei-6c" d="M 1825 125 
L 1325 125 
L 1325 4400 
L 1825 4400 
L 1825 125 
z
" transform="scale(0.015625)"/>
       <path id="SimHei-20" transform="scale(0.015625)"/>
       <path id="SimHei-6b" d="M 2925 125 
L 2350 125 
L 1450 1650 
L 875 1100 
L 875 125 
L 375 125 
L 375 4400 
L 875 4400 
L 875 1675 
L 2125 2925 
L 2750 2925 
L 1775 1975 
L 2925 125 
z
" transform="scale(0.015625)"/>
       <path id="SimHei-6e" d="M 2800 125 
L 2300 125 
L 2300 1925 
Q 2300 2225 2150 2400 
Q 2000 2575 1750 2575 
Q 1425 2575 1137 2237 
Q 850 1900 850 1400 
L 850 125 
L 350 125 
L 350 2925 
L 850 2925 
L 850 2400 
Q 1050 2675 1287 2825 
Q 1525 2975 1900 2975 
Q 2350 2975 2575 2725 
Q 2800 2475 2800 2100 
L 2800 125 
z
" transform="scale(0.015625)"/>
       <path id="SimHei-72" d="M 2500 2425 
Q 2025 2500 1700 2287 
Q 1375 2075 1150 1550 
L 1150 125 
L 650 125 
L 650 2925 
L 1150 2925 
L 1150 2200 
Q 1375 2600 1712 2787 
Q 2050 2975 2500 2975 
L 2500 2425 
z
" transform="scale(0.015625)"/>
       <path id="SimHei-67" d="M 2975 2500 
Q 2800 2550 2637 2562 
Q 2475 2575 2300 2525 
Q 2375 2450 2425 2337 
Q 2475 2225 2475 2000 
Q 2475 1575 2187 1300 
Q 1900 1025 1475 1025 
Q 1375 1025 1212 1062 
Q 1050 1100 950 1150 
Q 875 1100 850 1050 
Q 825 1000 825 925 
Q 825 800 1000 737 
Q 1175 675 1625 675 
Q 2350 675 2612 475 
Q 2875 275 2875 -25 
Q 2875 -425 2487 -612 
Q 2100 -800 1575 -800 
Q 900 -800 575 -625 
Q 250 -450 250 -150 
Q 250 0 375 150 
Q 500 300 700 400 
Q 550 475 462 587 
Q 375 700 375 875 
Q 375 1025 487 1137 
Q 600 1250 750 1325 
Q 625 1450 550 1625 
Q 475 1800 475 2000 
Q 475 2425 762 2700 
Q 1050 2975 1475 2975 
Q 1700 2975 1862 2912 
Q 2025 2850 2150 2725 
Q 2350 2875 2550 2937 
Q 2750 3000 2975 2975 
L 2975 2500 
z
M 1975 2000 
Q 1975 2250 1850 2400 
Q 1725 2550 1475 2550 
Q 1225 2550 1100 2400 
Q 975 2250 975 2000 
Q 975 1750 1100 1600 
Q 1225 1450 1475 1450 
Q 1725 1450 1850 1600 
Q 1975 1750 1975 2000 
z
M 2400 -75 
Q 2400 25 2287 125 
Q 2175 225 1725 225 
Q 1625 225 1450 237 
Q 1275 250 1050 275 
Q 850 200 775 100 
Q 700 0 700 -100 
Q 700 -250 900 -350 
Q 1100 -450 1600 -450 
Q 2025 -450 2212 -337 
Q 2400 -225 2400 -75 
z
" transform="scale(0.015625)"/>
       <path id="SimHei-79" d="M 2900 2925 
L 1750 -100 
Q 1650 -450 1450 -625 
Q 1250 -800 950 -800 
Q 825 -800 712 -787 
Q 600 -775 500 -725 
L 500 -225 
Q 600 -275 700 -300 
Q 800 -325 875 -325 
Q 1075 -325 1150 -262 
Q 1225 -200 1300 25 
L 200 2925 
L 750 2925 
L 1550 725 
L 1575 725 
L 2350 2925 
L 2900 2925 
z
" transform="scale(0.015625)"/>
      </defs>
      <use xlink:href="#SimHei-54"/>
      <use xlink:href="#SimHei-6f" transform="translate(50 0)"/>
      <use xlink:href="#SimHei-74" transform="translate(100 0)"/>
      <use xlink:href="#SimHei-61" transform="translate(150 0)"/>
      <use xlink:href="#SimHei-6c" transform="translate(200 0)"/>
      <use xlink:href="#SimHei-20" transform="translate(250 0)"/>
      <use xlink:href="#SimHei-54" transform="translate(300 0)"/>
      <use xlink:href="#SimHei-61" transform="translate(350 0)"/>
      <use xlink:href="#SimHei-73" transform="translate(400 0)"/>
      <use xlink:href="#SimHei-6b" transform="translate(450 0)"/>
      <use xlink:href="#SimHei-20" transform="translate(500 0)"/>
      <use xlink:href="#SimHei-45" transform="translate(550 0)"/>
      <use xlink:href="#SimHei-6e" transform="translate(600 0)"/>
      <use xlink:href="#SimHei-65" transform="translate(650 0)"/>
      <use xlink:href="#SimHei-72" transform="translate(700 0)"/>
      <use xlink:href="#SimHei-67" transform="translate(750 0)"/>
      <use xlink:href="#SimHei-79" transform="translate(800 0)"/>
     </g>
    </g>
   </g>
   <g id="line2d_31">
    <path d="M 66.485227 162.03093 
L 67.912432 169.365777 
L 70.76684 185.493596 
L 73.621249 199.966642 
L 76.475658 213.325669 
L 79.330067 225.083606 
L 82.184475 235.856633 
L 85.038884 245.186652 
L 87.893293 253.829203 
L 92.174906 265.532125 
L 95.029315 272.281694 
L 102.165337 286.306038 
L 107.874154 295.630334 
L 109.301359 297.631872 
L 110.728563 299.187779 
L 112.155767 300.998374 
L 113.582972 301.339851 
L 116.43738 304.615654 
L 120.718994 309.20817 
L 122.146198 310.496268 
L 125.000607 312.725022 
L 126.427811 313.86644 
L 130.709424 316.77252 
L 134.991037 319.399038 
L 136.418242 320.069411 
L 137.845446 320.597291 
L 142.127059 322.700606 
L 143.554263 323.086175 
L 147.835877 324.906114 
L 149.263081 325.228381 
L 153.544694 326.726638 
L 157.826307 327.561425 
L 159.253512 327.979972 
L 160.680716 328.049451 
L 162.10792 325.1493 
L 163.535125 325.745255 
L 167.816738 327.012768 
L 172.098351 327.775242 
L 174.95276 328.62971 
L 176.379964 328.777422 
L 183.515986 330.441226 
L 184.94319 330.568037 
L 187.797599 331.295042 
L 189.224803 331.37069 
L 192.079212 331.745839 
L 194.933621 332.070102 
L 196.360825 332.40119 
L 197.78803 332.605969 
L 203.496847 332.829737 
L 204.924052 333.041113 
L 207.77846 332.91948 
L 209.205665 330.782439 
L 210.632869 330.615253 
L 213.487278 330.852257 
L 214.914482 331.144183 
L 227.759322 332.615872 
L 230.61373 332.925535 
L 232.040935 332.965398 
L 234.895343 333.25472 
L 236.322548 333.122035 
L 239.176957 333.540699 
L 240.604161 333.419294 
L 243.45857 333.527415 
L 244.885774 333.45697 
L 246.312978 333.235655 
L 249.167387 333.145754 
L 250.594592 333.292681 
L 253.449 333.173011 
L 254.876205 333.222773 
L 256.303409 333.137112 
L 257.730613 333.377099 
L 262.012227 333.636963 
L 263.439431 331.358748 
L 264.866635 331.604778 
L 266.29384 331.597774 
L 269.148248 331.851936 
L 272.002657 332.047102 
L 273.429862 332.101511 
L 274.857066 331.874669 
L 280.565883 332.481313 
L 281.993088 332.366289 
L 283.420292 332.669393 
L 284.847497 332.694899 
L 286.274701 332.889649 
L 287.701905 332.960211 
L 289.12911 333.249322 
L 290.556314 333.27984 
L 291.983518 333.519174 
L 294.837927 333.793964 
L 296.265132 334.000501 
L 300.546745 333.983464 
L 303.401153 333.594297 
L 306.255562 333.504857 
L 307.682767 333.475679 
L 310.537175 333.839749 
L 311.96438 333.837385 
L 313.391584 333.980729 
L 314.818788 333.893203 
L 317.673197 334.257105 
L 319.100402 334.136168 
L 320.527606 334.302521 
L 321.95481 334.593445 
L 326.236423 334.684913 
L 330.518037 334.433 
L 331.945241 334.44971 
L 333.372445 334.153356 
L 334.79965 334.179804 
L 336.226854 334.387573 
L 339.081263 334.159157 
L 344.79008 334.424258 
L 349.071693 334.130802 
L 351.926102 334.199386 
L 353.353307 334.022907 
L 357.63492 334.36328 
L 359.062124 334.095331 
L 364.770942 334.18731 
L 366.198146 328.550159 
L 367.62535 328.766483 
L 369.052555 327.985484 
L 370.479759 328.182384 
L 373.334168 329.006965 
L 374.761372 329.16164 
L 376.188577 329.439829 
L 377.615781 329.529489 
L 379.042985 329.945255 
L 380.47019 330.230305 
L 383.324598 330.115537 
L 384.751803 330.447299 
L 386.179007 330.576087 
L 387.606212 330.552863 
L 390.46062 330.938452 
L 391.887825 331.029197 
L 393.315029 331.271415 
L 394.742233 331.134844 
L 396.169438 331.434745 
L 399.023847 331.663989 
L 401.878255 331.890173 
L 404.732664 332.434851 
L 411.868686 332.994491 
L 413.29589 332.88399 
L 416.150299 333.455882 
L 419.004708 333.544367 
L 420.431912 333.683143 
L 423.286321 333.547091 
L 424.713525 333.580142 
L 427.567934 333.87267 
L 428.995138 333.836257 
L 431.849547 334.084403 
L 434.703956 334.417125 
L 438.985569 334.132391 
L 440.412773 334.266631 
L 441.839978 333.962882 
L 444.694387 334.296401 
L 446.121591 334.119452 
L 447.548795 334.254511 
L 448.976 334.259933 
L 451.830408 334.539758 
L 454.684817 334.451285 
L 457.539226 334.398593 
L 458.96643 334.512752 
L 463.248043 334.332059 
L 464.675248 334.028441 
L 466.102452 334.121514 
L 467.529657 333.941502 
L 468.956861 333.956929 
L 470.384065 334.153831 
L 471.81127 333.992512 
L 474.665678 334.086293 
L 476.092883 334.000362 
L 478.947292 334.233644 
L 480.374496 334.107827 
L 483.228905 334.037258 
L 484.656109 334.033916 
L 486.083313 333.865638 
L 490.364927 334.016697 
L 491.792131 334.055738 
L 496.073744 334.641911 
L 497.500948 334.522329 
L 498.928153 334.640496 
L 500.355357 334.904743 
L 501.782562 334.915023 
L 503.209766 334.783662 
L 507.491379 335.152498 
L 508.918583 334.940002 
L 510.345788 335.004907 
L 513.200197 334.875295 
L 514.627401 334.992625 
L 516.054605 334.884572 
L 517.48181 334.576931 
L 520.336218 334.719151 
L 523.190627 334.775819 
L 524.617832 334.632438 
L 527.47224 334.861812 
L 528.899445 334.860137 
L 530.326649 334.518986 
L 531.753853 334.660914 
L 533.181058 334.62203 
L 536.035467 334.921622 
L 538.889875 334.862277 
L 541.744284 335.225084 
L 544.598693 335.185904 
L 546.025897 335.165329 
L 548.880306 334.938366 
L 550.30751 334.940348 
L 551.734715 334.817891 
L 553.161919 334.978052 
L 558.870737 334.867557 
L 561.725145 334.822578 
L 563.15235 334.894178 
L 566.006758 334.741814 
L 567.433963 334.915445 
L 568.861167 334.769056 
L 577.424393 335.158754 
L 583.133211 334.910804 
L 585.98762 334.656442 
L 587.414824 334.782899 
L 593.123641 334.467095 
L 594.550846 334.545261 
L 603.114072 334.348757 
L 605.968481 334.464279 
L 607.395685 334.616137 
L 608.82289 334.571448 
L 610.250094 334.732863 
L 611.677298 334.410515 
L 613.104503 334.582341 
L 614.531707 334.592703 
L 615.958911 334.719593 
L 617.386116 334.534145 
L 620.240525 334.590976 
L 621.667729 331.112935 
L 623.094933 331.205601 
L 627.376546 331.998788 
L 631.65816 332.180255 
L 633.085364 332.196531 
L 634.512568 332.01054 
L 635.939773 332.348624 
L 635.939773 332.348624 
" clip-path="url(#p2847d496c7)" style="fill: none; stroke: #1f77b4; stroke-width: 1.2; stroke-linecap: square"/>
   </g>
   <g id="line2d_32">
    <path d="M 66.485227 166.213588 
L 67.912432 171.383755 
L 70.76684 187.446974 
L 73.621249 202.044364 
L 76.475658 214.957652 
L 79.330067 226.75959 
L 82.184475 237.230729 
L 86.466089 251.0265 
L 89.320497 259.044191 
L 90.747702 261.619213 
L 93.60211 268.774819 
L 96.456519 275.362967 
L 97.883724 278.51574 
L 100.738132 284.118333 
L 106.44695 293.509658 
L 107.874154 295.571507 
L 109.301359 297.437782 
L 110.728563 298.808912 
L 113.582972 302.58132 
L 122.146198 311.329789 
L 127.855015 315.582932 
L 129.28222 313.906385 
L 130.709424 314.765152 
L 134.991037 317.862039 
L 140.699855 321.064569 
L 143.554263 321.880819 
L 146.408672 323.333872 
L 147.835877 323.863699 
L 149.263081 324.542681 
L 150.690285 324.946496 
L 152.11749 325.567446 
L 153.544694 326.056538 
L 154.971898 326.272974 
L 157.826307 327.103467 
L 159.253512 327.34437 
L 160.680716 327.779357 
L 162.10792 326.86286 
L 169.243942 328.584158 
L 172.098351 328.978302 
L 173.525555 329.375817 
L 174.95276 329.587954 
L 177.807168 330.335419 
L 180.661577 330.796886 
L 182.088782 329.924997 
L 184.94319 330.502002 
L 186.370395 330.833414 
L 189.224803 331.132528 
L 192.079212 331.440169 
L 193.506417 331.790456 
L 194.933621 332.004254 
L 199.215234 332.348911 
L 200.642438 332.109505 
L 206.351256 332.712797 
L 207.77846 330.96063 
L 210.632869 331.333494 
L 213.487278 332.024359 
L 216.341687 332.087795 
L 217.768891 331.364349 
L 223.477708 331.657035 
L 232.040935 332.855672 
L 233.468139 332.841587 
L 234.895343 333.040601 
L 237.749752 332.892871 
L 239.176957 332.987597 
L 240.604161 332.816077 
L 242.031365 332.954576 
L 247.740183 333.166057 
L 250.594592 333.329459 
L 252.021796 333.019407 
L 253.449 332.969426 
L 254.876205 333.077084 
L 256.303409 332.988384 
L 257.730613 333.025581 
L 260.585022 333.405234 
L 262.012227 333.412444 
L 264.866635 333.764176 
L 266.29384 333.656357 
L 276.28427 334.018401 
L 280.565883 333.85887 
L 281.993088 333.989098 
L 283.420292 333.991563 
L 286.274701 334.22857 
L 290.556314 334.388509 
L 291.983518 334.553914 
L 294.837927 334.590309 
L 296.265132 334.24119 
L 297.692336 334.22497 
L 299.11954 334.010437 
L 301.973949 334.267707 
L 304.828358 334.17918 
L 306.255562 333.956776 
L 309.109971 334.298603 
L 310.537175 334.341171 
L 311.96438 334.22911 
L 316.245993 334.170818 
L 317.673197 334.101144 
L 319.100402 333.915588 
L 320.527606 334.055193 
L 321.95481 334.364495 
L 323.382015 334.380105 
L 324.809219 334.250569 
L 336.226854 334.739329 
L 337.654058 334.580584 
L 339.081263 334.598727 
L 340.508467 334.505564 
L 341.935672 334.551692 
L 343.362876 334.759802 
L 347.644489 335.036495 
L 349.071693 334.930719 
L 351.926102 334.913243 
L 354.780511 334.790195 
L 357.63492 335.015236 
L 359.062124 334.742926 
L 360.489328 334.858061 
L 363.343737 334.628986 
L 369.052555 334.738429 
L 371.906963 334.524645 
L 373.334168 333.862072 
L 377.615781 334.041619 
L 379.042985 333.901526 
L 380.47019 333.984948 
L 381.897394 333.821314 
L 383.324598 334.00048 
L 387.606212 334.132011 
L 390.46062 334.037724 
L 391.887825 334.014289 
L 393.315029 332.298727 
L 394.742233 332.151466 
L 396.169438 332.418733 
L 397.596642 332.352371 
L 399.023847 331.011244 
L 400.451051 331.220726 
L 401.878255 331.307241 
L 403.30546 331.281594 
L 406.159868 331.771037 
L 407.587073 331.799251 
L 409.014277 331.683185 
L 410.441482 331.883391 
L 414.723095 332.135025 
L 416.150299 332.402652 
L 417.577503 332.360741 
L 420.431912 332.667941 
L 421.859117 332.720749 
L 424.713525 333.095948 
L 427.567934 333.370587 
L 430.422343 333.324837 
L 431.849547 333.422333 
L 433.276752 333.330567 
L 434.703956 333.568436 
L 437.558365 333.570822 
L 438.985569 333.649045 
L 443.267182 333.227334 
L 447.548795 333.704912 
L 454.684817 334.09988 
L 464.675248 333.844524 
L 466.102452 333.609633 
L 467.529657 333.52108 
L 473.238474 333.904067 
L 476.092883 333.702239 
L 484.656109 334.259943 
L 486.083313 334.138431 
L 488.937722 334.404235 
L 490.364927 334.212473 
L 491.792131 334.15986 
L 494.64654 334.338291 
L 496.073744 334.544768 
L 503.209766 334.637414 
L 504.63697 334.804692 
L 506.064175 334.727169 
L 508.918583 334.743936 
L 511.772992 334.635903 
L 513.200197 334.421355 
L 514.627401 334.632339 
L 517.48181 334.539303 
L 518.909014 334.799304 
L 523.190627 334.838622 
L 524.617832 334.671526 
L 528.899445 334.57017 
L 530.326649 334.402401 
L 531.753853 334.355402 
L 534.608262 334.640736 
L 537.462671 334.653497 
L 538.889875 334.81173 
L 543.171488 334.803088 
L 544.598693 334.602286 
L 547.453102 334.546122 
L 551.734715 334.673189 
L 553.161919 334.509918 
L 557.443532 334.499077 
L 558.870737 334.376782 
L 560.297941 334.475218 
L 561.725145 333.943596 
L 563.15235 334.168991 
L 564.579554 334.048848 
L 566.006758 334.064431 
L 567.433963 334.277085 
L 568.861167 334.004162 
L 570.288371 334.203045 
L 573.14278 334.109911 
L 574.569985 334.074722 
L 575.997189 333.862476 
L 578.851598 334.083058 
L 580.278802 334.382296 
L 583.133211 334.364658 
L 584.560415 334.353818 
L 585.98762 334.205092 
L 591.696437 334.672132 
L 593.123641 334.479066 
L 594.550846 333.143673 
L 597.405255 333.226547 
L 600.259663 333.397178 
L 603.114072 333.460442 
L 604.541276 333.425263 
L 605.968481 333.260013 
L 607.395685 333.20953 
L 608.82289 333.371344 
L 610.250094 333.650158 
L 611.677298 333.624029 
L 613.104503 333.94106 
L 614.531707 333.84259 
L 615.958911 333.960366 
L 620.240525 333.929459 
L 621.667729 334.067178 
L 624.522138 334.092259 
L 625.949342 334.289503 
L 627.376546 334.353899 
L 630.230955 334.657094 
L 633.085364 334.532903 
L 634.512568 334.469123 
L 634.512568 334.469123 
" clip-path="url(#p2847d496c7)" style="fill: none; stroke: #ff7f0e; stroke-width: 1.2; stroke-linecap: square"/>
   </g>
   <g id="line2d_33">
    <path d="M 66.485227 48.838145 
L 67.912432 55.719231 
L 70.76684 75.522985 
L 72.194045 80.659292 
L 73.621249 91.78553 
L 75.048454 95.306484 
L 76.475658 102.260423 
L 77.902862 112.046112 
L 79.330067 122.773292 
L 80.757271 131.996639 
L 82.184475 139.425269 
L 85.038884 156.515167 
L 87.893293 173.808456 
L 89.320497 181.733494 
L 93.60211 203.363186 
L 96.456519 216.233395 
L 99.310928 227.55251 
L 102.165337 237.717403 
L 105.019745 246.745445 
L 106.44695 251.151886 
L 107.874154 254.026672 
L 109.301359 258.217116 
L 112.155767 265.577196 
L 115.010176 272.468156 
L 116.43738 275.608007 
L 119.291789 281.026387 
L 122.146198 286.083848 
L 125.000607 291.003038 
L 129.28222 297.323896 
L 130.709424 299.259047 
L 134.991037 304.223994 
L 136.418242 305.739593 
L 140.699855 309.849871 
L 142.127059 310.898695 
L 144.981468 313.269208 
L 147.835877 315.482764 
L 149.263081 316.221357 
L 152.11749 318.386765 
L 156.399103 320.763147 
L 159.253512 321.942361 
L 162.10792 323.143189 
L 164.962329 324.13223 
L 166.389533 324.848445 
L 169.243942 325.930537 
L 173.525555 327.084014 
L 179.234373 328.819061 
L 187.797599 330.510451 
L 189.224803 330.562977 
L 194.933621 331.666093 
L 196.360825 331.831252 
L 197.78803 332.186044 
L 199.215234 332.291126 
L 200.642438 332.251229 
L 203.496847 332.294254 
L 204.924052 332.2973 
L 207.77846 332.551686 
L 210.632869 332.395675 
L 212.060073 332.657329 
L 213.487278 332.739328 
L 214.914482 332.992459 
L 217.768891 332.705125 
L 220.6233 333.183555 
L 227.759322 333.386409 
L 229.186526 333.622764 
L 230.61373 333.445961 
L 233.468139 333.777089 
L 234.895343 333.666027 
L 239.176957 334.008118 
L 240.604161 333.987081 
L 242.031365 333.839451 
L 243.45857 333.80585 
L 249.167387 334.146688 
L 250.594592 334.136611 
L 253.449 334.556825 
L 254.876205 334.599246 
L 256.303409 334.852185 
L 259.157818 335.043006 
L 260.585022 335.097264 
L 262.012227 334.829293 
L 264.866635 334.793103 
L 267.721044 334.655178 
L 269.148248 334.63912 
L 270.575453 334.356251 
L 273.429862 334.549545 
L 274.857066 334.536901 
L 280.565883 335.204187 
L 281.993088 335.089231 
L 287.701905 335.265996 
L 291.983518 335.529055 
L 293.410723 335.481334 
L 294.837927 335.192582 
L 296.265132 335.263192 
L 297.692336 335.215735 
L 299.11954 334.932264 
L 306.255562 334.606061 
L 307.682767 334.716272 
L 309.109971 334.61331 
L 310.537175 334.814114 
L 311.96438 334.27403 
L 313.391584 334.465625 
L 314.818788 334.496854 
L 316.245993 334.368203 
L 317.673197 334.396796 
L 321.95481 334.185304 
L 324.809219 334.099463 
L 327.663628 333.811732 
L 329.090832 333.916188 
L 330.518037 333.386323 
L 331.945241 333.410522 
L 334.79965 333.245476 
L 336.226854 333.354989 
L 341.935672 333.075369 
L 343.362876 333.107745 
L 344.79008 332.7791 
L 347.644489 332.6603 
L 350.498898 332.834103 
L 353.353307 333.05739 
L 354.780511 333.21773 
L 356.207715 333.217377 
L 357.63492 333.451141 
L 361.916533 333.492958 
L 363.343737 333.412393 
L 366.198146 333.743812 
L 370.479759 333.77987 
L 373.334168 333.89041 
L 376.188577 333.813166 
L 379.042985 333.956073 
L 383.324598 333.800878 
L 384.751803 333.459774 
L 387.606212 333.576091 
L 391.887825 333.801775 
L 393.315029 333.708135 
L 394.742233 333.7524 
L 396.169438 333.98888 
L 399.023847 333.978672 
L 401.878255 334.137513 
L 404.732664 334.121909 
L 406.159868 333.027351 
L 407.587073 333.327821 
L 411.868686 333.564946 
L 416.150299 333.603536 
L 419.004708 333.32913 
L 420.431912 333.483047 
L 423.286321 333.560799 
L 424.713525 333.315379 
L 428.995138 333.609953 
L 436.13116 333.54343 
L 437.558365 333.597898 
L 438.985569 333.463384 
L 440.412773 333.635891 
L 443.267182 333.55128 
L 444.694387 333.703121 
L 446.121591 333.641329 
L 448.976 333.921434 
L 450.403204 333.888257 
L 456.112022 334.277556 
L 457.539226 334.226051 
L 458.96643 334.285806 
L 460.393635 334.045073 
L 461.820839 334.254135 
L 468.956861 334.351952 
L 470.384065 334.239042 
L 471.81127 333.972417 
L 476.092883 334.141454 
L 477.520087 333.925452 
L 481.8017 334.011004 
L 483.228905 333.886129 
L 484.656109 333.918731 
L 486.083313 330.915582 
L 487.510518 331.227772 
L 490.364927 331.610835 
L 493.219335 331.629938 
L 496.073744 331.897597 
L 497.500948 331.89955 
L 498.928153 332.016558 
L 500.355357 331.97833 
L 503.209766 332.27998 
L 506.064175 332.158293 
L 507.491379 332.134767 
L 508.918583 332.431446 
L 511.772992 332.464486 
L 514.627401 333.045353 
L 516.054605 333.136728 
L 518.909014 333.045314 
L 520.336218 333.289044 
L 521.763423 333.265207 
L 523.190627 333.415958 
L 524.617832 333.344262 
L 527.47224 333.503325 
L 528.899445 333.455231 
L 531.753853 333.85355 
L 534.608262 333.344183 
L 537.462671 333.399271 
L 540.31708 333.603499 
L 543.171488 333.503315 
L 544.598693 333.755013 
L 546.025897 333.578707 
L 550.30751 333.978251 
L 551.734715 334.200306 
L 554.589123 334.286974 
L 556.016328 334.108359 
L 557.443532 334.174315 
L 560.297941 334.175663 
L 563.15235 334.261281 
L 564.579554 334.392504 
L 568.861167 334.162737 
L 573.14278 334.557681 
L 574.569985 334.634245 
L 575.997189 334.573399 
L 577.424393 334.684794 
L 578.851598 334.54156 
L 580.278802 334.563441 
L 583.133211 334.328632 
L 584.560415 334.134444 
L 585.98762 334.146252 
L 587.414824 334.282594 
L 590.269233 334.002567 
L 593.123641 334.026395 
L 594.550846 333.929551 
L 595.97805 333.967738 
L 597.405255 334.143698 
L 598.832459 334.177203 
L 600.259663 334.032195 
L 601.686868 334.092926 
L 603.114072 332.623656 
L 605.968481 332.806835 
L 607.395685 332.820902 
L 610.250094 333.127711 
L 611.677298 333.001015 
L 613.104503 333.201053 
L 614.531707 333.104472 
L 618.81332 333.658897 
L 620.240525 332.83441 
L 624.522138 333.202653 
L 625.949342 332.967476 
L 630.230955 333.500831 
L 631.65816 333.563037 
L 634.512568 333.903417 
L 634.512568 333.903417 
" clip-path="url(#p2847d496c7)" style="fill: none; stroke: #2ca02c; stroke-width: 1.2; stroke-linecap: square"/>
   </g>
   <g id="line2d_34">
    <path d="M 66.485227 48.838145 
L 67.912432 55.719231 
L 70.76684 77.400248 
L 72.194045 89.739815 
L 73.621249 97.813014 
L 75.048454 107.225246 
L 77.902862 128.935802 
L 80.757271 148.749181 
L 83.61168 165.561036 
L 85.038884 172.411999 
L 87.893293 188.443207 
L 90.747702 202.936098 
L 93.60211 215.858239 
L 96.456519 227.526235 
L 99.310928 238.078924 
L 102.165337 247.046437 
L 105.019745 255.699781 
L 107.874154 263.516659 
L 110.728563 270.225288 
L 113.582972 276.610258 
L 115.010176 279.605456 
L 120.718994 289.48862 
L 122.146198 291.847446 
L 123.573402 293.660964 
L 125.000607 295.857825 
L 129.28222 301.420445 
L 136.418242 309.095324 
L 137.845446 310.418612 
L 139.27265 311.358155 
L 142.127059 313.61398 
L 143.554263 314.671205 
L 144.981468 315.517869 
L 146.408672 316.569095 
L 147.835877 317.257451 
L 150.690285 318.967832 
L 152.11749 319.605168 
L 153.544694 320.492186 
L 154.971898 321.217316 
L 157.826307 322.267576 
L 159.253512 323.011999 
L 160.680716 323.494514 
L 163.535125 324.077503 
L 164.962329 324.198207 
L 166.389533 324.78839 
L 167.816738 325.170534 
L 169.243942 325.752025 
L 170.671147 326.047309 
L 172.098351 326.475152 
L 173.525555 326.652632 
L 174.95276 325.664669 
L 176.379964 326.043774 
L 177.807168 326.560811 
L 179.234373 326.739241 
L 180.661577 327.071059 
L 184.94319 328.458038 
L 189.224803 329.346291 
L 192.079212 329.530193 
L 193.506417 329.843116 
L 194.933621 329.84973 
L 197.78803 330.201666 
L 202.069643 330.915656 
L 203.496847 330.947478 
L 204.924052 331.27869 
L 206.351256 331.311326 
L 212.060073 332.018177 
L 216.341687 332.316495 
L 217.768891 332.210109 
L 220.6233 332.296079 
L 223.477708 332.342576 
L 224.904913 332.416764 
L 226.332117 332.716227 
L 229.186526 332.939414 
L 230.61373 332.850489 
L 234.895343 333.464745 
L 236.322548 332.613968 
L 237.749752 332.70426 
L 239.176957 332.940345 
L 240.604161 332.869858 
L 243.45857 333.014451 
L 246.312978 333.181854 
L 247.740183 333.208874 
L 249.167387 333.041297 
L 254.876205 333.515318 
L 257.730613 334.043462 
L 262.012227 334.27255 
L 263.439431 334.478964 
L 264.866635 334.440822 
L 266.29384 334.249618 
L 269.148248 334.468981 
L 272.002657 334.394991 
L 274.857066 334.542165 
L 276.28427 334.728464 
L 277.711475 332.786608 
L 280.565883 333.147556 
L 281.993088 333.350932 
L 283.420292 333.270762 
L 286.274701 333.462763 
L 289.12911 333.528767 
L 290.556314 333.366822 
L 291.983518 333.498053 
L 293.410723 333.357916 
L 296.265132 333.457071 
L 297.692336 332.326841 
L 303.401153 332.89989 
L 304.828358 331.758697 
L 307.682767 331.972767 
L 309.109971 331.932808 
L 311.96438 332.434793 
L 313.391584 331.579899 
L 319.100402 332.498539 
L 320.527606 332.533595 
L 321.95481 332.709402 
L 326.236423 332.781096 
L 329.090832 333.106339 
L 334.79965 333.202861 
L 337.654058 333.208122 
L 339.081263 333.144546 
L 346.217285 333.671749 
L 347.644489 333.522098 
L 350.498898 333.453948 
L 353.353307 333.881416 
L 354.780511 333.873239 
L 356.207715 334.022788 
L 357.63492 333.877636 
L 359.062124 334.077736 
L 363.343737 334.082006 
L 364.770942 334.108169 
L 366.198146 333.950995 
L 367.62535 333.914892 
L 370.479759 334.131842 
L 373.334168 334.436492 
L 374.761372 334.432626 
L 377.615781 334.130083 
L 381.897394 334.419199 
L 383.324598 334.230501 
L 389.033416 334.220289 
L 390.46062 333.245338 
L 391.887825 333.45408 
L 393.315029 333.303239 
L 397.596642 333.713032 
L 400.451051 333.85551 
L 401.878255 333.649451 
L 403.30546 333.776296 
L 404.732664 333.693411 
L 413.29589 333.954596 
L 414.723095 333.823808 
L 417.577503 333.832992 
L 420.431912 333.624541 
L 423.286321 333.785889 
L 430.422343 333.631223 
L 436.13116 334.230907 
L 440.412773 334.42039 
L 441.839978 334.23457 
L 444.694387 334.423267 
L 446.121591 334.327114 
L 450.403204 334.605641 
L 451.830408 334.485637 
L 453.257613 334.664773 
L 456.112022 334.715272 
L 458.96643 334.872888 
L 460.393635 334.75678 
L 461.820839 334.755252 
L 463.248043 334.521764 
L 466.102452 334.514514 
L 467.529657 333.455634 
L 468.956861 333.607295 
L 470.384065 333.621156 
L 473.238474 333.252665 
L 476.092883 333.598862 
L 477.520087 333.512551 
L 478.947292 333.762252 
L 480.374496 333.491714 
L 483.228905 333.819448 
L 484.656109 333.981027 
L 486.083313 333.941797 
L 487.510518 334.094042 
L 488.937722 333.217295 
L 496.073744 333.740728 
L 497.500948 333.702032 
L 500.355357 333.354371 
L 503.209766 333.466824 
L 504.63697 333.705465 
L 507.491379 333.75945 
L 508.918583 333.707681 
L 511.772992 333.939337 
L 513.200197 333.879452 
L 514.627401 333.70707 
L 516.054605 333.701066 
L 517.48181 333.957977 
L 520.336218 334.252459 
L 521.763423 333.94172 
L 523.190627 334.154294 
L 524.617832 334.01926 
L 527.47224 334.116699 
L 530.326649 334.222417 
L 533.181058 334.240637 
L 537.462671 334.23039 
L 538.889875 334.030285 
L 540.31708 334.040266 
L 541.744284 333.796356 
L 543.171488 333.853317 
L 546.025897 333.580337 
L 547.453102 333.727925 
L 548.880306 333.698279 
L 550.30751 330.837342 
L 557.443532 331.867789 
L 560.297941 332.420202 
L 561.725145 332.603733 
L 564.579554 332.615719 
L 566.006758 332.927794 
L 567.433963 332.840996 
L 571.715576 333.044218 
L 573.14278 332.94021 
L 575.997189 333.26931 
L 578.851598 333.179218 
L 580.278802 333.384467 
L 583.133211 333.103223 
L 593.123641 333.747881 
L 594.550846 333.510385 
L 598.832459 333.702109 
L 600.259663 333.649201 
L 601.686868 333.835535 
L 603.114072 333.577941 
L 605.968481 333.883118 
L 608.82289 333.732643 
L 613.104503 333.804535 
L 614.531707 333.684391 
L 620.240525 334.00922 
L 623.094933 334.168541 
L 624.522138 333.982556 
L 625.949342 334.05731 
L 627.376546 333.958831 
L 628.803751 333.747623 
L 633.085364 333.989178 
L 634.512568 334.01682 
L 634.512568 334.01682 
" clip-path="url(#p2847d496c7)" style="fill: none; stroke: #9b8ac9; stroke-width: 1.2; stroke-linecap: square"/>
   </g>
   <g id="patch_3">
    <path d="M 38.0125 349.8636 
L 38.0125 34.5036 
" style="fill: none; stroke: #000000; stroke-width: 0.8; stroke-linejoin: miter; stroke-linecap: square"/>
   </g>
   <g id="patch_4">
    <path d="M 664.4125 349.8636 
L 664.4125 34.5036 
" style="fill: none; stroke: #000000; stroke-width: 0.8; stroke-linejoin: miter; stroke-linecap: square"/>
   </g>
   <g id="patch_5">
    <path d="M 38.0125 349.8636 
L 664.4125 349.8636 
" style="fill: none; stroke: #000000; stroke-width: 0.8; stroke-linejoin: miter; stroke-linecap: square"/>
   </g>
   <g id="patch_6">
    <path d="M 38.0125 34.5036 
L 664.4125 34.5036 
" style="fill: none; stroke: #000000; stroke-width: 0.8; stroke-linejoin: miter; stroke-linecap: square"/>
   </g>
   <g id="legend_1">
    <g id="patch_7">
     <path d="M 38.0125 31.35 
L 664.4125 31.35 
L 664.4125 7.2 
L 38.0125 7.2 
z
" style="fill: #ffffff; stroke: #808080; stroke-width: 0.8; stroke-linejoin: miter"/>
    </g>
    <g id="line2d_35">
     <path d="M 44.3125 18.4 
L 58.3125 18.4 
L 72.3125 18.4 
" style="fill: none; stroke: #1f77b4; stroke-width: 1.2; stroke-linecap: square"/>
    </g>
    <g id="text_18">
     <!-- GCN-DDQN -->
     <g transform="translate(80.7125 23.3) scale(0.14 -0.14)">
      <defs>
       <path id="SimHei-47" d="M 2850 75 
L 2425 75 
L 2350 425 
Q 2250 275 2037 175 
Q 1825 75 1575 75 
Q 1050 75 637 562 
Q 225 1050 225 2125 
Q 225 3300 600 3875 
Q 975 4450 1625 4450 
Q 2200 4450 2525 4025 
Q 2850 3600 2850 2925 
L 2300 2925 
Q 2300 3450 2125 3712 
Q 1950 3975 1625 3975 
Q 1225 3975 1025 3562 
Q 825 3150 825 2175 
Q 825 1250 1075 900 
Q 1325 550 1650 550 
Q 1975 550 2162 787 
Q 2350 1025 2350 1525 
L 2350 1800 
L 1575 1800 
L 1575 2275 
L 2850 2275 
L 2850 75 
z
" transform="scale(0.015625)"/>
       <path id="SimHei-43" d="M 2975 1825 
Q 2950 875 2575 475 
Q 2200 75 1675 75 
Q 1075 75 650 562 
Q 225 1050 225 2125 
Q 225 3300 637 3875 
Q 1050 4450 1700 4450 
Q 2250 4450 2612 4037 
Q 2975 3625 2950 2875 
L 2400 2875 
Q 2400 3425 2225 3700 
Q 2050 3975 1700 3975 
Q 1300 3975 1062 3562 
Q 825 3150 825 2175 
Q 825 1275 1062 912 
Q 1300 550 1675 550 
Q 1950 550 2175 812 
Q 2400 1075 2400 1825 
L 2975 1825 
z
" transform="scale(0.015625)"/>
       <path id="SimHei-4e" d="M 2850 125 
L 2225 125 
L 850 3225 
L 825 3225 
L 825 125 
L 250 125 
L 250 4400 
L 875 4400 
L 2250 1300 
L 2275 1300 
L 2275 4400 
L 2850 4400 
L 2850 125 
z
" transform="scale(0.015625)"/>
       <path id="SimHei-2d" d="M 2975 2125 
L 125 2125 
L 125 2525 
L 2975 2525 
L 2975 2125 
z
" transform="scale(0.015625)"/>
       <path id="SimHei-44" d="M 2925 2250 
Q 2925 1100 2437 612 
Q 1950 125 1125 125 
L 275 125 
L 275 4400 
L 1125 4400 
Q 2050 4400 2487 3900 
Q 2925 3400 2925 2250 
z
M 2325 2250 
Q 2325 3175 2025 3550 
Q 1725 3925 1125 3925 
L 850 3925 
L 850 600 
L 1125 600 
Q 1725 600 2025 962 
Q 2325 1325 2325 2250 
z
" transform="scale(0.015625)"/>
       <path id="SimHei-51" d="M 2950 2275 
Q 2950 1675 2862 1262 
Q 2775 850 2575 600 
L 2775 225 
L 2375 -200 
L 2150 225 
Q 2050 150 1900 112 
Q 1750 75 1575 75 
Q 925 75 550 587 
Q 175 1100 175 2275 
Q 175 3450 550 3950 
Q 925 4450 1575 4450 
Q 2225 4450 2587 3950 
Q 2950 3450 2950 2275 
z
M 2350 2275 
Q 2350 3325 2125 3650 
Q 1900 3975 1575 3975 
Q 1250 3975 1012 3650 
Q 775 3325 775 2275 
Q 775 1225 1012 887 
Q 1250 550 1575 550 
Q 1700 550 1800 587 
Q 1900 625 1950 675 
L 1550 1450 
L 1900 1875 
L 2250 1200 
Q 2300 1450 2325 1650 
Q 2350 1850 2350 2275 
z
" transform="scale(0.015625)"/>
      </defs>
      <use xlink:href="#SimHei-47"/>
      <use xlink:href="#SimHei-43" transform="translate(50 0)"/>
      <use xlink:href="#SimHei-4e" transform="translate(100 0)"/>
      <use xlink:href="#SimHei-2d" transform="translate(150 0)"/>
      <use xlink:href="#SimHei-44" transform="translate(200 0)"/>
      <use xlink:href="#SimHei-44" transform="translate(250 0)"/>
      <use xlink:href="#SimHei-51" transform="translate(300 0)"/>
      <use xlink:href="#SimHei-4e" transform="translate(350 0)"/>
     </g>
    </g>
    <g id="line2d_36">
     <path d="M 211.1125 18.4 
L 225.1125 18.4 
L 239.1125 18.4 
" style="fill: none; stroke: #ff7f0e; stroke-width: 1.2; stroke-linecap: square"/>
    </g>
    <g id="text_19">
     <!-- GCN-D3QN -->
     <g transform="translate(247.5125 23.3) scale(0.14 -0.14)">
      <use xlink:href="#SimHei-47"/>
      <use xlink:href="#SimHei-43" transform="translate(50 0)"/>
      <use xlink:href="#SimHei-4e" transform="translate(100 0)"/>
      <use xlink:href="#SimHei-2d" transform="translate(150 0)"/>
      <use xlink:href="#SimHei-44" transform="translate(200 0)"/>
      <use xlink:href="#SimHei-33" transform="translate(250 0)"/>
      <use xlink:href="#SimHei-51" transform="translate(300 0)"/>
      <use xlink:href="#SimHei-4e" transform="translate(350 0)"/>
     </g>
    </g>
    <g id="line2d_37">
     <path d="M 377.9125 18.4 
L 391.9125 18.4 
L 405.9125 18.4 
" style="fill: none; stroke: #2ca02c; stroke-width: 1.2; stroke-linecap: square"/>
    </g>
    <g id="text_20">
     <!-- GAT-LSTM-DDQN -->
     <g transform="translate(414.3125 23.3) scale(0.14 -0.14)">
      <defs>
       <path id="SimHei-41" d="M 3075 125 
L 2475 125 
L 2125 1450 
L 1025 1450 
L 675 125 
L 75 125 
L 1325 4450 
L 1825 4450 
L 3075 125 
z
M 2000 1925 
L 1600 3450 
L 1550 3450 
L 1150 1925 
L 2000 1925 
z
" transform="scale(0.015625)"/>
       <path id="SimHei-4c" d="M 2900 125 
L 300 125 
L 300 4400 
L 875 4400 
L 875 600 
L 2900 600 
L 2900 125 
z
" transform="scale(0.015625)"/>
       <path id="SimHei-53" d="M 2900 1325 
Q 2900 750 2537 412 
Q 2175 75 1550 75 
Q 925 75 575 425 
Q 225 775 225 1300 
L 225 1475 
L 800 1475 
L 800 1325 
Q 800 950 1025 750 
Q 1250 550 1550 550 
Q 1950 550 2137 762 
Q 2325 975 2325 1275 
Q 2325 1525 2100 1737 
Q 1875 1950 1450 2125 
Q 850 2350 587 2625 
Q 325 2900 325 3275 
Q 325 3800 687 4125 
Q 1050 4450 1550 4450 
Q 2200 4450 2487 4062 
Q 2775 3675 2775 3225 
L 2200 3225 
Q 2225 3500 2050 3725 
Q 1875 3950 1550 3950 
Q 1250 3950 1075 3787 
Q 900 3625 900 3350 
Q 900 3125 1037 2962 
Q 1175 2800 1750 2575 
Q 2300 2350 2600 2037 
Q 2900 1725 2900 1325 
z
" transform="scale(0.015625)"/>
       <path id="SimHei-4d" d="M 2925 125 
L 2425 125 
L 2425 3175 
L 2375 3175 
L 1775 125 
L 1375 125 
L 775 3175 
L 725 3175 
L 725 125 
L 225 125 
L 225 4400 
L 1000 4400 
L 1550 1575 
L 1600 1575 
L 2150 4400 
L 2925 4400 
L 2925 125 
z
" transform="scale(0.015625)"/>
      </defs>
      <use xlink:href="#SimHei-47"/>
      <use xlink:href="#SimHei-41" transform="translate(50 0)"/>
      <use xlink:href="#SimHei-54" transform="translate(100 0)"/>
      <use xlink:href="#SimHei-2d" transform="translate(150 0)"/>
      <use xlink:href="#SimHei-4c" transform="translate(200 0)"/>
      <use xlink:href="#SimHei-53" transform="translate(250 0)"/>
      <use xlink:href="#SimHei-54" transform="translate(300 0)"/>
      <use xlink:href="#SimHei-4d" transform="translate(350 0)"/>
      <use xlink:href="#SimHei-2d" transform="translate(400 0)"/>
      <use xlink:href="#SimHei-44" transform="translate(450 0)"/>
      <use xlink:href="#SimHei-44" transform="translate(500 0)"/>
      <use xlink:href="#SimHei-51" transform="translate(550 0)"/>
      <use xlink:href="#SimHei-4e" transform="translate(600 0)"/>
     </g>
    </g>
    <g id="line2d_38">
     <path d="M 579.7125 18.4 
L 593.7125 18.4 
L 607.7125 18.4 
" style="fill: none; stroke: #9b8ac9; stroke-width: 1.2; stroke-linecap: square"/>
    </g>
    <g id="text_21">
     <!-- GLDVTO -->
     <g transform="translate(616.1125 23.3) scale(0.14 -0.14)">
      <defs>
       <path id="SimHei-56" d="M 3050 4400 
L 1800 75 
L 1300 75 
L 50 4400 
L 650 4400 
L 1525 1125 
L 1575 1125 
L 2450 4400 
L 3050 4400 
z
" transform="scale(0.015625)"/>
       <path id="SimHei-4f" d="M 2950 2275 
Q 2950 1100 2587 587 
Q 2225 75 1575 75 
Q 925 75 550 587 
Q 175 1100 175 2275 
Q 175 3450 550 3950 
Q 925 4450 1575 4450 
Q 2225 4450 2587 3950 
Q 2950 3450 2950 2275 
z
M 2350 2275 
Q 2350 3325 2125 3650 
Q 1900 3975 1575 3975 
Q 1250 3975 1012 3650 
Q 775 3325 775 2275 
Q 775 1225 1012 887 
Q 1250 550 1575 550 
Q 1900 550 2125 887 
Q 2350 1225 2350 2275 
z
" transform="scale(0.015625)"/>
      </defs>
      <use xlink:href="#SimHei-47"/>
      <use xlink:href="#SimHei-4c" transform="translate(50 0)"/>
      <use xlink:href="#SimHei-44" transform="translate(100 0)"/>
      <use xlink:href="#SimHei-56" transform="translate(150 0)"/>
      <use xlink:href="#SimHei-54" transform="translate(200 0)"/>
      <use xlink:href="#SimHei-4f" transform="translate(250 0)"/>
     </g>
    </g>
   </g>
  </g>
 </g>
 <defs>
  <clipPath id="p2847d496c7">
   <rect x="38.0125" y="34.5036" width="626.4" height="315.36"/>
  </clipPath>
 </defs>
</svg>
