<?xml version="1.0" encoding="utf-8" standalone="no"?>
<!DOCTYPE svg PUBLIC "-//W3C//DTD SVG 1.1//EN"
  "http://www.w3.org/Graphics/SVG/1.1/DTD/svg11.dtd">
<svg xmlns:xlink="http://www.w3.org/1999/xlink" width="620.4pt" height="397.915pt" viewBox="0 0 620.4 397.915" xmlns="http://www.w3.org/2000/svg" version="1.1">
 <metadata>
  <rdf:RDF xmlns:dc="http://purl.org/dc/elements/1.1/" xmlns:cc="http://creativecommons.org/ns#" xmlns:rdf="http://www.w3.org/1999/02/22-rdf-syntax-ns#">
   <cc:Work>
    <dc:type rdf:resource="http://purl.org/dc/dcmitype/StillImage"/>
    <dc:date>2026-06-25T19:51:57.544531</dc:date>
    <dc:format>image/svg+xml</dc:format>
    <dc:creator>
     <cc:Agent>
      <dc:title>Matplotlib v3.10.7, https://matplotlib.org/</dc:title>
     </cc:Agent>
    </dc:creator>
   </cc:Work>
  </rdf:RDF>
 </metadata>
 <defs>
  <style type="text/css">*{stroke-linejoin: round; stroke-linecap: butt}</style>
 </defs>
 <g id="figure_1">
  <g id="patch_1">
   <path d="M 0 397.915 
L 620.4 397.915 
L 620.4 -0 
L 0 -0 
z
" style="fill: #ffffff"/>
  </g>
  <g id="axes_1">
   <g id="patch_2">
    <path d="M 55.2 356.965 
L 613.2 356.965 
L 613.2 24.325 
L 55.2 24.325 
z
" style="fill: #ffffff"/>
   </g>
   <g id="matplotlib.axis_1">
    <g id="xtick_1">
     <g id="line2d_1">
      <path d="M 80.563636 356.965 
L 80.563636 24.325 
" clip-path="url(#pdb2e522e6b)" style="fill: none; stroke: #b0b0b0; stroke-opacity: 0.3; stroke-width: 0.8; stroke-linecap: square"/>
     </g>
     <g id="line2d_2">
      <defs>
       <path id="m11d7afa44c" d="M 0 0 
L 0 3.5 
" style="stroke: #000000; stroke-width: 0.8"/>
      </defs>
      <g>
       <use xlink:href="#m11d7afa44c" x="80.563636" y="356.965" style="stroke: #000000; stroke-width: 0.8"/>
      </g>
     </g>
     <g id="text_1">
      <!-- 0 -->
      <g transform="translate(77.563636 372.215) scale(0.12 -0.12)">
       <defs>
        <path id="SimHei-30" d="M 225 2537 
Q 250 3200 412 3587 
Q 575 3975 875 4225 
Q 1175 4475 1612 4475 
Q 2050 4475 2375 4112 
Q 2700 3750 2800 3200 
Q 2900 2650 2862 1937 
Q 2825 1225 2612 775 
Q 2400 325 1975 150 
Q 1550 -25 1125 187 
Q 700 400 525 750 
Q 350 1100 275 1487 
Q 200 1875 225 2537 
z
M 750 2687 
Q 675 2000 800 1462 
Q 925 925 1212 700 
Q 1500 475 1800 612 
Q 2100 750 2237 1162 
Q 2375 1575 2375 2062 
Q 2375 2550 2337 2950 
Q 2300 3350 2112 3675 
Q 1925 4000 1612 4012 
Q 1300 4025 1062 3700 
Q 825 3375 750 2687 
z
" transform="scale(0.015625)"/>
       </defs>
       <use xlink:href="#SimHei-30"/>
      </g>
     </g>
    </g>
    <g id="xtick_2">
     <g id="line2d_3">
      <path d="M 144.131647 356.965 
L 144.131647 24.325 
" clip-path="url(#pdb2e522e6b)" style="fill: none; stroke: #b0b0b0; stroke-opacity: 0.3; stroke-width: 0.8; stroke-linecap: square"/>
     </g>
     <g id="line2d_4">
      <g>
       <use xlink:href="#m11d7afa44c" x="144.131647" y="356.965" style="stroke: #000000; stroke-width: 0.8"/>
      </g>
     </g>
     <g id="text_2">
      <!-- 50 -->
      <g transform="translate(138.131647 372.215) scale(0.12 -0.12)">
       <defs>
        <path id="SimHei-35" d="M 550 1325 
Q 725 650 1150 575 
Q 1575 500 1837 662 
Q 2100 825 2212 1087 
Q 2325 1350 2312 1675 
Q 2300 2000 2137 2225 
Q 1975 2450 1725 2525 
Q 1475 2600 1162 2525 
Q 850 2450 650 2175 
L 225 2225 
Q 275 2375 700 4375 
L 2675 4375 
L 2675 3925 
L 1075 3925 
Q 950 3250 825 2850 
Q 1200 3025 1525 3012 
Q 1850 3000 2150 2862 
Q 2450 2725 2587 2487 
Q 2725 2250 2787 2012 
Q 2850 1775 2837 1500 
Q 2825 1225 2725 937 
Q 2625 650 2425 462 
Q 2225 275 1937 162 
Q 1650 50 1275 75 
Q 900 100 562 350 
Q 225 600 100 1200 
L 550 1325 
z
" transform="scale(0.015625)"/>
       </defs>
       <use xlink:href="#SimHei-35"/>
       <use xlink:href="#SimHei-30" transform="translate(50 0)"/>
      </g>
     </g>
    </g>
    <g id="xtick_3">
     <g id="line2d_5">
      <path d="M 207.699658 356.965 
L 207.699658 24.325 
" clip-path="url(#pdb2e522e6b)" style="fill: none; stroke: #b0b0b0; stroke-opacity: 0.3; stroke-width: 0.8; stroke-linecap: square"/>
     </g>
     <g id="line2d_6">
      <g>
       <use xlink:href="#m11d7afa44c" x="207.699658" y="356.965" style="stroke: #000000; stroke-width: 0.8"/>
      </g>
     </g>
     <g id="text_3">
      <!-- 100 -->
      <g transform="translate(198.699658 372.215) scale(0.12 -0.12)">
       <defs>
        <path id="SimHei-31" d="M 1400 3600 
Q 1075 3275 575 2975 
L 575 3450 
Q 1200 3875 1600 4450 
L 1900 4450 
L 1900 150 
L 1400 150 
L 1400 3600 
z
" transform="scale(0.015625)"/>
       </defs>
       <use xlink:href="#SimHei-31"/>
       <use xlink:href="#SimHei-30" transform="translate(50 0)"/>
       <use xlink:href="#SimHei-30" transform="translate(100 0)"/>
      </g>
     </g>
    </g>
    <g id="xtick_4">
     <g id="line2d_7">
      <path d="M 271.267669 356.965 
L 271.267669 24.325 
" clip-path="url(#pdb2e522e6b)" style="fill: none; stroke: #b0b0b0; stroke-opacity: 0.3; stroke-width: 0.8; stroke-linecap: square"/>
     </g>
     <g id="line2d_8">
      <g>
       <use xlink:href="#m11d7afa44c" x="271.267669" y="356.965" style="stroke: #000000; stroke-width: 0.8"/>
      </g>
     </g>
     <g id="text_4">
      <!-- 150 -->
      <g transform="translate(262.267669 372.215) scale(0.12 -0.12)">
       <use xlink:href="#SimHei-31"/>
       <use xlink:href="#SimHei-35" transform="translate(50 0)"/>
       <use xlink:href="#SimHei-30" transform="translate(100 0)"/>
      </g>
     </g>
    </g>
    <g id="xtick_5">
     <g id="line2d_9">
      <path d="M 334.83568 356.965 
L 334.83568 24.325 
" clip-path="url(#pdb2e522e6b)" style="fill: none; stroke: #b0b0b0; stroke-opacity: 0.3; stroke-width: 0.8; stroke-linecap: square"/>
     </g>
     <g id="line2d_10">
      <g>
       <use xlink:href="#m11d7afa44c" x="334.83568" y="356.965" style="stroke: #000000; stroke-width: 0.8"/>
      </g>
     </g>
     <g id="text_5">
      <!-- 200 -->
      <g transform="translate(325.83568 372.215) scale(0.12 -0.12)">
       <defs>
        <path id="SimHei-32" d="M 300 250 
Q 325 625 650 925 
Q 975 1225 1475 1862 
Q 1975 2500 2125 2850 
Q 2275 3200 2237 3450 
Q 2200 3700 2000 3862 
Q 1800 4025 1537 4000 
Q 1275 3975 1037 3800 
Q 800 3625 675 3275 
L 200 3350 
Q 400 3925 712 4187 
Q 1025 4450 1450 4475 
Q 1700 4500 1900 4462 
Q 2100 4425 2312 4287 
Q 2525 4150 2662 3875 
Q 2800 3600 2762 3212 
Q 2725 2825 2375 2287 
Q 2025 1750 1025 600 
L 2825 600 
L 2825 150 
L 300 150 
L 300 250 
z
" transform="scale(0.015625)"/>
       </defs>
       <use xlink:href="#SimHei-32"/>
       <use xlink:href="#SimHei-30" transform="translate(50 0)"/>
       <use xlink:href="#SimHei-30" transform="translate(100 0)"/>
      </g>
     </g>
    </g>
    <g id="xtick_6">
     <g id="line2d_11">
      <path d="M 398.403691 356.965 
L 398.403691 24.325 
" clip-path="url(#pdb2e522e6b)" style="fill: none; stroke: #b0b0b0; stroke-opacity: 0.3; stroke-width: 0.8; stroke-linecap: square"/>
     </g>
     <g id="line2d_12">
      <g>
       <use xlink:href="#m11d7afa44c" x="398.403691" y="356.965" style="stroke: #000000; stroke-width: 0.8"/>
      </g>
     </g>
     <g id="text_6">
      <!-- 250 -->
      <g transform="translate(389.403691 372.215) scale(0.12 -0.12)">
       <use xlink:href="#SimHei-32"/>
       <use xlink:href="#SimHei-35" transform="translate(50 0)"/>
       <use xlink:href="#SimHei-30" transform="translate(100 0)"/>
      </g>
     </g>
    </g>
    <g id="xtick_7">
     <g id="line2d_13">
      <path d="M 461.971702 356.965 
L 461.971702 24.325 
" clip-path="url(#pdb2e522e6b)" style="fill: none; stroke: #b0b0b0; stroke-opacity: 0.3; stroke-width: 0.8; stroke-linecap: square"/>
     </g>
     <g id="line2d_14">
      <g>
       <use xlink:href="#m11d7afa44c" x="461.971702" y="356.965" style="stroke: #000000; stroke-width: 0.8"/>
      </g>
     </g>
     <g id="text_7">
      <!-- 300 -->
      <g transform="translate(452.971702 372.215) scale(0.12 -0.12)">
       <defs>
        <path id="SimHei-33" d="M 250 1225 
L 700 1300 
Q 800 975 1025 762 
Q 1250 550 1587 562 
Q 1925 575 2125 837 
Q 2325 1100 2300 1437 
Q 2275 1775 2037 1962 
Q 1800 2150 1275 2225 
L 1275 2550 
Q 1800 2600 2037 2825 
Q 2275 3050 2250 3412 
Q 2225 3775 1925 3937 
Q 1625 4100 1287 3975 
Q 950 3850 750 3275 
L 300 3350 
Q 450 3800 712 4100 
Q 975 4400 1425 4450 
Q 1875 4500 2212 4337 
Q 2550 4175 2687 3837 
Q 2825 3500 2725 3100 
Q 2625 2700 2150 2400 
Q 2500 2250 2687 1950 
Q 2875 1650 2812 1162 
Q 2750 675 2375 375 
Q 2000 75 1525 87 
Q 1050 100 700 387 
Q 350 675 250 1225 
z
" transform="scale(0.015625)"/>
       </defs>
       <use xlink:href="#SimHei-33"/>
       <use xlink:href="#SimHei-30" transform="translate(50 0)"/>
       <use xlink:href="#SimHei-30" transform="translate(100 0)"/>
      </g>
     </g>
    </g>
    <g id="xtick_8">
     <g id="line2d_15">
      <path d="M 525.539713 356.965 
L 525.539713 24.325 
" clip-path="url(#pdb2e522e6b)" style="fill: none; stroke: #b0b0b0; stroke-opacity: 0.3; stroke-width: 0.8; stroke-linecap: square"/>
     </g>
     <g id="line2d_16">
      <g>
       <use xlink:href="#m11d7afa44c" x="525.539713" y="356.965" style="stroke: #000000; stroke-width: 0.8"/>
      </g>
     </g>
     <g id="text_8">
      <!-- 350 -->
      <g transform="translate(516.539713 372.215) scale(0.12 -0.12)">
       <use xlink:href="#SimHei-33"/>
       <use xlink:href="#SimHei-35" transform="translate(50 0)"/>
       <use xlink:href="#SimHei-30" transform="translate(100 0)"/>
      </g>
     </g>
    </g>
    <g id="xtick_9">
     <g id="line2d_17">
      <path d="M 589.107724 356.965 
L 589.107724 24.325 
" clip-path="url(#pdb2e522e6b)" style="fill: none; stroke: #b0b0b0; stroke-opacity: 0.3; stroke-width: 0.8; stroke-linecap: square"/>
     </g>
     <g id="line2d_18">
      <g>
       <use xlink:href="#m11d7afa44c" x="589.107724" y="356.965" style="stroke: #000000; stroke-width: 0.8"/>
      </g>
     </g>
     <g id="text_9">
      <!-- 400 -->
      <g transform="translate(580.107724 372.215) scale(0.12 -0.12)">
       <defs>
        <path id="SimHei-34" d="M 2000 1100 
L 75 1100 
L 75 1525 
L 2100 4450 
L 2475 4450 
L 2475 1525 
L 3075 1525 
L 3075 1100 
L 2475 1100 
L 2475 150 
L 2000 150 
L 2000 1100 
z
M 2000 1525 
L 2000 3500 
L 600 1525 
L 2000 1525 
z
" transform="scale(0.015625)"/>
       </defs>
       <use xlink:href="#SimHei-34"/>
       <use xlink:href="#SimHei-30" transform="translate(50 0)"/>
       <use xlink:href="#SimHei-30" transform="translate(100 0)"/>
      </g>
     </g>
    </g>
    <g id="text_10">
     <!-- Episode -->
     <g transform="translate(306.2 388.715) scale(0.16 -0.16)">
      <defs>
       <path id="SimHei-45" d="M 2900 125 
L 350 125 
L 350 4400 
L 2775 4400 
L 2775 3925 
L 925 3925 
L 925 2600 
L 2625 2600 
L 2625 2125 
L 925 2125 
L 925 600 
L 2900 600 
L 2900 125 
z
" transform="scale(0.015625)"/>
       <path id="SimHei-70" d="M 2825 1525 
Q 2825 800 2475 425 
Q 2125 50 1625 50 
Q 1350 50 1150 162 
Q 950 275 800 500 
L 800 -800 
L 300 -800 
L 300 2925 
L 800 2925 
L 800 2550 
Q 950 2775 1150 2875 
Q 1350 2975 1625 2975 
Q 2125 2975 2475 2612 
Q 2825 2250 2825 1525 
z
M 2275 1525 
Q 2275 2000 2087 2262 
Q 1900 2525 1525 2525 
Q 1225 2525 1012 2262 
Q 800 2000 800 1525 
Q 800 1050 1012 775 
Q 1225 500 1525 500 
Q 1900 500 2087 775 
Q 2275 1050 2275 1525 
z
" transform="scale(0.015625)"/>
       <path id="SimHei-69" d="M 1800 3725 
L 1300 3725 
L 1300 4375 
L 1800 4375 
L 1800 3725 
z
M 1800 125 
L 1300 125 
L 1300 2925 
L 1800 2925 
L 1800 125 
z
" transform="scale(0.015625)"/>
       <path id="SimHei-73" d="M 2750 900 
Q 2750 500 2437 287 
Q 2125 75 1650 75 
Q 1050 75 725 312 
Q 400 550 400 1000 
L 900 1000 
Q 900 700 1112 600 
Q 1325 500 1625 500 
Q 1925 500 2075 612 
Q 2225 725 2225 900 
Q 2225 1025 2100 1150 
Q 1975 1275 1475 1350 
Q 900 1425 687 1637 
Q 475 1850 475 2200 
Q 475 2500 762 2737 
Q 1050 2975 1600 2975 
Q 2100 2975 2387 2750 
Q 2675 2525 2675 2150 
L 2175 2150 
Q 2175 2375 2012 2462 
Q 1850 2550 1600 2550 
Q 1275 2550 1137 2437 
Q 1000 2325 1000 2175 
Q 1000 2000 1125 1900 
Q 1250 1800 1650 1750 
Q 2300 1650 2525 1437 
Q 2750 1225 2750 900 
z
" transform="scale(0.015625)"/>
       <path id="SimHei-6f" d="M 2925 1525 
Q 2925 875 2525 475 
Q 2125 75 1575 75 
Q 1025 75 625 475 
Q 225 875 225 1525 
Q 225 2175 625 2575 
Q 1025 2975 1575 2975 
Q 2125 2975 2525 2575 
Q 2925 2175 2925 1525 
z
M 2375 1525 
Q 2375 2025 2125 2275 
Q 1875 2525 1575 2525 
Q 1275 2525 1025 2275 
Q 775 2025 775 1525 
Q 775 1025 1025 775 
Q 1275 525 1575 525 
Q 1875 525 2125 775 
Q 2375 1025 2375 1525 
z
" transform="scale(0.015625)"/>
       <path id="SimHei-64" d="M 2750 125 
L 2250 125 
L 2250 500 
Q 2100 275 1900 175 
Q 1700 75 1425 75 
Q 925 75 575 437 
Q 225 800 225 1525 
Q 225 2250 575 2625 
Q 925 3000 1425 3000 
Q 1700 3000 1900 2887 
Q 2100 2775 2250 2550 
L 2250 4400 
L 2750 4400 
L 2750 125 
z
M 2250 1525 
Q 2250 2000 2037 2275 
Q 1825 2550 1525 2550 
Q 1150 2550 962 2275 
Q 775 2000 775 1525 
Q 775 1050 962 787 
Q 1150 525 1525 525 
Q 1825 525 2037 787 
Q 2250 1050 2250 1525 
z
" transform="scale(0.015625)"/>
       <path id="SimHei-65" d="M 2850 1075 
Q 2800 625 2450 350 
Q 2100 75 1625 75 
Q 1025 75 637 462 
Q 250 850 250 1525 
Q 250 2200 637 2587 
Q 1025 2975 1625 2975 
Q 2150 2975 2487 2637 
Q 2825 2300 2825 1525 
L 800 1525 
Q 800 975 1037 750 
Q 1275 525 1625 525 
Q 1900 525 2075 662 
Q 2250 800 2300 1075 
L 2850 1075 
z
M 2250 1925 
Q 2200 2275 2025 2412 
Q 1850 2550 1575 2550 
Q 1325 2550 1125 2412 
Q 925 2275 825 1925 
L 2250 1925 
z
" transform="scale(0.015625)"/>
      </defs>
      <use xlink:href="#SimHei-45"/>
      <use xlink:href="#SimHei-70" transform="translate(50 0)"/>
      <use xlink:href="#SimHei-69" transform="translate(100 0)"/>
      <use xlink:href="#SimHei-73" transform="translate(150 0)"/>
      <use xlink:href="#SimHei-6f" transform="translate(200 0)"/>
      <use xlink:href="#SimHei-64" transform="translate(250 0)"/>
      <use xlink:href="#SimHei-65" transform="translate(300 0)"/>
     </g>
    </g>
   </g>
   <g id="matplotlib.axis_2">
    <g id="ytick_1">
     <g id="line2d_19">
      <path d="M 55.2 327.891207 
L 613.2 327.891207 
" clip-path="url(#pdb2e522e6b)" style="fill: none; stroke: #b0b0b0; stroke-opacity: 0.3; stroke-width: 0.8; stroke-linecap: square"/>
     </g>
     <g id="line2d_20">
      <defs>
       <path id="m3dd709ef3f" d="M 0 0 
L -3.5 0 
" style="stroke: #000000; stroke-width: 0.8"/>
      </defs>
      <g>
       <use xlink:href="#m3dd709ef3f" x="55.2" y="327.891207" style="stroke: #000000; stroke-width: 0.8"/>
      </g>
     </g>
     <g id="text_11">
      <!-- 0.25 -->
      <g transform="translate(24.2 332.016207) scale(0.12 -0.12)">
       <defs>
        <path id="SimHei-2e" d="M 1075 125 
L 500 125 
L 500 675 
L 1075 675 
L 1075 125 
z
" transform="scale(0.015625)"/>
       </defs>
       <use xlink:href="#SimHei-30"/>
       <use xlink:href="#SimHei-2e" transform="translate(50 0)"/>
       <use xlink:href="#SimHei-32" transform="translate(100 0)"/>
       <use xlink:href="#SimHei-35" transform="translate(150 0)"/>
      </g>
     </g>
    </g>
    <g id="ytick_2">
     <g id="line2d_21">
      <path d="M 55.2 289.130728 
L 613.2 289.130728 
" clip-path="url(#pdb2e522e6b)" style="fill: none; stroke: #b0b0b0; stroke-opacity: 0.3; stroke-width: 0.8; stroke-linecap: square"/>
     </g>
     <g id="line2d_22">
      <g>
       <use xlink:href="#m3dd709ef3f" x="55.2" y="289.130728" style="stroke: #000000; stroke-width: 0.8"/>
      </g>
     </g>
     <g id="text_12">
      <!-- 0.50 -->
      <g transform="translate(24.2 293.255728) scale(0.12 -0.12)">
       <use xlink:href="#SimHei-30"/>
       <use xlink:href="#SimHei-2e" transform="translate(50 0)"/>
       <use xlink:href="#SimHei-35" transform="translate(100 0)"/>
       <use xlink:href="#SimHei-30" transform="translate(150 0)"/>
      </g>
     </g>
    </g>
    <g id="ytick_3">
     <g id="line2d_23">
      <path d="M 55.2 250.37025 
L 613.2 250.37025 
" clip-path="url(#pdb2e522e6b)" style="fill: none; stroke: #b0b0b0; stroke-opacity: 0.3; stroke-width: 0.8; stroke-linecap: square"/>
     </g>
     <g id="line2d_24">
      <g>
       <use xlink:href="#m3dd709ef3f" x="55.2" y="250.37025" style="stroke: #000000; stroke-width: 0.8"/>
      </g>
     </g>
     <g id="text_13">
      <!-- 0.75 -->
      <g transform="translate(24.2 254.49525) scale(0.12 -0.12)">
       <defs>
        <path id="SimHei-37" d="M 850 150 
Q 1300 2050 2425 3925 
L 275 3925 
L 275 4375 
L 2950 4375 
L 2950 3950 
Q 1775 2050 1400 150 
L 850 150 
z
" transform="scale(0.015625)"/>
       </defs>
       <use xlink:href="#SimHei-30"/>
       <use xlink:href="#SimHei-2e" transform="translate(50 0)"/>
       <use xlink:href="#SimHei-37" transform="translate(100 0)"/>
       <use xlink:href="#SimHei-35" transform="translate(150 0)"/>
      </g>
     </g>
    </g>
    <g id="ytick_4">
     <g id="line2d_25">
      <path d="M 55.2 211.609771 
L 613.2 211.609771 
" clip-path="url(#pdb2e522e6b)" style="fill: none; stroke: #b0b0b0; stroke-opacity: 0.3; stroke-width: 0.8; stroke-linecap: square"/>
     </g>
     <g id="line2d_26">
      <g>
       <use xlink:href="#m3dd709ef3f" x="55.2" y="211.609771" style="stroke: #000000; stroke-width: 0.8"/>
      </g>
     </g>
     <g id="text_14">
      <!-- 1.00 -->
      <g transform="translate(24.2 215.734771) scale(0.12 -0.12)">
       <use xlink:href="#SimHei-31"/>
       <use xlink:href="#SimHei-2e" transform="translate(50 0)"/>
       <use xlink:href="#SimHei-30" transform="translate(100 0)"/>
       <use xlink:href="#SimHei-30" transform="translate(150 0)"/>
      </g>
     </g>
    </g>
    <g id="ytick_5">
     <g id="line2d_27">
      <path d="M 55.2 172.849292 
L 613.2 172.849292 
" clip-path="url(#pdb2e522e6b)" style="fill: none; stroke: #b0b0b0; stroke-opacity: 0.3; stroke-width: 0.8; stroke-linecap: square"/>
     </g>
     <g id="line2d_28">
      <g>
       <use xlink:href="#m3dd709ef3f" x="55.2" y="172.849292" style="stroke: #000000; stroke-width: 0.8"/>
      </g>
     </g>
     <g id="text_15">
      <!-- 1.25 -->
      <g transform="translate(24.2 176.974292) scale(0.12 -0.12)">
       <use xlink:href="#SimHei-31"/>
       <use xlink:href="#SimHei-2e" transform="translate(50 0)"/>
       <use xlink:href="#SimHei-32" transform="translate(100 0)"/>
       <use xlink:href="#SimHei-35" transform="translate(150 0)"/>
      </g>
     </g>
    </g>
    <g id="ytick_6">
     <g id="line2d_29">
      <path d="M 55.2 134.088813 
L 613.2 134.088813 
" clip-path="url(#pdb2e522e6b)" style="fill: none; stroke: #b0b0b0; stroke-opacity: 0.3; stroke-width: 0.8; stroke-linecap: square"/>
     </g>
     <g id="line2d_30">
      <g>
       <use xlink:href="#m3dd709ef3f" x="55.2" y="134.088813" style="stroke: #000000; stroke-width: 0.8"/>
      </g>
     </g>
     <g id="text_16">
      <!-- 1.50 -->
      <g transform="translate(24.2 138.213813) scale(0.12 -0.12)">
       <use xlink:href="#SimHei-31"/>
       <use xlink:href="#SimHei-2e" transform="translate(50 0)"/>
       <use xlink:href="#SimHei-35" transform="translate(100 0)"/>
       <use xlink:href="#SimHei-30" transform="translate(150 0)"/>
      </g>
     </g>
    </g>
    <g id="ytick_7">
     <g id="line2d_31">
      <path d="M 55.2 95.328335 
L 613.2 95.328335 
" clip-path="url(#pdb2e522e6b)" style="fill: none; stroke: #b0b0b0; stroke-opacity: 0.3; stroke-width: 0.8; stroke-linecap: square"/>
     </g>
     <g id="line2d_32">
      <g>
       <use xlink:href="#m3dd709ef3f" x="55.2" y="95.328335" style="stroke: #000000; stroke-width: 0.8"/>
      </g>
     </g>
     <g id="text_17">
      <!-- 1.75 -->
      <g transform="translate(24.2 99.453335) scale(0.12 -0.12)">
       <use xlink:href="#SimHei-31"/>
       <use xlink:href="#SimHei-2e" transform="translate(50 0)"/>
       <use xlink:href="#SimHei-37" transform="translate(100 0)"/>
       <use xlink:href="#SimHei-35" transform="translate(150 0)"/>
      </g>
     </g>
    </g>
    <g id="ytick_8">
     <g id="line2d_33">
      <path d="M 55.2 56.567856 
L 613.2 56.567856 
" clip-path="url(#pdb2e522e6b)" style="fill: none; stroke: #b0b0b0; stroke-opacity: 0.3; stroke-width: 0.8; stroke-linecap: square"/>
     </g>
     <g id="line2d_34">
      <g>
       <use xlink:href="#m3dd709ef3f" x="55.2" y="56.567856" style="stroke: #000000; stroke-width: 0.8"/>
      </g>
     </g>
     <g id="text_18">
      <!-- 2.00 -->
      <g transform="translate(24.2 60.692856) scale(0.12 -0.12)">
       <use xlink:href="#SimHei-32"/>
       <use xlink:href="#SimHei-2e" transform="translate(50 0)"/>
       <use xlink:href="#SimHei-30" transform="translate(100 0)"/>
       <use xlink:href="#SimHei-30" transform="translate(150 0)"/>
      </g>
     </g>
    </g>
    <g id="text_19">
     <!-- Energy -->
     <g transform="translate(18.2 214.645) rotate(-90) scale(0.16 -0.16)">
      <defs>
       <path id="SimHei-6e" d="M 2800 125 
L 2300 125 
L 2300 1925 
Q 2300 2225 2150 2400 
Q 2000 2575 1750 2575 
Q 1425 2575 1137 2237 
Q 850 1900 850 1400 
L 850 125 
L 350 125 
L 350 2925 
L 850 2925 
L 850 2400 
Q 1050 2675 1287 2825 
Q 1525 2975 1900 2975 
Q 2350 2975 2575 2725 
Q 2800 2475 2800 2100 
L 2800 125 
z
" transform="scale(0.015625)"/>
       <path id="SimHei-72" d="M 2500 2425 
Q 2025 2500 1700 2287 
Q 1375 2075 1150 1550 
L 1150 125 
L 650 125 
L 650 2925 
L 1150 2925 
L 1150 2200 
Q 1375 2600 1712 2787 
Q 2050 2975 2500 2975 
L 2500 2425 
z
" transform="scale(0.015625)"/>
       <path id="SimHei-67" d="M 2975 2500 
Q 2800 2550 2637 2562 
Q 2475 2575 2300 2525 
Q 2375 2450 2425 2337 
Q 2475 2225 2475 2000 
Q 2475 1575 2187 1300 
Q 1900 1025 1475 1025 
Q 1375 1025 1212 1062 
Q 1050 1100 950 1150 
Q 875 1100 850 1050 
Q 825 1000 825 925 
Q 825 800 1000 737 
Q 1175 675 1625 675 
Q 2350 675 2612 475 
Q 2875 275 2875 -25 
Q 2875 -425 2487 -612 
Q 2100 -800 1575 -800 
Q 900 -800 575 -625 
Q 250 -450 250 -150 
Q 250 0 375 150 
Q 500 300 700 400 
Q 550 475 462 587 
Q 375 700 375 875 
Q 375 1025 487 1137 
Q 600 1250 750 1325 
Q 625 1450 550 1625 
Q 475 1800 475 2000 
Q 475 2425 762 2700 
Q 1050 2975 1475 2975 
Q 1700 2975 1862 2912 
Q 2025 2850 2150 2725 
Q 2350 2875 2550 2937 
Q 2750 3000 2975 2975 
L 2975 2500 
z
M 1975 2000 
Q 1975 2250 1850 2400 
Q 1725 2550 1475 2550 
Q 1225 2550 1100 2400 
Q 975 2250 975 2000 
Q 975 1750 1100 1600 
Q 1225 1450 1475 1450 
Q 1725 1450 1850 1600 
Q 1975 1750 1975 2000 
z
M 2400 -75 
Q 2400 25 2287 125 
Q 2175 225 1725 225 
Q 1625 225 1450 237 
Q 1275 250 1050 275 
Q 850 200 775 100 
Q 700 0 700 -100 
Q 700 -250 900 -350 
Q 1100 -450 1600 -450 
Q 2025 -450 2212 -337 
Q 2400 -225 2400 -75 
z
" transform="scale(0.015625)"/>
       <path id="SimHei-79" d="M 2900 2925 
L 1750 -100 
Q 1650 -450 1450 -625 
Q 1250 -800 950 -800 
Q 825 -800 712 -787 
Q 600 -775 500 -725 
L 500 -225 
Q 600 -275 700 -300 
Q 800 -325 875 -325 
Q 1075 -325 1150 -262 
Q 1225 -200 1300 25 
L 200 2925 
L 750 2925 
L 1550 725 
L 1575 725 
L 2350 2925 
L 2900 2925 
z
" transform="scale(0.015625)"/>
      </defs>
      <use xlink:href="#SimHei-45"/>
      <use xlink:href="#SimHei-6e" transform="translate(50 0)"/>
      <use xlink:href="#SimHei-65" transform="translate(100 0)"/>
      <use xlink:href="#SimHei-72" transform="translate(150 0)"/>
      <use xlink:href="#SimHei-67" transform="translate(200 0)"/>
      <use xlink:href="#SimHei-79" transform="translate(250 0)"/>
     </g>
    </g>
   </g>
   <g id="line2d_35">
    <path d="M 80.563636 39.445 
L 83.106357 68.386916 
L 84.377717 81.966553 
L 85.649077 91.799744 
L 88.191798 116.187311 
L 90.734518 138.289096 
L 93.277239 157.993299 
L 95.819959 175.920124 
L 98.362679 192.063669 
L 100.9054 206.693555 
L 103.44812 219.729157 
L 105.990841 231.709828 
L 108.533561 242.40887 
L 111.076282 252.116745 
L 113.619002 260.838654 
L 116.161722 268.75672 
L 118.704443 275.853219 
L 121.247163 282.173635 
L 123.789884 288.025515 
L 126.332604 293.292057 
L 128.875325 297.886317 
L 130.146685 300.130722 
L 132.689405 304.103408 
L 136.503486 309.307815 
L 137.774846 310.617341 
L 140.317567 313.695761 
L 144.131647 317.73597 
L 147.945728 321.065285 
L 149.217088 322.146705 
L 150.488448 319.570151 
L 155.573889 323.411265 
L 158.11661 325.213205 
L 161.93069 327.603113 
L 163.202051 328.267772 
L 164.473411 325.842095 
L 169.558852 328.861358 
L 172.101572 330.129977 
L 173.372932 330.674178 
L 174.644293 331.027658 
L 179.729733 333.099126 
L 183.543814 334.330182 
L 184.815174 334.797203 
L 188.629255 335.708178 
L 189.900615 335.892204 
L 193.714696 336.805773 
L 194.986056 336.569734 
L 201.342857 337.816418 
L 211.513739 339.362941 
L 215.32782 339.703104 
L 222.955981 340.274738 
L 228.041422 340.4197 
L 229.312782 340.09653 
L 231.855502 340.358247 
L 240.755024 340.92501 
L 242.026384 340.798631 
L 244.569105 340.895696 
L 245.840465 321.981227 
L 248.383185 323.874682 
L 253.468626 327.118485 
L 256.011347 328.473801 
L 259.825427 330.110325 
L 266.182228 332.772075 
L 271.267669 334.456517 
L 275.08175 335.453793 
L 278.89583 336.260888 
L 283.981271 337.219576 
L 286.523992 337.587421 
L 290.338072 338.168934 
L 295.423513 339.036079 
L 296.694874 336.051495 
L 297.966234 330.946967 
L 304.323035 333.32595 
L 305.594395 328.425785 
L 308.137116 329.789013 
L 311.951196 331.356521 
L 317.036637 333.203374 
L 325.936159 335.499875 
L 327.207519 332.468945 
L 329.750239 333.367183 
L 331.021599 333.519841 
L 333.56432 334.382878 
L 336.10704 334.983745 
L 341.192481 336.223782 
L 343.735202 336.695886 
L 351.363363 337.901479 
L 352.634723 338.045653 
L 353.906083 335.214518 
L 358.991524 336.365973 
L 365.348325 337.418158 
L 378.061928 339.009612 
L 384.418729 339.401131 
L 386.961449 339.735332 
L 392.04689 340.14184 
L 393.31825 340.037415 
L 397.132331 340.2474 
L 398.403691 340.016271 
L 413.660014 340.715938 
L 414.931374 336.514408 
L 422.559535 337.922442 
L 423.830895 338.084252 
L 425.102256 336.178897 
L 432.730417 337.712962 
L 436.544498 338.286531 
L 440.358578 338.83368 
L 441.629938 338.779692 
L 444.172659 339.027738 
L 445.444019 334.709445 
L 449.2581 335.573459 
L 450.52946 335.962353 
L 451.80082 336.152761 
L 454.343541 336.825681 
L 459.428982 337.706704 
L 461.971702 338.080694 
L 467.057143 338.752696 
L 472.142584 339.293873 
L 477.228025 339.756594 
L 479.770745 339.928229 
L 489.941627 340.494974 
L 495.027068 340.721264 
L 496.298428 323.508694 
L 498.841148 325.32332 
L 501.383869 326.996123 
L 506.46931 329.485761 
L 511.554751 331.750471 
L 514.097471 332.676449 
L 516.640191 333.494865 
L 519.182912 334.167034 
L 520.454272 334.207913 
L 521.725632 334.639007 
L 531.896514 337.040988 
L 540.796036 338.622623 
L 562.409159 340.286838 
L 568.76596 340.554353 
L 587.836364 341.212605 
L 587.836364 341.212605 
" clip-path="url(#pdb2e522e6b)" style="fill: none; stroke: #1f77b4; stroke-width: 1.2; stroke-linecap: square"/>
   </g>
   <g id="line2d_36">
    <path d="M 80.563636 68.535706 
L 83.106357 94.802101 
L 84.377717 107.156864 
L 85.649077 111.178763 
L 88.191798 133.714957 
L 90.734518 153.958155 
L 93.277239 172.158116 
L 95.819959 188.724635 
L 98.362679 203.641965 
L 100.9054 216.98412 
L 103.44812 229.087251 
L 105.990841 240.08055 
L 108.533561 249.940749 
L 111.076282 258.931963 
L 114.890362 270.505886 
L 117.433083 277.49221 
L 119.975803 283.71353 
L 122.518524 289.399111 
L 126.332604 296.915589 
L 127.603964 299.195497 
L 132.689405 306.841396 
L 135.232126 310.273687 
L 136.503486 311.803118 
L 137.774846 304.952698 
L 140.317567 308.559074 
L 142.860287 311.801003 
L 149.217088 318.42185 
L 153.031169 321.771434 
L 158.11661 325.416293 
L 160.65933 327.038247 
L 163.202051 328.516818 
L 165.744771 329.683924 
L 167.016131 330.345578 
L 173.372932 332.932414 
L 178.458373 334.582115 
L 179.729733 334.534056 
L 182.272454 335.20532 
L 183.543814 335.467345 
L 184.815174 331.870222 
L 187.357895 332.727133 
L 189.900615 333.54548 
L 192.443336 334.373368 
L 194.986056 335.111886 
L 198.800137 336.075613 
L 205.156938 337.240221 
L 207.699658 337.832343 
L 212.785099 338.578949 
L 215.32782 338.883655 
L 216.59918 338.918947 
L 224.227341 339.726401 
L 228.041422 340.063157 
L 229.312782 340.010133 
L 234.398223 340.294375 
L 235.669583 336.563955 
L 239.483664 337.294707 
L 248.383185 338.614254 
L 250.925906 338.803668 
L 252.197266 338.845349 
L 256.011347 339.288987 
L 259.825427 339.635974 
L 263.639508 339.931919 
L 264.910868 335.88334 
L 268.724949 336.714115 
L 273.81039 337.501255 
L 285.252632 338.980274 
L 286.523992 339.027078 
L 289.066712 339.397735 
L 291.609433 339.587324 
L 292.880793 339.754453 
L 296.694874 339.944783 
L 297.966234 339.609726 
L 299.237594 339.692666 
L 300.508954 329.982134 
L 304.323035 331.710438 
L 308.137116 333.018737 
L 311.951196 334.19074 
L 313.222556 334.591568 
L 317.036637 335.505895 
L 322.122078 336.715768 
L 325.936159 337.425193 
L 327.207519 333.550053 
L 331.021599 334.773098 
L 332.29296 327.10774 
L 336.10704 329.180292 
L 341.192481 331.562448 
L 345.006562 332.978402 
L 346.277922 333.290152 
L 347.549282 333.74609 
L 358.991524 336.562481 
L 365.348325 337.707732 
L 366.619686 334.666923 
L 367.891046 335.022452 
L 369.162406 335.074461 
L 370.433766 334.420611 
L 376.790567 336.04271 
L 378.061928 335.415305 
L 380.604648 336.05636 
L 385.690089 337.076046 
L 392.04689 338.178817 
L 394.58961 338.495217 
L 407.303213 339.826385 
L 412.388653 340.14346 
L 413.660014 340.326894 
L 414.931374 337.41332 
L 417.474094 337.784688 
L 422.559535 338.612603 
L 425.102256 338.887004 
L 427.644976 339.209776 
L 430.187697 339.537393 
L 431.459057 339.705428 
L 432.730417 339.748228 
L 434.001777 339.924661 
L 435.273137 337.47101 
L 441.629938 338.478815 
L 446.715379 339.003125 
L 447.98674 339.070958 
L 451.80082 339.562756 
L 455.614901 340.062084 
L 459.428982 340.188983 
L 461.971702 340.421536 
L 463.243062 340.477987 
L 464.514422 340.224749 
L 468.328503 340.392289 
L 469.599863 340.489094 
L 472.142584 340.539613 
L 483.584826 340.873922 
L 486.127546 340.898683 
L 488.670267 341.070412 
L 492.484347 341.139357 
L 493.755707 341.201273 
L 495.027068 341.143435 
L 496.298428 341.260946 
L 511.554751 341.276963 
L 515.368831 341.384251 
L 516.640191 341.126666 
L 519.182912 341.255132 
L 521.725632 341.143061 
L 522.996992 341.116503 
L 524.268353 341.258896 
L 529.353794 341.281452 
L 530.625154 341.432099 
L 545.881476 341.379267 
L 547.152837 341.274071 
L 550.966917 341.373784 
L 554.780998 341.327367 
L 562.409159 341.348664 
L 564.95188 341.287851 
L 571.308681 341.383203 
L 575.122761 341.3887 
L 582.750923 341.483366 
L 584.022283 341.17237 
L 586.565003 341.188716 
L 586.565003 341.188716 
" clip-path="url(#pdb2e522e6b)" style="fill: none; stroke: #ff7f0e; stroke-width: 1.2; stroke-linecap: square"/>
   </g>
   <g id="line2d_37">
    <path d="M 80.563636 299.812453 
L 81.834997 288.846514 
L 83.106357 289.841284 
L 84.377717 272.150671 
L 85.649077 275.093346 
L 86.920437 270.871333 
L 89.463158 277.501534 
L 90.734518 280.524568 
L 92.005878 269.581933 
L 93.277239 268.002998 
L 94.548599 271.652392 
L 95.819959 236.738954 
L 97.091319 241.764794 
L 98.362679 235.736281 
L 99.63404 238.320036 
L 102.17676 248.2088 
L 104.719481 257.019003 
L 107.262201 265.233919 
L 109.804921 272.718879 
L 112.347642 279.438007 
L 114.890362 285.527594 
L 117.433083 291.004375 
L 118.704443 293.610879 
L 119.975803 292.559585 
L 122.518524 297.366643 
L 125.061244 301.749788 
L 128.875325 307.464897 
L 130.146685 308.962154 
L 132.689405 312.245928 
L 135.232126 315.096481 
L 139.046206 318.937375 
L 140.317567 320.091428 
L 142.860287 322.01045 
L 145.403008 324.012788 
L 147.945728 325.604327 
L 151.759809 327.760328 
L 155.573889 329.528393 
L 156.845249 330.240027 
L 160.65933 331.779994 
L 163.202051 332.598306 
L 164.473411 333.085576 
L 169.558852 334.586894 
L 170.830212 335.004076 
L 175.915653 336.124246 
L 184.815174 337.740481 
L 187.357895 338.310608 
L 194.986056 339.197519 
L 196.257416 339.249709 
L 197.528776 339.443003 
L 200.071497 339.588123 
L 203.885578 339.990166 
L 205.156938 336.257262 
L 211.513739 337.58481 
L 212.785099 331.835065 
L 219.1419 334.159848 
L 230.584142 336.997366 
L 234.398223 337.808763 
L 235.669583 337.877575 
L 240.755024 338.60012 
L 254.739986 339.931189 
L 256.011347 336.913338 
L 259.825427 337.504377 
L 262.368148 337.930388 
L 263.639508 337.77559 
L 269.996309 338.573019 
L 271.267669 338.644047 
L 273.81039 339.012314 
L 281.438551 339.877894 
L 285.252632 340.045416 
L 290.338072 340.445219 
L 294.152153 340.616291 
L 295.423513 340.610725 
L 297.966234 340.725022 
L 299.237594 340.787398 
L 300.508954 337.665174 
L 304.323035 338.217839 
L 323.393438 340.089218 
L 328.478879 340.417686 
L 331.021599 340.503003 
L 332.29296 340.62777 
L 333.56432 340.503169 
L 339.921121 340.693579 
L 342.463841 340.788748 
L 343.735202 340.559867 
L 353.906083 340.95734 
L 355.177444 340.796381 
L 357.720164 340.837247 
L 360.262884 340.872082 
L 361.534245 340.917461 
L 362.805605 335.260865 
L 365.348325 335.912462 
L 370.433766 337.10234 
L 376.790567 338.102185 
L 381.876008 338.766321 
L 389.50417 339.503577 
L 393.31825 339.985773 
L 399.675051 340.527368 
L 402.217772 340.604589 
L 407.303213 340.81386 
L 412.388653 340.990918 
L 414.931374 340.919661 
L 416.202734 341.011535 
L 417.474094 340.796412 
L 421.288175 340.980409 
L 425.102256 341.057426 
L 428.916336 341.256763 
L 430.187697 341.020968 
L 432.730417 341.102642 
L 434.001777 341.082198 
L 436.544498 341.270086 
L 446.715379 341.420582 
L 447.98674 340.822669 
L 449.2581 330.728546 
L 450.52946 331.262626 
L 451.80082 331.470295 
L 455.614901 332.8992 
L 458.157621 333.798568 
L 460.700342 334.63846 
L 470.871224 337.087091 
L 481.042105 338.53798 
L 488.670267 339.283579 
L 489.941627 339.036016 
L 491.212987 339.242012 
L 496.298428 339.649725 
L 501.383869 339.90881 
L 505.197949 340.097418 
L 525.539713 340.90736 
L 528.082433 341.052273 
L 534.439234 341.21161 
L 536.981955 341.292971 
L 544.610116 341.435284 
L 549.695557 341.320517 
L 556.052358 341.453041 
L 557.323718 341.542828 
L 561.137799 341.540624 
L 567.4946 341.667854 
L 572.580041 341.584583 
L 585.293643 341.757979 
L 586.565003 341.683351 
L 586.565003 341.683351 
" clip-path="url(#pdb2e522e6b)" style="fill: none; stroke: #2ca02c; stroke-width: 1.2; stroke-linecap: square"/>
   </g>
   <g id="line2d_38">
    <path d="M 80.563636 299.812453 
L 81.834997 279.713251 
L 84.377717 258.119346 
L 85.649077 257.337589 
L 86.920437 252.848463 
L 88.191798 243.713139 
L 89.463158 245.582563 
L 92.005878 254.544696 
L 93.277239 256.09046 
L 95.819959 264.415773 
L 97.091319 268.264771 
L 98.362679 268.442811 
L 100.9054 275.587766 
L 103.44812 282.134538 
L 105.990841 287.966955 
L 108.533561 293.284606 
L 109.804921 295.809674 
L 114.890362 304.389801 
L 117.433083 308.048523 
L 118.704443 309.834853 
L 122.518524 314.371317 
L 125.061244 317.096582 
L 128.875325 320.595965 
L 135.232126 325.267049 
L 141.588927 329.101812 
L 145.403008 330.961443 
L 147.945728 331.862668 
L 151.759809 333.351409 
L 155.573889 334.455208 
L 156.845249 334.404229 
L 160.65933 335.311677 
L 161.93069 331.812891 
L 164.473411 332.840652 
L 168.287491 333.884371 
L 170.830212 334.775142 
L 175.915653 336.073621 
L 177.187013 330.723825 
L 179.729733 331.739087 
L 181.001094 331.642187 
L 188.629255 334.403886 
L 194.986056 336.13025 
L 202.614217 337.508787 
L 205.156938 338.03162 
L 208.971018 338.541619 
L 214.056459 339.202276 
L 216.59918 339.389481 
L 217.87054 339.524366 
L 219.1419 339.298542 
L 230.584142 340.422623 
L 231.855502 340.484472 
L 233.126863 337.015438 
L 234.398223 337.268056 
L 236.940943 337.613059 
L 243.297744 338.557391 
L 249.654545 339.179925 
L 252.197266 339.220681 
L 256.011347 339.600725 
L 261.096787 339.976331 
L 263.639508 340.083097 
L 271.267669 340.324041 
L 273.81039 340.397511 
L 281.438551 340.755888 
L 283.981271 340.738629 
L 287.795352 340.955456 
L 290.338072 340.959326 
L 291.609433 337.997701 
L 296.694874 338.624799 
L 297.966234 334.852566 
L 299.237594 335.243529 
L 303.051675 335.94887 
L 305.594395 336.469604 
L 308.137116 336.929959 
L 309.408476 330.205575 
L 310.679836 330.79367 
L 313.222556 331.689408 
L 315.765277 332.771458 
L 318.307997 333.617487 
L 319.579357 333.990385 
L 320.850718 317.040094 
L 322.122078 318.221736 
L 323.393438 316.211934 
L 324.664798 317.490041 
L 325.936159 318.545099 
L 328.478879 320.92941 
L 331.021599 322.938494 
L 337.378401 327.193022 
L 339.921121 328.643575 
L 342.463841 329.942347 
L 348.820643 332.427668 
L 352.634723 333.717215 
L 357.720164 335.141037 
L 364.076965 336.671275 
L 372.976487 338.186491 
L 379.333288 338.992976 
L 380.604648 339.068091 
L 381.876008 338.782701 
L 385.690089 339.116471 
L 389.50417 339.639581 
L 392.04689 339.88296 
L 393.31825 332.831895 
L 398.403691 334.472088 
L 403.489132 335.754361 
L 409.845933 337.122634 
L 416.202734 338.007685 
L 420.016815 338.679484 
L 422.559535 339.049709 
L 425.102256 339.309254 
L 427.644976 339.628402 
L 431.459057 339.914872 
L 436.544498 340.239676 
L 439.087218 340.483022 
L 440.358578 340.43485 
L 442.901299 340.682898 
L 447.98674 340.684288 
L 450.52946 340.719993 
L 465.785783 341.18196 
L 472.142584 341.263767 
L 474.685304 341.423136 
L 482.313465 341.259683 
L 484.856186 341.298626 
L 486.127546 336.623862 
L 492.484347 337.809591 
L 495.027068 338.211457 
L 502.655229 339.185582 
L 503.926589 333.528338 
L 507.74067 334.680015 
L 509.01203 334.728947 
L 516.640191 336.629356 
L 519.182912 337.043032 
L 522.996992 337.748379 
L 525.539713 338.102835 
L 528.082433 338.499659 
L 530.625154 338.902215 
L 531.896514 334.421035 
L 533.167874 334.876737 
L 535.710595 335.589663 
L 538.253315 336.320818 
L 542.067396 337.091491 
L 549.695557 338.237491 
L 552.238278 338.495319 
L 556.052358 338.907009 
L 568.76596 339.978949 
L 575.122761 340.280059 
L 584.022283 340.783852 
L 586.565003 340.831951 
L 586.565003 340.831951 
" clip-path="url(#pdb2e522e6b)" style="fill: none; stroke: #9467bd; stroke-width: 1.2; stroke-linecap: square"/>
   </g>
   <g id="patch_3">
    <path d="M 55.2 356.965 
L 55.2 24.325 
" style="fill: none; stroke: #000000; stroke-width: 0.8; stroke-linejoin: miter; stroke-linecap: square"/>
   </g>
   <g id="patch_4">
    <path d="M 613.2 356.965 
L 613.2 24.325 
" style="fill: none; stroke: #000000; stroke-width: 0.8; stroke-linejoin: miter; stroke-linecap: square"/>
   </g>
   <g id="patch_5">
    <path d="M 55.2 356.965 
L 613.2 356.965 
" style="fill: none; stroke: #000000; stroke-width: 0.8; stroke-linejoin: miter; stroke-linecap: square"/>
   </g>
   <g id="patch_6">
    <path d="M 55.2 24.325 
L 613.2 24.325 
" style="fill: none; stroke: #000000; stroke-width: 0.8; stroke-linejoin: miter; stroke-linecap: square"/>
   </g>
   <g id="text_20">
    <!-- Total Energy Consumption -->
    <g transform="translate(238.2 18.325) scale(0.16 -0.16)">
     <defs>
      <path id="SimHei-54" d="M 2850 3925 
L 1850 3925 
L 1850 125 
L 1275 125 
L 1275 3925 
L 275 3925 
L 275 4400 
L 2850 4400 
L 2850 3925 
z
" transform="scale(0.015625)"/>
      <path id="SimHei-74" d="M 2750 200 
Q 2625 150 2462 112 
Q 2300 75 2025 75 
Q 1575 75 1300 325 
Q 1025 575 1025 1025 
L 1025 2525 
L 175 2525 
L 175 2925 
L 1025 2925 
L 1025 3900 
L 1525 3900 
L 1525 2925 
L 2550 2925 
L 2550 2525 
L 1525 2525 
L 1525 1000 
Q 1525 800 1625 662 
Q 1725 525 2000 525 
Q 2275 525 2450 575 
Q 2625 625 2750 700 
L 2750 200 
z
" transform="scale(0.015625)"/>
      <path id="SimHei-61" d="M 2875 125 
L 2275 125 
Q 2225 175 2200 262 
Q 2175 350 2175 475 
Q 2000 275 1750 175 
Q 1500 75 1225 75 
Q 825 75 550 275 
Q 275 475 275 850 
Q 275 1225 525 1450 
Q 775 1675 1300 1750 
Q 1650 1800 1912 1875 
Q 2175 1950 2175 2075 
Q 2175 2225 2062 2375 
Q 1950 2525 1575 2525 
Q 1275 2525 1137 2412 
Q 1000 2300 950 2100 
L 400 2100 
Q 450 2500 762 2737 
Q 1075 2975 1575 2975 
Q 2125 2975 2400 2725 
Q 2675 2475 2675 2025 
L 2675 650 
Q 2675 500 2725 375 
Q 2775 250 2875 125 
z
M 2175 1050 
L 2175 1550 
Q 2025 1500 1887 1462 
Q 1750 1425 1425 1375 
Q 1050 1325 937 1200 
Q 825 1075 825 900 
Q 825 750 937 637 
Q 1050 525 1275 525 
Q 1500 525 1762 650 
Q 2025 775 2175 1050 
z
" transform="scale(0.015625)"/>
      <path id="SimHei-6c" d="M 1825 125 
L 1325 125 
L 1325 4400 
L 1825 4400 
L 1825 125 
z
" transform="scale(0.015625)"/>
      <path id="SimHei-20" transform="scale(0.015625)"/>
      <path id="SimHei-43" d="M 2975 1825 
Q 2950 875 2575 475 
Q 2200 75 1675 75 
Q 1075 75 650 562 
Q 225 1050 225 2125 
Q 225 3300 637 3875 
Q 1050 4450 1700 4450 
Q 2250 4450 2612 4037 
Q 2975 3625 2950 2875 
L 2400 2875 
Q 2400 3425 2225 3700 
Q 2050 3975 1700 3975 
Q 1300 3975 1062 3562 
Q 825 3150 825 2175 
Q 825 1275 1062 912 
Q 1300 550 1675 550 
Q 1950 550 2175 812 
Q 2400 1075 2400 1825 
L 2975 1825 
z
" transform="scale(0.015625)"/>
      <path id="SimHei-75" d="M 2800 125 
L 2300 125 
L 2300 650 
Q 2100 375 1862 225 
Q 1625 75 1250 75 
Q 800 75 575 325 
Q 350 575 350 950 
L 350 2925 
L 850 2925 
L 850 1125 
Q 850 825 1000 650 
Q 1150 475 1400 475 
Q 1725 475 2012 812 
Q 2300 1150 2300 1650 
L 2300 2925 
L 2800 2925 
L 2800 125 
z
" transform="scale(0.015625)"/>
      <path id="SimHei-6d" d="M 3050 125 
L 2550 125 
L 2550 2150 
Q 2550 2300 2500 2400 
Q 2450 2500 2300 2500 
Q 2125 2500 1975 2312 
Q 1825 2125 1825 1825 
L 1825 125 
L 1325 125 
L 1325 2150 
Q 1325 2300 1275 2400 
Q 1225 2500 1075 2500 
Q 900 2500 750 2312 
Q 600 2125 600 1825 
L 600 125 
L 100 125 
L 100 2925 
L 600 2925 
L 600 2550 
Q 725 2750 900 2862 
Q 1075 2975 1275 2975 
Q 1475 2975 1612 2862 
Q 1750 2750 1800 2550 
Q 1925 2750 2087 2862 
Q 2250 2975 2450 2975 
Q 2750 2975 2900 2812 
Q 3050 2650 3050 2350 
L 3050 125 
z
" transform="scale(0.015625)"/>
     </defs>
     <use xlink:href="#SimHei-54"/>
     <use xlink:href="#SimHei-6f" transform="translate(50 0)"/>
     <use xlink:href="#SimHei-74" transform="translate(100 0)"/>
     <use xlink:href="#SimHei-61" transform="translate(150 0)"/>
     <use xlink:href="#SimHei-6c" transform="translate(200 0)"/>
     <use xlink:href="#SimHei-20" transform="translate(250 0)"/>
     <use xlink:href="#SimHei-45" transform="translate(300 0)"/>
     <use xlink:href="#SimHei-6e" transform="translate(350 0)"/>
     <use xlink:href="#SimHei-65" transform="translate(400 0)"/>
     <use xlink:href="#SimHei-72" transform="translate(450 0)"/>
     <use xlink:href="#SimHei-67" transform="translate(500 0)"/>
     <use xlink:href="#SimHei-79" transform="translate(550 0)"/>
     <use xlink:href="#SimHei-20" transform="translate(600 0)"/>
     <use xlink:href="#SimHei-43" transform="translate(650 0)"/>
     <use xlink:href="#SimHei-6f" transform="translate(700 0)"/>
     <use xlink:href="#SimHei-6e" transform="translate(750 0)"/>
     <use xlink:href="#SimHei-73" transform="translate(800 0)"/>
     <use xlink:href="#SimHei-75" transform="translate(850 0)"/>
     <use xlink:href="#SimHei-6d" transform="translate(900 0)"/>
     <use xlink:href="#SimHei-70" transform="translate(950 0)"/>
     <use xlink:href="#SimHei-74" transform="translate(1000 0)"/>
     <use xlink:href="#SimHei-69" transform="translate(1050 0)"/>
     <use xlink:href="#SimHei-6f" transform="translate(1100 0)"/>
     <use xlink:href="#SimHei-6e" transform="translate(1150 0)"/>
    </g>
   </g>
   <g id="legend_1">
    <g id="patch_7">
     <path d="M 488.4 97.525 
L 604.8 97.525 
Q 607.2 97.525 607.2 95.125 
L 607.2 32.725 
Q 607.2 30.325 604.8 30.325 
L 488.4 30.325 
Q 486 30.325 486 32.725 
L 486 95.125 
Q 486 97.525 488.4 97.525 
z
" style="fill: #ffffff; opacity: 0.8; stroke: #cccccc; stroke-linejoin: miter"/>
    </g>
    <g id="line2d_39">
     <path d="M 490.8 39.325 
L 502.8 39.325 
L 514.8 39.325 
" style="fill: none; stroke: #1f77b4; stroke-width: 1.2; stroke-linecap: square"/>
    </g>
    <g id="text_21">
     <!-- GCN-DDQN -->
     <g transform="translate(524.4 43.525) scale(0.12 -0.12)">
      <defs>
       <path id="SimHei-47" d="M 2850 75 
L 2425 75 
L 2350 425 
Q 2250 275 2037 175 
Q 1825 75 1575 75 
Q 1050 75 637 562 
Q 225 1050 225 2125 
Q 225 3300 600 3875 
Q 975 4450 1625 4450 
Q 2200 4450 2525 4025 
Q 2850 3600 2850 2925 
L 2300 2925 
Q 2300 3450 2125 3712 
Q 1950 3975 1625 3975 
Q 1225 3975 1025 3562 
Q 825 3150 825 2175 
Q 825 1250 1075 900 
Q 1325 550 1650 550 
Q 1975 550 2162 787 
Q 2350 1025 2350 1525 
L 2350 1800 
L 1575 1800 
L 1575 2275 
L 2850 2275 
L 2850 75 
z
" transform="scale(0.015625)"/>
       <path id="SimHei-4e" d="M 2850 125 
L 2225 125 
L 850 3225 
L 825 3225 
L 825 125 
L 250 125 
L 250 4400 
L 875 4400 
L 2250 1300 
L 2275 1300 
L 2275 4400 
L 2850 4400 
L 2850 125 
z
" transform="scale(0.015625)"/>
       <path id="SimHei-2d" d="M 2975 2125 
L 125 2125 
L 125 2525 
L 2975 2525 
L 2975 2125 
z
" transform="scale(0.015625)"/>
       <path id="SimHei-44" d="M 2925 2250 
Q 2925 1100 2437 612 
Q 1950 125 1125 125 
L 275 125 
L 275 4400 
L 1125 4400 
Q 2050 4400 2487 3900 
Q 2925 3400 2925 2250 
z
M 2325 2250 
Q 2325 3175 2025 3550 
Q 1725 3925 1125 3925 
L 850 3925 
L 850 600 
L 1125 600 
Q 1725 600 2025 962 
Q 2325 1325 2325 2250 
z
" transform="scale(0.015625)"/>
       <path id="SimHei-51" d="M 2950 2275 
Q 2950 1675 2862 1262 
Q 2775 850 2575 600 
L 2775 225 
L 2375 -200 
L 2150 225 
Q 2050 150 1900 112 
Q 1750 75 1575 75 
Q 925 75 550 587 
Q 175 1100 175 2275 
Q 175 3450 550 3950 
Q 925 4450 1575 4450 
Q 2225 4450 2587 3950 
Q 2950 3450 2950 2275 
z
M 2350 2275 
Q 2350 3325 2125 3650 
Q 1900 3975 1575 3975 
Q 1250 3975 1012 3650 
Q 775 3325 775 2275 
Q 775 1225 1012 887 
Q 1250 550 1575 550 
Q 1700 550 1800 587 
Q 1900 625 1950 675 
L 1550 1450 
L 1900 1875 
L 2250 1200 
Q 2300 1450 2325 1650 
Q 2350 1850 2350 2275 
z
" transform="scale(0.015625)"/>
      </defs>
      <use xlink:href="#SimHei-47"/>
      <use xlink:href="#SimHei-43" transform="translate(50 0)"/>
      <use xlink:href="#SimHei-4e" transform="translate(100 0)"/>
      <use xlink:href="#SimHei-2d" transform="translate(150 0)"/>
      <use xlink:href="#SimHei-44" transform="translate(200 0)"/>
      <use xlink:href="#SimHei-44" transform="translate(250 0)"/>
      <use xlink:href="#SimHei-51" transform="translate(300 0)"/>
      <use xlink:href="#SimHei-4e" transform="translate(350 0)"/>
     </g>
    </g>
    <g id="line2d_40">
     <path d="M 490.8 55.225 
L 502.8 55.225 
L 514.8 55.225 
" style="fill: none; stroke: #ff7f0e; stroke-width: 1.2; stroke-linecap: square"/>
    </g>
    <g id="text_22">
     <!-- GCN-D3QN -->
     <g transform="translate(524.4 59.425) scale(0.12 -0.12)">
      <use xlink:href="#SimHei-47"/>
      <use xlink:href="#SimHei-43" transform="translate(50 0)"/>
      <use xlink:href="#SimHei-4e" transform="translate(100 0)"/>
      <use xlink:href="#SimHei-2d" transform="translate(150 0)"/>
      <use xlink:href="#SimHei-44" transform="translate(200 0)"/>
      <use xlink:href="#SimHei-33" transform="translate(250 0)"/>
      <use xlink:href="#SimHei-51" transform="translate(300 0)"/>
      <use xlink:href="#SimHei-4e" transform="translate(350 0)"/>
     </g>
    </g>
    <g id="line2d_41">
     <path d="M 490.8 71.125 
L 502.8 71.125 
L 514.8 71.125 
" style="fill: none; stroke: #2ca02c; stroke-width: 1.2; stroke-linecap: square"/>
    </g>
    <g id="text_23">
     <!-- GAT-LSTM-DDQN -->
     <g transform="translate(524.4 75.325) scale(0.12 -0.12)">
      <defs>
       <path id="SimHei-41" d="M 3075 125 
L 2475 125 
L 2125 1450 
L 1025 1450 
L 675 125 
L 75 125 
L 1325 4450 
L 1825 4450 
L 3075 125 
z
M 2000 1925 
L 1600 3450 
L 1550 3450 
L 1150 1925 
L 2000 1925 
z
" transform="scale(0.015625)"/>
       <path id="SimHei-4c" d="M 2900 125 
L 300 125 
L 300 4400 
L 875 4400 
L 875 600 
L 2900 600 
L 2900 125 
z
" transform="scale(0.015625)"/>
       <path id="SimHei-53" d="M 2900 1325 
Q 2900 750 2537 412 
Q 2175 75 1550 75 
Q 925 75 575 425 
Q 225 775 225 1300 
L 225 1475 
L 800 1475 
L 800 1325 
Q 800 950 1025 750 
Q 1250 550 1550 550 
Q 1950 550 2137 762 
Q 2325 975 2325 1275 
Q 2325 1525 2100 1737 
Q 1875 1950 1450 2125 
Q 850 2350 587 2625 
Q 325 2900 325 3275 
Q 325 3800 687 4125 
Q 1050 4450 1550 4450 
Q 2200 4450 2487 4062 
Q 2775 3675 2775 3225 
L 2200 3225 
Q 2225 3500 2050 3725 
Q 1875 3950 1550 3950 
Q 1250 3950 1075 3787 
Q 900 3625 900 3350 
Q 900 3125 1037 2962 
Q 1175 2800 1750 2575 
Q 2300 2350 2600 2037 
Q 2900 1725 2900 1325 
z
" transform="scale(0.015625)"/>
       <path id="SimHei-4d" d="M 2925 125 
L 2425 125 
L 2425 3175 
L 2375 3175 
L 1775 125 
L 1375 125 
L 775 3175 
L 725 3175 
L 725 125 
L 225 125 
L 225 4400 
L 1000 4400 
L 1550 1575 
L 1600 1575 
L 2150 4400 
L 2925 4400 
L 2925 125 
z
" transform="scale(0.015625)"/>
      </defs>
      <use xlink:href="#SimHei-47"/>
      <use xlink:href="#SimHei-41" transform="translate(50 0)"/>
      <use xlink:href="#SimHei-54" transform="translate(100 0)"/>
      <use xlink:href="#SimHei-2d" transform="translate(150 0)"/>
      <use xlink:href="#SimHei-4c" transform="translate(200 0)"/>
      <use xlink:href="#SimHei-53" transform="translate(250 0)"/>
      <use xlink:href="#SimHei-54" transform="translate(300 0)"/>
      <use xlink:href="#SimHei-4d" transform="translate(350 0)"/>
      <use xlink:href="#SimHei-2d" transform="translate(400 0)"/>
      <use xlink:href="#SimHei-44" transform="translate(450 0)"/>
      <use xlink:href="#SimHei-44" transform="translate(500 0)"/>
      <use xlink:href="#SimHei-51" transform="translate(550 0)"/>
      <use xlink:href="#SimHei-4e" transform="translate(600 0)"/>
     </g>
    </g>
    <g id="line2d_42">
     <path d="M 490.8 87.025 
L 502.8 87.025 
L 514.8 87.025 
" style="fill: none; stroke: #9467bd; stroke-width: 1.2; stroke-linecap: square"/>
    </g>
    <g id="text_24">
     <!-- GLDVTO -->
     <g transform="translate(524.4 91.225) scale(0.12 -0.12)">
      <defs>
       <path id="SimHei-56" d="M 3050 4400 
L 1800 75 
L 1300 75 
L 50 4400 
L 650 4400 
L 1525 1125 
L 1575 1125 
L 2450 4400 
L 3050 4400 
z
" transform="scale(0.015625)"/>
       <path id="SimHei-4f" d="M 2950 2275 
Q 2950 1100 2587 587 
Q 2225 75 1575 75 
Q 925 75 550 587 
Q 175 1100 175 2275 
Q 175 3450 550 3950 
Q 925 4450 1575 4450 
Q 2225 4450 2587 3950 
Q 2950 3450 2950 2275 
z
M 2350 2275 
Q 2350 3325 2125 3650 
Q 1900 3975 1575 3975 
Q 1250 3975 1012 3650 
Q 775 3325 775 2275 
Q 775 1225 1012 887 
Q 1250 550 1575 550 
Q 1900 550 2125 887 
Q 2350 1225 2350 2275 
z
" transform="scale(0.015625)"/>
      </defs>
      <use xlink:href="#SimHei-47"/>
      <use xlink:href="#SimHei-4c" transform="translate(50 0)"/>
      <use xlink:href="#SimHei-44" transform="translate(100 0)"/>
      <use xlink:href="#SimHei-56" transform="translate(150 0)"/>
      <use xlink:href="#SimHei-54" transform="translate(200 0)"/>
      <use xlink:href="#SimHei-4f" transform="translate(250 0)"/>
     </g>
    </g>
   </g>
  </g>
 </g>
 <defs>
  <clipPath id="pdb2e522e6b">
   <rect x="55.2" y="24.325" width="558" height="332.64"/>
  </clipPath>
 </defs>
</svg>
