<?xml version="1.0" encoding="utf-8" standalone="no"?>
<!DOCTYPE svg PUBLIC "-//W3C//DTD SVG 1.1//EN"
  "http://www.w3.org/Graphics/SVG/1.1/DTD/svg11.dtd">
<svg xmlns:xlink="http://www.w3.org/1999/xlink" width="695.6125pt" height="391.6261pt" viewBox="0 0 695.6125 391.6261" xmlns="http://www.w3.org/2000/svg" version="1.1">
 <metadata>
  <rdf:RDF xmlns:dc="http://purl.org/dc/elements/1.1/" xmlns:cc="http://creativecommons.org/ns#" xmlns:rdf="http://www.w3.org/1999/02/22-rdf-syntax-ns#">
   <cc:Work>
    <dc:type rdf:resource="http://purl.org/dc/dcmitype/StillImage"/>
    <dc:date>2026-07-11T21:37:28.659941</dc:date>
    <dc:format>image/svg+xml</dc:format>
    <dc:creator>
     <cc:Agent>
      <dc:title>Matplotlib v3.10.7, https://matplotlib.org/</dc:title>
     </cc:Agent>
    </dc:creator>
   </cc:Work>
  </rdf:RDF>
 </metadata>
 <defs>
  <style type="text/css">*{stroke-linejoin: round; stroke-linecap: butt}</style>
 </defs>
 <g id="figure_1">
  <g id="patch_1">
   <path d="M 0 391.6261 
L 695.6125 391.6261 
L 695.6125 0 
L 0 0 
z
" style="fill: #ffffff"/>
  </g>
  <g id="axes_1">
   <g id="patch_2">
    <path d="M 62.0125 349.8636 
L 688.4125 349.8636 
L 688.4125 34.5036 
L 62.0125 34.5036 
z
" style="fill: #ffffff"/>
   </g>
   <g id="matplotlib.axis_1">
    <g id="xtick_1">
     <g id="line2d_1">
      <path d="M 90.485227 349.8636 
L 90.485227 34.5036 
" clip-path="url(#p35a6e2a5ee)" style="fill: none; stroke-dasharray: 2.22,0.96; stroke-dashoffset: 0; stroke: #b0b0b0; stroke-opacity: 0.25; stroke-width: 0.6"/>
     </g>
     <g id="line2d_2">
      <defs>
       <path id="m24d313e564" d="M 0 0 
L 0 3.5 
" style="stroke: #000000; stroke-width: 0.8"/>
      </defs>
      <g>
       <use xlink:href="#m24d313e564" x="90.485227" y="349.8636" style="stroke: #000000; stroke-width: 0.8"/>
      </g>
     </g>
     <g id="text_1">
      <!-- 0 -->
      <g transform="translate(87.485227 365.1136) scale(0.12 -0.12)">
       <defs>
        <path id="SimHei-30" d="M 225 2537 
Q 250 3200 412 3587 
Q 575 3975 875 4225 
Q 1175 4475 1612 4475 
Q 2050 4475 2375 4112 
Q 2700 3750 2800 3200 
Q 2900 2650 2862 1937 
Q 2825 1225 2612 775 
Q 2400 325 1975 150 
Q 1550 -25 1125 187 
Q 700 400 525 750 
Q 350 1100 275 1487 
Q 200 1875 225 2537 
z
M 750 2687 
Q 675 2000 800 1462 
Q 925 925 1212 700 
Q 1500 475 1800 612 
Q 2100 750 2237 1162 
Q 2375 1575 2375 2062 
Q 2375 2550 2337 2950 
Q 2300 3350 2112 3675 
Q 1925 4000 1612 4012 
Q 1300 4025 1062 3700 
Q 825 3375 750 2687 
z
" transform="scale(0.015625)"/>
       </defs>
       <use xlink:href="#SimHei-30"/>
      </g>
     </g>
    </g>
    <g id="xtick_2">
     <g id="line2d_3">
      <path d="M 161.845446 349.8636 
L 161.845446 34.5036 
" clip-path="url(#p35a6e2a5ee)" style="fill: none; stroke-dasharray: 2.22,0.96; stroke-dashoffset: 0; stroke: #b0b0b0; stroke-opacity: 0.25; stroke-width: 0.6"/>
     </g>
     <g id="line2d_4">
      <g>
       <use xlink:href="#m24d313e564" x="161.845446" y="349.8636" style="stroke: #000000; stroke-width: 0.8"/>
      </g>
     </g>
     <g id="text_2">
      <!-- 50 -->
      <g transform="translate(155.845446 365.1136) scale(0.12 -0.12)">
       <defs>
        <path id="SimHei-35" d="M 550 1325 
Q 725 650 1150 575 
Q 1575 500 1837 662 
Q 2100 825 2212 1087 
Q 2325 1350 2312 1675 
Q 2300 2000 2137 2225 
Q 1975 2450 1725 2525 
Q 1475 2600 1162 2525 
Q 850 2450 650 2175 
L 225 2225 
Q 275 2375 700 4375 
L 2675 4375 
L 2675 3925 
L 1075 3925 
Q 950 3250 825 2850 
Q 1200 3025 1525 3012 
Q 1850 3000 2150 2862 
Q 2450 2725 2587 2487 
Q 2725 2250 2787 2012 
Q 2850 1775 2837 1500 
Q 2825 1225 2725 937 
Q 2625 650 2425 462 
Q 2225 275 1937 162 
Q 1650 50 1275 75 
Q 900 100 562 350 
Q 225 600 100 1200 
L 550 1325 
z
" transform="scale(0.015625)"/>
       </defs>
       <use xlink:href="#SimHei-35"/>
       <use xlink:href="#SimHei-30" transform="translate(50 0)"/>
      </g>
     </g>
    </g>
    <g id="xtick_3">
     <g id="line2d_5">
      <path d="M 233.205665 349.8636 
L 233.205665 34.5036 
" clip-path="url(#p35a6e2a5ee)" style="fill: none; stroke-dasharray: 2.22,0.96; stroke-dashoffset: 0; stroke: #b0b0b0; stroke-opacity: 0.25; stroke-width: 0.6"/>
     </g>
     <g id="line2d_6">
      <g>
       <use xlink:href="#m24d313e564" x="233.205665" y="349.8636" style="stroke: #000000; stroke-width: 0.8"/>
      </g>
     </g>
     <g id="text_3">
      <!-- 100 -->
      <g transform="translate(224.205665 365.1136) scale(0.12 -0.12)">
       <defs>
        <path id="SimHei-31" d="M 1400 3600 
Q 1075 3275 575 2975 
L 575 3450 
Q 1200 3875 1600 4450 
L 1900 4450 
L 1900 150 
L 1400 150 
L 1400 3600 
z
" transform="scale(0.015625)"/>
       </defs>
       <use xlink:href="#SimHei-31"/>
       <use xlink:href="#SimHei-30" transform="translate(50 0)"/>
       <use xlink:href="#SimHei-30" transform="translate(100 0)"/>
      </g>
     </g>
    </g>
    <g id="xtick_4">
     <g id="line2d_7">
      <path d="M 304.565883 349.8636 
L 304.565883 34.5036 
" clip-path="url(#p35a6e2a5ee)" style="fill: none; stroke-dasharray: 2.22,0.96; stroke-dashoffset: 0; stroke: #b0b0b0; stroke-opacity: 0.25; stroke-width: 0.6"/>
     </g>
     <g id="line2d_8">
      <g>
       <use xlink:href="#m24d313e564" x="304.565883" y="349.8636" style="stroke: #000000; stroke-width: 0.8"/>
      </g>
     </g>
     <g id="text_4">
      <!-- 150 -->
      <g transform="translate(295.565883 365.1136) scale(0.12 -0.12)">
       <use xlink:href="#SimHei-31"/>
       <use xlink:href="#SimHei-35" transform="translate(50 0)"/>
       <use xlink:href="#SimHei-30" transform="translate(100 0)"/>
      </g>
     </g>
    </g>
    <g id="xtick_5">
     <g id="line2d_9">
      <path d="M 375.926102 349.8636 
L 375.926102 34.5036 
" clip-path="url(#p35a6e2a5ee)" style="fill: none; stroke-dasharray: 2.22,0.96; stroke-dashoffset: 0; stroke: #b0b0b0; stroke-opacity: 0.25; stroke-width: 0.6"/>
     </g>
     <g id="line2d_10">
      <g>
       <use xlink:href="#m24d313e564" x="375.926102" y="349.8636" style="stroke: #000000; stroke-width: 0.8"/>
      </g>
     </g>
     <g id="text_5">
      <!-- 200 -->
      <g transform="translate(366.926102 365.1136) scale(0.12 -0.12)">
       <defs>
        <path id="SimHei-32" d="M 300 250 
Q 325 625 650 925 
Q 975 1225 1475 1862 
Q 1975 2500 2125 2850 
Q 2275 3200 2237 3450 
Q 2200 3700 2000 3862 
Q 1800 4025 1537 4000 
Q 1275 3975 1037 3800 
Q 800 3625 675 3275 
L 200 3350 
Q 400 3925 712 4187 
Q 1025 4450 1450 4475 
Q 1700 4500 1900 4462 
Q 2100 4425 2312 4287 
Q 2525 4150 2662 3875 
Q 2800 3600 2762 3212 
Q 2725 2825 2375 2287 
Q 2025 1750 1025 600 
L 2825 600 
L 2825 150 
L 300 150 
L 300 250 
z
" transform="scale(0.015625)"/>
       </defs>
       <use xlink:href="#SimHei-32"/>
       <use xlink:href="#SimHei-30" transform="translate(50 0)"/>
       <use xlink:href="#SimHei-30" transform="translate(100 0)"/>
      </g>
     </g>
    </g>
    <g id="xtick_6">
     <g id="line2d_11">
      <path d="M 447.286321 349.8636 
L 447.286321 34.5036 
" clip-path="url(#p35a6e2a5ee)" style="fill: none; stroke-dasharray: 2.22,0.96; stroke-dashoffset: 0; stroke: #b0b0b0; stroke-opacity: 0.25; stroke-width: 0.6"/>
     </g>
     <g id="line2d_12">
      <g>
       <use xlink:href="#m24d313e564" x="447.286321" y="349.8636" style="stroke: #000000; stroke-width: 0.8"/>
      </g>
     </g>
     <g id="text_6">
      <!-- 250 -->
      <g transform="translate(438.286321 365.1136) scale(0.12 -0.12)">
       <use xlink:href="#SimHei-32"/>
       <use xlink:href="#SimHei-35" transform="translate(50 0)"/>
       <use xlink:href="#SimHei-30" transform="translate(100 0)"/>
      </g>
     </g>
    </g>
    <g id="xtick_7">
     <g id="line2d_13">
      <path d="M 518.64654 349.8636 
L 518.64654 34.5036 
" clip-path="url(#p35a6e2a5ee)" style="fill: none; stroke-dasharray: 2.22,0.96; stroke-dashoffset: 0; stroke: #b0b0b0; stroke-opacity: 0.25; stroke-width: 0.6"/>
     </g>
     <g id="line2d_14">
      <g>
       <use xlink:href="#m24d313e564" x="518.64654" y="349.8636" style="stroke: #000000; stroke-width: 0.8"/>
      </g>
     </g>
     <g id="text_7">
      <!-- 300 -->
      <g transform="translate(509.64654 365.1136) scale(0.12 -0.12)">
       <defs>
        <path id="SimHei-33" d="M 250 1225 
L 700 1300 
Q 800 975 1025 762 
Q 1250 550 1587 562 
Q 1925 575 2125 837 
Q 2325 1100 2300 1437 
Q 2275 1775 2037 1962 
Q 1800 2150 1275 2225 
L 1275 2550 
Q 1800 2600 2037 2825 
Q 2275 3050 2250 3412 
Q 2225 3775 1925 3937 
Q 1625 4100 1287 3975 
Q 950 3850 750 3275 
L 300 3350 
Q 450 3800 712 4100 
Q 975 4400 1425 4450 
Q 1875 4500 2212 4337 
Q 2550 4175 2687 3837 
Q 2825 3500 2725 3100 
Q 2625 2700 2150 2400 
Q 2500 2250 2687 1950 
Q 2875 1650 2812 1162 
Q 2750 675 2375 375 
Q 2000 75 1525 87 
Q 1050 100 700 387 
Q 350 675 250 1225 
z
" transform="scale(0.015625)"/>
       </defs>
       <use xlink:href="#SimHei-33"/>
       <use xlink:href="#SimHei-30" transform="translate(50 0)"/>
       <use xlink:href="#SimHei-30" transform="translate(100 0)"/>
      </g>
     </g>
    </g>
    <g id="xtick_8">
     <g id="line2d_15">
      <path d="M 590.006758 349.8636 
L 590.006758 34.5036 
" clip-path="url(#p35a6e2a5ee)" style="fill: none; stroke-dasharray: 2.22,0.96; stroke-dashoffset: 0; stroke: #b0b0b0; stroke-opacity: 0.25; stroke-width: 0.6"/>
     </g>
     <g id="line2d_16">
      <g>
       <use xlink:href="#m24d313e564" x="590.006758" y="349.8636" style="stroke: #000000; stroke-width: 0.8"/>
      </g>
     </g>
     <g id="text_8">
      <!-- 350 -->
      <g transform="translate(581.006758 365.1136) scale(0.12 -0.12)">
       <use xlink:href="#SimHei-33"/>
       <use xlink:href="#SimHei-35" transform="translate(50 0)"/>
       <use xlink:href="#SimHei-30" transform="translate(100 0)"/>
      </g>
     </g>
    </g>
    <g id="xtick_9">
     <g id="line2d_17">
      <path d="M 661.366977 349.8636 
L 661.366977 34.5036 
" clip-path="url(#p35a6e2a5ee)" style="fill: none; stroke-dasharray: 2.22,0.96; stroke-dashoffset: 0; stroke: #b0b0b0; stroke-opacity: 0.25; stroke-width: 0.6"/>
     </g>
     <g id="line2d_18">
      <g>
       <use xlink:href="#m24d313e564" x="661.366977" y="349.8636" style="stroke: #000000; stroke-width: 0.8"/>
      </g>
     </g>
     <g id="text_9">
      <!-- 400 -->
      <g transform="translate(652.366977 365.1136) scale(0.12 -0.12)">
       <defs>
        <path id="SimHei-34" d="M 2000 1100 
L 75 1100 
L 75 1525 
L 2100 4450 
L 2475 4450 
L 2475 1525 
L 3075 1525 
L 3075 1100 
L 2475 1100 
L 2475 150 
L 2000 150 
L 2000 1100 
z
M 2000 1525 
L 2000 3500 
L 600 1525 
L 2000 1525 
z
" transform="scale(0.015625)"/>
       </defs>
       <use xlink:href="#SimHei-34"/>
       <use xlink:href="#SimHei-30" transform="translate(50 0)"/>
       <use xlink:href="#SimHei-30" transform="translate(100 0)"/>
      </g>
     </g>
    </g>
    <g id="text_10">
     <!-- Episode -->
     <g transform="translate(345.4625 382.3011) scale(0.17 -0.17)">
      <defs>
       <path id="SimHei-45" d="M 2900 125 
L 350 125 
L 350 4400 
L 2775 4400 
L 2775 3925 
L 925 3925 
L 925 2600 
L 2625 2600 
L 2625 2125 
L 925 2125 
L 925 600 
L 2900 600 
L 2900 125 
z
" transform="scale(0.015625)"/>
       <path id="SimHei-70" d="M 2825 1525 
Q 2825 800 2475 425 
Q 2125 50 1625 50 
Q 1350 50 1150 162 
Q 950 275 800 500 
L 800 -800 
L 300 -800 
L 300 2925 
L 800 2925 
L 800 2550 
Q 950 2775 1150 2875 
Q 1350 2975 1625 2975 
Q 2125 2975 2475 2612 
Q 2825 2250 2825 1525 
z
M 2275 1525 
Q 2275 2000 2087 2262 
Q 1900 2525 1525 2525 
Q 1225 2525 1012 2262 
Q 800 2000 800 1525 
Q 800 1050 1012 775 
Q 1225 500 1525 500 
Q 1900 500 2087 775 
Q 2275 1050 2275 1525 
z
" transform="scale(0.015625)"/>
       <path id="SimHei-69" d="M 1800 3725 
L 1300 3725 
L 1300 4375 
L 1800 4375 
L 1800 3725 
z
M 1800 125 
L 1300 125 
L 1300 2925 
L 1800 2925 
L 1800 125 
z
" transform="scale(0.015625)"/>
       <path id="SimHei-73" d="M 2750 900 
Q 2750 500 2437 287 
Q 2125 75 1650 75 
Q 1050 75 725 312 
Q 400 550 400 1000 
L 900 1000 
Q 900 700 1112 600 
Q 1325 500 1625 500 
Q 1925 500 2075 612 
Q 2225 725 2225 900 
Q 2225 1025 2100 1150 
Q 1975 1275 1475 1350 
Q 900 1425 687 1637 
Q 475 1850 475 2200 
Q 475 2500 762 2737 
Q 1050 2975 1600 2975 
Q 2100 2975 2387 2750 
Q 2675 2525 2675 2150 
L 2175 2150 
Q 2175 2375 2012 2462 
Q 1850 2550 1600 2550 
Q 1275 2550 1137 2437 
Q 1000 2325 1000 2175 
Q 1000 2000 1125 1900 
Q 1250 1800 1650 1750 
Q 2300 1650 2525 1437 
Q 2750 1225 2750 900 
z
" transform="scale(0.015625)"/>
       <path id="SimHei-6f" d="M 2925 1525 
Q 2925 875 2525 475 
Q 2125 75 1575 75 
Q 1025 75 625 475 
Q 225 875 225 1525 
Q 225 2175 625 2575 
Q 1025 2975 1575 2975 
Q 2125 2975 2525 2575 
Q 2925 2175 2925 1525 
z
M 2375 1525 
Q 2375 2025 2125 2275 
Q 1875 2525 1575 2525 
Q 1275 2525 1025 2275 
Q 775 2025 775 1525 
Q 775 1025 1025 775 
Q 1275 525 1575 525 
Q 1875 525 2125 775 
Q 2375 1025 2375 1525 
z
" transform="scale(0.015625)"/>
       <path id="SimHei-64" d="M 2750 125 
L 2250 125 
L 2250 500 
Q 2100 275 1900 175 
Q 1700 75 1425 75 
Q 925 75 575 437 
Q 225 800 225 1525 
Q 225 2250 575 2625 
Q 925 3000 1425 3000 
Q 1700 3000 1900 2887 
Q 2100 2775 2250 2550 
L 2250 4400 
L 2750 4400 
L 2750 125 
z
M 2250 1525 
Q 2250 2000 2037 2275 
Q 1825 2550 1525 2550 
Q 1150 2550 962 2275 
Q 775 2000 775 1525 
Q 775 1050 962 787 
Q 1150 525 1525 525 
Q 1825 525 2037 787 
Q 2250 1050 2250 1525 
z
" transform="scale(0.015625)"/>
       <path id="SimHei-65" d="M 2850 1075 
Q 2800 625 2450 350 
Q 2100 75 1625 75 
Q 1025 75 637 462 
Q 250 850 250 1525 
Q 250 2200 637 2587 
Q 1025 2975 1625 2975 
Q 2150 2975 2487 2637 
Q 2825 2300 2825 1525 
L 800 1525 
Q 800 975 1037 750 
Q 1275 525 1625 525 
Q 1900 525 2075 662 
Q 2250 800 2300 1075 
L 2850 1075 
z
M 2250 1925 
Q 2200 2275 2025 2412 
Q 1850 2550 1575 2550 
Q 1325 2550 1125 2412 
Q 925 2275 825 1925 
L 2250 1925 
z
" transform="scale(0.015625)"/>
      </defs>
      <use xlink:href="#SimHei-45"/>
      <use xlink:href="#SimHei-70" transform="translate(50 0)"/>
      <use xlink:href="#SimHei-69" transform="translate(100 0)"/>
      <use xlink:href="#SimHei-73" transform="translate(150 0)"/>
      <use xlink:href="#SimHei-6f" transform="translate(200 0)"/>
      <use xlink:href="#SimHei-64" transform="translate(250 0)"/>
      <use xlink:href="#SimHei-65" transform="translate(300 0)"/>
     </g>
    </g>
   </g>
   <g id="matplotlib.axis_2">
    <g id="ytick_1">
     <g id="line2d_19">
      <path d="M 62.0125 330.983995 
L 688.4125 330.983995 
" clip-path="url(#p35a6e2a5ee)" style="fill: none; stroke-dasharray: 2.22,0.96; stroke-dashoffset: 0; stroke: #b0b0b0; stroke-opacity: 0.25; stroke-width: 0.6"/>
     </g>
     <g id="line2d_20">
      <defs>
       <path id="m5eaf91691c" d="M 0 0 
L -3.5 0 
" style="stroke: #000000; stroke-width: 0.8"/>
      </defs>
      <g>
       <use xlink:href="#m5eaf91691c" x="62.0125" y="330.983995" style="stroke: #000000; stroke-width: 0.8"/>
      </g>
     </g>
     <g id="text_11">
      <!-- 0.050 -->
      <g transform="translate(25.0125 335.108995) scale(0.12 -0.12)">
       <defs>
        <path id="SimHei-2e" d="M 1075 125 
L 500 125 
L 500 675 
L 1075 675 
L 1075 125 
z
" transform="scale(0.015625)"/>
       </defs>
       <use xlink:href="#SimHei-30"/>
       <use xlink:href="#SimHei-2e" transform="translate(50 0)"/>
       <use xlink:href="#SimHei-30" transform="translate(100 0)"/>
       <use xlink:href="#SimHei-35" transform="translate(150 0)"/>
       <use xlink:href="#SimHei-30" transform="translate(200 0)"/>
      </g>
     </g>
    </g>
    <g id="ytick_2">
     <g id="line2d_21">
      <path d="M 62.0125 293.105296 
L 688.4125 293.105296 
" clip-path="url(#p35a6e2a5ee)" style="fill: none; stroke-dasharray: 2.22,0.96; stroke-dashoffset: 0; stroke: #b0b0b0; stroke-opacity: 0.25; stroke-width: 0.6"/>
     </g>
     <g id="line2d_22">
      <g>
       <use xlink:href="#m5eaf91691c" x="62.0125" y="293.105296" style="stroke: #000000; stroke-width: 0.8"/>
      </g>
     </g>
     <g id="text_12">
      <!-- 0.075 -->
      <g transform="translate(25.0125 297.230296) scale(0.12 -0.12)">
       <defs>
        <path id="SimHei-37" d="M 850 150 
Q 1300 2050 2425 3925 
L 275 3925 
L 275 4375 
L 2950 4375 
L 2950 3950 
Q 1775 2050 1400 150 
L 850 150 
z
" transform="scale(0.015625)"/>
       </defs>
       <use xlink:href="#SimHei-30"/>
       <use xlink:href="#SimHei-2e" transform="translate(50 0)"/>
       <use xlink:href="#SimHei-30" transform="translate(100 0)"/>
       <use xlink:href="#SimHei-37" transform="translate(150 0)"/>
       <use xlink:href="#SimHei-35" transform="translate(200 0)"/>
      </g>
     </g>
    </g>
    <g id="ytick_3">
     <g id="line2d_23">
      <path d="M 62.0125 255.226597 
L 688.4125 255.226597 
" clip-path="url(#p35a6e2a5ee)" style="fill: none; stroke-dasharray: 2.22,0.96; stroke-dashoffset: 0; stroke: #b0b0b0; stroke-opacity: 0.25; stroke-width: 0.6"/>
     </g>
     <g id="line2d_24">
      <g>
       <use xlink:href="#m5eaf91691c" x="62.0125" y="255.226597" style="stroke: #000000; stroke-width: 0.8"/>
      </g>
     </g>
     <g id="text_13">
      <!-- 0.100 -->
      <g transform="translate(25.0125 259.351597) scale(0.12 -0.12)">
       <use xlink:href="#SimHei-30"/>
       <use xlink:href="#SimHei-2e" transform="translate(50 0)"/>
       <use xlink:href="#SimHei-31" transform="translate(100 0)"/>
       <use xlink:href="#SimHei-30" transform="translate(150 0)"/>
       <use xlink:href="#SimHei-30" transform="translate(200 0)"/>
      </g>
     </g>
    </g>
    <g id="ytick_4">
     <g id="line2d_25">
      <path d="M 62.0125 217.347898 
L 688.4125 217.347898 
" clip-path="url(#p35a6e2a5ee)" style="fill: none; stroke-dasharray: 2.22,0.96; stroke-dashoffset: 0; stroke: #b0b0b0; stroke-opacity: 0.25; stroke-width: 0.6"/>
     </g>
     <g id="line2d_26">
      <g>
       <use xlink:href="#m5eaf91691c" x="62.0125" y="217.347898" style="stroke: #000000; stroke-width: 0.8"/>
      </g>
     </g>
     <g id="text_14">
      <!-- 0.125 -->
      <g transform="translate(25.0125 221.472898) scale(0.12 -0.12)">
       <use xlink:href="#SimHei-30"/>
       <use xlink:href="#SimHei-2e" transform="translate(50 0)"/>
       <use xlink:href="#SimHei-31" transform="translate(100 0)"/>
       <use xlink:href="#SimHei-32" transform="translate(150 0)"/>
       <use xlink:href="#SimHei-35" transform="translate(200 0)"/>
      </g>
     </g>
    </g>
    <g id="ytick_5">
     <g id="line2d_27">
      <path d="M 62.0125 179.469199 
L 688.4125 179.469199 
" clip-path="url(#p35a6e2a5ee)" style="fill: none; stroke-dasharray: 2.22,0.96; stroke-dashoffset: 0; stroke: #b0b0b0; stroke-opacity: 0.25; stroke-width: 0.6"/>
     </g>
     <g id="line2d_28">
      <g>
       <use xlink:href="#m5eaf91691c" x="62.0125" y="179.469199" style="stroke: #000000; stroke-width: 0.8"/>
      </g>
     </g>
     <g id="text_15">
      <!-- 0.150 -->
      <g transform="translate(25.0125 183.594199) scale(0.12 -0.12)">
       <use xlink:href="#SimHei-30"/>
       <use xlink:href="#SimHei-2e" transform="translate(50 0)"/>
       <use xlink:href="#SimHei-31" transform="translate(100 0)"/>
       <use xlink:href="#SimHei-35" transform="translate(150 0)"/>
       <use xlink:href="#SimHei-30" transform="translate(200 0)"/>
      </g>
     </g>
    </g>
    <g id="ytick_6">
     <g id="line2d_29">
      <path d="M 62.0125 141.5905 
L 688.4125 141.5905 
" clip-path="url(#p35a6e2a5ee)" style="fill: none; stroke-dasharray: 2.22,0.96; stroke-dashoffset: 0; stroke: #b0b0b0; stroke-opacity: 0.25; stroke-width: 0.6"/>
     </g>
     <g id="line2d_30">
      <g>
       <use xlink:href="#m5eaf91691c" x="62.0125" y="141.5905" style="stroke: #000000; stroke-width: 0.8"/>
      </g>
     </g>
     <g id="text_16">
      <!-- 0.175 -->
      <g transform="translate(25.0125 145.7155) scale(0.12 -0.12)">
       <use xlink:href="#SimHei-30"/>
       <use xlink:href="#SimHei-2e" transform="translate(50 0)"/>
       <use xlink:href="#SimHei-31" transform="translate(100 0)"/>
       <use xlink:href="#SimHei-37" transform="translate(150 0)"/>
       <use xlink:href="#SimHei-35" transform="translate(200 0)"/>
      </g>
     </g>
    </g>
    <g id="ytick_7">
     <g id="line2d_31">
      <path d="M 62.0125 103.711801 
L 688.4125 103.711801 
" clip-path="url(#p35a6e2a5ee)" style="fill: none; stroke-dasharray: 2.22,0.96; stroke-dashoffset: 0; stroke: #b0b0b0; stroke-opacity: 0.25; stroke-width: 0.6"/>
     </g>
     <g id="line2d_32">
      <g>
       <use xlink:href="#m5eaf91691c" x="62.0125" y="103.711801" style="stroke: #000000; stroke-width: 0.8"/>
      </g>
     </g>
     <g id="text_17">
      <!-- 0.200 -->
      <g transform="translate(25.0125 107.836801) scale(0.12 -0.12)">
       <use xlink:href="#SimHei-30"/>
       <use xlink:href="#SimHei-2e" transform="translate(50 0)"/>
       <use xlink:href="#SimHei-32" transform="translate(100 0)"/>
       <use xlink:href="#SimHei-30" transform="translate(150 0)"/>
       <use xlink:href="#SimHei-30" transform="translate(200 0)"/>
      </g>
     </g>
    </g>
    <g id="ytick_8">
     <g id="line2d_33">
      <path d="M 62.0125 65.833102 
L 688.4125 65.833102 
" clip-path="url(#p35a6e2a5ee)" style="fill: none; stroke-dasharray: 2.22,0.96; stroke-dashoffset: 0; stroke: #b0b0b0; stroke-opacity: 0.25; stroke-width: 0.6"/>
     </g>
     <g id="line2d_34">
      <g>
       <use xlink:href="#m5eaf91691c" x="62.0125" y="65.833102" style="stroke: #000000; stroke-width: 0.8"/>
      </g>
     </g>
     <g id="text_18">
      <!-- 0.225 -->
      <g transform="translate(25.0125 69.958102) scale(0.12 -0.12)">
       <use xlink:href="#SimHei-30"/>
       <use xlink:href="#SimHei-2e" transform="translate(50 0)"/>
       <use xlink:href="#SimHei-32" transform="translate(100 0)"/>
       <use xlink:href="#SimHei-32" transform="translate(150 0)"/>
       <use xlink:href="#SimHei-35" transform="translate(200 0)"/>
      </g>
     </g>
    </g>
    <g id="text_19">
     <!-- Total Task Latency -->
     <g transform="translate(18.8875 268.6836) rotate(-90) scale(0.17 -0.17)">
      <defs>
       <path id="SimHei-54" d="M 2850 3925 
L 1850 3925 
L 1850 125 
L 1275 125 
L 1275 3925 
L 275 3925 
L 275 4400 
L 2850 4400 
L 2850 3925 
z
" transform="scale(0.015625)"/>
       <path id="SimHei-74" d="M 2750 200 
Q 2625 150 2462 112 
Q 2300 75 2025 75 
Q 1575 75 1300 325 
Q 1025 575 1025 1025 
L 1025 2525 
L 175 2525 
L 175 2925 
L 1025 2925 
L 1025 3900 
L 1525 3900 
L 1525 2925 
L 2550 2925 
L 2550 2525 
L 1525 2525 
L 1525 1000 
Q 1525 800 1625 662 
Q 1725 525 2000 525 
Q 2275 525 2450 575 
Q 2625 625 2750 700 
L 2750 200 
z
" transform="scale(0.015625)"/>
       <path id="SimHei-61" d="M 2875 125 
L 2275 125 
Q 2225 175 2200 262 
Q 2175 350 2175 475 
Q 2000 275 1750 175 
Q 1500 75 1225 75 
Q 825 75 550 275 
Q 275 475 275 850 
Q 275 1225 525 1450 
Q 775 1675 1300 1750 
Q 1650 1800 1912 1875 
Q 2175 1950 2175 2075 
Q 2175 2225 2062 2375 
Q 1950 2525 1575 2525 
Q 1275 2525 1137 2412 
Q 1000 2300 950 2100 
L 400 2100 
Q 450 2500 762 2737 
Q 1075 2975 1575 2975 
Q 2125 2975 2400 2725 
Q 2675 2475 2675 2025 
L 2675 650 
Q 2675 500 2725 375 
Q 2775 250 2875 125 
z
M 2175 1050 
L 2175 1550 
Q 2025 1500 1887 1462 
Q 1750 1425 1425 1375 
Q 1050 1325 937 1200 
Q 825 1075 825 900 
Q 825 750 937 637 
Q 1050 525 1275 525 
Q 1500 525 1762 650 
Q 2025 775 2175 1050 
z
" transform="scale(0.015625)"/>
       <path id="SimHei-6c" d="M 1825 125 
L 1325 125 
L 1325 4400 
L 1825 4400 
L 1825 125 
z
" transform="scale(0.015625)"/>
       <path id="SimHei-20" transform="scale(0.015625)"/>
       <path id="SimHei-6b" d="M 2925 125 
L 2350 125 
L 1450 1650 
L 875 1100 
L 875 125 
L 375 125 
L 375 4400 
L 875 4400 
L 875 1675 
L 2125 2925 
L 2750 2925 
L 1775 1975 
L 2925 125 
z
" transform="scale(0.015625)"/>
       <path id="SimHei-4c" d="M 2900 125 
L 300 125 
L 300 4400 
L 875 4400 
L 875 600 
L 2900 600 
L 2900 125 
z
" transform="scale(0.015625)"/>
       <path id="SimHei-6e" d="M 2800 125 
L 2300 125 
L 2300 1925 
Q 2300 2225 2150 2400 
Q 2000 2575 1750 2575 
Q 1425 2575 1137 2237 
Q 850 1900 850 1400 
L 850 125 
L 350 125 
L 350 2925 
L 850 2925 
L 850 2400 
Q 1050 2675 1287 2825 
Q 1525 2975 1900 2975 
Q 2350 2975 2575 2725 
Q 2800 2475 2800 2100 
L 2800 125 
z
" transform="scale(0.015625)"/>
       <path id="SimHei-63" d="M 2850 1250 
Q 2850 725 2487 400 
Q 2125 75 1575 75 
Q 1025 75 625 462 
Q 225 850 225 1525 
Q 225 2200 625 2587 
Q 1025 2975 1575 2975 
Q 2125 2975 2450 2687 
Q 2775 2400 2775 2000 
L 2225 2000 
Q 2200 2300 2012 2412 
Q 1825 2525 1575 2525 
Q 1275 2525 1025 2287 
Q 775 2050 775 1525 
Q 775 1000 1025 762 
Q 1275 525 1575 525 
Q 1900 525 2100 700 
Q 2300 875 2300 1250 
L 2850 1250 
z
" transform="scale(0.015625)"/>
       <path id="SimHei-79" d="M 2900 2925 
L 1750 -100 
Q 1650 -450 1450 -625 
Q 1250 -800 950 -800 
Q 825 -800 712 -787 
Q 600 -775 500 -725 
L 500 -225 
Q 600 -275 700 -300 
Q 800 -325 875 -325 
Q 1075 -325 1150 -262 
Q 1225 -200 1300 25 
L 200 2925 
L 750 2925 
L 1550 725 
L 1575 725 
L 2350 2925 
L 2900 2925 
z
" transform="scale(0.015625)"/>
      </defs>
      <use xlink:href="#SimHei-54"/>
      <use xlink:href="#SimHei-6f" transform="translate(50 0)"/>
      <use xlink:href="#SimHei-74" transform="translate(100 0)"/>
      <use xlink:href="#SimHei-61" transform="translate(150 0)"/>
      <use xlink:href="#SimHei-6c" transform="translate(200 0)"/>
      <use xlink:href="#SimHei-20" transform="translate(250 0)"/>
      <use xlink:href="#SimHei-54" transform="translate(300 0)"/>
      <use xlink:href="#SimHei-61" transform="translate(350 0)"/>
      <use xlink:href="#SimHei-73" transform="translate(400 0)"/>
      <use xlink:href="#SimHei-6b" transform="translate(450 0)"/>
      <use xlink:href="#SimHei-20" transform="translate(500 0)"/>
      <use xlink:href="#SimHei-4c" transform="translate(550 0)"/>
      <use xlink:href="#SimHei-61" transform="translate(600 0)"/>
      <use xlink:href="#SimHei-74" transform="translate(650 0)"/>
      <use xlink:href="#SimHei-65" transform="translate(700 0)"/>
      <use xlink:href="#SimHei-6e" transform="translate(750 0)"/>
      <use xlink:href="#SimHei-63" transform="translate(800 0)"/>
      <use xlink:href="#SimHei-79" transform="translate(850 0)"/>
     </g>
    </g>
   </g>
   <g id="line2d_35">
    <path d="M 90.485227 48.838145 
L 91.912432 65.239287 
L 93.339636 92.767494 
L 94.76684 116.577217 
L 96.194045 138.065179 
L 99.048454 174.694489 
L 100.475658 190.724274 
L 103.330067 216.254071 
L 104.757271 228.01158 
L 107.61168 245.79449 
L 111.893293 268.793059 
L 113.320497 275.741287 
L 114.747702 279.998017 
L 116.174906 285.671347 
L 117.60211 290.192083 
L 119.029315 293.654041 
L 123.310928 302.665891 
L 124.738132 305.29821 
L 127.592541 312.049157 
L 129.019745 313.867506 
L 130.44695 315.880067 
L 131.874154 316.270852 
L 133.301359 318.757735 
L 134.728563 320.465183 
L 136.155767 321.343628 
L 137.582972 322.056185 
L 139.010176 321.76547 
L 140.43738 323.52836 
L 141.864585 324.822389 
L 143.291789 325.453636 
L 144.718994 326.445215 
L 146.146198 326.978054 
L 147.573402 326.530075 
L 149.000607 326.539858 
L 150.427811 327.183244 
L 151.855015 328.227681 
L 153.28222 326.27065 
L 154.709424 325.718287 
L 156.136629 326.28665 
L 161.845446 329.480404 
L 164.699855 328.405544 
L 166.127059 328.349971 
L 167.554263 328.901226 
L 168.981468 327.363809 
L 170.408672 327.335522 
L 171.835877 328.699452 
L 173.263081 328.472265 
L 174.690285 327.282323 
L 176.11749 327.766744 
L 177.544694 327.169429 
L 178.971898 329.015736 
L 180.399103 329.662734 
L 181.826307 329.689931 
L 184.680716 331.333178 
L 186.10792 330.047847 
L 187.535125 331.380123 
L 188.962329 331.555133 
L 190.389533 331.583537 
L 191.816738 332.513234 
L 193.243942 332.890197 
L 194.671147 332.585259 
L 196.098351 332.076477 
L 197.525555 329.814956 
L 198.95276 331.158365 
L 200.379964 331.448272 
L 201.807168 331.923663 
L 203.234373 331.412848 
L 204.661577 331.554177 
L 206.088782 332.104433 
L 207.515986 331.561809 
L 210.370395 332.701401 
L 211.797599 331.350448 
L 213.224803 331.374738 
L 214.652008 329.708327 
L 216.079212 327.724743 
L 217.506417 326.789541 
L 218.933621 328.396416 
L 220.360825 329.579082 
L 221.78803 331.187787 
L 223.215234 331.528091 
L 224.642438 331.50313 
L 226.069643 330.38878 
L 227.496847 330.225574 
L 228.924052 330.460743 
L 230.351256 330.047822 
L 231.77846 330.137787 
L 233.205665 327.819401 
L 234.632869 328.570832 
L 236.060073 328.326368 
L 238.914482 330.002008 
L 240.341687 329.899053 
L 241.768891 330.327964 
L 243.196095 329.902598 
L 244.6233 329.871263 
L 246.050504 328.980161 
L 247.477708 328.855772 
L 248.904913 330.050822 
L 250.332117 329.804848 
L 251.759322 330.437556 
L 253.186526 330.52309 
L 254.61373 328.944235 
L 256.040935 328.544479 
L 257.468139 329.713279 
L 258.895343 328.808127 
L 260.322548 330.233532 
L 261.749752 329.925851 
L 263.176957 329.433761 
L 264.604161 329.4673 
L 266.031365 328.786261 
L 267.45857 328.875009 
L 268.885774 328.441172 
L 270.312978 327.305578 
L 271.740183 328.579128 
L 273.167387 329.3752 
L 274.594592 328.655237 
L 276.021796 326.60479 
L 277.449 326.528819 
L 278.876205 327.082292 
L 280.303409 325.742348 
L 281.730613 326.432822 
L 283.157818 325.651186 
L 284.585022 325.959449 
L 286.012227 326.64563 
L 287.439431 325.47459 
L 288.866635 325.175458 
L 290.29384 326.201453 
L 291.721044 326.649037 
L 293.148248 326.821773 
L 294.575453 327.601309 
L 297.429862 327.360193 
L 298.857066 325.6247 
L 300.28427 326.495936 
L 301.711475 327.807308 
L 303.138679 327.622577 
L 304.565883 327.580473 
L 305.993088 328.292564 
L 307.420292 328.497575 
L 308.847497 328.253091 
L 311.701905 329.952034 
L 314.556314 330.547389 
L 315.983518 331.51272 
L 317.410723 330.79403 
L 318.837927 331.063775 
L 320.265132 331.146595 
L 321.692336 331.040316 
L 323.11954 331.738469 
L 324.546745 331.469953 
L 327.401153 330.071488 
L 330.255562 330.93009 
L 331.682767 330.397864 
L 333.109971 330.911901 
L 334.537175 331.291248 
L 335.96438 331.344664 
L 337.391584 331.191262 
L 338.818788 330.002435 
L 340.245993 329.639052 
L 343.100402 329.500062 
L 344.527606 329.31292 
L 345.95481 330.782603 
L 347.382015 330.404102 
L 348.809219 330.309279 
L 350.236423 330.729485 
L 351.663628 330.44258 
L 354.518037 330.555628 
L 355.945241 331.799774 
L 357.372445 332.377761 
L 358.79965 332.240012 
L 360.226854 332.604869 
L 361.654058 332.372725 
L 363.081263 332.633255 
L 364.508467 331.863305 
L 365.935672 332.581184 
L 367.362876 332.852485 
L 368.79008 333.831682 
L 370.217285 333.877074 
L 374.498898 334.595255 
L 375.926102 335.18652 
L 377.353307 335.529055 
L 378.780511 335.198554 
L 380.207715 335.086765 
L 381.63492 335.30833 
L 383.062124 334.032238 
L 384.489328 333.69109 
L 385.916533 332.288037 
L 387.343737 333.369191 
L 388.770942 333.324811 
L 390.198146 332.035387 
L 391.62535 332.975434 
L 393.052555 332.226613 
L 394.479759 330.972103 
L 395.906963 331.441749 
L 398.761372 332.874349 
L 400.188577 331.880943 
L 401.615781 331.961403 
L 403.042985 332.165001 
L 404.47019 331.841368 
L 405.897394 331.064832 
L 408.751803 330.556905 
L 410.179007 330.20166 
L 411.606212 330.53502 
L 413.033416 331.151317 
L 414.46062 331.396738 
L 415.887825 330.792569 
L 417.315029 330.712243 
L 418.742233 331.17183 
L 420.169438 330.905654 
L 421.596642 331.323574 
L 423.023847 331.011512 
L 424.451051 328.631358 
L 425.878255 327.937116 
L 427.30546 328.567752 
L 428.732664 330.15434 
L 430.159868 329.22682 
L 431.587073 329.932348 
L 433.014277 329.441206 
L 434.441482 328.786629 
L 435.868686 329.283539 
L 437.29589 329.027976 
L 438.723095 329.481508 
L 440.150299 328.927661 
L 443.004708 329.373899 
L 444.431912 329.646693 
L 445.859117 330.793771 
L 447.286321 330.202426 
L 448.713525 329.417816 
L 450.14073 330.486378 
L 451.567934 329.32285 
L 452.995138 329.212522 
L 454.422343 328.788216 
L 457.276752 329.0304 
L 458.703956 328.608312 
L 460.13116 327.994147 
L 461.558365 328.289155 
L 462.985569 327.285656 
L 464.412773 326.75106 
L 465.839978 327.721038 
L 467.267182 327.423494 
L 468.694387 326.855961 
L 470.121591 327.405831 
L 471.548795 328.819372 
L 472.976 328.582756 
L 474.403204 328.654135 
L 475.830408 329.232055 
L 477.257613 327.395729 
L 478.684817 328.443029 
L 480.112022 329.328816 
L 481.539226 330.926095 
L 482.96643 331.419356 
L 484.393635 330.468556 
L 485.820839 328.906307 
L 487.248043 329.413703 
L 488.675248 328.110286 
L 490.102452 327.043109 
L 491.529657 326.154945 
L 492.956861 326.415208 
L 494.384065 327.261612 
L 495.81127 326.406741 
L 498.665678 327.623643 
L 500.092883 328.180783 
L 501.520087 327.276754 
L 502.947292 327.349039 
L 504.374496 327.580257 
L 505.8017 327.679522 
L 507.228905 329.435775 
L 508.656109 329.344226 
L 510.083313 328.867289 
L 511.510518 328.968327 
L 512.937722 329.730799 
L 514.364927 329.851828 
L 515.792131 330.937911 
L 517.219335 330.898988 
L 518.64654 331.895836 
L 520.073744 332.353275 
L 521.500948 331.912318 
L 522.928153 331.639483 
L 524.355357 330.641831 
L 525.782562 330.188741 
L 527.209766 329.191991 
L 528.63697 329.124576 
L 530.064175 329.354502 
L 531.491379 329.009447 
L 532.918583 328.945548 
L 534.345788 329.455719 
L 535.772992 329.686301 
L 537.200197 328.907981 
L 538.627401 329.297518 
L 540.054605 328.609348 
L 541.48181 329.773377 
L 542.909014 330.197362 
L 544.336218 329.497293 
L 545.763423 330.487284 
L 547.190627 331.240527 
L 548.617832 329.643233 
L 550.045036 328.905322 
L 551.47224 329.835521 
L 552.899445 330.008451 
L 554.326649 329.587183 
L 555.753853 329.822589 
L 557.181058 329.768804 
L 558.608262 329.415961 
L 560.035467 330.808198 
L 561.462671 330.258766 
L 562.889875 329.03997 
L 564.31708 329.298276 
L 565.744284 328.144212 
L 567.171488 328.53317 
L 568.598693 328.278373 
L 570.025897 329.576025 
L 571.453102 330.34673 
L 572.880306 330.905268 
L 574.30751 331.854227 
L 575.734715 333.138546 
L 577.161919 331.68555 
L 578.589123 332.604007 
L 580.016328 332.867877 
L 581.443532 333.655342 
L 582.870737 333.26626 
L 584.297941 332.555475 
L 590.006758 331.549296 
L 591.433963 331.920784 
L 592.861167 330.447806 
L 594.288371 330.913599 
L 595.715576 329.299811 
L 597.14278 329.331605 
L 598.569985 328.393562 
L 599.997189 326.396084 
L 601.424393 327.925031 
L 604.278802 329.268955 
L 605.706006 329.205532 
L 608.560415 329.971996 
L 609.98762 329.257087 
L 611.414824 329.092912 
L 612.842028 329.340037 
L 614.269233 328.456838 
L 615.696437 328.769309 
L 617.123641 328.257842 
L 618.550846 326.754858 
L 619.97805 326.876675 
L 621.405255 327.428061 
L 622.832459 327.726874 
L 624.259663 328.502812 
L 625.686868 327.938787 
L 627.114072 328.029209 
L 628.541276 326.715217 
L 629.968481 327.053082 
L 631.395685 325.763005 
L 632.82289 325.760258 
L 634.250094 326.905152 
L 635.677298 328.240941 
L 637.104503 329.323235 
L 638.531707 330.127975 
L 639.958911 330.390861 
L 641.386116 330.978772 
L 642.81332 329.276476 
L 644.240525 329.034876 
L 645.667729 328.652206 
L 647.094933 328.916275 
L 648.522138 329.533893 
L 649.949342 327.450137 
L 651.376546 327.471547 
L 652.803751 327.342793 
L 654.230955 327.571619 
L 657.085364 327.701377 
L 658.512568 328.248096 
L 659.939773 329.0117 
L 659.939773 329.0117 
" clip-path="url(#p35a6e2a5ee)" style="fill: none; stroke: #1f77b4; stroke-width: 1.2; stroke-linecap: square"/>
   </g>
   <g id="line2d_36">
    <path d="M 90.485227 75.986918 
L 91.912432 88.038565 
L 93.339636 111.971945 
L 96.194045 153.403658 
L 99.048454 186.410742 
L 100.475658 200.550911 
L 103.330067 225.883933 
L 106.184475 245.944108 
L 109.038884 262.395204 
L 110.466089 270.081208 
L 113.320497 281.4088 
L 114.747702 284.777761 
L 116.174906 290.376771 
L 117.60211 293.957447 
L 119.029315 298.241185 
L 120.456519 300.881226 
L 121.883724 304.98935 
L 123.310928 306.324526 
L 127.592541 315.727213 
L 129.019745 317.027415 
L 130.44695 318.009077 
L 131.874154 316.66291 
L 134.728563 318.671216 
L 136.155767 320.09339 
L 137.582972 321.117374 
L 139.010176 321.588025 
L 140.43738 323.229999 
L 143.291789 325.355425 
L 144.718994 327.099708 
L 146.146198 327.814562 
L 147.573402 329.839221 
L 149.000607 330.547918 
L 150.427811 330.417556 
L 151.855015 330.476296 
L 153.28222 327.958101 
L 154.709424 326.359537 
L 156.136629 326.90284 
L 157.563833 327.994595 
L 158.991037 329.239695 
L 160.418242 329.542071 
L 161.845446 330.206395 
L 163.27265 329.197899 
L 164.699855 328.714421 
L 166.127059 328.962732 
L 167.554263 330.466372 
L 168.981468 329.785556 
L 170.408672 330.276924 
L 171.835877 329.40861 
L 173.263081 328.87428 
L 174.690285 328.846389 
L 176.11749 329.387333 
L 177.544694 329.076976 
L 178.971898 329.878738 
L 180.399103 330.467628 
L 181.826307 330.873159 
L 183.253512 330.374605 
L 184.680716 330.588377 
L 187.535125 330.853306 
L 188.962329 331.407969 
L 190.389533 331.595782 
L 191.816738 331.531784 
L 193.243942 331.694548 
L 194.671147 332.504594 
L 196.098351 330.857075 
L 197.525555 329.667689 
L 198.95276 330.764442 
L 200.379964 329.819066 
L 201.807168 330.341366 
L 204.661577 329.726109 
L 206.088782 328.865186 
L 207.515986 328.267296 
L 208.94319 328.796036 
L 210.370395 327.451583 
L 213.224803 328.263215 
L 214.652008 326.567604 
L 216.079212 325.698945 
L 217.506417 325.244338 
L 218.933621 327.102918 
L 220.360825 328.33339 
L 221.78803 328.940865 
L 223.215234 330.182485 
L 224.642438 329.585255 
L 226.069643 329.993722 
L 227.496847 330.918309 
L 228.924052 329.862595 
L 230.351256 330.790387 
L 231.77846 329.747386 
L 233.205665 328.05401 
L 234.632869 328.611501 
L 236.060073 327.630585 
L 237.487278 328.535231 
L 240.341687 328.260468 
L 241.768891 327.489075 
L 243.196095 328.126529 
L 244.6233 327.63656 
L 246.050504 327.390617 
L 247.477708 328.844102 
L 248.904913 328.518602 
L 250.332117 329.146114 
L 253.186526 330.085544 
L 257.468139 332.107505 
L 258.895343 331.407404 
L 260.322548 332.497672 
L 263.176957 332.736266 
L 264.604161 332.611095 
L 266.031365 332.775493 
L 267.45857 331.827998 
L 268.885774 332.330357 
L 270.312978 331.720678 
L 271.740183 331.473824 
L 273.167387 331.556599 
L 274.594592 331.395797 
L 276.021796 329.54343 
L 277.449 329.356993 
L 280.303409 331.530227 
L 281.730613 331.392791 
L 283.157818 331.529716 
L 284.585022 332.431528 
L 286.012227 333.003837 
L 287.439431 333.112468 
L 288.866635 333.601104 
L 290.29384 333.05966 
L 291.721044 333.862374 
L 293.148248 333.197722 
L 294.575453 333.356098 
L 296.002657 333.942698 
L 297.429862 334.103423 
L 300.28427 332.275374 
L 301.711475 332.628686 
L 303.138679 333.171037 
L 304.565883 333.528254 
L 305.993088 333.326203 
L 307.420292 334.353438 
L 308.847497 333.40243 
L 310.274701 333.961842 
L 311.701905 332.273655 
L 313.12911 333.081935 
L 314.556314 332.182843 
L 315.983518 332.213247 
L 317.410723 332.034674 
L 318.837927 331.432211 
L 320.265132 331.745694 
L 321.692336 332.438089 
L 324.546745 332.185213 
L 325.973949 331.261343 
L 327.401153 330.726981 
L 328.828358 329.58294 
L 331.682767 328.67892 
L 333.109971 327.919688 
L 334.537175 328.413865 
L 335.96438 329.356117 
L 337.391584 329.585862 
L 340.245993 327.730225 
L 341.673197 326.126529 
L 343.100402 325.692334 
L 344.527606 326.998204 
L 345.95481 328.122188 
L 347.382015 327.64033 
L 350.236423 328.510272 
L 351.663628 327.892868 
L 353.090832 328.875738 
L 355.945241 327.963706 
L 357.372445 328.730539 
L 358.79965 328.529635 
L 361.654058 325.798677 
L 363.081263 325.656778 
L 364.508467 324.914459 
L 365.935672 326.256711 
L 367.362876 327.920271 
L 368.79008 327.481687 
L 370.217285 328.469905 
L 371.644489 328.253341 
L 373.071693 328.55676 
L 374.498898 329.862483 
L 375.926102 330.530124 
L 377.353307 330.966064 
L 378.780511 330.720232 
L 381.63492 330.977866 
L 383.062124 326.339377 
L 384.489328 327.633275 
L 385.916533 328.758686 
L 387.343737 328.690388 
L 388.770942 329.027398 
L 390.198146 328.175727 
L 391.62535 328.211501 
L 393.052555 329.268733 
L 394.479759 328.402593 
L 395.906963 328.713886 
L 397.334168 327.545668 
L 398.761372 327.441261 
L 400.188577 326.561113 
L 401.615781 327.256452 
L 404.47019 328.395727 
L 405.897394 327.530168 
L 410.179007 327.321539 
L 411.606212 328.531851 
L 413.033416 329.35685 
L 414.46062 328.782121 
L 415.887825 329.592958 
L 417.315029 329.090427 
L 418.742233 328.824385 
L 420.169438 329.525949 
L 421.596642 329.850495 
L 423.023847 328.568864 
L 424.451051 328.297807 
L 425.878255 329.596305 
L 427.30546 329.282896 
L 428.732664 330.17349 
L 430.159868 328.72676 
L 431.587073 328.338915 
L 433.014277 329.401862 
L 434.441482 329.839755 
L 435.868686 330.072433 
L 437.29589 328.099899 
L 438.723095 328.761486 
L 440.150299 329.62282 
L 441.577503 329.09617 
L 443.004708 327.672394 
L 444.431912 326.699315 
L 445.859117 328.134111 
L 447.286321 328.150292 
L 448.713525 327.21704 
L 450.14073 328.280907 
L 451.567934 327.254883 
L 454.422343 329.359408 
L 455.849547 330.092602 
L 457.276752 328.983721 
L 460.13116 327.780404 
L 462.985569 328.617133 
L 465.839978 326.984003 
L 467.267182 327.195007 
L 468.694387 328.867403 
L 470.121591 328.496799 
L 472.976 330.412909 
L 474.403204 329.606687 
L 475.830408 330.8452 
L 477.257613 330.622921 
L 478.684817 329.958365 
L 480.112022 328.460627 
L 481.539226 330.163495 
L 482.96643 329.937773 
L 484.393635 330.132 
L 485.820839 328.548971 
L 487.248043 328.737625 
L 488.675248 327.281983 
L 490.102452 326.806629 
L 491.529657 325.439174 
L 492.956861 325.800133 
L 494.384065 327.125715 
L 495.81127 326.060273 
L 497.238474 326.790664 
L 498.665678 327.761263 
L 500.092883 327.108515 
L 501.520087 327.355889 
L 502.947292 327.88342 
L 504.374496 327.917322 
L 505.8017 328.675524 
L 507.228905 327.931235 
L 508.656109 327.863381 
L 510.083313 327.617447 
L 511.510518 327.079994 
L 512.937722 328.031399 
L 514.364927 328.006921 
L 515.792131 328.770245 
L 518.64654 330.761142 
L 520.073744 330.54236 
L 521.500948 329.906051 
L 522.928153 329.466705 
L 524.355357 329.722351 
L 525.782562 328.579464 
L 527.209766 327.636803 
L 528.63697 328.514351 
L 530.064175 329.915828 
L 532.918583 329.393608 
L 534.345788 328.790119 
L 535.772992 328.658038 
L 537.200197 327.200346 
L 538.627401 327.499774 
L 540.054605 325.537148 
L 541.48181 327.275188 
L 542.909014 326.937521 
L 544.336218 327.375635 
L 545.763423 328.61696 
L 547.190627 329.045898 
L 548.617832 326.646169 
L 550.045036 326.631059 
L 551.47224 327.125544 
L 552.899445 326.591409 
L 554.326649 324.395833 
L 555.753853 324.5993 
L 557.181058 325.144458 
L 558.608262 326.377324 
L 560.035467 327.400307 
L 561.462671 326.105258 
L 564.31708 328.320631 
L 565.744284 325.345631 
L 567.171488 326.89976 
L 568.598693 326.476591 
L 570.025897 326.685942 
L 571.453102 328.512341 
L 572.880306 329.154952 
L 574.30751 329.171137 
L 575.734715 328.99047 
L 577.161919 328.581843 
L 578.589123 329.451547 
L 580.016328 329.988961 
L 581.443532 329.787034 
L 584.297941 328.915333 
L 585.725145 328.753109 
L 587.15235 328.410906 
L 588.579554 327.602488 
L 590.006758 327.672911 
L 591.433963 328.626633 
L 592.861167 327.732616 
L 595.715576 327.845124 
L 597.14278 328.069328 
L 598.569985 328.483006 
L 601.424393 330.235771 
L 602.851598 331.274152 
L 604.278802 332.005453 
L 607.133211 332.973369 
L 608.560415 331.947491 
L 609.98762 331.281465 
L 612.842028 331.737402 
L 614.269233 331.063326 
L 615.696437 332.4571 
L 617.123641 331.883458 
L 618.550846 328.108403 
L 619.97805 328.612077 
L 621.405255 328.945328 
L 622.832459 328.937086 
L 624.259663 329.410167 
L 625.686868 328.534167 
L 627.114072 328.637591 
L 628.541276 327.807408 
L 629.968481 327.26081 
L 631.395685 327.148805 
L 634.250094 327.404416 
L 635.677298 327.859015 
L 637.104503 327.835373 
L 638.531707 326.762321 
L 639.958911 328.406618 
L 641.386116 328.80187 
L 642.81332 326.1632 
L 645.667729 327.559499 
L 647.094933 328.804392 
L 648.522138 329.279521 
L 649.949342 327.359185 
L 651.376546 328.639654 
L 652.803751 327.367884 
L 654.230955 327.627954 
L 655.65816 327.652517 
L 657.085364 327.901735 
L 658.512568 327.982754 
L 658.512568 327.982754 
" clip-path="url(#p35a6e2a5ee)" style="fill: none; stroke: #ff7f0e; stroke-width: 1.2; stroke-linecap: square"/>
   </g>
   <g id="line2d_37">
    <path d="M 90.485227 64.553372 
L 91.912432 72.606512 
L 93.339636 77.130478 
L 94.76684 80.32701 
L 96.194045 82.594546 
L 97.621249 95.962593 
L 99.048454 107.159344 
L 100.475658 116.992154 
L 101.902862 127.607146 
L 103.330067 139.593798 
L 106.184475 166.667665 
L 107.61168 174.647804 
L 109.038884 185.007071 
L 110.466089 194.336106 
L 111.893293 201.035626 
L 116.174906 230.648074 
L 119.029315 247.606325 
L 123.310928 269.661818 
L 127.592541 282.230886 
L 129.019745 286.616417 
L 130.44695 291.383103 
L 131.874154 292.732846 
L 133.301359 295.133048 
L 136.155767 302.364788 
L 137.582972 305.135753 
L 139.010176 308.197826 
L 140.43738 310.392957 
L 141.864585 312.872098 
L 143.291789 313.45347 
L 146.146198 317.648302 
L 147.573402 318.992157 
L 149.000607 320.064144 
L 150.427811 320.651441 
L 151.855015 322.563901 
L 153.28222 323.810249 
L 156.136629 325.102195 
L 158.991037 326.090719 
L 160.418242 325.670053 
L 161.845446 325.442153 
L 163.27265 325.771913 
L 164.699855 325.687837 
L 166.127059 324.676794 
L 167.554263 326.38707 
L 168.981468 326.75745 
L 170.408672 325.410866 
L 171.835877 325.399412 
L 173.263081 326.345233 
L 174.690285 326.794483 
L 177.544694 328.106096 
L 178.971898 329.292084 
L 180.399103 329.305414 
L 181.826307 329.880443 
L 183.253512 329.390149 
L 184.680716 329.076119 
L 186.10792 329.82148 
L 187.535125 329.959752 
L 188.962329 330.395937 
L 190.389533 330.0775 
L 191.816738 328.571625 
L 193.243942 328.295965 
L 194.671147 327.659913 
L 196.098351 326.708987 
L 197.525555 326.091633 
L 198.95276 326.0562 
L 200.379964 326.447636 
L 201.807168 326.118098 
L 203.234373 326.972666 
L 204.661577 326.167738 
L 206.088782 327.016792 
L 207.515986 326.817428 
L 210.370395 328.713877 
L 211.797599 330.226758 
L 213.224803 332.318313 
L 214.652008 332.843295 
L 216.079212 331.37757 
L 218.933621 331.714723 
L 221.78803 331.143149 
L 223.215234 331.202172 
L 224.642438 330.871761 
L 226.069643 331.774087 
L 227.496847 332.113927 
L 228.924052 332.055876 
L 230.351256 330.697798 
L 231.77846 330.480944 
L 233.205665 331.6182 
L 234.632869 331.841328 
L 236.060073 330.265205 
L 237.487278 330.715129 
L 238.914482 331.30288 
L 240.341687 331.521143 
L 241.768891 330.992816 
L 243.196095 331.070565 
L 244.6233 331.55914 
L 246.050504 331.385218 
L 247.477708 331.034715 
L 248.904913 331.678522 
L 250.332117 331.247708 
L 251.759322 330.469925 
L 253.186526 330.807746 
L 254.61373 331.605335 
L 256.040935 332.22183 
L 257.468139 331.149903 
L 258.895343 329.679332 
L 260.322548 330.264835 
L 261.749752 329.963326 
L 263.176957 330.527385 
L 264.604161 331.563868 
L 267.45857 330.855355 
L 268.885774 331.800641 
L 270.312978 330.761399 
L 271.740183 331.185456 
L 273.167387 331.368438 
L 274.594592 330.816578 
L 276.021796 329.361739 
L 277.449 329.883719 
L 278.876205 328.356824 
L 280.303409 328.74673 
L 281.730613 330.497197 
L 283.157818 330.339064 
L 284.585022 330.904249 
L 286.012227 332.913068 
L 287.439431 333.85288 
L 288.866635 332.785866 
L 290.29384 333.533627 
L 291.721044 332.993354 
L 293.148248 332.667217 
L 294.575453 331.249584 
L 296.002657 332.615718 
L 297.429862 331.36074 
L 298.857066 331.295589 
L 300.28427 330.752276 
L 301.711475 330.480895 
L 303.138679 330.760074 
L 304.565883 328.907401 
L 305.993088 328.405122 
L 308.847497 329.067653 
L 310.274701 330.155093 
L 313.12911 330.143659 
L 314.556314 330.106637 
L 315.983518 329.1265 
L 317.410723 330.222318 
L 318.837927 329.885002 
L 321.692336 330.052605 
L 324.546745 328.539206 
L 325.973949 329.343646 
L 327.401153 328.127782 
L 328.828358 329.236821 
L 330.255562 330.151418 
L 331.682767 330.373843 
L 333.109971 329.460308 
L 334.537175 328.712197 
L 335.96438 327.532146 
L 337.391584 327.168708 
L 338.818788 327.638514 
L 340.245993 327.589549 
L 341.673197 327.030864 
L 343.100402 328.253316 
L 344.527606 329.201567 
L 345.95481 329.410452 
L 347.382015 330.426607 
L 348.809219 329.666729 
L 350.236423 329.521823 
L 351.663628 328.552846 
L 353.090832 329.179896 
L 354.518037 327.667066 
L 357.372445 330.11109 
L 358.79965 330.378012 
L 360.226854 330.239777 
L 361.654058 330.592257 
L 363.081263 329.794721 
L 364.508467 327.865363 
L 365.935672 328.691207 
L 367.362876 329.360346 
L 368.79008 328.723021 
L 370.217285 328.383223 
L 373.071693 328.778982 
L 374.498898 327.74557 
L 375.926102 327.584562 
L 377.353307 327.1963 
L 378.780511 327.969501 
L 380.207715 328.07689 
L 381.63492 327.727719 
L 383.062124 328.718383 
L 384.489328 329.160109 
L 385.916533 329.258936 
L 387.343737 330.118885 
L 390.198146 328.423253 
L 393.052555 329.598681 
L 394.479759 328.433111 
L 395.906963 328.266707 
L 397.334168 327.689581 
L 398.761372 328.831332 
L 400.188577 328.854087 
L 401.615781 330.445086 
L 403.042985 330.759152 
L 404.47019 330.868396 
L 405.897394 329.151872 
L 407.324598 329.427357 
L 408.751803 328.424968 
L 410.179007 328.387102 
L 411.606212 330.112493 
L 413.033416 328.061555 
L 414.46062 328.465456 
L 415.887825 329.822934 
L 417.315029 329.041953 
L 418.742233 327.524127 
L 420.169438 327.922219 
L 421.596642 329.378184 
L 423.023847 329.407167 
L 424.451051 329.919584 
L 427.30546 328.794099 
L 428.732664 329.064067 
L 430.159868 329.708936 
L 431.587073 329.735109 
L 433.014277 329.533535 
L 434.441482 330.52116 
L 435.868686 330.389141 
L 437.29589 330.788951 
L 438.723095 331.462092 
L 441.577503 331.765784 
L 443.004708 331.33548 
L 444.431912 331.404365 
L 445.859117 330.07708 
L 447.286321 330.461409 
L 448.713525 331.001805 
L 450.14073 331.201834 
L 451.567934 332.332583 
L 452.995138 332.490199 
L 454.422343 333.217122 
L 455.849547 333.140744 
L 457.276752 331.807302 
L 458.703956 331.90091 
L 460.13116 332.223749 
L 461.558365 332.359425 
L 462.985569 331.781788 
L 465.839978 332.025121 
L 467.267182 330.911178 
L 468.694387 330.594162 
L 470.121591 329.302315 
L 471.548795 329.947695 
L 472.976 330.123852 
L 474.403204 329.812071 
L 475.830408 328.574499 
L 477.257613 329.542342 
L 478.684817 328.798757 
L 480.112022 326.962473 
L 481.539226 326.872359 
L 482.96643 328.023809 
L 484.393635 328.371767 
L 485.820839 330.027105 
L 487.248043 329.700398 
L 488.675248 328.806866 
L 490.102452 328.782301 
L 491.529657 328.497562 
L 492.956861 329.97106 
L 494.384065 330.724418 
L 495.81127 330.050388 
L 497.238474 328.787671 
L 498.665678 328.083823 
L 500.092883 329.038758 
L 501.520087 328.833477 
L 504.374496 330.843613 
L 505.8017 329.99384 
L 507.228905 330.650497 
L 508.656109 330.733243 
L 511.510518 330.703043 
L 512.937722 331.286449 
L 514.364927 330.473579 
L 515.792131 330.327887 
L 517.219335 330.44831 
L 518.64654 328.387754 
L 520.073744 327.307025 
L 521.500948 327.950909 
L 522.928153 327.669127 
L 524.355357 328.535692 
L 525.782562 328.389861 
L 527.209766 327.390429 
L 528.63697 327.994263 
L 530.064175 328.913247 
L 531.491379 326.734244 
L 532.918583 328.195737 
L 534.345788 326.972989 
L 538.627401 328.194871 
L 540.054605 327.734004 
L 541.48181 327.936552 
L 542.909014 328.96825 
L 544.336218 329.005494 
L 545.763423 329.509083 
L 547.190627 329.223489 
L 548.617832 328.653815 
L 550.045036 329.356573 
L 551.47224 328.080448 
L 552.899445 327.924911 
L 554.326649 327.633282 
L 555.753853 327.214914 
L 557.181058 328.627955 
L 560.035467 329.027134 
L 561.462671 329.691061 
L 562.889875 329.857578 
L 567.171488 330.596384 
L 568.598693 331.713721 
L 570.025897 331.809846 
L 571.453102 331.065363 
L 572.880306 330.143719 
L 574.30751 329.600602 
L 575.734715 330.042814 
L 577.161919 330.059477 
L 578.589123 330.759432 
L 580.016328 330.886069 
L 581.443532 330.527714 
L 582.870737 331.197559 
L 584.297941 331.680119 
L 585.725145 331.258598 
L 587.15235 331.632681 
L 588.579554 329.920607 
L 590.006758 329.65418 
L 591.433963 330.838296 
L 592.861167 330.475778 
L 594.288371 329.436365 
L 595.715576 328.711831 
L 597.14278 329.033827 
L 598.569985 329.967937 
L 599.997189 327.538494 
L 601.424393 327.671566 
L 602.851598 328.981147 
L 604.278802 328.643015 
L 605.706006 330.174949 
L 607.133211 330.00282 
L 608.560415 330.542121 
L 609.98762 331.761286 
L 611.414824 332.096849 
L 612.842028 332.632985 
L 614.269233 331.266804 
L 615.696437 332.320354 
L 617.123641 331.211449 
L 618.550846 331.988558 
L 619.97805 332.122228 
L 622.832459 333.237882 
L 624.259663 332.85892 
L 625.686868 331.137759 
L 627.114072 330.773153 
L 628.541276 331.12295 
L 629.968481 332.243478 
L 631.395685 331.722918 
L 632.82289 332.211183 
L 634.250094 331.86444 
L 635.677298 332.094694 
L 637.104503 332.763215 
L 638.531707 332.322351 
L 639.958911 330.970686 
L 641.386116 331.541286 
L 642.81332 332.341556 
L 644.240525 330.705993 
L 645.667729 331.723819 
L 647.094933 331.80058 
L 648.522138 331.765299 
L 649.949342 329.211368 
L 651.376546 329.358301 
L 652.803751 329.339192 
L 654.230955 329.886822 
L 655.65816 329.047228 
L 657.085364 328.355353 
L 658.512568 328.550989 
L 658.512568 328.550989 
" clip-path="url(#p35a6e2a5ee)" style="fill: none; stroke: #2ca02c; stroke-width: 1.2; stroke-linecap: square"/>
   </g>
   <g id="line2d_38">
    <path d="M 90.485227 64.553372 
L 91.912432 72.606512 
L 93.339636 76.335487 
L 94.76684 88.175858 
L 96.194045 103.656805 
L 97.621249 114.970203 
L 103.330067 171.805832 
L 104.757271 188.177236 
L 106.184475 197.687473 
L 107.61168 208.079567 
L 109.038884 220.288395 
L 111.893293 239.95267 
L 113.320497 248.486662 
L 114.747702 256.295258 
L 117.60211 270.44174 
L 123.310928 291.741389 
L 124.738132 294.967747 
L 126.165337 298.854035 
L 127.592541 301.892498 
L 131.874154 309.491221 
L 133.301359 310.861044 
L 136.155767 315.781706 
L 139.010176 318.685662 
L 140.43738 318.976061 
L 141.864585 320.235703 
L 143.291789 321.836031 
L 144.718994 323.141844 
L 146.146198 323.399844 
L 149.000607 325.352478 
L 150.427811 326.036479 
L 151.855015 325.546336 
L 153.28222 325.473108 
L 154.709424 325.987077 
L 156.136629 325.168791 
L 157.563833 325.947877 
L 158.991037 325.419311 
L 160.418242 326.128708 
L 161.845446 326.160379 
L 163.27265 327.115199 
L 164.699855 324.126337 
L 167.554263 324.751079 
L 168.981468 324.180603 
L 170.408672 325.285676 
L 171.835877 327.588714 
L 173.263081 327.470655 
L 174.690285 328.531563 
L 176.11749 327.660133 
L 177.544694 327.284394 
L 178.971898 328.138765 
L 180.399103 326.934116 
L 181.826307 327.329029 
L 183.253512 328.629322 
L 184.680716 328.499194 
L 186.10792 329.916411 
L 187.535125 330.189798 
L 188.962329 330.057178 
L 190.389533 329.197804 
L 191.816738 330.167883 
L 193.243942 329.456786 
L 194.671147 328.95296 
L 196.098351 327.447251 
L 197.525555 329.155659 
L 198.95276 327.480345 
L 200.379964 327.227584 
L 201.807168 327.903491 
L 203.234373 326.036409 
L 204.661577 327.185756 
L 206.088782 326.889072 
L 207.515986 326.933537 
L 208.94319 327.553594 
L 210.370395 326.718577 
L 211.797599 326.722968 
L 213.224803 325.984432 
L 214.652008 327.066475 
L 216.079212 327.1356 
L 217.506417 328.17255 
L 218.933621 328.297466 
L 220.360825 327.553818 
L 221.78803 327.996657 
L 223.215234 328.191552 
L 224.642438 327.683245 
L 226.069643 328.969735 
L 227.496847 329.616687 
L 228.924052 330.091958 
L 230.351256 330.83949 
L 231.77846 328.949803 
L 233.205665 329.260131 
L 234.632869 330.320448 
L 236.060073 331.129656 
L 237.487278 331.140372 
L 238.914482 331.554531 
L 240.341687 331.701354 
L 241.768891 330.056131 
L 243.196095 330.004915 
L 244.6233 329.69876 
L 246.050504 330.197178 
L 248.904913 330.605186 
L 250.332117 330.419512 
L 251.759322 329.087656 
L 253.186526 329.157458 
L 254.61373 329.392724 
L 256.040935 330.400769 
L 257.468139 330.59388 
L 258.895343 331.714428 
L 260.322548 329.844452 
L 261.749752 330.015419 
L 263.176957 330.323384 
L 264.604161 331.452103 
L 266.031365 331.167626 
L 267.45857 331.134255 
L 268.885774 330.735126 
L 270.312978 329.626462 
L 271.740183 329.14846 
L 273.167387 329.258012 
L 274.594592 328.90762 
L 276.021796 330.904869 
L 277.449 330.324425 
L 278.876205 330.016175 
L 280.303409 330.174304 
L 281.730613 329.919451 
L 283.157818 329.2727 
L 284.585022 329.340444 
L 286.012227 330.504263 
L 287.439431 330.33504 
L 288.866635 330.347873 
L 290.29384 329.607064 
L 291.721044 329.729441 
L 293.148248 331.062777 
L 294.575453 331.473264 
L 296.002657 330.363617 
L 297.429862 330.477978 
L 298.857066 330.261772 
L 300.28427 330.651083 
L 301.711475 330.410858 
L 303.138679 329.031343 
L 304.565883 329.057689 
L 307.420292 329.68236 
L 308.847497 329.395614 
L 310.274701 330.368922 
L 311.701905 330.041175 
L 314.556314 328.610426 
L 315.983518 329.018485 
L 317.410723 328.590551 
L 318.837927 329.167817 
L 320.265132 328.426406 
L 321.692336 326.876536 
L 324.546745 327.417938 
L 325.973949 328.729766 
L 327.401153 328.495842 
L 328.828358 327.304565 
L 330.255562 327.780754 
L 331.682767 328.453464 
L 333.109971 328.310305 
L 334.537175 328.842868 
L 335.96438 328.819382 
L 337.391584 327.141259 
L 338.818788 327.303762 
L 340.245993 327.757475 
L 341.673197 328.81091 
L 343.100402 328.90726 
L 345.95481 328.025473 
L 347.382015 328.199851 
L 350.236423 329.420435 
L 351.663628 329.173588 
L 354.518037 328.244411 
L 355.945241 327.910326 
L 357.372445 328.934295 
L 358.79965 328.703636 
L 360.226854 329.130491 
L 361.654058 328.773956 
L 363.081263 328.872261 
L 364.508467 330.853291 
L 367.362876 329.958469 
L 368.79008 329.872567 
L 370.217285 329.908585 
L 371.644489 329.432248 
L 373.071693 329.66087 
L 374.498898 329.088043 
L 375.926102 329.850812 
L 377.353307 328.931543 
L 378.780511 330.084843 
L 380.207715 329.171838 
L 381.63492 328.407865 
L 383.062124 329.756044 
L 384.489328 329.595015 
L 385.916533 330.065353 
L 387.343737 330.375146 
L 390.198146 331.729191 
L 391.62535 331.706536 
L 393.052555 331.435273 
L 395.906963 332.575232 
L 397.334168 331.924107 
L 398.761372 332.534759 
L 400.188577 331.682777 
L 401.615781 331.177449 
L 403.042985 329.763784 
L 404.47019 328.932381 
L 405.897394 329.060778 
L 407.324598 328.858975 
L 408.751803 328.021228 
L 410.179007 328.450017 
L 411.606212 328.47617 
L 413.033416 328.759999 
L 414.46062 328.905136 
L 415.887825 329.314388 
L 417.315029 330.815406 
L 418.742233 330.844163 
L 420.169438 331.556393 
L 421.596642 331.243259 
L 423.023847 330.728134 
L 424.451051 330.574888 
L 425.878255 329.40546 
L 427.30546 329.99655 
L 430.159868 329.680445 
L 431.587073 329.902739 
L 433.014277 328.921509 
L 434.441482 329.304338 
L 435.868686 329.228533 
L 438.723095 328.756082 
L 440.150299 329.103492 
L 441.577503 328.292196 
L 443.004708 328.261657 
L 444.431912 329.403375 
L 447.286321 330.109524 
L 448.713525 329.953364 
L 450.14073 329.13515 
L 451.567934 328.771435 
L 452.995138 325.791889 
L 454.422343 325.878943 
L 455.849547 326.638513 
L 457.276752 326.961622 
L 458.703956 329.039533 
L 460.13116 329.387885 
L 461.558365 329.252688 
L 464.412773 329.685632 
L 465.839978 329.286874 
L 467.267182 330.202898 
L 468.694387 331.628205 
L 470.121591 330.052107 
L 471.548795 330.225922 
L 472.976 330.185535 
L 474.403204 330.34378 
L 475.830408 329.366477 
L 477.257613 329.504445 
L 478.684817 329.114419 
L 481.539226 330.779344 
L 482.96643 330.688407 
L 484.393635 329.365156 
L 485.820839 328.711831 
L 487.248043 329.315931 
L 488.675248 330.078968 
L 490.102452 328.488506 
L 491.529657 327.301833 
L 492.956861 326.570834 
L 494.384065 326.650697 
L 495.81127 325.923338 
L 497.238474 326.694897 
L 500.092883 327.7794 
L 501.520087 327.698447 
L 502.947292 327.927541 
L 505.8017 328.948542 
L 507.228905 328.174681 
L 508.656109 327.798963 
L 510.083313 329.353965 
L 511.510518 329.964076 
L 512.937722 330.859926 
L 514.364927 331.556053 
L 515.792131 330.280153 
L 518.64654 331.370017 
L 520.073744 332.114822 
L 521.500948 331.055253 
L 522.928153 331.288056 
L 524.355357 332.489461 
L 525.782562 332.708794 
L 527.209766 333.616415 
L 528.63697 333.482459 
L 530.064175 333.102971 
L 531.491379 331.662716 
L 532.918583 332.363553 
L 534.345788 332.763434 
L 535.772992 331.888569 
L 537.200197 329.446827 
L 538.627401 329.768362 
L 540.054605 329.815374 
L 541.48181 330.051841 
L 542.909014 330.069617 
L 544.336218 331.263427 
L 545.763423 332.249495 
L 547.190627 332.228328 
L 548.617832 331.871238 
L 550.045036 330.64018 
L 551.47224 329.907469 
L 552.899445 330.358828 
L 554.326649 331.816551 
L 557.181058 331.439714 
L 558.608262 332.430341 
L 560.035467 330.904768 
L 561.462671 331.369256 
L 562.889875 331.409419 
L 564.31708 330.919957 
L 565.744284 331.559921 
L 567.171488 330.367273 
L 568.598693 330.968853 
L 570.025897 330.750028 
L 571.453102 330.128487 
L 572.880306 329.945559 
L 574.30751 328.383543 
L 575.734715 328.647109 
L 577.161919 328.492564 
L 578.589123 329.520317 
L 580.016328 328.998309 
L 581.443532 329.233143 
L 582.870737 329.340514 
L 584.297941 329.094179 
L 585.725145 328.019048 
L 587.15235 328.609078 
L 588.579554 327.676613 
L 590.006758 327.821767 
L 591.433963 327.833533 
L 592.861167 327.249704 
L 594.288371 328.01175 
L 595.715576 327.98209 
L 597.14278 327.744694 
L 598.569985 327.953013 
L 599.997189 326.896289 
L 601.424393 327.787474 
L 602.851598 327.507805 
L 604.278802 328.831543 
L 605.706006 329.287444 
L 607.133211 329.468976 
L 608.560415 330.362768 
L 609.98762 330.588645 
L 611.414824 331.483084 
L 612.842028 330.819913 
L 614.269233 330.530744 
L 615.696437 330.562768 
L 617.123641 331.803187 
L 618.550846 332.256153 
L 619.97805 331.364369 
L 621.405255 331.365484 
L 622.832459 331.735434 
L 624.259663 329.489846 
L 625.686868 329.479876 
L 627.114072 328.491124 
L 628.541276 328.976206 
L 629.968481 329.088969 
L 631.395685 328.31877 
L 632.82289 328.708485 
L 634.250094 327.601971 
L 635.677298 328.004765 
L 637.104503 327.501724 
L 638.531707 327.937739 
L 639.958911 328.729832 
L 641.386116 328.36912 
L 642.81332 328.53171 
L 644.240525 328.858986 
L 645.667729 329.518418 
L 647.094933 329.557819 
L 648.522138 329.970683 
L 649.949342 331.534036 
L 651.376546 331.429823 
L 652.803751 330.519543 
L 654.230955 330.027252 
L 657.085364 329.842017 
L 658.512568 330.063574 
L 658.512568 330.063574 
" clip-path="url(#p35a6e2a5ee)" style="fill: none; stroke: #9b8ac9; stroke-width: 1.2; stroke-linecap: square"/>
   </g>
   <g id="patch_3">
    <path d="M 62.0125 349.8636 
L 62.0125 34.5036 
" style="fill: none; stroke: #000000; stroke-width: 0.8; stroke-linejoin: miter; stroke-linecap: square"/>
   </g>
   <g id="patch_4">
    <path d="M 688.4125 349.8636 
L 688.4125 34.5036 
" style="fill: none; stroke: #000000; stroke-width: 0.8; stroke-linejoin: miter; stroke-linecap: square"/>
   </g>
   <g id="patch_5">
    <path d="M 62.0125 349.8636 
L 688.4125 349.8636 
" style="fill: none; stroke: #000000; stroke-width: 0.8; stroke-linejoin: miter; stroke-linecap: square"/>
   </g>
   <g id="patch_6">
    <path d="M 62.0125 34.5036 
L 688.4125 34.5036 
" style="fill: none; stroke: #000000; stroke-width: 0.8; stroke-linejoin: miter; stroke-linecap: square"/>
   </g>
   <g id="legend_1">
    <g id="patch_7">
     <path d="M 62.0125 31.35 
L 688.4125 31.35 
L 688.4125 7.2 
L 62.0125 7.2 
z
" style="fill: #ffffff; stroke: #808080; stroke-width: 0.8; stroke-linejoin: miter"/>
    </g>
    <g id="line2d_39">
     <path d="M 68.3125 18.4 
L 82.3125 18.4 
L 96.3125 18.4 
" style="fill: none; stroke: #1f77b4; stroke-width: 1.2; stroke-linecap: square"/>
    </g>
    <g id="text_20">
     <!-- GCN-DDQN -->
     <g transform="translate(104.7125 23.3) scale(0.14 -0.14)">
      <defs>
       <path id="SimHei-47" d="M 2850 75 
L 2425 75 
L 2350 425 
Q 2250 275 2037 175 
Q 1825 75 1575 75 
Q 1050 75 637 562 
Q 225 1050 225 2125 
Q 225 3300 600 3875 
Q 975 4450 1625 4450 
Q 2200 4450 2525 4025 
Q 2850 3600 2850 2925 
L 2300 2925 
Q 2300 3450 2125 3712 
Q 1950 3975 1625 3975 
Q 1225 3975 1025 3562 
Q 825 3150 825 2175 
Q 825 1250 1075 900 
Q 1325 550 1650 550 
Q 1975 550 2162 787 
Q 2350 1025 2350 1525 
L 2350 1800 
L 1575 1800 
L 1575 2275 
L 2850 2275 
L 2850 75 
z
" transform="scale(0.015625)"/>
       <path id="SimHei-43" d="M 2975 1825 
Q 2950 875 2575 475 
Q 2200 75 1675 75 
Q 1075 75 650 562 
Q 225 1050 225 2125 
Q 225 3300 637 3875 
Q 1050 4450 1700 4450 
Q 2250 4450 2612 4037 
Q 2975 3625 2950 2875 
L 2400 2875 
Q 2400 3425 2225 3700 
Q 2050 3975 1700 3975 
Q 1300 3975 1062 3562 
Q 825 3150 825 2175 
Q 825 1275 1062 912 
Q 1300 550 1675 550 
Q 1950 550 2175 812 
Q 2400 1075 2400 1825 
L 2975 1825 
z
" transform="scale(0.015625)"/>
       <path id="SimHei-4e" d="M 2850 125 
L 2225 125 
L 850 3225 
L 825 3225 
L 825 125 
L 250 125 
L 250 4400 
L 875 4400 
L 2250 1300 
L 2275 1300 
L 2275 4400 
L 2850 4400 
L 2850 125 
z
" transform="scale(0.015625)"/>
       <path id="SimHei-2d" d="M 2975 2125 
L 125 2125 
L 125 2525 
L 2975 2525 
L 2975 2125 
z
" transform="scale(0.015625)"/>
       <path id="SimHei-44" d="M 2925 2250 
Q 2925 1100 2437 612 
Q 1950 125 1125 125 
L 275 125 
L 275 4400 
L 1125 4400 
Q 2050 4400 2487 3900 
Q 2925 3400 2925 2250 
z
M 2325 2250 
Q 2325 3175 2025 3550 
Q 1725 3925 1125 3925 
L 850 3925 
L 850 600 
L 1125 600 
Q 1725 600 2025 962 
Q 2325 1325 2325 2250 
z
" transform="scale(0.015625)"/>
       <path id="SimHei-51" d="M 2950 2275 
Q 2950 1675 2862 1262 
Q 2775 850 2575 600 
L 2775 225 
L 2375 -200 
L 2150 225 
Q 2050 150 1900 112 
Q 1750 75 1575 75 
Q 925 75 550 587 
Q 175 1100 175 2275 
Q 175 3450 550 3950 
Q 925 4450 1575 4450 
Q 2225 4450 2587 3950 
Q 2950 3450 2950 2275 
z
M 2350 2275 
Q 2350 3325 2125 3650 
Q 1900 3975 1575 3975 
Q 1250 3975 1012 3650 
Q 775 3325 775 2275 
Q 775 1225 1012 887 
Q 1250 550 1575 550 
Q 1700 550 1800 587 
Q 1900 625 1950 675 
L 1550 1450 
L 1900 1875 
L 2250 1200 
Q 2300 1450 2325 1650 
Q 2350 1850 2350 2275 
z
" transform="scale(0.015625)"/>
      </defs>
      <use xlink:href="#SimHei-47"/>
      <use xlink:href="#SimHei-43" transform="translate(50 0)"/>
      <use xlink:href="#SimHei-4e" transform="translate(100 0)"/>
      <use xlink:href="#SimHei-2d" transform="translate(150 0)"/>
      <use xlink:href="#SimHei-44" transform="translate(200 0)"/>
      <use xlink:href="#SimHei-44" transform="translate(250 0)"/>
      <use xlink:href="#SimHei-51" transform="translate(300 0)"/>
      <use xlink:href="#SimHei-4e" transform="translate(350 0)"/>
     </g>
    </g>
    <g id="line2d_40">
     <path d="M 235.1125 18.4 
L 249.1125 18.4 
L 263.1125 18.4 
" style="fill: none; stroke: #ff7f0e; stroke-width: 1.2; stroke-linecap: square"/>
    </g>
    <g id="text_21">
     <!-- GCN-D3QN -->
     <g transform="translate(271.5125 23.3) scale(0.14 -0.14)">
      <use xlink:href="#SimHei-47"/>
      <use xlink:href="#SimHei-43" transform="translate(50 0)"/>
      <use xlink:href="#SimHei-4e" transform="translate(100 0)"/>
      <use xlink:href="#SimHei-2d" transform="translate(150 0)"/>
      <use xlink:href="#SimHei-44" transform="translate(200 0)"/>
      <use xlink:href="#SimHei-33" transform="translate(250 0)"/>
      <use xlink:href="#SimHei-51" transform="translate(300 0)"/>
      <use xlink:href="#SimHei-4e" transform="translate(350 0)"/>
     </g>
    </g>
    <g id="line2d_41">
     <path d="M 401.9125 18.4 
L 415.9125 18.4 
L 429.9125 18.4 
" style="fill: none; stroke: #2ca02c; stroke-width: 1.2; stroke-linecap: square"/>
    </g>
    <g id="text_22">
     <!-- GAT-LSTM-DDQN -->
     <g transform="translate(438.3125 23.3) scale(0.14 -0.14)">
      <defs>
       <path id="SimHei-41" d="M 3075 125 
L 2475 125 
L 2125 1450 
L 1025 1450 
L 675 125 
L 75 125 
L 1325 4450 
L 1825 4450 
L 3075 125 
z
M 2000 1925 
L 1600 3450 
L 1550 3450 
L 1150 1925 
L 2000 1925 
z
" transform="scale(0.015625)"/>
       <path id="SimHei-53" d="M 2900 1325 
Q 2900 750 2537 412 
Q 2175 75 1550 75 
Q 925 75 575 425 
Q 225 775 225 1300 
L 225 1475 
L 800 1475 
L 800 1325 
Q 800 950 1025 750 
Q 1250 550 1550 550 
Q 1950 550 2137 762 
Q 2325 975 2325 1275 
Q 2325 1525 2100 1737 
Q 1875 1950 1450 2125 
Q 850 2350 587 2625 
Q 325 2900 325 3275 
Q 325 3800 687 4125 
Q 1050 4450 1550 4450 
Q 2200 4450 2487 4062 
Q 2775 3675 2775 3225 
L 2200 3225 
Q 2225 3500 2050 3725 
Q 1875 3950 1550 3950 
Q 1250 3950 1075 3787 
Q 900 3625 900 3350 
Q 900 3125 1037 2962 
Q 1175 2800 1750 2575 
Q 2300 2350 2600 2037 
Q 2900 1725 2900 1325 
z
" transform="scale(0.015625)"/>
       <path id="SimHei-4d" d="M 2925 125 
L 2425 125 
L 2425 3175 
L 2375 3175 
L 1775 125 
L 1375 125 
L 775 3175 
L 725 3175 
L 725 125 
L 225 125 
L 225 4400 
L 1000 4400 
L 1550 1575 
L 1600 1575 
L 2150 4400 
L 2925 4400 
L 2925 125 
z
" transform="scale(0.015625)"/>
      </defs>
      <use xlink:href="#SimHei-47"/>
      <use xlink:href="#SimHei-41" transform="translate(50 0)"/>
      <use xlink:href="#SimHei-54" transform="translate(100 0)"/>
      <use xlink:href="#SimHei-2d" transform="translate(150 0)"/>
      <use xlink:href="#SimHei-4c" transform="translate(200 0)"/>
      <use xlink:href="#SimHei-53" transform="translate(250 0)"/>
      <use xlink:href="#SimHei-54" transform="translate(300 0)"/>
      <use xlink:href="#SimHei-4d" transform="translate(350 0)"/>
      <use xlink:href="#SimHei-2d" transform="translate(400 0)"/>
      <use xlink:href="#SimHei-44" transform="translate(450 0)"/>
      <use xlink:href="#SimHei-44" transform="translate(500 0)"/>
      <use xlink:href="#SimHei-51" transform="translate(550 0)"/>
      <use xlink:href="#SimHei-4e" transform="translate(600 0)"/>
     </g>
    </g>
    <g id="line2d_42">
     <path d="M 603.7125 18.4 
L 617.7125 18.4 
L 631.7125 18.4 
" style="fill: none; stroke: #9b8ac9; stroke-width: 1.2; stroke-linecap: square"/>
    </g>
    <g id="text_23">
     <!-- GLDVTO -->
     <g transform="translate(640.1125 23.3) scale(0.14 -0.14)">
      <defs>
       <path id="SimHei-56" d="M 3050 4400 
L 1800 75 
L 1300 75 
L 50 4400 
L 650 4400 
L 1525 1125 
L 1575 1125 
L 2450 4400 
L 3050 4400 
z
" transform="scale(0.015625)"/>
       <path id="SimHei-4f" d="M 2950 2275 
Q 2950 1100 2587 587 
Q 2225 75 1575 75 
Q 925 75 550 587 
Q 175 1100 175 2275 
Q 175 3450 550 3950 
Q 925 4450 1575 4450 
Q 2225 4450 2587 3950 
Q 2950 3450 2950 2275 
z
M 2350 2275 
Q 2350 3325 2125 3650 
Q 1900 3975 1575 3975 
Q 1250 3975 1012 3650 
Q 775 3325 775 2275 
Q 775 1225 1012 887 
Q 1250 550 1575 550 
Q 1900 550 2125 887 
Q 2350 1225 2350 2275 
z
" transform="scale(0.015625)"/>
      </defs>
      <use xlink:href="#SimHei-47"/>
      <use xlink:href="#SimHei-4c" transform="translate(50 0)"/>
      <use xlink:href="#SimHei-44" transform="translate(100 0)"/>
      <use xlink:href="#SimHei-56" transform="translate(150 0)"/>
      <use xlink:href="#SimHei-54" transform="translate(200 0)"/>
      <use xlink:href="#SimHei-4f" transform="translate(250 0)"/>
     </g>
    </g>
   </g>
  </g>
 </g>
 <defs>
  <clipPath id="p35a6e2a5ee">
   <rect x="62.0125" y="34.5036" width="626.4" height="315.36"/>
  </clipPath>
 </defs>
</svg>
