<?xml version="1.0" encoding="utf-8" standalone="no"?>
<!DOCTYPE svg PUBLIC "-//W3C//DTD SVG 1.1//EN"
  "http://www.w3.org/Graphics/SVG/1.1/DTD/svg11.dtd">
<svg xmlns:xlink="http://www.w3.org/1999/xlink" width="689.6125pt" height="391.6261pt" viewBox="0 0 689.6125 391.6261" xmlns="http://www.w3.org/2000/svg" version="1.1">
 <metadata>
  <rdf:RDF xmlns:dc="http://purl.org/dc/elements/1.1/" xmlns:cc="http://creativecommons.org/ns#" xmlns:rdf="http://www.w3.org/1999/02/22-rdf-syntax-ns#">
   <cc:Work>
    <dc:type rdf:resource="http://purl.org/dc/dcmitype/StillImage"/>
    <dc:date>2026-07-09T21:49:23.214999</dc:date>
    <dc:format>image/svg+xml</dc:format>
    <dc:creator>
     <cc:Agent>
      <dc:title>Matplotlib v3.10.7, https://matplotlib.org/</dc:title>
     </cc:Agent>
    </dc:creator>
   </cc:Work>
  </rdf:RDF>
 </metadata>
 <defs>
  <style type="text/css">*{stroke-linejoin: round; stroke-linecap: butt}</style>
 </defs>
 <g id="figure_1">
  <g id="patch_1">
   <path d="M 0 391.6261 
L 689.6125 391.6261 
L 689.6125 0 
L 0 0 
z
" style="fill: #ffffff"/>
  </g>
  <g id="axes_1">
   <g id="patch_2">
    <path d="M 56.0125 349.8636 
L 682.4125 349.8636 
L 682.4125 34.5036 
L 56.0125 34.5036 
z
" style="fill: #ffffff"/>
   </g>
   <g id="matplotlib.axis_1">
    <g id="xtick_1">
     <g id="line2d_1">
      <path d="M 84.485227 349.8636 
L 84.485227 34.5036 
" clip-path="url(#p870b15bc73)" style="fill: none; stroke-dasharray: 2.22,0.96; stroke-dashoffset: 0; stroke: #b0b0b0; stroke-opacity: 0.25; stroke-width: 0.6"/>
     </g>
     <g id="line2d_2">
      <defs>
       <path id="m3901a0946d" d="M 0 0 
L 0 3.5 
" style="stroke: #000000; stroke-width: 0.8"/>
      </defs>
      <g>
       <use xlink:href="#m3901a0946d" x="84.485227" y="349.8636" style="stroke: #000000; stroke-width: 0.8"/>
      </g>
     </g>
     <g id="text_1">
      <!-- 0 -->
      <g transform="translate(81.485227 365.1136) scale(0.12 -0.12)">
       <defs>
        <path id="SimHei-30" d="M 225 2537 
Q 250 3200 412 3587 
Q 575 3975 875 4225 
Q 1175 4475 1612 4475 
Q 2050 4475 2375 4112 
Q 2700 3750 2800 3200 
Q 2900 2650 2862 1937 
Q 2825 1225 2612 775 
Q 2400 325 1975 150 
Q 1550 -25 1125 187 
Q 700 400 525 750 
Q 350 1100 275 1487 
Q 200 1875 225 2537 
z
M 750 2687 
Q 675 2000 800 1462 
Q 925 925 1212 700 
Q 1500 475 1800 612 
Q 2100 750 2237 1162 
Q 2375 1575 2375 2062 
Q 2375 2550 2337 2950 
Q 2300 3350 2112 3675 
Q 1925 4000 1612 4012 
Q 1300 4025 1062 3700 
Q 825 3375 750 2687 
z
" transform="scale(0.015625)"/>
       </defs>
       <use xlink:href="#SimHei-30"/>
      </g>
     </g>
    </g>
    <g id="xtick_2">
     <g id="line2d_3">
      <path d="M 155.845446 349.8636 
L 155.845446 34.5036 
" clip-path="url(#p870b15bc73)" style="fill: none; stroke-dasharray: 2.22,0.96; stroke-dashoffset: 0; stroke: #b0b0b0; stroke-opacity: 0.25; stroke-width: 0.6"/>
     </g>
     <g id="line2d_4">
      <g>
       <use xlink:href="#m3901a0946d" x="155.845446" y="349.8636" style="stroke: #000000; stroke-width: 0.8"/>
      </g>
     </g>
     <g id="text_2">
      <!-- 50 -->
      <g transform="translate(149.845446 365.1136) scale(0.12 -0.12)">
       <defs>
        <path id="SimHei-35" d="M 550 1325 
Q 725 650 1150 575 
Q 1575 500 1837 662 
Q 2100 825 2212 1087 
Q 2325 1350 2312 1675 
Q 2300 2000 2137 2225 
Q 1975 2450 1725 2525 
Q 1475 2600 1162 2525 
Q 850 2450 650 2175 
L 225 2225 
Q 275 2375 700 4375 
L 2675 4375 
L 2675 3925 
L 1075 3925 
Q 950 3250 825 2850 
Q 1200 3025 1525 3012 
Q 1850 3000 2150 2862 
Q 2450 2725 2587 2487 
Q 2725 2250 2787 2012 
Q 2850 1775 2837 1500 
Q 2825 1225 2725 937 
Q 2625 650 2425 462 
Q 2225 275 1937 162 
Q 1650 50 1275 75 
Q 900 100 562 350 
Q 225 600 100 1200 
L 550 1325 
z
" transform="scale(0.015625)"/>
       </defs>
       <use xlink:href="#SimHei-35"/>
       <use xlink:href="#SimHei-30" transform="translate(50 0)"/>
      </g>
     </g>
    </g>
    <g id="xtick_3">
     <g id="line2d_5">
      <path d="M 227.205665 349.8636 
L 227.205665 34.5036 
" clip-path="url(#p870b15bc73)" style="fill: none; stroke-dasharray: 2.22,0.96; stroke-dashoffset: 0; stroke: #b0b0b0; stroke-opacity: 0.25; stroke-width: 0.6"/>
     </g>
     <g id="line2d_6">
      <g>
       <use xlink:href="#m3901a0946d" x="227.205665" y="349.8636" style="stroke: #000000; stroke-width: 0.8"/>
      </g>
     </g>
     <g id="text_3">
      <!-- 100 -->
      <g transform="translate(218.205665 365.1136) scale(0.12 -0.12)">
       <defs>
        <path id="SimHei-31" d="M 1400 3600 
Q 1075 3275 575 2975 
L 575 3450 
Q 1200 3875 1600 4450 
L 1900 4450 
L 1900 150 
L 1400 150 
L 1400 3600 
z
" transform="scale(0.015625)"/>
       </defs>
       <use xlink:href="#SimHei-31"/>
       <use xlink:href="#SimHei-30" transform="translate(50 0)"/>
       <use xlink:href="#SimHei-30" transform="translate(100 0)"/>
      </g>
     </g>
    </g>
    <g id="xtick_4">
     <g id="line2d_7">
      <path d="M 298.565883 349.8636 
L 298.565883 34.5036 
" clip-path="url(#p870b15bc73)" style="fill: none; stroke-dasharray: 2.22,0.96; stroke-dashoffset: 0; stroke: #b0b0b0; stroke-opacity: 0.25; stroke-width: 0.6"/>
     </g>
     <g id="line2d_8">
      <g>
       <use xlink:href="#m3901a0946d" x="298.565883" y="349.8636" style="stroke: #000000; stroke-width: 0.8"/>
      </g>
     </g>
     <g id="text_4">
      <!-- 150 -->
      <g transform="translate(289.565883 365.1136) scale(0.12 -0.12)">
       <use xlink:href="#SimHei-31"/>
       <use xlink:href="#SimHei-35" transform="translate(50 0)"/>
       <use xlink:href="#SimHei-30" transform="translate(100 0)"/>
      </g>
     </g>
    </g>
    <g id="xtick_5">
     <g id="line2d_9">
      <path d="M 369.926102 349.8636 
L 369.926102 34.5036 
" clip-path="url(#p870b15bc73)" style="fill: none; stroke-dasharray: 2.22,0.96; stroke-dashoffset: 0; stroke: #b0b0b0; stroke-opacity: 0.25; stroke-width: 0.6"/>
     </g>
     <g id="line2d_10">
      <g>
       <use xlink:href="#m3901a0946d" x="369.926102" y="349.8636" style="stroke: #000000; stroke-width: 0.8"/>
      </g>
     </g>
     <g id="text_5">
      <!-- 200 -->
      <g transform="translate(360.926102 365.1136) scale(0.12 -0.12)">
       <defs>
        <path id="SimHei-32" d="M 300 250 
Q 325 625 650 925 
Q 975 1225 1475 1862 
Q 1975 2500 2125 2850 
Q 2275 3200 2237 3450 
Q 2200 3700 2000 3862 
Q 1800 4025 1537 4000 
Q 1275 3975 1037 3800 
Q 800 3625 675 3275 
L 200 3350 
Q 400 3925 712 4187 
Q 1025 4450 1450 4475 
Q 1700 4500 1900 4462 
Q 2100 4425 2312 4287 
Q 2525 4150 2662 3875 
Q 2800 3600 2762 3212 
Q 2725 2825 2375 2287 
Q 2025 1750 1025 600 
L 2825 600 
L 2825 150 
L 300 150 
L 300 250 
z
" transform="scale(0.015625)"/>
       </defs>
       <use xlink:href="#SimHei-32"/>
       <use xlink:href="#SimHei-30" transform="translate(50 0)"/>
       <use xlink:href="#SimHei-30" transform="translate(100 0)"/>
      </g>
     </g>
    </g>
    <g id="xtick_6">
     <g id="line2d_11">
      <path d="M 441.286321 349.8636 
L 441.286321 34.5036 
" clip-path="url(#p870b15bc73)" style="fill: none; stroke-dasharray: 2.22,0.96; stroke-dashoffset: 0; stroke: #b0b0b0; stroke-opacity: 0.25; stroke-width: 0.6"/>
     </g>
     <g id="line2d_12">
      <g>
       <use xlink:href="#m3901a0946d" x="441.286321" y="349.8636" style="stroke: #000000; stroke-width: 0.8"/>
      </g>
     </g>
     <g id="text_6">
      <!-- 250 -->
      <g transform="translate(432.286321 365.1136) scale(0.12 -0.12)">
       <use xlink:href="#SimHei-32"/>
       <use xlink:href="#SimHei-35" transform="translate(50 0)"/>
       <use xlink:href="#SimHei-30" transform="translate(100 0)"/>
      </g>
     </g>
    </g>
    <g id="xtick_7">
     <g id="line2d_13">
      <path d="M 512.64654 349.8636 
L 512.64654 34.5036 
" clip-path="url(#p870b15bc73)" style="fill: none; stroke-dasharray: 2.22,0.96; stroke-dashoffset: 0; stroke: #b0b0b0; stroke-opacity: 0.25; stroke-width: 0.6"/>
     </g>
     <g id="line2d_14">
      <g>
       <use xlink:href="#m3901a0946d" x="512.64654" y="349.8636" style="stroke: #000000; stroke-width: 0.8"/>
      </g>
     </g>
     <g id="text_7">
      <!-- 300 -->
      <g transform="translate(503.64654 365.1136) scale(0.12 -0.12)">
       <defs>
        <path id="SimHei-33" d="M 250 1225 
L 700 1300 
Q 800 975 1025 762 
Q 1250 550 1587 562 
Q 1925 575 2125 837 
Q 2325 1100 2300 1437 
Q 2275 1775 2037 1962 
Q 1800 2150 1275 2225 
L 1275 2550 
Q 1800 2600 2037 2825 
Q 2275 3050 2250 3412 
Q 2225 3775 1925 3937 
Q 1625 4100 1287 3975 
Q 950 3850 750 3275 
L 300 3350 
Q 450 3800 712 4100 
Q 975 4400 1425 4450 
Q 1875 4500 2212 4337 
Q 2550 4175 2687 3837 
Q 2825 3500 2725 3100 
Q 2625 2700 2150 2400 
Q 2500 2250 2687 1950 
Q 2875 1650 2812 1162 
Q 2750 675 2375 375 
Q 2000 75 1525 87 
Q 1050 100 700 387 
Q 350 675 250 1225 
z
" transform="scale(0.015625)"/>
       </defs>
       <use xlink:href="#SimHei-33"/>
       <use xlink:href="#SimHei-30" transform="translate(50 0)"/>
       <use xlink:href="#SimHei-30" transform="translate(100 0)"/>
      </g>
     </g>
    </g>
    <g id="xtick_8">
     <g id="line2d_15">
      <path d="M 584.006758 349.8636 
L 584.006758 34.5036 
" clip-path="url(#p870b15bc73)" style="fill: none; stroke-dasharray: 2.22,0.96; stroke-dashoffset: 0; stroke: #b0b0b0; stroke-opacity: 0.25; stroke-width: 0.6"/>
     </g>
     <g id="line2d_16">
      <g>
       <use xlink:href="#m3901a0946d" x="584.006758" y="349.8636" style="stroke: #000000; stroke-width: 0.8"/>
      </g>
     </g>
     <g id="text_8">
      <!-- 350 -->
      <g transform="translate(575.006758 365.1136) scale(0.12 -0.12)">
       <use xlink:href="#SimHei-33"/>
       <use xlink:href="#SimHei-35" transform="translate(50 0)"/>
       <use xlink:href="#SimHei-30" transform="translate(100 0)"/>
      </g>
     </g>
    </g>
    <g id="xtick_9">
     <g id="line2d_17">
      <path d="M 655.366977 349.8636 
L 655.366977 34.5036 
" clip-path="url(#p870b15bc73)" style="fill: none; stroke-dasharray: 2.22,0.96; stroke-dashoffset: 0; stroke: #b0b0b0; stroke-opacity: 0.25; stroke-width: 0.6"/>
     </g>
     <g id="line2d_18">
      <g>
       <use xlink:href="#m3901a0946d" x="655.366977" y="349.8636" style="stroke: #000000; stroke-width: 0.8"/>
      </g>
     </g>
     <g id="text_9">
      <!-- 400 -->
      <g transform="translate(646.366977 365.1136) scale(0.12 -0.12)">
       <defs>
        <path id="SimHei-34" d="M 2000 1100 
L 75 1100 
L 75 1525 
L 2100 4450 
L 2475 4450 
L 2475 1525 
L 3075 1525 
L 3075 1100 
L 2475 1100 
L 2475 150 
L 2000 150 
L 2000 1100 
z
M 2000 1525 
L 2000 3500 
L 600 1525 
L 2000 1525 
z
" transform="scale(0.015625)"/>
       </defs>
       <use xlink:href="#SimHei-34"/>
       <use xlink:href="#SimHei-30" transform="translate(50 0)"/>
       <use xlink:href="#SimHei-30" transform="translate(100 0)"/>
      </g>
     </g>
    </g>
    <g id="text_10">
     <!-- Episode -->
     <g transform="translate(339.4625 382.3011) scale(0.17 -0.17)">
      <defs>
       <path id="SimHei-45" d="M 2900 125 
L 350 125 
L 350 4400 
L 2775 4400 
L 2775 3925 
L 925 3925 
L 925 2600 
L 2625 2600 
L 2625 2125 
L 925 2125 
L 925 600 
L 2900 600 
L 2900 125 
z
" transform="scale(0.015625)"/>
       <path id="SimHei-70" d="M 2825 1525 
Q 2825 800 2475 425 
Q 2125 50 1625 50 
Q 1350 50 1150 162 
Q 950 275 800 500 
L 800 -800 
L 300 -800 
L 300 2925 
L 800 2925 
L 800 2550 
Q 950 2775 1150 2875 
Q 1350 2975 1625 2975 
Q 2125 2975 2475 2612 
Q 2825 2250 2825 1525 
z
M 2275 1525 
Q 2275 2000 2087 2262 
Q 1900 2525 1525 2525 
Q 1225 2525 1012 2262 
Q 800 2000 800 1525 
Q 800 1050 1012 775 
Q 1225 500 1525 500 
Q 1900 500 2087 775 
Q 2275 1050 2275 1525 
z
" transform="scale(0.015625)"/>
       <path id="SimHei-69" d="M 1800 3725 
L 1300 3725 
L 1300 4375 
L 1800 4375 
L 1800 3725 
z
M 1800 125 
L 1300 125 
L 1300 2925 
L 1800 2925 
L 1800 125 
z
" transform="scale(0.015625)"/>
       <path id="SimHei-73" d="M 2750 900 
Q 2750 500 2437 287 
Q 2125 75 1650 75 
Q 1050 75 725 312 
Q 400 550 400 1000 
L 900 1000 
Q 900 700 1112 600 
Q 1325 500 1625 500 
Q 1925 500 2075 612 
Q 2225 725 2225 900 
Q 2225 1025 2100 1150 
Q 1975 1275 1475 1350 
Q 900 1425 687 1637 
Q 475 1850 475 2200 
Q 475 2500 762 2737 
Q 1050 2975 1600 2975 
Q 2100 2975 2387 2750 
Q 2675 2525 2675 2150 
L 2175 2150 
Q 2175 2375 2012 2462 
Q 1850 2550 1600 2550 
Q 1275 2550 1137 2437 
Q 1000 2325 1000 2175 
Q 1000 2000 1125 1900 
Q 1250 1800 1650 1750 
Q 2300 1650 2525 1437 
Q 2750 1225 2750 900 
z
" transform="scale(0.015625)"/>
       <path id="SimHei-6f" d="M 2925 1525 
Q 2925 875 2525 475 
Q 2125 75 1575 75 
Q 1025 75 625 475 
Q 225 875 225 1525 
Q 225 2175 625 2575 
Q 1025 2975 1575 2975 
Q 2125 2975 2525 2575 
Q 2925 2175 2925 1525 
z
M 2375 1525 
Q 2375 2025 2125 2275 
Q 1875 2525 1575 2525 
Q 1275 2525 1025 2275 
Q 775 2025 775 1525 
Q 775 1025 1025 775 
Q 1275 525 1575 525 
Q 1875 525 2125 775 
Q 2375 1025 2375 1525 
z
" transform="scale(0.015625)"/>
       <path id="SimHei-64" d="M 2750 125 
L 2250 125 
L 2250 500 
Q 2100 275 1900 175 
Q 1700 75 1425 75 
Q 925 75 575 437 
Q 225 800 225 1525 
Q 225 2250 575 2625 
Q 925 3000 1425 3000 
Q 1700 3000 1900 2887 
Q 2100 2775 2250 2550 
L 2250 4400 
L 2750 4400 
L 2750 125 
z
M 2250 1525 
Q 2250 2000 2037 2275 
Q 1825 2550 1525 2550 
Q 1150 2550 962 2275 
Q 775 2000 775 1525 
Q 775 1050 962 787 
Q 1150 525 1525 525 
Q 1825 525 2037 787 
Q 2250 1050 2250 1525 
z
" transform="scale(0.015625)"/>
       <path id="SimHei-65" d="M 2850 1075 
Q 2800 625 2450 350 
Q 2100 75 1625 75 
Q 1025 75 637 462 
Q 250 850 250 1525 
Q 250 2200 637 2587 
Q 1025 2975 1625 2975 
Q 2150 2975 2487 2637 
Q 2825 2300 2825 1525 
L 800 1525 
Q 800 975 1037 750 
Q 1275 525 1625 525 
Q 1900 525 2075 662 
Q 2250 800 2300 1075 
L 2850 1075 
z
M 2250 1925 
Q 2200 2275 2025 2412 
Q 1850 2550 1575 2550 
Q 1325 2550 1125 2412 
Q 925 2275 825 1925 
L 2250 1925 
z
" transform="scale(0.015625)"/>
      </defs>
      <use xlink:href="#SimHei-45"/>
      <use xlink:href="#SimHei-70" transform="translate(50 0)"/>
      <use xlink:href="#SimHei-69" transform="translate(100 0)"/>
      <use xlink:href="#SimHei-73" transform="translate(150 0)"/>
      <use xlink:href="#SimHei-6f" transform="translate(200 0)"/>
      <use xlink:href="#SimHei-64" transform="translate(250 0)"/>
      <use xlink:href="#SimHei-65" transform="translate(300 0)"/>
     </g>
    </g>
   </g>
   <g id="matplotlib.axis_2">
    <g id="ytick_1">
     <g id="line2d_19">
      <path d="M 56.0125 308.573587 
L 682.4125 308.573587 
" clip-path="url(#p870b15bc73)" style="fill: none; stroke-dasharray: 2.22,0.96; stroke-dashoffset: 0; stroke: #b0b0b0; stroke-opacity: 0.25; stroke-width: 0.6"/>
     </g>
     <g id="line2d_20">
      <defs>
       <path id="m05a46f0c43" d="M 0 0 
L -3.5 0 
" style="stroke: #000000; stroke-width: 0.8"/>
      </defs>
      <g>
       <use xlink:href="#m05a46f0c43" x="56.0125" y="308.573587" style="stroke: #000000; stroke-width: 0.8"/>
      </g>
     </g>
     <g id="text_11">
      <!-- 600 -->
      <g transform="translate(31.0125 312.698587) scale(0.12 -0.12)">
       <defs>
        <path id="SimHei-36" d="M 250 1612 
Q 275 1975 387 2225 
Q 500 2475 725 2850 
L 1750 4450 
L 2325 4450 
L 1275 2800 
Q 1950 2975 2350 2750 
Q 2750 2525 2887 2237 
Q 3025 1950 3037 1612 
Q 3050 1275 2937 950 
Q 2825 625 2537 362 
Q 2250 100 1737 75 
Q 1225 50 862 262 
Q 500 475 362 862 
Q 225 1250 250 1612 
z
M 1025 787 
Q 1250 550 1625 525 
Q 2000 500 2250 775 
Q 2500 1050 2500 1575 
Q 2500 2100 2187 2300 
Q 1875 2500 1487 2450 
Q 1100 2400 925 2075 
Q 750 1750 775 1387 
Q 800 1025 1025 787 
z
" transform="scale(0.015625)"/>
       </defs>
       <use xlink:href="#SimHei-36"/>
       <use xlink:href="#SimHei-30" transform="translate(50 0)"/>
       <use xlink:href="#SimHei-30" transform="translate(100 0)"/>
      </g>
     </g>
    </g>
    <g id="ytick_2">
     <g id="line2d_21">
      <path d="M 56.0125 255.14158 
L 682.4125 255.14158 
" clip-path="url(#p870b15bc73)" style="fill: none; stroke-dasharray: 2.22,0.96; stroke-dashoffset: 0; stroke: #b0b0b0; stroke-opacity: 0.25; stroke-width: 0.6"/>
     </g>
     <g id="line2d_22">
      <g>
       <use xlink:href="#m05a46f0c43" x="56.0125" y="255.14158" style="stroke: #000000; stroke-width: 0.8"/>
      </g>
     </g>
     <g id="text_12">
      <!-- 800 -->
      <g transform="translate(31.0125 259.26658) scale(0.12 -0.12)">
       <defs>
        <path id="SimHei-38" d="M 175 1375 
Q 175 1675 325 1962 
Q 475 2250 825 2425 
Q 525 2600 425 2812 
Q 325 3025 312 3300 
Q 300 3575 387 3775 
Q 475 3975 650 4150 
Q 825 4325 1037 4387 
Q 1250 4450 1500 4450 
Q 1750 4450 1950 4400 
Q 2150 4350 2375 4187 
Q 2600 4025 2700 3725 
Q 2800 3425 2687 3025 
Q 2575 2625 2100 2400 
Q 2525 2275 2700 2012 
Q 2875 1750 2875 1375 
Q 2875 1000 2762 775 
Q 2650 550 2512 400 
Q 2375 250 2137 162 
Q 1900 75 1537 75 
Q 1175 75 912 162 
Q 650 250 475 425 
Q 300 600 237 837 
Q 175 1075 175 1375 
z
M 687 1400 
Q 675 1100 787 875 
Q 900 650 1200 587 
Q 1500 525 1825 600 
Q 2150 675 2275 950 
Q 2400 1225 2362 1500 
Q 2325 1775 2050 1962 
Q 1775 2150 1450 2125 
Q 1125 2100 912 1900 
Q 700 1700 687 1400 
z
M 775 3350 
Q 775 3100 950 2875 
Q 1125 2650 1500 2650 
Q 1875 2650 2062 2875 
Q 2250 3100 2237 3412 
Q 2225 3725 2012 3875 
Q 1800 4025 1437 4000 
Q 1075 3975 925 3787 
Q 775 3600 775 3350 
z
" transform="scale(0.015625)"/>
       </defs>
       <use xlink:href="#SimHei-38"/>
       <use xlink:href="#SimHei-30" transform="translate(50 0)"/>
       <use xlink:href="#SimHei-30" transform="translate(100 0)"/>
      </g>
     </g>
    </g>
    <g id="ytick_3">
     <g id="line2d_23">
      <path d="M 56.0125 201.709573 
L 682.4125 201.709573 
" clip-path="url(#p870b15bc73)" style="fill: none; stroke-dasharray: 2.22,0.96; stroke-dashoffset: 0; stroke: #b0b0b0; stroke-opacity: 0.25; stroke-width: 0.6"/>
     </g>
     <g id="line2d_24">
      <g>
       <use xlink:href="#m05a46f0c43" x="56.0125" y="201.709573" style="stroke: #000000; stroke-width: 0.8"/>
      </g>
     </g>
     <g id="text_13">
      <!-- 1000 -->
      <g transform="translate(25.0125 205.834573) scale(0.12 -0.12)">
       <use xlink:href="#SimHei-31"/>
       <use xlink:href="#SimHei-30" transform="translate(50 0)"/>
       <use xlink:href="#SimHei-30" transform="translate(100 0)"/>
       <use xlink:href="#SimHei-30" transform="translate(150 0)"/>
      </g>
     </g>
    </g>
    <g id="ytick_4">
     <g id="line2d_25">
      <path d="M 56.0125 148.277565 
L 682.4125 148.277565 
" clip-path="url(#p870b15bc73)" style="fill: none; stroke-dasharray: 2.22,0.96; stroke-dashoffset: 0; stroke: #b0b0b0; stroke-opacity: 0.25; stroke-width: 0.6"/>
     </g>
     <g id="line2d_26">
      <g>
       <use xlink:href="#m05a46f0c43" x="56.0125" y="148.277565" style="stroke: #000000; stroke-width: 0.8"/>
      </g>
     </g>
     <g id="text_14">
      <!-- 1200 -->
      <g transform="translate(25.0125 152.402565) scale(0.12 -0.12)">
       <use xlink:href="#SimHei-31"/>
       <use xlink:href="#SimHei-32" transform="translate(50 0)"/>
       <use xlink:href="#SimHei-30" transform="translate(100 0)"/>
       <use xlink:href="#SimHei-30" transform="translate(150 0)"/>
      </g>
     </g>
    </g>
    <g id="ytick_5">
     <g id="line2d_27">
      <path d="M 56.0125 94.845558 
L 682.4125 94.845558 
" clip-path="url(#p870b15bc73)" style="fill: none; stroke-dasharray: 2.22,0.96; stroke-dashoffset: 0; stroke: #b0b0b0; stroke-opacity: 0.25; stroke-width: 0.6"/>
     </g>
     <g id="line2d_28">
      <g>
       <use xlink:href="#m05a46f0c43" x="56.0125" y="94.845558" style="stroke: #000000; stroke-width: 0.8"/>
      </g>
     </g>
     <g id="text_15">
      <!-- 1400 -->
      <g transform="translate(25.0125 98.970558) scale(0.12 -0.12)">
       <use xlink:href="#SimHei-31"/>
       <use xlink:href="#SimHei-34" transform="translate(50 0)"/>
       <use xlink:href="#SimHei-30" transform="translate(100 0)"/>
       <use xlink:href="#SimHei-30" transform="translate(150 0)"/>
      </g>
     </g>
    </g>
    <g id="ytick_6">
     <g id="line2d_29">
      <path d="M 56.0125 41.41355 
L 682.4125 41.41355 
" clip-path="url(#p870b15bc73)" style="fill: none; stroke-dasharray: 2.22,0.96; stroke-dashoffset: 0; stroke: #b0b0b0; stroke-opacity: 0.25; stroke-width: 0.6"/>
     </g>
     <g id="line2d_30">
      <g>
       <use xlink:href="#m05a46f0c43" x="56.0125" y="41.41355" style="stroke: #000000; stroke-width: 0.8"/>
      </g>
     </g>
     <g id="text_16">
      <!-- 1600 -->
      <g transform="translate(25.0125 45.53855) scale(0.12 -0.12)">
       <use xlink:href="#SimHei-31"/>
       <use xlink:href="#SimHei-36" transform="translate(50 0)"/>
       <use xlink:href="#SimHei-30" transform="translate(100 0)"/>
       <use xlink:href="#SimHei-30" transform="translate(150 0)"/>
      </g>
     </g>
    </g>
    <g id="text_17">
     <!-- Total Reward -->
     <g transform="translate(18.8875 243.1836) rotate(-90) scale(0.17 -0.17)">
      <defs>
       <path id="SimHei-54" d="M 2850 3925 
L 1850 3925 
L 1850 125 
L 1275 125 
L 1275 3925 
L 275 3925 
L 275 4400 
L 2850 4400 
L 2850 3925 
z
" transform="scale(0.015625)"/>
       <path id="SimHei-74" d="M 2750 200 
Q 2625 150 2462 112 
Q 2300 75 2025 75 
Q 1575 75 1300 325 
Q 1025 575 1025 1025 
L 1025 2525 
L 175 2525 
L 175 2925 
L 1025 2925 
L 1025 3900 
L 1525 3900 
L 1525 2925 
L 2550 2925 
L 2550 2525 
L 1525 2525 
L 1525 1000 
Q 1525 800 1625 662 
Q 1725 525 2000 525 
Q 2275 525 2450 575 
Q 2625 625 2750 700 
L 2750 200 
z
" transform="scale(0.015625)"/>
       <path id="SimHei-61" d="M 2875 125 
L 2275 125 
Q 2225 175 2200 262 
Q 2175 350 2175 475 
Q 2000 275 1750 175 
Q 1500 75 1225 75 
Q 825 75 550 275 
Q 275 475 275 850 
Q 275 1225 525 1450 
Q 775 1675 1300 1750 
Q 1650 1800 1912 1875 
Q 2175 1950 2175 2075 
Q 2175 2225 2062 2375 
Q 1950 2525 1575 2525 
Q 1275 2525 1137 2412 
Q 1000 2300 950 2100 
L 400 2100 
Q 450 2500 762 2737 
Q 1075 2975 1575 2975 
Q 2125 2975 2400 2725 
Q 2675 2475 2675 2025 
L 2675 650 
Q 2675 500 2725 375 
Q 2775 250 2875 125 
z
M 2175 1050 
L 2175 1550 
Q 2025 1500 1887 1462 
Q 1750 1425 1425 1375 
Q 1050 1325 937 1200 
Q 825 1075 825 900 
Q 825 750 937 637 
Q 1050 525 1275 525 
Q 1500 525 1762 650 
Q 2025 775 2175 1050 
z
" transform="scale(0.015625)"/>
       <path id="SimHei-6c" d="M 1825 125 
L 1325 125 
L 1325 4400 
L 1825 4400 
L 1825 125 
z
" transform="scale(0.015625)"/>
       <path id="SimHei-20" transform="scale(0.015625)"/>
       <path id="SimHei-52" d="M 3000 125 
L 2400 125 
L 1500 1975 
L 850 1975 
L 850 125 
L 275 125 
L 275 4400 
L 1525 4400 
Q 2125 4400 2500 4112 
Q 2875 3825 2875 3175 
Q 2875 2675 2625 2400 
Q 2375 2125 2050 2050 
L 3000 125 
z
M 2300 3175 
Q 2300 3525 2087 3725 
Q 1875 3925 1400 3925 
L 850 3925 
L 850 2450 
L 1550 2450 
Q 1850 2450 2075 2612 
Q 2300 2775 2300 3175 
z
" transform="scale(0.015625)"/>
       <path id="SimHei-77" d="M 3075 2925 
L 2450 75 
L 1975 75 
L 1575 2250 
L 1525 2250 
L 1125 75 
L 650 75 
L 25 2925 
L 550 2925 
L 875 1050 
L 925 1050 
L 1275 2925 
L 1825 2925 
L 2175 1050 
L 2225 1050 
L 2550 2925 
L 3075 2925 
z
" transform="scale(0.015625)"/>
       <path id="SimHei-72" d="M 2500 2425 
Q 2025 2500 1700 2287 
Q 1375 2075 1150 1550 
L 1150 125 
L 650 125 
L 650 2925 
L 1150 2925 
L 1150 2200 
Q 1375 2600 1712 2787 
Q 2050 2975 2500 2975 
L 2500 2425 
z
" transform="scale(0.015625)"/>
      </defs>
      <use xlink:href="#SimHei-54"/>
      <use xlink:href="#SimHei-6f" transform="translate(50 0)"/>
      <use xlink:href="#SimHei-74" transform="translate(100 0)"/>
      <use xlink:href="#SimHei-61" transform="translate(150 0)"/>
      <use xlink:href="#SimHei-6c" transform="translate(200 0)"/>
      <use xlink:href="#SimHei-20" transform="translate(250 0)"/>
      <use xlink:href="#SimHei-52" transform="translate(300 0)"/>
      <use xlink:href="#SimHei-65" transform="translate(350 0)"/>
      <use xlink:href="#SimHei-77" transform="translate(400 0)"/>
      <use xlink:href="#SimHei-61" transform="translate(450 0)"/>
      <use xlink:href="#SimHei-72" transform="translate(500 0)"/>
      <use xlink:href="#SimHei-64" transform="translate(550 0)"/>
     </g>
    </g>
   </g>
   <g id="line2d_31">
    <path d="M 84.485227 205.088514 
L 85.912432 206.534891 
L 87.339636 214.104511 
L 88.76684 222.296107 
L 90.194045 234.563336 
L 91.621249 239.228207 
L 93.048454 253.738524 
L 94.475658 250.452019 
L 95.902862 254.493962 
L 97.330067 252.912452 
L 98.757271 263.162956 
L 100.184475 271.580928 
L 101.61168 269.746929 
L 103.038884 271.028119 
L 104.466089 278.377062 
L 105.893293 282.099346 
L 107.320497 287.406578 
L 108.747702 288.96047 
L 110.174906 296.505119 
L 111.60211 293.595056 
L 113.029315 293.7127 
L 114.456519 282.52721 
L 115.883724 281.403764 
L 117.310928 280.966246 
L 118.738132 278.751537 
L 120.165337 283.604765 
L 121.592541 287.481595 
L 123.019745 290.579007 
L 124.44695 293.94411 
L 128.728563 313.446622 
L 130.155767 316.219711 
L 131.582972 326.088003 
L 133.010176 323.408407 
L 134.43738 324.519812 
L 135.864585 335.529055 
L 138.718994 282.848303 
L 140.146198 259.449841 
L 141.573402 238.998095 
L 143.000607 222.090749 
L 145.855015 192.81295 
L 147.28222 179.426907 
L 154.418242 129.974427 
L 155.845446 123.985477 
L 157.27265 116.196093 
L 158.699855 113.017352 
L 160.127059 107.44406 
L 161.554263 102.977312 
L 162.981468 99.315498 
L 164.408672 97.160311 
L 167.263081 85.927004 
L 168.690285 82.82777 
L 170.11749 81.986125 
L 171.544694 81.754922 
L 174.399103 76.458915 
L 175.826307 75.997255 
L 177.253512 75.163736 
L 178.680716 72.539359 
L 180.10792 70.33498 
L 181.535125 67.922262 
L 182.962329 65.962562 
L 185.816738 59.547053 
L 187.243942 59.630536 
L 188.671147 61.218095 
L 190.098351 60.96156 
L 191.525555 61.051179 
L 192.95276 60.096494 
L 194.379964 61.920398 
L 195.807168 60.849907 
L 197.234373 59.451107 
L 198.661577 60.569951 
L 200.088782 63.179112 
L 201.515986 65.283074 
L 202.94319 66.029602 
L 204.370395 64.915242 
L 205.797599 62.806003 
L 207.224803 62.106892 
L 208.652008 61.679006 
L 210.079212 61.797852 
L 211.506417 60.710531 
L 212.933621 59.446904 
L 214.360825 59.381874 
L 215.78803 59.863252 
L 217.215234 59.610366 
L 218.642438 59.759565 
L 220.069643 59.073088 
L 221.496847 59.237923 
L 222.924052 60.464839 
L 224.351256 59.811929 
L 225.77846 58.508242 
L 227.205665 57.58892 
L 228.632869 55.19308 
L 230.060073 56.899249 
L 231.487278 56.462411 
L 232.914482 57.496571 
L 234.341687 56.998827 
L 235.768891 58.264338 
L 237.196095 57.839977 
L 238.6233 57.593338 
L 240.050504 57.183995 
L 241.477708 57.571771 
L 242.904913 56.862666 
L 244.332117 57.852638 
L 247.186526 57.004493 
L 248.61373 58.943169 
L 250.040935 56.673278 
L 251.468139 55.018085 
L 252.895343 58.295666 
L 255.749752 60.057002 
L 257.176957 59.341808 
L 258.604161 61.722926 
L 260.031365 62.205081 
L 261.45857 62.11295 
L 262.885774 61.852658 
L 264.312978 58.875932 
L 265.740183 58.107688 
L 267.167387 58.159236 
L 268.594592 57.95279 
L 270.021796 58.95731 
L 271.449 58.451347 
L 272.876205 58.438271 
L 274.303409 59.645291 
L 275.730613 57.855948 
L 277.157818 56.683923 
L 278.585022 56.916348 
L 280.012227 56.073145 
L 281.439431 57.374752 
L 284.29384 56.828967 
L 285.721044 55.395224 
L 287.148248 56.000768 
L 288.575453 56.983883 
L 290.002657 56.764164 
L 291.429862 57.675942 
L 292.857066 56.382027 
L 294.28427 54.352277 
L 295.711475 54.093935 
L 297.138679 55.439175 
L 298.565883 59.297769 
L 299.993088 57.995206 
L 301.420292 58.485239 
L 302.847497 58.074068 
L 304.274701 57.91739 
L 305.701905 57.150508 
L 307.12911 60.769027 
L 308.556314 58.022564 
L 311.410723 57.966908 
L 312.837927 58.8408 
L 315.692336 56.700397 
L 317.11954 55.27675 
L 318.546745 54.403125 
L 319.973949 54.213724 
L 321.401153 53.004203 
L 322.828358 53.349586 
L 324.255562 53.961024 
L 325.682767 53.56367 
L 327.109971 54.538082 
L 328.537175 56.179071 
L 329.96438 56.526848 
L 331.391584 58.48206 
L 332.818788 58.062702 
L 334.245993 57.793129 
L 335.673197 59.47486 
L 337.100402 60.839498 
L 338.527606 61.057056 
L 339.95481 62.133489 
L 341.382015 61.402249 
L 342.809219 62.953067 
L 344.236423 63.031252 
L 345.663628 60.881667 
L 347.090832 59.598238 
L 348.518037 58.64043 
L 349.945241 55.64527 
L 351.372445 57.043181 
L 352.79965 56.446466 
L 354.226854 56.663227 
L 355.654058 57.294786 
L 357.081263 57.628029 
L 358.508467 57.465314 
L 359.935672 55.179786 
L 361.362876 54.299376 
L 362.79008 54.500468 
L 364.217285 56.519355 
L 365.644489 55.19865 
L 367.071693 56.591648 
L 368.498898 56.819962 
L 369.926102 56.692891 
L 371.353307 56.856341 
L 372.780511 55.948685 
L 374.207715 57.206526 
L 375.63492 56.974096 
L 377.062124 58.834417 
L 378.489328 60.1075 
L 379.916533 61.537965 
L 381.343737 61.330431 
L 382.770942 60.723328 
L 384.198146 60.282614 
L 385.62535 62.063941 
L 387.052555 62.926435 
L 388.479759 63.449715 
L 389.906963 61.481766 
L 391.334168 63.218262 
L 392.761372 61.364795 
L 394.188577 63.400084 
L 395.615781 64.431064 
L 397.042985 61.389102 
L 398.47019 61.160184 
L 399.897394 59.429176 
L 401.324598 59.844517 
L 402.751803 61.964428 
L 404.179007 60.222223 
L 405.606212 61.266338 
L 407.033416 60.976501 
L 408.46062 62.423068 
L 409.887825 62.497588 
L 411.315029 61.795854 
L 412.742233 60.549863 
L 414.169438 60.305094 
L 415.596642 61.441173 
L 417.023847 61.357926 
L 418.451051 61.006405 
L 419.878255 60.532217 
L 421.30546 61.518539 
L 422.732664 60.835495 
L 424.159868 62.035987 
L 425.587073 62.535288 
L 427.014277 61.606025 
L 428.441482 61.585092 
L 429.868686 62.152437 
L 431.29589 63.463709 
L 432.723095 63.665454 
L 434.150299 62.375605 
L 435.577503 61.674242 
L 437.004708 61.591696 
L 438.431912 60.022493 
L 439.859117 56.806742 
L 441.286321 57.397664 
L 442.713525 57.040501 
L 444.14073 58.350985 
L 445.567934 59.092429 
L 446.995138 59.376348 
L 448.422343 59.917234 
L 449.849547 60.195837 
L 452.703956 59.54713 
L 455.558365 55.288476 
L 456.985569 55.154042 
L 458.412773 56.964569 
L 459.839978 59.306888 
L 461.267182 57.082592 
L 462.694387 56.215173 
L 464.121591 55.104998 
L 465.548795 54.428006 
L 466.976 54.841106 
L 468.403204 53.618704 
L 469.830408 51.711857 
L 471.257613 53.146682 
L 472.684817 55.082849 
L 474.112022 54.206643 
L 475.539226 53.651559 
L 476.96643 54.569175 
L 478.393635 53.285494 
L 479.820839 53.292796 
L 481.248043 54.899847 
L 482.675248 56.192424 
L 484.102452 56.594595 
L 485.529657 57.807488 
L 486.956861 60.136846 
L 488.384065 58.067443 
L 489.81127 55.5081 
L 491.238474 56.253692 
L 492.665678 57.393515 
L 494.092883 57.006913 
L 495.520087 56.116461 
L 496.947292 55.969876 
L 498.374496 57.431021 
L 499.8017 56.080115 
L 501.228905 55.579346 
L 502.656109 58.83026 
L 505.510518 58.707742 
L 506.937722 58.941086 
L 508.364927 59.703823 
L 509.792131 59.925014 
L 511.219335 60.992515 
L 512.64654 60.246265 
L 514.073744 63.093952 
L 515.500948 62.669023 
L 516.928153 61.574695 
L 519.782562 61.151227 
L 521.209766 62.24689 
L 522.63697 61.426496 
L 524.064175 62.760881 
L 525.491379 60.434244 
L 526.918583 58.72744 
L 528.345788 57.821429 
L 531.200197 57.103209 
L 532.627401 58.675201 
L 534.054605 60.785911 
L 535.48181 60.459337 
L 536.909014 60.928104 
L 538.336218 58.143048 
L 539.763423 55.8657 
L 541.190627 57.21283 
L 542.617832 57.303166 
L 545.47224 61.167243 
L 548.326649 63.423719 
L 549.753853 62.515531 
L 551.181058 59.986006 
L 552.608262 59.246394 
L 554.035467 56.296865 
L 555.462671 60.485978 
L 556.889875 58.018505 
L 558.31708 56.730229 
L 559.744284 59.418543 
L 561.171488 60.257365 
L 562.598693 59.270566 
L 564.025897 56.783676 
L 565.453102 56.159804 
L 566.880306 55.952376 
L 568.30751 56.614199 
L 569.734715 58.802413 
L 571.161919 57.667116 
L 572.589123 57.489168 
L 574.016328 55.284114 
L 575.443532 54.907292 
L 576.870737 54.688732 
L 578.297941 53.993037 
L 579.725145 51.877462 
L 581.15235 52.834855 
L 582.579554 51.3269 
L 584.006758 51.729372 
L 585.433963 54.559443 
L 586.861167 54.051515 
L 588.288371 54.147646 
L 589.715576 55.024821 
L 591.14278 52.258607 
L 592.569985 52.117309 
L 593.997189 52.413017 
L 595.424393 53.37894 
L 596.851598 54.763607 
L 598.278802 55.721624 
L 599.706006 56.887438 
L 601.133211 59.23349 
L 602.560415 59.421702 
L 605.414824 59.258407 
L 609.696437 56.992724 
L 611.123641 59.314057 
L 612.550846 60.186339 
L 613.97805 58.675684 
L 615.405255 56.073782 
L 616.832459 57.767298 
L 618.259663 57.364918 
L 619.686868 58.718023 
L 621.114072 59.785219 
L 622.541276 59.649333 
L 623.968481 59.083302 
L 625.395685 59.537523 
L 626.82289 57.733533 
L 628.250094 59.427476 
L 629.677298 57.197249 
L 631.104503 56.272301 
L 632.531707 57.147765 
L 633.958911 59.47912 
L 635.386116 59.986653 
L 636.81332 59.532557 
L 638.240525 58.755354 
L 639.667729 59.443222 
L 641.094933 58.076839 
L 642.522138 59.641918 
L 643.949342 58.867907 
L 645.376546 56.88633 
L 646.803751 58.553729 
L 648.230955 58.32602 
L 649.65816 56.497053 
L 651.085364 57.788766 
L 652.512568 56.220666 
L 653.939773 55.344494 
L 653.939773 55.344494 
" clip-path="url(#p870b15bc73)" style="fill: none; stroke: #1f77b4; stroke-width: 1.2; stroke-linecap: square"/>
   </g>
   <g id="line2d_32">
    <path d="M 84.485227 230.844201 
L 85.912432 240.604254 
L 87.339636 249.483632 
L 88.76684 252.979371 
L 90.194045 255.434422 
L 91.621249 269.826337 
L 93.048454 272.877418 
L 94.475658 273.073637 
L 95.902862 286.098949 
L 97.330067 291.752905 
L 98.757271 282.085272 
L 100.184475 286.977497 
L 101.61168 290.855563 
L 103.038884 285.261666 
L 104.466089 281.043721 
L 105.893293 279.673118 
L 107.320497 278.596889 
L 108.747702 285.217333 
L 110.174906 295.340624 
L 111.60211 295.748042 
L 113.029315 289.148376 
L 114.456519 293.460429 
L 115.883724 296.813724 
L 117.310928 297.05022 
L 118.738132 301.572093 
L 120.165337 299.273295 
L 121.592541 297.802767 
L 123.019745 302.633686 
L 124.44695 305.216766 
L 125.874154 296.97773 
L 127.301359 291.833 
L 128.728563 285.289815 
L 130.155767 292.781518 
L 131.582972 295.497461 
L 133.010176 293.278391 
L 134.43738 290.608028 
L 135.864585 284.493974 
L 137.291789 295.697339 
L 138.718994 296.820995 
L 140.146198 301.085626 
L 141.573402 309.845945 
L 143.000607 303.244585 
L 144.427811 299.777926 
L 145.855015 278.561232 
L 147.28222 255.551614 
L 151.563833 204.43011 
L 154.418242 175.630148 
L 157.27265 152.507065 
L 158.699855 143.768355 
L 160.127059 133.01136 
L 161.554263 126.023241 
L 162.981468 120.131315 
L 164.408672 115.757123 
L 167.263081 99.978912 
L 168.690285 96.912106 
L 171.544694 90.0826 
L 172.971898 85.835449 
L 174.399103 83.487078 
L 175.826307 83.259504 
L 178.680716 77.055383 
L 180.10792 75.421882 
L 181.535125 72.283958 
L 182.962329 68.838458 
L 184.389533 65.846365 
L 185.816738 65.467365 
L 187.243942 65.566371 
L 188.671147 64.726507 
L 190.098351 62.449944 
L 191.525555 62.189855 
L 192.95276 62.484321 
L 195.807168 59.847622 
L 197.234373 60.364365 
L 198.661577 62.036156 
L 200.088782 63.283513 
L 201.515986 65.847394 
L 202.94319 66.598719 
L 204.370395 65.755389 
L 205.797599 65.788437 
L 208.652008 65.023993 
L 210.079212 65.201703 
L 211.506417 63.256467 
L 212.933621 62.622992 
L 214.360825 60.192483 
L 215.78803 59.495864 
L 217.215234 59.324565 
L 218.642438 58.771324 
L 220.069643 60.343785 
L 221.496847 62.429361 
L 222.924052 63.855441 
L 224.351256 62.754739 
L 225.77846 61.193679 
L 227.205665 62.904836 
L 230.060073 60.022083 
L 231.487278 59.543806 
L 232.914482 58.540419 
L 234.341687 59.378106 
L 235.768891 62.230228 
L 237.196095 61.537189 
L 238.6233 61.613843 
L 240.050504 59.759129 
L 241.477708 61.266148 
L 242.904913 58.9891 
L 244.332117 60.025369 
L 245.759322 58.373817 
L 247.186526 57.884063 
L 248.61373 59.485267 
L 250.040935 58.606676 
L 251.468139 58.960021 
L 252.895343 58.055093 
L 254.322548 58.880416 
L 255.749752 58.412289 
L 257.176957 58.365005 
L 258.604161 58.707777 
L 261.45857 58.626939 
L 262.885774 58.09261 
L 264.312978 58.598903 
L 265.740183 58.487176 
L 267.167387 58.696132 
L 268.594592 58.579025 
L 270.021796 59.473721 
L 271.449 58.617385 
L 272.876205 60.262351 
L 274.303409 60.890313 
L 278.585022 57.081111 
L 280.012227 55.115435 
L 281.439431 56.599077 
L 282.866635 56.121812 
L 284.29384 56.443539 
L 285.721044 58.473089 
L 287.148248 57.831377 
L 288.575453 59.726152 
L 290.002657 55.921386 
L 291.429862 57.063493 
L 292.857066 57.119978 
L 294.28427 55.908309 
L 297.138679 57.80635 
L 298.565883 59.33606 
L 299.993088 57.620717 
L 301.420292 58.504786 
L 302.847497 57.740049 
L 304.274701 57.502448 
L 305.701905 58.23795 
L 307.12911 60.418874 
L 308.556314 57.864774 
L 309.983518 57.572754 
L 311.410723 58.331525 
L 312.837927 59.494228 
L 314.265132 57.811294 
L 315.692336 57.103925 
L 317.11954 56.051172 
L 318.546745 56.006949 
L 319.973949 55.311395 
L 321.401153 54.114903 
L 322.828358 54.768807 
L 324.255562 55.238324 
L 325.682767 54.713239 
L 327.109971 55.572695 
L 328.537175 57.110222 
L 329.96438 57.364884 
L 331.391584 59.236292 
L 332.818788 58.741512 
L 334.245993 58.404058 
L 335.673197 60.024696 
L 337.100402 61.33435 
L 338.527606 61.502423 
L 339.95481 62.534318 
L 341.382015 61.762996 
L 342.809219 63.277739 
L 344.236423 63.323457 
L 345.663628 61.144651 
L 347.090832 59.834924 
L 348.518037 58.853448 
L 349.945241 55.836986 
L 351.372445 57.215725 
L 352.79965 56.601756 
L 354.226854 56.802988 
L 355.654058 57.420571 
L 357.081263 57.741235 
L 358.508467 57.5672 
L 359.935672 55.271483 
L 361.362876 54.381903 
L 362.79008 54.574743 
L 364.217285 56.586202 
L 365.644489 55.258813 
L 367.071693 56.645794 
L 368.498898 56.868694 
L 369.926102 56.736749 
L 371.353307 56.895814 
L 372.780511 55.98421 
L 374.207715 57.238498 
L 375.63492 57.002872 
L 377.062124 58.860315 
L 378.489328 60.130808 
L 379.916533 61.558942 
L 381.343737 61.34931 
L 382.770942 60.74032 
L 384.198146 60.297906 
L 385.62535 62.077705 
L 387.052555 62.938822 
L 388.479759 63.460863 
L 389.906963 61.491799 
L 391.334168 63.227292 
L 392.761372 61.372922 
L 394.188577 63.407398 
L 395.615781 64.437647 
L 397.042985 61.395027 
L 398.47019 61.165517 
L 399.897394 59.433975 
L 401.324598 59.848836 
L 402.751803 61.968315 
L 404.179007 60.225722 
L 405.606212 61.269487 
L 407.033416 60.979335 
L 408.46062 62.425619 
L 409.887825 62.499883 
L 411.315029 61.79792 
L 412.742233 60.551722 
L 414.169438 60.306767 
L 415.596642 61.442679 
L 417.023847 61.359282 
L 418.451051 61.007625 
L 419.878255 60.533315 
L 421.30546 61.519527 
L 422.732664 60.836384 
L 424.159868 62.036787 
L 425.587073 62.536008 
L 427.014277 61.606673 
L 428.441482 61.585675 
L 429.868686 62.152962 
L 431.29589 63.464181 
L 432.723095 63.665879 
L 434.150299 62.375988 
L 435.577503 61.674587 
L 437.004708 61.592006 
L 438.431912 60.022772 
L 439.859117 56.806993 
L 441.286321 57.39789 
L 442.713525 57.040705 
L 444.14073 58.351169 
L 445.567934 59.092594 
L 446.995138 59.376497 
L 448.422343 59.917368 
L 449.849547 60.195958 
L 452.703956 59.547228 
L 455.558365 55.288555 
L 456.985569 55.154113 
L 458.412773 56.964633 
L 459.839978 59.306946 
L 461.267182 57.082643 
L 462.694387 56.21522 
L 464.121591 55.10504 
L 465.548795 54.428043 
L 466.976 54.84114 
L 468.403204 53.618735 
L 469.830408 51.711884 
L 471.257613 53.146707 
L 472.684817 55.082871 
L 474.112022 54.206663 
L 475.539226 53.651577 
L 476.96643 54.569191 
L 478.393635 53.285508 
L 479.820839 53.292809 
L 481.248043 54.899859 
L 482.675248 56.192435 
L 484.102452 56.594604 
L 485.529657 57.807497 
L 486.956861 60.136853 
L 488.384065 58.06745 
L 489.81127 55.508106 
L 491.238474 56.253698 
L 492.665678 57.39352 
L 494.092883 57.006918 
L 495.520087 56.116465 
L 496.947292 55.96988 
L 498.374496 57.431025 
L 499.8017 56.080118 
L 501.228905 55.579349 
L 502.656109 58.830262 
L 505.510518 58.707744 
L 506.937722 58.941088 
L 508.364927 59.703825 
L 509.792131 59.925016 
L 511.219335 60.992516 
L 512.64654 60.246266 
L 514.073744 63.093953 
L 515.500948 62.669024 
L 516.928153 61.574696 
L 519.782562 61.151228 
L 521.209766 62.246891 
L 522.63697 61.426497 
L 524.064175 62.760881 
L 525.491379 60.434244 
L 526.918583 58.727441 
L 528.345788 57.82143 
L 531.200197 57.103209 
L 532.627401 58.675201 
L 534.054605 60.785911 
L 535.48181 60.459337 
L 536.909014 60.928104 
L 538.336218 58.143048 
L 539.763423 55.8657 
L 541.190627 57.21283 
L 542.617832 57.303166 
L 545.47224 61.167243 
L 548.326649 63.423719 
L 549.753853 62.515531 
L 551.181058 59.986006 
L 552.608262 59.246394 
L 554.035467 56.296865 
L 555.462671 60.485978 
L 556.889875 58.018505 
L 558.31708 56.730229 
L 559.744284 59.418543 
L 561.171488 60.257365 
L 562.598693 59.270566 
L 564.025897 56.783676 
L 565.453102 56.159804 
L 566.880306 55.952376 
L 568.30751 56.614199 
L 569.734715 58.802413 
L 571.161919 57.667116 
L 572.589123 57.489168 
L 574.016328 55.284114 
L 575.443532 54.907292 
L 576.870737 54.688732 
L 578.297941 53.993037 
L 579.725145 51.877462 
L 581.15235 52.834855 
L 582.579554 51.3269 
L 584.006758 51.729372 
L 585.433963 54.559443 
L 586.861167 54.051515 
L 588.288371 54.147646 
L 589.715576 55.024821 
L 591.14278 52.258607 
L 592.569985 52.117309 
L 593.997189 52.413017 
L 595.424393 53.37894 
L 596.851598 54.763607 
L 598.278802 55.721624 
L 599.706006 56.887438 
L 601.133211 59.23349 
L 602.560415 59.421702 
L 605.414824 59.258407 
L 609.696437 56.992724 
L 611.123641 59.314057 
L 612.550846 60.186339 
L 613.97805 58.675684 
L 615.405255 56.073782 
L 616.832459 57.767298 
L 618.259663 57.364918 
L 619.686868 58.718023 
L 621.114072 59.785219 
L 622.541276 59.649333 
L 623.968481 59.083302 
L 625.395685 59.537523 
L 626.82289 57.733533 
L 628.250094 59.427476 
L 629.677298 57.197249 
L 631.104503 56.272301 
L 632.531707 57.147765 
L 633.958911 59.47912 
L 635.386116 59.986653 
L 636.81332 59.532557 
L 638.240525 58.755354 
L 639.667729 59.443222 
L 641.094933 58.076839 
L 642.522138 59.641918 
L 643.949342 58.867907 
L 645.376546 56.88633 
L 646.803751 58.553729 
L 648.230955 58.32602 
L 649.65816 56.497053 
L 651.085364 57.788766 
L 652.512568 56.220666 
L 653.939773 55.344494 
L 653.939773 55.344494 
" clip-path="url(#p870b15bc73)" style="fill: none; stroke: #ff7f0e; stroke-width: 1.2; stroke-linecap: square"/>
   </g>
   <g id="line2d_33">
    <path d="M 84.485227 206.189883 
L 85.912432 207.672335 
L 87.339636 208.753367 
L 88.76684 208.030067 
L 90.194045 214.229268 
L 91.621249 219.268966 
L 93.048454 228.601151 
L 94.475658 238.747532 
L 95.902862 253.462905 
L 97.330067 256.687607 
L 98.757271 260.853292 
L 100.184475 259.137459 
L 101.61168 262.80278 
L 103.038884 257.8581 
L 104.466089 241.299045 
L 105.893293 230.201969 
L 108.747702 203.900295 
L 110.174906 190.109422 
L 111.60211 177.799395 
L 113.029315 164.046227 
L 114.456519 153.041033 
L 117.310928 134.233272 
L 120.165337 119.214372 
L 121.592541 113.869586 
L 123.019745 110.691529 
L 124.44695 103.154253 
L 125.874154 98.329098 
L 127.301359 92.70188 
L 128.728563 91.686016 
L 130.155767 88.843057 
L 131.582972 84.722145 
L 133.010176 83.375333 
L 135.864585 79.014564 
L 137.291789 74.884122 
L 138.718994 74.831526 
L 140.146198 71.921856 
L 141.573402 70.804752 
L 144.427811 70.278356 
L 145.855015 67.91316 
L 147.28222 66.477973 
L 148.709424 65.293762 
L 150.136629 64.6544 
L 151.563833 64.427463 
L 152.991037 66.464285 
L 154.418242 65.540745 
L 155.845446 66.311875 
L 157.27265 65.456812 
L 158.699855 66.589832 
L 160.127059 65.064684 
L 161.554263 64.225095 
L 162.981468 64.112842 
L 164.408672 64.419989 
L 165.835877 62.962416 
L 167.263081 62.474252 
L 168.690285 62.723029 
L 170.11749 61.032223 
L 171.544694 61.819501 
L 172.971898 62.028936 
L 174.399103 61.953009 
L 175.826307 62.830905 
L 177.253512 60.859104 
L 178.680716 62.42649 
L 180.10792 61.504874 
L 181.535125 61.082062 
L 182.962329 60.486161 
L 184.389533 58.97365 
L 185.816738 56.617353 
L 187.243942 59.763719 
L 188.671147 59.206826 
L 190.098351 56.949416 
L 191.525555 57.580452 
L 192.95276 58.824997 
L 195.807168 59.433049 
L 197.234373 57.40774 
L 198.661577 60.854876 
L 200.088782 60.117215 
L 201.515986 59.807989 
L 202.94319 59.105277 
L 204.370395 60.049544 
L 205.797599 60.275265 
L 207.224803 61.162069 
L 208.652008 60.140732 
L 210.079212 60.047345 
L 211.506417 58.235737 
L 212.933621 57.564602 
L 214.360825 58.254436 
L 215.78803 59.21008 
L 217.215234 59.560829 
L 218.642438 58.793438 
L 220.069643 59.203934 
L 221.496847 56.562883 
L 222.924052 57.72038 
L 224.351256 58.245081 
L 225.77846 57.331674 
L 227.205665 58.150503 
L 228.632869 56.419145 
L 230.060073 57.77511 
L 231.487278 58.268006 
L 232.914482 57.826707 
L 234.341687 58.062015 
L 235.768891 56.746385 
L 237.196095 56.224359 
L 238.6233 54.636823 
L 240.050504 54.471339 
L 241.477708 56.196846 
L 242.904913 55.927441 
L 244.332117 56.020986 
L 245.759322 56.350345 
L 247.186526 55.49754 
L 248.61373 55.795025 
L 250.040935 57.196321 
L 251.468139 58.383394 
L 252.895343 57.852111 
L 254.322548 57.886297 
L 255.749752 57.456283 
L 257.176957 56.686669 
L 258.604161 57.41746 
L 260.031365 56.294236 
L 261.45857 56.589153 
L 262.885774 55.432935 
L 264.312978 57.617966 
L 265.740183 58.626502 
L 267.167387 57.441119 
L 268.594592 56.807098 
L 270.021796 56.808869 
L 271.449 55.004961 
L 272.876205 55.748322 
L 274.303409 57.27424 
L 275.730613 56.966364 
L 277.157818 59.60029 
L 278.585022 58.270101 
L 280.012227 55.549447 
L 281.439431 56.328425 
L 282.866635 56.409105 
L 284.29384 56.008332 
L 285.721044 57.603425 
L 287.148248 56.431823 
L 288.575453 59.131108 
L 291.429862 57.096484 
L 292.857066 58.091753 
L 294.28427 58.034731 
L 295.711475 57.40588 
L 297.138679 59.563313 
L 298.565883 60.327027 
L 299.993088 60.424531 
L 301.420292 60.76887 
L 302.847497 60.288659 
L 304.274701 57.761226 
L 305.701905 59.285218 
L 308.556314 55.946409 
L 309.983518 58.224324 
L 311.410723 56.413438 
L 312.837927 59.34182 
L 314.265132 60.418138 
L 315.692336 62.971613 
L 317.11954 63.302725 
L 318.546745 61.425142 
L 319.973949 62.048941 
L 322.828358 60.871371 
L 324.255562 59.876283 
L 325.682767 59.527236 
L 328.537175 62.389951 
L 329.96438 60.475894 
L 331.391584 59.194182 
L 332.818788 59.911016 
L 334.245993 58.878144 
L 335.673197 57.086884 
L 337.100402 57.155126 
L 338.527606 57.566762 
L 339.95481 56.135408 
L 341.382015 52.284492 
L 344.236423 52.241521 
L 345.663628 51.88088 
L 348.518037 52.841596 
L 349.945241 52.796633 
L 351.372445 53.559955 
L 352.79965 51.367644 
L 354.226854 49.494109 
L 355.654058 49.610741 
L 357.081263 52.130041 
L 358.508467 51.413612 
L 361.362876 51.218448 
L 362.79008 50.400638 
L 364.217285 50.781382 
L 365.644489 50.577709 
L 368.498898 58.547262 
L 369.926102 56.945258 
L 371.353307 57.603474 
L 372.780511 58.578129 
L 374.207715 57.773948 
L 375.63492 56.203747 
L 377.062124 56.406561 
L 378.489328 56.364957 
L 379.916533 56.679148 
L 381.343737 56.770349 
L 382.770942 58.78308 
L 384.198146 56.642031 
L 385.62535 57.250344 
L 387.052555 59.142773 
L 388.479759 60.775614 
L 389.906963 62.188352 
L 391.334168 60.496022 
L 392.761372 59.205437 
L 394.188577 59.576566 
L 395.615781 55.560391 
L 397.042985 54.008203 
L 399.897394 57.175767 
L 401.324598 55.633631 
L 404.179007 58.622562 
L 405.606212 57.415751 
L 408.46062 57.059525 
L 409.887825 57.332426 
L 411.315029 59.102163 
L 412.742233 61.196422 
L 414.169438 60.724135 
L 415.596642 62.962918 
L 417.023847 61.755088 
L 418.451051 61.567501 
L 421.30546 59.625723 
L 422.732664 60.488513 
L 424.159868 60.299252 
L 425.587073 61.262977 
L 427.014277 60.040997 
L 428.441482 60.312586 
L 429.868686 62.398223 
L 431.29589 63.496605 
L 432.723095 61.282318 
L 434.150299 61.313334 
L 435.577503 59.452547 
L 437.004708 59.440984 
L 438.431912 60.514392 
L 439.859117 61.401552 
L 442.713525 64.50079 
L 444.14073 64.472951 
L 445.567934 62.026178 
L 446.995138 59.06875 
L 448.422343 57.83555 
L 449.849547 58.282566 
L 451.276752 59.949204 
L 452.703956 58.262443 
L 454.13116 59.177065 
L 455.558365 60.553567 
L 456.985569 61.331828 
L 458.412773 61.020848 
L 459.839978 62.946359 
L 461.267182 62.848306 
L 462.694387 62.389639 
L 464.121591 62.479073 
L 465.548795 60.659397 
L 466.976 59.757739 
L 468.403204 59.659303 
L 469.830408 56.720524 
L 471.257613 57.729848 
L 474.112022 57.288568 
L 475.539226 57.343472 
L 476.96643 56.559078 
L 478.393635 56.107039 
L 479.820839 56.582472 
L 481.248043 59.37742 
L 482.675248 62.72407 
L 484.102452 61.675687 
L 485.529657 60.93216 
L 486.956861 61.369955 
L 488.384065 60.607987 
L 489.81127 57.19467 
L 491.238474 57.810631 
L 492.665678 56.759846 
L 494.092883 59.457477 
L 495.520087 59.939093 
L 496.947292 59.976434 
L 498.374496 59.892747 
L 499.8017 59.684784 
L 501.228905 58.089435 
L 502.656109 56.808367 
L 504.083313 56.507789 
L 505.510518 57.63393 
L 506.937722 56.72202 
L 508.364927 54.3921 
L 509.792131 55.609016 
L 511.219335 55.870924 
L 512.64654 53.971883 
L 514.073744 54.202423 
L 515.500948 56.715699 
L 516.928153 56.956868 
L 518.355357 57.025007 
L 519.782562 56.560513 
L 521.209766 58.790268 
L 522.63697 59.711955 
L 524.064175 59.119447 
L 525.491379 57.717773 
L 526.918583 55.970261 
L 529.772992 55.064564 
L 531.200197 54.027035 
L 532.627401 54.406946 
L 534.054605 56.003006 
L 535.48181 55.695795 
L 536.909014 55.659518 
L 538.336218 54.48139 
L 539.763423 54.303824 
L 541.190627 53.170782 
L 542.617832 53.667813 
L 544.045036 53.425203 
L 545.47224 53.852107 
L 546.899445 51.732496 
L 548.326649 50.709253 
L 549.753853 51.467765 
L 552.608262 52.656979 
L 555.462671 53.149576 
L 556.889875 51.850679 
L 558.31708 53.252337 
L 559.744284 54.158393 
L 562.598693 55.650578 
L 564.025897 56.274664 
L 565.453102 57.224292 
L 566.880306 57.446376 
L 569.734715 57.669931 
L 571.161919 59.72552 
L 572.589123 58.350069 
L 574.016328 58.035294 
L 575.443532 58.156842 
L 576.870737 60.212491 
L 578.297941 63.323892 
L 579.725145 63.409338 
L 581.15235 61.159178 
L 584.006758 60.2226 
L 585.433963 59.078095 
L 586.861167 58.677498 
L 588.288371 57.855455 
L 589.715576 59.782921 
L 591.14278 59.982388 
L 592.569985 59.878699 
L 593.997189 59.320561 
L 596.851598 56.32139 
L 598.278802 57.452184 
L 599.706006 58.835018 
L 601.133211 61.211517 
L 602.560415 61.586261 
L 603.98762 61.449855 
L 605.414824 60.742661 
L 606.842028 60.732537 
L 608.269233 58.366009 
L 609.696437 60.272742 
L 611.123641 59.154765 
L 612.550846 59.269117 
L 613.97805 57.664199 
L 615.405255 58.269485 
L 616.832459 59.534919 
L 618.259663 58.851975 
L 621.114072 58.799 
L 622.541276 58.2324 
L 623.968481 59.342096 
L 625.395685 59.801487 
L 628.250094 58.372721 
L 629.677298 55.734868 
L 631.104503 54.663549 
L 632.531707 55.980331 
L 633.958911 56.148039 
L 635.386116 56.886629 
L 636.81332 59.104441 
L 638.240525 58.571152 
L 641.094933 59.931896 
L 642.522138 60.28951 
L 643.949342 60.419566 
L 645.376546 59.662648 
L 646.803751 59.550375 
L 649.65816 58.055529 
L 651.085364 59.293001 
L 653.939773 55.675612 
L 653.939773 55.675612 
" clip-path="url(#p870b15bc73)" style="fill: none; stroke: #2ca02c; stroke-width: 1.2; stroke-linecap: square"/>
   </g>
   <g id="line2d_34">
    <path d="M 84.485227 206.189883 
L 85.912432 204.359003 
L 87.339636 199.496534 
L 88.76684 195.193327 
L 90.194045 186.007336 
L 91.621249 177.792145 
L 93.048454 168.036095 
L 94.475658 159.979583 
L 95.902862 154.42566 
L 97.330067 147.843956 
L 98.757271 139.039977 
L 103.038884 117.319945 
L 104.466089 113.250335 
L 105.893293 110.13061 
L 107.320497 103.872974 
L 108.747702 101.574622 
L 110.174906 96.722152 
L 111.60211 92.46571 
L 113.029315 89.243887 
L 114.456519 87.668829 
L 115.883724 83.90647 
L 117.310928 80.75349 
L 120.165337 74.942153 
L 121.592541 73.033709 
L 123.019745 72.556996 
L 124.44695 71.458886 
L 125.874154 68.888711 
L 127.301359 68.556802 
L 128.728563 66.723023 
L 130.155767 65.100249 
L 131.582972 65.953811 
L 133.010176 64.286971 
L 134.43738 64.041749 
L 135.864585 59.772326 
L 137.291789 58.211081 
L 138.718994 57.491237 
L 140.146198 59.317214 
L 141.573402 56.907615 
L 143.000607 56.874968 
L 144.427811 57.756689 
L 145.855015 56.67692 
L 147.28222 56.710741 
L 148.709424 57.985397 
L 150.136629 58.975957 
L 151.563833 57.523524 
L 152.991037 58.031758 
L 154.418242 55.326615 
L 155.845446 56.23356 
L 157.27265 55.524062 
L 158.699855 55.100893 
L 160.127059 55.204415 
L 161.554263 56.091484 
L 162.981468 56.210196 
L 164.408672 59.541142 
L 165.835877 59.663402 
L 167.263081 61.680207 
L 168.690285 60.59208 
L 170.11749 60.57379 
L 171.544694 59.436313 
L 172.971898 60.941644 
L 174.399103 60.814621 
L 175.826307 62.120374 
L 177.253512 60.902529 
L 178.680716 59.14751 
L 180.10792 57.98353 
L 181.535125 55.611179 
L 182.962329 56.528404 
L 184.389533 55.364822 
L 185.816738 53.148182 
L 187.243942 55.059418 
L 188.671147 53.973713 
L 190.098351 54.158817 
L 191.525555 53.663974 
L 192.95276 52.273838 
L 194.379964 50.603931 
L 195.807168 50.228729 
L 197.234373 51.240328 
L 198.661577 53.799403 
L 200.088782 50.940788 
L 201.515986 52.221224 
L 202.94319 53.140896 
L 204.370395 54.522364 
L 205.797599 51.905613 
L 207.224803 51.313958 
L 208.652008 51.714791 
L 210.079212 51.499204 
L 212.933621 53.743621 
L 214.360825 56.058369 
L 215.78803 54.300505 
L 217.215234 53.725794 
L 220.069643 53.6753 
L 221.496847 54.39543 
L 222.924052 54.982274 
L 224.351256 56.869383 
L 228.632869 55.504568 
L 230.060073 56.631468 
L 232.914482 55.784563 
L 234.341687 56.54196 
L 235.768891 57.500701 
L 237.196095 58.021046 
L 238.6233 58.327203 
L 240.050504 59.263345 
L 241.477708 55.952638 
L 242.904913 56.49193 
L 244.332117 58.913307 
L 245.759322 59.307069 
L 247.186526 58.642373 
L 248.61373 58.311147 
L 250.040935 56.771155 
L 251.468139 57.436971 
L 252.895343 57.663141 
L 254.322548 55.000724 
L 255.749752 55.566209 
L 257.176957 55.965745 
L 258.604161 54.152368 
L 260.031365 53.387422 
L 261.45857 54.550938 
L 264.312978 55.290094 
L 265.740183 52.203999 
L 267.167387 51.127112 
L 268.594592 48.838145 
L 270.021796 49.215833 
L 271.449 50.426832 
L 272.876205 54.436085 
L 274.303409 57.039575 
L 275.730613 55.279993 
L 277.157818 54.435886 
L 278.585022 56.326446 
L 281.439431 57.019949 
L 282.866635 57.590834 
L 284.29384 59.275927 
L 285.721044 57.279557 
L 287.148248 59.437964 
L 288.575453 59.105121 
L 290.002657 58.486267 
L 291.429862 55.522997 
L 292.857066 55.913363 
L 294.28427 57.44416 
L 295.711475 57.826054 
L 297.138679 60.466274 
L 298.565883 61.610968 
L 299.993088 62.338739 
L 301.420292 61.028507 
L 302.847497 59.316974 
L 304.274701 60.470634 
L 305.701905 58.752136 
L 307.12911 58.356003 
L 308.556314 60.460775 
L 309.983518 58.137399 
L 311.410723 58.248877 
L 312.837927 57.894663 
L 314.265132 58.508197 
L 315.692336 58.632422 
L 317.11954 58.367848 
L 318.546745 57.552897 
L 319.973949 55.902726 
L 321.401153 54.951051 
L 322.828358 57.340953 
L 324.255562 57.862889 
L 325.682767 57.310701 
L 327.109971 58.412607 
L 328.537175 59.881574 
L 331.391584 59.923727 
L 332.818788 60.228124 
L 334.245993 57.846836 
L 335.673197 59.385127 
L 337.100402 58.664357 
L 338.527606 59.557243 
L 339.95481 58.818866 
L 341.382015 56.707408 
L 342.809219 56.675134 
L 345.663628 54.020395 
L 347.090832 54.585049 
L 348.518037 52.783803 
L 349.945241 52.498705 
L 351.372445 54.051913 
L 352.79965 56.351374 
L 354.226854 56.662619 
L 355.654058 53.723983 
L 357.081263 53.857544 
L 358.508467 53.079803 
L 359.935672 55.135272 
L 361.362876 54.973874 
L 362.79008 53.376587 
L 364.217285 53.354186 
L 365.644489 53.528496 
L 367.071693 53.18996 
L 368.498898 51.908446 
L 369.926102 51.984926 
L 371.353307 51.71304 
L 372.780511 53.600621 
L 374.207715 53.991793 
L 375.63492 55.022524 
L 377.062124 57.492387 
L 378.489328 57.554041 
L 379.916533 56.869122 
L 381.343737 57.444553 
L 382.770942 58.816049 
L 384.198146 57.86612 
L 385.62535 57.723163 
L 387.052555 57.354404 
L 388.479759 55.47451 
L 389.906963 54.776516 
L 391.334168 55.019027 
L 392.761372 56.509153 
L 394.188577 55.503341 
L 395.615781 55.033608 
L 397.042985 55.773898 
L 398.47019 58.143051 
L 399.897394 59.329654 
L 401.324598 58.248851 
L 402.751803 57.881429 
L 404.179007 57.629182 
L 405.606212 58.882229 
L 407.033416 59.641374 
L 408.46062 61.860697 
L 409.887825 62.401339 
L 411.315029 61.652294 
L 412.742233 63.070948 
L 414.169438 62.353064 
L 415.596642 59.763236 
L 418.451051 56.010008 
L 419.878255 56.507535 
L 421.30546 55.075804 
L 422.732664 54.7207 
L 424.159868 53.532855 
L 425.587073 54.643504 
L 427.014277 53.70566 
L 428.441482 55.57431 
L 429.868686 56.2264 
L 431.29589 56.309289 
L 432.723095 57.67339 
L 434.150299 56.488741 
L 435.577503 55.475531 
L 437.004708 56.060225 
L 438.431912 54.476272 
L 439.859117 56.370069 
L 441.286321 56.324003 
L 442.713525 55.652701 
L 444.14073 57.559229 
L 445.567934 56.778058 
L 446.995138 56.228162 
L 448.422343 56.952152 
L 449.849547 57.082622 
L 452.703956 58.80524 
L 454.13116 59.237048 
L 455.558365 59.38645 
L 456.985569 58.142418 
L 458.412773 58.494833 
L 459.839978 58.658384 
L 461.267182 58.992358 
L 462.694387 58.342327 
L 464.121591 59.189038 
L 465.548795 61.167131 
L 466.976 62.902878 
L 468.403204 62.481404 
L 471.257613 63.636579 
L 472.684817 62.314862 
L 474.112022 60.777841 
L 475.539226 59.432819 
L 476.96643 59.342114 
L 478.393635 56.531291 
L 479.820839 57.085645 
L 481.248043 55.386374 
L 482.675248 55.707802 
L 484.102452 56.233734 
L 485.529657 55.254604 
L 486.956861 55.150121 
L 488.384065 55.242005 
L 489.81127 56.357417 
L 491.238474 55.920126 
L 492.665678 56.459069 
L 494.092883 57.369339 
L 496.947292 58.118503 
L 498.374496 58.315372 
L 499.8017 57.61301 
L 501.228905 57.425589 
L 502.656109 58.02676 
L 504.083313 57.61652 
L 505.510518 56.849243 
L 506.937722 60.310494 
L 508.364927 59.834737 
L 509.792131 57.971846 
L 511.219335 57.45343 
L 512.64654 57.286648 
L 514.073744 56.422728 
L 515.500948 55.049192 
L 516.928153 57.307773 
L 518.355357 55.796759 
L 519.782562 53.605552 
L 521.209766 55.217716 
L 522.63697 56.443398 
L 524.064175 54.127486 
L 525.491379 53.308604 
L 526.918583 54.869735 
L 528.345788 54.604477 
L 529.772992 55.059471 
L 531.200197 56.737546 
L 532.627401 56.835073 
L 534.054605 57.824763 
L 535.48181 59.474865 
L 536.909014 61.566339 
L 538.336218 61.56821 
L 539.763423 60.480174 
L 541.190627 59.964478 
L 542.617832 59.060389 
L 544.045036 56.485417 
L 545.47224 57.291583 
L 546.899445 56.649781 
L 548.326649 56.227123 
L 549.753853 56.144819 
L 551.181058 54.490429 
L 552.608262 56.521928 
L 554.035467 56.021026 
L 555.462671 54.841584 
L 556.889875 53.131238 
L 558.31708 51.203534 
L 559.744284 53.258634 
L 561.171488 54.52989 
L 562.598693 54.993841 
L 564.025897 55.276177 
L 565.453102 54.360489 
L 566.880306 54.796814 
L 568.30751 55.637921 
L 569.734715 55.433649 
L 571.161919 54.78673 
L 572.589123 55.257756 
L 574.016328 57.273831 
L 575.443532 56.3671 
L 576.870737 55.060527 
L 579.725145 56.903229 
L 581.15235 56.510214 
L 582.579554 57.664023 
L 584.006758 60.370633 
L 585.433963 60.587228 
L 586.861167 59.468175 
L 588.288371 61.222618 
L 589.715576 60.46244 
L 591.14278 59.175823 
L 592.569985 58.724195 
L 593.997189 58.637367 
L 595.424393 59.169594 
L 596.851598 60.455718 
L 598.278802 59.923766 
L 599.706006 58.515718 
L 601.133211 59.979384 
L 602.560415 60.451659 
L 603.98762 61.822563 
L 605.414824 61.500382 
L 606.842028 62.05653 
L 608.269233 61.372307 
L 609.696437 62.595057 
L 611.123641 62.4641 
L 612.550846 62.940217 
L 613.97805 63.111368 
L 615.405255 62.364896 
L 616.832459 62.761166 
L 618.259663 62.498048 
L 619.686868 63.172265 
L 621.114072 60.977948 
L 622.541276 60.90163 
L 623.968481 60.076437 
L 625.395685 60.359886 
L 628.250094 62.639775 
L 629.677298 62.318143 
L 631.104503 63.400469 
L 632.531707 62.223254 
L 633.958911 61.818084 
L 635.386116 62.911989 
L 636.81332 61.781529 
L 638.240525 62.798574 
L 639.667729 62.037185 
L 641.094933 62.513921 
L 642.522138 61.553251 
L 643.949342 63.433759 
L 645.376546 63.46719 
L 646.803751 64.591084 
L 648.230955 63.39338 
L 651.085364 62.870479 
L 652.512568 63.577003 
L 653.939773 63.388887 
L 653.939773 63.388887 
" clip-path="url(#p870b15bc73)" style="fill: none; stroke: #9b8ac9; stroke-width: 1.2; stroke-linecap: square"/>
   </g>
   <g id="patch_3">
    <path d="M 56.0125 349.8636 
L 56.0125 34.5036 
" style="fill: none; stroke: #000000; stroke-width: 0.8; stroke-linejoin: miter; stroke-linecap: square"/>
   </g>
   <g id="patch_4">
    <path d="M 682.4125 349.8636 
L 682.4125 34.5036 
" style="fill: none; stroke: #000000; stroke-width: 0.8; stroke-linejoin: miter; stroke-linecap: square"/>
   </g>
   <g id="patch_5">
    <path d="M 56.0125 349.8636 
L 682.4125 349.8636 
" style="fill: none; stroke: #000000; stroke-width: 0.8; stroke-linejoin: miter; stroke-linecap: square"/>
   </g>
   <g id="patch_6">
    <path d="M 56.0125 34.5036 
L 682.4125 34.5036 
" style="fill: none; stroke: #000000; stroke-width: 0.8; stroke-linejoin: miter; stroke-linecap: square"/>
   </g>
   <g id="legend_1">
    <g id="patch_7">
     <path d="M 56.0125 31.35 
L 682.4125 31.35 
L 682.4125 7.2 
L 56.0125 7.2 
z
" style="fill: #ffffff; stroke: #808080; stroke-width: 0.8; stroke-linejoin: miter"/>
    </g>
    <g id="line2d_35">
     <path d="M 62.3125 18.4 
L 76.3125 18.4 
L 90.3125 18.4 
" style="fill: none; stroke: #1f77b4; stroke-width: 1.2; stroke-linecap: square"/>
    </g>
    <g id="text_18">
     <!-- GCN-DDQN -->
     <g transform="translate(98.7125 23.3) scale(0.14 -0.14)">
      <defs>
       <path id="SimHei-47" d="M 2850 75 
L 2425 75 
L 2350 425 
Q 2250 275 2037 175 
Q 1825 75 1575 75 
Q 1050 75 637 562 
Q 225 1050 225 2125 
Q 225 3300 600 3875 
Q 975 4450 1625 4450 
Q 2200 4450 2525 4025 
Q 2850 3600 2850 2925 
L 2300 2925 
Q 2300 3450 2125 3712 
Q 1950 3975 1625 3975 
Q 1225 3975 1025 3562 
Q 825 3150 825 2175 
Q 825 1250 1075 900 
Q 1325 550 1650 550 
Q 1975 550 2162 787 
Q 2350 1025 2350 1525 
L 2350 1800 
L 1575 1800 
L 1575 2275 
L 2850 2275 
L 2850 75 
z
" transform="scale(0.015625)"/>
       <path id="SimHei-43" d="M 2975 1825 
Q 2950 875 2575 475 
Q 2200 75 1675 75 
Q 1075 75 650 562 
Q 225 1050 225 2125 
Q 225 3300 637 3875 
Q 1050 4450 1700 4450 
Q 2250 4450 2612 4037 
Q 2975 3625 2950 2875 
L 2400 2875 
Q 2400 3425 2225 3700 
Q 2050 3975 1700 3975 
Q 1300 3975 1062 3562 
Q 825 3150 825 2175 
Q 825 1275 1062 912 
Q 1300 550 1675 550 
Q 1950 550 2175 812 
Q 2400 1075 2400 1825 
L 2975 1825 
z
" transform="scale(0.015625)"/>
       <path id="SimHei-4e" d="M 2850 125 
L 2225 125 
L 850 3225 
L 825 3225 
L 825 125 
L 250 125 
L 250 4400 
L 875 4400 
L 2250 1300 
L 2275 1300 
L 2275 4400 
L 2850 4400 
L 2850 125 
z
" transform="scale(0.015625)"/>
       <path id="SimHei-2d" d="M 2975 2125 
L 125 2125 
L 125 2525 
L 2975 2525 
L 2975 2125 
z
" transform="scale(0.015625)"/>
       <path id="SimHei-44" d="M 2925 2250 
Q 2925 1100 2437 612 
Q 1950 125 1125 125 
L 275 125 
L 275 4400 
L 1125 4400 
Q 2050 4400 2487 3900 
Q 2925 3400 2925 2250 
z
M 2325 2250 
Q 2325 3175 2025 3550 
Q 1725 3925 1125 3925 
L 850 3925 
L 850 600 
L 1125 600 
Q 1725 600 2025 962 
Q 2325 1325 2325 2250 
z
" transform="scale(0.015625)"/>
       <path id="SimHei-51" d="M 2950 2275 
Q 2950 1675 2862 1262 
Q 2775 850 2575 600 
L 2775 225 
L 2375 -200 
L 2150 225 
Q 2050 150 1900 112 
Q 1750 75 1575 75 
Q 925 75 550 587 
Q 175 1100 175 2275 
Q 175 3450 550 3950 
Q 925 4450 1575 4450 
Q 2225 4450 2587 3950 
Q 2950 3450 2950 2275 
z
M 2350 2275 
Q 2350 3325 2125 3650 
Q 1900 3975 1575 3975 
Q 1250 3975 1012 3650 
Q 775 3325 775 2275 
Q 775 1225 1012 887 
Q 1250 550 1575 550 
Q 1700 550 1800 587 
Q 1900 625 1950 675 
L 1550 1450 
L 1900 1875 
L 2250 1200 
Q 2300 1450 2325 1650 
Q 2350 1850 2350 2275 
z
" transform="scale(0.015625)"/>
      </defs>
      <use xlink:href="#SimHei-47"/>
      <use xlink:href="#SimHei-43" transform="translate(50 0)"/>
      <use xlink:href="#SimHei-4e" transform="translate(100 0)"/>
      <use xlink:href="#SimHei-2d" transform="translate(150 0)"/>
      <use xlink:href="#SimHei-44" transform="translate(200 0)"/>
      <use xlink:href="#SimHei-44" transform="translate(250 0)"/>
      <use xlink:href="#SimHei-51" transform="translate(300 0)"/>
      <use xlink:href="#SimHei-4e" transform="translate(350 0)"/>
     </g>
    </g>
    <g id="line2d_36">
     <path d="M 229.1125 18.4 
L 243.1125 18.4 
L 257.1125 18.4 
" style="fill: none; stroke: #ff7f0e; stroke-width: 1.2; stroke-linecap: square"/>
    </g>
    <g id="text_19">
     <!-- GCN-D3QN -->
     <g transform="translate(265.5125 23.3) scale(0.14 -0.14)">
      <use xlink:href="#SimHei-47"/>
      <use xlink:href="#SimHei-43" transform="translate(50 0)"/>
      <use xlink:href="#SimHei-4e" transform="translate(100 0)"/>
      <use xlink:href="#SimHei-2d" transform="translate(150 0)"/>
      <use xlink:href="#SimHei-44" transform="translate(200 0)"/>
      <use xlink:href="#SimHei-33" transform="translate(250 0)"/>
      <use xlink:href="#SimHei-51" transform="translate(300 0)"/>
      <use xlink:href="#SimHei-4e" transform="translate(350 0)"/>
     </g>
    </g>
    <g id="line2d_37">
     <path d="M 395.9125 18.4 
L 409.9125 18.4 
L 423.9125 18.4 
" style="fill: none; stroke: #2ca02c; stroke-width: 1.2; stroke-linecap: square"/>
    </g>
    <g id="text_20">
     <!-- GAT-LSTM-DDQN -->
     <g transform="translate(432.3125 23.3) scale(0.14 -0.14)">
      <defs>
       <path id="SimHei-41" d="M 3075 125 
L 2475 125 
L 2125 1450 
L 1025 1450 
L 675 125 
L 75 125 
L 1325 4450 
L 1825 4450 
L 3075 125 
z
M 2000 1925 
L 1600 3450 
L 1550 3450 
L 1150 1925 
L 2000 1925 
z
" transform="scale(0.015625)"/>
       <path id="SimHei-4c" d="M 2900 125 
L 300 125 
L 300 4400 
L 875 4400 
L 875 600 
L 2900 600 
L 2900 125 
z
" transform="scale(0.015625)"/>
       <path id="SimHei-53" d="M 2900 1325 
Q 2900 750 2537 412 
Q 2175 75 1550 75 
Q 925 75 575 425 
Q 225 775 225 1300 
L 225 1475 
L 800 1475 
L 800 1325 
Q 800 950 1025 750 
Q 1250 550 1550 550 
Q 1950 550 2137 762 
Q 2325 975 2325 1275 
Q 2325 1525 2100 1737 
Q 1875 1950 1450 2125 
Q 850 2350 587 2625 
Q 325 2900 325 3275 
Q 325 3800 687 4125 
Q 1050 4450 1550 4450 
Q 2200 4450 2487 4062 
Q 2775 3675 2775 3225 
L 2200 3225 
Q 2225 3500 2050 3725 
Q 1875 3950 1550 3950 
Q 1250 3950 1075 3787 
Q 900 3625 900 3350 
Q 900 3125 1037 2962 
Q 1175 2800 1750 2575 
Q 2300 2350 2600 2037 
Q 2900 1725 2900 1325 
z
" transform="scale(0.015625)"/>
       <path id="SimHei-4d" d="M 2925 125 
L 2425 125 
L 2425 3175 
L 2375 3175 
L 1775 125 
L 1375 125 
L 775 3175 
L 725 3175 
L 725 125 
L 225 125 
L 225 4400 
L 1000 4400 
L 1550 1575 
L 1600 1575 
L 2150 4400 
L 2925 4400 
L 2925 125 
z
" transform="scale(0.015625)"/>
      </defs>
      <use xlink:href="#SimHei-47"/>
      <use xlink:href="#SimHei-41" transform="translate(50 0)"/>
      <use xlink:href="#SimHei-54" transform="translate(100 0)"/>
      <use xlink:href="#SimHei-2d" transform="translate(150 0)"/>
      <use xlink:href="#SimHei-4c" transform="translate(200 0)"/>
      <use xlink:href="#SimHei-53" transform="translate(250 0)"/>
      <use xlink:href="#SimHei-54" transform="translate(300 0)"/>
      <use xlink:href="#SimHei-4d" transform="translate(350 0)"/>
      <use xlink:href="#SimHei-2d" transform="translate(400 0)"/>
      <use xlink:href="#SimHei-44" transform="translate(450 0)"/>
      <use xlink:href="#SimHei-44" transform="translate(500 0)"/>
      <use xlink:href="#SimHei-51" transform="translate(550 0)"/>
      <use xlink:href="#SimHei-4e" transform="translate(600 0)"/>
     </g>
    </g>
    <g id="line2d_38">
     <path d="M 597.7125 18.4 
L 611.7125 18.4 
L 625.7125 18.4 
" style="fill: none; stroke: #9b8ac9; stroke-width: 1.2; stroke-linecap: square"/>
    </g>
    <g id="text_21">
     <!-- GLDVTO -->
     <g transform="translate(634.1125 23.3) scale(0.14 -0.14)">
      <defs>
       <path id="SimHei-56" d="M 3050 4400 
L 1800 75 
L 1300 75 
L 50 4400 
L 650 4400 
L 1525 1125 
L 1575 1125 
L 2450 4400 
L 3050 4400 
z
" transform="scale(0.015625)"/>
       <path id="SimHei-4f" d="M 2950 2275 
Q 2950 1100 2587 587 
Q 2225 75 1575 75 
Q 925 75 550 587 
Q 175 1100 175 2275 
Q 175 3450 550 3950 
Q 925 4450 1575 4450 
Q 2225 4450 2587 3950 
Q 2950 3450 2950 2275 
z
M 2350 2275 
Q 2350 3325 2125 3650 
Q 1900 3975 1575 3975 
Q 1250 3975 1012 3650 
Q 775 3325 775 2275 
Q 775 1225 1012 887 
Q 1250 550 1575 550 
Q 1900 550 2125 887 
Q 2350 1225 2350 2275 
z
" transform="scale(0.015625)"/>
      </defs>
      <use xlink:href="#SimHei-47"/>
      <use xlink:href="#SimHei-4c" transform="translate(50 0)"/>
      <use xlink:href="#SimHei-44" transform="translate(100 0)"/>
      <use xlink:href="#SimHei-56" transform="translate(150 0)"/>
      <use xlink:href="#SimHei-54" transform="translate(200 0)"/>
      <use xlink:href="#SimHei-4f" transform="translate(250 0)"/>
     </g>
    </g>
   </g>
  </g>
 </g>
 <defs>
  <clipPath id="p870b15bc73">
   <rect x="56.0125" y="34.5036" width="626.4" height="315.36"/>
  </clipPath>
 </defs>
</svg>
