<?xml version="1.0" encoding="utf-8" standalone="no"?>
<!DOCTYPE svg PUBLIC "-//W3C//DTD SVG 1.1//EN"
  "http://www.w3.org/Graphics/SVG/1.1/DTD/svg11.dtd">
<svg xmlns:xlink="http://www.w3.org/1999/xlink" width="689.6125pt" height="391.6261pt" viewBox="0 0 689.6125 391.6261" xmlns="http://www.w3.org/2000/svg" version="1.1">
 <metadata>
  <rdf:RDF xmlns:dc="http://purl.org/dc/elements/1.1/" xmlns:cc="http://creativecommons.org/ns#" xmlns:rdf="http://www.w3.org/1999/02/22-rdf-syntax-ns#">
   <cc:Work>
    <dc:type rdf:resource="http://purl.org/dc/dcmitype/StillImage"/>
    <dc:date>2026-07-09T21:49:23.347320</dc:date>
    <dc:format>image/svg+xml</dc:format>
    <dc:creator>
     <cc:Agent>
      <dc:title>Matplotlib v3.10.7, https://matplotlib.org/</dc:title>
     </cc:Agent>
    </dc:creator>
   </cc:Work>
  </rdf:RDF>
 </metadata>
 <defs>
  <style type="text/css">*{stroke-linejoin: round; stroke-linecap: butt}</style>
 </defs>
 <g id="figure_1">
  <g id="patch_1">
   <path d="M 0 391.6261 
L 689.6125 391.6261 
L 689.6125 0 
L 0 0 
z
" style="fill: #ffffff"/>
  </g>
  <g id="axes_1">
   <g id="patch_2">
    <path d="M 56.0125 349.8636 
L 682.4125 349.8636 
L 682.4125 34.5036 
L 56.0125 34.5036 
z
" style="fill: #ffffff"/>
   </g>
   <g id="matplotlib.axis_1">
    <g id="xtick_1">
     <g id="line2d_1">
      <path d="M 84.485227 349.8636 
L 84.485227 34.5036 
" clip-path="url(#p60ec411c95)" style="fill: none; stroke-dasharray: 2.22,0.96; stroke-dashoffset: 0; stroke: #b0b0b0; stroke-opacity: 0.25; stroke-width: 0.6"/>
     </g>
     <g id="line2d_2">
      <defs>
       <path id="me864ded2fe" d="M 0 0 
L 0 3.5 
" style="stroke: #000000; stroke-width: 0.8"/>
      </defs>
      <g>
       <use xlink:href="#me864ded2fe" x="84.485227" y="349.8636" style="stroke: #000000; stroke-width: 0.8"/>
      </g>
     </g>
     <g id="text_1">
      <!-- 0 -->
      <g transform="translate(81.485227 365.1136) scale(0.12 -0.12)">
       <defs>
        <path id="SimHei-30" d="M 225 2537 
Q 250 3200 412 3587 
Q 575 3975 875 4225 
Q 1175 4475 1612 4475 
Q 2050 4475 2375 4112 
Q 2700 3750 2800 3200 
Q 2900 2650 2862 1937 
Q 2825 1225 2612 775 
Q 2400 325 1975 150 
Q 1550 -25 1125 187 
Q 700 400 525 750 
Q 350 1100 275 1487 
Q 200 1875 225 2537 
z
M 750 2687 
Q 675 2000 800 1462 
Q 925 925 1212 700 
Q 1500 475 1800 612 
Q 2100 750 2237 1162 
Q 2375 1575 2375 2062 
Q 2375 2550 2337 2950 
Q 2300 3350 2112 3675 
Q 1925 4000 1612 4012 
Q 1300 4025 1062 3700 
Q 825 3375 750 2687 
z
" transform="scale(0.015625)"/>
       </defs>
       <use xlink:href="#SimHei-30"/>
      </g>
     </g>
    </g>
    <g id="xtick_2">
     <g id="line2d_3">
      <path d="M 155.845446 349.8636 
L 155.845446 34.5036 
" clip-path="url(#p60ec411c95)" style="fill: none; stroke-dasharray: 2.22,0.96; stroke-dashoffset: 0; stroke: #b0b0b0; stroke-opacity: 0.25; stroke-width: 0.6"/>
     </g>
     <g id="line2d_4">
      <g>
       <use xlink:href="#me864ded2fe" x="155.845446" y="349.8636" style="stroke: #000000; stroke-width: 0.8"/>
      </g>
     </g>
     <g id="text_2">
      <!-- 50 -->
      <g transform="translate(149.845446 365.1136) scale(0.12 -0.12)">
       <defs>
        <path id="SimHei-35" d="M 550 1325 
Q 725 650 1150 575 
Q 1575 500 1837 662 
Q 2100 825 2212 1087 
Q 2325 1350 2312 1675 
Q 2300 2000 2137 2225 
Q 1975 2450 1725 2525 
Q 1475 2600 1162 2525 
Q 850 2450 650 2175 
L 225 2225 
Q 275 2375 700 4375 
L 2675 4375 
L 2675 3925 
L 1075 3925 
Q 950 3250 825 2850 
Q 1200 3025 1525 3012 
Q 1850 3000 2150 2862 
Q 2450 2725 2587 2487 
Q 2725 2250 2787 2012 
Q 2850 1775 2837 1500 
Q 2825 1225 2725 937 
Q 2625 650 2425 462 
Q 2225 275 1937 162 
Q 1650 50 1275 75 
Q 900 100 562 350 
Q 225 600 100 1200 
L 550 1325 
z
" transform="scale(0.015625)"/>
       </defs>
       <use xlink:href="#SimHei-35"/>
       <use xlink:href="#SimHei-30" transform="translate(50 0)"/>
      </g>
     </g>
    </g>
    <g id="xtick_3">
     <g id="line2d_5">
      <path d="M 227.205665 349.8636 
L 227.205665 34.5036 
" clip-path="url(#p60ec411c95)" style="fill: none; stroke-dasharray: 2.22,0.96; stroke-dashoffset: 0; stroke: #b0b0b0; stroke-opacity: 0.25; stroke-width: 0.6"/>
     </g>
     <g id="line2d_6">
      <g>
       <use xlink:href="#me864ded2fe" x="227.205665" y="349.8636" style="stroke: #000000; stroke-width: 0.8"/>
      </g>
     </g>
     <g id="text_3">
      <!-- 100 -->
      <g transform="translate(218.205665 365.1136) scale(0.12 -0.12)">
       <defs>
        <path id="SimHei-31" d="M 1400 3600 
Q 1075 3275 575 2975 
L 575 3450 
Q 1200 3875 1600 4450 
L 1900 4450 
L 1900 150 
L 1400 150 
L 1400 3600 
z
" transform="scale(0.015625)"/>
       </defs>
       <use xlink:href="#SimHei-31"/>
       <use xlink:href="#SimHei-30" transform="translate(50 0)"/>
       <use xlink:href="#SimHei-30" transform="translate(100 0)"/>
      </g>
     </g>
    </g>
    <g id="xtick_4">
     <g id="line2d_7">
      <path d="M 298.565883 349.8636 
L 298.565883 34.5036 
" clip-path="url(#p60ec411c95)" style="fill: none; stroke-dasharray: 2.22,0.96; stroke-dashoffset: 0; stroke: #b0b0b0; stroke-opacity: 0.25; stroke-width: 0.6"/>
     </g>
     <g id="line2d_8">
      <g>
       <use xlink:href="#me864ded2fe" x="298.565883" y="349.8636" style="stroke: #000000; stroke-width: 0.8"/>
      </g>
     </g>
     <g id="text_4">
      <!-- 150 -->
      <g transform="translate(289.565883 365.1136) scale(0.12 -0.12)">
       <use xlink:href="#SimHei-31"/>
       <use xlink:href="#SimHei-35" transform="translate(50 0)"/>
       <use xlink:href="#SimHei-30" transform="translate(100 0)"/>
      </g>
     </g>
    </g>
    <g id="xtick_5">
     <g id="line2d_9">
      <path d="M 369.926102 349.8636 
L 369.926102 34.5036 
" clip-path="url(#p60ec411c95)" style="fill: none; stroke-dasharray: 2.22,0.96; stroke-dashoffset: 0; stroke: #b0b0b0; stroke-opacity: 0.25; stroke-width: 0.6"/>
     </g>
     <g id="line2d_10">
      <g>
       <use xlink:href="#me864ded2fe" x="369.926102" y="349.8636" style="stroke: #000000; stroke-width: 0.8"/>
      </g>
     </g>
     <g id="text_5">
      <!-- 200 -->
      <g transform="translate(360.926102 365.1136) scale(0.12 -0.12)">
       <defs>
        <path id="SimHei-32" d="M 300 250 
Q 325 625 650 925 
Q 975 1225 1475 1862 
Q 1975 2500 2125 2850 
Q 2275 3200 2237 3450 
Q 2200 3700 2000 3862 
Q 1800 4025 1537 4000 
Q 1275 3975 1037 3800 
Q 800 3625 675 3275 
L 200 3350 
Q 400 3925 712 4187 
Q 1025 4450 1450 4475 
Q 1700 4500 1900 4462 
Q 2100 4425 2312 4287 
Q 2525 4150 2662 3875 
Q 2800 3600 2762 3212 
Q 2725 2825 2375 2287 
Q 2025 1750 1025 600 
L 2825 600 
L 2825 150 
L 300 150 
L 300 250 
z
" transform="scale(0.015625)"/>
       </defs>
       <use xlink:href="#SimHei-32"/>
       <use xlink:href="#SimHei-30" transform="translate(50 0)"/>
       <use xlink:href="#SimHei-30" transform="translate(100 0)"/>
      </g>
     </g>
    </g>
    <g id="xtick_6">
     <g id="line2d_11">
      <path d="M 441.286321 349.8636 
L 441.286321 34.5036 
" clip-path="url(#p60ec411c95)" style="fill: none; stroke-dasharray: 2.22,0.96; stroke-dashoffset: 0; stroke: #b0b0b0; stroke-opacity: 0.25; stroke-width: 0.6"/>
     </g>
     <g id="line2d_12">
      <g>
       <use xlink:href="#me864ded2fe" x="441.286321" y="349.8636" style="stroke: #000000; stroke-width: 0.8"/>
      </g>
     </g>
     <g id="text_6">
      <!-- 250 -->
      <g transform="translate(432.286321 365.1136) scale(0.12 -0.12)">
       <use xlink:href="#SimHei-32"/>
       <use xlink:href="#SimHei-35" transform="translate(50 0)"/>
       <use xlink:href="#SimHei-30" transform="translate(100 0)"/>
      </g>
     </g>
    </g>
    <g id="xtick_7">
     <g id="line2d_13">
      <path d="M 512.64654 349.8636 
L 512.64654 34.5036 
" clip-path="url(#p60ec411c95)" style="fill: none; stroke-dasharray: 2.22,0.96; stroke-dashoffset: 0; stroke: #b0b0b0; stroke-opacity: 0.25; stroke-width: 0.6"/>
     </g>
     <g id="line2d_14">
      <g>
       <use xlink:href="#me864ded2fe" x="512.64654" y="349.8636" style="stroke: #000000; stroke-width: 0.8"/>
      </g>
     </g>
     <g id="text_7">
      <!-- 300 -->
      <g transform="translate(503.64654 365.1136) scale(0.12 -0.12)">
       <defs>
        <path id="SimHei-33" d="M 250 1225 
L 700 1300 
Q 800 975 1025 762 
Q 1250 550 1587 562 
Q 1925 575 2125 837 
Q 2325 1100 2300 1437 
Q 2275 1775 2037 1962 
Q 1800 2150 1275 2225 
L 1275 2550 
Q 1800 2600 2037 2825 
Q 2275 3050 2250 3412 
Q 2225 3775 1925 3937 
Q 1625 4100 1287 3975 
Q 950 3850 750 3275 
L 300 3350 
Q 450 3800 712 4100 
Q 975 4400 1425 4450 
Q 1875 4500 2212 4337 
Q 2550 4175 2687 3837 
Q 2825 3500 2725 3100 
Q 2625 2700 2150 2400 
Q 2500 2250 2687 1950 
Q 2875 1650 2812 1162 
Q 2750 675 2375 375 
Q 2000 75 1525 87 
Q 1050 100 700 387 
Q 350 675 250 1225 
z
" transform="scale(0.015625)"/>
       </defs>
       <use xlink:href="#SimHei-33"/>
       <use xlink:href="#SimHei-30" transform="translate(50 0)"/>
       <use xlink:href="#SimHei-30" transform="translate(100 0)"/>
      </g>
     </g>
    </g>
    <g id="xtick_8">
     <g id="line2d_15">
      <path d="M 584.006758 349.8636 
L 584.006758 34.5036 
" clip-path="url(#p60ec411c95)" style="fill: none; stroke-dasharray: 2.22,0.96; stroke-dashoffset: 0; stroke: #b0b0b0; stroke-opacity: 0.25; stroke-width: 0.6"/>
     </g>
     <g id="line2d_16">
      <g>
       <use xlink:href="#me864ded2fe" x="584.006758" y="349.8636" style="stroke: #000000; stroke-width: 0.8"/>
      </g>
     </g>
     <g id="text_8">
      <!-- 350 -->
      <g transform="translate(575.006758 365.1136) scale(0.12 -0.12)">
       <use xlink:href="#SimHei-33"/>
       <use xlink:href="#SimHei-35" transform="translate(50 0)"/>
       <use xlink:href="#SimHei-30" transform="translate(100 0)"/>
      </g>
     </g>
    </g>
    <g id="xtick_9">
     <g id="line2d_17">
      <path d="M 655.366977 349.8636 
L 655.366977 34.5036 
" clip-path="url(#p60ec411c95)" style="fill: none; stroke-dasharray: 2.22,0.96; stroke-dashoffset: 0; stroke: #b0b0b0; stroke-opacity: 0.25; stroke-width: 0.6"/>
     </g>
     <g id="line2d_18">
      <g>
       <use xlink:href="#me864ded2fe" x="655.366977" y="349.8636" style="stroke: #000000; stroke-width: 0.8"/>
      </g>
     </g>
     <g id="text_9">
      <!-- 400 -->
      <g transform="translate(646.366977 365.1136) scale(0.12 -0.12)">
       <defs>
        <path id="SimHei-34" d="M 2000 1100 
L 75 1100 
L 75 1525 
L 2100 4450 
L 2475 4450 
L 2475 1525 
L 3075 1525 
L 3075 1100 
L 2475 1100 
L 2475 150 
L 2000 150 
L 2000 1100 
z
M 2000 1525 
L 2000 3500 
L 600 1525 
L 2000 1525 
z
" transform="scale(0.015625)"/>
       </defs>
       <use xlink:href="#SimHei-34"/>
       <use xlink:href="#SimHei-30" transform="translate(50 0)"/>
       <use xlink:href="#SimHei-30" transform="translate(100 0)"/>
      </g>
     </g>
    </g>
    <g id="text_10">
     <!-- Episode -->
     <g transform="translate(339.4625 382.3011) scale(0.17 -0.17)">
      <defs>
       <path id="SimHei-45" d="M 2900 125 
L 350 125 
L 350 4400 
L 2775 4400 
L 2775 3925 
L 925 3925 
L 925 2600 
L 2625 2600 
L 2625 2125 
L 925 2125 
L 925 600 
L 2900 600 
L 2900 125 
z
" transform="scale(0.015625)"/>
       <path id="SimHei-70" d="M 2825 1525 
Q 2825 800 2475 425 
Q 2125 50 1625 50 
Q 1350 50 1150 162 
Q 950 275 800 500 
L 800 -800 
L 300 -800 
L 300 2925 
L 800 2925 
L 800 2550 
Q 950 2775 1150 2875 
Q 1350 2975 1625 2975 
Q 2125 2975 2475 2612 
Q 2825 2250 2825 1525 
z
M 2275 1525 
Q 2275 2000 2087 2262 
Q 1900 2525 1525 2525 
Q 1225 2525 1012 2262 
Q 800 2000 800 1525 
Q 800 1050 1012 775 
Q 1225 500 1525 500 
Q 1900 500 2087 775 
Q 2275 1050 2275 1525 
z
" transform="scale(0.015625)"/>
       <path id="SimHei-69" d="M 1800 3725 
L 1300 3725 
L 1300 4375 
L 1800 4375 
L 1800 3725 
z
M 1800 125 
L 1300 125 
L 1300 2925 
L 1800 2925 
L 1800 125 
z
" transform="scale(0.015625)"/>
       <path id="SimHei-73" d="M 2750 900 
Q 2750 500 2437 287 
Q 2125 75 1650 75 
Q 1050 75 725 312 
Q 400 550 400 1000 
L 900 1000 
Q 900 700 1112 600 
Q 1325 500 1625 500 
Q 1925 500 2075 612 
Q 2225 725 2225 900 
Q 2225 1025 2100 1150 
Q 1975 1275 1475 1350 
Q 900 1425 687 1637 
Q 475 1850 475 2200 
Q 475 2500 762 2737 
Q 1050 2975 1600 2975 
Q 2100 2975 2387 2750 
Q 2675 2525 2675 2150 
L 2175 2150 
Q 2175 2375 2012 2462 
Q 1850 2550 1600 2550 
Q 1275 2550 1137 2437 
Q 1000 2325 1000 2175 
Q 1000 2000 1125 1900 
Q 1250 1800 1650 1750 
Q 2300 1650 2525 1437 
Q 2750 1225 2750 900 
z
" transform="scale(0.015625)"/>
       <path id="SimHei-6f" d="M 2925 1525 
Q 2925 875 2525 475 
Q 2125 75 1575 75 
Q 1025 75 625 475 
Q 225 875 225 1525 
Q 225 2175 625 2575 
Q 1025 2975 1575 2975 
Q 2125 2975 2525 2575 
Q 2925 2175 2925 1525 
z
M 2375 1525 
Q 2375 2025 2125 2275 
Q 1875 2525 1575 2525 
Q 1275 2525 1025 2275 
Q 775 2025 775 1525 
Q 775 1025 1025 775 
Q 1275 525 1575 525 
Q 1875 525 2125 775 
Q 2375 1025 2375 1525 
z
" transform="scale(0.015625)"/>
       <path id="SimHei-64" d="M 2750 125 
L 2250 125 
L 2250 500 
Q 2100 275 1900 175 
Q 1700 75 1425 75 
Q 925 75 575 437 
Q 225 800 225 1525 
Q 225 2250 575 2625 
Q 925 3000 1425 3000 
Q 1700 3000 1900 2887 
Q 2100 2775 2250 2550 
L 2250 4400 
L 2750 4400 
L 2750 125 
z
M 2250 1525 
Q 2250 2000 2037 2275 
Q 1825 2550 1525 2550 
Q 1150 2550 962 2275 
Q 775 2000 775 1525 
Q 775 1050 962 787 
Q 1150 525 1525 525 
Q 1825 525 2037 787 
Q 2250 1050 2250 1525 
z
" transform="scale(0.015625)"/>
       <path id="SimHei-65" d="M 2850 1075 
Q 2800 625 2450 350 
Q 2100 75 1625 75 
Q 1025 75 637 462 
Q 250 850 250 1525 
Q 250 2200 637 2587 
Q 1025 2975 1625 2975 
Q 2150 2975 2487 2637 
Q 2825 2300 2825 1525 
L 800 1525 
Q 800 975 1037 750 
Q 1275 525 1625 525 
Q 1900 525 2075 662 
Q 2250 800 2300 1075 
L 2850 1075 
z
M 2250 1925 
Q 2200 2275 2025 2412 
Q 1850 2550 1575 2550 
Q 1325 2550 1125 2412 
Q 925 2275 825 1925 
L 2250 1925 
z
" transform="scale(0.015625)"/>
      </defs>
      <use xlink:href="#SimHei-45"/>
      <use xlink:href="#SimHei-70" transform="translate(50 0)"/>
      <use xlink:href="#SimHei-69" transform="translate(100 0)"/>
      <use xlink:href="#SimHei-73" transform="translate(150 0)"/>
      <use xlink:href="#SimHei-6f" transform="translate(200 0)"/>
      <use xlink:href="#SimHei-64" transform="translate(250 0)"/>
      <use xlink:href="#SimHei-65" transform="translate(300 0)"/>
     </g>
    </g>
   </g>
   <g id="matplotlib.axis_2">
    <g id="ytick_1">
     <g id="line2d_19">
      <path d="M 56.0125 333.547179 
L 682.4125 333.547179 
" clip-path="url(#p60ec411c95)" style="fill: none; stroke-dasharray: 2.22,0.96; stroke-dashoffset: 0; stroke: #b0b0b0; stroke-opacity: 0.25; stroke-width: 0.6"/>
     </g>
     <g id="line2d_20">
      <defs>
       <path id="m9f697a7741" d="M 0 0 
L -3.5 0 
" style="stroke: #000000; stroke-width: 0.8"/>
      </defs>
      <g>
       <use xlink:href="#m9f697a7741" x="56.0125" y="333.547179" style="stroke: #000000; stroke-width: 0.8"/>
      </g>
     </g>
     <g id="text_11">
      <!-- 0.05 -->
      <g transform="translate(25.0125 337.672179) scale(0.12 -0.12)">
       <defs>
        <path id="SimHei-2e" d="M 1075 125 
L 500 125 
L 500 675 
L 1075 675 
L 1075 125 
z
" transform="scale(0.015625)"/>
       </defs>
       <use xlink:href="#SimHei-30"/>
       <use xlink:href="#SimHei-2e" transform="translate(50 0)"/>
       <use xlink:href="#SimHei-30" transform="translate(100 0)"/>
       <use xlink:href="#SimHei-35" transform="translate(150 0)"/>
      </g>
     </g>
    </g>
    <g id="ytick_2">
     <g id="line2d_21">
      <path d="M 56.0125 286.453951 
L 682.4125 286.453951 
" clip-path="url(#p60ec411c95)" style="fill: none; stroke-dasharray: 2.22,0.96; stroke-dashoffset: 0; stroke: #b0b0b0; stroke-opacity: 0.25; stroke-width: 0.6"/>
     </g>
     <g id="line2d_22">
      <g>
       <use xlink:href="#m9f697a7741" x="56.0125" y="286.453951" style="stroke: #000000; stroke-width: 0.8"/>
      </g>
     </g>
     <g id="text_12">
      <!-- 0.10 -->
      <g transform="translate(25.0125 290.578951) scale(0.12 -0.12)">
       <use xlink:href="#SimHei-30"/>
       <use xlink:href="#SimHei-2e" transform="translate(50 0)"/>
       <use xlink:href="#SimHei-31" transform="translate(100 0)"/>
       <use xlink:href="#SimHei-30" transform="translate(150 0)"/>
      </g>
     </g>
    </g>
    <g id="ytick_3">
     <g id="line2d_23">
      <path d="M 56.0125 239.360722 
L 682.4125 239.360722 
" clip-path="url(#p60ec411c95)" style="fill: none; stroke-dasharray: 2.22,0.96; stroke-dashoffset: 0; stroke: #b0b0b0; stroke-opacity: 0.25; stroke-width: 0.6"/>
     </g>
     <g id="line2d_24">
      <g>
       <use xlink:href="#m9f697a7741" x="56.0125" y="239.360722" style="stroke: #000000; stroke-width: 0.8"/>
      </g>
     </g>
     <g id="text_13">
      <!-- 0.15 -->
      <g transform="translate(25.0125 243.485722) scale(0.12 -0.12)">
       <use xlink:href="#SimHei-30"/>
       <use xlink:href="#SimHei-2e" transform="translate(50 0)"/>
       <use xlink:href="#SimHei-31" transform="translate(100 0)"/>
       <use xlink:href="#SimHei-35" transform="translate(150 0)"/>
      </g>
     </g>
    </g>
    <g id="ytick_4">
     <g id="line2d_25">
      <path d="M 56.0125 192.267494 
L 682.4125 192.267494 
" clip-path="url(#p60ec411c95)" style="fill: none; stroke-dasharray: 2.22,0.96; stroke-dashoffset: 0; stroke: #b0b0b0; stroke-opacity: 0.25; stroke-width: 0.6"/>
     </g>
     <g id="line2d_26">
      <g>
       <use xlink:href="#m9f697a7741" x="56.0125" y="192.267494" style="stroke: #000000; stroke-width: 0.8"/>
      </g>
     </g>
     <g id="text_14">
      <!-- 0.20 -->
      <g transform="translate(25.0125 196.392494) scale(0.12 -0.12)">
       <use xlink:href="#SimHei-30"/>
       <use xlink:href="#SimHei-2e" transform="translate(50 0)"/>
       <use xlink:href="#SimHei-32" transform="translate(100 0)"/>
       <use xlink:href="#SimHei-30" transform="translate(150 0)"/>
      </g>
     </g>
    </g>
    <g id="ytick_5">
     <g id="line2d_27">
      <path d="M 56.0125 145.174266 
L 682.4125 145.174266 
" clip-path="url(#p60ec411c95)" style="fill: none; stroke-dasharray: 2.22,0.96; stroke-dashoffset: 0; stroke: #b0b0b0; stroke-opacity: 0.25; stroke-width: 0.6"/>
     </g>
     <g id="line2d_28">
      <g>
       <use xlink:href="#m9f697a7741" x="56.0125" y="145.174266" style="stroke: #000000; stroke-width: 0.8"/>
      </g>
     </g>
     <g id="text_15">
      <!-- 0.25 -->
      <g transform="translate(25.0125 149.299266) scale(0.12 -0.12)">
       <use xlink:href="#SimHei-30"/>
       <use xlink:href="#SimHei-2e" transform="translate(50 0)"/>
       <use xlink:href="#SimHei-32" transform="translate(100 0)"/>
       <use xlink:href="#SimHei-35" transform="translate(150 0)"/>
      </g>
     </g>
    </g>
    <g id="ytick_6">
     <g id="line2d_29">
      <path d="M 56.0125 98.081038 
L 682.4125 98.081038 
" clip-path="url(#p60ec411c95)" style="fill: none; stroke-dasharray: 2.22,0.96; stroke-dashoffset: 0; stroke: #b0b0b0; stroke-opacity: 0.25; stroke-width: 0.6"/>
     </g>
     <g id="line2d_30">
      <g>
       <use xlink:href="#m9f697a7741" x="56.0125" y="98.081038" style="stroke: #000000; stroke-width: 0.8"/>
      </g>
     </g>
     <g id="text_16">
      <!-- 0.30 -->
      <g transform="translate(25.0125 102.206038) scale(0.12 -0.12)">
       <use xlink:href="#SimHei-30"/>
       <use xlink:href="#SimHei-2e" transform="translate(50 0)"/>
       <use xlink:href="#SimHei-33" transform="translate(100 0)"/>
       <use xlink:href="#SimHei-30" transform="translate(150 0)"/>
      </g>
     </g>
    </g>
    <g id="ytick_7">
     <g id="line2d_31">
      <path d="M 56.0125 50.98781 
L 682.4125 50.98781 
" clip-path="url(#p60ec411c95)" style="fill: none; stroke-dasharray: 2.22,0.96; stroke-dashoffset: 0; stroke: #b0b0b0; stroke-opacity: 0.25; stroke-width: 0.6"/>
     </g>
     <g id="line2d_32">
      <g>
       <use xlink:href="#m9f697a7741" x="56.0125" y="50.98781" style="stroke: #000000; stroke-width: 0.8"/>
      </g>
     </g>
     <g id="text_17">
      <!-- 0.35 -->
      <g transform="translate(25.0125 55.11281) scale(0.12 -0.12)">
       <use xlink:href="#SimHei-30"/>
       <use xlink:href="#SimHei-2e" transform="translate(50 0)"/>
       <use xlink:href="#SimHei-33" transform="translate(100 0)"/>
       <use xlink:href="#SimHei-35" transform="translate(150 0)"/>
      </g>
     </g>
    </g>
    <g id="text_18">
     <!-- Total Task Latency -->
     <g transform="translate(18.8875 268.6836) rotate(-90) scale(0.17 -0.17)">
      <defs>
       <path id="SimHei-54" d="M 2850 3925 
L 1850 3925 
L 1850 125 
L 1275 125 
L 1275 3925 
L 275 3925 
L 275 4400 
L 2850 4400 
L 2850 3925 
z
" transform="scale(0.015625)"/>
       <path id="SimHei-74" d="M 2750 200 
Q 2625 150 2462 112 
Q 2300 75 2025 75 
Q 1575 75 1300 325 
Q 1025 575 1025 1025 
L 1025 2525 
L 175 2525 
L 175 2925 
L 1025 2925 
L 1025 3900 
L 1525 3900 
L 1525 2925 
L 2550 2925 
L 2550 2525 
L 1525 2525 
L 1525 1000 
Q 1525 800 1625 662 
Q 1725 525 2000 525 
Q 2275 525 2450 575 
Q 2625 625 2750 700 
L 2750 200 
z
" transform="scale(0.015625)"/>
       <path id="SimHei-61" d="M 2875 125 
L 2275 125 
Q 2225 175 2200 262 
Q 2175 350 2175 475 
Q 2000 275 1750 175 
Q 1500 75 1225 75 
Q 825 75 550 275 
Q 275 475 275 850 
Q 275 1225 525 1450 
Q 775 1675 1300 1750 
Q 1650 1800 1912 1875 
Q 2175 1950 2175 2075 
Q 2175 2225 2062 2375 
Q 1950 2525 1575 2525 
Q 1275 2525 1137 2412 
Q 1000 2300 950 2100 
L 400 2100 
Q 450 2500 762 2737 
Q 1075 2975 1575 2975 
Q 2125 2975 2400 2725 
Q 2675 2475 2675 2025 
L 2675 650 
Q 2675 500 2725 375 
Q 2775 250 2875 125 
z
M 2175 1050 
L 2175 1550 
Q 2025 1500 1887 1462 
Q 1750 1425 1425 1375 
Q 1050 1325 937 1200 
Q 825 1075 825 900 
Q 825 750 937 637 
Q 1050 525 1275 525 
Q 1500 525 1762 650 
Q 2025 775 2175 1050 
z
" transform="scale(0.015625)"/>
       <path id="SimHei-6c" d="M 1825 125 
L 1325 125 
L 1325 4400 
L 1825 4400 
L 1825 125 
z
" transform="scale(0.015625)"/>
       <path id="SimHei-20" transform="scale(0.015625)"/>
       <path id="SimHei-6b" d="M 2925 125 
L 2350 125 
L 1450 1650 
L 875 1100 
L 875 125 
L 375 125 
L 375 4400 
L 875 4400 
L 875 1675 
L 2125 2925 
L 2750 2925 
L 1775 1975 
L 2925 125 
z
" transform="scale(0.015625)"/>
       <path id="SimHei-4c" d="M 2900 125 
L 300 125 
L 300 4400 
L 875 4400 
L 875 600 
L 2900 600 
L 2900 125 
z
" transform="scale(0.015625)"/>
       <path id="SimHei-6e" d="M 2800 125 
L 2300 125 
L 2300 1925 
Q 2300 2225 2150 2400 
Q 2000 2575 1750 2575 
Q 1425 2575 1137 2237 
Q 850 1900 850 1400 
L 850 125 
L 350 125 
L 350 2925 
L 850 2925 
L 850 2400 
Q 1050 2675 1287 2825 
Q 1525 2975 1900 2975 
Q 2350 2975 2575 2725 
Q 2800 2475 2800 2100 
L 2800 125 
z
" transform="scale(0.015625)"/>
       <path id="SimHei-63" d="M 2850 1250 
Q 2850 725 2487 400 
Q 2125 75 1575 75 
Q 1025 75 625 462 
Q 225 850 225 1525 
Q 225 2200 625 2587 
Q 1025 2975 1575 2975 
Q 2125 2975 2450 2687 
Q 2775 2400 2775 2000 
L 2225 2000 
Q 2200 2300 2012 2412 
Q 1825 2525 1575 2525 
Q 1275 2525 1025 2287 
Q 775 2050 775 1525 
Q 775 1000 1025 762 
Q 1275 525 1575 525 
Q 1900 525 2100 700 
Q 2300 875 2300 1250 
L 2850 1250 
z
" transform="scale(0.015625)"/>
       <path id="SimHei-79" d="M 2900 2925 
L 1750 -100 
Q 1650 -450 1450 -625 
Q 1250 -800 950 -800 
Q 825 -800 712 -787 
Q 600 -775 500 -725 
L 500 -225 
Q 600 -275 700 -300 
Q 800 -325 875 -325 
Q 1075 -325 1150 -262 
Q 1225 -200 1300 25 
L 200 2925 
L 750 2925 
L 1550 725 
L 1575 725 
L 2350 2925 
L 2900 2925 
z
" transform="scale(0.015625)"/>
      </defs>
      <use xlink:href="#SimHei-54"/>
      <use xlink:href="#SimHei-6f" transform="translate(50 0)"/>
      <use xlink:href="#SimHei-74" transform="translate(100 0)"/>
      <use xlink:href="#SimHei-61" transform="translate(150 0)"/>
      <use xlink:href="#SimHei-6c" transform="translate(200 0)"/>
      <use xlink:href="#SimHei-20" transform="translate(250 0)"/>
      <use xlink:href="#SimHei-54" transform="translate(300 0)"/>
      <use xlink:href="#SimHei-61" transform="translate(350 0)"/>
      <use xlink:href="#SimHei-73" transform="translate(400 0)"/>
      <use xlink:href="#SimHei-6b" transform="translate(450 0)"/>
      <use xlink:href="#SimHei-20" transform="translate(500 0)"/>
      <use xlink:href="#SimHei-4c" transform="translate(550 0)"/>
      <use xlink:href="#SimHei-61" transform="translate(600 0)"/>
      <use xlink:href="#SimHei-74" transform="translate(650 0)"/>
      <use xlink:href="#SimHei-65" transform="translate(700 0)"/>
      <use xlink:href="#SimHei-6e" transform="translate(750 0)"/>
      <use xlink:href="#SimHei-63" transform="translate(800 0)"/>
      <use xlink:href="#SimHei-79" transform="translate(850 0)"/>
     </g>
    </g>
   </g>
   <g id="line2d_33">
    <path d="M 84.485227 184.870739 
L 85.912432 181.363272 
L 87.339636 171.580838 
L 90.194045 156.974022 
L 91.621249 154.939176 
L 93.048454 154.133815 
L 94.475658 152.944973 
L 95.902862 148.3021 
L 97.330067 145.31154 
L 98.757271 143.031959 
L 100.184475 138.387468 
L 101.61168 132.840294 
L 103.038884 134.344155 
L 104.466089 130.950255 
L 105.893293 131.46163 
L 107.320497 131.247178 
L 108.747702 128.610075 
L 110.174906 128.906465 
L 111.60211 127.443002 
L 113.029315 127.11081 
L 114.456519 127.11747 
L 115.883724 128.275831 
L 117.310928 124.769143 
L 118.738132 127.671707 
L 120.165337 125.196608 
L 121.592541 120.295437 
L 123.019745 120.02691 
L 124.44695 118.171593 
L 125.874154 115.151081 
L 127.301359 116.805939 
L 128.728563 114.880237 
L 130.155767 117.056017 
L 131.582972 119.024935 
L 133.010176 120.745485 
L 134.43738 124.956051 
L 135.864585 124.566101 
L 138.718994 163.4514 
L 140.146198 180.237661 
L 141.573402 194.651425 
L 145.855015 230.937882 
L 147.28222 241.888542 
L 148.709424 251.0986 
L 150.136629 257.202981 
L 152.991037 270.921365 
L 155.845446 281.896035 
L 157.27265 286.586024 
L 158.699855 291.955999 
L 161.554263 300.117585 
L 162.981468 302.544247 
L 164.408672 305.911704 
L 167.263081 311.507085 
L 168.690285 313.874467 
L 170.11749 315.837908 
L 171.544694 317.363807 
L 172.971898 319.156278 
L 174.399103 319.874384 
L 175.826307 321.358248 
L 177.253512 323.054336 
L 178.680716 323.752778 
L 180.10792 324.92007 
L 181.535125 325.751374 
L 182.962329 325.717262 
L 184.389533 326.547846 
L 185.816738 326.885066 
L 187.243942 328.177163 
L 188.671147 328.24413 
L 190.098351 328.893329 
L 191.525555 328.55506 
L 192.95276 328.335179 
L 194.379964 329.072488 
L 195.807168 328.808511 
L 197.234373 329.284268 
L 198.661577 329.255605 
L 200.088782 329.692635 
L 201.515986 330.265277 
L 205.797599 329.545453 
L 207.224803 329.63272 
L 208.652008 330.193129 
L 210.079212 329.3414 
L 211.506417 329.735659 
L 215.78803 328.916145 
L 217.215234 329.192782 
L 218.642438 328.97697 
L 220.069643 329.023619 
L 221.496847 329.306024 
L 222.924052 329.968205 
L 224.351256 330.86441 
L 225.77846 330.630216 
L 227.205665 332.156785 
L 228.632869 332.762117 
L 230.060073 333.822045 
L 232.914482 334.165593 
L 234.341687 332.747191 
L 235.768891 332.520031 
L 238.6233 333.341504 
L 240.050504 332.992548 
L 241.477708 333.137521 
L 242.904913 333.161693 
L 244.332117 333.29814 
L 245.759322 333.218023 
L 251.468139 334.560825 
L 252.895343 334.264729 
L 254.322548 334.105775 
L 255.749752 333.563428 
L 257.176957 333.815343 
L 258.604161 333.105058 
L 260.031365 333.143097 
L 261.45857 333.06614 
L 262.885774 333.160597 
L 264.312978 333.089008 
L 265.740183 333.567606 
L 267.167387 332.843665 
L 268.594592 331.736444 
L 270.021796 331.843798 
L 271.449 332.361397 
L 272.876205 333.222706 
L 274.303409 333.023519 
L 275.730613 332.963744 
L 277.157818 333.705628 
L 278.585022 333.063808 
L 280.012227 333.468392 
L 282.866635 332.709135 
L 284.29384 332.607707 
L 285.721044 332.723358 
L 287.148248 333.210226 
L 288.575453 332.35625 
L 291.429862 332.625945 
L 295.711475 332.377491 
L 297.138679 331.858272 
L 298.565883 331.165525 
L 299.993088 330.910896 
L 301.420292 331.295717 
L 302.847497 331.424037 
L 305.701905 333.15461 
L 307.12911 332.996612 
L 309.983518 332.297802 
L 314.265132 332.505135 
L 315.692336 332.210716 
L 317.11954 331.410256 
L 318.546745 332.278815 
L 319.973949 331.590513 
L 321.401153 331.836371 
L 322.828358 332.2219 
L 325.682767 331.155233 
L 328.537175 331.703101 
L 329.96438 332.226089 
L 331.391584 331.727256 
L 332.818788 332.852714 
L 334.245993 332.719982 
L 335.673197 332.12145 
L 337.100402 332.739242 
L 338.527606 332.633131 
L 339.95481 332.859628 
L 341.382015 332.785377 
L 342.809219 332.892172 
L 344.236423 331.316836 
L 345.663628 331.475072 
L 347.090832 331.926667 
L 348.518037 332.182339 
L 349.945241 332.851862 
L 351.372445 331.24001 
L 352.79965 330.935032 
L 354.226854 331.517354 
L 357.081263 331.380646 
L 358.508467 330.836742 
L 359.935672 331.600309 
L 361.362876 331.692146 
L 362.79008 332.658432 
L 364.217285 333.039141 
L 365.644489 332.745387 
L 367.071693 333.074308 
L 368.498898 333.653183 
L 371.353307 332.219656 
L 372.780511 332.252175 
L 374.207715 332.881581 
L 375.63492 331.053322 
L 377.062124 330.063499 
L 378.489328 331.088298 
L 379.916533 330.428397 
L 381.343737 330.49216 
L 382.770942 330.015422 
L 384.198146 330.109758 
L 385.62535 331.074404 
L 387.052555 331.399741 
L 388.479759 331.478291 
L 389.906963 331.326476 
L 391.334168 330.855397 
L 392.761372 329.811522 
L 394.188577 329.931061 
L 395.615781 329.559415 
L 397.042985 330.547953 
L 398.47019 330.453945 
L 399.897394 330.790207 
L 401.324598 331.53991 
L 402.751803 331.123538 
L 404.179007 331.457285 
L 405.606212 331.334333 
L 407.033416 330.651301 
L 409.887825 331.940366 
L 411.315029 331.221854 
L 412.742233 330.647851 
L 414.169438 331.076225 
L 415.596642 331.079578 
L 417.023847 331.312454 
L 418.451051 332.156783 
L 419.878255 332.357987 
L 421.30546 332.038338 
L 422.732664 332.041732 
L 424.159868 332.676211 
L 425.587073 332.992208 
L 427.014277 332.988813 
L 428.441482 333.470702 
L 429.868686 333.604894 
L 431.29589 334.297268 
L 432.723095 333.386236 
L 434.150299 333.916505 
L 437.004708 334.305848 
L 438.431912 333.818161 
L 441.286321 333.674149 
L 442.713525 333.360168 
L 444.14073 333.697981 
L 445.567934 333.857692 
L 446.995138 333.87522 
L 448.422343 334.226003 
L 449.849547 333.650831 
L 451.276752 333.211894 
L 452.703956 332.574677 
L 454.13116 332.817287 
L 455.558365 332.571412 
L 456.985569 331.953152 
L 458.412773 331.685864 
L 459.839978 331.25296 
L 461.267182 331.837441 
L 462.694387 332.142529 
L 465.548795 332.370079 
L 466.976 332.843935 
L 469.830408 332.391729 
L 471.257613 331.65662 
L 472.684817 332.452641 
L 474.112022 332.820625 
L 475.539226 332.22925 
L 476.96643 332.038977 
L 478.393635 332.257478 
L 479.820839 332.257992 
L 481.248043 332.394665 
L 482.675248 331.73692 
L 484.102452 332.353499 
L 485.529657 332.465507 
L 486.956861 332.258188 
L 488.384065 332.724414 
L 489.81127 332.590314 
L 491.238474 331.727828 
L 492.665678 331.608975 
L 494.092883 331.693218 
L 495.520087 331.96942 
L 496.947292 331.747789 
L 498.374496 330.677739 
L 499.8017 331.130775 
L 501.228905 332.342345 
L 502.656109 332.81018 
L 504.083313 332.66027 
L 505.510518 332.801993 
L 506.937722 333.180697 
L 508.364927 333.3044 
L 509.792131 333.728413 
L 511.219335 333.150454 
L 514.073744 332.748297 
L 515.500948 333.435149 
L 516.928153 333.995532 
L 518.355357 333.639978 
L 519.782562 333.482152 
L 521.209766 333.883716 
L 522.63697 334.404975 
L 524.064175 334.110705 
L 525.491379 334.094267 
L 526.918583 333.439163 
L 528.345788 334.061917 
L 529.772992 333.195299 
L 531.200197 333.153696 
L 532.627401 332.799835 
L 534.054605 331.997387 
L 535.48181 330.925306 
L 536.909014 331.074061 
L 538.336218 331.043854 
L 539.763423 330.818919 
L 541.190627 330.771589 
L 542.617832 331.281332 
L 544.045036 331.922069 
L 545.47224 331.240869 
L 546.899445 330.970194 
L 548.326649 330.097518 
L 549.753853 330.448171 
L 551.181058 330.502802 
L 552.608262 331.050725 
L 554.035467 332.084883 
L 555.462671 332.840635 
L 556.889875 332.803382 
L 558.31708 333.581386 
L 559.744284 334.59455 
L 561.171488 333.346749 
L 562.598693 333.825919 
L 564.025897 334.442699 
L 566.880306 333.034207 
L 568.30751 333.702504 
L 569.734715 332.956205 
L 571.161919 332.597063 
L 574.016328 331.105226 
L 576.870737 332.008511 
L 578.297941 332.304234 
L 579.725145 332.040595 
L 581.15235 332.97424 
L 582.579554 333.450945 
L 584.006758 333.319669 
L 585.433963 333.393509 
L 586.861167 332.549845 
L 588.288371 332.471205 
L 589.715576 333.055561 
L 591.14278 332.852515 
L 592.569985 333.399875 
L 593.997189 332.968761 
L 595.424393 332.794397 
L 596.851598 331.338926 
L 598.278802 330.610664 
L 599.706006 330.693319 
L 601.133211 329.811718 
L 602.560415 330.179449 
L 603.98762 330.747331 
L 605.414824 330.997347 
L 606.842028 330.472569 
L 608.269233 331.324795 
L 609.696437 331.444059 
L 611.123641 331.195819 
L 612.550846 331.111591 
L 613.97805 331.545554 
L 615.405255 331.759792 
L 616.832459 331.579286 
L 618.259663 331.549572 
L 623.968481 333.49143 
L 625.395685 333.431298 
L 626.82289 333.762145 
L 629.677298 333.534684 
L 631.104503 333.657847 
L 632.531707 332.915673 
L 633.958911 331.512675 
L 635.386116 331.211134 
L 636.81332 331.68295 
L 639.667729 332.889795 
L 641.094933 332.847159 
L 642.522138 333.319365 
L 643.949342 331.568667 
L 645.376546 332.305737 
L 646.803751 331.28726 
L 648.230955 332.252572 
L 649.65816 332.072715 
L 651.085364 332.040415 
L 652.512568 332.23502 
L 653.939773 331.667625 
L 653.939773 331.667625 
" clip-path="url(#p60ec411c95)" style="fill: none; stroke: #1f77b4; stroke-width: 1.2; stroke-linecap: square"/>
   </g>
   <g id="line2d_34">
    <path d="M 84.485227 179.226512 
L 85.912432 171.5865 
L 87.339636 155.927821 
L 88.76684 147.585351 
L 91.621249 124.611455 
L 93.048454 119.435079 
L 95.902862 100.788139 
L 97.330067 97.542966 
L 98.757271 91.246286 
L 100.184475 90.056712 
L 101.61168 87.957489 
L 103.038884 79.769544 
L 104.466089 74.857654 
L 105.893293 68.792737 
L 107.320497 68.308498 
L 108.747702 66.312271 
L 110.174906 66.337286 
L 111.60211 64.583341 
L 113.029315 65.344853 
L 114.456519 64.480018 
L 115.883724 63.08247 
L 117.310928 59.635875 
L 118.738132 59.013112 
L 120.165337 58.750514 
L 121.592541 59.363208 
L 123.019745 57.487003 
L 124.44695 56.837739 
L 125.874154 54.091295 
L 127.301359 55.408786 
L 128.728563 52.362866 
L 130.155767 56.040256 
L 131.582972 54.684535 
L 133.010176 54.458511 
L 134.43738 52.536991 
L 135.864585 48.838145 
L 137.291789 50.702993 
L 138.718994 50.771074 
L 140.146198 50.713376 
L 141.573402 54.128448 
L 143.000607 56.171828 
L 144.427811 55.743516 
L 147.28222 107.477027 
L 148.709424 129.771913 
L 150.136629 149.990021 
L 152.991037 184.436762 
L 155.845446 212.957007 
L 158.699855 235.423904 
L 161.554263 254.731184 
L 162.981468 262.738104 
L 164.408672 270.030676 
L 167.263081 281.780712 
L 170.11749 291.352917 
L 171.544694 295.819253 
L 172.971898 299.805145 
L 174.399103 302.789349 
L 175.826307 304.58019 
L 177.253512 307.970411 
L 181.535125 314.79778 
L 184.389533 317.701092 
L 185.816738 318.936812 
L 187.243942 320.773901 
L 188.671147 321.364683 
L 190.098351 322.493864 
L 191.525555 322.829172 
L 192.95276 323.65951 
L 194.379964 325.030603 
L 195.807168 326.075737 
L 197.234373 326.525498 
L 198.661577 327.330452 
L 200.088782 327.969211 
L 201.515986 328.000995 
L 202.94319 328.347131 
L 204.370395 328.476853 
L 205.797599 327.87863 
L 207.224803 327.896498 
L 210.079212 329.062025 
L 211.506417 329.561516 
L 214.360825 330.340185 
L 215.78803 330.166704 
L 217.215234 329.568782 
L 218.642438 329.696951 
L 220.069643 330.004301 
L 221.496847 329.065389 
L 224.351256 329.565398 
L 225.77846 329.290791 
L 227.205665 330.411445 
L 230.060073 331.189297 
L 231.487278 331.888401 
L 232.914482 331.780517 
L 234.341687 329.912218 
L 235.768891 329.516057 
L 237.196095 330.46763 
L 238.6233 331.268541 
L 240.050504 331.151046 
L 241.477708 331.419338 
L 242.904913 331.813383 
L 244.332117 332.683351 
L 247.186526 333.763806 
L 248.61373 333.805173 
L 250.040935 333.615496 
L 251.468139 333.806309 
L 252.895343 332.426216 
L 254.322548 332.071823 
L 255.749752 331.979432 
L 257.176957 332.308967 
L 258.604161 331.613288 
L 260.031365 332.009811 
L 261.45857 331.700945 
L 262.885774 332.248991 
L 264.312978 332.311897 
L 265.740183 332.120406 
L 267.167387 331.339026 
L 268.594592 331.565401 
L 270.021796 332.771801 
L 272.876205 333.869545 
L 274.303409 334.077792 
L 275.730613 333.526647 
L 277.157818 333.771169 
L 278.585022 334.482819 
L 280.012227 334.295379 
L 281.439431 334.726388 
L 282.866635 334.896037 
L 284.29384 334.367741 
L 288.575453 334.198575 
L 290.002657 334.39162 
L 291.429862 334.275412 
L 292.857066 334.47632 
L 294.28427 334.930041 
L 295.711475 334.971569 
L 297.138679 334.339735 
L 298.565883 334.257529 
L 299.993088 334.430033 
L 301.420292 334.441569 
L 304.274701 335.017523 
L 305.701905 335.04419 
L 307.12911 334.93545 
L 308.556314 335.190277 
L 309.983518 333.529201 
L 311.410723 333.512691 
L 312.837927 333.119976 
L 314.265132 333.680088 
L 315.692336 333.198456 
L 318.546745 333.710454 
L 319.973949 333.020915 
L 321.401153 333.364484 
L 322.828358 333.47654 
L 325.682767 332.171491 
L 328.537175 332.52627 
L 329.96438 332.966941 
L 331.391584 332.394023 
L 332.818788 333.452804 
L 334.245993 333.260063 
L 335.673197 332.607523 
L 337.100402 333.176708 
L 338.527606 333.02685 
L 339.95481 333.213976 
L 341.382015 333.104289 
L 342.809219 333.179194 
L 344.236423 331.575155 
L 345.663628 331.707559 
L 347.090832 332.135906 
L 348.518037 332.370653 
L 349.945241 333.021345 
L 351.372445 331.392545 
L 352.79965 331.072313 
L 354.226854 331.640908 
L 357.081263 331.480724 
L 358.508467 330.926813 
L 359.935672 331.681372 
L 361.362876 331.765103 
L 362.79008 332.724094 
L 364.217285 333.098237 
L 365.644489 332.798573 
L 367.071693 333.122175 
L 368.498898 333.696263 
L 371.353307 332.254551 
L 372.780511 332.283581 
L 374.207715 332.909846 
L 375.63492 331.07876 
L 377.062124 330.086394 
L 378.489328 331.108904 
L 379.916533 330.446942 
L 381.343737 330.50885 
L 382.770942 330.030443 
L 384.198146 330.123277 
L 385.62535 331.086571 
L 387.052555 331.410691 
L 388.479759 331.488147 
L 389.906963 331.335345 
L 391.334168 330.86338 
L 392.761372 329.818707 
L 394.188577 329.937527 
L 395.615781 329.565234 
L 397.042985 330.553191 
L 398.47019 330.458659 
L 399.897394 330.794449 
L 401.324598 331.543728 
L 402.751803 331.126974 
L 404.179007 331.460377 
L 405.606212 331.337116 
L 407.033416 330.653806 
L 409.887825 331.942395 
L 411.315029 331.22368 
L 412.742233 330.649495 
L 414.169438 331.077705 
L 415.596642 331.080909 
L 417.023847 331.313652 
L 418.451051 332.157862 
L 419.878255 332.358958 
L 421.30546 332.039212 
L 422.732664 332.042518 
L 424.159868 332.676918 
L 425.587073 332.992844 
L 427.014277 332.989386 
L 428.441482 333.471218 
L 429.868686 333.605359 
L 431.29589 334.297686 
L 432.723095 333.386612 
L 434.150299 333.916843 
L 437.004708 334.306122 
L 438.431912 333.818408 
L 441.286321 333.674348 
L 442.713525 333.360348 
L 444.14073 333.698143 
L 445.567934 333.857838 
L 446.995138 333.875351 
L 448.422343 334.226121 
L 449.849547 333.650937 
L 451.276752 333.211989 
L 452.703956 332.574763 
L 454.13116 332.817365 
L 455.558365 332.571481 
L 456.985569 331.953214 
L 458.412773 331.68592 
L 459.839978 331.25301 
L 461.267182 331.837487 
L 462.694387 332.14257 
L 465.548795 332.370112 
L 466.976 332.843965 
L 469.830408 332.391753 
L 471.257613 331.656642 
L 472.684817 332.45266 
L 474.112022 332.820642 
L 475.539226 332.229266 
L 476.96643 332.038992 
L 478.393635 332.257491 
L 479.820839 332.258004 
L 481.248043 332.394676 
L 482.675248 331.736929 
L 484.102452 332.353508 
L 485.529657 332.465515 
L 486.956861 332.258195 
L 488.384065 332.72442 
L 489.81127 332.590319 
L 491.238474 331.727833 
L 492.665678 331.60898 
L 494.092883 331.693222 
L 495.520087 331.969424 
L 496.947292 331.747792 
L 498.374496 330.677742 
L 499.8017 331.130778 
L 501.228905 332.342347 
L 502.656109 332.810182 
L 504.083313 332.660272 
L 505.510518 332.801994 
L 506.937722 333.180699 
L 508.364927 333.304401 
L 509.792131 333.728414 
L 511.219335 333.150455 
L 514.073744 332.748298 
L 515.500948 333.43515 
L 516.928153 333.995533 
L 518.355357 333.639979 
L 519.782562 333.482153 
L 521.209766 333.883717 
L 522.63697 334.404975 
L 524.064175 334.110705 
L 525.491379 334.094267 
L 526.918583 333.439163 
L 528.345788 334.061918 
L 529.772992 333.1953 
L 531.200197 333.153697 
L 532.627401 332.799835 
L 534.054605 331.997387 
L 535.48181 330.925306 
L 536.909014 331.074061 
L 538.336218 331.043854 
L 539.763423 330.818919 
L 541.190627 330.771589 
L 542.617832 331.281332 
L 544.045036 331.922069 
L 545.47224 331.240869 
L 546.899445 330.970194 
L 548.326649 330.097518 
L 549.753853 330.448171 
L 551.181058 330.502802 
L 552.608262 331.050725 
L 554.035467 332.084883 
L 555.462671 332.840635 
L 556.889875 332.803382 
L 558.31708 333.581386 
L 559.744284 334.59455 
L 561.171488 333.346749 
L 562.598693 333.825919 
L 564.025897 334.442699 
L 566.880306 333.034207 
L 568.30751 333.702504 
L 569.734715 332.956205 
L 571.161919 332.597063 
L 574.016328 331.105226 
L 576.870737 332.008511 
L 578.297941 332.304234 
L 579.725145 332.040595 
L 581.15235 332.97424 
L 582.579554 333.450945 
L 584.006758 333.319669 
L 585.433963 333.393509 
L 586.861167 332.549845 
L 588.288371 332.471205 
L 589.715576 333.055561 
L 591.14278 332.852515 
L 592.569985 333.399875 
L 593.997189 332.968761 
L 595.424393 332.794397 
L 596.851598 331.338926 
L 598.278802 330.610664 
L 599.706006 330.693319 
L 601.133211 329.811718 
L 602.560415 330.179449 
L 603.98762 330.747331 
L 605.414824 330.997347 
L 606.842028 330.472569 
L 608.269233 331.324795 
L 609.696437 331.444059 
L 611.123641 331.195819 
L 612.550846 331.111591 
L 613.97805 331.545554 
L 615.405255 331.759792 
L 616.832459 331.579286 
L 618.259663 331.549572 
L 623.968481 333.49143 
L 625.395685 333.431298 
L 626.82289 333.762145 
L 629.677298 333.534684 
L 631.104503 333.657847 
L 632.531707 332.915673 
L 633.958911 331.512675 
L 635.386116 331.211134 
L 636.81332 331.68295 
L 639.667729 332.889795 
L 641.094933 332.847159 
L 642.522138 333.319365 
L 643.949342 331.568667 
L 645.376546 332.305737 
L 646.803751 331.28726 
L 648.230955 332.252572 
L 649.65816 332.072715 
L 651.085364 332.040415 
L 652.512568 332.23502 
L 652.512568 332.23502 
" clip-path="url(#p60ec411c95)" style="fill: none; stroke: #ff7f0e; stroke-width: 1.2; stroke-linecap: square"/>
   </g>
   <g id="line2d_35">
    <path d="M 84.485227 221.952061 
L 85.912432 216.969355 
L 87.339636 207.795787 
L 88.76684 203.826719 
L 90.194045 199.489471 
L 91.621249 195.96073 
L 93.048454 188.586966 
L 94.475658 185.623689 
L 95.902862 182.375452 
L 97.330067 180.311589 
L 98.757271 177.61443 
L 100.184475 171.204196 
L 101.61168 172.845984 
L 103.038884 176.59993 
L 105.893293 194.556869 
L 107.320497 206.545168 
L 108.747702 216.353119 
L 111.60211 237.532956 
L 114.456519 254.523876 
L 117.310928 268.16211 
L 118.738132 273.787061 
L 120.165337 277.12198 
L 121.592541 281.612685 
L 124.44695 291.559078 
L 125.874154 295.704642 
L 128.728563 302.720861 
L 130.155767 305.569761 
L 133.010176 312.01193 
L 134.43738 314.069393 
L 135.864585 316.561918 
L 137.291789 318.619058 
L 138.718994 320.273384 
L 140.146198 322.364043 
L 141.573402 324.004847 
L 143.000607 325.170485 
L 144.427811 324.987094 
L 145.855015 325.29858 
L 147.28222 325.868697 
L 148.709424 326.837319 
L 150.136629 327.203003 
L 151.563833 327.947581 
L 152.991037 328.441367 
L 154.418242 327.559663 
L 158.699855 328.958501 
L 160.127059 328.584512 
L 162.981468 330.483394 
L 167.263081 330.742687 
L 168.690285 329.856736 
L 170.11749 330.207947 
L 171.544694 330.910024 
L 172.971898 331.930258 
L 174.399103 330.676608 
L 175.826307 330.942709 
L 177.253512 331.461054 
L 178.680716 331.669119 
L 180.10792 332.005496 
L 181.535125 331.554103 
L 182.962329 332.374956 
L 184.389533 332.506827 
L 185.816738 332.339228 
L 187.243942 332.670362 
L 188.671147 332.504107 
L 190.098351 331.962688 
L 192.95276 332.850895 
L 194.379964 332.364341 
L 195.807168 332.209527 
L 197.234373 331.752267 
L 198.661577 332.790826 
L 200.088782 333.088784 
L 202.94319 332.758194 
L 204.370395 333.132515 
L 207.224803 332.655666 
L 208.652008 332.929558 
L 212.933621 333.14649 
L 215.78803 332.446151 
L 218.642438 332.332914 
L 220.069643 331.9765 
L 221.496847 331.840449 
L 222.924052 331.254912 
L 227.205665 331.832426 
L 228.632869 332.352327 
L 230.060073 332.309541 
L 231.487278 332.417268 
L 232.914482 332.085526 
L 234.341687 331.988995 
L 235.768891 331.243311 
L 237.196095 331.482867 
L 238.6233 332.43914 
L 240.050504 331.966568 
L 241.477708 332.370068 
L 242.904913 332.651156 
L 245.759322 331.812774 
L 247.186526 332.522743 
L 248.61373 332.58166 
L 250.040935 333.481696 
L 251.468139 333.240528 
L 254.322548 333.541096 
L 255.749752 334.100503 
L 257.176957 334.06546 
L 258.604161 334.144343 
L 260.031365 333.887341 
L 261.45857 333.972395 
L 262.885774 334.33162 
L 264.312978 333.954512 
L 265.740183 333.790214 
L 267.167387 334.081777 
L 268.594592 333.723777 
L 270.021796 333.612765 
L 271.449 334.052685 
L 272.876205 334.317639 
L 274.303409 334.804139 
L 277.157818 333.589093 
L 278.585022 333.250105 
L 280.012227 333.246501 
L 281.439431 333.095861 
L 282.866635 333.069177 
L 284.29384 333.370101 
L 285.721044 333.399744 
L 287.148248 334.177044 
L 288.575453 333.446375 
L 290.002657 334.122133 
L 291.429862 334.500174 
L 292.857066 334.721021 
L 295.711475 334.130722 
L 297.138679 335.180485 
L 298.565883 334.948079 
L 299.993088 334.387015 
L 301.420292 334.256245 
L 302.847497 334.601447 
L 304.274701 334.530367 
L 305.701905 334.29174 
L 308.556314 335.363215 
L 309.983518 334.514218 
L 311.410723 334.116738 
L 312.837927 333.964428 
L 314.265132 333.687646 
L 315.692336 334.232149 
L 318.546745 334.441476 
L 319.973949 334.802877 
L 321.401153 334.010627 
L 324.255562 333.544849 
L 327.109971 331.012878 
L 328.537175 330.39893 
L 329.96438 330.582482 
L 331.391584 331.182671 
L 332.818788 331.355135 
L 334.245993 331.271577 
L 337.100402 331.983231 
L 338.527606 333.080672 
L 339.95481 332.882149 
L 341.382015 332.866338 
L 342.809219 332.032453 
L 344.236423 332.249629 
L 345.663628 332.930982 
L 347.090832 331.916736 
L 349.945241 331.694418 
L 351.372445 332.105454 
L 352.79965 331.737841 
L 354.226854 332.065718 
L 355.654058 332.519471 
L 358.508467 333.110052 
L 359.935672 333.521371 
L 361.362876 333.806476 
L 362.79008 333.312002 
L 364.217285 333.285615 
L 365.644489 333.397571 
L 367.071693 332.702643 
L 368.498898 332.722409 
L 369.926102 333.188863 
L 371.353307 332.804242 
L 374.207715 333.105575 
L 375.63492 334.197071 
L 377.062124 333.861016 
L 378.489328 333.683708 
L 379.916533 333.693005 
L 381.343737 333.563681 
L 382.770942 332.922584 
L 384.198146 333.149021 
L 385.62535 332.923671 
L 387.052555 332.382431 
L 388.479759 332.046901 
L 389.906963 332.711414 
L 392.761372 332.188508 
L 394.188577 332.856415 
L 398.47019 333.052272 
L 399.897394 332.398266 
L 401.324598 332.197713 
L 402.751803 331.757465 
L 404.179007 331.961292 
L 405.606212 331.86454 
L 407.033416 331.980257 
L 408.46062 332.225384 
L 409.887825 331.804369 
L 411.315029 331.652389 
L 412.742233 331.025685 
L 414.169438 330.947521 
L 417.023847 331.105853 
L 418.451051 332.023879 
L 422.732664 331.908565 
L 424.159868 332.319131 
L 425.587073 332.33131 
L 427.014277 332.074835 
L 428.441482 332.611756 
L 429.868686 332.659061 
L 432.723095 333.780739 
L 434.150299 332.99423 
L 435.577503 332.961122 
L 437.004708 333.091696 
L 438.431912 332.857626 
L 439.859117 333.171618 
L 441.286321 333.157361 
L 442.713525 330.594322 
L 444.14073 330.79142 
L 445.567934 331.167288 
L 448.422343 332.126389 
L 451.276752 332.257654 
L 452.703956 332.680437 
L 454.13116 332.912013 
L 455.558365 332.307294 
L 456.985569 332.185087 
L 458.412773 332.482036 
L 459.839978 331.520369 
L 461.267182 331.348637 
L 462.694387 332.062822 
L 464.121591 331.522149 
L 465.548795 332.307714 
L 466.976 331.344767 
L 468.403204 331.689965 
L 469.830408 331.904202 
L 471.257613 331.260074 
L 472.684817 331.79928 
L 474.112022 331.552276 
L 475.539226 331.110201 
L 479.820839 332.493322 
L 481.248043 332.819588 
L 484.102452 333.048971 
L 486.956861 332.902457 
L 489.81127 332.329314 
L 491.238474 332.530461 
L 492.665678 331.344745 
L 494.092883 331.985131 
L 495.520087 331.921418 
L 496.947292 331.614099 
L 498.374496 330.636379 
L 499.8017 331.334662 
L 501.228905 332.157168 
L 502.656109 332.516691 
L 504.083313 333.414845 
L 505.510518 332.938095 
L 506.937722 331.679725 
L 508.364927 331.099761 
L 509.792131 331.401791 
L 511.219335 331.570584 
L 512.64654 331.522902 
L 514.073744 332.466184 
L 515.500948 332.334169 
L 516.928153 332.577443 
L 518.355357 333.02596 
L 519.782562 333.039267 
L 521.209766 332.873954 
L 524.064175 333.932475 
L 525.491379 333.743802 
L 529.772992 334.27719 
L 531.200197 334.309966 
L 532.627401 333.826526 
L 534.054605 332.297164 
L 535.48181 331.829131 
L 536.909014 332.547688 
L 538.336218 332.024571 
L 539.763423 332.142675 
L 541.190627 331.824054 
L 542.617832 331.751869 
L 544.045036 330.783673 
L 545.47224 331.281379 
L 546.899445 330.525089 
L 548.326649 331.576661 
L 549.753853 331.399544 
L 551.181058 331.739193 
L 554.035467 332.054644 
L 555.462671 332.844326 
L 556.889875 332.271994 
L 558.31708 332.334526 
L 559.744284 331.709562 
L 561.171488 331.301758 
L 562.598693 331.758241 
L 564.025897 331.760909 
L 565.453102 332.149714 
L 566.880306 331.325975 
L 568.30751 331.499528 
L 569.734715 330.541471 
L 571.161919 330.621578 
L 572.589123 331.327754 
L 576.870737 332.192208 
L 578.297941 332.092268 
L 579.725145 332.307715 
L 582.579554 331.738169 
L 584.006758 331.97082 
L 585.433963 331.821504 
L 586.861167 332.000376 
L 588.288371 332.005436 
L 589.715576 332.342284 
L 591.14278 332.419756 
L 592.569985 332.344238 
L 595.424393 333.077129 
L 596.851598 333.39504 
L 601.133211 331.658998 
L 602.560415 331.284583 
L 606.842028 332.132013 
L 608.269233 332.120944 
L 609.696437 331.31566 
L 611.123641 331.899386 
L 612.550846 331.423532 
L 613.97805 331.847835 
L 615.405255 329.606799 
L 616.832459 330.02584 
L 618.259663 330.670427 
L 619.686868 331.877111 
L 621.114072 332.343153 
L 622.541276 332.442664 
L 623.968481 331.258521 
L 628.250094 332.024396 
L 631.104503 331.720741 
L 633.958911 332.209456 
L 638.240525 332.546258 
L 639.667729 333.239223 
L 641.094933 332.949106 
L 642.522138 333.233085 
L 643.949342 333.290846 
L 646.803751 333.185834 
L 648.230955 333.360266 
L 649.65816 333.707101 
L 651.085364 331.938643 
L 652.512568 332.181295 
L 652.512568 332.181295 
" clip-path="url(#p60ec411c95)" style="fill: none; stroke: #2ca02c; stroke-width: 1.2; stroke-linecap: square"/>
   </g>
   <g id="line2d_36">
    <path d="M 84.485227 221.952061 
L 85.912432 221.800784 
L 87.339636 223.607916 
L 88.76684 223.391068 
L 90.194045 228.315504 
L 93.048454 238.987124 
L 94.475658 245.3817 
L 95.902862 250.737596 
L 97.330067 258.218904 
L 101.61168 277.194701 
L 103.038884 282.184697 
L 104.466089 285.325933 
L 105.893293 288.09129 
L 107.320497 293.320118 
L 111.60211 303.916122 
L 113.029315 306.966657 
L 114.456519 309.412151 
L 115.883724 311.337115 
L 117.310928 313.82488 
L 118.738132 315.044253 
L 121.592541 318.339593 
L 123.019745 318.909907 
L 124.44695 320.718444 
L 127.301359 322.040361 
L 128.728563 323.345149 
L 130.155767 324.443579 
L 131.582972 326.20445 
L 133.010176 326.444044 
L 137.291789 327.990269 
L 138.718994 328.802798 
L 140.146198 328.411102 
L 141.573402 329.333072 
L 143.000607 329.521294 
L 144.427811 329.893547 
L 145.855015 329.379231 
L 147.28222 329.65355 
L 148.709424 330.391877 
L 151.563833 330.079425 
L 152.991037 330.803695 
L 154.418242 330.937576 
L 155.845446 329.416126 
L 157.27265 329.729176 
L 158.699855 330.548729 
L 160.127059 330.618643 
L 161.554263 329.285967 
L 162.981468 330.366866 
L 164.408672 330.917002 
L 165.835877 331.13858 
L 167.263081 330.74753 
L 170.11749 331.528624 
L 171.544694 331.604368 
L 172.971898 331.804329 
L 174.399103 331.479862 
L 175.826307 331.545258 
L 178.680716 332.089126 
L 180.10792 331.638589 
L 181.535125 331.71871 
L 182.962329 332.546443 
L 184.389533 332.399402 
L 185.816738 332.995 
L 187.243942 331.189989 
L 188.671147 331.566437 
L 190.098351 332.31575 
L 191.525555 332.722359 
L 192.95276 332.673333 
L 194.379964 333.061459 
L 195.807168 334.05244 
L 197.234373 334.15851 
L 198.661577 333.012158 
L 200.088782 332.978577 
L 201.515986 332.206296 
L 202.94319 331.865233 
L 204.370395 331.213107 
L 205.797599 331.719124 
L 207.224803 332.040147 
L 208.652008 331.930296 
L 211.506417 332.252564 
L 214.360825 333.803866 
L 215.78803 333.625093 
L 217.215234 333.308106 
L 218.642438 333.558128 
L 220.069643 332.800609 
L 221.496847 333.179019 
L 222.924052 332.842698 
L 225.77846 334.040249 
L 227.205665 333.215934 
L 228.632869 333.483046 
L 230.060073 333.483064 
L 231.487278 333.057548 
L 232.914482 333.216828 
L 234.341687 332.226791 
L 235.768891 332.892847 
L 237.196095 332.955999 
L 238.6233 332.203629 
L 241.477708 332.761562 
L 242.904913 333.145473 
L 244.332117 332.696339 
L 245.759322 332.450901 
L 247.186526 333.031702 
L 248.61373 333.429223 
L 250.040935 334.411386 
L 251.468139 334.286164 
L 252.895343 334.32683 
L 254.322548 333.925315 
L 255.749752 334.281151 
L 257.176957 334.060089 
L 258.604161 334.417669 
L 260.031365 334.347345 
L 261.45857 334.445287 
L 262.885774 334.211883 
L 264.312978 334.27459 
L 265.740183 334.79116 
L 267.167387 334.082236 
L 268.594592 334.17446 
L 270.021796 333.709576 
L 272.876205 333.343141 
L 274.303409 333.312637 
L 275.730613 333.032168 
L 277.157818 333.348441 
L 278.585022 333.1258 
L 280.012227 333.44934 
L 281.439431 332.017976 
L 282.866635 332.029438 
L 287.148248 333.369847 
L 288.575453 333.714681 
L 290.002657 333.912454 
L 291.429862 333.834823 
L 292.857066 334.679624 
L 294.28427 333.775615 
L 295.711475 334.070451 
L 297.138679 334.113025 
L 298.565883 334.386671 
L 299.993088 334.200187 
L 301.420292 333.653693 
L 302.847497 333.903977 
L 304.274701 332.690732 
L 305.701905 332.463129 
L 307.12911 332.01874 
L 308.556314 331.102847 
L 311.410723 332.332105 
L 312.837927 331.872873 
L 314.265132 332.091675 
L 315.692336 332.129785 
L 317.11954 331.159063 
L 318.546745 332.154067 
L 319.973949 332.750144 
L 321.401153 332.418701 
L 322.828358 332.425495 
L 325.682767 332.241339 
L 328.537175 333.519751 
L 329.96438 332.839383 
L 331.391584 333.277906 
L 332.818788 332.620046 
L 334.245993 333.366632 
L 335.673197 333.969975 
L 337.100402 334.361363 
L 338.527606 334.225882 
L 339.95481 333.694459 
L 341.382015 333.967578 
L 344.236423 334.227182 
L 345.663628 334.746465 
L 347.090832 334.946126 
L 348.518037 334.827928 
L 351.372445 334.919623 
L 352.79965 335.239604 
L 355.654058 335.529055 
L 358.508467 335.163625 
L 359.935672 333.96059 
L 361.362876 333.479959 
L 362.79008 333.602001 
L 364.217285 333.329227 
L 365.644489 333.933035 
L 368.498898 334.384922 
L 369.926102 334.336021 
L 372.780511 334.865332 
L 374.207715 335.146238 
L 375.63492 334.596848 
L 377.062124 333.750412 
L 378.489328 333.325697 
L 379.916533 333.620192 
L 381.343737 333.675449 
L 382.770942 333.136606 
L 385.62535 332.373579 
L 387.052555 333.03205 
L 388.479759 333.029135 
L 389.906963 333.47455 
L 391.334168 332.899772 
L 392.761372 333.814134 
L 395.615781 334.224089 
L 397.042985 334.163381 
L 398.47019 333.788732 
L 399.897394 333.838072 
L 401.324598 333.336933 
L 404.179007 332.829684 
L 405.606212 332.642758 
L 407.033416 331.938687 
L 408.46062 331.104502 
L 409.887825 331.856167 
L 411.315029 331.983985 
L 414.169438 332.786838 
L 415.596642 332.539006 
L 417.023847 332.889156 
L 422.732664 334.789189 
L 424.159868 334.13247 
L 425.587073 333.848527 
L 427.014277 332.970972 
L 429.868686 333.040619 
L 431.29589 332.948299 
L 432.723095 333.134238 
L 434.150299 334.119886 
L 435.577503 333.247903 
L 437.004708 332.860536 
L 438.431912 333.059552 
L 439.859117 332.766834 
L 441.286321 333.122934 
L 442.713525 332.344807 
L 444.14073 331.830865 
L 445.567934 331.730914 
L 446.995138 332.132734 
L 448.422343 331.669359 
L 449.849547 330.787946 
L 451.276752 331.608479 
L 452.703956 332.719288 
L 455.558365 333.625768 
L 456.985569 332.910864 
L 458.412773 333.0938 
L 459.839978 334.010252 
L 462.694387 334.032939 
L 464.121591 333.532846 
L 465.548795 332.9063 
L 466.976 333.635469 
L 469.830408 332.766989 
L 471.257613 332.09891 
L 474.112022 333.192577 
L 475.539226 332.79071 
L 476.96643 333.604638 
L 478.393635 333.906324 
L 482.675248 333.170715 
L 484.102452 333.565015 
L 485.529657 333.538854 
L 486.956861 333.984035 
L 488.384065 334.093621 
L 489.81127 333.543195 
L 491.238474 333.408919 
L 492.665678 333.416653 
L 494.092883 333.975441 
L 496.947292 334.87361 
L 498.374496 334.84964 
L 499.8017 334.637804 
L 501.228905 334.242539 
L 502.656109 334.276942 
L 504.083313 333.612516 
L 505.510518 333.490406 
L 508.364927 333.608818 
L 509.792131 334.490447 
L 511.219335 333.099886 
L 512.64654 332.77074 
L 514.073744 333.025585 
L 515.500948 333.398641 
L 516.928153 333.134213 
L 519.782562 332.896316 
L 521.209766 333.580342 
L 522.63697 333.07849 
L 524.064175 333.342773 
L 525.491379 333.100602 
L 526.918583 333.236116 
L 528.345788 333.230072 
L 529.772992 332.538883 
L 531.200197 332.671664 
L 532.627401 332.609973 
L 534.054605 332.089481 
L 535.48181 331.788003 
L 536.909014 331.600572 
L 538.336218 331.776374 
L 539.763423 331.828138 
L 541.190627 332.301028 
L 542.617832 331.769458 
L 544.045036 332.029474 
L 545.47224 332.687032 
L 546.899445 332.227247 
L 548.326649 332.052273 
L 549.753853 332.786429 
L 551.181058 332.953224 
L 552.608262 333.298219 
L 554.035467 334.179434 
L 555.462671 334.114434 
L 556.889875 334.689571 
L 558.31708 334.490595 
L 559.744284 334.527973 
L 561.171488 335.127561 
L 562.598693 334.257376 
L 564.025897 334.191316 
L 565.453102 333.25087 
L 566.880306 333.125591 
L 568.30751 333.864046 
L 569.734715 334.116611 
L 571.161919 333.694022 
L 572.589123 334.170264 
L 574.016328 334.33436 
L 575.443532 334.865162 
L 576.870737 335.07127 
L 578.297941 335.134106 
L 579.725145 334.932071 
L 581.15235 333.923818 
L 582.579554 334.418952 
L 584.006758 334.43511 
L 585.433963 334.798579 
L 586.861167 334.48622 
L 588.288371 334.51062 
L 589.715576 333.44251 
L 591.14278 332.978245 
L 592.569985 333.557398 
L 593.997189 333.298926 
L 595.424393 332.590111 
L 599.706006 332.865445 
L 601.133211 332.682102 
L 602.560415 331.187595 
L 603.98762 331.132037 
L 605.414824 330.634574 
L 606.842028 330.803639 
L 608.269233 331.309294 
L 609.696437 331.368759 
L 611.123641 331.882956 
L 612.550846 331.877143 
L 613.97805 331.666087 
L 615.405255 332.30066 
L 616.832459 332.235582 
L 618.259663 331.818906 
L 619.686868 332.633487 
L 621.114072 332.422062 
L 622.541276 333.127595 
L 623.968481 332.181204 
L 625.395685 331.955217 
L 626.82289 332.185239 
L 628.250094 332.573165 
L 631.104503 332.252398 
L 632.531707 331.815543 
L 633.958911 332.17792 
L 635.386116 332.08271 
L 638.240525 332.469435 
L 639.667729 332.421012 
L 641.094933 333.145186 
L 642.522138 332.379327 
L 645.376546 333.236413 
L 646.803751 331.985475 
L 648.230955 331.717969 
L 651.085364 332.231751 
L 652.512568 332.279694 
L 652.512568 332.279694 
" clip-path="url(#p60ec411c95)" style="fill: none; stroke: #9b8ac9; stroke-width: 1.2; stroke-linecap: square"/>
   </g>
   <g id="patch_3">
    <path d="M 56.0125 349.8636 
L 56.0125 34.5036 
" style="fill: none; stroke: #000000; stroke-width: 0.8; stroke-linejoin: miter; stroke-linecap: square"/>
   </g>
   <g id="patch_4">
    <path d="M 682.4125 349.8636 
L 682.4125 34.5036 
" style="fill: none; stroke: #000000; stroke-width: 0.8; stroke-linejoin: miter; stroke-linecap: square"/>
   </g>
   <g id="patch_5">
    <path d="M 56.0125 349.8636 
L 682.4125 349.8636 
" style="fill: none; stroke: #000000; stroke-width: 0.8; stroke-linejoin: miter; stroke-linecap: square"/>
   </g>
   <g id="patch_6">
    <path d="M 56.0125 34.5036 
L 682.4125 34.5036 
" style="fill: none; stroke: #000000; stroke-width: 0.8; stroke-linejoin: miter; stroke-linecap: square"/>
   </g>
   <g id="legend_1">
    <g id="patch_7">
     <path d="M 56.0125 31.35 
L 682.4125 31.35 
L 682.4125 7.2 
L 56.0125 7.2 
z
" style="fill: #ffffff; stroke: #808080; stroke-width: 0.8; stroke-linejoin: miter"/>
    </g>
    <g id="line2d_37">
     <path d="M 62.3125 18.4 
L 76.3125 18.4 
L 90.3125 18.4 
" style="fill: none; stroke: #1f77b4; stroke-width: 1.2; stroke-linecap: square"/>
    </g>
    <g id="text_19">
     <!-- GCN-DDQN -->
     <g transform="translate(98.7125 23.3) scale(0.14 -0.14)">
      <defs>
       <path id="SimHei-47" d="M 2850 75 
L 2425 75 
L 2350 425 
Q 2250 275 2037 175 
Q 1825 75 1575 75 
Q 1050 75 637 562 
Q 225 1050 225 2125 
Q 225 3300 600 3875 
Q 975 4450 1625 4450 
Q 2200 4450 2525 4025 
Q 2850 3600 2850 2925 
L 2300 2925 
Q 2300 3450 2125 3712 
Q 1950 3975 1625 3975 
Q 1225 3975 1025 3562 
Q 825 3150 825 2175 
Q 825 1250 1075 900 
Q 1325 550 1650 550 
Q 1975 550 2162 787 
Q 2350 1025 2350 1525 
L 2350 1800 
L 1575 1800 
L 1575 2275 
L 2850 2275 
L 2850 75 
z
" transform="scale(0.015625)"/>
       <path id="SimHei-43" d="M 2975 1825 
Q 2950 875 2575 475 
Q 2200 75 1675 75 
Q 1075 75 650 562 
Q 225 1050 225 2125 
Q 225 3300 637 3875 
Q 1050 4450 1700 4450 
Q 2250 4450 2612 4037 
Q 2975 3625 2950 2875 
L 2400 2875 
Q 2400 3425 2225 3700 
Q 2050 3975 1700 3975 
Q 1300 3975 1062 3562 
Q 825 3150 825 2175 
Q 825 1275 1062 912 
Q 1300 550 1675 550 
Q 1950 550 2175 812 
Q 2400 1075 2400 1825 
L 2975 1825 
z
" transform="scale(0.015625)"/>
       <path id="SimHei-4e" d="M 2850 125 
L 2225 125 
L 850 3225 
L 825 3225 
L 825 125 
L 250 125 
L 250 4400 
L 875 4400 
L 2250 1300 
L 2275 1300 
L 2275 4400 
L 2850 4400 
L 2850 125 
z
" transform="scale(0.015625)"/>
       <path id="SimHei-2d" d="M 2975 2125 
L 125 2125 
L 125 2525 
L 2975 2525 
L 2975 2125 
z
" transform="scale(0.015625)"/>
       <path id="SimHei-44" d="M 2925 2250 
Q 2925 1100 2437 612 
Q 1950 125 1125 125 
L 275 125 
L 275 4400 
L 1125 4400 
Q 2050 4400 2487 3900 
Q 2925 3400 2925 2250 
z
M 2325 2250 
Q 2325 3175 2025 3550 
Q 1725 3925 1125 3925 
L 850 3925 
L 850 600 
L 1125 600 
Q 1725 600 2025 962 
Q 2325 1325 2325 2250 
z
" transform="scale(0.015625)"/>
       <path id="SimHei-51" d="M 2950 2275 
Q 2950 1675 2862 1262 
Q 2775 850 2575 600 
L 2775 225 
L 2375 -200 
L 2150 225 
Q 2050 150 1900 112 
Q 1750 75 1575 75 
Q 925 75 550 587 
Q 175 1100 175 2275 
Q 175 3450 550 3950 
Q 925 4450 1575 4450 
Q 2225 4450 2587 3950 
Q 2950 3450 2950 2275 
z
M 2350 2275 
Q 2350 3325 2125 3650 
Q 1900 3975 1575 3975 
Q 1250 3975 1012 3650 
Q 775 3325 775 2275 
Q 775 1225 1012 887 
Q 1250 550 1575 550 
Q 1700 550 1800 587 
Q 1900 625 1950 675 
L 1550 1450 
L 1900 1875 
L 2250 1200 
Q 2300 1450 2325 1650 
Q 2350 1850 2350 2275 
z
" transform="scale(0.015625)"/>
      </defs>
      <use xlink:href="#SimHei-47"/>
      <use xlink:href="#SimHei-43" transform="translate(50 0)"/>
      <use xlink:href="#SimHei-4e" transform="translate(100 0)"/>
      <use xlink:href="#SimHei-2d" transform="translate(150 0)"/>
      <use xlink:href="#SimHei-44" transform="translate(200 0)"/>
      <use xlink:href="#SimHei-44" transform="translate(250 0)"/>
      <use xlink:href="#SimHei-51" transform="translate(300 0)"/>
      <use xlink:href="#SimHei-4e" transform="translate(350 0)"/>
     </g>
    </g>
    <g id="line2d_38">
     <path d="M 229.1125 18.4 
L 243.1125 18.4 
L 257.1125 18.4 
" style="fill: none; stroke: #ff7f0e; stroke-width: 1.2; stroke-linecap: square"/>
    </g>
    <g id="text_20">
     <!-- GCN-D3QN -->
     <g transform="translate(265.5125 23.3) scale(0.14 -0.14)">
      <use xlink:href="#SimHei-47"/>
      <use xlink:href="#SimHei-43" transform="translate(50 0)"/>
      <use xlink:href="#SimHei-4e" transform="translate(100 0)"/>
      <use xlink:href="#SimHei-2d" transform="translate(150 0)"/>
      <use xlink:href="#SimHei-44" transform="translate(200 0)"/>
      <use xlink:href="#SimHei-33" transform="translate(250 0)"/>
      <use xlink:href="#SimHei-51" transform="translate(300 0)"/>
      <use xlink:href="#SimHei-4e" transform="translate(350 0)"/>
     </g>
    </g>
    <g id="line2d_39">
     <path d="M 395.9125 18.4 
L 409.9125 18.4 
L 423.9125 18.4 
" style="fill: none; stroke: #2ca02c; stroke-width: 1.2; stroke-linecap: square"/>
    </g>
    <g id="text_21">
     <!-- GAT-LSTM-DDQN -->
     <g transform="translate(432.3125 23.3) scale(0.14 -0.14)">
      <defs>
       <path id="SimHei-41" d="M 3075 125 
L 2475 125 
L 2125 1450 
L 1025 1450 
L 675 125 
L 75 125 
L 1325 4450 
L 1825 4450 
L 3075 125 
z
M 2000 1925 
L 1600 3450 
L 1550 3450 
L 1150 1925 
L 2000 1925 
z
" transform="scale(0.015625)"/>
       <path id="SimHei-53" d="M 2900 1325 
Q 2900 750 2537 412 
Q 2175 75 1550 75 
Q 925 75 575 425 
Q 225 775 225 1300 
L 225 1475 
L 800 1475 
L 800 1325 
Q 800 950 1025 750 
Q 1250 550 1550 550 
Q 1950 550 2137 762 
Q 2325 975 2325 1275 
Q 2325 1525 2100 1737 
Q 1875 1950 1450 2125 
Q 850 2350 587 2625 
Q 325 2900 325 3275 
Q 325 3800 687 4125 
Q 1050 4450 1550 4450 
Q 2200 4450 2487 4062 
Q 2775 3675 2775 3225 
L 2200 3225 
Q 2225 3500 2050 3725 
Q 1875 3950 1550 3950 
Q 1250 3950 1075 3787 
Q 900 3625 900 3350 
Q 900 3125 1037 2962 
Q 1175 2800 1750 2575 
Q 2300 2350 2600 2037 
Q 2900 1725 2900 1325 
z
" transform="scale(0.015625)"/>
       <path id="SimHei-4d" d="M 2925 125 
L 2425 125 
L 2425 3175 
L 2375 3175 
L 1775 125 
L 1375 125 
L 775 3175 
L 725 3175 
L 725 125 
L 225 125 
L 225 4400 
L 1000 4400 
L 1550 1575 
L 1600 1575 
L 2150 4400 
L 2925 4400 
L 2925 125 
z
" transform="scale(0.015625)"/>
      </defs>
      <use xlink:href="#SimHei-47"/>
      <use xlink:href="#SimHei-41" transform="translate(50 0)"/>
      <use xlink:href="#SimHei-54" transform="translate(100 0)"/>
      <use xlink:href="#SimHei-2d" transform="translate(150 0)"/>
      <use xlink:href="#SimHei-4c" transform="translate(200 0)"/>
      <use xlink:href="#SimHei-53" transform="translate(250 0)"/>
      <use xlink:href="#SimHei-54" transform="translate(300 0)"/>
      <use xlink:href="#SimHei-4d" transform="translate(350 0)"/>
      <use xlink:href="#SimHei-2d" transform="translate(400 0)"/>
      <use xlink:href="#SimHei-44" transform="translate(450 0)"/>
      <use xlink:href="#SimHei-44" transform="translate(500 0)"/>
      <use xlink:href="#SimHei-51" transform="translate(550 0)"/>
      <use xlink:href="#SimHei-4e" transform="translate(600 0)"/>
     </g>
    </g>
    <g id="line2d_40">
     <path d="M 597.7125 18.4 
L 611.7125 18.4 
L 625.7125 18.4 
" style="fill: none; stroke: #9b8ac9; stroke-width: 1.2; stroke-linecap: square"/>
    </g>
    <g id="text_22">
     <!-- GLDVTO -->
     <g transform="translate(634.1125 23.3) scale(0.14 -0.14)">
      <defs>
       <path id="SimHei-56" d="M 3050 4400 
L 1800 75 
L 1300 75 
L 50 4400 
L 650 4400 
L 1525 1125 
L 1575 1125 
L 2450 4400 
L 3050 4400 
z
" transform="scale(0.015625)"/>
       <path id="SimHei-4f" d="M 2950 2275 
Q 2950 1100 2587 587 
Q 2225 75 1575 75 
Q 925 75 550 587 
Q 175 1100 175 2275 
Q 175 3450 550 3950 
Q 925 4450 1575 4450 
Q 2225 4450 2587 3950 
Q 2950 3450 2950 2275 
z
M 2350 2275 
Q 2350 3325 2125 3650 
Q 1900 3975 1575 3975 
Q 1250 3975 1012 3650 
Q 775 3325 775 2275 
Q 775 1225 1012 887 
Q 1250 550 1575 550 
Q 1900 550 2125 887 
Q 2350 1225 2350 2275 
z
" transform="scale(0.015625)"/>
      </defs>
      <use xlink:href="#SimHei-47"/>
      <use xlink:href="#SimHei-4c" transform="translate(50 0)"/>
      <use xlink:href="#SimHei-44" transform="translate(100 0)"/>
      <use xlink:href="#SimHei-56" transform="translate(150 0)"/>
      <use xlink:href="#SimHei-54" transform="translate(200 0)"/>
      <use xlink:href="#SimHei-4f" transform="translate(250 0)"/>
     </g>
    </g>
   </g>
  </g>
 </g>
 <defs>
  <clipPath id="p60ec411c95">
   <rect x="56.0125" y="34.5036" width="626.4" height="315.36"/>
  </clipPath>
 </defs>
</svg>
