<?xml version="1.0" encoding="utf-8" standalone="no"?>
<!DOCTYPE svg PUBLIC "-//W3C//DTD SVG 1.1//EN"
  "http://www.w3.org/Graphics/SVG/1.1/DTD/svg11.dtd">
<svg xmlns:xlink="http://www.w3.org/1999/xlink" width="683.6125pt" height="391.6261pt" viewBox="0 0 683.6125 391.6261" xmlns="http://www.w3.org/2000/svg" version="1.1">
 <metadata>
  <rdf:RDF xmlns:dc="http://purl.org/dc/elements/1.1/" xmlns:cc="http://creativecommons.org/ns#" xmlns:rdf="http://www.w3.org/1999/02/22-rdf-syntax-ns#">
   <cc:Work>
    <dc:type rdf:resource="http://purl.org/dc/dcmitype/StillImage"/>
    <dc:date>2026-07-09T21:49:23.467146</dc:date>
    <dc:format>image/svg+xml</dc:format>
    <dc:creator>
     <cc:Agent>
      <dc:title>Matplotlib v3.10.7, https://matplotlib.org/</dc:title>
     </cc:Agent>
    </dc:creator>
   </cc:Work>
  </rdf:RDF>
 </metadata>
 <defs>
  <style type="text/css">*{stroke-linejoin: round; stroke-linecap: butt}</style>
 </defs>
 <g id="figure_1">
  <g id="patch_1">
   <path d="M 0 391.6261 
L 683.6125 391.6261 
L 683.6125 0 
L 0 0 
z
" style="fill: #ffffff"/>
  </g>
  <g id="axes_1">
   <g id="patch_2">
    <path d="M 50.0125 349.8636 
L 676.4125 349.8636 
L 676.4125 34.5036 
L 50.0125 34.5036 
z
" style="fill: #ffffff"/>
   </g>
   <g id="matplotlib.axis_1">
    <g id="xtick_1">
     <g id="line2d_1">
      <path d="M 78.485227 349.8636 
L 78.485227 34.5036 
" clip-path="url(#pc47100350a)" style="fill: none; stroke-dasharray: 2.22,0.96; stroke-dashoffset: 0; stroke: #b0b0b0; stroke-opacity: 0.25; stroke-width: 0.6"/>
     </g>
     <g id="line2d_2">
      <defs>
       <path id="mf97761b692" d="M 0 0 
L 0 3.5 
" style="stroke: #000000; stroke-width: 0.8"/>
      </defs>
      <g>
       <use xlink:href="#mf97761b692" x="78.485227" y="349.8636" style="stroke: #000000; stroke-width: 0.8"/>
      </g>
     </g>
     <g id="text_1">
      <!-- 0 -->
      <g transform="translate(75.485227 365.1136) scale(0.12 -0.12)">
       <defs>
        <path id="SimHei-30" d="M 225 2537 
Q 250 3200 412 3587 
Q 575 3975 875 4225 
Q 1175 4475 1612 4475 
Q 2050 4475 2375 4112 
Q 2700 3750 2800 3200 
Q 2900 2650 2862 1937 
Q 2825 1225 2612 775 
Q 2400 325 1975 150 
Q 1550 -25 1125 187 
Q 700 400 525 750 
Q 350 1100 275 1487 
Q 200 1875 225 2537 
z
M 750 2687 
Q 675 2000 800 1462 
Q 925 925 1212 700 
Q 1500 475 1800 612 
Q 2100 750 2237 1162 
Q 2375 1575 2375 2062 
Q 2375 2550 2337 2950 
Q 2300 3350 2112 3675 
Q 1925 4000 1612 4012 
Q 1300 4025 1062 3700 
Q 825 3375 750 2687 
z
" transform="scale(0.015625)"/>
       </defs>
       <use xlink:href="#SimHei-30"/>
      </g>
     </g>
    </g>
    <g id="xtick_2">
     <g id="line2d_3">
      <path d="M 149.845446 349.8636 
L 149.845446 34.5036 
" clip-path="url(#pc47100350a)" style="fill: none; stroke-dasharray: 2.22,0.96; stroke-dashoffset: 0; stroke: #b0b0b0; stroke-opacity: 0.25; stroke-width: 0.6"/>
     </g>
     <g id="line2d_4">
      <g>
       <use xlink:href="#mf97761b692" x="149.845446" y="349.8636" style="stroke: #000000; stroke-width: 0.8"/>
      </g>
     </g>
     <g id="text_2">
      <!-- 50 -->
      <g transform="translate(143.845446 365.1136) scale(0.12 -0.12)">
       <defs>
        <path id="SimHei-35" d="M 550 1325 
Q 725 650 1150 575 
Q 1575 500 1837 662 
Q 2100 825 2212 1087 
Q 2325 1350 2312 1675 
Q 2300 2000 2137 2225 
Q 1975 2450 1725 2525 
Q 1475 2600 1162 2525 
Q 850 2450 650 2175 
L 225 2225 
Q 275 2375 700 4375 
L 2675 4375 
L 2675 3925 
L 1075 3925 
Q 950 3250 825 2850 
Q 1200 3025 1525 3012 
Q 1850 3000 2150 2862 
Q 2450 2725 2587 2487 
Q 2725 2250 2787 2012 
Q 2850 1775 2837 1500 
Q 2825 1225 2725 937 
Q 2625 650 2425 462 
Q 2225 275 1937 162 
Q 1650 50 1275 75 
Q 900 100 562 350 
Q 225 600 100 1200 
L 550 1325 
z
" transform="scale(0.015625)"/>
       </defs>
       <use xlink:href="#SimHei-35"/>
       <use xlink:href="#SimHei-30" transform="translate(50 0)"/>
      </g>
     </g>
    </g>
    <g id="xtick_3">
     <g id="line2d_5">
      <path d="M 221.205665 349.8636 
L 221.205665 34.5036 
" clip-path="url(#pc47100350a)" style="fill: none; stroke-dasharray: 2.22,0.96; stroke-dashoffset: 0; stroke: #b0b0b0; stroke-opacity: 0.25; stroke-width: 0.6"/>
     </g>
     <g id="line2d_6">
      <g>
       <use xlink:href="#mf97761b692" x="221.205665" y="349.8636" style="stroke: #000000; stroke-width: 0.8"/>
      </g>
     </g>
     <g id="text_3">
      <!-- 100 -->
      <g transform="translate(212.205665 365.1136) scale(0.12 -0.12)">
       <defs>
        <path id="SimHei-31" d="M 1400 3600 
Q 1075 3275 575 2975 
L 575 3450 
Q 1200 3875 1600 4450 
L 1900 4450 
L 1900 150 
L 1400 150 
L 1400 3600 
z
" transform="scale(0.015625)"/>
       </defs>
       <use xlink:href="#SimHei-31"/>
       <use xlink:href="#SimHei-30" transform="translate(50 0)"/>
       <use xlink:href="#SimHei-30" transform="translate(100 0)"/>
      </g>
     </g>
    </g>
    <g id="xtick_4">
     <g id="line2d_7">
      <path d="M 292.565883 349.8636 
L 292.565883 34.5036 
" clip-path="url(#pc47100350a)" style="fill: none; stroke-dasharray: 2.22,0.96; stroke-dashoffset: 0; stroke: #b0b0b0; stroke-opacity: 0.25; stroke-width: 0.6"/>
     </g>
     <g id="line2d_8">
      <g>
       <use xlink:href="#mf97761b692" x="292.565883" y="349.8636" style="stroke: #000000; stroke-width: 0.8"/>
      </g>
     </g>
     <g id="text_4">
      <!-- 150 -->
      <g transform="translate(283.565883 365.1136) scale(0.12 -0.12)">
       <use xlink:href="#SimHei-31"/>
       <use xlink:href="#SimHei-35" transform="translate(50 0)"/>
       <use xlink:href="#SimHei-30" transform="translate(100 0)"/>
      </g>
     </g>
    </g>
    <g id="xtick_5">
     <g id="line2d_9">
      <path d="M 363.926102 349.8636 
L 363.926102 34.5036 
" clip-path="url(#pc47100350a)" style="fill: none; stroke-dasharray: 2.22,0.96; stroke-dashoffset: 0; stroke: #b0b0b0; stroke-opacity: 0.25; stroke-width: 0.6"/>
     </g>
     <g id="line2d_10">
      <g>
       <use xlink:href="#mf97761b692" x="363.926102" y="349.8636" style="stroke: #000000; stroke-width: 0.8"/>
      </g>
     </g>
     <g id="text_5">
      <!-- 200 -->
      <g transform="translate(354.926102 365.1136) scale(0.12 -0.12)">
       <defs>
        <path id="SimHei-32" d="M 300 250 
Q 325 625 650 925 
Q 975 1225 1475 1862 
Q 1975 2500 2125 2850 
Q 2275 3200 2237 3450 
Q 2200 3700 2000 3862 
Q 1800 4025 1537 4000 
Q 1275 3975 1037 3800 
Q 800 3625 675 3275 
L 200 3350 
Q 400 3925 712 4187 
Q 1025 4450 1450 4475 
Q 1700 4500 1900 4462 
Q 2100 4425 2312 4287 
Q 2525 4150 2662 3875 
Q 2800 3600 2762 3212 
Q 2725 2825 2375 2287 
Q 2025 1750 1025 600 
L 2825 600 
L 2825 150 
L 300 150 
L 300 250 
z
" transform="scale(0.015625)"/>
       </defs>
       <use xlink:href="#SimHei-32"/>
       <use xlink:href="#SimHei-30" transform="translate(50 0)"/>
       <use xlink:href="#SimHei-30" transform="translate(100 0)"/>
      </g>
     </g>
    </g>
    <g id="xtick_6">
     <g id="line2d_11">
      <path d="M 435.286321 349.8636 
L 435.286321 34.5036 
" clip-path="url(#pc47100350a)" style="fill: none; stroke-dasharray: 2.22,0.96; stroke-dashoffset: 0; stroke: #b0b0b0; stroke-opacity: 0.25; stroke-width: 0.6"/>
     </g>
     <g id="line2d_12">
      <g>
       <use xlink:href="#mf97761b692" x="435.286321" y="349.8636" style="stroke: #000000; stroke-width: 0.8"/>
      </g>
     </g>
     <g id="text_6">
      <!-- 250 -->
      <g transform="translate(426.286321 365.1136) scale(0.12 -0.12)">
       <use xlink:href="#SimHei-32"/>
       <use xlink:href="#SimHei-35" transform="translate(50 0)"/>
       <use xlink:href="#SimHei-30" transform="translate(100 0)"/>
      </g>
     </g>
    </g>
    <g id="xtick_7">
     <g id="line2d_13">
      <path d="M 506.64654 349.8636 
L 506.64654 34.5036 
" clip-path="url(#pc47100350a)" style="fill: none; stroke-dasharray: 2.22,0.96; stroke-dashoffset: 0; stroke: #b0b0b0; stroke-opacity: 0.25; stroke-width: 0.6"/>
     </g>
     <g id="line2d_14">
      <g>
       <use xlink:href="#mf97761b692" x="506.64654" y="349.8636" style="stroke: #000000; stroke-width: 0.8"/>
      </g>
     </g>
     <g id="text_7">
      <!-- 300 -->
      <g transform="translate(497.64654 365.1136) scale(0.12 -0.12)">
       <defs>
        <path id="SimHei-33" d="M 250 1225 
L 700 1300 
Q 800 975 1025 762 
Q 1250 550 1587 562 
Q 1925 575 2125 837 
Q 2325 1100 2300 1437 
Q 2275 1775 2037 1962 
Q 1800 2150 1275 2225 
L 1275 2550 
Q 1800 2600 2037 2825 
Q 2275 3050 2250 3412 
Q 2225 3775 1925 3937 
Q 1625 4100 1287 3975 
Q 950 3850 750 3275 
L 300 3350 
Q 450 3800 712 4100 
Q 975 4400 1425 4450 
Q 1875 4500 2212 4337 
Q 2550 4175 2687 3837 
Q 2825 3500 2725 3100 
Q 2625 2700 2150 2400 
Q 2500 2250 2687 1950 
Q 2875 1650 2812 1162 
Q 2750 675 2375 375 
Q 2000 75 1525 87 
Q 1050 100 700 387 
Q 350 675 250 1225 
z
" transform="scale(0.015625)"/>
       </defs>
       <use xlink:href="#SimHei-33"/>
       <use xlink:href="#SimHei-30" transform="translate(50 0)"/>
       <use xlink:href="#SimHei-30" transform="translate(100 0)"/>
      </g>
     </g>
    </g>
    <g id="xtick_8">
     <g id="line2d_15">
      <path d="M 578.006758 349.8636 
L 578.006758 34.5036 
" clip-path="url(#pc47100350a)" style="fill: none; stroke-dasharray: 2.22,0.96; stroke-dashoffset: 0; stroke: #b0b0b0; stroke-opacity: 0.25; stroke-width: 0.6"/>
     </g>
     <g id="line2d_16">
      <g>
       <use xlink:href="#mf97761b692" x="578.006758" y="349.8636" style="stroke: #000000; stroke-width: 0.8"/>
      </g>
     </g>
     <g id="text_8">
      <!-- 350 -->
      <g transform="translate(569.006758 365.1136) scale(0.12 -0.12)">
       <use xlink:href="#SimHei-33"/>
       <use xlink:href="#SimHei-35" transform="translate(50 0)"/>
       <use xlink:href="#SimHei-30" transform="translate(100 0)"/>
      </g>
     </g>
    </g>
    <g id="xtick_9">
     <g id="line2d_17">
      <path d="M 649.366977 349.8636 
L 649.366977 34.5036 
" clip-path="url(#pc47100350a)" style="fill: none; stroke-dasharray: 2.22,0.96; stroke-dashoffset: 0; stroke: #b0b0b0; stroke-opacity: 0.25; stroke-width: 0.6"/>
     </g>
     <g id="line2d_18">
      <g>
       <use xlink:href="#mf97761b692" x="649.366977" y="349.8636" style="stroke: #000000; stroke-width: 0.8"/>
      </g>
     </g>
     <g id="text_9">
      <!-- 400 -->
      <g transform="translate(640.366977 365.1136) scale(0.12 -0.12)">
       <defs>
        <path id="SimHei-34" d="M 2000 1100 
L 75 1100 
L 75 1525 
L 2100 4450 
L 2475 4450 
L 2475 1525 
L 3075 1525 
L 3075 1100 
L 2475 1100 
L 2475 150 
L 2000 150 
L 2000 1100 
z
M 2000 1525 
L 2000 3500 
L 600 1525 
L 2000 1525 
z
" transform="scale(0.015625)"/>
       </defs>
       <use xlink:href="#SimHei-34"/>
       <use xlink:href="#SimHei-30" transform="translate(50 0)"/>
       <use xlink:href="#SimHei-30" transform="translate(100 0)"/>
      </g>
     </g>
    </g>
    <g id="text_10">
     <!-- Episode -->
     <g transform="translate(333.4625 382.3011) scale(0.17 -0.17)">
      <defs>
       <path id="SimHei-45" d="M 2900 125 
L 350 125 
L 350 4400 
L 2775 4400 
L 2775 3925 
L 925 3925 
L 925 2600 
L 2625 2600 
L 2625 2125 
L 925 2125 
L 925 600 
L 2900 600 
L 2900 125 
z
" transform="scale(0.015625)"/>
       <path id="SimHei-70" d="M 2825 1525 
Q 2825 800 2475 425 
Q 2125 50 1625 50 
Q 1350 50 1150 162 
Q 950 275 800 500 
L 800 -800 
L 300 -800 
L 300 2925 
L 800 2925 
L 800 2550 
Q 950 2775 1150 2875 
Q 1350 2975 1625 2975 
Q 2125 2975 2475 2612 
Q 2825 2250 2825 1525 
z
M 2275 1525 
Q 2275 2000 2087 2262 
Q 1900 2525 1525 2525 
Q 1225 2525 1012 2262 
Q 800 2000 800 1525 
Q 800 1050 1012 775 
Q 1225 500 1525 500 
Q 1900 500 2087 775 
Q 2275 1050 2275 1525 
z
" transform="scale(0.015625)"/>
       <path id="SimHei-69" d="M 1800 3725 
L 1300 3725 
L 1300 4375 
L 1800 4375 
L 1800 3725 
z
M 1800 125 
L 1300 125 
L 1300 2925 
L 1800 2925 
L 1800 125 
z
" transform="scale(0.015625)"/>
       <path id="SimHei-73" d="M 2750 900 
Q 2750 500 2437 287 
Q 2125 75 1650 75 
Q 1050 75 725 312 
Q 400 550 400 1000 
L 900 1000 
Q 900 700 1112 600 
Q 1325 500 1625 500 
Q 1925 500 2075 612 
Q 2225 725 2225 900 
Q 2225 1025 2100 1150 
Q 1975 1275 1475 1350 
Q 900 1425 687 1637 
Q 475 1850 475 2200 
Q 475 2500 762 2737 
Q 1050 2975 1600 2975 
Q 2100 2975 2387 2750 
Q 2675 2525 2675 2150 
L 2175 2150 
Q 2175 2375 2012 2462 
Q 1850 2550 1600 2550 
Q 1275 2550 1137 2437 
Q 1000 2325 1000 2175 
Q 1000 2000 1125 1900 
Q 1250 1800 1650 1750 
Q 2300 1650 2525 1437 
Q 2750 1225 2750 900 
z
" transform="scale(0.015625)"/>
       <path id="SimHei-6f" d="M 2925 1525 
Q 2925 875 2525 475 
Q 2125 75 1575 75 
Q 1025 75 625 475 
Q 225 875 225 1525 
Q 225 2175 625 2575 
Q 1025 2975 1575 2975 
Q 2125 2975 2525 2575 
Q 2925 2175 2925 1525 
z
M 2375 1525 
Q 2375 2025 2125 2275 
Q 1875 2525 1575 2525 
Q 1275 2525 1025 2275 
Q 775 2025 775 1525 
Q 775 1025 1025 775 
Q 1275 525 1575 525 
Q 1875 525 2125 775 
Q 2375 1025 2375 1525 
z
" transform="scale(0.015625)"/>
       <path id="SimHei-64" d="M 2750 125 
L 2250 125 
L 2250 500 
Q 2100 275 1900 175 
Q 1700 75 1425 75 
Q 925 75 575 437 
Q 225 800 225 1525 
Q 225 2250 575 2625 
Q 925 3000 1425 3000 
Q 1700 3000 1900 2887 
Q 2100 2775 2250 2550 
L 2250 4400 
L 2750 4400 
L 2750 125 
z
M 2250 1525 
Q 2250 2000 2037 2275 
Q 1825 2550 1525 2550 
Q 1150 2550 962 2275 
Q 775 2000 775 1525 
Q 775 1050 962 787 
Q 1150 525 1525 525 
Q 1825 525 2037 787 
Q 2250 1050 2250 1525 
z
" transform="scale(0.015625)"/>
       <path id="SimHei-65" d="M 2850 1075 
Q 2800 625 2450 350 
Q 2100 75 1625 75 
Q 1025 75 637 462 
Q 250 850 250 1525 
Q 250 2200 637 2587 
Q 1025 2975 1625 2975 
Q 2150 2975 2487 2637 
Q 2825 2300 2825 1525 
L 800 1525 
Q 800 975 1037 750 
Q 1275 525 1625 525 
Q 1900 525 2075 662 
Q 2250 800 2300 1075 
L 2850 1075 
z
M 2250 1925 
Q 2200 2275 2025 2412 
Q 1850 2550 1575 2550 
Q 1325 2550 1125 2412 
Q 925 2275 825 1925 
L 2250 1925 
z
" transform="scale(0.015625)"/>
      </defs>
      <use xlink:href="#SimHei-45"/>
      <use xlink:href="#SimHei-70" transform="translate(50 0)"/>
      <use xlink:href="#SimHei-69" transform="translate(100 0)"/>
      <use xlink:href="#SimHei-73" transform="translate(150 0)"/>
      <use xlink:href="#SimHei-6f" transform="translate(200 0)"/>
      <use xlink:href="#SimHei-64" transform="translate(250 0)"/>
      <use xlink:href="#SimHei-65" transform="translate(300 0)"/>
     </g>
    </g>
   </g>
   <g id="matplotlib.axis_2">
    <g id="ytick_1">
     <g id="line2d_19">
      <path d="M 50.0125 314.059696 
L 676.4125 314.059696 
" clip-path="url(#pc47100350a)" style="fill: none; stroke-dasharray: 2.22,0.96; stroke-dashoffset: 0; stroke: #b0b0b0; stroke-opacity: 0.25; stroke-width: 0.6"/>
     </g>
     <g id="line2d_20">
      <defs>
       <path id="m503a01b68d" d="M 0 0 
L -3.5 0 
" style="stroke: #000000; stroke-width: 0.8"/>
      </defs>
      <g>
       <use xlink:href="#m503a01b68d" x="50.0125" y="314.059696" style="stroke: #000000; stroke-width: 0.8"/>
      </g>
     </g>
     <g id="text_11">
      <!-- 1.0 -->
      <g transform="translate(25.0125 318.184696) scale(0.12 -0.12)">
       <defs>
        <path id="SimHei-2e" d="M 1075 125 
L 500 125 
L 500 675 
L 1075 675 
L 1075 125 
z
" transform="scale(0.015625)"/>
       </defs>
       <use xlink:href="#SimHei-31"/>
       <use xlink:href="#SimHei-2e" transform="translate(50 0)"/>
       <use xlink:href="#SimHei-30" transform="translate(100 0)"/>
      </g>
     </g>
    </g>
    <g id="ytick_2">
     <g id="line2d_21">
      <path d="M 50.0125 273.366843 
L 676.4125 273.366843 
" clip-path="url(#pc47100350a)" style="fill: none; stroke-dasharray: 2.22,0.96; stroke-dashoffset: 0; stroke: #b0b0b0; stroke-opacity: 0.25; stroke-width: 0.6"/>
     </g>
     <g id="line2d_22">
      <g>
       <use xlink:href="#m503a01b68d" x="50.0125" y="273.366843" style="stroke: #000000; stroke-width: 0.8"/>
      </g>
     </g>
     <g id="text_12">
      <!-- 1.5 -->
      <g transform="translate(25.0125 277.491843) scale(0.12 -0.12)">
       <use xlink:href="#SimHei-31"/>
       <use xlink:href="#SimHei-2e" transform="translate(50 0)"/>
       <use xlink:href="#SimHei-35" transform="translate(100 0)"/>
      </g>
     </g>
    </g>
    <g id="ytick_3">
     <g id="line2d_23">
      <path d="M 50.0125 232.67399 
L 676.4125 232.67399 
" clip-path="url(#pc47100350a)" style="fill: none; stroke-dasharray: 2.22,0.96; stroke-dashoffset: 0; stroke: #b0b0b0; stroke-opacity: 0.25; stroke-width: 0.6"/>
     </g>
     <g id="line2d_24">
      <g>
       <use xlink:href="#m503a01b68d" x="50.0125" y="232.67399" style="stroke: #000000; stroke-width: 0.8"/>
      </g>
     </g>
     <g id="text_13">
      <!-- 2.0 -->
      <g transform="translate(25.0125 236.79899) scale(0.12 -0.12)">
       <use xlink:href="#SimHei-32"/>
       <use xlink:href="#SimHei-2e" transform="translate(50 0)"/>
       <use xlink:href="#SimHei-30" transform="translate(100 0)"/>
      </g>
     </g>
    </g>
    <g id="ytick_4">
     <g id="line2d_25">
      <path d="M 50.0125 191.981138 
L 676.4125 191.981138 
" clip-path="url(#pc47100350a)" style="fill: none; stroke-dasharray: 2.22,0.96; stroke-dashoffset: 0; stroke: #b0b0b0; stroke-opacity: 0.25; stroke-width: 0.6"/>
     </g>
     <g id="line2d_26">
      <g>
       <use xlink:href="#m503a01b68d" x="50.0125" y="191.981138" style="stroke: #000000; stroke-width: 0.8"/>
      </g>
     </g>
     <g id="text_14">
      <!-- 2.5 -->
      <g transform="translate(25.0125 196.106138) scale(0.12 -0.12)">
       <use xlink:href="#SimHei-32"/>
       <use xlink:href="#SimHei-2e" transform="translate(50 0)"/>
       <use xlink:href="#SimHei-35" transform="translate(100 0)"/>
      </g>
     </g>
    </g>
    <g id="ytick_5">
     <g id="line2d_27">
      <path d="M 50.0125 151.288285 
L 676.4125 151.288285 
" clip-path="url(#pc47100350a)" style="fill: none; stroke-dasharray: 2.22,0.96; stroke-dashoffset: 0; stroke: #b0b0b0; stroke-opacity: 0.25; stroke-width: 0.6"/>
     </g>
     <g id="line2d_28">
      <g>
       <use xlink:href="#m503a01b68d" x="50.0125" y="151.288285" style="stroke: #000000; stroke-width: 0.8"/>
      </g>
     </g>
     <g id="text_15">
      <!-- 3.0 -->
      <g transform="translate(25.0125 155.413285) scale(0.12 -0.12)">
       <use xlink:href="#SimHei-33"/>
       <use xlink:href="#SimHei-2e" transform="translate(50 0)"/>
       <use xlink:href="#SimHei-30" transform="translate(100 0)"/>
      </g>
     </g>
    </g>
    <g id="ytick_6">
     <g id="line2d_29">
      <path d="M 50.0125 110.595432 
L 676.4125 110.595432 
" clip-path="url(#pc47100350a)" style="fill: none; stroke-dasharray: 2.22,0.96; stroke-dashoffset: 0; stroke: #b0b0b0; stroke-opacity: 0.25; stroke-width: 0.6"/>
     </g>
     <g id="line2d_30">
      <g>
       <use xlink:href="#m503a01b68d" x="50.0125" y="110.595432" style="stroke: #000000; stroke-width: 0.8"/>
      </g>
     </g>
     <g id="text_16">
      <!-- 3.5 -->
      <g transform="translate(25.0125 114.720432) scale(0.12 -0.12)">
       <use xlink:href="#SimHei-33"/>
       <use xlink:href="#SimHei-2e" transform="translate(50 0)"/>
       <use xlink:href="#SimHei-35" transform="translate(100 0)"/>
      </g>
     </g>
    </g>
    <g id="ytick_7">
     <g id="line2d_31">
      <path d="M 50.0125 69.902579 
L 676.4125 69.902579 
" clip-path="url(#pc47100350a)" style="fill: none; stroke-dasharray: 2.22,0.96; stroke-dashoffset: 0; stroke: #b0b0b0; stroke-opacity: 0.25; stroke-width: 0.6"/>
     </g>
     <g id="line2d_32">
      <g>
       <use xlink:href="#m503a01b68d" x="50.0125" y="69.902579" style="stroke: #000000; stroke-width: 0.8"/>
      </g>
     </g>
     <g id="text_17">
      <!-- 4.0 -->
      <g transform="translate(25.0125 74.027579) scale(0.12 -0.12)">
       <use xlink:href="#SimHei-34"/>
       <use xlink:href="#SimHei-2e" transform="translate(50 0)"/>
       <use xlink:href="#SimHei-30" transform="translate(100 0)"/>
      </g>
     </g>
    </g>
    <g id="text_18">
     <!-- Total Task Energy -->
     <g transform="translate(18.8875 264.4336) rotate(-90) scale(0.17 -0.17)">
      <defs>
       <path id="SimHei-54" d="M 2850 3925 
L 1850 3925 
L 1850 125 
L 1275 125 
L 1275 3925 
L 275 3925 
L 275 4400 
L 2850 4400 
L 2850 3925 
z
" transform="scale(0.015625)"/>
       <path id="SimHei-74" d="M 2750 200 
Q 2625 150 2462 112 
Q 2300 75 2025 75 
Q 1575 75 1300 325 
Q 1025 575 1025 1025 
L 1025 2525 
L 175 2525 
L 175 2925 
L 1025 2925 
L 1025 3900 
L 1525 3900 
L 1525 2925 
L 2550 2925 
L 2550 2525 
L 1525 2525 
L 1525 1000 
Q 1525 800 1625 662 
Q 1725 525 2000 525 
Q 2275 525 2450 575 
Q 2625 625 2750 700 
L 2750 200 
z
" transform="scale(0.015625)"/>
       <path id="SimHei-61" d="M 2875 125 
L 2275 125 
Q 2225 175 2200 262 
Q 2175 350 2175 475 
Q 2000 275 1750 175 
Q 1500 75 1225 75 
Q 825 75 550 275 
Q 275 475 275 850 
Q 275 1225 525 1450 
Q 775 1675 1300 1750 
Q 1650 1800 1912 1875 
Q 2175 1950 2175 2075 
Q 2175 2225 2062 2375 
Q 1950 2525 1575 2525 
Q 1275 2525 1137 2412 
Q 1000 2300 950 2100 
L 400 2100 
Q 450 2500 762 2737 
Q 1075 2975 1575 2975 
Q 2125 2975 2400 2725 
Q 2675 2475 2675 2025 
L 2675 650 
Q 2675 500 2725 375 
Q 2775 250 2875 125 
z
M 2175 1050 
L 2175 1550 
Q 2025 1500 1887 1462 
Q 1750 1425 1425 1375 
Q 1050 1325 937 1200 
Q 825 1075 825 900 
Q 825 750 937 637 
Q 1050 525 1275 525 
Q 1500 525 1762 650 
Q 2025 775 2175 1050 
z
" transform="scale(0.015625)"/>
       <path id="SimHei-6c" d="M 1825 125 
L 1325 125 
L 1325 4400 
L 1825 4400 
L 1825 125 
z
" transform="scale(0.015625)"/>
       <path id="SimHei-20" transform="scale(0.015625)"/>
       <path id="SimHei-6b" d="M 2925 125 
L 2350 125 
L 1450 1650 
L 875 1100 
L 875 125 
L 375 125 
L 375 4400 
L 875 4400 
L 875 1675 
L 2125 2925 
L 2750 2925 
L 1775 1975 
L 2925 125 
z
" transform="scale(0.015625)"/>
       <path id="SimHei-6e" d="M 2800 125 
L 2300 125 
L 2300 1925 
Q 2300 2225 2150 2400 
Q 2000 2575 1750 2575 
Q 1425 2575 1137 2237 
Q 850 1900 850 1400 
L 850 125 
L 350 125 
L 350 2925 
L 850 2925 
L 850 2400 
Q 1050 2675 1287 2825 
Q 1525 2975 1900 2975 
Q 2350 2975 2575 2725 
Q 2800 2475 2800 2100 
L 2800 125 
z
" transform="scale(0.015625)"/>
       <path id="SimHei-72" d="M 2500 2425 
Q 2025 2500 1700 2287 
Q 1375 2075 1150 1550 
L 1150 125 
L 650 125 
L 650 2925 
L 1150 2925 
L 1150 2200 
Q 1375 2600 1712 2787 
Q 2050 2975 2500 2975 
L 2500 2425 
z
" transform="scale(0.015625)"/>
       <path id="SimHei-67" d="M 2975 2500 
Q 2800 2550 2637 2562 
Q 2475 2575 2300 2525 
Q 2375 2450 2425 2337 
Q 2475 2225 2475 2000 
Q 2475 1575 2187 1300 
Q 1900 1025 1475 1025 
Q 1375 1025 1212 1062 
Q 1050 1100 950 1150 
Q 875 1100 850 1050 
Q 825 1000 825 925 
Q 825 800 1000 737 
Q 1175 675 1625 675 
Q 2350 675 2612 475 
Q 2875 275 2875 -25 
Q 2875 -425 2487 -612 
Q 2100 -800 1575 -800 
Q 900 -800 575 -625 
Q 250 -450 250 -150 
Q 250 0 375 150 
Q 500 300 700 400 
Q 550 475 462 587 
Q 375 700 375 875 
Q 375 1025 487 1137 
Q 600 1250 750 1325 
Q 625 1450 550 1625 
Q 475 1800 475 2000 
Q 475 2425 762 2700 
Q 1050 2975 1475 2975 
Q 1700 2975 1862 2912 
Q 2025 2850 2150 2725 
Q 2350 2875 2550 2937 
Q 2750 3000 2975 2975 
L 2975 2500 
z
M 1975 2000 
Q 1975 2250 1850 2400 
Q 1725 2550 1475 2550 
Q 1225 2550 1100 2400 
Q 975 2250 975 2000 
Q 975 1750 1100 1600 
Q 1225 1450 1475 1450 
Q 1725 1450 1850 1600 
Q 1975 1750 1975 2000 
z
M 2400 -75 
Q 2400 25 2287 125 
Q 2175 225 1725 225 
Q 1625 225 1450 237 
Q 1275 250 1050 275 
Q 850 200 775 100 
Q 700 0 700 -100 
Q 700 -250 900 -350 
Q 1100 -450 1600 -450 
Q 2025 -450 2212 -337 
Q 2400 -225 2400 -75 
z
" transform="scale(0.015625)"/>
       <path id="SimHei-79" d="M 2900 2925 
L 1750 -100 
Q 1650 -450 1450 -625 
Q 1250 -800 950 -800 
Q 825 -800 712 -787 
Q 600 -775 500 -725 
L 500 -225 
Q 600 -275 700 -300 
Q 800 -325 875 -325 
Q 1075 -325 1150 -262 
Q 1225 -200 1300 25 
L 200 2925 
L 750 2925 
L 1550 725 
L 1575 725 
L 2350 2925 
L 2900 2925 
z
" transform="scale(0.015625)"/>
      </defs>
      <use xlink:href="#SimHei-54"/>
      <use xlink:href="#SimHei-6f" transform="translate(50 0)"/>
      <use xlink:href="#SimHei-74" transform="translate(100 0)"/>
      <use xlink:href="#SimHei-61" transform="translate(150 0)"/>
      <use xlink:href="#SimHei-6c" transform="translate(200 0)"/>
      <use xlink:href="#SimHei-20" transform="translate(250 0)"/>
      <use xlink:href="#SimHei-54" transform="translate(300 0)"/>
      <use xlink:href="#SimHei-61" transform="translate(350 0)"/>
      <use xlink:href="#SimHei-73" transform="translate(400 0)"/>
      <use xlink:href="#SimHei-6b" transform="translate(450 0)"/>
      <use xlink:href="#SimHei-20" transform="translate(500 0)"/>
      <use xlink:href="#SimHei-45" transform="translate(550 0)"/>
      <use xlink:href="#SimHei-6e" transform="translate(600 0)"/>
      <use xlink:href="#SimHei-65" transform="translate(650 0)"/>
      <use xlink:href="#SimHei-72" transform="translate(700 0)"/>
      <use xlink:href="#SimHei-67" transform="translate(750 0)"/>
      <use xlink:href="#SimHei-79" transform="translate(800 0)"/>
     </g>
    </g>
   </g>
   <g id="line2d_33">
    <path d="M 78.485227 190.354485 
L 79.912432 182.421629 
L 81.339636 177.585489 
L 82.76684 164.396919 
L 84.194045 163.32487 
L 85.621249 156.754111 
L 87.048454 146.174484 
L 88.475658 143.294703 
L 89.902862 138.422401 
L 91.330067 139.487153 
L 92.757271 136.758301 
L 94.184475 130.280921 
L 95.61168 127.271698 
L 97.038884 129.208004 
L 98.466089 123.767528 
L 99.893293 125.72851 
L 101.320497 126.036765 
L 102.747702 124.546072 
L 104.174906 126.061446 
L 105.60211 121.854852 
L 107.029315 127.225228 
L 108.456519 122.847143 
L 109.883724 125.788781 
L 111.310928 128.358536 
L 112.738132 130.458833 
L 114.165337 117.440128 
L 115.592541 107.487616 
L 117.019745 115.192637 
L 118.44695 116.539921 
L 119.874154 109.918922 
L 121.301359 118.238336 
L 122.728563 112.614505 
L 124.155767 115.820274 
L 125.582972 112.682059 
L 127.010176 116.889138 
L 128.43738 111.759374 
L 129.864585 111.339136 
L 131.291789 117.052874 
L 132.718994 128.262838 
L 135.573402 148.456736 
L 138.427811 166.342238 
L 141.28222 182.975777 
L 142.709424 190.749867 
L 146.991037 211.506893 
L 149.845446 223.392951 
L 152.699855 233.907874 
L 159.835877 256.833203 
L 162.690285 264.338158 
L 166.971898 274.587343 
L 169.826307 280.213607 
L 172.680716 285.189241 
L 174.10792 287.099673 
L 178.389533 293.781122 
L 182.671147 299.702832 
L 184.098351 301.395659 
L 185.525555 302.862813 
L 188.379964 306.219501 
L 189.807168 307.331207 
L 191.234373 308.912751 
L 192.661577 310.264307 
L 196.94319 313.795613 
L 198.370395 314.570268 
L 199.797599 315.571726 
L 202.652008 317.188048 
L 204.079212 317.67959 
L 205.506417 318.816829 
L 206.933621 319.679252 
L 208.360825 319.850523 
L 209.78803 320.43003 
L 214.069643 322.92586 
L 216.924052 324.322986 
L 218.351256 325.075995 
L 221.205665 326.039147 
L 224.060073 326.840344 
L 226.914482 327.932329 
L 229.768891 328.634165 
L 231.196095 328.480195 
L 234.050504 328.904323 
L 239.759322 330.268381 
L 242.61373 330.979105 
L 244.040935 331.394013 
L 245.468139 331.556426 
L 246.895343 331.373486 
L 248.322548 331.320336 
L 251.176957 331.905456 
L 252.604161 331.980525 
L 254.031365 332.384173 
L 255.45857 332.489741 
L 259.740183 332.365629 
L 261.167387 332.627965 
L 262.594592 332.15381 
L 268.303409 332.471202 
L 269.730613 332.413049 
L 275.439431 333.491386 
L 276.866635 333.677297 
L 278.29384 333.460341 
L 279.721044 333.700627 
L 281.148248 333.762267 
L 282.575453 333.709234 
L 284.002657 333.98379 
L 286.857066 333.712729 
L 288.28427 333.944787 
L 292.565883 334.286096 
L 293.993088 334.093438 
L 295.420292 334.23192 
L 298.274701 334.20977 
L 299.701905 334.302222 
L 301.12911 333.23702 
L 302.556314 333.109308 
L 303.983518 333.234328 
L 305.410723 332.753944 
L 306.837927 331.875547 
L 308.265132 331.835219 
L 309.692336 332.049209 
L 311.11954 332.402344 
L 313.973949 332.775153 
L 318.255562 333.140391 
L 321.109971 333.088303 
L 322.537175 333.283032 
L 325.391584 333.231533 
L 328.245993 333.872083 
L 329.673197 333.33127 
L 333.95481 333.504248 
L 335.382015 331.458995 
L 336.809219 331.535637 
L 342.518037 332.38555 
L 343.945241 332.380557 
L 345.372445 332.135557 
L 346.79965 332.306264 
L 348.226854 332.145189 
L 351.081263 332.571948 
L 352.508467 332.077194 
L 353.935672 332.451258 
L 355.362876 332.473095 
L 356.79008 332.238542 
L 358.217285 332.138089 
L 362.498898 332.66249 
L 363.926102 332.913224 
L 365.353307 333.031532 
L 369.63492 332.867811 
L 371.062124 332.576689 
L 372.489328 332.711381 
L 373.916533 332.387637 
L 375.343737 332.332952 
L 376.770942 332.719516 
L 378.198146 332.841317 
L 379.62535 332.687704 
L 381.052555 332.658956 
L 382.479759 332.949788 
L 385.334168 333.13809 
L 386.761372 330.207319 
L 389.615781 330.345421 
L 395.324598 331.237681 
L 396.751803 331.202287 
L 398.179007 331.445747 
L 399.606212 327.173284 
L 405.315029 328.525181 
L 406.742233 328.471037 
L 408.169438 328.783966 
L 409.596642 327.07445 
L 411.023847 327.809124 
L 413.878255 328.538976 
L 415.30546 328.737611 
L 416.732664 329.131714 
L 418.159868 329.111731 
L 421.014277 329.944166 
L 422.441482 330.037758 
L 423.868686 330.583604 
L 425.29589 330.833615 
L 426.723095 330.911832 
L 428.150299 331.297136 
L 429.577503 331.498503 
L 432.431912 331.661624 
L 433.859117 331.983176 
L 435.286321 331.335009 
L 436.713525 331.401989 
L 439.567934 332.003037 
L 440.995138 331.824499 
L 443.849547 331.96114 
L 446.703956 332.639712 
L 449.558365 333.035086 
L 453.839978 332.650865 
L 456.694387 332.830464 
L 458.121591 332.750017 
L 459.548795 332.55073 
L 460.976 332.50728 
L 462.403204 332.835229 
L 465.257613 333.022623 
L 466.684817 333.320639 
L 470.96643 333.124016 
L 472.393635 332.848244 
L 473.820839 333.210504 
L 475.248043 333.061335 
L 476.675248 333.314217 
L 480.956861 333.607469 
L 483.81127 334.168955 
L 485.238474 333.99051 
L 486.665678 331.108132 
L 492.374496 331.999902 
L 493.8017 332.059514 
L 495.228905 332.295594 
L 496.656109 332.055578 
L 498.083313 331.955724 
L 499.510518 331.988929 
L 500.937722 332.139328 
L 502.364927 331.835689 
L 510.928153 332.56089 
L 513.782562 332.13746 
L 516.63697 332.718065 
L 518.064175 332.330735 
L 519.491379 332.692471 
L 526.627401 333.519207 
L 528.054605 333.483328 
L 529.48181 331.602878 
L 530.909014 331.468281 
L 532.336218 331.526108 
L 533.763423 331.706693 
L 535.190627 331.592576 
L 536.617832 331.964566 
L 540.899445 332.577392 
L 542.326649 332.445471 
L 543.753853 332.901013 
L 545.181058 332.715657 
L 546.608262 333.053826 
L 548.035467 332.94235 
L 549.462671 333.091238 
L 550.889875 332.87815 
L 553.744284 332.879126 
L 555.171488 330.221178 
L 558.025897 331.024195 
L 559.453102 330.915435 
L 562.30751 331.440193 
L 563.734715 331.718521 
L 565.161919 331.834721 
L 566.589123 331.692268 
L 569.443532 332.293589 
L 570.870737 332.085009 
L 572.297941 332.334239 
L 573.725145 331.967962 
L 575.15235 331.910599 
L 576.579554 331.692714 
L 578.006758 331.68344 
L 579.433963 332.009209 
L 580.861167 329.76543 
L 582.288371 329.847996 
L 585.14278 330.486305 
L 586.569985 330.781337 
L 587.997189 328.498413 
L 590.851598 329.464129 
L 592.278802 329.752584 
L 593.706006 330.252411 
L 597.98762 330.777485 
L 599.414824 331.171587 
L 603.696437 331.558618 
L 605.123641 331.997004 
L 606.550846 331.983974 
L 607.97805 332.164279 
L 609.405255 332.499869 
L 613.686868 332.82145 
L 615.114072 333.168117 
L 616.541276 332.966031 
L 619.395685 332.954957 
L 622.250094 333.385289 
L 623.677298 333.344946 
L 625.104503 333.478521 
L 626.531707 333.270486 
L 627.958911 330.687943 
L 629.386116 331.089185 
L 630.81332 331.103514 
L 632.240525 330.776742 
L 635.094933 331.173972 
L 636.522138 331.072833 
L 637.949342 330.764287 
L 639.376546 330.922872 
L 640.803751 330.660752 
L 647.939773 331.366266 
L 647.939773 331.366266 
" clip-path="url(#pc47100350a)" style="fill: none; stroke: #1f77b4; stroke-width: 1.2; stroke-linecap: square"/>
   </g>
   <g id="line2d_34">
    <path d="M 78.485227 247.835209 
L 79.912432 238.993564 
L 81.339636 224.068923 
L 82.76684 212.162328 
L 84.194045 203.846317 
L 85.621249 182.616148 
L 87.048454 181.723749 
L 88.475658 176.356388 
L 89.902862 163.372891 
L 91.330067 145.929109 
L 92.757271 136.978175 
L 94.184475 142.839715 
L 95.61168 134.796813 
L 97.038884 124.694645 
L 98.466089 127.279878 
L 99.893293 130.650102 
L 101.320497 130.858118 
L 102.747702 124.191587 
L 104.174906 119.59137 
L 105.60211 103.731781 
L 107.029315 110.05804 
L 108.456519 104.41035 
L 109.883724 102.392907 
L 111.310928 96.501304 
L 112.738132 94.805196 
L 114.165337 88.72006 
L 115.592541 93.033969 
L 117.019745 92.154786 
L 118.44695 91.821512 
L 119.874154 87.697906 
L 121.301359 93.410864 
L 122.728563 88.279318 
L 124.155767 84.620403 
L 125.582972 69.090703 
L 127.010176 69.431072 
L 128.43738 64.240715 
L 129.864585 62.711025 
L 131.291789 60.592455 
L 132.718994 63.826296 
L 134.146198 57.477249 
L 135.573402 49.540464 
L 137.000607 50.868025 
L 138.427811 48.838145 
L 142.709424 89.335435 
L 145.563833 113.556427 
L 148.418242 135.027014 
L 151.27265 154.518679 
L 152.699855 163.336952 
L 158.408672 194.524836 
L 159.835877 201.817779 
L 164.11749 221.093299 
L 168.399103 237.125429 
L 171.253512 246.687938 
L 174.10792 254.995363 
L 176.962329 262.726607 
L 179.816738 269.602935 
L 182.671147 276.187201 
L 184.098351 279.265667 
L 191.234373 291.873703 
L 192.661577 294.077486 
L 194.088782 296.073113 
L 195.515986 294.97345 
L 196.94319 297.27172 
L 198.370395 299.011047 
L 201.224803 301.917987 
L 205.506417 307.01366 
L 206.933621 308.363773 
L 211.215234 311.350639 
L 212.642438 312.607838 
L 215.496847 314.576708 
L 216.924052 315.699576 
L 218.351256 316.531168 
L 221.205665 318.668126 
L 224.060073 320.433162 
L 225.487278 321.356839 
L 226.914482 322.025354 
L 228.341687 322.148791 
L 232.6233 323.592618 
L 234.050504 323.888734 
L 235.477708 324.653735 
L 236.904913 325.064335 
L 239.759322 326.45391 
L 241.186526 326.929006 
L 242.61373 327.571555 
L 244.040935 327.952882 
L 245.468139 327.991572 
L 248.322548 328.331968 
L 249.749752 328.729035 
L 252.604161 329.275577 
L 254.031365 329.688903 
L 255.45857 329.823881 
L 258.312978 330.478127 
L 259.740183 330.540597 
L 262.594592 331.082384 
L 264.021796 330.975689 
L 268.303409 331.767687 
L 269.730613 331.735081 
L 272.585022 332.287587 
L 274.012227 332.33975 
L 276.866635 332.814801 
L 278.29384 332.890169 
L 279.721044 333.107795 
L 281.148248 333.05417 
L 284.002657 332.677434 
L 286.857066 332.591696 
L 289.711475 333.316036 
L 291.138679 333.073349 
L 293.993088 333.234594 
L 295.420292 332.878566 
L 296.847497 333.281631 
L 301.12911 333.570854 
L 303.983518 333.628683 
L 305.410723 333.17946 
L 306.837927 332.408147 
L 308.265132 332.397472 
L 312.546745 332.803846 
L 315.401153 333.093808 
L 316.828358 332.943258 
L 318.255562 333.093763 
L 321.109971 333.04622 
L 322.537175 333.243054 
L 325.391584 333.195452 
L 328.245993 333.83952 
L 329.673197 333.300335 
L 333.95481 333.477725 
L 335.382015 331.433799 
L 336.809219 331.511701 
L 342.518037 332.366054 
L 343.945241 332.362035 
L 345.372445 332.117961 
L 346.79965 332.289548 
L 348.226854 332.129309 
L 351.081263 332.557617 
L 352.508467 332.063579 
L 353.935672 332.438323 
L 355.362876 332.460807 
L 356.79008 332.226869 
L 358.217285 332.127 
L 362.498898 332.652982 
L 363.926102 332.904192 
L 365.353307 333.022951 
L 369.63492 332.860454 
L 371.062124 332.5697 
L 372.489328 332.704741 
L 373.916533 332.381329 
L 375.343737 332.32696 
L 376.770942 332.713823 
L 378.198146 332.835909 
L 379.62535 332.682567 
L 381.052555 332.654076 
L 382.479759 332.945151 
L 385.334168 333.133905 
L 386.761372 330.203343 
L 389.615781 330.341833 
L 395.324598 331.234759 
L 396.751803 331.199511 
L 398.179007 331.44311 
L 399.606212 327.170779 
L 405.315029 328.523141 
L 406.742233 328.469098 
L 408.169438 328.782124 
L 409.596642 327.072701 
L 411.023847 327.807461 
L 413.878255 328.537476 
L 415.30546 328.736186 
L 416.732664 329.13036 
L 418.159868 329.110445 
L 421.014277 329.943005 
L 422.441482 330.036656 
L 423.868686 330.582556 
L 425.29589 330.832619 
L 426.723095 330.910887 
L 428.150299 331.296237 
L 429.577503 331.49765 
L 432.431912 331.660854 
L 433.859117 331.982445 
L 435.286321 331.334314 
L 436.713525 331.401329 
L 439.567934 332.002441 
L 440.995138 331.823933 
L 443.849547 331.960629 
L 446.703956 332.639251 
L 449.558365 333.03467 
L 453.839978 332.650508 
L 456.694387 332.830142 
L 458.121591 332.749711 
L 459.548795 332.550439 
L 460.976 332.507004 
L 462.403204 332.834966 
L 465.257613 333.022386 
L 466.684817 333.320414 
L 470.96643 333.123823 
L 472.393635 332.848061 
L 473.820839 333.21033 
L 475.248043 333.061169 
L 476.675248 333.31406 
L 480.956861 333.607334 
L 483.81127 334.168833 
L 485.238474 333.990395 
L 486.665678 331.108023 
L 492.374496 331.999813 
L 493.8017 332.059429 
L 495.228905 332.295514 
L 496.656109 332.055502 
L 498.083313 331.955652 
L 499.510518 331.98886 
L 500.937722 332.139263 
L 502.364927 331.835626 
L 510.928153 332.560845 
L 513.782562 332.137419 
L 516.63697 332.718028 
L 518.064175 332.3307 
L 519.491379 332.692437 
L 526.627401 333.519181 
L 528.054605 333.483303 
L 529.48181 331.602855 
L 530.909014 331.468258 
L 532.336218 331.526087 
L 533.763423 331.706673 
L 535.190627 331.592557 
L 536.617832 331.964548 
L 540.899445 332.577377 
L 542.326649 332.445456 
L 543.753853 332.900998 
L 545.181058 332.715644 
L 546.608262 333.053813 
L 548.035467 332.942338 
L 549.462671 333.091226 
L 550.889875 332.878139 
L 553.744284 332.879116 
L 555.171488 330.221168 
L 558.025897 331.024187 
L 559.453102 330.915427 
L 562.30751 331.440186 
L 563.734715 331.718514 
L 565.161919 331.834715 
L 566.589123 331.692262 
L 569.443532 332.293583 
L 570.870737 332.085004 
L 572.297941 332.334234 
L 573.725145 331.967957 
L 575.15235 331.910594 
L 576.579554 331.69271 
L 578.006758 331.683436 
L 579.433963 332.009205 
L 580.861167 329.765426 
L 582.288371 329.847992 
L 585.14278 330.486301 
L 586.569985 330.781334 
L 587.997189 328.498411 
L 590.851598 329.464126 
L 592.278802 329.752581 
L 593.706006 330.252409 
L 597.98762 330.777483 
L 599.414824 331.171586 
L 603.696437 331.558617 
L 605.123641 331.997002 
L 606.550846 331.983973 
L 607.97805 332.164277 
L 609.405255 332.499868 
L 613.686868 332.821448 
L 615.114072 333.168116 
L 616.541276 332.96603 
L 619.395685 332.954956 
L 622.250094 333.385288 
L 623.677298 333.344945 
L 625.104503 333.47852 
L 626.531707 333.270485 
L 627.958911 330.687942 
L 629.386116 331.089185 
L 630.81332 331.103513 
L 632.240525 330.776742 
L 635.094933 331.173971 
L 636.522138 331.072832 
L 637.949342 330.764287 
L 639.376546 330.922872 
L 640.803751 330.660751 
L 646.512568 331.107197 
L 646.512568 331.107197 
" clip-path="url(#pc47100350a)" style="fill: none; stroke: #ff7f0e; stroke-width: 1.2; stroke-linecap: square"/>
   </g>
   <g id="line2d_35">
    <path d="M 78.485227 59.588691 
L 79.912432 56.66533 
L 81.339636 64.377689 
L 82.76684 64.527441 
L 84.194045 71.807587 
L 85.621249 72.562323 
L 87.048454 76.851874 
L 88.475658 75.351818 
L 89.902862 64.162585 
L 91.330067 73.072106 
L 92.757271 80.119378 
L 94.184475 85.031703 
L 95.61168 87.160837 
L 97.038884 81.080058 
L 98.466089 77.689458 
L 101.320497 100.813224 
L 102.747702 106.305088 
L 105.60211 128.189548 
L 108.456519 147.954199 
L 109.883724 156.970783 
L 111.310928 163.471026 
L 114.165337 179.814997 
L 117.019745 194.801054 
L 119.874154 208.152384 
L 125.582972 231.530945 
L 128.43738 241.335393 
L 131.291789 250.190875 
L 134.146198 258.739893 
L 139.855015 272.494544 
L 145.563833 283.969458 
L 146.991037 286.582981 
L 148.418242 288.927428 
L 149.845446 290.676779 
L 152.699855 294.832247 
L 155.554263 298.842086 
L 158.408672 302.292804 
L 159.835877 304.092686 
L 164.11749 308.180213 
L 166.971898 310.718545 
L 168.399103 309.700885 
L 171.253512 311.83298 
L 174.10792 314.914838 
L 178.389533 317.954699 
L 179.816738 317.598673 
L 186.95276 321.453357 
L 188.379964 321.678342 
L 189.807168 322.385288 
L 191.234373 323.245325 
L 195.515986 325.066095 
L 196.94319 325.533566 
L 198.370395 326.164334 
L 199.797599 326.61044 
L 201.224803 326.811464 
L 206.933621 328.503757 
L 208.360825 328.133525 
L 209.78803 328.541485 
L 211.215234 329.112761 
L 214.069643 329.723241 
L 215.496847 329.802627 
L 218.351256 330.653151 
L 222.632869 331.54202 
L 224.060073 331.418637 
L 225.487278 331.67726 
L 226.914482 331.593551 
L 228.341687 331.84868 
L 229.768891 331.717213 
L 231.196095 332.024512 
L 232.6233 331.967731 
L 234.050504 332.252259 
L 235.477708 332.128942 
L 238.332117 332.691127 
L 241.186526 332.526837 
L 242.61373 332.454314 
L 244.040935 332.543617 
L 245.468139 333.041822 
L 246.895343 332.949565 
L 248.322548 333.197027 
L 252.604161 333.609882 
L 255.45857 334.090638 
L 261.167387 334.058875 
L 262.594592 333.876617 
L 265.449 334.128682 
L 266.876205 334.096046 
L 269.730613 334.236082 
L 271.157818 332.333911 
L 272.585022 332.714235 
L 274.012227 332.438597 
L 276.866635 332.498971 
L 278.29384 332.082958 
L 279.721044 332.131711 
L 281.148248 332.514134 
L 285.429862 332.84538 
L 286.857066 332.586983 
L 288.28427 332.560272 
L 289.711475 332.975564 
L 291.138679 333.084094 
L 292.565883 323.169195 
L 295.420292 323.66961 
L 296.847497 324.130845 
L 298.274701 324.461122 
L 299.701905 324.533313 
L 305.410723 326.330549 
L 306.837927 326.633088 
L 312.546745 328.389809 
L 313.973949 328.357498 
L 315.401153 328.763593 
L 316.828358 328.809992 
L 319.682767 329.142403 
L 321.109971 329.292015 
L 322.537175 329.618843 
L 323.96438 329.7996 
L 325.391584 330.294395 
L 328.245993 330.71455 
L 329.673197 330.833836 
L 331.100402 331.177212 
L 332.527606 331.212463 
L 333.95481 331.645368 
L 335.382015 331.746472 
L 336.809219 332.103251 
L 339.663628 332.083321 
L 341.090832 332.0874 
L 343.945241 332.593434 
L 345.372445 332.647955 
L 346.79965 332.88584 
L 348.226854 332.860964 
L 349.654058 333.048049 
L 351.081263 333.054089 
L 352.508467 332.88645 
L 353.935672 332.598903 
L 356.79008 332.948418 
L 358.217285 332.631728 
L 359.644489 332.620946 
L 362.498898 333.03461 
L 363.926102 333.063755 
L 366.780511 333.601198 
L 368.207715 333.783219 
L 369.63492 334.082956 
L 371.062124 334.22547 
L 372.489328 334.501736 
L 376.770942 334.648331 
L 381.052555 334.214219 
L 382.479759 333.903883 
L 383.906963 333.334317 
L 389.615781 333.560147 
L 391.042985 333.886308 
L 396.751803 333.816723 
L 401.033416 333.977651 
L 402.46062 334.288907 
L 403.887825 332.795596 
L 405.315029 332.86238 
L 406.742233 331.549869 
L 408.169438 331.929843 
L 409.596642 332.170903 
L 415.30546 332.373113 
L 416.732664 331.972039 
L 418.159868 332.4346 
L 419.587073 332.374949 
L 421.014277 332.180875 
L 422.441482 332.198332 
L 423.868686 332.513261 
L 425.29589 332.423518 
L 426.723095 332.742888 
L 428.150299 332.487153 
L 429.577503 332.788501 
L 433.859117 332.909024 
L 435.286321 332.788674 
L 436.713525 329.806308 
L 438.14073 329.907998 
L 439.567934 330.293948 
L 442.422343 330.643104 
L 443.849547 330.907954 
L 445.276752 330.827802 
L 446.703956 330.884975 
L 450.985569 331.441761 
L 452.412773 331.034791 
L 455.267182 331.02399 
L 458.121591 331.514335 
L 459.548795 331.505203 
L 460.976 331.313146 
L 463.830408 331.794305 
L 466.684817 332.475705 
L 468.112022 332.285134 
L 475.248043 333.197542 
L 476.675248 333.067914 
L 478.102452 333.080831 
L 482.384065 333.68211 
L 483.81127 333.668294 
L 485.238474 333.914373 
L 486.665678 333.72463 
L 488.092883 333.253663 
L 489.520087 333.430645 
L 490.947292 333.253484 
L 492.374496 333.305171 
L 495.228905 333.663684 
L 496.656109 333.738357 
L 498.083313 333.969783 
L 499.510518 333.896921 
L 502.364927 333.447622 
L 503.792131 333.847256 
L 505.219335 334.106622 
L 506.64654 333.975713 
L 508.073744 334.100676 
L 509.500948 333.913133 
L 510.928153 333.848483 
L 512.355357 334.000547 
L 515.209766 333.87207 
L 516.63697 334.159696 
L 518.064175 333.71305 
L 519.491379 333.781684 
L 523.772992 334.584346 
L 525.200197 334.179315 
L 529.48181 334.086753 
L 533.763423 334.526444 
L 535.190627 334.750441 
L 536.617832 334.854978 
L 539.47224 334.753224 
L 540.899445 334.7111 
L 543.753853 334.222441 
L 545.181058 334.155146 
L 548.035467 334.420323 
L 549.462671 334.45997 
L 550.889875 334.639388 
L 555.171488 334.121822 
L 556.598693 334.383691 
L 558.025897 334.374909 
L 566.589123 335.343519 
L 568.016328 335.018324 
L 570.870737 334.740637 
L 572.297941 334.486562 
L 573.725145 334.696941 
L 579.433963 334.266176 
L 582.288371 334.708388 
L 585.14278 334.468057 
L 586.569985 334.452708 
L 589.424393 334.124522 
L 590.851598 334.400758 
L 593.706006 334.541671 
L 595.133211 334.515631 
L 596.560415 334.806327 
L 597.98762 334.477777 
L 599.414824 334.769268 
L 600.842028 334.8027 
L 602.269233 334.523215 
L 603.696437 334.470487 
L 605.123641 334.677487 
L 606.550846 334.462277 
L 607.97805 334.538417 
L 609.405255 334.253707 
L 610.832459 334.281147 
L 613.686868 334.062373 
L 615.114072 334.350585 
L 616.541276 334.441376 
L 620.82289 335.169615 
L 626.531707 335.169822 
L 627.958911 335.529055 
L 636.522138 334.88706 
L 639.376546 334.987567 
L 642.230955 334.895476 
L 645.085364 334.99152 
L 646.512568 334.680744 
L 646.512568 334.680744 
" clip-path="url(#pc47100350a)" style="fill: none; stroke: #2ca02c; stroke-width: 1.2; stroke-linecap: square"/>
   </g>
   <g id="line2d_36">
    <path d="M 78.485227 59.588691 
L 79.912432 65.401041 
L 81.339636 72.710658 
L 82.76684 77.460122 
L 85.621249 90.380006 
L 87.048454 89.770421 
L 88.475658 98.193376 
L 89.902862 109.408209 
L 91.330067 117.011558 
L 92.757271 127.796031 
L 94.184475 136.331325 
L 97.038884 155.761334 
L 98.466089 159.468391 
L 99.893293 166.715244 
L 102.747702 183.092403 
L 107.029315 204.512833 
L 108.456519 210.027121 
L 111.310928 221.968474 
L 112.738132 227.46387 
L 114.165337 232.397325 
L 115.592541 237.859713 
L 117.019745 241.297283 
L 118.44695 246.330753 
L 121.301359 254.552573 
L 124.155767 262.514292 
L 128.43738 272.563501 
L 131.291789 278.70895 
L 137.000607 288.745913 
L 141.28222 295.121612 
L 142.709424 297.220493 
L 144.136629 298.968034 
L 145.563833 301.052911 
L 148.418242 304.549459 
L 152.699855 308.560786 
L 154.127059 309.723551 
L 155.554263 300.744749 
L 156.981468 302.531525 
L 161.263081 307.218625 
L 165.544694 311.282089 
L 168.399103 313.574273 
L 174.10792 317.870458 
L 175.535125 318.210704 
L 176.962329 318.975816 
L 178.389533 319.959741 
L 179.816738 320.674631 
L 181.243942 314.314029 
L 182.671147 315.35905 
L 184.098351 316.699318 
L 186.95276 318.575411 
L 189.807168 319.926726 
L 191.234373 320.828732 
L 194.088782 322.137822 
L 204.079212 327.02912 
L 205.506417 327.387537 
L 206.933621 327.959067 
L 208.360825 328.299525 
L 211.215234 328.508667 
L 212.642438 328.870361 
L 214.069643 329.541136 
L 215.496847 329.822732 
L 216.924052 329.80901 
L 218.351256 329.959668 
L 221.205665 330.40162 
L 222.632869 330.106037 
L 224.060073 330.422677 
L 226.914482 330.8461 
L 228.341687 329.470503 
L 229.768891 329.584403 
L 231.196095 330.107102 
L 232.6233 325.410841 
L 235.477708 326.648394 
L 238.332117 327.657868 
L 239.759322 327.884134 
L 241.186526 328.421316 
L 242.61373 328.740577 
L 245.468139 328.983999 
L 246.895343 329.477916 
L 248.322548 329.599091 
L 251.176957 330.41346 
L 254.031365 330.335105 
L 255.45857 330.524355 
L 259.740183 331.476029 
L 261.167387 331.424494 
L 264.021796 332.056076 
L 265.449 332.212457 
L 272.585022 332.170009 
L 274.012227 332.314902 
L 275.439431 332.333574 
L 278.29384 331.955731 
L 279.721044 331.506228 
L 281.148248 331.600483 
L 284.002657 332.382573 
L 285.429862 332.524634 
L 288.28427 332.409306 
L 292.565883 332.765275 
L 293.993088 333.134428 
L 295.420292 333.004531 
L 296.847497 333.263807 
L 298.274701 333.101352 
L 299.701905 333.285038 
L 302.556314 333.42016 
L 303.983518 333.792872 
L 305.410723 333.71932 
L 306.837927 334.019445 
L 309.692336 333.599042 
L 312.546745 333.196744 
L 316.828358 333.430537 
L 318.255562 333.27577 
L 319.682767 333.378893 
L 322.537175 333.090683 
L 326.818788 333.286551 
L 328.245993 332.875572 
L 329.673197 333.181778 
L 332.527606 333.417938 
L 335.382015 333.736112 
L 338.236423 333.562131 
L 339.663628 334.015691 
L 341.090832 334.026669 
L 342.518037 333.878926 
L 343.945241 334.215745 
L 348.226854 334.002599 
L 351.081263 333.640234 
L 352.508467 333.841211 
L 353.935672 333.661887 
L 355.362876 333.654032 
L 356.79008 333.374229 
L 358.217285 333.233944 
L 361.071693 333.652278 
L 362.498898 332.939972 
L 368.207715 333.35531 
L 369.63492 333.078953 
L 371.062124 330.487031 
L 373.916533 331.353615 
L 375.343737 331.25495 
L 376.770942 331.362041 
L 378.198146 331.716621 
L 379.62535 331.832775 
L 383.906963 331.545176 
L 385.334168 331.547762 
L 386.761372 331.703602 
L 388.188577 331.717266 
L 391.042985 332.20455 
L 393.897394 332.565088 
L 395.324598 332.627823 
L 398.179007 332.931033 
L 399.606212 332.761499 
L 402.46062 332.754233 
L 406.742233 333.292501 
L 411.023847 333.464144 
L 413.878255 333.896556 
L 415.30546 333.762132 
L 419.587073 334.386709 
L 422.441482 333.937613 
L 423.868686 333.917133 
L 425.29589 333.710383 
L 428.150299 333.518592 
L 432.431912 333.953116 
L 433.859117 333.761808 
L 436.713525 334.199821 
L 442.422343 334.069511 
L 446.703956 333.28462 
L 448.13116 331.741239 
L 449.558365 331.993393 
L 450.985569 332.394734 
L 453.839978 332.605091 
L 455.267182 332.760711 
L 463.830408 332.81981 
L 465.257613 332.811001 
L 466.684817 332.640089 
L 468.112022 332.622351 
L 469.539226 332.925364 
L 470.96643 332.75758 
L 472.393635 333.0393 
L 473.820839 333.145232 
L 475.248043 333.1329 
L 476.675248 333.450986 
L 479.529657 333.711083 
L 480.956861 333.366591 
L 482.384065 333.243486 
L 485.238474 333.387315 
L 486.665678 333.853695 
L 488.092883 334.024508 
L 489.520087 334.024258 
L 493.8017 334.468713 
L 495.228905 334.086039 
L 496.656109 334.230475 
L 499.510518 334.276564 
L 506.64654 334.927647 
L 508.073744 334.518808 
L 509.500948 334.525728 
L 510.928153 334.117829 
L 512.355357 334.206391 
L 515.209766 334.045465 
L 516.63697 333.974244 
L 518.064175 333.676717 
L 523.772992 334.460577 
L 525.200197 334.123139 
L 528.054605 334.471055 
L 529.48181 334.11169 
L 532.336218 333.734473 
L 533.763423 333.993067 
L 536.617832 334.283624 
L 543.753853 334.047527 
L 549.462671 334.441899 
L 550.889875 334.17719 
L 552.31708 334.285374 
L 553.744284 334.150251 
L 555.171488 334.351234 
L 556.598693 334.422846 
L 558.025897 333.969871 
L 559.453102 330.68291 
L 562.30751 331.377325 
L 565.161919 331.623071 
L 568.016328 332.252415 
L 569.443532 332.379413 
L 572.297941 333.202858 
L 573.725145 333.170807 
L 576.579554 333.53642 
L 579.433963 333.879141 
L 580.861167 333.566089 
L 582.288371 333.599267 
L 583.715576 333.423007 
L 585.14278 333.381984 
L 586.569985 333.755274 
L 587.997189 333.875931 
L 592.278802 333.692244 
L 593.706006 333.858457 
L 596.560415 333.612379 
L 597.98762 333.913999 
L 600.842028 333.987722 
L 602.269233 334.170054 
L 607.97805 333.829183 
L 609.405255 334.238909 
L 610.832459 334.179876 
L 612.259663 334.376313 
L 613.686868 334.411558 
L 615.114072 334.788621 
L 616.541276 334.530864 
L 619.395685 334.376274 
L 620.82289 334.578681 
L 625.104503 334.325079 
L 626.531707 334.53746 
L 627.958911 334.93582 
L 629.386116 334.82838 
L 630.81332 335.064729 
L 632.240525 334.952703 
L 633.667729 335.229161 
L 635.094933 335.071826 
L 636.522138 333.934771 
L 637.949342 333.880717 
L 640.803751 333.493392 
L 642.230955 333.799684 
L 643.65816 333.469719 
L 645.085364 333.63972 
L 646.512568 334.146279 
L 646.512568 334.146279 
" clip-path="url(#pc47100350a)" style="fill: none; stroke: #9b8ac9; stroke-width: 1.2; stroke-linecap: square"/>
   </g>
   <g id="patch_3">
    <path d="M 50.0125 349.8636 
L 50.0125 34.5036 
" style="fill: none; stroke: #000000; stroke-width: 0.8; stroke-linejoin: miter; stroke-linecap: square"/>
   </g>
   <g id="patch_4">
    <path d="M 676.4125 349.8636 
L 676.4125 34.5036 
" style="fill: none; stroke: #000000; stroke-width: 0.8; stroke-linejoin: miter; stroke-linecap: square"/>
   </g>
   <g id="patch_5">
    <path d="M 50.0125 349.8636 
L 676.4125 349.8636 
" style="fill: none; stroke: #000000; stroke-width: 0.8; stroke-linejoin: miter; stroke-linecap: square"/>
   </g>
   <g id="patch_6">
    <path d="M 50.0125 34.5036 
L 676.4125 34.5036 
" style="fill: none; stroke: #000000; stroke-width: 0.8; stroke-linejoin: miter; stroke-linecap: square"/>
   </g>
   <g id="legend_1">
    <g id="patch_7">
     <path d="M 50.0125 31.35 
L 676.4125 31.35 
L 676.4125 7.2 
L 50.0125 7.2 
z
" style="fill: #ffffff; stroke: #808080; stroke-width: 0.8; stroke-linejoin: miter"/>
    </g>
    <g id="line2d_37">
     <path d="M 56.3125 18.4 
L 70.3125 18.4 
L 84.3125 18.4 
" style="fill: none; stroke: #1f77b4; stroke-width: 1.2; stroke-linecap: square"/>
    </g>
    <g id="text_19">
     <!-- GCN-DDQN -->
     <g transform="translate(92.7125 23.3) scale(0.14 -0.14)">
      <defs>
       <path id="SimHei-47" d="M 2850 75 
L 2425 75 
L 2350 425 
Q 2250 275 2037 175 
Q 1825 75 1575 75 
Q 1050 75 637 562 
Q 225 1050 225 2125 
Q 225 3300 600 3875 
Q 975 4450 1625 4450 
Q 2200 4450 2525 4025 
Q 2850 3600 2850 2925 
L 2300 2925 
Q 2300 3450 2125 3712 
Q 1950 3975 1625 3975 
Q 1225 3975 1025 3562 
Q 825 3150 825 2175 
Q 825 1250 1075 900 
Q 1325 550 1650 550 
Q 1975 550 2162 787 
Q 2350 1025 2350 1525 
L 2350 1800 
L 1575 1800 
L 1575 2275 
L 2850 2275 
L 2850 75 
z
" transform="scale(0.015625)"/>
       <path id="SimHei-43" d="M 2975 1825 
Q 2950 875 2575 475 
Q 2200 75 1675 75 
Q 1075 75 650 562 
Q 225 1050 225 2125 
Q 225 3300 637 3875 
Q 1050 4450 1700 4450 
Q 2250 4450 2612 4037 
Q 2975 3625 2950 2875 
L 2400 2875 
Q 2400 3425 2225 3700 
Q 2050 3975 1700 3975 
Q 1300 3975 1062 3562 
Q 825 3150 825 2175 
Q 825 1275 1062 912 
Q 1300 550 1675 550 
Q 1950 550 2175 812 
Q 2400 1075 2400 1825 
L 2975 1825 
z
" transform="scale(0.015625)"/>
       <path id="SimHei-4e" d="M 2850 125 
L 2225 125 
L 850 3225 
L 825 3225 
L 825 125 
L 250 125 
L 250 4400 
L 875 4400 
L 2250 1300 
L 2275 1300 
L 2275 4400 
L 2850 4400 
L 2850 125 
z
" transform="scale(0.015625)"/>
       <path id="SimHei-2d" d="M 2975 2125 
L 125 2125 
L 125 2525 
L 2975 2525 
L 2975 2125 
z
" transform="scale(0.015625)"/>
       <path id="SimHei-44" d="M 2925 2250 
Q 2925 1100 2437 612 
Q 1950 125 1125 125 
L 275 125 
L 275 4400 
L 1125 4400 
Q 2050 4400 2487 3900 
Q 2925 3400 2925 2250 
z
M 2325 2250 
Q 2325 3175 2025 3550 
Q 1725 3925 1125 3925 
L 850 3925 
L 850 600 
L 1125 600 
Q 1725 600 2025 962 
Q 2325 1325 2325 2250 
z
" transform="scale(0.015625)"/>
       <path id="SimHei-51" d="M 2950 2275 
Q 2950 1675 2862 1262 
Q 2775 850 2575 600 
L 2775 225 
L 2375 -200 
L 2150 225 
Q 2050 150 1900 112 
Q 1750 75 1575 75 
Q 925 75 550 587 
Q 175 1100 175 2275 
Q 175 3450 550 3950 
Q 925 4450 1575 4450 
Q 2225 4450 2587 3950 
Q 2950 3450 2950 2275 
z
M 2350 2275 
Q 2350 3325 2125 3650 
Q 1900 3975 1575 3975 
Q 1250 3975 1012 3650 
Q 775 3325 775 2275 
Q 775 1225 1012 887 
Q 1250 550 1575 550 
Q 1700 550 1800 587 
Q 1900 625 1950 675 
L 1550 1450 
L 1900 1875 
L 2250 1200 
Q 2300 1450 2325 1650 
Q 2350 1850 2350 2275 
z
" transform="scale(0.015625)"/>
      </defs>
      <use xlink:href="#SimHei-47"/>
      <use xlink:href="#SimHei-43" transform="translate(50 0)"/>
      <use xlink:href="#SimHei-4e" transform="translate(100 0)"/>
      <use xlink:href="#SimHei-2d" transform="translate(150 0)"/>
      <use xlink:href="#SimHei-44" transform="translate(200 0)"/>
      <use xlink:href="#SimHei-44" transform="translate(250 0)"/>
      <use xlink:href="#SimHei-51" transform="translate(300 0)"/>
      <use xlink:href="#SimHei-4e" transform="translate(350 0)"/>
     </g>
    </g>
    <g id="line2d_38">
     <path d="M 223.1125 18.4 
L 237.1125 18.4 
L 251.1125 18.4 
" style="fill: none; stroke: #ff7f0e; stroke-width: 1.2; stroke-linecap: square"/>
    </g>
    <g id="text_20">
     <!-- GCN-D3QN -->
     <g transform="translate(259.5125 23.3) scale(0.14 -0.14)">
      <use xlink:href="#SimHei-47"/>
      <use xlink:href="#SimHei-43" transform="translate(50 0)"/>
      <use xlink:href="#SimHei-4e" transform="translate(100 0)"/>
      <use xlink:href="#SimHei-2d" transform="translate(150 0)"/>
      <use xlink:href="#SimHei-44" transform="translate(200 0)"/>
      <use xlink:href="#SimHei-33" transform="translate(250 0)"/>
      <use xlink:href="#SimHei-51" transform="translate(300 0)"/>
      <use xlink:href="#SimHei-4e" transform="translate(350 0)"/>
     </g>
    </g>
    <g id="line2d_39">
     <path d="M 389.9125 18.4 
L 403.9125 18.4 
L 417.9125 18.4 
" style="fill: none; stroke: #2ca02c; stroke-width: 1.2; stroke-linecap: square"/>
    </g>
    <g id="text_21">
     <!-- GAT-LSTM-DDQN -->
     <g transform="translate(426.3125 23.3) scale(0.14 -0.14)">
      <defs>
       <path id="SimHei-41" d="M 3075 125 
L 2475 125 
L 2125 1450 
L 1025 1450 
L 675 125 
L 75 125 
L 1325 4450 
L 1825 4450 
L 3075 125 
z
M 2000 1925 
L 1600 3450 
L 1550 3450 
L 1150 1925 
L 2000 1925 
z
" transform="scale(0.015625)"/>
       <path id="SimHei-4c" d="M 2900 125 
L 300 125 
L 300 4400 
L 875 4400 
L 875 600 
L 2900 600 
L 2900 125 
z
" transform="scale(0.015625)"/>
       <path id="SimHei-53" d="M 2900 1325 
Q 2900 750 2537 412 
Q 2175 75 1550 75 
Q 925 75 575 425 
Q 225 775 225 1300 
L 225 1475 
L 800 1475 
L 800 1325 
Q 800 950 1025 750 
Q 1250 550 1550 550 
Q 1950 550 2137 762 
Q 2325 975 2325 1275 
Q 2325 1525 2100 1737 
Q 1875 1950 1450 2125 
Q 850 2350 587 2625 
Q 325 2900 325 3275 
Q 325 3800 687 4125 
Q 1050 4450 1550 4450 
Q 2200 4450 2487 4062 
Q 2775 3675 2775 3225 
L 2200 3225 
Q 2225 3500 2050 3725 
Q 1875 3950 1550 3950 
Q 1250 3950 1075 3787 
Q 900 3625 900 3350 
Q 900 3125 1037 2962 
Q 1175 2800 1750 2575 
Q 2300 2350 2600 2037 
Q 2900 1725 2900 1325 
z
" transform="scale(0.015625)"/>
       <path id="SimHei-4d" d="M 2925 125 
L 2425 125 
L 2425 3175 
L 2375 3175 
L 1775 125 
L 1375 125 
L 775 3175 
L 725 3175 
L 725 125 
L 225 125 
L 225 4400 
L 1000 4400 
L 1550 1575 
L 1600 1575 
L 2150 4400 
L 2925 4400 
L 2925 125 
z
" transform="scale(0.015625)"/>
      </defs>
      <use xlink:href="#SimHei-47"/>
      <use xlink:href="#SimHei-41" transform="translate(50 0)"/>
      <use xlink:href="#SimHei-54" transform="translate(100 0)"/>
      <use xlink:href="#SimHei-2d" transform="translate(150 0)"/>
      <use xlink:href="#SimHei-4c" transform="translate(200 0)"/>
      <use xlink:href="#SimHei-53" transform="translate(250 0)"/>
      <use xlink:href="#SimHei-54" transform="translate(300 0)"/>
      <use xlink:href="#SimHei-4d" transform="translate(350 0)"/>
      <use xlink:href="#SimHei-2d" transform="translate(400 0)"/>
      <use xlink:href="#SimHei-44" transform="translate(450 0)"/>
      <use xlink:href="#SimHei-44" transform="translate(500 0)"/>
      <use xlink:href="#SimHei-51" transform="translate(550 0)"/>
      <use xlink:href="#SimHei-4e" transform="translate(600 0)"/>
     </g>
    </g>
    <g id="line2d_40">
     <path d="M 591.7125 18.4 
L 605.7125 18.4 
L 619.7125 18.4 
" style="fill: none; stroke: #9b8ac9; stroke-width: 1.2; stroke-linecap: square"/>
    </g>
    <g id="text_22">
     <!-- GLDVTO -->
     <g transform="translate(628.1125 23.3) scale(0.14 -0.14)">
      <defs>
       <path id="SimHei-56" d="M 3050 4400 
L 1800 75 
L 1300 75 
L 50 4400 
L 650 4400 
L 1525 1125 
L 1575 1125 
L 2450 4400 
L 3050 4400 
z
" transform="scale(0.015625)"/>
       <path id="SimHei-4f" d="M 2950 2275 
Q 2950 1100 2587 587 
Q 2225 75 1575 75 
Q 925 75 550 587 
Q 175 1100 175 2275 
Q 175 3450 550 3950 
Q 925 4450 1575 4450 
Q 2225 4450 2587 3950 
Q 2950 3450 2950 2275 
z
M 2350 2275 
Q 2350 3325 2125 3650 
Q 1900 3975 1575 3975 
Q 1250 3975 1012 3650 
Q 775 3325 775 2275 
Q 775 1225 1012 887 
Q 1250 550 1575 550 
Q 1900 550 2125 887 
Q 2350 1225 2350 2275 
z
" transform="scale(0.015625)"/>
      </defs>
      <use xlink:href="#SimHei-47"/>
      <use xlink:href="#SimHei-4c" transform="translate(50 0)"/>
      <use xlink:href="#SimHei-44" transform="translate(100 0)"/>
      <use xlink:href="#SimHei-56" transform="translate(150 0)"/>
      <use xlink:href="#SimHei-54" transform="translate(200 0)"/>
      <use xlink:href="#SimHei-4f" transform="translate(250 0)"/>
     </g>
    </g>
   </g>
  </g>
 </g>
 <defs>
  <clipPath id="pc47100350a">
   <rect x="50.0125" y="34.5036" width="626.4" height="315.36"/>
  </clipPath>
 </defs>
</svg>
