<?xml version="1.0" encoding="utf-8" standalone="no"?>
<!DOCTYPE svg PUBLIC "-//W3C//DTD SVG 1.1//EN"
  "http://www.w3.org/Graphics/SVG/1.1/DTD/svg11.dtd">
<svg xmlns:xlink="http://www.w3.org/1999/xlink" width="621.9pt" height="397.915pt" viewBox="0 0 621.9 397.915" xmlns="http://www.w3.org/2000/svg" version="1.1">
 <metadata>
  <rdf:RDF xmlns:dc="http://purl.org/dc/elements/1.1/" xmlns:cc="http://creativecommons.org/ns#" xmlns:rdf="http://www.w3.org/1999/02/22-rdf-syntax-ns#">
   <cc:Work>
    <dc:type rdf:resource="http://purl.org/dc/dcmitype/StillImage"/>
    <dc:date>2026-06-26T17:53:36.427942</dc:date>
    <dc:format>image/svg+xml</dc:format>
    <dc:creator>
     <cc:Agent>
      <dc:title>Matplotlib v3.10.7, https://matplotlib.org/</dc:title>
     </cc:Agent>
    </dc:creator>
   </cc:Work>
  </rdf:RDF>
 </metadata>
 <defs>
  <style type="text/css">*{stroke-linejoin: round; stroke-linecap: butt}</style>
 </defs>
 <g id="figure_1">
  <g id="patch_1">
   <path d="M 0 397.915 
L 621.9 397.915 
L 621.9 -0 
L 0 -0 
z
" style="fill: #ffffff"/>
  </g>
  <g id="axes_1">
   <g id="patch_2">
    <path d="M 56.7 356.965 
L 614.7 356.965 
L 614.7 24.325 
L 56.7 24.325 
z
" style="fill: #ffffff"/>
   </g>
   <g id="matplotlib.axis_1">
    <g id="xtick_1">
     <g id="line2d_1">
      <path d="M 82.063636 356.965 
L 82.063636 24.325 
" clip-path="url(#p51339636d8)" style="fill: none; stroke: #b0b0b0; stroke-opacity: 0.3; stroke-width: 0.8; stroke-linecap: square"/>
     </g>
     <g id="line2d_2">
      <defs>
       <path id="m4cd0aa1b2d" d="M 0 0 
L 0 3.5 
" style="stroke: #000000; stroke-width: 0.8"/>
      </defs>
      <g>
       <use xlink:href="#m4cd0aa1b2d" x="82.063636" y="356.965" style="stroke: #000000; stroke-width: 0.8"/>
      </g>
     </g>
     <g id="text_1">
      <!-- 0 -->
      <g transform="translate(79.063636 372.215) scale(0.12 -0.12)">
       <defs>
        <path id="SimHei-30" d="M 225 2537 
Q 250 3200 412 3587 
Q 575 3975 875 4225 
Q 1175 4475 1612 4475 
Q 2050 4475 2375 4112 
Q 2700 3750 2800 3200 
Q 2900 2650 2862 1937 
Q 2825 1225 2612 775 
Q 2400 325 1975 150 
Q 1550 -25 1125 187 
Q 700 400 525 750 
Q 350 1100 275 1487 
Q 200 1875 225 2537 
z
M 750 2687 
Q 675 2000 800 1462 
Q 925 925 1212 700 
Q 1500 475 1800 612 
Q 2100 750 2237 1162 
Q 2375 1575 2375 2062 
Q 2375 2550 2337 2950 
Q 2300 3350 2112 3675 
Q 1925 4000 1612 4012 
Q 1300 4025 1062 3700 
Q 825 3375 750 2687 
z
" transform="scale(0.015625)"/>
       </defs>
       <use xlink:href="#SimHei-30"/>
      </g>
     </g>
    </g>
    <g id="xtick_2">
     <g id="line2d_3">
      <path d="M 145.631647 356.965 
L 145.631647 24.325 
" clip-path="url(#p51339636d8)" style="fill: none; stroke: #b0b0b0; stroke-opacity: 0.3; stroke-width: 0.8; stroke-linecap: square"/>
     </g>
     <g id="line2d_4">
      <g>
       <use xlink:href="#m4cd0aa1b2d" x="145.631647" y="356.965" style="stroke: #000000; stroke-width: 0.8"/>
      </g>
     </g>
     <g id="text_2">
      <!-- 50 -->
      <g transform="translate(139.631647 372.215) scale(0.12 -0.12)">
       <defs>
        <path id="SimHei-35" d="M 550 1325 
Q 725 650 1150 575 
Q 1575 500 1837 662 
Q 2100 825 2212 1087 
Q 2325 1350 2312 1675 
Q 2300 2000 2137 2225 
Q 1975 2450 1725 2525 
Q 1475 2600 1162 2525 
Q 850 2450 650 2175 
L 225 2225 
Q 275 2375 700 4375 
L 2675 4375 
L 2675 3925 
L 1075 3925 
Q 950 3250 825 2850 
Q 1200 3025 1525 3012 
Q 1850 3000 2150 2862 
Q 2450 2725 2587 2487 
Q 2725 2250 2787 2012 
Q 2850 1775 2837 1500 
Q 2825 1225 2725 937 
Q 2625 650 2425 462 
Q 2225 275 1937 162 
Q 1650 50 1275 75 
Q 900 100 562 350 
Q 225 600 100 1200 
L 550 1325 
z
" transform="scale(0.015625)"/>
       </defs>
       <use xlink:href="#SimHei-35"/>
       <use xlink:href="#SimHei-30" transform="translate(50 0)"/>
      </g>
     </g>
    </g>
    <g id="xtick_3">
     <g id="line2d_5">
      <path d="M 209.199658 356.965 
L 209.199658 24.325 
" clip-path="url(#p51339636d8)" style="fill: none; stroke: #b0b0b0; stroke-opacity: 0.3; stroke-width: 0.8; stroke-linecap: square"/>
     </g>
     <g id="line2d_6">
      <g>
       <use xlink:href="#m4cd0aa1b2d" x="209.199658" y="356.965" style="stroke: #000000; stroke-width: 0.8"/>
      </g>
     </g>
     <g id="text_3">
      <!-- 100 -->
      <g transform="translate(200.199658 372.215) scale(0.12 -0.12)">
       <defs>
        <path id="SimHei-31" d="M 1400 3600 
Q 1075 3275 575 2975 
L 575 3450 
Q 1200 3875 1600 4450 
L 1900 4450 
L 1900 150 
L 1400 150 
L 1400 3600 
z
" transform="scale(0.015625)"/>
       </defs>
       <use xlink:href="#SimHei-31"/>
       <use xlink:href="#SimHei-30" transform="translate(50 0)"/>
       <use xlink:href="#SimHei-30" transform="translate(100 0)"/>
      </g>
     </g>
    </g>
    <g id="xtick_4">
     <g id="line2d_7">
      <path d="M 272.767669 356.965 
L 272.767669 24.325 
" clip-path="url(#p51339636d8)" style="fill: none; stroke: #b0b0b0; stroke-opacity: 0.3; stroke-width: 0.8; stroke-linecap: square"/>
     </g>
     <g id="line2d_8">
      <g>
       <use xlink:href="#m4cd0aa1b2d" x="272.767669" y="356.965" style="stroke: #000000; stroke-width: 0.8"/>
      </g>
     </g>
     <g id="text_4">
      <!-- 150 -->
      <g transform="translate(263.767669 372.215) scale(0.12 -0.12)">
       <use xlink:href="#SimHei-31"/>
       <use xlink:href="#SimHei-35" transform="translate(50 0)"/>
       <use xlink:href="#SimHei-30" transform="translate(100 0)"/>
      </g>
     </g>
    </g>
    <g id="xtick_5">
     <g id="line2d_9">
      <path d="M 336.33568 356.965 
L 336.33568 24.325 
" clip-path="url(#p51339636d8)" style="fill: none; stroke: #b0b0b0; stroke-opacity: 0.3; stroke-width: 0.8; stroke-linecap: square"/>
     </g>
     <g id="line2d_10">
      <g>
       <use xlink:href="#m4cd0aa1b2d" x="336.33568" y="356.965" style="stroke: #000000; stroke-width: 0.8"/>
      </g>
     </g>
     <g id="text_5">
      <!-- 200 -->
      <g transform="translate(327.33568 372.215) scale(0.12 -0.12)">
       <defs>
        <path id="SimHei-32" d="M 300 250 
Q 325 625 650 925 
Q 975 1225 1475 1862 
Q 1975 2500 2125 2850 
Q 2275 3200 2237 3450 
Q 2200 3700 2000 3862 
Q 1800 4025 1537 4000 
Q 1275 3975 1037 3800 
Q 800 3625 675 3275 
L 200 3350 
Q 400 3925 712 4187 
Q 1025 4450 1450 4475 
Q 1700 4500 1900 4462 
Q 2100 4425 2312 4287 
Q 2525 4150 2662 3875 
Q 2800 3600 2762 3212 
Q 2725 2825 2375 2287 
Q 2025 1750 1025 600 
L 2825 600 
L 2825 150 
L 300 150 
L 300 250 
z
" transform="scale(0.015625)"/>
       </defs>
       <use xlink:href="#SimHei-32"/>
       <use xlink:href="#SimHei-30" transform="translate(50 0)"/>
       <use xlink:href="#SimHei-30" transform="translate(100 0)"/>
      </g>
     </g>
    </g>
    <g id="xtick_6">
     <g id="line2d_11">
      <path d="M 399.903691 356.965 
L 399.903691 24.325 
" clip-path="url(#p51339636d8)" style="fill: none; stroke: #b0b0b0; stroke-opacity: 0.3; stroke-width: 0.8; stroke-linecap: square"/>
     </g>
     <g id="line2d_12">
      <g>
       <use xlink:href="#m4cd0aa1b2d" x="399.903691" y="356.965" style="stroke: #000000; stroke-width: 0.8"/>
      </g>
     </g>
     <g id="text_6">
      <!-- 250 -->
      <g transform="translate(390.903691 372.215) scale(0.12 -0.12)">
       <use xlink:href="#SimHei-32"/>
       <use xlink:href="#SimHei-35" transform="translate(50 0)"/>
       <use xlink:href="#SimHei-30" transform="translate(100 0)"/>
      </g>
     </g>
    </g>
    <g id="xtick_7">
     <g id="line2d_13">
      <path d="M 463.471702 356.965 
L 463.471702 24.325 
" clip-path="url(#p51339636d8)" style="fill: none; stroke: #b0b0b0; stroke-opacity: 0.3; stroke-width: 0.8; stroke-linecap: square"/>
     </g>
     <g id="line2d_14">
      <g>
       <use xlink:href="#m4cd0aa1b2d" x="463.471702" y="356.965" style="stroke: #000000; stroke-width: 0.8"/>
      </g>
     </g>
     <g id="text_7">
      <!-- 300 -->
      <g transform="translate(454.471702 372.215) scale(0.12 -0.12)">
       <defs>
        <path id="SimHei-33" d="M 250 1225 
L 700 1300 
Q 800 975 1025 762 
Q 1250 550 1587 562 
Q 1925 575 2125 837 
Q 2325 1100 2300 1437 
Q 2275 1775 2037 1962 
Q 1800 2150 1275 2225 
L 1275 2550 
Q 1800 2600 2037 2825 
Q 2275 3050 2250 3412 
Q 2225 3775 1925 3937 
Q 1625 4100 1287 3975 
Q 950 3850 750 3275 
L 300 3350 
Q 450 3800 712 4100 
Q 975 4400 1425 4450 
Q 1875 4500 2212 4337 
Q 2550 4175 2687 3837 
Q 2825 3500 2725 3100 
Q 2625 2700 2150 2400 
Q 2500 2250 2687 1950 
Q 2875 1650 2812 1162 
Q 2750 675 2375 375 
Q 2000 75 1525 87 
Q 1050 100 700 387 
Q 350 675 250 1225 
z
" transform="scale(0.015625)"/>
       </defs>
       <use xlink:href="#SimHei-33"/>
       <use xlink:href="#SimHei-30" transform="translate(50 0)"/>
       <use xlink:href="#SimHei-30" transform="translate(100 0)"/>
      </g>
     </g>
    </g>
    <g id="xtick_8">
     <g id="line2d_15">
      <path d="M 527.039713 356.965 
L 527.039713 24.325 
" clip-path="url(#p51339636d8)" style="fill: none; stroke: #b0b0b0; stroke-opacity: 0.3; stroke-width: 0.8; stroke-linecap: square"/>
     </g>
     <g id="line2d_16">
      <g>
       <use xlink:href="#m4cd0aa1b2d" x="527.039713" y="356.965" style="stroke: #000000; stroke-width: 0.8"/>
      </g>
     </g>
     <g id="text_8">
      <!-- 350 -->
      <g transform="translate(518.039713 372.215) scale(0.12 -0.12)">
       <use xlink:href="#SimHei-33"/>
       <use xlink:href="#SimHei-35" transform="translate(50 0)"/>
       <use xlink:href="#SimHei-30" transform="translate(100 0)"/>
      </g>
     </g>
    </g>
    <g id="xtick_9">
     <g id="line2d_17">
      <path d="M 590.607724 356.965 
L 590.607724 24.325 
" clip-path="url(#p51339636d8)" style="fill: none; stroke: #b0b0b0; stroke-opacity: 0.3; stroke-width: 0.8; stroke-linecap: square"/>
     </g>
     <g id="line2d_18">
      <g>
       <use xlink:href="#m4cd0aa1b2d" x="590.607724" y="356.965" style="stroke: #000000; stroke-width: 0.8"/>
      </g>
     </g>
     <g id="text_9">
      <!-- 400 -->
      <g transform="translate(581.607724 372.215) scale(0.12 -0.12)">
       <defs>
        <path id="SimHei-34" d="M 2000 1100 
L 75 1100 
L 75 1525 
L 2100 4450 
L 2475 4450 
L 2475 1525 
L 3075 1525 
L 3075 1100 
L 2475 1100 
L 2475 150 
L 2000 150 
L 2000 1100 
z
M 2000 1525 
L 2000 3500 
L 600 1525 
L 2000 1525 
z
" transform="scale(0.015625)"/>
       </defs>
       <use xlink:href="#SimHei-34"/>
       <use xlink:href="#SimHei-30" transform="translate(50 0)"/>
       <use xlink:href="#SimHei-30" transform="translate(100 0)"/>
      </g>
     </g>
    </g>
    <g id="text_10">
     <!-- Episode -->
     <g transform="translate(307.7 388.715) scale(0.16 -0.16)">
      <defs>
       <path id="SimHei-45" d="M 2900 125 
L 350 125 
L 350 4400 
L 2775 4400 
L 2775 3925 
L 925 3925 
L 925 2600 
L 2625 2600 
L 2625 2125 
L 925 2125 
L 925 600 
L 2900 600 
L 2900 125 
z
" transform="scale(0.015625)"/>
       <path id="SimHei-70" d="M 2825 1525 
Q 2825 800 2475 425 
Q 2125 50 1625 50 
Q 1350 50 1150 162 
Q 950 275 800 500 
L 800 -800 
L 300 -800 
L 300 2925 
L 800 2925 
L 800 2550 
Q 950 2775 1150 2875 
Q 1350 2975 1625 2975 
Q 2125 2975 2475 2612 
Q 2825 2250 2825 1525 
z
M 2275 1525 
Q 2275 2000 2087 2262 
Q 1900 2525 1525 2525 
Q 1225 2525 1012 2262 
Q 800 2000 800 1525 
Q 800 1050 1012 775 
Q 1225 500 1525 500 
Q 1900 500 2087 775 
Q 2275 1050 2275 1525 
z
" transform="scale(0.015625)"/>
       <path id="SimHei-69" d="M 1800 3725 
L 1300 3725 
L 1300 4375 
L 1800 4375 
L 1800 3725 
z
M 1800 125 
L 1300 125 
L 1300 2925 
L 1800 2925 
L 1800 125 
z
" transform="scale(0.015625)"/>
       <path id="SimHei-73" d="M 2750 900 
Q 2750 500 2437 287 
Q 2125 75 1650 75 
Q 1050 75 725 312 
Q 400 550 400 1000 
L 900 1000 
Q 900 700 1112 600 
Q 1325 500 1625 500 
Q 1925 500 2075 612 
Q 2225 725 2225 900 
Q 2225 1025 2100 1150 
Q 1975 1275 1475 1350 
Q 900 1425 687 1637 
Q 475 1850 475 2200 
Q 475 2500 762 2737 
Q 1050 2975 1600 2975 
Q 2100 2975 2387 2750 
Q 2675 2525 2675 2150 
L 2175 2150 
Q 2175 2375 2012 2462 
Q 1850 2550 1600 2550 
Q 1275 2550 1137 2437 
Q 1000 2325 1000 2175 
Q 1000 2000 1125 1900 
Q 1250 1800 1650 1750 
Q 2300 1650 2525 1437 
Q 2750 1225 2750 900 
z
" transform="scale(0.015625)"/>
       <path id="SimHei-6f" d="M 2925 1525 
Q 2925 875 2525 475 
Q 2125 75 1575 75 
Q 1025 75 625 475 
Q 225 875 225 1525 
Q 225 2175 625 2575 
Q 1025 2975 1575 2975 
Q 2125 2975 2525 2575 
Q 2925 2175 2925 1525 
z
M 2375 1525 
Q 2375 2025 2125 2275 
Q 1875 2525 1575 2525 
Q 1275 2525 1025 2275 
Q 775 2025 775 1525 
Q 775 1025 1025 775 
Q 1275 525 1575 525 
Q 1875 525 2125 775 
Q 2375 1025 2375 1525 
z
" transform="scale(0.015625)"/>
       <path id="SimHei-64" d="M 2750 125 
L 2250 125 
L 2250 500 
Q 2100 275 1900 175 
Q 1700 75 1425 75 
Q 925 75 575 437 
Q 225 800 225 1525 
Q 225 2250 575 2625 
Q 925 3000 1425 3000 
Q 1700 3000 1900 2887 
Q 2100 2775 2250 2550 
L 2250 4400 
L 2750 4400 
L 2750 125 
z
M 2250 1525 
Q 2250 2000 2037 2275 
Q 1825 2550 1525 2550 
Q 1150 2550 962 2275 
Q 775 2000 775 1525 
Q 775 1050 962 787 
Q 1150 525 1525 525 
Q 1825 525 2037 787 
Q 2250 1050 2250 1525 
z
" transform="scale(0.015625)"/>
       <path id="SimHei-65" d="M 2850 1075 
Q 2800 625 2450 350 
Q 2100 75 1625 75 
Q 1025 75 637 462 
Q 250 850 250 1525 
Q 250 2200 637 2587 
Q 1025 2975 1625 2975 
Q 2150 2975 2487 2637 
Q 2825 2300 2825 1525 
L 800 1525 
Q 800 975 1037 750 
Q 1275 525 1625 525 
Q 1900 525 2075 662 
Q 2250 800 2300 1075 
L 2850 1075 
z
M 2250 1925 
Q 2200 2275 2025 2412 
Q 1850 2550 1575 2550 
Q 1325 2550 1125 2412 
Q 925 2275 825 1925 
L 2250 1925 
z
" transform="scale(0.015625)"/>
      </defs>
      <use xlink:href="#SimHei-45"/>
      <use xlink:href="#SimHei-70" transform="translate(50 0)"/>
      <use xlink:href="#SimHei-69" transform="translate(100 0)"/>
      <use xlink:href="#SimHei-73" transform="translate(150 0)"/>
      <use xlink:href="#SimHei-6f" transform="translate(200 0)"/>
      <use xlink:href="#SimHei-64" transform="translate(250 0)"/>
      <use xlink:href="#SimHei-65" transform="translate(300 0)"/>
     </g>
    </g>
   </g>
   <g id="matplotlib.axis_2">
    <g id="ytick_1">
     <g id="line2d_19">
      <path d="M 56.7 337.827976 
L 614.7 337.827976 
" clip-path="url(#p51339636d8)" style="fill: none; stroke: #b0b0b0; stroke-opacity: 0.3; stroke-width: 0.8; stroke-linecap: square"/>
     </g>
     <g id="line2d_20">
      <defs>
       <path id="m9ed59a8f32" d="M 0 0 
L -3.5 0 
" style="stroke: #000000; stroke-width: 0.8"/>
      </defs>
      <g>
       <use xlink:href="#m9ed59a8f32" x="56.7" y="337.827976" style="stroke: #000000; stroke-width: 0.8"/>
      </g>
     </g>
     <g id="text_11">
      <!-- 0.05 -->
      <g transform="translate(25.7 341.952976) scale(0.12 -0.12)">
       <defs>
        <path id="SimHei-2e" d="M 1075 125 
L 500 125 
L 500 675 
L 1075 675 
L 1075 125 
z
" transform="scale(0.015625)"/>
       </defs>
       <use xlink:href="#SimHei-30"/>
       <use xlink:href="#SimHei-2e" transform="translate(50 0)"/>
       <use xlink:href="#SimHei-30" transform="translate(100 0)"/>
       <use xlink:href="#SimHei-35" transform="translate(150 0)"/>
      </g>
     </g>
    </g>
    <g id="ytick_2">
     <g id="line2d_21">
      <path d="M 56.7 278.134302 
L 614.7 278.134302 
" clip-path="url(#p51339636d8)" style="fill: none; stroke: #b0b0b0; stroke-opacity: 0.3; stroke-width: 0.8; stroke-linecap: square"/>
     </g>
     <g id="line2d_22">
      <g>
       <use xlink:href="#m9ed59a8f32" x="56.7" y="278.134302" style="stroke: #000000; stroke-width: 0.8"/>
      </g>
     </g>
     <g id="text_12">
      <!-- 0.10 -->
      <g transform="translate(25.7 282.259302) scale(0.12 -0.12)">
       <use xlink:href="#SimHei-30"/>
       <use xlink:href="#SimHei-2e" transform="translate(50 0)"/>
       <use xlink:href="#SimHei-31" transform="translate(100 0)"/>
       <use xlink:href="#SimHei-30" transform="translate(150 0)"/>
      </g>
     </g>
    </g>
    <g id="ytick_3">
     <g id="line2d_23">
      <path d="M 56.7 218.440628 
L 614.7 218.440628 
" clip-path="url(#p51339636d8)" style="fill: none; stroke: #b0b0b0; stroke-opacity: 0.3; stroke-width: 0.8; stroke-linecap: square"/>
     </g>
     <g id="line2d_24">
      <g>
       <use xlink:href="#m9ed59a8f32" x="56.7" y="218.440628" style="stroke: #000000; stroke-width: 0.8"/>
      </g>
     </g>
     <g id="text_13">
      <!-- 0.15 -->
      <g transform="translate(25.7 222.565628) scale(0.12 -0.12)">
       <use xlink:href="#SimHei-30"/>
       <use xlink:href="#SimHei-2e" transform="translate(50 0)"/>
       <use xlink:href="#SimHei-31" transform="translate(100 0)"/>
       <use xlink:href="#SimHei-35" transform="translate(150 0)"/>
      </g>
     </g>
    </g>
    <g id="ytick_4">
     <g id="line2d_25">
      <path d="M 56.7 158.746955 
L 614.7 158.746955 
" clip-path="url(#p51339636d8)" style="fill: none; stroke: #b0b0b0; stroke-opacity: 0.3; stroke-width: 0.8; stroke-linecap: square"/>
     </g>
     <g id="line2d_26">
      <g>
       <use xlink:href="#m9ed59a8f32" x="56.7" y="158.746955" style="stroke: #000000; stroke-width: 0.8"/>
      </g>
     </g>
     <g id="text_14">
      <!-- 0.20 -->
      <g transform="translate(25.7 162.871955) scale(0.12 -0.12)">
       <use xlink:href="#SimHei-30"/>
       <use xlink:href="#SimHei-2e" transform="translate(50 0)"/>
       <use xlink:href="#SimHei-32" transform="translate(100 0)"/>
       <use xlink:href="#SimHei-30" transform="translate(150 0)"/>
      </g>
     </g>
    </g>
    <g id="ytick_5">
     <g id="line2d_27">
      <path d="M 56.7 99.053281 
L 614.7 99.053281 
" clip-path="url(#p51339636d8)" style="fill: none; stroke: #b0b0b0; stroke-opacity: 0.3; stroke-width: 0.8; stroke-linecap: square"/>
     </g>
     <g id="line2d_28">
      <g>
       <use xlink:href="#m9ed59a8f32" x="56.7" y="99.053281" style="stroke: #000000; stroke-width: 0.8"/>
      </g>
     </g>
     <g id="text_15">
      <!-- 0.25 -->
      <g transform="translate(25.7 103.178281) scale(0.12 -0.12)">
       <use xlink:href="#SimHei-30"/>
       <use xlink:href="#SimHei-2e" transform="translate(50 0)"/>
       <use xlink:href="#SimHei-32" transform="translate(100 0)"/>
       <use xlink:href="#SimHei-35" transform="translate(150 0)"/>
      </g>
     </g>
    </g>
    <g id="ytick_6">
     <g id="line2d_29">
      <path d="M 56.7 39.359607 
L 614.7 39.359607 
" clip-path="url(#p51339636d8)" style="fill: none; stroke: #b0b0b0; stroke-opacity: 0.3; stroke-width: 0.8; stroke-linecap: square"/>
     </g>
     <g id="line2d_30">
      <g>
       <use xlink:href="#m9ed59a8f32" x="56.7" y="39.359607" style="stroke: #000000; stroke-width: 0.8"/>
      </g>
     </g>
     <g id="text_16">
      <!-- 0.30 -->
      <g transform="translate(25.7 43.484607) scale(0.12 -0.12)">
       <use xlink:href="#SimHei-30"/>
       <use xlink:href="#SimHei-2e" transform="translate(50 0)"/>
       <use xlink:href="#SimHei-33" transform="translate(100 0)"/>
       <use xlink:href="#SimHei-30" transform="translate(150 0)"/>
      </g>
     </g>
    </g>
    <g id="text_17">
     <!-- Delay (s) -->
     <g transform="translate(19.7 226.645) rotate(-90) scale(0.16 -0.16)">
      <defs>
       <path id="SimHei-44" d="M 2925 2250 
Q 2925 1100 2437 612 
Q 1950 125 1125 125 
L 275 125 
L 275 4400 
L 1125 4400 
Q 2050 4400 2487 3900 
Q 2925 3400 2925 2250 
z
M 2325 2250 
Q 2325 3175 2025 3550 
Q 1725 3925 1125 3925 
L 850 3925 
L 850 600 
L 1125 600 
Q 1725 600 2025 962 
Q 2325 1325 2325 2250 
z
" transform="scale(0.015625)"/>
       <path id="SimHei-6c" d="M 1825 125 
L 1325 125 
L 1325 4400 
L 1825 4400 
L 1825 125 
z
" transform="scale(0.015625)"/>
       <path id="SimHei-61" d="M 2875 125 
L 2275 125 
Q 2225 175 2200 262 
Q 2175 350 2175 475 
Q 2000 275 1750 175 
Q 1500 75 1225 75 
Q 825 75 550 275 
Q 275 475 275 850 
Q 275 1225 525 1450 
Q 775 1675 1300 1750 
Q 1650 1800 1912 1875 
Q 2175 1950 2175 2075 
Q 2175 2225 2062 2375 
Q 1950 2525 1575 2525 
Q 1275 2525 1137 2412 
Q 1000 2300 950 2100 
L 400 2100 
Q 450 2500 762 2737 
Q 1075 2975 1575 2975 
Q 2125 2975 2400 2725 
Q 2675 2475 2675 2025 
L 2675 650 
Q 2675 500 2725 375 
Q 2775 250 2875 125 
z
M 2175 1050 
L 2175 1550 
Q 2025 1500 1887 1462 
Q 1750 1425 1425 1375 
Q 1050 1325 937 1200 
Q 825 1075 825 900 
Q 825 750 937 637 
Q 1050 525 1275 525 
Q 1500 525 1762 650 
Q 2025 775 2175 1050 
z
" transform="scale(0.015625)"/>
       <path id="SimHei-79" d="M 2900 2925 
L 1750 -100 
Q 1650 -450 1450 -625 
Q 1250 -800 950 -800 
Q 825 -800 712 -787 
Q 600 -775 500 -725 
L 500 -225 
Q 600 -275 700 -300 
Q 800 -325 875 -325 
Q 1075 -325 1150 -262 
Q 1225 -200 1300 25 
L 200 2925 
L 750 2925 
L 1550 725 
L 1575 725 
L 2350 2925 
L 2900 2925 
z
" transform="scale(0.015625)"/>
       <path id="SimHei-20" transform="scale(0.015625)"/>
       <path id="SimHei-28" d="M 2975 -200 
L 2700 -475 
Q 2075 125 1762 775 
Q 1450 1425 1450 2250 
Q 1450 3075 1762 3725 
Q 2075 4375 2700 5000 
L 2975 4725 
Q 2400 4175 2112 3587 
Q 1825 3000 1825 2250 
Q 1825 1500 2112 912 
Q 2400 325 2975 -200 
z
" transform="scale(0.015625)"/>
       <path id="SimHei-29" d="M 1675 2250 
Q 1675 1425 1362 775 
Q 1050 125 425 -475 
L 150 -200 
Q 725 325 1012 912 
Q 1300 1500 1300 2250 
Q 1300 3000 1012 3587 
Q 725 4175 150 4725 
L 425 5000 
Q 1050 4375 1362 3725 
Q 1675 3075 1675 2250 
z
" transform="scale(0.015625)"/>
      </defs>
      <use xlink:href="#SimHei-44"/>
      <use xlink:href="#SimHei-65" transform="translate(50 0)"/>
      <use xlink:href="#SimHei-6c" transform="translate(100 0)"/>
      <use xlink:href="#SimHei-61" transform="translate(150 0)"/>
      <use xlink:href="#SimHei-79" transform="translate(200 0)"/>
      <use xlink:href="#SimHei-20" transform="translate(250 0)"/>
      <use xlink:href="#SimHei-28" transform="translate(300 0)"/>
      <use xlink:href="#SimHei-73" transform="translate(350 0)"/>
      <use xlink:href="#SimHei-29" transform="translate(400 0)"/>
     </g>
    </g>
   </g>
   <g id="line2d_31">
    <path d="M 82.063636 131.370171 
L 83.334997 134.986356 
L 84.606357 143.390807 
L 85.877717 138.992677 
L 87.149077 140.002487 
L 88.420437 135.021976 
L 89.691798 129.08012 
L 90.963158 116.760374 
L 92.234518 124.878867 
L 93.505878 120.629441 
L 94.777239 122.140058 
L 96.048599 130.629623 
L 97.319959 137.273095 
L 98.591319 136.842406 
L 99.862679 152.814597 
L 101.13404 139.499617 
L 102.4054 142.019196 
L 103.67676 143.989906 
L 104.94812 148.412956 
L 106.219481 139.617476 
L 107.490841 138.080853 
L 108.762201 152.300362 
L 110.033561 149.958687 
L 111.304921 139.100442 
L 112.576282 150.291165 
L 113.847642 139.418271 
L 115.119002 132.114246 
L 117.661722 167.549824 
L 118.933083 173.604258 
L 120.204443 171.845225 
L 121.475803 187.139535 
L 122.747163 184.885974 
L 124.018524 200.913353 
L 125.289884 205.336153 
L 127.832604 230.768957 
L 129.103964 240.949669 
L 130.375325 245.235133 
L 131.646685 251.4569 
L 132.918045 234.831519 
L 135.460766 254.181987 
L 136.732126 262.598774 
L 138.003486 269.67526 
L 139.274846 251.086868 
L 141.817567 268.796088 
L 144.360287 282.446162 
L 148.174368 298.429202 
L 149.445728 302.12048 
L 150.717088 306.581351 
L 151.988448 310.032118 
L 153.259809 312.721125 
L 154.531169 315.019414 
L 155.802529 317.866759 
L 157.073889 320.062053 
L 158.345249 322.927814 
L 159.61661 323.680202 
L 160.88797 325.246203 
L 162.15933 326.047074 
L 163.43069 326.425881 
L 164.702051 328.351344 
L 165.973411 329.866693 
L 167.244771 294.24371 
L 168.516131 267.594651 
L 169.787491 274.52502 
L 171.058852 245.665249 
L 172.330212 227.410563 
L 173.601572 232.422709 
L 174.872932 210.596428 
L 176.144293 223.902139 
L 178.687013 245.986478 
L 179.958373 242.387722 
L 181.229733 216.893604 
L 182.501094 228.689954 
L 183.772454 239.440905 
L 185.043814 249.12323 
L 186.315174 252.671156 
L 187.586535 252.243354 
L 188.857895 257.61311 
L 190.129255 254.272826 
L 191.400615 240.84208 
L 192.671975 249.801319 
L 193.943336 241.324932 
L 195.214696 250.636311 
L 196.486056 232.819097 
L 199.028776 224.247397 
L 200.300137 213.003351 
L 201.571497 203.661838 
L 202.842857 191.813552 
L 204.114217 189.651875 
L 205.385578 194.722551 
L 206.656938 185.567826 
L 207.928298 187.248022 
L 210.471018 197.568618 
L 211.742379 205.966697 
L 213.013739 212.793677 
L 214.285099 222.60153 
L 215.556459 222.810353 
L 216.82782 217.999078 
L 218.09918 220.885186 
L 219.37054 230.290483 
L 220.6419 227.282087 
L 221.91326 229.448555 
L 223.184621 239.818239 
L 224.455981 235.50341 
L 225.727341 233.446565 
L 226.998701 237.673911 
L 228.270062 230.506435 
L 230.812782 207.333275 
L 232.084142 210.298994 
L 233.355502 207.720521 
L 234.626863 201.447085 
L 235.898223 190.739878 
L 237.169583 193.097218 
L 238.440943 183.863219 
L 239.712303 183.417343 
L 240.983664 197.778618 
L 242.255024 199.343195 
L 243.526384 205.746251 
L 244.797744 193.267796 
L 246.069105 186.876874 
L 247.340465 187.340832 
L 248.611825 188.062994 
L 249.883185 177.640749 
L 251.154545 188.577675 
L 252.425906 184.970414 
L 253.697266 184.33821 
L 254.968626 184.325147 
L 256.239986 185.220858 
L 257.511347 197.066 
L 258.782707 198.52103 
L 260.054067 185.555895 
L 261.325427 182.42859 
L 263.868148 165.500671 
L 265.139508 176.510376 
L 266.410868 173.01078 
L 267.682228 177.131834 
L 268.953589 179.708241 
L 270.224949 180.436002 
L 271.496309 174.325924 
L 272.767669 181.045139 
L 274.039029 178.726137 
L 275.31039 180.021853 
L 276.58175 178.986748 
L 277.85311 169.188771 
L 279.12447 176.790428 
L 280.39583 190.103704 
L 281.667191 191.357465 
L 282.938551 193.205158 
L 284.209911 195.602344 
L 285.481271 199.831177 
L 286.752632 195.009781 
L 288.023992 191.865805 
L 289.295352 188.189281 
L 291.838072 178.86481 
L 293.109433 180.159087 
L 294.380793 185.936947 
L 295.652153 183.573214 
L 296.923513 185.940887 
L 298.194874 184.892083 
L 299.466234 186.913684 
L 300.737594 180.431314 
L 302.008954 176.96548 
L 303.280314 178.473357 
L 304.551675 187.643842 
L 305.823035 194.608734 
L 307.094395 204.324833 
L 308.365755 191.547608 
L 309.637116 184.445644 
L 310.908476 192.157475 
L 312.179836 202.44077 
L 313.451196 204.058128 
L 314.722556 199.023698 
L 315.993917 208.025694 
L 317.265277 209.743566 
L 318.536637 215.501662 
L 319.807997 208.303236 
L 321.079357 207.925464 
L 322.350718 208.166048 
L 323.622078 193.691441 
L 324.893438 200.356598 
L 326.164798 209.198997 
L 327.436159 211.832368 
L 328.707519 209.298503 
L 329.978879 204.333791 
L 331.250239 197.212278 
L 332.521599 205.923228 
L 333.79296 201.838304 
L 335.06432 201.826203 
L 336.33568 184.977135 
L 337.60704 185.477907 
L 338.878401 171.569418 
L 340.149761 166.91065 
L 341.421121 168.709824 
L 342.692481 177.555682 
L 343.963841 187.404206 
L 345.235202 177.028387 
L 346.506562 188.909628 
L 347.777922 179.161366 
L 349.049282 180.636719 
L 350.320643 179.661035 
L 351.592003 183.896225 
L 352.863363 181.012413 
L 354.134723 181.013425 
L 355.406083 176.790699 
L 356.677444 189.410791 
L 357.948804 199.119438 
L 359.220164 198.143319 
L 360.491524 203.31859 
L 361.762884 211.334497 
L 363.034245 222.132291 
L 364.305605 222.582959 
L 365.576965 214.044719 
L 366.848325 218.878173 
L 368.119686 231.822507 
L 369.391046 221.573614 
L 370.662406 222.427901 
L 371.933766 211.550969 
L 373.205126 215.331325 
L 374.476487 211.07087 
L 375.747847 219.308073 
L 377.019207 202.483593 
L 378.290567 208.715405 
L 379.561928 201.047158 
L 380.833288 194.472193 
L 382.104648 185.215596 
L 383.376008 192.499496 
L 384.647368 186.346022 
L 385.918729 187.063206 
L 387.190089 185.816351 
L 388.461449 187.246772 
L 389.732809 189.177459 
L 391.00417 195.964482 
L 392.27553 203.805216 
L 393.54689 209.702166 
L 394.81825 210.600612 
L 396.08961 209.943941 
L 397.360971 213.349688 
L 398.632331 204.57908 
L 401.175051 184.16291 
L 402.446411 181.973155 
L 403.717772 178.72036 
L 404.989132 186.52934 
L 406.260492 184.055902 
L 407.531852 183.090041 
L 408.803213 179.790791 
L 411.345933 191.698174 
L 412.617293 189.298138 
L 413.888653 181.315216 
L 415.160014 194.667795 
L 416.431374 191.026585 
L 417.702734 188.421198 
L 418.974094 189.244642 
L 420.245455 194.12165 
L 421.516815 187.137806 
L 422.788175 191.673144 
L 424.059535 191.578195 
L 425.330895 181.874065 
L 426.602256 188.232661 
L 427.873616 196.66044 
L 429.144976 191.604424 
L 430.416336 192.884616 
L 431.687697 189.680197 
L 432.959057 196.821172 
L 434.230417 194.689166 
L 435.501777 194.85604 
L 438.044498 210.723376 
L 439.315858 208.27072 
L 440.587218 213.448932 
L 441.858578 219.218533 
L 443.129938 222.882621 
L 444.401299 232.73121 
L 445.672659 211.496712 
L 446.944019 216.27912 
L 448.215379 219.892204 
L 449.48674 224.320698 
L 450.7581 232.228812 
L 452.02946 231.110082 
L 453.30082 232.683906 
L 454.57218 232.906598 
L 457.114901 247.65562 
L 458.386261 251.355805 
L 459.657621 252.275314 
L 460.928982 242.025084 
L 462.200342 241.17885 
L 463.471702 227.833341 
L 464.743062 226.173643 
L 466.014422 220.551988 
L 467.285783 219.244014 
L 468.557143 221.04908 
L 469.828503 224.279285 
L 471.099863 224.350173 
L 472.371224 217.395746 
L 473.642584 222.716806 
L 474.913944 215.652006 
L 476.185304 217.623022 
L 477.456664 205.186343 
L 479.999385 184.499121 
L 481.270745 183.850745 
L 482.542105 193.6503 
L 483.813465 186.025054 
L 485.084826 184.845494 
L 487.627546 200.178855 
L 488.898906 200.037436 
L 490.170267 199.547729 
L 491.441627 197.89429 
L 492.712987 209.047403 
L 493.984347 219.176381 
L 495.255707 215.557501 
L 496.527068 217.943778 
L 497.798428 212.819744 
L 499.069788 210.455571 
L 500.341148 219.372467 
L 501.612509 223.629053 
L 502.883869 220.767591 
L 504.155229 229.583868 
L 505.426589 221.172679 
L 506.697949 203.78098 
L 507.96931 199.737657 
L 509.24067 193.571444 
L 510.51203 193.215643 
L 511.78339 193.265034 
L 513.054751 195.596329 
L 514.326111 192.12962 
L 515.597471 185.039561 
L 516.868831 182.56046 
L 518.140191 175.809038 
L 519.411552 174.027347 
L 520.682912 176.587902 
L 523.225632 165.805406 
L 524.496992 177.288874 
L 525.768353 176.144011 
L 527.039713 180.956556 
L 528.311073 186.462431 
L 529.582433 193.109441 
L 530.853794 197.316921 
L 532.125154 192.867683 
L 533.396514 204.69285 
L 534.667874 199.981246 
L 535.939234 199.399414 
L 537.210595 193.370329 
L 538.481955 186.509372 
L 539.753315 184.762607 
L 541.024675 189.310503 
L 542.296036 194.294192 
L 543.567396 192.815545 
L 544.838756 184.319054 
L 546.110116 186.681855 
L 547.381476 178.241314 
L 548.652837 182.239288 
L 551.195557 187.572411 
L 552.466917 188.963074 
L 553.738278 199.80507 
L 555.009638 196.044664 
L 556.280998 188.789993 
L 557.552358 198.897705 
L 558.823718 205.808317 
L 560.095079 201.915182 
L 561.366439 194.270709 
L 562.637799 190.036339 
L 563.909159 191.970318 
L 565.180519 189.159759 
L 566.45188 190.77417 
L 567.72324 186.110266 
L 568.9946 188.273394 
L 571.537321 206.790574 
L 572.808681 207.607661 
L 574.080041 206.474627 
L 575.351401 208.781605 
L 576.622761 207.901879 
L 577.894122 219.208016 
L 579.165482 227.809043 
L 580.436842 226.960783 
L 581.708202 226.614422 
L 582.979563 231.323948 
L 584.250923 232.92182 
L 585.522283 231.5552 
L 586.793643 238.616821 
L 588.065003 238.727066 
L 588.065003 238.727066 
" clip-path="url(#p51339636d8)" style="fill: none; stroke: #1f77b4; stroke-width: 1.2; stroke-linecap: square"/>
   </g>
   <g id="line2d_32">
    <path d="M 82.063636 98.500404 
L 83.334997 102.253278 
L 84.606357 106.640179 
L 85.877717 113.278928 
L 87.149077 115.353932 
L 88.420437 115.182569 
L 89.691798 115.137732 
L 92.234518 123.018605 
L 93.505878 124.407276 
L 94.777239 124.017672 
L 96.048599 118.458665 
L 97.319959 117.980986 
L 98.591319 122.263391 
L 99.862679 117.902956 
L 101.13404 121.251558 
L 102.4054 126.36874 
L 103.67676 121.750613 
L 104.94812 126.878075 
L 106.219481 122.750189 
L 107.490841 123.757069 
L 108.762201 121.563488 
L 110.033561 127.188719 
L 111.304921 137.838362 
L 112.576282 140.842354 
L 113.847642 141.141151 
L 115.119002 140.017729 
L 116.390362 133.488551 
L 117.661722 136.678271 
L 118.933083 139.494358 
L 120.204443 134.212275 
L 121.475803 140.989065 
L 122.747163 144.495351 
L 124.018524 142.825032 
L 125.289884 142.089924 
L 126.561244 139.130217 
L 127.832604 133.707451 
L 129.103964 140.834807 
L 130.375325 142.736032 
L 131.646685 139.719579 
L 134.189405 152.86444 
L 135.460766 157.929482 
L 136.732126 160.195196 
L 138.003486 161.386599 
L 139.274846 160.243356 
L 140.546206 160.755861 
L 141.817567 163.836323 
L 143.088927 162.105466 
L 144.360287 164.121318 
L 145.631647 167.275123 
L 146.903008 165.856527 
L 148.174368 167.39235 
L 149.445728 164.847526 
L 150.717088 167.580322 
L 151.988448 168.729708 
L 154.531169 176.952663 
L 155.802529 177.743829 
L 157.073889 177.348281 
L 158.345249 179.506331 
L 159.61661 179.671593 
L 160.88797 176.437556 
L 162.15933 180.630908 
L 163.43069 182.203346 
L 164.702051 182.718154 
L 165.973411 186.449984 
L 167.244771 191.876424 
L 168.516131 190.012546 
L 169.787491 187.83564 
L 171.058852 188.883841 
L 172.330212 189.063808 
L 173.601572 193.73854 
L 174.872932 200.068538 
L 176.144293 203.458854 
L 177.415653 198.089433 
L 178.687013 196.954016 
L 179.958373 199.445324 
L 181.229733 206.560284 
L 182.501094 207.150968 
L 183.772454 208.166099 
L 185.043814 210.096173 
L 186.315174 212.646286 
L 187.586535 211.702824 
L 188.857895 211.215643 
L 190.129255 214.884779 
L 191.400615 215.485891 
L 192.671975 217.469282 
L 193.943336 217.976321 
L 195.214696 219.168662 
L 196.486056 224.311316 
L 197.757416 227.270453 
L 199.028776 231.809183 
L 200.300137 232.499777 
L 201.571497 228.971547 
L 202.842857 232.137613 
L 204.114217 232.154697 
L 205.385578 233.696982 
L 206.656938 230.030901 
L 207.928298 231.901516 
L 209.199658 236.446441 
L 211.742379 240.801604 
L 213.013739 246.685831 
L 214.285099 248.872107 
L 215.556459 246.201406 
L 216.82782 247.181657 
L 218.09918 250.18024 
L 219.37054 249.036455 
L 220.6419 250.786147 
L 221.91326 250.602444 
L 223.184621 248.385659 
L 224.455981 252.908863 
L 225.727341 253.146628 
L 228.270062 261.463029 
L 229.541422 260.769049 
L 230.812782 263.099038 
L 232.084142 261.132431 
L 233.355502 261.853035 
L 235.898223 266.233812 
L 237.169583 269.159923 
L 238.440943 266.731607 
L 239.712303 262.530358 
L 240.983664 263.163732 
L 242.255024 269.072132 
L 243.526384 270.551477 
L 244.797744 275.673364 
L 246.069105 272.986356 
L 247.340465 270.702353 
L 248.611825 272.335909 
L 249.883185 271.706412 
L 251.154545 273.020179 
L 252.425906 272.194478 
L 253.697266 275.399434 
L 254.968626 275.289974 
L 256.239986 272.494707 
L 257.511347 274.027287 
L 258.782707 274.844614 
L 261.325427 284.586858 
L 262.596787 286.141618 
L 265.139508 284.743271 
L 266.410868 289.629383 
L 267.682228 289.439278 
L 268.953589 290.848881 
L 270.224949 291.20461 
L 271.496309 293.427124 
L 272.767669 292.413308 
L 274.039029 287.057499 
L 275.31039 287.764507 
L 277.85311 286.350851 
L 279.12447 289.598115 
L 280.39583 289.084742 
L 281.667191 288.768496 
L 282.938551 290.378802 
L 284.209911 290.201846 
L 286.752632 290.810464 
L 288.023992 292.230021 
L 289.295352 295.503746 
L 290.566712 298.304452 
L 291.838072 299.997985 
L 293.109433 299.283439 
L 294.380793 299.08914 
L 295.652153 299.880852 
L 296.923513 300.142493 
L 298.194874 299.903461 
L 299.466234 302.850252 
L 300.737594 304.794995 
L 303.280314 306.725542 
L 304.551675 306.660182 
L 305.823035 306.114644 
L 308.365755 300.112755 
L 309.637116 300.82328 
L 310.908476 298.040594 
L 312.179836 299.035593 
L 313.451196 301.690559 
L 314.722556 301.145336 
L 315.993917 302.740516 
L 317.265277 302.567145 
L 318.536637 305.53852 
L 319.807997 304.39499 
L 321.079357 304.594707 
L 322.350718 303.297141 
L 323.622078 301.8307 
L 326.164798 307.063288 
L 327.436159 306.359311 
L 328.707519 305.941349 
L 329.978879 303.889186 
L 331.250239 306.292476 
L 332.521599 305.241144 
L 333.79296 306.563209 
L 335.06432 309.005194 
L 336.33568 307.085452 
L 338.878401 311.781549 
L 340.149761 313.544636 
L 341.421121 312.621846 
L 342.692481 314.770003 
L 343.963841 316.227971 
L 345.235202 316.33933 
L 346.506562 317.791044 
L 347.777922 318.336645 
L 349.049282 319.429642 
L 350.320643 319.008971 
L 351.592003 319.3906 
L 352.863363 320.166113 
L 354.134723 319.119635 
L 355.406083 315.575405 
L 357.948804 318.843178 
L 359.220164 316.976591 
L 360.491524 318.099865 
L 361.762884 318.180753 
L 363.034245 318.131094 
L 364.305605 320.555576 
L 365.576965 322.062886 
L 366.848325 322.897104 
L 368.119686 319.995259 
L 369.391046 322.151479 
L 370.662406 324.001524 
L 371.933766 324.120438 
L 373.205126 324.509124 
L 374.476487 324.755618 
L 375.747847 324.220683 
L 377.019207 323.41519 
L 378.290567 321.696968 
L 379.561928 321.733227 
L 380.833288 323.226789 
L 382.104648 323.099916 
L 383.376008 323.81648 
L 385.918729 324.596883 
L 387.190089 324.626777 
L 388.461449 323.502766 
L 389.732809 323.177023 
L 391.00417 321.315035 
L 392.27553 323.065882 
L 393.54689 322.024627 
L 394.81825 322.050101 
L 396.08961 323.39486 
L 397.360971 323.272916 
L 398.632331 322.127868 
L 399.903691 323.462762 
L 401.175051 323.595971 
L 402.446411 321.369291 
L 403.717772 318.465539 
L 404.989132 319.463612 
L 406.260492 320.958241 
L 407.531852 321.808899 
L 408.803213 321.944922 
L 410.074573 321.770703 
L 412.617293 324.64684 
L 413.888653 324.264865 
L 415.160014 324.302 
L 416.431374 326.450119 
L 417.702734 327.771558 
L 418.974094 327.63885 
L 420.245455 325.599412 
L 421.516815 326.74973 
L 422.788175 325.165232 
L 424.059535 325.267206 
L 425.330895 322.978503 
L 427.873616 321.555412 
L 429.144976 323.30527 
L 430.416336 322.124541 
L 431.687697 323.180252 
L 432.959057 322.050119 
L 434.230417 323.931537 
L 435.501777 321.833508 
L 436.773137 320.619981 
L 438.044498 320.754837 
L 439.315858 322.556739 
L 440.587218 323.506114 
L 441.858578 323.627406 
L 443.129938 325.042137 
L 444.401299 325.628271 
L 445.672659 324.314214 
L 448.215379 326.784732 
L 449.48674 326.867616 
L 450.7581 326.064051 
L 452.02946 326.884779 
L 453.30082 328.371412 
L 454.57218 328.666386 
L 455.843541 328.685116 
L 457.114901 329.584544 
L 458.386261 329.571377 
L 459.657621 330.855902 
L 460.928982 330.748747 
L 462.200342 330.180237 
L 463.471702 331.274799 
L 464.743062 331.385436 
L 466.014422 331.857772 
L 467.285783 332.726292 
L 468.557143 334.285837 
L 469.828503 336.026587 
L 471.099863 335.282387 
L 472.371224 333.388588 
L 473.642584 333.466134 
L 474.913944 333.868719 
L 476.185304 334.798926 
L 477.456664 335.527522 
L 478.728025 335.187079 
L 479.999385 336.110296 
L 482.542105 335.487076 
L 483.813465 336.415921 
L 485.084826 336.609786 
L 486.356186 335.378651 
L 487.627546 334.718349 
L 488.898906 335.011264 
L 490.170267 335.90507 
L 491.441627 335.85244 
L 492.712987 336.839117 
L 493.984347 335.169657 
L 495.255707 335.61221 
L 496.527068 335.542486 
L 497.798428 334.529853 
L 499.069788 334.658285 
L 500.341148 334.942493 
L 502.883869 336.053486 
L 504.155229 335.581402 
L 505.426589 336.225479 
L 506.697949 335.482114 
L 507.96931 336.970496 
L 509.24067 336.06892 
L 510.51203 335.413143 
L 511.78339 334.041533 
L 513.054751 331.433178 
L 514.326111 331.790702 
L 515.597471 332.401072 
L 516.868831 331.885719 
L 518.140191 331.979672 
L 519.411552 333.409008 
L 520.682912 334.54885 
L 521.954272 335.405027 
L 523.225632 334.820161 
L 524.496992 335.942426 
L 525.768353 335.406907 
L 527.039713 334.280252 
L 528.311073 334.517598 
L 529.582433 333.908855 
L 530.853794 333.615922 
L 532.125154 334.302035 
L 533.396514 333.793351 
L 534.667874 331.092903 
L 535.939234 332.247333 
L 537.210595 332.020308 
L 538.481955 330.705511 
L 539.753315 331.356426 
L 541.024675 331.320517 
L 542.296036 332.215937 
L 543.567396 333.588682 
L 544.838756 334.377624 
L 546.110116 334.449314 
L 547.381476 335.591655 
L 548.652837 336.286707 
L 549.924197 334.616009 
L 552.466917 334.935873 
L 553.738278 335.620915 
L 555.009638 335.516614 
L 556.280998 335.825356 
L 557.552358 335.860324 
L 558.823718 335.374597 
L 560.095079 335.481269 
L 561.366439 335.099439 
L 563.909159 332.10875 
L 565.180519 332.548905 
L 566.45188 331.647113 
L 567.72324 331.39668 
L 568.9946 331.689864 
L 570.26596 332.367559 
L 572.808681 333.263161 
L 574.080041 333.78525 
L 575.351401 334.177242 
L 576.622761 333.408588 
L 577.894122 333.245848 
L 579.165482 333.741278 
L 580.436842 333.750563 
L 581.708202 332.433371 
L 582.979563 333.559421 
L 585.522283 332.243993 
L 586.793643 331.895168 
L 588.065003 332.200137 
L 588.065003 332.200137 
" clip-path="url(#p51339636d8)" style="fill: none; stroke: #ff7f0e; stroke-width: 1.2; stroke-linecap: square"/>
   </g>
   <g id="line2d_33">
    <path d="M 82.063636 128.96124 
L 83.334997 129.84064 
L 84.606357 126.219093 
L 85.877717 118.461157 
L 87.149077 114.913246 
L 88.420437 112.091129 
L 89.691798 106.073626 
L 90.963158 102.754798 
L 92.234518 102.036695 
L 93.505878 99.730359 
L 94.777239 101.719911 
L 96.048599 97.118417 
L 97.319959 93.088159 
L 98.591319 91.821856 
L 99.862679 97.571363 
L 101.13404 94.470773 
L 102.4054 94.295344 
L 103.67676 92.806611 
L 104.94812 92.822834 
L 106.219481 89.304922 
L 107.490841 83.695356 
L 108.762201 79.410111 
L 110.033561 74.193322 
L 111.304921 67.478151 
L 112.576282 62.570402 
L 113.847642 62.133802 
L 115.119002 58.152134 
L 116.390362 61.463607 
L 117.661722 63.891427 
L 118.933083 63.642236 
L 120.204443 58.228359 
L 121.475803 57.795331 
L 122.747163 55.261191 
L 124.018524 53.960376 
L 125.289884 49.98746 
L 126.561244 48.855178 
L 127.832604 49.322196 
L 129.103964 46.668639 
L 130.375325 46.435639 
L 131.646685 39.445 
L 132.918045 45.383396 
L 135.460766 67.012092 
L 136.732126 74.217921 
L 138.003486 87.788858 
L 139.274846 97.652068 
L 140.546206 108.404163 
L 141.817567 110.952317 
L 144.360287 126.228012 
L 145.631647 130.895254 
L 146.903008 137.144128 
L 148.174368 141.748067 
L 149.445728 148.432376 
L 150.717088 157.146751 
L 151.988448 158.601437 
L 153.259809 162.212914 
L 154.531169 169.100721 
L 155.802529 175.261062 
L 157.073889 178.499528 
L 158.345249 181.064173 
L 159.61661 182.235553 
L 160.88797 185.611373 
L 164.702051 199.883007 
L 165.973411 199.9121 
L 167.244771 198.371676 
L 168.516131 202.008289 
L 169.787491 203.348492 
L 171.058852 202.918645 
L 173.601572 207.673424 
L 174.872932 210.707883 
L 176.144293 216.305648 
L 177.415653 224.292719 
L 179.958373 245.940589 
L 182.501094 264.119192 
L 183.772454 271.338486 
L 186.315174 283.555992 
L 188.857895 294.408213 
L 190.129255 298.811403 
L 191.400615 303.64395 
L 195.214696 312.545748 
L 196.486056 315.522114 
L 197.757416 318.132589 
L 199.028776 319.903096 
L 200.300137 322.308385 
L 201.571497 323.813767 
L 202.842857 325.97311 
L 204.114217 327.091667 
L 205.385578 329.081328 
L 207.928298 331.251026 
L 209.199658 331.984944 
L 210.471018 333.392632 
L 211.742379 334.51898 
L 213.013739 334.684376 
L 214.285099 335.774145 
L 215.556459 336.6803 
L 216.82782 337.782906 
L 219.37054 337.860696 
L 220.6419 338.195933 
L 221.91326 339.34302 
L 223.184621 339.186916 
L 224.455981 338.815298 
L 225.727341 337.867416 
L 226.998701 338.629969 
L 228.270062 339.058251 
L 229.541422 338.962552 
L 230.812782 338.17302 
L 232.084142 337.718281 
L 233.355502 336.449767 
L 234.626863 337.20885 
L 235.898223 337.277177 
L 238.440943 337.803262 
L 239.712303 338.28696 
L 240.983664 337.842548 
L 242.255024 338.327999 
L 243.526384 338.669841 
L 244.797744 338.801147 
L 246.069105 338.474226 
L 247.340465 339.31909 
L 248.611825 339.404324 
L 249.883185 339.720147 
L 252.425906 338.482304 
L 253.697266 338.95431 
L 254.968626 338.071937 
L 256.239986 337.360897 
L 257.511347 338.038813 
L 258.782707 338.165801 
L 260.054067 339.093486 
L 261.325427 339.39313 
L 262.596787 338.405567 
L 263.868148 337.924031 
L 265.139508 338.122158 
L 266.410868 338.43587 
L 267.682228 338.421173 
L 268.953589 338.666171 
L 270.224949 337.820801 
L 271.496309 336.766553 
L 272.767669 336.551053 
L 275.31039 337.009049 
L 276.58175 336.674823 
L 277.85311 337.0605 
L 280.39583 336.981486 
L 282.938551 336.369049 
L 284.209911 336.952733 
L 286.752632 337.658675 
L 288.023992 338.465715 
L 289.295352 338.432728 
L 293.109433 339.070447 
L 294.380793 339.244186 
L 295.652153 339.030644 
L 296.923513 338.212376 
L 298.194874 338.256711 
L 299.466234 339.251911 
L 300.737594 338.982748 
L 302.008954 339.034295 
L 303.280314 338.893943 
L 304.551675 339.889403 
L 305.823035 338.535157 
L 307.094395 339.008109 
L 308.365755 337.968184 
L 309.637116 337.550692 
L 310.908476 337.465747 
L 312.179836 337.575321 
L 313.451196 337.539013 
L 314.722556 337.37478 
L 315.993917 338.650386 
L 317.265277 338.651764 
L 319.807997 337.977724 
L 321.079357 338.420013 
L 322.350718 337.989603 
L 323.622078 338.37917 
L 324.893438 337.893298 
L 326.164798 338.056488 
L 327.436159 337.727843 
L 328.707519 337.093495 
L 329.978879 338.356561 
L 331.250239 337.762785 
L 332.521599 337.969251 
L 335.06432 337.403055 
L 336.33568 337.347272 
L 337.60704 338.484602 
L 338.878401 339.1805 
L 340.149761 339.611472 
L 341.421121 339.244971 
L 343.963841 339.805884 
L 345.235202 339.356662 
L 346.506562 340.136594 
L 347.777922 339.539174 
L 350.320643 339.768783 
L 351.592003 339.686072 
L 352.863363 339.048407 
L 354.134723 339.203272 
L 355.406083 338.497833 
L 356.677444 338.984373 
L 357.948804 338.990169 
L 359.220164 338.069615 
L 360.491524 337.771486 
L 361.762884 339.133451 
L 363.034245 339.575987 
L 369.391046 339.558999 
L 370.662406 339.850334 
L 371.933766 339.73516 
L 373.205126 340.042954 
L 374.476487 340.863998 
L 375.747847 340.887521 
L 377.019207 340.253223 
L 378.290567 340.059552 
L 379.561928 339.672156 
L 380.833288 340.720443 
L 382.104648 339.521853 
L 383.376008 340.114849 
L 384.647368 339.408274 
L 385.918729 340.227209 
L 387.190089 339.798929 
L 388.461449 340.29173 
L 389.732809 341.391881 
L 391.00417 340.626345 
L 392.27553 339.397989 
L 393.54689 339.288419 
L 394.81825 338.8418 
L 396.08961 339.43814 
L 397.360971 340.203156 
L 398.632331 340.783857 
L 399.903691 341.01039 
L 401.175051 340.493566 
L 402.446411 341.467358 
L 403.717772 341.136288 
L 406.260492 341.235709 
L 407.531852 340.640639 
L 408.803213 340.476484 
L 410.074573 340.651684 
L 411.345933 339.916126 
L 412.617293 339.927294 
L 413.888653 339.631088 
L 415.160014 339.9625 
L 416.431374 339.361807 
L 417.702734 339.546057 
L 420.245455 339.367756 
L 421.516815 339.866706 
L 422.788175 339.576305 
L 424.059535 339.432436 
L 425.330895 338.892166 
L 426.602256 339.024865 
L 427.873616 338.801089 
L 429.144976 338.205419 
L 430.416336 338.436206 
L 431.687697 339.319484 
L 432.959057 338.361422 
L 434.230417 338.630879 
L 435.501777 338.314208 
L 436.773137 338.320713 
L 438.044498 338.980669 
L 439.315858 338.838181 
L 440.587218 338.540272 
L 441.858578 338.577631 
L 443.129938 339.43785 
L 444.401299 339.63336 
L 445.672659 339.490338 
L 446.944019 339.205212 
L 448.215379 339.784205 
L 450.7581 339.80376 
L 452.02946 339.276083 
L 453.30082 338.870243 
L 454.57218 339.397778 
L 457.114901 339.101938 
L 458.386261 339.178367 
L 459.657621 338.868545 
L 460.928982 338.768183 
L 462.200342 339.145897 
L 463.471702 339.148722 
L 464.743062 338.86181 
L 466.014422 339.466009 
L 467.285783 339.730816 
L 468.557143 339.460109 
L 469.828503 340.078124 
L 471.099863 339.577798 
L 472.371224 340.152351 
L 473.642584 340.083336 
L 476.185304 340.381461 
L 477.456664 339.308318 
L 478.728025 339.343275 
L 479.999385 340.197654 
L 481.270745 339.597394 
L 482.542105 340.251413 
L 483.813465 340.456289 
L 485.084826 341.019816 
L 486.356186 339.96905 
L 487.627546 340.208181 
L 488.898906 339.843809 
L 490.170267 339.643524 
L 491.441627 339.871741 
L 492.712987 339.509838 
L 493.984347 339.622421 
L 495.255707 340.569695 
L 497.798428 341.054165 
L 499.069788 340.210807 
L 501.612509 340.473987 
L 505.426589 339.001454 
L 506.697949 339.375364 
L 507.96931 339.284656 
L 509.24067 338.685243 
L 510.51203 339.073981 
L 511.78339 339.68179 
L 513.054751 339.379472 
L 514.326111 338.763964 
L 515.597471 338.848601 
L 516.868831 338.328441 
L 518.140191 338.500604 
L 520.682912 337.941334 
L 521.954272 336.928064 
L 524.496992 338.27551 
L 525.768353 338.318364 
L 527.039713 338.622791 
L 528.311073 337.745986 
L 529.582433 337.927144 
L 530.853794 338.634629 
L 532.125154 338.56086 
L 533.396514 340.090352 
L 534.667874 340.271802 
L 535.939234 340.090395 
L 537.210595 339.440787 
L 538.481955 339.333501 
L 539.753315 339.367353 
L 541.024675 338.76614 
L 542.296036 338.724774 
L 543.567396 339.371979 
L 544.838756 338.959417 
L 546.110116 339.11552 
L 547.381476 339.927135 
L 548.652837 338.841819 
L 549.924197 338.361912 
L 551.195557 338.20649 
L 555.009638 338.691462 
L 557.552358 337.712937 
L 558.823718 337.636945 
L 560.095079 337.984545 
L 562.637799 337.214658 
L 563.909159 337.533732 
L 566.45188 337.579374 
L 567.72324 337.23278 
L 568.9946 338.411698 
L 570.26596 338.512976 
L 571.537321 339.12904 
L 572.808681 339.461812 
L 574.080041 340.915586 
L 575.351401 341.845 
L 576.622761 341.507511 
L 579.165482 339.931836 
L 580.436842 339.523485 
L 581.708202 339.703575 
L 582.979563 340.30368 
L 584.250923 339.805676 
L 589.336364 341.172297 
L 589.336364 341.172297 
" clip-path="url(#p51339636d8)" style="fill: none; stroke: #2ca02c; stroke-width: 1.2; stroke-linecap: square"/>
   </g>
   <g id="line2d_34">
    <path d="M 82.063636 106.252193 
L 83.334997 105.468412 
L 85.877717 99.486377 
L 87.149077 98.549025 
L 88.420437 93.158905 
L 89.691798 94.752869 
L 90.963158 92.891888 
L 92.234518 92.360324 
L 93.505878 91.14025 
L 94.777239 90.702932 
L 96.048599 89.981991 
L 97.319959 83.753097 
L 98.591319 82.330389 
L 99.862679 79.797834 
L 101.13404 81.046236 
L 102.4054 86.782361 
L 103.67676 85.250487 
L 104.94812 84.664536 
L 106.219481 87.446057 
L 107.490841 86.078092 
L 108.762201 85.190164 
L 110.033561 81.608576 
L 111.304921 78.872238 
L 112.576282 78.548719 
L 113.847642 76.232509 
L 115.119002 78.268882 
L 116.390362 75.971565 
L 118.933083 78.800163 
L 120.204443 79.394174 
L 121.475803 76.934848 
L 122.747163 73.127493 
L 124.018524 67.693913 
L 127.832604 139.347779 
L 129.103964 158.523911 
L 130.375325 175.478038 
L 132.918045 205.312625 
L 135.460766 229.382265 
L 136.732126 239.754407 
L 138.003486 248.76691 
L 140.546206 264.575437 
L 141.817567 270.567451 
L 143.088927 277.667531 
L 144.360287 283.6641 
L 145.631647 287.860795 
L 146.903008 293.093865 
L 148.174368 297.671097 
L 149.445728 300.593727 
L 150.717088 304.727383 
L 151.988448 308.070026 
L 153.259809 310.462566 
L 154.531169 312.211618 
L 155.802529 315.123294 
L 157.073889 317.620265 
L 158.345249 319.69779 
L 159.61661 322.775715 
L 160.88797 324.174172 
L 162.15933 325.049748 
L 163.43069 324.807955 
L 165.973411 327.020293 
L 167.244771 328.936532 
L 168.516131 328.89311 
L 171.058852 331.670496 
L 172.330212 332.168358 
L 173.601572 333.105653 
L 174.872932 333.161545 
L 176.144293 334.198905 
L 177.415653 334.826396 
L 178.687013 335.833809 
L 179.958373 335.984656 
L 181.229733 335.964136 
L 182.501094 335.007831 
L 183.772454 335.626929 
L 185.043814 334.518675 
L 186.315174 334.513261 
L 187.586535 334.951492 
L 188.857895 332.731651 
L 190.129255 333.640444 
L 191.400615 334.182423 
L 192.671975 333.592598 
L 193.943336 334.228887 
L 195.214696 333.451007 
L 196.486056 334.021736 
L 197.757416 334.232179 
L 199.028776 335.385444 
L 201.571497 335.052092 
L 202.842857 334.614396 
L 204.114217 334.558564 
L 205.385578 334.938466 
L 206.656938 334.772782 
L 207.928298 335.245101 
L 209.199658 335.989061 
L 210.471018 336.593249 
L 211.742379 336.273789 
L 213.013739 336.577214 
L 214.285099 335.924917 
L 215.556459 335.680977 
L 216.82782 335.67108 
L 218.09918 335.306978 
L 219.37054 335.582362 
L 220.6419 336.29646 
L 221.91326 336.223516 
L 223.184621 336.680255 
L 224.455981 336.069406 
L 225.727341 335.900568 
L 226.998701 336.055964 
L 228.270062 334.92655 
L 229.541422 332.86753 
L 230.812782 333.650415 
L 232.084142 334.296181 
L 233.355502 334.611022 
L 234.626863 334.673221 
L 235.898223 335.623756 
L 237.169583 336.405254 
L 238.440943 336.769728 
L 239.712303 338.157584 
L 240.983664 337.28861 
L 242.255024 337.224857 
L 243.526384 337.602722 
L 244.797744 337.246871 
L 246.069105 338.022031 
L 247.340465 338.489207 
L 248.611825 337.662265 
L 249.883185 337.584735 
L 251.154545 338.211218 
L 252.425906 336.837029 
L 253.697266 336.551194 
L 254.968626 337.19146 
L 256.239986 337.305755 
L 257.511347 334.844533 
L 258.782707 335.02888 
L 260.054067 335.576841 
L 261.325427 336.300269 
L 262.596787 334.965384 
L 263.868148 336.009112 
L 265.139508 336.276419 
L 266.410868 335.475428 
L 267.682228 335.381321 
L 268.953589 335.831921 
L 270.224949 335.823277 
L 271.496309 335.278434 
L 274.039029 333.660841 
L 275.31039 334.747835 
L 276.58175 334.938348 
L 277.85311 334.915516 
L 279.12447 335.118453 
L 281.667191 335.970943 
L 282.938551 334.224656 
L 284.209911 334.67631 
L 285.481271 334.750449 
L 286.752632 334.974019 
L 288.023992 336.539257 
L 289.295352 336.500073 
L 290.566712 336.013403 
L 291.838072 334.382889 
L 293.109433 333.638409 
L 294.380793 334.720577 
L 295.652153 333.262508 
L 296.923513 333.187044 
L 299.466234 334.168386 
L 300.737594 335.167447 
L 302.008954 334.413505 
L 303.280314 335.168546 
L 304.551675 335.365146 
L 305.823035 335.16399 
L 307.094395 334.430957 
L 308.365755 334.310729 
L 309.637116 334.678799 
L 310.908476 334.777031 
L 313.451196 335.811618 
L 314.722556 334.716452 
L 315.993917 334.746186 
L 317.265277 333.77607 
L 318.536637 333.934825 
L 319.807997 333.421838 
L 322.350718 335.453041 
L 323.622078 335.226145 
L 326.164798 336.111171 
L 327.436159 335.896542 
L 328.707519 336.336056 
L 329.978879 336.578799 
L 331.250239 337.319482 
L 332.521599 336.055967 
L 333.79296 336.106687 
L 335.06432 335.186037 
L 336.33568 335.528368 
L 337.60704 336.424482 
L 338.878401 336.498644 
L 340.149761 337.770213 
L 341.421121 337.652411 
L 342.692481 337.149651 
L 343.963841 337.86313 
L 345.235202 338.141826 
L 346.506562 337.90201 
L 347.777922 338.318698 
L 349.049282 338.524585 
L 350.320643 337.282553 
L 351.592003 337.742927 
L 352.863363 338.441063 
L 354.134723 338.652695 
L 355.406083 339.027793 
L 357.948804 339.56635 
L 359.220164 338.155813 
L 361.762884 337.781566 
L 363.034245 337.790748 
L 364.305605 338.392667 
L 365.576965 337.897395 
L 368.119686 338.564717 
L 369.391046 338.472046 
L 370.662406 338.666608 
L 371.933766 339.129306 
L 373.205126 338.786736 
L 374.476487 339.240796 
L 375.747847 339.303398 
L 377.019207 339.143849 
L 378.290567 337.924277 
L 382.104648 337.993341 
L 383.376008 337.521501 
L 384.647368 337.509678 
L 385.918729 336.865869 
L 387.190089 336.955985 
L 388.461449 335.709542 
L 389.732809 336.042022 
L 391.00417 336.540012 
L 392.27553 336.752549 
L 393.54689 337.910536 
L 394.81825 337.616476 
L 396.08961 338.514263 
L 397.360971 339.149268 
L 398.632331 339.631958 
L 399.903691 339.51604 
L 401.175051 339.184788 
L 403.717772 337.678316 
L 404.989132 337.336079 
L 407.531852 337.627707 
L 408.803213 336.30467 
L 410.074573 335.279748 
L 411.345933 335.714158 
L 412.617293 335.019575 
L 413.888653 335.481445 
L 415.160014 336.366858 
L 416.431374 336.153087 
L 417.702734 336.221971 
L 418.974094 336.569887 
L 420.245455 336.085783 
L 421.516815 335.285394 
L 422.788175 335.542004 
L 424.059535 335.158559 
L 425.330895 335.236068 
L 426.602256 334.88628 
L 427.873616 335.516251 
L 430.416336 336.132242 
L 431.687697 335.788525 
L 432.959057 336.023631 
L 435.501777 337.434816 
L 438.044498 335.819283 
L 439.315858 336.094995 
L 440.587218 336.589764 
L 441.858578 336.595492 
L 443.129938 336.32235 
L 444.401299 337.063771 
L 445.672659 336.886934 
L 446.944019 336.024953 
L 448.215379 335.644837 
L 449.48674 336.033796 
L 450.7581 335.484039 
L 452.02946 336.165937 
L 453.30082 334.354266 
L 454.57218 333.426813 
L 457.114901 333.739871 
L 458.386261 335.196902 
L 460.928982 335.338579 
L 462.200342 336.11002 
L 463.471702 336.532209 
L 464.743062 336.71392 
L 466.014422 337.332748 
L 467.285783 337.634527 
L 468.557143 337.491289 
L 469.828503 337.234613 
L 471.099863 336.824061 
L 472.371224 336.005797 
L 473.642584 336.220452 
L 474.913944 336.784961 
L 476.185304 336.824423 
L 477.456664 337.041644 
L 478.728025 336.141724 
L 479.999385 336.562093 
L 481.270745 335.486469 
L 482.542105 335.995281 
L 483.813465 334.957183 
L 485.084826 335.288521 
L 486.356186 336.372017 
L 487.627546 335.91272 
L 493.984347 337.047172 
L 495.255707 334.912551 
L 496.527068 336.035755 
L 497.798428 335.875934 
L 499.069788 336.353621 
L 500.341148 335.463289 
L 501.612509 336.387855 
L 502.883869 336.25243 
L 504.155229 336.520822 
L 505.426589 336.006222 
L 506.697949 336.066739 
L 507.96931 335.993874 
L 510.51203 336.12841 
L 511.78339 335.360089 
L 513.054751 336.723567 
L 514.326111 337.193487 
L 516.868831 335.900759 
L 518.140191 335.435264 
L 520.682912 335.690303 
L 521.954272 335.698412 
L 523.225632 335.475083 
L 524.496992 336.409306 
L 525.768353 336.779522 
L 527.039713 336.821957 
L 528.311073 337.089031 
L 529.582433 336.419996 
L 530.853794 336.265288 
L 533.396514 337.150027 
L 534.667874 336.791628 
L 535.939234 336.251394 
L 537.210595 336.162157 
L 538.481955 336.633524 
L 539.753315 336.980539 
L 541.024675 336.507963 
L 542.296036 336.514146 
L 543.567396 336.702069 
L 544.838756 337.40913 
L 546.110116 336.867633 
L 547.381476 337.8851 
L 548.652837 337.142827 
L 549.924197 337.052307 
L 551.195557 337.312685 
L 552.466917 336.02868 
L 553.738278 336.066751 
L 556.280998 337.48196 
L 557.552358 337.457387 
L 558.823718 338.464251 
L 561.366439 336.416742 
L 562.637799 336.169349 
L 563.909159 334.312009 
L 565.180519 335.419787 
L 566.45188 335.863694 
L 567.72324 335.915436 
L 570.26596 336.155753 
L 571.537321 336.598122 
L 572.808681 337.31379 
L 574.080041 336.777575 
L 575.351401 336.835545 
L 576.622761 337.517055 
L 577.894122 337.620121 
L 579.165482 338.040552 
L 580.436842 338.002015 
L 581.708202 338.158223 
L 582.979563 338.588981 
L 584.250923 338.196564 
L 585.522283 338.717373 
L 586.793643 338.799307 
L 588.065003 337.851456 
L 589.336364 339.093142 
L 589.336364 339.093142 
" clip-path="url(#p51339636d8)" style="fill: none; stroke: #d62728; stroke-width: 1.2; stroke-linecap: square"/>
   </g>
   <g id="line2d_35">
    <path d="M 82.063636 107.587515 
L 83.334997 112.208254 
L 84.606357 113.065076 
L 87.149077 135.911676 
L 88.420437 151.547516 
L 92.234518 191.547616 
L 93.505878 203.428649 
L 94.777239 213.670696 
L 96.048599 225.558529 
L 98.591319 245.757553 
L 102.4054 271.075437 
L 103.67676 277.746 
L 104.94812 283.091844 
L 106.219481 287.628207 
L 108.762201 298.003831 
L 110.033561 301.748498 
L 111.304921 304.071247 
L 112.576282 307.025334 
L 113.847642 310.975029 
L 115.119002 312.856127 
L 116.390362 315.675724 
L 117.661722 317.275754 
L 118.933083 319.288876 
L 120.204443 321.677891 
L 121.475803 323.745221 
L 122.747163 325.551699 
L 124.018524 326.363234 
L 125.289884 327.566574 
L 126.561244 329.301102 
L 127.832604 329.049255 
L 129.103964 329.227545 
L 130.375325 329.15066 
L 131.646685 329.800481 
L 132.918045 330.829296 
L 134.189405 332.102663 
L 135.460766 332.705013 
L 136.732126 333.513258 
L 138.003486 334.084053 
L 139.274846 333.710074 
L 140.546206 334.471989 
L 141.817567 334.2427 
L 143.088927 333.52628 
L 144.360287 334.252664 
L 145.631647 334.684657 
L 146.903008 335.401078 
L 148.174368 335.728625 
L 150.717088 335.011736 
L 151.988448 335.187293 
L 153.259809 334.82311 
L 154.531169 334.816112 
L 155.802529 335.888975 
L 157.073889 335.500928 
L 158.345249 334.96688 
L 159.61661 334.622093 
L 160.88797 335.569037 
L 162.15933 335.220957 
L 163.43069 335.989056 
L 164.702051 336.27519 
L 165.973411 335.904206 
L 168.516131 336.439899 
L 171.058852 335.677478 
L 172.330212 336.148663 
L 173.601572 337.364142 
L 174.872932 337.959224 
L 176.144293 338.020867 
L 177.415653 337.965644 
L 178.687013 337.76656 
L 179.958373 337.831718 
L 181.229733 337.750941 
L 182.501094 337.882184 
L 185.043814 338.889029 
L 187.586535 336.307731 
L 190.129255 336.517897 
L 191.400615 337.483835 
L 192.671975 337.200647 
L 193.943336 337.110854 
L 196.486056 336.039594 
L 197.757416 335.544876 
L 199.028776 336.454546 
L 200.300137 336.335925 
L 202.842857 334.355141 
L 204.114217 332.800297 
L 205.385578 334.336545 
L 206.656938 334.875672 
L 210.471018 335.351197 
L 211.742379 334.991717 
L 213.013739 336.026589 
L 214.285099 336.387073 
L 215.556459 336.425561 
L 216.82782 335.993278 
L 218.09918 336.417997 
L 219.37054 336.369806 
L 220.6419 337.257532 
L 221.91326 336.978393 
L 223.184621 336.550282 
L 224.455981 336.346201 
L 225.727341 337.170762 
L 226.998701 337.012007 
L 228.270062 337.930207 
L 229.541422 337.756285 
L 230.812782 336.65754 
L 232.084142 336.344503 
L 233.355502 335.761412 
L 234.626863 335.975679 
L 235.898223 337.071715 
L 237.169583 337.813775 
L 238.440943 337.804523 
L 239.712303 337.098719 
L 240.983664 337.682625 
L 242.255024 337.963498 
L 243.526384 338.684085 
L 244.797744 336.798613 
L 246.069105 337.015478 
L 247.340465 335.783812 
L 248.611825 336.397281 
L 249.883185 336.608585 
L 251.154545 337.746615 
L 252.425906 337.751135 
L 253.697266 338.193584 
L 254.968626 338.01584 
L 258.782707 338.173967 
L 260.054067 338.550636 
L 261.325427 338.750673 
L 262.596787 339.735611 
L 263.868148 339.501132 
L 265.139508 339.628632 
L 266.410868 338.680175 
L 267.682228 338.341823 
L 268.953589 337.369288 
L 270.224949 337.788957 
L 271.496309 337.647421 
L 272.767669 337.237161 
L 274.039029 337.32881 
L 275.31039 337.230871 
L 276.58175 337.494297 
L 277.85311 337.878631 
L 279.12447 337.804409 
L 280.39583 337.447687 
L 281.667191 336.609796 
L 282.938551 337.043407 
L 286.752632 336.570442 
L 288.023992 336.564668 
L 289.295352 336.920562 
L 291.838072 338.713951 
L 293.109433 338.73377 
L 294.380793 338.601775 
L 295.652153 339.201931 
L 296.923513 338.873435 
L 299.466234 338.694391 
L 300.737594 338.012543 
L 303.280314 338.948409 
L 304.551675 339.104021 
L 305.823035 339.032568 
L 307.094395 339.25778 
L 308.365755 339.216102 
L 309.637116 340.066743 
L 310.908476 339.746747 
L 312.179836 340.453655 
L 313.451196 340.373948 
L 314.722556 341.062475 
L 315.993917 341.037383 
L 317.265277 340.672012 
L 319.807997 340.383856 
L 323.622078 337.485301 
L 324.893438 337.947051 
L 326.164798 338.254632 
L 327.436159 338.246702 
L 328.707519 338.64194 
L 329.978879 337.445915 
L 331.250239 337.706883 
L 332.521599 337.373705 
L 333.79296 338.076016 
L 335.06432 337.999304 
L 336.33568 338.115101 
L 337.60704 336.465664 
L 338.878401 336.874114 
L 340.149761 335.942244 
L 341.421121 336.408544 
L 342.692481 337.347601 
L 343.963841 338.609465 
L 345.235202 338.228557 
L 346.506562 338.901354 
L 349.049282 340.959114 
L 350.320643 341.502982 
L 351.592003 339.337419 
L 352.863363 339.891633 
L 354.134723 339.289273 
L 355.406083 339.395744 
L 356.677444 340.241353 
L 357.948804 340.330276 
L 359.220164 339.77611 
L 360.491524 340.049161 
L 361.762884 340.722671 
L 363.034245 340.131723 
L 364.305605 339.367327 
L 365.576965 339.220136 
L 366.848325 337.857712 
L 368.119686 337.907783 
L 369.391046 336.260475 
L 370.662406 336.699776 
L 371.933766 336.72344 
L 373.205126 337.378662 
L 374.476487 337.021992 
L 375.747847 338.03256 
L 377.019207 337.442047 
L 378.290567 337.475598 
L 379.561928 337.143884 
L 380.833288 336.174197 
L 382.104648 336.446602 
L 383.376008 335.819994 
L 384.647368 335.709464 
L 385.918729 334.974293 
L 387.190089 335.130294 
L 389.732809 337.010114 
L 391.00417 337.57811 
L 392.27553 337.463189 
L 393.54689 337.490608 
L 394.81825 336.840035 
L 396.08961 336.8092 
L 397.360971 334.602176 
L 398.632331 334.439149 
L 399.903691 333.932596 
L 401.175051 334.343431 
L 402.446411 335.112825 
L 403.717772 335.299006 
L 404.989132 336.179522 
L 408.803213 337.032926 
L 410.074573 336.88143 
L 411.345933 337.817318 
L 412.617293 338.288933 
L 415.160014 338.496754 
L 416.431374 339.173426 
L 417.702734 338.775536 
L 420.245455 337.266538 
L 421.516815 336.422166 
L 424.059535 335.702896 
L 425.330895 335.967095 
L 426.602256 335.548216 
L 427.873616 336.30471 
L 429.144976 335.351997 
L 430.416336 336.431171 
L 431.687697 336.156756 
L 432.959057 337.742839 
L 434.230417 338.232489 
L 435.501777 336.970074 
L 436.773137 336.752426 
L 438.044498 337.163761 
L 439.315858 336.625258 
L 440.587218 336.516556 
L 441.858578 336.738311 
L 443.129938 336.799194 
L 444.401299 336.608362 
L 445.672659 336.797396 
L 446.944019 337.748894 
L 448.215379 336.122699 
L 449.48674 336.021174 
L 450.7581 336.238885 
L 452.02946 335.781602 
L 453.30082 336.447442 
L 454.57218 335.708011 
L 455.843541 334.482148 
L 457.114901 334.50994 
L 458.386261 335.585944 
L 459.657621 335.443233 
L 460.928982 336.248105 
L 462.200342 336.066386 
L 463.471702 337.379541 
L 464.743062 337.421429 
L 466.014422 336.997525 
L 467.285783 337.279459 
L 468.557143 337.396498 
L 469.828503 337.369647 
L 471.099863 337.061341 
L 472.371224 337.839808 
L 473.642584 337.792938 
L 474.913944 337.922874 
L 476.185304 338.20071 
L 478.728025 337.170333 
L 479.999385 337.767043 
L 481.270745 337.509205 
L 482.542105 336.877183 
L 483.813465 337.378103 
L 485.084826 337.198702 
L 486.356186 336.364294 
L 487.627546 336.788649 
L 488.898906 336.978005 
L 490.170267 337.480947 
L 491.441627 337.789085 
L 492.712987 337.480328 
L 493.984347 337.621531 
L 495.255707 337.925112 
L 496.527068 339.023133 
L 499.069788 338.808677 
L 500.341148 338.012076 
L 501.612509 337.568266 
L 502.883869 337.763457 
L 504.155229 336.970155 
L 505.426589 337.238164 
L 506.697949 337.911987 
L 507.96931 338.073065 
L 509.24067 337.597859 
L 510.51203 337.616034 
L 511.78339 338.090751 
L 513.054751 338.973367 
L 514.326111 338.155417 
L 515.597471 338.62306 
L 516.868831 338.753285 
L 518.140191 339.304433 
L 521.954272 338.059335 
L 523.225632 338.260508 
L 524.496992 337.809071 
L 525.768353 336.24991 
L 527.039713 333.968267 
L 528.311073 334.244923 
L 529.582433 334.949574 
L 530.853794 335.044026 
L 532.125154 334.899407 
L 533.396514 334.573806 
L 534.667874 334.921892 
L 535.939234 334.184818 
L 537.210595 334.385719 
L 538.481955 334.438835 
L 539.753315 334.373401 
L 542.296036 335.764388 
L 543.567396 333.973563 
L 546.110116 334.484308 
L 547.381476 334.081384 
L 548.652837 335.020175 
L 549.924197 335.031134 
L 551.195557 335.298843 
L 552.466917 336.221224 
L 553.738278 335.309885 
L 555.009638 335.177874 
L 556.280998 335.40266 
L 557.552358 335.832643 
L 558.823718 335.335994 
L 560.095079 335.672103 
L 561.366439 336.758408 
L 562.637799 337.175844 
L 563.909159 335.580021 
L 566.45188 335.49972 
L 567.72324 336.482234 
L 568.9946 336.636174 
L 571.537321 337.811561 
L 572.808681 336.651234 
L 574.080041 335.96192 
L 576.622761 336.001152 
L 577.894122 335.851678 
L 580.436842 336.348253 
L 581.708202 336.111379 
L 584.250923 336.736695 
L 585.522283 335.215822 
L 586.793643 335.190809 
L 588.065003 335.435984 
L 588.065003 335.435984 
" clip-path="url(#p51339636d8)" style="fill: none; stroke: #9467bd; stroke-width: 1.2; stroke-linecap: square"/>
   </g>
   <g id="patch_3">
    <path d="M 56.7 356.965 
L 56.7 24.325 
" style="fill: none; stroke: #000000; stroke-width: 0.8; stroke-linejoin: miter; stroke-linecap: square"/>
   </g>
   <g id="patch_4">
    <path d="M 614.7 356.965 
L 614.7 24.325 
" style="fill: none; stroke: #000000; stroke-width: 0.8; stroke-linejoin: miter; stroke-linecap: square"/>
   </g>
   <g id="patch_5">
    <path d="M 56.7 356.965 
L 614.7 356.965 
" style="fill: none; stroke: #000000; stroke-width: 0.8; stroke-linejoin: miter; stroke-linecap: square"/>
   </g>
   <g id="patch_6">
    <path d="M 56.7 24.325 
L 614.7 24.325 
" style="fill: none; stroke: #000000; stroke-width: 0.8; stroke-linejoin: miter; stroke-linecap: square"/>
   </g>
   <g id="text_18">
    <!-- Average Transmission Delay -->
    <g transform="translate(231.7 18.325) scale(0.16 -0.16)">
     <defs>
      <path id="SimHei-41" d="M 3075 125 
L 2475 125 
L 2125 1450 
L 1025 1450 
L 675 125 
L 75 125 
L 1325 4450 
L 1825 4450 
L 3075 125 
z
M 2000 1925 
L 1600 3450 
L 1550 3450 
L 1150 1925 
L 2000 1925 
z
" transform="scale(0.015625)"/>
      <path id="SimHei-76" d="M 2875 2925 
L 1825 75 
L 1275 75 
L 225 2925 
L 750 2925 
L 1525 750 
L 1575 750 
L 2350 2925 
L 2875 2925 
z
" transform="scale(0.015625)"/>
      <path id="SimHei-72" d="M 2500 2425 
Q 2025 2500 1700 2287 
Q 1375 2075 1150 1550 
L 1150 125 
L 650 125 
L 650 2925 
L 1150 2925 
L 1150 2200 
Q 1375 2600 1712 2787 
Q 2050 2975 2500 2975 
L 2500 2425 
z
" transform="scale(0.015625)"/>
      <path id="SimHei-67" d="M 2975 2500 
Q 2800 2550 2637 2562 
Q 2475 2575 2300 2525 
Q 2375 2450 2425 2337 
Q 2475 2225 2475 2000 
Q 2475 1575 2187 1300 
Q 1900 1025 1475 1025 
Q 1375 1025 1212 1062 
Q 1050 1100 950 1150 
Q 875 1100 850 1050 
Q 825 1000 825 925 
Q 825 800 1000 737 
Q 1175 675 1625 675 
Q 2350 675 2612 475 
Q 2875 275 2875 -25 
Q 2875 -425 2487 -612 
Q 2100 -800 1575 -800 
Q 900 -800 575 -625 
Q 250 -450 250 -150 
Q 250 0 375 150 
Q 500 300 700 400 
Q 550 475 462 587 
Q 375 700 375 875 
Q 375 1025 487 1137 
Q 600 1250 750 1325 
Q 625 1450 550 1625 
Q 475 1800 475 2000 
Q 475 2425 762 2700 
Q 1050 2975 1475 2975 
Q 1700 2975 1862 2912 
Q 2025 2850 2150 2725 
Q 2350 2875 2550 2937 
Q 2750 3000 2975 2975 
L 2975 2500 
z
M 1975 2000 
Q 1975 2250 1850 2400 
Q 1725 2550 1475 2550 
Q 1225 2550 1100 2400 
Q 975 2250 975 2000 
Q 975 1750 1100 1600 
Q 1225 1450 1475 1450 
Q 1725 1450 1850 1600 
Q 1975 1750 1975 2000 
z
M 2400 -75 
Q 2400 25 2287 125 
Q 2175 225 1725 225 
Q 1625 225 1450 237 
Q 1275 250 1050 275 
Q 850 200 775 100 
Q 700 0 700 -100 
Q 700 -250 900 -350 
Q 1100 -450 1600 -450 
Q 2025 -450 2212 -337 
Q 2400 -225 2400 -75 
z
" transform="scale(0.015625)"/>
      <path id="SimHei-54" d="M 2850 3925 
L 1850 3925 
L 1850 125 
L 1275 125 
L 1275 3925 
L 275 3925 
L 275 4400 
L 2850 4400 
L 2850 3925 
z
" transform="scale(0.015625)"/>
      <path id="SimHei-6e" d="M 2800 125 
L 2300 125 
L 2300 1925 
Q 2300 2225 2150 2400 
Q 2000 2575 1750 2575 
Q 1425 2575 1137 2237 
Q 850 1900 850 1400 
L 850 125 
L 350 125 
L 350 2925 
L 850 2925 
L 850 2400 
Q 1050 2675 1287 2825 
Q 1525 2975 1900 2975 
Q 2350 2975 2575 2725 
Q 2800 2475 2800 2100 
L 2800 125 
z
" transform="scale(0.015625)"/>
      <path id="SimHei-6d" d="M 3050 125 
L 2550 125 
L 2550 2150 
Q 2550 2300 2500 2400 
Q 2450 2500 2300 2500 
Q 2125 2500 1975 2312 
Q 1825 2125 1825 1825 
L 1825 125 
L 1325 125 
L 1325 2150 
Q 1325 2300 1275 2400 
Q 1225 2500 1075 2500 
Q 900 2500 750 2312 
Q 600 2125 600 1825 
L 600 125 
L 100 125 
L 100 2925 
L 600 2925 
L 600 2550 
Q 725 2750 900 2862 
Q 1075 2975 1275 2975 
Q 1475 2975 1612 2862 
Q 1750 2750 1800 2550 
Q 1925 2750 2087 2862 
Q 2250 2975 2450 2975 
Q 2750 2975 2900 2812 
Q 3050 2650 3050 2350 
L 3050 125 
z
" transform="scale(0.015625)"/>
     </defs>
     <use xlink:href="#SimHei-41"/>
     <use xlink:href="#SimHei-76" transform="translate(50 0)"/>
     <use xlink:href="#SimHei-65" transform="translate(100 0)"/>
     <use xlink:href="#SimHei-72" transform="translate(150 0)"/>
     <use xlink:href="#SimHei-61" transform="translate(200 0)"/>
     <use xlink:href="#SimHei-67" transform="translate(250 0)"/>
     <use xlink:href="#SimHei-65" transform="translate(300 0)"/>
     <use xlink:href="#SimHei-20" transform="translate(350 0)"/>
     <use xlink:href="#SimHei-54" transform="translate(400 0)"/>
     <use xlink:href="#SimHei-72" transform="translate(450 0)"/>
     <use xlink:href="#SimHei-61" transform="translate(500 0)"/>
     <use xlink:href="#SimHei-6e" transform="translate(550 0)"/>
     <use xlink:href="#SimHei-73" transform="translate(600 0)"/>
     <use xlink:href="#SimHei-6d" transform="translate(650 0)"/>
     <use xlink:href="#SimHei-69" transform="translate(700 0)"/>
     <use xlink:href="#SimHei-73" transform="translate(750 0)"/>
     <use xlink:href="#SimHei-73" transform="translate(800 0)"/>
     <use xlink:href="#SimHei-69" transform="translate(850 0)"/>
     <use xlink:href="#SimHei-6f" transform="translate(900 0)"/>
     <use xlink:href="#SimHei-6e" transform="translate(950 0)"/>
     <use xlink:href="#SimHei-20" transform="translate(1000 0)"/>
     <use xlink:href="#SimHei-44" transform="translate(1050 0)"/>
     <use xlink:href="#SimHei-65" transform="translate(1100 0)"/>
     <use xlink:href="#SimHei-6c" transform="translate(1150 0)"/>
     <use xlink:href="#SimHei-61" transform="translate(1200 0)"/>
     <use xlink:href="#SimHei-79" transform="translate(1250 0)"/>
    </g>
   </g>
   <g id="legend_1">
    <g id="patch_7">
     <path d="M 519.9 113.425 
L 606.3 113.425 
Q 608.7 113.425 608.7 111.025 
L 608.7 32.725 
Q 608.7 30.325 606.3 30.325 
L 519.9 30.325 
Q 517.5 30.325 517.5 32.725 
L 517.5 111.025 
Q 517.5 113.425 519.9 113.425 
z
" style="fill: #ffffff; opacity: 0.8; stroke: #cccccc; stroke-linejoin: miter"/>
    </g>
    <g id="line2d_36">
     <path d="M 522.3 39.325 
L 534.3 39.325 
L 546.3 39.325 
" style="fill: none; stroke: #1f77b4; stroke-width: 1.2; stroke-linecap: square"/>
    </g>
    <g id="text_19">
     <!-- DDPG -->
     <g transform="translate(555.9 43.525) scale(0.12 -0.12)">
      <defs>
       <path id="SimHei-50" d="M 2950 3100 
Q 2950 2500 2600 2150 
Q 2250 1800 1625 1800 
L 900 1800 
L 900 125 
L 325 125 
L 325 4400 
L 1625 4400 
Q 2250 4400 2600 4050 
Q 2950 3700 2950 3100 
z
M 2375 3100 
Q 2375 3575 2150 3750 
Q 1925 3925 1475 3925 
L 900 3925 
L 900 2275 
L 1475 2275 
Q 1925 2275 2150 2450 
Q 2375 2625 2375 3100 
z
" transform="scale(0.015625)"/>
       <path id="SimHei-47" d="M 2850 75 
L 2425 75 
L 2350 425 
Q 2250 275 2037 175 
Q 1825 75 1575 75 
Q 1050 75 637 562 
Q 225 1050 225 2125 
Q 225 3300 600 3875 
Q 975 4450 1625 4450 
Q 2200 4450 2525 4025 
Q 2850 3600 2850 2925 
L 2300 2925 
Q 2300 3450 2125 3712 
Q 1950 3975 1625 3975 
Q 1225 3975 1025 3562 
Q 825 3150 825 2175 
Q 825 1250 1075 900 
Q 1325 550 1650 550 
Q 1975 550 2162 787 
Q 2350 1025 2350 1525 
L 2350 1800 
L 1575 1800 
L 1575 2275 
L 2850 2275 
L 2850 75 
z
" transform="scale(0.015625)"/>
      </defs>
      <use xlink:href="#SimHei-44"/>
      <use xlink:href="#SimHei-44" transform="translate(50 0)"/>
      <use xlink:href="#SimHei-50" transform="translate(100 0)"/>
      <use xlink:href="#SimHei-47" transform="translate(150 0)"/>
     </g>
    </g>
    <g id="line2d_37">
     <path d="M 522.3 55.225 
L 534.3 55.225 
L 546.3 55.225 
" style="fill: none; stroke: #ff7f0e; stroke-width: 1.2; stroke-linecap: square"/>
    </g>
    <g id="text_20">
     <!-- PPO -->
     <g transform="translate(555.9 59.425) scale(0.12 -0.12)">
      <defs>
       <path id="SimHei-4f" d="M 2950 2275 
Q 2950 1100 2587 587 
Q 2225 75 1575 75 
Q 925 75 550 587 
Q 175 1100 175 2275 
Q 175 3450 550 3950 
Q 925 4450 1575 4450 
Q 2225 4450 2587 3950 
Q 2950 3450 2950 2275 
z
M 2350 2275 
Q 2350 3325 2125 3650 
Q 1900 3975 1575 3975 
Q 1250 3975 1012 3650 
Q 775 3325 775 2275 
Q 775 1225 1012 887 
Q 1250 550 1575 550 
Q 1900 550 2125 887 
Q 2350 1225 2350 2275 
z
" transform="scale(0.015625)"/>
      </defs>
      <use xlink:href="#SimHei-50"/>
      <use xlink:href="#SimHei-50" transform="translate(50 0)"/>
      <use xlink:href="#SimHei-4f" transform="translate(100 0)"/>
     </g>
    </g>
    <g id="line2d_38">
     <path d="M 522.3 71.125 
L 534.3 71.125 
L 546.3 71.125 
" style="fill: none; stroke: #2ca02c; stroke-width: 1.2; stroke-linecap: square"/>
    </g>
    <g id="text_21">
     <!-- TD3 -->
     <g transform="translate(555.9 75.325) scale(0.12 -0.12)">
      <use xlink:href="#SimHei-54"/>
      <use xlink:href="#SimHei-44" transform="translate(50 0)"/>
      <use xlink:href="#SimHei-33" transform="translate(100 0)"/>
     </g>
    </g>
    <g id="line2d_39">
     <path d="M 522.3 87.025 
L 534.3 87.025 
L 546.3 87.025 
" style="fill: none; stroke: #d62728; stroke-width: 1.2; stroke-linecap: square"/>
    </g>
    <g id="text_22">
     <!-- GCN-DDQN -->
     <g transform="translate(555.9 91.225) scale(0.12 -0.12)">
      <defs>
       <path id="SimHei-43" d="M 2975 1825 
Q 2950 875 2575 475 
Q 2200 75 1675 75 
Q 1075 75 650 562 
Q 225 1050 225 2125 
Q 225 3300 637 3875 
Q 1050 4450 1700 4450 
Q 2250 4450 2612 4037 
Q 2975 3625 2950 2875 
L 2400 2875 
Q 2400 3425 2225 3700 
Q 2050 3975 1700 3975 
Q 1300 3975 1062 3562 
Q 825 3150 825 2175 
Q 825 1275 1062 912 
Q 1300 550 1675 550 
Q 1950 550 2175 812 
Q 2400 1075 2400 1825 
L 2975 1825 
z
" transform="scale(0.015625)"/>
       <path id="SimHei-4e" d="M 2850 125 
L 2225 125 
L 850 3225 
L 825 3225 
L 825 125 
L 250 125 
L 250 4400 
L 875 4400 
L 2250 1300 
L 2275 1300 
L 2275 4400 
L 2850 4400 
L 2850 125 
z
" transform="scale(0.015625)"/>
       <path id="SimHei-2d" d="M 2975 2125 
L 125 2125 
L 125 2525 
L 2975 2525 
L 2975 2125 
z
" transform="scale(0.015625)"/>
       <path id="SimHei-51" d="M 2950 2275 
Q 2950 1675 2862 1262 
Q 2775 850 2575 600 
L 2775 225 
L 2375 -200 
L 2150 225 
Q 2050 150 1900 112 
Q 1750 75 1575 75 
Q 925 75 550 587 
Q 175 1100 175 2275 
Q 175 3450 550 3950 
Q 925 4450 1575 4450 
Q 2225 4450 2587 3950 
Q 2950 3450 2950 2275 
z
M 2350 2275 
Q 2350 3325 2125 3650 
Q 1900 3975 1575 3975 
Q 1250 3975 1012 3650 
Q 775 3325 775 2275 
Q 775 1225 1012 887 
Q 1250 550 1575 550 
Q 1700 550 1800 587 
Q 1900 625 1950 675 
L 1550 1450 
L 1900 1875 
L 2250 1200 
Q 2300 1450 2325 1650 
Q 2350 1850 2350 2275 
z
" transform="scale(0.015625)"/>
      </defs>
      <use xlink:href="#SimHei-47"/>
      <use xlink:href="#SimHei-43" transform="translate(50 0)"/>
      <use xlink:href="#SimHei-4e" transform="translate(100 0)"/>
      <use xlink:href="#SimHei-2d" transform="translate(150 0)"/>
      <use xlink:href="#SimHei-44" transform="translate(200 0)"/>
      <use xlink:href="#SimHei-44" transform="translate(250 0)"/>
      <use xlink:href="#SimHei-51" transform="translate(300 0)"/>
      <use xlink:href="#SimHei-4e" transform="translate(350 0)"/>
     </g>
    </g>
    <g id="line2d_40">
     <path d="M 522.3 102.925 
L 534.3 102.925 
L 546.3 102.925 
" style="fill: none; stroke: #9467bd; stroke-width: 1.2; stroke-linecap: square"/>
    </g>
    <g id="text_23">
     <!-- GLDVTO -->
     <g transform="translate(555.9 107.125) scale(0.12 -0.12)">
      <defs>
       <path id="SimHei-4c" d="M 2900 125 
L 300 125 
L 300 4400 
L 875 4400 
L 875 600 
L 2900 600 
L 2900 125 
z
" transform="scale(0.015625)"/>
       <path id="SimHei-56" d="M 3050 4400 
L 1800 75 
L 1300 75 
L 50 4400 
L 650 4400 
L 1525 1125 
L 1575 1125 
L 2450 4400 
L 3050 4400 
z
" transform="scale(0.015625)"/>
      </defs>
      <use xlink:href="#SimHei-47"/>
      <use xlink:href="#SimHei-4c" transform="translate(50 0)"/>
      <use xlink:href="#SimHei-44" transform="translate(100 0)"/>
      <use xlink:href="#SimHei-56" transform="translate(150 0)"/>
      <use xlink:href="#SimHei-54" transform="translate(200 0)"/>
      <use xlink:href="#SimHei-4f" transform="translate(250 0)"/>
     </g>
    </g>
   </g>
  </g>
 </g>
 <defs>
  <clipPath id="p51339636d8">
   <rect x="56.7" y="24.325" width="558" height="332.64"/>
  </clipPath>
 </defs>
</svg>
