<?xml version="1.0" encoding="utf-8" standalone="no"?>
<!DOCTYPE svg PUBLIC "-//W3C//DTD SVG 1.1//EN"
  "http://www.w3.org/Graphics/SVG/1.1/DTD/svg11.dtd">
<svg xmlns:xlink="http://www.w3.org/1999/xlink" width="712.99pt" height="424.835pt" viewBox="0 0 712.99 424.835" xmlns="http://www.w3.org/2000/svg" version="1.1">
 <metadata>
  <rdf:RDF xmlns:dc="http://purl.org/dc/elements/1.1/" xmlns:cc="http://creativecommons.org/ns#" xmlns:rdf="http://www.w3.org/1999/02/22-rdf-syntax-ns#">
   <cc:Work>
    <dc:type rdf:resource="http://purl.org/dc/dcmitype/StillImage"/>
    <dc:date>2026-06-26T17:53:36.284745</dc:date>
    <dc:format>image/svg+xml</dc:format>
    <dc:creator>
     <cc:Agent>
      <dc:title>Matplotlib v3.10.7, https://matplotlib.org/</dc:title>
     </cc:Agent>
    </dc:creator>
   </cc:Work>
  </rdf:RDF>
 </metadata>
 <defs>
  <style type="text/css">*{stroke-linejoin: round; stroke-linecap: butt}</style>
 </defs>
 <g id="figure_1">
  <g id="patch_1">
   <path d="M -0 424.835 
L 712.99 424.835 
L 712.99 0 
L -0 0 
z
" style="fill: #ffffff"/>
  </g>
  <g id="axes_1">
   <g id="patch_2">
    <path d="M 55.2 383.885 
L 705.79 383.885 
L 705.79 24.325 
L 55.2 24.325 
z
" style="fill: #ffffff"/>
   </g>
   <g id="matplotlib.axis_1">
    <g id="xtick_1">
     <g id="line2d_1">
      <path d="M 84.772273 383.885 
L 84.772273 24.325 
" clip-path="url(#p113c6c9403)" style="fill: none; stroke: #b0b0b0; stroke-opacity: 0.3; stroke-width: 0.8; stroke-linecap: square"/>
     </g>
     <g id="line2d_2">
      <defs>
       <path id="mea4e62c169" d="M 0 0 
L 0 3.5 
" style="stroke: #000000; stroke-width: 0.8"/>
      </defs>
      <g>
       <use xlink:href="#mea4e62c169" x="84.772273" y="383.885" style="stroke: #000000; stroke-width: 0.8"/>
      </g>
     </g>
     <g id="text_1">
      <!-- 0 -->
      <g transform="translate(81.772273 399.135) scale(0.12 -0.12)">
       <defs>
        <path id="SimHei-30" d="M 225 2537 
Q 250 3200 412 3587 
Q 575 3975 875 4225 
Q 1175 4475 1612 4475 
Q 2050 4475 2375 4112 
Q 2700 3750 2800 3200 
Q 2900 2650 2862 1937 
Q 2825 1225 2612 775 
Q 2400 325 1975 150 
Q 1550 -25 1125 187 
Q 700 400 525 750 
Q 350 1100 275 1487 
Q 200 1875 225 2537 
z
M 750 2687 
Q 675 2000 800 1462 
Q 925 925 1212 700 
Q 1500 475 1800 612 
Q 2100 750 2237 1162 
Q 2375 1575 2375 2062 
Q 2375 2550 2337 2950 
Q 2300 3350 2112 3675 
Q 1925 4000 1612 4012 
Q 1300 4025 1062 3700 
Q 825 3375 750 2687 
z
" transform="scale(0.015625)"/>
       </defs>
       <use xlink:href="#SimHei-30"/>
      </g>
     </g>
    </g>
    <g id="xtick_2">
     <g id="line2d_3">
      <path d="M 158.888244 383.885 
L 158.888244 24.325 
" clip-path="url(#p113c6c9403)" style="fill: none; stroke: #b0b0b0; stroke-opacity: 0.3; stroke-width: 0.8; stroke-linecap: square"/>
     </g>
     <g id="line2d_4">
      <g>
       <use xlink:href="#mea4e62c169" x="158.888244" y="383.885" style="stroke: #000000; stroke-width: 0.8"/>
      </g>
     </g>
     <g id="text_2">
      <!-- 50 -->
      <g transform="translate(152.888244 399.135) scale(0.12 -0.12)">
       <defs>
        <path id="SimHei-35" d="M 550 1325 
Q 725 650 1150 575 
Q 1575 500 1837 662 
Q 2100 825 2212 1087 
Q 2325 1350 2312 1675 
Q 2300 2000 2137 2225 
Q 1975 2450 1725 2525 
Q 1475 2600 1162 2525 
Q 850 2450 650 2175 
L 225 2225 
Q 275 2375 700 4375 
L 2675 4375 
L 2675 3925 
L 1075 3925 
Q 950 3250 825 2850 
Q 1200 3025 1525 3012 
Q 1850 3000 2150 2862 
Q 2450 2725 2587 2487 
Q 2725 2250 2787 2012 
Q 2850 1775 2837 1500 
Q 2825 1225 2725 937 
Q 2625 650 2425 462 
Q 2225 275 1937 162 
Q 1650 50 1275 75 
Q 900 100 562 350 
Q 225 600 100 1200 
L 550 1325 
z
" transform="scale(0.015625)"/>
       </defs>
       <use xlink:href="#SimHei-35"/>
       <use xlink:href="#SimHei-30" transform="translate(50 0)"/>
      </g>
     </g>
    </g>
    <g id="xtick_3">
     <g id="line2d_5">
      <path d="M 233.004216 383.885 
L 233.004216 24.325 
" clip-path="url(#p113c6c9403)" style="fill: none; stroke: #b0b0b0; stroke-opacity: 0.3; stroke-width: 0.8; stroke-linecap: square"/>
     </g>
     <g id="line2d_6">
      <g>
       <use xlink:href="#mea4e62c169" x="233.004216" y="383.885" style="stroke: #000000; stroke-width: 0.8"/>
      </g>
     </g>
     <g id="text_3">
      <!-- 100 -->
      <g transform="translate(224.004216 399.135) scale(0.12 -0.12)">
       <defs>
        <path id="SimHei-31" d="M 1400 3600 
Q 1075 3275 575 2975 
L 575 3450 
Q 1200 3875 1600 4450 
L 1900 4450 
L 1900 150 
L 1400 150 
L 1400 3600 
z
" transform="scale(0.015625)"/>
       </defs>
       <use xlink:href="#SimHei-31"/>
       <use xlink:href="#SimHei-30" transform="translate(50 0)"/>
       <use xlink:href="#SimHei-30" transform="translate(100 0)"/>
      </g>
     </g>
    </g>
    <g id="xtick_4">
     <g id="line2d_7">
      <path d="M 307.120188 383.885 
L 307.120188 24.325 
" clip-path="url(#p113c6c9403)" style="fill: none; stroke: #b0b0b0; stroke-opacity: 0.3; stroke-width: 0.8; stroke-linecap: square"/>
     </g>
     <g id="line2d_8">
      <g>
       <use xlink:href="#mea4e62c169" x="307.120188" y="383.885" style="stroke: #000000; stroke-width: 0.8"/>
      </g>
     </g>
     <g id="text_4">
      <!-- 150 -->
      <g transform="translate(298.120188 399.135) scale(0.12 -0.12)">
       <use xlink:href="#SimHei-31"/>
       <use xlink:href="#SimHei-35" transform="translate(50 0)"/>
       <use xlink:href="#SimHei-30" transform="translate(100 0)"/>
      </g>
     </g>
    </g>
    <g id="xtick_5">
     <g id="line2d_9">
      <path d="M 381.23616 383.885 
L 381.23616 24.325 
" clip-path="url(#p113c6c9403)" style="fill: none; stroke: #b0b0b0; stroke-opacity: 0.3; stroke-width: 0.8; stroke-linecap: square"/>
     </g>
     <g id="line2d_10">
      <g>
       <use xlink:href="#mea4e62c169" x="381.23616" y="383.885" style="stroke: #000000; stroke-width: 0.8"/>
      </g>
     </g>
     <g id="text_5">
      <!-- 200 -->
      <g transform="translate(372.23616 399.135) scale(0.12 -0.12)">
       <defs>
        <path id="SimHei-32" d="M 300 250 
Q 325 625 650 925 
Q 975 1225 1475 1862 
Q 1975 2500 2125 2850 
Q 2275 3200 2237 3450 
Q 2200 3700 2000 3862 
Q 1800 4025 1537 4000 
Q 1275 3975 1037 3800 
Q 800 3625 675 3275 
L 200 3350 
Q 400 3925 712 4187 
Q 1025 4450 1450 4475 
Q 1700 4500 1900 4462 
Q 2100 4425 2312 4287 
Q 2525 4150 2662 3875 
Q 2800 3600 2762 3212 
Q 2725 2825 2375 2287 
Q 2025 1750 1025 600 
L 2825 600 
L 2825 150 
L 300 150 
L 300 250 
z
" transform="scale(0.015625)"/>
       </defs>
       <use xlink:href="#SimHei-32"/>
       <use xlink:href="#SimHei-30" transform="translate(50 0)"/>
       <use xlink:href="#SimHei-30" transform="translate(100 0)"/>
      </g>
     </g>
    </g>
    <g id="xtick_6">
     <g id="line2d_11">
      <path d="M 455.352131 383.885 
L 455.352131 24.325 
" clip-path="url(#p113c6c9403)" style="fill: none; stroke: #b0b0b0; stroke-opacity: 0.3; stroke-width: 0.8; stroke-linecap: square"/>
     </g>
     <g id="line2d_12">
      <g>
       <use xlink:href="#mea4e62c169" x="455.352131" y="383.885" style="stroke: #000000; stroke-width: 0.8"/>
      </g>
     </g>
     <g id="text_6">
      <!-- 250 -->
      <g transform="translate(446.352131 399.135) scale(0.12 -0.12)">
       <use xlink:href="#SimHei-32"/>
       <use xlink:href="#SimHei-35" transform="translate(50 0)"/>
       <use xlink:href="#SimHei-30" transform="translate(100 0)"/>
      </g>
     </g>
    </g>
    <g id="xtick_7">
     <g id="line2d_13">
      <path d="M 529.468103 383.885 
L 529.468103 24.325 
" clip-path="url(#p113c6c9403)" style="fill: none; stroke: #b0b0b0; stroke-opacity: 0.3; stroke-width: 0.8; stroke-linecap: square"/>
     </g>
     <g id="line2d_14">
      <g>
       <use xlink:href="#mea4e62c169" x="529.468103" y="383.885" style="stroke: #000000; stroke-width: 0.8"/>
      </g>
     </g>
     <g id="text_7">
      <!-- 300 -->
      <g transform="translate(520.468103 399.135) scale(0.12 -0.12)">
       <defs>
        <path id="SimHei-33" d="M 250 1225 
L 700 1300 
Q 800 975 1025 762 
Q 1250 550 1587 562 
Q 1925 575 2125 837 
Q 2325 1100 2300 1437 
Q 2275 1775 2037 1962 
Q 1800 2150 1275 2225 
L 1275 2550 
Q 1800 2600 2037 2825 
Q 2275 3050 2250 3412 
Q 2225 3775 1925 3937 
Q 1625 4100 1287 3975 
Q 950 3850 750 3275 
L 300 3350 
Q 450 3800 712 4100 
Q 975 4400 1425 4450 
Q 1875 4500 2212 4337 
Q 2550 4175 2687 3837 
Q 2825 3500 2725 3100 
Q 2625 2700 2150 2400 
Q 2500 2250 2687 1950 
Q 2875 1650 2812 1162 
Q 2750 675 2375 375 
Q 2000 75 1525 87 
Q 1050 100 700 387 
Q 350 675 250 1225 
z
" transform="scale(0.015625)"/>
       </defs>
       <use xlink:href="#SimHei-33"/>
       <use xlink:href="#SimHei-30" transform="translate(50 0)"/>
       <use xlink:href="#SimHei-30" transform="translate(100 0)"/>
      </g>
     </g>
    </g>
    <g id="xtick_8">
     <g id="line2d_15">
      <path d="M 603.584075 383.885 
L 603.584075 24.325 
" clip-path="url(#p113c6c9403)" style="fill: none; stroke: #b0b0b0; stroke-opacity: 0.3; stroke-width: 0.8; stroke-linecap: square"/>
     </g>
     <g id="line2d_16">
      <g>
       <use xlink:href="#mea4e62c169" x="603.584075" y="383.885" style="stroke: #000000; stroke-width: 0.8"/>
      </g>
     </g>
     <g id="text_8">
      <!-- 350 -->
      <g transform="translate(594.584075 399.135) scale(0.12 -0.12)">
       <use xlink:href="#SimHei-33"/>
       <use xlink:href="#SimHei-35" transform="translate(50 0)"/>
       <use xlink:href="#SimHei-30" transform="translate(100 0)"/>
      </g>
     </g>
    </g>
    <g id="xtick_9">
     <g id="line2d_17">
      <path d="M 677.700047 383.885 
L 677.700047 24.325 
" clip-path="url(#p113c6c9403)" style="fill: none; stroke: #b0b0b0; stroke-opacity: 0.3; stroke-width: 0.8; stroke-linecap: square"/>
     </g>
     <g id="line2d_18">
      <g>
       <use xlink:href="#mea4e62c169" x="677.700047" y="383.885" style="stroke: #000000; stroke-width: 0.8"/>
      </g>
     </g>
     <g id="text_9">
      <!-- 400 -->
      <g transform="translate(668.700047 399.135) scale(0.12 -0.12)">
       <defs>
        <path id="SimHei-34" d="M 2000 1100 
L 75 1100 
L 75 1525 
L 2100 4450 
L 2475 4450 
L 2475 1525 
L 3075 1525 
L 3075 1100 
L 2475 1100 
L 2475 150 
L 2000 150 
L 2000 1100 
z
M 2000 1525 
L 2000 3500 
L 600 1525 
L 2000 1525 
z
" transform="scale(0.015625)"/>
       </defs>
       <use xlink:href="#SimHei-34"/>
       <use xlink:href="#SimHei-30" transform="translate(50 0)"/>
       <use xlink:href="#SimHei-30" transform="translate(100 0)"/>
      </g>
     </g>
    </g>
    <g id="text_10">
     <!-- Episode -->
     <g transform="translate(352.495 415.635) scale(0.16 -0.16)">
      <defs>
       <path id="SimHei-45" d="M 2900 125 
L 350 125 
L 350 4400 
L 2775 4400 
L 2775 3925 
L 925 3925 
L 925 2600 
L 2625 2600 
L 2625 2125 
L 925 2125 
L 925 600 
L 2900 600 
L 2900 125 
z
" transform="scale(0.015625)"/>
       <path id="SimHei-70" d="M 2825 1525 
Q 2825 800 2475 425 
Q 2125 50 1625 50 
Q 1350 50 1150 162 
Q 950 275 800 500 
L 800 -800 
L 300 -800 
L 300 2925 
L 800 2925 
L 800 2550 
Q 950 2775 1150 2875 
Q 1350 2975 1625 2975 
Q 2125 2975 2475 2612 
Q 2825 2250 2825 1525 
z
M 2275 1525 
Q 2275 2000 2087 2262 
Q 1900 2525 1525 2525 
Q 1225 2525 1012 2262 
Q 800 2000 800 1525 
Q 800 1050 1012 775 
Q 1225 500 1525 500 
Q 1900 500 2087 775 
Q 2275 1050 2275 1525 
z
" transform="scale(0.015625)"/>
       <path id="SimHei-69" d="M 1800 3725 
L 1300 3725 
L 1300 4375 
L 1800 4375 
L 1800 3725 
z
M 1800 125 
L 1300 125 
L 1300 2925 
L 1800 2925 
L 1800 125 
z
" transform="scale(0.015625)"/>
       <path id="SimHei-73" d="M 2750 900 
Q 2750 500 2437 287 
Q 2125 75 1650 75 
Q 1050 75 725 312 
Q 400 550 400 1000 
L 900 1000 
Q 900 700 1112 600 
Q 1325 500 1625 500 
Q 1925 500 2075 612 
Q 2225 725 2225 900 
Q 2225 1025 2100 1150 
Q 1975 1275 1475 1350 
Q 900 1425 687 1637 
Q 475 1850 475 2200 
Q 475 2500 762 2737 
Q 1050 2975 1600 2975 
Q 2100 2975 2387 2750 
Q 2675 2525 2675 2150 
L 2175 2150 
Q 2175 2375 2012 2462 
Q 1850 2550 1600 2550 
Q 1275 2550 1137 2437 
Q 1000 2325 1000 2175 
Q 1000 2000 1125 1900 
Q 1250 1800 1650 1750 
Q 2300 1650 2525 1437 
Q 2750 1225 2750 900 
z
" transform="scale(0.015625)"/>
       <path id="SimHei-6f" d="M 2925 1525 
Q 2925 875 2525 475 
Q 2125 75 1575 75 
Q 1025 75 625 475 
Q 225 875 225 1525 
Q 225 2175 625 2575 
Q 1025 2975 1575 2975 
Q 2125 2975 2525 2575 
Q 2925 2175 2925 1525 
z
M 2375 1525 
Q 2375 2025 2125 2275 
Q 1875 2525 1575 2525 
Q 1275 2525 1025 2275 
Q 775 2025 775 1525 
Q 775 1025 1025 775 
Q 1275 525 1575 525 
Q 1875 525 2125 775 
Q 2375 1025 2375 1525 
z
" transform="scale(0.015625)"/>
       <path id="SimHei-64" d="M 2750 125 
L 2250 125 
L 2250 500 
Q 2100 275 1900 175 
Q 1700 75 1425 75 
Q 925 75 575 437 
Q 225 800 225 1525 
Q 225 2250 575 2625 
Q 925 3000 1425 3000 
Q 1700 3000 1900 2887 
Q 2100 2775 2250 2550 
L 2250 4400 
L 2750 4400 
L 2750 125 
z
M 2250 1525 
Q 2250 2000 2037 2275 
Q 1825 2550 1525 2550 
Q 1150 2550 962 2275 
Q 775 2000 775 1525 
Q 775 1050 962 787 
Q 1150 525 1525 525 
Q 1825 525 2037 787 
Q 2250 1050 2250 1525 
z
" transform="scale(0.015625)"/>
       <path id="SimHei-65" d="M 2850 1075 
Q 2800 625 2450 350 
Q 2100 75 1625 75 
Q 1025 75 637 462 
Q 250 850 250 1525 
Q 250 2200 637 2587 
Q 1025 2975 1625 2975 
Q 2150 2975 2487 2637 
Q 2825 2300 2825 1525 
L 800 1525 
Q 800 975 1037 750 
Q 1275 525 1625 525 
Q 1900 525 2075 662 
Q 2250 800 2300 1075 
L 2850 1075 
z
M 2250 1925 
Q 2200 2275 2025 2412 
Q 1850 2550 1575 2550 
Q 1325 2550 1125 2412 
Q 925 2275 825 1925 
L 2250 1925 
z
" transform="scale(0.015625)"/>
      </defs>
      <use xlink:href="#SimHei-45"/>
      <use xlink:href="#SimHei-70" transform="translate(50 0)"/>
      <use xlink:href="#SimHei-69" transform="translate(100 0)"/>
      <use xlink:href="#SimHei-73" transform="translate(150 0)"/>
      <use xlink:href="#SimHei-6f" transform="translate(200 0)"/>
      <use xlink:href="#SimHei-64" transform="translate(250 0)"/>
      <use xlink:href="#SimHei-65" transform="translate(300 0)"/>
     </g>
    </g>
   </g>
   <g id="matplotlib.axis_2">
    <g id="ytick_1">
     <g id="line2d_19">
      <path d="M 55.2 345.985805 
L 705.79 345.985805 
" clip-path="url(#p113c6c9403)" style="fill: none; stroke: #b0b0b0; stroke-opacity: 0.3; stroke-width: 0.8; stroke-linecap: square"/>
     </g>
     <g id="line2d_20">
      <defs>
       <path id="me8834ce34d" d="M 0 0 
L -3.5 0 
" style="stroke: #000000; stroke-width: 0.8"/>
      </defs>
      <g>
       <use xlink:href="#me8834ce34d" x="55.2" y="345.985805" style="stroke: #000000; stroke-width: 0.8"/>
      </g>
     </g>
     <g id="text_11">
      <!-- 600 -->
      <g transform="translate(30.2 350.110805) scale(0.12 -0.12)">
       <defs>
        <path id="SimHei-36" d="M 250 1612 
Q 275 1975 387 2225 
Q 500 2475 725 2850 
L 1750 4450 
L 2325 4450 
L 1275 2800 
Q 1950 2975 2350 2750 
Q 2750 2525 2887 2237 
Q 3025 1950 3037 1612 
Q 3050 1275 2937 950 
Q 2825 625 2537 362 
Q 2250 100 1737 75 
Q 1225 50 862 262 
Q 500 475 362 862 
Q 225 1250 250 1612 
z
M 1025 787 
Q 1250 550 1625 525 
Q 2000 500 2250 775 
Q 2500 1050 2500 1575 
Q 2500 2100 2187 2300 
Q 1875 2500 1487 2450 
Q 1100 2400 925 2075 
Q 750 1750 775 1387 
Q 800 1025 1025 787 
z
" transform="scale(0.015625)"/>
       </defs>
       <use xlink:href="#SimHei-36"/>
       <use xlink:href="#SimHei-30" transform="translate(50 0)"/>
       <use xlink:href="#SimHei-30" transform="translate(100 0)"/>
      </g>
     </g>
    </g>
    <g id="ytick_2">
     <g id="line2d_21">
      <path d="M 55.2 283.355424 
L 705.79 283.355424 
" clip-path="url(#p113c6c9403)" style="fill: none; stroke: #b0b0b0; stroke-opacity: 0.3; stroke-width: 0.8; stroke-linecap: square"/>
     </g>
     <g id="line2d_22">
      <g>
       <use xlink:href="#me8834ce34d" x="55.2" y="283.355424" style="stroke: #000000; stroke-width: 0.8"/>
      </g>
     </g>
     <g id="text_12">
      <!-- 800 -->
      <g transform="translate(30.2 287.480424) scale(0.12 -0.12)">
       <defs>
        <path id="SimHei-38" d="M 175 1375 
Q 175 1675 325 1962 
Q 475 2250 825 2425 
Q 525 2600 425 2812 
Q 325 3025 312 3300 
Q 300 3575 387 3775 
Q 475 3975 650 4150 
Q 825 4325 1037 4387 
Q 1250 4450 1500 4450 
Q 1750 4450 1950 4400 
Q 2150 4350 2375 4187 
Q 2600 4025 2700 3725 
Q 2800 3425 2687 3025 
Q 2575 2625 2100 2400 
Q 2525 2275 2700 2012 
Q 2875 1750 2875 1375 
Q 2875 1000 2762 775 
Q 2650 550 2512 400 
Q 2375 250 2137 162 
Q 1900 75 1537 75 
Q 1175 75 912 162 
Q 650 250 475 425 
Q 300 600 237 837 
Q 175 1075 175 1375 
z
M 687 1400 
Q 675 1100 787 875 
Q 900 650 1200 587 
Q 1500 525 1825 600 
Q 2150 675 2275 950 
Q 2400 1225 2362 1500 
Q 2325 1775 2050 1962 
Q 1775 2150 1450 2125 
Q 1125 2100 912 1900 
Q 700 1700 687 1400 
z
M 775 3350 
Q 775 3100 950 2875 
Q 1125 2650 1500 2650 
Q 1875 2650 2062 2875 
Q 2250 3100 2237 3412 
Q 2225 3725 2012 3875 
Q 1800 4025 1437 4000 
Q 1075 3975 925 3787 
Q 775 3600 775 3350 
z
" transform="scale(0.015625)"/>
       </defs>
       <use xlink:href="#SimHei-38"/>
       <use xlink:href="#SimHei-30" transform="translate(50 0)"/>
       <use xlink:href="#SimHei-30" transform="translate(100 0)"/>
      </g>
     </g>
    </g>
    <g id="ytick_3">
     <g id="line2d_23">
      <path d="M 55.2 220.725043 
L 705.79 220.725043 
" clip-path="url(#p113c6c9403)" style="fill: none; stroke: #b0b0b0; stroke-opacity: 0.3; stroke-width: 0.8; stroke-linecap: square"/>
     </g>
     <g id="line2d_24">
      <g>
       <use xlink:href="#me8834ce34d" x="55.2" y="220.725043" style="stroke: #000000; stroke-width: 0.8"/>
      </g>
     </g>
     <g id="text_13">
      <!-- 1000 -->
      <g transform="translate(24.2 224.850043) scale(0.12 -0.12)">
       <use xlink:href="#SimHei-31"/>
       <use xlink:href="#SimHei-30" transform="translate(50 0)"/>
       <use xlink:href="#SimHei-30" transform="translate(100 0)"/>
       <use xlink:href="#SimHei-30" transform="translate(150 0)"/>
      </g>
     </g>
    </g>
    <g id="ytick_4">
     <g id="line2d_25">
      <path d="M 55.2 158.094662 
L 705.79 158.094662 
" clip-path="url(#p113c6c9403)" style="fill: none; stroke: #b0b0b0; stroke-opacity: 0.3; stroke-width: 0.8; stroke-linecap: square"/>
     </g>
     <g id="line2d_26">
      <g>
       <use xlink:href="#me8834ce34d" x="55.2" y="158.094662" style="stroke: #000000; stroke-width: 0.8"/>
      </g>
     </g>
     <g id="text_14">
      <!-- 1200 -->
      <g transform="translate(24.2 162.219662) scale(0.12 -0.12)">
       <use xlink:href="#SimHei-31"/>
       <use xlink:href="#SimHei-32" transform="translate(50 0)"/>
       <use xlink:href="#SimHei-30" transform="translate(100 0)"/>
       <use xlink:href="#SimHei-30" transform="translate(150 0)"/>
      </g>
     </g>
    </g>
    <g id="ytick_5">
     <g id="line2d_27">
      <path d="M 55.2 95.464281 
L 705.79 95.464281 
" clip-path="url(#p113c6c9403)" style="fill: none; stroke: #b0b0b0; stroke-opacity: 0.3; stroke-width: 0.8; stroke-linecap: square"/>
     </g>
     <g id="line2d_28">
      <g>
       <use xlink:href="#me8834ce34d" x="55.2" y="95.464281" style="stroke: #000000; stroke-width: 0.8"/>
      </g>
     </g>
     <g id="text_15">
      <!-- 1400 -->
      <g transform="translate(24.2 99.589281) scale(0.12 -0.12)">
       <use xlink:href="#SimHei-31"/>
       <use xlink:href="#SimHei-34" transform="translate(50 0)"/>
       <use xlink:href="#SimHei-30" transform="translate(100 0)"/>
       <use xlink:href="#SimHei-30" transform="translate(150 0)"/>
      </g>
     </g>
    </g>
    <g id="ytick_6">
     <g id="line2d_29">
      <path d="M 55.2 32.8339 
L 705.79 32.8339 
" clip-path="url(#p113c6c9403)" style="fill: none; stroke: #b0b0b0; stroke-opacity: 0.3; stroke-width: 0.8; stroke-linecap: square"/>
     </g>
     <g id="line2d_30">
      <g>
       <use xlink:href="#me8834ce34d" x="55.2" y="32.8339" style="stroke: #000000; stroke-width: 0.8"/>
      </g>
     </g>
     <g id="text_16">
      <!-- 1600 -->
      <g transform="translate(24.2 36.9589) scale(0.12 -0.12)">
       <use xlink:href="#SimHei-31"/>
       <use xlink:href="#SimHei-36" transform="translate(50 0)"/>
       <use xlink:href="#SimHei-30" transform="translate(100 0)"/>
       <use xlink:href="#SimHei-30" transform="translate(150 0)"/>
      </g>
     </g>
    </g>
    <g id="text_17">
     <!-- Total Reward -->
     <g transform="translate(18.2 252.105) rotate(-90) scale(0.16 -0.16)">
      <defs>
       <path id="SimHei-54" d="M 2850 3925 
L 1850 3925 
L 1850 125 
L 1275 125 
L 1275 3925 
L 275 3925 
L 275 4400 
L 2850 4400 
L 2850 3925 
z
" transform="scale(0.015625)"/>
       <path id="SimHei-74" d="M 2750 200 
Q 2625 150 2462 112 
Q 2300 75 2025 75 
Q 1575 75 1300 325 
Q 1025 575 1025 1025 
L 1025 2525 
L 175 2525 
L 175 2925 
L 1025 2925 
L 1025 3900 
L 1525 3900 
L 1525 2925 
L 2550 2925 
L 2550 2525 
L 1525 2525 
L 1525 1000 
Q 1525 800 1625 662 
Q 1725 525 2000 525 
Q 2275 525 2450 575 
Q 2625 625 2750 700 
L 2750 200 
z
" transform="scale(0.015625)"/>
       <path id="SimHei-61" d="M 2875 125 
L 2275 125 
Q 2225 175 2200 262 
Q 2175 350 2175 475 
Q 2000 275 1750 175 
Q 1500 75 1225 75 
Q 825 75 550 275 
Q 275 475 275 850 
Q 275 1225 525 1450 
Q 775 1675 1300 1750 
Q 1650 1800 1912 1875 
Q 2175 1950 2175 2075 
Q 2175 2225 2062 2375 
Q 1950 2525 1575 2525 
Q 1275 2525 1137 2412 
Q 1000 2300 950 2100 
L 400 2100 
Q 450 2500 762 2737 
Q 1075 2975 1575 2975 
Q 2125 2975 2400 2725 
Q 2675 2475 2675 2025 
L 2675 650 
Q 2675 500 2725 375 
Q 2775 250 2875 125 
z
M 2175 1050 
L 2175 1550 
Q 2025 1500 1887 1462 
Q 1750 1425 1425 1375 
Q 1050 1325 937 1200 
Q 825 1075 825 900 
Q 825 750 937 637 
Q 1050 525 1275 525 
Q 1500 525 1762 650 
Q 2025 775 2175 1050 
z
" transform="scale(0.015625)"/>
       <path id="SimHei-6c" d="M 1825 125 
L 1325 125 
L 1325 4400 
L 1825 4400 
L 1825 125 
z
" transform="scale(0.015625)"/>
       <path id="SimHei-20" transform="scale(0.015625)"/>
       <path id="SimHei-52" d="M 3000 125 
L 2400 125 
L 1500 1975 
L 850 1975 
L 850 125 
L 275 125 
L 275 4400 
L 1525 4400 
Q 2125 4400 2500 4112 
Q 2875 3825 2875 3175 
Q 2875 2675 2625 2400 
Q 2375 2125 2050 2050 
L 3000 125 
z
M 2300 3175 
Q 2300 3525 2087 3725 
Q 1875 3925 1400 3925 
L 850 3925 
L 850 2450 
L 1550 2450 
Q 1850 2450 2075 2612 
Q 2300 2775 2300 3175 
z
" transform="scale(0.015625)"/>
       <path id="SimHei-77" d="M 3075 2925 
L 2450 75 
L 1975 75 
L 1575 2250 
L 1525 2250 
L 1125 75 
L 650 75 
L 25 2925 
L 550 2925 
L 875 1050 
L 925 1050 
L 1275 2925 
L 1825 2925 
L 2175 1050 
L 2225 1050 
L 2550 2925 
L 3075 2925 
z
" transform="scale(0.015625)"/>
       <path id="SimHei-72" d="M 2500 2425 
Q 2025 2500 1700 2287 
Q 1375 2075 1150 1550 
L 1150 125 
L 650 125 
L 650 2925 
L 1150 2925 
L 1150 2200 
Q 1375 2600 1712 2787 
Q 2050 2975 2500 2975 
L 2500 2425 
z
" transform="scale(0.015625)"/>
      </defs>
      <use xlink:href="#SimHei-54"/>
      <use xlink:href="#SimHei-6f" transform="translate(50 0)"/>
      <use xlink:href="#SimHei-74" transform="translate(100 0)"/>
      <use xlink:href="#SimHei-61" transform="translate(150 0)"/>
      <use xlink:href="#SimHei-6c" transform="translate(200 0)"/>
      <use xlink:href="#SimHei-20" transform="translate(250 0)"/>
      <use xlink:href="#SimHei-52" transform="translate(300 0)"/>
      <use xlink:href="#SimHei-65" transform="translate(350 0)"/>
      <use xlink:href="#SimHei-77" transform="translate(400 0)"/>
      <use xlink:href="#SimHei-61" transform="translate(450 0)"/>
      <use xlink:href="#SimHei-72" transform="translate(500 0)"/>
      <use xlink:href="#SimHei-64" transform="translate(550 0)"/>
     </g>
    </g>
   </g>
   <g id="line2d_31">
    <path d="M 84.772273 263.369855 
L 86.254592 260.354624 
L 87.736912 247.695357 
L 89.219231 246.336881 
L 90.70155 253.549249 
L 92.18387 258.810588 
L 93.666189 267.097765 
L 95.148509 263.076038 
L 96.630828 256.547913 
L 98.113148 255.843203 
L 99.595467 255.379208 
L 101.077787 250.376256 
L 102.560106 242.321979 
L 104.042425 248.086733 
L 105.524745 237.685403 
L 107.007064 245.375891 
L 108.489384 252.090687 
L 109.971703 247.601315 
L 111.454023 240.737072 
L 112.936342 246.237792 
L 114.418661 259.920508 
L 115.900981 243.217262 
L 117.3833 261.239901 
L 118.86562 273.562542 
L 120.347939 260.527416 
L 121.830259 272.428528 
L 123.312578 264.593247 
L 124.794897 244.351526 
L 126.277217 226.133712 
L 127.759536 221.320928 
L 129.241856 232.602149 
L 130.724175 217.120163 
L 132.206495 217.944612 
L 133.688814 201.130989 
L 135.171134 198.219096 
L 136.653453 185.669668 
L 138.135772 171.358083 
L 139.618092 159.815682 
L 141.100411 162.398633 
L 142.582731 152.234844 
L 144.06505 174.530104 
L 147.029689 148.786345 
L 149.994328 127.289384 
L 151.476647 163.508495 
L 152.958967 152.41973 
L 154.441286 142.993196 
L 155.923606 132.229486 
L 158.888244 116.842775 
L 160.370564 112.402555 
L 161.852883 105.088847 
L 163.335203 98.365425 
L 164.817522 89.997594 
L 166.299842 84.9334 
L 169.264481 76.940748 
L 170.7468 76.14259 
L 172.229119 73.263508 
L 175.193758 69.406096 
L 176.676078 67.575673 
L 178.158397 65.490126 
L 179.640717 65.859059 
L 182.605355 62.807191 
L 184.087675 86.325025 
L 185.569994 118.90267 
L 187.052314 112.245079 
L 188.534633 125.120972 
L 190.016953 150.861322 
L 191.499272 146.399884 
L 192.981591 158.347023 
L 194.463911 149.231454 
L 195.94623 137.51928 
L 197.42855 130.950413 
L 198.910869 143.035067 
L 200.393189 172.073109 
L 201.875508 159.9678 
L 203.357828 146.946078 
L 204.840147 139.406665 
L 206.322466 139.599196 
L 207.804786 141.341666 
L 209.287105 134.706576 
L 210.769425 137.635173 
L 212.251744 142.608929 
L 213.734064 135.033198 
L 215.216383 144.841869 
L 216.698702 134.706586 
L 218.181022 163.51166 
L 219.663341 173.763482 
L 221.145661 176.472309 
L 222.62798 175.405532 
L 224.1103 178.152009 
L 225.592619 194.354353 
L 227.074938 193.258939 
L 228.557258 184.661718 
L 230.039577 202.124509 
L 231.521897 194.332911 
L 234.486536 176.957604 
L 235.968855 166.94659 
L 237.451175 162.540359 
L 238.933494 157.027864 
L 240.415813 153.841905 
L 241.898133 164.785668 
L 243.380452 165.361875 
L 244.862772 156.486088 
L 246.345091 165.878405 
L 247.827411 163.798928 
L 249.30973 153.401237 
L 250.792049 157.520409 
L 252.274369 157.671944 
L 253.756688 152.870069 
L 255.239008 155.388184 
L 256.721327 164.525925 
L 258.203647 170.353626 
L 259.685966 163.626923 
L 261.168285 162.126709 
L 262.650605 165.569236 
L 264.132924 169.516722 
L 265.615244 173.018698 
L 268.579883 186.247893 
L 270.062202 173.92093 
L 271.544522 172.6877 
L 273.026841 164.831126 
L 274.50916 171.337911 
L 275.99148 176.425648 
L 277.473799 177.091583 
L 278.956119 177.395521 
L 280.438438 188.411687 
L 281.920758 182.473845 
L 283.403077 184.230263 
L 284.885396 181.810383 
L 286.367716 186.433113 
L 287.850035 184.496067 
L 289.332355 174.054909 
L 290.814674 170.106743 
L 292.296994 178.603473 
L 293.779313 189.146748 
L 295.261632 197.782016 
L 296.743952 202.996192 
L 298.226271 192.839135 
L 299.708591 192.816898 
L 301.19091 186.940273 
L 302.67323 187.664563 
L 304.155549 187.885799 
L 305.637869 191.508311 
L 307.120188 188.789521 
L 308.602507 186.428281 
L 310.084827 183.158114 
L 311.567146 186.856821 
L 313.049466 199.17861 
L 314.531785 192.185937 
L 316.014105 184.020922 
L 317.496424 180.323242 
L 318.978743 173.954733 
L 320.461063 174.720895 
L 321.943382 170.709564 
L 323.425702 175.759729 
L 324.908021 175.047575 
L 326.390341 176.609908 
L 327.87266 176.688705 
L 330.837299 172.594984 
L 333.801938 178.518069 
L 335.284257 176.223253 
L 336.766577 180.123781 
L 338.248896 179.969358 
L 339.731216 185.700806 
L 341.213535 188.629536 
L 342.695854 189.192938 
L 344.178174 183.837145 
L 345.660493 177.447802 
L 347.142813 169.843089 
L 348.625132 178.723637 
L 350.107452 188.438091 
L 351.589771 186.473435 
L 353.07209 176.21909 
L 354.55441 169.77644 
L 356.036729 173.689993 
L 357.519049 166.569655 
L 359.001368 171.686376 
L 360.483688 169.543981 
L 361.966007 168.095912 
L 363.448326 170.722338 
L 364.930646 175.000714 
L 366.412965 182.543391 
L 367.895285 180.625104 
L 369.377604 172.660281 
L 370.859924 170.285177 
L 372.342243 175.8611 
L 373.824563 192.984673 
L 375.306882 202.748751 
L 376.789201 199.399806 
L 378.271521 201.00863 
L 379.75384 205.26342 
L 381.23616 216.583499 
L 382.718479 211.171222 
L 384.200799 222.403261 
L 385.683118 238.683146 
L 387.165437 233.890136 
L 388.647757 224.868131 
L 390.130076 217.503876 
L 391.612396 235.209504 
L 393.094715 224.321511 
L 394.577035 236.671992 
L 396.059354 239.582758 
L 397.541674 241.584986 
L 399.023993 233.444583 
L 400.506312 232.231321 
L 401.988632 228.810898 
L 403.470951 226.61529 
L 404.953271 211.053861 
L 406.43559 200.637373 
L 407.91791 204.326657 
L 409.400229 198.329564 
L 410.882548 190.211308 
L 412.364868 179.201253 
L 413.847187 177.65546 
L 415.329507 181.275772 
L 416.811826 177.449901 
L 418.294146 166.135792 
L 419.776465 164.077436 
L 421.258784 167.054628 
L 422.741104 180.064902 
L 424.223423 171.765122 
L 425.705743 181.605888 
L 427.188062 173.204527 
L 428.670382 187.591065 
L 430.152701 179.377411 
L 431.635021 179.441301 
L 433.11734 187.124199 
L 434.599659 193.795535 
L 436.081979 187.801857 
L 437.564298 200.212847 
L 439.046618 196.639282 
L 440.528937 198.985491 
L 442.011257 200.672763 
L 443.493576 197.552732 
L 444.975895 188.609574 
L 447.940534 172.623446 
L 449.422854 177.344367 
L 450.905173 189.588184 
L 452.387493 187.50505 
L 453.869812 202.931832 
L 455.352131 213.690603 
L 456.834451 218.395271 
L 458.31677 213.431117 
L 459.79909 217.838869 
L 461.281409 205.29047 
L 462.763729 203.79594 
L 464.246048 202.573907 
L 465.728368 211.641364 
L 467.210687 201.445235 
L 468.693006 199.377399 
L 470.175326 207.344327 
L 471.657645 218.373776 
L 473.139965 206.055433 
L 474.622284 207.581792 
L 476.104604 208.297786 
L 477.586923 205.211318 
L 479.069242 202.422516 
L 480.551562 207.532492 
L 482.033881 200.454791 
L 483.516201 201.613627 
L 484.99852 209.579193 
L 486.48084 209.560676 
L 487.963159 200.449096 
L 489.445478 203.87267 
L 490.927798 194.680495 
L 492.410117 193.956944 
L 493.892437 191.994002 
L 495.374756 190.717682 
L 496.857076 184.717958 
L 498.339395 179.405684 
L 499.821715 169.027464 
L 501.304034 166.093821 
L 502.786353 162.345873 
L 504.268673 159.866154 
L 505.750992 158.96165 
L 507.233312 148.115932 
L 508.715631 153.581863 
L 510.197951 146.909774 
L 511.68027 141.996595 
L 513.162589 139.315904 
L 514.644909 131.934748 
L 516.127228 133.70239 
L 519.091867 128.933251 
L 520.574187 122.862751 
L 522.056506 118.186658 
L 523.538825 118.968326 
L 525.021145 126.045954 
L 526.503464 136.045799 
L 527.985784 136.794902 
L 529.468103 145.886472 
L 530.950423 150.769811 
L 532.432742 159.469467 
L 533.915062 162.973055 
L 535.397381 162.303422 
L 536.8797 165.402636 
L 538.36202 159.550732 
L 539.844339 173.915655 
L 541.326659 173.454884 
L 542.808978 184.406281 
L 544.291298 181.181283 
L 545.773617 187.179447 
L 547.255936 200.255422 
L 548.738256 199.973632 
L 550.220575 202.676861 
L 551.702895 192.877028 
L 553.185214 205.131618 
L 554.667534 203.588176 
L 556.149853 198.716757 
L 557.632172 187.424523 
L 559.114492 189.17356 
L 560.596811 184.472616 
L 562.079131 187.573213 
L 565.04377 164.937778 
L 566.526089 163.914178 
L 568.008409 160.34008 
L 569.490728 168.919217 
L 570.973047 168.89499 
L 572.455367 160.059397 
L 573.937686 161.909551 
L 575.420006 168.221452 
L 576.902325 160.387167 
L 578.384645 161.527295 
L 579.866964 172.638915 
L 581.349283 177.508355 
L 582.831603 178.102216 
L 584.313922 175.735601 
L 585.796242 176.740627 
L 587.278561 173.729974 
L 588.760881 169.959872 
L 590.2432 178.561044 
L 591.725519 183.753001 
L 593.207839 188.016421 
L 594.690158 190.231532 
L 596.172478 184.422547 
L 597.654797 190.778721 
L 599.137117 188.508465 
L 600.619436 180.159945 
L 602.101756 186.677193 
L 603.584075 187.590505 
L 605.066394 184.279789 
L 606.548714 175.150076 
L 608.031033 168.015599 
L 609.513353 172.827132 
L 610.995672 163.282932 
L 612.477992 166.488801 
L 613.960311 166.032035 
L 615.44263 173.880708 
L 616.92495 179.622609 
L 618.407269 178.633956 
L 619.889589 173.06499 
L 621.371908 171.660825 
L 622.854228 178.785957 
L 624.336547 197.055394 
L 625.818866 206.57286 
L 627.301186 211.108064 
L 628.783505 204.75258 
L 630.265825 201.14661 
L 631.748144 195.991956 
L 633.230464 194.314135 
L 634.712783 186.70177 
L 636.195103 189.396004 
L 637.677422 202.847574 
L 639.159741 193.439694 
L 640.642061 191.753987 
L 642.12438 195.585675 
L 643.6067 195.709889 
L 645.089019 199.649209 
L 646.571339 197.987849 
L 648.053658 195.863291 
L 649.535977 192.35447 
L 651.018297 196.268792 
L 652.500616 191.396028 
L 655.465255 173.311366 
L 656.947575 170.853292 
L 658.429894 179.932979 
L 659.912213 175.445281 
L 661.394533 175.685986 
L 662.876852 162.665109 
L 664.359172 155.577846 
L 665.841491 157.71226 
L 667.323811 161.588009 
L 668.80613 160.441858 
L 670.28845 164.928982 
L 671.770769 165.069333 
L 673.253088 156.684945 
L 674.735408 155.475801 
L 676.217727 160.86562 
L 676.217727 160.86562 
" clip-path="url(#p113c6c9403)" style="fill: none; stroke: #1f77b4; stroke-width: 1.5; stroke-linecap: square"/>
   </g>
   <g id="line2d_32">
    <path d="M 84.772273 321.724192 
L 86.254592 322.606667 
L 87.736912 315.974038 
L 89.219231 312.176789 
L 90.70155 298.318689 
L 92.18387 301.079213 
L 93.666189 289.050751 
L 95.148509 275.945287 
L 96.630828 270.562094 
L 98.113148 267.693077 
L 99.595467 263.539213 
L 101.077787 254.339762 
L 102.560106 256.837347 
L 104.042425 257.663417 
L 105.524745 262.286543 
L 107.007064 255.206878 
L 108.489384 256.096878 
L 109.971703 256.329749 
L 111.454023 258.487959 
L 112.936342 261.283106 
L 114.418661 262.816877 
L 115.900981 262.167097 
L 117.3833 261.135565 
L 118.86562 258.190508 
L 120.347939 254.544753 
L 121.830259 244.94442 
L 123.312578 250.758634 
L 124.794897 258.134926 
L 126.277217 262.830929 
L 127.759536 265.356265 
L 129.241856 257.826841 
L 130.724175 252.286273 
L 132.206495 244.742802 
L 133.688814 242.962108 
L 135.171134 230.478924 
L 136.653453 232.205011 
L 138.135772 231.659113 
L 139.618092 221.652363 
L 142.582731 225.556033 
L 144.06505 220.90014 
L 145.54737 215.720887 
L 147.029689 212.947842 
L 148.512008 209.267553 
L 149.994328 211.582043 
L 151.476647 213.143463 
L 152.958967 210.959517 
L 154.441286 202.975368 
L 155.923606 208.122135 
L 157.405925 205.360476 
L 158.888244 199.752827 
L 160.370564 199.836961 
L 161.852883 193.995465 
L 163.335203 192.490012 
L 164.817522 196.3284 
L 166.299842 197.430047 
L 167.782161 201.087223 
L 169.264481 199.822551 
L 170.7468 195.254727 
L 172.229119 193.325278 
L 173.711439 195.430832 
L 175.193758 191.380697 
L 176.676078 192.964128 
L 178.158397 189.211566 
L 179.640717 187.058468 
L 181.123036 187.131763 
L 182.605355 185.261231 
L 184.087675 178.112697 
L 185.569994 177.095786 
L 188.534633 168.345054 
L 190.016953 169.944108 
L 191.499272 167.449994 
L 192.981591 163.373639 
L 194.463911 168.732629 
L 197.42855 184.418981 
L 198.910869 182.146801 
L 200.393189 175.957917 
L 201.875508 174.930377 
L 203.357828 174.275841 
L 204.840147 175.636362 
L 206.322466 170.2298 
L 207.804786 172.112651 
L 209.287105 174.831256 
L 210.769425 173.584658 
L 212.251744 173.501703 
L 215.216383 167.042325 
L 216.698702 161.886453 
L 218.181022 157.82751 
L 219.663341 152.122212 
L 221.145661 143.920413 
L 222.62798 147.128758 
L 224.1103 153.350521 
L 227.074938 148.162405 
L 228.557258 149.599718 
L 230.039577 157.57084 
L 231.521897 153.793979 
L 233.004216 153.826455 
L 234.486536 152.306606 
L 235.968855 153.26594 
L 237.451175 145.50843 
L 238.933494 143.583191 
L 240.415813 146.895095 
L 241.898133 143.664134 
L 243.380452 142.083147 
L 244.862772 141.64298 
L 246.345091 140.941009 
L 247.827411 141.041705 
L 249.30973 141.873592 
L 250.792049 147.218889 
L 252.274369 146.461957 
L 253.756688 142.300046 
L 255.239008 139.004924 
L 258.203647 134.081745 
L 259.685966 135.367848 
L 261.168285 133.214106 
L 262.650605 132.473879 
L 264.132924 134.031515 
L 265.615244 129.745243 
L 267.097563 127.928883 
L 268.579883 130.791826 
L 270.062202 125.206894 
L 271.544522 119.178136 
L 273.026841 116.733564 
L 274.50916 115.61725 
L 275.99148 119.328002 
L 277.473799 119.025057 
L 278.956119 118.14424 
L 280.438438 114.822435 
L 281.920758 118.142107 
L 283.403077 117.989364 
L 284.885396 118.052996 
L 286.367716 117.552071 
L 287.850035 118.010474 
L 289.332355 117.488909 
L 290.814674 116.655206 
L 292.296994 112.316118 
L 293.779313 105.984723 
L 296.743952 100.647333 
L 298.226271 99.896849 
L 299.708591 96.463404 
L 302.67323 90.213698 
L 304.155549 88.154241 
L 305.637869 88.233497 
L 307.120188 89.665488 
L 308.602507 97.325186 
L 310.084827 96.65523 
L 311.567146 94.112948 
L 313.049466 92.017758 
L 314.531785 92.253618 
L 316.014105 95.887627 
L 317.496424 97.690456 
L 318.978743 98.187857 
L 320.461063 99.609131 
L 321.943382 99.842966 
L 323.425702 98.415657 
L 324.908021 96.466148 
L 326.390341 92.321943 
L 327.87266 94.816989 
L 329.354979 92.252293 
L 330.837299 88.133211 
L 332.319618 88.455068 
L 333.801938 84.471526 
L 335.284257 85.302192 
L 336.766577 83.00192 
L 338.248896 83.33467 
L 339.731216 85.627284 
L 341.213535 85.824865 
L 342.695854 85.527457 
L 344.178174 86.344156 
L 345.660493 82.556882 
L 347.142813 85.454307 
L 348.625132 87.469004 
L 350.107452 89.146156 
L 351.589771 91.46303 
L 353.07209 90.765797 
L 354.55441 87.651017 
L 356.036729 86.634945 
L 357.519049 82.53664 
L 359.001368 80.1666 
L 360.483688 77.327512 
L 361.966007 80.031004 
L 363.448326 78.876702 
L 364.930646 82.783969 
L 366.412965 85.143132 
L 367.895285 85.74344 
L 369.377604 82.682187 
L 370.859924 83.873175 
L 372.342243 82.292072 
L 373.824563 86.489685 
L 375.306882 84.077111 
L 376.789201 82.766436 
L 378.271521 81.745357 
L 379.75384 81.555597 
L 381.23616 80.070158 
L 382.718479 81.47043 
L 385.683118 76.948098 
L 387.165437 75.835776 
L 388.647757 75.820393 
L 390.130076 77.439746 
L 391.612396 74.764849 
L 393.094715 72.740991 
L 394.577035 71.265583 
L 396.059354 74.493965 
L 397.541674 73.203737 
L 399.023993 73.354944 
L 400.506312 74.016849 
L 401.988632 72.23709 
L 403.470951 72.643608 
L 404.953271 69.791907 
L 406.43559 69.750679 
L 407.91791 71.234981 
L 409.400229 70.292821 
L 410.882548 69.663192 
L 412.364868 72.756589 
L 415.329507 62.81888 
L 416.811826 64.367405 
L 418.294146 65.647974 
L 419.776465 64.775803 
L 421.258784 66.585914 
L 422.741104 66.90368 
L 424.223423 66.435909 
L 425.705743 65.102715 
L 427.188062 66.085363 
L 428.670382 67.456256 
L 430.152701 69.697931 
L 431.635021 65.371601 
L 433.11734 67.940763 
L 434.599659 66.299744 
L 436.081979 65.626414 
L 437.564298 65.333821 
L 439.046618 66.602359 
L 440.528937 68.986632 
L 442.011257 68.936013 
L 443.493576 68.670114 
L 444.975895 69.333292 
L 447.940534 69.98102 
L 449.422854 67.814266 
L 450.905173 67.468 
L 452.387493 67.832399 
L 453.869812 65.9501 
L 455.352131 68.855848 
L 456.834451 68.314825 
L 458.31677 69.689175 
L 459.79909 71.477744 
L 461.281409 67.870303 
L 462.763729 65.027838 
L 464.246048 63.57057 
L 465.728368 65.292164 
L 467.210687 62.581046 
L 468.693006 61.207655 
L 470.175326 58.599475 
L 471.657645 59.344748 
L 473.139965 59.02803 
L 474.622284 61.090601 
L 476.104604 60.130626 
L 477.586923 61.692512 
L 480.551562 63.515383 
L 482.033881 63.912616 
L 483.516201 61.536197 
L 484.99852 63.292476 
L 486.48084 63.54926 
L 487.963159 64.681765 
L 489.445478 62.599031 
L 490.927798 66.304654 
L 492.410117 66.392147 
L 493.892437 67.882129 
L 495.374756 63.127194 
L 496.857076 66.996014 
L 498.339395 71.3485 
L 499.821715 70.710406 
L 501.304034 69.017045 
L 502.786353 66.652127 
L 504.268673 65.526903 
L 505.750992 63.149288 
L 507.233312 62.881845 
L 508.715631 64.190326 
L 510.197951 62.146235 
L 511.68027 62.364704 
L 513.162589 61.207776 
L 514.644909 62.839402 
L 516.127228 64.641045 
L 517.609548 65.339196 
L 519.091867 64.576834 
L 520.574187 63.56405 
L 522.056506 60.745473 
L 523.538825 57.563533 
L 525.021145 58.156931 
L 526.503464 58.465265 
L 527.985784 58.96675 
L 529.468103 58.458328 
L 530.950423 54.863265 
L 532.432742 55.199612 
L 533.915062 56.242412 
L 535.397381 53.353183 
L 538.36202 53.599991 
L 539.844339 54.353777 
L 541.326659 55.290634 
L 542.808978 54.189424 
L 544.291298 54.337315 
L 545.773617 54.911803 
L 547.255936 55.332407 
L 548.738256 53.114727 
L 551.702895 54.828753 
L 553.185214 54.689196 
L 554.667534 53.740366 
L 556.149853 52.162045 
L 557.632172 53.364634 
L 559.114492 54.240948 
L 560.596811 52.007882 
L 562.079131 53.121228 
L 565.04377 52.782254 
L 566.526089 50.059954 
L 568.008409 50.251429 
L 569.490728 49.426479 
L 570.973047 50.380686 
L 572.455367 50.155619 
L 573.937686 49.505238 
L 575.420006 49.282893 
L 576.902325 49.37049 
L 578.384645 49.703631 
L 579.866964 50.737797 
L 581.349283 51.96462 
L 582.831603 52.885296 
L 584.313922 53.560734 
L 585.796242 55.774383 
L 587.278561 55.192394 
L 588.760881 56.308758 
L 591.725519 57.910357 
L 593.207839 56.833481 
L 594.690158 54.980531 
L 596.172478 55.913645 
L 597.654797 53.46293 
L 599.137117 54.232006 
L 600.619436 55.393869 
L 602.101756 55.226877 
L 603.584075 53.765523 
L 605.066394 54.480764 
L 606.548714 56.216197 
L 608.031033 55.187894 
L 609.513353 54.316258 
L 610.995672 53.886355 
L 612.477992 54.902363 
L 613.960311 54.946484 
L 615.44263 56.974122 
L 616.92495 59.698709 
L 618.407269 59.460171 
L 619.889589 59.501588 
L 621.371908 57.797576 
L 622.854228 59.331211 
L 624.336547 56.968363 
L 625.818866 57.545411 
L 627.301186 56.201122 
L 628.783505 56.487744 
L 630.265825 56.516102 
L 631.748144 56.978626 
L 633.230464 54.359792 
L 634.712783 56.596301 
L 637.677422 53.892822 
L 639.159741 51.940775 
L 640.642061 54.827725 
L 642.12438 51.497664 
L 643.6067 52.375565 
L 645.089019 53.412718 
L 646.571339 53.429748 
L 648.053658 51.629106 
L 649.535977 51.329886 
L 651.018297 50.729105 
L 652.500616 51.774079 
L 653.982936 51.847303 
L 655.465255 53.631756 
L 656.947575 52.141766 
L 658.429894 54.114082 
L 659.912213 53.164814 
L 661.394533 52.644605 
L 662.876852 53.873359 
L 664.359172 56.0171 
L 665.841491 54.521597 
L 667.323811 52.53751 
L 668.80613 55.962373 
L 670.28845 54.426682 
L 671.770769 56.052975 
L 673.253088 55.361788 
L 674.735408 55.900443 
L 676.217727 55.07014 
L 676.217727 55.07014 
" clip-path="url(#p113c6c9403)" style="fill: none; stroke: #ff7f0e; stroke-width: 1.5; stroke-linecap: square"/>
   </g>
   <g id="line2d_33">
    <path d="M 84.772273 362.033079 
L 86.254592 360.760602 
L 87.736912 355.609453 
L 89.219231 356.580202 
L 90.70155 347.122204 
L 92.18387 339.093229 
L 93.666189 336.378791 
L 96.630828 335.371386 
L 98.113148 326.127227 
L 99.595467 315.710125 
L 101.077787 311.225366 
L 102.560106 312.37124 
L 104.042425 317.491119 
L 105.524745 310.925315 
L 107.007064 311.185803 
L 108.489384 304.612828 
L 109.971703 296.983426 
L 111.454023 288.315282 
L 112.936342 284.404678 
L 114.418661 283.81683 
L 115.900981 282.902003 
L 117.3833 284.310505 
L 118.86562 287.167922 
L 120.347939 288.314894 
L 121.830259 301.252404 
L 123.312578 306.91337 
L 124.794897 315.775153 
L 126.277217 321.210559 
L 127.759536 328.558234 
L 129.241856 326.819243 
L 130.724175 330.133234 
L 132.206495 324.41503 
L 133.688814 324.360599 
L 135.171134 311.217278 
L 136.653453 327.854861 
L 138.135772 336.715708 
L 139.618092 340.51069 
L 141.100411 336.568542 
L 142.582731 337.125391 
L 144.06505 324.245676 
L 145.54737 323.344311 
L 147.029689 326.249117 
L 148.512008 313.133274 
L 149.994328 302.017925 
L 151.476647 297.855159 
L 152.958967 287.294769 
L 154.441286 284.650255 
L 155.923606 270.721485 
L 157.405925 261.84114 
L 158.888244 255.381097 
L 160.370564 243.604284 
L 161.852883 237.129783 
L 163.335203 236.554584 
L 164.817522 239.844309 
L 166.299842 226.549231 
L 167.782161 217.004468 
L 169.264481 208.26498 
L 170.7468 202.208495 
L 172.229119 199.560425 
L 173.711439 195.70651 
L 175.193758 195.791435 
L 176.676078 190.472834 
L 178.158397 189.101667 
L 181.123036 178.677843 
L 182.605355 173.391699 
L 184.087675 177.134483 
L 185.569994 175.503446 
L 187.052314 169.969164 
L 188.534633 166.565107 
L 190.016953 167.052755 
L 191.499272 159.600314 
L 192.981591 162.001866 
L 194.463911 158.33977 
L 195.94623 151.877798 
L 197.42855 140.845375 
L 198.910869 131.99239 
L 200.393189 122.404749 
L 201.875508 117.059503 
L 203.357828 111.075943 
L 204.840147 104.107566 
L 206.322466 97.854192 
L 207.804786 90.166929 
L 212.251744 76.016563 
L 213.734064 72.144333 
L 216.698702 68.107019 
L 218.181022 66.803871 
L 219.663341 66.618195 
L 221.145661 64.263821 
L 222.62798 61.392339 
L 224.1103 59.849953 
L 225.592619 60.09255 
L 227.074938 61.473227 
L 228.557258 58.961541 
L 230.039577 59.132553 
L 231.521897 56.373407 
L 233.004216 51.95685 
L 234.486536 51.792829 
L 235.968855 51.082699 
L 237.451175 50.173499 
L 238.933494 52.647118 
L 240.415813 52.026863 
L 241.898133 52.927853 
L 243.380452 53.376105 
L 244.862772 51.900976 
L 246.345091 51.810238 
L 247.827411 52.949681 
L 249.30973 50.843194 
L 250.792049 50.119431 
L 252.274369 48.805475 
L 253.756688 50.863878 
L 255.239008 50.936715 
L 256.721327 49.660895 
L 258.203647 52.523755 
L 259.685966 50.425957 
L 264.132924 41.776376 
L 265.615244 40.705453 
L 267.097563 40.668636 
L 268.579883 42.472752 
L 270.062202 43.55739 
L 271.544522 46.01834 
L 273.026841 47.839132 
L 274.50916 46.896728 
L 275.99148 47.148093 
L 278.956119 49.3918 
L 280.438438 49.972979 
L 281.920758 50.763716 
L 283.403077 51.089893 
L 284.885396 51.25707 
L 286.367716 53.134235 
L 287.850035 53.111215 
L 289.332355 51.685772 
L 290.814674 51.268562 
L 292.296994 52.703066 
L 293.779313 52.205768 
L 295.261632 52.133778 
L 296.743952 50.042206 
L 298.226271 50.621263 
L 301.19091 51.072757 
L 302.67323 50.245099 
L 304.155549 53.414181 
L 307.120188 53.630742 
L 308.602507 54.981406 
L 310.084827 55.064474 
L 311.567146 53.918981 
L 313.049466 53.755143 
L 314.531785 56.002939 
L 316.014105 53.359253 
L 317.496424 53.394584 
L 318.978743 53.669329 
L 320.461063 54.103035 
L 321.943382 53.936467 
L 323.425702 53.462975 
L 324.908021 53.644812 
L 326.390341 54.333114 
L 327.87266 57.433394 
L 329.354979 56.510202 
L 330.837299 54.0493 
L 332.319618 50.702361 
L 333.801938 50.364064 
L 335.284257 52.187997 
L 336.766577 51.685266 
L 338.248896 53.22884 
L 339.731216 52.197443 
L 341.213535 53.244406 
L 342.695854 52.118877 
L 344.178174 48.367688 
L 345.660493 50.53236 
L 347.142813 45.632266 
L 348.625132 44.55705 
L 350.107452 47.054676 
L 351.589771 47.751934 
L 353.07209 49.398002 
L 354.55441 49.787547 
L 356.036729 47.892764 
L 357.519049 48.825398 
L 359.001368 48.142958 
L 360.483688 49.926042 
L 361.966007 48.957986 
L 363.448326 50.153187 
L 364.930646 49.074989 
L 367.895285 52.099386 
L 369.377604 53.02167 
L 370.859924 51.884465 
L 372.342243 53.21417 
L 373.824563 55.914391 
L 375.306882 53.7722 
L 376.789201 53.916824 
L 378.271521 51.333856 
L 379.75384 53.613638 
L 381.23616 54.304949 
L 382.718479 54.343372 
L 384.200799 53.014364 
L 385.683118 53.297648 
L 387.165437 52.288907 
L 388.647757 52.6548 
L 390.130076 52.339708 
L 391.612396 54.113381 
L 393.094715 50.770187 
L 394.577035 52.306308 
L 396.059354 51.40674 
L 397.541674 51.326876 
L 399.023993 50.291821 
L 400.506312 52.629949 
L 401.988632 53.612081 
L 403.470951 50.924629 
L 404.953271 50.627618 
L 406.43559 52.108068 
L 407.91791 52.539602 
L 409.400229 52.26948 
L 410.882548 50.955279 
L 412.364868 48.543006 
L 413.847187 49.328892 
L 415.329507 49.224366 
L 416.811826 50.50056 
L 418.294146 48.138255 
L 419.776465 43.663851 
L 421.258784 45.040576 
L 422.741104 43.69447 
L 424.223423 42.635534 
L 425.705743 42.606153 
L 427.188062 44.077245 
L 428.670382 44.867362 
L 430.152701 45.203653 
L 431.635021 45.410773 
L 433.11734 47.96886 
L 434.599659 48.71126 
L 436.081979 48.981658 
L 437.564298 47.956891 
L 439.046618 47.723709 
L 440.528937 49.054048 
L 442.011257 47.074881 
L 443.493576 46.786334 
L 444.975895 49.878804 
L 446.458215 49.55557 
L 447.940534 50.235927 
L 449.422854 50.437298 
L 450.905173 52.998636 
L 452.387493 52.95051 
L 453.869812 53.354548 
L 455.352131 52.278512 
L 456.834451 51.529793 
L 458.31677 49.669666 
L 459.79909 49.66308 
L 461.281409 51.410907 
L 462.763729 55.725655 
L 464.246048 55.394415 
L 465.728368 55.807436 
L 467.210687 55.377695 
L 468.693006 53.876644 
L 470.175326 53.624911 
L 471.657645 53.658279 
L 473.139965 52.410597 
L 474.622284 49.661372 
L 476.104604 48.464801 
L 477.586923 48.25436 
L 479.069242 50.114888 
L 480.551562 50.293597 
L 482.033881 48.594785 
L 483.516201 48.59504 
L 484.99852 45.351584 
L 486.48084 46.33513 
L 487.963159 48.772657 
L 489.445478 49.652534 
L 490.927798 49.440049 
L 492.410117 50.328878 
L 493.892437 52.097019 
L 495.374756 49.816088 
L 498.339395 50.040648 
L 499.821715 49.241348 
L 501.304034 50.728997 
L 502.786353 50.58881 
L 504.268673 48.99728 
L 505.750992 49.644798 
L 507.233312 49.067748 
L 508.715631 49.294622 
L 510.197951 47.855027 
L 511.68027 46.909784 
L 513.162589 46.848578 
L 514.644909 47.458975 
L 516.127228 45.090368 
L 517.609548 46.771452 
L 519.091867 45.862549 
L 520.574187 46.041279 
L 522.056506 46.806288 
L 523.538825 44.859925 
L 526.503464 49.979069 
L 527.985784 51.611291 
L 529.468103 51.385063 
L 530.950423 51.943826 
L 532.432742 51.358344 
L 533.915062 50.909293 
L 535.397381 51.486076 
L 536.8797 52.748185 
L 538.36202 53.396777 
L 539.844339 51.112035 
L 541.326659 52.589607 
L 544.291298 51.117365 
L 545.773617 52.782023 
L 547.255936 54.777013 
L 548.738256 52.543169 
L 550.220575 51.61104 
L 551.702895 50.957284 
L 553.185214 50.523945 
L 554.667534 49.055948 
L 556.149853 48.693741 
L 557.632172 48.780952 
L 559.114492 50.391061 
L 560.596811 51.775237 
L 562.079131 53.332858 
L 563.56145 52.023591 
L 565.04377 53.317713 
L 566.526089 55.786174 
L 568.008409 52.517766 
L 569.490728 52.573505 
L 570.973047 51.519218 
L 572.455367 50.007361 
L 573.937686 51.777643 
L 575.420006 50.871597 
L 576.902325 50.463355 
L 578.384645 46.891618 
L 579.866964 51.049401 
L 581.349283 48.875862 
L 582.831603 51.013378 
L 584.313922 52.274651 
L 585.796242 52.322724 
L 587.278561 49.889735 
L 588.760881 51.308094 
L 590.2432 51.260313 
L 591.725519 52.492895 
L 593.207839 52.399454 
L 594.690158 53.270225 
L 596.172478 53.236399 
L 597.654797 52.614742 
L 599.137117 51.864021 
L 600.619436 53.93173 
L 602.101756 53.345566 
L 603.584075 52.994345 
L 605.066394 53.548604 
L 606.548714 52.52122 
L 608.031033 52.666877 
L 609.513353 52.511138 
L 610.995672 50.70052 
L 612.477992 51.559279 
L 613.960311 51.282811 
L 615.44263 51.651406 
L 616.92495 51.054706 
L 618.407269 49.379165 
L 619.889589 48.872496 
L 621.371908 47.602055 
L 622.854228 47.012927 
L 624.336547 49.219544 
L 625.818866 47.946791 
L 627.301186 45.99239 
L 628.783505 48.625738 
L 630.265825 47.681925 
L 631.748144 45.240994 
L 633.230464 46.148233 
L 634.712783 45.790518 
L 636.195103 47.99425 
L 637.677422 47.843584 
L 639.159741 48.257874 
L 640.642061 48.910132 
L 642.12438 48.125782 
L 643.6067 46.776478 
L 645.089019 47.900343 
L 646.571339 48.850622 
L 648.053658 48.857975 
L 652.500616 51.591991 
L 653.982936 53.053819 
L 655.465255 52.656448 
L 656.947575 51.774523 
L 658.429894 52.661 
L 659.912213 52.882372 
L 661.394533 51.540077 
L 662.876852 50.861466 
L 664.359172 49.092781 
L 665.841491 49.548384 
L 667.323811 50.409272 
L 668.80613 49.552916 
L 670.28845 47.467353 
L 671.770769 47.547813 
L 673.253088 51.598832 
L 674.735408 53.917606 
L 676.217727 51.860561 
L 676.217727 51.860561 
" clip-path="url(#p113c6c9403)" style="fill: none; stroke: #2ca02c; stroke-width: 1.5; stroke-linecap: square"/>
   </g>
   <g id="line2d_34">
    <path d="M 84.772273 349.472097 
L 86.254592 344.953246 
L 87.736912 343.873975 
L 89.219231 349.032692 
L 90.70155 351.167974 
L 92.18387 343.983701 
L 93.666189 341.525565 
L 95.148509 350.360246 
L 96.630828 349.619064 
L 98.113148 352.56566 
L 99.595467 347.005976 
L 101.077787 349.293846 
L 102.560106 350.786638 
L 104.042425 337.937593 
L 105.524745 334.318344 
L 107.007064 344.902796 
L 108.489384 366.442839 
L 109.971703 363.533697 
L 111.454023 364.304438 
L 112.936342 367.541364 
L 114.418661 362.370213 
L 115.900981 358.55147 
L 117.3833 354.083661 
L 118.86562 355.69293 
L 120.347939 344.0135 
L 121.830259 356.000886 
L 123.312578 354.702161 
L 124.794897 350.238024 
L 126.277217 353.233094 
L 127.759536 359.44703 
L 129.241856 355.053899 
L 130.724175 352.40103 
L 132.206495 349.161474 
L 133.688814 347.163666 
L 138.135772 272.092381 
L 139.618092 249.36492 
L 141.100411 230.718831 
L 144.06505 198.803089 
L 147.029689 171.495801 
L 148.512008 159.612563 
L 149.994328 148.756519 
L 151.476647 136.051248 
L 152.958967 127.050651 
L 154.441286 121.65933 
L 155.923606 115.44299 
L 158.888244 101.960466 
L 160.370564 97.558933 
L 161.852883 91.414676 
L 163.335203 88.081512 
L 164.817522 82.806851 
L 166.299842 78.487754 
L 169.264481 74.665618 
L 170.7468 73.910541 
L 172.229119 70.410454 
L 173.711439 67.209554 
L 175.193758 68.037786 
L 176.676078 66.334986 
L 178.158397 65.564014 
L 179.640717 63.818473 
L 181.123036 63.588788 
L 184.087675 59.204881 
L 185.569994 59.666789 
L 187.052314 61.336545 
L 188.534633 60.760059 
L 190.016953 59.557381 
L 191.499272 61.17108 
L 192.981591 60.501595 
L 194.463911 57.973429 
L 195.94623 58.595283 
L 197.42855 55.923773 
L 198.910869 53.563007 
L 200.393189 51.422622 
L 201.875508 51.45639 
L 203.357828 51.088242 
L 204.840147 52.546966 
L 206.322466 52.372467 
L 207.804786 53.030161 
L 209.287105 53.958056 
L 210.769425 53.443395 
L 212.251744 55.922827 
L 213.734064 56.342135 
L 215.216383 55.686588 
L 216.698702 54.554091 
L 219.663341 50.979878 
L 221.145661 52.044154 
L 222.62798 54.994986 
L 224.1103 53.868981 
L 225.592619 52.999819 
L 227.074938 51.904111 
L 228.557258 52.435427 
L 230.039577 51.465062 
L 231.521897 52.311694 
L 233.004216 51.790985 
L 234.486536 52.146233 
L 235.968855 49.450362 
L 237.451175 50.436756 
L 238.933494 50.415384 
L 240.415813 51.863915 
L 241.898133 53.561062 
L 243.380452 54.874248 
L 244.862772 55.581499 
L 246.345091 55.593115 
L 247.827411 54.163275 
L 249.30973 55.071816 
L 250.792049 51.936091 
L 252.274369 51.391826 
L 253.756688 50.246603 
L 256.721327 52.159816 
L 258.203647 50.259766 
L 259.685966 49.209253 
L 261.168285 50.415974 
L 262.650605 49.888948 
L 264.132924 49.81218 
L 265.615244 51.264297 
L 267.097563 50.597613 
L 268.579883 51.964319 
L 270.062202 52.006966 
L 271.544522 56.321607 
L 273.026841 59.47121 
L 274.50916 63.500554 
L 275.99148 63.958548 
L 277.473799 60.925315 
L 278.956119 58.905733 
L 280.438438 57.923295 
L 281.920758 60.19514 
L 283.403077 61.432984 
L 284.885396 63.622874 
L 286.367716 63.514433 
L 287.850035 62.876785 
L 289.332355 63.383972 
L 290.814674 60.154338 
L 292.296994 57.844709 
L 293.779313 56.306014 
L 295.261632 55.893551 
L 296.743952 53.546123 
L 298.226271 52.975785 
L 299.708591 53.037877 
L 301.19091 52.83588 
L 302.67323 52.332204 
L 304.155549 51.981583 
L 305.637869 51.35643 
L 307.120188 52.064382 
L 310.084827 52.035431 
L 311.567146 54.494208 
L 313.049466 52.856747 
L 314.531785 51.50476 
L 316.014105 49.509139 
L 317.496424 48.88415 
L 320.461063 50.086626 
L 321.943382 50.920771 
L 323.425702 48.800583 
L 324.908021 49.330526 
L 326.390341 52.403304 
L 329.354979 51.402284 
L 332.319618 49.794735 
L 333.801938 48.933312 
L 335.284257 50.407729 
L 336.766577 49.953651 
L 338.248896 48.216781 
L 339.731216 47.480746 
L 342.695854 53.092815 
L 344.178174 51.53119 
L 345.660493 51.419865 
L 347.142813 52.368105 
L 348.625132 52.393729 
L 351.589771 49.865398 
L 353.07209 50.571231 
L 354.55441 51.516535 
L 356.036729 52.964991 
L 357.519049 50.719779 
L 359.001368 53.299659 
L 360.483688 51.972084 
L 361.966007 53.915303 
L 363.448326 53.814696 
L 364.930646 53.473192 
L 366.412965 53.740386 
L 369.377604 49.316807 
L 370.859924 49.388875 
L 372.342243 49.849619 
L 373.824563 51.984252 
L 375.306882 53.433849 
L 376.789201 53.566061 
L 378.271521 54.774558 
L 379.75384 57.204712 
L 381.23616 55.112485 
L 382.718479 54.334408 
L 384.200799 53.117644 
L 385.683118 54.655162 
L 387.165437 52.977028 
L 388.647757 52.82151 
L 390.130076 51.151752 
L 391.612396 51.788598 
L 393.094715 51.821587 
L 394.577035 51.249779 
L 396.059354 51.285675 
L 397.541674 49.56392 
L 399.023993 50.090576 
L 400.506312 48.99483 
L 401.988632 48.925424 
L 403.470951 48.401838 
L 404.953271 49.467313 
L 406.43559 50.766165 
L 407.91791 49.661365 
L 409.400229 52.198708 
L 410.882548 50.259585 
L 413.847187 48.689146 
L 415.329507 47.197615 
L 418.294146 48.122371 
L 419.776465 46.887181 
L 421.258784 47.757227 
L 422.741104 50.632049 
L 424.223423 49.997028 
L 425.705743 47.612652 
L 427.188062 48.338688 
L 428.670382 48.916903 
L 430.152701 51.570699 
L 431.635021 52.702541 
L 433.11734 54.752121 
L 434.599659 51.083026 
L 437.564298 46.19172 
L 439.046618 46.734413 
L 440.528937 45.974289 
L 442.011257 46.724436 
L 443.493576 46.544401 
L 444.975895 48.676931 
L 446.458215 49.115358 
L 447.940534 49.672869 
L 449.422854 49.787862 
L 450.905173 50.821889 
L 452.387493 50.421688 
L 453.869812 49.586349 
L 455.352131 50.95621 
L 456.834451 51.128135 
L 458.31677 50.526349 
L 459.79909 52.461431 
L 461.281409 51.173322 
L 462.763729 50.907541 
L 464.246048 49.955318 
L 465.728368 47.812455 
L 467.210687 52.46831 
L 468.693006 52.55249 
L 470.175326 53.149524 
L 471.657645 54.263952 
L 473.139965 53.598384 
L 474.622284 55.003035 
L 477.586923 50.27457 
L 479.069242 48.435828 
L 480.551562 49.960656 
L 482.033881 47.953598 
L 483.516201 48.655784 
L 484.99852 51.080866 
L 486.48084 52.52724 
L 487.963159 52.570706 
L 489.445478 52.89577 
L 490.927798 55.046935 
L 493.892437 54.974251 
L 495.374756 52.015846 
L 496.857076 51.131138 
L 498.339395 52.708465 
L 499.821715 53.233478 
L 501.304034 52.403291 
L 502.786353 53.928293 
L 504.268673 55.209523 
L 505.750992 58.164601 
L 507.233312 56.668775 
L 508.715631 55.358938 
L 510.197951 56.347053 
L 511.68027 55.240151 
L 513.162589 53.82201 
L 514.644909 53.152608 
L 516.127228 52.869984 
L 517.609548 52.796117 
L 519.091867 55.84528 
L 520.574187 54.310602 
L 522.056506 51.170155 
L 523.538825 50.86741 
L 525.021145 49.56384 
L 526.503464 49.199248 
L 527.985784 49.05226 
L 529.468103 50.94405 
L 530.950423 50.256222 
L 532.432742 51.344246 
L 533.915062 51.235532 
L 535.397381 52.003771 
L 536.8797 50.687301 
L 538.36202 51.597356 
L 539.844339 53.410598 
L 541.326659 56.077119 
L 542.808978 55.435873 
L 544.291298 54.981809 
L 545.773617 53.264055 
L 547.255936 52.347503 
L 548.738256 53.426378 
L 550.220575 55.322898 
L 551.702895 54.570519 
L 553.185214 56.684432 
L 554.667534 54.62658 
L 556.149853 53.868848 
L 559.114492 51.777746 
L 560.596811 54.097976 
L 562.079131 54.469944 
L 563.56145 54.62671 
L 565.04377 53.59861 
L 566.526089 53.638702 
L 568.008409 52.811991 
L 569.490728 50.814362 
L 570.973047 50.296844 
L 573.937686 49.716594 
L 575.420006 50.237553 
L 576.902325 52.254832 
L 578.384645 53.07672 
L 579.866964 51.178855 
L 581.349283 51.899249 
L 582.831603 49.793709 
L 584.313922 52.373173 
L 585.796242 52.987637 
L 587.278561 51.292454 
L 588.760881 53.298119 
L 590.2432 52.030244 
L 591.725519 52.149233 
L 593.207839 53.225947 
L 594.690158 52.779071 
L 596.172478 51.276211 
L 597.654797 52.520196 
L 599.137117 51.785325 
L 600.619436 52.036503 
L 602.101756 50.829075 
L 603.584075 51.552043 
L 605.066394 50.897308 
L 606.548714 49.709105 
L 608.031033 47.640785 
L 609.513353 47.450709 
L 610.995672 47.023267 
L 612.477992 44.892435 
L 613.960311 46.896482 
L 615.44263 46.712201 
L 616.92495 46.943288 
L 618.407269 46.516382 
L 619.889589 48.123718 
L 621.371908 49.30855 
L 622.854228 51.704993 
L 624.336547 51.681895 
L 625.818866 50.884041 
L 627.301186 49.798563 
L 628.783505 47.015054 
L 630.265825 46.306689 
L 631.748144 46.274217 
L 633.230464 47.937131 
L 634.712783 50.140288 
L 636.195103 48.987072 
L 637.677422 50.006551 
L 639.159741 51.998486 
L 640.642061 52.758059 
L 643.6067 49.777229 
L 645.089019 51.100743 
L 646.571339 51.097972 
L 648.053658 50.556187 
L 649.535977 53.588813 
L 651.018297 53.667371 
L 652.500616 51.162128 
L 653.982936 53.11719 
L 655.465255 49.836857 
L 656.947575 49.123158 
L 658.429894 47.519206 
L 659.912213 46.672712 
L 661.394533 49.481473 
L 662.876852 47.934439 
L 664.359172 48.204975 
L 665.841491 47.788049 
L 667.323811 48.189898 
L 668.80613 47.652577 
L 670.28845 48.084032 
L 671.770769 48.219434 
L 673.253088 50.844425 
L 674.735408 52.842766 
L 676.217727 53.539594 
L 676.217727 53.539594 
" clip-path="url(#p113c6c9403)" style="fill: none; stroke: #d62728; stroke-width: 1.5; stroke-linecap: square"/>
   </g>
   <g id="line2d_35">
    <path d="M 84.772273 319.544472 
L 86.254592 309.658612 
L 87.736912 298.856447 
L 90.70155 269.647745 
L 92.18387 248.904691 
L 96.630828 205.988602 
L 98.113148 189.583165 
L 101.077787 165.929382 
L 102.560106 156.880393 
L 104.042425 146.973095 
L 108.489384 124.61319 
L 109.971703 115.543771 
L 111.454023 113.04384 
L 112.936342 108.0837 
L 114.418661 101.348774 
L 115.900981 95.288288 
L 117.3833 90.588793 
L 118.86562 88.647394 
L 120.347939 82.564692 
L 121.830259 79.516471 
L 123.312578 79.375218 
L 124.794897 76.337302 
L 126.277217 75.330007 
L 127.759536 74.945343 
L 129.241856 73.404844 
L 130.724175 68.565147 
L 133.688814 65.90173 
L 135.171134 63.711843 
L 136.653453 63.285441 
L 138.135772 64.719791 
L 139.618092 65.38585 
L 141.100411 65.096736 
L 142.582731 61.423808 
L 144.06505 60.233951 
L 145.54737 59.627749 
L 147.029689 60.973909 
L 148.512008 57.803516 
L 149.994328 55.883411 
L 151.476647 57.040117 
L 152.958967 57.890141 
L 154.441286 58.322465 
L 155.923606 57.220289 
L 157.405925 57.28971 
L 158.888244 56.24024 
L 160.370564 53.992937 
L 161.852883 54.683857 
L 163.335203 55.187732 
L 164.817522 54.547792 
L 166.299842 54.131109 
L 167.782161 51.806542 
L 169.264481 50.723257 
L 170.7468 51.07782 
L 172.229119 52.168476 
L 173.711439 52.461709 
L 175.193758 53.039585 
L 176.676078 50.61917 
L 178.158397 51.003234 
L 179.640717 49.501913 
L 181.123036 48.982603 
L 182.605355 49.619961 
L 184.087675 51.133107 
L 185.569994 51.905717 
L 187.052314 53.452745 
L 188.534633 51.338066 
L 190.016953 52.53734 
L 191.499272 54.464807 
L 192.981591 53.242973 
L 194.463911 55.578851 
L 195.94623 56.18425 
L 197.42855 58.369966 
L 198.910869 57.997804 
L 200.393189 59.285321 
L 201.875508 57.706587 
L 203.357828 56.487453 
L 204.840147 54.438692 
L 206.322466 54.966159 
L 207.804786 56.292189 
L 209.287105 55.930656 
L 210.769425 53.625442 
L 212.251744 51.654002 
L 213.734064 48.577163 
L 215.216383 48.665177 
L 216.698702 47.351255 
L 218.181022 47.78888 
L 219.663341 47.17033 
L 221.145661 45.040119 
L 222.62798 48.923223 
L 224.1103 48.592822 
L 225.592619 48.120241 
L 227.074938 47.965444 
L 228.557258 46.723621 
L 230.039577 46.846247 
L 231.521897 45.40134 
L 234.486536 44.785282 
L 235.968855 43.805721 
L 238.933494 44.900111 
L 240.415813 46.259968 
L 241.898133 46.085479 
L 243.380452 44.789539 
L 244.862772 47.525776 
L 246.345091 50.703558 
L 247.827411 51.164287 
L 249.30973 53.359567 
L 250.792049 56.012023 
L 252.274369 52.062071 
L 253.756688 50.197209 
L 255.239008 49.303671 
L 256.721327 47.32072 
L 258.203647 47.73537 
L 259.685966 48.672771 
L 261.168285 48.82167 
L 262.650605 47.885454 
L 264.132924 47.282636 
L 265.615244 48.340157 
L 267.097563 51.145792 
L 268.579883 54.700733 
L 270.062202 52.477994 
L 271.544522 50.69564 
L 273.026841 51.008884 
L 274.50916 51.969245 
L 278.956119 49.354334 
L 280.438438 50.128077 
L 281.920758 52.915259 
L 283.403077 49.364299 
L 284.885396 49.871697 
L 286.367716 50.234332 
L 287.850035 50.116991 
L 289.332355 52.53522 
L 290.814674 51.87802 
L 292.296994 51.855879 
L 293.779313 53.345145 
L 295.261632 51.313226 
L 296.743952 50.696839 
L 298.226271 50.777111 
L 299.708591 50.122873 
L 301.19091 51.080868 
L 302.67323 50.495652 
L 304.155549 50.543564 
L 305.637869 51.433841 
L 307.120188 54.365645 
L 308.602507 55.963484 
L 310.084827 56.528135 
L 311.567146 54.390152 
L 313.049466 52.905721 
L 314.531785 52.386994 
L 316.014105 49.807907 
L 317.496424 47.959263 
L 318.978743 48.084292 
L 320.461063 49.399085 
L 321.943382 48.601779 
L 323.425702 52.497272 
L 324.908021 51.016635 
L 326.390341 49.37423 
L 327.87266 50.50849 
L 329.354979 52.417103 
L 330.837299 52.260611 
L 332.319618 54.142273 
L 333.801938 53.76768 
L 335.284257 51.913138 
L 336.766577 52.851921 
L 338.248896 50.255578 
L 339.731216 52.500202 
L 341.213535 51.672374 
L 342.695854 49.680494 
L 344.178174 48.638743 
L 345.660493 49.729343 
L 347.142813 48.352743 
L 348.625132 45.013455 
L 350.107452 45.309689 
L 351.589771 46.879061 
L 353.07209 47.862525 
L 356.036729 46.761988 
L 357.519049 48.915333 
L 360.483688 48.57467 
L 361.966007 48.136924 
L 363.448326 49.512792 
L 364.930646 49.102689 
L 366.412965 49.842217 
L 367.895285 48.389671 
L 369.377604 48.390357 
L 370.859924 48.945391 
L 372.342243 48.869244 
L 373.824563 51.575672 
L 375.306882 51.374277 
L 376.789201 54.947142 
L 378.271521 53.687952 
L 379.75384 52.73916 
L 381.23616 51.300426 
L 382.718479 51.727862 
L 384.200799 53.370765 
L 385.683118 53.049612 
L 387.165437 51.150961 
L 388.647757 50.444352 
L 390.130076 49.865186 
L 393.094715 51.267945 
L 394.577035 51.196689 
L 396.059354 52.933681 
L 397.541674 51.555113 
L 399.023993 51.807475 
L 400.506312 50.995686 
L 401.988632 49.015644 
L 403.470951 50.549512 
L 404.953271 49.024259 
L 406.43559 48.249701 
L 407.91791 50.699337 
L 409.400229 49.695109 
L 410.882548 50.444254 
L 412.364868 50.199591 
L 413.847187 51.493997 
L 416.811826 53.327064 
L 418.294146 53.521974 
L 421.258784 51.582464 
L 422.741104 51.536616 
L 427.188062 53.427682 
L 428.670382 53.047034 
L 430.152701 53.752098 
L 431.635021 50.586622 
L 433.11734 51.55802 
L 434.599659 51.203584 
L 436.081979 52.045528 
L 437.564298 50.245849 
L 439.046618 51.802107 
L 440.528937 53.041344 
L 442.011257 50.707255 
L 443.493576 52.50589 
L 444.975895 52.808999 
L 446.458215 51.20412 
L 447.940534 50.974778 
L 449.422854 51.013023 
L 450.905173 51.249554 
L 452.387493 54.601621 
L 453.869812 53.407546 
L 455.352131 52.647699 
L 456.834451 53.710873 
L 458.31677 54.106854 
L 459.79909 54.221805 
L 461.281409 51.022795 
L 462.763729 49.52323 
L 464.246048 48.447867 
L 465.728368 49.483908 
L 468.693006 48.540342 
L 470.175326 48.21421 
L 471.657645 48.426162 
L 473.139965 50.02195 
L 474.622284 50.276664 
L 476.104604 49.006458 
L 477.586923 50.050943 
L 479.069242 50.238441 
L 480.551562 49.965286 
L 482.033881 47.80585 
L 483.516201 51.017613 
L 484.99852 52.362371 
L 486.48084 50.745108 
L 487.963159 49.899845 
L 489.445478 50.42258 
L 490.927798 49.845856 
L 492.410117 49.83301 
L 493.892437 51.153357 
L 495.374756 51.099785 
L 496.857076 46.953754 
L 498.339395 47.510329 
L 499.821715 45.599082 
L 501.304034 44.709973 
L 502.786353 47.99749 
L 504.268673 50.299578 
L 505.750992 50.350638 
L 507.233312 51.238549 
L 508.715631 50.640647 
L 510.197951 48.833828 
L 511.68027 50.023957 
L 513.162589 48.676083 
L 514.644909 49.272822 
L 516.127228 48.744788 
L 517.609548 53.178408 
L 519.091867 55.298995 
L 520.574187 54.942819 
L 522.056506 52.665804 
L 523.538825 52.119511 
L 525.021145 52.447447 
L 526.503464 49.541841 
L 527.985784 49.468104 
L 529.468103 51.836823 
L 530.950423 52.258329 
L 532.432742 55.095531 
L 533.915062 55.69318 
L 535.397381 53.975823 
L 536.8797 56.793719 
L 538.36202 56.040534 
L 539.844339 56.840167 
L 542.808978 53.072813 
L 544.291298 54.749625 
L 545.773617 54.216285 
L 547.255936 52.881041 
L 548.738256 54.999296 
L 550.220575 54.320581 
L 551.702895 55.987477 
L 553.185214 53.677646 
L 554.667534 53.885536 
L 556.149853 56.239462 
L 557.632172 55.015271 
L 559.114492 53.632699 
L 560.596811 55.746114 
L 562.079131 57.290127 
L 563.56145 58.407922 
L 565.04377 58.344048 
L 566.526089 57.227038 
L 568.008409 58.191867 
L 569.490728 55.628405 
L 570.973047 53.936848 
L 572.455367 53.763919 
L 573.937686 54.980658 
L 575.420006 54.367995 
L 578.384645 49.901479 
L 579.866964 51.785277 
L 582.831603 53.936607 
L 584.313922 53.304706 
L 585.796242 53.438913 
L 587.278561 54.400591 
L 588.760881 55.49576 
L 590.2432 54.150633 
L 591.725519 54.869672 
L 593.207839 54.185816 
L 594.690158 52.936949 
L 596.172478 53.964529 
L 597.654797 53.125418 
L 599.137117 53.980338 
L 600.619436 56.3572 
L 602.101756 57.734622 
L 603.584075 56.973178 
L 606.548714 59.243672 
L 608.031033 56.94687 
L 609.513353 56.523855 
L 610.995672 57.760413 
L 612.477992 57.604687 
L 613.960311 57.746481 
L 615.44263 55.233253 
L 616.92495 54.436589 
L 618.407269 55.917035 
L 619.889589 56.164912 
L 621.371908 55.376156 
L 622.854228 56.765779 
L 624.336547 60.196722 
L 625.818866 59.836595 
L 627.301186 58.686621 
L 628.783505 60.123565 
L 630.265825 57.909973 
L 631.748144 58.270618 
L 633.230464 56.194777 
L 634.712783 57.415883 
L 636.195103 59.359813 
L 637.677422 56.678704 
L 639.159741 56.672548 
L 640.642061 54.840453 
L 642.12438 54.754733 
L 643.6067 54.069314 
L 645.089019 55.59573 
L 646.571339 56.614427 
L 648.053658 54.233154 
L 649.535977 52.833423 
L 651.018297 51.951081 
L 652.500616 55.094369 
L 653.982936 54.478935 
L 655.465255 51.696639 
L 656.947575 54.861754 
L 658.429894 55.26049 
L 659.912213 56.536204 
L 661.394533 54.751564 
L 662.876852 52.659351 
L 664.359172 52.517359 
L 665.841491 51.057761 
L 667.323811 50.222719 
L 668.80613 48.425116 
L 670.28845 47.480794 
L 671.770769 49.79545 
L 673.253088 48.883515 
L 674.735408 45.829336 
L 676.217727 46.732566 
L 676.217727 46.732566 
" clip-path="url(#p113c6c9403)" style="fill: none; stroke: #9467bd; stroke-width: 1.5; stroke-linecap: square"/>
   </g>
   <g id="patch_3">
    <path d="M 55.2 383.885 
L 55.2 24.325 
" style="fill: none; stroke: #000000; stroke-width: 0.8; stroke-linejoin: miter; stroke-linecap: square"/>
   </g>
   <g id="patch_4">
    <path d="M 705.79 383.885 
L 705.79 24.325 
" style="fill: none; stroke: #000000; stroke-width: 0.8; stroke-linejoin: miter; stroke-linecap: square"/>
   </g>
   <g id="patch_5">
    <path d="M 55.2 383.885 
L 705.79 383.885 
" style="fill: none; stroke: #000000; stroke-width: 0.8; stroke-linejoin: miter; stroke-linecap: square"/>
   </g>
   <g id="patch_6">
    <path d="M 55.2 24.325 
L 705.79 24.325 
" style="fill: none; stroke: #000000; stroke-width: 0.8; stroke-linejoin: miter; stroke-linecap: square"/>
   </g>
   <g id="text_18">
    <!-- Reward Comparison -->
    <g transform="translate(312.495 18.325) scale(0.16 -0.16)">
     <defs>
      <path id="SimHei-43" d="M 2975 1825 
Q 2950 875 2575 475 
Q 2200 75 1675 75 
Q 1075 75 650 562 
Q 225 1050 225 2125 
Q 225 3300 637 3875 
Q 1050 4450 1700 4450 
Q 2250 4450 2612 4037 
Q 2975 3625 2950 2875 
L 2400 2875 
Q 2400 3425 2225 3700 
Q 2050 3975 1700 3975 
Q 1300 3975 1062 3562 
Q 825 3150 825 2175 
Q 825 1275 1062 912 
Q 1300 550 1675 550 
Q 1950 550 2175 812 
Q 2400 1075 2400 1825 
L 2975 1825 
z
" transform="scale(0.015625)"/>
      <path id="SimHei-6d" d="M 3050 125 
L 2550 125 
L 2550 2150 
Q 2550 2300 2500 2400 
Q 2450 2500 2300 2500 
Q 2125 2500 1975 2312 
Q 1825 2125 1825 1825 
L 1825 125 
L 1325 125 
L 1325 2150 
Q 1325 2300 1275 2400 
Q 1225 2500 1075 2500 
Q 900 2500 750 2312 
Q 600 2125 600 1825 
L 600 125 
L 100 125 
L 100 2925 
L 600 2925 
L 600 2550 
Q 725 2750 900 2862 
Q 1075 2975 1275 2975 
Q 1475 2975 1612 2862 
Q 1750 2750 1800 2550 
Q 1925 2750 2087 2862 
Q 2250 2975 2450 2975 
Q 2750 2975 2900 2812 
Q 3050 2650 3050 2350 
L 3050 125 
z
" transform="scale(0.015625)"/>
      <path id="SimHei-6e" d="M 2800 125 
L 2300 125 
L 2300 1925 
Q 2300 2225 2150 2400 
Q 2000 2575 1750 2575 
Q 1425 2575 1137 2237 
Q 850 1900 850 1400 
L 850 125 
L 350 125 
L 350 2925 
L 850 2925 
L 850 2400 
Q 1050 2675 1287 2825 
Q 1525 2975 1900 2975 
Q 2350 2975 2575 2725 
Q 2800 2475 2800 2100 
L 2800 125 
z
" transform="scale(0.015625)"/>
     </defs>
     <use xlink:href="#SimHei-52"/>
     <use xlink:href="#SimHei-65" transform="translate(50 0)"/>
     <use xlink:href="#SimHei-77" transform="translate(100 0)"/>
     <use xlink:href="#SimHei-61" transform="translate(150 0)"/>
     <use xlink:href="#SimHei-72" transform="translate(200 0)"/>
     <use xlink:href="#SimHei-64" transform="translate(250 0)"/>
     <use xlink:href="#SimHei-20" transform="translate(300 0)"/>
     <use xlink:href="#SimHei-43" transform="translate(350 0)"/>
     <use xlink:href="#SimHei-6f" transform="translate(400 0)"/>
     <use xlink:href="#SimHei-6d" transform="translate(450 0)"/>
     <use xlink:href="#SimHei-70" transform="translate(500 0)"/>
     <use xlink:href="#SimHei-61" transform="translate(550 0)"/>
     <use xlink:href="#SimHei-72" transform="translate(600 0)"/>
     <use xlink:href="#SimHei-69" transform="translate(650 0)"/>
     <use xlink:href="#SimHei-73" transform="translate(700 0)"/>
     <use xlink:href="#SimHei-6f" transform="translate(750 0)"/>
     <use xlink:href="#SimHei-6e" transform="translate(800 0)"/>
    </g>
   </g>
   <g id="legend_1">
    <g id="patch_7">
     <path d="M 610.99 377.885 
L 697.39 377.885 
Q 699.79 377.885 699.79 375.485 
L 699.79 297.185 
Q 699.79 294.785 697.39 294.785 
L 610.99 294.785 
Q 608.59 294.785 608.59 297.185 
L 608.59 375.485 
Q 608.59 377.885 610.99 377.885 
z
" style="fill: #ffffff; opacity: 0.8; stroke: #cccccc; stroke-linejoin: miter"/>
    </g>
    <g id="line2d_36">
     <path d="M 613.39 303.785 
L 625.39 303.785 
L 637.39 303.785 
" style="fill: none; stroke: #1f77b4; stroke-width: 1.5; stroke-linecap: square"/>
    </g>
    <g id="text_19">
     <!-- DDPG -->
     <g transform="translate(646.99 307.985) scale(0.12 -0.12)">
      <defs>
       <path id="SimHei-44" d="M 2925 2250 
Q 2925 1100 2437 612 
Q 1950 125 1125 125 
L 275 125 
L 275 4400 
L 1125 4400 
Q 2050 4400 2487 3900 
Q 2925 3400 2925 2250 
z
M 2325 2250 
Q 2325 3175 2025 3550 
Q 1725 3925 1125 3925 
L 850 3925 
L 850 600 
L 1125 600 
Q 1725 600 2025 962 
Q 2325 1325 2325 2250 
z
" transform="scale(0.015625)"/>
       <path id="SimHei-50" d="M 2950 3100 
Q 2950 2500 2600 2150 
Q 2250 1800 1625 1800 
L 900 1800 
L 900 125 
L 325 125 
L 325 4400 
L 1625 4400 
Q 2250 4400 2600 4050 
Q 2950 3700 2950 3100 
z
M 2375 3100 
Q 2375 3575 2150 3750 
Q 1925 3925 1475 3925 
L 900 3925 
L 900 2275 
L 1475 2275 
Q 1925 2275 2150 2450 
Q 2375 2625 2375 3100 
z
" transform="scale(0.015625)"/>
       <path id="SimHei-47" d="M 2850 75 
L 2425 75 
L 2350 425 
Q 2250 275 2037 175 
Q 1825 75 1575 75 
Q 1050 75 637 562 
Q 225 1050 225 2125 
Q 225 3300 600 3875 
Q 975 4450 1625 4450 
Q 2200 4450 2525 4025 
Q 2850 3600 2850 2925 
L 2300 2925 
Q 2300 3450 2125 3712 
Q 1950 3975 1625 3975 
Q 1225 3975 1025 3562 
Q 825 3150 825 2175 
Q 825 1250 1075 900 
Q 1325 550 1650 550 
Q 1975 550 2162 787 
Q 2350 1025 2350 1525 
L 2350 1800 
L 1575 1800 
L 1575 2275 
L 2850 2275 
L 2850 75 
z
" transform="scale(0.015625)"/>
      </defs>
      <use xlink:href="#SimHei-44"/>
      <use xlink:href="#SimHei-44" transform="translate(50 0)"/>
      <use xlink:href="#SimHei-50" transform="translate(100 0)"/>
      <use xlink:href="#SimHei-47" transform="translate(150 0)"/>
     </g>
    </g>
    <g id="line2d_37">
     <path d="M 613.39 319.685 
L 625.39 319.685 
L 637.39 319.685 
" style="fill: none; stroke: #ff7f0e; stroke-width: 1.5; stroke-linecap: square"/>
    </g>
    <g id="text_20">
     <!-- PPO -->
     <g transform="translate(646.99 323.885) scale(0.12 -0.12)">
      <defs>
       <path id="SimHei-4f" d="M 2950 2275 
Q 2950 1100 2587 587 
Q 2225 75 1575 75 
Q 925 75 550 587 
Q 175 1100 175 2275 
Q 175 3450 550 3950 
Q 925 4450 1575 4450 
Q 2225 4450 2587 3950 
Q 2950 3450 2950 2275 
z
M 2350 2275 
Q 2350 3325 2125 3650 
Q 1900 3975 1575 3975 
Q 1250 3975 1012 3650 
Q 775 3325 775 2275 
Q 775 1225 1012 887 
Q 1250 550 1575 550 
Q 1900 550 2125 887 
Q 2350 1225 2350 2275 
z
" transform="scale(0.015625)"/>
      </defs>
      <use xlink:href="#SimHei-50"/>
      <use xlink:href="#SimHei-50" transform="translate(50 0)"/>
      <use xlink:href="#SimHei-4f" transform="translate(100 0)"/>
     </g>
    </g>
    <g id="line2d_38">
     <path d="M 613.39 335.585 
L 625.39 335.585 
L 637.39 335.585 
" style="fill: none; stroke: #2ca02c; stroke-width: 1.5; stroke-linecap: square"/>
    </g>
    <g id="text_21">
     <!-- TD3 -->
     <g transform="translate(646.99 339.785) scale(0.12 -0.12)">
      <use xlink:href="#SimHei-54"/>
      <use xlink:href="#SimHei-44" transform="translate(50 0)"/>
      <use xlink:href="#SimHei-33" transform="translate(100 0)"/>
     </g>
    </g>
    <g id="line2d_39">
     <path d="M 613.39 351.485 
L 625.39 351.485 
L 637.39 351.485 
" style="fill: none; stroke: #d62728; stroke-width: 1.5; stroke-linecap: square"/>
    </g>
    <g id="text_22">
     <!-- GCN-DDQN -->
     <g transform="translate(646.99 355.685) scale(0.12 -0.12)">
      <defs>
       <path id="SimHei-4e" d="M 2850 125 
L 2225 125 
L 850 3225 
L 825 3225 
L 825 125 
L 250 125 
L 250 4400 
L 875 4400 
L 2250 1300 
L 2275 1300 
L 2275 4400 
L 2850 4400 
L 2850 125 
z
" transform="scale(0.015625)"/>
       <path id="SimHei-2d" d="M 2975 2125 
L 125 2125 
L 125 2525 
L 2975 2525 
L 2975 2125 
z
" transform="scale(0.015625)"/>
       <path id="SimHei-51" d="M 2950 2275 
Q 2950 1675 2862 1262 
Q 2775 850 2575 600 
L 2775 225 
L 2375 -200 
L 2150 225 
Q 2050 150 1900 112 
Q 1750 75 1575 75 
Q 925 75 550 587 
Q 175 1100 175 2275 
Q 175 3450 550 3950 
Q 925 4450 1575 4450 
Q 2225 4450 2587 3950 
Q 2950 3450 2950 2275 
z
M 2350 2275 
Q 2350 3325 2125 3650 
Q 1900 3975 1575 3975 
Q 1250 3975 1012 3650 
Q 775 3325 775 2275 
Q 775 1225 1012 887 
Q 1250 550 1575 550 
Q 1700 550 1800 587 
Q 1900 625 1950 675 
L 1550 1450 
L 1900 1875 
L 2250 1200 
Q 2300 1450 2325 1650 
Q 2350 1850 2350 2275 
z
" transform="scale(0.015625)"/>
      </defs>
      <use xlink:href="#SimHei-47"/>
      <use xlink:href="#SimHei-43" transform="translate(50 0)"/>
      <use xlink:href="#SimHei-4e" transform="translate(100 0)"/>
      <use xlink:href="#SimHei-2d" transform="translate(150 0)"/>
      <use xlink:href="#SimHei-44" transform="translate(200 0)"/>
      <use xlink:href="#SimHei-44" transform="translate(250 0)"/>
      <use xlink:href="#SimHei-51" transform="translate(300 0)"/>
      <use xlink:href="#SimHei-4e" transform="translate(350 0)"/>
     </g>
    </g>
    <g id="line2d_40">
     <path d="M 613.39 367.385 
L 625.39 367.385 
L 637.39 367.385 
" style="fill: none; stroke: #9467bd; stroke-width: 1.5; stroke-linecap: square"/>
    </g>
    <g id="text_23">
     <!-- GLDVTO -->
     <g transform="translate(646.99 371.585) scale(0.12 -0.12)">
      <defs>
       <path id="SimHei-4c" d="M 2900 125 
L 300 125 
L 300 4400 
L 875 4400 
L 875 600 
L 2900 600 
L 2900 125 
z
" transform="scale(0.015625)"/>
       <path id="SimHei-56" d="M 3050 4400 
L 1800 75 
L 1300 75 
L 50 4400 
L 650 4400 
L 1525 1125 
L 1575 1125 
L 2450 4400 
L 3050 4400 
z
" transform="scale(0.015625)"/>
      </defs>
      <use xlink:href="#SimHei-47"/>
      <use xlink:href="#SimHei-4c" transform="translate(50 0)"/>
      <use xlink:href="#SimHei-44" transform="translate(100 0)"/>
      <use xlink:href="#SimHei-56" transform="translate(150 0)"/>
      <use xlink:href="#SimHei-54" transform="translate(200 0)"/>
      <use xlink:href="#SimHei-4f" transform="translate(250 0)"/>
     </g>
    </g>
   </g>
  </g>
 </g>
 <defs>
  <clipPath id="p113c6c9403">
   <rect x="55.2" y="24.325" width="650.59" height="359.56"/>
  </clipPath>
 </defs>
</svg>
