<?xml version="1.0" encoding="utf-8" standalone="no"?>
<!DOCTYPE svg PUBLIC "-//W3C//DTD SVG 1.1//EN"
  "http://www.w3.org/Graphics/SVG/1.1/DTD/svg11.dtd">
<svg xmlns:xlink="http://www.w3.org/1999/xlink" width="689.6125pt" height="391.6261pt" viewBox="0 0 689.6125 391.6261" xmlns="http://www.w3.org/2000/svg" version="1.1">
 <metadata>
  <rdf:RDF xmlns:dc="http://purl.org/dc/elements/1.1/" xmlns:cc="http://creativecommons.org/ns#" xmlns:rdf="http://www.w3.org/1999/02/22-rdf-syntax-ns#">
   <cc:Work>
    <dc:type rdf:resource="http://purl.org/dc/dcmitype/StillImage"/>
    <dc:date>2026-07-10T14:36:08.127619</dc:date>
    <dc:format>image/svg+xml</dc:format>
    <dc:creator>
     <cc:Agent>
      <dc:title>Matplotlib v3.10.7, https://matplotlib.org/</dc:title>
     </cc:Agent>
    </dc:creator>
   </cc:Work>
  </rdf:RDF>
 </metadata>
 <defs>
  <style type="text/css">*{stroke-linejoin: round; stroke-linecap: butt}</style>
 </defs>
 <g id="figure_1">
  <g id="patch_1">
   <path d="M 0 391.6261 
L 689.6125 391.6261 
L 689.6125 0 
L 0 0 
z
" style="fill: #ffffff"/>
  </g>
  <g id="axes_1">
   <g id="patch_2">
    <path d="M 56.0125 349.8636 
L 682.4125 349.8636 
L 682.4125 34.5036 
L 56.0125 34.5036 
z
" style="fill: #ffffff"/>
   </g>
   <g id="matplotlib.axis_1">
    <g id="xtick_1">
     <g id="line2d_1">
      <path d="M 84.485227 349.8636 
L 84.485227 34.5036 
" clip-path="url(#pdad10b84cc)" style="fill: none; stroke-dasharray: 2.22,0.96; stroke-dashoffset: 0; stroke: #b0b0b0; stroke-opacity: 0.25; stroke-width: 0.6"/>
     </g>
     <g id="line2d_2">
      <defs>
       <path id="mc3a8c7e820" d="M 0 0 
L 0 3.5 
" style="stroke: #000000; stroke-width: 0.8"/>
      </defs>
      <g>
       <use xlink:href="#mc3a8c7e820" x="84.485227" y="349.8636" style="stroke: #000000; stroke-width: 0.8"/>
      </g>
     </g>
     <g id="text_1">
      <!-- 0 -->
      <g transform="translate(81.485227 365.1136) scale(0.12 -0.12)">
       <defs>
        <path id="SimHei-30" d="M 225 2537 
Q 250 3200 412 3587 
Q 575 3975 875 4225 
Q 1175 4475 1612 4475 
Q 2050 4475 2375 4112 
Q 2700 3750 2800 3200 
Q 2900 2650 2862 1937 
Q 2825 1225 2612 775 
Q 2400 325 1975 150 
Q 1550 -25 1125 187 
Q 700 400 525 750 
Q 350 1100 275 1487 
Q 200 1875 225 2537 
z
M 750 2687 
Q 675 2000 800 1462 
Q 925 925 1212 700 
Q 1500 475 1800 612 
Q 2100 750 2237 1162 
Q 2375 1575 2375 2062 
Q 2375 2550 2337 2950 
Q 2300 3350 2112 3675 
Q 1925 4000 1612 4012 
Q 1300 4025 1062 3700 
Q 825 3375 750 2687 
z
" transform="scale(0.015625)"/>
       </defs>
       <use xlink:href="#SimHei-30"/>
      </g>
     </g>
    </g>
    <g id="xtick_2">
     <g id="line2d_3">
      <path d="M 155.845446 349.8636 
L 155.845446 34.5036 
" clip-path="url(#pdad10b84cc)" style="fill: none; stroke-dasharray: 2.22,0.96; stroke-dashoffset: 0; stroke: #b0b0b0; stroke-opacity: 0.25; stroke-width: 0.6"/>
     </g>
     <g id="line2d_4">
      <g>
       <use xlink:href="#mc3a8c7e820" x="155.845446" y="349.8636" style="stroke: #000000; stroke-width: 0.8"/>
      </g>
     </g>
     <g id="text_2">
      <!-- 50 -->
      <g transform="translate(149.845446 365.1136) scale(0.12 -0.12)">
       <defs>
        <path id="SimHei-35" d="M 550 1325 
Q 725 650 1150 575 
Q 1575 500 1837 662 
Q 2100 825 2212 1087 
Q 2325 1350 2312 1675 
Q 2300 2000 2137 2225 
Q 1975 2450 1725 2525 
Q 1475 2600 1162 2525 
Q 850 2450 650 2175 
L 225 2225 
Q 275 2375 700 4375 
L 2675 4375 
L 2675 3925 
L 1075 3925 
Q 950 3250 825 2850 
Q 1200 3025 1525 3012 
Q 1850 3000 2150 2862 
Q 2450 2725 2587 2487 
Q 2725 2250 2787 2012 
Q 2850 1775 2837 1500 
Q 2825 1225 2725 937 
Q 2625 650 2425 462 
Q 2225 275 1937 162 
Q 1650 50 1275 75 
Q 900 100 562 350 
Q 225 600 100 1200 
L 550 1325 
z
" transform="scale(0.015625)"/>
       </defs>
       <use xlink:href="#SimHei-35"/>
       <use xlink:href="#SimHei-30" transform="translate(50 0)"/>
      </g>
     </g>
    </g>
    <g id="xtick_3">
     <g id="line2d_5">
      <path d="M 227.205665 349.8636 
L 227.205665 34.5036 
" clip-path="url(#pdad10b84cc)" style="fill: none; stroke-dasharray: 2.22,0.96; stroke-dashoffset: 0; stroke: #b0b0b0; stroke-opacity: 0.25; stroke-width: 0.6"/>
     </g>
     <g id="line2d_6">
      <g>
       <use xlink:href="#mc3a8c7e820" x="227.205665" y="349.8636" style="stroke: #000000; stroke-width: 0.8"/>
      </g>
     </g>
     <g id="text_3">
      <!-- 100 -->
      <g transform="translate(218.205665 365.1136) scale(0.12 -0.12)">
       <defs>
        <path id="SimHei-31" d="M 1400 3600 
Q 1075 3275 575 2975 
L 575 3450 
Q 1200 3875 1600 4450 
L 1900 4450 
L 1900 150 
L 1400 150 
L 1400 3600 
z
" transform="scale(0.015625)"/>
       </defs>
       <use xlink:href="#SimHei-31"/>
       <use xlink:href="#SimHei-30" transform="translate(50 0)"/>
       <use xlink:href="#SimHei-30" transform="translate(100 0)"/>
      </g>
     </g>
    </g>
    <g id="xtick_4">
     <g id="line2d_7">
      <path d="M 298.565883 349.8636 
L 298.565883 34.5036 
" clip-path="url(#pdad10b84cc)" style="fill: none; stroke-dasharray: 2.22,0.96; stroke-dashoffset: 0; stroke: #b0b0b0; stroke-opacity: 0.25; stroke-width: 0.6"/>
     </g>
     <g id="line2d_8">
      <g>
       <use xlink:href="#mc3a8c7e820" x="298.565883" y="349.8636" style="stroke: #000000; stroke-width: 0.8"/>
      </g>
     </g>
     <g id="text_4">
      <!-- 150 -->
      <g transform="translate(289.565883 365.1136) scale(0.12 -0.12)">
       <use xlink:href="#SimHei-31"/>
       <use xlink:href="#SimHei-35" transform="translate(50 0)"/>
       <use xlink:href="#SimHei-30" transform="translate(100 0)"/>
      </g>
     </g>
    </g>
    <g id="xtick_5">
     <g id="line2d_9">
      <path d="M 369.926102 349.8636 
L 369.926102 34.5036 
" clip-path="url(#pdad10b84cc)" style="fill: none; stroke-dasharray: 2.22,0.96; stroke-dashoffset: 0; stroke: #b0b0b0; stroke-opacity: 0.25; stroke-width: 0.6"/>
     </g>
     <g id="line2d_10">
      <g>
       <use xlink:href="#mc3a8c7e820" x="369.926102" y="349.8636" style="stroke: #000000; stroke-width: 0.8"/>
      </g>
     </g>
     <g id="text_5">
      <!-- 200 -->
      <g transform="translate(360.926102 365.1136) scale(0.12 -0.12)">
       <defs>
        <path id="SimHei-32" d="M 300 250 
Q 325 625 650 925 
Q 975 1225 1475 1862 
Q 1975 2500 2125 2850 
Q 2275 3200 2237 3450 
Q 2200 3700 2000 3862 
Q 1800 4025 1537 4000 
Q 1275 3975 1037 3800 
Q 800 3625 675 3275 
L 200 3350 
Q 400 3925 712 4187 
Q 1025 4450 1450 4475 
Q 1700 4500 1900 4462 
Q 2100 4425 2312 4287 
Q 2525 4150 2662 3875 
Q 2800 3600 2762 3212 
Q 2725 2825 2375 2287 
Q 2025 1750 1025 600 
L 2825 600 
L 2825 150 
L 300 150 
L 300 250 
z
" transform="scale(0.015625)"/>
       </defs>
       <use xlink:href="#SimHei-32"/>
       <use xlink:href="#SimHei-30" transform="translate(50 0)"/>
       <use xlink:href="#SimHei-30" transform="translate(100 0)"/>
      </g>
     </g>
    </g>
    <g id="xtick_6">
     <g id="line2d_11">
      <path d="M 441.286321 349.8636 
L 441.286321 34.5036 
" clip-path="url(#pdad10b84cc)" style="fill: none; stroke-dasharray: 2.22,0.96; stroke-dashoffset: 0; stroke: #b0b0b0; stroke-opacity: 0.25; stroke-width: 0.6"/>
     </g>
     <g id="line2d_12">
      <g>
       <use xlink:href="#mc3a8c7e820" x="441.286321" y="349.8636" style="stroke: #000000; stroke-width: 0.8"/>
      </g>
     </g>
     <g id="text_6">
      <!-- 250 -->
      <g transform="translate(432.286321 365.1136) scale(0.12 -0.12)">
       <use xlink:href="#SimHei-32"/>
       <use xlink:href="#SimHei-35" transform="translate(50 0)"/>
       <use xlink:href="#SimHei-30" transform="translate(100 0)"/>
      </g>
     </g>
    </g>
    <g id="xtick_7">
     <g id="line2d_13">
      <path d="M 512.64654 349.8636 
L 512.64654 34.5036 
" clip-path="url(#pdad10b84cc)" style="fill: none; stroke-dasharray: 2.22,0.96; stroke-dashoffset: 0; stroke: #b0b0b0; stroke-opacity: 0.25; stroke-width: 0.6"/>
     </g>
     <g id="line2d_14">
      <g>
       <use xlink:href="#mc3a8c7e820" x="512.64654" y="349.8636" style="stroke: #000000; stroke-width: 0.8"/>
      </g>
     </g>
     <g id="text_7">
      <!-- 300 -->
      <g transform="translate(503.64654 365.1136) scale(0.12 -0.12)">
       <defs>
        <path id="SimHei-33" d="M 250 1225 
L 700 1300 
Q 800 975 1025 762 
Q 1250 550 1587 562 
Q 1925 575 2125 837 
Q 2325 1100 2300 1437 
Q 2275 1775 2037 1962 
Q 1800 2150 1275 2225 
L 1275 2550 
Q 1800 2600 2037 2825 
Q 2275 3050 2250 3412 
Q 2225 3775 1925 3937 
Q 1625 4100 1287 3975 
Q 950 3850 750 3275 
L 300 3350 
Q 450 3800 712 4100 
Q 975 4400 1425 4450 
Q 1875 4500 2212 4337 
Q 2550 4175 2687 3837 
Q 2825 3500 2725 3100 
Q 2625 2700 2150 2400 
Q 2500 2250 2687 1950 
Q 2875 1650 2812 1162 
Q 2750 675 2375 375 
Q 2000 75 1525 87 
Q 1050 100 700 387 
Q 350 675 250 1225 
z
" transform="scale(0.015625)"/>
       </defs>
       <use xlink:href="#SimHei-33"/>
       <use xlink:href="#SimHei-30" transform="translate(50 0)"/>
       <use xlink:href="#SimHei-30" transform="translate(100 0)"/>
      </g>
     </g>
    </g>
    <g id="xtick_8">
     <g id="line2d_15">
      <path d="M 584.006758 349.8636 
L 584.006758 34.5036 
" clip-path="url(#pdad10b84cc)" style="fill: none; stroke-dasharray: 2.22,0.96; stroke-dashoffset: 0; stroke: #b0b0b0; stroke-opacity: 0.25; stroke-width: 0.6"/>
     </g>
     <g id="line2d_16">
      <g>
       <use xlink:href="#mc3a8c7e820" x="584.006758" y="349.8636" style="stroke: #000000; stroke-width: 0.8"/>
      </g>
     </g>
     <g id="text_8">
      <!-- 350 -->
      <g transform="translate(575.006758 365.1136) scale(0.12 -0.12)">
       <use xlink:href="#SimHei-33"/>
       <use xlink:href="#SimHei-35" transform="translate(50 0)"/>
       <use xlink:href="#SimHei-30" transform="translate(100 0)"/>
      </g>
     </g>
    </g>
    <g id="xtick_9">
     <g id="line2d_17">
      <path d="M 655.366977 349.8636 
L 655.366977 34.5036 
" clip-path="url(#pdad10b84cc)" style="fill: none; stroke-dasharray: 2.22,0.96; stroke-dashoffset: 0; stroke: #b0b0b0; stroke-opacity: 0.25; stroke-width: 0.6"/>
     </g>
     <g id="line2d_18">
      <g>
       <use xlink:href="#mc3a8c7e820" x="655.366977" y="349.8636" style="stroke: #000000; stroke-width: 0.8"/>
      </g>
     </g>
     <g id="text_9">
      <!-- 400 -->
      <g transform="translate(646.366977 365.1136) scale(0.12 -0.12)">
       <defs>
        <path id="SimHei-34" d="M 2000 1100 
L 75 1100 
L 75 1525 
L 2100 4450 
L 2475 4450 
L 2475 1525 
L 3075 1525 
L 3075 1100 
L 2475 1100 
L 2475 150 
L 2000 150 
L 2000 1100 
z
M 2000 1525 
L 2000 3500 
L 600 1525 
L 2000 1525 
z
" transform="scale(0.015625)"/>
       </defs>
       <use xlink:href="#SimHei-34"/>
       <use xlink:href="#SimHei-30" transform="translate(50 0)"/>
       <use xlink:href="#SimHei-30" transform="translate(100 0)"/>
      </g>
     </g>
    </g>
    <g id="text_10">
     <!-- Episode -->
     <g transform="translate(339.4625 382.3011) scale(0.17 -0.17)">
      <defs>
       <path id="SimHei-45" d="M 2900 125 
L 350 125 
L 350 4400 
L 2775 4400 
L 2775 3925 
L 925 3925 
L 925 2600 
L 2625 2600 
L 2625 2125 
L 925 2125 
L 925 600 
L 2900 600 
L 2900 125 
z
" transform="scale(0.015625)"/>
       <path id="SimHei-70" d="M 2825 1525 
Q 2825 800 2475 425 
Q 2125 50 1625 50 
Q 1350 50 1150 162 
Q 950 275 800 500 
L 800 -800 
L 300 -800 
L 300 2925 
L 800 2925 
L 800 2550 
Q 950 2775 1150 2875 
Q 1350 2975 1625 2975 
Q 2125 2975 2475 2612 
Q 2825 2250 2825 1525 
z
M 2275 1525 
Q 2275 2000 2087 2262 
Q 1900 2525 1525 2525 
Q 1225 2525 1012 2262 
Q 800 2000 800 1525 
Q 800 1050 1012 775 
Q 1225 500 1525 500 
Q 1900 500 2087 775 
Q 2275 1050 2275 1525 
z
" transform="scale(0.015625)"/>
       <path id="SimHei-69" d="M 1800 3725 
L 1300 3725 
L 1300 4375 
L 1800 4375 
L 1800 3725 
z
M 1800 125 
L 1300 125 
L 1300 2925 
L 1800 2925 
L 1800 125 
z
" transform="scale(0.015625)"/>
       <path id="SimHei-73" d="M 2750 900 
Q 2750 500 2437 287 
Q 2125 75 1650 75 
Q 1050 75 725 312 
Q 400 550 400 1000 
L 900 1000 
Q 900 700 1112 600 
Q 1325 500 1625 500 
Q 1925 500 2075 612 
Q 2225 725 2225 900 
Q 2225 1025 2100 1150 
Q 1975 1275 1475 1350 
Q 900 1425 687 1637 
Q 475 1850 475 2200 
Q 475 2500 762 2737 
Q 1050 2975 1600 2975 
Q 2100 2975 2387 2750 
Q 2675 2525 2675 2150 
L 2175 2150 
Q 2175 2375 2012 2462 
Q 1850 2550 1600 2550 
Q 1275 2550 1137 2437 
Q 1000 2325 1000 2175 
Q 1000 2000 1125 1900 
Q 1250 1800 1650 1750 
Q 2300 1650 2525 1437 
Q 2750 1225 2750 900 
z
" transform="scale(0.015625)"/>
       <path id="SimHei-6f" d="M 2925 1525 
Q 2925 875 2525 475 
Q 2125 75 1575 75 
Q 1025 75 625 475 
Q 225 875 225 1525 
Q 225 2175 625 2575 
Q 1025 2975 1575 2975 
Q 2125 2975 2525 2575 
Q 2925 2175 2925 1525 
z
M 2375 1525 
Q 2375 2025 2125 2275 
Q 1875 2525 1575 2525 
Q 1275 2525 1025 2275 
Q 775 2025 775 1525 
Q 775 1025 1025 775 
Q 1275 525 1575 525 
Q 1875 525 2125 775 
Q 2375 1025 2375 1525 
z
" transform="scale(0.015625)"/>
       <path id="SimHei-64" d="M 2750 125 
L 2250 125 
L 2250 500 
Q 2100 275 1900 175 
Q 1700 75 1425 75 
Q 925 75 575 437 
Q 225 800 225 1525 
Q 225 2250 575 2625 
Q 925 3000 1425 3000 
Q 1700 3000 1900 2887 
Q 2100 2775 2250 2550 
L 2250 4400 
L 2750 4400 
L 2750 125 
z
M 2250 1525 
Q 2250 2000 2037 2275 
Q 1825 2550 1525 2550 
Q 1150 2550 962 2275 
Q 775 2000 775 1525 
Q 775 1050 962 787 
Q 1150 525 1525 525 
Q 1825 525 2037 787 
Q 2250 1050 2250 1525 
z
" transform="scale(0.015625)"/>
       <path id="SimHei-65" d="M 2850 1075 
Q 2800 625 2450 350 
Q 2100 75 1625 75 
Q 1025 75 637 462 
Q 250 850 250 1525 
Q 250 2200 637 2587 
Q 1025 2975 1625 2975 
Q 2150 2975 2487 2637 
Q 2825 2300 2825 1525 
L 800 1525 
Q 800 975 1037 750 
Q 1275 525 1625 525 
Q 1900 525 2075 662 
Q 2250 800 2300 1075 
L 2850 1075 
z
M 2250 1925 
Q 2200 2275 2025 2412 
Q 1850 2550 1575 2550 
Q 1325 2550 1125 2412 
Q 925 2275 825 1925 
L 2250 1925 
z
" transform="scale(0.015625)"/>
      </defs>
      <use xlink:href="#SimHei-45"/>
      <use xlink:href="#SimHei-70" transform="translate(50 0)"/>
      <use xlink:href="#SimHei-69" transform="translate(100 0)"/>
      <use xlink:href="#SimHei-73" transform="translate(150 0)"/>
      <use xlink:href="#SimHei-6f" transform="translate(200 0)"/>
      <use xlink:href="#SimHei-64" transform="translate(250 0)"/>
      <use xlink:href="#SimHei-65" transform="translate(300 0)"/>
     </g>
    </g>
   </g>
   <g id="matplotlib.axis_2">
    <g id="ytick_1">
     <g id="line2d_19">
      <path d="M 56.0125 316.623278 
L 682.4125 316.623278 
" clip-path="url(#pdad10b84cc)" style="fill: none; stroke-dasharray: 2.22,0.96; stroke-dashoffset: 0; stroke: #b0b0b0; stroke-opacity: 0.25; stroke-width: 0.6"/>
     </g>
     <g id="line2d_20">
      <defs>
       <path id="m0e8ad088bd" d="M 0 0 
L -3.5 0 
" style="stroke: #000000; stroke-width: 0.8"/>
      </defs>
      <g>
       <use xlink:href="#m0e8ad088bd" x="56.0125" y="316.623278" style="stroke: #000000; stroke-width: 0.8"/>
      </g>
     </g>
     <g id="text_11">
      <!-- 600 -->
      <g transform="translate(31.0125 320.748278) scale(0.12 -0.12)">
       <defs>
        <path id="SimHei-36" d="M 250 1612 
Q 275 1975 387 2225 
Q 500 2475 725 2850 
L 1750 4450 
L 2325 4450 
L 1275 2800 
Q 1950 2975 2350 2750 
Q 2750 2525 2887 2237 
Q 3025 1950 3037 1612 
Q 3050 1275 2937 950 
Q 2825 625 2537 362 
Q 2250 100 1737 75 
Q 1225 50 862 262 
Q 500 475 362 862 
Q 225 1250 250 1612 
z
M 1025 787 
Q 1250 550 1625 525 
Q 2000 500 2250 775 
Q 2500 1050 2500 1575 
Q 2500 2100 2187 2300 
Q 1875 2500 1487 2450 
Q 1100 2400 925 2075 
Q 750 1750 775 1387 
Q 800 1025 1025 787 
z
" transform="scale(0.015625)"/>
       </defs>
       <use xlink:href="#SimHei-36"/>
       <use xlink:href="#SimHei-30" transform="translate(50 0)"/>
       <use xlink:href="#SimHei-30" transform="translate(100 0)"/>
      </g>
     </g>
    </g>
    <g id="ytick_2">
     <g id="line2d_21">
      <path d="M 56.0125 261.691926 
L 682.4125 261.691926 
" clip-path="url(#pdad10b84cc)" style="fill: none; stroke-dasharray: 2.22,0.96; stroke-dashoffset: 0; stroke: #b0b0b0; stroke-opacity: 0.25; stroke-width: 0.6"/>
     </g>
     <g id="line2d_22">
      <g>
       <use xlink:href="#m0e8ad088bd" x="56.0125" y="261.691926" style="stroke: #000000; stroke-width: 0.8"/>
      </g>
     </g>
     <g id="text_12">
      <!-- 800 -->
      <g transform="translate(31.0125 265.816926) scale(0.12 -0.12)">
       <defs>
        <path id="SimHei-38" d="M 175 1375 
Q 175 1675 325 1962 
Q 475 2250 825 2425 
Q 525 2600 425 2812 
Q 325 3025 312 3300 
Q 300 3575 387 3775 
Q 475 3975 650 4150 
Q 825 4325 1037 4387 
Q 1250 4450 1500 4450 
Q 1750 4450 1950 4400 
Q 2150 4350 2375 4187 
Q 2600 4025 2700 3725 
Q 2800 3425 2687 3025 
Q 2575 2625 2100 2400 
Q 2525 2275 2700 2012 
Q 2875 1750 2875 1375 
Q 2875 1000 2762 775 
Q 2650 550 2512 400 
Q 2375 250 2137 162 
Q 1900 75 1537 75 
Q 1175 75 912 162 
Q 650 250 475 425 
Q 300 600 237 837 
Q 175 1075 175 1375 
z
M 687 1400 
Q 675 1100 787 875 
Q 900 650 1200 587 
Q 1500 525 1825 600 
Q 2150 675 2275 950 
Q 2400 1225 2362 1500 
Q 2325 1775 2050 1962 
Q 1775 2150 1450 2125 
Q 1125 2100 912 1900 
Q 700 1700 687 1400 
z
M 775 3350 
Q 775 3100 950 2875 
Q 1125 2650 1500 2650 
Q 1875 2650 2062 2875 
Q 2250 3100 2237 3412 
Q 2225 3725 2012 3875 
Q 1800 4025 1437 4000 
Q 1075 3975 925 3787 
Q 775 3600 775 3350 
z
" transform="scale(0.015625)"/>
       </defs>
       <use xlink:href="#SimHei-38"/>
       <use xlink:href="#SimHei-30" transform="translate(50 0)"/>
       <use xlink:href="#SimHei-30" transform="translate(100 0)"/>
      </g>
     </g>
    </g>
    <g id="ytick_3">
     <g id="line2d_23">
      <path d="M 56.0125 206.760574 
L 682.4125 206.760574 
" clip-path="url(#pdad10b84cc)" style="fill: none; stroke-dasharray: 2.22,0.96; stroke-dashoffset: 0; stroke: #b0b0b0; stroke-opacity: 0.25; stroke-width: 0.6"/>
     </g>
     <g id="line2d_24">
      <g>
       <use xlink:href="#m0e8ad088bd" x="56.0125" y="206.760574" style="stroke: #000000; stroke-width: 0.8"/>
      </g>
     </g>
     <g id="text_13">
      <!-- 1000 -->
      <g transform="translate(25.0125 210.885574) scale(0.12 -0.12)">
       <use xlink:href="#SimHei-31"/>
       <use xlink:href="#SimHei-30" transform="translate(50 0)"/>
       <use xlink:href="#SimHei-30" transform="translate(100 0)"/>
       <use xlink:href="#SimHei-30" transform="translate(150 0)"/>
      </g>
     </g>
    </g>
    <g id="ytick_4">
     <g id="line2d_25">
      <path d="M 56.0125 151.829222 
L 682.4125 151.829222 
" clip-path="url(#pdad10b84cc)" style="fill: none; stroke-dasharray: 2.22,0.96; stroke-dashoffset: 0; stroke: #b0b0b0; stroke-opacity: 0.25; stroke-width: 0.6"/>
     </g>
     <g id="line2d_26">
      <g>
       <use xlink:href="#m0e8ad088bd" x="56.0125" y="151.829222" style="stroke: #000000; stroke-width: 0.8"/>
      </g>
     </g>
     <g id="text_14">
      <!-- 1200 -->
      <g transform="translate(25.0125 155.954222) scale(0.12 -0.12)">
       <use xlink:href="#SimHei-31"/>
       <use xlink:href="#SimHei-32" transform="translate(50 0)"/>
       <use xlink:href="#SimHei-30" transform="translate(100 0)"/>
       <use xlink:href="#SimHei-30" transform="translate(150 0)"/>
      </g>
     </g>
    </g>
    <g id="ytick_5">
     <g id="line2d_27">
      <path d="M 56.0125 96.89787 
L 682.4125 96.89787 
" clip-path="url(#pdad10b84cc)" style="fill: none; stroke-dasharray: 2.22,0.96; stroke-dashoffset: 0; stroke: #b0b0b0; stroke-opacity: 0.25; stroke-width: 0.6"/>
     </g>
     <g id="line2d_28">
      <g>
       <use xlink:href="#m0e8ad088bd" x="56.0125" y="96.89787" style="stroke: #000000; stroke-width: 0.8"/>
      </g>
     </g>
     <g id="text_15">
      <!-- 1400 -->
      <g transform="translate(25.0125 101.02287) scale(0.12 -0.12)">
       <use xlink:href="#SimHei-31"/>
       <use xlink:href="#SimHei-34" transform="translate(50 0)"/>
       <use xlink:href="#SimHei-30" transform="translate(100 0)"/>
       <use xlink:href="#SimHei-30" transform="translate(150 0)"/>
      </g>
     </g>
    </g>
    <g id="ytick_6">
     <g id="line2d_29">
      <path d="M 56.0125 41.966518 
L 682.4125 41.966518 
" clip-path="url(#pdad10b84cc)" style="fill: none; stroke-dasharray: 2.22,0.96; stroke-dashoffset: 0; stroke: #b0b0b0; stroke-opacity: 0.25; stroke-width: 0.6"/>
     </g>
     <g id="line2d_30">
      <g>
       <use xlink:href="#m0e8ad088bd" x="56.0125" y="41.966518" style="stroke: #000000; stroke-width: 0.8"/>
      </g>
     </g>
     <g id="text_16">
      <!-- 1600 -->
      <g transform="translate(25.0125 46.091518) scale(0.12 -0.12)">
       <use xlink:href="#SimHei-31"/>
       <use xlink:href="#SimHei-36" transform="translate(50 0)"/>
       <use xlink:href="#SimHei-30" transform="translate(100 0)"/>
       <use xlink:href="#SimHei-30" transform="translate(150 0)"/>
      </g>
     </g>
    </g>
    <g id="text_17">
     <!-- Total Reward -->
     <g transform="translate(18.8875 243.1836) rotate(-90) scale(0.17 -0.17)">
      <defs>
       <path id="SimHei-54" d="M 2850 3925 
L 1850 3925 
L 1850 125 
L 1275 125 
L 1275 3925 
L 275 3925 
L 275 4400 
L 2850 4400 
L 2850 3925 
z
" transform="scale(0.015625)"/>
       <path id="SimHei-74" d="M 2750 200 
Q 2625 150 2462 112 
Q 2300 75 2025 75 
Q 1575 75 1300 325 
Q 1025 575 1025 1025 
L 1025 2525 
L 175 2525 
L 175 2925 
L 1025 2925 
L 1025 3900 
L 1525 3900 
L 1525 2925 
L 2550 2925 
L 2550 2525 
L 1525 2525 
L 1525 1000 
Q 1525 800 1625 662 
Q 1725 525 2000 525 
Q 2275 525 2450 575 
Q 2625 625 2750 700 
L 2750 200 
z
" transform="scale(0.015625)"/>
       <path id="SimHei-61" d="M 2875 125 
L 2275 125 
Q 2225 175 2200 262 
Q 2175 350 2175 475 
Q 2000 275 1750 175 
Q 1500 75 1225 75 
Q 825 75 550 275 
Q 275 475 275 850 
Q 275 1225 525 1450 
Q 775 1675 1300 1750 
Q 1650 1800 1912 1875 
Q 2175 1950 2175 2075 
Q 2175 2225 2062 2375 
Q 1950 2525 1575 2525 
Q 1275 2525 1137 2412 
Q 1000 2300 950 2100 
L 400 2100 
Q 450 2500 762 2737 
Q 1075 2975 1575 2975 
Q 2125 2975 2400 2725 
Q 2675 2475 2675 2025 
L 2675 650 
Q 2675 500 2725 375 
Q 2775 250 2875 125 
z
M 2175 1050 
L 2175 1550 
Q 2025 1500 1887 1462 
Q 1750 1425 1425 1375 
Q 1050 1325 937 1200 
Q 825 1075 825 900 
Q 825 750 937 637 
Q 1050 525 1275 525 
Q 1500 525 1762 650 
Q 2025 775 2175 1050 
z
" transform="scale(0.015625)"/>
       <path id="SimHei-6c" d="M 1825 125 
L 1325 125 
L 1325 4400 
L 1825 4400 
L 1825 125 
z
" transform="scale(0.015625)"/>
       <path id="SimHei-20" transform="scale(0.015625)"/>
       <path id="SimHei-52" d="M 3000 125 
L 2400 125 
L 1500 1975 
L 850 1975 
L 850 125 
L 275 125 
L 275 4400 
L 1525 4400 
Q 2125 4400 2500 4112 
Q 2875 3825 2875 3175 
Q 2875 2675 2625 2400 
Q 2375 2125 2050 2050 
L 3000 125 
z
M 2300 3175 
Q 2300 3525 2087 3725 
Q 1875 3925 1400 3925 
L 850 3925 
L 850 2450 
L 1550 2450 
Q 1850 2450 2075 2612 
Q 2300 2775 2300 3175 
z
" transform="scale(0.015625)"/>
       <path id="SimHei-77" d="M 3075 2925 
L 2450 75 
L 1975 75 
L 1575 2250 
L 1525 2250 
L 1125 75 
L 650 75 
L 25 2925 
L 550 2925 
L 875 1050 
L 925 1050 
L 1275 2925 
L 1825 2925 
L 2175 1050 
L 2225 1050 
L 2550 2925 
L 3075 2925 
z
" transform="scale(0.015625)"/>
       <path id="SimHei-72" d="M 2500 2425 
Q 2025 2500 1700 2287 
Q 1375 2075 1150 1550 
L 1150 125 
L 650 125 
L 650 2925 
L 1150 2925 
L 1150 2200 
Q 1375 2600 1712 2787 
Q 2050 2975 2500 2975 
L 2500 2425 
z
" transform="scale(0.015625)"/>
      </defs>
      <use xlink:href="#SimHei-54"/>
      <use xlink:href="#SimHei-6f" transform="translate(50 0)"/>
      <use xlink:href="#SimHei-74" transform="translate(100 0)"/>
      <use xlink:href="#SimHei-61" transform="translate(150 0)"/>
      <use xlink:href="#SimHei-6c" transform="translate(200 0)"/>
      <use xlink:href="#SimHei-20" transform="translate(250 0)"/>
      <use xlink:href="#SimHei-52" transform="translate(300 0)"/>
      <use xlink:href="#SimHei-65" transform="translate(350 0)"/>
      <use xlink:href="#SimHei-77" transform="translate(400 0)"/>
      <use xlink:href="#SimHei-61" transform="translate(450 0)"/>
      <use xlink:href="#SimHei-72" transform="translate(500 0)"/>
      <use xlink:href="#SimHei-64" transform="translate(550 0)"/>
     </g>
    </g>
   </g>
   <g id="line2d_31">
    <path d="M 84.485227 244.163144 
L 85.912432 241.518569 
L 87.339636 230.415481 
L 88.76684 229.223999 
L 90.194045 235.549765 
L 91.621249 240.164339 
L 93.048454 247.432789 
L 94.475658 243.905445 
L 95.902862 238.17981 
L 97.330067 237.561728 
L 98.757271 237.154771 
L 100.184475 232.766822 
L 101.61168 225.702641 
L 103.038884 230.758745 
L 104.466089 221.63603 
L 105.893293 228.381142 
L 107.320497 234.270502 
L 108.747702 230.332999 
L 110.174906 224.312564 
L 111.60211 229.137091 
L 113.029315 241.137818 
L 114.456519 226.487869 
L 115.883724 242.29502 
L 117.310928 253.102863 
L 118.738132 241.67012 
L 120.165337 252.108251 
L 121.592541 245.236146 
L 123.019745 227.4827 
L 124.44695 211.504366 
L 125.874154 207.283208 
L 127.301359 217.177651 
L 128.728563 203.598835 
L 130.155767 204.321936 
L 131.582972 189.575178 
L 133.010176 187.021238 
L 134.43738 176.014487 
L 135.864585 163.462197 
L 137.291789 153.33868 
L 138.718994 155.604114 
L 140.146198 146.68974 
L 141.573402 166.244288 
L 144.427811 143.665158 
L 147.28222 124.810776 
L 148.709424 156.577543 
L 150.136629 146.851898 
L 151.563833 138.58415 
L 152.991037 129.143601 
L 155.845446 115.648347 
L 157.27265 111.753955 
L 158.699855 105.339307 
L 160.127059 99.442382 
L 161.554263 92.103192 
L 162.981468 87.661529 
L 165.835877 80.651398 
L 167.263081 79.951356 
L 168.690285 77.426194 
L 171.544694 74.042966 
L 172.971898 72.437553 
L 174.399103 70.608379 
L 175.826307 70.931959 
L 178.680716 68.255251 
L 180.10792 88.882084 
L 181.535125 117.455024 
L 182.962329 111.615837 
L 184.389533 122.908922 
L 185.816738 145.485062 
L 187.243942 141.57206 
L 188.671147 152.050561 
L 190.098351 144.05555 
L 191.525555 133.783131 
L 192.95276 128.021762 
L 194.379964 138.620873 
L 195.807168 164.089326 
L 198.661577 142.051111 
L 200.088782 135.438504 
L 201.515986 135.607367 
L 202.94319 137.135639 
L 204.370395 131.316187 
L 205.797599 133.884777 
L 207.224803 138.24712 
L 208.652008 131.602658 
L 210.079212 140.205569 
L 211.506417 131.316196 
L 212.933621 156.580319 
L 214.360825 165.571905 
L 215.78803 167.947741 
L 217.215234 167.012101 
L 218.642438 169.420959 
L 220.069643 183.631581 
L 221.496847 182.670823 
L 222.924052 175.130443 
L 224.351256 190.446567 
L 225.77846 183.612775 
L 228.632869 168.373379 
L 230.060073 159.593 
L 231.487278 155.728418 
L 232.914482 150.893564 
L 234.341687 148.099248 
L 235.768891 157.697716 
L 237.196095 158.20309 
L 238.6233 150.418386 
L 240.050504 158.656125 
L 241.477708 156.832274 
L 242.904913 147.71275 
L 244.332117 151.32556 
L 245.759322 151.458468 
L 247.186526 147.246878 
L 248.61373 149.455446 
L 250.040935 157.469902 
L 251.468139 162.581216 
L 252.895343 156.681413 
L 254.322548 155.365617 
L 255.749752 158.384962 
L 257.176957 161.847191 
L 258.604161 164.918676 
L 261.45857 176.521632 
L 262.885774 165.709998 
L 264.312978 164.628367 
L 265.740183 157.737585 
L 267.167387 163.444505 
L 268.594592 167.906816 
L 270.021796 168.490889 
L 271.449 168.757464 
L 272.876205 178.419435 
L 274.303409 173.21152 
L 275.730613 174.752026 
L 277.157818 172.629616 
L 278.585022 176.684083 
L 280.012227 174.985154 
L 281.439431 165.827507 
L 282.866635 162.364681 
L 284.29384 169.816925 
L 285.721044 179.064137 
L 287.148248 186.637887 
L 288.575453 191.211095 
L 290.002657 182.302626 
L 291.429862 182.283122 
L 292.857066 177.128899 
L 294.28427 177.764153 
L 295.711475 177.958193 
L 297.138679 181.135397 
L 298.565883 178.750822 
L 299.993088 176.679845 
L 301.420292 173.811673 
L 302.847497 177.055706 
L 304.274701 187.862801 
L 305.701905 181.729724 
L 307.12911 174.568418 
L 308.556314 171.325286 
L 309.983518 165.739646 
L 311.410723 166.411625 
L 312.837927 162.893399 
L 314.265132 167.322757 
L 315.692336 166.698147 
L 317.11954 168.068425 
L 318.546745 168.137536 
L 321.401153 164.547048 
L 324.255562 169.74202 
L 325.682767 167.729301 
L 327.109971 171.150345 
L 328.537175 171.014905 
L 329.96438 176.041798 
L 331.391584 178.610504 
L 332.818788 179.104648 
L 334.245993 174.407232 
L 335.673197 168.803319 
L 337.100402 162.133438 
L 338.527606 169.922318 
L 339.95481 178.442593 
L 341.382015 176.719448 
L 342.809219 167.725649 
L 344.236423 162.074982 
L 345.663628 165.507449 
L 347.090832 159.2624 
L 348.518037 163.750134 
L 349.945241 161.871099 
L 351.372445 160.601038 
L 352.79965 162.904603 
L 354.226854 166.657047 
L 355.654058 173.272517 
L 357.081263 171.590041 
L 358.508467 164.604318 
L 359.935672 162.521181 
L 361.362876 167.411667 
L 362.79008 182.430273 
L 364.217285 190.994072 
L 365.644489 188.056806 
L 367.071693 189.467861 
L 368.498898 193.199618 
L 369.926102 203.128142 
L 371.353307 198.381185 
L 372.780511 208.232492 
L 374.207715 222.511123 
L 375.63492 218.307308 
L 377.062124 210.39436 
L 378.489328 203.935378 
L 379.916533 219.464489 
L 381.343737 209.914935 
L 382.770942 220.747196 
L 384.198146 223.300147 
L 385.62535 225.056246 
L 387.052555 217.916526 
L 388.479759 216.852408 
L 389.906963 213.852451 
L 391.334168 211.926744 
L 392.761372 198.278252 
L 394.188577 189.142242 
L 395.615781 192.378009 
L 397.042985 187.118127 
L 398.47019 179.997832 
L 399.897394 170.341222 
L 401.324598 168.98545 
L 402.751803 172.160724 
L 404.179007 168.80516 
L 405.606212 158.881871 
L 407.033416 157.076545 
L 408.46062 159.687757 
L 409.887825 171.098704 
L 411.315029 163.819199 
L 412.742233 172.45026 
L 414.169438 165.081661 
L 415.596642 177.699691 
L 417.023847 170.495725 
L 418.451051 170.551761 
L 419.878255 177.290215 
L 421.30546 183.141457 
L 422.732664 177.88457 
L 424.159868 188.769902 
L 425.587073 185.635628 
L 427.014277 187.693422 
L 428.441482 189.173281 
L 429.868686 186.436789 
L 431.29589 178.592996 
L 434.150299 164.572011 
L 435.577503 168.712599 
L 437.004708 179.451308 
L 438.431912 177.624249 
L 439.859117 191.154647 
L 441.286321 200.590864 
L 442.713525 204.717196 
L 444.14073 200.363276 
L 445.567934 204.229192 
L 446.995138 193.223342 
L 448.422343 191.912533 
L 449.849547 190.840721 
L 451.276752 198.793533 
L 452.703956 189.850795 
L 454.13116 188.037154 
L 455.558365 195.024723 
L 456.985569 204.698343 
L 458.412773 193.89427 
L 459.839978 195.232997 
L 461.267182 195.860975 
L 462.694387 193.153921 
L 464.121591 190.70794 
L 465.548795 195.189757 
L 466.976 188.982104 
L 468.403204 189.998486 
L 469.830408 196.984862 
L 471.257613 196.96862 
L 472.684817 188.977109 
L 474.112022 191.97983 
L 475.539226 183.917631 
L 476.96643 183.283025 
L 478.393635 181.561383 
L 479.820839 180.441958 
L 481.248043 175.179769 
L 482.675248 170.520522 
L 484.102452 161.418076 
L 485.529657 158.84506 
L 486.956861 155.55784 
L 488.384065 153.382948 
L 489.81127 152.589633 
L 491.238474 143.077158 
L 492.665678 147.871172 
L 494.092883 142.01927 
L 495.520087 137.710058 
L 496.947292 135.3589 
L 498.374496 128.885094 
L 499.8017 130.435444 
L 502.656109 126.252566 
L 504.083313 120.9283 
L 505.510518 116.82703 
L 506.937722 117.512609 
L 508.364927 123.720198 
L 509.792131 132.490782 
L 511.219335 133.147799 
L 512.64654 141.12176 
L 514.073744 145.4048 
L 515.500948 153.035025 
L 516.928153 156.107924 
L 518.355357 155.520607 
L 519.782562 158.238841 
L 521.209766 153.1063 
L 522.63697 165.705372 
L 524.064175 165.301242 
L 525.491379 174.906406 
L 526.918583 172.07785 
L 528.345788 177.338672 
L 529.772992 188.807243 
L 531.200197 188.560093 
L 532.627401 190.93102 
L 534.054605 182.33586 
L 535.48181 193.084018 
L 536.909014 191.730308 
L 538.336218 187.457723 
L 539.763423 177.553621 
L 541.190627 179.087652 
L 542.617832 174.964586 
L 544.045036 177.684033 
L 546.899445 157.831127 
L 548.326649 156.933356 
L 549.753853 153.798615 
L 551.181058 161.323136 
L 552.608262 161.301887 
L 554.035467 153.552436 
L 555.462671 155.175154 
L 556.889875 160.711145 
L 558.31708 153.839914 
L 559.744284 154.839888 
L 561.171488 164.585578 
L 562.598693 168.856428 
L 564.025897 169.377286 
L 565.453102 167.301595 
L 566.880306 168.183075 
L 568.30751 165.542516 
L 569.734715 162.235865 
L 571.161919 169.779712 
L 572.589123 174.333432 
L 574.016328 178.072758 
L 575.443532 180.01557 
L 576.870737 174.920672 
L 578.297941 180.495494 
L 579.725145 178.504316 
L 581.15235 171.182063 
L 582.579554 176.898159 
L 584.006758 177.699199 
L 585.433963 174.795463 
L 586.861167 166.788047 
L 588.288371 160.530598 
L 589.715576 164.750658 
L 591.14278 156.379708 
L 592.569985 159.191486 
L 593.997189 158.790869 
L 595.424393 165.674721 
L 596.851598 170.710781 
L 598.278802 169.843661 
L 599.706006 164.959277 
L 601.133211 163.727723 
L 602.560415 169.976977 
L 603.98762 186.000589 
L 605.414824 194.348091 
L 606.842028 198.325792 
L 608.269233 192.751574 
L 609.696437 189.588879 
L 611.123641 185.067876 
L 612.550846 183.596306 
L 613.97805 176.919715 
L 615.405255 179.282752 
L 616.832459 191.080747 
L 618.259663 182.829359 
L 619.686868 181.350872 
L 621.114072 184.711539 
L 622.541276 184.820483 
L 623.968481 188.275551 
L 625.395685 186.818418 
L 626.82289 184.955028 
L 628.250094 181.877539 
L 629.677298 185.310681 
L 631.104503 181.036916 
L 633.958911 165.175367 
L 635.386116 163.019459 
L 636.81332 170.982998 
L 638.240525 167.046964 
L 639.667729 167.258079 
L 641.094933 155.837833 
L 642.522138 149.621793 
L 643.949342 151.493828 
L 645.376546 154.893139 
L 646.803751 153.887882 
L 648.230955 157.823413 
L 649.65816 157.94651 
L 651.085364 150.592799 
L 652.512568 149.532293 
L 653.939773 154.259552 
L 653.939773 154.259552 
" clip-path="url(#pdad10b84cc)" style="fill: none; stroke: #1f77b4; stroke-width: 1.2; stroke-linecap: square"/>
   </g>
   <g id="line2d_32">
    <path d="M 84.485227 295.344097 
L 85.912432 296.118091 
L 87.339636 290.300798 
L 88.76684 286.970338 
L 90.194045 274.815786 
L 91.621249 277.236965 
L 93.048454 266.687138 
L 94.475658 255.192702 
L 95.902862 250.471255 
L 97.330067 247.95492 
L 98.757271 244.311683 
L 100.184475 236.243102 
L 101.61168 238.433664 
L 103.038884 239.158187 
L 104.466089 243.213001 
L 105.893293 237.003625 
L 107.320497 237.784219 
L 108.747702 237.988464 
L 110.174906 239.88137 
L 111.60211 242.332915 
L 113.029315 243.678142 
L 114.456519 243.108238 
L 115.883724 242.20351 
L 117.310928 239.620484 
L 118.738132 236.422894 
L 120.165337 228.002711 
L 121.592541 233.102195 
L 123.019745 239.571734 
L 124.44695 243.690467 
L 125.874154 245.905368 
L 127.301359 239.301521 
L 128.728563 234.442045 
L 130.155767 227.825877 
L 131.582972 226.264081 
L 133.010176 215.315429 
L 134.43738 216.829333 
L 135.864585 216.35054 
L 137.291789 207.5739 
L 140.146198 210.9977 
L 141.573402 206.914147 
L 143.000607 202.371569 
L 144.427811 199.939409 
L 145.855015 196.711531 
L 147.28222 198.741505 
L 148.709424 200.110982 
L 150.136629 198.195505 
L 151.563833 191.192831 
L 152.991037 195.706916 
L 154.418242 193.284743 
L 155.845446 188.366431 
L 157.27265 188.440222 
L 158.699855 183.31681 
L 160.127059 181.996419 
L 161.554263 185.362962 
L 162.981468 186.329186 
L 164.408672 189.536792 
L 165.835877 188.427584 
L 167.263081 184.421274 
L 168.690285 182.729008 
L 170.11749 184.57573 
L 171.544694 181.023471 
L 172.971898 182.412253 
L 174.399103 179.120987 
L 175.826307 177.232565 
L 177.253512 177.296849 
L 178.680716 175.656258 
L 180.10792 169.38648 
L 181.535125 168.494575 
L 184.389533 160.819554 
L 185.816738 162.222039 
L 187.243942 160.034521 
L 188.671147 156.459265 
L 190.098351 161.159485 
L 192.95276 174.917544 
L 194.379964 172.924679 
L 195.807168 167.496582 
L 197.234373 166.595355 
L 198.661577 166.02128 
L 200.088782 167.214556 
L 201.515986 162.472611 
L 202.94319 164.124007 
L 204.370395 166.50842 
L 205.797599 165.415063 
L 207.224803 165.342306 
L 210.079212 159.676967 
L 211.506417 155.154895 
L 212.933621 151.594911 
L 214.360825 146.590954 
L 215.78803 139.397385 
L 217.215234 142.211335 
L 218.642438 147.668269 
L 221.496847 143.117917 
L 222.924052 144.378544 
L 224.351256 151.369792 
L 225.77846 148.057214 
L 227.205665 148.085697 
L 228.632869 146.75268 
L 230.060073 147.594085 
L 231.487278 140.79019 
L 232.914482 139.101618 
L 234.341687 142.006396 
L 235.768891 139.17261 
L 237.196095 137.785971 
L 238.6233 137.399912 
L 240.050504 136.784234 
L 241.477708 136.872551 
L 242.904913 137.602176 
L 244.332117 142.290386 
L 245.759322 141.626503 
L 247.186526 137.976207 
L 248.61373 135.086147 
L 251.468139 130.768165 
L 252.895343 131.89617 
L 254.322548 130.007184 
L 255.749752 129.357951 
L 257.176957 130.72411 
L 258.604161 126.964741 
L 260.031365 125.371662 
L 261.45857 127.88267 
L 264.312978 117.696627 
L 265.740183 115.552562 
L 267.167387 114.573474 
L 268.594592 117.828071 
L 270.021796 117.562366 
L 271.449 116.789826 
L 272.876205 113.876364 
L 274.303409 116.787955 
L 275.730613 116.653989 
L 277.157818 116.709799 
L 278.585022 116.270451 
L 280.012227 116.672504 
L 281.439431 116.215054 
L 282.866635 115.483837 
L 284.29384 111.678144 
L 285.721044 106.125055 
L 288.575453 101.44378 
L 290.002657 100.785551 
L 291.429862 97.774173 
L 294.28427 92.29273 
L 295.711475 90.486438 
L 297.138679 90.555952 
L 298.565883 91.811911 
L 299.993088 98.530018 
L 301.420292 97.942418 
L 302.847497 95.712654 
L 304.274701 93.875021 
L 305.701905 94.081887 
L 307.12911 97.269174 
L 308.556314 98.850386 
L 309.983518 99.286642 
L 311.410723 100.533201 
L 312.837927 100.738292 
L 314.265132 99.486439 
L 315.692336 97.77658 
L 317.11954 94.141813 
L 318.546745 96.330148 
L 319.973949 94.080725 
L 321.401153 90.467994 
L 322.828358 90.750286 
L 324.255562 87.256432 
L 325.682767 87.984986 
L 327.109971 85.967483 
L 328.537175 86.259328 
L 329.96438 88.270115 
L 331.391584 88.443408 
L 332.818788 88.18256 
L 334.245993 88.898864 
L 335.673197 85.577152 
L 337.100402 88.118402 
L 338.527606 89.885437 
L 339.95481 91.35642 
L 341.382015 93.388485 
L 342.809219 92.776961 
L 344.236423 90.045075 
L 345.663628 89.153907 
L 347.090832 85.559398 
L 348.518037 83.480702 
L 349.945241 80.990618 
L 351.372445 83.361775 
L 352.79965 82.349369 
L 354.226854 85.776324 
L 355.654058 87.845479 
L 357.081263 88.371993 
L 358.508467 85.687053 
L 359.935672 86.731636 
L 361.362876 85.344894 
L 362.79008 89.026503 
L 364.217285 86.910502 
L 365.644489 85.760946 
L 367.071693 84.865386 
L 368.498898 84.698952 
L 369.926102 83.396116 
L 371.353307 84.624255 
L 374.207715 80.657845 
L 375.63492 79.682258 
L 377.062124 79.668767 
L 378.489328 81.089055 
L 379.916533 78.742978 
L 381.343737 76.967909 
L 382.770942 75.67387 
L 384.198146 78.505393 
L 385.62535 77.37377 
L 387.052555 77.50639 
L 388.479759 78.086928 
L 389.906963 76.525952 
L 391.334168 76.882497 
L 392.761372 74.38135 
L 394.188577 74.34519 
L 395.615781 75.64703 
L 397.042985 74.820688 
L 398.47019 74.268458 
L 399.897394 76.98159 
L 402.751803 68.265503 
L 404.179007 69.623671 
L 405.606212 70.746822 
L 407.033416 69.981865 
L 408.46062 71.569464 
L 409.887825 71.848167 
L 411.315029 71.437898 
L 412.742233 70.268591 
L 414.169438 71.130444 
L 415.596642 72.332816 
L 417.023847 74.298926 
L 418.451051 70.504424 
L 419.878255 72.757763 
L 421.30546 71.318472 
L 422.732664 70.727913 
L 424.159868 70.471288 
L 425.587073 71.583887 
L 427.014277 73.675066 
L 428.441482 73.630669 
L 429.868686 73.397457 
L 431.29589 73.979111 
L 434.150299 74.547216 
L 435.577503 72.646817 
L 437.004708 72.343116 
L 438.431912 72.662721 
L 439.859117 71.011809 
L 441.286321 73.560359 
L 442.713525 73.085843 
L 444.14073 74.291247 
L 445.567934 75.85995 
L 446.995138 72.695965 
L 448.422343 70.202919 
L 449.849547 68.92479 
L 451.276752 70.434752 
L 452.703956 68.056906 
L 454.13116 66.852343 
L 455.558365 64.564781 
L 456.985569 65.218439 
L 458.412773 64.940655 
L 459.839978 66.749678 
L 461.267182 65.907711 
L 462.694387 67.277597 
L 465.548795 68.876387 
L 466.976 69.224788 
L 468.403204 67.140498 
L 469.830408 68.680881 
L 471.257613 68.9061 
L 472.684817 69.899387 
L 474.112022 68.07268 
L 475.539226 71.322778 
L 476.96643 71.399516 
L 478.393635 72.706338 
L 479.820839 68.535917 
L 481.248043 71.929151 
L 482.675248 75.746594 
L 484.102452 75.18694 
L 485.529657 73.701741 
L 486.956861 71.627537 
L 488.384065 70.640634 
L 489.81127 68.555295 
L 491.238474 68.320728 
L 492.665678 69.46836 
L 494.092883 67.675546 
L 495.520087 67.867158 
L 496.947292 66.852449 
L 499.8017 69.863673 
L 501.228905 70.476002 
L 502.656109 69.807356 
L 504.083313 68.919071 
L 505.510518 66.446976 
L 506.937722 63.656186 
L 508.364927 64.176639 
L 509.792131 64.44707 
L 511.219335 64.886908 
L 512.64654 64.440985 
L 514.073744 61.287857 
L 515.500948 61.582857 
L 516.928153 62.497468 
L 518.355357 59.963406 
L 521.209766 60.179874 
L 522.63697 60.840999 
L 524.064175 61.66269 
L 525.491379 60.696849 
L 526.918583 60.826561 
L 528.345788 61.330428 
L 529.772992 61.699328 
L 531.200197 59.754262 
L 534.054605 61.257587 
L 535.48181 61.135186 
L 536.909014 60.302993 
L 538.336218 58.918693 
L 539.763423 59.97345 
L 541.190627 60.74204 
L 542.617832 58.78348 
L 544.045036 59.759965 
L 546.899445 59.46266 
L 548.326649 57.075007 
L 549.753853 57.242944 
L 551.181058 56.519404 
L 552.608262 57.356312 
L 554.035467 57.158912 
L 555.462671 56.588482 
L 556.889875 56.393468 
L 558.31708 56.470297 
L 559.744284 56.762486 
L 561.171488 57.669524 
L 562.598693 58.745536 
L 564.025897 59.553035 
L 565.453102 60.145443 
L 566.880306 62.086973 
L 568.30751 61.576526 
L 569.734715 62.555658 
L 572.589123 63.960376 
L 574.016328 63.015878 
L 575.443532 61.390707 
L 576.870737 62.209115 
L 578.297941 60.059662 
L 579.725145 60.734197 
L 581.15235 61.753234 
L 582.579554 61.60677 
L 584.006758 60.325057 
L 585.433963 60.952376 
L 586.861167 62.474476 
L 588.288371 61.57258 
L 589.715576 60.808092 
L 591.14278 60.431036 
L 592.569985 61.322148 
L 593.997189 61.360845 
L 595.424393 63.13923 
L 596.851598 65.528888 
L 598.278802 65.319674 
L 599.706006 65.356 
L 601.133211 63.861458 
L 602.560415 65.206567 
L 603.98762 63.134179 
L 605.414824 63.640292 
L 606.842028 62.461253 
L 608.269233 62.712642 
L 609.696437 62.737513 
L 611.123641 63.14318 
L 612.550846 60.846275 
L 613.97805 62.807853 
L 616.832459 60.436708 
L 618.259663 58.724623 
L 619.686868 61.256685 
L 621.114072 58.335982 
L 622.541276 59.105965 
L 623.968481 60.015622 
L 625.395685 60.030559 
L 626.82289 58.451267 
L 628.250094 58.188829 
L 629.677298 57.6619 
L 631.104503 58.578418 
L 632.531707 58.642641 
L 633.958911 60.207734 
L 635.386116 58.900906 
L 636.81332 60.630769 
L 638.240525 59.798193 
L 639.667729 59.341932 
L 641.094933 60.419638 
L 642.522138 62.299853 
L 643.949342 60.988189 
L 645.376546 59.248002 
L 646.803751 62.251853 
L 648.230955 60.904941 
L 649.65816 62.331318 
L 651.085364 61.725097 
L 652.512568 62.197536 
L 653.939773 61.469301 
L 653.939773 61.469301 
" clip-path="url(#pdad10b84cc)" style="fill: none; stroke: #ff7f0e; stroke-width: 1.2; stroke-linecap: square"/>
   </g>
   <g id="line2d_33">
    <path d="M 84.485227 330.697893 
L 85.912432 329.581838 
L 87.339636 325.06391 
L 88.76684 325.915327 
L 90.194045 317.619982 
L 91.621249 310.577992 
L 93.048454 308.197235 
L 95.902862 307.313669 
L 97.330067 299.205876 
L 98.757271 290.069328 
L 100.184475 286.135871 
L 101.61168 287.140886 
L 103.038884 291.631387 
L 104.466089 285.872705 
L 105.893293 286.101172 
L 107.320497 280.336199 
L 108.747702 273.644665 
L 110.174906 266.042079 
L 111.60211 262.612197 
L 113.029315 262.096612 
L 114.456519 261.294243 
L 115.883724 262.529601 
L 117.310928 265.035761 
L 118.738132 266.041738 
L 120.165337 277.388866 
L 121.592541 282.35394 
L 123.019745 290.126362 
L 124.44695 294.893604 
L 125.874154 301.338044 
L 127.301359 299.812824 
L 128.728563 302.719432 
L 130.155767 297.704156 
L 131.582972 297.656416 
L 133.010176 286.128778 
L 134.43738 300.721135 
L 135.864585 308.492736 
L 137.291789 311.821209 
L 138.718994 308.36366 
L 140.146198 308.852057 
L 141.573402 297.55562 
L 143.000607 296.765058 
L 144.427811 299.312782 
L 145.855015 287.809244 
L 147.28222 278.060283 
L 148.709424 274.409237 
L 150.136629 265.147015 
L 151.563833 262.827586 
L 152.991037 250.611052 
L 154.418242 242.822351 
L 155.845446 237.156428 
L 157.27265 226.827315 
L 158.699855 221.148711 
L 160.127059 220.644221 
L 161.554263 223.529546 
L 162.981468 211.868806 
L 164.408672 203.497362 
L 165.835877 195.832202 
L 167.263081 190.520229 
L 168.690285 188.19768 
L 170.11749 184.817519 
L 171.544694 184.892005 
L 172.971898 180.227209 
L 174.399103 179.024597 
L 177.253512 169.882153 
L 178.680716 165.245824 
L 180.10792 168.528516 
L 181.535125 167.097978 
L 182.962329 162.244015 
L 184.389533 159.258412 
L 185.816738 159.686114 
L 187.243942 153.149787 
L 188.671147 155.256121 
L 190.098351 152.0442 
L 191.525555 146.376585 
L 192.95276 136.700356 
L 194.379964 128.935651 
L 195.807168 120.526599 
L 197.234373 115.838433 
L 198.661577 110.590421 
L 200.088782 104.478653 
L 201.515986 98.993994 
L 202.94319 92.251711 
L 208.652008 76.444597 
L 211.506417 72.903582 
L 212.933621 71.760627 
L 214.360825 71.597776 
L 215.78803 69.532821 
L 217.215234 67.014324 
L 218.642438 65.661541 
L 220.069643 65.874315 
L 221.496847 67.085269 
L 222.924052 64.882339 
L 224.351256 65.03233 
L 225.77846 62.61236 
L 227.205665 58.738722 
L 228.632869 58.594863 
L 230.060073 57.972028 
L 231.487278 57.174595 
L 232.914482 59.344136 
L 234.341687 58.800128 
L 235.768891 59.590361 
L 237.196095 59.98351 
L 238.6233 58.689716 
L 240.050504 58.610132 
L 241.477708 59.609505 
L 242.904913 57.761965 
L 244.332117 57.127173 
L 245.759322 55.974739 
L 247.186526 57.780106 
L 248.61373 57.84399 
L 250.040935 56.725003 
L 251.468139 59.235938 
L 252.895343 57.396018 
L 257.176957 49.809713 
L 258.604161 48.870436 
L 260.031365 48.838145 
L 261.45857 50.420485 
L 262.885774 51.37179 
L 264.312978 53.53022 
L 265.740183 55.127186 
L 267.167387 54.30063 
L 268.594592 54.521095 
L 271.449 56.488988 
L 272.876205 56.998724 
L 274.303409 57.692257 
L 275.730613 57.978338 
L 277.157818 58.124964 
L 278.585022 59.771372 
L 280.012227 59.751183 
L 281.439431 58.500966 
L 282.866635 58.135043 
L 284.29384 59.393206 
L 285.721044 58.95704 
L 287.148248 58.8939 
L 288.575453 57.059441 
L 290.002657 57.567316 
L 292.857066 57.963308 
L 294.28427 57.237392 
L 295.711475 60.016906 
L 298.565883 60.206845 
L 299.993088 61.391474 
L 301.420292 61.464331 
L 302.847497 60.459651 
L 304.274701 60.315954 
L 305.701905 62.287433 
L 307.12911 59.96873 
L 308.556314 59.999717 
L 309.983518 60.240688 
L 311.410723 60.62108 
L 312.837927 60.474988 
L 314.265132 60.059702 
L 315.692336 60.219186 
L 317.11954 60.822876 
L 318.546745 63.542044 
L 319.973949 62.732339 
L 321.401153 60.573951 
L 322.828358 57.638444 
L 324.255562 57.341733 
L 325.682767 58.941453 
L 327.109971 58.500523 
L 328.537175 59.854348 
L 329.96438 58.949739 
L 331.391584 59.868001 
L 332.818788 58.88083 
L 334.245993 55.590768 
L 335.673197 57.489341 
L 337.100402 53.191606 
L 338.527606 52.248565 
L 339.95481 54.439162 
L 341.382015 55.050707 
L 342.809219 56.494428 
L 344.236423 56.836086 
L 345.663628 55.174225 
L 347.090832 55.992212 
L 348.518037 55.393663 
L 349.945241 56.957556 
L 351.372445 56.108502 
L 352.79965 57.156779 
L 354.226854 56.211122 
L 357.081263 58.863736 
L 358.508467 59.672645 
L 359.935672 58.675235 
L 361.362876 59.841482 
L 362.79008 62.20977 
L 364.217285 60.330914 
L 365.644489 60.457759 
L 367.071693 58.192311 
L 368.498898 60.191844 
L 369.926102 60.798173 
L 371.353307 60.831873 
L 372.780511 59.666237 
L 374.207715 59.914697 
L 375.63492 59.029959 
L 377.062124 59.350874 
L 378.489328 59.074515 
L 379.916533 60.630154 
L 381.343737 57.697932 
L 382.770942 59.045221 
L 384.198146 58.256235 
L 385.62535 58.186189 
L 387.052555 57.278371 
L 388.479759 59.329077 
L 389.906963 60.190478 
L 391.334168 57.833389 
L 392.761372 57.572889 
L 394.188577 58.87135 
L 395.615781 59.249837 
L 397.042985 59.012921 
L 398.47019 57.860271 
L 399.897394 55.744535 
L 401.324598 56.433813 
L 402.751803 56.342136 
L 404.179007 57.46145 
L 405.606212 55.389539 
L 407.033416 51.465165 
L 408.46062 52.672651 
L 409.887825 51.49202 
L 411.315029 50.563256 
L 412.742233 50.537487 
L 414.169438 51.827741 
L 415.596642 52.52073 
L 418.451051 52.99734 
L 419.878255 55.240967 
L 421.30546 55.892105 
L 422.732664 56.129264 
L 424.159868 55.230469 
L 425.587073 55.025952 
L 427.014277 56.192755 
L 428.441482 54.456883 
L 429.868686 54.203806 
L 431.29589 56.916126 
L 432.723095 56.632626 
L 434.150299 57.229348 
L 435.577503 57.405964 
L 437.004708 59.652443 
L 438.431912 59.610233 
L 439.859117 59.964603 
L 441.286321 59.020842 
L 442.713525 58.364162 
L 444.14073 56.732697 
L 445.567934 56.726919 
L 446.995138 58.25989 
L 448.422343 62.044235 
L 449.849547 61.753714 
L 451.276752 62.115962 
L 452.703956 61.739049 
L 454.13116 60.422519 
L 455.558365 60.201731 
L 456.985569 60.230997 
L 458.412773 59.13669 
L 459.839978 56.725422 
L 461.267182 55.675943 
L 462.694387 55.491371 
L 464.121591 57.123188 
L 465.548795 57.279928 
L 466.976 55.789949 
L 468.403204 55.790172 
L 469.830408 52.945428 
L 471.257613 53.808068 
L 472.684817 55.945955 
L 474.112022 56.71767 
L 475.539226 56.531306 
L 476.96643 57.310872 
L 478.393635 58.86166 
L 479.820839 56.861119 
L 482.675248 57.058074 
L 484.102452 56.357031 
L 485.529657 57.661806 
L 486.956861 57.538852 
L 488.384065 56.142966 
L 489.81127 56.710885 
L 491.238474 56.204771 
L 492.665678 56.403756 
L 494.092883 55.141127 
L 495.520087 54.312081 
L 496.947292 54.258399 
L 498.374496 54.793761 
L 499.8017 52.716323 
L 501.228905 54.190754 
L 502.656109 53.393581 
L 504.083313 53.55034 
L 505.510518 54.221308 
L 506.937722 52.514207 
L 509.792131 57.004065 
L 511.219335 58.435641 
L 512.64654 58.237223 
L 514.073744 58.727298 
L 515.500948 58.213789 
L 516.928153 57.819938 
L 518.355357 58.325819 
L 519.782562 59.432779 
L 521.209766 60.001641 
L 522.63697 57.997758 
L 524.064175 59.293695 
L 526.918583 58.002433 
L 528.345788 59.462457 
L 529.772992 61.212207 
L 531.200197 59.252965 
L 532.627401 58.435421 
L 534.054605 57.86203 
L 535.48181 57.481961 
L 536.909014 56.194421 
L 538.336218 55.87674 
L 539.763423 55.95323 
L 541.190627 57.365412 
L 542.617832 58.579434 
L 544.045036 59.94558 
L 545.47224 58.797258 
L 546.899445 59.932296 
L 548.326649 62.097314 
L 549.753853 59.230685 
L 551.181058 59.279572 
L 552.608262 58.354887 
L 554.035467 57.028879 
L 555.462671 58.581544 
L 556.889875 57.786876 
L 558.31708 57.428819 
L 559.744284 54.296149 
L 561.171488 57.942823 
L 562.598693 56.036473 
L 564.025897 57.911229 
L 565.453102 59.017455 
L 566.880306 59.059619 
L 568.30751 56.925712 
L 569.734715 58.169716 
L 571.161919 58.127808 
L 572.589123 59.208871 
L 574.016328 59.126917 
L 575.443532 59.890646 
L 576.870737 59.860978 
L 579.725145 58.657304 
L 581.15235 60.470833 
L 582.579554 59.956725 
L 584.006758 59.648679 
L 585.433963 60.134804 
L 586.861167 59.233715 
L 588.288371 59.361466 
L 589.715576 59.224872 
L 591.14278 57.636829 
L 592.569985 58.390023 
L 593.997189 58.14754 
L 595.424393 58.470825 
L 596.851598 57.947476 
L 598.278802 56.477906 
L 599.706006 56.033521 
L 601.133211 54.919253 
L 602.560415 54.402545 
L 603.98762 56.337907 
L 605.414824 55.221611 
L 606.842028 53.50746 
L 608.269233 55.817096 
L 609.696437 54.989305 
L 611.123641 52.848432 
L 612.550846 53.644146 
L 613.97805 53.330405 
L 615.405255 55.263236 
L 616.832459 55.131091 
L 618.259663 55.494453 
L 619.686868 56.06653 
L 621.114072 55.378599 
L 622.541276 54.195162 
L 623.968481 55.180873 
L 625.395685 56.014336 
L 626.82289 56.020784 
L 631.104503 58.418714 
L 632.531707 59.700842 
L 633.958911 59.352319 
L 635.386116 58.578807 
L 636.81332 59.356311 
L 638.240525 59.55047 
L 639.667729 58.373182 
L 641.094933 57.777991 
L 642.522138 56.226727 
L 643.949342 56.626323 
L 645.376546 57.381384 
L 646.803751 56.630298 
L 648.230955 54.801109 
L 649.65816 54.871678 
L 651.085364 58.424714 
L 652.512568 60.458445 
L 653.939773 58.654269 
L 653.939773 58.654269 
" clip-path="url(#pdad10b84cc)" style="fill: none; stroke: #2ca02c; stroke-width: 1.2; stroke-linecap: square"/>
   </g>
   <g id="line2d_34">
    <path d="M 84.485227 319.681007 
L 85.912432 315.71765 
L 87.339636 314.771051 
L 88.76684 319.295617 
L 90.194045 321.168413 
L 91.621249 314.867289 
L 93.048454 312.711327 
L 94.475658 320.459978 
L 95.902862 319.809908 
L 97.330067 322.394285 
L 98.757271 317.518042 
L 100.184475 319.524668 
L 101.61168 320.833954 
L 103.038884 309.564417 
L 104.466089 306.390075 
L 105.893293 315.673401 
L 107.320497 334.565569 
L 108.747702 332.014042 
L 110.174906 332.690038 
L 111.60211 335.529055 
L 113.029315 330.993584 
L 114.456519 327.644271 
L 115.883724 323.725681 
L 117.310928 325.137126 
L 118.738132 314.893425 
L 120.165337 325.407225 
L 121.592541 324.26815 
L 123.019745 320.35278 
L 124.44695 322.979672 
L 125.874154 328.429741 
L 127.301359 324.576649 
L 128.728563 322.249892 
L 130.155767 319.408568 
L 131.582972 317.656347 
L 134.43738 269.947903 
L 140.146198 196.373089 
L 141.573402 183.785962 
L 144.427811 156.23959 
L 145.855015 145.784352 
L 148.709424 128.603195 
L 150.136629 121.09826 
L 151.563833 116.719996 
L 152.991037 111.583101 
L 155.845446 100.297089 
L 157.27265 96.666467 
L 158.699855 91.484368 
L 160.127059 88.747114 
L 161.554263 84.288411 
L 162.981468 80.65105 
L 165.835877 77.556626 
L 167.263081 77.004301 
L 170.11749 71.315037 
L 171.544694 72.121597 
L 172.971898 70.700244 
L 174.399103 70.08896 
L 175.826307 68.616418 
L 177.253512 68.467547 
L 180.10792 64.712457 
L 181.535125 65.155915 
L 182.962329 66.654909 
L 184.389533 66.180337 
L 185.816738 65.153445 
L 187.243942 66.593924 
L 188.671147 66.029372 
L 190.098351 63.832359 
L 191.525555 64.396103 
L 192.95276 62.069496 
L 195.807168 58.149878 
L 197.234373 58.191524 
L 198.661577 57.879458 
L 200.088782 59.168606 
L 201.515986 59.024327 
L 202.94319 59.609064 
L 204.370395 60.429998 
L 205.797599 59.984995 
L 207.224803 62.165389 
L 208.652008 62.538331 
L 210.079212 61.968029 
L 211.506417 60.978941 
L 214.360825 57.851271 
L 215.78803 58.787776 
L 217.215234 61.37862 
L 218.642438 60.393508 
L 220.069643 59.633419 
L 221.496847 58.674411 
L 222.924052 59.142219 
L 224.351256 58.292764 
L 225.77846 59.036784 
L 227.205665 58.5814 
L 228.632869 58.894163 
L 230.060073 56.530756 
L 231.487278 57.396854 
L 232.914482 57.378973 
L 234.341687 58.650216 
L 235.768891 60.139436 
L 237.196095 61.291824 
L 238.6233 61.9127 
L 240.050504 61.923398 
L 241.477708 60.669785 
L 242.904913 61.467053 
L 244.332117 58.717169 
L 245.759322 58.240143 
L 247.186526 57.236001 
L 250.040935 58.914542 
L 251.468139 57.248281 
L 252.895343 56.327103 
L 254.322548 57.385662 
L 255.749752 56.923582 
L 257.176957 56.856395 
L 258.604161 58.130136 
L 260.031365 57.545523 
L 261.45857 58.744327 
L 262.885774 58.781826 
L 264.312978 62.566162 
L 265.740183 65.328667 
L 267.167387 68.862761 
L 268.594592 69.264516 
L 270.021796 66.604208 
L 271.449 64.83294 
L 272.876205 63.971316 
L 274.303409 65.963928 
L 275.730613 67.049644 
L 277.157818 68.970368 
L 278.585022 68.875287 
L 280.012227 68.31605 
L 281.439431 68.760914 
L 282.866635 65.928314 
L 284.29384 63.902622 
L 285.721044 62.553094 
L 287.148248 62.191349 
L 288.575453 60.132501 
L 290.002657 59.632286 
L 291.429862 59.686756 
L 292.857066 59.509601 
L 294.28427 59.06785 
L 295.711475 58.760338 
L 297.138679 58.212042 
L 298.565883 58.832973 
L 301.420292 58.807593 
L 302.847497 60.964122 
L 304.274701 59.527955 
L 305.701905 58.34217 
L 307.12911 56.59187 
L 308.556314 56.043713 
L 311.410723 57.098377 
L 312.837927 57.829984 
L 314.265132 55.970428 
L 315.692336 56.435229 
L 317.11954 59.130278 
L 319.973949 58.252314 
L 322.828358 56.84238 
L 324.255562 56.086851 
L 325.682767 57.380023 
L 327.109971 56.981764 
L 328.537175 55.458405 
L 329.96438 54.81285 
L 332.818788 59.735039 
L 334.245993 58.365383 
L 335.673197 58.267742 
L 337.100402 59.099418 
L 338.527606 59.121892 
L 341.382015 56.904365 
L 342.809219 57.523431 
L 344.236423 58.352531 
L 345.663628 59.622931 
L 347.090832 57.65372 
L 348.518037 59.91646 
L 349.945241 58.752081 
L 351.372445 60.456424 
L 352.79965 60.368185 
L 354.226854 60.068662 
L 355.654058 60.30301 
L 358.508467 56.423213 
L 359.935672 56.486422 
L 361.362876 56.890527 
L 362.79008 58.762754 
L 364.217285 60.034156 
L 365.644489 60.150115 
L 367.071693 61.210054 
L 368.498898 63.341474 
L 369.926102 61.50644 
L 371.353307 60.82401 
L 372.780511 59.756821 
L 374.207715 61.105335 
L 375.63492 59.63349 
L 377.062124 59.49709 
L 378.489328 58.032592 
L 379.916533 58.591152 
L 381.343737 58.620086 
L 382.770942 58.118569 
L 384.198146 58.150052 
L 385.62535 56.63995 
L 387.052555 57.101865 
L 388.479759 56.140817 
L 389.906963 56.079943 
L 391.334168 55.620719 
L 392.761372 56.555218 
L 394.188577 57.694405 
L 395.615781 56.725416 
L 397.042985 58.950848 
L 398.47019 57.250098 
L 401.324598 55.87271 
L 402.751803 54.56453 
L 405.606212 55.375607 
L 407.033416 54.292257 
L 408.46062 55.05535 
L 409.887825 57.576776 
L 411.315029 57.019816 
L 412.742233 54.928547 
L 414.169438 55.565332 
L 415.596642 56.072469 
L 417.023847 58.400039 
L 418.451051 59.392746 
L 419.878255 61.190375 
L 421.30546 57.972315 
L 424.159868 53.682288 
L 425.587073 54.158268 
L 427.014277 53.491585 
L 428.441482 54.149518 
L 429.868686 53.991614 
L 431.29589 55.861996 
L 434.150299 56.735505 
L 435.577503 56.836362 
L 437.004708 57.743279 
L 438.431912 57.392274 
L 439.859117 56.659622 
L 441.286321 57.861088 
L 442.713525 58.011879 
L 444.14073 57.484069 
L 445.567934 59.181275 
L 446.995138 58.051511 
L 448.422343 57.818402 
L 449.849547 56.983234 
L 451.276752 55.103789 
L 452.703956 59.187309 
L 454.13116 59.26114 
L 455.558365 59.784782 
L 456.985569 60.762216 
L 458.412773 60.178465 
L 459.839978 61.410445 
L 462.694387 57.26324 
L 464.121591 55.650531 
L 465.548795 56.987916 
L 466.976 55.227581 
L 468.403204 55.843449 
L 469.830408 57.970421 
L 471.257613 59.238995 
L 472.684817 59.277117 
L 474.112022 59.562222 
L 475.539226 61.448948 
L 478.393635 61.385199 
L 479.820839 58.790465 
L 481.248043 58.014512 
L 482.675248 59.397942 
L 484.102452 59.858416 
L 485.529657 59.130283 
L 486.956861 60.467818 
L 488.384065 61.591549 
L 489.81127 64.183366 
L 491.238474 62.871418 
L 492.665678 61.722597 
L 494.092883 62.589246 
L 495.520087 61.618412 
L 496.947292 60.374601 
L 498.374496 59.787487 
L 499.8017 59.539606 
L 501.228905 59.474818 
L 502.656109 62.149154 
L 504.083313 60.803132 
L 505.510518 58.048733 
L 506.937722 57.783204 
L 508.364927 56.639879 
L 509.792131 56.320106 
L 511.219335 56.191187 
L 512.64654 57.850423 
L 514.073744 57.247149 
L 515.500948 58.201424 
L 516.928153 58.106073 
L 518.355357 58.779874 
L 519.782562 57.625236 
L 521.209766 58.423419 
L 522.63697 60.013763 
L 524.064175 62.352494 
L 525.491379 61.790074 
L 526.918583 61.391828 
L 528.345788 59.885234 
L 529.772992 59.081352 
L 531.200197 60.027603 
L 532.627401 61.690988 
L 534.054605 61.031097 
L 535.48181 62.885151 
L 536.909014 61.080267 
L 538.336218 60.415681 
L 541.190627 58.581634 
L 542.617832 60.616643 
L 544.045036 60.942885 
L 545.47224 61.08038 
L 546.899445 60.178663 
L 548.326649 60.213826 
L 549.753853 59.488741 
L 551.181058 57.736677 
L 552.608262 57.282777 
L 555.462671 56.773856 
L 556.889875 57.230774 
L 558.31708 59.000073 
L 559.744284 59.720928 
L 561.171488 58.056364 
L 562.598693 58.688201 
L 564.025897 56.841491 
L 565.453102 59.103867 
L 566.880306 59.642796 
L 568.30751 58.155998 
L 569.734715 59.915111 
L 571.161919 58.803093 
L 572.589123 58.907455 
L 574.016328 59.851811 
L 575.443532 59.459868 
L 576.870737 58.141752 
L 578.297941 59.232816 
L 579.725145 58.588282 
L 581.15235 58.808583 
L 582.579554 57.749582 
L 584.006758 58.383676 
L 585.433963 57.809426 
L 586.861167 56.767287 
L 588.288371 54.953221 
L 589.715576 54.786511 
L 591.14278 54.411614 
L 592.569985 52.542721 
L 593.997189 54.300414 
L 595.424393 54.138787 
L 596.851598 54.341466 
L 598.278802 53.967039 
L 599.706006 55.376789 
L 601.133211 56.415972 
L 602.560415 58.517825 
L 603.98762 58.497566 
L 605.414824 57.797791 
L 606.842028 56.845748 
L 608.269233 54.404411 
L 609.696437 53.783124 
L 611.123641 53.754643 
L 612.550846 55.213138 
L 613.97805 57.145466 
L 615.405255 56.134012 
L 616.832459 57.028169 
L 618.259663 58.775239 
L 619.686868 59.44144 
L 622.541276 56.827037 
L 623.968481 57.987854 
L 625.395685 57.985424 
L 626.82289 57.510239 
L 628.250094 60.170071 
L 629.677298 60.238971 
L 631.104503 58.041693 
L 632.531707 59.756423 
L 633.958911 56.879335 
L 635.386116 56.253369 
L 636.81332 54.846588 
L 638.240525 54.104152 
L 639.667729 56.567637 
L 641.094933 55.210777 
L 642.522138 55.448057 
L 643.949342 55.082383 
L 645.376546 55.434834 
L 646.803751 54.963564 
L 648.230955 55.341981 
L 649.65816 55.460739 
L 651.085364 57.763044 
L 652.512568 59.515734 
L 653.939773 60.126902 
L 653.939773 60.126902 
" clip-path="url(#pdad10b84cc)" style="fill: none; stroke: #d62728; stroke-width: 1.2; stroke-linecap: square"/>
   </g>
   <g id="line2d_35">
    <path d="M 84.485227 293.432326 
L 85.912432 284.761715 
L 87.339636 275.287439 
L 90.194045 249.669305 
L 91.621249 231.476153 
L 95.902862 193.835655 
L 97.330067 179.446905 
L 100.184475 158.700835 
L 101.61168 150.76422 
L 103.038884 142.074807 
L 107.320497 122.463561 
L 108.747702 114.509028 
L 110.174906 112.316409 
L 111.60211 107.966008 
L 113.029315 102.058994 
L 114.456519 96.743511 
L 115.883724 92.621716 
L 117.310928 90.91897 
L 118.738132 85.584002 
L 120.165337 82.910493 
L 121.592541 82.786603 
L 123.019745 80.122132 
L 124.44695 79.238662 
L 125.874154 78.901284 
L 127.301359 77.550156 
L 128.728563 73.305393 
L 131.582972 70.969385 
L 133.010176 69.048696 
L 134.43738 68.674711 
L 135.864585 69.932739 
L 137.291789 70.516921 
L 138.718994 70.263347 
L 140.146198 67.041925 
L 141.573402 65.998335 
L 143.000607 65.466652 
L 144.427811 66.647331 
L 145.855015 63.866668 
L 147.28222 62.182598 
L 148.709424 63.197113 
L 150.136629 63.942644 
L 151.563833 64.321824 
L 152.991037 63.355136 
L 154.418242 63.416023 
L 155.845446 62.495563 
L 157.27265 60.524516 
L 158.699855 61.130503 
L 160.127059 61.572438 
L 161.554263 61.011164 
L 162.981468 60.645703 
L 164.408672 58.606891 
L 165.835877 57.656772 
L 167.263081 57.967748 
L 168.690285 58.924333 
L 170.11749 59.181519 
L 171.544694 59.688358 
L 172.971898 57.56548 
L 174.399103 57.902331 
L 175.826307 56.585565 
L 177.253512 56.130093 
L 178.680716 56.689102 
L 180.10792 58.016239 
L 181.535125 58.693874 
L 182.962329 60.050729 
L 184.389533 58.196003 
L 185.816738 59.247853 
L 187.243942 60.93838 
L 188.671147 59.866744 
L 190.098351 61.915477 
L 191.525555 62.446456 
L 192.95276 64.363486 
L 194.379964 64.037073 
L 195.807168 65.166318 
L 197.234373 63.781654 
L 198.661577 62.712386 
L 200.088782 60.915475 
L 201.515986 61.378102 
L 202.94319 62.541126 
L 204.370395 62.224035 
L 205.797599 60.202196 
L 207.224803 58.473101 
L 208.652008 55.774492 
L 210.079212 55.851687 
L 211.506417 54.699283 
L 212.933621 55.083112 
L 214.360825 54.540599 
L 215.78803 52.672251 
L 217.215234 56.078012 
L 218.642438 55.788226 
L 220.069643 55.373739 
L 221.496847 55.237971 
L 222.924052 54.148803 
L 224.351256 54.256355 
L 225.77846 52.989067 
L 228.632869 52.44874 
L 230.060073 51.589595 
L 232.914482 52.549454 
L 234.341687 53.742146 
L 235.768891 53.589106 
L 237.196095 52.452474 
L 238.6233 54.85235 
L 240.050504 57.639494 
L 241.477708 58.043587 
L 242.904913 59.969005 
L 244.332117 62.2954 
L 245.759322 58.831008 
L 247.186526 57.195389 
L 248.61373 56.411692 
L 250.040935 54.672502 
L 251.468139 55.036179 
L 252.895343 55.858347 
L 254.322548 55.988943 
L 255.749752 55.167814 
L 257.176957 54.6391 
L 258.604161 55.566621 
L 260.031365 58.027365 
L 261.45857 61.145304 
L 262.885774 59.195802 
L 264.312978 57.632549 
L 265.740183 57.907287 
L 267.167387 58.749593 
L 271.449 56.456128 
L 272.876205 57.134756 
L 274.303409 59.579315 
L 275.730613 56.464867 
L 277.157818 56.909892 
L 278.585022 57.227949 
L 280.012227 57.125032 
L 281.439431 59.245994 
L 282.866635 58.669582 
L 284.29384 58.650162 
L 285.721044 59.956356 
L 287.148248 58.174217 
L 288.575453 57.633601 
L 290.002657 57.704005 
L 291.429862 57.130192 
L 292.857066 57.970422 
L 294.28427 57.457145 
L 295.711475 57.499168 
L 297.138679 58.280005 
L 298.565883 60.851408 
L 299.993088 62.252828 
L 301.420292 62.748067 
L 302.847497 60.872902 
L 304.274701 59.570949 
L 305.701905 59.115988 
L 307.12911 56.853943 
L 308.556314 55.23255 
L 309.983518 55.342209 
L 311.410723 56.495378 
L 312.837927 55.796083 
L 314.265132 59.21271 
L 317.11954 56.473577 
L 318.546745 57.468406 
L 319.973949 59.142396 
L 321.401153 59.005142 
L 322.828358 60.655495 
L 324.255562 60.32695 
L 325.682767 58.700382 
L 327.109971 59.523763 
L 328.537175 57.246583 
L 329.96438 59.21528 
L 331.391584 58.489215 
L 332.818788 56.742193 
L 334.245993 55.828503 
L 335.673197 56.785038 
L 337.100402 55.57766 
L 338.527606 52.648864 
L 339.95481 52.908682 
L 341.382015 54.285135 
L 342.809219 55.147703 
L 345.663628 54.182453 
L 347.090832 56.071092 
L 349.945241 55.772306 
L 351.372445 55.388371 
L 352.79965 56.595106 
L 354.226854 56.235416 
L 355.654058 56.884036 
L 357.081263 55.610048 
L 358.508467 55.610651 
L 359.935672 56.097455 
L 361.362876 56.030668 
L 362.79008 58.404401 
L 364.217285 58.227763 
L 365.644489 61.361422 
L 367.071693 60.257022 
L 368.498898 59.424864 
L 369.926102 58.16299 
L 371.353307 58.537882 
L 372.780511 59.978826 
L 374.207715 59.697152 
L 375.63492 58.031899 
L 378.489328 56.904181 
L 381.343737 58.134502 
L 382.770942 58.072005 
L 384.198146 59.595472 
L 385.62535 58.386369 
L 387.052555 58.607708 
L 388.479759 57.895711 
L 389.906963 56.159072 
L 391.334168 57.504385 
L 392.761372 56.166628 
L 394.188577 55.487285 
L 395.615781 57.635792 
L 397.042985 56.755012 
L 398.47019 57.412066 
L 399.897394 57.197478 
L 401.324598 58.332766 
L 404.179007 59.940498 
L 405.606212 60.111448 
L 408.46062 58.410358 
L 409.887825 58.370146 
L 414.169438 60.028747 
L 415.596642 59.694891 
L 417.023847 60.313283 
L 418.451051 57.536932 
L 419.878255 58.388919 
L 421.30546 58.078053 
L 422.732664 58.816498 
L 424.159868 57.23805 
L 425.587073 58.603001 
L 427.014277 59.689901 
L 428.441482 57.642736 
L 429.868686 59.220269 
L 431.29589 59.486118 
L 432.723095 58.078523 
L 434.150299 57.877373 
L 435.577503 57.910917 
L 437.004708 58.118371 
L 438.431912 61.058376 
L 439.859117 60.011086 
L 441.286321 59.344646 
L 442.713525 60.277126 
L 444.14073 60.62443 
L 445.567934 60.72525 
L 446.995138 57.919488 
L 448.422343 56.604262 
L 449.849547 55.66109 
L 451.276752 56.569773 
L 454.13116 55.742198 
L 455.558365 55.456156 
L 456.985569 55.642053 
L 458.412773 57.041675 
L 459.839978 57.265077 
L 461.267182 56.151015 
L 462.694387 57.067104 
L 464.121591 57.231553 
L 465.548795 56.991977 
L 466.976 55.097995 
L 468.403204 57.914943 
L 469.830408 59.094392 
L 471.257613 57.675936 
L 472.684817 56.93458 
L 474.112022 57.393056 
L 475.539226 56.887227 
L 476.96643 56.87596 
L 478.393635 58.034 
L 479.820839 57.987013 
L 481.248043 54.350646 
L 482.675248 54.838802 
L 484.102452 53.162501 
L 485.529657 52.382688 
L 486.956861 55.266077 
L 488.384065 57.285175 
L 489.81127 57.329957 
L 491.238474 58.108719 
L 492.665678 57.584316 
L 494.092883 55.999606 
L 495.520087 57.043435 
L 496.947292 55.861252 
L 498.374496 56.384636 
L 499.8017 55.921512 
L 501.228905 59.810116 
L 502.656109 61.670023 
L 504.083313 61.357631 
L 505.510518 59.360525 
L 506.937722 58.881386 
L 508.364927 59.16901 
L 509.792131 56.620585 
L 511.219335 56.555912 
L 512.64654 58.633449 
L 514.073744 59.00314 
L 515.500948 61.49157 
L 516.928153 62.015751 
L 518.355357 60.509506 
L 519.782562 62.981003 
L 521.209766 62.320406 
L 522.63697 63.021742 
L 525.491379 59.717501 
L 526.918583 61.188186 
L 528.345788 60.720408 
L 529.772992 59.549303 
L 531.200197 61.407165 
L 532.627401 60.811883 
L 534.054605 62.273871 
L 535.48181 60.247984 
L 536.909014 60.430317 
L 538.336218 62.49488 
L 541.190627 60.208561 
L 542.617832 62.062179 
L 544.045036 63.416389 
L 545.47224 64.396776 
L 546.899445 64.340754 
L 548.326649 63.361056 
L 549.753853 64.20728 
L 551.181058 61.95894 
L 552.608262 60.475322 
L 554.035467 60.323651 
L 555.462671 61.390819 
L 556.889875 60.853469 
L 559.744284 56.936013 
L 561.171488 58.588239 
L 564.025897 60.475111 
L 565.453102 59.920888 
L 566.880306 60.038598 
L 569.734715 61.8426 
L 571.161919 60.662827 
L 572.589123 61.293475 
L 574.016328 60.693685 
L 575.443532 59.598338 
L 576.870737 60.4996 
L 578.297941 59.763639 
L 579.725145 60.513466 
L 581.15235 62.598145 
L 582.579554 63.806243 
L 584.006758 63.138402 
L 586.861167 65.129788 
L 588.288371 63.115328 
L 589.715576 62.744313 
L 591.14278 63.828864 
L 592.569985 63.692281 
L 593.997189 63.816644 
L 595.424393 61.612362 
L 596.851598 60.913631 
L 598.278802 62.212089 
L 599.706006 62.429495 
L 601.133211 61.737699 
L 602.560415 62.956498 
L 603.98762 65.965682 
L 605.414824 65.649825 
L 606.842028 64.641215 
L 608.269233 65.901518 
L 609.696437 63.960039 
L 611.123641 64.276351 
L 612.550846 62.455689 
L 613.97805 63.526686 
L 615.405255 65.231652 
L 616.832459 62.880128 
L 618.259663 62.874728 
L 619.686868 61.267849 
L 621.114072 61.192666 
L 622.541276 60.591505 
L 623.968481 61.930281 
L 625.395685 62.823751 
L 626.82289 60.735203 
L 628.250094 59.507539 
L 629.677298 58.733661 
L 631.104503 61.490552 
L 632.531707 60.950771 
L 633.958911 58.510497 
L 635.386116 61.286532 
L 636.81332 61.636252 
L 638.240525 62.755144 
L 639.667729 61.189887 
L 641.094933 59.354865 
L 642.522138 59.230328 
L 643.949342 57.950156 
L 645.376546 57.217764 
L 646.803751 55.641137 
L 648.230955 54.812898 
L 649.65816 56.843018 
L 651.085364 56.043185 
L 652.512568 53.36445 
L 653.939773 54.156648 
L 653.939773 54.156648 
" clip-path="url(#pdad10b84cc)" style="fill: none; stroke: #9b8ac9; stroke-width: 1.2; stroke-linecap: square"/>
   </g>
   <g id="patch_3">
    <path d="M 56.0125 349.8636 
L 56.0125 34.5036 
" style="fill: none; stroke: #000000; stroke-width: 0.8; stroke-linejoin: miter; stroke-linecap: square"/>
   </g>
   <g id="patch_4">
    <path d="M 682.4125 349.8636 
L 682.4125 34.5036 
" style="fill: none; stroke: #000000; stroke-width: 0.8; stroke-linejoin: miter; stroke-linecap: square"/>
   </g>
   <g id="patch_5">
    <path d="M 56.0125 349.8636 
L 682.4125 349.8636 
" style="fill: none; stroke: #000000; stroke-width: 0.8; stroke-linejoin: miter; stroke-linecap: square"/>
   </g>
   <g id="patch_6">
    <path d="M 56.0125 34.5036 
L 682.4125 34.5036 
" style="fill: none; stroke: #000000; stroke-width: 0.8; stroke-linejoin: miter; stroke-linecap: square"/>
   </g>
   <g id="legend_1">
    <g id="patch_7">
     <path d="M 56.0125 31.35 
L 682.4125 31.35 
L 682.4125 7.2 
L 56.0125 7.2 
z
" style="fill: #ffffff; stroke: #808080; stroke-width: 0.8; stroke-linejoin: miter"/>
    </g>
    <g id="line2d_36">
     <path d="M 62.3125 18.4 
L 76.3125 18.4 
L 90.3125 18.4 
" style="fill: none; stroke: #1f77b4; stroke-width: 1.2; stroke-linecap: square"/>
    </g>
    <g id="text_18">
     <!-- DDPG -->
     <g transform="translate(98.7125 23.3) scale(0.14 -0.14)">
      <defs>
       <path id="SimHei-44" d="M 2925 2250 
Q 2925 1100 2437 612 
Q 1950 125 1125 125 
L 275 125 
L 275 4400 
L 1125 4400 
Q 2050 4400 2487 3900 
Q 2925 3400 2925 2250 
z
M 2325 2250 
Q 2325 3175 2025 3550 
Q 1725 3925 1125 3925 
L 850 3925 
L 850 600 
L 1125 600 
Q 1725 600 2025 962 
Q 2325 1325 2325 2250 
z
" transform="scale(0.015625)"/>
       <path id="SimHei-50" d="M 2950 3100 
Q 2950 2500 2600 2150 
Q 2250 1800 1625 1800 
L 900 1800 
L 900 125 
L 325 125 
L 325 4400 
L 1625 4400 
Q 2250 4400 2600 4050 
Q 2950 3700 2950 3100 
z
M 2375 3100 
Q 2375 3575 2150 3750 
Q 1925 3925 1475 3925 
L 900 3925 
L 900 2275 
L 1475 2275 
Q 1925 2275 2150 2450 
Q 2375 2625 2375 3100 
z
" transform="scale(0.015625)"/>
       <path id="SimHei-47" d="M 2850 75 
L 2425 75 
L 2350 425 
Q 2250 275 2037 175 
Q 1825 75 1575 75 
Q 1050 75 637 562 
Q 225 1050 225 2125 
Q 225 3300 600 3875 
Q 975 4450 1625 4450 
Q 2200 4450 2525 4025 
Q 2850 3600 2850 2925 
L 2300 2925 
Q 2300 3450 2125 3712 
Q 1950 3975 1625 3975 
Q 1225 3975 1025 3562 
Q 825 3150 825 2175 
Q 825 1250 1075 900 
Q 1325 550 1650 550 
Q 1975 550 2162 787 
Q 2350 1025 2350 1525 
L 2350 1800 
L 1575 1800 
L 1575 2275 
L 2850 2275 
L 2850 75 
z
" transform="scale(0.015625)"/>
      </defs>
      <use xlink:href="#SimHei-44"/>
      <use xlink:href="#SimHei-44" transform="translate(50 0)"/>
      <use xlink:href="#SimHei-50" transform="translate(100 0)"/>
      <use xlink:href="#SimHei-47" transform="translate(150 0)"/>
     </g>
    </g>
    <g id="line2d_37">
     <path d="M 192.6625 18.4 
L 206.6625 18.4 
L 220.6625 18.4 
" style="fill: none; stroke: #ff7f0e; stroke-width: 1.2; stroke-linecap: square"/>
    </g>
    <g id="text_19">
     <!-- PPO -->
     <g transform="translate(229.0625 23.3) scale(0.14 -0.14)">
      <defs>
       <path id="SimHei-4f" d="M 2950 2275 
Q 2950 1100 2587 587 
Q 2225 75 1575 75 
Q 925 75 550 587 
Q 175 1100 175 2275 
Q 175 3450 550 3950 
Q 925 4450 1575 4450 
Q 2225 4450 2587 3950 
Q 2950 3450 2950 2275 
z
M 2350 2275 
Q 2350 3325 2125 3650 
Q 1900 3975 1575 3975 
Q 1250 3975 1012 3650 
Q 775 3325 775 2275 
Q 775 1225 1012 887 
Q 1250 550 1575 550 
Q 1900 550 2125 887 
Q 2350 1225 2350 2275 
z
" transform="scale(0.015625)"/>
      </defs>
      <use xlink:href="#SimHei-50"/>
      <use xlink:href="#SimHei-50" transform="translate(50 0)"/>
      <use xlink:href="#SimHei-4f" transform="translate(100 0)"/>
     </g>
    </g>
    <g id="line2d_38">
     <path d="M 316.0125 18.4 
L 330.0125 18.4 
L 344.0125 18.4 
" style="fill: none; stroke: #2ca02c; stroke-width: 1.2; stroke-linecap: square"/>
    </g>
    <g id="text_20">
     <!-- TD3 -->
     <g transform="translate(352.4125 23.3) scale(0.14 -0.14)">
      <use xlink:href="#SimHei-54"/>
      <use xlink:href="#SimHei-44" transform="translate(50 0)"/>
      <use xlink:href="#SimHei-33" transform="translate(100 0)"/>
     </g>
    </g>
    <g id="line2d_39">
     <path d="M 439.3625 18.4 
L 453.3625 18.4 
L 467.3625 18.4 
" style="fill: none; stroke: #d62728; stroke-width: 1.2; stroke-linecap: square"/>
    </g>
    <g id="text_21">
     <!-- GCN-DDQN -->
     <g transform="translate(475.7625 23.3) scale(0.14 -0.14)">
      <defs>
       <path id="SimHei-43" d="M 2975 1825 
Q 2950 875 2575 475 
Q 2200 75 1675 75 
Q 1075 75 650 562 
Q 225 1050 225 2125 
Q 225 3300 637 3875 
Q 1050 4450 1700 4450 
Q 2250 4450 2612 4037 
Q 2975 3625 2950 2875 
L 2400 2875 
Q 2400 3425 2225 3700 
Q 2050 3975 1700 3975 
Q 1300 3975 1062 3562 
Q 825 3150 825 2175 
Q 825 1275 1062 912 
Q 1300 550 1675 550 
Q 1950 550 2175 812 
Q 2400 1075 2400 1825 
L 2975 1825 
z
" transform="scale(0.015625)"/>
       <path id="SimHei-4e" d="M 2850 125 
L 2225 125 
L 850 3225 
L 825 3225 
L 825 125 
L 250 125 
L 250 4400 
L 875 4400 
L 2250 1300 
L 2275 1300 
L 2275 4400 
L 2850 4400 
L 2850 125 
z
" transform="scale(0.015625)"/>
       <path id="SimHei-2d" d="M 2975 2125 
L 125 2125 
L 125 2525 
L 2975 2525 
L 2975 2125 
z
" transform="scale(0.015625)"/>
       <path id="SimHei-51" d="M 2950 2275 
Q 2950 1675 2862 1262 
Q 2775 850 2575 600 
L 2775 225 
L 2375 -200 
L 2150 225 
Q 2050 150 1900 112 
Q 1750 75 1575 75 
Q 925 75 550 587 
Q 175 1100 175 2275 
Q 175 3450 550 3950 
Q 925 4450 1575 4450 
Q 2225 4450 2587 3950 
Q 2950 3450 2950 2275 
z
M 2350 2275 
Q 2350 3325 2125 3650 
Q 1900 3975 1575 3975 
Q 1250 3975 1012 3650 
Q 775 3325 775 2275 
Q 775 1225 1012 887 
Q 1250 550 1575 550 
Q 1700 550 1800 587 
Q 1900 625 1950 675 
L 1550 1450 
L 1900 1875 
L 2250 1200 
Q 2300 1450 2325 1650 
Q 2350 1850 2350 2275 
z
" transform="scale(0.015625)"/>
      </defs>
      <use xlink:href="#SimHei-47"/>
      <use xlink:href="#SimHei-43" transform="translate(50 0)"/>
      <use xlink:href="#SimHei-4e" transform="translate(100 0)"/>
      <use xlink:href="#SimHei-2d" transform="translate(150 0)"/>
      <use xlink:href="#SimHei-44" transform="translate(200 0)"/>
      <use xlink:href="#SimHei-44" transform="translate(250 0)"/>
      <use xlink:href="#SimHei-51" transform="translate(300 0)"/>
      <use xlink:href="#SimHei-4e" transform="translate(350 0)"/>
     </g>
    </g>
    <g id="line2d_40">
     <path d="M 597.7125 18.4 
L 611.7125 18.4 
L 625.7125 18.4 
" style="fill: none; stroke: #9b8ac9; stroke-width: 1.2; stroke-linecap: square"/>
    </g>
    <g id="text_22">
     <!-- GLDVTO -->
     <g transform="translate(634.1125 23.3) scale(0.14 -0.14)">
      <defs>
       <path id="SimHei-4c" d="M 2900 125 
L 300 125 
L 300 4400 
L 875 4400 
L 875 600 
L 2900 600 
L 2900 125 
z
" transform="scale(0.015625)"/>
       <path id="SimHei-56" d="M 3050 4400 
L 1800 75 
L 1300 75 
L 50 4400 
L 650 4400 
L 1525 1125 
L 1575 1125 
L 2450 4400 
L 3050 4400 
z
" transform="scale(0.015625)"/>
      </defs>
      <use xlink:href="#SimHei-47"/>
      <use xlink:href="#SimHei-4c" transform="translate(50 0)"/>
      <use xlink:href="#SimHei-44" transform="translate(100 0)"/>
      <use xlink:href="#SimHei-56" transform="translate(150 0)"/>
      <use xlink:href="#SimHei-54" transform="translate(200 0)"/>
      <use xlink:href="#SimHei-4f" transform="translate(250 0)"/>
     </g>
    </g>
   </g>
  </g>
 </g>
 <defs>
  <clipPath id="pdad10b84cc">
   <rect x="56.0125" y="34.5036" width="626.4" height="315.36"/>
  </clipPath>
 </defs>
</svg>
