<?xml version="1.0" encoding="utf-8" standalone="no"?>
<!DOCTYPE svg PUBLIC "-//W3C//DTD SVG 1.1//EN"
  "http://www.w3.org/Graphics/SVG/1.1/DTD/svg11.dtd">
<svg xmlns:xlink="http://www.w3.org/1999/xlink" width="671.6125pt" height="391.6261pt" viewBox="0 0 671.6125 391.6261" xmlns="http://www.w3.org/2000/svg" version="1.1">
 <metadata>
  <rdf:RDF xmlns:dc="http://purl.org/dc/elements/1.1/" xmlns:cc="http://creativecommons.org/ns#" xmlns:rdf="http://www.w3.org/1999/02/22-rdf-syntax-ns#">
   <cc:Work>
    <dc:type rdf:resource="http://purl.org/dc/dcmitype/StillImage"/>
    <dc:date>2026-07-10T14:36:08.402332</dc:date>
    <dc:format>image/svg+xml</dc:format>
    <dc:creator>
     <cc:Agent>
      <dc:title>Matplotlib v3.10.7, https://matplotlib.org/</dc:title>
     </cc:Agent>
    </dc:creator>
   </cc:Work>
  </rdf:RDF>
 </metadata>
 <defs>
  <style type="text/css">*{stroke-linejoin: round; stroke-linecap: butt}</style>
 </defs>
 <g id="figure_1">
  <g id="patch_1">
   <path d="M 0 391.6261 
L 671.6125 391.6261 
L 671.6125 0 
L 0 0 
z
" style="fill: #ffffff"/>
  </g>
  <g id="axes_1">
   <g id="patch_2">
    <path d="M 38.0125 349.8636 
L 664.4125 349.8636 
L 664.4125 34.5036 
L 38.0125 34.5036 
z
" style="fill: #ffffff"/>
   </g>
   <g id="matplotlib.axis_1">
    <g id="xtick_1">
     <g id="line2d_1">
      <path d="M 66.485227 349.8636 
L 66.485227 34.5036 
" clip-path="url(#p2b630baed5)" style="fill: none; stroke-dasharray: 2.22,0.96; stroke-dashoffset: 0; stroke: #b0b0b0; stroke-opacity: 0.25; stroke-width: 0.6"/>
     </g>
     <g id="line2d_2">
      <defs>
       <path id="m0821b912b3" d="M 0 0 
L 0 3.5 
" style="stroke: #000000; stroke-width: 0.8"/>
      </defs>
      <g>
       <use xlink:href="#m0821b912b3" x="66.485227" y="349.8636" style="stroke: #000000; stroke-width: 0.8"/>
      </g>
     </g>
     <g id="text_1">
      <!-- 0 -->
      <g transform="translate(63.485227 365.1136) scale(0.12 -0.12)">
       <defs>
        <path id="SimHei-30" d="M 225 2537 
Q 250 3200 412 3587 
Q 575 3975 875 4225 
Q 1175 4475 1612 4475 
Q 2050 4475 2375 4112 
Q 2700 3750 2800 3200 
Q 2900 2650 2862 1937 
Q 2825 1225 2612 775 
Q 2400 325 1975 150 
Q 1550 -25 1125 187 
Q 700 400 525 750 
Q 350 1100 275 1487 
Q 200 1875 225 2537 
z
M 750 2687 
Q 675 2000 800 1462 
Q 925 925 1212 700 
Q 1500 475 1800 612 
Q 2100 750 2237 1162 
Q 2375 1575 2375 2062 
Q 2375 2550 2337 2950 
Q 2300 3350 2112 3675 
Q 1925 4000 1612 4012 
Q 1300 4025 1062 3700 
Q 825 3375 750 2687 
z
" transform="scale(0.015625)"/>
       </defs>
       <use xlink:href="#SimHei-30"/>
      </g>
     </g>
    </g>
    <g id="xtick_2">
     <g id="line2d_3">
      <path d="M 137.845446 349.8636 
L 137.845446 34.5036 
" clip-path="url(#p2b630baed5)" style="fill: none; stroke-dasharray: 2.22,0.96; stroke-dashoffset: 0; stroke: #b0b0b0; stroke-opacity: 0.25; stroke-width: 0.6"/>
     </g>
     <g id="line2d_4">
      <g>
       <use xlink:href="#m0821b912b3" x="137.845446" y="349.8636" style="stroke: #000000; stroke-width: 0.8"/>
      </g>
     </g>
     <g id="text_2">
      <!-- 50 -->
      <g transform="translate(131.845446 365.1136) scale(0.12 -0.12)">
       <defs>
        <path id="SimHei-35" d="M 550 1325 
Q 725 650 1150 575 
Q 1575 500 1837 662 
Q 2100 825 2212 1087 
Q 2325 1350 2312 1675 
Q 2300 2000 2137 2225 
Q 1975 2450 1725 2525 
Q 1475 2600 1162 2525 
Q 850 2450 650 2175 
L 225 2225 
Q 275 2375 700 4375 
L 2675 4375 
L 2675 3925 
L 1075 3925 
Q 950 3250 825 2850 
Q 1200 3025 1525 3012 
Q 1850 3000 2150 2862 
Q 2450 2725 2587 2487 
Q 2725 2250 2787 2012 
Q 2850 1775 2837 1500 
Q 2825 1225 2725 937 
Q 2625 650 2425 462 
Q 2225 275 1937 162 
Q 1650 50 1275 75 
Q 900 100 562 350 
Q 225 600 100 1200 
L 550 1325 
z
" transform="scale(0.015625)"/>
       </defs>
       <use xlink:href="#SimHei-35"/>
       <use xlink:href="#SimHei-30" transform="translate(50 0)"/>
      </g>
     </g>
    </g>
    <g id="xtick_3">
     <g id="line2d_5">
      <path d="M 209.205665 349.8636 
L 209.205665 34.5036 
" clip-path="url(#p2b630baed5)" style="fill: none; stroke-dasharray: 2.22,0.96; stroke-dashoffset: 0; stroke: #b0b0b0; stroke-opacity: 0.25; stroke-width: 0.6"/>
     </g>
     <g id="line2d_6">
      <g>
       <use xlink:href="#m0821b912b3" x="209.205665" y="349.8636" style="stroke: #000000; stroke-width: 0.8"/>
      </g>
     </g>
     <g id="text_3">
      <!-- 100 -->
      <g transform="translate(200.205665 365.1136) scale(0.12 -0.12)">
       <defs>
        <path id="SimHei-31" d="M 1400 3600 
Q 1075 3275 575 2975 
L 575 3450 
Q 1200 3875 1600 4450 
L 1900 4450 
L 1900 150 
L 1400 150 
L 1400 3600 
z
" transform="scale(0.015625)"/>
       </defs>
       <use xlink:href="#SimHei-31"/>
       <use xlink:href="#SimHei-30" transform="translate(50 0)"/>
       <use xlink:href="#SimHei-30" transform="translate(100 0)"/>
      </g>
     </g>
    </g>
    <g id="xtick_4">
     <g id="line2d_7">
      <path d="M 280.565883 349.8636 
L 280.565883 34.5036 
" clip-path="url(#p2b630baed5)" style="fill: none; stroke-dasharray: 2.22,0.96; stroke-dashoffset: 0; stroke: #b0b0b0; stroke-opacity: 0.25; stroke-width: 0.6"/>
     </g>
     <g id="line2d_8">
      <g>
       <use xlink:href="#m0821b912b3" x="280.565883" y="349.8636" style="stroke: #000000; stroke-width: 0.8"/>
      </g>
     </g>
     <g id="text_4">
      <!-- 150 -->
      <g transform="translate(271.565883 365.1136) scale(0.12 -0.12)">
       <use xlink:href="#SimHei-31"/>
       <use xlink:href="#SimHei-35" transform="translate(50 0)"/>
       <use xlink:href="#SimHei-30" transform="translate(100 0)"/>
      </g>
     </g>
    </g>
    <g id="xtick_5">
     <g id="line2d_9">
      <path d="M 351.926102 349.8636 
L 351.926102 34.5036 
" clip-path="url(#p2b630baed5)" style="fill: none; stroke-dasharray: 2.22,0.96; stroke-dashoffset: 0; stroke: #b0b0b0; stroke-opacity: 0.25; stroke-width: 0.6"/>
     </g>
     <g id="line2d_10">
      <g>
       <use xlink:href="#m0821b912b3" x="351.926102" y="349.8636" style="stroke: #000000; stroke-width: 0.8"/>
      </g>
     </g>
     <g id="text_5">
      <!-- 200 -->
      <g transform="translate(342.926102 365.1136) scale(0.12 -0.12)">
       <defs>
        <path id="SimHei-32" d="M 300 250 
Q 325 625 650 925 
Q 975 1225 1475 1862 
Q 1975 2500 2125 2850 
Q 2275 3200 2237 3450 
Q 2200 3700 2000 3862 
Q 1800 4025 1537 4000 
Q 1275 3975 1037 3800 
Q 800 3625 675 3275 
L 200 3350 
Q 400 3925 712 4187 
Q 1025 4450 1450 4475 
Q 1700 4500 1900 4462 
Q 2100 4425 2312 4287 
Q 2525 4150 2662 3875 
Q 2800 3600 2762 3212 
Q 2725 2825 2375 2287 
Q 2025 1750 1025 600 
L 2825 600 
L 2825 150 
L 300 150 
L 300 250 
z
" transform="scale(0.015625)"/>
       </defs>
       <use xlink:href="#SimHei-32"/>
       <use xlink:href="#SimHei-30" transform="translate(50 0)"/>
       <use xlink:href="#SimHei-30" transform="translate(100 0)"/>
      </g>
     </g>
    </g>
    <g id="xtick_6">
     <g id="line2d_11">
      <path d="M 423.286321 349.8636 
L 423.286321 34.5036 
" clip-path="url(#p2b630baed5)" style="fill: none; stroke-dasharray: 2.22,0.96; stroke-dashoffset: 0; stroke: #b0b0b0; stroke-opacity: 0.25; stroke-width: 0.6"/>
     </g>
     <g id="line2d_12">
      <g>
       <use xlink:href="#m0821b912b3" x="423.286321" y="349.8636" style="stroke: #000000; stroke-width: 0.8"/>
      </g>
     </g>
     <g id="text_6">
      <!-- 250 -->
      <g transform="translate(414.286321 365.1136) scale(0.12 -0.12)">
       <use xlink:href="#SimHei-32"/>
       <use xlink:href="#SimHei-35" transform="translate(50 0)"/>
       <use xlink:href="#SimHei-30" transform="translate(100 0)"/>
      </g>
     </g>
    </g>
    <g id="xtick_7">
     <g id="line2d_13">
      <path d="M 494.64654 349.8636 
L 494.64654 34.5036 
" clip-path="url(#p2b630baed5)" style="fill: none; stroke-dasharray: 2.22,0.96; stroke-dashoffset: 0; stroke: #b0b0b0; stroke-opacity: 0.25; stroke-width: 0.6"/>
     </g>
     <g id="line2d_14">
      <g>
       <use xlink:href="#m0821b912b3" x="494.64654" y="349.8636" style="stroke: #000000; stroke-width: 0.8"/>
      </g>
     </g>
     <g id="text_7">
      <!-- 300 -->
      <g transform="translate(485.64654 365.1136) scale(0.12 -0.12)">
       <defs>
        <path id="SimHei-33" d="M 250 1225 
L 700 1300 
Q 800 975 1025 762 
Q 1250 550 1587 562 
Q 1925 575 2125 837 
Q 2325 1100 2300 1437 
Q 2275 1775 2037 1962 
Q 1800 2150 1275 2225 
L 1275 2550 
Q 1800 2600 2037 2825 
Q 2275 3050 2250 3412 
Q 2225 3775 1925 3937 
Q 1625 4100 1287 3975 
Q 950 3850 750 3275 
L 300 3350 
Q 450 3800 712 4100 
Q 975 4400 1425 4450 
Q 1875 4500 2212 4337 
Q 2550 4175 2687 3837 
Q 2825 3500 2725 3100 
Q 2625 2700 2150 2400 
Q 2500 2250 2687 1950 
Q 2875 1650 2812 1162 
Q 2750 675 2375 375 
Q 2000 75 1525 87 
Q 1050 100 700 387 
Q 350 675 250 1225 
z
" transform="scale(0.015625)"/>
       </defs>
       <use xlink:href="#SimHei-33"/>
       <use xlink:href="#SimHei-30" transform="translate(50 0)"/>
       <use xlink:href="#SimHei-30" transform="translate(100 0)"/>
      </g>
     </g>
    </g>
    <g id="xtick_8">
     <g id="line2d_15">
      <path d="M 566.006758 349.8636 
L 566.006758 34.5036 
" clip-path="url(#p2b630baed5)" style="fill: none; stroke-dasharray: 2.22,0.96; stroke-dashoffset: 0; stroke: #b0b0b0; stroke-opacity: 0.25; stroke-width: 0.6"/>
     </g>
     <g id="line2d_16">
      <g>
       <use xlink:href="#m0821b912b3" x="566.006758" y="349.8636" style="stroke: #000000; stroke-width: 0.8"/>
      </g>
     </g>
     <g id="text_8">
      <!-- 350 -->
      <g transform="translate(557.006758 365.1136) scale(0.12 -0.12)">
       <use xlink:href="#SimHei-33"/>
       <use xlink:href="#SimHei-35" transform="translate(50 0)"/>
       <use xlink:href="#SimHei-30" transform="translate(100 0)"/>
      </g>
     </g>
    </g>
    <g id="xtick_9">
     <g id="line2d_17">
      <path d="M 637.366977 349.8636 
L 637.366977 34.5036 
" clip-path="url(#p2b630baed5)" style="fill: none; stroke-dasharray: 2.22,0.96; stroke-dashoffset: 0; stroke: #b0b0b0; stroke-opacity: 0.25; stroke-width: 0.6"/>
     </g>
     <g id="line2d_18">
      <g>
       <use xlink:href="#m0821b912b3" x="637.366977" y="349.8636" style="stroke: #000000; stroke-width: 0.8"/>
      </g>
     </g>
     <g id="text_9">
      <!-- 400 -->
      <g transform="translate(628.366977 365.1136) scale(0.12 -0.12)">
       <defs>
        <path id="SimHei-34" d="M 2000 1100 
L 75 1100 
L 75 1525 
L 2100 4450 
L 2475 4450 
L 2475 1525 
L 3075 1525 
L 3075 1100 
L 2475 1100 
L 2475 150 
L 2000 150 
L 2000 1100 
z
M 2000 1525 
L 2000 3500 
L 600 1525 
L 2000 1525 
z
" transform="scale(0.015625)"/>
       </defs>
       <use xlink:href="#SimHei-34"/>
       <use xlink:href="#SimHei-30" transform="translate(50 0)"/>
       <use xlink:href="#SimHei-30" transform="translate(100 0)"/>
      </g>
     </g>
    </g>
    <g id="text_10">
     <!-- Episode -->
     <g transform="translate(321.4625 382.3011) scale(0.17 -0.17)">
      <defs>
       <path id="SimHei-45" d="M 2900 125 
L 350 125 
L 350 4400 
L 2775 4400 
L 2775 3925 
L 925 3925 
L 925 2600 
L 2625 2600 
L 2625 2125 
L 925 2125 
L 925 600 
L 2900 600 
L 2900 125 
z
" transform="scale(0.015625)"/>
       <path id="SimHei-70" d="M 2825 1525 
Q 2825 800 2475 425 
Q 2125 50 1625 50 
Q 1350 50 1150 162 
Q 950 275 800 500 
L 800 -800 
L 300 -800 
L 300 2925 
L 800 2925 
L 800 2550 
Q 950 2775 1150 2875 
Q 1350 2975 1625 2975 
Q 2125 2975 2475 2612 
Q 2825 2250 2825 1525 
z
M 2275 1525 
Q 2275 2000 2087 2262 
Q 1900 2525 1525 2525 
Q 1225 2525 1012 2262 
Q 800 2000 800 1525 
Q 800 1050 1012 775 
Q 1225 500 1525 500 
Q 1900 500 2087 775 
Q 2275 1050 2275 1525 
z
" transform="scale(0.015625)"/>
       <path id="SimHei-69" d="M 1800 3725 
L 1300 3725 
L 1300 4375 
L 1800 4375 
L 1800 3725 
z
M 1800 125 
L 1300 125 
L 1300 2925 
L 1800 2925 
L 1800 125 
z
" transform="scale(0.015625)"/>
       <path id="SimHei-73" d="M 2750 900 
Q 2750 500 2437 287 
Q 2125 75 1650 75 
Q 1050 75 725 312 
Q 400 550 400 1000 
L 900 1000 
Q 900 700 1112 600 
Q 1325 500 1625 500 
Q 1925 500 2075 612 
Q 2225 725 2225 900 
Q 2225 1025 2100 1150 
Q 1975 1275 1475 1350 
Q 900 1425 687 1637 
Q 475 1850 475 2200 
Q 475 2500 762 2737 
Q 1050 2975 1600 2975 
Q 2100 2975 2387 2750 
Q 2675 2525 2675 2150 
L 2175 2150 
Q 2175 2375 2012 2462 
Q 1850 2550 1600 2550 
Q 1275 2550 1137 2437 
Q 1000 2325 1000 2175 
Q 1000 2000 1125 1900 
Q 1250 1800 1650 1750 
Q 2300 1650 2525 1437 
Q 2750 1225 2750 900 
z
" transform="scale(0.015625)"/>
       <path id="SimHei-6f" d="M 2925 1525 
Q 2925 875 2525 475 
Q 2125 75 1575 75 
Q 1025 75 625 475 
Q 225 875 225 1525 
Q 225 2175 625 2575 
Q 1025 2975 1575 2975 
Q 2125 2975 2525 2575 
Q 2925 2175 2925 1525 
z
M 2375 1525 
Q 2375 2025 2125 2275 
Q 1875 2525 1575 2525 
Q 1275 2525 1025 2275 
Q 775 2025 775 1525 
Q 775 1025 1025 775 
Q 1275 525 1575 525 
Q 1875 525 2125 775 
Q 2375 1025 2375 1525 
z
" transform="scale(0.015625)"/>
       <path id="SimHei-64" d="M 2750 125 
L 2250 125 
L 2250 500 
Q 2100 275 1900 175 
Q 1700 75 1425 75 
Q 925 75 575 437 
Q 225 800 225 1525 
Q 225 2250 575 2625 
Q 925 3000 1425 3000 
Q 1700 3000 1900 2887 
Q 2100 2775 2250 2550 
L 2250 4400 
L 2750 4400 
L 2750 125 
z
M 2250 1525 
Q 2250 2000 2037 2275 
Q 1825 2550 1525 2550 
Q 1150 2550 962 2275 
Q 775 2000 775 1525 
Q 775 1050 962 787 
Q 1150 525 1525 525 
Q 1825 525 2037 787 
Q 2250 1050 2250 1525 
z
" transform="scale(0.015625)"/>
       <path id="SimHei-65" d="M 2850 1075 
Q 2800 625 2450 350 
Q 2100 75 1625 75 
Q 1025 75 637 462 
Q 250 850 250 1525 
Q 250 2200 637 2587 
Q 1025 2975 1625 2975 
Q 2150 2975 2487 2637 
Q 2825 2300 2825 1525 
L 800 1525 
Q 800 975 1037 750 
Q 1275 525 1625 525 
Q 1900 525 2075 662 
Q 2250 800 2300 1075 
L 2850 1075 
z
M 2250 1925 
Q 2200 2275 2025 2412 
Q 1850 2550 1575 2550 
Q 1325 2550 1125 2412 
Q 925 2275 825 1925 
L 2250 1925 
z
" transform="scale(0.015625)"/>
      </defs>
      <use xlink:href="#SimHei-45"/>
      <use xlink:href="#SimHei-70" transform="translate(50 0)"/>
      <use xlink:href="#SimHei-69" transform="translate(100 0)"/>
      <use xlink:href="#SimHei-73" transform="translate(150 0)"/>
      <use xlink:href="#SimHei-6f" transform="translate(200 0)"/>
      <use xlink:href="#SimHei-64" transform="translate(250 0)"/>
      <use xlink:href="#SimHei-65" transform="translate(300 0)"/>
     </g>
    </g>
   </g>
   <g id="matplotlib.axis_2">
    <g id="ytick_1">
     <g id="line2d_19">
      <path d="M 38.0125 321.806071 
L 664.4125 321.806071 
" clip-path="url(#p2b630baed5)" style="fill: none; stroke-dasharray: 2.22,0.96; stroke-dashoffset: 0; stroke: #b0b0b0; stroke-opacity: 0.25; stroke-width: 0.6"/>
     </g>
     <g id="line2d_20">
      <defs>
       <path id="mcc61d63b7b" d="M 0 0 
L -3.5 0 
" style="stroke: #000000; stroke-width: 0.8"/>
      </defs>
      <g>
       <use xlink:href="#mcc61d63b7b" x="38.0125" y="321.806071" style="stroke: #000000; stroke-width: 0.8"/>
      </g>
     </g>
     <g id="text_11">
      <!-- 1 -->
      <g transform="translate(25.0125 325.931071) scale(0.12 -0.12)">
       <use xlink:href="#SimHei-31"/>
      </g>
     </g>
    </g>
    <g id="ytick_2">
     <g id="line2d_21">
      <path d="M 38.0125 269.845199 
L 664.4125 269.845199 
" clip-path="url(#p2b630baed5)" style="fill: none; stroke-dasharray: 2.22,0.96; stroke-dashoffset: 0; stroke: #b0b0b0; stroke-opacity: 0.25; stroke-width: 0.6"/>
     </g>
     <g id="line2d_22">
      <g>
       <use xlink:href="#mcc61d63b7b" x="38.0125" y="269.845199" style="stroke: #000000; stroke-width: 0.8"/>
      </g>
     </g>
     <g id="text_12">
      <!-- 2 -->
      <g transform="translate(25.0125 273.970199) scale(0.12 -0.12)">
       <use xlink:href="#SimHei-32"/>
      </g>
     </g>
    </g>
    <g id="ytick_3">
     <g id="line2d_23">
      <path d="M 38.0125 217.884327 
L 664.4125 217.884327 
" clip-path="url(#p2b630baed5)" style="fill: none; stroke-dasharray: 2.22,0.96; stroke-dashoffset: 0; stroke: #b0b0b0; stroke-opacity: 0.25; stroke-width: 0.6"/>
     </g>
     <g id="line2d_24">
      <g>
       <use xlink:href="#mcc61d63b7b" x="38.0125" y="217.884327" style="stroke: #000000; stroke-width: 0.8"/>
      </g>
     </g>
     <g id="text_13">
      <!-- 3 -->
      <g transform="translate(25.0125 222.009327) scale(0.12 -0.12)">
       <use xlink:href="#SimHei-33"/>
      </g>
     </g>
    </g>
    <g id="ytick_4">
     <g id="line2d_25">
      <path d="M 38.0125 165.923455 
L 664.4125 165.923455 
" clip-path="url(#p2b630baed5)" style="fill: none; stroke-dasharray: 2.22,0.96; stroke-dashoffset: 0; stroke: #b0b0b0; stroke-opacity: 0.25; stroke-width: 0.6"/>
     </g>
     <g id="line2d_26">
      <g>
       <use xlink:href="#mcc61d63b7b" x="38.0125" y="165.923455" style="stroke: #000000; stroke-width: 0.8"/>
      </g>
     </g>
     <g id="text_14">
      <!-- 4 -->
      <g transform="translate(25.0125 170.048455) scale(0.12 -0.12)">
       <use xlink:href="#SimHei-34"/>
      </g>
     </g>
    </g>
    <g id="ytick_5">
     <g id="line2d_27">
      <path d="M 38.0125 113.962583 
L 664.4125 113.962583 
" clip-path="url(#p2b630baed5)" style="fill: none; stroke-dasharray: 2.22,0.96; stroke-dashoffset: 0; stroke: #b0b0b0; stroke-opacity: 0.25; stroke-width: 0.6"/>
     </g>
     <g id="line2d_28">
      <g>
       <use xlink:href="#mcc61d63b7b" x="38.0125" y="113.962583" style="stroke: #000000; stroke-width: 0.8"/>
      </g>
     </g>
     <g id="text_15">
      <!-- 5 -->
      <g transform="translate(25.0125 118.087583) scale(0.12 -0.12)">
       <use xlink:href="#SimHei-35"/>
      </g>
     </g>
    </g>
    <g id="ytick_6">
     <g id="line2d_29">
      <path d="M 38.0125 62.001711 
L 664.4125 62.001711 
" clip-path="url(#p2b630baed5)" style="fill: none; stroke-dasharray: 2.22,0.96; stroke-dashoffset: 0; stroke: #b0b0b0; stroke-opacity: 0.25; stroke-width: 0.6"/>
     </g>
     <g id="line2d_30">
      <g>
       <use xlink:href="#mcc61d63b7b" x="38.0125" y="62.001711" style="stroke: #000000; stroke-width: 0.8"/>
      </g>
     </g>
     <g id="text_16">
      <!-- 6 -->
      <g transform="translate(25.0125 66.126711) scale(0.12 -0.12)">
       <defs>
        <path id="SimHei-36" d="M 250 1612 
Q 275 1975 387 2225 
Q 500 2475 725 2850 
L 1750 4450 
L 2325 4450 
L 1275 2800 
Q 1950 2975 2350 2750 
Q 2750 2525 2887 2237 
Q 3025 1950 3037 1612 
Q 3050 1275 2937 950 
Q 2825 625 2537 362 
Q 2250 100 1737 75 
Q 1225 50 862 262 
Q 500 475 362 862 
Q 225 1250 250 1612 
z
M 1025 787 
Q 1250 550 1625 525 
Q 2000 500 2250 775 
Q 2500 1050 2500 1575 
Q 2500 2100 2187 2300 
Q 1875 2500 1487 2450 
Q 1100 2400 925 2075 
Q 750 1750 775 1387 
Q 800 1025 1025 787 
z
" transform="scale(0.015625)"/>
       </defs>
       <use xlink:href="#SimHei-36"/>
      </g>
     </g>
    </g>
    <g id="text_17">
     <!-- Total Task Energy -->
     <g transform="translate(18.8875 264.4336) rotate(-90) scale(0.17 -0.17)">
      <defs>
       <path id="SimHei-54" d="M 2850 3925 
L 1850 3925 
L 1850 125 
L 1275 125 
L 1275 3925 
L 275 3925 
L 275 4400 
L 2850 4400 
L 2850 3925 
z
" transform="scale(0.015625)"/>
       <path id="SimHei-74" d="M 2750 200 
Q 2625 150 2462 112 
Q 2300 75 2025 75 
Q 1575 75 1300 325 
Q 1025 575 1025 1025 
L 1025 2525 
L 175 2525 
L 175 2925 
L 1025 2925 
L 1025 3900 
L 1525 3900 
L 1525 2925 
L 2550 2925 
L 2550 2525 
L 1525 2525 
L 1525 1000 
Q 1525 800 1625 662 
Q 1725 525 2000 525 
Q 2275 525 2450 575 
Q 2625 625 2750 700 
L 2750 200 
z
" transform="scale(0.015625)"/>
       <path id="SimHei-61" d="M 2875 125 
L 2275 125 
Q 2225 175 2200 262 
Q 2175 350 2175 475 
Q 2000 275 1750 175 
Q 1500 75 1225 75 
Q 825 75 550 275 
Q 275 475 275 850 
Q 275 1225 525 1450 
Q 775 1675 1300 1750 
Q 1650 1800 1912 1875 
Q 2175 1950 2175 2075 
Q 2175 2225 2062 2375 
Q 1950 2525 1575 2525 
Q 1275 2525 1137 2412 
Q 1000 2300 950 2100 
L 400 2100 
Q 450 2500 762 2737 
Q 1075 2975 1575 2975 
Q 2125 2975 2400 2725 
Q 2675 2475 2675 2025 
L 2675 650 
Q 2675 500 2725 375 
Q 2775 250 2875 125 
z
M 2175 1050 
L 2175 1550 
Q 2025 1500 1887 1462 
Q 1750 1425 1425 1375 
Q 1050 1325 937 1200 
Q 825 1075 825 900 
Q 825 750 937 637 
Q 1050 525 1275 525 
Q 1500 525 1762 650 
Q 2025 775 2175 1050 
z
" transform="scale(0.015625)"/>
       <path id="SimHei-6c" d="M 1825 125 
L 1325 125 
L 1325 4400 
L 1825 4400 
L 1825 125 
z
" transform="scale(0.015625)"/>
       <path id="SimHei-20" transform="scale(0.015625)"/>
       <path id="SimHei-6b" d="M 2925 125 
L 2350 125 
L 1450 1650 
L 875 1100 
L 875 125 
L 375 125 
L 375 4400 
L 875 4400 
L 875 1675 
L 2125 2925 
L 2750 2925 
L 1775 1975 
L 2925 125 
z
" transform="scale(0.015625)"/>
       <path id="SimHei-6e" d="M 2800 125 
L 2300 125 
L 2300 1925 
Q 2300 2225 2150 2400 
Q 2000 2575 1750 2575 
Q 1425 2575 1137 2237 
Q 850 1900 850 1400 
L 850 125 
L 350 125 
L 350 2925 
L 850 2925 
L 850 2400 
Q 1050 2675 1287 2825 
Q 1525 2975 1900 2975 
Q 2350 2975 2575 2725 
Q 2800 2475 2800 2100 
L 2800 125 
z
" transform="scale(0.015625)"/>
       <path id="SimHei-72" d="M 2500 2425 
Q 2025 2500 1700 2287 
Q 1375 2075 1150 1550 
L 1150 125 
L 650 125 
L 650 2925 
L 1150 2925 
L 1150 2200 
Q 1375 2600 1712 2787 
Q 2050 2975 2500 2975 
L 2500 2425 
z
" transform="scale(0.015625)"/>
       <path id="SimHei-67" d="M 2975 2500 
Q 2800 2550 2637 2562 
Q 2475 2575 2300 2525 
Q 2375 2450 2425 2337 
Q 2475 2225 2475 2000 
Q 2475 1575 2187 1300 
Q 1900 1025 1475 1025 
Q 1375 1025 1212 1062 
Q 1050 1100 950 1150 
Q 875 1100 850 1050 
Q 825 1000 825 925 
Q 825 800 1000 737 
Q 1175 675 1625 675 
Q 2350 675 2612 475 
Q 2875 275 2875 -25 
Q 2875 -425 2487 -612 
Q 2100 -800 1575 -800 
Q 900 -800 575 -625 
Q 250 -450 250 -150 
Q 250 0 375 150 
Q 500 300 700 400 
Q 550 475 462 587 
Q 375 700 375 875 
Q 375 1025 487 1137 
Q 600 1250 750 1325 
Q 625 1450 550 1625 
Q 475 1800 475 2000 
Q 475 2425 762 2700 
Q 1050 2975 1475 2975 
Q 1700 2975 1862 2912 
Q 2025 2850 2150 2725 
Q 2350 2875 2550 2937 
Q 2750 3000 2975 2975 
L 2975 2500 
z
M 1975 2000 
Q 1975 2250 1850 2400 
Q 1725 2550 1475 2550 
Q 1225 2550 1100 2400 
Q 975 2250 975 2000 
Q 975 1750 1100 1600 
Q 1225 1450 1475 1450 
Q 1725 1450 1850 1600 
Q 1975 1750 1975 2000 
z
M 2400 -75 
Q 2400 25 2287 125 
Q 2175 225 1725 225 
Q 1625 225 1450 237 
Q 1275 250 1050 275 
Q 850 200 775 100 
Q 700 0 700 -100 
Q 700 -250 900 -350 
Q 1100 -450 1600 -450 
Q 2025 -450 2212 -337 
Q 2400 -225 2400 -75 
z
" transform="scale(0.015625)"/>
       <path id="SimHei-79" d="M 2900 2925 
L 1750 -100 
Q 1650 -450 1450 -625 
Q 1250 -800 950 -800 
Q 825 -800 712 -787 
Q 600 -775 500 -725 
L 500 -225 
Q 600 -275 700 -300 
Q 800 -325 875 -325 
Q 1075 -325 1150 -262 
Q 1225 -200 1300 25 
L 200 2925 
L 750 2925 
L 1550 725 
L 1575 725 
L 2350 2925 
L 2900 2925 
z
" transform="scale(0.015625)"/>
      </defs>
      <use xlink:href="#SimHei-54"/>
      <use xlink:href="#SimHei-6f" transform="translate(50 0)"/>
      <use xlink:href="#SimHei-74" transform="translate(100 0)"/>
      <use xlink:href="#SimHei-61" transform="translate(150 0)"/>
      <use xlink:href="#SimHei-6c" transform="translate(200 0)"/>
      <use xlink:href="#SimHei-20" transform="translate(250 0)"/>
      <use xlink:href="#SimHei-54" transform="translate(300 0)"/>
      <use xlink:href="#SimHei-61" transform="translate(350 0)"/>
      <use xlink:href="#SimHei-73" transform="translate(400 0)"/>
      <use xlink:href="#SimHei-6b" transform="translate(450 0)"/>
      <use xlink:href="#SimHei-20" transform="translate(500 0)"/>
      <use xlink:href="#SimHei-45" transform="translate(550 0)"/>
      <use xlink:href="#SimHei-6e" transform="translate(600 0)"/>
      <use xlink:href="#SimHei-65" transform="translate(650 0)"/>
      <use xlink:href="#SimHei-72" transform="translate(700 0)"/>
      <use xlink:href="#SimHei-67" transform="translate(750 0)"/>
      <use xlink:href="#SimHei-79" transform="translate(800 0)"/>
     </g>
    </g>
   </g>
   <g id="line2d_31">
    <path d="M 66.485227 219.420161 
L 67.912432 217.583483 
L 69.339636 223.038032 
L 70.76684 227.77613 
L 72.194045 227.813535 
L 73.621249 226.642132 
L 75.048454 222.209381 
L 76.475658 221.739476 
L 77.902862 220.018948 
L 79.330067 219.751492 
L 80.757271 223.452144 
L 82.184475 228.111474 
L 83.61168 229.537503 
L 85.038884 231.459608 
L 86.466089 236.460333 
L 89.320497 224.661183 
L 90.747702 222.433518 
L 92.174906 226.026304 
L 93.60211 226.386439 
L 95.029315 223.839055 
L 96.456519 229.061433 
L 97.883724 225.788878 
L 99.310928 225.72966 
L 100.738132 231.029575 
L 102.165337 224.906954 
L 103.592541 219.646532 
L 105.019745 223.362994 
L 106.44695 229.073448 
L 107.874154 231.847215 
L 109.301359 229.986237 
L 110.728563 235.117952 
L 112.155767 235.954001 
L 113.582972 240.72867 
L 115.010176 240.56615 
L 116.43738 245.334048 
L 119.291789 254.092045 
L 120.718994 255.694206 
L 122.146198 259.491533 
L 123.573402 250.630884 
L 126.427811 258.788656 
L 129.28222 266.109967 
L 130.709424 247.644551 
L 133.563833 256.131094 
L 136.418242 263.534494 
L 139.27265 270.175981 
L 143.554263 279.159178 
L 146.408672 284.08634 
L 147.835877 286.726475 
L 152.11749 293.561669 
L 157.826307 301.128423 
L 160.680716 304.676679 
L 162.10792 299.586368 
L 163.535125 290.887731 
L 164.962329 293.173168 
L 166.389533 291.853369 
L 167.816738 286.103749 
L 169.243942 288.244803 
L 170.671147 280.094317 
L 173.525555 285.128066 
L 174.95276 287.668474 
L 176.379964 285.09868 
L 177.807168 278.941467 
L 182.088782 286.853922 
L 184.94319 287.553577 
L 186.370395 288.047163 
L 187.797599 289.27675 
L 189.224803 286.013866 
L 190.652008 288.445915 
L 192.079212 282.499582 
L 193.506417 285.200277 
L 194.933621 280.434921 
L 196.360825 280.342953 
L 197.78803 280.524116 
L 199.215234 274.244467 
L 200.642438 272.40281 
L 202.069643 266.97529 
L 204.924052 270.012079 
L 206.351256 256.743656 
L 207.77846 256.186422 
L 209.205665 258.422916 
L 210.632869 258.595631 
L 212.060073 262.375865 
L 213.487278 264.328921 
L 214.914482 266.753328 
L 216.341687 266.991305 
L 217.768891 269.333538 
L 219.196095 269.709746 
L 220.6233 272.779759 
L 222.050504 272.461262 
L 224.904913 274.604918 
L 226.332117 270.696742 
L 227.759322 272.562016 
L 229.186526 275.480605 
L 230.61373 273.790692 
L 232.040935 268.904824 
L 233.468139 261.848642 
L 234.895343 262.883414 
L 236.322548 256.081023 
L 237.749752 257.728749 
L 239.176957 260.932733 
L 240.604161 258.265658 
L 242.031365 253.434215 
L 243.45857 252.678266 
L 244.885774 256.728256 
L 246.312978 257.97104 
L 247.740183 256.249053 
L 249.167387 255.639714 
L 250.594592 254.632107 
L 252.021796 258.171462 
L 253.449 260.608119 
L 254.876205 261.019313 
L 256.303409 264.326608 
L 257.730613 264.892959 
L 259.157818 264.872878 
L 260.585022 266.971682 
L 262.012227 260.84715 
L 263.439431 260.092106 
L 264.866635 258.866726 
L 269.148248 244.536108 
L 270.575453 243.543185 
L 272.002657 245.874603 
L 273.429862 245.224441 
L 274.857066 247.13916 
L 276.28427 250.855084 
L 277.711475 254.163558 
L 279.138679 254.265929 
L 280.565883 257.452859 
L 281.993088 258.995501 
L 283.420292 261.522881 
L 284.847497 260.712214 
L 286.274701 256.304883 
L 287.701905 259.889134 
L 289.12911 261.439614 
L 290.556314 257.293418 
L 291.983518 255.908234 
L 293.410723 258.051707 
L 294.837927 259.954379 
L 296.265132 258.646496 
L 297.692336 258.411288 
L 299.11954 258.615005 
L 300.546745 260.323439 
L 301.973949 262.740179 
L 303.401153 260.042255 
L 304.828358 261.842197 
L 306.255562 262.187968 
L 307.682767 263.560001 
L 309.109971 260.503805 
L 310.537175 261.790409 
L 311.96438 244.654406 
L 313.391584 245.076531 
L 314.818788 240.959492 
L 317.673197 243.761938 
L 319.100402 245.795942 
L 320.527606 245.930207 
L 321.95481 245.089348 
L 323.382015 247.688833 
L 324.809219 251.982856 
L 326.236423 250.283373 
L 327.663628 250.451676 
L 329.090832 252.856199 
L 330.518037 247.323743 
L 331.945241 244.107355 
L 333.372445 247.972302 
L 334.79965 251.335192 
L 336.226854 247.618011 
L 337.654058 244.819995 
L 339.081263 248.721653 
L 340.508467 251.781067 
L 341.935672 253.288455 
L 343.362876 253.55734 
L 344.79008 254.5127 
L 346.217285 253.927623 
L 347.644489 257.263912 
L 349.071693 258.574977 
L 350.498898 259.534938 
L 351.926102 252.169681 
L 353.353307 252.330461 
L 354.780511 238.33671 
L 356.207715 235.520559 
L 357.63492 233.771992 
L 359.062124 238.441962 
L 360.489328 240.221629 
L 361.916533 238.500644 
L 363.343737 243.014513 
L 364.770942 236.284828 
L 366.198146 236.550131 
L 367.62535 237.100559 
L 369.052555 241.563985 
L 370.479759 239.852616 
L 371.906963 229.78241 
L 373.334168 227.98024 
L 374.761372 233.18922 
L 376.188577 237.922837 
L 377.615781 238.739798 
L 379.042985 243.076924 
L 380.47019 244.42028 
L 381.897394 248.918683 
L 383.324598 252.649679 
L 384.751803 246.283283 
L 386.179007 248.086668 
L 387.606212 252.319297 
L 389.033416 248.599238 
L 390.46062 252.323267 
L 391.887825 252.205624 
L 393.315029 256.235757 
L 394.742233 258.542376 
L 396.169438 261.875624 
L 397.596642 260.735707 
L 399.023847 264.29394 
L 400.451051 265.784165 
L 401.878255 266.629287 
L 403.30546 252.97124 
L 404.732664 256.687954 
L 406.159868 256.280929 
L 409.014277 262.364201 
L 410.441482 249.487887 
L 413.29589 255.158289 
L 414.723095 258.908202 
L 416.150299 262.233333 
L 417.577503 262.847461 
L 419.004708 260.675949 
L 420.431912 263.916431 
L 423.286321 259.935679 
L 424.713525 250.145578 
L 426.14073 252.28811 
L 427.567934 247.080627 
L 428.995138 250.006256 
L 430.422343 248.696625 
L 431.849547 247.622546 
L 433.276752 236.100658 
L 434.703956 240.568691 
L 436.13116 240.421246 
L 437.558365 242.819263 
L 438.985569 236.313321 
L 440.412773 240.960194 
L 441.839978 243.087969 
L 443.267182 246.865609 
L 444.694387 248.122251 
L 447.548795 238.705592 
L 448.976 239.449452 
L 450.403204 241.648485 
L 451.830408 243.612052 
L 454.684817 246.295237 
L 456.112022 247.217038 
L 457.539226 246.032639 
L 458.96643 246.992235 
L 460.393635 244.277268 
L 461.820839 245.288369 
L 463.248043 247.992551 
L 464.675248 246.20755 
L 466.102452 248.976986 
L 467.529657 250.570963 
L 468.956861 254.545921 
L 470.384065 257.824962 
L 471.81127 260.318612 
L 473.238474 263.946183 
L 474.665678 259.659024 
L 476.092883 262.886831 
L 477.520087 265.05169 
L 478.947292 267.013468 
L 480.374496 267.729442 
L 481.8017 269.282116 
L 483.228905 272.431225 
L 484.656109 270.221447 
L 486.083313 273.316544 
L 487.510518 270.06932 
L 488.937722 273.228072 
L 490.364927 275.10392 
L 491.792131 276.723575 
L 493.219335 276.809536 
L 494.64654 273.212759 
L 496.073744 266.375973 
L 497.500948 262.949445 
L 498.928153 262.391968 
L 500.355357 248.170375 
L 501.782562 248.945989 
L 503.209766 252.83098 
L 504.63697 252.652916 
L 506.064175 252.12573 
L 507.491379 250.013032 
L 508.918583 253.683377 
L 510.345788 244.374777 
L 511.772992 246.272565 
L 513.200197 245.83045 
L 514.627401 246.154562 
L 516.054605 250.231973 
L 517.48181 246.577262 
L 518.909014 249.984582 
L 521.763423 257.742531 
L 524.617832 262.425465 
L 526.045036 259.221695 
L 527.47224 261.361564 
L 528.899445 264.985081 
L 530.326649 263.567288 
L 531.753853 266.837588 
L 533.181058 269.394021 
L 534.608262 265.558408 
L 536.035467 267.269597 
L 537.462671 264.547452 
L 540.31708 270.685744 
L 541.744284 269.633072 
L 543.171488 259.365416 
L 544.598693 256.865415 
L 546.025897 251.444398 
L 547.453102 247.665302 
L 548.880306 251.747737 
L 550.30751 252.002633 
L 551.734715 252.806723 
L 553.161919 251.534393 
L 554.589123 247.886173 
L 556.016328 251.311186 
L 557.443532 251.714926 
L 558.870737 252.706701 
L 560.297941 250.769894 
L 561.725145 243.303752 
L 563.15235 247.613794 
L 564.579554 246.143631 
L 566.006758 238.556183 
L 567.433963 236.704398 
L 568.861167 237.467718 
L 570.288371 239.879214 
L 571.715576 236.001965 
L 573.14278 237.25104 
L 574.569985 234.302163 
L 575.997189 238.496093 
L 577.424393 238.784284 
L 578.851598 231.635646 
L 580.278802 231.95684 
L 583.133211 239.196388 
L 584.560415 234.69061 
L 585.98762 232.138891 
L 587.414824 235.209738 
L 588.842028 232.42113 
L 590.269233 235.90179 
L 591.696437 238.781584 
L 593.123641 243.006594 
L 594.550846 245.759033 
L 595.97805 249.828697 
L 597.405255 248.329382 
L 598.832459 250.86117 
L 600.259663 248.1369 
L 601.686868 252.333073 
L 603.114072 254.560652 
L 604.541276 245.975495 
L 605.968481 243.628158 
L 607.395685 244.363428 
L 608.82289 244.958638 
L 611.677298 240.67763 
L 613.104503 242.904107 
L 614.531707 244.036588 
L 615.958911 248.172459 
L 617.386116 247.569959 
L 618.81332 248.631312 
L 620.240525 247.37233 
L 621.667729 248.323944 
L 623.094933 252.43919 
L 624.522138 255.527734 
L 625.949342 257.125266 
L 627.376546 252.622779 
L 628.803751 255.962887 
L 630.230955 256.989509 
L 631.65816 260.742675 
L 633.085364 262.566591 
L 634.512568 260.467187 
L 634.512568 260.467187 
" clip-path="url(#p2b630baed5)" style="fill: none; stroke: #1f77b4; stroke-width: 1.2; stroke-linecap: square"/>
   </g>
   <g id="line2d_32">
    <path d="M 66.485227 157.921704 
L 67.912432 154.840795 
L 69.339636 158.615196 
L 70.76684 163.821009 
L 72.194045 168.418494 
L 73.621249 173.463458 
L 75.048454 179.118522 
L 76.475658 183.284091 
L 77.902862 190.307719 
L 79.330067 193.382197 
L 80.757271 193.697153 
L 82.184475 197.010671 
L 83.61168 194.041862 
L 85.038884 196.055409 
L 86.466089 196.208925 
L 87.893293 196.574766 
L 89.320497 199.573478 
L 90.747702 194.838393 
L 92.174906 191.921288 
L 93.60211 180.790268 
L 95.029315 181.245899 
L 96.456519 185.854282 
L 97.883724 187.400306 
L 99.310928 192.06039 
L 100.738132 194.021835 
L 102.165337 198.728277 
L 103.592541 199.451255 
L 105.019745 203.747255 
L 106.44695 207.623965 
L 107.874154 212.609936 
L 109.301359 209.84105 
L 110.728563 212.998609 
L 112.155767 217.09314 
L 113.582972 218.48815 
L 115.010176 220.404069 
L 116.43738 219.092634 
L 117.864585 218.949857 
L 119.291789 216.98444 
L 120.718994 220.192469 
L 122.146198 219.031658 
L 123.573402 224.065468 
L 125.000607 228.527069 
L 126.427811 228.505674 
L 127.855015 229.894754 
L 129.28222 232.316624 
L 130.709424 227.890517 
L 132.136629 231.026011 
L 133.563833 233.535821 
L 134.991037 232.403808 
L 136.418242 234.898342 
L 137.845446 239.086048 
L 139.27265 234.574757 
L 140.699855 238.171815 
L 142.127059 238.457523 
L 143.554263 237.603276 
L 144.981468 238.949169 
L 146.408672 242.606005 
L 147.835877 240.825515 
L 149.263081 239.545047 
L 150.690285 238.695733 
L 152.11749 241.437655 
L 153.544694 243.925409 
L 154.971898 243.561173 
L 156.399103 247.710141 
L 157.826307 247.050414 
L 159.253512 248.993154 
L 160.680716 249.77647 
L 162.10792 252.832395 
L 163.535125 254.327099 
L 164.962329 253.076489 
L 166.389533 256.386187 
L 167.816738 254.434584 
L 169.243942 257.133191 
L 170.671147 259.295348 
L 172.098351 260.506382 
L 173.525555 259.950908 
L 174.95276 261.732058 
L 176.379964 262.824509 
L 177.807168 266.159897 
L 179.234373 267.520738 
L 180.661577 265.014963 
L 182.088782 261.836323 
L 183.515986 259.9768 
L 184.94319 262.712584 
L 186.370395 259.108856 
L 187.797599 257.628585 
L 189.224803 260.016886 
L 190.652008 262.111141 
L 192.079212 261.196126 
L 193.506417 263.435678 
L 194.933621 263.728084 
L 196.360825 264.302636 
L 197.78803 267.312941 
L 199.215234 262.23499 
L 200.642438 260.35246 
L 202.069643 263.899657 
L 203.496847 258.383754 
L 204.924052 256.906442 
L 206.351256 257.884272 
L 209.205665 264.183244 
L 210.632869 263.319107 
L 212.060073 266.43939 
L 213.487278 268.854327 
L 216.341687 272.671765 
L 217.768891 275.49491 
L 219.196095 275.790674 
L 220.6233 275.575814 
L 223.477708 280.094837 
L 224.904913 278.738753 
L 226.332117 277.700849 
L 227.759322 278.152714 
L 229.186526 280.916254 
L 232.040935 285.675792 
L 233.468139 284.873055 
L 234.895343 281.157281 
L 236.322548 279.866423 
L 239.176957 284.087214 
L 240.604161 286.239318 
L 242.031365 277.918625 
L 243.45857 274.233013 
L 244.885774 275.228532 
L 246.312978 277.996126 
L 247.740183 276.778133 
L 249.167387 279.263635 
L 250.594592 281.359859 
L 252.021796 282.934476 
L 253.449 283.572997 
L 256.303409 277.130453 
L 257.730613 276.218902 
L 259.157818 278.902531 
L 260.585022 281.341387 
L 262.012227 282.495626 
L 263.439431 283.291732 
L 264.866635 283.330092 
L 266.29384 285.614752 
L 267.721044 288.116451 
L 269.148248 289.211324 
L 270.575453 289.47996 
L 272.002657 291.303114 
L 273.429862 293.408656 
L 276.28427 297.027091 
L 277.711475 298.743827 
L 279.138679 300.274032 
L 280.565883 298.554214 
L 281.993088 297.25047 
L 283.420292 297.999664 
L 284.847497 297.015024 
L 287.701905 300.50363 
L 289.12911 294.884114 
L 290.556314 295.735729 
L 291.983518 297.15162 
L 293.410723 294.569055 
L 294.837927 294.258664 
L 296.265132 296.109411 
L 297.692336 296.257988 
L 299.11954 297.893641 
L 300.546745 298.478092 
L 301.973949 300.100488 
L 306.255562 304.218099 
L 307.682767 300.241454 
L 309.109971 299.352295 
L 310.537175 301.161644 
L 311.96438 302.353151 
L 313.391584 303.993347 
L 314.818788 305.220274 
L 316.245993 306.660894 
L 317.673197 307.83431 
L 319.100402 306.862967 
L 320.527606 305.451673 
L 321.95481 306.86864 
L 323.382015 307.938082 
L 326.236423 310.579081 
L 327.663628 310.821414 
L 329.090832 311.846045 
L 330.518037 311.691935 
L 331.945241 312.754915 
L 333.372445 312.905109 
L 337.654058 315.123745 
L 339.081263 314.633929 
L 340.508467 315.431902 
L 341.935672 311.420598 
L 343.362876 311.459815 
L 346.217285 313.056368 
L 349.071693 308.034666 
L 350.498898 308.138952 
L 351.926102 309.219263 
L 353.353307 309.502849 
L 354.780511 309.584747 
L 359.062124 313.123339 
L 360.489328 314.053625 
L 361.916533 314.781122 
L 363.343737 315.736036 
L 364.770942 315.903946 
L 366.198146 316.431663 
L 367.62535 313.583173 
L 369.052555 314.438866 
L 370.479759 315.542485 
L 371.906963 314.148538 
L 373.334168 314.423169 
L 376.188577 316.305595 
L 377.615781 314.671771 
L 383.324598 318.460164 
L 384.751803 319.213763 
L 386.179007 320.192204 
L 387.606212 318.118147 
L 389.033416 319.059065 
L 394.742233 321.820404 
L 396.169438 322.291832 
L 397.596642 319.395764 
L 399.023847 319.213476 
L 400.451051 318.867146 
L 404.732664 321.144362 
L 406.159868 321.778962 
L 407.587073 321.738963 
L 409.014277 322.373367 
L 410.441482 320.899651 
L 413.29589 322.203678 
L 414.723095 322.756206 
L 416.150299 323.175263 
L 417.577503 323.366717 
L 420.431912 324.241589 
L 421.859117 321.408083 
L 423.286321 322.100162 
L 426.14073 323.008923 
L 427.567934 322.938191 
L 430.422343 323.940185 
L 431.849547 322.644189 
L 433.276752 323.226416 
L 434.703956 322.518715 
L 437.558365 323.80753 
L 438.985569 322.979562 
L 440.412773 323.550952 
L 441.839978 324.291077 
L 443.267182 324.673216 
L 444.694387 324.800263 
L 450.403204 326.430782 
L 451.830408 324.681923 
L 453.257613 321.629664 
L 454.684817 322.08902 
L 456.112022 322.851744 
L 460.393635 324.125263 
L 461.820839 324.730395 
L 463.248043 325.087383 
L 464.675248 325.25347 
L 466.102452 325.791002 
L 467.529657 326.100587 
L 468.956861 326.641882 
L 470.384065 325.574018 
L 476.092883 327.403839 
L 478.947292 328.224036 
L 480.374496 328.288104 
L 481.8017 328.669648 
L 484.656109 328.983961 
L 486.083313 329.375181 
L 487.510518 329.439219 
L 490.364927 330.205295 
L 491.792131 330.129534 
L 493.219335 330.199641 
L 494.64654 330.424869 
L 496.073744 330.425917 
L 500.355357 331.233483 
L 503.209766 331.76488 
L 504.63697 330.378109 
L 507.491379 330.606377 
L 508.918583 330.910509 
L 510.345788 330.933931 
L 511.772992 331.159473 
L 513.200197 331.147048 
L 514.627401 331.429801 
L 517.48181 331.488344 
L 520.336218 331.570134 
L 521.763423 331.149731 
L 523.190627 331.490858 
L 524.617832 331.475305 
L 526.045036 331.733018 
L 527.47224 331.868319 
L 528.899445 331.865273 
L 533.181058 332.110164 
L 534.608262 331.180946 
L 538.889875 331.577118 
L 544.598693 332.592346 
L 554.589123 333.317577 
L 557.443532 333.69301 
L 558.870737 333.509353 
L 560.297941 333.757967 
L 567.433963 334.108845 
L 568.861167 333.977793 
L 571.715576 334.141216 
L 573.14278 332.991702 
L 574.569985 331.617657 
L 577.424393 331.957307 
L 578.851598 332.092956 
L 580.278802 332.358472 
L 581.706006 330.426099 
L 583.133211 330.616207 
L 584.560415 330.962002 
L 585.98762 331.066751 
L 587.414824 331.355259 
L 588.842028 331.342369 
L 591.696437 331.764419 
L 593.123641 331.993948 
L 594.550846 332.039636 
L 595.97805 332.230893 
L 597.405255 332.562571 
L 598.832459 332.531106 
L 600.259663 332.737687 
L 601.686868 331.467032 
L 603.114072 331.391972 
L 604.541276 331.650604 
L 605.968481 331.463757 
L 607.395685 329.212581 
L 608.82289 329.502331 
L 610.250094 329.610039 
L 613.104503 330.00691 
L 614.531707 330.421917 
L 617.386116 330.72983 
L 620.240525 330.812699 
L 623.094933 331.453085 
L 624.522138 326.032109 
L 625.949342 326.226242 
L 628.803751 327.089233 
L 630.230955 325.24135 
L 633.085364 325.771732 
L 634.512568 326.368974 
L 634.512568 326.368974 
" clip-path="url(#p2b630baed5)" style="fill: none; stroke: #ff7f0e; stroke-width: 1.2; stroke-linecap: square"/>
   </g>
   <g id="line2d_33">
    <path d="M 66.485227 48.838145 
L 69.339636 67.684568 
L 70.76684 69.935614 
L 73.621249 86.248215 
L 75.048454 86.883239 
L 76.475658 82.848697 
L 77.902862 80.940719 
L 79.330067 85.044697 
L 80.757271 96.463257 
L 82.184475 102.052031 
L 83.61168 102.452683 
L 85.038884 108.411574 
L 86.466089 118.07807 
L 87.893293 125.58554 
L 89.320497 127.793704 
L 90.747702 132.541489 
L 92.174906 135.621449 
L 93.60211 141.24577 
L 95.029315 142.801483 
L 96.456519 144.645598 
L 97.883724 147.950054 
L 99.310928 154.882371 
L 100.738132 151.752409 
L 102.165337 151.532876 
L 103.592541 155.745718 
L 105.019745 159.342602 
L 106.44695 165.609641 
L 107.874154 165.196269 
L 109.301359 169.966814 
L 110.728563 169.943244 
L 113.582972 177.731586 
L 115.010176 172.998357 
L 116.43738 171.6546 
L 117.864585 166.749586 
L 119.291789 157.781378 
L 120.718994 156.104727 
L 122.146198 155.206847 
L 123.573402 159.34136 
L 125.000607 166.65945 
L 126.427811 171.059844 
L 127.855015 174.343357 
L 129.28222 181.183757 
L 130.709424 183.909385 
L 132.136629 188.828103 
L 133.563833 184.33263 
L 134.991037 186.070368 
L 136.418242 186.454869 
L 137.845446 189.443958 
L 139.27265 192.124769 
L 140.699855 195.945703 
L 142.127059 193.763136 
L 143.554263 198.019497 
L 144.981468 197.981139 
L 146.408672 197.136259 
L 149.263081 209.339194 
L 150.690285 212.111842 
L 153.544694 218.824925 
L 154.971898 218.137298 
L 156.399103 223.438801 
L 157.826307 223.679854 
L 159.253512 227.551298 
L 160.680716 227.982537 
L 162.10792 221.186238 
L 164.962329 230.15299 
L 166.389533 232.471926 
L 167.816738 233.460716 
L 169.243942 237.180932 
L 173.525555 245.966709 
L 174.95276 250.387907 
L 180.661577 266.096004 
L 183.515986 272.890188 
L 187.797599 281.625968 
L 193.506417 291.484819 
L 196.360825 295.671533 
L 199.215234 299.3684 
L 200.642438 301.119534 
L 203.496847 304.330333 
L 206.351256 307.686104 
L 213.487278 313.974096 
L 214.914482 314.894515 
L 216.341687 315.9803 
L 224.904913 321.114925 
L 227.759322 322.314721 
L 234.895343 325.194027 
L 237.749752 326.152314 
L 239.176957 326.669246 
L 242.031365 327.391043 
L 243.45857 327.641944 
L 244.885774 328.017667 
L 246.312978 328.146617 
L 247.740183 328.661951 
L 249.167387 328.794912 
L 250.594592 329.270003 
L 252.021796 329.509579 
L 253.449 329.54374 
L 257.730613 330.334282 
L 259.157818 330.686087 
L 260.585022 330.887001 
L 262.012227 331.204033 
L 263.439431 331.287361 
L 264.866635 331.49218 
L 266.29384 331.881606 
L 267.721044 331.674529 
L 269.148248 331.948762 
L 272.002657 332.27994 
L 274.857066 332.789608 
L 276.28427 332.835123 
L 277.711475 332.713204 
L 280.565883 332.894992 
L 281.993088 332.889595 
L 284.847497 333.15278 
L 296.265132 333.975095 
L 297.692336 333.986593 
L 300.546745 334.224026 
L 301.973949 334.117724 
L 309.109971 334.366339 
L 310.537175 334.466774 
L 311.96438 334.408309 
L 313.391584 334.517373 
L 314.818788 334.306161 
L 316.245993 334.565157 
L 317.673197 334.287532 
L 319.100402 334.275087 
L 320.527606 334.392985 
L 321.95481 334.143167 
L 323.382015 334.105711 
L 324.809219 334.230395 
L 327.663628 334.245971 
L 330.518037 334.321882 
L 331.945241 334.184985 
L 333.372445 333.930736 
L 334.79965 333.841688 
L 336.226854 333.983431 
L 337.654058 333.980727 
L 340.508467 334.392451 
L 341.935672 334.322819 
L 351.926102 334.833733 
L 353.353307 334.735283 
L 354.780511 334.749189 
L 357.63492 334.623686 
L 360.489328 334.828008 
L 363.343737 334.945378 
L 367.62535 334.879081 
L 369.052555 334.864669 
L 370.479759 334.606128 
L 373.334168 334.723958 
L 374.761372 334.508635 
L 376.188577 334.636662 
L 377.615781 334.542309 
L 379.042985 334.731927 
L 380.47019 334.54435 
L 381.897394 334.712156 
L 383.324598 334.599916 
L 384.751803 334.341232 
L 389.033416 334.649354 
L 393.315029 334.460394 
L 396.169438 334.686741 
L 399.023847 334.686264 
L 400.451051 334.880342 
L 407.587073 334.938528 
L 411.868686 335.3122 
L 413.29589 335.18596 
L 417.577503 335.489602 
L 420.431912 335.365029 
L 427.567934 335.059637 
L 428.995138 335.226164 
L 446.121591 335.112193 
L 447.548795 334.912046 
L 451.830408 334.964285 
L 453.257613 335.265322 
L 456.112022 335.342866 
L 457.539226 335.4193 
L 458.96643 335.38084 
L 460.393635 335.118706 
L 466.102452 335.152401 
L 467.529657 334.994562 
L 473.238474 335.189482 
L 474.665678 335.277948 
L 476.092883 335.133978 
L 478.947292 335.193088 
L 480.374496 335.331353 
L 483.228905 334.922302 
L 484.656109 335.030955 
L 487.510518 334.717948 
L 490.364927 334.697721 
L 491.792131 334.966382 
L 500.355357 335.272214 
L 501.782562 335.421219 
L 508.918583 335.499209 
L 514.627401 335.234914 
L 516.054605 335.236493 
L 517.48181 335.36067 
L 518.909014 335.277069 
L 520.336218 335.434301 
L 523.190627 335.421712 
L 528.899445 335.153166 
L 531.753853 335.419005 
L 533.181058 335.524306 
L 537.462671 335.068057 
L 540.31708 335.163865 
L 541.744284 335.183028 
L 543.171488 335.015574 
L 544.598693 334.583389 
L 548.880306 334.965638 
L 550.30751 334.904293 
L 553.161919 335.093222 
L 554.589123 334.881692 
L 556.016328 334.869363 
L 558.870737 335.061561 
L 560.297941 335.06901 
L 563.15235 334.899669 
L 564.579554 334.932905 
L 566.006758 334.77733 
L 567.433963 334.744789 
L 568.861167 335.026734 
L 575.997189 334.7875 
L 577.424393 334.950694 
L 585.98762 334.724733 
L 587.414824 334.73119 
L 588.842028 334.602672 
L 595.97805 334.73109 
L 597.405255 334.72998 
L 598.832459 334.853245 
L 600.259663 334.744083 
L 601.686868 334.964159 
L 604.541276 334.925533 
L 610.250094 335.259081 
L 617.386116 335.163787 
L 618.81332 335.015732 
L 620.240525 335.317314 
L 624.522138 334.960265 
L 625.949342 335.131399 
L 628.803751 335.028421 
L 634.512568 335.412059 
L 635.939773 335.464916 
L 635.939773 335.464916 
" clip-path="url(#p2b630baed5)" style="fill: none; stroke: #2ca02c; stroke-width: 1.2; stroke-linecap: square"/>
   </g>
   <g id="line2d_34">
    <path d="M 66.485227 95.661855 
L 67.912432 102.638109 
L 69.339636 103.547978 
L 70.76684 105.32664 
L 72.194045 101.500261 
L 73.621249 105.428733 
L 75.048454 111.594006 
L 76.475658 111.484951 
L 77.902862 118.096395 
L 79.330067 123.579761 
L 80.757271 126.752184 
L 82.184475 118.458577 
L 83.61168 118.065225 
L 85.038884 123.393643 
L 86.466089 132.117551 
L 87.893293 134.488825 
L 89.320497 117.08911 
L 90.747702 120.443903 
L 92.174906 126.418778 
L 93.60211 133.376659 
L 95.029315 137.610898 
L 96.456519 139.965379 
L 99.310928 149.753501 
L 100.738132 152.510269 
L 102.165337 157.771007 
L 103.592541 158.633236 
L 105.019745 160.673198 
L 106.44695 162.307025 
L 107.874154 162.192521 
L 109.301359 165.14982 
L 110.728563 167.771217 
L 112.155767 170.737355 
L 113.582972 176.053264 
L 116.43738 191.573839 
L 119.291789 205.653838 
L 122.146198 218.275394 
L 125.000607 229.659861 
L 127.855015 240.080488 
L 129.28222 245.048156 
L 130.709424 249.551693 
L 133.563833 257.391397 
L 137.845446 267.9656 
L 140.699855 274.643036 
L 143.554263 280.542494 
L 146.408672 286.128805 
L 149.263081 290.674508 
L 150.690285 292.579277 
L 153.544694 297.035175 
L 154.971898 298.890962 
L 156.399103 300.500616 
L 159.253512 304.122505 
L 162.10792 307.270742 
L 163.535125 308.792288 
L 166.389533 311.330241 
L 169.243942 313.242844 
L 173.525555 316.60861 
L 174.95276 317.756669 
L 176.379964 318.696838 
L 177.807168 319.410982 
L 179.234373 318.866905 
L 180.661577 319.502568 
L 182.088782 320.470642 
L 186.370395 322.323738 
L 189.224803 323.556987 
L 190.652008 323.92273 
L 193.506417 325.05642 
L 194.933621 325.449111 
L 196.360825 325.998735 
L 199.215234 326.795654 
L 204.924052 328.316899 
L 207.77846 328.861551 
L 210.632869 329.379669 
L 212.060073 329.729464 
L 213.487278 329.873949 
L 216.341687 330.490355 
L 219.196095 330.720367 
L 222.050504 331.59058 
L 223.477708 331.868838 
L 224.904913 331.954011 
L 226.332117 331.889821 
L 227.759322 332.167061 
L 229.186526 331.34759 
L 230.61373 331.532449 
L 232.040935 331.371041 
L 234.895343 331.75992 
L 236.322548 331.615501 
L 237.749752 331.828351 
L 242.031365 331.812348 
L 244.885774 331.993914 
L 247.740183 332.142193 
L 250.594592 332.147033 
L 253.449 332.397134 
L 256.303409 332.692 
L 257.730613 332.660314 
L 259.157818 332.80932 
L 260.585022 332.512063 
L 263.439431 332.58858 
L 267.721044 333.133913 
L 269.148248 332.184095 
L 272.002657 332.717235 
L 277.711475 333.104098 
L 279.138679 333.311709 
L 280.565883 333.151428 
L 281.993088 332.01015 
L 284.847497 332.406913 
L 289.12911 332.387912 
L 290.556314 332.515101 
L 293.410723 332.380841 
L 296.265132 332.791725 
L 297.692336 332.750732 
L 301.973949 333.391922 
L 303.401153 333.294269 
L 304.828358 333.448404 
L 307.682767 333.506567 
L 310.537175 333.889143 
L 313.391584 334.399013 
L 316.245993 334.483064 
L 317.673197 334.667726 
L 319.100402 334.29672 
L 320.527606 334.438795 
L 321.95481 334.275951 
L 326.236423 334.547063 
L 327.663628 334.415567 
L 329.090832 334.527499 
L 330.518037 334.489473 
L 331.945241 334.596501 
L 333.372445 333.1605 
L 334.79965 333.161768 
L 336.226854 333.430174 
L 339.081263 333.500997 
L 340.508467 333.423213 
L 341.935672 333.558876 
L 347.644489 333.710503 
L 354.780511 334.149933 
L 356.207715 334.169961 
L 357.63492 333.746155 
L 359.062124 333.867796 
L 363.343737 333.974499 
L 366.198146 334.190581 
L 367.62535 334.243848 
L 369.052555 334.183924 
L 370.479759 333.94539 
L 371.906963 334.030014 
L 373.334168 333.93664 
L 374.761372 334.077877 
L 376.188577 333.983636 
L 384.751803 334.358329 
L 386.179007 334.207351 
L 391.887825 334.348167 
L 397.596642 334.515394 
L 399.023847 334.11061 
L 401.878255 334.250303 
L 404.732664 334.59272 
L 406.159868 334.459493 
L 409.014277 334.335143 
L 410.441482 332.408627 
L 411.868686 332.482018 
L 414.723095 332.935984 
L 423.286321 334.197426 
L 424.713525 334.203788 
L 433.276752 334.898229 
L 437.558365 334.73513 
L 438.985569 334.752893 
L 440.412773 334.649604 
L 441.839978 334.740016 
L 443.267182 334.697456 
L 447.548795 335.13975 
L 450.403204 335.115488 
L 451.830408 335.006138 
L 456.112022 335.180369 
L 457.539226 334.970627 
L 458.96643 334.912967 
L 461.820839 335.068787 
L 467.529657 334.905657 
L 468.956861 334.966867 
L 470.384065 334.700028 
L 473.238474 334.872432 
L 474.665678 334.895085 
L 476.092883 334.130369 
L 478.947292 334.476492 
L 480.374496 334.278482 
L 484.656109 334.60973 
L 487.510518 334.526497 
L 488.937722 334.608855 
L 490.364927 334.382506 
L 491.792131 334.329101 
L 494.64654 334.486711 
L 496.073744 334.232072 
L 497.500948 334.146622 
L 498.928153 334.262746 
L 500.355357 334.495175 
L 501.782562 334.531828 
L 503.209766 334.292735 
L 504.63697 334.241068 
L 506.064175 334.361882 
L 507.491379 334.267284 
L 508.918583 334.366854 
L 511.772992 334.788262 
L 513.200197 334.694378 
L 514.627401 334.785103 
L 516.054605 334.488795 
L 518.909014 334.49843 
L 523.190627 334.568544 
L 527.47224 334.544896 
L 530.326649 334.519916 
L 533.181058 334.468916 
L 536.035467 334.548255 
L 538.889875 334.777792 
L 541.744284 334.624604 
L 543.171488 334.830049 
L 548.880306 334.879302 
L 554.589123 335.193773 
L 556.016328 335.155223 
L 558.870737 335.281546 
L 561.725145 335.047074 
L 578.851598 335.301214 
L 580.278802 335.454224 
L 581.706006 335.36019 
L 583.133211 335.448033 
L 585.98762 335.305496 
L 587.414824 335.156113 
L 588.842028 335.296108 
L 591.696437 335.229537 
L 593.123641 335.437782 
L 594.550846 335.213898 
L 597.405255 335.170053 
L 601.686868 335.41803 
L 603.114072 335.398565 
L 604.541276 334.374283 
L 605.968481 334.471222 
L 607.395685 327.925329 
L 611.677298 329.261812 
L 613.104503 328.730778 
L 614.531707 329.132078 
L 615.958911 329.356921 
L 617.386116 329.835942 
L 621.667729 330.453852 
L 623.094933 330.601924 
L 624.522138 330.625861 
L 625.949342 330.820808 
L 627.376546 331.171619 
L 630.230955 331.405999 
L 634.512568 332.076476 
L 635.939773 332.238505 
L 635.939773 332.238505 
" clip-path="url(#p2b630baed5)" style="fill: none; stroke: #d62728; stroke-width: 1.2; stroke-linecap: square"/>
   </g>
   <g id="line2d_35">
    <path d="M 66.485227 162.540654 
L 67.912432 164.649653 
L 69.339636 164.13563 
L 70.76684 170.917037 
L 72.194045 176.513476 
L 73.621249 184.189936 
L 75.048454 189.23805 
L 79.330067 209.495228 
L 80.757271 213.347479 
L 83.61168 224.942735 
L 86.466089 235.477616 
L 89.320497 245.265936 
L 90.747702 249.863259 
L 96.456519 264.903209 
L 99.310928 271.664564 
L 102.165337 277.723101 
L 103.592541 279.573846 
L 107.874154 287.541197 
L 110.728563 292.128789 
L 115.010176 298.549545 
L 117.864585 302.287031 
L 119.291789 303.980573 
L 120.718994 305.456529 
L 122.146198 306.724166 
L 123.573402 308.36529 
L 127.855015 312.202971 
L 130.709424 314.61404 
L 132.136629 315.33073 
L 134.991037 317.43655 
L 136.418242 318.19244 
L 137.845446 319.258556 
L 140.699855 320.856947 
L 142.127059 320.022719 
L 144.981468 321.641367 
L 146.408672 322.377785 
L 147.835877 322.821665 
L 149.263081 323.534057 
L 154.971898 325.809338 
L 156.399103 326.202692 
L 157.826307 326.44447 
L 160.680716 327.261531 
L 162.10792 327.714392 
L 163.535125 327.955624 
L 164.962329 328.376998 
L 167.816738 328.509669 
L 176.379964 330.283865 
L 177.807168 330.655752 
L 179.234373 330.823412 
L 184.94319 331.001604 
L 190.652008 331.820975 
L 192.079212 331.906635 
L 197.78803 332.764595 
L 202.069643 332.958882 
L 203.496847 333.268476 
L 206.351256 333.585556 
L 207.77846 333.689805 
L 209.205665 333.581036 
L 210.632869 333.734526 
L 212.060073 333.774165 
L 213.487278 334.015907 
L 219.196095 334.042934 
L 220.6233 333.753806 
L 227.759322 333.97989 
L 230.61373 334.335519 
L 234.895343 334.31554 
L 236.322548 334.493628 
L 240.604161 334.522849 
L 247.740183 334.546057 
L 249.167387 334.46989 
L 250.594592 334.653917 
L 252.021796 334.581203 
L 257.730613 334.899925 
L 264.866635 334.866118 
L 266.29384 334.6224 
L 269.148248 334.647712 
L 270.575453 334.872575 
L 273.429862 334.732233 
L 274.857066 334.74676 
L 276.28427 333.104174 
L 279.138679 333.513981 
L 280.565883 333.267979 
L 287.701905 333.507332 
L 289.12911 333.285601 
L 290.556314 333.396732 
L 291.983518 333.195534 
L 294.837927 333.351646 
L 296.265132 333.284974 
L 297.692336 333.414683 
L 299.11954 333.295041 
L 300.546745 333.424392 
L 301.973949 333.172317 
L 304.828358 333.425891 
L 307.682767 333.87887 
L 310.537175 333.933581 
L 311.96438 334.204512 
L 314.818788 334.234205 
L 316.245993 334.261474 
L 317.673197 334.454709 
L 319.100402 334.498635 
L 320.527606 334.253405 
L 321.95481 334.449857 
L 326.236423 334.632542 
L 330.518037 334.731631 
L 331.945241 334.549076 
L 333.372445 334.533814 
L 334.79965 334.406603 
L 336.226854 334.537364 
L 337.654058 333.079699 
L 339.081263 333.273791 
L 340.508467 333.106913 
L 341.935672 333.377846 
L 344.79008 333.593467 
L 350.498898 333.857254 
L 351.926102 334.003843 
L 353.353307 330.557163 
L 354.780511 330.743424 
L 356.207715 331.087124 
L 357.63492 331.086426 
L 360.489328 331.389946 
L 361.916533 331.464729 
L 364.770942 331.899815 
L 366.198146 331.944565 
L 367.62535 332.160022 
L 369.052555 329.203986 
L 370.479759 329.602272 
L 374.761372 330.22329 
L 377.615781 330.691039 
L 379.042985 330.665517 
L 387.606212 332.135127 
L 389.033416 331.90158 
L 390.46062 332.100537 
L 393.315029 332.276268 
L 394.742233 332.542344 
L 396.169438 332.559503 
L 397.596642 332.327517 
L 409.014277 333.390505 
L 410.441482 333.424587 
L 411.868686 333.61969 
L 413.29589 333.489468 
L 414.723095 333.523906 
L 416.150299 333.700466 
L 417.577503 333.559216 
L 419.004708 332.255708 
L 424.713525 332.80327 
L 427.567934 332.45753 
L 428.995138 332.805715 
L 430.422343 333.005214 
L 431.849547 333.350596 
L 433.276752 333.377977 
L 434.703956 333.671671 
L 436.13116 333.678446 
L 437.558365 333.860928 
L 438.985569 333.740683 
L 441.839978 334.064676 
L 444.694387 333.946342 
L 446.121591 333.963961 
L 448.976 334.252651 
L 456.112022 334.710795 
L 457.539226 334.598582 
L 460.393635 334.90175 
L 461.820839 334.803393 
L 463.248043 334.849164 
L 466.102452 335.135614 
L 467.529657 335.231229 
L 470.384065 335.175586 
L 471.81127 335.282818 
L 474.665678 335.209611 
L 476.092883 335.198794 
L 477.520087 333.254253 
L 478.947292 331.976812 
L 480.374496 332.118878 
L 481.8017 331.015709 
L 486.083313 331.227398 
L 488.937722 331.616023 
L 490.364927 332.073734 
L 491.792131 332.211623 
L 493.219335 332.132835 
L 496.073744 332.494512 
L 498.928153 333.064962 
L 500.355357 333.090527 
L 503.209766 333.394446 
L 504.63697 333.320715 
L 506.064175 333.477784 
L 508.918583 333.374136 
L 510.345788 333.502545 
L 511.772992 333.75308 
L 514.627401 333.559348 
L 516.054605 333.158244 
L 517.48181 333.280548 
L 520.336218 333.23433 
L 523.190627 333.565456 
L 524.617832 333.313147 
L 526.045036 333.289798 
L 527.47224 333.418164 
L 528.899445 333.122656 
L 530.326649 333.196495 
L 531.753853 332.988669 
L 533.181058 332.948948 
L 536.035467 333.214533 
L 537.462671 333.327548 
L 540.31708 333.242351 
L 543.171488 333.535536 
L 546.025897 333.529393 
L 547.453102 333.470154 
L 551.734715 333.666798 
L 556.016328 333.898798 
L 558.870737 333.687927 
L 561.725145 334.078987 
L 564.579554 334.596512 
L 566.006758 334.518258 
L 567.433963 334.695929 
L 568.861167 334.570692 
L 581.706006 334.568443 
L 583.133211 334.714835 
L 585.98762 334.475754 
L 588.842028 334.861458 
L 591.696437 334.811996 
L 600.259663 335.094076 
L 601.686868 335.248041 
L 603.114072 335.216731 
L 604.541276 335.304412 
L 607.395685 335.155181 
L 608.82289 335.28533 
L 614.531707 335.121105 
L 615.958911 335.191216 
L 617.386116 334.944688 
L 618.81332 333.906685 
L 624.522138 334.25305 
L 625.949342 334.24548 
L 630.230955 334.498171 
L 631.65816 332.812239 
L 634.512568 333.286678 
L 634.512568 333.286678 
" clip-path="url(#p2b630baed5)" style="fill: none; stroke: #9b8ac9; stroke-width: 1.2; stroke-linecap: square"/>
   </g>
   <g id="patch_3">
    <path d="M 38.0125 349.8636 
L 38.0125 34.5036 
" style="fill: none; stroke: #000000; stroke-width: 0.8; stroke-linejoin: miter; stroke-linecap: square"/>
   </g>
   <g id="patch_4">
    <path d="M 664.4125 349.8636 
L 664.4125 34.5036 
" style="fill: none; stroke: #000000; stroke-width: 0.8; stroke-linejoin: miter; stroke-linecap: square"/>
   </g>
   <g id="patch_5">
    <path d="M 38.0125 349.8636 
L 664.4125 349.8636 
" style="fill: none; stroke: #000000; stroke-width: 0.8; stroke-linejoin: miter; stroke-linecap: square"/>
   </g>
   <g id="patch_6">
    <path d="M 38.0125 34.5036 
L 664.4125 34.5036 
" style="fill: none; stroke: #000000; stroke-width: 0.8; stroke-linejoin: miter; stroke-linecap: square"/>
   </g>
   <g id="legend_1">
    <g id="patch_7">
     <path d="M 38.0125 31.35 
L 664.4125 31.35 
L 664.4125 7.2 
L 38.0125 7.2 
z
" style="fill: #ffffff; stroke: #808080; stroke-width: 0.8; stroke-linejoin: miter"/>
    </g>
    <g id="line2d_36">
     <path d="M 44.3125 18.4 
L 58.3125 18.4 
L 72.3125 18.4 
" style="fill: none; stroke: #1f77b4; stroke-width: 1.2; stroke-linecap: square"/>
    </g>
    <g id="text_18">
     <!-- DDPG -->
     <g transform="translate(80.7125 23.3) scale(0.14 -0.14)">
      <defs>
       <path id="SimHei-44" d="M 2925 2250 
Q 2925 1100 2437 612 
Q 1950 125 1125 125 
L 275 125 
L 275 4400 
L 1125 4400 
Q 2050 4400 2487 3900 
Q 2925 3400 2925 2250 
z
M 2325 2250 
Q 2325 3175 2025 3550 
Q 1725 3925 1125 3925 
L 850 3925 
L 850 600 
L 1125 600 
Q 1725 600 2025 962 
Q 2325 1325 2325 2250 
z
" transform="scale(0.015625)"/>
       <path id="SimHei-50" d="M 2950 3100 
Q 2950 2500 2600 2150 
Q 2250 1800 1625 1800 
L 900 1800 
L 900 125 
L 325 125 
L 325 4400 
L 1625 4400 
Q 2250 4400 2600 4050 
Q 2950 3700 2950 3100 
z
M 2375 3100 
Q 2375 3575 2150 3750 
Q 1925 3925 1475 3925 
L 900 3925 
L 900 2275 
L 1475 2275 
Q 1925 2275 2150 2450 
Q 2375 2625 2375 3100 
z
" transform="scale(0.015625)"/>
       <path id="SimHei-47" d="M 2850 75 
L 2425 75 
L 2350 425 
Q 2250 275 2037 175 
Q 1825 75 1575 75 
Q 1050 75 637 562 
Q 225 1050 225 2125 
Q 225 3300 600 3875 
Q 975 4450 1625 4450 
Q 2200 4450 2525 4025 
Q 2850 3600 2850 2925 
L 2300 2925 
Q 2300 3450 2125 3712 
Q 1950 3975 1625 3975 
Q 1225 3975 1025 3562 
Q 825 3150 825 2175 
Q 825 1250 1075 900 
Q 1325 550 1650 550 
Q 1975 550 2162 787 
Q 2350 1025 2350 1525 
L 2350 1800 
L 1575 1800 
L 1575 2275 
L 2850 2275 
L 2850 75 
z
" transform="scale(0.015625)"/>
      </defs>
      <use xlink:href="#SimHei-44"/>
      <use xlink:href="#SimHei-44" transform="translate(50 0)"/>
      <use xlink:href="#SimHei-50" transform="translate(100 0)"/>
      <use xlink:href="#SimHei-47" transform="translate(150 0)"/>
     </g>
    </g>
    <g id="line2d_37">
     <path d="M 174.6625 18.4 
L 188.6625 18.4 
L 202.6625 18.4 
" style="fill: none; stroke: #ff7f0e; stroke-width: 1.2; stroke-linecap: square"/>
    </g>
    <g id="text_19">
     <!-- PPO -->
     <g transform="translate(211.0625 23.3) scale(0.14 -0.14)">
      <defs>
       <path id="SimHei-4f" d="M 2950 2275 
Q 2950 1100 2587 587 
Q 2225 75 1575 75 
Q 925 75 550 587 
Q 175 1100 175 2275 
Q 175 3450 550 3950 
Q 925 4450 1575 4450 
Q 2225 4450 2587 3950 
Q 2950 3450 2950 2275 
z
M 2350 2275 
Q 2350 3325 2125 3650 
Q 1900 3975 1575 3975 
Q 1250 3975 1012 3650 
Q 775 3325 775 2275 
Q 775 1225 1012 887 
Q 1250 550 1575 550 
Q 1900 550 2125 887 
Q 2350 1225 2350 2275 
z
" transform="scale(0.015625)"/>
      </defs>
      <use xlink:href="#SimHei-50"/>
      <use xlink:href="#SimHei-50" transform="translate(50 0)"/>
      <use xlink:href="#SimHei-4f" transform="translate(100 0)"/>
     </g>
    </g>
    <g id="line2d_38">
     <path d="M 298.0125 18.4 
L 312.0125 18.4 
L 326.0125 18.4 
" style="fill: none; stroke: #2ca02c; stroke-width: 1.2; stroke-linecap: square"/>
    </g>
    <g id="text_20">
     <!-- TD3 -->
     <g transform="translate(334.4125 23.3) scale(0.14 -0.14)">
      <use xlink:href="#SimHei-54"/>
      <use xlink:href="#SimHei-44" transform="translate(50 0)"/>
      <use xlink:href="#SimHei-33" transform="translate(100 0)"/>
     </g>
    </g>
    <g id="line2d_39">
     <path d="M 421.3625 18.4 
L 435.3625 18.4 
L 449.3625 18.4 
" style="fill: none; stroke: #d62728; stroke-width: 1.2; stroke-linecap: square"/>
    </g>
    <g id="text_21">
     <!-- GCN-DDQN -->
     <g transform="translate(457.7625 23.3) scale(0.14 -0.14)">
      <defs>
       <path id="SimHei-43" d="M 2975 1825 
Q 2950 875 2575 475 
Q 2200 75 1675 75 
Q 1075 75 650 562 
Q 225 1050 225 2125 
Q 225 3300 637 3875 
Q 1050 4450 1700 4450 
Q 2250 4450 2612 4037 
Q 2975 3625 2950 2875 
L 2400 2875 
Q 2400 3425 2225 3700 
Q 2050 3975 1700 3975 
Q 1300 3975 1062 3562 
Q 825 3150 825 2175 
Q 825 1275 1062 912 
Q 1300 550 1675 550 
Q 1950 550 2175 812 
Q 2400 1075 2400 1825 
L 2975 1825 
z
" transform="scale(0.015625)"/>
       <path id="SimHei-4e" d="M 2850 125 
L 2225 125 
L 850 3225 
L 825 3225 
L 825 125 
L 250 125 
L 250 4400 
L 875 4400 
L 2250 1300 
L 2275 1300 
L 2275 4400 
L 2850 4400 
L 2850 125 
z
" transform="scale(0.015625)"/>
       <path id="SimHei-2d" d="M 2975 2125 
L 125 2125 
L 125 2525 
L 2975 2525 
L 2975 2125 
z
" transform="scale(0.015625)"/>
       <path id="SimHei-51" d="M 2950 2275 
Q 2950 1675 2862 1262 
Q 2775 850 2575 600 
L 2775 225 
L 2375 -200 
L 2150 225 
Q 2050 150 1900 112 
Q 1750 75 1575 75 
Q 925 75 550 587 
Q 175 1100 175 2275 
Q 175 3450 550 3950 
Q 925 4450 1575 4450 
Q 2225 4450 2587 3950 
Q 2950 3450 2950 2275 
z
M 2350 2275 
Q 2350 3325 2125 3650 
Q 1900 3975 1575 3975 
Q 1250 3975 1012 3650 
Q 775 3325 775 2275 
Q 775 1225 1012 887 
Q 1250 550 1575 550 
Q 1700 550 1800 587 
Q 1900 625 1950 675 
L 1550 1450 
L 1900 1875 
L 2250 1200 
Q 2300 1450 2325 1650 
Q 2350 1850 2350 2275 
z
" transform="scale(0.015625)"/>
      </defs>
      <use xlink:href="#SimHei-47"/>
      <use xlink:href="#SimHei-43" transform="translate(50 0)"/>
      <use xlink:href="#SimHei-4e" transform="translate(100 0)"/>
      <use xlink:href="#SimHei-2d" transform="translate(150 0)"/>
      <use xlink:href="#SimHei-44" transform="translate(200 0)"/>
      <use xlink:href="#SimHei-44" transform="translate(250 0)"/>
      <use xlink:href="#SimHei-51" transform="translate(300 0)"/>
      <use xlink:href="#SimHei-4e" transform="translate(350 0)"/>
     </g>
    </g>
    <g id="line2d_40">
     <path d="M 579.7125 18.4 
L 593.7125 18.4 
L 607.7125 18.4 
" style="fill: none; stroke: #9b8ac9; stroke-width: 1.2; stroke-linecap: square"/>
    </g>
    <g id="text_22">
     <!-- GLDVTO -->
     <g transform="translate(616.1125 23.3) scale(0.14 -0.14)">
      <defs>
       <path id="SimHei-4c" d="M 2900 125 
L 300 125 
L 300 4400 
L 875 4400 
L 875 600 
L 2900 600 
L 2900 125 
z
" transform="scale(0.015625)"/>
       <path id="SimHei-56" d="M 3050 4400 
L 1800 75 
L 1300 75 
L 50 4400 
L 650 4400 
L 1525 1125 
L 1575 1125 
L 2450 4400 
L 3050 4400 
z
" transform="scale(0.015625)"/>
      </defs>
      <use xlink:href="#SimHei-47"/>
      <use xlink:href="#SimHei-4c" transform="translate(50 0)"/>
      <use xlink:href="#SimHei-44" transform="translate(100 0)"/>
      <use xlink:href="#SimHei-56" transform="translate(150 0)"/>
      <use xlink:href="#SimHei-54" transform="translate(200 0)"/>
      <use xlink:href="#SimHei-4f" transform="translate(250 0)"/>
     </g>
    </g>
   </g>
  </g>
 </g>
 <defs>
  <clipPath id="p2b630baed5">
   <rect x="38.0125" y="34.5036" width="626.4" height="315.36"/>
  </clipPath>
 </defs>
</svg>
