<?xml version="1.0" encoding="utf-8" standalone="no"?>
<!DOCTYPE svg PUBLIC "-//W3C//DTD SVG 1.1//EN"
  "http://www.w3.org/Graphics/SVG/1.1/DTD/svg11.dtd">
<svg xmlns:xlink="http://www.w3.org/1999/xlink" width="602.4pt" height="397.915pt" viewBox="0 0 602.4 397.915" xmlns="http://www.w3.org/2000/svg" version="1.1">
 <metadata>
  <rdf:RDF xmlns:dc="http://purl.org/dc/elements/1.1/" xmlns:cc="http://creativecommons.org/ns#" xmlns:rdf="http://www.w3.org/1999/02/22-rdf-syntax-ns#">
   <cc:Work>
    <dc:type rdf:resource="http://purl.org/dc/dcmitype/StillImage"/>
    <dc:date>2026-06-26T17:53:36.575288</dc:date>
    <dc:format>image/svg+xml</dc:format>
    <dc:creator>
     <cc:Agent>
      <dc:title>Matplotlib v3.10.7, https://matplotlib.org/</dc:title>
     </cc:Agent>
    </dc:creator>
   </cc:Work>
  </rdf:RDF>
 </metadata>
 <defs>
  <style type="text/css">*{stroke-linejoin: round; stroke-linecap: butt}</style>
 </defs>
 <g id="figure_1">
  <g id="patch_1">
   <path d="M 0 397.915 
L 602.4 397.915 
L 602.4 -0 
L 0 -0 
z
" style="fill: #ffffff"/>
  </g>
  <g id="axes_1">
   <g id="patch_2">
    <path d="M 37.2 356.965 
L 595.2 356.965 
L 595.2 24.325 
L 37.2 24.325 
z
" style="fill: #ffffff"/>
   </g>
   <g id="matplotlib.axis_1">
    <g id="xtick_1">
     <g id="line2d_1">
      <path d="M 62.563636 356.965 
L 62.563636 24.325 
" clip-path="url(#p1c9fedbc88)" style="fill: none; stroke: #b0b0b0; stroke-opacity: 0.3; stroke-width: 0.8; stroke-linecap: square"/>
     </g>
     <g id="line2d_2">
      <defs>
       <path id="m8d5f65562d" d="M 0 0 
L 0 3.5 
" style="stroke: #000000; stroke-width: 0.8"/>
      </defs>
      <g>
       <use xlink:href="#m8d5f65562d" x="62.563636" y="356.965" style="stroke: #000000; stroke-width: 0.8"/>
      </g>
     </g>
     <g id="text_1">
      <!-- 0 -->
      <g transform="translate(59.563636 372.215) scale(0.12 -0.12)">
       <defs>
        <path id="SimHei-30" d="M 225 2537 
Q 250 3200 412 3587 
Q 575 3975 875 4225 
Q 1175 4475 1612 4475 
Q 2050 4475 2375 4112 
Q 2700 3750 2800 3200 
Q 2900 2650 2862 1937 
Q 2825 1225 2612 775 
Q 2400 325 1975 150 
Q 1550 -25 1125 187 
Q 700 400 525 750 
Q 350 1100 275 1487 
Q 200 1875 225 2537 
z
M 750 2687 
Q 675 2000 800 1462 
Q 925 925 1212 700 
Q 1500 475 1800 612 
Q 2100 750 2237 1162 
Q 2375 1575 2375 2062 
Q 2375 2550 2337 2950 
Q 2300 3350 2112 3675 
Q 1925 4000 1612 4012 
Q 1300 4025 1062 3700 
Q 825 3375 750 2687 
z
" transform="scale(0.015625)"/>
       </defs>
       <use xlink:href="#SimHei-30"/>
      </g>
     </g>
    </g>
    <g id="xtick_2">
     <g id="line2d_3">
      <path d="M 126.131647 356.965 
L 126.131647 24.325 
" clip-path="url(#p1c9fedbc88)" style="fill: none; stroke: #b0b0b0; stroke-opacity: 0.3; stroke-width: 0.8; stroke-linecap: square"/>
     </g>
     <g id="line2d_4">
      <g>
       <use xlink:href="#m8d5f65562d" x="126.131647" y="356.965" style="stroke: #000000; stroke-width: 0.8"/>
      </g>
     </g>
     <g id="text_2">
      <!-- 50 -->
      <g transform="translate(120.131647 372.215) scale(0.12 -0.12)">
       <defs>
        <path id="SimHei-35" d="M 550 1325 
Q 725 650 1150 575 
Q 1575 500 1837 662 
Q 2100 825 2212 1087 
Q 2325 1350 2312 1675 
Q 2300 2000 2137 2225 
Q 1975 2450 1725 2525 
Q 1475 2600 1162 2525 
Q 850 2450 650 2175 
L 225 2225 
Q 275 2375 700 4375 
L 2675 4375 
L 2675 3925 
L 1075 3925 
Q 950 3250 825 2850 
Q 1200 3025 1525 3012 
Q 1850 3000 2150 2862 
Q 2450 2725 2587 2487 
Q 2725 2250 2787 2012 
Q 2850 1775 2837 1500 
Q 2825 1225 2725 937 
Q 2625 650 2425 462 
Q 2225 275 1937 162 
Q 1650 50 1275 75 
Q 900 100 562 350 
Q 225 600 100 1200 
L 550 1325 
z
" transform="scale(0.015625)"/>
       </defs>
       <use xlink:href="#SimHei-35"/>
       <use xlink:href="#SimHei-30" transform="translate(50 0)"/>
      </g>
     </g>
    </g>
    <g id="xtick_3">
     <g id="line2d_5">
      <path d="M 189.699658 356.965 
L 189.699658 24.325 
" clip-path="url(#p1c9fedbc88)" style="fill: none; stroke: #b0b0b0; stroke-opacity: 0.3; stroke-width: 0.8; stroke-linecap: square"/>
     </g>
     <g id="line2d_6">
      <g>
       <use xlink:href="#m8d5f65562d" x="189.699658" y="356.965" style="stroke: #000000; stroke-width: 0.8"/>
      </g>
     </g>
     <g id="text_3">
      <!-- 100 -->
      <g transform="translate(180.699658 372.215) scale(0.12 -0.12)">
       <defs>
        <path id="SimHei-31" d="M 1400 3600 
Q 1075 3275 575 2975 
L 575 3450 
Q 1200 3875 1600 4450 
L 1900 4450 
L 1900 150 
L 1400 150 
L 1400 3600 
z
" transform="scale(0.015625)"/>
       </defs>
       <use xlink:href="#SimHei-31"/>
       <use xlink:href="#SimHei-30" transform="translate(50 0)"/>
       <use xlink:href="#SimHei-30" transform="translate(100 0)"/>
      </g>
     </g>
    </g>
    <g id="xtick_4">
     <g id="line2d_7">
      <path d="M 253.267669 356.965 
L 253.267669 24.325 
" clip-path="url(#p1c9fedbc88)" style="fill: none; stroke: #b0b0b0; stroke-opacity: 0.3; stroke-width: 0.8; stroke-linecap: square"/>
     </g>
     <g id="line2d_8">
      <g>
       <use xlink:href="#m8d5f65562d" x="253.267669" y="356.965" style="stroke: #000000; stroke-width: 0.8"/>
      </g>
     </g>
     <g id="text_4">
      <!-- 150 -->
      <g transform="translate(244.267669 372.215) scale(0.12 -0.12)">
       <use xlink:href="#SimHei-31"/>
       <use xlink:href="#SimHei-35" transform="translate(50 0)"/>
       <use xlink:href="#SimHei-30" transform="translate(100 0)"/>
      </g>
     </g>
    </g>
    <g id="xtick_5">
     <g id="line2d_9">
      <path d="M 316.83568 356.965 
L 316.83568 24.325 
" clip-path="url(#p1c9fedbc88)" style="fill: none; stroke: #b0b0b0; stroke-opacity: 0.3; stroke-width: 0.8; stroke-linecap: square"/>
     </g>
     <g id="line2d_10">
      <g>
       <use xlink:href="#m8d5f65562d" x="316.83568" y="356.965" style="stroke: #000000; stroke-width: 0.8"/>
      </g>
     </g>
     <g id="text_5">
      <!-- 200 -->
      <g transform="translate(307.83568 372.215) scale(0.12 -0.12)">
       <defs>
        <path id="SimHei-32" d="M 300 250 
Q 325 625 650 925 
Q 975 1225 1475 1862 
Q 1975 2500 2125 2850 
Q 2275 3200 2237 3450 
Q 2200 3700 2000 3862 
Q 1800 4025 1537 4000 
Q 1275 3975 1037 3800 
Q 800 3625 675 3275 
L 200 3350 
Q 400 3925 712 4187 
Q 1025 4450 1450 4475 
Q 1700 4500 1900 4462 
Q 2100 4425 2312 4287 
Q 2525 4150 2662 3875 
Q 2800 3600 2762 3212 
Q 2725 2825 2375 2287 
Q 2025 1750 1025 600 
L 2825 600 
L 2825 150 
L 300 150 
L 300 250 
z
" transform="scale(0.015625)"/>
       </defs>
       <use xlink:href="#SimHei-32"/>
       <use xlink:href="#SimHei-30" transform="translate(50 0)"/>
       <use xlink:href="#SimHei-30" transform="translate(100 0)"/>
      </g>
     </g>
    </g>
    <g id="xtick_6">
     <g id="line2d_11">
      <path d="M 380.403691 356.965 
L 380.403691 24.325 
" clip-path="url(#p1c9fedbc88)" style="fill: none; stroke: #b0b0b0; stroke-opacity: 0.3; stroke-width: 0.8; stroke-linecap: square"/>
     </g>
     <g id="line2d_12">
      <g>
       <use xlink:href="#m8d5f65562d" x="380.403691" y="356.965" style="stroke: #000000; stroke-width: 0.8"/>
      </g>
     </g>
     <g id="text_6">
      <!-- 250 -->
      <g transform="translate(371.403691 372.215) scale(0.12 -0.12)">
       <use xlink:href="#SimHei-32"/>
       <use xlink:href="#SimHei-35" transform="translate(50 0)"/>
       <use xlink:href="#SimHei-30" transform="translate(100 0)"/>
      </g>
     </g>
    </g>
    <g id="xtick_7">
     <g id="line2d_13">
      <path d="M 443.971702 356.965 
L 443.971702 24.325 
" clip-path="url(#p1c9fedbc88)" style="fill: none; stroke: #b0b0b0; stroke-opacity: 0.3; stroke-width: 0.8; stroke-linecap: square"/>
     </g>
     <g id="line2d_14">
      <g>
       <use xlink:href="#m8d5f65562d" x="443.971702" y="356.965" style="stroke: #000000; stroke-width: 0.8"/>
      </g>
     </g>
     <g id="text_7">
      <!-- 300 -->
      <g transform="translate(434.971702 372.215) scale(0.12 -0.12)">
       <defs>
        <path id="SimHei-33" d="M 250 1225 
L 700 1300 
Q 800 975 1025 762 
Q 1250 550 1587 562 
Q 1925 575 2125 837 
Q 2325 1100 2300 1437 
Q 2275 1775 2037 1962 
Q 1800 2150 1275 2225 
L 1275 2550 
Q 1800 2600 2037 2825 
Q 2275 3050 2250 3412 
Q 2225 3775 1925 3937 
Q 1625 4100 1287 3975 
Q 950 3850 750 3275 
L 300 3350 
Q 450 3800 712 4100 
Q 975 4400 1425 4450 
Q 1875 4500 2212 4337 
Q 2550 4175 2687 3837 
Q 2825 3500 2725 3100 
Q 2625 2700 2150 2400 
Q 2500 2250 2687 1950 
Q 2875 1650 2812 1162 
Q 2750 675 2375 375 
Q 2000 75 1525 87 
Q 1050 100 700 387 
Q 350 675 250 1225 
z
" transform="scale(0.015625)"/>
       </defs>
       <use xlink:href="#SimHei-33"/>
       <use xlink:href="#SimHei-30" transform="translate(50 0)"/>
       <use xlink:href="#SimHei-30" transform="translate(100 0)"/>
      </g>
     </g>
    </g>
    <g id="xtick_8">
     <g id="line2d_15">
      <path d="M 507.539713 356.965 
L 507.539713 24.325 
" clip-path="url(#p1c9fedbc88)" style="fill: none; stroke: #b0b0b0; stroke-opacity: 0.3; stroke-width: 0.8; stroke-linecap: square"/>
     </g>
     <g id="line2d_16">
      <g>
       <use xlink:href="#m8d5f65562d" x="507.539713" y="356.965" style="stroke: #000000; stroke-width: 0.8"/>
      </g>
     </g>
     <g id="text_8">
      <!-- 350 -->
      <g transform="translate(498.539713 372.215) scale(0.12 -0.12)">
       <use xlink:href="#SimHei-33"/>
       <use xlink:href="#SimHei-35" transform="translate(50 0)"/>
       <use xlink:href="#SimHei-30" transform="translate(100 0)"/>
      </g>
     </g>
    </g>
    <g id="xtick_9">
     <g id="line2d_17">
      <path d="M 571.107724 356.965 
L 571.107724 24.325 
" clip-path="url(#p1c9fedbc88)" style="fill: none; stroke: #b0b0b0; stroke-opacity: 0.3; stroke-width: 0.8; stroke-linecap: square"/>
     </g>
     <g id="line2d_18">
      <g>
       <use xlink:href="#m8d5f65562d" x="571.107724" y="356.965" style="stroke: #000000; stroke-width: 0.8"/>
      </g>
     </g>
     <g id="text_9">
      <!-- 400 -->
      <g transform="translate(562.107724 372.215) scale(0.12 -0.12)">
       <defs>
        <path id="SimHei-34" d="M 2000 1100 
L 75 1100 
L 75 1525 
L 2100 4450 
L 2475 4450 
L 2475 1525 
L 3075 1525 
L 3075 1100 
L 2475 1100 
L 2475 150 
L 2000 150 
L 2000 1100 
z
M 2000 1525 
L 2000 3500 
L 600 1525 
L 2000 1525 
z
" transform="scale(0.015625)"/>
       </defs>
       <use xlink:href="#SimHei-34"/>
       <use xlink:href="#SimHei-30" transform="translate(50 0)"/>
       <use xlink:href="#SimHei-30" transform="translate(100 0)"/>
      </g>
     </g>
    </g>
    <g id="text_10">
     <!-- Episode -->
     <g transform="translate(288.2 388.715) scale(0.16 -0.16)">
      <defs>
       <path id="SimHei-45" d="M 2900 125 
L 350 125 
L 350 4400 
L 2775 4400 
L 2775 3925 
L 925 3925 
L 925 2600 
L 2625 2600 
L 2625 2125 
L 925 2125 
L 925 600 
L 2900 600 
L 2900 125 
z
" transform="scale(0.015625)"/>
       <path id="SimHei-70" d="M 2825 1525 
Q 2825 800 2475 425 
Q 2125 50 1625 50 
Q 1350 50 1150 162 
Q 950 275 800 500 
L 800 -800 
L 300 -800 
L 300 2925 
L 800 2925 
L 800 2550 
Q 950 2775 1150 2875 
Q 1350 2975 1625 2975 
Q 2125 2975 2475 2612 
Q 2825 2250 2825 1525 
z
M 2275 1525 
Q 2275 2000 2087 2262 
Q 1900 2525 1525 2525 
Q 1225 2525 1012 2262 
Q 800 2000 800 1525 
Q 800 1050 1012 775 
Q 1225 500 1525 500 
Q 1900 500 2087 775 
Q 2275 1050 2275 1525 
z
" transform="scale(0.015625)"/>
       <path id="SimHei-69" d="M 1800 3725 
L 1300 3725 
L 1300 4375 
L 1800 4375 
L 1800 3725 
z
M 1800 125 
L 1300 125 
L 1300 2925 
L 1800 2925 
L 1800 125 
z
" transform="scale(0.015625)"/>
       <path id="SimHei-73" d="M 2750 900 
Q 2750 500 2437 287 
Q 2125 75 1650 75 
Q 1050 75 725 312 
Q 400 550 400 1000 
L 900 1000 
Q 900 700 1112 600 
Q 1325 500 1625 500 
Q 1925 500 2075 612 
Q 2225 725 2225 900 
Q 2225 1025 2100 1150 
Q 1975 1275 1475 1350 
Q 900 1425 687 1637 
Q 475 1850 475 2200 
Q 475 2500 762 2737 
Q 1050 2975 1600 2975 
Q 2100 2975 2387 2750 
Q 2675 2525 2675 2150 
L 2175 2150 
Q 2175 2375 2012 2462 
Q 1850 2550 1600 2550 
Q 1275 2550 1137 2437 
Q 1000 2325 1000 2175 
Q 1000 2000 1125 1900 
Q 1250 1800 1650 1750 
Q 2300 1650 2525 1437 
Q 2750 1225 2750 900 
z
" transform="scale(0.015625)"/>
       <path id="SimHei-6f" d="M 2925 1525 
Q 2925 875 2525 475 
Q 2125 75 1575 75 
Q 1025 75 625 475 
Q 225 875 225 1525 
Q 225 2175 625 2575 
Q 1025 2975 1575 2975 
Q 2125 2975 2525 2575 
Q 2925 2175 2925 1525 
z
M 2375 1525 
Q 2375 2025 2125 2275 
Q 1875 2525 1575 2525 
Q 1275 2525 1025 2275 
Q 775 2025 775 1525 
Q 775 1025 1025 775 
Q 1275 525 1575 525 
Q 1875 525 2125 775 
Q 2375 1025 2375 1525 
z
" transform="scale(0.015625)"/>
       <path id="SimHei-64" d="M 2750 125 
L 2250 125 
L 2250 500 
Q 2100 275 1900 175 
Q 1700 75 1425 75 
Q 925 75 575 437 
Q 225 800 225 1525 
Q 225 2250 575 2625 
Q 925 3000 1425 3000 
Q 1700 3000 1900 2887 
Q 2100 2775 2250 2550 
L 2250 4400 
L 2750 4400 
L 2750 125 
z
M 2250 1525 
Q 2250 2000 2037 2275 
Q 1825 2550 1525 2550 
Q 1150 2550 962 2275 
Q 775 2000 775 1525 
Q 775 1050 962 787 
Q 1150 525 1525 525 
Q 1825 525 2037 787 
Q 2250 1050 2250 1525 
z
" transform="scale(0.015625)"/>
       <path id="SimHei-65" d="M 2850 1075 
Q 2800 625 2450 350 
Q 2100 75 1625 75 
Q 1025 75 637 462 
Q 250 850 250 1525 
Q 250 2200 637 2587 
Q 1025 2975 1625 2975 
Q 2150 2975 2487 2637 
Q 2825 2300 2825 1525 
L 800 1525 
Q 800 975 1037 750 
Q 1275 525 1625 525 
Q 1900 525 2075 662 
Q 2250 800 2300 1075 
L 2850 1075 
z
M 2250 1925 
Q 2200 2275 2025 2412 
Q 1850 2550 1575 2550 
Q 1325 2550 1125 2412 
Q 925 2275 825 1925 
L 2250 1925 
z
" transform="scale(0.015625)"/>
      </defs>
      <use xlink:href="#SimHei-45"/>
      <use xlink:href="#SimHei-70" transform="translate(50 0)"/>
      <use xlink:href="#SimHei-69" transform="translate(100 0)"/>
      <use xlink:href="#SimHei-73" transform="translate(150 0)"/>
      <use xlink:href="#SimHei-6f" transform="translate(200 0)"/>
      <use xlink:href="#SimHei-64" transform="translate(250 0)"/>
      <use xlink:href="#SimHei-65" transform="translate(300 0)"/>
     </g>
    </g>
   </g>
   <g id="matplotlib.axis_2">
    <g id="ytick_1">
     <g id="line2d_19">
      <path d="M 37.2 351.719221 
L 595.2 351.719221 
" clip-path="url(#p1c9fedbc88)" style="fill: none; stroke: #b0b0b0; stroke-opacity: 0.3; stroke-width: 0.8; stroke-linecap: square"/>
     </g>
     <g id="line2d_20">
      <defs>
       <path id="mf8355e325e" d="M 0 0 
L -3.5 0 
" style="stroke: #000000; stroke-width: 0.8"/>
      </defs>
      <g>
       <use xlink:href="#mf8355e325e" x="37.2" y="351.719221" style="stroke: #000000; stroke-width: 0.8"/>
      </g>
     </g>
     <g id="text_11">
      <!-- 0 -->
      <g transform="translate(24.2 355.844221) scale(0.12 -0.12)">
       <use xlink:href="#SimHei-30"/>
      </g>
     </g>
    </g>
    <g id="ytick_2">
     <g id="line2d_21">
      <path d="M 37.2 289.816555 
L 595.2 289.816555 
" clip-path="url(#p1c9fedbc88)" style="fill: none; stroke: #b0b0b0; stroke-opacity: 0.3; stroke-width: 0.8; stroke-linecap: square"/>
     </g>
     <g id="line2d_22">
      <g>
       <use xlink:href="#mf8355e325e" x="37.2" y="289.816555" style="stroke: #000000; stroke-width: 0.8"/>
      </g>
     </g>
     <g id="text_12">
      <!-- 1 -->
      <g transform="translate(24.2 293.941555) scale(0.12 -0.12)">
       <use xlink:href="#SimHei-31"/>
      </g>
     </g>
    </g>
    <g id="ytick_3">
     <g id="line2d_23">
      <path d="M 37.2 227.91389 
L 595.2 227.91389 
" clip-path="url(#p1c9fedbc88)" style="fill: none; stroke: #b0b0b0; stroke-opacity: 0.3; stroke-width: 0.8; stroke-linecap: square"/>
     </g>
     <g id="line2d_24">
      <g>
       <use xlink:href="#mf8355e325e" x="37.2" y="227.91389" style="stroke: #000000; stroke-width: 0.8"/>
      </g>
     </g>
     <g id="text_13">
      <!-- 2 -->
      <g transform="translate(24.2 232.03889) scale(0.12 -0.12)">
       <use xlink:href="#SimHei-32"/>
      </g>
     </g>
    </g>
    <g id="ytick_4">
     <g id="line2d_25">
      <path d="M 37.2 166.011224 
L 595.2 166.011224 
" clip-path="url(#p1c9fedbc88)" style="fill: none; stroke: #b0b0b0; stroke-opacity: 0.3; stroke-width: 0.8; stroke-linecap: square"/>
     </g>
     <g id="line2d_26">
      <g>
       <use xlink:href="#mf8355e325e" x="37.2" y="166.011224" style="stroke: #000000; stroke-width: 0.8"/>
      </g>
     </g>
     <g id="text_14">
      <!-- 3 -->
      <g transform="translate(24.2 170.136224) scale(0.12 -0.12)">
       <use xlink:href="#SimHei-33"/>
      </g>
     </g>
    </g>
    <g id="ytick_5">
     <g id="line2d_27">
      <path d="M 37.2 104.108558 
L 595.2 104.108558 
" clip-path="url(#p1c9fedbc88)" style="fill: none; stroke: #b0b0b0; stroke-opacity: 0.3; stroke-width: 0.8; stroke-linecap: square"/>
     </g>
     <g id="line2d_28">
      <g>
       <use xlink:href="#mf8355e325e" x="37.2" y="104.108558" style="stroke: #000000; stroke-width: 0.8"/>
      </g>
     </g>
     <g id="text_15">
      <!-- 4 -->
      <g transform="translate(24.2 108.233558) scale(0.12 -0.12)">
       <use xlink:href="#SimHei-34"/>
      </g>
     </g>
    </g>
    <g id="ytick_6">
     <g id="line2d_29">
      <path d="M 37.2 42.205892 
L 595.2 42.205892 
" clip-path="url(#p1c9fedbc88)" style="fill: none; stroke: #b0b0b0; stroke-opacity: 0.3; stroke-width: 0.8; stroke-linecap: square"/>
     </g>
     <g id="line2d_30">
      <g>
       <use xlink:href="#mf8355e325e" x="37.2" y="42.205892" style="stroke: #000000; stroke-width: 0.8"/>
      </g>
     </g>
     <g id="text_16">
      <!-- 5 -->
      <g transform="translate(24.2 46.330892) scale(0.12 -0.12)">
       <use xlink:href="#SimHei-35"/>
      </g>
     </g>
    </g>
    <g id="text_17">
     <!-- Energy -->
     <g transform="translate(18.2 214.645) rotate(-90) scale(0.16 -0.16)">
      <defs>
       <path id="SimHei-6e" d="M 2800 125 
L 2300 125 
L 2300 1925 
Q 2300 2225 2150 2400 
Q 2000 2575 1750 2575 
Q 1425 2575 1137 2237 
Q 850 1900 850 1400 
L 850 125 
L 350 125 
L 350 2925 
L 850 2925 
L 850 2400 
Q 1050 2675 1287 2825 
Q 1525 2975 1900 2975 
Q 2350 2975 2575 2725 
Q 2800 2475 2800 2100 
L 2800 125 
z
" transform="scale(0.015625)"/>
       <path id="SimHei-72" d="M 2500 2425 
Q 2025 2500 1700 2287 
Q 1375 2075 1150 1550 
L 1150 125 
L 650 125 
L 650 2925 
L 1150 2925 
L 1150 2200 
Q 1375 2600 1712 2787 
Q 2050 2975 2500 2975 
L 2500 2425 
z
" transform="scale(0.015625)"/>
       <path id="SimHei-67" d="M 2975 2500 
Q 2800 2550 2637 2562 
Q 2475 2575 2300 2525 
Q 2375 2450 2425 2337 
Q 2475 2225 2475 2000 
Q 2475 1575 2187 1300 
Q 1900 1025 1475 1025 
Q 1375 1025 1212 1062 
Q 1050 1100 950 1150 
Q 875 1100 850 1050 
Q 825 1000 825 925 
Q 825 800 1000 737 
Q 1175 675 1625 675 
Q 2350 675 2612 475 
Q 2875 275 2875 -25 
Q 2875 -425 2487 -612 
Q 2100 -800 1575 -800 
Q 900 -800 575 -625 
Q 250 -450 250 -150 
Q 250 0 375 150 
Q 500 300 700 400 
Q 550 475 462 587 
Q 375 700 375 875 
Q 375 1025 487 1137 
Q 600 1250 750 1325 
Q 625 1450 550 1625 
Q 475 1800 475 2000 
Q 475 2425 762 2700 
Q 1050 2975 1475 2975 
Q 1700 2975 1862 2912 
Q 2025 2850 2150 2725 
Q 2350 2875 2550 2937 
Q 2750 3000 2975 2975 
L 2975 2500 
z
M 1975 2000 
Q 1975 2250 1850 2400 
Q 1725 2550 1475 2550 
Q 1225 2550 1100 2400 
Q 975 2250 975 2000 
Q 975 1750 1100 1600 
Q 1225 1450 1475 1450 
Q 1725 1450 1850 1600 
Q 1975 1750 1975 2000 
z
M 2400 -75 
Q 2400 25 2287 125 
Q 2175 225 1725 225 
Q 1625 225 1450 237 
Q 1275 250 1050 275 
Q 850 200 775 100 
Q 700 0 700 -100 
Q 700 -250 900 -350 
Q 1100 -450 1600 -450 
Q 2025 -450 2212 -337 
Q 2400 -225 2400 -75 
z
" transform="scale(0.015625)"/>
       <path id="SimHei-79" d="M 2900 2925 
L 1750 -100 
Q 1650 -450 1450 -625 
Q 1250 -800 950 -800 
Q 825 -800 712 -787 
Q 600 -775 500 -725 
L 500 -225 
Q 600 -275 700 -300 
Q 800 -325 875 -325 
Q 1075 -325 1150 -262 
Q 1225 -200 1300 25 
L 200 2925 
L 750 2925 
L 1550 725 
L 1575 725 
L 2350 2925 
L 2900 2925 
z
" transform="scale(0.015625)"/>
      </defs>
      <use xlink:href="#SimHei-45"/>
      <use xlink:href="#SimHei-6e" transform="translate(50 0)"/>
      <use xlink:href="#SimHei-65" transform="translate(100 0)"/>
      <use xlink:href="#SimHei-72" transform="translate(150 0)"/>
      <use xlink:href="#SimHei-67" transform="translate(200 0)"/>
      <use xlink:href="#SimHei-79" transform="translate(250 0)"/>
     </g>
    </g>
   </g>
   <g id="line2d_31">
    <path d="M 62.563636 228.351776 
L 63.834997 225.795973 
L 65.106357 231.501397 
L 66.377717 236.28669 
L 67.649077 236.366674 
L 68.920437 234.803808 
L 70.191798 229.712286 
L 71.463158 228.763752 
L 72.734518 226.509555 
L 74.005878 226.207746 
L 75.277239 230.190098 
L 76.548599 235.475555 
L 77.819959 236.851773 
L 79.091319 239.815329 
L 80.362679 244.933805 
L 82.9054 232.454488 
L 84.17676 229.399301 
L 85.44812 233.188055 
L 86.719481 233.399751 
L 87.990841 231.123914 
L 89.262201 236.662213 
L 90.533561 233.166582 
L 91.804921 233.789925 
L 93.076282 239.172866 
L 94.347642 233.09767 
L 95.619002 226.397355 
L 96.890362 229.720501 
L 98.161722 235.320235 
L 99.433083 237.775529 
L 100.704443 236.228753 
L 101.975803 241.396658 
L 103.247163 242.337472 
L 104.518524 247.317706 
L 105.789884 246.758583 
L 108.332604 255.982262 
L 109.603964 260.308642 
L 110.875325 262.344121 
L 112.146685 266.238808 
L 113.418045 256.332312 
L 115.960766 264.688888 
L 118.503486 272.192511 
L 119.774846 252.037018 
L 122.317567 260.831542 
L 124.860287 268.739575 
L 127.403008 275.857982 
L 129.945728 282.286131 
L 132.488448 288.086052 
L 135.031169 293.326558 
L 137.573889 298.045839 
L 140.11661 302.300263 
L 142.65933 306.116226 
L 145.202051 309.583684 
L 146.473411 311.199078 
L 147.744771 306.202845 
L 149.016131 297.86986 
L 150.287491 300.06833 
L 151.558852 298.852514 
L 152.830212 292.984871 
L 154.101572 295.347898 
L 155.372932 286.122207 
L 157.915653 291.545953 
L 159.187013 294.104689 
L 160.458373 291.80504 
L 161.729733 286.307134 
L 164.272454 291.733065 
L 165.543814 294.258298 
L 166.815174 294.538866 
L 169.357895 294.772399 
L 170.629255 296.723907 
L 171.900615 292.864318 
L 173.171975 295.3458 
L 174.443336 289.201143 
L 175.714696 291.838199 
L 176.986056 287.643916 
L 178.257416 287.908677 
L 179.528776 288.312807 
L 180.800137 281.080464 
L 182.071497 278.814621 
L 183.342857 273.488287 
L 185.885578 276.275098 
L 187.156938 261.733221 
L 188.428298 260.538541 
L 189.699658 262.544168 
L 190.971018 262.292062 
L 192.242379 266.24081 
L 193.513739 268.180943 
L 194.785099 270.787703 
L 196.056459 271.056473 
L 197.32782 274.024613 
L 198.59918 274.329603 
L 199.87054 277.671576 
L 201.1419 278.075604 
L 202.41326 279.348 
L 203.684621 279.947164 
L 204.955981 275.641232 
L 206.227341 277.684974 
L 207.498701 280.876678 
L 208.770062 278.765957 
L 210.041422 273.509166 
L 211.312782 265.80276 
L 212.584142 266.606851 
L 213.855502 258.338021 
L 215.126863 260.344352 
L 216.398223 263.995366 
L 217.669583 261.327849 
L 218.940943 255.681002 
L 220.212303 255.007735 
L 221.483664 259.319282 
L 222.755024 260.477061 
L 224.026384 258.363112 
L 225.297744 257.772606 
L 226.569105 256.433205 
L 227.840465 260.634248 
L 229.111825 264.222944 
L 230.383185 264.806939 
L 231.654545 268.123376 
L 232.925906 268.70467 
L 234.197266 268.995876 
L 235.468626 271.808005 
L 236.739986 264.773409 
L 238.011347 263.47616 
L 239.282707 261.817505 
L 240.554067 256.188324 
L 241.825427 251.322412 
L 243.096787 246.015142 
L 244.368148 245.288877 
L 245.639508 247.914486 
L 246.910868 246.911268 
L 248.182228 249.201433 
L 249.453589 253.355257 
L 250.724949 257.086533 
L 251.996309 257.058442 
L 253.267669 260.733216 
L 254.539029 262.47199 
L 255.81039 265.247715 
L 257.08175 264.722844 
L 258.35311 259.578081 
L 259.62447 263.488197 
L 260.89583 264.73681 
L 262.167191 259.857957 
L 263.438551 258.213856 
L 265.981271 262.716764 
L 267.252632 260.962909 
L 268.523992 260.581552 
L 269.795352 260.780613 
L 271.066712 262.738889 
L 272.338072 266.002656 
L 273.609433 262.605793 
L 274.880793 265.028954 
L 276.152153 265.568217 
L 277.423513 267.301335 
L 278.694874 263.935933 
L 279.966234 265.914139 
L 281.237594 246.041092 
L 282.508954 246.571917 
L 283.780314 241.350671 
L 285.051675 242.990186 
L 286.323035 244.407932 
L 287.594395 246.61922 
L 288.865755 247.473601 
L 290.137116 246.682384 
L 291.408476 249.54021 
L 292.679836 254.125726 
L 293.951196 251.705642 
L 295.222556 252.071392 
L 296.493917 254.323961 
L 297.765277 247.889395 
L 299.036637 244.505024 
L 301.579357 253.372549 
L 302.850718 249.141676 
L 304.122078 246.15428 
L 305.393438 250.850282 
L 306.664798 254.46867 
L 307.936159 256.603711 
L 309.207519 257.203813 
L 310.478879 259.105709 
L 311.750239 259.191851 
L 313.021599 263.166688 
L 314.29296 264.75841 
L 315.56432 265.997771 
L 316.83568 257.785973 
L 318.10704 257.964661 
L 319.378401 242.45574 
L 320.649761 239.579314 
L 321.921121 237.017142 
L 323.192481 242.258076 
L 324.463841 243.990419 
L 325.735202 242.451291 
L 327.006562 247.423311 
L 328.277922 240.436355 
L 330.820643 241.256061 
L 332.092003 246.219216 
L 333.363363 244.069727 
L 334.634723 232.270998 
L 335.906083 230.154012 
L 338.448804 240.81971 
L 339.720164 242.058953 
L 340.991524 246.93237 
L 342.262884 247.837347 
L 343.534245 252.530199 
L 344.805605 256.754253 
L 346.076965 249.194648 
L 347.348325 251.480259 
L 348.619686 255.95742 
L 349.891046 251.277276 
L 351.162406 255.702634 
L 352.433766 256.225585 
L 353.705126 260.54224 
L 356.247847 268.192401 
L 357.519207 267.799828 
L 358.790567 271.467916 
L 360.061928 273.234188 
L 361.333288 274.553449 
L 362.604648 258.254536 
L 363.876008 262.296153 
L 365.147368 262.403938 
L 367.690089 269.871676 
L 368.961449 254.851729 
L 370.232809 258.546636 
L 371.50417 261.401534 
L 372.77553 265.448709 
L 374.04689 269.014743 
L 375.31825 269.983864 
L 376.58961 267.796799 
L 377.860971 271.390223 
L 379.132331 269.396109 
L 380.403691 267.741207 
L 381.675051 255.920296 
L 382.946411 258.501214 
L 384.217772 252.269881 
L 385.489132 255.16755 
L 386.760492 253.37523 
L 388.031852 252.105879 
L 389.303213 239.194379 
L 390.574573 244.136322 
L 391.845933 244.124772 
L 393.117293 247.522596 
L 394.388653 239.826077 
L 395.660014 244.887972 
L 396.931374 247.677981 
L 398.202734 251.683304 
L 399.474094 252.597175 
L 402.016815 241.694539 
L 403.288175 242.430231 
L 404.559535 244.754176 
L 405.830895 247.478468 
L 407.102256 249.163963 
L 408.373616 250.388973 
L 409.644976 251.277546 
L 410.916336 249.541509 
L 412.187697 250.28804 
L 413.459057 247.058995 
L 414.730417 248.372989 
L 416.001777 251.418941 
L 417.273137 249.219876 
L 418.544498 252.368353 
L 419.815858 253.903803 
L 422.358578 262.309252 
L 423.629938 264.901937 
L 424.901299 268.670127 
L 426.172659 263.639487 
L 427.444019 267.387947 
L 428.715379 269.70739 
L 429.98674 271.667114 
L 431.2581 272.073877 
L 432.52946 273.982438 
L 433.80082 277.161364 
L 435.07218 274.212647 
L 436.343541 277.566516 
L 437.614901 273.643029 
L 438.886261 277.018644 
L 440.157621 279.99419 
L 441.428982 282.373469 
L 442.700342 282.595388 
L 443.971702 278.530493 
L 445.243062 270.496017 
L 446.514422 266.73876 
L 447.785783 266.512771 
L 449.057143 249.762625 
L 450.328503 250.865023 
L 451.599863 255.353666 
L 452.871224 256.103699 
L 454.142584 255.351281 
L 455.413944 253.356578 
L 456.685304 257.59833 
L 457.956664 246.832179 
L 459.228025 249.762491 
L 460.499385 248.96208 
L 461.770745 249.511953 
L 463.042105 254.082518 
L 464.313465 250.249801 
L 468.127546 262.670932 
L 469.398906 265.880005 
L 470.670267 267.987328 
L 471.941627 264.02162 
L 473.212987 266.386171 
L 474.484347 270.082926 
L 475.755707 268.175398 
L 478.298428 275.113043 
L 479.569788 270.228778 
L 480.841148 271.697514 
L 482.112509 268.504765 
L 484.655229 275.391605 
L 485.926589 273.97977 
L 487.197949 262.269172 
L 488.46931 259.067083 
L 489.74067 252.574937 
L 491.01203 247.919516 
L 492.28339 252.665088 
L 493.554751 253.012358 
L 494.826111 254.084798 
L 496.097471 253.118526 
L 497.368831 249.035411 
L 498.640191 253.639775 
L 499.911552 254.279553 
L 501.182912 255.286153 
L 502.454272 253.321153 
L 503.725632 244.248127 
L 504.996992 248.88626 
L 506.268353 247.430455 
L 507.539713 238.43176 
L 508.811073 236.12561 
L 510.082433 236.510119 
L 511.353794 239.019653 
L 512.625154 234.960666 
L 513.896514 236.374425 
L 515.167874 232.952899 
L 516.439234 237.772796 
L 517.710595 238.736344 
L 518.981955 230.335501 
L 520.253315 230.825288 
L 522.796036 239.075706 
L 524.067396 234.36311 
L 525.338756 232.915516 
L 526.610116 236.963949 
L 527.881476 233.986164 
L 530.424197 240.862187 
L 531.695557 245.843831 
L 532.966917 249.177696 
L 534.238278 253.838788 
L 535.509638 251.925934 
L 536.780998 255.866114 
L 538.052358 252.199687 
L 539.323718 256.606404 
L 540.595079 259.922525 
L 541.866439 249.668349 
L 543.137799 247.860187 
L 544.409159 248.705183 
L 545.680519 248.657201 
L 546.95188 245.635806 
L 548.22324 243.166974 
L 549.4946 245.449492 
L 550.76596 246.252478 
L 552.037321 250.882786 
L 553.308681 250.695136 
L 554.580041 252.006262 
L 555.851401 249.96948 
L 557.122761 251.11382 
L 558.394122 255.63883 
L 559.665482 259.12121 
L 560.936842 260.743589 
L 562.208202 256.04321 
L 563.479563 260.006154 
L 564.750923 261.294819 
L 566.022283 265.333634 
L 567.293643 267.193752 
L 568.565003 264.571758 
L 568.565003 264.571758 
" clip-path="url(#p1c9fedbc88)" style="fill: none; stroke: #1f77b4; stroke-width: 1.2; stroke-linecap: square"/>
   </g>
   <g id="line2d_32">
    <path d="M 62.563636 160.063903 
L 63.834997 156.847343 
L 65.106357 160.669143 
L 66.377717 166.830829 
L 67.649077 171.328639 
L 70.191798 183.265902 
L 71.463158 187.043342 
L 72.734518 194.575652 
L 74.005878 197.815839 
L 75.277239 197.663814 
L 76.548599 200.99131 
L 77.819959 197.689128 
L 79.091319 200.228339 
L 80.362679 201.01001 
L 81.63404 200.619835 
L 82.9054 203.761366 
L 84.17676 198.021017 
L 85.44812 194.724624 
L 86.719481 181.453435 
L 87.990841 181.877947 
L 89.262201 187.624563 
L 90.533561 189.265596 
L 91.804921 194.710101 
L 93.076282 196.663479 
L 94.347642 201.58443 
L 95.619002 202.696327 
L 98.161722 213.029774 
L 99.433083 218.606219 
L 100.704443 214.501109 
L 101.975803 217.617657 
L 103.247163 221.806898 
L 105.789884 225.158571 
L 107.061244 223.916146 
L 108.332604 223.657677 
L 109.603964 220.334031 
L 110.875325 224.080787 
L 112.146685 222.560919 
L 114.689405 233.359879 
L 115.960766 233.417424 
L 117.232126 234.935532 
L 118.503486 237.973263 
L 119.774846 232.670627 
L 121.046206 235.989967 
L 122.317567 238.652707 
L 123.588927 237.162121 
L 124.860287 239.94403 
L 126.131647 244.405925 
L 127.403008 239.126352 
L 128.674368 242.580416 
L 129.945728 242.983748 
L 131.217088 241.94519 
L 132.488448 243.469319 
L 133.759809 247.989876 
L 135.031169 245.644415 
L 136.302529 243.742087 
L 137.573889 242.950509 
L 138.845249 245.811628 
L 140.11661 248.152695 
L 141.38797 247.626507 
L 142.65933 252.092146 
L 143.93069 250.88185 
L 145.202051 253.096259 
L 146.473411 253.78766 
L 147.744771 256.809423 
L 149.016131 258.886802 
L 150.287491 256.885244 
L 151.558852 260.647327 
L 152.830212 258.424049 
L 154.101572 261.797879 
L 155.372932 264.262028 
L 156.644293 265.913706 
L 157.915653 265.43259 
L 159.187013 267.55529 
L 160.458373 268.876637 
L 161.729733 272.458721 
L 163.001094 274.326515 
L 164.272454 271.338263 
L 165.543814 267.812306 
L 166.815174 265.509749 
L 168.086535 268.877272 
L 169.357895 264.852157 
L 170.629255 262.809912 
L 171.900615 265.501619 
L 173.171975 267.37359 
L 174.443336 266.077563 
L 175.714696 268.381472 
L 176.986056 268.467952 
L 178.257416 268.372915 
L 179.528776 271.873893 
L 180.800137 265.938429 
L 182.071497 263.67381 
L 183.342857 267.52048 
L 184.614217 260.861753 
L 185.885578 259.179538 
L 187.156938 260.634992 
L 189.699658 268.131484 
L 190.971018 267.017254 
L 192.242379 270.622646 
L 193.513739 272.957051 
L 194.785099 274.916177 
L 196.056459 277.543573 
L 197.32782 280.703762 
L 198.59918 281.127053 
L 199.87054 280.805058 
L 201.1419 283.742882 
L 202.41326 286.330761 
L 203.684621 285.00661 
L 204.955981 283.9477 
L 206.227341 284.35141 
L 208.770062 289.608943 
L 210.041422 292.085089 
L 211.312782 291.083761 
L 212.584142 286.834201 
L 213.855502 285.016518 
L 217.669583 292.749705 
L 218.940943 282.831081 
L 220.212303 278.638677 
L 221.483664 279.391185 
L 222.755024 282.340374 
L 224.026384 280.546725 
L 226.569105 286.369613 
L 227.840465 287.879159 
L 229.111825 288.557265 
L 230.383185 284.375574 
L 231.654545 280.727045 
L 232.925906 279.601702 
L 235.468626 285.318814 
L 236.739986 286.636857 
L 238.011347 287.512531 
L 239.282707 287.214463 
L 241.825427 292.375657 
L 243.096787 293.59627 
L 244.368148 293.983224 
L 248.182228 300.423227 
L 250.724949 304.332994 
L 251.996309 306.163984 
L 253.267669 303.828619 
L 254.539029 302.644446 
L 255.81039 303.160237 
L 257.08175 301.72663 
L 259.62447 305.544488 
L 260.89583 298.991335 
L 262.167191 300.000905 
L 263.438551 302.125736 
L 264.709911 299.108523 
L 265.981271 298.891687 
L 267.252632 300.800838 
L 268.523992 301.088932 
L 269.795352 303.147715 
L 271.066712 303.595403 
L 272.338072 305.496861 
L 276.152153 310.392736 
L 277.423513 305.643004 
L 278.694874 304.603569 
L 282.508954 309.844937 
L 286.323035 314.291481 
L 287.594395 313.360391 
L 288.865755 312.027071 
L 291.408476 314.812803 
L 293.951196 317.41257 
L 295.222556 317.543894 
L 296.493917 318.656405 
L 297.765277 318.410358 
L 299.036637 319.561468 
L 300.307997 320.141907 
L 302.850718 322.142485 
L 304.122078 322.858265 
L 305.393438 321.903688 
L 306.664798 322.739002 
L 307.936159 318.171267 
L 309.207519 318.189293 
L 311.750239 320.42515 
L 314.29296 314.219597 
L 315.56432 314.057754 
L 316.83568 315.317213 
L 318.10704 315.333019 
L 319.378401 315.541781 
L 321.921121 318.04653 
L 324.463841 320.362693 
L 328.277922 323.096141 
L 329.549282 323.598111 
L 330.820643 320.572907 
L 333.363363 322.61986 
L 334.634723 320.951914 
L 335.906083 321.363377 
L 338.448804 323.279062 
L 339.720164 321.346016 
L 342.262884 323.339567 
L 346.076965 325.977593 
L 347.348325 326.73919 
L 348.619686 324.088149 
L 352.433766 326.55036 
L 356.247847 328.617882 
L 357.519207 325.357524 
L 358.790567 324.985836 
L 360.061928 324.316814 
L 362.604648 325.978986 
L 365.147368 327.410207 
L 366.418729 327.535634 
L 367.690089 328.212663 
L 368.961449 326.478525 
L 372.77553 328.595829 
L 374.04689 329.22612 
L 375.31825 329.496044 
L 377.860971 330.630801 
L 379.132331 327.459791 
L 381.675051 328.754585 
L 385.489132 330.144755 
L 386.760492 330.748839 
L 388.031852 329.202424 
L 389.303213 329.854609 
L 390.574573 329.079623 
L 393.117293 330.357457 
L 394.388653 329.352228 
L 399.474094 331.590315 
L 404.559535 333.437714 
L 405.830895 331.281805 
L 407.102256 327.652243 
L 409.644976 328.972643 
L 413.459057 330.595421 
L 417.273137 332.158901 
L 419.815858 333.080033 
L 421.087218 333.506569 
L 422.358578 331.993304 
L 424.901299 332.955795 
L 429.98674 334.553592 
L 436.343541 336.054757 
L 440.157621 336.808659 
L 441.428982 336.892471 
L 447.785783 337.871881 
L 451.599863 338.410696 
L 452.871224 336.918653 
L 456.685304 337.597676 
L 459.228025 337.899827 
L 464.313465 338.610045 
L 466.856186 338.874884 
L 468.127546 338.498388 
L 470.670267 338.808929 
L 471.941627 338.947241 
L 473.212987 338.925771 
L 478.298428 339.363393 
L 479.569788 337.97069 
L 487.197949 339.006614 
L 492.28339 339.471685 
L 496.097471 339.713922 
L 499.911552 339.999573 
L 512.625154 340.601934 
L 513.896514 339.123717 
L 515.167874 337.439071 
L 517.710595 337.802066 
L 520.253315 338.117927 
L 521.524675 335.677831 
L 526.610116 336.785669 
L 531.695557 337.660073 
L 538.052358 338.608616 
L 539.323718 337.136595 
L 543.137799 337.749286 
L 544.409159 335.138163 
L 546.95188 335.77116 
L 550.76596 336.524307 
L 553.308681 337.032262 
L 558.394122 337.90272 
L 559.665482 331.286888 
L 562.208202 332.292051 
L 563.479563 332.727066 
L 564.750923 330.485278 
L 568.565003 332.046677 
L 568.565003 332.046677 
" clip-path="url(#p1c9fedbc88)" style="fill: none; stroke: #ff7f0e; stroke-width: 1.2; stroke-linecap: square"/>
   </g>
   <g id="line2d_33">
    <path d="M 62.563636 39.445 
L 63.834997 50.993832 
L 65.106357 61.342887 
L 66.377717 63.800393 
L 67.649077 72.192531 
L 68.920437 81.339402 
L 70.191798 81.541858 
L 71.463158 76.164884 
L 72.734518 73.579369 
L 74.005878 77.27431 
L 75.277239 90.293688 
L 76.548599 96.681724 
L 77.819959 96.536256 
L 79.091319 104.140113 
L 80.362679 114.931383 
L 81.63404 123.564128 
L 82.9054 125.818454 
L 84.17676 130.647532 
L 85.44812 133.51645 
L 86.719481 139.379643 
L 89.262201 142.855639 
L 90.533561 146.535057 
L 91.804921 154.466003 
L 93.076282 150.234415 
L 94.347642 150.59129 
L 96.890362 160.763209 
L 98.161722 168.083404 
L 99.433083 167.674212 
L 100.704443 172.989722 
L 101.975803 172.803199 
L 104.518524 181.675078 
L 105.789884 175.476377 
L 107.061244 174.791334 
L 108.332604 169.743597 
L 109.603964 159.186435 
L 110.875325 156.825782 
L 112.146685 155.900623 
L 113.418045 160.176366 
L 114.689405 168.984782 
L 115.960766 175.273149 
L 117.232126 178.349408 
L 118.503486 186.103152 
L 119.774846 189.066847 
L 121.046206 194.315501 
L 122.317567 188.840324 
L 123.588927 190.039371 
L 124.860287 189.883916 
L 126.131647 193.378884 
L 127.403008 195.706118 
L 128.674368 199.39619 
L 129.945728 196.824951 
L 131.217088 201.427716 
L 132.488448 200.757319 
L 133.759809 199.003854 
L 135.031169 205.985274 
L 136.302529 212.339962 
L 137.573889 215.035087 
L 138.845249 218.419059 
L 140.11661 222.340055 
L 141.38797 220.756925 
L 142.65933 226.766819 
L 143.93069 226.881433 
L 145.202051 230.85721 
L 146.473411 230.830033 
L 147.744771 223.556524 
L 150.287491 233.531012 
L 151.558852 235.568445 
L 152.830212 236.47846 
L 154.101572 240.266039 
L 156.644293 246.972033 
L 157.915653 249.916083 
L 160.458373 258.909829 
L 163.001094 266.999862 
L 165.543814 274.273905 
L 168.086535 280.845616 
L 170.629255 286.793372 
L 173.171975 292.178119 
L 175.714696 297.064139 
L 178.257416 301.44318 
L 180.800137 305.378725 
L 183.342857 308.899428 
L 185.885578 312.073862 
L 188.428298 314.962837 
L 190.971018 317.606988 
L 194.785099 321.057252 
L 197.32782 323.071583 
L 201.1419 325.720697 
L 204.955981 327.968105 
L 210.041422 330.561932 
L 213.855502 332.176584 
L 217.669583 333.528544 
L 224.026384 335.47116 
L 227.840465 336.370228 
L 231.654545 337.164109 
L 238.011347 338.174658 
L 250.724949 339.57339 
L 259.62447 340.28306 
L 278.694874 341.01954 
L 282.508954 341.120542 
L 295.222556 341.339855 
L 333.363363 341.696132 
L 367.690089 341.725414 
L 376.58961 341.796383 
L 388.031852 341.773907 
L 412.187697 341.775571 
L 426.172659 341.845 
L 431.2581 341.764479 
L 437.614901 341.744584 
L 441.428982 341.696449 
L 452.871224 341.688722 
L 457.956664 341.693434 
L 469.398906 341.692687 
L 474.484347 341.696734 
L 479.569788 341.668924 
L 491.01203 341.703342 
L 502.454272 341.612048 
L 569.836364 341.676744 
L 569.836364 341.676744 
" clip-path="url(#p1c9fedbc88)" style="fill: none; stroke: #2ca02c; stroke-width: 1.2; stroke-linecap: square"/>
   </g>
   <g id="line2d_34">
    <path d="M 62.563636 96.472809 
L 63.834997 104.032005 
L 65.106357 104.305862 
L 66.377717 106.13589 
L 67.649077 101.363753 
L 68.920437 104.948426 
L 70.191798 111.859934 
L 71.463158 111.961098 
L 72.734518 119.408068 
L 74.005878 125.973531 
L 75.277239 129.228012 
L 76.548599 119.119119 
L 77.819959 118.177981 
L 79.091319 123.393606 
L 80.362679 133.31468 
L 81.63404 136.22406 
L 82.9054 117.26797 
L 84.17676 121.21847 
L 85.44812 127.925038 
L 86.719481 136.354156 
L 87.990841 140.697385 
L 89.262201 142.73466 
L 91.804921 152.983216 
L 93.076282 155.801038 
L 94.347642 163.172967 
L 95.619002 164.064692 
L 98.161722 168.094558 
L 99.433083 167.843692 
L 101.975803 173.770737 
L 103.247163 177.022454 
L 104.518524 183.459898 
L 107.061244 198.895075 
L 109.603964 212.821355 
L 112.146685 225.366241 
L 114.689405 236.717582 
L 115.960766 239.797356 
L 118.503486 249.775495 
L 121.046206 258.713313 
L 123.588927 266.733292 
L 126.131647 273.90015 
L 128.674368 280.540558 
L 131.217088 286.491672 
L 133.759809 291.890717 
L 137.573889 298.896977 
L 140.11661 303.06372 
L 142.65933 306.785845 
L 145.202051 310.228385 
L 147.744771 313.322589 
L 150.287491 316.065918 
L 152.830212 318.543013 
L 156.644293 321.768152 
L 160.458373 324.694961 
L 161.729733 325.538677 
L 163.001094 324.935357 
L 168.086535 328.058923 
L 174.443336 331.086172 
L 178.257416 332.585193 
L 182.071497 333.871207 
L 187.156938 335.3506 
L 192.242379 336.477685 
L 201.1419 337.995283 
L 206.227341 338.694572 
L 207.498701 337.902414 
L 208.770062 338.073207 
L 210.041422 338.086504 
L 216.398223 338.922961 
L 224.026384 339.622754 
L 231.654545 340.166936 
L 232.925906 340.065105 
L 236.739986 340.299848 
L 238.011347 340.278578 
L 241.825427 340.472081 
L 243.096787 339.434127 
L 245.639508 339.67788 
L 253.267669 340.047511 
L 254.539029 339.04442 
L 265.981271 340.022468 
L 272.338072 340.443214 
L 273.609433 340.317189 
L 283.780314 340.831613 
L 299.036637 341.199239 
L 300.307997 339.533585 
L 305.393438 339.987279 
L 314.29296 340.540456 
L 325.735202 340.96592 
L 354.976487 341.506544 
L 367.690089 341.61346 
L 368.961449 339.203318 
L 374.04689 339.627556 
L 382.946411 340.302982 
L 390.574573 340.651475 
L 396.931374 340.882366 
L 409.644976 341.271991 
L 421.087218 341.446526 
L 426.172659 341.496025 
L 427.444019 340.44946 
L 440.157621 340.999406 
L 451.599863 341.251539 
L 456.685304 341.306028 
L 484.655229 341.564889 
L 489.74067 341.590232 
L 496.097471 341.629393 
L 507.539713 341.669136 
L 515.167874 341.656139 
L 540.595079 341.513396 
L 541.866439 340.333187 
L 543.137799 340.43655 
L 544.409159 332.794452 
L 545.680519 333.244644 
L 548.22324 333.963932 
L 549.4946 333.382836 
L 554.580041 334.965629 
L 559.665482 336.241595 
L 567.293643 337.683769 
L 569.836364 338.063358 
L 569.836364 338.063358 
" clip-path="url(#p1c9fedbc88)" style="fill: none; stroke: #d62728; stroke-width: 1.2; stroke-linecap: square"/>
   </g>
   <g id="line2d_35">
    <path d="M 62.563636 160.991503 
L 63.834997 163.15467 
L 65.106357 162.280764 
L 66.377717 169.574804 
L 67.649077 175.308167 
L 68.920437 183.477068 
L 70.191798 188.434556 
L 72.734518 203.222393 
L 74.005878 210.094994 
L 75.277239 213.981744 
L 77.819959 226.313384 
L 80.362679 237.483795 
L 82.9054 247.64893 
L 85.44812 256.825633 
L 87.990841 265.073334 
L 90.533561 272.540449 
L 93.076282 279.269724 
L 94.347642 282.406039 
L 95.619002 284.157972 
L 98.161722 289.786824 
L 100.704443 294.872476 
L 103.247163 299.42407 
L 105.789884 303.552294 
L 108.332604 307.256942 
L 110.875325 310.61591 
L 114.689405 315.042802 
L 117.232126 317.680507 
L 121.046206 321.136333 
L 123.588927 323.107529 
L 127.403008 325.789464 
L 128.674368 326.599665 
L 129.945728 325.589313 
L 133.759809 327.869586 
L 137.573889 329.822226 
L 140.11661 330.952457 
L 142.65933 331.902865 
L 145.202051 332.856866 
L 151.558852 334.827868 
L 155.372932 335.809941 
L 156.644293 335.85387 
L 164.272454 337.380215 
L 170.629255 338.346982 
L 179.528776 339.36614 
L 197.32782 340.624397 
L 198.59918 340.673097 
L 201.1419 340.652912 
L 206.227341 340.854201 
L 212.584142 340.959698 
L 215.126863 340.975992 
L 218.940943 341.057497 
L 224.026384 341.168033 
L 232.925906 341.256739 
L 240.554067 341.365209 
L 246.910868 341.415527 
L 248.182228 341.424021 
L 249.453589 339.584685 
L 255.81039 340.048993 
L 268.523992 340.732465 
L 285.051675 341.123683 
L 302.850718 341.45677 
L 304.122078 339.527386 
L 316.83568 340.394974 
L 318.10704 336.36221 
L 323.192481 337.329045 
L 327.006562 337.942691 
L 330.820643 338.466195 
L 332.092003 334.940761 
L 335.906083 335.998652 
L 342.262884 337.320801 
L 348.619686 338.329868 
L 353.705126 338.896294 
L 358.790567 339.478342 
L 365.147368 340.024497 
L 367.690089 340.124751 
L 375.31825 340.517072 
L 376.58961 339.028015 
L 381.675051 339.506163 
L 385.489132 339.844774 
L 390.574573 340.205264 
L 399.474094 340.668062 
L 427.444019 341.366558 
L 428.715379 339.179684 
L 429.98674 337.617508 
L 431.2581 337.810263 
L 432.52946 336.694066 
L 437.614901 337.59574 
L 442.700342 338.352643 
L 447.785783 339.012649 
L 457.956664 339.943079 
L 461.770745 340.177685 
L 463.042105 339.949159 
L 468.127546 340.24816 
L 485.926589 341.028476 
L 513.896514 341.459607 
L 518.981955 341.479627 
L 521.524675 341.467209 
L 530.424197 341.538594 
L 539.323718 341.557184 
L 553.308681 341.598723 
L 554.580041 340.129157 
L 563.479563 340.615997 
L 564.750923 340.658744 
L 566.022283 338.786892 
L 568.565003 339.059293 
L 568.565003 339.059293 
" clip-path="url(#p1c9fedbc88)" style="fill: none; stroke: #9467bd; stroke-width: 1.2; stroke-linecap: square"/>
   </g>
   <g id="patch_3">
    <path d="M 37.2 356.965 
L 37.2 24.325 
" style="fill: none; stroke: #000000; stroke-width: 0.8; stroke-linejoin: miter; stroke-linecap: square"/>
   </g>
   <g id="patch_4">
    <path d="M 595.2 356.965 
L 595.2 24.325 
" style="fill: none; stroke: #000000; stroke-width: 0.8; stroke-linejoin: miter; stroke-linecap: square"/>
   </g>
   <g id="patch_5">
    <path d="M 37.2 356.965 
L 595.2 356.965 
" style="fill: none; stroke: #000000; stroke-width: 0.8; stroke-linejoin: miter; stroke-linecap: square"/>
   </g>
   <g id="patch_6">
    <path d="M 37.2 24.325 
L 595.2 24.325 
" style="fill: none; stroke: #000000; stroke-width: 0.8; stroke-linejoin: miter; stroke-linecap: square"/>
   </g>
   <g id="text_18">
    <!-- Total Energy Consumption -->
    <g transform="translate(220.2 18.325) scale(0.16 -0.16)">
     <defs>
      <path id="SimHei-54" d="M 2850 3925 
L 1850 3925 
L 1850 125 
L 1275 125 
L 1275 3925 
L 275 3925 
L 275 4400 
L 2850 4400 
L 2850 3925 
z
" transform="scale(0.015625)"/>
      <path id="SimHei-74" d="M 2750 200 
Q 2625 150 2462 112 
Q 2300 75 2025 75 
Q 1575 75 1300 325 
Q 1025 575 1025 1025 
L 1025 2525 
L 175 2525 
L 175 2925 
L 1025 2925 
L 1025 3900 
L 1525 3900 
L 1525 2925 
L 2550 2925 
L 2550 2525 
L 1525 2525 
L 1525 1000 
Q 1525 800 1625 662 
Q 1725 525 2000 525 
Q 2275 525 2450 575 
Q 2625 625 2750 700 
L 2750 200 
z
" transform="scale(0.015625)"/>
      <path id="SimHei-61" d="M 2875 125 
L 2275 125 
Q 2225 175 2200 262 
Q 2175 350 2175 475 
Q 2000 275 1750 175 
Q 1500 75 1225 75 
Q 825 75 550 275 
Q 275 475 275 850 
Q 275 1225 525 1450 
Q 775 1675 1300 1750 
Q 1650 1800 1912 1875 
Q 2175 1950 2175 2075 
Q 2175 2225 2062 2375 
Q 1950 2525 1575 2525 
Q 1275 2525 1137 2412 
Q 1000 2300 950 2100 
L 400 2100 
Q 450 2500 762 2737 
Q 1075 2975 1575 2975 
Q 2125 2975 2400 2725 
Q 2675 2475 2675 2025 
L 2675 650 
Q 2675 500 2725 375 
Q 2775 250 2875 125 
z
M 2175 1050 
L 2175 1550 
Q 2025 1500 1887 1462 
Q 1750 1425 1425 1375 
Q 1050 1325 937 1200 
Q 825 1075 825 900 
Q 825 750 937 637 
Q 1050 525 1275 525 
Q 1500 525 1762 650 
Q 2025 775 2175 1050 
z
" transform="scale(0.015625)"/>
      <path id="SimHei-6c" d="M 1825 125 
L 1325 125 
L 1325 4400 
L 1825 4400 
L 1825 125 
z
" transform="scale(0.015625)"/>
      <path id="SimHei-20" transform="scale(0.015625)"/>
      <path id="SimHei-43" d="M 2975 1825 
Q 2950 875 2575 475 
Q 2200 75 1675 75 
Q 1075 75 650 562 
Q 225 1050 225 2125 
Q 225 3300 637 3875 
Q 1050 4450 1700 4450 
Q 2250 4450 2612 4037 
Q 2975 3625 2950 2875 
L 2400 2875 
Q 2400 3425 2225 3700 
Q 2050 3975 1700 3975 
Q 1300 3975 1062 3562 
Q 825 3150 825 2175 
Q 825 1275 1062 912 
Q 1300 550 1675 550 
Q 1950 550 2175 812 
Q 2400 1075 2400 1825 
L 2975 1825 
z
" transform="scale(0.015625)"/>
      <path id="SimHei-75" d="M 2800 125 
L 2300 125 
L 2300 650 
Q 2100 375 1862 225 
Q 1625 75 1250 75 
Q 800 75 575 325 
Q 350 575 350 950 
L 350 2925 
L 850 2925 
L 850 1125 
Q 850 825 1000 650 
Q 1150 475 1400 475 
Q 1725 475 2012 812 
Q 2300 1150 2300 1650 
L 2300 2925 
L 2800 2925 
L 2800 125 
z
" transform="scale(0.015625)"/>
      <path id="SimHei-6d" d="M 3050 125 
L 2550 125 
L 2550 2150 
Q 2550 2300 2500 2400 
Q 2450 2500 2300 2500 
Q 2125 2500 1975 2312 
Q 1825 2125 1825 1825 
L 1825 125 
L 1325 125 
L 1325 2150 
Q 1325 2300 1275 2400 
Q 1225 2500 1075 2500 
Q 900 2500 750 2312 
Q 600 2125 600 1825 
L 600 125 
L 100 125 
L 100 2925 
L 600 2925 
L 600 2550 
Q 725 2750 900 2862 
Q 1075 2975 1275 2975 
Q 1475 2975 1612 2862 
Q 1750 2750 1800 2550 
Q 1925 2750 2087 2862 
Q 2250 2975 2450 2975 
Q 2750 2975 2900 2812 
Q 3050 2650 3050 2350 
L 3050 125 
z
" transform="scale(0.015625)"/>
     </defs>
     <use xlink:href="#SimHei-54"/>
     <use xlink:href="#SimHei-6f" transform="translate(50 0)"/>
     <use xlink:href="#SimHei-74" transform="translate(100 0)"/>
     <use xlink:href="#SimHei-61" transform="translate(150 0)"/>
     <use xlink:href="#SimHei-6c" transform="translate(200 0)"/>
     <use xlink:href="#SimHei-20" transform="translate(250 0)"/>
     <use xlink:href="#SimHei-45" transform="translate(300 0)"/>
     <use xlink:href="#SimHei-6e" transform="translate(350 0)"/>
     <use xlink:href="#SimHei-65" transform="translate(400 0)"/>
     <use xlink:href="#SimHei-72" transform="translate(450 0)"/>
     <use xlink:href="#SimHei-67" transform="translate(500 0)"/>
     <use xlink:href="#SimHei-79" transform="translate(550 0)"/>
     <use xlink:href="#SimHei-20" transform="translate(600 0)"/>
     <use xlink:href="#SimHei-43" transform="translate(650 0)"/>
     <use xlink:href="#SimHei-6f" transform="translate(700 0)"/>
     <use xlink:href="#SimHei-6e" transform="translate(750 0)"/>
     <use xlink:href="#SimHei-73" transform="translate(800 0)"/>
     <use xlink:href="#SimHei-75" transform="translate(850 0)"/>
     <use xlink:href="#SimHei-6d" transform="translate(900 0)"/>
     <use xlink:href="#SimHei-70" transform="translate(950 0)"/>
     <use xlink:href="#SimHei-74" transform="translate(1000 0)"/>
     <use xlink:href="#SimHei-69" transform="translate(1050 0)"/>
     <use xlink:href="#SimHei-6f" transform="translate(1100 0)"/>
     <use xlink:href="#SimHei-6e" transform="translate(1150 0)"/>
    </g>
   </g>
   <g id="legend_1">
    <g id="patch_7">
     <path d="M 500.4 113.425 
L 586.8 113.425 
Q 589.2 113.425 589.2 111.025 
L 589.2 32.725 
Q 589.2 30.325 586.8 30.325 
L 500.4 30.325 
Q 498 30.325 498 32.725 
L 498 111.025 
Q 498 113.425 500.4 113.425 
z
" style="fill: #ffffff; opacity: 0.8; stroke: #cccccc; stroke-linejoin: miter"/>
    </g>
    <g id="line2d_36">
     <path d="M 502.8 39.325 
L 514.8 39.325 
L 526.8 39.325 
" style="fill: none; stroke: #1f77b4; stroke-width: 1.2; stroke-linecap: square"/>
    </g>
    <g id="text_19">
     <!-- DDPG -->
     <g transform="translate(536.4 43.525) scale(0.12 -0.12)">
      <defs>
       <path id="SimHei-44" d="M 2925 2250 
Q 2925 1100 2437 612 
Q 1950 125 1125 125 
L 275 125 
L 275 4400 
L 1125 4400 
Q 2050 4400 2487 3900 
Q 2925 3400 2925 2250 
z
M 2325 2250 
Q 2325 3175 2025 3550 
Q 1725 3925 1125 3925 
L 850 3925 
L 850 600 
L 1125 600 
Q 1725 600 2025 962 
Q 2325 1325 2325 2250 
z
" transform="scale(0.015625)"/>
       <path id="SimHei-50" d="M 2950 3100 
Q 2950 2500 2600 2150 
Q 2250 1800 1625 1800 
L 900 1800 
L 900 125 
L 325 125 
L 325 4400 
L 1625 4400 
Q 2250 4400 2600 4050 
Q 2950 3700 2950 3100 
z
M 2375 3100 
Q 2375 3575 2150 3750 
Q 1925 3925 1475 3925 
L 900 3925 
L 900 2275 
L 1475 2275 
Q 1925 2275 2150 2450 
Q 2375 2625 2375 3100 
z
" transform="scale(0.015625)"/>
       <path id="SimHei-47" d="M 2850 75 
L 2425 75 
L 2350 425 
Q 2250 275 2037 175 
Q 1825 75 1575 75 
Q 1050 75 637 562 
Q 225 1050 225 2125 
Q 225 3300 600 3875 
Q 975 4450 1625 4450 
Q 2200 4450 2525 4025 
Q 2850 3600 2850 2925 
L 2300 2925 
Q 2300 3450 2125 3712 
Q 1950 3975 1625 3975 
Q 1225 3975 1025 3562 
Q 825 3150 825 2175 
Q 825 1250 1075 900 
Q 1325 550 1650 550 
Q 1975 550 2162 787 
Q 2350 1025 2350 1525 
L 2350 1800 
L 1575 1800 
L 1575 2275 
L 2850 2275 
L 2850 75 
z
" transform="scale(0.015625)"/>
      </defs>
      <use xlink:href="#SimHei-44"/>
      <use xlink:href="#SimHei-44" transform="translate(50 0)"/>
      <use xlink:href="#SimHei-50" transform="translate(100 0)"/>
      <use xlink:href="#SimHei-47" transform="translate(150 0)"/>
     </g>
    </g>
    <g id="line2d_37">
     <path d="M 502.8 55.225 
L 514.8 55.225 
L 526.8 55.225 
" style="fill: none; stroke: #ff7f0e; stroke-width: 1.2; stroke-linecap: square"/>
    </g>
    <g id="text_20">
     <!-- PPO -->
     <g transform="translate(536.4 59.425) scale(0.12 -0.12)">
      <defs>
       <path id="SimHei-4f" d="M 2950 2275 
Q 2950 1100 2587 587 
Q 2225 75 1575 75 
Q 925 75 550 587 
Q 175 1100 175 2275 
Q 175 3450 550 3950 
Q 925 4450 1575 4450 
Q 2225 4450 2587 3950 
Q 2950 3450 2950 2275 
z
M 2350 2275 
Q 2350 3325 2125 3650 
Q 1900 3975 1575 3975 
Q 1250 3975 1012 3650 
Q 775 3325 775 2275 
Q 775 1225 1012 887 
Q 1250 550 1575 550 
Q 1900 550 2125 887 
Q 2350 1225 2350 2275 
z
" transform="scale(0.015625)"/>
      </defs>
      <use xlink:href="#SimHei-50"/>
      <use xlink:href="#SimHei-50" transform="translate(50 0)"/>
      <use xlink:href="#SimHei-4f" transform="translate(100 0)"/>
     </g>
    </g>
    <g id="line2d_38">
     <path d="M 502.8 71.125 
L 514.8 71.125 
L 526.8 71.125 
" style="fill: none; stroke: #2ca02c; stroke-width: 1.2; stroke-linecap: square"/>
    </g>
    <g id="text_21">
     <!-- TD3 -->
     <g transform="translate(536.4 75.325) scale(0.12 -0.12)">
      <use xlink:href="#SimHei-54"/>
      <use xlink:href="#SimHei-44" transform="translate(50 0)"/>
      <use xlink:href="#SimHei-33" transform="translate(100 0)"/>
     </g>
    </g>
    <g id="line2d_39">
     <path d="M 502.8 87.025 
L 514.8 87.025 
L 526.8 87.025 
" style="fill: none; stroke: #d62728; stroke-width: 1.2; stroke-linecap: square"/>
    </g>
    <g id="text_22">
     <!-- GCN-DDQN -->
     <g transform="translate(536.4 91.225) scale(0.12 -0.12)">
      <defs>
       <path id="SimHei-4e" d="M 2850 125 
L 2225 125 
L 850 3225 
L 825 3225 
L 825 125 
L 250 125 
L 250 4400 
L 875 4400 
L 2250 1300 
L 2275 1300 
L 2275 4400 
L 2850 4400 
L 2850 125 
z
" transform="scale(0.015625)"/>
       <path id="SimHei-2d" d="M 2975 2125 
L 125 2125 
L 125 2525 
L 2975 2525 
L 2975 2125 
z
" transform="scale(0.015625)"/>
       <path id="SimHei-51" d="M 2950 2275 
Q 2950 1675 2862 1262 
Q 2775 850 2575 600 
L 2775 225 
L 2375 -200 
L 2150 225 
Q 2050 150 1900 112 
Q 1750 75 1575 75 
Q 925 75 550 587 
Q 175 1100 175 2275 
Q 175 3450 550 3950 
Q 925 4450 1575 4450 
Q 2225 4450 2587 3950 
Q 2950 3450 2950 2275 
z
M 2350 2275 
Q 2350 3325 2125 3650 
Q 1900 3975 1575 3975 
Q 1250 3975 1012 3650 
Q 775 3325 775 2275 
Q 775 1225 1012 887 
Q 1250 550 1575 550 
Q 1700 550 1800 587 
Q 1900 625 1950 675 
L 1550 1450 
L 1900 1875 
L 2250 1200 
Q 2300 1450 2325 1650 
Q 2350 1850 2350 2275 
z
" transform="scale(0.015625)"/>
      </defs>
      <use xlink:href="#SimHei-47"/>
      <use xlink:href="#SimHei-43" transform="translate(50 0)"/>
      <use xlink:href="#SimHei-4e" transform="translate(100 0)"/>
      <use xlink:href="#SimHei-2d" transform="translate(150 0)"/>
      <use xlink:href="#SimHei-44" transform="translate(200 0)"/>
      <use xlink:href="#SimHei-44" transform="translate(250 0)"/>
      <use xlink:href="#SimHei-51" transform="translate(300 0)"/>
      <use xlink:href="#SimHei-4e" transform="translate(350 0)"/>
     </g>
    </g>
    <g id="line2d_40">
     <path d="M 502.8 102.925 
L 514.8 102.925 
L 526.8 102.925 
" style="fill: none; stroke: #9467bd; stroke-width: 1.2; stroke-linecap: square"/>
    </g>
    <g id="text_23">
     <!-- GLDVTO -->
     <g transform="translate(536.4 107.125) scale(0.12 -0.12)">
      <defs>
       <path id="SimHei-4c" d="M 2900 125 
L 300 125 
L 300 4400 
L 875 4400 
L 875 600 
L 2900 600 
L 2900 125 
z
" transform="scale(0.015625)"/>
       <path id="SimHei-56" d="M 3050 4400 
L 1800 75 
L 1300 75 
L 50 4400 
L 650 4400 
L 1525 1125 
L 1575 1125 
L 2450 4400 
L 3050 4400 
z
" transform="scale(0.015625)"/>
      </defs>
      <use xlink:href="#SimHei-47"/>
      <use xlink:href="#SimHei-4c" transform="translate(50 0)"/>
      <use xlink:href="#SimHei-44" transform="translate(100 0)"/>
      <use xlink:href="#SimHei-56" transform="translate(150 0)"/>
      <use xlink:href="#SimHei-54" transform="translate(200 0)"/>
      <use xlink:href="#SimHei-4f" transform="translate(250 0)"/>
     </g>
    </g>
   </g>
  </g>
 </g>
 <defs>
  <clipPath id="p1c9fedbc88">
   <rect x="37.2" y="24.325" width="558" height="332.64"/>
  </clipPath>
 </defs>
</svg>
