<?xml version="1.0" encoding="utf-8" standalone="no"?>
<!DOCTYPE svg PUBLIC "-//W3C//DTD SVG 1.1//EN"
  "http://www.w3.org/Graphics/SVG/1.1/DTD/svg11.dtd">
<svg xmlns:xlink="http://www.w3.org/1999/xlink" width="689.6125pt" height="391.6261pt" viewBox="0 0 689.6125 391.6261" xmlns="http://www.w3.org/2000/svg" version="1.1">
 <metadata>
  <rdf:RDF xmlns:dc="http://purl.org/dc/elements/1.1/" xmlns:cc="http://creativecommons.org/ns#" xmlns:rdf="http://www.w3.org/1999/02/22-rdf-syntax-ns#">
   <cc:Work>
    <dc:type rdf:resource="http://purl.org/dc/dcmitype/StillImage"/>
    <dc:date>2026-07-10T14:36:08.266686</dc:date>
    <dc:format>image/svg+xml</dc:format>
    <dc:creator>
     <cc:Agent>
      <dc:title>Matplotlib v3.10.7, https://matplotlib.org/</dc:title>
     </cc:Agent>
    </dc:creator>
   </cc:Work>
  </rdf:RDF>
 </metadata>
 <defs>
  <style type="text/css">*{stroke-linejoin: round; stroke-linecap: butt}</style>
 </defs>
 <g id="figure_1">
  <g id="patch_1">
   <path d="M 0 391.6261 
L 689.6125 391.6261 
L 689.6125 0 
L 0 0 
z
" style="fill: #ffffff"/>
  </g>
  <g id="axes_1">
   <g id="patch_2">
    <path d="M 56.0125 349.8636 
L 682.4125 349.8636 
L 682.4125 34.5036 
L 56.0125 34.5036 
z
" style="fill: #ffffff"/>
   </g>
   <g id="matplotlib.axis_1">
    <g id="xtick_1">
     <g id="line2d_1">
      <path d="M 84.485227 349.8636 
L 84.485227 34.5036 
" clip-path="url(#p20c8787b71)" style="fill: none; stroke-dasharray: 2.22,0.96; stroke-dashoffset: 0; stroke: #b0b0b0; stroke-opacity: 0.25; stroke-width: 0.6"/>
     </g>
     <g id="line2d_2">
      <defs>
       <path id="m2983fdac7d" d="M 0 0 
L 0 3.5 
" style="stroke: #000000; stroke-width: 0.8"/>
      </defs>
      <g>
       <use xlink:href="#m2983fdac7d" x="84.485227" y="349.8636" style="stroke: #000000; stroke-width: 0.8"/>
      </g>
     </g>
     <g id="text_1">
      <!-- 0 -->
      <g transform="translate(81.485227 365.1136) scale(0.12 -0.12)">
       <defs>
        <path id="SimHei-30" d="M 225 2537 
Q 250 3200 412 3587 
Q 575 3975 875 4225 
Q 1175 4475 1612 4475 
Q 2050 4475 2375 4112 
Q 2700 3750 2800 3200 
Q 2900 2650 2862 1937 
Q 2825 1225 2612 775 
Q 2400 325 1975 150 
Q 1550 -25 1125 187 
Q 700 400 525 750 
Q 350 1100 275 1487 
Q 200 1875 225 2537 
z
M 750 2687 
Q 675 2000 800 1462 
Q 925 925 1212 700 
Q 1500 475 1800 612 
Q 2100 750 2237 1162 
Q 2375 1575 2375 2062 
Q 2375 2550 2337 2950 
Q 2300 3350 2112 3675 
Q 1925 4000 1612 4012 
Q 1300 4025 1062 3700 
Q 825 3375 750 2687 
z
" transform="scale(0.015625)"/>
       </defs>
       <use xlink:href="#SimHei-30"/>
      </g>
     </g>
    </g>
    <g id="xtick_2">
     <g id="line2d_3">
      <path d="M 155.845446 349.8636 
L 155.845446 34.5036 
" clip-path="url(#p20c8787b71)" style="fill: none; stroke-dasharray: 2.22,0.96; stroke-dashoffset: 0; stroke: #b0b0b0; stroke-opacity: 0.25; stroke-width: 0.6"/>
     </g>
     <g id="line2d_4">
      <g>
       <use xlink:href="#m2983fdac7d" x="155.845446" y="349.8636" style="stroke: #000000; stroke-width: 0.8"/>
      </g>
     </g>
     <g id="text_2">
      <!-- 50 -->
      <g transform="translate(149.845446 365.1136) scale(0.12 -0.12)">
       <defs>
        <path id="SimHei-35" d="M 550 1325 
Q 725 650 1150 575 
Q 1575 500 1837 662 
Q 2100 825 2212 1087 
Q 2325 1350 2312 1675 
Q 2300 2000 2137 2225 
Q 1975 2450 1725 2525 
Q 1475 2600 1162 2525 
Q 850 2450 650 2175 
L 225 2225 
Q 275 2375 700 4375 
L 2675 4375 
L 2675 3925 
L 1075 3925 
Q 950 3250 825 2850 
Q 1200 3025 1525 3012 
Q 1850 3000 2150 2862 
Q 2450 2725 2587 2487 
Q 2725 2250 2787 2012 
Q 2850 1775 2837 1500 
Q 2825 1225 2725 937 
Q 2625 650 2425 462 
Q 2225 275 1937 162 
Q 1650 50 1275 75 
Q 900 100 562 350 
Q 225 600 100 1200 
L 550 1325 
z
" transform="scale(0.015625)"/>
       </defs>
       <use xlink:href="#SimHei-35"/>
       <use xlink:href="#SimHei-30" transform="translate(50 0)"/>
      </g>
     </g>
    </g>
    <g id="xtick_3">
     <g id="line2d_5">
      <path d="M 227.205665 349.8636 
L 227.205665 34.5036 
" clip-path="url(#p20c8787b71)" style="fill: none; stroke-dasharray: 2.22,0.96; stroke-dashoffset: 0; stroke: #b0b0b0; stroke-opacity: 0.25; stroke-width: 0.6"/>
     </g>
     <g id="line2d_6">
      <g>
       <use xlink:href="#m2983fdac7d" x="227.205665" y="349.8636" style="stroke: #000000; stroke-width: 0.8"/>
      </g>
     </g>
     <g id="text_3">
      <!-- 100 -->
      <g transform="translate(218.205665 365.1136) scale(0.12 -0.12)">
       <defs>
        <path id="SimHei-31" d="M 1400 3600 
Q 1075 3275 575 2975 
L 575 3450 
Q 1200 3875 1600 4450 
L 1900 4450 
L 1900 150 
L 1400 150 
L 1400 3600 
z
" transform="scale(0.015625)"/>
       </defs>
       <use xlink:href="#SimHei-31"/>
       <use xlink:href="#SimHei-30" transform="translate(50 0)"/>
       <use xlink:href="#SimHei-30" transform="translate(100 0)"/>
      </g>
     </g>
    </g>
    <g id="xtick_4">
     <g id="line2d_7">
      <path d="M 298.565883 349.8636 
L 298.565883 34.5036 
" clip-path="url(#p20c8787b71)" style="fill: none; stroke-dasharray: 2.22,0.96; stroke-dashoffset: 0; stroke: #b0b0b0; stroke-opacity: 0.25; stroke-width: 0.6"/>
     </g>
     <g id="line2d_8">
      <g>
       <use xlink:href="#m2983fdac7d" x="298.565883" y="349.8636" style="stroke: #000000; stroke-width: 0.8"/>
      </g>
     </g>
     <g id="text_4">
      <!-- 150 -->
      <g transform="translate(289.565883 365.1136) scale(0.12 -0.12)">
       <use xlink:href="#SimHei-31"/>
       <use xlink:href="#SimHei-35" transform="translate(50 0)"/>
       <use xlink:href="#SimHei-30" transform="translate(100 0)"/>
      </g>
     </g>
    </g>
    <g id="xtick_5">
     <g id="line2d_9">
      <path d="M 369.926102 349.8636 
L 369.926102 34.5036 
" clip-path="url(#p20c8787b71)" style="fill: none; stroke-dasharray: 2.22,0.96; stroke-dashoffset: 0; stroke: #b0b0b0; stroke-opacity: 0.25; stroke-width: 0.6"/>
     </g>
     <g id="line2d_10">
      <g>
       <use xlink:href="#m2983fdac7d" x="369.926102" y="349.8636" style="stroke: #000000; stroke-width: 0.8"/>
      </g>
     </g>
     <g id="text_5">
      <!-- 200 -->
      <g transform="translate(360.926102 365.1136) scale(0.12 -0.12)">
       <defs>
        <path id="SimHei-32" d="M 300 250 
Q 325 625 650 925 
Q 975 1225 1475 1862 
Q 1975 2500 2125 2850 
Q 2275 3200 2237 3450 
Q 2200 3700 2000 3862 
Q 1800 4025 1537 4000 
Q 1275 3975 1037 3800 
Q 800 3625 675 3275 
L 200 3350 
Q 400 3925 712 4187 
Q 1025 4450 1450 4475 
Q 1700 4500 1900 4462 
Q 2100 4425 2312 4287 
Q 2525 4150 2662 3875 
Q 2800 3600 2762 3212 
Q 2725 2825 2375 2287 
Q 2025 1750 1025 600 
L 2825 600 
L 2825 150 
L 300 150 
L 300 250 
z
" transform="scale(0.015625)"/>
       </defs>
       <use xlink:href="#SimHei-32"/>
       <use xlink:href="#SimHei-30" transform="translate(50 0)"/>
       <use xlink:href="#SimHei-30" transform="translate(100 0)"/>
      </g>
     </g>
    </g>
    <g id="xtick_6">
     <g id="line2d_11">
      <path d="M 441.286321 349.8636 
L 441.286321 34.5036 
" clip-path="url(#p20c8787b71)" style="fill: none; stroke-dasharray: 2.22,0.96; stroke-dashoffset: 0; stroke: #b0b0b0; stroke-opacity: 0.25; stroke-width: 0.6"/>
     </g>
     <g id="line2d_12">
      <g>
       <use xlink:href="#m2983fdac7d" x="441.286321" y="349.8636" style="stroke: #000000; stroke-width: 0.8"/>
      </g>
     </g>
     <g id="text_6">
      <!-- 250 -->
      <g transform="translate(432.286321 365.1136) scale(0.12 -0.12)">
       <use xlink:href="#SimHei-32"/>
       <use xlink:href="#SimHei-35" transform="translate(50 0)"/>
       <use xlink:href="#SimHei-30" transform="translate(100 0)"/>
      </g>
     </g>
    </g>
    <g id="xtick_7">
     <g id="line2d_13">
      <path d="M 512.64654 349.8636 
L 512.64654 34.5036 
" clip-path="url(#p20c8787b71)" style="fill: none; stroke-dasharray: 2.22,0.96; stroke-dashoffset: 0; stroke: #b0b0b0; stroke-opacity: 0.25; stroke-width: 0.6"/>
     </g>
     <g id="line2d_14">
      <g>
       <use xlink:href="#m2983fdac7d" x="512.64654" y="349.8636" style="stroke: #000000; stroke-width: 0.8"/>
      </g>
     </g>
     <g id="text_7">
      <!-- 300 -->
      <g transform="translate(503.64654 365.1136) scale(0.12 -0.12)">
       <defs>
        <path id="SimHei-33" d="M 250 1225 
L 700 1300 
Q 800 975 1025 762 
Q 1250 550 1587 562 
Q 1925 575 2125 837 
Q 2325 1100 2300 1437 
Q 2275 1775 2037 1962 
Q 1800 2150 1275 2225 
L 1275 2550 
Q 1800 2600 2037 2825 
Q 2275 3050 2250 3412 
Q 2225 3775 1925 3937 
Q 1625 4100 1287 3975 
Q 950 3850 750 3275 
L 300 3350 
Q 450 3800 712 4100 
Q 975 4400 1425 4450 
Q 1875 4500 2212 4337 
Q 2550 4175 2687 3837 
Q 2825 3500 2725 3100 
Q 2625 2700 2150 2400 
Q 2500 2250 2687 1950 
Q 2875 1650 2812 1162 
Q 2750 675 2375 375 
Q 2000 75 1525 87 
Q 1050 100 700 387 
Q 350 675 250 1225 
z
" transform="scale(0.015625)"/>
       </defs>
       <use xlink:href="#SimHei-33"/>
       <use xlink:href="#SimHei-30" transform="translate(50 0)"/>
       <use xlink:href="#SimHei-30" transform="translate(100 0)"/>
      </g>
     </g>
    </g>
    <g id="xtick_8">
     <g id="line2d_15">
      <path d="M 584.006758 349.8636 
L 584.006758 34.5036 
" clip-path="url(#p20c8787b71)" style="fill: none; stroke-dasharray: 2.22,0.96; stroke-dashoffset: 0; stroke: #b0b0b0; stroke-opacity: 0.25; stroke-width: 0.6"/>
     </g>
     <g id="line2d_16">
      <g>
       <use xlink:href="#m2983fdac7d" x="584.006758" y="349.8636" style="stroke: #000000; stroke-width: 0.8"/>
      </g>
     </g>
     <g id="text_8">
      <!-- 350 -->
      <g transform="translate(575.006758 365.1136) scale(0.12 -0.12)">
       <use xlink:href="#SimHei-33"/>
       <use xlink:href="#SimHei-35" transform="translate(50 0)"/>
       <use xlink:href="#SimHei-30" transform="translate(100 0)"/>
      </g>
     </g>
    </g>
    <g id="xtick_9">
     <g id="line2d_17">
      <path d="M 655.366977 349.8636 
L 655.366977 34.5036 
" clip-path="url(#p20c8787b71)" style="fill: none; stroke-dasharray: 2.22,0.96; stroke-dashoffset: 0; stroke: #b0b0b0; stroke-opacity: 0.25; stroke-width: 0.6"/>
     </g>
     <g id="line2d_18">
      <g>
       <use xlink:href="#m2983fdac7d" x="655.366977" y="349.8636" style="stroke: #000000; stroke-width: 0.8"/>
      </g>
     </g>
     <g id="text_9">
      <!-- 400 -->
      <g transform="translate(646.366977 365.1136) scale(0.12 -0.12)">
       <defs>
        <path id="SimHei-34" d="M 2000 1100 
L 75 1100 
L 75 1525 
L 2100 4450 
L 2475 4450 
L 2475 1525 
L 3075 1525 
L 3075 1100 
L 2475 1100 
L 2475 150 
L 2000 150 
L 2000 1100 
z
M 2000 1525 
L 2000 3500 
L 600 1525 
L 2000 1525 
z
" transform="scale(0.015625)"/>
       </defs>
       <use xlink:href="#SimHei-34"/>
       <use xlink:href="#SimHei-30" transform="translate(50 0)"/>
       <use xlink:href="#SimHei-30" transform="translate(100 0)"/>
      </g>
     </g>
    </g>
    <g id="text_10">
     <!-- Episode -->
     <g transform="translate(339.4625 382.3011) scale(0.17 -0.17)">
      <defs>
       <path id="SimHei-45" d="M 2900 125 
L 350 125 
L 350 4400 
L 2775 4400 
L 2775 3925 
L 925 3925 
L 925 2600 
L 2625 2600 
L 2625 2125 
L 925 2125 
L 925 600 
L 2900 600 
L 2900 125 
z
" transform="scale(0.015625)"/>
       <path id="SimHei-70" d="M 2825 1525 
Q 2825 800 2475 425 
Q 2125 50 1625 50 
Q 1350 50 1150 162 
Q 950 275 800 500 
L 800 -800 
L 300 -800 
L 300 2925 
L 800 2925 
L 800 2550 
Q 950 2775 1150 2875 
Q 1350 2975 1625 2975 
Q 2125 2975 2475 2612 
Q 2825 2250 2825 1525 
z
M 2275 1525 
Q 2275 2000 2087 2262 
Q 1900 2525 1525 2525 
Q 1225 2525 1012 2262 
Q 800 2000 800 1525 
Q 800 1050 1012 775 
Q 1225 500 1525 500 
Q 1900 500 2087 775 
Q 2275 1050 2275 1525 
z
" transform="scale(0.015625)"/>
       <path id="SimHei-69" d="M 1800 3725 
L 1300 3725 
L 1300 4375 
L 1800 4375 
L 1800 3725 
z
M 1800 125 
L 1300 125 
L 1300 2925 
L 1800 2925 
L 1800 125 
z
" transform="scale(0.015625)"/>
       <path id="SimHei-73" d="M 2750 900 
Q 2750 500 2437 287 
Q 2125 75 1650 75 
Q 1050 75 725 312 
Q 400 550 400 1000 
L 900 1000 
Q 900 700 1112 600 
Q 1325 500 1625 500 
Q 1925 500 2075 612 
Q 2225 725 2225 900 
Q 2225 1025 2100 1150 
Q 1975 1275 1475 1350 
Q 900 1425 687 1637 
Q 475 1850 475 2200 
Q 475 2500 762 2737 
Q 1050 2975 1600 2975 
Q 2100 2975 2387 2750 
Q 2675 2525 2675 2150 
L 2175 2150 
Q 2175 2375 2012 2462 
Q 1850 2550 1600 2550 
Q 1275 2550 1137 2437 
Q 1000 2325 1000 2175 
Q 1000 2000 1125 1900 
Q 1250 1800 1650 1750 
Q 2300 1650 2525 1437 
Q 2750 1225 2750 900 
z
" transform="scale(0.015625)"/>
       <path id="SimHei-6f" d="M 2925 1525 
Q 2925 875 2525 475 
Q 2125 75 1575 75 
Q 1025 75 625 475 
Q 225 875 225 1525 
Q 225 2175 625 2575 
Q 1025 2975 1575 2975 
Q 2125 2975 2525 2575 
Q 2925 2175 2925 1525 
z
M 2375 1525 
Q 2375 2025 2125 2275 
Q 1875 2525 1575 2525 
Q 1275 2525 1025 2275 
Q 775 2025 775 1525 
Q 775 1025 1025 775 
Q 1275 525 1575 525 
Q 1875 525 2125 775 
Q 2375 1025 2375 1525 
z
" transform="scale(0.015625)"/>
       <path id="SimHei-64" d="M 2750 125 
L 2250 125 
L 2250 500 
Q 2100 275 1900 175 
Q 1700 75 1425 75 
Q 925 75 575 437 
Q 225 800 225 1525 
Q 225 2250 575 2625 
Q 925 3000 1425 3000 
Q 1700 3000 1900 2887 
Q 2100 2775 2250 2550 
L 2250 4400 
L 2750 4400 
L 2750 125 
z
M 2250 1525 
Q 2250 2000 2037 2275 
Q 1825 2550 1525 2550 
Q 1150 2550 962 2275 
Q 775 2000 775 1525 
Q 775 1050 962 787 
Q 1150 525 1525 525 
Q 1825 525 2037 787 
Q 2250 1050 2250 1525 
z
" transform="scale(0.015625)"/>
       <path id="SimHei-65" d="M 2850 1075 
Q 2800 625 2450 350 
Q 2100 75 1625 75 
Q 1025 75 637 462 
Q 250 850 250 1525 
Q 250 2200 637 2587 
Q 1025 2975 1625 2975 
Q 2150 2975 2487 2637 
Q 2825 2300 2825 1525 
L 800 1525 
Q 800 975 1037 750 
Q 1275 525 1625 525 
Q 1900 525 2075 662 
Q 2250 800 2300 1075 
L 2850 1075 
z
M 2250 1925 
Q 2200 2275 2025 2412 
Q 1850 2550 1575 2550 
Q 1325 2550 1125 2412 
Q 925 2275 825 1925 
L 2250 1925 
z
" transform="scale(0.015625)"/>
      </defs>
      <use xlink:href="#SimHei-45"/>
      <use xlink:href="#SimHei-70" transform="translate(50 0)"/>
      <use xlink:href="#SimHei-69" transform="translate(100 0)"/>
      <use xlink:href="#SimHei-73" transform="translate(150 0)"/>
      <use xlink:href="#SimHei-6f" transform="translate(200 0)"/>
      <use xlink:href="#SimHei-64" transform="translate(250 0)"/>
      <use xlink:href="#SimHei-65" transform="translate(300 0)"/>
     </g>
    </g>
   </g>
   <g id="matplotlib.axis_2">
    <g id="ytick_1">
     <g id="line2d_19">
      <path d="M 56.0125 331.720707 
L 682.4125 331.720707 
" clip-path="url(#p20c8787b71)" style="fill: none; stroke-dasharray: 2.22,0.96; stroke-dashoffset: 0; stroke: #b0b0b0; stroke-opacity: 0.25; stroke-width: 0.6"/>
     </g>
     <g id="line2d_20">
      <defs>
       <path id="m4a5c16d325" d="M 0 0 
L -3.5 0 
" style="stroke: #000000; stroke-width: 0.8"/>
      </defs>
      <g>
       <use xlink:href="#m4a5c16d325" x="56.0125" y="331.720707" style="stroke: #000000; stroke-width: 0.8"/>
      </g>
     </g>
     <g id="text_11">
      <!-- 0.05 -->
      <g transform="translate(25.0125 335.845707) scale(0.12 -0.12)">
       <defs>
        <path id="SimHei-2e" d="M 1075 125 
L 500 125 
L 500 675 
L 1075 675 
L 1075 125 
z
" transform="scale(0.015625)"/>
       </defs>
       <use xlink:href="#SimHei-30"/>
       <use xlink:href="#SimHei-2e" transform="translate(50 0)"/>
       <use xlink:href="#SimHei-30" transform="translate(100 0)"/>
       <use xlink:href="#SimHei-35" transform="translate(150 0)"/>
      </g>
     </g>
    </g>
    <g id="ytick_2">
     <g id="line2d_21">
      <path d="M 56.0125 275.128003 
L 682.4125 275.128003 
" clip-path="url(#p20c8787b71)" style="fill: none; stroke-dasharray: 2.22,0.96; stroke-dashoffset: 0; stroke: #b0b0b0; stroke-opacity: 0.25; stroke-width: 0.6"/>
     </g>
     <g id="line2d_22">
      <g>
       <use xlink:href="#m4a5c16d325" x="56.0125" y="275.128003" style="stroke: #000000; stroke-width: 0.8"/>
      </g>
     </g>
     <g id="text_12">
      <!-- 0.10 -->
      <g transform="translate(25.0125 279.253003) scale(0.12 -0.12)">
       <use xlink:href="#SimHei-30"/>
       <use xlink:href="#SimHei-2e" transform="translate(50 0)"/>
       <use xlink:href="#SimHei-31" transform="translate(100 0)"/>
       <use xlink:href="#SimHei-30" transform="translate(150 0)"/>
      </g>
     </g>
    </g>
    <g id="ytick_3">
     <g id="line2d_23">
      <path d="M 56.0125 218.5353 
L 682.4125 218.5353 
" clip-path="url(#p20c8787b71)" style="fill: none; stroke-dasharray: 2.22,0.96; stroke-dashoffset: 0; stroke: #b0b0b0; stroke-opacity: 0.25; stroke-width: 0.6"/>
     </g>
     <g id="line2d_24">
      <g>
       <use xlink:href="#m4a5c16d325" x="56.0125" y="218.5353" style="stroke: #000000; stroke-width: 0.8"/>
      </g>
     </g>
     <g id="text_13">
      <!-- 0.15 -->
      <g transform="translate(25.0125 222.6603) scale(0.12 -0.12)">
       <use xlink:href="#SimHei-30"/>
       <use xlink:href="#SimHei-2e" transform="translate(50 0)"/>
       <use xlink:href="#SimHei-31" transform="translate(100 0)"/>
       <use xlink:href="#SimHei-35" transform="translate(150 0)"/>
      </g>
     </g>
    </g>
    <g id="ytick_4">
     <g id="line2d_25">
      <path d="M 56.0125 161.942596 
L 682.4125 161.942596 
" clip-path="url(#p20c8787b71)" style="fill: none; stroke-dasharray: 2.22,0.96; stroke-dashoffset: 0; stroke: #b0b0b0; stroke-opacity: 0.25; stroke-width: 0.6"/>
     </g>
     <g id="line2d_26">
      <g>
       <use xlink:href="#m4a5c16d325" x="56.0125" y="161.942596" style="stroke: #000000; stroke-width: 0.8"/>
      </g>
     </g>
     <g id="text_14">
      <!-- 0.20 -->
      <g transform="translate(25.0125 166.067596) scale(0.12 -0.12)">
       <use xlink:href="#SimHei-30"/>
       <use xlink:href="#SimHei-2e" transform="translate(50 0)"/>
       <use xlink:href="#SimHei-32" transform="translate(100 0)"/>
       <use xlink:href="#SimHei-30" transform="translate(150 0)"/>
      </g>
     </g>
    </g>
    <g id="ytick_5">
     <g id="line2d_27">
      <path d="M 56.0125 105.349892 
L 682.4125 105.349892 
" clip-path="url(#p20c8787b71)" style="fill: none; stroke-dasharray: 2.22,0.96; stroke-dashoffset: 0; stroke: #b0b0b0; stroke-opacity: 0.25; stroke-width: 0.6"/>
     </g>
     <g id="line2d_28">
      <g>
       <use xlink:href="#m4a5c16d325" x="56.0125" y="105.349892" style="stroke: #000000; stroke-width: 0.8"/>
      </g>
     </g>
     <g id="text_15">
      <!-- 0.25 -->
      <g transform="translate(25.0125 109.474892) scale(0.12 -0.12)">
       <use xlink:href="#SimHei-30"/>
       <use xlink:href="#SimHei-2e" transform="translate(50 0)"/>
       <use xlink:href="#SimHei-32" transform="translate(100 0)"/>
       <use xlink:href="#SimHei-35" transform="translate(150 0)"/>
      </g>
     </g>
    </g>
    <g id="ytick_6">
     <g id="line2d_29">
      <path d="M 56.0125 48.757189 
L 682.4125 48.757189 
" clip-path="url(#p20c8787b71)" style="fill: none; stroke-dasharray: 2.22,0.96; stroke-dashoffset: 0; stroke: #b0b0b0; stroke-opacity: 0.25; stroke-width: 0.6"/>
     </g>
     <g id="line2d_30">
      <g>
       <use xlink:href="#m4a5c16d325" x="56.0125" y="48.757189" style="stroke: #000000; stroke-width: 0.8"/>
      </g>
     </g>
     <g id="text_16">
      <!-- 0.30 -->
      <g transform="translate(25.0125 52.882189) scale(0.12 -0.12)">
       <use xlink:href="#SimHei-30"/>
       <use xlink:href="#SimHei-2e" transform="translate(50 0)"/>
       <use xlink:href="#SimHei-33" transform="translate(100 0)"/>
       <use xlink:href="#SimHei-30" transform="translate(150 0)"/>
      </g>
     </g>
    </g>
    <g id="text_17">
     <!-- Total Task Latency -->
     <g transform="translate(18.8875 268.6836) rotate(-90) scale(0.17 -0.17)">
      <defs>
       <path id="SimHei-54" d="M 2850 3925 
L 1850 3925 
L 1850 125 
L 1275 125 
L 1275 3925 
L 275 3925 
L 275 4400 
L 2850 4400 
L 2850 3925 
z
" transform="scale(0.015625)"/>
       <path id="SimHei-74" d="M 2750 200 
Q 2625 150 2462 112 
Q 2300 75 2025 75 
Q 1575 75 1300 325 
Q 1025 575 1025 1025 
L 1025 2525 
L 175 2525 
L 175 2925 
L 1025 2925 
L 1025 3900 
L 1525 3900 
L 1525 2925 
L 2550 2925 
L 2550 2525 
L 1525 2525 
L 1525 1000 
Q 1525 800 1625 662 
Q 1725 525 2000 525 
Q 2275 525 2450 575 
Q 2625 625 2750 700 
L 2750 200 
z
" transform="scale(0.015625)"/>
       <path id="SimHei-61" d="M 2875 125 
L 2275 125 
Q 2225 175 2200 262 
Q 2175 350 2175 475 
Q 2000 275 1750 175 
Q 1500 75 1225 75 
Q 825 75 550 275 
Q 275 475 275 850 
Q 275 1225 525 1450 
Q 775 1675 1300 1750 
Q 1650 1800 1912 1875 
Q 2175 1950 2175 2075 
Q 2175 2225 2062 2375 
Q 1950 2525 1575 2525 
Q 1275 2525 1137 2412 
Q 1000 2300 950 2100 
L 400 2100 
Q 450 2500 762 2737 
Q 1075 2975 1575 2975 
Q 2125 2975 2400 2725 
Q 2675 2475 2675 2025 
L 2675 650 
Q 2675 500 2725 375 
Q 2775 250 2875 125 
z
M 2175 1050 
L 2175 1550 
Q 2025 1500 1887 1462 
Q 1750 1425 1425 1375 
Q 1050 1325 937 1200 
Q 825 1075 825 900 
Q 825 750 937 637 
Q 1050 525 1275 525 
Q 1500 525 1762 650 
Q 2025 775 2175 1050 
z
" transform="scale(0.015625)"/>
       <path id="SimHei-6c" d="M 1825 125 
L 1325 125 
L 1325 4400 
L 1825 4400 
L 1825 125 
z
" transform="scale(0.015625)"/>
       <path id="SimHei-20" transform="scale(0.015625)"/>
       <path id="SimHei-6b" d="M 2925 125 
L 2350 125 
L 1450 1650 
L 875 1100 
L 875 125 
L 375 125 
L 375 4400 
L 875 4400 
L 875 1675 
L 2125 2925 
L 2750 2925 
L 1775 1975 
L 2925 125 
z
" transform="scale(0.015625)"/>
       <path id="SimHei-4c" d="M 2900 125 
L 300 125 
L 300 4400 
L 875 4400 
L 875 600 
L 2900 600 
L 2900 125 
z
" transform="scale(0.015625)"/>
       <path id="SimHei-6e" d="M 2800 125 
L 2300 125 
L 2300 1925 
Q 2300 2225 2150 2400 
Q 2000 2575 1750 2575 
Q 1425 2575 1137 2237 
Q 850 1900 850 1400 
L 850 125 
L 350 125 
L 350 2925 
L 850 2925 
L 850 2400 
Q 1050 2675 1287 2825 
Q 1525 2975 1900 2975 
Q 2350 2975 2575 2725 
Q 2800 2475 2800 2100 
L 2800 125 
z
" transform="scale(0.015625)"/>
       <path id="SimHei-63" d="M 2850 1250 
Q 2850 725 2487 400 
Q 2125 75 1575 75 
Q 1025 75 625 462 
Q 225 850 225 1525 
Q 225 2200 625 2587 
Q 1025 2975 1575 2975 
Q 2125 2975 2450 2687 
Q 2775 2400 2775 2000 
L 2225 2000 
Q 2200 2300 2012 2412 
Q 1825 2525 1575 2525 
Q 1275 2525 1025 2287 
Q 775 2050 775 1525 
Q 775 1000 1025 762 
Q 1275 525 1575 525 
Q 1900 525 2100 700 
Q 2300 875 2300 1250 
L 2850 1250 
z
" transform="scale(0.015625)"/>
       <path id="SimHei-79" d="M 2900 2925 
L 1750 -100 
Q 1650 -450 1450 -625 
Q 1250 -800 950 -800 
Q 825 -800 712 -787 
Q 600 -775 500 -725 
L 500 -225 
Q 600 -275 700 -300 
Q 800 -325 875 -325 
Q 1075 -325 1150 -262 
Q 1225 -200 1300 25 
L 200 2925 
L 750 2925 
L 1550 725 
L 1575 725 
L 2350 2925 
L 2900 2925 
z
" transform="scale(0.015625)"/>
      </defs>
      <use xlink:href="#SimHei-54"/>
      <use xlink:href="#SimHei-6f" transform="translate(50 0)"/>
      <use xlink:href="#SimHei-74" transform="translate(100 0)"/>
      <use xlink:href="#SimHei-61" transform="translate(150 0)"/>
      <use xlink:href="#SimHei-6c" transform="translate(200 0)"/>
      <use xlink:href="#SimHei-20" transform="translate(250 0)"/>
      <use xlink:href="#SimHei-54" transform="translate(300 0)"/>
      <use xlink:href="#SimHei-61" transform="translate(350 0)"/>
      <use xlink:href="#SimHei-73" transform="translate(400 0)"/>
      <use xlink:href="#SimHei-6b" transform="translate(450 0)"/>
      <use xlink:href="#SimHei-20" transform="translate(500 0)"/>
      <use xlink:href="#SimHei-4c" transform="translate(550 0)"/>
      <use xlink:href="#SimHei-61" transform="translate(600 0)"/>
      <use xlink:href="#SimHei-74" transform="translate(650 0)"/>
      <use xlink:href="#SimHei-65" transform="translate(700 0)"/>
      <use xlink:href="#SimHei-6e" transform="translate(750 0)"/>
      <use xlink:href="#SimHei-63" transform="translate(800 0)"/>
      <use xlink:href="#SimHei-79" transform="translate(850 0)"/>
     </g>
    </g>
   </g>
   <g id="line2d_31">
    <path d="M 84.485227 135.987983 
L 85.912432 139.416314 
L 87.339636 147.38417 
L 88.76684 143.214515 
L 90.194045 144.171867 
L 91.621249 139.450084 
L 93.048454 133.816896 
L 94.475658 122.137136 
L 95.902862 129.83389 
L 97.330067 125.805213 
L 98.757271 127.237356 
L 100.184475 135.285905 
L 101.61168 141.584261 
L 103.038884 141.175946 
L 104.466089 156.318413 
L 105.893293 143.69512 
L 107.320497 146.083812 
L 108.747702 147.952148 
L 110.174906 152.145429 
L 111.60211 143.806857 
L 113.029315 142.350058 
L 114.456519 155.830892 
L 115.883724 153.610861 
L 117.310928 143.316681 
L 118.738132 153.926068 
L 120.165337 143.618 
L 121.592541 136.693405 
L 124.44695 170.288173 
L 125.874154 176.028091 
L 127.301359 174.360437 
L 128.728563 188.860237 
L 130.155767 186.723744 
L 131.582972 201.918532 
L 133.010176 206.111576 
L 135.864585 230.223196 
L 137.291789 239.875039 
L 138.718994 243.937882 
L 140.146198 249.836441 
L 141.573402 234.074716 
L 144.427811 252.419964 
L 145.855015 260.399515 
L 147.28222 267.108392 
L 148.709424 249.485631 
L 151.563833 266.274892 
L 154.418242 279.215871 
L 158.699855 294.368623 
L 160.127059 297.868146 
L 161.554263 302.097283 
L 162.981468 305.36879 
L 164.408672 307.918108 
L 165.835877 310.097006 
L 167.263081 312.796437 
L 168.690285 314.877689 
L 170.11749 317.59458 
L 171.544694 318.307883 
L 172.971898 319.792532 
L 174.399103 320.5518 
L 175.826307 320.910929 
L 177.253512 322.736368 
L 178.680716 324.172997 
L 180.10792 290.400559 
L 181.535125 265.135866 
L 182.962329 271.706216 
L 184.389533 244.345654 
L 185.816738 227.039264 
L 187.243942 231.791038 
L 188.671147 211.098591 
L 190.098351 223.713096 
L 192.95276 244.650196 
L 194.379964 241.238388 
L 195.807168 217.06864 
L 197.234373 228.252193 
L 198.661577 238.444653 
L 200.088782 247.624 
L 201.515986 250.987618 
L 202.94319 250.58204 
L 204.370395 255.672847 
L 205.797599 252.506085 
L 207.224803 239.773039 
L 208.652008 248.266863 
L 210.079212 240.230808 
L 211.506417 249.058479 
L 212.933621 232.166835 
L 215.78803 224.040418 
L 217.215234 213.380478 
L 218.642438 204.524239 
L 220.069643 193.291448 
L 221.496847 191.242066 
L 222.924052 196.04933 
L 224.351256 187.370176 
L 225.77846 188.963088 
L 228.632869 198.747549 
L 230.060073 206.709365 
L 231.487278 213.181697 
L 232.914482 222.480051 
L 234.341687 222.678025 
L 235.768891 218.116687 
L 237.196095 220.852867 
L 238.6233 229.769578 
L 240.050504 226.917462 
L 241.477708 228.971386 
L 242.904913 238.802385 
L 244.332117 234.711703 
L 245.759322 232.761707 
L 247.186526 236.769451 
L 248.61373 229.974311 
L 251.468139 208.004951 
L 252.895343 210.816607 
L 254.322548 208.37208 
L 255.749752 202.424538 
L 257.176957 192.273549 
L 258.604161 194.50843 
L 260.031365 185.754119 
L 261.45857 185.331406 
L 262.885774 198.946641 
L 264.312978 200.42994 
L 265.740183 206.50037 
L 267.167387 194.670147 
L 268.594592 188.611221 
L 270.021796 189.051077 
L 271.449 189.735725 
L 272.876205 179.854895 
L 274.303409 190.223668 
L 275.730613 186.803798 
L 277.157818 186.204436 
L 278.585022 186.192051 
L 280.012227 187.041232 
L 281.439431 198.271042 
L 282.866635 199.650486 
L 284.29384 187.358864 
L 285.721044 184.394016 
L 288.575453 168.34547 
L 290.002657 178.783242 
L 291.429862 175.465443 
L 292.857066 179.372417 
L 294.28427 181.814984 
L 295.711475 182.504939 
L 297.138679 176.712268 
L 298.565883 183.082433 
L 299.993088 180.883899 
L 301.420292 182.112305 
L 302.847497 181.130972 
L 304.274701 171.84198 
L 305.701905 179.048746 
L 307.12911 191.670423 
L 308.556314 192.859053 
L 309.983518 194.610763 
L 311.410723 196.88342 
L 312.837927 200.892573 
L 314.265132 196.321639 
L 315.692336 193.340986 
L 317.11954 189.85545 
L 319.973949 181.015368 
L 321.401153 182.24241 
L 322.828358 187.720121 
L 324.255562 185.479179 
L 325.682767 187.723856 
L 327.109971 186.729536 
L 328.537175 188.646119 
L 329.96438 182.500495 
L 331.391584 179.214705 
L 332.818788 180.64425 
L 334.245993 189.338347 
L 335.673197 195.941425 
L 337.100402 205.152792 
L 338.527606 193.039319 
L 339.95481 186.306288 
L 341.382015 193.617505 
L 342.809219 203.366602 
L 344.236423 204.899942 
L 345.663628 200.127041 
L 347.090832 208.661401 
L 348.518037 210.290033 
L 349.945241 215.749007 
L 351.372445 208.924525 
L 352.79965 208.566378 
L 354.226854 208.794463 
L 355.654058 195.071784 
L 357.081263 201.3907 
L 358.508467 209.773753 
L 359.935672 212.270325 
L 361.362876 209.868089 
L 362.79008 205.161285 
L 364.217285 198.409721 
L 365.644489 206.668154 
L 367.071693 202.795433 
L 368.498898 202.783961 
L 369.926102 186.810169 
L 371.353307 187.284928 
L 372.780511 174.098958 
L 374.207715 169.682203 
L 375.63492 171.387914 
L 377.062124 179.774246 
L 378.489328 189.111159 
L 379.916533 179.274344 
L 381.343737 190.538378 
L 382.770942 181.296519 
L 384.198146 182.69523 
L 385.62535 181.770231 
L 387.052555 185.785411 
L 388.479759 183.051407 
L 389.906963 183.052367 
L 391.334168 179.049003 
L 392.761372 191.013506 
L 394.188577 200.217808 
L 395.615781 199.292396 
L 397.042985 204.198821 
L 398.47019 211.798318 
L 399.897394 222.035188 
L 401.324598 222.462445 
L 402.751803 214.367749 
L 404.179007 218.950114 
L 405.606212 231.222016 
L 407.033416 221.505533 
L 408.46062 222.315441 
L 409.887825 212.003545 
L 411.315029 215.587519 
L 412.742233 211.548386 
L 414.169438 219.357683 
L 415.596642 203.407201 
L 417.023847 209.315283 
L 418.451051 202.045386 
L 419.878255 195.811978 
L 421.30546 187.036243 
L 422.732664 193.941759 
L 424.159868 188.107946 
L 425.587073 188.787873 
L 427.014277 187.60579 
L 428.441482 188.961903 
L 429.868686 190.792295 
L 431.29589 197.226746 
L 432.723095 204.660168 
L 434.150299 210.250784 
L 435.577503 211.102557 
L 437.004708 210.479999 
L 438.431912 213.708823 
L 439.859117 205.393832 
L 442.713525 186.038242 
L 444.14073 183.962241 
L 445.567934 180.878422 
L 446.995138 188.28174 
L 448.422343 185.936793 
L 449.849547 185.021106 
L 451.276752 181.893246 
L 454.13116 193.182063 
L 455.558365 190.906705 
L 456.985569 183.33848 
L 458.412773 195.997419 
L 459.839978 192.545362 
L 461.267182 190.07532 
L 462.694387 190.855988 
L 464.121591 195.479645 
L 465.548795 188.858598 
L 466.976 193.158334 
L 468.403204 193.068317 
L 469.830408 183.868298 
L 471.257613 189.896577 
L 472.684817 197.886549 
L 474.112022 193.093184 
L 475.539226 194.306872 
L 476.96643 191.268917 
L 478.393635 198.038932 
L 479.820839 196.01768 
L 481.248043 196.175885 
L 484.102452 211.218943 
L 485.529657 208.893698 
L 486.956861 213.802912 
L 488.384065 219.272793 
L 489.81127 222.74654 
L 491.238474 232.083514 
L 492.665678 211.952106 
L 494.092883 216.486077 
L 495.520087 219.911469 
L 496.947292 224.109911 
L 498.374496 231.607214 
L 499.8017 230.5466 
L 501.228905 232.038666 
L 502.656109 232.249791 
L 505.510518 246.23263 
L 506.937722 249.740597 
L 508.364927 250.612339 
L 509.792131 240.894589 
L 511.219335 240.092314 
L 512.64654 227.440079 
L 514.073744 225.8666 
L 515.500948 220.536978 
L 516.928153 219.296951 
L 518.355357 221.008248 
L 519.782562 224.07065 
L 521.209766 224.137855 
L 522.63697 217.544697 
L 524.064175 222.589338 
L 525.491379 215.89154 
L 526.918583 217.760166 
L 528.345788 205.969549 
L 531.200197 186.356988 
L 532.627401 185.742293 
L 534.054605 195.032781 
L 535.48181 187.803651 
L 536.909014 186.685367 
L 539.763423 201.22219 
L 541.190627 201.088118 
L 542.617832 200.62385 
L 544.045036 199.056304 
L 545.47224 209.630034 
L 546.899445 219.232832 
L 548.326649 215.801945 
L 549.753853 218.06426 
L 551.181058 213.206409 
L 552.608262 210.965051 
L 554.035467 219.418731 
L 555.462671 223.454195 
L 556.889875 220.741381 
L 558.31708 229.09967 
L 559.744284 221.125425 
L 561.171488 204.637191 
L 562.598693 200.803911 
L 564.025897 194.958021 
L 565.453102 194.620703 
L 566.880306 194.667528 
L 568.30751 196.877718 
L 569.734715 193.591097 
L 571.161919 186.869353 
L 572.589123 184.519036 
L 574.016328 178.118338 
L 575.443532 176.429202 
L 576.870737 178.856741 
L 579.725145 168.634374 
L 581.15235 179.521299 
L 582.579554 178.43591 
L 584.006758 182.998451 
L 585.433963 188.218307 
L 586.861167 194.520018 
L 588.288371 198.508927 
L 589.715576 194.290819 
L 591.14278 205.501691 
L 592.569985 201.034846 
L 593.997189 200.483239 
L 595.424393 194.767354 
L 596.851598 188.26281 
L 598.278802 186.606786 
L 599.706006 190.918428 
L 601.133211 195.643224 
L 602.560415 194.241389 
L 603.98762 186.186275 
L 605.414824 188.426333 
L 606.842028 180.424261 
L 608.269233 184.214548 
L 611.123641 189.270626 
L 612.550846 190.589047 
L 613.97805 200.867822 
L 615.405255 197.302762 
L 616.832459 190.424957 
L 618.259663 200.007593 
L 619.686868 206.559213 
L 621.114072 202.868318 
L 622.541276 195.62096 
L 623.968481 191.606558 
L 625.395685 193.44007 
L 626.82289 190.775515 
L 628.250094 192.30606 
L 629.677298 187.884437 
L 631.104503 189.935194 
L 633.958911 207.490443 
L 635.386116 208.265083 
L 636.81332 207.190908 
L 638.240525 209.378044 
L 639.667729 208.544018 
L 641.094933 219.262823 
L 642.522138 227.417044 
L 643.949342 226.612849 
L 645.376546 226.28448 
L 646.803751 230.749356 
L 648.230955 232.264222 
L 649.65816 230.968595 
L 651.085364 237.663378 
L 652.512568 237.767896 
L 652.512568 237.767896 
" clip-path="url(#p20c8787b71)" style="fill: none; stroke: #1f77b4; stroke-width: 1.2; stroke-linecap: square"/>
   </g>
   <g id="line2d_32">
    <path d="M 84.485227 104.825737 
L 85.912432 108.383656 
L 87.339636 112.542666 
L 88.76684 118.836545 
L 90.194045 120.803757 
L 91.621249 120.641295 
L 93.048454 120.598788 
L 95.902862 128.070264 
L 97.330067 129.386797 
L 98.757271 129.017431 
L 100.184475 123.747204 
L 101.61168 123.29434 
L 103.038884 127.354282 
L 104.466089 123.220364 
L 105.893293 126.395012 
L 107.320497 131.246366 
L 108.747702 126.868142 
L 110.174906 131.729243 
L 111.60211 127.815792 
L 113.029315 128.770367 
L 114.456519 126.690738 
L 115.883724 132.023749 
L 117.310928 142.120164 
L 118.738132 144.968105 
L 120.165337 145.25138 
L 121.592541 144.186317 
L 123.019745 137.996317 
L 124.44695 141.020337 
L 125.874154 143.690134 
L 127.301359 138.682445 
L 128.728563 145.107194 
L 130.155767 148.431335 
L 131.582972 146.847786 
L 133.010176 146.150866 
L 134.43738 143.34491 
L 135.864585 138.203846 
L 137.291789 144.960949 
L 138.718994 146.76341 
L 140.146198 143.903655 
L 143.000607 156.365667 
L 144.427811 161.167589 
L 145.855015 163.315604 
L 147.28222 164.445116 
L 148.709424 163.361262 
L 150.136629 163.847144 
L 151.563833 166.767582 
L 152.991037 165.126639 
L 154.418242 167.037771 
L 155.845446 170.027742 
L 157.27265 168.682839 
L 158.699855 170.13888 
L 160.127059 167.726255 
L 161.554263 170.317087 
L 162.981468 171.406764 
L 165.835877 179.202554 
L 167.263081 179.95262 
L 168.690285 179.577619 
L 170.11749 181.623563 
L 171.544694 181.780241 
L 172.971898 178.714205 
L 174.399103 182.68972 
L 175.826307 184.180473 
L 177.253512 184.668538 
L 178.680716 188.206507 
L 180.10792 193.351054 
L 181.535125 191.584001 
L 182.962329 189.52018 
L 184.389533 190.51393 
L 185.816738 190.684548 
L 187.243942 195.116436 
L 188.671147 201.117603 
L 190.098351 204.3318 
L 191.525555 199.241309 
L 192.95276 198.164875 
L 194.379964 200.526764 
L 195.807168 207.272116 
L 197.234373 207.832115 
L 198.661577 208.794512 
L 200.088782 210.624322 
L 201.515986 213.041962 
L 202.94319 212.147511 
L 204.370395 211.685638 
L 205.797599 215.164169 
L 207.224803 215.734055 
L 208.652008 217.614413 
L 210.079212 218.095112 
L 211.506417 219.225514 
L 212.933621 224.101017 
L 214.360825 226.906432 
L 215.78803 231.209384 
L 217.215234 231.864103 
L 218.642438 228.519158 
L 220.069643 231.520752 
L 221.496847 231.536949 
L 222.924052 232.999116 
L 224.351256 229.523481 
L 225.77846 231.29692 
L 227.205665 235.605746 
L 230.060073 239.734667 
L 231.487278 245.313219 
L 232.914482 247.385922 
L 234.341687 244.853959 
L 235.768891 245.783288 
L 237.196095 248.6261 
L 238.6233 247.541732 
L 240.050504 249.200531 
L 241.477708 249.026371 
L 242.904913 246.924744 
L 244.332117 251.212976 
L 245.759322 251.43839 
L 248.61373 259.32277 
L 250.040935 258.664841 
L 251.468139 260.873792 
L 252.895343 259.009346 
L 254.322548 259.692516 
L 257.176957 263.84572 
L 258.604161 266.619825 
L 260.031365 264.317656 
L 261.45857 260.334654 
L 262.885774 260.935125 
L 264.312978 266.536595 
L 265.740183 267.939091 
L 267.167387 272.794906 
L 268.594592 270.247483 
L 270.021796 268.082129 
L 271.449 269.630825 
L 272.876205 269.03403 
L 274.303409 270.279549 
L 275.730613 269.496741 
L 277.157818 272.535206 
L 278.585022 272.431433 
L 280.012227 269.781374 
L 281.439431 271.23434 
L 282.866635 272.009208 
L 285.721044 281.245362 
L 287.148248 282.719355 
L 290.002657 281.393649 
L 291.429862 286.025937 
L 292.857066 285.845708 
L 294.28427 287.182084 
L 295.711475 287.519334 
L 297.138679 289.626393 
L 298.565883 288.665243 
L 299.993088 283.587658 
L 301.420292 284.257938 
L 304.274701 282.917718 
L 305.701905 285.996294 
L 307.12911 285.509589 
L 308.556314 285.209771 
L 309.983518 286.736425 
L 311.410723 286.568661 
L 314.265132 287.145663 
L 315.692336 288.491477 
L 317.11954 291.595139 
L 318.546745 294.250353 
L 319.973949 295.85591 
L 321.401153 295.178484 
L 322.828358 294.994278 
L 324.255562 295.744863 
L 325.682767 295.992911 
L 327.109971 295.766297 
L 328.537175 298.560008 
L 329.96438 300.403725 
L 332.818788 302.233984 
L 334.245993 302.17202 
L 335.673197 301.65482 
L 338.527606 295.964718 
L 339.95481 296.638333 
L 341.382015 294.000202 
L 342.809219 294.943513 
L 344.236423 297.460559 
L 345.663628 296.943659 
L 347.090832 298.455972 
L 348.518037 298.291607 
L 349.945241 301.108625 
L 351.372445 300.0245 
L 352.79965 300.213842 
L 354.226854 298.983682 
L 355.654058 297.593419 
L 358.508467 302.554185 
L 359.935672 301.886778 
L 361.362876 301.490529 
L 362.79008 299.544971 
L 364.217285 301.823415 
L 365.644489 300.826697 
L 367.071693 302.080084 
L 368.498898 304.395212 
L 369.926102 302.575197 
L 372.780511 307.027341 
L 374.207715 308.698839 
L 375.63492 307.823987 
L 377.062124 309.860551 
L 378.489328 311.24278 
L 379.916533 311.348355 
L 381.343737 312.724655 
L 382.770942 313.241913 
L 384.198146 314.27813 
L 385.62535 313.879313 
L 387.052555 314.241117 
L 388.479759 314.976343 
L 389.906963 313.984228 
L 391.334168 310.624114 
L 394.188577 313.722132 
L 395.615781 311.952511 
L 397.042985 313.017433 
L 398.47019 313.094119 
L 399.897394 313.04704 
L 401.324598 315.345575 
L 402.751803 316.774583 
L 404.179007 317.565465 
L 405.606212 314.814365 
L 407.033416 316.858574 
L 408.46062 318.612512 
L 409.887825 318.725249 
L 411.315029 319.093744 
L 412.742233 319.327433 
L 414.169438 318.820286 
L 415.596642 318.056637 
L 417.023847 316.427673 
L 418.451051 316.462049 
L 419.878255 317.878023 
L 421.30546 317.757741 
L 422.732664 318.437081 
L 425.587073 319.176944 
L 427.014277 319.205285 
L 428.441482 318.139664 
L 429.868686 317.830843 
L 431.29589 316.065581 
L 432.723095 317.725475 
L 434.150299 316.738311 
L 435.577503 316.762462 
L 437.004708 318.037364 
L 438.431912 317.921754 
L 439.859117 316.836189 
L 441.286321 318.101738 
L 442.713525 318.228027 
L 444.14073 316.117018 
L 445.567934 313.364111 
L 446.995138 314.310336 
L 448.422343 315.727322 
L 449.849547 316.53379 
L 451.276752 316.662746 
L 452.703956 316.497579 
L 455.558365 319.224305 
L 456.985569 318.862173 
L 458.412773 318.897379 
L 459.839978 320.933908 
L 461.267182 322.1867 
L 462.694387 322.060886 
L 464.121591 320.127393 
L 465.548795 321.217954 
L 466.976 319.715768 
L 468.403204 319.812445 
L 469.830408 317.642635 
L 472.684817 316.293471 
L 474.112022 317.952428 
L 475.539226 316.833035 
L 476.96643 317.833904 
L 478.393635 316.762479 
L 479.820839 318.546161 
L 481.248043 316.55712 
L 482.675248 315.406634 
L 484.102452 315.534485 
L 485.529657 317.242781 
L 486.956861 318.142838 
L 488.384065 318.257829 
L 489.81127 319.599067 
L 491.238474 320.154753 
L 492.665678 318.908959 
L 495.520087 321.251138 
L 496.947292 321.329717 
L 498.374496 320.567896 
L 499.8017 321.345988 
L 501.228905 322.755394 
L 502.656109 323.035044 
L 504.083313 323.052801 
L 505.510518 323.905505 
L 506.937722 323.893023 
L 508.364927 325.110819 
L 509.792131 325.00923 
L 511.219335 324.470253 
L 512.64654 325.507955 
L 514.073744 325.612844 
L 515.500948 326.060644 
L 516.928153 326.884045 
L 518.355357 328.362576 
L 519.782562 330.012897 
L 521.209766 329.307357 
L 522.63697 327.511937 
L 524.064175 327.585454 
L 525.491379 327.967126 
L 526.918583 328.84901 
L 528.345788 329.539757 
L 529.772992 329.217 
L 531.200197 330.092257 
L 534.054605 329.501412 
L 535.48181 330.382005 
L 536.909014 330.565799 
L 538.336218 329.39862 
L 539.763423 328.772619 
L 541.190627 329.050318 
L 542.617832 329.897692 
L 544.045036 329.847796 
L 545.47224 330.783217 
L 546.899445 329.200483 
L 548.326649 329.620046 
L 549.753853 329.553944 
L 551.181058 328.593915 
L 552.608262 328.715676 
L 554.035467 328.985119 
L 556.889875 330.038398 
L 558.31708 329.590838 
L 559.744284 330.201457 
L 561.171488 329.496708 
L 562.598693 330.907772 
L 564.025897 330.053031 
L 565.453102 329.43132 
L 566.880306 328.130962 
L 568.30751 325.658106 
L 569.734715 325.997057 
L 571.161919 326.57572 
L 572.589123 326.087139 
L 574.016328 326.176211 
L 575.443532 327.531296 
L 576.870737 328.611925 
L 578.297941 329.423625 
L 579.725145 328.869143 
L 581.15235 329.933108 
L 582.579554 329.425408 
L 584.006758 328.35728 
L 585.433963 328.582297 
L 586.861167 328.005177 
L 588.288371 327.727461 
L 589.715576 328.377932 
L 591.14278 327.895673 
L 592.569985 325.335508 
L 593.997189 326.429967 
L 595.424393 326.214736 
L 596.851598 324.96824 
L 598.278802 325.585342 
L 599.706006 325.551298 
L 601.133211 326.400203 
L 602.560415 327.701636 
L 603.98762 328.449594 
L 605.414824 328.51756 
L 606.842028 329.600558 
L 608.269233 330.259504 
L 609.696437 328.675596 
L 612.550846 328.978844 
L 613.97805 329.628298 
L 615.405255 329.529416 
L 616.832459 329.822119 
L 618.259663 329.855271 
L 619.686868 329.394776 
L 621.114072 329.495907 
L 622.541276 329.133913 
L 625.395685 326.298583 
L 626.82289 326.715873 
L 628.250094 325.860928 
L 629.677298 325.623505 
L 631.104503 325.901458 
L 632.531707 326.543948 
L 635.386116 327.393025 
L 636.81332 327.887993 
L 638.240525 328.259621 
L 639.667729 327.530898 
L 641.094933 327.376612 
L 642.522138 327.846305 
L 643.949342 327.855108 
L 645.376546 326.606342 
L 646.803751 327.673896 
L 649.65816 326.426802 
L 651.085364 326.096097 
L 652.512568 326.385223 
L 652.512568 326.385223 
" clip-path="url(#p20c8787b71)" style="fill: none; stroke: #ff7f0e; stroke-width: 1.2; stroke-linecap: square"/>
   </g>
   <g id="line2d_33">
    <path d="M 84.485227 133.704191 
L 85.912432 134.537908 
L 87.339636 131.104494 
L 88.76684 123.749567 
L 90.194045 120.385963 
L 91.621249 117.710449 
L 93.048454 112.005545 
L 94.475658 108.859123 
L 95.902862 108.178323 
L 97.330067 105.991797 
L 98.757271 107.877996 
L 100.184475 103.515541 
L 101.61168 99.694647 
L 103.038884 98.494126 
L 104.466089 103.944957 
L 105.893293 101.005437 
L 107.320497 100.839121 
L 108.747702 99.427725 
L 110.174906 99.443105 
L 111.60211 96.107942 
L 113.029315 90.789782 
L 114.456519 86.727146 
L 115.883724 81.78136 
L 117.310928 75.415029 
L 118.738132 70.762228 
L 120.165337 70.348308 
L 121.592541 66.57348 
L 123.019745 69.712928 
L 124.44695 72.014628 
L 125.874154 71.778382 
L 127.301359 66.645745 
L 128.728563 66.235213 
L 130.155767 63.832716 
L 131.582972 62.599476 
L 133.010176 58.832945 
L 134.43738 57.759483 
L 135.864585 58.20224 
L 137.291789 55.68653 
L 138.718994 55.465634 
L 140.146198 48.838145 
L 141.573402 54.468053 
L 144.427811 74.97318 
L 145.855015 81.804681 
L 147.28222 94.670635 
L 148.709424 104.02147 
L 150.136629 114.215014 
L 151.563833 116.630797 
L 154.418242 131.112949 
L 155.845446 135.537737 
L 157.27265 141.461994 
L 158.699855 145.826767 
L 160.127059 152.16384 
L 161.554263 160.42552 
L 162.981468 161.804637 
L 164.408672 165.228506 
L 165.835877 171.758504 
L 167.263081 177.598827 
L 168.690285 180.669062 
L 170.11749 183.100478 
L 171.544694 184.211008 
L 172.971898 187.41146 
L 177.253512 200.941711 
L 178.680716 200.969292 
L 180.10792 199.50889 
L 181.535125 202.956588 
L 182.962329 204.22717 
L 184.389533 203.819653 
L 187.243942 208.327431 
L 188.671147 211.204255 
L 190.098351 216.511227 
L 191.525555 224.083386 
L 192.95276 234.787777 
L 194.379964 244.606691 
L 195.807168 253.597932 
L 197.234373 261.84095 
L 198.661577 268.685216 
L 201.515986 280.268047 
L 204.370395 290.556516 
L 205.797599 294.730969 
L 207.224803 299.312475 
L 208.652008 302.204359 
L 210.079212 305.358611 
L 211.506417 307.751841 
L 212.933621 310.573592 
L 214.360825 313.048457 
L 215.78803 314.726989 
L 217.215234 317.007329 
L 218.642438 318.434509 
L 220.069643 320.481678 
L 221.496847 321.542129 
L 222.924052 323.42843 
L 225.77846 325.485417 
L 227.205665 326.181209 
L 228.632869 327.51577 
L 230.060073 328.583607 
L 231.487278 328.740411 
L 232.914482 329.773568 
L 234.341687 330.632651 
L 235.768891 331.677978 
L 238.6233 331.751728 
L 240.050504 332.06955 
L 241.477708 333.157047 
L 242.904913 333.009053 
L 244.332117 332.65674 
L 245.759322 331.758098 
L 247.186526 332.481038 
L 248.61373 332.887072 
L 250.040935 332.796345 
L 251.468139 332.047826 
L 252.895343 331.616711 
L 254.322548 330.414093 
L 255.749752 331.133743 
L 257.176957 331.198521 
L 260.031365 331.697277 
L 261.45857 332.155848 
L 262.885774 331.734522 
L 264.312978 332.194755 
L 265.740183 332.518839 
L 267.167387 332.643323 
L 268.594592 332.333386 
L 270.021796 333.134361 
L 271.449 333.215166 
L 272.876205 333.514583 
L 275.730613 332.341044 
L 277.157818 332.78853 
L 278.585022 331.951995 
L 280.012227 331.277892 
L 281.439431 331.920591 
L 282.866635 332.040983 
L 284.29384 332.920476 
L 285.721044 333.204554 
L 287.148248 332.268293 
L 288.575453 331.811773 
L 294.28427 332.51536 
L 295.711475 331.713905 
L 297.138679 330.714423 
L 298.565883 330.510118 
L 301.420292 330.944322 
L 302.847497 330.627458 
L 304.274701 330.9931 
L 307.12911 330.918191 
L 309.983518 330.337569 
L 311.410723 330.890931 
L 314.265132 331.560201 
L 315.692336 332.325317 
L 317.11954 332.294043 
L 321.401153 332.898634 
L 322.828358 333.063348 
L 324.255562 332.860899 
L 325.682767 332.085138 
L 327.109971 332.12717 
L 328.537175 333.070672 
L 329.96438 332.815491 
L 331.391584 332.86436 
L 332.818788 332.731299 
L 334.245993 333.675047 
L 335.673197 332.391151 
L 337.100402 332.839534 
L 338.527606 331.853631 
L 339.95481 331.457827 
L 341.382015 331.377295 
L 342.809219 331.481177 
L 344.236423 331.446756 
L 345.663628 331.291054 
L 347.090832 332.500395 
L 348.518037 332.501701 
L 351.372445 331.862676 
L 352.79965 332.281989 
L 354.226854 331.873938 
L 355.654058 332.243268 
L 357.081263 331.782635 
L 358.508467 331.937348 
L 359.935672 331.625776 
L 361.362876 331.024381 
L 362.79008 332.221833 
L 364.217285 331.658902 
L 365.644489 331.854643 
L 368.498898 331.31786 
L 369.926102 331.264975 
L 371.353307 332.343222 
L 372.780511 333.00297 
L 374.207715 333.411554 
L 375.63492 333.064092 
L 378.489328 333.595867 
L 379.916533 333.169981 
L 381.343737 333.909397 
L 382.770942 333.343012 
L 385.62535 333.560693 
L 387.052555 333.482279 
L 388.479759 332.877739 
L 389.906963 333.024559 
L 391.334168 332.355767 
L 392.761372 332.817031 
L 394.188577 332.822527 
L 395.615781 331.949793 
L 397.042985 331.667151 
L 398.47019 332.958365 
L 399.897394 333.377912 
L 407.033416 333.361807 
L 408.46062 333.638007 
L 409.887825 333.528816 
L 411.315029 333.820622 
L 412.742233 334.599013 
L 414.169438 334.621314 
L 415.596642 334.019968 
L 417.023847 333.836357 
L 418.451051 333.469086 
L 419.878255 334.462916 
L 421.30546 333.32659 
L 422.732664 333.888782 
L 424.159868 333.218911 
L 425.587073 333.995304 
L 427.014277 333.589273 
L 428.441482 334.056474 
L 429.868686 335.099474 
L 431.29589 334.373706 
L 432.723095 333.209161 
L 434.150299 333.105283 
L 435.577503 332.681865 
L 437.004708 333.247227 
L 438.431912 333.972501 
L 439.859117 334.523036 
L 441.286321 334.737801 
L 442.713525 334.247825 
L 444.14073 335.17103 
L 445.567934 334.857159 
L 448.422343 334.951415 
L 449.849547 334.387258 
L 451.276752 334.23163 
L 452.703956 334.397729 
L 454.13116 333.700382 
L 455.558365 333.710969 
L 456.985569 333.430151 
L 458.412773 333.744346 
L 459.839978 333.174859 
L 461.267182 333.349537 
L 464.121591 333.180498 
L 465.548795 333.653529 
L 466.976 333.378214 
L 468.403204 333.241819 
L 469.830408 332.729614 
L 471.257613 332.85542 
L 472.684817 332.643269 
L 474.112022 332.078543 
L 475.539226 332.297341 
L 476.96643 333.134734 
L 478.393635 332.226442 
L 479.820839 332.481901 
L 481.248043 332.18168 
L 482.675248 332.187847 
L 484.102452 332.81352 
L 485.529657 332.678434 
L 486.956861 332.396 
L 488.384065 332.431419 
L 489.81127 333.246951 
L 491.238474 333.432305 
L 492.665678 333.296713 
L 494.092883 333.026398 
L 495.520087 333.575314 
L 498.374496 333.593853 
L 501.228905 332.70883 
L 502.656109 333.208961 
L 505.510518 332.928489 
L 506.937722 333.000948 
L 508.364927 332.707221 
L 509.792131 332.612073 
L 511.219335 332.970165 
L 512.64654 332.972843 
L 514.073744 332.700835 
L 515.500948 333.273647 
L 516.928153 333.524698 
L 518.355357 333.268054 
L 519.782562 333.853965 
L 521.209766 333.37963 
L 522.63697 333.924335 
L 524.064175 333.858906 
L 526.918583 334.141544 
L 528.345788 333.124149 
L 529.772992 333.157289 
L 531.200197 333.967285 
L 532.627401 333.398207 
L 534.054605 334.018251 
L 535.48181 334.212484 
L 536.909014 334.746737 
L 538.336218 333.750556 
L 539.763423 333.977265 
L 541.190627 333.631822 
L 542.617832 333.441941 
L 544.045036 333.658303 
L 545.47224 333.3152 
L 546.899445 333.421934 
L 548.326649 334.319999 
L 551.181058 334.779302 
L 552.608262 333.979755 
L 555.462671 334.229263 
L 559.744284 332.833226 
L 561.171488 333.187712 
L 562.598693 333.101715 
L 564.025897 332.533441 
L 565.453102 332.901985 
L 566.880306 333.47822 
L 568.30751 333.191606 
L 569.734715 332.608072 
L 571.161919 332.688313 
L 572.589123 332.195174 
L 574.016328 332.358393 
L 576.870737 331.828176 
L 578.297941 330.867544 
L 581.15235 332.144992 
L 582.579554 332.185621 
L 584.006758 332.474233 
L 585.433963 331.642977 
L 586.861167 331.814723 
L 588.288371 332.485456 
L 589.715576 332.415519 
L 591.14278 333.865557 
L 592.569985 334.037582 
L 593.997189 333.865598 
L 595.424393 333.249736 
L 596.851598 333.148023 
L 598.278802 333.180116 
L 599.706006 332.610135 
L 601.133211 332.570918 
L 602.560415 333.184503 
L 603.98762 332.793372 
L 605.414824 332.941365 
L 606.842028 333.710819 
L 608.269233 332.681883 
L 609.696437 332.226906 
L 611.123641 332.079558 
L 615.405255 332.539336 
L 618.259663 331.611644 
L 619.686868 331.5396 
L 621.114072 331.869142 
L 623.968481 331.13925 
L 625.395685 331.441749 
L 628.250094 331.48502 
L 629.677298 331.15643 
L 631.104503 332.274106 
L 632.531707 332.370122 
L 633.958911 332.954183 
L 635.386116 333.269668 
L 636.81332 334.647922 
L 638.240525 335.529055 
L 639.667729 335.209098 
L 642.522138 333.715276 
L 643.949342 333.328138 
L 645.376546 333.498873 
L 646.803751 334.067803 
L 648.230955 333.59567 
L 653.939773 334.891297 
L 653.939773 334.891297 
" clip-path="url(#p20c8787b71)" style="fill: none; stroke: #2ca02c; stroke-width: 1.2; stroke-linecap: square"/>
   </g>
   <g id="line2d_34">
    <path d="M 84.485227 112.174835 
L 85.912432 111.43177 
L 88.76684 105.760489 
L 90.194045 104.871831 
L 91.621249 99.761718 
L 93.048454 101.272878 
L 94.475658 99.508572 
L 95.902862 99.004622 
L 97.330067 97.847928 
L 98.757271 97.433328 
L 100.184475 96.749838 
L 101.61168 90.844523 
L 103.038884 89.495722 
L 104.466089 87.094729 
L 105.893293 88.278278 
L 107.320497 93.716423 
L 108.747702 92.264126 
L 110.174906 91.708614 
L 111.60211 94.345641 
L 113.029315 93.048739 
L 114.456519 92.206937 
L 115.883724 88.811406 
L 117.310928 86.217216 
L 118.738132 85.910502 
L 120.165337 83.714615 
L 121.592541 85.645202 
L 123.019745 83.467227 
L 125.874154 86.148885 
L 127.301359 86.712037 
L 128.728563 84.380469 
L 130.155767 80.770899 
L 131.582972 75.619583 
L 134.43738 121.541804 
L 135.864585 142.504812 
L 137.291789 161.497238 
L 138.718994 178.587767 
L 140.146198 192.871681 
L 143.000607 218.058085 
L 145.855015 239.073339 
L 147.28222 248.905072 
L 150.136629 263.236627 
L 151.563833 268.821055 
L 152.991037 275.465617 
L 154.418242 281.072662 
L 155.845446 284.981135 
L 157.27265 289.879166 
L 158.699855 294.161748 
L 160.127059 296.881368 
L 161.554263 300.754222 
L 162.981468 303.881761 
L 164.408672 306.1127 
L 165.835877 307.73731 
L 167.263081 310.467506 
L 168.690285 312.807563 
L 170.11749 314.752683 
L 171.544694 317.648682 
L 172.971898 318.954662 
L 174.399103 319.766907 
L 175.826307 319.521612 
L 178.680716 321.591556 
L 180.10792 323.396542 
L 181.535125 323.344837 
L 184.389533 325.959922 
L 185.816738 326.424238 
L 187.243942 327.305928 
L 188.671147 327.352694 
L 190.098351 328.330564 
L 191.525555 328.920418 
L 192.95276 329.870961 
L 194.379964 330.009889 
L 195.807168 329.986761 
L 197.234373 329.076827 
L 198.661577 329.660788 
L 200.088782 328.607427 
L 201.515986 328.599883 
L 202.94319 329.013179 
L 204.370395 326.906702 
L 205.797599 327.766527 
L 207.224803 328.27877 
L 208.652008 327.718161 
L 210.079212 328.320115 
L 211.506417 327.581491 
L 212.933621 328.121534 
L 214.360825 328.320111 
L 215.78803 329.412626 
L 218.642438 329.095153 
L 220.069643 328.679582 
L 221.496847 328.626099 
L 222.924052 328.985768 
L 224.351256 328.828245 
L 225.77846 329.275626 
L 227.205665 329.980577 
L 228.632869 330.553053 
L 230.060073 330.249895 
L 231.487278 330.537294 
L 232.914482 329.918645 
L 234.341687 329.687164 
L 235.768891 329.677589 
L 237.196095 329.332228 
L 238.6233 329.593151 
L 240.050504 330.270012 
L 241.477708 330.200731 
L 242.904913 330.63363 
L 244.332117 330.054411 
L 245.759322 329.894252 
L 247.186526 330.041493 
L 248.61373 328.970675 
L 250.040935 327.01855 
L 251.468139 327.760706 
L 252.895343 328.372871 
L 254.322548 328.671307 
L 255.749752 328.730232 
L 257.176957 329.631349 
L 258.604161 330.372213 
L 260.031365 330.717722 
L 261.45857 332.033452 
L 262.885774 331.209594 
L 264.312978 331.149129 
L 265.740183 331.507344 
L 267.167387 331.16996 
L 268.594592 331.904835 
L 270.021796 332.347727 
L 271.449 331.563729 
L 272.876205 331.490214 
L 274.303409 332.084141 
L 275.730613 330.781329 
L 277.157818 330.510333 
L 278.585022 331.11733 
L 280.012227 331.22568 
L 281.439431 328.892308 
L 282.866635 329.067073 
L 284.29384 329.586562 
L 285.721044 330.272405 
L 287.148248 329.00686 
L 288.575453 329.996365 
L 290.002657 330.249782 
L 291.429862 329.490397 
L 292.857066 329.401177 
L 294.28427 329.828366 
L 295.711475 329.820169 
L 297.138679 329.303628 
L 299.993088 327.770062 
L 301.420292 328.800587 
L 302.847497 328.981202 
L 304.274701 328.959554 
L 305.701905 329.151948 
L 308.556314 329.960151 
L 309.983518 328.30458 
L 311.410723 328.732771 
L 312.837927 328.803057 
L 314.265132 329.015013 
L 315.692336 330.498939 
L 317.11954 330.461791 
L 318.546745 330.000401 
L 319.973949 328.454589 
L 321.401153 327.748783 
L 322.828358 328.774734 
L 324.255562 327.392408 
L 325.682767 327.320865 
L 328.537175 328.251227 
L 329.96438 329.198389 
L 331.391584 328.483612 
L 332.818788 329.199431 
L 334.245993 329.385817 
L 335.673197 329.195111 
L 337.100402 328.500158 
L 338.527606 328.386175 
L 339.95481 328.735125 
L 341.382015 328.828253 
L 344.236423 329.809096 
L 345.663628 328.770821 
L 347.090832 328.79901 
L 348.518037 327.87929 
L 349.945241 328.029798 
L 351.372445 327.54346 
L 354.226854 329.469145 
L 355.654058 329.254037 
L 358.508467 330.093087 
L 359.935672 329.889608 
L 361.362876 330.306289 
L 362.79008 330.536422 
L 364.217285 331.238629 
L 365.644489 330.040751 
L 367.071693 330.088836 
L 368.498898 329.216012 
L 369.926102 329.540559 
L 371.353307 330.390122 
L 372.780511 330.460431 
L 374.207715 331.665945 
L 375.63492 331.554262 
L 377.062124 331.07762 
L 378.489328 331.754035 
L 379.916533 332.018254 
L 381.343737 331.790896 
L 382.770942 332.185937 
L 384.198146 332.381129 
L 385.62535 331.203618 
L 387.052555 331.640076 
L 388.479759 332.301945 
L 389.906963 332.502584 
L 391.334168 332.858196 
L 394.188577 333.368776 
L 395.615781 332.031513 
L 398.47019 331.676708 
L 399.897394 331.685413 
L 401.324598 332.256063 
L 402.751803 331.78652 
L 405.606212 332.419175 
L 407.033416 332.331319 
L 408.46062 332.515774 
L 409.887825 332.954436 
L 411.315029 332.629662 
L 412.742233 333.060134 
L 414.169438 333.119484 
L 415.596642 332.968223 
L 417.023847 331.812005 
L 421.30546 331.877482 
L 422.732664 331.430153 
L 424.159868 331.418944 
L 425.587073 330.80858 
L 427.014277 330.894014 
L 428.441482 329.712321 
L 429.868686 330.02753 
L 431.29589 330.49965 
L 432.723095 330.701147 
L 434.150299 331.798978 
L 435.577503 331.520194 
L 437.004708 332.371343 
L 438.431912 332.973361 
L 439.859117 333.430976 
L 441.286321 333.32108 
L 442.713525 333.007035 
L 445.567934 331.578821 
L 446.995138 331.254363 
L 449.849547 331.530842 
L 451.276752 330.276534 
L 452.703956 329.304855 
L 454.13116 329.716698 
L 455.558365 329.058197 
L 456.985569 329.496074 
L 458.412773 330.335491 
L 459.839978 330.132826 
L 461.267182 330.198131 
L 462.694387 330.527974 
L 464.121591 330.069017 
L 465.548795 329.310208 
L 466.976 329.553486 
L 468.403204 329.189961 
L 469.830408 329.263444 
L 471.257613 328.931827 
L 472.684817 329.529071 
L 475.539226 330.113063 
L 476.96643 329.787202 
L 478.393635 330.010095 
L 481.248043 331.347971 
L 484.102452 329.816361 
L 485.529657 330.077751 
L 486.956861 330.546818 
L 488.384065 330.552248 
L 489.81127 330.293296 
L 491.238474 330.996202 
L 492.665678 330.82855 
L 494.092883 330.011348 
L 495.520087 329.650978 
L 496.947292 330.019731 
L 498.374496 329.498533 
L 499.8017 330.145008 
L 501.228905 328.42745 
L 502.656109 327.548176 
L 505.510518 327.844971 
L 506.937722 329.226313 
L 509.792131 329.36063 
L 511.219335 330.091996 
L 512.64654 330.492253 
L 514.073744 330.664525 
L 515.500948 331.251206 
L 516.928153 331.537308 
L 519.782562 331.158168 
L 521.209766 330.768944 
L 522.63697 329.993187 
L 524.064175 330.196691 
L 525.491379 330.731875 
L 526.918583 330.769287 
L 528.345788 330.975223 
L 529.772992 330.122052 
L 531.200197 330.520584 
L 532.627401 329.500837 
L 534.054605 329.983217 
L 535.48181 328.999046 
L 536.909014 329.313172 
L 538.336218 330.340383 
L 539.763423 329.904945 
L 546.899445 330.980464 
L 548.326649 328.956733 
L 549.753853 330.021589 
L 551.181058 329.87007 
L 552.608262 330.322942 
L 554.035467 329.478861 
L 555.462671 330.355397 
L 556.889875 330.227007 
L 558.31708 330.481457 
L 559.744284 329.99359 
L 561.171488 330.050963 
L 562.598693 329.981883 
L 565.453102 330.10943 
L 566.880306 329.381022 
L 568.30751 330.67367 
L 569.734715 331.119179 
L 572.589123 329.893606 
L 574.016328 329.452292 
L 576.870737 329.694083 
L 578.297941 329.70177 
L 579.725145 329.490042 
L 581.15235 330.375735 
L 582.579554 330.726719 
L 584.006758 330.766949 
L 585.433963 331.020149 
L 586.861167 330.385869 
L 588.288371 330.239198 
L 591.14278 331.077976 
L 592.569985 330.738196 
L 593.997189 330.226026 
L 595.424393 330.141424 
L 596.851598 330.588305 
L 598.278802 330.917293 
L 599.706006 330.469266 
L 601.133211 330.475128 
L 602.560415 330.653289 
L 603.98762 331.323619 
L 605.414824 330.810252 
L 606.842028 331.774864 
L 608.269233 331.07115 
L 609.696437 330.985333 
L 611.123641 331.232184 
L 612.550846 330.014881 
L 613.97805 330.050975 
L 616.832459 331.392666 
L 618.259663 331.36937 
L 619.686868 332.323929 
L 622.541276 330.382784 
L 623.968481 330.148243 
L 625.395685 328.387388 
L 626.82289 329.437619 
L 628.250094 329.858466 
L 629.677298 329.90752 
L 632.531707 330.135353 
L 633.958911 330.554742 
L 635.386116 331.233232 
L 636.81332 330.724873 
L 638.240525 330.779831 
L 639.667729 331.425938 
L 641.094933 331.523649 
L 642.522138 331.92224 
L 643.949342 331.885705 
L 645.376546 332.033799 
L 646.803751 332.442179 
L 648.230955 332.070147 
L 649.65816 332.563902 
L 651.085364 332.641579 
L 652.512568 331.742967 
L 653.939773 332.920151 
L 653.939773 332.920151 
" clip-path="url(#p20c8787b71)" style="fill: none; stroke: #d62728; stroke-width: 1.2; stroke-linecap: square"/>
   </g>
   <g id="line2d_35">
    <path d="M 84.485227 113.440789 
L 85.912432 117.82149 
L 87.339636 118.633802 
L 90.194045 140.293566 
L 91.621249 155.117154 
L 95.902862 193.039327 
L 97.330067 204.303163 
L 98.757271 214.013156 
L 100.184475 225.283439 
L 103.038884 244.433163 
L 107.320497 268.435832 
L 108.747702 274.759872 
L 110.174906 279.82801 
L 111.60211 284.128718 
L 114.456519 293.965349 
L 115.883724 297.515488 
L 117.310928 299.717575 
L 118.738132 302.518203 
L 120.165337 306.262719 
L 121.592541 308.046097 
L 123.019745 310.719221 
L 124.44695 312.236133 
L 125.874154 314.144677 
L 127.301359 316.409587 
L 128.728563 318.369523 
L 130.155767 320.082158 
L 131.582972 320.851537 
L 133.010176 321.992365 
L 134.43738 323.636788 
L 135.864585 323.398023 
L 137.291789 323.567052 
L 138.718994 323.494161 
L 140.146198 324.110225 
L 141.573402 325.085595 
L 143.000607 326.292813 
L 144.427811 326.863872 
L 145.855015 327.63013 
L 147.28222 328.171273 
L 148.709424 327.816722 
L 150.136629 328.539057 
L 151.563833 328.321679 
L 152.991037 327.642476 
L 154.418242 328.331125 
L 155.845446 328.740678 
L 157.27265 329.419882 
L 158.699855 329.730413 
L 161.554263 329.050766 
L 162.981468 329.217203 
L 164.408672 328.871938 
L 165.835877 328.865304 
L 167.263081 329.882433 
L 168.690285 329.514544 
L 170.11749 329.008239 
L 171.544694 328.681364 
L 172.971898 329.579116 
L 174.399103 329.249117 
L 175.826307 329.977315 
L 177.253512 330.248585 
L 178.680716 329.896873 
L 181.535125 330.404738 
L 184.389533 329.681923 
L 185.816738 330.128631 
L 187.243942 331.280968 
L 188.671147 331.845137 
L 191.525555 331.851224 
L 192.95276 331.662481 
L 194.379964 331.724255 
L 195.807168 331.647674 
L 197.234373 331.772099 
L 200.088782 332.72664 
L 202.94319 330.279436 
L 205.797599 330.478684 
L 207.224803 331.394444 
L 208.652008 331.125966 
L 210.079212 331.040839 
L 212.933621 330.025228 
L 214.360825 329.55621 
L 215.78803 330.418624 
L 217.215234 330.306166 
L 220.069643 328.428279 
L 221.496847 326.954206 
L 222.924052 328.41065 
L 224.351256 328.921769 
L 228.632869 329.372592 
L 230.060073 329.031786 
L 231.487278 330.012899 
L 232.914482 330.354656 
L 234.341687 330.391145 
L 235.768891 329.981318 
L 237.196095 330.383974 
L 238.6233 330.338286 
L 240.050504 331.179897 
L 241.477708 330.915258 
L 242.904913 330.509387 
L 244.332117 330.315908 
L 245.759322 331.097634 
L 247.186526 330.947126 
L 248.61373 331.817627 
L 250.040935 331.65274 
L 251.468139 330.611073 
L 252.895343 330.314298 
L 254.322548 329.761497 
L 255.749752 329.964633 
L 257.176957 331.003733 
L 258.604161 331.707244 
L 260.031365 331.698472 
L 261.45857 331.029334 
L 262.885774 331.582907 
L 264.312978 331.849189 
L 265.740183 332.532343 
L 267.167387 330.744817 
L 268.594592 330.950417 
L 270.021796 329.782734 
L 271.449 330.364334 
L 272.876205 330.564661 
L 274.303409 331.643573 
L 275.730613 331.647858 
L 277.157818 332.067322 
L 278.585022 331.898812 
L 282.866635 332.048724 
L 284.29384 332.405827 
L 285.721044 332.595472 
L 287.148248 333.529244 
L 288.575453 333.306946 
L 290.002657 333.427823 
L 291.429862 332.528636 
L 292.857066 332.20786 
L 294.28427 331.285847 
L 295.711475 331.683715 
L 297.138679 331.549531 
L 298.565883 331.160584 
L 299.993088 331.247472 
L 301.420292 331.154621 
L 302.847497 331.404362 
L 304.274701 331.76873 
L 305.701905 331.698365 
L 307.12911 331.360174 
L 308.556314 330.565809 
L 309.983518 330.976895 
L 314.265132 330.528499 
L 315.692336 330.523026 
L 317.11954 330.860431 
L 319.973949 332.560658 
L 321.401153 332.579447 
L 322.828358 332.454308 
L 324.255562 333.023288 
L 325.682767 332.711856 
L 328.537175 332.542113 
L 329.96438 331.895686 
L 332.818788 332.782936 
L 334.245993 332.930464 
L 335.673197 332.862723 
L 337.100402 333.076235 
L 338.527606 333.036723 
L 339.95481 333.843175 
L 341.382015 333.539802 
L 342.809219 334.209987 
L 344.236423 334.134421 
L 345.663628 334.78718 
L 347.090832 334.763392 
L 348.518037 334.417001 
L 351.372445 334.143814 
L 355.654058 331.395834 
L 357.081263 331.833597 
L 358.508467 332.125199 
L 359.935672 332.117681 
L 361.362876 332.492388 
L 362.79008 331.358493 
L 364.217285 331.605905 
L 365.644489 331.290035 
L 367.071693 331.955862 
L 368.498898 331.883134 
L 369.926102 331.992917 
L 371.353307 330.429164 
L 372.780511 330.816397 
L 374.207715 329.932935 
L 375.63492 330.375012 
L 377.062124 331.265287 
L 378.489328 332.4616 
L 379.916533 332.100479 
L 381.343737 332.738325 
L 384.198146 334.689189 
L 385.62535 335.204804 
L 387.052555 333.151737 
L 388.479759 333.677161 
L 389.906963 333.106093 
L 391.334168 333.207032 
L 392.761372 334.008714 
L 394.188577 334.093017 
L 395.615781 333.56764 
L 397.042985 333.826506 
L 398.47019 334.465028 
L 399.897394 333.904779 
L 401.324598 333.180091 
L 402.751803 333.040547 
L 404.179007 331.748898 
L 405.606212 331.796368 
L 407.033416 330.234635 
L 408.46062 330.651115 
L 409.887825 330.673549 
L 411.315029 331.294734 
L 412.742233 330.956593 
L 414.169438 331.914663 
L 415.596642 331.354827 
L 417.023847 331.386634 
L 418.451051 331.072152 
L 419.878255 330.152839 
L 421.30546 330.411093 
L 422.732664 329.817036 
L 424.159868 329.712248 
L 425.587073 329.015267 
L 427.014277 329.163165 
L 429.868686 330.945332 
L 431.29589 331.483821 
L 432.723095 331.37487 
L 434.150299 331.400865 
L 435.577503 330.784088 
L 437.004708 330.754854 
L 438.431912 328.662481 
L 439.859117 328.507923 
L 441.286321 328.027684 
L 442.713525 328.417178 
L 444.14073 329.146603 
L 445.567934 329.323112 
L 446.995138 330.157887 
L 451.276752 330.966958 
L 452.703956 330.823332 
L 454.13116 331.710603 
L 455.558365 332.157718 
L 458.412773 332.354743 
L 459.839978 332.996263 
L 461.267182 332.619043 
L 464.121591 331.188435 
L 465.548795 330.387926 
L 468.403204 329.706021 
L 469.830408 329.956495 
L 471.257613 329.559376 
L 472.684817 330.276572 
L 474.112022 329.373351 
L 475.539226 330.396464 
L 476.96643 330.136304 
L 478.393635 331.639993 
L 479.820839 332.104206 
L 481.248043 330.907372 
L 482.675248 330.70103 
L 484.102452 331.090997 
L 485.529657 330.580468 
L 486.956861 330.477413 
L 488.384065 330.687649 
L 489.81127 330.745368 
L 491.238474 330.56445 
L 492.665678 330.743664 
L 494.092883 331.645733 
L 495.520087 330.104016 
L 496.947292 330.007765 
L 498.374496 330.214166 
L 499.8017 329.780639 
L 501.228905 330.411889 
L 502.656109 329.71087 
L 504.083313 328.548688 
L 505.510518 328.575037 
L 506.937722 329.595144 
L 508.364927 329.459847 
L 509.792131 330.222908 
L 511.219335 330.050629 
L 512.64654 331.295568 
L 514.073744 331.335279 
L 515.500948 330.933397 
L 516.928153 331.200684 
L 518.355357 331.311644 
L 519.782562 331.286187 
L 521.209766 330.993897 
L 522.63697 331.731924 
L 524.064175 331.687489 
L 525.491379 331.810676 
L 526.918583 332.074079 
L 529.772992 331.097227 
L 531.200197 331.662939 
L 532.627401 331.418496 
L 534.054605 330.819306 
L 535.48181 331.294204 
L 536.909014 331.124123 
L 538.336218 330.33306 
L 539.763423 330.735371 
L 541.190627 330.914891 
L 542.617832 331.391706 
L 544.045036 331.683836 
L 545.47224 331.391118 
L 546.899445 331.524987 
L 548.326649 331.812797 
L 549.753853 332.853778 
L 552.608262 332.650462 
L 554.035467 331.895243 
L 555.462671 331.474488 
L 556.889875 331.65954 
L 558.31708 330.907449 
L 559.744284 331.161535 
L 561.171488 331.800353 
L 562.598693 331.953065 
L 564.025897 331.502544 
L 565.453102 331.519775 
L 566.880306 331.969832 
L 568.30751 332.806597 
L 569.734715 332.031139 
L 571.161919 332.474488 
L 572.589123 332.597948 
L 574.016328 333.120465 
L 578.297941 331.940047 
L 579.725145 332.13077 
L 581.15235 331.702784 
L 582.579554 330.224619 
L 584.006758 328.061503 
L 585.433963 328.323787 
L 586.861167 328.991833 
L 588.288371 329.081378 
L 589.715576 328.944271 
L 591.14278 328.635585 
L 592.569985 328.965589 
L 593.997189 328.266804 
L 595.424393 328.457269 
L 596.851598 328.507625 
L 598.278802 328.445591 
L 601.133211 329.764319 
L 602.560415 328.066523 
L 605.414824 328.550736 
L 606.842028 328.168743 
L 608.269233 329.058766 
L 609.696437 329.069155 
L 611.123641 329.322958 
L 612.550846 330.197423 
L 613.97805 329.333426 
L 615.405255 329.208272 
L 616.832459 329.421382 
L 618.259663 329.829028 
L 619.686868 329.358179 
L 621.114072 329.676827 
L 622.541276 330.706702 
L 623.968481 331.102452 
L 625.395685 329.589529 
L 628.250094 329.5134 
L 629.677298 330.444873 
L 631.104503 330.590817 
L 633.958911 331.705145 
L 635.386116 330.605095 
L 636.81332 329.951589 
L 639.667729 329.988783 
L 641.094933 329.847074 
L 643.949342 330.317853 
L 645.376546 330.093284 
L 648.230955 330.686116 
L 649.65816 329.244249 
L 651.085364 329.220536 
L 652.512568 329.452974 
L 652.512568 329.452974 
" clip-path="url(#p20c8787b71)" style="fill: none; stroke: #9b8ac9; stroke-width: 1.2; stroke-linecap: square"/>
   </g>
   <g id="patch_3">
    <path d="M 56.0125 349.8636 
L 56.0125 34.5036 
" style="fill: none; stroke: #000000; stroke-width: 0.8; stroke-linejoin: miter; stroke-linecap: square"/>
   </g>
   <g id="patch_4">
    <path d="M 682.4125 349.8636 
L 682.4125 34.5036 
" style="fill: none; stroke: #000000; stroke-width: 0.8; stroke-linejoin: miter; stroke-linecap: square"/>
   </g>
   <g id="patch_5">
    <path d="M 56.0125 349.8636 
L 682.4125 349.8636 
" style="fill: none; stroke: #000000; stroke-width: 0.8; stroke-linejoin: miter; stroke-linecap: square"/>
   </g>
   <g id="patch_6">
    <path d="M 56.0125 34.5036 
L 682.4125 34.5036 
" style="fill: none; stroke: #000000; stroke-width: 0.8; stroke-linejoin: miter; stroke-linecap: square"/>
   </g>
   <g id="legend_1">
    <g id="patch_7">
     <path d="M 56.0125 31.35 
L 682.4125 31.35 
L 682.4125 7.2 
L 56.0125 7.2 
z
" style="fill: #ffffff; stroke: #808080; stroke-width: 0.8; stroke-linejoin: miter"/>
    </g>
    <g id="line2d_36">
     <path d="M 62.3125 18.4 
L 76.3125 18.4 
L 90.3125 18.4 
" style="fill: none; stroke: #1f77b4; stroke-width: 1.2; stroke-linecap: square"/>
    </g>
    <g id="text_18">
     <!-- DDPG -->
     <g transform="translate(98.7125 23.3) scale(0.14 -0.14)">
      <defs>
       <path id="SimHei-44" d="M 2925 2250 
Q 2925 1100 2437 612 
Q 1950 125 1125 125 
L 275 125 
L 275 4400 
L 1125 4400 
Q 2050 4400 2487 3900 
Q 2925 3400 2925 2250 
z
M 2325 2250 
Q 2325 3175 2025 3550 
Q 1725 3925 1125 3925 
L 850 3925 
L 850 600 
L 1125 600 
Q 1725 600 2025 962 
Q 2325 1325 2325 2250 
z
" transform="scale(0.015625)"/>
       <path id="SimHei-50" d="M 2950 3100 
Q 2950 2500 2600 2150 
Q 2250 1800 1625 1800 
L 900 1800 
L 900 125 
L 325 125 
L 325 4400 
L 1625 4400 
Q 2250 4400 2600 4050 
Q 2950 3700 2950 3100 
z
M 2375 3100 
Q 2375 3575 2150 3750 
Q 1925 3925 1475 3925 
L 900 3925 
L 900 2275 
L 1475 2275 
Q 1925 2275 2150 2450 
Q 2375 2625 2375 3100 
z
" transform="scale(0.015625)"/>
       <path id="SimHei-47" d="M 2850 75 
L 2425 75 
L 2350 425 
Q 2250 275 2037 175 
Q 1825 75 1575 75 
Q 1050 75 637 562 
Q 225 1050 225 2125 
Q 225 3300 600 3875 
Q 975 4450 1625 4450 
Q 2200 4450 2525 4025 
Q 2850 3600 2850 2925 
L 2300 2925 
Q 2300 3450 2125 3712 
Q 1950 3975 1625 3975 
Q 1225 3975 1025 3562 
Q 825 3150 825 2175 
Q 825 1250 1075 900 
Q 1325 550 1650 550 
Q 1975 550 2162 787 
Q 2350 1025 2350 1525 
L 2350 1800 
L 1575 1800 
L 1575 2275 
L 2850 2275 
L 2850 75 
z
" transform="scale(0.015625)"/>
      </defs>
      <use xlink:href="#SimHei-44"/>
      <use xlink:href="#SimHei-44" transform="translate(50 0)"/>
      <use xlink:href="#SimHei-50" transform="translate(100 0)"/>
      <use xlink:href="#SimHei-47" transform="translate(150 0)"/>
     </g>
    </g>
    <g id="line2d_37">
     <path d="M 192.6625 18.4 
L 206.6625 18.4 
L 220.6625 18.4 
" style="fill: none; stroke: #ff7f0e; stroke-width: 1.2; stroke-linecap: square"/>
    </g>
    <g id="text_19">
     <!-- PPO -->
     <g transform="translate(229.0625 23.3) scale(0.14 -0.14)">
      <defs>
       <path id="SimHei-4f" d="M 2950 2275 
Q 2950 1100 2587 587 
Q 2225 75 1575 75 
Q 925 75 550 587 
Q 175 1100 175 2275 
Q 175 3450 550 3950 
Q 925 4450 1575 4450 
Q 2225 4450 2587 3950 
Q 2950 3450 2950 2275 
z
M 2350 2275 
Q 2350 3325 2125 3650 
Q 1900 3975 1575 3975 
Q 1250 3975 1012 3650 
Q 775 3325 775 2275 
Q 775 1225 1012 887 
Q 1250 550 1575 550 
Q 1900 550 2125 887 
Q 2350 1225 2350 2275 
z
" transform="scale(0.015625)"/>
      </defs>
      <use xlink:href="#SimHei-50"/>
      <use xlink:href="#SimHei-50" transform="translate(50 0)"/>
      <use xlink:href="#SimHei-4f" transform="translate(100 0)"/>
     </g>
    </g>
    <g id="line2d_38">
     <path d="M 316.0125 18.4 
L 330.0125 18.4 
L 344.0125 18.4 
" style="fill: none; stroke: #2ca02c; stroke-width: 1.2; stroke-linecap: square"/>
    </g>
    <g id="text_20">
     <!-- TD3 -->
     <g transform="translate(352.4125 23.3) scale(0.14 -0.14)">
      <use xlink:href="#SimHei-54"/>
      <use xlink:href="#SimHei-44" transform="translate(50 0)"/>
      <use xlink:href="#SimHei-33" transform="translate(100 0)"/>
     </g>
    </g>
    <g id="line2d_39">
     <path d="M 439.3625 18.4 
L 453.3625 18.4 
L 467.3625 18.4 
" style="fill: none; stroke: #d62728; stroke-width: 1.2; stroke-linecap: square"/>
    </g>
    <g id="text_21">
     <!-- GCN-DDQN -->
     <g transform="translate(475.7625 23.3) scale(0.14 -0.14)">
      <defs>
       <path id="SimHei-43" d="M 2975 1825 
Q 2950 875 2575 475 
Q 2200 75 1675 75 
Q 1075 75 650 562 
Q 225 1050 225 2125 
Q 225 3300 637 3875 
Q 1050 4450 1700 4450 
Q 2250 4450 2612 4037 
Q 2975 3625 2950 2875 
L 2400 2875 
Q 2400 3425 2225 3700 
Q 2050 3975 1700 3975 
Q 1300 3975 1062 3562 
Q 825 3150 825 2175 
Q 825 1275 1062 912 
Q 1300 550 1675 550 
Q 1950 550 2175 812 
Q 2400 1075 2400 1825 
L 2975 1825 
z
" transform="scale(0.015625)"/>
       <path id="SimHei-4e" d="M 2850 125 
L 2225 125 
L 850 3225 
L 825 3225 
L 825 125 
L 250 125 
L 250 4400 
L 875 4400 
L 2250 1300 
L 2275 1300 
L 2275 4400 
L 2850 4400 
L 2850 125 
z
" transform="scale(0.015625)"/>
       <path id="SimHei-2d" d="M 2975 2125 
L 125 2125 
L 125 2525 
L 2975 2525 
L 2975 2125 
z
" transform="scale(0.015625)"/>
       <path id="SimHei-51" d="M 2950 2275 
Q 2950 1675 2862 1262 
Q 2775 850 2575 600 
L 2775 225 
L 2375 -200 
L 2150 225 
Q 2050 150 1900 112 
Q 1750 75 1575 75 
Q 925 75 550 587 
Q 175 1100 175 2275 
Q 175 3450 550 3950 
Q 925 4450 1575 4450 
Q 2225 4450 2587 3950 
Q 2950 3450 2950 2275 
z
M 2350 2275 
Q 2350 3325 2125 3650 
Q 1900 3975 1575 3975 
Q 1250 3975 1012 3650 
Q 775 3325 775 2275 
Q 775 1225 1012 887 
Q 1250 550 1575 550 
Q 1700 550 1800 587 
Q 1900 625 1950 675 
L 1550 1450 
L 1900 1875 
L 2250 1200 
Q 2300 1450 2325 1650 
Q 2350 1850 2350 2275 
z
" transform="scale(0.015625)"/>
      </defs>
      <use xlink:href="#SimHei-47"/>
      <use xlink:href="#SimHei-43" transform="translate(50 0)"/>
      <use xlink:href="#SimHei-4e" transform="translate(100 0)"/>
      <use xlink:href="#SimHei-2d" transform="translate(150 0)"/>
      <use xlink:href="#SimHei-44" transform="translate(200 0)"/>
      <use xlink:href="#SimHei-44" transform="translate(250 0)"/>
      <use xlink:href="#SimHei-51" transform="translate(300 0)"/>
      <use xlink:href="#SimHei-4e" transform="translate(350 0)"/>
     </g>
    </g>
    <g id="line2d_40">
     <path d="M 597.7125 18.4 
L 611.7125 18.4 
L 625.7125 18.4 
" style="fill: none; stroke: #9b8ac9; stroke-width: 1.2; stroke-linecap: square"/>
    </g>
    <g id="text_22">
     <!-- GLDVTO -->
     <g transform="translate(634.1125 23.3) scale(0.14 -0.14)">
      <defs>
       <path id="SimHei-56" d="M 3050 4400 
L 1800 75 
L 1300 75 
L 50 4400 
L 650 4400 
L 1525 1125 
L 1575 1125 
L 2450 4400 
L 3050 4400 
z
" transform="scale(0.015625)"/>
      </defs>
      <use xlink:href="#SimHei-47"/>
      <use xlink:href="#SimHei-4c" transform="translate(50 0)"/>
      <use xlink:href="#SimHei-44" transform="translate(100 0)"/>
      <use xlink:href="#SimHei-56" transform="translate(150 0)"/>
      <use xlink:href="#SimHei-54" transform="translate(200 0)"/>
      <use xlink:href="#SimHei-4f" transform="translate(250 0)"/>
     </g>
    </g>
   </g>
  </g>
 </g>
 <defs>
  <clipPath id="p20c8787b71">
   <rect x="56.0125" y="34.5036" width="626.4" height="315.36"/>
  </clipPath>
 </defs>
</svg>
