<?xml version="1.0" encoding="utf-8" standalone="no"?>
<!DOCTYPE svg PUBLIC "-//W3C//DTD SVG 1.1//EN"
  "http://www.w3.org/Graphics/SVG/1.1/DTD/svg11.dtd">
<svg xmlns:xlink="http://www.w3.org/1999/xlink" width="621.9pt" height="397.915pt" viewBox="0 0 621.9 397.915" xmlns="http://www.w3.org/2000/svg" version="1.1">
 <metadata>
  <rdf:RDF xmlns:dc="http://purl.org/dc/elements/1.1/" xmlns:cc="http://creativecommons.org/ns#" xmlns:rdf="http://www.w3.org/1999/02/22-rdf-syntax-ns#">
   <cc:Work>
    <dc:type rdf:resource="http://purl.org/dc/dcmitype/StillImage"/>
    <dc:date>2026-06-26T16:20:51.908340</dc:date>
    <dc:format>image/svg+xml</dc:format>
    <dc:creator>
     <cc:Agent>
      <dc:title>Matplotlib v3.10.7, https://matplotlib.org/</dc:title>
     </cc:Agent>
    </dc:creator>
   </cc:Work>
  </rdf:RDF>
 </metadata>
 <defs>
  <style type="text/css">*{stroke-linejoin: round; stroke-linecap: butt}</style>
 </defs>
 <g id="figure_1">
  <g id="patch_1">
   <path d="M 0 397.915 
L 621.9 397.915 
L 621.9 -0 
L 0 -0 
z
" style="fill: #ffffff"/>
  </g>
  <g id="axes_1">
   <g id="patch_2">
    <path d="M 56.7 356.965 
L 614.7 356.965 
L 614.7 24.325 
L 56.7 24.325 
z
" style="fill: #ffffff"/>
   </g>
   <g id="matplotlib.axis_1">
    <g id="xtick_1">
     <g id="line2d_1">
      <path d="M 82.063636 356.965 
L 82.063636 24.325 
" clip-path="url(#p7249f6a7fb)" style="fill: none; stroke: #b0b0b0; stroke-opacity: 0.3; stroke-width: 0.8; stroke-linecap: square"/>
     </g>
     <g id="line2d_2">
      <defs>
       <path id="mc026faef29" d="M 0 0 
L 0 3.5 
" style="stroke: #000000; stroke-width: 0.8"/>
      </defs>
      <g>
       <use xlink:href="#mc026faef29" x="82.063636" y="356.965" style="stroke: #000000; stroke-width: 0.8"/>
      </g>
     </g>
     <g id="text_1">
      <!-- 0 -->
      <g transform="translate(79.063636 372.215) scale(0.12 -0.12)">
       <defs>
        <path id="SimHei-30" d="M 225 2537 
Q 250 3200 412 3587 
Q 575 3975 875 4225 
Q 1175 4475 1612 4475 
Q 2050 4475 2375 4112 
Q 2700 3750 2800 3200 
Q 2900 2650 2862 1937 
Q 2825 1225 2612 775 
Q 2400 325 1975 150 
Q 1550 -25 1125 187 
Q 700 400 525 750 
Q 350 1100 275 1487 
Q 200 1875 225 2537 
z
M 750 2687 
Q 675 2000 800 1462 
Q 925 925 1212 700 
Q 1500 475 1800 612 
Q 2100 750 2237 1162 
Q 2375 1575 2375 2062 
Q 2375 2550 2337 2950 
Q 2300 3350 2112 3675 
Q 1925 4000 1612 4012 
Q 1300 4025 1062 3700 
Q 825 3375 750 2687 
z
" transform="scale(0.015625)"/>
       </defs>
       <use xlink:href="#SimHei-30"/>
      </g>
     </g>
    </g>
    <g id="xtick_2">
     <g id="line2d_3">
      <path d="M 145.631647 356.965 
L 145.631647 24.325 
" clip-path="url(#p7249f6a7fb)" style="fill: none; stroke: #b0b0b0; stroke-opacity: 0.3; stroke-width: 0.8; stroke-linecap: square"/>
     </g>
     <g id="line2d_4">
      <g>
       <use xlink:href="#mc026faef29" x="145.631647" y="356.965" style="stroke: #000000; stroke-width: 0.8"/>
      </g>
     </g>
     <g id="text_2">
      <!-- 50 -->
      <g transform="translate(139.631647 372.215) scale(0.12 -0.12)">
       <defs>
        <path id="SimHei-35" d="M 550 1325 
Q 725 650 1150 575 
Q 1575 500 1837 662 
Q 2100 825 2212 1087 
Q 2325 1350 2312 1675 
Q 2300 2000 2137 2225 
Q 1975 2450 1725 2525 
Q 1475 2600 1162 2525 
Q 850 2450 650 2175 
L 225 2225 
Q 275 2375 700 4375 
L 2675 4375 
L 2675 3925 
L 1075 3925 
Q 950 3250 825 2850 
Q 1200 3025 1525 3012 
Q 1850 3000 2150 2862 
Q 2450 2725 2587 2487 
Q 2725 2250 2787 2012 
Q 2850 1775 2837 1500 
Q 2825 1225 2725 937 
Q 2625 650 2425 462 
Q 2225 275 1937 162 
Q 1650 50 1275 75 
Q 900 100 562 350 
Q 225 600 100 1200 
L 550 1325 
z
" transform="scale(0.015625)"/>
       </defs>
       <use xlink:href="#SimHei-35"/>
       <use xlink:href="#SimHei-30" transform="translate(50 0)"/>
      </g>
     </g>
    </g>
    <g id="xtick_3">
     <g id="line2d_5">
      <path d="M 209.199658 356.965 
L 209.199658 24.325 
" clip-path="url(#p7249f6a7fb)" style="fill: none; stroke: #b0b0b0; stroke-opacity: 0.3; stroke-width: 0.8; stroke-linecap: square"/>
     </g>
     <g id="line2d_6">
      <g>
       <use xlink:href="#mc026faef29" x="209.199658" y="356.965" style="stroke: #000000; stroke-width: 0.8"/>
      </g>
     </g>
     <g id="text_3">
      <!-- 100 -->
      <g transform="translate(200.199658 372.215) scale(0.12 -0.12)">
       <defs>
        <path id="SimHei-31" d="M 1400 3600 
Q 1075 3275 575 2975 
L 575 3450 
Q 1200 3875 1600 4450 
L 1900 4450 
L 1900 150 
L 1400 150 
L 1400 3600 
z
" transform="scale(0.015625)"/>
       </defs>
       <use xlink:href="#SimHei-31"/>
       <use xlink:href="#SimHei-30" transform="translate(50 0)"/>
       <use xlink:href="#SimHei-30" transform="translate(100 0)"/>
      </g>
     </g>
    </g>
    <g id="xtick_4">
     <g id="line2d_7">
      <path d="M 272.767669 356.965 
L 272.767669 24.325 
" clip-path="url(#p7249f6a7fb)" style="fill: none; stroke: #b0b0b0; stroke-opacity: 0.3; stroke-width: 0.8; stroke-linecap: square"/>
     </g>
     <g id="line2d_8">
      <g>
       <use xlink:href="#mc026faef29" x="272.767669" y="356.965" style="stroke: #000000; stroke-width: 0.8"/>
      </g>
     </g>
     <g id="text_4">
      <!-- 150 -->
      <g transform="translate(263.767669 372.215) scale(0.12 -0.12)">
       <use xlink:href="#SimHei-31"/>
       <use xlink:href="#SimHei-35" transform="translate(50 0)"/>
       <use xlink:href="#SimHei-30" transform="translate(100 0)"/>
      </g>
     </g>
    </g>
    <g id="xtick_5">
     <g id="line2d_9">
      <path d="M 336.33568 356.965 
L 336.33568 24.325 
" clip-path="url(#p7249f6a7fb)" style="fill: none; stroke: #b0b0b0; stroke-opacity: 0.3; stroke-width: 0.8; stroke-linecap: square"/>
     </g>
     <g id="line2d_10">
      <g>
       <use xlink:href="#mc026faef29" x="336.33568" y="356.965" style="stroke: #000000; stroke-width: 0.8"/>
      </g>
     </g>
     <g id="text_5">
      <!-- 200 -->
      <g transform="translate(327.33568 372.215) scale(0.12 -0.12)">
       <defs>
        <path id="SimHei-32" d="M 300 250 
Q 325 625 650 925 
Q 975 1225 1475 1862 
Q 1975 2500 2125 2850 
Q 2275 3200 2237 3450 
Q 2200 3700 2000 3862 
Q 1800 4025 1537 4000 
Q 1275 3975 1037 3800 
Q 800 3625 675 3275 
L 200 3350 
Q 400 3925 712 4187 
Q 1025 4450 1450 4475 
Q 1700 4500 1900 4462 
Q 2100 4425 2312 4287 
Q 2525 4150 2662 3875 
Q 2800 3600 2762 3212 
Q 2725 2825 2375 2287 
Q 2025 1750 1025 600 
L 2825 600 
L 2825 150 
L 300 150 
L 300 250 
z
" transform="scale(0.015625)"/>
       </defs>
       <use xlink:href="#SimHei-32"/>
       <use xlink:href="#SimHei-30" transform="translate(50 0)"/>
       <use xlink:href="#SimHei-30" transform="translate(100 0)"/>
      </g>
     </g>
    </g>
    <g id="xtick_6">
     <g id="line2d_11">
      <path d="M 399.903691 356.965 
L 399.903691 24.325 
" clip-path="url(#p7249f6a7fb)" style="fill: none; stroke: #b0b0b0; stroke-opacity: 0.3; stroke-width: 0.8; stroke-linecap: square"/>
     </g>
     <g id="line2d_12">
      <g>
       <use xlink:href="#mc026faef29" x="399.903691" y="356.965" style="stroke: #000000; stroke-width: 0.8"/>
      </g>
     </g>
     <g id="text_6">
      <!-- 250 -->
      <g transform="translate(390.903691 372.215) scale(0.12 -0.12)">
       <use xlink:href="#SimHei-32"/>
       <use xlink:href="#SimHei-35" transform="translate(50 0)"/>
       <use xlink:href="#SimHei-30" transform="translate(100 0)"/>
      </g>
     </g>
    </g>
    <g id="xtick_7">
     <g id="line2d_13">
      <path d="M 463.471702 356.965 
L 463.471702 24.325 
" clip-path="url(#p7249f6a7fb)" style="fill: none; stroke: #b0b0b0; stroke-opacity: 0.3; stroke-width: 0.8; stroke-linecap: square"/>
     </g>
     <g id="line2d_14">
      <g>
       <use xlink:href="#mc026faef29" x="463.471702" y="356.965" style="stroke: #000000; stroke-width: 0.8"/>
      </g>
     </g>
     <g id="text_7">
      <!-- 300 -->
      <g transform="translate(454.471702 372.215) scale(0.12 -0.12)">
       <defs>
        <path id="SimHei-33" d="M 250 1225 
L 700 1300 
Q 800 975 1025 762 
Q 1250 550 1587 562 
Q 1925 575 2125 837 
Q 2325 1100 2300 1437 
Q 2275 1775 2037 1962 
Q 1800 2150 1275 2225 
L 1275 2550 
Q 1800 2600 2037 2825 
Q 2275 3050 2250 3412 
Q 2225 3775 1925 3937 
Q 1625 4100 1287 3975 
Q 950 3850 750 3275 
L 300 3350 
Q 450 3800 712 4100 
Q 975 4400 1425 4450 
Q 1875 4500 2212 4337 
Q 2550 4175 2687 3837 
Q 2825 3500 2725 3100 
Q 2625 2700 2150 2400 
Q 2500 2250 2687 1950 
Q 2875 1650 2812 1162 
Q 2750 675 2375 375 
Q 2000 75 1525 87 
Q 1050 100 700 387 
Q 350 675 250 1225 
z
" transform="scale(0.015625)"/>
       </defs>
       <use xlink:href="#SimHei-33"/>
       <use xlink:href="#SimHei-30" transform="translate(50 0)"/>
       <use xlink:href="#SimHei-30" transform="translate(100 0)"/>
      </g>
     </g>
    </g>
    <g id="xtick_8">
     <g id="line2d_15">
      <path d="M 527.039713 356.965 
L 527.039713 24.325 
" clip-path="url(#p7249f6a7fb)" style="fill: none; stroke: #b0b0b0; stroke-opacity: 0.3; stroke-width: 0.8; stroke-linecap: square"/>
     </g>
     <g id="line2d_16">
      <g>
       <use xlink:href="#mc026faef29" x="527.039713" y="356.965" style="stroke: #000000; stroke-width: 0.8"/>
      </g>
     </g>
     <g id="text_8">
      <!-- 350 -->
      <g transform="translate(518.039713 372.215) scale(0.12 -0.12)">
       <use xlink:href="#SimHei-33"/>
       <use xlink:href="#SimHei-35" transform="translate(50 0)"/>
       <use xlink:href="#SimHei-30" transform="translate(100 0)"/>
      </g>
     </g>
    </g>
    <g id="xtick_9">
     <g id="line2d_17">
      <path d="M 590.607724 356.965 
L 590.607724 24.325 
" clip-path="url(#p7249f6a7fb)" style="fill: none; stroke: #b0b0b0; stroke-opacity: 0.3; stroke-width: 0.8; stroke-linecap: square"/>
     </g>
     <g id="line2d_18">
      <g>
       <use xlink:href="#mc026faef29" x="590.607724" y="356.965" style="stroke: #000000; stroke-width: 0.8"/>
      </g>
     </g>
     <g id="text_9">
      <!-- 400 -->
      <g transform="translate(581.607724 372.215) scale(0.12 -0.12)">
       <defs>
        <path id="SimHei-34" d="M 2000 1100 
L 75 1100 
L 75 1525 
L 2100 4450 
L 2475 4450 
L 2475 1525 
L 3075 1525 
L 3075 1100 
L 2475 1100 
L 2475 150 
L 2000 150 
L 2000 1100 
z
M 2000 1525 
L 2000 3500 
L 600 1525 
L 2000 1525 
z
" transform="scale(0.015625)"/>
       </defs>
       <use xlink:href="#SimHei-34"/>
       <use xlink:href="#SimHei-30" transform="translate(50 0)"/>
       <use xlink:href="#SimHei-30" transform="translate(100 0)"/>
      </g>
     </g>
    </g>
    <g id="text_10">
     <!-- Episode -->
     <g transform="translate(307.7 388.715) scale(0.16 -0.16)">
      <defs>
       <path id="SimHei-45" d="M 2900 125 
L 350 125 
L 350 4400 
L 2775 4400 
L 2775 3925 
L 925 3925 
L 925 2600 
L 2625 2600 
L 2625 2125 
L 925 2125 
L 925 600 
L 2900 600 
L 2900 125 
z
" transform="scale(0.015625)"/>
       <path id="SimHei-70" d="M 2825 1525 
Q 2825 800 2475 425 
Q 2125 50 1625 50 
Q 1350 50 1150 162 
Q 950 275 800 500 
L 800 -800 
L 300 -800 
L 300 2925 
L 800 2925 
L 800 2550 
Q 950 2775 1150 2875 
Q 1350 2975 1625 2975 
Q 2125 2975 2475 2612 
Q 2825 2250 2825 1525 
z
M 2275 1525 
Q 2275 2000 2087 2262 
Q 1900 2525 1525 2525 
Q 1225 2525 1012 2262 
Q 800 2000 800 1525 
Q 800 1050 1012 775 
Q 1225 500 1525 500 
Q 1900 500 2087 775 
Q 2275 1050 2275 1525 
z
" transform="scale(0.015625)"/>
       <path id="SimHei-69" d="M 1800 3725 
L 1300 3725 
L 1300 4375 
L 1800 4375 
L 1800 3725 
z
M 1800 125 
L 1300 125 
L 1300 2925 
L 1800 2925 
L 1800 125 
z
" transform="scale(0.015625)"/>
       <path id="SimHei-73" d="M 2750 900 
Q 2750 500 2437 287 
Q 2125 75 1650 75 
Q 1050 75 725 312 
Q 400 550 400 1000 
L 900 1000 
Q 900 700 1112 600 
Q 1325 500 1625 500 
Q 1925 500 2075 612 
Q 2225 725 2225 900 
Q 2225 1025 2100 1150 
Q 1975 1275 1475 1350 
Q 900 1425 687 1637 
Q 475 1850 475 2200 
Q 475 2500 762 2737 
Q 1050 2975 1600 2975 
Q 2100 2975 2387 2750 
Q 2675 2525 2675 2150 
L 2175 2150 
Q 2175 2375 2012 2462 
Q 1850 2550 1600 2550 
Q 1275 2550 1137 2437 
Q 1000 2325 1000 2175 
Q 1000 2000 1125 1900 
Q 1250 1800 1650 1750 
Q 2300 1650 2525 1437 
Q 2750 1225 2750 900 
z
" transform="scale(0.015625)"/>
       <path id="SimHei-6f" d="M 2925 1525 
Q 2925 875 2525 475 
Q 2125 75 1575 75 
Q 1025 75 625 475 
Q 225 875 225 1525 
Q 225 2175 625 2575 
Q 1025 2975 1575 2975 
Q 2125 2975 2525 2575 
Q 2925 2175 2925 1525 
z
M 2375 1525 
Q 2375 2025 2125 2275 
Q 1875 2525 1575 2525 
Q 1275 2525 1025 2275 
Q 775 2025 775 1525 
Q 775 1025 1025 775 
Q 1275 525 1575 525 
Q 1875 525 2125 775 
Q 2375 1025 2375 1525 
z
" transform="scale(0.015625)"/>
       <path id="SimHei-64" d="M 2750 125 
L 2250 125 
L 2250 500 
Q 2100 275 1900 175 
Q 1700 75 1425 75 
Q 925 75 575 437 
Q 225 800 225 1525 
Q 225 2250 575 2625 
Q 925 3000 1425 3000 
Q 1700 3000 1900 2887 
Q 2100 2775 2250 2550 
L 2250 4400 
L 2750 4400 
L 2750 125 
z
M 2250 1525 
Q 2250 2000 2037 2275 
Q 1825 2550 1525 2550 
Q 1150 2550 962 2275 
Q 775 2000 775 1525 
Q 775 1050 962 787 
Q 1150 525 1525 525 
Q 1825 525 2037 787 
Q 2250 1050 2250 1525 
z
" transform="scale(0.015625)"/>
       <path id="SimHei-65" d="M 2850 1075 
Q 2800 625 2450 350 
Q 2100 75 1625 75 
Q 1025 75 637 462 
Q 250 850 250 1525 
Q 250 2200 637 2587 
Q 1025 2975 1625 2975 
Q 2150 2975 2487 2637 
Q 2825 2300 2825 1525 
L 800 1525 
Q 800 975 1037 750 
Q 1275 525 1625 525 
Q 1900 525 2075 662 
Q 2250 800 2300 1075 
L 2850 1075 
z
M 2250 1925 
Q 2200 2275 2025 2412 
Q 1850 2550 1575 2550 
Q 1325 2550 1125 2412 
Q 925 2275 825 1925 
L 2250 1925 
z
" transform="scale(0.015625)"/>
      </defs>
      <use xlink:href="#SimHei-45"/>
      <use xlink:href="#SimHei-70" transform="translate(50 0)"/>
      <use xlink:href="#SimHei-69" transform="translate(100 0)"/>
      <use xlink:href="#SimHei-73" transform="translate(150 0)"/>
      <use xlink:href="#SimHei-6f" transform="translate(200 0)"/>
      <use xlink:href="#SimHei-64" transform="translate(250 0)"/>
      <use xlink:href="#SimHei-65" transform="translate(300 0)"/>
     </g>
    </g>
   </g>
   <g id="matplotlib.axis_2">
    <g id="ytick_1">
     <g id="line2d_19">
      <path d="M 56.7 338.051012 
L 614.7 338.051012 
" clip-path="url(#p7249f6a7fb)" style="fill: none; stroke: #b0b0b0; stroke-opacity: 0.3; stroke-width: 0.8; stroke-linecap: square"/>
     </g>
     <g id="line2d_20">
      <defs>
       <path id="m5b0baef4ed" d="M 0 0 
L -3.5 0 
" style="stroke: #000000; stroke-width: 0.8"/>
      </defs>
      <g>
       <use xlink:href="#m5b0baef4ed" x="56.7" y="338.051012" style="stroke: #000000; stroke-width: 0.8"/>
      </g>
     </g>
     <g id="text_11">
      <!-- 0.05 -->
      <g transform="translate(25.7 342.176012) scale(0.12 -0.12)">
       <defs>
        <path id="SimHei-2e" d="M 1075 125 
L 500 125 
L 500 675 
L 1075 675 
L 1075 125 
z
" transform="scale(0.015625)"/>
       </defs>
       <use xlink:href="#SimHei-30"/>
       <use xlink:href="#SimHei-2e" transform="translate(50 0)"/>
       <use xlink:href="#SimHei-30" transform="translate(100 0)"/>
       <use xlink:href="#SimHei-35" transform="translate(150 0)"/>
      </g>
     </g>
    </g>
    <g id="ytick_2">
     <g id="line2d_21">
      <path d="M 56.7 272.445064 
L 614.7 272.445064 
" clip-path="url(#p7249f6a7fb)" style="fill: none; stroke: #b0b0b0; stroke-opacity: 0.3; stroke-width: 0.8; stroke-linecap: square"/>
     </g>
     <g id="line2d_22">
      <g>
       <use xlink:href="#m5b0baef4ed" x="56.7" y="272.445064" style="stroke: #000000; stroke-width: 0.8"/>
      </g>
     </g>
     <g id="text_12">
      <!-- 0.10 -->
      <g transform="translate(25.7 276.570064) scale(0.12 -0.12)">
       <use xlink:href="#SimHei-30"/>
       <use xlink:href="#SimHei-2e" transform="translate(50 0)"/>
       <use xlink:href="#SimHei-31" transform="translate(100 0)"/>
       <use xlink:href="#SimHei-30" transform="translate(150 0)"/>
      </g>
     </g>
    </g>
    <g id="ytick_3">
     <g id="line2d_23">
      <path d="M 56.7 206.839117 
L 614.7 206.839117 
" clip-path="url(#p7249f6a7fb)" style="fill: none; stroke: #b0b0b0; stroke-opacity: 0.3; stroke-width: 0.8; stroke-linecap: square"/>
     </g>
     <g id="line2d_24">
      <g>
       <use xlink:href="#m5b0baef4ed" x="56.7" y="206.839117" style="stroke: #000000; stroke-width: 0.8"/>
      </g>
     </g>
     <g id="text_13">
      <!-- 0.15 -->
      <g transform="translate(25.7 210.964117) scale(0.12 -0.12)">
       <use xlink:href="#SimHei-30"/>
       <use xlink:href="#SimHei-2e" transform="translate(50 0)"/>
       <use xlink:href="#SimHei-31" transform="translate(100 0)"/>
       <use xlink:href="#SimHei-35" transform="translate(150 0)"/>
      </g>
     </g>
    </g>
    <g id="ytick_4">
     <g id="line2d_25">
      <path d="M 56.7 141.23317 
L 614.7 141.23317 
" clip-path="url(#p7249f6a7fb)" style="fill: none; stroke: #b0b0b0; stroke-opacity: 0.3; stroke-width: 0.8; stroke-linecap: square"/>
     </g>
     <g id="line2d_26">
      <g>
       <use xlink:href="#m5b0baef4ed" x="56.7" y="141.23317" style="stroke: #000000; stroke-width: 0.8"/>
      </g>
     </g>
     <g id="text_14">
      <!-- 0.20 -->
      <g transform="translate(25.7 145.35817) scale(0.12 -0.12)">
       <use xlink:href="#SimHei-30"/>
       <use xlink:href="#SimHei-2e" transform="translate(50 0)"/>
       <use xlink:href="#SimHei-32" transform="translate(100 0)"/>
       <use xlink:href="#SimHei-30" transform="translate(150 0)"/>
      </g>
     </g>
    </g>
    <g id="ytick_5">
     <g id="line2d_27">
      <path d="M 56.7 75.627223 
L 614.7 75.627223 
" clip-path="url(#p7249f6a7fb)" style="fill: none; stroke: #b0b0b0; stroke-opacity: 0.3; stroke-width: 0.8; stroke-linecap: square"/>
     </g>
     <g id="line2d_28">
      <g>
       <use xlink:href="#m5b0baef4ed" x="56.7" y="75.627223" style="stroke: #000000; stroke-width: 0.8"/>
      </g>
     </g>
     <g id="text_15">
      <!-- 0.25 -->
      <g transform="translate(25.7 79.752223) scale(0.12 -0.12)">
       <use xlink:href="#SimHei-30"/>
       <use xlink:href="#SimHei-2e" transform="translate(50 0)"/>
       <use xlink:href="#SimHei-32" transform="translate(100 0)"/>
       <use xlink:href="#SimHei-35" transform="translate(150 0)"/>
      </g>
     </g>
    </g>
    <g id="text_16">
     <!-- Delay (s) -->
     <g transform="translate(19.7 226.645) rotate(-90) scale(0.16 -0.16)">
      <defs>
       <path id="SimHei-44" d="M 2925 2250 
Q 2925 1100 2437 612 
Q 1950 125 1125 125 
L 275 125 
L 275 4400 
L 1125 4400 
Q 2050 4400 2487 3900 
Q 2925 3400 2925 2250 
z
M 2325 2250 
Q 2325 3175 2025 3550 
Q 1725 3925 1125 3925 
L 850 3925 
L 850 600 
L 1125 600 
Q 1725 600 2025 962 
Q 2325 1325 2325 2250 
z
" transform="scale(0.015625)"/>
       <path id="SimHei-6c" d="M 1825 125 
L 1325 125 
L 1325 4400 
L 1825 4400 
L 1825 125 
z
" transform="scale(0.015625)"/>
       <path id="SimHei-61" d="M 2875 125 
L 2275 125 
Q 2225 175 2200 262 
Q 2175 350 2175 475 
Q 2000 275 1750 175 
Q 1500 75 1225 75 
Q 825 75 550 275 
Q 275 475 275 850 
Q 275 1225 525 1450 
Q 775 1675 1300 1750 
Q 1650 1800 1912 1875 
Q 2175 1950 2175 2075 
Q 2175 2225 2062 2375 
Q 1950 2525 1575 2525 
Q 1275 2525 1137 2412 
Q 1000 2300 950 2100 
L 400 2100 
Q 450 2500 762 2737 
Q 1075 2975 1575 2975 
Q 2125 2975 2400 2725 
Q 2675 2475 2675 2025 
L 2675 650 
Q 2675 500 2725 375 
Q 2775 250 2875 125 
z
M 2175 1050 
L 2175 1550 
Q 2025 1500 1887 1462 
Q 1750 1425 1425 1375 
Q 1050 1325 937 1200 
Q 825 1075 825 900 
Q 825 750 937 637 
Q 1050 525 1275 525 
Q 1500 525 1762 650 
Q 2025 775 2175 1050 
z
" transform="scale(0.015625)"/>
       <path id="SimHei-79" d="M 2900 2925 
L 1750 -100 
Q 1650 -450 1450 -625 
Q 1250 -800 950 -800 
Q 825 -800 712 -787 
Q 600 -775 500 -725 
L 500 -225 
Q 600 -275 700 -300 
Q 800 -325 875 -325 
Q 1075 -325 1150 -262 
Q 1225 -200 1300 25 
L 200 2925 
L 750 2925 
L 1550 725 
L 1575 725 
L 2350 2925 
L 2900 2925 
z
" transform="scale(0.015625)"/>
       <path id="SimHei-20" transform="scale(0.015625)"/>
       <path id="SimHei-28" d="M 2975 -200 
L 2700 -475 
Q 2075 125 1762 775 
Q 1450 1425 1450 2250 
Q 1450 3075 1762 3725 
Q 2075 4375 2700 5000 
L 2975 4725 
Q 2400 4175 2112 3587 
Q 1825 3000 1825 2250 
Q 1825 1500 2112 912 
Q 2400 325 2975 -200 
z
" transform="scale(0.015625)"/>
       <path id="SimHei-29" d="M 1675 2250 
Q 1675 1425 1362 775 
Q 1050 125 425 -475 
L 150 -200 
Q 725 325 1012 912 
Q 1300 1500 1300 2250 
Q 1300 3000 1012 3587 
Q 725 4175 150 4725 
L 425 5000 
Q 1050 4375 1362 3725 
Q 1675 3075 1675 2250 
z
" transform="scale(0.015625)"/>
      </defs>
      <use xlink:href="#SimHei-44"/>
      <use xlink:href="#SimHei-65" transform="translate(50 0)"/>
      <use xlink:href="#SimHei-6c" transform="translate(100 0)"/>
      <use xlink:href="#SimHei-61" transform="translate(150 0)"/>
      <use xlink:href="#SimHei-79" transform="translate(200 0)"/>
      <use xlink:href="#SimHei-20" transform="translate(250 0)"/>
      <use xlink:href="#SimHei-28" transform="translate(300 0)"/>
      <use xlink:href="#SimHei-73" transform="translate(350 0)"/>
      <use xlink:href="#SimHei-29" transform="translate(400 0)"/>
     </g>
    </g>
   </g>
   <g id="line2d_29">
    <path d="M 82.063636 140.733426 
L 83.334997 130.229087 
L 84.606357 124.9296 
L 85.877717 122.610693 
L 87.149077 115.129061 
L 88.420437 108.986126 
L 89.691798 101.899113 
L 90.963158 97.4057 
L 92.234518 91.729486 
L 93.505878 83.645352 
L 94.777239 79.058429 
L 96.048599 82.1521 
L 97.319959 79.052301 
L 98.591319 75.289741 
L 99.862679 70.478909 
L 101.13404 69.010875 
L 102.4054 64.297476 
L 103.67676 63.113468 
L 104.94812 58.418605 
L 106.219481 60.668435 
L 108.762201 52.617083 
L 110.033561 54.387483 
L 111.304921 57.504414 
L 112.576282 53.820293 
L 113.847642 51.300886 
L 115.119002 45.811641 
L 116.390362 45.872796 
L 117.661722 44.661696 
L 118.933083 46.289456 
L 120.204443 49.559651 
L 121.475803 51.008684 
L 122.747163 54.281472 
L 124.018524 50.41008 
L 125.289884 50.15008 
L 126.561244 47.587578 
L 127.832604 47.195859 
L 129.103964 57.886065 
L 130.375325 85.808373 
L 131.646685 110.850147 
L 134.189405 154.269204 
L 136.732126 189.853665 
L 138.003486 204.327791 
L 140.546206 229.613766 
L 143.088927 250.227843 
L 144.360287 259.51545 
L 145.631647 267.45764 
L 146.903008 274.655445 
L 148.174368 281.137062 
L 151.988448 296.610321 
L 153.259809 301.3879 
L 155.802529 307.26143 
L 159.61661 314.613634 
L 160.88797 315.303494 
L 162.15933 317.536132 
L 163.43069 320.026576 
L 164.702051 321.99323 
L 165.973411 323.239598 
L 167.244771 324.667064 
L 168.516131 325.750947 
L 169.787491 326.470362 
L 171.058852 328.531836 
L 172.330212 328.165254 
L 173.601572 328.506539 
L 174.872932 328.400445 
L 176.144293 329.79104 
L 177.415653 330.840462 
L 178.687013 332.455993 
L 179.958373 332.800438 
L 181.229733 332.81903 
L 182.501094 333.817692 
L 183.772454 333.382208 
L 185.043814 333.41725 
L 186.315174 334.402747 
L 187.586535 333.777815 
L 188.857895 334.684177 
L 190.129255 335.029112 
L 191.400615 335.134282 
L 192.671975 336.171113 
L 193.943336 335.819623 
L 195.214696 336.001304 
L 196.486056 335.354773 
L 199.028776 336.587395 
L 201.571497 336.519489 
L 202.842857 337.190225 
L 204.114217 337.585229 
L 205.385578 337.710272 
L 206.656938 337.368431 
L 207.928298 337.580183 
L 209.199658 338.068331 
L 210.471018 339.824104 
L 211.742379 337.488245 
L 213.013739 337.608807 
L 214.285099 338.20245 
L 215.556459 337.280766 
L 216.82782 337.106596 
L 218.09918 337.3576 
L 220.6419 337.207363 
L 221.91326 338.18002 
L 223.184621 337.869469 
L 224.455981 337.28556 
L 225.727341 335.908948 
L 226.998701 335.172299 
L 228.270062 333.869902 
L 229.541422 333.426271 
L 230.812782 334.26717 
L 232.084142 335.281378 
L 233.355502 334.95643 
L 234.626863 336.019961 
L 235.898223 335.296115 
L 237.169583 334.71939 
L 238.440943 333.801551 
L 239.712303 333.770111 
L 240.983664 334.281118 
L 242.255024 333.334321 
L 244.797744 334.476574 
L 246.069105 334.662221 
L 247.340465 335.348008 
L 248.611825 336.243806 
L 249.883185 334.908073 
L 251.154545 334.899269 
L 252.425906 335.528432 
L 256.239986 336.142912 
L 257.511347 336.999288 
L 258.782707 337.55522 
L 260.054067 337.054769 
L 261.325427 335.490689 
L 262.596787 334.749674 
L 263.868148 334.886898 
L 265.139508 333.97631 
L 267.682228 334.752407 
L 268.953589 335.342043 
L 270.224949 336.366424 
L 271.496309 335.664601 
L 274.039029 336.563474 
L 275.31039 337.459088 
L 277.85311 339.015852 
L 279.12447 338.831713 
L 280.39583 338.069623 
L 281.667191 337.663069 
L 282.938551 336.74507 
L 284.209911 336.252171 
L 285.481271 336.66052 
L 286.752632 336.71435 
L 288.023992 337.031026 
L 289.295352 339.081975 
L 290.566712 339.102157 
L 291.838072 338.419091 
L 293.109433 338.202493 
L 294.380793 337.719769 
L 295.652153 335.852835 
L 296.923513 335.640938 
L 298.194874 334.895965 
L 302.008954 335.972396 
L 303.280314 335.218352 
L 304.551675 335.171088 
L 305.823035 334.887073 
L 307.094395 334.455394 
L 308.365755 335.253544 
L 310.908476 334.243681 
L 312.179836 333.592459 
L 313.451196 334.383409 
L 314.722556 334.449688 
L 315.993917 335.796248 
L 317.265277 336.02342 
L 319.807997 337.3647 
L 321.079357 337.72961 
L 322.350718 338.659121 
L 323.622078 338.932976 
L 324.893438 337.608912 
L 326.164798 337.998451 
L 327.436159 338.985977 
L 328.707519 338.122878 
L 331.250239 337.190846 
L 332.521599 338.541856 
L 333.79296 338.907595 
L 336.33568 337.991167 
L 337.60704 338.498826 
L 338.878401 339.250311 
L 340.149761 338.037295 
L 341.421121 337.166991 
L 342.692481 337.630457 
L 346.506562 339.987824 
L 347.777922 340.171086 
L 349.049282 338.392339 
L 350.320643 338.397198 
L 351.592003 337.450748 
L 352.863363 337.558732 
L 354.134723 338.10504 
L 355.406083 338.268849 
L 356.677444 337.990202 
L 357.948804 338.120525 
L 359.220164 337.167414 
L 360.491524 337.450371 
L 361.762884 336.662244 
L 363.034245 336.863809 
L 364.305605 335.694826 
L 365.576965 336.223928 
L 366.848325 337.266759 
L 368.119686 336.825817 
L 369.391046 335.485013 
L 370.662406 335.041157 
L 371.933766 334.718023 
L 373.205126 335.43658 
L 374.476487 335.516215 
L 375.747847 335.017355 
L 377.019207 335.483054 
L 378.290567 332.980804 
L 379.561928 333.019807 
L 380.833288 333.860373 
L 382.104648 335.143474 
L 383.376008 333.091992 
L 384.647368 332.218108 
L 388.461449 334.124384 
L 389.732809 334.409942 
L 391.00417 334.142924 
L 393.54689 336.408796 
L 394.81825 336.639925 
L 396.08961 337.193711 
L 397.360971 337.148726 
L 398.632331 337.397561 
L 399.903691 337.079676 
L 401.175051 335.432367 
L 402.446411 334.904568 
L 403.717772 335.235143 
L 404.989132 335.810434 
L 406.260492 336.863176 
L 407.531852 337.223886 
L 408.803213 337.776718 
L 410.074573 337.120618 
L 412.617293 337.202929 
L 413.888653 337.051625 
L 415.160014 336.292382 
L 416.431374 335.199341 
L 417.702734 335.056144 
L 418.974094 335.463392 
L 420.245455 337.112309 
L 421.516815 337.686892 
L 422.788175 339.059226 
L 424.059535 337.988336 
L 425.330895 337.695626 
L 426.602256 338.582497 
L 427.873616 338.223293 
L 429.144976 337.7463 
L 430.416336 338.020451 
L 431.687697 337.670404 
L 432.959057 337.47694 
L 434.230417 338.310355 
L 435.501777 337.938468 
L 436.773137 338.015535 
L 438.044498 337.641344 
L 439.315858 337.800318 
L 440.587218 337.781954 
L 441.858578 337.368723 
L 443.129938 336.259567 
L 444.401299 336.374294 
L 445.672659 335.92554 
L 446.944019 335.0703 
L 448.215379 334.996827 
L 449.48674 335.783681 
L 450.7581 335.159371 
L 452.02946 332.558607 
L 453.30082 333.510796 
L 455.843541 333.804348 
L 457.114901 333.945755 
L 458.386261 335.174308 
L 459.657621 335.276996 
L 460.928982 336.314049 
L 462.200342 336.446791 
L 464.743062 337.757226 
L 466.014422 338.738825 
L 467.285783 339.865285 
L 468.557143 339.038521 
L 469.828503 339.635718 
L 471.099863 340.002059 
L 472.371224 340.570084 
L 473.642584 340.370622 
L 474.913944 341.314407 
L 476.185304 341.103914 
L 477.456664 340.386585 
L 479.999385 339.737018 
L 481.270745 339.078578 
L 482.542105 339.147684 
L 483.813465 337.779246 
L 486.356186 338.778506 
L 487.627546 338.028284 
L 488.898906 338.649955 
L 490.170267 339.690062 
L 492.712987 340.696337 
L 493.984347 340.753515 
L 495.255707 339.429265 
L 496.527068 339.254511 
L 497.798428 337.313671 
L 499.069788 337.836469 
L 500.341148 336.956264 
L 501.612509 336.358596 
L 502.883869 337.087794 
L 505.426589 337.093998 
L 506.697949 337.310499 
L 507.96931 337.295619 
L 509.24067 337.556728 
L 510.51203 337.539899 
L 513.054751 336.031311 
L 514.326111 334.551246 
L 516.868831 336.13219 
L 518.140191 335.379392 
L 519.411552 335.622833 
L 520.682912 336.215714 
L 521.954272 337.062806 
L 524.496992 336.307064 
L 525.768353 336.496286 
L 527.039713 337.074049 
L 528.311073 337.178598 
L 529.582433 337.072752 
L 530.853794 336.137877 
L 532.125154 335.899259 
L 533.396514 336.57977 
L 534.667874 337.574593 
L 535.939234 338.00918 
L 537.210595 337.938963 
L 538.481955 338.206671 
L 539.753315 338.115566 
L 541.024675 338.60431 
L 543.567396 337.066226 
L 544.838756 337.286811 
L 546.110116 336.864232 
L 547.381476 338.219032 
L 548.652837 337.007721 
L 549.924197 337.494731 
L 551.195557 336.815226 
L 552.466917 336.728197 
L 555.009638 336.952716 
L 556.280998 336.625393 
L 557.552358 335.323357 
L 558.823718 335.417032 
L 560.095079 335.829035 
L 561.366439 335.582733 
L 562.637799 336.085998 
L 563.909159 336.149041 
L 565.180519 335.3181 
L 566.45188 335.1694 
L 567.72324 334.850396 
L 568.9946 334.813779 
L 570.26596 334.350902 
L 572.808681 335.052095 
L 574.080041 336.504497 
L 575.351401 336.043587 
L 576.622761 337.504681 
L 577.894122 337.869515 
L 579.165482 336.823648 
L 580.436842 336.467071 
L 582.979563 337.700736 
L 584.250923 337.638596 
L 585.522283 338.27751 
L 586.793643 337.948922 
L 588.065003 336.845129 
L 589.336364 337.008669 
L 589.336364 337.008669 
" clip-path="url(#p7249f6a7fb)" style="fill: none; stroke: #1f77b4; stroke-width: 1.2; stroke-linecap: square"/>
   </g>
   <g id="line2d_30">
    <path d="M 82.063636 124.506826 
L 83.334997 121.853268 
L 84.606357 114.237247 
L 87.149077 101.430813 
L 88.420437 93.124709 
L 89.691798 89.26347 
L 90.963158 84.014634 
L 92.234518 78.16385 
L 93.505878 74.07149 
L 94.777239 66.456252 
L 96.048599 65.499452 
L 97.319959 61.62912 
L 98.591319 60.092022 
L 99.862679 60.594448 
L 101.13404 62.3066 
L 102.4054 59.466111 
L 103.67676 59.537728 
L 104.94812 55.29328 
L 106.219481 51.487211 
L 107.490841 51.358425 
L 108.762201 52.416551 
L 110.033561 57.119142 
L 111.304921 55.439789 
L 112.576282 58.537204 
L 113.847642 58.857519 
L 115.119002 58.63553 
L 116.390362 59.871585 
L 117.661722 55.475191 
L 118.933083 50.378811 
L 120.204443 49.739078 
L 121.475803 47.594218 
L 122.747163 44.889704 
L 124.018524 48.7913 
L 125.289884 45.476578 
L 126.561244 45.18057 
L 127.832604 43.120943 
L 130.375325 39.445 
L 131.646685 39.812524 
L 132.918045 61.962842 
L 135.460766 114.310999 
L 136.732126 137.530958 
L 138.003486 157.43819 
L 140.546206 191.710597 
L 141.817567 206.423391 
L 144.360287 230.812803 
L 146.903008 251.438346 
L 149.445728 268.818192 
L 150.717088 276.289255 
L 151.988448 282.30924 
L 153.259809 287.234397 
L 154.531169 291.413154 
L 155.802529 296.200785 
L 158.345249 304.726007 
L 160.88797 309.849783 
L 162.15933 313.795132 
L 164.702051 319.536929 
L 167.244771 320.838306 
L 168.516131 323.253644 
L 169.787491 323.719235 
L 171.058852 325.465358 
L 172.330212 326.041489 
L 173.601572 326.296623 
L 174.872932 327.404244 
L 176.144293 327.699342 
L 177.415653 328.729461 
L 178.687013 329.97858 
L 179.958373 330.718643 
L 181.229733 332.823493 
L 182.501094 331.856226 
L 183.772454 333.292663 
L 185.043814 332.741956 
L 187.586535 333.311725 
L 188.857895 334.169694 
L 190.129255 333.99246 
L 191.400615 335.45457 
L 192.671975 335.332918 
L 193.943336 335.03659 
L 195.214696 335.361051 
L 196.486056 336.214524 
L 197.757416 337.984616 
L 200.300137 337.899982 
L 201.571497 337.175505 
L 202.842857 337.818064 
L 204.114217 337.039501 
L 205.385578 337.605217 
L 206.656938 338.646658 
L 207.928298 338.103243 
L 209.199658 337.846392 
L 210.471018 338.573218 
L 211.742379 338.475824 
L 213.013739 338.91567 
L 214.285099 338.331451 
L 215.556459 338.448028 
L 216.82782 337.571342 
L 218.09918 337.756475 
L 219.37054 337.815107 
L 220.6419 336.934018 
L 221.91326 336.926689 
L 223.184621 336.339679 
L 224.455981 336.246101 
L 225.727341 335.10037 
L 226.998701 333.585344 
L 228.270062 334.569993 
L 230.812782 334.432648 
L 232.084142 335.990994 
L 233.355502 335.271644 
L 237.169583 337.226083 
L 238.440943 336.216374 
L 239.712303 335.794612 
L 240.983664 335.787422 
L 242.255024 335.366662 
L 243.526384 334.600878 
L 244.797744 335.199877 
L 246.069105 336.535174 
L 247.340465 335.743507 
L 248.611825 334.797039 
L 249.883185 334.300943 
L 251.154545 334.360488 
L 252.425906 335.424188 
L 254.968626 335.550697 
L 256.239986 335.649756 
L 257.511347 336.125147 
L 258.782707 336.757208 
L 260.054067 336.998087 
L 261.325427 337.075208 
L 262.596787 335.744607 
L 263.868148 336.224018 
L 265.139508 335.40216 
L 266.410868 336.034516 
L 267.682228 336.479179 
L 268.953589 336.541613 
L 270.224949 336.935197 
L 271.496309 336.350927 
L 274.039029 336.317175 
L 275.31039 335.082575 
L 276.58175 335.571373 
L 277.85311 335.397183 
L 279.12447 335.653413 
L 280.39583 335.348882 
L 281.667191 335.347664 
L 282.938551 335.193614 
L 284.209911 335.705798 
L 285.481271 335.725972 
L 286.752632 335.412465 
L 288.023992 335.437389 
L 289.295352 334.620169 
L 290.566712 334.332325 
L 291.838072 335.534847 
L 293.109433 333.835127 
L 294.380793 332.370642 
L 295.652153 330.599292 
L 296.923513 332.121071 
L 298.194874 331.301091 
L 299.466234 332.168509 
L 300.737594 332.460655 
L 303.280314 332.527705 
L 304.551675 333.620101 
L 305.823035 334.206562 
L 307.094395 334.918022 
L 308.365755 335.806355 
L 309.637116 334.351257 
L 310.908476 333.959917 
L 312.179836 334.750929 
L 313.451196 335.10544 
L 314.722556 334.397308 
L 315.993917 335.34409 
L 318.536637 333.945991 
L 319.807997 334.657585 
L 321.079357 333.092486 
L 322.350718 333.318601 
L 323.622078 333.784635 
L 324.893438 334.113493 
L 326.164798 334.658094 
L 327.436159 333.907602 
L 328.707519 333.777222 
L 329.978879 333.942076 
L 332.521599 335.010462 
L 333.79296 335.243668 
L 335.06432 335.705835 
L 336.33568 335.96027 
L 337.60704 336.750906 
L 338.878401 337.155637 
L 340.149761 336.050494 
L 341.421121 336.06149 
L 343.963841 338.765676 
L 345.235202 339.11194 
L 346.506562 339.954357 
L 347.777922 339.297443 
L 349.049282 337.030667 
L 350.320643 337.582536 
L 351.592003 338.481792 
L 352.863363 337.195216 
L 354.134723 337.648922 
L 355.406083 338.344766 
L 356.677444 338.614604 
L 357.948804 337.938868 
L 359.220164 337.043115 
L 360.491524 336.410696 
L 363.034245 336.776796 
L 364.305605 336.74644 
L 366.848325 336.954902 
L 368.119686 336.171931 
L 369.391046 334.136319 
L 370.662406 334.985629 
L 371.933766 334.022045 
L 373.205126 334.730899 
L 374.476487 333.722186 
L 375.747847 331.884226 
L 377.019207 332.6158 
L 379.561928 334.694178 
L 380.833288 335.335069 
L 382.104648 335.317207 
L 383.376008 334.742448 
L 385.918729 335.190293 
L 387.190089 335.057918 
L 391.00417 335.8225 
L 392.27553 335.339402 
L 393.54689 335.871551 
L 394.81825 335.612592 
L 396.08961 335.896625 
L 398.632331 337.778903 
L 399.903691 338.005941 
L 401.175051 338.007312 
L 402.446411 337.69409 
L 403.717772 337.093392 
L 406.260492 338.019024 
L 407.531852 337.885606 
L 408.803213 337.86735 
L 410.074573 336.816153 
L 411.345933 336.53164 
L 412.617293 335.820379 
L 413.888653 336.159072 
L 415.160014 336.869345 
L 416.431374 336.049162 
L 417.702734 336.681064 
L 420.245455 336.600137 
L 422.788175 337.456363 
L 424.059535 337.824425 
L 425.330895 337.430954 
L 426.602256 337.938689 
L 427.873616 335.946522 
L 429.144976 336.058946 
L 430.416336 335.941213 
L 431.687697 335.519318 
L 432.959057 335.805687 
L 434.230417 336.634034 
L 436.773137 336.540459 
L 438.044498 335.522973 
L 439.315858 335.806505 
L 440.587218 336.635605 
L 441.858578 333.466272 
L 443.129938 332.977687 
L 444.401299 333.201587 
L 445.672659 331.341611 
L 446.944019 332.249618 
L 448.215379 333.00332 
L 449.48674 332.403314 
L 450.7581 332.813208 
L 452.02946 331.499845 
L 453.30082 332.481018 
L 454.57218 333.766779 
L 455.843541 334.453301 
L 458.386261 336.157213 
L 459.657621 336.315408 
L 460.928982 336.069875 
L 462.200342 336.55779 
L 463.471702 336.677709 
L 464.743062 337.686648 
L 466.014422 337.505785 
L 467.285783 336.722398 
L 468.557143 336.810102 
L 469.828503 336.664941 
L 471.099863 336.685355 
L 472.371224 336.403001 
L 473.642584 335.724947 
L 474.913944 337.026407 
L 476.185304 337.257766 
L 477.456664 337.172184 
L 478.728025 337.521405 
L 479.999385 338.238259 
L 481.270745 338.077068 
L 482.542105 338.716489 
L 483.813465 336.940145 
L 486.356186 337.259837 
L 487.627546 338.151473 
L 488.898906 337.532304 
L 490.170267 337.40829 
L 491.441627 337.054601 
L 492.712987 336.988316 
L 493.984347 336.616097 
L 495.255707 337.192846 
L 496.527068 337.060331 
L 497.798428 336.466218 
L 499.069788 336.436621 
L 500.341148 335.65667 
L 501.612509 336.066753 
L 502.883869 336.140412 
L 504.155229 337.409865 
L 505.426589 337.656206 
L 506.697949 336.61002 
L 507.96931 336.441954 
L 509.24067 336.853863 
L 510.51203 336.567453 
L 511.78339 336.683126 
L 513.054751 337.650752 
L 514.326111 337.596271 
L 515.597471 337.694215 
L 516.868831 337.170489 
L 518.140191 335.411855 
L 519.411552 334.680019 
L 520.682912 335.331494 
L 521.954272 334.142187 
L 523.225632 335.384196 
L 524.496992 336.359116 
L 525.768353 335.802842 
L 527.039713 335.708624 
L 528.311073 335.424608 
L 529.582433 336.256707 
L 530.853794 336.273598 
L 532.125154 336.695865 
L 533.396514 336.916346 
L 534.667874 336.550294 
L 537.210595 337.474728 
L 538.481955 337.920675 
L 539.753315 337.852058 
L 541.024675 337.135835 
L 542.296036 338.125911 
L 543.567396 338.632388 
L 544.838756 339.447477 
L 546.110116 338.055951 
L 547.381476 337.699497 
L 548.652837 338.693194 
L 549.924197 339.013038 
L 551.195557 337.611723 
L 552.466917 337.286635 
L 553.738278 337.202422 
L 555.009638 337.84145 
L 556.280998 339.279741 
L 557.552358 338.643296 
L 558.823718 338.824327 
L 561.366439 338.086126 
L 562.637799 336.808496 
L 563.909159 337.795661 
L 565.180519 338.366463 
L 566.45188 337.844101 
L 568.9946 339.176696 
L 570.26596 336.233427 
L 572.808681 335.691743 
L 574.080041 335.965714 
L 576.622761 335.402596 
L 577.894122 335.717891 
L 579.165482 334.935702 
L 580.436842 334.842481 
L 581.708202 336.040893 
L 582.979563 336.127257 
L 584.250923 336.337626 
L 585.522283 336.19567 
L 586.793643 336.872531 
L 588.065003 335.989245 
L 588.065003 335.989245 
" clip-path="url(#p7249f6a7fb)" style="fill: none; stroke: #ff7f0e; stroke-width: 1.2; stroke-linecap: square"/>
   </g>
   <g id="line2d_31">
    <path d="M 82.063636 111.712538 
L 83.334997 108.3392 
L 84.606357 110.780741 
L 88.420437 143.593747 
L 90.963158 157.359364 
L 92.234518 166.088049 
L 93.505878 176.994507 
L 94.777239 186.569771 
L 96.048599 192.7492 
L 97.319959 196.464074 
L 98.591319 206.649836 
L 99.862679 215.32324 
L 101.13404 227.463325 
L 103.67676 245.308346 
L 107.490841 266.048312 
L 110.033561 280.540151 
L 111.304921 285.589369 
L 112.576282 291.131979 
L 117.661722 307.771491 
L 118.933083 310.946 
L 122.747163 318.585874 
L 124.018524 320.383511 
L 126.561244 325.093181 
L 127.832604 326.465964 
L 129.103964 326.341372 
L 130.375325 327.640089 
L 132.918045 329.816031 
L 134.189405 331.488985 
L 135.460766 330.765445 
L 136.732126 331.117072 
L 138.003486 331.678841 
L 140.546206 332.33263 
L 141.817567 333.113878 
L 143.088927 333.444839 
L 144.360287 332.419411 
L 145.631647 333.047494 
L 146.903008 334.697467 
L 148.174368 334.64725 
L 150.717088 336.206514 
L 151.988448 337.064178 
L 153.259809 336.721599 
L 154.531169 336.119158 
L 155.802529 336.503259 
L 157.073889 337.291098 
L 158.345249 335.778856 
L 159.61661 335.971045 
L 160.88797 335.804125 
L 162.15933 336.19061 
L 163.43069 336.280795 
L 164.702051 337.055376 
L 165.973411 336.806509 
L 167.244771 337.464503 
L 168.516131 337.798544 
L 169.787491 338.638851 
L 171.058852 338.662249 
L 172.330212 339.898284 
L 173.601572 338.988241 
L 174.872932 338.75061 
L 176.144293 339.136926 
L 177.415653 339.68278 
L 178.687013 339.783561 
L 179.958373 340.480173 
L 181.229733 340.716397 
L 182.501094 341.489104 
L 183.772454 341.845 
L 185.043814 340.616037 
L 186.315174 340.069214 
L 187.586535 338.74915 
L 188.857895 337.612922 
L 190.129255 337.322494 
L 191.400615 335.047169 
L 193.943336 336.116081 
L 195.214696 336.170047 
L 196.486056 337.372389 
L 197.757416 338.136962 
L 199.028776 337.44103 
L 200.300137 337.823893 
L 201.571497 337.344023 
L 202.842857 336.582331 
L 204.114217 336.358944 
L 205.385578 336.573991 
L 206.656938 338.211675 
L 207.928298 338.424577 
L 209.199658 338.813595 
L 210.471018 338.907969 
L 211.742379 338.035932 
L 213.013739 337.319048 
L 214.285099 337.274304 
L 215.556459 337.115463 
L 216.82782 337.40566 
L 219.37054 337.570425 
L 220.6419 336.298633 
L 221.91326 336.636709 
L 223.184621 336.044327 
L 224.455981 336.548385 
L 226.998701 335.175922 
L 228.270062 336.11912 
L 230.812782 336.901289 
L 232.084142 336.132239 
L 233.355502 336.404651 
L 234.626863 336.287671 
L 235.898223 336.9841 
L 237.169583 336.379998 
L 238.440943 336.6543 
L 239.712303 337.672573 
L 240.983664 337.798708 
L 242.255024 337.348341 
L 243.526384 337.547923 
L 244.797744 337.88507 
L 246.069105 337.401241 
L 247.340465 337.20759 
L 248.611825 338.256327 
L 249.883185 338.944296 
L 252.425906 338.401501 
L 253.697266 338.443727 
L 256.239986 339.259025 
L 257.511347 339.898783 
L 258.782707 340.309019 
L 260.054067 338.392585 
L 261.325427 338.351596 
L 263.868148 339.747639 
L 266.410868 339.032425 
L 267.682228 339.132992 
L 268.953589 338.047141 
L 270.224949 338.682255 
L 271.496309 338.811998 
L 272.767669 339.852104 
L 274.039029 339.918944 
L 275.31039 340.366602 
L 276.58175 341.187128 
L 277.85311 340.867428 
L 279.12447 338.91759 
L 281.667191 339.016215 
L 282.938551 338.889565 
L 284.209911 338.102288 
L 285.481271 338.121639 
L 286.752632 337.678935 
L 288.023992 336.528335 
L 289.295352 336.384415 
L 290.566712 335.511202 
L 291.838072 335.33561 
L 293.109433 334.887283 
L 294.380793 335.58018 
L 295.652153 334.446158 
L 298.194874 334.973119 
L 299.466234 334.180314 
L 300.737594 335.146995 
L 302.008954 335.027738 
L 303.280314 334.459733 
L 304.551675 334.608439 
L 305.823035 335.531508 
L 307.094395 336.087149 
L 308.365755 337.546531 
L 309.637116 338.513137 
L 310.908476 337.981085 
L 312.179836 338.429686 
L 313.451196 337.534784 
L 314.722556 338.426323 
L 315.993917 337.563679 
L 317.265277 337.810072 
L 318.536637 337.523241 
L 319.807997 337.749994 
L 321.079357 337.075498 
L 322.350718 337.690982 
L 324.893438 336.488416 
L 327.436159 337.790248 
L 328.707519 337.281929 
L 329.978879 337.517713 
L 331.250239 337.248058 
L 332.521599 337.428207 
L 333.79296 337.804915 
L 336.33568 338.061791 
L 337.60704 338.667281 
L 338.878401 338.837638 
L 340.149761 338.491335 
L 341.421121 338.904995 
L 342.692481 338.255789 
L 343.963841 339.316729 
L 345.235202 339.16216 
L 346.506562 339.201224 
L 347.777922 338.794046 
L 349.049282 339.361518 
L 350.320643 340.208343 
L 351.592003 338.986135 
L 352.863363 338.76527 
L 354.134723 338.226044 
L 355.406083 339.028737 
L 357.948804 338.073264 
L 359.220164 339.259952 
L 360.491524 339.405797 
L 361.762884 339.186016 
L 364.305605 338.351884 
L 365.576965 338.83529 
L 366.848325 338.305448 
L 368.119686 339.672797 
L 369.391046 340.591086 
L 370.662406 339.602026 
L 373.205126 340.009489 
L 374.476487 338.538424 
L 377.019207 339.113281 
L 378.290567 338.649688 
L 379.561928 338.734219 
L 380.833288 339.371328 
L 382.104648 339.719948 
L 383.376008 339.587018 
L 384.647368 339.67443 
L 385.918729 339.300218 
L 387.190089 338.681418 
L 388.461449 336.447475 
L 389.732809 336.540188 
L 391.00417 336.20804 
L 392.27553 336.449938 
L 393.54689 335.532231 
L 394.81825 334.868414 
L 396.08961 334.843654 
L 397.360971 335.268593 
L 398.632331 333.504419 
L 399.903691 333.922358 
L 401.175051 334.044586 
L 402.446411 334.727126 
L 403.717772 334.574094 
L 404.989132 334.747244 
L 406.260492 335.403448 
L 407.531852 336.533251 
L 408.803213 335.662554 
L 410.074573 336.002383 
L 411.345933 335.194513 
L 412.617293 336.250896 
L 413.888653 335.481101 
L 415.160014 336.014468 
L 416.431374 336.353187 
L 417.702734 336.853239 
L 418.974094 336.265379 
L 420.245455 336.908435 
L 421.516815 337.082319 
L 422.788175 337.472178 
L 424.059535 338.704892 
L 425.330895 338.074423 
L 426.602256 337.034119 
L 427.873616 337.007215 
L 429.144976 337.446836 
L 430.416336 336.712927 
L 431.687697 336.593348 
L 432.959057 337.096666 
L 434.230417 335.414198 
L 435.501777 336.115002 
L 436.773137 336.686418 
L 438.044498 337.073716 
L 439.315858 335.257134 
L 440.587218 335.091476 
L 441.858578 333.973158 
L 443.129938 333.787067 
L 444.401299 334.904724 
L 445.672659 335.028223 
L 448.215379 334.951632 
L 449.48674 333.347304 
L 450.7581 334.525825 
L 452.02946 334.641016 
L 453.30082 335.050437 
L 454.57218 335.083768 
L 455.843541 335.82135 
L 457.114901 335.145016 
L 458.386261 334.994648 
L 462.200342 335.343543 
L 463.471702 336.157702 
L 464.743062 336.461152 
L 466.014422 336.035763 
L 467.285783 336.061285 
L 474.913944 335.26016 
L 476.185304 335.688075 
L 478.728025 336.819631 
L 479.999385 337.172591 
L 481.270745 336.547259 
L 482.542105 336.677223 
L 483.813465 337.16663 
L 485.084826 334.757111 
L 486.356186 334.858312 
L 487.627546 335.377274 
L 488.898906 336.079939 
L 490.170267 336.412425 
L 491.441627 337.075084 
L 493.984347 337.538525 
L 495.255707 337.539887 
L 496.527068 338.749825 
L 497.798428 338.56321 
L 499.069788 339.295648 
L 500.341148 339.636558 
L 501.612509 339.57045 
L 502.883869 340.100028 
L 504.155229 339.571514 
L 505.426589 339.624652 
L 507.96931 340.347167 
L 509.24067 339.460448 
L 510.51203 339.662889 
L 511.78339 338.966764 
L 513.054751 338.662021 
L 514.326111 337.770732 
L 515.597471 337.932979 
L 516.868831 337.888955 
L 518.140191 337.667706 
L 520.682912 338.486286 
L 521.954272 338.990906 
L 523.225632 339.897862 
L 524.496992 340.276573 
L 525.768353 340.342004 
L 527.039713 339.468972 
L 528.311073 339.03132 
L 529.582433 338.711261 
L 532.125154 338.800178 
L 533.396514 338.673485 
L 534.667874 338.932032 
L 535.939234 339.320024 
L 537.210595 339.120586 
L 538.481955 338.38719 
L 539.753315 338.175994 
L 541.024675 337.328813 
L 542.296036 336.792688 
L 543.567396 337.752319 
L 544.838756 337.771126 
L 546.110116 338.003773 
L 547.381476 338.592626 
L 548.652837 335.8597 
L 549.924197 335.730714 
L 551.195557 335.428776 
L 553.738278 335.320275 
L 555.009638 336.194874 
L 556.280998 334.652834 
L 557.552358 334.953637 
L 558.823718 336.220448 
L 560.095079 335.563487 
L 561.366439 335.835889 
L 562.637799 335.748499 
L 563.909159 336.689687 
L 565.180519 336.654598 
L 566.45188 336.955404 
L 568.9946 337.973496 
L 570.26596 336.81837 
L 571.537321 337.403137 
L 574.080041 333.091055 
L 575.351401 333.3281 
L 576.622761 335.248125 
L 577.894122 335.865745 
L 579.165482 335.904588 
L 580.436842 335.586361 
L 581.708202 336.732731 
L 582.979563 336.859715 
L 584.250923 338.168609 
L 585.522283 338.600808 
L 586.793643 337.799004 
L 588.065003 338.743031 
L 588.065003 338.743031 
" clip-path="url(#p7249f6a7fb)" style="fill: none; stroke: #2ca02c; stroke-width: 1.2; stroke-linecap: square"/>
   </g>
   <g id="line2d_32">
    <path d="M 82.063636 111.712538 
L 83.334997 108.540507 
L 85.877717 111.752573 
L 89.691798 152.333233 
L 90.963158 166.817108 
L 96.048599 217.637804 
L 98.591319 238.976817 
L 99.862679 248.55878 
L 102.4054 264.756432 
L 103.67676 272.461713 
L 104.94812 279.302321 
L 106.219481 285.518401 
L 107.490841 290.423355 
L 108.762201 294.083627 
L 110.033561 298.404585 
L 112.576282 305.457842 
L 113.847642 307.869319 
L 115.119002 311.59274 
L 117.661722 317.245137 
L 118.933083 319.301504 
L 122.747163 324.658632 
L 124.018524 324.709682 
L 125.289884 326.479957 
L 126.561244 326.901414 
L 127.832604 326.418092 
L 129.103964 327.130997 
L 130.375325 328.089961 
L 131.646685 329.96494 
L 132.918045 328.448876 
L 134.189405 329.50197 
L 136.732126 328.734622 
L 138.003486 329.344086 
L 139.274846 330.631755 
L 140.546206 331.484655 
L 141.817567 330.793462 
L 143.088927 331.635643 
L 144.360287 332.14151 
L 145.631647 333.22087 
L 146.903008 332.973403 
L 148.174368 332.84625 
L 149.445728 332.923714 
L 150.717088 333.653932 
L 151.988448 334.77112 
L 153.259809 334.878558 
L 154.531169 333.958615 
L 155.802529 334.609185 
L 157.073889 332.899006 
L 158.345249 333.825952 
L 159.61661 334.040038 
L 160.88797 334.390196 
L 162.15933 333.39651 
L 163.43069 334.641118 
L 165.973411 336.64021 
L 167.244771 336.034626 
L 169.787491 335.38032 
L 171.058852 335.843897 
L 172.330212 336.570074 
L 173.601572 335.794733 
L 174.872932 335.971526 
L 176.144293 334.56437 
L 178.687013 334.610524 
L 179.958373 335.792674 
L 181.229733 335.370085 
L 182.501094 336.241893 
L 183.772454 336.549102 
L 185.043814 337.00633 
L 186.315174 338.027692 
L 187.586535 336.83171 
L 188.857895 336.035488 
L 190.129255 336.02712 
L 191.400615 336.358159 
L 192.671975 336.952863 
L 193.943336 337.708275 
L 195.214696 338.754161 
L 196.486056 338.016559 
L 197.757416 337.77132 
L 199.028776 337.889952 
L 200.300137 338.540979 
L 201.571497 339.049062 
L 202.842857 338.947438 
L 204.114217 338.506907 
L 205.385578 339.158591 
L 207.928298 338.308277 
L 209.199658 338.140649 
L 210.471018 338.904397 
L 211.742379 338.816187 
L 213.013739 339.667493 
L 214.285099 340.107624 
L 215.556459 339.303477 
L 216.82782 339.329704 
L 218.09918 339.85102 
L 219.37054 339.114929 
L 220.6419 339.776716 
L 221.91326 339.482992 
L 223.184621 338.689157 
L 224.455981 339.213325 
L 226.998701 338.661052 
L 228.270062 338.0015 
L 229.541422 337.70634 
L 230.812782 338.386433 
L 232.084142 338.678396 
L 233.355502 337.927033 
L 234.626863 338.572337 
L 237.169583 337.518351 
L 238.440943 339.062225 
L 239.712303 337.471286 
L 240.983664 338.088285 
L 242.255024 337.99734 
L 244.797744 337.417905 
L 246.069105 336.915937 
L 247.340465 336.223146 
L 248.611825 337.088465 
L 249.883185 338.275291 
L 251.154545 338.083354 
L 252.425906 338.687055 
L 253.697266 338.81233 
L 254.968626 338.740249 
L 256.239986 339.427584 
L 257.511347 339.911129 
L 258.782707 338.875139 
L 260.054067 338.435115 
L 261.325427 339.47374 
L 262.596787 336.935054 
L 263.868148 337.576125 
L 265.139508 337.828112 
L 267.682228 337.358125 
L 268.953589 337.809741 
L 270.224949 337.48576 
L 272.767669 338.170872 
L 274.039029 337.490367 
L 275.31039 338.087586 
L 276.58175 336.764588 
L 277.85311 336.675446 
L 279.12447 337.48291 
L 280.39583 336.930596 
L 281.667191 338.006721 
L 284.209911 336.979288 
L 285.481271 337.038657 
L 286.752632 337.518727 
L 288.023992 337.411861 
L 290.566712 339.247435 
L 291.838072 338.014715 
L 293.109433 336.149801 
L 294.380793 336.801463 
L 295.652153 337.088047 
L 296.923513 335.553509 
L 299.466234 336.661458 
L 300.737594 336.961962 
L 302.008954 337.961568 
L 303.280314 337.787179 
L 304.551675 338.211411 
L 305.823035 337.799322 
L 307.094395 338.558196 
L 308.365755 338.081813 
L 310.908476 340.267068 
L 312.179836 339.683685 
L 313.451196 339.595123 
L 315.993917 339.027306 
L 317.265277 339.279005 
L 318.536637 338.390221 
L 319.807997 339.263091 
L 322.350718 339.140168 
L 323.622078 339.28549 
L 326.164798 338.389155 
L 327.436159 338.595295 
L 328.707519 338.293487 
L 329.978879 338.348578 
L 331.250239 337.910706 
L 332.521599 337.901933 
L 333.79296 337.685356 
L 335.06432 335.058115 
L 336.33568 334.458395 
L 337.60704 334.077317 
L 338.878401 334.629361 
L 340.149761 334.782592 
L 341.421121 334.770651 
L 342.692481 334.098277 
L 343.963841 333.027586 
L 345.235202 333.450889 
L 346.506562 334.970289 
L 347.777922 335.039886 
L 349.049282 334.917272 
L 351.592003 336.719627 
L 352.863363 337.259593 
L 354.134723 337.969688 
L 355.406083 337.988687 
L 356.677444 338.743524 
L 357.948804 338.992735 
L 361.762884 338.512832 
L 363.034245 337.900889 
L 364.305605 338.393163 
L 365.576965 338.765901 
L 366.848325 339.306083 
L 368.119686 339.342648 
L 369.391046 338.5284 
L 370.662406 338.115109 
L 373.205126 336.808652 
L 374.476487 336.449873 
L 375.747847 336.684293 
L 377.019207 336.451662 
L 378.290567 336.781829 
L 379.561928 336.552849 
L 380.833288 336.986415 
L 382.104648 337.955617 
L 383.376008 338.256276 
L 384.647368 337.609465 
L 385.918729 338.37879 
L 387.190089 337.893308 
L 389.732809 336.293662 
L 391.00417 336.982286 
L 392.27553 337.209803 
L 393.54689 337.82777 
L 394.81825 337.170714 
L 396.08961 337.46743 
L 397.360971 338.528548 
L 398.632331 339.271173 
L 399.903691 338.679105 
L 401.175051 337.20737 
L 402.446411 335.496467 
L 403.717772 335.899089 
L 404.989132 335.997212 
L 406.260492 335.65185 
L 407.531852 336.394772 
L 410.074573 337.14151 
L 411.345933 337.238154 
L 412.617293 337.886777 
L 413.888653 339.13519 
L 415.160014 339.129531 
L 416.431374 339.481734 
L 418.974094 341.336975 
L 420.245455 341.62694 
L 421.516815 340.003203 
L 422.788175 340.057023 
L 424.059535 339.911222 
L 425.330895 340.017064 
L 426.602256 339.662903 
L 427.873616 339.513584 
L 429.144976 340.438748 
L 431.687697 339.536439 
L 432.959057 339.630684 
L 435.501777 340.363548 
L 436.773137 340.529731 
L 438.044498 338.882331 
L 439.315858 339.080008 
L 440.587218 339.140537 
L 441.858578 338.754961 
L 443.129938 338.800416 
L 444.401299 339.12307 
L 445.672659 338.530172 
L 446.944019 338.29513 
L 448.215379 339.264454 
L 449.48674 339.826839 
L 450.7581 340.178358 
L 452.02946 339.959618 
L 453.30082 338.719943 
L 454.57218 338.271337 
L 455.843541 338.212659 
L 457.114901 337.950971 
L 458.386261 337.400578 
L 459.657621 336.445845 
L 460.928982 336.19037 
L 462.200342 336.698509 
L 463.471702 336.603353 
L 464.743062 334.90236 
L 466.014422 334.052268 
L 467.285783 334.771891 
L 468.557143 334.957169 
L 469.828503 334.800746 
L 471.099863 335.276984 
L 472.371224 336.128972 
L 473.642584 335.359023 
L 474.913944 335.517347 
L 476.185304 336.098463 
L 477.456664 334.955953 
L 478.728025 335.58392 
L 479.999385 336.621389 
L 481.270745 336.098029 
L 482.542105 336.608055 
L 483.813465 336.173649 
L 485.084826 336.910564 
L 487.627546 337.922702 
L 488.898906 336.53084 
L 490.170267 337.732194 
L 491.441627 338.212686 
L 492.712987 336.616667 
L 493.984347 336.939473 
L 495.255707 337.574365 
L 496.527068 338.06172 
L 497.798428 338.373245 
L 499.069788 338.974478 
L 501.612509 337.836435 
L 502.883869 338.490951 
L 504.155229 337.014473 
L 505.426589 336.723254 
L 506.697949 337.64842 
L 507.96931 338.017254 
L 510.51203 337.537027 
L 511.78339 338.472805 
L 513.054751 338.878967 
L 514.326111 338.803053 
L 515.597471 337.407277 
L 516.868831 338.110998 
L 518.140191 339.088018 
L 519.411552 337.976493 
L 520.682912 336.353602 
L 521.954272 335.880425 
L 523.225632 335.53824 
L 524.496992 336.678009 
L 525.768353 337.287671 
L 528.311073 336.993574 
L 529.582433 337.582724 
L 530.853794 337.82455 
L 532.125154 336.366164 
L 534.667874 336.186527 
L 535.939234 337.671097 
L 537.210595 338.322615 
L 538.481955 336.200455 
L 539.753315 337.847167 
L 541.024675 337.735623 
L 542.296036 338.218837 
L 543.567396 338.826355 
L 544.838756 338.113192 
L 546.110116 337.831081 
L 547.381476 338.158036 
L 549.924197 337.676271 
L 551.195557 336.276125 
L 552.466917 336.819298 
L 553.738278 336.902352 
L 555.009638 338.741894 
L 556.280998 339.464651 
L 557.552358 338.149202 
L 560.095079 337.389035 
L 561.366439 337.958531 
L 562.637799 338.881079 
L 563.909159 338.155943 
L 565.180519 339.104653 
L 566.45188 339.716465 
L 567.72324 339.783338 
L 568.9946 340.041323 
L 570.26596 339.825163 
L 571.537321 339.439218 
L 572.808681 338.402203 
L 574.080041 338.784019 
L 575.351401 337.211328 
L 577.894122 339.370954 
L 579.165482 338.838448 
L 581.708202 340.191364 
L 582.979563 340.509767 
L 585.522283 339.855746 
L 586.793643 340.183259 
L 588.065003 339.883397 
L 588.065003 339.883397 
" clip-path="url(#p7249f6a7fb)" style="fill: none; stroke: #9467bd; stroke-width: 1.2; stroke-linecap: square"/>
   </g>
   <g id="patch_3">
    <path d="M 56.7 356.965 
L 56.7 24.325 
" style="fill: none; stroke: #000000; stroke-width: 0.8; stroke-linejoin: miter; stroke-linecap: square"/>
   </g>
   <g id="patch_4">
    <path d="M 614.7 356.965 
L 614.7 24.325 
" style="fill: none; stroke: #000000; stroke-width: 0.8; stroke-linejoin: miter; stroke-linecap: square"/>
   </g>
   <g id="patch_5">
    <path d="M 56.7 356.965 
L 614.7 356.965 
" style="fill: none; stroke: #000000; stroke-width: 0.8; stroke-linejoin: miter; stroke-linecap: square"/>
   </g>
   <g id="patch_6">
    <path d="M 56.7 24.325 
L 614.7 24.325 
" style="fill: none; stroke: #000000; stroke-width: 0.8; stroke-linejoin: miter; stroke-linecap: square"/>
   </g>
   <g id="text_17">
    <!-- Average Transmission Delay -->
    <g transform="translate(231.7 18.325) scale(0.16 -0.16)">
     <defs>
      <path id="SimHei-41" d="M 3075 125 
L 2475 125 
L 2125 1450 
L 1025 1450 
L 675 125 
L 75 125 
L 1325 4450 
L 1825 4450 
L 3075 125 
z
M 2000 1925 
L 1600 3450 
L 1550 3450 
L 1150 1925 
L 2000 1925 
z
" transform="scale(0.015625)"/>
      <path id="SimHei-76" d="M 2875 2925 
L 1825 75 
L 1275 75 
L 225 2925 
L 750 2925 
L 1525 750 
L 1575 750 
L 2350 2925 
L 2875 2925 
z
" transform="scale(0.015625)"/>
      <path id="SimHei-72" d="M 2500 2425 
Q 2025 2500 1700 2287 
Q 1375 2075 1150 1550 
L 1150 125 
L 650 125 
L 650 2925 
L 1150 2925 
L 1150 2200 
Q 1375 2600 1712 2787 
Q 2050 2975 2500 2975 
L 2500 2425 
z
" transform="scale(0.015625)"/>
      <path id="SimHei-67" d="M 2975 2500 
Q 2800 2550 2637 2562 
Q 2475 2575 2300 2525 
Q 2375 2450 2425 2337 
Q 2475 2225 2475 2000 
Q 2475 1575 2187 1300 
Q 1900 1025 1475 1025 
Q 1375 1025 1212 1062 
Q 1050 1100 950 1150 
Q 875 1100 850 1050 
Q 825 1000 825 925 
Q 825 800 1000 737 
Q 1175 675 1625 675 
Q 2350 675 2612 475 
Q 2875 275 2875 -25 
Q 2875 -425 2487 -612 
Q 2100 -800 1575 -800 
Q 900 -800 575 -625 
Q 250 -450 250 -150 
Q 250 0 375 150 
Q 500 300 700 400 
Q 550 475 462 587 
Q 375 700 375 875 
Q 375 1025 487 1137 
Q 600 1250 750 1325 
Q 625 1450 550 1625 
Q 475 1800 475 2000 
Q 475 2425 762 2700 
Q 1050 2975 1475 2975 
Q 1700 2975 1862 2912 
Q 2025 2850 2150 2725 
Q 2350 2875 2550 2937 
Q 2750 3000 2975 2975 
L 2975 2500 
z
M 1975 2000 
Q 1975 2250 1850 2400 
Q 1725 2550 1475 2550 
Q 1225 2550 1100 2400 
Q 975 2250 975 2000 
Q 975 1750 1100 1600 
Q 1225 1450 1475 1450 
Q 1725 1450 1850 1600 
Q 1975 1750 1975 2000 
z
M 2400 -75 
Q 2400 25 2287 125 
Q 2175 225 1725 225 
Q 1625 225 1450 237 
Q 1275 250 1050 275 
Q 850 200 775 100 
Q 700 0 700 -100 
Q 700 -250 900 -350 
Q 1100 -450 1600 -450 
Q 2025 -450 2212 -337 
Q 2400 -225 2400 -75 
z
" transform="scale(0.015625)"/>
      <path id="SimHei-54" d="M 2850 3925 
L 1850 3925 
L 1850 125 
L 1275 125 
L 1275 3925 
L 275 3925 
L 275 4400 
L 2850 4400 
L 2850 3925 
z
" transform="scale(0.015625)"/>
      <path id="SimHei-6e" d="M 2800 125 
L 2300 125 
L 2300 1925 
Q 2300 2225 2150 2400 
Q 2000 2575 1750 2575 
Q 1425 2575 1137 2237 
Q 850 1900 850 1400 
L 850 125 
L 350 125 
L 350 2925 
L 850 2925 
L 850 2400 
Q 1050 2675 1287 2825 
Q 1525 2975 1900 2975 
Q 2350 2975 2575 2725 
Q 2800 2475 2800 2100 
L 2800 125 
z
" transform="scale(0.015625)"/>
      <path id="SimHei-6d" d="M 3050 125 
L 2550 125 
L 2550 2150 
Q 2550 2300 2500 2400 
Q 2450 2500 2300 2500 
Q 2125 2500 1975 2312 
Q 1825 2125 1825 1825 
L 1825 125 
L 1325 125 
L 1325 2150 
Q 1325 2300 1275 2400 
Q 1225 2500 1075 2500 
Q 900 2500 750 2312 
Q 600 2125 600 1825 
L 600 125 
L 100 125 
L 100 2925 
L 600 2925 
L 600 2550 
Q 725 2750 900 2862 
Q 1075 2975 1275 2975 
Q 1475 2975 1612 2862 
Q 1750 2750 1800 2550 
Q 1925 2750 2087 2862 
Q 2250 2975 2450 2975 
Q 2750 2975 2900 2812 
Q 3050 2650 3050 2350 
L 3050 125 
z
" transform="scale(0.015625)"/>
     </defs>
     <use xlink:href="#SimHei-41"/>
     <use xlink:href="#SimHei-76" transform="translate(50 0)"/>
     <use xlink:href="#SimHei-65" transform="translate(100 0)"/>
     <use xlink:href="#SimHei-72" transform="translate(150 0)"/>
     <use xlink:href="#SimHei-61" transform="translate(200 0)"/>
     <use xlink:href="#SimHei-67" transform="translate(250 0)"/>
     <use xlink:href="#SimHei-65" transform="translate(300 0)"/>
     <use xlink:href="#SimHei-20" transform="translate(350 0)"/>
     <use xlink:href="#SimHei-54" transform="translate(400 0)"/>
     <use xlink:href="#SimHei-72" transform="translate(450 0)"/>
     <use xlink:href="#SimHei-61" transform="translate(500 0)"/>
     <use xlink:href="#SimHei-6e" transform="translate(550 0)"/>
     <use xlink:href="#SimHei-73" transform="translate(600 0)"/>
     <use xlink:href="#SimHei-6d" transform="translate(650 0)"/>
     <use xlink:href="#SimHei-69" transform="translate(700 0)"/>
     <use xlink:href="#SimHei-73" transform="translate(750 0)"/>
     <use xlink:href="#SimHei-73" transform="translate(800 0)"/>
     <use xlink:href="#SimHei-69" transform="translate(850 0)"/>
     <use xlink:href="#SimHei-6f" transform="translate(900 0)"/>
     <use xlink:href="#SimHei-6e" transform="translate(950 0)"/>
     <use xlink:href="#SimHei-20" transform="translate(1000 0)"/>
     <use xlink:href="#SimHei-44" transform="translate(1050 0)"/>
     <use xlink:href="#SimHei-65" transform="translate(1100 0)"/>
     <use xlink:href="#SimHei-6c" transform="translate(1150 0)"/>
     <use xlink:href="#SimHei-61" transform="translate(1200 0)"/>
     <use xlink:href="#SimHei-79" transform="translate(1250 0)"/>
    </g>
   </g>
   <g id="legend_1">
    <g id="patch_7">
     <path d="M 489.9 97.525 
L 606.3 97.525 
Q 608.7 97.525 608.7 95.125 
L 608.7 32.725 
Q 608.7 30.325 606.3 30.325 
L 489.9 30.325 
Q 487.5 30.325 487.5 32.725 
L 487.5 95.125 
Q 487.5 97.525 489.9 97.525 
z
" style="fill: #ffffff; opacity: 0.8; stroke: #cccccc; stroke-linejoin: miter"/>
    </g>
    <g id="line2d_33">
     <path d="M 492.3 39.325 
L 504.3 39.325 
L 516.3 39.325 
" style="fill: none; stroke: #1f77b4; stroke-width: 1.2; stroke-linecap: square"/>
    </g>
    <g id="text_18">
     <!-- GCN-DDQN -->
     <g transform="translate(525.9 43.525) scale(0.12 -0.12)">
      <defs>
       <path id="SimHei-47" d="M 2850 75 
L 2425 75 
L 2350 425 
Q 2250 275 2037 175 
Q 1825 75 1575 75 
Q 1050 75 637 562 
Q 225 1050 225 2125 
Q 225 3300 600 3875 
Q 975 4450 1625 4450 
Q 2200 4450 2525 4025 
Q 2850 3600 2850 2925 
L 2300 2925 
Q 2300 3450 2125 3712 
Q 1950 3975 1625 3975 
Q 1225 3975 1025 3562 
Q 825 3150 825 2175 
Q 825 1250 1075 900 
Q 1325 550 1650 550 
Q 1975 550 2162 787 
Q 2350 1025 2350 1525 
L 2350 1800 
L 1575 1800 
L 1575 2275 
L 2850 2275 
L 2850 75 
z
" transform="scale(0.015625)"/>
       <path id="SimHei-43" d="M 2975 1825 
Q 2950 875 2575 475 
Q 2200 75 1675 75 
Q 1075 75 650 562 
Q 225 1050 225 2125 
Q 225 3300 637 3875 
Q 1050 4450 1700 4450 
Q 2250 4450 2612 4037 
Q 2975 3625 2950 2875 
L 2400 2875 
Q 2400 3425 2225 3700 
Q 2050 3975 1700 3975 
Q 1300 3975 1062 3562 
Q 825 3150 825 2175 
Q 825 1275 1062 912 
Q 1300 550 1675 550 
Q 1950 550 2175 812 
Q 2400 1075 2400 1825 
L 2975 1825 
z
" transform="scale(0.015625)"/>
       <path id="SimHei-4e" d="M 2850 125 
L 2225 125 
L 850 3225 
L 825 3225 
L 825 125 
L 250 125 
L 250 4400 
L 875 4400 
L 2250 1300 
L 2275 1300 
L 2275 4400 
L 2850 4400 
L 2850 125 
z
" transform="scale(0.015625)"/>
       <path id="SimHei-2d" d="M 2975 2125 
L 125 2125 
L 125 2525 
L 2975 2525 
L 2975 2125 
z
" transform="scale(0.015625)"/>
       <path id="SimHei-51" d="M 2950 2275 
Q 2950 1675 2862 1262 
Q 2775 850 2575 600 
L 2775 225 
L 2375 -200 
L 2150 225 
Q 2050 150 1900 112 
Q 1750 75 1575 75 
Q 925 75 550 587 
Q 175 1100 175 2275 
Q 175 3450 550 3950 
Q 925 4450 1575 4450 
Q 2225 4450 2587 3950 
Q 2950 3450 2950 2275 
z
M 2350 2275 
Q 2350 3325 2125 3650 
Q 1900 3975 1575 3975 
Q 1250 3975 1012 3650 
Q 775 3325 775 2275 
Q 775 1225 1012 887 
Q 1250 550 1575 550 
Q 1700 550 1800 587 
Q 1900 625 1950 675 
L 1550 1450 
L 1900 1875 
L 2250 1200 
Q 2300 1450 2325 1650 
Q 2350 1850 2350 2275 
z
" transform="scale(0.015625)"/>
      </defs>
      <use xlink:href="#SimHei-47"/>
      <use xlink:href="#SimHei-43" transform="translate(50 0)"/>
      <use xlink:href="#SimHei-4e" transform="translate(100 0)"/>
      <use xlink:href="#SimHei-2d" transform="translate(150 0)"/>
      <use xlink:href="#SimHei-44" transform="translate(200 0)"/>
      <use xlink:href="#SimHei-44" transform="translate(250 0)"/>
      <use xlink:href="#SimHei-51" transform="translate(300 0)"/>
      <use xlink:href="#SimHei-4e" transform="translate(350 0)"/>
     </g>
    </g>
    <g id="line2d_34">
     <path d="M 492.3 55.225 
L 504.3 55.225 
L 516.3 55.225 
" style="fill: none; stroke: #ff7f0e; stroke-width: 1.2; stroke-linecap: square"/>
    </g>
    <g id="text_19">
     <!-- GCN-D3QN -->
     <g transform="translate(525.9 59.425) scale(0.12 -0.12)">
      <use xlink:href="#SimHei-47"/>
      <use xlink:href="#SimHei-43" transform="translate(50 0)"/>
      <use xlink:href="#SimHei-4e" transform="translate(100 0)"/>
      <use xlink:href="#SimHei-2d" transform="translate(150 0)"/>
      <use xlink:href="#SimHei-44" transform="translate(200 0)"/>
      <use xlink:href="#SimHei-33" transform="translate(250 0)"/>
      <use xlink:href="#SimHei-51" transform="translate(300 0)"/>
      <use xlink:href="#SimHei-4e" transform="translate(350 0)"/>
     </g>
    </g>
    <g id="line2d_35">
     <path d="M 492.3 71.125 
L 504.3 71.125 
L 516.3 71.125 
" style="fill: none; stroke: #2ca02c; stroke-width: 1.2; stroke-linecap: square"/>
    </g>
    <g id="text_20">
     <!-- GAT-LSTM-DDQN -->
     <g transform="translate(525.9 75.325) scale(0.12 -0.12)">
      <defs>
       <path id="SimHei-4c" d="M 2900 125 
L 300 125 
L 300 4400 
L 875 4400 
L 875 600 
L 2900 600 
L 2900 125 
z
" transform="scale(0.015625)"/>
       <path id="SimHei-53" d="M 2900 1325 
Q 2900 750 2537 412 
Q 2175 75 1550 75 
Q 925 75 575 425 
Q 225 775 225 1300 
L 225 1475 
L 800 1475 
L 800 1325 
Q 800 950 1025 750 
Q 1250 550 1550 550 
Q 1950 550 2137 762 
Q 2325 975 2325 1275 
Q 2325 1525 2100 1737 
Q 1875 1950 1450 2125 
Q 850 2350 587 2625 
Q 325 2900 325 3275 
Q 325 3800 687 4125 
Q 1050 4450 1550 4450 
Q 2200 4450 2487 4062 
Q 2775 3675 2775 3225 
L 2200 3225 
Q 2225 3500 2050 3725 
Q 1875 3950 1550 3950 
Q 1250 3950 1075 3787 
Q 900 3625 900 3350 
Q 900 3125 1037 2962 
Q 1175 2800 1750 2575 
Q 2300 2350 2600 2037 
Q 2900 1725 2900 1325 
z
" transform="scale(0.015625)"/>
       <path id="SimHei-4d" d="M 2925 125 
L 2425 125 
L 2425 3175 
L 2375 3175 
L 1775 125 
L 1375 125 
L 775 3175 
L 725 3175 
L 725 125 
L 225 125 
L 225 4400 
L 1000 4400 
L 1550 1575 
L 1600 1575 
L 2150 4400 
L 2925 4400 
L 2925 125 
z
" transform="scale(0.015625)"/>
      </defs>
      <use xlink:href="#SimHei-47"/>
      <use xlink:href="#SimHei-41" transform="translate(50 0)"/>
      <use xlink:href="#SimHei-54" transform="translate(100 0)"/>
      <use xlink:href="#SimHei-2d" transform="translate(150 0)"/>
      <use xlink:href="#SimHei-4c" transform="translate(200 0)"/>
      <use xlink:href="#SimHei-53" transform="translate(250 0)"/>
      <use xlink:href="#SimHei-54" transform="translate(300 0)"/>
      <use xlink:href="#SimHei-4d" transform="translate(350 0)"/>
      <use xlink:href="#SimHei-2d" transform="translate(400 0)"/>
      <use xlink:href="#SimHei-44" transform="translate(450 0)"/>
      <use xlink:href="#SimHei-44" transform="translate(500 0)"/>
      <use xlink:href="#SimHei-51" transform="translate(550 0)"/>
      <use xlink:href="#SimHei-4e" transform="translate(600 0)"/>
     </g>
    </g>
    <g id="line2d_36">
     <path d="M 492.3 87.025 
L 504.3 87.025 
L 516.3 87.025 
" style="fill: none; stroke: #9467bd; stroke-width: 1.2; stroke-linecap: square"/>
    </g>
    <g id="text_21">
     <!-- GLDVTO -->
     <g transform="translate(525.9 91.225) scale(0.12 -0.12)">
      <defs>
       <path id="SimHei-56" d="M 3050 4400 
L 1800 75 
L 1300 75 
L 50 4400 
L 650 4400 
L 1525 1125 
L 1575 1125 
L 2450 4400 
L 3050 4400 
z
" transform="scale(0.015625)"/>
       <path id="SimHei-4f" d="M 2950 2275 
Q 2950 1100 2587 587 
Q 2225 75 1575 75 
Q 925 75 550 587 
Q 175 1100 175 2275 
Q 175 3450 550 3950 
Q 925 4450 1575 4450 
Q 2225 4450 2587 3950 
Q 2950 3450 2950 2275 
z
M 2350 2275 
Q 2350 3325 2125 3650 
Q 1900 3975 1575 3975 
Q 1250 3975 1012 3650 
Q 775 3325 775 2275 
Q 775 1225 1012 887 
Q 1250 550 1575 550 
Q 1900 550 2125 887 
Q 2350 1225 2350 2275 
z
" transform="scale(0.015625)"/>
      </defs>
      <use xlink:href="#SimHei-47"/>
      <use xlink:href="#SimHei-4c" transform="translate(50 0)"/>
      <use xlink:href="#SimHei-44" transform="translate(100 0)"/>
      <use xlink:href="#SimHei-56" transform="translate(150 0)"/>
      <use xlink:href="#SimHei-54" transform="translate(200 0)"/>
      <use xlink:href="#SimHei-4f" transform="translate(250 0)"/>
     </g>
    </g>
   </g>
  </g>
 </g>
 <defs>
  <clipPath id="p7249f6a7fb">
   <rect x="56.7" y="24.325" width="558" height="332.64"/>
  </clipPath>
 </defs>
</svg>
