<?xml version="1.0" encoding="utf-8" standalone="no"?>
<!DOCTYPE svg PUBLIC "-//W3C//DTD SVG 1.1//EN"
  "http://www.w3.org/Graphics/SVG/1.1/DTD/svg11.dtd">
<svg xmlns:xlink="http://www.w3.org/1999/xlink" width="712.99pt" height="424.835pt" viewBox="0 0 712.99 424.835" xmlns="http://www.w3.org/2000/svg" version="1.1">
 <metadata>
  <rdf:RDF xmlns:dc="http://purl.org/dc/elements/1.1/" xmlns:cc="http://creativecommons.org/ns#" xmlns:rdf="http://www.w3.org/1999/02/22-rdf-syntax-ns#">
   <cc:Work>
    <dc:type rdf:resource="http://purl.org/dc/dcmitype/StillImage"/>
    <dc:date>2026-06-26T16:20:51.758553</dc:date>
    <dc:format>image/svg+xml</dc:format>
    <dc:creator>
     <cc:Agent>
      <dc:title>Matplotlib v3.10.7, https://matplotlib.org/</dc:title>
     </cc:Agent>
    </dc:creator>
   </cc:Work>
  </rdf:RDF>
 </metadata>
 <defs>
  <style type="text/css">*{stroke-linejoin: round; stroke-linecap: butt}</style>
 </defs>
 <g id="figure_1">
  <g id="patch_1">
   <path d="M -0 424.835 
L 712.99 424.835 
L 712.99 0 
L -0 0 
z
" style="fill: #ffffff"/>
  </g>
  <g id="axes_1">
   <g id="patch_2">
    <path d="M 55.2 383.885 
L 705.79 383.885 
L 705.79 24.325 
L 55.2 24.325 
z
" style="fill: #ffffff"/>
   </g>
   <g id="matplotlib.axis_1">
    <g id="xtick_1">
     <g id="line2d_1">
      <path d="M 84.772273 383.885 
L 84.772273 24.325 
" clip-path="url(#p008921f8c9)" style="fill: none; stroke: #b0b0b0; stroke-opacity: 0.3; stroke-width: 0.8; stroke-linecap: square"/>
     </g>
     <g id="line2d_2">
      <defs>
       <path id="m85a803c9e4" d="M 0 0 
L 0 3.5 
" style="stroke: #000000; stroke-width: 0.8"/>
      </defs>
      <g>
       <use xlink:href="#m85a803c9e4" x="84.772273" y="383.885" style="stroke: #000000; stroke-width: 0.8"/>
      </g>
     </g>
     <g id="text_1">
      <!-- 0 -->
      <g transform="translate(81.772273 399.135) scale(0.12 -0.12)">
       <defs>
        <path id="SimHei-30" d="M 225 2537 
Q 250 3200 412 3587 
Q 575 3975 875 4225 
Q 1175 4475 1612 4475 
Q 2050 4475 2375 4112 
Q 2700 3750 2800 3200 
Q 2900 2650 2862 1937 
Q 2825 1225 2612 775 
Q 2400 325 1975 150 
Q 1550 -25 1125 187 
Q 700 400 525 750 
Q 350 1100 275 1487 
Q 200 1875 225 2537 
z
M 750 2687 
Q 675 2000 800 1462 
Q 925 925 1212 700 
Q 1500 475 1800 612 
Q 2100 750 2237 1162 
Q 2375 1575 2375 2062 
Q 2375 2550 2337 2950 
Q 2300 3350 2112 3675 
Q 1925 4000 1612 4012 
Q 1300 4025 1062 3700 
Q 825 3375 750 2687 
z
" transform="scale(0.015625)"/>
       </defs>
       <use xlink:href="#SimHei-30"/>
      </g>
     </g>
    </g>
    <g id="xtick_2">
     <g id="line2d_3">
      <path d="M 158.888244 383.885 
L 158.888244 24.325 
" clip-path="url(#p008921f8c9)" style="fill: none; stroke: #b0b0b0; stroke-opacity: 0.3; stroke-width: 0.8; stroke-linecap: square"/>
     </g>
     <g id="line2d_4">
      <g>
       <use xlink:href="#m85a803c9e4" x="158.888244" y="383.885" style="stroke: #000000; stroke-width: 0.8"/>
      </g>
     </g>
     <g id="text_2">
      <!-- 50 -->
      <g transform="translate(152.888244 399.135) scale(0.12 -0.12)">
       <defs>
        <path id="SimHei-35" d="M 550 1325 
Q 725 650 1150 575 
Q 1575 500 1837 662 
Q 2100 825 2212 1087 
Q 2325 1350 2312 1675 
Q 2300 2000 2137 2225 
Q 1975 2450 1725 2525 
Q 1475 2600 1162 2525 
Q 850 2450 650 2175 
L 225 2225 
Q 275 2375 700 4375 
L 2675 4375 
L 2675 3925 
L 1075 3925 
Q 950 3250 825 2850 
Q 1200 3025 1525 3012 
Q 1850 3000 2150 2862 
Q 2450 2725 2587 2487 
Q 2725 2250 2787 2012 
Q 2850 1775 2837 1500 
Q 2825 1225 2725 937 
Q 2625 650 2425 462 
Q 2225 275 1937 162 
Q 1650 50 1275 75 
Q 900 100 562 350 
Q 225 600 100 1200 
L 550 1325 
z
" transform="scale(0.015625)"/>
       </defs>
       <use xlink:href="#SimHei-35"/>
       <use xlink:href="#SimHei-30" transform="translate(50 0)"/>
      </g>
     </g>
    </g>
    <g id="xtick_3">
     <g id="line2d_5">
      <path d="M 233.004216 383.885 
L 233.004216 24.325 
" clip-path="url(#p008921f8c9)" style="fill: none; stroke: #b0b0b0; stroke-opacity: 0.3; stroke-width: 0.8; stroke-linecap: square"/>
     </g>
     <g id="line2d_6">
      <g>
       <use xlink:href="#m85a803c9e4" x="233.004216" y="383.885" style="stroke: #000000; stroke-width: 0.8"/>
      </g>
     </g>
     <g id="text_3">
      <!-- 100 -->
      <g transform="translate(224.004216 399.135) scale(0.12 -0.12)">
       <defs>
        <path id="SimHei-31" d="M 1400 3600 
Q 1075 3275 575 2975 
L 575 3450 
Q 1200 3875 1600 4450 
L 1900 4450 
L 1900 150 
L 1400 150 
L 1400 3600 
z
" transform="scale(0.015625)"/>
       </defs>
       <use xlink:href="#SimHei-31"/>
       <use xlink:href="#SimHei-30" transform="translate(50 0)"/>
       <use xlink:href="#SimHei-30" transform="translate(100 0)"/>
      </g>
     </g>
    </g>
    <g id="xtick_4">
     <g id="line2d_7">
      <path d="M 307.120188 383.885 
L 307.120188 24.325 
" clip-path="url(#p008921f8c9)" style="fill: none; stroke: #b0b0b0; stroke-opacity: 0.3; stroke-width: 0.8; stroke-linecap: square"/>
     </g>
     <g id="line2d_8">
      <g>
       <use xlink:href="#m85a803c9e4" x="307.120188" y="383.885" style="stroke: #000000; stroke-width: 0.8"/>
      </g>
     </g>
     <g id="text_4">
      <!-- 150 -->
      <g transform="translate(298.120188 399.135) scale(0.12 -0.12)">
       <use xlink:href="#SimHei-31"/>
       <use xlink:href="#SimHei-35" transform="translate(50 0)"/>
       <use xlink:href="#SimHei-30" transform="translate(100 0)"/>
      </g>
     </g>
    </g>
    <g id="xtick_5">
     <g id="line2d_9">
      <path d="M 381.23616 383.885 
L 381.23616 24.325 
" clip-path="url(#p008921f8c9)" style="fill: none; stroke: #b0b0b0; stroke-opacity: 0.3; stroke-width: 0.8; stroke-linecap: square"/>
     </g>
     <g id="line2d_10">
      <g>
       <use xlink:href="#m85a803c9e4" x="381.23616" y="383.885" style="stroke: #000000; stroke-width: 0.8"/>
      </g>
     </g>
     <g id="text_5">
      <!-- 200 -->
      <g transform="translate(372.23616 399.135) scale(0.12 -0.12)">
       <defs>
        <path id="SimHei-32" d="M 300 250 
Q 325 625 650 925 
Q 975 1225 1475 1862 
Q 1975 2500 2125 2850 
Q 2275 3200 2237 3450 
Q 2200 3700 2000 3862 
Q 1800 4025 1537 4000 
Q 1275 3975 1037 3800 
Q 800 3625 675 3275 
L 200 3350 
Q 400 3925 712 4187 
Q 1025 4450 1450 4475 
Q 1700 4500 1900 4462 
Q 2100 4425 2312 4287 
Q 2525 4150 2662 3875 
Q 2800 3600 2762 3212 
Q 2725 2825 2375 2287 
Q 2025 1750 1025 600 
L 2825 600 
L 2825 150 
L 300 150 
L 300 250 
z
" transform="scale(0.015625)"/>
       </defs>
       <use xlink:href="#SimHei-32"/>
       <use xlink:href="#SimHei-30" transform="translate(50 0)"/>
       <use xlink:href="#SimHei-30" transform="translate(100 0)"/>
      </g>
     </g>
    </g>
    <g id="xtick_6">
     <g id="line2d_11">
      <path d="M 455.352131 383.885 
L 455.352131 24.325 
" clip-path="url(#p008921f8c9)" style="fill: none; stroke: #b0b0b0; stroke-opacity: 0.3; stroke-width: 0.8; stroke-linecap: square"/>
     </g>
     <g id="line2d_12">
      <g>
       <use xlink:href="#m85a803c9e4" x="455.352131" y="383.885" style="stroke: #000000; stroke-width: 0.8"/>
      </g>
     </g>
     <g id="text_6">
      <!-- 250 -->
      <g transform="translate(446.352131 399.135) scale(0.12 -0.12)">
       <use xlink:href="#SimHei-32"/>
       <use xlink:href="#SimHei-35" transform="translate(50 0)"/>
       <use xlink:href="#SimHei-30" transform="translate(100 0)"/>
      </g>
     </g>
    </g>
    <g id="xtick_7">
     <g id="line2d_13">
      <path d="M 529.468103 383.885 
L 529.468103 24.325 
" clip-path="url(#p008921f8c9)" style="fill: none; stroke: #b0b0b0; stroke-opacity: 0.3; stroke-width: 0.8; stroke-linecap: square"/>
     </g>
     <g id="line2d_14">
      <g>
       <use xlink:href="#m85a803c9e4" x="529.468103" y="383.885" style="stroke: #000000; stroke-width: 0.8"/>
      </g>
     </g>
     <g id="text_7">
      <!-- 300 -->
      <g transform="translate(520.468103 399.135) scale(0.12 -0.12)">
       <defs>
        <path id="SimHei-33" d="M 250 1225 
L 700 1300 
Q 800 975 1025 762 
Q 1250 550 1587 562 
Q 1925 575 2125 837 
Q 2325 1100 2300 1437 
Q 2275 1775 2037 1962 
Q 1800 2150 1275 2225 
L 1275 2550 
Q 1800 2600 2037 2825 
Q 2275 3050 2250 3412 
Q 2225 3775 1925 3937 
Q 1625 4100 1287 3975 
Q 950 3850 750 3275 
L 300 3350 
Q 450 3800 712 4100 
Q 975 4400 1425 4450 
Q 1875 4500 2212 4337 
Q 2550 4175 2687 3837 
Q 2825 3500 2725 3100 
Q 2625 2700 2150 2400 
Q 2500 2250 2687 1950 
Q 2875 1650 2812 1162 
Q 2750 675 2375 375 
Q 2000 75 1525 87 
Q 1050 100 700 387 
Q 350 675 250 1225 
z
" transform="scale(0.015625)"/>
       </defs>
       <use xlink:href="#SimHei-33"/>
       <use xlink:href="#SimHei-30" transform="translate(50 0)"/>
       <use xlink:href="#SimHei-30" transform="translate(100 0)"/>
      </g>
     </g>
    </g>
    <g id="xtick_8">
     <g id="line2d_15">
      <path d="M 603.584075 383.885 
L 603.584075 24.325 
" clip-path="url(#p008921f8c9)" style="fill: none; stroke: #b0b0b0; stroke-opacity: 0.3; stroke-width: 0.8; stroke-linecap: square"/>
     </g>
     <g id="line2d_16">
      <g>
       <use xlink:href="#m85a803c9e4" x="603.584075" y="383.885" style="stroke: #000000; stroke-width: 0.8"/>
      </g>
     </g>
     <g id="text_8">
      <!-- 350 -->
      <g transform="translate(594.584075 399.135) scale(0.12 -0.12)">
       <use xlink:href="#SimHei-33"/>
       <use xlink:href="#SimHei-35" transform="translate(50 0)"/>
       <use xlink:href="#SimHei-30" transform="translate(100 0)"/>
      </g>
     </g>
    </g>
    <g id="xtick_9">
     <g id="line2d_17">
      <path d="M 677.700047 383.885 
L 677.700047 24.325 
" clip-path="url(#p008921f8c9)" style="fill: none; stroke: #b0b0b0; stroke-opacity: 0.3; stroke-width: 0.8; stroke-linecap: square"/>
     </g>
     <g id="line2d_18">
      <g>
       <use xlink:href="#m85a803c9e4" x="677.700047" y="383.885" style="stroke: #000000; stroke-width: 0.8"/>
      </g>
     </g>
     <g id="text_9">
      <!-- 400 -->
      <g transform="translate(668.700047 399.135) scale(0.12 -0.12)">
       <defs>
        <path id="SimHei-34" d="M 2000 1100 
L 75 1100 
L 75 1525 
L 2100 4450 
L 2475 4450 
L 2475 1525 
L 3075 1525 
L 3075 1100 
L 2475 1100 
L 2475 150 
L 2000 150 
L 2000 1100 
z
M 2000 1525 
L 2000 3500 
L 600 1525 
L 2000 1525 
z
" transform="scale(0.015625)"/>
       </defs>
       <use xlink:href="#SimHei-34"/>
       <use xlink:href="#SimHei-30" transform="translate(50 0)"/>
       <use xlink:href="#SimHei-30" transform="translate(100 0)"/>
      </g>
     </g>
    </g>
    <g id="text_10">
     <!-- Episode -->
     <g transform="translate(352.495 415.635) scale(0.16 -0.16)">
      <defs>
       <path id="SimHei-45" d="M 2900 125 
L 350 125 
L 350 4400 
L 2775 4400 
L 2775 3925 
L 925 3925 
L 925 2600 
L 2625 2600 
L 2625 2125 
L 925 2125 
L 925 600 
L 2900 600 
L 2900 125 
z
" transform="scale(0.015625)"/>
       <path id="SimHei-70" d="M 2825 1525 
Q 2825 800 2475 425 
Q 2125 50 1625 50 
Q 1350 50 1150 162 
Q 950 275 800 500 
L 800 -800 
L 300 -800 
L 300 2925 
L 800 2925 
L 800 2550 
Q 950 2775 1150 2875 
Q 1350 2975 1625 2975 
Q 2125 2975 2475 2612 
Q 2825 2250 2825 1525 
z
M 2275 1525 
Q 2275 2000 2087 2262 
Q 1900 2525 1525 2525 
Q 1225 2525 1012 2262 
Q 800 2000 800 1525 
Q 800 1050 1012 775 
Q 1225 500 1525 500 
Q 1900 500 2087 775 
Q 2275 1050 2275 1525 
z
" transform="scale(0.015625)"/>
       <path id="SimHei-69" d="M 1800 3725 
L 1300 3725 
L 1300 4375 
L 1800 4375 
L 1800 3725 
z
M 1800 125 
L 1300 125 
L 1300 2925 
L 1800 2925 
L 1800 125 
z
" transform="scale(0.015625)"/>
       <path id="SimHei-73" d="M 2750 900 
Q 2750 500 2437 287 
Q 2125 75 1650 75 
Q 1050 75 725 312 
Q 400 550 400 1000 
L 900 1000 
Q 900 700 1112 600 
Q 1325 500 1625 500 
Q 1925 500 2075 612 
Q 2225 725 2225 900 
Q 2225 1025 2100 1150 
Q 1975 1275 1475 1350 
Q 900 1425 687 1637 
Q 475 1850 475 2200 
Q 475 2500 762 2737 
Q 1050 2975 1600 2975 
Q 2100 2975 2387 2750 
Q 2675 2525 2675 2150 
L 2175 2150 
Q 2175 2375 2012 2462 
Q 1850 2550 1600 2550 
Q 1275 2550 1137 2437 
Q 1000 2325 1000 2175 
Q 1000 2000 1125 1900 
Q 1250 1800 1650 1750 
Q 2300 1650 2525 1437 
Q 2750 1225 2750 900 
z
" transform="scale(0.015625)"/>
       <path id="SimHei-6f" d="M 2925 1525 
Q 2925 875 2525 475 
Q 2125 75 1575 75 
Q 1025 75 625 475 
Q 225 875 225 1525 
Q 225 2175 625 2575 
Q 1025 2975 1575 2975 
Q 2125 2975 2525 2575 
Q 2925 2175 2925 1525 
z
M 2375 1525 
Q 2375 2025 2125 2275 
Q 1875 2525 1575 2525 
Q 1275 2525 1025 2275 
Q 775 2025 775 1525 
Q 775 1025 1025 775 
Q 1275 525 1575 525 
Q 1875 525 2125 775 
Q 2375 1025 2375 1525 
z
" transform="scale(0.015625)"/>
       <path id="SimHei-64" d="M 2750 125 
L 2250 125 
L 2250 500 
Q 2100 275 1900 175 
Q 1700 75 1425 75 
Q 925 75 575 437 
Q 225 800 225 1525 
Q 225 2250 575 2625 
Q 925 3000 1425 3000 
Q 1700 3000 1900 2887 
Q 2100 2775 2250 2550 
L 2250 4400 
L 2750 4400 
L 2750 125 
z
M 2250 1525 
Q 2250 2000 2037 2275 
Q 1825 2550 1525 2550 
Q 1150 2550 962 2275 
Q 775 2000 775 1525 
Q 775 1050 962 787 
Q 1150 525 1525 525 
Q 1825 525 2037 787 
Q 2250 1050 2250 1525 
z
" transform="scale(0.015625)"/>
       <path id="SimHei-65" d="M 2850 1075 
Q 2800 625 2450 350 
Q 2100 75 1625 75 
Q 1025 75 637 462 
Q 250 850 250 1525 
Q 250 2200 637 2587 
Q 1025 2975 1625 2975 
Q 2150 2975 2487 2637 
Q 2825 2300 2825 1525 
L 800 1525 
Q 800 975 1037 750 
Q 1275 525 1625 525 
Q 1900 525 2075 662 
Q 2250 800 2300 1075 
L 2850 1075 
z
M 2250 1925 
Q 2200 2275 2025 2412 
Q 1850 2550 1575 2550 
Q 1325 2550 1125 2412 
Q 925 2275 825 1925 
L 2250 1925 
z
" transform="scale(0.015625)"/>
      </defs>
      <use xlink:href="#SimHei-45"/>
      <use xlink:href="#SimHei-70" transform="translate(50 0)"/>
      <use xlink:href="#SimHei-69" transform="translate(100 0)"/>
      <use xlink:href="#SimHei-73" transform="translate(150 0)"/>
      <use xlink:href="#SimHei-6f" transform="translate(200 0)"/>
      <use xlink:href="#SimHei-64" transform="translate(250 0)"/>
      <use xlink:href="#SimHei-65" transform="translate(300 0)"/>
     </g>
    </g>
   </g>
   <g id="matplotlib.axis_2">
    <g id="ytick_1">
     <g id="line2d_19">
      <path d="M 55.2 341.59594 
L 705.79 341.59594 
" clip-path="url(#p008921f8c9)" style="fill: none; stroke: #b0b0b0; stroke-opacity: 0.3; stroke-width: 0.8; stroke-linecap: square"/>
     </g>
     <g id="line2d_20">
      <defs>
       <path id="mfdb6a123f6" d="M 0 0 
L -3.5 0 
" style="stroke: #000000; stroke-width: 0.8"/>
      </defs>
      <g>
       <use xlink:href="#mfdb6a123f6" x="55.2" y="341.59594" style="stroke: #000000; stroke-width: 0.8"/>
      </g>
     </g>
     <g id="text_11">
      <!-- 600 -->
      <g transform="translate(30.2 345.72094) scale(0.12 -0.12)">
       <defs>
        <path id="SimHei-36" d="M 250 1612 
Q 275 1975 387 2225 
Q 500 2475 725 2850 
L 1750 4450 
L 2325 4450 
L 1275 2800 
Q 1950 2975 2350 2750 
Q 2750 2525 2887 2237 
Q 3025 1950 3037 1612 
Q 3050 1275 2937 950 
Q 2825 625 2537 362 
Q 2250 100 1737 75 
Q 1225 50 862 262 
Q 500 475 362 862 
Q 225 1250 250 1612 
z
M 1025 787 
Q 1250 550 1625 525 
Q 2000 500 2250 775 
Q 2500 1050 2500 1575 
Q 2500 2100 2187 2300 
Q 1875 2500 1487 2450 
Q 1100 2400 925 2075 
Q 750 1750 775 1387 
Q 800 1025 1025 787 
z
" transform="scale(0.015625)"/>
       </defs>
       <use xlink:href="#SimHei-36"/>
       <use xlink:href="#SimHei-30" transform="translate(50 0)"/>
       <use xlink:href="#SimHei-30" transform="translate(100 0)"/>
      </g>
     </g>
    </g>
    <g id="ytick_2">
     <g id="line2d_21">
      <path d="M 55.2 279.713409 
L 705.79 279.713409 
" clip-path="url(#p008921f8c9)" style="fill: none; stroke: #b0b0b0; stroke-opacity: 0.3; stroke-width: 0.8; stroke-linecap: square"/>
     </g>
     <g id="line2d_22">
      <g>
       <use xlink:href="#mfdb6a123f6" x="55.2" y="279.713409" style="stroke: #000000; stroke-width: 0.8"/>
      </g>
     </g>
     <g id="text_12">
      <!-- 800 -->
      <g transform="translate(30.2 283.838409) scale(0.12 -0.12)">
       <defs>
        <path id="SimHei-38" d="M 175 1375 
Q 175 1675 325 1962 
Q 475 2250 825 2425 
Q 525 2600 425 2812 
Q 325 3025 312 3300 
Q 300 3575 387 3775 
Q 475 3975 650 4150 
Q 825 4325 1037 4387 
Q 1250 4450 1500 4450 
Q 1750 4450 1950 4400 
Q 2150 4350 2375 4187 
Q 2600 4025 2700 3725 
Q 2800 3425 2687 3025 
Q 2575 2625 2100 2400 
Q 2525 2275 2700 2012 
Q 2875 1750 2875 1375 
Q 2875 1000 2762 775 
Q 2650 550 2512 400 
Q 2375 250 2137 162 
Q 1900 75 1537 75 
Q 1175 75 912 162 
Q 650 250 475 425 
Q 300 600 237 837 
Q 175 1075 175 1375 
z
M 687 1400 
Q 675 1100 787 875 
Q 900 650 1200 587 
Q 1500 525 1825 600 
Q 2150 675 2275 950 
Q 2400 1225 2362 1500 
Q 2325 1775 2050 1962 
Q 1775 2150 1450 2125 
Q 1125 2100 912 1900 
Q 700 1700 687 1400 
z
M 775 3350 
Q 775 3100 950 2875 
Q 1125 2650 1500 2650 
Q 1875 2650 2062 2875 
Q 2250 3100 2237 3412 
Q 2225 3725 2012 3875 
Q 1800 4025 1437 4000 
Q 1075 3975 925 3787 
Q 775 3600 775 3350 
z
" transform="scale(0.015625)"/>
       </defs>
       <use xlink:href="#SimHei-38"/>
       <use xlink:href="#SimHei-30" transform="translate(50 0)"/>
       <use xlink:href="#SimHei-30" transform="translate(100 0)"/>
      </g>
     </g>
    </g>
    <g id="ytick_3">
     <g id="line2d_23">
      <path d="M 55.2 217.830879 
L 705.79 217.830879 
" clip-path="url(#p008921f8c9)" style="fill: none; stroke: #b0b0b0; stroke-opacity: 0.3; stroke-width: 0.8; stroke-linecap: square"/>
     </g>
     <g id="line2d_24">
      <g>
       <use xlink:href="#mfdb6a123f6" x="55.2" y="217.830879" style="stroke: #000000; stroke-width: 0.8"/>
      </g>
     </g>
     <g id="text_13">
      <!-- 1000 -->
      <g transform="translate(24.2 221.955879) scale(0.12 -0.12)">
       <use xlink:href="#SimHei-31"/>
       <use xlink:href="#SimHei-30" transform="translate(50 0)"/>
       <use xlink:href="#SimHei-30" transform="translate(100 0)"/>
       <use xlink:href="#SimHei-30" transform="translate(150 0)"/>
      </g>
     </g>
    </g>
    <g id="ytick_4">
     <g id="line2d_25">
      <path d="M 55.2 155.948348 
L 705.79 155.948348 
" clip-path="url(#p008921f8c9)" style="fill: none; stroke: #b0b0b0; stroke-opacity: 0.3; stroke-width: 0.8; stroke-linecap: square"/>
     </g>
     <g id="line2d_26">
      <g>
       <use xlink:href="#mfdb6a123f6" x="55.2" y="155.948348" style="stroke: #000000; stroke-width: 0.8"/>
      </g>
     </g>
     <g id="text_14">
      <!-- 1200 -->
      <g transform="translate(24.2 160.073348) scale(0.12 -0.12)">
       <use xlink:href="#SimHei-31"/>
       <use xlink:href="#SimHei-32" transform="translate(50 0)"/>
       <use xlink:href="#SimHei-30" transform="translate(100 0)"/>
       <use xlink:href="#SimHei-30" transform="translate(150 0)"/>
      </g>
     </g>
    </g>
    <g id="ytick_5">
     <g id="line2d_27">
      <path d="M 55.2 94.065817 
L 705.79 94.065817 
" clip-path="url(#p008921f8c9)" style="fill: none; stroke: #b0b0b0; stroke-opacity: 0.3; stroke-width: 0.8; stroke-linecap: square"/>
     </g>
     <g id="line2d_28">
      <g>
       <use xlink:href="#mfdb6a123f6" x="55.2" y="94.065817" style="stroke: #000000; stroke-width: 0.8"/>
      </g>
     </g>
     <g id="text_15">
      <!-- 1400 -->
      <g transform="translate(24.2 98.190817) scale(0.12 -0.12)">
       <use xlink:href="#SimHei-31"/>
       <use xlink:href="#SimHei-34" transform="translate(50 0)"/>
       <use xlink:href="#SimHei-30" transform="translate(100 0)"/>
       <use xlink:href="#SimHei-30" transform="translate(150 0)"/>
      </g>
     </g>
    </g>
    <g id="ytick_6">
     <g id="line2d_29">
      <path d="M 55.2 32.183287 
L 705.79 32.183287 
" clip-path="url(#p008921f8c9)" style="fill: none; stroke: #b0b0b0; stroke-opacity: 0.3; stroke-width: 0.8; stroke-linecap: square"/>
     </g>
     <g id="line2d_30">
      <g>
       <use xlink:href="#mfdb6a123f6" x="55.2" y="32.183287" style="stroke: #000000; stroke-width: 0.8"/>
      </g>
     </g>
     <g id="text_16">
      <!-- 1600 -->
      <g transform="translate(24.2 36.308287) scale(0.12 -0.12)">
       <use xlink:href="#SimHei-31"/>
       <use xlink:href="#SimHei-36" transform="translate(50 0)"/>
       <use xlink:href="#SimHei-30" transform="translate(100 0)"/>
       <use xlink:href="#SimHei-30" transform="translate(150 0)"/>
      </g>
     </g>
    </g>
    <g id="text_17">
     <!-- Total Reward -->
     <g transform="translate(18.2 252.105) rotate(-90) scale(0.16 -0.16)">
      <defs>
       <path id="SimHei-54" d="M 2850 3925 
L 1850 3925 
L 1850 125 
L 1275 125 
L 1275 3925 
L 275 3925 
L 275 4400 
L 2850 4400 
L 2850 3925 
z
" transform="scale(0.015625)"/>
       <path id="SimHei-74" d="M 2750 200 
Q 2625 150 2462 112 
Q 2300 75 2025 75 
Q 1575 75 1300 325 
Q 1025 575 1025 1025 
L 1025 2525 
L 175 2525 
L 175 2925 
L 1025 2925 
L 1025 3900 
L 1525 3900 
L 1525 2925 
L 2550 2925 
L 2550 2525 
L 1525 2525 
L 1525 1000 
Q 1525 800 1625 662 
Q 1725 525 2000 525 
Q 2275 525 2450 575 
Q 2625 625 2750 700 
L 2750 200 
z
" transform="scale(0.015625)"/>
       <path id="SimHei-61" d="M 2875 125 
L 2275 125 
Q 2225 175 2200 262 
Q 2175 350 2175 475 
Q 2000 275 1750 175 
Q 1500 75 1225 75 
Q 825 75 550 275 
Q 275 475 275 850 
Q 275 1225 525 1450 
Q 775 1675 1300 1750 
Q 1650 1800 1912 1875 
Q 2175 1950 2175 2075 
Q 2175 2225 2062 2375 
Q 1950 2525 1575 2525 
Q 1275 2525 1137 2412 
Q 1000 2300 950 2100 
L 400 2100 
Q 450 2500 762 2737 
Q 1075 2975 1575 2975 
Q 2125 2975 2400 2725 
Q 2675 2475 2675 2025 
L 2675 650 
Q 2675 500 2725 375 
Q 2775 250 2875 125 
z
M 2175 1050 
L 2175 1550 
Q 2025 1500 1887 1462 
Q 1750 1425 1425 1375 
Q 1050 1325 937 1200 
Q 825 1075 825 900 
Q 825 750 937 637 
Q 1050 525 1275 525 
Q 1500 525 1762 650 
Q 2025 775 2175 1050 
z
" transform="scale(0.015625)"/>
       <path id="SimHei-6c" d="M 1825 125 
L 1325 125 
L 1325 4400 
L 1825 4400 
L 1825 125 
z
" transform="scale(0.015625)"/>
       <path id="SimHei-20" transform="scale(0.015625)"/>
       <path id="SimHei-52" d="M 3000 125 
L 2400 125 
L 1500 1975 
L 850 1975 
L 850 125 
L 275 125 
L 275 4400 
L 1525 4400 
Q 2125 4400 2500 4112 
Q 2875 3825 2875 3175 
Q 2875 2675 2625 2400 
Q 2375 2125 2050 2050 
L 3000 125 
z
M 2300 3175 
Q 2300 3525 2087 3725 
Q 1875 3925 1400 3925 
L 850 3925 
L 850 2450 
L 1550 2450 
Q 1850 2450 2075 2612 
Q 2300 2775 2300 3175 
z
" transform="scale(0.015625)"/>
       <path id="SimHei-77" d="M 3075 2925 
L 2450 75 
L 1975 75 
L 1575 2250 
L 1525 2250 
L 1125 75 
L 650 75 
L 25 2925 
L 550 2925 
L 875 1050 
L 925 1050 
L 1275 2925 
L 1825 2925 
L 2175 1050 
L 2225 1050 
L 2550 2925 
L 3075 2925 
z
" transform="scale(0.015625)"/>
       <path id="SimHei-72" d="M 2500 2425 
Q 2025 2500 1700 2287 
Q 1375 2075 1150 1550 
L 1150 125 
L 650 125 
L 650 2925 
L 1150 2925 
L 1150 2200 
Q 1375 2600 1712 2787 
Q 2050 2975 2500 2975 
L 2500 2425 
z
" transform="scale(0.015625)"/>
      </defs>
      <use xlink:href="#SimHei-54"/>
      <use xlink:href="#SimHei-6f" transform="translate(50 0)"/>
      <use xlink:href="#SimHei-74" transform="translate(100 0)"/>
      <use xlink:href="#SimHei-61" transform="translate(150 0)"/>
      <use xlink:href="#SimHei-6c" transform="translate(200 0)"/>
      <use xlink:href="#SimHei-20" transform="translate(250 0)"/>
      <use xlink:href="#SimHei-52" transform="translate(300 0)"/>
      <use xlink:href="#SimHei-65" transform="translate(350 0)"/>
      <use xlink:href="#SimHei-77" transform="translate(400 0)"/>
      <use xlink:href="#SimHei-61" transform="translate(450 0)"/>
      <use xlink:href="#SimHei-72" transform="translate(500 0)"/>
      <use xlink:href="#SimHei-64" transform="translate(550 0)"/>
     </g>
    </g>
   </g>
   <g id="line2d_31">
    <path d="M 84.772273 303.749073 
L 86.254592 305.837628 
L 87.736912 314.928458 
L 89.219231 320.372975 
L 92.18387 308.165723 
L 93.666189 317.155147 
L 95.148509 313.655479 
L 96.630828 316.046775 
L 98.113148 323.193806 
L 99.595467 321.244656 
L 101.077787 337.821122 
L 102.560106 332.312373 
L 104.042425 338.298151 
L 105.524745 336.656356 
L 107.007064 345.650969 
L 108.489384 348.812622 
L 111.454023 345.307186 
L 112.936342 341.984501 
L 114.418661 335.565461 
L 115.900981 331.802344 
L 117.3833 341.785251 
L 118.86562 344.670277 
L 120.347939 338.195739 
L 121.830259 339.953736 
L 123.312578 343.519223 
L 124.794897 351.301594 
L 126.277217 361.278702 
L 127.759536 367.541364 
L 129.241856 354.072091 
L 130.724175 356.708031 
L 132.206495 353.030457 
L 133.688814 347.716135 
L 135.171134 344.770554 
L 138.135772 330.213025 
L 139.618092 320.279676 
L 141.100411 291.653001 
L 142.582731 266.482268 
L 144.06505 245.53458 
L 145.54737 226.255617 
L 148.512008 194.372042 
L 149.994328 180.206245 
L 151.476647 169.812632 
L 152.958967 156.194197 
L 154.441286 146.353144 
L 155.923606 135.047135 
L 157.405925 128.204263 
L 158.888244 119.85133 
L 163.335203 100.378031 
L 166.299842 93.347132 
L 167.782161 88.44188 
L 169.264481 82.351738 
L 172.229119 74.775644 
L 173.711439 71.328632 
L 175.193758 67.023992 
L 176.676078 64.589176 
L 178.158397 62.668892 
L 179.640717 61.435502 
L 181.123036 59.217128 
L 182.605355 56.774992 
L 184.087675 59.118829 
L 185.569994 59.307054 
L 187.052314 59.819862 
L 188.534633 58.951293 
L 191.499272 55.922486 
L 192.981591 56.177017 
L 194.463911 54.783826 
L 197.42855 52.882035 
L 198.910869 54.861389 
L 200.393189 54.076303 
L 201.875508 54.105531 
L 203.357828 54.265458 
L 204.840147 51.886912 
L 206.322466 50.912652 
L 207.804786 51.676669 
L 209.287105 51.569361 
L 210.769425 51.044647 
L 212.251744 49.954802 
L 213.734064 49.970563 
L 215.216383 48.861602 
L 216.698702 48.340491 
L 218.181022 50.575362 
L 219.663341 47.971344 
L 221.145661 49.496224 
L 222.62798 50.046113 
L 224.1103 52.653343 
L 225.592619 51.788513 
L 227.074938 51.332469 
L 228.557258 48.629338 
L 230.039577 48.176006 
L 231.521897 48.404218 
L 233.004216 47.70231 
L 234.486536 48.397138 
L 235.968855 52.65227 
L 237.451175 50.443603 
L 238.933494 49.611942 
L 240.415813 50.366448 
L 241.898133 48.375281 
L 243.380452 50.239811 
L 244.862772 49.322115 
L 246.345091 49.97235 
L 247.827411 52.332846 
L 250.792049 50.817944 
L 253.756688 50.847683 
L 255.239008 51.866075 
L 256.721327 47.622169 
L 258.203647 45.956478 
L 259.685966 45.193259 
L 261.168285 45.091602 
L 262.650605 45.592055 
L 264.132924 45.678144 
L 265.615244 47.837166 
L 267.097563 46.346436 
L 268.579883 47.163025 
L 270.062202 49.515983 
L 271.544522 48.669087 
L 273.026841 47.214556 
L 274.50916 47.066726 
L 275.99148 47.429497 
L 277.473799 48.155664 
L 278.956119 49.142653 
L 280.438438 48.416565 
L 281.920758 46.985824 
L 283.403077 48.407216 
L 284.885396 50.364699 
L 286.367716 49.090041 
L 287.850035 48.727913 
L 289.332355 46.463707 
L 290.814674 46.337276 
L 292.296994 45.30464 
L 293.779313 47.118758 
L 295.261632 50.145183 
L 296.743952 53.474558 
L 298.226271 50.31765 
L 299.708591 50.052269 
L 301.19091 50.998919 
L 302.67323 51.542551 
L 304.155549 50.276796 
L 305.637869 51.656503 
L 307.120188 51.818127 
L 308.602507 55.380024 
L 310.084827 54.158234 
L 311.567146 54.691226 
L 313.049466 54.698545 
L 314.531785 55.091266 
L 316.014105 55.741824 
L 317.496424 55.061553 
L 318.978743 55.043458 
L 320.461063 56.329645 
L 321.943382 55.604296 
L 323.425702 54.709597 
L 324.908021 54.940797 
L 326.390341 52.648764 
L 327.87266 52.11478 
L 329.354979 52.23388 
L 330.837299 52.731721 
L 332.319618 54.561978 
L 333.801938 55.643162 
L 335.284257 53.036766 
L 336.766577 56.303341 
L 338.248896 54.705153 
L 339.731216 57.509963 
L 341.213535 59.011584 
L 342.695854 57.067965 
L 344.178174 55.994349 
L 345.660493 54.323857 
L 347.142813 53.94713 
L 348.625132 51.308544 
L 350.107452 53.349637 
L 351.589771 54.270374 
L 353.07209 53.438359 
L 354.55441 54.514013 
L 356.036729 51.933586 
L 357.519049 54.706097 
L 359.001368 55.180177 
L 360.483688 54.822372 
L 361.966007 54.962619 
L 363.448326 55.452534 
L 364.930646 57.999196 
L 366.412965 56.566715 
L 367.895285 52.823495 
L 369.377604 50.60383 
L 370.859924 46.902952 
L 372.342243 45.775961 
L 373.824563 47.776111 
L 376.789201 43.313467 
L 378.271521 43.502078 
L 379.75384 49.946383 
L 381.23616 50.120722 
L 382.718479 48.550174 
L 384.200799 47.987445 
L 385.683118 50.491876 
L 387.165437 53.927496 
L 388.647757 55.958901 
L 391.612396 54.519092 
L 393.094715 56.015273 
L 394.577035 56.812694 
L 396.059354 55.35312 
L 397.541674 53.495521 
L 399.023993 53.820272 
L 400.506312 53.40973 
L 401.988632 50.867619 
L 403.470951 49.821936 
L 404.953271 52.489611 
L 406.43559 53.002709 
L 407.91791 52.409117 
L 409.400229 53.147716 
L 410.882548 52.778356 
L 413.847187 54.422074 
L 415.329507 54.293627 
L 416.811826 53.329636 
L 418.294146 53.291545 
L 419.776465 52.104075 
L 421.258784 54.607793 
L 422.741104 52.596877 
L 424.223423 51.502473 
L 425.705743 48.581448 
L 427.188062 48.647644 
L 428.670382 47.435225 
L 430.152701 50.111458 
L 433.11734 53.098701 
L 434.599659 52.846686 
L 436.081979 52.996225 
L 437.564298 52.991221 
L 439.046618 52.031953 
L 440.528937 51.918572 
L 442.011257 50.623472 
L 443.493576 49.630137 
L 444.975895 50.113764 
L 446.458215 49.041354 
L 447.940534 47.442538 
L 449.422854 47.820489 
L 450.905173 50.544442 
L 452.387493 48.766273 
L 453.869812 48.523337 
L 455.352131 49.546115 
L 456.834451 49.472014 
L 458.31677 48.646029 
L 459.79909 48.917374 
L 461.281409 51.648347 
L 462.763729 50.788714 
L 464.246048 51.788381 
L 465.728368 50.7358 
L 467.210687 51.847772 
L 468.693006 51.913879 
L 470.175326 53.097692 
L 471.657645 53.064902 
L 473.139965 52.155688 
L 474.622284 54.317723 
L 476.104604 53.432858 
L 477.586923 52.173057 
L 479.069242 51.805382 
L 480.551562 50.765663 
L 482.033881 48.740462 
L 483.516201 50.970292 
L 484.99852 49.451126 
L 486.48084 48.91651 
L 487.963159 47.287914 
L 489.445478 46.297274 
L 490.927798 47.132269 
L 493.892437 45.865239 
L 495.374756 46.454237 
L 496.857076 46.633744 
L 498.339395 46.196764 
L 499.821715 47.040177 
L 501.304034 49.015787 
L 502.786353 50.363768 
L 504.268673 51.18465 
L 505.750992 49.084135 
L 507.233312 49.17959 
L 508.715631 49.898485 
L 510.197951 50.819921 
L 511.68027 48.899169 
L 513.162589 48.61283 
L 514.644909 48.503085 
L 516.127228 52.510539 
L 517.609548 51.24525 
L 519.091867 51.594145 
L 520.574187 49.514591 
L 522.056506 49.985926 
L 523.538825 49.350172 
L 525.021145 49.413905 
L 526.503464 48.610008 
L 527.985784 48.395833 
L 529.468103 45.503557 
L 530.950423 46.683591 
L 532.432742 46.627217 
L 533.915062 47.711671 
L 535.397381 48.495219 
L 536.8797 45.604228 
L 539.844339 46.37884 
L 541.326659 46.453615 
L 542.808978 45.041405 
L 544.291298 44.848456 
L 545.773617 43.74556 
L 547.255936 42.802341 
L 550.220575 40.668636 
L 551.702895 41.796306 
L 553.185214 41.606219 
L 554.667534 43.638519 
L 556.149853 44.421103 
L 559.114492 48.589867 
L 560.596811 48.794382 
L 563.56145 46.952047 
L 565.04377 46.930534 
L 566.526089 48.752496 
L 568.008409 47.132277 
L 569.490728 48.986192 
L 570.973047 46.968727 
L 572.455367 50.205454 
L 573.937686 50.804824 
L 575.420006 50.354092 
L 576.902325 52.752154 
L 578.384645 51.291943 
L 579.866964 52.507315 
L 581.349283 50.182388 
L 582.831603 54.06542 
L 584.313922 53.211954 
L 585.796242 53.679136 
L 587.278561 53.443191 
L 588.760881 52.673656 
L 590.2432 51.608305 
L 591.725519 51.255022 
L 593.207839 51.161258 
L 594.690158 52.592706 
L 596.172478 50.578724 
L 597.654797 50.102834 
L 599.137117 48.092228 
L 600.619436 50.968271 
L 602.101756 51.112485 
L 603.584075 48.145145 
L 605.066394 47.846869 
L 606.548714 47.098997 
L 608.031033 48.906755 
L 609.513353 50.111914 
L 610.995672 49.497491 
L 612.477992 49.223464 
L 613.960311 47.326321 
L 615.44263 48.331007 
L 616.92495 45.072597 
L 618.407269 46.589011 
L 619.889589 47.546771 
L 621.371908 46.704565 
L 622.854228 44.77857 
L 624.336547 45.90282 
L 625.818866 47.503711 
L 627.301186 50.162566 
L 628.783505 49.264344 
L 630.265825 46.303066 
L 631.748144 46.02569 
L 633.230464 46.817469 
L 636.195103 50.290477 
L 637.677422 48.642842 
L 639.159741 47.316921 
L 640.642061 49.546858 
L 642.12438 49.514801 
L 643.6067 49.003608 
L 646.571339 47.302899 
L 648.053658 48.665712 
L 649.535977 49.056032 
L 651.018297 47.487557 
L 653.982936 50.995989 
L 655.465255 51.651908 
L 656.947575 52.020005 
L 658.429894 51.895966 
L 659.912213 53.495385 
L 661.394533 55.510569 
L 662.876852 54.397334 
L 664.359172 50.654985 
L 665.841491 51.680714 
L 667.323811 49.222547 
L 668.80613 49.982698 
L 670.28845 47.206486 
L 671.770769 49.4045 
L 673.253088 49.018794 
L 674.735408 47.349084 
L 676.217727 47.332656 
L 676.217727 47.332656 
" clip-path="url(#p008921f8c9)" style="fill: none; stroke: #1f77b4; stroke-width: 1.5; stroke-linecap: square"/>
   </g>
   <g id="line2d_32">
    <path d="M 84.772273 226.479513 
L 86.254592 223.127178 
L 87.736912 247.106534 
L 89.219231 255.567724 
L 92.18387 263.262464 
L 93.666189 270.935807 
L 95.148509 271.132988 
L 96.630828 280.982174 
L 98.113148 289.108484 
L 99.595467 292.47789 
L 101.077787 296.277061 
L 104.042425 307.823128 
L 105.524745 303.715264 
L 107.007064 316.750112 
L 108.489384 326.731434 
L 109.971703 323.826286 
L 111.454023 329.785225 
L 112.936342 331.438256 
L 114.418661 337.555704 
L 115.900981 348.914879 
L 117.3833 347.670892 
L 118.86562 348.446618 
L 120.347939 346.701579 
L 121.830259 359.864112 
L 123.312578 350.424927 
L 124.794897 358.004456 
L 126.277217 357.66254 
L 127.759536 355.298236 
L 129.241856 351.338008 
L 130.724175 352.600851 
L 132.206495 344.18661 
L 133.688814 343.485496 
L 135.171134 340.209203 
L 136.653453 338.852863 
L 138.135772 338.083368 
L 139.618092 344.679233 
L 141.100411 347.398646 
L 142.582731 350.931696 
L 144.06505 331.141162 
L 147.029689 279.768287 
L 148.512008 258.782865 
L 152.958967 202.085285 
L 155.923606 173.797498 
L 157.405925 162.223559 
L 158.888244 152.032724 
L 160.370564 140.840838 
L 161.852883 131.101021 
L 164.817522 119.893654 
L 166.299842 111.132201 
L 167.782161 106.356516 
L 169.264481 102.031818 
L 170.7468 95.061052 
L 172.229119 91.419952 
L 173.711439 88.46667 
L 175.193758 84.591922 
L 176.676078 82.98005 
L 178.158397 78.923425 
L 179.640717 79.161422 
L 181.123036 75.853588 
L 182.605355 74.901579 
L 184.087675 73.770636 
L 185.569994 71.633367 
L 187.052314 69.98411 
L 188.534633 67.764775 
L 190.016953 70.874121 
L 192.981591 63.299622 
L 194.463911 64.470418 
L 197.42855 62.537495 
L 198.910869 61.036942 
L 200.393189 58.902186 
L 201.875508 58.487001 
L 203.357828 58.382638 
L 204.840147 58.095875 
L 206.322466 54.81641 
L 207.804786 55.823561 
L 210.769425 57.120987 
L 212.251744 57.420206 
L 213.734064 55.082496 
L 215.216383 55.640651 
L 216.698702 56.051928 
L 218.181022 55.761448 
L 219.663341 55.621384 
L 221.145661 55.338635 
L 224.1103 56.007968 
L 225.592619 54.982287 
L 227.074938 55.197127 
L 228.557258 52.898492 
L 230.039577 53.707975 
L 231.521897 53.776565 
L 233.004216 53.570725 
L 234.486536 52.667019 
L 235.968855 51.308964 
L 237.451175 52.821035 
L 238.933494 50.862474 
L 240.415813 52.671084 
L 241.898133 53.842887 
L 243.380452 54.230023 
L 244.862772 55.179514 
L 246.345091 58.334991 
L 247.827411 58.410584 
L 249.30973 60.181815 
L 250.792049 58.299391 
L 252.274369 57.27773 
L 253.756688 55.893224 
L 255.239008 55.866404 
L 256.721327 54.563678 
L 258.203647 52.217218 
L 259.685966 52.12298 
L 261.168285 54.068766 
L 262.650605 57.309455 
L 264.132924 55.961563 
L 265.615244 54.847702 
L 267.097563 55.78521 
L 268.579883 55.111979 
L 270.062202 52.806673 
L 271.544522 51.345471 
L 273.026841 53.451959 
L 274.50916 53.851819 
L 275.99148 54.600152 
L 277.473799 53.922632 
L 278.956119 54.491826 
L 280.438438 53.651902 
L 281.920758 54.350143 
L 283.403077 53.791984 
L 284.885396 53.478185 
L 286.367716 50.88476 
L 287.850035 49.660564 
L 289.332355 50.346384 
L 290.814674 48.778985 
L 292.296994 50.269554 
L 293.779313 49.646821 
L 295.261632 52.428571 
L 296.743952 52.36003 
L 298.226271 51.807715 
L 299.708591 50.068789 
L 301.19091 49.68875 
L 302.67323 49.675934 
L 304.155549 51.207767 
L 305.637869 49.688263 
L 307.120188 48.582658 
L 310.084827 50.576851 
L 311.567146 50.143066 
L 313.049466 48.303412 
L 314.531785 48.165297 
L 316.014105 47.049252 
L 317.496424 46.650819 
L 318.978743 49.656758 
L 320.461063 49.673202 
L 321.943382 47.391737 
L 323.425702 47.001664 
L 324.908021 47.108284 
L 326.390341 48.026648 
L 327.87266 50.190825 
L 329.354979 50.708248 
L 330.837299 51.613591 
L 332.319618 51.937222 
L 333.801938 53.88931 
L 335.284257 54.485692 
L 336.766577 55.550702 
L 338.248896 55.907006 
L 339.731216 53.948773 
L 341.213535 52.361943 
L 342.695854 52.396858 
L 344.178174 53.358352 
L 345.660493 53.502444 
L 347.142813 54.642749 
L 348.625132 55.16483 
L 350.107452 57.124391 
L 351.589771 56.916378 
L 353.07209 53.396386 
L 354.55441 54.784356 
L 356.036729 53.874516 
L 357.519049 51.892375 
L 359.001368 51.137362 
L 361.966007 51.943572 
L 363.448326 53.982654 
L 364.930646 51.333789 
L 366.412965 48.967076 
L 367.895285 46.361287 
L 369.377604 48.176064 
L 370.859924 49.203819 
L 372.342243 47.482671 
L 373.824563 48.349936 
L 375.306882 47.230132 
L 376.789201 45.09553 
L 378.271521 44.400979 
L 379.75384 44.467689 
L 381.23616 47.030257 
L 382.718479 47.814638 
L 384.200799 47.743417 
L 385.683118 49.999222 
L 387.165437 50.068911 
L 388.647757 52.899408 
L 390.130076 53.763596 
L 391.612396 51.455777 
L 393.094715 49.410481 
L 394.577035 50.094548 
L 396.059354 49.962354 
L 397.541674 48.622694 
L 399.023993 46.943346 
L 400.506312 48.438433 
L 401.988632 48.586564 
L 403.470951 47.713721 
L 404.953271 48.579537 
L 406.43559 47.829683 
L 407.91791 46.079338 
L 409.400229 46.305617 
L 410.882548 46.780818 
L 412.364868 46.471991 
L 415.329507 48.747457 
L 416.811826 48.403841 
L 419.776465 51.084008 
L 421.258784 50.216825 
L 422.741104 50.24479 
L 424.223423 49.596953 
L 425.705743 50.593234 
L 427.188062 54.942214 
L 428.670382 54.813511 
L 431.635021 55.739747 
L 433.11734 54.219896 
L 434.599659 55.070878 
L 436.081979 53.274285 
L 437.564298 52.633914 
L 439.046618 51.054746 
L 440.528937 48.733448 
L 442.011257 48.297951 
L 443.493576 47.187115 
L 444.975895 45.229099 
L 446.458215 47.970576 
L 449.422854 47.719562 
L 450.905173 49.352366 
L 452.387493 49.578273 
L 453.869812 46.542153 
L 455.352131 46.635183 
L 456.834451 49.521068 
L 458.31677 50.422888 
L 459.79909 50.259561 
L 461.281409 49.927009 
L 462.763729 49.313871 
L 464.246048 48.363852 
L 465.728368 49.469706 
L 467.210687 49.317437 
L 468.693006 50.808705 
L 470.175326 51.043361 
L 471.657645 52.017209 
L 473.139965 51.907101 
L 474.622284 51.428318 
L 476.104604 52.179317 
L 477.586923 49.65341 
L 479.069242 50.419385 
L 480.551562 48.636138 
L 482.033881 50.271803 
L 483.516201 49.956275 
L 484.99852 50.577087 
L 486.48084 49.720758 
L 487.963159 51.076431 
L 489.445478 47.298055 
L 490.927798 46.931116 
L 492.410117 49.488426 
L 493.892437 48.340626 
L 495.374756 47.653244 
L 496.857076 47.81081 
L 498.339395 49.014546 
L 499.821715 49.833396 
L 501.304034 47.533316 
L 502.786353 44.788515 
L 504.268673 48.562392 
L 505.750992 47.901727 
L 507.233312 46.117337 
L 508.715631 48.059151 
L 510.197951 47.537407 
L 511.68027 49.294244 
L 513.162589 51.293498 
L 514.644909 50.056942 
L 516.127228 50.314992 
L 517.609548 53.314761 
L 519.091867 54.454878 
L 520.574187 53.124512 
L 522.056506 52.580828 
L 523.538825 52.680468 
L 526.503464 51.732 
L 527.985784 51.593612 
L 529.468103 52.044446 
L 530.950423 51.496356 
L 532.432742 53.171158 
L 533.915062 53.871445 
L 536.8797 52.71566 
L 538.36202 52.356755 
L 539.844339 51.770677 
L 541.326659 50.026332 
L 542.808978 52.113267 
L 544.291298 51.241221 
L 545.773617 50.809404 
L 547.255936 50.758001 
L 548.738256 51.372453 
L 550.220575 50.996226 
L 551.702895 49.591007 
L 553.185214 51.746984 
L 554.667534 51.247905 
L 556.149853 52.46817 
L 557.632172 52.745852 
L 559.114492 54.961577 
L 560.596811 54.959253 
L 562.079131 55.75847 
L 563.56145 58.156763 
L 565.04377 55.855627 
L 566.526089 56.231928 
L 568.008409 54.744232 
L 569.490728 54.058828 
L 570.973047 52.126632 
L 572.455367 51.504849 
L 573.937686 50.115549 
L 575.420006 49.933362 
L 576.902325 49.052894 
L 578.384645 49.605775 
L 579.866964 52.964451 
L 581.349283 52.559126 
L 582.831603 52.807592 
L 585.796242 49.146698 
L 587.278561 47.921493 
L 591.725519 46.365843 
L 593.207839 47.525574 
L 596.172478 49.546457 
L 597.654797 49.077279 
L 600.619436 49.846543 
L 602.101756 49.077969 
L 603.584075 46.264788 
L 605.066394 48.888531 
L 606.548714 48.755265 
L 608.031033 45.247763 
L 609.513353 47.84118 
L 610.995672 48.996607 
L 612.477992 48.237779 
L 613.960311 49.538534 
L 615.44263 48.737308 
L 616.92495 48.777772 
L 618.407269 44.766411 
L 619.889589 46.038831 
L 621.371908 47.457986 
L 622.854228 48.468173 
L 624.336547 52.845932 
L 625.818866 50.777768 
L 627.301186 50.032258 
L 628.783505 51.967041 
L 630.265825 53.22301 
L 631.748144 53.831754 
L 633.230464 52.830994 
L 634.712783 52.674243 
L 636.195103 50.380107 
L 637.677422 51.63781 
L 639.159741 52.083509 
L 640.642061 50.689079 
L 642.12438 51.513773 
L 643.6067 50.303758 
L 645.089019 50.868973 
L 646.571339 49.605417 
L 648.053658 50.447683 
L 649.535977 50.042181 
L 651.018297 50.295836 
L 652.500616 51.117183 
L 653.982936 50.346643 
L 655.465255 52.175559 
L 656.947575 52.459023 
L 658.429894 51.247205 
L 659.912213 52.023489 
L 661.394533 48.551066 
L 662.876852 49.356476 
L 664.359172 48.823575 
L 665.841491 47.732457 
L 667.323811 49.856076 
L 668.80613 49.71737 
L 670.28845 47.733 
L 671.770769 46.224689 
L 673.253088 46.056912 
L 674.735408 46.74077 
L 676.217727 47.814567 
L 676.217727 47.814567 
" clip-path="url(#p008921f8c9)" style="fill: none; stroke: #ff7f0e; stroke-width: 1.5; stroke-linecap: square"/>
   </g>
   <g id="line2d_33">
    <path d="M 84.772273 326.800041 
L 86.254592 326.065288 
L 87.736912 313.861625 
L 89.219231 304.16656 
L 90.70155 291.012627 
L 92.18387 275.862175 
L 93.666189 264.746604 
L 95.148509 249.561296 
L 96.630828 238.377573 
L 99.595467 210.17776 
L 101.077787 196.193247 
L 102.560106 191.918777 
L 104.042425 180.532722 
L 105.524745 171.971755 
L 107.007064 159.265172 
L 108.489384 151.707134 
L 109.971703 140.982667 
L 111.454023 134.562446 
L 112.936342 125.403578 
L 114.418661 119.643765 
L 115.900981 110.697129 
L 117.3833 105.584564 
L 118.86562 99.222829 
L 120.347939 95.360707 
L 121.830259 89.786844 
L 123.312578 82.711112 
L 124.794897 79.291186 
L 126.277217 78.078765 
L 129.241856 72.710018 
L 130.724175 69.426508 
L 132.206495 67.624844 
L 133.688814 64.594763 
L 135.171134 61.142488 
L 136.653453 59.531855 
L 138.135772 58.43203 
L 139.618092 57.529689 
L 141.100411 55.83974 
L 142.582731 55.9514 
L 144.06505 54.51262 
L 145.54737 53.390769 
L 147.029689 52.472044 
L 148.512008 52.671015 
L 149.994328 50.7131 
L 151.476647 50.344608 
L 152.958967 47.940325 
L 154.441286 48.550954 
L 155.923606 49.02722 
L 157.405925 48.578578 
L 158.888244 47.929246 
L 160.370564 49.368024 
L 161.852883 50.20272 
L 163.335203 48.704651 
L 166.299842 48.885914 
L 167.782161 50.544547 
L 169.264481 50.148814 
L 170.7468 49.963093 
L 172.229119 50.22672 
L 173.711439 52.670366 
L 175.193758 51.613955 
L 176.676078 52.347482 
L 178.158397 54.499564 
L 179.640717 55.993252 
L 181.123036 55.795665 
L 182.605355 53.426005 
L 184.087675 53.837425 
L 185.569994 55.615554 
L 187.052314 55.37049 
L 188.534633 55.262814 
L 190.016953 54.393789 
L 191.499272 54.588035 
L 192.981591 53.117423 
L 194.463911 52.451092 
L 195.94623 52.527273 
L 197.42855 51.867847 
L 198.910869 55.131254 
L 200.393189 52.993001 
L 201.875508 54.347688 
L 203.357828 55.490766 
L 204.840147 55.706516 
L 207.804786 58.236774 
L 209.287105 59.531545 
L 212.251744 58.038758 
L 213.734064 56.433558 
L 215.216383 56.76004 
L 216.698702 55.126983 
L 218.181022 54.734247 
L 221.145661 54.473865 
L 222.62798 58.13304 
L 224.1103 56.616403 
L 225.592619 56.818631 
L 227.074938 56.181394 
L 228.557258 53.020262 
L 230.039577 56.04476 
L 231.521897 55.401433 
L 233.004216 55.109124 
L 234.486536 56.067195 
L 235.968855 58.059023 
L 238.933494 59.383221 
L 240.415813 60.059986 
L 241.898133 58.805674 
L 243.380452 58.373208 
L 244.862772 54.72883 
L 246.345091 55.213426 
L 247.827411 53.252629 
L 249.30973 52.987012 
L 250.792049 52.488162 
L 252.274369 54.626087 
L 253.756688 55.456014 
L 255.239008 55.099651 
L 256.721327 52.299991 
L 258.203647 52.316333 
L 259.685966 50.914775 
L 261.168285 49.896082 
L 262.650605 46.392598 
L 264.132924 47.158931 
L 265.615244 47.135541 
L 267.097563 46.627315 
L 268.579883 47.265731 
L 270.062202 47.419814 
L 271.544522 49.93933 
L 274.50916 50.007343 
L 275.99148 50.584958 
L 277.473799 49.148742 
L 278.956119 52.385062 
L 280.438438 51.430829 
L 281.920758 49.608173 
L 283.403077 48.237283 
L 284.885396 49.319339 
L 286.367716 50.771605 
L 287.850035 49.93987 
L 289.332355 49.319105 
L 292.296994 52.423449 
L 293.779313 51.46705 
L 295.261632 51.008098 
L 296.743952 51.639708 
L 298.226271 50.561006 
L 299.708591 49.224108 
L 301.19091 50.064831 
L 302.67323 47.744612 
L 304.155549 45.811725 
L 305.637869 47.251501 
L 307.120188 49.268894 
L 308.602507 46.786776 
L 310.084827 47.329319 
L 313.049466 50.454275 
L 314.531785 48.247268 
L 316.014105 47.070125 
L 317.496424 47.368656 
L 318.978743 49.068613 
L 320.461063 50.463877 
L 321.943382 48.395404 
L 323.425702 47.809792 
L 326.390341 51.477495 
L 327.87266 51.418484 
L 329.354979 52.637384 
L 330.837299 51.852867 
L 332.319618 48.525435 
L 333.801938 50.635873 
L 335.284257 50.706285 
L 336.766577 49.535701 
L 338.248896 49.457783 
L 339.731216 51.233849 
L 341.213535 50.232216 
L 342.695854 48.920809 
L 344.178174 49.775532 
L 345.660493 49.349211 
L 347.142813 49.606683 
L 348.625132 52.048335 
L 351.589771 52.57153 
L 353.07209 53.241463 
L 354.55441 50.477486 
L 356.036729 52.791412 
L 357.519049 53.22231 
L 359.001368 50.792011 
L 361.966007 50.820491 
L 363.448326 51.286319 
L 366.412965 50.664046 
L 367.895285 51.056926 
L 369.377604 49.117123 
L 370.859924 51.267635 
L 372.342243 53.625201 
L 373.824563 54.73752 
L 375.306882 52.351034 
L 378.271521 50.935252 
L 379.75384 52.29356 
L 381.23616 52.542329 
L 382.718479 52.38957 
L 384.200799 52.895138 
L 385.683118 53.773465 
L 387.165437 55.799099 
L 388.647757 56.315638 
L 390.130076 54.681739 
L 391.612396 53.597292 
L 393.094715 52.114985 
L 394.577035 51.43735 
L 396.059354 49.898546 
L 397.541674 46.164891 
L 399.023993 47.051848 
L 400.506312 44.917031 
L 401.988632 46.245086 
L 403.470951 49.45203 
L 404.953271 47.489553 
L 406.43559 46.915075 
L 407.91791 47.982056 
L 409.400229 48.108999 
L 410.882548 47.185735 
L 412.364868 46.520365 
L 413.847187 46.366755 
L 415.329507 44.141712 
L 416.811826 47.434467 
L 418.294146 46.705516 
L 419.776465 45.049906 
L 421.258784 48.347506 
L 422.741104 50.467247 
L 424.223423 49.257244 
L 425.705743 48.436689 
L 427.188062 49.082933 
L 428.670382 51.96326 
L 430.152701 53.647097 
L 431.635021 50.579467 
L 433.11734 48.564033 
L 436.081979 50.301255 
L 437.564298 50.108488 
L 439.046618 50.412416 
L 440.528937 48.619402 
L 442.011257 52.663732 
L 443.493576 53.971865 
L 444.975895 55.43249 
L 447.940534 54.750629 
L 449.422854 53.663062 
L 450.905173 48.79737 
L 452.387493 51.148765 
L 453.869812 51.044894 
L 455.352131 50.445202 
L 456.834451 52.598101 
L 458.31677 53.892125 
L 459.79909 56.912785 
L 461.281409 57.158509 
L 462.763729 55.67641 
L 464.246048 53.306302 
L 465.728368 52.897278 
L 467.210687 49.927466 
L 468.693006 50.436336 
L 470.175326 52.071546 
L 471.657645 52.791764 
L 473.139965 52.165243 
L 474.622284 53.068809 
L 476.104604 51.095849 
L 477.586923 51.900793 
L 479.069242 51.658358 
L 480.551562 52.768539 
L 482.033881 50.192811 
L 483.516201 50.063543 
L 484.99852 49.320903 
L 486.48084 50.231824 
L 487.963159 51.284457 
L 489.445478 51.305515 
L 490.927798 54.091154 
L 492.410117 53.173029 
L 493.892437 53.516994 
L 495.374756 56.37206 
L 498.339395 55.743326 
L 499.821715 56.076715 
L 501.304034 57.14757 
L 502.786353 55.49431 
L 504.268673 56.493093 
L 505.750992 58.760577 
L 507.233312 55.876162 
L 508.715631 52.546706 
L 510.197951 55.011795 
L 511.68027 56.016337 
L 513.162589 56.24833 
L 514.644909 55.550739 
L 516.127228 53.898147 
L 517.609548 56.625626 
L 519.091867 55.316016 
L 520.574187 53.298663 
L 522.056506 54.21324 
L 523.538825 53.614673 
L 525.021145 53.175838 
L 526.503464 50.207307 
L 527.985784 50.834296 
L 529.468103 48.225837 
L 530.950423 48.247119 
L 532.432742 49.940911 
L 533.915062 46.905538 
L 535.397381 48.428269 
L 538.36202 50.579501 
L 539.844339 51.868989 
L 541.326659 52.138908 
L 542.808978 51.084943 
L 544.291298 51.856018 
L 545.773617 49.458194 
L 547.255936 51.535082 
L 548.738256 51.292305 
L 550.220575 49.024984 
L 551.702895 49.67682 
L 553.185214 49.345641 
L 554.667534 51.243247 
L 556.149853 52.373012 
L 557.632172 51.105768 
L 559.114492 50.612893 
L 560.596811 53.350867 
L 562.079131 56.920271 
L 565.04377 59.533351 
L 566.526089 58.473749 
L 568.008409 56.068283 
L 569.490728 55.566249 
L 570.973047 56.363929 
L 573.937686 53.048874 
L 575.420006 52.406572 
L 576.902325 53.100698 
L 578.384645 55.828728 
L 579.866964 55.95749 
L 581.349283 53.804945 
L 582.831603 51.866709 
L 584.313922 53.91691 
L 585.796242 53.908453 
L 587.278561 53.559934 
L 588.760881 53.850919 
L 590.2432 52.766469 
L 591.725519 53.475615 
L 593.207839 54.372669 
L 594.690158 54.63667 
L 596.172478 51.677663 
L 597.654797 49.517574 
L 599.137117 49.691274 
L 600.619436 46.29657 
L 602.101756 47.637258 
L 603.584075 49.618769 
L 605.066394 48.398385 
L 606.548714 46.399783 
L 608.031033 47.485595 
L 609.513353 46.990867 
L 610.995672 46.337056 
L 612.477992 46.259164 
L 613.960311 44.252633 
L 615.44263 44.247563 
L 616.92495 47.605391 
L 618.407269 48.225437 
L 619.889589 49.823481 
L 621.371908 49.37533 
L 622.854228 47.967735 
L 624.336547 47.809739 
L 627.301186 50.962692 
L 628.783505 53.102351 
L 630.265825 52.780528 
L 631.748144 52.756154 
L 633.230464 54.477688 
L 634.712783 54.183069 
L 636.195103 54.908469 
L 637.677422 56.060522 
L 639.159741 55.371019 
L 640.642061 55.108734 
L 642.12438 56.333454 
L 643.6067 56.638381 
L 645.089019 58.598251 
L 646.571339 58.517226 
L 648.053658 57.704622 
L 649.535977 56.305017 
L 651.018297 57.388586 
L 652.500616 56.905145 
L 653.982936 53.494585 
L 655.465255 51.509175 
L 656.947575 50.243461 
L 658.429894 48.778398 
L 659.912213 46.063519 
L 661.394533 45.015056 
L 664.359172 45.071821 
L 665.841491 46.087431 
L 667.323811 46.013926 
L 671.770769 44.977119 
L 673.253088 45.937931 
L 674.735408 47.05802 
L 676.217727 47.55352 
L 676.217727 47.55352 
" clip-path="url(#p008921f8c9)" style="fill: none; stroke: #2ca02c; stroke-width: 1.5; stroke-linecap: square"/>
   </g>
   <g id="line2d_34">
    <path d="M 84.772273 326.800041 
L 86.254592 328.854286 
L 87.736912 328.837184 
L 89.219231 323.870792 
L 90.70155 309.124367 
L 92.18387 288.261466 
L 93.666189 271.605128 
L 95.148509 250.579278 
L 99.595467 204.747197 
L 101.077787 187.970269 
L 102.560106 175.763109 
L 105.524745 153.988164 
L 107.007064 145.688936 
L 108.489384 132.679976 
L 109.971703 125.467302 
L 111.454023 116.795561 
L 112.936342 112.350785 
L 115.900981 97.368189 
L 120.347939 86.108015 
L 123.312578 75.798037 
L 124.794897 73.431292 
L 126.277217 69.106548 
L 127.759536 71.018121 
L 130.724175 68.59693 
L 133.688814 68.183335 
L 135.171134 66.693263 
L 136.653453 65.486437 
L 138.135772 65.30984 
L 139.618092 63.839572 
L 141.100411 65.120059 
L 142.582731 64.030175 
L 144.06505 66.345923 
L 145.54737 66.062026 
L 147.029689 63.109937 
L 148.512008 64.027562 
L 149.994328 62.27979 
L 151.476647 59.752459 
L 152.958967 61.128675 
L 155.923606 58.461047 
L 157.405925 58.59673 
L 158.888244 57.783415 
L 160.370564 59.597403 
L 161.852883 59.626877 
L 163.335203 58.200602 
L 164.817522 56.285355 
L 166.299842 56.992158 
L 167.782161 54.96552 
L 169.264481 55.389765 
L 172.229119 57.807839 
L 173.711439 58.641781 
L 176.676078 54.175296 
L 179.640717 52.412807 
L 181.123036 52.48448 
L 182.605355 52.430837 
L 185.569994 55.123387 
L 190.016953 53.913244 
L 191.499272 54.978371 
L 192.981591 54.691848 
L 194.463911 55.668738 
L 195.94623 54.28783 
L 197.42855 51.79445 
L 198.910869 54.04556 
L 200.393189 53.016756 
L 201.875508 54.034484 
L 203.357828 52.451716 
L 204.840147 54.096632 
L 206.322466 51.403846 
L 207.804786 54.020399 
L 209.287105 55.627178 
L 210.769425 57.438103 
L 212.251744 54.748118 
L 213.734064 54.306359 
L 215.216383 53.188532 
L 216.698702 52.476094 
L 218.181022 52.793128 
L 219.663341 52.756703 
L 221.145661 51.277609 
L 222.62798 48.979712 
L 224.1103 50.9348 
L 225.592619 52.272355 
L 227.074938 51.761884 
L 228.557258 51.723806 
L 230.039577 52.389926 
L 231.521897 55.097015 
L 233.004216 54.547082 
L 234.486536 52.938876 
L 235.968855 50.616523 
L 237.451175 52.016092 
L 238.933494 53.02338 
L 240.415813 50.743469 
L 241.898133 49.368875 
L 243.380452 49.733977 
L 244.862772 48.033799 
L 246.345091 45.935339 
L 247.827411 44.201031 
L 249.30973 45.028513 
L 250.792049 45.291626 
L 252.274369 45.974684 
L 253.756688 46.894082 
L 255.239008 49.795594 
L 256.721327 49.810231 
L 258.203647 50.67957 
L 259.685966 51.061418 
L 261.168285 54.213342 
L 262.650605 54.256604 
L 264.132924 51.411207 
L 265.615244 53.519954 
L 267.097563 53.467224 
L 268.579883 53.223391 
L 270.062202 51.798036 
L 271.544522 48.201462 
L 273.026841 51.02957 
L 274.50916 50.270688 
L 275.99148 48.949028 
L 277.473799 48.739347 
L 278.956119 46.45912 
L 280.438438 48.424438 
L 281.920758 48.891937 
L 283.403077 48.855654 
L 284.885396 47.89428 
L 286.367716 49.284217 
L 287.850035 49.641293 
L 289.332355 48.203647 
L 290.814674 50.913802 
L 292.296994 50.906927 
L 293.779313 51.026465 
L 295.261632 54.472546 
L 296.743952 54.697858 
L 298.226271 54.259532 
L 299.708591 53.371084 
L 302.67323 52.52529 
L 304.155549 52.485657 
L 305.637869 51.32345 
L 307.120188 50.307732 
L 308.602507 50.592995 
L 310.084827 50.518579 
L 311.567146 49.964709 
L 313.049466 49.196596 
L 314.531785 49.74281 
L 316.014105 48.656458 
L 317.496424 46.875912 
L 318.978743 47.734999 
L 320.461063 48.297745 
L 323.425702 48.530782 
L 324.908021 50.52716 
L 326.390341 49.405964 
L 327.87266 47.311987 
L 329.354979 48.467477 
L 330.837299 49.998661 
L 332.319618 49.597596 
L 333.801938 47.255251 
L 335.284257 47.238784 
L 336.766577 46.732071 
L 338.248896 47.882258 
L 339.731216 49.322085 
L 341.213535 51.502414 
L 342.695854 51.507272 
L 344.178174 50.226864 
L 345.660493 49.592612 
L 347.142813 49.505807 
L 348.625132 52.776225 
L 350.107452 52.768216 
L 351.589771 53.496312 
L 353.07209 52.919234 
L 354.55441 51.139 
L 356.036729 48.181235 
L 357.519049 47.240433 
L 359.001368 48.494658 
L 360.483688 48.053102 
L 361.966007 46.9729 
L 363.448326 48.090244 
L 364.930646 47.250992 
L 366.412965 48.656112 
L 369.377604 48.701662 
L 370.859924 48.879127 
L 372.342243 53.034787 
L 373.824563 53.898332 
L 375.306882 55.140913 
L 376.789201 52.134792 
L 378.271521 50.468948 
L 379.75384 50.930047 
L 381.23616 49.780636 
L 382.718479 47.515691 
L 384.200799 48.483866 
L 385.683118 50.520136 
L 387.165437 49.512491 
L 388.647757 50.697617 
L 390.130076 51.248655 
L 393.094715 48.893451 
L 394.577035 50.580547 
L 396.059354 52.746556 
L 397.541674 51.340714 
L 399.023993 54.567636 
L 400.506312 56.343087 
L 401.988632 54.738573 
L 403.470951 55.439471 
L 404.953271 57.082647 
L 406.43559 55.641567 
L 407.91791 53.002094 
L 409.400229 53.323574 
L 410.882548 49.910318 
L 413.847187 44.99092 
L 415.329507 43.755551 
L 416.811826 43.850744 
L 418.294146 44.892423 
L 419.776465 47.982497 
L 421.258784 48.12185 
L 422.741104 50.241086 
L 424.223423 51.163667 
L 425.705743 49.958765 
L 427.188062 50.641571 
L 428.670382 50.47953 
L 430.152701 52.592407 
L 431.635021 53.423153 
L 433.11734 52.705823 
L 434.599659 54.097149 
L 436.081979 52.012086 
L 437.564298 51.230564 
L 439.046618 51.380269 
L 440.528937 50.144393 
L 442.011257 50.234896 
L 443.493576 50.597555 
L 444.975895 49.960874 
L 446.458215 49.042873 
L 447.940534 46.393409 
L 449.422854 47.207657 
L 450.905173 47.051215 
L 452.387493 45.913885 
L 453.869812 51.538089 
L 455.352131 53.880113 
L 456.834451 53.929973 
L 458.31677 53.703917 
L 459.79909 55.510371 
L 462.763729 55.396833 
L 464.246048 53.846949 
L 465.728368 53.476098 
L 467.210687 53.676021 
L 468.693006 51.424698 
L 470.175326 51.312686 
L 471.657645 52.303273 
L 473.139965 52.669658 
L 474.622284 52.023211 
L 476.104604 52.444599 
L 477.586923 50.310093 
L 479.069242 48.782533 
L 480.551562 49.388817 
L 482.033881 48.03784 
L 483.516201 46.91651 
L 484.99852 47.068826 
L 486.48084 44.87953 
L 487.963159 48.132795 
L 489.445478 48.583595 
L 490.927798 49.817863 
L 492.410117 51.475023 
L 493.892437 54.262407 
L 495.374756 54.662648 
L 496.857076 54.927182 
L 498.339395 54.562661 
L 499.821715 55.10627 
L 501.304034 55.4476 
L 502.786353 53.219956 
L 504.268673 54.278713 
L 505.750992 56.364449 
L 507.233312 55.896527 
L 508.715631 52.749474 
L 510.197951 51.926755 
L 511.68027 54.215972 
L 513.162589 55.563561 
L 514.644909 55.984745 
L 516.127228 55.689205 
L 517.609548 54.151548 
L 519.091867 52.112903 
L 520.574187 50.925239 
L 522.056506 50.057734 
L 523.538825 53.60301 
L 525.021145 53.05236 
L 526.503464 54.519869 
L 527.985784 51.291128 
L 529.468103 49.997456 
L 530.950423 49.324537 
L 532.432742 50.780164 
L 535.397381 52.097235 
L 536.8797 54.478959 
L 538.36202 52.806035 
L 539.844339 52.619643 
L 541.326659 50.774768 
L 542.808978 52.493271 
L 544.291298 51.671413 
L 545.773617 53.848245 
L 547.255936 52.865917 
L 548.738256 53.81142 
L 550.220575 53.971393 
L 551.702895 53.521446 
L 553.185214 52.429781 
L 554.667534 51.582604 
L 556.149853 53.439682 
L 557.632172 52.290312 
L 559.114492 52.33383 
L 560.596811 51.886561 
L 562.079131 51.941664 
L 565.04377 58.046788 
L 566.526089 53.488013 
L 568.008409 51.448542 
L 569.490728 50.676634 
L 570.973047 50.12969 
L 572.455367 50.503572 
L 573.937686 47.740436 
L 575.420006 46.449301 
L 576.902325 47.766784 
L 578.384645 49.578937 
L 579.866964 50.215173 
L 581.349283 51.023846 
L 582.831603 48.552411 
L 584.313922 48.379126 
L 585.796242 49.841064 
L 588.760881 46.661143 
L 590.2432 47.868555 
L 593.207839 45.398149 
L 594.690158 43.718257 
L 596.172478 45.53185 
L 597.654797 45.885582 
L 599.137117 47.474001 
L 600.619436 45.920323 
L 602.101756 45.970529 
L 603.584075 42.903126 
L 605.066394 43.641146 
L 606.548714 44.839637 
L 608.031033 42.342333 
L 609.513353 43.560454 
L 610.995672 44.581874 
L 612.477992 46.466216 
L 613.960311 47.926974 
L 615.44263 50.00718 
L 616.92495 48.603039 
L 618.407269 49.60353 
L 619.889589 49.827973 
L 621.371908 50.453481 
L 622.854228 49.738052 
L 624.336547 49.750359 
L 625.818866 46.951552 
L 627.301186 47.006743 
L 628.783505 46.260739 
L 630.265825 47.464436 
L 631.748144 50.158559 
L 633.230464 50.768819 
L 634.712783 51.524105 
L 636.195103 51.556094 
L 637.677422 53.569029 
L 639.159741 53.448977 
L 640.642061 53.533079 
L 642.12438 54.021698 
L 643.6067 54.050904 
L 645.089019 54.333921 
L 646.571339 54.493539 
L 648.053658 52.85907 
L 649.535977 50.538117 
L 651.018297 48.719342 
L 652.500616 49.617618 
L 653.982936 49.380888 
L 655.465255 47.480742 
L 656.947575 47.164784 
L 658.429894 47.734253 
L 659.912213 48.760275 
L 661.394533 47.298493 
L 662.876852 46.902625 
L 664.359172 46.668347 
L 665.841491 44.703665 
L 667.323811 44.993504 
L 668.80613 45.102493 
L 670.28845 44.369777 
L 671.770769 42.662537 
L 673.253088 43.4452 
L 674.735408 44.358016 
L 676.217727 46.40928 
L 676.217727 46.40928 
" clip-path="url(#p008921f8c9)" style="fill: none; stroke: #9467bd; stroke-width: 1.5; stroke-linecap: square"/>
   </g>
   <g id="patch_3">
    <path d="M 55.2 383.885 
L 55.2 24.325 
" style="fill: none; stroke: #000000; stroke-width: 0.8; stroke-linejoin: miter; stroke-linecap: square"/>
   </g>
   <g id="patch_4">
    <path d="M 705.79 383.885 
L 705.79 24.325 
" style="fill: none; stroke: #000000; stroke-width: 0.8; stroke-linejoin: miter; stroke-linecap: square"/>
   </g>
   <g id="patch_5">
    <path d="M 55.2 383.885 
L 705.79 383.885 
" style="fill: none; stroke: #000000; stroke-width: 0.8; stroke-linejoin: miter; stroke-linecap: square"/>
   </g>
   <g id="patch_6">
    <path d="M 55.2 24.325 
L 705.79 24.325 
" style="fill: none; stroke: #000000; stroke-width: 0.8; stroke-linejoin: miter; stroke-linecap: square"/>
   </g>
   <g id="text_18">
    <!-- Reward Comparison -->
    <g transform="translate(312.495 18.325) scale(0.16 -0.16)">
     <defs>
      <path id="SimHei-43" d="M 2975 1825 
Q 2950 875 2575 475 
Q 2200 75 1675 75 
Q 1075 75 650 562 
Q 225 1050 225 2125 
Q 225 3300 637 3875 
Q 1050 4450 1700 4450 
Q 2250 4450 2612 4037 
Q 2975 3625 2950 2875 
L 2400 2875 
Q 2400 3425 2225 3700 
Q 2050 3975 1700 3975 
Q 1300 3975 1062 3562 
Q 825 3150 825 2175 
Q 825 1275 1062 912 
Q 1300 550 1675 550 
Q 1950 550 2175 812 
Q 2400 1075 2400 1825 
L 2975 1825 
z
" transform="scale(0.015625)"/>
      <path id="SimHei-6d" d="M 3050 125 
L 2550 125 
L 2550 2150 
Q 2550 2300 2500 2400 
Q 2450 2500 2300 2500 
Q 2125 2500 1975 2312 
Q 1825 2125 1825 1825 
L 1825 125 
L 1325 125 
L 1325 2150 
Q 1325 2300 1275 2400 
Q 1225 2500 1075 2500 
Q 900 2500 750 2312 
Q 600 2125 600 1825 
L 600 125 
L 100 125 
L 100 2925 
L 600 2925 
L 600 2550 
Q 725 2750 900 2862 
Q 1075 2975 1275 2975 
Q 1475 2975 1612 2862 
Q 1750 2750 1800 2550 
Q 1925 2750 2087 2862 
Q 2250 2975 2450 2975 
Q 2750 2975 2900 2812 
Q 3050 2650 3050 2350 
L 3050 125 
z
" transform="scale(0.015625)"/>
      <path id="SimHei-6e" d="M 2800 125 
L 2300 125 
L 2300 1925 
Q 2300 2225 2150 2400 
Q 2000 2575 1750 2575 
Q 1425 2575 1137 2237 
Q 850 1900 850 1400 
L 850 125 
L 350 125 
L 350 2925 
L 850 2925 
L 850 2400 
Q 1050 2675 1287 2825 
Q 1525 2975 1900 2975 
Q 2350 2975 2575 2725 
Q 2800 2475 2800 2100 
L 2800 125 
z
" transform="scale(0.015625)"/>
     </defs>
     <use xlink:href="#SimHei-52"/>
     <use xlink:href="#SimHei-65" transform="translate(50 0)"/>
     <use xlink:href="#SimHei-77" transform="translate(100 0)"/>
     <use xlink:href="#SimHei-61" transform="translate(150 0)"/>
     <use xlink:href="#SimHei-72" transform="translate(200 0)"/>
     <use xlink:href="#SimHei-64" transform="translate(250 0)"/>
     <use xlink:href="#SimHei-20" transform="translate(300 0)"/>
     <use xlink:href="#SimHei-43" transform="translate(350 0)"/>
     <use xlink:href="#SimHei-6f" transform="translate(400 0)"/>
     <use xlink:href="#SimHei-6d" transform="translate(450 0)"/>
     <use xlink:href="#SimHei-70" transform="translate(500 0)"/>
     <use xlink:href="#SimHei-61" transform="translate(550 0)"/>
     <use xlink:href="#SimHei-72" transform="translate(600 0)"/>
     <use xlink:href="#SimHei-69" transform="translate(650 0)"/>
     <use xlink:href="#SimHei-73" transform="translate(700 0)"/>
     <use xlink:href="#SimHei-6f" transform="translate(750 0)"/>
     <use xlink:href="#SimHei-6e" transform="translate(800 0)"/>
    </g>
   </g>
   <g id="legend_1">
    <g id="patch_7">
     <path d="M 580.99 377.885 
L 697.39 377.885 
Q 699.79 377.885 699.79 375.485 
L 699.79 313.085 
Q 699.79 310.685 697.39 310.685 
L 580.99 310.685 
Q 578.59 310.685 578.59 313.085 
L 578.59 375.485 
Q 578.59 377.885 580.99 377.885 
z
" style="fill: #ffffff; opacity: 0.8; stroke: #cccccc; stroke-linejoin: miter"/>
    </g>
    <g id="line2d_35">
     <path d="M 583.39 319.685 
L 595.39 319.685 
L 607.39 319.685 
" style="fill: none; stroke: #1f77b4; stroke-width: 1.5; stroke-linecap: square"/>
    </g>
    <g id="text_19">
     <!-- GCN-DDQN -->
     <g transform="translate(616.99 323.885) scale(0.12 -0.12)">
      <defs>
       <path id="SimHei-47" d="M 2850 75 
L 2425 75 
L 2350 425 
Q 2250 275 2037 175 
Q 1825 75 1575 75 
Q 1050 75 637 562 
Q 225 1050 225 2125 
Q 225 3300 600 3875 
Q 975 4450 1625 4450 
Q 2200 4450 2525 4025 
Q 2850 3600 2850 2925 
L 2300 2925 
Q 2300 3450 2125 3712 
Q 1950 3975 1625 3975 
Q 1225 3975 1025 3562 
Q 825 3150 825 2175 
Q 825 1250 1075 900 
Q 1325 550 1650 550 
Q 1975 550 2162 787 
Q 2350 1025 2350 1525 
L 2350 1800 
L 1575 1800 
L 1575 2275 
L 2850 2275 
L 2850 75 
z
" transform="scale(0.015625)"/>
       <path id="SimHei-4e" d="M 2850 125 
L 2225 125 
L 850 3225 
L 825 3225 
L 825 125 
L 250 125 
L 250 4400 
L 875 4400 
L 2250 1300 
L 2275 1300 
L 2275 4400 
L 2850 4400 
L 2850 125 
z
" transform="scale(0.015625)"/>
       <path id="SimHei-2d" d="M 2975 2125 
L 125 2125 
L 125 2525 
L 2975 2525 
L 2975 2125 
z
" transform="scale(0.015625)"/>
       <path id="SimHei-44" d="M 2925 2250 
Q 2925 1100 2437 612 
Q 1950 125 1125 125 
L 275 125 
L 275 4400 
L 1125 4400 
Q 2050 4400 2487 3900 
Q 2925 3400 2925 2250 
z
M 2325 2250 
Q 2325 3175 2025 3550 
Q 1725 3925 1125 3925 
L 850 3925 
L 850 600 
L 1125 600 
Q 1725 600 2025 962 
Q 2325 1325 2325 2250 
z
" transform="scale(0.015625)"/>
       <path id="SimHei-51" d="M 2950 2275 
Q 2950 1675 2862 1262 
Q 2775 850 2575 600 
L 2775 225 
L 2375 -200 
L 2150 225 
Q 2050 150 1900 112 
Q 1750 75 1575 75 
Q 925 75 550 587 
Q 175 1100 175 2275 
Q 175 3450 550 3950 
Q 925 4450 1575 4450 
Q 2225 4450 2587 3950 
Q 2950 3450 2950 2275 
z
M 2350 2275 
Q 2350 3325 2125 3650 
Q 1900 3975 1575 3975 
Q 1250 3975 1012 3650 
Q 775 3325 775 2275 
Q 775 1225 1012 887 
Q 1250 550 1575 550 
Q 1700 550 1800 587 
Q 1900 625 1950 675 
L 1550 1450 
L 1900 1875 
L 2250 1200 
Q 2300 1450 2325 1650 
Q 2350 1850 2350 2275 
z
" transform="scale(0.015625)"/>
      </defs>
      <use xlink:href="#SimHei-47"/>
      <use xlink:href="#SimHei-43" transform="translate(50 0)"/>
      <use xlink:href="#SimHei-4e" transform="translate(100 0)"/>
      <use xlink:href="#SimHei-2d" transform="translate(150 0)"/>
      <use xlink:href="#SimHei-44" transform="translate(200 0)"/>
      <use xlink:href="#SimHei-44" transform="translate(250 0)"/>
      <use xlink:href="#SimHei-51" transform="translate(300 0)"/>
      <use xlink:href="#SimHei-4e" transform="translate(350 0)"/>
     </g>
    </g>
    <g id="line2d_36">
     <path d="M 583.39 335.585 
L 595.39 335.585 
L 607.39 335.585 
" style="fill: none; stroke: #ff7f0e; stroke-width: 1.5; stroke-linecap: square"/>
    </g>
    <g id="text_20">
     <!-- GCN-D3QN -->
     <g transform="translate(616.99 339.785) scale(0.12 -0.12)">
      <use xlink:href="#SimHei-47"/>
      <use xlink:href="#SimHei-43" transform="translate(50 0)"/>
      <use xlink:href="#SimHei-4e" transform="translate(100 0)"/>
      <use xlink:href="#SimHei-2d" transform="translate(150 0)"/>
      <use xlink:href="#SimHei-44" transform="translate(200 0)"/>
      <use xlink:href="#SimHei-33" transform="translate(250 0)"/>
      <use xlink:href="#SimHei-51" transform="translate(300 0)"/>
      <use xlink:href="#SimHei-4e" transform="translate(350 0)"/>
     </g>
    </g>
    <g id="line2d_37">
     <path d="M 583.39 351.485 
L 595.39 351.485 
L 607.39 351.485 
" style="fill: none; stroke: #2ca02c; stroke-width: 1.5; stroke-linecap: square"/>
    </g>
    <g id="text_21">
     <!-- GAT-LSTM-DDQN -->
     <g transform="translate(616.99 355.685) scale(0.12 -0.12)">
      <defs>
       <path id="SimHei-41" d="M 3075 125 
L 2475 125 
L 2125 1450 
L 1025 1450 
L 675 125 
L 75 125 
L 1325 4450 
L 1825 4450 
L 3075 125 
z
M 2000 1925 
L 1600 3450 
L 1550 3450 
L 1150 1925 
L 2000 1925 
z
" transform="scale(0.015625)"/>
       <path id="SimHei-4c" d="M 2900 125 
L 300 125 
L 300 4400 
L 875 4400 
L 875 600 
L 2900 600 
L 2900 125 
z
" transform="scale(0.015625)"/>
       <path id="SimHei-53" d="M 2900 1325 
Q 2900 750 2537 412 
Q 2175 75 1550 75 
Q 925 75 575 425 
Q 225 775 225 1300 
L 225 1475 
L 800 1475 
L 800 1325 
Q 800 950 1025 750 
Q 1250 550 1550 550 
Q 1950 550 2137 762 
Q 2325 975 2325 1275 
Q 2325 1525 2100 1737 
Q 1875 1950 1450 2125 
Q 850 2350 587 2625 
Q 325 2900 325 3275 
Q 325 3800 687 4125 
Q 1050 4450 1550 4450 
Q 2200 4450 2487 4062 
Q 2775 3675 2775 3225 
L 2200 3225 
Q 2225 3500 2050 3725 
Q 1875 3950 1550 3950 
Q 1250 3950 1075 3787 
Q 900 3625 900 3350 
Q 900 3125 1037 2962 
Q 1175 2800 1750 2575 
Q 2300 2350 2600 2037 
Q 2900 1725 2900 1325 
z
" transform="scale(0.015625)"/>
       <path id="SimHei-4d" d="M 2925 125 
L 2425 125 
L 2425 3175 
L 2375 3175 
L 1775 125 
L 1375 125 
L 775 3175 
L 725 3175 
L 725 125 
L 225 125 
L 225 4400 
L 1000 4400 
L 1550 1575 
L 1600 1575 
L 2150 4400 
L 2925 4400 
L 2925 125 
z
" transform="scale(0.015625)"/>
      </defs>
      <use xlink:href="#SimHei-47"/>
      <use xlink:href="#SimHei-41" transform="translate(50 0)"/>
      <use xlink:href="#SimHei-54" transform="translate(100 0)"/>
      <use xlink:href="#SimHei-2d" transform="translate(150 0)"/>
      <use xlink:href="#SimHei-4c" transform="translate(200 0)"/>
      <use xlink:href="#SimHei-53" transform="translate(250 0)"/>
      <use xlink:href="#SimHei-54" transform="translate(300 0)"/>
      <use xlink:href="#SimHei-4d" transform="translate(350 0)"/>
      <use xlink:href="#SimHei-2d" transform="translate(400 0)"/>
      <use xlink:href="#SimHei-44" transform="translate(450 0)"/>
      <use xlink:href="#SimHei-44" transform="translate(500 0)"/>
      <use xlink:href="#SimHei-51" transform="translate(550 0)"/>
      <use xlink:href="#SimHei-4e" transform="translate(600 0)"/>
     </g>
    </g>
    <g id="line2d_38">
     <path d="M 583.39 367.385 
L 595.39 367.385 
L 607.39 367.385 
" style="fill: none; stroke: #9467bd; stroke-width: 1.5; stroke-linecap: square"/>
    </g>
    <g id="text_22">
     <!-- GLDVTO -->
     <g transform="translate(616.99 371.585) scale(0.12 -0.12)">
      <defs>
       <path id="SimHei-56" d="M 3050 4400 
L 1800 75 
L 1300 75 
L 50 4400 
L 650 4400 
L 1525 1125 
L 1575 1125 
L 2450 4400 
L 3050 4400 
z
" transform="scale(0.015625)"/>
       <path id="SimHei-4f" d="M 2950 2275 
Q 2950 1100 2587 587 
Q 2225 75 1575 75 
Q 925 75 550 587 
Q 175 1100 175 2275 
Q 175 3450 550 3950 
Q 925 4450 1575 4450 
Q 2225 4450 2587 3950 
Q 2950 3450 2950 2275 
z
M 2350 2275 
Q 2350 3325 2125 3650 
Q 1900 3975 1575 3975 
Q 1250 3975 1012 3650 
Q 775 3325 775 2275 
Q 775 1225 1012 887 
Q 1250 550 1575 550 
Q 1900 550 2125 887 
Q 2350 1225 2350 2275 
z
" transform="scale(0.015625)"/>
      </defs>
      <use xlink:href="#SimHei-47"/>
      <use xlink:href="#SimHei-4c" transform="translate(50 0)"/>
      <use xlink:href="#SimHei-44" transform="translate(100 0)"/>
      <use xlink:href="#SimHei-56" transform="translate(150 0)"/>
      <use xlink:href="#SimHei-54" transform="translate(200 0)"/>
      <use xlink:href="#SimHei-4f" transform="translate(250 0)"/>
     </g>
    </g>
   </g>
  </g>
 </g>
 <defs>
  <clipPath id="p008921f8c9">
   <rect x="55.2" y="24.325" width="650.59" height="359.56"/>
  </clipPath>
 </defs>
</svg>
