<?xml version="1.0" encoding="utf-8" standalone="no"?>
<!DOCTYPE svg PUBLIC "-//W3C//DTD SVG 1.1//EN"
  "http://www.w3.org/Graphics/SVG/1.1/DTD/svg11.dtd">
<svg xmlns:xlink="http://www.w3.org/1999/xlink" width="614.4pt" height="397.915pt" viewBox="0 0 614.4 397.915" xmlns="http://www.w3.org/2000/svg" version="1.1">
 <metadata>
  <rdf:RDF xmlns:dc="http://purl.org/dc/elements/1.1/" xmlns:cc="http://creativecommons.org/ns#" xmlns:rdf="http://www.w3.org/1999/02/22-rdf-syntax-ns#">
   <cc:Work>
    <dc:type rdf:resource="http://purl.org/dc/dcmitype/StillImage"/>
    <dc:date>2026-06-26T16:20:52.041805</dc:date>
    <dc:format>image/svg+xml</dc:format>
    <dc:creator>
     <cc:Agent>
      <dc:title>Matplotlib v3.10.7, https://matplotlib.org/</dc:title>
     </cc:Agent>
    </dc:creator>
   </cc:Work>
  </rdf:RDF>
 </metadata>
 <defs>
  <style type="text/css">*{stroke-linejoin: round; stroke-linecap: butt}</style>
 </defs>
 <g id="figure_1">
  <g id="patch_1">
   <path d="M 0 397.915 
L 614.4 397.915 
L 614.4 -0 
L 0 -0 
z
" style="fill: #ffffff"/>
  </g>
  <g id="axes_1">
   <g id="patch_2">
    <path d="M 49.2 356.965 
L 607.2 356.965 
L 607.2 24.325 
L 49.2 24.325 
z
" style="fill: #ffffff"/>
   </g>
   <g id="matplotlib.axis_1">
    <g id="xtick_1">
     <g id="line2d_1">
      <path d="M 74.563636 356.965 
L 74.563636 24.325 
" clip-path="url(#pa2e313979b)" style="fill: none; stroke: #b0b0b0; stroke-opacity: 0.3; stroke-width: 0.8; stroke-linecap: square"/>
     </g>
     <g id="line2d_2">
      <defs>
       <path id="m7a75294bb3" d="M 0 0 
L 0 3.5 
" style="stroke: #000000; stroke-width: 0.8"/>
      </defs>
      <g>
       <use xlink:href="#m7a75294bb3" x="74.563636" y="356.965" style="stroke: #000000; stroke-width: 0.8"/>
      </g>
     </g>
     <g id="text_1">
      <!-- 0 -->
      <g transform="translate(71.563636 372.215) scale(0.12 -0.12)">
       <defs>
        <path id="SimHei-30" d="M 225 2537 
Q 250 3200 412 3587 
Q 575 3975 875 4225 
Q 1175 4475 1612 4475 
Q 2050 4475 2375 4112 
Q 2700 3750 2800 3200 
Q 2900 2650 2862 1937 
Q 2825 1225 2612 775 
Q 2400 325 1975 150 
Q 1550 -25 1125 187 
Q 700 400 525 750 
Q 350 1100 275 1487 
Q 200 1875 225 2537 
z
M 750 2687 
Q 675 2000 800 1462 
Q 925 925 1212 700 
Q 1500 475 1800 612 
Q 2100 750 2237 1162 
Q 2375 1575 2375 2062 
Q 2375 2550 2337 2950 
Q 2300 3350 2112 3675 
Q 1925 4000 1612 4012 
Q 1300 4025 1062 3700 
Q 825 3375 750 2687 
z
" transform="scale(0.015625)"/>
       </defs>
       <use xlink:href="#SimHei-30"/>
      </g>
     </g>
    </g>
    <g id="xtick_2">
     <g id="line2d_3">
      <path d="M 138.131647 356.965 
L 138.131647 24.325 
" clip-path="url(#pa2e313979b)" style="fill: none; stroke: #b0b0b0; stroke-opacity: 0.3; stroke-width: 0.8; stroke-linecap: square"/>
     </g>
     <g id="line2d_4">
      <g>
       <use xlink:href="#m7a75294bb3" x="138.131647" y="356.965" style="stroke: #000000; stroke-width: 0.8"/>
      </g>
     </g>
     <g id="text_2">
      <!-- 50 -->
      <g transform="translate(132.131647 372.215) scale(0.12 -0.12)">
       <defs>
        <path id="SimHei-35" d="M 550 1325 
Q 725 650 1150 575 
Q 1575 500 1837 662 
Q 2100 825 2212 1087 
Q 2325 1350 2312 1675 
Q 2300 2000 2137 2225 
Q 1975 2450 1725 2525 
Q 1475 2600 1162 2525 
Q 850 2450 650 2175 
L 225 2225 
Q 275 2375 700 4375 
L 2675 4375 
L 2675 3925 
L 1075 3925 
Q 950 3250 825 2850 
Q 1200 3025 1525 3012 
Q 1850 3000 2150 2862 
Q 2450 2725 2587 2487 
Q 2725 2250 2787 2012 
Q 2850 1775 2837 1500 
Q 2825 1225 2725 937 
Q 2625 650 2425 462 
Q 2225 275 1937 162 
Q 1650 50 1275 75 
Q 900 100 562 350 
Q 225 600 100 1200 
L 550 1325 
z
" transform="scale(0.015625)"/>
       </defs>
       <use xlink:href="#SimHei-35"/>
       <use xlink:href="#SimHei-30" transform="translate(50 0)"/>
      </g>
     </g>
    </g>
    <g id="xtick_3">
     <g id="line2d_5">
      <path d="M 201.699658 356.965 
L 201.699658 24.325 
" clip-path="url(#pa2e313979b)" style="fill: none; stroke: #b0b0b0; stroke-opacity: 0.3; stroke-width: 0.8; stroke-linecap: square"/>
     </g>
     <g id="line2d_6">
      <g>
       <use xlink:href="#m7a75294bb3" x="201.699658" y="356.965" style="stroke: #000000; stroke-width: 0.8"/>
      </g>
     </g>
     <g id="text_3">
      <!-- 100 -->
      <g transform="translate(192.699658 372.215) scale(0.12 -0.12)">
       <defs>
        <path id="SimHei-31" d="M 1400 3600 
Q 1075 3275 575 2975 
L 575 3450 
Q 1200 3875 1600 4450 
L 1900 4450 
L 1900 150 
L 1400 150 
L 1400 3600 
z
" transform="scale(0.015625)"/>
       </defs>
       <use xlink:href="#SimHei-31"/>
       <use xlink:href="#SimHei-30" transform="translate(50 0)"/>
       <use xlink:href="#SimHei-30" transform="translate(100 0)"/>
      </g>
     </g>
    </g>
    <g id="xtick_4">
     <g id="line2d_7">
      <path d="M 265.267669 356.965 
L 265.267669 24.325 
" clip-path="url(#pa2e313979b)" style="fill: none; stroke: #b0b0b0; stroke-opacity: 0.3; stroke-width: 0.8; stroke-linecap: square"/>
     </g>
     <g id="line2d_8">
      <g>
       <use xlink:href="#m7a75294bb3" x="265.267669" y="356.965" style="stroke: #000000; stroke-width: 0.8"/>
      </g>
     </g>
     <g id="text_4">
      <!-- 150 -->
      <g transform="translate(256.267669 372.215) scale(0.12 -0.12)">
       <use xlink:href="#SimHei-31"/>
       <use xlink:href="#SimHei-35" transform="translate(50 0)"/>
       <use xlink:href="#SimHei-30" transform="translate(100 0)"/>
      </g>
     </g>
    </g>
    <g id="xtick_5">
     <g id="line2d_9">
      <path d="M 328.83568 356.965 
L 328.83568 24.325 
" clip-path="url(#pa2e313979b)" style="fill: none; stroke: #b0b0b0; stroke-opacity: 0.3; stroke-width: 0.8; stroke-linecap: square"/>
     </g>
     <g id="line2d_10">
      <g>
       <use xlink:href="#m7a75294bb3" x="328.83568" y="356.965" style="stroke: #000000; stroke-width: 0.8"/>
      </g>
     </g>
     <g id="text_5">
      <!-- 200 -->
      <g transform="translate(319.83568 372.215) scale(0.12 -0.12)">
       <defs>
        <path id="SimHei-32" d="M 300 250 
Q 325 625 650 925 
Q 975 1225 1475 1862 
Q 1975 2500 2125 2850 
Q 2275 3200 2237 3450 
Q 2200 3700 2000 3862 
Q 1800 4025 1537 4000 
Q 1275 3975 1037 3800 
Q 800 3625 675 3275 
L 200 3350 
Q 400 3925 712 4187 
Q 1025 4450 1450 4475 
Q 1700 4500 1900 4462 
Q 2100 4425 2312 4287 
Q 2525 4150 2662 3875 
Q 2800 3600 2762 3212 
Q 2725 2825 2375 2287 
Q 2025 1750 1025 600 
L 2825 600 
L 2825 150 
L 300 150 
L 300 250 
z
" transform="scale(0.015625)"/>
       </defs>
       <use xlink:href="#SimHei-32"/>
       <use xlink:href="#SimHei-30" transform="translate(50 0)"/>
       <use xlink:href="#SimHei-30" transform="translate(100 0)"/>
      </g>
     </g>
    </g>
    <g id="xtick_6">
     <g id="line2d_11">
      <path d="M 392.403691 356.965 
L 392.403691 24.325 
" clip-path="url(#pa2e313979b)" style="fill: none; stroke: #b0b0b0; stroke-opacity: 0.3; stroke-width: 0.8; stroke-linecap: square"/>
     </g>
     <g id="line2d_12">
      <g>
       <use xlink:href="#m7a75294bb3" x="392.403691" y="356.965" style="stroke: #000000; stroke-width: 0.8"/>
      </g>
     </g>
     <g id="text_6">
      <!-- 250 -->
      <g transform="translate(383.403691 372.215) scale(0.12 -0.12)">
       <use xlink:href="#SimHei-32"/>
       <use xlink:href="#SimHei-35" transform="translate(50 0)"/>
       <use xlink:href="#SimHei-30" transform="translate(100 0)"/>
      </g>
     </g>
    </g>
    <g id="xtick_7">
     <g id="line2d_13">
      <path d="M 455.971702 356.965 
L 455.971702 24.325 
" clip-path="url(#pa2e313979b)" style="fill: none; stroke: #b0b0b0; stroke-opacity: 0.3; stroke-width: 0.8; stroke-linecap: square"/>
     </g>
     <g id="line2d_14">
      <g>
       <use xlink:href="#m7a75294bb3" x="455.971702" y="356.965" style="stroke: #000000; stroke-width: 0.8"/>
      </g>
     </g>
     <g id="text_7">
      <!-- 300 -->
      <g transform="translate(446.971702 372.215) scale(0.12 -0.12)">
       <defs>
        <path id="SimHei-33" d="M 250 1225 
L 700 1300 
Q 800 975 1025 762 
Q 1250 550 1587 562 
Q 1925 575 2125 837 
Q 2325 1100 2300 1437 
Q 2275 1775 2037 1962 
Q 1800 2150 1275 2225 
L 1275 2550 
Q 1800 2600 2037 2825 
Q 2275 3050 2250 3412 
Q 2225 3775 1925 3937 
Q 1625 4100 1287 3975 
Q 950 3850 750 3275 
L 300 3350 
Q 450 3800 712 4100 
Q 975 4400 1425 4450 
Q 1875 4500 2212 4337 
Q 2550 4175 2687 3837 
Q 2825 3500 2725 3100 
Q 2625 2700 2150 2400 
Q 2500 2250 2687 1950 
Q 2875 1650 2812 1162 
Q 2750 675 2375 375 
Q 2000 75 1525 87 
Q 1050 100 700 387 
Q 350 675 250 1225 
z
" transform="scale(0.015625)"/>
       </defs>
       <use xlink:href="#SimHei-33"/>
       <use xlink:href="#SimHei-30" transform="translate(50 0)"/>
       <use xlink:href="#SimHei-30" transform="translate(100 0)"/>
      </g>
     </g>
    </g>
    <g id="xtick_8">
     <g id="line2d_15">
      <path d="M 519.539713 356.965 
L 519.539713 24.325 
" clip-path="url(#pa2e313979b)" style="fill: none; stroke: #b0b0b0; stroke-opacity: 0.3; stroke-width: 0.8; stroke-linecap: square"/>
     </g>
     <g id="line2d_16">
      <g>
       <use xlink:href="#m7a75294bb3" x="519.539713" y="356.965" style="stroke: #000000; stroke-width: 0.8"/>
      </g>
     </g>
     <g id="text_8">
      <!-- 350 -->
      <g transform="translate(510.539713 372.215) scale(0.12 -0.12)">
       <use xlink:href="#SimHei-33"/>
       <use xlink:href="#SimHei-35" transform="translate(50 0)"/>
       <use xlink:href="#SimHei-30" transform="translate(100 0)"/>
      </g>
     </g>
    </g>
    <g id="xtick_9">
     <g id="line2d_17">
      <path d="M 583.107724 356.965 
L 583.107724 24.325 
" clip-path="url(#pa2e313979b)" style="fill: none; stroke: #b0b0b0; stroke-opacity: 0.3; stroke-width: 0.8; stroke-linecap: square"/>
     </g>
     <g id="line2d_18">
      <g>
       <use xlink:href="#m7a75294bb3" x="583.107724" y="356.965" style="stroke: #000000; stroke-width: 0.8"/>
      </g>
     </g>
     <g id="text_9">
      <!-- 400 -->
      <g transform="translate(574.107724 372.215) scale(0.12 -0.12)">
       <defs>
        <path id="SimHei-34" d="M 2000 1100 
L 75 1100 
L 75 1525 
L 2100 4450 
L 2475 4450 
L 2475 1525 
L 3075 1525 
L 3075 1100 
L 2475 1100 
L 2475 150 
L 2000 150 
L 2000 1100 
z
M 2000 1525 
L 2000 3500 
L 600 1525 
L 2000 1525 
z
" transform="scale(0.015625)"/>
       </defs>
       <use xlink:href="#SimHei-34"/>
       <use xlink:href="#SimHei-30" transform="translate(50 0)"/>
       <use xlink:href="#SimHei-30" transform="translate(100 0)"/>
      </g>
     </g>
    </g>
    <g id="text_10">
     <!-- Episode -->
     <g transform="translate(300.2 388.715) scale(0.16 -0.16)">
      <defs>
       <path id="SimHei-45" d="M 2900 125 
L 350 125 
L 350 4400 
L 2775 4400 
L 2775 3925 
L 925 3925 
L 925 2600 
L 2625 2600 
L 2625 2125 
L 925 2125 
L 925 600 
L 2900 600 
L 2900 125 
z
" transform="scale(0.015625)"/>
       <path id="SimHei-70" d="M 2825 1525 
Q 2825 800 2475 425 
Q 2125 50 1625 50 
Q 1350 50 1150 162 
Q 950 275 800 500 
L 800 -800 
L 300 -800 
L 300 2925 
L 800 2925 
L 800 2550 
Q 950 2775 1150 2875 
Q 1350 2975 1625 2975 
Q 2125 2975 2475 2612 
Q 2825 2250 2825 1525 
z
M 2275 1525 
Q 2275 2000 2087 2262 
Q 1900 2525 1525 2525 
Q 1225 2525 1012 2262 
Q 800 2000 800 1525 
Q 800 1050 1012 775 
Q 1225 500 1525 500 
Q 1900 500 2087 775 
Q 2275 1050 2275 1525 
z
" transform="scale(0.015625)"/>
       <path id="SimHei-69" d="M 1800 3725 
L 1300 3725 
L 1300 4375 
L 1800 4375 
L 1800 3725 
z
M 1800 125 
L 1300 125 
L 1300 2925 
L 1800 2925 
L 1800 125 
z
" transform="scale(0.015625)"/>
       <path id="SimHei-73" d="M 2750 900 
Q 2750 500 2437 287 
Q 2125 75 1650 75 
Q 1050 75 725 312 
Q 400 550 400 1000 
L 900 1000 
Q 900 700 1112 600 
Q 1325 500 1625 500 
Q 1925 500 2075 612 
Q 2225 725 2225 900 
Q 2225 1025 2100 1150 
Q 1975 1275 1475 1350 
Q 900 1425 687 1637 
Q 475 1850 475 2200 
Q 475 2500 762 2737 
Q 1050 2975 1600 2975 
Q 2100 2975 2387 2750 
Q 2675 2525 2675 2150 
L 2175 2150 
Q 2175 2375 2012 2462 
Q 1850 2550 1600 2550 
Q 1275 2550 1137 2437 
Q 1000 2325 1000 2175 
Q 1000 2000 1125 1900 
Q 1250 1800 1650 1750 
Q 2300 1650 2525 1437 
Q 2750 1225 2750 900 
z
" transform="scale(0.015625)"/>
       <path id="SimHei-6f" d="M 2925 1525 
Q 2925 875 2525 475 
Q 2125 75 1575 75 
Q 1025 75 625 475 
Q 225 875 225 1525 
Q 225 2175 625 2575 
Q 1025 2975 1575 2975 
Q 2125 2975 2525 2575 
Q 2925 2175 2925 1525 
z
M 2375 1525 
Q 2375 2025 2125 2275 
Q 1875 2525 1575 2525 
Q 1275 2525 1025 2275 
Q 775 2025 775 1525 
Q 775 1025 1025 775 
Q 1275 525 1575 525 
Q 1875 525 2125 775 
Q 2375 1025 2375 1525 
z
" transform="scale(0.015625)"/>
       <path id="SimHei-64" d="M 2750 125 
L 2250 125 
L 2250 500 
Q 2100 275 1900 175 
Q 1700 75 1425 75 
Q 925 75 575 437 
Q 225 800 225 1525 
Q 225 2250 575 2625 
Q 925 3000 1425 3000 
Q 1700 3000 1900 2887 
Q 2100 2775 2250 2550 
L 2250 4400 
L 2750 4400 
L 2750 125 
z
M 2250 1525 
Q 2250 2000 2037 2275 
Q 1825 2550 1525 2550 
Q 1150 2550 962 2275 
Q 775 2000 775 1525 
Q 775 1050 962 787 
Q 1150 525 1525 525 
Q 1825 525 2037 787 
Q 2250 1050 2250 1525 
z
" transform="scale(0.015625)"/>
       <path id="SimHei-65" d="M 2850 1075 
Q 2800 625 2450 350 
Q 2100 75 1625 75 
Q 1025 75 637 462 
Q 250 850 250 1525 
Q 250 2200 637 2587 
Q 1025 2975 1625 2975 
Q 2150 2975 2487 2637 
Q 2825 2300 2825 1525 
L 800 1525 
Q 800 975 1037 750 
Q 1275 525 1625 525 
Q 1900 525 2075 662 
Q 2250 800 2300 1075 
L 2850 1075 
z
M 2250 1925 
Q 2200 2275 2025 2412 
Q 1850 2550 1575 2550 
Q 1325 2550 1125 2412 
Q 925 2275 825 1925 
L 2250 1925 
z
" transform="scale(0.015625)"/>
      </defs>
      <use xlink:href="#SimHei-45"/>
      <use xlink:href="#SimHei-70" transform="translate(50 0)"/>
      <use xlink:href="#SimHei-69" transform="translate(100 0)"/>
      <use xlink:href="#SimHei-73" transform="translate(150 0)"/>
      <use xlink:href="#SimHei-6f" transform="translate(200 0)"/>
      <use xlink:href="#SimHei-64" transform="translate(250 0)"/>
      <use xlink:href="#SimHei-65" transform="translate(300 0)"/>
     </g>
    </g>
   </g>
   <g id="matplotlib.axis_2">
    <g id="ytick_1">
     <g id="line2d_19">
      <path d="M 49.2 356.370425 
L 607.2 356.370425 
" clip-path="url(#pa2e313979b)" style="fill: none; stroke: #b0b0b0; stroke-opacity: 0.3; stroke-width: 0.8; stroke-linecap: square"/>
     </g>
     <g id="line2d_20">
      <defs>
       <path id="m680490a018" d="M 0 0 
L -3.5 0 
" style="stroke: #000000; stroke-width: 0.8"/>
      </defs>
      <g>
       <use xlink:href="#m680490a018" x="49.2" y="356.370425" style="stroke: #000000; stroke-width: 0.8"/>
      </g>
     </g>
     <g id="text_11">
      <!-- 0.0 -->
      <g transform="translate(24.2 360.495425) scale(0.12 -0.12)">
       <defs>
        <path id="SimHei-2e" d="M 1075 125 
L 500 125 
L 500 675 
L 1075 675 
L 1075 125 
z
" transform="scale(0.015625)"/>
       </defs>
       <use xlink:href="#SimHei-30"/>
       <use xlink:href="#SimHei-2e" transform="translate(50 0)"/>
       <use xlink:href="#SimHei-30" transform="translate(100 0)"/>
      </g>
     </g>
    </g>
    <g id="ytick_2">
     <g id="line2d_21">
      <path d="M 49.2 311.481781 
L 607.2 311.481781 
" clip-path="url(#pa2e313979b)" style="fill: none; stroke: #b0b0b0; stroke-opacity: 0.3; stroke-width: 0.8; stroke-linecap: square"/>
     </g>
     <g id="line2d_22">
      <g>
       <use xlink:href="#m680490a018" x="49.2" y="311.481781" style="stroke: #000000; stroke-width: 0.8"/>
      </g>
     </g>
     <g id="text_12">
      <!-- 0.5 -->
      <g transform="translate(24.2 315.606781) scale(0.12 -0.12)">
       <use xlink:href="#SimHei-30"/>
       <use xlink:href="#SimHei-2e" transform="translate(50 0)"/>
       <use xlink:href="#SimHei-35" transform="translate(100 0)"/>
      </g>
     </g>
    </g>
    <g id="ytick_3">
     <g id="line2d_23">
      <path d="M 49.2 266.593136 
L 607.2 266.593136 
" clip-path="url(#pa2e313979b)" style="fill: none; stroke: #b0b0b0; stroke-opacity: 0.3; stroke-width: 0.8; stroke-linecap: square"/>
     </g>
     <g id="line2d_24">
      <g>
       <use xlink:href="#m680490a018" x="49.2" y="266.593136" style="stroke: #000000; stroke-width: 0.8"/>
      </g>
     </g>
     <g id="text_13">
      <!-- 1.0 -->
      <g transform="translate(24.2 270.718136) scale(0.12 -0.12)">
       <use xlink:href="#SimHei-31"/>
       <use xlink:href="#SimHei-2e" transform="translate(50 0)"/>
       <use xlink:href="#SimHei-30" transform="translate(100 0)"/>
      </g>
     </g>
    </g>
    <g id="ytick_4">
     <g id="line2d_25">
      <path d="M 49.2 221.704492 
L 607.2 221.704492 
" clip-path="url(#pa2e313979b)" style="fill: none; stroke: #b0b0b0; stroke-opacity: 0.3; stroke-width: 0.8; stroke-linecap: square"/>
     </g>
     <g id="line2d_26">
      <g>
       <use xlink:href="#m680490a018" x="49.2" y="221.704492" style="stroke: #000000; stroke-width: 0.8"/>
      </g>
     </g>
     <g id="text_14">
      <!-- 1.5 -->
      <g transform="translate(24.2 225.829492) scale(0.12 -0.12)">
       <use xlink:href="#SimHei-31"/>
       <use xlink:href="#SimHei-2e" transform="translate(50 0)"/>
       <use xlink:href="#SimHei-35" transform="translate(100 0)"/>
      </g>
     </g>
    </g>
    <g id="ytick_5">
     <g id="line2d_27">
      <path d="M 49.2 176.815848 
L 607.2 176.815848 
" clip-path="url(#pa2e313979b)" style="fill: none; stroke: #b0b0b0; stroke-opacity: 0.3; stroke-width: 0.8; stroke-linecap: square"/>
     </g>
     <g id="line2d_28">
      <g>
       <use xlink:href="#m680490a018" x="49.2" y="176.815848" style="stroke: #000000; stroke-width: 0.8"/>
      </g>
     </g>
     <g id="text_15">
      <!-- 2.0 -->
      <g transform="translate(24.2 180.940848) scale(0.12 -0.12)">
       <use xlink:href="#SimHei-32"/>
       <use xlink:href="#SimHei-2e" transform="translate(50 0)"/>
       <use xlink:href="#SimHei-30" transform="translate(100 0)"/>
      </g>
     </g>
    </g>
    <g id="ytick_6">
     <g id="line2d_29">
      <path d="M 49.2 131.927203 
L 607.2 131.927203 
" clip-path="url(#pa2e313979b)" style="fill: none; stroke: #b0b0b0; stroke-opacity: 0.3; stroke-width: 0.8; stroke-linecap: square"/>
     </g>
     <g id="line2d_30">
      <g>
       <use xlink:href="#m680490a018" x="49.2" y="131.927203" style="stroke: #000000; stroke-width: 0.8"/>
      </g>
     </g>
     <g id="text_16">
      <!-- 2.5 -->
      <g transform="translate(24.2 136.052203) scale(0.12 -0.12)">
       <use xlink:href="#SimHei-32"/>
       <use xlink:href="#SimHei-2e" transform="translate(50 0)"/>
       <use xlink:href="#SimHei-35" transform="translate(100 0)"/>
      </g>
     </g>
    </g>
    <g id="ytick_7">
     <g id="line2d_31">
      <path d="M 49.2 87.038559 
L 607.2 87.038559 
" clip-path="url(#pa2e313979b)" style="fill: none; stroke: #b0b0b0; stroke-opacity: 0.3; stroke-width: 0.8; stroke-linecap: square"/>
     </g>
     <g id="line2d_32">
      <g>
       <use xlink:href="#m680490a018" x="49.2" y="87.038559" style="stroke: #000000; stroke-width: 0.8"/>
      </g>
     </g>
     <g id="text_17">
      <!-- 3.0 -->
      <g transform="translate(24.2 91.163559) scale(0.12 -0.12)">
       <use xlink:href="#SimHei-33"/>
       <use xlink:href="#SimHei-2e" transform="translate(50 0)"/>
       <use xlink:href="#SimHei-30" transform="translate(100 0)"/>
      </g>
     </g>
    </g>
    <g id="ytick_8">
     <g id="line2d_33">
      <path d="M 49.2 42.149915 
L 607.2 42.149915 
" clip-path="url(#pa2e313979b)" style="fill: none; stroke: #b0b0b0; stroke-opacity: 0.3; stroke-width: 0.8; stroke-linecap: square"/>
     </g>
     <g id="line2d_34">
      <g>
       <use xlink:href="#m680490a018" x="49.2" y="42.149915" style="stroke: #000000; stroke-width: 0.8"/>
      </g>
     </g>
     <g id="text_18">
      <!-- 3.5 -->
      <g transform="translate(24.2 46.274915) scale(0.12 -0.12)">
       <use xlink:href="#SimHei-33"/>
       <use xlink:href="#SimHei-2e" transform="translate(50 0)"/>
       <use xlink:href="#SimHei-35" transform="translate(100 0)"/>
      </g>
     </g>
    </g>
    <g id="text_19">
     <!-- Energy -->
     <g transform="translate(18.2 214.645) rotate(-90) scale(0.16 -0.16)">
      <defs>
       <path id="SimHei-6e" d="M 2800 125 
L 2300 125 
L 2300 1925 
Q 2300 2225 2150 2400 
Q 2000 2575 1750 2575 
Q 1425 2575 1137 2237 
Q 850 1900 850 1400 
L 850 125 
L 350 125 
L 350 2925 
L 850 2925 
L 850 2400 
Q 1050 2675 1287 2825 
Q 1525 2975 1900 2975 
Q 2350 2975 2575 2725 
Q 2800 2475 2800 2100 
L 2800 125 
z
" transform="scale(0.015625)"/>
       <path id="SimHei-72" d="M 2500 2425 
Q 2025 2500 1700 2287 
Q 1375 2075 1150 1550 
L 1150 125 
L 650 125 
L 650 2925 
L 1150 2925 
L 1150 2200 
Q 1375 2600 1712 2787 
Q 2050 2975 2500 2975 
L 2500 2425 
z
" transform="scale(0.015625)"/>
       <path id="SimHei-67" d="M 2975 2500 
Q 2800 2550 2637 2562 
Q 2475 2575 2300 2525 
Q 2375 2450 2425 2337 
Q 2475 2225 2475 2000 
Q 2475 1575 2187 1300 
Q 1900 1025 1475 1025 
Q 1375 1025 1212 1062 
Q 1050 1100 950 1150 
Q 875 1100 850 1050 
Q 825 1000 825 925 
Q 825 800 1000 737 
Q 1175 675 1625 675 
Q 2350 675 2612 475 
Q 2875 275 2875 -25 
Q 2875 -425 2487 -612 
Q 2100 -800 1575 -800 
Q 900 -800 575 -625 
Q 250 -450 250 -150 
Q 250 0 375 150 
Q 500 300 700 400 
Q 550 475 462 587 
Q 375 700 375 875 
Q 375 1025 487 1137 
Q 600 1250 750 1325 
Q 625 1450 550 1625 
Q 475 1800 475 2000 
Q 475 2425 762 2700 
Q 1050 2975 1475 2975 
Q 1700 2975 1862 2912 
Q 2025 2850 2150 2725 
Q 2350 2875 2550 2937 
Q 2750 3000 2975 2975 
L 2975 2500 
z
M 1975 2000 
Q 1975 2250 1850 2400 
Q 1725 2550 1475 2550 
Q 1225 2550 1100 2400 
Q 975 2250 975 2000 
Q 975 1750 1100 1600 
Q 1225 1450 1475 1450 
Q 1725 1450 1850 1600 
Q 1975 1750 1975 2000 
z
M 2400 -75 
Q 2400 25 2287 125 
Q 2175 225 1725 225 
Q 1625 225 1450 237 
Q 1275 250 1050 275 
Q 850 200 775 100 
Q 700 0 700 -100 
Q 700 -250 900 -350 
Q 1100 -450 1600 -450 
Q 2025 -450 2212 -337 
Q 2400 -225 2400 -75 
z
" transform="scale(0.015625)"/>
       <path id="SimHei-79" d="M 2900 2925 
L 1750 -100 
Q 1650 -450 1450 -625 
Q 1250 -800 950 -800 
Q 825 -800 712 -787 
Q 600 -775 500 -725 
L 500 -225 
Q 600 -275 700 -300 
Q 800 -325 875 -325 
Q 1075 -325 1150 -262 
Q 1225 -200 1300 25 
L 200 2925 
L 750 2925 
L 1550 725 
L 1575 725 
L 2350 2925 
L 2900 2925 
z
" transform="scale(0.015625)"/>
      </defs>
      <use xlink:href="#SimHei-45"/>
      <use xlink:href="#SimHei-6e" transform="translate(50 0)"/>
      <use xlink:href="#SimHei-65" transform="translate(100 0)"/>
      <use xlink:href="#SimHei-72" transform="translate(150 0)"/>
      <use xlink:href="#SimHei-67" transform="translate(200 0)"/>
      <use xlink:href="#SimHei-79" transform="translate(250 0)"/>
     </g>
    </g>
   </g>
   <g id="line2d_35">
    <path d="M 74.563636 39.445 
L 75.834997 44.418863 
L 77.106357 41.450861 
L 79.649077 69.553669 
L 80.920437 76.343211 
L 82.191798 80.051593 
L 83.463158 71.373478 
L 84.734518 61.374943 
L 86.005878 50.148224 
L 87.277239 49.345277 
L 88.548599 59.98396 
L 89.819959 68.831145 
L 91.091319 69.947101 
L 92.362679 71.930168 
L 93.63404 78.044758 
L 94.9054 71.981431 
L 96.17676 58.245934 
L 97.44812 62.243349 
L 99.990841 74.482139 
L 101.262201 72.523542 
L 102.533561 56.585594 
L 103.804921 62.549081 
L 105.076282 62.75165 
L 106.347642 62.330585 
L 107.619002 55.196501 
L 108.890362 57.8727 
L 110.161722 54.344333 
L 111.433083 54.216952 
L 112.704443 53.572005 
L 113.975803 43.697903 
L 115.247163 41.450304 
L 116.518524 41.108864 
L 117.789884 48.679681 
L 119.061244 59.814709 
L 120.332604 45.130576 
L 121.603964 54.291657 
L 124.146685 82.304754 
L 126.689405 107.646778 
L 129.232126 130.53246 
L 131.774846 151.09983 
L 134.317567 169.668032 
L 136.860287 186.449088 
L 139.403008 201.589447 
L 141.945728 215.300061 
L 144.488448 227.629583 
L 145.759809 233.325769 
L 147.031169 238.029199 
L 149.573889 248.105129 
L 152.11661 257.281259 
L 154.65933 265.507275 
L 157.202051 272.988367 
L 159.744771 279.673682 
L 162.287491 285.740802 
L 164.830212 291.160527 
L 167.372932 296.074303 
L 169.915653 300.605934 
L 172.458373 304.623625 
L 175.001094 308.241085 
L 178.815174 313.04105 
L 181.357895 315.836412 
L 183.900615 318.436598 
L 186.443336 320.704838 
L 188.986056 322.74508 
L 192.800137 325.388183 
L 195.342857 326.972492 
L 200.428298 329.670841 
L 205.513739 331.98344 
L 210.59918 333.850882 
L 214.41326 334.937657 
L 215.684621 334.571628 
L 218.227341 335.277846 
L 219.498701 335.366787 
L 223.312782 336.277152 
L 228.398223 337.280706 
L 232.212303 337.838158 
L 233.483664 337.717376 
L 237.297744 338.247209 
L 241.111825 338.75877 
L 242.383185 337.071731 
L 248.739986 338.173948 
L 256.368148 339.155269 
L 257.639508 336.399599 
L 263.996309 337.734788 
L 266.539029 338.092299 
L 272.89583 338.896755 
L 275.438551 339.240186 
L 283.066712 339.954265 
L 304.679836 341.057508 
L 308.493917 341.150499 
L 319.936159 341.39354 
L 322.478879 341.385914 
L 326.29296 341.479466 
L 328.83568 341.601006 
L 333.921121 341.691505 
L 339.006562 341.689031 
L 340.277922 341.725089 
L 341.549282 340.222434 
L 349.177444 340.610577 
L 352.991524 340.750784 
L 354.262884 340.562863 
L 359.348325 340.829167 
L 360.619686 340.877104 
L 361.891046 338.405582 
L 374.604648 339.732596 
L 378.418729 339.95145 
L 380.961449 340.163814 
L 401.303213 341.2413 
L 405.117293 341.264346 
L 410.202734 341.411139 
L 414.016815 341.51368 
L 419.102256 341.555762 
L 420.373616 341.199293 
L 422.916336 341.2456 
L 424.187697 341.127909 
L 434.358578 341.31903 
L 435.629938 341.16394 
L 436.901299 341.200762 
L 438.172659 339.710879 
L 457.243062 340.884067 
L 463.599863 341.149944 
L 475.042105 341.407576 
L 476.313465 338.922065 
L 480.127546 339.360498 
L 481.398906 339.323676 
L 483.941627 339.611478 
L 486.484347 339.856767 
L 487.755707 339.666102 
L 492.841148 340.115361 
L 506.826111 340.979087 
L 509.368831 341.05588 
L 510.640191 340.35999 
L 511.911552 338.17756 
L 515.725632 338.733423 
L 516.996992 336.261771 
L 524.625154 337.67095 
L 533.524675 338.949835 
L 548.780998 340.276448 
L 551.323718 340.376604 
L 553.866439 340.489945 
L 555.137799 338.234549 
L 558.95188 338.807391 
L 564.037321 339.464355 
L 570.394122 340.106901 
L 580.565003 340.667768 
L 581.836364 340.723115 
L 581.836364 340.723115 
" clip-path="url(#pa2e313979b)" style="fill: none; stroke: #1f77b4; stroke-width: 1.2; stroke-linecap: square"/>
   </g>
   <g id="line2d_36">
    <path d="M 74.563636 228.898065 
L 75.834997 229.263623 
L 77.106357 230.022252 
L 78.377717 235.017745 
L 79.649077 229.925149 
L 80.920437 220.737749 
L 82.191798 226.435387 
L 83.463158 222.283747 
L 84.734518 219.653382 
L 87.277239 204.238889 
L 88.548599 191.019857 
L 89.819959 196.107095 
L 91.091319 185.057707 
L 92.362679 181.111692 
L 93.63404 173.183197 
L 94.9054 161.882609 
L 96.17676 156.055775 
L 97.44812 152.93397 
L 98.719481 152.886265 
L 99.990841 150.729495 
L 101.262201 140.514995 
L 102.533561 146.838612 
L 103.804921 147.899791 
L 105.076282 143.006309 
L 106.347642 122.480189 
L 107.619002 119.619841 
L 108.890362 109.663468 
L 110.161722 107.036069 
L 111.433083 89.751894 
L 112.704443 99.425861 
L 113.975803 91.360559 
L 115.247163 86.917623 
L 116.518524 85.627389 
L 117.789884 90.998137 
L 119.061244 83.698373 
L 120.332604 70.350491 
L 121.603964 75.535018 
L 122.875325 71.114492 
L 124.146685 76.478899 
L 126.689405 102.48651 
L 129.232126 125.696294 
L 131.774846 146.755483 
L 134.317567 165.76058 
L 136.860287 182.861772 
L 139.403008 198.372566 
L 141.945728 212.341354 
L 144.488448 224.949866 
L 147.031169 236.353334 
L 149.573889 246.635414 
L 152.11661 255.923636 
L 154.65933 264.335287 
L 157.202051 271.854436 
L 159.744771 278.645138 
L 162.287491 284.80054 
L 164.830212 290.320139 
L 166.101572 292.927994 
L 172.458373 303.831842 
L 175.001094 307.510145 
L 176.272454 309.247764 
L 183.900615 317.693265 
L 186.443336 320.10585 
L 188.986056 322.216192 
L 192.800137 325.026577 
L 196.614217 327.462155 
L 202.971018 330.72673 
L 208.056459 332.754712 
L 210.59918 333.431386 
L 213.1419 334.278243 
L 216.955981 335.40139 
L 218.227341 335.690711 
L 219.498701 333.546786 
L 222.041422 334.371877 
L 229.669583 336.36788 
L 230.940943 332.552097 
L 234.755024 333.912548 
L 236.026384 331.125772 
L 239.840465 332.62059 
L 241.111825 332.951068 
L 242.383185 332.040875 
L 246.197266 333.424183 
L 252.554067 335.280472 
L 258.910868 336.817199 
L 262.724949 337.545509 
L 270.35311 338.72099 
L 279.252632 339.65284 
L 280.523992 339.609839 
L 286.880793 340.05149 
L 288.152153 334.505424 
L 289.423513 334.870248 
L 290.694874 335.074475 
L 295.780314 336.346132 
L 298.323035 336.793206 
L 307.222556 338.333184 
L 317.393438 339.50898 
L 319.936159 339.743754 
L 322.478879 339.976269 
L 345.363363 341.192523 
L 360.619686 341.433701 
L 361.891046 330.693372 
L 363.162406 331.256586 
L 364.433766 327.628733 
L 366.976487 329.030415 
L 369.519207 330.222347 
L 373.333288 331.908309 
L 374.604648 332.438996 
L 377.147368 333.299326 
L 382.232809 334.966638 
L 383.50417 335.321029 
L 384.77553 331.949099 
L 387.31825 332.864586 
L 392.403691 334.475079 
L 393.675051 328.811242 
L 397.489132 330.688502 
L 401.303213 332.267993 
L 403.845933 333.202534 
L 410.202734 335.084762 
L 416.559535 336.642728 
L 419.102256 337.139753 
L 420.373616 333.917422 
L 422.916336 334.770583 
L 424.187697 335.004144 
L 429.273137 336.346246 
L 433.087218 337.07057 
L 434.358578 337.049366 
L 441.98674 338.342579 
L 443.2581 338.53298 
L 444.52946 336.211505 
L 447.07218 336.788608 
L 459.785783 338.739303 
L 473.770745 340.069413 
L 480.127546 340.429736 
L 489.027068 340.888265 
L 494.112509 341.11362 
L 505.554751 341.393192 
L 509.368831 341.469393 
L 514.454272 341.523119 
L 519.539713 341.5443 
L 522.082433 341.538755 
L 528.439234 341.654558 
L 538.610116 341.747906 
L 539.881476 338.049261 
L 543.695557 338.667918 
L 551.323718 339.548116 
L 552.595079 337.537717 
L 566.580041 339.500049 
L 572.936842 340.056694 
L 580.565003 340.565935 
L 580.565003 340.565935 
" clip-path="url(#pa2e313979b)" style="fill: none; stroke: #ff7f0e; stroke-width: 1.2; stroke-linecap: square"/>
   </g>
   <g id="line2d_37">
    <path d="M 74.563636 331.130349 
L 75.834997 320.074364 
L 77.106357 318.885644 
L 78.377717 308.448057 
L 79.649077 306.857714 
L 80.920437 306.357481 
L 82.191798 297.708929 
L 83.463158 299.343092 
L 84.734518 300.127632 
L 87.277239 303.981708 
L 88.548599 293.410385 
L 89.819959 283.979929 
L 91.091319 286.891321 
L 92.362679 283.056003 
L 93.63404 282.519382 
L 96.17676 288.00874 
L 97.44812 287.18603 
L 98.719481 287.850748 
L 101.262201 293.134245 
L 103.804921 297.874141 
L 106.347642 302.120123 
L 108.890362 305.959516 
L 112.704443 311.043732 
L 115.247163 314.066926 
L 117.789884 316.801503 
L 120.332604 319.254951 
L 122.875325 321.497965 
L 125.418045 323.453168 
L 126.689405 324.35765 
L 127.960766 314.225373 
L 131.774846 318.159712 
L 135.588927 321.464966 
L 139.403008 324.350157 
L 141.945728 326.004808 
L 147.031169 328.773551 
L 149.573889 330.088817 
L 150.845249 327.376143 
L 154.65933 329.404867 
L 161.016131 332.286437 
L 163.558852 333.230524 
L 172.458373 335.87293 
L 176.272454 336.739304 
L 177.543814 331.704282 
L 181.357895 333.139533 
L 183.900615 333.879137 
L 187.714696 335.004958 
L 192.800137 336.326156 
L 195.342857 336.762633 
L 201.699658 337.936546 
L 202.971018 338.111274 
L 204.242379 336.179851 
L 206.785099 336.676617 
L 208.056459 335.088989 
L 215.684621 336.768979 
L 218.227341 337.206553 
L 219.498701 337.279971 
L 222.041422 337.753637 
L 225.855502 338.306415 
L 230.940943 338.940583 
L 239.840465 339.91781 
L 250.011347 340.647161 
L 251.282707 340.670699 
L 252.554067 335.784685 
L 257.639508 336.877022 
L 270.35311 338.788779 
L 276.709911 339.363058 
L 279.252632 339.521421 
L 280.523992 336.589882 
L 290.694874 338.231336 
L 291.966234 335.630501 
L 295.780314 336.531935 
L 304.679836 338.189218 
L 321.207519 340.127477 
L 331.378401 340.872858 
L 333.921121 341.00374 
L 335.192481 340.745309 
L 341.549282 341.049586 
L 349.177444 341.20433 
L 358.076965 341.4413 
L 359.348325 341.516871 
L 360.619686 339.425823 
L 363.162406 339.647678 
L 375.876008 340.517653 
L 378.418729 340.684587 
L 383.50417 340.776598 
L 387.31825 340.929254 
L 389.860971 341.031959 
L 391.132331 336.322056 
L 401.303213 338.158554 
L 402.574573 338.317494 
L 403.845933 337.176118 
L 411.474094 338.546504 
L 416.559535 339.251223 
L 430.544498 340.468628 
L 431.815858 335.177091 
L 435.629938 336.111031 
L 443.2581 337.600784 
L 447.07218 338.235507 
L 452.157621 338.896012 
L 464.871224 340.041292 
L 467.413944 340.237813 
L 469.956664 340.435127 
L 485.212987 341.076477 
L 494.112509 341.327065 
L 499.197949 341.484986 
L 504.28339 341.4606 
L 514.454272 341.699459 
L 523.353794 341.781109 
L 529.710595 341.78434 
L 532.253315 341.646446 
L 539.881476 341.7222 
L 550.052358 341.583651 
L 558.95188 341.740628 
L 564.037321 341.766912 
L 567.851401 341.67868 
L 572.936842 341.801405 
L 580.565003 341.777935 
L 580.565003 341.777935 
" clip-path="url(#pa2e313979b)" style="fill: none; stroke: #2ca02c; stroke-width: 1.2; stroke-linecap: square"/>
   </g>
   <g id="line2d_38">
    <path d="M 74.563636 331.130349 
L 75.834997 320.307719 
L 77.106357 306.787508 
L 78.377717 297.81327 
L 79.649077 291.117375 
L 80.920437 293.416246 
L 82.191798 295.359946 
L 83.463158 292.950911 
L 84.734518 293.277458 
L 86.005878 295.683544 
L 87.277239 293.9998 
L 89.819959 298.667436 
L 92.362679 302.915151 
L 94.9054 306.471318 
L 97.44812 309.914588 
L 99.990841 313.005572 
L 105.076282 318.3292 
L 106.347642 316.903098 
L 110.161722 320.503991 
L 113.975803 323.569036 
L 116.518524 325.31485 
L 119.061244 326.95649 
L 120.332604 324.179694 
L 122.875325 325.894819 
L 126.689405 328.214298 
L 129.232126 329.540566 
L 133.046206 331.298876 
L 135.588927 332.212369 
L 138.131647 333.165527 
L 144.488448 335.074781 
L 145.759809 335.414748 
L 147.031169 335.636907 
L 150.845249 336.574147 
L 155.93069 337.55668 
L 159.744771 338.166341 
L 167.372932 339.096649 
L 169.915653 339.359198 
L 175.001094 339.88136 
L 182.629255 340.323672 
L 188.986056 340.610068 
L 195.342857 341.080024 
L 206.785099 341.303878 
L 214.41326 341.284303 
L 216.955981 341.321351 
L 255.096787 341.762951 
L 258.910868 341.747848 
L 260.182228 341.522984 
L 284.338072 341.717285 
L 286.880793 341.554579 
L 290.694874 341.584093 
L 291.966234 341.307755 
L 297.051675 341.51065 
L 308.493917 341.606865 
L 326.29296 341.783713 
L 327.56432 339.678761 
L 342.820643 340.707492 
L 351.720164 341.027836 
L 354.262884 341.031604 
L 359.348325 341.25255 
L 366.976487 341.406635 
L 368.247847 339.048389 
L 375.876008 339.786835 
L 377.147368 336.383567 
L 380.961449 337.118565 
L 383.50417 337.48685 
L 384.77553 337.565568 
L 388.58961 338.209537 
L 396.217772 339.161429 
L 397.489132 339.275665 
L 398.760492 338.729417 
L 402.574573 339.155227 
L 406.388653 339.538436 
L 412.745455 340.124092 
L 429.273137 340.981925 
L 445.80082 341.281549 
L 447.07218 341.09162 
L 450.886261 341.193768 
L 452.157621 338.232281 
L 457.243062 338.914612 
L 462.328503 339.334189 
L 468.685304 339.857738 
L 471.228025 340.041809 
L 480.127546 340.607323 
L 481.398906 338.318244 
L 485.212987 338.790141 
L 489.027068 339.20034 
L 491.569788 339.5272 
L 510.640191 340.759093 
L 513.182912 333.81022 
L 515.725632 334.61736 
L 522.082433 336.263242 
L 529.710595 337.752809 
L 530.981955 336.034395 
L 538.610116 337.665419 
L 544.966917 338.558007 
L 552.595079 339.422926 
L 555.137799 339.642948 
L 556.409159 339.555206 
L 561.4946 339.957151 
L 566.580041 340.27001 
L 567.851401 340.174327 
L 579.293643 340.843139 
L 580.565003 340.746943 
L 580.565003 340.746943 
" clip-path="url(#pa2e313979b)" style="fill: none; stroke: #9467bd; stroke-width: 1.2; stroke-linecap: square"/>
   </g>
   <g id="patch_3">
    <path d="M 49.2 356.965 
L 49.2 24.325 
" style="fill: none; stroke: #000000; stroke-width: 0.8; stroke-linejoin: miter; stroke-linecap: square"/>
   </g>
   <g id="patch_4">
    <path d="M 607.2 356.965 
L 607.2 24.325 
" style="fill: none; stroke: #000000; stroke-width: 0.8; stroke-linejoin: miter; stroke-linecap: square"/>
   </g>
   <g id="patch_5">
    <path d="M 49.2 356.965 
L 607.2 356.965 
" style="fill: none; stroke: #000000; stroke-width: 0.8; stroke-linejoin: miter; stroke-linecap: square"/>
   </g>
   <g id="patch_6">
    <path d="M 49.2 24.325 
L 607.2 24.325 
" style="fill: none; stroke: #000000; stroke-width: 0.8; stroke-linejoin: miter; stroke-linecap: square"/>
   </g>
   <g id="text_20">
    <!-- Total Energy Consumption -->
    <g transform="translate(232.2 18.325) scale(0.16 -0.16)">
     <defs>
      <path id="SimHei-54" d="M 2850 3925 
L 1850 3925 
L 1850 125 
L 1275 125 
L 1275 3925 
L 275 3925 
L 275 4400 
L 2850 4400 
L 2850 3925 
z
" transform="scale(0.015625)"/>
      <path id="SimHei-74" d="M 2750 200 
Q 2625 150 2462 112 
Q 2300 75 2025 75 
Q 1575 75 1300 325 
Q 1025 575 1025 1025 
L 1025 2525 
L 175 2525 
L 175 2925 
L 1025 2925 
L 1025 3900 
L 1525 3900 
L 1525 2925 
L 2550 2925 
L 2550 2525 
L 1525 2525 
L 1525 1000 
Q 1525 800 1625 662 
Q 1725 525 2000 525 
Q 2275 525 2450 575 
Q 2625 625 2750 700 
L 2750 200 
z
" transform="scale(0.015625)"/>
      <path id="SimHei-61" d="M 2875 125 
L 2275 125 
Q 2225 175 2200 262 
Q 2175 350 2175 475 
Q 2000 275 1750 175 
Q 1500 75 1225 75 
Q 825 75 550 275 
Q 275 475 275 850 
Q 275 1225 525 1450 
Q 775 1675 1300 1750 
Q 1650 1800 1912 1875 
Q 2175 1950 2175 2075 
Q 2175 2225 2062 2375 
Q 1950 2525 1575 2525 
Q 1275 2525 1137 2412 
Q 1000 2300 950 2100 
L 400 2100 
Q 450 2500 762 2737 
Q 1075 2975 1575 2975 
Q 2125 2975 2400 2725 
Q 2675 2475 2675 2025 
L 2675 650 
Q 2675 500 2725 375 
Q 2775 250 2875 125 
z
M 2175 1050 
L 2175 1550 
Q 2025 1500 1887 1462 
Q 1750 1425 1425 1375 
Q 1050 1325 937 1200 
Q 825 1075 825 900 
Q 825 750 937 637 
Q 1050 525 1275 525 
Q 1500 525 1762 650 
Q 2025 775 2175 1050 
z
" transform="scale(0.015625)"/>
      <path id="SimHei-6c" d="M 1825 125 
L 1325 125 
L 1325 4400 
L 1825 4400 
L 1825 125 
z
" transform="scale(0.015625)"/>
      <path id="SimHei-20" transform="scale(0.015625)"/>
      <path id="SimHei-43" d="M 2975 1825 
Q 2950 875 2575 475 
Q 2200 75 1675 75 
Q 1075 75 650 562 
Q 225 1050 225 2125 
Q 225 3300 637 3875 
Q 1050 4450 1700 4450 
Q 2250 4450 2612 4037 
Q 2975 3625 2950 2875 
L 2400 2875 
Q 2400 3425 2225 3700 
Q 2050 3975 1700 3975 
Q 1300 3975 1062 3562 
Q 825 3150 825 2175 
Q 825 1275 1062 912 
Q 1300 550 1675 550 
Q 1950 550 2175 812 
Q 2400 1075 2400 1825 
L 2975 1825 
z
" transform="scale(0.015625)"/>
      <path id="SimHei-75" d="M 2800 125 
L 2300 125 
L 2300 650 
Q 2100 375 1862 225 
Q 1625 75 1250 75 
Q 800 75 575 325 
Q 350 575 350 950 
L 350 2925 
L 850 2925 
L 850 1125 
Q 850 825 1000 650 
Q 1150 475 1400 475 
Q 1725 475 2012 812 
Q 2300 1150 2300 1650 
L 2300 2925 
L 2800 2925 
L 2800 125 
z
" transform="scale(0.015625)"/>
      <path id="SimHei-6d" d="M 3050 125 
L 2550 125 
L 2550 2150 
Q 2550 2300 2500 2400 
Q 2450 2500 2300 2500 
Q 2125 2500 1975 2312 
Q 1825 2125 1825 1825 
L 1825 125 
L 1325 125 
L 1325 2150 
Q 1325 2300 1275 2400 
Q 1225 2500 1075 2500 
Q 900 2500 750 2312 
Q 600 2125 600 1825 
L 600 125 
L 100 125 
L 100 2925 
L 600 2925 
L 600 2550 
Q 725 2750 900 2862 
Q 1075 2975 1275 2975 
Q 1475 2975 1612 2862 
Q 1750 2750 1800 2550 
Q 1925 2750 2087 2862 
Q 2250 2975 2450 2975 
Q 2750 2975 2900 2812 
Q 3050 2650 3050 2350 
L 3050 125 
z
" transform="scale(0.015625)"/>
     </defs>
     <use xlink:href="#SimHei-54"/>
     <use xlink:href="#SimHei-6f" transform="translate(50 0)"/>
     <use xlink:href="#SimHei-74" transform="translate(100 0)"/>
     <use xlink:href="#SimHei-61" transform="translate(150 0)"/>
     <use xlink:href="#SimHei-6c" transform="translate(200 0)"/>
     <use xlink:href="#SimHei-20" transform="translate(250 0)"/>
     <use xlink:href="#SimHei-45" transform="translate(300 0)"/>
     <use xlink:href="#SimHei-6e" transform="translate(350 0)"/>
     <use xlink:href="#SimHei-65" transform="translate(400 0)"/>
     <use xlink:href="#SimHei-72" transform="translate(450 0)"/>
     <use xlink:href="#SimHei-67" transform="translate(500 0)"/>
     <use xlink:href="#SimHei-79" transform="translate(550 0)"/>
     <use xlink:href="#SimHei-20" transform="translate(600 0)"/>
     <use xlink:href="#SimHei-43" transform="translate(650 0)"/>
     <use xlink:href="#SimHei-6f" transform="translate(700 0)"/>
     <use xlink:href="#SimHei-6e" transform="translate(750 0)"/>
     <use xlink:href="#SimHei-73" transform="translate(800 0)"/>
     <use xlink:href="#SimHei-75" transform="translate(850 0)"/>
     <use xlink:href="#SimHei-6d" transform="translate(900 0)"/>
     <use xlink:href="#SimHei-70" transform="translate(950 0)"/>
     <use xlink:href="#SimHei-74" transform="translate(1000 0)"/>
     <use xlink:href="#SimHei-69" transform="translate(1050 0)"/>
     <use xlink:href="#SimHei-6f" transform="translate(1100 0)"/>
     <use xlink:href="#SimHei-6e" transform="translate(1150 0)"/>
    </g>
   </g>
   <g id="legend_1">
    <g id="patch_7">
     <path d="M 482.4 97.525 
L 598.8 97.525 
Q 601.2 97.525 601.2 95.125 
L 601.2 32.725 
Q 601.2 30.325 598.8 30.325 
L 482.4 30.325 
Q 480 30.325 480 32.725 
L 480 95.125 
Q 480 97.525 482.4 97.525 
z
" style="fill: #ffffff; opacity: 0.8; stroke: #cccccc; stroke-linejoin: miter"/>
    </g>
    <g id="line2d_39">
     <path d="M 484.8 39.325 
L 496.8 39.325 
L 508.8 39.325 
" style="fill: none; stroke: #1f77b4; stroke-width: 1.2; stroke-linecap: square"/>
    </g>
    <g id="text_21">
     <!-- GCN-DDQN -->
     <g transform="translate(518.4 43.525) scale(0.12 -0.12)">
      <defs>
       <path id="SimHei-47" d="M 2850 75 
L 2425 75 
L 2350 425 
Q 2250 275 2037 175 
Q 1825 75 1575 75 
Q 1050 75 637 562 
Q 225 1050 225 2125 
Q 225 3300 600 3875 
Q 975 4450 1625 4450 
Q 2200 4450 2525 4025 
Q 2850 3600 2850 2925 
L 2300 2925 
Q 2300 3450 2125 3712 
Q 1950 3975 1625 3975 
Q 1225 3975 1025 3562 
Q 825 3150 825 2175 
Q 825 1250 1075 900 
Q 1325 550 1650 550 
Q 1975 550 2162 787 
Q 2350 1025 2350 1525 
L 2350 1800 
L 1575 1800 
L 1575 2275 
L 2850 2275 
L 2850 75 
z
" transform="scale(0.015625)"/>
       <path id="SimHei-4e" d="M 2850 125 
L 2225 125 
L 850 3225 
L 825 3225 
L 825 125 
L 250 125 
L 250 4400 
L 875 4400 
L 2250 1300 
L 2275 1300 
L 2275 4400 
L 2850 4400 
L 2850 125 
z
" transform="scale(0.015625)"/>
       <path id="SimHei-2d" d="M 2975 2125 
L 125 2125 
L 125 2525 
L 2975 2525 
L 2975 2125 
z
" transform="scale(0.015625)"/>
       <path id="SimHei-44" d="M 2925 2250 
Q 2925 1100 2437 612 
Q 1950 125 1125 125 
L 275 125 
L 275 4400 
L 1125 4400 
Q 2050 4400 2487 3900 
Q 2925 3400 2925 2250 
z
M 2325 2250 
Q 2325 3175 2025 3550 
Q 1725 3925 1125 3925 
L 850 3925 
L 850 600 
L 1125 600 
Q 1725 600 2025 962 
Q 2325 1325 2325 2250 
z
" transform="scale(0.015625)"/>
       <path id="SimHei-51" d="M 2950 2275 
Q 2950 1675 2862 1262 
Q 2775 850 2575 600 
L 2775 225 
L 2375 -200 
L 2150 225 
Q 2050 150 1900 112 
Q 1750 75 1575 75 
Q 925 75 550 587 
Q 175 1100 175 2275 
Q 175 3450 550 3950 
Q 925 4450 1575 4450 
Q 2225 4450 2587 3950 
Q 2950 3450 2950 2275 
z
M 2350 2275 
Q 2350 3325 2125 3650 
Q 1900 3975 1575 3975 
Q 1250 3975 1012 3650 
Q 775 3325 775 2275 
Q 775 1225 1012 887 
Q 1250 550 1575 550 
Q 1700 550 1800 587 
Q 1900 625 1950 675 
L 1550 1450 
L 1900 1875 
L 2250 1200 
Q 2300 1450 2325 1650 
Q 2350 1850 2350 2275 
z
" transform="scale(0.015625)"/>
      </defs>
      <use xlink:href="#SimHei-47"/>
      <use xlink:href="#SimHei-43" transform="translate(50 0)"/>
      <use xlink:href="#SimHei-4e" transform="translate(100 0)"/>
      <use xlink:href="#SimHei-2d" transform="translate(150 0)"/>
      <use xlink:href="#SimHei-44" transform="translate(200 0)"/>
      <use xlink:href="#SimHei-44" transform="translate(250 0)"/>
      <use xlink:href="#SimHei-51" transform="translate(300 0)"/>
      <use xlink:href="#SimHei-4e" transform="translate(350 0)"/>
     </g>
    </g>
    <g id="line2d_40">
     <path d="M 484.8 55.225 
L 496.8 55.225 
L 508.8 55.225 
" style="fill: none; stroke: #ff7f0e; stroke-width: 1.2; stroke-linecap: square"/>
    </g>
    <g id="text_22">
     <!-- GCN-D3QN -->
     <g transform="translate(518.4 59.425) scale(0.12 -0.12)">
      <use xlink:href="#SimHei-47"/>
      <use xlink:href="#SimHei-43" transform="translate(50 0)"/>
      <use xlink:href="#SimHei-4e" transform="translate(100 0)"/>
      <use xlink:href="#SimHei-2d" transform="translate(150 0)"/>
      <use xlink:href="#SimHei-44" transform="translate(200 0)"/>
      <use xlink:href="#SimHei-33" transform="translate(250 0)"/>
      <use xlink:href="#SimHei-51" transform="translate(300 0)"/>
      <use xlink:href="#SimHei-4e" transform="translate(350 0)"/>
     </g>
    </g>
    <g id="line2d_41">
     <path d="M 484.8 71.125 
L 496.8 71.125 
L 508.8 71.125 
" style="fill: none; stroke: #2ca02c; stroke-width: 1.2; stroke-linecap: square"/>
    </g>
    <g id="text_23">
     <!-- GAT-LSTM-DDQN -->
     <g transform="translate(518.4 75.325) scale(0.12 -0.12)">
      <defs>
       <path id="SimHei-41" d="M 3075 125 
L 2475 125 
L 2125 1450 
L 1025 1450 
L 675 125 
L 75 125 
L 1325 4450 
L 1825 4450 
L 3075 125 
z
M 2000 1925 
L 1600 3450 
L 1550 3450 
L 1150 1925 
L 2000 1925 
z
" transform="scale(0.015625)"/>
       <path id="SimHei-4c" d="M 2900 125 
L 300 125 
L 300 4400 
L 875 4400 
L 875 600 
L 2900 600 
L 2900 125 
z
" transform="scale(0.015625)"/>
       <path id="SimHei-53" d="M 2900 1325 
Q 2900 750 2537 412 
Q 2175 75 1550 75 
Q 925 75 575 425 
Q 225 775 225 1300 
L 225 1475 
L 800 1475 
L 800 1325 
Q 800 950 1025 750 
Q 1250 550 1550 550 
Q 1950 550 2137 762 
Q 2325 975 2325 1275 
Q 2325 1525 2100 1737 
Q 1875 1950 1450 2125 
Q 850 2350 587 2625 
Q 325 2900 325 3275 
Q 325 3800 687 4125 
Q 1050 4450 1550 4450 
Q 2200 4450 2487 4062 
Q 2775 3675 2775 3225 
L 2200 3225 
Q 2225 3500 2050 3725 
Q 1875 3950 1550 3950 
Q 1250 3950 1075 3787 
Q 900 3625 900 3350 
Q 900 3125 1037 2962 
Q 1175 2800 1750 2575 
Q 2300 2350 2600 2037 
Q 2900 1725 2900 1325 
z
" transform="scale(0.015625)"/>
       <path id="SimHei-4d" d="M 2925 125 
L 2425 125 
L 2425 3175 
L 2375 3175 
L 1775 125 
L 1375 125 
L 775 3175 
L 725 3175 
L 725 125 
L 225 125 
L 225 4400 
L 1000 4400 
L 1550 1575 
L 1600 1575 
L 2150 4400 
L 2925 4400 
L 2925 125 
z
" transform="scale(0.015625)"/>
      </defs>
      <use xlink:href="#SimHei-47"/>
      <use xlink:href="#SimHei-41" transform="translate(50 0)"/>
      <use xlink:href="#SimHei-54" transform="translate(100 0)"/>
      <use xlink:href="#SimHei-2d" transform="translate(150 0)"/>
      <use xlink:href="#SimHei-4c" transform="translate(200 0)"/>
      <use xlink:href="#SimHei-53" transform="translate(250 0)"/>
      <use xlink:href="#SimHei-54" transform="translate(300 0)"/>
      <use xlink:href="#SimHei-4d" transform="translate(350 0)"/>
      <use xlink:href="#SimHei-2d" transform="translate(400 0)"/>
      <use xlink:href="#SimHei-44" transform="translate(450 0)"/>
      <use xlink:href="#SimHei-44" transform="translate(500 0)"/>
      <use xlink:href="#SimHei-51" transform="translate(550 0)"/>
      <use xlink:href="#SimHei-4e" transform="translate(600 0)"/>
     </g>
    </g>
    <g id="line2d_42">
     <path d="M 484.8 87.025 
L 496.8 87.025 
L 508.8 87.025 
" style="fill: none; stroke: #9467bd; stroke-width: 1.2; stroke-linecap: square"/>
    </g>
    <g id="text_24">
     <!-- GLDVTO -->
     <g transform="translate(518.4 91.225) scale(0.12 -0.12)">
      <defs>
       <path id="SimHei-56" d="M 3050 4400 
L 1800 75 
L 1300 75 
L 50 4400 
L 650 4400 
L 1525 1125 
L 1575 1125 
L 2450 4400 
L 3050 4400 
z
" transform="scale(0.015625)"/>
       <path id="SimHei-4f" d="M 2950 2275 
Q 2950 1100 2587 587 
Q 2225 75 1575 75 
Q 925 75 550 587 
Q 175 1100 175 2275 
Q 175 3450 550 3950 
Q 925 4450 1575 4450 
Q 2225 4450 2587 3950 
Q 2950 3450 2950 2275 
z
M 2350 2275 
Q 2350 3325 2125 3650 
Q 1900 3975 1575 3975 
Q 1250 3975 1012 3650 
Q 775 3325 775 2275 
Q 775 1225 1012 887 
Q 1250 550 1575 550 
Q 1900 550 2125 887 
Q 2350 1225 2350 2275 
z
" transform="scale(0.015625)"/>
      </defs>
      <use xlink:href="#SimHei-47"/>
      <use xlink:href="#SimHei-4c" transform="translate(50 0)"/>
      <use xlink:href="#SimHei-44" transform="translate(100 0)"/>
      <use xlink:href="#SimHei-56" transform="translate(150 0)"/>
      <use xlink:href="#SimHei-54" transform="translate(200 0)"/>
      <use xlink:href="#SimHei-4f" transform="translate(250 0)"/>
     </g>
    </g>
   </g>
  </g>
 </g>
 <defs>
  <clipPath id="pa2e313979b">
   <rect x="49.2" y="24.325" width="558" height="332.64"/>
  </clipPath>
 </defs>
</svg>
