<?xml version="1.0" encoding="utf-8" standalone="no"?>
<!DOCTYPE svg PUBLIC "-//W3C//DTD SVG 1.1//EN"
  "http://www.w3.org/Graphics/SVG/1.1/DTD/svg11.dtd">
<svg xmlns:xlink="http://www.w3.org/1999/xlink" width="621.9pt" height="397.915pt" viewBox="0 0 621.9 397.915" xmlns="http://www.w3.org/2000/svg" version="1.1">
 <metadata>
  <rdf:RDF xmlns:dc="http://purl.org/dc/elements/1.1/" xmlns:cc="http://creativecommons.org/ns#" xmlns:rdf="http://www.w3.org/1999/02/22-rdf-syntax-ns#">
   <cc:Work>
    <dc:type rdf:resource="http://purl.org/dc/dcmitype/StillImage"/>
    <dc:date>2026-06-26T17:26:58.282262</dc:date>
    <dc:format>image/svg+xml</dc:format>
    <dc:creator>
     <cc:Agent>
      <dc:title>Matplotlib v3.10.7, https://matplotlib.org/</dc:title>
     </cc:Agent>
    </dc:creator>
   </cc:Work>
  </rdf:RDF>
 </metadata>
 <defs>
  <style type="text/css">*{stroke-linejoin: round; stroke-linecap: butt}</style>
 </defs>
 <g id="figure_1">
  <g id="patch_1">
   <path d="M 0 397.915 
L 621.9 397.915 
L 621.9 -0 
L 0 -0 
z
" style="fill: #ffffff"/>
  </g>
  <g id="axes_1">
   <g id="patch_2">
    <path d="M 56.7 356.965 
L 614.7 356.965 
L 614.7 24.325 
L 56.7 24.325 
z
" style="fill: #ffffff"/>
   </g>
   <g id="matplotlib.axis_1">
    <g id="xtick_1">
     <g id="line2d_1">
      <path d="M 82.063636 356.965 
L 82.063636 24.325 
" clip-path="url(#p4d4e5764c9)" style="fill: none; stroke: #b0b0b0; stroke-opacity: 0.3; stroke-width: 0.8; stroke-linecap: square"/>
     </g>
     <g id="line2d_2">
      <defs>
       <path id="mfbf72f1f9c" d="M 0 0 
L 0 3.5 
" style="stroke: #000000; stroke-width: 0.8"/>
      </defs>
      <g>
       <use xlink:href="#mfbf72f1f9c" x="82.063636" y="356.965" style="stroke: #000000; stroke-width: 0.8"/>
      </g>
     </g>
     <g id="text_1">
      <!-- 0 -->
      <g transform="translate(79.063636 372.215) scale(0.12 -0.12)">
       <defs>
        <path id="SimHei-30" d="M 225 2537 
Q 250 3200 412 3587 
Q 575 3975 875 4225 
Q 1175 4475 1612 4475 
Q 2050 4475 2375 4112 
Q 2700 3750 2800 3200 
Q 2900 2650 2862 1937 
Q 2825 1225 2612 775 
Q 2400 325 1975 150 
Q 1550 -25 1125 187 
Q 700 400 525 750 
Q 350 1100 275 1487 
Q 200 1875 225 2537 
z
M 750 2687 
Q 675 2000 800 1462 
Q 925 925 1212 700 
Q 1500 475 1800 612 
Q 2100 750 2237 1162 
Q 2375 1575 2375 2062 
Q 2375 2550 2337 2950 
Q 2300 3350 2112 3675 
Q 1925 4000 1612 4012 
Q 1300 4025 1062 3700 
Q 825 3375 750 2687 
z
" transform="scale(0.015625)"/>
       </defs>
       <use xlink:href="#SimHei-30"/>
      </g>
     </g>
    </g>
    <g id="xtick_2">
     <g id="line2d_3">
      <path d="M 145.631647 356.965 
L 145.631647 24.325 
" clip-path="url(#p4d4e5764c9)" style="fill: none; stroke: #b0b0b0; stroke-opacity: 0.3; stroke-width: 0.8; stroke-linecap: square"/>
     </g>
     <g id="line2d_4">
      <g>
       <use xlink:href="#mfbf72f1f9c" x="145.631647" y="356.965" style="stroke: #000000; stroke-width: 0.8"/>
      </g>
     </g>
     <g id="text_2">
      <!-- 50 -->
      <g transform="translate(139.631647 372.215) scale(0.12 -0.12)">
       <defs>
        <path id="SimHei-35" d="M 550 1325 
Q 725 650 1150 575 
Q 1575 500 1837 662 
Q 2100 825 2212 1087 
Q 2325 1350 2312 1675 
Q 2300 2000 2137 2225 
Q 1975 2450 1725 2525 
Q 1475 2600 1162 2525 
Q 850 2450 650 2175 
L 225 2225 
Q 275 2375 700 4375 
L 2675 4375 
L 2675 3925 
L 1075 3925 
Q 950 3250 825 2850 
Q 1200 3025 1525 3012 
Q 1850 3000 2150 2862 
Q 2450 2725 2587 2487 
Q 2725 2250 2787 2012 
Q 2850 1775 2837 1500 
Q 2825 1225 2725 937 
Q 2625 650 2425 462 
Q 2225 275 1937 162 
Q 1650 50 1275 75 
Q 900 100 562 350 
Q 225 600 100 1200 
L 550 1325 
z
" transform="scale(0.015625)"/>
       </defs>
       <use xlink:href="#SimHei-35"/>
       <use xlink:href="#SimHei-30" transform="translate(50 0)"/>
      </g>
     </g>
    </g>
    <g id="xtick_3">
     <g id="line2d_5">
      <path d="M 209.199658 356.965 
L 209.199658 24.325 
" clip-path="url(#p4d4e5764c9)" style="fill: none; stroke: #b0b0b0; stroke-opacity: 0.3; stroke-width: 0.8; stroke-linecap: square"/>
     </g>
     <g id="line2d_6">
      <g>
       <use xlink:href="#mfbf72f1f9c" x="209.199658" y="356.965" style="stroke: #000000; stroke-width: 0.8"/>
      </g>
     </g>
     <g id="text_3">
      <!-- 100 -->
      <g transform="translate(200.199658 372.215) scale(0.12 -0.12)">
       <defs>
        <path id="SimHei-31" d="M 1400 3600 
Q 1075 3275 575 2975 
L 575 3450 
Q 1200 3875 1600 4450 
L 1900 4450 
L 1900 150 
L 1400 150 
L 1400 3600 
z
" transform="scale(0.015625)"/>
       </defs>
       <use xlink:href="#SimHei-31"/>
       <use xlink:href="#SimHei-30" transform="translate(50 0)"/>
       <use xlink:href="#SimHei-30" transform="translate(100 0)"/>
      </g>
     </g>
    </g>
    <g id="xtick_4">
     <g id="line2d_7">
      <path d="M 272.767669 356.965 
L 272.767669 24.325 
" clip-path="url(#p4d4e5764c9)" style="fill: none; stroke: #b0b0b0; stroke-opacity: 0.3; stroke-width: 0.8; stroke-linecap: square"/>
     </g>
     <g id="line2d_8">
      <g>
       <use xlink:href="#mfbf72f1f9c" x="272.767669" y="356.965" style="stroke: #000000; stroke-width: 0.8"/>
      </g>
     </g>
     <g id="text_4">
      <!-- 150 -->
      <g transform="translate(263.767669 372.215) scale(0.12 -0.12)">
       <use xlink:href="#SimHei-31"/>
       <use xlink:href="#SimHei-35" transform="translate(50 0)"/>
       <use xlink:href="#SimHei-30" transform="translate(100 0)"/>
      </g>
     </g>
    </g>
    <g id="xtick_5">
     <g id="line2d_9">
      <path d="M 336.33568 356.965 
L 336.33568 24.325 
" clip-path="url(#p4d4e5764c9)" style="fill: none; stroke: #b0b0b0; stroke-opacity: 0.3; stroke-width: 0.8; stroke-linecap: square"/>
     </g>
     <g id="line2d_10">
      <g>
       <use xlink:href="#mfbf72f1f9c" x="336.33568" y="356.965" style="stroke: #000000; stroke-width: 0.8"/>
      </g>
     </g>
     <g id="text_5">
      <!-- 200 -->
      <g transform="translate(327.33568 372.215) scale(0.12 -0.12)">
       <defs>
        <path id="SimHei-32" d="M 300 250 
Q 325 625 650 925 
Q 975 1225 1475 1862 
Q 1975 2500 2125 2850 
Q 2275 3200 2237 3450 
Q 2200 3700 2000 3862 
Q 1800 4025 1537 4000 
Q 1275 3975 1037 3800 
Q 800 3625 675 3275 
L 200 3350 
Q 400 3925 712 4187 
Q 1025 4450 1450 4475 
Q 1700 4500 1900 4462 
Q 2100 4425 2312 4287 
Q 2525 4150 2662 3875 
Q 2800 3600 2762 3212 
Q 2725 2825 2375 2287 
Q 2025 1750 1025 600 
L 2825 600 
L 2825 150 
L 300 150 
L 300 250 
z
" transform="scale(0.015625)"/>
       </defs>
       <use xlink:href="#SimHei-32"/>
       <use xlink:href="#SimHei-30" transform="translate(50 0)"/>
       <use xlink:href="#SimHei-30" transform="translate(100 0)"/>
      </g>
     </g>
    </g>
    <g id="xtick_6">
     <g id="line2d_11">
      <path d="M 399.903691 356.965 
L 399.903691 24.325 
" clip-path="url(#p4d4e5764c9)" style="fill: none; stroke: #b0b0b0; stroke-opacity: 0.3; stroke-width: 0.8; stroke-linecap: square"/>
     </g>
     <g id="line2d_12">
      <g>
       <use xlink:href="#mfbf72f1f9c" x="399.903691" y="356.965" style="stroke: #000000; stroke-width: 0.8"/>
      </g>
     </g>
     <g id="text_6">
      <!-- 250 -->
      <g transform="translate(390.903691 372.215) scale(0.12 -0.12)">
       <use xlink:href="#SimHei-32"/>
       <use xlink:href="#SimHei-35" transform="translate(50 0)"/>
       <use xlink:href="#SimHei-30" transform="translate(100 0)"/>
      </g>
     </g>
    </g>
    <g id="xtick_7">
     <g id="line2d_13">
      <path d="M 463.471702 356.965 
L 463.471702 24.325 
" clip-path="url(#p4d4e5764c9)" style="fill: none; stroke: #b0b0b0; stroke-opacity: 0.3; stroke-width: 0.8; stroke-linecap: square"/>
     </g>
     <g id="line2d_14">
      <g>
       <use xlink:href="#mfbf72f1f9c" x="463.471702" y="356.965" style="stroke: #000000; stroke-width: 0.8"/>
      </g>
     </g>
     <g id="text_7">
      <!-- 300 -->
      <g transform="translate(454.471702 372.215) scale(0.12 -0.12)">
       <defs>
        <path id="SimHei-33" d="M 250 1225 
L 700 1300 
Q 800 975 1025 762 
Q 1250 550 1587 562 
Q 1925 575 2125 837 
Q 2325 1100 2300 1437 
Q 2275 1775 2037 1962 
Q 1800 2150 1275 2225 
L 1275 2550 
Q 1800 2600 2037 2825 
Q 2275 3050 2250 3412 
Q 2225 3775 1925 3937 
Q 1625 4100 1287 3975 
Q 950 3850 750 3275 
L 300 3350 
Q 450 3800 712 4100 
Q 975 4400 1425 4450 
Q 1875 4500 2212 4337 
Q 2550 4175 2687 3837 
Q 2825 3500 2725 3100 
Q 2625 2700 2150 2400 
Q 2500 2250 2687 1950 
Q 2875 1650 2812 1162 
Q 2750 675 2375 375 
Q 2000 75 1525 87 
Q 1050 100 700 387 
Q 350 675 250 1225 
z
" transform="scale(0.015625)"/>
       </defs>
       <use xlink:href="#SimHei-33"/>
       <use xlink:href="#SimHei-30" transform="translate(50 0)"/>
       <use xlink:href="#SimHei-30" transform="translate(100 0)"/>
      </g>
     </g>
    </g>
    <g id="xtick_8">
     <g id="line2d_15">
      <path d="M 527.039713 356.965 
L 527.039713 24.325 
" clip-path="url(#p4d4e5764c9)" style="fill: none; stroke: #b0b0b0; stroke-opacity: 0.3; stroke-width: 0.8; stroke-linecap: square"/>
     </g>
     <g id="line2d_16">
      <g>
       <use xlink:href="#mfbf72f1f9c" x="527.039713" y="356.965" style="stroke: #000000; stroke-width: 0.8"/>
      </g>
     </g>
     <g id="text_8">
      <!-- 350 -->
      <g transform="translate(518.039713 372.215) scale(0.12 -0.12)">
       <use xlink:href="#SimHei-33"/>
       <use xlink:href="#SimHei-35" transform="translate(50 0)"/>
       <use xlink:href="#SimHei-30" transform="translate(100 0)"/>
      </g>
     </g>
    </g>
    <g id="xtick_9">
     <g id="line2d_17">
      <path d="M 590.607724 356.965 
L 590.607724 24.325 
" clip-path="url(#p4d4e5764c9)" style="fill: none; stroke: #b0b0b0; stroke-opacity: 0.3; stroke-width: 0.8; stroke-linecap: square"/>
     </g>
     <g id="line2d_18">
      <g>
       <use xlink:href="#mfbf72f1f9c" x="590.607724" y="356.965" style="stroke: #000000; stroke-width: 0.8"/>
      </g>
     </g>
     <g id="text_9">
      <!-- 400 -->
      <g transform="translate(581.607724 372.215) scale(0.12 -0.12)">
       <defs>
        <path id="SimHei-34" d="M 2000 1100 
L 75 1100 
L 75 1525 
L 2100 4450 
L 2475 4450 
L 2475 1525 
L 3075 1525 
L 3075 1100 
L 2475 1100 
L 2475 150 
L 2000 150 
L 2000 1100 
z
M 2000 1525 
L 2000 3500 
L 600 1525 
L 2000 1525 
z
" transform="scale(0.015625)"/>
       </defs>
       <use xlink:href="#SimHei-34"/>
       <use xlink:href="#SimHei-30" transform="translate(50 0)"/>
       <use xlink:href="#SimHei-30" transform="translate(100 0)"/>
      </g>
     </g>
    </g>
    <g id="text_10">
     <!-- Episode -->
     <g transform="translate(307.7 388.715) scale(0.16 -0.16)">
      <defs>
       <path id="SimHei-45" d="M 2900 125 
L 350 125 
L 350 4400 
L 2775 4400 
L 2775 3925 
L 925 3925 
L 925 2600 
L 2625 2600 
L 2625 2125 
L 925 2125 
L 925 600 
L 2900 600 
L 2900 125 
z
" transform="scale(0.015625)"/>
       <path id="SimHei-70" d="M 2825 1525 
Q 2825 800 2475 425 
Q 2125 50 1625 50 
Q 1350 50 1150 162 
Q 950 275 800 500 
L 800 -800 
L 300 -800 
L 300 2925 
L 800 2925 
L 800 2550 
Q 950 2775 1150 2875 
Q 1350 2975 1625 2975 
Q 2125 2975 2475 2612 
Q 2825 2250 2825 1525 
z
M 2275 1525 
Q 2275 2000 2087 2262 
Q 1900 2525 1525 2525 
Q 1225 2525 1012 2262 
Q 800 2000 800 1525 
Q 800 1050 1012 775 
Q 1225 500 1525 500 
Q 1900 500 2087 775 
Q 2275 1050 2275 1525 
z
" transform="scale(0.015625)"/>
       <path id="SimHei-69" d="M 1800 3725 
L 1300 3725 
L 1300 4375 
L 1800 4375 
L 1800 3725 
z
M 1800 125 
L 1300 125 
L 1300 2925 
L 1800 2925 
L 1800 125 
z
" transform="scale(0.015625)"/>
       <path id="SimHei-73" d="M 2750 900 
Q 2750 500 2437 287 
Q 2125 75 1650 75 
Q 1050 75 725 312 
Q 400 550 400 1000 
L 900 1000 
Q 900 700 1112 600 
Q 1325 500 1625 500 
Q 1925 500 2075 612 
Q 2225 725 2225 900 
Q 2225 1025 2100 1150 
Q 1975 1275 1475 1350 
Q 900 1425 687 1637 
Q 475 1850 475 2200 
Q 475 2500 762 2737 
Q 1050 2975 1600 2975 
Q 2100 2975 2387 2750 
Q 2675 2525 2675 2150 
L 2175 2150 
Q 2175 2375 2012 2462 
Q 1850 2550 1600 2550 
Q 1275 2550 1137 2437 
Q 1000 2325 1000 2175 
Q 1000 2000 1125 1900 
Q 1250 1800 1650 1750 
Q 2300 1650 2525 1437 
Q 2750 1225 2750 900 
z
" transform="scale(0.015625)"/>
       <path id="SimHei-6f" d="M 2925 1525 
Q 2925 875 2525 475 
Q 2125 75 1575 75 
Q 1025 75 625 475 
Q 225 875 225 1525 
Q 225 2175 625 2575 
Q 1025 2975 1575 2975 
Q 2125 2975 2525 2575 
Q 2925 2175 2925 1525 
z
M 2375 1525 
Q 2375 2025 2125 2275 
Q 1875 2525 1575 2525 
Q 1275 2525 1025 2275 
Q 775 2025 775 1525 
Q 775 1025 1025 775 
Q 1275 525 1575 525 
Q 1875 525 2125 775 
Q 2375 1025 2375 1525 
z
" transform="scale(0.015625)"/>
       <path id="SimHei-64" d="M 2750 125 
L 2250 125 
L 2250 500 
Q 2100 275 1900 175 
Q 1700 75 1425 75 
Q 925 75 575 437 
Q 225 800 225 1525 
Q 225 2250 575 2625 
Q 925 3000 1425 3000 
Q 1700 3000 1900 2887 
Q 2100 2775 2250 2550 
L 2250 4400 
L 2750 4400 
L 2750 125 
z
M 2250 1525 
Q 2250 2000 2037 2275 
Q 1825 2550 1525 2550 
Q 1150 2550 962 2275 
Q 775 2000 775 1525 
Q 775 1050 962 787 
Q 1150 525 1525 525 
Q 1825 525 2037 787 
Q 2250 1050 2250 1525 
z
" transform="scale(0.015625)"/>
       <path id="SimHei-65" d="M 2850 1075 
Q 2800 625 2450 350 
Q 2100 75 1625 75 
Q 1025 75 637 462 
Q 250 850 250 1525 
Q 250 2200 637 2587 
Q 1025 2975 1625 2975 
Q 2150 2975 2487 2637 
Q 2825 2300 2825 1525 
L 800 1525 
Q 800 975 1037 750 
Q 1275 525 1625 525 
Q 1900 525 2075 662 
Q 2250 800 2300 1075 
L 2850 1075 
z
M 2250 1925 
Q 2200 2275 2025 2412 
Q 1850 2550 1575 2550 
Q 1325 2550 1125 2412 
Q 925 2275 825 1925 
L 2250 1925 
z
" transform="scale(0.015625)"/>
      </defs>
      <use xlink:href="#SimHei-45"/>
      <use xlink:href="#SimHei-70" transform="translate(50 0)"/>
      <use xlink:href="#SimHei-69" transform="translate(100 0)"/>
      <use xlink:href="#SimHei-73" transform="translate(150 0)"/>
      <use xlink:href="#SimHei-6f" transform="translate(200 0)"/>
      <use xlink:href="#SimHei-64" transform="translate(250 0)"/>
      <use xlink:href="#SimHei-65" transform="translate(300 0)"/>
     </g>
    </g>
   </g>
   <g id="matplotlib.axis_2">
    <g id="ytick_1">
     <g id="line2d_19">
      <path d="M 56.7 338.871802 
L 614.7 338.871802 
" clip-path="url(#p4d4e5764c9)" style="fill: none; stroke: #b0b0b0; stroke-opacity: 0.3; stroke-width: 0.8; stroke-linecap: square"/>
     </g>
     <g id="line2d_20">
      <defs>
       <path id="m150e99884b" d="M 0 0 
L -3.5 0 
" style="stroke: #000000; stroke-width: 0.8"/>
      </defs>
      <g>
       <use xlink:href="#m150e99884b" x="56.7" y="338.871802" style="stroke: #000000; stroke-width: 0.8"/>
      </g>
     </g>
     <g id="text_11">
      <!-- 0.05 -->
      <g transform="translate(25.7 342.996802) scale(0.12 -0.12)">
       <defs>
        <path id="SimHei-2e" d="M 1075 125 
L 500 125 
L 500 675 
L 1075 675 
L 1075 125 
z
" transform="scale(0.015625)"/>
       </defs>
       <use xlink:href="#SimHei-30"/>
       <use xlink:href="#SimHei-2e" transform="translate(50 0)"/>
       <use xlink:href="#SimHei-30" transform="translate(100 0)"/>
       <use xlink:href="#SimHei-35" transform="translate(150 0)"/>
      </g>
     </g>
    </g>
    <g id="ytick_2">
     <g id="line2d_21">
      <path d="M 56.7 290.577703 
L 614.7 290.577703 
" clip-path="url(#p4d4e5764c9)" style="fill: none; stroke: #b0b0b0; stroke-opacity: 0.3; stroke-width: 0.8; stroke-linecap: square"/>
     </g>
     <g id="line2d_22">
      <g>
       <use xlink:href="#m150e99884b" x="56.7" y="290.577703" style="stroke: #000000; stroke-width: 0.8"/>
      </g>
     </g>
     <g id="text_12">
      <!-- 0.10 -->
      <g transform="translate(25.7 294.702703) scale(0.12 -0.12)">
       <use xlink:href="#SimHei-30"/>
       <use xlink:href="#SimHei-2e" transform="translate(50 0)"/>
       <use xlink:href="#SimHei-31" transform="translate(100 0)"/>
       <use xlink:href="#SimHei-30" transform="translate(150 0)"/>
      </g>
     </g>
    </g>
    <g id="ytick_3">
     <g id="line2d_23">
      <path d="M 56.7 242.283604 
L 614.7 242.283604 
" clip-path="url(#p4d4e5764c9)" style="fill: none; stroke: #b0b0b0; stroke-opacity: 0.3; stroke-width: 0.8; stroke-linecap: square"/>
     </g>
     <g id="line2d_24">
      <g>
       <use xlink:href="#m150e99884b" x="56.7" y="242.283604" style="stroke: #000000; stroke-width: 0.8"/>
      </g>
     </g>
     <g id="text_13">
      <!-- 0.15 -->
      <g transform="translate(25.7 246.408604) scale(0.12 -0.12)">
       <use xlink:href="#SimHei-30"/>
       <use xlink:href="#SimHei-2e" transform="translate(50 0)"/>
       <use xlink:href="#SimHei-31" transform="translate(100 0)"/>
       <use xlink:href="#SimHei-35" transform="translate(150 0)"/>
      </g>
     </g>
    </g>
    <g id="ytick_4">
     <g id="line2d_25">
      <path d="M 56.7 193.989505 
L 614.7 193.989505 
" clip-path="url(#p4d4e5764c9)" style="fill: none; stroke: #b0b0b0; stroke-opacity: 0.3; stroke-width: 0.8; stroke-linecap: square"/>
     </g>
     <g id="line2d_26">
      <g>
       <use xlink:href="#m150e99884b" x="56.7" y="193.989505" style="stroke: #000000; stroke-width: 0.8"/>
      </g>
     </g>
     <g id="text_14">
      <!-- 0.20 -->
      <g transform="translate(25.7 198.114505) scale(0.12 -0.12)">
       <use xlink:href="#SimHei-30"/>
       <use xlink:href="#SimHei-2e" transform="translate(50 0)"/>
       <use xlink:href="#SimHei-32" transform="translate(100 0)"/>
       <use xlink:href="#SimHei-30" transform="translate(150 0)"/>
      </g>
     </g>
    </g>
    <g id="ytick_5">
     <g id="line2d_27">
      <path d="M 56.7 145.695407 
L 614.7 145.695407 
" clip-path="url(#p4d4e5764c9)" style="fill: none; stroke: #b0b0b0; stroke-opacity: 0.3; stroke-width: 0.8; stroke-linecap: square"/>
     </g>
     <g id="line2d_28">
      <g>
       <use xlink:href="#m150e99884b" x="56.7" y="145.695407" style="stroke: #000000; stroke-width: 0.8"/>
      </g>
     </g>
     <g id="text_15">
      <!-- 0.25 -->
      <g transform="translate(25.7 149.820407) scale(0.12 -0.12)">
       <use xlink:href="#SimHei-30"/>
       <use xlink:href="#SimHei-2e" transform="translate(50 0)"/>
       <use xlink:href="#SimHei-32" transform="translate(100 0)"/>
       <use xlink:href="#SimHei-35" transform="translate(150 0)"/>
      </g>
     </g>
    </g>
    <g id="ytick_6">
     <g id="line2d_29">
      <path d="M 56.7 97.401308 
L 614.7 97.401308 
" clip-path="url(#p4d4e5764c9)" style="fill: none; stroke: #b0b0b0; stroke-opacity: 0.3; stroke-width: 0.8; stroke-linecap: square"/>
     </g>
     <g id="line2d_30">
      <g>
       <use xlink:href="#m150e99884b" x="56.7" y="97.401308" style="stroke: #000000; stroke-width: 0.8"/>
      </g>
     </g>
     <g id="text_16">
      <!-- 0.30 -->
      <g transform="translate(25.7 101.526308) scale(0.12 -0.12)">
       <use xlink:href="#SimHei-30"/>
       <use xlink:href="#SimHei-2e" transform="translate(50 0)"/>
       <use xlink:href="#SimHei-33" transform="translate(100 0)"/>
       <use xlink:href="#SimHei-30" transform="translate(150 0)"/>
      </g>
     </g>
    </g>
    <g id="ytick_7">
     <g id="line2d_31">
      <path d="M 56.7 49.107209 
L 614.7 49.107209 
" clip-path="url(#p4d4e5764c9)" style="fill: none; stroke: #b0b0b0; stroke-opacity: 0.3; stroke-width: 0.8; stroke-linecap: square"/>
     </g>
     <g id="line2d_32">
      <g>
       <use xlink:href="#m150e99884b" x="56.7" y="49.107209" style="stroke: #000000; stroke-width: 0.8"/>
      </g>
     </g>
     <g id="text_17">
      <!-- 0.35 -->
      <g transform="translate(25.7 53.232209) scale(0.12 -0.12)">
       <use xlink:href="#SimHei-30"/>
       <use xlink:href="#SimHei-2e" transform="translate(50 0)"/>
       <use xlink:href="#SimHei-33" transform="translate(100 0)"/>
       <use xlink:href="#SimHei-35" transform="translate(150 0)"/>
      </g>
     </g>
    </g>
    <g id="text_18">
     <!-- Delay (s) -->
     <g transform="translate(19.7 226.645) rotate(-90) scale(0.16 -0.16)">
      <defs>
       <path id="SimHei-44" d="M 2925 2250 
Q 2925 1100 2437 612 
Q 1950 125 1125 125 
L 275 125 
L 275 4400 
L 1125 4400 
Q 2050 4400 2487 3900 
Q 2925 3400 2925 2250 
z
M 2325 2250 
Q 2325 3175 2025 3550 
Q 1725 3925 1125 3925 
L 850 3925 
L 850 600 
L 1125 600 
Q 1725 600 2025 962 
Q 2325 1325 2325 2250 
z
" transform="scale(0.015625)"/>
       <path id="SimHei-6c" d="M 1825 125 
L 1325 125 
L 1325 4400 
L 1825 4400 
L 1825 125 
z
" transform="scale(0.015625)"/>
       <path id="SimHei-61" d="M 2875 125 
L 2275 125 
Q 2225 175 2200 262 
Q 2175 350 2175 475 
Q 2000 275 1750 175 
Q 1500 75 1225 75 
Q 825 75 550 275 
Q 275 475 275 850 
Q 275 1225 525 1450 
Q 775 1675 1300 1750 
Q 1650 1800 1912 1875 
Q 2175 1950 2175 2075 
Q 2175 2225 2062 2375 
Q 1950 2525 1575 2525 
Q 1275 2525 1137 2412 
Q 1000 2300 950 2100 
L 400 2100 
Q 450 2500 762 2737 
Q 1075 2975 1575 2975 
Q 2125 2975 2400 2725 
Q 2675 2475 2675 2025 
L 2675 650 
Q 2675 500 2725 375 
Q 2775 250 2875 125 
z
M 2175 1050 
L 2175 1550 
Q 2025 1500 1887 1462 
Q 1750 1425 1425 1375 
Q 1050 1325 937 1200 
Q 825 1075 825 900 
Q 825 750 937 637 
Q 1050 525 1275 525 
Q 1500 525 1762 650 
Q 2025 775 2175 1050 
z
" transform="scale(0.015625)"/>
       <path id="SimHei-79" d="M 2900 2925 
L 1750 -100 
Q 1650 -450 1450 -625 
Q 1250 -800 950 -800 
Q 825 -800 712 -787 
Q 600 -775 500 -725 
L 500 -225 
Q 600 -275 700 -300 
Q 800 -325 875 -325 
Q 1075 -325 1150 -262 
Q 1225 -200 1300 25 
L 200 2925 
L 750 2925 
L 1550 725 
L 1575 725 
L 2350 2925 
L 2900 2925 
z
" transform="scale(0.015625)"/>
       <path id="SimHei-20" transform="scale(0.015625)"/>
       <path id="SimHei-28" d="M 2975 -200 
L 2700 -475 
Q 2075 125 1762 775 
Q 1450 1425 1450 2250 
Q 1450 3075 1762 3725 
Q 2075 4375 2700 5000 
L 2975 4725 
Q 2400 4175 2112 3587 
Q 1825 3000 1825 2250 
Q 1825 1500 2112 912 
Q 2400 325 2975 -200 
z
" transform="scale(0.015625)"/>
       <path id="SimHei-29" d="M 1675 2250 
Q 1675 1425 1362 775 
Q 1050 125 425 -475 
L 150 -200 
Q 725 325 1012 912 
Q 1300 1500 1300 2250 
Q 1300 3000 1012 3587 
Q 725 4175 150 4725 
L 425 5000 
Q 1050 4375 1362 3725 
Q 1675 3075 1675 2250 
z
" transform="scale(0.015625)"/>
      </defs>
      <use xlink:href="#SimHei-44"/>
      <use xlink:href="#SimHei-65" transform="translate(50 0)"/>
      <use xlink:href="#SimHei-6c" transform="translate(100 0)"/>
      <use xlink:href="#SimHei-61" transform="translate(150 0)"/>
      <use xlink:href="#SimHei-79" transform="translate(200 0)"/>
      <use xlink:href="#SimHei-20" transform="translate(250 0)"/>
      <use xlink:href="#SimHei-28" transform="translate(300 0)"/>
      <use xlink:href="#SimHei-73" transform="translate(350 0)"/>
      <use xlink:href="#SimHei-29" transform="translate(400 0)"/>
     </g>
    </g>
   </g>
   <g id="line2d_33">
    <path d="M 82.063636 151.519558 
L 83.334997 150.885454 
L 85.877717 146.045795 
L 87.149077 145.287447 
L 88.420437 140.926667 
L 89.691798 142.216235 
L 90.963158 140.710642 
L 92.234518 140.28059 
L 93.505878 139.29351 
L 94.777239 138.939706 
L 96.048599 138.356441 
L 97.319959 133.317066 
L 98.591319 132.16605 
L 99.862679 130.117132 
L 101.13404 131.127129 
L 102.4054 135.767838 
L 103.67676 134.528503 
L 104.94812 134.054449 
L 106.219481 136.30479 
L 107.490841 135.198062 
L 108.762201 134.479699 
L 110.033561 131.58208 
L 111.304921 129.368295 
L 112.576282 129.106557 
L 113.847642 127.232669 
L 115.119002 128.88016 
L 116.390362 127.021557 
L 118.933083 129.309984 
L 120.204443 129.790557 
L 121.475803 127.800884 
L 122.747163 124.720612 
L 124.018524 120.324671 
L 127.832604 178.025074 
L 129.103964 193.566168 
L 130.375325 207.30689 
L 132.918045 231.485562 
L 135.460766 250.992317 
L 136.732126 259.398055 
L 138.003486 266.702367 
L 140.546206 279.514046 
L 141.817567 284.371188 
L 143.088927 290.123849 
L 144.360287 294.982888 
L 145.631647 298.38501 
L 146.903008 302.624905 
L 148.174368 306.333589 
L 149.445728 308.703091 
L 150.717088 312.051853 
L 151.988448 314.760209 
L 153.259809 316.699496 
L 154.531169 318.117817 
L 155.802529 320.476409 
L 157.073889 322.499196 
L 158.345249 324.182373 
L 159.61661 326.674665 
L 160.88797 327.808 
L 162.15933 328.518113 
L 163.43069 328.324064 
L 165.973411 330.116599 
L 167.244771 331.668043 
L 168.516131 331.633942 
L 171.058852 333.882697 
L 172.330212 334.286234 
L 173.601572 335.045211 
L 174.872932 335.091038 
L 176.144293 335.930842 
L 177.415653 336.438996 
L 178.687013 337.254468 
L 179.958373 337.376907 
L 181.229733 337.360665 
L 182.501094 336.587306 
L 183.772454 337.088468 
L 185.043814 336.192116 
L 186.315174 336.187972 
L 187.586535 336.542726 
L 188.857895 334.746995 
L 190.129255 335.482409 
L 191.400615 335.921042 
L 192.671975 335.443993 
L 193.943336 335.958897 
L 195.214696 335.32968 
L 196.486056 335.79152 
L 197.757416 335.961866 
L 199.028776 336.894976 
L 204.114217 336.226258 
L 205.385578 336.533659 
L 206.656938 336.39966 
L 207.928298 336.78182 
L 210.471018 337.872582 
L 211.742379 337.614157 
L 213.013739 337.859664 
L 214.285099 337.331958 
L 215.556459 337.134623 
L 216.82782 337.126635 
L 218.09918 336.832082 
L 219.37054 337.054892 
L 220.6419 337.632634 
L 221.91326 337.573632 
L 223.184621 337.94316 
L 224.455981 337.448972 
L 225.727341 337.312387 
L 226.998701 337.438115 
L 228.270062 336.52439 
L 229.541422 334.858583 
L 232.084142 336.014419 
L 233.355502 336.26914 
L 234.626863 336.319466 
L 235.898223 337.088483 
L 237.169583 337.720743 
L 238.440943 338.015617 
L 239.712303 339.13844 
L 240.983664 338.435415 
L 242.255024 338.383839 
L 243.526384 338.689546 
L 244.797744 338.401653 
L 246.069105 339.028784 
L 247.340465 339.406746 
L 248.611825 338.737725 
L 249.883185 338.675001 
L 251.154545 339.181847 
L 252.425906 338.070086 
L 253.697266 337.838836 
L 254.968626 338.356833 
L 256.239986 338.449302 
L 257.511347 336.458095 
L 258.782707 336.607239 
L 260.054067 337.050557 
L 261.325427 337.635834 
L 262.596787 336.555869 
L 263.868148 337.40028 
L 265.139508 337.61654 
L 266.410868 336.968512 
L 267.682228 336.892377 
L 268.953589 337.256927 
L 270.224949 337.249934 
L 271.496309 336.809139 
L 274.039029 335.500455 
L 275.31039 336.379868 
L 276.58175 336.533999 
L 277.85311 336.515527 
L 279.12447 336.67971 
L 281.667191 337.369402 
L 282.938551 335.9566 
L 284.209911 336.322003 
L 285.481271 336.381983 
L 286.752632 336.562859 
L 288.023992 337.829187 
L 289.295352 337.797486 
L 290.566712 337.403754 
L 291.838072 336.084616 
L 293.109433 335.482308 
L 294.380793 336.357816 
L 295.652153 335.178191 
L 296.923513 335.117139 
L 299.466234 335.911076 
L 300.737594 336.719349 
L 302.008954 336.109385 
L 303.280314 336.720238 
L 304.551675 336.879293 
L 305.823035 336.716552 
L 307.094395 336.123505 
L 308.365755 336.026236 
L 309.637116 336.324017 
L 310.908476 336.403489 
L 313.451196 337.240504 
L 314.722556 336.354479 
L 315.993917 336.378535 
L 317.265277 335.59368 
L 318.536637 335.722118 
L 319.807997 335.307095 
L 322.350718 336.950403 
L 323.622078 336.766838 
L 326.164798 337.482852 
L 327.436159 337.30921 
L 328.707519 337.664791 
L 329.978879 337.861178 
L 331.250239 338.460415 
L 332.521599 337.43819 
L 333.79296 337.479224 
L 335.06432 336.734389 
L 336.33568 337.011345 
L 337.60704 337.73633 
L 338.878401 337.79633 
L 340.149761 338.82507 
L 341.421121 338.729764 
L 342.692481 338.323016 
L 343.963841 338.900243 
L 345.235202 339.125717 
L 346.506562 338.931698 
L 347.777922 339.268812 
L 349.049282 339.435381 
L 350.320643 338.430537 
L 351.592003 338.802995 
L 352.863363 339.367809 
L 354.134723 339.539027 
L 355.406083 339.842493 
L 357.948804 340.278203 
L 359.220164 339.137033 
L 361.762884 338.834255 
L 363.034245 338.841684 
L 364.305605 339.328655 
L 365.576965 338.927964 
L 368.119686 339.467849 
L 369.391046 339.392876 
L 370.662406 339.550282 
L 371.933766 339.92462 
L 373.205126 339.64747 
L 374.476487 340.014819 
L 375.747847 340.065466 
L 377.019207 339.936386 
L 378.290567 338.949713 
L 382.104648 339.005588 
L 383.376008 338.623854 
L 384.647368 338.614289 
L 385.918729 338.093427 
L 387.190089 338.166333 
L 388.461449 337.157921 
L 389.732809 337.426908 
L 391.00417 337.829798 
L 392.27553 338.001748 
L 393.54689 338.938596 
L 394.81825 338.700692 
L 396.08961 339.42703 
L 397.360971 339.94077 
L 398.632331 340.331282 
L 399.903691 340.2375 
L 401.175051 339.969506 
L 403.717772 338.750722 
L 404.989132 338.473842 
L 407.531852 338.709778 
L 408.803213 337.639399 
L 410.074573 336.810204 
L 411.345933 337.161656 
L 412.617293 336.599716 
L 413.888653 336.973383 
L 415.160014 337.689711 
L 416.431374 337.516764 
L 417.702734 337.572493 
L 418.974094 337.853968 
L 420.245455 337.462312 
L 421.516815 336.814772 
L 422.788175 337.022377 
L 424.059535 336.712158 
L 425.330895 336.774865 
L 426.602256 336.491876 
L 427.873616 337.001542 
L 430.416336 337.499899 
L 431.687697 337.221821 
L 432.959057 337.412029 
L 435.501777 338.553723 
L 438.044498 337.246705 
L 439.315858 337.469765 
L 440.587218 337.870049 
L 441.858578 337.874683 
L 443.129938 337.653703 
L 444.401299 338.253536 
L 445.672659 338.110469 
L 446.944019 337.413099 
L 448.215379 337.105573 
L 449.48674 337.420253 
L 450.7581 336.975482 
L 452.02946 337.527159 
L 453.30082 336.06146 
L 454.57218 335.31112 
L 457.114901 335.564394 
L 458.386261 336.743179 
L 460.928982 336.8578 
L 462.200342 337.481921 
L 463.471702 337.823485 
L 464.743062 337.970496 
L 466.014422 338.471147 
L 467.285783 338.715296 
L 469.828503 338.391753 
L 471.099863 338.059603 
L 472.371224 337.397601 
L 473.642584 337.571264 
L 474.913944 338.02797 
L 476.185304 338.059896 
L 477.456664 338.235634 
L 478.728025 337.50757 
L 479.999385 337.847662 
L 481.270745 336.977448 
L 482.542105 337.389093 
L 483.813465 336.549239 
L 485.084826 336.817301 
L 486.356186 337.693885 
L 487.627546 337.322299 
L 493.984347 338.240107 
L 495.255707 336.51313 
L 496.527068 337.421838 
L 497.798428 337.292538 
L 499.069788 337.679002 
L 500.341148 336.958694 
L 501.612509 337.706698 
L 502.883869 337.597135 
L 504.155229 337.814273 
L 505.426589 337.397945 
L 510.51203 337.496799 
L 511.78339 336.875202 
L 513.054751 337.9783 
L 514.326111 338.35848 
L 516.868831 337.312622 
L 518.140191 336.936021 
L 520.682912 337.142357 
L 521.954272 337.148917 
L 523.225632 336.968236 
L 524.496992 337.724053 
L 525.768353 338.02357 
L 527.039713 338.057901 
L 528.311073 338.273972 
L 529.582433 337.732702 
L 530.853794 337.607537 
L 533.396514 338.32332 
L 534.667874 338.033364 
L 535.939234 337.596297 
L 537.210595 337.524101 
L 539.753315 338.186199 
L 541.024675 337.803869 
L 542.296036 337.808872 
L 543.567396 337.960908 
L 544.838756 338.532942 
L 546.110116 338.094854 
L 547.381476 338.918018 
L 548.652837 338.317494 
L 549.924197 338.244261 
L 551.195557 338.454915 
L 552.466917 337.416114 
L 553.738278 337.446915 
L 556.280998 338.591864 
L 557.552358 338.571984 
L 558.823718 339.386569 
L 561.366439 337.730068 
L 562.637799 337.52992 
L 563.909159 336.027272 
L 565.180519 336.9235 
L 566.45188 337.282635 
L 570.26596 337.51892 
L 571.537321 337.876811 
L 572.808681 338.455809 
L 574.080041 338.021994 
L 575.351401 338.068894 
L 576.622761 338.620257 
L 577.894122 338.703641 
L 579.165482 339.043783 
L 580.436842 339.012605 
L 581.708202 339.138983 
L 582.979563 339.48748 
L 584.250923 339.170001 
L 585.522283 339.591353 
L 586.793643 339.65764 
L 588.065003 338.890798 
L 589.336364 339.895362 
L 589.336364 339.895362 
" clip-path="url(#p4d4e5764c9)" style="fill: none; stroke: #1f77b4; stroke-width: 1.2; stroke-linecap: square"/>
   </g>
   <g id="line2d_34">
    <path d="M 82.063636 174.69871 
L 83.334997 169.463905 
L 84.606357 162.039055 
L 85.877717 158.762043 
L 88.420437 146.838831 
L 89.691798 145.658973 
L 90.963158 143.626475 
L 92.234518 139.279126 
L 93.505878 136.263963 
L 94.777239 135.040637 
L 96.048599 132.471017 
L 97.319959 132.144184 
L 98.591319 129.64338 
L 99.862679 126.783298 
L 101.13404 125.889816 
L 102.4054 127.05038 
L 103.67676 127.070063 
L 104.94812 127.97728 
L 106.219481 127.405087 
L 107.490841 124.717443 
L 108.762201 125.118327 
L 110.033561 127.813785 
L 112.576282 126.033229 
L 113.847642 126.826099 
L 115.119002 127.967586 
L 116.390362 130.500925 
L 117.661722 128.361566 
L 118.933083 123.09954 
L 120.204443 123.70478 
L 121.475803 124.62035 
L 124.018524 126.004788 
L 125.289884 125.810977 
L 126.561244 124.675619 
L 127.832604 124.520583 
L 129.103964 124.629069 
L 130.375325 122.967535 
L 131.646685 125.633288 
L 132.918045 125.672627 
L 134.189405 121.25591 
L 135.460766 120.468102 
L 136.732126 117.875636 
L 138.003486 119.393883 
L 139.274846 118.457146 
L 140.546206 115.245676 
L 143.088927 156.598648 
L 144.360287 174.992686 
L 145.631647 191.528564 
L 148.174368 218.999086 
L 150.717088 241.438673 
L 151.988448 251.738998 
L 155.802529 274.87461 
L 157.073889 281.652172 
L 158.345249 286.730214 
L 159.61661 292.333054 
L 160.88797 297.192119 
L 162.15933 301.410064 
L 164.702051 307.264874 
L 165.973411 310.971832 
L 167.244771 313.976487 
L 168.516131 315.839307 
L 171.058852 320.616341 
L 172.330212 321.578602 
L 173.601572 323.631611 
L 174.872932 324.700897 
L 176.144293 326.438271 
L 177.415653 327.873632 
L 178.687013 329.555358 
L 181.229733 331.012428 
L 182.501094 330.899796 
L 183.772454 332.584271 
L 185.043814 332.858245 
L 186.315174 333.329381 
L 187.586535 334.025275 
L 188.857895 334.346498 
L 190.129255 334.450087 
L 193.943336 335.638182 
L 195.214696 336.391803 
L 196.486056 336.766067 
L 197.757416 336.294416 
L 199.028776 337.268874 
L 200.300137 335.841887 
L 201.571497 335.719766 
L 202.842857 335.315887 
L 204.114217 335.622694 
L 205.385578 336.054627 
L 206.656938 336.866071 
L 207.928298 337.375997 
L 209.199658 337.318723 
L 210.471018 337.100358 
L 211.742379 337.161798 
L 213.013739 336.661146 
L 214.285099 335.879051 
L 215.556459 333.80091 
L 216.82782 333.520113 
L 219.37054 335.218344 
L 220.6419 335.586643 
L 223.184621 336.815099 
L 224.455981 336.943532 
L 225.727341 336.852907 
L 226.998701 337.1261 
L 228.270062 336.412147 
L 229.541422 335.338459 
L 230.812782 335.408406 
L 232.084142 336.593484 
L 233.355502 336.825697 
L 234.626863 338.364785 
L 235.898223 336.952263 
L 237.169583 337.618392 
L 238.440943 337.944547 
L 239.712303 337.379405 
L 240.983664 337.865712 
L 242.255024 338.217631 
L 243.526384 339.281572 
L 244.797744 339.287642 
L 246.069105 339.603601 
L 247.340465 340.057356 
L 248.611825 339.859859 
L 249.883185 339.327346 
L 252.425906 339.728179 
L 253.697266 339.715316 
L 254.968626 340.101325 
L 256.239986 340.10305 
L 257.511347 340.227458 
L 258.782707 339.852762 
L 260.054067 340.614976 
L 261.325427 340.635314 
L 262.596787 339.132569 
L 263.868148 339.766585 
L 265.139508 339.909116 
L 266.410868 339.795807 
L 267.682228 338.191565 
L 268.953589 337.534199 
L 270.224949 337.284579 
L 271.496309 337.376164 
L 272.767669 337.774415 
L 275.31039 337.316327 
L 276.58175 337.814494 
L 279.12447 337.749299 
L 280.39583 339.119539 
L 281.667191 338.266737 
L 282.938551 337.943776 
L 284.209911 337.411912 
L 285.481271 337.629482 
L 286.752632 338.468416 
L 290.566712 338.576408 
L 291.838072 337.871963 
L 293.109433 337.0015 
L 294.380793 336.413718 
L 295.652153 335.664056 
L 299.466234 337.99345 
L 300.737594 337.454726 
L 302.008954 337.813583 
L 303.280314 337.708435 
L 304.551675 337.870669 
L 305.823035 337.553254 
L 307.094395 337.711946 
L 308.365755 337.723567 
L 312.179836 338.199147 
L 313.451196 338.312244 
L 314.722556 338.032707 
L 315.993917 338.420109 
L 317.265277 337.649559 
L 318.536637 337.848374 
L 319.807997 338.537403 
L 322.350718 338.58696 
L 323.622078 339.087428 
L 324.893438 338.702899 
L 326.164798 338.51358 
L 327.436159 338.772727 
L 328.707519 338.805502 
L 331.250239 338.107492 
L 332.521599 338.750328 
L 333.79296 338.365178 
L 335.06432 339.231852 
L 336.33568 339.139957 
L 337.60704 338.867488 
L 338.878401 339.2057 
L 342.692481 338.634801 
L 343.963841 338.649124 
L 345.235202 338.837845 
L 346.506562 338.763826 
L 349.049282 339.150336 
L 350.320643 339.385049 
L 351.592003 338.965047 
L 354.134723 338.495824 
L 355.406083 338.77986 
L 356.677444 338.310843 
L 357.948804 338.662893 
L 360.491524 338.790356 
L 361.762884 339.281509 
L 363.034245 338.761724 
L 364.305605 339.249067 
L 365.576965 338.899214 
L 368.119686 338.445225 
L 369.391046 336.673576 
L 370.662406 336.716028 
L 373.205126 336.337242 
L 374.476487 336.696492 
L 375.747847 336.729688 
L 379.561928 337.70199 
L 380.833288 338.278888 
L 382.104648 338.000639 
L 383.376008 337.88303 
L 384.647368 338.055864 
L 385.918729 338.665429 
L 387.190089 339.106187 
L 388.461449 338.011888 
L 389.732809 338.06986 
L 391.00417 337.73365 
L 392.27553 336.277839 
L 393.54689 336.522427 
L 394.81825 335.354356 
L 397.360971 336.8557 
L 398.632331 337.363694 
L 399.903691 336.075851 
L 401.175051 335.916717 
L 402.446411 336.513546 
L 404.989132 337.418014 
L 406.260492 337.388089 
L 407.531852 337.487717 
L 408.803213 336.978967 
L 410.074573 336.063244 
L 411.345933 337.21353 
L 413.888653 337.71309 
L 415.160014 338.494566 
L 416.431374 338.704143 
L 417.702734 338.642119 
L 418.974094 339.519482 
L 420.245455 339.240885 
L 421.516815 339.668634 
L 422.788175 339.970284 
L 424.059535 339.700812 
L 425.330895 340.280976 
L 426.602256 340.318426 
L 427.873616 340.733411 
L 429.144976 340.338856 
L 430.416336 339.590711 
L 431.687697 339.168404 
L 432.959057 339.436996 
L 436.773137 339.481006 
L 438.044498 339.024582 
L 439.315858 338.161506 
L 440.587218 337.712802 
L 441.858578 338.172358 
L 443.129938 336.899166 
L 445.672659 338.666465 
L 446.944019 339.082476 
L 448.215379 339.21024 
L 449.48674 339.97346 
L 450.7581 339.099362 
L 452.02946 340.014909 
L 453.30082 339.623112 
L 454.57218 339.571938 
L 455.843541 339.759423 
L 458.386261 340.93316 
L 459.657621 340.412405 
L 460.928982 340.932878 
L 462.200342 341.262334 
L 463.471702 340.636168 
L 464.743062 341.371954 
L 466.014422 341.688211 
L 467.285783 341.640783 
L 468.557143 341.102217 
L 469.828503 340.860954 
L 471.099863 340.206716 
L 472.371224 338.794504 
L 473.642584 338.47667 
L 474.913944 338.653387 
L 476.185304 338.17385 
L 477.456664 338.326694 
L 481.270745 338.324563 
L 482.542105 338.871151 
L 483.813465 338.397472 
L 485.084826 337.69213 
L 486.356186 336.734221 
L 487.627546 336.889975 
L 491.441627 337.840151 
L 492.712987 337.717581 
L 493.984347 337.835579 
L 495.255707 338.135642 
L 496.527068 338.729504 
L 497.798428 338.73282 
L 499.069788 337.965791 
L 500.341148 337.383851 
L 501.612509 337.621667 
L 502.883869 337.674762 
L 504.155229 338.488172 
L 505.426589 338.453781 
L 506.697949 338.144706 
L 507.96931 339.105687 
L 510.51203 339.941214 
L 511.78339 339.33926 
L 513.054751 339.180344 
L 514.326111 338.739449 
L 515.597471 339.878043 
L 516.868831 340.536231 
L 518.140191 340.914761 
L 519.411552 340.249841 
L 520.682912 340.560183 
L 521.954272 340.683458 
L 523.225632 339.704882 
L 525.768353 340.516971 
L 527.039713 340.795099 
L 529.582433 341.083774 
L 530.853794 340.587111 
L 532.125154 340.628408 
L 533.396514 340.972026 
L 534.667874 340.153374 
L 535.939234 340.439764 
L 538.481955 339.948765 
L 539.753315 340.195121 
L 541.024675 339.95343 
L 542.296036 340.813857 
L 543.567396 340.293844 
L 546.110116 339.953054 
L 547.381476 339.412907 
L 548.652837 339.180799 
L 552.466917 339.177812 
L 555.009638 337.940693 
L 556.280998 338.170927 
L 557.552358 337.833081 
L 558.823718 338.024044 
L 560.095079 338.053065 
L 561.366439 337.647466 
L 562.637799 338.038492 
L 563.909159 338.019447 
L 565.180519 338.485623 
L 566.45188 338.618251 
L 567.72324 339.004252 
L 568.9946 338.969193 
L 570.26596 339.117487 
L 571.537321 339.608067 
L 572.808681 340.351486 
L 574.080041 340.021063 
L 575.351401 339.963322 
L 576.622761 338.983873 
L 577.894122 339.623117 
L 579.165482 337.891949 
L 580.436842 338.267175 
L 581.708202 338.893478 
L 584.250923 338.690038 
L 585.522283 339.011309 
L 586.793643 338.691644 
L 588.065003 338.607787 
L 588.065003 338.607787 
" clip-path="url(#p4d4e5764c9)" style="fill: none; stroke: #ff7f0e; stroke-width: 1.2; stroke-linecap: square"/>
   </g>
   <g id="line2d_35">
    <path d="M 82.063636 152.599876 
L 83.334997 154.111177 
L 84.606357 153.671941 
L 85.877717 153.649589 
L 87.149077 152.198246 
L 88.420437 146.823788 
L 90.963158 137.986703 
L 92.234518 130.261705 
L 93.505878 126.45046 
L 94.777239 123.127298 
L 96.048599 115.447712 
L 97.319959 109.353777 
L 98.591319 102.549982 
L 99.862679 94.165183 
L 101.13404 91.247893 
L 102.4054 86.406698 
L 103.67676 83.449012 
L 104.94812 82.602783 
L 107.490841 73.410289 
L 108.762201 72.867339 
L 110.033561 70.882995 
L 111.304921 67.925292 
L 112.576282 68.614879 
L 113.847642 68.698011 
L 115.119002 65.893986 
L 116.390362 65.615202 
L 117.661722 61.631504 
L 118.933083 60.108563 
L 120.204443 59.307721 
L 121.475803 57.858458 
L 122.747163 58.750455 
L 124.018524 59.874333 
L 125.289884 58.4493 
L 126.561244 55.39063 
L 129.103964 47.986446 
L 130.375325 46.739027 
L 131.646685 47.750833 
L 132.918045 50.087739 
L 134.189405 50.186668 
L 135.460766 51.06797 
L 136.732126 48.594205 
L 138.003486 47.996824 
L 139.274846 48.205893 
L 140.546206 45.981762 
L 141.817567 42.154924 
L 143.088927 40.970894 
L 144.360287 43.401199 
L 145.631647 41.867508 
L 146.903008 41.46337 
L 148.174368 42.373707 
L 149.445728 40.580247 
L 150.717088 39.445 
L 151.988448 41.814564 
L 153.259809 43.43312 
L 154.531169 44.811376 
L 155.802529 48.184988 
L 157.073889 46.614613 
L 159.61661 44.987007 
L 160.88797 47.974779 
L 162.15933 46.441145 
L 163.43069 48.13684 
L 164.702051 48.409829 
L 165.973411 48.202187 
L 167.244771 47.792446 
L 168.516131 50.443029 
L 169.787491 49.646196 
L 171.058852 47.770585 
L 172.330212 49.276367 
L 173.601572 49.164399 
L 174.872932 50.559923 
L 176.144293 51.325049 
L 177.415653 50.338072 
L 178.687013 54.769744 
L 181.229733 52.80268 
L 182.501094 55.472247 
L 183.772454 52.607442 
L 185.043814 53.896629 
L 186.315174 55.631063 
L 187.586535 55.182147 
L 188.857895 53.657993 
L 190.129255 52.670375 
L 191.400615 53.075163 
L 192.671975 52.420051 
L 193.943336 50.702269 
L 195.214696 48.272417 
L 196.486056 44.420721 
L 197.757416 43.550591 
L 199.028776 44.077268 
L 200.300137 47.113416 
L 201.571497 45.853958 
L 202.842857 44.308479 
L 204.114217 46.604986 
L 205.385578 47.69442 
L 206.656938 49.402459 
L 207.928298 47.877857 
L 209.199658 47.160599 
L 210.471018 51.209954 
L 213.013739 54.121739 
L 214.285099 54.686103 
L 215.556459 48.860429 
L 216.82782 49.375345 
L 218.09918 48.950404 
L 219.37054 45.113668 
L 220.6419 43.910954 
L 221.91326 42.492837 
L 223.184621 41.329089 
L 224.455981 44.400157 
L 225.727341 46.417959 
L 226.998701 50.686566 
L 228.270062 56.505102 
L 229.541422 78.559813 
L 230.812782 105.14153 
L 232.084142 128.984142 
L 233.355502 150.49371 
L 234.626863 168.882083 
L 237.169583 200.828287 
L 242.255024 247.047975 
L 244.797744 264.1478 
L 246.069105 271.566092 
L 248.611825 284.410318 
L 249.883185 289.856459 
L 251.154545 294.617846 
L 252.425906 298.940607 
L 254.968626 305.813186 
L 256.239986 308.799866 
L 257.511347 312.143375 
L 260.054067 317.050399 
L 262.596787 321.313982 
L 263.868148 323.095523 
L 265.139508 325.577106 
L 267.682228 328.757211 
L 268.953589 330.165424 
L 272.767669 333.029528 
L 274.039029 333.419843 
L 275.31039 334.746507 
L 276.58175 334.944612 
L 277.85311 334.51325 
L 279.12447 334.936476 
L 280.39583 336.202886 
L 282.938551 335.257924 
L 284.209911 335.791896 
L 285.481271 336.093834 
L 286.752632 335.65295 
L 288.023992 336.3502 
L 289.295352 336.181944 
L 290.566712 336.857443 
L 291.838072 336.858613 
L 293.109433 337.095127 
L 294.380793 336.821971 
L 295.652153 336.829882 
L 296.923513 337.12238 
L 298.194874 337.169027 
L 299.466234 336.826861 
L 300.737594 337.116083 
L 302.008954 336.970127 
L 303.280314 337.021444 
L 304.551675 338.012722 
L 305.823035 338.597631 
L 307.094395 337.917381 
L 308.365755 337.367318 
L 309.637116 337.530713 
L 310.908476 336.81782 
L 312.179836 336.902226 
L 313.451196 337.344761 
L 315.993917 337.569045 
L 317.265277 336.951209 
L 318.536637 337.049218 
L 319.807997 337.805289 
L 321.079357 337.92272 
L 322.350718 337.538119 
L 323.622078 337.919339 
L 324.893438 337.914556 
L 326.164798 338.9794 
L 327.436159 339.230329 
L 328.707519 338.891776 
L 329.978879 339.179643 
L 331.250239 339.940448 
L 332.521599 339.426449 
L 333.79296 339.441385 
L 335.06432 339.002391 
L 336.33568 337.619298 
L 337.60704 337.420703 
L 338.878401 336.882302 
L 340.149761 337.124599 
L 341.421121 337.525334 
L 343.963841 336.769508 
L 345.235202 336.285184 
L 346.506562 336.270376 
L 349.049282 337.048626 
L 350.320643 336.921035 
L 352.863363 337.940166 
L 354.134723 337.810886 
L 355.406083 336.951772 
L 356.677444 337.239593 
L 357.948804 337.853186 
L 359.220164 337.840278 
L 360.491524 338.715618 
L 361.762884 338.974717 
L 364.305605 338.59064 
L 365.576965 337.740818 
L 366.848325 337.639501 
L 368.119686 337.335162 
L 369.391046 337.924398 
L 370.662406 337.383343 
L 371.933766 337.264276 
L 374.476487 337.565033 
L 375.747847 337.206328 
L 377.019207 337.617274 
L 378.290567 337.232162 
L 379.561928 337.878717 
L 380.833288 338.017053 
L 382.104648 337.408365 
L 383.376008 337.113845 
L 384.647368 336.488475 
L 385.918729 336.393781 
L 387.190089 336.872057 
L 388.461449 336.450938 
L 392.27553 337.785199 
L 393.54689 338.545376 
L 394.81825 338.806477 
L 396.08961 338.752039 
L 397.360971 338.938255 
L 398.632331 338.793473 
L 401.175051 338.002038 
L 402.446411 337.014673 
L 403.717772 337.35713 
L 404.989132 338.370368 
L 406.260492 338.664044 
L 407.531852 337.72933 
L 408.803213 338.265215 
L 410.074573 338.145098 
L 411.345933 338.378698 
L 412.617293 336.92802 
L 413.888653 337.006403 
L 415.160014 336.855998 
L 416.431374 336.30731 
L 417.702734 337.037691 
L 418.974094 337.366608 
L 420.245455 337.929706 
L 421.516815 338.312032 
L 425.330895 338.482438 
L 427.873616 338.622732 
L 431.687697 337.272831 
L 432.959057 337.652076 
L 434.230417 337.280503 
L 435.501777 337.080143 
L 436.773137 337.166928 
L 439.315858 338.195999 
L 440.587218 338.031183 
L 441.858578 338.479584 
L 443.129938 338.792311 
L 445.672659 338.668754 
L 446.944019 339.150635 
L 448.215379 339.91081 
L 449.48674 339.65797 
L 450.7581 339.694602 
L 452.02946 339.554177 
L 453.30082 339.783835 
L 455.843541 338.778723 
L 457.114901 338.889524 
L 458.386261 339.648417 
L 459.657621 339.421717 
L 460.928982 339.59474 
L 462.200342 338.808139 
L 463.471702 339.18859 
L 464.743062 339.151426 
L 466.014422 338.620026 
L 467.285783 338.41466 
L 468.557143 338.38224 
L 469.828503 338.037278 
L 473.642584 339.098373 
L 474.913944 338.596374 
L 476.185304 338.421781 
L 477.456664 339.165548 
L 478.728025 339.459176 
L 481.270745 339.074221 
L 482.542105 338.448546 
L 483.813465 337.647982 
L 485.084826 338.197647 
L 486.356186 338.513298 
L 487.627546 339.388685 
L 488.898906 339.992065 
L 490.170267 340.029102 
L 491.441627 339.405687 
L 493.984347 338.964395 
L 495.255707 339.341654 
L 497.798428 338.278985 
L 499.069788 338.944833 
L 500.341148 339.411828 
L 501.612509 338.991074 
L 502.883869 339.47249 
L 504.155229 338.902238 
L 505.426589 338.572553 
L 506.697949 338.05347 
L 507.96931 337.928705 
L 509.24067 338.53322 
L 510.51203 338.710523 
L 511.78339 338.735579 
L 513.054751 339.374506 
L 514.326111 339.42391 
L 515.597471 339.596778 
L 516.868831 338.906061 
L 520.682912 340.761205 
L 521.954272 339.946679 
L 523.225632 340.391206 
L 524.496992 340.250921 
L 525.768353 339.631985 
L 527.039713 340.032008 
L 528.311073 339.76695 
L 529.582433 340.054346 
L 530.853794 339.871705 
L 532.125154 339.283374 
L 533.396514 339.284347 
L 534.667874 338.870821 
L 535.939234 338.982837 
L 538.481955 339.591232 
L 539.753315 338.315918 
L 541.024675 338.674647 
L 543.567396 338.534806 
L 546.110116 339.262514 
L 547.381476 338.750728 
L 549.924197 338.04551 
L 551.195557 338.423762 
L 552.466917 338.205426 
L 553.738278 338.829159 
L 555.009638 338.667398 
L 556.280998 339.053077 
L 557.552358 337.486399 
L 558.823718 338.245679 
L 560.095079 338.708624 
L 561.366439 338.183218 
L 562.637799 338.748146 
L 563.909159 338.69564 
L 565.180519 337.789704 
L 566.45188 337.45513 
L 567.72324 337.771304 
L 568.9946 337.246759 
L 570.26596 337.237259 
L 574.080041 338.10518 
L 576.622761 339.064581 
L 577.894122 338.528595 
L 579.165482 339.08581 
L 581.708202 339.465789 
L 582.979563 338.867175 
L 584.250923 338.53179 
L 585.522283 339.059091 
L 588.065003 339.188273 
L 588.065003 339.188273 
" clip-path="url(#p4d4e5764c9)" style="fill: none; stroke: #2ca02c; stroke-width: 1.2; stroke-linecap: square"/>
   </g>
   <g id="line2d_36">
    <path d="M 82.063636 152.599876 
L 83.334997 156.338202 
L 84.606357 157.031399 
L 87.149077 175.515032 
L 88.420437 188.164928 
L 92.234518 220.526294 
L 93.505878 230.138431 
L 94.777239 238.424576 
L 96.048599 248.042214 
L 98.591319 264.383873 
L 102.4054 284.866854 
L 103.67676 290.263554 
L 104.94812 294.588513 
L 106.219481 298.258577 
L 108.762201 306.65279 
L 110.033561 309.682346 
L 111.304921 311.561525 
L 112.576282 313.951476 
L 113.847642 317.146906 
L 115.119002 318.668775 
L 116.390362 320.949919 
L 117.661722 322.244394 
L 118.933083 323.873075 
L 120.204443 325.805865 
L 121.475803 327.478401 
L 122.747163 328.9399 
L 124.018524 329.596458 
L 125.289884 330.569999 
L 126.561244 331.973288 
L 127.832604 331.769535 
L 129.103964 331.913778 
L 130.375325 331.851575 
L 131.646685 332.377301 
L 132.918045 333.209646 
L 134.189405 334.23984 
L 135.460766 334.727161 
L 136.732126 335.381057 
L 138.003486 335.842848 
L 139.274846 335.540287 
L 140.546206 336.156701 
L 141.817567 335.971199 
L 143.088927 335.391592 
L 144.360287 335.97926 
L 145.631647 336.328756 
L 146.903008 336.908364 
L 148.174368 337.17336 
L 150.717088 336.593374 
L 151.988448 336.735405 
L 153.259809 336.440769 
L 154.531169 336.435108 
L 155.802529 337.303088 
L 157.073889 336.989145 
L 158.345249 336.557084 
L 159.61661 336.27814 
L 160.88797 337.044248 
L 162.15933 336.76264 
L 163.43069 337.384057 
L 164.702051 337.615548 
L 165.973411 337.315411 
L 168.516131 337.748803 
L 171.058852 337.13198 
L 172.330212 337.513184 
L 173.601572 338.496545 
L 174.872932 338.977986 
L 177.415653 338.98318 
L 178.687013 338.822115 
L 179.958373 338.874829 
L 181.229733 338.809479 
L 182.501094 338.915658 
L 185.043814 339.730228 
L 187.586535 337.641875 
L 190.129255 337.811906 
L 191.400615 338.593381 
L 192.671975 338.364273 
L 193.943336 338.291628 
L 196.486056 337.424943 
L 197.757416 337.024701 
L 199.028776 337.760653 
L 200.300137 337.664685 
L 202.842857 336.062167 
L 204.114217 334.804248 
L 205.385578 336.047123 
L 206.656938 336.483293 
L 210.471018 336.868008 
L 211.742379 336.577178 
L 213.013739 337.414423 
L 214.285099 337.706065 
L 215.556459 337.737204 
L 216.82782 337.387472 
L 218.09918 337.731084 
L 219.37054 337.692096 
L 220.6419 338.410295 
L 221.91326 338.184462 
L 223.184621 337.838107 
L 224.455981 337.672999 
L 225.727341 338.340095 
L 226.998701 338.211657 
L 228.270062 338.95451 
L 229.541422 338.813802 
L 230.812782 337.924882 
L 232.084142 337.671625 
L 233.355502 337.199886 
L 234.626863 337.373234 
L 235.898223 338.259963 
L 237.169583 338.860313 
L 238.440943 338.852828 
L 239.712303 338.28181 
L 240.983664 338.754209 
L 242.255024 338.981444 
L 243.526384 339.564422 
L 244.797744 338.039014 
L 246.069105 338.214465 
L 247.340465 337.218008 
L 248.611825 337.714324 
L 249.883185 337.885276 
L 251.154545 338.805979 
L 252.425906 338.809636 
L 253.697266 339.167591 
L 254.968626 339.02379 
L 258.782707 339.15172 
L 260.054067 339.456458 
L 261.325427 339.618294 
L 262.596787 340.41514 
L 263.868148 340.225439 
L 265.139508 340.328591 
L 266.410868 339.561258 
L 267.682228 339.287521 
L 268.953589 338.500709 
L 270.224949 338.840235 
L 271.496309 338.725727 
L 272.767669 338.393814 
L 274.039029 338.467961 
L 275.31039 338.388725 
L 277.85311 338.912783 
L 279.12447 338.852736 
L 280.39583 338.564136 
L 281.667191 337.886255 
L 282.938551 338.237061 
L 286.752632 337.854417 
L 288.023992 337.849746 
L 289.295352 338.137675 
L 291.838072 339.588585 
L 293.109433 339.604619 
L 294.380793 339.49783 
L 295.652153 339.983376 
L 296.923513 339.717612 
L 299.466234 339.57276 
L 300.737594 339.021123 
L 303.280314 339.778269 
L 304.551675 339.904164 
L 305.823035 339.846356 
L 307.094395 340.028559 
L 308.365755 339.994841 
L 309.637116 340.683037 
L 310.908476 340.424149 
L 312.179836 340.996061 
L 313.451196 340.931575 
L 314.722556 341.488616 
L 315.993917 341.468316 
L 317.265277 341.172719 
L 319.807997 340.939591 
L 323.622078 338.594568 
L 324.893438 338.968138 
L 326.164798 339.21698 
L 327.436159 339.210565 
L 328.707519 339.530325 
L 329.978879 338.562702 
L 331.250239 338.773834 
L 332.521599 338.504283 
L 333.79296 339.072475 
L 335.06432 339.010412 
L 336.33568 339.104096 
L 337.60704 337.769648 
L 338.878401 338.100097 
L 340.149761 337.346185 
L 341.421121 337.723437 
L 342.692481 338.483163 
L 343.963841 339.504052 
L 345.235202 339.195885 
L 346.506562 339.7402 
L 349.049282 341.404993 
L 350.320643 341.845 
L 351.592003 340.09299 
L 352.863363 340.541367 
L 354.134723 340.054039 
L 355.406083 340.140177 
L 356.677444 340.824302 
L 357.948804 340.896243 
L 359.220164 340.447905 
L 360.491524 340.668813 
L 361.762884 341.213703 
L 363.034245 340.735608 
L 364.305605 340.117186 
L 365.576965 339.998104 
L 366.848325 338.89586 
L 368.119686 338.936368 
L 369.391046 337.603644 
L 370.662406 337.959052 
L 371.933766 337.978197 
L 373.205126 338.508293 
L 374.476487 338.219735 
L 375.747847 339.037317 
L 377.019207 338.559573 
L 378.290567 338.586717 
L 379.561928 338.31835 
L 380.833288 337.533842 
L 382.104648 337.754227 
L 383.376008 337.247281 
L 384.647368 337.157858 
L 385.918729 336.563081 
L 387.190089 336.689291 
L 389.732809 338.210126 
L 391.00417 338.669653 
L 392.27553 338.576678 
L 393.54689 338.598861 
L 394.81825 338.072527 
L 396.08961 338.04758 
L 397.360971 336.262026 
L 398.632331 336.130133 
L 399.903691 335.720315 
L 401.175051 336.052694 
L 402.446411 336.675158 
L 403.717772 336.825784 
L 404.989132 337.53815 
L 408.803213 338.228581 
L 410.074573 338.106016 
L 411.345933 338.86318 
L 412.617293 339.244731 
L 415.160014 339.412865 
L 416.431374 339.960314 
L 417.702734 339.638408 
L 421.516815 337.734457 
L 424.059535 337.152544 
L 425.330895 337.36629 
L 426.602256 337.027403 
L 427.873616 337.639431 
L 429.144976 336.868656 
L 430.416336 337.741743 
L 431.687697 337.519732 
L 432.959057 338.802924 
L 434.230417 339.199066 
L 435.501777 338.177732 
L 436.773137 338.001648 
L 438.044498 338.334431 
L 439.315858 337.898765 
L 440.587218 337.810821 
L 441.858578 337.990229 
L 443.129938 338.039485 
L 444.401299 337.885095 
L 445.672659 338.03803 
L 446.944019 338.807822 
L 448.215379 337.492178 
L 449.48674 337.410041 
L 450.7581 337.586177 
L 452.02946 337.21622 
L 453.30082 337.754906 
L 454.57218 337.156682 
L 455.843541 336.16492 
L 457.114901 336.187405 
L 458.386261 337.057926 
L 459.657621 336.942468 
L 460.928982 337.593636 
L 462.200342 337.44662 
L 463.471702 338.509004 
L 464.743062 338.542892 
L 466.014422 338.199941 
L 467.285783 338.428034 
L 468.557143 338.522723 
L 469.828503 338.500999 
L 471.099863 338.25157 
L 472.371224 338.881375 
L 473.642584 338.843455 
L 474.913944 338.948578 
L 476.185304 339.173356 
L 478.728025 338.339748 
L 479.999385 338.822505 
L 481.270745 338.613907 
L 482.542105 338.10258 
L 483.813465 338.507841 
L 485.084826 338.3627 
L 486.356186 337.687636 
L 487.627546 338.030953 
L 488.898906 338.184149 
L 490.170267 338.591045 
L 491.441627 338.840338 
L 492.712987 338.590544 
L 493.984347 338.704782 
L 495.255707 338.950388 
L 496.527068 339.838723 
L 499.069788 339.66522 
L 500.341148 339.020745 
L 501.612509 338.661688 
L 502.883869 338.819604 
L 504.155229 338.177798 
L 505.426589 338.394626 
L 506.697949 338.939769 
L 507.96931 339.070087 
L 509.24067 338.68563 
L 510.51203 338.700334 
L 511.78339 339.084396 
L 513.054751 339.79846 
L 514.326111 339.136713 
L 515.597471 339.515051 
L 516.868831 339.620407 
L 518.140191 340.066304 
L 521.954272 339.058979 
L 523.225632 339.221735 
L 524.496992 338.856507 
L 525.768353 337.595097 
L 527.039713 335.749174 
L 528.311073 335.972998 
L 529.582433 336.543083 
L 530.853794 336.619497 
L 532.125154 336.502496 
L 533.396514 336.239074 
L 534.667874 336.520687 
L 535.939234 335.92437 
L 537.210595 336.086906 
L 539.753315 336.07694 
L 542.296036 337.202294 
L 543.567396 335.753458 
L 546.110116 336.166667 
L 547.381476 335.840689 
L 548.652837 336.600201 
L 549.924197 336.609067 
L 551.195557 336.825653 
L 552.466917 337.571888 
L 553.738278 336.834586 
L 555.009638 336.727784 
L 556.280998 336.909644 
L 557.552358 337.257514 
L 558.823718 336.855709 
L 560.095079 337.127632 
L 561.366439 338.006488 
L 562.637799 338.344207 
L 563.909159 337.053134 
L 566.45188 336.988168 
L 567.72324 337.783053 
L 568.9946 337.907596 
L 571.537321 338.858522 
L 572.808681 337.91978 
L 574.080041 337.362103 
L 576.622761 337.393843 
L 577.894122 337.272914 
L 580.436842 337.674659 
L 581.708202 337.48302 
L 584.250923 337.988921 
L 585.522283 336.758485 
L 586.793643 336.738249 
L 588.065003 336.936604 
L 588.065003 336.936604 
" clip-path="url(#p4d4e5764c9)" style="fill: none; stroke: #9467bd; stroke-width: 1.2; stroke-linecap: square"/>
   </g>
   <g id="patch_3">
    <path d="M 56.7 356.965 
L 56.7 24.325 
" style="fill: none; stroke: #000000; stroke-width: 0.8; stroke-linejoin: miter; stroke-linecap: square"/>
   </g>
   <g id="patch_4">
    <path d="M 614.7 356.965 
L 614.7 24.325 
" style="fill: none; stroke: #000000; stroke-width: 0.8; stroke-linejoin: miter; stroke-linecap: square"/>
   </g>
   <g id="patch_5">
    <path d="M 56.7 356.965 
L 614.7 356.965 
" style="fill: none; stroke: #000000; stroke-width: 0.8; stroke-linejoin: miter; stroke-linecap: square"/>
   </g>
   <g id="patch_6">
    <path d="M 56.7 24.325 
L 614.7 24.325 
" style="fill: none; stroke: #000000; stroke-width: 0.8; stroke-linejoin: miter; stroke-linecap: square"/>
   </g>
   <g id="text_19">
    <!-- Average Transmission Delay -->
    <g transform="translate(231.7 18.325) scale(0.16 -0.16)">
     <defs>
      <path id="SimHei-41" d="M 3075 125 
L 2475 125 
L 2125 1450 
L 1025 1450 
L 675 125 
L 75 125 
L 1325 4450 
L 1825 4450 
L 3075 125 
z
M 2000 1925 
L 1600 3450 
L 1550 3450 
L 1150 1925 
L 2000 1925 
z
" transform="scale(0.015625)"/>
      <path id="SimHei-76" d="M 2875 2925 
L 1825 75 
L 1275 75 
L 225 2925 
L 750 2925 
L 1525 750 
L 1575 750 
L 2350 2925 
L 2875 2925 
z
" transform="scale(0.015625)"/>
      <path id="SimHei-72" d="M 2500 2425 
Q 2025 2500 1700 2287 
Q 1375 2075 1150 1550 
L 1150 125 
L 650 125 
L 650 2925 
L 1150 2925 
L 1150 2200 
Q 1375 2600 1712 2787 
Q 2050 2975 2500 2975 
L 2500 2425 
z
" transform="scale(0.015625)"/>
      <path id="SimHei-67" d="M 2975 2500 
Q 2800 2550 2637 2562 
Q 2475 2575 2300 2525 
Q 2375 2450 2425 2337 
Q 2475 2225 2475 2000 
Q 2475 1575 2187 1300 
Q 1900 1025 1475 1025 
Q 1375 1025 1212 1062 
Q 1050 1100 950 1150 
Q 875 1100 850 1050 
Q 825 1000 825 925 
Q 825 800 1000 737 
Q 1175 675 1625 675 
Q 2350 675 2612 475 
Q 2875 275 2875 -25 
Q 2875 -425 2487 -612 
Q 2100 -800 1575 -800 
Q 900 -800 575 -625 
Q 250 -450 250 -150 
Q 250 0 375 150 
Q 500 300 700 400 
Q 550 475 462 587 
Q 375 700 375 875 
Q 375 1025 487 1137 
Q 600 1250 750 1325 
Q 625 1450 550 1625 
Q 475 1800 475 2000 
Q 475 2425 762 2700 
Q 1050 2975 1475 2975 
Q 1700 2975 1862 2912 
Q 2025 2850 2150 2725 
Q 2350 2875 2550 2937 
Q 2750 3000 2975 2975 
L 2975 2500 
z
M 1975 2000 
Q 1975 2250 1850 2400 
Q 1725 2550 1475 2550 
Q 1225 2550 1100 2400 
Q 975 2250 975 2000 
Q 975 1750 1100 1600 
Q 1225 1450 1475 1450 
Q 1725 1450 1850 1600 
Q 1975 1750 1975 2000 
z
M 2400 -75 
Q 2400 25 2287 125 
Q 2175 225 1725 225 
Q 1625 225 1450 237 
Q 1275 250 1050 275 
Q 850 200 775 100 
Q 700 0 700 -100 
Q 700 -250 900 -350 
Q 1100 -450 1600 -450 
Q 2025 -450 2212 -337 
Q 2400 -225 2400 -75 
z
" transform="scale(0.015625)"/>
      <path id="SimHei-54" d="M 2850 3925 
L 1850 3925 
L 1850 125 
L 1275 125 
L 1275 3925 
L 275 3925 
L 275 4400 
L 2850 4400 
L 2850 3925 
z
" transform="scale(0.015625)"/>
      <path id="SimHei-6e" d="M 2800 125 
L 2300 125 
L 2300 1925 
Q 2300 2225 2150 2400 
Q 2000 2575 1750 2575 
Q 1425 2575 1137 2237 
Q 850 1900 850 1400 
L 850 125 
L 350 125 
L 350 2925 
L 850 2925 
L 850 2400 
Q 1050 2675 1287 2825 
Q 1525 2975 1900 2975 
Q 2350 2975 2575 2725 
Q 2800 2475 2800 2100 
L 2800 125 
z
" transform="scale(0.015625)"/>
      <path id="SimHei-6d" d="M 3050 125 
L 2550 125 
L 2550 2150 
Q 2550 2300 2500 2400 
Q 2450 2500 2300 2500 
Q 2125 2500 1975 2312 
Q 1825 2125 1825 1825 
L 1825 125 
L 1325 125 
L 1325 2150 
Q 1325 2300 1275 2400 
Q 1225 2500 1075 2500 
Q 900 2500 750 2312 
Q 600 2125 600 1825 
L 600 125 
L 100 125 
L 100 2925 
L 600 2925 
L 600 2550 
Q 725 2750 900 2862 
Q 1075 2975 1275 2975 
Q 1475 2975 1612 2862 
Q 1750 2750 1800 2550 
Q 1925 2750 2087 2862 
Q 2250 2975 2450 2975 
Q 2750 2975 2900 2812 
Q 3050 2650 3050 2350 
L 3050 125 
z
" transform="scale(0.015625)"/>
     </defs>
     <use xlink:href="#SimHei-41"/>
     <use xlink:href="#SimHei-76" transform="translate(50 0)"/>
     <use xlink:href="#SimHei-65" transform="translate(100 0)"/>
     <use xlink:href="#SimHei-72" transform="translate(150 0)"/>
     <use xlink:href="#SimHei-61" transform="translate(200 0)"/>
     <use xlink:href="#SimHei-67" transform="translate(250 0)"/>
     <use xlink:href="#SimHei-65" transform="translate(300 0)"/>
     <use xlink:href="#SimHei-20" transform="translate(350 0)"/>
     <use xlink:href="#SimHei-54" transform="translate(400 0)"/>
     <use xlink:href="#SimHei-72" transform="translate(450 0)"/>
     <use xlink:href="#SimHei-61" transform="translate(500 0)"/>
     <use xlink:href="#SimHei-6e" transform="translate(550 0)"/>
     <use xlink:href="#SimHei-73" transform="translate(600 0)"/>
     <use xlink:href="#SimHei-6d" transform="translate(650 0)"/>
     <use xlink:href="#SimHei-69" transform="translate(700 0)"/>
     <use xlink:href="#SimHei-73" transform="translate(750 0)"/>
     <use xlink:href="#SimHei-73" transform="translate(800 0)"/>
     <use xlink:href="#SimHei-69" transform="translate(850 0)"/>
     <use xlink:href="#SimHei-6f" transform="translate(900 0)"/>
     <use xlink:href="#SimHei-6e" transform="translate(950 0)"/>
     <use xlink:href="#SimHei-20" transform="translate(1000 0)"/>
     <use xlink:href="#SimHei-44" transform="translate(1050 0)"/>
     <use xlink:href="#SimHei-65" transform="translate(1100 0)"/>
     <use xlink:href="#SimHei-6c" transform="translate(1150 0)"/>
     <use xlink:href="#SimHei-61" transform="translate(1200 0)"/>
     <use xlink:href="#SimHei-79" transform="translate(1250 0)"/>
    </g>
   </g>
   <g id="legend_1">
    <g id="patch_7">
     <path d="M 489.9 97.525 
L 606.3 97.525 
Q 608.7 97.525 608.7 95.125 
L 608.7 32.725 
Q 608.7 30.325 606.3 30.325 
L 489.9 30.325 
Q 487.5 30.325 487.5 32.725 
L 487.5 95.125 
Q 487.5 97.525 489.9 97.525 
z
" style="fill: #ffffff; opacity: 0.8; stroke: #cccccc; stroke-linejoin: miter"/>
    </g>
    <g id="line2d_37">
     <path d="M 492.3 39.325 
L 504.3 39.325 
L 516.3 39.325 
" style="fill: none; stroke: #1f77b4; stroke-width: 1.2; stroke-linecap: square"/>
    </g>
    <g id="text_20">
     <!-- GCN-DDQN -->
     <g transform="translate(525.9 43.525) scale(0.12 -0.12)">
      <defs>
       <path id="SimHei-47" d="M 2850 75 
L 2425 75 
L 2350 425 
Q 2250 275 2037 175 
Q 1825 75 1575 75 
Q 1050 75 637 562 
Q 225 1050 225 2125 
Q 225 3300 600 3875 
Q 975 4450 1625 4450 
Q 2200 4450 2525 4025 
Q 2850 3600 2850 2925 
L 2300 2925 
Q 2300 3450 2125 3712 
Q 1950 3975 1625 3975 
Q 1225 3975 1025 3562 
Q 825 3150 825 2175 
Q 825 1250 1075 900 
Q 1325 550 1650 550 
Q 1975 550 2162 787 
Q 2350 1025 2350 1525 
L 2350 1800 
L 1575 1800 
L 1575 2275 
L 2850 2275 
L 2850 75 
z
" transform="scale(0.015625)"/>
       <path id="SimHei-43" d="M 2975 1825 
Q 2950 875 2575 475 
Q 2200 75 1675 75 
Q 1075 75 650 562 
Q 225 1050 225 2125 
Q 225 3300 637 3875 
Q 1050 4450 1700 4450 
Q 2250 4450 2612 4037 
Q 2975 3625 2950 2875 
L 2400 2875 
Q 2400 3425 2225 3700 
Q 2050 3975 1700 3975 
Q 1300 3975 1062 3562 
Q 825 3150 825 2175 
Q 825 1275 1062 912 
Q 1300 550 1675 550 
Q 1950 550 2175 812 
Q 2400 1075 2400 1825 
L 2975 1825 
z
" transform="scale(0.015625)"/>
       <path id="SimHei-4e" d="M 2850 125 
L 2225 125 
L 850 3225 
L 825 3225 
L 825 125 
L 250 125 
L 250 4400 
L 875 4400 
L 2250 1300 
L 2275 1300 
L 2275 4400 
L 2850 4400 
L 2850 125 
z
" transform="scale(0.015625)"/>
       <path id="SimHei-2d" d="M 2975 2125 
L 125 2125 
L 125 2525 
L 2975 2525 
L 2975 2125 
z
" transform="scale(0.015625)"/>
       <path id="SimHei-51" d="M 2950 2275 
Q 2950 1675 2862 1262 
Q 2775 850 2575 600 
L 2775 225 
L 2375 -200 
L 2150 225 
Q 2050 150 1900 112 
Q 1750 75 1575 75 
Q 925 75 550 587 
Q 175 1100 175 2275 
Q 175 3450 550 3950 
Q 925 4450 1575 4450 
Q 2225 4450 2587 3950 
Q 2950 3450 2950 2275 
z
M 2350 2275 
Q 2350 3325 2125 3650 
Q 1900 3975 1575 3975 
Q 1250 3975 1012 3650 
Q 775 3325 775 2275 
Q 775 1225 1012 887 
Q 1250 550 1575 550 
Q 1700 550 1800 587 
Q 1900 625 1950 675 
L 1550 1450 
L 1900 1875 
L 2250 1200 
Q 2300 1450 2325 1650 
Q 2350 1850 2350 2275 
z
" transform="scale(0.015625)"/>
      </defs>
      <use xlink:href="#SimHei-47"/>
      <use xlink:href="#SimHei-43" transform="translate(50 0)"/>
      <use xlink:href="#SimHei-4e" transform="translate(100 0)"/>
      <use xlink:href="#SimHei-2d" transform="translate(150 0)"/>
      <use xlink:href="#SimHei-44" transform="translate(200 0)"/>
      <use xlink:href="#SimHei-44" transform="translate(250 0)"/>
      <use xlink:href="#SimHei-51" transform="translate(300 0)"/>
      <use xlink:href="#SimHei-4e" transform="translate(350 0)"/>
     </g>
    </g>
    <g id="line2d_38">
     <path d="M 492.3 55.225 
L 504.3 55.225 
L 516.3 55.225 
" style="fill: none; stroke: #ff7f0e; stroke-width: 1.2; stroke-linecap: square"/>
    </g>
    <g id="text_21">
     <!-- GCN-D3QN -->
     <g transform="translate(525.9 59.425) scale(0.12 -0.12)">
      <use xlink:href="#SimHei-47"/>
      <use xlink:href="#SimHei-43" transform="translate(50 0)"/>
      <use xlink:href="#SimHei-4e" transform="translate(100 0)"/>
      <use xlink:href="#SimHei-2d" transform="translate(150 0)"/>
      <use xlink:href="#SimHei-44" transform="translate(200 0)"/>
      <use xlink:href="#SimHei-33" transform="translate(250 0)"/>
      <use xlink:href="#SimHei-51" transform="translate(300 0)"/>
      <use xlink:href="#SimHei-4e" transform="translate(350 0)"/>
     </g>
    </g>
    <g id="line2d_39">
     <path d="M 492.3 71.125 
L 504.3 71.125 
L 516.3 71.125 
" style="fill: none; stroke: #2ca02c; stroke-width: 1.2; stroke-linecap: square"/>
    </g>
    <g id="text_22">
     <!-- GAT-LSTM-DDQN -->
     <g transform="translate(525.9 75.325) scale(0.12 -0.12)">
      <defs>
       <path id="SimHei-4c" d="M 2900 125 
L 300 125 
L 300 4400 
L 875 4400 
L 875 600 
L 2900 600 
L 2900 125 
z
" transform="scale(0.015625)"/>
       <path id="SimHei-53" d="M 2900 1325 
Q 2900 750 2537 412 
Q 2175 75 1550 75 
Q 925 75 575 425 
Q 225 775 225 1300 
L 225 1475 
L 800 1475 
L 800 1325 
Q 800 950 1025 750 
Q 1250 550 1550 550 
Q 1950 550 2137 762 
Q 2325 975 2325 1275 
Q 2325 1525 2100 1737 
Q 1875 1950 1450 2125 
Q 850 2350 587 2625 
Q 325 2900 325 3275 
Q 325 3800 687 4125 
Q 1050 4450 1550 4450 
Q 2200 4450 2487 4062 
Q 2775 3675 2775 3225 
L 2200 3225 
Q 2225 3500 2050 3725 
Q 1875 3950 1550 3950 
Q 1250 3950 1075 3787 
Q 900 3625 900 3350 
Q 900 3125 1037 2962 
Q 1175 2800 1750 2575 
Q 2300 2350 2600 2037 
Q 2900 1725 2900 1325 
z
" transform="scale(0.015625)"/>
       <path id="SimHei-4d" d="M 2925 125 
L 2425 125 
L 2425 3175 
L 2375 3175 
L 1775 125 
L 1375 125 
L 775 3175 
L 725 3175 
L 725 125 
L 225 125 
L 225 4400 
L 1000 4400 
L 1550 1575 
L 1600 1575 
L 2150 4400 
L 2925 4400 
L 2925 125 
z
" transform="scale(0.015625)"/>
      </defs>
      <use xlink:href="#SimHei-47"/>
      <use xlink:href="#SimHei-41" transform="translate(50 0)"/>
      <use xlink:href="#SimHei-54" transform="translate(100 0)"/>
      <use xlink:href="#SimHei-2d" transform="translate(150 0)"/>
      <use xlink:href="#SimHei-4c" transform="translate(200 0)"/>
      <use xlink:href="#SimHei-53" transform="translate(250 0)"/>
      <use xlink:href="#SimHei-54" transform="translate(300 0)"/>
      <use xlink:href="#SimHei-4d" transform="translate(350 0)"/>
      <use xlink:href="#SimHei-2d" transform="translate(400 0)"/>
      <use xlink:href="#SimHei-44" transform="translate(450 0)"/>
      <use xlink:href="#SimHei-44" transform="translate(500 0)"/>
      <use xlink:href="#SimHei-51" transform="translate(550 0)"/>
      <use xlink:href="#SimHei-4e" transform="translate(600 0)"/>
     </g>
    </g>
    <g id="line2d_40">
     <path d="M 492.3 87.025 
L 504.3 87.025 
L 516.3 87.025 
" style="fill: none; stroke: #9467bd; stroke-width: 1.2; stroke-linecap: square"/>
    </g>
    <g id="text_23">
     <!-- GLDVTO -->
     <g transform="translate(525.9 91.225) scale(0.12 -0.12)">
      <defs>
       <path id="SimHei-56" d="M 3050 4400 
L 1800 75 
L 1300 75 
L 50 4400 
L 650 4400 
L 1525 1125 
L 1575 1125 
L 2450 4400 
L 3050 4400 
z
" transform="scale(0.015625)"/>
       <path id="SimHei-4f" d="M 2950 2275 
Q 2950 1100 2587 587 
Q 2225 75 1575 75 
Q 925 75 550 587 
Q 175 1100 175 2275 
Q 175 3450 550 3950 
Q 925 4450 1575 4450 
Q 2225 4450 2587 3950 
Q 2950 3450 2950 2275 
z
M 2350 2275 
Q 2350 3325 2125 3650 
Q 1900 3975 1575 3975 
Q 1250 3975 1012 3650 
Q 775 3325 775 2275 
Q 775 1225 1012 887 
Q 1250 550 1575 550 
Q 1900 550 2125 887 
Q 2350 1225 2350 2275 
z
" transform="scale(0.015625)"/>
      </defs>
      <use xlink:href="#SimHei-47"/>
      <use xlink:href="#SimHei-4c" transform="translate(50 0)"/>
      <use xlink:href="#SimHei-44" transform="translate(100 0)"/>
      <use xlink:href="#SimHei-56" transform="translate(150 0)"/>
      <use xlink:href="#SimHei-54" transform="translate(200 0)"/>
      <use xlink:href="#SimHei-4f" transform="translate(250 0)"/>
     </g>
    </g>
   </g>
  </g>
 </g>
 <defs>
  <clipPath id="p4d4e5764c9">
   <rect x="56.7" y="24.325" width="558" height="332.64"/>
  </clipPath>
 </defs>
</svg>
