<?xml version="1.0" encoding="utf-8" standalone="no"?>
<!DOCTYPE svg PUBLIC "-//W3C//DTD SVG 1.1//EN"
  "http://www.w3.org/Graphics/SVG/1.1/DTD/svg11.dtd">
<svg xmlns:xlink="http://www.w3.org/1999/xlink" width="712.99pt" height="424.835pt" viewBox="0 0 712.99 424.835" xmlns="http://www.w3.org/2000/svg" version="1.1">
 <metadata>
  <rdf:RDF xmlns:dc="http://purl.org/dc/elements/1.1/" xmlns:cc="http://creativecommons.org/ns#" xmlns:rdf="http://www.w3.org/1999/02/22-rdf-syntax-ns#">
   <cc:Work>
    <dc:type rdf:resource="http://purl.org/dc/dcmitype/StillImage"/>
    <dc:date>2026-06-26T17:26:58.116079</dc:date>
    <dc:format>image/svg+xml</dc:format>
    <dc:creator>
     <cc:Agent>
      <dc:title>Matplotlib v3.10.7, https://matplotlib.org/</dc:title>
     </cc:Agent>
    </dc:creator>
   </cc:Work>
  </rdf:RDF>
 </metadata>
 <defs>
  <style type="text/css">*{stroke-linejoin: round; stroke-linecap: butt}</style>
 </defs>
 <g id="figure_1">
  <g id="patch_1">
   <path d="M -0 424.835 
L 712.99 424.835 
L 712.99 0 
L -0 0 
z
" style="fill: #ffffff"/>
  </g>
  <g id="axes_1">
   <g id="patch_2">
    <path d="M 55.2 383.885 
L 705.79 383.885 
L 705.79 24.325 
L 55.2 24.325 
z
" style="fill: #ffffff"/>
   </g>
   <g id="matplotlib.axis_1">
    <g id="xtick_1">
     <g id="line2d_1">
      <path d="M 84.772273 383.885 
L 84.772273 24.325 
" clip-path="url(#pfa12863f7a)" style="fill: none; stroke: #b0b0b0; stroke-opacity: 0.3; stroke-width: 0.8; stroke-linecap: square"/>
     </g>
     <g id="line2d_2">
      <defs>
       <path id="m4f20576296" d="M 0 0 
L 0 3.5 
" style="stroke: #000000; stroke-width: 0.8"/>
      </defs>
      <g>
       <use xlink:href="#m4f20576296" x="84.772273" y="383.885" style="stroke: #000000; stroke-width: 0.8"/>
      </g>
     </g>
     <g id="text_1">
      <!-- 0 -->
      <g transform="translate(81.772273 399.135) scale(0.12 -0.12)">
       <defs>
        <path id="SimHei-30" d="M 225 2537 
Q 250 3200 412 3587 
Q 575 3975 875 4225 
Q 1175 4475 1612 4475 
Q 2050 4475 2375 4112 
Q 2700 3750 2800 3200 
Q 2900 2650 2862 1937 
Q 2825 1225 2612 775 
Q 2400 325 1975 150 
Q 1550 -25 1125 187 
Q 700 400 525 750 
Q 350 1100 275 1487 
Q 200 1875 225 2537 
z
M 750 2687 
Q 675 2000 800 1462 
Q 925 925 1212 700 
Q 1500 475 1800 612 
Q 2100 750 2237 1162 
Q 2375 1575 2375 2062 
Q 2375 2550 2337 2950 
Q 2300 3350 2112 3675 
Q 1925 4000 1612 4012 
Q 1300 4025 1062 3700 
Q 825 3375 750 2687 
z
" transform="scale(0.015625)"/>
       </defs>
       <use xlink:href="#SimHei-30"/>
      </g>
     </g>
    </g>
    <g id="xtick_2">
     <g id="line2d_3">
      <path d="M 158.888244 383.885 
L 158.888244 24.325 
" clip-path="url(#pfa12863f7a)" style="fill: none; stroke: #b0b0b0; stroke-opacity: 0.3; stroke-width: 0.8; stroke-linecap: square"/>
     </g>
     <g id="line2d_4">
      <g>
       <use xlink:href="#m4f20576296" x="158.888244" y="383.885" style="stroke: #000000; stroke-width: 0.8"/>
      </g>
     </g>
     <g id="text_2">
      <!-- 50 -->
      <g transform="translate(152.888244 399.135) scale(0.12 -0.12)">
       <defs>
        <path id="SimHei-35" d="M 550 1325 
Q 725 650 1150 575 
Q 1575 500 1837 662 
Q 2100 825 2212 1087 
Q 2325 1350 2312 1675 
Q 2300 2000 2137 2225 
Q 1975 2450 1725 2525 
Q 1475 2600 1162 2525 
Q 850 2450 650 2175 
L 225 2225 
Q 275 2375 700 4375 
L 2675 4375 
L 2675 3925 
L 1075 3925 
Q 950 3250 825 2850 
Q 1200 3025 1525 3012 
Q 1850 3000 2150 2862 
Q 2450 2725 2587 2487 
Q 2725 2250 2787 2012 
Q 2850 1775 2837 1500 
Q 2825 1225 2725 937 
Q 2625 650 2425 462 
Q 2225 275 1937 162 
Q 1650 50 1275 75 
Q 900 100 562 350 
Q 225 600 100 1200 
L 550 1325 
z
" transform="scale(0.015625)"/>
       </defs>
       <use xlink:href="#SimHei-35"/>
       <use xlink:href="#SimHei-30" transform="translate(50 0)"/>
      </g>
     </g>
    </g>
    <g id="xtick_3">
     <g id="line2d_5">
      <path d="M 233.004216 383.885 
L 233.004216 24.325 
" clip-path="url(#pfa12863f7a)" style="fill: none; stroke: #b0b0b0; stroke-opacity: 0.3; stroke-width: 0.8; stroke-linecap: square"/>
     </g>
     <g id="line2d_6">
      <g>
       <use xlink:href="#m4f20576296" x="233.004216" y="383.885" style="stroke: #000000; stroke-width: 0.8"/>
      </g>
     </g>
     <g id="text_3">
      <!-- 100 -->
      <g transform="translate(224.004216 399.135) scale(0.12 -0.12)">
       <defs>
        <path id="SimHei-31" d="M 1400 3600 
Q 1075 3275 575 2975 
L 575 3450 
Q 1200 3875 1600 4450 
L 1900 4450 
L 1900 150 
L 1400 150 
L 1400 3600 
z
" transform="scale(0.015625)"/>
       </defs>
       <use xlink:href="#SimHei-31"/>
       <use xlink:href="#SimHei-30" transform="translate(50 0)"/>
       <use xlink:href="#SimHei-30" transform="translate(100 0)"/>
      </g>
     </g>
    </g>
    <g id="xtick_4">
     <g id="line2d_7">
      <path d="M 307.120188 383.885 
L 307.120188 24.325 
" clip-path="url(#pfa12863f7a)" style="fill: none; stroke: #b0b0b0; stroke-opacity: 0.3; stroke-width: 0.8; stroke-linecap: square"/>
     </g>
     <g id="line2d_8">
      <g>
       <use xlink:href="#m4f20576296" x="307.120188" y="383.885" style="stroke: #000000; stroke-width: 0.8"/>
      </g>
     </g>
     <g id="text_4">
      <!-- 150 -->
      <g transform="translate(298.120188 399.135) scale(0.12 -0.12)">
       <use xlink:href="#SimHei-31"/>
       <use xlink:href="#SimHei-35" transform="translate(50 0)"/>
       <use xlink:href="#SimHei-30" transform="translate(100 0)"/>
      </g>
     </g>
    </g>
    <g id="xtick_5">
     <g id="line2d_9">
      <path d="M 381.23616 383.885 
L 381.23616 24.325 
" clip-path="url(#pfa12863f7a)" style="fill: none; stroke: #b0b0b0; stroke-opacity: 0.3; stroke-width: 0.8; stroke-linecap: square"/>
     </g>
     <g id="line2d_10">
      <g>
       <use xlink:href="#m4f20576296" x="381.23616" y="383.885" style="stroke: #000000; stroke-width: 0.8"/>
      </g>
     </g>
     <g id="text_5">
      <!-- 200 -->
      <g transform="translate(372.23616 399.135) scale(0.12 -0.12)">
       <defs>
        <path id="SimHei-32" d="M 300 250 
Q 325 625 650 925 
Q 975 1225 1475 1862 
Q 1975 2500 2125 2850 
Q 2275 3200 2237 3450 
Q 2200 3700 2000 3862 
Q 1800 4025 1537 4000 
Q 1275 3975 1037 3800 
Q 800 3625 675 3275 
L 200 3350 
Q 400 3925 712 4187 
Q 1025 4450 1450 4475 
Q 1700 4500 1900 4462 
Q 2100 4425 2312 4287 
Q 2525 4150 2662 3875 
Q 2800 3600 2762 3212 
Q 2725 2825 2375 2287 
Q 2025 1750 1025 600 
L 2825 600 
L 2825 150 
L 300 150 
L 300 250 
z
" transform="scale(0.015625)"/>
       </defs>
       <use xlink:href="#SimHei-32"/>
       <use xlink:href="#SimHei-30" transform="translate(50 0)"/>
       <use xlink:href="#SimHei-30" transform="translate(100 0)"/>
      </g>
     </g>
    </g>
    <g id="xtick_6">
     <g id="line2d_11">
      <path d="M 455.352131 383.885 
L 455.352131 24.325 
" clip-path="url(#pfa12863f7a)" style="fill: none; stroke: #b0b0b0; stroke-opacity: 0.3; stroke-width: 0.8; stroke-linecap: square"/>
     </g>
     <g id="line2d_12">
      <g>
       <use xlink:href="#m4f20576296" x="455.352131" y="383.885" style="stroke: #000000; stroke-width: 0.8"/>
      </g>
     </g>
     <g id="text_6">
      <!-- 250 -->
      <g transform="translate(446.352131 399.135) scale(0.12 -0.12)">
       <use xlink:href="#SimHei-32"/>
       <use xlink:href="#SimHei-35" transform="translate(50 0)"/>
       <use xlink:href="#SimHei-30" transform="translate(100 0)"/>
      </g>
     </g>
    </g>
    <g id="xtick_7">
     <g id="line2d_13">
      <path d="M 529.468103 383.885 
L 529.468103 24.325 
" clip-path="url(#pfa12863f7a)" style="fill: none; stroke: #b0b0b0; stroke-opacity: 0.3; stroke-width: 0.8; stroke-linecap: square"/>
     </g>
     <g id="line2d_14">
      <g>
       <use xlink:href="#m4f20576296" x="529.468103" y="383.885" style="stroke: #000000; stroke-width: 0.8"/>
      </g>
     </g>
     <g id="text_7">
      <!-- 300 -->
      <g transform="translate(520.468103 399.135) scale(0.12 -0.12)">
       <defs>
        <path id="SimHei-33" d="M 250 1225 
L 700 1300 
Q 800 975 1025 762 
Q 1250 550 1587 562 
Q 1925 575 2125 837 
Q 2325 1100 2300 1437 
Q 2275 1775 2037 1962 
Q 1800 2150 1275 2225 
L 1275 2550 
Q 1800 2600 2037 2825 
Q 2275 3050 2250 3412 
Q 2225 3775 1925 3937 
Q 1625 4100 1287 3975 
Q 950 3850 750 3275 
L 300 3350 
Q 450 3800 712 4100 
Q 975 4400 1425 4450 
Q 1875 4500 2212 4337 
Q 2550 4175 2687 3837 
Q 2825 3500 2725 3100 
Q 2625 2700 2150 2400 
Q 2500 2250 2687 1950 
Q 2875 1650 2812 1162 
Q 2750 675 2375 375 
Q 2000 75 1525 87 
Q 1050 100 700 387 
Q 350 675 250 1225 
z
" transform="scale(0.015625)"/>
       </defs>
       <use xlink:href="#SimHei-33"/>
       <use xlink:href="#SimHei-30" transform="translate(50 0)"/>
       <use xlink:href="#SimHei-30" transform="translate(100 0)"/>
      </g>
     </g>
    </g>
    <g id="xtick_8">
     <g id="line2d_15">
      <path d="M 603.584075 383.885 
L 603.584075 24.325 
" clip-path="url(#pfa12863f7a)" style="fill: none; stroke: #b0b0b0; stroke-opacity: 0.3; stroke-width: 0.8; stroke-linecap: square"/>
     </g>
     <g id="line2d_16">
      <g>
       <use xlink:href="#m4f20576296" x="603.584075" y="383.885" style="stroke: #000000; stroke-width: 0.8"/>
      </g>
     </g>
     <g id="text_8">
      <!-- 350 -->
      <g transform="translate(594.584075 399.135) scale(0.12 -0.12)">
       <use xlink:href="#SimHei-33"/>
       <use xlink:href="#SimHei-35" transform="translate(50 0)"/>
       <use xlink:href="#SimHei-30" transform="translate(100 0)"/>
      </g>
     </g>
    </g>
    <g id="xtick_9">
     <g id="line2d_17">
      <path d="M 677.700047 383.885 
L 677.700047 24.325 
" clip-path="url(#pfa12863f7a)" style="fill: none; stroke: #b0b0b0; stroke-opacity: 0.3; stroke-width: 0.8; stroke-linecap: square"/>
     </g>
     <g id="line2d_18">
      <g>
       <use xlink:href="#m4f20576296" x="677.700047" y="383.885" style="stroke: #000000; stroke-width: 0.8"/>
      </g>
     </g>
     <g id="text_9">
      <!-- 400 -->
      <g transform="translate(668.700047 399.135) scale(0.12 -0.12)">
       <defs>
        <path id="SimHei-34" d="M 2000 1100 
L 75 1100 
L 75 1525 
L 2100 4450 
L 2475 4450 
L 2475 1525 
L 3075 1525 
L 3075 1100 
L 2475 1100 
L 2475 150 
L 2000 150 
L 2000 1100 
z
M 2000 1525 
L 2000 3500 
L 600 1525 
L 2000 1525 
z
" transform="scale(0.015625)"/>
       </defs>
       <use xlink:href="#SimHei-34"/>
       <use xlink:href="#SimHei-30" transform="translate(50 0)"/>
       <use xlink:href="#SimHei-30" transform="translate(100 0)"/>
      </g>
     </g>
    </g>
    <g id="text_10">
     <!-- Episode -->
     <g transform="translate(352.495 415.635) scale(0.16 -0.16)">
      <defs>
       <path id="SimHei-45" d="M 2900 125 
L 350 125 
L 350 4400 
L 2775 4400 
L 2775 3925 
L 925 3925 
L 925 2600 
L 2625 2600 
L 2625 2125 
L 925 2125 
L 925 600 
L 2900 600 
L 2900 125 
z
" transform="scale(0.015625)"/>
       <path id="SimHei-70" d="M 2825 1525 
Q 2825 800 2475 425 
Q 2125 50 1625 50 
Q 1350 50 1150 162 
Q 950 275 800 500 
L 800 -800 
L 300 -800 
L 300 2925 
L 800 2925 
L 800 2550 
Q 950 2775 1150 2875 
Q 1350 2975 1625 2975 
Q 2125 2975 2475 2612 
Q 2825 2250 2825 1525 
z
M 2275 1525 
Q 2275 2000 2087 2262 
Q 1900 2525 1525 2525 
Q 1225 2525 1012 2262 
Q 800 2000 800 1525 
Q 800 1050 1012 775 
Q 1225 500 1525 500 
Q 1900 500 2087 775 
Q 2275 1050 2275 1525 
z
" transform="scale(0.015625)"/>
       <path id="SimHei-69" d="M 1800 3725 
L 1300 3725 
L 1300 4375 
L 1800 4375 
L 1800 3725 
z
M 1800 125 
L 1300 125 
L 1300 2925 
L 1800 2925 
L 1800 125 
z
" transform="scale(0.015625)"/>
       <path id="SimHei-73" d="M 2750 900 
Q 2750 500 2437 287 
Q 2125 75 1650 75 
Q 1050 75 725 312 
Q 400 550 400 1000 
L 900 1000 
Q 900 700 1112 600 
Q 1325 500 1625 500 
Q 1925 500 2075 612 
Q 2225 725 2225 900 
Q 2225 1025 2100 1150 
Q 1975 1275 1475 1350 
Q 900 1425 687 1637 
Q 475 1850 475 2200 
Q 475 2500 762 2737 
Q 1050 2975 1600 2975 
Q 2100 2975 2387 2750 
Q 2675 2525 2675 2150 
L 2175 2150 
Q 2175 2375 2012 2462 
Q 1850 2550 1600 2550 
Q 1275 2550 1137 2437 
Q 1000 2325 1000 2175 
Q 1000 2000 1125 1900 
Q 1250 1800 1650 1750 
Q 2300 1650 2525 1437 
Q 2750 1225 2750 900 
z
" transform="scale(0.015625)"/>
       <path id="SimHei-6f" d="M 2925 1525 
Q 2925 875 2525 475 
Q 2125 75 1575 75 
Q 1025 75 625 475 
Q 225 875 225 1525 
Q 225 2175 625 2575 
Q 1025 2975 1575 2975 
Q 2125 2975 2525 2575 
Q 2925 2175 2925 1525 
z
M 2375 1525 
Q 2375 2025 2125 2275 
Q 1875 2525 1575 2525 
Q 1275 2525 1025 2275 
Q 775 2025 775 1525 
Q 775 1025 1025 775 
Q 1275 525 1575 525 
Q 1875 525 2125 775 
Q 2375 1025 2375 1525 
z
" transform="scale(0.015625)"/>
       <path id="SimHei-64" d="M 2750 125 
L 2250 125 
L 2250 500 
Q 2100 275 1900 175 
Q 1700 75 1425 75 
Q 925 75 575 437 
Q 225 800 225 1525 
Q 225 2250 575 2625 
Q 925 3000 1425 3000 
Q 1700 3000 1900 2887 
Q 2100 2775 2250 2550 
L 2250 4400 
L 2750 4400 
L 2750 125 
z
M 2250 1525 
Q 2250 2000 2037 2275 
Q 1825 2550 1525 2550 
Q 1150 2550 962 2275 
Q 775 2000 775 1525 
Q 775 1050 962 787 
Q 1150 525 1525 525 
Q 1825 525 2037 787 
Q 2250 1050 2250 1525 
z
" transform="scale(0.015625)"/>
       <path id="SimHei-65" d="M 2850 1075 
Q 2800 625 2450 350 
Q 2100 75 1625 75 
Q 1025 75 637 462 
Q 250 850 250 1525 
Q 250 2200 637 2587 
Q 1025 2975 1625 2975 
Q 2150 2975 2487 2637 
Q 2825 2300 2825 1525 
L 800 1525 
Q 800 975 1037 750 
Q 1275 525 1625 525 
Q 1900 525 2075 662 
Q 2250 800 2300 1075 
L 2850 1075 
z
M 2250 1925 
Q 2200 2275 2025 2412 
Q 1850 2550 1575 2550 
Q 1325 2550 1125 2412 
Q 925 2275 825 1925 
L 2250 1925 
z
" transform="scale(0.015625)"/>
      </defs>
      <use xlink:href="#SimHei-45"/>
      <use xlink:href="#SimHei-70" transform="translate(50 0)"/>
      <use xlink:href="#SimHei-69" transform="translate(100 0)"/>
      <use xlink:href="#SimHei-73" transform="translate(150 0)"/>
      <use xlink:href="#SimHei-6f" transform="translate(200 0)"/>
      <use xlink:href="#SimHei-64" transform="translate(250 0)"/>
      <use xlink:href="#SimHei-65" transform="translate(300 0)"/>
     </g>
    </g>
   </g>
   <g id="matplotlib.axis_2">
    <g id="ytick_1">
     <g id="line2d_19">
      <path d="M 55.2 336.377578 
L 705.79 336.377578 
" clip-path="url(#pfa12863f7a)" style="fill: none; stroke: #b0b0b0; stroke-opacity: 0.3; stroke-width: 0.8; stroke-linecap: square"/>
     </g>
     <g id="line2d_20">
      <defs>
       <path id="mf2e2c050c6" d="M 0 0 
L -3.5 0 
" style="stroke: #000000; stroke-width: 0.8"/>
      </defs>
      <g>
       <use xlink:href="#mf2e2c050c6" x="55.2" y="336.377578" style="stroke: #000000; stroke-width: 0.8"/>
      </g>
     </g>
     <g id="text_11">
      <!-- 600 -->
      <g transform="translate(30.2 340.502578) scale(0.12 -0.12)">
       <defs>
        <path id="SimHei-36" d="M 250 1612 
Q 275 1975 387 2225 
Q 500 2475 725 2850 
L 1750 4450 
L 2325 4450 
L 1275 2800 
Q 1950 2975 2350 2750 
Q 2750 2525 2887 2237 
Q 3025 1950 3037 1612 
Q 3050 1275 2937 950 
Q 2825 625 2537 362 
Q 2250 100 1737 75 
Q 1225 50 862 262 
Q 500 475 362 862 
Q 225 1250 250 1612 
z
M 1025 787 
Q 1250 550 1625 525 
Q 2000 500 2250 775 
Q 2500 1050 2500 1575 
Q 2500 2100 2187 2300 
Q 1875 2500 1487 2450 
Q 1100 2400 925 2075 
Q 750 1750 775 1387 
Q 800 1025 1025 787 
z
" transform="scale(0.015625)"/>
       </defs>
       <use xlink:href="#SimHei-36"/>
       <use xlink:href="#SimHei-30" transform="translate(50 0)"/>
       <use xlink:href="#SimHei-30" transform="translate(100 0)"/>
      </g>
     </g>
    </g>
    <g id="ytick_2">
     <g id="line2d_21">
      <path d="M 55.2 275.196238 
L 705.79 275.196238 
" clip-path="url(#pfa12863f7a)" style="fill: none; stroke: #b0b0b0; stroke-opacity: 0.3; stroke-width: 0.8; stroke-linecap: square"/>
     </g>
     <g id="line2d_22">
      <g>
       <use xlink:href="#mf2e2c050c6" x="55.2" y="275.196238" style="stroke: #000000; stroke-width: 0.8"/>
      </g>
     </g>
     <g id="text_12">
      <!-- 800 -->
      <g transform="translate(30.2 279.321238) scale(0.12 -0.12)">
       <defs>
        <path id="SimHei-38" d="M 175 1375 
Q 175 1675 325 1962 
Q 475 2250 825 2425 
Q 525 2600 425 2812 
Q 325 3025 312 3300 
Q 300 3575 387 3775 
Q 475 3975 650 4150 
Q 825 4325 1037 4387 
Q 1250 4450 1500 4450 
Q 1750 4450 1950 4400 
Q 2150 4350 2375 4187 
Q 2600 4025 2700 3725 
Q 2800 3425 2687 3025 
Q 2575 2625 2100 2400 
Q 2525 2275 2700 2012 
Q 2875 1750 2875 1375 
Q 2875 1000 2762 775 
Q 2650 550 2512 400 
Q 2375 250 2137 162 
Q 1900 75 1537 75 
Q 1175 75 912 162 
Q 650 250 475 425 
Q 300 600 237 837 
Q 175 1075 175 1375 
z
M 687 1400 
Q 675 1100 787 875 
Q 900 650 1200 587 
Q 1500 525 1825 600 
Q 2150 675 2275 950 
Q 2400 1225 2362 1500 
Q 2325 1775 2050 1962 
Q 1775 2150 1450 2125 
Q 1125 2100 912 1900 
Q 700 1700 687 1400 
z
M 775 3350 
Q 775 3100 950 2875 
Q 1125 2650 1500 2650 
Q 1875 2650 2062 2875 
Q 2250 3100 2237 3412 
Q 2225 3725 2012 3875 
Q 1800 4025 1437 4000 
Q 1075 3975 925 3787 
Q 775 3600 775 3350 
z
" transform="scale(0.015625)"/>
       </defs>
       <use xlink:href="#SimHei-38"/>
       <use xlink:href="#SimHei-30" transform="translate(50 0)"/>
       <use xlink:href="#SimHei-30" transform="translate(100 0)"/>
      </g>
     </g>
    </g>
    <g id="ytick_3">
     <g id="line2d_23">
      <path d="M 55.2 214.014898 
L 705.79 214.014898 
" clip-path="url(#pfa12863f7a)" style="fill: none; stroke: #b0b0b0; stroke-opacity: 0.3; stroke-width: 0.8; stroke-linecap: square"/>
     </g>
     <g id="line2d_24">
      <g>
       <use xlink:href="#mf2e2c050c6" x="55.2" y="214.014898" style="stroke: #000000; stroke-width: 0.8"/>
      </g>
     </g>
     <g id="text_13">
      <!-- 1000 -->
      <g transform="translate(24.2 218.139898) scale(0.12 -0.12)">
       <use xlink:href="#SimHei-31"/>
       <use xlink:href="#SimHei-30" transform="translate(50 0)"/>
       <use xlink:href="#SimHei-30" transform="translate(100 0)"/>
       <use xlink:href="#SimHei-30" transform="translate(150 0)"/>
      </g>
     </g>
    </g>
    <g id="ytick_4">
     <g id="line2d_25">
      <path d="M 55.2 152.833557 
L 705.79 152.833557 
" clip-path="url(#pfa12863f7a)" style="fill: none; stroke: #b0b0b0; stroke-opacity: 0.3; stroke-width: 0.8; stroke-linecap: square"/>
     </g>
     <g id="line2d_26">
      <g>
       <use xlink:href="#mf2e2c050c6" x="55.2" y="152.833557" style="stroke: #000000; stroke-width: 0.8"/>
      </g>
     </g>
     <g id="text_14">
      <!-- 1200 -->
      <g transform="translate(24.2 156.958557) scale(0.12 -0.12)">
       <use xlink:href="#SimHei-31"/>
       <use xlink:href="#SimHei-32" transform="translate(50 0)"/>
       <use xlink:href="#SimHei-30" transform="translate(100 0)"/>
       <use xlink:href="#SimHei-30" transform="translate(150 0)"/>
      </g>
     </g>
    </g>
    <g id="ytick_5">
     <g id="line2d_27">
      <path d="M 55.2 91.652217 
L 705.79 91.652217 
" clip-path="url(#pfa12863f7a)" style="fill: none; stroke: #b0b0b0; stroke-opacity: 0.3; stroke-width: 0.8; stroke-linecap: square"/>
     </g>
     <g id="line2d_28">
      <g>
       <use xlink:href="#mf2e2c050c6" x="55.2" y="91.652217" style="stroke: #000000; stroke-width: 0.8"/>
      </g>
     </g>
     <g id="text_15">
      <!-- 1400 -->
      <g transform="translate(24.2 95.777217) scale(0.12 -0.12)">
       <use xlink:href="#SimHei-31"/>
       <use xlink:href="#SimHei-34" transform="translate(50 0)"/>
       <use xlink:href="#SimHei-30" transform="translate(100 0)"/>
       <use xlink:href="#SimHei-30" transform="translate(150 0)"/>
      </g>
     </g>
    </g>
    <g id="ytick_6">
     <g id="line2d_29">
      <path d="M 55.2 30.470876 
L 705.79 30.470876 
" clip-path="url(#pfa12863f7a)" style="fill: none; stroke: #b0b0b0; stroke-opacity: 0.3; stroke-width: 0.8; stroke-linecap: square"/>
     </g>
     <g id="line2d_30">
      <g>
       <use xlink:href="#mf2e2c050c6" x="55.2" y="30.470876" style="stroke: #000000; stroke-width: 0.8"/>
      </g>
     </g>
     <g id="text_16">
      <!-- 1600 -->
      <g transform="translate(24.2 34.595876) scale(0.12 -0.12)">
       <use xlink:href="#SimHei-31"/>
       <use xlink:href="#SimHei-36" transform="translate(50 0)"/>
       <use xlink:href="#SimHei-30" transform="translate(100 0)"/>
       <use xlink:href="#SimHei-30" transform="translate(150 0)"/>
      </g>
     </g>
    </g>
    <g id="text_17">
     <!-- Total Reward -->
     <g transform="translate(18.2 252.105) rotate(-90) scale(0.16 -0.16)">
      <defs>
       <path id="SimHei-54" d="M 2850 3925 
L 1850 3925 
L 1850 125 
L 1275 125 
L 1275 3925 
L 275 3925 
L 275 4400 
L 2850 4400 
L 2850 3925 
z
" transform="scale(0.015625)"/>
       <path id="SimHei-74" d="M 2750 200 
Q 2625 150 2462 112 
Q 2300 75 2025 75 
Q 1575 75 1300 325 
Q 1025 575 1025 1025 
L 1025 2525 
L 175 2525 
L 175 2925 
L 1025 2925 
L 1025 3900 
L 1525 3900 
L 1525 2925 
L 2550 2925 
L 2550 2525 
L 1525 2525 
L 1525 1000 
Q 1525 800 1625 662 
Q 1725 525 2000 525 
Q 2275 525 2450 575 
Q 2625 625 2750 700 
L 2750 200 
z
" transform="scale(0.015625)"/>
       <path id="SimHei-61" d="M 2875 125 
L 2275 125 
Q 2225 175 2200 262 
Q 2175 350 2175 475 
Q 2000 275 1750 175 
Q 1500 75 1225 75 
Q 825 75 550 275 
Q 275 475 275 850 
Q 275 1225 525 1450 
Q 775 1675 1300 1750 
Q 1650 1800 1912 1875 
Q 2175 1950 2175 2075 
Q 2175 2225 2062 2375 
Q 1950 2525 1575 2525 
Q 1275 2525 1137 2412 
Q 1000 2300 950 2100 
L 400 2100 
Q 450 2500 762 2737 
Q 1075 2975 1575 2975 
Q 2125 2975 2400 2725 
Q 2675 2475 2675 2025 
L 2675 650 
Q 2675 500 2725 375 
Q 2775 250 2875 125 
z
M 2175 1050 
L 2175 1550 
Q 2025 1500 1887 1462 
Q 1750 1425 1425 1375 
Q 1050 1325 937 1200 
Q 825 1075 825 900 
Q 825 750 937 637 
Q 1050 525 1275 525 
Q 1500 525 1762 650 
Q 2025 775 2175 1050 
z
" transform="scale(0.015625)"/>
       <path id="SimHei-6c" d="M 1825 125 
L 1325 125 
L 1325 4400 
L 1825 4400 
L 1825 125 
z
" transform="scale(0.015625)"/>
       <path id="SimHei-20" transform="scale(0.015625)"/>
       <path id="SimHei-52" d="M 3000 125 
L 2400 125 
L 1500 1975 
L 850 1975 
L 850 125 
L 275 125 
L 275 4400 
L 1525 4400 
Q 2125 4400 2500 4112 
Q 2875 3825 2875 3175 
Q 2875 2675 2625 2400 
Q 2375 2125 2050 2050 
L 3000 125 
z
M 2300 3175 
Q 2300 3525 2087 3725 
Q 1875 3925 1400 3925 
L 850 3925 
L 850 2450 
L 1550 2450 
Q 1850 2450 2075 2612 
Q 2300 2775 2300 3175 
z
" transform="scale(0.015625)"/>
       <path id="SimHei-77" d="M 3075 2925 
L 2450 75 
L 1975 75 
L 1575 2250 
L 1525 2250 
L 1125 75 
L 650 75 
L 25 2925 
L 550 2925 
L 875 1050 
L 925 1050 
L 1275 2925 
L 1825 2925 
L 2175 1050 
L 2225 1050 
L 2550 2925 
L 3075 2925 
z
" transform="scale(0.015625)"/>
       <path id="SimHei-72" d="M 2500 2425 
Q 2025 2500 1700 2287 
Q 1375 2075 1150 1550 
L 1150 125 
L 650 125 
L 650 2925 
L 1150 2925 
L 1150 2200 
Q 1375 2600 1712 2787 
Q 2050 2975 2500 2975 
L 2500 2425 
z
" transform="scale(0.015625)"/>
      </defs>
      <use xlink:href="#SimHei-54"/>
      <use xlink:href="#SimHei-6f" transform="translate(50 0)"/>
      <use xlink:href="#SimHei-74" transform="translate(100 0)"/>
      <use xlink:href="#SimHei-61" transform="translate(150 0)"/>
      <use xlink:href="#SimHei-6c" transform="translate(200 0)"/>
      <use xlink:href="#SimHei-20" transform="translate(250 0)"/>
      <use xlink:href="#SimHei-52" transform="translate(300 0)"/>
      <use xlink:href="#SimHei-65" transform="translate(350 0)"/>
      <use xlink:href="#SimHei-77" transform="translate(400 0)"/>
      <use xlink:href="#SimHei-61" transform="translate(450 0)"/>
      <use xlink:href="#SimHei-72" transform="translate(500 0)"/>
      <use xlink:href="#SimHei-64" transform="translate(550 0)"/>
     </g>
    </g>
   </g>
   <g id="line2d_31">
    <path d="M 84.772273 339.783211 
L 86.254592 335.368909 
L 87.736912 334.314609 
L 89.219231 339.353972 
L 90.70155 341.439851 
L 92.18387 334.421796 
L 93.666189 332.020533 
L 95.148509 340.650811 
L 96.630828 339.926778 
L 98.113148 342.8052 
L 99.595467 337.374147 
L 101.077787 339.609084 
L 102.560106 341.067337 
L 104.042425 328.515573 
L 105.524745 324.980061 
L 107.007064 335.319627 
L 108.489384 356.361311 
L 109.971703 353.519476 
L 111.454023 354.272385 
L 112.936342 357.43442 
L 114.418661 352.382911 
L 115.900981 348.65252 
L 117.3833 344.28808 
L 118.86562 345.860116 
L 120.347939 334.450906 
L 121.830259 346.160947 
L 123.312578 344.89227 
L 124.794897 340.531416 
L 126.277217 343.457191 
L 127.759536 349.52736 
L 129.241856 345.235869 
L 130.724175 342.644379 
L 132.206495 339.479774 
L 133.688814 337.528188 
L 136.653453 285.737021 
L 139.618092 241.533873 
L 141.100411 223.365016 
L 144.06505 192.266054 
L 147.029689 165.654033 
L 148.512008 154.072792 
L 149.994328 143.492272 
L 151.476647 131.102874 
L 152.958967 122.330246 
L 154.441286 117.081415 
L 155.923606 111.024878 
L 158.888244 97.881615 
L 160.370564 93.593566 
L 161.852883 87.601949 
L 163.335203 84.355338 
L 164.817522 79.211206 
L 166.299842 74.99968 
L 169.264481 71.279043 
L 170.7468 70.547007 
L 172.229119 67.132915 
L 173.711439 64.010584 
L 175.193758 64.823716 
L 176.676078 63.163968 
L 178.158397 62.414124 
L 179.640717 60.711929 
L 181.123036 60.490223 
L 184.087675 56.212301 
L 185.569994 56.665465 
L 187.052314 58.298337 
L 188.534633 57.736763 
L 190.016953 56.563327 
L 191.499272 58.140965 
L 192.981591 57.488117 
L 194.463911 55.019475 
L 195.94623 55.627871 
L 197.42855 53.019006 
L 198.910869 50.713612 
L 200.393189 48.623426 
L 201.875508 48.657022 
L 203.357828 48.297941 
L 204.840147 49.723408 
L 206.322466 49.553391 
L 207.804786 50.196268 
L 209.287105 51.103056 
L 210.769425 50.600625 
L 212.251744 53.022984 
L 213.734064 53.432854 
L 215.216383 52.79271 
L 216.698702 51.686627 
L 219.663341 48.195472 
L 221.145661 49.23528 
L 222.62798 52.11798 
L 224.1103 51.018151 
L 225.592619 50.169211 
L 227.074938 49.098956 
L 228.557258 49.618071 
L 230.039577 48.670239 
L 231.521897 49.497358 
L 233.004216 48.988762 
L 234.486536 49.335851 
L 235.968855 46.702407 
L 237.451175 47.666028 
L 238.933494 47.645194 
L 240.415813 49.06025 
L 241.898133 50.718167 
L 243.380452 52.001003 
L 244.862772 52.691919 
L 246.345091 52.703292 
L 247.827411 51.306557 
L 249.30973 52.194098 
L 250.792049 49.130942 
L 252.274369 48.599286 
L 253.756688 47.480574 
L 256.721327 49.349549 
L 258.203647 47.49347 
L 259.685966 46.467272 
L 261.168285 47.646084 
L 262.650605 47.131258 
L 264.132924 47.056274 
L 265.615244 48.474801 
L 267.097563 47.823548 
L 268.579883 49.158638 
L 270.062202 49.200304 
L 271.544522 53.415124 
L 273.026841 56.49186 
L 274.50916 60.427983 
L 275.99148 60.875384 
L 277.473799 57.912332 
L 278.956119 55.939478 
L 280.438438 54.979773 
L 281.920758 57.199057 
L 283.403077 58.408264 
L 284.885396 60.547489 
L 286.367716 60.441559 
L 287.850035 59.818665 
L 289.332355 60.314119 
L 290.814674 57.159208 
L 292.296994 54.903016 
L 293.779313 53.399922 
L 295.261632 52.997002 
L 296.743952 50.703887 
L 298.226271 50.146745 
L 299.708591 50.207401 
L 301.19091 50.010078 
L 302.67323 49.518056 
L 304.155549 49.175547 
L 305.637869 48.564859 
L 307.120188 49.256431 
L 310.084827 49.228151 
L 311.567146 51.63004 
L 313.049466 50.030464 
L 314.531785 48.709758 
L 316.014105 46.760308 
L 317.496424 46.149779 
L 320.461063 47.324435 
L 321.943382 48.139281 
L 323.425702 46.068146 
L 324.908021 46.585829 
L 326.390341 49.587514 
L 329.354979 48.609654 
L 332.319618 47.039298 
L 333.801938 46.197805 
L 335.284257 47.63811 
L 336.766577 47.194537 
L 338.248896 45.497853 
L 339.731216 44.778846 
L 342.695854 50.261072 
L 344.178174 48.735578 
L 345.660493 48.626828 
L 347.142813 49.55313 
L 348.625132 49.578161 
L 351.589771 47.108327 
L 353.07209 47.797829 
L 354.55441 48.721262 
L 356.036729 50.136206 
L 357.519049 47.942941 
L 359.001368 50.463132 
L 360.483688 49.166271 
L 361.966007 51.064531 
L 363.448326 50.966252 
L 364.930646 50.63265 
L 366.412965 50.893662 
L 369.377604 46.572428 
L 370.859924 46.642828 
L 372.342243 47.092913 
L 373.824563 49.178158 
L 375.306882 50.594217 
L 376.789201 50.72337 
L 378.271521 51.903906 
L 379.75384 54.277836 
L 381.23616 52.234015 
L 382.718479 51.47394 
L 384.200799 50.285328 
L 385.683118 51.787273 
L 387.165437 50.147964 
L 388.647757 49.996045 
L 390.130076 48.364919 
L 391.612396 48.98703 
L 393.094715 49.019257 
L 394.577035 48.460678 
L 396.059354 48.495743 
L 397.541674 46.813824 
L 399.023993 47.328295 
L 400.506312 46.257901 
L 401.988632 46.1901 
L 403.470951 45.678628 
L 404.953271 46.719452 
L 406.43559 47.988253 
L 407.91791 46.909015 
L 409.400229 49.387653 
L 410.882548 47.493394 
L 413.847187 45.959289 
L 415.329507 44.502267 
L 418.294146 45.405627 
L 419.776465 44.199015 
L 421.258784 45.048931 
L 422.741104 47.857241 
L 424.223423 47.236911 
L 425.705743 44.907701 
L 427.188062 45.616939 
L 428.670382 46.181777 
L 430.152701 48.774173 
L 431.635021 49.879828 
L 433.11734 51.881989 
L 434.599659 48.297783 
L 437.564298 43.519644 
L 439.046618 44.049781 
L 440.528937 43.307244 
L 442.011257 44.040035 
L 443.493576 43.864166 
L 444.975895 45.947357 
L 446.458215 46.37564 
L 447.940534 46.920252 
L 449.422854 47.032584 
L 450.905173 48.042688 
L 452.387493 47.651746 
L 453.869812 46.835734 
L 455.352131 48.173902 
L 456.834451 48.341848 
L 458.31677 47.753986 
L 459.79909 49.644297 
L 461.281409 48.38599 
L 462.763729 48.126358 
L 464.246048 47.196166 
L 465.728368 45.102882 
L 467.210687 49.651017 
L 468.693006 49.733249 
L 470.175326 50.31647 
L 471.657645 51.405114 
L 473.139965 50.754945 
L 474.622284 52.127098 
L 477.586923 47.508032 
L 479.069242 45.711831 
L 480.551562 47.201381 
L 482.033881 45.240759 
L 483.516201 45.926699 
L 484.99852 48.295673 
L 486.48084 49.708584 
L 487.963159 49.751044 
L 489.445478 50.068587 
L 490.927798 52.169982 
L 493.892437 52.098979 
L 495.374756 49.209021 
L 496.857076 48.344782 
L 498.339395 49.885615 
L 499.821715 50.398481 
L 501.304034 49.587502 
L 502.786353 51.077221 
L 504.268673 52.328808 
L 505.750992 55.215516 
L 507.233312 53.754298 
L 508.715631 52.474766 
L 510.197951 53.44002 
L 511.68027 52.358727 
L 513.162589 50.973397 
L 514.644909 50.319482 
L 516.127228 50.043397 
L 517.609548 49.971239 
L 519.091867 52.949856 
L 520.574187 51.450685 
L 522.056506 48.382896 
L 523.538825 48.087156 
L 525.021145 46.813746 
L 526.503464 46.457589 
L 527.985784 46.314002 
L 529.468103 48.162023 
L 530.950423 47.490109 
L 532.432742 48.55296 
L 533.915062 48.446761 
L 535.397381 49.197225 
L 536.8797 47.911214 
L 538.36202 48.800213 
L 539.844339 50.571504 
L 541.326659 53.176331 
L 542.808978 52.549921 
L 544.291298 52.106362 
L 545.773617 50.428351 
L 547.255936 49.533005 
L 548.738256 50.586919 
L 550.220575 52.43956 
L 551.702895 51.704588 
L 553.185214 53.769593 
L 554.667534 51.759352 
L 556.149853 51.019151 
L 559.114492 48.97643 
L 560.596811 51.242978 
L 562.079131 51.60634 
L 563.56145 51.759479 
L 565.04377 50.755166 
L 566.526089 50.79433 
L 568.008409 49.986746 
L 569.490728 48.035335 
L 570.973047 47.529791 
L 573.937686 46.962965 
L 575.420006 47.471871 
L 576.902325 49.442478 
L 578.384645 50.245351 
L 579.866964 48.391395 
L 581.349283 49.095122 
L 582.831603 47.038296 
L 584.313922 49.558081 
L 585.796242 50.158329 
L 587.278561 48.502366 
L 588.760881 50.461627 
L 590.2432 49.223086 
L 591.725519 49.339322 
L 593.207839 50.391125 
L 594.690158 49.954588 
L 596.172478 48.486498 
L 597.654797 49.701702 
L 599.137117 48.983833 
L 600.619436 49.2292 
L 602.101756 48.049708 
L 603.584075 48.755948 
L 605.066394 48.116362 
L 606.548714 46.95565 
L 608.031033 44.935183 
L 609.513353 44.749504 
L 610.995672 44.331952 
L 612.477992 42.25042 
L 613.960311 44.2081 
L 615.44263 44.028083 
L 616.92495 44.253823 
L 618.407269 43.836795 
L 619.889589 45.406943 
L 621.371908 46.564362 
L 622.854228 48.90536 
L 624.336547 48.882797 
L 625.818866 48.103402 
L 627.301186 47.043038 
L 628.783505 44.32393 
L 630.265825 43.631953 
L 631.748144 43.600233 
L 633.230464 45.224673 
L 634.712783 47.376857 
L 636.195103 46.250322 
L 637.677422 47.246214 
L 639.159741 49.192063 
L 640.642061 49.934062 
L 643.6067 47.022198 
L 645.089019 48.315091 
L 646.571339 48.312384 
L 648.053658 47.783134 
L 649.535977 50.745596 
L 651.018297 50.822336 
L 652.500616 48.375055 
L 653.982936 50.284884 
L 655.465255 47.080446 
L 656.947575 46.383259 
L 658.429894 44.816417 
L 659.912213 43.989508 
L 661.394533 46.733284 
L 662.876852 45.222043 
L 664.359172 45.48632 
L 665.841491 45.07904 
L 667.323811 45.471592 
L 668.80613 44.946702 
L 670.28845 45.368175 
L 671.770769 45.500445 
L 673.253088 48.064702 
L 674.735408 50.01681 
L 676.217727 50.697516 
L 676.217727 50.697516 
" clip-path="url(#pfa12863f7a)" style="fill: none; stroke: #1f77b4; stroke-width: 1.5; stroke-linecap: square"/>
   </g>
   <g id="line2d_32">
    <path d="M 84.772273 257.451366 
L 86.254592 255.68199 
L 87.736912 268.918223 
L 89.219231 270.765259 
L 90.70155 283.745054 
L 92.18387 290.436215 
L 93.666189 290.337461 
L 95.148509 288.565801 
L 96.630828 299.003432 
L 98.113148 296.903074 
L 99.595467 292.801503 
L 101.077787 287.886862 
L 102.560106 292.877132 
L 104.042425 296.150358 
L 105.524745 295.335506 
L 107.007064 302.891898 
L 108.489384 308.367598 
L 109.971703 305.072982 
L 111.454023 296.643792 
L 112.936342 297.248273 
L 114.418661 296.275853 
L 115.900981 292.282321 
L 117.3833 286.904785 
L 118.86562 285.203763 
L 120.347939 285.47975 
L 121.830259 305.984723 
L 123.312578 301.98044 
L 124.794897 301.787038 
L 126.277217 291.588636 
L 127.759536 299.910398 
L 129.241856 315.779095 
L 130.724175 311.279076 
L 132.206495 303.1351 
L 133.688814 307.396303 
L 135.171134 314.489791 
L 136.653453 313.401197 
L 138.135772 332.075685 
L 139.618092 333.414 
L 141.100411 326.754364 
L 142.582731 327.871874 
L 144.06505 338.392272 
L 145.54737 341.051407 
L 147.029689 332.902026 
L 148.512008 336.155101 
L 149.994328 340.438662 
L 151.476647 342.486823 
L 152.958967 337.540408 
L 154.441286 304.847823 
L 155.923606 277.85419 
L 157.405925 254.129181 
L 160.370564 212.770194 
L 161.852883 195.809977 
L 163.335203 184.271569 
L 166.299842 157.705553 
L 172.229119 121.169619 
L 173.711439 114.71119 
L 175.193758 109.962828 
L 176.676078 104.631114 
L 178.158397 95.336722 
L 181.123036 84.492042 
L 182.605355 80.268184 
L 184.087675 76.889604 
L 185.569994 72.754839 
L 187.052314 71.770261 
L 188.534633 69.103981 
L 190.016953 67.317731 
L 191.499272 64.337074 
L 192.981591 62.795809 
L 194.463911 62.46831 
L 197.42855 58.532579 
L 198.910869 58.848743 
L 200.393189 56.275988 
L 203.357828 52.261636 
L 204.840147 54.55808 
L 206.322466 53.591862 
L 207.804786 54.519291 
L 209.287105 52.10291 
L 210.769425 54.302944 
L 212.251744 53.169369 
L 213.734064 54.491188 
L 215.216383 54.628154 
L 216.698702 55.620975 
L 218.181022 53.157904 
L 219.663341 51.751001 
L 221.145661 51.150849 
L 222.62798 51.205486 
L 224.1103 50.600628 
L 225.592619 50.713349 
L 227.074938 51.589057 
L 228.557258 52.706132 
L 230.039577 53.160524 
L 231.521897 51.679935 
L 233.004216 52.42591 
L 234.486536 52.571696 
L 235.968855 51.683755 
L 237.451175 51.712054 
L 238.933494 54.388418 
L 240.415813 55.044855 
L 241.898133 54.815398 
L 243.380452 54.803383 
L 244.862772 53.988922 
L 246.345091 52.133623 
L 247.827411 52.066816 
L 249.30973 52.554052 
L 250.792049 53.498759 
L 252.274369 55.932027 
L 253.756688 56.897065 
L 255.239008 57.547596 
L 256.721327 57.110663 
L 259.685966 54.536523 
L 261.168285 51.722941 
L 262.650605 50.891134 
L 264.132924 50.205413 
L 265.615244 51.208455 
L 267.097563 49.930646 
L 268.579883 50.185272 
L 271.544522 50.954523 
L 273.026841 48.602173 
L 274.50916 51.957015 
L 275.99148 53.102295 
L 277.473799 52.7239 
L 278.956119 51.080368 
L 280.438438 49.84612 
L 281.920758 51.322278 
L 283.403077 54.173145 
L 284.885396 54.076307 
L 286.367716 54.623523 
L 287.850035 53.187929 
L 289.332355 50.822885 
L 290.814674 49.667619 
L 292.296994 48.054638 
L 293.779313 47.106056 
L 295.261632 47.230229 
L 296.743952 47.108508 
L 298.226271 46.502215 
L 299.708591 47.253571 
L 301.19091 47.323744 
L 302.67323 46.018594 
L 304.155549 45.888102 
L 305.637869 49.969482 
L 307.120188 48.980722 
L 308.602507 48.876496 
L 310.084827 49.647131 
L 311.567146 49.33379 
L 313.049466 48.068817 
L 314.531785 48.715789 
L 316.014105 46.761979 
L 317.496424 46.788024 
L 318.978743 45.405301 
L 321.943382 45.354848 
L 323.425702 46.068744 
L 324.908021 48.11753 
L 326.390341 48.232765 
L 327.87266 51.96494 
L 329.354979 50.884696 
L 330.837299 52.778702 
L 332.319618 51.932405 
L 333.801938 52.629924 
L 335.284257 54.555276 
L 336.766577 52.927195 
L 338.248896 54.096419 
L 341.213535 52.362033 
L 342.695854 52.162598 
L 344.178174 52.772806 
L 345.660493 53.025058 
L 347.142813 53.713505 
L 348.625132 53.448383 
L 350.107452 52.718187 
L 351.589771 49.575219 
L 353.07209 47.213087 
L 354.55441 45.743958 
L 356.036729 46.521757 
L 357.519049 47.903378 
L 359.001368 46.611969 
L 360.483688 48.681484 
L 361.966007 48.316552 
L 363.448326 46.470567 
L 364.930646 46.707179 
L 366.412965 48.611815 
L 367.895285 50.249962 
L 370.859924 49.462565 
L 372.342243 45.633038 
L 373.824563 46.61327 
L 375.306882 46.65571 
L 376.789201 47.100945 
L 378.271521 47.016256 
L 379.75384 46.331334 
L 381.23616 45.965741 
L 384.200799 41.856269 
L 385.683118 41.690853 
L 387.165437 45.455752 
L 388.647757 46.986903 
L 390.130076 46.974305 
L 391.612396 47.439799 
L 393.094715 49.147123 
L 394.577035 51.029916 
L 396.059354 48.874502 
L 397.541674 48.263068 
L 399.023993 47.364605 
L 400.506312 49.762732 
L 401.988632 51.010836 
L 403.470951 49.742081 
L 404.953271 49.012056 
L 406.43559 47.902343 
L 407.91791 46.944892 
L 409.400229 46.646928 
L 410.882548 44.900011 
L 412.364868 46.171363 
L 413.847187 47.028806 
L 415.329507 51.794969 
L 416.811826 47.721816 
L 418.294146 46.733057 
L 419.776465 45.395227 
L 421.258784 46.09444 
L 422.741104 46.982797 
L 424.223423 47.442163 
L 425.705743 46.310307 
L 427.188062 45.674923 
L 428.670382 47.238692 
L 430.152701 49.154112 
L 433.11734 50.341621 
L 434.599659 52.095018 
L 436.081979 50.4579 
L 437.564298 51.483696 
L 439.046618 49.127707 
L 440.528937 49.653616 
L 442.011257 48.140103 
L 443.493576 46.227482 
L 444.975895 47.67158 
L 446.458215 49.703731 
L 447.940534 47.014441 
L 449.422854 47.353366 
L 450.905173 46.562139 
L 452.387493 47.491501 
L 455.352131 50.178588 
L 456.834451 50.342775 
L 458.31677 49.750868 
L 459.79909 50.124124 
L 461.281409 50.327067 
L 462.763729 49.649546 
L 465.728368 53.157958 
L 467.210687 53.625368 
L 468.693006 52.053255 
L 470.175326 54.107173 
L 471.657645 53.799933 
L 473.139965 54.779953 
L 474.622284 52.58468 
L 476.104604 52.977192 
L 477.586923 52.63505 
L 479.069242 50.585101 
L 480.551562 50.763738 
L 482.033881 52.06881 
L 483.516201 49.541745 
L 484.99852 50.183703 
L 486.48084 51.405618 
L 487.963159 50.068379 
L 489.445478 51.453005 
L 490.927798 52.175067 
L 492.410117 51.913073 
L 493.892437 53.048663 
L 495.374756 54.589566 
L 496.857076 51.709108 
L 498.339395 53.923302 
L 499.821715 50.531166 
L 501.304034 51.384439 
L 502.786353 50.827063 
L 504.268673 51.072731 
L 505.750992 50.872831 
L 507.233312 49.217816 
L 510.197951 50.007734 
L 511.68027 53.389478 
L 513.162589 54.761607 
L 514.644909 52.887203 
L 516.127228 53.073615 
L 517.609548 52.872949 
L 519.091867 54.790546 
L 520.574187 53.551459 
L 522.056506 55.091613 
L 523.538825 52.850545 
L 525.021145 53.98322 
L 526.503464 51.738452 
L 527.985784 52.115803 
L 529.468103 51.596901 
L 530.950423 50.434545 
L 532.432742 48.833941 
L 533.915062 49.586335 
L 535.397381 51.273493 
L 536.8797 52.239665 
L 538.36202 51.572445 
L 539.844339 49.229413 
L 541.326659 50.229999 
L 542.808978 50.596076 
L 544.291298 52.617197 
L 545.773617 51.359195 
L 547.255936 52.347892 
L 548.738256 52.153679 
L 550.220575 50.92459 
L 551.702895 50.671925 
L 553.185214 51.613744 
L 554.667534 51.499373 
L 556.149853 50.24906 
L 557.632172 51.79685 
L 559.114492 52.03993 
L 562.079131 46.667286 
L 563.56145 48.95645 
L 565.04377 49.287757 
L 566.526089 48.378281 
L 568.008409 47.301851 
L 569.490728 46.700673 
L 570.973047 47.76963 
L 572.455367 48.226594 
L 573.937686 46.837572 
L 575.420006 45.686621 
L 576.902325 45.873532 
L 578.384645 48.845836 
L 579.866964 49.099218 
L 581.349283 51.01583 
L 582.831603 51.390941 
L 584.313922 51.549896 
L 585.796242 53.016917 
L 587.278561 51.319569 
L 588.760881 50.662067 
L 590.2432 51.656591 
L 591.725519 52.315359 
L 593.207839 52.775216 
L 594.690158 52.207128 
L 596.172478 50.948425 
L 597.654797 50.909496 
L 599.137117 50.642261 
L 600.619436 49.537631 
L 602.101756 50.418049 
L 603.584075 50.19153 
L 605.066394 50.396978 
L 606.548714 50.872667 
L 608.031033 53.102891 
L 609.513353 51.35244 
L 610.995672 49.811495 
L 612.477992 48.816773 
L 613.960311 50.139135 
L 615.44263 49.209235 
L 616.92495 50.952271 
L 618.407269 49.424654 
L 621.371908 50.291486 
L 622.854228 51.526219 
L 624.336547 51.40303 
L 625.818866 49.365225 
L 627.301186 46.366283 
L 630.265825 47.723886 
L 631.748144 49.898413 
L 633.230464 49.595374 
L 634.712783 51.844351 
L 637.677422 50.281028 
L 639.159741 51.639578 
L 640.642061 50.270834 
L 642.12438 51.810484 
L 645.089019 53.564324 
L 646.571339 53.907368 
L 648.053658 54.87052 
L 649.535977 55.440264 
L 652.500616 54.934843 
L 653.982936 52.424866 
L 656.947575 52.307226 
L 658.429894 53.264699 
L 661.394533 54.04009 
L 662.876852 53.684872 
L 664.359172 54.724246 
L 665.841491 53.085577 
L 671.770769 51.751651 
L 673.253088 49.775174 
L 674.735408 50.808038 
L 676.217727 48.190833 
L 676.217727 48.190833 
" clip-path="url(#pfa12863f7a)" style="fill: none; stroke: #ff7f0e; stroke-width: 1.5; stroke-linecap: square"/>
   </g>
   <g id="line2d_33">
    <path d="M 84.772273 310.548003 
L 86.254592 300.029202 
L 87.736912 293.45905 
L 89.219231 295.552952 
L 90.70155 300.515298 
L 92.18387 292.359761 
L 93.666189 285.531893 
L 95.148509 288.967129 
L 96.630828 288.559408 
L 98.113148 286.776586 
L 99.595467 292.211895 
L 101.077787 294.668001 
L 102.560106 304.18764 
L 104.042425 307.228601 
L 105.524745 305.461712 
L 107.007064 303.514207 
L 108.489384 296.774167 
L 109.971703 296.58231 
L 111.454023 300.209675 
L 112.936342 302.768392 
L 114.418661 304.369274 
L 115.900981 309.685159 
L 117.3833 308.008614 
L 118.86562 307.357636 
L 120.347939 320.175965 
L 121.830259 323.200294 
L 123.312578 315.666146 
L 124.794897 306.379857 
L 126.277217 301.686766 
L 127.759536 302.870218 
L 129.241856 305.193954 
L 130.724175 308.591903 
L 132.206495 309.685856 
L 133.688814 313.138555 
L 135.171134 313.88467 
L 136.653453 320.381131 
L 138.135772 314.452386 
L 139.618092 316.5623 
L 141.100411 313.331221 
L 142.582731 318.351312 
L 144.06505 327.910496 
L 145.54737 321.455377 
L 147.029689 320.111007 
L 148.512008 308.640584 
L 149.994328 320.544871 
L 151.476647 328.09907 
L 152.958967 333.09868 
L 154.441286 330.750055 
L 155.923606 333.322891 
L 157.405925 345.670923 
L 158.888244 332.408103 
L 160.370564 336.049729 
L 161.852883 331.529627 
L 163.335203 321.962978 
L 166.299842 344.163721 
L 167.782161 351.523198 
L 169.264481 353.657693 
L 170.7468 358.098702 
L 172.229119 349.787392 
L 173.711439 344.847128 
L 175.193758 346.216599 
L 176.676078 360.318718 
L 178.158397 347.329369 
L 179.640717 353.413438 
L 181.123036 355.116463 
L 182.605355 356.245618 
L 184.087675 350.130216 
L 185.569994 367.541364 
L 187.052314 346.205511 
L 188.534633 342.735772 
L 190.016953 346.681811 
L 191.499272 339.446875 
L 192.981591 345.063189 
L 194.463911 338.552602 
L 195.94623 341.882087 
L 197.42855 333.077855 
L 198.910869 338.395599 
L 200.393189 334.097746 
L 201.875508 337.711025 
L 203.357828 332.678414 
L 204.840147 337.973264 
L 206.322466 331.349327 
L 207.804786 332.08986 
L 209.287105 329.745008 
L 210.769425 324.577311 
L 212.251744 323.920098 
L 213.734064 331.656795 
L 215.216383 343.061827 
L 216.698702 326.587154 
L 218.181022 332.099467 
L 219.663341 332.907762 
L 221.145661 338.772305 
L 222.62798 346.84732 
L 224.1103 336.426925 
L 225.592619 339.976529 
L 227.074938 347.337042 
L 228.557258 345.916568 
L 230.039577 355.018713 
L 231.521897 342.934538 
L 233.004216 334.663095 
L 234.486536 333.117548 
L 235.968855 329.706558 
L 237.451175 337.708754 
L 238.933494 330.912467 
L 240.415813 336.86352 
L 241.898133 329.297725 
L 243.380452 337.116407 
L 244.862772 332.791372 
L 246.345091 329.565783 
L 247.827411 318.547031 
L 249.30973 317.766117 
L 250.792049 308.183645 
L 252.274369 307.010213 
L 253.756688 314.610246 
L 255.239008 315.863578 
L 256.721327 296.885634 
L 259.685966 251.30204 
L 261.168285 234.239963 
L 264.132924 195.928275 
L 265.615244 178.706557 
L 267.097563 164.079144 
L 270.062202 144.494315 
L 271.544522 135.179315 
L 273.026841 125.0836 
L 274.50916 119.131307 
L 275.99148 109.180983 
L 277.473799 102.288149 
L 278.956119 96.773933 
L 280.438438 93.154841 
L 281.920758 90.623622 
L 283.403077 86.918777 
L 284.885396 82.77937 
L 287.850035 75.85893 
L 289.332355 75.16179 
L 290.814674 70.889041 
L 292.296994 68.445544 
L 293.779313 65.716163 
L 296.743952 62.320439 
L 298.226271 62.340913 
L 299.708591 59.333906 
L 301.19091 60.910707 
L 302.67323 59.329445 
L 304.155549 56.545958 
L 305.637869 54.961324 
L 307.120188 55.643528 
L 308.602507 55.365209 
L 311.567146 53.108402 
L 313.049466 50.049254 
L 314.531785 49.631601 
L 316.014105 48.436361 
L 317.496424 49.282949 
L 318.978743 52.440125 
L 320.461063 53.260283 
L 321.943382 51.686435 
L 323.425702 54.378307 
L 324.908021 52.617902 
L 326.390341 50.302901 
L 329.354979 48.143127 
L 330.837299 47.394118 
L 332.319618 48.538423 
L 333.801938 50.041416 
L 335.284257 49.703806 
L 336.766577 53.159817 
L 338.248896 52.938471 
L 339.731216 53.213356 
L 341.213535 51.226455 
L 342.695854 50.5858 
L 344.178174 53.084301 
L 345.660493 51.42065 
L 347.142813 49.133723 
L 348.625132 50.947238 
L 350.107452 47.794522 
L 353.07209 44.589257 
L 354.55441 45.912659 
L 356.036729 44.357041 
L 357.519049 44.53024 
L 359.001368 47.006353 
L 360.483688 48.331695 
L 361.966007 46.308304 
L 363.448326 47.89306 
L 364.930646 47.064671 
L 366.412965 45.874692 
L 367.895285 45.773156 
L 369.377604 45.973529 
L 370.859924 46.51538 
L 372.342243 48.360165 
L 373.824563 49.849666 
L 375.306882 49.979664 
L 376.789201 49.132378 
L 378.271521 49.641573 
L 379.75384 49.298909 
L 381.23616 49.592485 
L 382.718479 50.743167 
L 384.200799 51.103543 
L 385.683118 50.421948 
L 387.165437 50.84512 
L 388.647757 50.934059 
L 390.130076 52.295648 
L 391.612396 52.417054 
L 393.094715 53.349768 
L 394.577035 54.837968 
L 397.541674 50.617701 
L 399.023993 49.327791 
L 400.506312 49.780903 
L 401.988632 48.326235 
L 403.470951 45.765362 
L 404.953271 44.76878 
L 406.43559 41.499327 
L 407.91791 42.176263 
L 410.882548 46.029321 
L 412.364868 45.587551 
L 413.847187 46.020089 
L 415.329507 50.222402 
L 416.811826 49.844734 
L 418.294146 49.242968 
L 419.776465 49.857678 
L 421.258784 45.986409 
L 422.741104 46.810455 
L 424.223423 48.191749 
L 425.705743 48.198119 
L 427.188062 45.998788 
L 430.152701 48.636256 
L 431.635021 48.013735 
L 433.11734 47.828781 
L 434.599659 48.556585 
L 436.081979 49.95851 
L 437.564298 52.267709 
L 439.046618 51.19347 
L 440.528937 50.980005 
L 442.011257 50.977304 
L 443.493576 47.52934 
L 444.975895 48.025642 
L 446.458215 47.934599 
L 447.940534 47.120054 
L 449.422854 48.997236 
L 450.905173 47.730473 
L 452.387493 46.114572 
L 453.869812 46.655373 
L 455.352131 45.75253 
L 456.834451 48.385125 
L 458.31677 49.162665 
L 459.79909 50.91044 
L 461.281409 54.698835 
L 462.763729 53.903503 
L 464.246048 55.814481 
L 465.728368 55.608001 
L 467.210687 54.667972 
L 470.175326 50.595806 
L 471.657645 50.504074 
L 473.139965 49.435242 
L 474.622284 47.551334 
L 476.104604 48.234889 
L 477.586923 44.462752 
L 479.069242 44.847375 
L 480.551562 48.567632 
L 482.033881 50.488401 
L 483.516201 51.258455 
L 484.99852 51.300134 
L 486.48084 50.185935 
L 487.963159 49.703763 
L 489.445478 48.820589 
L 490.927798 48.221334 
L 492.410117 49.450799 
L 493.892437 50.431212 
L 495.374756 49.922612 
L 496.857076 48.411702 
L 498.339395 49.779814 
L 499.821715 49.669481 
L 501.304034 50.720573 
L 502.786353 48.97982 
L 504.268673 46.697829 
L 505.750992 47.702013 
L 507.233312 47.153495 
L 508.715631 48.023337 
L 513.162589 44.604929 
L 514.644909 45.524529 
L 516.127228 46.003641 
L 517.609548 48.614257 
L 519.091867 49.002977 
L 520.574187 48.961743 
L 522.056506 46.923048 
L 523.538825 48.620272 
L 525.021145 49.88474 
L 526.503464 50.517569 
L 527.985784 52.659876 
L 529.468103 50.986675 
L 530.950423 50.025327 
L 532.432742 49.648676 
L 533.915062 50.956287 
L 535.397381 51.890712 
L 536.8797 50.292109 
L 538.36202 50.108573 
L 539.844339 51.907712 
L 541.326659 51.175454 
L 542.808978 51.806902 
L 544.291298 51.691736 
L 545.773617 52.851722 
L 547.255936 53.755819 
L 548.738256 53.129178 
L 550.220575 51.409226 
L 551.702895 50.323342 
L 553.185214 49.514801 
L 554.667534 49.909228 
L 556.149853 49.642175 
L 559.114492 48.110731 
L 560.596811 47.145795 
L 562.079131 44.808018 
L 563.56145 43.953943 
L 565.04377 44.236886 
L 566.526089 44.247822 
L 568.008409 45.952503 
L 569.490728 45.932653 
L 570.973047 44.576514 
L 572.455367 43.03417 
L 573.937686 40.668636 
L 575.420006 42.22678 
L 576.902325 44.36919 
L 578.384645 45.538971 
L 579.866964 45.07633 
L 582.831603 44.711937 
L 584.313922 45.89293 
L 587.278561 47.733782 
L 588.760881 50.571829 
L 591.725519 51.187113 
L 593.207839 50.96071 
L 594.690158 50.395787 
L 596.172478 47.85562 
L 597.654797 46.801326 
L 599.137117 48.40891 
L 602.101756 49.874479 
L 603.584075 52.635906 
L 605.066394 51.6656 
L 606.548714 52.620898 
L 608.031033 50.791182 
L 609.513353 51.119859 
L 610.995672 51.70399 
L 612.477992 51.286039 
L 613.960311 49.451806 
L 615.44263 48.439807 
L 616.92495 48.368634 
L 618.407269 49.74575 
L 619.889589 50.3468 
L 621.371908 50.663027 
L 622.854228 49.190693 
L 624.336547 48.640283 
L 625.818866 48.746103 
L 627.301186 47.332051 
L 628.783505 44.010424 
L 630.265825 44.056385 
L 631.748144 43.931677 
L 633.230464 43.56051 
L 634.712783 42.816146 
L 636.195103 42.334122 
L 637.677422 42.722872 
L 639.159741 43.875271 
L 642.12438 48.748058 
L 643.6067 47.955473 
L 645.089019 47.450276 
L 646.571339 49.18762 
L 648.053658 49.971023 
L 649.535977 51.933596 
L 651.018297 49.946222 
L 652.500616 50.247395 
L 653.982936 52.537941 
L 655.465255 53.475521 
L 656.947575 54.140865 
L 658.429894 54.125157 
L 659.912213 56.445174 
L 661.394533 57.063879 
L 662.876852 53.47056 
L 664.359172 51.35728 
L 665.841491 52.066385 
L 667.323811 50.156111 
L 668.80613 51.314736 
L 670.28845 50.185958 
L 671.770769 48.762909 
L 673.253088 48.473562 
L 674.735408 50.605638 
L 676.217727 51.869372 
L 676.217727 51.869372 
" clip-path="url(#pfa12863f7a)" style="fill: none; stroke: #2ca02c; stroke-width: 1.5; stroke-linecap: square"/>
   </g>
   <g id="line2d_34">
    <path d="M 84.772273 310.548003 
L 86.254592 300.890865 
L 87.736912 290.338624 
L 90.70155 261.805705 
L 92.18387 241.54257 
L 96.630828 199.619405 
L 98.113148 183.59353 
L 101.077787 160.48701 
L 102.560106 151.647382 
L 104.042425 141.969303 
L 108.489384 120.126725 
L 109.971703 111.26714 
L 111.454023 108.825048 
L 112.936342 103.979667 
L 114.418661 97.400563 
L 115.900981 91.480295 
L 117.3833 86.88953 
L 118.86562 84.993048 
L 120.347939 79.051077 
L 121.830259 76.073381 
L 123.312578 75.935396 
L 124.794897 72.967766 
L 126.277217 71.983777 
L 127.759536 71.608012 
L 129.241856 70.103155 
L 130.724175 65.375431 
L 133.688814 62.773636 
L 135.171134 60.634415 
L 136.653453 60.217879 
L 138.135772 61.619043 
L 139.618092 62.269691 
L 141.100411 61.987267 
L 142.582731 58.399317 
L 144.06505 57.236989 
L 145.54737 56.644813 
L 147.029689 57.959827 
L 148.512008 54.862785 
L 149.994328 52.987105 
L 151.476647 54.117049 
L 152.958967 54.947406 
L 154.441286 55.369728 
L 155.923606 54.293052 
L 157.405925 54.360867 
L 158.888244 53.335678 
L 160.370564 51.140369 
L 161.852883 51.815304 
L 163.335203 52.307521 
L 164.817522 51.682387 
L 166.299842 51.275345 
L 167.782161 49.00456 
L 169.264481 47.946338 
L 170.7468 48.292697 
L 172.229119 49.35812 
L 173.711439 49.644568 
L 175.193758 50.209074 
L 176.676078 47.844659 
L 178.158397 48.219837 
L 179.640717 46.753252 
L 181.123036 46.245957 
L 182.605355 46.868568 
L 184.087675 48.346705 
L 185.569994 49.10144 
L 187.052314 50.612675 
L 188.534633 48.546923 
L 190.016953 49.71845 
L 191.499272 51.601322 
L 192.981591 50.407757 
L 194.463911 52.689591 
L 195.94623 53.280984 
L 197.42855 55.41613 
L 198.910869 55.052578 
L 200.393189 56.310307 
L 201.875508 54.768098 
L 203.357828 53.577171 
L 204.840147 51.575811 
L 206.322466 52.091075 
L 207.804786 53.386425 
L 209.287105 53.033256 
L 210.769425 50.781376 
L 212.251744 48.855548 
L 213.734064 45.849897 
L 215.216383 45.935874 
L 216.698702 44.652352 
L 218.181022 45.079852 
L 219.663341 44.475613 
L 221.145661 42.394687 
L 222.62798 46.18795 
L 224.1103 45.865193 
L 225.592619 45.403546 
L 227.074938 45.25233 
L 228.557258 44.039239 
L 230.039577 44.159028 
L 231.521897 42.747551 
L 234.486536 42.145746 
L 235.968855 41.188849 
L 238.933494 42.257919 
L 240.415813 43.586313 
L 241.898133 43.415861 
L 243.380452 42.149905 
L 244.862772 44.822835 
L 246.345091 47.927095 
L 247.827411 48.377164 
L 249.30973 50.521654 
L 250.792049 53.112741 
L 252.274369 49.254177 
L 253.756688 47.432461 
L 255.239008 46.559596 
L 256.721327 44.622524 
L 258.203647 45.027579 
L 259.685966 45.943292 
L 261.168285 46.088747 
L 262.650605 45.174191 
L 264.132924 44.585321 
L 265.615244 45.618374 
L 267.097563 48.359097 
L 268.579883 51.83179 
L 270.062202 49.660477 
L 271.544522 47.919359 
L 273.026841 48.225357 
L 274.50916 49.163498 
L 278.956119 46.609087 
L 280.438438 47.364929 
L 281.920758 50.087625 
L 283.403077 46.618821 
L 284.885396 47.11448 
L 286.367716 47.468725 
L 287.850035 47.354098 
L 289.332355 49.716379 
L 290.814674 49.074384 
L 292.296994 49.052755 
L 293.779313 50.507565 
L 295.261632 48.522657 
L 296.743952 47.920531 
L 298.226271 47.998946 
L 299.708591 47.359845 
L 301.19091 48.295675 
L 302.67323 47.723999 
L 304.155549 47.770802 
L 305.637869 48.640482 
L 307.120188 51.504454 
L 308.602507 53.065325 
L 310.084827 53.616912 
L 311.567146 51.528394 
L 313.049466 50.078307 
L 314.531785 49.571582 
L 316.014105 47.052165 
L 317.496424 45.246293 
L 318.978743 45.368429 
L 320.461063 46.652803 
L 321.943382 45.873943 
L 323.425702 49.679308 
L 324.908021 48.232928 
L 326.390341 46.628522 
L 327.87266 47.73654 
L 329.354979 49.600994 
L 330.837299 49.448123 
L 332.319618 51.28625 
L 333.801938 50.920324 
L 335.284257 49.108689 
L 336.766577 50.025752 
L 338.248896 47.489479 
L 339.731216 49.682171 
L 341.213535 48.873496 
L 342.695854 46.927701 
L 344.178174 45.910052 
L 345.660493 46.97542 
L 347.142813 45.630669 
L 348.625132 42.36864 
L 350.107452 42.65802 
L 351.589771 44.191083 
L 353.07209 45.151792 
L 356.036729 44.076718 
L 357.519049 46.180242 
L 360.483688 45.847461 
L 361.966007 45.419843 
L 363.448326 46.763878 
L 364.930646 46.363264 
L 366.412965 47.085682 
L 367.895285 45.666742 
L 369.377604 45.667413 
L 370.859924 46.209605 
L 372.342243 46.13522 
L 373.824563 48.779031 
L 375.306882 48.582296 
L 376.789201 52.072497 
L 378.271521 50.84244 
L 379.75384 49.9156 
L 381.23616 48.510153 
L 382.718479 48.9277 
L 384.200799 50.532592 
L 385.683118 50.218869 
L 387.165437 48.364147 
L 388.647757 47.673885 
L 390.130076 47.108119 
L 393.094715 48.478424 
L 394.577035 48.408816 
L 396.059354 50.10562 
L 397.541674 48.758948 
L 399.023993 49.005471 
L 400.506312 48.212464 
L 401.988632 46.278233 
L 403.470951 47.776613 
L 404.953271 46.286648 
L 406.43559 45.530011 
L 407.91791 47.922971 
L 409.400229 46.941978 
L 410.882548 47.67379 
L 412.364868 47.434787 
L 413.847187 48.699246 
L 416.811826 50.489902 
L 418.294146 50.680303 
L 421.258784 48.785666 
L 422.741104 48.740878 
L 427.188062 50.588193 
L 428.670382 50.216351 
L 430.152701 50.905103 
L 431.635021 47.812864 
L 433.11734 48.761788 
L 434.599659 48.415552 
L 436.081979 49.238016 
L 437.564298 47.479975 
L 439.046618 49.000227 
L 440.528937 50.210793 
L 442.011257 47.930706 
L 443.493576 49.687727 
L 444.975895 49.983824 
L 446.458215 48.416076 
L 447.940534 48.192039 
L 449.422854 48.2294 
L 450.905173 48.460458 
L 452.387493 51.734971 
L 453.869812 50.568522 
L 455.352131 49.826255 
L 456.834451 50.864831 
L 458.31677 51.251651 
L 459.79909 51.363942 
L 461.281409 48.238946 
L 462.763729 46.774075 
L 464.246048 45.723592 
L 465.728368 46.735662 
L 468.693006 45.813928 
L 470.175326 45.495341 
L 471.657645 45.702389 
L 473.139965 47.261257 
L 474.622284 47.510077 
L 476.104604 46.269259 
L 477.586923 47.289579 
L 479.069242 47.472738 
L 480.551562 47.205904 
L 482.033881 45.096429 
L 483.516201 48.233883 
L 484.99852 49.547529 
L 486.48084 47.967683 
L 487.963159 47.141977 
L 489.445478 47.652618 
L 490.927798 47.089236 
L 492.410117 47.076688 
L 493.892437 48.366487 
L 495.374756 48.314154 
L 496.857076 44.264048 
L 498.339395 44.807745 
L 499.821715 42.940717 
L 501.304034 42.072179 
L 502.786353 45.283635 
L 504.268673 47.532461 
L 505.750992 47.58234 
L 507.233312 48.449708 
L 508.715631 47.865639 
L 510.197951 46.100623 
L 511.68027 47.263217 
L 513.162589 45.946528 
L 514.644909 46.529461 
L 516.127228 46.013643 
L 517.609548 50.344686 
L 519.091867 52.41621 
L 520.574187 52.068275 
L 522.056506 49.843942 
L 523.538825 49.310287 
L 525.021145 49.630636 
L 526.503464 46.792256 
L 527.985784 46.720224 
L 529.468103 49.03414 
L 530.950423 49.445893 
L 532.432742 52.217453 
L 533.915062 52.801275 
L 535.397381 51.123651 
L 536.8797 53.876351 
L 538.36202 53.140593 
L 539.844339 53.921725 
L 542.808978 50.241534 
L 544.291298 51.87955 
L 545.773617 51.35855 
L 547.255936 50.054199 
L 548.738256 52.123444 
L 550.220575 51.460433 
L 551.702895 53.088763 
L 553.185214 50.832373 
L 554.667534 51.035453 
L 556.149853 53.334918 
L 557.632172 52.13905 
L 559.114492 50.788465 
L 560.596811 52.852985 
L 562.079131 54.361274 
L 563.56145 55.453207 
L 565.04377 55.390811 
L 566.526089 54.299645 
L 568.008409 55.242151 
L 569.490728 52.737999 
L 570.973047 51.085578 
L 572.455367 50.91665 
L 573.937686 52.105238 
L 575.420006 51.50675 
L 578.384645 47.143573 
L 579.866964 48.983786 
L 582.831603 51.085343 
L 584.313922 50.468062 
L 585.796242 50.599164 
L 588.760881 52.608422 
L 590.2432 51.294417 
L 591.725519 51.996819 
L 593.207839 51.328786 
L 594.690158 50.108813 
L 596.172478 51.112619 
L 597.654797 50.292921 
L 599.137117 51.128062 
L 600.619436 53.449932 
L 602.101756 54.795485 
L 603.584075 54.051658 
L 606.548714 56.269621 
L 608.031033 54.025959 
L 609.513353 53.612731 
L 610.995672 54.82068 
L 612.477992 54.668556 
L 613.960311 54.80707 
L 615.44263 52.351989 
L 616.92495 51.573757 
L 618.407269 53.019951 
L 619.889589 53.262093 
L 621.371908 52.491586 
L 622.854228 53.849057 
L 624.336547 57.200621 
L 625.818866 56.848826 
L 627.301186 55.725458 
L 628.783505 57.129157 
L 630.265825 54.966779 
L 631.748144 55.319081 
L 633.230464 53.291267 
L 634.712783 54.48412 
L 636.195103 56.383075 
L 637.677422 53.763998 
L 639.159741 53.757984 
L 640.642061 51.968277 
L 642.12438 51.88454 
L 643.6067 51.21498 
L 645.089019 52.706079 
L 646.571339 53.701207 
L 648.053658 51.375028 
L 649.535977 50.007682 
L 651.018297 49.145754 
L 652.500616 52.216318 
L 653.982936 51.615123 
L 655.465255 48.897199 
L 656.947575 51.989085 
L 658.429894 52.378596 
L 659.912213 53.624794 
L 661.394533 51.881445 
L 662.876852 49.837637 
L 664.359172 49.698931 
L 665.841491 48.273103 
L 667.323811 47.457381 
L 668.80613 45.701368 
L 670.28845 44.778893 
L 671.770769 47.039997 
L 673.253088 46.14916 
L 674.735408 43.165644 
L 676.217727 44.047977 
L 676.217727 44.047977 
" clip-path="url(#pfa12863f7a)" style="fill: none; stroke: #9467bd; stroke-width: 1.5; stroke-linecap: square"/>
   </g>
   <g id="patch_3">
    <path d="M 55.2 383.885 
L 55.2 24.325 
" style="fill: none; stroke: #000000; stroke-width: 0.8; stroke-linejoin: miter; stroke-linecap: square"/>
   </g>
   <g id="patch_4">
    <path d="M 705.79 383.885 
L 705.79 24.325 
" style="fill: none; stroke: #000000; stroke-width: 0.8; stroke-linejoin: miter; stroke-linecap: square"/>
   </g>
   <g id="patch_5">
    <path d="M 55.2 383.885 
L 705.79 383.885 
" style="fill: none; stroke: #000000; stroke-width: 0.8; stroke-linejoin: miter; stroke-linecap: square"/>
   </g>
   <g id="patch_6">
    <path d="M 55.2 24.325 
L 705.79 24.325 
" style="fill: none; stroke: #000000; stroke-width: 0.8; stroke-linejoin: miter; stroke-linecap: square"/>
   </g>
   <g id="text_18">
    <!-- Reward Comparison -->
    <g transform="translate(312.495 18.325) scale(0.16 -0.16)">
     <defs>
      <path id="SimHei-43" d="M 2975 1825 
Q 2950 875 2575 475 
Q 2200 75 1675 75 
Q 1075 75 650 562 
Q 225 1050 225 2125 
Q 225 3300 637 3875 
Q 1050 4450 1700 4450 
Q 2250 4450 2612 4037 
Q 2975 3625 2950 2875 
L 2400 2875 
Q 2400 3425 2225 3700 
Q 2050 3975 1700 3975 
Q 1300 3975 1062 3562 
Q 825 3150 825 2175 
Q 825 1275 1062 912 
Q 1300 550 1675 550 
Q 1950 550 2175 812 
Q 2400 1075 2400 1825 
L 2975 1825 
z
" transform="scale(0.015625)"/>
      <path id="SimHei-6d" d="M 3050 125 
L 2550 125 
L 2550 2150 
Q 2550 2300 2500 2400 
Q 2450 2500 2300 2500 
Q 2125 2500 1975 2312 
Q 1825 2125 1825 1825 
L 1825 125 
L 1325 125 
L 1325 2150 
Q 1325 2300 1275 2400 
Q 1225 2500 1075 2500 
Q 900 2500 750 2312 
Q 600 2125 600 1825 
L 600 125 
L 100 125 
L 100 2925 
L 600 2925 
L 600 2550 
Q 725 2750 900 2862 
Q 1075 2975 1275 2975 
Q 1475 2975 1612 2862 
Q 1750 2750 1800 2550 
Q 1925 2750 2087 2862 
Q 2250 2975 2450 2975 
Q 2750 2975 2900 2812 
Q 3050 2650 3050 2350 
L 3050 125 
z
" transform="scale(0.015625)"/>
      <path id="SimHei-6e" d="M 2800 125 
L 2300 125 
L 2300 1925 
Q 2300 2225 2150 2400 
Q 2000 2575 1750 2575 
Q 1425 2575 1137 2237 
Q 850 1900 850 1400 
L 850 125 
L 350 125 
L 350 2925 
L 850 2925 
L 850 2400 
Q 1050 2675 1287 2825 
Q 1525 2975 1900 2975 
Q 2350 2975 2575 2725 
Q 2800 2475 2800 2100 
L 2800 125 
z
" transform="scale(0.015625)"/>
     </defs>
     <use xlink:href="#SimHei-52"/>
     <use xlink:href="#SimHei-65" transform="translate(50 0)"/>
     <use xlink:href="#SimHei-77" transform="translate(100 0)"/>
     <use xlink:href="#SimHei-61" transform="translate(150 0)"/>
     <use xlink:href="#SimHei-72" transform="translate(200 0)"/>
     <use xlink:href="#SimHei-64" transform="translate(250 0)"/>
     <use xlink:href="#SimHei-20" transform="translate(300 0)"/>
     <use xlink:href="#SimHei-43" transform="translate(350 0)"/>
     <use xlink:href="#SimHei-6f" transform="translate(400 0)"/>
     <use xlink:href="#SimHei-6d" transform="translate(450 0)"/>
     <use xlink:href="#SimHei-70" transform="translate(500 0)"/>
     <use xlink:href="#SimHei-61" transform="translate(550 0)"/>
     <use xlink:href="#SimHei-72" transform="translate(600 0)"/>
     <use xlink:href="#SimHei-69" transform="translate(650 0)"/>
     <use xlink:href="#SimHei-73" transform="translate(700 0)"/>
     <use xlink:href="#SimHei-6f" transform="translate(750 0)"/>
     <use xlink:href="#SimHei-6e" transform="translate(800 0)"/>
    </g>
   </g>
   <g id="legend_1">
    <g id="patch_7">
     <path d="M 580.99 377.885 
L 697.39 377.885 
Q 699.79 377.885 699.79 375.485 
L 699.79 313.085 
Q 699.79 310.685 697.39 310.685 
L 580.99 310.685 
Q 578.59 310.685 578.59 313.085 
L 578.59 375.485 
Q 578.59 377.885 580.99 377.885 
z
" style="fill: #ffffff; opacity: 0.8; stroke: #cccccc; stroke-linejoin: miter"/>
    </g>
    <g id="line2d_35">
     <path d="M 583.39 319.685 
L 595.39 319.685 
L 607.39 319.685 
" style="fill: none; stroke: #1f77b4; stroke-width: 1.5; stroke-linecap: square"/>
    </g>
    <g id="text_19">
     <!-- GCN-DDQN -->
     <g transform="translate(616.99 323.885) scale(0.12 -0.12)">
      <defs>
       <path id="SimHei-47" d="M 2850 75 
L 2425 75 
L 2350 425 
Q 2250 275 2037 175 
Q 1825 75 1575 75 
Q 1050 75 637 562 
Q 225 1050 225 2125 
Q 225 3300 600 3875 
Q 975 4450 1625 4450 
Q 2200 4450 2525 4025 
Q 2850 3600 2850 2925 
L 2300 2925 
Q 2300 3450 2125 3712 
Q 1950 3975 1625 3975 
Q 1225 3975 1025 3562 
Q 825 3150 825 2175 
Q 825 1250 1075 900 
Q 1325 550 1650 550 
Q 1975 550 2162 787 
Q 2350 1025 2350 1525 
L 2350 1800 
L 1575 1800 
L 1575 2275 
L 2850 2275 
L 2850 75 
z
" transform="scale(0.015625)"/>
       <path id="SimHei-4e" d="M 2850 125 
L 2225 125 
L 850 3225 
L 825 3225 
L 825 125 
L 250 125 
L 250 4400 
L 875 4400 
L 2250 1300 
L 2275 1300 
L 2275 4400 
L 2850 4400 
L 2850 125 
z
" transform="scale(0.015625)"/>
       <path id="SimHei-2d" d="M 2975 2125 
L 125 2125 
L 125 2525 
L 2975 2525 
L 2975 2125 
z
" transform="scale(0.015625)"/>
       <path id="SimHei-44" d="M 2925 2250 
Q 2925 1100 2437 612 
Q 1950 125 1125 125 
L 275 125 
L 275 4400 
L 1125 4400 
Q 2050 4400 2487 3900 
Q 2925 3400 2925 2250 
z
M 2325 2250 
Q 2325 3175 2025 3550 
Q 1725 3925 1125 3925 
L 850 3925 
L 850 600 
L 1125 600 
Q 1725 600 2025 962 
Q 2325 1325 2325 2250 
z
" transform="scale(0.015625)"/>
       <path id="SimHei-51" d="M 2950 2275 
Q 2950 1675 2862 1262 
Q 2775 850 2575 600 
L 2775 225 
L 2375 -200 
L 2150 225 
Q 2050 150 1900 112 
Q 1750 75 1575 75 
Q 925 75 550 587 
Q 175 1100 175 2275 
Q 175 3450 550 3950 
Q 925 4450 1575 4450 
Q 2225 4450 2587 3950 
Q 2950 3450 2950 2275 
z
M 2350 2275 
Q 2350 3325 2125 3650 
Q 1900 3975 1575 3975 
Q 1250 3975 1012 3650 
Q 775 3325 775 2275 
Q 775 1225 1012 887 
Q 1250 550 1575 550 
Q 1700 550 1800 587 
Q 1900 625 1950 675 
L 1550 1450 
L 1900 1875 
L 2250 1200 
Q 2300 1450 2325 1650 
Q 2350 1850 2350 2275 
z
" transform="scale(0.015625)"/>
      </defs>
      <use xlink:href="#SimHei-47"/>
      <use xlink:href="#SimHei-43" transform="translate(50 0)"/>
      <use xlink:href="#SimHei-4e" transform="translate(100 0)"/>
      <use xlink:href="#SimHei-2d" transform="translate(150 0)"/>
      <use xlink:href="#SimHei-44" transform="translate(200 0)"/>
      <use xlink:href="#SimHei-44" transform="translate(250 0)"/>
      <use xlink:href="#SimHei-51" transform="translate(300 0)"/>
      <use xlink:href="#SimHei-4e" transform="translate(350 0)"/>
     </g>
    </g>
    <g id="line2d_36">
     <path d="M 583.39 335.585 
L 595.39 335.585 
L 607.39 335.585 
" style="fill: none; stroke: #ff7f0e; stroke-width: 1.5; stroke-linecap: square"/>
    </g>
    <g id="text_20">
     <!-- GCN-D3QN -->
     <g transform="translate(616.99 339.785) scale(0.12 -0.12)">
      <use xlink:href="#SimHei-47"/>
      <use xlink:href="#SimHei-43" transform="translate(50 0)"/>
      <use xlink:href="#SimHei-4e" transform="translate(100 0)"/>
      <use xlink:href="#SimHei-2d" transform="translate(150 0)"/>
      <use xlink:href="#SimHei-44" transform="translate(200 0)"/>
      <use xlink:href="#SimHei-33" transform="translate(250 0)"/>
      <use xlink:href="#SimHei-51" transform="translate(300 0)"/>
      <use xlink:href="#SimHei-4e" transform="translate(350 0)"/>
     </g>
    </g>
    <g id="line2d_37">
     <path d="M 583.39 351.485 
L 595.39 351.485 
L 607.39 351.485 
" style="fill: none; stroke: #2ca02c; stroke-width: 1.5; stroke-linecap: square"/>
    </g>
    <g id="text_21">
     <!-- GAT-LSTM-DDQN -->
     <g transform="translate(616.99 355.685) scale(0.12 -0.12)">
      <defs>
       <path id="SimHei-41" d="M 3075 125 
L 2475 125 
L 2125 1450 
L 1025 1450 
L 675 125 
L 75 125 
L 1325 4450 
L 1825 4450 
L 3075 125 
z
M 2000 1925 
L 1600 3450 
L 1550 3450 
L 1150 1925 
L 2000 1925 
z
" transform="scale(0.015625)"/>
       <path id="SimHei-4c" d="M 2900 125 
L 300 125 
L 300 4400 
L 875 4400 
L 875 600 
L 2900 600 
L 2900 125 
z
" transform="scale(0.015625)"/>
       <path id="SimHei-53" d="M 2900 1325 
Q 2900 750 2537 412 
Q 2175 75 1550 75 
Q 925 75 575 425 
Q 225 775 225 1300 
L 225 1475 
L 800 1475 
L 800 1325 
Q 800 950 1025 750 
Q 1250 550 1550 550 
Q 1950 550 2137 762 
Q 2325 975 2325 1275 
Q 2325 1525 2100 1737 
Q 1875 1950 1450 2125 
Q 850 2350 587 2625 
Q 325 2900 325 3275 
Q 325 3800 687 4125 
Q 1050 4450 1550 4450 
Q 2200 4450 2487 4062 
Q 2775 3675 2775 3225 
L 2200 3225 
Q 2225 3500 2050 3725 
Q 1875 3950 1550 3950 
Q 1250 3950 1075 3787 
Q 900 3625 900 3350 
Q 900 3125 1037 2962 
Q 1175 2800 1750 2575 
Q 2300 2350 2600 2037 
Q 2900 1725 2900 1325 
z
" transform="scale(0.015625)"/>
       <path id="SimHei-4d" d="M 2925 125 
L 2425 125 
L 2425 3175 
L 2375 3175 
L 1775 125 
L 1375 125 
L 775 3175 
L 725 3175 
L 725 125 
L 225 125 
L 225 4400 
L 1000 4400 
L 1550 1575 
L 1600 1575 
L 2150 4400 
L 2925 4400 
L 2925 125 
z
" transform="scale(0.015625)"/>
      </defs>
      <use xlink:href="#SimHei-47"/>
      <use xlink:href="#SimHei-41" transform="translate(50 0)"/>
      <use xlink:href="#SimHei-54" transform="translate(100 0)"/>
      <use xlink:href="#SimHei-2d" transform="translate(150 0)"/>
      <use xlink:href="#SimHei-4c" transform="translate(200 0)"/>
      <use xlink:href="#SimHei-53" transform="translate(250 0)"/>
      <use xlink:href="#SimHei-54" transform="translate(300 0)"/>
      <use xlink:href="#SimHei-4d" transform="translate(350 0)"/>
      <use xlink:href="#SimHei-2d" transform="translate(400 0)"/>
      <use xlink:href="#SimHei-44" transform="translate(450 0)"/>
      <use xlink:href="#SimHei-44" transform="translate(500 0)"/>
      <use xlink:href="#SimHei-51" transform="translate(550 0)"/>
      <use xlink:href="#SimHei-4e" transform="translate(600 0)"/>
     </g>
    </g>
    <g id="line2d_38">
     <path d="M 583.39 367.385 
L 595.39 367.385 
L 607.39 367.385 
" style="fill: none; stroke: #9467bd; stroke-width: 1.5; stroke-linecap: square"/>
    </g>
    <g id="text_22">
     <!-- GLDVTO -->
     <g transform="translate(616.99 371.585) scale(0.12 -0.12)">
      <defs>
       <path id="SimHei-56" d="M 3050 4400 
L 1800 75 
L 1300 75 
L 50 4400 
L 650 4400 
L 1525 1125 
L 1575 1125 
L 2450 4400 
L 3050 4400 
z
" transform="scale(0.015625)"/>
       <path id="SimHei-4f" d="M 2950 2275 
Q 2950 1100 2587 587 
Q 2225 75 1575 75 
Q 925 75 550 587 
Q 175 1100 175 2275 
Q 175 3450 550 3950 
Q 925 4450 1575 4450 
Q 2225 4450 2587 3950 
Q 2950 3450 2950 2275 
z
M 2350 2275 
Q 2350 3325 2125 3650 
Q 1900 3975 1575 3975 
Q 1250 3975 1012 3650 
Q 775 3325 775 2275 
Q 775 1225 1012 887 
Q 1250 550 1575 550 
Q 1900 550 2125 887 
Q 2350 1225 2350 2275 
z
" transform="scale(0.015625)"/>
      </defs>
      <use xlink:href="#SimHei-47"/>
      <use xlink:href="#SimHei-4c" transform="translate(50 0)"/>
      <use xlink:href="#SimHei-44" transform="translate(100 0)"/>
      <use xlink:href="#SimHei-56" transform="translate(150 0)"/>
      <use xlink:href="#SimHei-54" transform="translate(200 0)"/>
      <use xlink:href="#SimHei-4f" transform="translate(250 0)"/>
     </g>
    </g>
   </g>
  </g>
 </g>
 <defs>
  <clipPath id="pfa12863f7a">
   <rect x="55.2" y="24.325" width="650.59" height="359.56"/>
  </clipPath>
 </defs>
</svg>
