<?xml version="1.0" encoding="utf-8" standalone="no"?>
<!DOCTYPE svg PUBLIC "-//W3C//DTD SVG 1.1//EN"
  "http://www.w3.org/Graphics/SVG/1.1/DTD/svg11.dtd">
<svg xmlns:xlink="http://www.w3.org/1999/xlink" width="614.4pt" height="397.915pt" viewBox="0 0 614.4 397.915" xmlns="http://www.w3.org/2000/svg" version="1.1">
 <metadata>
  <rdf:RDF xmlns:dc="http://purl.org/dc/elements/1.1/" xmlns:cc="http://creativecommons.org/ns#" xmlns:rdf="http://www.w3.org/1999/02/22-rdf-syntax-ns#">
   <cc:Work>
    <dc:type rdf:resource="http://purl.org/dc/dcmitype/StillImage"/>
    <dc:date>2026-06-26T17:26:58.433297</dc:date>
    <dc:format>image/svg+xml</dc:format>
    <dc:creator>
     <cc:Agent>
      <dc:title>Matplotlib v3.10.7, https://matplotlib.org/</dc:title>
     </cc:Agent>
    </dc:creator>
   </cc:Work>
  </rdf:RDF>
 </metadata>
 <defs>
  <style type="text/css">*{stroke-linejoin: round; stroke-linecap: butt}</style>
 </defs>
 <g id="figure_1">
  <g id="patch_1">
   <path d="M 0 397.915 
L 614.4 397.915 
L 614.4 -0 
L 0 -0 
z
" style="fill: #ffffff"/>
  </g>
  <g id="axes_1">
   <g id="patch_2">
    <path d="M 49.2 356.965 
L 607.2 356.965 
L 607.2 24.325 
L 49.2 24.325 
z
" style="fill: #ffffff"/>
   </g>
   <g id="matplotlib.axis_1">
    <g id="xtick_1">
     <g id="line2d_1">
      <path d="M 74.563636 356.965 
L 74.563636 24.325 
" clip-path="url(#p4129f79f9e)" style="fill: none; stroke: #b0b0b0; stroke-opacity: 0.3; stroke-width: 0.8; stroke-linecap: square"/>
     </g>
     <g id="line2d_2">
      <defs>
       <path id="mab7fe1172e" d="M 0 0 
L 0 3.5 
" style="stroke: #000000; stroke-width: 0.8"/>
      </defs>
      <g>
       <use xlink:href="#mab7fe1172e" x="74.563636" y="356.965" style="stroke: #000000; stroke-width: 0.8"/>
      </g>
     </g>
     <g id="text_1">
      <!-- 0 -->
      <g transform="translate(71.563636 372.215) scale(0.12 -0.12)">
       <defs>
        <path id="SimHei-30" d="M 225 2537 
Q 250 3200 412 3587 
Q 575 3975 875 4225 
Q 1175 4475 1612 4475 
Q 2050 4475 2375 4112 
Q 2700 3750 2800 3200 
Q 2900 2650 2862 1937 
Q 2825 1225 2612 775 
Q 2400 325 1975 150 
Q 1550 -25 1125 187 
Q 700 400 525 750 
Q 350 1100 275 1487 
Q 200 1875 225 2537 
z
M 750 2687 
Q 675 2000 800 1462 
Q 925 925 1212 700 
Q 1500 475 1800 612 
Q 2100 750 2237 1162 
Q 2375 1575 2375 2062 
Q 2375 2550 2337 2950 
Q 2300 3350 2112 3675 
Q 1925 4000 1612 4012 
Q 1300 4025 1062 3700 
Q 825 3375 750 2687 
z
" transform="scale(0.015625)"/>
       </defs>
       <use xlink:href="#SimHei-30"/>
      </g>
     </g>
    </g>
    <g id="xtick_2">
     <g id="line2d_3">
      <path d="M 138.131647 356.965 
L 138.131647 24.325 
" clip-path="url(#p4129f79f9e)" style="fill: none; stroke: #b0b0b0; stroke-opacity: 0.3; stroke-width: 0.8; stroke-linecap: square"/>
     </g>
     <g id="line2d_4">
      <g>
       <use xlink:href="#mab7fe1172e" x="138.131647" y="356.965" style="stroke: #000000; stroke-width: 0.8"/>
      </g>
     </g>
     <g id="text_2">
      <!-- 50 -->
      <g transform="translate(132.131647 372.215) scale(0.12 -0.12)">
       <defs>
        <path id="SimHei-35" d="M 550 1325 
Q 725 650 1150 575 
Q 1575 500 1837 662 
Q 2100 825 2212 1087 
Q 2325 1350 2312 1675 
Q 2300 2000 2137 2225 
Q 1975 2450 1725 2525 
Q 1475 2600 1162 2525 
Q 850 2450 650 2175 
L 225 2225 
Q 275 2375 700 4375 
L 2675 4375 
L 2675 3925 
L 1075 3925 
Q 950 3250 825 2850 
Q 1200 3025 1525 3012 
Q 1850 3000 2150 2862 
Q 2450 2725 2587 2487 
Q 2725 2250 2787 2012 
Q 2850 1775 2837 1500 
Q 2825 1225 2725 937 
Q 2625 650 2425 462 
Q 2225 275 1937 162 
Q 1650 50 1275 75 
Q 900 100 562 350 
Q 225 600 100 1200 
L 550 1325 
z
" transform="scale(0.015625)"/>
       </defs>
       <use xlink:href="#SimHei-35"/>
       <use xlink:href="#SimHei-30" transform="translate(50 0)"/>
      </g>
     </g>
    </g>
    <g id="xtick_3">
     <g id="line2d_5">
      <path d="M 201.699658 356.965 
L 201.699658 24.325 
" clip-path="url(#p4129f79f9e)" style="fill: none; stroke: #b0b0b0; stroke-opacity: 0.3; stroke-width: 0.8; stroke-linecap: square"/>
     </g>
     <g id="line2d_6">
      <g>
       <use xlink:href="#mab7fe1172e" x="201.699658" y="356.965" style="stroke: #000000; stroke-width: 0.8"/>
      </g>
     </g>
     <g id="text_3">
      <!-- 100 -->
      <g transform="translate(192.699658 372.215) scale(0.12 -0.12)">
       <defs>
        <path id="SimHei-31" d="M 1400 3600 
Q 1075 3275 575 2975 
L 575 3450 
Q 1200 3875 1600 4450 
L 1900 4450 
L 1900 150 
L 1400 150 
L 1400 3600 
z
" transform="scale(0.015625)"/>
       </defs>
       <use xlink:href="#SimHei-31"/>
       <use xlink:href="#SimHei-30" transform="translate(50 0)"/>
       <use xlink:href="#SimHei-30" transform="translate(100 0)"/>
      </g>
     </g>
    </g>
    <g id="xtick_4">
     <g id="line2d_7">
      <path d="M 265.267669 356.965 
L 265.267669 24.325 
" clip-path="url(#p4129f79f9e)" style="fill: none; stroke: #b0b0b0; stroke-opacity: 0.3; stroke-width: 0.8; stroke-linecap: square"/>
     </g>
     <g id="line2d_8">
      <g>
       <use xlink:href="#mab7fe1172e" x="265.267669" y="356.965" style="stroke: #000000; stroke-width: 0.8"/>
      </g>
     </g>
     <g id="text_4">
      <!-- 150 -->
      <g transform="translate(256.267669 372.215) scale(0.12 -0.12)">
       <use xlink:href="#SimHei-31"/>
       <use xlink:href="#SimHei-35" transform="translate(50 0)"/>
       <use xlink:href="#SimHei-30" transform="translate(100 0)"/>
      </g>
     </g>
    </g>
    <g id="xtick_5">
     <g id="line2d_9">
      <path d="M 328.83568 356.965 
L 328.83568 24.325 
" clip-path="url(#p4129f79f9e)" style="fill: none; stroke: #b0b0b0; stroke-opacity: 0.3; stroke-width: 0.8; stroke-linecap: square"/>
     </g>
     <g id="line2d_10">
      <g>
       <use xlink:href="#mab7fe1172e" x="328.83568" y="356.965" style="stroke: #000000; stroke-width: 0.8"/>
      </g>
     </g>
     <g id="text_5">
      <!-- 200 -->
      <g transform="translate(319.83568 372.215) scale(0.12 -0.12)">
       <defs>
        <path id="SimHei-32" d="M 300 250 
Q 325 625 650 925 
Q 975 1225 1475 1862 
Q 1975 2500 2125 2850 
Q 2275 3200 2237 3450 
Q 2200 3700 2000 3862 
Q 1800 4025 1537 4000 
Q 1275 3975 1037 3800 
Q 800 3625 675 3275 
L 200 3350 
Q 400 3925 712 4187 
Q 1025 4450 1450 4475 
Q 1700 4500 1900 4462 
Q 2100 4425 2312 4287 
Q 2525 4150 2662 3875 
Q 2800 3600 2762 3212 
Q 2725 2825 2375 2287 
Q 2025 1750 1025 600 
L 2825 600 
L 2825 150 
L 300 150 
L 300 250 
z
" transform="scale(0.015625)"/>
       </defs>
       <use xlink:href="#SimHei-32"/>
       <use xlink:href="#SimHei-30" transform="translate(50 0)"/>
       <use xlink:href="#SimHei-30" transform="translate(100 0)"/>
      </g>
     </g>
    </g>
    <g id="xtick_6">
     <g id="line2d_11">
      <path d="M 392.403691 356.965 
L 392.403691 24.325 
" clip-path="url(#p4129f79f9e)" style="fill: none; stroke: #b0b0b0; stroke-opacity: 0.3; stroke-width: 0.8; stroke-linecap: square"/>
     </g>
     <g id="line2d_12">
      <g>
       <use xlink:href="#mab7fe1172e" x="392.403691" y="356.965" style="stroke: #000000; stroke-width: 0.8"/>
      </g>
     </g>
     <g id="text_6">
      <!-- 250 -->
      <g transform="translate(383.403691 372.215) scale(0.12 -0.12)">
       <use xlink:href="#SimHei-32"/>
       <use xlink:href="#SimHei-35" transform="translate(50 0)"/>
       <use xlink:href="#SimHei-30" transform="translate(100 0)"/>
      </g>
     </g>
    </g>
    <g id="xtick_7">
     <g id="line2d_13">
      <path d="M 455.971702 356.965 
L 455.971702 24.325 
" clip-path="url(#p4129f79f9e)" style="fill: none; stroke: #b0b0b0; stroke-opacity: 0.3; stroke-width: 0.8; stroke-linecap: square"/>
     </g>
     <g id="line2d_14">
      <g>
       <use xlink:href="#mab7fe1172e" x="455.971702" y="356.965" style="stroke: #000000; stroke-width: 0.8"/>
      </g>
     </g>
     <g id="text_7">
      <!-- 300 -->
      <g transform="translate(446.971702 372.215) scale(0.12 -0.12)">
       <defs>
        <path id="SimHei-33" d="M 250 1225 
L 700 1300 
Q 800 975 1025 762 
Q 1250 550 1587 562 
Q 1925 575 2125 837 
Q 2325 1100 2300 1437 
Q 2275 1775 2037 1962 
Q 1800 2150 1275 2225 
L 1275 2550 
Q 1800 2600 2037 2825 
Q 2275 3050 2250 3412 
Q 2225 3775 1925 3937 
Q 1625 4100 1287 3975 
Q 950 3850 750 3275 
L 300 3350 
Q 450 3800 712 4100 
Q 975 4400 1425 4450 
Q 1875 4500 2212 4337 
Q 2550 4175 2687 3837 
Q 2825 3500 2725 3100 
Q 2625 2700 2150 2400 
Q 2500 2250 2687 1950 
Q 2875 1650 2812 1162 
Q 2750 675 2375 375 
Q 2000 75 1525 87 
Q 1050 100 700 387 
Q 350 675 250 1225 
z
" transform="scale(0.015625)"/>
       </defs>
       <use xlink:href="#SimHei-33"/>
       <use xlink:href="#SimHei-30" transform="translate(50 0)"/>
       <use xlink:href="#SimHei-30" transform="translate(100 0)"/>
      </g>
     </g>
    </g>
    <g id="xtick_8">
     <g id="line2d_15">
      <path d="M 519.539713 356.965 
L 519.539713 24.325 
" clip-path="url(#p4129f79f9e)" style="fill: none; stroke: #b0b0b0; stroke-opacity: 0.3; stroke-width: 0.8; stroke-linecap: square"/>
     </g>
     <g id="line2d_16">
      <g>
       <use xlink:href="#mab7fe1172e" x="519.539713" y="356.965" style="stroke: #000000; stroke-width: 0.8"/>
      </g>
     </g>
     <g id="text_8">
      <!-- 350 -->
      <g transform="translate(510.539713 372.215) scale(0.12 -0.12)">
       <use xlink:href="#SimHei-33"/>
       <use xlink:href="#SimHei-35" transform="translate(50 0)"/>
       <use xlink:href="#SimHei-30" transform="translate(100 0)"/>
      </g>
     </g>
    </g>
    <g id="xtick_9">
     <g id="line2d_17">
      <path d="M 583.107724 356.965 
L 583.107724 24.325 
" clip-path="url(#p4129f79f9e)" style="fill: none; stroke: #b0b0b0; stroke-opacity: 0.3; stroke-width: 0.8; stroke-linecap: square"/>
     </g>
     <g id="line2d_18">
      <g>
       <use xlink:href="#mab7fe1172e" x="583.107724" y="356.965" style="stroke: #000000; stroke-width: 0.8"/>
      </g>
     </g>
     <g id="text_9">
      <!-- 400 -->
      <g transform="translate(574.107724 372.215) scale(0.12 -0.12)">
       <defs>
        <path id="SimHei-34" d="M 2000 1100 
L 75 1100 
L 75 1525 
L 2100 4450 
L 2475 4450 
L 2475 1525 
L 3075 1525 
L 3075 1100 
L 2475 1100 
L 2475 150 
L 2000 150 
L 2000 1100 
z
M 2000 1525 
L 2000 3500 
L 600 1525 
L 2000 1525 
z
" transform="scale(0.015625)"/>
       </defs>
       <use xlink:href="#SimHei-34"/>
       <use xlink:href="#SimHei-30" transform="translate(50 0)"/>
       <use xlink:href="#SimHei-30" transform="translate(100 0)"/>
      </g>
     </g>
    </g>
    <g id="text_10">
     <!-- Episode -->
     <g transform="translate(300.2 388.715) scale(0.16 -0.16)">
      <defs>
       <path id="SimHei-45" d="M 2900 125 
L 350 125 
L 350 4400 
L 2775 4400 
L 2775 3925 
L 925 3925 
L 925 2600 
L 2625 2600 
L 2625 2125 
L 925 2125 
L 925 600 
L 2900 600 
L 2900 125 
z
" transform="scale(0.015625)"/>
       <path id="SimHei-70" d="M 2825 1525 
Q 2825 800 2475 425 
Q 2125 50 1625 50 
Q 1350 50 1150 162 
Q 950 275 800 500 
L 800 -800 
L 300 -800 
L 300 2925 
L 800 2925 
L 800 2550 
Q 950 2775 1150 2875 
Q 1350 2975 1625 2975 
Q 2125 2975 2475 2612 
Q 2825 2250 2825 1525 
z
M 2275 1525 
Q 2275 2000 2087 2262 
Q 1900 2525 1525 2525 
Q 1225 2525 1012 2262 
Q 800 2000 800 1525 
Q 800 1050 1012 775 
Q 1225 500 1525 500 
Q 1900 500 2087 775 
Q 2275 1050 2275 1525 
z
" transform="scale(0.015625)"/>
       <path id="SimHei-69" d="M 1800 3725 
L 1300 3725 
L 1300 4375 
L 1800 4375 
L 1800 3725 
z
M 1800 125 
L 1300 125 
L 1300 2925 
L 1800 2925 
L 1800 125 
z
" transform="scale(0.015625)"/>
       <path id="SimHei-73" d="M 2750 900 
Q 2750 500 2437 287 
Q 2125 75 1650 75 
Q 1050 75 725 312 
Q 400 550 400 1000 
L 900 1000 
Q 900 700 1112 600 
Q 1325 500 1625 500 
Q 1925 500 2075 612 
Q 2225 725 2225 900 
Q 2225 1025 2100 1150 
Q 1975 1275 1475 1350 
Q 900 1425 687 1637 
Q 475 1850 475 2200 
Q 475 2500 762 2737 
Q 1050 2975 1600 2975 
Q 2100 2975 2387 2750 
Q 2675 2525 2675 2150 
L 2175 2150 
Q 2175 2375 2012 2462 
Q 1850 2550 1600 2550 
Q 1275 2550 1137 2437 
Q 1000 2325 1000 2175 
Q 1000 2000 1125 1900 
Q 1250 1800 1650 1750 
Q 2300 1650 2525 1437 
Q 2750 1225 2750 900 
z
" transform="scale(0.015625)"/>
       <path id="SimHei-6f" d="M 2925 1525 
Q 2925 875 2525 475 
Q 2125 75 1575 75 
Q 1025 75 625 475 
Q 225 875 225 1525 
Q 225 2175 625 2575 
Q 1025 2975 1575 2975 
Q 2125 2975 2525 2575 
Q 2925 2175 2925 1525 
z
M 2375 1525 
Q 2375 2025 2125 2275 
Q 1875 2525 1575 2525 
Q 1275 2525 1025 2275 
Q 775 2025 775 1525 
Q 775 1025 1025 775 
Q 1275 525 1575 525 
Q 1875 525 2125 775 
Q 2375 1025 2375 1525 
z
" transform="scale(0.015625)"/>
       <path id="SimHei-64" d="M 2750 125 
L 2250 125 
L 2250 500 
Q 2100 275 1900 175 
Q 1700 75 1425 75 
Q 925 75 575 437 
Q 225 800 225 1525 
Q 225 2250 575 2625 
Q 925 3000 1425 3000 
Q 1700 3000 1900 2887 
Q 2100 2775 2250 2550 
L 2250 4400 
L 2750 4400 
L 2750 125 
z
M 2250 1525 
Q 2250 2000 2037 2275 
Q 1825 2550 1525 2550 
Q 1150 2550 962 2275 
Q 775 2000 775 1525 
Q 775 1050 962 787 
Q 1150 525 1525 525 
Q 1825 525 2037 787 
Q 2250 1050 2250 1525 
z
" transform="scale(0.015625)"/>
       <path id="SimHei-65" d="M 2850 1075 
Q 2800 625 2450 350 
Q 2100 75 1625 75 
Q 1025 75 637 462 
Q 250 850 250 1525 
Q 250 2200 637 2587 
Q 1025 2975 1625 2975 
Q 2150 2975 2487 2637 
Q 2825 2300 2825 1525 
L 800 1525 
Q 800 975 1037 750 
Q 1275 525 1625 525 
Q 1900 525 2075 662 
Q 2250 800 2300 1075 
L 2850 1075 
z
M 2250 1925 
Q 2200 2275 2025 2412 
Q 1850 2550 1575 2550 
Q 1325 2550 1125 2412 
Q 925 2275 825 1925 
L 2250 1925 
z
" transform="scale(0.015625)"/>
      </defs>
      <use xlink:href="#SimHei-45"/>
      <use xlink:href="#SimHei-70" transform="translate(50 0)"/>
      <use xlink:href="#SimHei-69" transform="translate(100 0)"/>
      <use xlink:href="#SimHei-73" transform="translate(150 0)"/>
      <use xlink:href="#SimHei-6f" transform="translate(200 0)"/>
      <use xlink:href="#SimHei-64" transform="translate(250 0)"/>
      <use xlink:href="#SimHei-65" transform="translate(300 0)"/>
     </g>
    </g>
   </g>
   <g id="matplotlib.axis_2">
    <g id="ytick_1">
     <g id="line2d_19">
      <path d="M 49.2 354.204356 
L 607.2 354.204356 
" clip-path="url(#p4129f79f9e)" style="fill: none; stroke: #b0b0b0; stroke-opacity: 0.3; stroke-width: 0.8; stroke-linecap: square"/>
     </g>
     <g id="line2d_20">
      <defs>
       <path id="m622f2e0774" d="M 0 0 
L -3.5 0 
" style="stroke: #000000; stroke-width: 0.8"/>
      </defs>
      <g>
       <use xlink:href="#m622f2e0774" x="49.2" y="354.204356" style="stroke: #000000; stroke-width: 0.8"/>
      </g>
     </g>
     <g id="text_11">
      <!-- 0.0 -->
      <g transform="translate(24.2 358.329356) scale(0.12 -0.12)">
       <defs>
        <path id="SimHei-2e" d="M 1075 125 
L 500 125 
L 500 675 
L 1075 675 
L 1075 125 
z
" transform="scale(0.015625)"/>
       </defs>
       <use xlink:href="#SimHei-30"/>
       <use xlink:href="#SimHei-2e" transform="translate(50 0)"/>
       <use xlink:href="#SimHei-30" transform="translate(100 0)"/>
      </g>
     </g>
    </g>
    <g id="ytick_2">
     <g id="line2d_21">
      <path d="M 49.2 316.036448 
L 607.2 316.036448 
" clip-path="url(#p4129f79f9e)" style="fill: none; stroke: #b0b0b0; stroke-opacity: 0.3; stroke-width: 0.8; stroke-linecap: square"/>
     </g>
     <g id="line2d_22">
      <g>
       <use xlink:href="#m622f2e0774" x="49.2" y="316.036448" style="stroke: #000000; stroke-width: 0.8"/>
      </g>
     </g>
     <g id="text_12">
      <!-- 0.5 -->
      <g transform="translate(24.2 320.161448) scale(0.12 -0.12)">
       <use xlink:href="#SimHei-30"/>
       <use xlink:href="#SimHei-2e" transform="translate(50 0)"/>
       <use xlink:href="#SimHei-35" transform="translate(100 0)"/>
      </g>
     </g>
    </g>
    <g id="ytick_3">
     <g id="line2d_23">
      <path d="M 49.2 277.86854 
L 607.2 277.86854 
" clip-path="url(#p4129f79f9e)" style="fill: none; stroke: #b0b0b0; stroke-opacity: 0.3; stroke-width: 0.8; stroke-linecap: square"/>
     </g>
     <g id="line2d_24">
      <g>
       <use xlink:href="#m622f2e0774" x="49.2" y="277.86854" style="stroke: #000000; stroke-width: 0.8"/>
      </g>
     </g>
     <g id="text_13">
      <!-- 1.0 -->
      <g transform="translate(24.2 281.99354) scale(0.12 -0.12)">
       <use xlink:href="#SimHei-31"/>
       <use xlink:href="#SimHei-2e" transform="translate(50 0)"/>
       <use xlink:href="#SimHei-30" transform="translate(100 0)"/>
      </g>
     </g>
    </g>
    <g id="ytick_4">
     <g id="line2d_25">
      <path d="M 49.2 239.700632 
L 607.2 239.700632 
" clip-path="url(#p4129f79f9e)" style="fill: none; stroke: #b0b0b0; stroke-opacity: 0.3; stroke-width: 0.8; stroke-linecap: square"/>
     </g>
     <g id="line2d_26">
      <g>
       <use xlink:href="#m622f2e0774" x="49.2" y="239.700632" style="stroke: #000000; stroke-width: 0.8"/>
      </g>
     </g>
     <g id="text_14">
      <!-- 1.5 -->
      <g transform="translate(24.2 243.825632) scale(0.12 -0.12)">
       <use xlink:href="#SimHei-31"/>
       <use xlink:href="#SimHei-2e" transform="translate(50 0)"/>
       <use xlink:href="#SimHei-35" transform="translate(100 0)"/>
      </g>
     </g>
    </g>
    <g id="ytick_5">
     <g id="line2d_27">
      <path d="M 49.2 201.532723 
L 607.2 201.532723 
" clip-path="url(#p4129f79f9e)" style="fill: none; stroke: #b0b0b0; stroke-opacity: 0.3; stroke-width: 0.8; stroke-linecap: square"/>
     </g>
     <g id="line2d_28">
      <g>
       <use xlink:href="#m622f2e0774" x="49.2" y="201.532723" style="stroke: #000000; stroke-width: 0.8"/>
      </g>
     </g>
     <g id="text_15">
      <!-- 2.0 -->
      <g transform="translate(24.2 205.657723) scale(0.12 -0.12)">
       <use xlink:href="#SimHei-32"/>
       <use xlink:href="#SimHei-2e" transform="translate(50 0)"/>
       <use xlink:href="#SimHei-30" transform="translate(100 0)"/>
      </g>
     </g>
    </g>
    <g id="ytick_6">
     <g id="line2d_29">
      <path d="M 49.2 163.364815 
L 607.2 163.364815 
" clip-path="url(#p4129f79f9e)" style="fill: none; stroke: #b0b0b0; stroke-opacity: 0.3; stroke-width: 0.8; stroke-linecap: square"/>
     </g>
     <g id="line2d_30">
      <g>
       <use xlink:href="#m622f2e0774" x="49.2" y="163.364815" style="stroke: #000000; stroke-width: 0.8"/>
      </g>
     </g>
     <g id="text_16">
      <!-- 2.5 -->
      <g transform="translate(24.2 167.489815) scale(0.12 -0.12)">
       <use xlink:href="#SimHei-32"/>
       <use xlink:href="#SimHei-2e" transform="translate(50 0)"/>
       <use xlink:href="#SimHei-35" transform="translate(100 0)"/>
      </g>
     </g>
    </g>
    <g id="ytick_7">
     <g id="line2d_31">
      <path d="M 49.2 125.196907 
L 607.2 125.196907 
" clip-path="url(#p4129f79f9e)" style="fill: none; stroke: #b0b0b0; stroke-opacity: 0.3; stroke-width: 0.8; stroke-linecap: square"/>
     </g>
     <g id="line2d_32">
      <g>
       <use xlink:href="#m622f2e0774" x="49.2" y="125.196907" style="stroke: #000000; stroke-width: 0.8"/>
      </g>
     </g>
     <g id="text_17">
      <!-- 3.0 -->
      <g transform="translate(24.2 129.321907) scale(0.12 -0.12)">
       <use xlink:href="#SimHei-33"/>
       <use xlink:href="#SimHei-2e" transform="translate(50 0)"/>
       <use xlink:href="#SimHei-30" transform="translate(100 0)"/>
      </g>
     </g>
    </g>
    <g id="ytick_8">
     <g id="line2d_33">
      <path d="M 49.2 87.028999 
L 607.2 87.028999 
" clip-path="url(#p4129f79f9e)" style="fill: none; stroke: #b0b0b0; stroke-opacity: 0.3; stroke-width: 0.8; stroke-linecap: square"/>
     </g>
     <g id="line2d_34">
      <g>
       <use xlink:href="#m622f2e0774" x="49.2" y="87.028999" style="stroke: #000000; stroke-width: 0.8"/>
      </g>
     </g>
     <g id="text_18">
      <!-- 3.5 -->
      <g transform="translate(24.2 91.153999) scale(0.12 -0.12)">
       <use xlink:href="#SimHei-33"/>
       <use xlink:href="#SimHei-2e" transform="translate(50 0)"/>
       <use xlink:href="#SimHei-35" transform="translate(100 0)"/>
      </g>
     </g>
    </g>
    <g id="ytick_9">
     <g id="line2d_35">
      <path d="M 49.2 48.86109 
L 607.2 48.86109 
" clip-path="url(#p4129f79f9e)" style="fill: none; stroke: #b0b0b0; stroke-opacity: 0.3; stroke-width: 0.8; stroke-linecap: square"/>
     </g>
     <g id="line2d_36">
      <g>
       <use xlink:href="#m622f2e0774" x="49.2" y="48.86109" style="stroke: #000000; stroke-width: 0.8"/>
      </g>
     </g>
     <g id="text_19">
      <!-- 4.0 -->
      <g transform="translate(24.2 52.98609) scale(0.12 -0.12)">
       <use xlink:href="#SimHei-34"/>
       <use xlink:href="#SimHei-2e" transform="translate(50 0)"/>
       <use xlink:href="#SimHei-30" transform="translate(100 0)"/>
      </g>
     </g>
    </g>
    <g id="text_20">
     <!-- Energy -->
     <g transform="translate(18.2 214.645) rotate(-90) scale(0.16 -0.16)">
      <defs>
       <path id="SimHei-6e" d="M 2800 125 
L 2300 125 
L 2300 1925 
Q 2300 2225 2150 2400 
Q 2000 2575 1750 2575 
Q 1425 2575 1137 2237 
Q 850 1900 850 1400 
L 850 125 
L 350 125 
L 350 2925 
L 850 2925 
L 850 2400 
Q 1050 2675 1287 2825 
Q 1525 2975 1900 2975 
Q 2350 2975 2575 2725 
Q 2800 2475 2800 2100 
L 2800 125 
z
" transform="scale(0.015625)"/>
       <path id="SimHei-72" d="M 2500 2425 
Q 2025 2500 1700 2287 
Q 1375 2075 1150 1550 
L 1150 125 
L 650 125 
L 650 2925 
L 1150 2925 
L 1150 2200 
Q 1375 2600 1712 2787 
Q 2050 2975 2500 2975 
L 2500 2425 
z
" transform="scale(0.015625)"/>
       <path id="SimHei-67" d="M 2975 2500 
Q 2800 2550 2637 2562 
Q 2475 2575 2300 2525 
Q 2375 2450 2425 2337 
Q 2475 2225 2475 2000 
Q 2475 1575 2187 1300 
Q 1900 1025 1475 1025 
Q 1375 1025 1212 1062 
Q 1050 1100 950 1150 
Q 875 1100 850 1050 
Q 825 1000 825 925 
Q 825 800 1000 737 
Q 1175 675 1625 675 
Q 2350 675 2612 475 
Q 2875 275 2875 -25 
Q 2875 -425 2487 -612 
Q 2100 -800 1575 -800 
Q 900 -800 575 -625 
Q 250 -450 250 -150 
Q 250 0 375 150 
Q 500 300 700 400 
Q 550 475 462 587 
Q 375 700 375 875 
Q 375 1025 487 1137 
Q 600 1250 750 1325 
Q 625 1450 550 1625 
Q 475 1800 475 2000 
Q 475 2425 762 2700 
Q 1050 2975 1475 2975 
Q 1700 2975 1862 2912 
Q 2025 2850 2150 2725 
Q 2350 2875 2550 2937 
Q 2750 3000 2975 2975 
L 2975 2500 
z
M 1975 2000 
Q 1975 2250 1850 2400 
Q 1725 2550 1475 2550 
Q 1225 2550 1100 2400 
Q 975 2250 975 2000 
Q 975 1750 1100 1600 
Q 1225 1450 1475 1450 
Q 1725 1450 1850 1600 
Q 1975 1750 1975 2000 
z
M 2400 -75 
Q 2400 25 2287 125 
Q 2175 225 1725 225 
Q 1625 225 1450 237 
Q 1275 250 1050 275 
Q 850 200 775 100 
Q 700 0 700 -100 
Q 700 -250 900 -350 
Q 1100 -450 1600 -450 
Q 2025 -450 2212 -337 
Q 2400 -225 2400 -75 
z
" transform="scale(0.015625)"/>
       <path id="SimHei-79" d="M 2900 2925 
L 1750 -100 
Q 1650 -450 1450 -625 
Q 1250 -800 950 -800 
Q 825 -800 712 -787 
Q 600 -775 500 -725 
L 500 -225 
Q 600 -275 700 -300 
Q 800 -325 875 -325 
Q 1075 -325 1150 -262 
Q 1225 -200 1300 25 
L 200 2925 
L 750 2925 
L 1550 725 
L 1575 725 
L 2350 2925 
L 2900 2925 
z
" transform="scale(0.015625)"/>
      </defs>
      <use xlink:href="#SimHei-45"/>
      <use xlink:href="#SimHei-6e" transform="translate(50 0)"/>
      <use xlink:href="#SimHei-65" transform="translate(100 0)"/>
      <use xlink:href="#SimHei-72" transform="translate(150 0)"/>
      <use xlink:href="#SimHei-67" transform="translate(200 0)"/>
      <use xlink:href="#SimHei-79" transform="translate(250 0)"/>
     </g>
    </g>
   </g>
   <g id="line2d_37">
    <path d="M 74.563636 39.445 
L 75.834997 48.766688 
L 77.106357 49.104398 
L 78.377717 51.361113 
L 79.649077 45.47631 
L 80.920437 49.896781 
L 82.191798 58.419768 
L 83.463158 58.544519 
L 84.734518 67.727816 
L 86.005878 75.824074 
L 87.277239 79.837366 
L 88.548599 67.371496 
L 89.819959 66.210923 
L 91.091319 72.642617 
L 92.362679 84.876876 
L 93.63404 88.464604 
L 94.9054 65.088736 
L 96.17676 69.960329 
L 97.44812 78.230592 
L 98.719481 88.625033 
L 99.990841 93.980925 
L 101.262201 96.493208 
L 103.804921 109.131304 
L 105.076282 112.606127 
L 106.347642 121.696885 
L 107.619002 122.796525 
L 108.890362 125.409871 
L 110.161722 127.765989 
L 111.433083 127.456631 
L 113.975803 134.765619 
L 115.247163 138.775503 
L 116.518524 146.713893 
L 119.061244 165.805894 
L 121.603964 182.973556 
L 124.146685 198.438291 
L 126.689405 212.431693 
L 127.960766 216.227413 
L 130.503486 228.528094 
L 133.046206 239.546281 
L 135.588927 249.432973 
L 138.131647 258.267944 
L 140.674368 266.454004 
L 143.217088 273.790308 
L 145.759809 280.446055 
L 148.302529 286.327659 
L 150.845249 291.728295 
L 153.38797 296.60916 
L 157.202051 303.052011 
L 159.744771 306.866443 
L 162.287491 310.248308 
L 164.830212 313.301971 
L 168.644293 317.277775 
L 171.187013 319.737597 
L 173.729733 321.925976 
L 175.001094 321.181667 
L 180.086535 325.032395 
L 186.443336 328.764355 
L 190.257416 330.612341 
L 192.800137 331.731732 
L 199.156938 334.021537 
L 202.971018 335.062386 
L 205.513739 335.693712 
L 216.955981 337.941457 
L 218.227341 338.143957 
L 219.498701 337.167048 
L 220.770062 337.377612 
L 222.041422 337.393961 
L 228.398223 338.425239 
L 234.755024 339.172691 
L 243.654545 339.958934 
L 244.925906 339.833342 
L 247.468626 340.056381 
L 253.825427 340.335099 
L 255.096787 339.055124 
L 257.639508 339.355687 
L 261.453589 339.656266 
L 263.996309 339.893555 
L 265.267669 339.811444 
L 266.539029 338.574465 
L 276.709911 339.685106 
L 284.338072 340.299323 
L 285.609433 340.14391 
L 294.508954 340.727818 
L 298.323035 340.84634 
L 299.594395 340.773894 
L 305.951196 341.083223 
L 309.765277 341.18829 
L 311.036637 341.231572 
L 312.307997 339.177556 
L 316.122078 339.600523 
L 322.478879 340.177016 
L 325.021599 340.363473 
L 350.448804 341.385948 
L 379.690089 341.74235 
L 380.961449 338.770262 
L 384.77553 339.163208 
L 394.946411 340.126322 
L 401.303213 340.530856 
L 406.388653 340.711294 
L 416.559535 341.184194 
L 430.544498 341.533564 
L 434.358578 341.521606 
L 436.901299 341.60563 
L 438.172659 341.597532 
L 439.444019 340.306951 
L 452.157621 340.985123 
L 463.599863 341.296043 
L 467.413944 341.32882 
L 477.584826 341.500875 
L 485.212987 341.527924 
L 489.027068 341.596017 
L 492.841148 341.591346 
L 496.655229 341.682453 
L 501.74067 341.713705 
L 506.826111 341.768676 
L 516.996992 341.810308 
L 523.353794 341.798539 
L 528.439234 341.792717 
L 532.253315 341.843209 
L 534.796036 341.802742 
L 537.338756 341.827454 
L 539.881476 341.699746 
L 544.966917 341.749208 
L 551.323718 341.752501 
L 552.595079 341.618953 
L 553.866439 340.163568 
L 555.137799 340.291031 
L 556.409159 330.867111 
L 557.680519 331.422269 
L 560.22324 332.309265 
L 561.4946 331.592682 
L 565.308681 333.074115 
L 569.122761 334.380626 
L 571.665482 335.117986 
L 579.293643 336.896415 
L 581.836364 337.364509 
L 581.836364 337.364509 
" clip-path="url(#p4129f79f9e)" style="fill: none; stroke: #1f77b4; stroke-width: 1.2; stroke-linecap: square"/>
   </g>
   <g id="line2d_38">
    <path d="M 74.563636 324.531193 
L 75.834997 308.258374 
L 77.106357 282.585604 
L 78.377717 278.821651 
L 79.649077 261.420102 
L 80.920437 241.803699 
L 82.191798 238.624496 
L 83.463158 236.502385 
L 84.734518 236.431747 
L 86.005878 226.674313 
L 87.277239 228.330874 
L 88.548599 225.881033 
L 89.819959 225.748493 
L 91.091319 204.70449 
L 92.362679 209.621255 
L 93.63404 212.557116 
L 94.9054 206.088057 
L 96.17676 197.219555 
L 97.44812 197.72752 
L 99.990841 205.299539 
L 101.262201 205.506724 
L 102.533561 200.43377 
L 103.804921 187.743092 
L 105.076282 186.241184 
L 106.347642 178.244463 
L 107.619002 175.167441 
L 108.890362 175.394297 
L 111.433083 163.081731 
L 112.704443 153.592167 
L 113.975803 153.696065 
L 115.247163 155.60485 
L 116.518524 153.780675 
L 117.789884 152.992868 
L 119.061244 152.621772 
L 120.332604 147.395953 
L 121.603964 151.920323 
L 122.875325 143.983412 
L 124.146685 149.726331 
L 125.418045 148.819665 
L 126.689405 148.113062 
L 127.960766 152.035206 
L 129.232126 143.196621 
L 130.503486 139.836359 
L 131.774846 136.013931 
L 133.046206 138.314342 
L 136.860287 167.002461 
L 139.403008 184.049289 
L 141.945728 199.386541 
L 144.488448 213.250872 
L 147.031169 225.761372 
L 149.573889 237.06035 
L 152.11661 247.195088 
L 154.65933 256.450724 
L 157.202051 264.760535 
L 159.744771 272.251735 
L 162.287491 279.005877 
L 164.830212 285.083332 
L 167.372932 290.60156 
L 169.915653 295.665817 
L 172.458373 300.215255 
L 175.001094 304.227543 
L 177.543814 307.882677 
L 180.086535 311.142305 
L 182.629255 314.142498 
L 185.171975 316.846624 
L 187.714696 319.245009 
L 188.986056 320.38915 
L 190.257416 320.0027 
L 192.800137 322.078631 
L 200.428298 327.280006 
L 201.699658 328.019778 
L 202.971018 326.051945 
L 205.513739 327.5822 
L 208.056459 328.936552 
L 210.59918 330.078857 
L 214.41326 331.781916 
L 215.684621 332.320893 
L 216.955981 330.222219 
L 219.498701 331.377117 
L 227.126863 334.211742 
L 228.398223 334.447413 
L 233.483664 335.833991 
L 238.569105 337.006244 
L 242.383185 337.664489 
L 247.468626 338.466434 
L 251.282707 338.976129 
L 257.639508 339.622749 
L 258.910868 339.455695 
L 266.539029 340.066624 
L 267.81039 339.862187 
L 280.523992 340.70912 
L 281.795352 340.789786 
L 283.066712 340.757049 
L 284.338072 337.647462 
L 288.152153 338.194336 
L 291.966234 338.715454 
L 299.594395 339.49227 
L 305.951196 339.956025 
L 307.222556 337.115579 
L 311.036637 337.790396 
L 321.207519 339.218729 
L 333.921121 340.352872 
L 340.277922 340.624463 
L 344.092003 340.823346 
L 345.363363 340.209713 
L 352.991524 340.726276 
L 370.790567 341.19652 
L 377.147368 341.359149 
L 383.50417 341.49509 
L 384.77553 339.505734 
L 386.04689 339.65792 
L 387.31825 337.746441 
L 393.675051 338.628401 
L 400.031852 339.236072 
L 401.303213 339.363229 
L 402.574573 339.294015 
L 411.474094 340.100119 
L 415.288175 340.355459 
L 440.715379 341.280474 
L 444.52946 341.294275 
L 454.700342 341.438238 
L 462.328503 341.620208 
L 466.142584 341.586152 
L 467.413944 341.661742 
L 468.685304 341.50394 
L 472.499385 341.554351 
L 473.770745 338.328097 
L 481.398906 339.341537 
L 492.841148 340.275861 
L 503.01203 340.842846 
L 504.28339 339.549462 
L 508.097471 339.852744 
L 511.911552 340.150304 
L 514.454272 340.330192 
L 515.725632 340.095358 
L 524.625154 340.670348 
L 557.680519 341.567612 
L 560.22324 341.550766 
L 564.037321 341.621127 
L 569.122761 341.68151 
L 571.665482 341.684978 
L 575.479563 341.740676 
L 576.750923 340.167034 
L 580.565003 340.436506 
L 580.565003 340.436506 
" clip-path="url(#p4129f79f9e)" style="fill: none; stroke: #ff7f0e; stroke-width: 1.2; stroke-linecap: square"/>
   </g>
   <g id="line2d_39">
    <path d="M 74.563636 119.006794 
L 75.834997 121.977924 
L 77.106357 112.728601 
L 78.377717 116.106249 
L 79.649077 125.745588 
L 80.920437 130.593258 
L 82.191798 130.595695 
L 83.463158 138.465535 
L 84.734518 135.064699 
L 86.005878 136.092832 
L 87.277239 139.976749 
L 88.548599 141.453754 
L 89.819959 148.729864 
L 91.091319 144.194903 
L 92.362679 146.207001 
L 93.63404 133.500691 
L 94.9054 133.42713 
L 96.17676 135.346473 
L 97.44812 140.808657 
L 98.719481 129.640359 
L 99.990841 129.741712 
L 101.262201 135.326317 
L 102.533561 137.111212 
L 105.076282 127.043587 
L 106.347642 134.784861 
L 107.619002 128.790591 
L 108.890362 131.301929 
L 110.161722 128.646276 
L 111.433083 133.880272 
L 112.704443 136.927656 
L 113.975803 129.110566 
L 116.518524 136.687852 
L 117.789884 134.283253 
L 119.061244 130.081488 
L 120.332604 124.938304 
L 122.875325 121.861692 
L 124.146685 117.491207 
L 125.418045 112.142925 
L 126.689405 112.437281 
L 127.960766 104.298645 
L 129.232126 112.867405 
L 130.503486 110.163181 
L 131.774846 106.851524 
L 133.046206 108.710777 
L 134.317567 108.128595 
L 135.588927 113.384881 
L 136.860287 115.760235 
L 138.131647 119.215527 
L 139.403008 111.442927 
L 140.674368 117.596364 
L 141.945728 122.898211 
L 143.217088 124.868399 
L 144.488448 112.81281 
L 145.759809 106.973423 
L 147.031169 97.164374 
L 148.302529 100.057963 
L 149.573889 90.791304 
L 150.845249 91.140491 
L 152.11661 89.184416 
L 153.38797 84.995606 
L 154.65933 93.14953 
L 155.93069 95.49404 
L 157.202051 88.0393 
L 158.473411 69.142176 
L 159.744771 74.578714 
L 161.016131 72.360672 
L 162.287491 77.507449 
L 163.558852 79.155215 
L 164.830212 84.938838 
L 166.101572 89.465278 
L 167.372932 89.616557 
L 168.644293 94.227097 
L 169.915653 97.473774 
L 171.187013 106.159422 
L 172.458373 106.176777 
L 173.729733 104.935191 
L 175.001094 100.313149 
L 176.272454 104.259895 
L 177.543814 109.476118 
L 178.815174 113.978967 
L 180.086535 109.79316 
L 181.357895 108.156336 
L 182.629255 107.789711 
L 183.900615 95.182687 
L 185.171975 96.889347 
L 186.443336 96.972132 
L 187.714696 92.806899 
L 188.986056 85.78728 
L 190.257416 84.81879 
L 191.528776 63.444175 
L 192.800137 62.206053 
L 194.071497 68.857683 
L 195.342857 72.806066 
L 196.614217 58.832768 
L 197.885578 58.381404 
L 199.156938 64.258367 
L 200.428298 72.564986 
L 201.699658 74.908624 
L 202.971018 66.736991 
L 204.242379 67.786081 
L 205.513739 73.065581 
L 206.785099 62.108256 
L 208.056459 66.250639 
L 209.32782 76.275262 
L 210.59918 67.882883 
L 211.87054 56.24146 
L 213.1419 49.44329 
L 214.41326 41.420978 
L 215.684621 53.494622 
L 216.955981 51.090483 
L 218.227341 47.289201 
L 219.498701 55.641508 
L 220.770062 61.332353 
L 222.041422 69.968958 
L 224.584142 96.473138 
L 227.126863 120.363345 
L 229.669583 141.977223 
L 232.212303 161.434149 
L 234.755024 179.049974 
L 237.297744 194.923275 
L 239.840465 209.278268 
L 242.383185 222.190764 
L 244.925906 233.83583 
L 247.468626 244.405116 
L 250.011347 253.876547 
L 252.554067 262.493889 
L 255.096787 270.227381 
L 257.639508 277.245086 
L 260.182228 283.524261 
L 262.724949 289.241357 
L 265.267669 294.398346 
L 267.81039 299.068274 
L 270.35311 303.22323 
L 272.89583 307.013107 
L 275.438551 310.371424 
L 279.252632 314.890159 
L 280.523992 316.207315 
L 281.795352 317.311244 
L 284.338072 319.767977 
L 286.880793 321.925337 
L 289.423513 323.861406 
L 291.966234 325.611964 
L 294.508954 327.177761 
L 298.323035 329.256786 
L 299.594395 329.898322 
L 302.137116 330.894197 
L 304.679836 331.970416 
L 308.493917 333.370445 
L 316.122078 335.613015 
L 321.207519 336.772601 
L 326.29296 337.719077 
L 327.56432 337.95864 
L 330.10704 338.258898 
L 332.649761 338.615345 
L 337.735202 339.189236 
L 345.363363 339.88066 
L 346.634723 339.987777 
L 347.906083 336.827379 
L 351.720164 337.542564 
L 356.805605 338.376555 
L 364.433766 339.361206 
L 365.705126 337.564315 
L 372.061928 338.545073 
L 379.690089 339.503194 
L 384.77553 339.96588 
L 392.403691 340.485119 
L 393.675051 340.52626 
L 394.946411 335.425237 
L 400.031852 336.632321 
L 403.845933 337.416671 
L 407.660014 338.001796 
L 419.102256 339.447358 
L 421.644976 339.629948 
L 422.916336 338.540218 
L 425.459057 338.909209 
L 428.001777 339.145162 
L 431.815858 339.449809 
L 436.901299 339.864362 
L 441.98674 340.213392 
L 448.343541 340.596152 
L 466.142584 341.235881 
L 471.228025 341.253344 
L 475.042105 341.355609 
L 476.313465 339.540718 
L 478.856186 339.78398 
L 486.484347 340.300439 
L 496.655229 340.835362 
L 499.197949 340.927659 
L 505.554751 341.126887 
L 519.539713 341.488382 
L 524.625154 341.504501 
L 525.896514 338.256666 
L 530.981955 338.967091 
L 532.253315 336.109557 
L 536.067396 336.960655 
L 542.424197 338.140003 
L 547.509638 338.818609 
L 548.780998 338.937173 
L 550.052358 335.86701 
L 553.866439 336.712278 
L 557.680519 337.42097 
L 565.308681 338.624157 
L 569.122761 339.092915 
L 572.936842 339.529356 
L 578.022283 339.950451 
L 579.293643 337.330457 
L 580.565003 337.500773 
L 580.565003 337.500773 
" clip-path="url(#p4129f79f9e)" style="fill: none; stroke: #2ca02c; stroke-width: 1.2; stroke-linecap: square"/>
   </g>
   <g id="line2d_40">
    <path d="M 74.563636 119.006794 
L 75.834997 121.674323 
L 77.106357 120.596658 
L 78.377717 129.591367 
L 79.649077 136.661514 
L 80.920437 146.735066 
L 82.191798 152.848436 
L 84.734518 171.084187 
L 86.005878 179.559196 
L 87.277239 184.352176 
L 89.819959 199.559046 
L 92.362679 213.333936 
L 94.9054 225.869162 
L 97.44812 237.185494 
L 99.990841 247.356219 
L 102.533561 256.564358 
L 105.076282 264.862622 
L 106.347642 268.730196 
L 107.619002 270.890608 
L 110.161722 277.831877 
L 112.704443 284.103292 
L 115.247163 289.716131 
L 117.789884 294.806887 
L 120.332604 299.375306 
L 122.875325 303.517447 
L 126.689405 308.976508 
L 129.232126 312.229217 
L 133.046206 316.490799 
L 135.588927 318.921597 
L 139.403008 322.228848 
L 140.674368 323.227955 
L 141.945728 321.98203 
L 144.488448 323.913338 
L 148.302529 326.447189 
L 152.11661 328.595639 
L 153.38797 329.249342 
L 155.93069 330.392403 
L 159.744771 331.974659 
L 163.558852 333.374636 
L 167.372932 334.585687 
L 168.644293 334.639859 
L 176.272454 336.522085 
L 182.629255 337.714263 
L 191.528776 338.971045 
L 209.32782 340.522677 
L 210.59918 340.582731 
L 211.87054 340.502283 
L 223.312782 340.926387 
L 232.212303 341.063058 
L 238.569105 341.271314 
L 239.840465 341.186101 
L 257.639508 341.520038 
L 260.182228 341.50874 
L 261.453589 339.240547 
L 267.81039 339.813112 
L 277.981271 340.479503 
L 285.609433 340.845954 
L 288.152153 340.897032 
L 295.780314 341.160883 
L 299.594395 341.186355 
L 305.951196 341.360691 
L 314.850718 341.549124 
L 316.122078 339.169887 
L 319.936159 339.562303 
L 322.478879 339.830873 
L 328.83568 340.239761 
L 330.10704 335.266723 
L 333.921121 336.165628 
L 337.735202 336.994792 
L 342.820643 337.861271 
L 344.092003 333.513851 
L 347.906083 334.818399 
L 354.262884 336.448818 
L 360.619686 337.693158 
L 364.433766 338.174556 
L 368.247847 338.759087 
L 377.147368 339.782905 
L 378.418729 339.787888 
L 383.50417 340.167891 
L 387.31825 340.390328 
L 388.58961 338.554084 
L 392.403691 338.979935 
L 398.760492 339.696915 
L 407.660014 340.354869 
L 415.288175 340.756492 
L 425.459057 341.126477 
L 428.001777 341.215926 
L 439.444019 341.437879 
L 440.715379 338.741115 
L 441.98674 336.814705 
L 443.2581 337.052402 
L 444.52946 335.675954 
L 448.343541 336.525437 
L 453.428982 337.503587 
L 459.785783 338.535135 
L 468.685304 339.555607 
L 473.770745 339.97181 
L 475.042105 339.690001 
L 480.127546 340.058716 
L 497.926589 341.02097 
L 509.368831 341.375565 
L 511.911552 341.444702 
L 515.725632 341.505763 
L 519.539713 341.521621 
L 530.981955 341.577311 
L 533.524675 341.561997 
L 541.152837 341.667117 
L 547.509638 341.661792 
L 557.680519 341.700155 
L 565.308681 341.724176 
L 566.580041 339.911967 
L 575.479563 340.512318 
L 576.750923 340.565032 
L 578.022283 338.256741 
L 580.565003 338.592654 
L 580.565003 338.592654 
" clip-path="url(#p4129f79f9e)" style="fill: none; stroke: #9467bd; stroke-width: 1.2; stroke-linecap: square"/>
   </g>
   <g id="patch_3">
    <path d="M 49.2 356.965 
L 49.2 24.325 
" style="fill: none; stroke: #000000; stroke-width: 0.8; stroke-linejoin: miter; stroke-linecap: square"/>
   </g>
   <g id="patch_4">
    <path d="M 607.2 356.965 
L 607.2 24.325 
" style="fill: none; stroke: #000000; stroke-width: 0.8; stroke-linejoin: miter; stroke-linecap: square"/>
   </g>
   <g id="patch_5">
    <path d="M 49.2 356.965 
L 607.2 356.965 
" style="fill: none; stroke: #000000; stroke-width: 0.8; stroke-linejoin: miter; stroke-linecap: square"/>
   </g>
   <g id="patch_6">
    <path d="M 49.2 24.325 
L 607.2 24.325 
" style="fill: none; stroke: #000000; stroke-width: 0.8; stroke-linejoin: miter; stroke-linecap: square"/>
   </g>
   <g id="text_21">
    <!-- Total Energy Consumption -->
    <g transform="translate(232.2 18.325) scale(0.16 -0.16)">
     <defs>
      <path id="SimHei-54" d="M 2850 3925 
L 1850 3925 
L 1850 125 
L 1275 125 
L 1275 3925 
L 275 3925 
L 275 4400 
L 2850 4400 
L 2850 3925 
z
" transform="scale(0.015625)"/>
      <path id="SimHei-74" d="M 2750 200 
Q 2625 150 2462 112 
Q 2300 75 2025 75 
Q 1575 75 1300 325 
Q 1025 575 1025 1025 
L 1025 2525 
L 175 2525 
L 175 2925 
L 1025 2925 
L 1025 3900 
L 1525 3900 
L 1525 2925 
L 2550 2925 
L 2550 2525 
L 1525 2525 
L 1525 1000 
Q 1525 800 1625 662 
Q 1725 525 2000 525 
Q 2275 525 2450 575 
Q 2625 625 2750 700 
L 2750 200 
z
" transform="scale(0.015625)"/>
      <path id="SimHei-61" d="M 2875 125 
L 2275 125 
Q 2225 175 2200 262 
Q 2175 350 2175 475 
Q 2000 275 1750 175 
Q 1500 75 1225 75 
Q 825 75 550 275 
Q 275 475 275 850 
Q 275 1225 525 1450 
Q 775 1675 1300 1750 
Q 1650 1800 1912 1875 
Q 2175 1950 2175 2075 
Q 2175 2225 2062 2375 
Q 1950 2525 1575 2525 
Q 1275 2525 1137 2412 
Q 1000 2300 950 2100 
L 400 2100 
Q 450 2500 762 2737 
Q 1075 2975 1575 2975 
Q 2125 2975 2400 2725 
Q 2675 2475 2675 2025 
L 2675 650 
Q 2675 500 2725 375 
Q 2775 250 2875 125 
z
M 2175 1050 
L 2175 1550 
Q 2025 1500 1887 1462 
Q 1750 1425 1425 1375 
Q 1050 1325 937 1200 
Q 825 1075 825 900 
Q 825 750 937 637 
Q 1050 525 1275 525 
Q 1500 525 1762 650 
Q 2025 775 2175 1050 
z
" transform="scale(0.015625)"/>
      <path id="SimHei-6c" d="M 1825 125 
L 1325 125 
L 1325 4400 
L 1825 4400 
L 1825 125 
z
" transform="scale(0.015625)"/>
      <path id="SimHei-20" transform="scale(0.015625)"/>
      <path id="SimHei-43" d="M 2975 1825 
Q 2950 875 2575 475 
Q 2200 75 1675 75 
Q 1075 75 650 562 
Q 225 1050 225 2125 
Q 225 3300 637 3875 
Q 1050 4450 1700 4450 
Q 2250 4450 2612 4037 
Q 2975 3625 2950 2875 
L 2400 2875 
Q 2400 3425 2225 3700 
Q 2050 3975 1700 3975 
Q 1300 3975 1062 3562 
Q 825 3150 825 2175 
Q 825 1275 1062 912 
Q 1300 550 1675 550 
Q 1950 550 2175 812 
Q 2400 1075 2400 1825 
L 2975 1825 
z
" transform="scale(0.015625)"/>
      <path id="SimHei-75" d="M 2800 125 
L 2300 125 
L 2300 650 
Q 2100 375 1862 225 
Q 1625 75 1250 75 
Q 800 75 575 325 
Q 350 575 350 950 
L 350 2925 
L 850 2925 
L 850 1125 
Q 850 825 1000 650 
Q 1150 475 1400 475 
Q 1725 475 2012 812 
Q 2300 1150 2300 1650 
L 2300 2925 
L 2800 2925 
L 2800 125 
z
" transform="scale(0.015625)"/>
      <path id="SimHei-6d" d="M 3050 125 
L 2550 125 
L 2550 2150 
Q 2550 2300 2500 2400 
Q 2450 2500 2300 2500 
Q 2125 2500 1975 2312 
Q 1825 2125 1825 1825 
L 1825 125 
L 1325 125 
L 1325 2150 
Q 1325 2300 1275 2400 
Q 1225 2500 1075 2500 
Q 900 2500 750 2312 
Q 600 2125 600 1825 
L 600 125 
L 100 125 
L 100 2925 
L 600 2925 
L 600 2550 
Q 725 2750 900 2862 
Q 1075 2975 1275 2975 
Q 1475 2975 1612 2862 
Q 1750 2750 1800 2550 
Q 1925 2750 2087 2862 
Q 2250 2975 2450 2975 
Q 2750 2975 2900 2812 
Q 3050 2650 3050 2350 
L 3050 125 
z
" transform="scale(0.015625)"/>
     </defs>
     <use xlink:href="#SimHei-54"/>
     <use xlink:href="#SimHei-6f" transform="translate(50 0)"/>
     <use xlink:href="#SimHei-74" transform="translate(100 0)"/>
     <use xlink:href="#SimHei-61" transform="translate(150 0)"/>
     <use xlink:href="#SimHei-6c" transform="translate(200 0)"/>
     <use xlink:href="#SimHei-20" transform="translate(250 0)"/>
     <use xlink:href="#SimHei-45" transform="translate(300 0)"/>
     <use xlink:href="#SimHei-6e" transform="translate(350 0)"/>
     <use xlink:href="#SimHei-65" transform="translate(400 0)"/>
     <use xlink:href="#SimHei-72" transform="translate(450 0)"/>
     <use xlink:href="#SimHei-67" transform="translate(500 0)"/>
     <use xlink:href="#SimHei-79" transform="translate(550 0)"/>
     <use xlink:href="#SimHei-20" transform="translate(600 0)"/>
     <use xlink:href="#SimHei-43" transform="translate(650 0)"/>
     <use xlink:href="#SimHei-6f" transform="translate(700 0)"/>
     <use xlink:href="#SimHei-6e" transform="translate(750 0)"/>
     <use xlink:href="#SimHei-73" transform="translate(800 0)"/>
     <use xlink:href="#SimHei-75" transform="translate(850 0)"/>
     <use xlink:href="#SimHei-6d" transform="translate(900 0)"/>
     <use xlink:href="#SimHei-70" transform="translate(950 0)"/>
     <use xlink:href="#SimHei-74" transform="translate(1000 0)"/>
     <use xlink:href="#SimHei-69" transform="translate(1050 0)"/>
     <use xlink:href="#SimHei-6f" transform="translate(1100 0)"/>
     <use xlink:href="#SimHei-6e" transform="translate(1150 0)"/>
    </g>
   </g>
   <g id="legend_1">
    <g id="patch_7">
     <path d="M 482.4 97.525 
L 598.8 97.525 
Q 601.2 97.525 601.2 95.125 
L 601.2 32.725 
Q 601.2 30.325 598.8 30.325 
L 482.4 30.325 
Q 480 30.325 480 32.725 
L 480 95.125 
Q 480 97.525 482.4 97.525 
z
" style="fill: #ffffff; opacity: 0.8; stroke: #cccccc; stroke-linejoin: miter"/>
    </g>
    <g id="line2d_41">
     <path d="M 484.8 39.325 
L 496.8 39.325 
L 508.8 39.325 
" style="fill: none; stroke: #1f77b4; stroke-width: 1.2; stroke-linecap: square"/>
    </g>
    <g id="text_22">
     <!-- GCN-DDQN -->
     <g transform="translate(518.4 43.525) scale(0.12 -0.12)">
      <defs>
       <path id="SimHei-47" d="M 2850 75 
L 2425 75 
L 2350 425 
Q 2250 275 2037 175 
Q 1825 75 1575 75 
Q 1050 75 637 562 
Q 225 1050 225 2125 
Q 225 3300 600 3875 
Q 975 4450 1625 4450 
Q 2200 4450 2525 4025 
Q 2850 3600 2850 2925 
L 2300 2925 
Q 2300 3450 2125 3712 
Q 1950 3975 1625 3975 
Q 1225 3975 1025 3562 
Q 825 3150 825 2175 
Q 825 1250 1075 900 
Q 1325 550 1650 550 
Q 1975 550 2162 787 
Q 2350 1025 2350 1525 
L 2350 1800 
L 1575 1800 
L 1575 2275 
L 2850 2275 
L 2850 75 
z
" transform="scale(0.015625)"/>
       <path id="SimHei-4e" d="M 2850 125 
L 2225 125 
L 850 3225 
L 825 3225 
L 825 125 
L 250 125 
L 250 4400 
L 875 4400 
L 2250 1300 
L 2275 1300 
L 2275 4400 
L 2850 4400 
L 2850 125 
z
" transform="scale(0.015625)"/>
       <path id="SimHei-2d" d="M 2975 2125 
L 125 2125 
L 125 2525 
L 2975 2525 
L 2975 2125 
z
" transform="scale(0.015625)"/>
       <path id="SimHei-44" d="M 2925 2250 
Q 2925 1100 2437 612 
Q 1950 125 1125 125 
L 275 125 
L 275 4400 
L 1125 4400 
Q 2050 4400 2487 3900 
Q 2925 3400 2925 2250 
z
M 2325 2250 
Q 2325 3175 2025 3550 
Q 1725 3925 1125 3925 
L 850 3925 
L 850 600 
L 1125 600 
Q 1725 600 2025 962 
Q 2325 1325 2325 2250 
z
" transform="scale(0.015625)"/>
       <path id="SimHei-51" d="M 2950 2275 
Q 2950 1675 2862 1262 
Q 2775 850 2575 600 
L 2775 225 
L 2375 -200 
L 2150 225 
Q 2050 150 1900 112 
Q 1750 75 1575 75 
Q 925 75 550 587 
Q 175 1100 175 2275 
Q 175 3450 550 3950 
Q 925 4450 1575 4450 
Q 2225 4450 2587 3950 
Q 2950 3450 2950 2275 
z
M 2350 2275 
Q 2350 3325 2125 3650 
Q 1900 3975 1575 3975 
Q 1250 3975 1012 3650 
Q 775 3325 775 2275 
Q 775 1225 1012 887 
Q 1250 550 1575 550 
Q 1700 550 1800 587 
Q 1900 625 1950 675 
L 1550 1450 
L 1900 1875 
L 2250 1200 
Q 2300 1450 2325 1650 
Q 2350 1850 2350 2275 
z
" transform="scale(0.015625)"/>
      </defs>
      <use xlink:href="#SimHei-47"/>
      <use xlink:href="#SimHei-43" transform="translate(50 0)"/>
      <use xlink:href="#SimHei-4e" transform="translate(100 0)"/>
      <use xlink:href="#SimHei-2d" transform="translate(150 0)"/>
      <use xlink:href="#SimHei-44" transform="translate(200 0)"/>
      <use xlink:href="#SimHei-44" transform="translate(250 0)"/>
      <use xlink:href="#SimHei-51" transform="translate(300 0)"/>
      <use xlink:href="#SimHei-4e" transform="translate(350 0)"/>
     </g>
    </g>
    <g id="line2d_42">
     <path d="M 484.8 55.225 
L 496.8 55.225 
L 508.8 55.225 
" style="fill: none; stroke: #ff7f0e; stroke-width: 1.2; stroke-linecap: square"/>
    </g>
    <g id="text_23">
     <!-- GCN-D3QN -->
     <g transform="translate(518.4 59.425) scale(0.12 -0.12)">
      <use xlink:href="#SimHei-47"/>
      <use xlink:href="#SimHei-43" transform="translate(50 0)"/>
      <use xlink:href="#SimHei-4e" transform="translate(100 0)"/>
      <use xlink:href="#SimHei-2d" transform="translate(150 0)"/>
      <use xlink:href="#SimHei-44" transform="translate(200 0)"/>
      <use xlink:href="#SimHei-33" transform="translate(250 0)"/>
      <use xlink:href="#SimHei-51" transform="translate(300 0)"/>
      <use xlink:href="#SimHei-4e" transform="translate(350 0)"/>
     </g>
    </g>
    <g id="line2d_43">
     <path d="M 484.8 71.125 
L 496.8 71.125 
L 508.8 71.125 
" style="fill: none; stroke: #2ca02c; stroke-width: 1.2; stroke-linecap: square"/>
    </g>
    <g id="text_24">
     <!-- GAT-LSTM-DDQN -->
     <g transform="translate(518.4 75.325) scale(0.12 -0.12)">
      <defs>
       <path id="SimHei-41" d="M 3075 125 
L 2475 125 
L 2125 1450 
L 1025 1450 
L 675 125 
L 75 125 
L 1325 4450 
L 1825 4450 
L 3075 125 
z
M 2000 1925 
L 1600 3450 
L 1550 3450 
L 1150 1925 
L 2000 1925 
z
" transform="scale(0.015625)"/>
       <path id="SimHei-4c" d="M 2900 125 
L 300 125 
L 300 4400 
L 875 4400 
L 875 600 
L 2900 600 
L 2900 125 
z
" transform="scale(0.015625)"/>
       <path id="SimHei-53" d="M 2900 1325 
Q 2900 750 2537 412 
Q 2175 75 1550 75 
Q 925 75 575 425 
Q 225 775 225 1300 
L 225 1475 
L 800 1475 
L 800 1325 
Q 800 950 1025 750 
Q 1250 550 1550 550 
Q 1950 550 2137 762 
Q 2325 975 2325 1275 
Q 2325 1525 2100 1737 
Q 1875 1950 1450 2125 
Q 850 2350 587 2625 
Q 325 2900 325 3275 
Q 325 3800 687 4125 
Q 1050 4450 1550 4450 
Q 2200 4450 2487 4062 
Q 2775 3675 2775 3225 
L 2200 3225 
Q 2225 3500 2050 3725 
Q 1875 3950 1550 3950 
Q 1250 3950 1075 3787 
Q 900 3625 900 3350 
Q 900 3125 1037 2962 
Q 1175 2800 1750 2575 
Q 2300 2350 2600 2037 
Q 2900 1725 2900 1325 
z
" transform="scale(0.015625)"/>
       <path id="SimHei-4d" d="M 2925 125 
L 2425 125 
L 2425 3175 
L 2375 3175 
L 1775 125 
L 1375 125 
L 775 3175 
L 725 3175 
L 725 125 
L 225 125 
L 225 4400 
L 1000 4400 
L 1550 1575 
L 1600 1575 
L 2150 4400 
L 2925 4400 
L 2925 125 
z
" transform="scale(0.015625)"/>
      </defs>
      <use xlink:href="#SimHei-47"/>
      <use xlink:href="#SimHei-41" transform="translate(50 0)"/>
      <use xlink:href="#SimHei-54" transform="translate(100 0)"/>
      <use xlink:href="#SimHei-2d" transform="translate(150 0)"/>
      <use xlink:href="#SimHei-4c" transform="translate(200 0)"/>
      <use xlink:href="#SimHei-53" transform="translate(250 0)"/>
      <use xlink:href="#SimHei-54" transform="translate(300 0)"/>
      <use xlink:href="#SimHei-4d" transform="translate(350 0)"/>
      <use xlink:href="#SimHei-2d" transform="translate(400 0)"/>
      <use xlink:href="#SimHei-44" transform="translate(450 0)"/>
      <use xlink:href="#SimHei-44" transform="translate(500 0)"/>
      <use xlink:href="#SimHei-51" transform="translate(550 0)"/>
      <use xlink:href="#SimHei-4e" transform="translate(600 0)"/>
     </g>
    </g>
    <g id="line2d_44">
     <path d="M 484.8 87.025 
L 496.8 87.025 
L 508.8 87.025 
" style="fill: none; stroke: #9467bd; stroke-width: 1.2; stroke-linecap: square"/>
    </g>
    <g id="text_25">
     <!-- GLDVTO -->
     <g transform="translate(518.4 91.225) scale(0.12 -0.12)">
      <defs>
       <path id="SimHei-56" d="M 3050 4400 
L 1800 75 
L 1300 75 
L 50 4400 
L 650 4400 
L 1525 1125 
L 1575 1125 
L 2450 4400 
L 3050 4400 
z
" transform="scale(0.015625)"/>
       <path id="SimHei-4f" d="M 2950 2275 
Q 2950 1100 2587 587 
Q 2225 75 1575 75 
Q 925 75 550 587 
Q 175 1100 175 2275 
Q 175 3450 550 3950 
Q 925 4450 1575 4450 
Q 2225 4450 2587 3950 
Q 2950 3450 2950 2275 
z
M 2350 2275 
Q 2350 3325 2125 3650 
Q 1900 3975 1575 3975 
Q 1250 3975 1012 3650 
Q 775 3325 775 2275 
Q 775 1225 1012 887 
Q 1250 550 1575 550 
Q 1900 550 2125 887 
Q 2350 1225 2350 2275 
z
" transform="scale(0.015625)"/>
      </defs>
      <use xlink:href="#SimHei-47"/>
      <use xlink:href="#SimHei-4c" transform="translate(50 0)"/>
      <use xlink:href="#SimHei-44" transform="translate(100 0)"/>
      <use xlink:href="#SimHei-56" transform="translate(150 0)"/>
      <use xlink:href="#SimHei-54" transform="translate(200 0)"/>
      <use xlink:href="#SimHei-4f" transform="translate(250 0)"/>
     </g>
    </g>
   </g>
  </g>
 </g>
 <defs>
  <clipPath id="p4129f79f9e">
   <rect x="49.2" y="24.325" width="558" height="332.64"/>
  </clipPath>
 </defs>
</svg>
