<?xml version="1.0" encoding="utf-8" standalone="no"?>
<!DOCTYPE svg PUBLIC "-//W3C//DTD SVG 1.1//EN"
  "http://www.w3.org/Graphics/SVG/1.1/DTD/svg11.dtd">
<svg xmlns:xlink="http://www.w3.org/1999/xlink" width="689.6125pt" height="391.6261pt" viewBox="0 0 689.6125 391.6261" xmlns="http://www.w3.org/2000/svg" version="1.1">
 <metadata>
  <rdf:RDF xmlns:dc="http://purl.org/dc/elements/1.1/" xmlns:cc="http://creativecommons.org/ns#" xmlns:rdf="http://www.w3.org/1999/02/22-rdf-syntax-ns#">
   <cc:Work>
    <dc:type rdf:resource="http://purl.org/dc/dcmitype/StillImage"/>
    <dc:date>2026-07-13T21:35:51.176873</dc:date>
    <dc:format>image/svg+xml</dc:format>
    <dc:creator>
     <cc:Agent>
      <dc:title>Matplotlib v3.10.7, https://matplotlib.org/</dc:title>
     </cc:Agent>
    </dc:creator>
   </cc:Work>
  </rdf:RDF>
 </metadata>
 <defs>
  <style type="text/css">*{stroke-linejoin: round; stroke-linecap: butt}</style>
 </defs>
 <g id="figure_1">
  <g id="patch_1">
   <path d="M 0 391.6261 
L 689.6125 391.6261 
L 689.6125 0 
L 0 0 
z
" style="fill: #ffffff"/>
  </g>
  <g id="axes_1">
   <g id="patch_2">
    <path d="M 56.0125 349.8636 
L 682.4125 349.8636 
L 682.4125 34.5036 
L 56.0125 34.5036 
z
" style="fill: #ffffff"/>
   </g>
   <g id="matplotlib.axis_1">
    <g id="xtick_1">
     <g id="line2d_1">
      <path d="M 84.485227 349.8636 
L 84.485227 34.5036 
" clip-path="url(#p702c66def4)" style="fill: none; stroke-dasharray: 2.22,0.96; stroke-dashoffset: 0; stroke: #b0b0b0; stroke-opacity: 0.25; stroke-width: 0.6"/>
     </g>
     <g id="line2d_2">
      <defs>
       <path id="m337b1a54ee" d="M 0 0 
L 0 3.5 
" style="stroke: #000000; stroke-width: 0.8"/>
      </defs>
      <g>
       <use xlink:href="#m337b1a54ee" x="84.485227" y="349.8636" style="stroke: #000000; stroke-width: 0.8"/>
      </g>
     </g>
     <g id="text_1">
      <!-- 0 -->
      <g transform="translate(81.485227 365.1136) scale(0.12 -0.12)">
       <defs>
        <path id="SimHei-30" d="M 225 2537 
Q 250 3200 412 3587 
Q 575 3975 875 4225 
Q 1175 4475 1612 4475 
Q 2050 4475 2375 4112 
Q 2700 3750 2800 3200 
Q 2900 2650 2862 1937 
Q 2825 1225 2612 775 
Q 2400 325 1975 150 
Q 1550 -25 1125 187 
Q 700 400 525 750 
Q 350 1100 275 1487 
Q 200 1875 225 2537 
z
M 750 2687 
Q 675 2000 800 1462 
Q 925 925 1212 700 
Q 1500 475 1800 612 
Q 2100 750 2237 1162 
Q 2375 1575 2375 2062 
Q 2375 2550 2337 2950 
Q 2300 3350 2112 3675 
Q 1925 4000 1612 4012 
Q 1300 4025 1062 3700 
Q 825 3375 750 2687 
z
" transform="scale(0.015625)"/>
       </defs>
       <use xlink:href="#SimHei-30"/>
      </g>
     </g>
    </g>
    <g id="xtick_2">
     <g id="line2d_3">
      <path d="M 155.845446 349.8636 
L 155.845446 34.5036 
" clip-path="url(#p702c66def4)" style="fill: none; stroke-dasharray: 2.22,0.96; stroke-dashoffset: 0; stroke: #b0b0b0; stroke-opacity: 0.25; stroke-width: 0.6"/>
     </g>
     <g id="line2d_4">
      <g>
       <use xlink:href="#m337b1a54ee" x="155.845446" y="349.8636" style="stroke: #000000; stroke-width: 0.8"/>
      </g>
     </g>
     <g id="text_2">
      <!-- 50 -->
      <g transform="translate(149.845446 365.1136) scale(0.12 -0.12)">
       <defs>
        <path id="SimHei-35" d="M 550 1325 
Q 725 650 1150 575 
Q 1575 500 1837 662 
Q 2100 825 2212 1087 
Q 2325 1350 2312 1675 
Q 2300 2000 2137 2225 
Q 1975 2450 1725 2525 
Q 1475 2600 1162 2525 
Q 850 2450 650 2175 
L 225 2225 
Q 275 2375 700 4375 
L 2675 4375 
L 2675 3925 
L 1075 3925 
Q 950 3250 825 2850 
Q 1200 3025 1525 3012 
Q 1850 3000 2150 2862 
Q 2450 2725 2587 2487 
Q 2725 2250 2787 2012 
Q 2850 1775 2837 1500 
Q 2825 1225 2725 937 
Q 2625 650 2425 462 
Q 2225 275 1937 162 
Q 1650 50 1275 75 
Q 900 100 562 350 
Q 225 600 100 1200 
L 550 1325 
z
" transform="scale(0.015625)"/>
       </defs>
       <use xlink:href="#SimHei-35"/>
       <use xlink:href="#SimHei-30" transform="translate(50 0)"/>
      </g>
     </g>
    </g>
    <g id="xtick_3">
     <g id="line2d_5">
      <path d="M 227.205665 349.8636 
L 227.205665 34.5036 
" clip-path="url(#p702c66def4)" style="fill: none; stroke-dasharray: 2.22,0.96; stroke-dashoffset: 0; stroke: #b0b0b0; stroke-opacity: 0.25; stroke-width: 0.6"/>
     </g>
     <g id="line2d_6">
      <g>
       <use xlink:href="#m337b1a54ee" x="227.205665" y="349.8636" style="stroke: #000000; stroke-width: 0.8"/>
      </g>
     </g>
     <g id="text_3">
      <!-- 100 -->
      <g transform="translate(218.205665 365.1136) scale(0.12 -0.12)">
       <defs>
        <path id="SimHei-31" d="M 1400 3600 
Q 1075 3275 575 2975 
L 575 3450 
Q 1200 3875 1600 4450 
L 1900 4450 
L 1900 150 
L 1400 150 
L 1400 3600 
z
" transform="scale(0.015625)"/>
       </defs>
       <use xlink:href="#SimHei-31"/>
       <use xlink:href="#SimHei-30" transform="translate(50 0)"/>
       <use xlink:href="#SimHei-30" transform="translate(100 0)"/>
      </g>
     </g>
    </g>
    <g id="xtick_4">
     <g id="line2d_7">
      <path d="M 298.565883 349.8636 
L 298.565883 34.5036 
" clip-path="url(#p702c66def4)" style="fill: none; stroke-dasharray: 2.22,0.96; stroke-dashoffset: 0; stroke: #b0b0b0; stroke-opacity: 0.25; stroke-width: 0.6"/>
     </g>
     <g id="line2d_8">
      <g>
       <use xlink:href="#m337b1a54ee" x="298.565883" y="349.8636" style="stroke: #000000; stroke-width: 0.8"/>
      </g>
     </g>
     <g id="text_4">
      <!-- 150 -->
      <g transform="translate(289.565883 365.1136) scale(0.12 -0.12)">
       <use xlink:href="#SimHei-31"/>
       <use xlink:href="#SimHei-35" transform="translate(50 0)"/>
       <use xlink:href="#SimHei-30" transform="translate(100 0)"/>
      </g>
     </g>
    </g>
    <g id="xtick_5">
     <g id="line2d_9">
      <path d="M 369.926102 349.8636 
L 369.926102 34.5036 
" clip-path="url(#p702c66def4)" style="fill: none; stroke-dasharray: 2.22,0.96; stroke-dashoffset: 0; stroke: #b0b0b0; stroke-opacity: 0.25; stroke-width: 0.6"/>
     </g>
     <g id="line2d_10">
      <g>
       <use xlink:href="#m337b1a54ee" x="369.926102" y="349.8636" style="stroke: #000000; stroke-width: 0.8"/>
      </g>
     </g>
     <g id="text_5">
      <!-- 200 -->
      <g transform="translate(360.926102 365.1136) scale(0.12 -0.12)">
       <defs>
        <path id="SimHei-32" d="M 300 250 
Q 325 625 650 925 
Q 975 1225 1475 1862 
Q 1975 2500 2125 2850 
Q 2275 3200 2237 3450 
Q 2200 3700 2000 3862 
Q 1800 4025 1537 4000 
Q 1275 3975 1037 3800 
Q 800 3625 675 3275 
L 200 3350 
Q 400 3925 712 4187 
Q 1025 4450 1450 4475 
Q 1700 4500 1900 4462 
Q 2100 4425 2312 4287 
Q 2525 4150 2662 3875 
Q 2800 3600 2762 3212 
Q 2725 2825 2375 2287 
Q 2025 1750 1025 600 
L 2825 600 
L 2825 150 
L 300 150 
L 300 250 
z
" transform="scale(0.015625)"/>
       </defs>
       <use xlink:href="#SimHei-32"/>
       <use xlink:href="#SimHei-30" transform="translate(50 0)"/>
       <use xlink:href="#SimHei-30" transform="translate(100 0)"/>
      </g>
     </g>
    </g>
    <g id="xtick_6">
     <g id="line2d_11">
      <path d="M 441.286321 349.8636 
L 441.286321 34.5036 
" clip-path="url(#p702c66def4)" style="fill: none; stroke-dasharray: 2.22,0.96; stroke-dashoffset: 0; stroke: #b0b0b0; stroke-opacity: 0.25; stroke-width: 0.6"/>
     </g>
     <g id="line2d_12">
      <g>
       <use xlink:href="#m337b1a54ee" x="441.286321" y="349.8636" style="stroke: #000000; stroke-width: 0.8"/>
      </g>
     </g>
     <g id="text_6">
      <!-- 250 -->
      <g transform="translate(432.286321 365.1136) scale(0.12 -0.12)">
       <use xlink:href="#SimHei-32"/>
       <use xlink:href="#SimHei-35" transform="translate(50 0)"/>
       <use xlink:href="#SimHei-30" transform="translate(100 0)"/>
      </g>
     </g>
    </g>
    <g id="xtick_7">
     <g id="line2d_13">
      <path d="M 512.64654 349.8636 
L 512.64654 34.5036 
" clip-path="url(#p702c66def4)" style="fill: none; stroke-dasharray: 2.22,0.96; stroke-dashoffset: 0; stroke: #b0b0b0; stroke-opacity: 0.25; stroke-width: 0.6"/>
     </g>
     <g id="line2d_14">
      <g>
       <use xlink:href="#m337b1a54ee" x="512.64654" y="349.8636" style="stroke: #000000; stroke-width: 0.8"/>
      </g>
     </g>
     <g id="text_7">
      <!-- 300 -->
      <g transform="translate(503.64654 365.1136) scale(0.12 -0.12)">
       <defs>
        <path id="SimHei-33" d="M 250 1225 
L 700 1300 
Q 800 975 1025 762 
Q 1250 550 1587 562 
Q 1925 575 2125 837 
Q 2325 1100 2300 1437 
Q 2275 1775 2037 1962 
Q 1800 2150 1275 2225 
L 1275 2550 
Q 1800 2600 2037 2825 
Q 2275 3050 2250 3412 
Q 2225 3775 1925 3937 
Q 1625 4100 1287 3975 
Q 950 3850 750 3275 
L 300 3350 
Q 450 3800 712 4100 
Q 975 4400 1425 4450 
Q 1875 4500 2212 4337 
Q 2550 4175 2687 3837 
Q 2825 3500 2725 3100 
Q 2625 2700 2150 2400 
Q 2500 2250 2687 1950 
Q 2875 1650 2812 1162 
Q 2750 675 2375 375 
Q 2000 75 1525 87 
Q 1050 100 700 387 
Q 350 675 250 1225 
z
" transform="scale(0.015625)"/>
       </defs>
       <use xlink:href="#SimHei-33"/>
       <use xlink:href="#SimHei-30" transform="translate(50 0)"/>
       <use xlink:href="#SimHei-30" transform="translate(100 0)"/>
      </g>
     </g>
    </g>
    <g id="xtick_8">
     <g id="line2d_15">
      <path d="M 584.006758 349.8636 
L 584.006758 34.5036 
" clip-path="url(#p702c66def4)" style="fill: none; stroke-dasharray: 2.22,0.96; stroke-dashoffset: 0; stroke: #b0b0b0; stroke-opacity: 0.25; stroke-width: 0.6"/>
     </g>
     <g id="line2d_16">
      <g>
       <use xlink:href="#m337b1a54ee" x="584.006758" y="349.8636" style="stroke: #000000; stroke-width: 0.8"/>
      </g>
     </g>
     <g id="text_8">
      <!-- 350 -->
      <g transform="translate(575.006758 365.1136) scale(0.12 -0.12)">
       <use xlink:href="#SimHei-33"/>
       <use xlink:href="#SimHei-35" transform="translate(50 0)"/>
       <use xlink:href="#SimHei-30" transform="translate(100 0)"/>
      </g>
     </g>
    </g>
    <g id="xtick_9">
     <g id="line2d_17">
      <path d="M 655.366977 349.8636 
L 655.366977 34.5036 
" clip-path="url(#p702c66def4)" style="fill: none; stroke-dasharray: 2.22,0.96; stroke-dashoffset: 0; stroke: #b0b0b0; stroke-opacity: 0.25; stroke-width: 0.6"/>
     </g>
     <g id="line2d_18">
      <g>
       <use xlink:href="#m337b1a54ee" x="655.366977" y="349.8636" style="stroke: #000000; stroke-width: 0.8"/>
      </g>
     </g>
     <g id="text_9">
      <!-- 400 -->
      <g transform="translate(646.366977 365.1136) scale(0.12 -0.12)">
       <defs>
        <path id="SimHei-34" d="M 2000 1100 
L 75 1100 
L 75 1525 
L 2100 4450 
L 2475 4450 
L 2475 1525 
L 3075 1525 
L 3075 1100 
L 2475 1100 
L 2475 150 
L 2000 150 
L 2000 1100 
z
M 2000 1525 
L 2000 3500 
L 600 1525 
L 2000 1525 
z
" transform="scale(0.015625)"/>
       </defs>
       <use xlink:href="#SimHei-34"/>
       <use xlink:href="#SimHei-30" transform="translate(50 0)"/>
       <use xlink:href="#SimHei-30" transform="translate(100 0)"/>
      </g>
     </g>
    </g>
    <g id="text_10">
     <!-- Episode -->
     <g transform="translate(339.4625 382.3011) scale(0.17 -0.17)">
      <defs>
       <path id="SimHei-45" d="M 2900 125 
L 350 125 
L 350 4400 
L 2775 4400 
L 2775 3925 
L 925 3925 
L 925 2600 
L 2625 2600 
L 2625 2125 
L 925 2125 
L 925 600 
L 2900 600 
L 2900 125 
z
" transform="scale(0.015625)"/>
       <path id="SimHei-70" d="M 2825 1525 
Q 2825 800 2475 425 
Q 2125 50 1625 50 
Q 1350 50 1150 162 
Q 950 275 800 500 
L 800 -800 
L 300 -800 
L 300 2925 
L 800 2925 
L 800 2550 
Q 950 2775 1150 2875 
Q 1350 2975 1625 2975 
Q 2125 2975 2475 2612 
Q 2825 2250 2825 1525 
z
M 2275 1525 
Q 2275 2000 2087 2262 
Q 1900 2525 1525 2525 
Q 1225 2525 1012 2262 
Q 800 2000 800 1525 
Q 800 1050 1012 775 
Q 1225 500 1525 500 
Q 1900 500 2087 775 
Q 2275 1050 2275 1525 
z
" transform="scale(0.015625)"/>
       <path id="SimHei-69" d="M 1800 3725 
L 1300 3725 
L 1300 4375 
L 1800 4375 
L 1800 3725 
z
M 1800 125 
L 1300 125 
L 1300 2925 
L 1800 2925 
L 1800 125 
z
" transform="scale(0.015625)"/>
       <path id="SimHei-73" d="M 2750 900 
Q 2750 500 2437 287 
Q 2125 75 1650 75 
Q 1050 75 725 312 
Q 400 550 400 1000 
L 900 1000 
Q 900 700 1112 600 
Q 1325 500 1625 500 
Q 1925 500 2075 612 
Q 2225 725 2225 900 
Q 2225 1025 2100 1150 
Q 1975 1275 1475 1350 
Q 900 1425 687 1637 
Q 475 1850 475 2200 
Q 475 2500 762 2737 
Q 1050 2975 1600 2975 
Q 2100 2975 2387 2750 
Q 2675 2525 2675 2150 
L 2175 2150 
Q 2175 2375 2012 2462 
Q 1850 2550 1600 2550 
Q 1275 2550 1137 2437 
Q 1000 2325 1000 2175 
Q 1000 2000 1125 1900 
Q 1250 1800 1650 1750 
Q 2300 1650 2525 1437 
Q 2750 1225 2750 900 
z
" transform="scale(0.015625)"/>
       <path id="SimHei-6f" d="M 2925 1525 
Q 2925 875 2525 475 
Q 2125 75 1575 75 
Q 1025 75 625 475 
Q 225 875 225 1525 
Q 225 2175 625 2575 
Q 1025 2975 1575 2975 
Q 2125 2975 2525 2575 
Q 2925 2175 2925 1525 
z
M 2375 1525 
Q 2375 2025 2125 2275 
Q 1875 2525 1575 2525 
Q 1275 2525 1025 2275 
Q 775 2025 775 1525 
Q 775 1025 1025 775 
Q 1275 525 1575 525 
Q 1875 525 2125 775 
Q 2375 1025 2375 1525 
z
" transform="scale(0.015625)"/>
       <path id="SimHei-64" d="M 2750 125 
L 2250 125 
L 2250 500 
Q 2100 275 1900 175 
Q 1700 75 1425 75 
Q 925 75 575 437 
Q 225 800 225 1525 
Q 225 2250 575 2625 
Q 925 3000 1425 3000 
Q 1700 3000 1900 2887 
Q 2100 2775 2250 2550 
L 2250 4400 
L 2750 4400 
L 2750 125 
z
M 2250 1525 
Q 2250 2000 2037 2275 
Q 1825 2550 1525 2550 
Q 1150 2550 962 2275 
Q 775 2000 775 1525 
Q 775 1050 962 787 
Q 1150 525 1525 525 
Q 1825 525 2037 787 
Q 2250 1050 2250 1525 
z
" transform="scale(0.015625)"/>
       <path id="SimHei-65" d="M 2850 1075 
Q 2800 625 2450 350 
Q 2100 75 1625 75 
Q 1025 75 637 462 
Q 250 850 250 1525 
Q 250 2200 637 2587 
Q 1025 2975 1625 2975 
Q 2150 2975 2487 2637 
Q 2825 2300 2825 1525 
L 800 1525 
Q 800 975 1037 750 
Q 1275 525 1625 525 
Q 1900 525 2075 662 
Q 2250 800 2300 1075 
L 2850 1075 
z
M 2250 1925 
Q 2200 2275 2025 2412 
Q 1850 2550 1575 2550 
Q 1325 2550 1125 2412 
Q 925 2275 825 1925 
L 2250 1925 
z
" transform="scale(0.015625)"/>
      </defs>
      <use xlink:href="#SimHei-45"/>
      <use xlink:href="#SimHei-70" transform="translate(50 0)"/>
      <use xlink:href="#SimHei-69" transform="translate(100 0)"/>
      <use xlink:href="#SimHei-73" transform="translate(150 0)"/>
      <use xlink:href="#SimHei-6f" transform="translate(200 0)"/>
      <use xlink:href="#SimHei-64" transform="translate(250 0)"/>
      <use xlink:href="#SimHei-65" transform="translate(300 0)"/>
     </g>
    </g>
   </g>
   <g id="matplotlib.axis_2">
    <g id="ytick_1">
     <g id="line2d_19">
      <path d="M 56.0125 322.500415 
L 682.4125 322.500415 
" clip-path="url(#p702c66def4)" style="fill: none; stroke-dasharray: 2.22,0.96; stroke-dashoffset: 0; stroke: #b0b0b0; stroke-opacity: 0.25; stroke-width: 0.6"/>
     </g>
     <g id="line2d_20">
      <defs>
       <path id="m5697dbedeb" d="M 0 0 
L -3.5 0 
" style="stroke: #000000; stroke-width: 0.8"/>
      </defs>
      <g>
       <use xlink:href="#m5697dbedeb" x="56.0125" y="322.500415" style="stroke: #000000; stroke-width: 0.8"/>
      </g>
     </g>
     <g id="text_11">
      <!-- 600 -->
      <g transform="translate(31.0125 326.625415) scale(0.12 -0.12)">
       <defs>
        <path id="SimHei-36" d="M 250 1612 
Q 275 1975 387 2225 
Q 500 2475 725 2850 
L 1750 4450 
L 2325 4450 
L 1275 2800 
Q 1950 2975 2350 2750 
Q 2750 2525 2887 2237 
Q 3025 1950 3037 1612 
Q 3050 1275 2937 950 
Q 2825 625 2537 362 
Q 2250 100 1737 75 
Q 1225 50 862 262 
Q 500 475 362 862 
Q 225 1250 250 1612 
z
M 1025 787 
Q 1250 550 1625 525 
Q 2000 500 2250 775 
Q 2500 1050 2500 1575 
Q 2500 2100 2187 2300 
Q 1875 2500 1487 2450 
Q 1100 2400 925 2075 
Q 750 1750 775 1387 
Q 800 1025 1025 787 
z
" transform="scale(0.015625)"/>
       </defs>
       <use xlink:href="#SimHei-36"/>
       <use xlink:href="#SimHei-30" transform="translate(50 0)"/>
       <use xlink:href="#SimHei-30" transform="translate(100 0)"/>
      </g>
     </g>
    </g>
    <g id="ytick_2">
     <g id="line2d_21">
      <path d="M 56.0125 266.333394 
L 682.4125 266.333394 
" clip-path="url(#p702c66def4)" style="fill: none; stroke-dasharray: 2.22,0.96; stroke-dashoffset: 0; stroke: #b0b0b0; stroke-opacity: 0.25; stroke-width: 0.6"/>
     </g>
     <g id="line2d_22">
      <g>
       <use xlink:href="#m5697dbedeb" x="56.0125" y="266.333394" style="stroke: #000000; stroke-width: 0.8"/>
      </g>
     </g>
     <g id="text_12">
      <!-- 800 -->
      <g transform="translate(31.0125 270.458394) scale(0.12 -0.12)">
       <defs>
        <path id="SimHei-38" d="M 175 1375 
Q 175 1675 325 1962 
Q 475 2250 825 2425 
Q 525 2600 425 2812 
Q 325 3025 312 3300 
Q 300 3575 387 3775 
Q 475 3975 650 4150 
Q 825 4325 1037 4387 
Q 1250 4450 1500 4450 
Q 1750 4450 1950 4400 
Q 2150 4350 2375 4187 
Q 2600 4025 2700 3725 
Q 2800 3425 2687 3025 
Q 2575 2625 2100 2400 
Q 2525 2275 2700 2012 
Q 2875 1750 2875 1375 
Q 2875 1000 2762 775 
Q 2650 550 2512 400 
Q 2375 250 2137 162 
Q 1900 75 1537 75 
Q 1175 75 912 162 
Q 650 250 475 425 
Q 300 600 237 837 
Q 175 1075 175 1375 
z
M 687 1400 
Q 675 1100 787 875 
Q 900 650 1200 587 
Q 1500 525 1825 600 
Q 2150 675 2275 950 
Q 2400 1225 2362 1500 
Q 2325 1775 2050 1962 
Q 1775 2150 1450 2125 
Q 1125 2100 912 1900 
Q 700 1700 687 1400 
z
M 775 3350 
Q 775 3100 950 2875 
Q 1125 2650 1500 2650 
Q 1875 2650 2062 2875 
Q 2250 3100 2237 3412 
Q 2225 3725 2012 3875 
Q 1800 4025 1437 4000 
Q 1075 3975 925 3787 
Q 775 3600 775 3350 
z
" transform="scale(0.015625)"/>
       </defs>
       <use xlink:href="#SimHei-38"/>
       <use xlink:href="#SimHei-30" transform="translate(50 0)"/>
       <use xlink:href="#SimHei-30" transform="translate(100 0)"/>
      </g>
     </g>
    </g>
    <g id="ytick_3">
     <g id="line2d_23">
      <path d="M 56.0125 210.166373 
L 682.4125 210.166373 
" clip-path="url(#p702c66def4)" style="fill: none; stroke-dasharray: 2.22,0.96; stroke-dashoffset: 0; stroke: #b0b0b0; stroke-opacity: 0.25; stroke-width: 0.6"/>
     </g>
     <g id="line2d_24">
      <g>
       <use xlink:href="#m5697dbedeb" x="56.0125" y="210.166373" style="stroke: #000000; stroke-width: 0.8"/>
      </g>
     </g>
     <g id="text_13">
      <!-- 1000 -->
      <g transform="translate(25.0125 214.291373) scale(0.12 -0.12)">
       <use xlink:href="#SimHei-31"/>
       <use xlink:href="#SimHei-30" transform="translate(50 0)"/>
       <use xlink:href="#SimHei-30" transform="translate(100 0)"/>
       <use xlink:href="#SimHei-30" transform="translate(150 0)"/>
      </g>
     </g>
    </g>
    <g id="ytick_4">
     <g id="line2d_25">
      <path d="M 56.0125 153.999351 
L 682.4125 153.999351 
" clip-path="url(#p702c66def4)" style="fill: none; stroke-dasharray: 2.22,0.96; stroke-dashoffset: 0; stroke: #b0b0b0; stroke-opacity: 0.25; stroke-width: 0.6"/>
     </g>
     <g id="line2d_26">
      <g>
       <use xlink:href="#m5697dbedeb" x="56.0125" y="153.999351" style="stroke: #000000; stroke-width: 0.8"/>
      </g>
     </g>
     <g id="text_14">
      <!-- 1200 -->
      <g transform="translate(25.0125 158.124351) scale(0.12 -0.12)">
       <use xlink:href="#SimHei-31"/>
       <use xlink:href="#SimHei-32" transform="translate(50 0)"/>
       <use xlink:href="#SimHei-30" transform="translate(100 0)"/>
       <use xlink:href="#SimHei-30" transform="translate(150 0)"/>
      </g>
     </g>
    </g>
    <g id="ytick_5">
     <g id="line2d_27">
      <path d="M 56.0125 97.83233 
L 682.4125 97.83233 
" clip-path="url(#p702c66def4)" style="fill: none; stroke-dasharray: 2.22,0.96; stroke-dashoffset: 0; stroke: #b0b0b0; stroke-opacity: 0.25; stroke-width: 0.6"/>
     </g>
     <g id="line2d_28">
      <g>
       <use xlink:href="#m5697dbedeb" x="56.0125" y="97.83233" style="stroke: #000000; stroke-width: 0.8"/>
      </g>
     </g>
     <g id="text_15">
      <!-- 1400 -->
      <g transform="translate(25.0125 101.95733) scale(0.12 -0.12)">
       <use xlink:href="#SimHei-31"/>
       <use xlink:href="#SimHei-34" transform="translate(50 0)"/>
       <use xlink:href="#SimHei-30" transform="translate(100 0)"/>
       <use xlink:href="#SimHei-30" transform="translate(150 0)"/>
      </g>
     </g>
    </g>
    <g id="ytick_6">
     <g id="line2d_29">
      <path d="M 56.0125 41.665309 
L 682.4125 41.665309 
" clip-path="url(#p702c66def4)" style="fill: none; stroke-dasharray: 2.22,0.96; stroke-dashoffset: 0; stroke: #b0b0b0; stroke-opacity: 0.25; stroke-width: 0.6"/>
     </g>
     <g id="line2d_30">
      <g>
       <use xlink:href="#m5697dbedeb" x="56.0125" y="41.665309" style="stroke: #000000; stroke-width: 0.8"/>
      </g>
     </g>
     <g id="text_16">
      <!-- 1600 -->
      <g transform="translate(25.0125 45.790309) scale(0.12 -0.12)">
       <use xlink:href="#SimHei-31"/>
       <use xlink:href="#SimHei-36" transform="translate(50 0)"/>
       <use xlink:href="#SimHei-30" transform="translate(100 0)"/>
       <use xlink:href="#SimHei-30" transform="translate(150 0)"/>
      </g>
     </g>
    </g>
    <g id="text_17">
     <!-- Total Reward -->
     <g transform="translate(18.8875 243.1836) rotate(-90) scale(0.17 -0.17)">
      <defs>
       <path id="SimHei-54" d="M 2850 3925 
L 1850 3925 
L 1850 125 
L 1275 125 
L 1275 3925 
L 275 3925 
L 275 4400 
L 2850 4400 
L 2850 3925 
z
" transform="scale(0.015625)"/>
       <path id="SimHei-74" d="M 2750 200 
Q 2625 150 2462 112 
Q 2300 75 2025 75 
Q 1575 75 1300 325 
Q 1025 575 1025 1025 
L 1025 2525 
L 175 2525 
L 175 2925 
L 1025 2925 
L 1025 3900 
L 1525 3900 
L 1525 2925 
L 2550 2925 
L 2550 2525 
L 1525 2525 
L 1525 1000 
Q 1525 800 1625 662 
Q 1725 525 2000 525 
Q 2275 525 2450 575 
Q 2625 625 2750 700 
L 2750 200 
z
" transform="scale(0.015625)"/>
       <path id="SimHei-61" d="M 2875 125 
L 2275 125 
Q 2225 175 2200 262 
Q 2175 350 2175 475 
Q 2000 275 1750 175 
Q 1500 75 1225 75 
Q 825 75 550 275 
Q 275 475 275 850 
Q 275 1225 525 1450 
Q 775 1675 1300 1750 
Q 1650 1800 1912 1875 
Q 2175 1950 2175 2075 
Q 2175 2225 2062 2375 
Q 1950 2525 1575 2525 
Q 1275 2525 1137 2412 
Q 1000 2300 950 2100 
L 400 2100 
Q 450 2500 762 2737 
Q 1075 2975 1575 2975 
Q 2125 2975 2400 2725 
Q 2675 2475 2675 2025 
L 2675 650 
Q 2675 500 2725 375 
Q 2775 250 2875 125 
z
M 2175 1050 
L 2175 1550 
Q 2025 1500 1887 1462 
Q 1750 1425 1425 1375 
Q 1050 1325 937 1200 
Q 825 1075 825 900 
Q 825 750 937 637 
Q 1050 525 1275 525 
Q 1500 525 1762 650 
Q 2025 775 2175 1050 
z
" transform="scale(0.015625)"/>
       <path id="SimHei-6c" d="M 1825 125 
L 1325 125 
L 1325 4400 
L 1825 4400 
L 1825 125 
z
" transform="scale(0.015625)"/>
       <path id="SimHei-20" transform="scale(0.015625)"/>
       <path id="SimHei-52" d="M 3000 125 
L 2400 125 
L 1500 1975 
L 850 1975 
L 850 125 
L 275 125 
L 275 4400 
L 1525 4400 
Q 2125 4400 2500 4112 
Q 2875 3825 2875 3175 
Q 2875 2675 2625 2400 
Q 2375 2125 2050 2050 
L 3000 125 
z
M 2300 3175 
Q 2300 3525 2087 3725 
Q 1875 3925 1400 3925 
L 850 3925 
L 850 2450 
L 1550 2450 
Q 1850 2450 2075 2612 
Q 2300 2775 2300 3175 
z
" transform="scale(0.015625)"/>
       <path id="SimHei-77" d="M 3075 2925 
L 2450 75 
L 1975 75 
L 1575 2250 
L 1525 2250 
L 1125 75 
L 650 75 
L 25 2925 
L 550 2925 
L 875 1050 
L 925 1050 
L 1275 2925 
L 1825 2925 
L 2175 1050 
L 2225 1050 
L 2550 2925 
L 3075 2925 
z
" transform="scale(0.015625)"/>
       <path id="SimHei-72" d="M 2500 2425 
Q 2025 2500 1700 2287 
Q 1375 2075 1150 1550 
L 1150 125 
L 650 125 
L 650 2925 
L 1150 2925 
L 1150 2200 
Q 1375 2600 1712 2787 
Q 2050 2975 2500 2975 
L 2500 2425 
z
" transform="scale(0.015625)"/>
      </defs>
      <use xlink:href="#SimHei-54"/>
      <use xlink:href="#SimHei-6f" transform="translate(50 0)"/>
      <use xlink:href="#SimHei-74" transform="translate(100 0)"/>
      <use xlink:href="#SimHei-61" transform="translate(150 0)"/>
      <use xlink:href="#SimHei-6c" transform="translate(200 0)"/>
      <use xlink:href="#SimHei-20" transform="translate(250 0)"/>
      <use xlink:href="#SimHei-52" transform="translate(300 0)"/>
      <use xlink:href="#SimHei-65" transform="translate(350 0)"/>
      <use xlink:href="#SimHei-77" transform="translate(400 0)"/>
      <use xlink:href="#SimHei-61" transform="translate(450 0)"/>
      <use xlink:href="#SimHei-72" transform="translate(500 0)"/>
      <use xlink:href="#SimHei-64" transform="translate(550 0)"/>
     </g>
    </g>
   </g>
   <g id="line2d_31">
    <path d="M 84.485227 211.2986 
L 85.912432 212.711506 
L 87.339636 221.147037 
L 88.76684 237.752508 
L 90.194045 245.772978 
L 91.621249 258.06793 
L 93.048454 267.681813 
L 94.475658 269.60268 
L 95.902862 274.094897 
L 97.330067 281.20273 
L 98.757271 295.151407 
L 101.61168 282.223695 
L 103.038884 287.400473 
L 104.466089 298.187907 
L 105.893293 295.975494 
L 107.320497 297.389935 
L 108.747702 295.430223 
L 110.174906 298.956505 
L 111.60211 300.893281 
L 113.029315 305.444066 
L 114.456519 312.946032 
L 115.883724 315.858372 
L 117.310928 316.62334 
L 120.165337 308.424755 
L 121.592541 308.997418 
L 123.019745 313.406564 
L 125.874154 306.48993 
L 127.301359 302.681391 
L 128.728563 299.757194 
L 130.155767 298.647077 
L 131.582972 295.100409 
L 133.010176 293.896034 
L 134.43738 297.961523 
L 135.864585 301.253797 
L 137.291789 277.214622 
L 140.146198 235.252455 
L 141.573402 217.908955 
L 144.427811 189.303373 
L 145.855015 172.583734 
L 147.28222 161.109323 
L 148.709424 151.932585 
L 151.563833 132.123741 
L 154.418242 118.74508 
L 155.845446 114.061487 
L 157.27265 108.179672 
L 158.699855 103.123524 
L 160.127059 98.719091 
L 161.554263 95.593822 
L 162.981468 94.10496 
L 164.408672 89.461208 
L 165.835877 86.490993 
L 167.263081 84.553377 
L 168.690285 81.087744 
L 170.11749 79.463542 
L 171.544694 79.076628 
L 172.971898 78.214549 
L 174.399103 77.839837 
L 175.826307 76.049425 
L 177.253512 77.485136 
L 178.680716 78.483078 
L 180.10792 77.969614 
L 181.535125 75.536709 
L 182.962329 74.53421 
L 184.389533 70.365065 
L 185.816738 69.627288 
L 187.243942 69.35704 
L 188.671147 66.610437 
L 190.098351 64.834462 
L 191.525555 63.833277 
L 192.95276 62.235811 
L 194.379964 65.325053 
L 195.807168 63.71792 
L 198.661577 61.516488 
L 200.088782 60.910793 
L 201.515986 61.664256 
L 202.94319 60.579888 
L 204.370395 60.580052 
L 205.797599 61.371039 
L 207.224803 61.269452 
L 208.652008 59.048069 
L 210.079212 59.367536 
L 211.506417 57.913468 
L 212.933621 59.024228 
L 214.360825 61.595973 
L 217.215234 61.288532 
L 218.642438 60.065397 
L 220.069643 61.981325 
L 221.496847 59.561123 
L 222.924052 59.211201 
L 224.351256 59.877563 
L 225.77846 58.333386 
L 227.205665 59.102524 
L 228.632869 59.447859 
L 230.060073 60.335382 
L 231.487278 62.173091 
L 232.914482 64.689805 
L 234.341687 65.872044 
L 235.768891 64.32321 
L 237.196095 65.024668 
L 238.6233 64.981206 
L 240.050504 64.490369 
L 241.477708 64.470105 
L 242.904913 63.819754 
L 244.332117 63.955651 
L 245.759322 63.777694 
L 247.186526 63.145459 
L 248.61373 61.95037 
L 250.040935 62.839368 
L 251.468139 62.054505 
L 252.895343 62.467175 
L 254.322548 64.393367 
L 255.749752 64.432281 
L 257.176957 64.128171 
L 258.604161 64.480021 
L 260.031365 62.602377 
L 261.45857 60.180955 
L 262.885774 62.10825 
L 264.312978 62.349683 
L 265.740183 61.570886 
L 267.167387 64.106294 
L 268.594592 61.692021 
L 270.021796 61.170717 
L 271.449 61.448231 
L 272.876205 61.052874 
L 274.303409 58.751153 
L 275.730613 59.21465 
L 277.157818 61.240552 
L 278.585022 60.159078 
L 280.012227 59.669118 
L 281.439431 60.431281 
L 282.866635 58.452379 
L 284.29384 58.373532 
L 285.721044 58.965782 
L 287.148248 57.695946 
L 288.575453 56.776368 
L 290.002657 56.170569 
L 291.429862 54.509976 
L 292.857066 56.356425 
L 294.28427 55.814814 
L 295.711475 57.977363 
L 297.138679 57.815261 
L 298.565883 58.296412 
L 301.420292 63.157032 
L 302.847497 61.938519 
L 304.274701 61.569354 
L 305.701905 63.068723 
L 307.12911 62.677819 
L 308.556314 61.73772 
L 309.983518 65.38959 
L 311.410723 67.840809 
L 312.837927 65.935664 
L 314.265132 66.716842 
L 315.692336 67.077664 
L 317.11954 64.771873 
L 318.546745 63.222334 
L 319.973949 62.359578 
L 321.401153 60.435526 
L 322.828358 60.374754 
L 324.255562 60.583584 
L 325.682767 60.300716 
L 327.109971 59.383235 
L 328.537175 61.155898 
L 329.96438 60.868539 
L 331.391584 62.446733 
L 332.818788 62.091337 
L 334.245993 62.845401 
L 335.673197 62.01447 
L 337.100402 59.933938 
L 338.527606 58.427663 
L 339.95481 57.788791 
L 341.382015 58.526159 
L 342.809219 57.025486 
L 344.236423 58.313463 
L 345.663628 59.230987 
L 347.090832 57.396901 
L 348.518037 56.212532 
L 351.372445 54.915335 
L 352.79965 53.281967 
L 354.226854 53.701204 
L 355.654058 52.491668 
L 357.081263 53.855875 
L 358.508467 55.422372 
L 361.362876 53.71585 
L 362.79008 52.858024 
L 364.217285 53.84252 
L 365.644489 53.682145 
L 367.071693 53.942826 
L 368.498898 51.848763 
L 369.926102 50.660665 
L 372.780511 51.148354 
L 374.207715 48.838145 
L 375.63492 53.046759 
L 377.062124 54.533559 
L 378.489328 56.188113 
L 379.916533 56.529917 
L 381.343737 56.74734 
L 382.770942 57.265339 
L 384.198146 55.928845 
L 385.62535 53.879221 
L 387.052555 56.479478 
L 388.479759 55.929551 
L 389.906963 56.388952 
L 391.334168 59.6813 
L 392.761372 62.066445 
L 394.188577 62.037818 
L 395.615781 62.552358 
L 397.042985 60.561536 
L 399.897394 63.823496 
L 401.324598 63.924793 
L 402.751803 62.107904 
L 404.179007 61.961121 
L 405.606212 63.755291 
L 407.033416 62.476017 
L 408.46062 57.442803 
L 409.887825 60.481622 
L 411.315029 60.265588 
L 412.742233 61.554979 
L 414.169438 60.183131 
L 415.596642 61.080426 
L 417.023847 62.815481 
L 418.451051 61.379645 
L 419.878255 60.351292 
L 421.30546 60.511776 
L 422.732664 59.440065 
L 424.159868 62.359208 
L 425.587073 60.534034 
L 427.014277 61.299431 
L 428.441482 63.250345 
L 429.868686 64.197182 
L 431.29589 63.475311 
L 432.723095 64.213984 
L 434.150299 65.46362 
L 435.577503 66.049991 
L 437.004708 64.302774 
L 438.431912 63.949346 
L 439.859117 64.583763 
L 441.286321 66.5433 
L 442.713525 66.613122 
L 444.14073 66.521135 
L 445.567934 65.928534 
L 446.995138 64.903933 
L 448.422343 63.682861 
L 449.849547 61.761736 
L 451.276752 61.470778 
L 452.703956 61.570236 
L 454.13116 61.329731 
L 455.558365 62.373764 
L 456.985569 64.440663 
L 458.412773 64.002447 
L 459.839978 62.144612 
L 461.267182 61.185315 
L 462.694387 63.602986 
L 465.548795 64.498505 
L 466.976 64.816558 
L 468.403204 64.983163 
L 469.830408 64.170325 
L 471.257613 62.987804 
L 472.684817 62.404003 
L 474.112022 63.801236 
L 475.539226 64.52675 
L 476.96643 63.79045 
L 478.393635 64.317237 
L 479.820839 64.285185 
L 481.248043 63.069281 
L 482.675248 62.698095 
L 485.529657 62.380467 
L 486.956861 58.378801 
L 489.81127 58.831337 
L 491.238474 57.924734 
L 492.665678 56.832631 
L 494.092883 58.885483 
L 496.947292 55.941006 
L 498.374496 55.810301 
L 499.8017 54.901277 
L 501.228905 56.544137 
L 502.656109 55.081952 
L 504.083313 54.187164 
L 505.510518 55.020351 
L 506.937722 57.23272 
L 508.364927 57.937034 
L 509.792131 58.008105 
L 511.219335 57.046056 
L 512.64654 57.105251 
L 514.073744 55.202885 
L 515.500948 57.749538 
L 516.928153 57.430282 
L 518.355357 55.773793 
L 521.209766 57.047657 
L 522.63697 59.451802 
L 524.064175 59.527565 
L 525.491379 60.898949 
L 526.918583 60.748938 
L 528.345788 57.125925 
L 529.772992 57.259161 
L 531.200197 57.831967 
L 532.627401 59.318508 
L 534.054605 60.196703 
L 535.48181 61.675012 
L 536.909014 62.236627 
L 538.336218 61.021265 
L 539.763423 59.960125 
L 541.190627 61.507705 
L 542.617832 62.484972 
L 544.045036 60.46955 
L 545.47224 62.177396 
L 546.899445 61.108271 
L 548.326649 62.790209 
L 551.181058 61.744506 
L 552.608262 59.3648 
L 554.035467 58.314623 
L 555.462671 59.647636 
L 556.889875 58.543181 
L 558.31708 59.582895 
L 559.744284 58.389151 
L 561.171488 56.912935 
L 562.598693 58.466858 
L 564.025897 59.037951 
L 565.453102 58.802302 
L 566.880306 56.295101 
L 568.30751 55.844821 
L 569.734715 56.966013 
L 571.161919 59.146214 
L 572.589123 60.563964 
L 574.016328 58.406466 
L 575.443532 59.248546 
L 576.870737 59.763096 
L 578.297941 60.059509 
L 579.725145 61.245238 
L 581.15235 59.357474 
L 582.579554 59.219063 
L 584.006758 58.682054 
L 585.433963 57.764459 
L 586.861167 58.911192 
L 588.288371 57.295455 
L 589.715576 55.240695 
L 591.14278 56.323307 
L 592.569985 56.059551 
L 593.997189 54.713488 
L 595.424393 56.513559 
L 596.851598 56.295431 
L 598.278802 57.961416 
L 599.706006 56.979697 
L 601.133211 59.656618 
L 602.560415 59.945784 
L 603.98762 60.888442 
L 605.414824 59.407599 
L 608.269233 62.322145 
L 609.696437 62.082203 
L 611.123641 61.52673 
L 612.550846 62.469787 
L 613.97805 62.431336 
L 616.832459 61.557712 
L 618.259663 62.992608 
L 619.686868 65.981219 
L 621.114072 65.83128 
L 622.541276 64.91306 
L 623.968481 64.671182 
L 625.395685 66.397259 
L 626.82289 66.032644 
L 628.250094 64.515583 
L 629.677298 64.60969 
L 631.104503 64.111375 
L 632.531707 63.883445 
L 633.958911 63.497904 
L 635.386116 63.803636 
L 636.81332 62.317215 
L 638.240525 61.274821 
L 639.667729 62.639299 
L 641.094933 61.942217 
L 642.522138 63.767142 
L 643.949342 65.025136 
L 645.376546 63.727084 
L 646.803751 64.160997 
L 649.65816 62.185764 
L 651.085364 62.539236 
L 652.512568 62.338219 
L 653.939773 63.215862 
L 653.939773 63.215862 
" clip-path="url(#p702c66def4)" style="fill: none; stroke: #1f77b4; stroke-width: 1.2; stroke-linecap: square"/>
   </g>
   <g id="line2d_32">
    <path d="M 84.485227 223.160884 
L 85.912432 234.981679 
L 87.339636 235.794455 
L 88.76684 249.213897 
L 90.194045 259.488005 
L 91.621249 263.491246 
L 93.048454 261.5922 
L 94.475658 273.453732 
L 95.902862 271.688086 
L 97.330067 271.967062 
L 98.757271 273.563221 
L 100.184475 274.974496 
L 101.61168 267.830667 
L 103.038884 265.487313 
L 104.466089 273.001128 
L 105.893293 278.917093 
L 107.320497 277.723882 
L 108.747702 280.937304 
L 110.174906 287.635387 
L 111.60211 291.304539 
L 113.029315 303.786098 
L 114.456519 305.943552 
L 115.883724 304.485854 
L 117.310928 316.056753 
L 118.738132 320.514871 
L 120.165337 319.385621 
L 121.592541 330.319875 
L 123.019745 319.780558 
L 124.44695 326.264075 
L 125.874154 328.782057 
L 127.301359 323.563583 
L 128.728563 327.359003 
L 130.155767 324.853809 
L 131.582972 328.340988 
L 133.010176 333.832078 
L 134.43738 333.937073 
L 135.864585 330.745922 
L 137.291789 324.21507 
L 138.718994 322.118673 
L 140.146198 327.740171 
L 143.000607 335.529055 
L 144.427811 334.599407 
L 145.855015 331.447613 
L 147.28222 327.741925 
L 148.709424 325.234176 
L 150.136629 324.621882 
L 151.563833 322.876682 
L 152.991037 330.00343 
L 154.418242 328.115482 
L 157.27265 332.679972 
L 158.699855 324.50104 
L 160.127059 309.157935 
L 161.554263 302.74201 
L 162.981468 278.248685 
L 164.408672 256.188981 
L 165.835877 236.033773 
L 167.263081 217.615424 
L 170.11749 187.640399 
L 172.971898 162.886594 
L 174.399103 152.958229 
L 175.826307 142.017287 
L 178.680716 123.497563 
L 180.10792 117.678619 
L 181.535125 113.034845 
L 182.962329 109.291112 
L 184.389533 103.011769 
L 188.671147 91.809838 
L 190.098351 89.678464 
L 191.525555 89.882078 
L 192.95276 85.785634 
L 194.379964 86.952894 
L 195.807168 84.489665 
L 197.234373 81.053707 
L 198.661577 79.675088 
L 201.515986 75.697894 
L 202.94319 74.962063 
L 204.370395 74.076439 
L 205.797599 71.714592 
L 207.224803 68.922654 
L 208.652008 69.129021 
L 211.506417 61.258712 
L 212.933621 61.382073 
L 214.360825 59.031981 
L 215.78803 58.695894 
L 217.215234 57.760347 
L 218.642438 57.642608 
L 220.069643 56.93068 
L 221.496847 57.290482 
L 222.924052 56.089991 
L 224.351256 56.525931 
L 225.77846 55.206654 
L 227.205665 54.179986 
L 228.632869 55.841468 
L 231.487278 57.361081 
L 232.914482 59.715573 
L 234.341687 60.640518 
L 235.768891 62.203672 
L 237.196095 60.957377 
L 238.6233 59.308296 
L 240.050504 58.648739 
L 241.477708 56.350798 
L 242.904913 57.553806 
L 244.332117 56.57324 
L 245.759322 58.053018 
L 247.186526 58.65917 
L 248.61373 58.749334 
L 250.040935 57.060353 
L 251.468139 58.407203 
L 252.895343 59.136201 
L 254.322548 60.636801 
L 255.749752 59.681904 
L 257.176957 59.246486 
L 258.604161 61.477214 
L 260.031365 60.142774 
L 262.885774 59.335787 
L 265.740183 59.736322 
L 267.167387 58.009607 
L 268.594592 59.867924 
L 270.021796 59.818577 
L 272.876205 59.408293 
L 274.303409 61.074708 
L 275.730613 61.876591 
L 277.157818 61.387793 
L 278.585022 61.447842 
L 280.012227 60.875587 
L 281.439431 59.642388 
L 282.866635 60.168982 
L 284.29384 61.146586 
L 285.721044 61.608643 
L 287.148248 61.009269 
L 288.575453 62.340017 
L 290.002657 60.808759 
L 291.429862 61.047283 
L 292.857066 62.062005 
L 294.28427 62.507128 
L 295.711475 63.410776 
L 297.138679 62.649347 
L 299.993088 63.701294 
L 301.420292 60.772645 
L 302.847497 57.446953 
L 304.274701 55.416299 
L 305.701905 57.072268 
L 307.12911 55.829887 
L 308.556314 56.068377 
L 309.983518 56.079882 
L 311.410723 56.508143 
L 312.837927 56.644656 
L 315.692336 59.447419 
L 317.11954 60.312732 
L 318.546745 63.483545 
L 319.973949 62.024341 
L 321.401153 64.574591 
L 322.828358 62.840502 
L 324.255562 62.355239 
L 325.682767 63.378176 
L 327.109971 61.077956 
L 328.537175 63.492021 
L 329.96438 64.13947 
L 331.391584 62.852146 
L 332.818788 63.532648 
L 334.245993 62.28014 
L 335.673197 58.019547 
L 337.100402 59.05652 
L 338.527606 57.221997 
L 339.95481 55.864046 
L 341.382015 57.302246 
L 342.809219 54.179438 
L 344.236423 53.271101 
L 347.090832 49.809113 
L 349.945241 50.083408 
L 351.372445 50.386869 
L 352.79965 52.468094 
L 355.654058 52.008166 
L 357.081263 53.504352 
L 358.508467 53.554238 
L 359.935672 54.39682 
L 361.362876 55.442096 
L 362.79008 56.659635 
L 364.217285 58.363122 
L 365.644489 59.142767 
L 367.071693 61.569576 
L 369.926102 57.814231 
L 371.353307 56.6558 
L 372.780511 56.75195 
L 374.207715 58.297798 
L 375.63492 58.094326 
L 378.489328 61.720466 
L 379.916533 62.224069 
L 381.343737 61.685536 
L 382.770942 61.485281 
L 384.198146 62.655259 
L 385.62535 61.696762 
L 388.479759 63.331565 
L 389.906963 62.681682 
L 391.334168 62.405709 
L 392.761372 64.692529 
L 394.188577 63.78789 
L 395.615781 64.10882 
L 397.042985 63.506 
L 398.47019 65.46974 
L 399.897394 65.212315 
L 401.324598 65.831014 
L 402.751803 66.082506 
L 404.179007 66.131504 
L 405.606212 63.539513 
L 407.033416 64.274917 
L 408.46062 64.093226 
L 409.887825 62.188657 
L 411.315029 64.293359 
L 414.169438 64.229595 
L 415.596642 64.02905 
L 417.023847 63.230817 
L 419.878255 64.514592 
L 421.30546 63.54001 
L 422.732664 61.833598 
L 424.159868 60.864094 
L 425.587073 62.11155 
L 427.014277 59.472468 
L 428.441482 57.973258 
L 429.868686 60.051841 
L 431.29589 59.765313 
L 432.723095 60.064401 
L 434.150299 60.973308 
L 435.577503 58.997832 
L 437.004708 56.779691 
L 438.431912 57.103537 
L 439.859117 58.698719 
L 441.286321 59.186651 
L 442.713525 59.897319 
L 444.14073 60.273499 
L 445.567934 61.180735 
L 446.995138 61.546487 
L 448.422343 61.297733 
L 449.849547 63.218826 
L 451.276752 61.817401 
L 452.703956 61.035676 
L 454.13116 62.223373 
L 455.558365 62.212397 
L 456.985569 62.383558 
L 458.412773 63.105281 
L 459.839978 63.312203 
L 461.267182 62.220249 
L 462.694387 62.740274 
L 464.121591 61.388009 
L 465.548795 61.808135 
L 466.976 60.947435 
L 468.403204 58.883333 
L 469.830408 59.29357 
L 471.257613 57.684208 
L 472.684817 57.616636 
L 474.112022 59.119342 
L 475.539226 59.423267 
L 476.96643 60.397615 
L 478.393635 61.113365 
L 479.820839 58.374678 
L 481.248043 57.748607 
L 482.675248 56.652807 
L 484.102452 57.022124 
L 485.529657 58.873367 
L 486.956861 57.17983 
L 488.384065 56.359937 
L 489.81127 57.552051 
L 491.238474 57.479618 
L 492.665678 58.476831 
L 494.092883 58.160926 
L 495.520087 56.694553 
L 496.947292 57.053874 
L 498.374496 54.162704 
L 499.8017 52.666832 
L 502.656109 53.384677 
L 504.083313 54.773862 
L 505.510518 54.299625 
L 506.937722 57.647712 
L 508.364927 58.63558 
L 509.792131 61.292265 
L 511.219335 61.409546 
L 512.64654 59.79427 
L 514.073744 58.60924 
L 515.500948 58.772931 
L 516.928153 59.411984 
L 518.355357 57.803861 
L 519.782562 60.465502 
L 521.209766 60.089331 
L 522.63697 58.288165 
L 524.064175 59.292025 
L 525.491379 60.818201 
L 526.918583 63.125804 
L 528.345788 61.306537 
L 529.772992 60.620859 
L 532.627401 60.648801 
L 534.054605 59.823322 
L 535.48181 58.031577 
L 536.909014 58.360641 
L 538.336218 58.87568 
L 539.763423 62.468273 
L 541.190627 62.739233 
L 542.617832 64.027475 
L 544.045036 63.032155 
L 545.47224 65.529899 
L 546.899445 64.9119 
L 548.326649 65.638976 
L 549.753853 63.408016 
L 551.181058 61.633115 
L 552.608262 60.736394 
L 554.035467 61.434295 
L 555.462671 59.963265 
L 556.889875 62.348094 
L 558.31708 59.943242 
L 559.744284 60.627705 
L 561.171488 59.918922 
L 562.598693 57.373357 
L 564.025897 57.817093 
L 565.453102 58.842006 
L 566.880306 59.662231 
L 568.30751 59.955243 
L 569.734715 61.194585 
L 571.161919 61.313842 
L 572.589123 62.327314 
L 574.016328 60.373621 
L 575.443532 61.579349 
L 576.870737 60.061259 
L 578.297941 60.245042 
L 579.725145 58.003594 
L 581.15235 57.094308 
L 582.579554 57.067337 
L 584.006758 57.349395 
L 585.433963 59.793736 
L 586.861167 60.832928 
L 588.288371 59.117731 
L 589.715576 59.896641 
L 591.14278 59.409951 
L 592.569985 60.265298 
L 593.997189 59.348803 
L 595.424393 60.724298 
L 596.851598 60.380587 
L 598.278802 61.246818 
L 599.706006 60.964474 
L 601.133211 58.941702 
L 602.560415 58.86873 
L 603.98762 60.235412 
L 605.414824 59.733351 
L 606.842028 60.277984 
L 608.269233 58.331205 
L 609.696437 59.680712 
L 611.123641 60.598771 
L 612.550846 61.007449 
L 613.97805 61.134911 
L 615.405255 61.074136 
L 616.832459 60.218747 
L 619.686868 61.29383 
L 621.114072 62.338784 
L 622.541276 65.234931 
L 623.968481 67.458089 
L 625.395685 65.301435 
L 626.82289 65.696128 
L 628.250094 64.306427 
L 629.677298 64.225863 
L 631.104503 64.356983 
L 632.531707 63.213121 
L 633.958911 63.453215 
L 635.386116 64.086627 
L 636.81332 62.779667 
L 638.240525 62.945448 
L 639.667729 62.37071 
L 641.094933 60.537232 
L 642.522138 63.192114 
L 643.949342 62.658014 
L 645.376546 60.366644 
L 646.803751 60.770378 
L 648.230955 61.642656 
L 649.65816 59.132128 
L 651.085364 58.946915 
L 652.512568 59.806411 
L 653.939773 62.733969 
L 653.939773 62.733969 
" clip-path="url(#p702c66def4)" style="fill: none; stroke: #ff7f0e; stroke-width: 1.2; stroke-linecap: square"/>
   </g>
   <g id="line2d_33">
    <path d="M 84.485227 185.054407 
L 85.912432 189.310716 
L 87.339636 187.489607 
L 88.76684 183.342035 
L 90.194045 188.350654 
L 91.621249 185.34346 
L 93.048454 179.079806 
L 94.475658 171.387073 
L 95.902862 167.000875 
L 97.330067 161.843606 
L 98.757271 155.896864 
L 100.184475 152.829371 
L 101.61168 146.684289 
L 103.038884 141.329304 
L 104.466089 132.003763 
L 105.893293 126.659041 
L 107.320497 120.731138 
L 110.174906 112.269868 
L 113.029315 101.237081 
L 114.456519 99.719155 
L 115.883724 97.981023 
L 117.310928 95.32694 
L 118.738132 92.248636 
L 120.165337 88.469997 
L 121.592541 87.355129 
L 123.019745 82.816707 
L 124.44695 80.573027 
L 128.728563 73.135346 
L 130.155767 74.391982 
L 131.582972 73.873234 
L 133.010176 71.391101 
L 134.43738 70.732567 
L 135.864585 69.012176 
L 137.291789 69.386876 
L 138.718994 68.101728 
L 140.146198 67.253693 
L 141.573402 64.456735 
L 143.000607 64.593856 
L 144.427811 64.275991 
L 145.855015 64.666036 
L 147.28222 64.415393 
L 148.709424 63.18717 
L 150.136629 59.894538 
L 151.563833 59.416583 
L 152.991037 59.091589 
L 154.418242 57.886372 
L 155.845446 56.902749 
L 157.27265 56.330369 
L 158.699855 55.407813 
L 160.127059 56.429581 
L 161.554263 55.772729 
L 162.981468 56.47575 
L 164.408672 55.325732 
L 165.835877 57.064789 
L 167.263081 57.486931 
L 168.690285 60.038893 
L 170.11749 60.986756 
L 171.544694 58.588302 
L 172.971898 58.944339 
L 174.399103 60.389422 
L 175.826307 62.52789 
L 177.253512 63.561337 
L 178.680716 61.310832 
L 180.10792 60.529135 
L 181.535125 58.579929 
L 182.962329 59.532493 
L 184.389533 61.324699 
L 185.816738 61.788077 
L 187.243942 61.786565 
L 188.671147 62.390282 
L 190.098351 62.236071 
L 192.95276 63.737425 
L 194.379964 62.930374 
L 195.807168 64.676665 
L 197.234373 63.382787 
L 198.661577 62.890804 
L 200.088782 62.169244 
L 201.515986 59.912388 
L 202.94319 61.887808 
L 204.370395 59.24281 
L 205.797599 59.410085 
L 207.224803 58.291649 
L 208.652008 58.039083 
L 210.079212 59.306986 
L 211.506417 59.891988 
L 212.933621 60.283626 
L 214.360825 59.205449 
L 215.78803 60.718873 
L 217.215234 61.399596 
L 218.642438 61.725568 
L 220.069643 59.062674 
L 221.496847 60.80067 
L 222.924052 58.41627 
L 224.351256 56.935963 
L 225.77846 56.11178 
L 227.205665 55.872324 
L 228.632869 57.886707 
L 230.060073 57.338232 
L 231.487278 57.474919 
L 234.341687 60.239577 
L 235.768891 60.290323 
L 237.196095 61.189972 
L 238.6233 61.637634 
L 240.050504 60.554834 
L 241.477708 58.663539 
L 242.904913 58.918372 
L 244.332117 57.743435 
L 245.759322 58.559505 
L 247.186526 56.338843 
L 248.61373 55.779112 
L 250.040935 53.133196 
L 251.468139 53.796474 
L 252.895343 54.255061 
L 254.322548 52.4388 
L 255.749752 54.615544 
L 257.176957 54.773542 
L 258.604161 54.480631 
L 260.031365 53.471162 
L 261.45857 54.996039 
L 262.885774 55.54429 
L 264.312978 54.962069 
L 265.740183 55.258087 
L 267.167387 57.262335 
L 268.594592 56.08372 
L 270.021796 55.459231 
L 271.449 55.245853 
L 272.876205 54.71752 
L 274.303409 53.85451 
L 275.730613 55.451539 
L 277.157818 58.301095 
L 278.585022 58.097097 
L 280.012227 56.003694 
L 281.439431 55.090049 
L 282.866635 55.856024 
L 284.29384 54.961366 
L 285.721044 55.522114 
L 287.148248 57.504695 
L 288.575453 58.821185 
L 290.002657 56.603483 
L 291.429862 55.368809 
L 292.857066 55.094867 
L 294.28427 57.27143 
L 295.711475 57.944617 
L 297.138679 54.649471 
L 298.565883 55.052229 
L 299.993088 56.035084 
L 301.420292 56.113286 
L 302.847497 56.654035 
L 304.274701 59.742275 
L 305.701905 59.351924 
L 307.12911 57.363415 
L 308.556314 57.852986 
L 309.983518 58.560037 
L 311.410723 57.942133 
L 312.837927 56.560949 
L 314.265132 57.695583 
L 315.692336 55.235756 
L 317.11954 53.739566 
L 318.546745 53.334248 
L 319.973949 53.901337 
L 321.401153 55.510312 
L 322.828358 53.981111 
L 324.255562 57.998155 
L 325.682767 59.108796 
L 327.109971 59.066236 
L 328.537175 58.636764 
L 329.96438 60.492211 
L 331.391584 60.439837 
L 332.818788 61.2693 
L 334.245993 61.775822 
L 335.673197 63.680675 
L 337.100402 65.210279 
L 338.527606 63.872954 
L 339.95481 62.178305 
L 341.382015 62.672682 
L 342.809219 63.323081 
L 344.236423 62.776749 
L 347.090832 59.721802 
L 348.518037 60.650361 
L 349.945241 59.858915 
L 351.372445 59.245745 
L 352.79965 59.688634 
L 354.226854 61.425143 
L 355.654058 62.885609 
L 358.508467 63.601086 
L 359.935672 62.539311 
L 361.362876 62.446404 
L 362.79008 60.57093 
L 364.217285 57.999565 
L 365.644489 58.598126 
L 367.071693 60.605996 
L 368.498898 63.570056 
L 369.926102 65.292999 
L 371.353307 68.64765 
L 372.780511 66.801041 
L 374.207715 64.092175 
L 375.63492 63.017025 
L 377.062124 63.732608 
L 379.916533 61.0936 
L 381.343737 60.390681 
L 382.770942 60.682201 
L 384.198146 58.790503 
L 385.62535 59.948023 
L 387.052555 59.243363 
L 391.334168 60.977576 
L 394.188577 60.473067 
L 395.615781 61.469064 
L 397.042985 63.549711 
L 398.47019 61.559788 
L 399.897394 62.53839 
L 401.324598 60.199923 
L 402.751803 59.414198 
L 404.179007 56.958798 
L 405.606212 54.748287 
L 407.033416 57.017084 
L 408.46062 58.676685 
L 409.887825 59.825269 
L 411.315029 60.621182 
L 412.742233 60.232504 
L 414.169438 58.721372 
L 415.596642 58.406639 
L 417.023847 60.517265 
L 419.878255 59.053057 
L 421.30546 60.752454 
L 422.732664 61.257232 
L 424.159868 60.980299 
L 425.587073 60.298851 
L 427.014277 58.512275 
L 428.441482 59.144167 
L 429.868686 59.578385 
L 431.29589 58.723718 
L 432.723095 56.646227 
L 434.150299 57.77945 
L 435.577503 57.947634 
L 437.004708 59.091196 
L 438.431912 57.272995 
L 439.859117 58.976397 
L 441.286321 57.47615 
L 442.713525 58.984848 
L 444.14073 56.880873 
L 445.567934 57.178035 
L 446.995138 59.322441 
L 448.422343 60.184161 
L 449.849547 58.432176 
L 451.276752 56.910786 
L 452.703956 57.15108 
L 454.13116 56.976937 
L 455.558365 59.900868 
L 456.985569 59.355543 
L 458.412773 57.72605 
L 459.839978 55.515979 
L 461.267182 55.441802 
L 462.694387 57.17535 
L 464.121591 57.355217 
L 465.548795 55.976624 
L 466.976 54.866464 
L 468.403204 54.251752 
L 469.830408 56.241357 
L 471.257613 58.745752 
L 472.684817 55.346068 
L 474.112022 54.545909 
L 475.539226 53.616339 
L 476.96643 54.262281 
L 478.393635 54.595344 
L 479.820839 55.367532 
L 481.248043 57.326444 
L 482.675248 59.096116 
L 484.102452 58.729005 
L 485.529657 58.503279 
L 486.956861 60.640708 
L 488.384065 58.819301 
L 489.81127 60.374361 
L 491.238474 60.205833 
L 492.665678 58.203642 
L 494.092883 58.500522 
L 495.520087 59.243464 
L 496.947292 57.438854 
L 498.374496 56.717134 
L 499.8017 56.493183 
L 501.228905 57.120222 
L 502.656109 58.598536 
L 504.083313 58.281632 
L 505.510518 60.034662 
L 506.937722 61.385749 
L 508.364927 60.639104 
L 509.792131 60.200797 
L 512.64654 56.856048 
L 514.073744 58.304317 
L 515.500948 56.573037 
L 516.928153 57.761921 
L 518.355357 56.580865 
L 519.782562 59.823682 
L 522.63697 61.319423 
L 524.064175 60.298228 
L 525.491379 61.077159 
L 526.918583 60.114195 
L 528.345788 60.161364 
L 529.772992 59.753999 
L 531.200197 60.816449 
L 534.054605 59.898596 
L 535.48181 61.138153 
L 536.909014 60.092296 
L 538.336218 58.446296 
L 539.763423 59.897575 
L 541.190627 59.179261 
L 542.617832 58.611145 
L 544.045036 59.3118 
L 545.47224 59.039126 
L 546.899445 60.545042 
L 548.326649 62.512311 
L 549.753853 60.903545 
L 551.181058 60.380555 
L 552.608262 60.304384 
L 554.035467 61.61815 
L 555.462671 59.266851 
L 556.889875 57.35111 
L 558.31708 57.135653 
L 559.744284 55.712517 
L 562.598693 57.511979 
L 564.025897 59.427963 
L 565.453102 58.112353 
L 566.880306 56.479425 
L 569.734715 55.889727 
L 571.161919 57.546926 
L 572.589123 57.600853 
L 574.016328 57.216782 
L 575.443532 57.391301 
L 576.870737 58.275957 
L 578.297941 56.507075 
L 579.725145 57.314872 
L 581.15235 55.576385 
L 582.579554 56.750682 
L 584.006758 58.506585 
L 585.433963 59.322887 
L 586.861167 57.437151 
L 588.288371 60.47018 
L 589.715576 60.856354 
L 591.14278 60.510779 
L 592.569985 62.574707 
L 598.278802 60.8654 
L 599.706006 61.272134 
L 601.133211 61.847256 
L 602.560415 60.524092 
L 603.98762 60.084131 
L 605.414824 61.082416 
L 606.842028 61.567194 
L 608.269233 63.194215 
L 609.696437 65.188342 
L 611.123641 65.103826 
L 612.550846 63.966505 
L 613.97805 63.197581 
L 615.405255 60.77454 
L 616.832459 62.194674 
L 618.259663 61.770698 
L 619.686868 60.750323 
L 621.114072 60.299506 
L 622.541276 60.317445 
L 623.968481 62.48002 
L 626.82289 61.197909 
L 628.250094 61.826714 
L 629.677298 60.746551 
L 631.104503 60.739632 
L 632.531707 62.345145 
L 633.958911 61.622064 
L 635.386116 61.611882 
L 636.81332 62.963041 
L 638.240525 62.229965 
L 639.667729 63.447343 
L 641.094933 61.856808 
L 642.522138 60.693347 
L 643.949342 60.949939 
L 645.376546 60.490081 
L 646.803751 60.499076 
L 648.230955 61.026416 
L 649.65816 62.074868 
L 651.085364 60.012465 
L 652.512568 58.87206 
L 653.939773 59.822459 
L 653.939773 59.822459 
" clip-path="url(#p702c66def4)" style="fill: none; stroke: #2ca02c; stroke-width: 1.2; stroke-linecap: square"/>
   </g>
   <g id="line2d_34">
    <path d="M 84.485227 185.054407 
L 85.912432 190.490438 
L 87.339636 192.169055 
L 88.76684 204.366032 
L 90.194045 195.708162 
L 93.048454 182.06108 
L 94.475658 174.181552 
L 95.902862 163.720078 
L 98.757271 144.972084 
L 100.184475 138.562697 
L 101.61168 130.489465 
L 103.038884 124.295207 
L 104.466089 119.006257 
L 105.893293 114.750896 
L 108.747702 98.813601 
L 110.174906 96.214143 
L 111.60211 90.728764 
L 113.029315 85.853727 
L 114.456519 83.581019 
L 115.883724 81.778361 
L 117.310928 78.478575 
L 118.738132 78.363528 
L 120.165337 76.964559 
L 121.592541 75.118749 
L 123.019745 71.823027 
L 125.874154 68.141019 
L 127.301359 67.637567 
L 128.728563 63.425789 
L 130.155767 64.362465 
L 131.582972 64.638623 
L 133.010176 65.140687 
L 134.43738 63.791438 
L 135.864585 63.474464 
L 137.291789 63.525506 
L 138.718994 65.233427 
L 140.146198 64.900064 
L 141.573402 66.195459 
L 143.000607 66.683895 
L 144.427811 68.573796 
L 145.855015 67.71314 
L 147.28222 68.340612 
L 148.709424 67.633483 
L 150.136629 67.186206 
L 151.563833 66.181894 
L 152.991037 64.883252 
L 154.418242 65.483159 
L 155.845446 63.862862 
L 157.27265 63.722728 
L 158.699855 61.972097 
L 160.127059 60.852631 
L 161.554263 60.930376 
L 162.981468 61.16679 
L 165.835877 59.161325 
L 167.263081 58.55148 
L 168.690285 59.758617 
L 170.11749 62.238081 
L 171.544694 62.200626 
L 172.971898 60.959358 
L 174.399103 61.268129 
L 175.826307 63.94316 
L 177.253512 64.272531 
L 178.680716 63.258719 
L 180.10792 61.999394 
L 181.535125 62.769635 
L 182.962329 59.320832 
L 184.389533 59.627678 
L 185.816738 59.220839 
L 187.243942 57.849933 
L 188.671147 58.779918 
L 190.098351 59.519014 
L 191.525555 59.911501 
L 192.95276 59.853593 
L 194.379964 60.728428 
L 195.807168 60.94704 
L 197.234373 60.501946 
L 198.661577 59.044665 
L 200.088782 56.6183 
L 201.515986 56.657257 
L 202.94319 56.500097 
L 204.370395 55.702616 
L 205.797599 57.649724 
L 207.224803 57.172743 
L 208.652008 58.501277 
L 210.079212 57.422785 
L 211.506417 57.643277 
L 214.360825 56.812611 
L 215.78803 56.161819 
L 217.215234 57.728651 
L 218.642438 58.778927 
L 221.496847 58.222239 
L 222.924052 59.75957 
L 224.351256 59.039172 
L 225.77846 58.727255 
L 227.205665 57.281521 
L 228.632869 57.544983 
L 230.060073 58.995697 
L 231.487278 58.495321 
L 232.914482 58.143687 
L 234.341687 55.860895 
L 235.768891 55.157944 
L 237.196095 56.166658 
L 238.6233 54.140213 
L 240.050504 56.255046 
L 241.477708 55.75218 
L 242.904913 55.825316 
L 244.332117 54.342275 
L 245.759322 53.618885 
L 247.186526 52.556657 
L 248.61373 51.105305 
L 250.040935 52.401293 
L 251.468139 51.127726 
L 252.895343 50.653073 
L 254.322548 51.348827 
L 255.749752 50.401925 
L 257.176957 52.040497 
L 258.604161 54.840244 
L 261.45857 56.56517 
L 262.885774 55.652965 
L 264.312978 56.772444 
L 265.740183 55.90617 
L 267.167387 56.121753 
L 270.021796 57.279637 
L 271.449 56.676878 
L 272.876205 57.186636 
L 274.303409 56.646524 
L 275.730613 57.859986 
L 277.157818 58.280944 
L 278.585022 57.597051 
L 280.012227 57.372876 
L 281.439431 60.351128 
L 282.866635 60.12705 
L 284.29384 58.171393 
L 285.721044 57.73457 
L 287.148248 55.905613 
L 288.575453 56.99956 
L 290.002657 56.758835 
L 291.429862 55.260846 
L 292.857066 55.042816 
L 294.28427 56.883305 
L 295.711475 56.768519 
L 297.138679 58.756668 
L 298.565883 58.171071 
L 299.993088 58.69734 
L 301.420292 57.961668 
L 304.274701 59.863591 
L 305.701905 59.52724 
L 307.12911 59.516079 
L 308.556314 57.975832 
L 309.983518 57.84772 
L 311.410723 59.714343 
L 312.837927 59.990618 
L 315.692336 59.950342 
L 317.11954 57.78911 
L 318.546745 57.154074 
L 321.401153 59.774668 
L 322.828358 58.518442 
L 324.255562 56.887041 
L 325.682767 56.523026 
L 327.109971 58.348373 
L 328.537175 58.149237 
L 329.96438 59.51377 
L 331.391584 61.714993 
L 332.818788 61.1397 
L 334.245993 63.293558 
L 335.673197 62.759866 
L 337.100402 62.588649 
L 338.527606 59.036001 
L 339.95481 59.289086 
L 341.382015 59.314435 
L 342.809219 60.577177 
L 344.236423 59.130373 
L 345.663628 58.730532 
L 347.090832 57.725606 
L 348.518037 56.999137 
L 349.945241 56.437549 
L 351.372445 54.502215 
L 352.79965 55.248407 
L 354.226854 59.072156 
L 355.654058 61.937306 
L 357.081263 63.269374 
L 358.508467 63.598249 
L 359.935672 63.483154 
L 361.362876 62.40999 
L 362.79008 62.046061 
L 364.217285 61.348586 
L 365.644489 59.336763 
L 367.071693 58.585937 
L 368.498898 60.44583 
L 369.926102 60.006728 
L 371.353307 60.540922 
L 372.780511 60.469415 
L 374.207715 59.64841 
L 375.63492 60.487862 
L 377.062124 58.603911 
L 378.489328 57.928464 
L 379.916533 58.262929 
L 381.343737 57.911704 
L 384.198146 58.288731 
L 385.62535 56.023386 
L 387.052555 56.358485 
L 388.479759 55.302355 
L 389.906963 56.588337 
L 391.334168 55.172977 
L 392.761372 55.316231 
L 394.188577 55.837478 
L 395.615781 53.487308 
L 397.042985 54.677419 
L 398.47019 56.380762 
L 399.897394 54.996436 
L 401.324598 55.999294 
L 402.751803 55.812232 
L 404.179007 56.522079 
L 405.606212 56.377691 
L 407.033416 54.374907 
L 408.46062 56.529718 
L 409.887825 56.76544 
L 411.315029 56.750269 
L 412.742233 55.431314 
L 414.169438 56.035968 
L 415.596642 54.899332 
L 417.023847 55.826676 
L 418.451051 56.421599 
L 419.878255 57.846171 
L 422.732664 63.098977 
L 424.159868 63.913256 
L 425.587073 63.112139 
L 427.014277 61.765233 
L 428.441482 58.41358 
L 429.868686 58.81487 
L 431.29589 59.630113 
L 432.723095 58.676655 
L 434.150299 57.445761 
L 435.577503 59.455248 
L 437.004708 59.011761 
L 438.431912 57.75154 
L 439.859117 56.858351 
L 441.286321 59.622205 
L 442.713525 58.113313 
L 444.14073 60.401941 
L 445.567934 59.550568 
L 446.995138 61.251282 
L 448.422343 61.188803 
L 449.849547 62.083075 
L 451.276752 59.947624 
L 452.703956 61.530131 
L 454.13116 59.852111 
L 455.558365 58.428583 
L 456.985569 59.655774 
L 458.412773 59.148353 
L 459.839978 57.095046 
L 461.267182 56.551835 
L 462.694387 54.168349 
L 464.121591 54.108609 
L 465.548795 55.818511 
L 468.403204 53.814829 
L 469.830408 54.377992 
L 471.257613 53.295064 
L 472.684817 52.972159 
L 474.112022 51.993853 
L 475.539226 52.321246 
L 476.96643 53.543406 
L 478.393635 54.585115 
L 479.820839 54.886831 
L 481.248043 56.495914 
L 482.675248 56.700692 
L 484.102452 58.331966 
L 485.529657 60.69408 
L 486.956861 59.055021 
L 488.384065 59.362193 
L 489.81127 58.751938 
L 491.238474 59.041689 
L 492.665678 61.185574 
L 494.092883 59.714766 
L 495.520087 58.901708 
L 496.947292 58.759909 
L 498.374496 55.02214 
L 499.8017 55.479845 
L 501.228905 55.579496 
L 502.656109 54.860139 
L 504.083313 55.798919 
L 505.510518 59.297739 
L 506.937722 61.080257 
L 508.364927 61.622632 
L 509.792131 62.012092 
L 511.219335 62.034843 
L 512.64654 59.89079 
L 514.073744 60.17777 
L 515.500948 59.560364 
L 516.928153 60.466198 
L 518.355357 58.660172 
L 519.782562 57.142867 
L 521.209766 56.863964 
L 522.63697 57.598876 
L 524.064175 58.604809 
L 525.491379 59.325896 
L 526.918583 57.473356 
L 528.345788 56.074811 
L 529.772992 58.295435 
L 532.627401 59.144719 
L 534.054605 58.855238 
L 535.48181 58.909944 
L 536.909014 61.093774 
L 539.763423 59.48708 
L 541.190627 61.217073 
L 542.617832 60.618383 
L 544.045036 59.670825 
L 545.47224 59.42153 
L 548.326649 62.079721 
L 549.753853 62.459338 
L 551.181058 62.120201 
L 554.035467 64.172259 
L 555.462671 64.881937 
L 556.889875 63.050213 
L 558.31708 63.48071 
L 559.744284 63.595016 
L 561.171488 60.897865 
L 562.598693 60.408638 
L 564.025897 58.356382 
L 565.453102 56.070498 
L 566.880306 55.011648 
L 568.30751 55.16294 
L 571.161919 57.926104 
L 572.589123 57.148693 
L 574.016328 59.258063 
L 575.443532 59.697074 
L 576.870737 59.724955 
L 578.297941 60.008202 
L 579.725145 59.972195 
L 581.15235 59.753186 
L 582.579554 57.066158 
L 584.006758 58.232638 
L 585.433963 58.607837 
L 586.861167 58.286198 
L 588.288371 57.113196 
L 589.715576 55.355101 
L 591.14278 55.889662 
L 592.569985 55.978058 
L 593.997189 58.223906 
L 595.424393 57.370811 
L 596.851598 54.906514 
L 598.278802 55.109233 
L 599.706006 55.110543 
L 602.560415 55.969002 
L 603.98762 57.414367 
L 605.414824 59.63458 
L 606.842028 62.076935 
L 608.269233 61.211445 
L 609.696437 63.382787 
L 611.123641 62.457915 
L 612.550846 61.866025 
L 613.97805 65.193926 
L 615.405255 64.710199 
L 616.832459 61.582222 
L 618.259663 62.123467 
L 619.686868 63.901006 
L 621.114072 61.985709 
L 622.541276 62.065518 
L 623.968481 63.116143 
L 625.395685 61.424756 
L 626.82289 60.568616 
L 631.104503 61.812559 
L 632.531707 63.378136 
L 633.958911 62.943721 
L 635.386116 61.404766 
L 636.81332 60.968198 
L 638.240525 60.703096 
L 639.667729 59.572737 
L 641.094933 59.43868 
L 642.522138 59.791076 
L 643.949342 60.013438 
L 645.376546 60.000956 
L 646.803751 59.378771 
L 648.230955 57.727424 
L 649.65816 57.067968 
L 651.085364 57.036937 
L 652.512568 58.515784 
L 653.939773 59.20735 
L 653.939773 59.20735 
" clip-path="url(#p702c66def4)" style="fill: none; stroke: #9b8ac9; stroke-width: 1.2; stroke-linecap: square"/>
   </g>
   <g id="patch_3">
    <path d="M 56.0125 349.8636 
L 56.0125 34.5036 
" style="fill: none; stroke: #000000; stroke-width: 0.8; stroke-linejoin: miter; stroke-linecap: square"/>
   </g>
   <g id="patch_4">
    <path d="M 682.4125 349.8636 
L 682.4125 34.5036 
" style="fill: none; stroke: #000000; stroke-width: 0.8; stroke-linejoin: miter; stroke-linecap: square"/>
   </g>
   <g id="patch_5">
    <path d="M 56.0125 349.8636 
L 682.4125 349.8636 
" style="fill: none; stroke: #000000; stroke-width: 0.8; stroke-linejoin: miter; stroke-linecap: square"/>
   </g>
   <g id="patch_6">
    <path d="M 56.0125 34.5036 
L 682.4125 34.5036 
" style="fill: none; stroke: #000000; stroke-width: 0.8; stroke-linejoin: miter; stroke-linecap: square"/>
   </g>
   <g id="legend_1">
    <g id="patch_7">
     <path d="M 56.0125 31.35 
L 682.4125 31.35 
L 682.4125 7.2 
L 56.0125 7.2 
z
" style="fill: #ffffff; stroke: #808080; stroke-width: 0.8; stroke-linejoin: miter"/>
    </g>
    <g id="line2d_35">
     <path d="M 62.3125 18.4 
L 76.3125 18.4 
L 90.3125 18.4 
" style="fill: none; stroke: #1f77b4; stroke-width: 1.2; stroke-linecap: square"/>
    </g>
    <g id="text_18">
     <!-- GCN-DDQN -->
     <g transform="translate(98.7125 23.3) scale(0.14 -0.14)">
      <defs>
       <path id="SimHei-47" d="M 2850 75 
L 2425 75 
L 2350 425 
Q 2250 275 2037 175 
Q 1825 75 1575 75 
Q 1050 75 637 562 
Q 225 1050 225 2125 
Q 225 3300 600 3875 
Q 975 4450 1625 4450 
Q 2200 4450 2525 4025 
Q 2850 3600 2850 2925 
L 2300 2925 
Q 2300 3450 2125 3712 
Q 1950 3975 1625 3975 
Q 1225 3975 1025 3562 
Q 825 3150 825 2175 
Q 825 1250 1075 900 
Q 1325 550 1650 550 
Q 1975 550 2162 787 
Q 2350 1025 2350 1525 
L 2350 1800 
L 1575 1800 
L 1575 2275 
L 2850 2275 
L 2850 75 
z
" transform="scale(0.015625)"/>
       <path id="SimHei-43" d="M 2975 1825 
Q 2950 875 2575 475 
Q 2200 75 1675 75 
Q 1075 75 650 562 
Q 225 1050 225 2125 
Q 225 3300 637 3875 
Q 1050 4450 1700 4450 
Q 2250 4450 2612 4037 
Q 2975 3625 2950 2875 
L 2400 2875 
Q 2400 3425 2225 3700 
Q 2050 3975 1700 3975 
Q 1300 3975 1062 3562 
Q 825 3150 825 2175 
Q 825 1275 1062 912 
Q 1300 550 1675 550 
Q 1950 550 2175 812 
Q 2400 1075 2400 1825 
L 2975 1825 
z
" transform="scale(0.015625)"/>
       <path id="SimHei-4e" d="M 2850 125 
L 2225 125 
L 850 3225 
L 825 3225 
L 825 125 
L 250 125 
L 250 4400 
L 875 4400 
L 2250 1300 
L 2275 1300 
L 2275 4400 
L 2850 4400 
L 2850 125 
z
" transform="scale(0.015625)"/>
       <path id="SimHei-2d" d="M 2975 2125 
L 125 2125 
L 125 2525 
L 2975 2525 
L 2975 2125 
z
" transform="scale(0.015625)"/>
       <path id="SimHei-44" d="M 2925 2250 
Q 2925 1100 2437 612 
Q 1950 125 1125 125 
L 275 125 
L 275 4400 
L 1125 4400 
Q 2050 4400 2487 3900 
Q 2925 3400 2925 2250 
z
M 2325 2250 
Q 2325 3175 2025 3550 
Q 1725 3925 1125 3925 
L 850 3925 
L 850 600 
L 1125 600 
Q 1725 600 2025 962 
Q 2325 1325 2325 2250 
z
" transform="scale(0.015625)"/>
       <path id="SimHei-51" d="M 2950 2275 
Q 2950 1675 2862 1262 
Q 2775 850 2575 600 
L 2775 225 
L 2375 -200 
L 2150 225 
Q 2050 150 1900 112 
Q 1750 75 1575 75 
Q 925 75 550 587 
Q 175 1100 175 2275 
Q 175 3450 550 3950 
Q 925 4450 1575 4450 
Q 2225 4450 2587 3950 
Q 2950 3450 2950 2275 
z
M 2350 2275 
Q 2350 3325 2125 3650 
Q 1900 3975 1575 3975 
Q 1250 3975 1012 3650 
Q 775 3325 775 2275 
Q 775 1225 1012 887 
Q 1250 550 1575 550 
Q 1700 550 1800 587 
Q 1900 625 1950 675 
L 1550 1450 
L 1900 1875 
L 2250 1200 
Q 2300 1450 2325 1650 
Q 2350 1850 2350 2275 
z
" transform="scale(0.015625)"/>
      </defs>
      <use xlink:href="#SimHei-47"/>
      <use xlink:href="#SimHei-43" transform="translate(50 0)"/>
      <use xlink:href="#SimHei-4e" transform="translate(100 0)"/>
      <use xlink:href="#SimHei-2d" transform="translate(150 0)"/>
      <use xlink:href="#SimHei-44" transform="translate(200 0)"/>
      <use xlink:href="#SimHei-44" transform="translate(250 0)"/>
      <use xlink:href="#SimHei-51" transform="translate(300 0)"/>
      <use xlink:href="#SimHei-4e" transform="translate(350 0)"/>
     </g>
    </g>
    <g id="line2d_36">
     <path d="M 229.1125 18.4 
L 243.1125 18.4 
L 257.1125 18.4 
" style="fill: none; stroke: #ff7f0e; stroke-width: 1.2; stroke-linecap: square"/>
    </g>
    <g id="text_19">
     <!-- GCN-D3QN -->
     <g transform="translate(265.5125 23.3) scale(0.14 -0.14)">
      <use xlink:href="#SimHei-47"/>
      <use xlink:href="#SimHei-43" transform="translate(50 0)"/>
      <use xlink:href="#SimHei-4e" transform="translate(100 0)"/>
      <use xlink:href="#SimHei-2d" transform="translate(150 0)"/>
      <use xlink:href="#SimHei-44" transform="translate(200 0)"/>
      <use xlink:href="#SimHei-33" transform="translate(250 0)"/>
      <use xlink:href="#SimHei-51" transform="translate(300 0)"/>
      <use xlink:href="#SimHei-4e" transform="translate(350 0)"/>
     </g>
    </g>
    <g id="line2d_37">
     <path d="M 395.9125 18.4 
L 409.9125 18.4 
L 423.9125 18.4 
" style="fill: none; stroke: #2ca02c; stroke-width: 1.2; stroke-linecap: square"/>
    </g>
    <g id="text_20">
     <!-- GAT-LSTM-DDQN -->
     <g transform="translate(432.3125 23.3) scale(0.14 -0.14)">
      <defs>
       <path id="SimHei-41" d="M 3075 125 
L 2475 125 
L 2125 1450 
L 1025 1450 
L 675 125 
L 75 125 
L 1325 4450 
L 1825 4450 
L 3075 125 
z
M 2000 1925 
L 1600 3450 
L 1550 3450 
L 1150 1925 
L 2000 1925 
z
" transform="scale(0.015625)"/>
       <path id="SimHei-4c" d="M 2900 125 
L 300 125 
L 300 4400 
L 875 4400 
L 875 600 
L 2900 600 
L 2900 125 
z
" transform="scale(0.015625)"/>
       <path id="SimHei-53" d="M 2900 1325 
Q 2900 750 2537 412 
Q 2175 75 1550 75 
Q 925 75 575 425 
Q 225 775 225 1300 
L 225 1475 
L 800 1475 
L 800 1325 
Q 800 950 1025 750 
Q 1250 550 1550 550 
Q 1950 550 2137 762 
Q 2325 975 2325 1275 
Q 2325 1525 2100 1737 
Q 1875 1950 1450 2125 
Q 850 2350 587 2625 
Q 325 2900 325 3275 
Q 325 3800 687 4125 
Q 1050 4450 1550 4450 
Q 2200 4450 2487 4062 
Q 2775 3675 2775 3225 
L 2200 3225 
Q 2225 3500 2050 3725 
Q 1875 3950 1550 3950 
Q 1250 3950 1075 3787 
Q 900 3625 900 3350 
Q 900 3125 1037 2962 
Q 1175 2800 1750 2575 
Q 2300 2350 2600 2037 
Q 2900 1725 2900 1325 
z
" transform="scale(0.015625)"/>
       <path id="SimHei-4d" d="M 2925 125 
L 2425 125 
L 2425 3175 
L 2375 3175 
L 1775 125 
L 1375 125 
L 775 3175 
L 725 3175 
L 725 125 
L 225 125 
L 225 4400 
L 1000 4400 
L 1550 1575 
L 1600 1575 
L 2150 4400 
L 2925 4400 
L 2925 125 
z
" transform="scale(0.015625)"/>
      </defs>
      <use xlink:href="#SimHei-47"/>
      <use xlink:href="#SimHei-41" transform="translate(50 0)"/>
      <use xlink:href="#SimHei-54" transform="translate(100 0)"/>
      <use xlink:href="#SimHei-2d" transform="translate(150 0)"/>
      <use xlink:href="#SimHei-4c" transform="translate(200 0)"/>
      <use xlink:href="#SimHei-53" transform="translate(250 0)"/>
      <use xlink:href="#SimHei-54" transform="translate(300 0)"/>
      <use xlink:href="#SimHei-4d" transform="translate(350 0)"/>
      <use xlink:href="#SimHei-2d" transform="translate(400 0)"/>
      <use xlink:href="#SimHei-44" transform="translate(450 0)"/>
      <use xlink:href="#SimHei-44" transform="translate(500 0)"/>
      <use xlink:href="#SimHei-51" transform="translate(550 0)"/>
      <use xlink:href="#SimHei-4e" transform="translate(600 0)"/>
     </g>
    </g>
    <g id="line2d_38">
     <path d="M 597.7125 18.4 
L 611.7125 18.4 
L 625.7125 18.4 
" style="fill: none; stroke: #9b8ac9; stroke-width: 1.2; stroke-linecap: square"/>
    </g>
    <g id="text_21">
     <!-- GLDVTO -->
     <g transform="translate(634.1125 23.3) scale(0.14 -0.14)">
      <defs>
       <path id="SimHei-56" d="M 3050 4400 
L 1800 75 
L 1300 75 
L 50 4400 
L 650 4400 
L 1525 1125 
L 1575 1125 
L 2450 4400 
L 3050 4400 
z
" transform="scale(0.015625)"/>
       <path id="SimHei-4f" d="M 2950 2275 
Q 2950 1100 2587 587 
Q 2225 75 1575 75 
Q 925 75 550 587 
Q 175 1100 175 2275 
Q 175 3450 550 3950 
Q 925 4450 1575 4450 
Q 2225 4450 2587 3950 
Q 2950 3450 2950 2275 
z
M 2350 2275 
Q 2350 3325 2125 3650 
Q 1900 3975 1575 3975 
Q 1250 3975 1012 3650 
Q 775 3325 775 2275 
Q 775 1225 1012 887 
Q 1250 550 1575 550 
Q 1900 550 2125 887 
Q 2350 1225 2350 2275 
z
" transform="scale(0.015625)"/>
      </defs>
      <use xlink:href="#SimHei-47"/>
      <use xlink:href="#SimHei-4c" transform="translate(50 0)"/>
      <use xlink:href="#SimHei-44" transform="translate(100 0)"/>
      <use xlink:href="#SimHei-56" transform="translate(150 0)"/>
      <use xlink:href="#SimHei-54" transform="translate(200 0)"/>
      <use xlink:href="#SimHei-4f" transform="translate(250 0)"/>
     </g>
    </g>
   </g>
  </g>
 </g>
 <defs>
  <clipPath id="p702c66def4">
   <rect x="56.0125" y="34.5036" width="626.4" height="315.36"/>
  </clipPath>
 </defs>
</svg>
