<?xml version="1.0" encoding="utf-8" standalone="no"?>
<!DOCTYPE svg PUBLIC "-//W3C//DTD SVG 1.1//EN"
  "http://www.w3.org/Graphics/SVG/1.1/DTD/svg11.dtd">
<svg xmlns:xlink="http://www.w3.org/1999/xlink" width="689.6125pt" height="391.6261pt" viewBox="0 0 689.6125 391.6261" xmlns="http://www.w3.org/2000/svg" version="1.1">
 <metadata>
  <rdf:RDF xmlns:dc="http://purl.org/dc/elements/1.1/" xmlns:cc="http://creativecommons.org/ns#" xmlns:rdf="http://www.w3.org/1999/02/22-rdf-syntax-ns#">
   <cc:Work>
    <dc:type rdf:resource="http://purl.org/dc/dcmitype/StillImage"/>
    <dc:date>2026-07-13T21:35:51.311983</dc:date>
    <dc:format>image/svg+xml</dc:format>
    <dc:creator>
     <cc:Agent>
      <dc:title>Matplotlib v3.10.7, https://matplotlib.org/</dc:title>
     </cc:Agent>
    </dc:creator>
   </cc:Work>
  </rdf:RDF>
 </metadata>
 <defs>
  <style type="text/css">*{stroke-linejoin: round; stroke-linecap: butt}</style>
 </defs>
 <g id="figure_1">
  <g id="patch_1">
   <path d="M 0 391.6261 
L 689.6125 391.6261 
L 689.6125 0 
L 0 0 
z
" style="fill: #ffffff"/>
  </g>
  <g id="axes_1">
   <g id="patch_2">
    <path d="M 56.0125 349.8636 
L 682.4125 349.8636 
L 682.4125 34.5036 
L 56.0125 34.5036 
z
" style="fill: #ffffff"/>
   </g>
   <g id="matplotlib.axis_1">
    <g id="xtick_1">
     <g id="line2d_1">
      <path d="M 84.485227 349.8636 
L 84.485227 34.5036 
" clip-path="url(#pdf2608ac95)" style="fill: none; stroke-dasharray: 2.22,0.96; stroke-dashoffset: 0; stroke: #b0b0b0; stroke-opacity: 0.25; stroke-width: 0.6"/>
     </g>
     <g id="line2d_2">
      <defs>
       <path id="mee9a737095" d="M 0 0 
L 0 3.5 
" style="stroke: #000000; stroke-width: 0.8"/>
      </defs>
      <g>
       <use xlink:href="#mee9a737095" x="84.485227" y="349.8636" style="stroke: #000000; stroke-width: 0.8"/>
      </g>
     </g>
     <g id="text_1">
      <!-- 0 -->
      <g transform="translate(81.485227 365.1136) scale(0.12 -0.12)">
       <defs>
        <path id="SimHei-30" d="M 225 2537 
Q 250 3200 412 3587 
Q 575 3975 875 4225 
Q 1175 4475 1612 4475 
Q 2050 4475 2375 4112 
Q 2700 3750 2800 3200 
Q 2900 2650 2862 1937 
Q 2825 1225 2612 775 
Q 2400 325 1975 150 
Q 1550 -25 1125 187 
Q 700 400 525 750 
Q 350 1100 275 1487 
Q 200 1875 225 2537 
z
M 750 2687 
Q 675 2000 800 1462 
Q 925 925 1212 700 
Q 1500 475 1800 612 
Q 2100 750 2237 1162 
Q 2375 1575 2375 2062 
Q 2375 2550 2337 2950 
Q 2300 3350 2112 3675 
Q 1925 4000 1612 4012 
Q 1300 4025 1062 3700 
Q 825 3375 750 2687 
z
" transform="scale(0.015625)"/>
       </defs>
       <use xlink:href="#SimHei-30"/>
      </g>
     </g>
    </g>
    <g id="xtick_2">
     <g id="line2d_3">
      <path d="M 155.845446 349.8636 
L 155.845446 34.5036 
" clip-path="url(#pdf2608ac95)" style="fill: none; stroke-dasharray: 2.22,0.96; stroke-dashoffset: 0; stroke: #b0b0b0; stroke-opacity: 0.25; stroke-width: 0.6"/>
     </g>
     <g id="line2d_4">
      <g>
       <use xlink:href="#mee9a737095" x="155.845446" y="349.8636" style="stroke: #000000; stroke-width: 0.8"/>
      </g>
     </g>
     <g id="text_2">
      <!-- 50 -->
      <g transform="translate(149.845446 365.1136) scale(0.12 -0.12)">
       <defs>
        <path id="SimHei-35" d="M 550 1325 
Q 725 650 1150 575 
Q 1575 500 1837 662 
Q 2100 825 2212 1087 
Q 2325 1350 2312 1675 
Q 2300 2000 2137 2225 
Q 1975 2450 1725 2525 
Q 1475 2600 1162 2525 
Q 850 2450 650 2175 
L 225 2225 
Q 275 2375 700 4375 
L 2675 4375 
L 2675 3925 
L 1075 3925 
Q 950 3250 825 2850 
Q 1200 3025 1525 3012 
Q 1850 3000 2150 2862 
Q 2450 2725 2587 2487 
Q 2725 2250 2787 2012 
Q 2850 1775 2837 1500 
Q 2825 1225 2725 937 
Q 2625 650 2425 462 
Q 2225 275 1937 162 
Q 1650 50 1275 75 
Q 900 100 562 350 
Q 225 600 100 1200 
L 550 1325 
z
" transform="scale(0.015625)"/>
       </defs>
       <use xlink:href="#SimHei-35"/>
       <use xlink:href="#SimHei-30" transform="translate(50 0)"/>
      </g>
     </g>
    </g>
    <g id="xtick_3">
     <g id="line2d_5">
      <path d="M 227.205665 349.8636 
L 227.205665 34.5036 
" clip-path="url(#pdf2608ac95)" style="fill: none; stroke-dasharray: 2.22,0.96; stroke-dashoffset: 0; stroke: #b0b0b0; stroke-opacity: 0.25; stroke-width: 0.6"/>
     </g>
     <g id="line2d_6">
      <g>
       <use xlink:href="#mee9a737095" x="227.205665" y="349.8636" style="stroke: #000000; stroke-width: 0.8"/>
      </g>
     </g>
     <g id="text_3">
      <!-- 100 -->
      <g transform="translate(218.205665 365.1136) scale(0.12 -0.12)">
       <defs>
        <path id="SimHei-31" d="M 1400 3600 
Q 1075 3275 575 2975 
L 575 3450 
Q 1200 3875 1600 4450 
L 1900 4450 
L 1900 150 
L 1400 150 
L 1400 3600 
z
" transform="scale(0.015625)"/>
       </defs>
       <use xlink:href="#SimHei-31"/>
       <use xlink:href="#SimHei-30" transform="translate(50 0)"/>
       <use xlink:href="#SimHei-30" transform="translate(100 0)"/>
      </g>
     </g>
    </g>
    <g id="xtick_4">
     <g id="line2d_7">
      <path d="M 298.565883 349.8636 
L 298.565883 34.5036 
" clip-path="url(#pdf2608ac95)" style="fill: none; stroke-dasharray: 2.22,0.96; stroke-dashoffset: 0; stroke: #b0b0b0; stroke-opacity: 0.25; stroke-width: 0.6"/>
     </g>
     <g id="line2d_8">
      <g>
       <use xlink:href="#mee9a737095" x="298.565883" y="349.8636" style="stroke: #000000; stroke-width: 0.8"/>
      </g>
     </g>
     <g id="text_4">
      <!-- 150 -->
      <g transform="translate(289.565883 365.1136) scale(0.12 -0.12)">
       <use xlink:href="#SimHei-31"/>
       <use xlink:href="#SimHei-35" transform="translate(50 0)"/>
       <use xlink:href="#SimHei-30" transform="translate(100 0)"/>
      </g>
     </g>
    </g>
    <g id="xtick_5">
     <g id="line2d_9">
      <path d="M 369.926102 349.8636 
L 369.926102 34.5036 
" clip-path="url(#pdf2608ac95)" style="fill: none; stroke-dasharray: 2.22,0.96; stroke-dashoffset: 0; stroke: #b0b0b0; stroke-opacity: 0.25; stroke-width: 0.6"/>
     </g>
     <g id="line2d_10">
      <g>
       <use xlink:href="#mee9a737095" x="369.926102" y="349.8636" style="stroke: #000000; stroke-width: 0.8"/>
      </g>
     </g>
     <g id="text_5">
      <!-- 200 -->
      <g transform="translate(360.926102 365.1136) scale(0.12 -0.12)">
       <defs>
        <path id="SimHei-32" d="M 300 250 
Q 325 625 650 925 
Q 975 1225 1475 1862 
Q 1975 2500 2125 2850 
Q 2275 3200 2237 3450 
Q 2200 3700 2000 3862 
Q 1800 4025 1537 4000 
Q 1275 3975 1037 3800 
Q 800 3625 675 3275 
L 200 3350 
Q 400 3925 712 4187 
Q 1025 4450 1450 4475 
Q 1700 4500 1900 4462 
Q 2100 4425 2312 4287 
Q 2525 4150 2662 3875 
Q 2800 3600 2762 3212 
Q 2725 2825 2375 2287 
Q 2025 1750 1025 600 
L 2825 600 
L 2825 150 
L 300 150 
L 300 250 
z
" transform="scale(0.015625)"/>
       </defs>
       <use xlink:href="#SimHei-32"/>
       <use xlink:href="#SimHei-30" transform="translate(50 0)"/>
       <use xlink:href="#SimHei-30" transform="translate(100 0)"/>
      </g>
     </g>
    </g>
    <g id="xtick_6">
     <g id="line2d_11">
      <path d="M 441.286321 349.8636 
L 441.286321 34.5036 
" clip-path="url(#pdf2608ac95)" style="fill: none; stroke-dasharray: 2.22,0.96; stroke-dashoffset: 0; stroke: #b0b0b0; stroke-opacity: 0.25; stroke-width: 0.6"/>
     </g>
     <g id="line2d_12">
      <g>
       <use xlink:href="#mee9a737095" x="441.286321" y="349.8636" style="stroke: #000000; stroke-width: 0.8"/>
      </g>
     </g>
     <g id="text_6">
      <!-- 250 -->
      <g transform="translate(432.286321 365.1136) scale(0.12 -0.12)">
       <use xlink:href="#SimHei-32"/>
       <use xlink:href="#SimHei-35" transform="translate(50 0)"/>
       <use xlink:href="#SimHei-30" transform="translate(100 0)"/>
      </g>
     </g>
    </g>
    <g id="xtick_7">
     <g id="line2d_13">
      <path d="M 512.64654 349.8636 
L 512.64654 34.5036 
" clip-path="url(#pdf2608ac95)" style="fill: none; stroke-dasharray: 2.22,0.96; stroke-dashoffset: 0; stroke: #b0b0b0; stroke-opacity: 0.25; stroke-width: 0.6"/>
     </g>
     <g id="line2d_14">
      <g>
       <use xlink:href="#mee9a737095" x="512.64654" y="349.8636" style="stroke: #000000; stroke-width: 0.8"/>
      </g>
     </g>
     <g id="text_7">
      <!-- 300 -->
      <g transform="translate(503.64654 365.1136) scale(0.12 -0.12)">
       <defs>
        <path id="SimHei-33" d="M 250 1225 
L 700 1300 
Q 800 975 1025 762 
Q 1250 550 1587 562 
Q 1925 575 2125 837 
Q 2325 1100 2300 1437 
Q 2275 1775 2037 1962 
Q 1800 2150 1275 2225 
L 1275 2550 
Q 1800 2600 2037 2825 
Q 2275 3050 2250 3412 
Q 2225 3775 1925 3937 
Q 1625 4100 1287 3975 
Q 950 3850 750 3275 
L 300 3350 
Q 450 3800 712 4100 
Q 975 4400 1425 4450 
Q 1875 4500 2212 4337 
Q 2550 4175 2687 3837 
Q 2825 3500 2725 3100 
Q 2625 2700 2150 2400 
Q 2500 2250 2687 1950 
Q 2875 1650 2812 1162 
Q 2750 675 2375 375 
Q 2000 75 1525 87 
Q 1050 100 700 387 
Q 350 675 250 1225 
z
" transform="scale(0.015625)"/>
       </defs>
       <use xlink:href="#SimHei-33"/>
       <use xlink:href="#SimHei-30" transform="translate(50 0)"/>
       <use xlink:href="#SimHei-30" transform="translate(100 0)"/>
      </g>
     </g>
    </g>
    <g id="xtick_8">
     <g id="line2d_15">
      <path d="M 584.006758 349.8636 
L 584.006758 34.5036 
" clip-path="url(#pdf2608ac95)" style="fill: none; stroke-dasharray: 2.22,0.96; stroke-dashoffset: 0; stroke: #b0b0b0; stroke-opacity: 0.25; stroke-width: 0.6"/>
     </g>
     <g id="line2d_16">
      <g>
       <use xlink:href="#mee9a737095" x="584.006758" y="349.8636" style="stroke: #000000; stroke-width: 0.8"/>
      </g>
     </g>
     <g id="text_8">
      <!-- 350 -->
      <g transform="translate(575.006758 365.1136) scale(0.12 -0.12)">
       <use xlink:href="#SimHei-33"/>
       <use xlink:href="#SimHei-35" transform="translate(50 0)"/>
       <use xlink:href="#SimHei-30" transform="translate(100 0)"/>
      </g>
     </g>
    </g>
    <g id="xtick_9">
     <g id="line2d_17">
      <path d="M 655.366977 349.8636 
L 655.366977 34.5036 
" clip-path="url(#pdf2608ac95)" style="fill: none; stroke-dasharray: 2.22,0.96; stroke-dashoffset: 0; stroke: #b0b0b0; stroke-opacity: 0.25; stroke-width: 0.6"/>
     </g>
     <g id="line2d_18">
      <g>
       <use xlink:href="#mee9a737095" x="655.366977" y="349.8636" style="stroke: #000000; stroke-width: 0.8"/>
      </g>
     </g>
     <g id="text_9">
      <!-- 400 -->
      <g transform="translate(646.366977 365.1136) scale(0.12 -0.12)">
       <defs>
        <path id="SimHei-34" d="M 2000 1100 
L 75 1100 
L 75 1525 
L 2100 4450 
L 2475 4450 
L 2475 1525 
L 3075 1525 
L 3075 1100 
L 2475 1100 
L 2475 150 
L 2000 150 
L 2000 1100 
z
M 2000 1525 
L 2000 3500 
L 600 1525 
L 2000 1525 
z
" transform="scale(0.015625)"/>
       </defs>
       <use xlink:href="#SimHei-34"/>
       <use xlink:href="#SimHei-30" transform="translate(50 0)"/>
       <use xlink:href="#SimHei-30" transform="translate(100 0)"/>
      </g>
     </g>
    </g>
    <g id="text_10">
     <!-- Episode -->
     <g transform="translate(339.4625 382.3011) scale(0.17 -0.17)">
      <defs>
       <path id="SimHei-45" d="M 2900 125 
L 350 125 
L 350 4400 
L 2775 4400 
L 2775 3925 
L 925 3925 
L 925 2600 
L 2625 2600 
L 2625 2125 
L 925 2125 
L 925 600 
L 2900 600 
L 2900 125 
z
" transform="scale(0.015625)"/>
       <path id="SimHei-70" d="M 2825 1525 
Q 2825 800 2475 425 
Q 2125 50 1625 50 
Q 1350 50 1150 162 
Q 950 275 800 500 
L 800 -800 
L 300 -800 
L 300 2925 
L 800 2925 
L 800 2550 
Q 950 2775 1150 2875 
Q 1350 2975 1625 2975 
Q 2125 2975 2475 2612 
Q 2825 2250 2825 1525 
z
M 2275 1525 
Q 2275 2000 2087 2262 
Q 1900 2525 1525 2525 
Q 1225 2525 1012 2262 
Q 800 2000 800 1525 
Q 800 1050 1012 775 
Q 1225 500 1525 500 
Q 1900 500 2087 775 
Q 2275 1050 2275 1525 
z
" transform="scale(0.015625)"/>
       <path id="SimHei-69" d="M 1800 3725 
L 1300 3725 
L 1300 4375 
L 1800 4375 
L 1800 3725 
z
M 1800 125 
L 1300 125 
L 1300 2925 
L 1800 2925 
L 1800 125 
z
" transform="scale(0.015625)"/>
       <path id="SimHei-73" d="M 2750 900 
Q 2750 500 2437 287 
Q 2125 75 1650 75 
Q 1050 75 725 312 
Q 400 550 400 1000 
L 900 1000 
Q 900 700 1112 600 
Q 1325 500 1625 500 
Q 1925 500 2075 612 
Q 2225 725 2225 900 
Q 2225 1025 2100 1150 
Q 1975 1275 1475 1350 
Q 900 1425 687 1637 
Q 475 1850 475 2200 
Q 475 2500 762 2737 
Q 1050 2975 1600 2975 
Q 2100 2975 2387 2750 
Q 2675 2525 2675 2150 
L 2175 2150 
Q 2175 2375 2012 2462 
Q 1850 2550 1600 2550 
Q 1275 2550 1137 2437 
Q 1000 2325 1000 2175 
Q 1000 2000 1125 1900 
Q 1250 1800 1650 1750 
Q 2300 1650 2525 1437 
Q 2750 1225 2750 900 
z
" transform="scale(0.015625)"/>
       <path id="SimHei-6f" d="M 2925 1525 
Q 2925 875 2525 475 
Q 2125 75 1575 75 
Q 1025 75 625 475 
Q 225 875 225 1525 
Q 225 2175 625 2575 
Q 1025 2975 1575 2975 
Q 2125 2975 2525 2575 
Q 2925 2175 2925 1525 
z
M 2375 1525 
Q 2375 2025 2125 2275 
Q 1875 2525 1575 2525 
Q 1275 2525 1025 2275 
Q 775 2025 775 1525 
Q 775 1025 1025 775 
Q 1275 525 1575 525 
Q 1875 525 2125 775 
Q 2375 1025 2375 1525 
z
" transform="scale(0.015625)"/>
       <path id="SimHei-64" d="M 2750 125 
L 2250 125 
L 2250 500 
Q 2100 275 1900 175 
Q 1700 75 1425 75 
Q 925 75 575 437 
Q 225 800 225 1525 
Q 225 2250 575 2625 
Q 925 3000 1425 3000 
Q 1700 3000 1900 2887 
Q 2100 2775 2250 2550 
L 2250 4400 
L 2750 4400 
L 2750 125 
z
M 2250 1525 
Q 2250 2000 2037 2275 
Q 1825 2550 1525 2550 
Q 1150 2550 962 2275 
Q 775 2000 775 1525 
Q 775 1050 962 787 
Q 1150 525 1525 525 
Q 1825 525 2037 787 
Q 2250 1050 2250 1525 
z
" transform="scale(0.015625)"/>
       <path id="SimHei-65" d="M 2850 1075 
Q 2800 625 2450 350 
Q 2100 75 1625 75 
Q 1025 75 637 462 
Q 250 850 250 1525 
Q 250 2200 637 2587 
Q 1025 2975 1625 2975 
Q 2150 2975 2487 2637 
Q 2825 2300 2825 1525 
L 800 1525 
Q 800 975 1037 750 
Q 1275 525 1625 525 
Q 1900 525 2075 662 
Q 2250 800 2300 1075 
L 2850 1075 
z
M 2250 1925 
Q 2200 2275 2025 2412 
Q 1850 2550 1575 2550 
Q 1325 2550 1125 2412 
Q 925 2275 825 1925 
L 2250 1925 
z
" transform="scale(0.015625)"/>
      </defs>
      <use xlink:href="#SimHei-45"/>
      <use xlink:href="#SimHei-70" transform="translate(50 0)"/>
      <use xlink:href="#SimHei-69" transform="translate(100 0)"/>
      <use xlink:href="#SimHei-73" transform="translate(150 0)"/>
      <use xlink:href="#SimHei-6f" transform="translate(200 0)"/>
      <use xlink:href="#SimHei-64" transform="translate(250 0)"/>
      <use xlink:href="#SimHei-65" transform="translate(300 0)"/>
     </g>
    </g>
   </g>
   <g id="matplotlib.axis_2">
    <g id="ytick_1">
     <g id="line2d_19">
      <path d="M 56.0125 333.754739 
L 682.4125 333.754739 
" clip-path="url(#pdf2608ac95)" style="fill: none; stroke-dasharray: 2.22,0.96; stroke-dashoffset: 0; stroke: #b0b0b0; stroke-opacity: 0.25; stroke-width: 0.6"/>
     </g>
     <g id="line2d_20">
      <defs>
       <path id="m8f0d13fb3c" d="M 0 0 
L -3.5 0 
" style="stroke: #000000; stroke-width: 0.8"/>
      </defs>
      <g>
       <use xlink:href="#m8f0d13fb3c" x="56.0125" y="333.754739" style="stroke: #000000; stroke-width: 0.8"/>
      </g>
     </g>
     <g id="text_11">
      <!-- 0.05 -->
      <g transform="translate(25.0125 337.879739) scale(0.12 -0.12)">
       <defs>
        <path id="SimHei-2e" d="M 1075 125 
L 500 125 
L 500 675 
L 1075 675 
L 1075 125 
z
" transform="scale(0.015625)"/>
       </defs>
       <use xlink:href="#SimHei-30"/>
       <use xlink:href="#SimHei-2e" transform="translate(50 0)"/>
       <use xlink:href="#SimHei-30" transform="translate(100 0)"/>
       <use xlink:href="#SimHei-35" transform="translate(150 0)"/>
      </g>
     </g>
    </g>
    <g id="ytick_2">
     <g id="line2d_21">
      <path d="M 56.0125 286.666747 
L 682.4125 286.666747 
" clip-path="url(#pdf2608ac95)" style="fill: none; stroke-dasharray: 2.22,0.96; stroke-dashoffset: 0; stroke: #b0b0b0; stroke-opacity: 0.25; stroke-width: 0.6"/>
     </g>
     <g id="line2d_22">
      <g>
       <use xlink:href="#m8f0d13fb3c" x="56.0125" y="286.666747" style="stroke: #000000; stroke-width: 0.8"/>
      </g>
     </g>
     <g id="text_12">
      <!-- 0.10 -->
      <g transform="translate(25.0125 290.791747) scale(0.12 -0.12)">
       <use xlink:href="#SimHei-30"/>
       <use xlink:href="#SimHei-2e" transform="translate(50 0)"/>
       <use xlink:href="#SimHei-31" transform="translate(100 0)"/>
       <use xlink:href="#SimHei-30" transform="translate(150 0)"/>
      </g>
     </g>
    </g>
    <g id="ytick_3">
     <g id="line2d_23">
      <path d="M 56.0125 239.578755 
L 682.4125 239.578755 
" clip-path="url(#pdf2608ac95)" style="fill: none; stroke-dasharray: 2.22,0.96; stroke-dashoffset: 0; stroke: #b0b0b0; stroke-opacity: 0.25; stroke-width: 0.6"/>
     </g>
     <g id="line2d_24">
      <g>
       <use xlink:href="#m8f0d13fb3c" x="56.0125" y="239.578755" style="stroke: #000000; stroke-width: 0.8"/>
      </g>
     </g>
     <g id="text_13">
      <!-- 0.15 -->
      <g transform="translate(25.0125 243.703755) scale(0.12 -0.12)">
       <use xlink:href="#SimHei-30"/>
       <use xlink:href="#SimHei-2e" transform="translate(50 0)"/>
       <use xlink:href="#SimHei-31" transform="translate(100 0)"/>
       <use xlink:href="#SimHei-35" transform="translate(150 0)"/>
      </g>
     </g>
    </g>
    <g id="ytick_4">
     <g id="line2d_25">
      <path d="M 56.0125 192.490764 
L 682.4125 192.490764 
" clip-path="url(#pdf2608ac95)" style="fill: none; stroke-dasharray: 2.22,0.96; stroke-dashoffset: 0; stroke: #b0b0b0; stroke-opacity: 0.25; stroke-width: 0.6"/>
     </g>
     <g id="line2d_26">
      <g>
       <use xlink:href="#m8f0d13fb3c" x="56.0125" y="192.490764" style="stroke: #000000; stroke-width: 0.8"/>
      </g>
     </g>
     <g id="text_14">
      <!-- 0.20 -->
      <g transform="translate(25.0125 196.615764) scale(0.12 -0.12)">
       <use xlink:href="#SimHei-30"/>
       <use xlink:href="#SimHei-2e" transform="translate(50 0)"/>
       <use xlink:href="#SimHei-32" transform="translate(100 0)"/>
       <use xlink:href="#SimHei-30" transform="translate(150 0)"/>
      </g>
     </g>
    </g>
    <g id="ytick_5">
     <g id="line2d_27">
      <path d="M 56.0125 145.402772 
L 682.4125 145.402772 
" clip-path="url(#pdf2608ac95)" style="fill: none; stroke-dasharray: 2.22,0.96; stroke-dashoffset: 0; stroke: #b0b0b0; stroke-opacity: 0.25; stroke-width: 0.6"/>
     </g>
     <g id="line2d_28">
      <g>
       <use xlink:href="#m8f0d13fb3c" x="56.0125" y="145.402772" style="stroke: #000000; stroke-width: 0.8"/>
      </g>
     </g>
     <g id="text_15">
      <!-- 0.25 -->
      <g transform="translate(25.0125 149.527772) scale(0.12 -0.12)">
       <use xlink:href="#SimHei-30"/>
       <use xlink:href="#SimHei-2e" transform="translate(50 0)"/>
       <use xlink:href="#SimHei-32" transform="translate(100 0)"/>
       <use xlink:href="#SimHei-35" transform="translate(150 0)"/>
      </g>
     </g>
    </g>
    <g id="ytick_6">
     <g id="line2d_29">
      <path d="M 56.0125 98.31478 
L 682.4125 98.31478 
" clip-path="url(#pdf2608ac95)" style="fill: none; stroke-dasharray: 2.22,0.96; stroke-dashoffset: 0; stroke: #b0b0b0; stroke-opacity: 0.25; stroke-width: 0.6"/>
     </g>
     <g id="line2d_30">
      <g>
       <use xlink:href="#m8f0d13fb3c" x="56.0125" y="98.31478" style="stroke: #000000; stroke-width: 0.8"/>
      </g>
     </g>
     <g id="text_16">
      <!-- 0.30 -->
      <g transform="translate(25.0125 102.43978) scale(0.12 -0.12)">
       <use xlink:href="#SimHei-30"/>
       <use xlink:href="#SimHei-2e" transform="translate(50 0)"/>
       <use xlink:href="#SimHei-33" transform="translate(100 0)"/>
       <use xlink:href="#SimHei-30" transform="translate(150 0)"/>
      </g>
     </g>
    </g>
    <g id="ytick_7">
     <g id="line2d_31">
      <path d="M 56.0125 51.226788 
L 682.4125 51.226788 
" clip-path="url(#pdf2608ac95)" style="fill: none; stroke-dasharray: 2.22,0.96; stroke-dashoffset: 0; stroke: #b0b0b0; stroke-opacity: 0.25; stroke-width: 0.6"/>
     </g>
     <g id="line2d_32">
      <g>
       <use xlink:href="#m8f0d13fb3c" x="56.0125" y="51.226788" style="stroke: #000000; stroke-width: 0.8"/>
      </g>
     </g>
     <g id="text_17">
      <!-- 0.35 -->
      <g transform="translate(25.0125 55.351788) scale(0.12 -0.12)">
       <use xlink:href="#SimHei-30"/>
       <use xlink:href="#SimHei-2e" transform="translate(50 0)"/>
       <use xlink:href="#SimHei-33" transform="translate(100 0)"/>
       <use xlink:href="#SimHei-35" transform="translate(150 0)"/>
      </g>
     </g>
    </g>
    <g id="text_18">
     <!-- Total Task Latency -->
     <g transform="translate(18.8875 268.6836) rotate(-90) scale(0.17 -0.17)">
      <defs>
       <path id="SimHei-54" d="M 2850 3925 
L 1850 3925 
L 1850 125 
L 1275 125 
L 1275 3925 
L 275 3925 
L 275 4400 
L 2850 4400 
L 2850 3925 
z
" transform="scale(0.015625)"/>
       <path id="SimHei-74" d="M 2750 200 
Q 2625 150 2462 112 
Q 2300 75 2025 75 
Q 1575 75 1300 325 
Q 1025 575 1025 1025 
L 1025 2525 
L 175 2525 
L 175 2925 
L 1025 2925 
L 1025 3900 
L 1525 3900 
L 1525 2925 
L 2550 2925 
L 2550 2525 
L 1525 2525 
L 1525 1000 
Q 1525 800 1625 662 
Q 1725 525 2000 525 
Q 2275 525 2450 575 
Q 2625 625 2750 700 
L 2750 200 
z
" transform="scale(0.015625)"/>
       <path id="SimHei-61" d="M 2875 125 
L 2275 125 
Q 2225 175 2200 262 
Q 2175 350 2175 475 
Q 2000 275 1750 175 
Q 1500 75 1225 75 
Q 825 75 550 275 
Q 275 475 275 850 
Q 275 1225 525 1450 
Q 775 1675 1300 1750 
Q 1650 1800 1912 1875 
Q 2175 1950 2175 2075 
Q 2175 2225 2062 2375 
Q 1950 2525 1575 2525 
Q 1275 2525 1137 2412 
Q 1000 2300 950 2100 
L 400 2100 
Q 450 2500 762 2737 
Q 1075 2975 1575 2975 
Q 2125 2975 2400 2725 
Q 2675 2475 2675 2025 
L 2675 650 
Q 2675 500 2725 375 
Q 2775 250 2875 125 
z
M 2175 1050 
L 2175 1550 
Q 2025 1500 1887 1462 
Q 1750 1425 1425 1375 
Q 1050 1325 937 1200 
Q 825 1075 825 900 
Q 825 750 937 637 
Q 1050 525 1275 525 
Q 1500 525 1762 650 
Q 2025 775 2175 1050 
z
" transform="scale(0.015625)"/>
       <path id="SimHei-6c" d="M 1825 125 
L 1325 125 
L 1325 4400 
L 1825 4400 
L 1825 125 
z
" transform="scale(0.015625)"/>
       <path id="SimHei-20" transform="scale(0.015625)"/>
       <path id="SimHei-6b" d="M 2925 125 
L 2350 125 
L 1450 1650 
L 875 1100 
L 875 125 
L 375 125 
L 375 4400 
L 875 4400 
L 875 1675 
L 2125 2925 
L 2750 2925 
L 1775 1975 
L 2925 125 
z
" transform="scale(0.015625)"/>
       <path id="SimHei-4c" d="M 2900 125 
L 300 125 
L 300 4400 
L 875 4400 
L 875 600 
L 2900 600 
L 2900 125 
z
" transform="scale(0.015625)"/>
       <path id="SimHei-6e" d="M 2800 125 
L 2300 125 
L 2300 1925 
Q 2300 2225 2150 2400 
Q 2000 2575 1750 2575 
Q 1425 2575 1137 2237 
Q 850 1900 850 1400 
L 850 125 
L 350 125 
L 350 2925 
L 850 2925 
L 850 2400 
Q 1050 2675 1287 2825 
Q 1525 2975 1900 2975 
Q 2350 2975 2575 2725 
Q 2800 2475 2800 2100 
L 2800 125 
z
" transform="scale(0.015625)"/>
       <path id="SimHei-63" d="M 2850 1250 
Q 2850 725 2487 400 
Q 2125 75 1575 75 
Q 1025 75 625 462 
Q 225 850 225 1525 
Q 225 2200 625 2587 
Q 1025 2975 1575 2975 
Q 2125 2975 2450 2687 
Q 2775 2400 2775 2000 
L 2225 2000 
Q 2200 2300 2012 2412 
Q 1825 2525 1575 2525 
Q 1275 2525 1025 2287 
Q 775 2050 775 1525 
Q 775 1000 1025 762 
Q 1275 525 1575 525 
Q 1900 525 2100 700 
Q 2300 875 2300 1250 
L 2850 1250 
z
" transform="scale(0.015625)"/>
       <path id="SimHei-79" d="M 2900 2925 
L 1750 -100 
Q 1650 -450 1450 -625 
Q 1250 -800 950 -800 
Q 825 -800 712 -787 
Q 600 -775 500 -725 
L 500 -225 
Q 600 -275 700 -300 
Q 800 -325 875 -325 
Q 1075 -325 1150 -262 
Q 1225 -200 1300 25 
L 200 2925 
L 750 2925 
L 1550 725 
L 1575 725 
L 2350 2925 
L 2900 2925 
z
" transform="scale(0.015625)"/>
      </defs>
      <use xlink:href="#SimHei-54"/>
      <use xlink:href="#SimHei-6f" transform="translate(50 0)"/>
      <use xlink:href="#SimHei-74" transform="translate(100 0)"/>
      <use xlink:href="#SimHei-61" transform="translate(150 0)"/>
      <use xlink:href="#SimHei-6c" transform="translate(200 0)"/>
      <use xlink:href="#SimHei-20" transform="translate(250 0)"/>
      <use xlink:href="#SimHei-54" transform="translate(300 0)"/>
      <use xlink:href="#SimHei-61" transform="translate(350 0)"/>
      <use xlink:href="#SimHei-73" transform="translate(400 0)"/>
      <use xlink:href="#SimHei-6b" transform="translate(450 0)"/>
      <use xlink:href="#SimHei-20" transform="translate(500 0)"/>
      <use xlink:href="#SimHei-4c" transform="translate(550 0)"/>
      <use xlink:href="#SimHei-61" transform="translate(600 0)"/>
      <use xlink:href="#SimHei-74" transform="translate(650 0)"/>
      <use xlink:href="#SimHei-65" transform="translate(700 0)"/>
      <use xlink:href="#SimHei-6e" transform="translate(750 0)"/>
      <use xlink:href="#SimHei-63" transform="translate(800 0)"/>
      <use xlink:href="#SimHei-79" transform="translate(850 0)"/>
     </g>
    </g>
   </g>
   <g id="line2d_33">
    <path d="M 84.485227 175.019031 
L 85.912432 166.547617 
L 87.339636 156.977162 
L 88.76684 149.899666 
L 90.194045 138.181487 
L 91.621249 130.932601 
L 94.475658 118.370862 
L 95.902862 110.169652 
L 97.330067 106.456805 
L 98.757271 103.905757 
L 100.184475 96.238084 
L 101.61168 92.404336 
L 103.038884 89.37918 
L 104.466089 90.343271 
L 107.320497 83.18185 
L 108.747702 78.48988 
L 110.174906 72.417083 
L 111.60211 67.583139 
L 113.029315 63.413755 
L 114.456519 60.589821 
L 115.883724 59.997972 
L 117.310928 60.904021 
L 118.738132 60.719594 
L 120.165337 59.856554 
L 121.592541 62.260196 
L 123.019745 57.963676 
L 124.44695 56.156028 
L 125.874154 55.973515 
L 127.301359 51.350907 
L 128.728563 52.821412 
L 130.155767 53.271846 
L 131.582972 51.148561 
L 133.010176 50.274185 
L 134.43738 49.622464 
L 135.864585 48.838145 
L 138.718994 102.278686 
L 140.146198 126.166065 
L 141.573402 146.678191 
L 143.000607 165.379722 
L 144.427811 182.500779 
L 145.855015 197.468942 
L 148.709424 224.131736 
L 150.136629 235.379487 
L 151.563833 245.369781 
L 152.991037 254.090927 
L 155.845446 268.7965 
L 157.27265 273.923699 
L 158.699855 279.904647 
L 160.127059 285.303515 
L 162.981468 292.825043 
L 164.408672 296.379285 
L 167.263081 301.710485 
L 168.690285 305.131263 
L 171.544694 309.982959 
L 172.971898 313.249048 
L 174.399103 315.539008 
L 177.253512 319.321506 
L 178.680716 320.238276 
L 180.10792 320.444962 
L 181.535125 321.509289 
L 182.962329 322.773185 
L 184.389533 324.394602 
L 187.243942 325.435027 
L 188.671147 325.688572 
L 190.098351 326.636266 
L 191.525555 327.294676 
L 192.95276 327.541249 
L 194.379964 328.404903 
L 197.234373 329.482683 
L 198.661577 330.624337 
L 200.088782 331.618739 
L 201.515986 331.683636 
L 202.94319 331.961377 
L 204.370395 331.148183 
L 205.797599 331.329362 
L 207.224803 332.057301 
L 208.652008 332.027619 
L 210.079212 331.485586 
L 211.506417 331.820149 
L 212.933621 331.438745 
L 214.360825 331.498335 
L 215.78803 331.837308 
L 217.215234 331.8491 
L 218.642438 331.450613 
L 221.496847 332.057055 
L 222.924052 332.179677 
L 224.351256 331.947185 
L 225.77846 332.66038 
L 227.205665 332.468227 
L 230.060073 333.770508 
L 231.487278 333.290654 
L 232.914482 332.293455 
L 235.768891 331.564299 
L 237.196095 331.540787 
L 238.6233 332.067767 
L 240.050504 332.096551 
L 241.477708 333.225777 
L 242.904913 332.251557 
L 244.332117 332.721242 
L 247.186526 333.123166 
L 250.040935 333.046874 
L 251.468139 333.311594 
L 252.895343 333.308455 
L 254.322548 333.106647 
L 255.749752 333.287898 
L 258.604161 331.967577 
L 260.031365 332.315181 
L 261.45857 332.53841 
L 262.885774 332.359784 
L 264.312978 331.735988 
L 265.740183 331.412516 
L 268.594592 332.186134 
L 270.021796 333.365226 
L 271.449 332.817488 
L 272.876205 333.391099 
L 274.303409 333.722012 
L 277.157818 333.354528 
L 278.585022 332.903058 
L 280.012227 333.471534 
L 281.439431 333.17586 
L 282.866635 333.206985 
L 284.29384 331.883264 
L 285.721044 332.50895 
L 290.002657 332.802741 
L 291.429862 332.60452 
L 292.857066 332.742916 
L 294.28427 333.251789 
L 295.711475 332.765158 
L 297.138679 332.567904 
L 298.565883 332.623851 
L 299.993088 333.005362 
L 301.420292 333.88369 
L 302.847497 334.363088 
L 305.701905 333.237888 
L 307.12911 333.700737 
L 308.556314 332.982921 
L 309.983518 332.806104 
L 312.837927 333.623199 
L 314.265132 333.217328 
L 315.692336 333.560753 
L 317.11954 333.665009 
L 318.546745 332.800113 
L 319.973949 333.156077 
L 321.401153 332.181813 
L 322.828358 332.253488 
L 324.255562 332.135286 
L 325.682767 333.005969 
L 327.109971 333.356736 
L 328.537175 333.217511 
L 329.96438 333.381973 
L 331.391584 332.883467 
L 332.818788 332.58854 
L 335.673197 332.827281 
L 338.527606 332.508647 
L 339.95481 332.699534 
L 342.809219 333.830112 
L 344.236423 334.043642 
L 345.663628 334.468458 
L 347.090832 334.123115 
L 348.518037 334.274843 
L 349.945241 333.302738 
L 351.372445 332.989296 
L 352.79965 333.219739 
L 355.654058 332.973721 
L 357.081263 332.403776 
L 358.508467 332.675996 
L 359.935672 332.74869 
L 361.362876 332.363821 
L 362.79008 332.836522 
L 364.217285 332.825545 
L 365.644489 333.082579 
L 367.071693 332.553059 
L 369.926102 332.848808 
L 371.353307 333.399166 
L 372.780511 333.422997 
L 375.63492 332.935755 
L 377.062124 333.448199 
L 378.489328 333.003958 
L 379.916533 333.435546 
L 381.343737 333.278398 
L 382.770942 332.990841 
L 384.198146 331.709758 
L 385.62535 331.848046 
L 388.479759 332.678792 
L 389.906963 332.171831 
L 391.334168 332.925841 
L 392.761372 333.064164 
L 394.188577 333.500723 
L 395.615781 333.8131 
L 397.042985 333.753889 
L 398.47019 334.202798 
L 399.897394 334.11469 
L 401.324598 333.549795 
L 402.751803 333.975265 
L 404.179007 333.733462 
L 405.606212 333.128556 
L 408.46062 333.253017 
L 409.887825 332.731182 
L 411.315029 331.879045 
L 412.742233 331.601089 
L 414.169438 331.480641 
L 415.596642 330.926707 
L 417.023847 331.682691 
L 418.451051 331.812292 
L 419.878255 332.155754 
L 421.30546 332.340807 
L 422.732664 332.654424 
L 424.159868 332.477544 
L 425.587073 331.997321 
L 427.014277 332.578569 
L 428.441482 331.758043 
L 429.868686 332.10844 
L 431.29589 331.552985 
L 432.723095 332.173763 
L 434.150299 332.466497 
L 435.577503 333.140548 
L 437.004708 332.495138 
L 438.431912 332.080749 
L 439.859117 332.311866 
L 442.713525 331.289033 
L 444.14073 331.881583 
L 445.567934 332.167098 
L 446.995138 331.887509 
L 448.422343 332.131576 
L 449.849547 331.894505 
L 451.276752 332.203426 
L 452.703956 331.83196 
L 454.13116 331.969323 
L 455.558365 332.511899 
L 456.985569 332.416188 
L 458.412773 332.060973 
L 459.839978 332.312878 
L 461.267182 333.520008 
L 464.121591 334.346512 
L 465.548795 334.427503 
L 466.976 335.042097 
L 468.403204 335.499652 
L 469.830408 333.994061 
L 471.257613 333.854155 
L 472.684817 334.110523 
L 474.112022 334.788938 
L 475.539226 334.941665 
L 478.393635 333.148794 
L 479.820839 333.305367 
L 481.248043 332.663346 
L 482.675248 332.775492 
L 484.102452 332.04875 
L 485.529657 332.137365 
L 488.384065 332.687888 
L 489.81127 332.097499 
L 491.238474 331.881797 
L 492.665678 332.515025 
L 494.092883 331.514093 
L 496.947292 331.630334 
L 498.374496 331.531731 
L 499.8017 331.80878 
L 501.228905 331.901693 
L 502.656109 332.190684 
L 504.083313 331.014116 
L 505.510518 331.011128 
L 508.364927 331.88744 
L 509.792131 330.988633 
L 511.219335 330.761815 
L 512.64654 331.992866 
L 516.928153 332.076869 
L 518.355357 331.745794 
L 519.782562 331.950966 
L 521.209766 331.170699 
L 524.064175 331.260109 
L 525.491379 330.979503 
L 528.345788 331.132774 
L 529.772992 331.019808 
L 531.200197 330.175454 
L 532.627401 330.083859 
L 535.48181 328.388576 
L 536.909014 329.304811 
L 538.336218 330.087402 
L 539.763423 330.349593 
L 541.190627 330.846677 
L 545.47224 331.774982 
L 548.326649 333.083399 
L 549.753853 334.058139 
L 551.181058 333.532352 
L 552.608262 333.710681 
L 554.035467 334.154973 
L 555.462671 334.241421 
L 556.889875 334.446479 
L 558.31708 332.96241 
L 559.744284 332.586735 
L 561.171488 332.505004 
L 564.025897 333.305627 
L 566.880306 334.46101 
L 568.30751 334.64589 
L 569.734715 334.620752 
L 571.161919 332.735601 
L 575.443532 331.74684 
L 576.870737 332.011744 
L 578.297941 331.311387 
L 582.579554 331.936614 
L 585.433963 332.875661 
L 586.861167 333.48712 
L 588.288371 334.268839 
L 589.715576 334.701268 
L 591.14278 334.658623 
L 592.569985 334.498703 
L 593.997189 334.535913 
L 595.424393 334.36465 
L 596.851598 334.573915 
L 598.278802 334.976698 
L 599.706006 334.807352 
L 601.133211 334.182813 
L 602.560415 333.679577 
L 603.98762 333.003686 
L 605.414824 332.743374 
L 606.842028 333.025014 
L 608.269233 332.899722 
L 611.123641 331.65766 
L 612.550846 332.930655 
L 613.97805 333.040718 
L 615.405255 333.438932 
L 616.832459 332.966202 
L 618.259663 332.364371 
L 619.686868 332.635557 
L 621.114072 333.131511 
L 622.541276 333.764341 
L 625.395685 334.030024 
L 626.82289 333.484406 
L 628.250094 333.42826 
L 629.677298 334.036546 
L 631.104503 334.052069 
L 632.531707 334.263169 
L 633.958911 333.951264 
L 636.81332 333.778423 
L 638.240525 333.287097 
L 639.667729 331.952333 
L 641.094933 332.441103 
L 642.522138 331.604298 
L 646.803751 333.261609 
L 648.230955 333.42639 
L 649.65816 334.500385 
L 651.085364 334.487513 
L 652.512568 334.934971 
L 653.939773 334.220738 
L 653.939773 334.220738 
" clip-path="url(#pdf2608ac95)" style="fill: none; stroke: #1f77b4; stroke-width: 1.2; stroke-linecap: square"/>
   </g>
   <g id="line2d_34">
    <path d="M 84.485227 136.22069 
L 85.912432 132.368106 
L 87.339636 118.948266 
L 88.76684 114.268269 
L 90.194045 104.220763 
L 91.621249 95.647134 
L 93.048454 90.825919 
L 94.475658 86.790047 
L 95.902862 83.908217 
L 97.330067 78.214037 
L 98.757271 74.89342 
L 100.184475 72.279946 
L 101.61168 68.389685 
L 103.038884 66.334577 
L 104.466089 65.643307 
L 105.893293 65.776564 
L 107.320497 63.007282 
L 108.747702 61.948409 
L 110.174906 60.497414 
L 111.60211 61.896283 
L 113.029315 62.044629 
L 114.456519 58.860024 
L 118.738132 52.958317 
L 120.165337 55.047257 
L 121.592541 58.473773 
L 123.019745 56.047876 
L 124.44695 55.01442 
L 125.874154 53.478177 
L 127.301359 54.691281 
L 128.728563 56.394207 
L 131.582972 57.494638 
L 133.010176 56.353242 
L 134.43738 52.876898 
L 135.864585 56.417936 
L 137.291789 55.189272 
L 138.718994 54.987128 
L 140.146198 56.992839 
L 141.573402 57.643799 
L 143.000607 58.976664 
L 144.427811 56.838357 
L 145.855015 56.554692 
L 147.28222 55.573873 
L 148.709424 55.81685 
L 151.563833 53.460034 
L 152.991037 56.043068 
L 154.418242 55.688896 
L 155.845446 52.508917 
L 157.27265 53.982774 
L 158.699855 54.187356 
L 160.127059 52.732071 
L 161.554263 60.221358 
L 164.408672 111.456975 
L 165.835877 132.557797 
L 168.690285 170.237923 
L 170.11749 186.715376 
L 171.544694 201.599967 
L 172.971898 214.500915 
L 175.826307 237.086171 
L 178.680716 255.627365 
L 180.10792 261.541146 
L 182.962329 275.449598 
L 184.389533 281.255621 
L 188.671147 295.342505 
L 190.098351 298.664612 
L 191.525555 302.5964 
L 192.95276 305.790563 
L 194.379964 308.269376 
L 195.807168 311.047314 
L 197.234373 312.865247 
L 198.661577 315.527689 
L 200.088782 317.832715 
L 202.94319 320.1294 
L 204.370395 319.953666 
L 205.797599 320.786385 
L 207.224803 321.067021 
L 208.652008 322.73603 
L 210.079212 323.541014 
L 214.360825 326.509115 
L 215.78803 326.332465 
L 217.215234 327.661788 
L 218.642438 327.980886 
L 220.069643 328.093715 
L 221.496847 329.209726 
L 222.924052 329.917387 
L 224.351256 329.823962 
L 227.205665 330.859499 
L 228.632869 330.824382 
L 231.487278 332.564048 
L 232.914482 331.20159 
L 234.341687 331.36288 
L 235.768891 331.74779 
L 237.196095 331.489885 
L 238.6233 331.054423 
L 240.050504 331.351254 
L 241.477708 332.236591 
L 242.904913 332.554254 
L 244.332117 333.280959 
L 245.759322 333.466471 
L 247.186526 332.947132 
L 248.61373 333.938713 
L 250.040935 333.153464 
L 251.468139 333.679076 
L 252.895343 333.996863 
L 254.322548 334.449157 
L 255.749752 334.454786 
L 257.176957 333.978448 
L 260.031365 334.366358 
L 261.45857 334.806519 
L 262.885774 333.825283 
L 264.312978 333.522679 
L 265.740183 332.949312 
L 267.167387 332.55675 
L 268.594592 332.659987 
L 270.021796 331.907821 
L 271.449 331.73151 
L 272.876205 332.091865 
L 274.303409 332.110832 
L 275.730613 331.850899 
L 277.157818 330.644881 
L 278.585022 331.236124 
L 280.012227 331.578985 
L 281.439431 331.79937 
L 282.866635 331.797847 
L 284.29384 332.094522 
L 285.721044 331.981232 
L 287.148248 331.571386 
L 288.575453 331.424229 
L 290.002657 331.889037 
L 291.429862 331.571786 
L 292.857066 331.838173 
L 294.28427 331.473924 
L 295.711475 330.969921 
L 298.565883 331.295451 
L 299.993088 332.307532 
L 301.420292 332.024387 
L 302.847497 332.683792 
L 305.701905 333.20407 
L 307.12911 333.012914 
L 308.556314 332.98158 
L 309.983518 332.333135 
L 311.410723 333.579678 
L 312.837927 334.113458 
L 314.265132 333.722748 
L 315.692336 333.826837 
L 317.11954 332.753175 
L 319.973949 332.498018 
L 321.401153 332.188051 
L 322.828358 332.322983 
L 324.255562 332.814115 
L 325.682767 333.657348 
L 327.109971 333.878212 
L 328.537175 333.247577 
L 329.96438 333.326859 
L 331.391584 332.567145 
L 332.818788 332.586614 
L 334.245993 333.105297 
L 337.100402 333.464978 
L 338.527606 333.256073 
L 339.95481 333.198058 
L 341.382015 332.599338 
L 342.809219 332.651174 
L 344.236423 332.353912 
L 345.663628 332.922947 
L 347.090832 332.699712 
L 348.518037 332.708939 
L 349.945241 333.255231 
L 351.372445 333.228463 
L 352.79965 332.53188 
L 354.226854 332.550698 
L 355.654058 332.261761 
L 357.081263 331.568694 
L 358.508467 331.858829 
L 361.362876 333.521476 
L 364.217285 332.695067 
L 365.644489 333.060954 
L 367.071693 333.083131 
L 368.498898 332.688402 
L 371.353307 333.310626 
L 374.207715 333.761406 
L 377.062124 333.795394 
L 378.489328 332.784497 
L 379.916533 333.260253 
L 381.343737 333.320126 
L 382.770942 333.608049 
L 384.198146 333.41462 
L 385.62535 334.244556 
L 388.479759 334.483677 
L 389.906963 333.949996 
L 391.334168 333.260043 
L 392.761372 333.60634 
L 394.188577 333.666227 
L 395.615781 334.412648 
L 398.47019 333.449283 
L 399.897394 333.987502 
L 401.324598 334.010437 
L 404.179007 334.596118 
L 405.606212 334.698789 
L 407.033416 334.112002 
L 408.46062 334.140643 
L 409.887825 333.703373 
L 411.315029 333.945515 
L 414.169438 333.815512 
L 415.596642 334.477885 
L 418.451051 334.875004 
L 419.878255 335.219388 
L 421.30546 334.934671 
L 422.732664 334.891039 
L 424.159868 334.498712 
L 425.587073 334.227328 
L 427.014277 334.120092 
L 428.441482 334.275021 
L 431.29589 333.184188 
L 432.723095 333.400183 
L 434.150299 334.190062 
L 437.004708 333.400057 
L 438.431912 333.251114 
L 439.859117 331.953218 
L 442.713525 331.991932 
L 444.14073 331.682797 
L 445.567934 331.597554 
L 446.995138 331.057172 
L 448.422343 331.227217 
L 449.849547 331.936002 
L 451.276752 332.230035 
L 452.703956 332.341218 
L 454.13116 332.607914 
L 455.558365 332.636359 
L 456.985569 333.009242 
L 458.412773 333.774961 
L 459.839978 333.588276 
L 461.267182 334.424054 
L 462.694387 333.881517 
L 464.121591 334.244006 
L 465.548795 334.159386 
L 468.403204 334.596403 
L 469.830408 334.7487 
L 471.257613 335.143306 
L 474.112022 335.204469 
L 476.96643 335.086836 
L 478.393635 334.596459 
L 479.820839 334.763597 
L 481.248043 334.288947 
L 482.675248 334.255719 
L 484.102452 334.416105 
L 485.529657 334.389077 
L 486.956861 334.640108 
L 488.384065 334.617089 
L 491.238474 333.642116 
L 492.665678 333.580918 
L 494.092883 332.071903 
L 495.520087 333.021737 
L 498.374496 333.286122 
L 499.8017 333.782603 
L 501.228905 333.92262 
L 502.656109 334.704761 
L 504.083313 333.361023 
L 505.510518 333.013193 
L 506.937722 333.402595 
L 508.364927 333.426253 
L 509.792131 333.229714 
L 511.219335 332.293499 
L 512.64654 332.743666 
L 514.073744 332.514021 
L 515.500948 332.552239 
L 516.928153 331.92244 
L 518.355357 332.086552 
L 519.782562 331.901621 
L 521.209766 332.13846 
L 522.63697 331.99051 
L 524.064175 332.770393 
L 525.491379 331.993019 
L 526.918583 331.994743 
L 528.345788 331.734184 
L 529.772992 331.050057 
L 531.200197 332.177784 
L 532.627401 332.131265 
L 534.054605 332.538224 
L 535.48181 331.879143 
L 538.336218 332.466895 
L 539.763423 331.966892 
L 541.190627 332.384902 
L 542.617832 333.072976 
L 544.045036 333.118354 
L 545.47224 332.572173 
L 546.899445 332.805945 
L 548.326649 333.166331 
L 549.753853 333.310022 
L 551.181058 333.802503 
L 552.608262 334.529326 
L 555.462671 334.819268 
L 558.31708 333.277158 
L 559.744284 332.266248 
L 561.171488 333.148719 
L 564.025897 333.960335 
L 565.453102 333.356369 
L 569.734715 334.278533 
L 571.161919 332.750348 
L 572.589123 332.227391 
L 574.016328 332.31762 
L 575.443532 331.059014 
L 576.870737 330.959177 
L 578.297941 331.051877 
L 581.15235 331.470146 
L 584.006758 331.285564 
L 585.433963 332.092823 
L 586.861167 331.887248 
L 588.288371 332.466015 
L 589.715576 332.269444 
L 591.14278 332.400564 
L 592.569985 332.246558 
L 593.997189 332.624823 
L 595.424393 333.246577 
L 596.851598 332.846195 
L 598.278802 332.255598 
L 599.706006 331.02917 
L 601.133211 331.238106 
L 603.98762 330.322808 
L 605.414824 330.796262 
L 606.842028 331.115423 
L 608.269233 331.041552 
L 609.696437 329.322483 
L 612.550846 330.233763 
L 613.97805 330.468151 
L 615.405255 330.88326 
L 618.259663 330.841871 
L 619.686868 330.861316 
L 621.114072 331.287447 
L 622.541276 330.900777 
L 623.968481 331.489874 
L 625.395685 331.792532 
L 628.250094 331.744227 
L 629.677298 332.065631 
L 631.104503 333.07331 
L 632.531707 332.895254 
L 633.958911 333.117182 
L 635.386116 333.928737 
L 636.81332 333.798395 
L 638.240525 333.821618 
L 639.667729 334.441211 
L 641.094933 334.413441 
L 642.522138 333.464103 
L 643.949342 333.956371 
L 645.376546 334.147582 
L 646.803751 333.920457 
L 648.230955 334.32831 
L 649.65816 333.868317 
L 652.512568 334.725966 
L 652.512568 334.725966 
" clip-path="url(#pdf2608ac95)" style="fill: none; stroke: #ff7f0e; stroke-width: 1.2; stroke-linecap: square"/>
   </g>
   <g id="line2d_35">
    <path d="M 84.485227 197.530404 
L 85.912432 196.841152 
L 87.339636 195.947769 
L 88.76684 196.598484 
L 90.194045 197.870384 
L 91.621249 202.29815 
L 94.475658 212.776775 
L 95.902862 219.478524 
L 97.330067 227.682175 
L 100.184475 243.100919 
L 103.038884 253.45969 
L 104.466089 261.131182 
L 105.893293 266.454056 
L 107.320497 270.629379 
L 108.747702 275.338178 
L 110.174906 280.61149 
L 111.60211 284.861446 
L 113.029315 290.10619 
L 114.456519 293.737213 
L 117.310928 298.935447 
L 118.738132 302.04647 
L 121.592541 307.154319 
L 123.019745 309.916988 
L 124.44695 312.374727 
L 128.728563 316.993178 
L 130.155767 318.371989 
L 131.582972 318.702921 
L 133.010176 320.412178 
L 134.43738 321.608884 
L 135.864585 323.227809 
L 137.291789 324.381483 
L 138.718994 324.152371 
L 140.146198 324.888345 
L 141.573402 325.885457 
L 143.000607 325.269993 
L 144.427811 326.492793 
L 145.855015 327.970119 
L 147.28222 328.679505 
L 150.136629 329.057515 
L 151.563833 330.05408 
L 152.991037 329.782117 
L 154.418242 330.345844 
L 155.845446 330.174191 
L 157.27265 330.996635 
L 158.699855 331.438963 
L 160.127059 331.382161 
L 161.554263 331.7568 
L 162.981468 332.397175 
L 164.408672 332.178027 
L 167.263081 332.642889 
L 168.690285 333.555096 
L 171.544694 334.354432 
L 172.971898 334.558863 
L 175.826307 334.151838 
L 177.253512 334.612476 
L 178.680716 334.729815 
L 180.10792 335.022812 
L 182.962329 334.28542 
L 184.389533 334.260806 
L 185.816738 334.814265 
L 187.243942 334.718339 
L 190.098351 333.353503 
L 191.525555 333.37936 
L 194.379964 333.04429 
L 195.807168 332.980511 
L 197.234373 332.435826 
L 198.661577 333.140174 
L 200.088782 332.348252 
L 202.94319 333.262489 
L 204.370395 333.104211 
L 205.797599 334.022085 
L 207.224803 333.800386 
L 208.652008 333.808418 
L 210.079212 334.560143 
L 211.506417 333.450787 
L 212.933621 333.109029 
L 214.360825 333.414696 
L 215.78803 332.928887 
L 217.215234 333.422185 
L 218.642438 333.46665 
L 220.069643 333.26111 
L 221.496847 332.342891 
L 222.924052 332.680566 
L 224.351256 332.203608 
L 225.77846 331.233448 
L 227.205665 332.09214 
L 228.632869 332.11322 
L 230.060073 332.020095 
L 231.487278 331.604048 
L 232.914482 331.972902 
L 234.341687 332.619802 
L 235.768891 332.213061 
L 237.196095 332.141427 
L 238.6233 332.679293 
L 240.050504 332.905213 
L 241.477708 333.436706 
L 242.904913 332.017464 
L 244.332117 331.76553 
L 245.759322 330.982954 
L 248.61373 331.511422 
L 250.040935 332.032316 
L 251.468139 332.774174 
L 252.895343 332.585231 
L 254.322548 332.66361 
L 255.749752 330.970261 
L 257.176957 330.982681 
L 258.604161 331.811934 
L 260.031365 332.45051 
L 261.45857 331.363741 
L 262.885774 332.131895 
L 264.312978 331.900138 
L 265.740183 332.065012 
L 267.167387 332.360573 
L 268.594592 332.916449 
L 270.021796 332.971502 
L 271.449 332.608744 
L 272.876205 332.729077 
L 274.303409 332.561575 
L 275.730613 333.148171 
L 277.157818 332.77175 
L 278.585022 332.004946 
L 280.012227 332.309161 
L 281.439431 333.214029 
L 282.866635 332.188222 
L 284.29384 332.293463 
L 285.721044 332.082122 
L 287.148248 331.442313 
L 288.575453 332.122263 
L 290.002657 332.156067 
L 291.429862 332.453798 
L 292.857066 332.521216 
L 294.28427 333.033152 
L 295.711475 333.793828 
L 297.138679 334.123889 
L 298.565883 333.197434 
L 301.420292 333.28734 
L 302.847497 334.624433 
L 304.274701 332.861443 
L 307.12911 333.19516 
L 308.556314 333.670261 
L 311.410723 332.56683 
L 312.837927 332.66598 
L 314.265132 332.270396 
L 315.692336 332.278148 
L 317.11954 332.940776 
L 318.546745 333.072677 
L 319.973949 333.937337 
L 321.401153 332.409907 
L 322.828358 332.475561 
L 324.255562 332.250556 
L 327.109971 332.211855 
L 328.537175 331.882805 
L 329.96438 331.795865 
L 331.391584 332.234276 
L 334.245993 332.135831 
L 335.673197 331.361545 
L 338.527606 332.805939 
L 344.236423 332.715131 
L 345.663628 333.637091 
L 347.090832 333.37878 
L 348.518037 333.506096 
L 349.945241 332.788699 
L 352.79965 333.359542 
L 354.226854 333.370068 
L 355.654058 333.809694 
L 357.081263 333.986277 
L 358.508467 333.555547 
L 359.935672 333.98716 
L 361.362876 333.186549 
L 362.79008 333.077311 
L 364.217285 333.336836 
L 365.644489 334.660219 
L 367.071693 334.05189 
L 368.498898 333.670142 
L 369.926102 334.057175 
L 371.353307 334.013569 
L 372.780511 333.786639 
L 375.63492 334.648338 
L 378.489328 334.563619 
L 381.343737 334.369399 
L 382.770942 334.318098 
L 384.198146 333.9371 
L 385.62535 333.2395 
L 387.052555 332.231312 
L 391.334168 333.055087 
L 392.761372 333.659979 
L 394.188577 333.420967 
L 395.615781 334.076215 
L 397.042985 333.139382 
L 398.47019 333.092974 
L 399.897394 333.678799 
L 401.324598 333.491076 
L 402.751803 333.584089 
L 404.179007 334.626898 
L 407.033416 334.112295 
L 408.46062 334.515869 
L 411.315029 334.912302 
L 412.742233 334.94304 
L 414.169438 333.33248 
L 415.596642 333.556033 
L 417.023847 333.288091 
L 418.451051 333.167759 
L 419.878255 332.774062 
L 421.30546 332.556266 
L 422.732664 332.88037 
L 424.159868 333.03046 
L 425.587073 333.398911 
L 427.014277 332.57741 
L 428.441482 332.443097 
L 429.868686 332.058714 
L 431.29589 331.28702 
L 432.723095 331.789254 
L 434.150299 331.721299 
L 435.577503 331.956621 
L 438.431912 331.303104 
L 439.859117 330.347086 
L 441.286321 330.283011 
L 442.713525 329.693313 
L 444.14073 329.569911 
L 445.567934 329.917929 
L 446.995138 330.489162 
L 448.422343 330.160633 
L 449.849547 330.995372 
L 451.276752 331.416591 
L 452.703956 330.404473 
L 454.13116 331.090077 
L 455.558365 331.96087 
L 456.985569 332.181935 
L 458.412773 332.056778 
L 459.839978 332.212654 
L 461.267182 332.722046 
L 462.694387 333.06076 
L 464.121591 333.520389 
L 465.548795 333.089761 
L 468.403204 333.32195 
L 469.830408 333.631692 
L 471.257613 334.182535 
L 472.684817 332.205144 
L 474.112022 332.77487 
L 475.539226 333.484607 
L 476.96643 333.245494 
L 478.393635 334.041862 
L 479.820839 333.658426 
L 481.248043 333.923908 
L 482.675248 333.417788 
L 484.102452 333.557369 
L 485.529657 333.295849 
L 486.956861 331.735539 
L 489.81127 331.648836 
L 491.238474 332.440161 
L 494.092883 332.028971 
L 496.947292 330.256717 
L 498.374496 330.977641 
L 499.8017 331.16155 
L 501.228905 330.326974 
L 502.656109 329.725704 
L 504.083313 330.706239 
L 505.510518 330.632154 
L 506.937722 330.922825 
L 508.364927 330.919941 
L 509.792131 329.031051 
L 511.219335 330.043898 
L 512.64654 330.515094 
L 514.073744 330.243294 
L 515.500948 330.453483 
L 516.928153 329.982959 
L 518.355357 330.399456 
L 521.209766 330.9633 
L 522.63697 331.304947 
L 524.064175 331.28617 
L 525.491379 331.799071 
L 526.918583 331.461505 
L 528.345788 331.319184 
L 529.772992 331.00402 
L 532.627401 331.694588 
L 534.054605 332.306211 
L 536.909014 331.596821 
L 538.336218 331.855581 
L 539.763423 332.516537 
L 544.045036 332.005771 
L 545.47224 332.734724 
L 546.899445 331.677529 
L 548.326649 332.50344 
L 549.753853 333.045676 
L 551.181058 333.716331 
L 554.035467 333.853492 
L 555.462671 333.233162 
L 556.889875 333.280756 
L 558.31708 333.211056 
L 559.744284 332.793481 
L 561.171488 333.56112 
L 562.598693 333.373159 
L 564.025897 333.757432 
L 566.880306 333.248359 
L 568.30751 333.578623 
L 569.734715 333.656637 
L 571.161919 333.921837 
L 572.589123 334.586747 
L 574.016328 333.982826 
L 575.443532 334.648484 
L 576.870737 334.470069 
L 578.297941 333.930191 
L 581.15235 334.004498 
L 584.006758 334.553078 
L 586.861167 333.692952 
L 588.288371 331.659444 
L 589.715576 333.009686 
L 591.14278 332.955516 
L 592.569985 333.394915 
L 593.997189 334.113658 
L 595.424393 334.054317 
L 596.851598 333.751006 
L 598.278802 333.310035 
L 599.706006 333.078296 
L 601.133211 333.357126 
L 602.560415 333.450581 
L 605.414824 333.316728 
L 606.842028 332.451275 
L 608.269233 333.046802 
L 609.696437 332.359349 
L 611.123641 332.143993 
L 613.97805 332.051974 
L 615.405255 332.883826 
L 616.832459 333.970694 
L 618.259663 334.199388 
L 619.686868 333.811093 
L 621.114072 333.631473 
L 622.541276 332.488907 
L 623.968481 331.741498 
L 625.395685 331.460728 
L 626.82289 330.964406 
L 628.250094 331.722544 
L 629.677298 331.792432 
L 631.104503 331.98337 
L 632.531707 331.293483 
L 633.958911 330.963772 
L 635.386116 331.664832 
L 636.81332 330.892748 
L 638.240525 328.807512 
L 639.667729 329.271427 
L 641.094933 329.480283 
L 642.522138 330.210457 
L 643.949342 331.092201 
L 645.376546 330.70659 
L 646.803751 330.507096 
L 648.230955 331.203133 
L 651.085364 330.649171 
L 652.512568 330.263987 
L 652.512568 330.263987 
" clip-path="url(#pdf2608ac95)" style="fill: none; stroke: #2ca02c; stroke-width: 1.2; stroke-linecap: square"/>
   </g>
   <g id="line2d_36">
    <path d="M 84.485227 197.530404 
L 85.912432 194.662931 
L 87.339636 191.064448 
L 88.76684 186.259335 
L 90.194045 192.407392 
L 91.621249 202.312303 
L 94.475658 218.794879 
L 97.330067 233.753118 
L 100.184475 252.036262 
L 103.038884 267.581148 
L 104.466089 273.011816 
L 107.320497 284.786042 
L 108.747702 289.575983 
L 111.60211 297.522129 
L 113.029315 300.777066 
L 114.456519 304.432407 
L 115.883724 307.273135 
L 117.310928 309.287331 
L 118.738132 310.239623 
L 120.165337 312.595841 
L 121.592541 314.537165 
L 123.019745 315.76797 
L 124.44695 316.829332 
L 125.874154 319.275235 
L 127.301359 320.369016 
L 128.728563 322.154254 
L 131.582972 322.856297 
L 133.010176 323.809725 
L 134.43738 324.618324 
L 135.864585 325.060103 
L 137.291789 325.899796 
L 138.718994 326.11739 
L 140.146198 327.359835 
L 141.573402 327.233062 
L 143.000607 328.15964 
L 144.427811 328.360307 
L 145.855015 328.981596 
L 147.28222 328.663313 
L 148.709424 330.049584 
L 150.136629 331.016285 
L 151.563833 331.394634 
L 152.991037 331.171268 
L 154.418242 331.524844 
L 157.27265 331.388809 
L 160.127059 332.058727 
L 161.554263 331.701324 
L 162.981468 332.184646 
L 164.408672 332.936769 
L 165.835877 331.463977 
L 168.690285 332.076332 
L 170.11749 331.585384 
L 171.544694 331.438052 
L 172.971898 332.224814 
L 174.399103 331.908623 
L 175.826307 331.841399 
L 177.253512 331.974123 
L 178.680716 331.254839 
L 180.10792 331.862405 
L 181.535125 331.984936 
L 182.962329 332.276999 
L 184.389533 332.98142 
L 185.816738 333.135124 
L 187.243942 333.910776 
L 188.671147 334.10128 
L 190.098351 333.669172 
L 191.525555 333.440656 
L 192.95276 333.325011 
L 194.379964 333.67983 
L 195.807168 334.218534 
L 197.234373 334.146054 
L 198.661577 334.370942 
L 200.088782 334.231166 
L 201.515986 334.322206 
L 202.94319 333.802951 
L 205.797599 333.969169 
L 208.652008 333.424146 
L 211.506417 333.375281 
L 212.933621 333.11659 
L 214.360825 333.406359 
L 215.78803 333.02822 
L 217.215234 332.990398 
L 218.642438 333.565439 
L 220.069643 333.84103 
L 221.496847 333.27679 
L 222.924052 332.976815 
L 224.351256 331.58407 
L 225.77846 331.052398 
L 227.205665 331.815822 
L 228.632869 331.304668 
L 230.060073 331.551187 
L 231.487278 331.260339 
L 232.914482 331.521578 
L 234.341687 331.357484 
L 235.768891 331.43507 
L 237.196095 331.180575 
L 240.050504 331.816516 
L 241.477708 330.793059 
L 245.759322 331.495907 
L 248.61373 330.93164 
L 250.040935 330.46941 
L 251.468139 330.650271 
L 252.895343 331.371285 
L 254.322548 331.470071 
L 255.749752 331.420173 
L 257.176957 332.282702 
L 258.604161 332.565102 
L 260.031365 332.535162 
L 261.45857 332.651172 
L 262.885774 332.264569 
L 265.740183 333.039446 
L 267.167387 332.526155 
L 268.594592 332.673535 
L 270.021796 333.498045 
L 272.876205 334.653596 
L 274.303409 334.31243 
L 275.730613 333.534343 
L 277.157818 333.545973 
L 278.585022 334.038775 
L 281.439431 334.29827 
L 282.866635 332.483527 
L 284.29384 332.42694 
L 285.721044 332.692085 
L 287.148248 333.210195 
L 288.575453 333.188959 
L 290.002657 333.717934 
L 291.429862 333.34569 
L 292.857066 332.570511 
L 294.28427 331.134823 
L 295.711475 331.978143 
L 298.565883 329.745118 
L 299.993088 330.150782 
L 301.420292 330.716117 
L 302.847497 331.158266 
L 304.274701 331.27491 
L 305.701905 332.312699 
L 307.12911 332.206143 
L 308.556314 332.689646 
L 309.983518 333.457883 
L 311.410723 333.556961 
L 312.837927 333.189436 
L 315.692336 334.214544 
L 317.11954 333.690148 
L 318.546745 333.647143 
L 319.973949 332.218983 
L 321.401153 332.784807 
L 322.828358 332.869903 
L 324.255562 332.485703 
L 325.682767 332.338198 
L 327.109971 332.893846 
L 328.537175 332.9103 
L 329.96438 332.674148 
L 331.391584 332.075367 
L 332.818788 332.500002 
L 334.245993 332.358466 
L 335.673197 332.342773 
L 337.100402 331.108386 
L 338.527606 330.542965 
L 339.95481 329.851567 
L 341.382015 331.264782 
L 344.236423 332.118457 
L 345.663628 332.376951 
L 347.090832 332.40252 
L 348.518037 332.684459 
L 349.945241 332.588594 
L 351.372445 333.355445 
L 352.79965 332.744515 
L 354.226854 332.31428 
L 357.081263 332.617282 
L 359.935672 332.387358 
L 361.362876 332.670343 
L 364.217285 332.480797 
L 365.644489 332.475993 
L 367.071693 332.678273 
L 369.926102 332.376964 
L 371.353307 332.613377 
L 372.780511 332.488065 
L 374.207715 332.812552 
L 375.63492 332.301542 
L 378.489328 331.856372 
L 379.916533 332.544438 
L 381.343737 332.793461 
L 382.770942 333.267345 
L 384.198146 333.011765 
L 385.62535 332.461999 
L 387.052555 332.809008 
L 388.479759 332.560959 
L 389.906963 331.890961 
L 391.334168 332.444011 
L 392.761372 332.733182 
L 394.188577 333.441497 
L 395.615781 333.497768 
L 397.042985 333.808405 
L 398.47019 333.676272 
L 399.897394 333.935891 
L 401.324598 333.927235 
L 402.751803 334.201699 
L 404.179007 333.638721 
L 405.606212 333.721496 
L 407.033416 333.476129 
L 408.46062 333.387758 
L 409.887825 333.69 
L 411.315029 333.00431 
L 412.742233 332.125246 
L 414.169438 332.336034 
L 415.596642 333.069239 
L 417.023847 333.375998 
L 419.878255 332.325415 
L 421.30546 332.474525 
L 422.732664 332.937986 
L 424.159868 333.572358 
L 425.587073 333.840598 
L 431.29589 333.494149 
L 432.723095 333.626289 
L 435.577503 333.635116 
L 437.004708 332.689097 
L 438.431912 332.662753 
L 439.859117 331.735094 
L 441.286321 332.69447 
L 442.713525 333.164896 
L 444.14073 332.804713 
L 445.567934 333.435754 
L 446.995138 333.650402 
L 448.422343 334.452721 
L 449.849547 333.250219 
L 451.276752 332.83802 
L 452.703956 332.911953 
L 454.13116 332.628964 
L 455.558365 332.894136 
L 456.985569 332.871958 
L 458.412773 333.244831 
L 459.839978 332.627516 
L 461.267182 332.742881 
L 462.694387 332.306761 
L 465.548795 333.428549 
L 466.976 333.587418 
L 468.403204 333.157564 
L 469.830408 333.996062 
L 471.257613 333.504906 
L 472.684817 334.016232 
L 474.112022 333.637641 
L 475.539226 334.014859 
L 476.96643 333.565602 
L 478.393635 333.854207 
L 481.248043 333.874135 
L 482.675248 334.139908 
L 484.102452 334.916129 
L 485.529657 335.066401 
L 486.956861 334.663739 
L 488.384065 334.033814 
L 491.238474 334.451735 
L 492.665678 334.739119 
L 494.092883 334.167509 
L 495.520087 333.315458 
L 496.947292 332.287388 
L 498.374496 332.160336 
L 499.8017 331.463979 
L 501.228905 331.633885 
L 502.656109 332.224037 
L 505.510518 332.17745 
L 508.364927 331.683167 
L 509.792131 331.201413 
L 511.219335 331.225427 
L 512.64654 330.436108 
L 514.073744 330.111011 
L 515.500948 330.431329 
L 516.928153 330.053844 
L 518.355357 330.526109 
L 519.782562 330.497001 
L 521.209766 331.095762 
L 524.064175 331.035484 
L 525.491379 330.107424 
L 526.918583 330.399826 
L 528.345788 330.488027 
L 529.772992 329.295209 
L 531.200197 329.021147 
L 532.627401 329.5112 
L 534.054605 328.114131 
L 536.909014 328.804616 
L 538.336218 329.790992 
L 539.763423 330.190127 
L 541.190627 329.82197 
L 542.617832 330.227167 
L 544.045036 330.753986 
L 545.47224 330.69551 
L 546.899445 331.057667 
L 548.326649 329.551615 
L 549.753853 329.685015 
L 551.181058 329.452035 
L 552.608262 330.258087 
L 554.035467 330.324566 
L 555.462671 330.684926 
L 556.889875 331.197335 
L 558.31708 331.912986 
L 562.598693 331.885747 
L 564.025897 331.868036 
L 565.453102 332.166172 
L 566.880306 332.003806 
L 568.30751 332.337237 
L 569.734715 333.230498 
L 571.161919 333.414156 
L 572.589123 333.324091 
L 576.870737 332.266113 
L 578.297941 332.47201 
L 579.725145 332.805691 
L 581.15235 333.298127 
L 582.579554 333.609353 
L 585.433963 333.848188 
L 586.861167 333.258846 
L 588.288371 333.479845 
L 589.715576 333.134282 
L 591.14278 333.443413 
L 592.569985 333.454518 
L 593.997189 334.389427 
L 595.424393 334.686348 
L 596.851598 334.255036 
L 598.278802 333.706162 
L 602.560415 335.091263 
L 605.414824 334.923864 
L 606.842028 335.321836 
L 608.269233 335.529055 
L 609.696437 335.085692 
L 611.123641 334.449062 
L 612.550846 333.61696 
L 613.97805 333.608183 
L 615.405255 333.269671 
L 616.832459 332.772851 
L 618.259663 332.935727 
L 619.686868 332.396968 
L 621.114072 332.494366 
L 622.541276 332.175927 
L 623.968481 332.644168 
L 625.395685 332.620539 
L 626.82289 332.251784 
L 628.250094 332.361824 
L 629.677298 331.905804 
L 631.104503 331.635636 
L 632.531707 331.865787 
L 633.958911 332.63415 
L 635.386116 332.549685 
L 636.81332 333.3286 
L 638.240525 333.760351 
L 639.667729 333.007793 
L 641.094933 333.578073 
L 642.522138 334.547736 
L 643.949342 334.315808 
L 645.376546 334.321228 
L 646.803751 334.484929 
L 648.230955 334.949364 
L 652.512568 334.667644 
L 652.512568 334.667644 
" clip-path="url(#pdf2608ac95)" style="fill: none; stroke: #9b8ac9; stroke-width: 1.2; stroke-linecap: square"/>
   </g>
   <g id="patch_3">
    <path d="M 56.0125 349.8636 
L 56.0125 34.5036 
" style="fill: none; stroke: #000000; stroke-width: 0.8; stroke-linejoin: miter; stroke-linecap: square"/>
   </g>
   <g id="patch_4">
    <path d="M 682.4125 349.8636 
L 682.4125 34.5036 
" style="fill: none; stroke: #000000; stroke-width: 0.8; stroke-linejoin: miter; stroke-linecap: square"/>
   </g>
   <g id="patch_5">
    <path d="M 56.0125 349.8636 
L 682.4125 349.8636 
" style="fill: none; stroke: #000000; stroke-width: 0.8; stroke-linejoin: miter; stroke-linecap: square"/>
   </g>
   <g id="patch_6">
    <path d="M 56.0125 34.5036 
L 682.4125 34.5036 
" style="fill: none; stroke: #000000; stroke-width: 0.8; stroke-linejoin: miter; stroke-linecap: square"/>
   </g>
   <g id="legend_1">
    <g id="patch_7">
     <path d="M 56.0125 31.35 
L 682.4125 31.35 
L 682.4125 7.2 
L 56.0125 7.2 
z
" style="fill: #ffffff; stroke: #808080; stroke-width: 0.8; stroke-linejoin: miter"/>
    </g>
    <g id="line2d_37">
     <path d="M 62.3125 18.4 
L 76.3125 18.4 
L 90.3125 18.4 
" style="fill: none; stroke: #1f77b4; stroke-width: 1.2; stroke-linecap: square"/>
    </g>
    <g id="text_19">
     <!-- GCN-DDQN -->
     <g transform="translate(98.7125 23.3) scale(0.14 -0.14)">
      <defs>
       <path id="SimHei-47" d="M 2850 75 
L 2425 75 
L 2350 425 
Q 2250 275 2037 175 
Q 1825 75 1575 75 
Q 1050 75 637 562 
Q 225 1050 225 2125 
Q 225 3300 600 3875 
Q 975 4450 1625 4450 
Q 2200 4450 2525 4025 
Q 2850 3600 2850 2925 
L 2300 2925 
Q 2300 3450 2125 3712 
Q 1950 3975 1625 3975 
Q 1225 3975 1025 3562 
Q 825 3150 825 2175 
Q 825 1250 1075 900 
Q 1325 550 1650 550 
Q 1975 550 2162 787 
Q 2350 1025 2350 1525 
L 2350 1800 
L 1575 1800 
L 1575 2275 
L 2850 2275 
L 2850 75 
z
" transform="scale(0.015625)"/>
       <path id="SimHei-43" d="M 2975 1825 
Q 2950 875 2575 475 
Q 2200 75 1675 75 
Q 1075 75 650 562 
Q 225 1050 225 2125 
Q 225 3300 637 3875 
Q 1050 4450 1700 4450 
Q 2250 4450 2612 4037 
Q 2975 3625 2950 2875 
L 2400 2875 
Q 2400 3425 2225 3700 
Q 2050 3975 1700 3975 
Q 1300 3975 1062 3562 
Q 825 3150 825 2175 
Q 825 1275 1062 912 
Q 1300 550 1675 550 
Q 1950 550 2175 812 
Q 2400 1075 2400 1825 
L 2975 1825 
z
" transform="scale(0.015625)"/>
       <path id="SimHei-4e" d="M 2850 125 
L 2225 125 
L 850 3225 
L 825 3225 
L 825 125 
L 250 125 
L 250 4400 
L 875 4400 
L 2250 1300 
L 2275 1300 
L 2275 4400 
L 2850 4400 
L 2850 125 
z
" transform="scale(0.015625)"/>
       <path id="SimHei-2d" d="M 2975 2125 
L 125 2125 
L 125 2525 
L 2975 2525 
L 2975 2125 
z
" transform="scale(0.015625)"/>
       <path id="SimHei-44" d="M 2925 2250 
Q 2925 1100 2437 612 
Q 1950 125 1125 125 
L 275 125 
L 275 4400 
L 1125 4400 
Q 2050 4400 2487 3900 
Q 2925 3400 2925 2250 
z
M 2325 2250 
Q 2325 3175 2025 3550 
Q 1725 3925 1125 3925 
L 850 3925 
L 850 600 
L 1125 600 
Q 1725 600 2025 962 
Q 2325 1325 2325 2250 
z
" transform="scale(0.015625)"/>
       <path id="SimHei-51" d="M 2950 2275 
Q 2950 1675 2862 1262 
Q 2775 850 2575 600 
L 2775 225 
L 2375 -200 
L 2150 225 
Q 2050 150 1900 112 
Q 1750 75 1575 75 
Q 925 75 550 587 
Q 175 1100 175 2275 
Q 175 3450 550 3950 
Q 925 4450 1575 4450 
Q 2225 4450 2587 3950 
Q 2950 3450 2950 2275 
z
M 2350 2275 
Q 2350 3325 2125 3650 
Q 1900 3975 1575 3975 
Q 1250 3975 1012 3650 
Q 775 3325 775 2275 
Q 775 1225 1012 887 
Q 1250 550 1575 550 
Q 1700 550 1800 587 
Q 1900 625 1950 675 
L 1550 1450 
L 1900 1875 
L 2250 1200 
Q 2300 1450 2325 1650 
Q 2350 1850 2350 2275 
z
" transform="scale(0.015625)"/>
      </defs>
      <use xlink:href="#SimHei-47"/>
      <use xlink:href="#SimHei-43" transform="translate(50 0)"/>
      <use xlink:href="#SimHei-4e" transform="translate(100 0)"/>
      <use xlink:href="#SimHei-2d" transform="translate(150 0)"/>
      <use xlink:href="#SimHei-44" transform="translate(200 0)"/>
      <use xlink:href="#SimHei-44" transform="translate(250 0)"/>
      <use xlink:href="#SimHei-51" transform="translate(300 0)"/>
      <use xlink:href="#SimHei-4e" transform="translate(350 0)"/>
     </g>
    </g>
    <g id="line2d_38">
     <path d="M 229.1125 18.4 
L 243.1125 18.4 
L 257.1125 18.4 
" style="fill: none; stroke: #ff7f0e; stroke-width: 1.2; stroke-linecap: square"/>
    </g>
    <g id="text_20">
     <!-- GCN-D3QN -->
     <g transform="translate(265.5125 23.3) scale(0.14 -0.14)">
      <use xlink:href="#SimHei-47"/>
      <use xlink:href="#SimHei-43" transform="translate(50 0)"/>
      <use xlink:href="#SimHei-4e" transform="translate(100 0)"/>
      <use xlink:href="#SimHei-2d" transform="translate(150 0)"/>
      <use xlink:href="#SimHei-44" transform="translate(200 0)"/>
      <use xlink:href="#SimHei-33" transform="translate(250 0)"/>
      <use xlink:href="#SimHei-51" transform="translate(300 0)"/>
      <use xlink:href="#SimHei-4e" transform="translate(350 0)"/>
     </g>
    </g>
    <g id="line2d_39">
     <path d="M 395.9125 18.4 
L 409.9125 18.4 
L 423.9125 18.4 
" style="fill: none; stroke: #2ca02c; stroke-width: 1.2; stroke-linecap: square"/>
    </g>
    <g id="text_21">
     <!-- GAT-LSTM-DDQN -->
     <g transform="translate(432.3125 23.3) scale(0.14 -0.14)">
      <defs>
       <path id="SimHei-41" d="M 3075 125 
L 2475 125 
L 2125 1450 
L 1025 1450 
L 675 125 
L 75 125 
L 1325 4450 
L 1825 4450 
L 3075 125 
z
M 2000 1925 
L 1600 3450 
L 1550 3450 
L 1150 1925 
L 2000 1925 
z
" transform="scale(0.015625)"/>
       <path id="SimHei-53" d="M 2900 1325 
Q 2900 750 2537 412 
Q 2175 75 1550 75 
Q 925 75 575 425 
Q 225 775 225 1300 
L 225 1475 
L 800 1475 
L 800 1325 
Q 800 950 1025 750 
Q 1250 550 1550 550 
Q 1950 550 2137 762 
Q 2325 975 2325 1275 
Q 2325 1525 2100 1737 
Q 1875 1950 1450 2125 
Q 850 2350 587 2625 
Q 325 2900 325 3275 
Q 325 3800 687 4125 
Q 1050 4450 1550 4450 
Q 2200 4450 2487 4062 
Q 2775 3675 2775 3225 
L 2200 3225 
Q 2225 3500 2050 3725 
Q 1875 3950 1550 3950 
Q 1250 3950 1075 3787 
Q 900 3625 900 3350 
Q 900 3125 1037 2962 
Q 1175 2800 1750 2575 
Q 2300 2350 2600 2037 
Q 2900 1725 2900 1325 
z
" transform="scale(0.015625)"/>
       <path id="SimHei-4d" d="M 2925 125 
L 2425 125 
L 2425 3175 
L 2375 3175 
L 1775 125 
L 1375 125 
L 775 3175 
L 725 3175 
L 725 125 
L 225 125 
L 225 4400 
L 1000 4400 
L 1550 1575 
L 1600 1575 
L 2150 4400 
L 2925 4400 
L 2925 125 
z
" transform="scale(0.015625)"/>
      </defs>
      <use xlink:href="#SimHei-47"/>
      <use xlink:href="#SimHei-41" transform="translate(50 0)"/>
      <use xlink:href="#SimHei-54" transform="translate(100 0)"/>
      <use xlink:href="#SimHei-2d" transform="translate(150 0)"/>
      <use xlink:href="#SimHei-4c" transform="translate(200 0)"/>
      <use xlink:href="#SimHei-53" transform="translate(250 0)"/>
      <use xlink:href="#SimHei-54" transform="translate(300 0)"/>
      <use xlink:href="#SimHei-4d" transform="translate(350 0)"/>
      <use xlink:href="#SimHei-2d" transform="translate(400 0)"/>
      <use xlink:href="#SimHei-44" transform="translate(450 0)"/>
      <use xlink:href="#SimHei-44" transform="translate(500 0)"/>
      <use xlink:href="#SimHei-51" transform="translate(550 0)"/>
      <use xlink:href="#SimHei-4e" transform="translate(600 0)"/>
     </g>
    </g>
    <g id="line2d_40">
     <path d="M 597.7125 18.4 
L 611.7125 18.4 
L 625.7125 18.4 
" style="fill: none; stroke: #9b8ac9; stroke-width: 1.2; stroke-linecap: square"/>
    </g>
    <g id="text_22">
     <!-- GLDVTO -->
     <g transform="translate(634.1125 23.3) scale(0.14 -0.14)">
      <defs>
       <path id="SimHei-56" d="M 3050 4400 
L 1800 75 
L 1300 75 
L 50 4400 
L 650 4400 
L 1525 1125 
L 1575 1125 
L 2450 4400 
L 3050 4400 
z
" transform="scale(0.015625)"/>
       <path id="SimHei-4f" d="M 2950 2275 
Q 2950 1100 2587 587 
Q 2225 75 1575 75 
Q 925 75 550 587 
Q 175 1100 175 2275 
Q 175 3450 550 3950 
Q 925 4450 1575 4450 
Q 2225 4450 2587 3950 
Q 2950 3450 2950 2275 
z
M 2350 2275 
Q 2350 3325 2125 3650 
Q 1900 3975 1575 3975 
Q 1250 3975 1012 3650 
Q 775 3325 775 2275 
Q 775 1225 1012 887 
Q 1250 550 1575 550 
Q 1900 550 2125 887 
Q 2350 1225 2350 2275 
z
" transform="scale(0.015625)"/>
      </defs>
      <use xlink:href="#SimHei-47"/>
      <use xlink:href="#SimHei-4c" transform="translate(50 0)"/>
      <use xlink:href="#SimHei-44" transform="translate(100 0)"/>
      <use xlink:href="#SimHei-56" transform="translate(150 0)"/>
      <use xlink:href="#SimHei-54" transform="translate(200 0)"/>
      <use xlink:href="#SimHei-4f" transform="translate(250 0)"/>
     </g>
    </g>
   </g>
  </g>
 </g>
 <defs>
  <clipPath id="pdf2608ac95">
   <rect x="56.0125" y="34.5036" width="626.4" height="315.36"/>
  </clipPath>
 </defs>
</svg>
