<?xml version="1.0" encoding="utf-8" standalone="no"?>
<!DOCTYPE svg PUBLIC "-//W3C//DTD SVG 1.1//EN"
  "http://www.w3.org/Graphics/SVG/1.1/DTD/svg11.dtd">
<svg xmlns:xlink="http://www.w3.org/1999/xlink" width="683.6125pt" height="391.6261pt" viewBox="0 0 683.6125 391.6261" xmlns="http://www.w3.org/2000/svg" version="1.1">
 <metadata>
  <rdf:RDF xmlns:dc="http://purl.org/dc/elements/1.1/" xmlns:cc="http://creativecommons.org/ns#" xmlns:rdf="http://www.w3.org/1999/02/22-rdf-syntax-ns#">
   <cc:Work>
    <dc:type rdf:resource="http://purl.org/dc/dcmitype/StillImage"/>
    <dc:date>2026-07-13T21:35:51.443754</dc:date>
    <dc:format>image/svg+xml</dc:format>
    <dc:creator>
     <cc:Agent>
      <dc:title>Matplotlib v3.10.7, https://matplotlib.org/</dc:title>
     </cc:Agent>
    </dc:creator>
   </cc:Work>
  </rdf:RDF>
 </metadata>
 <defs>
  <style type="text/css">*{stroke-linejoin: round; stroke-linecap: butt}</style>
 </defs>
 <g id="figure_1">
  <g id="patch_1">
   <path d="M 0 391.6261 
L 683.6125 391.6261 
L 683.6125 0 
L 0 0 
z
" style="fill: #ffffff"/>
  </g>
  <g id="axes_1">
   <g id="patch_2">
    <path d="M 50.0125 349.8636 
L 676.4125 349.8636 
L 676.4125 34.5036 
L 50.0125 34.5036 
z
" style="fill: #ffffff"/>
   </g>
   <g id="matplotlib.axis_1">
    <g id="xtick_1">
     <g id="line2d_1">
      <path d="M 78.485227 349.8636 
L 78.485227 34.5036 
" clip-path="url(#pffb4372507)" style="fill: none; stroke-dasharray: 2.22,0.96; stroke-dashoffset: 0; stroke: #b0b0b0; stroke-opacity: 0.25; stroke-width: 0.6"/>
     </g>
     <g id="line2d_2">
      <defs>
       <path id="m24d575bb04" d="M 0 0 
L 0 3.5 
" style="stroke: #000000; stroke-width: 0.8"/>
      </defs>
      <g>
       <use xlink:href="#m24d575bb04" x="78.485227" y="349.8636" style="stroke: #000000; stroke-width: 0.8"/>
      </g>
     </g>
     <g id="text_1">
      <!-- 0 -->
      <g transform="translate(75.485227 365.1136) scale(0.12 -0.12)">
       <defs>
        <path id="SimHei-30" d="M 225 2537 
Q 250 3200 412 3587 
Q 575 3975 875 4225 
Q 1175 4475 1612 4475 
Q 2050 4475 2375 4112 
Q 2700 3750 2800 3200 
Q 2900 2650 2862 1937 
Q 2825 1225 2612 775 
Q 2400 325 1975 150 
Q 1550 -25 1125 187 
Q 700 400 525 750 
Q 350 1100 275 1487 
Q 200 1875 225 2537 
z
M 750 2687 
Q 675 2000 800 1462 
Q 925 925 1212 700 
Q 1500 475 1800 612 
Q 2100 750 2237 1162 
Q 2375 1575 2375 2062 
Q 2375 2550 2337 2950 
Q 2300 3350 2112 3675 
Q 1925 4000 1612 4012 
Q 1300 4025 1062 3700 
Q 825 3375 750 2687 
z
" transform="scale(0.015625)"/>
       </defs>
       <use xlink:href="#SimHei-30"/>
      </g>
     </g>
    </g>
    <g id="xtick_2">
     <g id="line2d_3">
      <path d="M 149.845446 349.8636 
L 149.845446 34.5036 
" clip-path="url(#pffb4372507)" style="fill: none; stroke-dasharray: 2.22,0.96; stroke-dashoffset: 0; stroke: #b0b0b0; stroke-opacity: 0.25; stroke-width: 0.6"/>
     </g>
     <g id="line2d_4">
      <g>
       <use xlink:href="#m24d575bb04" x="149.845446" y="349.8636" style="stroke: #000000; stroke-width: 0.8"/>
      </g>
     </g>
     <g id="text_2">
      <!-- 50 -->
      <g transform="translate(143.845446 365.1136) scale(0.12 -0.12)">
       <defs>
        <path id="SimHei-35" d="M 550 1325 
Q 725 650 1150 575 
Q 1575 500 1837 662 
Q 2100 825 2212 1087 
Q 2325 1350 2312 1675 
Q 2300 2000 2137 2225 
Q 1975 2450 1725 2525 
Q 1475 2600 1162 2525 
Q 850 2450 650 2175 
L 225 2225 
Q 275 2375 700 4375 
L 2675 4375 
L 2675 3925 
L 1075 3925 
Q 950 3250 825 2850 
Q 1200 3025 1525 3012 
Q 1850 3000 2150 2862 
Q 2450 2725 2587 2487 
Q 2725 2250 2787 2012 
Q 2850 1775 2837 1500 
Q 2825 1225 2725 937 
Q 2625 650 2425 462 
Q 2225 275 1937 162 
Q 1650 50 1275 75 
Q 900 100 562 350 
Q 225 600 100 1200 
L 550 1325 
z
" transform="scale(0.015625)"/>
       </defs>
       <use xlink:href="#SimHei-35"/>
       <use xlink:href="#SimHei-30" transform="translate(50 0)"/>
      </g>
     </g>
    </g>
    <g id="xtick_3">
     <g id="line2d_5">
      <path d="M 221.205665 349.8636 
L 221.205665 34.5036 
" clip-path="url(#pffb4372507)" style="fill: none; stroke-dasharray: 2.22,0.96; stroke-dashoffset: 0; stroke: #b0b0b0; stroke-opacity: 0.25; stroke-width: 0.6"/>
     </g>
     <g id="line2d_6">
      <g>
       <use xlink:href="#m24d575bb04" x="221.205665" y="349.8636" style="stroke: #000000; stroke-width: 0.8"/>
      </g>
     </g>
     <g id="text_3">
      <!-- 100 -->
      <g transform="translate(212.205665 365.1136) scale(0.12 -0.12)">
       <defs>
        <path id="SimHei-31" d="M 1400 3600 
Q 1075 3275 575 2975 
L 575 3450 
Q 1200 3875 1600 4450 
L 1900 4450 
L 1900 150 
L 1400 150 
L 1400 3600 
z
" transform="scale(0.015625)"/>
       </defs>
       <use xlink:href="#SimHei-31"/>
       <use xlink:href="#SimHei-30" transform="translate(50 0)"/>
       <use xlink:href="#SimHei-30" transform="translate(100 0)"/>
      </g>
     </g>
    </g>
    <g id="xtick_4">
     <g id="line2d_7">
      <path d="M 292.565883 349.8636 
L 292.565883 34.5036 
" clip-path="url(#pffb4372507)" style="fill: none; stroke-dasharray: 2.22,0.96; stroke-dashoffset: 0; stroke: #b0b0b0; stroke-opacity: 0.25; stroke-width: 0.6"/>
     </g>
     <g id="line2d_8">
      <g>
       <use xlink:href="#m24d575bb04" x="292.565883" y="349.8636" style="stroke: #000000; stroke-width: 0.8"/>
      </g>
     </g>
     <g id="text_4">
      <!-- 150 -->
      <g transform="translate(283.565883 365.1136) scale(0.12 -0.12)">
       <use xlink:href="#SimHei-31"/>
       <use xlink:href="#SimHei-35" transform="translate(50 0)"/>
       <use xlink:href="#SimHei-30" transform="translate(100 0)"/>
      </g>
     </g>
    </g>
    <g id="xtick_5">
     <g id="line2d_9">
      <path d="M 363.926102 349.8636 
L 363.926102 34.5036 
" clip-path="url(#pffb4372507)" style="fill: none; stroke-dasharray: 2.22,0.96; stroke-dashoffset: 0; stroke: #b0b0b0; stroke-opacity: 0.25; stroke-width: 0.6"/>
     </g>
     <g id="line2d_10">
      <g>
       <use xlink:href="#m24d575bb04" x="363.926102" y="349.8636" style="stroke: #000000; stroke-width: 0.8"/>
      </g>
     </g>
     <g id="text_5">
      <!-- 200 -->
      <g transform="translate(354.926102 365.1136) scale(0.12 -0.12)">
       <defs>
        <path id="SimHei-32" d="M 300 250 
Q 325 625 650 925 
Q 975 1225 1475 1862 
Q 1975 2500 2125 2850 
Q 2275 3200 2237 3450 
Q 2200 3700 2000 3862 
Q 1800 4025 1537 4000 
Q 1275 3975 1037 3800 
Q 800 3625 675 3275 
L 200 3350 
Q 400 3925 712 4187 
Q 1025 4450 1450 4475 
Q 1700 4500 1900 4462 
Q 2100 4425 2312 4287 
Q 2525 4150 2662 3875 
Q 2800 3600 2762 3212 
Q 2725 2825 2375 2287 
Q 2025 1750 1025 600 
L 2825 600 
L 2825 150 
L 300 150 
L 300 250 
z
" transform="scale(0.015625)"/>
       </defs>
       <use xlink:href="#SimHei-32"/>
       <use xlink:href="#SimHei-30" transform="translate(50 0)"/>
       <use xlink:href="#SimHei-30" transform="translate(100 0)"/>
      </g>
     </g>
    </g>
    <g id="xtick_6">
     <g id="line2d_11">
      <path d="M 435.286321 349.8636 
L 435.286321 34.5036 
" clip-path="url(#pffb4372507)" style="fill: none; stroke-dasharray: 2.22,0.96; stroke-dashoffset: 0; stroke: #b0b0b0; stroke-opacity: 0.25; stroke-width: 0.6"/>
     </g>
     <g id="line2d_12">
      <g>
       <use xlink:href="#m24d575bb04" x="435.286321" y="349.8636" style="stroke: #000000; stroke-width: 0.8"/>
      </g>
     </g>
     <g id="text_6">
      <!-- 250 -->
      <g transform="translate(426.286321 365.1136) scale(0.12 -0.12)">
       <use xlink:href="#SimHei-32"/>
       <use xlink:href="#SimHei-35" transform="translate(50 0)"/>
       <use xlink:href="#SimHei-30" transform="translate(100 0)"/>
      </g>
     </g>
    </g>
    <g id="xtick_7">
     <g id="line2d_13">
      <path d="M 506.64654 349.8636 
L 506.64654 34.5036 
" clip-path="url(#pffb4372507)" style="fill: none; stroke-dasharray: 2.22,0.96; stroke-dashoffset: 0; stroke: #b0b0b0; stroke-opacity: 0.25; stroke-width: 0.6"/>
     </g>
     <g id="line2d_14">
      <g>
       <use xlink:href="#m24d575bb04" x="506.64654" y="349.8636" style="stroke: #000000; stroke-width: 0.8"/>
      </g>
     </g>
     <g id="text_7">
      <!-- 300 -->
      <g transform="translate(497.64654 365.1136) scale(0.12 -0.12)">
       <defs>
        <path id="SimHei-33" d="M 250 1225 
L 700 1300 
Q 800 975 1025 762 
Q 1250 550 1587 562 
Q 1925 575 2125 837 
Q 2325 1100 2300 1437 
Q 2275 1775 2037 1962 
Q 1800 2150 1275 2225 
L 1275 2550 
Q 1800 2600 2037 2825 
Q 2275 3050 2250 3412 
Q 2225 3775 1925 3937 
Q 1625 4100 1287 3975 
Q 950 3850 750 3275 
L 300 3350 
Q 450 3800 712 4100 
Q 975 4400 1425 4450 
Q 1875 4500 2212 4337 
Q 2550 4175 2687 3837 
Q 2825 3500 2725 3100 
Q 2625 2700 2150 2400 
Q 2500 2250 2687 1950 
Q 2875 1650 2812 1162 
Q 2750 675 2375 375 
Q 2000 75 1525 87 
Q 1050 100 700 387 
Q 350 675 250 1225 
z
" transform="scale(0.015625)"/>
       </defs>
       <use xlink:href="#SimHei-33"/>
       <use xlink:href="#SimHei-30" transform="translate(50 0)"/>
       <use xlink:href="#SimHei-30" transform="translate(100 0)"/>
      </g>
     </g>
    </g>
    <g id="xtick_8">
     <g id="line2d_15">
      <path d="M 578.006758 349.8636 
L 578.006758 34.5036 
" clip-path="url(#pffb4372507)" style="fill: none; stroke-dasharray: 2.22,0.96; stroke-dashoffset: 0; stroke: #b0b0b0; stroke-opacity: 0.25; stroke-width: 0.6"/>
     </g>
     <g id="line2d_16">
      <g>
       <use xlink:href="#m24d575bb04" x="578.006758" y="349.8636" style="stroke: #000000; stroke-width: 0.8"/>
      </g>
     </g>
     <g id="text_8">
      <!-- 350 -->
      <g transform="translate(569.006758 365.1136) scale(0.12 -0.12)">
       <use xlink:href="#SimHei-33"/>
       <use xlink:href="#SimHei-35" transform="translate(50 0)"/>
       <use xlink:href="#SimHei-30" transform="translate(100 0)"/>
      </g>
     </g>
    </g>
    <g id="xtick_9">
     <g id="line2d_17">
      <path d="M 649.366977 349.8636 
L 649.366977 34.5036 
" clip-path="url(#pffb4372507)" style="fill: none; stroke-dasharray: 2.22,0.96; stroke-dashoffset: 0; stroke: #b0b0b0; stroke-opacity: 0.25; stroke-width: 0.6"/>
     </g>
     <g id="line2d_18">
      <g>
       <use xlink:href="#m24d575bb04" x="649.366977" y="349.8636" style="stroke: #000000; stroke-width: 0.8"/>
      </g>
     </g>
     <g id="text_9">
      <!-- 400 -->
      <g transform="translate(640.366977 365.1136) scale(0.12 -0.12)">
       <defs>
        <path id="SimHei-34" d="M 2000 1100 
L 75 1100 
L 75 1525 
L 2100 4450 
L 2475 4450 
L 2475 1525 
L 3075 1525 
L 3075 1100 
L 2475 1100 
L 2475 150 
L 2000 150 
L 2000 1100 
z
M 2000 1525 
L 2000 3500 
L 600 1525 
L 2000 1525 
z
" transform="scale(0.015625)"/>
       </defs>
       <use xlink:href="#SimHei-34"/>
       <use xlink:href="#SimHei-30" transform="translate(50 0)"/>
       <use xlink:href="#SimHei-30" transform="translate(100 0)"/>
      </g>
     </g>
    </g>
    <g id="text_10">
     <!-- Episode -->
     <g transform="translate(333.4625 382.3011) scale(0.17 -0.17)">
      <defs>
       <path id="SimHei-45" d="M 2900 125 
L 350 125 
L 350 4400 
L 2775 4400 
L 2775 3925 
L 925 3925 
L 925 2600 
L 2625 2600 
L 2625 2125 
L 925 2125 
L 925 600 
L 2900 600 
L 2900 125 
z
" transform="scale(0.015625)"/>
       <path id="SimHei-70" d="M 2825 1525 
Q 2825 800 2475 425 
Q 2125 50 1625 50 
Q 1350 50 1150 162 
Q 950 275 800 500 
L 800 -800 
L 300 -800 
L 300 2925 
L 800 2925 
L 800 2550 
Q 950 2775 1150 2875 
Q 1350 2975 1625 2975 
Q 2125 2975 2475 2612 
Q 2825 2250 2825 1525 
z
M 2275 1525 
Q 2275 2000 2087 2262 
Q 1900 2525 1525 2525 
Q 1225 2525 1012 2262 
Q 800 2000 800 1525 
Q 800 1050 1012 775 
Q 1225 500 1525 500 
Q 1900 500 2087 775 
Q 2275 1050 2275 1525 
z
" transform="scale(0.015625)"/>
       <path id="SimHei-69" d="M 1800 3725 
L 1300 3725 
L 1300 4375 
L 1800 4375 
L 1800 3725 
z
M 1800 125 
L 1300 125 
L 1300 2925 
L 1800 2925 
L 1800 125 
z
" transform="scale(0.015625)"/>
       <path id="SimHei-73" d="M 2750 900 
Q 2750 500 2437 287 
Q 2125 75 1650 75 
Q 1050 75 725 312 
Q 400 550 400 1000 
L 900 1000 
Q 900 700 1112 600 
Q 1325 500 1625 500 
Q 1925 500 2075 612 
Q 2225 725 2225 900 
Q 2225 1025 2100 1150 
Q 1975 1275 1475 1350 
Q 900 1425 687 1637 
Q 475 1850 475 2200 
Q 475 2500 762 2737 
Q 1050 2975 1600 2975 
Q 2100 2975 2387 2750 
Q 2675 2525 2675 2150 
L 2175 2150 
Q 2175 2375 2012 2462 
Q 1850 2550 1600 2550 
Q 1275 2550 1137 2437 
Q 1000 2325 1000 2175 
Q 1000 2000 1125 1900 
Q 1250 1800 1650 1750 
Q 2300 1650 2525 1437 
Q 2750 1225 2750 900 
z
" transform="scale(0.015625)"/>
       <path id="SimHei-6f" d="M 2925 1525 
Q 2925 875 2525 475 
Q 2125 75 1575 75 
Q 1025 75 625 475 
Q 225 875 225 1525 
Q 225 2175 625 2575 
Q 1025 2975 1575 2975 
Q 2125 2975 2525 2575 
Q 2925 2175 2925 1525 
z
M 2375 1525 
Q 2375 2025 2125 2275 
Q 1875 2525 1575 2525 
Q 1275 2525 1025 2275 
Q 775 2025 775 1525 
Q 775 1025 1025 775 
Q 1275 525 1575 525 
Q 1875 525 2125 775 
Q 2375 1025 2375 1525 
z
" transform="scale(0.015625)"/>
       <path id="SimHei-64" d="M 2750 125 
L 2250 125 
L 2250 500 
Q 2100 275 1900 175 
Q 1700 75 1425 75 
Q 925 75 575 437 
Q 225 800 225 1525 
Q 225 2250 575 2625 
Q 925 3000 1425 3000 
Q 1700 3000 1900 2887 
Q 2100 2775 2250 2550 
L 2250 4400 
L 2750 4400 
L 2750 125 
z
M 2250 1525 
Q 2250 2000 2037 2275 
Q 1825 2550 1525 2550 
Q 1150 2550 962 2275 
Q 775 2000 775 1525 
Q 775 1050 962 787 
Q 1150 525 1525 525 
Q 1825 525 2037 787 
Q 2250 1050 2250 1525 
z
" transform="scale(0.015625)"/>
       <path id="SimHei-65" d="M 2850 1075 
Q 2800 625 2450 350 
Q 2100 75 1625 75 
Q 1025 75 637 462 
Q 250 850 250 1525 
Q 250 2200 637 2587 
Q 1025 2975 1625 2975 
Q 2150 2975 2487 2637 
Q 2825 2300 2825 1525 
L 800 1525 
Q 800 975 1037 750 
Q 1275 525 1625 525 
Q 1900 525 2075 662 
Q 2250 800 2300 1075 
L 2850 1075 
z
M 2250 1925 
Q 2200 2275 2025 2412 
Q 1850 2550 1575 2550 
Q 1325 2550 1125 2412 
Q 925 2275 825 1925 
L 2250 1925 
z
" transform="scale(0.015625)"/>
      </defs>
      <use xlink:href="#SimHei-45"/>
      <use xlink:href="#SimHei-70" transform="translate(50 0)"/>
      <use xlink:href="#SimHei-69" transform="translate(100 0)"/>
      <use xlink:href="#SimHei-73" transform="translate(150 0)"/>
      <use xlink:href="#SimHei-6f" transform="translate(200 0)"/>
      <use xlink:href="#SimHei-64" transform="translate(250 0)"/>
      <use xlink:href="#SimHei-65" transform="translate(300 0)"/>
     </g>
    </g>
   </g>
   <g id="matplotlib.axis_2">
    <g id="ytick_1">
     <g id="line2d_19">
      <path d="M 50.0125 314.819281 
L 676.4125 314.819281 
" clip-path="url(#pffb4372507)" style="fill: none; stroke-dasharray: 2.22,0.96; stroke-dashoffset: 0; stroke: #b0b0b0; stroke-opacity: 0.25; stroke-width: 0.6"/>
     </g>
     <g id="line2d_20">
      <defs>
       <path id="m45dcbde6e7" d="M 0 0 
L -3.5 0 
" style="stroke: #000000; stroke-width: 0.8"/>
      </defs>
      <g>
       <use xlink:href="#m45dcbde6e7" x="50.0125" y="314.819281" style="stroke: #000000; stroke-width: 0.8"/>
      </g>
     </g>
     <g id="text_11">
      <!-- 1.0 -->
      <g transform="translate(25.0125 318.944281) scale(0.12 -0.12)">
       <defs>
        <path id="SimHei-2e" d="M 1075 125 
L 500 125 
L 500 675 
L 1075 675 
L 1075 125 
z
" transform="scale(0.015625)"/>
       </defs>
       <use xlink:href="#SimHei-31"/>
       <use xlink:href="#SimHei-2e" transform="translate(50 0)"/>
       <use xlink:href="#SimHei-30" transform="translate(100 0)"/>
      </g>
     </g>
    </g>
    <g id="ytick_2">
     <g id="line2d_21">
      <path d="M 50.0125 275.82932 
L 676.4125 275.82932 
" clip-path="url(#pffb4372507)" style="fill: none; stroke-dasharray: 2.22,0.96; stroke-dashoffset: 0; stroke: #b0b0b0; stroke-opacity: 0.25; stroke-width: 0.6"/>
     </g>
     <g id="line2d_22">
      <g>
       <use xlink:href="#m45dcbde6e7" x="50.0125" y="275.82932" style="stroke: #000000; stroke-width: 0.8"/>
      </g>
     </g>
     <g id="text_12">
      <!-- 1.5 -->
      <g transform="translate(25.0125 279.95432) scale(0.12 -0.12)">
       <use xlink:href="#SimHei-31"/>
       <use xlink:href="#SimHei-2e" transform="translate(50 0)"/>
       <use xlink:href="#SimHei-35" transform="translate(100 0)"/>
      </g>
     </g>
    </g>
    <g id="ytick_3">
     <g id="line2d_23">
      <path d="M 50.0125 236.83936 
L 676.4125 236.83936 
" clip-path="url(#pffb4372507)" style="fill: none; stroke-dasharray: 2.22,0.96; stroke-dashoffset: 0; stroke: #b0b0b0; stroke-opacity: 0.25; stroke-width: 0.6"/>
     </g>
     <g id="line2d_24">
      <g>
       <use xlink:href="#m45dcbde6e7" x="50.0125" y="236.83936" style="stroke: #000000; stroke-width: 0.8"/>
      </g>
     </g>
     <g id="text_13">
      <!-- 2.0 -->
      <g transform="translate(25.0125 240.96436) scale(0.12 -0.12)">
       <use xlink:href="#SimHei-32"/>
       <use xlink:href="#SimHei-2e" transform="translate(50 0)"/>
       <use xlink:href="#SimHei-30" transform="translate(100 0)"/>
      </g>
     </g>
    </g>
    <g id="ytick_4">
     <g id="line2d_25">
      <path d="M 50.0125 197.849399 
L 676.4125 197.849399 
" clip-path="url(#pffb4372507)" style="fill: none; stroke-dasharray: 2.22,0.96; stroke-dashoffset: 0; stroke: #b0b0b0; stroke-opacity: 0.25; stroke-width: 0.6"/>
     </g>
     <g id="line2d_26">
      <g>
       <use xlink:href="#m45dcbde6e7" x="50.0125" y="197.849399" style="stroke: #000000; stroke-width: 0.8"/>
      </g>
     </g>
     <g id="text_14">
      <!-- 2.5 -->
      <g transform="translate(25.0125 201.974399) scale(0.12 -0.12)">
       <use xlink:href="#SimHei-32"/>
       <use xlink:href="#SimHei-2e" transform="translate(50 0)"/>
       <use xlink:href="#SimHei-35" transform="translate(100 0)"/>
      </g>
     </g>
    </g>
    <g id="ytick_5">
     <g id="line2d_27">
      <path d="M 50.0125 158.859439 
L 676.4125 158.859439 
" clip-path="url(#pffb4372507)" style="fill: none; stroke-dasharray: 2.22,0.96; stroke-dashoffset: 0; stroke: #b0b0b0; stroke-opacity: 0.25; stroke-width: 0.6"/>
     </g>
     <g id="line2d_28">
      <g>
       <use xlink:href="#m45dcbde6e7" x="50.0125" y="158.859439" style="stroke: #000000; stroke-width: 0.8"/>
      </g>
     </g>
     <g id="text_15">
      <!-- 3.0 -->
      <g transform="translate(25.0125 162.984439) scale(0.12 -0.12)">
       <use xlink:href="#SimHei-33"/>
       <use xlink:href="#SimHei-2e" transform="translate(50 0)"/>
       <use xlink:href="#SimHei-30" transform="translate(100 0)"/>
      </g>
     </g>
    </g>
    <g id="ytick_6">
     <g id="line2d_29">
      <path d="M 50.0125 119.869478 
L 676.4125 119.869478 
" clip-path="url(#pffb4372507)" style="fill: none; stroke-dasharray: 2.22,0.96; stroke-dashoffset: 0; stroke: #b0b0b0; stroke-opacity: 0.25; stroke-width: 0.6"/>
     </g>
     <g id="line2d_30">
      <g>
       <use xlink:href="#m45dcbde6e7" x="50.0125" y="119.869478" style="stroke: #000000; stroke-width: 0.8"/>
      </g>
     </g>
     <g id="text_16">
      <!-- 3.5 -->
      <g transform="translate(25.0125 123.994478) scale(0.12 -0.12)">
       <use xlink:href="#SimHei-33"/>
       <use xlink:href="#SimHei-2e" transform="translate(50 0)"/>
       <use xlink:href="#SimHei-35" transform="translate(100 0)"/>
      </g>
     </g>
    </g>
    <g id="ytick_7">
     <g id="line2d_31">
      <path d="M 50.0125 80.879518 
L 676.4125 80.879518 
" clip-path="url(#pffb4372507)" style="fill: none; stroke-dasharray: 2.22,0.96; stroke-dashoffset: 0; stroke: #b0b0b0; stroke-opacity: 0.25; stroke-width: 0.6"/>
     </g>
     <g id="line2d_32">
      <g>
       <use xlink:href="#m45dcbde6e7" x="50.0125" y="80.879518" style="stroke: #000000; stroke-width: 0.8"/>
      </g>
     </g>
     <g id="text_17">
      <!-- 4.0 -->
      <g transform="translate(25.0125 85.004518) scale(0.12 -0.12)">
       <use xlink:href="#SimHei-34"/>
       <use xlink:href="#SimHei-2e" transform="translate(50 0)"/>
       <use xlink:href="#SimHei-30" transform="translate(100 0)"/>
      </g>
     </g>
    </g>
    <g id="ytick_8">
     <g id="line2d_33">
      <path d="M 50.0125 41.889557 
L 676.4125 41.889557 
" clip-path="url(#pffb4372507)" style="fill: none; stroke-dasharray: 2.22,0.96; stroke-dashoffset: 0; stroke: #b0b0b0; stroke-opacity: 0.25; stroke-width: 0.6"/>
     </g>
     <g id="line2d_34">
      <g>
       <use xlink:href="#m45dcbde6e7" x="50.0125" y="41.889557" style="stroke: #000000; stroke-width: 0.8"/>
      </g>
     </g>
     <g id="text_18">
      <!-- 4.5 -->
      <g transform="translate(25.0125 46.014557) scale(0.12 -0.12)">
       <use xlink:href="#SimHei-34"/>
       <use xlink:href="#SimHei-2e" transform="translate(50 0)"/>
       <use xlink:href="#SimHei-35" transform="translate(100 0)"/>
      </g>
     </g>
    </g>
    <g id="text_19">
     <!-- Total Task Energy -->
     <g transform="translate(18.8875 264.4336) rotate(-90) scale(0.17 -0.17)">
      <defs>
       <path id="SimHei-54" d="M 2850 3925 
L 1850 3925 
L 1850 125 
L 1275 125 
L 1275 3925 
L 275 3925 
L 275 4400 
L 2850 4400 
L 2850 3925 
z
" transform="scale(0.015625)"/>
       <path id="SimHei-74" d="M 2750 200 
Q 2625 150 2462 112 
Q 2300 75 2025 75 
Q 1575 75 1300 325 
Q 1025 575 1025 1025 
L 1025 2525 
L 175 2525 
L 175 2925 
L 1025 2925 
L 1025 3900 
L 1525 3900 
L 1525 2925 
L 2550 2925 
L 2550 2525 
L 1525 2525 
L 1525 1000 
Q 1525 800 1625 662 
Q 1725 525 2000 525 
Q 2275 525 2450 575 
Q 2625 625 2750 700 
L 2750 200 
z
" transform="scale(0.015625)"/>
       <path id="SimHei-61" d="M 2875 125 
L 2275 125 
Q 2225 175 2200 262 
Q 2175 350 2175 475 
Q 2000 275 1750 175 
Q 1500 75 1225 75 
Q 825 75 550 275 
Q 275 475 275 850 
Q 275 1225 525 1450 
Q 775 1675 1300 1750 
Q 1650 1800 1912 1875 
Q 2175 1950 2175 2075 
Q 2175 2225 2062 2375 
Q 1950 2525 1575 2525 
Q 1275 2525 1137 2412 
Q 1000 2300 950 2100 
L 400 2100 
Q 450 2500 762 2737 
Q 1075 2975 1575 2975 
Q 2125 2975 2400 2725 
Q 2675 2475 2675 2025 
L 2675 650 
Q 2675 500 2725 375 
Q 2775 250 2875 125 
z
M 2175 1050 
L 2175 1550 
Q 2025 1500 1887 1462 
Q 1750 1425 1425 1375 
Q 1050 1325 937 1200 
Q 825 1075 825 900 
Q 825 750 937 637 
Q 1050 525 1275 525 
Q 1500 525 1762 650 
Q 2025 775 2175 1050 
z
" transform="scale(0.015625)"/>
       <path id="SimHei-6c" d="M 1825 125 
L 1325 125 
L 1325 4400 
L 1825 4400 
L 1825 125 
z
" transform="scale(0.015625)"/>
       <path id="SimHei-20" transform="scale(0.015625)"/>
       <path id="SimHei-6b" d="M 2925 125 
L 2350 125 
L 1450 1650 
L 875 1100 
L 875 125 
L 375 125 
L 375 4400 
L 875 4400 
L 875 1675 
L 2125 2925 
L 2750 2925 
L 1775 1975 
L 2925 125 
z
" transform="scale(0.015625)"/>
       <path id="SimHei-6e" d="M 2800 125 
L 2300 125 
L 2300 1925 
Q 2300 2225 2150 2400 
Q 2000 2575 1750 2575 
Q 1425 2575 1137 2237 
Q 850 1900 850 1400 
L 850 125 
L 350 125 
L 350 2925 
L 850 2925 
L 850 2400 
Q 1050 2675 1287 2825 
Q 1525 2975 1900 2975 
Q 2350 2975 2575 2725 
Q 2800 2475 2800 2100 
L 2800 125 
z
" transform="scale(0.015625)"/>
       <path id="SimHei-72" d="M 2500 2425 
Q 2025 2500 1700 2287 
Q 1375 2075 1150 1550 
L 1150 125 
L 650 125 
L 650 2925 
L 1150 2925 
L 1150 2200 
Q 1375 2600 1712 2787 
Q 2050 2975 2500 2975 
L 2500 2425 
z
" transform="scale(0.015625)"/>
       <path id="SimHei-67" d="M 2975 2500 
Q 2800 2550 2637 2562 
Q 2475 2575 2300 2525 
Q 2375 2450 2425 2337 
Q 2475 2225 2475 2000 
Q 2475 1575 2187 1300 
Q 1900 1025 1475 1025 
Q 1375 1025 1212 1062 
Q 1050 1100 950 1150 
Q 875 1100 850 1050 
Q 825 1000 825 925 
Q 825 800 1000 737 
Q 1175 675 1625 675 
Q 2350 675 2612 475 
Q 2875 275 2875 -25 
Q 2875 -425 2487 -612 
Q 2100 -800 1575 -800 
Q 900 -800 575 -625 
Q 250 -450 250 -150 
Q 250 0 375 150 
Q 500 300 700 400 
Q 550 475 462 587 
Q 375 700 375 875 
Q 375 1025 487 1137 
Q 600 1250 750 1325 
Q 625 1450 550 1625 
Q 475 1800 475 2000 
Q 475 2425 762 2700 
Q 1050 2975 1475 2975 
Q 1700 2975 1862 2912 
Q 2025 2850 2150 2725 
Q 2350 2875 2550 2937 
Q 2750 3000 2975 2975 
L 2975 2500 
z
M 1975 2000 
Q 1975 2250 1850 2400 
Q 1725 2550 1475 2550 
Q 1225 2550 1100 2400 
Q 975 2250 975 2000 
Q 975 1750 1100 1600 
Q 1225 1450 1475 1450 
Q 1725 1450 1850 1600 
Q 1975 1750 1975 2000 
z
M 2400 -75 
Q 2400 25 2287 125 
Q 2175 225 1725 225 
Q 1625 225 1450 237 
Q 1275 250 1050 275 
Q 850 200 775 100 
Q 700 0 700 -100 
Q 700 -250 900 -350 
Q 1100 -450 1600 -450 
Q 2025 -450 2212 -337 
Q 2400 -225 2400 -75 
z
" transform="scale(0.015625)"/>
       <path id="SimHei-79" d="M 2900 2925 
L 1750 -100 
Q 1650 -450 1450 -625 
Q 1250 -800 950 -800 
Q 825 -800 712 -787 
Q 600 -775 500 -725 
L 500 -225 
Q 600 -275 700 -300 
Q 800 -325 875 -325 
Q 1075 -325 1150 -262 
Q 1225 -200 1300 25 
L 200 2925 
L 750 2925 
L 1550 725 
L 1575 725 
L 2350 2925 
L 2900 2925 
z
" transform="scale(0.015625)"/>
      </defs>
      <use xlink:href="#SimHei-54"/>
      <use xlink:href="#SimHei-6f" transform="translate(50 0)"/>
      <use xlink:href="#SimHei-74" transform="translate(100 0)"/>
      <use xlink:href="#SimHei-61" transform="translate(150 0)"/>
      <use xlink:href="#SimHei-6c" transform="translate(200 0)"/>
      <use xlink:href="#SimHei-20" transform="translate(250 0)"/>
      <use xlink:href="#SimHei-54" transform="translate(300 0)"/>
      <use xlink:href="#SimHei-61" transform="translate(350 0)"/>
      <use xlink:href="#SimHei-73" transform="translate(400 0)"/>
      <use xlink:href="#SimHei-6b" transform="translate(450 0)"/>
      <use xlink:href="#SimHei-20" transform="translate(500 0)"/>
      <use xlink:href="#SimHei-45" transform="translate(550 0)"/>
      <use xlink:href="#SimHei-6e" transform="translate(600 0)"/>
      <use xlink:href="#SimHei-65" transform="translate(650 0)"/>
      <use xlink:href="#SimHei-72" transform="translate(700 0)"/>
      <use xlink:href="#SimHei-67" transform="translate(750 0)"/>
      <use xlink:href="#SimHei-79" transform="translate(800 0)"/>
     </g>
    </g>
   </g>
   <g id="line2d_35">
    <path d="M 78.485227 186.550707 
L 79.912432 170.244285 
L 81.339636 172.65245 
L 82.76684 164.230645 
L 84.194045 150.185354 
L 85.621249 150.325497 
L 87.048454 150.278211 
L 88.475658 142.099863 
L 89.902862 130.939096 
L 91.330067 128.853788 
L 92.757271 115.581519 
L 94.184475 121.652733 
L 95.61168 129.626753 
L 97.038884 120.483303 
L 98.466089 113.115887 
L 99.893293 117.999557 
L 101.320497 119.114522 
L 102.747702 108.452597 
L 104.174906 103.611157 
L 105.60211 97.624962 
L 107.029315 100.288041 
L 108.456519 104.226127 
L 109.883724 107.241175 
L 111.310928 110.568764 
L 112.738132 116.142011 
L 115.592541 132.779719 
L 117.019745 115.882915 
L 118.44695 113.379475 
L 119.874154 113.638952 
L 121.301359 116.645564 
L 122.728563 118.582384 
L 124.155767 125.88465 
L 125.582972 122.992484 
L 127.010176 126.565081 
L 128.43738 114.450616 
L 129.864585 110.571096 
L 131.291789 116.84627 
L 132.718994 127.931706 
L 135.573402 147.990885 
L 138.427811 166.018122 
L 144.136629 197.09917 
L 146.991037 210.452513 
L 148.418242 215.201695 
L 149.845446 221.119516 
L 155.554263 242.444863 
L 159.835877 255.364 
L 162.690285 263.305473 
L 166.971898 273.27001 
L 172.680716 284.412771 
L 174.10792 286.96578 
L 176.962329 291.28865 
L 179.816738 295.364458 
L 181.243942 297.213308 
L 189.807168 306.784689 
L 192.661577 309.686838 
L 194.088782 310.514865 
L 196.94319 312.876659 
L 201.224803 315.816594 
L 202.652008 316.914333 
L 204.079212 317.723624 
L 206.933621 319.628553 
L 208.360825 319.96058 
L 209.78803 320.537937 
L 211.215234 321.31614 
L 215.496847 323.21506 
L 216.924052 324.104069 
L 218.351256 324.445718 
L 221.205665 325.841987 
L 222.632869 325.949376 
L 224.060073 326.315118 
L 225.487278 326.831553 
L 226.914482 325.502659 
L 228.341687 326.063427 
L 229.768891 326.279435 
L 231.196095 326.671435 
L 232.6233 326.661564 
L 234.050504 326.823324 
L 235.477708 327.435829 
L 238.332117 327.60148 
L 242.61373 328.402275 
L 244.040935 328.62579 
L 248.322548 329.659696 
L 249.749752 329.749349 
L 251.176957 330.132227 
L 254.031365 330.521453 
L 258.312978 330.637401 
L 259.740183 326.268875 
L 261.167387 326.626491 
L 262.594592 327.383182 
L 264.021796 327.851318 
L 266.876205 328.187346 
L 268.303409 328.466345 
L 269.730613 328.87907 
L 271.157818 329.534186 
L 275.439431 330.356168 
L 276.866635 330.67449 
L 278.29384 330.866949 
L 279.721044 330.688891 
L 281.148248 330.640185 
L 282.575453 331.117577 
L 288.28427 332.009299 
L 289.711475 330.215475 
L 291.138679 330.648235 
L 292.565883 330.749683 
L 293.993088 331.194327 
L 295.420292 331.498728 
L 299.701905 331.707831 
L 303.983518 331.536347 
L 305.410723 331.4073 
L 306.837927 331.888386 
L 308.265132 331.90565 
L 311.11954 332.659278 
L 312.546745 332.573724 
L 313.973949 332.832031 
L 315.401153 332.757674 
L 316.828358 332.882442 
L 318.255562 333.125772 
L 319.682767 332.863799 
L 321.109971 332.971445 
L 322.537175 330.471244 
L 325.391584 330.838757 
L 326.818788 329.744801 
L 328.245993 330.022012 
L 329.673197 330.000217 
L 331.100402 330.308672 
L 332.527606 330.393139 
L 333.95481 330.902522 
L 338.236423 331.73989 
L 339.663628 331.658883 
L 342.518037 332.245586 
L 343.945241 332.160699 
L 345.372445 332.337428 
L 346.79965 332.723799 
L 348.226854 332.95631 
L 349.654058 333.01494 
L 351.081263 332.627441 
L 352.508467 332.934267 
L 355.362876 333.155451 
L 356.79008 332.91895 
L 359.644489 333.312799 
L 362.498898 333.119893 
L 363.926102 333.30307 
L 365.353307 333.196761 
L 368.207715 333.518485 
L 369.63492 331.587105 
L 371.062124 331.541938 
L 372.489328 328.537075 
L 375.343737 329.303455 
L 376.770942 329.447694 
L 378.198146 329.428278 
L 379.62535 329.775757 
L 381.052555 330.263675 
L 383.906963 330.918146 
L 385.334168 330.722807 
L 388.188577 331.308751 
L 389.615781 331.303725 
L 391.042985 331.677734 
L 392.47019 331.891551 
L 393.897394 331.655885 
L 395.324598 332.01846 
L 399.606212 332.423221 
L 401.033416 332.778578 
L 403.887825 332.967021 
L 409.596642 333.03935 
L 411.023847 333.551151 
L 412.451051 333.891986 
L 413.878255 333.946846 
L 415.30546 333.341902 
L 416.732664 333.603998 
L 418.159868 333.643705 
L 419.587073 333.3932 
L 421.014277 333.572683 
L 425.29589 333.534267 
L 426.723095 333.743097 
L 428.150299 333.466014 
L 429.577503 333.615389 
L 431.004708 333.114653 
L 432.431912 333.40232 
L 433.859117 333.282681 
L 435.286321 333.583347 
L 436.713525 333.484826 
L 438.14073 333.544999 
L 439.567934 333.72649 
L 440.995138 333.573817 
L 443.849547 333.638857 
L 445.276752 333.804577 
L 446.703956 333.441004 
L 448.13116 333.684095 
L 450.985569 333.847399 
L 452.412773 334.055803 
L 453.839978 334.424456 
L 455.267182 334.279277 
L 456.694387 334.444592 
L 459.548795 334.378456 
L 460.976 334.225015 
L 468.112022 334.141815 
L 469.539226 334.166316 
L 470.96643 334.000389 
L 472.393635 330.855171 
L 473.820839 331.204016 
L 478.102452 331.068784 
L 479.529657 331.250025 
L 480.956861 331.058507 
L 483.81127 331.575728 
L 485.238474 331.766202 
L 486.665678 332.071709 
L 488.092883 332.105475 
L 490.947292 332.464123 
L 492.374496 332.798415 
L 493.8017 332.964056 
L 495.228905 333.251304 
L 496.656109 333.280304 
L 498.083313 333.13128 
L 499.510518 333.352963 
L 500.937722 333.314088 
L 502.364927 333.592615 
L 503.792131 333.328506 
L 505.219335 329.120791 
L 506.64654 329.418129 
L 508.073744 329.833237 
L 509.500948 329.954686 
L 510.928153 330.402411 
L 512.355357 330.281434 
L 513.782562 330.62135 
L 518.064175 331.042394 
L 519.491379 330.138345 
L 525.200197 330.962008 
L 526.627401 330.903935 
L 536.617832 332.63037 
L 538.045036 332.515544 
L 539.47224 332.235946 
L 540.899445 332.352974 
L 542.326649 332.735967 
L 545.181058 332.760201 
L 548.035467 333.198502 
L 555.171488 333.553785 
L 558.025897 333.56743 
L 559.453102 333.211867 
L 560.880306 333.023761 
L 563.734715 333.110291 
L 565.161919 332.869162 
L 566.589123 333.205748 
L 573.725145 333.932593 
L 575.15235 333.569199 
L 578.006758 333.512547 
L 580.861167 333.748601 
L 582.288371 333.770386 
L 583.715576 334.005252 
L 585.14278 333.86087 
L 587.997189 334.030477 
L 589.424393 331.882244 
L 590.851598 331.861591 
L 592.278802 332.144003 
L 593.706006 332.299337 
L 595.133211 331.97231 
L 596.560415 332.161966 
L 599.414824 332.090241 
L 602.269233 332.555592 
L 606.550846 332.911588 
L 607.97805 332.815445 
L 609.405255 332.990177 
L 610.832459 332.830246 
L 612.259663 332.869421 
L 616.541276 333.715312 
L 617.968481 333.600806 
L 619.395685 333.743431 
L 620.82289 328.232852 
L 625.104503 329.393376 
L 626.531707 329.69596 
L 627.958911 330.174937 
L 632.240525 330.893979 
L 633.667729 330.919397 
L 635.094933 331.250012 
L 637.949342 331.185389 
L 642.230955 331.570098 
L 643.65816 331.431627 
L 646.512568 331.809003 
L 647.939773 331.810571 
L 647.939773 331.810571 
" clip-path="url(#pffb4372507)" style="fill: none; stroke: #1f77b4; stroke-width: 1.2; stroke-linecap: square"/>
   </g>
   <g id="line2d_36">
    <path d="M 78.485227 288.026772 
L 79.912432 264.395839 
L 81.339636 236.281878 
L 82.76684 221.7504 
L 84.194045 211.231745 
L 85.621249 184.9685 
L 87.048454 186.111808 
L 88.475658 176.910773 
L 89.902862 177.648806 
L 91.330067 171.429407 
L 92.757271 161.164848 
L 94.184475 162.907123 
L 95.61168 156.62952 
L 97.038884 159.21071 
L 98.466089 148.15826 
L 99.893293 140.606137 
L 101.320497 142.809213 
L 102.747702 147.683931 
L 104.174906 140.519037 
L 105.60211 139.40052 
L 107.029315 134.477852 
L 108.456519 123.518959 
L 111.310928 90.628816 
L 112.738132 76.848048 
L 114.165337 77.523731 
L 115.592541 72.85415 
L 117.019745 70.734138 
L 118.44695 73.160428 
L 119.874154 63.549515 
L 121.301359 63.863215 
L 122.728563 61.948116 
L 124.155767 59.177279 
L 125.582972 51.13217 
L 127.010176 50.170806 
L 128.43738 48.838145 
L 129.864585 59.420278 
L 131.291789 66.86296 
L 132.718994 56.089588 
L 134.146198 64.488548 
L 135.573402 67.91207 
L 137.000607 60.764579 
L 138.427811 57.661432 
L 139.855015 52.586169 
L 141.28222 50.87225 
L 142.709424 58.401223 
L 144.136629 58.996272 
L 145.563833 61.566816 
L 146.991037 66.170421 
L 148.418242 55.971121 
L 149.845446 64.027224 
L 151.27265 58.074325 
L 152.699855 68.555487 
L 154.127059 73.863274 
L 155.554263 80.458489 
L 158.408672 105.303432 
L 161.263081 126.96596 
L 162.690285 137.29579 
L 164.11749 146.098545 
L 166.971898 164.549593 
L 169.826307 181.144996 
L 172.680716 196.04858 
L 175.535125 209.061468 
L 179.816738 226.947208 
L 182.671147 237.62638 
L 184.098351 242.662406 
L 188.379964 255.95548 
L 189.807168 259.89954 
L 194.088782 270.309647 
L 196.94319 276.859329 
L 199.797599 282.708655 
L 202.652008 288.100442 
L 209.78803 298.579025 
L 211.215234 300.34568 
L 214.069643 303.36913 
L 215.496847 305.115153 
L 216.924052 306.380458 
L 218.351256 307.829333 
L 219.77846 308.959925 
L 224.060073 312.839817 
L 225.487278 313.807525 
L 226.914482 314.562592 
L 228.341687 315.496403 
L 229.768891 316.750707 
L 231.196095 317.596879 
L 232.6233 318.12627 
L 235.477708 319.794784 
L 236.904913 320.534301 
L 239.759322 321.696148 
L 241.186526 321.801944 
L 244.040935 323.021205 
L 249.749752 325.786061 
L 251.176957 326.147464 
L 254.031365 327.217626 
L 256.885774 328.301296 
L 259.740183 328.973111 
L 264.021796 330.099756 
L 265.449 330.153465 
L 268.303409 330.818251 
L 271.157818 330.940662 
L 272.585022 331.236936 
L 274.012227 331.649981 
L 275.439431 328.565415 
L 276.866635 329.168736 
L 278.29384 329.471505 
L 279.721044 329.416583 
L 284.002657 330.31819 
L 285.429862 330.557186 
L 286.857066 330.910996 
L 288.28427 330.74617 
L 289.711475 330.731634 
L 292.565883 331.521946 
L 296.847497 331.503647 
L 303.983518 332.557882 
L 305.410723 332.564435 
L 308.265132 332.798406 
L 309.692336 332.869589 
L 311.11954 332.707648 
L 312.546745 332.691074 
L 313.973949 332.912916 
L 315.401153 332.655295 
L 316.828358 332.550737 
L 319.682767 332.71522 
L 321.109971 332.957898 
L 322.537175 330.937705 
L 323.96438 331.010113 
L 325.391584 330.922792 
L 326.818788 331.246604 
L 329.673197 331.4608 
L 332.527606 331.901747 
L 333.95481 332.074867 
L 335.382015 331.911291 
L 336.809219 331.983964 
L 341.090832 332.627696 
L 342.518037 332.913764 
L 343.945241 332.948673 
L 346.79965 333.235828 
L 351.081263 333.486847 
L 355.362876 333.908981 
L 356.79008 333.758373 
L 361.071693 333.935022 
L 363.926102 333.809851 
L 365.353307 334.10204 
L 366.780511 334.209679 
L 368.207715 334.135727 
L 369.63492 333.822412 
L 375.343737 334.148778 
L 376.770942 334.220729 
L 378.198146 334.099823 
L 382.479759 334.46683 
L 383.906963 334.685006 
L 386.761372 334.838764 
L 388.188577 334.970107 
L 389.615781 334.952295 
L 391.042985 334.588685 
L 392.47019 333.80013 
L 396.751803 334.164338 
L 398.179007 334.068128 
L 401.033416 334.184855 
L 403.887825 333.727237 
L 405.315029 333.340522 
L 406.742233 333.402616 
L 408.169438 333.607306 
L 409.596642 333.690438 
L 411.023847 334.087771 
L 412.451051 334.055609 
L 413.878255 334.153204 
L 418.159868 334.100705 
L 419.587073 334.104984 
L 422.441482 333.475129 
L 423.868686 333.042624 
L 425.29589 333.220879 
L 426.723095 333.247049 
L 428.150299 333.453005 
L 429.577503 333.21961 
L 431.004708 333.315272 
L 432.431912 333.631858 
L 433.859117 328.958849 
L 435.286321 329.378286 
L 436.713525 329.931016 
L 438.14073 329.900657 
L 440.995138 330.505838 
L 442.422343 330.992832 
L 443.849547 330.966166 
L 448.13116 331.388758 
L 449.558365 331.111243 
L 452.412773 331.294698 
L 453.839978 331.647815 
L 455.267182 331.766733 
L 456.694387 332.050976 
L 458.121591 332.069071 
L 459.548795 332.46288 
L 460.976 332.1178 
L 462.403204 332.388257 
L 466.684817 332.585684 
L 469.539226 333.076399 
L 470.96643 332.692032 
L 472.393635 332.983404 
L 473.820839 332.773418 
L 475.248043 332.808588 
L 476.675248 333.050819 
L 478.102452 333.149279 
L 479.529657 333.560659 
L 482.384065 333.628925 
L 483.81127 333.786508 
L 488.092883 333.502169 
L 489.520087 333.745407 
L 490.947292 333.54474 
L 492.374496 333.557955 
L 493.8017 333.377678 
L 495.228905 333.559742 
L 496.656109 333.34034 
L 498.083313 333.450034 
L 499.510518 333.673278 
L 500.937722 333.348258 
L 502.364927 333.549752 
L 503.792131 329.033965 
L 505.219335 329.223137 
L 508.073744 330.093756 
L 510.928153 330.271113 
L 512.355357 330.646752 
L 513.782562 330.620926 
L 515.209766 330.962732 
L 518.064175 331.135713 
L 519.491379 329.083786 
L 520.918583 329.325369 
L 522.345788 329.325592 
L 523.772992 326.832646 
L 525.200197 327.324556 
L 526.627401 327.366625 
L 528.054605 327.778582 
L 529.48181 317.652099 
L 530.909014 318.416326 
L 532.336218 319.350824 
L 533.763423 320.057241 
L 535.190627 320.490065 
L 536.617832 321.495325 
L 538.045036 322.132487 
L 540.899445 323.191677 
L 542.326649 323.978913 
L 543.753853 324.043664 
L 545.181058 324.337669 
L 546.608262 324.770607 
L 549.462671 325.828135 
L 555.171488 327.510655 
L 556.598693 328.139749 
L 558.025897 328.239388 
L 559.453102 327.873231 
L 560.880306 328.260933 
L 563.734715 328.499475 
L 565.161919 329.179165 
L 566.589123 329.308487 
L 568.016328 329.878756 
L 569.443532 328.046828 
L 570.870737 328.280842 
L 572.297941 328.663579 
L 573.725145 328.624159 
L 575.15235 328.817897 
L 578.006758 329.680315 
L 579.433963 329.526055 
L 580.861167 329.934339 
L 582.288371 329.86 
L 585.14278 330.628497 
L 587.997189 331.333646 
L 589.424393 331.932471 
L 590.851598 332.235932 
L 593.706006 332.379174 
L 595.133211 332.225102 
L 597.98762 332.632696 
L 599.414824 332.979436 
L 600.842028 333.175609 
L 602.269233 332.907311 
L 603.696437 332.524462 
L 605.123641 332.54254 
L 606.550846 332.733365 
L 607.97805 333.114333 
L 609.405255 333.058 
L 612.259663 333.536057 
L 616.541276 333.915568 
L 617.968481 333.885729 
L 620.82289 334.05358 
L 622.250094 334.058457 
L 623.677298 333.683968 
L 626.531707 333.98197 
L 627.958911 333.971231 
L 630.81332 334.144447 
L 632.240525 334.220459 
L 633.667729 334.061083 
L 635.094933 334.024824 
L 636.522138 333.586147 
L 637.949342 333.793418 
L 639.376546 334.16601 
L 642.230955 334.197604 
L 645.085364 333.778296 
L 646.512568 333.9593 
L 646.512568 333.9593 
" clip-path="url(#pffb4372507)" style="fill: none; stroke: #ff7f0e; stroke-width: 1.2; stroke-linecap: square"/>
   </g>
   <g id="line2d_37">
    <path d="M 78.485227 216.138276 
L 79.912432 216.805413 
L 81.339636 205.531326 
L 82.76684 211.054495 
L 84.194045 213.007634 
L 85.621249 210.975389 
L 87.048454 211.613412 
L 88.475658 213.579591 
L 89.902862 215.173782 
L 91.330067 205.644064 
L 94.184475 217.967132 
L 95.61168 221.763577 
L 98.466089 232.43293 
L 99.893293 235.058152 
L 101.320497 236.551033 
L 105.60211 250.388676 
L 108.456519 258.509677 
L 111.310928 265.474261 
L 112.738132 266.746083 
L 114.165337 270.02651 
L 115.592541 272.79971 
L 118.44695 278.724759 
L 121.301359 283.962548 
L 122.728563 286.131671 
L 124.155767 288.543509 
L 125.582972 285.710928 
L 128.43738 290.492442 
L 132.718994 295.995262 
L 134.146198 297.615558 
L 135.573402 299.708285 
L 137.000607 301.25147 
L 138.427811 303.314395 
L 139.855015 304.727815 
L 141.28222 305.791832 
L 142.709424 307.67866 
L 144.136629 309.114574 
L 146.991037 311.634986 
L 148.418242 312.878701 
L 152.699855 316.144961 
L 155.554263 317.883531 
L 156.981468 319.005874 
L 161.263081 321.169794 
L 162.690285 321.775035 
L 165.544694 323.31146 
L 168.399103 324.47804 
L 169.826307 324.810219 
L 171.253512 325.570413 
L 174.10792 326.666335 
L 175.535125 326.783925 
L 176.962329 327.216814 
L 178.389533 327.362437 
L 179.816738 327.317013 
L 181.243942 327.925166 
L 182.671147 328.116529 
L 186.95276 329.613604 
L 188.379964 329.939511 
L 191.234373 330.383297 
L 194.088782 331.093484 
L 199.797599 332.001786 
L 201.224803 331.777495 
L 204.079212 332.126021 
L 206.933621 332.586413 
L 208.360825 332.515635 
L 209.78803 332.563447 
L 211.215234 332.496228 
L 215.496847 332.63708 
L 219.77846 332.46546 
L 224.060073 332.423034 
L 226.914482 332.930171 
L 228.341687 332.830355 
L 229.768891 332.926896 
L 231.196095 333.221091 
L 236.904913 333.107254 
L 238.332117 331.230815 
L 239.759322 331.613401 
L 242.61373 331.865632 
L 244.040935 332.082401 
L 246.895343 332.342641 
L 248.322548 332.540904 
L 249.749752 327.745815 
L 251.176957 328.247285 
L 252.604161 328.599887 
L 254.031365 328.83325 
L 255.45857 328.871898 
L 256.885774 329.164264 
L 259.740183 329.459111 
L 261.167387 329.789779 
L 262.594592 329.8385 
L 268.303409 331.348514 
L 269.730613 331.233837 
L 272.585022 331.346517 
L 275.439431 331.857937 
L 276.866635 331.675119 
L 278.29384 331.992726 
L 279.721044 332.185737 
L 281.148248 332.198842 
L 282.575453 332.365785 
L 284.002657 332.366908 
L 286.857066 332.880489 
L 288.28427 332.639311 
L 291.138679 332.774288 
L 292.565883 332.945482 
L 293.993088 332.81637 
L 296.847497 332.963337 
L 298.274701 332.586627 
L 299.701905 332.831268 
L 301.12911 332.887237 
L 303.983518 333.348732 
L 305.410723 333.121278 
L 308.265132 333.514292 
L 309.692336 333.710984 
L 312.546745 333.645335 
L 313.973949 333.238523 
L 315.401153 333.406772 
L 316.828358 333.36008 
L 319.682767 333.633426 
L 321.109971 333.319454 
L 322.537175 333.445016 
L 323.96438 333.301813 
L 325.391584 333.480418 
L 328.245993 333.536902 
L 329.673197 333.276705 
L 331.100402 333.564966 
L 332.527606 333.20273 
L 333.95481 333.349605 
L 335.382015 333.052459 
L 336.809219 333.142823 
L 339.663628 333.838406 
L 342.518037 333.489711 
L 345.372445 333.32906 
L 346.79965 333.696327 
L 348.226854 333.604124 
L 349.654058 334.020126 
L 353.935672 334.338635 
L 355.362876 334.085225 
L 356.79008 334.354784 
L 358.217285 333.719296 
L 359.644489 333.433945 
L 361.071693 331.84791 
L 362.498898 331.922496 
L 363.926102 332.352727 
L 366.780511 332.897472 
L 368.207715 333.304811 
L 371.062124 333.223679 
L 372.489328 333.50002 
L 373.916533 333.557072 
L 375.343737 333.132898 
L 376.770942 333.138631 
L 379.62535 333.530059 
L 381.052555 333.135293 
L 382.479759 333.211319 
L 383.906963 333.039674 
L 385.334168 333.463571 
L 386.761372 333.644604 
L 388.188577 333.61555 
L 389.615781 333.804994 
L 391.042985 333.719909 
L 393.897394 334.164597 
L 395.324598 334.244002 
L 396.751803 334.009032 
L 401.033416 333.978009 
L 403.887825 334.38036 
L 406.742233 334.444748 
L 408.169438 334.132021 
L 409.596642 334.433784 
L 411.023847 334.618211 
L 415.30546 334.690272 
L 419.587073 334.970134 
L 421.014277 335.303697 
L 422.441482 335.335884 
L 423.868686 335.233492 
L 429.577503 335.522325 
L 431.004708 335.529055 
L 435.286321 334.484863 
L 436.713525 334.536429 
L 439.567934 334.37515 
L 440.995138 334.671272 
L 443.849547 334.856317 
L 445.276752 334.73214 
L 446.703956 332.075582 
L 448.13116 332.234445 
L 450.985569 332.050264 
L 455.267182 332.349796 
L 456.694387 332.580143 
L 459.548795 332.763155 
L 460.976 332.713508 
L 462.403204 333.056924 
L 463.830408 332.968017 
L 465.257613 333.126003 
L 466.684817 333.094341 
L 468.112022 332.785371 
L 473.820839 333.495754 
L 475.248043 333.47414 
L 476.675248 333.592444 
L 478.102452 333.85211 
L 479.529657 333.774174 
L 480.956861 329.982513 
L 482.384065 330.122756 
L 483.81127 330.076157 
L 485.238474 330.201839 
L 486.665678 328.897035 
L 488.092883 329.090617 
L 489.520087 329.630759 
L 492.374496 329.897641 
L 495.228905 330.271292 
L 496.656109 330.564028 
L 502.364927 330.935467 
L 503.792131 331.296039 
L 506.64654 331.251724 
L 508.073744 331.419158 
L 509.500948 331.465102 
L 513.782562 332.364083 
L 515.209766 331.927011 
L 516.63697 332.143309 
L 518.064175 331.943778 
L 520.918583 331.916953 
L 522.345788 332.239273 
L 523.772992 332.007606 
L 525.200197 332.074434 
L 526.627401 332.425564 
L 528.054605 332.53439 
L 529.48181 332.775102 
L 530.909014 332.6951 
L 532.336218 332.476457 
L 533.763423 332.635842 
L 535.190627 332.451614 
L 536.617832 332.460597 
L 539.47224 333.352568 
L 540.899445 333.502255 
L 542.326649 333.299077 
L 543.753853 333.518331 
L 545.181058 333.877788 
L 546.608262 333.806588 
L 548.035467 334.208745 
L 549.462671 334.316869 
L 550.889875 334.262459 
L 552.31708 334.389867 
L 556.598693 334.387415 
L 559.453102 334.1901 
L 560.880306 334.191172 
L 565.161919 334.650141 
L 568.016328 334.365096 
L 569.443532 334.648834 
L 570.870737 334.686644 
L 572.297941 334.906712 
L 573.725145 334.840363 
L 575.15235 335.157197 
L 578.006758 334.929887 
L 579.433963 335.072659 
L 580.861167 334.891796 
L 582.288371 330.611014 
L 583.715576 330.653395 
L 585.14278 331.018774 
L 586.569985 331.144682 
L 587.997189 331.480715 
L 589.424393 331.461263 
L 590.851598 329.315341 
L 592.278802 329.633513 
L 593.706006 329.64201 
L 595.133211 330.118113 
L 596.560415 330.206624 
L 597.98762 330.16157 
L 599.414824 330.514763 
L 607.97805 331.746484 
L 609.405255 332.051086 
L 612.259663 332.288382 
L 615.114072 332.782447 
L 616.541276 332.623182 
L 617.968481 332.672434 
L 619.395685 332.372066 
L 620.82289 332.781591 
L 622.250094 332.905389 
L 623.677298 332.720083 
L 625.104503 332.884858 
L 626.531707 331.086336 
L 627.958911 331.35271 
L 629.386116 331.448845 
L 632.240525 330.92257 
L 635.094933 331.262298 
L 636.522138 331.258465 
L 646.512568 332.289346 
L 646.512568 332.289346 
" clip-path="url(#pffb4372507)" style="fill: none; stroke: #2ca02c; stroke-width: 1.2; stroke-linecap: square"/>
   </g>
   <g id="line2d_38">
    <path d="M 78.485227 216.138276 
L 79.912432 214.372002 
L 81.339636 200.592802 
L 82.76684 193.367579 
L 84.194045 198.06744 
L 85.621249 204.200079 
L 87.048454 208.164638 
L 88.475658 214.246984 
L 89.902862 219.68089 
L 91.330067 223.547753 
L 95.61168 239.216455 
L 97.038884 244.161266 
L 98.466089 246.585743 
L 99.893293 251.136038 
L 101.320497 255.129584 
L 102.747702 258.580523 
L 104.174906 262.605818 
L 107.029315 269.648772 
L 109.883724 275.61659 
L 112.738132 281.572583 
L 114.165337 284.325829 
L 117.019745 289.157113 
L 122.728563 297.413928 
L 128.43738 304.309002 
L 131.291789 307.015338 
L 132.718994 308.164774 
L 134.146198 309.585315 
L 135.573402 307.943589 
L 139.855015 311.66711 
L 141.28222 312.168737 
L 142.709424 313.491537 
L 144.136629 314.518668 
L 146.991037 315.646221 
L 148.418242 316.651835 
L 149.845446 317.509887 
L 151.27265 318.196636 
L 152.699855 319.112039 
L 155.554263 320.641562 
L 156.981468 320.889965 
L 159.835877 322.545436 
L 161.263081 322.772739 
L 165.544694 324.03455 
L 166.971898 324.686549 
L 169.826307 324.94334 
L 171.253512 325.26622 
L 175.535125 326.80875 
L 176.962329 327.0903 
L 178.389533 327.726742 
L 179.816738 328.150794 
L 182.671147 328.509934 
L 184.098351 329.05666 
L 185.525555 329.220886 
L 186.95276 329.54058 
L 188.379964 329.232843 
L 189.807168 329.512244 
L 191.234373 329.45143 
L 196.94319 330.86557 
L 198.370395 331.370236 
L 199.797599 331.476773 
L 201.224803 331.370399 
L 202.652008 331.143478 
L 205.506417 331.434755 
L 206.933621 331.55539 
L 208.360825 331.87346 
L 209.78803 331.731064 
L 211.215234 331.762571 
L 212.642438 331.950415 
L 214.069643 331.710927 
L 215.496847 331.760488 
L 219.77846 332.369707 
L 221.205665 332.287136 
L 222.632869 331.85256 
L 224.060073 332.152298 
L 225.487278 331.917849 
L 226.914482 332.229943 
L 228.341687 332.059384 
L 229.768891 332.403561 
L 232.6233 331.903148 
L 238.332117 332.524935 
L 241.186526 333.00981 
L 242.61373 333.052579 
L 244.040935 331.075651 
L 245.468139 331.19514 
L 246.895343 331.184857 
L 251.176957 332.27083 
L 254.031365 332.543075 
L 256.885774 332.500629 
L 258.312978 332.77362 
L 261.167387 332.980611 
L 262.594592 333.263248 
L 264.021796 333.171931 
L 266.876205 333.387931 
L 268.303409 333.445563 
L 269.730613 333.199594 
L 272.585022 333.203024 
L 274.012227 333.393945 
L 275.439431 333.321519 
L 276.866635 333.527342 
L 279.721044 333.531084 
L 281.148248 333.946091 
L 282.575453 334.223829 
L 284.002657 333.921705 
L 286.857066 334.11789 
L 288.28427 333.831356 
L 289.711475 334.084642 
L 291.138679 333.876453 
L 292.565883 333.812024 
L 293.993088 334.075702 
L 295.420292 333.962827 
L 296.847497 334.115105 
L 303.983518 333.87537 
L 305.410723 334.030757 
L 308.265132 333.72479 
L 309.692336 333.954391 
L 312.546745 333.9153 
L 313.973949 333.634422 
L 315.401153 333.053982 
L 316.828358 333.311428 
L 318.255562 333.445837 
L 319.682767 333.369285 
L 321.109971 333.539135 
L 322.537175 333.402635 
L 323.96438 333.111076 
L 331.100402 333.665088 
L 332.527606 333.601803 
L 335.382015 334.098839 
L 338.236423 333.991476 
L 339.663628 334.110324 
L 341.090832 334.379199 
L 342.518037 333.974197 
L 343.945241 333.715661 
L 345.372445 333.949331 
L 346.79965 333.983889 
L 348.226854 333.901249 
L 349.654058 333.377239 
L 351.081263 333.209951 
L 355.362876 334.140694 
L 358.217285 333.975444 
L 361.071693 334.011112 
L 362.498898 332.824174 
L 363.926102 333.029487 
L 365.353307 332.823867 
L 368.207715 333.32878 
L 372.489328 333.265387 
L 373.916533 333.027826 
L 376.770942 333.017853 
L 378.198146 332.947985 
L 379.62535 333.047426 
L 381.052555 332.852536 
L 383.906963 332.854031 
L 385.334168 333.036145 
L 386.761372 332.984259 
L 388.188577 333.136739 
L 389.615781 333.054617 
L 392.47019 333.395292 
L 396.751803 333.704195 
L 398.179007 333.542031 
L 401.033416 333.756081 
L 405.315029 334.134061 
L 406.742233 334.115187 
L 408.169438 334.303327 
L 411.023847 334.250706 
L 412.451051 334.077754 
L 413.878255 334.086958 
L 415.30546 333.861511 
L 416.732664 333.881379 
L 418.159868 334.081259 
L 429.577503 334.602123 
L 431.004708 334.249656 
L 432.431912 334.440565 
L 433.859117 332.221561 
L 435.286321 332.27767 
L 436.713525 332.162106 
L 440.995138 332.169184 
L 442.422343 332.372518 
L 443.849547 332.027497 
L 446.703956 332.217594 
L 448.13116 332.199277 
L 449.558365 332.372982 
L 450.985569 332.203353 
L 455.267182 332.151723 
L 460.976 333.075728 
L 462.403204 333.154932 
L 466.684817 333.023573 
L 468.112022 333.132254 
L 469.539226 332.868666 
L 470.96643 330.913643 
L 473.820839 331.237321 
L 475.248043 331.253925 
L 478.102452 331.986509 
L 480.956861 331.956143 
L 482.384065 332.320685 
L 483.81127 332.312769 
L 488.092883 332.983462 
L 489.520087 333.088631 
L 490.947292 329.842067 
L 492.374496 330.220633 
L 493.8017 329.90636 
L 495.228905 330.25806 
L 498.083313 331.315429 
L 500.937722 331.592367 
L 502.364927 331.895102 
L 505.219335 332.289353 
L 506.64654 332.065399 
L 508.073744 332.205421 
L 516.63697 332.447135 
L 518.064175 332.565523 
L 519.491379 330.662691 
L 522.345788 331.099691 
L 523.772992 330.908028 
L 525.200197 329.537308 
L 526.627401 330.000953 
L 528.054605 327.314958 
L 529.48181 327.597702 
L 530.909014 327.706802 
L 532.336218 328.178284 
L 533.763423 328.175987 
L 535.190627 328.611846 
L 536.617832 328.732937 
L 539.47224 329.721507 
L 540.899445 330.191369 
L 542.326649 329.005748 
L 543.753853 329.398258 
L 545.181058 329.980743 
L 548.035467 330.387562 
L 550.889875 330.886205 
L 552.31708 331.336481 
L 559.453102 331.349311 
L 562.30751 331.785698 
L 565.161919 332.000925 
L 566.589123 332.175392 
L 568.016328 331.95349 
L 572.297941 332.731816 
L 576.579554 333.540155 
L 580.861167 333.618487 
L 582.288371 333.433161 
L 583.715576 333.592339 
L 585.14278 333.567973 
L 587.997189 333.118172 
L 589.424393 333.410673 
L 590.851598 333.558861 
L 592.278802 333.581091 
L 596.560415 333.155647 
L 599.414824 333.132234 
L 600.842028 333.021337 
L 602.269233 333.256034 
L 603.696437 333.151358 
L 606.550846 333.347093 
L 607.97805 333.222345 
L 609.405255 333.354975 
L 610.832459 333.241055 
L 613.686868 333.237013 
L 615.114072 333.51432 
L 617.968481 333.16131 
L 619.395685 333.350343 
L 622.250094 333.473813 
L 623.677298 333.630461 
L 625.104503 333.460687 
L 626.531707 333.63798 
L 627.958911 333.566142 
L 630.81332 333.942651 
L 632.240525 333.976597 
L 633.667729 333.405775 
L 635.094933 333.478919 
L 636.522138 333.720853 
L 639.376546 333.484577 
L 646.512568 334.282944 
L 646.512568 334.282944 
" clip-path="url(#pffb4372507)" style="fill: none; stroke: #9b8ac9; stroke-width: 1.2; stroke-linecap: square"/>
   </g>
   <g id="patch_3">
    <path d="M 50.0125 349.8636 
L 50.0125 34.5036 
" style="fill: none; stroke: #000000; stroke-width: 0.8; stroke-linejoin: miter; stroke-linecap: square"/>
   </g>
   <g id="patch_4">
    <path d="M 676.4125 349.8636 
L 676.4125 34.5036 
" style="fill: none; stroke: #000000; stroke-width: 0.8; stroke-linejoin: miter; stroke-linecap: square"/>
   </g>
   <g id="patch_5">
    <path d="M 50.0125 349.8636 
L 676.4125 349.8636 
" style="fill: none; stroke: #000000; stroke-width: 0.8; stroke-linejoin: miter; stroke-linecap: square"/>
   </g>
   <g id="patch_6">
    <path d="M 50.0125 34.5036 
L 676.4125 34.5036 
" style="fill: none; stroke: #000000; stroke-width: 0.8; stroke-linejoin: miter; stroke-linecap: square"/>
   </g>
   <g id="legend_1">
    <g id="patch_7">
     <path d="M 50.0125 31.35 
L 676.4125 31.35 
L 676.4125 7.2 
L 50.0125 7.2 
z
" style="fill: #ffffff; stroke: #808080; stroke-width: 0.8; stroke-linejoin: miter"/>
    </g>
    <g id="line2d_39">
     <path d="M 56.3125 18.4 
L 70.3125 18.4 
L 84.3125 18.4 
" style="fill: none; stroke: #1f77b4; stroke-width: 1.2; stroke-linecap: square"/>
    </g>
    <g id="text_20">
     <!-- GCN-DDQN -->
     <g transform="translate(92.7125 23.3) scale(0.14 -0.14)">
      <defs>
       <path id="SimHei-47" d="M 2850 75 
L 2425 75 
L 2350 425 
Q 2250 275 2037 175 
Q 1825 75 1575 75 
Q 1050 75 637 562 
Q 225 1050 225 2125 
Q 225 3300 600 3875 
Q 975 4450 1625 4450 
Q 2200 4450 2525 4025 
Q 2850 3600 2850 2925 
L 2300 2925 
Q 2300 3450 2125 3712 
Q 1950 3975 1625 3975 
Q 1225 3975 1025 3562 
Q 825 3150 825 2175 
Q 825 1250 1075 900 
Q 1325 550 1650 550 
Q 1975 550 2162 787 
Q 2350 1025 2350 1525 
L 2350 1800 
L 1575 1800 
L 1575 2275 
L 2850 2275 
L 2850 75 
z
" transform="scale(0.015625)"/>
       <path id="SimHei-43" d="M 2975 1825 
Q 2950 875 2575 475 
Q 2200 75 1675 75 
Q 1075 75 650 562 
Q 225 1050 225 2125 
Q 225 3300 637 3875 
Q 1050 4450 1700 4450 
Q 2250 4450 2612 4037 
Q 2975 3625 2950 2875 
L 2400 2875 
Q 2400 3425 2225 3700 
Q 2050 3975 1700 3975 
Q 1300 3975 1062 3562 
Q 825 3150 825 2175 
Q 825 1275 1062 912 
Q 1300 550 1675 550 
Q 1950 550 2175 812 
Q 2400 1075 2400 1825 
L 2975 1825 
z
" transform="scale(0.015625)"/>
       <path id="SimHei-4e" d="M 2850 125 
L 2225 125 
L 850 3225 
L 825 3225 
L 825 125 
L 250 125 
L 250 4400 
L 875 4400 
L 2250 1300 
L 2275 1300 
L 2275 4400 
L 2850 4400 
L 2850 125 
z
" transform="scale(0.015625)"/>
       <path id="SimHei-2d" d="M 2975 2125 
L 125 2125 
L 125 2525 
L 2975 2525 
L 2975 2125 
z
" transform="scale(0.015625)"/>
       <path id="SimHei-44" d="M 2925 2250 
Q 2925 1100 2437 612 
Q 1950 125 1125 125 
L 275 125 
L 275 4400 
L 1125 4400 
Q 2050 4400 2487 3900 
Q 2925 3400 2925 2250 
z
M 2325 2250 
Q 2325 3175 2025 3550 
Q 1725 3925 1125 3925 
L 850 3925 
L 850 600 
L 1125 600 
Q 1725 600 2025 962 
Q 2325 1325 2325 2250 
z
" transform="scale(0.015625)"/>
       <path id="SimHei-51" d="M 2950 2275 
Q 2950 1675 2862 1262 
Q 2775 850 2575 600 
L 2775 225 
L 2375 -200 
L 2150 225 
Q 2050 150 1900 112 
Q 1750 75 1575 75 
Q 925 75 550 587 
Q 175 1100 175 2275 
Q 175 3450 550 3950 
Q 925 4450 1575 4450 
Q 2225 4450 2587 3950 
Q 2950 3450 2950 2275 
z
M 2350 2275 
Q 2350 3325 2125 3650 
Q 1900 3975 1575 3975 
Q 1250 3975 1012 3650 
Q 775 3325 775 2275 
Q 775 1225 1012 887 
Q 1250 550 1575 550 
Q 1700 550 1800 587 
Q 1900 625 1950 675 
L 1550 1450 
L 1900 1875 
L 2250 1200 
Q 2300 1450 2325 1650 
Q 2350 1850 2350 2275 
z
" transform="scale(0.015625)"/>
      </defs>
      <use xlink:href="#SimHei-47"/>
      <use xlink:href="#SimHei-43" transform="translate(50 0)"/>
      <use xlink:href="#SimHei-4e" transform="translate(100 0)"/>
      <use xlink:href="#SimHei-2d" transform="translate(150 0)"/>
      <use xlink:href="#SimHei-44" transform="translate(200 0)"/>
      <use xlink:href="#SimHei-44" transform="translate(250 0)"/>
      <use xlink:href="#SimHei-51" transform="translate(300 0)"/>
      <use xlink:href="#SimHei-4e" transform="translate(350 0)"/>
     </g>
    </g>
    <g id="line2d_40">
     <path d="M 223.1125 18.4 
L 237.1125 18.4 
L 251.1125 18.4 
" style="fill: none; stroke: #ff7f0e; stroke-width: 1.2; stroke-linecap: square"/>
    </g>
    <g id="text_21">
     <!-- GCN-D3QN -->
     <g transform="translate(259.5125 23.3) scale(0.14 -0.14)">
      <use xlink:href="#SimHei-47"/>
      <use xlink:href="#SimHei-43" transform="translate(50 0)"/>
      <use xlink:href="#SimHei-4e" transform="translate(100 0)"/>
      <use xlink:href="#SimHei-2d" transform="translate(150 0)"/>
      <use xlink:href="#SimHei-44" transform="translate(200 0)"/>
      <use xlink:href="#SimHei-33" transform="translate(250 0)"/>
      <use xlink:href="#SimHei-51" transform="translate(300 0)"/>
      <use xlink:href="#SimHei-4e" transform="translate(350 0)"/>
     </g>
    </g>
    <g id="line2d_41">
     <path d="M 389.9125 18.4 
L 403.9125 18.4 
L 417.9125 18.4 
" style="fill: none; stroke: #2ca02c; stroke-width: 1.2; stroke-linecap: square"/>
    </g>
    <g id="text_22">
     <!-- GAT-LSTM-DDQN -->
     <g transform="translate(426.3125 23.3) scale(0.14 -0.14)">
      <defs>
       <path id="SimHei-41" d="M 3075 125 
L 2475 125 
L 2125 1450 
L 1025 1450 
L 675 125 
L 75 125 
L 1325 4450 
L 1825 4450 
L 3075 125 
z
M 2000 1925 
L 1600 3450 
L 1550 3450 
L 1150 1925 
L 2000 1925 
z
" transform="scale(0.015625)"/>
       <path id="SimHei-4c" d="M 2900 125 
L 300 125 
L 300 4400 
L 875 4400 
L 875 600 
L 2900 600 
L 2900 125 
z
" transform="scale(0.015625)"/>
       <path id="SimHei-53" d="M 2900 1325 
Q 2900 750 2537 412 
Q 2175 75 1550 75 
Q 925 75 575 425 
Q 225 775 225 1300 
L 225 1475 
L 800 1475 
L 800 1325 
Q 800 950 1025 750 
Q 1250 550 1550 550 
Q 1950 550 2137 762 
Q 2325 975 2325 1275 
Q 2325 1525 2100 1737 
Q 1875 1950 1450 2125 
Q 850 2350 587 2625 
Q 325 2900 325 3275 
Q 325 3800 687 4125 
Q 1050 4450 1550 4450 
Q 2200 4450 2487 4062 
Q 2775 3675 2775 3225 
L 2200 3225 
Q 2225 3500 2050 3725 
Q 1875 3950 1550 3950 
Q 1250 3950 1075 3787 
Q 900 3625 900 3350 
Q 900 3125 1037 2962 
Q 1175 2800 1750 2575 
Q 2300 2350 2600 2037 
Q 2900 1725 2900 1325 
z
" transform="scale(0.015625)"/>
       <path id="SimHei-4d" d="M 2925 125 
L 2425 125 
L 2425 3175 
L 2375 3175 
L 1775 125 
L 1375 125 
L 775 3175 
L 725 3175 
L 725 125 
L 225 125 
L 225 4400 
L 1000 4400 
L 1550 1575 
L 1600 1575 
L 2150 4400 
L 2925 4400 
L 2925 125 
z
" transform="scale(0.015625)"/>
      </defs>
      <use xlink:href="#SimHei-47"/>
      <use xlink:href="#SimHei-41" transform="translate(50 0)"/>
      <use xlink:href="#SimHei-54" transform="translate(100 0)"/>
      <use xlink:href="#SimHei-2d" transform="translate(150 0)"/>
      <use xlink:href="#SimHei-4c" transform="translate(200 0)"/>
      <use xlink:href="#SimHei-53" transform="translate(250 0)"/>
      <use xlink:href="#SimHei-54" transform="translate(300 0)"/>
      <use xlink:href="#SimHei-4d" transform="translate(350 0)"/>
      <use xlink:href="#SimHei-2d" transform="translate(400 0)"/>
      <use xlink:href="#SimHei-44" transform="translate(450 0)"/>
      <use xlink:href="#SimHei-44" transform="translate(500 0)"/>
      <use xlink:href="#SimHei-51" transform="translate(550 0)"/>
      <use xlink:href="#SimHei-4e" transform="translate(600 0)"/>
     </g>
    </g>
    <g id="line2d_42">
     <path d="M 591.7125 18.4 
L 605.7125 18.4 
L 619.7125 18.4 
" style="fill: none; stroke: #9b8ac9; stroke-width: 1.2; stroke-linecap: square"/>
    </g>
    <g id="text_23">
     <!-- GLDVTO -->
     <g transform="translate(628.1125 23.3) scale(0.14 -0.14)">
      <defs>
       <path id="SimHei-56" d="M 3050 4400 
L 1800 75 
L 1300 75 
L 50 4400 
L 650 4400 
L 1525 1125 
L 1575 1125 
L 2450 4400 
L 3050 4400 
z
" transform="scale(0.015625)"/>
       <path id="SimHei-4f" d="M 2950 2275 
Q 2950 1100 2587 587 
Q 2225 75 1575 75 
Q 925 75 550 587 
Q 175 1100 175 2275 
Q 175 3450 550 3950 
Q 925 4450 1575 4450 
Q 2225 4450 2587 3950 
Q 2950 3450 2950 2275 
z
M 2350 2275 
Q 2350 3325 2125 3650 
Q 1900 3975 1575 3975 
Q 1250 3975 1012 3650 
Q 775 3325 775 2275 
Q 775 1225 1012 887 
Q 1250 550 1575 550 
Q 1900 550 2125 887 
Q 2350 1225 2350 2275 
z
" transform="scale(0.015625)"/>
      </defs>
      <use xlink:href="#SimHei-47"/>
      <use xlink:href="#SimHei-4c" transform="translate(50 0)"/>
      <use xlink:href="#SimHei-44" transform="translate(100 0)"/>
      <use xlink:href="#SimHei-56" transform="translate(150 0)"/>
      <use xlink:href="#SimHei-54" transform="translate(200 0)"/>
      <use xlink:href="#SimHei-4f" transform="translate(250 0)"/>
     </g>
    </g>
   </g>
  </g>
 </g>
 <defs>
  <clipPath id="pffb4372507">
   <rect x="50.0125" y="34.5036" width="626.4" height="315.36"/>
  </clipPath>
 </defs>
</svg>
