<?xml version="1.0" encoding="utf-8" standalone="no"?>
<!DOCTYPE svg PUBLIC "-//W3C//DTD SVG 1.1//EN"
  "http://www.w3.org/Graphics/SVG/1.1/DTD/svg11.dtd">
<svg xmlns:xlink="http://www.w3.org/1999/xlink" width="712.99pt" height="424.835pt" viewBox="0 0 712.99 424.835" xmlns="http://www.w3.org/2000/svg" version="1.1">
 <metadata>
  <rdf:RDF xmlns:dc="http://purl.org/dc/elements/1.1/" xmlns:cc="http://creativecommons.org/ns#" xmlns:rdf="http://www.w3.org/1999/02/22-rdf-syntax-ns#">
   <cc:Work>
    <dc:type rdf:resource="http://purl.org/dc/dcmitype/StillImage"/>
    <dc:date>2026-06-26T19:29:07.188526</dc:date>
    <dc:format>image/svg+xml</dc:format>
    <dc:creator>
     <cc:Agent>
      <dc:title>Matplotlib v3.10.7, https://matplotlib.org/</dc:title>
     </cc:Agent>
    </dc:creator>
   </cc:Work>
  </rdf:RDF>
 </metadata>
 <defs>
  <style type="text/css">*{stroke-linejoin: round; stroke-linecap: butt}</style>
 </defs>
 <g id="figure_1">
  <g id="patch_1">
   <path d="M -0 424.835 
L 712.99 424.835 
L 712.99 0 
L -0 0 
z
" style="fill: #ffffff"/>
  </g>
  <g id="axes_1">
   <g id="patch_2">
    <path d="M 55.2 383.885 
L 705.79 383.885 
L 705.79 24.325 
L 55.2 24.325 
z
" style="fill: #ffffff"/>
   </g>
   <g id="matplotlib.axis_1">
    <g id="xtick_1">
     <g id="line2d_1">
      <path d="M 84.772273 383.885 
L 84.772273 24.325 
" clip-path="url(#pbc7633cfc6)" style="fill: none; stroke: #b0b0b0; stroke-opacity: 0.3; stroke-width: 0.8; stroke-linecap: square"/>
     </g>
     <g id="line2d_2">
      <defs>
       <path id="mc2c97b279b" d="M 0 0 
L 0 3.5 
" style="stroke: #000000; stroke-width: 0.8"/>
      </defs>
      <g>
       <use xlink:href="#mc2c97b279b" x="84.772273" y="383.885" style="stroke: #000000; stroke-width: 0.8"/>
      </g>
     </g>
     <g id="text_1">
      <!-- 0 -->
      <g transform="translate(81.772273 399.135) scale(0.12 -0.12)">
       <defs>
        <path id="SimHei-30" d="M 225 2537 
Q 250 3200 412 3587 
Q 575 3975 875 4225 
Q 1175 4475 1612 4475 
Q 2050 4475 2375 4112 
Q 2700 3750 2800 3200 
Q 2900 2650 2862 1937 
Q 2825 1225 2612 775 
Q 2400 325 1975 150 
Q 1550 -25 1125 187 
Q 700 400 525 750 
Q 350 1100 275 1487 
Q 200 1875 225 2537 
z
M 750 2687 
Q 675 2000 800 1462 
Q 925 925 1212 700 
Q 1500 475 1800 612 
Q 2100 750 2237 1162 
Q 2375 1575 2375 2062 
Q 2375 2550 2337 2950 
Q 2300 3350 2112 3675 
Q 1925 4000 1612 4012 
Q 1300 4025 1062 3700 
Q 825 3375 750 2687 
z
" transform="scale(0.015625)"/>
       </defs>
       <use xlink:href="#SimHei-30"/>
      </g>
     </g>
    </g>
    <g id="xtick_2">
     <g id="line2d_3">
      <path d="M 158.888244 383.885 
L 158.888244 24.325 
" clip-path="url(#pbc7633cfc6)" style="fill: none; stroke: #b0b0b0; stroke-opacity: 0.3; stroke-width: 0.8; stroke-linecap: square"/>
     </g>
     <g id="line2d_4">
      <g>
       <use xlink:href="#mc2c97b279b" x="158.888244" y="383.885" style="stroke: #000000; stroke-width: 0.8"/>
      </g>
     </g>
     <g id="text_2">
      <!-- 50 -->
      <g transform="translate(152.888244 399.135) scale(0.12 -0.12)">
       <defs>
        <path id="SimHei-35" d="M 550 1325 
Q 725 650 1150 575 
Q 1575 500 1837 662 
Q 2100 825 2212 1087 
Q 2325 1350 2312 1675 
Q 2300 2000 2137 2225 
Q 1975 2450 1725 2525 
Q 1475 2600 1162 2525 
Q 850 2450 650 2175 
L 225 2225 
Q 275 2375 700 4375 
L 2675 4375 
L 2675 3925 
L 1075 3925 
Q 950 3250 825 2850 
Q 1200 3025 1525 3012 
Q 1850 3000 2150 2862 
Q 2450 2725 2587 2487 
Q 2725 2250 2787 2012 
Q 2850 1775 2837 1500 
Q 2825 1225 2725 937 
Q 2625 650 2425 462 
Q 2225 275 1937 162 
Q 1650 50 1275 75 
Q 900 100 562 350 
Q 225 600 100 1200 
L 550 1325 
z
" transform="scale(0.015625)"/>
       </defs>
       <use xlink:href="#SimHei-35"/>
       <use xlink:href="#SimHei-30" transform="translate(50 0)"/>
      </g>
     </g>
    </g>
    <g id="xtick_3">
     <g id="line2d_5">
      <path d="M 233.004216 383.885 
L 233.004216 24.325 
" clip-path="url(#pbc7633cfc6)" style="fill: none; stroke: #b0b0b0; stroke-opacity: 0.3; stroke-width: 0.8; stroke-linecap: square"/>
     </g>
     <g id="line2d_6">
      <g>
       <use xlink:href="#mc2c97b279b" x="233.004216" y="383.885" style="stroke: #000000; stroke-width: 0.8"/>
      </g>
     </g>
     <g id="text_3">
      <!-- 100 -->
      <g transform="translate(224.004216 399.135) scale(0.12 -0.12)">
       <defs>
        <path id="SimHei-31" d="M 1400 3600 
Q 1075 3275 575 2975 
L 575 3450 
Q 1200 3875 1600 4450 
L 1900 4450 
L 1900 150 
L 1400 150 
L 1400 3600 
z
" transform="scale(0.015625)"/>
       </defs>
       <use xlink:href="#SimHei-31"/>
       <use xlink:href="#SimHei-30" transform="translate(50 0)"/>
       <use xlink:href="#SimHei-30" transform="translate(100 0)"/>
      </g>
     </g>
    </g>
    <g id="xtick_4">
     <g id="line2d_7">
      <path d="M 307.120188 383.885 
L 307.120188 24.325 
" clip-path="url(#pbc7633cfc6)" style="fill: none; stroke: #b0b0b0; stroke-opacity: 0.3; stroke-width: 0.8; stroke-linecap: square"/>
     </g>
     <g id="line2d_8">
      <g>
       <use xlink:href="#mc2c97b279b" x="307.120188" y="383.885" style="stroke: #000000; stroke-width: 0.8"/>
      </g>
     </g>
     <g id="text_4">
      <!-- 150 -->
      <g transform="translate(298.120188 399.135) scale(0.12 -0.12)">
       <use xlink:href="#SimHei-31"/>
       <use xlink:href="#SimHei-35" transform="translate(50 0)"/>
       <use xlink:href="#SimHei-30" transform="translate(100 0)"/>
      </g>
     </g>
    </g>
    <g id="xtick_5">
     <g id="line2d_9">
      <path d="M 381.23616 383.885 
L 381.23616 24.325 
" clip-path="url(#pbc7633cfc6)" style="fill: none; stroke: #b0b0b0; stroke-opacity: 0.3; stroke-width: 0.8; stroke-linecap: square"/>
     </g>
     <g id="line2d_10">
      <g>
       <use xlink:href="#mc2c97b279b" x="381.23616" y="383.885" style="stroke: #000000; stroke-width: 0.8"/>
      </g>
     </g>
     <g id="text_5">
      <!-- 200 -->
      <g transform="translate(372.23616 399.135) scale(0.12 -0.12)">
       <defs>
        <path id="SimHei-32" d="M 300 250 
Q 325 625 650 925 
Q 975 1225 1475 1862 
Q 1975 2500 2125 2850 
Q 2275 3200 2237 3450 
Q 2200 3700 2000 3862 
Q 1800 4025 1537 4000 
Q 1275 3975 1037 3800 
Q 800 3625 675 3275 
L 200 3350 
Q 400 3925 712 4187 
Q 1025 4450 1450 4475 
Q 1700 4500 1900 4462 
Q 2100 4425 2312 4287 
Q 2525 4150 2662 3875 
Q 2800 3600 2762 3212 
Q 2725 2825 2375 2287 
Q 2025 1750 1025 600 
L 2825 600 
L 2825 150 
L 300 150 
L 300 250 
z
" transform="scale(0.015625)"/>
       </defs>
       <use xlink:href="#SimHei-32"/>
       <use xlink:href="#SimHei-30" transform="translate(50 0)"/>
       <use xlink:href="#SimHei-30" transform="translate(100 0)"/>
      </g>
     </g>
    </g>
    <g id="xtick_6">
     <g id="line2d_11">
      <path d="M 455.352131 383.885 
L 455.352131 24.325 
" clip-path="url(#pbc7633cfc6)" style="fill: none; stroke: #b0b0b0; stroke-opacity: 0.3; stroke-width: 0.8; stroke-linecap: square"/>
     </g>
     <g id="line2d_12">
      <g>
       <use xlink:href="#mc2c97b279b" x="455.352131" y="383.885" style="stroke: #000000; stroke-width: 0.8"/>
      </g>
     </g>
     <g id="text_6">
      <!-- 250 -->
      <g transform="translate(446.352131 399.135) scale(0.12 -0.12)">
       <use xlink:href="#SimHei-32"/>
       <use xlink:href="#SimHei-35" transform="translate(50 0)"/>
       <use xlink:href="#SimHei-30" transform="translate(100 0)"/>
      </g>
     </g>
    </g>
    <g id="xtick_7">
     <g id="line2d_13">
      <path d="M 529.468103 383.885 
L 529.468103 24.325 
" clip-path="url(#pbc7633cfc6)" style="fill: none; stroke: #b0b0b0; stroke-opacity: 0.3; stroke-width: 0.8; stroke-linecap: square"/>
     </g>
     <g id="line2d_14">
      <g>
       <use xlink:href="#mc2c97b279b" x="529.468103" y="383.885" style="stroke: #000000; stroke-width: 0.8"/>
      </g>
     </g>
     <g id="text_7">
      <!-- 300 -->
      <g transform="translate(520.468103 399.135) scale(0.12 -0.12)">
       <defs>
        <path id="SimHei-33" d="M 250 1225 
L 700 1300 
Q 800 975 1025 762 
Q 1250 550 1587 562 
Q 1925 575 2125 837 
Q 2325 1100 2300 1437 
Q 2275 1775 2037 1962 
Q 1800 2150 1275 2225 
L 1275 2550 
Q 1800 2600 2037 2825 
Q 2275 3050 2250 3412 
Q 2225 3775 1925 3937 
Q 1625 4100 1287 3975 
Q 950 3850 750 3275 
L 300 3350 
Q 450 3800 712 4100 
Q 975 4400 1425 4450 
Q 1875 4500 2212 4337 
Q 2550 4175 2687 3837 
Q 2825 3500 2725 3100 
Q 2625 2700 2150 2400 
Q 2500 2250 2687 1950 
Q 2875 1650 2812 1162 
Q 2750 675 2375 375 
Q 2000 75 1525 87 
Q 1050 100 700 387 
Q 350 675 250 1225 
z
" transform="scale(0.015625)"/>
       </defs>
       <use xlink:href="#SimHei-33"/>
       <use xlink:href="#SimHei-30" transform="translate(50 0)"/>
       <use xlink:href="#SimHei-30" transform="translate(100 0)"/>
      </g>
     </g>
    </g>
    <g id="xtick_8">
     <g id="line2d_15">
      <path d="M 603.584075 383.885 
L 603.584075 24.325 
" clip-path="url(#pbc7633cfc6)" style="fill: none; stroke: #b0b0b0; stroke-opacity: 0.3; stroke-width: 0.8; stroke-linecap: square"/>
     </g>
     <g id="line2d_16">
      <g>
       <use xlink:href="#mc2c97b279b" x="603.584075" y="383.885" style="stroke: #000000; stroke-width: 0.8"/>
      </g>
     </g>
     <g id="text_8">
      <!-- 350 -->
      <g transform="translate(594.584075 399.135) scale(0.12 -0.12)">
       <use xlink:href="#SimHei-33"/>
       <use xlink:href="#SimHei-35" transform="translate(50 0)"/>
       <use xlink:href="#SimHei-30" transform="translate(100 0)"/>
      </g>
     </g>
    </g>
    <g id="xtick_9">
     <g id="line2d_17">
      <path d="M 677.700047 383.885 
L 677.700047 24.325 
" clip-path="url(#pbc7633cfc6)" style="fill: none; stroke: #b0b0b0; stroke-opacity: 0.3; stroke-width: 0.8; stroke-linecap: square"/>
     </g>
     <g id="line2d_18">
      <g>
       <use xlink:href="#mc2c97b279b" x="677.700047" y="383.885" style="stroke: #000000; stroke-width: 0.8"/>
      </g>
     </g>
     <g id="text_9">
      <!-- 400 -->
      <g transform="translate(668.700047 399.135) scale(0.12 -0.12)">
       <defs>
        <path id="SimHei-34" d="M 2000 1100 
L 75 1100 
L 75 1525 
L 2100 4450 
L 2475 4450 
L 2475 1525 
L 3075 1525 
L 3075 1100 
L 2475 1100 
L 2475 150 
L 2000 150 
L 2000 1100 
z
M 2000 1525 
L 2000 3500 
L 600 1525 
L 2000 1525 
z
" transform="scale(0.015625)"/>
       </defs>
       <use xlink:href="#SimHei-34"/>
       <use xlink:href="#SimHei-30" transform="translate(50 0)"/>
       <use xlink:href="#SimHei-30" transform="translate(100 0)"/>
      </g>
     </g>
    </g>
    <g id="text_10">
     <!-- Episode -->
     <g transform="translate(352.495 415.635) scale(0.16 -0.16)">
      <defs>
       <path id="SimHei-45" d="M 2900 125 
L 350 125 
L 350 4400 
L 2775 4400 
L 2775 3925 
L 925 3925 
L 925 2600 
L 2625 2600 
L 2625 2125 
L 925 2125 
L 925 600 
L 2900 600 
L 2900 125 
z
" transform="scale(0.015625)"/>
       <path id="SimHei-70" d="M 2825 1525 
Q 2825 800 2475 425 
Q 2125 50 1625 50 
Q 1350 50 1150 162 
Q 950 275 800 500 
L 800 -800 
L 300 -800 
L 300 2925 
L 800 2925 
L 800 2550 
Q 950 2775 1150 2875 
Q 1350 2975 1625 2975 
Q 2125 2975 2475 2612 
Q 2825 2250 2825 1525 
z
M 2275 1525 
Q 2275 2000 2087 2262 
Q 1900 2525 1525 2525 
Q 1225 2525 1012 2262 
Q 800 2000 800 1525 
Q 800 1050 1012 775 
Q 1225 500 1525 500 
Q 1900 500 2087 775 
Q 2275 1050 2275 1525 
z
" transform="scale(0.015625)"/>
       <path id="SimHei-69" d="M 1800 3725 
L 1300 3725 
L 1300 4375 
L 1800 4375 
L 1800 3725 
z
M 1800 125 
L 1300 125 
L 1300 2925 
L 1800 2925 
L 1800 125 
z
" transform="scale(0.015625)"/>
       <path id="SimHei-73" d="M 2750 900 
Q 2750 500 2437 287 
Q 2125 75 1650 75 
Q 1050 75 725 312 
Q 400 550 400 1000 
L 900 1000 
Q 900 700 1112 600 
Q 1325 500 1625 500 
Q 1925 500 2075 612 
Q 2225 725 2225 900 
Q 2225 1025 2100 1150 
Q 1975 1275 1475 1350 
Q 900 1425 687 1637 
Q 475 1850 475 2200 
Q 475 2500 762 2737 
Q 1050 2975 1600 2975 
Q 2100 2975 2387 2750 
Q 2675 2525 2675 2150 
L 2175 2150 
Q 2175 2375 2012 2462 
Q 1850 2550 1600 2550 
Q 1275 2550 1137 2437 
Q 1000 2325 1000 2175 
Q 1000 2000 1125 1900 
Q 1250 1800 1650 1750 
Q 2300 1650 2525 1437 
Q 2750 1225 2750 900 
z
" transform="scale(0.015625)"/>
       <path id="SimHei-6f" d="M 2925 1525 
Q 2925 875 2525 475 
Q 2125 75 1575 75 
Q 1025 75 625 475 
Q 225 875 225 1525 
Q 225 2175 625 2575 
Q 1025 2975 1575 2975 
Q 2125 2975 2525 2575 
Q 2925 2175 2925 1525 
z
M 2375 1525 
Q 2375 2025 2125 2275 
Q 1875 2525 1575 2525 
Q 1275 2525 1025 2275 
Q 775 2025 775 1525 
Q 775 1025 1025 775 
Q 1275 525 1575 525 
Q 1875 525 2125 775 
Q 2375 1025 2375 1525 
z
" transform="scale(0.015625)"/>
       <path id="SimHei-64" d="M 2750 125 
L 2250 125 
L 2250 500 
Q 2100 275 1900 175 
Q 1700 75 1425 75 
Q 925 75 575 437 
Q 225 800 225 1525 
Q 225 2250 575 2625 
Q 925 3000 1425 3000 
Q 1700 3000 1900 2887 
Q 2100 2775 2250 2550 
L 2250 4400 
L 2750 4400 
L 2750 125 
z
M 2250 1525 
Q 2250 2000 2037 2275 
Q 1825 2550 1525 2550 
Q 1150 2550 962 2275 
Q 775 2000 775 1525 
Q 775 1050 962 787 
Q 1150 525 1525 525 
Q 1825 525 2037 787 
Q 2250 1050 2250 1525 
z
" transform="scale(0.015625)"/>
       <path id="SimHei-65" d="M 2850 1075 
Q 2800 625 2450 350 
Q 2100 75 1625 75 
Q 1025 75 637 462 
Q 250 850 250 1525 
Q 250 2200 637 2587 
Q 1025 2975 1625 2975 
Q 2150 2975 2487 2637 
Q 2825 2300 2825 1525 
L 800 1525 
Q 800 975 1037 750 
Q 1275 525 1625 525 
Q 1900 525 2075 662 
Q 2250 800 2300 1075 
L 2850 1075 
z
M 2250 1925 
Q 2200 2275 2025 2412 
Q 1850 2550 1575 2550 
Q 1325 2550 1125 2412 
Q 925 2275 825 1925 
L 2250 1925 
z
" transform="scale(0.015625)"/>
      </defs>
      <use xlink:href="#SimHei-45"/>
      <use xlink:href="#SimHei-70" transform="translate(50 0)"/>
      <use xlink:href="#SimHei-69" transform="translate(100 0)"/>
      <use xlink:href="#SimHei-73" transform="translate(150 0)"/>
      <use xlink:href="#SimHei-6f" transform="translate(200 0)"/>
      <use xlink:href="#SimHei-64" transform="translate(250 0)"/>
      <use xlink:href="#SimHei-65" transform="translate(300 0)"/>
     </g>
    </g>
   </g>
   <g id="matplotlib.axis_2">
    <g id="ytick_1">
     <g id="line2d_19">
      <path d="M 55.2 336.829396 
L 705.79 336.829396 
" clip-path="url(#pbc7633cfc6)" style="fill: none; stroke: #b0b0b0; stroke-opacity: 0.3; stroke-width: 0.8; stroke-linecap: square"/>
     </g>
     <g id="line2d_20">
      <defs>
       <path id="m0164d42f07" d="M 0 0 
L -3.5 0 
" style="stroke: #000000; stroke-width: 0.8"/>
      </defs>
      <g>
       <use xlink:href="#m0164d42f07" x="55.2" y="336.829396" style="stroke: #000000; stroke-width: 0.8"/>
      </g>
     </g>
     <g id="text_11">
      <!-- 600 -->
      <g transform="translate(30.2 340.954396) scale(0.12 -0.12)">
       <defs>
        <path id="SimHei-36" d="M 250 1612 
Q 275 1975 387 2225 
Q 500 2475 725 2850 
L 1750 4450 
L 2325 4450 
L 1275 2800 
Q 1950 2975 2350 2750 
Q 2750 2525 2887 2237 
Q 3025 1950 3037 1612 
Q 3050 1275 2937 950 
Q 2825 625 2537 362 
Q 2250 100 1737 75 
Q 1225 50 862 262 
Q 500 475 362 862 
Q 225 1250 250 1612 
z
M 1025 787 
Q 1250 550 1625 525 
Q 2000 500 2250 775 
Q 2500 1050 2500 1575 
Q 2500 2100 2187 2300 
Q 1875 2500 1487 2450 
Q 1100 2400 925 2075 
Q 750 1750 775 1387 
Q 800 1025 1025 787 
z
" transform="scale(0.015625)"/>
       </defs>
       <use xlink:href="#SimHei-36"/>
       <use xlink:href="#SimHei-30" transform="translate(50 0)"/>
       <use xlink:href="#SimHei-30" transform="translate(100 0)"/>
      </g>
     </g>
    </g>
    <g id="ytick_2">
     <g id="line2d_21">
      <path d="M 55.2 275.951129 
L 705.79 275.951129 
" clip-path="url(#pbc7633cfc6)" style="fill: none; stroke: #b0b0b0; stroke-opacity: 0.3; stroke-width: 0.8; stroke-linecap: square"/>
     </g>
     <g id="line2d_22">
      <g>
       <use xlink:href="#m0164d42f07" x="55.2" y="275.951129" style="stroke: #000000; stroke-width: 0.8"/>
      </g>
     </g>
     <g id="text_12">
      <!-- 800 -->
      <g transform="translate(30.2 280.076129) scale(0.12 -0.12)">
       <defs>
        <path id="SimHei-38" d="M 175 1375 
Q 175 1675 325 1962 
Q 475 2250 825 2425 
Q 525 2600 425 2812 
Q 325 3025 312 3300 
Q 300 3575 387 3775 
Q 475 3975 650 4150 
Q 825 4325 1037 4387 
Q 1250 4450 1500 4450 
Q 1750 4450 1950 4400 
Q 2150 4350 2375 4187 
Q 2600 4025 2700 3725 
Q 2800 3425 2687 3025 
Q 2575 2625 2100 2400 
Q 2525 2275 2700 2012 
Q 2875 1750 2875 1375 
Q 2875 1000 2762 775 
Q 2650 550 2512 400 
Q 2375 250 2137 162 
Q 1900 75 1537 75 
Q 1175 75 912 162 
Q 650 250 475 425 
Q 300 600 237 837 
Q 175 1075 175 1375 
z
M 687 1400 
Q 675 1100 787 875 
Q 900 650 1200 587 
Q 1500 525 1825 600 
Q 2150 675 2275 950 
Q 2400 1225 2362 1500 
Q 2325 1775 2050 1962 
Q 1775 2150 1450 2125 
Q 1125 2100 912 1900 
Q 700 1700 687 1400 
z
M 775 3350 
Q 775 3100 950 2875 
Q 1125 2650 1500 2650 
Q 1875 2650 2062 2875 
Q 2250 3100 2237 3412 
Q 2225 3725 2012 3875 
Q 1800 4025 1437 4000 
Q 1075 3975 925 3787 
Q 775 3600 775 3350 
z
" transform="scale(0.015625)"/>
       </defs>
       <use xlink:href="#SimHei-38"/>
       <use xlink:href="#SimHei-30" transform="translate(50 0)"/>
       <use xlink:href="#SimHei-30" transform="translate(100 0)"/>
      </g>
     </g>
    </g>
    <g id="ytick_3">
     <g id="line2d_23">
      <path d="M 55.2 215.072863 
L 705.79 215.072863 
" clip-path="url(#pbc7633cfc6)" style="fill: none; stroke: #b0b0b0; stroke-opacity: 0.3; stroke-width: 0.8; stroke-linecap: square"/>
     </g>
     <g id="line2d_24">
      <g>
       <use xlink:href="#m0164d42f07" x="55.2" y="215.072863" style="stroke: #000000; stroke-width: 0.8"/>
      </g>
     </g>
     <g id="text_13">
      <!-- 1000 -->
      <g transform="translate(24.2 219.197863) scale(0.12 -0.12)">
       <use xlink:href="#SimHei-31"/>
       <use xlink:href="#SimHei-30" transform="translate(50 0)"/>
       <use xlink:href="#SimHei-30" transform="translate(100 0)"/>
       <use xlink:href="#SimHei-30" transform="translate(150 0)"/>
      </g>
     </g>
    </g>
    <g id="ytick_4">
     <g id="line2d_25">
      <path d="M 55.2 154.194597 
L 705.79 154.194597 
" clip-path="url(#pbc7633cfc6)" style="fill: none; stroke: #b0b0b0; stroke-opacity: 0.3; stroke-width: 0.8; stroke-linecap: square"/>
     </g>
     <g id="line2d_26">
      <g>
       <use xlink:href="#m0164d42f07" x="55.2" y="154.194597" style="stroke: #000000; stroke-width: 0.8"/>
      </g>
     </g>
     <g id="text_14">
      <!-- 1200 -->
      <g transform="translate(24.2 158.319597) scale(0.12 -0.12)">
       <use xlink:href="#SimHei-31"/>
       <use xlink:href="#SimHei-32" transform="translate(50 0)"/>
       <use xlink:href="#SimHei-30" transform="translate(100 0)"/>
       <use xlink:href="#SimHei-30" transform="translate(150 0)"/>
      </g>
     </g>
    </g>
    <g id="ytick_5">
     <g id="line2d_27">
      <path d="M 55.2 93.316331 
L 705.79 93.316331 
" clip-path="url(#pbc7633cfc6)" style="fill: none; stroke: #b0b0b0; stroke-opacity: 0.3; stroke-width: 0.8; stroke-linecap: square"/>
     </g>
     <g id="line2d_28">
      <g>
       <use xlink:href="#m0164d42f07" x="55.2" y="93.316331" style="stroke: #000000; stroke-width: 0.8"/>
      </g>
     </g>
     <g id="text_15">
      <!-- 1400 -->
      <g transform="translate(24.2 97.441331) scale(0.12 -0.12)">
       <use xlink:href="#SimHei-31"/>
       <use xlink:href="#SimHei-34" transform="translate(50 0)"/>
       <use xlink:href="#SimHei-30" transform="translate(100 0)"/>
       <use xlink:href="#SimHei-30" transform="translate(150 0)"/>
      </g>
     </g>
    </g>
    <g id="ytick_6">
     <g id="line2d_29">
      <path d="M 55.2 32.438065 
L 705.79 32.438065 
" clip-path="url(#pbc7633cfc6)" style="fill: none; stroke: #b0b0b0; stroke-opacity: 0.3; stroke-width: 0.8; stroke-linecap: square"/>
     </g>
     <g id="line2d_30">
      <g>
       <use xlink:href="#m0164d42f07" x="55.2" y="32.438065" style="stroke: #000000; stroke-width: 0.8"/>
      </g>
     </g>
     <g id="text_16">
      <!-- 1600 -->
      <g transform="translate(24.2 36.563065) scale(0.12 -0.12)">
       <use xlink:href="#SimHei-31"/>
       <use xlink:href="#SimHei-36" transform="translate(50 0)"/>
       <use xlink:href="#SimHei-30" transform="translate(100 0)"/>
       <use xlink:href="#SimHei-30" transform="translate(150 0)"/>
      </g>
     </g>
    </g>
    <g id="text_17">
     <!-- Total Reward -->
     <g transform="translate(18.2 252.105) rotate(-90) scale(0.16 -0.16)">
      <defs>
       <path id="SimHei-54" d="M 2850 3925 
L 1850 3925 
L 1850 125 
L 1275 125 
L 1275 3925 
L 275 3925 
L 275 4400 
L 2850 4400 
L 2850 3925 
z
" transform="scale(0.015625)"/>
       <path id="SimHei-74" d="M 2750 200 
Q 2625 150 2462 112 
Q 2300 75 2025 75 
Q 1575 75 1300 325 
Q 1025 575 1025 1025 
L 1025 2525 
L 175 2525 
L 175 2925 
L 1025 2925 
L 1025 3900 
L 1525 3900 
L 1525 2925 
L 2550 2925 
L 2550 2525 
L 1525 2525 
L 1525 1000 
Q 1525 800 1625 662 
Q 1725 525 2000 525 
Q 2275 525 2450 575 
Q 2625 625 2750 700 
L 2750 200 
z
" transform="scale(0.015625)"/>
       <path id="SimHei-61" d="M 2875 125 
L 2275 125 
Q 2225 175 2200 262 
Q 2175 350 2175 475 
Q 2000 275 1750 175 
Q 1500 75 1225 75 
Q 825 75 550 275 
Q 275 475 275 850 
Q 275 1225 525 1450 
Q 775 1675 1300 1750 
Q 1650 1800 1912 1875 
Q 2175 1950 2175 2075 
Q 2175 2225 2062 2375 
Q 1950 2525 1575 2525 
Q 1275 2525 1137 2412 
Q 1000 2300 950 2100 
L 400 2100 
Q 450 2500 762 2737 
Q 1075 2975 1575 2975 
Q 2125 2975 2400 2725 
Q 2675 2475 2675 2025 
L 2675 650 
Q 2675 500 2725 375 
Q 2775 250 2875 125 
z
M 2175 1050 
L 2175 1550 
Q 2025 1500 1887 1462 
Q 1750 1425 1425 1375 
Q 1050 1325 937 1200 
Q 825 1075 825 900 
Q 825 750 937 637 
Q 1050 525 1275 525 
Q 1500 525 1762 650 
Q 2025 775 2175 1050 
z
" transform="scale(0.015625)"/>
       <path id="SimHei-6c" d="M 1825 125 
L 1325 125 
L 1325 4400 
L 1825 4400 
L 1825 125 
z
" transform="scale(0.015625)"/>
       <path id="SimHei-20" transform="scale(0.015625)"/>
       <path id="SimHei-52" d="M 3000 125 
L 2400 125 
L 1500 1975 
L 850 1975 
L 850 125 
L 275 125 
L 275 4400 
L 1525 4400 
Q 2125 4400 2500 4112 
Q 2875 3825 2875 3175 
Q 2875 2675 2625 2400 
Q 2375 2125 2050 2050 
L 3000 125 
z
M 2300 3175 
Q 2300 3525 2087 3725 
Q 1875 3925 1400 3925 
L 850 3925 
L 850 2450 
L 1550 2450 
Q 1850 2450 2075 2612 
Q 2300 2775 2300 3175 
z
" transform="scale(0.015625)"/>
       <path id="SimHei-77" d="M 3075 2925 
L 2450 75 
L 1975 75 
L 1575 2250 
L 1525 2250 
L 1125 75 
L 650 75 
L 25 2925 
L 550 2925 
L 875 1050 
L 925 1050 
L 1275 2925 
L 1825 2925 
L 2175 1050 
L 2225 1050 
L 2550 2925 
L 3075 2925 
z
" transform="scale(0.015625)"/>
       <path id="SimHei-72" d="M 2500 2425 
Q 2025 2500 1700 2287 
Q 1375 2075 1150 1550 
L 1150 125 
L 650 125 
L 650 2925 
L 1150 2925 
L 1150 2200 
Q 1375 2600 1712 2787 
Q 2050 2975 2500 2975 
L 2500 2425 
z
" transform="scale(0.015625)"/>
      </defs>
      <use xlink:href="#SimHei-54"/>
      <use xlink:href="#SimHei-6f" transform="translate(50 0)"/>
      <use xlink:href="#SimHei-74" transform="translate(100 0)"/>
      <use xlink:href="#SimHei-61" transform="translate(150 0)"/>
      <use xlink:href="#SimHei-6c" transform="translate(200 0)"/>
      <use xlink:href="#SimHei-20" transform="translate(250 0)"/>
      <use xlink:href="#SimHei-52" transform="translate(300 0)"/>
      <use xlink:href="#SimHei-65" transform="translate(350 0)"/>
      <use xlink:href="#SimHei-77" transform="translate(400 0)"/>
      <use xlink:href="#SimHei-61" transform="translate(450 0)"/>
      <use xlink:href="#SimHei-72" transform="translate(500 0)"/>
      <use xlink:href="#SimHei-64" transform="translate(550 0)"/>
     </g>
    </g>
   </g>
   <g id="line2d_31">
    <path d="M 84.772273 170.946664 
L 86.254592 174.47215 
L 87.736912 183.1008 
L 89.219231 174.498742 
L 90.70155 163.421532 
L 92.18387 160.791676 
L 93.666189 157.682986 
L 95.148509 158.768372 
L 96.630828 159.668448 
L 98.113148 162.923436 
L 99.595467 174.30983 
L 101.077787 170.399238 
L 102.560106 170.068983 
L 104.042425 156.849308 
L 105.524745 155.017977 
L 107.007064 165.983238 
L 108.489384 172.02503 
L 109.971703 159.96635 
L 111.454023 156.128001 
L 112.936342 146.903411 
L 114.418661 148.860588 
L 115.900981 143.579393 
L 117.3833 145.316507 
L 118.86562 141.597773 
L 120.347939 141.879702 
L 121.830259 135.580626 
L 123.312578 126.05634 
L 126.277217 111.268233 
L 129.241856 99.433481 
L 130.724175 95.075083 
L 132.206495 89.235258 
L 133.688814 110.4392 
L 139.618092 86.25499 
L 141.100411 81.419696 
L 142.582731 80.518627 
L 144.06505 77.724384 
L 148.512008 73.133263 
L 149.994328 81.896475 
L 151.476647 78.733757 
L 154.441286 73.453657 
L 155.923606 68.218539 
L 157.405925 67.447007 
L 158.888244 62.340436 
L 160.370564 65.108969 
L 161.852883 64.013985 
L 163.335203 62.165866 
L 164.817522 58.093435 
L 166.299842 70.205736 
L 167.782161 78.87074 
L 169.264481 77.520417 
L 173.711439 69.455528 
L 175.193758 69.181309 
L 176.676078 67.706689 
L 178.158397 90.431526 
L 179.640717 85.301971 
L 181.123036 83.793847 
L 182.605355 84.898467 
L 184.087675 81.194599 
L 185.569994 80.642876 
L 187.052314 73.710336 
L 188.534633 72.538723 
L 190.016953 71.147664 
L 191.499272 99.483189 
L 192.981591 97.546816 
L 194.463911 118.795557 
L 195.94623 109.757749 
L 197.42855 109.901653 
L 198.910869 112.688989 
L 200.393189 108.627579 
L 201.875508 105.76664 
L 203.357828 119.456074 
L 204.840147 112.125207 
L 206.322466 103.727465 
L 207.804786 126.928451 
L 209.287105 121.356883 
L 210.769425 118.328749 
L 212.251744 112.019226 
L 213.734064 113.881846 
L 215.216383 124.795134 
L 216.698702 145.183345 
L 219.663341 127.32748 
L 221.145661 137.454153 
L 222.62798 127.149644 
L 224.1103 126.130051 
L 225.592619 118.449206 
L 227.074938 135.05681 
L 228.557258 128.382766 
L 230.039577 127.39161 
L 231.521897 122.954575 
L 233.004216 113.166121 
L 234.486536 123.212364 
L 235.968855 148.487493 
L 237.451175 168.451416 
L 238.933494 186.35317 
L 240.415813 185.74593 
L 241.898133 209.561387 
L 243.380452 195.218696 
L 244.862772 193.547325 
L 246.345091 186.348519 
L 247.827411 187.031798 
L 249.30973 216.161869 
L 250.792049 231.901112 
L 252.274369 245.975821 
L 253.756688 255.742123 
L 255.239008 238.684063 
L 256.721327 249.567801 
L 258.203647 262.928871 
L 261.168285 248.031872 
L 262.650605 231.995849 
L 264.132924 217.30598 
L 265.615244 208.224569 
L 267.097563 212.495472 
L 268.579883 203.887139 
L 270.062202 209.833894 
L 271.544522 219.035639 
L 273.026841 207.946834 
L 275.99148 219.692978 
L 277.473799 233.587517 
L 278.956119 226.167778 
L 280.438438 222.409075 
L 281.920758 226.574581 
L 283.403077 233.151961 
L 284.885396 230.252256 
L 286.367716 245.196841 
L 287.850035 229.781279 
L 289.332355 230.877351 
L 290.814674 238.930301 
L 292.296994 231.939903 
L 293.779313 230.579842 
L 295.261632 228.566974 
L 296.743952 227.559984 
L 298.226271 224.449321 
L 299.708591 224.033441 
L 301.19091 226.520983 
L 302.67323 223.743341 
L 305.637869 203.074036 
L 307.120188 201.154138 
L 308.602507 201.478771 
L 310.084827 202.042137 
L 311.567146 203.43196 
L 313.049466 205.408793 
L 314.531785 212.756649 
L 316.014105 207.693168 
L 317.496424 194.730506 
L 318.978743 193.780159 
L 320.461063 187.154888 
L 321.943382 188.704124 
L 323.425702 191.52269 
L 324.908021 189.291713 
L 326.390341 198.900042 
L 327.87266 198.337173 
L 329.354979 201.115146 
L 330.837299 197.907694 
L 332.319618 189.890503 
L 333.801938 192.694955 
L 335.284257 201.118097 
L 336.766577 205.988477 
L 338.248896 207.115591 
L 339.731216 201.497381 
L 341.213535 197.118913 
L 342.695854 185.95945 
L 344.178174 184.547472 
L 345.660493 175.355194 
L 347.142813 174.98861 
L 348.625132 178.621931 
L 350.107452 186.664407 
L 351.589771 202.572748 
L 353.07209 208.264867 
L 354.55441 202.8394 
L 356.036729 195.625648 
L 357.519049 203.264587 
L 359.001368 191.930354 
L 360.483688 193.946317 
L 361.966007 200.665137 
L 363.448326 198.409835 
L 364.930646 191.481647 
L 366.412965 200.954303 
L 367.895285 188.877331 
L 369.377604 206.299825 
L 370.859924 207.346231 
L 372.342243 199.334722 
L 373.824563 190.408876 
L 375.306882 198.687995 
L 376.789201 201.022924 
L 378.271521 206.084553 
L 379.75384 197.052399 
L 381.23616 201.092968 
L 382.718479 208.409923 
L 384.200799 198.803843 
L 385.683118 192.964648 
L 387.165437 193.902418 
L 388.647757 191.878788 
L 390.130076 200.151623 
L 391.612396 198.314211 
L 393.094715 192.902249 
L 394.577035 184.632318 
L 396.059354 188.347966 
L 397.541674 185.818804 
L 399.023993 186.416019 
L 400.506312 175.934494 
L 401.988632 177.321235 
L 403.470951 172.435756 
L 404.953271 171.054831 
L 406.43559 177.659605 
L 407.91791 189.040186 
L 409.400229 182.286541 
L 410.882548 181.095962 
L 412.364868 176.153176 
L 413.847187 185.431434 
L 415.329507 173.052289 
L 416.811826 171.336794 
L 418.294146 167.267603 
L 419.776465 158.711847 
L 421.258784 155.720279 
L 422.741104 153.807053 
L 424.223423 159.904286 
L 425.705743 158.107512 
L 427.188062 166.320224 
L 428.670382 167.597695 
L 430.152701 165.157293 
L 431.635021 161.064622 
L 433.11734 169.770464 
L 434.599659 167.85791 
L 436.081979 169.908199 
L 437.564298 165.204801 
L 439.046618 157.453489 
L 440.528937 166.77721 
L 442.011257 170.451274 
L 443.493576 173.239734 
L 444.975895 168.069139 
L 446.458215 173.952602 
L 447.940534 173.295206 
L 449.422854 167.091287 
L 450.905173 176.001128 
L 452.387493 163.943224 
L 453.869812 164.172907 
L 455.352131 166.736776 
L 456.834451 166.672841 
L 458.31677 173.979809 
L 459.79909 169.514699 
L 461.281409 163.995883 
L 462.763729 165.635418 
L 464.246048 160.709428 
L 465.728368 168.923038 
L 467.210687 167.221462 
L 468.693006 170.980914 
L 470.175326 170.785461 
L 471.657645 171.338566 
L 473.139965 160.622221 
L 474.622284 175.83589 
L 476.104604 165.527588 
L 477.586923 163.333305 
L 479.069242 159.172029 
L 480.551562 150.820802 
L 482.033881 153.40023 
L 483.516201 148.509074 
L 484.99852 141.829665 
L 486.48084 144.958771 
L 487.963159 158.703634 
L 489.445478 162.045008 
L 490.927798 165.000763 
L 492.410117 164.767396 
L 493.892437 164.280582 
L 495.374756 166.510987 
L 498.339395 175.078923 
L 499.821715 169.165507 
L 501.304034 169.75039 
L 502.786353 167.763612 
L 505.750992 155.972353 
L 507.233312 171.697306 
L 508.715631 180.254382 
L 510.197951 191.086349 
L 511.68027 177.73422 
L 513.162589 176.372836 
L 514.644909 169.467239 
L 516.127228 174.726628 
L 517.609548 180.536784 
L 519.091867 188.855372 
L 520.574187 205.769459 
L 522.056506 207.893648 
L 523.538825 203.387868 
L 525.021145 191.894997 
L 526.503464 193.204244 
L 527.985784 195.206756 
L 529.468103 194.141177 
L 530.950423 194.333542 
L 532.432742 190.799371 
L 533.915062 188.528101 
L 535.397381 192.853731 
L 536.8797 183.823557 
L 538.36202 178.093507 
L 539.844339 183.322169 
L 541.326659 181.24934 
L 542.808978 179.446777 
L 545.773617 200.573927 
L 547.255936 197.067457 
L 548.738256 197.761461 
L 550.220575 190.811961 
L 551.702895 201.512127 
L 553.185214 188.512424 
L 554.667534 202.308533 
L 556.149853 187.623843 
L 557.632172 188.814439 
L 559.114492 177.785264 
L 560.596811 172.518274 
L 562.079131 172.311589 
L 563.56145 169.877477 
L 565.04377 164.789605 
L 566.526089 168.526972 
L 568.008409 165.805696 
L 569.490728 167.626345 
L 570.973047 159.660103 
L 572.455367 159.147501 
L 573.937686 164.422081 
L 575.420006 163.262014 
L 576.902325 159.762598 
L 578.384645 155.015151 
L 579.866964 161.098153 
L 581.349283 158.006683 
L 582.831603 162.868119 
L 584.313922 157.419776 
L 585.796242 168.405837 
L 587.278561 180.448874 
L 588.760881 189.294014 
L 590.2432 188.725953 
L 591.725519 194.84783 
L 593.207839 191.861919 
L 594.690158 190.680567 
L 596.172478 178.628304 
L 597.654797 169.293912 
L 599.137117 170.424304 
L 600.619436 164.104401 
L 602.101756 161.887904 
L 603.584075 166.785217 
L 605.066394 165.094805 
L 606.548714 171.748073 
L 608.031033 165.012337 
L 609.513353 165.59485 
L 610.995672 161.613989 
L 612.477992 163.501761 
L 613.960311 167.490412 
L 615.44263 153.770626 
L 616.92495 148.143591 
L 618.407269 145.114126 
L 619.889589 148.060411 
L 621.371908 145.086814 
L 622.854228 155.888643 
L 624.336547 162.805826 
L 625.818866 161.644626 
L 627.301186 159.56997 
L 628.783505 159.707059 
L 630.265825 161.268698 
L 631.748144 161.131688 
L 633.230464 160.247025 
L 634.712783 175.458985 
L 636.195103 178.706851 
L 637.677422 170.921142 
L 639.159741 165.631795 
L 640.642061 173.516698 
L 643.6067 178.448736 
L 645.089019 168.987467 
L 646.571339 160.967823 
L 648.053658 158.334525 
L 649.535977 181.036018 
L 651.018297 178.280926 
L 652.500616 180.332535 
L 653.982936 184.47655 
L 655.465255 179.453321 
L 656.947575 176.733487 
L 658.429894 184.988665 
L 659.912213 185.216537 
L 661.394533 177.375874 
L 662.876852 179.077168 
L 664.359172 183.600254 
L 665.841491 186.694916 
L 667.323811 182.876615 
L 668.80613 170.24133 
L 670.28845 177.581756 
L 671.770769 171.61267 
L 673.253088 159.726933 
L 674.735408 160.119547 
L 676.217727 166.671371 
L 676.217727 166.671371 
" clip-path="url(#pbc7633cfc6)" style="fill: none; stroke: #1f77b4; stroke-width: 1.5; stroke-linecap: square"/>
   </g>
   <g id="line2d_32">
    <path d="M 84.772273 256.563568 
L 86.254592 243.855083 
L 87.736912 232.149156 
L 89.219231 231.979913 
L 90.70155 241.217504 
L 92.18387 239.923734 
L 93.666189 242.909812 
L 95.148509 240.412675 
L 96.630828 241.614408 
L 98.113148 236.315427 
L 99.595467 239.094207 
L 101.077787 239.227671 
L 102.560106 245.893904 
L 104.042425 241.720491 
L 105.524745 234.450232 
L 107.007064 230.579259 
L 108.489384 222.808542 
L 111.454023 226.161666 
L 112.936342 239.01725 
L 114.418661 229.184168 
L 115.900981 228.826864 
L 117.3833 221.502125 
L 118.86562 224.247618 
L 120.347939 220.294144 
L 121.830259 214.347508 
L 124.794897 216.072307 
L 126.277217 212.585388 
L 127.759536 204.878473 
L 129.241856 207.441206 
L 130.724175 204.367684 
L 132.206495 192.845592 
L 133.688814 193.801966 
L 135.171134 186.831478 
L 136.653453 187.845032 
L 138.135772 196.323724 
L 139.618092 202.729053 
L 141.100411 202.080536 
L 142.582731 196.888466 
L 144.06505 199.545017 
L 145.54737 199.897222 
L 147.029689 198.725465 
L 148.512008 196.225947 
L 149.994328 191.482651 
L 151.476647 196.000953 
L 154.441286 189.460287 
L 155.923606 191.301199 
L 157.405925 189.44363 
L 158.888244 191.053479 
L 160.370564 184.953023 
L 161.852883 184.791114 
L 163.335203 182.915398 
L 164.817522 176.837481 
L 166.299842 174.930035 
L 167.782161 180.365146 
L 169.264481 174.611351 
L 170.7468 171.912996 
L 172.229119 173.125206 
L 173.711439 174.015189 
L 175.193758 175.399267 
L 176.676078 170.158218 
L 178.158397 168.820515 
L 179.640717 168.027664 
L 181.123036 171.85273 
L 182.605355 171.650986 
L 184.087675 168.585921 
L 185.569994 167.580024 
L 187.052314 167.414818 
L 188.534633 167.982594 
L 190.016953 164.59003 
L 191.499272 159.69528 
L 192.981591 160.05198 
L 194.463911 154.907303 
L 195.94623 161.407819 
L 197.42855 158.739587 
L 198.910869 164.045621 
L 200.393189 165.726516 
L 201.875508 166.152573 
L 203.357828 159.346888 
L 204.840147 159.282495 
L 206.322466 159.567457 
L 207.804786 158.306085 
L 209.287105 157.588125 
L 212.251744 146.290323 
L 213.734064 142.457386 
L 215.216383 139.003777 
L 216.698702 141.629208 
L 218.181022 143.783787 
L 219.663341 140.282805 
L 221.145661 141.457653 
L 222.62798 142.478188 
L 224.1103 146.933101 
L 225.592619 146.161477 
L 227.074938 142.415964 
L 228.557258 142.034255 
L 230.039577 140.405421 
L 231.521897 139.598713 
L 233.004216 144.4268 
L 234.486536 138.19507 
L 235.968855 138.191639 
L 237.451175 132.114739 
L 240.415813 133.665359 
L 241.898133 129.105756 
L 243.380452 126.589708 
L 244.862772 125.63138 
L 246.345091 131.637808 
L 249.30973 131.009603 
L 250.792049 127.187774 
L 252.274369 128.218499 
L 253.756688 125.209107 
L 255.239008 123.376807 
L 256.721327 122.256442 
L 258.203647 118.737744 
L 259.685966 117.132998 
L 261.168285 114.352853 
L 262.650605 117.037151 
L 264.132924 118.46686 
L 265.615244 117.513334 
L 267.097563 119.032747 
L 268.579883 119.757353 
L 270.062202 122.334153 
L 271.544522 120.841297 
L 273.026841 117.998399 
L 274.50916 120.851893 
L 275.99148 121.046481 
L 277.473799 113.920249 
L 278.956119 113.975931 
L 280.438438 111.451986 
L 281.920758 107.988145 
L 283.403077 106.72332 
L 284.885396 106.476579 
L 286.367716 103.239732 
L 287.850035 104.199559 
L 289.332355 102.746189 
L 290.814674 100.979694 
L 292.296994 98.883708 
L 293.779313 98.591705 
L 295.261632 96.211933 
L 296.743952 91.24341 
L 298.226271 91.891679 
L 299.708591 91.601456 
L 302.67323 89.04666 
L 304.155549 87.289062 
L 307.120188 92.069708 
L 310.084827 87.556098 
L 311.567146 86.414457 
L 313.049466 86.832356 
L 314.531785 85.063794 
L 316.014105 84.372727 
L 317.496424 86.355465 
L 318.978743 91.770196 
L 320.461063 94.251228 
L 321.943382 90.766845 
L 323.425702 92.408725 
L 324.908021 90.225999 
L 326.390341 90.084512 
L 327.87266 91.627307 
L 329.354979 89.096583 
L 330.837299 95.945008 
L 332.319618 93.83866 
L 333.801938 85.394056 
L 335.284257 85.296385 
L 336.766577 83.416687 
L 338.248896 86.236379 
L 339.731216 88.614171 
L 341.213535 85.646023 
L 342.695854 86.526716 
L 344.178174 83.666753 
L 345.660493 82.389346 
L 347.142813 82.482437 
L 348.625132 81.967485 
L 350.107452 79.883892 
L 351.589771 80.246202 
L 353.07209 80.926767 
L 354.55441 80.031946 
L 356.036729 78.967908 
L 357.519049 73.767295 
L 359.001368 72.328242 
L 360.483688 72.527244 
L 361.966007 73.777573 
L 363.448326 76.579854 
L 364.930646 80.012321 
L 366.412965 81.942211 
L 367.895285 81.591899 
L 369.377604 83.2262 
L 370.859924 81.106391 
L 372.342243 81.4601 
L 373.824563 78.576595 
L 375.306882 77.118142 
L 376.789201 76.450432 
L 378.271521 73.954953 
L 379.75384 72.80547 
L 381.23616 72.862756 
L 382.718479 73.297277 
L 384.200799 73.957488 
L 385.683118 76.090098 
L 387.165437 73.263125 
L 388.647757 73.496551 
L 390.130076 72.194617 
L 391.612396 71.368511 
L 393.094715 72.205173 
L 394.577035 70.238324 
L 397.541674 70.587329 
L 399.023993 67.942404 
L 400.506312 67.409919 
L 401.988632 68.467264 
L 403.470951 72.434618 
L 404.953271 73.88419 
L 406.43559 69.643507 
L 407.91791 71.480395 
L 409.400229 72.618811 
L 410.882548 68.064803 
L 412.364868 70.947955 
L 413.847187 70.902918 
L 415.329507 70.587422 
L 416.811826 71.44856 
L 418.294146 69.477459 
L 419.776465 68.19159 
L 421.258784 67.838394 
L 422.741104 68.058892 
L 424.223423 65.096704 
L 425.705743 64.536339 
L 427.188062 62.818412 
L 428.670382 60.344804 
L 430.152701 63.86343 
L 431.635021 63.9699 
L 433.11734 62.153954 
L 434.599659 63.875653 
L 436.081979 65.022484 
L 439.046618 65.730577 
L 440.528937 65.71099 
L 442.011257 63.49813 
L 443.493576 63.609577 
L 444.975895 63.072654 
L 446.458215 64.926238 
L 447.940534 65.594788 
L 449.422854 65.175896 
L 450.905173 63.559918 
L 452.387493 63.098961 
L 453.869812 63.136375 
L 455.352131 61.858111 
L 456.834451 60.012657 
L 458.31677 59.339857 
L 459.79909 60.633366 
L 461.281409 58.38958 
L 462.763729 59.598362 
L 464.246048 60.338518 
L 465.728368 58.318452 
L 467.210687 62.083639 
L 468.693006 63.357031 
L 470.175326 60.712946 
L 471.657645 60.746658 
L 473.139965 60.030629 
L 474.622284 61.792347 
L 476.104604 58.244661 
L 477.586923 60.150988 
L 479.069242 60.069956 
L 480.551562 58.742286 
L 482.033881 59.67576 
L 483.516201 61.967618 
L 484.99852 60.667211 
L 486.48084 61.042931 
L 487.963159 60.812009 
L 489.445478 58.551599 
L 490.927798 58.055092 
L 492.410117 56.2347 
L 493.892437 57.316028 
L 496.857076 56.487701 
L 498.339395 58.437785 
L 501.304034 55.419222 
L 502.786353 54.957409 
L 504.268673 53.687578 
L 505.750992 53.967848 
L 507.233312 54.951014 
L 508.715631 55.091939 
L 510.197951 56.827902 
L 511.68027 56.097727 
L 513.162589 58.612392 
L 514.644909 58.670872 
L 516.127228 60.039376 
L 517.609548 62.476472 
L 519.091867 65.87466 
L 520.574187 65.304529 
L 522.056506 65.643072 
L 523.538825 65.07477 
L 525.021145 66.023249 
L 526.503464 65.77701 
L 527.985784 65.970913 
L 529.468103 62.45705 
L 530.950423 61.762261 
L 532.432742 62.244256 
L 533.915062 60.237885 
L 535.397381 59.019172 
L 536.8797 59.463942 
L 538.36202 56.860042 
L 539.844339 56.212902 
L 541.326659 59.131187 
L 542.808978 56.685946 
L 544.291298 56.036582 
L 545.773617 55.71825 
L 547.255936 54.931983 
L 548.738256 56.080607 
L 550.220575 56.887817 
L 551.702895 56.863424 
L 553.185214 54.733997 
L 554.667534 54.451959 
L 556.149853 53.849595 
L 557.632172 53.06447 
L 559.114492 51.90587 
L 560.596811 51.408729 
L 562.079131 53.542457 
L 563.56145 53.239775 
L 565.04377 55.38237 
L 566.526089 56.127149 
L 568.008409 54.570465 
L 569.490728 52.040276 
L 570.973047 50.492882 
L 572.455367 50.565744 
L 573.937686 49.449385 
L 575.420006 49.235851 
L 576.902325 49.583339 
L 578.384645 52.31005 
L 579.866964 51.29653 
L 581.349283 51.018706 
L 582.831603 53.745502 
L 584.313922 53.552139 
L 585.796242 52.653792 
L 587.278561 51.509126 
L 588.760881 51.201285 
L 591.725519 51.557131 
L 594.690158 53.815073 
L 596.172478 54.492464 
L 597.654797 55.494822 
L 599.137117 54.814064 
L 600.619436 51.696766 
L 602.101756 52.110875 
L 603.584075 53.052039 
L 605.066394 51.142874 
L 606.548714 52.972021 
L 608.031033 51.513424 
L 609.513353 51.652762 
L 610.995672 47.36105 
L 612.477992 46.095633 
L 613.960311 47.693678 
L 615.44263 47.320118 
L 616.92495 49.313916 
L 618.407269 50.437159 
L 619.889589 50.532846 
L 621.371908 50.310625 
L 625.818866 55.535663 
L 627.301186 53.491158 
L 628.783505 51.843412 
L 630.265825 51.306653 
L 631.748144 49.949457 
L 633.230464 47.954804 
L 634.712783 47.369357 
L 636.195103 47.573357 
L 637.677422 47.596896 
L 639.159741 48.844725 
L 640.642061 49.24364 
L 642.12438 49.895506 
L 643.6067 52.448057 
L 645.089019 51.888639 
L 646.571339 53.401768 
L 648.053658 53.155463 
L 649.535977 52.542437 
L 651.018297 54.193013 
L 652.500616 53.066752 
L 653.982936 52.227418 
L 655.465255 53.182621 
L 656.947575 53.690427 
L 658.429894 53.093699 
L 659.912213 52.935085 
L 661.394533 50.668254 
L 662.876852 51.937391 
L 664.359172 52.080854 
L 665.841491 53.429119 
L 667.323811 54.194555 
L 668.80613 55.110404 
L 670.28845 55.471777 
L 671.770769 55.123333 
L 673.253088 56.511819 
L 674.735408 53.032297 
L 676.217727 52.397557 
L 676.217727 52.397557 
" clip-path="url(#pbc7633cfc6)" style="fill: none; stroke: #ff7f0e; stroke-width: 1.5; stroke-linecap: square"/>
   </g>
   <g id="line2d_33">
    <path d="M 84.772273 175.751927 
L 86.254592 184.203164 
L 87.736912 183.144875 
L 89.219231 180.124674 
L 90.70155 174.986166 
L 92.18387 176.182982 
L 93.666189 175.511158 
L 95.148509 171.635382 
L 96.630828 171.939329 
L 98.113148 168.382023 
L 99.595467 174.473573 
L 101.077787 178.698163 
L 102.560106 174.225851 
L 104.042425 173.397623 
L 105.524745 169.77423 
L 107.007064 169.888183 
L 108.489384 165.170153 
L 111.454023 160.658932 
L 112.936342 159.451895 
L 114.418661 161.456049 
L 115.900981 167.974748 
L 117.3833 169.866844 
L 118.86562 168.554855 
L 120.347939 164.068129 
L 121.830259 163.916466 
L 123.312578 155.843508 
L 124.794897 150.331497 
L 126.277217 141.688691 
L 127.759536 135.148718 
L 129.241856 129.843492 
L 130.724175 125.014531 
L 132.206495 124.973788 
L 133.688814 128.445454 
L 135.171134 133.381772 
L 136.653453 135.790139 
L 138.135772 134.167824 
L 139.618092 135.240718 
L 141.100411 141.166575 
L 142.582731 146.232984 
L 144.06505 150.777674 
L 145.54737 155.984212 
L 147.029689 158.059354 
L 148.512008 163.81995 
L 151.476647 173.649688 
L 152.958967 168.291556 
L 154.441286 168.131695 
L 155.923606 172.385139 
L 157.405925 174.060019 
L 158.888244 178.370826 
L 160.370564 177.67731 
L 161.852883 177.431303 
L 163.335203 178.104499 
L 164.817522 184.425945 
L 166.299842 183.746833 
L 167.782161 180.767019 
L 169.264481 182.865383 
L 170.7468 181.839441 
L 172.229119 187.792011 
L 175.193758 181.001926 
L 176.676078 178.688424 
L 178.158397 181.593373 
L 179.640717 179.598244 
L 181.123036 177.845523 
L 182.605355 175.821484 
L 184.087675 175.128444 
L 187.052314 173.059102 
L 188.534633 179.049689 
L 190.016953 178.016109 
L 191.499272 176.190994 
L 192.981591 174.619372 
L 194.463911 172.314509 
L 195.94623 171.662499 
L 197.42855 169.369566 
L 198.910869 167.351186 
L 200.393189 167.140865 
L 201.875508 163.503106 
L 203.357828 151.610053 
L 206.322466 132.496566 
L 207.804786 122.600373 
L 209.287105 114.358691 
L 210.769425 104.820829 
L 212.251744 100.852484 
L 213.734064 97.369595 
L 215.216383 91.4738 
L 216.698702 87.102371 
L 218.181022 83.612609 
L 219.663341 78.166928 
L 221.145661 76.663331 
L 222.62798 76.973648 
L 224.1103 76.519148 
L 225.592619 72.312785 
L 228.557258 69.346005 
L 230.039577 65.983806 
L 231.521897 62.074126 
L 233.004216 59.51141 
L 234.486536 58.069029 
L 235.968855 57.531125 
L 237.451175 56.511641 
L 238.933494 57.77313 
L 240.415813 56.51352 
L 241.898133 55.897011 
L 243.380452 57.111386 
L 244.862772 59.129844 
L 246.345091 60.129032 
L 247.827411 60.028211 
L 249.30973 58.227511 
L 250.792049 57.035834 
L 252.274369 56.431983 
L 253.756688 54.285396 
L 255.239008 50.783252 
L 256.721327 49.53576 
L 258.203647 48.571552 
L 259.685966 49.497116 
L 261.168285 49.444557 
L 262.650605 48.047477 
L 267.097563 52.827117 
L 268.579883 52.342992 
L 270.062202 49.749861 
L 271.544522 47.449058 
L 273.026841 48.586515 
L 274.50916 46.712828 
L 278.956119 52.510719 
L 280.438438 50.348301 
L 281.920758 51.537195 
L 283.403077 52.090685 
L 284.885396 50.250351 
L 286.367716 50.709256 
L 287.850035 50.965235 
L 289.332355 49.41913 
L 292.296994 49.229816 
L 293.779313 49.909698 
L 295.261632 49.912964 
L 296.743952 51.358735 
L 298.226271 49.885565 
L 299.708591 51.276491 
L 302.67323 50.734534 
L 304.155549 51.245753 
L 305.637869 50.152913 
L 307.120188 49.296511 
L 308.602507 49.914166 
L 310.084827 47.201642 
L 311.567146 49.188721 
L 313.049466 48.389084 
L 314.531785 48.048032 
L 316.014105 49.128716 
L 317.496424 49.424729 
L 318.978743 49.266192 
L 320.461063 51.325309 
L 321.943382 52.282129 
L 323.425702 52.096427 
L 324.908021 50.651937 
L 326.390341 52.132781 
L 327.87266 52.599183 
L 329.354979 52.428443 
L 330.837299 53.329849 
L 332.319618 53.9691 
L 333.801938 52.147029 
L 335.284257 51.454437 
L 336.766577 51.023268 
L 338.248896 52.666048 
L 339.731216 51.79439 
L 341.213535 51.318844 
L 342.695854 51.553655 
L 344.178174 49.615192 
L 345.660493 51.038341 
L 347.142813 50.677688 
L 348.625132 52.671233 
L 351.589771 53.057748 
L 353.07209 52.059618 
L 354.55441 54.012923 
L 356.036729 51.456479 
L 357.519049 49.39201 
L 359.001368 50.403643 
L 360.483688 51.968754 
L 361.966007 51.403791 
L 363.448326 52.200609 
L 364.930646 54.645173 
L 366.412965 52.053328 
L 367.895285 51.932436 
L 369.377604 50.299587 
L 370.859924 48.122423 
L 372.342243 48.34197 
L 373.824563 50.429238 
L 375.306882 51.898505 
L 376.789201 50.628466 
L 378.271521 50.45206 
L 379.75384 49.354986 
L 381.23616 48.498329 
L 382.718479 48.844247 
L 384.200799 50.807962 
L 385.683118 51.543605 
L 387.165437 49.336215 
L 388.647757 49.528331 
L 390.130076 49.523471 
L 391.612396 51.819744 
L 393.094715 50.048197 
L 394.577035 50.742775 
L 396.059354 49.411915 
L 397.541674 50.42821 
L 400.506312 53.734071 
L 401.988632 52.217002 
L 403.470951 50.232099 
L 404.953271 50.296937 
L 406.43559 49.939652 
L 407.91791 47.317664 
L 409.400229 49.065895 
L 410.882548 45.972604 
L 412.364868 46.285263 
L 413.847187 47.067576 
L 415.329507 45.487506 
L 416.811826 46.955088 
L 418.294146 47.555393 
L 419.776465 47.957686 
L 421.258784 46.354659 
L 422.741104 45.384158 
L 424.223423 45.380266 
L 425.705743 44.592083 
L 427.188062 44.668134 
L 428.670382 46.36007 
L 430.152701 49.272202 
L 431.635021 48.59173 
L 433.11734 47.359919 
L 434.599659 47.003901 
L 436.081979 44.617369 
L 437.564298 44.845557 
L 439.046618 44.899486 
L 440.528937 44.628084 
L 442.011257 44.076595 
L 443.493576 43.347601 
L 444.975895 43.96442 
L 446.458215 43.620873 
L 447.940534 40.862785 
L 449.422854 40.668636 
L 450.905173 41.725888 
L 453.869812 44.83621 
L 455.352131 44.179027 
L 456.834451 46.596145 
L 458.31677 48.266318 
L 459.79909 48.663625 
L 461.281409 48.358724 
L 462.763729 48.171254 
L 464.246048 49.737742 
L 465.728368 49.891583 
L 467.210687 50.210776 
L 468.693006 51.784057 
L 470.175326 52.83755 
L 471.657645 53.089228 
L 473.139965 52.076816 
L 474.622284 50.842353 
L 476.104604 49.309414 
L 477.586923 51.049908 
L 479.069242 48.70547 
L 480.551562 47.277975 
L 482.033881 49.532992 
L 483.516201 51.338831 
L 484.99852 51.475651 
L 486.48084 51.758012 
L 487.963159 50.256354 
L 489.445478 49.570216 
L 490.927798 47.755061 
L 492.410117 47.200903 
L 493.892437 45.114472 
L 495.374756 45.701276 
L 496.857076 45.167288 
L 498.339395 45.899893 
L 499.821715 47.806315 
L 501.304034 49.095959 
L 502.786353 49.280726 
L 504.268673 49.276936 
L 505.750992 48.534379 
L 507.233312 48.197964 
L 508.715631 50.098522 
L 510.197951 52.579743 
L 511.68027 52.253142 
L 513.162589 52.134249 
L 514.644909 52.914298 
L 516.127228 53.062801 
L 519.091867 53.036307 
L 522.056506 48.453018 
L 523.538825 49.157699 
L 525.021145 48.632365 
L 526.503464 47.082072 
L 527.985784 47.929125 
L 529.468103 47.584042 
L 530.950423 47.997916 
L 532.432742 48.615059 
L 533.915062 50.349858 
L 535.397381 50.214645 
L 536.8797 49.448735 
L 538.36202 50.678399 
L 539.844339 53.243699 
L 541.326659 52.770849 
L 542.808978 51.411221 
L 544.291298 53.484253 
L 545.773617 51.827905 
L 547.255936 50.766634 
L 548.738256 53.042829 
L 550.220575 51.320445 
L 551.702895 53.924684 
L 553.185214 50.493701 
L 554.667534 48.989392 
L 556.149853 49.406839 
L 557.632172 49.011434 
L 560.596811 49.383674 
L 562.079131 48.036453 
L 563.56145 51.565789 
L 565.04377 51.862576 
L 566.526089 53.781371 
L 568.008409 53.086915 
L 569.490728 51.370376 
L 570.973047 52.861202 
L 572.455367 52.64407 
L 573.937686 52.006721 
L 575.420006 52.830334 
L 576.902325 51.71939 
L 578.384645 51.420814 
L 579.866964 54.081429 
L 581.349283 51.46939 
L 582.831603 53.107909 
L 584.313922 52.706814 
L 585.796242 54.567013 
L 587.278561 54.330879 
L 588.760881 54.383959 
L 590.2432 52.717837 
L 591.725519 54.260658 
L 593.207839 52.55075 
L 596.172478 43.802853 
L 597.654797 44.203115 
L 599.137117 46.821012 
L 600.619436 46.72878 
L 602.101756 48.862798 
L 603.584075 47.397796 
L 605.066394 48.250809 
L 606.548714 48.839498 
L 608.031033 50.227417 
L 609.513353 51.102784 
L 610.995672 48.013391 
L 612.477992 49.481277 
L 613.960311 49.946532 
L 615.44263 48.344573 
L 616.92495 49.530948 
L 618.407269 50.089793 
L 619.889589 49.949906 
L 621.371908 50.103112 
L 622.854228 50.375867 
L 624.336547 49.183646 
L 625.818866 48.464942 
L 627.301186 49.100147 
L 628.783505 49.598838 
L 630.265825 49.306957 
L 631.748144 48.267371 
L 633.230464 48.060936 
L 634.712783 49.314159 
L 636.195103 48.003316 
L 637.677422 47.79713 
L 640.642061 46.553785 
L 642.12438 49.335787 
L 643.6067 47.797687 
L 645.089019 48.609505 
L 646.571339 45.870359 
L 648.053658 47.291586 
L 649.535977 48.447736 
L 652.500616 46.479667 
L 653.982936 45.729794 
L 655.465255 46.114391 
L 656.947575 45.421671 
L 658.429894 44.52049 
L 659.912213 44.653488 
L 661.394533 45.976315 
L 662.876852 45.097373 
L 664.359172 43.082117 
L 665.841491 44.147986 
L 667.323811 42.418324 
L 668.80613 43.482078 
L 670.28845 44.333277 
L 671.770769 47.044953 
L 673.253088 47.254175 
L 674.735408 44.81876 
L 676.217727 46.688609 
L 676.217727 46.688609 
" clip-path="url(#pbc7633cfc6)" style="fill: none; stroke: #2ca02c; stroke-width: 1.5; stroke-linecap: square"/>
   </g>
   <g id="line2d_34">
    <path d="M 84.772273 218.922692 
L 86.254592 220.570636 
L 87.736912 229.195155 
L 89.219231 238.528327 
L 90.70155 252.505111 
L 92.18387 257.820077 
L 93.666189 274.352544 
L 95.148509 270.608034 
L 96.630828 275.21326 
L 98.113148 273.411351 
L 99.595467 285.09036 
L 101.077787 294.681457 
L 102.560106 292.591873 
L 104.042425 294.051609 
L 105.524745 302.424697 
L 107.007064 306.665716 
L 108.489384 312.712562 
L 109.971703 314.483003 
L 111.454023 323.079072 
L 112.936342 319.763463 
L 114.418661 319.897502 
L 115.900981 307.153208 
L 117.3833 305.873198 
L 118.86562 305.374709 
L 120.347939 302.851358 
L 121.830259 308.38093 
L 123.312578 312.798034 
L 124.794897 316.327099 
L 126.277217 320.161162 
L 130.724175 342.381533 
L 132.206495 345.541079 
L 133.688814 356.784611 
L 135.171134 353.731588 
L 136.653453 354.997878 
L 138.135772 367.541364 
L 141.100411 307.519048 
L 142.582731 280.859787 
L 144.06505 257.557897 
L 145.54737 238.294351 
L 148.512008 204.936412 
L 149.994328 189.684896 
L 152.958967 167.105925 
L 154.441286 154.576566 
L 155.923606 144.402423 
L 157.405925 133.340742 
L 158.888244 126.517175 
L 160.370564 117.642267 
L 161.852883 114.020538 
L 163.335203 107.670554 
L 164.817522 102.581322 
L 166.299842 98.4092 
L 167.782161 95.953667 
L 170.7468 83.154892 
L 172.229119 79.62375 
L 173.711439 78.664813 
L 175.193758 78.40139 
L 178.158397 72.367334 
L 179.640717 71.841338 
L 181.123036 70.89166 
L 182.605355 67.901551 
L 184.087675 65.389971 
L 185.569994 62.641018 
L 187.052314 60.408214 
L 190.016953 53.098644 
L 191.499272 53.19376 
L 192.981591 55.002561 
L 194.463911 54.710275 
L 195.94623 54.812384 
L 197.42855 53.724654 
L 198.910869 55.802736 
L 200.393189 54.583063 
L 201.875508 52.989326 
L 203.357828 54.264093 
L 204.840147 57.236865 
L 206.322466 59.634034 
L 207.804786 60.484597 
L 209.287105 59.214941 
L 210.769425 56.811759 
L 212.251744 56.01522 
L 213.734064 55.527705 
L 215.216383 55.663113 
L 216.698702 54.424264 
L 218.181022 52.984538 
L 219.663341 52.910446 
L 221.145661 53.458908 
L 222.62798 53.17078 
L 224.1103 53.340771 
L 225.592619 52.558627 
L 227.074938 52.746434 
L 228.557258 54.144331 
L 230.039577 53.400433 
L 231.521897 51.915064 
L 233.004216 50.867626 
L 234.486536 48.137903 
L 235.968855 50.081842 
L 237.451175 49.584128 
L 238.933494 50.762408 
L 240.415813 50.195298 
L 241.898133 51.63717 
L 243.380452 51.15367 
L 244.862772 50.87266 
L 246.345091 50.40627 
L 247.827411 50.848087 
L 249.30973 50.040162 
L 250.792049 51.168096 
L 253.756688 50.201753 
L 255.239008 52.410602 
L 256.721327 49.82438 
L 258.203647 47.93852 
L 259.685966 51.672864 
L 262.650605 53.679659 
L 264.132924 52.864795 
L 265.615244 55.577745 
L 267.097563 56.127093 
L 268.579883 56.022123 
L 270.062202 55.725556 
L 271.544522 52.333995 
L 273.026841 51.45869 
L 274.50916 51.517421 
L 275.99148 51.282205 
L 277.473799 52.426714 
L 278.956119 51.85024 
L 280.438438 51.835342 
L 281.920758 53.210572 
L 283.403077 51.171867 
L 284.885396 49.836509 
L 286.367716 50.101325 
L 287.850035 49.140613 
L 289.332355 50.623611 
L 292.296994 50.001766 
L 293.779313 48.368218 
L 295.261632 49.05815 
L 296.743952 50.178271 
L 298.226271 49.927932 
L 299.708591 50.966775 
L 301.19091 49.492541 
L 302.67323 47.179926 
L 304.155549 46.885582 
L 305.637869 48.418294 
L 307.120188 52.81462 
L 308.602507 51.330532 
L 310.084827 51.888856 
L 311.567146 51.420384 
L 313.049466 51.241872 
L 314.531785 50.368117 
L 316.014105 54.490912 
L 317.496424 51.361703 
L 320.461063 51.29829 
L 321.943382 52.293967 
L 324.908021 49.855279 
L 326.390341 48.233234 
L 327.87266 47.23786 
L 329.354979 47.022064 
L 330.837299 45.643985 
L 332.319618 46.0375 
L 333.801938 46.734149 
L 335.284257 46.281419 
L 336.766577 47.391625 
L 338.248896 49.261301 
L 339.731216 49.657544 
L 341.213535 51.885233 
L 342.695854 51.407435 
L 344.178174 51.100294 
L 345.660493 53.01639 
L 347.142813 54.571203 
L 348.625132 54.81908 
L 350.107452 56.045523 
L 351.589771 55.212379 
L 353.07209 56.979318 
L 354.55441 57.068399 
L 356.036729 54.619249 
L 357.519049 53.156961 
L 359.001368 52.065674 
L 360.483688 48.65311 
L 361.966007 50.245833 
L 363.448326 49.565961 
L 364.930646 49.812929 
L 366.412965 50.532502 
L 367.895285 50.912185 
L 369.377604 50.726794 
L 370.859924 48.122757 
L 372.342243 47.119652 
L 373.824563 47.348769 
L 375.306882 49.649007 
L 376.789201 48.144249 
L 378.271521 49.731375 
L 379.75384 49.991507 
L 381.23616 49.846726 
L 382.718479 50.032955 
L 384.200799 48.998808 
L 385.683118 50.431941 
L 387.165437 50.167121 
L 388.647757 52.286695 
L 390.130076 53.737194 
L 391.612396 55.367008 
L 393.094715 55.130552 
L 394.577035 54.438844 
L 396.059354 53.936712 
L 397.541674 55.966284 
L 399.023993 56.948975 
L 400.506312 57.545179 
L 401.988632 55.302977 
L 403.470951 57.281471 
L 404.953271 55.169705 
L 406.43559 57.488631 
L 407.91791 58.663288 
L 409.400229 55.1974 
L 410.882548 54.93658 
L 412.364868 52.964339 
L 413.847187 53.437561 
L 415.329507 55.852903 
L 416.811826 53.867905 
L 418.294146 55.057527 
L 419.776465 54.727299 
L 421.258784 56.375459 
L 422.741104 56.460363 
L 424.223423 55.660837 
L 425.705743 54.241204 
L 427.188062 53.962325 
L 428.670382 55.256728 
L 430.152701 55.161879 
L 431.635021 54.76137 
L 433.11734 54.2211 
L 434.599659 55.344875 
L 436.081979 54.566642 
L 437.564298 55.934434 
L 439.046618 56.503317 
L 440.528937 55.444553 
L 442.011257 55.420703 
L 443.493576 56.067112 
L 444.975895 57.561122 
L 446.458215 57.790983 
L 447.940534 56.321381 
L 449.422854 55.522277 
L 450.905173 55.428227 
L 452.387493 53.64034 
L 453.869812 49.976444 
L 455.352131 50.649717 
L 456.834451 50.24278 
L 458.31677 51.735893 
L 459.79909 52.580664 
L 461.281409 52.90415 
L 462.763729 53.520413 
L 464.246048 53.837842 
L 465.728368 53.403833 
L 467.210687 53.098732 
L 470.175326 48.246594 
L 471.657645 48.093425 
L 473.139965 50.156266 
L 474.622284 52.825009 
L 476.104604 50.290736 
L 477.586923 49.302435 
L 479.069242 48.037546 
L 480.551562 47.266208 
L 482.033881 47.736878 
L 483.516201 46.344123 
L 484.99852 44.171538 
L 486.48084 45.80632 
L 487.963159 48.01231 
L 489.445478 47.013996 
L 490.927798 46.381556 
L 492.410117 47.427051 
L 493.892437 45.964476 
L 495.374756 45.972796 
L 496.857076 47.803805 
L 498.339395 49.276515 
L 499.821715 49.734732 
L 501.304034 51.116654 
L 502.786353 53.770629 
L 504.268673 51.412836 
L 505.750992 48.496824 
L 507.233312 49.346321 
L 508.715631 50.64499 
L 510.197951 50.204511 
L 511.68027 49.189965 
L 513.162589 49.022953 
L 514.644909 50.687723 
L 516.127228 49.148555 
L 517.609548 48.577999 
L 519.091867 52.281958 
L 522.056506 52.142367 
L 523.538825 52.40823 
L 525.021145 53.277261 
L 526.503464 53.529277 
L 527.985784 54.745544 
L 529.468103 53.895297 
L 530.950423 57.139837 
L 532.432742 56.65569 
L 533.915062 55.408857 
L 536.8797 54.926374 
L 538.36202 56.174729 
L 539.844339 55.240005 
L 541.326659 56.760349 
L 542.808978 54.109473 
L 544.291298 52.16481 
L 545.773617 51.132538 
L 548.738256 50.314226 
L 550.220575 52.105291 
L 551.702895 54.510148 
L 553.185214 54.138063 
L 554.667534 54.672157 
L 556.149853 51.498977 
L 557.632172 48.904259 
L 559.114492 50.439124 
L 560.596811 50.542049 
L 563.56145 54.944622 
L 566.526089 57.51556 
L 568.008409 56.480807 
L 569.490728 53.598769 
L 570.973047 52.756085 
L 572.455367 49.395511 
L 573.937686 54.168417 
L 575.420006 51.357078 
L 576.902325 49.889268 
L 578.384645 52.952224 
L 579.866964 53.907944 
L 581.349283 52.783626 
L 582.831603 49.950163 
L 584.313922 49.239349 
L 585.796242 49.003014 
L 587.278561 49.757069 
L 588.760881 52.250231 
L 590.2432 50.956719 
L 591.725519 50.753972 
L 593.207839 48.241623 
L 594.690158 47.812287 
L 596.172478 47.563269 
L 597.654797 46.770622 
L 599.137117 44.360222 
L 600.619436 45.451037 
L 602.101756 43.732933 
L 603.584075 44.191495 
L 605.066394 47.415962 
L 606.548714 46.83725 
L 608.031033 46.946778 
L 609.513353 47.946195 
L 610.995672 44.794483 
L 612.477992 44.633494 
L 613.960311 44.970412 
L 615.44263 46.070945 
L 616.92495 47.648578 
L 618.407269 48.740104 
L 619.889589 50.068385 
L 621.371908 52.741383 
L 622.854228 52.955823 
L 625.818866 52.769772 
L 630.265825 50.188344 
L 631.748144 52.833178 
L 633.230464 53.82702 
L 634.712783 52.105841 
L 636.195103 49.141339 
L 637.677422 51.070862 
L 639.159741 50.612407 
L 640.642061 52.154081 
L 642.12438 53.370001 
L 643.6067 53.215178 
L 645.089019 52.570264 
L 646.571339 53.087785 
L 648.053658 51.032392 
L 649.535977 52.962403 
L 651.018297 50.421372 
L 652.500616 49.367524 
L 653.982936 50.364992 
L 655.465255 53.021243 
L 656.947575 53.599505 
L 658.429894 53.082127 
L 659.912213 52.196614 
L 661.394533 52.980342 
L 662.876852 51.423542 
L 664.359172 53.206729 
L 665.841491 52.324852 
L 667.323811 50.067124 
L 668.80613 51.96689 
L 670.28845 51.707448 
L 671.770769 49.623597 
L 673.253088 51.095322 
L 674.735408 49.308693 
L 676.217727 48.310417 
L 676.217727 48.310417 
" clip-path="url(#pbc7633cfc6)" style="fill: none; stroke: #d62728; stroke-width: 1.5; stroke-linecap: square"/>
   </g>
   <g id="line2d_35">
    <path d="M 84.772273 220.177547 
L 86.254592 218.091517 
L 87.736912 212.551417 
L 89.219231 207.648517 
L 90.70155 197.182371 
L 92.18387 187.822315 
L 93.666189 176.706666 
L 95.148509 167.527403 
L 96.630828 161.199488 
L 98.113148 153.70056 
L 99.595467 143.669663 
L 104.042425 118.922738 
L 105.524745 114.285989 
L 107.007064 110.7315 
L 108.489384 103.601803 
L 109.971703 100.983154 
L 111.454023 95.454447 
L 112.936342 90.604829 
L 114.418661 86.934014 
L 115.900981 85.139457 
L 117.3833 80.852777 
L 118.86562 77.2604 
L 121.830259 70.639197 
L 123.312578 68.464793 
L 124.794897 67.921646 
L 126.277217 66.670504 
L 127.759536 63.74215 
L 129.241856 63.363987 
L 130.724175 61.274654 
L 132.206495 59.42573 
L 133.688814 60.398245 
L 135.171134 58.499114 
L 136.653453 58.219719 
L 138.135772 53.355311 
L 139.618092 51.576492 
L 141.100411 50.75633 
L 142.582731 52.836774 
L 144.06505 50.091375 
L 145.54737 50.054178 
L 147.029689 51.058775 
L 148.512008 49.828531 
L 149.994328 49.867065 
L 151.476647 51.319356 
L 152.958967 52.44796 
L 154.441286 50.793117 
L 155.923606 51.372177 
L 157.405925 48.290048 
L 158.888244 49.323384 
L 160.370564 48.51501 
L 161.852883 48.032868 
L 163.335203 48.150817 
L 164.817522 49.161508 
L 166.299842 49.296764 
L 167.782161 53.091909 
L 169.264481 53.231207 
L 170.7468 55.529073 
L 172.229119 54.289305 
L 173.711439 54.268466 
L 175.193758 52.972471 
L 176.676078 54.687584 
L 178.158397 54.542859 
L 179.640717 56.030581 
L 181.123036 54.643018 
L 182.605355 52.643421 
L 184.087675 51.317229 
L 185.569994 48.614268 
L 187.052314 49.659317 
L 188.534633 48.333579 
L 190.016953 45.808029 
L 191.499272 47.985614 
L 192.981591 46.748606 
L 194.463911 46.959506 
L 195.94623 46.395701 
L 197.42855 44.811836 
L 198.910869 42.909212 
L 200.393189 42.481722 
L 201.875508 43.634297 
L 203.357828 46.550004 
L 204.840147 43.293014 
L 206.322466 44.75189 
L 207.804786 45.799727 
L 209.287105 47.373716 
L 210.769425 44.392296 
L 212.251744 43.718188 
L 213.734064 44.174881 
L 215.216383 43.92925 
L 218.181022 46.486448 
L 219.663341 49.123778 
L 221.145661 47.120939 
L 222.62798 46.466137 
L 225.592619 46.408606 
L 227.074938 47.229093 
L 228.557258 47.897719 
L 230.039577 50.047815 
L 233.004216 48.863343 
L 234.486536 48.492799 
L 235.968855 49.776744 
L 238.933494 48.811815 
L 240.415813 49.674762 
L 241.898133 50.767113 
L 243.380452 51.359973 
L 244.862772 51.708796 
L 246.345091 52.775398 
L 247.827411 49.003313 
L 249.30973 49.61776 
L 250.792049 52.376579 
L 252.274369 52.825216 
L 253.756688 52.067888 
L 255.239008 51.690502 
L 256.721327 49.935898 
L 258.203647 50.694501 
L 259.685966 50.952191 
L 261.168285 47.91874 
L 262.650605 48.563031 
L 264.132924 49.018246 
L 265.615244 46.952158 
L 267.097563 46.080609 
L 268.579883 47.406272 
L 271.544522 48.248436 
L 273.026841 44.732265 
L 274.50916 43.505304 
L 275.99148 40.897348 
L 277.473799 41.327669 
L 278.956119 42.707433 
L 280.438438 47.275414 
L 281.920758 50.241724 
L 283.403077 48.236928 
L 284.885396 47.275187 
L 286.367716 49.429215 
L 289.332355 50.219364 
L 290.814674 50.869806 
L 292.296994 52.789733 
L 293.779313 50.51515 
L 295.261632 52.974352 
L 296.743952 52.595124 
L 298.226271 51.890027 
L 299.708591 48.513797 
L 301.19091 48.958564 
L 302.67323 50.702693 
L 304.155549 51.137806 
L 305.637869 54.145967 
L 307.120188 55.450184 
L 308.602507 56.279378 
L 310.084827 54.786552 
L 311.567146 52.836501 
L 313.049466 54.150934 
L 314.531785 52.192947 
L 316.014105 51.741609 
L 317.496424 54.139701 
L 318.978743 51.492541 
L 320.461063 51.619555 
L 321.943382 51.215977 
L 323.425702 51.915014 
L 324.908021 52.05655 
L 326.390341 51.755105 
L 327.87266 50.826583 
L 329.354979 48.946445 
L 330.837299 47.862145 
L 332.319618 50.585102 
L 333.801938 51.179775 
L 335.284257 50.550635 
L 336.766577 51.806101 
L 338.248896 53.479783 
L 341.213535 53.527811 
L 342.695854 53.874628 
L 344.178174 51.161485 
L 345.660493 52.914151 
L 347.142813 52.092936 
L 348.625132 53.110253 
L 350.107452 52.268977 
L 351.589771 49.863267 
L 353.07209 49.826495 
L 356.036729 46.801793 
L 357.519049 47.445137 
L 359.001368 45.39287 
L 360.483688 45.068042 
L 361.966007 46.837703 
L 363.448326 49.457617 
L 364.930646 49.812236 
L 366.412965 46.464074 
L 367.895285 46.616248 
L 369.377604 45.73012 
L 370.859924 48.072039 
L 372.342243 47.888148 
L 373.824563 46.068264 
L 375.306882 46.042741 
L 376.789201 46.241343 
L 378.271521 45.85563 
L 379.75384 44.395524 
L 381.23616 44.482662 
L 382.718479 44.172886 
L 384.200799 46.32352 
L 385.683118 46.769205 
L 387.165437 47.943578 
L 388.647757 50.75764 
L 390.130076 50.827886 
L 391.612396 50.047517 
L 393.094715 50.70314 
L 394.577035 52.265768 
L 396.059354 51.183456 
L 397.541674 51.020577 
L 399.023993 50.600428 
L 400.506312 48.458553 
L 401.988632 47.663287 
L 403.470951 47.939594 
L 404.953271 49.637383 
L 406.43559 48.491402 
L 407.91791 47.956207 
L 409.400229 48.799663 
L 410.882548 51.49898 
L 412.364868 52.850948 
L 413.847187 51.619525 
L 415.329507 51.200899 
L 416.811826 50.913499 
L 418.294146 52.34117 
L 419.776465 53.206109 
L 421.258784 55.734715 
L 422.741104 56.350702 
L 424.223423 55.49727 
L 425.705743 57.113627 
L 427.188062 56.295699 
L 428.670382 53.344953 
L 431.635021 49.068678 
L 433.11734 49.63554 
L 434.599659 48.004284 
L 436.081979 47.599692 
L 437.564298 46.24631 
L 439.046618 47.511739 
L 440.528937 46.443197 
L 442.011257 48.57226 
L 443.493576 49.315226 
L 444.975895 49.409666 
L 446.458215 50.963868 
L 447.940534 49.614127 
L 449.422854 48.459716 
L 450.905173 49.125892 
L 452.387493 47.321201 
L 453.869812 49.478917 
L 455.352131 49.426431 
L 456.834451 48.661577 
L 458.31677 50.833797 
L 459.79909 49.943762 
L 461.281409 49.317233 
L 462.763729 50.142118 
L 464.246048 50.290771 
L 467.210687 52.253452 
L 468.693006 52.745436 
L 470.175326 52.915659 
L 471.657645 51.49826 
L 473.139965 51.899787 
L 474.622284 52.08613 
L 476.104604 52.466647 
L 477.586923 51.726028 
L 479.069242 52.690736 
L 480.551562 54.944495 
L 482.033881 56.922134 
L 483.516201 56.441925 
L 486.48084 57.758084 
L 487.963159 56.252173 
L 489.445478 54.500953 
L 490.927798 52.96849 
L 492.410117 52.865145 
L 493.892437 49.662607 
L 495.374756 50.294214 
L 496.857076 48.358134 
L 498.339395 48.724357 
L 499.821715 49.323582 
L 501.304034 48.208001 
L 502.786353 48.088957 
L 504.268673 48.193646 
L 505.750992 49.464502 
L 507.233312 48.96627 
L 508.715631 49.580319 
L 510.197951 50.617444 
L 513.162589 51.471011 
L 514.644909 51.695316 
L 516.127228 50.895074 
L 517.609548 50.681534 
L 519.091867 51.366484 
L 520.574187 50.899072 
L 522.056506 50.024868 
L 523.538825 53.968478 
L 525.021145 53.426419 
L 526.503464 51.303917 
L 527.985784 50.713255 
L 529.468103 50.52323 
L 530.950423 49.538915 
L 532.432742 47.973963 
L 533.915062 50.547299 
L 535.397381 48.825711 
L 536.8797 46.329138 
L 538.36202 48.165972 
L 539.844339 49.562465 
L 541.326659 46.923808 
L 542.808978 45.990807 
L 544.291298 47.769497 
L 545.773617 47.467272 
L 547.255936 47.985674 
L 548.738256 49.897605 
L 550.220575 50.008724 
L 551.702895 51.136336 
L 553.185214 53.016395 
L 554.667534 55.399336 
L 556.149853 55.401468 
L 557.632172 54.161804 
L 559.114492 53.574241 
L 560.596811 52.544158 
L 562.079131 49.61034 
L 563.56145 50.528853 
L 565.04377 49.797609 
L 566.526089 49.31605 
L 568.008409 49.222276 
L 569.490728 47.337331 
L 570.973047 49.651938 
L 572.455367 49.081231 
L 573.937686 47.737422 
L 575.420006 45.788723 
L 576.902325 43.592376 
L 578.384645 45.933873 
L 579.866964 47.382292 
L 581.349283 47.910898 
L 582.831603 48.23258 
L 584.313922 47.189282 
L 585.796242 47.686414 
L 587.278561 48.644737 
L 588.760881 48.411997 
L 590.2432 47.674924 
L 591.725519 48.211592 
L 593.207839 50.508627 
L 594.690158 49.475534 
L 596.172478 47.986878 
L 599.137117 50.086378 
L 600.619436 49.638592 
L 602.101756 50.953195 
L 603.584075 54.036997 
L 605.066394 54.283777 
L 606.548714 53.008773 
L 608.031033 55.007715 
L 609.513353 54.141599 
L 610.995672 52.675679 
L 612.477992 52.161113 
L 613.960311 52.062184 
L 615.44263 52.668581 
L 616.92495 54.133939 
L 618.407269 53.527855 
L 619.889589 51.923582 
L 621.371908 53.591224 
L 622.854228 54.129315 
L 624.336547 55.691268 
L 625.818866 55.324188 
L 627.301186 55.95784 
L 628.783505 55.178264 
L 630.265825 56.571416 
L 631.748144 56.422209 
L 633.230464 56.964677 
L 634.712783 57.15968 
L 636.195103 56.30918 
L 637.677422 56.760673 
L 639.159741 56.460888 
L 640.642061 57.229063 
L 642.12438 54.728947 
L 643.6067 54.641994 
L 645.089019 53.701802 
L 646.571339 54.024752 
L 649.535977 56.622365 
L 651.018297 56.255912 
L 652.500616 57.48907 
L 653.982936 56.147799 
L 655.465255 55.686165 
L 656.947575 56.932515 
L 658.429894 55.644516 
L 659.912213 56.803295 
L 661.394533 55.9358 
L 662.876852 56.478973 
L 664.359172 55.384424 
L 665.841491 57.526999 
L 667.323811 57.565089 
L 668.80613 58.845608 
L 670.28845 57.480993 
L 673.253088 56.885221 
L 674.735408 57.690205 
L 676.217727 57.475874 
L 676.217727 57.475874 
" clip-path="url(#pbc7633cfc6)" style="fill: none; stroke: #9467bd; stroke-width: 1.5; stroke-linecap: square"/>
   </g>
   <g id="patch_3">
    <path d="M 55.2 383.885 
L 55.2 24.325 
" style="fill: none; stroke: #000000; stroke-width: 0.8; stroke-linejoin: miter; stroke-linecap: square"/>
   </g>
   <g id="patch_4">
    <path d="M 705.79 383.885 
L 705.79 24.325 
" style="fill: none; stroke: #000000; stroke-width: 0.8; stroke-linejoin: miter; stroke-linecap: square"/>
   </g>
   <g id="patch_5">
    <path d="M 55.2 383.885 
L 705.79 383.885 
" style="fill: none; stroke: #000000; stroke-width: 0.8; stroke-linejoin: miter; stroke-linecap: square"/>
   </g>
   <g id="patch_6">
    <path d="M 55.2 24.325 
L 705.79 24.325 
" style="fill: none; stroke: #000000; stroke-width: 0.8; stroke-linejoin: miter; stroke-linecap: square"/>
   </g>
   <g id="text_18">
    <!-- Reward Comparison -->
    <g transform="translate(312.495 18.325) scale(0.16 -0.16)">
     <defs>
      <path id="SimHei-43" d="M 2975 1825 
Q 2950 875 2575 475 
Q 2200 75 1675 75 
Q 1075 75 650 562 
Q 225 1050 225 2125 
Q 225 3300 637 3875 
Q 1050 4450 1700 4450 
Q 2250 4450 2612 4037 
Q 2975 3625 2950 2875 
L 2400 2875 
Q 2400 3425 2225 3700 
Q 2050 3975 1700 3975 
Q 1300 3975 1062 3562 
Q 825 3150 825 2175 
Q 825 1275 1062 912 
Q 1300 550 1675 550 
Q 1950 550 2175 812 
Q 2400 1075 2400 1825 
L 2975 1825 
z
" transform="scale(0.015625)"/>
      <path id="SimHei-6d" d="M 3050 125 
L 2550 125 
L 2550 2150 
Q 2550 2300 2500 2400 
Q 2450 2500 2300 2500 
Q 2125 2500 1975 2312 
Q 1825 2125 1825 1825 
L 1825 125 
L 1325 125 
L 1325 2150 
Q 1325 2300 1275 2400 
Q 1225 2500 1075 2500 
Q 900 2500 750 2312 
Q 600 2125 600 1825 
L 600 125 
L 100 125 
L 100 2925 
L 600 2925 
L 600 2550 
Q 725 2750 900 2862 
Q 1075 2975 1275 2975 
Q 1475 2975 1612 2862 
Q 1750 2750 1800 2550 
Q 1925 2750 2087 2862 
Q 2250 2975 2450 2975 
Q 2750 2975 2900 2812 
Q 3050 2650 3050 2350 
L 3050 125 
z
" transform="scale(0.015625)"/>
      <path id="SimHei-6e" d="M 2800 125 
L 2300 125 
L 2300 1925 
Q 2300 2225 2150 2400 
Q 2000 2575 1750 2575 
Q 1425 2575 1137 2237 
Q 850 1900 850 1400 
L 850 125 
L 350 125 
L 350 2925 
L 850 2925 
L 850 2400 
Q 1050 2675 1287 2825 
Q 1525 2975 1900 2975 
Q 2350 2975 2575 2725 
Q 2800 2475 2800 2100 
L 2800 125 
z
" transform="scale(0.015625)"/>
     </defs>
     <use xlink:href="#SimHei-52"/>
     <use xlink:href="#SimHei-65" transform="translate(50 0)"/>
     <use xlink:href="#SimHei-77" transform="translate(100 0)"/>
     <use xlink:href="#SimHei-61" transform="translate(150 0)"/>
     <use xlink:href="#SimHei-72" transform="translate(200 0)"/>
     <use xlink:href="#SimHei-64" transform="translate(250 0)"/>
     <use xlink:href="#SimHei-20" transform="translate(300 0)"/>
     <use xlink:href="#SimHei-43" transform="translate(350 0)"/>
     <use xlink:href="#SimHei-6f" transform="translate(400 0)"/>
     <use xlink:href="#SimHei-6d" transform="translate(450 0)"/>
     <use xlink:href="#SimHei-70" transform="translate(500 0)"/>
     <use xlink:href="#SimHei-61" transform="translate(550 0)"/>
     <use xlink:href="#SimHei-72" transform="translate(600 0)"/>
     <use xlink:href="#SimHei-69" transform="translate(650 0)"/>
     <use xlink:href="#SimHei-73" transform="translate(700 0)"/>
     <use xlink:href="#SimHei-6f" transform="translate(750 0)"/>
     <use xlink:href="#SimHei-6e" transform="translate(800 0)"/>
    </g>
   </g>
   <g id="legend_1">
    <g id="patch_7">
     <path d="M 610.99 377.885 
L 697.39 377.885 
Q 699.79 377.885 699.79 375.485 
L 699.79 297.185 
Q 699.79 294.785 697.39 294.785 
L 610.99 294.785 
Q 608.59 294.785 608.59 297.185 
L 608.59 375.485 
Q 608.59 377.885 610.99 377.885 
z
" style="fill: #ffffff; opacity: 0.8; stroke: #cccccc; stroke-linejoin: miter"/>
    </g>
    <g id="line2d_36">
     <path d="M 613.39 303.785 
L 625.39 303.785 
L 637.39 303.785 
" style="fill: none; stroke: #1f77b4; stroke-width: 1.5; stroke-linecap: square"/>
    </g>
    <g id="text_19">
     <!-- DDPG -->
     <g transform="translate(646.99 307.985) scale(0.12 -0.12)">
      <defs>
       <path id="SimHei-44" d="M 2925 2250 
Q 2925 1100 2437 612 
Q 1950 125 1125 125 
L 275 125 
L 275 4400 
L 1125 4400 
Q 2050 4400 2487 3900 
Q 2925 3400 2925 2250 
z
M 2325 2250 
Q 2325 3175 2025 3550 
Q 1725 3925 1125 3925 
L 850 3925 
L 850 600 
L 1125 600 
Q 1725 600 2025 962 
Q 2325 1325 2325 2250 
z
" transform="scale(0.015625)"/>
       <path id="SimHei-50" d="M 2950 3100 
Q 2950 2500 2600 2150 
Q 2250 1800 1625 1800 
L 900 1800 
L 900 125 
L 325 125 
L 325 4400 
L 1625 4400 
Q 2250 4400 2600 4050 
Q 2950 3700 2950 3100 
z
M 2375 3100 
Q 2375 3575 2150 3750 
Q 1925 3925 1475 3925 
L 900 3925 
L 900 2275 
L 1475 2275 
Q 1925 2275 2150 2450 
Q 2375 2625 2375 3100 
z
" transform="scale(0.015625)"/>
       <path id="SimHei-47" d="M 2850 75 
L 2425 75 
L 2350 425 
Q 2250 275 2037 175 
Q 1825 75 1575 75 
Q 1050 75 637 562 
Q 225 1050 225 2125 
Q 225 3300 600 3875 
Q 975 4450 1625 4450 
Q 2200 4450 2525 4025 
Q 2850 3600 2850 2925 
L 2300 2925 
Q 2300 3450 2125 3712 
Q 1950 3975 1625 3975 
Q 1225 3975 1025 3562 
Q 825 3150 825 2175 
Q 825 1250 1075 900 
Q 1325 550 1650 550 
Q 1975 550 2162 787 
Q 2350 1025 2350 1525 
L 2350 1800 
L 1575 1800 
L 1575 2275 
L 2850 2275 
L 2850 75 
z
" transform="scale(0.015625)"/>
      </defs>
      <use xlink:href="#SimHei-44"/>
      <use xlink:href="#SimHei-44" transform="translate(50 0)"/>
      <use xlink:href="#SimHei-50" transform="translate(100 0)"/>
      <use xlink:href="#SimHei-47" transform="translate(150 0)"/>
     </g>
    </g>
    <g id="line2d_37">
     <path d="M 613.39 319.685 
L 625.39 319.685 
L 637.39 319.685 
" style="fill: none; stroke: #ff7f0e; stroke-width: 1.5; stroke-linecap: square"/>
    </g>
    <g id="text_20">
     <!-- PPO -->
     <g transform="translate(646.99 323.885) scale(0.12 -0.12)">
      <defs>
       <path id="SimHei-4f" d="M 2950 2275 
Q 2950 1100 2587 587 
Q 2225 75 1575 75 
Q 925 75 550 587 
Q 175 1100 175 2275 
Q 175 3450 550 3950 
Q 925 4450 1575 4450 
Q 2225 4450 2587 3950 
Q 2950 3450 2950 2275 
z
M 2350 2275 
Q 2350 3325 2125 3650 
Q 1900 3975 1575 3975 
Q 1250 3975 1012 3650 
Q 775 3325 775 2275 
Q 775 1225 1012 887 
Q 1250 550 1575 550 
Q 1900 550 2125 887 
Q 2350 1225 2350 2275 
z
" transform="scale(0.015625)"/>
      </defs>
      <use xlink:href="#SimHei-50"/>
      <use xlink:href="#SimHei-50" transform="translate(50 0)"/>
      <use xlink:href="#SimHei-4f" transform="translate(100 0)"/>
     </g>
    </g>
    <g id="line2d_38">
     <path d="M 613.39 335.585 
L 625.39 335.585 
L 637.39 335.585 
" style="fill: none; stroke: #2ca02c; stroke-width: 1.5; stroke-linecap: square"/>
    </g>
    <g id="text_21">
     <!-- TD3 -->
     <g transform="translate(646.99 339.785) scale(0.12 -0.12)">
      <use xlink:href="#SimHei-54"/>
      <use xlink:href="#SimHei-44" transform="translate(50 0)"/>
      <use xlink:href="#SimHei-33" transform="translate(100 0)"/>
     </g>
    </g>
    <g id="line2d_39">
     <path d="M 613.39 351.485 
L 625.39 351.485 
L 637.39 351.485 
" style="fill: none; stroke: #d62728; stroke-width: 1.5; stroke-linecap: square"/>
    </g>
    <g id="text_22">
     <!-- GCN-DDQN -->
     <g transform="translate(646.99 355.685) scale(0.12 -0.12)">
      <defs>
       <path id="SimHei-4e" d="M 2850 125 
L 2225 125 
L 850 3225 
L 825 3225 
L 825 125 
L 250 125 
L 250 4400 
L 875 4400 
L 2250 1300 
L 2275 1300 
L 2275 4400 
L 2850 4400 
L 2850 125 
z
" transform="scale(0.015625)"/>
       <path id="SimHei-2d" d="M 2975 2125 
L 125 2125 
L 125 2525 
L 2975 2525 
L 2975 2125 
z
" transform="scale(0.015625)"/>
       <path id="SimHei-51" d="M 2950 2275 
Q 2950 1675 2862 1262 
Q 2775 850 2575 600 
L 2775 225 
L 2375 -200 
L 2150 225 
Q 2050 150 1900 112 
Q 1750 75 1575 75 
Q 925 75 550 587 
Q 175 1100 175 2275 
Q 175 3450 550 3950 
Q 925 4450 1575 4450 
Q 2225 4450 2587 3950 
Q 2950 3450 2950 2275 
z
M 2350 2275 
Q 2350 3325 2125 3650 
Q 1900 3975 1575 3975 
Q 1250 3975 1012 3650 
Q 775 3325 775 2275 
Q 775 1225 1012 887 
Q 1250 550 1575 550 
Q 1700 550 1800 587 
Q 1900 625 1950 675 
L 1550 1450 
L 1900 1875 
L 2250 1200 
Q 2300 1450 2325 1650 
Q 2350 1850 2350 2275 
z
" transform="scale(0.015625)"/>
      </defs>
      <use xlink:href="#SimHei-47"/>
      <use xlink:href="#SimHei-43" transform="translate(50 0)"/>
      <use xlink:href="#SimHei-4e" transform="translate(100 0)"/>
      <use xlink:href="#SimHei-2d" transform="translate(150 0)"/>
      <use xlink:href="#SimHei-44" transform="translate(200 0)"/>
      <use xlink:href="#SimHei-44" transform="translate(250 0)"/>
      <use xlink:href="#SimHei-51" transform="translate(300 0)"/>
      <use xlink:href="#SimHei-4e" transform="translate(350 0)"/>
     </g>
    </g>
    <g id="line2d_40">
     <path d="M 613.39 367.385 
L 625.39 367.385 
L 637.39 367.385 
" style="fill: none; stroke: #9467bd; stroke-width: 1.5; stroke-linecap: square"/>
    </g>
    <g id="text_23">
     <!-- GLDVTO -->
     <g transform="translate(646.99 371.585) scale(0.12 -0.12)">
      <defs>
       <path id="SimHei-4c" d="M 2900 125 
L 300 125 
L 300 4400 
L 875 4400 
L 875 600 
L 2900 600 
L 2900 125 
z
" transform="scale(0.015625)"/>
       <path id="SimHei-56" d="M 3050 4400 
L 1800 75 
L 1300 75 
L 50 4400 
L 650 4400 
L 1525 1125 
L 1575 1125 
L 2450 4400 
L 3050 4400 
z
" transform="scale(0.015625)"/>
      </defs>
      <use xlink:href="#SimHei-47"/>
      <use xlink:href="#SimHei-4c" transform="translate(50 0)"/>
      <use xlink:href="#SimHei-44" transform="translate(100 0)"/>
      <use xlink:href="#SimHei-56" transform="translate(150 0)"/>
      <use xlink:href="#SimHei-54" transform="translate(200 0)"/>
      <use xlink:href="#SimHei-4f" transform="translate(250 0)"/>
     </g>
    </g>
   </g>
  </g>
 </g>
 <defs>
  <clipPath id="pbc7633cfc6">
   <rect x="55.2" y="24.325" width="650.59" height="359.56"/>
  </clipPath>
 </defs>
</svg>
