<?xml version="1.0" encoding="utf-8" standalone="no"?>
<!DOCTYPE svg PUBLIC "-//W3C//DTD SVG 1.1//EN"
  "http://www.w3.org/Graphics/SVG/1.1/DTD/svg11.dtd">
<svg xmlns:xlink="http://www.w3.org/1999/xlink" width="614.4pt" height="397.915pt" viewBox="0 0 614.4 397.915" xmlns="http://www.w3.org/2000/svg" version="1.1">
 <metadata>
  <rdf:RDF xmlns:dc="http://purl.org/dc/elements/1.1/" xmlns:cc="http://creativecommons.org/ns#" xmlns:rdf="http://www.w3.org/1999/02/22-rdf-syntax-ns#">
   <cc:Work>
    <dc:type rdf:resource="http://purl.org/dc/dcmitype/StillImage"/>
    <dc:date>2026-06-26T19:29:07.581828</dc:date>
    <dc:format>image/svg+xml</dc:format>
    <dc:creator>
     <cc:Agent>
      <dc:title>Matplotlib v3.10.7, https://matplotlib.org/</dc:title>
     </cc:Agent>
    </dc:creator>
   </cc:Work>
  </rdf:RDF>
 </metadata>
 <defs>
  <style type="text/css">*{stroke-linejoin: round; stroke-linecap: butt}</style>
 </defs>
 <g id="figure_1">
  <g id="patch_1">
   <path d="M 0 397.915 
L 614.4 397.915 
L 614.4 -0 
L 0 -0 
z
" style="fill: #ffffff"/>
  </g>
  <g id="axes_1">
   <g id="patch_2">
    <path d="M 49.2 356.965 
L 607.2 356.965 
L 607.2 24.325 
L 49.2 24.325 
z
" style="fill: #ffffff"/>
   </g>
   <g id="matplotlib.axis_1">
    <g id="xtick_1">
     <g id="line2d_1">
      <path d="M 74.563636 356.965 
L 74.563636 24.325 
" clip-path="url(#p5faf8079c0)" style="fill: none; stroke: #b0b0b0; stroke-opacity: 0.3; stroke-width: 0.8; stroke-linecap: square"/>
     </g>
     <g id="line2d_2">
      <defs>
       <path id="m2cf0503c3d" d="M 0 0 
L 0 3.5 
" style="stroke: #000000; stroke-width: 0.8"/>
      </defs>
      <g>
       <use xlink:href="#m2cf0503c3d" x="74.563636" y="356.965" style="stroke: #000000; stroke-width: 0.8"/>
      </g>
     </g>
     <g id="text_1">
      <!-- 0 -->
      <g transform="translate(71.563636 372.215) scale(0.12 -0.12)">
       <defs>
        <path id="SimHei-30" d="M 225 2537 
Q 250 3200 412 3587 
Q 575 3975 875 4225 
Q 1175 4475 1612 4475 
Q 2050 4475 2375 4112 
Q 2700 3750 2800 3200 
Q 2900 2650 2862 1937 
Q 2825 1225 2612 775 
Q 2400 325 1975 150 
Q 1550 -25 1125 187 
Q 700 400 525 750 
Q 350 1100 275 1487 
Q 200 1875 225 2537 
z
M 750 2687 
Q 675 2000 800 1462 
Q 925 925 1212 700 
Q 1500 475 1800 612 
Q 2100 750 2237 1162 
Q 2375 1575 2375 2062 
Q 2375 2550 2337 2950 
Q 2300 3350 2112 3675 
Q 1925 4000 1612 4012 
Q 1300 4025 1062 3700 
Q 825 3375 750 2687 
z
" transform="scale(0.015625)"/>
       </defs>
       <use xlink:href="#SimHei-30"/>
      </g>
     </g>
    </g>
    <g id="xtick_2">
     <g id="line2d_3">
      <path d="M 138.131647 356.965 
L 138.131647 24.325 
" clip-path="url(#p5faf8079c0)" style="fill: none; stroke: #b0b0b0; stroke-opacity: 0.3; stroke-width: 0.8; stroke-linecap: square"/>
     </g>
     <g id="line2d_4">
      <g>
       <use xlink:href="#m2cf0503c3d" x="138.131647" y="356.965" style="stroke: #000000; stroke-width: 0.8"/>
      </g>
     </g>
     <g id="text_2">
      <!-- 50 -->
      <g transform="translate(132.131647 372.215) scale(0.12 -0.12)">
       <defs>
        <path id="SimHei-35" d="M 550 1325 
Q 725 650 1150 575 
Q 1575 500 1837 662 
Q 2100 825 2212 1087 
Q 2325 1350 2312 1675 
Q 2300 2000 2137 2225 
Q 1975 2450 1725 2525 
Q 1475 2600 1162 2525 
Q 850 2450 650 2175 
L 225 2225 
Q 275 2375 700 4375 
L 2675 4375 
L 2675 3925 
L 1075 3925 
Q 950 3250 825 2850 
Q 1200 3025 1525 3012 
Q 1850 3000 2150 2862 
Q 2450 2725 2587 2487 
Q 2725 2250 2787 2012 
Q 2850 1775 2837 1500 
Q 2825 1225 2725 937 
Q 2625 650 2425 462 
Q 2225 275 1937 162 
Q 1650 50 1275 75 
Q 900 100 562 350 
Q 225 600 100 1200 
L 550 1325 
z
" transform="scale(0.015625)"/>
       </defs>
       <use xlink:href="#SimHei-35"/>
       <use xlink:href="#SimHei-30" transform="translate(50 0)"/>
      </g>
     </g>
    </g>
    <g id="xtick_3">
     <g id="line2d_5">
      <path d="M 201.699658 356.965 
L 201.699658 24.325 
" clip-path="url(#p5faf8079c0)" style="fill: none; stroke: #b0b0b0; stroke-opacity: 0.3; stroke-width: 0.8; stroke-linecap: square"/>
     </g>
     <g id="line2d_6">
      <g>
       <use xlink:href="#m2cf0503c3d" x="201.699658" y="356.965" style="stroke: #000000; stroke-width: 0.8"/>
      </g>
     </g>
     <g id="text_3">
      <!-- 100 -->
      <g transform="translate(192.699658 372.215) scale(0.12 -0.12)">
       <defs>
        <path id="SimHei-31" d="M 1400 3600 
Q 1075 3275 575 2975 
L 575 3450 
Q 1200 3875 1600 4450 
L 1900 4450 
L 1900 150 
L 1400 150 
L 1400 3600 
z
" transform="scale(0.015625)"/>
       </defs>
       <use xlink:href="#SimHei-31"/>
       <use xlink:href="#SimHei-30" transform="translate(50 0)"/>
       <use xlink:href="#SimHei-30" transform="translate(100 0)"/>
      </g>
     </g>
    </g>
    <g id="xtick_4">
     <g id="line2d_7">
      <path d="M 265.267669 356.965 
L 265.267669 24.325 
" clip-path="url(#p5faf8079c0)" style="fill: none; stroke: #b0b0b0; stroke-opacity: 0.3; stroke-width: 0.8; stroke-linecap: square"/>
     </g>
     <g id="line2d_8">
      <g>
       <use xlink:href="#m2cf0503c3d" x="265.267669" y="356.965" style="stroke: #000000; stroke-width: 0.8"/>
      </g>
     </g>
     <g id="text_4">
      <!-- 150 -->
      <g transform="translate(256.267669 372.215) scale(0.12 -0.12)">
       <use xlink:href="#SimHei-31"/>
       <use xlink:href="#SimHei-35" transform="translate(50 0)"/>
       <use xlink:href="#SimHei-30" transform="translate(100 0)"/>
      </g>
     </g>
    </g>
    <g id="xtick_5">
     <g id="line2d_9">
      <path d="M 328.83568 356.965 
L 328.83568 24.325 
" clip-path="url(#p5faf8079c0)" style="fill: none; stroke: #b0b0b0; stroke-opacity: 0.3; stroke-width: 0.8; stroke-linecap: square"/>
     </g>
     <g id="line2d_10">
      <g>
       <use xlink:href="#m2cf0503c3d" x="328.83568" y="356.965" style="stroke: #000000; stroke-width: 0.8"/>
      </g>
     </g>
     <g id="text_5">
      <!-- 200 -->
      <g transform="translate(319.83568 372.215) scale(0.12 -0.12)">
       <defs>
        <path id="SimHei-32" d="M 300 250 
Q 325 625 650 925 
Q 975 1225 1475 1862 
Q 1975 2500 2125 2850 
Q 2275 3200 2237 3450 
Q 2200 3700 2000 3862 
Q 1800 4025 1537 4000 
Q 1275 3975 1037 3800 
Q 800 3625 675 3275 
L 200 3350 
Q 400 3925 712 4187 
Q 1025 4450 1450 4475 
Q 1700 4500 1900 4462 
Q 2100 4425 2312 4287 
Q 2525 4150 2662 3875 
Q 2800 3600 2762 3212 
Q 2725 2825 2375 2287 
Q 2025 1750 1025 600 
L 2825 600 
L 2825 150 
L 300 150 
L 300 250 
z
" transform="scale(0.015625)"/>
       </defs>
       <use xlink:href="#SimHei-32"/>
       <use xlink:href="#SimHei-30" transform="translate(50 0)"/>
       <use xlink:href="#SimHei-30" transform="translate(100 0)"/>
      </g>
     </g>
    </g>
    <g id="xtick_6">
     <g id="line2d_11">
      <path d="M 392.403691 356.965 
L 392.403691 24.325 
" clip-path="url(#p5faf8079c0)" style="fill: none; stroke: #b0b0b0; stroke-opacity: 0.3; stroke-width: 0.8; stroke-linecap: square"/>
     </g>
     <g id="line2d_12">
      <g>
       <use xlink:href="#m2cf0503c3d" x="392.403691" y="356.965" style="stroke: #000000; stroke-width: 0.8"/>
      </g>
     </g>
     <g id="text_6">
      <!-- 250 -->
      <g transform="translate(383.403691 372.215) scale(0.12 -0.12)">
       <use xlink:href="#SimHei-32"/>
       <use xlink:href="#SimHei-35" transform="translate(50 0)"/>
       <use xlink:href="#SimHei-30" transform="translate(100 0)"/>
      </g>
     </g>
    </g>
    <g id="xtick_7">
     <g id="line2d_13">
      <path d="M 455.971702 356.965 
L 455.971702 24.325 
" clip-path="url(#p5faf8079c0)" style="fill: none; stroke: #b0b0b0; stroke-opacity: 0.3; stroke-width: 0.8; stroke-linecap: square"/>
     </g>
     <g id="line2d_14">
      <g>
       <use xlink:href="#m2cf0503c3d" x="455.971702" y="356.965" style="stroke: #000000; stroke-width: 0.8"/>
      </g>
     </g>
     <g id="text_7">
      <!-- 300 -->
      <g transform="translate(446.971702 372.215) scale(0.12 -0.12)">
       <defs>
        <path id="SimHei-33" d="M 250 1225 
L 700 1300 
Q 800 975 1025 762 
Q 1250 550 1587 562 
Q 1925 575 2125 837 
Q 2325 1100 2300 1437 
Q 2275 1775 2037 1962 
Q 1800 2150 1275 2225 
L 1275 2550 
Q 1800 2600 2037 2825 
Q 2275 3050 2250 3412 
Q 2225 3775 1925 3937 
Q 1625 4100 1287 3975 
Q 950 3850 750 3275 
L 300 3350 
Q 450 3800 712 4100 
Q 975 4400 1425 4450 
Q 1875 4500 2212 4337 
Q 2550 4175 2687 3837 
Q 2825 3500 2725 3100 
Q 2625 2700 2150 2400 
Q 2500 2250 2687 1950 
Q 2875 1650 2812 1162 
Q 2750 675 2375 375 
Q 2000 75 1525 87 
Q 1050 100 700 387 
Q 350 675 250 1225 
z
" transform="scale(0.015625)"/>
       </defs>
       <use xlink:href="#SimHei-33"/>
       <use xlink:href="#SimHei-30" transform="translate(50 0)"/>
       <use xlink:href="#SimHei-30" transform="translate(100 0)"/>
      </g>
     </g>
    </g>
    <g id="xtick_8">
     <g id="line2d_15">
      <path d="M 519.539713 356.965 
L 519.539713 24.325 
" clip-path="url(#p5faf8079c0)" style="fill: none; stroke: #b0b0b0; stroke-opacity: 0.3; stroke-width: 0.8; stroke-linecap: square"/>
     </g>
     <g id="line2d_16">
      <g>
       <use xlink:href="#m2cf0503c3d" x="519.539713" y="356.965" style="stroke: #000000; stroke-width: 0.8"/>
      </g>
     </g>
     <g id="text_8">
      <!-- 350 -->
      <g transform="translate(510.539713 372.215) scale(0.12 -0.12)">
       <use xlink:href="#SimHei-33"/>
       <use xlink:href="#SimHei-35" transform="translate(50 0)"/>
       <use xlink:href="#SimHei-30" transform="translate(100 0)"/>
      </g>
     </g>
    </g>
    <g id="xtick_9">
     <g id="line2d_17">
      <path d="M 583.107724 356.965 
L 583.107724 24.325 
" clip-path="url(#p5faf8079c0)" style="fill: none; stroke: #b0b0b0; stroke-opacity: 0.3; stroke-width: 0.8; stroke-linecap: square"/>
     </g>
     <g id="line2d_18">
      <g>
       <use xlink:href="#m2cf0503c3d" x="583.107724" y="356.965" style="stroke: #000000; stroke-width: 0.8"/>
      </g>
     </g>
     <g id="text_9">
      <!-- 400 -->
      <g transform="translate(574.107724 372.215) scale(0.12 -0.12)">
       <defs>
        <path id="SimHei-34" d="M 2000 1100 
L 75 1100 
L 75 1525 
L 2100 4450 
L 2475 4450 
L 2475 1525 
L 3075 1525 
L 3075 1100 
L 2475 1100 
L 2475 150 
L 2000 150 
L 2000 1100 
z
M 2000 1525 
L 2000 3500 
L 600 1525 
L 2000 1525 
z
" transform="scale(0.015625)"/>
       </defs>
       <use xlink:href="#SimHei-34"/>
       <use xlink:href="#SimHei-30" transform="translate(50 0)"/>
       <use xlink:href="#SimHei-30" transform="translate(100 0)"/>
      </g>
     </g>
    </g>
    <g id="text_10">
     <!-- Episode -->
     <g transform="translate(300.2 388.715) scale(0.16 -0.16)">
      <defs>
       <path id="SimHei-45" d="M 2900 125 
L 350 125 
L 350 4400 
L 2775 4400 
L 2775 3925 
L 925 3925 
L 925 2600 
L 2625 2600 
L 2625 2125 
L 925 2125 
L 925 600 
L 2900 600 
L 2900 125 
z
" transform="scale(0.015625)"/>
       <path id="SimHei-70" d="M 2825 1525 
Q 2825 800 2475 425 
Q 2125 50 1625 50 
Q 1350 50 1150 162 
Q 950 275 800 500 
L 800 -800 
L 300 -800 
L 300 2925 
L 800 2925 
L 800 2550 
Q 950 2775 1150 2875 
Q 1350 2975 1625 2975 
Q 2125 2975 2475 2612 
Q 2825 2250 2825 1525 
z
M 2275 1525 
Q 2275 2000 2087 2262 
Q 1900 2525 1525 2525 
Q 1225 2525 1012 2262 
Q 800 2000 800 1525 
Q 800 1050 1012 775 
Q 1225 500 1525 500 
Q 1900 500 2087 775 
Q 2275 1050 2275 1525 
z
" transform="scale(0.015625)"/>
       <path id="SimHei-69" d="M 1800 3725 
L 1300 3725 
L 1300 4375 
L 1800 4375 
L 1800 3725 
z
M 1800 125 
L 1300 125 
L 1300 2925 
L 1800 2925 
L 1800 125 
z
" transform="scale(0.015625)"/>
       <path id="SimHei-73" d="M 2750 900 
Q 2750 500 2437 287 
Q 2125 75 1650 75 
Q 1050 75 725 312 
Q 400 550 400 1000 
L 900 1000 
Q 900 700 1112 600 
Q 1325 500 1625 500 
Q 1925 500 2075 612 
Q 2225 725 2225 900 
Q 2225 1025 2100 1150 
Q 1975 1275 1475 1350 
Q 900 1425 687 1637 
Q 475 1850 475 2200 
Q 475 2500 762 2737 
Q 1050 2975 1600 2975 
Q 2100 2975 2387 2750 
Q 2675 2525 2675 2150 
L 2175 2150 
Q 2175 2375 2012 2462 
Q 1850 2550 1600 2550 
Q 1275 2550 1137 2437 
Q 1000 2325 1000 2175 
Q 1000 2000 1125 1900 
Q 1250 1800 1650 1750 
Q 2300 1650 2525 1437 
Q 2750 1225 2750 900 
z
" transform="scale(0.015625)"/>
       <path id="SimHei-6f" d="M 2925 1525 
Q 2925 875 2525 475 
Q 2125 75 1575 75 
Q 1025 75 625 475 
Q 225 875 225 1525 
Q 225 2175 625 2575 
Q 1025 2975 1575 2975 
Q 2125 2975 2525 2575 
Q 2925 2175 2925 1525 
z
M 2375 1525 
Q 2375 2025 2125 2275 
Q 1875 2525 1575 2525 
Q 1275 2525 1025 2275 
Q 775 2025 775 1525 
Q 775 1025 1025 775 
Q 1275 525 1575 525 
Q 1875 525 2125 775 
Q 2375 1025 2375 1525 
z
" transform="scale(0.015625)"/>
       <path id="SimHei-64" d="M 2750 125 
L 2250 125 
L 2250 500 
Q 2100 275 1900 175 
Q 1700 75 1425 75 
Q 925 75 575 437 
Q 225 800 225 1525 
Q 225 2250 575 2625 
Q 925 3000 1425 3000 
Q 1700 3000 1900 2887 
Q 2100 2775 2250 2550 
L 2250 4400 
L 2750 4400 
L 2750 125 
z
M 2250 1525 
Q 2250 2000 2037 2275 
Q 1825 2550 1525 2550 
Q 1150 2550 962 2275 
Q 775 2000 775 1525 
Q 775 1050 962 787 
Q 1150 525 1525 525 
Q 1825 525 2037 787 
Q 2250 1050 2250 1525 
z
" transform="scale(0.015625)"/>
       <path id="SimHei-65" d="M 2850 1075 
Q 2800 625 2450 350 
Q 2100 75 1625 75 
Q 1025 75 637 462 
Q 250 850 250 1525 
Q 250 2200 637 2587 
Q 1025 2975 1625 2975 
Q 2150 2975 2487 2637 
Q 2825 2300 2825 1525 
L 800 1525 
Q 800 975 1037 750 
Q 1275 525 1625 525 
Q 1900 525 2075 662 
Q 2250 800 2300 1075 
L 2850 1075 
z
M 2250 1925 
Q 2200 2275 2025 2412 
Q 1850 2550 1575 2550 
Q 1325 2550 1125 2412 
Q 925 2275 825 1925 
L 2250 1925 
z
" transform="scale(0.015625)"/>
      </defs>
      <use xlink:href="#SimHei-45"/>
      <use xlink:href="#SimHei-70" transform="translate(50 0)"/>
      <use xlink:href="#SimHei-69" transform="translate(100 0)"/>
      <use xlink:href="#SimHei-73" transform="translate(150 0)"/>
      <use xlink:href="#SimHei-6f" transform="translate(200 0)"/>
      <use xlink:href="#SimHei-64" transform="translate(250 0)"/>
      <use xlink:href="#SimHei-65" transform="translate(300 0)"/>
     </g>
    </g>
   </g>
   <g id="matplotlib.axis_2">
    <g id="ytick_1">
     <g id="line2d_19">
      <path d="M 49.2 309.780166 
L 607.2 309.780166 
" clip-path="url(#p5faf8079c0)" style="fill: none; stroke: #b0b0b0; stroke-opacity: 0.3; stroke-width: 0.8; stroke-linecap: square"/>
     </g>
     <g id="line2d_20">
      <defs>
       <path id="mbbf2438eea" d="M 0 0 
L -3.5 0 
" style="stroke: #000000; stroke-width: 0.8"/>
      </defs>
      <g>
       <use xlink:href="#mbbf2438eea" x="49.2" y="309.780166" style="stroke: #000000; stroke-width: 0.8"/>
      </g>
     </g>
     <g id="text_11">
      <!-- 0.5 -->
      <g transform="translate(24.2 313.905166) scale(0.12 -0.12)">
       <defs>
        <path id="SimHei-2e" d="M 1075 125 
L 500 125 
L 500 675 
L 1075 675 
L 1075 125 
z
" transform="scale(0.015625)"/>
       </defs>
       <use xlink:href="#SimHei-30"/>
       <use xlink:href="#SimHei-2e" transform="translate(50 0)"/>
       <use xlink:href="#SimHei-35" transform="translate(100 0)"/>
      </g>
     </g>
    </g>
    <g id="ytick_2">
     <g id="line2d_21">
      <path d="M 49.2 262.573991 
L 607.2 262.573991 
" clip-path="url(#p5faf8079c0)" style="fill: none; stroke: #b0b0b0; stroke-opacity: 0.3; stroke-width: 0.8; stroke-linecap: square"/>
     </g>
     <g id="line2d_22">
      <g>
       <use xlink:href="#mbbf2438eea" x="49.2" y="262.573991" style="stroke: #000000; stroke-width: 0.8"/>
      </g>
     </g>
     <g id="text_12">
      <!-- 1.0 -->
      <g transform="translate(24.2 266.698991) scale(0.12 -0.12)">
       <use xlink:href="#SimHei-31"/>
       <use xlink:href="#SimHei-2e" transform="translate(50 0)"/>
       <use xlink:href="#SimHei-30" transform="translate(100 0)"/>
      </g>
     </g>
    </g>
    <g id="ytick_3">
     <g id="line2d_23">
      <path d="M 49.2 215.367816 
L 607.2 215.367816 
" clip-path="url(#p5faf8079c0)" style="fill: none; stroke: #b0b0b0; stroke-opacity: 0.3; stroke-width: 0.8; stroke-linecap: square"/>
     </g>
     <g id="line2d_24">
      <g>
       <use xlink:href="#mbbf2438eea" x="49.2" y="215.367816" style="stroke: #000000; stroke-width: 0.8"/>
      </g>
     </g>
     <g id="text_13">
      <!-- 1.5 -->
      <g transform="translate(24.2 219.492816) scale(0.12 -0.12)">
       <use xlink:href="#SimHei-31"/>
       <use xlink:href="#SimHei-2e" transform="translate(50 0)"/>
       <use xlink:href="#SimHei-35" transform="translate(100 0)"/>
      </g>
     </g>
    </g>
    <g id="ytick_4">
     <g id="line2d_25">
      <path d="M 49.2 168.16164 
L 607.2 168.16164 
" clip-path="url(#p5faf8079c0)" style="fill: none; stroke: #b0b0b0; stroke-opacity: 0.3; stroke-width: 0.8; stroke-linecap: square"/>
     </g>
     <g id="line2d_26">
      <g>
       <use xlink:href="#mbbf2438eea" x="49.2" y="168.16164" style="stroke: #000000; stroke-width: 0.8"/>
      </g>
     </g>
     <g id="text_14">
      <!-- 2.0 -->
      <g transform="translate(24.2 172.28664) scale(0.12 -0.12)">
       <use xlink:href="#SimHei-32"/>
       <use xlink:href="#SimHei-2e" transform="translate(50 0)"/>
       <use xlink:href="#SimHei-30" transform="translate(100 0)"/>
      </g>
     </g>
    </g>
    <g id="ytick_5">
     <g id="line2d_27">
      <path d="M 49.2 120.955465 
L 607.2 120.955465 
" clip-path="url(#p5faf8079c0)" style="fill: none; stroke: #b0b0b0; stroke-opacity: 0.3; stroke-width: 0.8; stroke-linecap: square"/>
     </g>
     <g id="line2d_28">
      <g>
       <use xlink:href="#mbbf2438eea" x="49.2" y="120.955465" style="stroke: #000000; stroke-width: 0.8"/>
      </g>
     </g>
     <g id="text_15">
      <!-- 2.5 -->
      <g transform="translate(24.2 125.080465) scale(0.12 -0.12)">
       <use xlink:href="#SimHei-32"/>
       <use xlink:href="#SimHei-2e" transform="translate(50 0)"/>
       <use xlink:href="#SimHei-35" transform="translate(100 0)"/>
      </g>
     </g>
    </g>
    <g id="ytick_6">
     <g id="line2d_29">
      <path d="M 49.2 73.74929 
L 607.2 73.74929 
" clip-path="url(#p5faf8079c0)" style="fill: none; stroke: #b0b0b0; stroke-opacity: 0.3; stroke-width: 0.8; stroke-linecap: square"/>
     </g>
     <g id="line2d_30">
      <g>
       <use xlink:href="#mbbf2438eea" x="49.2" y="73.74929" style="stroke: #000000; stroke-width: 0.8"/>
      </g>
     </g>
     <g id="text_16">
      <!-- 3.0 -->
      <g transform="translate(24.2 77.87429) scale(0.12 -0.12)">
       <use xlink:href="#SimHei-33"/>
       <use xlink:href="#SimHei-2e" transform="translate(50 0)"/>
       <use xlink:href="#SimHei-30" transform="translate(100 0)"/>
      </g>
     </g>
    </g>
    <g id="ytick_7">
     <g id="line2d_31">
      <path d="M 49.2 26.543114 
L 607.2 26.543114 
" clip-path="url(#p5faf8079c0)" style="fill: none; stroke: #b0b0b0; stroke-opacity: 0.3; stroke-width: 0.8; stroke-linecap: square"/>
     </g>
     <g id="line2d_32">
      <g>
       <use xlink:href="#mbbf2438eea" x="49.2" y="26.543114" style="stroke: #000000; stroke-width: 0.8"/>
      </g>
     </g>
     <g id="text_17">
      <!-- 3.5 -->
      <g transform="translate(24.2 30.668114) scale(0.12 -0.12)">
       <use xlink:href="#SimHei-33"/>
       <use xlink:href="#SimHei-2e" transform="translate(50 0)"/>
       <use xlink:href="#SimHei-35" transform="translate(100 0)"/>
      </g>
     </g>
    </g>
    <g id="text_18">
     <!-- Energy -->
     <g transform="translate(18.2 214.645) rotate(-90) scale(0.16 -0.16)">
      <defs>
       <path id="SimHei-6e" d="M 2800 125 
L 2300 125 
L 2300 1925 
Q 2300 2225 2150 2400 
Q 2000 2575 1750 2575 
Q 1425 2575 1137 2237 
Q 850 1900 850 1400 
L 850 125 
L 350 125 
L 350 2925 
L 850 2925 
L 850 2400 
Q 1050 2675 1287 2825 
Q 1525 2975 1900 2975 
Q 2350 2975 2575 2725 
Q 2800 2475 2800 2100 
L 2800 125 
z
" transform="scale(0.015625)"/>
       <path id="SimHei-72" d="M 2500 2425 
Q 2025 2500 1700 2287 
Q 1375 2075 1150 1550 
L 1150 125 
L 650 125 
L 650 2925 
L 1150 2925 
L 1150 2200 
Q 1375 2600 1712 2787 
Q 2050 2975 2500 2975 
L 2500 2425 
z
" transform="scale(0.015625)"/>
       <path id="SimHei-67" d="M 2975 2500 
Q 2800 2550 2637 2562 
Q 2475 2575 2300 2525 
Q 2375 2450 2425 2337 
Q 2475 2225 2475 2000 
Q 2475 1575 2187 1300 
Q 1900 1025 1475 1025 
Q 1375 1025 1212 1062 
Q 1050 1100 950 1150 
Q 875 1100 850 1050 
Q 825 1000 825 925 
Q 825 800 1000 737 
Q 1175 675 1625 675 
Q 2350 675 2612 475 
Q 2875 275 2875 -25 
Q 2875 -425 2487 -612 
Q 2100 -800 1575 -800 
Q 900 -800 575 -625 
Q 250 -450 250 -150 
Q 250 0 375 150 
Q 500 300 700 400 
Q 550 475 462 587 
Q 375 700 375 875 
Q 375 1025 487 1137 
Q 600 1250 750 1325 
Q 625 1450 550 1625 
Q 475 1800 475 2000 
Q 475 2425 762 2700 
Q 1050 2975 1475 2975 
Q 1700 2975 1862 2912 
Q 2025 2850 2150 2725 
Q 2350 2875 2550 2937 
Q 2750 3000 2975 2975 
L 2975 2500 
z
M 1975 2000 
Q 1975 2250 1850 2400 
Q 1725 2550 1475 2550 
Q 1225 2550 1100 2400 
Q 975 2250 975 2000 
Q 975 1750 1100 1600 
Q 1225 1450 1475 1450 
Q 1725 1450 1850 1600 
Q 1975 1750 1975 2000 
z
M 2400 -75 
Q 2400 25 2287 125 
Q 2175 225 1725 225 
Q 1625 225 1450 237 
Q 1275 250 1050 275 
Q 850 200 775 100 
Q 700 0 700 -100 
Q 700 -250 900 -350 
Q 1100 -450 1600 -450 
Q 2025 -450 2212 -337 
Q 2400 -225 2400 -75 
z
" transform="scale(0.015625)"/>
       <path id="SimHei-79" d="M 2900 2925 
L 1750 -100 
Q 1650 -450 1450 -625 
Q 1250 -800 950 -800 
Q 825 -800 712 -787 
Q 600 -775 500 -725 
L 500 -225 
Q 600 -275 700 -300 
Q 800 -325 875 -325 
Q 1075 -325 1150 -262 
Q 1225 -200 1300 25 
L 200 2925 
L 750 2925 
L 1550 725 
L 1575 725 
L 2350 2925 
L 2900 2925 
z
" transform="scale(0.015625)"/>
      </defs>
      <use xlink:href="#SimHei-45"/>
      <use xlink:href="#SimHei-6e" transform="translate(50 0)"/>
      <use xlink:href="#SimHei-65" transform="translate(100 0)"/>
      <use xlink:href="#SimHei-72" transform="translate(150 0)"/>
      <use xlink:href="#SimHei-67" transform="translate(200 0)"/>
      <use xlink:href="#SimHei-79" transform="translate(250 0)"/>
     </g>
    </g>
   </g>
   <g id="line2d_33">
    <path d="M 74.563636 280.747355 
L 75.834997 281.521079 
L 77.106357 276.803755 
L 78.377717 280.063489 
L 79.649077 280.257142 
L 80.920437 268.488256 
L 82.191798 264.494773 
L 83.463158 256.71923 
L 84.734518 260.550562 
L 86.005878 253.735172 
L 87.277239 253.1703 
L 88.548599 255.586931 
L 89.819959 256.811083 
L 91.091319 261.051972 
L 92.362679 258.54032 
L 93.63404 260.073072 
L 94.9054 264.375428 
L 97.44812 271.866382 
L 99.990841 278.534835 
L 101.262201 281.720505 
L 102.533561 275.034865 
L 103.804921 278.042344 
L 105.076282 268.079717 
L 107.619002 275.270353 
L 110.161722 281.665053 
L 112.704443 287.545591 
L 115.247163 292.837245 
L 116.518524 256.313565 
L 119.061244 264.636598 
L 121.603964 272.188902 
L 124.146685 278.94508 
L 126.689405 285.07031 
L 129.232126 290.565371 
L 130.503486 292.598936 
L 133.046206 297.377814 
L 135.588927 301.74541 
L 139.403008 307.45292 
L 141.945728 310.733798 
L 143.217088 312.27026 
L 144.488448 308.921523 
L 145.759809 309.851422 
L 148.302529 312.94998 
L 150.845249 315.778015 
L 153.38797 318.345826 
L 154.65933 309.653733 
L 157.202051 312.859683 
L 158.473411 310.395045 
L 162.287491 314.918037 
L 163.558852 316.228882 
L 164.830212 313.930041 
L 166.101572 303.110375 
L 167.372932 305.021826 
L 168.644293 304.93487 
L 169.915653 306.742014 
L 171.187013 303.80962 
L 172.458373 305.409022 
L 175.001094 308.97051 
L 176.272454 307.386131 
L 177.543814 307.045981 
L 178.815174 308.773344 
L 180.086535 307.686337 
L 183.900615 312.590414 
L 185.171975 304.739199 
L 186.443336 306.398136 
L 187.714696 300.319009 
L 190.257416 304.365611 
L 191.528776 289.205629 
L 192.800137 291.8192 
L 194.071497 288.546034 
L 195.342857 291.22605 
L 196.614217 284.830173 
L 197.885578 284.613037 
L 199.156938 287.498992 
L 200.428298 284.921053 
L 201.699658 286.031622 
L 202.971018 283.840212 
L 205.513739 270.545675 
L 206.785099 250.19454 
L 208.056459 244.92937 
L 209.32782 227.202011 
L 210.59918 232.874751 
L 211.87054 232.093243 
L 213.1419 234.815807 
L 214.41326 233.181665 
L 215.684621 208.600496 
L 216.955981 201.247616 
L 218.227341 201.015962 
L 219.498701 206.607962 
L 220.770062 213.121464 
L 222.041422 212.626419 
L 223.312782 192.38412 
L 224.584142 197.581148 
L 225.855502 203.996041 
L 227.126863 207.157825 
L 228.398223 213.497291 
L 229.669583 214.868669 
L 230.940943 215.9939 
L 232.212303 222.173204 
L 233.483664 227.586841 
L 234.755024 228.932131 
L 236.026384 227.452111 
L 237.297744 224.718171 
L 238.569105 218.336217 
L 239.840465 203.83717 
L 242.383185 182.776656 
L 243.654545 182.274295 
L 244.925906 182.744218 
L 246.197266 185.02222 
L 247.468626 168.208439 
L 248.739986 174.1732 
L 250.011347 182.165454 
L 251.282707 167.616074 
L 252.554067 171.94599 
L 253.825427 174.095662 
L 255.096787 180.40544 
L 256.368148 177.17098 
L 257.639508 179.110796 
L 258.910868 173.020041 
L 260.182228 175.231679 
L 261.453589 162.531035 
L 262.724949 160.863483 
L 263.996309 169.344918 
L 265.267669 171.99238 
L 266.539029 173.160699 
L 267.81039 178.33372 
L 269.08175 178.812022 
L 270.35311 176.607284 
L 271.62447 176.565398 
L 272.89583 172.994493 
L 274.167191 181.109435 
L 275.438551 179.397564 
L 276.709911 187.49167 
L 277.981271 194.832227 
L 279.252632 198.418739 
L 280.523992 201.392963 
L 281.795352 201.546128 
L 283.066712 206.011351 
L 284.338072 212.923541 
L 285.609433 214.514765 
L 286.880793 215.893149 
L 288.152153 211.678623 
L 289.423513 213.818412 
L 290.694874 219.917934 
L 291.966234 219.725377 
L 293.237594 213.037316 
L 294.508954 216.267025 
L 295.780314 217.505413 
L 297.051675 220.371294 
L 298.323035 226.168875 
L 299.594395 225.239059 
L 300.865755 226.400713 
L 302.137116 228.789729 
L 303.408476 230.239042 
L 304.679836 224.251194 
L 305.951196 221.903122 
L 307.222556 215.482198 
L 308.493917 218.493113 
L 309.765277 206.875571 
L 311.036637 193.382596 
L 312.307997 194.273426 
L 313.579357 196.691992 
L 314.850718 200.979912 
L 316.122078 183.857009 
L 317.393438 191.802634 
L 318.664798 194.778647 
L 319.936159 196.395 
L 321.207519 203.342712 
L 322.478879 207.062117 
L 323.750239 209.712514 
L 325.021599 202.943686 
L 326.29296 195.01257 
L 328.83568 202.378369 
L 330.10704 199.478117 
L 331.378401 206.67007 
L 332.649761 211.125525 
L 333.921121 209.904159 
L 335.192481 203.875688 
L 336.463841 174.047685 
L 337.735202 173.262738 
L 339.006562 176.170957 
L 340.277922 181.76365 
L 341.549282 181.593038 
L 344.092003 176.531912 
L 345.363363 184.81907 
L 346.634723 175.068478 
L 347.906083 177.295189 
L 349.177444 164.220376 
L 350.448804 157.755103 
L 351.720164 160.021615 
L 352.991524 165.597519 
L 354.262884 165.771557 
L 355.534245 174.680637 
L 356.805605 178.737813 
L 358.076965 178.696444 
L 359.348325 181.659238 
L 360.619686 185.947016 
L 361.891046 189.500079 
L 363.162406 195.095212 
L 364.433766 198.002447 
L 365.705126 196.734865 
L 366.976487 196.125869 
L 368.247847 193.921586 
L 369.519207 200.244563 
L 370.790567 192.254858 
L 372.061928 193.148481 
L 373.333288 189.474638 
L 374.604648 194.63462 
L 375.876008 198.670952 
L 377.147368 193.953683 
L 378.418729 200.981811 
L 379.690089 203.2041 
L 380.961449 201.842571 
L 382.232809 201.246228 
L 383.50417 205.628923 
L 384.77553 181.73289 
L 386.04689 186.758561 
L 387.31825 186.316198 
L 388.58961 184.555194 
L 391.132331 199.773939 
L 392.403691 206.632257 
L 393.675051 207.77975 
L 394.946411 205.84528 
L 396.217772 210.373436 
L 397.489132 210.904437 
L 398.760492 215.146209 
L 400.031852 220.892268 
L 401.303213 212.295641 
L 402.574573 216.639659 
L 403.845933 214.125232 
L 405.117293 209.067691 
L 406.388653 209.828916 
L 407.660014 216.434615 
L 408.931374 207.717912 
L 410.202734 208.589467 
L 411.474094 214.893436 
L 412.745455 219.337248 
L 414.016815 224.451552 
L 415.288175 219.91835 
L 416.559535 223.528 
L 417.830895 229.307291 
L 419.102256 224.875054 
L 420.373616 222.54848 
L 421.644976 228.361807 
L 422.916336 230.151859 
L 424.187697 232.520753 
L 425.459057 237.216808 
L 426.730417 236.390555 
L 428.001777 241.311612 
L 429.273137 242.057749 
L 430.544498 244.612478 
L 431.815858 240.427619 
L 433.087218 244.892511 
L 434.358578 247.248331 
L 435.629938 251.84505 
L 436.901299 241.681406 
L 438.172659 241.846191 
L 439.444019 229.272212 
L 440.715379 234.904435 
L 441.98674 233.491387 
L 443.2581 239.014919 
L 444.52946 233.297285 
L 445.80082 233.191687 
L 447.07218 226.90165 
L 448.343541 224.475269 
L 449.614901 208.418344 
L 450.886261 210.313005 
L 452.157621 216.499272 
L 453.428982 205.554 
L 454.700342 210.121044 
L 455.971702 216.135993 
L 457.243062 220.709072 
L 458.514422 221.587135 
L 459.785783 225.125988 
L 461.057143 226.531694 
L 462.328503 231.803988 
L 463.599863 234.026704 
L 464.871224 231.017296 
L 466.142584 229.75856 
L 467.413944 231.926356 
L 468.685304 230.965604 
L 469.956664 224.278377 
L 471.228025 220.609617 
L 472.499385 220.695496 
L 473.770745 226.55119 
L 475.042105 215.656463 
L 476.313465 219.452256 
L 477.584826 195.207354 
L 478.856186 202.544567 
L 480.127546 207.655602 
L 481.398906 211.099228 
L 483.941627 219.534478 
L 485.212987 214.160097 
L 486.484347 216.806529 
L 487.755707 219.784472 
L 489.027068 225.230312 
L 490.298428 228.292429 
L 492.841148 238.902159 
L 494.112509 226.909216 
L 495.383869 227.154595 
L 496.655229 229.712826 
L 497.926589 235.072812 
L 499.197949 237.97857 
L 500.46931 242.688661 
L 501.74067 241.72023 
L 503.01203 241.686598 
L 504.28339 233.743025 
L 505.554751 237.227888 
L 506.826111 231.390848 
L 508.097471 220.686084 
L 509.368831 218.962212 
L 510.640191 218.225023 
L 511.911552 215.77494 
L 513.182912 222.036496 
L 514.454272 224.416644 
L 515.725632 217.834743 
L 516.996992 224.027486 
L 518.268353 223.362302 
L 519.539713 220.985355 
L 520.811073 225.030869 
L 522.082433 230.422952 
L 523.353794 230.16557 
L 524.625154 235.619343 
L 525.896514 235.804437 
L 527.167874 233.385763 
L 528.439234 215.329274 
L 530.981955 227.567173 
L 532.253315 230.63895 
L 533.524675 234.088664 
L 534.796036 238.59709 
L 536.067396 231.995923 
L 537.338756 236.595921 
L 538.610116 220.985238 
L 539.881476 224.959487 
L 541.152837 226.785361 
L 542.424197 230.031578 
L 543.695557 230.874794 
L 544.966917 235.94073 
L 546.238278 223.257123 
L 547.509638 220.812368 
L 550.052358 231.967978 
L 551.323718 229.116834 
L 552.595079 224.593426 
L 553.866439 223.906989 
L 556.409159 235.09753 
L 557.680519 237.774236 
L 558.95188 235.370543 
L 560.22324 232.245394 
L 561.4946 235.36063 
L 564.037321 245.071707 
L 565.308681 247.208417 
L 566.580041 241.416675 
L 567.851401 230.597416 
L 569.122761 234.084741 
L 570.394122 239.277728 
L 571.665482 240.76617 
L 572.936842 236.877196 
L 574.208202 238.31327 
L 575.479563 243.454343 
L 576.750923 235.682982 
L 579.293643 245.760336 
L 580.565003 231.606502 
L 580.565003 231.606502 
" clip-path="url(#p5faf8079c0)" style="fill: none; stroke: #1f77b4; stroke-width: 1.2; stroke-linecap: square"/>
   </g>
   <g id="line2d_34">
    <path d="M 74.563636 244.994968 
L 77.106357 244.582276 
L 78.377717 245.820319 
L 79.649077 239.672506 
L 80.920437 235.540564 
L 82.191798 233.505165 
L 83.463158 233.066983 
L 84.734518 236.556405 
L 86.005878 231.435293 
L 87.277239 227.206625 
L 88.548599 221.834578 
L 89.819959 218.628577 
L 91.091319 220.854216 
L 92.362679 223.64127 
L 93.63404 227.012172 
L 94.9054 223.741227 
L 96.17676 219.760079 
L 97.44812 214.260521 
L 98.719481 202.53179 
L 99.990841 198.249846 
L 101.262201 192.898388 
L 102.533561 193.950816 
L 103.804921 195.623736 
L 105.076282 197.042738 
L 106.347642 195.320236 
L 107.619002 182.746489 
L 108.890362 186.002425 
L 110.161722 193.24428 
L 111.433083 195.049419 
L 112.704443 201.615885 
L 113.975803 203.449969 
L 115.247163 203.860294 
L 116.518524 203.458934 
L 117.789884 210.070014 
L 119.061244 209.763996 
L 120.332604 212.196192 
L 121.603964 206.921244 
L 122.875325 213.012247 
L 124.146685 215.390389 
L 126.689405 207.424852 
L 127.960766 204.025645 
L 129.232126 199.845981 
L 130.503486 201.54959 
L 131.774846 199.869191 
L 133.046206 191.984885 
L 134.317567 196.816479 
L 135.588927 185.876912 
L 136.860287 187.899792 
L 138.131647 177.673193 
L 139.403008 183.833221 
L 140.674368 186.052664 
L 141.945728 191.483935 
L 143.217088 190.945426 
L 144.488448 193.301177 
L 145.759809 190.805433 
L 147.031169 195.731113 
L 148.302529 188.90963 
L 150.845249 185.748404 
L 152.11661 178.467343 
L 153.38797 185.89957 
L 154.65933 188.055589 
L 155.93069 187.322955 
L 157.202051 185.181917 
L 158.473411 191.621558 
L 159.744771 189.634508 
L 161.016131 184.471605 
L 162.287491 185.552058 
L 163.558852 191.076658 
L 164.830212 195.747232 
L 166.101572 187.593325 
L 167.372932 188.226605 
L 168.644293 195.821172 
L 169.915653 189.129624 
L 171.187013 178.677074 
L 172.458373 181.860375 
L 173.729733 180.259258 
L 175.001094 188.166806 
L 176.272454 178.907974 
L 177.543814 184.399935 
L 178.815174 191.839262 
L 180.086535 192.16936 
L 181.357895 193.467542 
L 182.629255 200.821585 
L 183.900615 205.903914 
L 185.171975 212.571614 
L 186.443336 211.919567 
L 187.714696 210.196599 
L 190.257416 222.655138 
L 191.528776 225.650838 
L 192.800137 222.037258 
L 194.071497 227.898827 
L 195.342857 213.607477 
L 196.614217 219.713561 
L 197.885578 216.562844 
L 199.156938 210.654358 
L 200.428298 216.88368 
L 201.699658 215.772106 
L 202.971018 221.329805 
L 204.242379 221.836347 
L 205.513739 223.4054 
L 208.056459 234.371634 
L 209.32782 239.489882 
L 210.59918 236.763631 
L 213.1419 246.273955 
L 214.41326 250.768254 
L 215.684621 252.103197 
L 216.955981 256.309261 
L 218.227341 255.011437 
L 219.498701 258.976267 
L 220.770062 260.549177 
L 222.041422 262.48982 
L 223.312782 266.372292 
L 224.584142 264.031997 
L 225.855502 263.558778 
L 228.398223 266.178332 
L 229.669583 269.673173 
L 230.940943 267.693959 
L 232.212303 247.757747 
L 233.483664 242.598477 
L 234.755024 247.352719 
L 236.026384 249.605492 
L 237.297744 253.203134 
L 238.569105 246.071355 
L 239.840465 248.449524 
L 241.111825 252.467189 
L 242.383185 254.019987 
L 243.654545 254.699233 
L 244.925906 238.870162 
L 246.197266 239.651135 
L 248.739986 249.264211 
L 250.011347 248.024122 
L 251.282707 246.580125 
L 252.554067 251.210938 
L 253.825427 252.087661 
L 255.096787 255.067081 
L 256.368148 257.32626 
L 257.639508 260.479821 
L 258.910868 261.743111 
L 260.182228 265.753061 
L 261.453589 267.200537 
L 262.724949 270.924575 
L 263.996309 271.023146 
L 265.267669 274.459416 
L 266.539029 274.480798 
L 269.08175 280.939526 
L 270.35311 279.972135 
L 271.62447 282.923841 
L 272.89583 285.242696 
L 274.167191 280.572078 
L 275.438551 280.96612 
L 276.709911 274.428787 
L 277.981271 277.58267 
L 279.252632 280.414781 
L 280.523992 282.745912 
L 281.795352 285.72946 
L 283.066712 288.406655 
L 284.338072 288.473498 
L 285.609433 288.796839 
L 288.152153 293.842339 
L 289.423513 294.984109 
L 290.694874 297.281679 
L 291.966234 292.465194 
L 293.237594 292.149202 
L 294.508954 294.595313 
L 295.780314 293.940966 
L 297.051675 296.245276 
L 299.594395 288.656535 
L 302.137116 293.797426 
L 303.408476 289.316831 
L 304.679836 281.921988 
L 307.222556 287.691388 
L 309.765277 292.953988 
L 311.036637 291.347634 
L 312.307997 284.766947 
L 313.579357 284.889251 
L 314.850718 287.537212 
L 316.122078 286.608923 
L 317.393438 280.737769 
L 318.664798 283.387502 
L 319.936159 281.915496 
L 323.750239 290.175329 
L 325.021599 287.755316 
L 327.56432 292.935337 
L 328.83568 295.321231 
L 330.10704 295.487292 
L 331.378401 297.730056 
L 332.649761 288.138761 
L 335.192481 293.091881 
L 339.006562 299.71349 
L 341.549282 296.573324 
L 342.820643 293.538703 
L 345.363363 298.121608 
L 347.906083 302.346771 
L 349.177444 302.000518 
L 351.720164 305.872029 
L 352.991524 304.621984 
L 354.262884 306.4795 
L 355.534245 306.06124 
L 356.805605 305.281335 
L 359.348325 308.85346 
L 363.162406 313.484619 
L 364.433766 314.625386 
L 368.247847 318.521487 
L 369.519207 319.63467 
L 370.790567 315.164484 
L 373.333288 317.781978 
L 375.876008 320.16333 
L 380.961449 324.157683 
L 383.50417 325.77308 
L 384.77553 326.115156 
L 386.04689 326.916026 
L 387.31825 324.699367 
L 389.860971 326.172631 
L 391.132331 326.520677 
L 392.403691 327.256519 
L 393.675051 323.778887 
L 397.489132 326.313246 
L 398.760492 327.031669 
L 400.031852 327.524874 
L 401.303213 328.280115 
L 402.574573 328.234849 
L 406.388653 330.147594 
L 410.202734 331.721869 
L 411.474094 331.879701 
L 414.016815 332.838528 
L 415.288175 332.985172 
L 424.187697 335.566862 
L 425.459057 335.896653 
L 426.730417 334.66765 
L 430.544498 335.596863 
L 431.815858 335.903561 
L 433.087218 335.954379 
L 436.901299 336.753624 
L 439.444019 337.192268 
L 444.52946 337.963962 
L 445.80082 337.935105 
L 449.614901 338.486302 
L 459.785783 339.549917 
L 478.856186 340.74738 
L 482.670267 340.872621 
L 490.298428 340.916051 
L 491.569788 337.192166 
L 500.46931 338.515376 
L 501.74067 338.398424 
L 503.01203 338.448147 
L 505.554751 338.760985 
L 508.097471 338.963513 
L 513.182912 339.461895 
L 523.353794 340.047903 
L 527.167874 340.373958 
L 528.439234 340.26157 
L 532.253315 340.481856 
L 533.524675 338.348291 
L 536.067396 338.673709 
L 537.338756 336.22552 
L 541.152837 337.016355 
L 544.966917 337.723947 
L 550.052358 338.477532 
L 555.137799 338.994656 
L 560.22324 339.530047 
L 579.293643 340.592434 
L 580.565003 340.574008 
L 580.565003 340.574008 
" clip-path="url(#p5faf8079c0)" style="fill: none; stroke: #ff7f0e; stroke-width: 1.2; stroke-linecap: square"/>
   </g>
   <g id="line2d_35">
    <path d="M 74.563636 145.466323 
L 75.834997 152.581947 
L 77.106357 157.56584 
L 78.377717 160.114851 
L 80.920437 176.591567 
L 82.191798 179.635213 
L 83.463158 187.579668 
L 84.734518 180.205868 
L 86.005878 183.762962 
L 87.277239 183.54902 
L 88.548599 165.701204 
L 89.819959 161.930722 
L 92.362679 178.729969 
L 93.63404 178.656514 
L 94.9054 172.709315 
L 96.17676 173.386849 
L 97.44812 181.653794 
L 98.719481 183.699577 
L 99.990841 188.381278 
L 101.262201 188.74709 
L 102.533561 188.503071 
L 103.804921 195.63412 
L 105.076282 192.382469 
L 107.619002 206.569959 
L 108.890362 212.91604 
L 110.161722 217.285911 
L 112.704443 229.013764 
L 113.975803 229.313495 
L 115.247163 231.567694 
L 116.518524 231.679978 
L 117.789884 234.46543 
L 119.061244 238.55582 
L 120.332604 233.935246 
L 121.603964 237.504439 
L 122.875325 238.502793 
L 124.146685 233.033475 
L 125.418045 231.703767 
L 126.689405 221.940292 
L 127.960766 221.143862 
L 129.232126 211.525533 
L 130.503486 209.329773 
L 131.774846 197.315649 
L 133.046206 200.974023 
L 134.317567 190.116587 
L 135.588927 181.385477 
L 136.860287 182.776116 
L 138.131647 187.372787 
L 139.403008 185.333843 
L 140.674368 186.534988 
L 141.945728 186.351814 
L 143.217088 187.366371 
L 145.759809 191.01776 
L 147.031169 198.432369 
L 148.302529 203.152006 
L 149.573889 204.30347 
L 150.845249 201.237735 
L 152.11661 195.515077 
L 153.38797 195.670763 
L 154.65933 187.261802 
L 155.93069 192.911661 
L 157.202051 197.198508 
L 158.473411 204.210813 
L 159.744771 204.968673 
L 161.016131 210.997142 
L 162.287491 207.686085 
L 163.558852 206.834475 
L 164.830212 210.146185 
L 167.372932 217.915276 
L 168.644293 218.363081 
L 169.915653 220.618027 
L 171.187013 225.971883 
L 172.458373 231.876088 
L 173.729733 231.031338 
L 176.272454 241.577276 
L 178.815174 251.28373 
L 181.357895 260.155247 
L 183.900615 268.107785 
L 186.443336 275.248548 
L 188.986056 281.774311 
L 191.528776 287.637591 
L 194.071497 292.874921 
L 197.885578 299.813233 
L 200.428298 303.947116 
L 202.971018 307.591028 
L 205.513739 311.010326 
L 208.056459 314.043302 
L 211.87054 317.969333 
L 215.684621 321.360536 
L 218.227341 323.387421 
L 222.041422 326.013317 
L 224.584142 327.5708 
L 228.398223 329.656175 
L 233.483664 331.944899 
L 237.297744 333.404174 
L 242.383185 335.004739 
L 250.011347 336.864352 
L 257.639508 338.193892 
L 260.182228 338.538493 
L 275.438551 339.925179 
L 284.338072 340.438947 
L 286.880793 340.532984 
L 293.237594 340.770831 
L 298.323035 340.933564 
L 304.679836 341.226882 
L 354.262884 341.612596 
L 358.076965 341.682702 
L 370.790567 341.828506 
L 378.418729 341.750739 
L 380.961449 341.779622 
L 384.77553 341.805136 
L 400.031852 341.818074 
L 406.388653 341.770276 
L 410.202734 341.752156 
L 417.830895 341.7049 
L 426.730417 341.766631 
L 430.544498 341.70998 
L 433.087218 341.746703 
L 444.52946 341.694366 
L 453.428982 341.745306 
L 458.514422 341.693299 
L 469.956664 341.713425 
L 472.499385 341.732342 
L 491.569788 341.758165 
L 501.74067 341.814902 
L 506.826111 341.727098 
L 533.524675 341.661197 
L 537.338756 341.643754 
L 552.595079 341.742286 
L 557.680519 341.741232 
L 571.665482 341.717225 
L 574.208202 341.757926 
L 581.836364 341.724446 
L 581.836364 341.724446 
" clip-path="url(#p5faf8079c0)" style="fill: none; stroke: #2ca02c; stroke-width: 1.2; stroke-linecap: square"/>
   </g>
   <g id="line2d_36">
    <path d="M 74.563636 192.02443 
L 75.834997 183.745696 
L 77.106357 180.002179 
L 78.377717 165.849684 
L 79.649077 166.057099 
L 80.920437 159.339732 
L 82.191798 148.79572 
L 83.463158 145.412079 
L 84.734518 140.243656 
L 86.005878 141.037685 
L 87.277239 139.284041 
L 88.548599 133.641864 
L 89.819959 130.45997 
L 91.091319 133.447063 
L 92.362679 128.453109 
L 93.63404 131.837848 
L 94.9054 132.610702 
L 96.17676 131.071626 
L 97.44812 134.173005 
L 98.719481 128.565249 
L 99.990841 135.036153 
L 101.262201 129.117843 
L 102.533561 132.537918 
L 105.076282 138.273241 
L 106.347642 124.864742 
L 107.619002 113.968134 
L 108.890362 122.569926 
L 110.161722 124.401074 
L 111.433083 118.204161 
L 112.704443 128.938536 
L 113.975803 124.434787 
L 115.247163 128.940939 
L 116.518524 127.04342 
L 117.789884 131.45942 
L 119.061244 125.644782 
L 120.332604 126.692685 
L 121.603964 131.352823 
L 124.146685 151.896485 
L 126.689405 170.305677 
L 129.232126 187.031097 
L 131.774846 202.125768 
L 134.317567 215.644935 
L 136.860287 227.914937 
L 139.403008 239.034843 
L 141.945728 248.938518 
L 144.488448 257.979294 
L 147.031169 266.23582 
L 149.573889 273.622417 
L 152.11661 280.311134 
L 154.65933 286.318052 
L 157.202051 291.707511 
L 159.744771 296.554409 
L 162.287491 300.894626 
L 164.830212 304.825975 
L 167.372932 308.443927 
L 169.915653 311.66239 
L 172.458373 314.622554 
L 178.815174 320.632851 
L 182.629255 323.72518 
L 190.257416 328.480105 
L 197.885578 331.85342 
L 204.242379 334.088291 
L 209.32782 335.461495 
L 214.41326 336.682218 
L 223.312782 338.166081 
L 230.940943 339.150818 
L 243.654545 340.11277 
L 246.197266 340.367859 
L 263.996309 341.054252 
L 270.35311 341.191948 
L 271.62447 341.238756 
L 272.89583 340.551404 
L 276.709911 340.679939 
L 277.981271 339.57863 
L 293.237594 340.637477 
L 297.051675 340.761913 
L 298.323035 340.605808 
L 302.137116 340.716655 
L 303.408476 338.594093 
L 304.679836 338.809088 
L 308.493917 339.211208 
L 311.036637 339.436716 
L 313.579357 339.487555 
L 316.122078 339.557845 
L 322.478879 340.049183 
L 333.921121 340.275526 
L 335.192481 340.098638 
L 340.277922 340.457916 
L 347.906083 340.777054 
L 349.177444 337.282515 
L 354.262884 338.022514 
L 359.348325 338.71848 
L 360.619686 333.722503 
L 368.247847 335.729874 
L 369.519207 333.53344 
L 372.061928 334.442313 
L 377.147368 335.769056 
L 384.77553 337.308716 
L 391.132331 338.204632 
L 392.403691 337.677112 
L 401.303213 338.976294 
L 406.388653 339.524548 
L 414.016815 340.134363 
L 416.559535 340.25071 
L 417.830895 340.376087 
L 420.373616 340.435313 
L 428.001777 340.7705 
L 429.273137 340.626749 
L 436.901299 340.984758 
L 438.172659 337.840596 
L 441.98674 338.395268 
L 445.80082 338.872511 
L 449.614901 339.294084 
L 457.243062 339.697097 
L 459.785783 339.952782 
L 472.499385 340.565798 
L 475.042105 340.616887 
L 476.313465 338.571635 
L 480.127546 338.992401 
L 481.398906 338.976849 
L 486.484347 339.376153 
L 490.298428 339.627445 
L 492.841148 339.881825 
L 495.383869 339.983238 
L 497.926589 340.119822 
L 499.197949 336.877132 
L 504.28339 337.790366 
L 509.368831 338.539474 
L 514.454272 339.091164 
L 516.996992 339.23431 
L 520.811073 339.591083 
L 522.082433 336.662148 
L 527.167874 337.605622 
L 528.439234 335.025179 
L 532.253315 336.000455 
L 536.067396 336.794625 
L 548.780998 338.8788 
L 551.323718 339.140303 
L 556.409159 339.592778 
L 562.76596 340.069807 
L 564.037321 336.827221 
L 571.665482 338.123029 
L 572.936842 338.194486 
L 575.479563 338.499069 
L 581.836364 339.187166 
L 581.836364 339.187166 
" clip-path="url(#p5faf8079c0)" style="fill: none; stroke: #d62728; stroke-width: 1.2; stroke-linecap: square"/>
   </g>
   <g id="line2d_37">
    <path d="M 74.563636 39.445 
L 75.834997 46.392426 
L 77.106357 55.17461 
L 78.377717 61.927729 
L 80.920437 76.540842 
L 82.191798 74.902272 
L 83.463158 84.2896 
L 84.734518 96.855077 
L 86.005878 105.132892 
L 87.277239 116.921379 
L 88.548599 126.377925 
L 91.091319 147.24175 
L 92.362679 151.066217 
L 93.63404 158.866818 
L 96.17676 176.751484 
L 98.719481 192.869598 
L 99.990841 200.324726 
L 101.262201 205.722525 
L 103.804921 218.945547 
L 106.347642 230.899081 
L 107.619002 236.444201 
L 108.890362 240.653535 
L 111.433083 250.434697 
L 113.975803 259.355072 
L 116.518524 267.379162 
L 119.061244 274.635468 
L 121.603964 281.124656 
L 124.146685 287.082551 
L 126.689405 292.380096 
L 129.232126 297.192614 
L 131.774846 301.535056 
L 134.317567 305.421838 
L 138.131647 310.573687 
L 141.945728 315.028756 
L 143.217088 304.646443 
L 145.759809 308.265297 
L 148.302529 311.553397 
L 150.845249 314.450227 
L 153.38797 317.150451 
L 155.93069 319.50461 
L 159.744771 322.755195 
L 164.830212 326.261711 
L 166.101572 318.666628 
L 169.915653 321.975173 
L 173.729733 324.793352 
L 177.543814 327.277376 
L 181.357895 329.406464 
L 185.171975 331.230826 
L 188.986056 332.753287 
L 192.800137 333.976224 
L 201.699658 336.345886 
L 205.513739 337.108982 
L 206.785099 337.3601 
L 208.056459 335.576556 
L 210.59918 336.180142 
L 211.87054 330.88225 
L 215.684621 332.443965 
L 219.498701 333.781532 
L 224.584142 335.267812 
L 229.669583 336.486628 
L 237.297744 337.840243 
L 241.111825 338.319483 
L 242.383185 338.240123 
L 246.197266 338.689801 
L 250.011347 339.17233 
L 267.81039 340.531783 
L 270.35311 340.581249 
L 272.89583 340.630543 
L 281.795352 341.000059 
L 285.609433 341.070638 
L 286.880793 340.974138 
L 298.323035 341.315292 
L 300.865755 341.390635 
L 303.408476 341.457314 
L 312.307997 341.656487 
L 326.29296 341.705151 
L 328.83568 341.710719 
L 333.921121 341.666597 
L 335.192481 338.80828 
L 345.363363 339.877941 
L 350.448804 340.19214 
L 358.076965 340.626071 
L 360.619686 340.674221 
L 363.162406 340.709936 
L 366.976487 340.859528 
L 370.790567 340.9942 
L 373.333288 341.081627 
L 378.418729 341.243655 
L 379.690089 341.024575 
L 392.403691 341.248571 
L 397.489132 341.345054 
L 400.031852 341.412592 
L 402.574573 341.424123 
L 403.845933 339.433611 
L 410.202734 340.003765 
L 415.288175 340.268993 
L 417.830895 340.297102 
L 420.373616 340.391624 
L 424.187697 340.594299 
L 436.901299 341.034152 
L 440.715379 341.182859 
L 445.80082 341.264181 
L 463.599863 341.605818 
L 467.413944 341.593705 
L 476.313465 341.575234 
L 478.856186 341.573006 
L 492.841148 341.599201 
L 496.655229 341.690502 
L 501.74067 341.688484 
L 503.01203 337.597905 
L 506.826111 338.201132 
L 520.811073 339.72779 
L 523.353794 339.842637 
L 528.439234 340.155997 
L 538.610116 340.678452 
L 566.580041 341.413525 
L 570.394122 341.379886 
L 571.665482 340.02168 
L 575.479563 340.269397 
L 580.565003 340.55297 
L 580.565003 340.55297 
" clip-path="url(#p5faf8079c0)" style="fill: none; stroke: #9467bd; stroke-width: 1.2; stroke-linecap: square"/>
   </g>
   <g id="patch_3">
    <path d="M 49.2 356.965 
L 49.2 24.325 
" style="fill: none; stroke: #000000; stroke-width: 0.8; stroke-linejoin: miter; stroke-linecap: square"/>
   </g>
   <g id="patch_4">
    <path d="M 607.2 356.965 
L 607.2 24.325 
" style="fill: none; stroke: #000000; stroke-width: 0.8; stroke-linejoin: miter; stroke-linecap: square"/>
   </g>
   <g id="patch_5">
    <path d="M 49.2 356.965 
L 607.2 356.965 
" style="fill: none; stroke: #000000; stroke-width: 0.8; stroke-linejoin: miter; stroke-linecap: square"/>
   </g>
   <g id="patch_6">
    <path d="M 49.2 24.325 
L 607.2 24.325 
" style="fill: none; stroke: #000000; stroke-width: 0.8; stroke-linejoin: miter; stroke-linecap: square"/>
   </g>
   <g id="text_19">
    <!-- Total Energy Consumption -->
    <g transform="translate(232.2 18.325) scale(0.16 -0.16)">
     <defs>
      <path id="SimHei-54" d="M 2850 3925 
L 1850 3925 
L 1850 125 
L 1275 125 
L 1275 3925 
L 275 3925 
L 275 4400 
L 2850 4400 
L 2850 3925 
z
" transform="scale(0.015625)"/>
      <path id="SimHei-74" d="M 2750 200 
Q 2625 150 2462 112 
Q 2300 75 2025 75 
Q 1575 75 1300 325 
Q 1025 575 1025 1025 
L 1025 2525 
L 175 2525 
L 175 2925 
L 1025 2925 
L 1025 3900 
L 1525 3900 
L 1525 2925 
L 2550 2925 
L 2550 2525 
L 1525 2525 
L 1525 1000 
Q 1525 800 1625 662 
Q 1725 525 2000 525 
Q 2275 525 2450 575 
Q 2625 625 2750 700 
L 2750 200 
z
" transform="scale(0.015625)"/>
      <path id="SimHei-61" d="M 2875 125 
L 2275 125 
Q 2225 175 2200 262 
Q 2175 350 2175 475 
Q 2000 275 1750 175 
Q 1500 75 1225 75 
Q 825 75 550 275 
Q 275 475 275 850 
Q 275 1225 525 1450 
Q 775 1675 1300 1750 
Q 1650 1800 1912 1875 
Q 2175 1950 2175 2075 
Q 2175 2225 2062 2375 
Q 1950 2525 1575 2525 
Q 1275 2525 1137 2412 
Q 1000 2300 950 2100 
L 400 2100 
Q 450 2500 762 2737 
Q 1075 2975 1575 2975 
Q 2125 2975 2400 2725 
Q 2675 2475 2675 2025 
L 2675 650 
Q 2675 500 2725 375 
Q 2775 250 2875 125 
z
M 2175 1050 
L 2175 1550 
Q 2025 1500 1887 1462 
Q 1750 1425 1425 1375 
Q 1050 1325 937 1200 
Q 825 1075 825 900 
Q 825 750 937 637 
Q 1050 525 1275 525 
Q 1500 525 1762 650 
Q 2025 775 2175 1050 
z
" transform="scale(0.015625)"/>
      <path id="SimHei-6c" d="M 1825 125 
L 1325 125 
L 1325 4400 
L 1825 4400 
L 1825 125 
z
" transform="scale(0.015625)"/>
      <path id="SimHei-20" transform="scale(0.015625)"/>
      <path id="SimHei-43" d="M 2975 1825 
Q 2950 875 2575 475 
Q 2200 75 1675 75 
Q 1075 75 650 562 
Q 225 1050 225 2125 
Q 225 3300 637 3875 
Q 1050 4450 1700 4450 
Q 2250 4450 2612 4037 
Q 2975 3625 2950 2875 
L 2400 2875 
Q 2400 3425 2225 3700 
Q 2050 3975 1700 3975 
Q 1300 3975 1062 3562 
Q 825 3150 825 2175 
Q 825 1275 1062 912 
Q 1300 550 1675 550 
Q 1950 550 2175 812 
Q 2400 1075 2400 1825 
L 2975 1825 
z
" transform="scale(0.015625)"/>
      <path id="SimHei-75" d="M 2800 125 
L 2300 125 
L 2300 650 
Q 2100 375 1862 225 
Q 1625 75 1250 75 
Q 800 75 575 325 
Q 350 575 350 950 
L 350 2925 
L 850 2925 
L 850 1125 
Q 850 825 1000 650 
Q 1150 475 1400 475 
Q 1725 475 2012 812 
Q 2300 1150 2300 1650 
L 2300 2925 
L 2800 2925 
L 2800 125 
z
" transform="scale(0.015625)"/>
      <path id="SimHei-6d" d="M 3050 125 
L 2550 125 
L 2550 2150 
Q 2550 2300 2500 2400 
Q 2450 2500 2300 2500 
Q 2125 2500 1975 2312 
Q 1825 2125 1825 1825 
L 1825 125 
L 1325 125 
L 1325 2150 
Q 1325 2300 1275 2400 
Q 1225 2500 1075 2500 
Q 900 2500 750 2312 
Q 600 2125 600 1825 
L 600 125 
L 100 125 
L 100 2925 
L 600 2925 
L 600 2550 
Q 725 2750 900 2862 
Q 1075 2975 1275 2975 
Q 1475 2975 1612 2862 
Q 1750 2750 1800 2550 
Q 1925 2750 2087 2862 
Q 2250 2975 2450 2975 
Q 2750 2975 2900 2812 
Q 3050 2650 3050 2350 
L 3050 125 
z
" transform="scale(0.015625)"/>
     </defs>
     <use xlink:href="#SimHei-54"/>
     <use xlink:href="#SimHei-6f" transform="translate(50 0)"/>
     <use xlink:href="#SimHei-74" transform="translate(100 0)"/>
     <use xlink:href="#SimHei-61" transform="translate(150 0)"/>
     <use xlink:href="#SimHei-6c" transform="translate(200 0)"/>
     <use xlink:href="#SimHei-20" transform="translate(250 0)"/>
     <use xlink:href="#SimHei-45" transform="translate(300 0)"/>
     <use xlink:href="#SimHei-6e" transform="translate(350 0)"/>
     <use xlink:href="#SimHei-65" transform="translate(400 0)"/>
     <use xlink:href="#SimHei-72" transform="translate(450 0)"/>
     <use xlink:href="#SimHei-67" transform="translate(500 0)"/>
     <use xlink:href="#SimHei-79" transform="translate(550 0)"/>
     <use xlink:href="#SimHei-20" transform="translate(600 0)"/>
     <use xlink:href="#SimHei-43" transform="translate(650 0)"/>
     <use xlink:href="#SimHei-6f" transform="translate(700 0)"/>
     <use xlink:href="#SimHei-6e" transform="translate(750 0)"/>
     <use xlink:href="#SimHei-73" transform="translate(800 0)"/>
     <use xlink:href="#SimHei-75" transform="translate(850 0)"/>
     <use xlink:href="#SimHei-6d" transform="translate(900 0)"/>
     <use xlink:href="#SimHei-70" transform="translate(950 0)"/>
     <use xlink:href="#SimHei-74" transform="translate(1000 0)"/>
     <use xlink:href="#SimHei-69" transform="translate(1050 0)"/>
     <use xlink:href="#SimHei-6f" transform="translate(1100 0)"/>
     <use xlink:href="#SimHei-6e" transform="translate(1150 0)"/>
    </g>
   </g>
   <g id="legend_1">
    <g id="patch_7">
     <path d="M 512.4 113.425 
L 598.8 113.425 
Q 601.2 113.425 601.2 111.025 
L 601.2 32.725 
Q 601.2 30.325 598.8 30.325 
L 512.4 30.325 
Q 510 30.325 510 32.725 
L 510 111.025 
Q 510 113.425 512.4 113.425 
z
" style="fill: #ffffff; opacity: 0.8; stroke: #cccccc; stroke-linejoin: miter"/>
    </g>
    <g id="line2d_38">
     <path d="M 514.8 39.325 
L 526.8 39.325 
L 538.8 39.325 
" style="fill: none; stroke: #1f77b4; stroke-width: 1.2; stroke-linecap: square"/>
    </g>
    <g id="text_20">
     <!-- DDPG -->
     <g transform="translate(548.4 43.525) scale(0.12 -0.12)">
      <defs>
       <path id="SimHei-44" d="M 2925 2250 
Q 2925 1100 2437 612 
Q 1950 125 1125 125 
L 275 125 
L 275 4400 
L 1125 4400 
Q 2050 4400 2487 3900 
Q 2925 3400 2925 2250 
z
M 2325 2250 
Q 2325 3175 2025 3550 
Q 1725 3925 1125 3925 
L 850 3925 
L 850 600 
L 1125 600 
Q 1725 600 2025 962 
Q 2325 1325 2325 2250 
z
" transform="scale(0.015625)"/>
       <path id="SimHei-50" d="M 2950 3100 
Q 2950 2500 2600 2150 
Q 2250 1800 1625 1800 
L 900 1800 
L 900 125 
L 325 125 
L 325 4400 
L 1625 4400 
Q 2250 4400 2600 4050 
Q 2950 3700 2950 3100 
z
M 2375 3100 
Q 2375 3575 2150 3750 
Q 1925 3925 1475 3925 
L 900 3925 
L 900 2275 
L 1475 2275 
Q 1925 2275 2150 2450 
Q 2375 2625 2375 3100 
z
" transform="scale(0.015625)"/>
       <path id="SimHei-47" d="M 2850 75 
L 2425 75 
L 2350 425 
Q 2250 275 2037 175 
Q 1825 75 1575 75 
Q 1050 75 637 562 
Q 225 1050 225 2125 
Q 225 3300 600 3875 
Q 975 4450 1625 4450 
Q 2200 4450 2525 4025 
Q 2850 3600 2850 2925 
L 2300 2925 
Q 2300 3450 2125 3712 
Q 1950 3975 1625 3975 
Q 1225 3975 1025 3562 
Q 825 3150 825 2175 
Q 825 1250 1075 900 
Q 1325 550 1650 550 
Q 1975 550 2162 787 
Q 2350 1025 2350 1525 
L 2350 1800 
L 1575 1800 
L 1575 2275 
L 2850 2275 
L 2850 75 
z
" transform="scale(0.015625)"/>
      </defs>
      <use xlink:href="#SimHei-44"/>
      <use xlink:href="#SimHei-44" transform="translate(50 0)"/>
      <use xlink:href="#SimHei-50" transform="translate(100 0)"/>
      <use xlink:href="#SimHei-47" transform="translate(150 0)"/>
     </g>
    </g>
    <g id="line2d_39">
     <path d="M 514.8 55.225 
L 526.8 55.225 
L 538.8 55.225 
" style="fill: none; stroke: #ff7f0e; stroke-width: 1.2; stroke-linecap: square"/>
    </g>
    <g id="text_21">
     <!-- PPO -->
     <g transform="translate(548.4 59.425) scale(0.12 -0.12)">
      <defs>
       <path id="SimHei-4f" d="M 2950 2275 
Q 2950 1100 2587 587 
Q 2225 75 1575 75 
Q 925 75 550 587 
Q 175 1100 175 2275 
Q 175 3450 550 3950 
Q 925 4450 1575 4450 
Q 2225 4450 2587 3950 
Q 2950 3450 2950 2275 
z
M 2350 2275 
Q 2350 3325 2125 3650 
Q 1900 3975 1575 3975 
Q 1250 3975 1012 3650 
Q 775 3325 775 2275 
Q 775 1225 1012 887 
Q 1250 550 1575 550 
Q 1900 550 2125 887 
Q 2350 1225 2350 2275 
z
" transform="scale(0.015625)"/>
      </defs>
      <use xlink:href="#SimHei-50"/>
      <use xlink:href="#SimHei-50" transform="translate(50 0)"/>
      <use xlink:href="#SimHei-4f" transform="translate(100 0)"/>
     </g>
    </g>
    <g id="line2d_40">
     <path d="M 514.8 71.125 
L 526.8 71.125 
L 538.8 71.125 
" style="fill: none; stroke: #2ca02c; stroke-width: 1.2; stroke-linecap: square"/>
    </g>
    <g id="text_22">
     <!-- TD3 -->
     <g transform="translate(548.4 75.325) scale(0.12 -0.12)">
      <use xlink:href="#SimHei-54"/>
      <use xlink:href="#SimHei-44" transform="translate(50 0)"/>
      <use xlink:href="#SimHei-33" transform="translate(100 0)"/>
     </g>
    </g>
    <g id="line2d_41">
     <path d="M 514.8 87.025 
L 526.8 87.025 
L 538.8 87.025 
" style="fill: none; stroke: #d62728; stroke-width: 1.2; stroke-linecap: square"/>
    </g>
    <g id="text_23">
     <!-- GCN-DDQN -->
     <g transform="translate(548.4 91.225) scale(0.12 -0.12)">
      <defs>
       <path id="SimHei-4e" d="M 2850 125 
L 2225 125 
L 850 3225 
L 825 3225 
L 825 125 
L 250 125 
L 250 4400 
L 875 4400 
L 2250 1300 
L 2275 1300 
L 2275 4400 
L 2850 4400 
L 2850 125 
z
" transform="scale(0.015625)"/>
       <path id="SimHei-2d" d="M 2975 2125 
L 125 2125 
L 125 2525 
L 2975 2525 
L 2975 2125 
z
" transform="scale(0.015625)"/>
       <path id="SimHei-51" d="M 2950 2275 
Q 2950 1675 2862 1262 
Q 2775 850 2575 600 
L 2775 225 
L 2375 -200 
L 2150 225 
Q 2050 150 1900 112 
Q 1750 75 1575 75 
Q 925 75 550 587 
Q 175 1100 175 2275 
Q 175 3450 550 3950 
Q 925 4450 1575 4450 
Q 2225 4450 2587 3950 
Q 2950 3450 2950 2275 
z
M 2350 2275 
Q 2350 3325 2125 3650 
Q 1900 3975 1575 3975 
Q 1250 3975 1012 3650 
Q 775 3325 775 2275 
Q 775 1225 1012 887 
Q 1250 550 1575 550 
Q 1700 550 1800 587 
Q 1900 625 1950 675 
L 1550 1450 
L 1900 1875 
L 2250 1200 
Q 2300 1450 2325 1650 
Q 2350 1850 2350 2275 
z
" transform="scale(0.015625)"/>
      </defs>
      <use xlink:href="#SimHei-47"/>
      <use xlink:href="#SimHei-43" transform="translate(50 0)"/>
      <use xlink:href="#SimHei-4e" transform="translate(100 0)"/>
      <use xlink:href="#SimHei-2d" transform="translate(150 0)"/>
      <use xlink:href="#SimHei-44" transform="translate(200 0)"/>
      <use xlink:href="#SimHei-44" transform="translate(250 0)"/>
      <use xlink:href="#SimHei-51" transform="translate(300 0)"/>
      <use xlink:href="#SimHei-4e" transform="translate(350 0)"/>
     </g>
    </g>
    <g id="line2d_42">
     <path d="M 514.8 102.925 
L 526.8 102.925 
L 538.8 102.925 
" style="fill: none; stroke: #9467bd; stroke-width: 1.2; stroke-linecap: square"/>
    </g>
    <g id="text_24">
     <!-- GLDVTO -->
     <g transform="translate(548.4 107.125) scale(0.12 -0.12)">
      <defs>
       <path id="SimHei-4c" d="M 2900 125 
L 300 125 
L 300 4400 
L 875 4400 
L 875 600 
L 2900 600 
L 2900 125 
z
" transform="scale(0.015625)"/>
       <path id="SimHei-56" d="M 3050 4400 
L 1800 75 
L 1300 75 
L 50 4400 
L 650 4400 
L 1525 1125 
L 1575 1125 
L 2450 4400 
L 3050 4400 
z
" transform="scale(0.015625)"/>
      </defs>
      <use xlink:href="#SimHei-47"/>
      <use xlink:href="#SimHei-4c" transform="translate(50 0)"/>
      <use xlink:href="#SimHei-44" transform="translate(100 0)"/>
      <use xlink:href="#SimHei-56" transform="translate(150 0)"/>
      <use xlink:href="#SimHei-54" transform="translate(200 0)"/>
      <use xlink:href="#SimHei-4f" transform="translate(250 0)"/>
     </g>
    </g>
   </g>
  </g>
 </g>
 <defs>
  <clipPath id="p5faf8079c0">
   <rect x="49.2" y="24.325" width="558" height="332.64"/>
  </clipPath>
 </defs>
</svg>
