<?xml version="1.0" encoding="utf-8" standalone="no"?>
<!DOCTYPE svg PUBLIC "-//W3C//DTD SVG 1.1//EN"
  "http://www.w3.org/Graphics/SVG/1.1/DTD/svg11.dtd">
<svg xmlns:xlink="http://www.w3.org/1999/xlink" width="621.9pt" height="397.915pt" viewBox="0 0 621.9 397.915" xmlns="http://www.w3.org/2000/svg" version="1.1">
 <metadata>
  <rdf:RDF xmlns:dc="http://purl.org/dc/elements/1.1/" xmlns:cc="http://creativecommons.org/ns#" xmlns:rdf="http://www.w3.org/1999/02/22-rdf-syntax-ns#">
   <cc:Work>
    <dc:type rdf:resource="http://purl.org/dc/dcmitype/StillImage"/>
    <dc:date>2026-06-25T18:52:25.051477</dc:date>
    <dc:format>image/svg+xml</dc:format>
    <dc:creator>
     <cc:Agent>
      <dc:title>Matplotlib v3.10.7, https://matplotlib.org/</dc:title>
     </cc:Agent>
    </dc:creator>
   </cc:Work>
  </rdf:RDF>
 </metadata>
 <defs>
  <style type="text/css">*{stroke-linejoin: round; stroke-linecap: butt}</style>
 </defs>
 <g id="figure_1">
  <g id="patch_1">
   <path d="M 0 397.915 
L 621.9 397.915 
L 621.9 -0 
L 0 -0 
z
" style="fill: #ffffff"/>
  </g>
  <g id="axes_1">
   <g id="patch_2">
    <path d="M 56.7 356.965 
L 614.7 356.965 
L 614.7 24.325 
L 56.7 24.325 
z
" style="fill: #ffffff"/>
   </g>
   <g id="matplotlib.axis_1">
    <g id="xtick_1">
     <g id="line2d_1">
      <path d="M 82.063636 356.965 
L 82.063636 24.325 
" clip-path="url(#pd824eb0f15)" style="fill: none; stroke: #b0b0b0; stroke-opacity: 0.3; stroke-width: 0.8; stroke-linecap: square"/>
     </g>
     <g id="line2d_2">
      <defs>
       <path id="me297e82a4f" d="M 0 0 
L 0 3.5 
" style="stroke: #000000; stroke-width: 0.8"/>
      </defs>
      <g>
       <use xlink:href="#me297e82a4f" x="82.063636" y="356.965" style="stroke: #000000; stroke-width: 0.8"/>
      </g>
     </g>
     <g id="text_1">
      <!-- 0 -->
      <g transform="translate(79.063636 372.215) scale(0.12 -0.12)">
       <defs>
        <path id="SimHei-30" d="M 225 2537 
Q 250 3200 412 3587 
Q 575 3975 875 4225 
Q 1175 4475 1612 4475 
Q 2050 4475 2375 4112 
Q 2700 3750 2800 3200 
Q 2900 2650 2862 1937 
Q 2825 1225 2612 775 
Q 2400 325 1975 150 
Q 1550 -25 1125 187 
Q 700 400 525 750 
Q 350 1100 275 1487 
Q 200 1875 225 2537 
z
M 750 2687 
Q 675 2000 800 1462 
Q 925 925 1212 700 
Q 1500 475 1800 612 
Q 2100 750 2237 1162 
Q 2375 1575 2375 2062 
Q 2375 2550 2337 2950 
Q 2300 3350 2112 3675 
Q 1925 4000 1612 4012 
Q 1300 4025 1062 3700 
Q 825 3375 750 2687 
z
" transform="scale(0.015625)"/>
       </defs>
       <use xlink:href="#SimHei-30"/>
      </g>
     </g>
    </g>
    <g id="xtick_2">
     <g id="line2d_3">
      <path d="M 145.631647 356.965 
L 145.631647 24.325 
" clip-path="url(#pd824eb0f15)" style="fill: none; stroke: #b0b0b0; stroke-opacity: 0.3; stroke-width: 0.8; stroke-linecap: square"/>
     </g>
     <g id="line2d_4">
      <g>
       <use xlink:href="#me297e82a4f" x="145.631647" y="356.965" style="stroke: #000000; stroke-width: 0.8"/>
      </g>
     </g>
     <g id="text_2">
      <!-- 50 -->
      <g transform="translate(139.631647 372.215) scale(0.12 -0.12)">
       <defs>
        <path id="SimHei-35" d="M 550 1325 
Q 725 650 1150 575 
Q 1575 500 1837 662 
Q 2100 825 2212 1087 
Q 2325 1350 2312 1675 
Q 2300 2000 2137 2225 
Q 1975 2450 1725 2525 
Q 1475 2600 1162 2525 
Q 850 2450 650 2175 
L 225 2225 
Q 275 2375 700 4375 
L 2675 4375 
L 2675 3925 
L 1075 3925 
Q 950 3250 825 2850 
Q 1200 3025 1525 3012 
Q 1850 3000 2150 2862 
Q 2450 2725 2587 2487 
Q 2725 2250 2787 2012 
Q 2850 1775 2837 1500 
Q 2825 1225 2725 937 
Q 2625 650 2425 462 
Q 2225 275 1937 162 
Q 1650 50 1275 75 
Q 900 100 562 350 
Q 225 600 100 1200 
L 550 1325 
z
" transform="scale(0.015625)"/>
       </defs>
       <use xlink:href="#SimHei-35"/>
       <use xlink:href="#SimHei-30" transform="translate(50 0)"/>
      </g>
     </g>
    </g>
    <g id="xtick_3">
     <g id="line2d_5">
      <path d="M 209.199658 356.965 
L 209.199658 24.325 
" clip-path="url(#pd824eb0f15)" style="fill: none; stroke: #b0b0b0; stroke-opacity: 0.3; stroke-width: 0.8; stroke-linecap: square"/>
     </g>
     <g id="line2d_6">
      <g>
       <use xlink:href="#me297e82a4f" x="209.199658" y="356.965" style="stroke: #000000; stroke-width: 0.8"/>
      </g>
     </g>
     <g id="text_3">
      <!-- 100 -->
      <g transform="translate(200.199658 372.215) scale(0.12 -0.12)">
       <defs>
        <path id="SimHei-31" d="M 1400 3600 
Q 1075 3275 575 2975 
L 575 3450 
Q 1200 3875 1600 4450 
L 1900 4450 
L 1900 150 
L 1400 150 
L 1400 3600 
z
" transform="scale(0.015625)"/>
       </defs>
       <use xlink:href="#SimHei-31"/>
       <use xlink:href="#SimHei-30" transform="translate(50 0)"/>
       <use xlink:href="#SimHei-30" transform="translate(100 0)"/>
      </g>
     </g>
    </g>
    <g id="xtick_4">
     <g id="line2d_7">
      <path d="M 272.767669 356.965 
L 272.767669 24.325 
" clip-path="url(#pd824eb0f15)" style="fill: none; stroke: #b0b0b0; stroke-opacity: 0.3; stroke-width: 0.8; stroke-linecap: square"/>
     </g>
     <g id="line2d_8">
      <g>
       <use xlink:href="#me297e82a4f" x="272.767669" y="356.965" style="stroke: #000000; stroke-width: 0.8"/>
      </g>
     </g>
     <g id="text_4">
      <!-- 150 -->
      <g transform="translate(263.767669 372.215) scale(0.12 -0.12)">
       <use xlink:href="#SimHei-31"/>
       <use xlink:href="#SimHei-35" transform="translate(50 0)"/>
       <use xlink:href="#SimHei-30" transform="translate(100 0)"/>
      </g>
     </g>
    </g>
    <g id="xtick_5">
     <g id="line2d_9">
      <path d="M 336.33568 356.965 
L 336.33568 24.325 
" clip-path="url(#pd824eb0f15)" style="fill: none; stroke: #b0b0b0; stroke-opacity: 0.3; stroke-width: 0.8; stroke-linecap: square"/>
     </g>
     <g id="line2d_10">
      <g>
       <use xlink:href="#me297e82a4f" x="336.33568" y="356.965" style="stroke: #000000; stroke-width: 0.8"/>
      </g>
     </g>
     <g id="text_5">
      <!-- 200 -->
      <g transform="translate(327.33568 372.215) scale(0.12 -0.12)">
       <defs>
        <path id="SimHei-32" d="M 300 250 
Q 325 625 650 925 
Q 975 1225 1475 1862 
Q 1975 2500 2125 2850 
Q 2275 3200 2237 3450 
Q 2200 3700 2000 3862 
Q 1800 4025 1537 4000 
Q 1275 3975 1037 3800 
Q 800 3625 675 3275 
L 200 3350 
Q 400 3925 712 4187 
Q 1025 4450 1450 4475 
Q 1700 4500 1900 4462 
Q 2100 4425 2312 4287 
Q 2525 4150 2662 3875 
Q 2800 3600 2762 3212 
Q 2725 2825 2375 2287 
Q 2025 1750 1025 600 
L 2825 600 
L 2825 150 
L 300 150 
L 300 250 
z
" transform="scale(0.015625)"/>
       </defs>
       <use xlink:href="#SimHei-32"/>
       <use xlink:href="#SimHei-30" transform="translate(50 0)"/>
       <use xlink:href="#SimHei-30" transform="translate(100 0)"/>
      </g>
     </g>
    </g>
    <g id="xtick_6">
     <g id="line2d_11">
      <path d="M 399.903691 356.965 
L 399.903691 24.325 
" clip-path="url(#pd824eb0f15)" style="fill: none; stroke: #b0b0b0; stroke-opacity: 0.3; stroke-width: 0.8; stroke-linecap: square"/>
     </g>
     <g id="line2d_12">
      <g>
       <use xlink:href="#me297e82a4f" x="399.903691" y="356.965" style="stroke: #000000; stroke-width: 0.8"/>
      </g>
     </g>
     <g id="text_6">
      <!-- 250 -->
      <g transform="translate(390.903691 372.215) scale(0.12 -0.12)">
       <use xlink:href="#SimHei-32"/>
       <use xlink:href="#SimHei-35" transform="translate(50 0)"/>
       <use xlink:href="#SimHei-30" transform="translate(100 0)"/>
      </g>
     </g>
    </g>
    <g id="xtick_7">
     <g id="line2d_13">
      <path d="M 463.471702 356.965 
L 463.471702 24.325 
" clip-path="url(#pd824eb0f15)" style="fill: none; stroke: #b0b0b0; stroke-opacity: 0.3; stroke-width: 0.8; stroke-linecap: square"/>
     </g>
     <g id="line2d_14">
      <g>
       <use xlink:href="#me297e82a4f" x="463.471702" y="356.965" style="stroke: #000000; stroke-width: 0.8"/>
      </g>
     </g>
     <g id="text_7">
      <!-- 300 -->
      <g transform="translate(454.471702 372.215) scale(0.12 -0.12)">
       <defs>
        <path id="SimHei-33" d="M 250 1225 
L 700 1300 
Q 800 975 1025 762 
Q 1250 550 1587 562 
Q 1925 575 2125 837 
Q 2325 1100 2300 1437 
Q 2275 1775 2037 1962 
Q 1800 2150 1275 2225 
L 1275 2550 
Q 1800 2600 2037 2825 
Q 2275 3050 2250 3412 
Q 2225 3775 1925 3937 
Q 1625 4100 1287 3975 
Q 950 3850 750 3275 
L 300 3350 
Q 450 3800 712 4100 
Q 975 4400 1425 4450 
Q 1875 4500 2212 4337 
Q 2550 4175 2687 3837 
Q 2825 3500 2725 3100 
Q 2625 2700 2150 2400 
Q 2500 2250 2687 1950 
Q 2875 1650 2812 1162 
Q 2750 675 2375 375 
Q 2000 75 1525 87 
Q 1050 100 700 387 
Q 350 675 250 1225 
z
" transform="scale(0.015625)"/>
       </defs>
       <use xlink:href="#SimHei-33"/>
       <use xlink:href="#SimHei-30" transform="translate(50 0)"/>
       <use xlink:href="#SimHei-30" transform="translate(100 0)"/>
      </g>
     </g>
    </g>
    <g id="xtick_8">
     <g id="line2d_15">
      <path d="M 527.039713 356.965 
L 527.039713 24.325 
" clip-path="url(#pd824eb0f15)" style="fill: none; stroke: #b0b0b0; stroke-opacity: 0.3; stroke-width: 0.8; stroke-linecap: square"/>
     </g>
     <g id="line2d_16">
      <g>
       <use xlink:href="#me297e82a4f" x="527.039713" y="356.965" style="stroke: #000000; stroke-width: 0.8"/>
      </g>
     </g>
     <g id="text_8">
      <!-- 350 -->
      <g transform="translate(518.039713 372.215) scale(0.12 -0.12)">
       <use xlink:href="#SimHei-33"/>
       <use xlink:href="#SimHei-35" transform="translate(50 0)"/>
       <use xlink:href="#SimHei-30" transform="translate(100 0)"/>
      </g>
     </g>
    </g>
    <g id="xtick_9">
     <g id="line2d_17">
      <path d="M 590.607724 356.965 
L 590.607724 24.325 
" clip-path="url(#pd824eb0f15)" style="fill: none; stroke: #b0b0b0; stroke-opacity: 0.3; stroke-width: 0.8; stroke-linecap: square"/>
     </g>
     <g id="line2d_18">
      <g>
       <use xlink:href="#me297e82a4f" x="590.607724" y="356.965" style="stroke: #000000; stroke-width: 0.8"/>
      </g>
     </g>
     <g id="text_9">
      <!-- 400 -->
      <g transform="translate(581.607724 372.215) scale(0.12 -0.12)">
       <defs>
        <path id="SimHei-34" d="M 2000 1100 
L 75 1100 
L 75 1525 
L 2100 4450 
L 2475 4450 
L 2475 1525 
L 3075 1525 
L 3075 1100 
L 2475 1100 
L 2475 150 
L 2000 150 
L 2000 1100 
z
M 2000 1525 
L 2000 3500 
L 600 1525 
L 2000 1525 
z
" transform="scale(0.015625)"/>
       </defs>
       <use xlink:href="#SimHei-34"/>
       <use xlink:href="#SimHei-30" transform="translate(50 0)"/>
       <use xlink:href="#SimHei-30" transform="translate(100 0)"/>
      </g>
     </g>
    </g>
    <g id="text_10">
     <!-- Episode -->
     <g transform="translate(307.7 388.715) scale(0.16 -0.16)">
      <defs>
       <path id="SimHei-45" d="M 2900 125 
L 350 125 
L 350 4400 
L 2775 4400 
L 2775 3925 
L 925 3925 
L 925 2600 
L 2625 2600 
L 2625 2125 
L 925 2125 
L 925 600 
L 2900 600 
L 2900 125 
z
" transform="scale(0.015625)"/>
       <path id="SimHei-70" d="M 2825 1525 
Q 2825 800 2475 425 
Q 2125 50 1625 50 
Q 1350 50 1150 162 
Q 950 275 800 500 
L 800 -800 
L 300 -800 
L 300 2925 
L 800 2925 
L 800 2550 
Q 950 2775 1150 2875 
Q 1350 2975 1625 2975 
Q 2125 2975 2475 2612 
Q 2825 2250 2825 1525 
z
M 2275 1525 
Q 2275 2000 2087 2262 
Q 1900 2525 1525 2525 
Q 1225 2525 1012 2262 
Q 800 2000 800 1525 
Q 800 1050 1012 775 
Q 1225 500 1525 500 
Q 1900 500 2087 775 
Q 2275 1050 2275 1525 
z
" transform="scale(0.015625)"/>
       <path id="SimHei-69" d="M 1800 3725 
L 1300 3725 
L 1300 4375 
L 1800 4375 
L 1800 3725 
z
M 1800 125 
L 1300 125 
L 1300 2925 
L 1800 2925 
L 1800 125 
z
" transform="scale(0.015625)"/>
       <path id="SimHei-73" d="M 2750 900 
Q 2750 500 2437 287 
Q 2125 75 1650 75 
Q 1050 75 725 312 
Q 400 550 400 1000 
L 900 1000 
Q 900 700 1112 600 
Q 1325 500 1625 500 
Q 1925 500 2075 612 
Q 2225 725 2225 900 
Q 2225 1025 2100 1150 
Q 1975 1275 1475 1350 
Q 900 1425 687 1637 
Q 475 1850 475 2200 
Q 475 2500 762 2737 
Q 1050 2975 1600 2975 
Q 2100 2975 2387 2750 
Q 2675 2525 2675 2150 
L 2175 2150 
Q 2175 2375 2012 2462 
Q 1850 2550 1600 2550 
Q 1275 2550 1137 2437 
Q 1000 2325 1000 2175 
Q 1000 2000 1125 1900 
Q 1250 1800 1650 1750 
Q 2300 1650 2525 1437 
Q 2750 1225 2750 900 
z
" transform="scale(0.015625)"/>
       <path id="SimHei-6f" d="M 2925 1525 
Q 2925 875 2525 475 
Q 2125 75 1575 75 
Q 1025 75 625 475 
Q 225 875 225 1525 
Q 225 2175 625 2575 
Q 1025 2975 1575 2975 
Q 2125 2975 2525 2575 
Q 2925 2175 2925 1525 
z
M 2375 1525 
Q 2375 2025 2125 2275 
Q 1875 2525 1575 2525 
Q 1275 2525 1025 2275 
Q 775 2025 775 1525 
Q 775 1025 1025 775 
Q 1275 525 1575 525 
Q 1875 525 2125 775 
Q 2375 1025 2375 1525 
z
" transform="scale(0.015625)"/>
       <path id="SimHei-64" d="M 2750 125 
L 2250 125 
L 2250 500 
Q 2100 275 1900 175 
Q 1700 75 1425 75 
Q 925 75 575 437 
Q 225 800 225 1525 
Q 225 2250 575 2625 
Q 925 3000 1425 3000 
Q 1700 3000 1900 2887 
Q 2100 2775 2250 2550 
L 2250 4400 
L 2750 4400 
L 2750 125 
z
M 2250 1525 
Q 2250 2000 2037 2275 
Q 1825 2550 1525 2550 
Q 1150 2550 962 2275 
Q 775 2000 775 1525 
Q 775 1050 962 787 
Q 1150 525 1525 525 
Q 1825 525 2037 787 
Q 2250 1050 2250 1525 
z
" transform="scale(0.015625)"/>
       <path id="SimHei-65" d="M 2850 1075 
Q 2800 625 2450 350 
Q 2100 75 1625 75 
Q 1025 75 637 462 
Q 250 850 250 1525 
Q 250 2200 637 2587 
Q 1025 2975 1625 2975 
Q 2150 2975 2487 2637 
Q 2825 2300 2825 1525 
L 800 1525 
Q 800 975 1037 750 
Q 1275 525 1625 525 
Q 1900 525 2075 662 
Q 2250 800 2300 1075 
L 2850 1075 
z
M 2250 1925 
Q 2200 2275 2025 2412 
Q 1850 2550 1575 2550 
Q 1325 2550 1125 2412 
Q 925 2275 825 1925 
L 2250 1925 
z
" transform="scale(0.015625)"/>
      </defs>
      <use xlink:href="#SimHei-45"/>
      <use xlink:href="#SimHei-70" transform="translate(50 0)"/>
      <use xlink:href="#SimHei-69" transform="translate(100 0)"/>
      <use xlink:href="#SimHei-73" transform="translate(150 0)"/>
      <use xlink:href="#SimHei-6f" transform="translate(200 0)"/>
      <use xlink:href="#SimHei-64" transform="translate(250 0)"/>
      <use xlink:href="#SimHei-65" transform="translate(300 0)"/>
     </g>
    </g>
   </g>
   <g id="matplotlib.axis_2">
    <g id="ytick_1">
     <g id="line2d_19">
      <path d="M 56.7 339.754528 
L 614.7 339.754528 
" clip-path="url(#pd824eb0f15)" style="fill: none; stroke: #b0b0b0; stroke-opacity: 0.3; stroke-width: 0.8; stroke-linecap: square"/>
     </g>
     <g id="line2d_20">
      <defs>
       <path id="m40c8f62855" d="M 0 0 
L -3.5 0 
" style="stroke: #000000; stroke-width: 0.8"/>
      </defs>
      <g>
       <use xlink:href="#m40c8f62855" x="56.7" y="339.754528" style="stroke: #000000; stroke-width: 0.8"/>
      </g>
     </g>
     <g id="text_11">
      <!-- 0.05 -->
      <g transform="translate(25.7 343.879528) scale(0.12 -0.12)">
       <defs>
        <path id="SimHei-2e" d="M 1075 125 
L 500 125 
L 500 675 
L 1075 675 
L 1075 125 
z
" transform="scale(0.015625)"/>
       </defs>
       <use xlink:href="#SimHei-30"/>
       <use xlink:href="#SimHei-2e" transform="translate(50 0)"/>
       <use xlink:href="#SimHei-30" transform="translate(100 0)"/>
       <use xlink:href="#SimHei-35" transform="translate(150 0)"/>
      </g>
     </g>
    </g>
    <g id="ytick_2">
     <g id="line2d_21">
      <path d="M 56.7 290.080849 
L 614.7 290.080849 
" clip-path="url(#pd824eb0f15)" style="fill: none; stroke: #b0b0b0; stroke-opacity: 0.3; stroke-width: 0.8; stroke-linecap: square"/>
     </g>
     <g id="line2d_22">
      <g>
       <use xlink:href="#m40c8f62855" x="56.7" y="290.080849" style="stroke: #000000; stroke-width: 0.8"/>
      </g>
     </g>
     <g id="text_12">
      <!-- 0.10 -->
      <g transform="translate(25.7 294.205849) scale(0.12 -0.12)">
       <use xlink:href="#SimHei-30"/>
       <use xlink:href="#SimHei-2e" transform="translate(50 0)"/>
       <use xlink:href="#SimHei-31" transform="translate(100 0)"/>
       <use xlink:href="#SimHei-30" transform="translate(150 0)"/>
      </g>
     </g>
    </g>
    <g id="ytick_3">
     <g id="line2d_23">
      <path d="M 56.7 240.40717 
L 614.7 240.40717 
" clip-path="url(#pd824eb0f15)" style="fill: none; stroke: #b0b0b0; stroke-opacity: 0.3; stroke-width: 0.8; stroke-linecap: square"/>
     </g>
     <g id="line2d_24">
      <g>
       <use xlink:href="#m40c8f62855" x="56.7" y="240.40717" style="stroke: #000000; stroke-width: 0.8"/>
      </g>
     </g>
     <g id="text_13">
      <!-- 0.15 -->
      <g transform="translate(25.7 244.53217) scale(0.12 -0.12)">
       <use xlink:href="#SimHei-30"/>
       <use xlink:href="#SimHei-2e" transform="translate(50 0)"/>
       <use xlink:href="#SimHei-31" transform="translate(100 0)"/>
       <use xlink:href="#SimHei-35" transform="translate(150 0)"/>
      </g>
     </g>
    </g>
    <g id="ytick_4">
     <g id="line2d_25">
      <path d="M 56.7 190.733491 
L 614.7 190.733491 
" clip-path="url(#pd824eb0f15)" style="fill: none; stroke: #b0b0b0; stroke-opacity: 0.3; stroke-width: 0.8; stroke-linecap: square"/>
     </g>
     <g id="line2d_26">
      <g>
       <use xlink:href="#m40c8f62855" x="56.7" y="190.733491" style="stroke: #000000; stroke-width: 0.8"/>
      </g>
     </g>
     <g id="text_14">
      <!-- 0.20 -->
      <g transform="translate(25.7 194.858491) scale(0.12 -0.12)">
       <use xlink:href="#SimHei-30"/>
       <use xlink:href="#SimHei-2e" transform="translate(50 0)"/>
       <use xlink:href="#SimHei-32" transform="translate(100 0)"/>
       <use xlink:href="#SimHei-30" transform="translate(150 0)"/>
      </g>
     </g>
    </g>
    <g id="ytick_5">
     <g id="line2d_27">
      <path d="M 56.7 141.059812 
L 614.7 141.059812 
" clip-path="url(#pd824eb0f15)" style="fill: none; stroke: #b0b0b0; stroke-opacity: 0.3; stroke-width: 0.8; stroke-linecap: square"/>
     </g>
     <g id="line2d_28">
      <g>
       <use xlink:href="#m40c8f62855" x="56.7" y="141.059812" style="stroke: #000000; stroke-width: 0.8"/>
      </g>
     </g>
     <g id="text_15">
      <!-- 0.25 -->
      <g transform="translate(25.7 145.184812) scale(0.12 -0.12)">
       <use xlink:href="#SimHei-30"/>
       <use xlink:href="#SimHei-2e" transform="translate(50 0)"/>
       <use xlink:href="#SimHei-32" transform="translate(100 0)"/>
       <use xlink:href="#SimHei-35" transform="translate(150 0)"/>
      </g>
     </g>
    </g>
    <g id="ytick_6">
     <g id="line2d_29">
      <path d="M 56.7 91.386133 
L 614.7 91.386133 
" clip-path="url(#pd824eb0f15)" style="fill: none; stroke: #b0b0b0; stroke-opacity: 0.3; stroke-width: 0.8; stroke-linecap: square"/>
     </g>
     <g id="line2d_30">
      <g>
       <use xlink:href="#m40c8f62855" x="56.7" y="91.386133" style="stroke: #000000; stroke-width: 0.8"/>
      </g>
     </g>
     <g id="text_16">
      <!-- 0.30 -->
      <g transform="translate(25.7 95.511133) scale(0.12 -0.12)">
       <use xlink:href="#SimHei-30"/>
       <use xlink:href="#SimHei-2e" transform="translate(50 0)"/>
       <use xlink:href="#SimHei-33" transform="translate(100 0)"/>
       <use xlink:href="#SimHei-30" transform="translate(150 0)"/>
      </g>
     </g>
    </g>
    <g id="ytick_7">
     <g id="line2d_31">
      <path d="M 56.7 41.712454 
L 614.7 41.712454 
" clip-path="url(#pd824eb0f15)" style="fill: none; stroke: #b0b0b0; stroke-opacity: 0.3; stroke-width: 0.8; stroke-linecap: square"/>
     </g>
     <g id="line2d_32">
      <g>
       <use xlink:href="#m40c8f62855" x="56.7" y="41.712454" style="stroke: #000000; stroke-width: 0.8"/>
      </g>
     </g>
     <g id="text_17">
      <!-- 0.35 -->
      <g transform="translate(25.7 45.837454) scale(0.12 -0.12)">
       <use xlink:href="#SimHei-30"/>
       <use xlink:href="#SimHei-2e" transform="translate(50 0)"/>
       <use xlink:href="#SimHei-33" transform="translate(100 0)"/>
       <use xlink:href="#SimHei-35" transform="translate(150 0)"/>
      </g>
     </g>
    </g>
    <g id="text_18">
     <!-- Delay (s) -->
     <g transform="translate(19.7 226.645) rotate(-90) scale(0.16 -0.16)">
      <defs>
       <path id="SimHei-44" d="M 2925 2250 
Q 2925 1100 2437 612 
Q 1950 125 1125 125 
L 275 125 
L 275 4400 
L 1125 4400 
Q 2050 4400 2487 3900 
Q 2925 3400 2925 2250 
z
M 2325 2250 
Q 2325 3175 2025 3550 
Q 1725 3925 1125 3925 
L 850 3925 
L 850 600 
L 1125 600 
Q 1725 600 2025 962 
Q 2325 1325 2325 2250 
z
" transform="scale(0.015625)"/>
       <path id="SimHei-6c" d="M 1825 125 
L 1325 125 
L 1325 4400 
L 1825 4400 
L 1825 125 
z
" transform="scale(0.015625)"/>
       <path id="SimHei-61" d="M 2875 125 
L 2275 125 
Q 2225 175 2200 262 
Q 2175 350 2175 475 
Q 2000 275 1750 175 
Q 1500 75 1225 75 
Q 825 75 550 275 
Q 275 475 275 850 
Q 275 1225 525 1450 
Q 775 1675 1300 1750 
Q 1650 1800 1912 1875 
Q 2175 1950 2175 2075 
Q 2175 2225 2062 2375 
Q 1950 2525 1575 2525 
Q 1275 2525 1137 2412 
Q 1000 2300 950 2100 
L 400 2100 
Q 450 2500 762 2737 
Q 1075 2975 1575 2975 
Q 2125 2975 2400 2725 
Q 2675 2475 2675 2025 
L 2675 650 
Q 2675 500 2725 375 
Q 2775 250 2875 125 
z
M 2175 1050 
L 2175 1550 
Q 2025 1500 1887 1462 
Q 1750 1425 1425 1375 
Q 1050 1325 937 1200 
Q 825 1075 825 900 
Q 825 750 937 637 
Q 1050 525 1275 525 
Q 1500 525 1762 650 
Q 2025 775 2175 1050 
z
" transform="scale(0.015625)"/>
       <path id="SimHei-79" d="M 2900 2925 
L 1750 -100 
Q 1650 -450 1450 -625 
Q 1250 -800 950 -800 
Q 825 -800 712 -787 
Q 600 -775 500 -725 
L 500 -225 
Q 600 -275 700 -300 
Q 800 -325 875 -325 
Q 1075 -325 1150 -262 
Q 1225 -200 1300 25 
L 200 2925 
L 750 2925 
L 1550 725 
L 1575 725 
L 2350 2925 
L 2900 2925 
z
" transform="scale(0.015625)"/>
       <path id="SimHei-20" transform="scale(0.015625)"/>
       <path id="SimHei-28" d="M 2975 -200 
L 2700 -475 
Q 2075 125 1762 775 
Q 1450 1425 1450 2250 
Q 1450 3075 1762 3725 
Q 2075 4375 2700 5000 
L 2975 4725 
Q 2400 4175 2112 3587 
Q 1825 3000 1825 2250 
Q 1825 1500 2112 912 
Q 2400 325 2975 -200 
z
" transform="scale(0.015625)"/>
       <path id="SimHei-29" d="M 1675 2250 
Q 1675 1425 1362 775 
Q 1050 125 425 -475 
L 150 -200 
Q 725 325 1012 912 
Q 1300 1500 1300 2250 
Q 1300 3000 1012 3587 
Q 725 4175 150 4725 
L 425 5000 
Q 1050 4375 1362 3725 
Q 1675 3075 1675 2250 
z
" transform="scale(0.015625)"/>
      </defs>
      <use xlink:href="#SimHei-44"/>
      <use xlink:href="#SimHei-65" transform="translate(50 0)"/>
      <use xlink:href="#SimHei-6c" transform="translate(100 0)"/>
      <use xlink:href="#SimHei-61" transform="translate(150 0)"/>
      <use xlink:href="#SimHei-79" transform="translate(200 0)"/>
      <use xlink:href="#SimHei-20" transform="translate(250 0)"/>
      <use xlink:href="#SimHei-28" transform="translate(300 0)"/>
      <use xlink:href="#SimHei-73" transform="translate(350 0)"/>
      <use xlink:href="#SimHei-29" transform="translate(400 0)"/>
     </g>
    </g>
   </g>
   <g id="line2d_33">
    <path d="M 82.063636 182.931435 
L 83.334997 179.231778 
L 84.606357 168.913319 
L 87.149077 153.50613 
L 88.420437 151.359785 
L 89.691798 150.510295 
L 90.963158 149.256311 
L 92.234518 144.359034 
L 93.505878 141.204608 
L 94.777239 138.800118 
L 96.048599 133.901135 
L 97.319959 128.050005 
L 98.591319 129.63627 
L 99.862679 126.056403 
L 101.13404 126.595799 
L 102.4054 126.369596 
L 103.67676 123.587994 
L 104.94812 123.900625 
L 106.219481 122.356972 
L 107.490841 122.006577 
L 108.762201 122.013603 
L 110.033561 123.235436 
L 111.304921 119.5366 
L 112.576282 122.598208 
L 113.847642 119.987488 
L 115.119002 114.817759 
L 116.390362 114.534519 
L 117.661722 112.577541 
L 118.933083 109.391521 
L 120.204443 111.137056 
L 121.475803 109.105837 
L 124.018524 113.477641 
L 125.289884 115.292468 
L 126.561244 119.733749 
L 127.832604 119.322432 
L 130.375325 160.338432 
L 131.646685 178.044489 
L 132.918045 193.248048 
L 136.732126 231.522804 
L 138.003486 243.0735 
L 139.274846 252.788219 
L 140.546206 259.227087 
L 143.088927 273.697163 
L 145.631647 285.273185 
L 146.903008 290.22016 
L 148.174368 295.88438 
L 150.717088 304.493175 
L 151.988448 307.052806 
L 153.259809 310.604781 
L 157.073889 319.003859 
L 158.345249 321.074887 
L 159.61661 322.684396 
L 160.88797 324.575085 
L 162.15933 325.332539 
L 163.43069 326.897711 
L 164.702051 328.686735 
L 165.973411 329.423448 
L 167.244771 330.654701 
L 168.516131 331.531556 
L 169.787491 331.495575 
L 171.058852 332.37167 
L 172.330212 332.727368 
L 173.601572 334.090265 
L 174.872932 334.160901 
L 176.144293 334.845673 
L 177.415653 334.488869 
L 178.687013 334.25694 
L 179.958373 335.034649 
L 181.229733 334.756208 
L 182.501094 335.258033 
L 183.772454 335.2278 
L 185.043814 335.688776 
L 186.315174 336.292797 
L 190.129255 335.533529 
L 191.400615 335.625579 
L 192.671975 336.216694 
L 193.943336 335.318296 
L 195.214696 335.734159 
L 199.028776 334.869739 
L 200.300137 335.161534 
L 201.571497 334.933898 
L 202.842857 334.983102 
L 204.114217 335.280982 
L 205.385578 335.979447 
L 206.656938 336.924759 
L 207.928298 336.677732 
L 209.199658 338.287949 
L 210.471018 338.926449 
L 211.742379 340.044455 
L 214.285099 340.406828 
L 215.556459 338.910706 
L 216.82782 338.671099 
L 219.37054 339.537584 
L 220.6419 339.169507 
L 221.91326 339.322424 
L 223.184621 339.34792 
L 224.455981 339.491844 
L 225.727341 339.407337 
L 230.812782 340.823716 
L 232.084142 340.511396 
L 233.355502 340.343733 
L 234.626863 339.771668 
L 235.898223 340.037386 
L 237.169583 339.288182 
L 238.440943 339.328305 
L 239.712303 339.247131 
L 240.983664 339.346764 
L 242.255024 339.271253 
L 243.526384 339.776075 
L 244.797744 339.012466 
L 246.069105 337.844575 
L 247.340465 337.957812 
L 248.611825 338.503772 
L 249.883185 339.412277 
L 251.154545 339.202174 
L 252.425906 339.139124 
L 253.697266 339.92166 
L 254.968626 339.244671 
L 256.239986 339.671425 
L 258.782707 338.870564 
L 260.054067 338.763578 
L 261.325427 338.885567 
L 262.596787 339.399113 
L 263.868148 338.498343 
L 266.410868 338.782815 
L 270.224949 338.520748 
L 271.496309 337.973079 
L 272.767669 337.242373 
L 274.039029 336.973791 
L 275.31039 337.379699 
L 276.58175 337.51505 
L 279.12447 339.340449 
L 280.39583 339.173794 
L 282.938551 338.436693 
L 286.752632 338.655387 
L 288.023992 338.344835 
L 289.295352 337.500514 
L 290.566712 338.416665 
L 291.838072 337.690648 
L 293.109433 337.949978 
L 294.380793 338.356632 
L 296.923513 337.231517 
L 299.466234 337.809405 
L 300.737594 338.36105 
L 302.008954 337.834883 
L 303.280314 339.02201 
L 304.551675 338.882006 
L 305.823035 338.250677 
L 307.094395 338.902321 
L 308.365755 338.790396 
L 309.637116 339.029304 
L 310.908476 338.950984 
L 312.179836 339.063631 
L 313.451196 337.401975 
L 314.722556 337.568882 
L 315.993917 338.045221 
L 317.265277 338.314902 
L 318.536637 339.021112 
L 319.807997 337.320939 
L 321.079357 336.99925 
L 322.350718 337.613481 
L 324.893438 337.469282 
L 326.164798 336.895575 
L 327.436159 337.70098 
L 328.707519 337.79785 
L 329.978879 338.817083 
L 331.250239 339.218653 
L 332.521599 338.908803 
L 333.79296 339.255746 
L 335.06432 339.866341 
L 337.60704 338.354264 
L 338.878401 338.388566 
L 340.149761 339.052459 
L 341.421121 337.124021 
L 342.692481 336.079962 
L 343.963841 337.160915 
L 345.235202 336.464855 
L 346.506562 336.532111 
L 347.777922 336.02925 
L 349.049282 336.128756 
L 350.320643 337.146259 
L 351.592003 337.489422 
L 352.863363 337.572277 
L 354.134723 337.412143 
L 355.406083 336.915252 
L 356.677444 335.814179 
L 357.948804 335.940267 
L 359.220164 335.548256 
L 360.491524 336.590961 
L 361.762884 336.491803 
L 363.034245 336.846489 
L 364.305605 337.637272 
L 365.576965 337.198085 
L 366.848325 337.55012 
L 368.119686 337.420431 
L 369.391046 336.699972 
L 371.933766 338.059671 
L 373.205126 337.301789 
L 374.476487 336.696334 
L 375.747847 337.14818 
L 377.019207 337.151716 
L 378.290567 337.397353 
L 379.561928 338.287947 
L 380.833288 338.500176 
L 382.104648 338.163012 
L 383.376008 338.166591 
L 384.647368 338.835836 
L 385.918729 339.169148 
L 387.190089 339.165567 
L 388.461449 339.673861 
L 389.732809 339.815406 
L 391.00417 340.545718 
L 392.27553 339.584767 
L 393.54689 340.144091 
L 396.08961 340.554769 
L 397.360971 340.040359 
L 399.903691 339.888455 
L 401.175051 339.55727 
L 402.446411 339.913594 
L 403.717772 340.082056 
L 404.989132 340.100545 
L 406.260492 340.470549 
L 407.531852 339.86386 
L 408.803213 339.400871 
L 410.074573 338.728739 
L 411.345933 338.984643 
L 412.617293 338.725295 
L 413.888653 338.073157 
L 415.160014 337.791224 
L 416.431374 337.334598 
L 417.702734 337.951106 
L 418.974094 338.272912 
L 421.516815 338.512929 
L 422.788175 339.012751 
L 425.330895 338.535766 
L 426.602256 337.760378 
L 427.873616 338.600016 
L 429.144976 338.988163 
L 430.416336 338.364384 
L 431.687697 338.163686 
L 432.959057 338.394159 
L 434.230417 338.394701 
L 435.501777 338.538863 
L 436.773137 337.845077 
L 438.044498 338.495442 
L 439.315858 338.613587 
L 440.587218 338.394908 
L 441.858578 338.88668 
L 443.129938 338.745232 
L 444.401299 337.835488 
L 445.672659 337.710122 
L 446.944019 337.798981 
L 448.215379 338.090317 
L 449.48674 337.856542 
L 450.7581 336.727859 
L 452.02946 337.205719 
L 453.30082 338.483676 
L 454.57218 338.977146 
L 455.843541 338.819022 
L 457.114901 338.96851 
L 458.386261 339.367966 
L 459.657621 339.498446 
L 460.928982 339.945693 
L 462.200342 339.336065 
L 464.743062 338.911872 
L 466.014422 339.63636 
L 467.285783 340.227449 
L 468.557143 339.852413 
L 469.828503 339.685938 
L 471.099863 340.109506 
L 472.371224 340.659327 
L 473.642584 340.348932 
L 474.913944 340.331594 
L 476.185304 339.640594 
L 477.456664 340.297472 
L 478.728025 339.383368 
L 479.999385 339.339485 
L 481.270745 338.966234 
L 482.542105 338.119816 
L 483.813465 336.988991 
L 485.084826 337.145897 
L 486.356186 337.114035 
L 487.627546 336.876774 
L 488.898906 336.826852 
L 490.170267 337.364526 
L 491.441627 338.040371 
L 492.712987 337.321845 
L 493.984347 337.036339 
L 495.255707 336.115845 
L 496.527068 336.485711 
L 497.798428 336.543337 
L 499.069788 337.121283 
L 500.341148 338.212107 
L 501.612509 339.00927 
L 502.883869 338.969975 
L 504.155229 339.79061 
L 505.426589 340.85929 
L 506.697949 339.543116 
L 507.96931 340.048542 
L 509.24067 340.699118 
L 511.78339 339.213449 
L 513.054751 339.918364 
L 514.326111 339.131172 
L 515.597471 338.752352 
L 518.140191 337.17877 
L 520.682912 338.13155 
L 521.954272 338.443477 
L 523.225632 338.165392 
L 524.496992 339.150196 
L 525.768353 339.653022 
L 527.039713 339.514552 
L 528.311073 339.592438 
L 529.582433 338.702546 
L 530.853794 338.619597 
L 532.125154 339.235973 
L 533.396514 339.0218 
L 534.667874 339.599153 
L 535.939234 339.144416 
L 537.210595 338.960498 
L 538.481955 337.425276 
L 539.753315 336.657108 
L 541.024675 336.744292 
L 542.296036 335.814385 
L 543.567396 336.202266 
L 544.838756 336.801264 
L 546.110116 337.06498 
L 547.381476 336.511447 
L 548.652837 337.41037 
L 549.924197 337.536169 
L 551.195557 337.274327 
L 552.466917 337.185484 
L 553.738278 337.643225 
L 555.009638 337.869203 
L 556.280998 337.678806 
L 557.552358 337.647464 
L 562.637799 339.695725 
L 563.909159 339.632298 
L 565.180519 339.981273 
L 567.72324 339.741349 
L 568.9946 339.871261 
L 570.26596 339.08842 
L 571.537321 337.608545 
L 572.808681 337.290482 
L 574.080041 337.78815 
L 576.622761 339.061123 
L 577.894122 339.016151 
L 579.165482 339.514232 
L 580.436842 337.667605 
L 581.708202 338.445062 
L 582.979563 337.370778 
L 584.250923 338.388984 
L 585.522283 338.199272 
L 586.793643 338.165202 
L 588.065003 338.37047 
L 589.336364 337.771986 
L 589.336364 337.771986 
" clip-path="url(#pd824eb0f15)" style="fill: none; stroke: #1f77b4; stroke-width: 1.2; stroke-linecap: square"/>
   </g>
   <g id="line2d_34">
    <path d="M 82.063636 176.977934 
L 83.334997 168.919292 
L 84.606357 152.402603 
L 85.877717 143.603011 
L 88.420437 119.370271 
L 89.691798 113.910258 
L 92.234518 94.241569 
L 93.505878 90.818578 
L 94.777239 84.176875 
L 96.048599 82.922118 
L 97.319959 80.707869 
L 98.591319 72.07127 
L 99.862679 66.890235 
L 101.13404 60.492994 
L 102.4054 59.982222 
L 103.67676 57.876612 
L 104.94812 57.902997 
L 106.219481 56.052946 
L 107.490841 56.856184 
L 108.762201 55.943961 
L 110.033561 54.469835 
L 111.304921 50.834385 
L 112.576282 50.177499 
L 113.847642 49.900512 
L 115.119002 50.546778 
L 116.390362 48.567768 
L 117.661722 47.882928 
L 118.933083 44.985994 
L 120.204443 46.375675 
L 121.475803 43.162856 
L 122.747163 47.041747 
L 124.018524 45.611739 
L 125.289884 45.373331 
L 126.561244 43.346522 
L 127.832604 39.445 
L 129.103964 41.412031 
L 130.375325 41.483842 
L 131.646685 41.422983 
L 132.918045 45.025182 
L 134.189405 47.180528 
L 135.460766 46.728747 
L 138.003486 101.296971 
L 139.274846 124.813495 
L 140.546206 146.139444 
L 143.088927 182.473678 
L 145.631647 212.556676 
L 148.174368 236.254636 
L 150.717088 256.619848 
L 151.988448 265.065504 
L 153.259809 272.757669 
L 155.802529 285.151542 
L 158.345249 295.248252 
L 159.61661 299.959319 
L 160.88797 304.163616 
L 162.15933 307.311338 
L 163.43069 309.200307 
L 164.702051 312.776293 
L 168.516131 319.977765 
L 171.058852 323.040163 
L 172.330212 324.343593 
L 173.601572 326.281345 
L 174.872932 326.904498 
L 176.144293 328.095552 
L 177.415653 328.449234 
L 178.687013 329.325069 
L 179.958373 330.771291 
L 181.229733 331.873692 
L 182.501094 332.348098 
L 183.772454 333.197159 
L 185.043814 333.870919 
L 186.315174 333.904444 
L 187.586535 334.269547 
L 188.857895 334.406377 
L 190.129255 333.775374 
L 191.400615 333.794221 
L 193.943336 335.023612 
L 195.214696 335.550473 
L 197.757416 336.371809 
L 199.028776 336.188822 
L 200.300137 335.558137 
L 201.571497 335.693329 
L 202.842857 336.01752 
L 204.114217 335.027161 
L 206.656938 335.554568 
L 207.928298 335.264914 
L 209.199658 336.446974 
L 211.742379 337.267447 
L 213.013739 338.004858 
L 214.285099 337.891063 
L 215.556459 335.920392 
L 216.82782 335.502523 
L 218.09918 336.506237 
L 219.37054 337.351033 
L 220.6419 337.2271 
L 221.91326 337.510094 
L 223.184621 337.92573 
L 224.455981 338.843367 
L 226.998701 339.983025 
L 228.270062 340.02666 
L 229.541422 339.826589 
L 230.812782 340.027857 
L 232.084142 338.572143 
L 233.355502 338.198331 
L 234.626863 338.100877 
L 235.898223 338.44847 
L 237.169583 337.714671 
L 238.440943 338.132922 
L 239.712303 337.807131 
L 240.983664 338.385207 
L 242.255024 338.451559 
L 243.526384 338.249576 
L 244.797744 337.425381 
L 246.069105 337.66416 
L 247.340465 338.936664 
L 249.883185 340.094559 
L 251.154545 340.314216 
L 252.425906 339.732871 
L 253.697266 339.990792 
L 254.968626 340.741437 
L 256.239986 340.543726 
L 257.511347 340.998352 
L 258.782707 341.177297 
L 260.054067 340.620053 
L 261.325427 340.537012 
L 262.596787 340.569735 
L 263.868148 340.441617 
L 265.139508 340.64524 
L 266.410868 340.522665 
L 267.682228 340.734581 
L 268.953589 341.213163 
L 270.224949 341.256967 
L 271.496309 340.590512 
L 272.767669 340.503801 
L 274.039029 340.685758 
L 275.31039 340.697926 
L 277.85311 341.305439 
L 279.12447 341.333568 
L 280.39583 341.218869 
L 281.667191 341.487659 
L 282.938551 339.735566 
L 284.209911 339.718151 
L 285.481271 339.303917 
L 286.752632 339.89472 
L 288.023992 339.386698 
L 290.566712 339.92675 
L 291.838072 339.199428 
L 293.109433 339.561823 
L 294.380793 339.680019 
L 296.923513 338.303461 
L 299.466234 338.67768 
L 300.737594 339.142497 
L 302.008954 338.538186 
L 303.280314 339.654982 
L 304.551675 339.451681 
L 305.823035 338.763385 
L 307.094395 339.363758 
L 308.365755 339.205689 
L 309.637116 339.403068 
L 310.908476 339.287371 
L 312.179836 339.36638 
L 313.451196 337.674449 
L 314.722556 337.814108 
L 315.993917 338.265925 
L 317.265277 338.513536 
L 318.536637 339.199882 
L 319.807997 337.481832 
L 321.079357 337.144054 
L 322.350718 337.743804 
L 324.893438 337.574844 
L 326.164798 336.99058 
L 327.436159 337.786486 
L 328.707519 337.874805 
L 329.978879 338.886342 
L 331.250239 339.280987 
L 332.521599 338.964903 
L 333.79296 339.306236 
L 335.06432 339.911782 
L 337.60704 338.391071 
L 338.878401 338.421692 
L 340.149761 339.082273 
L 341.421121 337.150854 
L 342.692481 336.104111 
L 343.963841 337.182649 
L 345.235202 336.484416 
L 346.506562 336.549716 
L 347.777922 336.045095 
L 349.049282 336.143016 
L 350.320643 337.159092 
L 351.592003 337.500973 
L 352.863363 337.582673 
L 354.134723 337.421499 
L 355.406083 336.923672 
L 356.677444 335.821757 
L 357.948804 335.947088 
L 359.220164 335.554395 
L 360.491524 336.596486 
L 361.762884 336.496775 
L 363.034245 336.850964 
L 364.305605 337.641299 
L 365.576965 337.20171 
L 366.848325 337.553382 
L 368.119686 337.423366 
L 369.391046 336.702614 
L 371.933766 338.061812 
L 373.205126 337.303715 
L 374.476487 336.698067 
L 375.747847 337.149741 
L 377.019207 337.153121 
L 378.290567 337.398617 
L 379.561928 338.289084 
L 380.833288 338.501199 
L 382.104648 338.163933 
L 383.376008 338.167421 
L 384.647368 338.836582 
L 385.918729 339.169819 
L 387.190089 339.166172 
L 388.461449 339.674405 
L 389.732809 339.815896 
L 391.00417 340.546159 
L 392.27553 339.585163 
L 393.54689 340.144448 
L 396.08961 340.555058 
L 397.360971 340.040619 
L 399.903691 339.888666 
L 401.175051 339.55746 
L 402.446411 339.913765 
L 403.717772 340.08221 
L 404.989132 340.100683 
L 406.260492 340.470673 
L 407.531852 339.863972 
L 408.803213 339.400972 
L 410.074573 338.72883 
L 411.345933 338.984724 
L 412.617293 338.725368 
L 413.888653 338.073223 
L 415.160014 337.791283 
L 416.431374 337.334652 
L 417.702734 337.951154 
L 418.974094 338.272955 
L 421.516815 338.512965 
L 422.788175 339.012783 
L 425.330895 338.535791 
L 426.602256 337.760401 
L 427.873616 338.600036 
L 429.144976 338.988182 
L 430.416336 338.364401 
L 431.687697 338.163701 
L 432.959057 338.394173 
L 434.230417 338.394713 
L 435.501777 338.538874 
L 436.773137 337.845087 
L 438.044498 338.49545 
L 439.315858 338.613595 
L 440.587218 338.394915 
L 441.858578 338.886687 
L 443.129938 338.745238 
L 444.401299 337.835493 
L 445.672659 337.710127 
L 446.944019 337.798985 
L 448.215379 338.090321 
L 449.48674 337.856545 
L 450.7581 336.727862 
L 452.02946 337.205722 
L 453.30082 338.483678 
L 454.57218 338.977148 
L 455.843541 338.819024 
L 457.114901 338.968512 
L 458.386261 339.367967 
L 459.657621 339.498448 
L 460.928982 339.945694 
L 462.200342 339.336066 
L 464.743062 338.911873 
L 466.014422 339.636361 
L 467.285783 340.22745 
L 468.557143 339.852413 
L 469.828503 339.685939 
L 471.099863 340.109507 
L 472.371224 340.659327 
L 473.642584 340.348933 
L 474.913944 340.331594 
L 476.185304 339.640594 
L 477.456664 340.297472 
L 478.728025 339.383368 
L 479.999385 339.339486 
L 481.270745 338.966234 
L 482.542105 338.119816 
L 483.813465 336.988991 
L 485.084826 337.145898 
L 486.356186 337.114035 
L 487.627546 336.876775 
L 488.898906 336.826852 
L 490.170267 337.364526 
L 491.441627 338.040371 
L 492.712987 337.321845 
L 493.984347 337.036339 
L 495.255707 336.115845 
L 496.527068 336.485711 
L 497.798428 336.543337 
L 499.069788 337.121283 
L 500.341148 338.212107 
L 501.612509 339.00927 
L 502.883869 338.969975 
L 504.155229 339.79061 
L 505.426589 340.85929 
L 506.697949 339.543116 
L 507.96931 340.048542 
L 509.24067 340.699118 
L 511.78339 339.213449 
L 513.054751 339.918364 
L 514.326111 339.131173 
L 515.597471 338.752352 
L 518.140191 337.17877 
L 520.682912 338.13155 
L 521.954272 338.443477 
L 523.225632 338.165392 
L 524.496992 339.150196 
L 525.768353 339.653022 
L 527.039713 339.514552 
L 528.311073 339.592438 
L 529.582433 338.702546 
L 530.853794 338.619597 
L 532.125154 339.235973 
L 533.396514 339.0218 
L 534.667874 339.599153 
L 535.939234 339.144416 
L 537.210595 338.960498 
L 538.481955 337.425276 
L 539.753315 336.657108 
L 541.024675 336.744292 
L 542.296036 335.814385 
L 543.567396 336.202266 
L 544.838756 336.801264 
L 546.110116 337.06498 
L 547.381476 336.511447 
L 548.652837 337.41037 
L 549.924197 337.536169 
L 551.195557 337.274327 
L 552.466917 337.185484 
L 553.738278 337.643225 
L 555.009638 337.869203 
L 556.280998 337.678806 
L 557.552358 337.647464 
L 562.637799 339.695725 
L 563.909159 339.632298 
L 565.180519 339.981273 
L 567.72324 339.741349 
L 568.9946 339.871261 
L 570.26596 339.08842 
L 571.537321 337.608545 
L 572.808681 337.290482 
L 574.080041 337.78815 
L 576.622761 339.061123 
L 577.894122 339.016151 
L 579.165482 339.514232 
L 580.436842 337.667605 
L 581.708202 338.445062 
L 582.979563 337.370778 
L 584.250923 338.388984 
L 585.522283 338.199272 
L 586.793643 338.165202 
L 588.065003 338.37047 
L 588.065003 338.37047 
" clip-path="url(#pd824eb0f15)" style="fill: none; stroke: #ff7f0e; stroke-width: 1.2; stroke-linecap: square"/>
   </g>
   <g id="line2d_35">
    <path d="M 82.063636 222.044609 
L 83.334997 216.788878 
L 84.606357 207.112649 
L 85.877717 202.926098 
L 87.149077 198.351193 
L 88.420437 194.629096 
L 89.691798 186.85129 
L 90.963158 183.725642 
L 92.234518 180.29942 
L 93.505878 178.122468 
L 94.777239 175.277519 
L 96.048599 168.516039 
L 97.319959 170.247788 
L 98.591319 174.20743 
L 101.13404 193.148311 
L 102.4054 205.793503 
L 103.67676 216.138877 
L 106.219481 238.479253 
L 108.762201 256.401181 
L 111.304921 270.786717 
L 112.576282 276.719883 
L 113.847642 280.237537 
L 115.119002 284.974309 
L 117.661722 295.46571 
L 118.933083 299.838428 
L 121.475803 307.239097 
L 122.747163 310.244102 
L 125.289884 317.039266 
L 126.561244 319.209467 
L 127.832604 321.838569 
L 129.103964 324.008428 
L 130.375325 325.753403 
L 131.646685 327.958618 
L 132.918045 329.689329 
L 134.189405 330.918837 
L 135.460766 330.725397 
L 136.732126 331.053952 
L 138.003486 331.655308 
L 139.274846 332.677005 
L 140.546206 333.062726 
L 141.817567 333.848103 
L 143.088927 334.368946 
L 144.360287 333.43893 
L 148.174368 334.914416 
L 149.445728 334.519935 
L 151.988448 336.522865 
L 155.802529 336.796365 
L 157.073889 335.861869 
L 158.345249 336.232325 
L 159.61661 336.972872 
L 160.88797 338.049009 
L 162.15933 336.726666 
L 163.43069 337.007347 
L 164.702051 337.554095 
L 165.973411 337.773561 
L 167.244771 338.12837 
L 168.516131 337.652243 
L 169.787491 338.518075 
L 171.058852 338.657171 
L 172.330212 338.480389 
L 173.601572 338.829667 
L 174.872932 338.654302 
L 176.144293 338.083216 
L 178.687013 339.020092 
L 179.958373 338.506878 
L 181.229733 338.343581 
L 182.501094 337.861265 
L 183.772454 338.956731 
L 185.043814 339.271016 
L 187.586535 338.922311 
L 188.857895 339.317143 
L 191.400615 338.814166 
L 192.671975 339.103065 
L 196.486056 339.331884 
L 199.028776 338.59317 
L 201.571497 338.473729 
L 202.842857 338.097785 
L 204.114217 337.954279 
L 205.385578 337.336657 
L 209.199658 337.945817 
L 210.471018 338.494205 
L 211.742379 338.449074 
L 213.013739 338.562704 
L 214.285099 338.212785 
L 215.556459 338.110964 
L 216.82782 337.324421 
L 218.09918 337.577103 
L 219.37054 338.585775 
L 220.6419 338.087308 
L 221.91326 338.512918 
L 223.184621 338.809408 
L 225.727341 337.925088 
L 226.998701 338.673959 
L 228.270062 338.736104 
L 229.541422 339.685458 
L 230.812782 339.431075 
L 233.355502 339.748113 
L 234.626863 340.338171 
L 235.898223 340.301208 
L 237.169583 340.384414 
L 238.440943 340.11333 
L 239.712303 340.203044 
L 240.983664 340.581952 
L 242.255024 340.184181 
L 243.526384 340.010881 
L 244.797744 340.318419 
L 246.069105 339.940804 
L 247.340465 339.823709 
L 248.611825 340.287733 
L 249.883185 340.567205 
L 251.154545 341.080363 
L 253.697266 339.798739 
L 254.968626 339.441176 
L 256.239986 339.437375 
L 257.511347 339.278481 
L 258.782707 339.250334 
L 260.054067 339.567748 
L 261.325427 339.599015 
L 262.596787 340.418907 
L 263.868148 339.648201 
L 265.139508 340.360987 
L 266.410868 340.759742 
L 267.682228 340.99269 
L 270.224949 340.370047 
L 271.496309 341.477331 
L 272.767669 341.23219 
L 274.039029 340.640383 
L 275.31039 340.502447 
L 276.58175 340.866564 
L 277.85311 340.79159 
L 279.12447 340.539888 
L 281.667191 341.670074 
L 282.938551 340.774556 
L 284.209911 340.355296 
L 285.481271 340.194641 
L 286.752632 339.902692 
L 288.023992 340.477031 
L 290.566712 340.697828 
L 291.838072 341.079032 
L 293.109433 340.24337 
L 295.652153 339.752071 
L 298.194874 337.081362 
L 299.466234 336.433773 
L 300.737594 336.627383 
L 302.008954 337.260459 
L 303.280314 337.442372 
L 304.551675 337.354236 
L 307.094395 338.104885 
L 308.365755 339.26246 
L 309.637116 339.053059 
L 310.908476 339.036381 
L 312.179836 338.156804 
L 313.451196 338.38588 
L 314.722556 339.104567 
L 315.993917 338.034746 
L 318.536637 337.800246 
L 319.807997 338.233805 
L 321.079357 337.846049 
L 322.350718 338.191892 
L 323.622078 338.670508 
L 326.164798 339.293449 
L 327.436159 339.727306 
L 328.707519 340.028034 
L 329.978879 339.506465 
L 331.250239 339.478632 
L 332.521599 339.596723 
L 333.79296 338.863717 
L 335.06432 338.884565 
L 336.33568 339.376579 
L 337.60704 338.970883 
L 340.149761 339.288727 
L 341.421121 340.440031 
L 342.692481 340.085562 
L 343.963841 339.898539 
L 345.235202 339.908345 
L 346.506562 339.771935 
L 347.777922 339.095709 
L 349.049282 339.334553 
L 350.320643 339.096856 
L 351.592003 338.525958 
L 352.863363 338.172044 
L 354.134723 338.872968 
L 356.677444 338.32141 
L 357.948804 339.025914 
L 359.220164 339.085042 
L 360.491524 339.029841 
L 361.762884 339.232503 
L 363.034245 338.542662 
L 364.305605 338.33112 
L 365.576965 337.866748 
L 366.848325 338.081744 
L 368.119686 337.979691 
L 369.391046 338.101748 
L 370.662406 338.360307 
L 371.933766 337.916222 
L 373.205126 337.755915 
L 374.476487 337.09487 
L 375.747847 337.012424 
L 378.290567 337.179431 
L 379.561928 338.14776 
L 383.376008 338.026127 
L 384.647368 338.45919 
L 385.918729 338.472036 
L 387.190089 338.201508 
L 388.461449 338.76785 
L 389.732809 338.817746 
L 392.27553 340.000887 
L 393.54689 339.171281 
L 394.81825 339.136359 
L 396.08961 339.274088 
L 397.360971 339.027192 
L 398.632331 339.358389 
L 399.903691 339.343351 
L 401.175051 336.639871 
L 402.446411 336.847769 
L 403.717772 337.244233 
L 406.260492 338.255887 
L 408.803213 338.394345 
L 410.074573 338.840294 
L 411.345933 339.084559 
L 412.617293 338.446705 
L 413.888653 338.317801 
L 415.160014 338.631021 
L 416.431374 337.616661 
L 417.702734 337.435518 
L 418.974094 338.188837 
L 420.245455 337.618538 
L 421.516815 338.447147 
L 422.788175 337.431436 
L 424.059535 337.795549 
L 425.330895 338.021525 
L 426.602256 337.342103 
L 427.873616 337.910855 
L 429.144976 337.650316 
L 430.416336 337.184017 
L 432.959057 338.134571 
L 434.230417 338.642926 
L 435.501777 338.987069 
L 438.044498 339.229021 
L 440.587218 339.07448 
L 443.129938 338.469931 
L 444.401299 338.6821 
L 445.672659 337.431413 
L 446.944019 338.106889 
L 448.215379 338.039685 
L 449.48674 337.715526 
L 450.7581 336.684233 
L 452.02946 337.420778 
L 453.30082 338.288353 
L 454.57218 338.667575 
L 455.843541 339.614944 
L 457.114901 339.11207 
L 458.386261 337.784748 
L 459.657621 337.173005 
L 460.928982 337.491585 
L 462.200342 337.669627 
L 463.471702 337.619332 
L 464.743062 338.614301 
L 466.014422 338.475053 
L 467.285783 338.731656 
L 468.557143 339.204749 
L 469.828503 339.218786 
L 471.099863 339.044415 
L 473.642584 340.160936 
L 474.913944 339.961925 
L 478.728025 340.52454 
L 479.999385 340.559112 
L 481.270745 340.049182 
L 482.542105 338.43602 
L 483.813465 337.94234 
L 485.084826 338.700271 
L 486.356186 338.14849 
L 487.627546 338.273065 
L 488.898906 337.936986 
L 490.170267 337.860845 
L 491.441627 336.839598 
L 492.712987 337.364575 
L 493.984347 336.566844 
L 495.255707 337.676037 
L 496.527068 337.489215 
L 497.798428 337.847475 
L 500.341148 338.180211 
L 501.612509 339.013163 
L 502.883869 338.40947 
L 504.155229 338.475429 
L 505.426589 337.81622 
L 506.697949 337.386071 
L 507.96931 337.867567 
L 509.24067 337.870381 
L 510.51203 338.28049 
L 511.78339 337.411615 
L 513.054751 337.594678 
L 514.326111 336.584124 
L 515.597471 336.668621 
L 516.868831 337.413491 
L 520.682912 338.325313 
L 521.954272 338.219896 
L 523.225632 338.447148 
L 525.768353 337.846395 
L 527.039713 338.091794 
L 528.311073 337.934296 
L 529.582433 338.122969 
L 530.853794 338.128306 
L 532.125154 338.483612 
L 533.396514 338.565329 
L 534.667874 338.485673 
L 537.210595 339.258723 
L 538.481955 339.594053 
L 542.296036 337.762886 
L 543.567396 337.367955 
L 547.381476 338.261819 
L 548.652837 338.250144 
L 549.924197 337.400735 
L 551.195557 338.016445 
L 552.466917 337.514517 
L 553.738278 337.962069 
L 555.009638 335.598238 
L 556.280998 336.040239 
L 557.552358 336.720146 
L 558.823718 337.99295 
L 560.095079 338.484529 
L 561.366439 338.589492 
L 562.637799 337.340464 
L 566.45188 338.148306 
L 568.9946 337.828012 
L 571.537321 338.343506 
L 575.351401 338.698763 
L 576.622761 339.429699 
L 577.894122 339.123684 
L 579.165482 339.423223 
L 580.436842 339.48415 
L 582.979563 339.373384 
L 584.250923 339.557374 
L 585.522283 339.923214 
L 586.793643 338.057854 
L 588.065003 338.313801 
L 588.065003 338.313801 
" clip-path="url(#pd824eb0f15)" style="fill: none; stroke: #2ca02c; stroke-width: 1.2; stroke-linecap: square"/>
   </g>
   <g id="line2d_36">
    <path d="M 82.063636 222.044609 
L 83.334997 221.885044 
L 84.606357 223.791197 
L 85.877717 223.562467 
L 87.149077 228.756734 
L 92.234518 252.407434 
L 93.505878 260.298677 
L 97.319959 280.314243 
L 98.591319 285.577664 
L 99.862679 288.891022 
L 101.13404 291.807906 
L 102.4054 297.323245 
L 106.219481 308.499852 
L 107.490841 311.71754 
L 108.762201 314.297033 
L 110.033561 316.327474 
L 111.304921 318.951556 
L 112.576282 320.237743 
L 115.119002 323.713651 
L 116.390362 324.315214 
L 117.661722 326.222849 
L 120.204443 327.6172 
L 121.475803 328.993483 
L 122.747163 330.152101 
L 124.018524 332.009458 
L 125.289884 332.26218 
L 129.103964 333.893131 
L 130.375325 334.750182 
L 131.646685 334.337022 
L 132.918045 335.309511 
L 134.189405 335.508047 
L 135.460766 335.900698 
L 136.732126 335.3582 
L 138.003486 335.64755 
L 139.274846 336.426333 
L 141.817567 336.096761 
L 143.088927 336.860716 
L 144.360287 337.001933 
L 145.631647 335.397116 
L 146.903008 335.72732 
L 148.174368 336.59178 
L 149.445728 336.665525 
L 150.717088 335.259826 
L 151.988448 336.399952 
L 153.259809 336.980232 
L 154.531169 337.213951 
L 155.802529 336.801474 
L 158.345249 337.625368 
L 159.61661 337.705262 
L 160.88797 337.916179 
L 162.15933 337.573934 
L 163.43069 337.642914 
L 165.973411 338.216583 
L 167.244771 337.741359 
L 168.516131 337.825869 
L 169.787491 338.698958 
L 171.058852 338.54386 
L 172.330212 339.172093 
L 173.601572 337.268178 
L 174.872932 337.665253 
L 176.144293 338.455624 
L 177.415653 338.884513 
L 178.687013 338.832801 
L 179.958373 339.242194 
L 181.229733 340.287476 
L 182.501094 340.399357 
L 183.772454 339.190192 
L 185.043814 339.15477 
L 186.315174 338.340173 
L 187.586535 337.980422 
L 188.857895 337.292563 
L 190.129255 337.826306 
L 191.400615 338.164919 
L 192.671975 338.04905 
L 195.214696 338.388975 
L 197.757416 340.025281 
L 199.028776 339.836712 
L 200.300137 339.502356 
L 201.571497 339.766078 
L 202.842857 338.967051 
L 204.114217 339.366196 
L 205.385578 339.011446 
L 207.928298 340.274616 
L 209.199658 339.405134 
L 210.471018 339.686881 
L 211.742379 339.686901 
L 213.013739 339.238068 
L 214.285099 339.406076 
L 215.556459 338.361791 
L 216.82782 339.064342 
L 218.09918 339.130956 
L 219.37054 338.337359 
L 221.91326 338.925864 
L 223.184621 339.330811 
L 224.455981 338.857067 
L 225.727341 338.598181 
L 226.998701 339.210807 
L 228.270062 339.63011 
L 229.541422 340.666089 
L 230.812782 340.534006 
L 232.084142 340.5769 
L 233.355502 340.153384 
L 234.626863 340.528718 
L 235.898223 340.295543 
L 237.169583 340.672716 
L 238.440943 340.598539 
L 239.712303 340.701848 
L 240.983664 340.455655 
L 242.255024 340.521798 
L 243.526384 341.066673 
L 244.797744 340.318904 
L 246.069105 340.416181 
L 247.340465 339.925824 
L 249.883185 339.53931 
L 251.154545 339.507134 
L 252.425906 339.211297 
L 253.697266 339.544901 
L 254.968626 339.31006 
L 256.239986 339.651328 
L 257.511347 338.141534 
L 258.782707 338.153624 
L 262.596787 339.56748 
L 263.868148 339.931209 
L 265.139508 340.139818 
L 266.410868 340.057934 
L 267.682228 340.949025 
L 268.953589 339.995481 
L 270.224949 340.306473 
L 271.496309 340.35138 
L 272.767669 340.64002 
L 274.039029 340.443318 
L 275.31039 339.866879 
L 276.58175 340.130878 
L 277.85311 338.851153 
L 279.12447 338.611079 
L 280.39583 338.142339 
L 281.667191 337.176261 
L 284.209911 338.472875 
L 285.481271 337.98848 
L 286.752632 338.219271 
L 288.023992 338.259469 
L 289.295352 337.235556 
L 290.566712 338.285082 
L 291.838072 338.91382 
L 293.109433 338.564217 
L 294.380793 338.571383 
L 296.923513 338.377136 
L 299.466234 339.725598 
L 300.737594 339.007949 
L 302.008954 339.470501 
L 303.280314 338.776594 
L 304.551675 339.564089 
L 305.823035 340.200491 
L 307.094395 340.613326 
L 308.365755 340.470421 
L 309.637116 339.909879 
L 310.908476 340.197963 
L 313.451196 340.471792 
L 314.722556 341.019529 
L 315.993917 341.230131 
L 317.265277 341.105455 
L 319.807997 341.202175 
L 321.079357 341.53969 
L 323.622078 341.845 
L 326.164798 341.459547 
L 327.436159 340.190592 
L 328.707519 339.683625 
L 329.978879 339.812355 
L 331.250239 339.524634 
L 332.521599 340.161528 
L 335.06432 340.638176 
L 336.33568 340.586594 
L 338.878401 341.144909 
L 340.149761 341.441208 
L 341.421121 340.861714 
L 342.692481 339.968898 
L 343.963841 339.520911 
L 345.235202 339.831542 
L 346.506562 339.889827 
L 347.777922 339.321459 
L 350.320643 338.516622 
L 351.592003 339.211173 
L 352.863363 339.208098 
L 354.134723 339.677919 
L 355.406083 339.071647 
L 356.677444 340.036111 
L 359.220164 340.468529 
L 360.491524 340.404495 
L 361.762884 340.009317 
L 363.034245 340.061361 
L 364.305605 339.532762 
L 366.848325 338.997718 
L 368.119686 338.80055 
L 369.391046 338.0579 
L 370.662406 337.178006 
L 371.933766 337.970858 
L 373.205126 338.105681 
L 375.747847 338.952525 
L 377.019207 338.691113 
L 378.290567 339.06045 
L 382.104648 340.553056 
L 383.376008 341.064594 
L 384.647368 340.37189 
L 385.918729 340.072389 
L 387.190089 339.146749 
L 389.732809 339.220212 
L 391.00417 339.122833 
L 392.27553 339.318961 
L 393.54689 340.358617 
L 394.81825 339.438854 
L 396.08961 339.030261 
L 397.360971 339.240183 
L 398.632331 338.931425 
L 399.903691 339.307038 
L 401.175051 338.486273 
L 402.446411 337.94417 
L 403.717772 337.838743 
L 404.989132 338.26258 
L 406.260492 337.773814 
L 407.531852 336.844105 
L 408.803213 337.709599 
L 410.074573 338.881274 
L 412.617293 339.837424 
L 413.888653 339.083347 
L 415.160014 339.276307 
L 416.431374 340.242976 
L 418.974094 340.266905 
L 420.245455 339.73941 
L 421.516815 339.078532 
L 422.788175 339.847657 
L 425.330895 338.931589 
L 426.602256 338.226902 
L 429.144976 339.380497 
L 430.416336 338.956609 
L 431.687697 339.815136 
L 432.959057 340.133352 
L 436.773137 339.357436 
L 438.044498 339.773341 
L 439.315858 339.745747 
L 440.587218 340.215322 
L 441.858578 340.330913 
L 443.129938 339.750326 
L 444.401299 339.608693 
L 445.672659 339.616851 
L 446.944019 340.206257 
L 449.48674 341.153641 
L 450.7581 341.128357 
L 452.02946 340.904914 
L 453.30082 340.48799 
L 454.57218 340.524279 
L 455.843541 339.823446 
L 457.114901 339.694645 
L 459.657621 339.819545 
L 460.928982 340.749483 
L 462.200342 339.282726 
L 463.471702 338.935545 
L 464.743062 339.204355 
L 466.014422 339.597851 
L 467.285783 339.318934 
L 469.828503 339.068002 
L 471.099863 339.789508 
L 472.371224 339.260158 
L 473.642584 339.538922 
L 474.913944 339.283481 
L 476.185304 339.426421 
L 477.456664 339.420046 
L 478.728025 338.690983 
L 479.999385 338.831041 
L 481.270745 338.765968 
L 482.542105 338.216956 
L 483.813465 337.89896 
L 485.084826 337.701258 
L 486.356186 337.886693 
L 487.627546 337.941294 
L 488.898906 338.440095 
L 490.170267 337.879398 
L 491.441627 338.153661 
L 492.712987 338.847251 
L 493.984347 338.362271 
L 495.255707 338.17771 
L 496.527068 338.952093 
L 497.798428 339.128028 
L 499.069788 339.491927 
L 500.341148 340.421428 
L 501.612509 340.352866 
L 502.883869 340.959517 
L 504.155229 340.749638 
L 505.426589 340.789064 
L 506.697949 341.421507 
L 507.96931 340.50364 
L 509.24067 340.433961 
L 510.51203 339.441983 
L 511.78339 339.30984 
L 513.054751 340.088758 
L 514.326111 340.355162 
L 515.597471 339.909418 
L 516.868831 340.411756 
L 518.140191 340.584843 
L 519.411552 341.144729 
L 520.682912 341.362131 
L 521.954272 341.42841 
L 523.225632 341.215305 
L 524.496992 340.151806 
L 525.768353 340.67407 
L 527.039713 340.691113 
L 528.311073 341.074498 
L 529.582433 340.745024 
L 530.853794 340.770761 
L 532.125154 339.644124 
L 533.396514 339.15442 
L 534.667874 339.765308 
L 535.939234 339.492673 
L 537.210595 338.745018 
L 541.024675 339.035439 
L 542.296036 338.84205 
L 543.567396 337.265653 
L 544.838756 337.20705 
L 546.110116 336.682329 
L 547.381476 336.860658 
L 548.652837 337.39402 
L 549.924197 337.456743 
L 551.195557 337.999115 
L 552.466917 337.992984 
L 553.738278 337.770363 
L 555.009638 338.439707 
L 556.280998 338.371063 
L 557.552358 337.931555 
L 558.823718 338.790771 
L 560.095079 338.567762 
L 561.366439 339.311953 
L 562.637799 338.313705 
L 563.909159 338.075336 
L 565.180519 338.317962 
L 566.45188 338.727143 
L 568.9946 338.3888 
L 570.26596 337.928008 
L 571.537321 338.310241 
L 572.808681 338.209815 
L 575.351401 338.61773 
L 576.622761 338.566654 
L 577.894122 339.330509 
L 579.165482 338.522685 
L 581.708202 339.426734 
L 582.979563 338.107251 
L 584.250923 337.825087 
L 586.793643 338.367022 
L 588.065003 338.417592 
L 588.065003 338.417592 
" clip-path="url(#pd824eb0f15)" style="fill: none; stroke: #9467bd; stroke-width: 1.2; stroke-linecap: square"/>
   </g>
   <g id="patch_3">
    <path d="M 56.7 356.965 
L 56.7 24.325 
" style="fill: none; stroke: #000000; stroke-width: 0.8; stroke-linejoin: miter; stroke-linecap: square"/>
   </g>
   <g id="patch_4">
    <path d="M 614.7 356.965 
L 614.7 24.325 
" style="fill: none; stroke: #000000; stroke-width: 0.8; stroke-linejoin: miter; stroke-linecap: square"/>
   </g>
   <g id="patch_5">
    <path d="M 56.7 356.965 
L 614.7 356.965 
" style="fill: none; stroke: #000000; stroke-width: 0.8; stroke-linejoin: miter; stroke-linecap: square"/>
   </g>
   <g id="patch_6">
    <path d="M 56.7 24.325 
L 614.7 24.325 
" style="fill: none; stroke: #000000; stroke-width: 0.8; stroke-linejoin: miter; stroke-linecap: square"/>
   </g>
   <g id="text_19">
    <!-- Average Transmission Delay -->
    <g transform="translate(231.7 18.325) scale(0.16 -0.16)">
     <defs>
      <path id="SimHei-41" d="M 3075 125 
L 2475 125 
L 2125 1450 
L 1025 1450 
L 675 125 
L 75 125 
L 1325 4450 
L 1825 4450 
L 3075 125 
z
M 2000 1925 
L 1600 3450 
L 1550 3450 
L 1150 1925 
L 2000 1925 
z
" transform="scale(0.015625)"/>
      <path id="SimHei-76" d="M 2875 2925 
L 1825 75 
L 1275 75 
L 225 2925 
L 750 2925 
L 1525 750 
L 1575 750 
L 2350 2925 
L 2875 2925 
z
" transform="scale(0.015625)"/>
      <path id="SimHei-72" d="M 2500 2425 
Q 2025 2500 1700 2287 
Q 1375 2075 1150 1550 
L 1150 125 
L 650 125 
L 650 2925 
L 1150 2925 
L 1150 2200 
Q 1375 2600 1712 2787 
Q 2050 2975 2500 2975 
L 2500 2425 
z
" transform="scale(0.015625)"/>
      <path id="SimHei-67" d="M 2975 2500 
Q 2800 2550 2637 2562 
Q 2475 2575 2300 2525 
Q 2375 2450 2425 2337 
Q 2475 2225 2475 2000 
Q 2475 1575 2187 1300 
Q 1900 1025 1475 1025 
Q 1375 1025 1212 1062 
Q 1050 1100 950 1150 
Q 875 1100 850 1050 
Q 825 1000 825 925 
Q 825 800 1000 737 
Q 1175 675 1625 675 
Q 2350 675 2612 475 
Q 2875 275 2875 -25 
Q 2875 -425 2487 -612 
Q 2100 -800 1575 -800 
Q 900 -800 575 -625 
Q 250 -450 250 -150 
Q 250 0 375 150 
Q 500 300 700 400 
Q 550 475 462 587 
Q 375 700 375 875 
Q 375 1025 487 1137 
Q 600 1250 750 1325 
Q 625 1450 550 1625 
Q 475 1800 475 2000 
Q 475 2425 762 2700 
Q 1050 2975 1475 2975 
Q 1700 2975 1862 2912 
Q 2025 2850 2150 2725 
Q 2350 2875 2550 2937 
Q 2750 3000 2975 2975 
L 2975 2500 
z
M 1975 2000 
Q 1975 2250 1850 2400 
Q 1725 2550 1475 2550 
Q 1225 2550 1100 2400 
Q 975 2250 975 2000 
Q 975 1750 1100 1600 
Q 1225 1450 1475 1450 
Q 1725 1450 1850 1600 
Q 1975 1750 1975 2000 
z
M 2400 -75 
Q 2400 25 2287 125 
Q 2175 225 1725 225 
Q 1625 225 1450 237 
Q 1275 250 1050 275 
Q 850 200 775 100 
Q 700 0 700 -100 
Q 700 -250 900 -350 
Q 1100 -450 1600 -450 
Q 2025 -450 2212 -337 
Q 2400 -225 2400 -75 
z
" transform="scale(0.015625)"/>
      <path id="SimHei-54" d="M 2850 3925 
L 1850 3925 
L 1850 125 
L 1275 125 
L 1275 3925 
L 275 3925 
L 275 4400 
L 2850 4400 
L 2850 3925 
z
" transform="scale(0.015625)"/>
      <path id="SimHei-6e" d="M 2800 125 
L 2300 125 
L 2300 1925 
Q 2300 2225 2150 2400 
Q 2000 2575 1750 2575 
Q 1425 2575 1137 2237 
Q 850 1900 850 1400 
L 850 125 
L 350 125 
L 350 2925 
L 850 2925 
L 850 2400 
Q 1050 2675 1287 2825 
Q 1525 2975 1900 2975 
Q 2350 2975 2575 2725 
Q 2800 2475 2800 2100 
L 2800 125 
z
" transform="scale(0.015625)"/>
      <path id="SimHei-6d" d="M 3050 125 
L 2550 125 
L 2550 2150 
Q 2550 2300 2500 2400 
Q 2450 2500 2300 2500 
Q 2125 2500 1975 2312 
Q 1825 2125 1825 1825 
L 1825 125 
L 1325 125 
L 1325 2150 
Q 1325 2300 1275 2400 
Q 1225 2500 1075 2500 
Q 900 2500 750 2312 
Q 600 2125 600 1825 
L 600 125 
L 100 125 
L 100 2925 
L 600 2925 
L 600 2550 
Q 725 2750 900 2862 
Q 1075 2975 1275 2975 
Q 1475 2975 1612 2862 
Q 1750 2750 1800 2550 
Q 1925 2750 2087 2862 
Q 2250 2975 2450 2975 
Q 2750 2975 2900 2812 
Q 3050 2650 3050 2350 
L 3050 125 
z
" transform="scale(0.015625)"/>
     </defs>
     <use xlink:href="#SimHei-41"/>
     <use xlink:href="#SimHei-76" transform="translate(50 0)"/>
     <use xlink:href="#SimHei-65" transform="translate(100 0)"/>
     <use xlink:href="#SimHei-72" transform="translate(150 0)"/>
     <use xlink:href="#SimHei-61" transform="translate(200 0)"/>
     <use xlink:href="#SimHei-67" transform="translate(250 0)"/>
     <use xlink:href="#SimHei-65" transform="translate(300 0)"/>
     <use xlink:href="#SimHei-20" transform="translate(350 0)"/>
     <use xlink:href="#SimHei-54" transform="translate(400 0)"/>
     <use xlink:href="#SimHei-72" transform="translate(450 0)"/>
     <use xlink:href="#SimHei-61" transform="translate(500 0)"/>
     <use xlink:href="#SimHei-6e" transform="translate(550 0)"/>
     <use xlink:href="#SimHei-73" transform="translate(600 0)"/>
     <use xlink:href="#SimHei-6d" transform="translate(650 0)"/>
     <use xlink:href="#SimHei-69" transform="translate(700 0)"/>
     <use xlink:href="#SimHei-73" transform="translate(750 0)"/>
     <use xlink:href="#SimHei-73" transform="translate(800 0)"/>
     <use xlink:href="#SimHei-69" transform="translate(850 0)"/>
     <use xlink:href="#SimHei-6f" transform="translate(900 0)"/>
     <use xlink:href="#SimHei-6e" transform="translate(950 0)"/>
     <use xlink:href="#SimHei-20" transform="translate(1000 0)"/>
     <use xlink:href="#SimHei-44" transform="translate(1050 0)"/>
     <use xlink:href="#SimHei-65" transform="translate(1100 0)"/>
     <use xlink:href="#SimHei-6c" transform="translate(1150 0)"/>
     <use xlink:href="#SimHei-61" transform="translate(1200 0)"/>
     <use xlink:href="#SimHei-79" transform="translate(1250 0)"/>
    </g>
   </g>
   <g id="legend_1">
    <g id="patch_7">
     <path d="M 489.9 97.525 
L 606.3 97.525 
Q 608.7 97.525 608.7 95.125 
L 608.7 32.725 
Q 608.7 30.325 606.3 30.325 
L 489.9 30.325 
Q 487.5 30.325 487.5 32.725 
L 487.5 95.125 
Q 487.5 97.525 489.9 97.525 
z
" style="fill: #ffffff; opacity: 0.8; stroke: #cccccc; stroke-linejoin: miter"/>
    </g>
    <g id="line2d_37">
     <path d="M 492.3 39.325 
L 504.3 39.325 
L 516.3 39.325 
" style="fill: none; stroke: #1f77b4; stroke-width: 1.2; stroke-linecap: square"/>
    </g>
    <g id="text_20">
     <!-- GCN-DDQN -->
     <g transform="translate(525.9 43.525) scale(0.12 -0.12)">
      <defs>
       <path id="SimHei-47" d="M 2850 75 
L 2425 75 
L 2350 425 
Q 2250 275 2037 175 
Q 1825 75 1575 75 
Q 1050 75 637 562 
Q 225 1050 225 2125 
Q 225 3300 600 3875 
Q 975 4450 1625 4450 
Q 2200 4450 2525 4025 
Q 2850 3600 2850 2925 
L 2300 2925 
Q 2300 3450 2125 3712 
Q 1950 3975 1625 3975 
Q 1225 3975 1025 3562 
Q 825 3150 825 2175 
Q 825 1250 1075 900 
Q 1325 550 1650 550 
Q 1975 550 2162 787 
Q 2350 1025 2350 1525 
L 2350 1800 
L 1575 1800 
L 1575 2275 
L 2850 2275 
L 2850 75 
z
" transform="scale(0.015625)"/>
       <path id="SimHei-43" d="M 2975 1825 
Q 2950 875 2575 475 
Q 2200 75 1675 75 
Q 1075 75 650 562 
Q 225 1050 225 2125 
Q 225 3300 637 3875 
Q 1050 4450 1700 4450 
Q 2250 4450 2612 4037 
Q 2975 3625 2950 2875 
L 2400 2875 
Q 2400 3425 2225 3700 
Q 2050 3975 1700 3975 
Q 1300 3975 1062 3562 
Q 825 3150 825 2175 
Q 825 1275 1062 912 
Q 1300 550 1675 550 
Q 1950 550 2175 812 
Q 2400 1075 2400 1825 
L 2975 1825 
z
" transform="scale(0.015625)"/>
       <path id="SimHei-4e" d="M 2850 125 
L 2225 125 
L 850 3225 
L 825 3225 
L 825 125 
L 250 125 
L 250 4400 
L 875 4400 
L 2250 1300 
L 2275 1300 
L 2275 4400 
L 2850 4400 
L 2850 125 
z
" transform="scale(0.015625)"/>
       <path id="SimHei-2d" d="M 2975 2125 
L 125 2125 
L 125 2525 
L 2975 2525 
L 2975 2125 
z
" transform="scale(0.015625)"/>
       <path id="SimHei-51" d="M 2950 2275 
Q 2950 1675 2862 1262 
Q 2775 850 2575 600 
L 2775 225 
L 2375 -200 
L 2150 225 
Q 2050 150 1900 112 
Q 1750 75 1575 75 
Q 925 75 550 587 
Q 175 1100 175 2275 
Q 175 3450 550 3950 
Q 925 4450 1575 4450 
Q 2225 4450 2587 3950 
Q 2950 3450 2950 2275 
z
M 2350 2275 
Q 2350 3325 2125 3650 
Q 1900 3975 1575 3975 
Q 1250 3975 1012 3650 
Q 775 3325 775 2275 
Q 775 1225 1012 887 
Q 1250 550 1575 550 
Q 1700 550 1800 587 
Q 1900 625 1950 675 
L 1550 1450 
L 1900 1875 
L 2250 1200 
Q 2300 1450 2325 1650 
Q 2350 1850 2350 2275 
z
" transform="scale(0.015625)"/>
      </defs>
      <use xlink:href="#SimHei-47"/>
      <use xlink:href="#SimHei-43" transform="translate(50 0)"/>
      <use xlink:href="#SimHei-4e" transform="translate(100 0)"/>
      <use xlink:href="#SimHei-2d" transform="translate(150 0)"/>
      <use xlink:href="#SimHei-44" transform="translate(200 0)"/>
      <use xlink:href="#SimHei-44" transform="translate(250 0)"/>
      <use xlink:href="#SimHei-51" transform="translate(300 0)"/>
      <use xlink:href="#SimHei-4e" transform="translate(350 0)"/>
     </g>
    </g>
    <g id="line2d_38">
     <path d="M 492.3 55.225 
L 504.3 55.225 
L 516.3 55.225 
" style="fill: none; stroke: #ff7f0e; stroke-width: 1.2; stroke-linecap: square"/>
    </g>
    <g id="text_21">
     <!-- GCN-D3QN -->
     <g transform="translate(525.9 59.425) scale(0.12 -0.12)">
      <use xlink:href="#SimHei-47"/>
      <use xlink:href="#SimHei-43" transform="translate(50 0)"/>
      <use xlink:href="#SimHei-4e" transform="translate(100 0)"/>
      <use xlink:href="#SimHei-2d" transform="translate(150 0)"/>
      <use xlink:href="#SimHei-44" transform="translate(200 0)"/>
      <use xlink:href="#SimHei-33" transform="translate(250 0)"/>
      <use xlink:href="#SimHei-51" transform="translate(300 0)"/>
      <use xlink:href="#SimHei-4e" transform="translate(350 0)"/>
     </g>
    </g>
    <g id="line2d_39">
     <path d="M 492.3 71.125 
L 504.3 71.125 
L 516.3 71.125 
" style="fill: none; stroke: #2ca02c; stroke-width: 1.2; stroke-linecap: square"/>
    </g>
    <g id="text_22">
     <!-- GAT-LSTM-DDQN -->
     <g transform="translate(525.9 75.325) scale(0.12 -0.12)">
      <defs>
       <path id="SimHei-4c" d="M 2900 125 
L 300 125 
L 300 4400 
L 875 4400 
L 875 600 
L 2900 600 
L 2900 125 
z
" transform="scale(0.015625)"/>
       <path id="SimHei-53" d="M 2900 1325 
Q 2900 750 2537 412 
Q 2175 75 1550 75 
Q 925 75 575 425 
Q 225 775 225 1300 
L 225 1475 
L 800 1475 
L 800 1325 
Q 800 950 1025 750 
Q 1250 550 1550 550 
Q 1950 550 2137 762 
Q 2325 975 2325 1275 
Q 2325 1525 2100 1737 
Q 1875 1950 1450 2125 
Q 850 2350 587 2625 
Q 325 2900 325 3275 
Q 325 3800 687 4125 
Q 1050 4450 1550 4450 
Q 2200 4450 2487 4062 
Q 2775 3675 2775 3225 
L 2200 3225 
Q 2225 3500 2050 3725 
Q 1875 3950 1550 3950 
Q 1250 3950 1075 3787 
Q 900 3625 900 3350 
Q 900 3125 1037 2962 
Q 1175 2800 1750 2575 
Q 2300 2350 2600 2037 
Q 2900 1725 2900 1325 
z
" transform="scale(0.015625)"/>
       <path id="SimHei-4d" d="M 2925 125 
L 2425 125 
L 2425 3175 
L 2375 3175 
L 1775 125 
L 1375 125 
L 775 3175 
L 725 3175 
L 725 125 
L 225 125 
L 225 4400 
L 1000 4400 
L 1550 1575 
L 1600 1575 
L 2150 4400 
L 2925 4400 
L 2925 125 
z
" transform="scale(0.015625)"/>
      </defs>
      <use xlink:href="#SimHei-47"/>
      <use xlink:href="#SimHei-41" transform="translate(50 0)"/>
      <use xlink:href="#SimHei-54" transform="translate(100 0)"/>
      <use xlink:href="#SimHei-2d" transform="translate(150 0)"/>
      <use xlink:href="#SimHei-4c" transform="translate(200 0)"/>
      <use xlink:href="#SimHei-53" transform="translate(250 0)"/>
      <use xlink:href="#SimHei-54" transform="translate(300 0)"/>
      <use xlink:href="#SimHei-4d" transform="translate(350 0)"/>
      <use xlink:href="#SimHei-2d" transform="translate(400 0)"/>
      <use xlink:href="#SimHei-44" transform="translate(450 0)"/>
      <use xlink:href="#SimHei-44" transform="translate(500 0)"/>
      <use xlink:href="#SimHei-51" transform="translate(550 0)"/>
      <use xlink:href="#SimHei-4e" transform="translate(600 0)"/>
     </g>
    </g>
    <g id="line2d_40">
     <path d="M 492.3 87.025 
L 504.3 87.025 
L 516.3 87.025 
" style="fill: none; stroke: #9467bd; stroke-width: 1.2; stroke-linecap: square"/>
    </g>
    <g id="text_23">
     <!-- GLDVTO -->
     <g transform="translate(525.9 91.225) scale(0.12 -0.12)">
      <defs>
       <path id="SimHei-56" d="M 3050 4400 
L 1800 75 
L 1300 75 
L 50 4400 
L 650 4400 
L 1525 1125 
L 1575 1125 
L 2450 4400 
L 3050 4400 
z
" transform="scale(0.015625)"/>
       <path id="SimHei-4f" d="M 2950 2275 
Q 2950 1100 2587 587 
Q 2225 75 1575 75 
Q 925 75 550 587 
Q 175 1100 175 2275 
Q 175 3450 550 3950 
Q 925 4450 1575 4450 
Q 2225 4450 2587 3950 
Q 2950 3450 2950 2275 
z
M 2350 2275 
Q 2350 3325 2125 3650 
Q 1900 3975 1575 3975 
Q 1250 3975 1012 3650 
Q 775 3325 775 2275 
Q 775 1225 1012 887 
Q 1250 550 1575 550 
Q 1900 550 2125 887 
Q 2350 1225 2350 2275 
z
" transform="scale(0.015625)"/>
      </defs>
      <use xlink:href="#SimHei-47"/>
      <use xlink:href="#SimHei-4c" transform="translate(50 0)"/>
      <use xlink:href="#SimHei-44" transform="translate(100 0)"/>
      <use xlink:href="#SimHei-56" transform="translate(150 0)"/>
      <use xlink:href="#SimHei-54" transform="translate(200 0)"/>
      <use xlink:href="#SimHei-4f" transform="translate(250 0)"/>
     </g>
    </g>
   </g>
  </g>
 </g>
 <defs>
  <clipPath id="pd824eb0f15">
   <rect x="56.7" y="24.325" width="558" height="332.64"/>
  </clipPath>
 </defs>
</svg>
