<?xml version="1.0" encoding="utf-8" standalone="no"?>
<!DOCTYPE svg PUBLIC "-//W3C//DTD SVG 1.1//EN"
  "http://www.w3.org/Graphics/SVG/1.1/DTD/svg11.dtd">
<svg xmlns:xlink="http://www.w3.org/1999/xlink" width="712.99pt" height="424.835pt" viewBox="0 0 712.99 424.835" xmlns="http://www.w3.org/2000/svg" version="1.1">
 <metadata>
  <rdf:RDF xmlns:dc="http://purl.org/dc/elements/1.1/" xmlns:cc="http://creativecommons.org/ns#" xmlns:rdf="http://www.w3.org/1999/02/22-rdf-syntax-ns#">
   <cc:Work>
    <dc:type rdf:resource="http://purl.org/dc/dcmitype/StillImage"/>
    <dc:date>2026-06-25T18:52:24.902120</dc:date>
    <dc:format>image/svg+xml</dc:format>
    <dc:creator>
     <cc:Agent>
      <dc:title>Matplotlib v3.10.7, https://matplotlib.org/</dc:title>
     </cc:Agent>
    </dc:creator>
   </cc:Work>
  </rdf:RDF>
 </metadata>
 <defs>
  <style type="text/css">*{stroke-linejoin: round; stroke-linecap: butt}</style>
 </defs>
 <g id="figure_1">
  <g id="patch_1">
   <path d="M -0 424.835 
L 712.99 424.835 
L 712.99 0 
L -0 0 
z
" style="fill: #ffffff"/>
  </g>
  <g id="axes_1">
   <g id="patch_2">
    <path d="M 55.2 383.885 
L 705.79 383.885 
L 705.79 24.325 
L 55.2 24.325 
z
" style="fill: #ffffff"/>
   </g>
   <g id="matplotlib.axis_1">
    <g id="xtick_1">
     <g id="line2d_1">
      <path d="M 84.772273 383.885 
L 84.772273 24.325 
" clip-path="url(#pfbc487984d)" style="fill: none; stroke: #b0b0b0; stroke-opacity: 0.3; stroke-width: 0.8; stroke-linecap: square"/>
     </g>
     <g id="line2d_2">
      <defs>
       <path id="m9a6fbd9633" d="M 0 0 
L 0 3.5 
" style="stroke: #000000; stroke-width: 0.8"/>
      </defs>
      <g>
       <use xlink:href="#m9a6fbd9633" x="84.772273" y="383.885" style="stroke: #000000; stroke-width: 0.8"/>
      </g>
     </g>
     <g id="text_1">
      <!-- 0 -->
      <g transform="translate(81.772273 399.135) scale(0.12 -0.12)">
       <defs>
        <path id="SimHei-30" d="M 225 2537 
Q 250 3200 412 3587 
Q 575 3975 875 4225 
Q 1175 4475 1612 4475 
Q 2050 4475 2375 4112 
Q 2700 3750 2800 3200 
Q 2900 2650 2862 1937 
Q 2825 1225 2612 775 
Q 2400 325 1975 150 
Q 1550 -25 1125 187 
Q 700 400 525 750 
Q 350 1100 275 1487 
Q 200 1875 225 2537 
z
M 750 2687 
Q 675 2000 800 1462 
Q 925 925 1212 700 
Q 1500 475 1800 612 
Q 2100 750 2237 1162 
Q 2375 1575 2375 2062 
Q 2375 2550 2337 2950 
Q 2300 3350 2112 3675 
Q 1925 4000 1612 4012 
Q 1300 4025 1062 3700 
Q 825 3375 750 2687 
z
" transform="scale(0.015625)"/>
       </defs>
       <use xlink:href="#SimHei-30"/>
      </g>
     </g>
    </g>
    <g id="xtick_2">
     <g id="line2d_3">
      <path d="M 158.888244 383.885 
L 158.888244 24.325 
" clip-path="url(#pfbc487984d)" style="fill: none; stroke: #b0b0b0; stroke-opacity: 0.3; stroke-width: 0.8; stroke-linecap: square"/>
     </g>
     <g id="line2d_4">
      <g>
       <use xlink:href="#m9a6fbd9633" x="158.888244" y="383.885" style="stroke: #000000; stroke-width: 0.8"/>
      </g>
     </g>
     <g id="text_2">
      <!-- 50 -->
      <g transform="translate(152.888244 399.135) scale(0.12 -0.12)">
       <defs>
        <path id="SimHei-35" d="M 550 1325 
Q 725 650 1150 575 
Q 1575 500 1837 662 
Q 2100 825 2212 1087 
Q 2325 1350 2312 1675 
Q 2300 2000 2137 2225 
Q 1975 2450 1725 2525 
Q 1475 2600 1162 2525 
Q 850 2450 650 2175 
L 225 2225 
Q 275 2375 700 4375 
L 2675 4375 
L 2675 3925 
L 1075 3925 
Q 950 3250 825 2850 
Q 1200 3025 1525 3012 
Q 1850 3000 2150 2862 
Q 2450 2725 2587 2487 
Q 2725 2250 2787 2012 
Q 2850 1775 2837 1500 
Q 2825 1225 2725 937 
Q 2625 650 2425 462 
Q 2225 275 1937 162 
Q 1650 50 1275 75 
Q 900 100 562 350 
Q 225 600 100 1200 
L 550 1325 
z
" transform="scale(0.015625)"/>
       </defs>
       <use xlink:href="#SimHei-35"/>
       <use xlink:href="#SimHei-30" transform="translate(50 0)"/>
      </g>
     </g>
    </g>
    <g id="xtick_3">
     <g id="line2d_5">
      <path d="M 233.004216 383.885 
L 233.004216 24.325 
" clip-path="url(#pfbc487984d)" style="fill: none; stroke: #b0b0b0; stroke-opacity: 0.3; stroke-width: 0.8; stroke-linecap: square"/>
     </g>
     <g id="line2d_6">
      <g>
       <use xlink:href="#m9a6fbd9633" x="233.004216" y="383.885" style="stroke: #000000; stroke-width: 0.8"/>
      </g>
     </g>
     <g id="text_3">
      <!-- 100 -->
      <g transform="translate(224.004216 399.135) scale(0.12 -0.12)">
       <defs>
        <path id="SimHei-31" d="M 1400 3600 
Q 1075 3275 575 2975 
L 575 3450 
Q 1200 3875 1600 4450 
L 1900 4450 
L 1900 150 
L 1400 150 
L 1400 3600 
z
" transform="scale(0.015625)"/>
       </defs>
       <use xlink:href="#SimHei-31"/>
       <use xlink:href="#SimHei-30" transform="translate(50 0)"/>
       <use xlink:href="#SimHei-30" transform="translate(100 0)"/>
      </g>
     </g>
    </g>
    <g id="xtick_4">
     <g id="line2d_7">
      <path d="M 307.120188 383.885 
L 307.120188 24.325 
" clip-path="url(#pfbc487984d)" style="fill: none; stroke: #b0b0b0; stroke-opacity: 0.3; stroke-width: 0.8; stroke-linecap: square"/>
     </g>
     <g id="line2d_8">
      <g>
       <use xlink:href="#m9a6fbd9633" x="307.120188" y="383.885" style="stroke: #000000; stroke-width: 0.8"/>
      </g>
     </g>
     <g id="text_4">
      <!-- 150 -->
      <g transform="translate(298.120188 399.135) scale(0.12 -0.12)">
       <use xlink:href="#SimHei-31"/>
       <use xlink:href="#SimHei-35" transform="translate(50 0)"/>
       <use xlink:href="#SimHei-30" transform="translate(100 0)"/>
      </g>
     </g>
    </g>
    <g id="xtick_5">
     <g id="line2d_9">
      <path d="M 381.23616 383.885 
L 381.23616 24.325 
" clip-path="url(#pfbc487984d)" style="fill: none; stroke: #b0b0b0; stroke-opacity: 0.3; stroke-width: 0.8; stroke-linecap: square"/>
     </g>
     <g id="line2d_10">
      <g>
       <use xlink:href="#m9a6fbd9633" x="381.23616" y="383.885" style="stroke: #000000; stroke-width: 0.8"/>
      </g>
     </g>
     <g id="text_5">
      <!-- 200 -->
      <g transform="translate(372.23616 399.135) scale(0.12 -0.12)">
       <defs>
        <path id="SimHei-32" d="M 300 250 
Q 325 625 650 925 
Q 975 1225 1475 1862 
Q 1975 2500 2125 2850 
Q 2275 3200 2237 3450 
Q 2200 3700 2000 3862 
Q 1800 4025 1537 4000 
Q 1275 3975 1037 3800 
Q 800 3625 675 3275 
L 200 3350 
Q 400 3925 712 4187 
Q 1025 4450 1450 4475 
Q 1700 4500 1900 4462 
Q 2100 4425 2312 4287 
Q 2525 4150 2662 3875 
Q 2800 3600 2762 3212 
Q 2725 2825 2375 2287 
Q 2025 1750 1025 600 
L 2825 600 
L 2825 150 
L 300 150 
L 300 250 
z
" transform="scale(0.015625)"/>
       </defs>
       <use xlink:href="#SimHei-32"/>
       <use xlink:href="#SimHei-30" transform="translate(50 0)"/>
       <use xlink:href="#SimHei-30" transform="translate(100 0)"/>
      </g>
     </g>
    </g>
    <g id="xtick_6">
     <g id="line2d_11">
      <path d="M 455.352131 383.885 
L 455.352131 24.325 
" clip-path="url(#pfbc487984d)" style="fill: none; stroke: #b0b0b0; stroke-opacity: 0.3; stroke-width: 0.8; stroke-linecap: square"/>
     </g>
     <g id="line2d_12">
      <g>
       <use xlink:href="#m9a6fbd9633" x="455.352131" y="383.885" style="stroke: #000000; stroke-width: 0.8"/>
      </g>
     </g>
     <g id="text_6">
      <!-- 250 -->
      <g transform="translate(446.352131 399.135) scale(0.12 -0.12)">
       <use xlink:href="#SimHei-32"/>
       <use xlink:href="#SimHei-35" transform="translate(50 0)"/>
       <use xlink:href="#SimHei-30" transform="translate(100 0)"/>
      </g>
     </g>
    </g>
    <g id="xtick_7">
     <g id="line2d_13">
      <path d="M 529.468103 383.885 
L 529.468103 24.325 
" clip-path="url(#pfbc487984d)" style="fill: none; stroke: #b0b0b0; stroke-opacity: 0.3; stroke-width: 0.8; stroke-linecap: square"/>
     </g>
     <g id="line2d_14">
      <g>
       <use xlink:href="#m9a6fbd9633" x="529.468103" y="383.885" style="stroke: #000000; stroke-width: 0.8"/>
      </g>
     </g>
     <g id="text_7">
      <!-- 300 -->
      <g transform="translate(520.468103 399.135) scale(0.12 -0.12)">
       <defs>
        <path id="SimHei-33" d="M 250 1225 
L 700 1300 
Q 800 975 1025 762 
Q 1250 550 1587 562 
Q 1925 575 2125 837 
Q 2325 1100 2300 1437 
Q 2275 1775 2037 1962 
Q 1800 2150 1275 2225 
L 1275 2550 
Q 1800 2600 2037 2825 
Q 2275 3050 2250 3412 
Q 2225 3775 1925 3937 
Q 1625 4100 1287 3975 
Q 950 3850 750 3275 
L 300 3350 
Q 450 3800 712 4100 
Q 975 4400 1425 4450 
Q 1875 4500 2212 4337 
Q 2550 4175 2687 3837 
Q 2825 3500 2725 3100 
Q 2625 2700 2150 2400 
Q 2500 2250 2687 1950 
Q 2875 1650 2812 1162 
Q 2750 675 2375 375 
Q 2000 75 1525 87 
Q 1050 100 700 387 
Q 350 675 250 1225 
z
" transform="scale(0.015625)"/>
       </defs>
       <use xlink:href="#SimHei-33"/>
       <use xlink:href="#SimHei-30" transform="translate(50 0)"/>
       <use xlink:href="#SimHei-30" transform="translate(100 0)"/>
      </g>
     </g>
    </g>
    <g id="xtick_8">
     <g id="line2d_15">
      <path d="M 603.584075 383.885 
L 603.584075 24.325 
" clip-path="url(#pfbc487984d)" style="fill: none; stroke: #b0b0b0; stroke-opacity: 0.3; stroke-width: 0.8; stroke-linecap: square"/>
     </g>
     <g id="line2d_16">
      <g>
       <use xlink:href="#m9a6fbd9633" x="603.584075" y="383.885" style="stroke: #000000; stroke-width: 0.8"/>
      </g>
     </g>
     <g id="text_8">
      <!-- 350 -->
      <g transform="translate(594.584075 399.135) scale(0.12 -0.12)">
       <use xlink:href="#SimHei-33"/>
       <use xlink:href="#SimHei-35" transform="translate(50 0)"/>
       <use xlink:href="#SimHei-30" transform="translate(100 0)"/>
      </g>
     </g>
    </g>
    <g id="xtick_9">
     <g id="line2d_17">
      <path d="M 677.700047 383.885 
L 677.700047 24.325 
" clip-path="url(#pfbc487984d)" style="fill: none; stroke: #b0b0b0; stroke-opacity: 0.3; stroke-width: 0.8; stroke-linecap: square"/>
     </g>
     <g id="line2d_18">
      <g>
       <use xlink:href="#m9a6fbd9633" x="677.700047" y="383.885" style="stroke: #000000; stroke-width: 0.8"/>
      </g>
     </g>
     <g id="text_9">
      <!-- 400 -->
      <g transform="translate(668.700047 399.135) scale(0.12 -0.12)">
       <defs>
        <path id="SimHei-34" d="M 2000 1100 
L 75 1100 
L 75 1525 
L 2100 4450 
L 2475 4450 
L 2475 1525 
L 3075 1525 
L 3075 1100 
L 2475 1100 
L 2475 150 
L 2000 150 
L 2000 1100 
z
M 2000 1525 
L 2000 3500 
L 600 1525 
L 2000 1525 
z
" transform="scale(0.015625)"/>
       </defs>
       <use xlink:href="#SimHei-34"/>
       <use xlink:href="#SimHei-30" transform="translate(50 0)"/>
       <use xlink:href="#SimHei-30" transform="translate(100 0)"/>
      </g>
     </g>
    </g>
    <g id="text_10">
     <!-- Episode -->
     <g transform="translate(352.495 415.635) scale(0.16 -0.16)">
      <defs>
       <path id="SimHei-45" d="M 2900 125 
L 350 125 
L 350 4400 
L 2775 4400 
L 2775 3925 
L 925 3925 
L 925 2600 
L 2625 2600 
L 2625 2125 
L 925 2125 
L 925 600 
L 2900 600 
L 2900 125 
z
" transform="scale(0.015625)"/>
       <path id="SimHei-70" d="M 2825 1525 
Q 2825 800 2475 425 
Q 2125 50 1625 50 
Q 1350 50 1150 162 
Q 950 275 800 500 
L 800 -800 
L 300 -800 
L 300 2925 
L 800 2925 
L 800 2550 
Q 950 2775 1150 2875 
Q 1350 2975 1625 2975 
Q 2125 2975 2475 2612 
Q 2825 2250 2825 1525 
z
M 2275 1525 
Q 2275 2000 2087 2262 
Q 1900 2525 1525 2525 
Q 1225 2525 1012 2262 
Q 800 2000 800 1525 
Q 800 1050 1012 775 
Q 1225 500 1525 500 
Q 1900 500 2087 775 
Q 2275 1050 2275 1525 
z
" transform="scale(0.015625)"/>
       <path id="SimHei-69" d="M 1800 3725 
L 1300 3725 
L 1300 4375 
L 1800 4375 
L 1800 3725 
z
M 1800 125 
L 1300 125 
L 1300 2925 
L 1800 2925 
L 1800 125 
z
" transform="scale(0.015625)"/>
       <path id="SimHei-73" d="M 2750 900 
Q 2750 500 2437 287 
Q 2125 75 1650 75 
Q 1050 75 725 312 
Q 400 550 400 1000 
L 900 1000 
Q 900 700 1112 600 
Q 1325 500 1625 500 
Q 1925 500 2075 612 
Q 2225 725 2225 900 
Q 2225 1025 2100 1150 
Q 1975 1275 1475 1350 
Q 900 1425 687 1637 
Q 475 1850 475 2200 
Q 475 2500 762 2737 
Q 1050 2975 1600 2975 
Q 2100 2975 2387 2750 
Q 2675 2525 2675 2150 
L 2175 2150 
Q 2175 2375 2012 2462 
Q 1850 2550 1600 2550 
Q 1275 2550 1137 2437 
Q 1000 2325 1000 2175 
Q 1000 2000 1125 1900 
Q 1250 1800 1650 1750 
Q 2300 1650 2525 1437 
Q 2750 1225 2750 900 
z
" transform="scale(0.015625)"/>
       <path id="SimHei-6f" d="M 2925 1525 
Q 2925 875 2525 475 
Q 2125 75 1575 75 
Q 1025 75 625 475 
Q 225 875 225 1525 
Q 225 2175 625 2575 
Q 1025 2975 1575 2975 
Q 2125 2975 2525 2575 
Q 2925 2175 2925 1525 
z
M 2375 1525 
Q 2375 2025 2125 2275 
Q 1875 2525 1575 2525 
Q 1275 2525 1025 2275 
Q 775 2025 775 1525 
Q 775 1025 1025 775 
Q 1275 525 1575 525 
Q 1875 525 2125 775 
Q 2375 1025 2375 1525 
z
" transform="scale(0.015625)"/>
       <path id="SimHei-64" d="M 2750 125 
L 2250 125 
L 2250 500 
Q 2100 275 1900 175 
Q 1700 75 1425 75 
Q 925 75 575 437 
Q 225 800 225 1525 
Q 225 2250 575 2625 
Q 925 3000 1425 3000 
Q 1700 3000 1900 2887 
Q 2100 2775 2250 2550 
L 2250 4400 
L 2750 4400 
L 2750 125 
z
M 2250 1525 
Q 2250 2000 2037 2275 
Q 1825 2550 1525 2550 
Q 1150 2550 962 2275 
Q 775 2000 775 1525 
Q 775 1050 962 787 
Q 1150 525 1525 525 
Q 1825 525 2037 787 
Q 2250 1050 2250 1525 
z
" transform="scale(0.015625)"/>
       <path id="SimHei-65" d="M 2850 1075 
Q 2800 625 2450 350 
Q 2100 75 1625 75 
Q 1025 75 637 462 
Q 250 850 250 1525 
Q 250 2200 637 2587 
Q 1025 2975 1625 2975 
Q 2150 2975 2487 2637 
Q 2825 2300 2825 1525 
L 800 1525 
Q 800 975 1037 750 
Q 1275 525 1625 525 
Q 1900 525 2075 662 
Q 2250 800 2300 1075 
L 2850 1075 
z
M 2250 1925 
Q 2200 2275 2025 2412 
Q 1850 2550 1575 2550 
Q 1325 2550 1125 2412 
Q 925 2275 825 1925 
L 2250 1925 
z
" transform="scale(0.015625)"/>
      </defs>
      <use xlink:href="#SimHei-45"/>
      <use xlink:href="#SimHei-70" transform="translate(50 0)"/>
      <use xlink:href="#SimHei-69" transform="translate(100 0)"/>
      <use xlink:href="#SimHei-73" transform="translate(150 0)"/>
      <use xlink:href="#SimHei-6f" transform="translate(200 0)"/>
      <use xlink:href="#SimHei-64" transform="translate(250 0)"/>
      <use xlink:href="#SimHei-65" transform="translate(300 0)"/>
     </g>
    </g>
   </g>
   <g id="matplotlib.axis_2">
    <g id="ytick_1">
     <g id="line2d_19">
      <path d="M 55.2 336.807891 
L 705.79 336.807891 
" clip-path="url(#pfbc487984d)" style="fill: none; stroke: #b0b0b0; stroke-opacity: 0.3; stroke-width: 0.8; stroke-linecap: square"/>
     </g>
     <g id="line2d_20">
      <defs>
       <path id="m8b93a58e00" d="M 0 0 
L -3.5 0 
" style="stroke: #000000; stroke-width: 0.8"/>
      </defs>
      <g>
       <use xlink:href="#m8b93a58e00" x="55.2" y="336.807891" style="stroke: #000000; stroke-width: 0.8"/>
      </g>
     </g>
     <g id="text_11">
      <!-- 600 -->
      <g transform="translate(30.2 340.932891) scale(0.12 -0.12)">
       <defs>
        <path id="SimHei-36" d="M 250 1612 
Q 275 1975 387 2225 
Q 500 2475 725 2850 
L 1750 4450 
L 2325 4450 
L 1275 2800 
Q 1950 2975 2350 2750 
Q 2750 2525 2887 2237 
Q 3025 1950 3037 1612 
Q 3050 1275 2937 950 
Q 2825 625 2537 362 
Q 2250 100 1737 75 
Q 1225 50 862 262 
Q 500 475 362 862 
Q 225 1250 250 1612 
z
M 1025 787 
Q 1250 550 1625 525 
Q 2000 500 2250 775 
Q 2500 1050 2500 1575 
Q 2500 2100 2187 2300 
Q 1875 2500 1487 2450 
Q 1100 2400 925 2075 
Q 750 1750 775 1387 
Q 800 1025 1025 787 
z
" transform="scale(0.015625)"/>
       </defs>
       <use xlink:href="#SimHei-36"/>
       <use xlink:href="#SimHei-30" transform="translate(50 0)"/>
       <use xlink:href="#SimHei-30" transform="translate(100 0)"/>
      </g>
     </g>
    </g>
    <g id="ytick_2">
     <g id="line2d_21">
      <path d="M 55.2 275.886999 
L 705.79 275.886999 
" clip-path="url(#pfbc487984d)" style="fill: none; stroke: #b0b0b0; stroke-opacity: 0.3; stroke-width: 0.8; stroke-linecap: square"/>
     </g>
     <g id="line2d_22">
      <g>
       <use xlink:href="#m8b93a58e00" x="55.2" y="275.886999" style="stroke: #000000; stroke-width: 0.8"/>
      </g>
     </g>
     <g id="text_12">
      <!-- 800 -->
      <g transform="translate(30.2 280.011999) scale(0.12 -0.12)">
       <defs>
        <path id="SimHei-38" d="M 175 1375 
Q 175 1675 325 1962 
Q 475 2250 825 2425 
Q 525 2600 425 2812 
Q 325 3025 312 3300 
Q 300 3575 387 3775 
Q 475 3975 650 4150 
Q 825 4325 1037 4387 
Q 1250 4450 1500 4450 
Q 1750 4450 1950 4400 
Q 2150 4350 2375 4187 
Q 2600 4025 2700 3725 
Q 2800 3425 2687 3025 
Q 2575 2625 2100 2400 
Q 2525 2275 2700 2012 
Q 2875 1750 2875 1375 
Q 2875 1000 2762 775 
Q 2650 550 2512 400 
Q 2375 250 2137 162 
Q 1900 75 1537 75 
Q 1175 75 912 162 
Q 650 250 475 425 
Q 300 600 237 837 
Q 175 1075 175 1375 
z
M 687 1400 
Q 675 1100 787 875 
Q 900 650 1200 587 
Q 1500 525 1825 600 
Q 2150 675 2275 950 
Q 2400 1225 2362 1500 
Q 2325 1775 2050 1962 
Q 1775 2150 1450 2125 
Q 1125 2100 912 1900 
Q 700 1700 687 1400 
z
M 775 3350 
Q 775 3100 950 2875 
Q 1125 2650 1500 2650 
Q 1875 2650 2062 2875 
Q 2250 3100 2237 3412 
Q 2225 3725 2012 3875 
Q 1800 4025 1437 4000 
Q 1075 3975 925 3787 
Q 775 3600 775 3350 
z
" transform="scale(0.015625)"/>
       </defs>
       <use xlink:href="#SimHei-38"/>
       <use xlink:href="#SimHei-30" transform="translate(50 0)"/>
       <use xlink:href="#SimHei-30" transform="translate(100 0)"/>
      </g>
     </g>
    </g>
    <g id="ytick_3">
     <g id="line2d_23">
      <path d="M 55.2 214.966107 
L 705.79 214.966107 
" clip-path="url(#pfbc487984d)" style="fill: none; stroke: #b0b0b0; stroke-opacity: 0.3; stroke-width: 0.8; stroke-linecap: square"/>
     </g>
     <g id="line2d_24">
      <g>
       <use xlink:href="#m8b93a58e00" x="55.2" y="214.966107" style="stroke: #000000; stroke-width: 0.8"/>
      </g>
     </g>
     <g id="text_13">
      <!-- 1000 -->
      <g transform="translate(24.2 219.091107) scale(0.12 -0.12)">
       <use xlink:href="#SimHei-31"/>
       <use xlink:href="#SimHei-30" transform="translate(50 0)"/>
       <use xlink:href="#SimHei-30" transform="translate(100 0)"/>
       <use xlink:href="#SimHei-30" transform="translate(150 0)"/>
      </g>
     </g>
    </g>
    <g id="ytick_4">
     <g id="line2d_25">
      <path d="M 55.2 154.045215 
L 705.79 154.045215 
" clip-path="url(#pfbc487984d)" style="fill: none; stroke: #b0b0b0; stroke-opacity: 0.3; stroke-width: 0.8; stroke-linecap: square"/>
     </g>
     <g id="line2d_26">
      <g>
       <use xlink:href="#m8b93a58e00" x="55.2" y="154.045215" style="stroke: #000000; stroke-width: 0.8"/>
      </g>
     </g>
     <g id="text_14">
      <!-- 1200 -->
      <g transform="translate(24.2 158.170215) scale(0.12 -0.12)">
       <use xlink:href="#SimHei-31"/>
       <use xlink:href="#SimHei-32" transform="translate(50 0)"/>
       <use xlink:href="#SimHei-30" transform="translate(100 0)"/>
       <use xlink:href="#SimHei-30" transform="translate(150 0)"/>
      </g>
     </g>
    </g>
    <g id="ytick_5">
     <g id="line2d_27">
      <path d="M 55.2 93.124323 
L 705.79 93.124323 
" clip-path="url(#pfbc487984d)" style="fill: none; stroke: #b0b0b0; stroke-opacity: 0.3; stroke-width: 0.8; stroke-linecap: square"/>
     </g>
     <g id="line2d_28">
      <g>
       <use xlink:href="#m8b93a58e00" x="55.2" y="93.124323" style="stroke: #000000; stroke-width: 0.8"/>
      </g>
     </g>
     <g id="text_15">
      <!-- 1400 -->
      <g transform="translate(24.2 97.249323) scale(0.12 -0.12)">
       <use xlink:href="#SimHei-31"/>
       <use xlink:href="#SimHei-34" transform="translate(50 0)"/>
       <use xlink:href="#SimHei-30" transform="translate(100 0)"/>
       <use xlink:href="#SimHei-30" transform="translate(150 0)"/>
      </g>
     </g>
    </g>
    <g id="ytick_6">
     <g id="line2d_29">
      <path d="M 55.2 32.20343 
L 705.79 32.20343 
" clip-path="url(#pfbc487984d)" style="fill: none; stroke: #b0b0b0; stroke-opacity: 0.3; stroke-width: 0.8; stroke-linecap: square"/>
     </g>
     <g id="line2d_30">
      <g>
       <use xlink:href="#m8b93a58e00" x="55.2" y="32.20343" style="stroke: #000000; stroke-width: 0.8"/>
      </g>
     </g>
     <g id="text_16">
      <!-- 1600 -->
      <g transform="translate(24.2 36.32843) scale(0.12 -0.12)">
       <use xlink:href="#SimHei-31"/>
       <use xlink:href="#SimHei-36" transform="translate(50 0)"/>
       <use xlink:href="#SimHei-30" transform="translate(100 0)"/>
       <use xlink:href="#SimHei-30" transform="translate(150 0)"/>
      </g>
     </g>
    </g>
    <g id="text_17">
     <!-- Total Reward -->
     <g transform="translate(18.2 252.105) rotate(-90) scale(0.16 -0.16)">
      <defs>
       <path id="SimHei-54" d="M 2850 3925 
L 1850 3925 
L 1850 125 
L 1275 125 
L 1275 3925 
L 275 3925 
L 275 4400 
L 2850 4400 
L 2850 3925 
z
" transform="scale(0.015625)"/>
       <path id="SimHei-74" d="M 2750 200 
Q 2625 150 2462 112 
Q 2300 75 2025 75 
Q 1575 75 1300 325 
Q 1025 575 1025 1025 
L 1025 2525 
L 175 2525 
L 175 2925 
L 1025 2925 
L 1025 3900 
L 1525 3900 
L 1525 2925 
L 2550 2925 
L 2550 2525 
L 1525 2525 
L 1525 1000 
Q 1525 800 1625 662 
Q 1725 525 2000 525 
Q 2275 525 2450 575 
Q 2625 625 2750 700 
L 2750 200 
z
" transform="scale(0.015625)"/>
       <path id="SimHei-61" d="M 2875 125 
L 2275 125 
Q 2225 175 2200 262 
Q 2175 350 2175 475 
Q 2000 275 1750 175 
Q 1500 75 1225 75 
Q 825 75 550 275 
Q 275 475 275 850 
Q 275 1225 525 1450 
Q 775 1675 1300 1750 
Q 1650 1800 1912 1875 
Q 2175 1950 2175 2075 
Q 2175 2225 2062 2375 
Q 1950 2525 1575 2525 
Q 1275 2525 1137 2412 
Q 1000 2300 950 2100 
L 400 2100 
Q 450 2500 762 2737 
Q 1075 2975 1575 2975 
Q 2125 2975 2400 2725 
Q 2675 2475 2675 2025 
L 2675 650 
Q 2675 500 2725 375 
Q 2775 250 2875 125 
z
M 2175 1050 
L 2175 1550 
Q 2025 1500 1887 1462 
Q 1750 1425 1425 1375 
Q 1050 1325 937 1200 
Q 825 1075 825 900 
Q 825 750 937 637 
Q 1050 525 1275 525 
Q 1500 525 1762 650 
Q 2025 775 2175 1050 
z
" transform="scale(0.015625)"/>
       <path id="SimHei-6c" d="M 1825 125 
L 1325 125 
L 1325 4400 
L 1825 4400 
L 1825 125 
z
" transform="scale(0.015625)"/>
       <path id="SimHei-20" transform="scale(0.015625)"/>
       <path id="SimHei-52" d="M 3000 125 
L 2400 125 
L 1500 1975 
L 850 1975 
L 850 125 
L 275 125 
L 275 4400 
L 1525 4400 
Q 2125 4400 2500 4112 
Q 2875 3825 2875 3175 
Q 2875 2675 2625 2400 
Q 2375 2125 2050 2050 
L 3000 125 
z
M 2300 3175 
Q 2300 3525 2087 3725 
Q 1875 3925 1400 3925 
L 850 3925 
L 850 2450 
L 1550 2450 
Q 1850 2450 2075 2612 
Q 2300 2775 2300 3175 
z
" transform="scale(0.015625)"/>
       <path id="SimHei-77" d="M 3075 2925 
L 2450 75 
L 1975 75 
L 1575 2250 
L 1525 2250 
L 1125 75 
L 650 75 
L 25 2925 
L 550 2925 
L 875 1050 
L 925 1050 
L 1275 2925 
L 1825 2925 
L 2175 1050 
L 2225 1050 
L 2550 2925 
L 3075 2925 
z
" transform="scale(0.015625)"/>
       <path id="SimHei-72" d="M 2500 2425 
Q 2025 2500 1700 2287 
Q 1375 2075 1150 1550 
L 1150 125 
L 650 125 
L 650 2925 
L 1150 2925 
L 1150 2200 
Q 1375 2600 1712 2787 
Q 2050 2975 2500 2975 
L 2500 2425 
z
" transform="scale(0.015625)"/>
      </defs>
      <use xlink:href="#SimHei-54"/>
      <use xlink:href="#SimHei-6f" transform="translate(50 0)"/>
      <use xlink:href="#SimHei-74" transform="translate(100 0)"/>
      <use xlink:href="#SimHei-61" transform="translate(150 0)"/>
      <use xlink:href="#SimHei-6c" transform="translate(200 0)"/>
      <use xlink:href="#SimHei-20" transform="translate(250 0)"/>
      <use xlink:href="#SimHei-52" transform="translate(300 0)"/>
      <use xlink:href="#SimHei-65" transform="translate(350 0)"/>
      <use xlink:href="#SimHei-77" transform="translate(400 0)"/>
      <use xlink:href="#SimHei-61" transform="translate(450 0)"/>
      <use xlink:href="#SimHei-72" transform="translate(500 0)"/>
      <use xlink:href="#SimHei-64" transform="translate(550 0)"/>
     </g>
    </g>
   </g>
   <g id="line2d_31">
    <path d="M 84.772273 218.818632 
L 86.254592 220.467729 
L 87.736912 229.098287 
L 89.219231 238.437994 
L 90.70155 252.424564 
L 92.18387 257.743251 
L 93.666189 274.287295 
L 95.148509 270.540162 
L 96.630828 275.148613 
L 98.113148 273.345443 
L 99.595467 285.032629 
L 101.077787 294.630442 
L 102.560106 292.539394 
L 104.042425 294.000152 
L 105.524745 302.379103 
L 107.007064 306.623092 
L 108.489384 312.674171 
L 109.971703 314.445852 
L 111.454023 323.04794 
L 112.936342 319.730009 
L 114.418661 319.864143 
L 115.900981 307.110925 
L 117.3833 305.830019 
L 118.86562 305.331181 
L 120.347939 302.806063 
L 121.830259 308.339507 
L 123.312578 312.759703 
L 124.794897 316.29124 
L 126.277217 320.127987 
L 130.724175 342.363917 
L 132.206495 345.525675 
L 133.688814 356.777079 
L 135.171134 353.721919 
L 136.653453 354.989095 
L 138.135772 367.541364 
L 141.100411 307.477021 
L 142.582731 280.799094 
L 144.06505 257.480888 
L 145.54737 238.203854 
L 148.512008 204.822558 
L 149.994328 189.560363 
L 152.958967 166.965583 
L 154.441286 154.427451 
L 155.923606 144.246184 
L 157.405925 133.176758 
L 158.888244 126.348414 
L 160.370564 117.467291 
L 161.852883 113.843026 
L 163.335203 107.488596 
L 164.817522 102.395801 
L 166.299842 98.220757 
L 167.782161 95.763505 
L 170.7468 82.955769 
L 172.229119 79.422154 
L 173.711439 78.462546 
L 175.193758 78.198939 
L 178.158397 72.160658 
L 179.640717 71.634293 
L 181.123036 70.68395 
L 182.605355 67.691748 
L 184.087675 65.178409 
L 185.569994 62.427531 
L 187.052314 60.193164 
L 190.016953 52.878476 
L 191.499272 52.973659 
L 192.981591 54.783726 
L 194.463911 54.491236 
L 195.94623 54.593415 
L 197.42855 53.504924 
L 198.910869 55.584461 
L 200.393189 54.363934 
L 201.875508 52.769082 
L 203.357828 54.04474 
L 204.840147 57.019594 
L 206.322466 59.418442 
L 207.804786 60.269601 
L 209.287105 58.999055 
L 210.769425 56.594191 
L 212.251744 55.797094 
L 213.734064 55.309238 
L 215.216383 55.44474 
L 216.698702 54.205024 
L 218.181022 52.76429 
L 219.663341 52.690146 
L 221.145661 53.238992 
L 222.62798 52.950662 
L 224.1103 53.120772 
L 225.592619 52.33808 
L 227.074938 52.526019 
L 228.557258 53.924895 
L 230.039577 53.180476 
L 231.521897 51.694067 
L 233.004216 50.645895 
L 234.486536 47.914261 
L 235.968855 49.859562 
L 237.451175 49.361499 
L 238.933494 50.540603 
L 240.415813 49.973097 
L 241.898133 51.415978 
L 243.380452 50.93214 
L 244.862772 50.650933 
L 246.345091 50.184217 
L 247.827411 50.626343 
L 249.30973 49.817852 
L 250.792049 50.946576 
L 253.756688 49.979557 
L 255.239008 52.189952 
L 256.721327 49.60192 
L 258.203647 47.714739 
L 259.685966 51.451697 
L 262.650605 53.459897 
L 264.132924 52.644463 
L 265.615244 55.359312 
L 267.097563 55.909045 
L 268.579883 55.804002 
L 270.062202 55.507227 
L 271.544522 52.113292 
L 273.026841 51.237373 
L 274.50916 51.296145 
L 275.99148 51.060765 
L 277.473799 52.206075 
L 278.956119 51.629198 
L 280.438438 51.614289 
L 281.920758 52.990482 
L 283.403077 50.950349 
L 284.885396 49.614056 
L 286.367716 49.879058 
L 287.850035 48.917674 
L 289.332355 50.40171 
L 292.296994 49.77943 
L 293.779313 48.144737 
L 295.261632 48.835153 
L 296.743952 49.956058 
L 298.226271 49.705544 
L 299.708591 50.745114 
L 301.19091 49.269848 
L 302.67323 46.955614 
L 304.155549 46.661064 
L 305.637869 48.194849 
L 307.120188 52.594253 
L 308.602507 51.109126 
L 310.084827 51.667841 
L 311.567146 51.19904 
L 313.049466 51.020403 
L 314.531785 50.146037 
L 316.014105 54.271718 
L 317.496424 51.140318 
L 320.461063 51.076861 
L 321.943382 52.073235 
L 324.908021 49.63284 
L 326.390341 48.009659 
L 327.87266 47.013588 
L 329.354979 46.797641 
L 330.837299 45.418597 
L 332.319618 45.812388 
L 333.801938 46.509524 
L 335.284257 46.056477 
L 336.766577 47.167461 
L 338.248896 49.038446 
L 339.731216 49.434967 
L 341.213535 51.664215 
L 342.695854 51.186082 
L 344.178174 50.878726 
L 345.660493 52.796164 
L 347.142813 54.352066 
L 348.625132 54.600117 
L 350.107452 55.827419 
L 351.589771 54.993691 
L 353.07209 56.761867 
L 354.55441 56.85101 
L 356.036729 54.400145 
L 357.519049 52.936834 
L 359.001368 51.844783 
L 360.483688 48.429829 
L 361.966007 50.023668 
L 363.448326 49.343319 
L 364.930646 49.59046 
L 366.412965 50.310537 
L 367.895285 50.690486 
L 369.377604 50.504965 
L 370.859924 47.899104 
L 372.342243 46.895298 
L 373.824563 47.124575 
L 375.306882 49.426423 
L 376.789201 47.920612 
L 378.271521 49.508849 
L 379.75384 49.769163 
L 381.23616 49.624281 
L 382.718479 49.81064 
L 384.200799 48.775769 
L 385.683118 50.209906 
L 387.165437 49.9449 
L 388.647757 52.065958 
L 390.130076 53.517473 
L 391.612396 55.148428 
L 393.094715 54.911806 
L 394.577035 54.219614 
L 396.059354 53.71713 
L 397.541674 55.748124 
L 399.023993 56.731502 
L 400.506312 57.328124 
L 401.988632 55.084352 
L 403.470951 57.064231 
L 404.953271 54.950987 
L 406.43559 57.271536 
L 407.91791 58.447016 
L 409.400229 54.978701 
L 410.882548 54.717699 
L 412.364868 52.744077 
L 413.847187 53.217631 
L 415.329507 55.634663 
L 416.811826 53.648276 
L 418.294146 54.838731 
L 419.776465 54.508271 
L 421.258784 56.157585 
L 422.741104 56.242549 
L 424.223423 55.442463 
L 425.705743 54.021836 
L 427.188062 53.742761 
L 428.670382 55.03807 
L 430.152701 54.943156 
L 431.635021 54.542366 
L 433.11734 54.001717 
L 434.599659 55.12628 
L 436.081979 54.347502 
L 437.564298 55.716251 
L 439.046618 56.285533 
L 440.528937 55.226027 
L 442.011257 55.20216 
L 443.493576 55.849022 
L 444.975895 57.344079 
L 446.458215 57.5741 
L 447.940534 56.103469 
L 449.422854 55.303805 
L 450.905173 55.20969 
L 452.387493 53.420552 
L 453.869812 49.75409 
L 455.352131 50.427834 
L 456.834451 50.020612 
L 458.31677 51.51477 
L 459.79909 52.360133 
L 461.281409 52.683845 
L 462.763729 53.30054 
L 464.246048 53.618192 
L 465.728368 53.183878 
L 467.210687 52.878563 
L 470.175326 48.023028 
L 471.657645 47.869752 
L 473.139965 49.934037 
L 474.622284 52.60465 
L 476.104604 50.068602 
L 477.586923 49.079608 
L 479.069242 47.813834 
L 480.551562 47.041956 
L 482.033881 47.512955 
L 483.516201 46.119225 
L 484.99852 43.94512 
L 486.48084 45.581046 
L 487.963159 47.78858 
L 489.445478 46.789567 
L 490.927798 46.156685 
L 492.410117 47.202912 
L 493.892437 45.739313 
L 495.374756 45.747639 
L 496.857076 47.579929 
L 498.339395 49.053671 
L 499.821715 49.512208 
L 501.304034 50.895098 
L 502.786353 53.550932 
L 504.268673 51.191487 
L 505.750992 48.273434 
L 507.233312 49.123526 
L 508.715631 50.423103 
L 510.197951 49.982316 
L 511.68027 48.96706 
L 513.162589 48.799931 
L 514.644909 50.465866 
L 516.127228 48.925621 
L 517.609548 48.354666 
L 519.091867 52.061218 
L 522.056506 51.921529 
L 523.538825 52.187578 
L 525.021145 53.057218 
L 526.503464 53.309411 
L 527.985784 54.526529 
L 529.468103 53.675687 
L 530.950423 56.922498 
L 532.432742 56.438012 
L 533.915062 55.190307 
L 536.8797 54.707486 
L 538.36202 55.956714 
L 539.844339 55.021336 
L 541.326659 56.542745 
L 542.808978 53.890012 
L 544.291298 51.943988 
L 545.773617 50.910993 
L 548.738256 50.092108 
L 550.220575 51.884427 
L 551.702895 54.290968 
L 553.185214 53.918622 
L 554.667534 54.453091 
L 556.149853 51.277688 
L 557.632172 48.681154 
L 559.114492 50.217094 
L 560.596811 50.320091 
L 563.56145 54.725747 
L 566.526089 57.298484 
L 568.008409 56.263007 
L 569.490728 53.378951 
L 570.973047 52.535677 
L 572.455367 49.17275 
L 573.937686 53.948998 
L 575.420006 51.13569 
L 576.902325 49.666853 
L 578.384645 52.731954 
L 579.866964 53.688343 
L 581.349283 52.563237 
L 582.831603 49.72779 
L 584.313922 49.016478 
L 585.796242 48.779978 
L 587.278561 49.534561 
L 588.760881 52.029469 
L 590.2432 50.735051 
L 591.725519 50.532162 
L 593.207839 48.018054 
L 594.690158 47.588418 
L 596.172478 47.339225 
L 597.654797 46.546023 
L 599.137117 44.133935 
L 600.619436 45.225514 
L 602.101756 43.506207 
L 603.584075 43.96509 
L 605.066394 47.191815 
L 606.548714 46.612698 
L 608.031033 46.722303 
L 609.513353 47.722419 
L 610.995672 44.5685 
L 612.477992 44.407398 
L 613.960311 44.744552 
L 615.44263 45.845856 
L 616.92495 47.424594 
L 618.407269 48.516884 
L 619.889589 49.846095 
L 621.371908 52.520965 
L 622.854228 52.735555 
L 625.818866 52.549373 
L 630.265825 49.966138 
L 631.748144 52.612824 
L 633.230464 53.607362 
L 634.712783 51.884978 
L 636.195103 48.9184 
L 637.677422 50.849274 
L 639.159741 50.390498 
L 640.642061 51.933251 
L 642.12438 53.150022 
L 643.6067 52.995091 
L 645.089019 52.349726 
L 646.571339 52.867609 
L 648.053658 50.810777 
L 649.535977 52.742139 
L 651.018297 50.19933 
L 652.500616 49.144743 
L 653.982936 50.14291 
L 655.465255 52.80102 
L 656.947575 53.379688 
L 658.429894 52.861947 
L 659.912213 51.975814 
L 661.394533 52.760091 
L 662.876852 51.202201 
L 664.359172 52.986636 
L 665.841491 52.104142 
L 667.323811 49.844833 
L 668.80613 51.74593 
L 670.28845 51.486305 
L 671.770769 49.400995 
L 673.253088 50.873751 
L 674.735408 49.085871 
L 676.217727 48.086897 
L 676.217727 48.086897 
" clip-path="url(#pfbc487984d)" style="fill: none; stroke: #1f77b4; stroke-width: 1.5; stroke-linecap: square"/>
   </g>
   <g id="line2d_32">
    <path d="M 84.772273 248.184166 
L 86.254592 259.312161 
L 87.736912 269.436048 
L 89.219231 273.421741 
L 90.70155 276.220886 
L 92.18387 292.629932 
L 93.666189 296.108644 
L 95.148509 296.332365 
L 96.630828 311.183269 
L 98.113148 317.629668 
L 99.595467 306.607045 
L 101.077787 312.184952 
L 102.560106 316.606556 
L 104.042425 310.228634 
L 105.524745 305.419514 
L 107.007064 303.856811 
L 108.489384 302.629741 
L 109.971703 310.178088 
L 111.454023 321.720232 
L 112.936342 322.184752 
L 114.418661 314.660095 
L 115.900981 319.576514 
L 117.3833 323.399798 
L 118.86562 323.66944 
L 120.347939 328.825087 
L 121.830259 326.204096 
L 123.312578 324.527463 
L 124.794897 330.03547 
L 126.277217 332.980587 
L 127.759536 323.58679 
L 129.241856 317.720989 
L 130.724175 310.260728 
L 132.206495 318.802448 
L 133.688814 321.89905 
L 135.171134 319.368962 
L 136.653453 316.324328 
L 138.135772 309.353345 
L 139.618092 322.126944 
L 141.100411 323.408087 
L 142.582731 328.270437 
L 144.06505 338.25858 
L 145.54737 330.731991 
L 147.029689 326.779454 
L 148.512008 302.589086 
L 149.994328 276.354503 
L 154.441286 218.067948 
L 157.405925 185.231461 
L 158.888244 172.534667 
L 160.370564 158.86751 
L 161.852883 148.904006 
L 163.335203 136.639339 
L 164.817522 128.671785 
L 166.299842 121.954062 
L 167.782161 116.966796 
L 170.7468 98.977153 
L 172.229119 95.480512 
L 175.193758 87.693802 
L 176.676078 82.851382 
L 178.158397 80.173869 
L 179.640717 79.914399 
L 182.605355 72.840725 
L 184.087675 70.978277 
L 185.569994 67.400551 
L 187.052314 63.472138 
L 188.534633 60.060681 
L 190.016953 59.628562 
L 191.499272 59.741444 
L 192.981591 58.783867 
L 194.463911 56.188227 
L 195.94623 55.891685 
L 197.42855 56.227423 
L 200.393189 53.221171 
L 201.875508 53.81034 
L 203.357828 55.716444 
L 204.840147 57.138627 
L 206.322466 60.061855 
L 207.804786 60.918483 
L 209.287105 59.956955 
L 210.769425 59.994635 
L 213.734064 59.123048 
L 215.216383 59.325665 
L 216.698702 57.107791 
L 218.181022 56.385529 
L 219.663341 53.614367 
L 221.145661 52.820112 
L 222.62798 52.624804 
L 224.1103 51.994023 
L 225.592619 53.786875 
L 227.074938 56.164759 
L 228.557258 57.790715 
L 230.039577 56.535742 
L 231.521897 54.755888 
L 233.004216 56.706876 
L 235.968855 53.420085 
L 237.451175 52.874773 
L 238.933494 51.730754 
L 240.415813 52.68585 
L 241.898133 55.937716 
L 243.380452 55.147543 
L 244.862772 55.234941 
L 246.345091 53.120275 
L 247.827411 54.838514 
L 249.30973 52.242321 
L 250.792049 53.423831 
L 252.274369 51.540802 
L 253.756688 50.982405 
L 255.239008 52.80803 
L 256.721327 51.806298 
L 258.203647 52.209167 
L 259.685966 51.177406 
L 261.168285 52.118404 
L 262.650605 51.584666 
L 264.132924 51.530755 
L 265.615244 51.921569 
L 268.579883 51.8294 
L 270.062202 51.220182 
L 271.544522 51.797435 
L 273.026841 51.670048 
L 274.50916 51.908292 
L 275.99148 51.774771 
L 277.473799 52.794865 
L 278.956119 51.818507 
L 280.438438 53.694028 
L 281.920758 54.410003 
L 286.367716 50.066913 
L 287.850035 47.825734 
L 289.332355 49.517319 
L 290.814674 48.973162 
L 292.296994 49.339982 
L 293.779313 51.653987 
L 295.261632 50.922335 
L 296.743952 53.082677 
L 298.226271 48.744645 
L 299.708591 50.046827 
L 301.19091 50.111228 
L 302.67323 48.729735 
L 305.637869 50.8938 
L 307.120188 52.63791 
L 308.602507 50.682149 
L 310.084827 51.690127 
L 311.567146 50.818206 
L 313.049466 50.547304 
L 314.531785 51.385892 
L 316.014105 53.872489 
L 317.496424 50.960413 
L 318.978743 50.627464 
L 320.461063 51.492582 
L 321.943382 52.818246 
L 323.425702 50.899437 
L 324.908021 50.092926 
L 326.390341 48.892621 
L 327.87266 48.842199 
L 329.354979 48.049159 
L 330.837299 46.68497 
L 332.319618 47.430523 
L 333.801938 47.965846 
L 335.284257 47.367167 
L 336.766577 48.347082 
L 338.248896 50.100105 
L 339.731216 50.390459 
L 341.213535 52.524159 
L 342.695854 51.960031 
L 344.178174 51.575281 
L 345.660493 53.423063 
L 347.142813 54.916275 
L 348.625132 55.107905 
L 350.107452 56.284428 
L 351.589771 55.404999 
L 353.07209 57.132045 
L 354.55441 57.18417 
L 356.036729 54.699989 
L 357.519049 53.206693 
L 359.001368 52.087656 
L 360.483688 48.648415 
L 361.966007 50.220395 
L 363.448326 49.520373 
L 364.930646 49.749809 
L 366.412965 50.453951 
L 367.895285 50.819559 
L 369.377604 50.621131 
L 370.859924 48.003653 
L 372.342243 46.989392 
L 373.824563 47.20926 
L 375.306882 49.502639 
L 376.789201 47.989207 
L 378.271521 49.570584 
L 379.75384 49.824725 
L 381.23616 49.674287 
L 382.718479 49.855645 
L 384.200799 48.816274 
L 385.683118 50.24636 
L 387.165437 49.977708 
L 388.647757 52.095486 
L 390.130076 53.544048 
L 391.612396 55.172346 
L 393.094715 54.933332 
L 394.577035 54.238987 
L 396.059354 53.734566 
L 397.541674 55.763816 
L 399.023993 56.745625 
L 400.506312 57.340834 
L 401.988632 55.095791 
L 403.470951 57.074527 
L 404.953271 54.960253 
L 406.43559 57.279876 
L 407.91791 58.454521 
L 409.400229 54.985456 
L 410.882548 54.723778 
L 412.364868 52.749548 
L 413.847187 53.222555 
L 415.329507 55.639095 
L 416.811826 53.652264 
L 418.294146 54.842321 
L 419.776465 54.511502 
L 421.258784 56.160493 
L 422.741104 56.245166 
L 424.223423 55.444818 
L 425.705743 54.023956 
L 427.188062 53.744669 
L 428.670382 55.039787 
L 430.152701 54.944701 
L 431.635021 54.543757 
L 433.11734 54.002969 
L 434.599659 55.127406 
L 436.081979 54.348516 
L 437.564298 55.717163 
L 439.046618 56.286354 
L 440.528937 55.226766 
L 442.011257 55.202825 
L 443.493576 55.849621 
L 444.975895 57.344617 
L 446.458215 57.574585 
L 447.940534 56.103906 
L 449.422854 55.304198 
L 450.905173 55.210044 
L 452.387493 53.42087 
L 453.869812 49.754376 
L 455.352131 50.428091 
L 456.834451 50.020844 
L 458.31677 51.514979 
L 459.79909 52.360321 
L 461.281409 52.684014 
L 462.763729 53.300692 
L 464.246048 53.618329 
L 465.728368 53.184001 
L 467.210687 52.878674 
L 470.175326 48.023118 
L 471.657645 47.869833 
L 473.139965 49.93411 
L 474.622284 52.604715 
L 476.104604 50.068661 
L 477.586923 49.079661 
L 479.069242 47.813882 
L 480.551562 47.041999 
L 482.033881 47.512994 
L 483.516201 46.11926 
L 484.99852 43.945151 
L 486.48084 45.581074 
L 487.963159 47.788606 
L 489.445478 46.78959 
L 490.927798 46.156705 
L 492.410117 47.20293 
L 493.892437 45.739329 
L 495.374756 45.747654 
L 496.857076 47.579943 
L 498.339395 49.053683 
L 499.821715 49.512219 
L 501.304034 50.895108 
L 502.786353 53.550941 
L 504.268673 51.191495 
L 505.750992 48.273441 
L 507.233312 49.123532 
L 508.715631 50.423109 
L 510.197951 49.982322 
L 511.68027 48.967065 
L 513.162589 48.799935 
L 514.644909 50.46587 
L 516.127228 48.925625 
L 517.609548 48.354669 
L 519.091867 52.061221 
L 522.056506 51.921531 
L 523.538825 52.18758 
L 525.021145 53.05722 
L 526.503464 53.309412 
L 527.985784 54.52653 
L 529.468103 53.675688 
L 530.950423 56.922499 
L 532.432742 56.438014 
L 533.915062 55.190307 
L 536.8797 54.707487 
L 538.36202 55.956715 
L 539.844339 55.021336 
L 541.326659 56.542745 
L 542.808978 53.890013 
L 544.291298 51.943989 
L 545.773617 50.910993 
L 548.738256 50.092109 
L 550.220575 51.884427 
L 551.702895 54.290968 
L 553.185214 53.918623 
L 554.667534 54.453091 
L 556.149853 51.277689 
L 557.632172 48.681154 
L 559.114492 50.217094 
L 560.596811 50.320091 
L 563.56145 54.725747 
L 566.526089 57.298484 
L 568.008409 56.263007 
L 569.490728 53.378951 
L 570.973047 52.535677 
L 572.455367 49.17275 
L 573.937686 53.948998 
L 575.420006 51.13569 
L 576.902325 49.666853 
L 578.384645 52.731954 
L 579.866964 53.688343 
L 581.349283 52.563237 
L 582.831603 49.727791 
L 584.313922 49.016478 
L 585.796242 48.779978 
L 587.278561 49.534561 
L 588.760881 52.029469 
L 590.2432 50.735051 
L 591.725519 50.532162 
L 593.207839 48.018054 
L 594.690158 47.588418 
L 596.172478 47.339225 
L 597.654797 46.546023 
L 599.137117 44.133935 
L 600.619436 45.225514 
L 602.101756 43.506207 
L 603.584075 43.96509 
L 605.066394 47.191815 
L 606.548714 46.612698 
L 608.031033 46.722303 
L 609.513353 47.722419 
L 610.995672 44.5685 
L 612.477992 44.407398 
L 613.960311 44.744552 
L 615.44263 45.845856 
L 616.92495 47.424594 
L 618.407269 48.516884 
L 619.889589 49.846095 
L 621.371908 52.520965 
L 622.854228 52.735555 
L 625.818866 52.549373 
L 630.265825 49.966138 
L 631.748144 52.612824 
L 633.230464 53.607362 
L 634.712783 51.884978 
L 636.195103 48.9184 
L 637.677422 50.849274 
L 639.159741 50.390498 
L 640.642061 51.933251 
L 642.12438 53.150022 
L 643.6067 52.995091 
L 645.089019 52.349726 
L 646.571339 52.867609 
L 648.053658 50.810777 
L 649.535977 52.742139 
L 651.018297 50.19933 
L 652.500616 49.144743 
L 653.982936 50.14291 
L 655.465255 52.80102 
L 656.947575 53.379688 
L 658.429894 52.861947 
L 659.912213 51.975814 
L 661.394533 52.760091 
L 662.876852 51.202201 
L 664.359172 52.986636 
L 665.841491 52.104142 
L 667.323811 49.844833 
L 668.80613 51.74593 
L 670.28845 51.486305 
L 671.770769 49.400995 
L 673.253088 50.873751 
L 674.735408 49.085871 
L 676.217727 48.086897 
L 676.217727 48.086897 
" clip-path="url(#pfbc487984d)" style="fill: none; stroke: #ff7f0e; stroke-width: 1.5; stroke-linecap: square"/>
   </g>
   <g id="line2d_33">
    <path d="M 84.772273 220.074365 
L 86.254592 221.764594 
L 87.736912 222.997141 
L 89.219231 222.172464 
L 90.70155 229.240529 
L 92.18387 234.986578 
L 93.666189 245.626736 
L 95.148509 257.195206 
L 96.630828 273.973046 
L 98.113148 277.649713 
L 99.595467 282.399249 
L 101.077787 280.44293 
L 102.560106 284.621972 
L 104.042425 278.984259 
L 105.524745 260.104332 
L 107.007064 247.451921 
L 109.971703 217.463875 
L 111.454023 201.74011 
L 112.936342 187.704743 
L 114.418661 172.02397 
L 115.900981 159.476317 
L 118.86562 138.032511 
L 121.830259 120.908603 
L 123.312578 114.814706 
L 124.794897 111.191222 
L 126.277217 102.597542 
L 127.759536 97.096107 
L 129.241856 90.680192 
L 130.724175 89.521948 
L 132.206495 86.280528 
L 133.688814 81.58204 
L 135.171134 80.046462 
L 138.135772 75.074499 
L 139.618092 70.365146 
L 141.100411 70.305178 
L 142.582731 66.987697 
L 144.06505 65.714023 
L 147.029689 65.113848 
L 148.512008 62.417154 
L 149.994328 60.780814 
L 151.476647 59.430627 
L 152.958967 58.701655 
L 154.441286 58.442911 
L 155.923606 60.765208 
L 157.405925 59.712226 
L 158.888244 60.591437 
L 160.370564 59.61653 
L 161.852883 60.908351 
L 163.335203 59.169443 
L 164.817522 58.212179 
L 166.299842 58.084193 
L 167.782161 58.434389 
L 169.264481 56.772526 
L 170.7468 56.215943 
L 172.229119 56.499587 
L 173.711439 54.571803 
L 175.193758 55.469423 
L 176.676078 55.708212 
L 178.158397 55.621644 
L 179.640717 56.622583 
L 181.123036 54.37442 
L 182.605355 56.161487 
L 184.087675 55.110699 
L 185.569994 54.628627 
L 187.052314 53.949206 
L 188.534633 52.224706 
L 190.016953 49.538157 
L 191.499272 53.125509 
L 192.981591 52.490563 
L 194.463911 49.91676 
L 195.94623 50.636241 
L 197.42855 52.055217 
L 198.910869 52.345093 
L 200.393189 52.748493 
L 201.875508 50.439322 
L 203.357828 54.3696 
L 204.840147 53.52855 
L 206.322466 53.175983 
L 207.804786 52.374781 
L 209.287105 53.451394 
L 210.769425 53.708752 
L 212.251744 54.719847 
L 213.734064 53.555363 
L 215.216383 53.448887 
L 216.698702 51.383369 
L 218.181022 50.618169 
L 219.663341 51.404689 
L 221.145661 52.494273 
L 222.62798 52.894182 
L 224.1103 52.019236 
L 225.592619 52.487266 
L 227.074938 49.476052 
L 228.557258 50.795781 
L 230.039577 51.394023 
L 231.521897 50.352595 
L 233.004216 51.286189 
L 234.486536 49.312168 
L 235.968855 50.858182 
L 237.451175 51.42016 
L 238.933494 50.917011 
L 240.415813 51.185299 
L 241.898133 49.685273 
L 243.380452 49.090081 
L 244.862772 47.280041 
L 246.345091 47.091362 
L 247.827411 49.058712 
L 249.30973 48.751548 
L 250.792049 48.858204 
L 252.274369 49.233725 
L 253.756688 48.261394 
L 255.239008 48.600573 
L 256.721327 50.198271 
L 258.203647 51.551721 
L 259.685966 50.945975 
L 261.168285 50.984952 
L 262.650605 50.494668 
L 264.132924 49.617188 
L 265.615244 50.450405 
L 267.097563 49.169752 
L 268.579883 49.506004 
L 270.062202 48.187734 
L 271.544522 50.679013 
L 273.026841 51.828902 
L 274.50916 50.477379 
L 275.99148 49.754495 
L 277.473799 49.756515 
L 278.956119 47.699776 
L 280.438438 48.547325 
L 281.920758 50.287111 
L 283.403077 49.936083 
L 284.885396 52.939174 
L 286.367716 51.42255 
L 287.850035 48.320576 
L 289.332355 49.208733 
L 290.814674 49.300722 
L 292.296994 48.843776 
L 293.779313 50.662434 
L 295.261632 49.326623 
L 296.743952 52.404233 
L 299.708591 50.084441 
L 301.19091 51.219204 
L 302.67323 51.15419 
L 304.155549 50.437201 
L 305.637869 52.897015 
L 307.120188 53.767769 
L 308.602507 53.878938 
L 310.084827 54.271539 
L 311.567146 53.724022 
L 313.049466 50.842352 
L 314.531785 52.579943 
L 317.496424 48.773174 
L 318.978743 51.370356 
L 320.461063 49.305662 
L 321.943382 52.644478 
L 323.425702 53.871649 
L 324.908021 56.783012 
L 326.390341 57.160533 
L 327.87266 55.019793 
L 329.354979 55.731021 
L 332.319618 54.388406 
L 333.801938 53.25385 
L 335.284257 52.855881 
L 338.248896 56.119826 
L 339.731216 53.9375 
L 341.213535 52.476146 
L 342.695854 53.29345 
L 344.178174 52.115813 
L 345.660493 50.073496 
L 347.142813 50.151303 
L 348.625132 50.620632 
L 350.107452 48.988664 
L 351.589771 44.598013 
L 354.55441 44.54902 
L 356.036729 44.137832 
L 359.001368 45.233199 
L 360.483688 45.181935 
L 361.966007 46.052242 
L 363.448326 43.552662 
L 364.930646 41.416538 
L 366.412965 41.549517 
L 367.895285 44.421915 
L 369.377604 43.605073 
L 372.342243 43.382555 
L 373.824563 42.450123 
L 375.306882 42.884232 
L 376.789201 42.652013 
L 379.75384 51.738556 
L 381.23616 49.91202 
L 382.718479 50.662489 
L 384.200799 51.773749 
L 385.683118 50.856857 
L 387.165437 49.06658 
L 388.647757 49.297821 
L 390.130076 49.250386 
L 391.612396 49.608613 
L 393.094715 49.712596 
L 394.577035 52.007426 
L 396.059354 49.566293 
L 397.541674 50.259865 
L 399.023993 52.417532 
L 400.506312 54.279228 
L 401.988632 55.889971 
L 403.470951 53.960449 
L 404.953271 52.488979 
L 406.43559 52.912125 
L 407.91791 48.333054 
L 409.400229 46.563315 
L 412.364868 50.174836 
L 413.847187 48.416559 
L 416.811826 51.82441 
L 418.294146 50.448456 
L 421.258784 50.042302 
L 422.741104 50.353452 
L 424.223423 52.37123 
L 425.705743 54.759015 
L 427.188062 54.220534 
L 428.670382 56.773099 
L 430.152701 55.395983 
L 431.635021 55.182104 
L 434.599659 52.968171 
L 436.081979 53.951887 
L 437.564298 53.7361 
L 439.046618 54.834899 
L 440.528937 53.441649 
L 442.011257 53.751303 
L 443.493576 56.129258 
L 444.975895 57.381585 
L 446.458215 54.85695 
L 447.940534 54.892313 
L 449.422854 52.770723 
L 450.905173 52.75754 
L 452.387493 53.981394 
L 453.869812 54.992895 
L 456.834451 58.526515 
L 458.31677 58.494773 
L 459.79909 55.705068 
L 461.281409 52.333134 
L 462.763729 50.927093 
L 464.246048 51.436762 
L 465.728368 53.336991 
L 467.210687 51.413818 
L 468.693006 52.456631 
L 470.175326 54.026059 
L 471.657645 54.9134 
L 473.139965 54.558834 
L 474.622284 56.754219 
L 476.104604 56.642423 
L 477.586923 56.11947 
L 479.069242 56.22144 
L 480.551562 54.146722 
L 482.033881 53.118691 
L 483.516201 53.006458 
L 484.99852 49.655788 
L 486.48084 50.806576 
L 487.963159 50.613267 
L 489.445478 50.303448 
L 490.927798 50.366046 
L 492.410117 49.471714 
L 493.892437 48.956319 
L 495.374756 49.498386 
L 496.857076 52.685067 
L 498.339395 56.500775 
L 499.821715 55.305453 
L 501.304034 54.457716 
L 502.786353 54.95687 
L 504.268673 54.088106 
L 505.750992 50.196389 
L 507.233312 50.898682 
L 508.715631 49.700621 
L 510.197951 52.776345 
L 511.68027 53.325462 
L 513.162589 53.368037 
L 514.644909 53.27262 
L 516.127228 53.03551 
L 517.609548 51.216562 
L 519.091867 49.755943 
L 520.574187 49.413237 
L 522.056506 50.697214 
L 523.538825 49.657493 
L 525.021145 47.001018 
L 526.503464 48.388494 
L 527.985784 48.68711 
L 529.468103 46.521904 
L 530.950423 46.784756 
L 532.432742 49.650287 
L 533.915062 49.925257 
L 535.397381 50.002946 
L 536.8797 49.47335 
L 538.36202 52.015622 
L 539.844339 53.06649 
L 541.326659 52.390937 
L 542.808978 50.792808 
L 544.291298 48.80037 
L 547.255936 47.767733 
L 548.738256 46.584787 
L 550.220575 47.017945 
L 551.702895 48.837704 
L 553.185214 48.487435 
L 554.667534 48.446074 
L 556.149853 47.102823 
L 557.632172 46.900369 
L 559.114492 45.608524 
L 560.596811 46.175216 
L 562.079131 45.898604 
L 563.56145 46.385341 
L 565.04377 43.968651 
L 566.526089 42.801994 
L 568.008409 43.666816 
L 570.973047 45.022707 
L 572.455367 45.240515 
L 573.937686 45.584345 
L 575.420006 44.103398 
L 576.902325 45.701509 
L 578.384645 46.734555 
L 581.349283 48.435881 
L 582.831603 49.147437 
L 584.313922 50.230163 
L 585.796242 50.483373 
L 588.760881 50.738261 
L 590.2432 53.081956 
L 591.725519 51.513725 
L 593.207839 51.154832 
L 594.690158 51.293416 
L 596.172478 53.637179 
L 597.654797 57.184665 
L 599.137117 57.282087 
L 600.619436 54.716552 
L 603.584075 53.648705 
L 605.066394 52.343789 
L 606.548714 51.887046 
L 608.031033 50.949787 
L 609.513353 53.147402 
L 610.995672 53.374826 
L 612.477992 53.256604 
L 613.960311 52.620239 
L 616.92495 49.200712 
L 618.407269 50.489995 
L 619.889589 52.066643 
L 621.371908 54.776226 
L 622.854228 55.203493 
L 624.336547 55.047969 
L 625.818866 54.241657 
L 627.301186 54.230114 
L 628.783505 51.531899 
L 630.265825 53.705875 
L 631.748144 52.431206 
L 633.230464 52.561584 
L 634.712783 50.731725 
L 636.195103 51.421847 
L 637.677422 52.864641 
L 639.159741 52.085977 
L 640.642061 52.118175 
L 642.12438 52.025578 
L 643.6067 51.379564 
L 645.089019 52.644792 
L 646.571339 53.16857 
L 649.535977 51.539552 
L 651.018297 48.531985 
L 652.500616 47.310512 
L 653.982936 48.811851 
L 655.465255 49.003065 
L 656.947575 49.845174 
L 658.429894 52.373828 
L 659.912213 51.765795 
L 662.876852 53.317257 
L 664.359172 53.724993 
L 665.841491 53.873277 
L 667.323811 53.010272 
L 668.80613 52.882263 
L 671.770769 51.177903 
L 673.253088 52.588816 
L 676.217727 48.464423 
L 676.217727 48.464423 
" clip-path="url(#pfbc487984d)" style="fill: none; stroke: #2ca02c; stroke-width: 1.5; stroke-linecap: square"/>
   </g>
   <g id="line2d_34">
    <path d="M 84.772273 220.074365 
L 86.254592 217.986874 
L 87.736912 212.442895 
L 89.219231 207.536562 
L 90.70155 197.063088 
L 92.18387 187.696478 
L 93.666189 176.573047 
L 95.148509 167.387356 
L 96.630828 161.05501 
L 98.113148 153.550832 
L 99.595467 143.512912 
L 104.042425 118.748659 
L 105.524745 114.108663 
L 107.007064 110.551686 
L 108.489384 103.416997 
L 109.971703 100.796514 
L 111.454023 95.263935 
L 112.936342 90.410922 
L 114.418661 86.737537 
L 115.900981 84.941723 
L 117.3833 80.652041 
L 118.86562 77.057149 
L 121.830259 70.43131 
L 123.312578 68.255384 
L 124.794897 67.711857 
L 126.277217 66.459838 
L 127.759536 63.529434 
L 129.241856 63.151007 
L 130.724175 61.06021 
L 132.206495 59.209992 
L 133.688814 60.183188 
L 135.171134 58.282727 
L 136.653453 58.003136 
L 138.135772 53.135322 
L 139.618092 51.355258 
L 141.100411 50.534521 
L 142.582731 52.616422 
L 144.06505 49.869101 
L 145.54737 49.831878 
L 147.029689 50.837178 
L 148.512008 49.606073 
L 149.994328 49.644634 
L 151.476647 51.097942 
L 152.958967 52.227336 
L 154.441286 50.571334 
L 155.923606 51.1508 
L 157.405925 48.066512 
L 158.888244 49.100573 
L 160.370564 48.291632 
L 161.852883 47.809153 
L 163.335203 47.927184 
L 164.817522 48.938583 
L 166.299842 49.073934 
L 167.782161 52.871736 
L 169.264481 53.011132 
L 170.7468 55.310607 
L 172.229119 54.069971 
L 173.711439 54.049117 
L 175.193758 52.752214 
L 176.676078 54.468529 
L 178.158397 54.323702 
L 179.640717 55.812466 
L 181.123036 54.423931 
L 182.605355 52.422934 
L 184.087675 51.095814 
L 185.569994 48.39096 
L 187.052314 49.43674 
L 188.534633 48.110074 
L 190.016953 45.582756 
L 191.499272 47.761865 
L 192.981591 46.523991 
L 194.463911 46.735039 
L 195.94623 46.17084 
L 197.42855 44.585866 
L 198.910869 42.68191 
L 200.393189 42.25412 
L 201.875508 43.407502 
L 203.357828 46.32525 
L 204.840147 43.06598 
L 206.322466 44.525878 
L 207.804786 45.574448 
L 209.287105 47.149539 
L 210.769425 44.166031 
L 212.251744 43.491452 
L 213.734064 43.948465 
L 215.216383 43.702662 
L 218.181022 46.26165 
L 219.663341 48.900827 
L 221.145661 46.896585 
L 222.62798 46.241325 
L 225.592619 46.183753 
L 227.074938 47.004815 
L 228.557258 47.673909 
L 230.039577 49.825511 
L 233.004216 48.640209 
L 234.486536 48.269406 
L 235.968855 49.55425 
L 238.933494 48.588645 
L 240.415813 49.452197 
L 241.898133 50.545313 
L 243.380452 51.138587 
L 244.862772 51.487654 
L 246.345091 52.555003 
L 247.827411 48.780277 
L 249.30973 49.395154 
L 250.792049 52.155905 
L 252.274369 52.604856 
L 253.756688 51.846998 
L 255.239008 51.469347 
L 256.721327 49.713515 
L 258.203647 50.47265 
L 259.685966 50.73052 
L 261.168285 47.694945 
L 262.650605 48.339687 
L 264.132924 48.795221 
L 265.615244 46.727686 
L 267.097563 45.855527 
L 268.579883 47.182118 
L 271.544522 48.024872 
L 273.026841 44.506238 
L 274.50916 43.278419 
L 275.99148 40.668636 
L 277.473799 41.099259 
L 278.956119 42.479989 
L 280.438438 47.051168 
L 281.920758 50.019556 
L 283.403077 48.013356 
L 284.885396 47.050941 
L 286.367716 49.206477 
L 289.332355 49.99718 
L 290.814674 50.648077 
L 292.296994 52.569349 
L 293.779313 50.293173 
L 295.261632 52.754097 
L 296.743952 52.374603 
L 298.226271 51.669013 
L 299.708591 48.290418 
L 301.19091 48.735497 
L 302.67323 50.480847 
L 304.155549 50.916265 
L 305.637869 53.926532 
L 307.120188 55.231663 
L 308.602507 56.061437 
L 310.084827 54.567565 
L 311.567146 52.61615 
L 313.049466 53.931503 
L 314.531785 51.972145 
L 316.014105 51.520491 
L 317.496424 53.920262 
L 318.978743 51.271248 
L 320.461063 51.398351 
L 321.943382 50.994491 
L 323.425702 51.694017 
L 324.908021 51.835652 
L 326.390341 51.533996 
L 327.87266 50.604824 
L 329.354979 48.723369 
L 330.837299 47.63831 
L 332.319618 50.363174 
L 333.801938 50.958263 
L 335.284257 50.328682 
L 336.766577 51.585028 
L 338.248896 53.259881 
L 341.213535 53.307943 
L 342.695854 53.655003 
L 344.178174 50.93996 
L 345.660493 52.693854 
L 347.142813 51.872063 
L 348.625132 52.890093 
L 350.107452 52.048228 
L 351.589771 49.640833 
L 353.07209 49.604035 
L 356.036729 46.577215 
L 357.519049 47.22101 
L 359.001368 45.167307 
L 360.483688 44.84225 
L 361.966007 46.613151 
L 363.448326 49.234899 
L 364.930646 49.589767 
L 366.412965 46.23926 
L 367.895285 46.39154 
L 369.377604 45.504793 
L 370.859924 47.848351 
L 372.342243 47.664331 
L 373.824563 45.843173 
L 375.306882 45.817633 
L 376.789201 46.016374 
L 378.271521 45.63039 
L 379.75384 44.169262 
L 381.23616 44.256461 
L 382.718479 43.946468 
L 384.200799 46.098608 
L 385.683118 46.544605 
L 387.165437 47.7198 
L 388.647757 50.535832 
L 390.130076 50.606128 
L 391.612396 49.825212 
L 393.094715 50.481294 
L 394.577035 52.045016 
L 396.059354 50.961947 
L 397.541674 50.798954 
L 399.023993 50.378511 
L 400.506312 48.235136 
L 401.988632 47.439313 
L 403.470951 47.715813 
L 404.953271 49.414791 
L 406.43559 48.268007 
L 407.91791 47.732438 
L 409.400229 48.576485 
L 410.882548 51.277692 
L 412.364868 52.630606 
L 413.847187 51.398321 
L 415.329507 50.979402 
L 416.811826 50.691801 
L 418.294146 52.120471 
L 419.776465 52.986016 
L 421.258784 55.516393 
L 422.741104 56.13281 
L 424.223423 55.278781 
L 425.705743 56.89627 
L 427.188062 56.077769 
L 428.670382 53.124957 
L 431.635021 48.845688 
L 433.11734 49.412947 
L 434.599659 47.780548 
L 436.081979 47.375673 
L 437.564298 46.021344 
L 439.046618 47.287659 
L 440.528937 46.218369 
L 442.011257 48.348923 
L 443.493576 49.092409 
L 444.975895 49.186915 
L 446.458215 50.742205 
L 447.940534 49.391519 
L 449.422854 48.236299 
L 450.905173 48.902942 
L 452.387493 47.096987 
L 453.869812 49.256214 
L 455.352131 49.203691 
L 456.834451 48.438302 
L 458.31677 50.612043 
L 459.79909 49.721385 
L 461.281409 49.094417 
L 462.763729 49.91988 
L 464.246048 50.068637 
L 467.210687 52.032692 
L 468.693006 52.525021 
L 470.175326 52.695363 
L 471.657645 51.276971 
L 473.139965 51.678779 
L 474.622284 51.865253 
L 476.104604 52.246036 
L 477.586923 51.504899 
L 479.069242 52.470282 
L 480.551562 54.72562 
L 482.033881 56.704643 
L 483.516201 56.224097 
L 486.48084 57.541178 
L 487.963159 56.034213 
L 489.445478 54.281767 
L 490.927798 52.748231 
L 492.410117 52.644813 
L 493.892437 49.440033 
L 495.374756 50.072082 
L 496.857076 48.134647 
L 498.339395 48.501126 
L 499.821715 49.10077 
L 501.304034 47.984408 
L 502.786353 47.865281 
L 504.268673 47.970043 
L 505.750992 49.241789 
L 507.233312 48.743208 
L 508.715631 49.357687 
L 510.197951 50.395539 
L 513.162589 51.249703 
L 514.644909 51.474165 
L 516.127228 50.673362 
L 517.609548 50.459673 
L 519.091867 51.145103 
L 520.574187 50.677364 
L 522.056506 49.802548 
L 523.538825 53.748918 
L 525.021145 53.20648 
L 526.503464 51.082492 
L 527.985784 50.491416 
L 529.468103 50.301258 
L 530.950423 49.316254 
L 532.432742 47.750207 
L 533.915062 50.325344 
L 535.397381 48.60255 
L 536.8797 46.10423 
L 538.36202 47.94235 
L 539.844339 49.339821 
L 541.326659 46.699316 
L 542.808978 45.765662 
L 544.291298 47.545598 
L 545.773617 47.243161 
L 547.255936 47.761926 
L 548.738256 49.675195 
L 550.220575 49.786392 
L 551.702895 50.914793 
L 553.185214 52.796169 
L 554.667534 55.180779 
L 556.149853 55.182912 
L 557.632172 53.94238 
L 559.114492 53.354405 
L 560.596811 52.323602 
L 562.079131 49.387729 
L 563.56145 50.306885 
L 565.04377 49.575129 
L 566.526089 49.093233 
L 568.008409 48.999394 
L 569.490728 47.113129 
L 570.973047 49.429357 
L 572.455367 48.85825 
L 573.937686 47.5135 
L 575.420006 45.563437 
L 576.902325 43.365551 
L 578.384645 45.708688 
L 579.866964 47.158121 
L 581.349283 47.687098 
L 582.831603 48.009005 
L 584.313922 46.964976 
L 585.796242 47.462456 
L 587.278561 48.42145 
L 588.760881 48.188548 
L 590.2432 47.450958 
L 591.725519 47.988002 
L 593.207839 50.286645 
L 594.690158 49.252828 
L 596.172478 47.76313 
L 599.137117 49.8641 
L 600.619436 49.416001 
L 602.101756 50.731524 
L 603.584075 53.817486 
L 605.066394 54.064438 
L 606.548714 52.788542 
L 608.031033 54.788883 
L 609.513353 53.922161 
L 610.995672 52.455215 
L 612.477992 51.940288 
L 613.960311 51.84129 
L 615.44263 52.448112 
L 616.92495 53.914496 
L 618.407269 53.307988 
L 619.889589 51.702591 
L 621.371908 53.371401 
L 622.854228 53.909868 
L 624.336547 55.472915 
L 625.818866 55.105578 
L 627.301186 55.739673 
L 628.783505 54.959552 
L 630.265825 56.35368 
L 631.748144 56.204368 
L 633.230464 56.747216 
L 634.712783 56.942355 
L 636.195103 56.09126 
L 637.677422 56.543069 
L 639.159741 56.243073 
L 640.642061 57.011787 
L 642.12438 54.50992 
L 643.6067 54.422906 
L 645.089019 53.482056 
L 646.571339 53.805232 
L 649.535977 56.404664 
L 651.018297 56.037954 
L 652.500616 57.271976 
L 653.982936 55.929766 
L 655.465255 55.467808 
L 656.947575 56.715031 
L 658.429894 55.42613 
L 659.912213 56.585721 
L 661.394533 55.717618 
L 662.876852 56.261171 
L 664.359172 55.165856 
L 665.841491 57.309931 
L 667.323811 57.348048 
L 668.80613 58.629463 
L 670.28845 57.263893 
L 673.253088 56.667704 
L 674.735408 57.473252 
L 676.217727 57.25877 
L 676.217727 57.25877 
" clip-path="url(#pfbc487984d)" style="fill: none; stroke: #9467bd; stroke-width: 1.5; stroke-linecap: square"/>
   </g>
   <g id="patch_3">
    <path d="M 55.2 383.885 
L 55.2 24.325 
" style="fill: none; stroke: #000000; stroke-width: 0.8; stroke-linejoin: miter; stroke-linecap: square"/>
   </g>
   <g id="patch_4">
    <path d="M 705.79 383.885 
L 705.79 24.325 
" style="fill: none; stroke: #000000; stroke-width: 0.8; stroke-linejoin: miter; stroke-linecap: square"/>
   </g>
   <g id="patch_5">
    <path d="M 55.2 383.885 
L 705.79 383.885 
" style="fill: none; stroke: #000000; stroke-width: 0.8; stroke-linejoin: miter; stroke-linecap: square"/>
   </g>
   <g id="patch_6">
    <path d="M 55.2 24.325 
L 705.79 24.325 
" style="fill: none; stroke: #000000; stroke-width: 0.8; stroke-linejoin: miter; stroke-linecap: square"/>
   </g>
   <g id="text_18">
    <!-- Reward Comparison -->
    <g transform="translate(312.495 18.325) scale(0.16 -0.16)">
     <defs>
      <path id="SimHei-43" d="M 2975 1825 
Q 2950 875 2575 475 
Q 2200 75 1675 75 
Q 1075 75 650 562 
Q 225 1050 225 2125 
Q 225 3300 637 3875 
Q 1050 4450 1700 4450 
Q 2250 4450 2612 4037 
Q 2975 3625 2950 2875 
L 2400 2875 
Q 2400 3425 2225 3700 
Q 2050 3975 1700 3975 
Q 1300 3975 1062 3562 
Q 825 3150 825 2175 
Q 825 1275 1062 912 
Q 1300 550 1675 550 
Q 1950 550 2175 812 
Q 2400 1075 2400 1825 
L 2975 1825 
z
" transform="scale(0.015625)"/>
      <path id="SimHei-6d" d="M 3050 125 
L 2550 125 
L 2550 2150 
Q 2550 2300 2500 2400 
Q 2450 2500 2300 2500 
Q 2125 2500 1975 2312 
Q 1825 2125 1825 1825 
L 1825 125 
L 1325 125 
L 1325 2150 
Q 1325 2300 1275 2400 
Q 1225 2500 1075 2500 
Q 900 2500 750 2312 
Q 600 2125 600 1825 
L 600 125 
L 100 125 
L 100 2925 
L 600 2925 
L 600 2550 
Q 725 2750 900 2862 
Q 1075 2975 1275 2975 
Q 1475 2975 1612 2862 
Q 1750 2750 1800 2550 
Q 1925 2750 2087 2862 
Q 2250 2975 2450 2975 
Q 2750 2975 2900 2812 
Q 3050 2650 3050 2350 
L 3050 125 
z
" transform="scale(0.015625)"/>
      <path id="SimHei-6e" d="M 2800 125 
L 2300 125 
L 2300 1925 
Q 2300 2225 2150 2400 
Q 2000 2575 1750 2575 
Q 1425 2575 1137 2237 
Q 850 1900 850 1400 
L 850 125 
L 350 125 
L 350 2925 
L 850 2925 
L 850 2400 
Q 1050 2675 1287 2825 
Q 1525 2975 1900 2975 
Q 2350 2975 2575 2725 
Q 2800 2475 2800 2100 
L 2800 125 
z
" transform="scale(0.015625)"/>
     </defs>
     <use xlink:href="#SimHei-52"/>
     <use xlink:href="#SimHei-65" transform="translate(50 0)"/>
     <use xlink:href="#SimHei-77" transform="translate(100 0)"/>
     <use xlink:href="#SimHei-61" transform="translate(150 0)"/>
     <use xlink:href="#SimHei-72" transform="translate(200 0)"/>
     <use xlink:href="#SimHei-64" transform="translate(250 0)"/>
     <use xlink:href="#SimHei-20" transform="translate(300 0)"/>
     <use xlink:href="#SimHei-43" transform="translate(350 0)"/>
     <use xlink:href="#SimHei-6f" transform="translate(400 0)"/>
     <use xlink:href="#SimHei-6d" transform="translate(450 0)"/>
     <use xlink:href="#SimHei-70" transform="translate(500 0)"/>
     <use xlink:href="#SimHei-61" transform="translate(550 0)"/>
     <use xlink:href="#SimHei-72" transform="translate(600 0)"/>
     <use xlink:href="#SimHei-69" transform="translate(650 0)"/>
     <use xlink:href="#SimHei-73" transform="translate(700 0)"/>
     <use xlink:href="#SimHei-6f" transform="translate(750 0)"/>
     <use xlink:href="#SimHei-6e" transform="translate(800 0)"/>
    </g>
   </g>
   <g id="legend_1">
    <g id="patch_7">
     <path d="M 580.99 377.885 
L 697.39 377.885 
Q 699.79 377.885 699.79 375.485 
L 699.79 313.085 
Q 699.79 310.685 697.39 310.685 
L 580.99 310.685 
Q 578.59 310.685 578.59 313.085 
L 578.59 375.485 
Q 578.59 377.885 580.99 377.885 
z
" style="fill: #ffffff; opacity: 0.8; stroke: #cccccc; stroke-linejoin: miter"/>
    </g>
    <g id="line2d_35">
     <path d="M 583.39 319.685 
L 595.39 319.685 
L 607.39 319.685 
" style="fill: none; stroke: #1f77b4; stroke-width: 1.5; stroke-linecap: square"/>
    </g>
    <g id="text_19">
     <!-- GCN-DDQN -->
     <g transform="translate(616.99 323.885) scale(0.12 -0.12)">
      <defs>
       <path id="SimHei-47" d="M 2850 75 
L 2425 75 
L 2350 425 
Q 2250 275 2037 175 
Q 1825 75 1575 75 
Q 1050 75 637 562 
Q 225 1050 225 2125 
Q 225 3300 600 3875 
Q 975 4450 1625 4450 
Q 2200 4450 2525 4025 
Q 2850 3600 2850 2925 
L 2300 2925 
Q 2300 3450 2125 3712 
Q 1950 3975 1625 3975 
Q 1225 3975 1025 3562 
Q 825 3150 825 2175 
Q 825 1250 1075 900 
Q 1325 550 1650 550 
Q 1975 550 2162 787 
Q 2350 1025 2350 1525 
L 2350 1800 
L 1575 1800 
L 1575 2275 
L 2850 2275 
L 2850 75 
z
" transform="scale(0.015625)"/>
       <path id="SimHei-4e" d="M 2850 125 
L 2225 125 
L 850 3225 
L 825 3225 
L 825 125 
L 250 125 
L 250 4400 
L 875 4400 
L 2250 1300 
L 2275 1300 
L 2275 4400 
L 2850 4400 
L 2850 125 
z
" transform="scale(0.015625)"/>
       <path id="SimHei-2d" d="M 2975 2125 
L 125 2125 
L 125 2525 
L 2975 2525 
L 2975 2125 
z
" transform="scale(0.015625)"/>
       <path id="SimHei-44" d="M 2925 2250 
Q 2925 1100 2437 612 
Q 1950 125 1125 125 
L 275 125 
L 275 4400 
L 1125 4400 
Q 2050 4400 2487 3900 
Q 2925 3400 2925 2250 
z
M 2325 2250 
Q 2325 3175 2025 3550 
Q 1725 3925 1125 3925 
L 850 3925 
L 850 600 
L 1125 600 
Q 1725 600 2025 962 
Q 2325 1325 2325 2250 
z
" transform="scale(0.015625)"/>
       <path id="SimHei-51" d="M 2950 2275 
Q 2950 1675 2862 1262 
Q 2775 850 2575 600 
L 2775 225 
L 2375 -200 
L 2150 225 
Q 2050 150 1900 112 
Q 1750 75 1575 75 
Q 925 75 550 587 
Q 175 1100 175 2275 
Q 175 3450 550 3950 
Q 925 4450 1575 4450 
Q 2225 4450 2587 3950 
Q 2950 3450 2950 2275 
z
M 2350 2275 
Q 2350 3325 2125 3650 
Q 1900 3975 1575 3975 
Q 1250 3975 1012 3650 
Q 775 3325 775 2275 
Q 775 1225 1012 887 
Q 1250 550 1575 550 
Q 1700 550 1800 587 
Q 1900 625 1950 675 
L 1550 1450 
L 1900 1875 
L 2250 1200 
Q 2300 1450 2325 1650 
Q 2350 1850 2350 2275 
z
" transform="scale(0.015625)"/>
      </defs>
      <use xlink:href="#SimHei-47"/>
      <use xlink:href="#SimHei-43" transform="translate(50 0)"/>
      <use xlink:href="#SimHei-4e" transform="translate(100 0)"/>
      <use xlink:href="#SimHei-2d" transform="translate(150 0)"/>
      <use xlink:href="#SimHei-44" transform="translate(200 0)"/>
      <use xlink:href="#SimHei-44" transform="translate(250 0)"/>
      <use xlink:href="#SimHei-51" transform="translate(300 0)"/>
      <use xlink:href="#SimHei-4e" transform="translate(350 0)"/>
     </g>
    </g>
    <g id="line2d_36">
     <path d="M 583.39 335.585 
L 595.39 335.585 
L 607.39 335.585 
" style="fill: none; stroke: #ff7f0e; stroke-width: 1.5; stroke-linecap: square"/>
    </g>
    <g id="text_20">
     <!-- GCN-D3QN -->
     <g transform="translate(616.99 339.785) scale(0.12 -0.12)">
      <use xlink:href="#SimHei-47"/>
      <use xlink:href="#SimHei-43" transform="translate(50 0)"/>
      <use xlink:href="#SimHei-4e" transform="translate(100 0)"/>
      <use xlink:href="#SimHei-2d" transform="translate(150 0)"/>
      <use xlink:href="#SimHei-44" transform="translate(200 0)"/>
      <use xlink:href="#SimHei-33" transform="translate(250 0)"/>
      <use xlink:href="#SimHei-51" transform="translate(300 0)"/>
      <use xlink:href="#SimHei-4e" transform="translate(350 0)"/>
     </g>
    </g>
    <g id="line2d_37">
     <path d="M 583.39 351.485 
L 595.39 351.485 
L 607.39 351.485 
" style="fill: none; stroke: #2ca02c; stroke-width: 1.5; stroke-linecap: square"/>
    </g>
    <g id="text_21">
     <!-- GAT-LSTM-DDQN -->
     <g transform="translate(616.99 355.685) scale(0.12 -0.12)">
      <defs>
       <path id="SimHei-41" d="M 3075 125 
L 2475 125 
L 2125 1450 
L 1025 1450 
L 675 125 
L 75 125 
L 1325 4450 
L 1825 4450 
L 3075 125 
z
M 2000 1925 
L 1600 3450 
L 1550 3450 
L 1150 1925 
L 2000 1925 
z
" transform="scale(0.015625)"/>
       <path id="SimHei-4c" d="M 2900 125 
L 300 125 
L 300 4400 
L 875 4400 
L 875 600 
L 2900 600 
L 2900 125 
z
" transform="scale(0.015625)"/>
       <path id="SimHei-53" d="M 2900 1325 
Q 2900 750 2537 412 
Q 2175 75 1550 75 
Q 925 75 575 425 
Q 225 775 225 1300 
L 225 1475 
L 800 1475 
L 800 1325 
Q 800 950 1025 750 
Q 1250 550 1550 550 
Q 1950 550 2137 762 
Q 2325 975 2325 1275 
Q 2325 1525 2100 1737 
Q 1875 1950 1450 2125 
Q 850 2350 587 2625 
Q 325 2900 325 3275 
Q 325 3800 687 4125 
Q 1050 4450 1550 4450 
Q 2200 4450 2487 4062 
Q 2775 3675 2775 3225 
L 2200 3225 
Q 2225 3500 2050 3725 
Q 1875 3950 1550 3950 
Q 1250 3950 1075 3787 
Q 900 3625 900 3350 
Q 900 3125 1037 2962 
Q 1175 2800 1750 2575 
Q 2300 2350 2600 2037 
Q 2900 1725 2900 1325 
z
" transform="scale(0.015625)"/>
       <path id="SimHei-4d" d="M 2925 125 
L 2425 125 
L 2425 3175 
L 2375 3175 
L 1775 125 
L 1375 125 
L 775 3175 
L 725 3175 
L 725 125 
L 225 125 
L 225 4400 
L 1000 4400 
L 1550 1575 
L 1600 1575 
L 2150 4400 
L 2925 4400 
L 2925 125 
z
" transform="scale(0.015625)"/>
      </defs>
      <use xlink:href="#SimHei-47"/>
      <use xlink:href="#SimHei-41" transform="translate(50 0)"/>
      <use xlink:href="#SimHei-54" transform="translate(100 0)"/>
      <use xlink:href="#SimHei-2d" transform="translate(150 0)"/>
      <use xlink:href="#SimHei-4c" transform="translate(200 0)"/>
      <use xlink:href="#SimHei-53" transform="translate(250 0)"/>
      <use xlink:href="#SimHei-54" transform="translate(300 0)"/>
      <use xlink:href="#SimHei-4d" transform="translate(350 0)"/>
      <use xlink:href="#SimHei-2d" transform="translate(400 0)"/>
      <use xlink:href="#SimHei-44" transform="translate(450 0)"/>
      <use xlink:href="#SimHei-44" transform="translate(500 0)"/>
      <use xlink:href="#SimHei-51" transform="translate(550 0)"/>
      <use xlink:href="#SimHei-4e" transform="translate(600 0)"/>
     </g>
    </g>
    <g id="line2d_38">
     <path d="M 583.39 367.385 
L 595.39 367.385 
L 607.39 367.385 
" style="fill: none; stroke: #9467bd; stroke-width: 1.5; stroke-linecap: square"/>
    </g>
    <g id="text_22">
     <!-- GLDVTO -->
     <g transform="translate(616.99 371.585) scale(0.12 -0.12)">
      <defs>
       <path id="SimHei-56" d="M 3050 4400 
L 1800 75 
L 1300 75 
L 50 4400 
L 650 4400 
L 1525 1125 
L 1575 1125 
L 2450 4400 
L 3050 4400 
z
" transform="scale(0.015625)"/>
       <path id="SimHei-4f" d="M 2950 2275 
Q 2950 1100 2587 587 
Q 2225 75 1575 75 
Q 925 75 550 587 
Q 175 1100 175 2275 
Q 175 3450 550 3950 
Q 925 4450 1575 4450 
Q 2225 4450 2587 3950 
Q 2950 3450 2950 2275 
z
M 2350 2275 
Q 2350 3325 2125 3650 
Q 1900 3975 1575 3975 
Q 1250 3975 1012 3650 
Q 775 3325 775 2275 
Q 775 1225 1012 887 
Q 1250 550 1575 550 
Q 1900 550 2125 887 
Q 2350 1225 2350 2275 
z
" transform="scale(0.015625)"/>
      </defs>
      <use xlink:href="#SimHei-47"/>
      <use xlink:href="#SimHei-4c" transform="translate(50 0)"/>
      <use xlink:href="#SimHei-44" transform="translate(100 0)"/>
      <use xlink:href="#SimHei-56" transform="translate(150 0)"/>
      <use xlink:href="#SimHei-54" transform="translate(200 0)"/>
      <use xlink:href="#SimHei-4f" transform="translate(250 0)"/>
     </g>
    </g>
   </g>
  </g>
 </g>
 <defs>
  <clipPath id="pfbc487984d">
   <rect x="55.2" y="24.325" width="650.59" height="359.56"/>
  </clipPath>
 </defs>
</svg>
