<?xml version="1.0" encoding="utf-8" standalone="no"?>
<!DOCTYPE svg PUBLIC "-//W3C//DTD SVG 1.1//EN"
  "http://www.w3.org/Graphics/SVG/1.1/DTD/svg11.dtd">
<svg xmlns:xlink="http://www.w3.org/1999/xlink" width="621.9pt" height="397.915pt" viewBox="0 0 621.9 397.915" xmlns="http://www.w3.org/2000/svg" version="1.1">
 <metadata>
  <rdf:RDF xmlns:dc="http://purl.org/dc/elements/1.1/" xmlns:cc="http://creativecommons.org/ns#" xmlns:rdf="http://www.w3.org/1999/02/22-rdf-syntax-ns#">
   <cc:Work>
    <dc:type rdf:resource="http://purl.org/dc/dcmitype/StillImage"/>
    <dc:date>2026-06-25T20:16:43.147688</dc:date>
    <dc:format>image/svg+xml</dc:format>
    <dc:creator>
     <cc:Agent>
      <dc:title>Matplotlib v3.10.7, https://matplotlib.org/</dc:title>
     </cc:Agent>
    </dc:creator>
   </cc:Work>
  </rdf:RDF>
 </metadata>
 <defs>
  <style type="text/css">*{stroke-linejoin: round; stroke-linecap: butt}</style>
 </defs>
 <g id="figure_1">
  <g id="patch_1">
   <path d="M 0 397.915 
L 621.9 397.915 
L 621.9 -0 
L 0 -0 
z
" style="fill: #ffffff"/>
  </g>
  <g id="axes_1">
   <g id="patch_2">
    <path d="M 56.7 356.965 
L 614.7 356.965 
L 614.7 24.325 
L 56.7 24.325 
z
" style="fill: #ffffff"/>
   </g>
   <g id="matplotlib.axis_1">
    <g id="xtick_1">
     <g id="line2d_1">
      <path d="M 82.063636 356.965 
L 82.063636 24.325 
" clip-path="url(#pcbda75b104)" style="fill: none; stroke: #b0b0b0; stroke-opacity: 0.3; stroke-width: 0.8; stroke-linecap: square"/>
     </g>
     <g id="line2d_2">
      <defs>
       <path id="m653716ba87" d="M 0 0 
L 0 3.5 
" style="stroke: #000000; stroke-width: 0.8"/>
      </defs>
      <g>
       <use xlink:href="#m653716ba87" x="82.063636" y="356.965" style="stroke: #000000; stroke-width: 0.8"/>
      </g>
     </g>
     <g id="text_1">
      <!-- 0 -->
      <g transform="translate(79.063636 372.215) scale(0.12 -0.12)">
       <defs>
        <path id="SimHei-30" d="M 225 2537 
Q 250 3200 412 3587 
Q 575 3975 875 4225 
Q 1175 4475 1612 4475 
Q 2050 4475 2375 4112 
Q 2700 3750 2800 3200 
Q 2900 2650 2862 1937 
Q 2825 1225 2612 775 
Q 2400 325 1975 150 
Q 1550 -25 1125 187 
Q 700 400 525 750 
Q 350 1100 275 1487 
Q 200 1875 225 2537 
z
M 750 2687 
Q 675 2000 800 1462 
Q 925 925 1212 700 
Q 1500 475 1800 612 
Q 2100 750 2237 1162 
Q 2375 1575 2375 2062 
Q 2375 2550 2337 2950 
Q 2300 3350 2112 3675 
Q 1925 4000 1612 4012 
Q 1300 4025 1062 3700 
Q 825 3375 750 2687 
z
" transform="scale(0.015625)"/>
       </defs>
       <use xlink:href="#SimHei-30"/>
      </g>
     </g>
    </g>
    <g id="xtick_2">
     <g id="line2d_3">
      <path d="M 145.631647 356.965 
L 145.631647 24.325 
" clip-path="url(#pcbda75b104)" style="fill: none; stroke: #b0b0b0; stroke-opacity: 0.3; stroke-width: 0.8; stroke-linecap: square"/>
     </g>
     <g id="line2d_4">
      <g>
       <use xlink:href="#m653716ba87" x="145.631647" y="356.965" style="stroke: #000000; stroke-width: 0.8"/>
      </g>
     </g>
     <g id="text_2">
      <!-- 50 -->
      <g transform="translate(139.631647 372.215) scale(0.12 -0.12)">
       <defs>
        <path id="SimHei-35" d="M 550 1325 
Q 725 650 1150 575 
Q 1575 500 1837 662 
Q 2100 825 2212 1087 
Q 2325 1350 2312 1675 
Q 2300 2000 2137 2225 
Q 1975 2450 1725 2525 
Q 1475 2600 1162 2525 
Q 850 2450 650 2175 
L 225 2225 
Q 275 2375 700 4375 
L 2675 4375 
L 2675 3925 
L 1075 3925 
Q 950 3250 825 2850 
Q 1200 3025 1525 3012 
Q 1850 3000 2150 2862 
Q 2450 2725 2587 2487 
Q 2725 2250 2787 2012 
Q 2850 1775 2837 1500 
Q 2825 1225 2725 937 
Q 2625 650 2425 462 
Q 2225 275 1937 162 
Q 1650 50 1275 75 
Q 900 100 562 350 
Q 225 600 100 1200 
L 550 1325 
z
" transform="scale(0.015625)"/>
       </defs>
       <use xlink:href="#SimHei-35"/>
       <use xlink:href="#SimHei-30" transform="translate(50 0)"/>
      </g>
     </g>
    </g>
    <g id="xtick_3">
     <g id="line2d_5">
      <path d="M 209.199658 356.965 
L 209.199658 24.325 
" clip-path="url(#pcbda75b104)" style="fill: none; stroke: #b0b0b0; stroke-opacity: 0.3; stroke-width: 0.8; stroke-linecap: square"/>
     </g>
     <g id="line2d_6">
      <g>
       <use xlink:href="#m653716ba87" x="209.199658" y="356.965" style="stroke: #000000; stroke-width: 0.8"/>
      </g>
     </g>
     <g id="text_3">
      <!-- 100 -->
      <g transform="translate(200.199658 372.215) scale(0.12 -0.12)">
       <defs>
        <path id="SimHei-31" d="M 1400 3600 
Q 1075 3275 575 2975 
L 575 3450 
Q 1200 3875 1600 4450 
L 1900 4450 
L 1900 150 
L 1400 150 
L 1400 3600 
z
" transform="scale(0.015625)"/>
       </defs>
       <use xlink:href="#SimHei-31"/>
       <use xlink:href="#SimHei-30" transform="translate(50 0)"/>
       <use xlink:href="#SimHei-30" transform="translate(100 0)"/>
      </g>
     </g>
    </g>
    <g id="xtick_4">
     <g id="line2d_7">
      <path d="M 272.767669 356.965 
L 272.767669 24.325 
" clip-path="url(#pcbda75b104)" style="fill: none; stroke: #b0b0b0; stroke-opacity: 0.3; stroke-width: 0.8; stroke-linecap: square"/>
     </g>
     <g id="line2d_8">
      <g>
       <use xlink:href="#m653716ba87" x="272.767669" y="356.965" style="stroke: #000000; stroke-width: 0.8"/>
      </g>
     </g>
     <g id="text_4">
      <!-- 150 -->
      <g transform="translate(263.767669 372.215) scale(0.12 -0.12)">
       <use xlink:href="#SimHei-31"/>
       <use xlink:href="#SimHei-35" transform="translate(50 0)"/>
       <use xlink:href="#SimHei-30" transform="translate(100 0)"/>
      </g>
     </g>
    </g>
    <g id="xtick_5">
     <g id="line2d_9">
      <path d="M 336.33568 356.965 
L 336.33568 24.325 
" clip-path="url(#pcbda75b104)" style="fill: none; stroke: #b0b0b0; stroke-opacity: 0.3; stroke-width: 0.8; stroke-linecap: square"/>
     </g>
     <g id="line2d_10">
      <g>
       <use xlink:href="#m653716ba87" x="336.33568" y="356.965" style="stroke: #000000; stroke-width: 0.8"/>
      </g>
     </g>
     <g id="text_5">
      <!-- 200 -->
      <g transform="translate(327.33568 372.215) scale(0.12 -0.12)">
       <defs>
        <path id="SimHei-32" d="M 300 250 
Q 325 625 650 925 
Q 975 1225 1475 1862 
Q 1975 2500 2125 2850 
Q 2275 3200 2237 3450 
Q 2200 3700 2000 3862 
Q 1800 4025 1537 4000 
Q 1275 3975 1037 3800 
Q 800 3625 675 3275 
L 200 3350 
Q 400 3925 712 4187 
Q 1025 4450 1450 4475 
Q 1700 4500 1900 4462 
Q 2100 4425 2312 4287 
Q 2525 4150 2662 3875 
Q 2800 3600 2762 3212 
Q 2725 2825 2375 2287 
Q 2025 1750 1025 600 
L 2825 600 
L 2825 150 
L 300 150 
L 300 250 
z
" transform="scale(0.015625)"/>
       </defs>
       <use xlink:href="#SimHei-32"/>
       <use xlink:href="#SimHei-30" transform="translate(50 0)"/>
       <use xlink:href="#SimHei-30" transform="translate(100 0)"/>
      </g>
     </g>
    </g>
    <g id="xtick_6">
     <g id="line2d_11">
      <path d="M 399.903691 356.965 
L 399.903691 24.325 
" clip-path="url(#pcbda75b104)" style="fill: none; stroke: #b0b0b0; stroke-opacity: 0.3; stroke-width: 0.8; stroke-linecap: square"/>
     </g>
     <g id="line2d_12">
      <g>
       <use xlink:href="#m653716ba87" x="399.903691" y="356.965" style="stroke: #000000; stroke-width: 0.8"/>
      </g>
     </g>
     <g id="text_6">
      <!-- 250 -->
      <g transform="translate(390.903691 372.215) scale(0.12 -0.12)">
       <use xlink:href="#SimHei-32"/>
       <use xlink:href="#SimHei-35" transform="translate(50 0)"/>
       <use xlink:href="#SimHei-30" transform="translate(100 0)"/>
      </g>
     </g>
    </g>
    <g id="xtick_7">
     <g id="line2d_13">
      <path d="M 463.471702 356.965 
L 463.471702 24.325 
" clip-path="url(#pcbda75b104)" style="fill: none; stroke: #b0b0b0; stroke-opacity: 0.3; stroke-width: 0.8; stroke-linecap: square"/>
     </g>
     <g id="line2d_14">
      <g>
       <use xlink:href="#m653716ba87" x="463.471702" y="356.965" style="stroke: #000000; stroke-width: 0.8"/>
      </g>
     </g>
     <g id="text_7">
      <!-- 300 -->
      <g transform="translate(454.471702 372.215) scale(0.12 -0.12)">
       <defs>
        <path id="SimHei-33" d="M 250 1225 
L 700 1300 
Q 800 975 1025 762 
Q 1250 550 1587 562 
Q 1925 575 2125 837 
Q 2325 1100 2300 1437 
Q 2275 1775 2037 1962 
Q 1800 2150 1275 2225 
L 1275 2550 
Q 1800 2600 2037 2825 
Q 2275 3050 2250 3412 
Q 2225 3775 1925 3937 
Q 1625 4100 1287 3975 
Q 950 3850 750 3275 
L 300 3350 
Q 450 3800 712 4100 
Q 975 4400 1425 4450 
Q 1875 4500 2212 4337 
Q 2550 4175 2687 3837 
Q 2825 3500 2725 3100 
Q 2625 2700 2150 2400 
Q 2500 2250 2687 1950 
Q 2875 1650 2812 1162 
Q 2750 675 2375 375 
Q 2000 75 1525 87 
Q 1050 100 700 387 
Q 350 675 250 1225 
z
" transform="scale(0.015625)"/>
       </defs>
       <use xlink:href="#SimHei-33"/>
       <use xlink:href="#SimHei-30" transform="translate(50 0)"/>
       <use xlink:href="#SimHei-30" transform="translate(100 0)"/>
      </g>
     </g>
    </g>
    <g id="xtick_8">
     <g id="line2d_15">
      <path d="M 527.039713 356.965 
L 527.039713 24.325 
" clip-path="url(#pcbda75b104)" style="fill: none; stroke: #b0b0b0; stroke-opacity: 0.3; stroke-width: 0.8; stroke-linecap: square"/>
     </g>
     <g id="line2d_16">
      <g>
       <use xlink:href="#m653716ba87" x="527.039713" y="356.965" style="stroke: #000000; stroke-width: 0.8"/>
      </g>
     </g>
     <g id="text_8">
      <!-- 350 -->
      <g transform="translate(518.039713 372.215) scale(0.12 -0.12)">
       <use xlink:href="#SimHei-33"/>
       <use xlink:href="#SimHei-35" transform="translate(50 0)"/>
       <use xlink:href="#SimHei-30" transform="translate(100 0)"/>
      </g>
     </g>
    </g>
    <g id="xtick_9">
     <g id="line2d_17">
      <path d="M 590.607724 356.965 
L 590.607724 24.325 
" clip-path="url(#pcbda75b104)" style="fill: none; stroke: #b0b0b0; stroke-opacity: 0.3; stroke-width: 0.8; stroke-linecap: square"/>
     </g>
     <g id="line2d_18">
      <g>
       <use xlink:href="#m653716ba87" x="590.607724" y="356.965" style="stroke: #000000; stroke-width: 0.8"/>
      </g>
     </g>
     <g id="text_9">
      <!-- 400 -->
      <g transform="translate(581.607724 372.215) scale(0.12 -0.12)">
       <defs>
        <path id="SimHei-34" d="M 2000 1100 
L 75 1100 
L 75 1525 
L 2100 4450 
L 2475 4450 
L 2475 1525 
L 3075 1525 
L 3075 1100 
L 2475 1100 
L 2475 150 
L 2000 150 
L 2000 1100 
z
M 2000 1525 
L 2000 3500 
L 600 1525 
L 2000 1525 
z
" transform="scale(0.015625)"/>
       </defs>
       <use xlink:href="#SimHei-34"/>
       <use xlink:href="#SimHei-30" transform="translate(50 0)"/>
       <use xlink:href="#SimHei-30" transform="translate(100 0)"/>
      </g>
     </g>
    </g>
    <g id="text_10">
     <!-- Episode -->
     <g transform="translate(307.7 388.715) scale(0.16 -0.16)">
      <defs>
       <path id="SimHei-45" d="M 2900 125 
L 350 125 
L 350 4400 
L 2775 4400 
L 2775 3925 
L 925 3925 
L 925 2600 
L 2625 2600 
L 2625 2125 
L 925 2125 
L 925 600 
L 2900 600 
L 2900 125 
z
" transform="scale(0.015625)"/>
       <path id="SimHei-70" d="M 2825 1525 
Q 2825 800 2475 425 
Q 2125 50 1625 50 
Q 1350 50 1150 162 
Q 950 275 800 500 
L 800 -800 
L 300 -800 
L 300 2925 
L 800 2925 
L 800 2550 
Q 950 2775 1150 2875 
Q 1350 2975 1625 2975 
Q 2125 2975 2475 2612 
Q 2825 2250 2825 1525 
z
M 2275 1525 
Q 2275 2000 2087 2262 
Q 1900 2525 1525 2525 
Q 1225 2525 1012 2262 
Q 800 2000 800 1525 
Q 800 1050 1012 775 
Q 1225 500 1525 500 
Q 1900 500 2087 775 
Q 2275 1050 2275 1525 
z
" transform="scale(0.015625)"/>
       <path id="SimHei-69" d="M 1800 3725 
L 1300 3725 
L 1300 4375 
L 1800 4375 
L 1800 3725 
z
M 1800 125 
L 1300 125 
L 1300 2925 
L 1800 2925 
L 1800 125 
z
" transform="scale(0.015625)"/>
       <path id="SimHei-73" d="M 2750 900 
Q 2750 500 2437 287 
Q 2125 75 1650 75 
Q 1050 75 725 312 
Q 400 550 400 1000 
L 900 1000 
Q 900 700 1112 600 
Q 1325 500 1625 500 
Q 1925 500 2075 612 
Q 2225 725 2225 900 
Q 2225 1025 2100 1150 
Q 1975 1275 1475 1350 
Q 900 1425 687 1637 
Q 475 1850 475 2200 
Q 475 2500 762 2737 
Q 1050 2975 1600 2975 
Q 2100 2975 2387 2750 
Q 2675 2525 2675 2150 
L 2175 2150 
Q 2175 2375 2012 2462 
Q 1850 2550 1600 2550 
Q 1275 2550 1137 2437 
Q 1000 2325 1000 2175 
Q 1000 2000 1125 1900 
Q 1250 1800 1650 1750 
Q 2300 1650 2525 1437 
Q 2750 1225 2750 900 
z
" transform="scale(0.015625)"/>
       <path id="SimHei-6f" d="M 2925 1525 
Q 2925 875 2525 475 
Q 2125 75 1575 75 
Q 1025 75 625 475 
Q 225 875 225 1525 
Q 225 2175 625 2575 
Q 1025 2975 1575 2975 
Q 2125 2975 2525 2575 
Q 2925 2175 2925 1525 
z
M 2375 1525 
Q 2375 2025 2125 2275 
Q 1875 2525 1575 2525 
Q 1275 2525 1025 2275 
Q 775 2025 775 1525 
Q 775 1025 1025 775 
Q 1275 525 1575 525 
Q 1875 525 2125 775 
Q 2375 1025 2375 1525 
z
" transform="scale(0.015625)"/>
       <path id="SimHei-64" d="M 2750 125 
L 2250 125 
L 2250 500 
Q 2100 275 1900 175 
Q 1700 75 1425 75 
Q 925 75 575 437 
Q 225 800 225 1525 
Q 225 2250 575 2625 
Q 925 3000 1425 3000 
Q 1700 3000 1900 2887 
Q 2100 2775 2250 2550 
L 2250 4400 
L 2750 4400 
L 2750 125 
z
M 2250 1525 
Q 2250 2000 2037 2275 
Q 1825 2550 1525 2550 
Q 1150 2550 962 2275 
Q 775 2000 775 1525 
Q 775 1050 962 787 
Q 1150 525 1525 525 
Q 1825 525 2037 787 
Q 2250 1050 2250 1525 
z
" transform="scale(0.015625)"/>
       <path id="SimHei-65" d="M 2850 1075 
Q 2800 625 2450 350 
Q 2100 75 1625 75 
Q 1025 75 637 462 
Q 250 850 250 1525 
Q 250 2200 637 2587 
Q 1025 2975 1625 2975 
Q 2150 2975 2487 2637 
Q 2825 2300 2825 1525 
L 800 1525 
Q 800 975 1037 750 
Q 1275 525 1625 525 
Q 1900 525 2075 662 
Q 2250 800 2300 1075 
L 2850 1075 
z
M 2250 1925 
Q 2200 2275 2025 2412 
Q 1850 2550 1575 2550 
Q 1325 2550 1125 2412 
Q 925 2275 825 1925 
L 2250 1925 
z
" transform="scale(0.015625)"/>
      </defs>
      <use xlink:href="#SimHei-45"/>
      <use xlink:href="#SimHei-70" transform="translate(50 0)"/>
      <use xlink:href="#SimHei-69" transform="translate(100 0)"/>
      <use xlink:href="#SimHei-73" transform="translate(150 0)"/>
      <use xlink:href="#SimHei-6f" transform="translate(200 0)"/>
      <use xlink:href="#SimHei-64" transform="translate(250 0)"/>
      <use xlink:href="#SimHei-65" transform="translate(300 0)"/>
     </g>
    </g>
   </g>
   <g id="matplotlib.axis_2">
    <g id="ytick_1">
     <g id="line2d_19">
      <path d="M 56.7 338.61946 
L 614.7 338.61946 
" clip-path="url(#pcbda75b104)" style="fill: none; stroke: #b0b0b0; stroke-opacity: 0.3; stroke-width: 0.8; stroke-linecap: square"/>
     </g>
     <g id="line2d_20">
      <defs>
       <path id="m8a66126b5d" d="M 0 0 
L -3.5 0 
" style="stroke: #000000; stroke-width: 0.8"/>
      </defs>
      <g>
       <use xlink:href="#m8a66126b5d" x="56.7" y="338.61946" style="stroke: #000000; stroke-width: 0.8"/>
      </g>
     </g>
     <g id="text_11">
      <!-- 0.05 -->
      <g transform="translate(25.7 342.74446) scale(0.12 -0.12)">
       <defs>
        <path id="SimHei-2e" d="M 1075 125 
L 500 125 
L 500 675 
L 1075 675 
L 1075 125 
z
" transform="scale(0.015625)"/>
       </defs>
       <use xlink:href="#SimHei-30"/>
       <use xlink:href="#SimHei-2e" transform="translate(50 0)"/>
       <use xlink:href="#SimHei-30" transform="translate(100 0)"/>
       <use xlink:href="#SimHei-35" transform="translate(150 0)"/>
      </g>
     </g>
    </g>
    <g id="ytick_2">
     <g id="line2d_21">
      <path d="M 56.7 273.144444 
L 614.7 273.144444 
" clip-path="url(#pcbda75b104)" style="fill: none; stroke: #b0b0b0; stroke-opacity: 0.3; stroke-width: 0.8; stroke-linecap: square"/>
     </g>
     <g id="line2d_22">
      <g>
       <use xlink:href="#m8a66126b5d" x="56.7" y="273.144444" style="stroke: #000000; stroke-width: 0.8"/>
      </g>
     </g>
     <g id="text_12">
      <!-- 0.10 -->
      <g transform="translate(25.7 277.269444) scale(0.12 -0.12)">
       <use xlink:href="#SimHei-30"/>
       <use xlink:href="#SimHei-2e" transform="translate(50 0)"/>
       <use xlink:href="#SimHei-31" transform="translate(100 0)"/>
       <use xlink:href="#SimHei-30" transform="translate(150 0)"/>
      </g>
     </g>
    </g>
    <g id="ytick_3">
     <g id="line2d_23">
      <path d="M 56.7 207.669429 
L 614.7 207.669429 
" clip-path="url(#pcbda75b104)" style="fill: none; stroke: #b0b0b0; stroke-opacity: 0.3; stroke-width: 0.8; stroke-linecap: square"/>
     </g>
     <g id="line2d_24">
      <g>
       <use xlink:href="#m8a66126b5d" x="56.7" y="207.669429" style="stroke: #000000; stroke-width: 0.8"/>
      </g>
     </g>
     <g id="text_13">
      <!-- 0.15 -->
      <g transform="translate(25.7 211.794429) scale(0.12 -0.12)">
       <use xlink:href="#SimHei-30"/>
       <use xlink:href="#SimHei-2e" transform="translate(50 0)"/>
       <use xlink:href="#SimHei-31" transform="translate(100 0)"/>
       <use xlink:href="#SimHei-35" transform="translate(150 0)"/>
      </g>
     </g>
    </g>
    <g id="ytick_4">
     <g id="line2d_25">
      <path d="M 56.7 142.194413 
L 614.7 142.194413 
" clip-path="url(#pcbda75b104)" style="fill: none; stroke: #b0b0b0; stroke-opacity: 0.3; stroke-width: 0.8; stroke-linecap: square"/>
     </g>
     <g id="line2d_26">
      <g>
       <use xlink:href="#m8a66126b5d" x="56.7" y="142.194413" style="stroke: #000000; stroke-width: 0.8"/>
      </g>
     </g>
     <g id="text_14">
      <!-- 0.20 -->
      <g transform="translate(25.7 146.319413) scale(0.12 -0.12)">
       <use xlink:href="#SimHei-30"/>
       <use xlink:href="#SimHei-2e" transform="translate(50 0)"/>
       <use xlink:href="#SimHei-32" transform="translate(100 0)"/>
       <use xlink:href="#SimHei-30" transform="translate(150 0)"/>
      </g>
     </g>
    </g>
    <g id="ytick_5">
     <g id="line2d_27">
      <path d="M 56.7 76.719398 
L 614.7 76.719398 
" clip-path="url(#pcbda75b104)" style="fill: none; stroke: #b0b0b0; stroke-opacity: 0.3; stroke-width: 0.8; stroke-linecap: square"/>
     </g>
     <g id="line2d_28">
      <g>
       <use xlink:href="#m8a66126b5d" x="56.7" y="76.719398" style="stroke: #000000; stroke-width: 0.8"/>
      </g>
     </g>
     <g id="text_15">
      <!-- 0.25 -->
      <g transform="translate(25.7 80.844398) scale(0.12 -0.12)">
       <use xlink:href="#SimHei-30"/>
       <use xlink:href="#SimHei-2e" transform="translate(50 0)"/>
       <use xlink:href="#SimHei-32" transform="translate(100 0)"/>
       <use xlink:href="#SimHei-35" transform="translate(150 0)"/>
      </g>
     </g>
    </g>
    <g id="text_16">
     <!-- Delay (s) -->
     <g transform="translate(19.7 226.645) rotate(-90) scale(0.16 -0.16)">
      <defs>
       <path id="SimHei-44" d="M 2925 2250 
Q 2925 1100 2437 612 
Q 1950 125 1125 125 
L 275 125 
L 275 4400 
L 1125 4400 
Q 2050 4400 2487 3900 
Q 2925 3400 2925 2250 
z
M 2325 2250 
Q 2325 3175 2025 3550 
Q 1725 3925 1125 3925 
L 850 3925 
L 850 600 
L 1125 600 
Q 1725 600 2025 962 
Q 2325 1325 2325 2250 
z
" transform="scale(0.015625)"/>
       <path id="SimHei-6c" d="M 1825 125 
L 1325 125 
L 1325 4400 
L 1825 4400 
L 1825 125 
z
" transform="scale(0.015625)"/>
       <path id="SimHei-61" d="M 2875 125 
L 2275 125 
Q 2225 175 2200 262 
Q 2175 350 2175 475 
Q 2000 275 1750 175 
Q 1500 75 1225 75 
Q 825 75 550 275 
Q 275 475 275 850 
Q 275 1225 525 1450 
Q 775 1675 1300 1750 
Q 1650 1800 1912 1875 
Q 2175 1950 2175 2075 
Q 2175 2225 2062 2375 
Q 1950 2525 1575 2525 
Q 1275 2525 1137 2412 
Q 1000 2300 950 2100 
L 400 2100 
Q 450 2500 762 2737 
Q 1075 2975 1575 2975 
Q 2125 2975 2400 2725 
Q 2675 2475 2675 2025 
L 2675 650 
Q 2675 500 2725 375 
Q 2775 250 2875 125 
z
M 2175 1050 
L 2175 1550 
Q 2025 1500 1887 1462 
Q 1750 1425 1425 1375 
Q 1050 1325 937 1200 
Q 825 1075 825 900 
Q 825 750 937 637 
Q 1050 525 1275 525 
Q 1500 525 1762 650 
Q 2025 775 2175 1050 
z
" transform="scale(0.015625)"/>
       <path id="SimHei-79" d="M 2900 2925 
L 1750 -100 
Q 1650 -450 1450 -625 
Q 1250 -800 950 -800 
Q 825 -800 712 -787 
Q 600 -775 500 -725 
L 500 -225 
Q 600 -275 700 -300 
Q 800 -325 875 -325 
Q 1075 -325 1150 -262 
Q 1225 -200 1300 25 
L 200 2925 
L 750 2925 
L 1550 725 
L 1575 725 
L 2350 2925 
L 2900 2925 
z
" transform="scale(0.015625)"/>
       <path id="SimHei-20" transform="scale(0.015625)"/>
       <path id="SimHei-28" d="M 2975 -200 
L 2700 -475 
Q 2075 125 1762 775 
Q 1450 1425 1450 2250 
Q 1450 3075 1762 3725 
Q 2075 4375 2700 5000 
L 2975 4725 
Q 2400 4175 2112 3587 
Q 1825 3000 1825 2250 
Q 1825 1500 2112 912 
Q 2400 325 2975 -200 
z
" transform="scale(0.015625)"/>
       <path id="SimHei-29" d="M 1675 2250 
Q 1675 1425 1362 775 
Q 1050 125 425 -475 
L 150 -200 
Q 725 325 1012 912 
Q 1300 1500 1300 2250 
Q 1300 3000 1012 3587 
Q 725 4175 150 4725 
L 425 5000 
Q 1050 4375 1362 3725 
Q 1675 3075 1675 2250 
z
" transform="scale(0.015625)"/>
      </defs>
      <use xlink:href="#SimHei-44"/>
      <use xlink:href="#SimHei-65" transform="translate(50 0)"/>
      <use xlink:href="#SimHei-6c" transform="translate(100 0)"/>
      <use xlink:href="#SimHei-61" transform="translate(150 0)"/>
      <use xlink:href="#SimHei-79" transform="translate(200 0)"/>
      <use xlink:href="#SimHei-20" transform="translate(250 0)"/>
      <use xlink:href="#SimHei-28" transform="translate(300 0)"/>
      <use xlink:href="#SimHei-73" transform="translate(350 0)"/>
      <use xlink:href="#SimHei-29" transform="translate(400 0)"/>
     </g>
    </g>
   </g>
   <g id="line2d_29">
    <path d="M 82.063636 128.634124 
L 83.334997 135.219567 
L 84.606357 156.14645 
L 87.149077 190.245591 
L 89.691798 218.83996 
L 90.963158 231.444974 
L 92.234518 241.986583 
L 94.777239 259.281681 
L 96.048599 266.908316 
L 97.319959 273.349172 
L 98.591319 278.126952 
L 99.862679 285.06398 
L 101.13404 290.607961 
L 102.4054 294.260518 
L 103.67676 297.288357 
L 104.94812 301.461709 
L 106.219481 306.047242 
L 107.490841 309.050157 
L 110.033561 315.793063 
L 111.304921 318.851111 
L 112.576282 320.995926 
L 113.847642 322.505019 
L 115.119002 325.054036 
L 117.661722 329.222842 
L 118.933083 329.189816 
L 120.204443 330.512434 
L 121.475803 331.073804 
L 122.747163 331.771208 
L 124.018524 330.480549 
L 125.289884 331.247612 
L 126.561244 332.54655 
L 129.103964 334.115491 
L 130.375325 333.921266 
L 131.646685 335.068303 
L 132.918045 334.772796 
L 134.189405 335.500252 
L 135.460766 335.740473 
L 136.732126 335.850594 
L 138.003486 335.75628 
L 139.274846 334.794897 
L 140.546206 336.58797 
L 141.817567 337.112725 
L 143.088927 337.426118 
L 144.360287 337.127436 
L 145.631647 336.658904 
L 146.903008 337.823157 
L 148.174368 338.06488 
L 149.445728 338.79661 
L 150.717088 338.074773 
L 153.259809 337.196543 
L 154.531169 338.17092 
L 155.802529 338.402162 
L 157.073889 337.927318 
L 158.345249 338.001641 
L 159.61661 337.845047 
L 160.88797 338.313847 
L 162.15933 338.486192 
L 163.43069 338.388636 
L 164.702051 338.444559 
L 165.973411 336.725121 
L 167.244771 336.911318 
L 168.516131 336.066284 
L 169.787491 335.84791 
L 171.058852 336.617007 
L 172.330212 337.222608 
L 173.601572 338.40431 
L 174.872932 337.841954 
L 176.144293 338.383285 
L 177.415653 338.561037 
L 178.687013 338.544868 
L 179.958373 338.189383 
L 181.229733 338.871143 
L 183.772454 339.345775 
L 185.043814 338.724182 
L 186.315174 338.541462 
L 187.586535 338.569619 
L 188.857895 339.703009 
L 190.129255 338.771014 
L 191.400615 339.109996 
L 192.671975 340.192229 
L 193.943336 339.023411 
L 196.486056 339.538717 
L 197.757416 338.214248 
L 199.028776 335.959014 
L 200.300137 335.859798 
L 201.571497 336.378438 
L 202.842857 336.565262 
L 204.114217 337.049001 
L 205.385578 337.773887 
L 206.656938 337.437515 
L 207.928298 336.719557 
L 209.199658 336.579342 
L 213.013739 338.355613 
L 214.285099 338.196987 
L 215.556459 336.840031 
L 216.82782 338.220067 
L 218.09918 336.711958 
L 219.37054 337.166712 
L 220.6419 337.447904 
L 221.91326 336.88999 
L 224.455981 338.103722 
L 226.998701 338.01295 
L 228.270062 337.071409 
L 229.541422 336.274893 
L 232.084142 335.733616 
L 233.355502 335.746239 
L 234.626863 335.889905 
L 235.898223 336.487634 
L 237.169583 335.133542 
L 238.440943 335.048788 
L 239.712303 335.392103 
L 240.983664 335.00777 
L 243.526384 336.23564 
L 244.797744 335.025132 
L 246.069105 334.388884 
L 247.340465 335.871337 
L 248.611825 335.795271 
L 251.154545 337.498113 
L 253.697266 337.59309 
L 254.968626 336.337038 
L 256.239986 336.83773 
L 257.511347 336.844099 
L 258.782707 336.406925 
L 260.054067 336.607155 
L 261.325427 337.433067 
L 262.596787 337.811259 
L 263.868148 338.616783 
L 265.139508 339.048128 
L 266.410868 338.027839 
L 267.682228 337.53691 
L 268.953589 336.342978 
L 270.224949 335.666148 
L 271.496309 336.229603 
L 272.767669 333.203705 
L 274.039029 334.020437 
L 275.31039 332.931278 
L 276.58175 332.696723 
L 277.85311 331.891707 
L 279.12447 332.289197 
L 280.39583 333.188409 
L 281.667191 333.527056 
L 282.938551 333.527333 
L 284.209911 335.124108 
L 285.481271 334.175918 
L 286.752632 334.283364 
L 288.023992 332.571228 
L 289.295352 334.018182 
L 290.566712 334.105132 
L 291.838072 333.242305 
L 293.109433 333.17008 
L 294.380793 334.37059 
L 295.652153 334.780875 
L 296.923513 335.503496 
L 298.194874 335.385176 
L 299.466234 335.762082 
L 300.737594 335.230232 
L 302.008954 334.911469 
L 303.280314 334.963745 
L 304.551675 334.607496 
L 305.823035 334.64216 
L 307.094395 334.162741 
L 308.365755 334.730398 
L 309.637116 334.757679 
L 310.908476 335.470744 
L 312.179836 335.712601 
L 313.451196 336.822948 
L 314.722556 338.117427 
L 315.993917 338.006967 
L 317.265277 339.090662 
L 318.536637 339.614217 
L 319.807997 338.674252 
L 321.079357 338.569626 
L 322.350718 339.045861 
L 323.622078 338.755369 
L 324.893438 339.64865 
L 326.164798 339.172661 
L 327.436159 339.720825 
L 328.707519 339.935134 
L 329.978879 340.519985 
L 331.250239 339.64639 
L 332.521599 340.336818 
L 333.79296 339.703012 
L 335.06432 339.470466 
L 336.33568 341.095813 
L 337.60704 340.176278 
L 340.149761 340.451532 
L 341.421121 339.929648 
L 342.692481 340.697554 
L 343.963841 340.882134 
L 345.235202 340.93942 
L 346.506562 340.776964 
L 347.777922 339.77187 
L 349.049282 339.719564 
L 350.320643 339.343835 
L 351.592003 337.784761 
L 354.134723 337.133697 
L 355.406083 337.706231 
L 356.677444 337.718899 
L 357.948804 336.985355 
L 359.220164 337.17128 
L 360.491524 335.925774 
L 361.762884 335.67507 
L 363.034245 336.45713 
L 364.305605 336.518941 
L 365.576965 335.955617 
L 366.848325 336.662248 
L 368.119686 337.196689 
L 369.391046 337.531273 
L 370.662406 337.127079 
L 371.933766 337.557419 
L 373.205126 336.73641 
L 374.476487 335.360929 
L 375.747847 336.308087 
L 377.019207 336.793735 
L 378.290567 336.990368 
L 379.561928 336.162045 
L 380.833288 336.73688 
L 382.104648 337.171802 
L 383.376008 336.459303 
L 384.647368 335.39555 
L 385.918729 335.396654 
L 387.190089 335.587431 
L 388.461449 335.185188 
L 389.732809 336.376248 
L 391.00417 336.264875 
L 392.27553 334.371239 
L 394.81825 335.791135 
L 396.08961 336.799402 
L 397.360971 337.567302 
L 398.632331 336.149589 
L 399.903691 336.326125 
L 401.175051 336.135137 
L 402.446411 336.476749 
L 404.989132 335.036989 
L 406.260492 334.820361 
L 407.531852 335.483055 
L 410.074573 336.192055 
L 411.345933 335.602508 
L 412.617293 335.235206 
L 413.888653 334.644221 
L 415.160014 335.293325 
L 416.431374 335.668454 
L 417.702734 336.585554 
L 418.974094 336.663037 
L 420.245455 337.108292 
L 421.516815 337.937335 
L 422.788175 337.847366 
L 424.059535 336.899892 
L 425.330895 337.127264 
L 426.602256 336.794537 
L 427.873616 335.595959 
L 429.144976 335.327319 
L 430.416336 336.035276 
L 431.687697 336.010514 
L 434.230417 337.23989 
L 435.501777 336.976887 
L 438.044498 337.947632 
L 439.315858 338.246159 
L 440.587218 338.211354 
L 441.858578 339.087094 
L 443.129938 338.736962 
L 444.401299 339.351371 
L 445.672659 339.486772 
L 446.944019 337.961143 
L 448.215379 337.84288 
L 449.48674 338.11509 
L 450.7581 337.726473 
L 452.02946 339.078974 
L 454.57218 339.294064 
L 455.843541 339.60725 
L 457.114901 339.133694 
L 458.386261 339.971123 
L 460.928982 339.217591 
L 462.200342 339.617945 
L 463.471702 339.319734 
L 466.014422 339.894494 
L 468.557143 339.552035 
L 469.828503 339.266617 
L 471.099863 338.818239 
L 472.371224 338.706574 
L 473.642584 337.515846 
L 474.913944 335.795365 
L 476.185304 335.985635 
L 477.456664 336.032519 
L 478.728025 335.697317 
L 479.999385 335.520159 
L 481.270745 334.145057 
L 482.542105 334.241972 
L 483.813465 333.570188 
L 485.084826 333.864875 
L 487.627546 335.793428 
L 488.898906 335.690649 
L 490.170267 336.060989 
L 491.441627 335.240782 
L 492.712987 335.603184 
L 493.984347 335.746338 
L 495.255707 335.289412 
L 496.527068 335.279314 
L 497.798428 335.915102 
L 499.069788 335.910061 
L 501.612509 337.190642 
L 502.883869 337.470598 
L 504.155229 337.214108 
L 505.426589 336.261546 
L 506.697949 336.056514 
L 507.96931 336.296834 
L 509.24067 337.0693 
L 510.51203 336.614147 
L 511.78339 336.339619 
L 513.054751 336.858138 
L 514.326111 337.811499 
L 515.597471 337.391296 
L 518.140191 338.014344 
L 519.411552 337.485749 
L 520.682912 338.275764 
L 521.954272 340.009589 
L 523.225632 339.658263 
L 524.496992 340.330081 
L 527.039713 339.740952 
L 528.311073 338.316661 
L 529.582433 338.451484 
L 530.853794 338.806404 
L 532.125154 339.928627 
L 533.396514 339.140214 
L 534.667874 337.747629 
L 537.210595 339.105478 
L 538.481955 339.377516 
L 539.753315 339.978369 
L 541.024675 339.580997 
L 542.296036 340.032172 
L 543.567396 340.801505 
L 544.838756 341.40754 
L 546.110116 340.21571 
L 547.381476 340.955701 
L 548.652837 340.154838 
L 549.924197 341.039431 
L 551.195557 341.185619 
L 552.466917 340.292068 
L 553.738278 341.109742 
L 555.009638 340.39159 
L 556.280998 340.688998 
L 561.366439 340.363095 
L 562.637799 340.992581 
L 563.909159 341.396496 
L 565.180519 340.861871 
L 566.45188 340.642336 
L 567.72324 339.244784 
L 568.9946 340.135418 
L 570.26596 338.661765 
L 571.537321 338.856069 
L 572.808681 339.233017 
L 574.080041 339.373729 
L 575.351401 339.298839 
L 576.622761 339.719903 
L 577.894122 339.573255 
L 579.165482 339.630556 
L 580.436842 340.214215 
L 581.708202 339.888065 
L 582.979563 340.495967 
L 584.250923 339.106571 
L 585.522283 339.641319 
L 586.793643 338.979995 
L 588.065003 338.685857 
L 589.336364 338.51604 
L 589.336364 338.51604 
" clip-path="url(#pcbda75b104)" style="fill: none; stroke: #1f77b4; stroke-width: 1.2; stroke-linecap: square"/>
   </g>
   <g id="line2d_30">
    <path d="M 82.063636 152.081943 
L 83.334997 143.606542 
L 84.606357 136.256451 
L 85.877717 131.027726 
L 87.149077 122.481029 
L 88.420437 111.776464 
L 89.691798 103.684544 
L 90.963158 101.3361 
L 92.234518 95.097562 
L 93.505878 92.191103 
L 96.048599 84.182403 
L 97.319959 76.71028 
L 98.591319 72.485989 
L 99.862679 67.417099 
L 101.13404 61.689504 
L 102.4054 62.792563 
L 103.67676 58.905802 
L 104.94812 56.341961 
L 106.219481 57.100115 
L 107.490841 54.244609 
L 108.762201 50.812889 
L 110.033561 51.200827 
L 111.304921 49.253375 
L 115.119002 40.034045 
L 116.390362 41.248902 
L 117.661722 40.655291 
L 118.933083 44.795844 
L 120.204443 44.342502 
L 121.475803 44.134799 
L 122.747163 39.445 
L 124.018524 39.621044 
L 125.289884 43.451243 
L 126.561244 43.283094 
L 127.832604 45.06929 
L 129.103964 46.082958 
L 130.375325 47.436577 
L 131.646685 45.86384 
L 132.918045 46.90666 
L 134.189405 51.106906 
L 135.460766 54.552589 
L 136.732126 67.788798 
L 138.003486 94.599149 
L 140.546206 140.062431 
L 143.088927 177.030273 
L 144.360287 193.798143 
L 146.903008 219.148342 
L 149.445728 241.405274 
L 150.717088 249.615127 
L 151.988448 258.802657 
L 155.802529 279.968703 
L 157.073889 285.148763 
L 158.345249 289.754267 
L 159.61661 294.901804 
L 160.88797 299.201639 
L 162.15933 304.073508 
L 164.702051 310.456653 
L 165.973411 313.199409 
L 167.244771 317.121357 
L 168.516131 319.79509 
L 169.787491 320.36121 
L 171.058852 321.54885 
L 172.330212 323.846767 
L 174.872932 327.312191 
L 177.415653 330.311498 
L 178.687013 331.223008 
L 179.958373 332.444006 
L 181.229733 332.535754 
L 182.501094 333.008469 
L 183.772454 332.585781 
L 185.043814 334.082336 
L 186.315174 334.498594 
L 187.586535 335.549225 
L 188.857895 335.56992 
L 190.129255 335.345621 
L 192.671975 334.044626 
L 193.943336 335.034613 
L 195.214696 335.406795 
L 199.028776 335.558786 
L 200.300137 336.096622 
L 201.571497 336.261692 
L 202.842857 336.790734 
L 204.114217 336.851553 
L 205.385578 336.731471 
L 206.656938 337.855764 
L 207.928298 338.226337 
L 209.199658 338.175946 
L 210.471018 337.900927 
L 211.742379 337.005418 
L 213.013739 336.350632 
L 214.285099 337.316176 
L 215.556459 336.877329 
L 216.82782 337.854999 
L 218.09918 337.261873 
L 219.37054 337.182606 
L 220.6419 336.854325 
L 221.91326 336.676404 
L 223.184621 337.762951 
L 224.455981 337.720962 
L 225.727341 338.131906 
L 226.998701 338.769775 
L 228.270062 339.177557 
L 229.541422 338.613843 
L 230.812782 336.791674 
L 232.084142 335.537296 
L 233.355502 335.088092 
L 234.626863 335.364225 
L 235.898223 335.461348 
L 237.169583 335.423353 
L 238.440943 335.134784 
L 240.983664 335.775971 
L 242.255024 335.668667 
L 243.526384 336.164991 
L 244.797744 336.935721 
L 246.069105 336.923568 
L 247.340465 336.658385 
L 248.611825 336.16414 
L 249.883185 335.380072 
L 251.154545 335.110673 
L 252.425906 336.376254 
L 253.697266 336.565859 
L 254.968626 335.795763 
L 256.239986 336.568277 
L 257.511347 337.603774 
L 258.782707 337.132387 
L 260.054067 337.193751 
L 261.325427 337.717261 
L 262.596787 338.100556 
L 263.868148 338.89677 
L 265.139508 338.820504 
L 266.410868 337.489059 
L 267.682228 336.860033 
L 268.953589 338.102011 
L 271.496309 336.690659 
L 272.767669 337.824998 
L 274.039029 338.177336 
L 275.31039 337.444757 
L 276.58175 336.563877 
L 277.85311 337.777817 
L 279.12447 337.906613 
L 280.39583 338.277273 
L 281.667191 339.159059 
L 282.938551 339.632201 
L 285.481271 337.467375 
L 286.752632 336.937013 
L 288.023992 336.786211 
L 289.295352 337.807305 
L 290.566712 337.903894 
L 291.838072 336.807488 
L 293.109433 337.46514 
L 294.380793 337.642078 
L 295.652153 336.64404 
L 296.923513 337.018206 
L 298.194874 336.996957 
L 299.466234 338.195354 
L 300.737594 338.532825 
L 302.008954 338.720351 
L 303.280314 338.577624 
L 304.551675 339.101819 
L 305.823035 338.779431 
L 307.094395 338.300513 
L 308.365755 337.574466 
L 309.637116 337.3478 
L 310.908476 337.699532 
L 312.179836 338.780873 
L 313.451196 338.419961 
L 314.722556 337.309962 
L 315.993917 336.619488 
L 317.265277 337.763783 
L 318.536637 337.147475 
L 319.807997 336.098559 
L 321.079357 336.364562 
L 323.622078 335.831316 
L 324.893438 335.788504 
L 326.164798 335.931729 
L 327.436159 336.810021 
L 328.707519 337.274214 
L 329.978879 337.870201 
L 331.250239 334.908018 
L 332.521599 334.994143 
L 333.79296 335.44522 
L 335.06432 334.176859 
L 336.33568 334.124757 
L 338.878401 335.078832 
L 340.149761 333.90186 
L 341.421121 333.910715 
L 342.692481 333.35453 
L 343.963841 333.346803 
L 345.235202 333.714769 
L 346.506562 333.824659 
L 347.777922 333.277042 
L 349.049282 333.509603 
L 350.320643 334.294955 
L 351.592003 333.920033 
L 352.863363 335.09752 
L 354.134723 335.743223 
L 355.406083 337.071104 
L 356.677444 337.749448 
L 357.948804 337.975025 
L 359.220164 338.756221 
L 360.491524 338.586226 
L 361.762884 338.678699 
L 363.034245 338.627151 
L 364.305605 338.881549 
L 365.576965 337.703676 
L 370.662406 338.757927 
L 371.933766 339.322581 
L 373.205126 339.687492 
L 374.476487 339.047414 
L 375.747847 339.073258 
L 377.019207 338.609465 
L 378.290567 338.808662 
L 380.833288 339.53884 
L 382.104648 339.487315 
L 383.376008 339.75827 
L 384.647368 339.8467 
L 385.918729 338.747044 
L 387.190089 339.252602 
L 388.461449 338.950612 
L 391.00417 340.59701 
L 392.27553 339.976366 
L 396.08961 339.215696 
L 397.360971 338.888183 
L 398.632331 336.80289 
L 399.903691 336.956917 
L 401.175051 336.915872 
L 402.446411 337.11402 
L 403.717772 336.075106 
L 404.989132 337.117171 
L 406.260492 336.916035 
L 407.531852 336.016022 
L 408.803213 336.672446 
L 410.074573 336.580117 
L 411.345933 336.111926 
L 412.617293 336.875275 
L 413.888653 336.254697 
L 415.160014 336.121189 
L 416.431374 336.576243 
L 417.702734 336.698585 
L 418.974094 335.591818 
L 421.516815 337.249402 
L 422.788175 337.419518 
L 424.059535 336.675563 
L 426.602256 336.410991 
L 427.873616 335.581883 
L 429.144976 335.626361 
L 430.416336 336.814593 
L 431.687697 336.467951 
L 432.959057 336.811728 
L 434.230417 337.305649 
L 436.773137 336.506329 
L 438.044498 336.766509 
L 439.315858 336.362329 
L 440.587218 337.601317 
L 441.858578 338.114194 
L 444.401299 337.152478 
L 445.672659 336.252555 
L 446.944019 337.301457 
L 448.215379 337.061231 
L 449.48674 335.290108 
L 450.7581 335.059424 
L 452.02946 335.732706 
L 453.30082 336.245698 
L 454.57218 337.130184 
L 455.843541 336.721183 
L 457.114901 337.052688 
L 458.386261 335.897151 
L 460.928982 334.999409 
L 463.471702 335.008967 
L 464.743062 334.599512 
L 466.014422 335.686098 
L 467.285783 336.155974 
L 468.557143 336.766831 
L 469.828503 336.841781 
L 471.099863 336.036878 
L 473.642584 335.732647 
L 474.913944 335.347566 
L 476.185304 336.358822 
L 477.456664 336.268625 
L 478.728025 335.403633 
L 479.999385 335.916706 
L 481.270745 334.986629 
L 482.542105 334.663128 
L 483.813465 333.429008 
L 485.084826 333.695121 
L 486.356186 333.706245 
L 487.627546 332.958754 
L 488.898906 333.103726 
L 490.170267 334.214601 
L 491.441627 335.756244 
L 492.712987 335.617263 
L 493.984347 336.534562 
L 495.255707 336.670195 
L 497.798428 338.30337 
L 499.069788 337.126197 
L 500.341148 337.567869 
L 501.612509 339.037469 
L 502.883869 339.584303 
L 504.155229 338.410041 
L 505.426589 338.520932 
L 506.697949 337.966825 
L 507.96931 338.148143 
L 509.24067 338.869047 
L 510.51203 339.107435 
L 511.78339 338.741064 
L 514.326111 339.302432 
L 515.597471 339.021906 
L 516.868831 339.225673 
L 518.140191 338.981701 
L 519.411552 337.666977 
L 520.682912 337.985043 
L 523.225632 338.305205 
L 524.496992 338.612323 
L 525.768353 338.365993 
L 527.039713 338.725379 
L 528.311073 338.233143 
L 529.582433 338.150308 
L 530.853794 337.358991 
L 532.125154 337.423745 
L 533.396514 336.141685 
L 534.667874 335.327424 
L 535.939234 335.090896 
L 537.210595 336.717401 
L 538.481955 337.060252 
L 541.024675 336.904608 
L 542.296036 336.993406 
L 543.567396 337.31769 
L 544.838756 337.820697 
L 546.110116 334.978912 
L 547.381476 335.694339 
L 548.652837 334.985707 
L 551.195557 337.362288 
L 552.466917 336.187534 
L 553.738278 336.578555 
L 555.009638 335.174435 
L 556.280998 335.976683 
L 557.552358 336.139257 
L 558.823718 336.515022 
L 560.095079 337.266599 
L 561.366439 337.382255 
L 562.637799 337.165158 
L 563.909159 337.359499 
L 565.180519 337.116287 
L 566.45188 337.404619 
L 567.72324 338.791561 
L 568.9946 338.037511 
L 570.26596 338.131008 
L 571.537321 339.164604 
L 572.808681 338.209452 
L 574.080041 337.870142 
L 575.351401 338.704219 
L 577.894122 336.706717 
L 579.165482 337.024792 
L 581.708202 338.152237 
L 582.979563 339.027882 
L 584.250923 338.023157 
L 585.522283 338.431645 
L 586.793643 338.561794 
L 588.065003 339.005936 
L 588.065003 339.005936 
" clip-path="url(#pcbda75b104)" style="fill: none; stroke: #ff7f0e; stroke-width: 1.2; stroke-linecap: square"/>
   </g>
   <g id="line2d_31">
    <path d="M 82.063636 164.291396 
L 83.334997 157.600436 
L 84.606357 158.774658 
L 85.877717 160.376026 
L 87.149077 166.124833 
L 88.420437 167.883842 
L 89.691798 173.571804 
L 90.963158 181.091744 
L 92.234518 189.701065 
L 93.505878 199.418794 
L 94.777239 211.007445 
L 96.048599 215.054753 
L 97.319959 227.848937 
L 98.591319 237.662369 
L 101.13404 249.790453 
L 103.67676 264.035945 
L 104.94812 267.115997 
L 107.490841 281.507086 
L 108.762201 287.142935 
L 110.033561 289.706057 
L 111.304921 294.867161 
L 113.847642 302.195739 
L 116.390362 307.866181 
L 117.661722 311.253581 
L 118.933083 314.087317 
L 120.204443 317.923279 
L 121.475803 319.385528 
L 122.747163 321.253619 
L 124.018524 322.602818 
L 127.832604 328.017913 
L 129.103964 327.428944 
L 131.646685 329.779828 
L 132.918045 330.181081 
L 134.189405 330.305872 
L 136.732126 330.872448 
L 139.274846 332.872025 
L 140.546206 332.558114 
L 141.817567 332.615191 
L 144.360287 333.3282 
L 145.631647 334.357495 
L 146.903008 334.474398 
L 148.174368 332.238465 
L 149.445728 334.527911 
L 150.717088 335.362359 
L 151.988448 333.714075 
L 154.531169 334.797662 
L 155.802529 334.377686 
L 157.073889 334.71193 
L 159.61661 335.725823 
L 162.15933 334.800318 
L 163.43069 335.502194 
L 164.702051 336.004249 
L 165.973411 337.219617 
L 167.244771 337.163086 
L 168.516131 337.251417 
L 169.787491 336.277515 
L 171.058852 337.073672 
L 173.601572 335.570743 
L 174.872932 335.817639 
L 176.144293 336.505504 
L 177.415653 337.325872 
L 178.687013 336.083913 
L 179.958373 335.922128 
L 181.229733 336.439421 
L 182.501094 336.618687 
L 183.772454 337.485918 
L 185.043814 338.116401 
L 186.315174 339.27651 
L 187.586535 339.411774 
L 188.857895 338.027501 
L 190.129255 337.10623 
L 191.400615 338.349581 
L 192.671975 338.108572 
L 193.943336 338.000281 
L 195.214696 337.302328 
L 196.486056 337.668751 
L 199.028776 338.876742 
L 200.300137 338.532186 
L 201.571497 337.960445 
L 202.842857 337.710752 
L 204.114217 338.415073 
L 206.656938 336.915753 
L 207.928298 337.497961 
L 209.199658 338.222378 
L 210.471018 337.859115 
L 211.742379 337.620718 
L 213.013739 336.600194 
L 214.285099 335.988429 
L 215.556459 334.138043 
L 216.82782 333.646702 
L 218.09918 334.118092 
L 219.37054 334.32466 
L 220.6419 333.829006 
L 223.184621 335.111442 
L 224.455981 334.129497 
L 225.727341 335.011007 
L 226.998701 336.430215 
L 228.270062 335.978917 
L 229.541422 336.197256 
L 230.812782 336.592864 
L 232.084142 336.298896 
L 233.355502 337.016626 
L 234.626863 336.985967 
L 235.898223 337.95222 
L 237.169583 337.705084 
L 238.440943 337.100002 
L 239.712303 337.636545 
L 240.983664 336.800612 
L 243.526384 336.550607 
L 244.797744 335.85292 
L 246.069105 336.348349 
L 247.340465 337.153418 
L 248.611825 337.596442 
L 249.883185 337.478193 
L 251.154545 338.530423 
L 252.425906 339.347189 
L 254.968626 339.181716 
L 256.239986 339.51353 
L 257.511347 338.592411 
L 258.782707 337.232355 
L 261.325427 337.554108 
L 262.596787 337.123014 
L 263.868148 337.558329 
L 265.139508 337.1898 
L 266.410868 337.3642 
L 267.682228 336.717238 
L 268.953589 336.38533 
L 270.224949 336.498907 
L 271.496309 337.696691 
L 272.767669 337.862905 
L 274.039029 338.705379 
L 276.58175 338.422687 
L 277.85311 338.741968 
L 279.12447 338.326371 
L 280.39583 336.761287 
L 281.667191 337.431926 
L 282.938551 336.934831 
L 284.209911 336.58787 
L 285.481271 337.332589 
L 286.752632 337.458281 
L 289.295352 337.31313 
L 290.566712 337.057153 
L 291.838072 337.411826 
L 293.109433 337.402175 
L 294.380793 336.858654 
L 295.652153 337.798738 
L 296.923513 338.321949 
L 298.194874 337.253538 
L 299.466234 336.974407 
L 300.737594 337.203598 
L 302.008954 335.871118 
L 303.280314 336.258862 
L 304.551675 336.490075 
L 305.823035 336.334388 
L 307.094395 337.855983 
L 308.365755 338.844189 
L 309.637116 336.89814 
L 310.908476 336.91957 
L 312.179836 337.176183 
L 313.451196 336.438859 
L 317.265277 337.725213 
L 319.807997 338.022912 
L 321.079357 338.453041 
L 322.350718 338.615038 
L 323.622078 338.612625 
L 324.893438 338.793245 
L 328.707519 340.286215 
L 329.978879 339.979434 
L 331.250239 340.902552 
L 332.521599 339.501822 
L 333.79296 340.262344 
L 335.06432 340.681424 
L 336.33568 340.480079 
L 337.60704 341.479664 
L 338.878401 341.646056 
L 340.149761 339.299511 
L 341.421121 339.806906 
L 343.963841 339.272708 
L 345.235202 340.253137 
L 346.506562 339.136875 
L 347.777922 338.669229 
L 349.049282 338.387439 
L 350.320643 337.976915 
L 352.863363 339.110981 
L 355.406083 339.542166 
L 356.677444 339.52269 
L 357.948804 340.812365 
L 360.491524 340.899298 
L 361.762884 340.484264 
L 363.034245 341.105018 
L 364.305605 340.590498 
L 365.576965 341.496938 
L 366.848325 340.814163 
L 368.119686 340.999635 
L 369.391046 340.66573 
L 370.662406 339.582318 
L 371.933766 339.169109 
L 373.205126 339.147333 
L 374.476487 338.556163 
L 375.747847 338.355733 
L 377.019207 339.328802 
L 378.290567 339.347487 
L 379.561928 340.211318 
L 380.833288 338.172031 
L 382.104648 339.017249 
L 383.376008 339.044809 
L 384.647368 339.549575 
L 385.918729 338.009515 
L 388.461449 338.98514 
L 389.732809 338.176961 
L 391.00417 339.24211 
L 392.27553 337.57855 
L 394.81825 337.132574 
L 396.08961 336.134794 
L 397.360971 335.548513 
L 398.632331 335.332992 
L 399.903691 336.125879 
L 401.175051 336.114504 
L 402.446411 337.474765 
L 403.717772 337.501141 
L 404.989132 337.768983 
L 406.260492 337.023085 
L 407.531852 337.374155 
L 408.803213 338.331673 
L 410.074573 338.27915 
L 411.345933 337.931934 
L 412.617293 337.882396 
L 413.888653 336.744134 
L 415.160014 337.247372 
L 416.431374 337.283377 
L 417.702734 337.051785 
L 418.974094 336.218614 
L 420.245455 336.456547 
L 422.788175 336.655473 
L 424.059535 336.439126 
L 425.330895 336.841293 
L 426.602256 337.366573 
L 427.873616 337.479274 
L 430.416336 336.34874 
L 431.687697 337.091709 
L 432.959057 337.185006 
L 434.230417 337.774081 
L 435.501777 337.381496 
L 436.773137 338.05008 
L 438.044498 336.106177 
L 439.315858 337.100056 
L 440.587218 337.342244 
L 441.858578 337.922532 
L 443.129938 337.45483 
L 444.401299 337.297917 
L 445.672659 337.868703 
L 446.944019 337.687621 
L 448.215379 337.819118 
L 449.48674 337.274051 
L 450.7581 337.71728 
L 452.02946 337.362193 
L 453.30082 337.905154 
L 454.57218 337.710911 
L 455.843541 338.005849 
L 457.114901 337.771044 
L 458.386261 336.831535 
L 459.657621 337.259731 
L 460.928982 337.201087 
L 462.200342 338.346712 
L 463.471702 337.396509 
L 464.743062 336.600559 
L 466.014422 337.480607 
L 467.285783 337.890082 
L 468.557143 337.941942 
L 469.828503 337.657007 
L 471.099863 338.027036 
L 473.642584 337.627951 
L 476.185304 338.201908 
L 477.456664 338.951847 
L 478.728025 339.223314 
L 479.999385 339.222453 
L 482.542105 337.992456 
L 485.084826 338.297379 
L 486.356186 338.169591 
L 487.627546 338.57167 
L 488.898906 339.112545 
L 490.170267 339.422002 
L 491.441627 338.873637 
L 492.712987 339.356519 
L 493.984347 339.15992 
L 495.255707 339.392539 
L 496.527068 339.852035 
L 497.798428 340.076908 
L 500.341148 339.023909 
L 501.612509 338.964435 
L 502.883869 337.945687 
L 504.155229 338.039801 
L 505.426589 338.347932 
L 506.697949 337.961027 
L 507.96931 337.718447 
L 510.51203 338.193931 
L 511.78339 337.934078 
L 513.054751 337.352508 
L 514.326111 336.417001 
L 515.597471 337.034816 
L 516.868831 336.970069 
L 518.140191 337.105044 
L 519.411552 337.485548 
L 520.682912 337.441557 
L 523.225632 337.148971 
L 524.496992 337.582501 
L 525.768353 337.740883 
L 527.039713 338.0128 
L 528.311073 338.4139 
L 530.853794 337.296642 
L 532.125154 338.20333 
L 533.396514 336.197848 
L 534.667874 334.86902 
L 535.939234 335.495406 
L 537.210595 334.227241 
L 538.481955 333.307523 
L 539.753315 334.115449 
L 543.567396 336.015532 
L 546.110116 335.297946 
L 547.381476 335.099868 
L 549.924197 335.551531 
L 551.195557 335.57907 
L 552.466917 336.545251 
L 553.738278 336.168937 
L 555.009638 335.184131 
L 556.280998 335.587272 
L 558.823718 337.039176 
L 560.095079 336.562615 
L 561.366439 337.91247 
L 562.637799 338.262529 
L 563.909159 338.47532 
L 565.180519 338.568555 
L 566.45188 338.486768 
L 567.72324 338.168072 
L 568.9946 339.149561 
L 570.26596 339.368782 
L 571.537321 339.162071 
L 572.808681 338.537252 
L 574.080041 338.954015 
L 575.351401 337.702473 
L 576.622761 338.353461 
L 577.894122 337.826245 
L 579.165482 337.967794 
L 580.436842 337.347988 
L 582.979563 337.791407 
L 584.250923 337.253109 
L 585.522283 337.241857 
L 586.793643 336.003641 
L 588.065003 336.052116 
L 588.065003 336.052116 
" clip-path="url(#pcbda75b104)" style="fill: none; stroke: #2ca02c; stroke-width: 1.2; stroke-linecap: square"/>
   </g>
   <g id="line2d_32">
    <path d="M 82.063636 164.291396 
L 83.334997 162.348147 
L 84.606357 161.206265 
L 85.877717 165.439072 
L 88.420437 180.039091 
L 89.691798 193.99681 
L 90.963158 201.72925 
L 92.234518 214.169636 
L 93.505878 224.321738 
L 94.777239 235.520547 
L 96.048599 245.235706 
L 97.319959 251.988366 
L 99.862679 268.758077 
L 102.4054 282.725524 
L 103.67676 287.492914 
L 104.94812 293.178928 
L 107.490841 302.392572 
L 108.762201 306.371767 
L 111.304921 313.037434 
L 112.576282 315.132501 
L 113.847642 318.070565 
L 115.119002 319.665061 
L 116.390362 320.562713 
L 118.933083 323.804367 
L 120.204443 325.783429 
L 121.475803 327.97213 
L 122.747163 328.519683 
L 124.018524 329.390877 
L 125.289884 330.713208 
L 126.561244 331.83199 
L 127.832604 330.503768 
L 129.103964 331.972084 
L 130.375325 331.822542 
L 131.646685 332.291052 
L 132.918045 333.950902 
L 134.189405 334.137625 
L 135.460766 333.026466 
L 136.732126 334.055154 
L 138.003486 333.188546 
L 139.274846 333.744629 
L 140.546206 335.136835 
L 141.817567 334.53644 
L 143.088927 334.434814 
L 144.360287 334.966363 
L 145.631647 335.10232 
L 148.174368 336.661684 
L 149.445728 337.079222 
L 151.988448 337.345739 
L 153.259809 337.490444 
L 154.531169 337.501204 
L 155.802529 337.664588 
L 159.61661 336.325267 
L 160.88797 336.25929 
L 162.15933 335.125319 
L 163.43069 335.514441 
L 164.702051 335.72385 
L 165.973411 336.318123 
L 167.244771 337.225013 
L 168.516131 337.660506 
L 169.787491 338.93234 
L 171.058852 339.459369 
L 172.330212 339.001697 
L 173.601572 339.374561 
L 174.872932 338.636525 
L 178.687013 338.835957 
L 179.958373 339.820798 
L 181.229733 339.212988 
L 182.501094 339.211915 
L 183.772454 339.64677 
L 185.043814 338.404531 
L 186.315174 339.147821 
L 187.586535 340.106659 
L 188.857895 339.895019 
L 190.129255 339.483597 
L 191.400615 338.173364 
L 195.214696 338.123997 
L 197.757416 337.148656 
L 199.028776 338.421271 
L 200.300137 338.604663 
L 201.571497 338.596415 
L 202.842857 337.776415 
L 204.114217 336.734948 
L 205.385578 336.519658 
L 206.656938 336.742684 
L 207.928298 335.818532 
L 210.471018 336.312162 
L 211.742379 335.701917 
L 213.013739 333.652754 
L 215.556459 335.281517 
L 216.82782 334.78823 
L 218.09918 335.223886 
L 219.37054 336.152034 
L 220.6419 336.52689 
L 221.91326 336.336832 
L 223.184621 337.047978 
L 224.455981 337.485467 
L 225.727341 336.585496 
L 226.998701 336.248966 
L 228.270062 336.226878 
L 229.541422 335.884585 
L 230.812782 335.824937 
L 232.084142 335.281348 
L 233.355502 334.584011 
L 234.626863 335.689629 
L 235.898223 335.408148 
L 237.169583 335.798467 
L 238.440943 335.22615 
L 239.712303 335.966202 
L 240.983664 335.544201 
L 242.255024 335.268556 
L 243.526384 335.685156 
L 244.797744 335.350757 
L 246.069105 334.358166 
L 247.340465 332.962478 
L 248.611825 331.799029 
L 249.883185 331.588371 
L 251.154545 331.665074 
L 252.425906 332.798987 
L 253.697266 333.330376 
L 254.968626 332.491152 
L 256.239986 332.811752 
L 257.511347 333.824974 
L 258.782707 334.297314 
L 260.054067 336.083604 
L 261.325427 336.408638 
L 262.596787 335.605544 
L 263.868148 335.602771 
L 265.139508 335.811165 
L 266.410868 336.141603 
L 267.682228 336.856119 
L 268.953589 336.482696 
L 270.224949 336.288734 
L 271.496309 336.919721 
L 272.767669 337.181509 
L 274.039029 336.700016 
L 275.31039 337.816781 
L 276.58175 336.831428 
L 277.85311 336.878535 
L 279.12447 337.94405 
L 280.39583 337.883526 
L 281.667191 337.491398 
L 282.938551 337.362837 
L 284.209911 336.549991 
L 285.481271 336.237621 
L 286.752632 336.569446 
L 288.023992 336.769104 
L 289.295352 335.828001 
L 290.566712 336.681168 
L 291.838072 336.584302 
L 293.109433 336.607961 
L 295.652153 335.717489 
L 296.923513 335.577076 
L 298.194874 336.227136 
L 299.466234 336.622373 
L 300.737594 336.639144 
L 303.280314 337.226042 
L 304.551675 337.872904 
L 305.823035 337.733861 
L 307.094395 338.374976 
L 308.365755 338.826659 
L 309.637116 339.398259 
L 310.908476 339.446668 
L 312.179836 339.773003 
L 313.451196 339.650288 
L 314.722556 338.600228 
L 315.993917 338.537383 
L 317.265277 339.123081 
L 318.536637 338.961868 
L 319.807997 338.188535 
L 321.079357 338.771552 
L 322.350718 339.045122 
L 323.622078 338.915833 
L 324.893438 338.369713 
L 326.164798 338.883517 
L 327.436159 337.651639 
L 328.707519 337.986772 
L 329.978879 338.155151 
L 331.250239 337.423153 
L 332.521599 337.882156 
L 333.79296 336.591135 
L 335.06432 336.481537 
L 336.33568 336.590314 
L 337.60704 335.866323 
L 338.878401 337.203185 
L 340.149761 338.152669 
L 341.421121 338.68524 
L 342.692481 338.423076 
L 343.963841 338.317644 
L 345.235202 338.433576 
L 346.506562 337.773661 
L 347.777922 337.724009 
L 349.049282 338.012944 
L 350.320643 338.600777 
L 351.592003 338.250084 
L 352.863363 338.619765 
L 354.134723 337.477283 
L 355.406083 337.489913 
L 356.677444 338.30787 
L 357.948804 338.633388 
L 359.220164 337.440634 
L 360.491524 337.882521 
L 361.762884 337.594192 
L 364.305605 338.143684 
L 365.576965 339.742924 
L 366.848325 340.622643 
L 368.119686 340.25545 
L 369.391046 340.139487 
L 370.662406 339.544198 
L 371.933766 340.164247 
L 373.205126 339.526719 
L 374.476487 339.167919 
L 375.747847 339.753316 
L 377.019207 338.910324 
L 378.290567 339.721085 
L 379.561928 339.634892 
L 380.833288 338.449514 
L 382.104648 338.903763 
L 383.376008 337.852345 
L 384.647368 338.480168 
L 385.918729 338.312623 
L 387.190089 339.049155 
L 388.461449 338.752463 
L 389.732809 339.149507 
L 391.00417 338.56087 
L 392.27553 339.127154 
L 393.54689 339.170606 
L 394.81825 339.542294 
L 396.08961 339.067256 
L 397.360971 338.849398 
L 398.632331 338.846884 
L 399.903691 338.265513 
L 401.175051 339.152059 
L 402.446411 338.335589 
L 403.717772 338.804061 
L 404.989132 338.890124 
L 406.260492 337.963215 
L 407.531852 336.863019 
L 410.074573 337.774017 
L 411.345933 339.063072 
L 412.617293 338.906576 
L 413.888653 339.49167 
L 416.431374 338.507023 
L 417.702734 339.03303 
L 418.974094 339.408376 
L 420.245455 339.028278 
L 421.516815 339.329568 
L 422.788175 338.920738 
L 424.059535 338.234579 
L 425.330895 335.917626 
L 426.602256 336.707901 
L 427.873616 337.109541 
L 429.144976 335.96004 
L 430.416336 337.356061 
L 434.230417 338.592061 
L 435.501777 339.339869 
L 436.773137 338.277488 
L 438.044498 338.394672 
L 439.315858 337.946752 
L 440.587218 337.631176 
L 441.858578 337.631933 
L 443.129938 337.340278 
L 444.401299 335.202676 
L 445.672659 333.669766 
L 446.944019 335.227298 
L 449.48674 336.001918 
L 450.7581 336.687367 
L 452.02946 337.814711 
L 453.30082 338.387828 
L 454.57218 336.947679 
L 455.843541 335.024595 
L 457.114901 336.511345 
L 458.386261 336.458417 
L 459.657621 336.872638 
L 460.928982 337.025471 
L 463.471702 336.425036 
L 464.743062 334.41186 
L 466.014422 334.480434 
L 467.285783 336.013742 
L 469.828503 338.251464 
L 471.099863 337.605423 
L 472.371224 336.445673 
L 473.642584 336.975129 
L 474.913944 337.05912 
L 476.185304 337.007104 
L 477.456664 337.271958 
L 478.728025 337.941016 
L 479.999385 338.260474 
L 481.270745 338.151081 
L 482.542105 338.920382 
L 483.813465 339.428997 
L 485.084826 339.390604 
L 486.356186 339.149666 
L 487.627546 339.115577 
L 488.898906 338.712214 
L 490.170267 338.98954 
L 491.441627 339.118921 
L 492.712987 337.925834 
L 493.984347 338.391004 
L 495.255707 338.670575 
L 496.527068 337.510141 
L 497.798428 339.251434 
L 499.069788 339.610947 
L 500.341148 339.095039 
L 501.612509 339.159133 
L 502.883869 338.921379 
L 504.155229 337.598137 
L 505.426589 337.932959 
L 506.697949 338.977914 
L 507.96931 338.196959 
L 510.51203 338.524061 
L 511.78339 339.077947 
L 513.054751 338.699351 
L 514.326111 338.562821 
L 516.868831 339.687009 
L 518.140191 340.950481 
L 519.411552 341.306371 
L 520.682912 340.553953 
L 521.954272 341.626132 
L 524.496992 340.773201 
L 525.768353 341.370204 
L 527.039713 341.503055 
L 528.311073 341.509706 
L 529.582433 341.163703 
L 530.853794 341.66962 
L 532.125154 341.618947 
L 533.396514 341.845 
L 534.667874 341.352838 
L 535.939234 340.159445 
L 537.210595 339.55074 
L 538.481955 339.746787 
L 539.753315 338.888519 
L 541.024675 338.973533 
L 542.296036 338.346385 
L 543.567396 338.952336 
L 544.838756 339.025364 
L 546.110116 337.440777 
L 547.381476 337.379123 
L 548.652837 338.025891 
L 549.924197 338.184567 
L 551.195557 337.920647 
L 552.466917 337.370791 
L 553.738278 338.103979 
L 555.009638 339.339726 
L 556.280998 338.310491 
L 557.552358 338.248664 
L 558.823718 337.170196 
L 561.366439 337.177277 
L 562.637799 337.606403 
L 563.909159 336.652836 
L 565.180519 337.334285 
L 566.45188 337.517397 
L 567.72324 338.889362 
L 568.9946 338.369247 
L 570.26596 337.389898 
L 571.537321 337.362219 
L 572.808681 337.211271 
L 574.080041 336.875726 
L 575.351401 337.090281 
L 576.622761 335.967854 
L 577.894122 336.050301 
L 580.436842 337.135445 
L 581.708202 336.840358 
L 582.979563 335.746302 
L 584.250923 336.863953 
L 585.522283 335.747664 
L 586.793643 334.843412 
L 588.065003 335.004372 
L 588.065003 335.004372 
" clip-path="url(#pcbda75b104)" style="fill: none; stroke: #9467bd; stroke-width: 1.2; stroke-linecap: square"/>
   </g>
   <g id="patch_3">
    <path d="M 56.7 356.965 
L 56.7 24.325 
" style="fill: none; stroke: #000000; stroke-width: 0.8; stroke-linejoin: miter; stroke-linecap: square"/>
   </g>
   <g id="patch_4">
    <path d="M 614.7 356.965 
L 614.7 24.325 
" style="fill: none; stroke: #000000; stroke-width: 0.8; stroke-linejoin: miter; stroke-linecap: square"/>
   </g>
   <g id="patch_5">
    <path d="M 56.7 356.965 
L 614.7 356.965 
" style="fill: none; stroke: #000000; stroke-width: 0.8; stroke-linejoin: miter; stroke-linecap: square"/>
   </g>
   <g id="patch_6">
    <path d="M 56.7 24.325 
L 614.7 24.325 
" style="fill: none; stroke: #000000; stroke-width: 0.8; stroke-linejoin: miter; stroke-linecap: square"/>
   </g>
   <g id="text_17">
    <!-- Average Transmission Delay -->
    <g transform="translate(231.7 18.325) scale(0.16 -0.16)">
     <defs>
      <path id="SimHei-41" d="M 3075 125 
L 2475 125 
L 2125 1450 
L 1025 1450 
L 675 125 
L 75 125 
L 1325 4450 
L 1825 4450 
L 3075 125 
z
M 2000 1925 
L 1600 3450 
L 1550 3450 
L 1150 1925 
L 2000 1925 
z
" transform="scale(0.015625)"/>
      <path id="SimHei-76" d="M 2875 2925 
L 1825 75 
L 1275 75 
L 225 2925 
L 750 2925 
L 1525 750 
L 1575 750 
L 2350 2925 
L 2875 2925 
z
" transform="scale(0.015625)"/>
      <path id="SimHei-72" d="M 2500 2425 
Q 2025 2500 1700 2287 
Q 1375 2075 1150 1550 
L 1150 125 
L 650 125 
L 650 2925 
L 1150 2925 
L 1150 2200 
Q 1375 2600 1712 2787 
Q 2050 2975 2500 2975 
L 2500 2425 
z
" transform="scale(0.015625)"/>
      <path id="SimHei-67" d="M 2975 2500 
Q 2800 2550 2637 2562 
Q 2475 2575 2300 2525 
Q 2375 2450 2425 2337 
Q 2475 2225 2475 2000 
Q 2475 1575 2187 1300 
Q 1900 1025 1475 1025 
Q 1375 1025 1212 1062 
Q 1050 1100 950 1150 
Q 875 1100 850 1050 
Q 825 1000 825 925 
Q 825 800 1000 737 
Q 1175 675 1625 675 
Q 2350 675 2612 475 
Q 2875 275 2875 -25 
Q 2875 -425 2487 -612 
Q 2100 -800 1575 -800 
Q 900 -800 575 -625 
Q 250 -450 250 -150 
Q 250 0 375 150 
Q 500 300 700 400 
Q 550 475 462 587 
Q 375 700 375 875 
Q 375 1025 487 1137 
Q 600 1250 750 1325 
Q 625 1450 550 1625 
Q 475 1800 475 2000 
Q 475 2425 762 2700 
Q 1050 2975 1475 2975 
Q 1700 2975 1862 2912 
Q 2025 2850 2150 2725 
Q 2350 2875 2550 2937 
Q 2750 3000 2975 2975 
L 2975 2500 
z
M 1975 2000 
Q 1975 2250 1850 2400 
Q 1725 2550 1475 2550 
Q 1225 2550 1100 2400 
Q 975 2250 975 2000 
Q 975 1750 1100 1600 
Q 1225 1450 1475 1450 
Q 1725 1450 1850 1600 
Q 1975 1750 1975 2000 
z
M 2400 -75 
Q 2400 25 2287 125 
Q 2175 225 1725 225 
Q 1625 225 1450 237 
Q 1275 250 1050 275 
Q 850 200 775 100 
Q 700 0 700 -100 
Q 700 -250 900 -350 
Q 1100 -450 1600 -450 
Q 2025 -450 2212 -337 
Q 2400 -225 2400 -75 
z
" transform="scale(0.015625)"/>
      <path id="SimHei-54" d="M 2850 3925 
L 1850 3925 
L 1850 125 
L 1275 125 
L 1275 3925 
L 275 3925 
L 275 4400 
L 2850 4400 
L 2850 3925 
z
" transform="scale(0.015625)"/>
      <path id="SimHei-6e" d="M 2800 125 
L 2300 125 
L 2300 1925 
Q 2300 2225 2150 2400 
Q 2000 2575 1750 2575 
Q 1425 2575 1137 2237 
Q 850 1900 850 1400 
L 850 125 
L 350 125 
L 350 2925 
L 850 2925 
L 850 2400 
Q 1050 2675 1287 2825 
Q 1525 2975 1900 2975 
Q 2350 2975 2575 2725 
Q 2800 2475 2800 2100 
L 2800 125 
z
" transform="scale(0.015625)"/>
      <path id="SimHei-6d" d="M 3050 125 
L 2550 125 
L 2550 2150 
Q 2550 2300 2500 2400 
Q 2450 2500 2300 2500 
Q 2125 2500 1975 2312 
Q 1825 2125 1825 1825 
L 1825 125 
L 1325 125 
L 1325 2150 
Q 1325 2300 1275 2400 
Q 1225 2500 1075 2500 
Q 900 2500 750 2312 
Q 600 2125 600 1825 
L 600 125 
L 100 125 
L 100 2925 
L 600 2925 
L 600 2550 
Q 725 2750 900 2862 
Q 1075 2975 1275 2975 
Q 1475 2975 1612 2862 
Q 1750 2750 1800 2550 
Q 1925 2750 2087 2862 
Q 2250 2975 2450 2975 
Q 2750 2975 2900 2812 
Q 3050 2650 3050 2350 
L 3050 125 
z
" transform="scale(0.015625)"/>
     </defs>
     <use xlink:href="#SimHei-41"/>
     <use xlink:href="#SimHei-76" transform="translate(50 0)"/>
     <use xlink:href="#SimHei-65" transform="translate(100 0)"/>
     <use xlink:href="#SimHei-72" transform="translate(150 0)"/>
     <use xlink:href="#SimHei-61" transform="translate(200 0)"/>
     <use xlink:href="#SimHei-67" transform="translate(250 0)"/>
     <use xlink:href="#SimHei-65" transform="translate(300 0)"/>
     <use xlink:href="#SimHei-20" transform="translate(350 0)"/>
     <use xlink:href="#SimHei-54" transform="translate(400 0)"/>
     <use xlink:href="#SimHei-72" transform="translate(450 0)"/>
     <use xlink:href="#SimHei-61" transform="translate(500 0)"/>
     <use xlink:href="#SimHei-6e" transform="translate(550 0)"/>
     <use xlink:href="#SimHei-73" transform="translate(600 0)"/>
     <use xlink:href="#SimHei-6d" transform="translate(650 0)"/>
     <use xlink:href="#SimHei-69" transform="translate(700 0)"/>
     <use xlink:href="#SimHei-73" transform="translate(750 0)"/>
     <use xlink:href="#SimHei-73" transform="translate(800 0)"/>
     <use xlink:href="#SimHei-69" transform="translate(850 0)"/>
     <use xlink:href="#SimHei-6f" transform="translate(900 0)"/>
     <use xlink:href="#SimHei-6e" transform="translate(950 0)"/>
     <use xlink:href="#SimHei-20" transform="translate(1000 0)"/>
     <use xlink:href="#SimHei-44" transform="translate(1050 0)"/>
     <use xlink:href="#SimHei-65" transform="translate(1100 0)"/>
     <use xlink:href="#SimHei-6c" transform="translate(1150 0)"/>
     <use xlink:href="#SimHei-61" transform="translate(1200 0)"/>
     <use xlink:href="#SimHei-79" transform="translate(1250 0)"/>
    </g>
   </g>
   <g id="legend_1">
    <g id="patch_7">
     <path d="M 489.9 97.525 
L 606.3 97.525 
Q 608.7 97.525 608.7 95.125 
L 608.7 32.725 
Q 608.7 30.325 606.3 30.325 
L 489.9 30.325 
Q 487.5 30.325 487.5 32.725 
L 487.5 95.125 
Q 487.5 97.525 489.9 97.525 
z
" style="fill: #ffffff; opacity: 0.8; stroke: #cccccc; stroke-linejoin: miter"/>
    </g>
    <g id="line2d_33">
     <path d="M 492.3 39.325 
L 504.3 39.325 
L 516.3 39.325 
" style="fill: none; stroke: #1f77b4; stroke-width: 1.2; stroke-linecap: square"/>
    </g>
    <g id="text_18">
     <!-- GCN-DDQN -->
     <g transform="translate(525.9 43.525) scale(0.12 -0.12)">
      <defs>
       <path id="SimHei-47" d="M 2850 75 
L 2425 75 
L 2350 425 
Q 2250 275 2037 175 
Q 1825 75 1575 75 
Q 1050 75 637 562 
Q 225 1050 225 2125 
Q 225 3300 600 3875 
Q 975 4450 1625 4450 
Q 2200 4450 2525 4025 
Q 2850 3600 2850 2925 
L 2300 2925 
Q 2300 3450 2125 3712 
Q 1950 3975 1625 3975 
Q 1225 3975 1025 3562 
Q 825 3150 825 2175 
Q 825 1250 1075 900 
Q 1325 550 1650 550 
Q 1975 550 2162 787 
Q 2350 1025 2350 1525 
L 2350 1800 
L 1575 1800 
L 1575 2275 
L 2850 2275 
L 2850 75 
z
" transform="scale(0.015625)"/>
       <path id="SimHei-43" d="M 2975 1825 
Q 2950 875 2575 475 
Q 2200 75 1675 75 
Q 1075 75 650 562 
Q 225 1050 225 2125 
Q 225 3300 637 3875 
Q 1050 4450 1700 4450 
Q 2250 4450 2612 4037 
Q 2975 3625 2950 2875 
L 2400 2875 
Q 2400 3425 2225 3700 
Q 2050 3975 1700 3975 
Q 1300 3975 1062 3562 
Q 825 3150 825 2175 
Q 825 1275 1062 912 
Q 1300 550 1675 550 
Q 1950 550 2175 812 
Q 2400 1075 2400 1825 
L 2975 1825 
z
" transform="scale(0.015625)"/>
       <path id="SimHei-4e" d="M 2850 125 
L 2225 125 
L 850 3225 
L 825 3225 
L 825 125 
L 250 125 
L 250 4400 
L 875 4400 
L 2250 1300 
L 2275 1300 
L 2275 4400 
L 2850 4400 
L 2850 125 
z
" transform="scale(0.015625)"/>
       <path id="SimHei-2d" d="M 2975 2125 
L 125 2125 
L 125 2525 
L 2975 2525 
L 2975 2125 
z
" transform="scale(0.015625)"/>
       <path id="SimHei-51" d="M 2950 2275 
Q 2950 1675 2862 1262 
Q 2775 850 2575 600 
L 2775 225 
L 2375 -200 
L 2150 225 
Q 2050 150 1900 112 
Q 1750 75 1575 75 
Q 925 75 550 587 
Q 175 1100 175 2275 
Q 175 3450 550 3950 
Q 925 4450 1575 4450 
Q 2225 4450 2587 3950 
Q 2950 3450 2950 2275 
z
M 2350 2275 
Q 2350 3325 2125 3650 
Q 1900 3975 1575 3975 
Q 1250 3975 1012 3650 
Q 775 3325 775 2275 
Q 775 1225 1012 887 
Q 1250 550 1575 550 
Q 1700 550 1800 587 
Q 1900 625 1950 675 
L 1550 1450 
L 1900 1875 
L 2250 1200 
Q 2300 1450 2325 1650 
Q 2350 1850 2350 2275 
z
" transform="scale(0.015625)"/>
      </defs>
      <use xlink:href="#SimHei-47"/>
      <use xlink:href="#SimHei-43" transform="translate(50 0)"/>
      <use xlink:href="#SimHei-4e" transform="translate(100 0)"/>
      <use xlink:href="#SimHei-2d" transform="translate(150 0)"/>
      <use xlink:href="#SimHei-44" transform="translate(200 0)"/>
      <use xlink:href="#SimHei-44" transform="translate(250 0)"/>
      <use xlink:href="#SimHei-51" transform="translate(300 0)"/>
      <use xlink:href="#SimHei-4e" transform="translate(350 0)"/>
     </g>
    </g>
    <g id="line2d_34">
     <path d="M 492.3 55.225 
L 504.3 55.225 
L 516.3 55.225 
" style="fill: none; stroke: #ff7f0e; stroke-width: 1.2; stroke-linecap: square"/>
    </g>
    <g id="text_19">
     <!-- GCN-D3QN -->
     <g transform="translate(525.9 59.425) scale(0.12 -0.12)">
      <use xlink:href="#SimHei-47"/>
      <use xlink:href="#SimHei-43" transform="translate(50 0)"/>
      <use xlink:href="#SimHei-4e" transform="translate(100 0)"/>
      <use xlink:href="#SimHei-2d" transform="translate(150 0)"/>
      <use xlink:href="#SimHei-44" transform="translate(200 0)"/>
      <use xlink:href="#SimHei-33" transform="translate(250 0)"/>
      <use xlink:href="#SimHei-51" transform="translate(300 0)"/>
      <use xlink:href="#SimHei-4e" transform="translate(350 0)"/>
     </g>
    </g>
    <g id="line2d_35">
     <path d="M 492.3 71.125 
L 504.3 71.125 
L 516.3 71.125 
" style="fill: none; stroke: #2ca02c; stroke-width: 1.2; stroke-linecap: square"/>
    </g>
    <g id="text_20">
     <!-- GAT-LSTM-DDQN -->
     <g transform="translate(525.9 75.325) scale(0.12 -0.12)">
      <defs>
       <path id="SimHei-4c" d="M 2900 125 
L 300 125 
L 300 4400 
L 875 4400 
L 875 600 
L 2900 600 
L 2900 125 
z
" transform="scale(0.015625)"/>
       <path id="SimHei-53" d="M 2900 1325 
Q 2900 750 2537 412 
Q 2175 75 1550 75 
Q 925 75 575 425 
Q 225 775 225 1300 
L 225 1475 
L 800 1475 
L 800 1325 
Q 800 950 1025 750 
Q 1250 550 1550 550 
Q 1950 550 2137 762 
Q 2325 975 2325 1275 
Q 2325 1525 2100 1737 
Q 1875 1950 1450 2125 
Q 850 2350 587 2625 
Q 325 2900 325 3275 
Q 325 3800 687 4125 
Q 1050 4450 1550 4450 
Q 2200 4450 2487 4062 
Q 2775 3675 2775 3225 
L 2200 3225 
Q 2225 3500 2050 3725 
Q 1875 3950 1550 3950 
Q 1250 3950 1075 3787 
Q 900 3625 900 3350 
Q 900 3125 1037 2962 
Q 1175 2800 1750 2575 
Q 2300 2350 2600 2037 
Q 2900 1725 2900 1325 
z
" transform="scale(0.015625)"/>
       <path id="SimHei-4d" d="M 2925 125 
L 2425 125 
L 2425 3175 
L 2375 3175 
L 1775 125 
L 1375 125 
L 775 3175 
L 725 3175 
L 725 125 
L 225 125 
L 225 4400 
L 1000 4400 
L 1550 1575 
L 1600 1575 
L 2150 4400 
L 2925 4400 
L 2925 125 
z
" transform="scale(0.015625)"/>
      </defs>
      <use xlink:href="#SimHei-47"/>
      <use xlink:href="#SimHei-41" transform="translate(50 0)"/>
      <use xlink:href="#SimHei-54" transform="translate(100 0)"/>
      <use xlink:href="#SimHei-2d" transform="translate(150 0)"/>
      <use xlink:href="#SimHei-4c" transform="translate(200 0)"/>
      <use xlink:href="#SimHei-53" transform="translate(250 0)"/>
      <use xlink:href="#SimHei-54" transform="translate(300 0)"/>
      <use xlink:href="#SimHei-4d" transform="translate(350 0)"/>
      <use xlink:href="#SimHei-2d" transform="translate(400 0)"/>
      <use xlink:href="#SimHei-44" transform="translate(450 0)"/>
      <use xlink:href="#SimHei-44" transform="translate(500 0)"/>
      <use xlink:href="#SimHei-51" transform="translate(550 0)"/>
      <use xlink:href="#SimHei-4e" transform="translate(600 0)"/>
     </g>
    </g>
    <g id="line2d_36">
     <path d="M 492.3 87.025 
L 504.3 87.025 
L 516.3 87.025 
" style="fill: none; stroke: #9467bd; stroke-width: 1.2; stroke-linecap: square"/>
    </g>
    <g id="text_21">
     <!-- GLDVTO -->
     <g transform="translate(525.9 91.225) scale(0.12 -0.12)">
      <defs>
       <path id="SimHei-56" d="M 3050 4400 
L 1800 75 
L 1300 75 
L 50 4400 
L 650 4400 
L 1525 1125 
L 1575 1125 
L 2450 4400 
L 3050 4400 
z
" transform="scale(0.015625)"/>
       <path id="SimHei-4f" d="M 2950 2275 
Q 2950 1100 2587 587 
Q 2225 75 1575 75 
Q 925 75 550 587 
Q 175 1100 175 2275 
Q 175 3450 550 3950 
Q 925 4450 1575 4450 
Q 2225 4450 2587 3950 
Q 2950 3450 2950 2275 
z
M 2350 2275 
Q 2350 3325 2125 3650 
Q 1900 3975 1575 3975 
Q 1250 3975 1012 3650 
Q 775 3325 775 2275 
Q 775 1225 1012 887 
Q 1250 550 1575 550 
Q 1900 550 2125 887 
Q 2350 1225 2350 2275 
z
" transform="scale(0.015625)"/>
      </defs>
      <use xlink:href="#SimHei-47"/>
      <use xlink:href="#SimHei-4c" transform="translate(50 0)"/>
      <use xlink:href="#SimHei-44" transform="translate(100 0)"/>
      <use xlink:href="#SimHei-56" transform="translate(150 0)"/>
      <use xlink:href="#SimHei-54" transform="translate(200 0)"/>
      <use xlink:href="#SimHei-4f" transform="translate(250 0)"/>
     </g>
    </g>
   </g>
  </g>
 </g>
 <defs>
  <clipPath id="pcbda75b104">
   <rect x="56.7" y="24.325" width="558" height="332.64"/>
  </clipPath>
 </defs>
</svg>
