<?xml version="1.0" encoding="utf-8" standalone="no"?>
<!DOCTYPE svg PUBLIC "-//W3C//DTD SVG 1.1//EN"
  "http://www.w3.org/Graphics/SVG/1.1/DTD/svg11.dtd">
<svg xmlns:xlink="http://www.w3.org/1999/xlink" width="614.4pt" height="397.915pt" viewBox="0 0 614.4 397.915" xmlns="http://www.w3.org/2000/svg" version="1.1">
 <metadata>
  <rdf:RDF xmlns:dc="http://purl.org/dc/elements/1.1/" xmlns:cc="http://creativecommons.org/ns#" xmlns:rdf="http://www.w3.org/1999/02/22-rdf-syntax-ns#">
   <cc:Work>
    <dc:type rdf:resource="http://purl.org/dc/dcmitype/StillImage"/>
    <dc:date>2026-06-25T20:16:43.286247</dc:date>
    <dc:format>image/svg+xml</dc:format>
    <dc:creator>
     <cc:Agent>
      <dc:title>Matplotlib v3.10.7, https://matplotlib.org/</dc:title>
     </cc:Agent>
    </dc:creator>
   </cc:Work>
  </rdf:RDF>
 </metadata>
 <defs>
  <style type="text/css">*{stroke-linejoin: round; stroke-linecap: butt}</style>
 </defs>
 <g id="figure_1">
  <g id="patch_1">
   <path d="M 0 397.915 
L 614.4 397.915 
L 614.4 -0 
L 0 -0 
z
" style="fill: #ffffff"/>
  </g>
  <g id="axes_1">
   <g id="patch_2">
    <path d="M 49.2 356.965 
L 607.2 356.965 
L 607.2 24.325 
L 49.2 24.325 
z
" style="fill: #ffffff"/>
   </g>
   <g id="matplotlib.axis_1">
    <g id="xtick_1">
     <g id="line2d_1">
      <path d="M 74.563636 356.965 
L 74.563636 24.325 
" clip-path="url(#p6936cd8aaa)" style="fill: none; stroke: #b0b0b0; stroke-opacity: 0.3; stroke-width: 0.8; stroke-linecap: square"/>
     </g>
     <g id="line2d_2">
      <defs>
       <path id="m6445c76502" d="M 0 0 
L 0 3.5 
" style="stroke: #000000; stroke-width: 0.8"/>
      </defs>
      <g>
       <use xlink:href="#m6445c76502" x="74.563636" y="356.965" style="stroke: #000000; stroke-width: 0.8"/>
      </g>
     </g>
     <g id="text_1">
      <!-- 0 -->
      <g transform="translate(71.563636 372.215) scale(0.12 -0.12)">
       <defs>
        <path id="SimHei-30" d="M 225 2537 
Q 250 3200 412 3587 
Q 575 3975 875 4225 
Q 1175 4475 1612 4475 
Q 2050 4475 2375 4112 
Q 2700 3750 2800 3200 
Q 2900 2650 2862 1937 
Q 2825 1225 2612 775 
Q 2400 325 1975 150 
Q 1550 -25 1125 187 
Q 700 400 525 750 
Q 350 1100 275 1487 
Q 200 1875 225 2537 
z
M 750 2687 
Q 675 2000 800 1462 
Q 925 925 1212 700 
Q 1500 475 1800 612 
Q 2100 750 2237 1162 
Q 2375 1575 2375 2062 
Q 2375 2550 2337 2950 
Q 2300 3350 2112 3675 
Q 1925 4000 1612 4012 
Q 1300 4025 1062 3700 
Q 825 3375 750 2687 
z
" transform="scale(0.015625)"/>
       </defs>
       <use xlink:href="#SimHei-30"/>
      </g>
     </g>
    </g>
    <g id="xtick_2">
     <g id="line2d_3">
      <path d="M 138.131647 356.965 
L 138.131647 24.325 
" clip-path="url(#p6936cd8aaa)" style="fill: none; stroke: #b0b0b0; stroke-opacity: 0.3; stroke-width: 0.8; stroke-linecap: square"/>
     </g>
     <g id="line2d_4">
      <g>
       <use xlink:href="#m6445c76502" x="138.131647" y="356.965" style="stroke: #000000; stroke-width: 0.8"/>
      </g>
     </g>
     <g id="text_2">
      <!-- 50 -->
      <g transform="translate(132.131647 372.215) scale(0.12 -0.12)">
       <defs>
        <path id="SimHei-35" d="M 550 1325 
Q 725 650 1150 575 
Q 1575 500 1837 662 
Q 2100 825 2212 1087 
Q 2325 1350 2312 1675 
Q 2300 2000 2137 2225 
Q 1975 2450 1725 2525 
Q 1475 2600 1162 2525 
Q 850 2450 650 2175 
L 225 2225 
Q 275 2375 700 4375 
L 2675 4375 
L 2675 3925 
L 1075 3925 
Q 950 3250 825 2850 
Q 1200 3025 1525 3012 
Q 1850 3000 2150 2862 
Q 2450 2725 2587 2487 
Q 2725 2250 2787 2012 
Q 2850 1775 2837 1500 
Q 2825 1225 2725 937 
Q 2625 650 2425 462 
Q 2225 275 1937 162 
Q 1650 50 1275 75 
Q 900 100 562 350 
Q 225 600 100 1200 
L 550 1325 
z
" transform="scale(0.015625)"/>
       </defs>
       <use xlink:href="#SimHei-35"/>
       <use xlink:href="#SimHei-30" transform="translate(50 0)"/>
      </g>
     </g>
    </g>
    <g id="xtick_3">
     <g id="line2d_5">
      <path d="M 201.699658 356.965 
L 201.699658 24.325 
" clip-path="url(#p6936cd8aaa)" style="fill: none; stroke: #b0b0b0; stroke-opacity: 0.3; stroke-width: 0.8; stroke-linecap: square"/>
     </g>
     <g id="line2d_6">
      <g>
       <use xlink:href="#m6445c76502" x="201.699658" y="356.965" style="stroke: #000000; stroke-width: 0.8"/>
      </g>
     </g>
     <g id="text_3">
      <!-- 100 -->
      <g transform="translate(192.699658 372.215) scale(0.12 -0.12)">
       <defs>
        <path id="SimHei-31" d="M 1400 3600 
Q 1075 3275 575 2975 
L 575 3450 
Q 1200 3875 1600 4450 
L 1900 4450 
L 1900 150 
L 1400 150 
L 1400 3600 
z
" transform="scale(0.015625)"/>
       </defs>
       <use xlink:href="#SimHei-31"/>
       <use xlink:href="#SimHei-30" transform="translate(50 0)"/>
       <use xlink:href="#SimHei-30" transform="translate(100 0)"/>
      </g>
     </g>
    </g>
    <g id="xtick_4">
     <g id="line2d_7">
      <path d="M 265.267669 356.965 
L 265.267669 24.325 
" clip-path="url(#p6936cd8aaa)" style="fill: none; stroke: #b0b0b0; stroke-opacity: 0.3; stroke-width: 0.8; stroke-linecap: square"/>
     </g>
     <g id="line2d_8">
      <g>
       <use xlink:href="#m6445c76502" x="265.267669" y="356.965" style="stroke: #000000; stroke-width: 0.8"/>
      </g>
     </g>
     <g id="text_4">
      <!-- 150 -->
      <g transform="translate(256.267669 372.215) scale(0.12 -0.12)">
       <use xlink:href="#SimHei-31"/>
       <use xlink:href="#SimHei-35" transform="translate(50 0)"/>
       <use xlink:href="#SimHei-30" transform="translate(100 0)"/>
      </g>
     </g>
    </g>
    <g id="xtick_5">
     <g id="line2d_9">
      <path d="M 328.83568 356.965 
L 328.83568 24.325 
" clip-path="url(#p6936cd8aaa)" style="fill: none; stroke: #b0b0b0; stroke-opacity: 0.3; stroke-width: 0.8; stroke-linecap: square"/>
     </g>
     <g id="line2d_10">
      <g>
       <use xlink:href="#m6445c76502" x="328.83568" y="356.965" style="stroke: #000000; stroke-width: 0.8"/>
      </g>
     </g>
     <g id="text_5">
      <!-- 200 -->
      <g transform="translate(319.83568 372.215) scale(0.12 -0.12)">
       <defs>
        <path id="SimHei-32" d="M 300 250 
Q 325 625 650 925 
Q 975 1225 1475 1862 
Q 1975 2500 2125 2850 
Q 2275 3200 2237 3450 
Q 2200 3700 2000 3862 
Q 1800 4025 1537 4000 
Q 1275 3975 1037 3800 
Q 800 3625 675 3275 
L 200 3350 
Q 400 3925 712 4187 
Q 1025 4450 1450 4475 
Q 1700 4500 1900 4462 
Q 2100 4425 2312 4287 
Q 2525 4150 2662 3875 
Q 2800 3600 2762 3212 
Q 2725 2825 2375 2287 
Q 2025 1750 1025 600 
L 2825 600 
L 2825 150 
L 300 150 
L 300 250 
z
" transform="scale(0.015625)"/>
       </defs>
       <use xlink:href="#SimHei-32"/>
       <use xlink:href="#SimHei-30" transform="translate(50 0)"/>
       <use xlink:href="#SimHei-30" transform="translate(100 0)"/>
      </g>
     </g>
    </g>
    <g id="xtick_6">
     <g id="line2d_11">
      <path d="M 392.403691 356.965 
L 392.403691 24.325 
" clip-path="url(#p6936cd8aaa)" style="fill: none; stroke: #b0b0b0; stroke-opacity: 0.3; stroke-width: 0.8; stroke-linecap: square"/>
     </g>
     <g id="line2d_12">
      <g>
       <use xlink:href="#m6445c76502" x="392.403691" y="356.965" style="stroke: #000000; stroke-width: 0.8"/>
      </g>
     </g>
     <g id="text_6">
      <!-- 250 -->
      <g transform="translate(383.403691 372.215) scale(0.12 -0.12)">
       <use xlink:href="#SimHei-32"/>
       <use xlink:href="#SimHei-35" transform="translate(50 0)"/>
       <use xlink:href="#SimHei-30" transform="translate(100 0)"/>
      </g>
     </g>
    </g>
    <g id="xtick_7">
     <g id="line2d_13">
      <path d="M 455.971702 356.965 
L 455.971702 24.325 
" clip-path="url(#p6936cd8aaa)" style="fill: none; stroke: #b0b0b0; stroke-opacity: 0.3; stroke-width: 0.8; stroke-linecap: square"/>
     </g>
     <g id="line2d_14">
      <g>
       <use xlink:href="#m6445c76502" x="455.971702" y="356.965" style="stroke: #000000; stroke-width: 0.8"/>
      </g>
     </g>
     <g id="text_7">
      <!-- 300 -->
      <g transform="translate(446.971702 372.215) scale(0.12 -0.12)">
       <defs>
        <path id="SimHei-33" d="M 250 1225 
L 700 1300 
Q 800 975 1025 762 
Q 1250 550 1587 562 
Q 1925 575 2125 837 
Q 2325 1100 2300 1437 
Q 2275 1775 2037 1962 
Q 1800 2150 1275 2225 
L 1275 2550 
Q 1800 2600 2037 2825 
Q 2275 3050 2250 3412 
Q 2225 3775 1925 3937 
Q 1625 4100 1287 3975 
Q 950 3850 750 3275 
L 300 3350 
Q 450 3800 712 4100 
Q 975 4400 1425 4450 
Q 1875 4500 2212 4337 
Q 2550 4175 2687 3837 
Q 2825 3500 2725 3100 
Q 2625 2700 2150 2400 
Q 2500 2250 2687 1950 
Q 2875 1650 2812 1162 
Q 2750 675 2375 375 
Q 2000 75 1525 87 
Q 1050 100 700 387 
Q 350 675 250 1225 
z
" transform="scale(0.015625)"/>
       </defs>
       <use xlink:href="#SimHei-33"/>
       <use xlink:href="#SimHei-30" transform="translate(50 0)"/>
       <use xlink:href="#SimHei-30" transform="translate(100 0)"/>
      </g>
     </g>
    </g>
    <g id="xtick_8">
     <g id="line2d_15">
      <path d="M 519.539713 356.965 
L 519.539713 24.325 
" clip-path="url(#p6936cd8aaa)" style="fill: none; stroke: #b0b0b0; stroke-opacity: 0.3; stroke-width: 0.8; stroke-linecap: square"/>
     </g>
     <g id="line2d_16">
      <g>
       <use xlink:href="#m6445c76502" x="519.539713" y="356.965" style="stroke: #000000; stroke-width: 0.8"/>
      </g>
     </g>
     <g id="text_8">
      <!-- 350 -->
      <g transform="translate(510.539713 372.215) scale(0.12 -0.12)">
       <use xlink:href="#SimHei-33"/>
       <use xlink:href="#SimHei-35" transform="translate(50 0)"/>
       <use xlink:href="#SimHei-30" transform="translate(100 0)"/>
      </g>
     </g>
    </g>
    <g id="xtick_9">
     <g id="line2d_17">
      <path d="M 583.107724 356.965 
L 583.107724 24.325 
" clip-path="url(#p6936cd8aaa)" style="fill: none; stroke: #b0b0b0; stroke-opacity: 0.3; stroke-width: 0.8; stroke-linecap: square"/>
     </g>
     <g id="line2d_18">
      <g>
       <use xlink:href="#m6445c76502" x="583.107724" y="356.965" style="stroke: #000000; stroke-width: 0.8"/>
      </g>
     </g>
     <g id="text_9">
      <!-- 400 -->
      <g transform="translate(574.107724 372.215) scale(0.12 -0.12)">
       <defs>
        <path id="SimHei-34" d="M 2000 1100 
L 75 1100 
L 75 1525 
L 2100 4450 
L 2475 4450 
L 2475 1525 
L 3075 1525 
L 3075 1100 
L 2475 1100 
L 2475 150 
L 2000 150 
L 2000 1100 
z
M 2000 1525 
L 2000 3500 
L 600 1525 
L 2000 1525 
z
" transform="scale(0.015625)"/>
       </defs>
       <use xlink:href="#SimHei-34"/>
       <use xlink:href="#SimHei-30" transform="translate(50 0)"/>
       <use xlink:href="#SimHei-30" transform="translate(100 0)"/>
      </g>
     </g>
    </g>
    <g id="text_10">
     <!-- Episode -->
     <g transform="translate(300.2 388.715) scale(0.16 -0.16)">
      <defs>
       <path id="SimHei-45" d="M 2900 125 
L 350 125 
L 350 4400 
L 2775 4400 
L 2775 3925 
L 925 3925 
L 925 2600 
L 2625 2600 
L 2625 2125 
L 925 2125 
L 925 600 
L 2900 600 
L 2900 125 
z
" transform="scale(0.015625)"/>
       <path id="SimHei-70" d="M 2825 1525 
Q 2825 800 2475 425 
Q 2125 50 1625 50 
Q 1350 50 1150 162 
Q 950 275 800 500 
L 800 -800 
L 300 -800 
L 300 2925 
L 800 2925 
L 800 2550 
Q 950 2775 1150 2875 
Q 1350 2975 1625 2975 
Q 2125 2975 2475 2612 
Q 2825 2250 2825 1525 
z
M 2275 1525 
Q 2275 2000 2087 2262 
Q 1900 2525 1525 2525 
Q 1225 2525 1012 2262 
Q 800 2000 800 1525 
Q 800 1050 1012 775 
Q 1225 500 1525 500 
Q 1900 500 2087 775 
Q 2275 1050 2275 1525 
z
" transform="scale(0.015625)"/>
       <path id="SimHei-69" d="M 1800 3725 
L 1300 3725 
L 1300 4375 
L 1800 4375 
L 1800 3725 
z
M 1800 125 
L 1300 125 
L 1300 2925 
L 1800 2925 
L 1800 125 
z
" transform="scale(0.015625)"/>
       <path id="SimHei-73" d="M 2750 900 
Q 2750 500 2437 287 
Q 2125 75 1650 75 
Q 1050 75 725 312 
Q 400 550 400 1000 
L 900 1000 
Q 900 700 1112 600 
Q 1325 500 1625 500 
Q 1925 500 2075 612 
Q 2225 725 2225 900 
Q 2225 1025 2100 1150 
Q 1975 1275 1475 1350 
Q 900 1425 687 1637 
Q 475 1850 475 2200 
Q 475 2500 762 2737 
Q 1050 2975 1600 2975 
Q 2100 2975 2387 2750 
Q 2675 2525 2675 2150 
L 2175 2150 
Q 2175 2375 2012 2462 
Q 1850 2550 1600 2550 
Q 1275 2550 1137 2437 
Q 1000 2325 1000 2175 
Q 1000 2000 1125 1900 
Q 1250 1800 1650 1750 
Q 2300 1650 2525 1437 
Q 2750 1225 2750 900 
z
" transform="scale(0.015625)"/>
       <path id="SimHei-6f" d="M 2925 1525 
Q 2925 875 2525 475 
Q 2125 75 1575 75 
Q 1025 75 625 475 
Q 225 875 225 1525 
Q 225 2175 625 2575 
Q 1025 2975 1575 2975 
Q 2125 2975 2525 2575 
Q 2925 2175 2925 1525 
z
M 2375 1525 
Q 2375 2025 2125 2275 
Q 1875 2525 1575 2525 
Q 1275 2525 1025 2275 
Q 775 2025 775 1525 
Q 775 1025 1025 775 
Q 1275 525 1575 525 
Q 1875 525 2125 775 
Q 2375 1025 2375 1525 
z
" transform="scale(0.015625)"/>
       <path id="SimHei-64" d="M 2750 125 
L 2250 125 
L 2250 500 
Q 2100 275 1900 175 
Q 1700 75 1425 75 
Q 925 75 575 437 
Q 225 800 225 1525 
Q 225 2250 575 2625 
Q 925 3000 1425 3000 
Q 1700 3000 1900 2887 
Q 2100 2775 2250 2550 
L 2250 4400 
L 2750 4400 
L 2750 125 
z
M 2250 1525 
Q 2250 2000 2037 2275 
Q 1825 2550 1525 2550 
Q 1150 2550 962 2275 
Q 775 2000 775 1525 
Q 775 1050 962 787 
Q 1150 525 1525 525 
Q 1825 525 2037 787 
Q 2250 1050 2250 1525 
z
" transform="scale(0.015625)"/>
       <path id="SimHei-65" d="M 2850 1075 
Q 2800 625 2450 350 
Q 2100 75 1625 75 
Q 1025 75 637 462 
Q 250 850 250 1525 
Q 250 2200 637 2587 
Q 1025 2975 1625 2975 
Q 2150 2975 2487 2637 
Q 2825 2300 2825 1525 
L 800 1525 
Q 800 975 1037 750 
Q 1275 525 1625 525 
Q 1900 525 2075 662 
Q 2250 800 2300 1075 
L 2850 1075 
z
M 2250 1925 
Q 2200 2275 2025 2412 
Q 1850 2550 1575 2550 
Q 1325 2550 1125 2412 
Q 925 2275 825 1925 
L 2250 1925 
z
" transform="scale(0.015625)"/>
      </defs>
      <use xlink:href="#SimHei-45"/>
      <use xlink:href="#SimHei-70" transform="translate(50 0)"/>
      <use xlink:href="#SimHei-69" transform="translate(100 0)"/>
      <use xlink:href="#SimHei-73" transform="translate(150 0)"/>
      <use xlink:href="#SimHei-6f" transform="translate(200 0)"/>
      <use xlink:href="#SimHei-64" transform="translate(250 0)"/>
      <use xlink:href="#SimHei-65" transform="translate(300 0)"/>
     </g>
    </g>
   </g>
   <g id="matplotlib.axis_2">
    <g id="ytick_1">
     <g id="line2d_19">
      <path d="M 49.2 355.689617 
L 607.2 355.689617 
" clip-path="url(#p6936cd8aaa)" style="fill: none; stroke: #b0b0b0; stroke-opacity: 0.3; stroke-width: 0.8; stroke-linecap: square"/>
     </g>
     <g id="line2d_20">
      <defs>
       <path id="mfe274d8906" d="M 0 0 
L -3.5 0 
" style="stroke: #000000; stroke-width: 0.8"/>
      </defs>
      <g>
       <use xlink:href="#mfe274d8906" x="49.2" y="355.689617" style="stroke: #000000; stroke-width: 0.8"/>
      </g>
     </g>
     <g id="text_11">
      <!-- 0.0 -->
      <g transform="translate(24.2 359.814617) scale(0.12 -0.12)">
       <defs>
        <path id="SimHei-2e" d="M 1075 125 
L 500 125 
L 500 675 
L 1075 675 
L 1075 125 
z
" transform="scale(0.015625)"/>
       </defs>
       <use xlink:href="#SimHei-30"/>
       <use xlink:href="#SimHei-2e" transform="translate(50 0)"/>
       <use xlink:href="#SimHei-30" transform="translate(100 0)"/>
      </g>
     </g>
    </g>
    <g id="ytick_2">
     <g id="line2d_21">
      <path d="M 49.2 312.81768 
L 607.2 312.81768 
" clip-path="url(#p6936cd8aaa)" style="fill: none; stroke: #b0b0b0; stroke-opacity: 0.3; stroke-width: 0.8; stroke-linecap: square"/>
     </g>
     <g id="line2d_22">
      <g>
       <use xlink:href="#mfe274d8906" x="49.2" y="312.81768" style="stroke: #000000; stroke-width: 0.8"/>
      </g>
     </g>
     <g id="text_12">
      <!-- 0.5 -->
      <g transform="translate(24.2 316.94268) scale(0.12 -0.12)">
       <use xlink:href="#SimHei-30"/>
       <use xlink:href="#SimHei-2e" transform="translate(50 0)"/>
       <use xlink:href="#SimHei-35" transform="translate(100 0)"/>
      </g>
     </g>
    </g>
    <g id="ytick_3">
     <g id="line2d_23">
      <path d="M 49.2 269.945743 
L 607.2 269.945743 
" clip-path="url(#p6936cd8aaa)" style="fill: none; stroke: #b0b0b0; stroke-opacity: 0.3; stroke-width: 0.8; stroke-linecap: square"/>
     </g>
     <g id="line2d_24">
      <g>
       <use xlink:href="#mfe274d8906" x="49.2" y="269.945743" style="stroke: #000000; stroke-width: 0.8"/>
      </g>
     </g>
     <g id="text_13">
      <!-- 1.0 -->
      <g transform="translate(24.2 274.070743) scale(0.12 -0.12)">
       <use xlink:href="#SimHei-31"/>
       <use xlink:href="#SimHei-2e" transform="translate(50 0)"/>
       <use xlink:href="#SimHei-30" transform="translate(100 0)"/>
      </g>
     </g>
    </g>
    <g id="ytick_4">
     <g id="line2d_25">
      <path d="M 49.2 227.073806 
L 607.2 227.073806 
" clip-path="url(#p6936cd8aaa)" style="fill: none; stroke: #b0b0b0; stroke-opacity: 0.3; stroke-width: 0.8; stroke-linecap: square"/>
     </g>
     <g id="line2d_26">
      <g>
       <use xlink:href="#mfe274d8906" x="49.2" y="227.073806" style="stroke: #000000; stroke-width: 0.8"/>
      </g>
     </g>
     <g id="text_14">
      <!-- 1.5 -->
      <g transform="translate(24.2 231.198806) scale(0.12 -0.12)">
       <use xlink:href="#SimHei-31"/>
       <use xlink:href="#SimHei-2e" transform="translate(50 0)"/>
       <use xlink:href="#SimHei-35" transform="translate(100 0)"/>
      </g>
     </g>
    </g>
    <g id="ytick_5">
     <g id="line2d_27">
      <path d="M 49.2 184.201869 
L 607.2 184.201869 
" clip-path="url(#p6936cd8aaa)" style="fill: none; stroke: #b0b0b0; stroke-opacity: 0.3; stroke-width: 0.8; stroke-linecap: square"/>
     </g>
     <g id="line2d_28">
      <g>
       <use xlink:href="#mfe274d8906" x="49.2" y="184.201869" style="stroke: #000000; stroke-width: 0.8"/>
      </g>
     </g>
     <g id="text_15">
      <!-- 2.0 -->
      <g transform="translate(24.2 188.326869) scale(0.12 -0.12)">
       <use xlink:href="#SimHei-32"/>
       <use xlink:href="#SimHei-2e" transform="translate(50 0)"/>
       <use xlink:href="#SimHei-30" transform="translate(100 0)"/>
      </g>
     </g>
    </g>
    <g id="ytick_6">
     <g id="line2d_29">
      <path d="M 49.2 141.329931 
L 607.2 141.329931 
" clip-path="url(#p6936cd8aaa)" style="fill: none; stroke: #b0b0b0; stroke-opacity: 0.3; stroke-width: 0.8; stroke-linecap: square"/>
     </g>
     <g id="line2d_30">
      <g>
       <use xlink:href="#mfe274d8906" x="49.2" y="141.329931" style="stroke: #000000; stroke-width: 0.8"/>
      </g>
     </g>
     <g id="text_16">
      <!-- 2.5 -->
      <g transform="translate(24.2 145.454931) scale(0.12 -0.12)">
       <use xlink:href="#SimHei-32"/>
       <use xlink:href="#SimHei-2e" transform="translate(50 0)"/>
       <use xlink:href="#SimHei-35" transform="translate(100 0)"/>
      </g>
     </g>
    </g>
    <g id="ytick_7">
     <g id="line2d_31">
      <path d="M 49.2 98.457994 
L 607.2 98.457994 
" clip-path="url(#p6936cd8aaa)" style="fill: none; stroke: #b0b0b0; stroke-opacity: 0.3; stroke-width: 0.8; stroke-linecap: square"/>
     </g>
     <g id="line2d_32">
      <g>
       <use xlink:href="#mfe274d8906" x="49.2" y="98.457994" style="stroke: #000000; stroke-width: 0.8"/>
      </g>
     </g>
     <g id="text_17">
      <!-- 3.0 -->
      <g transform="translate(24.2 102.582994) scale(0.12 -0.12)">
       <use xlink:href="#SimHei-33"/>
       <use xlink:href="#SimHei-2e" transform="translate(50 0)"/>
       <use xlink:href="#SimHei-30" transform="translate(100 0)"/>
      </g>
     </g>
    </g>
    <g id="ytick_8">
     <g id="line2d_33">
      <path d="M 49.2 55.586057 
L 607.2 55.586057 
" clip-path="url(#p6936cd8aaa)" style="fill: none; stroke: #b0b0b0; stroke-opacity: 0.3; stroke-width: 0.8; stroke-linecap: square"/>
     </g>
     <g id="line2d_34">
      <g>
       <use xlink:href="#mfe274d8906" x="49.2" y="55.586057" style="stroke: #000000; stroke-width: 0.8"/>
      </g>
     </g>
     <g id="text_18">
      <!-- 3.5 -->
      <g transform="translate(24.2 59.711057) scale(0.12 -0.12)">
       <use xlink:href="#SimHei-33"/>
       <use xlink:href="#SimHei-2e" transform="translate(50 0)"/>
       <use xlink:href="#SimHei-35" transform="translate(100 0)"/>
      </g>
     </g>
    </g>
    <g id="text_19">
     <!-- Energy -->
     <g transform="translate(18.2 214.645) rotate(-90) scale(0.16 -0.16)">
      <defs>
       <path id="SimHei-6e" d="M 2800 125 
L 2300 125 
L 2300 1925 
Q 2300 2225 2150 2400 
Q 2000 2575 1750 2575 
Q 1425 2575 1137 2237 
Q 850 1900 850 1400 
L 850 125 
L 350 125 
L 350 2925 
L 850 2925 
L 850 2400 
Q 1050 2675 1287 2825 
Q 1525 2975 1900 2975 
Q 2350 2975 2575 2725 
Q 2800 2475 2800 2100 
L 2800 125 
z
" transform="scale(0.015625)"/>
       <path id="SimHei-72" d="M 2500 2425 
Q 2025 2500 1700 2287 
Q 1375 2075 1150 1550 
L 1150 125 
L 650 125 
L 650 2925 
L 1150 2925 
L 1150 2200 
Q 1375 2600 1712 2787 
Q 2050 2975 2500 2975 
L 2500 2425 
z
" transform="scale(0.015625)"/>
       <path id="SimHei-67" d="M 2975 2500 
Q 2800 2550 2637 2562 
Q 2475 2575 2300 2525 
Q 2375 2450 2425 2337 
Q 2475 2225 2475 2000 
Q 2475 1575 2187 1300 
Q 1900 1025 1475 1025 
Q 1375 1025 1212 1062 
Q 1050 1100 950 1150 
Q 875 1100 850 1050 
Q 825 1000 825 925 
Q 825 800 1000 737 
Q 1175 675 1625 675 
Q 2350 675 2612 475 
Q 2875 275 2875 -25 
Q 2875 -425 2487 -612 
Q 2100 -800 1575 -800 
Q 900 -800 575 -625 
Q 250 -450 250 -150 
Q 250 0 375 150 
Q 500 300 700 400 
Q 550 475 462 587 
Q 375 700 375 875 
Q 375 1025 487 1137 
Q 600 1250 750 1325 
Q 625 1450 550 1625 
Q 475 1800 475 2000 
Q 475 2425 762 2700 
Q 1050 2975 1475 2975 
Q 1700 2975 1862 2912 
Q 2025 2850 2150 2725 
Q 2350 2875 2550 2937 
Q 2750 3000 2975 2975 
L 2975 2500 
z
M 1975 2000 
Q 1975 2250 1850 2400 
Q 1725 2550 1475 2550 
Q 1225 2550 1100 2400 
Q 975 2250 975 2000 
Q 975 1750 1100 1600 
Q 1225 1450 1475 1450 
Q 1725 1450 1850 1600 
Q 1975 1750 1975 2000 
z
M 2400 -75 
Q 2400 25 2287 125 
Q 2175 225 1725 225 
Q 1625 225 1450 237 
Q 1275 250 1050 275 
Q 850 200 775 100 
Q 700 0 700 -100 
Q 700 -250 900 -350 
Q 1100 -450 1600 -450 
Q 2025 -450 2212 -337 
Q 2400 -225 2400 -75 
z
" transform="scale(0.015625)"/>
       <path id="SimHei-79" d="M 2900 2925 
L 1750 -100 
Q 1650 -450 1450 -625 
Q 1250 -800 950 -800 
Q 825 -800 712 -787 
Q 600 -775 500 -725 
L 500 -225 
Q 600 -275 700 -300 
Q 800 -325 875 -325 
Q 1075 -325 1150 -262 
Q 1225 -200 1300 25 
L 200 2925 
L 750 2925 
L 1550 725 
L 1575 725 
L 2350 2925 
L 2900 2925 
z
" transform="scale(0.015625)"/>
      </defs>
      <use xlink:href="#SimHei-45"/>
      <use xlink:href="#SimHei-6e" transform="translate(50 0)"/>
      <use xlink:href="#SimHei-65" transform="translate(100 0)"/>
      <use xlink:href="#SimHei-72" transform="translate(150 0)"/>
      <use xlink:href="#SimHei-67" transform="translate(200 0)"/>
      <use xlink:href="#SimHei-79" transform="translate(250 0)"/>
     </g>
    </g>
   </g>
   <g id="line2d_35">
    <path d="M 74.563636 174.796001 
L 75.834997 176.606902 
L 78.377717 192.69712 
L 80.920437 207.217993 
L 83.463158 220.288774 
L 86.005878 232.128249 
L 88.548599 242.803031 
L 89.819959 247.750123 
L 91.091319 249.448617 
L 93.63404 258.445912 
L 96.17676 266.530539 
L 98.719481 273.849872 
L 101.262201 280.55043 
L 103.804921 286.500889 
L 106.347642 291.917674 
L 108.890362 296.761316 
L 111.433083 301.194773 
L 113.975803 305.195818 
L 115.247163 307.041982 
L 116.518524 307.248611 
L 119.061244 310.561718 
L 121.603964 313.627804 
L 124.146685 316.387509 
L 126.689405 318.815132 
L 129.232126 321.063903 
L 130.503486 322.068374 
L 131.774846 313.765741 
L 134.317567 316.492439 
L 136.860287 318.937098 
L 139.403008 321.153673 
L 141.945728 323.167787 
L 143.217088 319.550211 
L 147.031169 322.802756 
L 149.573889 324.654754 
L 152.11661 326.316013 
L 155.93069 328.476288 
L 158.473411 329.716928 
L 164.830212 332.545149 
L 168.644293 333.821961 
L 172.458373 334.950319 
L 176.272454 335.826831 
L 185.171975 337.676761 
L 187.714696 338.073188 
L 201.699658 339.666347 
L 209.32782 340.097374 
L 210.59918 339.942818 
L 216.955981 340.345387 
L 230.940943 340.950207 
L 238.569105 340.99409 
L 252.554067 341.36557 
L 258.910868 341.478459 
L 261.453589 341.521417 
L 262.724949 341.313095 
L 263.996309 341.335637 
L 265.267669 337.504993 
L 274.167191 338.768651 
L 276.709911 339.056112 
L 277.981271 335.599895 
L 279.252632 335.916321 
L 280.523992 336.047531 
L 283.066712 336.591656 
L 286.880793 337.356588 
L 291.966234 338.197591 
L 298.323035 339.000423 
L 303.408476 339.495773 
L 311.036637 340.188761 
L 326.29296 340.827512 
L 330.10704 340.914963 
L 336.463841 341.109692 
L 344.092003 341.289421 
L 349.177444 341.37433 
L 351.720164 340.87284 
L 352.991524 340.895826 
L 354.262884 340.719146 
L 361.891046 340.909754 
L 363.162406 339.699328 
L 369.519207 340.189354 
L 377.147368 340.532738 
L 378.418729 340.446522 
L 379.690089 340.559027 
L 380.961449 337.112595 
L 383.50417 337.523259 
L 384.77553 334.550015 
L 389.860971 335.888155 
L 391.132331 335.873195 
L 392.403691 336.037477 
L 394.946411 336.580342 
L 402.574573 338.017802 
L 403.845933 338.188578 
L 405.117293 337.779807 
L 408.931374 338.399675 
L 416.559535 339.31469 
L 417.830895 337.885655 
L 419.102256 338.068165 
L 420.373616 333.607026 
L 421.644976 330.390142 
L 426.730417 332.507768 
L 431.815858 334.261863 
L 435.629938 335.352875 
L 438.172659 335.981182 
L 450.886261 338.26876 
L 459.785783 339.292427 
L 464.871224 339.759324 
L 466.142584 339.762178 
L 469.956664 340.065504 
L 480.127546 340.593811 
L 482.670267 340.699385 
L 483.941627 339.280492 
L 492.841148 340.005542 
L 495.383869 340.123038 
L 496.655229 340.228942 
L 497.926589 335.805193 
L 500.46931 336.441068 
L 508.097471 337.884733 
L 514.454272 338.745015 
L 519.539713 339.290507 
L 520.811073 339.387295 
L 522.082433 339.187603 
L 525.896514 339.533333 
L 527.167874 339.411964 
L 530.981955 339.7478 
L 534.796036 340.024971 
L 551.323718 340.918087 
L 566.580041 341.371905 
L 572.936842 341.314805 
L 580.565003 341.440698 
L 581.836364 341.428404 
L 581.836364 341.428404 
" clip-path="url(#p6936cd8aaa)" style="fill: none; stroke: #1f77b4; stroke-width: 1.2; stroke-linecap: square"/>
   </g>
   <g id="line2d_36">
    <path d="M 74.563636 40.068519 
L 75.834997 39.445 
L 77.106357 47.091075 
L 78.377717 52.989783 
L 79.649077 57.037257 
L 80.920437 66.00541 
L 82.191798 59.821262 
L 83.463158 63.358552 
L 84.734518 48.634529 
L 86.005878 48.061844 
L 87.277239 58.933154 
L 88.548599 66.5929 
L 89.819959 60.793488 
L 91.091319 68.137465 
L 92.362679 77.402413 
L 93.63404 90.476419 
L 94.9054 93.540827 
L 96.17676 86.116051 
L 97.44812 93.009411 
L 98.719481 93.201296 
L 99.990841 94.319717 
L 101.262201 99.922632 
L 102.533561 98.264982 
L 103.804921 107.700513 
L 105.076282 112.296508 
L 106.347642 101.079867 
L 107.619002 97.094083 
L 108.890362 93.790307 
L 110.161722 101.41296 
L 111.433083 105.392469 
L 112.704443 115.108142 
L 113.975803 113.318472 
L 115.247163 116.918647 
L 116.518524 102.59687 
L 117.789884 107.019952 
L 120.332604 114.339224 
L 121.603964 106.687021 
L 122.875325 108.237672 
L 124.146685 89.330838 
L 125.418045 85.293726 
L 126.689405 90.743503 
L 127.960766 95.621732 
L 129.232126 98.28612 
L 131.774846 121.878076 
L 134.317567 143.330626 
L 136.860287 162.730291 
L 139.403008 180.18348 
L 141.945728 195.890876 
L 144.488448 210.027031 
L 147.031169 222.87339 
L 149.573889 234.46344 
L 152.11661 244.951627 
L 154.65933 254.345218 
L 157.202051 262.946813 
L 159.744771 270.671047 
L 161.016131 274.214376 
L 164.830212 283.63921 
L 167.372932 289.358652 
L 169.915653 294.475556 
L 172.458373 299.01602 
L 175.001094 303.262239 
L 177.543814 307.008167 
L 178.815174 308.729879 
L 180.086535 308.4222 
L 182.629255 311.674586 
L 186.443336 315.898965 
L 188.986056 318.457651 
L 192.800137 321.799943 
L 195.342857 323.784672 
L 199.156938 326.41127 
L 202.971018 328.630232 
L 206.785099 330.481956 
L 208.056459 327.185091 
L 213.1419 329.898688 
L 218.227341 332.119822 
L 223.312782 333.926793 
L 227.126863 335.061949 
L 230.940943 336.067817 
L 238.569105 337.543031 
L 239.840465 337.748337 
L 242.383185 337.978588 
L 244.925906 338.343056 
L 246.197266 338.529423 
L 247.468626 338.48077 
L 250.011347 338.777784 
L 251.282707 336.65273 
L 253.825427 337.131847 
L 255.096787 337.238064 
L 262.724949 338.509554 
L 267.81039 339.127726 
L 277.981271 340.053066 
L 294.508954 341.016302 
L 304.679836 341.360443 
L 307.222556 341.426491 
L 312.307997 341.580762 
L 317.393438 341.691948 
L 322.478879 341.729244 
L 323.750239 338.320044 
L 326.29296 338.694462 
L 327.56432 336.864278 
L 333.921121 337.971392 
L 336.463841 338.223196 
L 342.820643 338.914423 
L 344.092003 336.268897 
L 349.177444 337.23387 
L 352.991524 337.862504 
L 360.619686 338.897436 
L 366.976487 339.517305 
L 375.876008 340.216918 
L 384.77553 340.75169 
L 388.58961 340.830424 
L 389.860971 339.356334 
L 394.946411 339.860859 
L 396.217772 328.554989 
L 401.303213 331.005535 
L 405.117293 332.516928 
L 408.931374 333.785238 
L 412.745455 334.865664 
L 419.102256 336.395887 
L 422.916336 337.127951 
L 430.544498 338.334409 
L 433.087218 338.648863 
L 438.172659 339.269859 
L 443.2581 339.695476 
L 452.157621 340.290346 
L 453.428982 336.539887 
L 454.700342 336.663306 
L 455.971702 336.925933 
L 457.243062 337.072206 
L 461.057143 337.793697 
L 466.142584 338.514973 
L 469.956664 338.95733 
L 475.042105 339.48418 
L 476.313465 339.513577 
L 480.127546 339.887958 
L 485.212987 340.183112 
L 489.027068 340.441058 
L 496.655229 340.759483 
L 510.640191 341.272604 
L 511.911552 340.616466 
L 522.082433 341.013665 
L 523.353794 338.553932 
L 528.439234 338.990919 
L 532.253315 339.363556 
L 537.338756 339.848441 
L 538.610116 337.937439 
L 539.881476 338.131809 
L 541.152837 338.09378 
L 543.695557 338.502789 
L 547.509638 338.867176 
L 555.137799 339.694929 
L 562.76596 340.2186 
L 574.208202 340.870936 
L 578.022283 340.953025 
L 580.565003 341.065837 
L 580.565003 341.065837 
" clip-path="url(#p6936cd8aaa)" style="fill: none; stroke: #ff7f0e; stroke-width: 1.2; stroke-linecap: square"/>
   </g>
   <g id="line2d_37">
    <path d="M 74.563636 102.268809 
L 75.834997 103.033096 
L 77.106357 106.804375 
L 78.377717 116.409735 
L 79.649077 124.419856 
L 80.920437 127.912248 
L 82.191798 138.423553 
L 83.463158 148.007669 
L 84.734518 152.233145 
L 86.005878 161.462351 
L 87.277239 167.589047 
L 88.548599 164.161961 
L 91.091319 181.426942 
L 93.63404 197.016281 
L 96.17676 211.142304 
L 97.44812 215.272413 
L 98.719481 221.581917 
L 102.533561 238.400234 
L 105.076282 248.498191 
L 107.619002 257.584903 
L 110.161722 265.815121 
L 112.704443 273.271153 
L 115.247163 279.962042 
L 117.789884 286.019308 
L 120.332604 291.452945 
L 122.875325 296.357161 
L 125.418045 300.7926 
L 127.960766 304.780546 
L 130.503486 308.445168 
L 133.046206 311.715484 
L 136.860287 316.018686 
L 139.403008 318.560105 
L 143.217088 321.846228 
L 145.759809 323.825376 
L 147.031169 324.706074 
L 148.302529 323.2745 
L 150.845249 325.078838 
L 153.38797 326.732204 
L 157.202051 328.879623 
L 159.744771 330.174422 
L 163.558852 331.821489 
L 164.830212 332.292114 
L 166.101572 329.22554 
L 167.372932 329.903584 
L 172.458373 332.033676 
L 180.086535 334.622044 
L 181.357895 334.949327 
L 182.629255 333.23065 
L 185.171975 334.05747 
L 196.614217 336.924879 
L 197.885578 336.998319 
L 205.513739 338.200785 
L 206.785099 334.988909 
L 210.59918 335.916618 
L 211.87054 335.908625 
L 214.41326 336.327858 
L 227.126863 338.471792 
L 234.755024 339.369765 
L 238.569105 339.70176 
L 243.654545 340.087107 
L 251.282707 340.551379 
L 252.554067 340.618446 
L 255.096787 340.269568 
L 266.539029 340.977414 
L 270.35311 341.05486 
L 277.981271 341.243997 
L 281.795352 341.419 
L 283.066712 341.291451 
L 289.423513 341.503923 
L 294.508954 341.520484 
L 299.594395 341.639215 
L 305.951196 341.673529 
L 312.307997 341.684085 
L 316.122078 341.747205 
L 323.750239 341.760721 
L 325.021599 335.993634 
L 331.378401 337.319869 
L 335.192481 337.935558 
L 347.906083 339.548039 
L 356.805605 340.225678 
L 365.705126 340.71849 
L 369.519207 340.834369 
L 373.333288 340.880246 
L 380.961449 341.192974 
L 391.132331 341.306861 
L 401.303213 341.411052 
L 403.845933 341.461525 
L 405.117293 341.324883 
L 406.388653 330.673971 
L 410.202734 332.306738 
L 416.559535 334.48323 
L 420.373616 335.5239 
L 422.916336 336.066244 
L 431.815858 337.834879 
L 435.629938 338.387341 
L 436.901299 338.222246 
L 439.444019 338.585694 
L 443.2581 339.072748 
L 448.343541 339.51553 
L 455.971702 340.163677 
L 462.328503 340.49054 
L 467.413944 340.753703 
L 473.770745 341.070826 
L 476.313465 341.119776 
L 482.670267 341.348892 
L 483.941627 341.223528 
L 513.182912 341.593343 
L 515.725632 341.708912 
L 520.811073 341.730286 
L 523.353794 341.780293 
L 524.625154 341.735483 
L 525.896514 330.158458 
L 537.338756 334.307996 
L 543.695557 336.065615 
L 547.509638 336.892348 
L 551.323718 337.572929 
L 560.22324 338.89721 
L 571.665482 340.082401 
L 572.936842 339.818448 
L 574.208202 339.900364 
L 575.479563 339.864164 
L 580.565003 340.366598 
L 580.565003 340.366598 
" clip-path="url(#p6936cd8aaa)" style="fill: none; stroke: #2ca02c; stroke-width: 1.2; stroke-linecap: square"/>
   </g>
   <g id="line2d_38">
    <path d="M 74.563636 102.268809 
L 75.834997 111.19729 
L 77.106357 116.605788 
L 78.377717 124.134897 
L 79.649077 129.90355 
L 80.920437 129.337241 
L 82.191798 139.965611 
L 83.463158 146.687881 
L 84.734518 156.408412 
L 86.005878 162.191504 
L 88.548599 179.387687 
L 91.091319 195.218347 
L 93.63404 209.460314 
L 96.17676 222.385876 
L 98.719481 234.07147 
L 101.262201 244.513132 
L 103.804921 253.947525 
L 106.347642 262.544153 
L 108.890362 270.290929 
L 111.433083 277.232712 
L 113.975803 283.552852 
L 116.518524 289.23434 
L 119.061244 294.447045 
L 121.603964 299.097549 
L 124.146685 303.259311 
L 126.689405 307.042883 
L 127.960766 306.563554 
L 131.774846 311.576975 
L 134.317567 314.46794 
L 136.860287 317.191563 
L 139.403008 319.615644 
L 141.945728 321.843659 
L 145.759809 324.669705 
L 148.302529 326.288295 
L 150.845249 327.791003 
L 153.38797 329.008375 
L 157.202051 330.807695 
L 161.016131 332.428606 
L 164.830212 333.769722 
L 171.187013 335.501427 
L 176.272454 336.612308 
L 182.629255 337.884434 
L 185.171975 338.129298 
L 192.800137 339.077472 
L 206.785099 340.317245 
L 213.1419 340.670248 
L 223.312782 341.039037 
L 224.584142 341.107602 
L 225.855502 341.040063 
L 227.126863 341.097338 
L 228.398223 340.977028 
L 236.026384 341.252994 
L 241.111825 341.370498 
L 244.925906 341.403453 
L 253.825427 341.507672 
L 255.096787 337.710906 
L 265.267669 339.208686 
L 284.338072 340.672927 
L 288.152153 340.860562 
L 291.966234 340.938242 
L 298.323035 341.148971 
L 305.951196 341.345618 
L 307.222556 341.146265 
L 316.122078 341.282226 
L 317.393438 341.029012 
L 326.29296 341.244478 
L 337.735202 341.48613 
L 342.820643 341.575592 
L 346.634723 341.501495 
L 372.061928 341.600681 
L 374.604648 341.627225 
L 379.690089 341.704211 
L 382.232809 341.703847 
L 393.675051 341.831165 
L 403.845933 341.819608 
L 416.559535 341.654007 
L 417.830895 338.74565 
L 428.001777 339.777845 
L 431.815858 339.981652 
L 439.444019 340.477912 
L 473.770745 341.513047 
L 486.484347 341.572484 
L 491.569788 341.644597 
L 503.01203 341.441997 
L 506.826111 341.5429 
L 510.640191 341.641718 
L 523.353794 341.793397 
L 527.167874 341.722045 
L 537.338756 341.677776 
L 541.152837 341.630352 
L 546.238278 341.734607 
L 548.780998 341.727356 
L 550.052358 341.482293 
L 556.409159 341.581932 
L 565.308681 341.641728 
L 566.580041 339.141255 
L 578.022283 340.189948 
L 580.565003 340.339296 
L 580.565003 340.339296 
" clip-path="url(#p6936cd8aaa)" style="fill: none; stroke: #9467bd; stroke-width: 1.2; stroke-linecap: square"/>
   </g>
   <g id="patch_3">
    <path d="M 49.2 356.965 
L 49.2 24.325 
" style="fill: none; stroke: #000000; stroke-width: 0.8; stroke-linejoin: miter; stroke-linecap: square"/>
   </g>
   <g id="patch_4">
    <path d="M 607.2 356.965 
L 607.2 24.325 
" style="fill: none; stroke: #000000; stroke-width: 0.8; stroke-linejoin: miter; stroke-linecap: square"/>
   </g>
   <g id="patch_5">
    <path d="M 49.2 356.965 
L 607.2 356.965 
" style="fill: none; stroke: #000000; stroke-width: 0.8; stroke-linejoin: miter; stroke-linecap: square"/>
   </g>
   <g id="patch_6">
    <path d="M 49.2 24.325 
L 607.2 24.325 
" style="fill: none; stroke: #000000; stroke-width: 0.8; stroke-linejoin: miter; stroke-linecap: square"/>
   </g>
   <g id="text_20">
    <!-- Total Energy Consumption -->
    <g transform="translate(232.2 18.325) scale(0.16 -0.16)">
     <defs>
      <path id="SimHei-54" d="M 2850 3925 
L 1850 3925 
L 1850 125 
L 1275 125 
L 1275 3925 
L 275 3925 
L 275 4400 
L 2850 4400 
L 2850 3925 
z
" transform="scale(0.015625)"/>
      <path id="SimHei-74" d="M 2750 200 
Q 2625 150 2462 112 
Q 2300 75 2025 75 
Q 1575 75 1300 325 
Q 1025 575 1025 1025 
L 1025 2525 
L 175 2525 
L 175 2925 
L 1025 2925 
L 1025 3900 
L 1525 3900 
L 1525 2925 
L 2550 2925 
L 2550 2525 
L 1525 2525 
L 1525 1000 
Q 1525 800 1625 662 
Q 1725 525 2000 525 
Q 2275 525 2450 575 
Q 2625 625 2750 700 
L 2750 200 
z
" transform="scale(0.015625)"/>
      <path id="SimHei-61" d="M 2875 125 
L 2275 125 
Q 2225 175 2200 262 
Q 2175 350 2175 475 
Q 2000 275 1750 175 
Q 1500 75 1225 75 
Q 825 75 550 275 
Q 275 475 275 850 
Q 275 1225 525 1450 
Q 775 1675 1300 1750 
Q 1650 1800 1912 1875 
Q 2175 1950 2175 2075 
Q 2175 2225 2062 2375 
Q 1950 2525 1575 2525 
Q 1275 2525 1137 2412 
Q 1000 2300 950 2100 
L 400 2100 
Q 450 2500 762 2737 
Q 1075 2975 1575 2975 
Q 2125 2975 2400 2725 
Q 2675 2475 2675 2025 
L 2675 650 
Q 2675 500 2725 375 
Q 2775 250 2875 125 
z
M 2175 1050 
L 2175 1550 
Q 2025 1500 1887 1462 
Q 1750 1425 1425 1375 
Q 1050 1325 937 1200 
Q 825 1075 825 900 
Q 825 750 937 637 
Q 1050 525 1275 525 
Q 1500 525 1762 650 
Q 2025 775 2175 1050 
z
" transform="scale(0.015625)"/>
      <path id="SimHei-6c" d="M 1825 125 
L 1325 125 
L 1325 4400 
L 1825 4400 
L 1825 125 
z
" transform="scale(0.015625)"/>
      <path id="SimHei-20" transform="scale(0.015625)"/>
      <path id="SimHei-43" d="M 2975 1825 
Q 2950 875 2575 475 
Q 2200 75 1675 75 
Q 1075 75 650 562 
Q 225 1050 225 2125 
Q 225 3300 637 3875 
Q 1050 4450 1700 4450 
Q 2250 4450 2612 4037 
Q 2975 3625 2950 2875 
L 2400 2875 
Q 2400 3425 2225 3700 
Q 2050 3975 1700 3975 
Q 1300 3975 1062 3562 
Q 825 3150 825 2175 
Q 825 1275 1062 912 
Q 1300 550 1675 550 
Q 1950 550 2175 812 
Q 2400 1075 2400 1825 
L 2975 1825 
z
" transform="scale(0.015625)"/>
      <path id="SimHei-75" d="M 2800 125 
L 2300 125 
L 2300 650 
Q 2100 375 1862 225 
Q 1625 75 1250 75 
Q 800 75 575 325 
Q 350 575 350 950 
L 350 2925 
L 850 2925 
L 850 1125 
Q 850 825 1000 650 
Q 1150 475 1400 475 
Q 1725 475 2012 812 
Q 2300 1150 2300 1650 
L 2300 2925 
L 2800 2925 
L 2800 125 
z
" transform="scale(0.015625)"/>
      <path id="SimHei-6d" d="M 3050 125 
L 2550 125 
L 2550 2150 
Q 2550 2300 2500 2400 
Q 2450 2500 2300 2500 
Q 2125 2500 1975 2312 
Q 1825 2125 1825 1825 
L 1825 125 
L 1325 125 
L 1325 2150 
Q 1325 2300 1275 2400 
Q 1225 2500 1075 2500 
Q 900 2500 750 2312 
Q 600 2125 600 1825 
L 600 125 
L 100 125 
L 100 2925 
L 600 2925 
L 600 2550 
Q 725 2750 900 2862 
Q 1075 2975 1275 2975 
Q 1475 2975 1612 2862 
Q 1750 2750 1800 2550 
Q 1925 2750 2087 2862 
Q 2250 2975 2450 2975 
Q 2750 2975 2900 2812 
Q 3050 2650 3050 2350 
L 3050 125 
z
" transform="scale(0.015625)"/>
     </defs>
     <use xlink:href="#SimHei-54"/>
     <use xlink:href="#SimHei-6f" transform="translate(50 0)"/>
     <use xlink:href="#SimHei-74" transform="translate(100 0)"/>
     <use xlink:href="#SimHei-61" transform="translate(150 0)"/>
     <use xlink:href="#SimHei-6c" transform="translate(200 0)"/>
     <use xlink:href="#SimHei-20" transform="translate(250 0)"/>
     <use xlink:href="#SimHei-45" transform="translate(300 0)"/>
     <use xlink:href="#SimHei-6e" transform="translate(350 0)"/>
     <use xlink:href="#SimHei-65" transform="translate(400 0)"/>
     <use xlink:href="#SimHei-72" transform="translate(450 0)"/>
     <use xlink:href="#SimHei-67" transform="translate(500 0)"/>
     <use xlink:href="#SimHei-79" transform="translate(550 0)"/>
     <use xlink:href="#SimHei-20" transform="translate(600 0)"/>
     <use xlink:href="#SimHei-43" transform="translate(650 0)"/>
     <use xlink:href="#SimHei-6f" transform="translate(700 0)"/>
     <use xlink:href="#SimHei-6e" transform="translate(750 0)"/>
     <use xlink:href="#SimHei-73" transform="translate(800 0)"/>
     <use xlink:href="#SimHei-75" transform="translate(850 0)"/>
     <use xlink:href="#SimHei-6d" transform="translate(900 0)"/>
     <use xlink:href="#SimHei-70" transform="translate(950 0)"/>
     <use xlink:href="#SimHei-74" transform="translate(1000 0)"/>
     <use xlink:href="#SimHei-69" transform="translate(1050 0)"/>
     <use xlink:href="#SimHei-6f" transform="translate(1100 0)"/>
     <use xlink:href="#SimHei-6e" transform="translate(1150 0)"/>
    </g>
   </g>
   <g id="legend_1">
    <g id="patch_7">
     <path d="M 482.4 97.525 
L 598.8 97.525 
Q 601.2 97.525 601.2 95.125 
L 601.2 32.725 
Q 601.2 30.325 598.8 30.325 
L 482.4 30.325 
Q 480 30.325 480 32.725 
L 480 95.125 
Q 480 97.525 482.4 97.525 
z
" style="fill: #ffffff; opacity: 0.8; stroke: #cccccc; stroke-linejoin: miter"/>
    </g>
    <g id="line2d_39">
     <path d="M 484.8 39.325 
L 496.8 39.325 
L 508.8 39.325 
" style="fill: none; stroke: #1f77b4; stroke-width: 1.2; stroke-linecap: square"/>
    </g>
    <g id="text_21">
     <!-- GCN-DDQN -->
     <g transform="translate(518.4 43.525) scale(0.12 -0.12)">
      <defs>
       <path id="SimHei-47" d="M 2850 75 
L 2425 75 
L 2350 425 
Q 2250 275 2037 175 
Q 1825 75 1575 75 
Q 1050 75 637 562 
Q 225 1050 225 2125 
Q 225 3300 600 3875 
Q 975 4450 1625 4450 
Q 2200 4450 2525 4025 
Q 2850 3600 2850 2925 
L 2300 2925 
Q 2300 3450 2125 3712 
Q 1950 3975 1625 3975 
Q 1225 3975 1025 3562 
Q 825 3150 825 2175 
Q 825 1250 1075 900 
Q 1325 550 1650 550 
Q 1975 550 2162 787 
Q 2350 1025 2350 1525 
L 2350 1800 
L 1575 1800 
L 1575 2275 
L 2850 2275 
L 2850 75 
z
" transform="scale(0.015625)"/>
       <path id="SimHei-4e" d="M 2850 125 
L 2225 125 
L 850 3225 
L 825 3225 
L 825 125 
L 250 125 
L 250 4400 
L 875 4400 
L 2250 1300 
L 2275 1300 
L 2275 4400 
L 2850 4400 
L 2850 125 
z
" transform="scale(0.015625)"/>
       <path id="SimHei-2d" d="M 2975 2125 
L 125 2125 
L 125 2525 
L 2975 2525 
L 2975 2125 
z
" transform="scale(0.015625)"/>
       <path id="SimHei-44" d="M 2925 2250 
Q 2925 1100 2437 612 
Q 1950 125 1125 125 
L 275 125 
L 275 4400 
L 1125 4400 
Q 2050 4400 2487 3900 
Q 2925 3400 2925 2250 
z
M 2325 2250 
Q 2325 3175 2025 3550 
Q 1725 3925 1125 3925 
L 850 3925 
L 850 600 
L 1125 600 
Q 1725 600 2025 962 
Q 2325 1325 2325 2250 
z
" transform="scale(0.015625)"/>
       <path id="SimHei-51" d="M 2950 2275 
Q 2950 1675 2862 1262 
Q 2775 850 2575 600 
L 2775 225 
L 2375 -200 
L 2150 225 
Q 2050 150 1900 112 
Q 1750 75 1575 75 
Q 925 75 550 587 
Q 175 1100 175 2275 
Q 175 3450 550 3950 
Q 925 4450 1575 4450 
Q 2225 4450 2587 3950 
Q 2950 3450 2950 2275 
z
M 2350 2275 
Q 2350 3325 2125 3650 
Q 1900 3975 1575 3975 
Q 1250 3975 1012 3650 
Q 775 3325 775 2275 
Q 775 1225 1012 887 
Q 1250 550 1575 550 
Q 1700 550 1800 587 
Q 1900 625 1950 675 
L 1550 1450 
L 1900 1875 
L 2250 1200 
Q 2300 1450 2325 1650 
Q 2350 1850 2350 2275 
z
" transform="scale(0.015625)"/>
      </defs>
      <use xlink:href="#SimHei-47"/>
      <use xlink:href="#SimHei-43" transform="translate(50 0)"/>
      <use xlink:href="#SimHei-4e" transform="translate(100 0)"/>
      <use xlink:href="#SimHei-2d" transform="translate(150 0)"/>
      <use xlink:href="#SimHei-44" transform="translate(200 0)"/>
      <use xlink:href="#SimHei-44" transform="translate(250 0)"/>
      <use xlink:href="#SimHei-51" transform="translate(300 0)"/>
      <use xlink:href="#SimHei-4e" transform="translate(350 0)"/>
     </g>
    </g>
    <g id="line2d_40">
     <path d="M 484.8 55.225 
L 496.8 55.225 
L 508.8 55.225 
" style="fill: none; stroke: #ff7f0e; stroke-width: 1.2; stroke-linecap: square"/>
    </g>
    <g id="text_22">
     <!-- GCN-D3QN -->
     <g transform="translate(518.4 59.425) scale(0.12 -0.12)">
      <use xlink:href="#SimHei-47"/>
      <use xlink:href="#SimHei-43" transform="translate(50 0)"/>
      <use xlink:href="#SimHei-4e" transform="translate(100 0)"/>
      <use xlink:href="#SimHei-2d" transform="translate(150 0)"/>
      <use xlink:href="#SimHei-44" transform="translate(200 0)"/>
      <use xlink:href="#SimHei-33" transform="translate(250 0)"/>
      <use xlink:href="#SimHei-51" transform="translate(300 0)"/>
      <use xlink:href="#SimHei-4e" transform="translate(350 0)"/>
     </g>
    </g>
    <g id="line2d_41">
     <path d="M 484.8 71.125 
L 496.8 71.125 
L 508.8 71.125 
" style="fill: none; stroke: #2ca02c; stroke-width: 1.2; stroke-linecap: square"/>
    </g>
    <g id="text_23">
     <!-- GAT-LSTM-DDQN -->
     <g transform="translate(518.4 75.325) scale(0.12 -0.12)">
      <defs>
       <path id="SimHei-41" d="M 3075 125 
L 2475 125 
L 2125 1450 
L 1025 1450 
L 675 125 
L 75 125 
L 1325 4450 
L 1825 4450 
L 3075 125 
z
M 2000 1925 
L 1600 3450 
L 1550 3450 
L 1150 1925 
L 2000 1925 
z
" transform="scale(0.015625)"/>
       <path id="SimHei-4c" d="M 2900 125 
L 300 125 
L 300 4400 
L 875 4400 
L 875 600 
L 2900 600 
L 2900 125 
z
" transform="scale(0.015625)"/>
       <path id="SimHei-53" d="M 2900 1325 
Q 2900 750 2537 412 
Q 2175 75 1550 75 
Q 925 75 575 425 
Q 225 775 225 1300 
L 225 1475 
L 800 1475 
L 800 1325 
Q 800 950 1025 750 
Q 1250 550 1550 550 
Q 1950 550 2137 762 
Q 2325 975 2325 1275 
Q 2325 1525 2100 1737 
Q 1875 1950 1450 2125 
Q 850 2350 587 2625 
Q 325 2900 325 3275 
Q 325 3800 687 4125 
Q 1050 4450 1550 4450 
Q 2200 4450 2487 4062 
Q 2775 3675 2775 3225 
L 2200 3225 
Q 2225 3500 2050 3725 
Q 1875 3950 1550 3950 
Q 1250 3950 1075 3787 
Q 900 3625 900 3350 
Q 900 3125 1037 2962 
Q 1175 2800 1750 2575 
Q 2300 2350 2600 2037 
Q 2900 1725 2900 1325 
z
" transform="scale(0.015625)"/>
       <path id="SimHei-4d" d="M 2925 125 
L 2425 125 
L 2425 3175 
L 2375 3175 
L 1775 125 
L 1375 125 
L 775 3175 
L 725 3175 
L 725 125 
L 225 125 
L 225 4400 
L 1000 4400 
L 1550 1575 
L 1600 1575 
L 2150 4400 
L 2925 4400 
L 2925 125 
z
" transform="scale(0.015625)"/>
      </defs>
      <use xlink:href="#SimHei-47"/>
      <use xlink:href="#SimHei-41" transform="translate(50 0)"/>
      <use xlink:href="#SimHei-54" transform="translate(100 0)"/>
      <use xlink:href="#SimHei-2d" transform="translate(150 0)"/>
      <use xlink:href="#SimHei-4c" transform="translate(200 0)"/>
      <use xlink:href="#SimHei-53" transform="translate(250 0)"/>
      <use xlink:href="#SimHei-54" transform="translate(300 0)"/>
      <use xlink:href="#SimHei-4d" transform="translate(350 0)"/>
      <use xlink:href="#SimHei-2d" transform="translate(400 0)"/>
      <use xlink:href="#SimHei-44" transform="translate(450 0)"/>
      <use xlink:href="#SimHei-44" transform="translate(500 0)"/>
      <use xlink:href="#SimHei-51" transform="translate(550 0)"/>
      <use xlink:href="#SimHei-4e" transform="translate(600 0)"/>
     </g>
    </g>
    <g id="line2d_42">
     <path d="M 484.8 87.025 
L 496.8 87.025 
L 508.8 87.025 
" style="fill: none; stroke: #9467bd; stroke-width: 1.2; stroke-linecap: square"/>
    </g>
    <g id="text_24">
     <!-- GLDVTO -->
     <g transform="translate(518.4 91.225) scale(0.12 -0.12)">
      <defs>
       <path id="SimHei-56" d="M 3050 4400 
L 1800 75 
L 1300 75 
L 50 4400 
L 650 4400 
L 1525 1125 
L 1575 1125 
L 2450 4400 
L 3050 4400 
z
" transform="scale(0.015625)"/>
       <path id="SimHei-4f" d="M 2950 2275 
Q 2950 1100 2587 587 
Q 2225 75 1575 75 
Q 925 75 550 587 
Q 175 1100 175 2275 
Q 175 3450 550 3950 
Q 925 4450 1575 4450 
Q 2225 4450 2587 3950 
Q 2950 3450 2950 2275 
z
M 2350 2275 
Q 2350 3325 2125 3650 
Q 1900 3975 1575 3975 
Q 1250 3975 1012 3650 
Q 775 3325 775 2275 
Q 775 1225 1012 887 
Q 1250 550 1575 550 
Q 1900 550 2125 887 
Q 2350 1225 2350 2275 
z
" transform="scale(0.015625)"/>
      </defs>
      <use xlink:href="#SimHei-47"/>
      <use xlink:href="#SimHei-4c" transform="translate(50 0)"/>
      <use xlink:href="#SimHei-44" transform="translate(100 0)"/>
      <use xlink:href="#SimHei-56" transform="translate(150 0)"/>
      <use xlink:href="#SimHei-54" transform="translate(200 0)"/>
      <use xlink:href="#SimHei-4f" transform="translate(250 0)"/>
     </g>
    </g>
   </g>
  </g>
 </g>
 <defs>
  <clipPath id="p6936cd8aaa">
   <rect x="49.2" y="24.325" width="558" height="332.64"/>
  </clipPath>
 </defs>
</svg>
